<?xml version="1.0" encoding="utf-8"?>
<!-- Generator: Adobe Illustrator 26.5.0, SVG Export Plug-In . SVG Version: 6.00 Build 0)  -->
<svg version="1.1" id="图层_1" xmlns="http://www.w3.org/2000/svg" xmlns:xlink="http://www.w3.org/1999/xlink" x="0px" y="0px"
	 viewBox="0 0 2560 640.2" style="enable-background:new 0 0 2560 640.2;" xml:space="preserve">
<style type="text/css">
	.st0{fill:none;}
	.st1{fill:#D3D3D3;}
	.st2{fill:url(#SVGID_1_);}
	.st3{fill:url(#bd2989e7-05c7-4853-98ea-2fa9ff19b5cd_00000166678001141425558870000004568271484471846049_);}
	.st4{fill:url(#bd732589-008a-4c51-9ff2-46ab15f6553b_00000062888534053413211450000000813794899468800145_);}
	.st5{fill:url(#ec0d8dbf-0b17-48c9-a85b-07bbfb49da55_00000111875391988387533250000010596669127208521640_);}
	.st6{fill:url(#a1b01f19-8205-4236-a039-555c8066ce6a_00000168810266564476679580000009625936297074702993_);}
	.st7{fill:url(#b1ee0649-ba92-46ed-8d36-e5088a2666de_00000074421499270093451770000006820857178276143789_);}
	.st8{fill:url(#a38ce469-035a-4100-b708-c65da37f1c3d_00000021115916443798741150000002592903974867275426_);}
	.st9{fill:url(#a4565755-0d8d-446e-97ad-4e9353c801e1_00000048459096803458152290000011652444337402701485_);}
	.st10{fill:url(#a2b2c59b-17bb-4582-91cf-a628cdeb8edc_00000103244234779073876190000017369018611667705533_);}
	.st11{fill:url(#aabb173b-9ab8-4aee-86b8-19e8c216f43d_00000029759578769525954880000002941928043242780571_);}
	.st12{fill:url(#b430c050-b4e6-4686-840b-1468bb7ed50a_00000071521887136600071390000008456690757722278067_);}
	.st13{fill:url(#a8526e27-70eb-4611-bcc3-4fcedfd77841_00000028308022379080989680000018012056622488981436_);}
	.st14{fill:url(#a8a7639b-2829-4523-946d-5cdbc0cb160b_00000150085627795818826930000000826739838545324700_);}
	.st15{fill:url(#fd393377-5085-480b-8605-c0a41e773aa6_00000010274204369993696360000014491408544112135615_);}
	.st16{fill:url(#bdb37a80-011e-48af-ac9f-e7c862d3ae92_00000171688292035526681680000011423796860584149647_);}
	.st17{fill:url(#aacce134-350c-4595-8175-b9948e526b18_00000173159915447660443240000007646264181240620685_);}
	.st18{fill:url(#ef91773c-4558-4da6-aff5-0a5929df9cc2_00000021838516760569682980000014037005494538223295_);}
	.st19{fill:url(#ec32cdea-cf81-4c93-a006-3e34e9658399_00000019663741870167163540000009820607870456730001_);}
	
		.st20{fill:url(#b12047c4-f862-41a4-8872-b56dc6be6056_00000124136692264001640030000018224717185914220418_);stroke:#231815;stroke-miterlimit:10;}
	
		.st21{fill:url(#ade7e8e8-e8a7-4058-b632-6e6cd37053ec_00000155863321777107826190000006594337347635661194_);stroke:#231815;stroke-miterlimit:10;}
	
		.st22{fill:url(#bd501e42-fea9-4b27-bc32-8a79f2557c47_00000001636865020098046210000015194171513328850363_);stroke:#231815;stroke-miterlimit:10;}
	
		.st23{fill:url(#a7077bd3-321b-4d28-a0be-2a5ea13d14b2_00000153706173636881225340000011311078190449807021_);stroke:#231815;stroke-miterlimit:10;}
	
		.st24{fill:url(#ebfb09c2-c57a-4608-8ca6-1b0d67bf3d66_00000022547435780778820170000010164725643318754487_);stroke:#231815;stroke-miterlimit:10;}
	
		.st25{fill:url(#a8daace1-f451-4683-823b-6c0d36089032_00000127729795726607599980000002963763726112361402_);stroke:#231815;stroke-miterlimit:10;}
	
		.st26{fill:url(#ade07817-a6a8-4e40-82e7-439bedd9ecc6_00000062167579337624141680000005390690315662683836_);stroke:#231815;stroke-miterlimit:10;}
	
		.st27{fill:url(#a5045f38-2f8d-4290-b2a4-e52895f1e364_00000021105259896101762720000003916248154987200390_);stroke:#231815;stroke-miterlimit:10;}
	
		.st28{fill:url(#b30c2b98-b1ac-4f3a-bce8-145dedc2ad90_00000098906410974541874930000003084745264451985578_);stroke:#231815;stroke-miterlimit:10;}
	.st29{fill:none;stroke:#231815;stroke-width:4;stroke-miterlimit:10;}
</style>
<pattern  y="640.2" width="40" height="40" patternUnits="userSpaceOnUse" id="a2ed1d96-aebd-4bf9-a4b3-645f1ac" viewBox="0 -40 40 40" style="overflow:visible;">
	<g>
		<rect y="-40" class="st0" width="40" height="40"/>
		<rect y="-40" class="st0" width="40" height="40"/>
		<rect y="-40" class="st1" width="20" height="20"/>
		<rect x="20" y="-20" class="st1" width="20" height="20"/>
	</g>
</pattern>
<g id="ac0e9ffa-fc2b-4215-938a-9a3e5899356f">
	<pattern  id="SVGID_1_" xlink:href="#a2ed1d96-aebd-4bf9-a4b3-645f1ac" patternTransform="matrix(1 0 0 1 -10 368)">
	</pattern>
	<rect x="640" class="st2" width="1920" height="640"/>
	<g id="b0d60396-28be-427e-8208-43b5b8a56852">
		
			<linearGradient id="bd2989e7-05c7-4853-98ea-2fa9ff19b5cd_00000018926090292519333640000016937965414889640892_" gradientUnits="userSpaceOnUse" x1="210.5056" y1="162.2171" x2="211.5056" y2="163.4671" gradientTransform="matrix(141.31 0 0 346.28 -29513.377 -56181.3945)">
			<stop  offset="0" style="stop-color:#C7CC6A"/>
			<stop  offset="1" style="stop-color:#84972B"/>
		</linearGradient>
		
			<path id="bd2989e7-05c7-4853-98ea-2fa9ff19b5cd" style="fill:url(#bd2989e7-05c7-4853-98ea-2fa9ff19b5cd_00000018926090292519333640000016937965414889640892_);" d="
			M363.9,41.7c7.2,3.6,10.2,6.3,10.3,9.2c0.1,1-3.1,6.6-6.9,12.4c-4.4,6.5-8.1,13.5-11.1,20.8c-4.6,11.6-12.4,24-31.3,49.8
			c-28.1,38.2-37,53.7-51.3,90c-10,25.3-16.4,47.6-20.8,72.1c-2,11.5-2.2,15.7-2.1,39.4c0.2,23.4,0.4,27.4,2.3,34
			c1.1,4.1,2.3,8.4,2.6,9.5c0.4,1.7-0.3,2.3-4.5,3.8c-4.9,1.8-5.2,1.8-8.8,0c-4.3-2.1-5-3.9-7.7-18.9
			c-6.7-37.4,7.1-114.3,30.1-168.4c10.2-23.9,20-41.7,38.3-69.1c19.4-29,30-48,33.6-60c0.8-2.5,1.7-9.2,2-14.9l0.7-10.4l4.1-1.9
			C348.9,36.5,355.3,37.3,363.9,41.7"/>
		
			<linearGradient id="bd732589-008a-4c51-9ff2-46ab15f6553b_00000052072212387468206170000016379786542891883403_" gradientUnits="userSpaceOnUse" x1="211.2115" y1="163.4217" x2="211.2115" y2="162.4217" gradientTransform="matrix(161.68 0 0 288.77 -33691.1641 -46799.168)">
			<stop  offset="0" style="stop-color:#99A153"/>
			<stop  offset="1" style="stop-color:#4A592A"/>
		</linearGradient>
		
			<path id="bd732589-008a-4c51-9ff2-46ab15f6553b" style="fill:url(#bd732589-008a-4c51-9ff2-46ab15f6553b_00000052072212387468206170000016379786542891883403_);" d="
			M384,101.2c0,2,12.3,19,18.7,25.8c3.8,4,26.8,23.7,51.3,43.8c39.5,32.4,45.4,37.7,52.3,46.3c10.2,12.7,19.6,29.4,24.6,43.5
			c6.8,19.2,7.6,24.5,7.5,47.7c-0.1,23-1.2,29.7-8,46.4c-3.5,8.5-14.3,25.3-17,26.3c-0.7,0.3-1.1,0.8-0.8,1.2s-1.4,2.5-3.7,4.6
			s-3.5,3-2.6,1.9c3.9-4.9,14.7-23.7,18-31.5c2.5-6.4,4.5-13,5.9-19.8c2.1-10.5,2.2-12.2,1.1-23.9c-1.5-16.9-8.4-36.7-17.8-51.5
			c-3.9-6.1-4.1-6.7-2.3-7.2c1.7-0.2,3.5-0.1,5.1,0.4l3.2,0.9l-2.1-2.1c-1.3-1.3-3.9-2.3-6.7-2.6c-4.3-0.5-5-1-12.1-9.5
			c-5.5-6.2-11.5-12.1-17.8-17.5c-5.6-4.7-10.4-8.8-10.5-9.2c-0.5-1.2,10.6-3.2,14.5-2.7c2.1,0.3,2.9,0.2,1.8,0
			c-1.1-0.3-2.1-0.8-3-1.5c-1.6-1.5-11.9-1.1-14.2,0.6c-2,1.4-2.8,0.9-15.7-9.8L440,190.7l2.7-2.4c2.4-2.1,3.4-2.3,8.2-1.8l5.5,0.5
			l-4-1.4c-2.4-0.9-7-1.4-11.6-1.3c-7,0.2-8,0-12.1-2.9c-2.5-1.7-8.2-7.1-12.7-11.9l-8.2-8.8l3.3-0.9c1.8-0.5,6.9-0.6,11.3-0.3
			c9.1,0.6,8.6,0.1-4.2-4.2c-10.4-3.5-12.5-3.8-14.3-1.6s-2.7,1.2-12.1-12.9c-10.6-15.9-17.4-32.9-14.5-36.7
			C379.4,101.3,384,99.3,384,101.2"/>
		
			<linearGradient id="ec0d8dbf-0b17-48c9-a85b-07bbfb49da55_00000030462341773650780920000001794122355395143074_" gradientUnits="userSpaceOnUse" x1="211.3103" y1="163.3664" x2="211.3103" y2="162.3665" gradientTransform="matrix(174.22 0 0 333.21 -36369.7734 -54045.2969)">
			<stop  offset="0" style="stop-color:#91A625"/>
			<stop  offset="1" style="stop-color:#7C8E2E"/>
		</linearGradient>
		
			<path id="ec0d8dbf-0b17-48c9-a85b-07bbfb49da55" style="fill:url(#ec0d8dbf-0b17-48c9-a85b-07bbfb49da55_00000030462341773650780920000001794122355395143074_);" d="
			M379.9,91.7c2.9,7.5,3,8.1,1.4,9.2c-4.2,2.9-5.1,4.5-4.6,7.7c1.5,8,7.5,20.8,15.2,32.3c9.4,14.1,10.3,15,12.1,12.9
			s3.9-1.9,14.3,1.6c12.9,4.4,13.3,4.8,4.2,4.2c-4.4-0.3-9.5-0.1-11.3,0.3l-3.3,0.9l8.2,8.8c4.5,4.8,10.2,10.2,12.7,11.9
			c4.2,2.9,5.1,3.1,12.1,2.9c4.6-0.1,9.2,0.4,11.6,1.3l4,1.4l-5.5-0.5c-4.9-0.5-5.9-0.2-8.2,1.8l-2.7,2.4l13.6,11.3
			c12.9,10.7,13.7,11.2,15.7,9.8c2.3-1.6,12.7-2.1,14.2-0.6c0.9,0.7,1.9,1.2,3,1.5c1.1,0.3,0.3,0.3-1.8,0c-3.9-0.5-15,1.5-14.5,2.7
			c0.1,0.4,4.9,4.5,10.5,9.2c6.3,5.4,12.3,11.2,17.8,17.5c7.1,8.5,7.8,9,12.1,9.5c2.8,0.3,5.4,1.3,6.7,2.6l2.1,2.1l-3.2-0.9
			c-1.7-0.5-3.4-0.6-5.1-0.4c-1.8,0.5-1.6,1,2.3,7.2c9.4,14.8,16.2,34.6,17.8,51.5c1.1,11.7,1,13.4-1.1,23.9
			c-1.4,6.8-3.3,13.4-5.9,19.8c-4.6,10.8-18.6,34-19.8,32.8c0.2-2.3,0.5-4.5,1-6.8c1.3-6.8,0.6-19.6-1.5-29.5
			c-1.4-6.3-10.5-30.9-13.2-35.5c-1.1-1.9-6.2-9.4-11.3-16.5c-11.1-15.6-25.3-30-46.9-47.2c-17.4-14-35.4-33-45.4-48.1
			S366,166.4,366,159.3c0.1-1.3-0.3-2.5-0.9-3.6c-1.4-1.5-4.8-15.1-6.2-24.9c-1.9-12.9-1.6-39,0.5-49.3c1.8-9.2,2.2-10.1,8-18.7l4-6
			l2.7,13.4C375.5,77.6,377.4,84.7,379.9,91.7"/>
		
			<linearGradient id="a1b01f19-8205-4236-a039-555c8066ce6a_00000106105457593789526360000010747857009932363711_" gradientUnits="userSpaceOnUse" x1="211.6591" y1="162.474" x2="211.8791" y2="163.474" gradientTransform="matrix(286.67 0 0 253.09 -60458.6328 -40773.0156)">
			<stop  offset="0" style="stop-color:#C23437"/>
			<stop  offset="1" style="stop-color:#A21F24"/>
		</linearGradient>
		
			<path id="a1b01f19-8205-4236-a039-555c8066ce6a" style="fill:url(#a1b01f19-8205-4236-a039-555c8066ce6a_00000106105457593789526360000010747857009932363711_);" d="
			M217.7,352.3c8.1,1.7,15,3.5,15.3,4c0.8,2.8,1.5,5.7,1.9,8.7c2.2,13.3,3.1,15.5,7.4,17.6c3.6,1.8,3.9,1.8,8.8,0c2.7-1,5-2.2,5-2.6
			c-0.5-2.2-1.1-4.4-1.9-6.5c-1.1-3.4-2-6.9-2.6-10.4l-0.7-4.7l4.4-0.5c2.4-0.3,12.9-1.8,23.4-3.3c26-3.8,41.6-3.8,53,0.1
			c10.9,3.7,17.5,7.7,25.7,15.4c15.6,14.7,25.8,37.4,28.9,64.4c3.4,28.9-4.9,64.6-23.6,101.8c-12.5,24.7-28.2,43.4-42.6,50.3
			c-23.8,11.5-83.2,19-112.4,14.2c-32.8-5.4-56.3-19.9-73.8-45.4c-11.8-17.2-25.9-51.7-30.8-74.6c-2.7-12.6-3.7-37-2.1-47.5
			c2.4-15.5,10.3-35.6,16.7-42.5c1.3-1.4,2.4-2.9,2.4-3.3c0-1.5,17-16.8,23.4-21c11.6-7.5,29.1-14.4,40.2-15.8
			c1.8-0.1,3.6-0.5,5.4-1C190.3,348.3,204.9,349.7,217.7,352.3"/>
	</g>
	<g id="baf14a4f-0ad4-40ba-85e8-b6f14df003af">
		
			<linearGradient id="b1ee0649-ba92-46ed-8d36-e5088a2666de_00000147937176295071249380000012613414654850233535_" gradientUnits="userSpaceOnUse" x1="211.4774" y1="163.7407" x2="210.4774" y2="161.9407" gradientTransform="matrix(137.21 0 0 343.49 -28644.207 -55727.6328)">
			<stop  offset="0" style="stop-color:#AFA241"/>
			<stop  offset="1" style="stop-color:#386933;stop-opacity:0.18"/>
		</linearGradient>
		
			<path id="b1ee0649-ba92-46ed-8d36-e5088a2666de" style="fill:url(#b1ee0649-ba92-46ed-8d36-e5088a2666de_00000147937176295071249380000012613414654850233535_);" d="
			M372.3,47c1,1.1,1.7,2.4,1.9,3.9c0.1,1-3.1,6.6-6.9,12.4c-4.4,6.5-8.1,13.5-11.1,20.8c-4.6,11.6-12.4,24-31.3,49.8
			c-28.1,38.2-37,53.7-51.3,90c-10,25.3-16.4,47.6-20.8,72.1c-2,11.5-2.2,15.7-2.1,39.4c0.2,23.4,0.4,27.4,2.3,34
			c1.1,4.1,2.3,8.4,2.6,9.5c0.4,1.7-0.3,2.3-4.4,3.8c-4.5,1.6-5.3,1.6-8.5,0.3s-5.7-4.1-5.7-6.6c0-0.7,1.6-0.9,4.9-0.5
			c4.4,0.6,5,0.5,5.6-1.5c0.4-1.2,0.4-6.3,0.1-11.4c-2.9-42.6-2.5-75.1,0.9-91.7c8.1-38.8,33.8-90.1,68.8-137.1
			c13.1-17.6,20.9-30,28.5-45.4c9.5-19,14.1-31.7,14.9-40.9l0.6-7.5l4.6,2.3C368.2,43.8,370.4,45.3,372.3,47"/>
		
			<linearGradient id="a38ce469-035a-4100-b708-c65da37f1c3d_00000165232638146500112090000000649634224768084623_" gradientUnits="userSpaceOnUse" x1="208.9583" y1="164.1619" x2="207.9583" y2="163.2319" gradientTransform="matrix(52.52 0 0 101.53 -10625.5889 -16522.0195)">
			<stop  offset="0" style="stop-color:#D3E061;stop-opacity:0.81"/>
			<stop  offset="1" style="stop-color:#ABBF36;stop-opacity:0.79"/>
		</linearGradient>
		
			<path id="a38ce469-035a-4100-b708-c65da37f1c3d" style="fill:url(#a38ce469-035a-4100-b708-c65da37f1c3d_00000165232638146500112090000000649634224768084623_);" d="
			M348.3,52c-0.3,6.1-5.5,23.6-9.8,33c-5.6,11.4-12.2,22.3-19.7,32.5c-10.9,14.8-22,28.7-22.9,28.7c-1.1,0,16.9-27,25.7-38.5
			c6.8-8.8,12.9-20,15.9-29c2.5-7.3,5.5-20.5,5.5-24c0.1-2.3,0.5-4.6,1.1-6.9c1-3.6,1.2-3.8,2.7-2.2C348,46.8,348.4,48.7,348.3,52"
			/>
		
			<linearGradient id="a4565755-0d8d-446e-97ad-4e9353c801e1_00000145746216293756027090000014477301732842643345_" gradientUnits="userSpaceOnUse" x1="211.7403" y1="163.6292" x2="210.7403" y2="162.2992" gradientTransform="matrix(173.11 0 0 274.29 -36129.9258 -44500.5156)">
			<stop  offset="0" style="stop-color:#54672E;stop-opacity:0.61"/>
			<stop  offset="1" style="stop-color:#04040B;stop-opacity:0"/>
		</linearGradient>
		
			<path id="a4565755-0d8d-446e-97ad-4e9353c801e1" style="fill:url(#a4565755-0d8d-446e-97ad-4e9353c801e1_00000145746216293756027090000014477301732842643345_);" d="
			M379.9,91.7c2.9,7.5,3,8.1,1.4,9.2c-4.2,2.9-5.1,4.5-4.6,7.7c1.5,8,7.5,20.8,15.2,32.3c9.4,14.1,10.3,15,12.1,12.9
			s3.9-1.9,14.3,1.6c12.9,4.4,13.3,4.8,4.2,4.2c-4.4-0.3-9.5-0.1-11.3,0.3l-3.3,0.9l8.2,8.8c4.5,4.8,10.2,10.2,12.7,11.9
			c4.2,2.9,5.1,3.1,12.1,2.9c4.6-0.1,9.2,0.4,11.6,1.3l4,1.4l-5.5-0.5c-4.9-0.5-5.9-0.2-8.2,1.8l-2.7,2.4l13.6,11.3
			c12.9,10.7,13.7,11.2,15.7,9.8c2.3-1.6,12.7-2.1,14.2-0.6c0.9,0.7,1.9,1.2,3,1.5c1.1,0.3,0.3,0.3-1.8,0c-3.9-0.5-15,1.5-14.5,2.7
			c0.1,0.4,4.9,4.5,10.5,9.2c6.3,5.4,12.3,11.2,17.8,17.5c7.1,8.5,7.8,9,12.1,9.5c2.8,0.3,5.4,1.3,6.7,2.6l2.1,2.1l-3.2-0.9
			c-1.7-0.5-3.4-0.6-5.1-0.4c-1.8,0.5-1.6,1,2.3,7.2c8.2,12.9,16.3,35,17.1,46.2c0.4,6.3,0.4,6.8-0.5,3c-0.3-1.6-0.7-3.2-1.3-4.7
			c-0.2-0.2-1.4,3.4-2.7,7.9c-1.3,4.5-2.9,8.9-4.7,13.2c-1.3,2.8-2.1,4.1-1.7,3c4.3-13.8,5.5-18.1,6.4-24.7s0.9-8.5-0.5-13
			c-2.2-7.5-18.8-38.4-18.1-33.8c2.2,14.8,2.7,20.4,2.4,26.5c-0.3,7-0.3,6.9-3-9.1c-1.9-11.2-2.4-17.1-1.9-19.6
			c0.8-3.5,0.6-3.9-8.4-13.9c-8.3-9.4-22.2-22.9-23.6-22.9c-1.1,0,0.9,13.6,3,20.8c1.3,4.5,3,9,5.1,13.3c3.5,7,3.9,9.2,0.7,3.4
			c-4.3-7.6-11.5-26-13.3-34.3l-1.9-8.3l-14.1-11.3c-7.8-6.2-14.4-11.1-14.8-10.8c-1.2,1.2-0.6,17,0.8,21.4
			c1.3,3.8,2.9,7.6,4.6,11.2c1.8,3.8,3.1,7,2.9,7.2s-2.7-3.9-5.5-9.1c-5.3-9.3-8.2-19.9-8.5-30.6c-0.1-5.5-0.4-5.9-4.3-8.9
			c-2.2-1.7-8.7-7.7-14.4-13.2l-10.3-10l0.3,15.4l0.3,15.4l-2.2-4.9c-3.3-7.3-4.8-18.6-3.3-25.1l1.2-5.3l-9.2-13.4
			c-6.9-9.9-10.2-15.8-13-23.1c-2.1-5.4-4-10-4.2-10.3s-1.9,2.6-3.8,6.3c-3.2,6.4-3.4,7.2-3.3,16.8c0.1,11.1,1.7,22.2,4.5,32.9
			c1.1,4.3,1.8,8,1.6,8.2s-1.6-3.3-3.1-7.9s-3.1-9-3.6-9.8c-1.6-3.1-4.9-16.7-6.2-25.4c-1.9-12.9-1.6-39,0.5-49.3
			c1.8-9.2,2.2-10.1,8-18.7l4-6l2.7,13.4C375.5,77.6,377.4,84.7,379.9,91.7"/>
		
			<linearGradient id="a2b2c59b-17bb-4582-91cf-a628cdeb8edc_00000035513669625086456710000001766083167038102202_" gradientUnits="userSpaceOnUse" x1="206.1351" y1="166.7722" x2="206.5851" y2="167.7722" gradientTransform="matrix(35.3 0 0 25.73 -7017.3594 -3929.5994)">
			<stop  offset="0" style="stop-color:#691217;stop-opacity:0.69"/>
			<stop  offset="1" style="stop-color:#5F0E12;stop-opacity:0.74"/>
		</linearGradient>
		
			<path id="a2b2c59b-17bb-4582-91cf-a628cdeb8edc" style="fill:url(#a2b2c59b-17bb-4582-91cf-a628cdeb8edc_00000035513669625086456710000001766083167038102202_);" d="
			M262.5,360.9c-1.4,2-2.5,4.2-2.5,4.9c0,4,9.4,7,19.5,6.2l7-0.6l-10,4c-11,4.4-24.4,8.4-25.2,7.6c-0.3-0.3,0.6-0.8,2.1-1.2
			c3.1-0.8,3.1-0.9,0.7-8.2c-1.1-3.4-2-6.9-2.6-10.4c-0.8-5.3-0.6-5.4,8.7-5.7l4.7-0.1L262.5,360.9"/>
		
			<linearGradient id="aabb173b-9ab8-4aee-86b8-19e8c216f43d_00000051354647891717734010000010465871453266825347_" gradientUnits="userSpaceOnUse" x1="210.599" y1="167.384" x2="210.189" y2="166.384" gradientTransform="matrix(98.57 0 0 27.56 -20482.7715 -4224.6201)">
			<stop  offset="0" style="stop-color:#F3A8A8;stop-opacity:0.82"/>
			<stop  offset="1" style="stop-color:#F19796;stop-opacity:0.76"/>
		</linearGradient>
		
			<path id="aabb173b-9ab8-4aee-86b8-19e8c216f43d" style="fill:url(#aabb173b-9ab8-4aee-86b8-19e8c216f43d_00000051354647891717734010000010465871453266825347_);" d="
			M210.4,370.5c10.9,7.3,19.1,11.3,26.5,12.8c9.6,2,17.6,0.2,49.4-11.5c5.4-2,10-3.5,10.2-3.3c0.6,0.6-10.6,8.3-16.8,11.5
			c-8.1,4.2-23.3,9.1-31.7,10.2c-17.4,2.2-32-5-47.2-23.2C195.8,361,196.8,361.4,210.4,370.5"/>
		
			<linearGradient id="b430c050-b4e6-4686-840b-1468bb7ed50a_00000170253988209530337550000002324098881897164952_" gradientUnits="userSpaceOnUse" x1="207.0262" y1="168.4547" x2="208.0262" y2="168.7146" gradientTransform="matrix(42.31 0 0 19.47 -8558.3203 -2908.6394)">
			<stop  offset="0" style="stop-color:#79171C;stop-opacity:0.76"/>
			<stop  offset="1" style="stop-color:#681216;stop-opacity:0.82"/>
		</linearGradient>
		
			<path id="b430c050-b4e6-4686-840b-1468bb7ed50a" style="fill:url(#b430c050-b4e6-4686-840b-1468bb7ed50a_00000170253988209530337550000002324098881897164952_);" d="
			M210.4,369.4c1.5,1.4,9.6,1,15.6-0.8c9.2-2.6,9.3-2.6,10.2,3.4c1,6.9,2.2,9,6.1,10.7c3,1.3,3.1,1.4,0.6,1.4
			c-4,0.1-13.5-2.7-19.2-5.6c-5.1-2.6-19.2-11.7-21.2-13.7C201.4,363.8,209,368.1,210.4,369.4"/>
		
			<linearGradient id="a8526e27-70eb-4611-bcc3-4fcedfd77841_00000017491295268273812750000002875459491975169673_" gradientUnits="userSpaceOnUse" x1="209.6601" y1="164.4557" x2="208.6601" y2="164.0957" gradientTransform="matrix(63.32 0 0 67.92 -13074.6309 -10731.3193)">
			<stop  offset="0" style="stop-color:#EB6265;stop-opacity:0.8"/>
			<stop  offset="1" style="stop-color:#DE474A;stop-opacity:0.8"/>
		</linearGradient>
		
			<path id="a8526e27-70eb-4611-bcc3-4fcedfd77841" style="fill:url(#a8526e27-70eb-4611-bcc3-4fcedfd77841_00000017491295268273812750000002875459491975169673_);" d="
			M185.4,394.8c6.3,1.8,12.8,7.2,15.7,12.8c7.1,13.8-0.2,35.8-15.6,47.1s-34.7,7.4-42.3-8.2c-2.5-5-2.8-6.8-2.7-14.7
			s0.5-9.9,3.1-15.7c3.6-8.5,10.2-15.3,18.5-19.3C170.2,392.8,176.6,392.2,185.4,394.8"/>
		
			<linearGradient id="a8a7639b-2829-4523-946d-5cdbc0cb160b_00000129188542227779243730000012903160104109484728_" gradientUnits="userSpaceOnUse" x1="196.48" y1="170.1211" x2="196.5301" y2="171.1211" gradientTransform="matrix(13.49 0 0 14.95 -2417.1101 -2119.3499)">
			<stop  offset="0" style="stop-color:#EB6365;stop-opacity:0.79"/>
			<stop  offset="1" style="stop-color:#EB6668;stop-opacity:0.8"/>
		</linearGradient>
		
			<path id="a8a7639b-2829-4523-946d-5cdbc0cb160b" style="fill:url(#a8a7639b-2829-4523-946d-5cdbc0cb160b_00000129188542227779243730000012903160104109484728_);" d="
			M237.7,425.7c2.9,2,3.7,5.9,1.9,9.4c-3.4,6.6-12.6,5-12.5-2.3c0-3.4,1.4-5.6,4.5-7.4C234.2,423.9,235.2,424,237.7,425.7"/>
	</g>
	<g id="f5d69beb-8945-4fa5-bb93-69462ad4f340">
		
			<linearGradient id="fd393377-5085-480b-8605-c0a41e773aa6_00000003081240954281110300000007066819572616362151_" gradientUnits="userSpaceOnUse" x1="207.7679" y1="167.1524" x2="207.5979" y2="166.1524" gradientTransform="matrix(43.88 0 0 29.18 -8942.1504 -4433.6807)">
			<stop  offset="0" style="stop-color:#FFFFFF;stop-opacity:0.9"/>
			<stop  offset="1" style="stop-color:#FFFFFF;stop-opacity:0.86"/>
		</linearGradient>
		
			<path id="fd393377-5085-480b-8605-c0a41e773aa6" style="fill:url(#fd393377-5085-480b-8605-c0a41e773aa6_00000003081240954281110300000007066819572616362151_);" d="
			M176.9,413.8c5.7,1.7,12.3,6.9,14.8,11.7c2.9,5.6-0.2,12.1-7.1,14.7c-9.1,3.4-27.2-0.5-33.5-7.2c-3.3-3.5-2.8-9.9,1.2-14.4
			c1.8-2,3.9-3.7,6.2-5C162.6,411.8,170.5,411.9,176.9,413.8"/>
	</g>
</g>
<g id="fa52f352-6fc8-4fb7-afdf-b24045de05cb">
	<g id="b4fb9a6c-5c83-4534-b34b-3866f08f8d32">
		
			<linearGradient id="bdb37a80-011e-48af-ac9f-e7c862d3ae92_00000155128204778788141910000015438648603614066338_" gradientUnits="userSpaceOnUse" x1="215.0353" y1="162.2174" x2="216.0353" y2="163.4674" gradientTransform="matrix(141.31 0 0 346.28 -29513.377 -56181.3945)">
			<stop  offset="0" style="stop-color:#C7CC6A"/>
			<stop  offset="1" style="stop-color:#84972B"/>
		</linearGradient>
		
			<path id="bdb37a80-011e-48af-ac9f-e7c862d3ae92" style="fill:url(#bdb37a80-011e-48af-ac9f-e7c862d3ae92_00000155128204778788141910000015438648603614066338_);" d="
			M1003.9,41.4c7.2,3.6,10.2,6.3,10.3,9.2c0.1,1-3.1,6.6-6.9,12.4c-4.4,6.5-8.1,13.5-11.1,20.8c-4.6,11.6-12.4,24-31.3,49.8
			c-28.1,38.2-37,53.7-51.3,90c-10,25.3-16.4,47.6-20.7,72.1c-2,11.5-2.2,15.7-2.1,39.4c0.2,23.4,0.5,27.4,2.3,34
			c1.1,4.1,2.3,8.4,2.6,9.5c0.4,1.7-0.3,2.3-4.5,3.8c-4.9,1.8-5.2,1.8-8.8,0c-4.3-2.1-5-3.9-7.7-18.8
			c-6.7-37.4,7.1-114.3,30.1-168.4c10.2-23.9,20-41.7,38.3-69.1c19.3-29,30-48,33.6-60c0.8-2.5,1.7-9.2,2-14.9l0.7-10.4l4.1-1.9
			C988.8,36.4,995.2,37.2,1003.9,41.4"/>
		
			<linearGradient id="aacce134-350c-4595-8175-b9948e526b18_00000134933061268712362680000003859041740860392094_" gradientUnits="userSpaceOnUse" x1="215.17" y1="163.4217" x2="215.17" y2="162.4217" gradientTransform="matrix(161.68 0 0 288.77 -33691.1641 -46799.168)">
			<stop  offset="0" style="stop-color:#99A153"/>
			<stop  offset="1" style="stop-color:#4A592A"/>
		</linearGradient>
		
			<path id="aacce134-350c-4595-8175-b9948e526b18" style="fill:url(#aacce134-350c-4595-8175-b9948e526b18_00000134933061268712362680000003859041740860392094_);" d="
			M1024,100.9c0,2,12.3,19,18.7,25.8c3.7,4,26.8,23.7,51.3,43.8c39.5,32.4,45.4,37.7,52.3,46.3c10.2,12.7,19.6,29.4,24.6,43.5
			c6.7,19.2,7.6,24.5,7.5,47.7c-0.1,23-1.2,29.6-8,46.4c-3.5,8.5-14.3,25.3-17,26.4c-0.7,0.3-1.1,0.8-0.8,1.2s-1.4,2.5-3.7,4.6
			s-3.5,3-2.6,1.9c3.9-4.9,14.7-23.7,18-31.5c2.5-6.4,4.5-13,5.9-19.8c2.1-10.5,2.2-12.2,1.1-23.9c-1.6-16.9-8.4-36.7-17.8-51.5
			c-3.9-6.1-4.1-6.7-2.3-7.2c1.7-0.2,3.5-0.1,5.1,0.4l3.2,0.9l-2.1-2.1c-1.3-1.3-3.9-2.3-6.7-2.6c-4.3-0.5-5-1-12.1-9.5
			c-5.5-6.3-11.5-12.1-17.8-17.5c-5.6-4.7-10.4-8.8-10.5-9.2c-0.5-1.2,10.6-3.2,14.5-2.7c2.1,0.3,2.9,0.3,1.8,0
			c-1.1-0.3-2.1-0.8-3-1.5c-1.6-1.5-11.9-1.1-14.2,0.6c-2,1.4-2.8,0.9-15.7-9.8l-13.6-11.3l2.7-2.4c2.3-2.1,3.4-2.3,8.2-1.8l5.6,0.5
			l-4-1.4c-2.4-0.9-7-1.4-11.6-1.3c-7,0.2-7.9,0-12.1-2.9c-2.5-1.7-8.2-7.1-12.7-11.9l-8.2-8.8l3.3-0.9c1.8-0.5,6.9-0.6,11.3-0.4
			c9.1,0.6,8.6,0.1-4.2-4.2c-10.4-3.5-12.5-3.8-14.3-1.6s-2.7,1.2-12.1-12.9c-10.7-15.8-17.4-32.9-14.6-36.7
			C1019.4,101.1,1024,99.1,1024,100.9"/>
		
			<linearGradient id="ef91773c-4558-4da6-aff5-0a5929df9cc2_00000147195574864728521480000011802570443175671481_" gradientUnits="userSpaceOnUse" x1="214.984" y1="163.3656" x2="214.984" y2="162.3655" gradientTransform="matrix(174.22 0 0 333.21 -36369.7734 -54045.2969)">
			<stop  offset="0" style="stop-color:#91A625"/>
			<stop  offset="1" style="stop-color:#7C8E2E"/>
		</linearGradient>
		
			<path id="ef91773c-4558-4da6-aff5-0a5929df9cc2" style="fill:url(#ef91773c-4558-4da6-aff5-0a5929df9cc2_00000147195574864728521480000011802570443175671481_);" d="
			M1019.9,91.5c2.9,7.5,3,8.1,1.4,9.2c-4.2,2.9-5.2,4.5-4.6,7.7c1.5,8.1,7.5,20.8,15.2,32.3c9.4,14.1,10.3,15,12.1,12.9
			s3.8-1.9,14.3,1.6c12.9,4.3,13.3,4.8,4.2,4.2c-4.4-0.3-9.5-0.1-11.3,0.4l-3.3,0.9l8.2,8.8c4.5,4.8,10.2,10.2,12.7,11.9
			c4.2,2.9,5.1,3.1,12.1,2.9c4.6-0.1,9.2,0.4,11.6,1.3l4,1.4l-5.6-0.5c-4.8-0.5-5.9-0.2-8.2,1.8l-2.7,2.4l13.6,11.2
			c12.9,10.7,13.7,11.2,15.7,9.8c2.3-1.6,12.7-2.1,14.2-0.6c0.9,0.7,1.9,1.2,3,1.5c1.1,0.3,0.3,0.3-1.8,0c-3.9-0.5-15,1.5-14.5,2.7
			c0.1,0.4,4.9,4.5,10.5,9.2c6.3,5.4,12.3,11.2,17.8,17.5c7.1,8.4,7.8,9,12.1,9.5c2.8,0.3,5.4,1.4,6.7,2.6l2.1,2.1l-3.2-0.9
			c-1.7-0.5-3.4-0.6-5.1-0.4c-1.8,0.5-1.6,1,2.3,7.2c9.4,14.8,16.2,34.6,17.8,51.5c1.1,11.7,1,13.4-1.1,23.9
			c-1.4,6.8-3.3,13.4-5.9,19.8c-4.6,10.8-18.6,34-19.8,32.8c0.2-2.3,0.5-4.5,1-6.8c1.3-6.8,0.6-19.6-1.5-29.5
			c-1.4-6.3-10.5-30.9-13.2-35.5c-1.1-1.9-6.2-9.4-11.3-16.5c-11.1-15.6-25.3-30-46.9-47.2c-17.4-14-35.4-33-45.4-48.1
			S1006,166.2,1006,159c0.1-1.3-0.3-2.5-0.9-3.6c-1.4-1.5-4.8-15.1-6.3-25c-1.8-12.9-1.6-39,0.5-49.3c1.8-9.2,2.2-10.1,8-18.7l4-6
			l2.7,13.5C1015.5,77.3,1017.4,84.5,1019.9,91.5"/>
		
			<linearGradient id="ec32cdea-cf81-4c93-a006-3e34e9658399_00000092419443572301635010000016433385585811278495_" gradientUnits="userSpaceOnUse" x1="213.8916" y1="162.4734" x2="214.1117" y2="163.4734" gradientTransform="matrix(286.67 0 0 253.09 -60458.6328 -40773.0156)">
			<stop  offset="0" style="stop-color:#C23437"/>
			<stop  offset="1" style="stop-color:#A21F24"/>
		</linearGradient>
		
			<path id="ec32cdea-cf81-4c93-a006-3e34e9658399" style="fill:url(#ec32cdea-cf81-4c93-a006-3e34e9658399_00000092419443572301635010000016433385585811278495_);" d="
			M857.7,352.1c8.1,1.7,15,3.5,15.3,4c0.8,2.8,1.4,5.7,1.8,8.7c2.2,13.3,3.1,15.5,7.4,17.6c3.6,1.8,3.9,1.8,8.8,0c2.7-1,5-2.2,5-2.6
			c-0.5-2.2-1.1-4.4-1.9-6.5c-1.1-3.4-2-6.9-2.6-10.4l-0.7-4.7l4.3-0.5c2.4-0.3,12.9-1.8,23.3-3.3c26-3.8,41.7-3.8,53,0.1
			c10.9,3.7,17.5,7.7,25.7,15.4c15.6,14.7,25.8,37.4,28.9,64.4c3.4,28.9-4.9,64.6-23.6,101.8c-12.5,24.8-28.2,43.4-42.6,50.3
			c-23.8,11.5-83.2,19-112.4,14.2c-32.8-5.4-56.3-19.9-73.7-45.5c-11.8-17.3-26-51.7-30.8-74.6c-2.6-12.6-3.7-37-2.1-47.5
			c2.4-15.5,10.3-35.6,16.7-42.5c1-0.9,1.8-2.1,2.4-3.3c0-1.6,17-16.8,23.4-21c11.6-7.5,29.1-14.4,40.2-15.8c1.8-0.1,3.6-0.5,5.3-1
			C830.3,348.1,844.9,349.4,857.7,352.1"/>
	</g>
	<g id="a05948e3-3d8d-41dd-9204-7e7140f92f3e">
		
			<linearGradient id="b12047c4-f862-41a4-8872-b56dc6be6056_00000127016008749832615280000017153169709938715044_" gradientUnits="userSpaceOnUse" x1="220.7604" y1="163.7489" x2="219.7604" y2="161.959" gradientTransform="matrix(137.21 0 0 343.49 -28644.207 -55727.6328)">
			<stop  offset="0" style="stop-color:#AFA241"/>
			<stop  offset="1" style="stop-color:#386933;stop-opacity:0.18"/>
		</linearGradient>
		
			<path id="b12047c4-f862-41a4-8872-b56dc6be6056" style="fill:url(#b12047c4-f862-41a4-8872-b56dc6be6056_00000127016008749832615280000017153169709938715044_);stroke:#231815;stroke-miterlimit:10;" d="
			M1645.9,51.1c1,1.1,1.6,2.4,1.9,3.8c0.1,1-3.1,6.6-6.9,12.4c-4.4,6.5-8.1,13.5-11.1,20.8c-4.6,11.6-12.4,24-31.3,49.8
			c-28.1,38.2-37,53.7-51.3,90c-10,25.3-16.4,47.6-20.7,72.1c-2,11.5-2.2,15.7-2.1,39.4c0.2,23.4,0.4,27.4,2.3,34
			c1.2,4.1,2.3,8.4,2.6,9.5c0.4,1.7-0.3,2.3-4.4,3.8c-4.5,1.6-5.3,1.6-8.5,0.3s-5.7-4.1-5.7-6.6c0-0.7,1.6-0.9,4.9-0.5
			c4.4,0.6,5,0.4,5.6-1.5c0.4-1.2,0.4-6.3,0.1-11.4c-2.8-42.6-2.5-75.1,0.9-91.7c8.1-38.8,33.8-90.1,68.8-137.1
			c13.1-17.6,20.9-30,28.6-45.4c9.5-19,14.1-31.7,14.9-40.9l0.6-7.5l4.6,2.3C1641.9,48,1644,49.4,1645.9,51.1"/>
		
			<linearGradient id="ade7e8e8-e8a7-4058-b632-6e6cd37053ec_00000080928634625752037970000002726582768056998074_" gradientUnits="userSpaceOnUse" x1="233.208" y1="164.2022" x2="232.208" y2="163.2722" gradientTransform="matrix(52.52 0 0 101.53 -10625.5889 -16522.0195)">
			<stop  offset="0" style="stop-color:#D3E061;stop-opacity:0.81"/>
			<stop  offset="1" style="stop-color:#ABBF36;stop-opacity:0.79"/>
		</linearGradient>
		
			<path id="ade7e8e8-e8a7-4058-b632-6e6cd37053ec" style="fill:url(#ade7e8e8-e8a7-4058-b632-6e6cd37053ec_00000080928634625752037970000002726582768056998074_);stroke:#231815;stroke-miterlimit:10;" d="
			M1621.9,56.1c-0.3,6.1-5.5,23.6-9.8,33s-12.1,22.2-19.7,32.5c-10.9,14.8-22,28.7-22.9,28.7c-1.1,0,16.9-27,25.7-38.6
			c6.8-8.8,12.9-20,15.9-28.9c2.5-7.3,5.5-20.5,5.5-24c0.1-2.3,0.5-4.6,1.1-6.9c1-3.6,1.2-3.8,2.7-2.2
			C1621.6,50.9,1622.1,52.9,1621.9,56.1"/>
		
			<linearGradient id="bd501e42-fea9-4b27-bc32-8a79f2557c47_00000113332122526457585280000014752516198172688781_" gradientUnits="userSpaceOnUse" x1="219.101" y1="163.6486" x2="218.101" y2="162.3186" gradientTransform="matrix(173.11 0 0 274.29 -36129.9258 -44500.5156)">
			<stop  offset="0" style="stop-color:#54672E;stop-opacity:0.61"/>
			<stop  offset="1" style="stop-color:#04040B;stop-opacity:0"/>
		</linearGradient>
		
			<path id="bd501e42-fea9-4b27-bc32-8a79f2557c47" style="fill:url(#bd501e42-fea9-4b27-bc32-8a79f2557c47_00000113332122526457585280000014752516198172688781_);stroke:#231815;stroke-miterlimit:10;" d="
			M1653.5,95.9c2.9,7.5,3,8.1,1.4,9.2c-4.2,2.9-5.2,4.5-4.6,7.7c1.5,8,7.5,20.8,15.2,32.3c9.4,14.1,10.3,15,12.1,12.9
			s3.8-1.9,14.3,1.6c12.9,4.3,13.3,4.8,4.2,4.2c-4.4-0.3-9.5-0.1-11.3,0.4l-3.3,0.9l8.2,8.8c4.5,4.8,10.2,10.2,12.7,11.9
			c4.2,2.9,5.1,3.1,12.1,2.9c4.6-0.1,9.2,0.4,11.6,1.3l4,1.4l-5.6-0.5c-4.8-0.5-5.9-0.2-8.2,1.9l-2.7,2.4l13.6,11.2
			c12.9,10.7,13.7,11.2,15.7,9.8c2.3-1.6,12.7-2.1,14.2-0.6c0.9,0.7,1.9,1.2,3,1.5c1.1,0.3,0.3,0.3-1.8,0.1
			c-3.9-0.5-14.9,1.5-14.5,2.7c0.1,0.4,4.9,4.5,10.5,9.2c6.3,5.4,12.3,11.2,17.8,17.5c7.1,8.5,7.8,9,12.1,9.5
			c2.8,0.3,5.4,1.3,6.7,2.6l2.1,2.1l-3.2-0.9c-1.7-0.5-3.4-0.6-5.1-0.4c-1.8,0.5-1.6,1,2.3,7.2c8.2,12.9,16.3,35,17.1,46.2
			c0.4,6.3,0.4,6.8-0.4,3c-0.3-1.6-0.7-3.2-1.3-4.7c-0.2-0.2-1.4,3.4-2.7,7.9c-1.3,4.5-2.9,8.9-4.7,13.2c-1.3,2.8-2.1,4.1-1.7,3
			c4.3-13.8,5.4-18.1,6.4-24.7s0.9-8.5-0.4-13c-2.2-7.5-18.8-38.4-18.1-33.8c2.2,14.8,2.7,20.4,2.4,26.5c-0.3,7-0.3,6.9-3-9.1
			c-1.9-11.2-2.4-17.1-1.9-19.6c0.8-3.5,0.6-3.9-8.4-13.9c-8.3-9.4-22.2-22.9-23.6-22.9c-1.1,0,0.9,13.6,3,20.8
			c1.4,4.5,3.1,8.9,5.1,13.2c3.5,7,3.9,9.2,0.7,3.5c-4.3-7.6-11.5-26-13.3-34.3l-1.8-8.3l-14.2-11.3c-7.8-6.2-14.4-11.1-14.8-10.7
			c-1.2,1.2-0.6,17,0.8,21.4c1.3,3.8,2.8,7.6,4.6,11.2c1.8,3.8,3.1,7,2.9,7.2s-2.7-3.9-5.5-9.2c-5.3-9.4-8.2-19.9-8.4-30.6
			c-0.2-5.5-0.4-5.9-4.3-8.9c-2.2-1.7-8.7-7.7-14.4-13.2l-10.3-10l0.3,15.4l0.3,15.4l-2.2-4.9c-3.3-7.3-4.8-18.6-3.3-25.1l1.2-5.3
			l-9.2-13.2c-6.9-9.9-10.2-15.8-13-23.1c-2.1-5.4-4-10-4.2-10.3s-1.9,2.6-3.8,6.3c-3.2,6.4-3.4,7.2-3.3,16.8
			c0.1,11.1,1.7,22.2,4.5,32.9c1.1,4.3,1.8,8,1.6,8.2s-1.6-3.3-3.1-7.9s-3.1-8.9-3.6-9.8c-1.6-3.1-4.9-16.7-6.2-25.4
			c-1.8-12.9-1.6-39,0.5-49.3c1.8-9.2,2.2-10.1,8-18.7l4-6l2.7,13.4C1649.1,81.7,1651.1,88.8,1653.5,95.9"/>
		
			<linearGradient id="a7077bd3-321b-4d28-a0be-2a5ea13d14b2_00000018210480398477594810000010388715270308364162_" gradientUnits="userSpaceOnUse" x1="242.2107" y1="166.9345" x2="242.6707" y2="167.9345" gradientTransform="matrix(35.3 0 0 25.73 -7017.3594 -3929.5994)">
			<stop  offset="0" style="stop-color:#691217;stop-opacity:0.69"/>
			<stop  offset="1" style="stop-color:#5F0E12;stop-opacity:0.74"/>
		</linearGradient>
		
			<path id="a7077bd3-321b-4d28-a0be-2a5ea13d14b2" style="fill:url(#a7077bd3-321b-4d28-a0be-2a5ea13d14b2_00000018210480398477594810000010388715270308364162_);stroke:#231815;stroke-miterlimit:10;" d="
			M1536.1,365c-1.4,2-2.5,4.2-2.5,4.8c0,4,9.4,7,19.5,6.2l7-0.6l-10,4c-11,4.4-24.4,8.4-25.2,7.6c-0.3-0.3,0.7-0.8,2.1-1.2
			c3.1-0.8,3.1-0.9,0.7-8.2c-1.1-3.4-2-6.9-2.6-10.4c-0.8-5.3-0.6-5.4,8.7-5.7l4.7-0.1L1536.1,365"/>
		
			<linearGradient id="ebfb09c2-c57a-4608-8ca6-1b0d67bf3d66_00000044898344111922413700000009779668720312518283_" gradientUnits="userSpaceOnUse" x1="223.516" y1="167.5346" x2="223.116" y2="166.5346" gradientTransform="matrix(98.57 0 0 27.56 -20482.7715 -4224.6201)">
			<stop  offset="0" style="stop-color:#F3A8A8;stop-opacity:0.82"/>
			<stop  offset="1" style="stop-color:#F19796;stop-opacity:0.76"/>
		</linearGradient>
		
			<path id="ebfb09c2-c57a-4608-8ca6-1b0d67bf3d66" style="fill:url(#ebfb09c2-c57a-4608-8ca6-1b0d67bf3d66_00000044898344111922413700000009779668720312518283_);stroke:#231815;stroke-miterlimit:10;" d="
			M1484.1,374.6c10.9,7.3,19.1,11.3,26.5,12.8c9.6,2,17.6,0.1,49.4-11.5c5.4-2,10-3.5,10.2-3.3c0.6,0.6-10.6,8.3-16.8,11.5
			c-8.1,4.2-23.3,9.1-31.7,10.2c-17.4,2.2-32-5-47.2-23.2C1469.4,365.1,1470.4,365.5,1484.1,374.6"/>
		
			<linearGradient id="a8daace1-f451-4683-823b-6c0d36089032_00000036240662929581715340000006924415725198911890_" gradientUnits="userSpaceOnUse" x1="237.1261" y1="168.6652" x2="238.1261" y2="168.9252" gradientTransform="matrix(42.31 0 0 19.47 -8558.3203 -2908.6394)">
			<stop  offset="0" style="stop-color:#79171C;stop-opacity:0.76"/>
			<stop  offset="1" style="stop-color:#681216;stop-opacity:0.82"/>
		</linearGradient>
		
			<path id="a8daace1-f451-4683-823b-6c0d36089032" style="fill:url(#a8daace1-f451-4683-823b-6c0d36089032_00000036240662929581715340000006924415725198911890_);stroke:#231815;stroke-miterlimit:10;" d="
			M1484.1,373.5c1.5,1.3,9.6,1,15.6-0.8c9.2-2.7,9.3-2.6,10.2,3.4c1,6.9,2.2,9,6.1,10.7c3,1.3,3.1,1.4,0.6,1.4
			c-4,0.1-13.5-2.7-19.2-5.6c-5.1-2.6-19.2-11.7-21.2-13.7C1475,367.9,1482.6,372.2,1484.1,373.5"/>
		
			<linearGradient id="ade07817-a6a8-4e40-82e7-439bedd9ecc6_00000134208665120023628030000000345186766789130415_" gradientUnits="userSpaceOnUse" x1="229.7703" y1="164.515" x2="228.7703" y2="164.155" gradientTransform="matrix(63.32 0 0 67.92 -13074.6309 -10731.3193)">
			<stop  offset="0" style="stop-color:#EB6265;stop-opacity:0.8"/>
			<stop  offset="1" style="stop-color:#DE474A;stop-opacity:0.8"/>
		</linearGradient>
		
			<path id="ade07817-a6a8-4e40-82e7-439bedd9ecc6" style="fill:url(#ade07817-a6a8-4e40-82e7-439bedd9ecc6_00000134208665120023628030000000345186766789130415_);stroke:#231815;stroke-miterlimit:10;" d="
			M1459.1,398.9c6.7,2.1,12.3,6.7,15.7,12.8c7.1,13.8-0.2,35.8-15.6,47.1s-34.7,7.4-42.3-8.2c-2.5-5-2.8-6.8-2.7-14.7
			s0.5-9.9,3.2-15.7c3.6-8.5,10.2-15.3,18.5-19.3C1443.9,396.9,1450.2,396.3,1459.1,398.9"/>
		
			<linearGradient id="a5045f38-2f8d-4290-b2a4-e52895f1e364_00000121238834954377586610000010323666676888756642_" gradientUnits="userSpaceOnUse" x1="290.8937" y1="170.4024" x2="290.9437" y2="171.4024" gradientTransform="matrix(13.49 0 0 14.95 -2417.1101 -2119.3499)">
			<stop  offset="0" style="stop-color:#EB6365;stop-opacity:0.79"/>
			<stop  offset="1" style="stop-color:#EB6668;stop-opacity:0.8"/>
		</linearGradient>
		
			<path id="a5045f38-2f8d-4290-b2a4-e52895f1e364" style="fill:url(#a5045f38-2f8d-4290-b2a4-e52895f1e364_00000121238834954377586610000010323666676888756642_);stroke:#231815;stroke-miterlimit:10;" d="
			M1511.3,429.8c2.9,2,3.7,5.9,1.9,9.4c-3.4,6.6-12.6,5-12.5-2.3c0-3.4,1.4-5.6,4.5-7.4C1507.8,428,1508.8,428.1,1511.3,429.8"/>
	</g>
	<g id="b6da8790-dd71-4b4b-a5b2-3a73c83ffd34">
		
			<linearGradient id="b30c2b98-b1ac-4f3a-bce8-145dedc2ad90_00000013165019626925028380000010096285638064792730_" gradientUnits="userSpaceOnUse" x1="251.6673" y1="167.3626" x2="251.4973" y2="166.3626" gradientTransform="matrix(43.88 0 0 29.18 -8942.1504 -4433.6807)">
			<stop  offset="0" style="stop-color:#FFFFFF;stop-opacity:0.9"/>
			<stop  offset="1" style="stop-color:#FFFFFF;stop-opacity:0.86"/>
		</linearGradient>
		
			<path id="b30c2b98-b1ac-4f3a-bce8-145dedc2ad90" style="fill:url(#b30c2b98-b1ac-4f3a-bce8-145dedc2ad90_00000013165019626925028380000010096285638064792730_);stroke:#231815;stroke-miterlimit:10;" d="
			M2103.2,420c5.7,1.7,12.3,6.9,14.8,11.7c2.9,5.7-0.2,12.1-7.1,14.7c-9.1,3.4-27.2-0.5-33.5-7.2c-3.3-3.5-2.8-9.9,1.2-14.4
			c1.8-2,3.9-3.7,6.2-5C2088.9,418,2096.9,418.1,2103.2,420"/>
	</g>
	<line class="st29" x1="640" y1="0.2" x2="640" y2="640.2"/>
	<line class="st29" x1="1280.2" y1="0" x2="1280.2" y2="640.2"/>
	<line class="st29" x1="1919.9" y1="0.2" x2="1919.9" y2="640"/>
</g>
</svg>
