<?xml version="1.0" standalone="no"?><!DOCTYPE svg PUBLIC "-//W3C//DTD SVG 20010904//EN" "http://www.w3.org/TR/2001/REC-SVG-20010904/DTD/svg10.dtd"><svg version="1.0" xmlns="http://www.w3.org/2000/svg" width="557pt" height="455pt" viewBox="0 0 557 455" preserveAspectRatio="xMidYMid meet"><defs><linearGradient id="linear-gradient-1-1" x1="0.00%" y1="0.00%" x2="100.73%" y2="0.74%"><stop offset="0%" style="stop-color:rgb(234,87,45);stop-opacity:0.993" /><stop offset="100%" style="stop-color:rgb(205,28,27);stop-opacity:0.996" /></linearGradient><linearGradient id="linear-gradient-1-2" x1="0.00%" y1="100.00%" x2="146.11%" y2="6.35%"><stop offset="0%" style="stop-color:rgb(107,71,168);stop-opacity:0.993" /><stop offset="100%" style="stop-color:rgb(108,72,168);stop-opacity:0.995" /></linearGradient><linearGradient id="linear-gradient-1-3" x1="0.00%" y1="100.00%" x2="0.00%" y2="-0.00%"><stop offset="0%" style="stop-color:rgb(147,124,206);stop-opacity:0.992" /><stop offset="100%" style="stop-color:rgb(153,133,213);stop-opacity:0.992" /></linearGradient><linearGradient id="linear-gradient-1-4" x1="0.00%" y1="100.00%" x2="0.00%" y2="-0.00%"><stop offset="0%" style="stop-color:rgb(208,29,27);stop-opacity:0.994" /><stop offset="100%" style="stop-color:rgb(202,25,27);stop-opacity:0.999" /></linearGradient><linearGradient id="linear-gradient-1-5" x1="0.00%" y1="100.00%" x2="103.83%" y2="7.44%"><stop offset="0%" style="stop-color:rgb(249,80,89);stop-opacity:0.993" /><stop offset="100%" style="stop-color:rgb(250,61,28);stop-opacity:1.000" /></linearGradient><linearGradient id="linear-gradient-1-6" x1="0.00%" y1="100.00%" x2="112.08%" y2="93.82%"><stop offset="0%" style="stop-color:rgb(84,6,72);stop-opacity:0.993" /><stop offset="100%" style="stop-color:rgb(109,37,82);stop-opacity:0.993" /></linearGradient><linearGradient id="linear-gradient-1-7" x1="0.00%" y1="100.00%" x2="128.17%" y2="31.77%"><stop offset="0%" style="stop-color:rgb(177,127,194);stop-opacity:0.998" /><stop offset="100%" style="stop-color:rgb(32,0,52);stop-opacity:1.000" /></linearGradient><linearGradient id="linear-gradient-1-8" x1="0.00%" y1="100.00%" x2="50.20%" y2="-15.94%"><stop offset="0%" style="stop-color:rgb(238,58,30);stop-opacity:1.000" /><stop offset="100%" style="stop-color:rgb(255,98,69);stop-opacity:1.000" /></linearGradient><linearGradient id="linear-gradient-1-9" x1="0.00%" y1="100.00%" x2="3.18%" y2="-4.18%"><stop offset="0%" style="stop-color:rgb(98,27,78);stop-opacity:1.000" /><stop offset="100%" style="stop-color:rgb(123,53,104);stop-opacity:1.000" /></linearGradient><linearGradient id="linear-gradient-1-10" x1="0.00%" y1="100.00%" x2="7.94%" y2="-3.81%"><stop offset="0%" style="stop-color:rgb(113,36,103);stop-opacity:0.997" /><stop offset="100%" style="stop-color:rgb(59,20,86);stop-opacity:1.000" /></linearGradient><linearGradient id="linear-gradient-1-11" x1="0.00%" y1="100.00%" x2="30.86%" y2="-10.46%"><stop offset="0%" style="stop-color:rgb(44,17,63);stop-opacity:0.996" /><stop offset="100%" style="stop-color:rgb(65,21,82);stop-opacity:0.998" /></linearGradient><linearGradient id="linear-gradient-1-12" x1="0.00%" y1="100.00%" x2="46.03%" y2="-59.55%"><stop offset="0%" style="stop-color:rgb(76,22,92);stop-opacity:0.996" /><stop offset="100%" style="stop-color:rgb(59,20,76);stop-opacity:0.997" /></linearGradient><linearGradient id="linear-gradient-2-1" x1="0.00%" y1="100.00%" x2="0.00%" y2="-0.00%"><stop offset="0%" style="stop-color:rgb(191,194,255);stop-opacity:0.833" /><stop offset="100%" style="stop-color:rgb(242,255,255);stop-opacity:0.859" /></linearGradient><linearGradient id="linear-gradient-2-2" x1="0.00%" y1="100.00%" x2="0.00%" y2="-0.00%"><stop offset="0%" style="stop-color:rgb(100,130,255);stop-opacity:0.642" /><stop offset="100%" style="stop-color:rgb(110,144,255);stop-opacity:0.655" /></linearGradient><linearGradient id="linear-gradient-2-3" x1="0.00%" y1="0.00%" x2="100.01%" y2="46.44%"><stop offset="0%" style="stop-color:rgb(245,128,95);stop-opacity:0.825" /><stop offset="100%" style="stop-color:rgb(254,255,229);stop-opacity:0.676" /></linearGradient><linearGradient id="linear-gradient-2-4" x1="0.00%" y1="100.00%" x2="139.47%" y2="5.49%"><stop offset="0%" style="stop-color:rgb(143,23,131);stop-opacity:0.443" /><stop offset="100%" style="stop-color:rgb(63,0,42);stop-opacity:0.801" /></linearGradient><linearGradient id="linear-gradient-2-5" x1="0.00%" y1="100.00%" x2="0.00%" y2="-0.00%"><stop offset="0%" style="stop-color:rgb(255,106,74);stop-opacity:0.819" /><stop offset="100%" style="stop-color:rgb(255,69,36);stop-opacity:0.749" /></linearGradient><linearGradient id="linear-gradient-2-6" x1="0.00%" y1="0.00%" x2="103.98%" y2="46.50%"><stop offset="0%" style="stop-color:rgb(167,31,132);stop-opacity:0.768" /><stop offset="100%" style="stop-color:rgb(151,21,129);stop-opacity:0.830" /></linearGradient><linearGradient id="linear-gradient-2-7" x1="0.00%" y1="100.00%" x2="96.87%" y2="-107.47%"><stop offset="0%" style="stop-color:rgb(93,2,26);stop-opacity:0.197" /><stop offset="100%" style="stop-color:rgb(77,0,29);stop-opacity:0.272" /></linearGradient><linearGradient id="linear-gradient-2-8" x1="0.00%" y1="100.00%" x2="40.82%" y2="-7.42%"><stop offset="0%" style="stop-color:rgb(123,70,106);stop-opacity:0.797" /><stop offset="100%" style="stop-color:rgb(106,22,136);stop-opacity:0.803" /></linearGradient><linearGradient id="linear-gradient-2-9" x1="0.00%" y1="100.00%" x2="44.90%" y2="-379.54%"><stop offset="0%" style="stop-color:rgb(66,0,49);stop-opacity:0.233" /><stop offset="100%" style="stop-color:rgb(58,0,52);stop-opacity:0.287" /></linearGradient><linearGradient id="linear-gradient-2-10" x1="0.00%" y1="100.00%" x2="46.94%" y2="-3.85%"><stop offset="0%" style="stop-color:rgb(174,15,23);stop-opacity:0.725" /><stop offset="100%" style="stop-color:rgb(178,12,17);stop-opacity:0.802" /></linearGradient><linearGradient id="linear-gradient-2-11" x1="0.00%" y1="100.00%" x2="89.51%" y2="-2.61%"><stop offset="0%" style="stop-color:rgb(255,233,137);stop-opacity:0.614" /><stop offset="100%" style="stop-color:rgb(255,255,168);stop-opacity:0.736" /></linearGradient><linearGradient id="linear-gradient-2-12" x1="0.00%" y1="0.00%" x2="100.23%" y2="21.78%"><stop offset="0%" style="stop-color:rgb(111,5,36);stop-opacity:0.372" /><stop offset="100%" style="stop-color:rgb(92,0,46);stop-opacity:0.447" /></linearGradient><linearGradient id="linear-gradient-2-13" x1="0.00%" y1="100.00%" x2="72.34%" y2="-11.58%"><stop offset="0%" style="stop-color:rgb(47,0,70);stop-opacity:0.766" /><stop offset="100%" style="stop-color:rgb(80,26,101);stop-opacity:0.784" /></linearGradient><linearGradient id="linear-gradient-2-14" x1="0.00%" y1="100.00%" x2="0.00%" y2="-0.00%"><stop offset="0%" style="stop-color:rgb(59,0,54);stop-opacity:0.753" /><stop offset="100%" style="stop-color:rgb(69,19,103);stop-opacity:0.806" /></linearGradient><linearGradient id="linear-gradient-2-15" x1="0.00%" y1="100.00%" x2="10.33%" y2="-3.03%"><stop offset="0%" style="stop-color:rgb(135,93,118);stop-opacity:0.599" /><stop offset="100%" style="stop-color:rgb(138,37,167);stop-opacity:0.542" /></linearGradient><linearGradient id="linear-gradient-2-16" x1="0.00%" y1="100.00%" x2="62.76%" y2="-29.34%"><stop offset="0%" style="stop-color:rgb(33,3,56);stop-opacity:0.770" /><stop offset="100%" style="stop-color:rgb(66,26,88);stop-opacity:0.815" /></linearGradient><linearGradient id="linear-gradient-2-17" x1="0.00%" y1="100.00%" x2="51.56%" y2="-8.05%"><stop offset="0%" style="stop-color:rgb(52,9,79);stop-opacity:0.790" /><stop offset="100%" style="stop-color:rgb(72,20,95);stop-opacity:0.806" /></linearGradient><linearGradient id="linear-gradient-2-18" x1="0.00%" y1="100.00%" x2="52.17%" y2="-21.99%"><stop offset="0%" style="stop-color:rgb(43,10,66);stop-opacity:0.786" /><stop offset="100%" style="stop-color:rgb(51,15,74);stop-opacity:0.808" /></linearGradient><linearGradient id="linear-gradient-3-1" x1="0.00%" y1="100.00%" x2="71.85%" y2="-3.06%"><stop offset="0%" style="stop-color:rgb(176,8,15);stop-opacity:0.744" /><stop offset="100%" style="stop-color:rgb(181,23,27);stop-opacity:0.800" /></linearGradient><linearGradient id="linear-gradient-3-2" x1="0.00%" y1="0.00%" x2="155.33%" y2="56.20%"><stop offset="0%" style="stop-color:rgb(243,208,123);stop-opacity:0.695" /><stop offset="100%" style="stop-color:rgb(255,241,155);stop-opacity:0.823" /></linearGradient><linearGradient id="linear-gradient-3-3" x1="0.00%" y1="100.00%" x2="0.00%" y2="-0.00%"><stop offset="0%" style="stop-color:rgb(214,156,222);stop-opacity:0.228" /><stop offset="100%" style="stop-color:rgb(228,156,252);stop-opacity:0.266" /></linearGradient><linearGradient id="linear-gradient-3-4" x1="0.00%" y1="100.00%" x2="72.32%" y2="-6.24%"><stop offset="0%" style="stop-color:rgb(136,130,218);stop-opacity:0.733" /><stop offset="100%" style="stop-color:rgb(209,204,255);stop-opacity:0.840" /></linearGradient><linearGradient id="linear-gradient-3-5" x1="0.00%" y1="100.00%" x2="0.07%" y2="-0.55%"><stop offset="0%" style="stop-color:rgb(98,62,124);stop-opacity:0.788" /><stop offset="100%" style="stop-color:rgb(99,61,122);stop-opacity:0.803" /></linearGradient><linearGradient id="linear-gradient-3-6" x1="0.00%" y1="100.00%" x2="0.26%" y2="-2.32%"><stop offset="0%" style="stop-color:rgb(98,61,123);stop-opacity:0.787" /><stop offset="100%" style="stop-color:rgb(99,60,120);stop-opacity:0.801" /></linearGradient><linearGradient id="linear-gradient-3-7" x1="0.00%" y1="100.00%" x2="0.19%" y2="-1.58%"><stop offset="0%" style="stop-color:rgb(98,61,121);stop-opacity:0.787" /><stop offset="100%" style="stop-color:rgb(99,59,118);stop-opacity:0.803" /></linearGradient><linearGradient id="linear-gradient-3-8" x1="0.00%" y1="100.00%" x2="0.00%" y2="-0.00%"><stop offset="0%" style="stop-color:rgb(157,101,154);stop-opacity:0.723" /><stop offset="100%" style="stop-color:rgb(155,94,173);stop-opacity:0.786" /></linearGradient><linearGradient id="linear-gradient-3-9" x1="0.00%" y1="100.00%" x2="51.14%" y2="-7.98%"><stop offset="0%" style="stop-color:rgb(144,138,219);stop-opacity:0.698" /><stop offset="100%" style="stop-color:rgb(184,178,255);stop-opacity:0.856" /></linearGradient><linearGradient id="linear-gradient-4-1" x1="0.00%" y1="100.00%" x2="0.00%" y2="-0.00%"><stop offset="0%" style="stop-color:rgb(31,0,60);stop-opacity:0.442" /><stop offset="100%" style="stop-color:rgb(52,15,81);stop-opacity:0.361" /></linearGradient><linearGradient id="linear-gradient-4-2" x1="0.00%" y1="100.00%" x2="146.28%" y2="63.97%"><stop offset="0%" style="stop-color:rgb(110,72,170);stop-opacity:0.723" /><stop offset="100%" style="stop-color:rgb(91,51,152);stop-opacity:0.822" /></linearGradient><linearGradient id="linear-gradient-4-3" x1="0.00%" y1="100.00%" x2="0.00%" y2="-0.00%"><stop offset="0%" style="stop-color:rgb(22,0,64);stop-opacity:0.414" /><stop offset="100%" style="stop-color:rgb(32,5,74);stop-opacity:0.383" /></linearGradient><linearGradient id="linear-gradient-4-4" x1="0.00%" y1="100.00%" x2="76.85%" y2="-5.80%"><stop offset="0%" style="stop-color:rgb(95,53,156);stop-opacity:0.752" /><stop offset="100%" style="stop-color:rgb(94,52,153);stop-opacity:0.805" /></linearGradient></defs><g id="layer-1"><path d="M2183 4501 c-221 -20 -404 -39 -406 -41 -3 -3 -17 -88 -32 -190 -77 -531 -176 -987 -279 -1289 -15 -41 -26 -76 -26 -78 0 -2 452 -3 1005 -3 553 0 1005 3 1005 8 0 4 -7 30 -15 57 -62 203 -135 698 -175 1185 -7 74 -15 138 -18 142 -4 3 -121 61 -260 127 l-254 121 -71 -1 c-40 -1 -253 -18 -474 -38z" fill="url(#linear-gradient-1-1)" id="region-1-1" transform="translate(0.000000,455.000000) scale(0.100000,-0.100000)"/><path d="M3655 4431 c-30 -131 -24 -145 109 -281 133 -136 126 -111 126 -422 l0 -198 50 0 50 0 0 258 c0 141 -4 274 -9 294 -5 21 -28 66 -51 100 -66 97 -241 328 -250 328 -3 0 -15 -36 -25 -79z" fill="url(#linear-gradient-1-2)" id="region-1-2" transform="translate(0.000000,455.000000) scale(0.100000,-0.100000)"/><path d="M3865 3518 c-52 -34 -50 -22 -53 -330 l-4 -288 36 0 c23 0 36 -5 36 -13 0 -12 203 -77 240 -77 11 0 12 57 7 315 -4 173 -11 325 -17 339 -5 14 -24 32 -41 42 -42 21 -177 29 -204 12z" fill="url(#linear-gradient-1-3)" id="region-1-3" transform="translate(0.000000,455.000000) scale(0.100000,-0.100000)"/><path d="M3880 2658 c0 -450 -44 -967 -127 -1476 -14 -89 -24 -165 -21 -167 2 -3 85 -12 184 -21 98 -9 350 -40 559 -69 209 -30 381 -53 382 -51 9 8 313 1072 309 1081 -2 7 -23 15 -46 18 -56 7 -103 54 -131 126 -30 79 -23 225 14 297 28 54 74 103 113 119 22 9 -9 19 -229 80 l-254 70 -20 40 c-10 22 -37 54 -60 71 -51 39 -109 47 -326 43 -140 -2 -159 0 -242 24 -49 15 -93 27 -97 27 -4 0 -8 -96 -8 -212z" fill="url(#linear-gradient-1-4)" id="region-1-4" transform="translate(0.000000,455.000000) scale(0.100000,-0.100000)"/><path d="M860 2740 l0 -159 33 -5 c80 -13 102 -10 164 22 108 56 200 75 333 70 92 -4 128 -10 182 -31 171 -66 302 -189 403 -380 43 -81 105 -250 105 -288 0 -10 4 -19 9 -19 10 0 19 -52 27 -170 7 -99 -10 -334 -31 -434 -8 -38 -13 -71 -11 -74 3 -2 117 -20 255 -40 l251 -35 49 54 c31 35 72 65 114 87 57 28 75 32 145 32 64 0 82 3 96 18 26 30 118 72 177 81 66 11 157 -2 212 -30 98 -51 185 -178 213 -313 9 -39 16 -72 17 -73 4 -3 122 -21 124 -19 6 5 55 329 77 506 53 414 76 763 76 1133 l0 227 -1510 0 -1510 0 0 -160z" fill="url(#linear-gradient-1-5)" id="region-1-5" transform="translate(0.000000,455.000000) scale(0.100000,-0.100000)"/><path d="M1180 2647 c-41 -13 -100 -36 -130 -52 l-55 -28 110 -18 c61 -10 151 -29 202 -42 69 -17 94 -20 97 -11 6 16 50 5 153 -39 83 -35 174 -100 247 -176 75 -77 164 -245 210 -396 16 -49 35 -112 43 -139 13 -41 15 -88 11 -265 -6 -227 0 -243 28 -72 27 166 22 541 -7 541 -5 0 -9 9 -9 19 0 38 -62 207 -105 288 -101 191 -232 314 -403 380 -56 22 -87 27 -192 30 -109 3 -135 0 -200 -20z" fill="url(#linear-gradient-1-6)" id="region-1-6" transform="translate(0.000000,455.000000) scale(0.100000,-0.100000)"/><path d="M620 2564 c-73 -20 -194 -81 -239 -122 -20 -18 -47 -43 -61 -56 -88 -81 -198 -233 -211 -295 -5 -20 -22 -76 -39 -125 -17 -48 -38 -122 -46 -163 -16 -84 -18 -367 -4 -448 5 -27 14 -82 19 -120 22 -154 128 -372 245 -505 74 -83 225 -180 281 -180 11 0 49 -9 84 -20 164 -52 500 -91 604 -70 261 50 511 260 650 545 45 94 94 250 113 364 24 150 15 371 -20 500 -28 100 -82 218 -137 298 -86 124 -220 237 -329 275 -300 107 -744 166 -910 122z" fill="url(#linear-gradient-1-7)" id="region-1-7" transform="translate(0.000000,455.000000) scale(0.100000,-0.100000)"/><path d="M5110 2513 c-29 -11 -82 -69 -107 -117 -37 -72 -44 -218 -14 -297 41 -109 118 -147 277 -137 89 6 146 32 218 102 65 63 76 96 76 221 -1 154 -38 205 -165 224 -77 11 -258 14 -285 4z" fill="url(#linear-gradient-1-8)" id="region-1-8" transform="translate(0.000000,455.000000) scale(0.100000,-0.100000)"/><path d="M3156 1469 c-53 -9 -147 -52 -172 -81 -14 -14 -14 -18 -3 -19 180 -8 247 -18 312 -48 83 -38 116 -67 175 -151 26 -36 50 -66 54 -68 5 -2 8 -12 8 -22 0 -12 10 -20 32 -24 17 -3 33 -4 35 -2 2 2 -3 35 -11 73 -49 235 -226 376 -430 342z" fill="url(#linear-gradient-1-9)" id="region-1-9" transform="translate(0.000000,455.000000) scale(0.100000,-0.100000)"/><path d="M2745 1339 c-107 -53 -228 -203 -260 -322 -14 -52 -16 -95 -13 -243 4 -170 6 -183 33 -249 62 -151 137 -244 227 -284 67 -30 223 -56 333 -56 90 0 106 3 153 27 201 104 322 334 322 612 0 178 -49 312 -153 413 -43 43 -66 56 -132 78 -112 36 -231 55 -349 55 -92 0 -106 -3 -161 -31z" fill="url(#linear-gradient-1-10)" id="region-1-10" transform="translate(0.000000,455.000000) scale(0.100000,-0.100000)"/><path d="M4927 1103 c-2 -4 -19 -59 -37 -121 -32 -110 -33 -113 -59 -108 -14 3 -141 21 -281 41 -140 19 -264 37 -275 40 -17 3 -27 -7 -53 -54 -35 -65 -39 -86 -17 -95 8 -3 15 -14 15 -25 0 -14 9 -21 33 -26 63 -13 68 -16 65 -38 -3 -19 -10 -22 -53 -23 -63 -1 -120 -26 -129 -56 -11 -42 -6 -202 9 -273 20 -96 85 -225 135 -268 67 -57 138 -79 272 -85 113 -4 120 -3 175 23 76 37 206 167 262 262 24 40 61 123 83 185 38 107 40 120 41 238 2 95 -2 139 -16 185 -20 65 -91 181 -116 188 -9 3 -23 8 -32 12 -10 3 -19 3 -22 -2z" fill="url(#linear-gradient-1-11)" id="region-1-11" transform="translate(0.000000,455.000000) scale(0.100000,-0.100000)"/><path d="M4061 910 l-13 -72 -36 7 c-29 5 -39 3 -52 -15 -15 -20 -17 -21 -150 -6 -74 8 -165 17 -202 21 l-68 6 0 -44 0 -44 178 -6 c211 -8 222 -10 222 -46 0 -27 0 -28 103 -38 87 -9 107 -8 137 5 19 9 58 16 85 16 43 1 50 4 53 23 3 22 -2 25 -65 38 -23 5 -33 12 -33 25 0 21 -28 40 -59 40 -25 0 -25 6 -7 85 8 33 13 61 12 62 -1 2 -23 6 -47 9 l-45 6 -13 -72z" fill="url(#linear-gradient-1-12)" id="region-1-12" transform="translate(0.000000,455.000000) scale(0.100000,-0.100000)"/></g><g id="layer-2"><path d="M2201 4454 c-205 -23 -375 -45 -378 -47 -2 -3 -13 -80 -23 -171 -47 -410 -132 -865 -229 -1218 l-29 -108 539 0 539 0 0 795 0 795 -22 -1 c-13 -1 -191 -21 -397 -45z" fill="url(#linear-gradient-2-1)" id="region-2-1" transform="translate(0.000000,455.000000) scale(0.100000,-0.100000)"/><path d="M2735 4133 c-11 -459 16 -1105 51 -1215 5 -17 29 -18 321 -18 l315 0 -6 23 c-4 12 -29 132 -56 267 -54 272 -98 552 -134 859 -14 112 -28 207 -33 212 -7 7 -439 199 -447 199 -2 0 -7 -147 -11 -327z" fill="url(#linear-gradient-2-2)" id="region-2-2" transform="translate(0.000000,455.000000) scale(0.100000,-0.100000)"/><path d="M860 2875 l0 -25 1510 0 1510 0 0 25 0 25 -1510 0 -1510 0 0 -25z" fill="url(#linear-gradient-2-3)" id="region-2-3" transform="translate(0.000000,455.000000) scale(0.100000,-0.100000)"/><path d="M2650 2803 c-1 -65 -106 -1493 -111 -1497 -2 -2 -102 12 -222 31 -194 31 -242 35 -226 18 8 -8 460 -78 466 -72 3 3 27 324 53 714 27 389 51 738 54 776 4 42 2 67 -4 67 -5 0 -10 -17 -10 -37z" fill="url(#linear-gradient-2-4)" id="region-2-4" transform="translate(0.000000,455.000000) scale(0.100000,-0.100000)"/><path d="M4105 2795 c-98 -59 -153 -161 -162 -301 -11 -167 60 -299 175 -323 110 -23 247 -10 322 31 83 45 173 148 196 225 28 94 8 244 -41 309 -14 18 -41 42 -62 55 -34 21 -49 23 -212 26 -171 2 -177 2 -216 -22z" fill="url(#linear-gradient-2-5)" id="region-2-5" transform="translate(0.000000,455.000000) scale(0.100000,-0.100000)"/><path d="M2190 2640 l0 -50 160 0 160 0 0 50 0 50 -160 0 -160 0 0 -50z" fill="url(#linear-gradient-2-6)" id="region-2-6" transform="translate(0.000000,455.000000) scale(0.100000,-0.100000)"/><path d="M3080 2565 c0 -13 29 -15 205 -15 176 0 205 2 205 15 0 13 -29 15 -205 15 -176 0 -205 -2 -205 -15z" fill="url(#linear-gradient-2-7)" id="region-2-7" transform="translate(0.000000,455.000000) scale(0.100000,-0.100000)"/><path d="M633 2555 c-117 -32 -225 -100 -330 -206 -128 -131 -211 -280 -265 -479 -21 -77 -23 -106 -23 -305 1 -244 10 -300 82 -489 19 -50 37 -99 40 -108 3 -10 9 -18 14 -18 5 0 9 -5 9 -10 0 -6 23 -46 52 -88 74 -111 179 -211 268 -255 67 -34 79 -37 160 -37 114 0 197 25 293 90 331 221 542 766 473 1217 -50 331 -232 597 -464 679 -79 28 -223 32 -309 9z" fill="url(#linear-gradient-2-8)" id="region-2-8" transform="translate(0.000000,455.000000) scale(0.100000,-0.100000)"/><path d="M3080 2475 c0 -13 29 -15 205 -15 176 0 205 2 205 15 0 13 -29 15 -205 15 -176 0 -205 -2 -205 -15z" fill="url(#linear-gradient-2-9)" id="region-2-9" transform="translate(0.000000,455.000000) scale(0.100000,-0.100000)"/><path d="M5381 2467 c-42 -8 -43 -9 -21 -20 13 -7 35 -34 49 -62 23 -43 26 -62 26 -145 0 -81 -4 -102 -25 -143 -13 -27 -41 -64 -62 -83 -42 -37 -37 -42 20 -19 46 19 136 112 158 163 25 57 23 186 -4 238 -34 67 -71 86 -141 71z" fill="url(#linear-gradient-2-10)" id="region-2-10" transform="translate(0.000000,455.000000) scale(0.100000,-0.100000)"/><path d="M5300 2435 c-65 -36 -155 -187 -166 -279 -15 -126 15 -176 110 -184 48 -4 54 -1 96 36 64 56 93 119 98 213 5 84 -6 133 -44 192 -26 40 -51 46 -94 22z" fill="url(#linear-gradient-2-11)" id="region-2-11" transform="translate(0.000000,455.000000) scale(0.100000,-0.100000)"/><path d="M3080 2375 c0 -13 29 -15 205 -15 176 0 205 2 205 15 0 13 -29 15 -205 15 -176 0 -205 -2 -205 -15z" fill="url(#linear-gradient-2-12)" id="region-2-12" transform="translate(0.000000,455.000000) scale(0.100000,-0.100000)"/><path d="M1612 1950 l-182 -119 0 -110 c0 -63 4 -112 10 -116 6 -3 96 40 201 96 104 56 191 100 193 98 2 -2 41 -77 87 -167 94 -183 97 -184 98 -35 1 90 0 94 -42 175 -85 164 -162 298 -172 298 -6 0 -92 -54 -193 -120z" fill="url(#linear-gradient-2-13)" id="region-2-13" transform="translate(0.000000,455.000000) scale(0.100000,-0.100000)"/><path d="M4131 1958 c-15 -46 -172 -701 -168 -704 1 -1 211 -31 465 -65 355 -49 465 -61 471 -51 4 6 38 139 75 294 37 156 74 301 82 322 8 21 11 43 7 47 -11 11 -169 52 -343 89 -141 30 -536 100 -564 100 -8 0 -19 -15 -25 -32z" fill="url(#linear-gradient-2-14)" id="region-2-14" transform="translate(0.000000,455.000000) scale(0.100000,-0.100000)"/><path d="M2755 1329 c-65 -32 -146 -111 -200 -193 -56 -84 -78 -164 -83 -302 -6 -176 23 -290 110 -431 130 -208 316 -231 482 -60 75 78 120 152 157 259 85 251 46 518 -99 665 -70 72 -120 93 -223 93 -73 0 -92 -4 -144 -31z" fill="url(#linear-gradient-2-15)" id="region-2-15" transform="translate(0.000000,455.000000) scale(0.100000,-0.100000)"/><path d="M1550 1173 l-245 -87 -45 -80 c-25 -44 -71 -115 -102 -158 l-57 -77 46 20 c89 38 538 218 552 221 8 2 22 -21 37 -62 14 -36 29 -76 34 -89 l11 -23 27 35 c15 19 36 53 46 75 18 40 18 42 -9 159 -33 147 -35 153 -43 153 -4 -1 -117 -40 -252 -87z" fill="url(#linear-gradient-2-16)" id="region-2-16" transform="translate(0.000000,455.000000) scale(0.100000,-0.100000)"/><path d="M3353 1047 l-72 -52 -1 -72 c0 -40 3 -73 6 -73 4 0 40 20 81 45 73 45 74 45 82 22 5 -12 25 -56 45 -97 l35 -75 1 82 c0 79 -2 87 -47 178 -26 52 -50 95 -53 95 -3 -1 -38 -24 -77 -53z" fill="url(#linear-gradient-2-17)" id="region-2-17" transform="translate(0.000000,455.000000) scale(0.100000,-0.100000)"/><path d="M3322 603 c-92 -36 -94 -37 -122 -92 -16 -31 -39 -71 -51 -88 -11 -18 -19 -33 -16 -33 2 0 52 23 111 50 59 28 113 50 120 50 7 0 19 -21 27 -47 l15 -47 23 40 c20 33 22 48 17 97 -7 69 -16 107 -25 106 -3 0 -48 -16 -99 -36z" fill="url(#linear-gradient-2-18)" id="region-2-18" transform="translate(0.000000,455.000000) scale(0.100000,-0.100000)"/></g><g id="layer-3"><path d="M4421 2759 l-33 -10 36 -37 c69 -69 93 -215 57 -342 -17 -57 -73 -142 -111 -168 l-35 -24 30 8 c54 13 108 45 160 98 68 68 95 138 95 245 0 123 -35 196 -107 227 -37 16 -45 16 -92 3z" fill="url(#linear-gradient-3-1)" id="region-3-1" transform="translate(0.000000,455.000000) scale(0.100000,-0.100000)"/><path d="M4318 2695 c-32 -25 -58 -49 -58 -53 0 -4 -15 -23 -33 -43 -94 -103 -126 -295 -64 -388 l27 -41 68 0 c57 1 73 5 107 28 107 74 161 262 117 408 -20 67 -68 134 -96 134 -6 0 -37 -20 -68 -45z" fill="url(#linear-gradient-3-2)" id="region-3-2" transform="translate(0.000000,455.000000) scale(0.100000,-0.100000)"/><path d="M622 2521 c-154 -45 -306 -151 -353 -247 -41 -87 -7 -180 101 -274 67 -58 63 -58 106 10 9 14 32 37 52 50 21 13 48 34 62 46 37 32 115 55 196 57 l72 2 8 60 c13 99 10 246 -7 280 -14 29 -16 30 -94 32 -53 1 -101 -4 -143 -16z" fill="url(#linear-gradient-3-3)" id="region-3-3" transform="translate(0.000000,455.000000) scale(0.100000,-0.100000)"/><path d="M726 2159 c-63 -10 -105 -27 -136 -54 -14 -11 -41 -31 -60 -44 -39 -26 -109 -121 -139 -192 -101 -230 -43 -560 130 -739 63 -65 120 -93 191 -93 160 0 323 167 400 413 20 65 23 95 23 225 -1 147 -1 151 -32 217 -58 124 -143 220 -225 257 -49 22 -73 24 -152 10z" fill="url(#linear-gradient-3-4)" id="region-3-4" transform="translate(0.000000,455.000000) scale(0.100000,-0.100000)"/><path d="M4113 1856 l-10 -43 176 -6 c266 -8 469 -50 650 -133 41 -19 78 -31 82 -27 5 5 11 26 15 49 l6 41 -38 6 c-22 3 -222 39 -446 81 -223 42 -410 76 -415 76 -5 0 -14 -20 -20 -44z" fill="url(#linear-gradient-3-5)" id="region-3-5" transform="translate(0.000000,455.000000) scale(0.100000,-0.100000)"/><path d="M4080 1718 c0 -7 -3 -22 -6 -34 -5 -20 -1 -21 133 -27 157 -8 307 -28 432 -57 94 -23 248 -73 292 -96 16 -8 32 -14 37 -14 9 0 27 68 20 75 -3 4 -882 165 -898 165 -5 0 -10 -6 -10 -12z" fill="url(#linear-gradient-3-6)" id="region-3-6" transform="translate(0.000000,455.000000) scale(0.100000,-0.100000)"/><path d="M4047 1573 c-2 -5 -7 -20 -11 -35 l-6 -28 64 0 c143 0 391 -34 556 -77 76 -19 197 -63 276 -99 12 -5 30 63 20 73 -3 3 -869 171 -893 173 -1 0 -4 -3 -6 -7z" fill="url(#linear-gradient-3-7)" id="region-3-7" transform="translate(0.000000,455.000000) scale(0.100000,-0.100000)"/><path d="M2792 1330 c-69 -25 -114 -53 -151 -96 -52 -59 -39 -138 31 -193 34 -27 39 -26 69 5 51 55 109 84 166 84 l53 0 0 91 c0 50 -5 99 -10 110 -14 25 -86 25 -158 -1z" fill="url(#linear-gradient-3-8)" id="region-3-8" transform="translate(0.000000,455.000000) scale(0.100000,-0.100000)"/><path d="M2812 1103 c-119 -81 -152 -142 -152 -283 0 -92 19 -162 63 -226 43 -65 88 -94 144 -94 55 0 89 17 136 69 75 83 113 196 105 315 -6 89 -30 138 -99 200 -47 42 -55 46 -104 46 -40 0 -61 -6 -93 -27z" fill="url(#linear-gradient-3-9)" id="region-3-9" transform="translate(0.000000,455.000000) scale(0.100000,-0.100000)"/></g><g id="layer-4"><path d="M674 2224 c-71 -28 -156 -95 -228 -177 -40 -46 -48 -62 -40 -74 18 -28 28 -24 59 21 16 24 46 54 65 67 19 13 46 33 60 45 61 54 245 79 317 44 62 -30 143 -124 190 -220 34 -67 29 -17 -6 68 -54 134 -104 198 -187 237 -49 23 -157 18 -230 -11z" fill="url(#linear-gradient-4-1)" id="region-4-1" transform="translate(0.000000,455.000000) scale(0.100000,-0.100000)"/><path d="M713 1837 c-24 -17 -55 -50 -70 -72 -25 -37 -27 -47 -28 -150 0 -95 3 -117 24 -162 26 -58 86 -119 127 -129 44 -11 113 25 154 79 52 68 74 137 75 228 0 65 -5 84 -30 135 -40 77 -80 104 -154 104 -47 0 -62 -5 -98 -33z m168 -14 c46 -39 69 -96 69 -173 0 -81 -11 -122 -50 -183 -74 -117 -179 -115 -245 4 -27 49 -30 62 -29 144 0 75 4 97 24 134 52 97 162 132 231 74z" fill="url(#linear-gradient-4-2)" id="region-4-2" transform="translate(0.000000,455.000000) scale(0.100000,-0.100000)"/><path d="M2822 1164 c-52 -26 -132 -105 -132 -130 0 -22 24 -16 50 11 51 55 100 80 169 85 l66 6 57 -56 c32 -31 58 -54 58 -53 0 2 -11 25 -24 51 -56 109 -139 139 -244 86z" fill="url(#linear-gradient-4-3)" id="region-4-3" transform="translate(0.000000,455.000000) scale(0.100000,-0.100000)"/><path d="M2853 936 c-35 -32 -37 -38 -41 -103 -3 -56 0 -78 17 -111 37 -72 94 -83 145 -28 127 134 12 364 -121 242z m106 -11 c43 -56 34 -144 -20 -189 -37 -32 -51 -32 -84 -3 -46 40 -46 141 0 191 32 35 76 35 104 1z" fill="url(#linear-gradient-4-4)" id="region-4-4" transform="translate(0.000000,455.000000) scale(0.100000,-0.100000)"/></g></svg>