<?xml version="1.0" encoding="utf-8"?>
<!-- Generator: Adobe Illustrator 26.5.0, SVG Export Plug-In . SVG Version: 6.00 Build 0)  -->
<svg version="1.1" id="图层_1" xmlns="http://www.w3.org/2000/svg" xmlns:xlink="http://www.w3.org/1999/xlink" x="0px" y="0px"
	 viewBox="0 0 2500 501" style="enable-background:new 0 0 2500 501;" xml:space="preserve">
<style type="text/css">
	.st0{fill:none;}
	.st1{fill:#D3D3D3;}
	.st2{fill:url(#SVGID_1_);}
	.st3{fill:url(#SVGID_00000129169112250556214560000012802976884010876814_);}
	.st4{fill:url(#SVGID_00000076598689597969185870000011237425501241838259_);}
	.st5{fill:url(#SVGID_00000032633594215816041220000009420157086245534857_);}
	.st6{fill:url(#SVGID_00000045608244674042683830000002871069481807622792_);}
	.st7{fill:url(#SVGID_00000148660784092003864190000013057523164385610895_);}
	.st8{fill:url(#SVGID_00000010273590996260513860000013234107435272352921_);}
	.st9{fill:url(#SVGID_00000042724644988966301540000000221349493803089828_);}
	.st10{fill:url(#SVGID_00000153696252399195421530000001314494473243793331_);stroke:#000000;stroke-miterlimit:10;}
	.st11{fill:none;stroke:#000000;stroke-width:2;stroke-miterlimit:10;}
	.st12{fill:none;stroke:#FD0000;stroke-width:2;stroke-miterlimit:10;}
</style>
<pattern  y="501" width="40" height="40" patternUnits="userSpaceOnUse" id="a2ed1d96-aebd-4bf9-a4b3-645f1ac" viewBox="0 -40 40 40" style="overflow:visible;">
	<g>
		<rect y="-40" class="st0" width="40" height="40"/>
		<g>
			<rect y="-40" class="st0" width="40" height="40"/>
			<g>
				<rect y="-40" class="st0" width="40" height="40"/>
				<rect y="-40" class="st0" width="40" height="40"/>
				<rect y="-40" class="st1" width="20" height="20"/>
				<rect x="20" y="-20" class="st1" width="20" height="20"/>
			</g>
		</g>
	</g>
</pattern>
<g id="_图层_1">
	<g id="_图层_1-2">
		<pattern  id="SVGID_1_" xlink:href="#a2ed1d96-aebd-4bf9-a4b3-645f1ac" patternTransform="matrix(1 0 0 1 141 16671.7402)">
		</pattern>
		<rect y="1" class="st2" width="2500" height="500"/>
	</g>
	
		<linearGradient id="SVGID_00000031165536970059363600000011778397556035895706_" gradientUnits="userSpaceOnUse" x1="40.8191" y1="289.6496" x2="42.6591" y2="288.9596" gradientTransform="matrix(500 0 0 -500 -20459 144962.4844)">
		<stop  offset="0" style="stop-color:#006114"/>
		<stop  offset="1" style="stop-color:#003531"/>
	</linearGradient>
	<path style="fill:url(#SVGID_00000031165536970059363600000011778397556035895706_);" d="M0,250v250h500V0H0V250z"/>
	
		<linearGradient id="SVGID_00000088855633474538221300000016612857071681864623_" gradientUnits="userSpaceOnUse" x1="41.2107" y1="289.8237" x2="41.2607" y2="288.7837" gradientTransform="matrix(155 0 0 -415 -5972 120323)">
		<stop  offset="0" style="stop-color:#003246"/>
		<stop  offset="1" style="stop-color:#415A1A"/>
	</linearGradient>
	<path style="fill:url(#SVGID_00000088855633474538221300000016612857071681864623_);" d="M342,260.5V468h155V53H342V260.5z"/>
	
		<linearGradient id="SVGID_00000107572438745979992210000005913442865575150265_" gradientUnits="userSpaceOnUse" x1="41.1046" y1="289.9645" x2="41.9746" y2="288.8345" gradientTransform="matrix(479.02 0 0 -421.61 -19587.8594 122202.4531)">
		<stop  offset="0" style="stop-color:#C01002;stop-opacity:0.29"/>
		<stop  offset="1" style="stop-color:#7E5963;stop-opacity:0.26"/>
	</linearGradient>
	<path style="fill:url(#SVGID_00000107572438745979992210000005913442865575150265_);" d="M170.5,29.5C84.2,40,12.7,48.9,11.7,49.1
		c-1.3,0.3,72.6,59.6,238.4,191.6c132.2,105.2,240.4,191.1,240.6,191c0.2-0.2-119.9-319.1-156.3-415c-2.1-5.5-3-6.7-4.7-6.6
		C328.5,10.2,256.9,18.9,170.5,29.5L170.5,29.5z"/>
	
		<linearGradient id="SVGID_00000029762832964585738310000005900399372307871886_" gradientUnits="userSpaceOnUse" x1="41.3052" y1="289.9321" x2="41.6852" y2="288.8021" gradientTransform="matrix(314.35 0 0 -403 -12835.2051 116800)">
		<stop  offset="0" style="stop-color:#637A09;stop-opacity:4.000000e-02"/>
		<stop  offset="1" style="stop-color:#F10AF8;stop-opacity:0.32"/>
	</linearGradient>
	<path style="fill:url(#SVGID_00000029762832964585738310000005900399372307871886_);" d="M146,32.5C73.1,41.4,12.7,48.9,11.7,49.1
		c-1.3,0.3,21.7,19.1,76.2,62.4l78,62l0.1,122.7V419h160V16l-23.7,0.1l-23.8,0.1L146,32.5z"/>
</g>
<g id="_图层_2">
	
		<linearGradient id="SVGID_00000099652745384379656940000014507993936595258541_" gradientUnits="userSpaceOnUse" x1="41.8184" y1="289.6478" x2="43.6584" y2="288.9578" gradientTransform="matrix(500 0 0 -500 -20459 144962.4844)">
		<stop  offset="0" style="stop-color:#006114"/>
		<stop  offset="1" style="stop-color:#003531"/>
	</linearGradient>
	<path style="fill:url(#SVGID_00000099652745384379656940000014507993936595258541_);" d="M500,251v250h500V1H500V251z"/>
	
		<linearGradient id="SVGID_00000183208291599254324500000004401321135881310899_" gradientUnits="userSpaceOnUse" x1="47.6621" y1="289.8238" x2="47.7122" y2="288.7838" gradientTransform="matrix(155 0 0 -415 -5972 120323)">
		<stop  offset="0" style="stop-color:#003246"/>
		<stop  offset="1" style="stop-color:#415A1A"/>
	</linearGradient>
	<path style="fill:url(#SVGID_00000183208291599254324500000004401321135881310899_);" d="M1342,261.5V469h155V54h-155V261.5z"/>
	
		<linearGradient id="SVGID_00000166673075689476353360000012533277261078539197_" gradientUnits="userSpaceOnUse" x1="44.2383" y1="289.9575" x2="45.1084" y2="288.8374" gradientTransform="matrix(479.02 0 0 -421.61 -19587.8594 122202.4531)">
		<stop  offset="0" style="stop-color:#C01002;stop-opacity:0.29"/>
		<stop  offset="1" style="stop-color:#7E5963;stop-opacity:0.26"/>
	</linearGradient>
	<path style="fill:url(#SVGID_00000166673075689476353360000012533277261078539197_);" d="M1670.5,30.5
		c-86.3,10.5-157.8,19.4-158.8,19.6c-1.3,0.3,72.6,59.6,238.4,191.6c132.2,105.2,240.4,191.1,240.6,191
		c0.2-0.2-119.9-319.1-156.3-415c-2.1-5.5-3-6.7-4.7-6.6C1828.5,11.2,1756.9,19.9,1670.5,30.5L1670.5,30.5z"/>
	
		<linearGradient id="SVGID_00000173126551287395605650000007992727123609557399_" gradientUnits="userSpaceOnUse" x1="47.6651" y1="289.932" x2="48.0551" y2="288.802" gradientTransform="matrix(314.35 0 0 -403 -12835.2051 116800)">
		<stop  offset="0" style="stop-color:#637A09;stop-opacity:4.000000e-02"/>
		<stop  offset="1" style="stop-color:#F10AF8;stop-opacity:0.32"/>
	</linearGradient>
	<path style="fill:url(#SVGID_00000173126551287395605650000007992727123609557399_);stroke:#000000;stroke-miterlimit:10;" d="
		M2146,33.5c-72.9,8.9-133.3,16.4-134.3,16.6c-1.3,0.3,21.7,19.1,76.2,62.4l78,62l0.1,122.7V420h160V17l-23.7,0.1l-23.8,0.1
		L2146,33.5z"/>
	<line class="st11" x1="1500" y1="0.5" x2="1500" y2="500.5"/>
	<line class="st11" x1="2001" y1="0.5" x2="2001" y2="500.5"/>
</g>
<rect x="26.9" y="178.1" class="st12" width="126.2" height="192"/>
<rect x="2011.6" y="10.1" class="st12" width="381.5" height="457.9"/>
</svg>
