<?xml version="1.0" encoding="UTF-8"?>
<svg xmlns="http://www.w3.org/2000/svg" xmlns:xlink="http://www.w3.org/1999/xlink" viewBox="0 0 2000 501">
  <defs>
    <style>
      .cls-1 {
        fill: url(#_未命名的渐变_5);
      }

      .cls-2 {
        fill: url(#_未命名的渐变_4-2);
      }

      .cls-3 {
        fill: url(#_未命名的渐变_4);
      }

      .cls-4 {
        fill: url(#_未命名的渐变_5-2);
      }

      .cls-5 {
        fill: url(#_未命名的渐变_3-2);
      }

      .cls-6 {
        stroke: #000;
        stroke-miterlimit: 10;
        stroke-width: 2px;
      }

      .cls-6, .cls-7 {
        fill: none;
      }

      .cls-8 {
        fill: url(#a2ed1d96-aebd-4bf9-a4b3-645f1ac);
      }

      .cls-9 {
        fill: #d3d3d3;
      }

      .cls-10 {
        fill: url(#_未命名的渐变_2-2);
      }

      .cls-11 {
        fill: url(#_未命名的渐变_6-2);
      }

      .cls-12 {
        fill: url(#_未命名的渐变_6);
      }

      .cls-13 {
        fill: url(#_未命名的渐变_2);
      }

      .cls-14 {
        fill: url(#_未命名的渐变_3);
      }
    </style>
    <pattern id="a2ed1d96-aebd-4bf9-a4b3-645f1ac" x="0" y="0" width="40" height="40" patternTransform="translate(151 -15583.24) scale(1 -1)" patternUnits="userSpaceOnUse" viewBox="0 0 40 40">
      <g>
        <rect class="cls-7" width="40" height="40"/>
        <g>
          <rect class="cls-7" width="40" height="40"/>
          <rect class="cls-7" width="40" height="40"/>
          <rect class="cls-9" y="20" width="20" height="20"/>
          <rect class="cls-9" x="20" width="20" height="20"/>
        </g>
      </g>
    </pattern>
    <linearGradient id="_未命名的渐变_6" data-name="未命名的渐变 6" x1="-248.5" y1="500" x2="-247.5" y2="501" gradientTransform="translate(124251 -249999.01) scale(500)" gradientUnits="userSpaceOnUse">
      <stop offset="0" stop-color="green"/>
      <stop offset="1" stop-color="#033"/>
    </linearGradient>
    <linearGradient id="_未命名的渐变_2" data-name="未命名的渐变 2" x1="-247.4" y1="499.97" x2="-246.53" y2="500.98" gradientTransform="translate(39757 -201483) scale(160 403)" gradientUnits="userSpaceOnUse">
      <stop offset="0" stop-color="#057a07" stop-opacity=".25"/>
      <stop offset="1" stop-color="#b71bbd" stop-opacity=".43"/>
    </linearGradient>
    <linearGradient id="_未命名的渐变_3" data-name="未命名的渐变 3" x1="-247.37" y1="499.98" x2="-246.45" y2="500.99" gradientTransform="translate(38688 -207446) scale(155 415)" gradientUnits="userSpaceOnUse">
      <stop offset="0" stop-color="#0e027f" stop-opacity=".4"/>
      <stop offset="1" stop-color="#867f02" stop-opacity=".49"/>
    </linearGradient>
    <linearGradient id="_未命名的渐变_4" data-name="未命名的渐变 4" x1="-246.92" y1="499.9" x2="-246.51" y2="501.1" gradientTransform="translate(34425.7 -69526.99) scale(139.2 139.35)" gradientUnits="userSpaceOnUse">
      <stop offset="0" stop-color="#21ba22" stop-opacity=".34"/>
      <stop offset="1" stop-color="#51644f" stop-opacity=".37"/>
    </linearGradient>
    <linearGradient id="_未命名的渐变_5" data-name="未命名的渐变 5" x1="-248.31" y1="499.86" x2="-247.39" y2="500.94" gradientTransform="translate(119037.94 -210791.74) scale(479.02 421.61)" gradientUnits="userSpaceOnUse">
      <stop offset="0" stop-color="#f90202" stop-opacity=".22"/>
      <stop offset="1" stop-color="#756060" stop-opacity=".28"/>
    </linearGradient>
    <linearGradient id="_未命名的渐变_6-2" data-name="未命名的渐变 6" x1="-247.5" y1="500" x2="-246.5" y2="501" xlink:href="#_未命名的渐变_6"/>
    <linearGradient id="_未命名的渐变_2-2" data-name="未命名的渐变 2" x1="-241.15" y1="499.96" x2="-240.28" y2="500.98" xlink:href="#_未命名的渐变_2"/>
    <linearGradient id="_未命名的渐变_3-2" data-name="未命名的渐变 3" x1="-240.92" y1="499.98" x2="-240" y2="500.99" xlink:href="#_未命名的渐变_3"/>
    <linearGradient id="_未命名的渐变_4-2" data-name="未命名的渐变 4" x1="-239.73" y1="499.89" x2="-239.32" y2="501.09" xlink:href="#_未命名的渐变_4"/>
    <linearGradient id="_未命名的渐变_5-2" data-name="未命名的渐变 5" x1="-212.38" y1="-5.04" x2="-237.27" y2="382.51" xlink:href="#_未命名的渐变_5"/>
  </defs>
  <g id="_图层_1" data-name="图层 1">
    <g id="_图层_1-2" data-name=" 图层 1">
      <rect class="cls-8" x="0" y="0" width="2000" height="500"/>
    </g>
    <g id="layer-1">
      <path id="region-1-1" class="cls-12" d="M0,251v250H500V1H0V251Z"/>
    </g>
    <g id="layer-2">
      <path id="region-2-1" class="cls-13" d="M166,218.5v201.5h160V17H166V218.5Z"/>
      <path id="region-2-2" class="cls-14" d="M342,261.5v207.5h155V54h-155v207.5Z"/>
      <path id="region-2-3" class="cls-3" d="M76.5,149.1c-9.5,.9-14.5,2.3-24.5,7.1-7,3.4-10.1,5.7-17.6,13.2s-9.9,10.6-13.2,17.6c-5.2,10.8-7.3,19.8-7.3,31.5s2.1,20.7,7.3,31.5c3.3,7,5.7,10.1,13.2,17.6s10.6,9.9,17.6,13.2c10.8,5.2,19.8,7.3,31.5,7.3s20.7-2.1,31.5-7.3c7-3.3,10.1-5.7,17.6-13.2s9.9-10.6,13.2-17.6c5.2-10.8,7.3-19.8,7.3-31.5s-2.1-20.7-7.3-31.5c-3.4-7-5.6-10.1-13.2-17.5-16-15.9-33.9-22.4-56.1-20.4Z"/>
    </g>
    <g id="layer-3">
      <path id="region-3-1" class="cls-1" d="M170.5,30.5C84.2,41,12.7,49.9,11.7,50.1c-1.3,.3,72.6,59.6,238.4,191.6,132.2,105.2,240.4,191.1,240.6,191,.2-.2-119.9-319.1-156.3-415-2.1-5.5-3-6.7-4.7-6.6-1.2,.1-72.8,8.8-159.2,19.4Z"/>
    </g>
  </g>
  <g id="_图层_2" data-name="图层 2">
    <g id="layer-1-2" data-name="layer-1">
      <path id="region-1-1-2" data-name="region-1-1" class="cls-11" d="M500,250v250h500V0H500V250Z"/>
    </g>
    <g id="layer-2-2" data-name="layer-2">
      <path id="region-2-1-2" data-name="region-2-1" class="cls-10" d="M1166,217.5v201.5h160V16h-160V217.5Z"/>
      <path id="region-2-2-2" data-name="region-2-2" class="cls-5" d="M1342,260.5v207.5h155V53h-155v207.5Z"/>
      <path id="region-2-3-2" data-name="region-2-3" class="cls-2" d="M1076.5,148.1c-9.5,.9-14.5,2.3-24.5,7.1-7,3.4-10.1,5.7-17.6,13.2-7.5,7.5-9.9,10.6-13.2,17.6-5.2,10.8-7.3,19.8-7.3,31.5s2.1,20.7,7.3,31.5c3.3,7,5.7,10.1,13.2,17.6,7.5,7.5,10.6,9.9,17.6,13.2,10.8,5.2,19.8,7.3,31.5,7.3s20.7-2.1,31.5-7.3c7-3.3,10.1-5.7,17.6-13.2,7.5-7.5,9.9-10.6,13.2-17.6,5.2-10.8,7.3-19.8,7.3-31.5s-2.1-20.7-7.3-31.5c-3.4-7-5.6-10.1-13.2-17.5-16-15.9-33.9-22.4-56.1-20.4Z"/>
    </g>
    <g id="layer-3-2" data-name="layer-3">
      <path id="region-3-1-2" data-name="region-3-1" class="cls-4" d="M1670.5,29.5c-86.3,10.5-157.8,19.4-158.8,19.6-1.3,.3,72.6,59.6,238.4,191.6,132.2,105.2,240.4,191.1,240.6,191,.2-.2-119.9-319.1-156.3-415-2.1-5.5-3-6.7-4.7-6.6-1.2,.1-72.8,8.8-159.2,19.4Z"/>
    </g>
    <line class="cls-6" x1="1000" x2="1000" y2="500"/>
    <line class="cls-6" x1="1504" y1="0" x2="1504" y2="500"/>
  </g>
</svg>