<?xml version="1.0" standalone="no"?><!DOCTYPE svg PUBLIC "-//W3C//DTD SVG 20010904//EN" "http://www.w3.org/TR/2001/REC-SVG-20010904/DTD/svg10.dtd"><svg version="1.0" xmlns="http://www.w3.org/2000/svg" width="393pt" height="671pt" viewBox="0 0 393 671" preserveAspectRatio="xMidYMid meet"><defs><linearGradient id="linear-gradient-1-1" x1="0.00%" y1="100.00%" x2="11.50%" y2="-118.18%"><stop offset="0%" style="stop-color:rgb(209,211,208);stop-opacity:0.992" /><stop offset="100%" style="stop-color:rgb(187,193,193);stop-opacity:0.992" /></linearGradient><linearGradient id="linear-gradient-1-2" x1="0.00%" y1="100.00%" x2="0.00%" y2="0.00%"><stop offset="0%" style="stop-color:rgb(255,229,13);stop-opacity:0.995" /><stop offset="100%" style="stop-color:rgb(255,22,0);stop-opacity:1.000" /></linearGradient><linearGradient id="linear-gradient-1-3" x1="0.00%" y1="100.00%" x2="100.65%" y2="27.70%"><stop offset="0%" style="stop-color:rgb(236,236,237);stop-opacity:0.992" /><stop offset="100%" style="stop-color:rgb(97,101,105);stop-opacity:0.992" /></linearGradient><linearGradient id="linear-gradient-2-1" x1="0.00%" y1="100.00%" x2="64.45%" y2="-379.26%"><stop offset="0%" style="stop-color:rgb(89,93,91);stop-opacity:0.332" /><stop offset="100%" style="stop-color:rgb(163,166,164);stop-opacity:0.465" /></linearGradient><linearGradient id="linear-gradient-2-2" x1="0.00%" y1="0.00%" x2="77.48%" y2="406.29%"><stop offset="0%" style="stop-color:rgb(1,2,14);stop-opacity:0.000" /><stop offset="100%" style="stop-color:rgb(0,0,0);stop-opacity:0.446" /></linearGradient><linearGradient id="linear-gradient-2-3" x1="0.00%" y1="100.00%" x2="0.00%" y2="-0.00%"><stop offset="0%" style="stop-color:rgb(248,248,249);stop-opacity:0.687" /><stop offset="100%" style="stop-color:rgb(255,255,255);stop-opacity:0.621" /></linearGradient><linearGradient id="linear-gradient-2-4" x1="0.00%" y1="100.00%" x2="100.04%" y2="5.92%"><stop offset="0%" style="stop-color:rgb(0,0,0);stop-opacity:0.352" /><stop offset="100%" style="stop-color:rgb(135,139,139);stop-opacity:0.973" /></linearGradient><linearGradient id="linear-gradient-2-5" x1="0.00%" y1="100.00%" x2="94.00%" y2="-42.71%"><stop offset="0%" style="stop-color:rgb(254,255,225);stop-opacity:0.705" /><stop offset="100%" style="stop-color:rgb(254,255,255);stop-opacity:0.830" /></linearGradient><linearGradient id="linear-gradient-2-6" x1="0.00%" y1="100.00%" x2="101.66%" y2="61.16%"><stop offset="0%" style="stop-color:rgb(254,253,254);stop-opacity:0.803" /><stop offset="100%" style="stop-color:rgb(255,255,255);stop-opacity:0.832" /></linearGradient><linearGradient id="linear-gradient-2-7" x1="0.00%" y1="0.00%" x2="74.35%" y2="149.88%"><stop offset="0%" style="stop-color:rgb(247,211,214);stop-opacity:0.603" /><stop offset="100%" style="stop-color:rgb(255,255,235);stop-opacity:0.546" /></linearGradient><linearGradient id="linear-gradient-2-8" x1="0.00%" y1="100.00%" x2="34.70%" y2="-276.35%"><stop offset="0%" style="stop-color:rgb(0,0,0);stop-opacity:0.266" /><stop offset="100%" style="stop-color:rgb(142,149,150);stop-opacity:0.888" /></linearGradient><linearGradient id="linear-gradient-3-1" x1="0.00%" y1="100.00%" x2="0.16%" y2="-4.28%"><stop offset="0%" style="stop-color:rgb(204,210,209);stop-opacity:0.639" /><stop offset="100%" style="stop-color:rgb(207,213,212);stop-opacity:0.655" /></linearGradient><linearGradient id="linear-gradient-3-2" x1="0.00%" y1="0.00%" x2="67.53%" y2="394.02%"><stop offset="0%" style="stop-color:rgb(54,58,59);stop-opacity:0.663" /><stop offset="100%" style="stop-color:rgb(103,107,108);stop-opacity:0.805" /></linearGradient><linearGradient id="linear-gradient-3-3" x1="0.00%" y1="100.00%" x2="0.00%" y2="0.00%"><stop offset="0%" style="stop-color:rgb(6,133,52);stop-opacity:0.167" /><stop offset="100%" style="stop-color:rgb(40,0,0);stop-opacity:0.181" /></linearGradient><linearGradient id="linear-gradient-3-4" x1="0.00%" y1="100.00%" x2="470.55%" y2="64.54%"><stop offset="0%" style="stop-color:rgb(254,246,153);stop-opacity:0.447" /><stop offset="100%" style="stop-color:rgb(255,238,255);stop-opacity:0.362" /></linearGradient><linearGradient id="linear-gradient-4-1" x1="0.00%" y1="100.00%" x2="0.00%" y2="-0.00%"><stop offset="0%" style="stop-color:rgb(5,8,11);stop-opacity:0.486" /><stop offset="100%" style="stop-color:rgb(0,0,3);stop-opacity:0.516" /></linearGradient><linearGradient id="linear-gradient-4-2" x1="0.00%" y1="100.00%" x2="30.17%" y2="-66.74%"><stop offset="0%" style="stop-color:rgb(242,242,241);stop-opacity:0.755" /><stop offset="100%" style="stop-color:rgb(255,255,255);stop-opacity:0.825" /></linearGradient><linearGradient id="linear-gradient-4-3" x1="0.00%" y1="100.00%" x2="0.00%" y2="0.00%"><stop offset="0%" style="stop-color:rgb(138,141,141);stop-opacity:0.806" /><stop offset="100%" style="stop-color:rgb(145,148,148);stop-opacity:0.779" /></linearGradient><linearGradient id="linear-gradient-4-4" x1="0.00%" y1="100.00%" x2="14.23%" y2="-170.26%"><stop offset="0%" style="stop-color:rgb(251,255,183);stop-opacity:0.557" /><stop offset="100%" style="stop-color:rgb(235,255,71);stop-opacity:0.117" /></linearGradient><linearGradient id="linear-gradient-5-1" x1="0.00%" y1="100.00%" x2="0.00%" y2="-0.00%"><stop offset="0%" style="stop-color:rgb(255,247,132);stop-opacity:0.603" /><stop offset="100%" style="stop-color:rgb(255,241,142);stop-opacity:0.614" /></linearGradient></defs><g id="layer-1"><path d="M1495 6685 c-246 -25 -609 -87 -664 -114 -9 -4 -46 -16 -84 -26 -37 -9 -70 -21 -73 -26 -3 -5 -12 -9 -20 -9 -9 0 -45 -13 -81 -30 -35 -16 -66 -30 -68 -30 -9 0 -142 -87 -164 -107 -13 -13 -28 -23 -32 -23 -5 0 -9 -6 -9 -13 0 -8 -8 -22 -19 -31 -27 -25 -54 -102 -48 -139 7 -50 41 -137 52 -137 6 0 29 -18 50 -41 22 -23 64 -54 93 -71 28 -16 52 -34 52 -39 0 -9 71 -45 200 -103 132 -58 366 -121 565 -151 320 -47 783 -49 1140 -5 239 30 482 75 522 95 15 8 38 15 49 15 37 0 317 96 393 134 40 20 77 36 83 36 16 0 119 78 141 106 10 13 25 24 32 24 16 0 27 60 28 152 1 60 -2 71 -32 115 -43 62 -116 121 -213 171 -87 45 -233 101 -328 127 -36 9 -76 21 -90 25 -52 17 -239 51 -440 80 -220 31 -785 39 -1035 15z" fill="url(#linear-gradient-1-1)" id="region-1-1" transform="translate(0.000000,671.000000) scale(0.100000,-0.100000)"/><path d="M259 5973 c-5 -16 -39 -100 -74 -188 -120 -305 -120 -303 -156 -705 -16 -175 -23 -2383 -10 -2870 14 -484 49 -1046 68 -1059 4 -3 14 -24 22 -46 17 -51 49 -126 61 -145 6 -8 14 -25 20 -38 13 -30 129 -147 214 -217 89 -71 234 -144 361 -179 55 -15 152 -44 215 -63 165 -50 163 -49 300 -77 261 -53 358 -61 740 -60 351 0 462 7 670 44 426 77 729 211 936 415 45 44 98 107 119 140 21 33 43 65 49 70 39 34 50 73 63 210 28 310 34 377 43 555 12 242 12 2318 0 2660 -18 471 -45 904 -62 980 -16 72 -117 363 -157 455 -10 22 -26 62 -36 88 -22 59 -41 69 -69 35 -26 -30 -129 -108 -144 -108 -6 0 -43 -16 -83 -36 -76 -38 -356 -134 -393 -134 -11 0 -34 -7 -49 -15 -40 -20 -283 -65 -522 -95 -357 -44 -820 -42 -1140 5 -199 30 -433 93 -565 151 -129 58 -200 94 -200 103 0 5 -24 23 -52 39 -29 17 -71 48 -93 71 -46 48 -62 51 -76 14z" fill="url(#linear-gradient-1-2)" id="region-1-2" transform="translate(0.000000,671.000000) scale(0.100000,-0.100000)"/><path d="M90 1130 c0 -54 59 -189 119 -270 30 -41 109 -122 166 -170 22 -18 40 -36 41 -39 2 -12 25 -67 36 -86 6 -11 18 -33 27 -50 19 -39 75 -109 126 -158 151 -144 388 -245 725 -308 165 -31 220 -34 660 -34 477 0 500 2 710 50 266 62 473 161 614 294 32 31 90 102 127 159 41 62 87 118 116 141 91 72 187 195 236 304 27 59 2 43 -39 -25 -48 -79 -188 -219 -279 -279 -216 -142 -454 -229 -785 -289 -208 -37 -319 -44 -670 -44 -382 -1 -479 7 -740 60 -137 28 -135 27 -300 77 -63 19 -160 48 -215 63 -127 35 -272 108 -361 179 -85 70 -201 187 -214 217 -6 13 -14 30 -20 38 -13 21 -37 76 -60 140 -13 38 -19 47 -20 30z" fill="url(#linear-gradient-1-3)" id="region-1-3" transform="translate(0.000000,671.000000) scale(0.100000,-0.100000)"/></g><g id="layer-2"><path d="M1540 6630 c-147 -10 -327 -29 -380 -40 -25 -5 -88 -16 -140 -25 -52 -9 -106 -21 -120 -25 -14 -5 -56 -16 -95 -25 -70 -17 -87 -22 -135 -43 -14 -6 -36 -14 -50 -18 -14 -4 -42 -18 -62 -30 -21 -13 -41 -24 -46 -24 -13 0 -98 -82 -111 -107 -38 -74 16 -156 156 -237 8 -4 22 9 38 34 14 23 46 54 71 70 167 106 577 194 960 207 161 5 171 5 178 -13 4 -11 3 -20 -3 -22 -6 -2 -11 -21 -11 -42 0 -110 214 -210 448 -210 121 0 239 20 502 87 298 75 423 118 474 162 18 15 19 14 13 -34 -5 -33 -14 -56 -28 -68 -12 -10 -20 -19 -18 -20 2 -1 20 -10 39 -21 53 -29 110 -87 110 -113 0 -13 2 -23 5 -23 14 0 116 73 138 100 51 60 45 140 -16 198 -32 31 -150 102 -169 102 -5 0 -24 6 -41 14 -51 22 -93 37 -131 47 -20 5 -53 14 -73 19 -39 11 -159 35 -248 51 -88 15 -306 40 -440 49 -148 10 -657 10 -815 0z" fill="url(#linear-gradient-2-1)" id="region-2-1" transform="translate(0.000000,671.000000) scale(0.100000,-0.100000)"/><path d="M1500 6363 c-499 -50 -835 -152 -907 -276 l-21 -35 46 -20 c74 -32 188 -67 302 -95 181 -44 202 -47 510 -87 155 -20 263 -25 550 -25 499 0 875 51 1222 166 102 34 128 50 128 79 0 29 -53 85 -110 116 -19 11 -37 20 -39 21 -2 1 6 10 18 20 14 12 23 35 28 68 6 48 5 49 -13 34 -51 -44 -176 -87 -474 -162 -263 -67 -381 -87 -502 -87 -234 0 -448 100 -448 210 0 21 5 40 11 42 5 2 7 11 4 21 -6 15 -22 17 -139 15 -72 0 -147 -3 -166 -5z" fill="url(#linear-gradient-2-2)" id="region-2-2" transform="translate(0.000000,671.000000) scale(0.100000,-0.100000)"/><path d="M291 6207 c-16 -54 -6 -104 31 -165 26 -43 126 -112 218 -151 41 -18 84 -36 95 -41 46 -21 221 -68 370 -99 167 -36 498 -61 780 -60 342 2 367 14 45 22 -252 6 -397 18 -610 52 -92 14 -117 19 -245 49 -236 55 -455 155 -574 262 -57 51 -81 90 -91 144 l-6 35 -13 -48z" fill="url(#linear-gradient-2-3)" id="region-2-3" transform="translate(0.000000,671.000000) scale(0.100000,-0.100000)"/><path d="M478 5854 c9 -18 51 -40 202 -107 131 -59 366 -122 565 -152 336 -50 785 -50 1180 1 146 18 399 61 440 74 35 12 -82 6 -210 -10 -286 -35 -1020 -47 -1255 -22 -190 21 -349 46 -455 71 -246 59 -318 84 -468 159 -5 2 -4 -4 1 -14z" fill="url(#linear-gradient-2-4)" id="region-2-4" transform="translate(0.000000,671.000000) scale(0.100000,-0.100000)"/><path d="M150 5362 c0 -17 126 -146 172 -176 71 -46 192 -78 278 -74 l61 3 -255 125 c-141 69 -256 124 -256 122z" fill="url(#linear-gradient-2-5)" id="region-2-5" transform="translate(0.000000,671.000000) scale(0.100000,-0.100000)"/><path d="M1050 5020 c0 -15 35 -30 69 -30 38 0 40 13 6 28 -31 14 -75 16 -75 2z" fill="url(#linear-gradient-2-6)" id="region-2-6" transform="translate(0.000000,671.000000) scale(0.100000,-0.100000)"/><path d="M3891 3818 c-39 -328 -118 -523 -285 -696 -202 -210 -487 -334 -936 -406 -88 -14 -161 -24 -445 -61 -60 -8 -148 -19 -195 -25 -227 -30 -502 -91 -685 -153 -338 -115 -698 -348 -943 -610 -106 -113 -219 -265 -268 -361 -22 -42 -45 -76 -51 -76 -26 0 -5 -234 26 -296 11 -22 23 -52 26 -67 4 -15 11 -27 15 -27 4 0 10 -14 14 -31 11 -54 170 -233 286 -321 44 -33 125 -78 141 -78 14 0 9 49 -20 204 -33 182 -26 426 20 609 52 209 116 331 241 463 141 149 299 227 573 286 39 9 138 13 285 13 224 -1 277 -6 520 -50 486 -89 871 -113 1176 -75 208 26 394 100 477 189 l47 50 0 811 c0 445 -2 810 -3 810 -2 0 -9 -46 -16 -102z" fill="url(#linear-gradient-2-7)" id="region-2-7" transform="translate(0.000000,671.000000) scale(0.100000,-0.100000)"/><path d="M90 1130 c0 -54 58 -188 119 -270 47 -65 165 -172 256 -233 49 -33 92 -63 95 -67 17 -23 147 -112 210 -142 170 -82 438 -152 660 -173 148 -13 195 -16 405 -21 341 -10 718 29 1024 106 204 52 302 86 452 159 99 49 119 55 124 42 5 -12 15 -2 39 36 18 28 55 69 82 91 92 73 187 195 237 305 27 59 2 43 -39 -25 -48 -79 -188 -219 -279 -279 -216 -142 -454 -229 -785 -289 -208 -37 -319 -44 -670 -44 -382 -1 -479 7 -740 60 -137 28 -135 27 -300 77 -63 19 -160 48 -215 63 -127 35 -272 108 -361 179 -85 70 -201 187 -214 217 -6 13 -14 30 -20 38 -13 21 -37 76 -60 140 -13 38 -19 47 -20 30z" fill="url(#linear-gradient-2-8)" id="region-2-8" transform="translate(0.000000,671.000000) scale(0.100000,-0.100000)"/></g><g id="layer-3"><path d="M2101 6445 c-151 -51 -282 -99 -293 -106 -12 -9 -18 -26 -18 -51 0 -79 129 -165 291 -193 177 -31 307 -17 659 72 300 76 454 129 476 164 19 32 -123 101 -310 150 -156 40 -292 59 -421 58 l-110 -1 -274 -93z" fill="url(#linear-gradient-3-1)" id="region-3-1" transform="translate(0.000000,671.000000) scale(0.100000,-0.100000)"/><path d="M3217 6332 c-24 -36 -175 -89 -477 -165 -174 -44 -268 -64 -357 -77 -227 -32 -457 18 -555 121 -32 33 -38 47 -38 82 0 38 -1 40 -16 25 -9 -9 -18 -36 -21 -59 -12 -114 108 -216 297 -251 85 -16 357 -4 470 20 280 61 562 142 657 189 27 13 39 27 46 52 10 40 6 82 -6 63z" fill="url(#linear-gradient-3-2)" id="region-3-2" transform="translate(0.000000,671.000000) scale(0.100000,-0.100000)"/><path d="M3574 5977 c-23 -29 -126 -107 -142 -107 -6 0 -43 -16 -82 -36 -78 -39 -313 -119 -394 -135 -28 -5 -54 -13 -58 -17 -13 -13 20 -136 59 -229 7 -17 13 -42 13 -56 0 -14 5 -29 10 -32 6 -3 10 -19 10 -35 0 -16 4 -31 9 -34 4 -3 12 -34 15 -68 4 -35 11 -67 16 -73 10 -13 30 -197 30 -285 0 -39 4 -70 9 -70 4 0 11 -35 14 -77 3 -43 15 -181 26 -308 55 -618 73 -1259 47 -1585 -8 -96 -20 -245 -26 -330 -32 -425 -108 -768 -226 -1027 -18 -41 -34 -79 -34 -84 0 -5 -20 -42 -44 -83 -215 -363 -574 -615 -1041 -729 -204 -51 -356 -68 -660 -76 l-240 -6 105 -33 c150 -47 152 -48 290 -76 261 -53 358 -61 740 -60 351 0 462 7 670 44 426 77 729 211 936 415 45 44 98 107 119 140 21 33 43 65 49 70 39 34 50 73 63 210 28 310 34 377 43 555 12 242 12 2318 0 2660 -18 471 -45 904 -62 980 -14 64 -120 373 -149 435 -5 11 -22 52 -37 90 -31 77 -50 89 -78 52z" fill="url(#linear-gradient-3-3)" id="region-3-3" transform="translate(0.000000,671.000000) scale(0.100000,-0.100000)"/><path d="M206 5000 c-6 -324 -13 -2783 -8 -3200 4 -306 19 -765 28 -850 6 -54 7 -56 110 -157 57 -56 113 -107 124 -113 l20 -11 0 1678 c0 923 3 1924 7 2224 l6 547 -59 17 c-65 19 -153 72 -194 119 l-28 30 -6 -284z" fill="url(#linear-gradient-3-4)" id="region-3-4" transform="translate(0.000000,671.000000) scale(0.100000,-0.100000)"/></g><g id="layer-4"><path d="M2340 6410 c-58 -16 -163 -44 -233 -61 -123 -31 -128 -33 -125 -57 5 -38 29 -48 85 -36 74 17 252 63 308 80 110 34 228 26 432 -32 47 -13 56 -13 93 2 22 9 39 22 37 28 -12 38 -228 95 -382 101 -99 4 -120 2 -215 -25z" fill="url(#linear-gradient-4-1)" id="region-4-1" transform="translate(0.000000,671.000000) scale(0.100000,-0.100000)"/><path d="M1868 6344 c-41 -18 -53 -40 -39 -75 27 -72 145 -134 291 -153 35 -5 26 0 -41 22 -173 57 -232 122 -174 190 30 36 20 39 -37 16z" fill="url(#linear-gradient-4-2)" id="region-4-2" transform="translate(0.000000,671.000000) scale(0.100000,-0.100000)"/><path d="M2405 6343 c-27 -8 -77 -21 -110 -29 -33 -7 -108 -27 -167 -42 l-107 -28 67 -23 c84 -29 237 -38 354 -22 72 11 348 72 387 86 24 9 8 14 -130 45 -147 33 -218 36 -294 13z" fill="url(#linear-gradient-4-3)" id="region-4-3" transform="translate(0.000000,671.000000) scale(0.100000,-0.100000)"/><path d="M259 5973 c-5 -16 -39 -100 -74 -188 -64 -163 -97 -256 -109 -311 -7 -30 -4 -33 56 -71 81 -51 390 -203 412 -203 9 0 83 -23 164 -51 579 -199 1199 -233 1862 -103 174 34 525 129 605 163 11 5 43 17 70 26 28 10 55 21 60 25 6 4 64 32 130 61 204 89 360 173 363 196 2 11 -11 58 -29 104 -17 46 -40 109 -51 139 -11 30 -28 73 -37 95 -10 22 -26 62 -36 88 -22 59 -41 69 -69 35 -26 -30 -129 -108 -144 -108 -6 0 -43 -16 -83 -36 -76 -38 -356 -134 -393 -134 -11 0 -34 -7 -49 -15 -40 -20 -283 -65 -522 -95 -357 -44 -820 -42 -1140 5 -199 30 -433 93 -565 151 -129 58 -200 94 -200 103 0 5 -24 23 -52 39 -29 17 -71 48 -93 71 -46 48 -62 51 -76 14z" fill="url(#linear-gradient-4-4)" id="region-4-4" transform="translate(0.000000,671.000000) scale(0.100000,-0.100000)"/></g><g id="layer-5"><path d="M352 5638 c-35 -95 -74 -201 -87 -235 l-23 -61 134 -68 c74 -37 136 -65 138 -63 3 4 151 432 162 469 4 11 -30 30 -123 73 -70 31 -130 57 -133 57 -3 0 -34 -78 -68 -172z" fill="url(#linear-gradient-5-1)" id="region-5-1" transform="translate(0.000000,671.000000) scale(0.100000,-0.100000)"/></g></svg>