<?xml version="1.0" encoding="utf-8"?>
<!-- Generator: Adobe Illustrator 26.5.0, SVG Export Plug-In . SVG Version: 6.00 Build 0)  -->
<svg version="1.1" id="图层_1" xmlns="http://www.w3.org/2000/svg" xmlns:xlink="http://www.w3.org/1999/xlink" x="0px" y="0px"
	 viewBox="0 0 2358 671" style="enable-background:new 0 0 2358 671;" xml:space="preserve">
<style type="text/css">
	.st0{fill:none;}
	.st1{fill:#D3D3D3;}
	.st2{fill:url(#SVGID_00000072249540119765746800000010475720126141651082_);}
	.st3{fill:none;stroke:#000000;stroke-width:3;stroke-miterlimit:10;}
	.st4{fill:url(#region-1-1_00000072262287311482728700000011753001331579661449_);}
	.st5{fill:url(#region-1-2_00000088122268829994017890000014669872996920979613_);}
	.st6{fill:url(#region-1-3_00000106866521593341506290000003972844198723853746_);}
	.st7{fill:url(#region-2-1_00000107570800808019639140000008010763142566293433_);}
	.st8{fill:url(#region-2-2_00000116209888901448172310000016020217911439848607_);}
	.st9{fill:url(#region-2-3_00000143590514490225983670000008054002944799300515_);}
	.st10{fill:url(#region-2-4_00000171681716894920996920000015684329582686431650_);}
	.st11{fill:url(#region-2-5_00000165228692358250224560000011419071399338099111_);}
	.st12{fill:url(#region-2-6_00000034051674445425604150000007847773790563841164_);}
	.st13{fill:url(#region-2-7_00000124857408219280991340000016821757623158190765_);}
	.st14{fill:url(#region-2-8_00000145777342402881300890000003364493429420939907_);}
	.st15{fill:url(#region-3-1_00000101801974284282952910000010231579513442287520_);}
	.st16{fill:url(#region-3-2_00000045599511552966933420000017372752044138102659_);}
	.st17{fill:url(#region-3-3_00000109016701771523506340000008831669999030535564_);}
	.st18{fill:url(#region-3-4_00000100362571591428608450000006524570676669039529_);}
	.st19{fill:url(#region-4-1_00000028287850777691125420000012283360456841727381_);}
	.st20{fill:url(#region-4-2_00000139263436608038427090000015095799027713939379_);}
	.st21{fill:url(#region-4-3_00000096751195131983386400000011946684022339883959_);}
	.st22{fill:url(#region-4-4_00000069375219840155654720000016020537003247910571_);}
	.st23{fill:url(#region-5-1_00000066482651036805541950000007501874968936722309_);}
	.st24{fill:url(#region-1-1_00000181050736324223098090000015947543153455108740_);}
	.st25{fill:url(#region-1-2_00000014629056889868924350000012652531835675902627_);}
	.st26{fill:url(#region-1-3_00000147181438616059560980000009548053567043138987_);}
	
		.st27{fill:url(#region-2-1_00000023975187928694522560000015214570015314977951_);stroke:#000000;stroke-width:2;stroke-miterlimit:10;}
	
		.st28{fill:url(#region-2-2_00000093176616861903746280000001163311328361651616_);stroke:#000000;stroke-width:2;stroke-miterlimit:10;}
	
		.st29{fill:url(#region-2-3_00000025411756577805098900000011620602598291979686_);stroke:#000000;stroke-width:2;stroke-miterlimit:10;}
	
		.st30{fill:url(#region-2-4_00000062874827178148257080000018237508341753758877_);stroke:#000000;stroke-width:2;stroke-miterlimit:10;}
	
		.st31{fill:url(#region-2-5_00000080921299143124419000000003964863592964095373_);stroke:#000000;stroke-width:2;stroke-miterlimit:10;}
	
		.st32{fill:url(#region-2-6_00000092447207065940240270000010027952187692901301_);stroke:#000000;stroke-width:2;stroke-miterlimit:10;}
	
		.st33{fill:url(#region-2-7_00000005249994501263535190000002083824271263604369_);stroke:#000000;stroke-width:2;stroke-miterlimit:10;}
	
		.st34{fill:url(#region-2-8_00000032636178587493566960000011462843820097445534_);stroke:#000000;stroke-width:2;stroke-miterlimit:10;}
	
		.st35{fill:url(#region-3-1_00000123429325567598107120000014821801696612367232_);stroke:#000000;stroke-width:2;stroke-miterlimit:10;}
	
		.st36{fill:url(#region-3-2_00000177470311447981089580000017797574759995514804_);stroke:#000000;stroke-width:2;stroke-miterlimit:10;}
	
		.st37{fill:url(#region-3-3_00000061446472589861278320000000761574884415829417_);stroke:#000000;stroke-width:2;stroke-miterlimit:10;}
	
		.st38{fill:url(#region-3-4_00000005250839800349481000000001667494495957296040_);stroke:#000000;stroke-width:2;stroke-miterlimit:10;}
	
		.st39{fill:url(#region-4-1_00000075133866409980234000000004666956244270626182_);stroke:#000000;stroke-width:2;stroke-miterlimit:10;}
	
		.st40{fill:url(#region-4-2_00000075163305504966721380000000836203510842987653_);stroke:#000000;stroke-width:2;stroke-miterlimit:10;}
	
		.st41{fill:url(#region-4-3_00000151545500038393661640000001174638865130970779_);stroke:#000000;stroke-width:2;stroke-miterlimit:10;}
	
		.st42{fill:url(#region-4-4_00000026854583970060719800000017960798733985568915_);stroke:#000000;stroke-width:2;stroke-miterlimit:10;}
	
		.st43{fill:url(#region-5-1_00000101807623398488627840000005765223599600892814_);stroke:#000000;stroke-width:2;stroke-miterlimit:10;}
</style>
<pattern  y="671" width="40" height="40" patternUnits="userSpaceOnUse" id="SVGID_1_" viewBox="0 -40 40 40" style="overflow:visible;">
	<g>
		<rect y="-40" class="st0" width="40" height="40"/>
		<g>
			<rect y="-40" class="st0" width="40" height="40"/>
			<rect y="-40" class="st0" width="40" height="40"/>
			<rect y="-20" class="st1" width="20" height="20"/>
			<rect x="20" y="-40" class="st1" width="20" height="20"/>
		</g>
	</g>
</pattern>
<g id="图层_3">
	
		<pattern  id="SVGID_00000146463731999771170150000018262870560058052026_" xlink:href="#SVGID_1_" patternTransform="matrix(1 0 0 -1 990.5 -17417.2402)">
	</pattern>
	
		<rect x="389.8" y="1.1" style="fill:url(#SVGID_00000146463731999771170150000018262870560058052026_);" width="1968.2" height="669.9"/>
	<line class="st3" x1="393" y1="1.1" x2="393" y2="671"/>
	<line class="st3" x1="786" y1="1.1" x2="786" y2="671"/>
</g>
<g id="图层_1_00000164481071777140434140000013955490615015416200_">
	<g id="layer-1">
		
			<linearGradient id="region-1-1_00000003066702298582631950000018421902754605703358_" gradientUnits="userSpaceOnUse" x1="-648.1168" y1="-79.8784" x2="-648.0018" y2="-82.0604" gradientTransform="matrix(340.1002 0 0 -114.0692 220607.8906 -9113.2637)">
			<stop  offset="0" style="stop-color:#D1D3D0;stop-opacity:0.992"/>
			<stop  offset="1" style="stop-color:#BBC1C1;stop-opacity:0.992"/>
		</linearGradient>
		<path id="region-1-1" style="fill:url(#region-1-1_00000003066702298582631950000018421902754605703358_);" d="M148.3,2.7
			c-24.6,2.5-60.9,8.7-66.4,11.4c-0.9,0.4-4.6,1.6-8.4,2.6c-3.7,0.9-7,2.1-7.3,2.6s-1.2,0.9-2,0.9c-0.9,0-4.5,1.3-8.1,3
			c-3.5,1.6-6.6,3-6.8,3c-0.9,0-14.2,8.7-16.4,10.7c-1.3,1.3-2.8,2.3-3.2,2.3c-0.5,0-0.9,0.6-0.9,1.3c0,0.8-0.8,2.2-1.9,3.1
			c-2.7,2.5-5.4,10.2-4.8,13.9c0.7,5,4.1,13.7,5.2,13.7c0.6,0,2.9,1.8,5,4.1c2.2,2.3,6.4,5.4,9.3,7.1c2.8,1.6,5.2,3.4,5.2,3.9
			c0,0.9,7.1,4.5,20,10.3c13.2,5.8,36.6,12.1,56.5,15.1c32,4.7,78.3,4.9,114,0.5c23.9-3,48.2-7.5,52.2-9.5c1.5-0.8,3.8-1.5,4.9-1.5
			c3.7,0,31.7-9.6,39.3-13.4c4-2,7.7-3.6,8.3-3.6c1.6,0,11.9-7.8,14.1-10.6c1-1.3,2.5-2.4,3.2-2.4c1.6,0,2.7-6,2.8-15.2
			c0.1-6-0.2-7.1-3.2-11.5c-4.3-6.2-11.6-12.1-21.3-17.1c-8.7-4.5-23.3-10.1-32.8-12.7c-3.6-0.9-7.6-2.1-9-2.5
			c-5.2-1.7-23.9-5.1-44-8C229.8,1.1,173.3,0.3,148.3,2.7z"/>
		
			<linearGradient id="region-1-2_00000063607791972522625640000011483998100769457028_" gradientUnits="userSpaceOnUse" x1="-648.3337" y1="-77.584" x2="-648.3337" y2="-78.584" gradientTransform="matrix(389.6777 0 0 -567.2272 252836.0625 -43936.3711)">
			<stop  offset="0" style="stop-color:#FFE50D;stop-opacity:0.995"/>
			<stop  offset="1" style="stop-color:#FF1600"/>
		</linearGradient>
		<path id="region-1-2" style="fill:url(#region-1-2_00000063607791972522625640000011483998100769457028_);" d="M24.7,73.9
			c-0.5,1.6-3.9,10-7.4,18.8c-12,30.5-12,30.3-15.6,70.5c-1.6,17.5-2.3,238.3-1,287c1.4,48.4,4.9,104.6,6.8,105.9
			c0.4,0.3,1.4,2.4,2.2,4.6c1.7,5.1,4.9,12.6,6.1,14.5c0.6,0.8,1.4,2.5,2,3.8c1.3,3,12.9,14.7,21.4,21.7
			c8.9,7.1,23.4,14.4,36.1,17.9c5.5,1.5,15.2,4.4,21.5,6.3c16.5,5,16.3,4.9,30,7.7c26.1,5.3,35.8,6.1,74,6c35.1,0,46.2-0.7,67-4.4
			c42.6-7.7,72.9-21.1,93.6-41.5c4.5-4.4,9.8-10.7,11.9-14s4.3-6.5,4.9-7c3.9-3.4,5-7.3,6.3-21c2.8-31,3.4-37.7,4.3-55.5
			c1.2-24.2,1.2-231.8,0-266c-1.8-47.1-4.5-90.4-6.2-98c-1.6-7.2-11.7-36.3-15.7-45.5c-1-2.2-2.6-6.2-3.6-8.8
			c-2.2-5.9-4.1-6.9-6.9-3.5c-2.6,3-12.9,10.8-14.4,10.8c-0.6,0-4.3,1.6-8.3,3.6c-7.6,3.8-35.6,13.4-39.3,13.4
			c-1.1,0-3.4,0.7-4.9,1.5c-4,2-28.3,6.5-52.2,9.5c-35.7,4.4-82,4.2-114-0.5c-19.9-3-43.3-9.3-56.5-15.1c-12.9-5.8-20-9.4-20-10.3
			c0-0.5-2.4-2.3-5.2-3.9c-2.9-1.7-7.1-4.8-9.3-7.1C27.7,70.5,26.1,70.2,24.7,73.9z"/>
		
			<linearGradient id="region-1-3_00000042737718173012757900000015480936964293898663_" gradientUnits="userSpaceOnUse" x1="-648.7839" y1="-79.9944" x2="-647.7773" y2="-80.7174" gradientTransform="matrix(371.4249 0 0 -112.3234 240970.4062 -8422.7686)">
			<stop  offset="0" style="stop-color:#ECECED;stop-opacity:0.992"/>
			<stop  offset="1" style="stop-color:#616569;stop-opacity:0.992"/>
		</linearGradient>
		<path id="region-1-3" style="fill:url(#region-1-3_00000042737718173012757900000015480936964293898663_);" d="M7.8,558.2
			c0,5.4,5.9,18.9,11.9,27c3,4.1,10.9,12.2,16.6,17c2.2,1.8,4,3.6,4.1,3.9c0.2,1.2,2.5,6.7,3.6,8.6c0.6,1.1,1.8,3.3,2.7,5
			c1.9,3.9,7.5,10.9,12.6,15.8c15.1,14.4,38.8,24.5,72.5,30.8c16.5,3.1,22,3.4,66,3.4c47.7,0,50-0.2,71-5
			c26.6-6.2,47.3-16.1,61.4-29.4c3.2-3.1,9-10.2,12.7-15.9c4.1-6.2,8.7-11.8,11.6-14.1c9.1-7.2,18.7-19.5,23.6-30.4
			c2.7-5.9,0.2-4.3-3.9,2.5c-4.8,7.9-18.8,21.9-27.9,27.9c-21.6,14.2-45.4,22.9-78.5,28.9c-20.8,3.7-31.9,4.4-67,4.4
			c-38.2,0.1-47.9-0.7-74-6c-13.7-2.8-13.5-2.7-30-7.7c-6.3-1.9-16-4.8-21.5-6.3c-12.7-3.5-27.2-10.8-36.1-17.9
			c-8.5-7-20.1-18.7-21.4-21.7c-0.6-1.3-1.4-3-2-3.8c-1.3-2.1-3.7-7.6-6-14C8.5,557.4,7.9,556.5,7.8,558.2z"/>
	</g>
	<g id="layer-2">
		
			<linearGradient id="region-2-1_00000182528750059667180530000014864728853635866013_" gradientUnits="userSpaceOnUse" x1="-648.0146" y1="-82.5833" x2="-647.3701" y2="-87.3759" gradientTransform="matrix(311.823 0 0 -58.75 202229.2812 -4847.5)">
			<stop  offset="0" style="stop-color:#595D5B;stop-opacity:0.332"/>
			<stop  offset="1" style="stop-color:#A3A6A4;stop-opacity:0.465"/>
		</linearGradient>
		<path id="region-2-1" style="fill:url(#region-2-1_00000182528750059667180530000014864728853635866013_);" d="M152.8,8.2
			c-14.7,1-32.7,2.9-38,4c-2.5,0.5-8.8,1.6-14,2.5s-10.6,2.1-12,2.5c-1.4,0.5-5.6,1.6-9.5,2.5c-7,1.7-8.7,2.2-13.5,4.3
			c-1.4,0.6-3.6,1.4-5,1.8s-4.2,1.8-6.2,3c-2.1,1.3-4.1,2.4-4.6,2.4c-1.3,0-9.8,8.2-11.1,10.7c-3.8,7.4,1.6,15.6,15.6,23.7
			c0.8,0.4,2.2-0.9,3.8-3.4c1.4-2.3,4.6-5.4,7.1-7c16.7-10.6,57.7-19.4,96-20.7c16.1-0.5,17.1-0.5,17.8,1.3c0.4,1.1,0.3,2-0.3,2.2
			s-1.1,2.1-1.1,4.2c0,11,21.4,21,44.8,21c12.1,0,23.9-2,50.2-8.7c29.8-7.5,42.3-11.8,47.4-16.2c1.8-1.5,1.9-1.4,1.3,3.4
			c-0.5,3.3-1.4,5.6-2.8,6.8c-1.2,1-2,1.9-1.8,2s2,1,3.9,2.1c5.3,2.9,11,8.7,11,11.3c0,1.3,0.2,2.3,0.5,2.3c1.4,0,11.6-7.3,13.8-10
			c5.1-6,4.5-14-1.6-19.8c-3.2-3.1-15-10.2-16.9-10.2c-0.5,0-2.4-0.6-4.1-1.4c-5.1-2.2-9.3-3.7-13.1-4.7c-2-0.5-5.3-1.4-7.3-1.9
			c-3.9-1.1-15.9-3.5-24.8-5.1c-8.8-1.5-30.6-4-44-4.9C219.5,7.2,168.6,7.2,152.8,8.2z"/>
		
			<linearGradient id="region-2-2_00000008856264762828039200000005106402699388055199_" gradientUnits="userSpaceOnUse" x1="-647.744" y1="-84.1689" x2="-646.9692" y2="-80.1059" gradientTransform="matrix(275.8 0 0 -54.3648 178814.5938 -4482.9526)">
			<stop  offset="0" style="stop-color:#01020E;stop-opacity:0"/>
			<stop  offset="1" style="stop-color:#000000;stop-opacity:0.446"/>
		</linearGradient>
		<path id="region-2-2" style="fill:url(#region-2-2_00000008856264762828039200000005106402699388055199_);" d="M148.8,34.9
			c-49.9,5-83.5,15.2-90.7,27.6L56,66l4.6,2c7.4,3.2,18.8,6.7,30.2,9.5c18.1,4.4,20.2,4.7,51,8.7c15.5,2,26.3,2.5,55,2.5
			c49.9,0,87.5-5.1,122.2-16.6c10.2-3.4,12.8-5,12.8-7.9s-5.3-8.5-11-11.6c-1.9-1.1-3.7-2-3.9-2.1c-0.2-0.1,0.6-1,1.8-2
			c1.4-1.2,2.3-3.5,2.8-6.8c0.6-4.8,0.5-4.9-1.3-3.4c-5.1,4.4-17.6,8.7-47.4,16.2c-26.3,6.7-38.1,8.7-50.2,8.7
			c-23.4,0-44.8-10-44.8-21c0-2.1,0.5-4,1.1-4.2c0.5-0.2,0.7-1.1,0.4-2.1c-0.6-1.5-2.2-1.7-13.9-1.5
			C158.2,34.4,150.7,34.7,148.8,34.9z"/>
		
			<linearGradient id="region-2-3_00000087414814303852079230000016830517002675320716_" gradientUnits="userSpaceOnUse" x1="-646.339" y1="-82.8725" x2="-646.339" y2="-83.8725" gradientTransform="matrix(177.3547 0 0 -56.4029 114747.1094 -4628.5479)">
			<stop  offset="0" style="stop-color:#F8F8F9;stop-opacity:0.687"/>
			<stop  offset="1" style="stop-color:#FFFFFF;stop-opacity:0.621"/>
		</linearGradient>
		<path id="region-2-3" style="fill:url(#region-2-3_00000087414814303852079230000016830517002675320716_);" d="M27.9,50.5
			C26.3,55.9,27.3,60.9,31,67c2.6,4.3,12.6,11.2,21.8,15.1c4.1,1.8,8.4,3.6,9.5,4.1c4.6,2.1,22.1,6.8,37,9.9c16.7,3.6,49.8,6.1,78,6
			c34.2-0.2,36.7-1.4,4.5-2.2c-25.2-0.6-39.7-1.8-61-5.2c-9.2-1.4-11.7-1.9-24.5-4.9c-23.6-5.5-45.5-15.5-57.4-26.2
			c-5.7-5.1-8.1-9-9.1-14.4l-0.6-3.5L27.9,50.5z"/>
		
			<linearGradient id="region-2-4_00000181074129671295609980000012242908814752238269_" gradientUnits="userSpaceOnUse" x1="-647.8569" y1="-87.7271" x2="-646.8565" y2="-88.6679" gradientTransform="matrix(239.7566 0 0 -31.0759 155358.5469 -2639.665)">
			<stop  offset="0" style="stop-color:#000000;stop-opacity:0.352"/>
			<stop  offset="1" style="stop-color:#878B8B;stop-opacity:0.973"/>
		</linearGradient>
		<path id="region-2-4" style="fill:url(#region-2-4_00000181074129671295609980000012242908814752238269_);" d="M46.6,85.8
			c0.9,1.8,5.1,4,20.2,10.7c13.1,5.9,36.6,12.2,56.5,15.2c33.6,5,78.5,5,118-0.1c14.6-1.8,39.9-6.1,44-7.4c3.5-1.2-8.2-0.6-21,1
			c-28.6,3.5-102,4.7-125.5,2.2c-19-2.1-34.9-4.6-45.5-7.1c-24.6-5.9-31.8-8.4-46.8-15.9C46,84.2,46.1,84.8,46.6,85.8z"/>
		
			<linearGradient id="region-2-5_00000000920048058560658160000011735016386803110275_" gradientUnits="userSpaceOnUse" x1="-637.7158" y1="-90.1768" x2="-636.7758" y2="-91.6039" gradientTransform="matrix(51.1 0 0 -25.039 32605.0469 -2124.2202)">
			<stop  offset="0" style="stop-color:#FEFFE1;stop-opacity:0.705"/>
			<stop  offset="1" style="stop-color:#FEFFFF;stop-opacity:0.83"/>
		</linearGradient>
		<path id="region-2-5" style="fill:url(#region-2-5_00000000920048058560658160000011735016386803110275_);" d="M13.8,135
			c0,1.7,12.6,14.6,17.2,17.6c7.1,4.6,19.2,7.8,27.8,7.4l6.1-0.3l-25.5-12.5C25.3,140.3,13.8,134.8,13.8,135z"/>
		
			<linearGradient id="region-2-6_00000055693231277391497110000017953843285886038451_" gradientUnits="userSpaceOnUse" x1="-585.0821" y1="-161.0228" x2="-584.0655" y2="-161.4112" gradientTransform="matrix(9.9083 0 0 -3.9553 5899.8413 -467.5328)">
			<stop  offset="0" style="stop-color:#FEFDFE;stop-opacity:0.803"/>
			<stop  offset="1" style="stop-color:#FFFFFF;stop-opacity:0.832"/>
		</linearGradient>
		<path id="region-2-6" style="fill:url(#region-2-6_00000055693231277391497110000017953843285886038451_);" d="M103.8,169.2
			c0,1.5,3.5,3,6.9,3c3.8,0,4-1.3,0.6-2.8C108.2,168,103.8,167.8,103.8,169.2z"/>
		
			<linearGradient id="region-2-7_00000042734297641340333620000017528390321335464895_" gradientUnits="userSpaceOnUse" x1="-648.5573" y1="-79.1253" x2="-647.8138" y2="-77.6265" gradientTransform="matrix(383.8736 0 0 -331 249066.4062 -25539)">
			<stop  offset="0" style="stop-color:#F7D3D6;stop-opacity:0.603"/>
			<stop  offset="1" style="stop-color:#FFFFEB;stop-opacity:0.546"/>
		</linearGradient>
		<path id="region-2-7" style="fill:url(#region-2-7_00000042734297641340333620000017528390321335464895_);" d="M387.9,289.4
			c-3.9,32.8-11.8,52.3-28.5,69.6c-20.2,21-48.7,33.4-93.6,40.6c-8.8,1.4-16.1,2.4-44.5,6.1c-6,0.8-14.8,1.9-19.5,2.5
			c-22.7,3-50.2,9.1-68.5,15.3c-33.8,11.5-69.8,34.8-94.3,61c-10.6,11.3-21.9,26.5-26.8,36.1c-2.2,4.2-4.5,7.6-5.1,7.6
			c-2.6,0-0.5,23.4,2.6,29.6c1.1,2.2,2.3,5.2,2.6,6.7c0.4,1.5,1.1,2.7,1.5,2.7s1,1.4,1.4,3.1c1.1,5.4,17,23.3,28.6,32.1
			c4.4,3.3,12.5,7.8,14.1,7.8c1.4,0,0.9-4.9-2-20.4c-3.3-18.2-2.6-42.6,2-60.9c5.2-20.9,11.6-33.1,24.1-46.3
			c14.1-14.9,29.9-22.7,57.3-28.6c3.9-0.9,13.8-1.3,28.5-1.3c22.4,0.1,27.7,0.6,52,5c48.6,8.9,87.1,11.3,117.6,7.5
			c20.8-2.6,39.4-10,47.7-18.9l4.7-5v-81.1c0-44.5-0.2-81-0.3-81C389.3,279.2,388.6,283.8,387.9,289.4z"/>
		
			<linearGradient id="region-2-8_00000041999236573657515120000010841208729590867886_" gradientUnits="userSpaceOnUse" x1="-648.265" y1="-80.5718" x2="-647.918" y2="-84.3353" gradientTransform="matrix(371.4249 0 0 -91.5777 240970.4062 -6825.3096)">
			<stop  offset="0" style="stop-color:#000000;stop-opacity:0.266"/>
			<stop  offset="1" style="stop-color:#8E9596;stop-opacity:0.888"/>
		</linearGradient>
		<path id="region-2-8" style="fill:url(#region-2-8_00000041999236573657515120000010841208729590867886_);" d="M7.8,558.2
			c0,5.4,5.8,18.8,11.9,27c4.7,6.5,16.5,17.2,25.6,23.3c4.9,3.3,9.2,6.3,9.5,6.7c1.7,2.3,14.7,11.2,21,14.2
			c17,8.2,43.8,15.2,66,17.3c14.8,1.3,19.5,1.6,40.5,2.1c34.1,1,71.8-2.9,102.4-10.6c20.4-5.2,30.2-8.6,45.2-15.9
			c9.9-4.9,11.9-5.5,12.4-4.2c0.5,1.2,1.5,0.2,3.9-3.6c1.8-2.8,5.5-6.9,8.2-9.1c9.2-7.3,18.7-19.5,23.7-30.5
			c2.7-5.9,0.2-4.3-3.9,2.5c-4.8,7.9-18.8,21.9-27.9,27.9c-21.6,14.2-45.4,22.9-78.5,28.9c-20.8,3.7-31.9,4.4-67,4.4
			c-38.2,0.1-47.9-0.7-74-6c-13.7-2.8-13.5-2.7-30-7.7c-6.3-1.9-16-4.8-21.5-6.3c-12.7-3.5-27.2-10.8-36.1-17.9
			c-8.5-7-20.1-18.7-21.4-21.7c-0.6-1.3-1.4-3-2-3.8c-1.3-2.1-3.7-7.6-6-14C8.5,557.4,7.9,556.5,7.8,558.2z"/>
	</g>
	<g id="layer-3">
		
			<linearGradient id="region-3-1_00000111906470659056357970000010982381741880541840_" gradientUnits="userSpaceOnUse" x1="-645.4528" y1="-84.2156" x2="-645.4512" y2="-85.2584" gradientTransform="matrix(142.7706 0 0 -45.9001 92400.7656 -3848.208)">
			<stop  offset="0" style="stop-color:#CCD2D1;stop-opacity:0.639"/>
			<stop  offset="1" style="stop-color:#CFD5D4;stop-opacity:0.655"/>
		</linearGradient>
		<path id="region-3-1" style="fill:url(#region-3-1_00000111906470659056357970000010982381741880541840_);" d="M208.9,26.7
			c-15.1,5.1-28.2,9.9-29.3,10.6c-1.2,0.9-1.8,2.6-1.8,5.1c0,7.9,12.9,16.5,29.1,19.3c17.7,3.1,30.7,1.7,65.9-7.2
			c30-7.6,45.4-12.9,47.6-16.4c1.9-3.2-12.3-10.1-31-15c-15.6-4-29.2-5.9-42.1-5.8l-11,0.1L208.9,26.7z"/>
		
			<linearGradient id="region-3-2_00000031178136965833961240000000898478385726894989_" gradientUnits="userSpaceOnUse" x1="-645.754" y1="-87.9171" x2="-645.0787" y2="-83.9769" gradientTransform="matrix(147.6492 0 0 -33.5996 95570.5312 -2880.8479)">
			<stop  offset="0" style="stop-color:#363A3B;stop-opacity:0.663"/>
			<stop  offset="1" style="stop-color:#676B6C;stop-opacity:0.805"/>
		</linearGradient>
		<path id="region-3-2" style="fill:url(#region-3-2_00000031178136965833961240000000898478385726894989_);" d="M320.5,38
			c-2.4,3.6-17.5,8.9-47.7,16.5c-17.4,4.4-26.8,6.4-35.7,7.7c-22.7,3.2-45.7-1.8-55.5-12.1c-3.2-3.3-3.8-4.7-3.8-8.2
			c0-3.8-0.1-4-1.6-2.5c-0.9,0.9-1.8,3.6-2.1,5.9c-1.2,11.4,10.8,21.6,29.7,25.1c8.5,1.6,35.7,0.4,47-2c28-6.1,56.2-14.2,65.7-18.9
			c2.7-1.3,3.9-2.7,4.6-5.2C322.1,40.3,321.7,36.1,320.5,38z"/>
		
			<linearGradient id="region-3-3_00000166648467801677723710000011602431304549616053_" gradientUnits="userSpaceOnUse" x1="-647.8528" y1="-77.584" x2="-647.8528" y2="-78.584" gradientTransform="matrix(302.4 0 0 -567.1242 196149.1875 -43928.2578)">
			<stop  offset="0" style="stop-color:#068534;stop-opacity:0.167"/>
			<stop  offset="1" style="stop-color:#280000;stop-opacity:0.181"/>
		</linearGradient>
		<path id="region-3-3" style="fill:url(#region-3-3_00000166648467801677723710000011602431304549616053_);" d="M356.2,73.5
			c-2.3,2.9-12.6,10.7-14.2,10.7c-0.6,0-4.3,1.6-8.2,3.6c-7.8,3.9-31.3,11.9-39.4,13.5c-2.8,0.5-5.4,1.3-5.8,1.7
			c-1.3,1.3,2,13.6,5.9,22.9c0.7,1.7,1.3,4.2,1.3,5.6c0,1.4,0.5,2.9,1,3.2c0.6,0.3,1,1.9,1,3.5s0.4,3.1,0.9,3.4
			c0.4,0.3,1.2,3.4,1.5,6.8c0.4,3.5,1.1,6.7,1.6,7.3c1,1.3,3,19.7,3,28.5c0,3.9,0.4,7,0.9,7c0.4,0,1.1,3.5,1.4,7.7
			c0.3,4.3,1.5,18.1,2.6,30.8c5.5,61.8,7.3,125.9,4.7,158.5c-0.8,9.6-2,24.5-2.6,33c-3.2,42.5-10.8,76.8-22.6,102.7
			c-1.8,4.1-3.4,7.9-3.4,8.4s-2,4.2-4.4,8.3c-21.5,36.3-57.4,61.5-104.1,72.9c-20.4,5.1-35.6,6.8-66,7.6l-24,0.6l10.5,3.3
			c15,4.7,15.2,4.8,29,7.6c26.1,5.3,35.8,6.1,74,6c35.1,0,46.2-0.7,67-4.4c42.6-7.7,72.9-21.1,93.6-41.5c4.5-4.4,9.8-10.7,11.9-14
			s4.3-6.5,4.9-7c3.9-3.4,5-7.3,6.3-21c2.8-31,3.4-37.7,4.3-55.5c1.2-24.2,1.2-231.8,0-266c-1.8-47.1-4.5-90.4-6.2-98
			c-1.4-6.4-12-37.3-14.9-43.5c-0.5-1.1-2.2-5.2-3.7-9C360.9,71,359,69.8,356.2,73.5z"/>
		
			<linearGradient id="region-3-4_00000065047338010048607500000017124147746559176076_" gradientUnits="userSpaceOnUse" x1="-628.6512" y1="-78.1655" x2="-623.9457" y2="-78.5201" gradientTransform="matrix(29.6706 0 0 -461.5 18669.8535 -35723.9062)">
			<stop  offset="0" style="stop-color:#FEF699;stop-opacity:0.447"/>
			<stop  offset="1" style="stop-color:#FFEEFF;stop-opacity:0.362"/>
		</linearGradient>
		<path id="region-3-4" style="fill:url(#region-3-4_00000065047338010048607500000017124147746559176076_);" d="M19.4,171.2
			c-0.6,32.4-1.3,278.3-0.8,320c0.4,30.6,1.9,76.5,2.8,85c0.6,5.4,0.7,5.6,11,15.7c5.7,5.6,11.3,10.7,12.4,11.3l2,1.1V436.5
			c0-92.3,0.3-192.4,0.7-222.4l0.6-54.7l-5.9-1.7c-6.5-1.9-15.3-7.2-19.4-11.9l-2.8-3L19.4,171.2z"/>
	</g>
	<g id="layer-4">
		
			<linearGradient id="region-4-1_00000158745216385573328440000007247954387437235627_" gradientUnits="userSpaceOnUse" x1="-643.2062" y1="-94.8666" x2="-643.2062" y2="-95.8666" gradientTransform="matrix(95.5714 0 0 -18.5375 61716.8516 -1731.0024)">
			<stop  offset="0" style="stop-color:#05080B;stop-opacity:0.486"/>
			<stop  offset="1" style="stop-color:#000003;stop-opacity:0.516"/>
		</linearGradient>
		<path id="region-4-1" style="fill:url(#region-4-1_00000158745216385573328440000007247954387437235627_);" d="M232.8,30.2
			c-5.8,1.6-16.3,4.4-23.3,6.1c-12.3,3.1-12.8,3.3-12.5,5.7c0.5,3.8,2.9,4.8,8.5,3.6c7.4-1.7,25.2-6.3,30.8-8
			c11-3.4,22.8-2.6,43.2,3.2c4.7,1.3,5.6,1.3,9.3-0.2c2.2-0.9,3.9-2.2,3.7-2.8c-1.2-3.8-22.8-9.5-38.2-10.1
			C244.4,27.3,242.3,27.5,232.8,30.2z"/>
		
			<linearGradient id="region-4-2_00000145034078971956535700000016664954865176173246_" gradientUnits="userSpaceOnUse" x1="-629.6249" y1="-90.4798" x2="-629.3232" y2="-92.1472" gradientTransform="matrix(31.6671 0 0 -24.448 20131.291 -2178.4082)">
			<stop  offset="0" style="stop-color:#F2F2F1;stop-opacity:0.755"/>
			<stop  offset="1" style="stop-color:#FFFFFF;stop-opacity:0.825"/>
		</linearGradient>
		<path id="region-4-2" style="fill:url(#region-4-2_00000145034078971956535700000016664954865176173246_);" d="M185.6,36.8
			c-4.1,1.8-5.3,4-3.9,7.5c2.7,7.2,14.5,13.4,29.1,15.3c3.5,0.5,2.6,0-4.1-2.2c-17.3-5.7-23.2-12.2-17.4-19
			C192.3,34.8,191.3,34.5,185.6,36.8z"/>
		
			<linearGradient id="region-4-3_00000156582438978294282440000000971938179181149858_" gradientUnits="userSpaceOnUse" x1="-642.0548" y1="-96.8583" x2="-642.0548" y2="-97.8583" gradientTransform="matrix(81.7234 0 0 -16.6782 52712.6602 -1580.0349)">
			<stop  offset="0" style="stop-color:#8A8D8D;stop-opacity:0.806"/>
			<stop  offset="1" style="stop-color:#919494;stop-opacity:0.779"/>
		</linearGradient>
		<path id="region-4-3" style="fill:url(#region-4-3_00000156582438978294282440000000971938179181149858_);" d="M239.3,36.9
			c-2.7,0.8-7.7,2.1-11,2.9c-3.3,0.7-10.8,2.7-16.7,4.2l-10.7,2.8l6.7,2.3c8.4,2.9,23.7,3.8,35.4,2.2c7.2-1.1,34.8-7.2,38.7-8.6
			c2.4-0.9,0.8-1.4-13-4.5C254,34.9,246.9,34.6,239.3,36.9z"/>
		
			<linearGradient id="region-4-4_00000150093253585693149010000011462821292839981718_" gradientUnits="userSpaceOnUse" x1="-648.2842" y1="-80.1924" x2="-648.1418" y2="-82.8951" gradientTransform="matrix(372.4874 0 0 -102.9419 241659.875 -8186.3389)">
			<stop  offset="0" style="stop-color:#FBFFB7;stop-opacity:0.557"/>
			<stop  offset="1" style="stop-color:#EBFF47;stop-opacity:0.117"/>
		</linearGradient>
		<path id="region-4-4" style="fill:url(#region-4-4_00000150093253585693149010000011462821292839981718_);" d="M24.7,73.9
			c-0.5,1.6-3.9,10-7.4,18.8c-6.4,16.3-9.7,25.6-10.9,31.1c-0.7,3-0.4,3.3,5.6,7.1c8.1,5.1,39,20.3,41.2,20.3
			c0.9,0,8.3,2.3,16.4,5.1c57.9,19.9,119.9,23.3,186.2,10.3c17.4-3.4,52.5-12.9,60.5-16.3c1.1-0.5,4.3-1.7,7-2.6
			c2.8-1,5.5-2.1,6-2.5c0.6-0.4,6.4-3.2,13-6.1c20.4-8.9,36-17.3,36.3-19.6c0.2-1.1-1.1-5.8-2.9-10.4c-1.7-4.6-4-10.9-5.1-13.9
			s-2.8-7.3-3.7-9.5c-1-2.2-2.6-6.2-3.6-8.8c-2.2-5.9-4.1-6.9-6.9-3.5c-2.6,3-12.9,10.8-14.4,10.8c-0.6,0-4.3,1.6-8.3,3.6
			c-7.6,3.8-35.6,13.4-39.3,13.4c-1.1,0-3.4,0.7-4.9,1.5c-4,2-28.3,6.5-52.2,9.5c-35.7,4.4-82,4.2-114-0.5
			c-19.9-3-43.3-9.3-56.5-15.1c-12.9-5.8-20-9.4-20-10.3c0-0.5-2.4-2.3-5.2-3.9c-2.9-1.7-7.1-4.8-9.3-7.1
			C27.7,70.5,26.1,70.2,24.7,73.9z"/>
	</g>
	<g id="layer-5">
		
			<linearGradient id="region-5-1_00000135656027848023844570000000727301133147612856_" gradientUnits="userSpaceOnUse" x1="-635.0501" y1="-82.5284" x2="-635.0501" y2="-83.5284" gradientTransform="matrix(43.4313 0 0 -59.9101 27625.7676 -4854.085)">
			<stop  offset="0" style="stop-color:#FFF784;stop-opacity:0.603"/>
			<stop  offset="1" style="stop-color:#FFF18E;stop-opacity:0.614"/>
		</linearGradient>
		<path id="region-5-1" style="fill:url(#region-5-1_00000135656027848023844570000000727301133147612856_);" d="M34,107.4
			c-3.5,9.5-7.4,20.1-8.7,23.5L23,137l13.4,6.8c7.4,3.7,13.6,6.5,13.8,6.3c0.3-0.4,15.1-43.2,16.2-46.9c0.4-1.1-3-3-12.3-7.3
			c-7-3.1-13-5.7-13.3-5.7C40.5,90.2,37.4,98,34,107.4z"/>
	</g>
</g>
<g id="图层_2_00000088822143899457803140000017100370431093698478_">
	<g id="layer-1_00000152965504659903984370000008918828045849144738_">
		
			<linearGradient id="region-1-1_00000085213273002333210920000015882625137772287409_" gradientUnits="userSpaceOnUse" x1="-646.9565" y1="-79.8784" x2="-646.8416" y2="-82.0604" gradientTransform="matrix(340.1002 0 0 -114.0692 220607.8906 -9113.2637)">
			<stop  offset="0" style="stop-color:#D1D3D0;stop-opacity:0.992"/>
			<stop  offset="1" style="stop-color:#BBC1C1;stop-opacity:0.992"/>
		</linearGradient>
		
			<path id="region-1-1_00000169530412600402896250000011779200108063984544_" style="fill:url(#region-1-1_00000085213273002333210920000015882625137772287409_);" d="
			M542.9,2.7c-24.6,2.5-60.9,8.7-66.4,11.4c-0.9,0.4-4.6,1.6-8.4,2.6c-3.7,0.9-7,2.1-7.3,2.6s-1.2,0.9-2,0.9c-0.9,0-4.5,1.3-8.1,3
			c-3.5,1.6-6.6,3-6.8,3c-0.9,0-14.2,8.7-16.4,10.7c-1.3,1.3-2.8,2.3-3.2,2.3c-0.5,0-0.9,0.6-0.9,1.3c0,0.8-0.8,2.2-1.9,3.1
			c-2.7,2.5-5.4,10.2-4.8,13.9c0.7,5,4.1,13.7,5.2,13.7c0.6,0,2.9,1.8,5,4.1c2.2,2.3,6.4,5.4,9.3,7.1c2.8,1.6,5.2,3.4,5.2,3.9
			c0,0.9,7.1,4.5,20,10.3c13.2,5.8,36.6,12.1,56.5,15.1c32,4.7,78.3,4.9,114,0.5c23.9-3,48.2-7.5,52.2-9.5c1.5-0.8,3.8-1.5,4.9-1.5
			c3.7,0,31.7-9.6,39.3-13.4c4-2,7.7-3.6,8.3-3.6c1.6,0,11.9-7.8,14.1-10.6c1-1.3,2.5-2.4,3.2-2.4c1.6,0,2.7-6,2.8-15.2
			c0.1-6-0.2-7.1-3.2-11.5c-4.3-6.2-11.6-12.1-21.3-17.1c-8.7-4.5-23.3-10.1-32.8-12.7c-3.6-0.9-7.6-2.1-9-2.5
			c-5.2-1.7-23.9-5.1-44-8C624.4,1.1,567.9,0.3,542.9,2.7z"/>
		
			<linearGradient id="region-1-2_00000131360801430370416510000012565159711577382034_" gradientUnits="userSpaceOnUse" x1="-647.3211" y1="-77.584" x2="-647.3211" y2="-78.584" gradientTransform="matrix(389.6777 0 0 -567.2272 252836.0625 -43936.3711)">
			<stop  offset="0" style="stop-color:#FFE50D;stop-opacity:0.995"/>
			<stop  offset="1" style="stop-color:#FF1600"/>
		</linearGradient>
		
			<path id="region-1-2_00000004528560506456320710000011632358935787845781_" style="fill:url(#region-1-2_00000131360801430370416510000012565159711577382034_);" d="
			M419.3,73.9c-0.5,1.6-3.9,10-7.4,18.8c-12,30.5-12,30.3-15.6,70.5c-1.6,17.5-2.3,238.3-1,287c1.4,48.4,4.9,104.6,6.8,105.9
			c0.4,0.3,1.4,2.4,2.2,4.6c1.7,5.1,4.9,12.6,6.1,14.5c0.6,0.8,1.4,2.5,2,3.8c1.3,3,12.9,14.7,21.4,21.7
			c8.9,7.1,23.4,14.4,36.1,17.9c5.5,1.5,15.2,4.4,21.5,6.3c16.5,5,16.3,4.9,30,7.7c26.1,5.3,35.8,6.1,74,6c35.1,0,46.2-0.7,67-4.4
			c42.6-7.7,72.9-21.1,93.6-41.5c4.5-4.4,9.8-10.7,11.9-14c2.1-3.3,4.3-6.5,4.9-7c3.9-3.4,5-7.3,6.3-21c2.8-31,3.4-37.7,4.3-55.5
			c1.2-24.2,1.2-231.8,0-266c-1.8-47.1-4.5-90.4-6.2-98c-1.6-7.2-11.7-36.3-15.7-45.5c-1-2.2-2.6-6.2-3.6-8.8
			c-2.2-5.9-4.1-6.9-6.9-3.5c-2.6,3-12.9,10.8-14.4,10.8c-0.6,0-4.3,1.6-8.3,3.6c-7.6,3.8-35.6,13.4-39.3,13.4
			c-1.1,0-3.4,0.7-4.9,1.5c-4,2-28.3,6.5-52.2,9.5c-35.7,4.4-82,4.2-114-0.5c-19.9-3-43.3-9.3-56.5-15.1c-12.9-5.8-20-9.4-20-10.3
			c0-0.5-2.4-2.3-5.2-3.9c-2.9-1.7-7.1-4.8-9.3-7.1C422.3,70.5,420.7,70.2,419.3,73.9z"/>
		
			<linearGradient id="region-1-3_00000120560925092822072500000001315358125261367696_" gradientUnits="userSpaceOnUse" x1="-647.7214" y1="-79.9944" x2="-646.715" y2="-80.7174" gradientTransform="matrix(371.4249 0 0 -112.3234 240970.4062 -8422.7686)">
			<stop  offset="0" style="stop-color:#ECECED;stop-opacity:0.992"/>
			<stop  offset="1" style="stop-color:#616569;stop-opacity:0.992"/>
		</linearGradient>
		
			<path id="region-1-3_00000083049779549951504920000001585193391168925118_" style="fill:url(#region-1-3_00000120560925092822072500000001315358125261367696_);" d="
			M402.4,558.2c0,5.4,5.9,18.9,11.9,27c3,4.1,10.9,12.2,16.6,17c2.2,1.8,4,3.6,4.1,3.9c0.2,1.2,2.5,6.7,3.6,8.6
			c0.6,1.1,1.8,3.3,2.7,5c1.9,3.9,7.5,10.9,12.6,15.8c15.1,14.4,38.8,24.5,72.5,30.8c16.5,3.1,22,3.4,66,3.4c47.7,0,50-0.2,71-5
			c26.6-6.2,47.3-16.1,61.4-29.4c3.2-3.1,9-10.2,12.7-15.9c4.1-6.2,8.7-11.8,11.6-14.1c9.1-7.2,18.7-19.5,23.6-30.4
			c2.7-5.9,0.2-4.3-3.9,2.5c-4.8,7.9-18.8,21.9-27.9,27.9c-21.6,14.2-45.4,22.9-78.5,28.9c-20.8,3.7-31.9,4.4-67,4.4
			c-38.2,0.1-47.9-0.7-74-6c-13.7-2.8-13.5-2.7-30-7.7c-6.3-1.9-16-4.8-21.5-6.3c-12.7-3.5-27.2-10.8-36.1-17.9
			c-8.5-7-20.1-18.7-21.4-21.7c-0.6-1.3-1.4-3-2-3.8c-1.3-2.1-3.7-7.6-6-14C403.1,557.4,402.5,556.5,402.4,558.2z"/>
	</g>
	<g id="layer-2_00000134930860959562673690000017247194249113316520_">
		
			<linearGradient id="region-2-1_00000140711480666160853030000008540637209490119819_" gradientUnits="userSpaceOnUse" x1="-645.4977" y1="-82.5833" x2="-644.8533" y2="-87.3759" gradientTransform="matrix(311.823 0 0 -58.75 202229.2812 -4847.5)">
			<stop  offset="0" style="stop-color:#595D5B;stop-opacity:0.332"/>
			<stop  offset="1" style="stop-color:#A3A6A4;stop-opacity:0.465"/>
		</linearGradient>
		
			<path id="region-2-1_00000137820843790648377740000013495022169504053128_" style="fill:url(#region-2-1_00000140711480666160853030000008540637209490119819_);stroke:#000000;stroke-width:2;stroke-miterlimit:10;" d="
			M937.6,8.2c-14.7,1-32.7,2.9-38,4c-2.5,0.5-8.8,1.6-14,2.5s-10.6,2.1-12,2.5c-1.4,0.5-5.6,1.6-9.5,2.5c-7,1.7-8.7,2.2-13.5,4.3
			c-1.4,0.6-3.6,1.4-5,1.8s-4.2,1.8-6.2,3c-2.1,1.3-4.1,2.4-4.6,2.4c-1.3,0-9.8,8.2-11.1,10.7c-3.8,7.4,1.6,15.6,15.6,23.7
			c0.8,0.4,2.2-0.9,3.8-3.4c1.4-2.3,4.6-5.4,7.1-7c16.7-10.6,57.7-19.4,96-20.7c16.1-0.5,17.1-0.5,17.8,1.3c0.4,1.1,0.3,2-0.3,2.2
			s-1.1,2.1-1.1,4.2c0,11,21.4,21,44.8,21c12.1,0,23.9-2,50.2-8.7c29.8-7.5,42.3-11.8,47.4-16.2c1.8-1.5,1.9-1.4,1.3,3.4
			c-0.5,3.3-1.4,5.6-2.8,6.8c-1.2,1-2,1.9-1.8,2s2,1,3.9,2.1c5.3,2.9,11,8.7,11,11.3c0,1.3,0.2,2.3,0.5,2.3c1.4,0,11.6-7.3,13.8-10
			c5.1-6,4.5-14-1.6-19.8c-3.2-3.1-15-10.2-16.9-10.2c-0.5,0-2.4-0.6-4.1-1.4c-5.1-2.2-9.3-3.7-13.1-4.7c-2-0.5-5.3-1.4-7.3-1.9
			c-3.9-1.1-15.9-3.5-24.8-5.1c-8.8-1.5-30.6-4-44-4.9C1004.3,7.2,953.4,7.2,937.6,8.2z"/>
		
			<linearGradient id="region-2-2_00000138540438503326309470000013469972996589186703_" gradientUnits="userSpaceOnUse" x1="-644.8984" y1="-84.1689" x2="-644.1236" y2="-80.1058" gradientTransform="matrix(275.8 0 0 -54.3648 178814.5938 -4482.9526)">
			<stop  offset="0" style="stop-color:#01020E;stop-opacity:0"/>
			<stop  offset="1" style="stop-color:#000000;stop-opacity:0.446"/>
		</linearGradient>
		
			<path id="region-2-2_00000017495270433018634310000008335552034835122080_" style="fill:url(#region-2-2_00000138540438503326309470000013469972996589186703_);stroke:#000000;stroke-width:2;stroke-miterlimit:10;" d="
			M933.6,34.9c-49.9,5-83.5,15.2-90.7,27.6l-2.1,3.5l4.6,2c7.4,3.2,18.8,6.7,30.2,9.5c18.1,4.4,20.2,4.7,51,8.7
			c15.5,2,26.3,2.5,55,2.5c49.9,0,87.5-5.1,122.2-16.6c10.2-3.4,12.8-5,12.8-7.9s-5.3-8.5-11-11.6c-1.9-1.1-3.7-2-3.9-2.1
			c-0.2-0.1,0.6-1,1.8-2c1.4-1.2,2.3-3.5,2.8-6.8c0.6-4.8,0.5-4.9-1.3-3.4c-5.1,4.4-17.6,8.7-47.4,16.2c-26.3,6.7-38.1,8.7-50.2,8.7
			c-23.4,0-44.8-10-44.8-21c0-2.1,0.5-4,1.1-4.2c0.5-0.2,0.7-1.1,0.4-2.1c-0.6-1.5-2.2-1.7-13.9-1.5C943,34.4,935.5,34.7,933.6,34.9
			z"/>
		
			<linearGradient id="region-2-3_00000086659731476700006120000009472341991114557574_" gradientUnits="userSpaceOnUse" x1="-641.914" y1="-82.8725" x2="-641.914" y2="-83.8725" gradientTransform="matrix(177.3547 0 0 -56.4029 114747.1094 -4628.5479)">
			<stop  offset="0" style="stop-color:#F8F8F9;stop-opacity:0.687"/>
			<stop  offset="1" style="stop-color:#FFFFFF;stop-opacity:0.621"/>
		</linearGradient>
		
			<path id="region-2-3_00000113340337708427283390000014835392992569819048_" style="fill:url(#region-2-3_00000086659731476700006120000009472341991114557574_);stroke:#000000;stroke-width:2;stroke-miterlimit:10;" d="
			M812.7,50.5c-1.6,5.4-0.6,10.4,3.1,16.5c2.6,4.3,12.6,11.2,21.8,15.1c4.1,1.8,8.4,3.6,9.5,4.1c4.6,2.1,22.1,6.8,37,9.9
			c16.7,3.6,49.8,6.1,78,6c34.2-0.2,36.7-1.4,4.5-2.2c-25.2-0.6-39.7-1.8-61-5.2c-9.2-1.4-11.7-1.9-24.5-4.9
			c-23.6-5.5-45.5-15.5-57.4-26.2c-5.7-5.1-8.1-9-9.1-14.4l-0.6-3.5L812.7,50.5z"/>
		
			<linearGradient id="region-2-4_00000179623982384029244200000009640849869646256275_" gradientUnits="userSpaceOnUse" x1="-644.5836" y1="-87.7271" x2="-643.5832" y2="-88.6679" gradientTransform="matrix(239.7566 0 0 -31.0759 155358.5469 -2639.665)">
			<stop  offset="0" style="stop-color:#000000;stop-opacity:0.352"/>
			<stop  offset="1" style="stop-color:#878B8B;stop-opacity:0.973"/>
		</linearGradient>
		
			<path id="region-2-4_00000091716031484534902620000011222356970440507525_" style="fill:url(#region-2-4_00000179623982384029244200000009640849869646256275_);stroke:#000000;stroke-width:2;stroke-miterlimit:10;" d="
			M831.4,85.8c0.9,1.8,5.1,4,20.2,10.7c13.1,5.9,36.6,12.2,56.5,15.2c33.6,5,78.5,5,118-0.1c14.6-1.8,39.9-6.1,44-7.4
			c3.5-1.2-8.2-0.6-21,1c-28.6,3.5-102,4.7-125.5,2.2c-19-2.1-34.9-4.6-45.5-7.1c-24.6-5.9-31.8-8.4-46.8-15.9
			C830.8,84.2,830.9,84.8,831.4,85.8z"/>
		
			<linearGradient id="region-2-5_00000180362987377940888470000016510343935543622297_" gradientUnits="userSpaceOnUse" x1="-622.3577" y1="-90.1768" x2="-621.4177" y2="-91.6039" gradientTransform="matrix(51.1 0 0 -25.039 32605.0469 -2124.2202)">
			<stop  offset="0" style="stop-color:#FEFFE1;stop-opacity:0.705"/>
			<stop  offset="1" style="stop-color:#FEFFFF;stop-opacity:0.83"/>
		</linearGradient>
		
			<path id="region-2-5_00000007399836160978584030000008858144136274564737_" style="fill:url(#region-2-5_00000180362987377940888470000016510343935543622297_);stroke:#000000;stroke-width:2;stroke-miterlimit:10;" d="
			M798.6,135c0,1.7,12.6,14.6,17.2,17.6c7.1,4.6,19.2,7.8,27.8,7.4l6.1-0.3l-25.5-12.5C810.1,140.3,798.6,134.8,798.6,135z"/>
		
			<linearGradient id="region-2-6_00000127747338676516950270000014175037734150812089_" gradientUnits="userSpaceOnUse" x1="-505.8688" y1="-161.0255" x2="-504.8522" y2="-161.4138" gradientTransform="matrix(9.9083 0 0 -3.9553 5899.8413 -467.5328)">
			<stop  offset="0" style="stop-color:#FEFDFE;stop-opacity:0.803"/>
			<stop  offset="1" style="stop-color:#FFFFFF;stop-opacity:0.832"/>
		</linearGradient>
		
			<path id="region-2-6_00000104707230892609903650000013083789758204098695_" style="fill:url(#region-2-6_00000127747338676516950270000014175037734150812089_);stroke:#000000;stroke-width:2;stroke-miterlimit:10;" d="
			M888.6,169.2c0,1.5,3.5,3,6.9,3c3.8,0,4-1.3,0.6-2.8C893,168,888.6,167.8,888.6,169.2z"/>
		
			<linearGradient id="region-2-7_00000098214181401778498590000016371185252814860456_" gradientUnits="userSpaceOnUse" x1="-646.5128" y1="-79.1252" x2="-645.7693" y2="-77.6264" gradientTransform="matrix(383.8736 0 0 -331 249066.4062 -25539)">
			<stop  offset="0" style="stop-color:#F7D3D6;stop-opacity:0.603"/>
			<stop  offset="1" style="stop-color:#FFFFEB;stop-opacity:0.546"/>
		</linearGradient>
		
			<path id="region-2-7_00000159442677435589554460000016402779196325285309_" style="fill:url(#region-2-7_00000098214181401778498590000016371185252814860456_);stroke:#000000;stroke-width:2;stroke-miterlimit:10;" d="
			M1172.7,289.4c-3.9,32.8-11.8,52.3-28.5,69.6c-20.2,21-48.7,33.4-93.6,40.6c-8.8,1.4-16.1,2.4-44.5,6.1c-6,0.8-14.8,1.9-19.5,2.5
			c-22.7,3-50.2,9.1-68.5,15.3c-33.8,11.5-69.8,34.8-94.3,61c-10.6,11.3-21.9,26.5-26.8,36.1c-2.2,4.2-4.5,7.6-5.1,7.6
			c-2.6,0-0.5,23.4,2.6,29.6c1.1,2.2,2.3,5.2,2.6,6.7c0.4,1.5,1.1,2.7,1.5,2.7s1,1.4,1.4,3.1c1.1,5.4,17,23.3,28.6,32.1
			c4.4,3.3,12.5,7.8,14.1,7.8c1.4,0,0.9-4.9-2-20.4c-3.3-18.2-2.6-42.6,2-60.9c5.2-20.9,11.6-33.1,24.1-46.3
			c14.1-14.9,29.9-22.7,57.3-28.6c3.9-0.9,13.8-1.3,28.5-1.3c22.4,0.1,27.7,0.6,52,5c48.6,8.9,87.1,11.3,117.6,7.5
			c20.8-2.6,39.4-10,47.7-18.9l4.7-5v-81.1c0-44.5-0.2-81-0.3-81C1174.1,279.2,1173.4,283.8,1172.7,289.4z"/>
		
			<linearGradient id="region-2-8_00000013184311824785294720000012169821093181728642_" gradientUnits="userSpaceOnUse" x1="-646.1521" y1="-80.5718" x2="-645.8051" y2="-84.3353" gradientTransform="matrix(371.4249 0 0 -91.5777 240970.4062 -6825.3096)">
			<stop  offset="0" style="stop-color:#000000;stop-opacity:0.266"/>
			<stop  offset="1" style="stop-color:#8E9596;stop-opacity:0.888"/>
		</linearGradient>
		
			<path id="region-2-8_00000021817425851336064150000011498157221995047589_" style="fill:url(#region-2-8_00000013184311824785294720000012169821093181728642_);stroke:#000000;stroke-width:2;stroke-miterlimit:10;" d="
			M792.6,558.2c0,5.4,5.8,18.8,11.9,27c4.7,6.5,16.5,17.2,25.6,23.3c4.9,3.3,9.2,6.3,9.5,6.7c1.7,2.3,14.7,11.2,21,14.2
			c17,8.2,43.8,15.2,66,17.3c14.8,1.3,19.5,1.6,40.5,2.1c34.1,1,71.8-2.9,102.4-10.6c20.4-5.2,30.2-8.6,45.2-15.9
			c9.9-4.9,11.9-5.5,12.4-4.2c0.5,1.2,1.5,0.2,3.9-3.6c1.8-2.8,5.5-6.9,8.2-9.1c9.2-7.3,18.7-19.5,23.7-30.5
			c2.7-5.9,0.2-4.3-3.9,2.5c-4.8,7.9-18.8,21.9-27.9,27.9c-21.6,14.2-45.4,22.9-78.5,28.9c-20.8,3.7-31.9,4.4-67,4.4
			c-38.2,0.1-47.9-0.7-74-6c-13.7-2.8-13.5-2.7-30-7.7c-6.3-1.9-16-4.8-21.5-6.3c-12.7-3.5-27.2-10.8-36.1-17.9
			c-8.5-7-20.1-18.7-21.4-21.7c-0.6-1.3-1.4-3-2-3.8c-1.3-2.1-3.7-7.6-6-14C793.3,557.4,792.7,556.5,792.6,558.2z"/>
	</g>
	<g id="layer-3_00000117657879975187207620000007716469465165799820_">
		
			<linearGradient id="region-3-1_00000158738322332844262530000011971004872398496955_" gradientUnits="userSpaceOnUse" x1="-637.2264" y1="-84.2156" x2="-637.2248" y2="-85.2584" gradientTransform="matrix(142.7706 0 0 -45.9001 92400.7656 -3848.208)">
			<stop  offset="0" style="stop-color:#CCD2D1;stop-opacity:0.639"/>
			<stop  offset="1" style="stop-color:#CFD5D4;stop-opacity:0.655"/>
		</linearGradient>
		
			<path id="region-3-1_00000098181893719886934180000010567985815215733163_" style="fill:url(#region-3-1_00000158738322332844262530000011971004872398496955_);stroke:#000000;stroke-width:2;stroke-miterlimit:10;" d="
			M1383.4,26.7c-15.1,5.1-28.2,9.9-29.3,10.6c-1.2,0.9-1.8,2.6-1.8,5.1c0,7.9,12.9,16.5,29.1,19.3c17.7,3.1,30.7,1.7,65.9-7.2
			c30-7.6,45.4-12.9,47.6-16.4c1.9-3.2-12.3-10.1-31-15c-15.6-4-29.2-5.9-42.1-5.8l-11,0.1L1383.4,26.7z"/>
		
			<linearGradient id="region-3-2_00000139270451032544348530000017488341027757230250_" gradientUnits="userSpaceOnUse" x1="-637.7994" y1="-87.917" x2="-637.1241" y2="-83.9768" gradientTransform="matrix(147.6492 0 0 -33.5996 95570.5312 -2880.8479)">
			<stop  offset="0" style="stop-color:#363A3B;stop-opacity:0.663"/>
			<stop  offset="1" style="stop-color:#676B6C;stop-opacity:0.805"/>
		</linearGradient>
		
			<path id="region-3-2_00000154419342013401279630000014224751658392088236_" style="fill:url(#region-3-2_00000139270451032544348530000017488341027757230250_);stroke:#000000;stroke-width:2;stroke-miterlimit:10;" d="
			M1495,38c-2.4,3.6-17.5,8.9-47.7,16.5c-17.4,4.4-26.8,6.4-35.7,7.7c-22.7,3.2-45.7-1.8-55.5-12.1c-3.2-3.3-3.8-4.7-3.8-8.2
			c0-3.8-0.1-4-1.6-2.5c-0.9,0.9-1.8,3.6-2.1,5.9c-1.2,11.4,10.8,21.6,29.7,25.1c8.5,1.6,35.7,0.4,47-2c28-6.1,56.2-14.2,65.7-18.9
			c2.7-1.3,3.9-2.7,4.6-5.2C1496.6,40.3,1496.2,36.1,1495,38z"/>
		
			<linearGradient id="region-3-3_00000119105750325422648080000014153132331376107706_" gradientUnits="userSpaceOnUse" x1="-643.9689" y1="-77.584" x2="-643.9689" y2="-78.584" gradientTransform="matrix(302.4 0 0 -567.1242 196149.1875 -43928.2578)">
			<stop  offset="0" style="stop-color:#068534;stop-opacity:0.167"/>
			<stop  offset="1" style="stop-color:#280000;stop-opacity:0.181"/>
		</linearGradient>
		
			<path id="region-3-3_00000156555007144023943780000011721512735808253605_" style="fill:url(#region-3-3_00000119105750325422648080000014153132331376107706_);stroke:#000000;stroke-width:2;stroke-miterlimit:10;" d="
			M1530.7,73.5c-2.3,2.9-12.6,10.7-14.2,10.7c-0.6,0-4.3,1.6-8.2,3.6c-7.8,3.9-31.3,11.9-39.4,13.5c-2.8,0.5-5.4,1.3-5.8,1.7
			c-1.3,1.3,2,13.6,5.9,22.9c0.7,1.7,1.3,4.2,1.3,5.6c0,1.4,0.5,2.9,1,3.2c0.6,0.3,1,1.9,1,3.5s0.4,3.1,0.9,3.4
			c0.4,0.3,1.2,3.4,1.5,6.8c0.4,3.5,1.1,6.7,1.6,7.3c1,1.3,3,19.7,3,28.5c0,3.9,0.4,7,0.9,7c0.4,0,1.1,3.5,1.4,7.7
			c0.3,4.3,1.5,18.1,2.6,30.8c5.5,61.8,7.3,125.9,4.7,158.5c-0.8,9.6-2,24.5-2.6,33c-3.2,42.5-10.8,76.8-22.6,102.7
			c-1.8,4.1-3.4,7.9-3.4,8.4s-2,4.2-4.4,8.3c-21.5,36.3-57.4,61.5-104.1,72.9c-20.4,5.1-35.6,6.8-66,7.6l-24,0.6l10.5,3.3
			c15,4.7,15.2,4.8,29,7.6c26.1,5.3,35.8,6.1,74,6c35.1,0,46.2-0.7,67-4.4c42.6-7.7,72.9-21.1,93.6-41.5c4.5-4.4,9.8-10.7,11.9-14
			s4.3-6.5,4.9-7c3.9-3.4,5-7.3,6.3-21c2.8-31,3.4-37.7,4.3-55.5c1.2-24.2,1.2-231.8,0-266c-1.8-47.1-4.5-90.4-6.2-98
			c-1.4-6.4-12-37.3-14.9-43.5c-0.5-1.1-2.2-5.2-3.7-9C1535.4,71,1533.5,69.8,1530.7,73.5z"/>
		
			<linearGradient id="region-3-4_00000154417001074227886640000016994738002365740970_" gradientUnits="userSpaceOnUse" x1="-589.0662" y1="-78.1655" x2="-584.3608" y2="-78.5201" gradientTransform="matrix(29.6706 0 0 -461.5 18669.8535 -35723.9062)">
			<stop  offset="0" style="stop-color:#FEF699;stop-opacity:0.447"/>
			<stop  offset="1" style="stop-color:#FFEEFF;stop-opacity:0.362"/>
		</linearGradient>
		
			<path id="region-3-4_00000059996143780059285000000001746162147981722254_" style="fill:url(#region-3-4_00000154417001074227886640000016994738002365740970_);stroke:#000000;stroke-width:2;stroke-miterlimit:10;" d="
			M1193.9,171.2c-0.6,32.4-1.3,278.3-0.8,320c0.4,30.6,1.9,76.5,2.8,85c0.6,5.4,0.7,5.6,11,15.7c5.7,5.6,11.3,10.7,12.4,11.3l2,1.1
			V436.5c0-92.3,0.3-192.4,0.7-222.4l0.6-54.7l-5.9-1.7c-6.5-1.9-15.3-7.2-19.4-11.9l-2.8-3L1193.9,171.2z"/>
	</g>
	<g id="layer-4_00000138571777991004772570000000857003564596967349_">
		
			<linearGradient id="region-4-1_00000016773551657835984300000016048572143042575545_" gradientUnits="userSpaceOnUse" x1="-626.7149" y1="-94.9289" x2="-626.7149" y2="-95.9289" gradientTransform="matrix(95.5714 0 0 -18.5375 61716.8516 -1731.0024)">
			<stop  offset="0" style="stop-color:#05080B;stop-opacity:0.486"/>
			<stop  offset="1" style="stop-color:#000003;stop-opacity:0.516"/>
		</linearGradient>
		
			<path id="region-4-1_00000160887506292005316910000011587940255215292047_" style="fill:url(#region-4-1_00000016773551657835984300000016048572143042575545_);stroke:#000000;stroke-width:2;stroke-miterlimit:10;" d="
			M1808.9,31.4c-5.8,1.6-16.3,4.4-23.3,6.1c-12.3,3.1-12.8,3.3-12.5,5.7c0.5,3.8,2.9,4.8,8.5,3.6c7.4-1.7,25.2-6.3,30.8-8
			c11-3.4,22.8-2.6,43.2,3.2c4.7,1.3,5.6,1.3,9.3-0.2c2.2-0.9,3.9-2.2,3.7-2.8c-1.2-3.8-22.8-9.5-38.2-10.1
			C1820.5,28.5,1818.4,28.7,1808.9,31.4z"/>
		
			<linearGradient id="region-4-2_00000161623974935794620050000011837170134816251521_" gradientUnits="userSpaceOnUse" x1="-579.8541" y1="-90.5281" x2="-579.5524" y2="-92.1954" gradientTransform="matrix(31.6671 0 0 -24.448 20131.291 -2178.4082)">
			<stop  offset="0" style="stop-color:#F2F2F1;stop-opacity:0.755"/>
			<stop  offset="1" style="stop-color:#FFFFFF;stop-opacity:0.825"/>
		</linearGradient>
		
			<path id="region-4-2_00000005234359219775000520000004303353297774977714_" style="fill:url(#region-4-2_00000161623974935794620050000011837170134816251521_);stroke:#000000;stroke-width:2;stroke-miterlimit:10;" d="
			M1761.7,38c-4.1,1.8-5.3,4-3.9,7.5c2.7,7.2,14.5,13.4,29.1,15.3c3.5,0.5,2.6,0-4.1-2.2c-17.3-5.7-23.2-12.2-17.4-19
			C1768.4,36,1767.4,35.7,1761.7,38z"/>
		
			<linearGradient id="region-4-3_00000129175824043957914440000004894676169435839907_" gradientUnits="userSpaceOnUse" x1="-622.769" y1="-96.9285" x2="-622.769" y2="-97.9285" gradientTransform="matrix(81.7234 0 0 -16.6782 52712.6602 -1580.0349)">
			<stop  offset="0" style="stop-color:#8A8D8D;stop-opacity:0.806"/>
			<stop  offset="1" style="stop-color:#919494;stop-opacity:0.779"/>
		</linearGradient>
		
			<path id="region-4-3_00000078766643701062839730000011785363220759132831_" style="fill:url(#region-4-3_00000129175824043957914440000004894676169435839907_);stroke:#000000;stroke-width:2;stroke-miterlimit:10;" d="
			M1815.4,38.1c-2.7,0.8-7.7,2.1-11,2.9c-3.3,0.7-10.8,2.7-16.7,4.2L1777,48l6.7,2.3c8.4,2.9,23.7,3.8,35.4,2.2
			c7.2-1.1,34.8-7.2,38.7-8.6c2.4-0.9,0.8-1.4-13-4.5C1830.1,36.1,1823,35.8,1815.4,38.1z"/>
		
			<linearGradient id="region-4-4_00000008138333504064339760000009009914504383953065_" gradientUnits="userSpaceOnUse" x1="-644.0529" y1="-80.2039" x2="-643.9106" y2="-82.9064" gradientTransform="matrix(372.4874 0 0 -102.9419 241659.875 -8186.3389)">
			<stop  offset="0" style="stop-color:#FBFFB7;stop-opacity:0.557"/>
			<stop  offset="1" style="stop-color:#EBFF47;stop-opacity:0.117"/>
		</linearGradient>
		
			<path id="region-4-4_00000182529491020134297670000007654181038777331356_" style="fill:url(#region-4-4_00000008138333504064339760000009009914504383953065_);stroke:#000000;stroke-width:2;stroke-miterlimit:10;" d="
			M1600.8,75.1c-0.5,1.6-3.9,10-7.4,18.8c-6.4,16.3-9.7,25.6-10.9,31.1c-0.7,3-0.4,3.3,5.6,7.1c8.1,5.1,39,20.3,41.2,20.3
			c0.9,0,8.3,2.3,16.4,5.1c57.9,19.9,119.9,23.3,186.2,10.3c17.4-3.4,52.5-12.9,60.5-16.3c1.1-0.5,4.3-1.7,7-2.6
			c2.8-1,5.5-2.1,6-2.5c0.6-0.4,6.4-3.2,13-6.1c20.4-8.9,36-17.3,36.3-19.6c0.2-1.1-1.1-5.8-2.9-10.4c-1.7-4.6-4-10.9-5.1-13.9
			s-2.8-7.3-3.7-9.5c-1-2.2-2.6-6.2-3.6-8.8c-2.2-5.9-4.1-6.9-6.9-3.5c-2.6,3-12.9,10.8-14.4,10.8c-0.6,0-4.3,1.6-8.3,3.6
			c-7.6,3.8-35.6,13.4-39.3,13.4c-1.1,0-3.4,0.7-4.9,1.5c-4,2-28.3,6.5-52.2,9.5c-35.7,4.4-82,4.2-114-0.5
			c-19.9-3-43.3-9.3-56.5-15.1c-12.9-5.8-20-9.4-20-10.3c0-0.5-2.4-2.3-5.2-3.9c-2.9-1.7-7.1-4.8-9.3-7.1
			C1603.8,71.7,1602.2,71.4,1600.8,75.1z"/>
	</g>
	<g id="layer-5_00000158711466188268832130000013083337394547127426_">
		
			<linearGradient id="region-5-1_00000183208294646670263800000001285020734379226036_" gradientUnits="userSpaceOnUse" x1="-588.8875" y1="-82.7754" x2="-588.8875" y2="-83.7754" gradientTransform="matrix(43.4313 0 0 -59.9101 27625.7676 -4854.085)">
			<stop  offset="0" style="stop-color:#FFF784;stop-opacity:0.603"/>
			<stop  offset="1" style="stop-color:#FFF18E;stop-opacity:0.614"/>
		</linearGradient>
		
			<path id="region-5-1_00000024722247681356255590000011779992222178971292_" style="fill:url(#region-5-1_00000183208294646670263800000001285020734379226036_);stroke:#000000;stroke-width:2;stroke-miterlimit:10;" d="
			M2038.9,122.2c-3.5,9.5-7.4,20.1-8.7,23.5l-2.3,6.1l13.4,6.8c7.4,3.7,13.6,6.5,13.8,6.3c0.3-0.4,15.1-43.2,16.2-46.9
			c0.4-1.1-3-3-12.3-7.3c-7-3.1-13-5.7-13.3-5.7C2045.4,105,2042.3,112.8,2038.9,122.2z"/>
	</g>
	<line class="st3" x1="1179" y1="1.1" x2="1179" y2="671"/>
	<line class="st3" x1="1572" y1="1.1" x2="1572" y2="671"/>
	<line class="st3" x1="1965" y1="0" x2="1965" y2="671"/>
</g>
</svg>
