<?xml version="1.0" encoding="UTF-8"?>
<svg xmlns="http://www.w3.org/2000/svg" xmlns:xlink="http://www.w3.org/1999/xlink" viewBox="0 0 1149 600.2">
  <defs>
    <style>
      .cls-1 {
        fill: url(#_未命名的渐变_5);
      }

      .cls-2 {
        fill: url(#_未命名的渐变_4-2);
      }

      .cls-3 {
        fill: url(#_未命名的渐变_4);
      }

      .cls-4 {
        fill: url(#_未命名的渐变_5-2);
      }

      .cls-5 {
        fill: url(#_未命名的渐变_3-2);
      }

      .cls-6 {
        stroke: #000;
        stroke-miterlimit: 10;
        stroke-width: 2px;
      }

      .cls-6, .cls-7 {
        fill: none;
      }

      .cls-8 {
        clip-path: url(#clippath);
      }

      .cls-9 {
        fill: #d3d3d3;
      }

      .cls-10 {
        fill: url(#_未命名的渐变_2-2);
      }

      .cls-11 {
        fill: url(#_未命名的渐变_6);
      }

      .cls-12 {
        fill: url(#_未命名的渐变_2);
      }

      .cls-13 {
        fill: url(#_未命名的渐变_3);
      }

      .cls-14 {
        fill: url(#SVGID_0000004992215559029419378);
      }
    </style>
    <clipPath id="clippath">
      <rect class="cls-7" width="1149" height="600"/>
    </clipPath>
    <pattern id="SVGID_0000004992215559029419378" data-name="SVGID 0000004992215559029419378" x="0" y="0" width="40" height="40" patternTransform="translate(.67 -21.91) scale(1 -1)" patternUnits="userSpaceOnUse" viewBox="0 0 40 40">
      <g>
        <rect class="cls-7" width="40" height="40"/>
        <g>
          <rect class="cls-7" width="40" height="40"/>
          <g>
            <rect class="cls-7" width="40" height="40"/>
            <g>
              <rect class="cls-7" width="40" height="40"/>
              <g>
                <polygon class="cls-7" points="0 0 40 0 40 40 0 40 0 0"/>
                <polygon class="cls-9" points="0 20 20 20 20 40 0 40 0 20"/>
                <polygon class="cls-9" points="20 0 40 0 40 20 20 20 20 0"/>
              </g>
            </g>
          </g>
        </g>
      </g>
    </pattern>
    <linearGradient id="_未命名的渐变_6" data-name="未命名的渐变 6" x1="-14.29" y1="635.26" x2="-14.29" y2="636.26" gradientTransform="translate(5666.33 -381153.56) scale(383 600)" gradientUnits="userSpaceOnUse">
      <stop offset="0" stop-color="#fefeff"/>
      <stop offset="1" stop-color="#fffeff"/>
    </linearGradient>
    <linearGradient id="_未命名的渐变_2" data-name="未命名的渐变 2" x1="-14.28" y1="635.3" x2="-14.28" y2="636.3" gradientTransform="translate(4940.42 -210382.4) scale(331.5 331.2)" gradientUnits="userSpaceOnUse">
      <stop offset="0" stop-color="#5880c8"/>
      <stop offset="1" stop-color="#fff"/>
    </linearGradient>
    <linearGradient id="_未命名的渐变_3" data-name="未命名的渐变 3" x1="-14.71" y1="635.26" x2="-13.8" y2="636.43" gradientTransform="translate(4594.58 -194157.37) scale(306.5 306)" gradientUnits="userSpaceOnUse">
      <stop offset="0" stop-color="#d68900" stop-opacity=".65"/>
      <stop offset="1" stop-color="#ffff01" stop-opacity="0"/>
    </linearGradient>
    <linearGradient id="_未命名的渐变_4" data-name="未命名的渐变 4" x1="-14.28" y1="635.31" x2="-14.28" y2="636.31" gradientTransform="translate(4769.92 -204291.53) scale(322.5 322)" gradientUnits="userSpaceOnUse">
      <stop offset="0" stop-color="#f9cd3e" stop-opacity=".71"/>
      <stop offset="1" stop-color="#f2a186" stop-opacity=".37"/>
    </linearGradient>
    <linearGradient id="_未命名的渐变_5" data-name="未命名的渐变 5" x1="-14.4" y1="635.24" x2="-14.11" y2="636.61" gradientTransform="translate(4441.58 -186781.99) scale(294.5 294)" gradientUnits="userSpaceOnUse">
      <stop offset="0" stop-color="#bbe559" stop-opacity=".42"/>
      <stop offset="1" stop-color="#08a437"/>
    </linearGradient>
    <linearGradient id="_未命名的渐变_2-2" data-name="未命名的渐变 2" x1="-13.12" x2="-13.12" xlink:href="#_未命名的渐变_2"/>
    <linearGradient id="_未命名的渐变_3-2" data-name="未命名的渐变 3" x1="-12.21" y1="635.25" x2="-11.31" y2="636.43" xlink:href="#_未命名的渐变_3"/>
    <linearGradient id="_未命名的渐变_4-2" data-name="未命名的渐变 4" x1="-13.09" x2="-13.09" xlink:href="#_未命名的渐变_4"/>
    <linearGradient id="_未命名的渐变_5-2" data-name="未命名的渐变 5" x1="-11.81" y1="635.23" x2="-11.51" y2="636.6" xlink:href="#_未命名的渐变_5"/>
  </defs>
  <g id="_图层_1" data-name="图层 1">
    <g class="cls-8">
      <rect class="cls-14" width="1148.25" height="599.61"/>
    </g>
    <path class="cls-11" d="M2.17,300.2v300H385.17V.2H2.17V300.2Z"/>
    <path class="cls-12" d="M69.87,60l-29.7,29.7,50.8,50.8c27.9,27.9,51,50.5,51.3,50.3,.3-.3,3,2,6,5.1s4.5,5.1,3.4,4.3,2.6,3.3,8.3,9.1c5.6,5.7,10.2,10.9,10.2,11.4,0,1.3,22.2,23.5,23.5,23.5,.6,0,27.4,26.4,59.7,58.7l58.8,58.8,29.7-29.8,29.8-29.7-59-59c-32.4-32.4-58.7-59.2-58.3-59.5,.6-.6-11.4-12.5-12.6-12.5-.4,0-32.5-31.6-71.3-70.3C131.77,62.3,99.87,30.6,99.77,30.5s-13.6,13.1-29.9,29.5Z"/>
    <path class="cls-13" d="M190.87,373.9l-125.7,125.8,27.2,27.2,27.3,27.3,27.2-27.2c14.9-14.9,27-27.5,26.8-27.8-.5-.8,29.3-30.6,30.1-30.2,.3,.2,.9,0,1.2-.4,.4-.4,0-.3-.8,.1-1,.5-.8,.1,.4-1.3,2.1-2.4,3.1-2.9,2-1-.4,.7,.5,.2,1.9-1.1,1.5-1.3,2.4-2.8,2-3.4-.3-.6-.2-.7,.3-.4,.6,.3,37-35.4,80.9-79.4l80-79.9-27-27c-14.8-14.8-27.2-27-27.5-27s-57.1,56.6-126.3,125.7Z"/>
    <path class="cls-3" d="M27.87,302c-13.6,13.6-24.7,25.2-24.7,25.7,0,.6,26.1,27.1,58,59s58,58.5,58,59.1c0,1.3,3.5,4.6,4.1,3.9,.3-.2,34.2,33.3,75.4,74.5s75.4,75,76,75,12.3-11.3,26-25l25-25-136-136C114.87,338.4,53.47,277.2,53.17,277.2s-11.6,11.1-25.3,24.8Z"/>
    <path class="cls-1" d="M210.87,122l-120.7,120.7,26.3,26.3,26.2,26.2,121-121,121-121-26-26c-14.3-14.3-26.2-26-26.5-26s-54.8,54.3-121.3,120.8Z"/>
  </g>
  <g id="_图层_2" data-name="图层 2">
    <path class="cls-10" d="M453.87,60l-29.7,29.7,50.8,50.8c27.9,27.9,51,50.5,51.3,50.3,.3-.3,3,2,6,5.1s4.5,5.1,3.4,4.3,2.6,3.3,8.3,9.1c5.6,5.7,10.2,10.9,10.2,11.4,0,1.3,22.2,23.5,23.5,23.5,.6,0,27.4,26.4,59.7,58.7l58.8,58.8,29.7-29.8,29.8-29.7-59-59c-32.4-32.4-58.7-59.2-58.3-59.5,.6-.6-11.4-12.5-12.6-12.5-.4,0-32.5-31.6-71.3-70.3-38.7-38.6-70.6-70.3-70.7-70.4s-13.6,13.1-29.9,29.5Z"/>
    <path class="cls-5" d="M954.87,372.9l-125.7,125.8,27.2,27.2,27.3,27.3,27.2-27.2c14.9-14.9,27-27.5,26.8-27.8-.5-.8,29.3-30.6,30.1-30.2,.3,.2,.9,0,1.2-.4,.4-.4,0-.3-.8,.1-1,.5-.8,.1,.4-1.3,2.1-2.4,3.1-2.9,2-1-.4,.7,.5,.2,1.9-1.1,1.5-1.3,2.4-2.8,2-3.4-.3-.6-.2-.7,.3-.4,.6,.3,37-35.4,80.9-79.4l80-79.9-27-27c-14.8-14.8-27.2-27-27.5-27s-57.1,56.6-126.3,125.7Z"/>
    <path class="cls-2" d="M411.87,302c-13.6,13.6-24.7,25.2-24.7,25.7,0,.6,26.1,27.1,58,59s58,58.5,58,59.1c0,1.3,3.5,4.6,4.1,3.9,.3-.2,34.2,33.3,75.4,74.5s75.4,75,76,75,12.3-11.3,26-25l25-25-136-136c-74.8-74.8-136.2-136-136.5-136s-11.6,11.1-25.3,24.8Z"/>
    <path class="cls-4" d="M974.87,121l-120.7,120.7,26.3,26.3,26.2,26.2,121-121,121-121-26-26c-14.3-14.3-26.2-26-26.5-26s-54.8,54.3-121.3,120.8Z"/>
    <line class="cls-6" x1="766.17" y1="1.2" x2="766.17" y2="599.2"/>
  </g>
</svg>