<?xml version="1.0" encoding="utf-8"?>
<!-- Generator: Adobe Illustrator 26.5.0, SVG Export Plug-In . SVG Version: 6.00 Build 0)  -->
<svg version="1.1" id="图层_1" xmlns="http://www.w3.org/2000/svg" xmlns:xlink="http://www.w3.org/1999/xlink" x="0px" y="0px"
	 viewBox="0 0 2400 464" style="enable-background:new 0 0 2400 464;" xml:space="preserve">
<style type="text/css">
	.st0{fill:none;}
	.st1{fill:#D3D3D3;}
	.st2{clip-path:url(#SVGID_00000168816743577525875160000007052215118239224767_);}
	.st3{fill:url(#SVGID_00000103237239148894471230000007067666222466476447_);}
	.st4{fill:url(#SVGID_00000127733861121852563190000012261683400991194295_);}
	.st5{fill:url(#SVGID_00000136413941438080490250000002613937678068604849_);}
	.st6{fill:url(#SVGID_00000072990706215670661510000017801500013816933279_);}
	.st7{fill:url(#SVGID_00000136386481135639877720000001395887091536060318_);}
	.st8{fill:url(#SVGID_00000175323514448218520530000001111194403674794155_);}
	.st9{fill:url(#SVGID_00000002362475479540891670000014962819323884282533_);}
	.st10{fill:url(#SVGID_00000013887680353545723680000017240930676605475981_);}
	.st11{fill:url(#SVGID_00000165935176734099515740000009253594814156706184_);}
	.st12{fill:url(#SVGID_00000159458554188030629010000004075920488947476650_);}
	.st13{fill:url(#SVGID_00000181774134752308727960000005170793573255718309_);}
	.st14{fill:url(#SVGID_00000051354266342562606640000014555619627496594345_);}
	.st15{fill:url(#SVGID_00000041288215244299857630000015676431033544694666_);}
	.st16{fill:url(#SVGID_00000122703914757215132460000004641135895836264347_);}
	.st17{fill:url(#SVGID_00000011008317775883737180000015110495716930275505_);}
	.st18{fill:url(#SVGID_00000104666621627904087300000011819948853284347792_);}
	.st19{fill:url(#SVGID_00000013875604453691262510000013730047485044565673_);}
	.st20{fill:url(#SVGID_00000014612954282720847360000004067553573106862746_);}
	.st21{fill:url(#SVGID_00000042720318973369931470000004560437439014972336_);}
	.st22{fill:url(#SVGID_00000134963445635578438540000014002103462700911279_);}
	.st23{fill:none;stroke:#000000;stroke-width:2;stroke-miterlimit:10;}
</style>
<pattern  y="464" width="40" height="40" patternUnits="userSpaceOnUse" id="SVGID_0000004992215559029419378" viewBox="0 -40 40 40" style="overflow:visible;">
	<g>
		<rect y="-40" class="st0" width="40" height="40"/>
		<g>
			<rect y="-40" class="st0" width="40" height="40"/>
			<g>
				<rect y="-40" class="st0" width="40" height="40"/>
				<g>
					<rect y="-40" class="st0" width="40" height="40"/>
					<g>
						<rect y="-40" class="st0" width="40" height="40"/>
						<g>
							<polygon class="st0" points="0,0 40,0 40,-40 0,-40 							"/>
							<polygon class="st1" points="0,-20 20,-20 20,-40 0,-40 							"/>
							<polygon class="st1" points="20,0 40,0 40,-20 20,-20 							"/>
						</g>
					</g>
				</g>
			</g>
		</g>
	</g>
</pattern>
<g id="_图层_1">
	<g>
		<defs>
			<rect id="SVGID_1_" width="2400" height="462"/>
		</defs>
		<clipPath id="SVGID_00000018205403276920870400000007510132337006246529_">
			<use xlink:href="#SVGID_1_"  style="overflow:visible;"/>
		</clipPath>
		<g style="clip-path:url(#SVGID_00000018205403276920870400000007510132337006246529_);">
			
				<pattern  id="SVGID_00000164488018200786082830000017584438395199409333_" xlink:href="#SVGID_0000004992215559029419378" patternTransform="matrix(1 0 0 1 26.5 1118.11)">
			</pattern>
			<rect style="fill:url(#SVGID_00000164488018200786082830000017584438395199409333_);" width="2398.4" height="461.7"/>
		</g>
	</g>
	
		<linearGradient id="SVGID_00000170263366155501911430000000928303697958030977_" gradientUnits="userSpaceOnUse" x1="689.85" y1="290.7922" x2="690.85" y2="290.7922" gradientTransform="matrix(600 0 0 -462 -413909 134579)">
		<stop  offset="0" style="stop-color:#FFFFFF"/>
		<stop  offset="1" style="stop-color:#FFFFFF"/>
	</linearGradient>
	<path style="fill:url(#SVGID_00000170263366155501911430000000928303697958030977_);" d="M2,233v231h600V2H2V233z"/>
	
		<linearGradient id="SVGID_00000041991553218403661200000013725672963109214399_" gradientUnits="userSpaceOnUse" x1="688.5748" y1="289.985" x2="688.4348" y2="290.065" gradientTransform="matrix(231.92 0 0 -218.61 -159358.7031 63574.3203)">
		<stop  offset="0" style="stop-color:#000101"/>
		<stop  offset="1" style="stop-color:#5D0304"/>
	</linearGradient>
	<path style="fill:url(#SVGID_00000041991553218403661200000013725672963109214399_);" d="M412.9,88.9
		C388.5,113.7,384.6,118,371,134c-4,4.7-9.1,10.6-11.4,13.1c-9.9,11.2-14.2,16.2-15.6,18.3c-0.8,1.2-2.5,3.3-3.6,4.6
		c-14.8,17.1-36.3,42-41.7,48.4c-11.5,13.5-27.9,29.9-36.2,36c-2.2,1.7-4.2,3.3-4.5,3.6s-2.3,1.7-4.5,3s-4.2,2.6-4.5,2.9
		c-1,1.1-12.5,7.1-23.5,12.2c-4.3,2-13.9,4.9-16.2,4.9c-1.2,0-2.3,0.4-2.3,0.9c0,4.6,28-0.6,44.4-8.3c21.7-10.1,62.1-50,93.1-92.1
		c4.8-6.6,10.1-13.6,11.7-15.5s3.2-4,3.6-4.5c0.4-0.6,9.1-11.1,19.2-23.5c16.3-19.7,22.1-26.3,39.3-44.5c2.1-2.2,7.8-9.2,12.7-15.6
		c7.1-9.3,8.7-11.9,7.6-12.8C437.6,64.3,431.9,69.6,412.9,88.9L412.9,88.9z"/>
	
		<linearGradient id="SVGID_00000156584507459353186740000004824082677018446507_" gradientUnits="userSpaceOnUse" x1="689.7822" y1="290.1724" x2="689.5922" y2="290.3724" gradientTransform="matrix(372.89 0 0 -273.21 -256878.625 79497.7578)">
		<stop  offset="0" style="stop-color:#EFA9B5"/>
		<stop  offset="1" style="stop-color:#FCDDEA"/>
	</linearGradient>
	<path style="fill:url(#SVGID_00000156584507459353186740000004824082677018446507_);" d="M445.8,56.2c-4.6,4.9-7.4,8.6-6.8,9.2
		c0.9,0.9-13.5,20.5-20.7,28.1c-17.2,18.2-23,24.8-39.3,44.5c-10.1,12.4-18.8,22.9-19.2,23.5c-0.4,0.5-2,2.6-3.6,4.5
		s-6.9,8.9-11.7,15.5c-24.9,33.7-58,68.6-80.7,84.8c-17,12.1-41.1,18.6-60.5,16.2c-4.3-0.6-5.3-0.4-5.3,0.7
		c0,1.7-11.7,8.9-17.4,10.8c-11.8,3.8-15.2,4.2-47.6,4.8c-17.9,0.4-33.1,1.1-33.8,1.5c-1.8,1.2,3.4,8.2,7.5,10.2
		c5.2,2.5,21.5,8.7,26.4,10c11.9,3.2,70.2-5.8,87.9-13.6c7.6-3.4,11.7-8.3,13.4-16.1c1-4.6,6.3-9.5,14.4-13.4
		c4.2-2.1,7.9-4.1,8.2-4.4s1.7-1.1,3.3-1.9c1.5-0.8,2.7-1.8,2.7-2.3c0-0.4,0.4-0.8,0.9-0.8s2-0.9,3.3-2c1.2-1,5.9-4.9,10.3-8.6
		c12-9.9,18.6-16.4,33.7-32.9c7.5-8.3,16.8-17.9,20.5-21.5s6.7-6.8,6.5-7.3c-0.1-0.4,0.2-0.7,0.8-0.7c0.5,0,1-0.7,1-1.5
		s0.4-1.5,1-1.5c0.5,0,1.2-1.1,1.6-2.5c0.3-1.4,1-2.5,1.5-2.5s0.9-0.5,0.9-1c0-2.2,8-8.8,12.6-10.5c2.7-0.9,6.5-2.4,8.4-3.3
		c1.9-0.8,4.9-2.1,6.5-2.7c3.4-1.4,33.6-16.3,47-23.2c5-2.5,9.9-4.9,11-5.3s4-1.7,6.5-2.8c2.5-1.2,10.2-3.7,17-5.7
		c12.6-3.6,15.7-5.3,16.2-9c0.2-1.1,0.6-2.5,1-3c1.3-2.1,0-17.1-2-22.3c-1.1-2.8-1.9-5.2-1.7-5.2s-0.3-1.6-1.1-3.5s-1.4-3.7-1.4-4
		s0-0.6-0.1-0.8c0-0.1-0.2-1-0.5-2c-0.5-2.3-0.9-3.5-2.2-8.2c-0.6-2.2-1.4-5.5-1.7-7.4c-0.3-1.8-1.2-4.5-1.9-6
		c-1.2-2.2-1.2-3,0.1-5.5c1.1-2.2,1.2-3.4,0.4-5.2C457.1,46,454,47.3,445.8,56.2L445.8,56.2z"/>
	
		<linearGradient id="SVGID_00000000914472100587357490000013158073938639002280_" gradientUnits="userSpaceOnUse" x1="678.6989" y1="288.9781" x2="677.5789" y2="289.0982" gradientTransform="matrix(53.54 0 0 -128.15 -35878.582 37277.4062)">
		<stop  offset="0" style="stop-color:#78263B"/>
		<stop  offset="1" style="stop-color:#8C898B"/>
	</linearGradient>
	<path style="fill:url(#SVGID_00000000914472100587357490000013158073938639002280_);" d="M478,184.7c-1.4,0.9-2.7,2-3,2.3
		c-1,1.3-12.1,8-13.3,8c-0.6,0-2.1,0.7-3.1,1.5c-1.1,0.8-2.6,1.5-3.4,1.5c-0.7,0-6.5,3.4-12.9,7.6l-11.5,7.5l2.6,2.8
		c1.4,1.5,2.6,3.7,2.6,4.9c0,1.3,0.7,2.5,1.6,2.9c0.8,0.3,1.3,1.1,1,1.9c-0.3,0.7,0,1.4,0.5,1.6s1.1,1.3,1.2,2.6
		c0,1.2,0.6,2.2,1.1,2.2s0.6,0.3,0.3,0.7c-0.4,0.3-0.3,1.1,0.2,1.7s1.6,4.5,2.4,8.6c1.5,7.6,2,11.6,5.8,47
		c2.1,20.5,3.5,25.1,5.4,18.3c0.6-2.1,1.7-3.8,2.4-3.8c0.8,0,1.5-0.7,1.6-1.5c0.2-0.8,0.6-3.5,0.9-6c0.4-2.5,0.9-5.7,1.2-7.2
		s0.7-3.9,0.9-5.5c0.2-1.5,0.7-3.9,1-5.3s1.4-10.2,2.5-19.5c1.1-9.4,2.2-18.3,2.5-20c1.2-6.1,7.2-26,13.6-44.8
		c2.3-6.9,2.7-9.2,1.8-10.3C482.4,182.6,481,182.6,478,184.7L478,184.7z"/>
	
		<linearGradient id="SVGID_00000021826744345606823670000013693388455133418638_" gradientUnits="userSpaceOnUse" x1="689.3886" y1="290.6083" x2="690.3886" y2="290.6083" gradientTransform="matrix(427.61 0 0 -365.85 -294710.5938 106551.0078)">
		<stop  offset="0" style="stop-color:#89090B"/>
		<stop  offset="1" style="stop-color:#89090B"/>
	</linearGradient>
	<path style="fill:url(#SVGID_00000021826744345606823670000013693388455133418638_);" d="M459.4,50.8c0.4,1.2,0.1,3.4-0.8,4.9
		c-1.2,2.4-1.2,3.2,0,5.4c0.7,1.5,1.6,4.2,1.9,6c0.5,2.8,1.6,7,3.1,12.4c0.2,0.5,0.5,1.7,0.6,2.5c0.2,0.8,0.7,2.1,1.1,2.7
		c0.5,0.7,0.6,1.3,0.2,1.3c-0.3,0,0.1,1.6,0.9,3.5s1.3,3.5,1.1,3.5s0.6,2.4,1.7,5.2c2,5.2,3.3,20.2,2,22.3c-0.4,0.5-0.8,1.9-1,3
		c-0.5,3.7-3.6,5.4-16.2,9c-6.8,2-14.5,4.5-17,5.7c-2.5,1.1-5.4,2.4-6.5,2.8s-6,2.8-11,5.3c-13,6.7-43.4,21.7-47.5,23.4
		c-1.9,0.8-4.8,2.1-6.5,2.8c-1.6,0.7-5.2,2.1-7.9,3c-4.6,1.7-12.6,8.3-12.6,10.5c0,0.5-0.4,1-0.9,1s-1.2,1.1-1.5,2.5
		c-0.4,1.4-1.1,2.5-1.6,2.5c-0.6,0-1,0.7-1,1.5s-0.5,1.5-1,1.5c-0.6,0-0.9,0.3-0.8,0.7c0.2,0.5-2.8,3.7-6.5,7.3s-13,13.2-20.5,21.5
		c-15.1,16.5-21.7,23-33.7,32.9c-4.4,3.7-9.1,7.6-10.3,8.6c-1.3,1.1-2.8,2-3.3,2s-0.9,0.4-0.9,0.8c0,0.5-1.2,1.5-2.7,2.3
		c-1.6,0.8-3,1.6-3.3,1.9s-4,2.3-8.2,4.4c-8.1,3.9-13.4,8.8-14.4,13.4c-1.7,7.8-5.8,12.7-13.4,16.1c-17.7,7.8-76,16.8-87.9,13.6
		c-4.9-1.3-21.2-7.5-26.4-10c-4.1-2-9.3-9-7.5-10.2c0.7-0.4,15.9-1.1,33.8-1.5c32.4-0.6,35.8-1,47.6-4.8c5.8-1.9,17.4-9.1,17.4-10.8
		c0-2.3-16.4-1.2-21.6,1.4c-2.1,1.1-5.9,2.6-8.4,3.2s-5.6,1.4-7,1.7c-1.4,0.4-16,1-32.5,1.4c-28.2,0.8-30.3,1-34.8,3.1
		c-2.6,1.2-6.1,3.8-7.6,5.7c-4.7,5.7-7.6,16.8-7.2,27.5l0.1,2.7l9.8-0.6c8.1-0.5,12-0.1,23.7,2.1c7.7,1.5,18.5,3.6,24,4.6
		c28.5,5.5,51.4,8.3,77,9.4c4.4,0.2,10.9,0.7,14.5,1.2c3.6,0.4,8.5,0.7,11,0.6c2.5,0,11.5-0.3,20-0.5c18.1-0.5,22.4-1.6,31.5-8
		c2.2-1.5,5.6-3.8,7.5-5.1c9.1-6.2,21-22.3,26.6-35.9c4.2-10.4,8.3-16.8,19.5-30.2c10.3-12.2,47.6-49.7,58-58.2
		c12.6-10.3,32.9-19.8,61.2-28.9c6.2-2,12.7-4.2,14.5-5c3.7-1.6,10.2-1.9,10.2-0.5c0,0.5-1.2,2.4-2.7,4.1c-2.2,2.7-2.5,3.5-1.5,5.1
		s0.7,3.5-1.7,10.7c-6.4,18.7-12.4,38.6-13.6,44.7c-0.3,1.7-1.4,10.6-2.5,20c-1.1,9.3-2.2,18.1-2.5,19.5s-0.8,3.8-1,5.3
		c-0.2,1.6-0.6,4-0.9,5.5s-0.8,4.7-1.2,7.2c-0.3,2.5-0.7,5.2-0.9,6c-0.1,0.8-0.8,1.5-1.6,1.5c-0.7,0-1.8,1.7-2.4,3.8
		c-1.9,6.8-3.3,2.2-5.4-18.3c-3.8-35.4-4.3-39.4-5.8-47c-0.8-4.1-1.9-8-2.4-8.6s-0.6-1.4-0.2-1.7c0.3-0.4,0.2-0.7-0.3-0.7
		s-1.1-1-1.1-2.2c-0.1-1.3-0.7-2.4-1.2-2.6s-0.8-0.9-0.5-1.6c0.3-0.8-0.2-1.6-1-1.9c-0.9-0.4-1.6-1.7-1.6-3s-1.3-3.5-2.8-5
		c-2.9-2.8-3.5-2.7-8.1,1c-0.2,0.1,0.3,1.1,1.1,2c2.4,2.7,8.8,15.4,8.8,17.3c0,0.9,0.9,4.3,2,7.6c3.9,11.3,7.5,30,6.1,32.3
		c-0.5,0.7-0.4,2.9,0,5c0.5,2,1.4,8.1,1.9,13.6s1.4,13.8,2,18.5c2,16.2,3.8,38.6,5.5,67.5c1.7,28.7,1.8,29,4.3,31.8
		c3.9,4.1,8.9,3.3,11.5-2.1c1.1-2.2,1.2-5.6,0.4-17.7c-1.4-22.9-1.4-95.6,0.1-111c3.3-33.6,10.5-60.3,25.1-93.1
		c3.9-8.8,7.1-16.8,7.1-17.6c0-0.9,0.5-2,1-2.3c2.1-1.3,4.1-8.2,4.4-15c0.9-19.6-6.4-39.7-27.4-76.1
		C468.3,58.8,457.2,43.8,459.4,50.8L459.4,50.8z"/>
	
		<linearGradient id="SVGID_00000122001599174729013670000006034645266342465420_" gradientUnits="userSpaceOnUse" x1="688.6778" y1="287.1023" x2="688.6078" y2="288.2623" gradientTransform="matrix(239.14 0 0 -84.16 -164477.4844 24586.9219)">
		<stop  offset="0" style="stop-color:#B4182E"/>
		<stop  offset="1" style="stop-color:#CE4852"/>
	</linearGradient>
	<path style="fill:url(#SVGID_00000122001599174729013670000006034645266342465420_);" d="M311.7,343.5c-6.9,6.6-17.1,13.6-20,13.9
		c-1.2,0.2-3.3,0.9-4.7,1.7c-1.4,0.7-2.8,1.4-3.2,1.5c-0.5,0.1-0.9,0.2-1,0.4c-0.3,0.2-1.8,0.5-5.6,1.4c-1.2,0.3-2.6,0.7-3.1,1.1
		c-3.5,2.1-43.1,1.1-61.1-1.6c-3.6-0.5-9-1.2-12-1.5s-6.2-0.7-7-1s-3.7-0.7-6.5-1c-2.7-0.2-6.5-0.7-8.3-1c-1.7-0.3-4.7-0.7-6.5-0.9
		c-3-0.4-7.7-1.1-14.1-2c-1.5-0.2-3.5-0.7-4.5-0.9c-0.9-0.3-3.6-0.8-6.1-1.1s-5.2-0.8-6-1c-1.4-0.4-6.2-1.3-10.5-2
		c-1.1-0.2-3.8-0.6-6-0.9c-2.2-0.4-7.1-1.1-11-1.7c-3.8-0.6-8.1-1.3-9.5-1.6c-1.4-0.4-2.8-0.6-3.2-0.5s-2.5-0.5-4.7-1.3
		c-2.3-0.8-4.4-1.4-4.6-1.4c-0.3,0-3-0.5-6.1-1.1c-3.1-0.7-5.8-1-6-0.7c-0.3,0.2,0,1.6,0.5,2.9c0.6,1.7,0.6,4-0.1,6.6
		c-1.3,5.1,0.4,17.2,2.7,18.4c0.8,0.5,1.5,1.4,1.5,2.1c0.1,1.4,5.5,4.8,16,9.9c9.6,4.7,28.9,12.9,31.5,13.3c1.1,0.2,4.4,1.5,7.2,2.9
		c2.9,1.4,5.5,2.6,5.8,2.6c0.8,0,25.6,8.9,28,10c4,2,21.8,7,29.8,8.5c4.5,0.8,10.5,1.9,13.2,2.4c2.8,0.6,12.1,1.4,20.9,2
		c17.1,1,21.5,0.4,29.4-4.1c4.2-2.4,15.4-13.4,17.3-17c0.6-1.3,2.5-3.9,4-5.9c1.6-2,2.6-3.9,2.2-4.3c-0.3-0.3-0.2-0.6,0.4-0.6
		c1.3,0,2.6-2.1,20.5-33.5c3.6-6.3,8.6-17.1,8.2-17.7C318.5,337.4,317.6,338,311.7,343.5L311.7,343.5z"/>
	
		<linearGradient id="SVGID_00000109732280719989586910000008046573000459684515_" gradientUnits="userSpaceOnUse" x1="688.2675" y1="284.9234" x2="689.2675" y2="284.9234" gradientTransform="matrix(251.98 0 0 -49.63 -173350.7969 14480.5615)">
		<stop  offset="0" style="stop-color:#A81318"/>
		<stop  offset="1" style="stop-color:#A81318"/>
	</linearGradient>
	<path style="fill:url(#SVGID_00000109732280719989586910000008046573000459684515_);" d="M320.2,324.2c-8.5,12.9-13,17.2-28.2,27.2
		c-11.5,7.5-14.2,8.1-33,7.9c-9.1-0.1-23.5-1-32-1.8c-26.6-2.7-79.1-10.8-109.4-16.9c-34.4-7-36.9-7.3-39.4-5.7
		c-1.1,0.7-1.1,2.3-0.2,8.9c0.7,4.5,1.6,8,2,7.7c1.3-0.8,1.8-5.8,0.9-8.3c-0.5-1.4-0.8-2.7-0.5-2.9c0.2-0.3,2.9,0,6,0.7
		c3.1,0.6,5.8,1.1,6.1,1.1c0.2,0,2.3,0.6,4.6,1.4c2.2,0.8,4.3,1.4,4.7,1.3s1.8,0.1,3.2,0.5c1.4,0.3,5.7,1,9.5,1.6
		c3.9,0.6,8.8,1.3,11,1.7c2.2,0.3,4.9,0.7,6,0.9c4.3,0.7,9.1,1.6,10.5,2c0.8,0.2,3.5,0.7,6,1s5.2,0.8,6.1,1.1c1,0.2,3,0.7,4.5,0.9
		c7.3,1.1,10.7,1.5,13.9,2c1.9,0.2,5,0.6,6.7,0.9c1.8,0.3,5.6,0.8,8.3,1c2.8,0.3,5.7,0.7,6.5,1s4,0.7,7,1s8.4,1,12,1.5
		c18,2.7,57.6,3.7,61.1,1.6c0.5-0.4,1.9-0.8,3.1-1.1c3.8-0.9,5.3-1.2,5.6-1.4c0.1-0.2,0.5-0.3,1-0.4c0.4-0.1,1.8-0.8,3.2-1.5
		c1.4-0.8,3.5-1.5,4.7-1.7c2.9-0.3,12.4-6.9,20.8-14.5c8.9-8,9.9-9.3,11.5-15.4c0.7-2.8,2.4-6.4,3.7-8.1c2.2-3,2.2-4.4-0.2-4.4
		C326.8,315,323.5,319.2,320.2,324.2L320.2,324.2z"/>
	
		<linearGradient id="SVGID_00000116937636374534598100000014110613712976261539_" gradientUnits="userSpaceOnUse" x1="689.3114" y1="290.2072" x2="690.3114" y2="290.2072" gradientTransform="matrix(407.76 0 0 -253.35 -280991.7188 73824.7422)">
		<stop  offset="0" style="stop-color:#B35961"/>
		<stop  offset="1" style="stop-color:#B35961"/>
	</linearGradient>
	<path style="fill:url(#SVGID_00000116937636374534598100000014110613712976261539_);" d="M477.5,175.5c-1.6,0.7-8,2.9-14.2,4.9
		c-28.4,9.1-48.6,18.6-61.2,28.9c-10.4,8.5-47.7,46-58,58.2c-11.2,13.4-15.3,19.8-19.5,30.2c-5.6,13.6-17.5,29.7-26.6,35.9
		c-1.9,1.3-5.3,3.6-7.5,5.1c-9.1,6.4-13.4,7.5-31.5,8c-8.5,0.2-17.5,0.5-20,0.5c-2.5,0.1-7.4-0.2-11-0.6c-3.6-0.5-10.1-1-14.5-1.2
		c-19.4-0.8-41.1-3-54.5-5.4c-18.4-3.2-36.1-6.5-46.7-8.6c-17.6-3.5-32.3-3.1-32.3,0.7c0,1.3,0.7,1.9,2.1,1.9
		c2.1,0,12.3,1.9,35.5,6.6c30.3,6.1,82.8,14.2,109.4,16.9c8.5,0.8,22.9,1.7,32,1.8c18.8,0.2,21.5-0.4,33-7.9
		c15.2-10,19.7-14.3,28.2-27.2c3.3-5,6.6-9.2,7.3-9.2c2.4,0,2.4,1.4,0.2,4.4c-1.3,1.7-2.9,5.3-3.7,8.1c-0.7,2.7-2,5.8-2.8,6.7
		c-0.8,1-1.6,2.9-1.7,4.2c-0.3,2.2-4.6,11.6-8.3,18.1c-5,8.8-15.3,26.7-17.2,29.7c-1.2,2.1-2.7,3.8-3.3,3.8s-0.7,0.3-0.4,0.6
		c0.4,0.4-0.6,2.3-2.2,4.3c-1.5,2-3.4,4.6-4,5.9c-1.9,3.6-13.1,14.6-17.3,17c-7.9,4.5-12.3,5.1-29.4,4.1c-8.8-0.6-18.1-1.4-20.9-2
		c-2.7-0.5-8.7-1.6-13.2-2.4c-8-1.5-25.8-6.5-29.8-8.5c-2.4-1.1-27.2-10-28-10c-0.3,0-2.9-1.2-5.8-2.6c-2.8-1.4-6.1-2.7-7.2-2.9
		c-5-0.8-35.6-14.7-42.9-19.4c-3.7-2.5-3.9-2.5-5.2-0.6c-1.3,1.7-1.2,2.2,0.8,3.8c5,4,36.3,17.7,67.1,29.3
		c41.2,15.6,72.3,22.2,95.9,20.6c10.2-0.7,12.4-1.2,18.5-4.2c11.6-5.6,22.3-18.1,37.1-42.9C310.4,369,328,334,328,332
		c0-0.9,0.9-2.9,2-4.3s3.2-5.1,4.6-8.2c3.6-7.8,10.5-18.4,14.7-22.3c0.9-0.9,1.7-2.2,1.7-2.8c0-0.7,0.7-1.4,1.5-1.8
		c0.8-0.3,1.5-1,1.5-1.6c0-0.9,0.8-1.9,5.8-7.3c0.9-1.1,1.6-2.3,1.5-2.8c-0.2-0.5,0.8-1.6,2.2-2.5s2.5-2.2,2.5-3
		c0-0.7,1.6-2.6,3.5-4.1s3.5-3.3,3.5-3.9c0-1,12.2-13.1,24.6-24.3c11.9-10.8,19.4-18.4,19.4-19.8c0-2.5,1.8-1.3,5.3,3.4
		c6.6,9.2,13.6,26.5,16.9,41.7c1.4,6.8,2.7,9.3,3.9,7.5c1.4-2.3-2.1-20.9-6.1-32.3c-1.1-3.3-2-6.7-2-7.6c0-1.9-6.4-14.6-8.8-17.3
		c-0.8-0.9-1.3-1.9-1.1-2.1s2.4-1.6,4.8-3.1s8.8-5.6,14.2-9.1s10.4-6.4,11.1-6.4c0.8,0,2.3-0.7,3.4-1.5c1-0.8,2.5-1.5,3.1-1.5
		c1.5,0,11.9-6.5,14.8-9.2c1.1-1,2.9-2.1,4-2.4c2-0.6,6-4.9,7.1-7.8c0.5-1.3-0.1-1.6-3.2-1.5C482.2,174.1,479.2,174.7,477.5,175.5
		L477.5,175.5z"/>
	
		<linearGradient id="SVGID_00000107581587040409303370000004285888501342876334_" gradientUnits="userSpaceOnUse" x1="689.7255" y1="290.5691" x2="690.3055" y2="290.1391" gradientTransform="matrix(427.61 0 0 -311.18 -294710 90585.5703)">
		<stop  offset="0" style="stop-color:#FF0000;stop-opacity:0.2"/>
		<stop  offset="1" style="stop-color:#FF0000;stop-opacity:0.36"/>
	</linearGradient>
	<path style="fill:url(#SVGID_00000107581587040409303370000004285888501342876334_);" d="M445.8,56.2c-4.6,4.9-7.4,8.6-6.8,9.2
		c0.9,0.9-13.5,20.5-20.7,28.1c-17.2,18.2-23,24.8-39.3,44.5c-10.1,12.4-18.8,22.9-19.2,23.5c-0.4,0.5-2,2.6-3.6,4.5
		s-6.9,8.9-11.7,15.5c-15.6,21.1-36.4,45-54.4,62.3c-24,23.1-36.3,30.9-58.3,36.7c-9.5,2.5-10.7,2.6-37.3,2.2
		c-12.4-0.2-14.4,0-18,1.9c-2.2,1.1-6,2.6-8.5,3.2s-5.6,1.4-7,1.7c-1.4,0.4-16,1-32.5,1.4c-28.2,0.8-30.3,1-34.8,3.1
		c-6.3,3-10.1,7.7-12.6,15.9c-2.3,7.3-2.8,13.4-1.7,19.8c0.6,3.4,1.2,4.3,2.8,4.3c2,0,12.4,1.9,35.4,6.6
		c30.3,6.1,82.8,14.2,109.4,16.9c8.5,0.8,22.9,1.7,32,1.8c18.8,0.2,21.5-0.4,33-7.9c15.2-10,19.7-14.3,28.2-27.2
		c3.3-5,6.7-9.2,7.4-9.2s2.1-1.4,3-3.1c2.3-4.5,11.2-16.4,22.8-30.7c5.6-6.7,11-13.5,12.1-15s5.6-6.1,9.9-10.2s8.6-8.2,9.5-9
		c1.5-1.5,7.5-6.5,23.3-19.3c3.9-3.1,7.4-5.7,7.8-5.7s3.8-2,7.6-4.5l6.8-4.5l2.8,2.7c1.5,1.5,2.8,3.7,2.8,5s0.7,2.6,1.6,3
		c0.8,0.3,1.3,1.1,1,1.9c-0.3,0.7,0,1.4,0.5,1.6s1.1,1.3,1.2,2.6c0,1.2,0.6,2.2,1.1,2.2s0.6,0.3,0.3,0.7c-0.4,0.3-0.3,1.1,0.2,1.7
		s1.6,4.5,2.4,8.6c1.5,7.6,2,11.6,5.8,47c2.1,20.5,3.5,25.1,5.4,18.3c0.6-2.1,1.7-3.8,2.4-3.8c0.8,0,1.5-0.7,1.6-1.5
		c0.2-0.8,0.6-3.5,0.9-6c0.4-2.5,0.9-5.7,1.2-7.2s0.7-3.9,0.9-5.5c0.2-1.5,0.7-3.9,1-5.3s1.4-10.2,2.5-19.5c1.1-9.4,2.2-18.3,2.5-20
		c1.2-6.1,7.2-26,13.6-44.7c2.4-7.3,2.7-9.1,1.7-10.7c-1-1.7-0.9-2.4,0.9-4.3c1.1-1.3,2.6-3.3,3.2-4.6c0.6-1.2,1.9-2.2,2.7-2.2
		c0.9,0,3.3-0.9,5.3-1.9c2-1.1,4.4-2.2,5.3-2.5c2.6-0.8,4.9-7.3,5.2-15.1c0.6-14.2-4.3-32.4-14-51.8c-7-13.8-21.8-39.1-26.9-45.7
		C457.4,45.5,455.7,45.5,445.8,56.2L445.8,56.2z"/>
	
		<linearGradient id="SVGID_00000181081684113387237020000005729270523229765020_" gradientUnits="userSpaceOnUse" x1="689.066" y1="289.4669" x2="690.0861" y2="290.167" gradientTransform="matrix(333.58 0 0 -205.43 -229732.9062 59878.9141)">
		<stop  offset="0" style="stop-color:#000000;stop-opacity:0.33"/>
		<stop  offset="1" style="stop-color:#000000;stop-opacity:0.67"/>
	</linearGradient>
	<path style="fill:url(#SVGID_00000181081684113387237020000005729270523229765020_);" d="M408.2,227.7
		c-15.8,12.8-21.8,17.8-23.3,19.3c-0.9,0.8-5.2,4.9-9.5,9s-8.8,8.7-9.9,10.2s-6.5,8.3-12.1,15c-16.7,20.4-25.5,33.1-24,34.6
		c0.3,0.3-0.5,1.9-1.7,3.6c-1.3,1.7-2.9,5.3-3.7,8.1c-0.7,2.7-2,5.8-2.8,6.7c-0.8,1-1.6,2.9-1.7,4.2c-0.3,2.2-4.6,11.6-8.3,18.1
		c-5,8.8-15.3,26.7-17.2,29.7c-1.2,2.1-2.7,3.8-3.3,3.8s-0.7,0.3-0.4,0.6c0.4,0.4-0.6,2.3-2.2,4.3c-1.5,2-3.4,4.6-4,5.9
		c-1.9,3.6-13.1,14.6-17.3,17c-7.9,4.5-12.3,5.1-29.4,4.1c-8.8-0.6-18.1-1.4-20.9-2c-2.7-0.5-8.7-1.6-13.2-2.4
		c-8-1.5-25.8-6.5-29.8-8.5c-2.4-1.1-27.2-10-28-10c-0.3,0-2.9-1.2-5.8-2.6c-2.8-1.4-6.1-2.7-7.2-2.9c-5-0.8-35.6-14.7-42.9-19.4
		c-3.7-2.5-3.9-2.5-5.2-0.6c-1.3,1.7-1.2,2.2,0.8,3.8c5,4,36.3,17.7,67.1,29.3c41.2,15.6,72.3,22.2,95.9,20.6
		c10.2-0.7,12.4-1.2,18.5-4.2c11.6-5.6,22.3-18.1,37.1-42.9C310.4,369,328,334,328,332c0-0.9,0.9-2.9,2-4.3s3.2-5.1,4.6-8.2
		c3.6-7.8,10.5-18.4,14.7-22.3c0.9-0.9,1.7-2.2,1.7-2.8c0-0.7,0.7-1.4,1.5-1.8c0.8-0.3,1.5-1,1.5-1.6c0-0.9,0.8-1.9,5.8-7.3
		c0.9-1.1,1.6-2.3,1.5-2.8c-0.2-0.5,0.8-1.6,2.2-2.5s2.5-2.2,2.5-3c0-0.7,1.6-2.6,3.5-4.1s3.5-3.3,3.5-3.9c0-1,12.2-13.1,24.6-24.3
		c16.5-14.9,21.9-21.1,18.6-21.1C415.7,222,412.1,224.6,408.2,227.7L408.2,227.7z"/>
</g>
<g id="_图层_2">
	
		<linearGradient id="SVGID_00000025426210323538450030000001980725857260364424_" gradientUnits="userSpaceOnUse" x1="691.1565" y1="289.988" x2="691.0165" y2="290.068" gradientTransform="matrix(231.92 0 0 -218.61 -159358.7031 63574.3203)">
		<stop  offset="0" style="stop-color:#000101"/>
		<stop  offset="1" style="stop-color:#5D0304"/>
	</linearGradient>
	<path style="fill:url(#SVGID_00000025426210323538450030000001980725857260364424_);" d="M1012.9,88.9
		C988.5,113.7,984.6,118,971,134c-4,4.7-9.1,10.6-11.4,13.1c-9.9,11.2-14.2,16.2-15.6,18.3c-0.8,1.2-2.5,3.3-3.6,4.6
		c-14.8,17.1-36.3,42-41.7,48.4c-11.5,13.5-27.9,29.9-36.2,36c-2.2,1.7-4.2,3.3-4.5,3.6s-2.3,1.7-4.5,3s-4.2,2.6-4.5,2.9
		c-1,1.1-12.5,7.1-23.5,12.2c-4.3,2-13.9,4.9-16.2,4.9c-1.2,0-2.3,0.4-2.3,0.9c0,4.6,28-0.6,44.4-8.3c21.7-10.1,62.1-50,93.1-92.1
		c4.8-6.6,10.1-13.6,11.7-15.5s3.2-4,3.6-4.5c0.4-0.6,9.1-11.1,19.2-23.5c16.3-19.7,22.1-26.3,39.3-44.5c2.1-2.2,7.8-9.2,12.7-15.6
		c7.1-9.3,8.7-11.9,7.6-12.8C1037.6,64.3,1031.9,69.6,1012.9,88.9L1012.9,88.9z"/>
	
		<linearGradient id="SVGID_00000003809505487086197850000017410796097739675837_" gradientUnits="userSpaceOnUse" x1="693.0044" y1="290.1645" x2="692.8144" y2="290.3644" gradientTransform="matrix(372.89 0 0 -273.21 -256878.625 79497.7578)">
		<stop  offset="0" style="stop-color:#EFA9B5"/>
		<stop  offset="1" style="stop-color:#FCDDEA"/>
	</linearGradient>
	<path style="fill:url(#SVGID_00000003809505487086197850000017410796097739675837_);" d="M1645.8,57.2c-4.6,4.9-7.4,8.6-6.8,9.2
		c0.9,0.9-13.5,20.5-20.7,28.1c-17.2,18.2-23,24.8-39.3,44.5c-10.1,12.4-18.8,22.9-19.2,23.5c-0.4,0.5-2,2.6-3.6,4.5
		s-6.9,8.9-11.7,15.5c-24.9,33.7-58,68.6-80.7,84.8c-17,12.1-41.1,18.6-60.5,16.2c-4.3-0.6-5.3-0.4-5.3,0.7
		c0,1.7-11.7,8.9-17.4,10.8c-11.8,3.8-15.2,4.2-47.6,4.8c-17.9,0.4-33.1,1.1-33.8,1.5c-1.8,1.2,3.4,8.2,7.5,10.2
		c5.2,2.5,21.5,8.7,26.4,10c11.9,3.2,70.2-5.8,87.9-13.6c7.6-3.4,11.7-8.3,13.4-16.1c1-4.6,6.3-9.5,14.4-13.4
		c4.2-2.1,7.9-4.1,8.2-4.4s1.7-1.1,3.3-1.9c1.5-0.8,2.7-1.8,2.7-2.3c0-0.4,0.4-0.8,0.9-0.8s2-0.9,3.3-2c1.2-1,5.9-4.9,10.3-8.6
		c12-9.9,18.6-16.4,33.7-32.9c7.5-8.3,16.8-17.9,20.5-21.5s6.7-6.8,6.5-7.3c-0.1-0.4,0.2-0.7,0.8-0.7c0.5,0,1-0.7,1-1.5
		s0.4-1.5,1-1.5c0.5,0,1.2-1.1,1.6-2.5c0.3-1.4,1-2.5,1.5-2.5s0.9-0.5,0.9-1c0-2.2,8-8.8,12.6-10.5c2.7-0.9,6.5-2.4,8.4-3.3
		c1.9-0.8,4.9-2.1,6.5-2.7c3.4-1.4,33.6-16.3,47-23.2c5-2.5,9.9-4.9,11-5.3s4-1.7,6.5-2.8c2.5-1.2,10.2-3.7,17-5.7
		c12.6-3.6,15.7-5.3,16.2-9c0.2-1.1,0.6-2.5,1-3c1.3-2.1,0-17.1-2-22.3c-1.1-2.8-1.9-5.2-1.7-5.2s-0.3-1.6-1.1-3.5s-1.4-3.7-1.4-4
		s0-0.6-0.1-0.8c0-0.1-0.2-1-0.5-2c-0.5-2.3-0.9-3.5-2.2-8.2c-0.6-2.2-1.4-5.5-1.7-7.4c-0.3-1.8-1.2-4.5-1.9-6
		c-1.2-2.2-1.2-3,0.1-5.5c1.1-2.2,1.2-3.4,0.4-5.2C1657.1,47,1654,48.3,1645.8,57.2L1645.8,57.2z"/>
	
		<linearGradient id="SVGID_00000163768596820724511440000009408304209752861575_" gradientUnits="userSpaceOnUse" x1="701.1091" y1="288.9706" x2="699.9891" y2="289.0906" gradientTransform="matrix(53.54 0 0 -128.15 -35878.582 37277.4062)">
		<stop  offset="0" style="stop-color:#78263B"/>
		<stop  offset="1" style="stop-color:#8C898B"/>
	</linearGradient>
	<path style="fill:url(#SVGID_00000163768596820724511440000009408304209752861575_);" d="M1678,185.7c-1.4,0.9-2.7,2-3,2.3
		c-1,1.3-12.1,8-13.3,8c-0.6,0-2.1,0.7-3.1,1.5c-1.1,0.8-2.6,1.5-3.4,1.5c-0.7,0-6.5,3.4-12.9,7.6l-11.5,7.5l2.6,2.8
		c1.4,1.5,2.6,3.7,2.6,4.9c0,1.3,0.7,2.5,1.6,2.9c0.8,0.3,1.3,1.1,1,1.9c-0.3,0.7,0,1.4,0.5,1.6s1.1,1.3,1.2,2.6
		c0,1.2,0.6,2.2,1.1,2.2s0.6,0.3,0.3,0.7c-0.4,0.3-0.3,1.1,0.2,1.7s1.6,4.5,2.4,8.6c1.5,7.6,2,11.6,5.8,47
		c2.1,20.5,3.5,25.1,5.4,18.3c0.6-2.1,1.7-3.8,2.4-3.8c0.8,0,1.5-0.7,1.6-1.5c0.2-0.8,0.6-3.5,0.9-6c0.4-2.5,0.9-5.7,1.2-7.2
		s0.7-3.9,0.9-5.5c0.2-1.5,0.7-3.9,1-5.3s1.4-10.2,2.5-19.5c1.1-9.4,2.2-18.3,2.5-20c1.2-6.1,7.2-26,13.6-44.8
		c2.3-6.9,2.7-9.2,1.8-10.3C1682.4,183.6,1681,183.6,1678,185.7L1678,185.7z"/>
	
		<linearGradient id="SVGID_00000181805010201623437840000016550137252194229913_" gradientUnits="userSpaceOnUse" x1="692.1987" y1="290.6055" x2="693.1987" y2="290.6055" gradientTransform="matrix(427.61 0 0 -365.85 -294710.5938 106551.0078)">
		<stop  offset="0" style="stop-color:#89090B"/>
		<stop  offset="1" style="stop-color:#89090B"/>
	</linearGradient>
	<path style="fill:url(#SVGID_00000181805010201623437840000016550137252194229913_);" d="M1659.4,51.8c0.4,1.2,0.1,3.4-0.8,4.9
		c-1.2,2.4-1.2,3.2,0,5.4c0.7,1.5,1.6,4.2,1.9,6c0.5,2.8,1.6,7,3.1,12.4c0.2,0.5,0.5,1.7,0.6,2.5c0.2,0.8,0.7,2.1,1.1,2.7
		c0.5,0.7,0.6,1.3,0.2,1.3c-0.3,0,0.1,1.6,0.9,3.5s1.3,3.5,1.1,3.5s0.6,2.4,1.7,5.2c2,5.2,3.3,20.2,2,22.3c-0.4,0.5-0.8,1.9-1,3
		c-0.5,3.7-3.6,5.4-16.2,9c-6.8,2-14.5,4.5-17,5.7c-2.5,1.1-5.4,2.4-6.5,2.8s-6,2.8-11,5.3c-13,6.7-43.4,21.7-47.5,23.4
		c-1.9,0.8-4.8,2.1-6.5,2.8c-1.6,0.7-5.2,2.1-7.9,3c-4.6,1.7-12.6,8.3-12.6,10.5c0,0.5-0.4,1-0.9,1s-1.2,1.1-1.5,2.5
		c-0.4,1.4-1.1,2.5-1.6,2.5c-0.6,0-1,0.7-1,1.5s-0.5,1.5-1,1.5c-0.6,0-0.9,0.3-0.8,0.7c0.2,0.5-2.8,3.7-6.5,7.3s-13,13.2-20.5,21.5
		c-15.1,16.5-21.7,23-33.7,32.9c-4.4,3.7-9.1,7.6-10.3,8.6c-1.3,1.1-2.8,2-3.3,2s-0.9,0.4-0.9,0.8c0,0.5-1.2,1.5-2.7,2.3
		c-1.6,0.8-3,1.6-3.3,1.9s-4,2.3-8.2,4.4c-8.1,3.9-13.4,8.8-14.4,13.4c-1.7,7.8-5.8,12.7-13.4,16.1c-17.7,7.8-76,16.8-87.9,13.6
		c-4.9-1.3-21.2-7.5-26.4-10c-4.1-2-9.3-9-7.5-10.2c0.7-0.4,15.9-1.1,33.8-1.5c32.4-0.6,35.8-1,47.6-4.8c5.8-1.9,17.4-9.1,17.4-10.8
		c0-2.3-16.4-1.2-21.6,1.4c-2.1,1.1-5.9,2.6-8.4,3.2s-5.6,1.4-7,1.7c-1.4,0.4-16,1-32.5,1.4c-28.2,0.8-30.3,1-34.8,3.1
		c-2.6,1.2-6.1,3.8-7.6,5.7c-4.7,5.7-7.6,16.8-7.2,27.5l0.1,2.7l9.8-0.6c8.1-0.5,12-0.1,23.7,2.1c7.7,1.5,18.5,3.6,24,4.6
		c28.5,5.5,51.4,8.3,77,9.4c4.4,0.2,10.9,0.7,14.5,1.2c3.6,0.4,8.5,0.7,11,0.6c2.5,0,11.5-0.3,20-0.5c18.1-0.5,22.4-1.6,31.5-8
		c2.2-1.5,5.6-3.8,7.5-5.1c9.1-6.2,21-22.3,26.6-35.9c4.2-10.4,8.3-16.8,19.5-30.2c10.3-12.2,47.6-49.7,58-58.2
		c12.6-10.3,32.9-19.8,61.2-28.9c6.2-2,12.7-4.2,14.5-5c3.7-1.6,10.2-1.9,10.2-0.5c0,0.5-1.2,2.4-2.7,4.1c-2.2,2.7-2.5,3.5-1.5,5.1
		s0.7,3.5-1.7,10.7c-6.4,18.7-12.4,38.6-13.6,44.7c-0.3,1.7-1.4,10.6-2.5,20c-1.1,9.3-2.2,18.1-2.5,19.5s-0.8,3.8-1,5.3
		c-0.2,1.6-0.6,4-0.9,5.5s-0.8,4.7-1.2,7.2c-0.3,2.5-0.7,5.2-0.9,6c-0.1,0.8-0.8,1.5-1.6,1.5c-0.7,0-1.8,1.7-2.4,3.8
		c-1.9,6.8-3.3,2.2-5.4-18.3c-3.8-35.4-4.3-39.4-5.8-47c-0.8-4.1-1.9-8-2.4-8.6s-0.6-1.4-0.2-1.7c0.3-0.4,0.2-0.7-0.3-0.7
		s-1.1-1-1.1-2.2c-0.1-1.3-0.7-2.4-1.2-2.6s-0.8-0.9-0.5-1.6c0.3-0.8-0.2-1.6-1-1.9c-0.9-0.4-1.6-1.7-1.6-3s-1.3-3.5-2.8-5
		c-2.9-2.8-3.5-2.7-8.1,1c-0.2,0.1,0.3,1.1,1.1,2c2.4,2.7,8.8,15.4,8.8,17.3c0,0.9,0.9,4.3,2,7.6c3.9,11.3,7.5,30,6.1,32.3
		c-0.5,0.7-0.4,2.9,0,5c0.5,2,1.4,8.1,1.9,13.6s1.4,13.8,2,18.5c2,16.2,3.8,38.6,5.5,67.5c1.7,28.7,1.8,29,4.3,31.8
		c3.9,4.1,8.9,3.3,11.5-2.1c1.1-2.2,1.2-5.6,0.4-17.7c-1.4-22.9-1.4-95.6,0.1-111c3.3-33.6,10.5-60.3,25.1-93.1
		c3.9-8.8,7.1-16.8,7.1-17.6c0-0.9,0.5-2,1-2.3c2.1-1.3,4.1-8.2,4.4-15c0.9-19.6-6.4-39.7-27.4-76.1
		C1668.3,59.8,1657.2,44.8,1659.4,51.8L1659.4,51.8z"/>
	
		<linearGradient id="SVGID_00000144333726634546657410000017186501940700685965_" gradientUnits="userSpaceOnUse" x1="691.1868" y1="287.1022" x2="691.1168" y2="288.2622" gradientTransform="matrix(239.14 0 0 -84.16 -164477.4844 24586.9219)">
		<stop  offset="0" style="stop-color:#B4182E"/>
		<stop  offset="1" style="stop-color:#CE4852"/>
	</linearGradient>
	<path style="fill:url(#SVGID_00000144333726634546657410000017186501940700685965_);" d="M911.7,343.5c-6.9,6.6-17.1,13.6-20,13.9
		c-1.2,0.2-3.3,0.9-4.7,1.7c-1.4,0.7-2.8,1.4-3.2,1.5c-0.5,0.1-0.9,0.2-1,0.4c-0.3,0.2-1.8,0.5-5.6,1.4c-1.2,0.3-2.6,0.7-3.1,1.1
		c-3.5,2.1-43.1,1.1-61.1-1.6c-3.6-0.5-9-1.2-12-1.5s-6.2-0.7-7-1s-3.7-0.7-6.5-1c-2.7-0.2-6.5-0.7-8.3-1c-1.7-0.3-4.7-0.7-6.5-0.9
		c-3-0.4-7.7-1.1-14.1-2c-1.5-0.2-3.5-0.7-4.5-0.9c-0.9-0.3-3.6-0.8-6.1-1.1s-5.2-0.8-6-1c-1.4-0.4-6.2-1.3-10.5-2
		c-1.1-0.2-3.8-0.6-6-0.9c-2.2-0.4-7.1-1.1-11-1.7c-3.8-0.6-8.1-1.3-9.5-1.6c-1.4-0.4-2.8-0.6-3.2-0.5s-2.5-0.5-4.7-1.3
		c-2.3-0.8-4.4-1.4-4.6-1.4c-0.3,0-3-0.5-6.1-1.1c-3.1-0.7-5.8-1-6-0.7c-0.3,0.2,0,1.6,0.5,2.9c0.6,1.7,0.6,4-0.1,6.6
		c-1.3,5.1,0.4,17.2,2.7,18.4c0.8,0.5,1.5,1.4,1.5,2.1c0.1,1.4,5.5,4.8,16,9.9c9.6,4.7,28.9,12.9,31.5,13.3c1.1,0.2,4.4,1.5,7.2,2.9
		c2.9,1.4,5.5,2.6,5.8,2.6c0.8,0,25.6,8.9,28,10c4,2,21.8,7,29.8,8.5c4.5,0.8,10.5,1.9,13.2,2.4c2.8,0.6,12.1,1.4,20.9,2
		c17.1,1,21.5,0.4,29.4-4.1c4.2-2.4,15.4-13.4,17.3-17c0.6-1.3,2.5-3.9,4-5.9c1.6-2,2.6-3.9,2.2-4.3c-0.3-0.3-0.2-0.6,0.4-0.6
		c1.3,0,2.6-2.1,20.5-33.5c3.6-6.3,8.6-17.1,8.2-17.7C918.5,337.4,917.6,338,911.7,343.5L911.7,343.5z"/>
	
		<linearGradient id="SVGID_00000047044716056835630220000014386744874968258695_" gradientUnits="userSpaceOnUse" x1="690.6475" y1="284.9234" x2="691.6475" y2="284.9234" gradientTransform="matrix(251.98 0 0 -49.63 -173350.7969 14480.5615)">
		<stop  offset="0" style="stop-color:#A81318"/>
		<stop  offset="1" style="stop-color:#A81318"/>
	</linearGradient>
	<path style="fill:url(#SVGID_00000047044716056835630220000014386744874968258695_);" d="M920.2,324.2c-8.5,12.9-13,17.2-28.2,27.2
		c-11.5,7.5-14.2,8.1-33,7.9c-9.1-0.1-23.5-1-32-1.8c-26.6-2.7-79.1-10.8-109.4-16.9c-34.4-7-36.9-7.3-39.4-5.7
		c-1.1,0.7-1.1,2.3-0.2,8.9c0.7,4.5,1.6,8,2,7.7c1.3-0.8,1.8-5.8,0.9-8.3c-0.5-1.4-0.8-2.7-0.5-2.9c0.2-0.3,2.9,0,6,0.7
		c3.1,0.6,5.8,1.1,6.1,1.1c0.2,0,2.3,0.6,4.6,1.4c2.2,0.8,4.3,1.4,4.7,1.3s1.8,0.1,3.2,0.5c1.4,0.3,5.7,1,9.5,1.6
		c3.9,0.6,8.8,1.3,11,1.7c2.2,0.3,4.9,0.7,6,0.9c4.3,0.7,9.1,1.6,10.5,2c0.8,0.2,3.5,0.7,6,1s5.2,0.8,6.1,1.1c1,0.2,3,0.7,4.5,0.9
		c7.3,1.1,10.7,1.5,13.9,2c1.9,0.2,5,0.6,6.7,0.9c1.8,0.3,5.6,0.8,8.3,1c2.8,0.3,5.7,0.7,6.5,1s4,0.7,7,1s8.4,1,12,1.5
		c18,2.7,57.6,3.7,61.1,1.6c0.5-0.4,1.9-0.8,3.1-1.1c3.8-0.9,5.3-1.2,5.6-1.4c0.1-0.2,0.5-0.3,1-0.4c0.4-0.1,1.8-0.8,3.2-1.5
		c1.4-0.8,3.5-1.5,4.7-1.7c2.9-0.3,12.4-6.9,20.8-14.5c8.9-8,9.9-9.3,11.5-15.4c0.7-2.8,2.4-6.4,3.7-8.1c2.2-3,2.2-4.4-0.2-4.4
		C926.8,315,923.5,319.2,920.2,324.2L920.2,324.2z"/>
	
		<linearGradient id="SVGID_00000060744832241515644480000000412882396822028437_" gradientUnits="userSpaceOnUse" x1="692.2514" y1="290.2032" x2="693.2514" y2="290.2032" gradientTransform="matrix(407.76 0 0 -253.35 -280991.7188 73824.7422)">
		<stop  offset="0" style="stop-color:#B35961"/>
		<stop  offset="1" style="stop-color:#B35961"/>
	</linearGradient>
	<path style="fill:url(#SVGID_00000060744832241515644480000000412882396822028437_);" d="M1677.5,176.5c-1.6,0.7-8,2.9-14.2,4.9
		c-28.4,9.1-48.6,18.6-61.2,28.9c-10.4,8.5-47.7,46-58,58.2c-11.2,13.4-15.3,19.8-19.5,30.2c-5.6,13.6-17.5,29.7-26.6,35.9
		c-1.9,1.3-5.3,3.6-7.5,5.1c-9.1,6.4-13.4,7.5-31.5,8c-8.5,0.2-17.5,0.5-20,0.5c-2.5,0.1-7.4-0.2-11-0.6c-3.6-0.5-10.1-1-14.5-1.2
		c-19.4-0.8-41.1-3-54.5-5.4c-18.4-3.2-36.1-6.5-46.7-8.6c-17.6-3.5-32.3-3.1-32.3,0.7c0,1.3,0.7,1.9,2.1,1.9
		c2.1,0,12.3,1.9,35.5,6.6c30.3,6.1,82.8,14.2,109.4,16.9c8.5,0.8,22.9,1.7,32,1.8c18.8,0.2,21.5-0.4,33-7.9
		c15.2-10,19.7-14.3,28.2-27.2c3.3-5,6.6-9.2,7.3-9.2c2.4,0,2.4,1.4,0.2,4.4c-1.3,1.7-2.9,5.3-3.7,8.1c-0.7,2.7-2,5.8-2.8,6.7
		c-0.8,1-1.6,2.9-1.7,4.2c-0.3,2.2-4.6,11.6-8.3,18.1c-5,8.8-15.3,26.7-17.2,29.7c-1.2,2.1-2.7,3.8-3.3,3.8s-0.7,0.3-0.4,0.6
		c0.4,0.4-0.6,2.3-2.2,4.3c-1.5,2-3.4,4.6-4,5.9c-1.9,3.6-13.1,14.6-17.3,17c-7.9,4.5-12.3,5.1-29.4,4.1c-8.8-0.6-18.1-1.4-20.9-2
		c-2.7-0.5-8.7-1.6-13.2-2.4c-8-1.5-25.8-6.5-29.8-8.5c-2.4-1.1-27.2-10-28-10c-0.3,0-2.9-1.2-5.8-2.6c-2.8-1.4-6.1-2.7-7.2-2.9
		c-5-0.8-35.6-14.7-42.9-19.4c-3.7-2.5-3.9-2.5-5.2-0.6c-1.3,1.7-1.2,2.2,0.8,3.8c5,4,36.3,17.7,67.1,29.3
		c41.2,15.6,72.3,22.2,95.9,20.6c10.2-0.7,12.4-1.2,18.5-4.2c11.6-5.6,22.3-18.1,37.1-42.9c6.6-11.1,24.2-46.1,24.2-48.1
		c0-0.9,0.9-2.9,2-4.3s3.2-5.1,4.6-8.2c3.6-7.8,10.5-18.4,14.7-22.3c0.9-0.9,1.7-2.2,1.7-2.8c0-0.7,0.7-1.4,1.5-1.8
		c0.8-0.3,1.5-1,1.5-1.6c0-0.9,0.8-1.9,5.8-7.3c0.9-1.1,1.6-2.3,1.5-2.8c-0.2-0.5,0.8-1.6,2.2-2.5s2.5-2.2,2.5-3
		c0-0.7,1.6-2.6,3.5-4.1s3.5-3.3,3.5-3.9c0-1,12.2-13.1,24.6-24.3c11.9-10.8,19.4-18.4,19.4-19.8c0-2.5,1.8-1.3,5.3,3.4
		c6.6,9.2,13.6,26.5,16.9,41.7c1.4,6.8,2.7,9.3,3.9,7.5c1.4-2.3-2.1-20.9-6.1-32.3c-1.1-3.3-2-6.7-2-7.6c0-1.9-6.4-14.6-8.8-17.3
		c-0.8-0.9-1.3-1.9-1.1-2.1s2.4-1.6,4.8-3.1s8.8-5.6,14.2-9.1c5.4-3.5,10.4-6.4,11.1-6.4c0.8,0,2.3-0.7,3.4-1.5
		c1-0.8,2.5-1.5,3.1-1.5c1.5,0,11.9-6.5,14.8-9.2c1.1-1,2.9-2.1,4-2.4c2-0.6,6-4.9,7.1-7.8c0.5-1.3-0.1-1.6-3.2-1.5
		C1682.2,175.1,1679.2,175.7,1677.5,176.5z"/>
	
		<linearGradient id="SVGID_00000054236844941327156840000009950646295440757683_" gradientUnits="userSpaceOnUse" x1="693.9386" y1="290.5632" x2="694.5186" y2="290.1332" gradientTransform="matrix(427.61 0 0 -311.18 -294710 90585.5703)">
		<stop  offset="0" style="stop-color:#FF0000;stop-opacity:0.2"/>
		<stop  offset="1" style="stop-color:#FF0000;stop-opacity:0.36"/>
	</linearGradient>
	<path style="fill:url(#SVGID_00000054236844941327156840000009950646295440757683_);" d="M2245.8,57.2c-4.6,4.9-7.4,8.6-6.8,9.2
		c0.9,0.9-13.5,20.5-20.7,28.1c-17.2,18.2-23,24.8-39.3,44.5c-10.1,12.4-18.8,22.9-19.2,23.5c-0.4,0.5-2,2.6-3.6,4.5
		s-6.9,8.9-11.7,15.5c-15.6,21.1-36.4,45-54.4,62.3c-24,23.1-36.3,30.9-58.3,36.7c-9.5,2.5-10.7,2.6-37.3,2.2
		c-12.4-0.2-14.4,0-18,1.9c-2.2,1.1-6,2.6-8.5,3.2s-5.6,1.4-7,1.7c-1.4,0.4-16,1-32.5,1.4c-28.2,0.8-30.3,1-34.8,3.1
		c-6.3,3-10.1,7.7-12.6,15.9c-2.3,7.3-2.8,13.4-1.7,19.8c0.6,3.4,1.2,4.3,2.8,4.3c2,0,12.4,1.9,35.4,6.6
		c30.3,6.1,82.8,14.2,109.4,16.9c8.5,0.8,22.9,1.7,32,1.8c18.8,0.2,21.5-0.4,33-7.9c15.2-10,19.7-14.3,28.2-27.2
		c3.3-5,6.7-9.2,7.4-9.2s2.1-1.4,3-3.1c2.3-4.5,11.2-16.4,22.8-30.7c5.6-6.7,11-13.5,12.1-15s5.6-6.1,9.9-10.2
		c4.3-4.1,8.6-8.2,9.5-9c1.5-1.5,7.5-6.5,23.3-19.3c3.9-3.1,7.4-5.7,7.8-5.7s3.8-2,7.6-4.5l6.8-4.5l2.8,2.7c1.5,1.5,2.8,3.7,2.8,5
		s0.7,2.6,1.6,3c0.8,0.3,1.3,1.1,1,1.9c-0.3,0.7,0,1.4,0.5,1.6s1.1,1.3,1.2,2.6c0,1.2,0.6,2.2,1.1,2.2s0.6,0.3,0.3,0.7
		c-0.4,0.3-0.3,1.1,0.2,1.7s1.6,4.5,2.4,8.6c1.5,7.6,2,11.6,5.8,47c2.1,20.5,3.5,25.1,5.4,18.3c0.6-2.1,1.7-3.8,2.4-3.8
		c0.8,0,1.5-0.7,1.6-1.5c0.2-0.8,0.6-3.5,0.9-6c0.4-2.5,0.9-5.7,1.2-7.2s0.7-3.9,0.9-5.5c0.2-1.5,0.7-3.9,1-5.3s1.4-10.2,2.5-19.5
		c1.1-9.4,2.2-18.3,2.5-20c1.2-6.1,7.2-26,13.6-44.7c2.4-7.3,2.7-9.1,1.7-10.7c-1-1.7-0.9-2.4,0.9-4.3c1.1-1.3,2.6-3.3,3.2-4.6
		c0.6-1.2,1.9-2.2,2.7-2.2c0.9,0,3.3-0.9,5.3-1.9c2-1.1,4.4-2.2,5.3-2.5c2.6-0.8,4.9-7.3,5.2-15.1c0.6-14.2-4.3-32.4-14-51.8
		c-7-13.8-21.8-39.1-26.9-45.7C2257.4,46.5,2255.7,46.5,2245.8,57.2L2245.8,57.2z"/>
	
		<linearGradient id="SVGID_00000010269534248705054240000014442802196856700058_" gradientUnits="userSpaceOnUse" x1="694.462" y1="289.4621" x2="695.4821" y2="290.1621" gradientTransform="matrix(333.58 0 0 -205.43 -229732.9062 59878.9141)">
		<stop  offset="0" style="stop-color:#000000;stop-opacity:0.33"/>
		<stop  offset="1" style="stop-color:#000000;stop-opacity:0.67"/>
	</linearGradient>
	<path style="fill:url(#SVGID_00000010269534248705054240000014442802196856700058_);" d="M2208.2,228.7
		c-15.8,12.8-21.8,17.8-23.3,19.3c-0.9,0.8-5.2,4.9-9.5,9s-8.8,8.7-9.9,10.2s-6.5,8.3-12.1,15c-16.7,20.4-25.5,33.1-24,34.6
		c0.3,0.3-0.5,1.9-1.7,3.6c-1.3,1.7-2.9,5.3-3.7,8.1c-0.7,2.7-2,5.8-2.8,6.7c-0.8,1-1.6,2.9-1.7,4.2c-0.3,2.2-4.6,11.6-8.3,18.1
		c-5,8.8-15.3,26.7-17.2,29.7c-1.2,2.1-2.7,3.8-3.3,3.8s-0.7,0.3-0.4,0.6c0.4,0.4-0.6,2.3-2.2,4.3c-1.5,2-3.4,4.6-4,5.9
		c-1.9,3.6-13.1,14.6-17.3,17c-7.9,4.5-12.3,5.1-29.4,4.1c-8.8-0.6-18.1-1.4-20.9-2c-2.7-0.5-8.7-1.6-13.2-2.4
		c-8-1.5-25.8-6.5-29.8-8.5c-2.4-1.1-27.2-10-28-10c-0.3,0-2.9-1.2-5.8-2.6c-2.8-1.4-6.1-2.7-7.2-2.9c-5-0.8-35.6-14.7-42.9-19.4
		c-3.7-2.5-3.9-2.5-5.2-0.6c-1.3,1.7-1.2,2.2,0.8,3.8c5,4,36.3,17.7,67.1,29.3c41.2,15.6,72.3,22.2,95.9,20.6
		c10.2-0.7,12.4-1.2,18.5-4.2c11.6-5.6,22.3-18.1,37.1-42.9c6.6-11.1,24.2-46.1,24.2-48.1c0-0.9,0.9-2.9,2-4.3s3.2-5.1,4.6-8.2
		c3.6-7.8,10.5-18.4,14.7-22.3c0.9-0.9,1.7-2.2,1.7-2.8c0-0.7,0.7-1.4,1.5-1.8c0.8-0.3,1.5-1,1.5-1.6c0-0.9,0.8-1.9,5.8-7.3
		c0.9-1.1,1.6-2.3,1.5-2.8c-0.2-0.5,0.8-1.6,2.2-2.5s2.5-2.2,2.5-3c0-0.7,1.6-2.6,3.5-4.1s3.5-3.3,3.5-3.9c0-1,12.2-13.1,24.6-24.3
		c16.5-14.9,21.9-21.1,18.6-21.1C2215.7,223,2212.1,225.6,2208.2,228.7L2208.2,228.7z"/>
	<line class="st23" x1="1200" y1="1" x2="1200" y2="463"/>
	<line class="st23" x1="1800" y1="1" x2="1800" y2="463"/>
</g>
</svg>
