<?xml version="1.0" encoding="utf-8"?>
<!-- Generator: Adobe Illustrator 26.5.0, SVG Export Plug-In . SVG Version: 6.00 Build 0)  -->
<svg version="1.1" id="图层_1" xmlns="http://www.w3.org/2000/svg" xmlns:xlink="http://www.w3.org/1999/xlink" x="0px" y="0px"
	 viewBox="0 0 2400 462.1" style="enable-background:new 0 0 2400 462.1;" xml:space="preserve">
<style type="text/css">
	.st0{fill:none;}
	.st1{fill:#D3D3D3;}
	.st2{clip-path:url(#SVGID_00000065794979987749808400000005879577747246894259_);}
	.st3{fill:url(#SVGID_00000020398748104561784720000006190365404239639994_);}
	.st4{fill:url(#SVGID_00000168077946033127154860000017171968706896886679_);}
	.st5{fill:url(#region-1-1_00000141436332834057169130000000587729329439610510_);}
	.st6{fill:url(#region-1-2_00000088816651022200899880000018187215959487885709_);}
	.st7{fill:url(#region-1-3_00000047754224655863206620000003710073704364466593_);}
	.st8{fill:url(#region-2-1_00000030483635648251914680000012823471483812145051_);}
	.st9{fill:url(#region-2-2_00000055676840999349213500000015147815534853252788_);}
	.st10{fill:url(#region-2-3_00000142878381423961350490000004592865778816201601_);}
	.st11{fill:url(#region-2-4_00000084489330636514278060000005611034456830252439_);}
	.st12{fill:url(#region-2-5_00000101816612662092988010000011504307737896134535_);}
	.st13{fill:url(#region-2-6_00000160189787269589928680000011641894803767171493_);}
	.st14{fill:url(#region-3-1_00000119817202441574970580000004230158462019293364_);}
	.st15{fill:url(#region-1-1-2_00000012430100959051448790000002920794545196302984_);}
	.st16{fill:url(#region-1-2-2_00000106859815770805367530000013312610834327357829_);}
	.st17{fill:url(#region-1-3-2_00000010277348229702809320000011185306367913783945_);}
	.st18{fill:url(#region-2-1-2_00000162325133600751668950000013933108703259158402_);}
	.st19{fill:url(#region-2-2-2_00000134223354672137579840000012023237437271072693_);}
	.st20{fill:url(#region-2-3-2_00000062893614647086602990000005083180489871896459_);}
	.st21{fill:url(#region-2-4-2_00000142858852597626353380000013188469035280660638_);}
	.st22{fill:url(#region-2-5-2_00000135669308888565297660000004128110422656070828_);}
	.st23{fill:url(#region-2-6-2_00000149355799913162572580000017215678971570232493_);}
	.st24{fill:url(#region-3-1-2_00000104677353306195465100000016752615653542143409_);}
	.st25{fill:none;stroke:#000000;stroke-width:2;stroke-miterlimit:10;}
</style>
<pattern  y="462.1" width="40" height="40" patternUnits="userSpaceOnUse" id="SVGID_0000004992215559029419378" viewBox="0 -40 40 40" style="overflow:visible;">
	<g>
		<rect y="-40" class="st0" width="40" height="40"/>
		<g>
			<rect y="-40" class="st0" width="40" height="40"/>
			<g>
				<rect y="-40" class="st0" width="40" height="40"/>
				<g>
					<rect y="-40" class="st0" width="40" height="40"/>
					<g>
						<rect y="-40" class="st0" width="40" height="40"/>
						<g>
							<polygon class="st0" points="0,0 40,0 40,-40 0,-40 							"/>
							<polygon class="st1" points="0,-20 20,-20 20,-40 0,-40 							"/>
							<polygon class="st1" points="20,0 40,0 40,-20 20,-20 							"/>
						</g>
					</g>
				</g>
			</g>
		</g>
	</g>
</pattern>
<g id="_图层_1">
	<g>
		<defs>
			<rect id="SVGID_1_" y="0.1" width="2400" height="462"/>
		</defs>
		<clipPath id="SVGID_00000103247953379135884640000008378960449641676452_">
			<use xlink:href="#SVGID_1_"  style="overflow:visible;"/>
		</clipPath>
		<g style="clip-path:url(#SVGID_00000103247953379135884640000008378960449641676452_);">
			
				<pattern  id="SVGID_00000157300407132053662710000013908688417144128911_" xlink:href="#SVGID_0000004992215559029419378" patternTransform="matrix(1 0 0 1 26.93 1119.11)">
			</pattern>
			<rect y="0.1" style="fill:url(#SVGID_00000157300407132053662710000013908688417144128911_);" width="2398.4" height="461.7"/>
		</g>
	</g>
	
		<linearGradient id="SVGID_00000083068319800536578420000006307326407376299944_" gradientUnits="userSpaceOnUse" x1="690.28" y1="289.7943" x2="691.28" y2="289.7943" gradientTransform="matrix(600 0 0 -462 -414169.4375 134115.9844)">
		<stop  offset="0" style="stop-color:#FFFFFF"/>
		<stop  offset="1" style="stop-color:#FFFFFF"/>
	</linearGradient>
	<path style="fill:url(#SVGID_00000083068319800536578420000006307326407376299944_);" d="M0.4,231v231h600V0H0.4V231z"/>
	<g id="layer-1">
		
			<linearGradient id="region-1-1_00000131327059718060349820000014189268760678495408_" gradientUnits="userSpaceOnUse" x1="689.9445" y1="290.028" x2="690.7045" y2="288.858" gradientTransform="matrix(427.55 0 0 -311.33 -294852.75 90316.4844)">
			<stop  offset="0" style="stop-color:#F25960"/>
			<stop  offset="1" style="stop-color:#A00000"/>
		</linearGradient>
		<path id="region-1-1" style="fill:url(#region-1-1_00000131327059718060349820000014189268760678495408_);" d="M429.5,74.9
			c-31.8,32.1-35.4,35.8-50,53.1c-4,4.7-9.1,10.6-11.4,13.1c-9.9,11.2-14.2,16.2-15.6,18.3c-0.8,1.2-2.5,3.3-3.6,4.6
			c-14.8,17.1-36.3,42-41.7,48.4c-11.5,13.5-27.9,29.9-36.2,36c-2.2,1.7-4.2,3.3-4.5,3.6s-2.3,1.7-4.5,3c-2.2,1.3-4.2,2.6-4.5,2.9
			c-1,1.1-12.5,7.1-23.5,12.2c-8.5,3.9-14.6,5.1-29.6,5.8c-12.7,0.6-16.2,1.1-19.5,2.7c-2.1,1.1-5.9,2.6-8.4,3.2s-5.6,1.4-7,1.7
			c-1.4,0.4-16,1-32.5,1.4c-28.2,0.8-30.3,1-34.8,3.1c-6.3,3-10.1,7.7-12.6,15.9c-2.3,7.3-2.8,13.4-1.7,19.8
			c0.6,3.4,1.2,4.3,2.8,4.3c2,0,12.4,1.9,35.4,6.6c30.3,6.1,82.8,14.2,109.4,16.9c8.5,0.8,22.9,1.7,32,1.8c18.8,0.2,21.5-0.4,33-7.9
			c15.2-10,19.7-14.3,28.2-27.2c3.3-5,6.7-9.2,7.4-9.2s2.1-1.4,3-3.1c2.3-4.5,11.2-16.4,22.8-30.7c5.6-6.7,11-13.5,12.1-15
			s5.5-6.1,9.9-10.2c4.3-4.1,8.4-8.1,9.1-8.7c0.7-0.7,4.4-3.8,8.2-6.8c3.7-3.1,9.9-8.2,13.7-11.3c3.9-3.1,8.2-6.4,9.7-7.2
			c4-2.2,13.8-8.3,26.6-16.7c6.1-4,11.8-7.3,12.5-7.3c0.8,0,2.3-0.7,3.4-1.5c1-0.8,2.5-1.5,3.1-1.5c1.5,0,11.9-6.5,14.7-9.2
			c1.1-1,2.9-2.1,4-2.4c2.2-0.7,4.9-3.6,7.1-7.7c0.9-1.5,2.3-2.7,3.1-2.7c0.9,0,3.3-0.9,5.3-1.9c2-1.1,4.4-2.2,5.3-2.5
			c4.6-1.4,6.6-16,4.1-30.6c-2.7-15.7-9.8-32.1-26.3-60.6c-12.8-22.1-18.7-29.5-23.7-29.4C462.8,42.1,447.9,56.3,429.5,74.9
			L429.5,74.9z"/>
		
			<linearGradient id="region-1-2_00000080928718106691736950000002921759274951223196_" gradientUnits="userSpaceOnUse" x1="683.7404" y1="289.6867" x2="683.7404" y2="288.6867" gradientTransform="matrix(83.1 0 0 -245.76 -56350.8984 71355.9219)">
			<stop  offset="0" style="stop-color:#9B3434"/>
			<stop  offset="1" style="stop-color:#800000"/>
		</linearGradient>
		<path id="region-1-2" style="fill:url(#region-1-2_00000080928718106691736950000002921759274951223196_);" d="M504,165.1
			c-1.6,1-3.8,1.9-4.7,1.9c-1,0-2.4,1.2-3.3,2.7c-2.2,4.1-4.9,7-7.1,7.7c-1.1,0.3-2.9,1.4-4,2.4c-2.8,2.7-13.2,9.2-14.7,9.2
			c-0.6,0-2.1,0.7-3.1,1.5c-1.1,0.8-2.6,1.5-3.3,1.5c-0.8,0-6.7,3.4-13.1,7.6c-6.4,4.1-14.5,9.3-18,11.5l-6.3,3.9l4,5.2
			c5.4,7.2,10.4,18.2,14.2,31.3c1.7,6,3.8,13,4.6,15.5c2.7,8.6,3.3,11.6,4.3,21.5c0.5,5.5,1.4,13.8,2,18.5c2,16.2,3.8,38.6,5.5,67.5
			c1.7,28.7,1.8,29,4.3,31.8c3.9,4.1,8.9,3.3,11.5-2.1c1.1-2.2,1.2-5.6,0.4-17.7c-1.4-22.9-1.4-95.6,0.1-111
			c3.3-33.6,10.5-60.3,25.1-93.1c3.9-8.8,7.1-16.8,7.1-17.7C509.5,162.5,507.8,162.6,504,165.1L504,165.1z"/>
		
			<linearGradient id="region-1-3_00000178169236242302772630000016805588699550015415_" gradientUnits="userSpaceOnUse" x1="689.7283" y1="289.5588" x2="690.2682" y2="288.2488" gradientTransform="matrix(339.48 0 0 -205.44 -233960.0938 59677.1445)">
			<stop  offset="0" style="stop-color:#C0535B"/>
			<stop  offset="1" style="stop-color:#BB1328"/>
		</linearGradient>
		<path id="region-1-3" style="fill:url(#region-1-3_00000178169236242302772630000016805588699550015415_);" d="M416.7,221.7
			c-15.8,12.8-21.8,17.8-23.3,19.3c-0.9,0.8-5.2,4.9-9.5,9s-8.8,8.7-9.9,10.2s-6.5,8.3-12.1,15c-11.6,14.3-20.5,26.2-22.8,30.7
			c-0.9,1.7-2.3,3.1-3,3.1s-4.1,4.2-7.4,9.2c-8.5,12.9-13,17.2-28.2,27.2c-11.5,7.5-14.2,8.1-33,7.9c-9.1-0.1-23.5-1-32-1.8
			c-26.6-2.7-79.1-10.8-109.4-16.9c-34.5-7-36.9-7.3-39.5-5.7c-2,1.3,3.1,31.8,5.6,33.6c1.5,1.1,1.6,1.8,0.7,4.4
			c-1.1,2.8-1,3.1,2.5,5.5c6.8,4.6,38.2,18.1,68.6,29.4c39.3,14.6,69.6,21,92.7,19.4c10.2-0.7,12.4-1.2,18.5-4.2
			c11.6-5.6,22.3-18.1,37.1-42.9c6.6-11.1,24.2-46.1,24.2-48.1c0-0.9,0.9-2.9,2-4.3s3.2-5.1,4.6-8.2c3.6-7.8,10.5-18.4,14.7-22.3
			c0.9-0.9,1.7-2.2,1.7-2.8c0-0.7,0.7-1.4,1.5-1.8c0.8-0.3,1.5-1,1.5-1.6c0-0.9,0.8-1.9,5.8-7.3c0.9-1.1,1.6-2.3,1.5-2.8
			c-0.2-0.5,0.8-1.6,2.2-2.5s2.5-2.2,2.5-3c0-0.7,1.6-2.6,3.5-4.1s3.5-3.3,3.5-3.9c0-1,12.2-13.1,24.6-24.3
			c16.5-14.9,21.9-21.1,18.6-21.1C424.2,216,420.6,218.6,416.7,221.7L416.7,221.7z"/>
	</g>
	<g id="layer-2">
		
			<linearGradient id="region-2-1_00000026857454074792027080000005581214119568579213_" gradientUnits="userSpaceOnUse" x1="689.7458" y1="289.9014" x2="690.4858" y2="288.7214" gradientTransform="matrix(372.89 0 0 -272.99 -257040.3125 79160.6797)">
			<stop  offset="0" style="stop-color:#FFEFF2;stop-opacity:0.91"/>
			<stop  offset="1" style="stop-color:#FFA3B3;stop-opacity:0.47"/>
		</linearGradient>
		<path id="region-2-1" style="fill:url(#region-2-1_00000026857454074792027080000005581214119568579213_);" d="M429.5,74.9
			c-31.8,32.1-35.4,35.8-50,53.1c-4,4.7-9.1,10.6-11.4,13.1c-9.9,11.2-14.2,16.2-15.6,18.3c-0.8,1.2-2.5,3.3-3.6,4.6
			c-14.8,17.1-36.3,42-41.7,48.4c-11.5,13.5-27.9,29.9-36.2,36c-2.2,1.7-4.2,3.3-4.5,3.6s-2.3,1.7-4.5,3c-2.2,1.3-4.2,2.6-4.5,2.9
			c-1,1.1-12.5,7.1-23.5,12.2c-5.5,2.5-14.6,5-20.7,5.6c-4.3,0.4-6.8,1-6.8,1.8c0,1.5-12.1,8.7-17.4,10.5
			c-11.8,3.8-15.2,4.2-47.6,4.8c-17.9,0.4-33.1,1.1-33.8,1.5c-1.8,1.2,3.4,8.2,7.5,10.2c5.2,2.5,21.5,8.7,26.4,10
			c11.9,3.2,70.2-5.8,87.9-13.6c7.6-3.4,11.7-8.3,13.4-16.1c1-4.6,6.3-9.5,14.4-13.4c4.2-2.1,7.9-4.1,8.2-4.4s1.7-1.1,3.3-1.9
			c1.5-0.8,2.7-1.8,2.7-2.3c0-0.4,0.4-0.8,0.9-0.8s2-0.9,3.3-2c1.2-1,5.9-4.9,10.3-8.6c12-9.9,18.6-16.4,33.7-32.9
			c7.5-8.3,16.8-17.9,20.5-21.5s6.7-6.8,6.5-7.3c-0.1-0.4,0.2-0.7,0.8-0.7c0.5,0,1-0.7,1-1.5s0.4-1.5,1-1.5c0.5,0,1.2-1.1,1.6-2.5
			c0.3-1.4,1-2.5,1.5-2.5s0.9-0.5,0.9-1c0-2.2,8-8.8,12.6-10.5c2.7-0.9,6.5-2.4,8.4-3.3c1.9-0.8,4.9-2.1,6.5-2.7
			c3.4-1.4,33.6-16.3,47-23.2c5-2.5,9.9-4.9,11-5.3s4-1.7,6.5-2.8c2.5-1.2,10.2-3.7,17-5.7c12.6-3.6,15.7-5.3,16.2-9
			c0.2-1.1,0.6-2.5,1-3c1.3-2.1,0-17.1-2-22.3c-1.1-2.8-1.9-5.2-1.7-5.2s-0.3-1.6-1.1-3.5s-1.4-3.7-1.4-4s0-0.6-0.1-0.8
			c0-0.1-0.2-1-0.5-2c-0.5-2.3-0.9-3.5-2.2-8.2c-0.6-2.2-1.4-5.5-1.7-7.4c-0.3-1.8-1.2-4.5-1.9-6c-1.2-2.2-1.2-3,0.1-5.5
			c1.1-2.2,1.2-3.4,0.4-5.2C465.3,39.2,463.3,40.8,429.5,74.9L429.5,74.9z"/>
		
			<linearGradient id="region-2-2_00000111176124488861916240000008516214738126342587_" gradientUnits="userSpaceOnUse" x1="690.2612" y1="289.2574" x2="690.2612" y2="288.2574" gradientTransform="matrix(407.76 0 0 -185.25 -281168.5625 53754.8672)">
			<stop  offset="0" style="stop-color:#A6759A;stop-opacity:0.34"/>
			<stop  offset="1" style="stop-color:#F7DCFF;stop-opacity:0.26"/>
		</linearGradient>
		<path id="region-2-2" style="fill:url(#region-2-2_00000111176124488861916240000008516214738126342587_);" d="M486,169.5
			c-1.6,0.7-8,2.9-14.2,4.9c-28.4,9.1-48.6,18.6-61.2,28.9c-10.4,8.5-47.7,46-58,58.2c-11.2,13.4-15.3,19.8-19.5,30.2
			c-5.6,13.6-17.5,29.7-26.6,35.9c-1.9,1.3-5.3,3.6-7.5,5.1c-9.1,6.4-13.4,7.5-31.5,8c-8.5,0.2-17.5,0.5-20,0.5
			c-2.5,0.1-7.4-0.2-11-0.6c-3.6-0.5-10.1-1-14.5-1.2c-19.4-0.8-41.1-3-54.5-5.4c-18.4-3.2-36.1-6.5-46.7-8.6
			c-17.6-3.5-32.3-3.1-32.3,0.7c0,1.3,0.7,1.9,2.1,1.9c2.1,0,12.3,1.9,35.5,6.6c30.3,6.1,82.8,14.2,109.4,16.9
			c8.5,0.8,22.9,1.7,32,1.8c18.8,0.2,21.5-0.4,33-7.9c15.2-10,19.7-14.3,28.2-27.2c3.3-5,6.7-9.2,7.4-9.2s2.1-1.4,3-3.1
			c2.3-4.5,11.2-16.4,22.8-30.7c5.6-6.7,11-13.5,12.1-15s5.5-6.1,9.9-10.2c4.3-4.1,8.4-8.1,9.1-8.7c0.7-0.7,4.4-3.8,8.2-6.8
			c3.7-3.1,9.9-8.2,13.7-11.3c3.9-3.1,8.2-6.4,9.7-7.2c4-2.2,13.8-8.3,26.6-16.7c6.1-4,11.8-7.3,12.5-7.3c0.8,0,2.3-0.7,3.4-1.5
			c1-0.8,2.5-1.5,3.1-1.5c1.5,0,11.9-6.5,14.8-9.2c1.1-1,2.9-2.1,4-2.4c2-0.6,6-4.9,7.1-7.8c0.5-1.3-0.1-1.6-3.2-1.5
			C490.7,168.1,487.7,168.7,486,169.5L486,169.5z"/>
		
			<linearGradient id="region-2-3_00000178166831185732334590000008498391250366823840_" gradientUnits="userSpaceOnUse" x1="678.658" y1="288.3506" x2="680.478" y2="287.5506" gradientTransform="matrix(53.54 0 0 -128.15 -35901.4297 37148.2578)">
			<stop  offset="0" style="stop-color:#BB5567;stop-opacity:0.82"/>
			<stop  offset="1" style="stop-color:#C5142D;stop-opacity:0.75"/>
		</linearGradient>
		<path id="region-2-3" style="fill:url(#region-2-3_00000178166831185732334590000008498391250366823840_);" d="M486.5,178.7
			c-1.4,0.9-2.7,2-3,2.3c-1,1.3-12.1,8-13.3,8c-0.6,0-2.1,0.7-3.1,1.5c-1.1,0.8-2.6,1.5-3.4,1.5c-0.7,0-6.5,3.4-12.9,7.6l-11.5,7.5
			l2.6,2.8c1.4,1.5,2.6,3.7,2.6,4.9c0,1.3,0.7,2.5,1.6,2.9c0.8,0.3,1.3,1.1,1,1.9c-0.3,0.7,0,1.4,0.5,1.6s1.1,1.3,1.2,2.6
			c0,1.2,0.6,2.2,1.1,2.2s0.6,0.3,0.3,0.7c-0.4,0.3-0.3,1.1,0.2,1.7s1.6,4.5,2.4,8.6c1.5,7.6,2,11.6,5.8,47
			c2.1,20.5,3.5,25.1,5.4,18.3c0.6-2.1,1.7-3.8,2.4-3.8c0.8,0,1.5-0.7,1.6-1.5c0.2-0.8,0.6-3.5,0.9-6c0.4-2.5,0.9-5.7,1.2-7.2
			s0.7-3.9,0.9-5.5c0.2-1.5,0.7-3.9,1-5.3s1.4-10.2,2.5-19.5c1.1-9.4,2.2-18.3,2.5-20c1.2-6.1,7.2-26,13.6-44.8
			c2.3-6.9,2.7-9.2,1.8-10.3C490.9,176.6,489.5,176.6,486.5,178.7L486.5,178.7z"/>
		
			<linearGradient id="region-2-4_00000166672534494003523220000010669256550468394426_" gradientUnits="userSpaceOnUse" x1="665.2108" y1="285.5652" x2="665.2108" y2="284.5652" gradientTransform="matrix(25.41 0 0 -59.29 -16463.8203 17140.9414)">
			<stop  offset="0" style="stop-color:#BA8383;stop-opacity:0.55"/>
			<stop  offset="1" style="stop-color:#DC8AA5;stop-opacity:0.42"/>
		</linearGradient>
		<path id="region-2-4" style="fill:url(#region-2-4_00000166672534494003523220000010669256550468394426_);" d="M429.3,213.1
			l-2.8,2l3.9,5.2c6.9,9.3,13.9,26.4,17.3,42.1c1.4,6.8,2.7,9.3,3.9,7.5c1.4-2.3-2.1-20.9-6.1-32.3c-1.1-3.3-2-6.7-2-7.6
			c0-1.9-6.4-14.6-8.8-17.3C432.8,210.6,432.6,210.6,429.3,213.1L429.3,213.1z"/>
		
			<linearGradient id="region-2-5_00000171682048379337486690000008384138469026121125_" gradientUnits="userSpaceOnUse" x1="689.8984" y1="289.4307" x2="689.8984" y2="288.4307" gradientTransform="matrix(333.58 0 0 -205.43 -229877.5 59672.4844)">
			<stop  offset="0" style="stop-color:#370000;stop-opacity:0.74"/>
			<stop  offset="1" style="stop-color:#14683C;stop-opacity:0.49"/>
		</linearGradient>
		<path id="region-2-5" style="fill:url(#region-2-5_00000171682048379337486690000008384138469026121125_);" d="M416.7,221.7
			c-15.8,12.8-21.8,17.8-23.3,19.3c-0.9,0.8-5.2,4.9-9.5,9s-8.8,8.7-9.9,10.2s-6.5,8.3-12.1,15c-16.7,20.4-25.5,33.1-24,34.6
			c0.3,0.3-0.5,1.9-1.7,3.6c-1.3,1.7-2.9,5.3-3.7,8.1c-0.7,2.7-2,5.8-2.8,6.7c-0.8,1-1.6,2.9-1.7,4.2c-0.3,2.2-4.6,11.6-8.3,18.1
			c-5,8.8-15.3,26.7-17.2,29.7c-1.2,2.1-2.7,3.8-3.3,3.8s-0.7,0.3-0.4,0.6c0.4,0.4-0.6,2.3-2.2,4.3c-1.5,2-3.4,4.6-4,5.9
			c-1.9,3.6-13.1,14.6-17.3,17c-7.9,4.5-12.3,5.1-29.4,4.1c-8.8-0.6-18.1-1.4-20.9-2c-2.7-0.5-8.7-1.6-13.2-2.4
			c-8-1.5-25.8-6.5-29.8-8.5c-2.4-1.1-27.2-10-28-10c-0.3,0-2.9-1.2-5.8-2.6c-2.8-1.4-6.1-2.7-7.2-2.9c-5-0.8-35.6-14.7-42.9-19.4
			c-3.7-2.5-3.9-2.5-5.2-0.6c-1.3,1.7-1.2,2.2,0.8,3.8c5,4,36.3,17.7,67.1,29.3c41.2,15.6,72.3,22.2,95.9,20.6
			c10.2-0.7,12.4-1.2,18.5-4.2c11.6-5.6,22.3-18.1,37.1-42.9c6.6-11.1,24.2-46.1,24.2-48.1c0-0.9,0.9-2.9,2-4.3s3.2-5.1,4.6-8.2
			c3.6-7.8,10.5-18.4,14.7-22.3c0.9-0.9,1.7-2.2,1.7-2.8c0-0.7,0.7-1.4,1.5-1.8c0.8-0.3,1.5-1,1.5-1.6c0-0.9,0.8-1.9,5.8-7.3
			c0.9-1.1,1.6-2.3,1.5-2.8c-0.2-0.5,0.8-1.6,2.2-2.5s2.5-2.2,2.5-3c0-0.7,1.6-2.6,3.5-4.1s3.5-3.3,3.5-3.9c0-1,12.2-13.1,24.6-24.3
			c16.5-14.9,21.9-21.1,18.6-21.1C424.2,216,420.6,218.6,416.7,221.7L416.7,221.7z"/>
		
			<linearGradient id="region-2-6_00000017510981697820552390000003155813640553219469_" gradientUnits="userSpaceOnUse" x1="688.803" y1="284.5796" x2="689.803" y2="283.5896" gradientTransform="matrix(251.98 0 0 -49.63 -173459.9062 14429.9307)">
			<stop  offset="0" style="stop-color:#BF0000;stop-opacity:0.61"/>
			<stop  offset="1" style="stop-color:#5E080D;stop-opacity:0.82"/>
		</linearGradient>
		<path id="region-2-6" style="fill:url(#region-2-6_00000017510981697820552390000003155813640553219469_);" d="M328.7,318.2
			c-8.5,12.9-13,17.2-28.2,27.2c-11.5,7.5-14.2,8.1-33,7.9c-9.1-0.1-23.5-1-32-1.8c-26.6-2.7-79.1-10.8-109.4-16.9
			c-34.4-7-36.9-7.3-39.4-5.7c-1.1,0.7-1.1,2.3-0.2,8.9c0.7,4.5,1.6,8,2,7.7c1.3-0.8,1.8-5.8,0.9-8.3c-0.5-1.4-0.8-2.7-0.5-2.9
			c0.2-0.3,2.9,0,6,0.7c3.1,0.6,5.8,1.1,6.1,1.1c0.2,0,2.3,0.6,4.6,1.4c2.2,0.8,4.3,1.4,4.7,1.3s1.8,0.1,3.2,0.5
			c1.4,0.3,5.7,1,9.5,1.6c3.9,0.6,8.8,1.3,11,1.7c2.2,0.3,4.9,0.7,6,0.9c4.3,0.7,9.1,1.6,10.5,2c0.8,0.2,3.5,0.7,6,1
			s5.2,0.8,6.1,1.1c1,0.2,3,0.7,4.5,0.9c7.3,1.1,10.7,1.5,13.9,2c1.9,0.2,5,0.6,6.7,0.9c1.8,0.3,5.6,0.8,8.3,1
			c2.8,0.3,5.7,0.7,6.5,1s4,0.7,7,1s8.4,1,12,1.5c18,2.7,57.6,3.7,61.1,1.6c0.5-0.4,1.9-0.8,3.1-1.1c3.8-0.9,5.3-1.2,5.6-1.4
			c0.1-0.2,0.5-0.3,1-0.4c0.4-0.1,1.8-0.8,3.2-1.5c1.4-0.8,3.5-1.5,4.7-1.7c2.9-0.3,12.4-6.9,20.8-14.5c8.9-8,9.9-9.3,11.5-15.4
			c0.7-2.8,2.4-6.4,3.7-8.1c2.2-3,2.2-4.4-0.2-4.4C335.3,309,332,313.2,328.7,318.2L328.7,318.2z"/>
	</g>
	<g id="layer-3">
		
			<linearGradient id="region-3-1_00000115485429609609682630000014673837649382759326_" gradientUnits="userSpaceOnUse" x1="688.4178" y1="289.3953" x2="689.6378" y2="288.6353" gradientTransform="matrix(231.92 0 0 -218.61 -159459.0938 63354.7109)">
			<stop  offset="0" style="stop-color:#4E0000;stop-opacity:0.56"/>
			<stop  offset="1" style="stop-color:#002C2D"/>
		</linearGradient>
		<path id="region-3-1" style="fill:url(#region-3-1_00000115485429609609682630000014673837649382759326_);" d="M421.4,82.9
			C397,107.7,393.1,112,379.5,128c-4,4.7-9.1,10.6-11.4,13.1c-9.9,11.2-14.2,16.2-15.6,18.3c-0.8,1.2-2.5,3.3-3.6,4.6
			c-14.8,17.1-36.3,42-41.7,48.4c-11.5,13.5-27.9,29.9-36.2,36c-2.2,1.7-4.2,3.3-4.5,3.6s-2.3,1.7-4.5,3c-2.2,1.3-4.2,2.6-4.5,2.9
			c-1,1.1-12.5,7.1-23.5,12.2c-4.3,2-13.9,4.9-16.2,4.9c-1.2,0-2.3,0.4-2.3,0.9c0,4.6,28-0.6,44.4-8.3c21.7-10.1,62.1-50,93.1-92.1
			c4.8-6.6,10.1-13.6,11.7-15.5s3.2-4,3.6-4.5c0.4-0.6,9.1-11.1,19.2-23.5c16.3-19.7,22.1-26.3,39.3-44.5c2.1-2.2,7.8-9.2,12.7-15.6
			c7.1-9.3,8.7-11.9,7.6-12.8C446.1,58.3,440.4,63.6,421.4,82.9L421.4,82.9z"/>
	</g>
</g>
<g id="_图层_2">
	<g id="layer-1-2">
		
			<linearGradient id="region-1-1-2_00000075153071433045886270000002626005282924340668_" gradientUnits="userSpaceOnUse" x1="691.3469" y1="290.0295" x2="692.1069" y2="288.8596" gradientTransform="matrix(427.55 0 0 -311.33 -294852.75 90316.4844)">
			<stop  offset="0" style="stop-color:#F25960"/>
			<stop  offset="1" style="stop-color:#A00000"/>
		</linearGradient>
		<path id="region-1-1-2" style="fill:url(#region-1-1-2_00000075153071433045886270000002626005282924340668_);" d="M1029.5,74.9
			c-31.8,32.1-35.4,35.8-50,53.1c-4,4.7-9.1,10.6-11.4,13.1c-9.9,11.2-14.2,16.2-15.6,18.3c-0.8,1.2-2.5,3.3-3.6,4.6
			c-14.8,17.1-36.3,42-41.7,48.4c-11.5,13.5-27.9,29.9-36.2,36c-2.2,1.7-4.2,3.3-4.5,3.6s-2.3,1.7-4.5,3c-2.2,1.3-4.2,2.6-4.5,2.9
			c-1,1.1-12.5,7.1-23.5,12.2c-8.5,3.9-14.6,5.1-29.6,5.8c-12.7,0.6-16.2,1.1-19.5,2.7c-2.1,1.1-5.9,2.6-8.4,3.2s-5.6,1.4-7,1.7
			c-1.4,0.4-16,1-32.5,1.4c-28.2,0.8-30.3,1-34.8,3.1c-6.3,3-10.1,7.7-12.6,15.9c-2.3,7.3-2.8,13.4-1.7,19.8
			c0.6,3.4,1.2,4.3,2.8,4.3c2,0,12.4,1.9,35.4,6.6c30.3,6.1,82.8,14.2,109.4,16.9c8.5,0.8,22.9,1.7,32,1.8c18.8,0.2,21.5-0.4,33-7.9
			c15.2-10,19.7-14.3,28.2-27.2c3.3-5,6.7-9.2,7.4-9.2s2.1-1.4,3-3.1c2.3-4.5,11.2-16.4,22.8-30.7c5.6-6.7,11-13.5,12.1-15
			s5.5-6.1,9.9-10.2c4.3-4.1,8.4-8.1,9.1-8.7c0.7-0.7,4.4-3.8,8.2-6.8c3.7-3.1,9.9-8.2,13.7-11.3c3.9-3.1,8.2-6.4,9.7-7.2
			c4-2.2,13.8-8.3,26.6-16.7c6.1-4,11.8-7.3,12.5-7.3c0.8,0,2.3-0.7,3.4-1.5c1-0.8,2.5-1.5,3.1-1.5c1.5,0,11.9-6.5,14.7-9.2
			c1.1-1,2.9-2.1,4-2.4c2.2-0.7,4.9-3.6,7.1-7.7c0.9-1.5,2.3-2.7,3.1-2.7c0.9,0,3.3-0.9,5.3-1.9c2-1.1,4.4-2.2,5.3-2.5
			c4.6-1.4,6.6-16,4.1-30.6c-2.7-15.7-9.8-32.1-26.3-60.6c-12.8-22.1-18.7-29.5-23.7-29.4C1062.8,42.1,1047.9,56.3,1029.5,74.9z"/>
		
			<linearGradient id="region-1-2-2_00000159467952549318616060000007656121710517916814_" gradientUnits="userSpaceOnUse" x1="690.9606" y1="289.6867" x2="690.9606" y2="288.6867" gradientTransform="matrix(83.1 0 0 -245.76 -56350.8984 71355.9219)">
			<stop  offset="0" style="stop-color:#9B3434"/>
			<stop  offset="1" style="stop-color:#800000"/>
		</linearGradient>
		<path id="region-1-2-2" style="fill:url(#region-1-2-2_00000159467952549318616060000007656121710517916814_);" d="M1104,165.1
			c-1.6,1-3.8,1.9-4.7,1.9c-1,0-2.4,1.2-3.3,2.7c-2.2,4.1-4.9,7-7.1,7.7c-1.1,0.3-2.9,1.4-4,2.4c-2.8,2.7-13.2,9.2-14.7,9.2
			c-0.6,0-2.1,0.7-3.1,1.5c-1.1,0.8-2.6,1.5-3.3,1.5c-0.8,0-6.7,3.4-13.1,7.6c-6.4,4.1-14.5,9.3-18,11.5l-6.3,3.9l4,5.2
			c5.4,7.2,10.4,18.2,14.2,31.3c1.7,6,3.8,13,4.6,15.5c2.7,8.6,3.3,11.6,4.3,21.5c0.5,5.5,1.4,13.8,2,18.5c2,16.2,3.8,38.6,5.5,67.5
			c1.7,28.7,1.8,29,4.3,31.8c3.9,4.1,8.9,3.3,11.5-2.1c1.1-2.2,1.2-5.6,0.4-17.7c-1.4-22.9-1.4-95.6,0.1-111
			c3.3-33.6,10.5-60.3,25.1-93.1c3.9-8.8,7.1-16.8,7.1-17.7C1109.5,162.5,1107.8,162.6,1104,165.1L1104,165.1z"/>
		
			<linearGradient id="region-1-3-2_00000107546884041851270820000012350906752391296682_" gradientUnits="userSpaceOnUse" x1="691.4913" y1="289.5601" x2="692.0413" y2="288.2501" gradientTransform="matrix(339.48 0 0 -205.44 -233960.0938 59677.1445)">
			<stop  offset="0" style="stop-color:#C0535B"/>
			<stop  offset="1" style="stop-color:#BB1328"/>
		</linearGradient>
		<path id="region-1-3-2" style="fill:url(#region-1-3-2_00000107546884041851270820000012350906752391296682_);" d="M1016.7,221.7
			c-15.8,12.8-21.8,17.8-23.3,19.3c-0.9,0.8-5.2,4.9-9.5,9s-8.8,8.7-9.9,10.2s-6.5,8.3-12.1,15c-11.6,14.3-20.5,26.2-22.8,30.7
			c-0.9,1.7-2.3,3.1-3,3.1s-4.1,4.2-7.4,9.2c-8.5,12.9-13,17.2-28.2,27.2c-11.5,7.5-14.2,8.1-33,7.9c-9.1-0.1-23.5-1-32-1.8
			c-26.6-2.7-79.1-10.8-109.4-16.9c-34.5-7-36.9-7.3-39.5-5.7c-2,1.3,3.1,31.8,5.6,33.6c1.5,1.1,1.6,1.8,0.7,4.4
			c-1.1,2.8-1,3.1,2.5,5.5c6.8,4.6,38.2,18.1,68.6,29.4c39.3,14.6,69.6,21,92.7,19.4c10.2-0.7,12.4-1.2,18.5-4.2
			c11.6-5.6,22.3-18.1,37.1-42.9c6.6-11.1,24.2-46.1,24.2-48.1c0-0.9,0.9-2.9,2-4.3s3.2-5.1,4.6-8.2c3.6-7.8,10.5-18.4,14.7-22.3
			c0.9-0.9,1.7-2.2,1.7-2.8c0-0.7,0.7-1.4,1.5-1.8c0.8-0.3,1.5-1,1.5-1.6c0-0.9,0.8-1.9,5.8-7.3c0.9-1.1,1.6-2.3,1.5-2.8
			c-0.2-0.5,0.8-1.6,2.2-2.5s2.5-2.2,2.5-3c0-0.7,1.6-2.6,3.5-4.1s3.5-3.3,3.5-3.9c0-1,12.2-13.1,24.6-24.3
			c16.5-14.9,21.9-21.1,18.6-21.1C1024.2,216,1020.6,218.6,1016.7,221.7L1016.7,221.7z"/>
	</g>
	<g id="layer-2-2">
		
			<linearGradient id="region-2-1-2_00000065055000820467127500000014333711470400045485_" gradientUnits="userSpaceOnUse" x1="692.965" y1="289.9109" x2="693.695" y2="288.7309" gradientTransform="matrix(372.89 0 0 -272.99 -257040.3125 79160.6797)">
			<stop  offset="0" style="stop-color:#FFEFF2;stop-opacity:0.91"/>
			<stop  offset="1" style="stop-color:#FFA3B3;stop-opacity:0.47"/>
		</linearGradient>
		<path id="region-2-1-2" style="fill:url(#region-2-1-2_00000065055000820467127500000014333711470400045485_);" d="M1629.5,73.9
			c-31.8,32.1-35.4,35.8-50,53.1c-4,4.7-9.1,10.6-11.4,13.1c-9.9,11.2-14.2,16.2-15.6,18.3c-0.8,1.2-2.5,3.3-3.6,4.6
			c-14.8,17.1-36.3,42-41.7,48.4c-11.5,13.5-27.9,29.9-36.2,36c-2.2,1.7-4.2,3.3-4.5,3.6s-2.3,1.7-4.5,3s-4.2,2.6-4.5,2.9
			c-1,1.1-12.5,7.1-23.5,12.2c-5.5,2.5-14.6,5-20.7,5.6c-4.3,0.4-6.8,1-6.8,1.8c0,1.5-12.1,8.7-17.4,10.5
			c-11.8,3.8-15.2,4.2-47.6,4.8c-17.9,0.4-33.1,1.1-33.8,1.5c-1.8,1.2,3.4,8.2,7.5,10.2c5.2,2.5,21.5,8.7,26.4,10
			c11.9,3.2,70.2-5.8,87.9-13.6c7.6-3.4,11.7-8.3,13.4-16.1c1-4.6,6.3-9.5,14.4-13.4c4.2-2.1,7.9-4.1,8.2-4.4s1.7-1.1,3.3-1.9
			c1.5-0.8,2.7-1.8,2.7-2.3c0-0.4,0.4-0.8,0.9-0.8s2-0.9,3.3-2c1.2-1,5.9-4.9,10.3-8.6c12-9.9,18.6-16.4,33.7-32.9
			c7.5-8.3,16.8-17.9,20.5-21.5s6.7-6.8,6.5-7.3c-0.1-0.4,0.2-0.7,0.8-0.7c0.5,0,1-0.7,1-1.5s0.4-1.5,1-1.5c0.5,0,1.2-1.1,1.6-2.5
			c0.3-1.4,1-2.5,1.5-2.5s0.9-0.5,0.9-1c0-2.2,8-8.8,12.6-10.5c2.7-0.9,6.5-2.4,8.4-3.3c1.9-0.8,4.9-2.1,6.5-2.7
			c3.4-1.4,33.6-16.3,47-23.2c5-2.5,9.9-4.9,11-5.3s4-1.7,6.5-2.8c2.5-1.2,10.2-3.7,17-5.7c12.6-3.6,15.7-5.3,16.2-9
			c0.2-1.1,0.6-2.5,1-3c1.3-2.1,0-17.1-2-22.3c-1.1-2.8-1.9-5.2-1.7-5.2s-0.3-1.6-1.1-3.5s-1.4-3.7-1.4-4s0-0.6-0.1-0.8
			c0-0.1-0.2-1-0.5-2c-0.5-2.3-0.9-3.5-2.2-8.2c-0.6-2.2-1.4-5.5-1.7-7.4c-0.3-1.8-1.2-4.5-1.9-6c-1.2-2.2-1.2-3,0.1-5.5
			c1.1-2.2,1.2-3.4,0.4-5.2C1665.3,38.2,1663.3,39.8,1629.5,73.9L1629.5,73.9z"/>
		
			<linearGradient id="region-2-2-2_00000013905914149720960700000006764175071964978820_" gradientUnits="userSpaceOnUse" x1="693.2041" y1="289.2674" x2="693.2041" y2="288.2674" gradientTransform="matrix(407.76 0 0 -185.25 -281168.5625 53754.8672)">
			<stop  offset="0" style="stop-color:#A6759A;stop-opacity:0.34"/>
			<stop  offset="1" style="stop-color:#F7DCFF;stop-opacity:0.26"/>
		</linearGradient>
		<path id="region-2-2-2" style="fill:url(#region-2-2-2_00000013905914149720960700000006764175071964978820_);" d="M1686,168.5
			c-1.6,0.7-8,2.9-14.2,4.9c-28.4,9.1-48.6,18.6-61.2,28.9c-10.4,8.5-47.7,46-58,58.2c-11.2,13.4-15.3,19.8-19.5,30.2
			c-5.6,13.6-17.5,29.7-26.6,35.9c-1.9,1.3-5.3,3.6-7.5,5.1c-9.1,6.4-13.4,7.5-31.5,8c-8.5,0.2-17.5,0.5-20,0.5
			c-2.5,0.1-7.4-0.2-11-0.6c-3.6-0.5-10.1-1-14.5-1.2c-19.4-0.8-41.1-3-54.5-5.4c-18.4-3.2-36.1-6.5-46.7-8.6
			c-17.6-3.5-32.3-3.1-32.3,0.7c0,1.3,0.7,1.9,2.1,1.9c2.1,0,12.3,1.9,35.5,6.6c30.3,6.1,82.8,14.2,109.4,16.9
			c8.5,0.8,22.9,1.7,32,1.8c18.8,0.2,21.5-0.4,33-7.9c15.2-10,19.7-14.3,28.2-27.2c3.3-5,6.7-9.2,7.4-9.2s2.1-1.4,3-3.1
			c2.3-4.5,11.2-16.4,22.8-30.7c5.6-6.7,11-13.5,12.1-15s5.5-6.1,9.9-10.2c4.3-4.1,8.4-8.1,9.1-8.7c0.7-0.7,4.4-3.8,8.2-6.8
			c3.7-3.1,9.9-8.2,13.7-11.3c3.9-3.1,8.2-6.4,9.7-7.2c4-2.2,13.8-8.3,26.6-16.7c6.1-4,11.8-7.3,12.5-7.3c0.8,0,2.3-0.7,3.4-1.5
			c1-0.8,2.5-1.5,3.1-1.5c1.5,0,11.9-6.5,14.8-9.2c1.1-1,2.9-2.1,4-2.4c2-0.6,6-4.9,7.1-7.8c0.5-1.3-0.1-1.6-3.2-1.5
			C1690.7,167.1,1687.7,167.7,1686,168.5L1686,168.5z"/>
		
			<linearGradient id="region-2-3-2_00000090254419493700403680000015911864262203829161_" gradientUnits="userSpaceOnUse" x1="701.0676" y1="288.3599" x2="702.8876" y2="287.5599" gradientTransform="matrix(53.54 0 0 -128.15 -35901.4297 37148.2578)">
			<stop  offset="0" style="stop-color:#BB5567;stop-opacity:0.82"/>
			<stop  offset="1" style="stop-color:#C5142D;stop-opacity:0.75"/>
		</linearGradient>
		<path id="region-2-3-2" style="fill:url(#region-2-3-2_00000090254419493700403680000015911864262203829161_);" d="M1686.5,177.7
			c-1.4,0.9-2.7,2-3,2.3c-1,1.3-12.1,8-13.3,8c-0.6,0-2.1,0.7-3.1,1.5c-1.1,0.8-2.6,1.5-3.4,1.5c-0.7,0-6.5,3.4-12.9,7.6l-11.5,7.5
			l2.6,2.8c1.4,1.5,2.6,3.7,2.6,4.9c0,1.3,0.7,2.5,1.6,2.9c0.8,0.3,1.3,1.1,1,1.9c-0.3,0.7,0,1.4,0.5,1.6s1.1,1.3,1.2,2.6
			c0,1.2,0.6,2.2,1.1,2.2s0.6,0.3,0.3,0.7c-0.4,0.3-0.3,1.1,0.2,1.7s1.6,4.5,2.4,8.6c1.5,7.6,2,11.6,5.8,47
			c2.1,20.5,3.5,25.1,5.4,18.3c0.6-2.1,1.7-3.8,2.4-3.8c0.8,0,1.5-0.7,1.6-1.5c0.2-0.8,0.6-3.5,0.9-6c0.4-2.5,0.9-5.7,1.2-7.2
			s0.7-3.9,0.9-5.5c0.2-1.5,0.7-3.9,1-5.3s1.4-10.2,2.5-19.5c1.1-9.4,2.2-18.3,2.5-20c1.2-6.1,7.2-26,13.6-44.8
			c2.3-6.9,2.7-9.2,1.8-10.3C1690.9,175.6,1689.5,175.6,1686.5,177.7L1686.5,177.7z"/>
		
			<linearGradient id="region-2-4-2_00000093884966748671051990000002623539489507441305_" gradientUnits="userSpaceOnUse" x1="712.4363" y1="285.5852" x2="712.4363" y2="284.5851" gradientTransform="matrix(25.41 0 0 -59.29 -16463.8203 17140.9414)">
			<stop  offset="0" style="stop-color:#BA8383;stop-opacity:0.55"/>
			<stop  offset="1" style="stop-color:#DC8AA5;stop-opacity:0.42"/>
		</linearGradient>
		<path id="region-2-4-2" style="fill:url(#region-2-4-2_00000093884966748671051990000002623539489507441305_);" d="M1629.3,212.1
			l-2.8,2l3.9,5.2c6.9,9.3,13.9,26.4,17.3,42.1c1.4,6.8,2.7,9.3,3.9,7.5c1.4-2.3-2.1-20.9-6.1-32.3c-1.1-3.3-2-6.7-2-7.6
			c0-1.9-6.4-14.6-8.8-17.3C1632.8,209.6,1632.6,209.6,1629.3,212.1L1629.3,212.1z"/>
		
			<linearGradient id="region-2-5-2_00000054981871115880371660000006893410073439739040_" gradientUnits="userSpaceOnUse" x1="693.4957" y1="289.4407" x2="693.4957" y2="288.4407" gradientTransform="matrix(333.58 0 0 -205.43 -229877.5 59672.4844)">
			<stop  offset="0" style="stop-color:#370000;stop-opacity:0.74"/>
			<stop  offset="1" style="stop-color:#14683C;stop-opacity:0.49"/>
		</linearGradient>
		<path id="region-2-5-2" style="fill:url(#region-2-5-2_00000054981871115880371660000006893410073439739040_);" d="M1616.7,220.7
			c-15.8,12.8-21.8,17.8-23.3,19.3c-0.9,0.8-5.2,4.9-9.5,9s-8.8,8.7-9.9,10.2s-6.5,8.3-12.1,15c-16.7,20.4-25.5,33.1-24,34.6
			c0.3,0.3-0.5,1.9-1.7,3.6c-1.3,1.7-2.9,5.3-3.7,8.1c-0.7,2.7-2,5.8-2.8,6.7c-0.8,1-1.6,2.9-1.7,4.2c-0.3,2.2-4.6,11.6-8.3,18.1
			c-5,8.8-15.3,26.7-17.2,29.7c-1.2,2.1-2.7,3.8-3.3,3.8s-0.7,0.3-0.4,0.6c0.4,0.4-0.6,2.3-2.2,4.3c-1.5,2-3.4,4.6-4,5.9
			c-1.9,3.6-13.1,14.6-17.3,17c-7.9,4.5-12.3,5.1-29.4,4.1c-8.8-0.6-18.1-1.4-20.9-2c-2.7-0.5-8.7-1.6-13.2-2.4
			c-8-1.5-25.8-6.5-29.8-8.5c-2.4-1.1-27.2-10-28-10c-0.3,0-2.9-1.2-5.8-2.6c-2.8-1.4-6.1-2.7-7.2-2.9c-5-0.8-35.6-14.7-42.9-19.4
			c-3.7-2.5-3.9-2.5-5.2-0.6c-1.3,1.7-1.2,2.2,0.8,3.8c5,4,36.3,17.7,67.1,29.3c41.2,15.6,72.3,22.2,95.9,20.6
			c10.2-0.7,12.4-1.2,18.5-4.2c11.6-5.6,22.3-18.1,37.1-42.9c6.6-11.1,24.2-46.1,24.2-48.1c0-0.9,0.9-2.9,2-4.3s3.2-5.1,4.6-8.2
			c3.6-7.8,10.5-18.4,14.7-22.3c0.9-0.9,1.7-2.2,1.7-2.8c0-0.7,0.7-1.4,1.5-1.8c0.8-0.3,1.5-1,1.5-1.6c0-0.9,0.8-1.9,5.8-7.3
			c0.9-1.1,1.6-2.3,1.5-2.8c-0.2-0.5,0.8-1.6,2.2-2.5s2.5-2.2,2.5-3c0-0.7,1.6-2.6,3.5-4.1s3.5-3.3,3.5-3.9c0-1,12.2-13.1,24.6-24.3
			c16.5-14.9,21.9-21.1,18.6-21.1C1624.2,215,1620.6,217.6,1616.7,220.7L1616.7,220.7z"/>
		
			<linearGradient id="region-2-6-2_00000112627855500817692420000011567596364311499190_" gradientUnits="userSpaceOnUse" x1="693.5642" y1="284.6008" x2="694.5642" y2="283.6108" gradientTransform="matrix(251.98 0 0 -49.63 -173459.9062 14429.9307)">
			<stop  offset="0" style="stop-color:#BF0000;stop-opacity:0.61"/>
			<stop  offset="1" style="stop-color:#5E080D;stop-opacity:0.82"/>
		</linearGradient>
		<path id="region-2-6-2" style="fill:url(#region-2-6-2_00000112627855500817692420000011567596364311499190_);" d="M1528.7,317.2
			c-8.5,12.9-13,17.2-28.2,27.2c-11.5,7.5-14.2,8.1-33,7.9c-9.1-0.1-23.5-1-32-1.8c-26.6-2.7-79.1-10.8-109.4-16.9
			c-34.4-7-36.9-7.3-39.4-5.7c-1.1,0.7-1.1,2.3-0.2,8.9c0.7,4.5,1.6,8,2,7.7c1.3-0.8,1.8-5.8,0.9-8.3c-0.5-1.4-0.8-2.7-0.5-2.9
			c0.2-0.3,2.9,0,6,0.7c3.1,0.6,5.8,1.1,6.1,1.1c0.2,0,2.3,0.6,4.6,1.4c2.2,0.8,4.3,1.4,4.7,1.3s1.8,0.1,3.2,0.5
			c1.4,0.3,5.7,1,9.5,1.6c3.9,0.6,8.8,1.3,11,1.7c2.2,0.3,4.9,0.7,6,0.9c4.3,0.7,9.1,1.6,10.5,2c0.8,0.2,3.5,0.7,6,1
			s5.2,0.8,6.1,1.1c1,0.2,3,0.7,4.5,0.9c7.3,1.1,10.7,1.5,13.9,2c1.9,0.2,5,0.6,6.7,0.9c1.8,0.3,5.6,0.8,8.3,1
			c2.8,0.3,5.7,0.7,6.5,1s4,0.7,7,1s8.4,1,12,1.5c18,2.7,57.6,3.7,61.1,1.6c0.5-0.4,1.9-0.8,3.1-1.1c3.8-0.9,5.3-1.2,5.6-1.4
			c0.1-0.2,0.5-0.3,1-0.4c0.4-0.1,1.8-0.8,3.2-1.5c1.4-0.8,3.5-1.5,4.7-1.7c2.9-0.3,12.4-6.9,20.8-14.5c8.9-8,9.9-9.3,11.5-15.4
			c0.7-2.8,2.4-6.4,3.7-8.1c2.2-3,2.2-4.4-0.2-4.4C1535.3,308,1532,312.2,1528.7,317.2L1528.7,317.2z"/>
	</g>
	<g id="layer-3-2">
		
			<linearGradient id="region-3-1-2_00000144321611592691154610000009874252714133017728_" gradientUnits="userSpaceOnUse" x1="696.1782" y1="289.3959" x2="697.3981" y2="288.6359" gradientTransform="matrix(231.92 0 0 -218.61 -159459.0938 63354.7109)">
			<stop  offset="0" style="stop-color:#4E0000;stop-opacity:0.56"/>
			<stop  offset="1" style="stop-color:#002C2D"/>
		</linearGradient>
		<path id="region-3-1-2" style="fill:url(#region-3-1-2_00000144321611592691154610000009874252714133017728_);" d="M2221.4,82.9
			c-24.4,24.8-28.3,29.1-41.9,45.1c-4,4.7-9.1,10.6-11.4,13.1c-9.9,11.2-14.2,16.2-15.6,18.3c-0.8,1.2-2.5,3.3-3.6,4.6
			c-14.8,17.1-36.3,42-41.7,48.4c-11.5,13.5-27.9,29.9-36.2,36c-2.2,1.7-4.2,3.3-4.5,3.6s-2.3,1.7-4.5,3c-2.2,1.3-4.2,2.6-4.5,2.9
			c-1,1.1-12.5,7.1-23.5,12.2c-4.3,2-13.9,4.9-16.2,4.9c-1.2,0-2.3,0.4-2.3,0.9c0,4.6,28-0.6,44.4-8.3c21.7-10.1,62.1-50,93.1-92.1
			c4.8-6.6,10.1-13.6,11.7-15.5s3.2-4,3.6-4.5c0.4-0.6,9.1-11.1,19.2-23.5c16.3-19.7,22.1-26.3,39.3-44.5c2.1-2.2,7.8-9.2,12.7-15.6
			c7.1-9.3,8.7-11.9,7.6-12.8C2246.1,58.3,2240.4,63.6,2221.4,82.9L2221.4,82.9z"/>
	</g>
	<line class="st25" x1="1200.4" y1="0" x2="1200.4" y2="462"/>
	<line class="st25" x1="1800.4" y1="0" x2="1800.4" y2="462"/>
</g>
</svg>
