<?xml version="1.0" encoding="utf-8"?>
<!-- Generator: Adobe Illustrator 26.5.0, SVG Export Plug-In . SVG Version: 6.00 Build 0)  -->
<svg version="1.1" id="图层_1" xmlns="http://www.w3.org/2000/svg" xmlns:xlink="http://www.w3.org/1999/xlink" x="0px" y="0px"
	 viewBox="0 0 710 460" style="enable-background:new 0 0 710 460;" xml:space="preserve">
<style type="text/css">
	.st0{fill:none;}
	.st1{fill:#D3D3D3;}
	.st2{fill:url(#SVGID_00000162342095086861425050000001053240056699154844_);}
	.st3{fill:url(#region-1-1_00000109003327549340248260000002022028606378193292_);}
	.st4{fill:url(#region-1-2_00000040547323231348947720000004567147492155479434_);}
	.st5{fill:url(#region-1-3_00000006697467663560961710000003648666584318286474_);}
	.st6{fill:url(#region-1-4_00000030472674788914547620000012936388271700388538_);}
	.st7{fill:url(#region-1-5_00000113318908365786486640000004677023500118171030_);}
	.st8{fill:url(#region-2-1_00000030466793106626993210000018377445062449824691_);}
	.st9{fill:url(#region-2-2_00000116924702975891682930000013870008057062997919_);}
	.st10{fill:url(#region-2-3_00000072974000416021026990000017774758519216355738_);}
	.st11{fill:url(#region-2-4_00000157276226572449834920000006475095712157006257_);}
	.st12{fill:url(#region-2-5_00000119104065612594146970000011481900016740021665_);}
	.st13{fill:url(#region-3-1_00000143589501001014165210000004076046176784083867_);}
	.st14{fill:url(#region-3-2_00000040566245642135094850000011844682335660306075_);}
	.st15{fill:url(#region-3-3_00000032621573348397093360000010075742391963677871_);}
	.st16{fill:url(#region-3-4_00000152978500139602536810000009952896766378210180_);}
	.st17{fill:url(#region-1-3_00000163760123222095515750000003236839392840031105_);}
	.st18{fill:url(#region-1-4_00000104705984738607876080000006332749149257024385_);}
	.st19{fill:url(#region-2-3_00000031889072948986162860000009141724689297874334_);stroke:#000000;stroke-miterlimit:10;}
	.st20{fill:url(#region-3-2_00000001665175737788636580000018144554179959619719_);stroke:#000000;stroke-miterlimit:10;}
	.st21{fill:none;stroke:#000000;stroke-width:2;stroke-miterlimit:10;}
	.st22{fill:none;stroke:#0000FF;stroke-width:3;stroke-miterlimit:10;}
</style>
<pattern  y="460" width="40" height="40" patternUnits="userSpaceOnUse" id="SVGID_1_" viewBox="0 -40 40 40" style="overflow:visible;">
	<g>
		<rect y="-40" class="st0" width="40" height="40"/>
		<g>
			<rect y="-40" class="st0" width="40" height="40"/>
			<g>
				<rect y="-40" class="st0" width="40" height="40"/>
				<g>
					<rect y="-40" class="st0" width="40" height="40"/>
					<rect y="-40" class="st0" width="40" height="40"/>
					<rect y="-20" class="st1" width="20" height="20"/>
					<rect x="20" y="-40" class="st1" width="20" height="20"/>
				</g>
			</g>
		</g>
	</g>
</pattern>
<g id="图层_1_00000081619854037610691890000015816733684815505066_">
	
		<pattern  id="SVGID_00000015322314227700288440000013144616449893923754_" xlink:href="#SVGID_1_" patternTransform="matrix(1 0 0 -1 -84 -33194.2422)">
	</pattern>
	<rect style="fill:url(#SVGID_00000015322314227700288440000013144616449893923754_);" width="710" height="460"/>
</g>
<g id="图层_2_00000043425174620978189380000007950002988988158853_">
	<g id="layer-1">
		
			<linearGradient id="region-1-1_00000011006468556768544310000005880828751029874056_" gradientUnits="userSpaceOnUse" x1="-2368.9209" y1="-26.0339" x2="-2368.8064" y2="-26.7289" gradientTransform="matrix(66 0 0 -76 156701 -1957)">
			<stop  offset="0" style="stop-color:#DDDADE;stop-opacity:0.991"/>
			<stop  offset="1" style="stop-color:#C0BEC3;stop-opacity:0.992"/>
		</linearGradient>
		<path id="region-1-1" style="fill:url(#region-1-1_00000011006468556768544310000005880828751029874056_);" d="M348.8,24.7
			c-4.3,1.2-8.1,5.2-9,9.5c-0.3,1.4-0.5,7.7-0.5,14.4v12.1h15.9h15.9V42.4V24l-10,0.1C354.6,24.1,350.2,24.3,348.8,24.7z"/>
		
			<linearGradient id="region-1-2_00000003812917426096274250000014165809489934045568_" gradientUnits="userSpaceOnUse" x1="-2387.8071" y1="-26.0511" x2="-2387.8066" y2="-26.5401" gradientTransform="matrix(124 0 0 -76.1 296489 -1958.4988)">
			<stop  offset="0" style="stop-color:#C3C0C7"/>
			<stop  offset="1" style="stop-color:#B5B0B9"/>
		</linearGradient>
		<path id="region-1-2" style="fill:url(#region-1-2_00000003812917426096274250000014165809489934045568_);" d="M371.1,42.4v18.4
			H401h29.9V47.6c0-12.8,0-13.2-1.2-15.6c-1.4-3-3.7-5.4-6.6-6.7c-2.1-1-3-1-27.1-1.2L371,24v18.4H371.1z"/>
		
			<linearGradient id="region-1-3_00000157992768066661544910000015560566767590378909_" gradientUnits="userSpaceOnUse" x1="-2400.2908" y1="-17.691" x2="-2400.2908" y2="-18.1736" gradientTransform="matrix(315.0029 0 0 -237.7783 756481 -4145.6924)">
			<stop  offset="0" style="stop-color:#FEB005"/>
			<stop  offset="1" style="stop-color:#FFAE00"/>
		</linearGradient>
		<path id="region-1-3" style="fill:url(#region-1-3_00000157992768066661544910000015560566767590378909_);" d="M311.7,61.5
			c-0.9,0.4-2.2,1.2-2.8,1.8c-2.7,2.5-2.5-0.6-2.5,58v54.3h76.1h76v-53.9V67.8l-1-2.1c-0.6-1.3-1.8-2.6-3-3.4l-2-1.3L383,60.9
			C321.6,60.8,313.2,60.8,311.7,61.5z"/>
		
			<linearGradient id="region-1-4_00000103987612480733418070000017352115816740719264_" gradientUnits="userSpaceOnUse" x1="-2400.4502" y1="-15.5194" x2="-2400.0959" y2="-16.1459" gradientTransform="matrix(315 0 0 -482 756474 -7327)">
			<stop  offset="0" style="stop-color:#69464B;stop-opacity:0.994"/>
			<stop  offset="1" style="stop-color:#84686C"/>
		</linearGradient>
		<path id="region-1-4" style="fill:url(#region-1-4_00000103987612480733418070000017352115816740719264_);" d="M306.4,289.3v113.6
			l1.2,1.8c0.7,1,2.1,2.2,3.1,2.8c1.9,1,2.8,1,71.5,1c58,0,69.8-0.1,71.1-0.7c1.9-0.8,4-3,4.6-4.8c0.4-1,0.5-35.7,0.5-114.3v-113
			h-76.1h-76L306.4,289.3L306.4,289.3z"/>
		
			<linearGradient id="region-1-5_00000183955893136363857510000006035596449854860433_" gradientUnits="userSpaceOnUse" x1="-2398.9248" y1="-25.2246" x2="-2398.8611" y2="-27.5506" gradientTransform="matrix(270 0 0 -45 648091 -727)">
			<stop  offset="0" style="stop-color:#C5C1C8;stop-opacity:0.992"/>
			<stop  offset="1" style="stop-color:#B5B1B9;stop-opacity:0.992"/>
		</linearGradient>
		<path id="region-1-5" style="fill:url(#region-1-5_00000183955893136363857510000006035596449854860433_);" d="M317,414.5
			c0,3.4,0.2,7,0.5,7.9c0.7,2.5,3.2,5.3,6,6.6l2.5,1.2h56c41.5,0,56.4-0.1,57.8-0.6c2.3-0.7,5.8-3.7,6.9-5.9
			c0.6-1.3,0.8-3.2,0.8-8.5v-6.8h-65.2H317V414.5L317,414.5z"/>
	</g>
	<g id="layer-2">
		
			<linearGradient id="region-2-1_00000065038186490922118130000008706763176291857556_" gradientUnits="userSpaceOnUse" x1="-2394.9053" y1="-63.2799" x2="-2394.9028" y2="-64.2954" gradientTransform="matrix(190 0 0 -18 455417 -1087)">
			<stop  offset="0" style="stop-color:#000000;stop-opacity:0.136"/>
			<stop  offset="1" style="stop-color:#000000;stop-opacity:0.182"/>
		</linearGradient>
		<path id="region-2-1" style="fill:url(#region-2-1_00000065038186490922118130000008706763176291857556_);" d="M339.2,56.4v4.4
			h45.9H431v-4.4V52h-45.9h-45.9V56.4z"/>
		
			<linearGradient id="region-2-2_00000176760810032057476500000016609550832336186282_" gradientUnits="userSpaceOnUse" x1="-2387.2197" y1="-20.899" x2="-2387.2197" y2="-21.3815" gradientTransform="matrix(121.5311 0 0 -122.8675 290503.8438 -2478.9932)">
			<stop  offset="0" style="stop-color:#F9F6E5;stop-opacity:0.784"/>
			<stop  offset="1" style="stop-color:#F8FFFF;stop-opacity:0.81"/>
		</linearGradient>
		<path id="region-2-2" style="fill:url(#region-2-2_00000176760810032057476500000016609550832336186282_);" d="M379.2,89.8
			c-3,1.7-3.3,3.1-3.3,13.2v8.9h-8.7c-10.5,0-12,0.4-13.5,3.7c-1.5,3.1-0.7,6.2,2.1,7.9c1.4,0.9,2.5,1,10.9,1h9.3v8.9
			c0,6.7,0.2,9.4,0.7,10.6c0.7,1.7,3.9,4.1,5.5,4.1c1.5,0,3.8-1.4,5.2-3c1.2-1.5,1.2-1.5,1.2-11.1v-9.6h9.7h9.7l1.7-1.6
			c2.3-2.1,2.8-5.5,1.2-8c-1.6-2.7-3.2-3-13.3-3h-8.9v-9.3c0-10.4-0.3-11.5-3.5-13C382.7,88.5,381.4,88.6,379.2,89.8z"/>
		
			<linearGradient id="region-2-3_00000098210651905041974030000003500344424690816178_" gradientUnits="userSpaceOnUse" x1="-2398.9082" y1="-16.7311" x2="-2398.9075" y2="-17.2172" gradientTransform="matrix(269.6007 0 0 -269.4234 647129.5 -4314.5269)">
			<stop  offset="0" style="stop-color:#FFFDD2;stop-opacity:0.803"/>
			<stop  offset="1" style="stop-color:#FFFFE0;stop-opacity:0.851"/>
		</linearGradient>
		<path id="region-2-3" style="fill:url(#region-2-3_00000098210651905041974030000003500344424690816178_);" d="M374.7,193.5
			c-8.3,1.1-14.6,3-22.5,7c-7.8,4-14.6,9.6-21.3,17.4c-5.5,6.5-10.6,17.3-12.8,27.2c-1.3,5.8-1.3,20.2,0,26
			c2.9,12.9,7.8,22.3,16.9,31.7c12.5,13,26.9,19.6,44.6,20.4c37.2,1.6,67.8-27.9,67.8-65.1c0-31-21.7-57.5-52.2-63.7
			C389.6,193.3,379.7,192.9,374.7,193.5z"/>
		
			<linearGradient id="region-2-4_00000044875617774436344060000000686324258955056280_" gradientUnits="userSpaceOnUse" x1="-2387.3091" y1="-34.7486" x2="-2387.3052" y2="-35.4651" gradientTransform="matrix(122.0382 0 0 -26.9212 291725 -576.7764)">
			<stop  offset="0" style="stop-color:#FFFED2;stop-opacity:0.815"/>
			<stop  offset="1" style="stop-color:#FFFFDC;stop-opacity:0.862"/>
		</linearGradient>
		<path id="region-2-4" style="fill:url(#region-2-4_00000044875617774436344060000000686324258955056280_);" d="M357.4,359.1
			c-2.6,0.8-4.6,3.5-4.6,6.1c0,2,1.5,4.5,3.4,5.5c1.5,0.8,3.3,0.9,26.3,0.9c23.6,0,24.7,0,26.2-1c4.3-2.6,4-9.1-0.5-11.1
			c-1.9-0.8-3.4-0.9-25.7-0.9C369.4,358.7,358.1,359,357.4,359.1z"/>
		
			<linearGradient id="region-2-5_00000067225870994667808930000014547699553293943466_" gradientUnits="userSpaceOnUse" x1="-2398.9265" y1="-50.0943" x2="-2398.7334" y2="-59.5217" gradientTransform="matrix(270 0 0 -14 648091 -293)">
			<stop  offset="0" style="stop-color:#706D72;stop-opacity:0.554"/>
			<stop  offset="1" style="stop-color:#918D94;stop-opacity:0.8"/>
		</linearGradient>
		<path id="region-2-5" style="fill:url(#region-2-5_00000067225870994667808930000014547699553293943466_);" d="M317,411.8v3.4
			h65.2h65.2v-3.4v-3.4h-65.2H317V411.8z"/>
	</g>
	<g id="layer-3">
		
			<linearGradient id="region-3-1_00000044883974325208275710000013508810952411554992_" gradientUnits="userSpaceOnUse" x1="-2395.7302" y1="-21.5682" x2="-2395.6804" y2="-20.657" gradientTransform="matrix(202.42 0 0 -102.0178 485323.875 -1943.2455)">
			<stop  offset="0" style="stop-color:#4CB300;stop-opacity:0.85"/>
			<stop  offset="1" style="stop-color:#85C929;stop-opacity:0.694"/>
		</linearGradient>
		<path id="region-3-1" style="fill:url(#region-3-1_00000044883974325208275710000013508810952411554992_);" d="M372.3,207.5
			c-12.9,2.7-23.7,10-31.1,21.2c-3.9,5.9-7,14.5-7.5,21c-0.1,1.9-0.3,4-0.4,4.7l-0.2,1.4h7.4h7.4l0.3-3
			c1.7-15.1,12.4-27.4,26.7-30.6c5.4-1.2,13.2-0.8,18.2,1c4.9,1.6,9.9,4.8,13.2,8.2l2.6,2.7l-3,0.8c-1.6,0.5-3,1-3,1.1
			c0.1,0.7,20.9,19.8,21.2,19.5c0.5-0.5,6.8-27.3,6.5-27.6c-0.1-0.1-1.5,0.1-3,0.6s-3,0.8-3.3,0.8s-1.5-1.4-2.6-3
			c-3-4.2-9.4-9.9-14-12.7C397.4,207.3,384.1,205.1,372.3,207.5z"/>
		
			<linearGradient id="region-3-2_00000103237705170473320010000011094135834065611692_" gradientUnits="userSpaceOnUse" x1="-2354.5723" y1="-15.449" x2="-2353.3721" y2="-15.4926" gradientTransform="matrix(49 0 0 -720 115680 -10897)">
			<stop  offset="0" style="stop-color:#FCFEFD;stop-opacity:0.368"/>
			<stop  offset="1" style="stop-color:#FFFFFB;stop-opacity:0.27"/>
		</linearGradient>
		<path id="region-3-2" style="fill:url(#region-3-2_00000103237705170473320010000011094135834065611692_);" d="M311.7,61.5
			c-2,0.9-3.7,2.4-4.6,4.1c-0.6,1.1-0.7,25.9-0.7,169.2v167.9l1.2,1.8c2.3,3.3,3.8,3.7,13.8,3.7h8.7V234.6V60.7h-8.3
			C315.3,60.8,313,60.9,311.7,61.5z"/>
		
			<linearGradient id="region-3-3_00000044160700988070090330000009578490917099444404_" gradientUnits="userSpaceOnUse" x1="-2395.7671" y1="-20.537" x2="-2395.7422" y2="-21.2933" gradientTransform="matrix(203.0095 0 0 -101.4 486745.1875 -1822.5989)">
			<stop  offset="0" style="stop-color:#74C21A;stop-opacity:0.709"/>
			<stop  offset="1" style="stop-color:#4AB000;stop-opacity:0.874"/>
		</linearGradient>
		<path id="region-3-3" style="fill:url(#region-3-3_00000044160700988070090330000009578490917099444404_);" d="M337.8,271.1
			c-1.4,5.8-2.9,12.2-3.4,14.1c-0.5,2-0.9,3.6-0.8,3.7c0.1,0,1.5-0.3,3.3-0.8c1.7-0.5,3.2-1,3.4-1s1.4,1.5,2.8,3.3
			c6.3,8.5,15,14.5,25.9,17.8c4.1,1.2,4.9,1.3,13.3,1.3c10.4,0,13.4-0.6,21.1-4.3c5.8-2.8,9.6-5.5,14.2-10.2
			c8.2-8.5,12.8-18.7,13.8-30.3l0.3-4.1H424h-7.5v2.3c0,3.1-1.5,9.1-3.4,12.9c-6.2,13-21.5,21.2-35.2,19.1c-7.6-1.2-13.4-4-19-9.2
			l-3.3-3.1l3-0.9c1.6-0.5,3-1,2.9-1.2c-0.1-0.4-19-18.4-20.2-19.3C340.4,260.7,340,261.7,337.8,271.1z"/>
		
			<linearGradient id="region-3-4_00000173124520914025700440000000555292517613639603_" gradientUnits="userSpaceOnUse" x1="-2374.2649" y1="-25.2311" x2="-2374.2649" y2="-25.7137" gradientTransform="matrix(77 0 0 -45 183154 -727)">
			<stop  offset="0" style="stop-color:#FAFCF9;stop-opacity:0.174"/>
			<stop  offset="1" style="stop-color:#FFFFFF;stop-opacity:0.226"/>
		</linearGradient>
		<path id="region-3-4" style="fill:url(#region-3-4_00000173124520914025700440000000555292517613639603_);" d="M317,414.5
			c0,3.4,0.2,7,0.5,7.9c0.7,2.5,3.2,5.3,6,6.6c2.4,1.1,2.8,1.2,16.6,1.2h14.1v-10.9v-10.9h-18.6H317V414.5L317,414.5z"/>
	</g>
</g>
<linearGradient id="region-1-3_00000046337073081475608240000016209180716535502015_" gradientUnits="userSpaceOnUse" x1="-2400.9922" y1="-17.6296" x2="-2400.9922" y2="-18.1122" gradientTransform="matrix(315.0029 0 0 -237.7783 756481 -4145.6924)">
	<stop  offset="0" style="stop-color:#FEB005"/>
	<stop  offset="1" style="stop-color:#FFAE00"/>
</linearGradient>
<path id="region-1-3_00000169539545649668568340000000865961726640361147_" style="fill:url(#region-1-3_00000046337073081475608240000016209180716535502015_);" d="
	M90.7,46.9c-0.9,0.4-2.2,1.2-2.8,1.8c-2.7,2.5-2.5-0.6-2.5,58V161h76.1h76.1v-53.9V53.2l-1-2.1c-0.6-1.3-1.8-2.6-3-3.4l-2-1.3
	l-69.5-0.1C100.6,46.2,92.2,46.2,90.7,46.9z"/>
<linearGradient id="region-1-4_00000159461022217343934530000007268855765044172972_" gradientUnits="userSpaceOnUse" x1="-2401.1514" y1="-15.5419" x2="-2400.7971" y2="-16.1685" gradientTransform="matrix(315 0 0 -482 756474 -7327)">
	<stop  offset="0" style="stop-color:#69464B;stop-opacity:0.994"/>
	<stop  offset="1" style="stop-color:#84686C"/>
</linearGradient>
<path id="region-1-4_00000124869775991039501010000015261309536367007414_" style="fill:url(#region-1-4_00000159461022217343934530000007268855765044172972_);" d="
	M85.5,300.1v113.6l1.2,1.8c0.7,1,2.1,2.2,3.1,2.8c1.9,1,2.8,1,71.5,1c58,0,69.8-0.1,71.1-0.7c1.9-0.8,4-3,4.6-4.8
	c0.4-1,0.5-35.7,0.5-114.3v-113h-76.1H85.5V300.1z"/>
<linearGradient id="region-2-3_00000084496032502527208560000018400805149910722712_" gradientUnits="userSpaceOnUse" x1="-2398.0667" y1="-16.74" x2="-2398.0659" y2="-17.2262" gradientTransform="matrix(269.6007 0 0 -269.4234 647129.5 -4314.5269)">
	<stop  offset="0" style="stop-color:#FFFDD2;stop-opacity:0.803"/>
	<stop  offset="1" style="stop-color:#FFFFE0;stop-opacity:0.851"/>
</linearGradient>
<path id="region-2-3_00000183250209712369281310000000118773668901344917_" style="fill:url(#region-2-3_00000084496032502527208560000018400805149910722712_);stroke:#000000;stroke-miterlimit:10;" d="
	M601.6,195.9c-8.3,1.1-14.6,3-22.5,7c-7.8,4-14.6,9.6-21.3,17.4c-5.5,6.5-10.6,17.3-12.8,27.2c-1.3,5.8-1.3,20.2,0,26
	c2.8,12.9,7.8,22.3,16.8,31.7c12.5,13,26.8,19.6,44.6,20.4c37.2,1.6,67.8-27.9,67.8-65.1c0-31-21.7-57.5-52.2-63.7
	C616.5,195.7,606.6,195.3,601.6,195.9z"/>
<linearGradient id="region-3-2_00000183970797280076017260000012021324142950969015_" gradientUnits="userSpaceOnUse" x1="-2360.0042" y1="-15.4491" x2="-2358.8037" y2="-15.4926" gradientTransform="matrix(49 0 0 -720 115680 -10897)">
	<stop  offset="0" style="stop-color:#FCFEFD;stop-opacity:0.368"/>
	<stop  offset="1" style="stop-color:#FFFFFB;stop-opacity:0.27"/>
</linearGradient>
<path id="region-3-2_00000165197532161628919910000016097878202807276683_" style="fill:url(#region-3-2_00000183970797280076017260000012021324142950969015_);stroke:#000000;stroke-miterlimit:10;" d="
	M45.5,61.5c-2,0.9-3.7,2.4-4.6,4.1c-0.6,1.1-0.7,25.9-0.7,169.2v167.9l1.2,1.8c2.3,3.3,3.8,3.7,13.8,3.7h8.7V234.5V60.7h-8.3
	C49.1,60.8,46.8,60.9,45.5,61.5z"/>
<line class="st21" x1="440.5" y1="256.5" x2="544" y2="256.6"/>
<line class="st21" x1="344" y1="359.7" x2="242" y2="358.6"/>
<line class="st21" x1="344" y1="109.5" x2="240.9" y2="109.5"/>
<line class="st21" x1="306.4" y1="168.3" x2="68.8" y2="168.4"/>
<rect x="298" y="155.7" class="st22" width="53.4" height="39.9"/>
</svg>
