<?xml version="1.0" encoding="utf-8"?>
<!-- Generator: Adobe Illustrator 26.5.0, SVG Export Plug-In . SVG Version: 6.00 Build 0)  -->
<svg version="1.1" id="图层_1" xmlns="http://www.w3.org/2000/svg" xmlns:xlink="http://www.w3.org/1999/xlink" x="0px" y="0px"
	 viewBox="0 0 710 460" style="enable-background:new 0 0 710 460;" xml:space="preserve">
<style type="text/css">
	.st0{fill:none;}
	.st1{fill:#D3D3D3;}
	.st2{fill:url(#SVGID_1_);}
	.st3{fill:url(#SVGID_00000080171358677597512740000012956257103069411747_);}
	.st4{fill:url(#SVGID_00000030483427072316276130000010776071657225371533_);}
	.st5{fill:url(#SVGID_00000176018721291312645720000000291141458829783199_);}
	.st6{fill:url(#SVGID_00000045577398444234746210000002966310932007334572_);}
	.st7{fill:url(#SVGID_00000044878262385084825380000011778534135060434833_);}
	.st8{fill:url(#SVGID_00000160903520261300860480000013422372190926438042_);}
	.st9{fill:url(#SVGID_00000124844323248261470450000000761989444946141334_);}
	.st10{fill:url(#SVGID_00000015345301720534481560000003877955538118262968_);}
	.st11{fill:url(#SVGID_00000068639105586875203490000014642645701491154607_);}
	.st12{fill:url(#SVGID_00000171000562584675298190000003220518880874637244_);}
	.st13{fill:url(#SVGID_00000075132384102988493370000002804715849370267811_);}
	.st14{fill:url(#SVGID_00000135679678989404509750000015731772811175618694_);}
	.st15{fill:url(#SVGID_00000150815473554737948690000002193344565093286274_);}
	.st16{fill:url(#SVGID_00000181049760223593150780000011364516483103945888_);}
	.st17{fill:url(#SVGID_00000138550351948593751000000009954829582135369610_);}
	.st18{fill:url(#SVGID_00000131361371171875153380000015743896254612370583_);}
	.st19{fill:url(#SVGID_00000095303787104636011410000001773801150353686400_);}
	.st20{fill:url(#SVGID_00000036252185431109408230000009841929154752497305_);}
	.st21{fill:url(#SVGID_00000094577882668779368630000005823147269418400143_);stroke:#000000;stroke-miterlimit:10;}
	.st22{fill:url(#SVGID_00000057832417509354935190000018095212754215535494_);stroke:#000000;stroke-miterlimit:10;}
	.st23{fill:url(#SVGID_00000070812999518014516840000007350993522353834121_);stroke:#000000;stroke-miterlimit:10;}
	.st24{fill:none;stroke:#000000;stroke-width:2;stroke-miterlimit:10;}
	.st25{fill:none;stroke:#FF0000;stroke-width:3;stroke-miterlimit:10;}
</style>
<pattern  y="460" width="40" height="40" patternUnits="userSpaceOnUse" id="SVGID_0000010107009553648407249" viewBox="0 -40 40 40" style="overflow:visible;">
	<g>
		<rect y="-40" class="st0" width="40" height="40"/>
		<g>
			<rect y="-40" class="st0" width="40" height="40"/>
			<g>
				<rect y="-40" class="st0" width="40" height="40"/>
				<rect y="-40" class="st0" width="40" height="40"/>
				<rect y="-40" class="st1" width="20" height="20"/>
				<rect x="20" y="-20" class="st1" width="20" height="20"/>
			</g>
		</g>
	</g>
</pattern>
<g id="图层_1_00000002378282407802068480000010895820658575267750_">
	<pattern  id="SVGID_1_" xlink:href="#SVGID_0000010107009553648407249" patternTransform="matrix(1 0 0 1 -15 16596.2402)">
	</pattern>
	<rect y="1" class="st2" width="710" height="459"/>
</g>
<g id="图层_3">
	<g transform="translate(0.000000,881.000000) scale(0.100000,-0.100000)">
		<g>
			
				<linearGradient id="SVGID_00000169523047877471094530000013223278034878088104_" gradientUnits="userSpaceOnUse" x1="-105192.6953" y1="261720.2031" x2="-105193.1953" y2="261720.5781" gradientTransform="matrix(3.15 0 0 8.4072 335846 -2195425.25)">
				<stop  offset="0" style="stop-color:#FFB001"/>
				<stop  offset="1" style="stop-color:#FEB001"/>
			</linearGradient>
			<path style="fill:url(#SVGID_00000169523047877471094530000013223278034878088104_);" d="M3362.4,8612.2
				c-43.2-11.6-81.5-51.9-90.8-95.6c-2.9-13.6-5.3-77.7-5.3-145.1v-121.3h-128.6c-105.3,0-132-1.5-147.1-7.3
				c-20.9-9.2-38.3-24.3-47.6-42.2c-5.8-11.2-6.8-260.6-6.8-1701V4811.6l12.1-18.4c15.5-22.8,44.2-37.4,72.8-37.4h21.8v-61.6
				c0-34.5,1.9-69.9,4.9-79.1c6.8-25.2,32.5-52.9,60.2-66l24.8-11.6h562.5c416.9,0,567.3,1.5,581.4,5.8
				c23.3,6.8,58.2,36.9,68.9,59.2c5.8,12.6,7.8,32,7.8,84.9v68.4h21.4c38.3,0,69.9,19.4,83.5,51.9c5.8,13.1,6.8,279.5,6.8,1693.8
				v1677.7l-10.2,21.4c-6.3,12.6-18.4,26.2-30.1,34c-19.4,13.1-19.9,13.1-128.1,14.6l-108.2,1.5v132c0,128.1-0.5,132.5-11.6,156.3
				c-14.1,30.6-37.4,54.4-66,67.5c-21.4,10.2-28.1,10.2-373.7,11.2C3464.8,8618,3379.8,8617,3362.4,8612.2z"/>
		</g>
	</g>
	<g transform="translate(0.000000,881.000000) scale(0.100000,-0.100000)">
		<g>
			
				<linearGradient id="SVGID_00000000193785791875492840000015775842942574123199_" gradientUnits="userSpaceOnUse" x1="-103181.4688" y1="257018.9375" x2="-103180.9844" y2="257018.9375" gradientTransform="matrix(2.0242 0 0 1.0202 212063.6406 -255668.6094)">
				<stop  offset="0" style="stop-color:#79C124"/>
				<stop  offset="1" style="stop-color:#79C124"/>
			</linearGradient>
			<path style="fill:url(#SVGID_00000000193785791875492840000015775842942574123199_);" d="M3598.7,6774.8
				c-129.6-27.2-237.8-100.9-313-213.1c-39.3-59.2-70.4-145.6-75.7-211.1c-1.5-18.9-3.4-40.3-4.4-47.6l-1.9-13.6h74.3h74.3l3.4,30.6
				c17,151.9,124.2,275.2,268.4,307.2c53.9,11.6,133,7.8,183.5-9.7c49-16.5,99-48,133-82.5l26.2-26.7l-29.6-8.3
				c-16.5-4.9-30.1-9.7-29.6-11.2c1-7.3,210.1-199.5,213.1-196.1c4.9,5.3,68.4,274.2,65.5,277.1c-1,1.5-15-1.5-30.6-5.8
				c-15.5-4.4-30.6-7.8-33-7.8s-14.6,13.6-26.2,29.6c-30.6,42.2-94.2,99.5-140.3,127.6C3851.1,6776.7,3717.6,6799.5,3598.7,6774.8z"
				/>
		</g>
	</g>
	<g transform="translate(0.000000,881.000000) scale(0.100000,-0.100000)">
		<g>
			
				<linearGradient id="SVGID_00000044175031328832084110000001769922818116713655_" gradientUnits="userSpaceOnUse" x1="-102959.5156" y1="257309.7812" x2="-102959.5156" y2="257310.2969" gradientTransform="matrix(2.0301 0 0 1.014 212726.6406 -255163.4062)">
				<stop  offset="0" style="stop-color:#77C022"/>
				<stop  offset="1" style="stop-color:#7CC228"/>
			</linearGradient>
			<path style="fill:url(#SVGID_00000044175031328832084110000001769922818116713655_);" d="M3251.7,6135.6
				c-13.6-58.2-29.1-122.3-34-142.2c-5.3-19.9-8.7-36.4-8.3-37.4c1-0.5,15.5,2.9,33,8.2c17,5.3,32.5,9.7,34,9.7s14.1-15,27.7-33
				c63.6-85.4,150.9-145.6,260.6-179.1c40.8-12.1,49.5-13.1,133.5-13.1c104.3,0,134.4,6.3,212.1,43.2
				c58.7,27.7,96.6,54.8,142.7,102.4c82,84.9,128.6,187.8,138.3,304.8l3.4,41.7h-76.2h-75.7v-23.3c0-31.5-15.5-91.2-34-129.6
				c-62.1-130.6-216-213.5-354.3-192.2c-76.7,12.1-134.4,40.3-190.7,92.7l-33.5,31.5l29.6,8.7c16.5,4.9,29.6,10.2,28.6,12.1
				c-1.5,3.9-191.2,184.4-203.3,194.1C3277.9,6240.4,3274.5,6230.7,3251.7,6135.6z"/>
		</g>
	</g>
	<g transform="translate(0.000000,881.000000) scale(0.100000,-0.100000)">
		<g>
			
				<linearGradient id="SVGID_00000106866299058879971740000014730289775790303878_" gradientUnits="userSpaceOnUse" x1="-104390.6719" y1="261756.7344" x2="-104391.2031" y2="261756.3438" gradientTransform="matrix(2.66 0 0 4.82 282220.4062 -1254762)">
				<stop  offset="0" style="stop-color:#555555;stop-opacity:0.8894"/>
				<stop  offset="1" style="stop-color:#555555;stop-opacity:0.8953"/>
			</linearGradient>
			<path style="fill:url(#SVGID_00000106866299058879971740000014730289775790303878_);" d="M3174.1,6876.2v-218.4l23.3,28.1
				c92.2,110.7,225.2,189.3,371.3,220.3c70.4,15,188.8,15,259.2,0.5c177.1-37.9,320.8-134.9,417.4-281.5
				c130.1-197.5,144.1-447,36.9-657.6c-117.4-230.5-351.9-366.9-610.5-356.2c-177.6,7.8-322.3,73.8-447,203.8l-50.5,52.4V5312
				v-556.2h611.5c508.6,0,614.4,1,627.5,6.8c18.9,7.8,39.8,29.6,46.6,48c3.9,9.7,5.3,358.7,5.3,1149.2V7095h-645.5h-645.5V6876.2z
				 M3958.8,5246.5c45.1-20.9,48-85.9,4.9-112.1c-15-9.2-26.2-9.7-263-9.7c-230.5,0-249,0.5-264,8.7c-18.9,10.2-34.5,35.4-34.5,55.8
				c0,26.2,20.9,53.9,46.6,61.6c7.8,1.9,121.3,4.4,251.9,4.4C3924.4,5255.7,3939.4,5254.7,3958.8,5246.5z"/>
		</g>
	</g>
	<g transform="translate(0.000000,881.000000) scale(0.100000,-0.100000)">
		<g>
			
				<linearGradient id="SVGID_00000005232461833909542610000017456315465724331144_" gradientUnits="userSpaceOnUse" x1="-79876.3281" y1="261553.3906" x2="-79875.8438" y2="261553.3906" gradientTransform="matrix(0.49 0 0 4.82 42075.6016 -1254762)">
				<stop  offset="0" style="stop-color:#4A66FF;stop-opacity:0.5414"/>
				<stop  offset="1" style="stop-color:#4A66FF;stop-opacity:0.5414"/>
			</linearGradient>
			<path style="fill:url(#SVGID_00000005232461833909542610000017456315465724331144_);" d="M2936.2,5953.1V4811.6l12.1-18.4
				c22.8-33,38.3-37.4,138.3-37.4h87.4v555.7v555.2l-24.8,37.9c-44.2,68.4-76.7,146.1-95.1,230.5c-12.6,57.8-12.1,203.3,0.5,261.1
				c17.5,80.1,56.3,171.8,99.5,235.4l19.9,29.1v217.4V7095h-118.9h-118.9V5953.1z"/>
		</g>
	</g>
	<g transform="translate(0.000000,881.000000) scale(0.100000,-0.100000)">
		<g>
			
				<linearGradient id="SVGID_00000096018878102863404660000017287552245254005681_" gradientUnits="userSpaceOnUse" x1="-104935.1875" y1="235685" x2="-104934.7031" y2="235685" gradientTransform="matrix(2.7 0 0 0.14 286368 -28274)">
				<stop  offset="0" style="stop-color:#507FFF;stop-opacity:0.5998"/>
				<stop  offset="1" style="stop-color:#507FFF;stop-opacity:0.5998"/>
			</linearGradient>
			<path style="fill:url(#SVGID_00000096018878102863404660000017287552245254005681_);" d="M3043,4721.9v-34h655.2h655.2v34v34
				h-655.2H3043V4721.9z"/>
		</g>
	</g>
	<g transform="translate(0.000000,881.000000) scale(0.100000,-0.100000)">
		<g>
			
				<linearGradient id="SVGID_00000003825707937301349600000005474911143516768954_" gradientUnits="userSpaceOnUse" x1="-98918.5547" y1="220621.1094" x2="-98918.0703" y2="220621.1094" gradientTransform="matrix(1.24 0 0 0.18 126245.6016 -31418)">
				<stop  offset="0" style="stop-color:#527FFF;stop-opacity:0.6007"/>
				<stop  offset="1" style="stop-color:#527FFF;stop-opacity:0.6007"/>
			</linearGradient>
			<path style="fill:url(#SVGID_00000003825707937301349600000005474911143516768954_);" d="M3586.6,8293.8v-43.7h300.9h300.9v43.7
				v43.7h-300.9h-300.9V8293.8z"/>
		</g>
	</g>
	<g transform="translate(0.000000,881.000000) scale(0.100000,-0.100000)">
		<g>
			
				<linearGradient id="SVGID_00000075159340378259094220000006941562884419886259_" gradientUnits="userSpaceOnUse" x1="-104927.6719" y1="260594.5312" x2="-104927.1875" y2="260594.5312" gradientTransform="matrix(2.696 0 0 2.6942 285931.0625 -695837.0625)">
				<stop  offset="0" style="stop-color:#F8FEFF;stop-opacity:0.7701"/>
				<stop  offset="1" style="stop-color:#F8FEFF;stop-opacity:0.7701"/>
			</linearGradient>
			<path style="fill:url(#SVGID_00000075159340378259094220000006941562884419886259_);" d="M3623.5,6915.5
				c-83.5-10.7-147.1-30.6-226.2-70.9c-78.6-40.3-147.1-96.1-214.5-175.2c-55.8-65.5-106.8-173.7-128.1-273.2
				c-12.6-57.8-13.1-203.3-0.5-261.1c28.6-130.1,78.6-224.2,169.4-318.9c125.7-131,269.8-197,447.9-204.8
				c373.7-16,681.9,280,681.9,654.2c0,312.1-217.9,578-524.6,640.1C3773.4,6917.4,3673.4,6921.8,3623.5,6915.5z M3788,6777.2
				c54.8-9.7,118.4-33.5,167.9-63.6c46.1-28.1,109.7-85.4,140.3-127.6c11.6-16,23.8-29.6,26.2-29.6c2.4,0,17.5,3.4,33,7.8
				s29.6,7.3,30.6,5.8c2.9-2.9-60.7-271.8-65.5-277.1c-2.9-3.4-212.1,188.8-213.1,196.1c-0.5,1.5,13.1,6.3,29.6,11.2l29.6,8.3
				l-26.2,26.7c-34,34.5-84,66-133,82.5c-50.5,17.5-129.6,21.4-183.5,9.7c-144.1-32-251.4-155.3-268.4-307.2l-3.4-30.6h-74.3h-74.3
				l1.9,13.6c1,7.3,2.9,28.6,4.4,47.6c3.4,40.3,21.4,105.3,41.3,149.5c51.9,114,157.2,210.6,282,257.2
				C3601.6,6783,3707.9,6791.3,3788,6777.2z M3390,6136.6c53.4-50.5,97.5-93.7,98.5-95.6s-12.1-7.3-28.6-12.1l-29.6-8.7l33.5-31.5
				c56.3-52.4,114-80.6,190.7-92.7c113.6-17.5,238.3,34,315,130.6c41.7,51.9,73.3,134.4,73.3,191.2v23.3h75.7h76.2l-3.4-41.7
				c-9.7-117-56.3-219.8-138.3-304.8c-46.1-47.6-84-74.7-142.7-102.4c-77.7-36.9-107.7-43.2-212.1-43.2c-84,0-92.7,1-133.5,13.1
				c-109.7,33.5-197,93.7-260.6,179.1c-13.6,18-26.2,33-27.7,33s-17-4.4-34-9.7c-17.5-5.3-32-8.7-33-8.2c-0.5,1,2.9,17.5,8.3,37.4
				c4.9,19.9,20.4,84,34,142.2c22.8,95.1,26.2,104.8,33.5,99.5C3289.6,6231.7,3336.6,6187.5,3390,6136.6z"/>
		</g>
	</g>
	<g transform="translate(0.000000,881.000000) scale(0.100000,-0.100000)">
		<g>
			
				<linearGradient id="SVGID_00000016766488896482095500000000726555250359469210_" gradientUnits="userSpaceOnUse" x1="-98918.5547" y1="249257.4844" x2="-98918.0703" y2="249257.4844" gradientTransform="matrix(1.24 0 0 0.581 126245.6016 -136340.1094)">
				<stop  offset="0" style="stop-color:#A5BBFF;stop-opacity:0.7488"/>
				<stop  offset="1" style="stop-color:#A5BBFF;stop-opacity:0.7488"/>
			</linearGradient>
			<path style="fill:url(#SVGID_00000016766488896482095500000000726555250359469210_);" d="M3586.6,8478.2v-140.7h300.9h300.9v88.8
				c0,82.5-1,89.8-11.6,112.6c-14.1,30.6-37.4,54.4-66,67.5c-21.4,9.7-30.1,10.2-272.7,11.6l-251.4,1.5L3586.6,8478.2L3586.6,8478.2
				z"/>
		</g>
	</g>
	<g transform="translate(0.000000,881.000000) scale(0.100000,-0.100000)">
		<g>
			
				<linearGradient id="SVGID_00000100373312301726428160000011077933403607276165_" gradientUnits="userSpaceOnUse" x1="-88278.9375" y1="220621.1094" x2="-88278.4531" y2="220621.1094" gradientTransform="matrix(0.66 0 0 0.18 61530.4023 -31418)">
				<stop  offset="0" style="stop-color:#7BA0FF;stop-opacity:0.6623"/>
				<stop  offset="1" style="stop-color:#7BA0FF;stop-opacity:0.6623"/>
			</linearGradient>
			<path style="fill:url(#SVGID_00000100373312301726428160000011077933403607276165_);" d="M3266.3,8293.8v-43.7h160.2h160.2v43.7
				v43.7h-160.2h-160.2V8293.8z"/>
		</g>
	</g>
	<g transform="translate(0.000000,881.000000) scale(0.100000,-0.100000)">
		<g>
			
				<linearGradient id="SVGID_00000022552024188939160940000010821857335609068452_" gradientUnits="userSpaceOnUse" x1="-98573.2812" y1="246760.7188" x2="-98572.7969" y2="246760.7188" gradientTransform="matrix(1.2204 0 0 0.2692 123698.9609 -61240.3516)">
				<stop  offset="0" style="stop-color:#F6FDFF;stop-opacity:0.7672"/>
				<stop  offset="1" style="stop-color:#F6FDFF;stop-opacity:0.7672"/>
			</linearGradient>
			<path style="fill:url(#SVGID_00000022552024188939160940000010821857335609068452_);" d="M3448.7,5250.9
				c-25.7-7.8-46.6-35.4-46.6-61.6c0-20.4,15.5-45.6,34.5-55.8c15-8.3,33.5-8.7,264-8.7c236.8,0,248,0.5,263,9.7
				c43.2,26.2,40.3,91.2-4.9,112.1c-19.4,8.3-34.5,9.2-258.2,8.7C3570.1,5255.2,3456.5,5252.8,3448.7,5250.9z"/>
		</g>
	</g>
	<g transform="translate(0.000000,881.000000) scale(0.100000,-0.100000)">
		<g>
			
				<linearGradient id="SVGID_00000051373458943630059500000015076470059880804004_" gradientUnits="userSpaceOnUse" x1="-102944.3047" y1="250818.5625" x2="-102943.8203" y2="250818.5625" gradientTransform="matrix(1.93 0 0 0.31 202099.2031 -73141)">
				<stop  offset="0" style="stop-color:#A4BAFF;stop-opacity:0.7478"/>
				<stop  offset="1" style="stop-color:#A4BAFF;stop-opacity:0.7478"/>
			</linearGradient>
			<path style="fill:url(#SVGID_00000051373458943630059500000015076470059880804004_);" d="M3416.7,4612.7v-75.2H3837
				c308.2,0,425.6,1.5,439.7,5.8c23.3,6.8,58.2,36.9,68.9,59.2c4.9,10.2,7.8,29.1,7.8,51v34.5H3885h-468.3V4612.7z"/>
		</g>
	</g>
	<g transform="translate(0.000000,881.000000) scale(0.100000,-0.100000)">
		<g>
			
				<linearGradient id="SVGID_00000036957009660748403200000008725126702914912954_" gradientUnits="userSpaceOnUse" x1="-79877.7578" y1="259701.9062" x2="-79877.2734" y2="259701.9062" gradientTransform="matrix(0.49 0 0 2.38 42078.7812 -610418)">
				<stop  offset="0" style="stop-color:#FEFFFF;stop-opacity:0.2994"/>
				<stop  offset="1" style="stop-color:#FEFFFF;stop-opacity:0.2994"/>
			</linearGradient>
			<path style="fill:url(#SVGID_00000036957009660748403200000008725126702914912954_);" d="M2989.6,8242.4
				c-9.2-3.9-21.8-12.1-28.1-18c-26.7-24.8-25.2,5.8-25.2-583.4v-546h118.9h118.9v577.5V8250h-83.5
				C3026.5,8249.6,3002.7,8248.2,2989.6,8242.4z"/>
		</g>
	</g>
	<g transform="translate(0.000000,881.000000) scale(0.100000,-0.100000)">
		<g>
			
				<linearGradient id="SVGID_00000098908270186541905190000000878346234777529524_" gradientUnits="userSpaceOnUse" x1="-88278.9375" y1="249234.9062" x2="-88278.4531" y2="249234.9062" gradientTransform="matrix(0.66 0 0 0.58 61530.4023 -136078)">
				<stop  offset="0" style="stop-color:#C6D4FF;stop-opacity:0.8205"/>
				<stop  offset="1" style="stop-color:#C6D4FF;stop-opacity:0.8205"/>
			</linearGradient>
			<path style="fill:url(#SVGID_00000098908270186541905190000000878346234777529524_);" d="M3362.4,8612.2
				c-43.2-11.6-81.5-51.9-90.8-95.6c-2.9-13.1-5.3-59.2-5.3-101.4v-77.7h160.2h160.2v140.7V8619l-100.5-0.5
				C3421.1,8618.5,3376.9,8616.1,3362.4,8612.2z"/>
		</g>
	</g>
	<g transform="translate(0.000000,881.000000) scale(0.100000,-0.100000)">
		<g>
			
				<linearGradient id="SVGID_00000115490793623987015360000010505842085877597061_" gradientUnits="userSpaceOnUse" x1="-91137.4062" y1="250818.3906" x2="-91136.9219" y2="250818.3906" gradientTransform="matrix(0.77 0 0 0.31 73218.8047 -73141)">
				<stop  offset="0" style="stop-color:#C5D3FF;stop-opacity:0.8198"/>
				<stop  offset="1" style="stop-color:#C5D3FF;stop-opacity:0.8198"/>
			</linearGradient>
			<path style="fill:url(#SVGID_00000115490793623987015360000010505842085877597061_);" d="M3043,4660.2c0-15.5,1.9-35.9,4.9-45.1
				c6.8-25.2,32.5-52.9,60.2-66c24.3-11.2,27.7-11.6,166.9-11.6h141.7v75.2v75.2h-186.8H3043V4660.2z"/>
		</g>
	</g>
	<g transform="translate(0.000000,881.000000) scale(0.100000,-0.100000)">
		<g>
			
				<linearGradient id="SVGID_00000153705266073603601360000000508961534319125425_" gradientUnits="userSpaceOnUse" x1="-98525.4141" y1="256989.6719" x2="-98524.9297" y2="256989.6719" gradientTransform="matrix(1.2153 0 0 1.2287 123142.9922 -308085.6875)">
				<stop  offset="0" style="stop-color:#F8FFFF;stop-opacity:0.7688"/>
				<stop  offset="1" style="stop-color:#F8FFFF;stop-opacity:0.7688"/>
			</linearGradient>
			<path style="fill:url(#SVGID_00000153705266073603601360000000508961534319125425_);" d="M3668.6,7958.5
				c-30.1-17.5-33.5-31.5-33.5-133v-89.8h-87.4c-105.8,0-120.4-3.9-135.9-36.9c-15.5-31.5-7.3-62.6,20.9-79.6
				c14.1-8.7,25.2-9.7,109.2-9.7h93.2v-89.8c0-67,1.9-94.2,6.8-106.8c7.3-17,39.3-41.3,55.3-41.3c14.6,0,38.3,13.6,51.9,29.6
				c12.1,14.6,12.1,15,12.1,111.6v96.6h97.1h97.1l17.5,16c22.8,20.9,27.7,54.8,11.6,80.1c-16.5,26.7-32,30.1-133.5,30.1h-89.8v93.7
				c0,104.8-2.9,116-35.4,131C3703.5,7971.1,3689.9,7970.6,3668.6,7958.5z"/>
		</g>
	</g>
</g>
<g>
	
		<linearGradient id="SVGID_00000067196291473766085690000010282860068760382601_" gradientUnits="userSpaceOnUse" x1="-1247.6117" y1="631.3801" x2="-1248.1165" y2="631.0015" gradientTransform="matrix(315 0 0 840.7231 393176 -530426.25)">
		<stop  offset="0" style="stop-color:#FFB001"/>
		<stop  offset="1" style="stop-color:#FEB001"/>
	</linearGradient>
	<path style="fill:url(#SVGID_00000067196291473766085690000010282860068760382601_);" d="M65.7,20.2c-4.3,1.2-8.2,5.2-9.1,9.6
		c-0.3,1.4-0.5,7.8-0.5,14.5v12.1H43.3c-10.5,0-13.2,0.1-14.7,0.7c-2.1,0.9-3.8,2.4-4.8,4.2c-0.6,1.1-0.7,26.1-0.7,170.1v168.8
		l1.2,1.8c1.6,2.3,4.4,3.7,7.3,3.7h2.2v6.2c0,3.4,0.2,7,0.5,7.9c0.7,2.5,3.3,5.3,6,6.6l2.5,1.2H99c41.7,0,56.7-0.1,58.1-0.6
		c2.3-0.7,5.8-3.7,6.9-5.9c0.6-1.3,0.8-3.2,0.8-8.5v-6.8h2.1c3.8,0,7-1.9,8.3-5.2c0.6-1.3,0.7-28,0.7-169.4V63.4l-1-2.1
		c-0.6-1.3-1.8-2.6-3-3.4c-1.9-1.3-2-1.3-12.8-1.5l-10.8-0.1V43.1c0-12.8,0-13.2-1.2-15.6c-1.4-3.1-3.7-5.4-6.6-6.7
		c-2.1-1-2.8-1-37.4-1.1C76,19.6,67.5,19.7,65.7,20.2z"/>
</g>
<g>
	
		<linearGradient id="SVGID_00000058575190180656665930000011529403369073486225_" gradientUnits="userSpaceOnUse" x1="-1245.1555" y1="631.3443" x2="-1245.6893" y2="631.7324" gradientTransform="matrix(266 0 0 482 331877 -304117)">
		<stop  offset="0" style="stop-color:#555555;stop-opacity:0.8894"/>
		<stop  offset="1" style="stop-color:#555555;stop-opacity:0.8953"/>
	</linearGradient>
	<path style="fill:url(#SVGID_00000058575190180656665930000011529403369073486225_);" d="M528.9,193.7v21.8l2.3-2.8
		c9.2-11.1,22.5-18.9,37.1-22c7-1.5,18.9-1.5,25.9,0c17.7,3.8,32.1,13.5,41.7,28.1c13,19.8,14.4,44.7,3.7,65.8
		c-11.7,23.1-35.2,36.7-61.1,35.6c-17.8-0.8-32.2-7.4-44.7-20.4l-5-5.2v55.6v55.6H590c50.9,0,61.4-0.1,62.8-0.7c1.9-0.8,4-3,4.7-4.8
		c0.4-1,0.5-35.9,0.5-114.9V171.9h-64.5H529L528.9,193.7L528.9,193.7z M607.4,356.7c4.5,2.1,4.8,8.6,0.5,11.2c-1.5,0.9-2.6,1-26.3,1
		c-23.1,0-24.9,0-26.4-0.9c-1.9-1-3.4-3.5-3.4-5.6c0-2.6,2.1-5.4,4.7-6.2c0.8-0.2,12.1-0.4,25.2-0.4
		C603.9,355.8,605.4,355.9,607.4,356.7z"/>
</g>
<g>
	
		<linearGradient id="SVGID_00000120555204929888426740000008470012317686436236_" gradientUnits="userSpaceOnUse" x1="-1222.7531" y1="631.5908" x2="-1222.2678" y2="631.5908" gradientTransform="matrix(49 0 0 482 60144 -304117)">
		<stop  offset="0" style="stop-color:#4A66FF;stop-opacity:0.5414"/>
		<stop  offset="1" style="stop-color:#4A66FF;stop-opacity:0.5414"/>
	</linearGradient>
	<path style="fill:url(#SVGID_00000120555204929888426740000008470012317686436236_);stroke:#000000;stroke-miterlimit:10;" d="
		M229.1,307.1v114.1l1.2,1.8c2.3,3.3,3.8,3.7,13.8,3.7h8.7v-55.6v-55.5l-2.5-3.8c-4.4-6.8-7.7-14.6-9.5-23.1
		c-1.3-5.8-1.2-20.3,0-26.1c1.7-8,5.6-17.2,9.9-23.5l2-2.9v-21.7v-21.7H241h-11.9V307.1z"/>
</g>
<g>
	
		<linearGradient id="SVGID_00000141424780784078131840000001041323740702125719_" gradientUnits="userSpaceOnUse" x1="-1245.6591" y1="631.8725" x2="-1245.1736" y2="631.8725" gradientTransform="matrix(269.6007 0 0 269.4234 336358.4688 -170157.3438)">
		<stop  offset="0" style="stop-color:#F8FEFF;stop-opacity:0.7701"/>
		<stop  offset="1" style="stop-color:#F8FEFF;stop-opacity:0.7701"/>
	</linearGradient>
	<path style="fill:url(#SVGID_00000141424780784078131840000001041323740702125719_);stroke:#000000;stroke-miterlimit:10;" d="
		M585.8,18.8c-8.3,1.1-14.7,3.1-22.6,7.1c-7.9,4-14.7,9.6-21.5,17.5c-5.6,6.6-10.7,17.4-12.8,27.3c-1.3,5.8-1.3,20.3,0,26.1
		c2.9,13,7.9,22.4,16.9,31.9c12.6,13.1,27,19.7,44.8,20.5c37.4,1.6,68.2-28,68.2-65.4c0-31.2-21.8-57.8-52.5-64
		C600.8,18.6,590.8,18.2,585.8,18.8z M602.3,32.7c5.5,1,11.8,3.3,16.8,6.4c4.6,2.8,11,8.5,14,12.8c1.2,1.6,2.4,3,2.6,3
		s1.7-0.3,3.3-0.8s3-0.7,3.1-0.6c0.3,0.3-6.1,27.2-6.6,27.7c-0.3,0.3-21.2-18.9-21.3-19.6c0-0.1,1.3-0.6,3-1.1l3-0.8l-2.6-2.7
		c-3.4-3.4-8.4-6.6-13.3-8.3c-5-1.7-13-2.1-18.3-1c-14.4,3.2-25.1,15.5-26.8,30.7l-0.3,3.1h-7.4h-7.4l0.2-1.4
		c0.1-0.7,0.3-2.9,0.4-4.8c0.3-4,2.1-10.5,4.1-14.9C554,49,564.5,39.3,577,34.7C583.6,32.1,594.3,31.2,602.3,32.7z M562.5,96.7
		c5.3,5,9.8,9.4,9.9,9.6s-1.2,0.7-2.9,1.2l-3,0.9l3.3,3.2c5.6,5.2,11.4,8.1,19.1,9.3c11.4,1.7,23.8-3.4,31.5-13.1
		c4.2-5.2,7.3-13.4,7.3-19.1v-2.3h7.6h7.6l-0.3,4.2c-1,11.7-5.6,22-13.8,30.5c-4.6,4.8-8.4,7.5-14.3,10.2
		c-7.8,3.7-10.8,4.3-21.2,4.3c-8.4,0-9.3-0.1-13.3-1.3c-11-3.3-19.7-9.4-26.1-17.9c-1.4-1.8-2.6-3.3-2.8-3.3c-0.1,0-1.7,0.4-3.4,1
		c-1.7,0.5-3.2,0.9-3.3,0.8c0-0.1,0.3-1.7,0.8-3.7s2-8.4,3.4-14.2c2.3-9.5,2.6-10.5,3.3-9.9C552.4,87.2,557.2,91.6,562.5,96.7z"/>
</g>
<g>
	
		<linearGradient id="SVGID_00000088114766701322602910000014003865059415412135_" gradientUnits="userSpaceOnUse" x1="-1222.7549" y1="633.2189" x2="-1222.269" y2="633.2189" gradientTransform="matrix(49.0029 0 0 238 60147.6289 -150635)">
		<stop  offset="0" style="stop-color:#FEFFFF;stop-opacity:0.2994"/>
		<stop  offset="1" style="stop-color:#FEFFFF;stop-opacity:0.2994"/>
	</linearGradient>
	<path style="fill:url(#SVGID_00000088114766701322602910000014003865059415412135_);stroke:#000000;stroke-miterlimit:10;" d="
		M234.4,14.1c-0.9,0.4-2.2,1.2-2.8,1.8c-2.7,2.5-2.5-0.6-2.5,58.3v54.6H241h11.9V71.1V13.4h-8.3C238.1,13.4,235.8,13.6,234.4,14.1z"
		/>
</g>
<line class="st24" x1="304" y1="81" x2="262" y2="81"/>
<line class="st24" x1="425" y1="234" x2="527.9" y2="119.9"/>
<line class="st24" x1="306" y1="365" x2="258" y2="365"/>
<line class="st24" x1="325.8" y1="143.8" x2="179.8" y2="143.8"/>
<line class="st24" x1="517" y1="341" x2="436" y2="341"/>
<rect x="283" y="151.9" class="st25" width="57.3" height="39.9"/>
</svg>
