<?xml version="1.0" encoding="utf-8"?>
<!-- Generator: Adobe Illustrator 27.0.0, SVG Export Plug-In . SVG Version: 6.00 Build 0)  -->
<svg version="1.1" id="图层_1" xmlns="http://www.w3.org/2000/svg" xmlns:xlink="http://www.w3.org/1999/xlink" x="0px" y="0px"
	 viewBox="0 0 1599.8 640" style="enable-background:new 0 0 1599.8 640;" xml:space="preserve">
<style type="text/css">
	.st0{fill:none;}
	.st1{fill:#D3D3D3;}
	.st2{fill:url(#SVGID_1_);}
	.st3{fill:none;stroke:#000000;stroke-width:3;stroke-miterlimit:10;}
	.st4{fill:url(#SVGID_00000049900385611982382500000014103583735856214190_);}
	.st5{fill:url(#SVGID_00000060029734186396740830000017454217567056061609_);}
	.st6{fill:url(#SVGID_00000164490432393161541770000011926378488145111176_);}
	.st7{fill:url(#SVGID_00000005981280581908214290000007638966022567173013_);}
	.st8{fill:url(#SVGID_00000183938235447577767240000003499141716329509046_);}
	.st9{fill:url(#SVGID_00000096059632359102370140000009874726639470274490_);}
	.st10{fill:url(#SVGID_00000030448780851341905500000016693344551811517828_);}
	.st11{fill:url(#SVGID_00000075853318777921964200000014171934142433178771_);}
	.st12{fill:url(#SVGID_00000160166612761887645230000010095628572004388497_);}
	.st13{fill:url(#SVGID_00000123440229745567128830000013637495282066257065_);}
	.st14{fill:url(#SVGID_00000139273228146507742730000001026506673844605619_);}
	.st15{fill:url(#SVGID_00000153682345132272809140000016072438297703955356_);}
	.st16{fill:url(#SVGID_00000179648384879188714140000017975676707652843154_);}
	.st17{fill:url(#SVGID_00000109008067176357872680000008661827123516682667_);}
	.st18{fill:url(#SVGID_00000018221674642646332170000014215444545599881860_);stroke:#000000;stroke-miterlimit:10;}
	.st19{fill:url(#SVGID_00000109000129047208008430000003131169483270976684_);stroke:#000000;stroke-miterlimit:10;}
	.st20{fill:url(#SVGID_00000001645185448745050590000014730506065602455431_);stroke:#000000;stroke-miterlimit:10;}
	.st21{fill:url(#SVGID_00000108308280819693505940000011697624973212524466_);}
	.st22{fill:url(#SVGID_00000043415368209077017230000008871035766069064894_);stroke:#000000;stroke-miterlimit:10;}
	.st23{fill:url(#SVGID_00000061466035696647595680000001000489372381972631_);stroke:#000000;stroke-miterlimit:10;}
	.st24{fill:url(#SVGID_00000170957912658707341880000011365712507459827328_);stroke:#000000;stroke-miterlimit:10;}
	.st25{fill:url(#SVGID_00000080913396930612855030000002213309541941341876_);stroke:#000000;stroke-miterlimit:10;}
</style>
<pattern  y="640" width="40" height="40" patternUnits="userSpaceOnUse" id="a2ed1d96-aebd-4bf9-a4b3-645f1ac" viewBox="0 -40 40 40" style="overflow:visible;">
	<g>
		<rect y="-40" class="st0" width="40" height="40"/>
		<g>
			<rect y="-40" class="st0" width="40" height="40"/>
			<g>
				<rect y="-40" class="st0" width="40" height="40"/>
				<rect y="-40" class="st0" width="40" height="40"/>
				<rect y="-40" class="st1" width="20" height="20"/>
				<rect x="20" y="-20" class="st1" width="20" height="20"/>
			</g>
		</g>
	</g>
</pattern>
<g id="_图层_1">
	<pattern  id="SVGID_1_" xlink:href="#a2ed1d96-aebd-4bf9-a4b3-645f1ac" patternTransform="matrix(1 0 0 1 206 16502.2402)">
	</pattern>
	<rect x="-0.1" class="st2" width="1600" height="640"/>
</g>
<g>
	<line class="st3" x1="418.9" y1="420.8" x2="524.2" y2="420.8"/>
	<path d="M539.9,420.8c-7.4,3.2-16.6,8.5-22.2,14.3l4.5-14.3l-4.5-14.3C523.3,412.3,532.5,417.7,539.9,420.8z"/>
</g>
<g id="_图层_1-2">
	
		<linearGradient id="SVGID_00000015350555959415251440000012820300314236914305_" gradientUnits="userSpaceOnUse" x1="-1019.7805" y1="-1.6101" x2="-1020.4504" y2="-0.77" gradientTransform="matrix(286.66 0 0 -253.04 292615.4062 167.0436)">
		<stop  offset="0" style="stop-color:#820002"/>
		<stop  offset="1" style="stop-color:#EB0A11"/>
	</linearGradient>
	<path style="fill:url(#SVGID_00000015350555959415251440000012820300314236914305_);" d="M128.2,349.7c-0.2,0.3-2.6,0.7-5.4,1.1
		c-11,1.3-28.6,8.2-40.1,15.7c-6.4,4.2-23.4,19.4-23.4,21c0,0.4-1.1,1.9-2.4,3.3c-6.4,6.9-14.3,27-16.7,42.5
		c-1.6,10.5-0.5,34.9,2.1,47.5c4.8,22.9,19,57.3,30.8,74.6c17.4,25.5,40.9,40,73.7,45.4c29.2,4.8,88.5-2.7,112.4-14.2
		c14.4-6.9,30.1-25.5,42.6-50.3c18.7-37.2,26.9-72.9,23.6-101.8c-3.2-27-13.3-49.7-28.9-64.4c-8.2-7.7-14.8-11.7-25.7-15.4
		c-11-3.8-27.3-3.9-50-0.4c-17.1,2.6-17.9,3-20.6,9.3c-1.6,3.7,0.7,6.2,7.2,7.7c5.9,1.4,18.5,0.5,24.2-1.7c2.1-0.9,4-1.4,4.2-1.1
		c0.7,0.6-10.1,8.1-16.7,11.6c-8.2,4.2-23.4,9.1-31.8,10.1c-17.3,2.2-32-5-47.1-23l-4.1-4.9l3.7,1.6c2.1,0.8,5.6,2.7,7.8,4.1
		c3.5,2.2,4.8,2.5,10.1,2c3.4-0.3,8.5-1.3,11.4-2.3c4.6-1.5,5.3-2,4.8-3.8c-0.3-1.2-0.6-3-0.6-4.1s-0.4-2.5-0.8-3.2
		C170.7,353.7,130.4,347.5,128.2,349.7L128.2,349.7z"/>
	
		<linearGradient id="SVGID_00000120554016696257092770000008697740366037303169_" gradientUnits="userSpaceOnUse" x1="-1008.7786" y1="-5.9209" x2="-1007.7784" y2="-5.9209" gradientTransform="matrix(63.29 0 0 -67.94 63924.0195 25.0413)">
		<stop  offset="0" style="stop-color:#EE464C"/>
		<stop  offset="1" style="stop-color:#EE464C"/>
	</linearGradient>
	<path style="fill:url(#SVGID_00000120554016696257092770000008697740366037303169_);" d="M101.6,396.8
		c-8.6,4.3-14.4,10.4-18.6,19.3c-2.6,5.8-3,7.9-3.1,15.7c-0.1,7.9,0.2,9.7,2.7,14.7c6.1,12.4,20.5,17.9,33.6,12.9
		c11.6-4.4,21.2-15.2,25.6-28.9c2.3-6.8,1.6-17-1.3-22.8c-4.5-8.9-14.7-14.4-26.5-14.4C109.8,393.3,107,394.1,101.6,396.8
		L101.6,396.8z"/>
	
		<linearGradient id="SVGID_00000021088489529476666010000015625997800295082919_" gradientUnits="userSpaceOnUse" x1="-952.9446" y1="-29.0674" x2="-951.9448" y2="-29.0674" gradientTransform="matrix(13.56 0 0 -14.95 13086.1709 -2.6302)">
		<stop  offset="0" style="stop-color:#EE565B"/>
		<stop  offset="1" style="stop-color:#EE565B"/>
	</linearGradient>
	<path style="fill:url(#SVGID_00000021088489529476666010000015625997800295082919_);" d="M170.8,425.5c-3.1,1.8-4.4,4-4.5,7.4
		c0,7.3,9.1,8.9,12.6,2.3c1.8-3.5,1-7.4-1.9-9.4C174.5,424,173.5,424,170.8,425.5L170.8,425.5z"/>
	
		<linearGradient id="SVGID_00000041263683508665362810000010396893171903780523_" gradientUnits="userSpaceOnUse" x1="-1016.2665" y1="-0.7394" x2="-1016.6465" y2="-0.6794" gradientTransform="matrix(127.78 0 0 -338.41 130056.125 -59.8931)">
		<stop  offset="0" style="stop-color:#9DAA00"/>
		<stop  offset="1" style="stop-color:#ABB819"/>
	</linearGradient>
	<path style="fill:url(#SVGID_00000041263683508665362810000010396893171903780523_);" d="M282.8,39.2l-4.1,1.9L278,51.4
		c-0.3,5.7-1.2,12.4-2,14.9c-3.6,12-14.2,31-33.6,60C220,159.8,207.4,184,196,215.8c-9.7,26.8-18.4,65-22.2,97.5
		c-2.5,21.3-1.6,47.6,2.1,60.7c0.5,1.8,9.4,2.9,10.5,1.2c0.6-0.8,0.7-6,0.4-11.9c-2.8-50.9-2.5-75.2,1-92
		c8-38.8,33.8-90.1,68.7-137.1c13.1-17.6,20.9-30,28.6-45.4c9.5-19,14.1-31.7,14.8-40.9c0.8-8.5,0.3-9.1-8.2-10.1
		C288.1,37.4,285.9,37.7,282.8,39.2L282.8,39.2z"/>
	
		<linearGradient id="SVGID_00000109728989881322717840000013545296437625353375_" gradientUnits="userSpaceOnUse" x1="-1005.6611" y1="-3.786" x2="-1004.6609" y2="-3.786" gradientTransform="matrix(52.52 0 0 -101.56 53050.4805 -288.9437)">
		<stop  offset="0" style="stop-color:#C5D740"/>
		<stop  offset="1" style="stop-color:#C5D740"/>
	</linearGradient>
	<path style="fill:url(#SVGID_00000109728989881322717840000013545296437625353375_);" d="M283.5,47.9c-0.6,2.2-1.1,5.2-1.1,6.9
		c0,3.5-3.1,16.7-5.5,24c-3.1,8.9-9.2,20.1-15.9,29c-8.9,11.5-26.9,38.5-25.8,38.5c0.5,0,4.5-4.6,8.9-10.3
		c25.2-32.3,33.8-46.9,40.3-68.7c3.7-12.4,4.2-19.2,1.8-21.6C284.7,44.1,284.5,44.3,283.5,47.9L283.5,47.9z"/>
	
		<linearGradient id="SVGID_00000037650166050762625340000015355861723546044316_" gradientUnits="userSpaceOnUse" x1="-1014.2228" y1="-15.3693" x2="-1013.2227" y2="-15.3693" gradientTransform="matrix(98.51 0 0 -27.51 100046.4062 -45.9406)">
		<stop  offset="0" style="stop-color:#FA8F8F"/>
		<stop  offset="1" style="stop-color:#FA8F8F"/>
	</linearGradient>
	<path style="fill:url(#SVGID_00000037650166050762625340000015355861723546044316_);" d="M140.1,367.1
		c15.2,18.1,29.9,25.3,47.2,23.1c8.4-1,23.6-5.9,31.8-10.1c6.5-3.5,17.4-11,16.7-11.6c-0.2-0.3-7.2,2.1-15.5,5.3
		c-37.7,14.2-45.1,13.8-70.9-3.4C136.1,361.5,135.1,361.1,140.1,367.1z"/>
	
		<linearGradient id="SVGID_00000072258853197811835970000002425199815779700864_" gradientUnits="userSpaceOnUse" x1="-1021.1345" y1="-0.7638" x2="-1020.1344" y2="-0.7638" gradientTransform="matrix(336.01 0 0 -349.84 343251.625 -51.8569)">
		<stop  offset="0" style="stop-color:#840909"/>
		<stop  offset="1" style="stop-color:#840909"/>
	</linearGradient>
	<path style="fill:url(#SVGID_00000072258853197811835970000002425199815779700864_);" d="M300.1,47.9c-0.8,9.2-5.4,21.9-14.9,40.9
		c-7.7,15.4-15.5,27.8-28.6,45.4c-34.9,47-60.7,98.3-68.7,137.1c-3.5,16.8-3.8,41.1-1,92c0.7,12.9,0.3,13.7-6.2,12.4
		c-4.7-0.9-4.8-1-5.3-4.9c-0.6-4.6-1-4.7-10-2.1c-6,1.7-14,2.1-15.6,0.8c-1.4-1.4-9-5.6-7.9-4.5c2,2,16.2,11.1,21.3,13.7
		c15.2,7.7,26.8,7,52.7-3.3l10-4l-7,0.6c-10.1,0.8-19.5-2.2-19.5-6.2c0-0.7,1.2-2.9,2.6-5l2.5-3.8l-6.9,0.6l-7,0.6l-0.7-16.7
		c-0.9-18.8-0.3-28.8,2.6-46.3c3.7-22.7,10.3-45.8,20.4-71.4c14.4-36.3,23.2-51.8,51.4-90c18.3-24.8,27.3-39.1,31-49
		c1.8-4.8,3.5-8.4,3.8-8.1c0.3,0.3-0.1,3.6-0.8,7.3c-1.7,8.6-1.7,34.9,0,46.8c1.4,9.8,4.8,23.4,6.2,25c0.5,0.5,0.9,2.1,0.9,3.5
		c0,7.2,11.1,32.1,21.1,47.2c10,15,28,34.1,45.4,48.1c21.6,17.2,35.8,31.6,46.9,47.2c5.1,7.1,10.2,14.6,11.3,16.5
		c2.7,4.6,11.8,29.2,13.2,35.5c2.2,9.9,2.8,22.7,1.5,29.5c-0.6,3.6-1,6.7-0.8,6.9c0.7,0.7,8.4-7.1,7.9-8c-0.3-0.4,0.1-0.9,0.8-1.2
		c2.7-1,13.6-17.8,17-26.3c6.8-16.7,8-23.4,8.1-46.4c0-23.2-0.8-28.5-7.5-47.7c-5-14.2-14.4-30.8-24.6-43.5
		c-6.9-8.6-12.8-13.8-52.3-46.3c-24.5-20.1-47.4-39.6-50.9-43.3c-15.9-16.9-23.9-32.1-28.7-55.2c-2.7-13.2-2.9-15.8-0.9-18.3
		c2.5-3.4-0.4-7.6-7.6-11.3l-4.6-2.3L300.1,47.9L300.1,47.9z"/>
	
		<linearGradient id="SVGID_00000060029197547155632980000007692256406472859273_" gradientUnits="userSpaceOnUse" x1="-1016.9746" y1="-0.7762" x2="-1015.9744" y2="-0.7762" gradientTransform="matrix(137.2 0 0 -343.48 139707.25 -54.4293)">
		<stop  offset="0" style="stop-color:#89FF03;stop-opacity:0.56"/>
		<stop  offset="1" style="stop-color:#89FF03;stop-opacity:0.56"/>
	</linearGradient>
	<path style="fill:url(#SVGID_00000060029197547155632980000007692256406472859273_);" d="M300.1,47.9c-0.8,9.2-5.4,21.9-14.9,40.9
		c-7.7,15.4-15.5,27.8-28.6,45.4c-34.9,47-60.7,98.3-68.7,137.1c-3.5,16.6-3.8,49.1-0.9,91.7c0.3,5,0.3,10.1-0.1,11.3
		c-0.6,2-1.2,2.2-5.6,1.6c-3.3-0.5-4.9-0.3-4.9,0.4c0,2.5,2.4,5.3,5.7,6.6c3.2,1.4,4,1.3,8.5-0.3c4.1-1.5,4.9-2.1,4.4-3.8
		c-0.3-1.1-1.5-5.4-2.6-9.5c-1.8-6.6-2.1-10.6-2.3-34c-0.2-23.7,0-27.9,2.1-39.4c4.3-24.5,10.7-46.8,20.7-72.1
		c14.4-36.3,23.2-51.8,51.3-90c19-25.7,26.8-38.1,31.4-49.7c2.5-6.4,6.7-14.2,11.1-20.8c3.8-5.8,7-11.3,6.9-12.4
		c-0.1-2.6-3-5.5-8.3-8.2l-4.6-2.3L300.1,47.9L300.1,47.9z"/>
	
		<linearGradient id="SVGID_00000178889505394894034320000016606709297771242639_" gradientUnits="userSpaceOnUse" x1="-1018.6851" y1="-0.8235" x2="-1017.6849" y2="-0.8235" gradientTransform="matrix(181.15 0 0 -332.47 184830.3125 -50.7039)">
		<stop  offset="0" style="stop-color:#51FF00;stop-opacity:0.46"/>
		<stop  offset="1" style="stop-color:#51FF00;stop-opacity:0.46"/>
	</linearGradient>
	<path style="fill:url(#SVGID_00000178889505394894034320000016606709297771242639_);" d="M305.2,65.3c-4.1,6.3-5.7,9.8-6.2,13.5
		c-0.3,2.7-1.1,9-1.7,14c-1.2,9.4-0.7,25.7,1.2,39.2c1,7.7,4.4,21.2,5.9,24.2c0.5,0.9,2.1,5.3,3.6,9.8c1.5,4.6,2.9,8.1,3.1,7.9
		s-0.5-3.9-1.6-8.2c-3-12.4-4.4-22.1-4.5-32.9c-0.1-9.6,0.1-10.4,3.3-16.8c1.9-3.7,3.6-6.5,3.8-6.3s2.1,4.8,4.2,10.2
		c2.8,7.4,6.1,13.3,13,23.2l9.2,13.2l-1.1,5.3c-1.5,6.5,0,17.8,3.3,25.1l2.2,4.8l-0.3-15.3l-0.4-15.4l10.4,10
		c5.6,5.6,12.1,11.5,14.4,13.3c3.9,3,4.1,3.4,4.3,8.9c0.3,11.1,2.9,20.6,8.4,30.7c2.8,5.2,5.3,9.3,5.5,9.1s-1.1-3.4-2.9-7.2
		c-1.7-3.7-3.8-8.8-4.5-11.2c-1.4-4.4-2-20.2-0.8-21.4c0.3-0.3,7,4.5,14.8,10.8l14.1,11.3l1.9,8.4c1.8,8.3,9,26.7,13.3,34.3
		c3.3,5.7,2.8,3.5-0.7-3.4c-1.6-3.3-3.9-9.2-5.1-13.3c-2.1-7.2-4-20.8-2.9-20.8c1.3,0,15.2,13.4,23.6,22.9c8.9,10,9.1,10.4,8.3,13.9
		c-0.5,2.5,0,8.4,1.9,19.6c2.7,16,2.7,16.1,3,9.1c0.3-6.1-0.2-11.7-2.4-26.5c-0.7-4.6,15.9,26.4,18.1,33.8c1.4,4.5,1.4,6.6,0.5,13
		c-1,6.6-2.1,10.9-6.5,24.7c-0.3,1.1,0.5-0.3,1.8-3c1.3-2.8,3.4-8.8,4.8-13.4c2.3-8.2,2.4-8.3,3.2-5c0.4,1.9,1.2,4.8,1.8,6.5
		c2.3,7.6-1,27.5-6.9,41.4c-3.3,7.8-14.1,26.6-18,31.5c-0.9,1.1,0.2,0.2,2.5-1.9c2.3-2.2,4-4.3,3.8-4.7c-0.3-0.4,0.1-0.9,0.8-1.2
		c2.7-1,13.6-17.8,17-26.3c6.8-16.7,8-23.4,8.1-46.4c0-23.2-0.8-28.5-7.5-47.7c-5-14.2-14.4-30.8-24.6-43.5
		c-6.9-8.6-12.8-13.8-52.3-46.3c-45.3-37.3-53.4-44.6-62.2-57c-9.4-13.2-13.8-23.9-17.8-43.5l-2.7-13.5L305.2,65.3L305.2,65.3z"/>
	
		<linearGradient id="SVGID_00000178884608341494867240000011159087673620520347_" gradientUnits="userSpaceOnUse" x1="-1018.2066" y1="-1.0548" x2="-1017.2064" y2="-1.0548" gradientTransform="matrix(166.39 0 0 -280.27 169724.3281 -45.7738)">
		<stop  offset="0" style="stop-color:#91FF00;stop-opacity:0.59"/>
		<stop  offset="1" style="stop-color:#91FF00;stop-opacity:0.59"/>
	</linearGradient>
	<path style="fill:url(#SVGID_00000178884608341494867240000011159087673620520347_);" d="M308.3,116c-3.2,6.4-3.4,7.2-3.3,16.8
		c0.1,10.8,1.5,20.5,4.5,32.9c1.1,4.3,1.8,8,1.6,8.2s-1.4-2.7-2.8-6.5c-1.3-3.9-2.5-6.8-2.7-6.6c-0.8,0.8,3.9,13.6,9.1,24.6
		c11.8,24.9,31.2,48.3,57.2,69.2c21.6,17.2,35.8,31.6,46.9,47.2c5.1,7.1,10.2,14.6,11.3,16.5c2.7,4.6,11.8,29.2,13.2,35.5
		c2.7,12.5,2.9,24.5,0.6,34.4c-1.1,4.4,2.1,0.5,9.3-11.3c9.1-15.1,12.9-24.1,15.8-37.4c2.6-12,3-18.7,1.5-23.6
		c-0.6-1.7-1.4-4.6-1.8-6.5c-0.8-3.3-0.9-3.2-3.2,5c-1.4,4.6-3.5,10.6-4.8,13.4c-1.3,2.7-2.1,4.1-1.8,3c4.4-13.8,5.5-18.1,6.5-24.7
		c0.9-6.4,0.9-8.5-0.5-13c-2.2-7.4-18.8-38.4-18.1-33.8c2.2,14.8,2.7,20.4,2.4,26.5c-0.3,7-0.3,6.9-3-9.1
		c-1.9-11.2-2.4-17.1-1.9-19.6c0.8-3.5,0.6-3.9-8.3-13.9c-8.4-9.5-22.3-22.9-23.6-22.9c-1.1,0,0.8,13.6,2.9,20.8
		c1.2,4.1,3.5,10,5.1,13.3c3.5,6.9,4,9.1,0.7,3.4c-4.3-7.6-11.5-26-13.3-34.3l-1.9-8.4l-14.1-11.3c-7.8-6.3-14.5-11.1-14.8-10.8
		c-1.2,1.2-0.6,17,0.8,21.4c0.7,2.4,2.8,7.5,4.5,11.2c1.8,3.8,3.1,7,2.9,7.2s-2.7-3.9-5.5-9.1c-5.5-10.1-8.1-19.6-8.4-30.7
		c-0.2-5.5-0.4-5.9-4.3-8.9c-2.3-1.8-8.8-7.7-14.4-13.3l-10.4-10l0.4,15.4l0.3,15.3l-2.2-4.8c-3.3-7.3-4.8-18.6-3.3-25.1l1.1-5.3
		l-9.2-13.2c-6.9-9.9-10.2-15.8-13-23.2c-2.1-5.4-4-10-4.2-10.2S310.2,112.3,308.3,116L308.3,116z"/>
	
		<linearGradient id="SVGID_00000154403197044241903660000001439281227373868427_" gradientUnits="userSpaceOnUse" x1="-1001.1472" y1="-14.2499" x2="-1001.8572" y2="-14.9999" gradientTransform="matrix(43.75 0 0 -29.25 43923.6992 1.5098)">
		<stop  offset="0" style="stop-color:#FFFFFF;stop-opacity:0.99"/>
		<stop  offset="1" style="stop-color:#FFFFFF"/>
	</linearGradient>
	<path style="fill:url(#SVGID_00000154403197044241903660000001439281227373868427_);" d="M97.8,413.7c-1.7,0.7-4.5,3-6.3,5
		c-3.9,4.5-4.5,10.9-1.2,14.4c6.3,6.7,24.4,10.6,33.5,7.2c17.7-6.7,4-28.1-17.9-28C103.1,412.4,99.4,413,97.8,413.7z"/>
</g>
<linearGradient id="SVGID_00000113342851409440655130000001564211697381156001_" gradientUnits="userSpaceOnUse" x1="-1017.8693" y1="-1.6647" x2="-1018.5393" y2="-0.8247" gradientTransform="matrix(286.66 0 0 -253.04 292615.4062 167.0436)">
	<stop  offset="0" style="stop-color:#820002"/>
	<stop  offset="1" style="stop-color:#EB0A11"/>
</linearGradient>
<path style="fill:url(#SVGID_00000113342851409440655130000001564211697381156001_);" d="M676.1,363.6c-0.2,0.3-2.6,0.7-5.4,1.1
	c-11,1.3-28.6,8.2-40.1,15.7c-6.4,4.2-23.4,19.4-23.4,21c0,0.4-1.1,1.9-2.4,3.3c-6.4,6.9-14.3,27-16.7,42.5
	c-1.6,10.5-0.5,34.9,2.1,47.5c4.8,22.9,19,57.3,30.8,74.6c17.4,25.5,40.9,40,73.7,45.4c29.2,4.8,88.5-2.7,112.4-14.2
	c14.4-6.9,30.1-25.5,42.6-50.3c18.7-37.2,26.9-72.9,23.6-101.8c-3.2-27-13.3-49.7-28.9-64.4c-8.2-7.7-14.8-11.7-25.7-15.4
	c-11-3.8-27.3-3.9-50-0.4c-17.1,2.6-17.9,3-20.6,9.3c-1.6,3.7,0.7,6.2,7.2,7.7c5.9,1.4,18.5,0.5,24.2-1.7c2.1-0.9,4-1.4,4.2-1.1
	c0.7,0.6-10.1,8.1-16.7,11.6c-8.2,4.2-23.4,9.1-31.8,10.1c-17.3,2.2-32-5-47.1-23l-4.1-4.9l3.7,1.6c2.1,0.8,5.6,2.7,7.8,4.1
	c3.5,2.2,4.8,2.5,10.1,2c3.4-0.3,8.5-1.3,11.4-2.3c4.6-1.5,5.3-2,4.8-3.8c-0.3-1.2-0.6-3-0.6-4.1s-0.4-2.5-0.8-3.2
	C718.6,367.6,678.3,361.4,676.1,363.6L676.1,363.6z"/>
<linearGradient id="SVGID_00000023996106463664282610000009108560490464934303_" gradientUnits="userSpaceOnUse" x1="-992.7993" y1="-6.3383" x2="-991.7991" y2="-6.3383" gradientTransform="matrix(63.29 0 0 -67.94 63924.0195 25.0413)">
	<stop  offset="0" style="stop-color:#EE464C"/>
	<stop  offset="1" style="stop-color:#EE464C"/>
</linearGradient>
<path style="fill:url(#SVGID_00000023996106463664282610000009108560490464934303_);" d="M1113,425.2c-8.6,4.3-14.4,10.4-18.6,19.3
	c-2.6,5.8-3,7.9-3.1,15.7c-0.1,7.9,0.2,9.7,2.7,14.7c6.1,12.4,20.5,17.9,33.6,12.9c11.6-4.4,21.2-15.2,25.6-28.9
	c2.3-6.8,1.6-17-1.3-22.8c-4.5-8.9-14.7-14.4-26.5-14.4C1121.2,421.7,1118.4,422.5,1113,425.2L1113,425.2z"/>
<linearGradient id="SVGID_00000013888464409912780390000014375630127857011382_" gradientUnits="userSpaceOnUse" x1="-877.7144" y1="-30.5459" x2="-876.7145" y2="-30.5459" gradientTransform="matrix(13.56 0 0 -14.95 13086.1709 -2.6302)">
	<stop  offset="0" style="stop-color:#EE565B"/>
	<stop  offset="1" style="stop-color:#EE565B"/>
</linearGradient>
<path style="fill:url(#SVGID_00000013888464409912780390000014375630127857011382_);" d="M1191,447.6c-3.1,1.8-4.4,4-4.5,7.4
	c0,7.3,9.1,8.9,12.6,2.3c1.8-3.5,1-7.4-1.9-9.4C1194.7,446.1,1193.7,446.1,1191,447.6L1191,447.6z"/>
<linearGradient id="SVGID_00000029042216209078312910000006260117514307827096_" gradientUnits="userSpaceOnUse" x1="-1008.6112" y1="-0.7667" x2="-1008.9912" y2="-0.7067" gradientTransform="matrix(127.78 0 0 -338.41 130056.125 -59.8931)">
	<stop  offset="0" style="stop-color:#9DAA00"/>
	<stop  offset="1" style="stop-color:#ABB819"/>
</linearGradient>
<path style="fill:url(#SVGID_00000029042216209078312910000006260117514307827096_);stroke:#000000;stroke-miterlimit:10;" d="
	M1261,48.5l-4.1,1.9l-0.7,10.3c-0.3,5.7-1.2,12.4-2,14.9c-3.6,12-14.2,31-33.6,60c-22.3,33.5-34.9,57.7-46.3,89.5
	c-9.7,26.8-18.4,65-22.2,97.5c-2.5,21.3-1.6,47.6,2.1,60.7c0.5,1.8,9.4,2.9,10.5,1.2c0.6-0.8,0.7-6,0.4-11.9
	c-2.8-50.9-2.5-75.2,1-92c8-38.8,33.8-90.1,68.7-137.1c13.1-17.6,20.9-30,28.6-45.4c9.5-19,14.1-31.7,14.8-40.9
	c0.8-8.5,0.3-9.1-8.2-10.1C1266.3,46.7,1264.1,47,1261,48.5L1261,48.5z"/>
<linearGradient id="SVGID_00000034786479003555716030000011805306918782568592_" gradientUnits="userSpaceOnUse" x1="-987.0358" y1="-3.877" x2="-986.0357" y2="-3.877" gradientTransform="matrix(52.52 0 0 -101.56 53050.4805 -288.9437)">
	<stop  offset="0" style="stop-color:#C5D740"/>
	<stop  offset="1" style="stop-color:#C5D740"/>
</linearGradient>
<path style="fill:url(#SVGID_00000034786479003555716030000011805306918782568592_);stroke:#000000;stroke-miterlimit:10;" d="
	M1261.7,57.2c-0.6,2.2-1.1,5.2-1.1,6.9c0,3.5-3.1,16.7-5.5,24c-3.1,8.9-9.2,20.1-15.9,29c-8.9,11.5-26.9,38.5-25.8,38.5
	c0.5,0,4.5-4.6,8.9-10.3c25.2-32.3,33.8-46.9,40.3-68.7c3.7-12.4,4.2-19.2,1.8-21.6C1262.9,53.4,1262.7,53.6,1261.7,57.2
	L1261.7,57.2z"/>
<linearGradient id="SVGID_00000165233190671882127760000000942222821209531282_" gradientUnits="userSpaceOnUse" x1="-1004.2672" y1="-15.6718" x2="-1003.267" y2="-15.6718" gradientTransform="matrix(98.51 0 0 -27.51 100046.4062 -45.9406)">
	<stop  offset="0" style="stop-color:#FA8F8F"/>
	<stop  offset="1" style="stop-color:#FA8F8F"/>
</linearGradient>
<path style="fill:url(#SVGID_00000165233190671882127760000000942222821209531282_);stroke:#000000;stroke-miterlimit:10;" d="
	M1120.9,375.5c15.2,18.1,29.9,25.3,47.2,23.1c8.4-1,23.6-5.9,31.8-10.1c6.5-3.5,17.4-11,16.7-11.6c-0.2-0.3-7.2,2.1-15.5,5.3
	c-37.7,14.2-45.1,13.8-70.9-3.4C1116.9,369.9,1115.9,369.5,1120.9,375.5z"/>
<linearGradient id="SVGID_00000022532935119679121720000010292331129120430488_" gradientUnits="userSpaceOnUse" x1="-1019.4985" y1="-0.71" x2="-1018.4984" y2="-0.71" gradientTransform="matrix(336.01 0 0 -349.84 343251.625 -51.8569)">
	<stop  offset="0" style="stop-color:#840909"/>
	<stop  offset="1" style="stop-color:#840909"/>
</linearGradient>
<path style="fill:url(#SVGID_00000022532935119679121720000010292331129120430488_);" d="M849.8,29.1C849,38.3,844.4,51,834.9,70
	c-7.7,15.4-15.5,27.8-28.6,45.4c-34.9,47-60.7,98.3-68.7,137.1c-3.5,16.8-3.8,41.1-1,92c0.7,12.9,0.3,13.7-6.2,12.4
	c-4.7-0.9-4.8-1-5.3-4.9c-0.6-4.6-1-4.7-10-2.1c-6,1.7-14,2.1-15.6,0.8c-1.4-1.4-9-5.6-7.9-4.5c2,2,16.2,11.1,21.3,13.7
	c15.2,7.7,26.8,7,52.7-3.3l10-4l-7,0.6C758.4,354,749,351,749,347c0-0.7,1.2-2.9,2.6-5l2.5-3.8l-6.9,0.6l-7,0.6l-0.7-16.7
	c-0.9-18.8-0.3-28.8,2.6-46.3c3.7-22.7,10.3-45.8,20.4-71.4c14.4-36.3,23.2-51.8,51.4-90c18.3-24.8,27.3-39.1,31-49
	c1.8-4.8,3.5-8.4,3.8-8.1s-0.1,3.6-0.8,7.3c-1.7,8.6-1.7,34.9,0,46.8c1.4,9.8,4.8,23.4,6.2,25c0.5,0.5,0.9,2.1,0.9,3.5
	c0,7.2,11.1,32.1,21.1,47.2c10,15,28,34.1,45.4,48.1c21.6,17.2,35.8,31.6,46.9,47.2c5.1,7.1,10.2,14.6,11.3,16.5
	c2.7,4.6,11.8,29.2,13.2,35.5c2.2,9.9,2.8,22.7,1.5,29.5c-0.6,3.6-1,6.7-0.8,6.9c0.7,0.7,8.4-7.1,7.9-8c-0.3-0.4,0.1-0.9,0.8-1.2
	c2.7-1,13.6-17.8,17-26.3c6.8-16.7,8-23.4,8.1-46.4c0-23.2-0.8-28.5-7.5-47.7c-5-14.2-14.4-30.8-24.6-43.5
	c-6.9-8.6-12.8-13.8-52.3-46.3c-24.5-20.1-47.4-39.6-50.9-43.3c-15.9-16.9-23.9-32.1-28.7-55.2c-2.7-13.2-2.9-15.8-0.9-18.3
	c2.5-3.4-0.4-7.6-7.6-11.3l-4.6-2.3L849.8,29.1L849.8,29.1z"/>
<linearGradient id="SVGID_00000008864728703187255380000005921780692032762782_" gradientUnits="userSpaceOnUse" x1="-1009.8448" y1="-0.8031" x2="-1008.8447" y2="-0.8031" gradientTransform="matrix(137.2 0 0 -343.48 139707.25 -54.4293)">
	<stop  offset="0" style="stop-color:#89FF03;stop-opacity:0.56"/>
	<stop  offset="1" style="stop-color:#89FF03;stop-opacity:0.56"/>
</linearGradient>
<path style="fill:url(#SVGID_00000008864728703187255380000005921780692032762782_);stroke:#000000;stroke-miterlimit:10;" d="
	M1278.3,57.2c-0.8,9.2-5.4,21.9-14.9,40.9c-7.7,15.4-15.5,27.8-28.6,45.4c-34.9,47-60.7,98.3-68.7,137.1
	c-3.5,16.6-3.8,49.1-0.9,91.7c0.3,5,0.3,10.1-0.1,11.3c-0.6,2-1.2,2.2-5.6,1.6c-3.3-0.5-4.9-0.3-4.9,0.4c0,2.5,2.4,5.3,5.7,6.6
	c3.2,1.4,4,1.3,8.5-0.3c4.1-1.5,4.9-2.1,4.4-3.8c-0.3-1.1-1.5-5.4-2.6-9.5c-1.8-6.6-2.1-10.6-2.3-34c-0.2-23.7,0-27.9,2.1-39.4
	c4.3-24.5,10.7-46.8,20.7-72.1c14.4-36.3,23.2-51.8,51.3-90c19-25.7,26.8-38.1,31.4-49.7c2.5-6.4,6.7-14.2,11.1-20.8
	c3.8-5.8,7-11.3,6.9-12.4c-0.1-2.6-3-5.5-8.3-8.2l-4.6-2.3L1278.3,57.2L1278.3,57.2z"/>
<linearGradient id="SVGID_00000011745480010348031970000016687471408048528830_" gradientUnits="userSpaceOnUse" x1="-1013.2852" y1="-0.8513" x2="-1012.285" y2="-0.8513" gradientTransform="matrix(181.15 0 0 -332.47 184830.3125 -50.7039)">
	<stop  offset="0" style="stop-color:#51FF00;stop-opacity:0.46"/>
	<stop  offset="1" style="stop-color:#51FF00;stop-opacity:0.46"/>
</linearGradient>
<path style="fill:url(#SVGID_00000011745480010348031970000016687471408048528830_);stroke:#000000;stroke-miterlimit:10;" d="
	M1283.4,74.6c-4.1,6.3-5.7,9.8-6.2,13.5c-0.3,2.7-1.1,9-1.7,14c-1.2,9.4-0.7,25.7,1.2,39.2c1,7.7,4.4,21.2,5.9,24.2
	c0.5,0.9,2.1,5.3,3.6,9.8c1.5,4.6,2.9,8.1,3.1,7.9c0.2-0.2-0.5-3.9-1.6-8.2c-3-12.4-4.4-22.1-4.5-32.9c-0.1-9.6,0.1-10.4,3.3-16.8
	c1.9-3.7,3.6-6.5,3.8-6.3c0.2,0.2,2.1,4.8,4.2,10.2c2.8,7.4,6.1,13.3,13,23.2l9.2,13.2l-1.1,5.3c-1.5,6.5,0,17.8,3.3,25.1l2.2,4.8
	l-0.3-15.3l-0.4-15.4l10.4,10c5.6,5.6,12.1,11.5,14.4,13.3c3.9,3,4.1,3.4,4.3,8.9c0.3,11.1,2.9,20.6,8.4,30.7
	c2.8,5.2,5.3,9.3,5.5,9.1c0.2-0.2-1.1-3.4-2.9-7.2c-1.7-3.7-3.8-8.8-4.5-11.2c-1.4-4.4-2-20.2-0.8-21.4c0.3-0.3,7,4.5,14.8,10.8
	l14.1,11.3l1.9,8.4c1.8,8.3,9,26.7,13.3,34.3c3.3,5.7,2.8,3.5-0.7-3.4c-1.6-3.3-3.9-9.2-5.1-13.3c-2.1-7.2-4-20.8-2.9-20.8
	c1.3,0,15.2,13.4,23.6,22.9c8.9,10,9.1,10.4,8.3,13.9c-0.5,2.5,0,8.4,1.9,19.6c2.7,16,2.7,16.1,3,9.1c0.3-6.1-0.2-11.7-2.4-26.5
	c-0.7-4.6,15.9,26.4,18.1,33.8c1.4,4.5,1.4,6.6,0.5,13c-1,6.6-2.1,10.9-6.5,24.7c-0.3,1.1,0.5-0.3,1.8-3c1.3-2.8,3.4-8.8,4.8-13.4
	c2.3-8.2,2.4-8.3,3.2-5c0.4,1.9,1.2,4.8,1.8,6.5c2.3,7.6-1,27.5-6.9,41.4c-3.3,7.8-14.1,26.6-18,31.5c-0.9,1.1,0.2,0.2,2.5-1.9
	c2.3-2.2,4-4.3,3.8-4.7c-0.3-0.4,0.1-0.9,0.8-1.2c2.7-1,13.6-17.8,17-26.3c6.8-16.7,8-23.4,8.1-46.4c0-23.2-0.8-28.5-7.5-47.7
	c-5-14.2-14.4-30.8-24.6-43.5c-6.9-8.6-12.8-13.8-52.3-46.3c-45.3-37.3-53.4-44.6-62.2-57c-9.4-13.2-13.8-23.9-17.8-43.5l-2.7-13.5
	L1283.4,74.6L1283.4,74.6z"/>
<linearGradient id="SVGID_00000024722738381003538460000016801609065597166774_" gradientUnits="userSpaceOnUse" x1="-1012.3276" y1="-1.0878" x2="-1011.3275" y2="-1.0878" gradientTransform="matrix(166.39 0 0 -280.27 169724.3281 -45.7738)">
	<stop  offset="0" style="stop-color:#91FF00;stop-opacity:0.59"/>
	<stop  offset="1" style="stop-color:#91FF00;stop-opacity:0.59"/>
</linearGradient>
<path style="fill:url(#SVGID_00000024722738381003538460000016801609065597166774_);stroke:#000000;stroke-miterlimit:10;" d="
	M1286.5,125.3c-3.2,6.4-3.4,7.2-3.3,16.8c0.1,10.8,1.5,20.5,4.5,32.9c1.1,4.3,1.8,8,1.6,8.2c-0.2,0.2-1.4-2.7-2.8-6.5
	c-1.3-3.9-2.5-6.8-2.7-6.6c-0.8,0.8,3.9,13.6,9.1,24.6c11.8,24.9,31.2,48.3,57.2,69.2c21.6,17.2,35.8,31.6,46.9,47.2
	c5.1,7.1,10.2,14.6,11.3,16.5c2.7,4.6,11.8,29.2,13.2,35.5c2.7,12.5,2.9,24.5,0.6,34.4c-1.1,4.4,2.1,0.5,9.3-11.3
	c9.1-15.1,12.9-24.1,15.8-37.4c2.6-12,3-18.7,1.5-23.6c-0.6-1.7-1.4-4.6-1.8-6.5c-0.8-3.3-0.9-3.2-3.2,5c-1.4,4.6-3.5,10.6-4.8,13.4
	c-1.3,2.7-2.1,4.1-1.8,3c4.4-13.8,5.5-18.1,6.5-24.7c0.9-6.4,0.9-8.5-0.5-13c-2.2-7.4-18.8-38.4-18.1-33.8
	c2.2,14.8,2.7,20.4,2.4,26.5c-0.3,7-0.3,6.9-3-9.1c-1.9-11.2-2.4-17.1-1.9-19.6c0.8-3.5,0.6-3.9-8.3-13.9
	c-8.4-9.5-22.3-22.9-23.6-22.9c-1.1,0,0.8,13.6,2.9,20.8c1.2,4.1,3.5,10,5.1,13.3c3.5,6.9,4,9.1,0.7,3.4c-4.3-7.6-11.5-26-13.3-34.3
	l-1.9-8.4l-14.1-11.3c-7.8-6.3-14.5-11.1-14.8-10.8c-1.2,1.2-0.6,17,0.8,21.4c0.7,2.4,2.8,7.5,4.5,11.2c1.8,3.8,3.1,7,2.9,7.2
	c-0.2,0.2-2.7-3.9-5.5-9.1c-5.5-10.1-8.1-19.6-8.4-30.7c-0.2-5.5-0.4-5.9-4.3-8.9c-2.3-1.8-8.8-7.7-14.4-13.3l-10.4-10l0.4,15.4
	l0.3,15.3l-2.2-4.8c-3.3-7.3-4.8-18.6-3.3-25.1l1.1-5.3l-9.2-13.2c-6.9-9.9-10.2-15.8-13-23.2c-2.1-5.4-4-10-4.2-10.2
	S1288.4,121.6,1286.5,125.3L1286.5,125.3z"/>
<linearGradient id="SVGID_00000134953167807478853800000004903637294685453443_" gradientUnits="userSpaceOnUse" x1="-969.4525" y1="-14.0697" x2="-970.1626" y2="-14.8198" gradientTransform="matrix(43.75 0 0 -29.25 43923.6992 1.5098)">
	<stop  offset="0" style="stop-color:#FFFFFF;stop-opacity:0.99"/>
	<stop  offset="1" style="stop-color:#FFFFFF"/>
</linearGradient>
<path style="fill:url(#SVGID_00000134953167807478853800000004903637294685453443_);stroke:#000000;stroke-miterlimit:10;" d="
	M1484.5,408.5c-1.7,0.7-4.5,3-6.3,5c-3.9,4.5-4.5,10.9-1.2,14.4c6.3,6.7,24.4,10.6,33.5,7.2c17.7-6.7,4-28.1-17.9-28
	C1489.8,407.2,1486.1,407.8,1484.5,408.5z"/>
</svg>
