<?xml version="1.0" encoding="utf-8"?>
<!-- Generator: Adobe Illustrator 27.0.0, SVG Export Plug-In . SVG Version: 6.00 Build 0)  -->
<svg version="1.1" id="图层_1" xmlns="http://www.w3.org/2000/svg" xmlns:xlink="http://www.w3.org/1999/xlink" x="0px" y="0px"
	 viewBox="0 0 1600 640" style="enable-background:new 0 0 1600 640;" xml:space="preserve">
<style type="text/css">
	.st0{fill:none;}
	.st1{fill:#D3D3D3;}
	.st2{fill:url(#SVGID_1_);}
	.st3{fill:url(#region-1-1_00000116930656385369066200000004901146935280005260_);}
	.st4{fill:url(#region-1-2_00000040576636120600126220000010074003747339093175_);}
	.st5{fill:url(#region-1-3_00000127764036053168046220000002006005276621315213_);}
	.st6{fill:url(#region-1-4_00000067921377775628018780000001362588951411300996_);}
	.st7{fill:url(#region-2-1_00000125561610830138448110000002164467665235526590_);}
	.st8{fill:url(#region-2-2_00000161590965909459672210000005374333603366835108_);}
	.st9{fill:url(#region-2-3_00000145026606701292273740000014342081616857885624_);}
	.st10{fill:url(#region-2-4_00000074406242609138594640000009390954805848096172_);}
	.st11{fill:url(#region-2-5_00000121998747420983573900000000942296453346381745_);}
	.st12{fill:url(#region-2-6_00000105425929434970995960000001738607248747558067_);}
	.st13{fill:url(#region-2-7_00000013165479125777932540000003294460832373668747_);}
	.st14{fill:url(#region-2-8_00000065035848201915866460000007370248442142840987_);}
	.st15{fill:url(#region-3-1_00000129899957838261702830000011706177471474153103_);}
	.st16{fill:none;stroke:#000000;stroke-width:3;stroke-miterlimit:10;}
	.st17{fill:url(#region-1-1_00000106832427934568671740000007666533670140021951_);}
	.st18{fill:url(#region-1-2_00000081640172059092742680000016152324584631141264_);}
	.st19{fill:url(#region-1-3_00000108305317230533741560000006950750248955756206_);}
	.st20{fill:url(#region-1-4_00000059311549443275059510000007608235322445303213_);}
	.st21{fill:url(#region-2-1_00000039813056415683577930000014028020089060955812_);stroke:#000000;stroke-miterlimit:10;}
	.st22{fill:url(#region-2-2_00000010994878379177357760000013252755611804248500_);stroke:#000000;stroke-miterlimit:10;}
	.st23{fill:url(#region-2-3_00000016789670207352286570000005853218142069012636_);stroke:#000000;stroke-miterlimit:10;}
	.st24{fill:url(#region-2-4_00000030465568666786073650000008535148024520860351_);stroke:#000000;stroke-miterlimit:10;}
	.st25{fill:url(#region-2-5_00000168825230877557732320000001037353286004723360_);stroke:#000000;stroke-miterlimit:10;}
	.st26{fill:url(#region-2-6_00000070116189461971215140000000706167125788139917_);stroke:#000000;stroke-miterlimit:10;}
	.st27{fill:url(#region-2-7_00000096029869759705529770000000088183359936163458_);stroke:#000000;stroke-miterlimit:10;}
	.st28{fill:url(#region-2-8_00000080164902408550414560000006159244765798992302_);stroke:#000000;stroke-miterlimit:10;}
	.st29{fill:url(#region-3-1_00000012446127904082148310000011176077017337132715_);stroke:#000000;stroke-miterlimit:10;}
</style>
<pattern  y="640" width="40" height="40" patternUnits="userSpaceOnUse" id="a2ed1d96-aebd-4bf9-a4b3-645f1ac" viewBox="0 -40 40 40" style="overflow:visible;">
	<g>
		<rect y="-40" class="st0" width="40" height="40"/>
		<g>
			<rect y="-40" class="st0" width="40" height="40"/>
			<g>
				<rect y="-40" class="st0" width="40" height="40"/>
				<rect y="-40" class="st0" width="40" height="40"/>
				<rect y="-40" class="st1" width="20" height="20"/>
				<rect x="20" y="-20" class="st1" width="20" height="20"/>
			</g>
		</g>
	</g>
</pattern>
<g id="_图层_2">
	<g id="_图层_1">
		<pattern  id="SVGID_1_" xlink:href="#a2ed1d96-aebd-4bf9-a4b3-645f1ac" patternTransform="matrix(1 0 0 1 212 16502.2402)">
		</pattern>
		<rect class="st2" width="1600" height="640"/>
	</g>
</g>
<g id="_图层_1-2">
	<g id="layer-1">
		
			<linearGradient id="region-1-1_00000044136267948763229840000006258433841009333919_" gradientUnits="userSpaceOnUse" x1="-1102.6801" y1="-0.4827" x2="-1101.0901" y2="-1.2927" gradientTransform="matrix(141.23 0 0 -346.25 155886.2812 -52.9375)">
			<stop  offset="0" style="stop-color:#C8CF5D"/>
			<stop  offset="1" style="stop-color:#8D9F00"/>
		</linearGradient>
		<path id="region-1-1" style="fill:url(#region-1-1_00000044136267948763229840000006258433841009333919_);" d="M280.9,50.1
			l-4.1,1.9l-0.7,10.3c-0.3,5.7-1.2,12.4-2,14.9c-3.6,12-14.2,31-33.6,60c-14,21-20.1,31.3-28,47c-18,35.9-28.3,68.1-36.6,114
			c-6.9,38-7.2,68-1,89.5c0.8,3.1,1.9,4.4,4.9,5.8c3.6,1.8,3.9,1.8,8.8,0.1c4.2-1.6,5-2.2,4.5-3.9c-0.3-1.1-1.5-5.4-2.6-9.5
			c-1.8-6.6-2.1-10.6-2.3-34c-0.2-23.7,0-27.9,2.1-39.4c4.3-24.5,10.7-46.8,20.7-72.1c14.4-36.3,23.2-51.8,51.3-90
			c19-25.7,26.8-38.1,31.4-49.7c2.5-6.4,6.7-14.2,11.1-20.8c3.8-5.8,7-11.3,6.9-12.4c-0.2-2.9-3.1-5.5-10.3-9.2
			C292.8,48.3,286.4,47.5,280.9,50.1L280.9,50.1z"/>
		
			<linearGradient id="region-1-2_00000124125814343454639600000005921289178730227347_" gradientUnits="userSpaceOnUse" x1="-1103.7145" y1="-0.3487" x2="-1103.7145" y2="-1.3487" gradientTransform="matrix(181.15 0 0 -332.47 200323.2031 -50.7039)">
			<stop  offset="0" style="stop-color:#536100"/>
			<stop  offset="1" style="stop-color:#79841C"/>
		</linearGradient>
		<path id="region-1-2" style="fill:url(#region-1-2_00000124125814343454639600000005921289178730227347_);" d="M303.3,76.2
			c-4.1,6.3-5.7,9.8-6.2,13.5c-0.3,2.7-1.1,9-1.7,14c-1.2,9.4-0.7,25.7,1.2,39.2c1,7.7,4.4,21.2,5.9,24.2c0.5,0.9,2.1,5.3,3.6,9.8
			c1.5,4.6,2.9,8.1,3.1,7.9s-0.5-3.9-1.6-8.2c-3-12.4-4.4-22.1-4.5-32.9c-0.1-9.6,0.1-10.4,3.3-16.8c1.9-3.7,3.6-6.5,3.8-6.3
			s2.1,4.8,4.2,10.2c2.8,7.4,6.1,13.3,13,23.2l9.2,13.2l-1.1,5.3c-1.5,6.5,0,17.8,3.3,25.1l2.2,4.8l-0.3-15.3l-0.4-15.4l10.4,10
			c5.6,5.6,12.1,11.5,14.4,13.3c3.9,3,4.1,3.4,4.3,8.9c0.3,11.1,2.9,20.6,8.4,30.7c2.8,5.2,5.3,9.3,5.5,9.1s-1.1-3.4-2.9-7.2
			c-1.7-3.7-3.8-8.8-4.5-11.2c-1.4-4.4-2-20.2-0.8-21.4c0.3-0.3,7,4.5,14.8,10.8L404,226l1.9,8.4c1.8,8.3,9,26.7,13.3,34.3
			c3.3,5.7,2.8,3.5-0.7-3.4c-1.6-3.3-3.9-9.2-5.1-13.3c-2.1-7.2-4-20.8-2.9-20.8c1.3,0,15.2,13.4,23.6,22.9
			c8.9,10,9.1,10.4,8.3,13.9c-0.5,2.5,0,8.4,1.9,19.6c2.7,16,2.7,16.1,3,9.1c0.3-6.1-0.2-11.7-2.4-26.5
			c-0.7-4.6,15.9,26.4,18.1,33.8c1.4,4.5,1.4,6.6,0.5,13c-1,6.6-2.1,10.9-6.5,24.7c-0.3,1.1,0.5-0.3,1.8-3c1.3-2.8,3.4-8.8,4.8-13.4
			c2.3-8.2,2.4-8.3,3.2-5c0.4,1.9,1.2,4.8,1.8,6.5c2.3,7.6-1,27.5-6.9,41.4c-3.3,7.8-14.1,26.6-18,31.5c-0.9,1.1,0.2,0.2,2.5-1.9
			c2.3-2.2,4-4.3,3.8-4.7c-0.3-0.4,0.1-0.9,0.8-1.2c2.7-1,13.6-17.8,17-26.3c6.8-16.7,8-23.4,8.1-46.4c0-23.2-0.8-28.5-7.5-47.7
			c-5-14.2-14.4-30.8-24.6-43.5c-6.9-8.6-12.8-13.8-52.3-46.3c-45.3-37.3-53.4-44.6-62.2-57c-9.4-13.2-13.8-23.9-17.8-43.5
			l-2.7-13.5L303.3,76.2L303.3,76.2z"/>
		
			<linearGradient id="region-1-3_00000181060442492268754440000013444367911288393119_" gradientUnits="userSpaceOnUse" x1="-1103.8217" y1="-1.3463" x2="-1102.3816" y2="-0.6963" gradientTransform="matrix(166.39 0 0 -280.27 183947.875 -45.7738)">
			<stop  offset="0" style="stop-color:#CEE248"/>
			<stop  offset="1" style="stop-color:#556900"/>
		</linearGradient>
		<path id="region-1-3" style="fill:url(#region-1-3_00000181060442492268754440000013444367911288393119_);" d="M306.4,126.9
			c-3.2,6.4-3.4,7.2-3.3,16.8c0.1,10.8,1.5,20.5,4.5,32.9c1.1,4.3,1.8,8,1.6,8.2s-1.4-2.7-2.8-6.5c-1.3-3.9-2.5-6.8-2.7-6.6
			c-0.8,0.8,3.9,13.6,9.1,24.6c11.8,24.9,31.2,48.3,57.2,69.2c21.6,17.2,35.8,31.6,46.9,47.2c5.1,7.1,10.2,14.6,11.3,16.5
			c2.7,4.6,11.8,29.2,13.2,35.5c2.7,12.5,2.9,24.5,0.6,34.4c-1.1,4.4,2.1,0.5,9.3-11.3c9.1-15.1,12.9-24.1,15.8-37.4
			c2.6-12,3-18.7,1.5-23.6c-0.6-1.7-1.4-4.6-1.8-6.5c-0.8-3.3-0.9-3.2-3.2,5c-1.4,4.6-3.5,10.6-4.8,13.4c-1.3,2.7-2.1,4.1-1.8,3
			c4.4-13.8,5.5-18.1,6.5-24.7c0.9-6.4,0.9-8.5-0.5-13c-2.2-7.4-18.8-38.4-18.1-33.8c2.2,14.8,2.7,20.4,2.4,26.5
			c-0.3,7-0.3,6.9-3-9.1c-1.9-11.2-2.4-17.1-1.9-19.6c0.8-3.5,0.6-3.9-8.3-13.9c-8.4-9.5-22.3-22.9-23.6-22.9
			c-1.1,0,0.8,13.6,2.9,20.8c1.2,4.1,3.5,10,5.1,13.3c3.5,6.9,4,9.1,0.7,3.4c-4.3-7.6-11.5-26-13.3-34.3L404,226l-14.1-11.3
			c-7.8-6.3-14.5-11.1-14.8-10.8c-1.2,1.2-0.6,17,0.8,21.4c0.7,2.4,2.8,7.5,4.5,11.2c1.8,3.8,3.1,7,2.9,7.2s-2.7-3.9-5.5-9.1
			c-5.5-10.1-8.1-19.6-8.4-30.7c-0.2-5.5-0.4-5.9-4.3-8.9c-2.3-1.8-8.8-7.7-14.4-13.3l-10.4-10l0.4,15.4l0.3,15.3l-2.2-4.8
			c-3.3-7.3-4.8-18.6-3.3-25.1l1.1-5.3l-9.2-13.2c-6.9-9.9-10.2-15.8-13-23.2c-2.1-5.4-4-10-4.2-10.2S308.3,123.2,306.4,126.9
			L306.4,126.9z"/>
		
			<linearGradient id="region-1-4_00000024687592152626976550000005551316773679340978_" gradientUnits="userSpaceOnUse" x1="-1105.9341" y1="-0.695" x2="-1105.704" y2="-1.885" gradientTransform="matrix(286.66 0 0 -253.01 317182.1875 167.9803)">
			<stop  offset="0" style="stop-color:#D1373F"/>
			<stop  offset="1" style="stop-color:#A90000"/>
		</linearGradient>
		<path id="region-1-4" style="fill:url(#region-1-4_00000024687592152626976550000005551316773679340978_);" d="M126.4,360.6
			c-0.2,0.3-2.6,0.7-5.4,1.1c-11,1.3-28.6,8.2-40.1,15.7c-6.4,4.2-23.4,19.4-23.4,21c0,0.4-1.1,1.9-2.4,3.3
			c-6.4,6.9-14.3,27-16.7,42.5c-1.6,10.5-0.5,34.9,2.1,47.5c4.8,22.9,19,57.3,30.8,74.6c17.4,25.5,40.9,40,73.7,45.4
			c29.2,4.8,88.5-2.7,112.4-14.2c14.4-6.9,30.1-25.5,42.6-50.3c18.7-37.2,26.9-72.9,23.6-101.8c-3.2-27-13.3-49.7-28.9-64.4
			c-8.2-7.7-14.8-11.7-25.7-15.4c-11.4-3.9-27-3.9-53-0.1c-10.4,1.5-21,3-23.4,3.3l-4.3,0.6l0.7,4.6c0.4,2.6,1.5,7.3,2.6,10.4
			c1,3.2,1.9,6.1,1.9,6.6c0,0.4-2.2,1.6-5,2.6c-4.8,1.7-5.1,1.7-8.7-0.1c-4.3-2-5.2-4.3-7.4-17.6c-0.7-4.2-1.6-8.1-1.9-8.6
			C168.9,364.6,128.5,358.5,126.4,360.6z"/>
	</g>
	<g id="layer-2">
		
			<linearGradient id="region-2-1_00000051354810955622271950000015271558768807048634_" gradientUnits="userSpaceOnUse" x1="-1102.4385" y1="-0.4097" x2="-1101.1385" y2="-1.3397" gradientTransform="matrix(137.2 0 0 -343.48 151420.4531 -54.4293)">
			<stop  offset="0" style="stop-color:#517700;stop-opacity:0.36"/>
			<stop  offset="1" style="stop-color:#9B9B29;stop-opacity:0.94"/>
		</linearGradient>
		<path id="region-2-1" style="fill:url(#region-2-1_00000051354810955622271950000015271558768807048634_);" d="M298.2,58.8
			c-0.8,9.2-5.4,21.9-14.9,40.9c-7.7,15.4-15.5,27.8-28.6,45.4c-34.9,47-60.7,98.3-68.7,137.1c-3.5,16.6-3.8,49.1-0.9,91.7
			c0.3,5,0.3,10.1-0.1,11.3c-0.6,2-1.2,2.2-5.6,1.6c-3.3-0.5-4.9-0.3-4.9,0.4c0,2.5,2.4,5.3,5.7,6.6c3.2,1.4,4,1.3,8.5-0.3
			c4.1-1.5,4.9-2.1,4.4-3.8c-0.3-1.1-1.5-5.4-2.6-9.5c-1.8-6.6-2.1-10.6-2.3-34c-0.2-23.7,0-27.9,2.1-39.4
			c4.3-24.5,10.7-46.8,20.7-72.1c14.4-36.3,23.2-51.8,51.3-90c19-25.7,26.8-38.1,31.4-49.7c2.5-6.4,6.7-14.2,11.1-20.8
			c3.8-5.8,7-11.3,6.9-12.4c-0.1-2.6-3-5.5-8.3-8.2l-4.6-2.3L298.2,58.8L298.2,58.8z"/>
		
			<linearGradient id="region-2-2_00000088105206188420868570000011830738673234574495_" gradientUnits="userSpaceOnUse" x1="-1090.1442" y1="-3.5908" x2="-1088.6741" y2="-4.3309" gradientTransform="matrix(52.52 0 0 -101.56 57481.2031 -288.9437)">
			<stop  offset="0" style="stop-color:#B1C52C;stop-opacity:0.79"/>
			<stop  offset="1" style="stop-color:#DDF158;stop-opacity:0.81"/>
		</linearGradient>
		<path id="region-2-2" style="fill:url(#region-2-2_00000088105206188420868570000011830738673234574495_);" d="M281.6,58.8
			c-0.6,2.2-1.1,5.2-1.1,6.9c0,3.5-3.1,16.7-5.5,24c-3.1,8.9-9.2,20.1-15.9,29c-8.9,11.5-26.9,38.5-25.8,38.5
			c0.5,0,4.5-4.6,8.9-10.3c25.2-32.3,33.8-46.9,40.3-68.7c3.7-12.4,4.2-19.2,1.8-21.6C282.8,55,282.6,55.2,281.6,58.8L281.6,58.8z"
			/>
		
			<linearGradient id="region-2-3_00000044160424201786646400000009927149310459165884_" gradientUnits="userSpaceOnUse" x1="-1103.4531" y1="-0.6382" x2="-1103.4531" y2="-1.6382" gradientTransform="matrix(173.48 0 0 -274.38 191808.5469 -104.472)">
			<stop  offset="0" style="stop-color:#86951D;stop-opacity:0.8"/>
			<stop  offset="1" style="stop-color:#5C7300;stop-opacity:0.37"/>
		</linearGradient>
		<path id="region-2-3" style="fill:url(#region-2-3_00000044160424201786646400000009927149310459165884_);" d="M303.3,76.2
			c-4.1,6.3-5.7,9.8-6.2,13.5c-0.3,2.7-1.1,9-1.7,14c-1.2,9.4-0.7,25.7,1.2,39.2c1,7.7,4.4,21.2,5.9,24.2c0.5,0.9,2.1,5.3,3.6,9.8
			c1.5,4.6,2.9,8.1,3.1,7.9s-0.5-3.9-1.6-8.2c-3-12.4-4.4-22.1-4.5-32.9c-0.1-9.6,0.1-10.4,3.3-16.8c1.9-3.7,3.6-6.5,3.8-6.3
			s2.1,4.8,4.2,10.2c2.8,7.4,6.1,13.3,13,23.2l9.2,13.2l-1.1,5.3c-1.5,6.5,0,17.8,3.3,25.1l2.2,4.8l-0.3-15.3l-0.4-15.4l10.4,10
			c5.6,5.6,12.1,11.5,14.4,13.3c3.9,3,4.1,3.4,4.3,8.9c0.3,11.1,2.9,20.6,8.4,30.7c2.8,5.2,5.3,9.3,5.5,9.1s-1.1-3.4-2.9-7.2
			c-1.7-3.7-3.8-8.8-4.5-11.2c-1.4-4.4-2-20.2-0.8-21.4c0.3-0.3,7,4.5,14.8,10.8L404,226l1.9,8.4c1.8,8.3,9,26.7,13.3,34.3
			c3.3,5.7,2.8,3.5-0.7-3.4c-1.6-3.3-3.9-9.2-5.1-13.3c-2.1-7.2-4-20.8-2.9-20.8c1.3,0,15.2,13.4,23.6,22.9
			c8.9,10,9.1,10.4,8.3,13.9c-0.5,2.5,0,8.4,1.9,19.6c2.7,16,2.7,16.1,3,9.1c0.3-6.1-0.2-11.7-2.4-26.5
			c-0.7-4.6,15.9,26.4,18.1,33.8c1.4,4.5,1.4,6.6,0.5,13c-1,6.6-2.1,10.9-6.5,24.7c-0.3,1.1,0.5-0.3,1.8-3c1.3-2.8,3.4-8.7,4.7-13.2
			c1.3-4.6,2.5-8.1,2.7-7.9s0.8,2.3,1.3,4.7c0.8,3.8,0.9,3.3,0.5-3c-0.8-11.3-9-33.4-17.1-46.3c-3.9-6.1-4.1-6.7-2.3-7.1
			c1.1-0.3,3.4-0.1,5.2,0.4l3.1,0.9l-2.1-2.1c-1.2-1.3-3.9-2.3-6.6-2.6c-4.4-0.5-5-1-12.2-9.5c-4.1-4.9-12.1-12.8-17.8-17.5
			c-5.6-4.7-10.3-8.8-10.5-9.2c-0.4-1.1,10.6-3.2,14.5-2.7c2.1,0.3,2.9,0.3,1.8,0s-2.4-1-2.9-1.5c-1.6-1.5-11.9-1.1-14.3,0.6
			c-2,1.4-2.8,0.9-15.7-9.8l-13.6-11.2l2.7-2.4c2.3-2,3.4-2.3,8.2-1.8l5.6,0.5l-4-1.4c-2.4-0.9-7-1.4-11.6-1.3c-7,0.2-8,0-12.1-2.9
			c-2.5-1.7-8.2-7.1-12.8-11.9l-8.2-8.8l3.4-0.8c1.8-0.5,6.9-0.7,11.3-0.4c9.1,0.6,8.6,0.2-4.2-4.2c-10.5-3.5-12.5-3.7-14.3-1.6
			c-1.8,2.2-2.7,1.2-12.1-12.9c-7.7-11.4-13.7-24.2-15.2-32.2c-0.6-3.2,0.4-4.8,4.5-7.7c1.7-1.1,1.6-1.7-1.3-9.2
			c-1.7-4.4-4.4-14.1-5.9-21.5l-2.7-13.5L303.3,76.2L303.3,76.2z"/>
		
			<linearGradient id="region-2-4_00000011736738554604168070000016871249331502821560_" gradientUnits="userSpaceOnUse" x1="-1080.1602" y1="-16.3815" x2="-1079.7102" y2="-17.7216" gradientTransform="matrix(35.36 0 0 -25.73 38392.6914 -51.2009)">
			<stop  offset="0" style="stop-color:#6F090A;stop-opacity:0.68"/>
			<stop  offset="1" style="stop-color:#620000;stop-opacity:0.74"/>
		</linearGradient>
		<path id="region-2-4" style="fill:url(#region-2-4_00000011736738554604168070000016871249331502821560_);" d="M190.6,368.9
			c-2.1,0.4-2.3,0.8-1.6,5.1c0.4,2.6,1.5,7.3,2.6,10.4c2.4,7.3,2.4,7.5-0.7,8.2c-1.5,0.4-2.4,0.9-2.1,1.2c0.8,0.9,14.2-3.2,25.2-7.5
			l10-4l-7,0.6c-10.1,0.8-19.5-2.2-19.5-6.2c0-0.7,1.1-2.9,2.5-4.9l2.4-3.6l-4.7,0.1C195.1,368.4,191.9,368.7,190.6,368.9
			L190.6,368.9z"/>
		
			<linearGradient id="region-2-5_00000111188257435045808930000016866493568394903174_" gradientUnits="userSpaceOnUse" x1="-1098.912" y1="-15.1898" x2="-1098.262" y2="-17.3798" gradientTransform="matrix(98.51 0 0 -27.51 108432.2734 -45.9406)">
			<stop  offset="0" style="stop-color:#FF9493;stop-opacity:0.71"/>
			<stop  offset="1" style="stop-color:#FFB9B7;stop-opacity:0.85"/>
		</linearGradient>
		<path id="region-2-5" style="fill:url(#region-2-5_00000111188257435045808930000016866493568394903174_);" d="M138.3,378
			c15.2,18.1,29.9,25.3,47.2,23.1c8.4-1,23.6-5.9,31.8-10.1c6.5-3.5,17.4-11,16.7-11.6c-0.2-0.3-7.2,2.1-15.5,5.3
			c-37.7,14.2-45.1,13.8-70.9-3.4C134.3,372.4,133.3,372,138.3,378L138.3,378z"/>
		
			<linearGradient id="region-2-6_00000141413082147614669600000013736540874071923597_" gradientUnits="userSpaceOnUse" x1="-1085.3213" y1="-22.1942" x2="-1084.2712" y2="-22.7641" gradientTransform="matrix(42.33 0 0 -19.48 46078.2305 -55.3298)">
			<stop  offset="0" style="stop-color:#7F0000;stop-opacity:0.75"/>
			<stop  offset="1" style="stop-color:#6C0001;stop-opacity:0.83"/>
		</linearGradient>
		<path id="region-2-6" style="fill:url(#region-2-6_00000141413082147614669600000013736540874071923597_);" d="M140,375.9
			c2,2,16.2,11.1,21.3,13.7c5.6,2.9,15.1,5.6,19.2,5.6c1.6-0.1,1.4-0.6-0.7-1.5c-3.8-1.6-5.1-3.8-6.1-10.7c-0.9-6-1-6.1-10.2-3.4
			c-6,1.7-14,2.1-15.5,0.8C146.5,379,138.9,374.8,140,375.9z"/>
		
			<linearGradient id="region-2-7_00000137097224731944527810000007126317941227381661_" gradientUnits="userSpaceOnUse" x1="-1093.5356" y1="-5.8682" x2="-1092.3157" y2="-6.2982" gradientTransform="matrix(63.29 0 0 -67.94 69280.9609 25.0413)">
			<stop  offset="0" style="stop-color:#E84449;stop-opacity:0.81"/>
			<stop  offset="1" style="stop-color:#FF666B;stop-opacity:0.8"/>
		</linearGradient>
		<path id="region-2-7" style="fill:url(#region-2-7_00000137097224731944527810000007126317941227381661_);" d="M99.8,407.7
			c-8.6,4.3-14.4,10.4-18.6,19.3c-2.6,5.8-3,7.9-3.1,15.7c-0.1,7.9,0.2,9.7,2.7,14.7c6.1,12.4,20.5,17.9,33.6,12.9
			c11.6-4.4,21.2-15.2,25.6-28.9c2.3-6.8,1.6-17-1.3-22.8c-4.5-8.9-14.7-14.4-26.5-14.4C108,404.2,105.2,405,99.8,407.7L99.8,407.7z
			"/>
		
			<linearGradient id="region-2-8_00000081617124410746778430000000428870425901261696_" gradientUnits="userSpaceOnUse" x1="-1032.082" y1="-29.0388" x2="-1032.082" y2="-30.0391" gradientTransform="matrix(13.56 0 0 -14.95 14166.3301 -2.6302)">
			<stop  offset="0" style="stop-color:#F96367;stop-opacity:0.79"/>
			<stop  offset="1" style="stop-color:#F9676B;stop-opacity:0.8"/>
		</linearGradient>
		<path id="region-2-8" style="fill:url(#region-2-8_00000081617124410746778430000000428870425901261696_);" d="M169,436.4
			c-3.1,1.8-4.4,4-4.5,7.4c0,7.3,9.1,8.9,12.6,2.3c1.8-3.5,1-7.4-1.9-9.4C172.7,434.9,171.7,434.9,169,436.4L169,436.4z"/>
	</g>
	<g id="layer-3">
		
			<linearGradient id="region-3-1_00000070097565286515373010000008844101761722324390_" gradientUnits="userSpaceOnUse" x1="-1085.6144" y1="-14.3047" x2="-1085.4644" y2="-15.5147" gradientTransform="matrix(43.75 0 0 -29.25 47600.1992 1.5098)">
			<stop  offset="0" style="stop-color:#FFFFFF;stop-opacity:0.85"/>
			<stop  offset="1" style="stop-color:#FFFFFF;stop-opacity:0.9"/>
		</linearGradient>
		<path id="region-3-1" style="fill:url(#region-3-1_00000070097565286515373010000008844101761722324390_);" d="M96,424.6
			c-1.7,0.7-4.5,3-6.3,5c-3.9,4.5-4.5,10.9-1.2,14.4c6.3,6.7,24.4,10.6,33.5,7.2c17.7-6.7,4-28.1-17.9-28
			C101.3,423.3,97.6,423.9,96,424.6z"/>
	</g>
</g>
<g>
	<line class="st16" x1="368.6" y1="426.7" x2="489.9" y2="426.7"/>
	<path d="M508,426.7c-8.5,3.2-19.1,8.5-25.6,14.3l5.2-14.3l-5.2-14.3C488.9,418.2,499.5,423.6,508,426.7z"/>
</g>
<linearGradient id="region-1-1_00000166640440556128827490000002432649358369714334_" gradientUnits="userSpaceOnUse" x1="-1099.3015" y1="-0.4827" x2="-1097.7115" y2="-1.2927" gradientTransform="matrix(141.23 0 0 -346.25 155886.2812 -52.9375)">
	<stop  offset="0" style="stop-color:#C8CF5D"/>
	<stop  offset="1" style="stop-color:#8D9F00"/>
</linearGradient>
<path id="region-1-1_00000173876853575847491290000008753327387090705835_" style="fill:url(#region-1-1_00000166640440556128827490000002432649358369714334_);" d="
	M758.1,50.1L754,52l-0.7,10.3c-0.3,5.7-1.2,12.4-2,14.9c-3.6,12-14.2,31-33.6,60c-14,21-20.1,31.3-28,47
	c-18,35.9-28.3,68.1-36.6,114c-6.9,38-7.2,68-1,89.5c0.8,3.1,1.9,4.4,4.9,5.8c3.6,1.8,3.9,1.8,8.8,0.1c4.2-1.6,5-2.2,4.5-3.9
	c-0.3-1.1-1.5-5.4-2.6-9.5c-1.8-6.6-2.1-10.6-2.3-34c-0.2-23.7,0-27.9,2.1-39.4c4.3-24.5,10.7-46.8,20.7-72.1
	c14.4-36.3,23.2-51.8,51.3-90c19-25.7,26.8-38.1,31.4-49.7c2.5-6.4,6.7-14.2,11.1-20.8c3.8-5.8,7-11.3,6.9-12.4
	c-0.2-2.9-3.1-5.5-10.3-9.2C770,48.3,763.6,47.5,758.1,50.1L758.1,50.1z"/>
<linearGradient id="region-1-2_00000156550575199279956190000005701519559745043075_" gradientUnits="userSpaceOnUse" x1="-1101.0804" y1="-0.3487" x2="-1101.0804" y2="-1.3487" gradientTransform="matrix(181.15 0 0 -332.47 200323.2031 -50.7039)">
	<stop  offset="0" style="stop-color:#536100"/>
	<stop  offset="1" style="stop-color:#79841C"/>
</linearGradient>
<path id="region-1-2_00000033357070447889155630000004985411949519988353_" style="fill:url(#region-1-2_00000156550575199279956190000005701519559745043075_);" d="
	M780.5,76.2c-4.1,6.3-5.7,9.8-6.2,13.5c-0.3,2.7-1.1,9-1.7,14c-1.2,9.4-0.7,25.7,1.2,39.2c1,7.7,4.4,21.2,5.9,24.2
	c0.5,0.9,2.1,5.3,3.6,9.8c1.5,4.6,2.9,8.1,3.1,7.9s-0.5-3.9-1.6-8.2c-3-12.4-4.4-22.1-4.5-32.9c-0.1-9.6,0.1-10.4,3.3-16.8
	c1.9-3.7,3.6-6.5,3.8-6.3c0.2,0.2,2.1,4.8,4.2,10.2c2.8,7.4,6.1,13.3,13,23.2l9.2,13.2l-1.1,5.3c-1.5,6.5,0,17.8,3.3,25.1l2.2,4.8
	l-0.3-15.3l-0.4-15.4l10.4,10c5.6,5.6,12.1,11.5,14.4,13.3c3.9,3,4.1,3.4,4.3,8.9c0.3,11.1,2.9,20.6,8.4,30.7
	c2.8,5.2,5.3,9.3,5.5,9.1s-1.1-3.4-2.9-7.2c-1.7-3.7-3.8-8.8-4.5-11.2c-1.4-4.4-2-20.2-0.8-21.4c0.3-0.3,7,4.5,14.8,10.8l14.1,11.3
	l1.9,8.4c1.8,8.3,9,26.7,13.3,34.3c3.3,5.7,2.8,3.5-0.7-3.4c-1.6-3.3-3.9-9.2-5.1-13.3c-2.1-7.2-4-20.8-2.9-20.8
	c1.3,0,15.2,13.4,23.6,22.9c8.9,10,9.1,10.4,8.3,13.9c-0.5,2.5,0,8.4,1.9,19.6c2.7,16,2.7,16.1,3,9.1c0.3-6.1-0.2-11.7-2.4-26.5
	c-0.7-4.6,15.9,26.4,18.1,33.8c1.4,4.5,1.4,6.6,0.5,13c-1,6.6-2.1,10.9-6.5,24.7c-0.3,1.1,0.5-0.3,1.8-3c1.3-2.8,3.4-8.8,4.8-13.4
	c2.3-8.2,2.4-8.3,3.2-5c0.4,1.9,1.2,4.8,1.8,6.5c2.3,7.6-1,27.5-6.9,41.4c-3.3,7.8-14.1,26.6-18,31.5c-0.9,1.1,0.2,0.2,2.5-1.9
	c2.3-2.2,4-4.3,3.8-4.7c-0.3-0.4,0.1-0.9,0.8-1.2c2.7-1,13.6-17.8,17-26.3c6.8-16.7,8-23.4,8.1-46.4c0-23.2-0.8-28.5-7.5-47.7
	c-5-14.2-14.4-30.8-24.6-43.5c-6.9-8.6-12.8-13.8-52.3-46.3c-45.3-37.3-53.4-44.6-62.2-57c-9.4-13.2-13.8-23.9-17.8-43.5L786,67.7
	L780.5,76.2L780.5,76.2z"/>
<linearGradient id="region-1-3_00000175295187081941060670000006994698807568644242_" gradientUnits="userSpaceOnUse" x1="-1100.954" y1="-1.3463" x2="-1099.5139" y2="-0.6963" gradientTransform="matrix(166.39 0 0 -280.27 183947.875 -45.7738)">
	<stop  offset="0" style="stop-color:#CEE248"/>
	<stop  offset="1" style="stop-color:#556900"/>
</linearGradient>
<path id="region-1-3_00000019669212055363374720000000046776716595906951_" style="fill:url(#region-1-3_00000175295187081941060670000006994698807568644242_);" d="
	M783.6,126.9c-3.2,6.4-3.4,7.2-3.3,16.8c0.1,10.8,1.5,20.5,4.5,32.9c1.1,4.3,1.8,8,1.6,8.2c-0.2,0.2-1.4-2.7-2.8-6.5
	c-1.3-3.9-2.5-6.8-2.7-6.6c-0.8,0.8,3.9,13.6,9.1,24.6c11.8,24.9,31.2,48.3,57.2,69.2c21.6,17.2,35.8,31.6,46.9,47.2
	c5.1,7.1,10.2,14.6,11.3,16.5c2.7,4.6,11.8,29.2,13.2,35.5c2.7,12.5,2.9,24.5,0.6,34.4c-1.1,4.4,2.1,0.5,9.3-11.3
	c9.1-15.1,12.9-24.1,15.8-37.4c2.6-12,3-18.7,1.5-23.6c-0.6-1.7-1.4-4.6-1.8-6.5c-0.8-3.3-0.9-3.2-3.2,5c-1.4,4.6-3.5,10.6-4.8,13.4
	c-1.3,2.7-2.1,4.1-1.8,3c4.4-13.8,5.5-18.1,6.5-24.7c0.9-6.4,0.9-8.5-0.5-13c-2.2-7.4-18.8-38.4-18.1-33.8
	c2.2,14.8,2.7,20.4,2.4,26.5c-0.3,7-0.3,6.9-3-9.1c-1.9-11.2-2.4-17.1-1.9-19.6c0.8-3.5,0.6-3.9-8.3-13.9
	c-8.4-9.5-22.3-22.9-23.6-22.9c-1.1,0,0.8,13.6,2.9,20.8c1.2,4.1,3.5,10,5.1,13.3c3.5,6.9,4,9.1,0.7,3.4c-4.3-7.6-11.5-26-13.3-34.3
	l-1.9-8.4l-14.1-11.3c-7.8-6.3-14.5-11.1-14.8-10.8c-1.2,1.2-0.6,17,0.8,21.4c0.7,2.4,2.8,7.5,4.5,11.2c1.8,3.8,3.1,7,2.9,7.2
	s-2.7-3.9-5.5-9.1c-5.5-10.1-8.1-19.6-8.4-30.7c-0.2-5.5-0.4-5.9-4.3-8.9c-2.3-1.8-8.8-7.7-14.4-13.3l-10.4-10l0.4,15.4l0.3,15.3
	l-2.2-4.8c-3.3-7.3-4.8-18.6-3.3-25.1l1.1-5.3l-9.2-13.2c-6.9-9.9-10.2-15.8-13-23.2c-2.1-5.4-4-10-4.2-10.2
	S785.5,123.2,783.6,126.9L783.6,126.9z"/>
<linearGradient id="region-1-4_00000087375187778502206040000001162985238854511784_" gradientUnits="userSpaceOnUse" x1="-1104.2695" y1="-0.695" x2="-1104.0396" y2="-1.885" gradientTransform="matrix(286.66 0 0 -253.01 317182.1875 167.9803)">
	<stop  offset="0" style="stop-color:#D1373F"/>
	<stop  offset="1" style="stop-color:#A90000"/>
</linearGradient>
<path id="region-1-4_00000054232486614263716220000007411352082308187068_" style="fill:url(#region-1-4_00000087375187778502206040000001162985238854511784_);" d="
	M603.6,360.6c-0.2,0.3-2.6,0.7-5.4,1.1c-11,1.3-28.6,8.2-40.1,15.7c-6.4,4.2-23.4,19.4-23.4,21c0,0.4-1.1,1.9-2.4,3.3
	c-6.4,6.9-14.3,27-16.7,42.5c-1.6,10.5-0.5,34.9,2.1,47.5c4.8,22.9,19,57.3,30.8,74.6c17.4,25.5,40.9,40,73.7,45.4
	c29.2,4.8,88.5-2.7,112.4-14.2c14.4-6.9,30.1-25.5,42.6-50.3c18.7-37.2,26.9-72.9,23.6-101.8c-3.2-27-13.3-49.7-28.9-64.4
	c-8.2-7.7-14.8-11.7-25.7-15.4c-11.4-3.9-27-3.9-53-0.1c-10.4,1.5-21,3-23.4,3.3l-4.3,0.6l0.7,4.6c0.4,2.6,1.5,7.3,2.6,10.4
	c1,3.2,1.9,6.1,1.9,6.6c0,0.4-2.2,1.6-5,2.6c-4.8,1.7-5.1,1.7-8.7-0.1c-4.3-2-5.2-4.3-7.4-17.6c-0.7-4.2-1.6-8.1-1.9-8.6
	C646.1,364.6,605.7,358.5,603.6,360.6z"/>
<g id="layer-2_00000023959426188088198970000009314674599108452514_">
	
		<linearGradient id="region-2-1_00000092446190434639256500000015758407258954184106_" gradientUnits="userSpaceOnUse" x1="-1095.6962" y1="-0.5702" x2="-1094.3961" y2="-1.5002" gradientTransform="matrix(137.2 0 0 -343.48 151420.4531 -54.4293)">
		<stop  offset="0" style="stop-color:#517700;stop-opacity:0.36"/>
		<stop  offset="1" style="stop-color:#9B9B29;stop-opacity:0.94"/>
	</linearGradient>
	
		<path id="region-2-1_00000034086161954162424650000000246465668886782386_" style="fill:url(#region-2-1_00000092446190434639256500000015758407258954184106_);stroke:#000000;stroke-miterlimit:10;" d="
		M1223.3,113.9c-0.8,9.2-5.4,21.9-14.9,40.9c-7.7,15.4-15.5,27.8-28.6,45.4c-34.9,47-60.7,98.3-68.7,137.1
		c-3.5,16.6-3.8,49.1-0.9,91.7c0.3,5,0.3,10.1-0.1,11.3c-0.6,2-1.2,2.2-5.6,1.6c-3.3-0.5-4.9-0.3-4.9,0.4c0,2.5,2.4,5.3,5.7,6.6
		c3.2,1.4,4,1.3,8.5-0.3c4.1-1.5,4.9-2.1,4.4-3.8c-0.3-1.1-1.5-5.4-2.6-9.5c-1.8-6.6-2.1-10.6-2.3-34c-0.2-23.7,0-27.9,2.1-39.4
		c4.3-24.5,10.7-46.8,20.7-72.1c14.4-36.3,23.2-51.8,51.3-90c19-25.7,26.8-38.1,31.4-49.7c2.5-6.4,6.7-14.2,11.1-20.8
		c3.8-5.8,7-11.3,6.9-12.4c-0.1-2.6-3-5.5-8.3-8.2l-4.6-2.3L1223.3,113.9L1223.3,113.9z"/>
	
		<linearGradient id="region-2-2_00000088104728283812900310000002682950236651909271_" gradientUnits="userSpaceOnUse" x1="-1072.5306" y1="-4.1336" x2="-1071.0607" y2="-4.8736" gradientTransform="matrix(52.52 0 0 -101.56 57481.2031 -288.9437)">
		<stop  offset="0" style="stop-color:#B1C52C;stop-opacity:0.79"/>
		<stop  offset="1" style="stop-color:#DDF158;stop-opacity:0.81"/>
	</linearGradient>
	
		<path id="region-2-2_00000079445438674829886200000012981230372527549079_" style="fill:url(#region-2-2_00000088104728283812900310000002682950236651909271_);stroke:#000000;stroke-miterlimit:10;" d="
		M1206.7,113.9c-0.6,2.2-1.1,5.2-1.1,6.9c0,3.5-3.1,16.7-5.5,24c-3.1,8.9-9.2,20.1-15.9,29c-8.9,11.5-26.9,38.5-25.8,38.5
		c0.5,0,4.5-4.6,8.9-10.3c25.2-32.3,33.8-46.9,40.3-68.7c3.7-12.4,4.2-19.2,1.8-21.6C1207.9,110.1,1207.7,110.3,1206.7,113.9
		L1206.7,113.9z"/>
	
		<linearGradient id="region-2-3_00000158740275076712977280000016219415887905137054_" gradientUnits="userSpaceOnUse" x1="-1098.1207" y1="-0.8391" x2="-1098.1207" y2="-1.8391" gradientTransform="matrix(173.48 0 0 -274.38 191808.5469 -104.472)">
		<stop  offset="0" style="stop-color:#86951D;stop-opacity:0.8"/>
		<stop  offset="1" style="stop-color:#5C7300;stop-opacity:0.37"/>
	</linearGradient>
	
		<path id="region-2-3_00000088825133516180389230000017493433797856536199_" style="fill:url(#region-2-3_00000158740275076712977280000016219415887905137054_);stroke:#000000;stroke-miterlimit:10;" d="
		M1228.4,131.3c-4.1,6.3-5.7,9.8-6.2,13.5c-0.3,2.7-1.1,9-1.7,14c-1.2,9.4-0.7,25.7,1.2,39.2c1,7.7,4.4,21.2,5.9,24.2
		c0.5,0.9,2.1,5.3,3.6,9.8c1.5,4.6,2.9,8.1,3.1,7.9c0.2-0.2-0.5-3.9-1.6-8.2c-3-12.4-4.4-22.1-4.5-32.9c-0.1-9.6,0.1-10.4,3.3-16.8
		c1.9-3.7,3.6-6.5,3.8-6.3s2.1,4.8,4.2,10.2c2.8,7.4,6.1,13.3,13,23.2l9.2,13.2l-1.1,5.3c-1.5,6.5,0,17.8,3.3,25.1l2.2,4.8
		l-0.3-15.3l-0.4-15.4l10.4,10c5.6,5.6,12.1,11.5,14.4,13.3c3.9,3,4.1,3.4,4.3,8.9c0.3,11.1,2.9,20.6,8.4,30.7
		c2.8,5.2,5.3,9.3,5.5,9.1c0.2-0.2-1.1-3.4-2.9-7.2c-1.7-3.7-3.8-8.8-4.5-11.2c-1.4-4.4-2-20.2-0.8-21.4c0.3-0.3,7,4.5,14.8,10.8
		l14.1,11.3l1.9,8.4c1.8,8.3,9,26.7,13.3,34.3c3.3,5.7,2.8,3.5-0.7-3.4c-1.6-3.3-3.9-9.2-5.1-13.3c-2.1-7.2-4-20.8-2.9-20.8
		c1.3,0,15.2,13.4,23.6,22.9c8.9,10,9.1,10.4,8.3,13.9c-0.5,2.5,0,8.4,1.9,19.6c2.7,16,2.7,16.1,3,9.1c0.3-6.1-0.2-11.7-2.4-26.5
		c-0.7-4.6,15.9,26.4,18.1,33.8c1.4,4.5,1.4,6.6,0.5,13c-1,6.6-2.1,10.9-6.5,24.7c-0.3,1.1,0.5-0.3,1.8-3c1.3-2.8,3.4-8.7,4.7-13.2
		c1.3-4.6,2.5-8.1,2.7-7.9c0.2,0.2,0.8,2.3,1.3,4.7c0.8,3.8,0.9,3.3,0.5-3c-0.8-11.3-9-33.4-17.1-46.3c-3.9-6.1-4.1-6.7-2.3-7.1
		c1.1-0.3,3.4-0.1,5.2,0.4l3.1,0.9l-2.1-2.1c-1.2-1.3-3.9-2.3-6.6-2.6c-4.4-0.5-5-1-12.2-9.5c-4.1-4.9-12.1-12.8-17.8-17.5
		c-5.6-4.7-10.3-8.8-10.5-9.2c-0.4-1.1,10.6-3.2,14.5-2.7c2.1,0.3,2.9,0.3,1.8,0c-1.1-0.3-2.4-1-2.9-1.5c-1.6-1.5-11.9-1.1-14.3,0.6
		c-2,1.4-2.8,0.9-15.7-9.8l-13.6-11.2l2.7-2.4c2.3-2,3.4-2.3,8.2-1.8l5.6,0.5l-4-1.4c-2.4-0.9-7-1.4-11.6-1.3c-7,0.2-8,0-12.1-2.9
		c-2.5-1.7-8.2-7.1-12.8-11.9l-8.2-8.8l3.4-0.8c1.8-0.5,6.9-0.7,11.3-0.4c9.1,0.6,8.6,0.2-4.2-4.2c-10.5-3.5-12.5-3.7-14.3-1.6
		c-1.8,2.2-2.7,1.2-12.1-12.9c-7.7-11.4-13.7-24.2-15.2-32.2c-0.6-3.2,0.4-4.8,4.5-7.7c1.7-1.1,1.6-1.7-1.3-9.2
		c-1.7-4.4-4.4-14.1-5.9-21.5l-2.7-13.5L1228.4,131.3L1228.4,131.3z"/>
	
		<linearGradient id="region-2-4_00000166637618355661168910000000428533246343312775_" gradientUnits="userSpaceOnUse" x1="-1053.999" y1="-18.5239" x2="-1053.5491" y2="-19.8639" gradientTransform="matrix(35.36 0 0 -25.73 38392.6914 -51.2009)">
		<stop  offset="0" style="stop-color:#6F090A;stop-opacity:0.68"/>
		<stop  offset="1" style="stop-color:#620000;stop-opacity:0.74"/>
	</linearGradient>
	
		<path id="region-2-4_00000009557988135679459230000001685324454176195500_" style="fill:url(#region-2-4_00000166637618355661168910000000428533246343312775_);stroke:#000000;stroke-miterlimit:10;" d="
		M1115.7,424c-2.1,0.4-2.3,0.8-1.6,5.1c0.4,2.6,1.5,7.3,2.6,10.4c2.4,7.3,2.4,7.5-0.7,8.2c-1.5,0.4-2.4,0.9-2.1,1.2
		c0.8,0.9,14.2-3.2,25.2-7.5l10-4l-7,0.6c-10.1,0.8-19.5-2.2-19.5-6.2c0-0.7,1.1-2.9,2.5-4.9l2.4-3.6l-4.7,0.1
		C1120.2,423.5,1117,423.8,1115.7,424L1115.7,424z"/>
	
		<linearGradient id="region-2-5_00000033334523885241763370000015006437295508012946_" gradientUnits="userSpaceOnUse" x1="-1089.5215" y1="-17.1935" x2="-1088.8715" y2="-19.3835" gradientTransform="matrix(98.51 0 0 -27.51 108432.2734 -45.9406)">
		<stop  offset="0" style="stop-color:#FF9493;stop-opacity:0.71"/>
		<stop  offset="1" style="stop-color:#FFB9B7;stop-opacity:0.85"/>
	</linearGradient>
	
		<path id="region-2-5_00000108281104813875135240000004412888452666226823_" style="fill:url(#region-2-5_00000033334523885241763370000015006437295508012946_);stroke:#000000;stroke-miterlimit:10;" d="
		M1063.4,433.1c15.2,18.1,29.9,25.3,47.2,23.1c8.4-1,23.6-5.9,31.8-10.1c6.5-3.5,17.4-11,16.7-11.6c-0.2-0.3-7.2,2.1-15.5,5.3
		c-37.7,14.2-45.1,13.8-70.9-3.4C1059.4,427.5,1058.4,427.1,1063.4,433.1L1063.4,433.1z"/>
	
		<linearGradient id="region-2-6_00000032616692189552434700000018104013329245775762_" gradientUnits="userSpaceOnUse" x1="-1063.4678" y1="-25.0238" x2="-1062.4178" y2="-25.5938" gradientTransform="matrix(42.33 0 0 -19.48 46078.2305 -55.3298)">
		<stop  offset="0" style="stop-color:#7F0000;stop-opacity:0.75"/>
		<stop  offset="1" style="stop-color:#6C0001;stop-opacity:0.83"/>
	</linearGradient>
	
		<path id="region-2-6_00000109727074242808660770000009501012684537184440_" style="fill:url(#region-2-6_00000032616692189552434700000018104013329245775762_);stroke:#000000;stroke-miterlimit:10;" d="
		M1065.1,431c2,2,16.2,11.1,21.3,13.7c5.6,2.9,15.1,5.6,19.2,5.6c1.6-0.1,1.4-0.6-0.7-1.5c-3.8-1.6-5.1-3.8-6.1-10.7
		c-0.9-6-1-6.1-10.2-3.4c-6,1.7-14,2.1-15.5,0.8C1071.6,434.1,1064,429.9,1065.1,431z"/>
	
		<linearGradient id="region-2-7_00000152957228585550773520000014189977054333922448_" gradientUnits="userSpaceOnUse" x1="-1078.9194" y1="-6.6795" x2="-1077.6995" y2="-7.1095" gradientTransform="matrix(63.29 0 0 -67.94 69280.9609 25.0413)">
		<stop  offset="0" style="stop-color:#E84449;stop-opacity:0.81"/>
		<stop  offset="1" style="stop-color:#FF666B;stop-opacity:0.8"/>
	</linearGradient>
	
		<path id="region-2-7_00000155147390686883208170000014529622318220988855_" style="fill:url(#region-2-7_00000152957228585550773520000014189977054333922448_);stroke:#000000;stroke-miterlimit:10;" d="
		M1024.9,462.8c-8.6,4.3-14.4,10.4-18.6,19.3c-2.6,5.8-3,7.9-3.1,15.7c-0.1,7.9,0.2,9.7,2.7,14.7c6.1,12.4,20.5,17.9,33.6,12.9
		c11.6-4.4,21.2-15.2,25.6-28.9c2.3-6.8,1.6-17-1.3-22.8c-4.5-8.9-14.7-14.4-26.5-14.4C1033.1,459.3,1030.3,460.1,1024.9,462.8
		L1024.9,462.8z"/>
	
		<linearGradient id="region-2-8_00000000940655108658027280000001933641147109025175_" gradientUnits="userSpaceOnUse" x1="-963.8624" y1="-32.7259" x2="-963.8624" y2="-33.7262" gradientTransform="matrix(13.56 0 0 -14.95 14166.3301 -2.6302)">
		<stop  offset="0" style="stop-color:#F96367;stop-opacity:0.79"/>
		<stop  offset="1" style="stop-color:#F9676B;stop-opacity:0.8"/>
	</linearGradient>
	
		<path id="region-2-8_00000103227748779330393630000004587904732853927333_" style="fill:url(#region-2-8_00000000940655108658027280000001933641147109025175_);stroke:#000000;stroke-miterlimit:10;" d="
		M1094.1,491.5c-3.1,1.8-4.4,4-4.5,7.4c0,7.3,9.1,8.9,12.6,2.3c1.8-3.5,1-7.4-1.9-9.4C1097.8,490,1096.8,490,1094.1,491.5
		L1094.1,491.5z"/>
</g>
<g id="layer-3_00000033335212711850206680000003874494469469223813_">
	
		<linearGradient id="region-3-1_00000089533189134608452040000005261398299996332692_" gradientUnits="userSpaceOnUse" x1="-1054.0061" y1="-12.8039" x2="-1053.8561" y2="-14.0139" gradientTransform="matrix(43.75 0 0 -29.25 47600.1992 1.5098)">
		<stop  offset="0" style="stop-color:#FFFFFF;stop-opacity:0.85"/>
		<stop  offset="1" style="stop-color:#FFFFFF;stop-opacity:0.9"/>
	</linearGradient>
	
		<path id="region-3-1_00000101096969768024019940000009918225194606564777_" style="fill:url(#region-3-1_00000089533189134608452040000005261398299996332692_);stroke:#000000;stroke-miterlimit:10;" d="
		M1478.9,380.7c-1.7,0.7-4.5,3-6.3,5c-3.9,4.5-4.5,10.9-1.2,14.4c6.3,6.7,24.4,10.6,33.5,7.2c17.7-6.7,4-28.1-17.9-28
		C1484.2,379.4,1480.5,380,1478.9,380.7z"/>
</g>
</svg>
