<?xml version="1.0" encoding="utf-8"?>
<!-- Generator: Adobe Illustrator 26.5.0, SVG Export Plug-In . SVG Version: 6.00 Build 0)  -->
<svg version="1.1" id="图层_1" xmlns="http://www.w3.org/2000/svg" xmlns:xlink="http://www.w3.org/1999/xlink" x="0px" y="0px"
	 viewBox="0 0 2400 520" style="enable-background:new 0 0 2400 520;" xml:space="preserve">
<style type="text/css">
	.st0{fill:none;}
	.st1{fill:#D3D3D3;}
	.st2{fill:url(#SVGID_1_);}
	.st3{fill:url(#bc1559d0-0185-425d-ae87-b48bf67afad0_00000166648657515991188870000002010568606511594381_);}
	.st4{fill:url(#b9acd7f0-92e9-4a30-8074-8485a3c92084_00000026135694591683535760000005679598316076772283_);}
	.st5{fill:url(#a2fa6891-f517-4d29-8d3f-0a565e87eb6e_00000000923609073486055990000016561537055432272771_);}
	.st6{fill:url(#ec6b7a18-6453-4bbb-9971-4043983d5620_00000125602384281612831550000011677056644453171894_);}
	.st7{fill:url(#e9737e71-72a0-44cf-85d5-81fd9181394d_00000054968866968777236180000002609526068020483232_);}
	.st8{fill:url(#a53a8b0b-6804-4a61-bf55-eed108537165_00000024691946405350931300000007225623292704475571_);}
	.st9{fill:url(#f98c0589-14c0-40f5-8b09-afb5a6743658_00000053509895583941033530000015778437292625882040_);}
	.st10{fill:url(#fad355a2-ec38-48be-a492-e7cdc6da7d0a_00000107565918863814780540000012857294570771102610_);}
	.st11{fill:url(#a47f2284-ecfa-44e3-ab7d-b2eb20ceeacf_00000176737720960120233850000016741635048619111857_);}
	.st12{fill:url(#a30c0e3b-776e-4ce7-9849-ea52b6db3e44_00000088835534677833067440000000138692653943552171_);}
	.st13{fill:url(#ec0686b8-50d1-4aff-834a-acb8272dc734_00000055675748929444840880000014549661069852713120_);}
	.st14{fill:url(#ac1ad38b-b384-4259-a44d-5639575f65ce_00000128475260504495508310000008892840808946643335_);}
	.st15{fill:url(#ab1dc3a6-a23b-452b-9578-8978c3be0ce3_00000112595648604259956380000004752485705963987104_);}
	.st16{fill:url(#b68d23b3-de20-47b9-8d4a-da28dd15ffe5_00000004507898655273058720000007677332549583794609_);}
	.st17{fill:url(#bed9c75b-ef9e-4af1-bda9-e28d3203d044_00000164485999031628851680000007419609860747404191_);}
	.st18{fill:url(#a1d29797-92cb-4c37-be5b-a85eaa643f6f_00000168820760665953640120000017283851805339411386_);}
	.st19{fill:url(#b8efdeb2-1dc0-4231-92c4-e6c8841075af_00000119096677142055084610000002633520521419949731_);}
	.st20{fill:url(#b1f6b426-197b-40b5-b3ed-b15f0f3cebc6_00000044891615307719928570000003520066943155082368_);}
	.st21{fill:url(#ee907bc2-9560-4fdb-be75-4a7b7586d11b_00000086672611439678219680000010638556604818786989_);}
	.st22{fill:url(#bf0a06a9-a77a-41f5-94ab-d82f86d70e18_00000065041289848278308930000005874580465188531368_);}
	.st23{fill:url(#a6507248-010c-4335-a2d3-44ae034fe732_00000103240654239976015720000016408805853156337807_);}
	.st24{fill:url(#f74187cc-b79a-40c6-a5d6-4b3d1d0c1126_00000154389990409410533440000013037876612261672858_);}
	.st25{fill:url(#bc3f94fd-3c89-4fc8-afb1-5f423a45d9d8_00000119115002745016696610000003631636554020808619_);}
	.st26{fill:url(#a6ca3df6-e703-407f-b3b0-56b855c90e46_00000033329581876324262380000003984957245382407296_);}
	
		.st27{fill:url(#e1fa1dcf-9c00-4ef0-9eb4-83e6a6116eca_00000048501730852038524570000004867535451776367019_);stroke:#000000;stroke-miterlimit:10;}
	.st28{fill:url(#a0b0bc53-1426-473c-ae4c-7dc78756b7ca_00000080176240467927329960000013531519399314137500_);}
	.st29{fill:url(#abaead51-3898-41f1-869d-12c449450f00_00000122711735208997546910000004599806096373102512_);}
	.st30{fill:url(#ad210fde-ae81-4263-9963-1924d82ae71a_00000074425333004891243210000017134582409658663101_);}
	
		.st31{fill:url(#b9edac4c-3615-4bfa-b991-557a0b8c0cf2_00000173135405560322492840000015051361295483564210_);stroke:#000000;stroke-miterlimit:10;}
	
		.st32{fill:url(#f8d26aaf-d5e4-44ca-acdd-1dfff9ec1bc3_00000014618639695113128570000013741802450748770235_);stroke:#000000;stroke-miterlimit:10;}
	.st33{fill:url(#f4aed0ab-f900-4b5a-9250-8b869c685406_00000083055588768126762390000002858151779654885025_);}
	
		.st34{fill:url(#a97df928-f055-4993-b4c4-9219b700a520_00000016786167471770066570000008822692664162551970_);stroke:#000000;stroke-miterlimit:10;}
	
		.st35{fill:url(#efd1f8b4-69d0-41fd-af36-783cfa7c7966_00000011715708757292843080000004940559561218017922_);stroke:#000000;stroke-miterlimit:10;}
	.st36{fill:url(#bc54e4f4-2ca3-4607-bfa9-bbf93b8ac73c_00000091017080944987703740000000888601428265560225_);}
	.st37{fill:none;stroke:#000000;stroke-width:4;stroke-miterlimit:10;}
</style>
<pattern  y="520" width="40" height="40" patternUnits="userSpaceOnUse" id="f862c228-58f5-4f0a-aeec-092dba2" viewBox="0 -40 40 40" style="overflow:visible;">
	<g>
		<rect y="-40" class="st0" width="40" height="40"/>
		<rect y="-40" class="st0" width="40" height="40"/>
		<rect y="-40" class="st1" width="20" height="20"/>
		<rect x="20" y="-20" class="st1" width="20" height="20"/>
	</g>
</pattern>
<g id="b78ecba1-5a8f-4a2c-bb82-97e630b1e891">
	<pattern  id="SVGID_1_" xlink:href="#f862c228-58f5-4f0a-aeec-092dba2" patternTransform="matrix(1 0 0 1 68 26)">
	</pattern>
	<rect x="599" class="st2" width="1801" height="520"/>
	<g id="a0903049-013e-40a2-970c-b1716adbdcc1">
		
			<linearGradient id="bc1559d0-0185-425d-ae87-b48bf67afad0_00000169526424063180563950000000195508611432926398_" gradientUnits="userSpaceOnUse" x1="-466.1652" y1="23.2989" x2="-467.1652" y2="23.329" gradientTransform="matrix(549.6 0 0 471.52 256763.2812 -10737.2021)">
			<stop  offset="0" style="stop-color:#7B5334"/>
			<stop  offset="1" style="stop-color:#3A1D14;stop-opacity:0.99"/>
		</linearGradient>
		
			<path id="bc1559d0-0185-425d-ae87-b48bf67afad0" style="fill:url(#bc1559d0-0185-425d-ae87-b48bf67afad0_00000169526424063180563950000000195508611432926398_);" d="
			M213.7,20.8c12.9,3.5,22.2,6.5,50.5,15.8c5.8,1.9,11.9,4,13.5,4.7c2.6,1,5.2,1.9,7.8,2.6c5.9,1.6,8.2,4.5,7.3,9.4
			c-1.2,6.6-1.1,6.6-34.1,2.6c-21.8-2.7-44.4-3.2-49.5-1.1c-10.9,4.4-28,26.2-28,35.8c0,5.2,4.1,12.1,12.9,21.8
			c1,1.1,5.1,5.8,9.1,10.5s7.6,8.7,8,9s3.5,3.7,6.9,7.7c5.2,6.1,6.2,7.8,6.2,11c0,4,1.3,5.9,8.1,11.7l7,6c2,1.7,6.7,5.8,10.5,9.2
			s13.2,11.4,20.9,17.8s15.4,12.9,17.1,14.4s4.7,3.9,6.5,5.4s10.3,8.4,18.9,15.3s16.6,13.5,18,14.6c12.1,9.4,22.5,17.3,27.5,21.1
			c1.2,0.9,2.4,1.8,3.5,2.8c1.3,1.1,2.6,2.1,4,3c1.9,1.3,4,2.9,4.6,3.5s2.8,2.4,4.9,4c5,4,11.5,9.3,14,11.4c1.1,0.9,3.6,2.8,5.5,4.1
			c2.8,2.1,5.5,4.3,8,6.6c2.5,2.3,6.5,5.8,9,7.9s5.4,4.4,6.5,5.4s6.5,5.4,12,10c11,9.2,19.6,16.6,23,19.6
			c4.4,3.9,13.6,11.8,16.3,13.9c3.7,2.9,16.3,13.5,18.3,15.5c0.9,0.9,3.8,3.4,6.4,5.6s5.5,4.7,6.4,5.6c1.6,1.7,6.1,5.4,14.1,11.9
			c2.4,1.9,5.4,4.4,6.6,5.5s5.3,4.7,9.1,7.9c12.1,10.6,26.4,25.5,27.9,29.2c0.9,2.1,1.2,4.5,0.8,6.7c-0.7,3.3-3.5,9.8-4.5,10.6
			c-0.8,0.9-1.4,1.9-1.9,3c-2.3,4.4-11.5,15.3-18.3,21.7c-10.3,9.7-17.6,10.7-26,3.5c-2.4-2-6.3-5.3-8.6-7.2s-5.3-4.4-6.5-5.5
			s-4.9-4.2-8.1-7s-9.5-8.1-13.8-12s-11.3-9.8-15.3-13.2c-7.8-6.5-11.6-10-24.6-22.3c-4.4-4.1-8.5-8-9.1-8.5s-3.9-3.5-7.1-6.5
			c-21.7-19.8-29.2-26.7-31.4-29c-1.4-1.4-6.9-6.4-12.1-11s-9.9-9-10.4-9.9c-2.7-3-5.5-5.9-8.5-8.5c-4.2-3.9-13.9-13.1-21.6-20.6
			c-17.4-16.8-20.4-19.7-30.1-28.4c-4.3-3.8-10.5-9.7-13.9-13c-6.5-6.3-30.2-28.8-43.9-41.5c-4.4-4.1-11.7-10.9-16.1-15.1
			c-9-8.5-20.5-19.2-27.9-25.9c-2.7-2.5-5.8-5.3-6.8-6.2c-1.2-1.2-3-1.6-4.7-1.1c-3.3,0.7-4.5,0.1-15.6-7.1
			c-11.4-7.4-22.6-13.1-30.6-15.6c-6.9-2.2-7-2.2-10.5-0.3s-8.2,7-11.6,12.8c-3.3,5.6-6.8,13.6-6.8,15.5c0,2.6-4.6,6-8,6
			c-2.8,0-3.5,0.9-6.1,7.9c-0.8,2.1-1.9,4-3.3,5.7c-1.1,1.2-4.8,5.3-8.1,9.1c-14.2,16.1-14.7,16.4-23.6,11.9
			c-13-6.6-36-25.9-46.4-38.9c-2.2-2.8-4.2-5.2-4.6-5.5c-1.5-1.3-2.9-5.2-2.9-8.2c0-2.8,1.8-5.3,12.5-17
			c12.7-13.9,15.6-15.9,20.4-14.3c1.8,0.6,2,0.2,2-4s0.5-5.3,7.2-13.3c8.7-10.4,7.2-8.7,18.4-20.8c5-5.4,11.9-13.2,15.4-17.4
			s7-8.2,7.9-9s4.1-4.4,7.1-8s5.7-6.7,6-7s1.6-1.8,2.9-3.5c2.4-3.1,11.5-13.6,14.2-16.4c0.8-0.9,4-4.5,7-8
			c7.9-9.2,19.6-17.2,34.5-23.3C181,17.5,197.8,16.5,213.7,20.8"/>
		
			<linearGradient id="b9acd7f0-92e9-4a30-8074-8485a3c92084_00000160149365749273196690000000400602610522330005_" gradientUnits="userSpaceOnUse" x1="-463.7017" y1="28.8639" x2="-463.7017" y2="27.8632" gradientTransform="matrix(121.06 0 0 65.08 56388.7383 -1769.603)">
			<stop  offset="0" style="stop-color:#B9B0AC"/>
			<stop  offset="1" style="stop-color:#99908C"/>
		</linearGradient>
		
			<path id="b9acd7f0-92e9-4a30-8074-8485a3c92084" style="fill:url(#b9acd7f0-92e9-4a30-8074-8485a3c92084_00000160149365749273196690000000400602610522330005_);" d="
			M312.2,53.9c1.8,3.4,1.7,13.8-0.2,17.5c-5.1,9.6-10.1,10.5-41.3,7c-30.2-3.4-40.9-4-46.2-2.6s-12.9,8.2-18.2,16.3
			c-4.5,6.9-5,9.9-2.5,13.7c2.4,3.6-0.3,0.8-6.6-6.9c-4.3-5.2-5.1-6.9-4.7-9.1c0.8-3.8,6-11.4,12.6-18.2c5.3-5.5,5.9-5.8,12.1-6.7
			c8.7-1.2,39,1.1,59.5,4.5c15.9,2.7,25.6-2.8,27.1-15.4c0.3-2.8,0.1-5.6-0.5-8.3l-1.1-3.3l4.4,4.5C308.7,49,310.6,51.3,312.2,53.9"
			/>
		
			<linearGradient id="a2fa6891-f517-4d29-8d3f-0a565e87eb6e_00000147204413376534149690000012818017469011316124_" gradientUnits="userSpaceOnUse" x1="-467.1054" y1="24.1601" x2="-466.2354" y2="23.1601" gradientTransform="matrix(557.04 0 0 331.3 260260.6094 -7489.8442)">
			<stop  offset="0" style="stop-color:#FEF3F1;stop-opacity:0.98"/>
			<stop  offset="1" style="stop-color:#908C88;stop-opacity:0.99"/>
		</linearGradient>
		
			<path id="a2fa6891-f517-4d29-8d3f-0a565e87eb6e" style="fill:url(#a2fa6891-f517-4d29-8d3f-0a565e87eb6e_00000147204413376534149690000012818017469011316124_);" d="
			M148.5,184.4c8.2,4,21.3,11.7,24.3,14.4c2.2,1.9,7.1,4,10.9,4.7c2.3,0.4,4.4,1.3,6.3,2.6c2.4,1.9,24.6,22.4,29.1,26.9
			c1.4,1.4,8.8,8.3,16.5,15.4s17.4,16.1,21.5,20.1s54.1,50.4,111,103.1c118.5,109.8,135.6,125,143.9,128
			c12.4,4.4,25.4-2.1,40.5-20.3c8.2-9.9,9.3-11.5,13.5-19.7c4.8-9.3,6-16.2,3.8-22.5l-1.5-4.4l3.2,3.1c2.3,2.4,4.3,5.2,5.9,8.1
			c6.3,11.6,2,24.3-15.7,45.9c-8.6,10.5-14.3,15.8-20.6,18.9c-4.9,2.4-6.5,2.7-15,2.5c-5.2-0.1-10.5-0.5-11.6-1
			c-2.4-1-317.8-293.1-318.2-294.8c-0.2-0.6-2.5-1.7-5.2-2.4s-8.1-3.5-12-6.2c-2.5-1.8-5-3.4-7.7-4.9c-1.1-0.5-2.2-1.1-3.2-1.9
			c-4.5-3.2-18.8-10.1-20.9-10.1c-3.5,0-11.5,11.9-14.7,22c-1.8,5.5-7.2,12-10.1,12c-0.8,0-2.8,2.1-4.6,4.8
			c-4.6,6.7-12.9,16.5-21.4,25.2l-7.3,7.5l-6.8,0.4c-6.5,0.4-7.2,0.2-14.9-4c-4.5-2.4-9.3-5.2-10.8-6.4
			c-9.7-7.1-18.9-14.9-27.5-23.3c-5.2-5.2-7.5-7.7-5-5.6s5,4.3,5.5,4.9c1,1.1,14.9,11.8,21.2,16.3c3,1.9,6.2,3.7,9.4,5.2
			c8.5,4.1,14.8,4.1,21.2,0.1c2.6-1.6,4.7-3.3,4.7-3.8s2.1-3.1,4.8-5.9c8.8-9.5,16.5-18.9,18-22c1-2,2.8-3.6,4.9-4.4
			c4.4-1.6,6.7-4.9,10.8-14.9c4.3-10.7,9.3-18.1,12.3-18.1C138.3,179.9,143.4,181.9,148.5,184.4"/>
	</g>
	<g id="ea3c522b-504a-4ca3-ae5a-3d973439e540">
		
			<linearGradient id="ec6b7a18-6453-4bbb-9971-4043983d5620_00000092419865695353387410000008945679002225410459_" gradientUnits="userSpaceOnUse" x1="-464.4009" y1="32.5836" x2="-462.9009" y2="33.5836" gradientTransform="matrix(115.31 0 0 36.74 53672.3594 -1167.572)">
			<stop  offset="0" style="stop-color:#747477;stop-opacity:0.62"/>
			<stop  offset="1" style="stop-color:#2D2D2F;stop-opacity:0.88"/>
		</linearGradient>
		
			<path id="ec6b7a18-6453-4bbb-9971-4043983d5620" style="fill:url(#ec6b7a18-6453-4bbb-9971-4043983d5620_00000092419865695353387410000008945679002225410459_);" d="
			M217.2,29.3c23.3,7.4,63.9,21,63.7,21.2c-0.6,0.6-22.5-1.7-44.7-4.7c-5.1-0.6-10.2-0.9-15.3-0.9c-11.8-0.1-20.7,3.5-30,12
			s-13,7.6-6.8-1.4c4.2-6,9.8-10.9,16.3-14.3c5.1-2.7,5.7-2.8,20.3-2.7l15,0.1l-7-1.9c-26-7.1-40.6-8.1-62.5-4.2
			c-3.4,0.6,7.2-3.5,13.5-5.2C188.1,25,206.9,26,217.2,29.3"/>
		
			<linearGradient id="e9737e71-72a0-44cf-85d5-81fd9181394d_00000095298289042859395740000007458435106872812191_" gradientUnits="userSpaceOnUse" x1="-464.4347" y1="24.326" x2="-465.5247" y2="25.326" gradientTransform="matrix(187.15 0 0 170.26 87175.5703 -4100.1948)">
			<stop  offset="0" style="stop-color:#B2BDC0;stop-opacity:0.42"/>
			<stop  offset="1" style="stop-color:#4D4548;stop-opacity:0.89"/>
		</linearGradient>
		
			<path id="e9737e71-72a0-44cf-85d5-81fd9181394d" style="fill:url(#e9737e71-72a0-44cf-85d5-81fd9181394d_00000095298289042859395740000007458435106872812191_);" d="
			M212.7,32.8c4.9,1.1,12.1,2.8,16,3.8l7,1.9l-15-0.1c-14.6-0.1-15.2,0-20.3,2.7c-6.5,3.4-12.1,8.4-16.3,14.3
			c-6.1,8.8-2.4,9.9,6.3,1.9c5.4-5,12.4-9.5,14.5-9.4c0.4,0-0.9,0.9-3,2c-8.5,4.5-17.3,14.6-24.8,28.4c-5.8,10.8-4.3,20.2,5,31.6
			c5.4,6.7,22.2,26,25.9,29.9c6.9,7.3,8.4,9.7,7.2,11.9c-1,1.5-2.2,2.8-3.6,3.9c-1.4,1.1-2.5,2.3-2.5,2.7s-1.3,2.1-2.9,3.9
			c-10.6,11.5-11.5,12.8-10.3,14.7s-0.7,4.7-7.9,12.4c-0.9,0.9-6.9-1.1-6.9-2.3c0-0.4-1.9-1.8-4.2-3.1c-1.7-0.8-3.3-1.8-4.8-3
			c-0.3-0.4-5.8-3.4-12.2-6.8c-13.1-6.9-21.9-9.7-27-8.8c-3.6,0.7-8.8,4.9-13,10.6c-3.4,4.6-9.4,16.7-10.3,20.6
			c-0.7,3.4-3.8,4.9-7.2,3.7c-1.8-0.6-11.6-8.6-15.9-12.8c-2.7-2.6-7.8-7.1-12.9-11.4c-17.1-14.3-24.3-21.3-25-24.4
			c-0.8-3,2.4-9,5.6-10.7c1.6-0.9,1.9-0.7,1.9,1.3c0,2.1,0.3,2,3.2-1.4c10-11.3,14.8-16.8,17.9-20.3c1.8-2.2,4.3-4.9,5.4-6
			s9-10.1,17.5-20s16.4-18.8,17.5-20c1.3-1.3,2.5-2.8,3.6-4.3c1.6-2.3,9.9-11.9,17.9-20.6c4.2-4.6,8.9-8,18.5-13.7
			C167.5,30,193.1,28.6,212.7,32.8"/>
		
			<linearGradient id="a53a8b0b-6804-4a61-bf55-eed108537165_00000119813959144966012270000005110386142343591359_" gradientUnits="userSpaceOnUse" x1="-463.5464" y1="26.3327" x2="-463.5464" y2="25.3324" gradientTransform="matrix(116.3 0 0 114.6 54142.3633 -2857.5957)">
			<stop  offset="0" style="stop-color:#00090A;stop-opacity:0.47"/>
			<stop  offset="1" style="stop-color:#00161F;stop-opacity:0.38"/>
		</linearGradient>
		
			<path id="a53a8b0b-6804-4a61-bf55-eed108537165" style="fill:url(#a53a8b0b-6804-4a61-bf55-eed108537165_00000119813959144966012270000005110386142343591359_);" d="
			M243.4,46.8c1.4,0.5,8.8,1.5,16.4,2.1s15.7,1.3,17.9,1.6l4,0.5l-3.5-1.5l-3.5-1.5l3.5,0.4c11.3,1.4,12.1,1.7,11.8,3.9
			c-0.4,3-4.2,3.4-16.3,2c-31.7-3.9-38.8-4.5-51-4.1c-14.9,0.4-17.6,1.3-25.6,8.5c-5.1,4.6-13.9,16.1-13.9,18.1
			c0.1,0.5-0.3,1-0.9,1.1c-1.5,0-4.1,8.3-4.1,12.8c0,7.4,1.5,9.9,17.5,29.1c1.1,1.3,3.4,3.8,5,5.6s5.7,6.2,9,10s6.7,7.6,7.5,8.4
			c3.6,3.8,4,4.8,3,7.6c-1.6,4.3-6.4,8.5-8.9,7.9c-2.7-0.7-2.7-1.1,0.4-3.5c1.4-1.1,2.6-2.4,3.6-3.9c1.1-2.1-0.4-4.6-7.2-11.9
			c-3.7-3.9-20.4-23.3-25.9-29.9c-9.3-11.4-10.8-20.8-5-31.6c8.2-15.3,16.1-23.9,27.8-30.1l6.8-3.6l14.6,0.6
			C234.3,45.5,242,46.2,243.4,46.8"/>
		
			<linearGradient id="f98c0589-14c0-40f5-8b09-afb5a6743658_00000132791941274247627670000009884113708212478356_" gradientUnits="userSpaceOnUse" x1="-453.0258" y1="33.0466" x2="-454.0258" y2="32.1566" gradientTransform="matrix(32.93 0 0 37.58 15148.7803 -1045.9019)">
			<stop  offset="0" style="stop-color:#FFB567;stop-opacity:0.83"/>
			<stop  offset="1" style="stop-color:#FFA052;stop-opacity:0.79"/>
		</linearGradient>
		
			<path id="f98c0589-14c0-40f5-8b09-afb5a6743658" style="fill:url(#f98c0589-14c0-40f5-8b09-afb5a6743658_00000132791941274247627670000009884113708212478356_);" d="
			M228.8,169.3c1.9,1.6,1.7,1.9-5.1,8.9c-4,4.2-7.7,8.6-11.1,13.3l-4,6.1l-6.4-5.8c-7.1-6.4-7.1-5.4-0.1-13.4
			c1.9-2.2,6.4-7.3,9.9-11.2l6.4-7.2l4.2,3.8C225.1,165.9,227.8,168.4,228.8,169.3"/>
		
			<linearGradient id="fad355a2-ec38-48be-a492-e7cdc6da7d0a_00000000185336694042815490000014219129613350015636_" gradientUnits="userSpaceOnUse" x1="-460.7702" y1="27.5449" x2="-461.7702" y2="28.3549" gradientTransform="matrix(73.71 0 0 70.37 34057.7812 -1770.9729)">
			<stop  offset="0" style="stop-color:#BEDAEC;stop-opacity:0.45"/>
			<stop  offset="1" style="stop-color:#B8C2C2;stop-opacity:0.29"/>
		</linearGradient>
		
			<path id="fad355a2-ec38-48be-a492-e7cdc6da7d0a" style="fill:url(#fad355a2-ec38-48be-a492-e7cdc6da7d0a_00000000185336694042815490000014219129613350015636_);" d="
			M42.4,163.2c2.3,2.2,12.2,11,18.3,16.2c3.2,2.8,6.9,6,8.1,7.2c0.8,0.9,1.6,1.6,2.6,2.2c0.4,0,7.4,6.2,17.1,15.1
			c4.8,4.5,4.6,5.3-3.3,13.9c-3.3,3.6-7.2,8-8.7,9.8c-4,5.1-5.6,5.6-10.4,3.1c-1.8-0.9-3.6-1.9-5.3-3.1c-0.6-0.5-3.6-2.8-6.6-5
			c-8.5-6.2-15.7-12.5-25.7-22.5s-11.9-13-9.4-15.5c0.9-0.9,3.4-3.8,5.6-6.4c6.3-7.5,14.8-16.5,15.6-16.5
			C41.1,162.1,41.8,162.5,42.4,163.2"/>
		
			<linearGradient id="a47f2284-ecfa-44e3-ab7d-b2eb20ceeacf_00000067206810722010832910000015190241019634142888_" gradientUnits="userSpaceOnUse" x1="-465.6622" y1="23.8038" x2="-466.6622" y2="23.6738" gradientTransform="matrix(342.61 0 0 309.92 160093.6562 -7029.5137)">
			<stop  offset="0" style="stop-color:#FFD47D;stop-opacity:0.81"/>
			<stop  offset="1" style="stop-color:#FFDA7D;stop-opacity:0.84"/>
		</linearGradient>
		
			<path id="a47f2284-ecfa-44e3-ab7d-b2eb20ceeacf" style="fill:url(#a47f2284-ecfa-44e3-ab7d-b2eb20ceeacf_00000067206810722010832910000015190241019634142888_);" d="
			M236.1,175.6c2.5,2,5.5,4.6,6.6,5.8s4.2,3.8,6.9,6s5.6,4.7,6.5,5.6s5.7,4.9,10.6,9s9.5,7.9,10.1,8.4c1.4,1.2,3.8,3.2,27.4,22.5
			c22.3,18.2,21.8,17.8,33.1,26.5c5,3.9,14,10.8,19.8,15.5s11.9,9.4,13.5,10.5c3.6,2.6,19.9,15.7,20.6,16.5c0.3,0.3,4.5,4,9.5,8.1
			s12.2,10.1,16.1,13.5s9.2,7.8,11.8,10s5.8,4.9,7,6c5.4,4.8,13.4,11.6,16.1,13.7c1.6,1.3,3.2,2.5,3.5,2.8
			c0.5,0.5,8.4,7.2,15.4,13.1c1.6,1.3,4.1,3.5,5.6,4.9c4.9,4.5,15.4,13.8,19.4,17.2c2.1,1.8,4.6,4,5.5,4.8c1.6,1.4,3.2,2.7,4.9,3.9
			c1.9,1.4,3.8,2.9,5.5,4.5c1.2,1.2,4.9,4.4,8.1,7.1c11.9,10.1,17.2,15,24.8,22.9c6.8,7.1,7.7,8.4,7.2,11
			c-1.1,5.9-12.6,21.7-22.6,31c-9.3,8.6-10.5,8.3-29.5-8.9c-1.2-1.1-4.4-3.8-7-6s-5.2-4.4-5.8-5s-4-3.5-7.6-6.5s-7.2-6.2-8-7.1
			s-6.5-5.9-12.5-11c-11.7-10-19.6-17.1-25.5-22.8c-2-1.9-6.7-6.4-10.5-9.9l-13-12c-6.6-6.1-26.2-24.2-33.2-30.6
			c-2.4-2.2-11.9-11.4-21-20.4s-23-22.2-30.7-29.4c-13-12.1-37.9-35.6-50-47.2c-5.5-5.3-28.2-26.6-32.6-30.6
			c-20.3-18.6-32.9-30.6-32.9-31.6c0-2.8,18.9-25.3,21.3-25.3C231,171.9,233.5,173.5,236.1,175.6"/>
		
			<linearGradient id="a30c0e3b-776e-4ce7-9849-ea52b6db3e44_00000044856352370305752890000011271956822467343518_" gradientUnits="userSpaceOnUse" x1="-462.3938" y1="29.3781" x2="-461.1438" y2="30.3781" gradientTransform="matrix(81 0 0 51.12 37466 -1319.8804)">
			<stop  offset="0" style="stop-color:#28221B;stop-opacity:0.71"/>
			<stop  offset="1" style="stop-color:#271F19;stop-opacity:0.82"/>
		</linearGradient>
		
			<path id="a30c0e3b-776e-4ce7-9849-ea52b6db3e44" style="fill:url(#a30c0e3b-776e-4ce7-9849-ea52b6db3e44_00000044856352370305752890000011271956822467343518_);" d="
			M81.9,192.4c11.6,10,15.3,13.8,15.3,15.6s-9.2,13.3-19.8,24.8l-5,5.4l-4.6-1.7c-2.5-0.9-5.1-2.4-5.8-3.2c-0.5-0.7-1.3-1.2-2.1-1.4
			c-4.7,0-43.8-35.8-43.8-40.1c0-0.5,3,2.5,6.6,6.6c6.2,7.1,10.6,10.5,13.6,10.5c0.7,0,3.2,1.8,5.6,4s7.3,6.2,11,9s7.2,5.4,7.8,5.9
			c1.7,1.1,3.4,2.1,5.3,3c4.8,2.4,6.4,2,10.4-3.1c1.4-1.8,5.3-6.2,8.7-9.8s6.3-7.4,6.7-8.4c0.7-2-1-3.8-13-14.2
			c-4.3-3.8-5.7-5.6-5.2-6.8C74.4,186.2,75,186.5,81.9,192.4"/>
	</g>
	<g id="a0a4fd79-f360-4997-bc7f-4820ad6890eb">
		
			<linearGradient id="ec0686b8-50d1-4aff-834a-acb8272dc734_00000061440705827624888230000013591008102042770367_" gradientUnits="userSpaceOnUse" x1="-459.9581" y1="26.2242" x2="-460.4881" y2="25.2242" gradientTransform="matrix(63.32 0 0 117.7 29327.8691 -2930.1995)">
			<stop  offset="0" style="stop-color:#292320;stop-opacity:0.8"/>
			<stop  offset="1" style="stop-color:#221C1A;stop-opacity:0.74"/>
		</linearGradient>
		
			<path id="ec0686b8-50d1-4aff-834a-acb8272dc734" style="fill:url(#ec0686b8-50d1-4aff-834a-acb8272dc734_00000061440705827624888230000013591008102042770367_);" d="
			M199.2,41.9c-6.1,3.3-11.2,7.9-15.1,13.6c-6.1,8.8-2.4,9.8,6.3,1.8c5.4-5,12.4-9.5,14.5-9.4c0.4,0-0.9,0.9-3,2
			c-8.5,4.5-17.3,14.6-24.8,28.4c-5.8,10.8-4.3,20.2,5,31.6c5.4,6.7,22.2,26,25.9,29.9c8.8,9.3,9.3,10.9,4.2,15.4
			c-1.9,1.7-2.4,1.8-4.8,0.5c-1.5-0.8-13.2-11.8-26.1-24.4c-19.6-19.3-23.9-24-26.3-29c-1.6-3.3-2.9-7.4-2.9-9.2
			c0-3.5,4.5-16.9,6.4-19.3c1.4-1.9,2.7-3.9,3.8-6c5.6-9.7,18.6-21,29-25.2C203.1,38.1,207,37.7,199.2,41.9"/>
		
			<linearGradient id="ac1ad38b-b384-4259-a44d-5639575f65ce_00000024002643628877114140000011201147061847114170_" gradientUnits="userSpaceOnUse" x1="-462.1904" y1="39.024" x2="-462.9404" y2="38.024" gradientTransform="matrix(91.66 0 0 23.9 42619.3633 -866.7993)">
			<stop  offset="0" style="stop-color:#9A8E8C;stop-opacity:0.69"/>
			<stop  offset="1" style="stop-color:#908887;stop-opacity:0.65"/>
		</linearGradient>
		
			<path id="ac1ad38b-b384-4259-a44d-5639575f65ce" style="fill:url(#ac1ad38b-b384-4259-a44d-5639575f65ce_00000024002643628877114140000011201147061847114170_);" d="
			M229.2,39.8c7.9,1.4,31.5,6.5,38,8.3l5.5,1.5l-8-0.5c-4.4-0.3-11.1-0.9-15-1.5c-15.9-2.3-20.4-2.7-28.8-2.8
			c-11.8-0.1-20.7,3.5-30,12c-9.2,8.4-13,7.6-6.8-1.4c3.9-5.7,9-10.4,15.1-13.6c5-2.8,6.3-3,15-3C219.2,38.9,224.3,39.3,229.2,39.8"
			/>
		
			<linearGradient id="ab1dc3a6-a23b-452b-9578-8978c3be0ce3_00000144320893957889596910000002619630165600247215_" gradientUnits="userSpaceOnUse" x1="-462.9163" y1="26.5257" x2="-462.9863" y2="25.5257" gradientTransform="matrix(101.23 0 0 108.2 46983.2422 -2711.8713)">
			<stop  offset="0" style="stop-color:#C8C0BE;stop-opacity:0.77"/>
			<stop  offset="1" style="stop-color:#BEB6B5;stop-opacity:0.8"/>
		</linearGradient>
		
			<path id="ab1dc3a6-a23b-452b-9578-8978c3be0ce3" style="fill:url(#ab1dc3a6-a23b-452b-9578-8978c3be0ce3_00000144320893957889596910000002619630165600247215_);" d="
			M163.5,50.4c-6,1.6-11.8,5.1-17.6,10.3c-2.2,2-16.1,18.2-31,36.1c-39.5,47.5-39.7,47.7-39.7,48.7c0,0.5,1.6,3.3,3.6,6.3l3.6,5.4
			l-3.4-2.4c-5.4-3.8-10.7-9.5-11.5-12.4c-0.6-2.3,0.2-3.5,5.2-8.9c3.2-3.4,9-9.8,12.9-14.1s8.1-9.1,9.5-10.6
			c3.1-3.3,15.9-17.5,23-25.5c2.9-3.3,5.6-6.2,5.9-6.5c0.7-0.7,6.4-7.2,11.9-13.8c7.4-8.7,17.7-14.1,27.2-14.1h5.5L163.5,50.4"/>
		
			<linearGradient id="b68d23b3-de20-47b9-8d4a-da28dd15ffe5_00000161604691501134739850000017935663379109298087_" gradientUnits="userSpaceOnUse" x1="-464.7505" y1="29.7393" x2="-463.7505" y2="29.7093" gradientTransform="matrix(140.79 0 0 52.65 65483.582 -1395.5096)">
			<stop  offset="0" style="stop-color:#2D2622;stop-opacity:0.76"/>
			<stop  offset="1" style="stop-color:#292320;stop-opacity:0.81"/>
		</linearGradient>
		
			<path id="b68d23b3-de20-47b9-8d4a-da28dd15ffe5" style="fill:url(#b68d23b3-de20-47b9-8d4a-da28dd15ffe5_00000161604691501134739850000017935663379109298087_);" d="
			M142.9,143.9c3.1,0.5,6.1,1.3,9,2.5c1.2,0.7,2.5,1.2,3.9,1.5c0.9,0,15.5,8.2,17.9,10.1c9.7,7.6,19.6,16.7,19.6,18
			c0,0.9-1.6,3.3-3.6,5.3L186,185l-3.2-2c-1.7-1.1-4.4-2.8-6-3.8s-4.4-2.8-6.4-4c-6.9-4.2-14.1-7.9-21.4-11.2
			c-6.1-2.7-14.6-3.6-19.1-2.1c-7.7,2.6-19.1,17.9-24,32.3c-0.8,2.4-3.1,2.2-6-0.5c-7.2-6.6-12.6-11.4-25.1-22.2
			c-22.6-19.6-22.8-19.9-22.1-22.2c0.9-2.7,3.7-3.8,4.8-1.9c0.6,1,1.3,1.9,2.1,2.8c1.3,1.5,2.5,3.1,3.6,4.8c3.4,5,10.8,10.7,16.9,13
			l5.2,2l5.2-2.4c3.1-1.6,8.1-5.3,12.5-9.6C116,145.2,127,141.4,142.9,143.9"/>
		
			<linearGradient id="bed9c75b-ef9e-4af1-bda9-e28d3203d044_00000090276936949006733920000006885869332472945037_" gradientUnits="userSpaceOnUse" x1="-445.9542" y1="33.0324" x2="-446.2842" y2="32.0324" gradientTransform="matrix(21.48 0 0 38 9615.6094 -1046)">
			<stop  offset="0" style="stop-color:#C2BCBC;stop-opacity:0.8"/>
			<stop  offset="1" style="stop-color:#C1B9B8;stop-opacity:0.8"/>
		</linearGradient>
		
			<path id="bed9c75b-ef9e-4af1-bda9-e28d3203d044" style="fill:url(#bed9c75b-ef9e-4af1-bda9-e28d3203d044_00000090276936949006733920000006885869332472945037_);" d="
			M40.2,172.7c-0.4,1-1,2-1.8,2.8c-3.8,4.3-8.3,10.4-9.4,12.8c-1.9,4.1-0.3,7,7.6,14.5c4.1,3.9,7.3,7.1,7,7.1
			c-2.3,0-9.1-5-14.7-10.8c-5.9-6.2-6.8-7.5-6.8-10.8s0.7-4.5,6.5-10.1c4.4-4.2,7.3-6.3,9-6.3C39.1,171.9,40.3,172.2,40.2,172.7"/>
		
			<linearGradient id="a1d29797-92cb-4c37-be5b-a85eaa643f6f_00000118386246722098115150000017975005677401281181_" gradientUnits="userSpaceOnUse" x1="-465.841" y1="24.4673" x2="-465.921" y2="23.4673" gradientTransform="matrix(282.77 0 0 259.96 132082.4375 -5926.6831)">
			<stop  offset="0" style="stop-color:#FFD98F;stop-opacity:0.81"/>
			<stop  offset="1" style="stop-color:#FFEEC4;stop-opacity:0.31"/>
		</linearGradient>
		
			<path id="a1d29797-92cb-4c37-be5b-a85eaa643f6f" style="fill:url(#a1d29797-92cb-4c37-be5b-a85eaa643f6f_00000118386246722098115150000017975005677401281181_);" d="
			M222.2,192.3c3,2.7,9.8,9,15,14c23.5,22.3,33.1,31.2,48.3,44.6c2.2,1.9,4.9,4.4,6.1,5.5c1.1,1.1,4.8,4.2,8.1,6.9
			c7.1,5.9,28.5,26.6,47.4,46c19.6,20,24.9,25.3,33.1,32.6c4,3.6,8.5,7.6,10,9s8.3,7.7,15.1,14.1s14.6,13.6,17.4,16s7.2,6.5,10,9.1
			s11.3,9.7,19,15.8c33,26.3,36.1,29,35.1,31.5c-0.4,1.2-3.6-1-13-8.7c-6.8-5.6-13.7-11.2-15.3-12.5l-8.9-6.8
			c-9-6.7-17.7-14-25.9-21.7c-2.2-2.1-4.2-3.8-4.5-3.8s-2.9-2.1-5.6-4.8c-5.7-5.4-23.8-22.1-32.9-30.2c-3.3-3-16.6-16.1-29.6-29.2
			s-26-25.9-29-28.5s-9.3-8.4-14-12.8s-15-14.2-22.9-21.6s-16-15.1-18-17s-9.7-9.1-17.1-16c-41.1-38.2-47.1-44.1-45.8-45.7
			c0.9-1.1,2.2-0.4,6.7,4c3.1,2.9,8.1,7.5,11.1,10.2"/>
		
			<linearGradient id="b8efdeb2-1dc0-4231-92c4-e6c8841075af_00000032638165464323417360000005867663546677109154_" gradientUnits="userSpaceOnUse" x1="-458.8552" y1="30.8102" x2="-458.6052" y2="31.8102" gradientTransform="matrix(52.23 0 0 43.37 24024.8496 -1149.9702)">
			<stop  offset="0" style="stop-color:#1E1917;stop-opacity:0.52"/>
			<stop  offset="1" style="stop-color:#080502;stop-opacity:0.61"/>
		</linearGradient>
		
			<path id="b8efdeb2-1dc0-4231-92c4-e6c8841075af" style="fill:url(#b8efdeb2-1dc0-4231-92c4-e6c8841075af_00000032638165464323417360000005867663546677109154_);" d="
			M78.2,194.6c14,12.6,14.2,12.9,13.6,14.9c-0.3,1-3.3,4.8-6.7,8.4s-7.2,8-8.7,9.8c-4,5.1-5.6,5.6-10.4,3.1c-1.8-0.9-3.6-1.9-5.3-3
			c-0.6-0.5-4.1-3.1-7.7-5.8s-8.1-6.3-10-8l-3.4-3.1h3.5c5.7,0,13.6-4.4,20.5-11.4c3.5-3.6,6.6-7.4,7-8.5c0.2-0.7,0.5-1.4,0.9-2
			C71.7,188.9,74.7,191.5,78.2,194.6"/>
	</g>
</g>
<g id="eb090005-9149-49a2-8acc-8ae1153de662">
	<g id="a61ceae2-c5ce-4f21-a2c4-7ea0ca993c34">
		
			<linearGradient id="b1f6b426-197b-40b5-b3ed-b15f0f3cebc6_00000063633068771902250980000012902927085664279483_" gradientUnits="userSpaceOnUse" x1="-465.0652" y1="23.2988" x2="-466.0652" y2="23.3289" gradientTransform="matrix(549.6 0 0 471.52 256763.2812 -10737.2021)">
			<stop  offset="0" style="stop-color:#7B5334"/>
			<stop  offset="1" style="stop-color:#3A1D14;stop-opacity:0.99"/>
		</linearGradient>
		
			<path id="b1f6b426-197b-40b5-b3ed-b15f0f3cebc6" style="fill:url(#b1f6b426-197b-40b5-b3ed-b15f0f3cebc6_00000063633068771902250980000012902927085664279483_);" d="
			M819.9,20.7c12.9,3.5,22.2,6.5,50.5,15.8c5.8,1.9,11.8,4,13.5,4.8c2.6,1,5.2,1.9,7.8,2.6c5.9,1.6,8.2,4.5,7.3,9.4
			c-1.2,6.6-1.1,6.6-34.1,2.6c-21.8-2.7-44.4-3.1-49.5-1.1c-10.9,4.4-28,26.2-28,35.8c0,5.2,4.1,12.1,12.9,21.8
			c1,1.1,5.1,5.8,9.1,10.5s7.6,8.7,8,9s3.5,3.7,6.9,7.7c5.2,6.1,6.2,7.8,6.2,11c0,4,1.3,5.9,8.1,11.7l7,6c2,1.7,6.7,5.8,10.5,9.2
			s13.2,11.4,20.9,17.8s15.4,12.9,17.2,14.4s4.7,3.9,6.5,5.4s10.3,8.4,18.8,15.3s16.6,13.5,18,14.6c12.2,9.4,22.5,17.3,27.5,21.1
			c1.2,0.9,2.4,1.8,3.5,2.8c1.3,1.1,2.6,2.1,4,3c1.9,1.3,4,2.9,4.7,3.5s2.8,2.4,4.9,4c5,4,11.5,9.3,14,11.4c1.1,0.9,3.6,2.8,5.5,4.1
			c2.8,2.1,5.5,4.3,8,6.6c2.5,2.3,6.5,5.9,9,7.9s5.4,4.5,6.5,5.4l12,10c11,9.2,19.7,16.5,23,19.6c4.3,3.9,13.6,11.8,16.3,13.9
			c3.7,2.9,16.3,13.6,18.3,15.5c0.9,0.9,3.8,3.4,6.4,5.6s5.5,4.7,6.4,5.6c1.6,1.7,6.1,5.4,14.1,11.9c2.4,1.9,5.4,4.4,6.6,5.5
			s5.3,4.7,9.1,8c12.1,10.6,26.4,25.5,27.9,29.2c0.9,2.1,1.2,4.5,0.8,6.7c-0.7,3.3-3.5,9.8-4.5,10.6c-0.7,0.9-1.4,1.9-1.9,3
			c-2.3,4.4-11.5,15.3-18.3,21.7c-10.3,9.7-17.6,10.7-26,3.5c-2.4-2-6.3-5.3-8.6-7.2s-5.3-4.4-6.5-5.5s-4.9-4.2-8.1-7
			s-9.4-8.1-13.8-12s-11.3-9.8-15.3-13.2c-7.8-6.5-11.6-10-24.6-22.3c-4.4-4.1-8.4-8-9.1-8.5s-3.9-3.5-7.2-6.5
			c-21.7-19.9-29.1-26.8-31.4-29.1c-1.4-1.4-6.8-6.4-12.1-11s-9.9-9-10.4-9.9c-2.7-3-5.5-5.9-8.5-8.5c-4.2-3.9-13.9-13.1-21.6-20.6
			c-17.3-16.8-20.4-19.7-30.1-28.4c-4.3-3.9-10.5-9.7-13.9-13c-6.4-6.3-30.2-28.8-43.9-41.5c-4.4-4.1-11.7-10.9-16.1-15.1
			c-9-8.5-20.5-19.2-28-25.9c-2.7-2.5-5.8-5.3-6.8-6.2c-1.2-1.2-3-1.6-4.7-1.1c-3.3,0.7-4.5,0.1-15.7-7.1
			c-11.3-7.4-22.6-13.1-30.6-15.6c-6.9-2.2-7-2.2-10.5-0.3s-8.2,7-11.6,12.8c-3.3,5.6-6.8,13.6-6.8,15.5c0,2.5-4.6,6-8,6
			c-2.8,0-3.5,0.9-6.1,7.9c-0.8,2.1-1.9,4-3.3,5.7c-1.1,1.3-4.8,5.3-8.1,9.1c-14.2,16.1-14.7,16.3-23.7,11.8
			c-13-6.6-36-25.9-46.4-38.9c-2.2-2.8-4.2-5.2-4.6-5.5c-1.5-1.3-2.9-5.2-2.9-8.2c0-2.8,1.8-5.3,12.5-17
			c12.7-13.9,15.5-15.9,20.4-14.3c1.8,0.6,2,0.2,2-4s0.5-5.3,7.2-13.3c8.7-10.4,7.2-8.7,18.4-20.8c5-5.4,11.9-13.2,15.4-17.4
			s7-8.2,7.9-9s4.1-4.4,7.1-8s5.7-6.7,6-7s1.6-1.8,2.9-3.5c2.4-3.1,11.5-13.6,14.2-16.4c0.8-0.9,4-4.5,7-8
			c7.9-9.3,19.6-17.2,34.5-23.3c15.3-6.1,32.1-7.1,48-2.9"/>
		
			<linearGradient id="ee907bc2-9560-4fdb-be75-4a7b7586d11b_00000036247848987604745390000011452812729570835352_" gradientUnits="userSpaceOnUse" x1="-458.6943" y1="28.8639" x2="-458.6943" y2="27.8641" gradientTransform="matrix(121.06 0 0 65.08 56388.7383 -1769.603)">
			<stop  offset="0" style="stop-color:#B9B0AC"/>
			<stop  offset="1" style="stop-color:#99908C"/>
		</linearGradient>
		
			<path id="ee907bc2-9560-4fdb-be75-4a7b7586d11b" style="fill:url(#ee907bc2-9560-4fdb-be75-4a7b7586d11b_00000036247848987604745390000011452812729570835352_);" d="
			M918.4,53.8c1.8,3.4,1.7,13.8-0.2,17.5c-5.1,9.6-10.1,10.5-41.3,7c-30.2-3.4-40.8-4-46.2-2.6s-12.9,8.2-18.2,16.3
			c-4.5,6.9-5,9.9-2.5,13.7c2.4,3.6-0.3,0.8-6.6-6.9c-4.3-5.2-5.1-6.9-4.7-9.1c0.8-3.8,6-11.4,12.6-18.2c5.3-5.5,5.9-5.8,12-6.7
			c8.7-1.2,39,1.1,59.5,4.5c16,2.7,25.7-2.8,27.2-15.3c0.3-2.8,0.1-5.6-0.5-8.3l-1.1-3.3l4.3,4.5C914.9,49,916.8,51.3,918.4,53.8"/>
		
			<linearGradient id="bf0a06a9-a77a-41f5-94ab-d82f86d70e18_00000016771523584583506550000002185144292805991614_" gradientUnits="userSpaceOnUse" x1="-466.0165" y1="24.1592" x2="-465.1465" y2="23.1592" gradientTransform="matrix(557.04 0 0 331.3 260260.6094 -7489.8442)">
			<stop  offset="0" style="stop-color:#FEF3F1;stop-opacity:0.98"/>
			<stop  offset="1" style="stop-color:#908C88;stop-opacity:0.99"/>
		</linearGradient>
		
			<path id="bf0a06a9-a77a-41f5-94ab-d82f86d70e18" style="fill:url(#bf0a06a9-a77a-41f5-94ab-d82f86d70e18_00000016771523584583506550000002185144292805991614_);" d="
			M754.7,184.3c8.2,4,21.3,11.7,24.3,14.4c2.2,1.9,7,4,10.9,4.7c2.3,0.4,4.4,1.3,6.3,2.6c2.4,1.9,24.7,22.4,29.1,26.9
			c1.4,1.4,8.8,8.3,16.5,15.4s17.4,16.1,21.5,20.1s54.1,50.3,111,103.1c118.5,109.8,135.6,125,143.9,128
			c12.4,4.4,25.4-2.1,40.5-20.3c8.2-10,9.3-11.5,13.5-19.7c4.8-9.3,6-16.2,3.8-22.5l-1.5-4.4l3.2,3.1c2.3,2.4,4.3,5.2,5.9,8.1
			c6.3,11.6,2,24.3-15.7,45.9c-8.6,10.5-14.3,15.8-20.6,18.9c-4.9,2.4-6.5,2.7-15,2.5c-5.2-0.1-10.5-0.5-11.6-1
			c-2.4-1-317.8-293.1-318.2-294.8c-0.2-0.6-2.5-1.7-5.2-2.4s-8.1-3.5-12-6.2c-2.5-1.8-5-3.4-7.7-4.9c-1.1-0.5-2.2-1.1-3.2-1.9
			c-4.5-3.2-18.8-10.1-20.9-10.1c-3.5,0-11.5,11.9-14.7,22c-1.8,5.5-7.2,12-10.1,12c-0.8,0-2.8,2.1-4.6,4.8
			c-4.6,6.7-12.9,16.5-21.5,25.2l-7.3,7.5l-6.8,0.4c-6.5,0.4-7.2,0.2-14.9-4c-4.5-2.4-9.3-5.2-10.8-6.4c-9.7-7.1-18.9-15-27.4-23.4
			c-5.2-5.2-7.5-7.7-5-5.6s5,4.3,5.5,4.9c1,1.1,14.9,11.8,21.2,16.3c3,1.9,6.2,3.7,9.4,5.2c8.5,4.1,14.8,4.1,21.2,0.1
			c2.6-1.6,4.7-3.3,4.7-3.8s2.2-3.1,4.8-5.9c8.8-9.5,16.5-18.8,18-22c1-2,2.8-3.6,4.9-4.4c4.4-1.6,6.7-4.8,10.8-14.9
			c4.3-10.8,9.4-18.1,12.4-18.2c1.3,0,6.4,2,11.5,4.4"/>
	</g>
	<g id="bcd0ac62-9f3f-4569-a747-f76e8d27802e">
		
			<linearGradient id="a6507248-010c-4335-a2d3-44ae034fe732_00000170279101587244140500000004241564480916861318_" gradientUnits="userSpaceOnUse" x1="-453.9193" y1="32.5816" x2="-452.4093" y2="33.5816" gradientTransform="matrix(115.31 0 0 36.74 53672.3594 -1167.572)">
			<stop  offset="0" style="stop-color:#747477;stop-opacity:0.62"/>
			<stop  offset="1" style="stop-color:#2D2D2F;stop-opacity:0.88"/>
		</linearGradient>
		
			<path id="a6507248-010c-4335-a2d3-44ae034fe732" style="fill:url(#a6507248-010c-4335-a2d3-44ae034fe732_00000170279101587244140500000004241564480916861318_);" d="
			M1426.4,29.3c23.3,7.4,63.9,20.9,63.7,21.2c-0.6,0.6-22.5-1.7-44.7-4.7c-5.1-0.6-10.2-0.9-15.3-0.9c-11.8-0.1-20.7,3.5-30,12
			s-13,7.6-6.8-1.4c4.2-6,9.8-10.9,16.3-14.3c5.1-2.7,5.7-2.8,20.3-2.7l15,0.1l-7-1.9c-26-7.1-40.6-8.1-62.5-4.2
			c-3.4,0.6,7.3-3.5,13.5-5.2C1397.3,25,1416.1,26,1426.4,29.3"/>
		
			<linearGradient id="f74187cc-b79a-40c6-a5d6-4b3d1d0c1126_00000066514860446985649300000000807189178767340727_" gradientUnits="userSpaceOnUse" x1="-457.9743" y1="24.3265" x2="-459.0643" y2="25.3265" gradientTransform="matrix(187.15 0 0 170.26 87175.5703 -4100.1948)">
			<stop  offset="0" style="stop-color:#B2BDC0;stop-opacity:0.42"/>
			<stop  offset="1" style="stop-color:#4D4548;stop-opacity:0.89"/>
		</linearGradient>
		
			<path id="f74187cc-b79a-40c6-a5d6-4b3d1d0c1126" style="fill:url(#f74187cc-b79a-40c6-a5d6-4b3d1d0c1126_00000066514860446985649300000000807189178767340727_);" d="
			M1421.9,32.7c4.9,1,12.2,2.8,16,3.8l7,1.9l-15-0.1c-14.5-0.1-15.2,0-20.3,2.7c-6.5,3.4-12.1,8.4-16.3,14.3
			c-6.1,8.8-2.4,9.9,6.3,1.8c5.4-5,12.4-9.5,14.5-9.4c0.4,0-0.9,0.9-3,2c-8.5,4.5-17.3,14.6-24.8,28.4c-5.8,10.8-4.3,20.2,5,31.6
			c5.4,6.7,22.2,26,25.9,29.9c6.9,7.3,8.4,9.7,7.2,11.9c-1,1.5-2.2,2.9-3.6,4c-1.4,1.1-2.5,2.3-2.5,2.7s-1.3,2.1-2.9,3.9
			c-10.7,11.5-11.5,12.7-10.3,14.6s-0.7,4.7-7.8,12.4c-0.9,0.9-6.9-1.1-6.9-2.3c0-0.4-1.9-1.8-4.2-3.1c-1.7-0.9-3.3-1.9-4.8-3.1
			c-0.3-0.4-5.8-3.4-12.2-6.8c-13.2-6.9-21.9-9.7-27-8.8c-3.6,0.7-8.8,4.9-13,10.6c-3.4,4.6-9.4,16.7-10.3,20.6
			c-0.7,3.4-3.8,4.9-7.2,3.7c-1.8-0.6-11.6-8.6-15.9-12.8c-2.7-2.6-7.8-7.1-12.9-11.4c-17.1-14.3-24.3-21.3-25-24.5
			c-0.8-3,2.4-9,5.6-10.7c1.6-0.9,1.9-0.7,1.9,1.3c0,2.1,0.3,2,3.2-1.4c10-11.3,14.8-16.8,17.8-20.3c1.8-2.2,4.3-4.9,5.4-6
			s9-10.1,17.5-20s16.4-18.8,17.5-19.9c1.3-1.3,2.5-2.8,3.6-4.3c1.6-2.3,9.9-11.9,17.9-20.6c4.2-4.6,8.9-8,18.5-13.7
			C1376.8,30,1402.3,28.6,1421.9,32.7"/>
		
			<linearGradient id="bc3f94fd-3c89-4fc8-afb1-5f423a45d9d8_00000049201961268803977160000011305176188329526715_" gradientUnits="userSpaceOnUse" x1="-453.149" y1="26.3327" x2="-453.149" y2="25.3323" gradientTransform="matrix(116.3 0 0 114.6 54142.3633 -2857.5957)">
			<stop  offset="0" style="stop-color:#00090A;stop-opacity:0.47"/>
			<stop  offset="1" style="stop-color:#00161F;stop-opacity:0.38"/>
		</linearGradient>
		
			<path id="bc3f94fd-3c89-4fc8-afb1-5f423a45d9d8" style="fill:url(#bc3f94fd-3c89-4fc8-afb1-5f423a45d9d8_00000049201961268803977160000011305176188329526715_);" d="
			M1452.6,46.7c1.4,0.5,8.8,1.5,16.4,2.1s15.7,1.3,17.8,1.6l4,0.5l-3.5-1.5l-3.5-1.5l3.5,0.4c11.3,1.4,12.1,1.7,11.8,3.9
			c-0.4,3-4.2,3.5-16.3,2c-31.7-3.9-38.8-4.5-51-4.1c-14.9,0.4-17.6,1.3-25.6,8.5c-5.1,4.6-13.9,16.1-13.9,18.1
			c0.1,0.5-0.3,1-0.9,1.1c-1.4,0-4.1,8.3-4.1,12.8c0,7.4,1.5,9.9,17.5,29.1c1.1,1.3,3.3,3.8,5,5.6s5.7,6.2,9,10s6.7,7.6,7.5,8.4
			c3.6,3.8,4,4.8,3,7.6c-1.6,4.3-6.4,8.5-8.9,7.9c-2.7-0.7-2.7-1.1,0.4-3.5c1.4-1.1,2.6-2.5,3.6-4c1.2-2.1-0.3-4.6-7.2-11.9
			c-3.7-3.9-20.4-23.2-25.9-29.9c-9.3-11.4-10.8-20.8-5-31.6c8.2-15.2,16.2-23.8,27.8-30.1l6.8-3.6l14.6,0.6
			C1443.5,45.5,1451.2,46.2,1452.6,46.7"/>
		
			<linearGradient id="a6ca3df6-e703-407f-b3b0-56b855c90e46_00000182517763541478721240000008580449235559582597_" gradientUnits="userSpaceOnUse" x1="-416.3132" y1="33.0442" x2="-417.3132" y2="32.1443" gradientTransform="matrix(32.93 0 0 37.58 15148.7803 -1045.9019)">
			<stop  offset="0" style="stop-color:#FFB567;stop-opacity:0.83"/>
			<stop  offset="1" style="stop-color:#FFA052;stop-opacity:0.79"/>
		</linearGradient>
		
			<path id="a6ca3df6-e703-407f-b3b0-56b855c90e46" style="fill:url(#a6ca3df6-e703-407f-b3b0-56b855c90e46_00000182517763541478721240000008580449235559582597_);" d="
			M1438,169.2c1.9,1.6,1.7,1.9-5.1,8.9c-4,4.1-7.7,8.6-11.1,13.3l-4,6.1l-6.4-5.8c-7.1-6.4-7.1-5.4-0.1-13.4
			c1.9-2.2,6.4-7.3,9.9-11.2l6.4-7.2l4.2,3.8C1434.2,165.8,1436.9,168.3,1438,169.2"/>
		
			<linearGradient id="e1fa1dcf-9c00-4ef0-9eb4-83e6a6116eca_00000174594408716999244390000014188698532357864833_" gradientUnits="userSpaceOnUse" x1="-444.3627" y1="27.5419" x2="-445.3627" y2="28.3519" gradientTransform="matrix(73.71 0 0 70.37 34057.7812 -1770.9729)">
			<stop  offset="0" style="stop-color:#BEDAEC;stop-opacity:0.45"/>
			<stop  offset="1" style="stop-color:#B8C2C2;stop-opacity:0.29"/>
		</linearGradient>
		
			<path id="e1fa1dcf-9c00-4ef0-9eb4-83e6a6116eca" style="fill:url(#e1fa1dcf-9c00-4ef0-9eb4-83e6a6116eca_00000174594408716999244390000014188698532357864833_);stroke:#000000;stroke-miterlimit:10;" d="
			M1251.6,163.1c2.3,2.2,12.2,11,18.3,16.2c3.2,2.8,6.9,6,8.1,7.2c0.8,0.9,1.6,1.6,2.6,2.2c0.4,0,7.4,6.2,17.1,15.1
			c4.8,4.5,4.7,5.3-3.3,13.9c-3.3,3.6-7.2,8-8.7,9.8c-4,5.1-5.6,5.6-10.4,3.1c-1.8-0.9-3.6-1.9-5.3-3.1c-0.6-0.5-3.6-2.8-6.6-5
			c-8.5-6.2-15.7-12.5-25.7-22.5s-11.9-13-9.4-15.5c0.9-0.9,3.4-3.8,5.6-6.4c6.3-7.5,14.8-16.5,15.6-16.5
			C1250.3,162,1251,162.5,1251.6,163.1"/>
		
			<linearGradient id="a0b0bc53-1426-473c-ae4c-7dc78756b7ca_00000058556782020968596160000014023293657107722404_" gradientUnits="userSpaceOnUse" x1="-462.1322" y1="23.8037" x2="-463.1322" y2="23.6737" gradientTransform="matrix(342.61 0 0 309.92 160093.6562 -7029.5137)">
			<stop  offset="0" style="stop-color:#FFD47D;stop-opacity:0.81"/>
			<stop  offset="1" style="stop-color:#FFDA7D;stop-opacity:0.84"/>
		</linearGradient>
		
			<path id="a0b0bc53-1426-473c-ae4c-7dc78756b7ca" style="fill:url(#a0b0bc53-1426-473c-ae4c-7dc78756b7ca_00000058556782020968596160000014023293657107722404_);" d="
			M1445.3,175.5c2.5,2,5.5,4.6,6.6,5.8s4.2,3.8,6.9,6s5.6,4.7,6.5,5.6s5.7,4.9,10.6,9s9.5,7.9,10.1,8.4c1.3,1.2,3.8,3.2,27.4,22.5
			c22.3,18.2,21.8,17.8,33.1,26.5c5,3.9,14,10.8,19.8,15.5s11.9,9.4,13.5,10.5c3.6,2.6,19.9,15.7,20.6,16.5c0.3,0.3,4.6,4,9.5,8.1
			s12.2,10.2,16.1,13.5s9.2,7.8,11.8,10s5.8,4.9,7,6c5.3,4.7,13.3,11.5,16.1,13.6c1.7,1.3,3.2,2.5,3.5,2.8
			c0.5,0.5,8.4,7.2,15.4,13.1c1.6,1.3,4.1,3.6,5.6,4.9c4.9,4.5,15.4,13.8,19.4,17.2c2.2,1.8,4.6,4,5.5,4.9c1.6,1.4,3.2,2.7,4.9,3.9
			c1.9,1.4,3.8,2.9,5.6,4.5c1.2,1.2,4.9,4.4,8.1,7.1c11.9,10.1,17.2,15,24.8,22.9c6.8,7.1,7.7,8.4,7.2,11
			c-1.1,5.9-12.6,21.7-22.6,31c-9.3,8.6-10.4,8.2-29.5-9c-1.2-1.1-4.4-3.8-7-6s-5.2-4.4-5.8-5s-4-3.5-7.6-6.5s-7.2-6.2-8-7.1
			s-6.5-5.9-12.5-11c-11.7-10-19.7-17.1-25.5-22.8c-2-1.9-6.7-6.4-10.6-9.9s-9.7-8.9-13-12c-6.6-6.1-26.2-24.2-33.2-30.6
			c-2.4-2.2-11.9-11.4-21.1-20.4s-23-22.2-30.7-29.4c-13-12.1-37.9-35.6-50-47.2c-5.6-5.3-28.3-26.6-32.6-30.6
			c-20.3-18.6-32.9-30.6-32.9-31.6c0-2.8,18.9-25.3,21.3-25.3C1440.2,171.8,1442.7,173.5,1445.3,175.5"/>
		
			<linearGradient id="abaead51-3898-41f1-869d-12c449450f00_00000071549537610497893170000007465067968221759628_" gradientUnits="userSpaceOnUse" x1="-447.4615" y1="29.3751" x2="-446.2215" y2="30.3751" gradientTransform="matrix(81 0 0 51.12 37466 -1319.8804)">
			<stop  offset="0" style="stop-color:#28221B;stop-opacity:0.71"/>
			<stop  offset="1" style="stop-color:#271F19;stop-opacity:0.82"/>
		</linearGradient>
		
			<path id="abaead51-3898-41f1-869d-12c449450f00" style="fill:url(#abaead51-3898-41f1-869d-12c449450f00_00000071549537610497893170000007465067968221759628_);" d="
			M1291.1,192.3c11.6,10,15.3,13.8,15.3,15.6s-9.2,13.3-19.8,24.8l-5,5.4l-4.6-1.7c-2.5-0.9-5.1-2.4-5.8-3.2
			c-0.5-0.7-1.3-1.2-2.1-1.4c-4.7,0-43.8-35.8-43.8-40.1c0-0.5,3,2.5,6.6,6.6c6.2,7.1,10.6,10.5,13.6,10.5c0.7,0,3.2,1.8,5.6,4
			s7.3,6.2,11,9s7.2,5.4,7.8,5.9c1.7,1.1,3.4,2.1,5.3,3c4.8,2.4,6.4,2,10.4-3.1c1.4-1.8,5.3-6.2,8.7-9.8s6.3-7.3,6.7-8.4
			c0.7-2-1-3.8-13-14.2c-4.3-3.8-5.7-5.6-5.2-6.8C1283.6,186.1,1284.2,186.3,1291.1,192.3"/>
	</g>
	<g id="ebb3c4d3-8022-46d6-9fe1-7a213222fb5d">
		
			<linearGradient id="ad210fde-ae81-4263-9963-1924d82ae71a_00000055669155842324829370000007733400004032688056_" gradientUnits="userSpaceOnUse" x1="-431.1342" y1="26.1722" x2="-431.6642" y2="25.1722" gradientTransform="matrix(63.32 0 0 117.7 29327.8691 -2930.1995)">
			<stop  offset="0" style="stop-color:#292320;stop-opacity:0.8"/>
			<stop  offset="1" style="stop-color:#221C1A;stop-opacity:0.74"/>
		</linearGradient>
		
			<path id="ad210fde-ae81-4263-9963-1924d82ae71a" style="fill:url(#ad210fde-ae81-4263-9963-1924d82ae71a_00000055669155842324829370000007733400004032688056_);" d="
			M2024.4,35.9c-6.1,3.2-11.2,7.9-15.1,13.6c-6.1,8.8-2.4,9.8,6.3,1.8c5.4-5,12.4-9.5,14.5-9.4c0.4,0-0.9,0.9-3,2
			c-8.5,4.5-17.3,14.6-24.8,28.4c-5.8,10.8-4.3,20.2,5,31.6c5.4,6.7,22.2,26,25.9,29.9c8.8,9.3,9.2,10.9,4.2,15.4
			c-1.9,1.7-2.4,1.8-4.8,0.5c-1.5-0.8-13.2-11.8-26.1-24.4c-19.6-19.3-23.9-24-26.3-29c-1.6-3.3-2.9-7.4-2.9-9.2
			c0-3.5,4.5-16.9,6.4-19.3c1.4-1.9,2.7-3.9,3.8-6c5.6-9.7,18.6-21,29-25.1C2028.3,32,2032.1,31.6,2024.4,35.9"/>
		
			<linearGradient id="b9edac4c-3615-4bfa-b991-557a0b8c0cf2_00000057867372010769357430000016794224286137955994_" gradientUnits="userSpaceOnUse" x1="-442.2776" y1="38.7719" x2="-443.0276" y2="37.7719" gradientTransform="matrix(91.66 0 0 23.9 42619.3633 -866.7993)">
			<stop  offset="0" style="stop-color:#9A8E8C;stop-opacity:0.69"/>
			<stop  offset="1" style="stop-color:#908887;stop-opacity:0.65"/>
		</linearGradient>
		
			<path id="b9edac4c-3615-4bfa-b991-557a0b8c0cf2" style="fill:url(#b9edac4c-3615-4bfa-b991-557a0b8c0cf2_00000057867372010769357430000016794224286137955994_);stroke:#000000;stroke-miterlimit:10;" d="
			M2054.4,33.8c7.9,1.4,31.5,6.5,38,8.3l5.5,1.5l-8-0.5c-4.4-0.3-11.1-0.9-15-1.5c-15.9-2.3-20.4-2.7-28.8-2.8
			c-11.8-0.1-20.7,3.5-30,12s-13,7.6-6.8-1.4c3.9-5.7,9-10.4,15.1-13.6c5-2.8,6.3-3,15-3C2044.4,32.9,2049.4,33.2,2054.4,33.8"/>
		
			<linearGradient id="f8d26aaf-d5e4-44ca-acdd-1dfff9ec1bc3_00000127039386475350849970000003464457592211506560_" gradientUnits="userSpaceOnUse" x1="-444.8857" y1="26.4757" x2="-444.9557" y2="25.4757" gradientTransform="matrix(101.23 0 0 108.2 46983.2422 -2711.8713)">
			<stop  offset="0" style="stop-color:#C8C0BE;stop-opacity:0.77"/>
			<stop  offset="1" style="stop-color:#BEB6B5;stop-opacity:0.8"/>
		</linearGradient>
		
			<path id="f8d26aaf-d5e4-44ca-acdd-1dfff9ec1bc3" style="fill:url(#f8d26aaf-d5e4-44ca-acdd-1dfff9ec1bc3_00000127039386475350849970000003464457592211506560_);stroke:#000000;stroke-miterlimit:10;" d="
			M1988.7,44.4c-5.9,1.6-11.8,5.1-17.6,10.3c-2.2,2-16.1,18.2-31,36.1c-39.5,47.5-39.7,47.7-39.7,48.7c0,0.5,1.6,3.3,3.6,6.3
			l3.6,5.4l-3.4-2.4c-5.4-3.8-10.7-9.5-11.4-12.4c-0.6-2.3,0.1-3.5,5.2-8.9c3.2-3.4,9-9.8,12.9-14.1s8.1-9.1,9.5-10.6
			c3.1-3.3,15.9-17.5,23-25.5c2.9-3.3,5.6-6.2,5.9-6.5c0.8-0.7,6.4-7.2,11.9-13.8c7.3-8.7,17.6-14.1,27.1-14.1h5.5L1988.7,44.4"/>
		
			<linearGradient id="f4aed0ab-f900-4b5a-9250-8b869c685406_00000178193870582478636580000005278534735240334780_" gradientUnits="userSpaceOnUse" x1="-451.7802" y1="29.6209" x2="-450.7802" y2="29.6009" gradientTransform="matrix(140.79 0 0 52.65 65483.582 -1395.5096)">
			<stop  offset="0" style="stop-color:#2D2622;stop-opacity:0.76"/>
			<stop  offset="1" style="stop-color:#292320;stop-opacity:0.81"/>
		</linearGradient>
		
			<path id="f4aed0ab-f900-4b5a-9250-8b869c685406" style="fill:url(#f4aed0ab-f900-4b5a-9250-8b869c685406_00000178193870582478636580000005278534735240334780_);" d="
			M1968.1,137.8c3.1,0.5,6.1,1.3,9,2.5c1.2,0.7,2.5,1.2,3.9,1.5c1,0,15.5,8.2,17.9,10.1c9.7,7.6,19.6,16.7,19.6,18
			c0,0.9-1.6,3.3-3.6,5.3l-3.6,3.7l-3.2-2c-1.7-1.1-4.4-2.8-6-3.8s-4.4-2.8-6.3-4c-6.9-4.1-14.1-7.9-21.4-11.1
			c-6.1-2.7-14.6-3.6-19.2-2.1c-7.7,2.5-19.1,17.9-24,32.3c-0.8,2.4-3.1,2.2-6-0.5c-7.2-6.6-12.6-11.4-25.1-22.2
			c-22.6-19.6-22.8-19.9-22.1-22.2c0.9-2.7,3.7-3.8,4.8-1.9c0.6,1,1.3,1.9,2.1,2.8c1.3,1.5,2.5,3.1,3.6,4.8c3.4,5,10.8,10.7,16.9,13
			l5.3,2l5.2-2.4c3.2-1.4,8.1-5.2,12.6-9.5c13-12.8,24-16.6,39.8-14.1"/>
		
			<linearGradient id="a97df928-f055-4993-b4c4-9219b700a520_00000092445824589377734720000012195041712672858790_" gradientUnits="userSpaceOnUse" x1="-360.9839" y1="32.869" x2="-361.3139" y2="31.869" gradientTransform="matrix(21.48 0 0 38 9615.6094 -1046)">
			<stop  offset="0" style="stop-color:#C2BCBC;stop-opacity:0.8"/>
			<stop  offset="1" style="stop-color:#C1B9B8;stop-opacity:0.8"/>
		</linearGradient>
		
			<path id="a97df928-f055-4993-b4c4-9219b700a520" style="fill:url(#a97df928-f055-4993-b4c4-9219b700a520_00000092445824589377734720000012195041712672858790_);stroke:#000000;stroke-miterlimit:10;" d="
			M1865.4,166.6c-0.4,1.1-1,2-1.8,2.8c-3.8,4.3-8.3,10.4-9.4,12.8c-1.9,4.1-0.3,7,7.6,14.5c4.1,3.9,7.3,7.1,7,7.1
			c-2.3,0-9.1-5-14.7-10.8c-5.9-6.1-6.8-7.5-6.8-10.8s0.7-4.5,6.5-10.1c4.4-4.2,7.3-6.3,9-6.3
			C1864.3,165.8,1865.4,166.2,1865.4,166.6"/>
		
			<linearGradient id="efd1f8b4-69d0-41fd-af36-783cfa7c7966_00000124880558983436092030000005091840113989826709_" gradientUnits="userSpaceOnUse" x1="-459.386" y1="24.4469" x2="-459.466" y2="23.4469" gradientTransform="matrix(282.77 0 0 259.96 132082.4375 -5926.6831)">
			<stop  offset="0" style="stop-color:#FFD98F;stop-opacity:0.81"/>
			<stop  offset="1" style="stop-color:#FFEEC4;stop-opacity:0.31"/>
		</linearGradient>
		
			<path id="efd1f8b4-69d0-41fd-af36-783cfa7c7966" style="fill:url(#efd1f8b4-69d0-41fd-af36-783cfa7c7966_00000124880558983436092030000005091840113989826709_);stroke:#000000;stroke-miterlimit:10;" d="
			M2047.4,186.3c3,2.7,9.8,9,15,14c23.5,22.3,33.1,31.2,48.3,44.6c2.2,1.9,4.9,4.4,6.1,5.5s4.8,4.2,8.1,7c7.1,5.9,28.5,26.6,47.4,46
			c19.6,20,24.9,25.3,33.1,32.6c4,3.6,8.5,7.6,10,9l15.1,14.1c6.8,6.4,14.6,13.6,17.4,16s7.2,6.5,10,9.1s11.3,9.7,19,15.8
			c33,26.3,36.1,29,35.2,31.5c-0.4,1.2-3.6-1-13-8.7c-6.8-5.6-13.7-11.2-15.3-12.5s-5.6-4.3-8.9-6.8c-9-6.8-17.7-14.1-25.9-21.8
			c-2.2-2.1-4.2-3.8-4.6-3.8s-2.9-2.1-5.6-4.8c-5.7-5.4-23.8-22-32.9-30.2c-3.3-3-16.6-16.1-29.6-29.2s-26-25.9-29-28.5
			s-9.3-8.4-14-12.8s-15-14.2-22.9-21.6s-16.1-15.1-18-17s-9.7-9.1-17.1-16c-41.1-38.2-47.1-44.2-45.8-45.7c1-1.1,2.2-0.4,6.7,4
			C2039.4,179,2044.4,183.6,2047.4,186.3"/>
		
			<linearGradient id="bc54e4f4-2ca3-4607-bfa9-bbf93b8ac73c_00000045615377354378505450000017593259700758701956_" gradientUnits="userSpaceOnUse" x1="-423.9102" y1="30.6689" x2="-423.6602" y2="31.6689" gradientTransform="matrix(52.23 0 0 43.37 24024.8496 -1149.9702)">
			<stop  offset="0" style="stop-color:#1E1917;stop-opacity:0.52"/>
			<stop  offset="1" style="stop-color:#080502;stop-opacity:0.61"/>
		</linearGradient>
		
			<path id="bc54e4f4-2ca3-4607-bfa9-bbf93b8ac73c" style="fill:url(#bc54e4f4-2ca3-4607-bfa9-bbf93b8ac73c_00000045615377354378505450000017593259700758701956_);" d="
			M1903.4,188.6c14,12.6,14.2,12.9,13.6,14.9c-0.3,1-3.3,4.8-6.7,8.4s-7.2,8-8.7,9.8c-4,5.1-5.6,5.6-10.4,3.1
			c-1.8-0.9-3.6-1.9-5.3-3c-0.6-0.5-4.1-3.1-7.7-5.8s-8.1-6.3-10-8l-3.4-3.1h3.5c5.7,0,13.6-4.4,20.5-11.4c3.5-3.6,6.7-7.4,7-8.5
			c0.2-0.7,0.5-1.4,0.9-2C1896.9,182.9,1899.9,185.5,1903.4,188.6"/>
	</g>
	<line class="st37" x1="599" y1="0" x2="599" y2="520"/>
	<line class="st37" x1="1200" y1="0" x2="1200" y2="520"/>
	<line class="st37" x1="1799" y1="0" x2="1799" y2="520"/>
</g>
</svg>
