<?xml version="1.0" encoding="UTF-8"?>
<svg xmlns="http://www.w3.org/2000/svg" xmlns:xlink="http://www.w3.org/1999/xlink" viewBox="0 0 2000 501">
  <defs>
    <style>
      .cls-1 {
        fill: url(#_未命名的渐变_5);
      }

      .cls-2 {
        fill: url(#_未命名的渐变_4-2);
      }

      .cls-3 {
        fill: url(#_未命名的渐变_4);
      }

      .cls-4 {
        fill: url(#_未命名的渐变_5-2);
      }

      .cls-5 {
        fill: url(#_未命名的渐变_3-2);
      }

      .cls-6 {
        stroke: #000;
        stroke-miterlimit: 10;
        stroke-width: 2px;
      }

      .cls-6, .cls-7 {
        fill: none;
      }

      .cls-8 {
        fill: url(#_未命名的渐变_7-2);
      }

      .cls-9 {
        clip-path: url(#clippath);
      }

      .cls-10 {
        fill: #d3d3d3;
      }

      .cls-11 {
        fill: url(#_未命名的渐变_2-2);
      }

      .cls-12 {
        fill: url(#_未命名的渐变_6-2);
      }

      .cls-13 {
        fill: url(#_未命名的渐变_6);
      }

      .cls-14 {
        fill: url(#_未命名的渐变_2);
      }

      .cls-15 {
        fill: url(#_未命名的渐变_3);
      }

      .cls-16 {
        fill: url(#_未命名的渐变_7);
      }

      .cls-17 {
        fill: url(#SVGID_0000004992215559029419378);
      }
    </style>
    <clipPath id="clippath">
      <rect class="cls-7" x="0" y="0" width="2000" height="500"/>
    </clipPath>
    <pattern id="SVGID_0000004992215559029419378" data-name="SVGID 0000004992215559029419378" x="0" y="0" width="40" height="40" patternTransform="translate(26.5 -32.11) scale(1 -1)" patternUnits="userSpaceOnUse" viewBox="0 0 40 40">
      <g>
        <rect class="cls-7" width="40" height="40"/>
        <g>
          <rect class="cls-7" width="40" height="40"/>
          <g>
            <rect class="cls-7" width="40" height="40"/>
            <g>
              <rect class="cls-7" width="40" height="40"/>
              <g>
                <polygon class="cls-7" points="0 0 40 0 40 40 0 40 0 0"/>
                <polygon class="cls-10" points="0 20 20 20 20 40 0 40 0 20"/>
                <polygon class="cls-10" points="20 0 40 0 40 20 20 20 20 0"/>
              </g>
            </g>
          </g>
        </g>
      </g>
    </pattern>
    <linearGradient id="_未命名的渐变_7" data-name="未命名的渐变 7" x1="425.15" y1="550.1" x2="426.15" y2="551.1" gradientTransform="translate(-212574.01 -275049.01) scale(500)" gradientUnits="userSpaceOnUse">
      <stop offset="0" stop-color="#007f00"/>
      <stop offset="1" stop-color="#007f7f"/>
    </linearGradient>
    <linearGradient id="_未命名的渐变_2" data-name="未命名的渐变 2" x1="422.13" y1="550.2" x2="423.47" y2="551.17" gradientTransform="translate(-47283 -257431.01) scale(112 468)" gradientUnits="userSpaceOnUse">
      <stop offset="0" stop-color="#962f28" stop-opacity=".61"/>
      <stop offset="1" stop-color="#093633" stop-opacity=".5"/>
    </linearGradient>
    <linearGradient id="_未命名的渐变_3" data-name="未命名的渐变 3" x1="422.88" y1="550.09" x2="423.7" y2="551.11" gradientTransform="translate(-56306 -196378.01) scale(134 357)" gradientUnits="userSpaceOnUse">
      <stop offset="0" stop-color="#05e707" stop-opacity=".31"/>
      <stop offset="1" stop-color="#599d08" stop-opacity=".25"/>
    </linearGradient>
    <linearGradient id="_未命名的渐变_4" data-name="未命名的渐变 4" x1="422.44" y1="550.16" x2="423.59" y2="551.14" gradientTransform="translate(-50921 -235933.01) scale(121 429)" gradientUnits="userSpaceOnUse">
      <stop offset="0" stop-color="#00d50a" stop-opacity=".45"/>
      <stop offset="1" stop-color="#004139" stop-opacity=".39"/>
    </linearGradient>
    <linearGradient id="_未命名的渐变_5" data-name="未命名的渐变 5" x1="424.27" y1="550.13" x2="424.84" y2="551.33" gradientTransform="translate(-92894.7 -120614.11) scale(219.1 219.42)" gradientUnits="userSpaceOnUse">
      <stop offset="0" stop-color="#9d213a" stop-opacity=".28"/>
      <stop offset="1" stop-color="#880d67" stop-opacity=".46"/>
    </linearGradient>
    <linearGradient id="_未命名的渐变_6" data-name="未命名的渐变 6" x1="424.14" y1="550.14" x2="424.82" y2="551.33" gradientTransform="translate(-89290.26 -116236.16) scale(211.24 211.47)" gradientUnits="userSpaceOnUse">
      <stop offset="0" stop-color="#a72f1c" stop-opacity=".29"/>
      <stop offset="1" stop-color="#634b5a" stop-opacity=".22"/>
    </linearGradient>
    <linearGradient id="_未命名的渐变_2-2" data-name="未命名的渐变 2" x1="431.11" y1="550.17" x2="432.45" y2="551.15" xlink:href="#_未命名的渐变_2"/>
    <linearGradient id="_未命名的渐变_3-2" data-name="未命名的渐变 3" x1="430.39" y1="550.06" x2="431.21" y2="551.08" xlink:href="#_未命名的渐变_3"/>
    <linearGradient id="_未命名的渐变_4-2" data-name="未命名的渐变 4" x1="430.76" y1="550.13" x2="431.91" y2="551.12" xlink:href="#_未命名的渐变_4"/>
    <linearGradient id="_未命名的渐变_5-2" data-name="未命名的渐变 5" x1="431.14" y1="550.24" x2="431.72" y2="551.44" xlink:href="#_未命名的渐变_5"/>
    <linearGradient id="_未命名的渐变_6-2" data-name="未命名的渐变 6" x1="431.27" y1="550.26" x2="431.95" y2="551.45" xlink:href="#_未命名的渐变_6"/>
    <linearGradient id="_未命名的渐变_7-2" data-name="未命名的渐变 7" x1="426.15" y1="550.1" x2="427.15" y2="551.1" xlink:href="#_未命名的渐变_7"/>
  </defs>
  <g id="_图层_1" data-name="图层 1">
    <g class="cls-9">
      <rect class="cls-17" x="0" y="0" width="1998.69" height="499.68"/>
    </g>
    <g id="layer-1">
      <path id="region-1-1" class="cls-16" d="M0,251v250H500V1H0V251Z"/>
    </g>
    <g id="layer-2">
      <path id="region-2-1" class="cls-14" d="M3,253v234H115V19H3V253Z"/>
      <path id="region-2-2" class="cls-15" d="M352,200.5v178.5h134V22h-134V200.5Z"/>
      <path id="region-2-3" class="cls-3" d="M199,281.5v214.5h121V67h-121v214.5Z"/>
    </g>
    <g id="layer-3">
      <path id="region-3-1" class="cls-1" d="M120.5,117.7c-39.1,1.9-74.2,24.3-92.1,58.6-8.8,17.1-12.5,32-12.5,51.2s3.7,34.1,12.5,51.2c13,25,34.9,43.7,62,52.9,21.5,7.3,48.7,7.3,70.2,0,37.8-12.8,65.4-44.7,72.9-84,2-10.4,2-29.8,0-40.2-8.3-43.7-41.4-77.8-85-87.4-6.1-1.4-21.1-2.6-28-2.3Z"/>
      <path id="region-3-2" class="cls-13" d="M370.5,121.7c-27.1,1.3-52.1,12.7-71,32.5-8.9,9.2-13.2,15.2-18.3,25.3-8.1,16.1-11.3,29.6-11.3,48,0,29.9,10.9,55.5,32.3,76,9.2,8.9,15.2,13.2,25.3,18.3,16.1,8.1,29.6,11.3,48,11.3s31.9-3.2,48-11.3c28.8-14.5,50-42.6,56.1-74.8,3-15.6,1.5-37.8-3.6-53-11.5-34.2-40.3-60.7-75.4-69.5-7.4-1.8-21.9-3.2-30.1-2.8Z"/>
    </g>
    <g id="layer-2-2" data-name="layer-2">
      <path id="region-2-1-2" data-name="region-2-1" class="cls-11" d="M1009,243v234h112V9h-112V243Z"/>
      <path id="region-2-2-2" data-name="region-2-2" class="cls-5" d="M1358,190.5v178.5h134V12h-134V190.5Z"/>
      <path id="region-2-3-2" data-name="region-2-3" class="cls-2" d="M1205,271.5v214.5h121V57h-121v214.5Z"/>
    </g>
    <g id="layer-3-2" data-name="layer-3">
      <path id="region-3-1-2" data-name="region-3-1" class="cls-4" d="M1626.58,142.88c-39.1,1.9-74.2,24.3-92.1,58.6-8.8,17.1-12.5,32-12.5,51.2s3.7,34.1,12.5,51.2c13,25,34.9,43.7,62,52.9,21.5,7.3,48.7,7.3,70.2,0,37.8-12.8,65.4-44.7,72.9-84,2-10.4,2-29.8,0-40.2-8.3-43.7-41.4-77.8-85-87.4-6.1-1.4-21.1-2.6-28-2.3Z"/>
      <path id="region-3-2-2" data-name="region-3-2" class="cls-12" d="M1876.58,146.88c-27.1,1.3-52.1,12.7-71,32.5-8.9,9.2-13.2,15.2-18.3,25.3-8.1,16.1-11.3,29.6-11.3,48,0,29.9,10.9,55.5,32.3,76,9.2,8.9,15.2,13.2,25.3,18.3,16.1,8.1,29.6,11.3,48,11.3s31.9-3.2,48-11.3c28.8-14.5,50-42.6,56.1-74.8,3-15.6,1.5-37.8-3.6-53-11.5-34.2-40.3-60.7-75.4-69.5-7.4-1.8-21.9-3.2-30.1-2.8Z"/>
    </g>
    <line class="cls-6" x1="1002" y1="1" x2="1002" y2="501"/>
    <line class="cls-6" x1="1507" y1="0" x2="1507" y2="500"/>
  </g>
  <g id="_图层_2" data-name="图层 2">
    <g id="layer-1-2" data-name="layer-1">
      <path id="region-1-1-2" data-name="region-1-1" class="cls-8" d="M502,250v250h500V0H502V250Z"/>
    </g>
  </g>
</svg>