<?xml version="1.0" encoding="utf-8"?>
<!-- Generator: Adobe Illustrator 26.5.0, SVG Export Plug-In . SVG Version: 6.00 Build 0)  -->
<svg version="1.1" id="图层_1" xmlns="http://www.w3.org/2000/svg" xmlns:xlink="http://www.w3.org/1999/xlink" x="0px" y="0px"
	 viewBox="0 0 1425 430" style="enable-background:new 0 0 1425 430;" xml:space="preserve">
<style type="text/css">
	.st0{fill:none;}
	.st1{fill:#D3D3D3;}
	.st2{fill:url(#SVGID_1_);}
	.st3{fill:url(#e9991782-b38d-4a00-84fc-8ab5a13c718b_00000176743249529214260570000010484279134301748359_);}
	.st4{fill:url(#baaff1c5-d32a-47c7-b2da-c2477c88baf3_00000102545897244958901630000017948719257058168984_);}
	.st5{fill:url(#e7353e20-4072-4531-b916-8e3f1e421693_00000169540158594121081370000002484682365713406351_);}
	.st6{fill:url(#aa10d106-b38a-498a-913e-49e79eae0840_00000155834572114565957910000007157612188596546948_);}
	.st7{fill:url(#f1df8807-39c7-4747-ae4f-49930db4828f_00000088849393703166778580000016471865186989329059_);}
	.st8{fill:#3D3939;}
	.st9{fill:url(#f66734e3-6064-4b5a-b96c-9471c26c2a50_00000115479489757514072520000002611587981381167251_);}
	.st10{fill:url(#af6dd207-dd6d-4765-8520-a7d4f9bb7f8a_00000096018528273369732390000000223897931097516168_);}
	.st11{fill:url(#be6c4573-8cf2-492a-b2ec-8bca3484985f_00000173844555337718800970000004545042400716180391_);}
	
		.st12{fill:url(#bba0ec4b-0cbc-4cb5-9d46-d1821cc0dc9a_00000002375908545279764590000006464911425112467106_);stroke:#000000;stroke-miterlimit:10;}
	.st13{fill:url(#f92f9061-f971-42ef-9332-1fa669780f53_00000021119971270847670910000004516516072788922272_);}
	.st14{fill:none;stroke:#000000;stroke-width:4;stroke-miterlimit:10;}
</style>
<pattern  y="430" width="40" height="40" patternUnits="userSpaceOnUse" id="a6497234-3c94-4285-b624-7704c36" viewBox="0 -40 40 40" style="overflow:visible;">
	<g>
		<rect y="-40" class="st0" width="40" height="40"/>
		<rect y="-40" class="st0" width="40" height="40"/>
		<rect y="-40" class="st0" width="40" height="40"/>
		<rect y="-20" class="st1" width="20" height="20"/>
		<rect x="20" y="-40" class="st1" width="20" height="20"/>
	</g>
</pattern>
<g id="f65d2900-bb21-4eb2-aa06-6fb4e050c9bb">
	<pattern  id="SVGID_1_" xlink:href="#a6497234-3c94-4285-b624-7704c36" patternTransform="matrix(1 0 0 -1 101 -32412)">
	</pattern>
	<rect x="287" class="st2" width="1138" height="430"/>
	<g id="a27de09a-f3d5-4184-9240-69da842e0193">
		
			<linearGradient id="e9991782-b38d-4a00-84fc-8ab5a13c718b_00000049200080681006122420000003364029850553690015_" gradientUnits="userSpaceOnUse" x1="-1074.4845" y1="676.8719" x2="-1074.2045" y2="675.8719" gradientTransform="matrix(175.26 0 0 -358 188429.6562 242349)">
			<stop  offset="0" style="stop-color:#594C4E"/>
			<stop  offset="1" style="stop-color:#000000"/>
		</linearGradient>
		
			<path id="e9991782-b38d-4a00-84fc-8ab5a13c718b" style="fill:url(#e9991782-b38d-4a00-84fc-8ab5a13c718b_00000049200080681006122420000003364029850553690015_);" d="
			M208.1,31.2c4.1,0.8,12,7,15.7,12.2c3,4.2,3.1,4.7,3.8,20.5c0.4,8.9,0.8,19.9,0.8,24.4v16.2c0,4.4,0,11.7-0.1,16.2
			s-0.4,62.2-0.8,128.2l-0.7,120l-2.7,5c-3.2,6.1-5.8,8.5-12.6,11.9l-5.2,2.6H74.1l-5.1-3c-2.8-1.6-5.8-3.6-6.7-4.2
			c-2.2-1.7-7.5-9.7-8.5-12.8c-0.5-1.4-0.7-73.8-0.5-161l0.3-158.5l2.4-4c3.2-5.3,5.1-7.4,10.4-11.3l4.4-3.2H138
			C174.9,30.6,206.5,30.9,208.1,31.2"/>
	</g>
	<g id="a4372638-c1b7-41b3-8638-db1c71c2a4eb">
		
			<linearGradient id="baaff1c5-d32a-47c7-b2da-c2477c88baf3_00000049214639828389781180000002566652835374235810_" gradientUnits="userSpaceOnUse" x1="-1073.3356" y1="675.4114" x2="-1073.3356" y2="676.4114" gradientTransform="matrix(150.35 0 0 -255 161516.5312 172566)">
			<stop  offset="0" style="stop-color:#FA10E3;stop-opacity:0.72"/>
			<stop  offset="1" style="stop-color:#6349F7;stop-opacity:0.87"/>
		</linearGradient>
		
			<path id="baaff1c5-d32a-47c7-b2da-c2477c88baf3" style="fill:url(#baaff1c5-d32a-47c7-b2da-c2477c88baf3_00000049214639828389781180000002566652835374235810_);" d="
			M215.6,184.4c0.1,56.5,0.1,113.9,0,127.5l-0.2,24.7h-150v-255h150L215.6,184.4"/>
		
			<linearGradient id="e7353e20-4072-4531-b916-8e3f1e421693_00000110469855751431764900000001439091200443541401_" gradientUnits="userSpaceOnUse" x1="-1052.5992" y1="649.4053" x2="-1053.0492" y2="650.4053" gradientTransform="matrix(39 0 0 -14.69 41200 9911.9795)">
			<stop  offset="0" style="stop-color:#474849;stop-opacity:0.79"/>
			<stop  offset="1" style="stop-color:#454647;stop-opacity:0.77"/>
		</linearGradient>
		
			<path id="e7353e20-4072-4531-b916-8e3f1e421693" style="fill:url(#e7353e20-4072-4531-b916-8e3f1e421693_00000110469855751431764900000001439091200443541401_);" d="
			M150.7,358.2l7.7,0.6v5.8c0,4.8-0.3,6-2.1,6.9c-1.3,0.7-7.9,1-18.5,0.8c-18.7-0.4-18.4-0.2-18.4-8.5v-5.2l5.8-0.4
			C133.7,357.6,142.2,357.6,150.7,358.2"/>
	</g>
	<g id="b523b181-8afa-47e1-98cf-8da287b99f80">
		
			<linearGradient id="aa10d106-b38a-498a-913e-49e79eae0840_00000037687564093803446430000012011068139103407012_" gradientUnits="userSpaceOnUse" x1="-1068.9341" y1="676.8556" x2="-1067.9341" y2="675.8056" gradientTransform="matrix(91.09 0 0 -293.13 97527.3828 198367.1562)">
			<stop  offset="0" style="stop-color:#C2ECFB;stop-opacity:0.38"/>
			<stop  offset="1" style="stop-color:#C1FFFF;stop-opacity:0.18"/>
		</linearGradient>
		
			<path id="aa10d106-b38a-498a-913e-49e79eae0840" style="fill:url(#aa10d106-b38a-498a-913e-49e79eae0840_00000037687564093803446430000012011068139103407012_);" d="
			M208.1,31.2c4.1,0.8,12,7,15.7,12.2c3,4.2,3.1,4.7,3.8,20.5c0.4,8.9,0.8,19.9,0.8,24.4v16.2c0,4.4,0,11.7-0.1,16.2
			s-0.4,52-0.8,105.6l-0.7,97.3l-2.4-8.8c-1.3-4.9-4.3-14.7-6.7-21.8c-3.5-10.8-58.3-188.1-68.3-221c-1.7-5.5-3.5-11.3-4.1-13
			c-1.5-4.3-8.1-27-8.1-27.8C137.4,30.4,204,30.4,208.1,31.2"/>
	</g>
	<g id="ecd27e2c-2b12-48dd-8f72-0792ec8217ad">
		
			<linearGradient id="f1df8807-39c7-4747-ae4f-49930db4828f_00000083082956431025347550000009063994177541440675_" gradientUnits="userSpaceOnUse" x1="-1058.8595" y1="607.4235" x2="-1058.9294" y2="608.4235" gradientTransform="matrix(49.94 0 0 -5.83 53021.5859 3601.76)">
			<stop  offset="0" style="stop-color:#464646;stop-opacity:0.82"/>
			<stop  offset="1" style="stop-color:#454545;stop-opacity:0.81"/>
		</linearGradient>
		
			<path id="f1df8807-39c7-4747-ae4f-49930db4828f" style="fill:url(#f1df8807-39c7-4747-ae4f-49930db4828f_00000083082956431025347550000009063994177541440675_);" d="
			M164.2,55.5c0.8,0.7,1.2,1.7,1,2.7c-0.3,1.8-1.8,1.9-22.8,2.2c-12.4,0.2-23.5,0-24.7-0.3c-2.1-0.5-3.1-3.4-1.6-4.8
			C117.1,54.3,162.7,54.5,164.2,55.5"/>
	</g>
	<rect x="228.3" y="77.6" class="st8" width="1" height="13"/>
	<rect x="229.4" y="79.6" class="st8" width="1" height="9"/>
	<rect x="228.3" y="102.6" class="st8" width="1" height="13"/>
	<rect x="229.4" y="104.6" class="st8" width="1" height="9"/>
</g>
<g id="a95e51f1-0b55-4ccc-94e9-32a63e91bcee">
	<g id="bf05e010-6fbe-4476-9fa6-3eb66030869d">
		
			<linearGradient id="f66734e3-6064-4b5a-b96c-9471c26c2a50_00000125580266123880572250000006444175446585833627_" gradientUnits="userSpaceOnUse" x1="-1072.8354" y1="676.8716" x2="-1072.5654" y2="675.8716" gradientTransform="matrix(175.26 0 0 -358 188429.6562 242349)">
			<stop  offset="0" style="stop-color:#594C4E"/>
			<stop  offset="1" style="stop-color:#000000"/>
		</linearGradient>
		
			<path id="f66734e3-6064-4b5a-b96c-9471c26c2a50" style="fill:url(#f66734e3-6064-4b5a-b96c-9471c26c2a50_00000125580266123880572250000006444175446585833627_);" d="
			M496.2,31.4c4.1,0.8,12,7,15.7,12.2c3,4.2,3.1,4.7,3.8,20.5c0.4,8.9,0.8,19.9,0.8,24.4v16.2c0,4.4,0,11.7-0.1,16.2
			s-0.4,62.2-0.8,128.2l-0.7,120l-2.7,5c-3.2,6.1-5.8,8.5-12.6,11.9l-5.2,2.6H362.2l-5.1-3c-2.8-1.6-5.8-3.6-6.7-4.2
			c-2.2-1.7-7.5-9.7-8.5-12.8c-0.5-1.4-0.7-73.8-0.5-161l0.3-158.5l2.4-4c3.2-5.3,5.1-7.4,10.4-11.3l4.4-3.2h67.2
			C463,30.8,494.6,31.1,496.2,31.4"/>
	</g>
	<g id="a2f62328-a1ef-421a-ad9d-5788da87c577">
		
			<linearGradient id="af6dd207-dd6d-4765-8520-a7d4f9bb7f8a_00000156547517693729785950000010882086534304152731_" gradientUnits="userSpaceOnUse" x1="-1069.4769" y1="675.4814" x2="-1069.4769" y2="676.4814" gradientTransform="matrix(150.35 0 0 -255 161516.5312 172566)">
			<stop  offset="0" style="stop-color:#FA10E3;stop-opacity:0.72"/>
			<stop  offset="1" style="stop-color:#6349F7;stop-opacity:0.87"/>
		</linearGradient>
		
			<path id="af6dd207-dd6d-4765-8520-a7d4f9bb7f8a" style="fill:url(#af6dd207-dd6d-4765-8520-a7d4f9bb7f8a_00000156547517693729785950000010882086534304152731_);" d="
			M795.7,166.6c0.1,56.5,0.1,113.9,0,127.5l-0.2,24.7h-150v-255h150L795.7,166.6"/>
		
			<linearGradient id="be6c4573-8cf2-492a-b2ec-8bca3484985f_00000033333188207539577630000015988970356677059219_" gradientUnits="userSpaceOnUse" x1="-1037.7283" y1="650.6157" x2="-1038.1682" y2="651.6157" gradientTransform="matrix(39 0 0 -14.69 41200 9911.9795)">
			<stop  offset="0" style="stop-color:#474849;stop-opacity:0.79"/>
			<stop  offset="1" style="stop-color:#454647;stop-opacity:0.77"/>
		</linearGradient>
		
			<path id="be6c4573-8cf2-492a-b2ec-8bca3484985f" style="fill:url(#be6c4573-8cf2-492a-b2ec-8bca3484985f_00000033333188207539577630000015988970356677059219_);" d="
			M730.8,340.4l7.7,0.6v5.8c0,4.8-0.3,6-2.1,6.9c-1.3,0.7-7.9,1-18.5,0.8c-18.7-0.4-18.4-0.2-18.4-8.5v-5.2l5.8-0.4
			C713.8,339.8,722.3,339.8,730.8,340.4"/>
	</g>
	<g id="e14b2eaa-6595-462f-ae22-671a34129c35">
		
			<linearGradient id="bba0ec4b-0cbc-4cb5-9d46-d1821cc0dc9a_00000150810180315327917360000009777664706952729986_" gradientUnits="userSpaceOnUse" x1="-1059.5923" y1="676.8573" x2="-1058.5923" y2="675.8073" gradientTransform="matrix(91.09 0 0 -293.13 97527.3828 198367.1562)">
			<stop  offset="0" style="stop-color:#C2ECFB;stop-opacity:0.38"/>
			<stop  offset="1" style="stop-color:#C1FFFF;stop-opacity:0.18"/>
		</linearGradient>
		
			<path id="bba0ec4b-0cbc-4cb5-9d46-d1821cc0dc9a" style="fill:url(#bba0ec4b-0cbc-4cb5-9d46-d1821cc0dc9a_00000150810180315327917360000009777664706952729986_);stroke:#000000;stroke-miterlimit:10;" d="
			M1059.2,31.4c4.1,0.8,12,7,15.7,12.2c3,4.2,3.1,4.7,3.8,20.5c0.4,8.9,0.8,19.9,0.8,24.4v16.2c0,4.4,0,11.7-0.1,16.2
			s-0.4,52-0.8,105.6l-0.7,97.3l-2.4-8.8c-1.3-4.9-4.3-14.7-6.7-21.8c-3.5-10.8-58.3-188.1-68.3-221c-1.7-5.5-3.5-11.3-4.1-13
			c-1.5-4.3-8.1-27-8.1-27.8C988.5,30.6,1055.1,30.6,1059.2,31.4"/>
	</g>
	<g id="b8f0f9ed-1dc3-415f-8a3b-f7b7348d0f50">
		
			<linearGradient id="f92f9061-f971-42ef-9332-1fa669780f53_00000035524685685335600880000000456590062284224685_" gradientUnits="userSpaceOnUse" x1="-1035.9686" y1="607.3836" x2="-1036.0386" y2="608.3836" gradientTransform="matrix(49.94 0 0 -5.83 53021.5859 3601.76)">
			<stop  offset="0" style="stop-color:#464646;stop-opacity:0.82"/>
			<stop  offset="1" style="stop-color:#454545;stop-opacity:0.81"/>
		</linearGradient>
		
			<path id="f92f9061-f971-42ef-9332-1fa669780f53" style="fill:url(#f92f9061-f971-42ef-9332-1fa669780f53_00000035524685685335600880000000456590062284224685_);" d="
			M1307.3,55.7c0.8,0.7,1.2,1.7,1,2.7c-0.3,1.8-1.8,1.9-22.8,2.2c-12.4,0.2-23.5,0-24.7-0.3c-2.1-0.5-3.1-3.4-1.6-4.8
			C1260.2,54.5,1305.8,54.7,1307.3,55.7"/>
	</g>
	<rect x="516.4" y="77.8" class="st8" width="1" height="13"/>
	<rect x="517.5" y="79.8" class="st8" width="1" height="9"/>
	<rect x="516.4" y="102.8" class="st8" width="1" height="13"/>
	<rect x="517.5" y="104.8" class="st8" width="1" height="9"/>
	<line class="st14" x1="287" y1="0" x2="287" y2="430"/>
	<line class="st14" x1="570" y1="0" x2="570" y2="430"/>
	<line class="st14" x1="876" y1="0" x2="876" y2="430"/>
	<line class="st14" x1="1140" y1="0" x2="1140" y2="430"/>
</g>
</svg>
