<?xml version="1.0" encoding="utf-8"?>
<!-- Generator: Adobe Illustrator 26.5.0, SVG Export Plug-In . SVG Version: 6.00 Build 0)  -->
<svg version="1.1" id="图层_1" xmlns="http://www.w3.org/2000/svg" xmlns:xlink="http://www.w3.org/1999/xlink" x="0px" y="0px"
	 viewBox="0 0 801 400" style="enable-background:new 0 0 801 400;" xml:space="preserve">
<style type="text/css">
	.st0{fill:none;}
	.st1{fill:#D3D3D3;}
	.st2{fill:url(#SVGID_1_);}
	.st3{fill:url(#b74b1518-4f66-4ec1-bdc2-3c4bb44aeb5c_00000147182528154441250000000009382028330431529867_);}
	.st4{fill:url(#ac731c31-12ad-4e7e-be10-a382e8686af9_00000140705969308882863920000017406430324573698689_);}
	.st5{fill:url(#f98498ae-8ed5-4673-96e3-9dd8d4af2df2_00000055681472730337493030000014499905206492452259_);}
	.st6{fill:url(#fffdc672-bfe8-498a-bead-9c56009ecb38_00000169533652954233422730000015856954273668591247_);}
	.st7{fill:url(#a236cf5e-dabb-4c7f-908a-fbf21df109ec_00000130648089591882657410000008071459648275651474_);}
	.st8{fill:url(#f78401dd-fb82-481d-ad17-8b37e77b1ae0_00000087377805892130269850000001856745627904978101_);}
	.st9{fill:url(#ead243f1-2e6c-404c-81e0-00f989f7e900_00000118394098003203565400000016996345215192833688_);}
	.st10{fill:url(#a2cf08bf-b189-42e6-be33-c3f37ae60033_00000006681324141173126690000004231321985926134948_);}
	.st11{fill:url(#a35db1e9-6496-468f-a761-7cbbacf95e49_00000148647445518559866010000013849152779089251001_);}
	.st12{fill:url(#a209bd00-430a-42fb-88f8-a0a11664723e_00000133513990392770866070000011774867670191972540_);}
	.st13{fill:url(#fbfa5308-9cc3-4e96-9e34-ee02dc3ec9cc_00000057869798052994983160000007435280982718399393_);}
	.st14{fill:url(#bb76a787-1baa-41c3-b8ec-d06cb2ab7ff4_00000076598624774486503750000012144660258295212417_);}
	.st15{fill:none;stroke:#231815;stroke-width:4;stroke-miterlimit:10;}
</style>
<pattern  y="400" width="40" height="40" patternUnits="userSpaceOnUse" id="a06a3e93-743f-4e76-82f7-7be346a" viewBox="0 -40 40 40" style="overflow:visible;">
	<g>
		<rect y="-40" class="st0" width="40" height="40"/>
		<rect y="-40" class="st0" width="40" height="40"/>
		<rect y="-40" class="st1" width="20" height="20"/>
		<rect x="20" y="-20" class="st1" width="20" height="20"/>
	</g>
</pattern>
<g id="ab40842a-a49d-4bf8-a33e-f2f32622c4ce">
	<pattern  id="SVGID_1_" xlink:href="#a06a3e93-743f-4e76-82f7-7be346a" patternTransform="matrix(1 0 0 1 72 438.32)">
	</pattern>
	<rect x="268.7" class="st2" width="532.3" height="400"/>
	<g id="ae5df511-01bd-4da6-abee-b8a1200e5b8c">
		
			<linearGradient id="b74b1518-4f66-4ec1-bdc2-3c4bb44aeb5c_00000010273450012602111800000014600764422529431487_" gradientUnits="userSpaceOnUse" x1="-2409.9009" y1="217.191" x2="-2408.9009" y2="217.451" gradientTransform="matrix(28.36 0 0 64.15 68465.1641 -13865.1719)">
			<stop  offset="0" style="stop-color:#851B20"/>
			<stop  offset="1" style="stop-color:#6B1317"/>
		</linearGradient>
		
			<path id="b74b1518-4f66-4ec1-bdc2-3c4bb44aeb5c" style="fill:url(#b74b1518-4f66-4ec1-bdc2-3c4bb44aeb5c_00000010273450012602111800000014600764422529431487_);" d="
			M148.4,45.3c1.6,1.2,1.8,3.9,2.2,31.5L151,107h-3.3c-1.8,0-8.1,0.3-13.9,0.6l-10.6,0.6l-0.4-27.8c-0.2-15.3-0.2-29.1,0-30.7
			c0.3-2,1.3-3.2,3.5-4.2C130.5,43.6,146,43.5,148.4,45.3"/>
		
			<linearGradient id="ac731c31-12ad-4e7e-be10-a382e8686af9_00000080176931214951698440000005899574338992555933_" gradientUnits="userSpaceOnUse" x1="-2464.5803" y1="214.2429" x2="-2464.5803" y2="213.243" gradientTransform="matrix(75.83 0 0 251.16 187028.7188 -53451.2695)">
			<stop  offset="0" style="stop-color:#0B060B;stop-opacity:0.99"/>
			<stop  offset="1" style="stop-color:#041012;stop-opacity:0.99"/>
		</linearGradient>
		
			<path id="ac731c31-12ad-4e7e-be10-a382e8686af9" style="fill:url(#ac731c31-12ad-4e7e-be10-a382e8686af9_00000080176931214951698440000005899574338992555933_);" d="
			M152,111.7c0,2.7,0.3,7.3,0.7,10.2c0.6,4.9,1.2,6,6.6,11.5c9.3,9.4,13.6,15.3,15.1,20.9c1.1,4,1.4,12.4,1.4,36.7
			c0,17.3,0.4,45.7,0.8,63s0.8,45.6,0.8,62.7V348l-3,3c-5.6,5.6-12.1,7-32.7,7c-25,0-32.1-2.1-36.4-10.7c-1.7-3.5-1.9-7.9-2.5-51.8
			c-0.4-26.4-0.8-68.7-0.9-94l-0.3-46l3.2-6.8c2.6-5.4,4.5-7.8,9.6-11.9c7.4-5.9,8.3-7.9,9.2-20l0.6-8.7l4.1-0.3
			c2.2-0.2,8.5-0.4,13.9-0.6l9.8-0.3V111.7"/>
	</g>
	<g id="b6ba80bc-c76d-43ef-9798-9b972ad960a1">
		
			<linearGradient id="f98498ae-8ed5-4673-96e3-9dd8d4af2df2_00000119814709003874644360000013609306023374828707_" gradientUnits="userSpaceOnUse" x1="-2220.7905" y1="216.6882" x2="-2221.7905" y2="215.8882" gradientTransform="matrix(9.04 0 0 84.5 20228.0098 -18181.3203)">
			<stop  offset="0" style="stop-color:#746266;stop-opacity:0.51"/>
			<stop  offset="1" style="stop-color:#53404F;stop-opacity:0.38"/>
		</linearGradient>
		
			<path id="f98498ae-8ed5-4673-96e3-9dd8d4af2df2" style="fill:url(#f98498ae-8ed5-4673-96e3-9dd8d4af2df2_00000119814709003874644360000013609306023374828707_);" d="
			M148.5,45.4c1.8,1.3,1.9,3.2,1.9,42.2v40.8h-7l-0.2-7.5c-0.1-4.1-0.4-21.4-0.7-38.5s-0.7-32.7-1-34.8c-0.4-3.5-0.3-3.8,2.3-3.8
			c1.6,0,3.2,0.5,4.6,1.4"/>
		
			<linearGradient id="fffdc672-bfe8-498a-bead-9c56009ecb38_00000051371129884900874950000007191673218953328802_" gradientUnits="userSpaceOnUse" x1="-2224.2683" y1="216.7228" x2="-2224.2683" y2="215.7224" gradientTransform="matrix(9.14 0 0 83.63 20460.1699 -17993.2891)">
			<stop  offset="0" style="stop-color:#FBE1E2;stop-opacity:0.6"/>
			<stop  offset="1" style="stop-color:#F3AAAC;stop-opacity:0.5"/>
		</linearGradient>
		
			<path id="fffdc672-bfe8-498a-bead-9c56009ecb38" style="fill:url(#fffdc672-bfe8-498a-bead-9c56009ecb38_00000051371129884900874950000007191673218953328802_);" d="
			M132.3,47.2c0.2,2.1,0.2,4.2-0.1,6.2c-0.3,2.8-0.4,19.7-0.1,37.7c0.4,24.3,0.8,33,1.8,34c3.1,3.1-0.3,5.7-5,3.9l-2.5-1l-0.3-38.3
			c-0.2-21.3,0-38.6,0.5-39c0.5-0.5,0.6-1.2,0.2-1.8c-0.4-0.6-0.4-1.4-0.1-2.1C127.4,45.6,131.7,45.8,132.3,47.2"/>
		
			<linearGradient id="a236cf5e-dabb-4c7f-908a-fbf21df109ec_00000163756231118020644110000013139718935225259927_" gradientUnits="userSpaceOnUse" x1="-2399.9175" y1="213.6306" x2="-2398.9175" y2="214.1806" gradientTransform="matrix(25.47 0 0 217.96 61235.5664 -46382.0156)">
			<stop  offset="0" style="stop-color:#A7A9A7;stop-opacity:0.76"/>
			<stop  offset="1" style="stop-color:#899195;stop-opacity:0.66"/>
		</linearGradient>
		
			<path id="a236cf5e-dabb-4c7f-908a-fbf21df109ec" style="fill:url(#a236cf5e-dabb-4c7f-908a-fbf21df109ec_00000163756231118020644110000013139718935225259927_);" d="
			M133.3,138.8c0.6,3.4-1.2,8-5.2,13c-6.6,8.2-6.4,6.6-7,63.3c-0.3,28.3-0.6,67.9-0.6,88v36.5l3.7,7.2l3.7,7.2h-4.3
			c-4.3,0-11.2-1.8-10.2-2.7c0.3-0.3-0.2-2.6-1-5.1c-1-3.2-1.6-11.1-1.9-25.2c-0.3-11.3-0.9-34.9-1.5-52.5
			c-1.2-38.6-1.4-110.2-0.3-113c3.6-9.4,14.8-19.3,22-19.5C132.2,136.1,132.9,136.8,133.3,138.8"/>
		
			<linearGradient id="f78401dd-fb82-481d-ad17-8b37e77b1ae0_00000036229431941737004920000017798354053346175908_" gradientUnits="userSpaceOnUse" x1="-2409.8994" y1="213.2201" x2="-2408.8994" y2="214.4801" gradientTransform="matrix(28.39 0 0 217.03 68564.3047 -46186.1875)">
			<stop  offset="0" style="stop-color:#908790;stop-opacity:0.3"/>
			<stop  offset="1" style="stop-color:#191F22;stop-opacity:0.9"/>
		</linearGradient>
		
			<path id="f78401dd-fb82-481d-ad17-8b37e77b1ae0" style="fill:url(#f78401dd-fb82-481d-ad17-8b37e77b1ae0_00000036229431941737004920000017798354053346175908_);" d="
			M155.6,137.8c6.3,2.7,11.4,7.7,14.3,13.9l2.9,5.8l0.7,61.5c0.4,33.8,0.9,75.3,1.2,92.1c0.5,28.8,0.4,30.8-1.5,35.1
			c-1.1,2.5-2.4,4.9-3,5.2s-3.9,0.9-7.4,1.2l-6.4,0.6l0.1-11.9c0.1-6.5-0.2-23.1-0.6-36.9s-1-51.8-1.3-84.5s-0.8-60.7-1-62.2
			c-0.7-4.1-2.4-8-5-11.3c-2.4-3.2-2.5-3.5-1-6.9C149.1,135.5,149.9,135.4,155.6,137.8"/>
	</g>
</g>
<g id="beac7cb7-de34-4af0-9b7e-bbb4f272adf6">
	<g id="a4917858-e56b-488a-94a7-934c78dca163">
		
			<linearGradient id="ead243f1-2e6c-404c-81e0-00f989f7e900_00000078752146929165128420000009668041606524264362_" gradientUnits="userSpaceOnUse" x1="-2400.4905" y1="217.1696" x2="-2399.4905" y2="217.4296" gradientTransform="matrix(28.36 0 0 64.15 68465.1641 -13865.1719)">
			<stop  offset="0" style="stop-color:#851B20"/>
			<stop  offset="1" style="stop-color:#6B1317"/>
		</linearGradient>
		
			<path id="ead243f1-2e6c-404c-81e0-00f989f7e900" style="fill:url(#ead243f1-2e6c-404c-81e0-00f989f7e900_00000078752146929165128420000009668041606524264362_);" d="
			M415.4,44c1.6,1.2,1.8,3.9,2.2,31.5l0.4,30.2h-3.3c-1.8,0-8,0.3-13.9,0.6l-10.6,0.6L389.8,79c-0.2-15.3-0.2-29.1,0-30.7
			c0.3-2,1.3-3.2,3.5-4.2C397.5,42.3,413,42.2,415.4,44"/>
		
			<linearGradient id="a2cf08bf-b189-42e6-be33-c3f37ae60033_00000132785338097097418490000008029489100562173064_" gradientUnits="userSpaceOnUse" x1="-2461.0593" y1="214.2332" x2="-2461.0593" y2="213.2334" gradientTransform="matrix(75.83 0 0 251.16 187028.7188 -53451.2695)">
			<stop  offset="0" style="stop-color:#0B060B;stop-opacity:0.99"/>
			<stop  offset="1" style="stop-color:#041012;stop-opacity:0.99"/>
		</linearGradient>
		
			<path id="a2cf08bf-b189-42e6-be33-c3f37ae60033" style="fill:url(#a2cf08bf-b189-42e6-be33-c3f37ae60033_00000132785338097097418490000008029489100562173064_);" d="
			M419,110.3c0,2.7,0.3,7.3,0.7,10.2c0.6,4.9,1.2,6,6.7,11.5c9.3,9.4,13.5,15.3,15.1,20.9c1.1,4,1.4,12.4,1.4,36.7
			c0,17.3,0.4,45.7,0.8,63s0.8,45.6,0.8,62.7v31.3l-3,3c-5.6,5.6-12.1,7-32.7,7c-25,0-32.1-2.1-36.4-10.7c-1.7-3.5-1.9-7.9-2.5-51.8
			c-0.4-26.4-0.8-68.7-0.9-94l-0.3-46l3.2-6.8c2.6-5.4,4.5-7.8,9.6-11.9c7.4-5.9,8.3-7.9,9.2-20l0.6-8.7l4.1-0.3
			c2.3-0.2,8.5-0.5,13.9-0.6l9.8-0.3V110.3"/>
	</g>
	<g id="e44e42cf-bce1-4868-b5fa-8c00907c6a8e">
		
			<linearGradient id="a35db1e9-6496-468f-a761-7cbbacf95e49_00000093893706117478314130000008450297556384710316_" gradientUnits="userSpaceOnUse" x1="-2161.772" y1="216.6873" x2="-2162.772" y2="215.8873" gradientTransform="matrix(9.04 0 0 84.5 20228.0098 -18181.3203)">
			<stop  offset="0" style="stop-color:#746266;stop-opacity:0.51"/>
			<stop  offset="1" style="stop-color:#53404F;stop-opacity:0.38"/>
		</linearGradient>
		
			<path id="a35db1e9-6496-468f-a761-7cbbacf95e49" style="fill:url(#a35db1e9-6496-468f-a761-7cbbacf95e49_00000093893706117478314130000008450297556384710316_);" d="
			M682.2,46.1c1.8,1.3,1.9,3.2,1.9,42.2v40.8h-7l-0.1-7.5c-0.1-4.1-0.5-21.4-0.7-38.5s-0.7-32.7-1-34.8c-0.4-3.5-0.3-3.8,2.3-3.8
			C679.2,44.7,680.8,45.2,682.2,46.1"/>
		
			<linearGradient id="a209bd00-430a-42fb-88f8-a0a11664723e_00000171690505983800161680000005184900687764071312_" gradientUnits="userSpaceOnUse" x1="-2165.8843" y1="216.7328" x2="-2165.8843" y2="215.7324" gradientTransform="matrix(9.14 0 0 83.63 20460.1699 -17993.2891)">
			<stop  offset="0" style="stop-color:#FBE1E2;stop-opacity:0.6"/>
			<stop  offset="1" style="stop-color:#F3AAAC;stop-opacity:0.5"/>
		</linearGradient>
		
			<path id="a209bd00-430a-42fb-88f8-a0a11664723e" style="fill:url(#a209bd00-430a-42fb-88f8-a0a11664723e_00000171690505983800161680000005184900687764071312_);" d="
			M665.9,47.9c0.2,2.1,0.2,4.2-0.1,6.2c-0.3,2.8-0.4,19.7-0.1,37.7c0.4,24.3,0.8,33,1.8,34c3.1,3.1-0.3,5.7-5,3.9l-2.5-1l-0.3-38.3
			c-0.2-21.3,0-38.6,0.5-39c0.5-0.5,0.6-1.2,0.2-1.8c-0.4-0.6-0.4-1.4-0.1-2.1C661,46.3,665.4,46.5,665.9,47.9"/>
		
			<linearGradient id="fbfa5308-9cc3-4e96-9e34-ee02dc3ec9cc_00000177481833791341849190000012752634576639641735_" gradientUnits="userSpaceOnUse" x1="-2378.9685" y1="213.6326" x2="-2377.9685" y2="214.1826" gradientTransform="matrix(25.47 0 0 217.96 61235.5664 -46382.0156)">
			<stop  offset="0" style="stop-color:#A7A9A7;stop-opacity:0.76"/>
			<stop  offset="1" style="stop-color:#899195;stop-opacity:0.66"/>
		</linearGradient>
		
			<path id="fbfa5308-9cc3-4e96-9e34-ee02dc3ec9cc" style="fill:url(#fbfa5308-9cc3-4e96-9e34-ee02dc3ec9cc_00000177481833791341849190000012752634576639641735_);" d="
			M666.9,139.4c0.7,3.4-1.2,8-5.2,13c-6.6,8.2-6.4,6.6-7,63.3c-0.3,28.3-0.6,67.9-0.6,88v36.5l3.7,7.2l3.7,7.2h-4.3
			c-4.3,0-11.2-1.8-10.2-2.7c0.3-0.3-0.2-2.6-1-5.1c-1-3.2-1.6-11.1-1.9-25.2c-0.3-11.3-0.9-34.9-1.5-52.5
			c-1.2-38.6-1.4-110.2-0.3-113c3.5-9.4,14.8-19.3,22-19.5C665.8,136.7,666.5,137.5,666.9,139.4"/>
		
			<linearGradient id="bb76a787-1baa-41c3-b8ec-d06cb2ab7ff4_00000043447748698789226370000001197237789273853371_" gradientUnits="userSpaceOnUse" x1="-2391.1033" y1="213.2232" x2="-2390.1033" y2="214.4832" gradientTransform="matrix(28.39 0 0 217.03 68564.3047 -46186.1875)">
			<stop  offset="0" style="stop-color:#908790;stop-opacity:0.3"/>
			<stop  offset="1" style="stop-color:#191F22;stop-opacity:0.9"/>
		</linearGradient>
		
			<path id="bb76a787-1baa-41c3-b8ec-d06cb2ab7ff4" style="fill:url(#bb76a787-1baa-41c3-b8ec-d06cb2ab7ff4_00000043447748698789226370000001197237789273853371_);" d="
			M689.2,138.5c6.3,2.7,11.4,7.7,14.3,13.9l2.9,5.8l0.7,61.5c0.4,33.8,0.9,75.3,1.2,92.1c0.5,28.8,0.4,30.8-1.5,35.1
			c-1.1,2.5-2.4,4.9-3,5.2s-3.9,0.9-7.4,1.2l-6.4,0.6l0.1-11.9c0.1-6.5-0.2-23.1-0.6-36.9s-1-51.8-1.3-84.5s-0.8-60.7-1-62.2
			c-0.7-4.1-2.4-8-5-11.3c-2.4-3.2-2.5-3.5-1-6.9C682.7,136.3,683.4,136.1,689.2,138.5"/>
	</g>
	<line class="st15" x1="268.7" y1="0" x2="268.7" y2="399.7"/>
	<line class="st15" x1="531.6" y1="0" x2="531.6" y2="399.7"/>
</g>
</svg>
