<?xml version="1.0" standalone="no"?><!DOCTYPE svg PUBLIC "-//W3C//DTD SVG 20010904//EN" "http://www.w3.org/TR/2001/REC-SVG-20010904/DTD/svg10.dtd"><svg version="1.0" xmlns="http://www.w3.org/2000/svg" width="679pt" height="607pt" viewBox="0 0 679 607" preserveAspectRatio="xMidYMid meet"><defs><linearGradient id="linear-gradient-1-1" x1="0.00%" y1="100.00%" x2="143.25%" y2="22.41%"><stop offset="0%" style="stop-color:rgb(143,52,82);stop-opacity:0.995" /><stop offset="100%" style="stop-color:rgb(199,76,65);stop-opacity:0.999" /></linearGradient><linearGradient id="linear-gradient-1-2" x1="0.00%" y1="100.00%" x2="0.00%" y2="0.00%"><stop offset="0%" style="stop-color:rgb(248,152,98);stop-opacity:0.991" /><stop offset="100%" style="stop-color:rgb(196,76,74);stop-opacity:0.995" /></linearGradient><linearGradient id="linear-gradient-1-3" x1="0.00%" y1="100.00%" x2="84.00%" y2="-15.08%"><stop offset="0%" style="stop-color:rgb(183,89,102);stop-opacity:1.000" /><stop offset="100%" style="stop-color:rgb(169,59,72);stop-opacity:1.000" /></linearGradient><linearGradient id="linear-gradient-1-4" x1="0.00%" y1="100.00%" x2="0.00%" y2="-0.00%"><stop offset="0%" style="stop-color:rgb(154,70,84);stop-opacity:1.000" /><stop offset="100%" style="stop-color:rgb(178,95,109);stop-opacity:1.000" /></linearGradient><linearGradient id="linear-gradient-1-5" x1="0.00%" y1="100.00%" x2="0.00%" y2="-0.00%"><stop offset="0%" style="stop-color:rgb(165,79,84);stop-opacity:0.991" /><stop offset="100%" style="stop-color:rgb(224,121,91);stop-opacity:0.991" /></linearGradient><linearGradient id="linear-gradient-1-6" x1="0.00%" y1="100.00%" x2="0.00%" y2="0.00%"><stop offset="0%" style="stop-color:rgb(236,135,136);stop-opacity:0.994" /><stop offset="100%" style="stop-color:rgb(223,104,104);stop-opacity:0.996" /></linearGradient><linearGradient id="linear-gradient-1-7" x1="0.00%" y1="100.00%" x2="126.10%" y2="3.58%"><stop offset="0%" style="stop-color:rgb(142,42,78);stop-opacity:0.997" /><stop offset="100%" style="stop-color:rgb(142,42,78);stop-opacity:1.000" /></linearGradient><linearGradient id="linear-gradient-1-8" x1="0.00%" y1="100.00%" x2="0.00%" y2="-0.00%"><stop offset="0%" style="stop-color:rgb(211,111,84);stop-opacity:0.997" /><stop offset="100%" style="stop-color:rgb(194,67,72);stop-opacity:0.999" /></linearGradient><linearGradient id="linear-gradient-1-9" x1="0.00%" y1="100.00%" x2="95.55%" y2="-1.26%"><stop offset="0%" style="stop-color:rgb(142,42,78);stop-opacity:0.996" /><stop offset="100%" style="stop-color:rgb(142,42,78);stop-opacity:0.997" /></linearGradient><linearGradient id="linear-gradient-1-10" x1="0.00%" y1="100.00%" x2="35.94%" y2="-3.64%"><stop offset="0%" style="stop-color:rgb(211,101,100);stop-opacity:1.000" /><stop offset="100%" style="stop-color:rgb(234,124,123);stop-opacity:1.000" /></linearGradient><linearGradient id="linear-gradient-1-11" x1="0.00%" y1="100.00%" x2="5.53%" y2="-0.46%"><stop offset="0%" style="stop-color:rgb(214,107,107);stop-opacity:1.000" /><stop offset="100%" style="stop-color:rgb(241,134,133);stop-opacity:1.000" /></linearGradient><linearGradient id="linear-gradient-1-12" x1="0.00%" y1="100.00%" x2="8.09%" y2="-11.37%"><stop offset="0%" style="stop-color:rgb(141,56,108);stop-opacity:0.999" /><stop offset="100%" style="stop-color:rgb(126,38,90);stop-opacity:1.000" /></linearGradient><linearGradient id="linear-gradient-1-13" x1="0.00%" y1="100.00%" x2="0.00%" y2="-0.00%"><stop offset="0%" style="stop-color:rgb(128,36,91);stop-opacity:0.999" /><stop offset="100%" style="stop-color:rgb(114,38,86);stop-opacity:1.000" /></linearGradient><linearGradient id="linear-gradient-2-1" x1="0.00%" y1="100.00%" x2="153.85%" y2="29.35%"><stop offset="0%" style="stop-color:rgb(191,74,72);stop-opacity:0.765" /><stop offset="100%" style="stop-color:rgb(178,63,70);stop-opacity:0.811" /></linearGradient><linearGradient id="linear-gradient-2-2" x1="0.00%" y1="100.00%" x2="57.73%" y2="-27.77%"><stop offset="0%" style="stop-color:rgb(236,152,120);stop-opacity:0.757" /><stop offset="100%" style="stop-color:rgb(248,178,130);stop-opacity:0.813" /></linearGradient><linearGradient id="linear-gradient-2-3" x1="0.00%" y1="100.00%" x2="22.53%" y2="-7.17%"><stop offset="0%" style="stop-color:rgb(238,156,122);stop-opacity:0.774" /><stop offset="100%" style="stop-color:rgb(246,170,127);stop-opacity:0.806" /></linearGradient><linearGradient id="linear-gradient-2-4" x1="0.00%" y1="100.00%" x2="109.21%" y2="46.35%"><stop offset="0%" style="stop-color:rgb(178,59,60);stop-opacity:0.809" /><stop offset="100%" style="stop-color:rgb(222,103,89);stop-opacity:0.745" /></linearGradient><linearGradient id="linear-gradient-2-5" x1="0.00%" y1="100.00%" x2="52.13%" y2="-6.14%"><stop offset="0%" style="stop-color:rgb(128,32,62);stop-opacity:0.782" /><stop offset="100%" style="stop-color:rgb(142,43,66);stop-opacity:0.803" /></linearGradient><linearGradient id="linear-gradient-2-6" x1="0.00%" y1="100.00%" x2="106.30%" y2="26.58%"><stop offset="0%" style="stop-color:rgb(119,34,64);stop-opacity:0.724" /><stop offset="100%" style="stop-color:rgb(94,22,46);stop-opacity:0.830" /></linearGradient><linearGradient id="linear-gradient-2-7" x1="0.00%" y1="100.00%" x2="102.25%" y2="6.29%"><stop offset="0%" style="stop-color:rgb(199,86,65);stop-opacity:0.799" /><stop offset="100%" style="stop-color:rgb(239,143,122);stop-opacity:0.804" /></linearGradient><linearGradient id="linear-gradient-2-8" x1="0.00%" y1="100.00%" x2="30.47%" y2="-19.31%"><stop offset="0%" style="stop-color:rgb(81,40,87);stop-opacity:0.773" /><stop offset="100%" style="stop-color:rgb(88,45,89);stop-opacity:0.800" /></linearGradient><linearGradient id="linear-gradient-2-9" x1="0.00%" y1="100.00%" x2="0.05%" y2="-0.23%"><stop offset="0%" style="stop-color:rgb(232,118,84);stop-opacity:0.812" /><stop offset="100%" style="stop-color:rgb(223,96,79);stop-opacity:0.737" /></linearGradient><linearGradient id="linear-gradient-2-10" x1="0.00%" y1="100.00%" x2="40.16%" y2="-51.81%"><stop offset="0%" style="stop-color:rgb(249,183,135);stop-opacity:0.752" /><stop offset="100%" style="stop-color:rgb(248,168,125);stop-opacity:0.697" /></linearGradient><linearGradient id="linear-gradient-2-11" x1="0.00%" y1="100.00%" x2="0.00%" y2="0.00%"><stop offset="0%" style="stop-color:rgb(121,4,41);stop-opacity:0.444" /><stop offset="100%" style="stop-color:rgb(115,0,37);stop-opacity:0.469" /></linearGradient><linearGradient id="linear-gradient-2-12" x1="0.00%" y1="100.00%" x2="2.12%" y2="-4.67%"><stop offset="0%" style="stop-color:rgb(153,29,11);stop-opacity:0.442" /><stop offset="100%" style="stop-color:rgb(109,0,34);stop-opacity:0.613" /></linearGradient><linearGradient id="linear-gradient-2-13" x1="0.00%" y1="100.00%" x2="124.24%" y2="88.14%"><stop offset="0%" style="stop-color:rgb(104,2,39);stop-opacity:0.432" /><stop offset="100%" style="stop-color:rgb(94,0,37);stop-opacity:0.486" /></linearGradient><linearGradient id="linear-gradient-2-14" x1="0.00%" y1="100.00%" x2="29.26%" y2="-17.98%"><stop offset="0%" style="stop-color:rgb(234,80,139);stop-opacity:0.646" /><stop offset="100%" style="stop-color:rgb(238,96,149);stop-opacity:0.713" /></linearGradient><linearGradient id="linear-gradient-2-15" x1="0.00%" y1="100.00%" x2="0.00%" y2="0.00%"><stop offset="0%" style="stop-color:rgb(74,9,51);stop-opacity:0.496" /><stop offset="100%" style="stop-color:rgb(114,8,52);stop-opacity:0.611" /></linearGradient><linearGradient id="linear-gradient-2-16" x1="0.00%" y1="0.00%" x2="120.23%" y2="76.62%"><stop offset="0%" style="stop-color:rgb(210,67,73);stop-opacity:0.835" /><stop offset="100%" style="stop-color:rgb(255,191,107);stop-opacity:0.751" /></linearGradient><linearGradient id="linear-gradient-2-17" x1="0.00%" y1="100.00%" x2="133.19%" y2="1.94%"><stop offset="0%" style="stop-color:rgb(112,11,50);stop-opacity:0.469" /><stop offset="100%" style="stop-color:rgb(118,14,51);stop-opacity:0.496" /></linearGradient><linearGradient id="linear-gradient-2-18" x1="0.00%" y1="100.00%" x2="47.73%" y2="-4.76%"><stop offset="0%" style="stop-color:rgb(18,34,59);stop-opacity:0.271" /><stop offset="100%" style="stop-color:rgb(0,35,55);stop-opacity:0.362" /></linearGradient><linearGradient id="linear-gradient-2-19" x1="0.00%" y1="100.00%" x2="85.82%" y2="-1.53%"><stop offset="0%" style="stop-color:rgb(2,29,43);stop-opacity:0.294" /><stop offset="100%" style="stop-color:rgb(0,31,43);stop-opacity:0.330" /></linearGradient><linearGradient id="linear-gradient-2-20" x1="0.00%" y1="100.00%" x2="19.81%" y2="-3.51%"><stop offset="0%" style="stop-color:rgb(10,32,47);stop-opacity:0.312" /><stop offset="100%" style="stop-color:rgb(0,34,46);stop-opacity:0.382" /></linearGradient><linearGradient id="linear-gradient-2-21" x1="0.00%" y1="100.00%" x2="0.00%" y2="-0.00%"><stop offset="0%" style="stop-color:rgb(10,56,75);stop-opacity:0.177" /><stop offset="100%" style="stop-color:rgb(0,53,70);stop-opacity:0.246" /></linearGradient><linearGradient id="linear-gradient-3-1" x1="0.00%" y1="100.00%" x2="0.00%" y2="0.00%"><stop offset="0%" style="stop-color:rgb(255,255,255);stop-opacity:0.859" /><stop offset="100%" style="stop-color:rgb(255,255,255);stop-opacity:0.915" /></linearGradient><linearGradient id="linear-gradient-3-2" x1="0.00%" y1="100.00%" x2="47.60%" y2="-12.32%"><stop offset="0%" style="stop-color:rgb(253,168,105);stop-opacity:0.809" /><stop offset="100%" style="stop-color:rgb(252,151,97);stop-opacity:0.753" /></linearGradient><linearGradient id="linear-gradient-3-3" x1="0.00%" y1="100.00%" x2="0.00%" y2="-0.00%"><stop offset="0%" style="stop-color:rgb(20,1,72);stop-opacity:0.490" /><stop offset="100%" style="stop-color:rgb(11,0,76);stop-opacity:0.530" /></linearGradient><linearGradient id="linear-gradient-3-4" x1="0.00%" y1="100.00%" x2="52.00%" y2="-10.67%"><stop offset="0%" style="stop-color:rgb(208,92,77);stop-opacity:0.771" /><stop offset="100%" style="stop-color:rgb(202,85,77);stop-opacity:0.806" /></linearGradient><linearGradient id="linear-gradient-3-5" x1="0.00%" y1="100.00%" x2="127.40%" y2="25.58%"><stop offset="0%" style="stop-color:rgb(255,255,255);stop-opacity:0.885" /><stop offset="100%" style="stop-color:rgb(255,255,255);stop-opacity:0.880" /></linearGradient><linearGradient id="linear-gradient-3-6" x1="0.00%" y1="100.00%" x2="0.00%" y2="0.00%"><stop offset="0%" style="stop-color:rgb(23,0,83);stop-opacity:0.219" /><stop offset="100%" style="stop-color:rgb(19,0,88);stop-opacity:0.262" /></linearGradient><linearGradient id="linear-gradient-3-7" x1="0.00%" y1="100.00%" x2="75.72%" y2="-10.21%"><stop offset="0%" style="stop-color:rgb(251,179,101);stop-opacity:0.769" /><stop offset="100%" style="stop-color:rgb(254,181,102);stop-opacity:0.777" /></linearGradient><linearGradient id="linear-gradient-3-8" x1="0.00%" y1="100.00%" x2="0.00%" y2="-0.00%"><stop offset="0%" style="stop-color:rgb(215,75,117);stop-opacity:0.756" /><stop offset="100%" style="stop-color:rgb(229,92,131);stop-opacity:0.801" /></linearGradient><linearGradient id="linear-gradient-3-9" x1="0.00%" y1="100.00%" x2="9.55%" y2="-14.41%"><stop offset="0%" style="stop-color:rgb(63,2,48);stop-opacity:0.389" /><stop offset="100%" style="stop-color:rgb(63,0,43);stop-opacity:0.432" /></linearGradient><linearGradient id="linear-gradient-3-10" x1="0.00%" y1="100.00%" x2="91.45%" y2="-1.80%"><stop offset="0%" style="stop-color:rgb(191,126,92);stop-opacity:0.662" /><stop offset="100%" style="stop-color:rgb(211,126,94);stop-opacity:0.705" /></linearGradient><linearGradient id="linear-gradient-3-11" x1="0.00%" y1="100.00%" x2="0.00%" y2="0.00%"><stop offset="0%" style="stop-color:rgb(255,98,72);stop-opacity:0.431" /><stop offset="100%" style="stop-color:rgb(255,120,82);stop-opacity:0.450" /></linearGradient><linearGradient id="linear-gradient-3-12" x1="0.00%" y1="100.00%" x2="0.00%" y2="0.00%"><stop offset="0%" style="stop-color:rgb(200,70,66);stop-opacity:0.578" /><stop offset="100%" style="stop-color:rgb(210,89,77);stop-opacity:0.710" /></linearGradient><linearGradient id="linear-gradient-3-13" x1="0.00%" y1="100.00%" x2="0.00%" y2="0.00%"><stop offset="0%" style="stop-color:rgb(184,86,73);stop-opacity:0.379" /><stop offset="100%" style="stop-color:rgb(172,28,53);stop-opacity:0.509" /></linearGradient><linearGradient id="linear-gradient-3-14" x1="0.00%" y1="100.00%" x2="187.73%" y2="7.71%"><stop offset="0%" style="stop-color:rgb(191,66,64);stop-opacity:0.709" /><stop offset="100%" style="stop-color:rgb(200,68,71);stop-opacity:0.808" /></linearGradient></defs><g id="layer-1"><path d="M1025 6046 c-64 -18 -267 -122 -310 -159 -22 -18 -56 -43 -76 -55 -19 -12 -81 -68 -137 -126 -96 -99 -102 -107 -102 -147 0 -41 30 -112 83 -196 63 -100 107 -212 107 -274 0 -32 -25 -119 -50 -174 -25 -56 -93 -150 -259 -359 -238 -300 -271 -356 -271 -470 0 -72 1 -75 35 -105 126 -111 546 -86 945 57 41 15 67 28 58 30 -16 3 -16 6 2 42 11 22 20 44 20 49 0 5 -51 -14 -112 -44 -136 -65 -291 -118 -413 -140 -121 -23 -264 -17 -321 13 -42 22 -74 70 -74 112 0 125 145 385 379 678 323 406 491 665 491 759 0 76 86 248 203 406 32 43 57 86 55 95 -3 15 -19 17 -108 18 -58 1 -123 -3 -145 -10z" fill="url(#linear-gradient-1-1)" id="region-1-1" transform="translate(0.000000,607.000000) scale(0.100000,-0.100000)"/><path d="M4555 5699 c-34 -10 -65 -53 -96 -132 -11 -28 -29 -61 -39 -72 -10 -11 -21 -31 -25 -45 -4 -13 -14 -30 -21 -38 -8 -7 -14 -19 -14 -26 0 -18 -243 -50 -375 -50 -91 1 -125 5 -200 28 -49 16 -112 34 -138 42 -51 14 -107 44 -144 77 -51 46 -79 -8 -47 -92 25 -68 39 -83 148 -168 108 -85 149 -111 276 -175 81 -41 89 -43 172 -43 72 0 91 3 115 21 36 26 101 37 142 23 34 -12 38 -21 16 -39 -11 -9 -12 -17 -4 -33 17 -31 6 -91 -66 -352 -37 -132 -76 -283 -87 -335 -27 -119 -31 -300 -8 -345 17 -33 112 -101 180 -129 25 -10 64 -27 88 -37 24 -11 71 -23 105 -28 110 -16 403 -104 487 -147 53 -26 120 -95 252 -254 169 -204 244 -261 340 -259 l53 2 -55 6 c-30 4 -71 15 -90 25 -53 29 -151 127 -265 266 -56 69 -114 135 -128 147 -14 11 -29 27 -33 35 -5 8 -25 23 -45 35 -48 27 -323 117 -424 138 -136 28 -168 36 -200 49 -16 8 -49 21 -72 30 -63 23 -166 98 -182 131 -15 31 -28 125 -17 125 3 0 22 -18 42 -40 44 -48 113 -83 218 -110 183 -47 425 -10 664 100 67 31 70 34 103 102 47 98 77 113 219 112 76 0 129 -7 190 -23 110 -29 352 -71 410 -71 57 0 112 26 173 80 l49 43 -56 24 c-150 63 -525 322 -541 373 -4 11 1 30 9 42 11 15 16 45 16 89 0 67 0 68 36 90 20 12 53 28 73 35 33 12 34 13 9 14 -15 0 -52 -11 -81 -24 l-54 -24 -27 34 c-15 19 -33 34 -40 34 -18 0 -24 55 -31 260 -7 214 -23 399 -38 430 -23 47 -56 48 -176 7 -140 -48 -180 -47 -429 2 -226 45 -295 53 -337 40z" fill="url(#linear-gradient-1-2)" id="region-1-2" transform="translate(0.000000,607.000000) scale(0.100000,-0.100000)"/><path d="M6045 5402 c-169 -49 -245 -62 -382 -62 l-133 0 5 -142 4 -143 39 -35 c63 -57 173 -75 247 -41 82 38 207 195 276 347 45 100 41 105 -56 76z" fill="url(#linear-gradient-1-3)" id="region-1-3" transform="translate(0.000000,607.000000) scale(0.100000,-0.100000)"/><path d="M3470 5307 c0 -53 44 -179 90 -257 75 -128 230 -257 337 -281 51 -12 57 -11 115 17 64 30 89 49 197 151 36 35 75 63 86 63 21 0 45 17 45 31 0 15 -64 29 -104 22 -22 -3 -54 -16 -69 -27 -24 -18 -43 -21 -115 -21 -82 0 -91 2 -172 43 -47 23 -105 54 -130 69 -63 37 -220 159 -252 197 l-27 31 -1 -38z" fill="url(#linear-gradient-1-4)" id="region-1-4" transform="translate(0.000000,607.000000) scale(0.100000,-0.100000)"/><path d="M1752 4863 c-71 -101 -271 -349 -346 -430 -68 -74 -168 -153 -267 -214 -48 -29 -60 -43 -82 -91 -23 -53 -24 -58 -7 -58 9 0 33 7 52 15 l35 14 32 -142 c17 -78 38 -180 46 -227 19 -109 19 -388 0 -580 -8 -80 -15 -207 -15 -283 0 -164 -15 -126 195 -477 273 -456 298 -526 275 -767 -6 -71 -14 -165 -17 -211 l-6 -82 161 -155 c162 -157 245 -256 282 -336 24 -54 27 -167 5 -229 -11 -31 -12 -41 -2 -36 113 51 207 82 289 95 l96 15 -62 70 c-172 194 -344 429 -401 547 -38 80 -42 117 -24 229 15 98 91 390 106 409 1 2 44 -36 95 -85 141 -136 269 -214 408 -250 235 -60 604 76 854 316 46 44 88 80 94 80 7 0 56 -18 110 -40 139 -56 163 -58 264 -25 45 16 85 31 88 35 7 9 51 33 54 28 2 -2 27 -43 56 -93 29 -49 69 -110 89 -135 45 -58 225 -243 273 -281 l37 -30 42 83 c22 46 84 156 137 245 l95 162 45 -31 c25 -17 50 -31 56 -31 6 0 88 43 181 94 94 52 186 101 205 109 19 8 37 17 40 21 3 4 21 14 40 23 19 8 71 36 115 61 44 25 92 51 106 57 45 20 101 142 124 273 19 111 29 337 20 477 l-7 116 -34 -14 c-49 -20 -118 -17 -166 7 -58 29 -135 104 -246 239 -132 159 -199 228 -252 254 -84 43 -377 131 -487 147 -34 5 -81 17 -105 28 -24 10 -63 27 -88 37 -68 28 -163 96 -180 129 -22 43 -19 217 4 330 11 50 45 184 77 300 32 115 56 211 54 213 -5 5 -120 -76 -294 -206 -164 -124 -254 -170 -359 -185 -323 -48 -504 46 -725 377 -18 27 -40 54 -48 59 -12 7 -52 0 -140 -26 -105 -30 -233 -61 -352 -84 -58 -11 -216 35 -337 100 -191 101 -203 107 -222 107 -11 0 -36 -26 -66 -67z" fill="url(#linear-gradient-1-5)" id="region-1-5" transform="translate(0.000000,607.000000) scale(0.100000,-0.100000)"/><path d="M6270 4314 c-14 -10 -52 -42 -85 -72 -71 -65 -124 -92 -185 -92 -58 0 -300 42 -410 71 -61 16 -114 23 -190 23 -142 1 -172 -14 -219 -112 -33 -68 -36 -71 -103 -102 -239 -110 -481 -147 -664 -100 -105 27 -174 62 -218 110 -20 22 -39 40 -42 40 -11 0 2 -94 17 -125 16 -33 119 -108 182 -131 23 -9 56 -22 72 -30 32 -13 64 -21 200 -49 101 -21 376 -111 424 -138 20 -12 40 -27 45 -35 4 -8 19 -24 33 -35 14 -12 72 -78 128 -147 120 -146 214 -239 272 -269 84 -42 178 -24 288 56 l39 29 66 -19 c47 -14 99 -20 191 -21 l127 -1 93 48 c169 86 344 248 418 386 26 49 31 70 31 126 0 101 -41 153 -159 203 l-44 18 -28 108 c-34 127 -80 230 -116 253 -38 25 -132 29 -163 7z" fill="url(#linear-gradient-1-6)" id="region-1-6" transform="translate(0.000000,607.000000) scale(0.100000,-0.100000)"/><path d="M5135 2016 c-60 -34 -140 -78 -176 -98 l-66 -37 -50 34 -50 33 -51 -86 -51 -87 20 -211 c18 -194 19 -218 5 -310 l-15 -99 35 -51 36 -51 -11 -279 c-5 -153 -9 -280 -7 -282 2 -2 21 5 43 16 21 11 65 28 98 38 33 10 61 19 63 20 2 1 -8 35 -23 76 -52 144 -41 259 40 436 19 41 35 83 35 92 0 10 -9 48 -21 86 -20 66 -20 69 -4 138 20 85 121 344 210 538 36 78 65 143 65 145 0 8 -22 -3 -125 -61z" fill="url(#linear-gradient-1-7)" id="region-1-7" transform="translate(0.000000,607.000000) scale(0.100000,-0.100000)"/><path d="M4033 1988 c-21 -10 -23 -18 -23 -102 0 -79 4 -99 28 -151 26 -55 145 -236 224 -343 l32 -42 -16 -97 -15 -97 28 -45 c47 -77 62 -155 50 -265 -14 -124 -37 -228 -61 -284 -11 -25 -19 -46 -18 -48 2 -1 28 4 58 12 30 8 71 14 90 14 43 0 136 -26 168 -47 13 -8 26 -13 28 -10 3 2 -7 27 -21 55 -39 77 -65 194 -72 317 l-5 110 50 103 c57 116 58 93 -7 254 -17 42 -31 88 -31 103 0 20 -26 51 -121 142 -141 136 -215 227 -284 346 -27 48 -52 86 -55 86 -3 0 -15 -5 -27 -11z" fill="url(#linear-gradient-1-8)" id="region-1-8" transform="translate(0.000000,607.000000) scale(0.100000,-0.100000)"/><path d="M3415 1882 c-55 -50 -182 -136 -261 -175 l-51 -26 -6 -93 c-3 -51 -13 -140 -22 -198 -9 -58 -13 -115 -10 -126 3 -13 55 -60 122 -110 143 -108 252 -209 292 -272 40 -64 59 -136 73 -273 l11 -115 51 27 c69 37 189 76 264 86 l62 8 -67 85 c-36 47 -89 121 -118 165 -38 57 -87 110 -169 185 -170 153 -241 240 -252 307 -10 67 36 274 111 492 14 41 24 75 22 77 -1 1 -24 -19 -52 -44z" fill="url(#linear-gradient-1-9)" id="region-1-9" transform="translate(0.000000,607.000000) scale(0.100000,-0.100000)"/><path d="M2386 1668 c-28 -155 -48 -316 -44 -363 6 -70 34 -102 107 -121 131 -34 148 37 81 317 l-33 137 -46 23 c-25 13 -49 25 -53 27 -4 2 -9 -7 -12 -20z" fill="url(#linear-gradient-1-10)" id="region-1-10" transform="translate(0.000000,607.000000) scale(0.100000,-0.100000)"/><path d="M2884 1608 l-41 -10 -6 -213 c-8 -291 6 -365 74 -380 48 -11 88 3 105 38 23 43 14 120 -36 314 -22 87 -41 181 -43 210 -1 29 -4 52 -7 52 -3 -1 -23 -6 -46 -11z" fill="url(#linear-gradient-1-11)" id="region-1-11" transform="translate(0.000000,607.000000) scale(0.100000,-0.100000)"/><path d="M2355 666 c-82 -16 -206 -62 -290 -109 -53 -30 -61 -38 -67 -73 -9 -44 1 -394 11 -394 44 -3 669 -23 764 -25 147 -3 137 -19 79 130 -91 233 -207 415 -294 461 -40 21 -124 25 -203 10z" fill="url(#linear-gradient-1-12)" id="region-1-12" transform="translate(0.000000,607.000000) scale(0.100000,-0.100000)"/><path d="M3794 590 c-78 -20 -188 -67 -234 -100 l-30 -21 0 -183 0 -183 222 -6 c121 -4 223 -9 226 -12 3 -2 -3 -16 -12 -29 -9 -14 -16 -30 -16 -36 0 -7 148 -10 455 -10 447 0 456 0 445 19 -5 11 -10 22 -10 25 0 3 135 6 300 6 l300 0 -16 42 c-9 24 -44 101 -79 173 -67 135 -136 233 -194 272 -81 55 -298 10 -468 -97 -20 -13 -25 -12 -45 6 -33 30 -107 63 -171 76 -105 22 -231 -16 -273 -84 l-25 -39 -38 58 c-40 62 -98 119 -138 134 -38 14 -121 10 -199 -11z" fill="url(#linear-gradient-1-13)" id="region-1-13" transform="translate(0.000000,607.000000) scale(0.100000,-0.100000)"/></g><g id="layer-2"><path d="M960 6007 c-19 -13 -66 -36 -104 -52 -98 -41 -198 -109 -300 -206 -108 -101 -146 -152 -146 -192 0 -29 37 -111 83 -184 97 -153 125 -268 91 -369 -8 -25 -13 -48 -10 -51 2 -3 21 0 41 7 30 10 47 28 92 96 73 113 139 255 164 355 26 102 23 230 -8 299 l-20 45 37 75 c21 41 59 103 84 138 25 34 43 62 38 62 -4 0 -23 -10 -42 -23z" fill="url(#linear-gradient-2-1)" id="region-2-1" transform="translate(0.000000,607.000000) scale(0.100000,-0.100000)"/><path d="M4602 5673 c-32 -7 -46 -47 -31 -92 37 -112 322 -305 471 -319 l58 -5 16 38 c20 49 12 114 -26 192 -46 96 -101 134 -245 166 -77 17 -207 28 -243 20z" fill="url(#linear-gradient-2-2)" id="region-2-2" transform="translate(0.000000,607.000000) scale(0.100000,-0.100000)"/><path d="M5350 5654 c-19 -8 -49 -26 -67 -40 -39 -29 -42 -57 -18 -168 17 -79 20 -85 40 -65 11 11 102 169 154 267 11 21 10 22 -31 22 -24 -1 -59 -8 -78 -16z" fill="url(#linear-gradient-2-3)" id="region-2-3" transform="translate(0.000000,607.000000) scale(0.100000,-0.100000)"/><path d="M3447 5493 c-19 -19 5 -117 42 -170 20 -28 197 -168 260 -205 25 -15 84 -47 131 -70 81 -41 89 -43 172 -43 72 0 91 3 115 21 36 26 101 37 142 23 35 -12 37 -16 18 -38 -11 -13 -11 -23 -1 -51 8 -24 14 -30 18 -20 10 26 44 198 71 355 14 83 28 164 32 180 5 30 5 30 -15 11 -12 -10 -24 -31 -27 -47 -4 -16 -10 -29 -14 -29 -4 0 -13 -11 -18 -23 -10 -21 -24 -26 -140 -42 -179 -27 -345 -25 -448 3 -90 25 -253 102 -280 132 -18 20 -46 26 -58 13z" fill="url(#linear-gradient-2-4)" id="region-2-4" transform="translate(0.000000,607.000000) scale(0.100000,-0.100000)"/><path d="M5535 5203 l6 -128 47 -44 47 -44 6 96 c5 82 10 105 40 164 19 37 36 71 37 76 2 4 -40 7 -93 7 l-97 0 7 -127z" fill="url(#linear-gradient-2-5)" id="region-2-5" transform="translate(0.000000,607.000000) scale(0.100000,-0.100000)"/><path d="M3720 5094 c98 -162 209 -284 259 -284 39 0 81 19 104 47 10 13 23 23 28 23 6 0 36 26 67 59 62 63 96 86 117 77 8 -3 17 -1 20 4 9 15 -36 28 -75 22 -19 -3 -48 -14 -63 -26 -25 -18 -43 -21 -125 -21 -94 0 -99 1 -182 43 -47 23 -105 54 -129 69 l-45 27 24 -40z" fill="url(#linear-gradient-2-6)" id="region-2-6" transform="translate(0.000000,607.000000) scale(0.100000,-0.100000)"/><path d="M5527 4945 c-8 -163 -17 -190 -76 -209 -165 -53 -321 -44 -451 25 -64 34 -133 99 -158 150 -15 30 -22 34 -62 37 -54 4 -130 -6 -130 -17 0 -5 13 -14 30 -21 16 -7 45 -32 65 -55 40 -49 120 -193 112 -202 -3 -3 -17 18 -31 45 -30 59 -46 73 -46 39 0 -29 -31 -60 -53 -52 -24 10 -39 59 -35 115 l3 52 -55 29 -54 30 -35 -35 c-30 -30 -35 -43 -39 -94 -8 -117 61 -296 149 -384 42 -42 53 -48 89 -48 29 0 45 6 58 22 55 70 129 138 184 171 104 62 274 107 402 107 78 0 93 -3 207 -41 86 -29 119 -21 64 15 -39 26 -51 59 -31 87 11 16 16 45 16 90 0 67 0 68 36 90 20 12 53 28 73 35 33 12 34 13 9 14 -15 0 -52 -11 -81 -24 l-54 -24 -27 34 c-15 19 -33 34 -41 34 -10 0 -15 11 -16 33 0 17 -4 41 -8 52 -5 12 -10 -26 -14 -100z" fill="url(#linear-gradient-2-7)" id="region-2-7" transform="translate(0.000000,607.000000) scale(0.100000,-0.100000)"/><path d="M4555 4923 c22 -10 63 -29 90 -44 l50 -27 -3 -52 c-4 -56 11 -105 35 -115 22 -8 53 23 53 52 0 34 16 20 46 -39 14 -27 28 -48 31 -45 3 3 -13 40 -36 82 -80 149 -135 194 -245 201 l-61 4 40 -17z" fill="url(#linear-gradient-2-8)" id="region-2-8" transform="translate(0.000000,607.000000) scale(0.100000,-0.100000)"/><path d="M2725 4804 c-60 -19 -158 -46 -217 -61 -124 -30 -129 -36 -80 -114 126 -198 484 -319 949 -319 117 0 153 8 254 55 49 23 51 25 19 20 -98 -14 -199 -17 -253 -5 -81 16 -201 79 -269 140 -59 52 -166 178 -188 221 -24 46 -72 99 -88 99 -10 -1 -66 -17 -127 -36z" fill="url(#linear-gradient-2-9)" id="region-2-9" transform="translate(0.000000,607.000000) scale(0.100000,-0.100000)"/><path d="M5255 4625 c-53 -13 -95 -33 -134 -64 l-24 -19 32 -41 c39 -49 174 -139 287 -193 197 -92 380 -102 483 -27 58 41 56 74 -6 140 -52 56 -181 146 -221 155 -15 3 -52 14 -82 24 -30 10 -71 23 -91 29 -45 14 -179 12 -244 -4z" fill="url(#linear-gradient-2-10)" id="region-2-10" transform="translate(0.000000,607.000000) scale(0.100000,-0.100000)"/><path d="M6434 4087 c-14 -19 -32 -48 -40 -65 -12 -29 -11 -32 5 -32 10 0 32 -3 49 -6 l30 -6 -1 71 c-1 39 -5 71 -9 71 -4 0 -19 -15 -34 -33z" fill="url(#linear-gradient-2-11)" id="region-2-11" transform="translate(0.000000,607.000000) scale(0.100000,-0.100000)"/><path d="M4152 4032 c3 -26 11 -61 19 -77 16 -33 119 -108 182 -131 23 -9 56 -22 72 -30 32 -13 64 -21 200 -49 101 -21 376 -111 424 -138 20 -12 40 -27 45 -35 4 -8 19 -24 33 -35 14 -12 72 -78 128 -147 186 -226 267 -290 370 -290 106 0 272 112 198 134 -10 2 -49 12 -88 22 -104 25 -237 82 -292 125 -26 21 -64 49 -83 63 -40 27 -125 158 -163 252 -39 96 -51 162 -50 267 0 53 0 97 -2 97 -1 0 -35 -15 -76 -34 -235 -107 -473 -142 -655 -96 -105 27 -174 62 -218 110 -20 22 -39 40 -42 40 -4 0 -4 -21 -2 -48z" fill="url(#linear-gradient-2-12)" id="region-2-12" transform="translate(0.000000,607.000000) scale(0.100000,-0.100000)"/><path d="M5440 3994 c0 -4 8 -13 18 -20 14 -10 18 -35 23 -158 6 -166 13 -183 89 -223 52 -28 134 -32 144 -7 18 48 -8 195 -51 277 -23 45 -85 109 -120 124 -33 13 -103 18 -103 7z" fill="url(#linear-gradient-2-13)" id="region-2-13" transform="translate(0.000000,607.000000) scale(0.100000,-0.100000)"/><path d="M6254 3971 c-54 -24 -70 -75 -84 -278 -13 -187 -34 -262 -90 -326 -50 -57 -150 -124 -196 -133 -50 -9 -37 -26 37 -48 46 -13 100 -19 190 -20 l127 -1 93 48 c169 86 344 248 418 386 39 74 44 173 11 226 -33 54 -113 101 -225 132 -62 17 -252 27 -281 14z" fill="url(#linear-gradient-2-14)" id="region-2-14" transform="translate(0.000000,607.000000) scale(0.100000,-0.100000)"/><path d="M4542 3678 c74 -564 366 -999 827 -1230 l93 -47 40 20 c150 77 236 305 213 572 l-7 87 -79 0 c-62 0 -89 5 -121 21 -57 29 -142 112 -251 244 -184 224 -213 247 -387 303 -107 35 -311 92 -326 92 -7 0 -8 -21 -2 -62z" fill="url(#linear-gradient-2-15)" id="region-2-15" transform="translate(0.000000,607.000000) scale(0.100000,-0.100000)"/><path d="M1240 3429 c0 -74 -7 -206 -15 -294 -24 -264 -27 -246 59 -366 59 -83 86 -112 137 -146 77 -50 198 -170 251 -248 34 -52 68 -137 68 -174 0 -8 -11 -48 -25 -88 -22 -64 -26 -95 -30 -236 -2 -89 -9 -207 -14 -262 -6 -55 -14 -142 -17 -193 l-7 -92 161 -155 c162 -157 245 -256 282 -336 24 -54 27 -167 5 -229 -11 -31 -12 -41 -2 -36 113 51 207 82 289 95 l96 15 -62 70 c-172 194 -344 429 -401 547 -38 80 -42 117 -24 229 15 98 91 390 106 409 1 2 44 -36 95 -85 141 -136 269 -214 408 -250 235 -60 604 76 854 316 46 44 88 80 94 80 7 0 56 -18 110 -40 139 -56 163 -58 263 -25 46 16 88 32 94 37 5 5 17 14 27 21 44 32 43 571 -2 689 -43 113 -234 355 -350 441 -94 71 -104 69 -225 -58 -62 -64 -109 -105 -121 -105 -34 0 -60 27 -147 148 -131 181 -238 271 -322 272 -38 0 -115 -44 -183 -105 -104 -93 -286 -340 -483 -653 -86 -137 -107 -144 -274 -84 -111 39 -201 89 -228 124 -36 48 -65 110 -167 352 -129 309 -215 472 -279 530 l-21 19 0 -134z" fill="url(#linear-gradient-2-16)" id="region-2-16" transform="translate(0.000000,607.000000) scale(0.100000,-0.100000)"/><path d="M4737 2305 c19 -113 0 -326 -43 -482 -12 -45 12 -22 56 51 24 41 47 73 52 70 4 -3 8 5 8 18 0 34 -67 378 -75 386 -4 4 -3 -15 2 -43z" fill="url(#linear-gradient-2-17)" id="region-2-17" transform="translate(0.000000,607.000000) scale(0.100000,-0.100000)"/><path d="M2533 533 c3 -21 16 -133 28 -249 l22 -211 60 -7 c33 -3 77 -6 99 -6 37 0 38 1 32 28 -14 56 -67 199 -96 257 -35 70 -134 225 -144 225 -4 0 -4 -17 -1 -37z" fill="url(#linear-gradient-2-18)" id="region-2-18" transform="translate(0.000000,607.000000) scale(0.100000,-0.100000)"/><path d="M3993 463 c4 -27 12 -103 18 -170 7 -68 15 -123 18 -123 9 0 86 144 85 158 -3 19 -107 182 -118 182 -5 0 -6 -21 -3 -47z" fill="url(#linear-gradient-2-19)" id="region-2-19" transform="translate(0.000000,607.000000) scale(0.100000,-0.100000)"/><path d="M5113 453 c3 -16 15 -110 28 -211 l23 -182 83 0 c46 0 83 4 83 9 0 17 -52 155 -77 206 -35 69 -125 205 -136 205 -5 0 -7 -12 -4 -27z" fill="url(#linear-gradient-2-20)" id="region-2-20" transform="translate(0.000000,607.000000) scale(0.100000,-0.100000)"/><path d="M4367 301 c-57 -120 -87 -211 -87 -263 l0 -28 95 0 95 0 0 28 c-1 44 -37 373 -42 378 -3 2 -30 -50 -61 -115z" fill="url(#linear-gradient-2-21)" id="region-2-21" transform="translate(0.000000,607.000000) scale(0.100000,-0.100000)"/></g><g id="layer-3"><path d="M820 5906 c-99 -72 -135 -133 -155 -261 -6 -36 -3 -33 33 37 44 85 86 150 139 216 19 23 33 42 31 42 -2 0 -23 -15 -48 -34z" fill="url(#linear-gradient-3-1)" id="region-3-1" transform="translate(0.000000,607.000000) scale(0.100000,-0.100000)"/><path d="M3447 5493 c-11 -11 -8 -62 6 -96 8 -18 34 -52 58 -77 50 -51 209 -173 216 -166 3 2 -20 35 -50 73 -30 37 -74 100 -97 138 -23 39 -53 85 -67 103 -22 30 -51 41 -66 25z" fill="url(#linear-gradient-3-2)" id="region-3-2" transform="translate(0.000000,607.000000) scale(0.100000,-0.100000)"/><path d="M5673 4909 c-62 -30 -103 -71 -103 -104 0 -10 5 -35 12 -56 15 -53 38 -35 38 30 0 26 7 56 15 68 18 26 74 61 124 79 l36 13 -30 0 c-16 0 -58 -13 -92 -30z" fill="url(#linear-gradient-3-3)" id="region-3-3" transform="translate(0.000000,607.000000) scale(0.100000,-0.100000)"/><path d="M4710 4915 c0 -3 17 -24 38 -45 21 -22 57 -76 81 -121 24 -44 48 -78 54 -76 7 2 13 25 15 50 2 36 -3 59 -24 98 -45 81 -66 99 -119 99 -25 0 -45 -2 -45 -5z" fill="url(#linear-gradient-3-4)" id="region-3-4" transform="translate(0.000000,607.000000) scale(0.100000,-0.100000)"/><path d="M4676 4824 c-11 -58 4 -125 35 -156 23 -24 36 -28 83 -28 31 0 56 2 56 5 0 12 -50 104 -60 110 -6 3 -10 -4 -10 -18 0 -29 -31 -60 -53 -52 -25 10 -40 61 -34 115 7 57 -8 77 -17 24z" fill="url(#linear-gradient-3-5)" id="region-3-5" transform="translate(0.000000,607.000000) scale(0.100000,-0.100000)"/><path d="M2853 4833 c9 -9 -211 -91 -296 -110 l-69 -16 94 -39 c51 -22 117 -48 145 -59 67 -24 166 -25 212 -1 55 27 57 40 18 105 -47 77 -86 127 -99 127 -6 0 -8 -3 -5 -7z" fill="url(#linear-gradient-3-6)" id="region-3-6" transform="translate(0.000000,607.000000) scale(0.100000,-0.100000)"/><path d="M4858 4625 c-6 -14 -16 -25 -22 -25 -6 0 -3 -5 7 -11 28 -16 47 -3 47 31 0 36 -16 39 -32 5z" fill="url(#linear-gradient-3-7)" id="region-3-7" transform="translate(0.000000,607.000000) scale(0.100000,-0.100000)"/><path d="M6550 3913 c0 -3 15 -24 33 -47 50 -61 57 -79 57 -145 0 -62 -30 -161 -76 -253 -31 -62 -31 -72 4 -54 44 23 111 102 143 169 54 115 33 214 -59 282 -46 33 -102 60 -102 48z" fill="url(#linear-gradient-3-8)" id="region-3-8" transform="translate(0.000000,607.000000) scale(0.100000,-0.100000)"/><path d="M5349 3421 c25 -46 133 -181 183 -228 67 -63 117 -80 176 -60 42 15 131 68 132 78 0 4 -42 17 -92 29 -154 37 -336 125 -376 181 -17 25 -36 25 -23 0z" fill="url(#linear-gradient-3-9)" id="region-3-9" transform="translate(0.000000,607.000000) scale(0.100000,-0.100000)"/><path d="M3110 3069 c0 -81 -12 -103 -54 -95 -59 11 -78 -35 -91 -219 l-7 -100 41 -46 c48 -55 79 -66 126 -43 56 26 127 146 140 238 12 77 -38 197 -128 309 -23 28 -27 21 -27 -44z" fill="url(#linear-gradient-3-10)" id="region-3-10" transform="translate(0.000000,607.000000) scale(0.100000,-0.100000)"/><path d="M4882 3028 c-47 -23 -94 -82 -117 -149 -24 -68 -19 -153 15 -239 18 -45 30 -94 30 -121 0 -141 86 -160 150 -33 24 46 25 58 25 209 -1 138 -14 276 -31 338 -7 22 -19 21 -72 -5z" fill="url(#linear-gradient-3-11)" id="region-3-11" transform="translate(0.000000,607.000000) scale(0.100000,-0.100000)"/><path d="M5350 3034 c-81 -22 -135 -51 -171 -92 -91 -104 -186 -422 -255 -859 -15 -95 -25 -176 -21 -179 3 -3 18 3 34 13 37 26 201 117 343 190 63 33 147 77 185 98 39 21 84 45 101 53 51 24 108 152 133 298 16 87 13 285 -4 383 -8 46 -16 85 -17 86 -2 2 -27 8 -56 14 -73 15 -206 13 -272 -5z" fill="url(#linear-gradient-3-12)" id="region-3-12" transform="translate(0.000000,607.000000) scale(0.100000,-0.100000)"/><path d="M2001 3777 c-1 -10 8 -54 19 -96 57 -226 117 -676 140 -1062 l11 -185 -35 -155 c-19 -84 -58 -248 -86 -364 -28 -115 -49 -216 -47 -225 2 -8 9 5 16 30 31 118 60 218 70 244 l11 28 93 -89 c137 -132 267 -214 399 -249 55 -14 218 -19 218 -6 0 4 -21 18 -47 32 -27 13 -87 63 -134 110 -71 71 -93 101 -132 180 -68 137 -79 189 -78 354 1 189 -20 293 -136 671 -87 284 -281 821 -282 782z" fill="url(#linear-gradient-3-13)" id="region-3-13" transform="translate(0.000000,607.000000) scale(0.100000,-0.100000)"/><path d="M3895 2760 c3 -14 19 -74 35 -135 43 -163 53 -248 47 -387 -5 -141 -21 -196 -73 -256 -39 -46 -41 -52 -16 -52 22 0 115 31 122 40 3 4 16 13 28 19 21 11 23 18 18 54 -4 23 -10 112 -14 197 -8 154 -8 156 -66 325 -32 94 -65 181 -73 195 l-14 25 6 -25z" fill="url(#linear-gradient-3-14)" id="region-3-14" transform="translate(0.000000,607.000000) scale(0.100000,-0.100000)"/></g></svg>