<?xml version="1.0" standalone="no"?><!DOCTYPE svg PUBLIC "-//W3C//DTD SVG 20010904//EN" "http://www.w3.org/TR/2001/REC-SVG-20010904/DTD/svg10.dtd"><svg version="1.0" xmlns="http://www.w3.org/2000/svg" width="527pt" height="624pt" viewBox="0 0 527 624" preserveAspectRatio="xMidYMid meet"><defs><linearGradient id="linear-gradient-1-1" x1="0.00%" y1="100.00%" x2="30.08%" y2="-17.84%"><stop offset="0%" style="stop-color:rgb(135,105,249);stop-opacity:0.990" /><stop offset="100%" style="stop-color:rgb(104,79,223);stop-opacity:0.990" /></linearGradient><linearGradient id="linear-gradient-2-1" x1="0.00%" y1="100.00%" x2="0.00%" y2="-0.00%"><stop offset="0%" style="stop-color:rgb(170,0,101);stop-opacity:0.813" /><stop offset="100%" style="stop-color:rgb(64,12,138);stop-opacity:0.774" /></linearGradient><linearGradient id="linear-gradient-2-2" x1="0.00%" y1="100.00%" x2="671.11%" y2="79.37%"><stop offset="0%" style="stop-color:rgb(173,151,255);stop-opacity:0.800" /><stop offset="100%" style="stop-color:rgb(178,155,255);stop-opacity:0.802" /></linearGradient><linearGradient id="linear-gradient-2-3" x1="0.00%" y1="100.00%" x2="15.21%" y2="-6.96%"><stop offset="0%" style="stop-color:rgb(220,146,73);stop-opacity:0.971" /><stop offset="100%" style="stop-color:rgb(48,157,245);stop-opacity:0.821" /></linearGradient><linearGradient id="linear-gradient-2-4" x1="0.00%" y1="0.00%" x2="123.70%" y2="77.12%"><stop offset="0%" style="stop-color:rgb(14,6,0);stop-opacity:0.199" /><stop offset="100%" style="stop-color:rgb(204,188,164);stop-opacity:0.943" /></linearGradient><linearGradient id="linear-gradient-2-5" x1="0.00%" y1="100.00%" x2="0.00%" y2="0.00%"><stop offset="0%" style="stop-color:rgb(49,0,71);stop-opacity:0.822" /><stop offset="100%" style="stop-color:rgb(92,44,123);stop-opacity:0.773" /></linearGradient><linearGradient id="linear-gradient-2-6" x1="0.00%" y1="100.00%" x2="7.33%" y2="-249.09%"><stop offset="0%" style="stop-color:rgb(84,24,128);stop-opacity:0.643" /><stop offset="100%" style="stop-color:rgb(88,30,137);stop-opacity:0.678" /></linearGradient><linearGradient id="linear-gradient-3-1" x1="0.00%" y1="0.00%" x2="105.98%" y2="88.26%"><stop offset="0%" style="stop-color:rgb(139,137,155);stop-opacity:0.238" /><stop offset="100%" style="stop-color:rgb(255,255,255);stop-opacity:0.756" /></linearGradient><linearGradient id="linear-gradient-3-2" x1="0.00%" y1="100.00%" x2="26.81%" y2="-10.74%"><stop offset="0%" style="stop-color:rgb(85,73,111);stop-opacity:0.773" /><stop offset="100%" style="stop-color:rgb(206,206,244);stop-opacity:0.835" /></linearGradient><linearGradient id="linear-gradient-3-3" x1="0.00%" y1="100.00%" x2="176.37%" y2="38.89%"><stop offset="0%" style="stop-color:rgb(0,0,6);stop-opacity:0.764" /><stop offset="100%" style="stop-color:rgb(51,6,98);stop-opacity:0.810" /></linearGradient><linearGradient id="linear-gradient-3-4" x1="0.00%" y1="100.00%" x2="0.00%" y2="0.00%"><stop offset="0%" style="stop-color:rgb(176,160,142);stop-opacity:0.312" /><stop offset="100%" style="stop-color:rgb(163,152,213);stop-opacity:0.516" /></linearGradient><linearGradient id="linear-gradient-3-5" x1="0.00%" y1="100.00%" x2="0.00%" y2="0.00%"><stop offset="0%" style="stop-color:rgb(165,184,132);stop-opacity:0.843" /><stop offset="100%" style="stop-color:rgb(146,168,174);stop-opacity:0.808" /></linearGradient><linearGradient id="linear-gradient-3-6" x1="0.00%" y1="100.00%" x2="42.36%" y2="-335.39%"><stop offset="0%" style="stop-color:rgb(49,9,80);stop-opacity:0.493" /><stop offset="100%" style="stop-color:rgb(49,11,93);stop-opacity:0.571" /></linearGradient><linearGradient id="linear-gradient-4-1" x1="0.00%" y1="100.00%" x2="89.67%" y2="-10.16%"><stop offset="0%" style="stop-color:rgb(255,255,255);stop-opacity:0.821" /><stop offset="100%" style="stop-color:rgb(255,255,255);stop-opacity:0.819" /></linearGradient><linearGradient id="linear-gradient-4-2" x1="0.00%" y1="100.00%" x2="4.02%" y2="-2.30%"><stop offset="0%" style="stop-color:rgb(203,205,75);stop-opacity:0.903" /><stop offset="100%" style="stop-color:rgb(94,99,184);stop-opacity:0.696" /></linearGradient><linearGradient id="linear-gradient-4-3" x1="0.00%" y1="100.00%" x2="0.00%" y2="0.00%"><stop offset="0%" style="stop-color:rgb(52,13,70);stop-opacity:0.785" /><stop offset="100%" style="stop-color:rgb(57,7,99);stop-opacity:0.803" /></linearGradient><linearGradient id="linear-gradient-4-4" x1="0.00%" y1="100.00%" x2="0.00%" y2="0.00%"><stop offset="0%" style="stop-color:rgb(10,0,33);stop-opacity:0.840" /><stop offset="100%" style="stop-color:rgb(20,0,63);stop-opacity:0.839" /></linearGradient><linearGradient id="linear-gradient-5-1" x1="0.00%" y1="100.00%" x2="0.00%" y2="0.00%"><stop offset="0%" style="stop-color:rgb(35,0,66);stop-opacity:0.853" /><stop offset="100%" style="stop-color:rgb(0,8,43);stop-opacity:0.771" /></linearGradient><linearGradient id="linear-gradient-5-2" x1="0.00%" y1="100.00%" x2="39.23%" y2="-21.35%"><stop offset="0%" style="stop-color:rgb(45,0,92);stop-opacity:0.676" /><stop offset="100%" style="stop-color:rgb(46,0,66);stop-opacity:0.806" /></linearGradient><linearGradient id="linear-gradient-5-3" x1="0.00%" y1="100.00%" x2="44.65%" y2="-16.06%"><stop offset="0%" style="stop-color:rgb(40,5,77);stop-opacity:0.765" /><stop offset="100%" style="stop-color:rgb(47,0,77);stop-opacity:0.813" /></linearGradient><linearGradient id="linear-gradient-5-4" x1="0.00%" y1="100.00%" x2="14.11%" y2="-10.40%"><stop offset="0%" style="stop-color:rgb(80,31,131);stop-opacity:0.810" /><stop offset="100%" style="stop-color:rgb(60,10,110);stop-opacity:0.778" /></linearGradient><linearGradient id="linear-gradient-5-5" x1="0.00%" y1="100.00%" x2="0.00%" y2="-0.00%"><stop offset="0%" style="stop-color:rgb(79,30,126);stop-opacity:0.807" /><stop offset="100%" style="stop-color:rgb(60,11,109);stop-opacity:0.781" /></linearGradient><linearGradient id="linear-gradient-6-1" x1="0.00%" y1="100.00%" x2="0.00%" y2="-0.00%"><stop offset="0%" style="stop-color:rgb(87,41,151);stop-opacity:0.742" /><stop offset="100%" style="stop-color:rgb(66,10,113);stop-opacity:0.595" /></linearGradient><linearGradient id="linear-gradient-6-2" x1="0.00%" y1="100.00%" x2="0.00%" y2="0.00%"><stop offset="0%" style="stop-color:rgb(67,9,104);stop-opacity:0.650" /><stop offset="100%" style="stop-color:rgb(76,31,141);stop-opacity:0.769" /></linearGradient><linearGradient id="linear-gradient-6-3" x1="0.00%" y1="100.00%" x2="13.84%" y2="-8.02%"><stop offset="0%" style="stop-color:rgb(255,239,21);stop-opacity:0.810" /><stop offset="100%" style="stop-color:rgb(255,250,10);stop-opacity:0.854" /></linearGradient><linearGradient id="linear-gradient-6-4" x1="0.00%" y1="100.00%" x2="41.15%" y2="-12.91%"><stop offset="0%" style="stop-color:rgb(255,245,255);stop-opacity:0.484" /><stop offset="100%" style="stop-color:rgb(255,244,255);stop-opacity:0.375" /></linearGradient><linearGradient id="linear-gradient-6-5" x1="0.00%" y1="100.00%" x2="45.59%" y2="-85.38%"><stop offset="0%" style="stop-color:rgb(156,107,255);stop-opacity:0.396" /><stop offset="100%" style="stop-color:rgb(160,104,255);stop-opacity:0.344" /></linearGradient><linearGradient id="linear-gradient-6-6" x1="0.00%" y1="0.00%" x2="126.84%" y2="43.41%"><stop offset="0%" style="stop-color:rgb(32,0,62);stop-opacity:0.794" /><stop offset="100%" style="stop-color:rgb(53,2,83);stop-opacity:0.803" /></linearGradient><linearGradient id="linear-gradient-6-7" x1="0.00%" y1="100.00%" x2="35.42%" y2="-70.36%"><stop offset="0%" style="stop-color:rgb(154,105,255);stop-opacity:0.403" /><stop offset="100%" style="stop-color:rgb(157,103,255);stop-opacity:0.358" /></linearGradient><linearGradient id="linear-gradient-7-1" x1="0.00%" y1="100.00%" x2="105.78%" y2="17.95%"><stop offset="0%" style="stop-color:rgb(133,86,235);stop-opacity:0.396" /><stop offset="100%" style="stop-color:rgb(155,96,230);stop-opacity:0.403" /></linearGradient><linearGradient id="linear-gradient-7-2" x1="0.00%" y1="100.00%" x2="89.46%" y2="-8.84%"><stop offset="0%" style="stop-color:rgb(227,255,9);stop-opacity:0.795" /><stop offset="100%" style="stop-color:rgb(224,255,0);stop-opacity:0.872" /></linearGradient><linearGradient id="linear-gradient-7-3" x1="0.00%" y1="100.00%" x2="67.44%" y2="-21.02%"><stop offset="0%" style="stop-color:rgb(251,223,255);stop-opacity:0.307" /><stop offset="100%" style="stop-color:rgb(250,221,255);stop-opacity:0.257" /></linearGradient></defs><g id="layer-1"><path d="M1210 5999 c-536 -125 -1026 -240 -1088 -255 l-112 -26 0 -57 c0 -31 61 -792 135 -1691 75 -899 142 -1752 150 -1895 28 -515 65 -1437 65 -1645 l0 -115 993 -153 992 -153 1311 0 1310 1 32 213 c122 802 209 1692 252 2572 13 273 13 1715 0 1960 -20 372 -75 981 -89 997 -10 12 -2869 478 -2925 477 -29 0 -471 -99 -1026 -230z" fill="url(#linear-gradient-1-1)" id="region-1-1" transform="translate(0.000000,624.000000) scale(0.100000,-0.100000)"/></g><g id="layer-2"><path d="M1127 5911 c-592 -131 -1080 -240 -1082 -243 -3 -3 19 -302 50 -664 112 -1341 183 -2323 191 -2624 2 -107 11 -328 19 -490 29 -582 55 -1277 55 -1459 l0 -116 993 -153 c545 -84 1011 -153 1034 -153 40 1 42 3 47 34 10 61 26 1172 26 1782 0 976 -37 2125 -95 2985 -14 203 -119 1263 -131 1318 -2 12 -10 22 -17 21 -6 0 -497 -108 -1090 -238z" fill="url(#linear-gradient-2-1)" id="region-2-1" transform="translate(0.000000,624.000000) scale(0.100000,-0.100000)"/><path d="M2236 6119 c19 -131 108 -1034 124 -1254 41 -578 74 -1351 90 -2150 27 -1291 27 -1291 26 -5 l-2 1265 -52 490 c-29 270 -68 657 -87 862 -40 432 -84 804 -96 817 -5 5 -6 -6 -3 -25z" fill="url(#linear-gradient-2-2)" id="region-2-2" transform="translate(0.000000,624.000000) scale(0.100000,-0.100000)"/><path d="M3555 5725 c-538 -99 -918 -634 -1010 -1421 -17 -149 -20 -476 -5 -639 58 -629 263 -1136 595 -1471 157 -158 324 -263 512 -321 81 -25 101 -27 263 -27 165 0 180 1 260 28 308 102 559 336 744 696 59 116 117 264 116 300 -1 8 -16 -21 -34 -65 -181 -439 -458 -722 -784 -802 -105 -26 -274 -21 -393 10 -128 33 -195 61 -309 129 -167 98 -263 203 -425 463 -180 288 -287 596 -347 998 -28 188 -31 631 -5 800 42 271 99 463 201 672 179 366 455 603 763 655 l48 8 -60 0 c-33 0 -91 -6 -130 -13z" fill="url(#linear-gradient-2-3)" id="region-2-3" transform="translate(0.000000,624.000000) scale(0.100000,-0.100000)"/><path d="M3697 5730 c-174 -30 -350 -125 -494 -269 -197 -197 -353 -501 -427 -834 -52 -228 -60 -312 -60 -607 1 -229 4 -299 22 -417 60 -402 167 -710 347 -998 162 -260 258 -365 425 -463 114 -68 181 -96 309 -129 119 -31 288 -36 393 -10 469 115 834 657 935 1387 23 171 23 537 -1 710 -46 337 -125 606 -255 865 -84 165 -158 275 -268 397 -179 198 -369 314 -586 359 -96 20 -251 24 -340 9z" fill="url(#linear-gradient-2-4)" id="region-2-4" transform="translate(0.000000,624.000000) scale(0.100000,-0.100000)"/><path d="M3698 1591 c-111 -44 -196 -128 -253 -246 -96 -199 -100 -495 -10 -662 82 -153 173 -239 307 -292 112 -45 166 -43 249 10 144 93 247 234 290 396 27 102 30 286 5 388 -42 175 -153 329 -281 390 -51 25 -74 29 -160 32 -80 3 -109 -1 -147 -16z" fill="url(#linear-gradient-2-5)" id="region-2-5" transform="translate(0.000000,624.000000) scale(0.100000,-0.100000)"/><path d="M4947 255 c-61 -23 -256 -64 -425 -90 -304 -47 -447 -56 -1077 -65 -668 -10 -977 -19 -993 -29 -6 -3 -14 -19 -17 -34 l-7 -27 1269 0 1269 0 17 113 c25 164 27 155 -36 132z" fill="url(#linear-gradient-2-6)" id="region-2-6" transform="translate(0.000000,624.000000) scale(0.100000,-0.100000)"/></g><g id="layer-3"><path d="M3740 5713 c-271 -31 -483 -213 -616 -527 -74 -175 -118 -392 -100 -490 6 -33 10 -37 33 -34 21 2 38 23 90 108 92 150 163 242 267 345 105 105 208 172 321 211 109 37 245 39 355 5 150 -46 264 -115 383 -230 232 -224 410 -569 602 -1165 43 -135 70 -206 78 -203 16 5 11 214 -9 372 -40 320 -123 601 -253 860 -124 245 -250 402 -430 534 -216 159 -490 240 -721 214z" fill="url(#linear-gradient-3-1)" id="region-3-1" transform="translate(0.000000,624.000000) scale(0.100000,-0.100000)"/><path d="M3813 5290 c-200 -42 -398 -202 -522 -421 -17 -31 -31 -62 -31 -70 0 -8 -11 -30 -24 -50 -13 -19 -37 -73 -54 -120 -140 -399 -137 -998 8 -1399 67 -184 78 -210 125 -285 140 -225 279 -350 471 -425 32 -12 92 -39 133 -59 71 -35 76 -36 185 -35 185 2 306 56 457 204 160 157 276 373 343 635 103 407 72 901 -79 1285 -19 48 -35 93 -35 100 0 18 -105 194 -162 272 -69 94 -206 221 -297 274 -119 70 -213 96 -356 100 -66 2 -139 -1 -162 -6z" fill="url(#linear-gradient-3-2)" id="region-3-2" transform="translate(0.000000,624.000000) scale(0.100000,-0.100000)"/><path d="M1135 5043 c-275 -42 -502 -77 -504 -79 -1 -1 31 -276 73 -611 145 -1156 246 -2158 246 -2429 l0 -64 417 0 416 0 -6 703 c-8 862 -28 1488 -63 2002 -8 121 -18 295 -21 388 l-6 167 -26 -1 c-14 -1 -251 -35 -526 -76z" fill="url(#linear-gradient-3-3)" id="region-3-3" transform="translate(0.000000,624.000000) scale(0.100000,-0.100000)"/><path d="M2932 3717 c-59 -70 17 -631 134 -986 57 -174 113 -270 228 -389 218 -226 370 -299 689 -332 88 -9 104 -8 140 8 52 23 104 81 112 125 9 47 -19 111 -68 152 -22 19 -145 87 -271 150 -127 62 -248 124 -268 137 -55 34 -213 210 -281 313 -98 149 -166 296 -254 548 -57 164 -88 235 -115 264 -25 26 -32 28 -46 10z" fill="url(#linear-gradient-3-4)" id="region-3-4" transform="translate(0.000000,624.000000) scale(0.100000,-0.100000)"/><path d="M3670 1481 c-93 -30 -188 -117 -233 -213 -79 -168 -76 -413 9 -580 35 -70 121 -153 192 -186 82 -38 184 -38 263 1 151 74 249 261 249 477 -1 292 -156 500 -380 507 -41 1 -86 -1 -100 -6z" fill="url(#linear-gradient-3-5)" id="region-3-5" transform="translate(0.000000,624.000000) scale(0.100000,-0.100000)"/><path d="M370 314 c66 -16 1971 -304 2009 -304 44 0 49 2 55 26 4 15 5 29 2 31 -7 7 -2014 253 -2051 252 -16 -1 -23 -3 -15 -5z" fill="url(#linear-gradient-3-6)" id="region-3-6" transform="translate(0.000000,624.000000) scale(0.100000,-0.100000)"/></g><g id="layer-4"><path d="M4390 5425 c-29 -35 35 -168 105 -217 140 -97 183 24 58 163 -59 65 -133 90 -163 54z" fill="url(#linear-gradient-4-1)" id="region-4-1" transform="translate(0.000000,624.000000) scale(0.100000,-0.100000)"/><path d="M3715 5075 c-359 -99 -609 -535 -632 -1105 -13 -323 46 -624 184 -940 29 -67 141 -228 208 -299 82 -87 135 -126 240 -179 122 -61 148 -66 330 -53 151 11 159 12 225 47 207 108 388 379 469 702 52 202 66 496 36 725 -75 570 -368 1004 -743 1102 -74 19 -247 19 -317 0z" fill="url(#linear-gradient-4-2)" id="region-4-2" transform="translate(0.000000,624.000000) scale(0.100000,-0.100000)"/><path d="M1238 4896 c-224 -34 -410 -65 -413 -67 -2 -3 11 -142 30 -310 18 -167 38 -344 43 -394 5 -49 21 -196 36 -325 56 -500 127 -1351 142 -1711 l7 -157 76 -13 c42 -8 139 -14 216 -13 117 0 160 5 260 28 66 15 124 31 129 34 11 6 1 1142 -14 1582 -14 425 -29 753 -45 1010 -26 402 -26 400 -44 399 -9 -1 -199 -29 -423 -63z" fill="url(#linear-gradient-4-3)" id="region-4-3" transform="translate(0.000000,624.000000) scale(0.100000,-0.100000)"/><path d="M3664 1341 c-59 -27 -112 -84 -148 -160 -30 -63 -31 -72 -31 -191 0 -107 4 -133 23 -182 46 -114 162 -208 259 -208 226 0 362 347 234 597 -69 137 -215 199 -337 144z" fill="url(#linear-gradient-4-4)" id="region-4-4" transform="translate(0.000000,624.000000) scale(0.100000,-0.100000)"/></g><g id="layer-5"><path d="M3698 4945 c-375 -95 -623 -605 -578 -1191 24 -319 98 -560 236 -771 294 -452 754 -511 1047 -133 235 305 315 784 211 1260 -60 270 -176 496 -333 650 -86 84 -175 141 -271 171 -84 27 -234 34 -312 14z" fill="url(#linear-gradient-5-1)" id="region-5-1" transform="translate(0.000000,624.000000) scale(0.100000,-0.100000)"/><path d="M1185 4615 c-5 -2 -26 -6 -46 -9 -87 -15 -174 -109 -212 -231 -27 -88 -29 -265 -4 -368 33 -132 98 -231 179 -271 46 -23 64 -26 162 -26 61 0 141 3 178 6 l67 7 41 58 c59 84 118 213 136 299 21 99 13 250 -19 335 -37 99 -101 184 -139 185 -10 0 -18 5 -18 10 0 9 -299 14 -325 5z" fill="url(#linear-gradient-5-2)" id="region-5-2" transform="translate(0.000000,624.000000) scale(0.100000,-0.100000)"/><path d="M1160 3348 c-53 -36 -75 -89 -75 -183 0 -141 65 -235 161 -235 54 0 103 33 132 90 20 39 23 56 20 135 -4 103 -29 162 -84 195 -44 28 -112 26 -154 -2z" fill="url(#linear-gradient-5-3)" id="region-5-3" transform="translate(0.000000,624.000000) scale(0.100000,-0.100000)"/><path d="M1315 3350 c54 -34 79 -93 83 -195 3 -79 0 -96 -20 -135 -13 -25 -38 -55 -57 -67 l-34 -23 135 0 c153 0 147 -3 195 90 25 50 28 64 27 152 0 93 -2 99 -31 135 -40 51 -77 62 -213 62 l-115 1 30 -20z" fill="url(#linear-gradient-5-4)" id="region-5-4" transform="translate(0.000000,624.000000) scale(0.100000,-0.100000)"/><path d="M1180 2822 c-74 -40 -105 -152 -76 -269 19 -78 55 -129 105 -150 30 -13 65 -14 200 -9 184 7 171 2 218 96 24 46 28 68 28 135 0 65 -4 87 -23 120 -42 73 -65 81 -252 89 -151 6 -168 5 -200 -12z" fill="url(#linear-gradient-5-5)" id="region-5-5" transform="translate(0.000000,624.000000) scale(0.100000,-0.100000)"/></g><g id="layer-6"><path d="M1273 4606 c130 -35 222 -194 234 -406 14 -244 -79 -433 -237 -481 -32 -10 78 -11 172 -3 l67 7 41 58 c59 84 118 213 136 299 21 99 13 250 -19 335 -37 99 -101 184 -139 185 -10 0 -18 5 -18 10 0 6 -54 10 -142 9 -135 0 -140 -1 -95 -13z" fill="url(#linear-gradient-6-1)" id="region-6-1" transform="translate(0.000000,624.000000) scale(0.100000,-0.100000)"/><path d="M3151 4239 c-90 -431 -9 -929 205 -1256 184 -283 448 -424 696 -372 365 76 631 587 604 1164 -7 160 -15 235 -26 235 -4 0 -23 -25 -43 -55 -131 -196 -383 -344 -633 -370 -57 -7 -71 -12 -91 -36 -29 -34 -83 -53 -130 -44 -40 7 -115 71 -132 113 -6 15 -33 41 -59 57 -160 101 -289 310 -344 559 l-25 109 -22 -104z" fill="url(#linear-gradient-6-2)" id="region-6-2" transform="translate(0.000000,624.000000) scale(0.100000,-0.100000)"/><path d="M1121 4264 c-23 -29 -29 -112 -12 -157 21 -55 73 -73 118 -42 44 31 47 162 6 207 -26 29 -87 24 -112 -8z" fill="url(#linear-gradient-6-3)" id="region-6-3" transform="translate(0.000000,624.000000) scale(0.100000,-0.100000)"/><path d="M3664 4051 c-70 -43 -99 -115 -98 -246 0 -126 24 -194 88 -253 74 -68 157 -66 216 6 44 53 60 118 60 241 0 90 -4 113 -24 156 -27 58 -46 76 -104 98 -56 22 -100 21 -138 -2z" fill="url(#linear-gradient-6-4)" id="region-6-4" transform="translate(0.000000,624.000000) scale(0.100000,-0.100000)"/><path d="M1344 3325 c13 -14 29 -39 36 -55 14 -33 49 -47 142 -57 116 -12 140 22 70 97 l-39 40 -116 0 -116 0 23 -25z" fill="url(#linear-gradient-6-5)" id="region-6-5" transform="translate(0.000000,624.000000) scale(0.100000,-0.100000)"/><path d="M1180 2822 c-54 -29 -84 -91 -84 -177 -1 -94 19 -159 63 -205 48 -51 94 -60 155 -30 63 30 96 97 96 195 0 40 -5 87 -11 106 -36 107 -133 156 -219 111z" fill="url(#linear-gradient-6-6)" id="region-6-6" transform="translate(0.000000,624.000000) scale(0.100000,-0.100000)"/><path d="M1359 2783 c16 -21 33 -50 36 -64 8 -31 38 -39 143 -39 47 0 64 4 68 15 10 24 -4 61 -35 94 -29 31 -29 31 -135 31 l-107 0 30 -37z" fill="url(#linear-gradient-6-7)" id="region-6-7" transform="translate(0.000000,624.000000) scale(0.100000,-0.100000)"/></g><g id="layer-7"><path d="M1352 4567 c24 -18 57 -57 75 -87 39 -68 85 -114 139 -140 43 -21 99 -26 109 -10 3 5 -5 39 -17 75 -26 76 -100 176 -138 186 -14 4 -67 7 -118 8 l-94 1 44 -33z" fill="url(#linear-gradient-7-1)" id="region-7-1" transform="translate(0.000000,624.000000) scale(0.100000,-0.100000)"/><path d="M3703 4053 c-13 -3 -32 -16 -44 -31 -53 -68 32 -242 138 -283 74 -28 113 3 121 95 4 56 -20 129 -56 169 -29 33 -111 58 -159 50z" fill="url(#linear-gradient-7-2)" id="region-7-2" transform="translate(0.000000,624.000000) scale(0.100000,-0.100000)"/><path d="M3595 3720 c-21 -34 42 -157 94 -184 16 -9 44 -16 61 -16 26 0 30 4 30 26 0 41 -169 200 -185 174z" fill="url(#linear-gradient-7-3)" id="region-7-3" transform="translate(0.000000,624.000000) scale(0.100000,-0.100000)"/></g></svg>