<?xml version="1.0" standalone="no"?><!DOCTYPE svg PUBLIC "-//W3C//DTD SVG 20010904//EN" "http://www.w3.org/TR/2001/REC-SVG-20010904/DTD/svg10.dtd"><svg version="1.0" xmlns="http://www.w3.org/2000/svg" width="500pt" height="500pt" viewBox="0 0 500 500" preserveAspectRatio="xMidYMid meet"><defs><linearGradient id="linear-gradient-1-1" x1="0.00%" y1="100.00%" x2="93.71%" y2="-5.58%"><stop offset="0%" style="stop-color:rgb(128,19,18);stop-opacity:0.999" /><stop offset="100%" style="stop-color:rgb(0,93,93);stop-opacity:0.999" /></linearGradient><linearGradient id="linear-gradient-2-1" x1="0.00%" y1="100.00%" x2="59.20%" y2="-32.43%"><stop offset="0%" style="stop-color:rgb(42,77,0);stop-opacity:0.715" /><stop offset="100%" style="stop-color:rgb(111,155,12);stop-opacity:0.549" /></linearGradient><linearGradient id="linear-gradient-2-2" x1="0.00%" y1="100.00%" x2="115.90%" y2="5.17%"><stop offset="0%" style="stop-color:rgb(101,132,134);stop-opacity:0.063" /><stop offset="100%" style="stop-color:rgb(11,163,163);stop-opacity:0.771" /></linearGradient><linearGradient id="linear-gradient-2-3" x1="0.00%" y1="100.00%" x2="55.17%" y2="-20.52%"><stop offset="0%" style="stop-color:rgb(155,250,0);stop-opacity:0.249" /><stop offset="100%" style="stop-color:rgb(229,255,46);stop-opacity:0.282" /></linearGradient><linearGradient id="linear-gradient-3-1" x1="0.00%" y1="100.00%" x2="10.23%" y2="-8.47%"><stop offset="0%" style="stop-color:rgb(155,36,39);stop-opacity:0.242" /><stop offset="100%" style="stop-color:rgb(98,50,48);stop-opacity:0.429" /></linearGradient><linearGradient id="linear-gradient-3-2" x1="0.00%" y1="100.00%" x2="134.87%" y2="9.33%"><stop offset="0%" style="stop-color:rgb(170,24,20);stop-opacity:0.843" /><stop offset="100%" style="stop-color:rgb(92,64,115);stop-opacity:0.629" /></linearGradient></defs><g id="layer-1"><path d="M0 2500 l0 -2500 2500 0 2500 0 0 2500 0 2500 -2500 0 -2500 0 0 -2500z" fill="url(#linear-gradient-1-1)" id="region-1-1" transform="translate(0.000000,500.000000) scale(0.100000,-0.100000)"/></g><g id="layer-2"><path d="M482 4069 c-210 -458 -380 -834 -379 -836 4 -4 2299 -64 2303 -60 3 2 -1474 1657 -1530 1715 -11 11 -84 -141 -394 -819z" fill="url(#linear-gradient-2-1)" id="region-2-1" transform="translate(0.000000,500.000000) scale(0.100000,-0.100000)"/><path d="M2930 2155 l0 -1575 810 0 810 0 0 1575 0 1575 -810 0 -810 0 0 -1575z" fill="url(#linear-gradient-2-2)" id="region-2-2" transform="translate(0.000000,500.000000) scale(0.100000,-0.100000)"/><path d="M760 1759 c-103 -9 -191 -34 -283 -79 -281 -140 -448 -411 -448 -725 0 -452 354 -806 806 -806 452 0 806 354 806 806 0 314 -167 585 -448 724 -132 66 -277 93 -433 80z" fill="url(#linear-gradient-2-3)" id="region-2-3" transform="translate(0.000000,500.000000) scale(0.100000,-0.100000)"/></g><g id="layer-3"><path d="M2420 4619 c-251 -21 -478 -176 -600 -410 -58 -111 -81 -209 -81 -344 0 -292 151 -539 412 -675 111 -58 209 -81 344 -81 292 0 539 151 675 412 58 111 81 209 81 344 0 135 -23 233 -81 344 -77 148 -183 254 -329 330 -132 68 -262 93 -421 80z" fill="url(#linear-gradient-3-1)" id="region-3-1" transform="translate(0.000000,500.000000) scale(0.100000,-0.100000)"/><path d="M4762 4823 c-17 -43 -323 -825 -681 -1737 -358 -913 -649 -1661 -647 -1663 3 -3 1457 484 1463 491 4 4 -96 2979 -101 2983 -2 3 -18 -31 -34 -74z" fill="url(#linear-gradient-3-2)" id="region-3-2" transform="translate(0.000000,500.000000) scale(0.100000,-0.100000)"/></g></svg>