<?xml version="1.0" encoding="utf-8"?>
<!-- Generator: Adobe Illustrator 26.2.1, SVG Export Plug-In . SVG Version: 6.00 Build 0)  -->
<svg version="1.1" xmlns="http://www.w3.org/2000/svg" xmlns:xlink="http://www.w3.org/1999/xlink" x="0px" y="0px"
	 viewBox="0 0 2000 500" style="enable-background:new 0 0 2000 500;" xml:space="preserve">
<style type="text/css">
	.st0{fill:none;}
	.st1{fill:#D3D3D3;}
	.st2{fill:url(#SVGID_1_);}
	.st3{fill:url(#region-1-1_00000025408887151902509190000000887282587589833871_);}
	.st4{fill:url(#region-2-1_00000083061567972330515850000004374974062554867850_);}
	.st5{fill:url(#region-2-2_00000085931053374153414970000003447398374820865694_);}
	.st6{fill:url(#region-2-3_00000116932889175548832540000001044442973808197771_);}
	.st7{fill:url(#region-3-1_00000025438202860002350230000014577209410648843948_);}
	.st8{fill:url(#region-3-2_00000140715645026580124580000008132668071497753509_);}
	.st9{fill:url(#region-1-1_00000155127584726784079490000003527277220323079304_);}
	
		.st10{fill:url(#region-2-1_00000051355925312485485890000014642921129953329329_);stroke:#000000;stroke-width:2;stroke-miterlimit:10;}
	
		.st11{fill:url(#region-2-2_00000164499630105488404210000006089995857580009358_);stroke:#000000;stroke-width:2;stroke-miterlimit:10;}
	
		.st12{fill:url(#region-2-3_00000044875927541036945010000013731933451969819542_);stroke:#000000;stroke-width:2;stroke-miterlimit:10;}
	
		.st13{fill:url(#region-3-1_00000017508346683635115900000004723983715348399549_);stroke:#000000;stroke-width:2;stroke-miterlimit:10;}
	
		.st14{fill:url(#region-3-2_00000143618628031138767630000002347912838567034012_);stroke:#000000;stroke-width:2;stroke-miterlimit:10;}
	.st15{fill:none;stroke:#000000;stroke-width:3;stroke-miterlimit:10;}
</style>
<pattern  x="750" y="500" width="40" height="40" patternUnits="userSpaceOnUse" id="a2ed1d96-aebd-4bf9-a4b3-645f1ac" viewBox="0 -40 40 40" style="overflow:visible;">
	<g>
		<rect y="-40" class="st0" width="40" height="40"/>
		<rect y="-40" class="st0" width="40" height="40"/>
		<rect y="-40" class="st1" width="20" height="20"/>
		<rect x="20" y="-20" class="st1" width="20" height="20"/>
	</g>
</pattern>
<g id="图层_2">
	<pattern  id="SVGID_1_" xlink:href="#a2ed1d96-aebd-4bf9-a4b3-645f1ac" patternTransform="matrix(1 0 0 1 -48 550.24)">
	</pattern>
	<rect y="0" class="st2" width="2000" height="500"/>
</g>
<g id="图层_1">
	<g id="layer-1">
		
			<linearGradient id="region-1-1_00000067938745375914174710000001450587405602114209_" gradientUnits="userSpaceOnUse" x1="40.9494" y1="790.5501" x2="41.8866" y2="791.6059" gradientTransform="matrix(500 0 0 500 -20459 -395289)">
			<stop  offset="0" style="stop-color:#801312;stop-opacity:0.999"/>
			<stop  offset="1" style="stop-color:#005D5D;stop-opacity:0.999"/>
		</linearGradient>
		<path id="region-1-1" style="fill:url(#region-1-1_00000067938745375914174710000001450587405602114209_);" d="M0,250v250h250h250
			V250V0H250H0V250z"/>
	</g>
	<g id="layer-2">
		
			<linearGradient id="region-2-1_00000078747228702255901090000016419577048787133589_" gradientUnits="userSpaceOnUse" x1="40.8727" y1="791.6617" x2="41.4647" y2="792.986" gradientTransform="matrix(230.3009 0 0 171.5735 -9391.0361 -135820.9062)">
			<stop  offset="0" style="stop-color:#2A4D00;stop-opacity:0.715"/>
			<stop  offset="1" style="stop-color:#6F9B0C;stop-opacity:0.549"/>
		</linearGradient>
		<path id="region-2-1" style="fill:url(#region-2-1_00000078747228702255901090000016419577048787133589_);" d="M48.2,93.1
			c-21,45.8-38,83.4-37.9,83.6c0.4,0.4,229.9,6.4,230.3,6c0.3-0.2-147.4-165.7-153-171.5C86.5,10.1,79.2,25.3,48.2,93.1z"/>
		
			<linearGradient id="region-2-2_00000051367142115054726430000016165073917176769470_" gradientUnits="userSpaceOnUse" x1="40.7024" y1="790.9719" x2="41.8614" y2="791.9202" gradientTransform="matrix(162 0 0 315 -6308 -249012)">
			<stop  offset="0" style="stop-color:#658486;stop-opacity:6.300000e-02"/>
			<stop  offset="1" style="stop-color:#0BA3A3;stop-opacity:0.771"/>
		</linearGradient>
		<path id="region-2-2" style="fill:url(#region-2-2_00000051367142115054726430000016165073917176769470_);" d="M293,284.5V442h81
			h81V284.5V127h-81h-81V284.5z"/>
		
			<linearGradient id="region-2-3_00000168799471465191702020000008057696128746610049_" gradientUnits="userSpaceOnUse" x1="40.9698" y1="791.6889" x2="41.5215" y2="792.8941" gradientTransform="matrix(161.2 0 0 161.3173 -6565.3003 -127405.8828)">
			<stop  offset="0" style="stop-color:#9BFA00;stop-opacity:0.249"/>
			<stop  offset="1" style="stop-color:#E5FF2E;stop-opacity:0.282"/>
		</linearGradient>
		<path id="region-2-3" style="fill:url(#region-2-3_00000168799471465191702020000008057696128746610049_);" d="M76,324.1
			c-10.3,0.9-19.1,3.4-28.3,7.9c-28.1,14-44.8,41.1-44.8,72.5c0,45.2,35.4,80.6,80.6,80.6s80.6-35.4,80.6-80.6
			c0-31.4-16.7-58.5-44.8-72.4C106.1,325.5,91.6,322.8,76,324.1z"/>
	</g>
	<g id="layer-3">
		
			<linearGradient id="region-3-1_00000016037928524829596790000014843086364735242670_" gradientUnits="userSpaceOnUse" x1="41.1779" y1="791.8674" x2="41.2802" y2="792.9521" gradientTransform="matrix(151.2 0 0 151.3311 -5984.3003 -119802.7656)">
			<stop  offset="0" style="stop-color:#9B2427;stop-opacity:0.242"/>
			<stop  offset="1" style="stop-color:#623230;stop-opacity:0.429"/>
		</linearGradient>
		<path id="region-3-1" style="fill:url(#region-3-1_00000016037928524829596790000014843086364735242670_);" d="M242,38.1
			c-25.1,2.1-47.8,17.6-60,41c-5.8,11.1-8.1,20.9-8.1,34.4c0,29.2,15.1,53.9,41.2,67.5c11.1,5.8,20.9,8.1,34.4,8.1
			c29.2,0,53.9-15.1,67.5-41.2c5.8-11.1,8.1-20.9,8.1-34.4s-2.3-23.3-8.1-34.4c-7.7-14.8-18.3-25.4-32.9-33
			C270.9,39.3,257.9,36.8,242,38.1z"/>
		
			<linearGradient id="region-3-2_00000152221950502371750660000015510882052490012804_" gradientUnits="userSpaceOnUse" x1="40.6331" y1="790.9607" x2="41.9818" y2="791.8674" gradientTransform="matrix(146.3127 0 0 347.4198 -5614.4229 -274740.375)">
			<stop  offset="0" style="stop-color:#AA1814;stop-opacity:0.843"/>
			<stop  offset="1" style="stop-color:#5C4073;stop-opacity:0.629"/>
		</linearGradient>
		<path id="region-3-2" style="fill:url(#region-3-2_00000152221950502371750660000015510882052490012804_);" d="M476.2,17.7
			c-1.7,4.3-32.3,82.5-68.1,173.7c-35.8,91.3-64.9,166.1-64.7,166.3c0.3,0.3,145.7-48.4,146.3-49.1c0.4-0.4-9.6-297.9-10.1-298.3
			C479.4,10,477.8,13.4,476.2,17.7z"/>
	</g>
</g>
<g id="图层_3">
	<g id="layer-1_00000133516140583242431630000009204787099049419927_">
		
			<linearGradient id="region-1-1_00000066474465233772959930000013163883962163098555_" gradientUnits="userSpaceOnUse" x1="41.9494" y1="790.5511" x2="42.8866" y2="791.6069" gradientTransform="matrix(500 0 0 500 -20459 -395289)">
			<stop  offset="0" style="stop-color:#801312;stop-opacity:0.999"/>
			<stop  offset="1" style="stop-color:#005D5D;stop-opacity:0.999"/>
		</linearGradient>
		
			<path id="region-1-1_00000029766688812632844040000002901797314083894691_" style="fill:url(#region-1-1_00000066474465233772959930000013163883962163098555_);" d="
			M500,250.5v250h250h250v-250V0.5H750H500V250.5z"/>
	</g>
	<g id="layer-2_00000081622599436952683280000012923937766855851396_">
		
			<linearGradient id="region-2-1_00000018951674436363259500000008288730413783296174_" gradientUnits="userSpaceOnUse" x1="45.2322" y1="791.6647" x2="45.8242" y2="792.989" gradientTransform="matrix(230.3009 0 0 171.5735 -9391.0361 -135820.9062)">
			<stop  offset="0" style="stop-color:#2A4D00;stop-opacity:0.715"/>
			<stop  offset="1" style="stop-color:#6F9B0C;stop-opacity:0.549"/>
		</linearGradient>
		
			<path id="region-2-1_00000100347779306314553380000000720694301868333757_" style="fill:url(#region-2-1_00000018951674436363259500000008288730413783296174_);stroke:#000000;stroke-width:2;stroke-miterlimit:10;" d="
			M1052.2,93.6c-21,45.8-38,83.4-37.9,83.6c0.4,0.4,229.9,6.4,230.3,6c0.3-0.2-147.4-165.7-153-171.5
			C1090.5,10.6,1083.2,25.8,1052.2,93.6z"/>
		
			<linearGradient id="region-2-2_00000007403036149941980840000011849378438236049816_" gradientUnits="userSpaceOnUse" x1="46.8999" y1="790.9735" x2="48.0589" y2="791.9218" gradientTransform="matrix(162 0 0 315 -6308 -249012)">
			<stop  offset="0" style="stop-color:#658486;stop-opacity:6.300000e-02"/>
			<stop  offset="1" style="stop-color:#0BA3A3;stop-opacity:0.771"/>
		</linearGradient>
		
			<path id="region-2-2_00000114767518024726180880000011101035066510492841_" style="fill:url(#region-2-2_00000007403036149941980840000011849378438236049816_);stroke:#000000;stroke-width:2;stroke-miterlimit:10;" d="
			M1297,285v157.5h81h81V285V127.5h-81h-81V285z"/>
		
			<linearGradient id="region-2-3_00000090259524271311744640000007305748475718172558_" gradientUnits="userSpaceOnUse" x1="47.1981" y1="791.692" x2="47.7498" y2="792.8972" gradientTransform="matrix(161.2 0 0 161.3173 -6565.3003 -127405.8828)">
			<stop  offset="0" style="stop-color:#9BFA00;stop-opacity:0.249"/>
			<stop  offset="1" style="stop-color:#E5FF2E;stop-opacity:0.282"/>
		</linearGradient>
		
			<path id="region-2-3_00000170248245920393053520000001062560327036210846_" style="fill:url(#region-2-3_00000090259524271311744640000007305748475718172558_);stroke:#000000;stroke-width:2;stroke-miterlimit:10;" d="
			M1080,324.6c-10.3,0.9-19.1,3.4-28.3,7.9c-28.1,14-44.8,41.1-44.8,72.5c0,45.2,35.4,80.6,80.6,80.6s80.6-35.4,80.6-80.6
			c0-31.4-16.7-58.5-44.8-72.4C1110.1,326,1095.6,323.3,1080,324.6z"/>
	</g>
	<g id="layer-3_00000106863200380767177960000000168787102119362751_">
		
			<linearGradient id="region-3-1_00000088844271195565252470000001798551945681775540_" gradientUnits="userSpaceOnUse" x1="50.9474" y1="791.8707" x2="51.0497" y2="792.9554" gradientTransform="matrix(151.2 0 0 151.3311 -5984.3003 -119802.7656)">
			<stop  offset="0" style="stop-color:#9B2427;stop-opacity:0.242"/>
			<stop  offset="1" style="stop-color:#623230;stop-opacity:0.429"/>
		</linearGradient>
		
			<path id="region-3-1_00000116207833925835725570000003976560762929021089_" style="fill:url(#region-3-1_00000088844271195565252470000001798551945681775540_);stroke:#000000;stroke-width:2;stroke-miterlimit:10;" d="
			M1719.1,38.6c-25.1,2.1-47.8,17.6-60,41c-5.8,11.1-8.1,20.9-8.1,34.4c0,29.2,15.1,53.9,41.2,67.5c11.1,5.8,20.9,8.1,34.4,8.1
			c29.2,0,53.9-15.1,67.5-41.2c5.8-11.1,8.1-20.9,8.1-34.4s-2.3-23.3-8.1-34.4c-7.7-14.8-18.3-25.4-32.9-33
			C1748,39.8,1735,37.3,1719.1,38.6z"/>
		
			<linearGradient id="region-3-2_00000135678751380578464140000014016092621970638237_" gradientUnits="userSpaceOnUse" x1="50.7289" y1="790.9622" x2="52.0776" y2="791.8688" gradientTransform="matrix(146.3127 0 0 347.4198 -5614.4229 -274740.375)">
			<stop  offset="0" style="stop-color:#AA1814;stop-opacity:0.843"/>
			<stop  offset="1" style="stop-color:#5C4073;stop-opacity:0.629"/>
		</linearGradient>
		
			<path id="region-3-2_00000120521185448226238170000017484734371033708435_" style="fill:url(#region-3-2_00000135678751380578464140000014016092621970638237_);stroke:#000000;stroke-width:2;stroke-miterlimit:10;" d="
			M1953.3,18.2c-1.7,4.3-32.3,82.5-68.1,173.7c-35.8,91.3-64.9,166.1-64.7,166.3c0.3,0.3,145.7-48.4,146.3-49.1
			c0.4-0.4-9.6-297.9-10.1-298.3C1956.5,10.5,1954.9,13.9,1953.3,18.2z"/>
	</g>
	<line class="st15" x1="500" y1="0" x2="500" y2="500.5"/>
	<line class="st15" x1="1000" y1="0.5" x2="1000" y2="500.5"/>
	<line class="st15" x1="1500" y1="0" x2="1500" y2="500.5"/>
</g>
</svg>
