<?xml version="1.0" encoding="utf-8"?>
<!-- Generator: Adobe Illustrator 26.5.0, SVG Export Plug-In . SVG Version: 6.00 Build 0)  -->
<svg version="1.1" id="图层_1" xmlns="http://www.w3.org/2000/svg" xmlns:xlink="http://www.w3.org/1999/xlink" x="0px" y="0px"
	 viewBox="0 0 800 400" style="enable-background:new 0 0 800 400;" xml:space="preserve">
<style type="text/css">
	.st0{fill:none;}
	.st1{fill:#D3D3D3;}
	.st2{fill:url(#SVGID_00000177479764182589932610000006563355933179031736_);}
	.st3{fill:url(#fc97d573-f87a-4376-a283-8247d207c373_00000048473354803259239920000004637599741996167597_);}
	.st4{fill:url(#a0b8eb71-8224-4891-979a-20aa551ba833_00000050625341917953344690000001539433451169472669_);}
	.st5{fill:url(#efaada39-b035-46dc-8748-274b2c2100e7_00000084505857224129621300000007710593911990751144_);}
	.st6{fill:url(#b9051d89-e04e-4ab8-a970-e5cc54858e08_00000122001362683880892780000005367845147900802479_);}
	.st7{fill:url(#b3563bf4-0396-488d-92e9-e9f5de28cbdc_00000101811376968429899810000005462948897450508173_);}
	.st8{fill:url(#f6e86afb-7417-46a2-8546-8530d6caf9d7_00000058573800944070798620000005798904072756338869_);}
	.st9{fill:url(#aae8db4c-2836-40ad-a1df-87e28db918a8_00000028293032255573479050000006378707349928155780_);}
	.st10{fill:url(#acaf36ce-72c5-43b5-a7ac-98d8c1b1f9f7_00000160876953991595320750000007842877563623143852_);}
	.st11{fill:url(#fa1b1d95-f5ea-4ec9-be17-9b31ac7ad46e_00000135679098328485652190000009972400882295699073_);}
	.st12{fill:url(#f5b156e2-2da9-49c0-8675-9036e4e06292_00000069372745584564143330000001700571582275685264_);}
	.st13{fill:url(#b936ee8c-f761-47ea-9147-76d37f3ff9cf_00000067935488232155072820000007226553384063678855_);}
	.st14{fill:url(#a3bc26d6-d15b-4157-a78b-b374518e4333_00000129207910079494920340000003170518952679921853_);}
	.st15{fill:url(#a3493c8a-fcb1-4dd6-9d00-0afa4b682929_00000173140613638030046490000000899694683106312378_);}
	.st16{fill:url(#b6de586b-d378-4767-a8c5-e914817ccf23_00000150802117752941263250000016689493884155643799_);}
	.st17{fill:url(#b495dfe4-d2b1-4b92-8dcb-2bdcf596a10e_00000163779737538515699670000011328688869321533115_);}
	.st18{fill:url(#a24f5ccd-4782-49cc-aa60-732e39d00241_00000036224870957398043690000008523742137791721371_);}
	.st19{fill:url(#f825ab99-5df5-4246-ab0d-67d64c7f5233_00000086655263307978724270000008395746659778675596_);}
	.st20{fill:url(#e8f980da-af74-4379-9bd7-575cb7a5162b_00000026844433603381118650000014098912631639117468_);}
	.st21{fill:url(#fc29a71a-1730-47c8-a410-f842385b5420_00000039105638985960123200000014529906165918794160_);}
	.st22{fill:url(#a264be62-1651-49e3-9ddf-2bc61bf2000f_00000050648192646381590640000001954556711835299717_);}
	.st23{fill:url(#af1778b4-ed29-4643-afa9-6255e7349810_00000104689910514274133820000005111793896875164044_);}
	.st24{fill:url(#e42f6fc9-cd49-4ff0-99fd-f25f909b7c11_00000103244810155499364720000006775496416268215712_);}
	
		.st25{fill:url(#ff428dbe-fd2b-4f99-85ef-65fc0578ab45_00000061445024811673434690000006518156175598012802_);stroke:#231815;stroke-width:0.5;stroke-miterlimit:10;}
	.st26{fill:url(#e72cdec7-35b2-4bdc-ab17-7f21ec075ea0_00000013873352717178973160000014895909804730619035_);}
	
		.st27{fill:url(#acaf36ce-72c5-43b5-a7ac-98d8c1b1f9f7_00000106145370176033941550000015376481639338804127_);stroke:#0022C9;stroke-miterlimit:10;}
	.st28{fill:none;stroke:#0022C9;stroke-width:2.9999;stroke-miterlimit:9.9995;}
	.st29{fill:none;stroke:#000000;stroke-width:3;stroke-miterlimit:10;}
	.st30{fill:none;stroke:#0022C9;stroke-width:3.0001;stroke-miterlimit:10.0004;}
</style>
<pattern  y="400" width="40" height="40" patternUnits="userSpaceOnUse" id="SVGID_1_" viewBox="0 -40 40 40" style="overflow:visible;">
	<g>
		<rect y="-40" class="st0" width="40" height="40"/>
		<g>
			<rect y="-40" class="st0" width="40" height="40"/>
			<rect y="-40" class="st0" width="40" height="40"/>
			<rect y="-20" class="st1" width="20" height="20"/>
			<rect x="20" y="-40" class="st1" width="20" height="20"/>
		</g>
	</g>
</pattern>
<pattern  id="SVGID_00000083051080732010240870000000266285002468006055_" xlink:href="#SVGID_1_" patternTransform="matrix(1 0 0 -1 95 -16864)">
</pattern>
<rect style="fill:url(#SVGID_00000083051080732010240870000000266285002468006055_);" width="800" height="400"/>
<g id="b33ad0ca-970f-434b-86ef-feed451e4e23">
	
		<linearGradient id="fc97d573-f87a-4376-a283-8247d207c373_00000142886210365355954440000009009228557932846745_" gradientUnits="userSpaceOnUse" x1="-1059.196" y1="596.8523" x2="-1058.6367" y2="594.2494" gradientTransform="matrix(19.46 0 0 -133.05 21028.1484 79288.1875)">
		<stop  offset="0" style="stop-color:#FFFFFC"/>
		<stop  offset="1" style="stop-color:#BF741A"/>
	</linearGradient>
	
		<path id="fc97d573-f87a-4376-a283-8247d207c373" style="fill:url(#fc97d573-f87a-4376-a283-8247d207c373_00000142886210365355954440000009009228557932846745_);" d="
		M427,12.9c-0.2,0.7-2.4,17.4-5,37.2c-3.5,26.2-4.9,35.9-5.4,35.9s-0.6-0.5-0.4-1.2s2.3-17.1,4.8-36.5c2.4-19.4,4.7-35.6,4.8-35.9
		C426.2,11.1,427.3,11.6,427,12.9"/>
	
		<linearGradient id="a0b8eb71-8224-4891-979a-20aa551ba833_00000163786565182116593650000011530093655960657550_" gradientUnits="userSpaceOnUse" x1="-1092.1041" y1="589.902" x2="-1092.6633" y2="589.2411" gradientTransform="matrix(45.54 0 0 -57.93 50195.6328 34234.7812)">
		<stop  offset="0" style="stop-color:#EED39C"/>
		<stop  offset="1" style="stop-color:#E3B37A"/>
	</linearGradient>
	
		<path id="a0b8eb71-8224-4891-979a-20aa551ba833" style="fill:url(#a0b8eb71-8224-4891-979a-20aa551ba833_00000163786565182116593650000011530093655960657550_);" d="
		M461.8,64.1c0,0.8-24.2,31.8-25,32c-1,0.2-1.5,0.9,13.2-18.3C459.5,65.4,461.9,62.6,461.8,64.1"/>
	
		<linearGradient id="efaada39-b035-46dc-8748-274b2c2100e7_00000020367097054194900650000012186520038338607781_" gradientUnits="userSpaceOnUse" x1="-1111.704" y1="597.8154" x2="-1111.7242" y2="598.3747" gradientTransform="matrix(238.31 0 0 -238.65 265328.0312 142887.8906)">
		<stop  offset="0" style="stop-color:#F9D390"/>
		<stop  offset="1" style="stop-color:#DDBE8E"/>
	</linearGradient>
	
		<path id="efaada39-b035-46dc-8748-274b2c2100e7" style="fill:url(#efaada39-b035-46dc-8748-274b2c2100e7_00000020367097054194900650000012186520038338607781_);" d="
		M396.4,88.6c2.9,0.8,4.2,1.9,33.4,31.1c34.5,34.4,32.8,32.4,32.5,40.7c0,2.9-0.6,5.8-1.9,8.4l-1.6,3.7l1,3.4c1.3,4.4,0.9,8.9-1,13
		c-1.1,2.4-3.9,5.5-13.7,15.5l-12.3,12.3l-25,2.3l-25,2.3l-26.7-26.7l-26.7-26.7l2.3-24.9l2.3-24.9l12.6-12.5
		c8.3-8.2,13.4-13,15.3-13.8c4.2-1.8,8.9-2.1,13.4-0.9c2.6,0.9,2.8,0.9,5.3-0.2C386.5,87.8,391.4,87.3,396.4,88.6"/>
	
		<linearGradient id="b9051d89-e04e-4ab8-a970-e5cc54858e08_00000147184225230216123650000005295856876881708692_" gradientUnits="userSpaceOnUse" x1="-1097.6396" y1="586.6017" x2="-1098.199" y2="587.0186" gradientTransform="matrix(58.6 0 0 -45 64799.5586 26509)">
		<stop  offset="0" style="stop-color:#F5E2B9"/>
		<stop  offset="1" style="stop-color:#EBC89D"/>
	</linearGradient>
	
		<path id="b9051d89-e04e-4ab8-a970-e5cc54858e08" style="fill:url(#b9051d89-e04e-4ab8-a970-e5cc54858e08_00000147184225230216123650000005295856876881708692_);" d="
		M478.1,90.4c0,0.6-31.6,24.7-32.5,24.7c-0.5,0-0.3-0.4,0.4-1c1.9-1.9,31.1-24.1,31.6-24.1C477.7,90,478,90.2,478.1,90.4
		C478,90.4,478,90.4,478.1,90.4"/>
	
		<linearGradient id="b3563bf4-0396-488d-92e9-e9f5de28cbdc_00000021840329172706191190000014909819682413315509_" gradientUnits="userSpaceOnUse" x1="-1107.3264" y1="568.457" x2="-1109.5938" y2="567.8978" gradientTransform="matrix(133 0 0 -18.44 147914 10605.4102)">
		<stop  offset="0" style="stop-color:#FFFFFE"/>
		<stop  offset="1" style="stop-color:#C07F21"/>
	</linearGradient>
	
		<path id="b3563bf4-0396-488d-92e9-e9f5de28cbdc" style="fill:url(#b3563bf4-0396-488d-92e9-e9f5de28cbdc_00000021840329172706191190000014909819682413315509_);" d="
		M525,123.6c0,0.3-0.3,0.6-0.6,0.6c-0.4,0-17,2.1-37,4.8c-20,2.6-36.5,4.7-36.6,4.5c-0.2-0.2-0.2-0.4,0-0.6l0,0
		c0.4-0.4,68.9-9.6,72.1-9.7C524.1,123,525,123.2,525,123.6"/>
	
		<linearGradient id="f6e86afb-7417-46a2-8546-8530d6caf9d7_00000167377107157078252420000009158588832409322673_" gradientUnits="userSpaceOnUse" x1="-1113.1625" y1="599.3704" x2="-1112.7964" y2="598.8112" gradientTransform="matrix(347.61 0 0 -347.79 387164.25 208623.5938)">
		<stop  offset="0" style="stop-color:#828590;stop-opacity:0.99"/>
		<stop  offset="1" style="stop-color:#050A24;stop-opacity:0.99"/>
	</linearGradient>
	
		<path id="f6e86afb-7417-46a2-8546-8530d6caf9d7" style="fill:url(#f6e86afb-7417-46a2-8546-8530d6caf9d7_00000167377107157078252420000009158588832409322673_);" d="
		M316.2,288c-36.6,36.6-66.8,66.5-67.1,66.5c-1.1,0.6-2.1,1.5-3.1,2.5c-6.3,6.4-15.3,6.9-22.5,1.3c-5.5-4.3-32.8-31.8-34.1-34.3
		c-1.6-3.3-1.5-11.8,0-15.4c0.9-1.9,16.4-17.7,70.3-71.7l69.1-69.2l26.8,26.8l26.8,26.8L316.2,288"/>
	
		<linearGradient id="aae8db4c-2836-40ad-a1df-87e28db918a8_00000161618359833074795670000000233945961744588674_" gradientUnits="userSpaceOnUse" x1="-1109.1692" y1="584.2786" x2="-1109.2709" y2="584.8378" gradientTransform="matrix(174.03 0 0 -25.83 193276.0156 15462.0098)">
		<stop  offset="0" style="stop-color:#DFDFDF"/>
		<stop  offset="1" style="stop-color:#DBDADA"/>
	</linearGradient>
	
		<path id="aae8db4c-2836-40ad-a1df-87e28db918a8" style="fill:url(#aae8db4c-2836-40ad-a1df-87e28db918a8_00000161618359833074795670000000233945961744588674_);" d="
		M222.1,357.1c4.2,3.8,7,5,12.1,4.9c5.1-0.1,8.1-1.3,11.8-5l2.4-2.5h4.6c7.5,0.1,14.9,0.9,22.4,2.3c12.6,2.5,14.1,6,3.9,8.7
		c-8.7,2.3-16.2,2.9-37.5,3.3c-25.8,0.4-39.8-0.7-49.2-3.9c-3.7-1.2-3.8-1.3-3.8-3.3c0-1.6,0.3-2,1.9-2.8c3.8-1.7,18.2-4.2,25.9-4.4
		C219.1,354.5,219.5,354.8,222.1,357.1"/>
</g>
<linearGradient id="acaf36ce-72c5-43b5-a7ac-98d8c1b1f9f7_00000178175648558866377210000009525102489645602176_" gradientUnits="userSpaceOnUse" x1="-1108.7458" y1="596.677" x2="-1109.3051" y2="596.3821" gradientTransform="matrix(150.09 0 0 -150.26 166874.4688 89765.0703)">
	<stop  offset="0" style="stop-color:#EEF4EF;stop-opacity:0.85"/>
	<stop  offset="1" style="stop-color:#A7AEA9;stop-opacity:0.7"/>
</linearGradient>
<path id="acaf36ce-72c5-43b5-a7ac-98d8c1b1f9f7" style="fill:url(#acaf36ce-72c5-43b5-a7ac-98d8c1b1f9f7_00000178175648558866377210000009525102489645602176_);" d="
	M396.4,88.6c2.9,0.8,4.2,1.9,33.4,31.1c34.5,34.4,32.9,32.4,32.5,40.7c0,2.8-0.6,5.6-1.7,8.1l-1.5,3.4l-40.3-40.3l-40.3-40.2l2.2-1
	C386.5,87.8,391.6,87.3,396.4,88.6"/>
<linearGradient id="fa1b1d95-f5ea-4ec9-be17-9b31ac7ad46e_00000008853781860693784290000002875485469395203215_" gradientUnits="userSpaceOnUse" x1="-1078.6467" y1="531.0234" x2="-1078.6467" y2="531.5826" gradientTransform="matrix(30.68 0 0 -8.96 33462.5586 4857.75)">
	<stop  offset="0" style="stop-color:#FEF8EA;stop-opacity:0.8"/>
	<stop  offset="1" style="stop-color:#FDF5E6;stop-opacity:0.79"/>
</linearGradient>
<path id="fa1b1d95-f5ea-4ec9-be17-9b31ac7ad46e" style="fill:url(#fa1b1d95-f5ea-4ec9-be17-9b31ac7ad46e_00000008853781860693784290000002875485469395203215_);" d="
	M373.9,96.6c3.5,1.7,5.4,3.4,3.9,3.4c-0.6-0.1-1.1-0.3-1.5-0.8c-1.1-0.8-2.2-1.5-3.6-2c-3.5-1.5-7-1.3-9.5,0.5
	c-1.7,1.3-2.2,1.4-2.2,0.6c0-0.3,1-1.1,2.3-1.9C366.8,94.5,369.8,94.6,373.9,96.6"/>
<linearGradient id="f5b156e2-2da9-49c0-8675-9036e4e06292_00000119092987417059832600000017201287697909458305_" gradientUnits="userSpaceOnUse" x1="-1056.7045" y1="569.2518" x2="-1056.7045" y2="569.8115" gradientTransform="matrix(19.69 0 0 -19.69 21156.041 11323.8701)">
	<stop  offset="0" style="stop-color:#F9E9CA;stop-opacity:0.81"/>
	<stop  offset="1" style="stop-color:#F7E1C2;stop-opacity:0.77"/>
</linearGradient>
<path id="f5b156e2-2da9-49c0-8675-9036e4e06292" style="fill:url(#f5b156e2-2da9-49c0-8675-9036e4e06292_00000119092987417059832600000017201287697909458305_);" d="
	M355,105.6c0,0.8-10.6,11-11,10.6c-0.4-0.4,9.8-11,10.6-11C354.8,105,355,105.3,355,105.6C355,105.5,355,105.5,355,105.6"/>
<linearGradient id="b936ee8c-f761-47ea-9147-76d37f3ff9cf_00000011016376005589634870000010801032557050745780_" gradientUnits="userSpaceOnUse" x1="-1109.9991" y1="597.472" x2="-1110.5583" y2="597.4415" gradientTransform="matrix(185.26 0 0 -185.08 206071.1719 110745.6875)">
	<stop  offset="0" style="stop-color:#E95D52;stop-opacity:0.66"/>
	<stop  offset="1" style="stop-color:#A35044;stop-opacity:0.81"/>
</linearGradient>
<path id="b936ee8c-f761-47ea-9147-76d37f3ff9cf" style="fill:url(#b936ee8c-f761-47ea-9147-76d37f3ff9cf_00000011016376005589634870000010801032557050745780_);" d="
	M407.7,219l-25,2.3l-26.7-26.7l-26.7-26.7l2-22.1c1.1-12.1,2.2-23.4,2.4-25l0.3-2.9l49.4,49.4l49.4,49.4L407.7,219"/>
<linearGradient id="a3bc26d6-d15b-4157-a78b-b374518e4333_00000156557373366128141910000004828260815180311467_" gradientUnits="userSpaceOnUse" x1="-1104.4871" y1="595.1053" x2="-1104.6295" y2="595.6646" gradientTransform="matrix(102.67 0 0 -102.67 113692.7188 61346.2617)">
	<stop  offset="0" style="stop-color:#C8C350;stop-opacity:0.82"/>
	<stop  offset="1" style="stop-color:#C7C376;stop-opacity:0.73"/>
</linearGradient>
<path id="a3bc26d6-d15b-4157-a78b-b374518e4333" style="fill:url(#a3bc26d6-d15b-4157-a78b-b374518e4333_00000156557373366128141910000004828260815180311467_);" d="
	M316.4,189.4c0,0.8-57,57.4-57.4,56.9s56.1-57.4,56.9-57.4C316.2,188.9,316.4,189.1,316.4,189.4L316.4,189.4"/>
<linearGradient id="a3493c8a-fcb1-4dd6-9d00-0afa4b682929_00000086674633084076804150000018306030602895277701_" gradientUnits="userSpaceOnUse" x1="-1106.0413" y1="595.8557" x2="-1106.0719" y2="596.415" gradientTransform="matrix(116 0 0 -115.48 128608.9844 69086.6797)">
	<stop  offset="0" style="stop-color:#04050E;stop-opacity:0.42"/>
	<stop  offset="1" style="stop-color:#04040D;stop-opacity:0.56"/>
</linearGradient>
<path id="a3493c8a-fcb1-4dd6-9d00-0afa4b682929" style="fill:url(#a3493c8a-fcb1-4dd6-9d00-0afa4b682929_00000086674633084076804150000018306030602895277701_);" d="
	M331.1,219.5l7.6,7.7l-24.6,24.6l-24.5,24.6l-7.8-7.8l-7.8-7.8l24.5-24.5c13.4-13.4,24.6-24.5,24.8-24.5S326.9,215.4,331.1,219.5"/>
<linearGradient id="b6de586b-d378-4767-a8c5-e914817ccf23_00000144313200792008248030000017506623477754281130_" gradientUnits="userSpaceOnUse" x1="-1058.4591" y1="577.5181" x2="-1058.4591" y2="578.0774" gradientTransform="matrix(21.69 0 0 -21.69 23204.0508 12789.5996)">
	<stop  offset="0" style="stop-color:#D8D251;stop-opacity:0.81"/>
	<stop  offset="1" style="stop-color:#D0CB57;stop-opacity:0.77"/>
</linearGradient>
<path id="b6de586b-d378-4767-a8c5-e914817ccf23" style="fill:url(#b6de586b-d378-4767-a8c5-e914817ccf23_00000144313200792008248030000017506623477754281130_);" d="
	M252.1,253.7c0,0.8-11.7,12.1-12.1,11.7c-0.4-0.4,10.9-12.1,11.7-12.1C251.9,253.3,252.1,253.5,252.1,253.7L252.1,253.7"/>
<linearGradient id="b495dfe4-d2b1-4b92-8dcb-2bdcf596a10e_00000175294441305692042670000000415143948672036742_" gradientUnits="userSpaceOnUse" x1="-1090.9312" y1="591.3727" x2="-1091.4905" y2="590.966" gradientTransform="matrix(50.68 0 0 -50.68 55522.8906 30245.7598)">
	<stop  offset="0" style="stop-color:#D7D25F;stop-opacity:0.8"/>
	<stop  offset="1" style="stop-color:#CDC648;stop-opacity:0.8"/>
</linearGradient>
<path id="b495dfe4-d2b1-4b92-8dcb-2bdcf596a10e" style="fill:url(#b495dfe4-d2b1-4b92-8dcb-2bdcf596a10e_00000175294441305692042670000000415143948672036742_);" d="
	M233.1,272.7c0,0.8-28,28.4-28.4,28c-0.4-0.4,27-28.4,27.9-28.4C232.9,272.3,233.1,272.5,233.1,272.7L233.1,272.7"/>
<g id="fb34efbb-96c9-402d-819e-116e1566a4c8">
	
		<linearGradient id="a24f5ccd-4782-49cc-aa60-732e39d00241_00000005966144794708601720000005170912727007995040_" gradientUnits="userSpaceOnUse" x1="-865.0367" y1="586.4524" x2="-865.0367" y2="587.012" gradientTransform="matrix(4.72 0 0 -42.26 4420.2998 24942.1797)">
		<stop  offset="0" style="stop-color:#FFF8F2;stop-opacity:0.82"/>
		<stop  offset="1" style="stop-color:#FCE5DF;stop-opacity:0.76"/>
	</linearGradient>
	
		<path id="a24f5ccd-4782-49cc-aa60-732e39d00241" style="fill:url(#a24f5ccd-4782-49cc-aa60-732e39d00241_00000005966144794708601720000005170912727007995040_);" d="
		M337.9,145.8c-1,11-1.8,15-1.9,9.6c0-3.8,1.5-20.1,2-20.9C338.9,133.2,338.9,136,337.9,145.8"/>
	
		<linearGradient id="f825ab99-5df5-4246-ab0d-67d64c7f5233_00000076569552766535968890000011621638325296192403_" gradientUnits="userSpaceOnUse" x1="-1114.041" y1="598.8346" x2="-1114.041" y2="599.3939" gradientTransform="matrix(486.79 0 0 -352.17 542628.4375 211249.7969)">
		<stop  offset="0" style="stop-color:#313526;stop-opacity:0.38"/>
		<stop  offset="1" style="stop-color:#04040F;stop-opacity:0.4"/>
	</linearGradient>
	
		<path id="f825ab99-5df5-4246-ab0d-67d64c7f5233" style="fill:url(#f825ab99-5df5-4246-ab0d-67d64c7f5233_00000076569552766535968890000011621638325296192403_);" d="
		M459.7,175.5c0.8,2.3,1.1,4.8,0.9,7.2c-0.7,6.3-2.1,8.2-15.5,21.6l-12.3,12.3l-25,2.3l-25,2.3l-66.6,66.6
		c-36.6,36.6-66.9,66.6-67.2,66.6c-1.1,0.6-2.1,1.5-3.1,2.5c-6.3,6.4-15.3,6.9-22.5,1.3c-5.5-4.3-32.8-31.8-34.1-34.3
		c-0.9-1.8-1.1-3.5-1.1-7.6c0-6.6,0.8-8.5,5.6-13.4l3.5-3.6l-0.4,2.8c-0.8,5.2-0.5,10.4,0.9,13.1c0.8,1.6,6.7,7.9,17.6,18.9
		c17.1,17.2,18.1,17.9,21.1,16.4c0.7-0.4,32-31.3,69.5-68.7s68.7-68.2,69.3-68.4c0.6-0.2,6.6-0.8,13.4-1.4c6.8-0.6,17.6-1.6,24-2.2
		l11.7-1.1l12.2-12.2c14.8-14.7,15.1-15.3,15.5-24.7l0.2-6.4l2.9,3.1c2,1.9,3.6,4.4,4.2,7.1"/>
	
		<linearGradient id="e8f980da-af74-4379-9bd7-575cb7a5162b_00000119075995694849543620000015840363574493993146_" gradientUnits="userSpaceOnUse" x1="-1100.4065" y1="593.4238" x2="-1100.4065" y2="593.9831" gradientTransform="matrix(74.97 0 0 -75 82810 44767.2109)">
		<stop  offset="0" style="stop-color:#FFFFFF;stop-opacity:0.85"/>
		<stop  offset="1" style="stop-color:#E9EBEA;stop-opacity:0.74"/>
	</linearGradient>
	
		<path id="e8f980da-af74-4379-9bd7-575cb7a5162b" style="fill:url(#e8f980da-af74-4379-9bd7-575cb7a5162b_00000119075995694849543620000015840363574493993146_);" d="
		M318.1,243.5l-15.4,15.4l-5.6-5.6l-5.6-5.6l15.4-15.4l15.4-15.4l5.6,5.6l5.6,5.6L318.1,243.5"/>
</g>
<g id="bea5f691-2ef3-425f-8dcd-e7740b07cd2b">
	
		<linearGradient id="fc29a71a-1730-47c8-a410-f842385b5420_00000011716509808119037260000016378131195433444531_" gradientUnits="userSpaceOnUse" x1="-1090.5583" y1="589.8774" x2="-1090.5583" y2="589.3181" gradientTransform="matrix(46.51 0 0 -46.72 51034.1875 27785.2109)">
		<stop  offset="0" style="stop-color:#070404;stop-opacity:0.77"/>
		<stop  offset="1" style="stop-color:#040000;stop-opacity:0.85"/>
	</linearGradient>
	
		<path id="fc29a71a-1730-47c8-a410-f842385b5420" style="fill:url(#fc29a71a-1730-47c8-a410-f842385b5420_00000011716509808119037260000016378131195433444531_);" d="
		M315.8,241.4l-9.7,9.7l-3.4-3.4l-3.4-3.4l9.7-9.7l9.7-9.7l3.3,3.5l3.3,3.5L315.8,241.4"/>
</g>
<linearGradient id="a264be62-1651-49e3-9ddf-2bc61bf2000f_00000173864570889767430720000002475022677319240839_" gradientUnits="userSpaceOnUse" x1="-1110.7904" y1="597.6051" x2="-1110.8107" y2="598.1643" gradientTransform="matrix(238.31 0 0 -238.65 265328.0312 142887.8906)">
	<stop  offset="0" style="stop-color:#F9D390"/>
	<stop  offset="1" style="stop-color:#DDBE8E"/>
</linearGradient>
<path id="a264be62-1651-49e3-9ddf-2bc61bf2000f" style="fill:url(#a264be62-1651-49e3-9ddf-2bc61bf2000f_00000173864570889767430720000002475022677319240839_);" d="
	M614.1,138c2.9,0.8,4.1,1.9,33.4,31.1c34.5,34.4,32.8,32.4,32.5,40.7c0,2.9-0.6,5.8-1.9,8.4l-1.7,3.7l1,3.4c1.3,4.4,0.9,8.9-1,13.1
	c-1.1,2.4-3.9,5.5-13.7,15.5l-12.3,12.3l-25,2.3l-25,2.3l-26.6-26.8l-26.7-26.7l2.3-24.9l2.3-24.9l12.6-12.5
	c8.3-8.2,13.4-13,15.3-13.8c4.2-1.8,8.9-2.2,13.4-0.9c2.6,0.9,2.8,0.9,5.3-0.2C604.2,137.1,609.2,136.6,614.1,138"/>
<linearGradient id="af1778b4-ed29-4643-afa9-6255e7349810_00000003814496527341616130000000498550911067518908_" gradientUnits="userSpaceOnUse" x1="-1108.0729" y1="597.1573" x2="-1108.6219" y2="597.1166" gradientTransform="matrix(185.26 0 0 -185.08 206071.1719 110745.6875)">
	<stop  offset="0" style="stop-color:#E95D52;stop-opacity:0.66"/>
	<stop  offset="1" style="stop-color:#A35044;stop-opacity:0.81"/>
</linearGradient>
<path id="af1778b4-ed29-4643-afa9-6255e7349810" style="fill:url(#af1778b4-ed29-4643-afa9-6255e7349810_00000003814496527341616130000000498550911067518908_);" d="
	M765.3,277.6l-24.6,2.3l-26.2-26.2l-26.2-26.2l2-21.6c1.1-11.9,2.1-23,2.3-24.5l0.3-2.9l48.5,48.5l48.5,48.5L765.3,277.6"/>
<linearGradient id="e42f6fc9-cd49-4ff0-99fd-f25f909b7c11_00000035526448876308821670000017684155779183578511_" gradientUnits="userSpaceOnUse" x1="-1108.3883" y1="595.8743" x2="-1108.4187" y2="596.4334" gradientTransform="matrix(116 0.12 0.12 -115.48 128537.7969 69220.6562)">
	<stop  offset="0" style="stop-color:#04050E;stop-opacity:0.42"/>
	<stop  offset="1" style="stop-color:#04040D;stop-opacity:0.56"/>
</linearGradient>
<path id="e42f6fc9-cd49-4ff0-99fd-f25f909b7c11" style="fill:url(#e42f6fc9-cd49-4ff0-99fd-f25f909b7c11_00000035526448876308821670000017684155779183578511_);" d="
	M59.2,217.6l7.6,7.7l-24.6,24.6l-24.6,24.5l-7.8-7.8L2,258.8l24.5-24.4C39.9,221,51.1,210,51.3,210C51.5,210,55,213.4,59.2,217.6"/>
<linearGradient id="ff428dbe-fd2b-4f99-85ef-65fc0578ab45_00000062193550535160530530000016096586815607169956_" gradientUnits="userSpaceOnUse" x1="-1103.3126" y1="593.3846" x2="-1103.3126" y2="593.9434" gradientTransform="matrix(74.97 8.000000e-02 8.000000e-02 -75 82763.7031 44856.543)">
	<stop  offset="0" style="stop-color:#FFFFFF;stop-opacity:0.85"/>
	<stop  offset="1" style="stop-color:#E9EBEA;stop-opacity:0.74"/>
</linearGradient>
<path id="ff428dbe-fd2b-4f99-85ef-65fc0578ab45" style="fill:url(#ff428dbe-fd2b-4f99-85ef-65fc0578ab45_00000062193550535160530530000016096586815607169956_);stroke:#231815;stroke-width:0.5;stroke-miterlimit:10;" d="
	M101.4,247.8l-15.4,15.4l-5.6-5.6l-5.6-5.6l15.4-15.4l15.4-15.4l5.6,5.6l5.6,5.6L101.4,247.8"/>
<linearGradient id="e72cdec7-35b2-4bdc-ab17-7f21ec075ea0_00000176006172865302616410000007043822190793749891_" gradientUnits="userSpaceOnUse" x1="-1094.0923" y1="589.7857" x2="-1094.0923" y2="589.2267" gradientTransform="matrix(46.51 0 0 -46.72 51034.1875 27785.2109)">
	<stop  offset="0" style="stop-color:#070404;stop-opacity:0.77"/>
	<stop  offset="1" style="stop-color:#040000;stop-opacity:0.85"/>
</linearGradient>
<path id="e72cdec7-35b2-4bdc-ab17-7f21ec075ea0" style="fill:url(#e72cdec7-35b2-4bdc-ab17-7f21ec075ea0_00000176006172865302616410000007043822190793749891_);" d="
	M151.4,245.6l-9.7,9.7l-3.4-3.4l-3.4-3.4l9.7-9.7l9.7-9.7l3.4,3.4l3.3,3.5L151.4,245.6"/>
<linearGradient id="acaf36ce-72c5-43b5-a7ac-98d8c1b1f9f7_00000021805331462337007030000015578849211405642129_" gradientUnits="userSpaceOnUse" x1="-1107.0831" y1="596.6285" x2="-1107.6423" y2="596.3335" gradientTransform="matrix(150.09 0 0 -150.26 166874.4688 89765.0703)">
	<stop  offset="0" style="stop-color:#EEF4EF;stop-opacity:0.85"/>
	<stop  offset="1" style="stop-color:#A7AEA9;stop-opacity:0.7"/>
</linearGradient>
<path id="acaf36ce-72c5-43b5-a7ac-98d8c1b1f9f7_00000111172367254007116640000002811299385940923062_" style="fill:url(#acaf36ce-72c5-43b5-a7ac-98d8c1b1f9f7_00000021805331462337007030000015578849211405642129_);stroke:#0022C9;stroke-miterlimit:10;" d="
	M646,95.9c2.9,0.8,4.2,1.9,33.4,31.1c34.5,34.4,32.8,32.4,32.5,40.7c0,2.8-0.6,5.6-1.7,8.1l-1.5,3.4l-40.3-40.3l-40.3-40.3l2.2-1
	C636.1,95.1,641.1,94.5,646,95.9"/>
<rect x="269" y="223.7" transform="matrix(0.7126 -0.7015 0.7015 0.7126 -83.5937 284.9868)" class="st28" width="74.2" height="41.6"/>
<g>
	<line class="st29" x1="257.4" y1="244.1" x2="198.9" y2="244.1"/>
	<path d="M180.5,244.1c8.6-3.3,19.4-8.6,26-14.5l-5.3,14.5l5.4,14.5C200,252.9,189.2,247.4,180.5,244.1z"/>
</g>
<rect x="333.3" y="78.9" transform="matrix(0.7182 -0.6959 0.6959 0.7182 0.9429 317.9845)" class="st30" width="119.5" height="157.9"/>
<g>
	<line class="st29" x1="492.7" y1="146" x2="533.9" y2="146"/>
	<path d="M546.9,146c-6.1,3.3-13.6,8.6-18.3,14.5l3.8-14.5l-3.8-14.5C533.2,137.4,540.8,142.9,546.9,146z"/>
</g>
</svg>
