<?xml version="1.0" encoding="utf-8"?>
<!-- Generator: Adobe Illustrator 26.5.0, SVG Export Plug-In . SVG Version: 6.00 Build 0)  -->
<svg version="1.1" id="图层_1" xmlns="http://www.w3.org/2000/svg" xmlns:xlink="http://www.w3.org/1999/xlink" x="0px" y="0px"
	 viewBox="0 0 800 400" style="enable-background:new 0 0 800 400;" xml:space="preserve">
<style type="text/css">
	.st0{fill:none;}
	.st1{fill:#D3D3D3;}
	.st2{fill:url(#SVGID_00000005980414958267253560000001270767157616855948_);}
	.st3{fill:url(#SVGID_00000124868972455030037980000007056399414497524623_);}
	.st4{fill:url(#SVGID_00000180352628762725028370000011549880907147215530_);}
	.st5{fill:url(#SVGID_00000061434121685004324720000003942421478877971093_);}
	.st6{fill:url(#SVGID_00000182524132934005743080000013381114094539778723_);}
	.st7{fill:url(#SVGID_00000120525913466675198280000002197281403021755574_);}
	.st8{fill:url(#SVGID_00000097480848554970411990000011642413573150763414_);}
	.st9{fill:url(#SVGID_00000124126584445359915700000004680249187509180831_);}
	.st10{fill:url(#SVGID_00000143593480541008245550000004151624937267388585_);}
	.st11{fill:url(#SVGID_00000014600995986135572280000003568656800735603074_);}
	.st12{fill:url(#SVGID_00000117671095526025690780000010744823333107667342_);}
	.st13{fill:url(#SVGID_00000183955099441250491260000009728742018932135296_);}
	.st14{fill:url(#SVGID_00000178883396278167535830000007996451036913105087_);}
	.st15{fill:url(#SVGID_00000160187771831096017940000001117552663986975404_);}
	.st16{fill:url(#SVGID_00000093865858290751267150000000015828073555830934_);}
	.st17{fill:url(#SVGID_00000153666489841969435150000010244180561063392386_);}
	.st18{fill:url(#SVGID_00000139984599890634411360000003442542701098416515_);}
	.st19{fill:url(#SVGID_00000140717312679247872980000013900330607237046931_);}
	.st20{fill:url(#SVGID_00000073718784141394291370000000330124412525323962_);}
	.st21{fill:url(#SVGID_00000008111880535744949790000016258459623531006395_);}
	.st22{fill:url(#SVGID_00000053519452129507623650000004234038017767177909_);}
	.st23{fill:url(#SVGID_00000003095456953630464700000007281295657893312937_);}
	.st24{fill:url(#SVGID_00000101092541249962512110000012867582015118574982_);}
	
		.st25{fill:url(#SVGID_00000069375216127176112660000014018625746441448583_);stroke:#040000;stroke-width:0.5;stroke-miterlimit:10;}
	.st26{fill:url(#SVGID_00000061437911347561325800000012485378219667752583_);stroke:#000000;stroke-miterlimit:10;}
	.st27{fill:url(#SVGID_00000152953022458037908740000015197084945906619542_);}
	.st28{fill:none;stroke:#FF0000;stroke-width:2.9999;stroke-miterlimit:9.9995;}
	.st29{fill:none;stroke:#FF0000;stroke-width:3.0001;stroke-miterlimit:10.0004;}
	.st30{fill:none;stroke:#000000;stroke-width:3;stroke-miterlimit:10;}
</style>
<pattern  y="400" width="40" height="40" patternUnits="userSpaceOnUse" id="SVGID_1_" viewBox="0 -40 40 40" style="overflow:visible;">
	<g>
		<rect y="-40" class="st0" width="40" height="40"/>
		<g>
			<rect y="-40" class="st0" width="40" height="40"/>
			<rect y="-40" class="st0" width="40" height="40"/>
			<rect y="-20" class="st1" width="20" height="20"/>
			<rect x="20" y="-40" class="st1" width="20" height="20"/>
		</g>
	</g>
</pattern>
<pattern  id="SVGID_00000130616298164398286270000001566279846905610630_" xlink:href="#SVGID_1_" patternTransform="matrix(1 0 0 -1 104.78 -16864.3203)">
</pattern>
<rect style="fill:url(#SVGID_00000130616298164398286270000001566279846905610630_);" width="800" height="400"/>
<linearGradient id="SVGID_00000085240217168522252930000011350826091090441404_" gradientUnits="userSpaceOnUse" x1="-1110.3865" y1="603.2172" x2="-1109.8062" y2="603.2172" gradientTransform="matrix(226.42 0 0 226.37 252055.3125 -136357.9531)">
	<stop  offset="0" style="stop-color:#E5C289"/>
	<stop  offset="1" style="stop-color:#E5C289"/>
</linearGradient>
<path style="fill:url(#SVGID_00000085240217168522252930000011350826091090441404_);" d="M674.1,127.1c-3.7,1.2-6.3,3.4-18.6,15.5
	l-13.1,13l51.2,51.1l51.2,51.2l12.8-12.9c13.8-13.8,15.3-15.8,16-22.4c0.3-2.5,0-5.2-0.8-7.5l-1.3-4.2l-41.1-41.1
	c-41-41.1-41.1-41.2-44.6-42.2C682.5,126.8,676.8,126.4,674.1,127.1z"/>
<linearGradient id="SVGID_00000067220519558807975350000011398582221031820708_" gradientUnits="userSpaceOnUse" x1="-1108.9142" y1="603.9807" x2="-1108.5557" y2="603.7908" gradientTransform="matrix(185.3 0 0 185.1 206115.5781 -111546.5234)">
	<stop  offset="0" style="stop-color:#C77059"/>
	<stop  offset="1" style="stop-color:#D87960"/>
</linearGradient>
<path style="fill:url(#SVGID_00000067220519558807975350000011398582221031820708_);" d="M626.4,178.9c-0.2,1.7-1.4,13.3-2.5,25.9
	l-2.1,22.8l27.8,27.7l27.7,27.7l25.9-2.4l25.9-2.4l-51.2-51.2l-51.2-51.2L626.4,178.9z"/>
<g>
	
		<linearGradient id="SVGID_00000042732531956429865000000017881273032797306007_" gradientUnits="userSpaceOnUse" x1="-1108.5499" y1="633.5573" x2="-1107.97" y2="633.5573" gradientTransform="matrix(133.01 0 0 18.24 147924.9219 -11418.7803)">
		<stop  offset="0" style="stop-color:#E8C794"/>
		<stop  offset="1" style="stop-color:#E8C794"/>
	</linearGradient>
	<path style="fill:url(#SVGID_00000042732531956429865000000017881273032797306007_);" d="M513.4,136.8c-19.9,2.6-36.3,5-36.5,5.2
		c-0.2,0.1-0.2,0.3-0.1,0.5c0,0,0,0.1,0.1,0.1c0.2,0.2,17.3-1.9,38-4.6c20.7-2.7,38.1-5,38.4-5c0.3,0,0.6-0.2,0.6-0.6
		C553.8,131.5,551.1,131.7,513.4,136.8z"/>
	
		<linearGradient id="SVGID_00000077310394710295594490000011014732207542848163_" gradientUnits="userSpaceOnUse" x1="-1092.0731" y1="611.5278" x2="-1091.4923" y2="611.5278" gradientTransform="matrix(45.52 0 0 57.97 50173.1016 -35363.0898)">
		<stop  offset="0" style="stop-color:#E9C995"/>
		<stop  offset="1" style="stop-color:#E9C995"/>
	</linearGradient>
	<path style="fill:url(#SVGID_00000077310394710295594490000011014732207542848163_);" d="M476,84.9c-15.2,19.8-14.8,19.2-13.6,19
		c0.8-0.2,25.9-32.4,25.9-33.2C488.4,69.3,485.8,72.2,476,84.9z"/>
	
		<linearGradient id="SVGID_00000067218155783308741950000016912551971150150589_" gradientUnits="userSpaceOnUse" x1="-1058.0342" y1="605.5006" x2="-1057.4541" y2="605.5006" gradientTransform="matrix(19.5 0 0 133.06 21072.5703 -80512.8594)">
		<stop  offset="0" style="stop-color:#E8C695"/>
		<stop  offset="1" style="stop-color:#E8C695"/>
	</linearGradient>
	<path style="fill:url(#SVGID_00000067218155783308741950000016912551971150150589_);" d="M450.9,17.1c-0.1,0.4-2.3,17.2-5,37.3
		c-2.6,20.1-4.8,37.1-5,37.8c-0.2,0.8,0,1.4,0.4,1.4s2.1-10.1,5.6-37.3c2.6-20.5,5-37.8,5.2-38.6C452.5,16.4,451.4,15.9,450.9,17.1z
		"/>
	
		<linearGradient id="SVGID_00000045580660850004479810000000488447899032486549_" gradientUnits="userSpaceOnUse" x1="-1097.7599" y1="614.3772" x2="-1097.1799" y2="614.3772" gradientTransform="matrix(58.64 0 0 45 64844.0195 -27536.3203)">
		<stop  offset="0" style="stop-color:#EDCB97"/>
		<stop  offset="1" style="stop-color:#EDCB97"/>
	</linearGradient>
	<path style="fill:url(#SVGID_00000045580660850004479810000000488447899032486549_);" d="M488.6,109.6
		c-16.7,12.8-18.3,14.1-17.1,14.1c0.8,0,33.6-25,33.7-25.7c0-0.2-0.2-0.4-0.5-0.4S497.1,103,488.6,109.6z"/>
	
		<linearGradient id="SVGID_00000124862544024222138870000016365759016604242064_" gradientUnits="userSpaceOnUse" x1="-1111.6538" y1="603.0891" x2="-1111.0735" y2="603.0891" gradientTransform="matrix(226.42 0 0 226.37 252055.3125 -136357.9531)">
		<stop  offset="0" style="stop-color:#E5C289"/>
		<stop  offset="1" style="stop-color:#E5C289"/>
	</linearGradient>
	<path style="fill:url(#SVGID_00000124862544024222138870000016365759016604242064_);" d="M387.5,98.1c-3.7,1.2-6.3,3.4-18.6,15.5
		l-13.1,13l51.2,51.1l51.2,51.2l12.8-12.8c13.8-13.8,15.3-15.8,16-22.4c0.3-2.5,0-5.2-0.8-7.5l-1.3-4.2l-41.1-41.2
		c-41-41.1-41.1-41.1-44.6-42.2C395.8,97.7,390,97.4,387.5,98.1z"/>
	
		<linearGradient id="SVGID_00000172430825259791365640000005623022410380317351_" gradientUnits="userSpaceOnUse" x1="-1078.1404" y1="670.8301" x2="-1077.5607" y2="670.8301" gradientTransform="matrix(30.65 0 0 8.95 33428.832 -5898.5)">
		<stop  offset="0" style="stop-color:#F8EBD7"/>
		<stop  offset="1" style="stop-color:#F8EBD7"/>
	</linearGradient>
	<path style="fill:url(#SVGID_00000172430825259791365640000005623022410380317351_);" d="M386.4,104.3c-1.4,0.8-2.5,1.7-2.5,2
		c0,0.8,0.4,0.6,2.2-0.7c2.5-1.9,6.2-2.1,9.8-0.5c1.4,0.5,2.5,1.3,3.7,2.1c0.4,0.4,0.9,0.7,1.5,0.8c1.6,0-0.3-1.7-4-3.6
		C393,102.3,389.8,102.3,386.4,104.3z"/>
	
		<linearGradient id="SVGID_00000120554527426484158300000002465212118781027241_" gradientUnits="userSpaceOnUse" x1="-1110.3807" y1="603.7168" x2="-1110.0223" y2="603.527" gradientTransform="matrix(185.3 0 0 185.1 206115.5781 -111546.5234)">
		<stop  offset="0" style="stop-color:#C77059"/>
		<stop  offset="1" style="stop-color:#D87960"/>
	</linearGradient>
	<path style="fill:url(#SVGID_00000120554527426484158300000002465212118781027241_);" d="M355.4,129.6c-0.2,1.7-1.4,13.3-2.5,25.9
		l-2.1,22.8l27.8,27.7l27.7,27.7l25.9-2.4l25.9-2.4L407,177.7l-51.3-51.2L355.4,129.6z"/>
	
		<linearGradient id="SVGID_00000170264731069855353610000011568633583496778116_" gradientUnits="userSpaceOnUse" x1="-857.8969" y1="614.4534" x2="-857.3171" y2="614.4534" gradientTransform="matrix(4.67 0 0 42.28 4364.27 -25823.3809)">
		<stop  offset="0" style="stop-color:#F0CCC2"/>
		<stop  offset="1" style="stop-color:#F0CCC2"/>
	</linearGradient>
	<path style="fill:url(#SVGID_00000170264731069855353610000011568633583496778116_);" d="M360,143.8c-0.4,0.8-2.1,17.8-2.1,21.7
		c0.1,5.7,0.8,1.4,2-9.9C360.8,145.2,360.9,142.4,360,143.8z"/>
	
		<linearGradient id="SVGID_00000107558472948636495860000006500512739513863310_" gradientUnits="userSpaceOnUse" x1="-1055.9707" y1="631.898" x2="-1055.3907" y2="631.898" gradientTransform="matrix(19.73 0 0 19.62 21200.459 -12278.8301)">
		<stop  offset="0" style="stop-color:#F6E7CD"/>
		<stop  offset="1" style="stop-color:#F6E7CD"/>
	</linearGradient>
	<path style="fill:url(#SVGID_00000107558472948636495860000006500512739513863310_);" d="M371.2,118.8c-3.1,3.1-5.3,5.7-5.1,5.9
		c0.4,0.4,11.4-10.1,11.4-11C377.6,112.7,376.3,113.6,371.2,118.8z"/>
	
		<linearGradient id="SVGID_00000088818691120932320360000009626346264830054024_" gradientUnits="userSpaceOnUse" x1="-1108.8153" y1="604.4485" x2="-1108.889" y2="604.5329" gradientTransform="matrix(150.04 0 0 150.33 166818.4531 -90735.1484)">
		<stop  offset="0" style="stop-color:#D5D2C3"/>
		<stop  offset="1" style="stop-color:#EDEAD8"/>
	</linearGradient>
	<path style="fill:url(#SVGID_00000088818691120932320360000009626346264830054024_);" d="M409.6,96.2c-1.8,0.5-3.7,1.1-5.4,1.9
		l-2.2,0.9l41.8,41.8l41.8,41.8l1.6-3.5c1.2-2.6,1.8-5.5,1.8-8.4c0.4-8.4,2-6.4-33.7-42.1c-30.5-30.3-31.6-31.4-34.7-32.4
		C416.9,95.2,413.1,95.2,409.6,96.2z"/>
	
		<linearGradient id="SVGID_00000070090191833830217440000000622145459796140198_" gradientUnits="userSpaceOnUse" x1="-1113.0151" y1="601.854" x2="-1112.8569" y2="602.0332" gradientTransform="matrix(347.59 0 0 347.79 387141.7188 -209073.9688)">
		<stop  offset="0" style="stop-color:#3C3E57"/>
		<stop  offset="1" style="stop-color:#3D3F5B"/>
	</linearGradient>
	<path style="fill:url(#SVGID_00000070090191833830217440000000622145459796140198_);" d="M278.9,249.9c-56,56-72,72.3-72.9,74.4
		c-1.7,3.7-1.7,12.5,0,15.9c1.2,2.5,29.5,31.1,35.2,35.5c7.5,5.8,16.8,5.4,23.3-1.4c0.8-1.1,2-1.9,3.2-2.6c0.3,0,31.6-31.1,69.6-69
		l69-69.1L378.4,206l-27.8-27.8L278.9,249.9z"/>
	
		<linearGradient id="SVGID_00000131352956012340820930000004649790201702150573_" gradientUnits="userSpaceOnUse" x1="-1104.655" y1="605.7595" x2="-1104.0751" y2="605.7595" gradientTransform="matrix(102.71 0 0 102.7 113737.1484 -61981.5)">
		<stop  offset="0" style="stop-color:#AEAA67"/>
		<stop  offset="1" style="stop-color:#AEAA67"/>
	</linearGradient>
	<path style="fill:url(#SVGID_00000131352956012340820930000004649790201702150573_);" d="M307.1,229.8
		c-16.2,16.2-29.3,29.7-29.1,29.9c0.4,0.4,59.6-58.3,59.6-59c0-0.2-0.1-0.4-0.4-0.4h-0.1C336.9,200.3,323.4,213.6,307.1,229.8z"/>
	
		<linearGradient id="SVGID_00000067941975095078350740000008137837372092861100_" gradientUnits="userSpaceOnUse" x1="-1100.422" y1="607.4707" x2="-1099.8422" y2="607.4707" gradientTransform="matrix(75 0 0 75 82843.2812 -45309.3203)">
		<stop  offset="0" style="stop-color:#C4C7C9"/>
		<stop  offset="1" style="stop-color:#C4C7C9"/>
	</linearGradient>
	<path style="fill:url(#SVGID_00000067941975095078350740000008137837372092861100_);" d="M327.7,245.2l-15.9,15.9l5.8,5.8l5.8,5.8
		l15.9-15.9l15.9-15.9l-5.8-5.8l-5.8-5.8L327.7,245.2z"/>
	
		<linearGradient id="SVGID_00000078754338724157870190000006590232238153566100_" gradientUnits="userSpaceOnUse" x1="-1109.125" y1="616.8124" x2="-1109.1145" y2="617.4135" gradientTransform="matrix(174.02 0 0 25.89 193264.625 -15596.8906)">
		<stop  offset="0" style="stop-color:#CFD0D0"/>
		<stop  offset="1" style="stop-color:#D9D9D9"/>
	</linearGradient>
	<path style="fill:url(#SVGID_00000078754338724157870190000006590232238153566100_);" d="M224.5,372.9c-7.9,0.9-14.7,2.3-17.4,3.7
		c-1.7,0.8-2,1.3-2,3c0,2,0.1,2,3.9,3.3c4.6,1.6,12,2.7,22.4,3.7c11,0.9,47.7,0.3,56.4-0.8c21.3-3.1,24.4-7.9,7.3-11.3
		c-7.7-1.5-15.4-2.2-23.2-2.3h-4.6l-2.5,2.6c-3.7,3.8-7,5.1-12.2,5.2s-8.2-1.2-12.5-5.1C236.3,371.5,236,371.4,224.5,372.9z"/>
	
		<linearGradient id="SVGID_00000022551719331771915590000008169782055297207683_" gradientUnits="userSpaceOnUse" x1="-1057.9896" y1="623.9523" x2="-1057.4095" y2="623.9523" gradientTransform="matrix(21.73 0 0 21.59 23248.4688 -13197.8398)">
		<stop  offset="0" style="stop-color:#AFAC66"/>
		<stop  offset="1" style="stop-color:#AFAC66"/>
	</linearGradient>
	<path style="fill:url(#SVGID_00000022551719331771915590000008169782055297207683_);" d="M263.9,273c-3.3,3.3-5.9,6.2-5.6,6.5
		c0.4,0.4,12.5-11.3,12.5-12.1C270.9,266.3,269.6,267.3,263.9,273z"/>
	
		<linearGradient id="SVGID_00000084493478541062260080000010859497317532613052_" gradientUnits="userSpaceOnUse" x1="-1091.1959" y1="610.0602" x2="-1090.6157" y2="610.0602" gradientTransform="matrix(50.71 0 0 50.71 55556.1406 -30634.7695)">
		<stop  offset="0" style="stop-color:#ADAB69"/>
		<stop  offset="1" style="stop-color:#ADAB69"/>
	</linearGradient>
	<path style="fill:url(#SVGID_00000084493478541062260080000010859497317532613052_);" d="M235.8,301.2c-7.9,7.9-14.2,14.7-14,14.9
		c0.4,0.4,29.4-28.2,29.4-28.9c0-0.2-0.1-0.4-0.4-0.4h-0.1C250.4,286.7,243.8,293.2,235.8,301.2z"/>
	
		<linearGradient id="SVGID_00000084514912610867899170000000464662570448407712_" gradientUnits="userSpaceOnUse" x1="-1114.2902" y1="601.9366" x2="-1113.7102" y2="601.9366" gradientTransform="matrix(486.7 0 0 352.19 542527.6875 -211718.375)">
		<stop  offset="0" style="stop-color:#040000;stop-opacity:0.32"/>
		<stop  offset="1" style="stop-color:#040000;stop-opacity:0.32"/>
	</linearGradient>
	<path style="fill:url(#SVGID_00000084514912610867899170000000464662570448407712_);" d="M478.4,182.3c-0.3,9.8-0.6,10.2-16,25.6
		l-12.7,12.5l-12.1,1.3c-6.6,0.6-17.9,1.7-24.9,2.3s-13.3,1.4-13.9,1.5c-0.6,0.1-33,32.2-71.9,71s-71.4,71-72.1,71.3
		c-3.2,1.6-4.2,0.8-21.9-17c-11.3-11.4-17.4-17.8-18.2-19.6c-1.4-2.8-1.7-8.2-0.9-13.6l0.5-3l-3.6,3.7c-5,5.1-5.8,7.2-5.8,13.9
		c0,4.3,0.2,6,1.2,7.9c1.2,2.5,29.5,31.1,35.2,35.5c7.5,5.8,16.8,5.4,23.3-1.4c0.8-1.1,2-1.9,3.2-2.6c0.3,0,31.6-31.1,69.7-69.1
		l69.1-69.1l26-2.4l25.9-2.4L471,216c10.1-10.1,13-13.4,14.1-15.9c3.5-7.2,2.1-15.7-3.4-21.3l-3.1-3.2L478.4,182.3z"/>
	
		<linearGradient id="SVGID_00000002362266254793546000000013569776208378077855_" gradientUnits="userSpaceOnUse" x1="-1106.1669" y1="604.9852" x2="-1105.587" y2="604.9852" gradientTransform="matrix(116 0 0 115.5 128608.7812 -69618.3203)">
		<stop  offset="0" style="stop-color:#040000;stop-opacity:0.39"/>
		<stop  offset="1" style="stop-color:#040000;stop-opacity:0.39"/>
	</linearGradient>
	<path style="fill:url(#SVGID_00000002362266254793546000000013569776208378077855_);" d="M318.8,249.4l-25.3,25.3l8.1,8.1l8.1,8.1
		l25.5-25.5l25.5-25.5l-7.9-7.9c-4.4-4.4-8.1-8-8.3-8S332.8,235.5,318.8,249.4z M339.3,256.8l-15.9,15.9l-5.8-5.8l-5.8-5.8
		l15.9-15.9l15.9-15.9l5.8,5.8l5.8,5.8L339.3,256.8z"/>
	
		<linearGradient id="SVGID_00000162311213767212267990000018353038675230755511_" gradientUnits="userSpaceOnUse" x1="-1090.3824" y1="611.6951" x2="-1089.802" y2="611.6951" gradientTransform="matrix(46.5 0 0 46.7 51022.7812 -28315.0195)">
		<stop  offset="0" style="stop-color:#040000;stop-opacity:0.78"/>
		<stop  offset="1" style="stop-color:#040000;stop-opacity:0.78"/>
	</linearGradient>
	<path style="fill:url(#SVGID_00000162311213767212267990000018353038675230755511_);" d="M329.9,247.6l-10.1,10.1l3.5,3.5l3.5,3.5
		l10-10l10-10l-3.4-3.5l-3.4-3.6L329.9,247.6z"/>
</g>
<linearGradient id="SVGID_00000129891053759244266640000009912054770698352514_" gradientUnits="userSpaceOnUse" x1="-1106.76" y1="604.52" x2="-1106.8337" y2="604.5939" gradientTransform="matrix(150.04 0 0 150.33 166818.4531 -90735.1484)">
	<stop  offset="0" style="stop-color:#D5D2C3"/>
	<stop  offset="1" style="stop-color:#EDEAD8"/>
</linearGradient>
<path style="fill:url(#SVGID_00000129891053759244266640000009912054770698352514_);" d="M717.6,106.2c-1.8,0.5-3.7,1.1-5.4,1.9
	l-2.2,0.9l41.8,41.8l41.8,41.8l1.6-3.5c1.2-2.6,1.8-5.5,1.8-8.4c0.4-8.4,2-6.4-33.7-42.1c-30.3-30.3-31.5-31.4-34.5-32.4
	C725,105.2,721.2,105.2,717.6,106.2z"/>
<linearGradient id="SVGID_00000056390695060557562910000008359545447212611758_" gradientUnits="userSpaceOnUse" x1="-1103.444" y1="607.4454" x2="-1102.864" y2="607.4454" gradientTransform="matrix(75 0 0 75 82843.2812 -45309.3203)">
	<stop  offset="0" style="stop-color:#C4C7C9"/>
	<stop  offset="1" style="stop-color:#C4C7C9"/>
</linearGradient>
<path style="fill:url(#SVGID_00000056390695060557562910000008359545447212611758_);stroke:#040000;stroke-width:0.5;stroke-miterlimit:10;" d="
	M100.9,243.3L85,259.2l5.8,5.8l5.8,5.8l15.9-15.9l15.9-15.9l-5.8-5.8l-5.8-5.8L100.9,243.3z"/>
<linearGradient id="SVGID_00000154401787235487671330000015102795027101401225_" gradientUnits="userSpaceOnUse" x1="-1108.5408" y1="604.9122" x2="-1107.9608" y2="604.9122" gradientTransform="matrix(116 0 0 115.5 128608.7812 -69618.3203)">
	<stop  offset="0" style="stop-color:#040000;stop-opacity:0.39"/>
	<stop  offset="1" style="stop-color:#040000;stop-opacity:0.39"/>
</linearGradient>
<path style="fill:url(#SVGID_00000154401787235487671330000015102795027101401225_);stroke:#000000;stroke-miterlimit:10;" d="
	M42.9,241l-25.3,25.3l8.1,8.1l8.1,8.1L59.4,257l25.5-25.5l-8-7.9c-4.4-4.4-8.1-8-8.3-8C68.3,215.6,56.9,227.1,42.9,241z M63.5,248.3
	l-15.9,15.9l-5.8-5.8l-5.8-5.8l15.9-15.9l15.9-15.9l5.8,5.8l5.8,5.8L63.5,248.3z"/>
<linearGradient id="SVGID_00000064338446891948871340000006767661167393345981_" gradientUnits="userSpaceOnUse" x1="-1094.2048" y1="611.6206" x2="-1093.6244" y2="611.6206" gradientTransform="matrix(46.5 0 0 46.7 51022.7812 -28315.0195)">
	<stop  offset="0" style="stop-color:#040000;stop-opacity:0.78"/>
	<stop  offset="1" style="stop-color:#040000;stop-opacity:0.78"/>
</linearGradient>
<path style="fill:url(#SVGID_00000064338446891948871340000006767661167393345981_);" d="M152.3,244.1l-10.1,10.1l3.5,3.5l3.5,3.5
	l10-10l10-10l-3.4-3.5l-3.4-3.6L152.3,244.1z"/>
<rect x="291.6" y="233.2" transform="matrix(0.7126 -0.7015 0.7015 0.7126 -83.9039 304.7524)" class="st28" width="77" height="43.1"/>
<rect x="358.2" y="83.1" transform="matrix(0.7182 -0.6959 0.6959 0.7182 3.6183 338.8581)" class="st29" width="123.9" height="163.7"/>
<g>
	<line class="st30" x1="261.6" y1="248.8" x2="201" y2="248.8"/>
	<path d="M181.9,248.8c9-3.4,20.1-9,27-15.1l-5.5,15.1l5.6,15.1C202,257.8,190.8,252.1,181.9,248.8z"/>
</g>
<g>
	<line class="st30" x1="553.8" y1="160.6" x2="596.5" y2="160.6"/>
	<path d="M609.9,160.6c-6.3,3.4-14.1,9-19,15.1l3.9-15.1l-3.9-15.1C595.8,151.7,603.6,157.4,609.9,160.6z"/>
</g>
<rect x="7.7" y="222" transform="matrix(0.7126 -0.7015 0.7015 0.7126 -157.5368 106.5384)" class="st28" width="87.1" height="47.1"/>
</svg>
