<?xml version="1.0" standalone="no"?><!DOCTYPE svg PUBLIC "-//W3C//DTD SVG 20010904//EN" "http://www.w3.org/TR/2001/REC-SVG-20010904/DTD/svg10.dtd"><svg version="1.0" xmlns="http://www.w3.org/2000/svg" width="500pt" height="500pt" viewBox="0 0 500 500" preserveAspectRatio="xMidYMid meet"><defs><linearGradient id="linear-gradient-1-1" x1="0.00%" y1="100.00%" x2="100.10%" y2="0.10%"><stop offset="0%" style="stop-color:rgb(0,254,0);stop-opacity:1.000" /><stop offset="100%" style="stop-color:rgb(254,255,0);stop-opacity:1.000" /></linearGradient><linearGradient id="linear-gradient-2-1" x1="0.00%" y1="100.00%" x2="114.08%" y2="2.85%"><stop offset="0%" style="stop-color:rgb(126,4,1);stop-opacity:0.218" /><stop offset="100%" style="stop-color:rgb(111,91,82);stop-opacity:0.534" /></linearGradient><linearGradient id="linear-gradient-2-2" x1="0.00%" y1="100.00%" x2="90.28%" y2="-2.73%"><stop offset="0%" style="stop-color:rgb(107,26,17);stop-opacity:0.569" /><stop offset="100%" style="stop-color:rgb(29,105,99);stop-opacity:0.443" /></linearGradient><linearGradient id="linear-gradient-3-1" x1="0.00%" y1="100.00%" x2="82.66%" y2="-2.65%"><stop offset="0%" style="stop-color:rgb(7,19,228);stop-opacity:0.407" /><stop offset="100%" style="stop-color:rgb(183,178,79);stop-opacity:0.347" /></linearGradient><linearGradient id="linear-gradient-3-2" x1="0.00%" y1="100.00%" x2="94.91%" y2="-0.59%"><stop offset="0%" style="stop-color:rgb(255,17,0);stop-opacity:0.547" /><stop offset="100%" style="stop-color:rgb(255,243,0);stop-opacity:0.249" /></linearGradient><linearGradient id="linear-gradient-3-3" x1="0.00%" y1="100.00%" x2="51.68%" y2="-11.55%"><stop offset="0%" style="stop-color:rgb(5,4,125);stop-opacity:0.587" /><stop offset="100%" style="stop-color:rgb(122,122,66);stop-opacity:0.470" /></linearGradient></defs><g id="layer-1"><path d="M0 2500 l0 -2500 2500 0 2500 0 0 2500 0 2500 -2500 0 -2500 0 0 -2500z" fill="url(#linear-gradient-1-1)" id="region-1-1" transform="translate(0.000000,500.000000) scale(0.100000,-0.100000)"/></g><g id="layer-2"><path d="M2590 2870 l0 -2080 860 0 860 0 0 2080 0 2080 -860 0 -860 0 0 -2080z" fill="url(#linear-gradient-2-1)" id="region-2-1" transform="translate(0.000000,500.000000) scale(0.100000,-0.100000)"/><path d="M320 2665 l0 -1615 910 0 910 0 0 1615 0 1615 -910 0 -910 0 0 -1615z" fill="url(#linear-gradient-2-2)" id="region-2-2" transform="translate(0.000000,500.000000) scale(0.100000,-0.100000)"/></g><g id="layer-3"><path d="M2493 3674 c-397 -676 -723 -1235 -725 -1242 -2 -6 326 -216 727 -467 l730 -455 2 507 c2 280 -1 1043 -5 1697 l-7 1190 -722 -1230z" fill="url(#linear-gradient-3-1)" id="region-3-1" transform="translate(0.000000,500.000000) scale(0.100000,-0.100000)"/><path d="M3400 2420 l0 -2200 765 0 765 0 0 2200 0 2200 -765 0 -765 0 0 -2200z" fill="url(#linear-gradient-3-2)" id="region-3-2" transform="translate(0.000000,500.000000) scale(0.100000,-0.100000)"/><path d="M657 3878 c-306 -562 -555 -1023 -553 -1025 3 -3 1457 325 1462 330 4 4 -344 1708 -349 1714 -3 2 -254 -456 -560 -1019z" fill="url(#linear-gradient-3-3)" id="region-3-3" transform="translate(0.000000,500.000000) scale(0.100000,-0.100000)"/></g></svg>