<?xml version="1.0" encoding="utf-8"?>
<!-- Generator: Adobe Illustrator 26.5.0, SVG Export Plug-In . SVG Version: 6.00 Build 0)  -->
<svg version="1.1" id="图层_1" xmlns="http://www.w3.org/2000/svg" xmlns:xlink="http://www.w3.org/1999/xlink" x="0px" y="0px"
	 viewBox="0 0 650.8 257" style="enable-background:new 0 0 650.8 257;" xml:space="preserve">
<style type="text/css">
	.st0{fill:none;}
	.st1{fill:#D3D3D3;}
	.st2{fill:url(#SVGID_1_);}
	.st3{fill:url(#a0049abc-159c-4ceb-9aab-602a2958a779_00000000180461120638487510000000580692843164496788_);}
	.st4{fill:url(#bb468eac-fd99-4f35-87d6-acb8b18dcbbb_00000003072444616215838200000006219233899697041541_);}
	.st5{fill:url(#eca003de-17ce-4032-baa3-996f8eb4256b_00000017500411607143774330000006222396005953508773_);}
	.st6{fill:url(#bee695d5-d369-457e-892f-bbf9d53bd0dc_00000088121868308920360190000005801136872352006845_);}
	.st7{fill:url(#a2937033-7b59-45c8-bd17-6e5a712b1bd2_00000176004013546353594450000013460356022940675492_);}
	.st8{fill:url(#f1613762-dc74-468c-89de-3bb862549a30_00000104668824610981179810000005170666379633036196_);}
	.st9{fill:url(#f52e7157-dac7-4605-9eca-bb1444a31757_00000159463069095278629490000012072983031397152187_);}
	.st10{fill:url(#ec97e183-623a-4c9b-8558-e8dacca432d2_00000147913374357149966780000000297746417499824005_);}
	.st11{fill:url(#b38c658b-568a-425a-817a-4aa0c5de2d45_00000109720573424526227230000014939421895995740544_);}
	.st12{fill:url(#a32101a9-f3ef-42a8-bb8d-dd2de1a2fef0_00000091014368970721543670000010618555063707996297_);}
	.st13{fill:url(#badabc7d-faff-4d65-9ecd-9503ec55943d_00000158025950148301744260000000746724471700574095_);}
	.st14{fill:url(#a7982438-d429-45eb-9bee-e2b9871a57c2_00000144307509552480131720000002757716004998306949_);}
	.st15{fill:url(#bb93e213-8979-4edf-abfc-a1c10ddb5154_00000134233893386794409440000005592608293011779502_);}
	.st16{fill:url(#b98be6e6-cf2a-4474-8597-8ae13441e83f_00000098921643976863689890000013369945901385761417_);}
	
		.st17{fill:url(#bd583b4f-e59c-4973-b643-dcd53ee1496e_00000165203676116172089320000007056085662669337228_);stroke:#000000;stroke-width:0.5;stroke-miterlimit:10;}
	.st18{fill:none;stroke:#0000FF;stroke-width:3;stroke-miterlimit:10;}
	.st19{fill:none;stroke:#3FA9F5;stroke-width:4;stroke-linecap:round;stroke-miterlimit:10;}
	.st20{fill:#3FA9F5;}
</style>
<pattern  y="257" width="40" height="40" patternUnits="userSpaceOnUse" id="SVGID_0000017604136495611982950" viewBox="0 -40 40 40" style="overflow:visible;">
	<g>
		<rect y="-40" class="st0" width="40" height="40"/>
		<g>
			<rect y="-40" class="st0" width="40" height="40"/>
			<g>
				<rect y="-40" class="st0" width="40" height="40"/>
				<rect y="-40" class="st0" width="40" height="40"/>
				<rect y="-40" class="st1" width="20" height="20"/>
				<rect x="20" y="-20" class="st1" width="20" height="20"/>
			</g>
		</g>
	</g>
</pattern>
<pattern  id="SVGID_1_" xlink:href="#SVGID_0000017604136495611982950" patternTransform="matrix(1 0 0 1 -26 17382.5)">
</pattern>
<rect class="st2" width="650.8" height="257"/>
<g id="bda53b52-84ad-4aa5-923b-8df8830e218b">
	
		<linearGradient id="a0049abc-159c-4ceb-9aab-602a2958a779_00000041296159917923562890000005753487833839012224_" gradientUnits="userSpaceOnUse" x1="-2091.6116" y1="71.3672" x2="-2091.6816" y2="71.7172" gradientTransform="matrix(502 0 0 451 1050096 -32125)">
		<stop  offset="0" style="stop-color:#F3F3F3;stop-opacity:0.99"/>
		<stop  offset="1" style="stop-color:#C6C5C6;stop-opacity:0.99"/>
	</linearGradient>
	
		<path id="a0049abc-159c-4ceb-9aab-602a2958a779" style="fill:url(#a0049abc-159c-4ceb-9aab-602a2958a779_00000041296159917923562890000005753487833839012224_);" d="
		M2.3,61H177v156.9H2.3V61z"/>
</g>
<g id="aa7bb68b-90d8-4e7d-9f3b-138a37996db0">
	
		<linearGradient id="bb468eac-fd99-4f35-87d6-acb8b18dcbbb_00000138535415248493568320000010623689246122659463_" gradientUnits="userSpaceOnUse" x1="-2090.791" y1="71.8597" x2="-2091.1309" y2="71.5098" gradientTransform="matrix(426.2 0 0 426.74 891257.8125 -30451.6309)">
		<stop  offset="0" style="stop-color:#9CA996;stop-opacity:0.1"/>
		<stop  offset="1" style="stop-color:#918396;stop-opacity:0.95"/>
	</linearGradient>
	
		<path id="bb468eac-fd99-4f35-87d6-acb8b18dcbbb" style="fill:url(#bb468eac-fd99-4f35-87d6-acb8b18dcbbb_00000138535415248493568320000010623689246122659463_);" d="
		M99.7,65c28,4.1,50.8,22.6,60.1,48.7c1.4,3.6,2.5,7.3,3.1,11.1c0.1,1,0.4,2.7,0.5,3.8c0.7,6,0.8,12.1,0.2,18.1
		c-0.5,5-0.8,6.6-0.9,6.6c-0.1,0.3-0.1,0.6-0.2,0.9c-0.5,3.5-3.7,12.5-6.2,17.6c-4,8-9.4,15.2-15.9,21.3c-3.1,3-6.6,5.7-10.3,8
		c-11.4,7.5-24.6,11.6-38.2,11.9c-6.7,0.3-13.4-0.4-19.9-2.2c-4.4-1-8.7-2.4-12.8-4.4c-15-6.8-27.4-18.4-35.1-33
		c-2.4-4.5-6.1-14.2-6.7-17.7c-0.1-0.7-0.3-1.5-0.3-1.9c-1-5-1.5-10.1-1.4-15.1c0-6.4,0.1-7.7,1.4-15.3c0.6-3.1,1.5-6.1,2.6-9
		c0.5-1.4,1.1-3,1.2-3.5c0.8-2.8,6-12.1,9.2-16.4c5.2-6.6,11.3-12.4,18.1-17.3c9.5-6.3,20.3-10.4,31.5-12.2
		C86.4,64.3,93.1,64.3,99.7,65"/>
</g>
<g id="fdd96fa5-7f0d-4f92-b812-d28e2cf90187">
	
		<linearGradient id="eca003de-17ce-4032-baa3-996f8eb4256b_00000120518280722711005720000000076174011876578721_" gradientUnits="userSpaceOnUse" x1="-2090.8499" y1="71.5975" x2="-2090.8499" y2="71.9374" gradientTransform="matrix(415.91 0 0 414.54 869695.375 -29612.5156)">
		<stop  offset="0" style="stop-color:#F9F8FA;stop-opacity:0.27"/>
		<stop  offset="1" style="stop-color:#674F79;stop-opacity:0.84"/>
	</linearGradient>
	
		<path id="eca003de-17ce-4032-baa3-996f8eb4256b" style="fill:url(#eca003de-17ce-4032-baa3-996f8eb4256b_00000120518280722711005720000000076174011876578721_);" d="
		M99.4,66.8c4.4,0.4,8.8,1.4,12.9,3c3.7,1.2,7.2,2.7,10.6,4.5c3.7,2,7.2,4.2,10.6,6.6c0.5,0.4,1.7,1.5,2.8,2.4
		c4.7,4,9,8.6,12.7,13.5c2.5,3.5,7.1,11.6,7.4,13.1c0,0.2,0.6,1.7,1.3,3.3c1.9,5.3,3.3,10.8,4.2,16.4c0.6,6,0.7,12.1,0.2,18.1
		c-0.3,2.4-1.1,6.5-2.6,12.6c-0.9,4-6.9,16.4-9.4,19.5c-5.1,6.5-6.8,8.5-9.5,11c-7.6,7.3-16.7,12.8-26.6,16.2
		c-4.4,1.5-10.3,3.1-11,2.9c-0.2,0-0.3,0-0.5,0c-1.5,0.6-15.8,0.9-20.2,0.4c-2.2-0.3-4.2-0.4-4.3-0.4c-0.3,0-0.5-0.1-0.7-0.3
		s-0.5-0.3-0.6-0.2c-0.3,0.3-5.5-1.1-9-2.3c-1.6-0.6-3.2-1.1-3.5-1.2c-2.2-0.4-13.2-6.5-16.5-9c-6.6-5.1-13.5-12.2-17.3-17.9
		c-1.3-2-2.4-3.6-2.4-3.7s-0.8-1.5-1.7-3c-0.7-1-1.2-2.1-1.7-3.1c-0.4-1.3-1-2.6-1.5-3.9c-1.1-2.5-2.1-5.1-2.7-7.8
		c-0.1-0.6-0.3-1.2-0.5-1.7c-0.2-0.9-0.8-3.3-1.2-5.4c-1-6.8-1.2-13.7-0.7-20.6c0.4-3.2,2.3-12.4,2.7-13.1c0.1-0.3,0.2-0.7,0.3-1.1
		c0.2-0.8,0.4-1.6,0.8-2.3c0.4-0.8,1.1-2.6,1.6-4c2.6-6.7,8.6-15.6,14.7-21.9c4.9-5,12.2-10.5,17-12.8c1.2-0.6,2.4-1.2,3.5-2
		c1.7-1.7,13.1-5,20.2-5.8C85.6,66.1,92.5,66.1,99.4,66.8"/>
</g>
<g id="a38b2780-7a26-43a4-8683-a6c407534f86">
	
		<linearGradient id="bee695d5-d369-457e-892f-bbf9d53bd0dc_00000057131799402308783050000000532558959844376731_" gradientUnits="userSpaceOnUse" x1="-2062.1221" y1="106.0358" x2="-2062.1221" y2="105.6858" gradientTransform="matrix(59.23 0 0 34.38 122206.5312 -3567.3496)">
		<stop  offset="0" style="stop-color:#FFFFFF;stop-opacity:0.83"/>
		<stop  offset="1" style="stop-color:#FEFFFE;stop-opacity:0.8"/>
	</linearGradient>
	
		<path id="bee695d5-d369-457e-892f-bbf9d53bd0dc" style="fill:url(#bee695d5-d369-457e-892f-bbf9d53bd0dc_00000057131799402308783050000000532558959844376731_);" d="
		M76.1,69.5c1.3,1.1,1.7,3,0.9,4.5c-0.7,1.6-1.7,2.1-5.5,3c-2,0.5-3.9,1.1-5.9,1.8c-5.2,1.9-5,1.9-6.4,1.3c-3.8-1.6-3.2-6.3,1-8.4
		c1.9-0.8,3.8-1.5,5.7-2.1c2.1-0.8,4.3-1.1,6.5-1.1C74.8,68.5,75.2,68.6,76.1,69.5"/>
	
		<linearGradient id="a2937033-7b59-45c8-bd17-6e5a712b1bd2_00000054965978618432488620000010193618055825521587_" gradientUnits="userSpaceOnUse" x1="-2090.2019" y1="72.0135" x2="-2090.2019" y2="72.3633" gradientTransform="matrix(365.09 0 0 359.51 763201.6875 -25812.9785)">
		<stop  offset="0" style="stop-color:#8109B0;stop-opacity:0.79"/>
		<stop  offset="1" style="stop-color:#4B0092;stop-opacity:0.81"/>
	</linearGradient>
	
		<path id="a2937033-7b59-45c8-bd17-6e5a712b1bd2" style="fill:url(#a2937033-7b59-45c8-bd17-6e5a712b1bd2_00000054965978618432488620000010193618055825521587_);" d="
		M96.9,76.7c7.9,1,15.6,3.3,22.7,7c5.8,2.9,11,6.9,15.5,11.6c8.2,7.9,14,18.1,16.5,29.2c2.6,10.6,2.4,19.5-0.7,30.8
		c-1.4,5.6-3.7,10.9-6.8,15.8c-2.1,3.7-4.6,7.2-7.6,10.2c-7.2,7.7-16.2,13.5-26.2,16.8c-23,7.9-48.6,1.9-65.7-15.5
		c-7.5-7.4-13-16.6-15.9-26.7c-6.4-22.2,0.2-46,17-61.8c4.5-4.4,9.6-8.1,15.3-10.8c6.8-3.4,14.1-5.6,21.6-6.6
		C87.4,76.3,92.2,76.3,96.9,76.7"/>
	
		<linearGradient id="f1613762-dc74-468c-89de-3bb862549a30_00000161606721285193667630000005501450512548106163_" gradientUnits="userSpaceOnUse" x1="-2064.7114" y1="80.1226" x2="-2065.0615" y2="80.1426" gradientTransform="matrix(59.47 0 0 98.67 122949.125 -7741.8149)">
		<stop  offset="0" style="stop-color:#FFFFFE;stop-opacity:0.82"/>
		<stop  offset="1" style="stop-color:#E2E5DF;stop-opacity:0.7"/>
	</linearGradient>
	
		<path id="f1613762-dc74-468c-89de-3bb862549a30" style="fill:url(#f1613762-dc74-468c-89de-3bb862549a30_00000161606721285193667630000005501450512548106163_);" d="
		M159.5,148.7c1.6,1.5,1.7,2.9,0.7,6.8c-2.7,10.3-7.3,19.7-12.1,24.4c-2.2,2.1-3.9,2.6-5.8,1.7c-1.1-0.7-1.9-1.7-2.1-3
		c0.6-1.3,1.4-2.6,2.2-3.8c4.4-6.4,7.6-13.5,9.6-21.1c1.1-4,1.3-4.5,2.9-5.5C156.4,147.4,158.2,147.6,159.5,148.7"/>
	
		<linearGradient id="f52e7157-dac7-4605-9eca-bb1444a31757_00000065075423055476160180000016856875334707139207_" gradientUnits="userSpaceOnUse" x1="-2083.8069" y1="79.7279" x2="-2083.4368" y2="79.3778" gradientTransform="matrix(167.49 0 0 99.26 349046.5938 -7704.8789)">
		<stop  offset="0" style="stop-color:#FFFFFF;stop-opacity:0.95"/>
		<stop  offset="1" style="stop-color:#B0B4AE;stop-opacity:0.54"/>
	</linearGradient>
	
		<path id="f52e7157-dac7-4605-9eca-bb1444a31757" style="fill:url(#f52e7157-dac7-4605-9eca-bb1444a31757_00000065075423055476160180000016856875334707139207_);" d="
		M36,174.9c0.8,0.5,1.4,1.1,1.9,1.9c1.7,2,3.5,3.9,5.4,5.7c4.8,4.6,10.2,8.5,16,11.8c6.6,3.9,16.1,6.9,24.9,8
		c3.4,0.4,4.1,0.7,4.9,1.8c1,1.5,0.6,3.5-0.9,4.4c-0.2,0.1-0.4,0.2-0.6,0.3c-2.2,0.9-14.6-1.5-22.2-4.4c-5.6-2.2-11-5-15.9-8.5
		c-5.4-3.5-10.3-7.6-14.6-12.4c-3-3.5-3.9-5.3-3.3-6.9c0.4-1.6,2.1-2.5,3.7-2.1C35.5,174.7,35.8,174.8,36,174.9"/>
</g>
<g id="bd5202cc-c5fa-47f2-a335-ae21b01324a4">
	
		<linearGradient id="ec97e183-623a-4c9b-8558-e8dacca432d2_00000006695096600054008120000017199204643517473465_" gradientUnits="userSpaceOnUse" x1="-2090.0298" y1="72.4383" x2="-2090.0298" y2="72.0883" gradientTransform="matrix(353.64 0 0 352.22 739207.8125 -25315.5098)">
		<stop  offset="0" style="stop-color:#F48CFF;stop-opacity:5.000000e-02"/>
		<stop  offset="1" style="stop-color:#EB5AFF;stop-opacity:0.83"/>
	</linearGradient>
	
		<path id="ec97e183-623a-4c9b-8558-e8dacca432d2" style="fill:url(#ec97e183-623a-4c9b-8558-e8dacca432d2_00000006695096600054008120000017199204643517473465_);" d="
		M96.5,77c6.4,0.7,10.1,1.8,16.4,4.9c1.6,0.8,3.3,1.6,5,2.2c0.9,0.2,3.9,1.9,6.8,3.8c8.4,5.5,15.2,13.1,19.8,22
		c2,4.3,3.6,8.8,4.9,13.4c1.8,6.6,1.9,7.8,1.9,15.9c0,7-0.1,8.1-0.9,12c-2.3,11-7.7,21.2-15.5,29.3c-3.4,3.5-7.1,6.6-11.2,9.3
		c-4.8,2.9-9.9,5.3-15.3,7.1c-6.9,2.1-9.3,2.4-18.8,2.4s-11.8-0.3-19.4-2.8c-16-5.2-30.1-17.6-36.7-32.4c-2.1-4.6-3.7-9.4-4.7-14.4
		c-0.9-4.3-0.9-16.8,0-21.8c3.2-17.4,13.5-31.8,29.4-41.4c1.1-0.7,2.3-1.4,3.5-1.9c0.7-0.2,1.3-0.6,1.8-1c5-3.4,12.2-5.8,20.6-6.8
		C88.3,76.6,92.4,76.7,96.5,77"/>
</g>
<g id="a0410027-d46c-4e08-bff2-557f9af9061f">
	
		<linearGradient id="b38c658b-568a-425a-817a-4aa0c5de2d45_00000119119657180216759260000014598385070977170308_" gradientUnits="userSpaceOnUse" x1="-2086.5706" y1="77.0102" x2="-2086.7405" y2="77.3604" gradientTransform="matrix(218.78 0 0 148.45 456609.0625 -11356.5557)">
		<stop  offset="0" style="stop-color:#FFF5FF;stop-opacity:0.86"/>
		<stop  offset="1" style="stop-color:#B692DB;stop-opacity:0.47"/>
	</linearGradient>
	
		<path id="b38c658b-568a-425a-817a-4aa0c5de2d45" style="fill:url(#b38c658b-568a-425a-817a-4aa0c5de2d45_00000119119657180216759260000014598385070977170308_);" d="
		M96.5,77c5.4,0.5,10.6,2,15.4,4.4c7.6,3.7,12.7,8.7,15.1,15.1c1,2.7,1.1,3,0.9,6.4c-0.3,5.7-2,9.6-6.4,14
		c-5.1,5.2-12.3,8.8-21.3,10.7c-6.9,1.1-13.9,1.1-20.8,0c-14.6-3.1-24.8-11-27.2-21.1c-1.4-6.1,0.8-13,5.7-18
		C64.3,82,72.7,78.4,84.2,77C88.4,76.7,92.4,76.7,96.5,77"/>
	
		<linearGradient id="a32101a9-f3ef-42a8-bb8d-dd2de1a2fef0_00000115489847720854978660000014448979756081802403_" gradientUnits="userSpaceOnUse" x1="-2088.3374" y1="73.1073" x2="-2088.3374" y2="72.7574" gradientTransform="matrix(273.26 0 0 286.83 570736.375 -20766.6367)">
		<stop  offset="0" style="stop-color:#FF00FF;stop-opacity:0.62"/>
		<stop  offset="1" style="stop-color:#C963E8;stop-opacity:0.89"/>
	</linearGradient>
	
		<path id="a32101a9-f3ef-42a8-bb8d-dd2de1a2fef0" style="fill:url(#a32101a9-f3ef-42a8-bb8d-dd2de1a2fef0_00000115489847720854978660000014448979756081802403_);" d="
		M45.2,100.4c-0.6,0.6-1.7,2-2.4,3c-2.4,3.8-4.6,7.8-6.4,11.9c-0.2,0.7-0.5,1.3-0.7,1.3s-1.4,3.6-2.3,7.3
		c-1.8,8.5-1.9,17.3-0.3,25.9c1.2,5,2.9,9.8,5.1,14.4c7.2,14.5,20.1,25.5,35.5,30.4c6.9,2.2,8.8,2.5,17.9,2.5c7.6,0,8.5-0.1,12.6-1
		c3.3-0.6,6.5-1.6,9.6-3c0.6-0.3,1.2-0.6,1.9-0.7c0.5,0,6.8-3.4,8.3-4.5c1.1-0.8,1.1-0.8,0.5-0.1c-2.7,2-5.5,3.7-8.4,5.3
		c-0.4,0.1-0.9,0.3-1.3,0.5c-3.5,1.5-7,2.7-10.7,3.8c-3.2,0.9-4.6,1.1-10.9,1.4c-8.2,0.4-11.1,0.2-18.2-1.5c-4.6-1.1-9.1-2.8-13.3-5
		c-2.4-1.3-4.8-2.7-7.1-4.3c-0.1-0.1-1.1-0.9-2.2-1.7c-2.5-1.9-10-9.6-10-10.3c0-0.3-0.2-0.5-0.4-0.5c-0.5,0-4.5-6.2-6-9.2
		c-4.7-9.4-7.1-21.5-6.2-31.2c0.6-6.3,1.7-10.7,4.7-18.7c0.9-2.4,3.3-7.2,3.7-7.5c0.7-0.8,1.3-1.7,1.8-2.7c1.3-2.2,5.2-6.9,5.8-6.9
		C46.2,99.2,45.8,99.7,45.2,100.4"/>
</g>
<g id="ad43604c-ecfe-46da-9a5f-8dd64edf4c61">
	
		<linearGradient id="badabc7d-faff-4d65-9ecd-9503ec55943d_00000172406957111799075500000015167198764386646164_" gradientUnits="userSpaceOnUse" x1="-2088.3452" y1="73.2279" x2="-2088.6853" y2="72.9979" gradientTransform="matrix(274.28 0 0 282.47 572947.0625 -20535.6035)">
		<stop  offset="0" style="stop-color:#FFFFFF;stop-opacity:0"/>
		<stop  offset="1" style="stop-color:#BA56CF;stop-opacity:0.55"/>
	</linearGradient>
	
		<path id="badabc7d-faff-4d65-9ecd-9503ec55943d" style="fill:url(#badabc7d-faff-4d65-9ecd-9503ec55943d_00000172406957111799075500000015167198764386646164_);" d="
		M96.5,77c3.3,0.3,6.5,1,9.6,2c4.6,1.7,9,3.8,13.2,6.4c1,0.7,3.4,2.3,5.3,3.5c7.5,5,13.8,11.5,18.5,19.3c1.9,3.1,2.8,5.4,4.7,11.3
		c2.8,8.7,3,10,3,19.7c0,5.8-0.1,8.8-0.5,9.7c-0.2,0.8-0.6,2.5-0.9,3.9c-0.2,1.1-0.5,2.1-0.9,3.2c-0.4,0.8-0.7,1.6-0.9,2.4
		c-1.3,3.7-2.9,7.2-5,10.6c-1.8,3-4.5,6.5-4.8,6.1c0.2-0.8,0.6-1.5,1.1-2.1c2-3.1,3.6-6.5,4.7-10c0.4-1.4,0.9-3.1,1.1-3.7
		c0.2-0.6,0.4-1.3,0.5-1.9c1-5.2,1.2-6.8,1.5-9.5c0.5-4.2,0.4-8.4-0.2-12.6c-2.2-18.2-12.6-34.4-28.2-44c-12-7.2-26-10-39.8-7.9
		c-6.5,0.9-14.2,3.1-16.8,4.8c-0.5,0.3-1,0.6-1.5,0.8c-0.5,0.2-0.9,0.5-1.3,0.8c-1.5,1.1-3.4,2-3.6,1.8c0.6-1.1,1.4-2,2.4-2.8
		C64.4,82,72.6,78.4,84.3,77C88.4,76.6,92.4,76.7,96.5,77"/>
</g>
<linearGradient id="a7982438-d429-45eb-9bee-e2b9871a57c2_00000169538850246474145910000009823171818039934357_" gradientUnits="userSpaceOnUse" x1="-2089.3826" y1="72.0057" x2="-2089.3826" y2="72.3557" gradientTransform="matrix(365.09 0 0 359.51 763201.6875 -25812.9785)">
	<stop  offset="0" style="stop-color:#8109B0;stop-opacity:0.79"/>
	<stop  offset="1" style="stop-color:#4B0092;stop-opacity:0.81"/>
</linearGradient>
<path id="a7982438-d429-45eb-9bee-e2b9871a57c2" style="fill:url(#a7982438-d429-45eb-9bee-e2b9871a57c2_00000169538850246474145910000009823171818039934357_);" d="
	M396,73.8c7.9,1,15.6,3.3,22.7,7c6,3.1,10,6.1,15.5,11.6c8.2,7.9,14,18.1,16.5,29.2c2.6,10.6,2.4,19.5-0.7,30.8
	c-1.4,5.6-3.7,10.9-6.8,15.8c-2.1,3.7-4.6,7.2-7.6,10.2c-7.2,7.7-16.2,13.5-26.2,16.8c-23,7.9-48.6,1.9-65.7-15.5
	c-7.5-7.4-13-16.6-15.9-26.7c-6.4-22.2,0.2-46,17-61.8c4.5-4.4,9.6-8,15.2-10.7c6.8-3.4,14.1-5.6,21.6-6.6
	C386.5,73.5,391.3,73.5,396,73.8"/>
<g id="a710c815-f273-42f5-b4c5-c6e8e53a6208">
	
		<linearGradient id="bb93e213-8979-4edf-abfc-a1c10ddb5154_00000176764730940117253460000011987640454550063493_" gradientUnits="userSpaceOnUse" x1="-2089.5598" y1="72.432" x2="-2089.5598" y2="72.082" gradientTransform="matrix(353.64 0 0 352.22 739207.8125 -25315.5098)">
		<stop  offset="0" style="stop-color:#F48CFF;stop-opacity:5.000000e-02"/>
		<stop  offset="1" style="stop-color:#EB5AFF;stop-opacity:0.83"/>
	</linearGradient>
	
		<path id="bb93e213-8979-4edf-abfc-a1c10ddb5154" style="fill:url(#bb93e213-8979-4edf-abfc-a1c10ddb5154_00000176764730940117253460000011987640454550063493_);" d="
		M262.7,75.1c6.4,0.7,10.1,1.8,16.4,4.9c1.6,0.8,3.3,1.6,5,2.2c2.4,1,4.7,2.3,6.8,3.8c8.4,5.5,15.2,13.1,19.8,22
		c2,4.3,3.6,8.8,4.8,13.4c1.8,6.6,2,7.8,1.9,15.9c0,7-0.1,8.1-0.9,12c-2.3,11-7.7,21.2-15.5,29.3c-3.4,3.5-7.1,6.6-11.2,9.3
		c-4.8,2.9-9.9,5.3-15.2,7.1c-6.9,2.1-9.3,2.4-18.8,2.4c-9.5,0-11.8-0.3-19.4-2.8c-16-5.2-30.1-17.6-36.7-32.4
		c-2.1-4.6-3.7-9.4-4.7-14.4c-0.9-4.3-0.9-16.8,0-21.8c3.2-17.4,13.5-31.8,29.4-41.4c1.1-0.7,2.3-1.4,3.5-1.9c0.7-0.2,1.3-0.6,1.8-1
		c5-3.4,12.2-5.8,20.6-6.8C254.6,74.8,258.7,74.8,262.7,75.1"/>
</g>
<linearGradient id="b98be6e6-cf2a-4474-8597-8ae13441e83f_00000065043338019169550010000012151130701896105396_" gradientUnits="userSpaceOnUse" x1="-2084.7124" y1="77.0284" x2="-2084.8923" y2="77.3785" gradientTransform="matrix(218.78 0 0 148.45 456609.0625 -11356.5557)">
	<stop  offset="0" style="stop-color:#FFF5FF;stop-opacity:0.86"/>
	<stop  offset="1" style="stop-color:#B692DB;stop-opacity:0.47"/>
</linearGradient>
<path id="b98be6e6-cf2a-4474-8597-8ae13441e83f" style="fill:url(#b98be6e6-cf2a-4474-8597-8ae13441e83f_00000065043338019169550010000012151130701896105396_);" d="
	M501.5,80.3c5.4,0.5,10.6,2,15.4,4.4c7.6,3.7,12.6,8.7,15.1,15.1c1,2.7,1.1,3,0.9,6.4c-0.3,5.7-2,9.6-6.4,14
	c-5.1,5.2-12.3,8.8-21.3,10.7c-6.9,1.1-13.9,1.1-20.8,0c-14.6-3.1-24.8-11-27.2-21.1c-1.4-6.1,0.8-13,5.7-18
	c6.4-6.5,14.8-10.1,26.4-11.5C493.4,80,497.4,80,501.5,80.3"/>
<g id="b709f4fc-ae12-4903-8854-fcd0ead9a279">
	
		<linearGradient id="bd583b4f-e59c-4973-b643-dcd53ee1496e_00000039812309062287562010000005780082511917383049_" gradientUnits="userSpaceOnUse" x1="-2086.5647" y1="73.2301" x2="-2086.9148" y2="73.0001" gradientTransform="matrix(274.28 0 0 282.47 572947.0625 -20535.6035)">
		<stop  offset="0" style="stop-color:#FFFFFF;stop-opacity:0"/>
		<stop  offset="1" style="stop-color:#BA56CF;stop-opacity:0.55"/>
	</linearGradient>
	
		<path id="bd583b4f-e59c-4973-b643-dcd53ee1496e" style="fill:url(#bd583b4f-e59c-4973-b643-dcd53ee1496e_00000039812309062287562010000005780082511917383049_);stroke:#000000;stroke-width:0.5;stroke-miterlimit:10;" d="
		M583.3,77c3.3,0.3,6.5,1,9.6,2c4.6,1.7,9,3.8,13.2,6.4l5.3,3.5c7.5,5,13.8,11.5,18.5,19.3c1.9,3.1,2.8,5.4,4.7,11.3
		c2.8,8.7,3,10,3,19.7c0,5.8-0.2,8.8-0.5,9.8c-0.2,0.8-0.7,2.5-0.9,3.9c-0.2,1.1-0.5,2.1-0.8,3.2c-0.4,0.8-0.7,1.6-0.9,2.4
		c-1.3,3.7-2.9,7.2-5,10.6c-1.8,3-4.5,6.4-4.8,6.1c0.2-0.8,0.6-1.5,1-2.1c2-3.1,3.6-6.5,4.7-10c0.4-1.4,0.9-3.1,1.1-3.7
		c0.2-0.6,0.4-1.3,0.5-1.9c1-5.2,1.2-6.8,1.5-9.5c0.5-4.2,0.4-8.4-0.2-12.6c-1.2-8.9-4.2-17.4-9-25.1c-5-7.6-11.5-14.1-19.2-19
		c-12-7.2-26-10-39.9-7.9c-6.3,0.7-14,2.9-16.6,4.5c-0.5,0.3-1,0.6-1.5,0.8s-0.9,0.5-1.3,0.8c-1.5,1.1-3.4,2.1-3.6,1.8
		c0.6-1.1,1.4-2,2.4-2.8c6.7-6.7,14.9-10.3,26.6-11.7C575.2,76.6,579.3,76.6,583.3,77"/>
</g>
<rect x="42.4" y="75.7" class="st18" width="94.1" height="60.4"/>
<g>
	<g>
		<line class="st19" x1="176.4" y1="112.4" x2="140.2" y2="112.4"/>
		<g>
			<polygon class="st20" points="190.1,112.4 170.8,122.2 175.4,112.4 170.8,102.6 			"/>
		</g>
	</g>
</g>
</svg>
