<?xml version="1.0" encoding="utf-8"?>
<!-- Generator: Adobe Illustrator 26.5.0, SVG Export Plug-In . SVG Version: 6.00 Build 0)  -->
<svg version="1.1" id="图层_1" xmlns="http://www.w3.org/2000/svg" xmlns:xlink="http://www.w3.org/1999/xlink" x="0px" y="0px"
	 viewBox="0 0 520 257" style="enable-background:new 0 0 520 257;" xml:space="preserve">
<style type="text/css">
	.st0{fill:none;}
	.st1{fill:#D3D3D3;}
	.st2{fill:url(#SVGID_1_);}
	.st3{fill:url(#SVGID_00000129201065342363949420000002295633808024778662_);}
	.st4{fill:url(#SVGID_00000176732947041767559870000017047181413598115763_);}
	.st5{fill:url(#SVGID_00000165200174522113008320000014875226531355435920_);}
	.st6{fill:url(#SVGID_00000077297821917861351590000008735692030468889986_);}
	.st7{fill:url(#SVGID_00000124852482766683074540000000408396803161328005_);}
	.st8{fill:url(#SVGID_00000100372868600839368260000010814635723227369388_);}
	.st9{fill:url(#SVGID_00000158732729817007095580000001922719917602978189_);}
	.st10{fill:url(#SVGID_00000015336057662933796500000000930010475201067397_);}
	.st11{fill:url(#SVGID_00000005236298710369686770000016534441126101560718_);}
	.st12{fill:url(#SVGID_00000118398148011424715920000000530166027766562696_);}
	.st13{fill:url(#SVGID_00000091716414395386380740000000855344170154101665_);}
	.st14{fill:url(#SVGID_00000134234968032933595120000001656231812482948238_);}
	.st15{fill:url(#SVGID_00000136381929788104814870000016555158583024145313_);}
	.st16{fill:url(#SVGID_00000114784839269600885150000015828588485904064431_);}
	.st17{fill:none;stroke:#FF0000;stroke-width:3;stroke-miterlimit:10;}
	.st18{fill:none;stroke:#3FA9F5;stroke-width:4;stroke-linecap:round;stroke-miterlimit:10;}
	.st19{fill:#3FA9F5;}
</style>
<pattern  y="257" width="40" height="40" patternUnits="userSpaceOnUse" id="SVGID_0000015294309963211471402" viewBox="0 -40 40 40" style="overflow:visible;">
	<g>
		<rect y="-40" class="st0" width="40" height="40"/>
		<g>
			<rect y="-40" class="st0" width="40" height="40"/>
			<g>
				<rect y="-40" class="st0" width="40" height="40"/>
				<rect y="-40" class="st0" width="40" height="40"/>
				<rect y="-40" class="st1" width="20" height="20"/>
				<rect x="20" y="-20" class="st1" width="20" height="20"/>
			</g>
		</g>
	</g>
</pattern>
<pattern  id="SVGID_1_" xlink:href="#SVGID_0000015294309963211471402" patternTransform="matrix(1 0 0 1 0.28 17440.3203)">
</pattern>
<rect class="st2" width="520" height="257"/>
<linearGradient id="SVGID_00000093172079951335185100000014766509076856838544_" gradientUnits="userSpaceOnUse" x1="-2075.1775" y1="123.9123" x2="-2075.1775" y2="124.2622" gradientTransform="matrix(502 0 0 -451 1041829.25 56102.6875)">
	<stop  offset="0" style="stop-color:#D1D1D1"/>
	<stop  offset="1" style="stop-color:#EAEAEA"/>
</linearGradient>
<path style="fill:url(#SVGID_00000093172079951335185100000014766509076856838544_);" d="M2.9,138v78.4h174.5V59.6H2.9V138z"/>
<linearGradient id="SVGID_00000157285280879889784160000001149682629733770629_" gradientUnits="userSpaceOnUse" x1="-2074.4087" y1="123.8014" x2="-2074.5886" y2="124.1014" gradientTransform="matrix(426.19 0 0 -426.72 884221 53029.5859)">
	<stop  offset="0" style="stop-color:#B4B3B3"/>
	<stop  offset="1" style="stop-color:#C3C3C3"/>
</linearGradient>
<path style="fill:url(#SVGID_00000157285280879889784160000001149682629733770629_);" d="M80.3,63.6c-11.2,1.7-21.9,5.9-31.5,12.1
	C42,80.6,36,86.4,30.8,93c-3.2,4.3-8.4,13.6-9.2,16.3c-0.1,0.5-0.7,2.1-1.2,3.5c-1.1,2.9-1.9,5.9-2.6,9c-1.2,7.6-1.4,8.9-1.4,15.3
	c-0.1,5.1,0.4,10.1,1.4,15.1c0.1,0.4,0.2,1.2,0.3,1.9c0.6,3.5,4.3,13.3,6.7,17.7c7.8,14.6,20.1,26.1,35.1,33
	c4.1,1.9,8.4,3.4,12.8,4.4c6.5,1.7,13.2,2.4,19.9,2.1c10.4-0.2,20.6-2.7,29.9-7.2c12.7-6.1,23.5-15.7,31-27.7
	c4.2-6.7,8.9-18.3,9.7-23.8c0-0.3,0.1-0.6,0.2-0.9c0.1,0,0.4-1.7,0.9-6.6c0.6-6,0.6-12.1-0.2-18.1c-0.2-1.1-0.5-2.9-0.6-3.8
	c-0.5-3.9-3.5-13.1-6.4-18.9c-1.5-2.9-3.1-5.7-4.9-8.3c-11.9-17.8-30.8-29.6-52-32.4C93.6,62.9,86.9,62.9,80.3,63.6z"/>
<linearGradient id="SVGID_00000007400695501974298280000011737824868518268332_" gradientUnits="userSpaceOnUse" x1="-2073.7515" y1="123.2997" x2="-2073.7314" y2="123.6497" gradientTransform="matrix(364.89 0 0 -359.46 756778.1875 44518.4844)">
	<stop  offset="0" style="stop-color:#462573"/>
	<stop  offset="1" style="stop-color:#7D418C"/>
</linearGradient>
<path style="fill:url(#SVGID_00000007400695501974298280000011737824868518268332_);" d="M83.1,75.3c-7.5,0.9-14.8,3.2-21.6,6.6
	c-5.6,2.7-10.8,6.4-15.2,10.8c-9,8.5-15.3,19.5-17.9,31.6c-1.6,7.8-1.8,15.8-0.6,23.7c2.3,12.6,8.3,24.2,17.4,33.2
	c24.9,25,65.4,25,90.4,0.1c0.5-0.5,0.9-0.9,1.4-1.4c4.3-4.5,7.8-9.7,10.5-15.4c4-8.4,6.1-17.5,6.4-26.8c0.1-12.5-3.7-24.8-10.8-35.1
	c-4.4-6-9.7-11.3-15.6-15.9c-4.6-3.1-9.5-5.7-14.6-7.7c-5-1.8-10.1-3-15.4-3.7C92.6,74.8,87.9,74.8,83.1,75.3z M97,75.6
	c5.7,0.5,11.3,2.2,16.4,4.9c1.6,0.8,3.3,1.5,5,2.2c2.4,1,4.7,2.3,6.8,3.8c8.3,5.5,15.1,13.1,19.8,22c2,4.3,3.7,8.8,4.9,13.4
	c1.8,6.6,2,7.8,2,15.9c0,7.1-0.1,8.1-0.9,12c-2.3,11-7.7,21.2-15.5,29.3c-3.4,3.4-7.1,6.5-11.1,9.2c-4.8,2.9-9.9,5.3-15.2,7
	c-6.9,2.1-9.2,2.4-18.7,2.4s-11.8-0.3-19.4-2.8c-16-5.2-30.1-17.6-36.7-32.3c-2.1-4.6-3.7-9.5-4.7-14.4c-0.9-4.3-0.9-16.8,0-21.7
	c3.2-17.3,13.5-31.8,29.4-41.4c1.1-0.7,2.3-1.4,3.5-1.9c0.7-0.2,1.3-0.6,1.8-1c5-3.4,12.2-5.8,20.6-6.7C88.8,75.2,92.9,75.3,97,75.6
	L97,75.6z"/>
<linearGradient id="SVGID_00000175281807339295277670000007724449871176665736_" gradientUnits="userSpaceOnUse" x1="-2073.5745" y1="123.0731" x2="-2073.5745" y2="123.423" gradientTransform="matrix(353.64 0 0 -333.16 733389.0625 41198.8086)">
	<stop  offset="0" style="stop-color:#682F85"/>
	<stop  offset="1" style="stop-color:#AE86B5"/>
</linearGradient>
<path style="fill:url(#SVGID_00000175281807339295277670000007724449871176665736_);" d="M116.3,81.9c0.5,0.5,1.1,0.9,1.7,1.3
	c4.3,2.9,7.6,7,9.5,11.9c1,2.6,1,3,0.9,6.4c-0.3,5.7-2,9.6-6.4,13.9c-5.1,5.2-12.2,8.8-21.3,10.7c-6.9,1.2-13.9,1.2-20.8,0
	c-17.2-3.6-28.4-14.2-27.5-26.1c0.4-5.3,2.5-9.6,6.9-13.8c1-0.9,2-1.9,2.9-2.9c-0.4,0-6.6,3.9-9.3,5.8c-6.2,4.7-11.4,10.4-15.6,17
	c-3.7,6.3-6.4,13.2-7.9,20.4c-0.9,4.9-0.9,17.5,0,21.7c0.8,3.5,1.7,7,2.9,10.4c2.9,7.7,7.5,14.8,13.3,20.6
	c8.8,9,20.1,15.1,32.4,17.7c3.2,0.7,4.4,0.8,12.1,0.8c9.5-0.1,11.8-0.4,18.7-2.4c5.3-1.8,10.4-4.1,15.2-7c4-2.7,7.8-5.8,11.1-9.2
	c7.8-8.1,13.2-18.3,15.5-29.3c0.8-3.9,0.9-4.9,0.9-12c0-9.3-0.6-12.8-4.1-22.8c-4.5-12.9-14.1-23.9-26.9-31.1
	c-0.7-0.5-1.5-0.8-2.4-1.1c0,0.1-0.5,0-1-0.3S116.3,81.9,116.3,81.9z"/>
<linearGradient id="SVGID_00000002384969066109447090000015670029819167512199_" gradientUnits="userSpaceOnUse" x1="-2072.0669" y1="122.7751" x2="-2071.717" y2="122.7751" gradientTransform="matrix(273.28 0 0 -286.83 566285.4375 35363.2305)">
	<stop  offset="0" style="stop-color:#84468F"/>
	<stop  offset="1" style="stop-color:#84468F"/>
</linearGradient>
<path style="fill:url(#SVGID_00000002384969066109447090000015670029819167512199_);" d="M44.4,100c-1.3,1.4-2.5,3-3.5,4.6
	c-0.5,1-1.1,1.9-1.8,2.7c-0.4,0.2-2.8,5-3.7,7.5c-3,8-4.1,12.4-4.7,18.7c-0.9,9.7,1.5,21.8,6.2,31.2c1.5,3,5.6,9.2,6,9.2
	c0.2,0,0.4,0.2,0.4,0.5c0,0.7,7.5,8.4,10,10.3c1.1,0.8,2.1,1.6,2.2,1.7c2.2,1.6,4.6,3.1,7.1,4.4c4.2,2.2,8.6,3.9,13.2,5
	c7.1,1.7,9.9,1.9,18.2,1.5c6.3-0.3,7.7-0.5,10.9-1.4c3.6-1.1,7.2-2.3,10.7-3.8c0.4-0.2,0.8-0.4,1.3-0.5c2.9-1.5,5.7-3.3,8.4-5.2
	c0.6-0.7,0.6-0.7-0.5,0.1c-2.6,1.7-5.4,3.2-8.3,4.5c-0.7,0.2-1.3,0.4-1.9,0.7c-3,1.4-6.3,2.4-9.6,3c-4.1,0.9-5,0.9-12.6,1
	c-9.1,0-10.9-0.2-17.9-2.5c-18.2-5.8-32.6-19.9-38.8-38.1c-3-8.9-3.8-18.4-2.5-27.7c0.5-4.1,2.6-12.2,3.2-12.2
	c0.1,0,0.5-0.6,0.7-1.3c1.8-4.1,3.9-8.1,6.3-11.9c0.8-1.1,1.9-2.4,2.4-3.1s1-1.1,0.9-1.1C45.9,98.5,45.1,99.2,44.4,100z"/>
<linearGradient id="SVGID_00000160873372330247928670000014518480503603925183_" gradientUnits="userSpaceOnUse" x1="-2070.2393" y1="117.5701" x2="-2070.2292" y2="117.9202" gradientTransform="matrix(218.83 0 0 -131.44 453119.5312 15580.5332)">
	<stop  offset="0" style="stop-color:#9B72A9"/>
	<stop  offset="1" style="stop-color:#D0A4C6"/>
</linearGradient>
<path style="fill:url(#SVGID_00000160873372330247928670000014518480503603925183_);" d="M78.9,81.8c-6.2,0.9-14.1,3.2-16.6,4.7
	c-0.5,0.3-1,0.6-1.5,0.8c-0.5,0.2-0.9,0.5-1.3,0.8c-0.8,0.6-1.6,1.1-2.5,1.5c-3.4,1.7-5.5,9.5-4.2,15.2c2.4,10.1,12.5,18,27.1,21.1
	c6.9,1.2,13.9,1.2,20.8,0c9.1-1.9,16.2-5.5,21.3-10.7c4.5-4.5,6.1-8.3,6.3-14.2l0.1-3.8l-1.3-1.3c-2.5-2.6-7.8-6.1-13-8.7
	C103.2,82,90.9,80.1,78.9,81.8z"/>
<linearGradient id="SVGID_00000076593083396187248150000004365947474768017569_" gradientUnits="userSpaceOnUse" x1="-2069.8201" y1="107.6828" x2="-2069.76" y2="107.1728" gradientTransform="matrix(207.95 0 0 -62.39 430504.4688 6794.9722)">
	<stop  offset="0" style="stop-color:#B27BAC"/>
	<stop  offset="1" style="stop-color:#FCF6F8"/>
</linearGradient>
<path style="fill:url(#SVGID_00000076593083396187248150000004365947474768017569_);" d="M84.8,75.5c-3.6,0.3-7.2,1-10.6,2.2
	c-3.9,1.2-7.6,2.9-11,5.2c-2.6,1.8-7.8,6.7-7.4,7.1s2.2-0.7,3.6-1.8c0.4-0.3,0.8-0.6,1.3-0.8c0.5-0.2,1-0.5,1.5-0.8
	c2.6-1.7,10.3-3.8,16.8-4.8c15.7-2.3,31.6,1.6,44.4,11c1.3,0.9,2.5,1.9,3.6,3l1.1,1.1l-0.9-2.3c-3.1-8.3-13.6-15.9-25.2-18.3
	C96.3,75.4,90.5,75.1,84.8,75.5z"/>
<linearGradient id="SVGID_00000063619464746509509150000013179126926949826196_" gradientUnits="userSpaceOnUse" x1="-2067.22" y1="116.5368" x2="-2067.3101" y2="116.3967" gradientTransform="matrix(167.5 0 0 -99.27 346320.0625 11759.1475)">
	<stop  offset="0" style="stop-color:#A4A2A5"/>
	<stop  offset="1" style="stop-color:#E4E2E2"/>
</linearGradient>
<path style="fill:url(#SVGID_00000063619464746509509150000013179126926949826196_);" d="M33.5,173.4c-0.6,0.4-1.1,1-1.3,1.7
	c-0.6,1.7,0.3,3.5,3.3,7c4.3,4.7,9.2,8.9,14.6,12.3c6.3,4.2,10.9,6.7,15.9,8.5c7.6,2.9,20,5.3,22.2,4.3c1.6-0.6,2.4-2.5,1.8-4.1
	c-0.1-0.2-0.2-0.5-0.4-0.7c-0.8-1.1-1.4-1.4-4.9-1.8c-8.8-1.1-18.2-4.2-24.9-8c-5.8-3.2-11.2-7.1-16-11.7c-1.9-1.8-3.7-3.7-5.4-5.7
	C37,173.1,35.3,172.5,33.5,173.4z"/>
<linearGradient id="SVGID_00000104684109951051424800000017211571986802532007_" gradientUnits="userSpaceOnUse" x1="-2048.8689" y1="116.0024" x2="-2048.6589" y2="115.9724" gradientTransform="matrix(59.6 0 0 -98.77 122254.4766 11618.917)">
	<stop  offset="0" style="stop-color:#A3A4A1"/>
	<stop  offset="1" style="stop-color:#FFFFFF"/>
</linearGradient>
<path style="fill:url(#SVGID_00000104684109951051424800000017211571986802532007_);" d="M155.4,146.8c-1.6,1-1.9,1.5-3,5.5
	c-2,7.5-5.2,14.6-9.6,21.1c-0.8,1.2-1.6,2.4-2.2,3.8c0.3,1.3,1,2.3,2.1,3c1.9,1,3.5,0.5,5.7-1.7c4.8-4.7,9.5-14.1,12.1-24.4
	c0.8-2.9,0.8-3.7,0.5-4.8c-0.5-2.1-2.6-3.4-4.7-2.9C156,146.5,155.7,146.6,155.4,146.8z"/>
<linearGradient id="SVGID_00000132776375713646293470000008377890871779710902_" gradientUnits="userSpaceOnUse" x1="-2046.1145" y1="91.361" x2="-2045.7645" y2="91.361" gradientTransform="matrix(59.32 0 0 -34.44 121432.6094 3219.3982)">
	<stop  offset="0" style="stop-color:#FFFFFF;stop-opacity:0.89"/>
	<stop  offset="1" style="stop-color:#FFFFFF;stop-opacity:0.89"/>
</linearGradient>
<path style="fill:url(#SVGID_00000132776375713646293470000008377890871779710902_);" d="M70.2,67.5c-0.8,0.3-2.6,0.8-4,1.2
	c-3.1,0.8-7.5,3-8.2,4c-1.2,1.8-0.7,4.3,1.1,5.5c0.2,0.2,0.5,0.3,0.8,0.4c1.4,0.6,1.1,0.6,6.4-1.3c1.6-0.6,4.2-1.4,5.8-1.8
	c3.7-0.9,4.7-1.4,5.5-3c0.8-1.5,0.4-3.4-0.9-4.5c-0.9-0.8-1.4-1-3-1.1C72.5,66.9,71.3,67.1,70.2,67.5z"/>
<linearGradient id="SVGID_00000106147384410207992170000003192419484930805684_" gradientUnits="userSpaceOnUse" x1="-2073.2285" y1="123.3069" x2="-2073.2085" y2="123.6469" gradientTransform="matrix(364.89 0 0 -359.46 756778.1875 44518.4844)">
	<stop  offset="0" style="stop-color:#462573"/>
	<stop  offset="1" style="stop-color:#7D418C"/>
</linearGradient>
<path style="fill:url(#SVGID_00000106147384410207992170000003192419484930805684_);" d="M273.9,74.4c-7.5,0.9-14.8,3.2-21.6,6.6
	c-5.6,2.7-10.8,6.4-15.2,10.8c-9,8.5-15.3,19.5-17.9,31.6c-1.6,7.8-1.8,15.8-0.6,23.7c2.2,12.6,8.3,24.2,17.4,33.2
	c24.9,25,65.4,25,90.4,0.1c0.5-0.5,0.9-0.9,1.4-1.4c4.3-4.5,7.8-9.7,10.5-15.4c4-8.4,6.1-17.5,6.4-26.8c0.1-12.5-3.7-24.8-10.8-35.1
	c-4.4-6-9.7-11.3-15.6-15.8c-4.6-3.1-9.5-5.7-14.6-7.7c-5-1.8-10.2-3-15.4-3.7C283.5,74,278.7,74,273.9,74.4z M287.8,74.7
	c5.7,0.5,11.3,2.2,16.4,4.9c1.6,0.8,3.3,1.5,5,2.2c2.4,1,4.7,2.3,6.8,3.8c8.3,5.5,15.2,13.1,19.8,21.9c2,4.3,3.7,8.8,4.9,13.4
	c1.8,6.6,2,7.8,2,15.9c0,7-0.1,8.1-0.9,12c-2.4,11-7.7,21.2-15.5,29.3c-3.4,3.5-7.1,6.6-11.2,9.2c-4.8,2.9-9.9,5.3-15.2,7.1
	c-6.9,2.1-9.2,2.4-18.7,2.4s-11.8-0.3-19.4-2.8c-16-5.2-30.1-17.6-36.7-32.3c-2.1-4.6-3.7-9.4-4.7-14.4c-0.9-4.3-0.9-16.8,0-21.7
	c3.2-17.4,13.5-31.8,29.4-41.4c1.1-0.7,2.3-1.4,3.5-1.9c0.7-0.2,1.3-0.6,1.8-1c5-3.4,12.2-5.8,20.6-6.8
	C279.7,74.3,283.8,74.4,287.8,74.7L287.8,74.7z"/>
<linearGradient id="SVGID_00000157291645883030870910000005518225593900190875_" gradientUnits="userSpaceOnUse" x1="-2072.5798" y1="122.9774" x2="-2072.5698" y2="123.3274" gradientTransform="matrix(353.64 0 0 -333.16 733389.0625 41198.8086)">
	<stop  offset="0" style="stop-color:#682F85"/>
	<stop  offset="1" style="stop-color:#AE86B5"/>
</linearGradient>
<path style="fill:url(#SVGID_00000157291645883030870910000005518225593900190875_);" d="M469.6,115c0.5,0.5,1.1,0.9,1.7,1.3
	c4.3,2.9,7.6,7,9.5,11.9c1,2.6,1,3,0.9,6.4c-0.3,5.7-2,9.6-6.4,13.9c-5.1,5.2-12.2,8.8-21.3,10.7c-6.9,1.1-13.9,1.1-20.7,0
	c-17.2-3.7-28.4-14.3-27.5-26.1c0.4-5.3,2.5-9.6,6.9-13.8c1-0.9,2-1.9,2.9-2.9c-0.4,0-6.6,3.9-9.3,5.8c-6.2,4.7-11.4,10.4-15.6,17
	c-3.7,6.3-6.4,13.2-7.9,20.5c-0.9,4.9-0.9,17.4,0,21.7c0.8,3.5,1.8,7,2.9,10.4c2.9,7.7,7.5,14.8,13.3,20.6
	c8.8,9,20.1,15.1,32.4,17.7c3.2,0.7,4.4,0.8,12.1,0.8c9.5-0.1,11.8-0.4,18.7-2.4c5.3-1.8,10.4-4.2,15.2-7.1c4-2.7,7.8-5.8,11.2-9.2
	c7.8-8.1,13.1-18.3,15.5-29.3c0.8-3.9,0.9-4.9,0.9-12c0-9.3-0.6-12.8-4.1-22.8c-4.5-12.9-14.2-23.9-26.9-31.1
	c-0.7-0.5-1.5-0.9-2.4-1.1c0,0.1-0.4,0-1-0.3S469.6,115,469.6,115z"/>
<linearGradient id="SVGID_00000091723624517952376490000015327960423393490318_" gradientUnits="userSpaceOnUse" x1="-2068.6384" y1="117.7115" x2="-2068.6284" y2="118.0615" gradientTransform="matrix(218.83 0 0 -131.44 453119.5312 15580.5332)">
	<stop  offset="0" style="stop-color:#9B72A9"/>
	<stop  offset="1" style="stop-color:#D0A4C6"/>
</linearGradient>
<path style="fill:url(#SVGID_00000091723624517952376490000015327960423393490318_);" d="M429.2,64c-6.2,0.9-14.1,3.2-16.6,4.7
	c-0.5,0.3-1,0.6-1.5,0.8c-0.5,0.2-0.9,0.5-1.3,0.8c-0.8,0.6-1.6,1.1-2.5,1.5c-3.4,1.7-5.5,9.5-4.2,15.2c2.4,10.1,12.5,18,27.1,21.1
	c6.9,1.1,13.9,1.1,20.7,0c9.1-1.9,16.2-5.5,21.3-10.7c4.5-4.5,6.1-8.3,6.3-14.2l0.1-3.8l-1.3-1.3c-2.5-2.6-7.8-6.1-13-8.7
	C453.5,64.1,441.2,62.2,429.2,64z"/>
<linearGradient id="SVGID_00000119840198192234274870000015035831145104864396_" gradientUnits="userSpaceOnUse" x1="-2068.1436" y1="108.3743" x2="-2068.0835" y2="107.8642" gradientTransform="matrix(207.95 0 0 -62.39 430504.4688 6794.9722)">
	<stop  offset="0" style="stop-color:#B27BAC"/>
	<stop  offset="1" style="stop-color:#FCF6F8"/>
</linearGradient>
<path style="fill:url(#SVGID_00000119840198192234274870000015035831145104864396_);" d="M433.5,32.4c-3.6,0.3-7.2,1-10.6,2.2
	c-3.9,1.2-7.6,2.9-11,5.2c-2.6,1.8-7.8,6.7-7.4,7.1s2.2-0.7,3.7-1.8c0.4-0.3,0.8-0.6,1.3-0.8s1-0.5,1.5-0.8
	c2.6-1.7,10.3-3.8,16.8-4.8c15.7-2.3,31.6,1.6,44.3,11c1.3,0.9,2.5,1.9,3.6,3l1.1,1.2l-0.9-2.3c-3-8.3-13.6-16-25.2-18.3
	C445,32.3,439.2,32,433.5,32.4z"/>
<rect x="46.4" y="75.3" class="st17" width="94.1" height="60.4"/>
<g>
	<g>
		<line class="st18" x1="190.9" y1="104" x2="147.5" y2="104"/>
		<g>
			<polygon class="st19" points="207.2,104 184.2,113.8 189.6,104 184.2,94.2 			"/>
		</g>
	</g>
</g>
</svg>
