<?xml version="1.0" encoding="utf-8"?>
<!-- Generator: Adobe Illustrator 26.5.0, SVG Export Plug-In . SVG Version: 6.00 Build 0)  -->
<svg version="1.1" id="图层_1" xmlns="http://www.w3.org/2000/svg" xmlns:xlink="http://www.w3.org/1999/xlink" x="0px" y="0px"
	 viewBox="0 0 900 430" style="enable-background:new 0 0 900 430;" xml:space="preserve">
<style type="text/css">
	.st0{fill:none;}
	.st1{fill:#D3D3D3;}
	.st2{clip-path:url(#SVGID_00000021076961002114431880000010256711754227111061_);}
	.st3{fill:url(#SVGID_00000002378833027066164530000016848174009026383798_);}
	.st4{fill:url(#region-1-1_00000095297405855194011100000014151566884733729468_);}
	.st5{fill:url(#region-2-1_00000045614444671882772420000014378151217417464767_);}
	.st6{fill:url(#region-2-2_00000036963537162463068700000011896281414957814404_);}
	.st7{fill:url(#region-3-1_00000138574527715004676110000003611219653752334487_);}
	.st8{fill:url(#region-4-1_00000049193932849873918880000002284274329325565328_);}
	.st9{fill:url(#region-1-1_00000062877859786321131150000014189638482910890402_);}
	.st10{fill:url(#region-2-1_00000182520700422394570580000009033639678523582610_);}
	.st11{fill:url(#region-2-2_00000126283205562182371990000015006624463901191581_);}
	.st12{fill:url(#region-3-1_00000170980042174334600970000013422542868330903443_);stroke:#000000;stroke-miterlimit:10;}
	.st13{fill:url(#region-4-1_00000046324470074177070270000004689893322267860618_);}
	.st14{fill:none;stroke:#0000FF;stroke-width:2;stroke-miterlimit:10;}
	.st15{fill:none;stroke:#020000;stroke-width:2;stroke-miterlimit:10;}
	.st16{stroke:#020000;stroke-miterlimit:10;}
</style>
<pattern  y="430" width="40" height="40" patternUnits="userSpaceOnUse" id="SVGID_0000006215349019777660123" viewBox="0 -40 40 40" style="overflow:visible;">
	<g>
		<rect y="-40" class="st0" width="40" height="40"/>
		<g>
			<rect y="-40" class="st0" width="40" height="40"/>
			<g>
				<rect y="-40" class="st0" width="40" height="40"/>
				<g>
					<rect y="-40" class="st0" width="40" height="40"/>
					<g>
						<rect y="-40" class="st0" width="40" height="40"/>
						<g>
							<rect y="-40" class="st0" width="40" height="40"/>
							<g>
								<polygon class="st0" points="0,-40 40,-40 40,0 0,0 								"/>
								<polygon class="st1" points="0,-20 20,-20 20,0 0,0 								"/>
								<polygon class="st1" points="20,-40 40,-40 40,-20 20,-20 								"/>
							</g>
						</g>
					</g>
				</g>
			</g>
		</g>
	</g>
</pattern>
<g id="图层_3">
	<g>
		<g>
			<g>
				<defs>
					<rect id="SVGID_1_" width="900" height="430"/>
				</defs>
				<clipPath id="SVGID_00000158735599463784254940000013766369851107159222_">
					<use xlink:href="#SVGID_1_"  style="overflow:visible;"/>
				</clipPath>
				<g style="clip-path:url(#SVGID_00000158735599463784254940000013766369851107159222_);">
					
						<pattern  id="SVGID_00000135665902110460481710000007886281957729503402_" xlink:href="#SVGID_0000006215349019777660123" patternTransform="matrix(1 0 0 -1 17684.5 -50409.1094)">
					</pattern>
					<rect style="fill:url(#SVGID_00000135665902110460481710000007886281957729503402_);" width="899.4" height="429.7"/>
				</g>
			</g>
		</g>
	</g>
</g>
<g id="图层_1_00000127735503638790406880000001467496697810317725_">
	<g id="layer-1">
		
			<linearGradient id="region-1-1_00000125597220607380646480000013277646835622325178_" gradientUnits="userSpaceOnUse" x1="-1011.1752" y1="617.239" x2="-1010.7605" y2="618.36" gradientTransform="matrix(175.2637 0 0 358 177282.0156 -220962)">
			<stop  offset="0" style="stop-color:#605254"/>
			<stop  offset="1" style="stop-color:#000000"/>
		</linearGradient>
		<path id="region-1-1" style="fill:url(#region-1-1_00000125597220607380646480000013277646835622325178_);" d="M24.7,49.1
			c-5.2,3.9-7.1,6-10.3,11.3l-2.4,4l-0.3,158.5c-0.2,87.2,0.1,159.6,0.5,161c1.1,3,6.4,11,8.5,12.7c0.9,0.7,3.9,2.6,6.7,4.3l5.1,3
			h66.2h66.2l5.2-2.6c6.8-3.4,9.3-5.8,12.5-11.9l2.7-5l0.7-120c0.4-66,0.8-123.7,0.8-128.3c0-4.5,0.1-11.8,0.1-16.2
			c0-4.4,0-11.7,0-16.3c0-4.5-0.3-15.5-0.8-24.4c-0.8-15.8-0.9-16.2-3.8-20.5c-3.7-5.2-11.7-11.4-15.8-12.2
			c-1.6-0.3-33.2-0.6-70.1-0.6H29.2L24.7,49.1z"/>
	</g>
	<g id="layer-2">
		
			<linearGradient id="region-2-1_00000114764325271966960460000012616034936645378228_" gradientUnits="userSpaceOnUse" x1="-1010.0298" y1="618.2859" x2="-1010.0298" y2="619.2859" gradientTransform="matrix(150.35 0 0 255 151956.9531 -157566)">
			<stop  offset="0" style="stop-color:#6249F7;stop-opacity:0.872"/>
			<stop  offset="1" style="stop-color:#FA10E3;stop-opacity:0.717"/>
		</linearGradient>
		<path id="region-2-1" style="fill:url(#region-2-1_00000114764325271966960460000012616034936645378228_);" d="M23.8,224.4v127.5
			h75h75l0.2-24.8c0.2-13.6,0.2-70.9,0-127.5l-0.2-102.7h-75h-75C23.8,96.9,23.8,224.4,23.8,224.4z"/>
		
			<linearGradient id="region-2-2_00000176751966488951395230000008124452723911729852_" gradientUnits="userSpaceOnUse" x1="-991.609" y1="671.9482" x2="-991.3445" y2="674.1854" gradientTransform="matrix(39.0003 0 0 14.699 38768.3047 -9504.7529)">
			<stop  offset="0" style="stop-color:#444546;stop-opacity:0.759"/>
			<stop  offset="1" style="stop-color:#48494A;stop-opacity:0.796"/>
		</linearGradient>
		<path id="region-2-2" style="fill:url(#region-2-2_00000176751966488951395230000008124452723911729852_);" d="M83.6,373.6
			l-5.8,0.4v5.2c0,8.3-0.3,8.2,18.4,8.5c10.7,0.2,17.2-0.1,18.5-0.8c1.8-0.9,2.1-2,2.1-6.9v-5.8l-7.7-0.7
			C101.6,372.9,94.8,372.9,83.6,373.6z"/>
	</g>
	<g id="layer-3">
		
			<linearGradient id="region-3-1_00000114796323359501656040000017085885396841203351_" gradientUnits="userSpaceOnUse" x1="-1006.3352" y1="617.8883" x2="-1004.8148" y2="618.6524" gradientTransform="matrix(91.1 0 0 293.088 91771.7031 -181041.1406)">
			<stop  offset="0" style="stop-color:#C2ECFB;stop-opacity:0.381"/>
			<stop  offset="1" style="stop-color:#C1FFFF;stop-opacity:0.18"/>
		</linearGradient>
		<path id="region-3-1" style="fill:url(#region-3-1_00000114796323359501656040000017085885396841203351_);" d="M95.8,46.6
			c0,0.8,6.6,23.5,8.1,27.8c0.6,1.6,2.4,7.5,4.1,13c9.9,32.9,64.7,210.2,68.2,221c2.4,7.1,5.4,17,6.7,21.8l2.4,8.8l0.7-97.3
			c0.4-53.5,0.8-101,0.8-105.6c0-4.5,0.1-11.8,0.1-16.2c0-4.4,0-11.7,0-16.3c0-4.5-0.3-15.5-0.8-24.4c-0.8-15.8-0.9-16.2-3.8-20.5
			c-3.7-5.2-11.7-11.4-15.8-12.2S95.8,45.7,95.8,46.6z"/>
	</g>
	<g id="layer-4">
		
			<linearGradient id="region-4-1_00000064341636147752612700000013424331692213821355_" gradientUnits="userSpaceOnUse" x1="-997.0048" y1="759.5828" x2="-996.9946" y2="761.2969" gradientTransform="matrix(49.8919 0 0 5.7949 49841.0195 -4331.8491)">
			<stop  offset="0" style="stop-color:#444545;stop-opacity:0.81"/>
			<stop  offset="1" style="stop-color:#464647;stop-opacity:0.827"/>
		</linearGradient>
		<path id="region-4-1" style="fill:url(#region-4-1_00000064341636147752612700000013424331692213821355_);" d="M74.5,70.6
			c-1.5,1.5-0.6,4.3,1.6,4.8c1.2,0.3,12.3,0.4,24.7,0.3c21.1-0.3,22.5-0.4,22.8-2.2c0.2-1-0.2-2.2-1-2.7
			C121.1,69.8,75.5,69.6,74.5,70.6z"/>
	</g>
</g>
<g id="layer-1_00000001630736447455764180000009455490387399282592_">
	
		<linearGradient id="region-1-1_00000092437322161901843680000015321787365891260043_" gradientUnits="userSpaceOnUse" x1="-1009.6359" y1="617.236" x2="-1009.2211" y2="618.3572" gradientTransform="matrix(175.2637 0 0 358 177282.0156 -220962)">
		<stop  offset="0" style="stop-color:#605254"/>
		<stop  offset="1" style="stop-color:#000000"/>
	</linearGradient>
	
		<path id="region-1-1_00000115500075481202009380000001838868453494937011_" style="fill:url(#region-1-1_00000092437322161901843680000015321787365891260043_);" d="
		M294.5,48.1c-5.2,3.9-7.1,6-10.3,11.3l-2.4,4l-0.3,158.5c-0.2,87.2,0.1,159.6,0.5,161c1.1,3,6.4,11,8.5,12.7
		c0.9,0.7,3.9,2.6,6.7,4.3l5.1,3h66.2h66.2l5.2-2.6c6.8-3.4,9.3-5.8,12.5-11.9l2.7-5l0.7-120c0.4-66,0.8-123.7,0.8-128.3
		c0-4.5,0.1-11.8,0.1-16.2c0-4.4,0-11.7,0-16.3c0-4.5-0.3-15.5-0.8-24.4c-0.8-15.8-0.9-16.2-3.8-20.5c-3.7-5.2-11.7-11.4-15.8-12.2
		c-1.6-0.3-33.2-0.6-70.1-0.6H299L294.5,48.1z"/>
</g>
<g id="layer-2_00000177472259979363256620000000988613716928670863_">
	
		<linearGradient id="region-2-1_00000155851055309463172410000009907347300814155403_" gradientUnits="userSpaceOnUse" x1="-1006.9057" y1="618.2192" x2="-1006.9057" y2="619.2192" gradientTransform="matrix(150.35 0 0 255 151956.9531 -157566)">
		<stop  offset="0" style="stop-color:#6249F7;stop-opacity:0.872"/>
		<stop  offset="1" style="stop-color:#FA10E3;stop-opacity:0.717"/>
	</linearGradient>
	
		<path id="region-2-1_00000052069028601284742810000012662120244619357337_" style="fill:url(#region-2-1_00000155851055309463172410000009907347300814155403_);" d="
		M493.5,207.4v127.5h75h75l0.2-24.8c0.2-13.6,0.2-70.9,0-127.5l-0.2-102.7h-75h-75V207.4z"/>
	
		<linearGradient id="region-2-2_00000000218135525368664590000015831815201353422505_" gradientUnits="userSpaceOnUse" x1="-979.5655" y1="670.7919" x2="-979.301" y2="673.0291" gradientTransform="matrix(39.0003 0 0 14.699 38768.3047 -9504.7529)">
		<stop  offset="0" style="stop-color:#444546;stop-opacity:0.759"/>
		<stop  offset="1" style="stop-color:#48494A;stop-opacity:0.796"/>
	</linearGradient>
	
		<path id="region-2-2_00000106136761015219999710000016675044900936616582_" style="fill:url(#region-2-2_00000000218135525368664590000015831815201353422505_);" d="
		M553.3,356.6l-5.8,0.4v5.2c0,8.3-0.3,8.2,18.4,8.5c10.7,0.2,17.2-0.1,18.5-0.8c1.8-0.9,2.1-2,2.1-6.9v-5.8l-7.7-0.7
		C571.3,355.9,564.5,355.9,553.3,356.6z"/>
</g>
<g id="layer-3_00000118389142241978047760000010613691597284871613_">
	
		<linearGradient id="region-3-1_00000015350821672373767250000005994640717837911424_" gradientUnits="userSpaceOnUse" x1="-999.939" y1="617.8884" x2="-998.4185" y2="618.6525" gradientTransform="matrix(91.1 0 0 293.088 91771.7031 -181041.1406)">
		<stop  offset="0" style="stop-color:#C2ECFB;stop-opacity:0.381"/>
		<stop  offset="1" style="stop-color:#C1FFFF;stop-opacity:0.18"/>
	</linearGradient>
	
		<path id="region-3-1_00000067946606575417956750000012280950829642196372_" style="fill:url(#region-3-1_00000015350821672373767250000005994640717837911424_);stroke:#000000;stroke-miterlimit:10;" d="
		M678.5,46.6c0,0.8,6.6,23.5,8.1,27.8c0.6,1.6,2.4,7.5,4.1,13c9.9,32.9,64.7,210.2,68.2,221c2.4,7.1,5.4,17,6.7,21.8l2.4,8.8
		l0.7-97.3c0.4-53.5,0.8-101,0.8-105.6c0-4.5,0.1-11.8,0.1-16.2c0-4.4,0-11.7,0-16.3c0-4.5-0.3-15.5-0.8-24.4
		C768,63.4,767.9,63,765,58.7c-3.7-5.2-11.7-11.4-15.8-12.2S678.5,45.7,678.5,46.6z"/>
</g>
<g id="layer-4_00000057146598156334987680000018300925992580332422_">
	
		<linearGradient id="region-4-1_00000073689202276878891050000000274535626740153987_" gradientUnits="userSpaceOnUse" x1="-982.1787" y1="757.6846" x2="-982.1685" y2="759.3987" gradientTransform="matrix(49.8919 0 0 5.7949 49841.0195 -4331.8491)">
		<stop  offset="0" style="stop-color:#444545;stop-opacity:0.81"/>
		<stop  offset="1" style="stop-color:#464647;stop-opacity:0.827"/>
	</linearGradient>
	
		<path id="region-4-1_00000074423978200684165770000011765454544868635839_" style="fill:url(#region-4-1_00000073689202276878891050000000274535626740153987_);" d="
		M814.2,59.6c-1.5,1.5-0.6,4.3,1.6,4.8c1.2,0.3,12.3,0.4,24.7,0.3c21.1-0.3,22.5-0.4,22.8-2.2c0.2-1-0.2-2.2-1-2.7
		C860.8,58.8,815.2,58.6,814.2,59.6z"/>
</g>
<rect x="86" y="13" class="st14" width="129" height="331"/>
<g>
	<g>
		<line class="st15" x1="223" y1="182" x2="265.9" y2="182"/>
		<g>
			<path class="st16" d="M278,182c-5.7,2.1-12.7,5.7-17.1,9.5l3.4-9.5l-3.4-9.5C265.3,176.3,272.3,179.9,278,182z"/>
		</g>
	</g>
</g>
</svg>
