<?xml version="1.0" encoding="utf-8"?>
<!-- Generator: Adobe Illustrator 27.0.0, SVG Export Plug-In . SVG Version: 6.00 Build 0)  -->
<svg version="1.1" id="图层_1" xmlns="http://www.w3.org/2000/svg" xmlns:xlink="http://www.w3.org/1999/xlink" x="0px" y="0px"
	 viewBox="0 0 900 430" style="enable-background:new 0 0 900 430;" xml:space="preserve">
<style type="text/css">
	.st0{fill:none;}
	.st1{fill:#D3D3D3;}
	.st2{clip-path:url(#SVGID_00000027601165234731024280000001839117061628870571_);}
	.st3{fill:url(#SVGID_00000057115638436058803250000016289092648932484012_);}
	.st4{fill:url(#SVGID_00000182519207286477122720000009236524099447963070_);}
	.st5{fill:url(#SVGID_00000075870242518455028990000005808001340344967329_);}
	.st6{fill:url(#SVGID_00000165228061586911935000000016647003915939236750_);}
	.st7{fill:url(#SVGID_00000087410556308872197140000016746632117291569330_);}
	.st8{fill:url(#SVGID_00000176037835123917637970000010027677827943500720_);}
	.st9{fill:url(#SVGID_00000044884261610516985390000016502581603502344067_);}
	.st10{fill:url(#SVGID_00000146473101068442003790000008579057777974819995_);}
	.st11{fill:url(#SVGID_00000121979422484092691670000013738540211094692797_);}
	.st12{fill:url(#SVGID_00000013903815734993834880000016807880656240104373_);stroke:#000000;stroke-miterlimit:10;}
	.st13{fill:url(#SVGID_00000112598006438223676810000005711379044491828907_);}
	.st14{fill:url(#SVGID_00000062192803372632077360000012412836252191207563_);stroke:#000000;stroke-miterlimit:10;}
	.st15{fill:none;stroke:#FF0000;stroke-width:2;stroke-miterlimit:10;}
	.st16{fill:#020202;stroke:#020202;stroke-width:2;stroke-miterlimit:10;}
	.st17{fill:#020202;stroke:#020202;stroke-miterlimit:10;}
</style>
<pattern  y="430" width="40" height="40" patternUnits="userSpaceOnUse" id="SVGID_0000004992215559029419378" viewBox="0 -40 40 40" style="overflow:visible;">
	<g>
		<rect y="-40" class="st0" width="40" height="40"/>
		<g>
			<rect y="-40" class="st0" width="40" height="40"/>
			<g>
				<rect y="-40" class="st0" width="40" height="40"/>
				<g>
					<rect y="-40" class="st0" width="40" height="40"/>
					<g>
						<rect y="-40" class="st0" width="40" height="40"/>
						<g>
							<polygon class="st0" points="0,0 40,0 40,-40 0,-40 							"/>
							<polygon class="st1" points="0,-20 20,-20 20,-40 0,-40 							"/>
							<polygon class="st1" points="20,0 40,0 40,-20 20,-20 							"/>
						</g>
					</g>
				</g>
			</g>
		</g>
	</g>
</pattern>
<g id="_图层_3">
	<g>
		<defs>
			<rect id="SVGID_1_" width="900" height="430"/>
		</defs>
		<clipPath id="SVGID_00000101071240453298415500000003977668133203437441_">
			<use xlink:href="#SVGID_1_"  style="overflow:visible;"/>
		</clipPath>
		<g style="clip-path:url(#SVGID_00000101071240453298415500000003977668133203437441_);">
			
				<pattern  id="SVGID_00000016797380587095473370000000263940369049923763_" xlink:href="#SVGID_0000004992215559029419378" patternTransform="matrix(1 0 0 1 55.5 1111.11)">
			</pattern>
			<rect style="fill:url(#SVGID_00000016797380587095473370000000263940369049923763_);" width="899.4" height="429.7"/>
		</g>
	</g>
</g>
<g id="_图层_1">
	
		<linearGradient id="SVGID_00000072973148955229762880000011357141366565263762_" gradientUnits="userSpaceOnUse" x1="-504.7861" y1="138.5549" x2="-504.9261" y2="139.5949" gradientTransform="matrix(175.26 0 0 -358 88579.9062 50010)">
		<stop  offset="0" style="stop-color:#000000"/>
		<stop  offset="1" style="stop-color:#86858A"/>
	</linearGradient>
	<path style="fill:url(#SVGID_00000072973148955229762880000011357141366565263762_);" d="M24.4,39.5c-5.2,3.9-7.1,6-10.3,11.3
		l-2.4,4l-0.3,158.5c-0.2,87.2,0.1,159.6,0.5,161c1.1,3,6.4,11,8.5,12.7c0.9,0.7,3.9,2.6,6.7,4.3l5.1,3h132.4l5.2-2.6
		c6.8-3.4,9.3-5.8,12.5-11.9l2.7-5l0.7-120c0.4-66,0.8-123.7,0.8-128.3s0.1-11.8,0.1-16.2V94c0-4.5-0.3-15.5-0.8-24.4
		c-0.8-15.8-0.9-16.2-3.8-20.5c-3.7-5.2-11.7-11.4-15.8-12.2c-1.6-0.3-33.2-0.6-70.1-0.6H28.9C28.9,36.3,24.4,39.5,24.4,39.5z"/>
	
		<linearGradient id="SVGID_00000011734164880336304270000012194858950048194997_" gradientUnits="userSpaceOnUse" x1="-504.8413" y1="137.9669" x2="-504.0113" y2="139.057" gradientTransform="matrix(150.35 0 0 -255 75937.8047 35538)">
		<stop  offset="0" style="stop-color:#F30B78"/>
		<stop  offset="1" style="stop-color:#1F49FF"/>
	</linearGradient>
	<path style="fill:url(#SVGID_00000011734164880336304270000012194858950048194997_);" d="M23.5,214.8v127.5h150l0.2-24.8
		c0.2-13.6,0.2-70.9,0-127.5l-0.2-102.7h-150V214.8z"/>
	
		<linearGradient id="SVGID_00000056396615569522138900000003378556820668499619_" gradientUnits="userSpaceOnUse" x1="-498.7076" y1="52.8773" x2="-497.7075" y2="52.8773" gradientTransform="matrix(49.89 0 0 -5.79 24954.0801 369.3899)">
		<stop  offset="0" style="stop-color:#000000;stop-opacity:0.36"/>
		<stop  offset="1" style="stop-color:#000000;stop-opacity:0.36"/>
	</linearGradient>
	<path style="fill:url(#SVGID_00000056396615569522138900000003378556820668499619_);" d="M74.2,61c-1.5,1.5-0.6,4.3,1.6,4.8
		c1.2,0.3,12.3,0.4,24.7,0.3c21.1-0.3,22.5-0.4,22.8-2.2c0.2-1-0.2-2.2-1-2.7C120.8,60.2,75.2,60,74.2,61z"/>
	
		<linearGradient id="SVGID_00000027563830515056273510000008707081747357692562_" gradientUnits="userSpaceOnUse" x1="-505.3374" y1="139.0914" x2="-504.3374" y2="139.0914" gradientTransform="matrix(174.16 0 0 -358 88021.1094 50010)">
		<stop  offset="0" style="stop-color:#000000;stop-opacity:0.92"/>
		<stop  offset="1" style="stop-color:#000000;stop-opacity:0.92"/>
	</linearGradient>
	<path style="fill:url(#SVGID_00000027563830515056273510000008707081747357692562_);" d="M24.4,39.5c-5.2,3.9-7.1,6-10.3,11.3
		l-2.4,4l-0.3,158.5c-0.2,87.2,0.1,159.6,0.5,161c1.1,3,6.4,11,8.5,12.7c0.9,0.7,3.9,2.6,6.7,4.3l5.1,3h132.4l5.7-2.9
		c6.7-3.4,9.1-5.8,12.6-12.8c2.6-5.2,2.6-5.6,2.6-26.6v-21.4l-5.1-17.4c-2.8-9.6-5.5-18.1-6-18.9c-0.5-0.9-0.9,8.5-0.9,23.2v24.8
		h-150v-255h43.6c41,0,43.5-0.1,43-1.8c-0.2-0.9-1.7-5.6-3.2-10.5l-2.6-8.7H90.1c-7.7,0-14.7-0.4-15.4-0.9c-0.8-0.5-1.2-1.7-1-2.7
		c0.3-1.7,1.6-1.9,14.4-2.4l14.1-0.5L98.7,48l-3.6-11.7H28.9C28.9,36.3,24.4,39.5,24.4,39.5z M108.8,363.9l7.7,0.7v5.8
		c0,4.9-0.3,6-2.1,6.9c-1.3,0.7-7.8,1-18.5,0.8c-18.7-0.3-18.4-0.2-18.4-8.5v-5.2l5.8-0.4C94.5,363.3,101.3,363.3,108.8,363.9
		L108.8,363.9z"/>
	
		<linearGradient id="SVGID_00000035494605741086869310000013365325945161825702_" gradientUnits="userSpaceOnUse" x1="-500.1882" y1="137.6503" x2="-499.9582" y2="138.6303" gradientTransform="matrix(62.66 0 0 -202.5 31478.6191 28132.9766)">
		<stop  offset="0" style="stop-color:#FFFFFF;stop-opacity:6.000000e-02"/>
		<stop  offset="1" style="stop-color:#FFFFFF;stop-opacity:0.44"/>
	</linearGradient>
	<path style="fill:url(#SVGID_00000035494605741086869310000013365325945161825702_);" d="M110.9,89c0.3,1,14.3,46.3,31.1,100.8
		s30.7,99.4,30.9,100c0.3,0.5,0.5-44.8,0.5-100.8l0.1-101.7h-31.6C112.3,87.3,110.4,87.4,110.9,89z"/>
	
		<linearGradient id="SVGID_00000170244645442614801980000015937212558233015730_" gradientUnits="userSpaceOnUse" x1="-495.6006" y1="106.6393" x2="-495.6906" y2="105.0093" gradientTransform="matrix(39 0 0 -14.7 19426 1932.4498)">
		<stop  offset="0" style="stop-color:#242424"/>
		<stop  offset="1" style="stop-color:#242424"/>
	</linearGradient>
	<path style="fill:url(#SVGID_00000170244645442614801980000015937212558233015730_);" d="M83.3,364l-5.8,0.4v5.2
		c0,8.3-0.3,8.2,18.4,8.5c10.7,0.2,17.2-0.1,18.5-0.8c1.8-0.9,2.1-2,2.1-6.9v-5.8l-7.7-0.7C101.3,363.3,94.5,363.3,83.3,364
		L83.3,364z"/>
</g>
<linearGradient id="SVGID_00000071548105901017214440000012363066166048612269_" gradientUnits="userSpaceOnUse" x1="-503.3693" y1="138.5545" x2="-503.5093" y2="139.5945" gradientTransform="matrix(175.26 0 0 -358 88579.9062 50010)">
	<stop  offset="0" style="stop-color:#000000"/>
	<stop  offset="1" style="stop-color:#86858A"/>
</linearGradient>
<path style="fill:url(#SVGID_00000071548105901017214440000012363066166048612269_);" d="M272.5,36.5c-5.2,3.9-7.1,6-10.3,11.3
	l-2.4,4l-0.3,158.5c-0.2,87.2,0.1,159.6,0.5,161c1.1,3,6.4,11,8.5,12.7c0.9,0.7,3.9,2.6,6.7,4.3l5.1,3h132.4l5.2-2.6
	c6.8-3.4,9.3-5.8,12.5-11.9l2.7-5l0.7-120c0.4-66,0.8-123.7,0.8-128.3s0.1-11.8,0.1-16.2V91c0-4.5-0.3-15.5-0.8-24.4
	c-0.8-15.8-0.9-16.2-3.8-20.5c-3.7-5.2-11.7-11.4-15.8-12.2c-1.6-0.3-33.2-0.6-70.1-0.6H277L272.5,36.5L272.5,36.5z"/>
<linearGradient id="SVGID_00000049195649869322649500000004429779278077518755_" gradientUnits="userSpaceOnUse" x1="-502.0046" y1="137.9194" x2="-501.1746" y2="139.0095" gradientTransform="matrix(150.35 0 0 -255 75937.8047 35538)">
	<stop  offset="0" style="stop-color:#F30B78"/>
	<stop  offset="1" style="stop-color:#1F49FF"/>
</linearGradient>
<path style="fill:url(#SVGID_00000049195649869322649500000004429779278077518755_);" d="M449.6,227.8v127.5h150l0.2-24.8
	c0.2-13.6,0.2-70.9,0-127.5l-0.2-102.7h-150L449.6,227.8L449.6,227.8z"/>
<linearGradient id="SVGID_00000054264131418092898270000009104925062705904562_" gradientUnits="userSpaceOnUse" x1="-487.6476" y1="49.7685" x2="-486.6475" y2="49.7685" gradientTransform="matrix(49.89 0 0 -5.79 24954.0801 369.3899)">
	<stop  offset="0" style="stop-color:#000000;stop-opacity:0.36"/>
	<stop  offset="1" style="stop-color:#000000;stop-opacity:0.36"/>
</linearGradient>
<path style="fill:url(#SVGID_00000054264131418092898270000009104925062705904562_);stroke:#000000;stroke-miterlimit:10;" d="
	M626.3,79c-1.5,1.5-0.6,4.3,1.6,4.8c1.2,0.3,12.3,0.4,24.7,0.3c21.1-0.3,22.5-0.4,22.8-2.2c0.2-1-0.2-2.2-1-2.7
	C672.9,78.2,627.3,78,626.3,79L626.3,79z"/>
<linearGradient id="SVGID_00000025421054009569699550000014536727184583286920_" gradientUnits="userSpaceOnUse" x1="-501.3574" y1="139.0997" x2="-500.3574" y2="139.0997" gradientTransform="matrix(174.16 0 0 -358 88021.1094 50010)">
	<stop  offset="0" style="stop-color:#000000;stop-opacity:0.92"/>
	<stop  offset="1" style="stop-color:#000000;stop-opacity:0.92"/>
</linearGradient>
<path style="fill:url(#SVGID_00000025421054009569699550000014536727184583286920_);" d="M718.5,36.5c-5.2,3.9-7.1,6-10.3,11.3
	l-2.4,4l-0.3,158.5c-0.2,87.2,0.1,159.6,0.5,161c1.1,3,6.4,11,8.5,12.7c0.9,0.7,3.9,2.6,6.7,4.3l5.1,3h132.4l5.7-2.9
	c6.7-3.4,9.1-5.8,12.6-12.8c2.6-5.2,2.6-5.6,2.6-26.6v-21.4l-5.1-17.4c-2.8-9.6-5.5-18.1-6-18.9c-0.5-0.9-0.9,8.5-0.9,23.2v24.8
	h-150v-255h43.6c41,0,43.5-0.1,43-1.8c-0.2-0.9-1.7-5.6-3.2-10.5l-2.6-8.7h-14.2c-7.7,0-14.7-0.4-15.4-0.9c-0.8-0.5-1.2-1.7-1-2.7
	c0.3-1.7,1.6-1.9,14.4-2.4l14.1-0.5L792.8,45l-3.6-11.7H723L718.5,36.5L718.5,36.5z M802.9,360.9l7.7,0.7v5.8c0,4.9-0.3,6-2.1,6.9
	c-1.3,0.7-7.8,1-18.5,0.8c-18.7-0.3-18.4-0.2-18.4-8.5v-5.2l5.8-0.4C788.6,360.3,795.4,360.3,802.9,360.9L802.9,360.9z"/>
<linearGradient id="SVGID_00000116211982597087926190000007614559650564986497_" gradientUnits="userSpaceOnUse" x1="-489.096" y1="137.6598" x2="-488.866" y2="138.6398" gradientTransform="matrix(62.66 0 0 -202.5 31478.6191 28132.9766)">
	<stop  offset="0" style="stop-color:#FFFFFF;stop-opacity:6.000000e-02"/>
	<stop  offset="1" style="stop-color:#FFFFFF;stop-opacity:0.44"/>
</linearGradient>
<path style="fill:url(#SVGID_00000116211982597087926190000007614559650564986497_);stroke:#000000;stroke-miterlimit:10;" d="
	M806,86.2c0.3,1,14.3,46.3,31.1,100.8s30.7,99.4,30.9,100c0.3,0.5,0.5-44.8,0.5-100.8l0.1-101.7H837C807.4,84.5,805.5,84.6,806,86.2
	z"/>
<rect x="84" y="20" class="st15" width="112" height="283"/>
<g>
	<line class="st16" x1="198" y1="180" x2="240.9" y2="180"/>
	<path class="st17" d="M253,180c-5.7,2.1-12.7,5.7-17.1,9.5l3.4-9.5l-3.4-9.5C240.3,174.3,247.3,177.9,253,180z"/>
</g>
</svg>
