<?xml version="1.0" encoding="UTF-8"?>
<svg xmlns="http://www.w3.org/2000/svg" xmlns:xlink="http://www.w3.org/1999/xlink" viewBox="0 0 2500 500">
  <defs>
    <style>
      .cls-1 {
        fill: url(#_未命名的渐变_5);
      }

      .cls-2 {
        fill: url(#_未命名的渐变_4-2);
      }

      .cls-3 {
        stroke: red;
        stroke-width: 2px;
      }

      .cls-3, .cls-4 {
        stroke-miterlimit: 10;
      }

      .cls-3, .cls-5 {
        fill: none;
      }

      .cls-6 {
        fill: url(#_未命名的渐变_4);
      }

      .cls-4 {
        fill: url(#_未命名的渐变_5-2);
        stroke: #000;
      }

      .cls-7 {
        fill: url(#_未命名的渐变_3-2);
      }

      .cls-8 {
        fill: url(#a2ed1d96-aebd-4bf9-a4b3-645f1ac);
      }

      .cls-9 {
        fill: url(#_未命名的渐变_7-2);
      }

      .cls-10 {
        fill: #d3d3d3;
      }

      .cls-11 {
        fill: url(#_未命名的渐变_2-2);
      }

      .cls-12 {
        fill: url(#_未命名的渐变_6-2);
      }

      .cls-13 {
        fill: url(#_未命名的渐变_6);
      }

      .cls-14 {
        fill: url(#_未命名的渐变_2);
      }

      .cls-15 {
        fill: url(#_未命名的渐变_3);
      }

      .cls-16 {
        fill: url(#_未命名的渐变_7);
      }
    </style>
    <pattern id="a2ed1d96-aebd-4bf9-a4b3-645f1ac" x="0" y="0" width="40" height="40" patternTransform="translate(161 -15583.24) scale(1 -1)" patternUnits="userSpaceOnUse" viewBox="0 0 40 40">
      <g>
        <rect class="cls-5" width="40" height="40"/>
        <g>
          <rect class="cls-5" width="40" height="40"/>
          <rect class="cls-5" width="40" height="40"/>
          <rect class="cls-10" y="20" width="20" height="20"/>
          <rect class="cls-10" x="20" width="20" height="20"/>
        </g>
      </g>
    </pattern>
    <linearGradient id="_未命名的渐变_7" data-name="未命名的渐变 7" x1=".98" y1="500.02" x2="2.03" y2="500.98" gradientTransform="translate(-499 -249999.01) scale(500)" gradientUnits="userSpaceOnUse">
      <stop offset="0" stop-color="#664166"/>
      <stop offset="1" stop-color="#685b68"/>
    </linearGradient>
    <linearGradient id="_未命名的渐变_2" data-name="未命名的渐变 2" x1="1.17" y1="499.88" x2="1.96" y2="501.02" gradientTransform="translate(31.73 -126791.83) scale(229.99 253.61)" gradientUnits="userSpaceOnUse">
      <stop offset="0" stop-color="#536a46"/>
      <stop offset="1" stop-color="#3c8764"/>
    </linearGradient>
    <linearGradient id="_未命名的渐变_3" data-name="未命名的渐变 3" x1="1.34" y1="499.9" x2="1.64" y2="501.08" gradientTransform="translate(187.54 -76469.27) scale(153.31)" gradientUnits="userSpaceOnUse">
      <stop offset="0" stop-color="#0ba25d" stop-opacity=".52"/>
      <stop offset="1" stop-color="#13bfa0" stop-opacity=".53"/>
    </linearGradient>
    <linearGradient id="_未命名的渐变_4" data-name="未命名的渐变 4" x1="1.38" y1="499.92" x2="1.67" y2="501.43" gradientTransform="translate(-133.49 -72304.49) scale(145.24 145.19)" gradientUnits="userSpaceOnUse">
      <stop offset="0" stop-color="#487647" stop-opacity=".71"/>
      <stop offset="1" stop-color="#1de1d1" stop-opacity=".35"/>
    </linearGradient>
    <linearGradient id="_未命名的渐变_5" data-name="未命名的渐变 5" x1="1.32" y1="499.9" x2="1.79" y2="501.52" gradientTransform="translate(-223.3 -115384.49) scale(233.2 230.97)" gradientUnits="userSpaceOnUse">
      <stop offset="0" stop-color="#dd2500" stop-opacity=".24"/>
      <stop offset="1" stop-color="#ff8a00" stop-opacity="0"/>
    </linearGradient>
    <linearGradient id="_未命名的渐变_6" data-name="未命名的渐变 6" x1=".99" y1="500" x2="2" y2="501" gradientTransform="translate(71 -176405) scale(129 353)" gradientUnits="userSpaceOnUse">
      <stop offset="0" stop-color="#bf2022" stop-opacity=".36"/>
      <stop offset="1" stop-color="#266d72" stop-opacity=".33"/>
    </linearGradient>
    <linearGradient id="_未命名的渐变_7-2" data-name="未命名的渐变 7" x1="1.98" x2="3.03" xlink:href="#_未命名的渐变_7"/>
    <linearGradient id="_未命名的渐变_2-2" data-name="未命名的渐变 2" x1="5.51" y1="499.88" x2="6.3" y2="501.02" xlink:href="#_未命名的渐变_2"/>
    <linearGradient id="_未命名的渐变_3-2" data-name="未命名的渐变 3" x1="11.12" x2="11.42" y2="501.08" xlink:href="#_未命名的渐变_3"/>
    <linearGradient id="_未命名的渐变_4-2" data-name="未命名的渐变 4" x1="8.26" y1="499.92" x2="8.55" y2="501.43" xlink:href="#_未命名的渐变_4"/>
    <linearGradient id="_未命名的渐变_5-2" data-name="未命名的渐变 5" x1="7.75" y1="499.9" x2="8.22" y2="501.52" xlink:href="#_未命名的渐变_5"/>
    <linearGradient id="_未命名的渐变_6-2" data-name="未命名的渐变 6" x1="16.48" y1="500" x2="17.5" y2="501" xlink:href="#_未命名的渐变_6"/>
  </defs>
  <g id="_图层_1" data-name="图层 1">
    <g id="_图层_1-2" data-name=" 图层 1">
      <rect class="cls-8" x="0" y="0" width="2500" height="500"/>
    </g>
    <path class="cls-16" d="M0,250v250H500V0H0V250Z"/>
    <path class="cls-14" d="M323,17.6c-33.3,4-61.1,7.3-61.9,7.3-1.6,.1-.1,1.7,42,45.1,15.1,15.7,63.5,65.7,107.4,111.2,44,45.5,80,82.6,80.2,82.5,.1-.2-21.8-54.5-48.8-120.8-27-66.2-50.2-123.2-51.6-126.7-2-5-2.9-6.2-4.7-6.1-1.1,.1-29.3,3.4-62.6,7.5Z"/>
    <path class="cls-15" d="M408.4,183.2c-17,1.4-32.8,9-46,22.2s-20.7,28.8-22.2,45.9c-2.1,24.9,5.1,45.2,22.2,62.3,13.2,13.2,28.8,20.7,45.9,22.2,24.9,2.1,45.2-5.1,62.3-22.2,13.2-13.2,20.7-28.8,22.2-45.9,2.1-24.9-5.1-45.2-22.2-62.3-17.1-17-37.3-24.3-62.2-22.2Z"/>
    <path class="cls-6" d="M76,289.1c-24.2,2-47.4,18.2-58,40.4-7.3,15.4-9.3,35-5,50.5,9.1,32.9,36.7,54,70.5,54,41,0,72.5-31.5,72.5-72.5,0-43.8-35.7-76.1-80-72.4Z"/>
    <path class="cls-1" d="M116,101.2c-45.7,3.1-86.2,34.7-101.1,78.5-4.3,12.9-6,23.2-6,37.8s1.7,24.9,6,37.6c4.9,14.7,13.4,29.2,23.8,40.8l4,4.5,7.4-3.6c11.6-5.7,20.6-7.8,33.4-7.8,27.2,0,50.3,13.4,63.7,37,1.7,3,3.2,5.6,3.3,5.8,.6,.8,20.9-6.5,27.5-9.8,32.5-16.4,55.7-47.3,62.5-83.4,.9-4.7,1.6-13.6,1.6-21.1s-.7-16.4-1.6-21.1c-8.9-46.8-44.1-83-91-93.5-7.6-1.7-22.9-2.5-33.5-1.7Z"/>
    <path class="cls-13" d="M199,270.5v176.5h129V94H199v176.5Z"/>
  </g>
  <g id="_图层_2" data-name="图层 2">
    <path class="cls-9" d="M500,250v250h500V0H500V250Z"/>
    <path class="cls-11" d="M1322,17.6c-33.3,4-61.1,7.3-61.9,7.3-1.6,.1-.1,1.7,42,45.1,15.1,15.7,63.5,65.7,107.4,111.2,44,45.5,80,82.6,80.2,82.5,.1-.2-21.8-54.5-48.8-120.8-27-66.2-50.2-123.2-51.6-126.7-2-5-2.9-6.2-4.7-6.1-1.1,.1-29.3,3.4-62.6,7.5Z"/>
    <path class="cls-7" d="M1907.4,183.2c-17,1.4-32.8,9-46,22.2-13.2,13.2-20.7,28.8-22.2,45.9-2.1,24.9,5.1,45.2,22.2,62.3,13.2,13.2,28.8,20.7,45.9,22.2,24.9,2.1,45.2-5.1,62.3-22.2,13.2-13.2,20.7-28.8,22.2-45.9,2.1-24.9-5.1-45.2-22.2-62.3-17.1-17-37.3-24.3-62.2-22.2Z"/>
    <path class="cls-2" d="M1075,289.1c-24.2,2-47.4,18.2-58,40.4-7.3,15.4-9.3,35-5,50.5,9.1,32.9,36.7,54,70.5,54,41,0,72.5-31.5,72.5-72.5,0-43.8-35.7-76.1-80-72.4Z"/>
    <path class="cls-4" d="M1615,101.2c-45.7,3.1-86.2,34.7-101.1,78.5-4.3,12.9-6,23.2-6,37.8s1.7,24.9,6,37.6c4.9,14.7,13.4,29.2,23.8,40.8l4,4.5,7.4-3.6c11.6-5.7,20.6-7.8,33.4-7.8,27.2,0,50.3,13.4,63.7,37,1.7,3,3.2,5.6,3.3,5.8,.6,.8,20.9-6.5,27.5-9.8,32.5-16.4,55.7-47.3,62.5-83.4,.9-4.7,1.6-13.6,1.6-21.1s-.7-16.4-1.6-21.1c-8.9-46.8-44.1-83-91-93.5-7.6-1.7-22.9-2.5-33.5-1.7Z"/>
    <path class="cls-12" d="M2198,270.5v176.5h129V94h-129v176.5Z"/>
    <rect class="cls-3" x="1489.5" y="38.5" width="289" height="408"/>
  </g>
</svg>