<?xml version="1.0" encoding="utf-8"?>
<!-- Generator: Adobe Illustrator 26.5.0, SVG Export Plug-In . SVG Version: 6.00 Build 0)  -->
<svg version="1.1" id="图层_1" xmlns="http://www.w3.org/2000/svg" xmlns:xlink="http://www.w3.org/1999/xlink" x="0px" y="0px"
	 viewBox="0 0 2495.5 500" style="enable-background:new 0 0 2495.5 500;" xml:space="preserve">
<style type="text/css">
	.st0{fill:none;}
	.st1{fill:#D3D3D3;}
	.st2{fill:url(#SVGID_00000080189629395518697680000010347425682834708615_);}
	.st3{fill:url(#SVGID_00000109020571084102296630000006853762690641705904_);}
	.st4{fill:url(#SVGID_00000098922907078182394820000007097833258093480094_);}
	.st5{fill:url(#SVGID_00000163790301844191207020000002425367324189784508_);}
	.st6{fill:url(#SVGID_00000067235380439013281000000016518618030802814879_);}
	.st7{fill:url(#SVGID_00000143615704966454048450000010485272992795593143_);}
	.st8{fill:url(#SVGID_00000055670514618754681110000005280091464247623570_);}
	.st9{fill:url(#SVGID_00000097465607787192647140000017874361917286662815_);}
	.st10{fill:url(#SVGID_00000129926385155110721690000013724821970838234508_);}
	.st11{fill:url(#SVGID_00000047020822275672759380000004087460446362343606_);}
	.st12{fill:url(#SVGID_00000003786337167880499730000008447667447817911187_);}
	.st13{fill:url(#SVGID_00000062157766073521142420000004646386318166418840_);}
	.st14{fill:url(#SVGID_00000092458019056513119130000011083071424052010115_);}
	.st15{fill:none;stroke:#000000;stroke-width:2;stroke-miterlimit:10;}
	.st16{fill:none;stroke:#FF0000;stroke-width:2;stroke-miterlimit:10;}
</style>
<pattern  y="500" width="40" height="40" patternUnits="userSpaceOnUse" id="SVGID_1_" viewBox="0 -40 40 40" style="overflow:visible;">
	<g>
		<rect y="-40" class="st0" width="40" height="40"/>
		<g>
			<rect y="-40" class="st0" width="40" height="40"/>
			<g>
				<rect y="-40" class="st0" width="40" height="40"/>
				<g>
					<rect y="-40" class="st0" width="40" height="40"/>
					<rect y="-40" class="st0" width="40" height="40"/>
					<rect y="-20" class="st1" width="20" height="20"/>
					<rect x="20" y="-40" class="st1" width="20" height="20"/>
				</g>
			</g>
		</g>
	</g>
</pattern>
<g id="_图层_1">
	<g id="_图层_1-2">
		
			<pattern  id="SVGID_00000176024293473269241120000000688095269544608420_" xlink:href="#SVGID_1_" patternTransform="matrix(1 0 0 -1 134.5 -33085.2422)">
		</pattern>
		<rect style="fill:url(#SVGID_00000176024293473269241120000000688095269544608420_);" width="2495.5" height="500"/>
	</g>
	
		<linearGradient id="SVGID_00000133529197543498445050000007829884730039274903_" gradientUnits="userSpaceOnUse" x1="325.8485" y1="501.1455" x2="326.8384" y2="502.1554" gradientTransform="matrix(500 0 0 500 -162923.5 -250577.0156)">
		<stop  offset="0" style="stop-color:#800000"/>
		<stop  offset="1" style="stop-color:#007F7F"/>
	</linearGradient>
	<path style="fill:url(#SVGID_00000133529197543498445050000007829884730039274903_);" d="M0,250v250h500V0H0V250z"/>
	
		<linearGradient id="SVGID_00000019661881691214147470000001624680915991939235_" gradientUnits="userSpaceOnUse" x1="324.4133" y1="503.7586" x2="325.2733" y2="504.8686" gradientTransform="matrix(151.23 0 0 151.3 -48877.4648 -76190.3594)">
		<stop  offset="0" style="stop-color:#752020"/>
		<stop  offset="1" style="stop-color:#4B3A3A"/>
	</linearGradient>
	<path style="fill:url(#SVGID_00000019661881691214147470000001624680915991939235_);" d="M242,38.1c-19.2,1.6-38.9,12.1-51.2,27.3
		c-6.4,8-12.4,19.9-14.9,29.3c-2.7,10.7-2.7,26.9,0,37.6c3.8,14.5,13.7,30.3,24.8,39.3c2.8,2.3,4.9,4.4,4.6,4.7
		c-0.7,0.8,8.1,5.7,10.1,5.7c0.9,0,3.1,0.7,4.7,1.6c10.8,5.5,33.6,7.2,48.2,3.5c14.9-3.9,30.4-13.8,39.9-25.5
		c11.3-14.1,16.9-29.9,16.9-48.1c0-13.5-2.3-23.3-8.1-34.4c-7.7-14.8-18.3-25.4-32.9-33C270.9,39.3,257.9,36.8,242,38.1z"/>
	
		<linearGradient id="SVGID_00000096776018829872898800000014029927142055560327_" gradientUnits="userSpaceOnUse" x1="324.6139" y1="501.7447" x2="325.2839" y2="502.8047" gradientTransform="matrix(162 0 0 315.1 -52273.5 -158000.0938)">
		<stop  offset="0" style="stop-color:#836868;stop-opacity:0.12"/>
		<stop  offset="1" style="stop-color:#0EFFFF;stop-opacity:0.2"/>
	</linearGradient>
	<path style="fill:url(#SVGID_00000096776018829872898800000014029927142055560327_);" d="M297.4,127.8l-3.1,0.3l-0.6,35.2
		c-0.4,19.4-0.7,90-0.7,156.9V442h162V126.9l-77.2,0.3C335.3,127.3,299.1,127.6,297.4,127.8z"/>
	
		<linearGradient id="SVGID_00000016773741180999015800000007255183703547057596_" gradientUnits="userSpaceOnUse" x1="325.0378" y1="503.3894" x2="325.7578" y2="504.6694" gradientTransform="matrix(230.3 0 0 171.57 -74855.9297 -86352.6016)">
		<stop  offset="0" style="stop-color:#244509;stop-opacity:0.81"/>
		<stop  offset="1" style="stop-color:#73D000;stop-opacity:0.26"/>
	</linearGradient>
	<path style="fill:url(#SVGID_00000016773741180999015800000007255183703547057596_);" d="M48.2,93.1c-21,45.8-38,83.4-37.9,83.6
		c0.4,0.4,229.9,6.4,230.3,6c0.3-0.2-147.4-165.7-153-171.5C86.5,10.1,79.2,25.3,48.2,93.1z"/>
	
		<linearGradient id="SVGID_00000111905097778371711790000013521296876758618041_" gradientUnits="userSpaceOnUse" x1="324.4593" y1="501.5756" x2="324.9393" y2="502.6155" gradientTransform="matrix(146.31 0 0 347.42 -47099.6367 -174276.625)">
		<stop  offset="0" style="stop-color:#DF0B10;stop-opacity:0.47"/>
		<stop  offset="1" style="stop-color:#AD005B;stop-opacity:0.31"/>
	</linearGradient>
	<path style="fill:url(#SVGID_00000111905097778371711790000013521296876758618041_);" d="M476.2,17.7
		c-1.7,4.3-32.3,82.5-68.1,173.7c-35.8,91.3-64.9,166.1-64.7,166.3c0.3,0.3,145.7-48.4,146.3-49.1c0.4-0.4-9.6-297.9-10.1-298.3
		C479.4,10,477.8,13.4,476.2,17.7L476.2,17.7z"/>
	
		<linearGradient id="SVGID_00000117646763391202126470000008169628738298491314_" gradientUnits="userSpaceOnUse" x1="324.7807" y1="503.4717" x2="325.1707" y2="504.6717" gradientTransform="matrix(161.2 0 0 161.32 -52302.3984 -80911.8672)">
		<stop  offset="0" style="stop-color:#96FF00;stop-opacity:0.25"/>
		<stop  offset="1" style="stop-color:#F8FF00;stop-opacity:0.24"/>
	</linearGradient>
	<path style="fill:url(#SVGID_00000117646763391202126470000008169628738298491314_);" d="M76,324.1c-10.3,0.9-19.1,3.4-28.3,7.9
		c-28.1,14-44.8,41.1-44.8,72.5c0,45.2,35.4,80.6,80.6,80.6s80.6-35.4,80.6-80.6c0-31.4-16.7-58.5-44.8-72.4
		C106.1,325.5,91.6,322.8,76,324.1z"/>
</g>
<g id="_图层_2">
	
		<linearGradient id="SVGID_00000147205811845463518680000009916423535544189606_" gradientUnits="userSpaceOnUse" x1="326.8485" y1="501.1455" x2="327.8384" y2="502.1554" gradientTransform="matrix(500 0 0 500 -162923.5 -250577.0156)">
		<stop  offset="0" style="stop-color:#800000"/>
		<stop  offset="1" style="stop-color:#007F7F"/>
	</linearGradient>
	<path style="fill:url(#SVGID_00000147205811845463518680000009916423535544189606_);" d="M500,250v250h500V0H500V250z"/>
	
		<linearGradient id="SVGID_00000181775651163843871360000006619111953127864983_" gradientUnits="userSpaceOnUse" x1="331.0216" y1="503.7599" x2="331.8917" y2="504.8699" gradientTransform="matrix(151.23 0 0 151.3 -48877.4648 -76190.3594)">
		<stop  offset="0" style="stop-color:#752020"/>
		<stop  offset="1" style="stop-color:#4B3A3A"/>
	</linearGradient>
	<path style="fill:url(#SVGID_00000181775651163843871360000006619111953127864983_);" d="M1242,38.1c-19.2,1.6-38.9,12.1-51.2,27.3
		c-6.4,8-12.4,19.9-14.9,29.3c-2.7,10.7-2.7,26.9,0,37.6c3.8,14.5,13.7,30.3,24.8,39.3c2.8,2.3,4.9,4.4,4.6,4.7
		c-0.7,0.8,8.1,5.7,10.1,5.7c0.9,0,3.1,0.7,4.7,1.6c10.8,5.5,33.6,7.2,48.2,3.5c14.9-3.9,30.4-13.8,39.9-25.5
		c11.3-14.1,16.9-29.9,16.9-48.1c0-13.5-2.3-23.3-8.1-34.4c-7.7-14.8-18.3-25.4-32.9-33C1270.9,39.3,1257.9,36.8,1242,38.1z"/>
	
		<linearGradient id="SVGID_00000002375833190644349540000004722631896966082220_" gradientUnits="userSpaceOnUse" x1="333.8734" y1="501.7451" x2="334.5433" y2="502.8049" gradientTransform="matrix(162 0 0 315.1 -52273.5 -158000.0938)">
		<stop  offset="0" style="stop-color:#836868;stop-opacity:0.12"/>
		<stop  offset="1" style="stop-color:#0EFFFF;stop-opacity:0.2"/>
	</linearGradient>
	<path style="fill:url(#SVGID_00000002375833190644349540000004722631896966082220_);" d="M1797.4,127.8l-3.1,0.3l-0.6,35.2
		c-0.4,19.4-0.7,90-0.7,156.9V442h162V126.9l-77.2,0.3C1835.3,127.3,1799.1,127.6,1797.4,127.8L1797.4,127.8z"/>
	
		<linearGradient id="SVGID_00000093895913089807625280000008130221265577806765_" gradientUnits="userSpaceOnUse" x1="331.5527" y1="503.3923" x2="332.2727" y2="504.6724" gradientTransform="matrix(230.3 0 0 171.57 -74855.9297 -86352.6016)">
		<stop  offset="0" style="stop-color:#244509;stop-opacity:0.81"/>
		<stop  offset="1" style="stop-color:#73D000;stop-opacity:0.26"/>
	</linearGradient>
	<path style="fill:url(#SVGID_00000093895913089807625280000008130221265577806765_);" d="M1548.2,93.1c-21,45.8-38,83.4-37.9,83.6
		c0.4,0.4,229.9,6.4,230.3,6c0.3-0.2-147.4-165.7-153-171.5C1586.5,10.1,1579.2,25.3,1548.2,93.1z"/>
	
		<linearGradient id="SVGID_00000062153179905678424550000014990987654709371832_" gradientUnits="userSpaceOnUse" x1="338.13" y1="501.5751" x2="338.61" y2="502.6151" gradientTransform="matrix(146.31 0 0 347.42 -47099.6367 -174276.625)">
		<stop  offset="0" style="stop-color:#DF0B10;stop-opacity:0.47"/>
		<stop  offset="1" style="stop-color:#AD005B;stop-opacity:0.31"/>
	</linearGradient>
	<path style="fill:url(#SVGID_00000062153179905678424550000014990987654709371832_);" d="M2476.2,16.7
		c-1.7,4.3-32.3,82.5-68.1,173.7c-35.8,91.3-64.9,166.1-64.7,166.3c0.3,0.3,145.7-48.4,146.3-49.1c0.4-0.4-9.6-297.9-10.1-298.3
		C2479.4,9,2477.8,12.4,2476.2,16.7L2476.2,16.7z"/>
	
		<linearGradient id="SVGID_00000022521331012229958500000015287289046374187136_" gradientUnits="userSpaceOnUse" x1="330.9893" y1="503.4722" x2="331.3693" y2="504.6722" gradientTransform="matrix(161.2 0 0 161.32 -52302.3984 -80911.8672)">
		<stop  offset="0" style="stop-color:#96FF00;stop-opacity:0.25"/>
		<stop  offset="1" style="stop-color:#F8FF00;stop-opacity:0.24"/>
	</linearGradient>
	<path style="fill:url(#SVGID_00000022521331012229958500000015287289046374187136_);" d="M1076,324.1c-10.3,0.9-19.1,3.4-28.3,7.9
		c-28.1,14-44.8,41.1-44.8,72.5c0,45.2,35.4,80.6,80.6,80.6s80.6-35.4,80.6-80.6c0-31.4-16.7-58.5-44.8-72.4
		C1106.1,325.5,1091.6,322.8,1076,324.1L1076,324.1z"/>
	<line class="st15" x1="499.5" y1="0" x2="499.5" y2="500"/>
	<line class="st15" x1="1000.5" y1="0" x2="1000.5" y2="500"/>
	<line class="st15" x1="2000.5" y1="0" x2="2000.5" y2="500"/>
	<line class="st15" x1="1501.5" y1="0" x2="1501.5" y2="500"/>
</g>
<rect x="136" y="77.7" class="st16" width="124" height="128.9"/>
</svg>
