<?xml version="1.0" encoding="utf-8"?>
<!-- Generator: Adobe Illustrator 27.0.0, SVG Export Plug-In . SVG Version: 6.00 Build 0)  -->
<svg version="1.1" xmlns="http://www.w3.org/2000/svg" xmlns:xlink="http://www.w3.org/1999/xlink" x="0px" y="0px"
	 viewBox="0 0 3985 709" style="enable-background:new 0 0 3985 709;" xml:space="preserve">
<style type="text/css">
	.st0{fill:none;}
	.st1{fill:#D3D3D3;}
	.st2{fill:url(#SVGID_00000126288465238632432520000012877179524652104376_);}
	.st3{fill:none;stroke:#000000;stroke-width:5;stroke-miterlimit:10;}
	.st4{fill:url(#region-1-1_00000162351756809564036740000012677480130493382579_);}
	.st5{fill:url(#region-1-2_00000033367936791830378770000010318781930729959576_);}
	.st6{fill:url(#region-1-3_00000040535731424291597410000006123638701088003974_);}
	.st7{fill:url(#region-1-4_00000091008564518474309480000016244101062265747865_);}
	.st8{fill:url(#region-1-5_00000034064977743010581600000005236010151493105840_);}
	.st9{fill:url(#region-1-6_00000068677149353608867380000013386358613237679802_);}
	.st10{fill:url(#region-2-1_00000029759871940596439470000004653554813958751124_);}
	.st11{fill:url(#region-2-2_00000172424779745549562180000013476343044056494496_);}
	.st12{fill:url(#region-2-3_00000163772006535077677830000011714936565529751453_);}
	.st13{fill:url(#region-2-4_00000007399227701611397800000006166852060824534674_);}
	.st14{fill:url(#region-2-5_00000080911333346282420070000011601455664290743704_);}
	.st15{fill:url(#region-2-6_00000105388116574763015200000002382062272614516131_);}
	.st16{fill:url(#region-2-7_00000134247766286005237000000012234374768395566761_);}
	.st17{fill:url(#region-2-8_00000155112847909818169680000010219365560410410890_);}
	.st18{fill:url(#region-2-9_00000052808962401814996850000011226353753652943013_);}
	.st19{fill:url(#region-2-10_00000173867777877830638310000003918560019592443534_);}
	.st20{fill:url(#region-2-11_00000150818114130612151900000005276955313757111447_);}
	.st21{fill:url(#region-2-12_00000016055360434170803320000012294123554956224669_);}
	.st22{fill:url(#region-3-1_00000039832579429338177590000000127234174080289684_);}
	.st23{fill:url(#region-3-2_00000109709882088669771870000004151856187228894872_);}
	.st24{fill:url(#region-3-3_00000178914509991878237040000010494361680161204925_);}
	.st25{fill:url(#region-4-1_00000134222872117255212120000005183595269018946468_);}
	.st26{fill:url(#region-1-1_00000158006128530371681450000017066148941234699958_);}
	.st27{fill:url(#region-1-2_00000127748458384403814160000015374889861166912906_);}
	.st28{fill:url(#region-1-3_00000075867511677427618020000017099227557753971591_);}
	.st29{fill:url(#region-1-4_00000175291447394828288830000011731497462062864004_);}
	.st30{fill:url(#region-1-5_00000014621248480173446420000008659426779336944269_);}
	.st31{fill:url(#region-1-6_00000001642247764111737320000010052200036793843854_);}
	.st32{fill:url(#region-2-1_00000057132353223289123050000016368870586675359401_);stroke:#000000;stroke-miterlimit:10;}
	.st33{fill:url(#region-2-2_00000121999684657117587730000012644920964972222639_);stroke:#000000;stroke-miterlimit:10;}
	.st34{fill:url(#region-2-3_00000063614030806589047240000007740876642717173419_);stroke:#000000;stroke-miterlimit:10;}
	.st35{fill:url(#region-2-4_00000113316930726082061370000012490772388507713421_);stroke:#000000;stroke-miterlimit:10;}
	.st36{fill:url(#region-2-5_00000038374592123384123070000001128501270596747905_);stroke:#000000;stroke-miterlimit:10;}
	.st37{fill:url(#region-2-6_00000110437077777733847290000005059508787635652258_);stroke:#000000;stroke-miterlimit:10;}
	.st38{fill:url(#region-2-7_00000097486070201961779580000010644425284864350627_);stroke:#000000;stroke-miterlimit:10;}
	.st39{fill:url(#region-2-8_00000109718954661120533730000018300059580002640794_);stroke:#000000;stroke-miterlimit:10;}
	.st40{fill:url(#region-2-9_00000085232983655581554230000003686916699784478116_);stroke:#000000;stroke-miterlimit:10;}
	.st41{fill:url(#region-2-10_00000169539824359902820230000006872952321679283899_);stroke:#000000;stroke-miterlimit:10;}
	.st42{fill:url(#region-2-11_00000070081292247366194830000011306054962845471166_);stroke:#000000;stroke-miterlimit:10;}
	.st43{fill:url(#region-2-12_00000117674652452593632060000015553103337693776792_);stroke:#000000;stroke-miterlimit:10;}
	.st44{fill:url(#region-3-1_00000034078861856668272510000002843392434247849627_);stroke:#000000;stroke-miterlimit:10;}
	.st45{fill:url(#region-3-2_00000150790583932640509100000014293567414871105964_);stroke:#000000;stroke-miterlimit:10;}
	.st46{fill:url(#region-3-3_00000132801172835547155220000000974623184419057314_);stroke:#000000;stroke-miterlimit:10;}
	.st47{fill:url(#region-4-1_00000096049325364228151440000003191728446369713322_);stroke:#000000;stroke-miterlimit:10;}
</style>
<pattern  width="40" height="40" patternUnits="userSpaceOnUse" id="SVGID_1_" viewBox="0 -40 40 40" style="overflow:visible;">
	<g>
		<rect y="-40" class="st0" width="40" height="40"/>
		<g>
			<rect y="-40" class="st0" width="40" height="40"/>
			<rect y="-40" class="st0" width="40" height="40"/>
			<rect y="-20" class="st1" width="20" height="20"/>
			<rect x="20" y="-40" class="st1" width="20" height="20"/>
		</g>
	</g>
</pattern>
<g id="图层_1">
	<g id="图层_1_00000015316622078413379080000000961724766797632903_">
		
			<pattern  id="SVGID_00000022549854033407695480000015536169995150531261_" xlink:href="#SVGID_1_" patternTransform="matrix(1 0 0 -1 -187 -13431.2402)">
		</pattern>
		<rect style="fill:url(#SVGID_00000022549854033407695480000015536169995150531261_);" width="3985" height="709"/>
	</g>
	<g id="图层_3">
	</g>
</g>
<g id="图层_2">
	<line class="st3" x1="791.5" y1="0" x2="791.5" y2="709.5"/>
	<line class="st3" x1="1639.5" y1="0" x2="1639.5" y2="709.5"/>
	<line class="st3" x1="2443.7" y1="0.6" x2="2443.5" y2="710.5"/>
	<line class="st3" x1="3264" y1="0.4" x2="3264" y2="709.9"/>
	<g id="layer-1">
		
			<linearGradient id="region-1-1_00000011006721650481357250000013505515394436018614_" gradientUnits="userSpaceOnUse" x1="-1004.41" y1="737.5747" x2="-1003.1852" y2="737.5024" gradientTransform="matrix(382.5659 0 0 689.8447 384611.1562 -508435.875)">
			<stop  offset="0" style="stop-color:#922A22;stop-opacity:0.992"/>
			<stop  offset="1" style="stop-color:#A87576;stop-opacity:0.992"/>
		</linearGradient>
		<path id="region-1-1" style="fill:url(#region-1-1_00000011006721650481357250000013505515394436018614_);" d="M572.4,9.5
			c-10.5,1.1-25.2,4.5-28.5,6.7c-1.1,0.7-2.5,1.3-3.2,1.3s-6.4,3.3-12.6,7.3c-6.1,4-12.8,8.3-14.7,9.4c-1.9,1.2-5.1,3.8-7,5.9
			c-1.9,2-5.3,5-7.5,6.6c-9,6.6-15.5,13.1-15,14.9c0.4,1.3-0.8,2.8-4.5,5.6c-4.5,3.3-7.6,6.8-15.4,17.7c-1.1,1.5-4.6,6-7.8,9.9
			c-3.1,4-6.5,8.8-7.4,10.7c-0.9,1.9-2.4,4.4-3.4,5.5c-4.6,5.2-13.1,21.6-14.4,27.6c-0.3,1.4-1.5,3.6-2.6,4.9c-1.1,1.3-2,3.1-2,4
			c0,1-0.6,2.3-1.4,2.9c-0.7,0.6-1.9,3.3-2.6,5.9c-0.7,2.6-2.3,5.7-3.6,6.9c-1.2,1.2-2.5,3.6-2.9,5.3c-0.4,1.7-1.3,4.3-2.1,5.8
			c-0.8,1.5-1.4,3.5-1.4,4.5s-0.7,2-1.5,2.3c-0.8,0.4-1.3,0.9-1.1,1.3c0.6,0.9-4.1,14.8-9.4,28.1c-2.4,5.7-4.2,11.5-4.2,12.7
			c0,1.3-0.4,2.3-0.9,2.3s-0.9,0.7-0.9,1.5c0,0.9-0.7,3-1.6,4.6c-0.8,1.7-2.4,6.5-3.5,10.7c-1,4.2-2.6,8-3.3,8.4
			c-0.9,0.5-1.8,3.3-2.2,6.6c-0.3,3.1-1.3,7.4-2.1,9.5c-0.9,2-1.3,5-1.1,6.7c0.2,1.6,0.1,2.7-0.4,2.4c-1-0.6-0.9-0.9-1.3,9.6
			c-0.1,4.7-0.8,9.8-1.4,11.3c-0.6,1.6-1.1,5.2-1.1,8.1s-0.3,5.6-0.7,6c-0.4,0.3-0.8,3-1,5.8c-0.2,2.8-0.7,5.6-1.2,6.2
			c-2.7,3.3-6.2,60.6-4.2,68.3c0.6,2.4,1.5,6,2,8c0.5,2.1,1.5,16.8,2.1,32.8c0.7,15.9,1.6,29.4,2,30c0.4,0.5,1,3.4,1.4,6.3
			c0.9,7.3,4,19,6,23.2c1.3,2.8,1.4,3.1,0.1,1.6c-1.5-2-1.5-2-1.5,0.1c0,1.1,0.5,3.3,1,4.9c0.6,1.6,1.9,7.4,2.9,12.9
			c3.3,17.6,9.9,41.6,15,54.5c8.8,22.6,10.3,26.9,9.5,28.1c-0.4,0.7-0.3,0.9,0.3,0.6c0.6-0.4,1.4,0.5,1.7,2.1
			c0.4,1.5,1.8,4.9,3.2,7.5c1.4,2.6,2.2,5.3,1.8,5.9c-0.4,0.6-0.3,0.8,0.3,0.5c0.5-0.3,2,1.5,3.3,4.1c2,4.2,6.7,11.9,8,13.2
			c0.7,0.7,2.9,4.2,3.7,6c0.4,0.8,1.7,2.6,3,4s2.3,2.8,2.3,3.1c0,1.9,29.2,31.9,30.9,31.9c0.6,0,3.1,1.5,5.5,3.4
			c2.4,1.8,5.8,4,7.5,4.7c1.7,0.8,3.1,1.7,3.1,2.1c0,0.5,0.6,0.8,1.4,0.8c0.7,0,1.9,0.7,2.6,1.5c0.7,0.8,3,2,5.1,2.7
			c2.2,0.6,3.9,1.5,3.9,2c0,0.4,0.8,0.8,1.8,0.8c0.9,0,3,0.7,4.6,1.5c1.5,0.8,3.9,1.5,5.2,1.5c1.3,0,2.4,0.4,2.4,0.9
			s2.1,1.2,4.8,1.6c2.6,0.4,5.3,1.2,6.1,1.8c1.9,1.6,39.9,1.6,40.9,0c0.4-0.6,2.8-1.4,5.5-1.8c2.6-0.4,5-1.1,5.3-1.6
			s1.8-0.9,3.4-0.9c1.6,0,3.1-0.4,3.5-0.9c0.3-0.5,1.9-1.2,3.5-1.6c1.7-0.4,3-1.1,3-1.6s0.6-0.9,1.4-0.9c1.9,0,5.1-1.4,10.1-4.5
			c2.2-1.3,5.5-3.2,7.3-4.1c1.7-1,3.2-2.1,3.2-2.6c0-0.4,0.7-0.8,1.5-0.8s1.5-0.4,1.5-0.8c0-0.4,1.5-1.6,3.3-2.7
			c3.5-2,8-5.9,13.9-11.8c2-2,4-3.7,4.3-3.7c0.8,0,1.1-0.4,10.5-11c4.1-4.7,8.3-9.2,9.3-10.1c0.9-0.9,1.7-2.1,1.7-2.8
			c0-0.6,0.4-1.1,1-1.1c0.5,0,1.7-1.5,2.6-3.3c0.9-1.7,3.2-4.8,5-6.7c1.9-1.9,3.4-4,3.4-4.6c0-0.6,1.4-2.9,3.1-5
			c1.7-2.2,4.1-5.6,5.2-7.7c1.2-2.1,3.4-6,5-8.5c1.5-2.6,3-5.5,3.3-6.5c0.4-0.9,1-1.7,1.4-1.7c0.4,0,1.1-1.1,1.4-2.5
			c0.4-1.4,1.1-2.5,1.6-2.5c0.6,0,1-1.3,1-2.9c0-1.6,0.6-3.1,1.5-3.5c0.8-0.3,1.5-1.2,1.5-2.1c0-0.8,0.4-1.5,0.8-1.5
			c0.5,0,1.5-1.9,2.2-4.3c0.8-2.3,1.9-4.9,2.6-5.7s1.6-2.7,1.9-4.3c0.4-1.5,1-2.7,1.4-2.7c0.4,0,1.5-2.7,2.5-6s2.2-6,2.7-6
			s0.9-0.8,0.9-1.8c0-0.9,0.6-2.8,1.3-4.2s1.9-4.5,2.7-7c0.7-2.5,1.7-5,2-5.5c0.4-0.6,1.5-3.5,2.5-6.5c0.9-3,2.1-6.3,2.6-7.2
			c0.5-1,0.9-2.5,0.9-3.4s0.6-2.8,1.4-4.2c2-4.1,4.6-12.7,4.6-15.5c0-1.4,0.4-2.8,0.9-3.2c0.6-0.3,1.3-2.6,1.7-5
			c0.3-2.5,1-4.5,1.4-4.5c0.4,0,1.5-4.6,2.5-10.3c0.9-5.6,2.1-10.7,2.5-11.2c0.4-0.6,1.1-3.3,1.5-6c0.4-2.8,1-5.2,1.5-5.5
			c0.4-0.3,1.5-6.6,2.4-14c1-7.4,2.1-13.9,2.7-14.5c0.5-0.5,0.9-2.7,0.9-5c0.1-2.2,0.6-6,1.1-8.5c1-4.4,1.9-11.7,3.9-35
			c0.5-6.3,1.4-16,1.9-21.5c1.3-13.1,1.3-46.9,0-56.5c-0.5-4.1-1.4-14.5-2-23c-1.7-26-2.6-36.3-3.8-40.5c-0.6-2.2-1.1-5.9-1.1-8.2
			c0-2.3-0.4-4.4-0.9-4.7c-0.4-0.3-1.6-5.6-2.6-11.8c-1-6.2-2.2-11.8-2.6-12.4c-0.5-0.6-1.2-3.2-1.5-5.8c-0.4-2.5-1-4.6-1.3-4.6
			c-0.4,0-1.5-4.3-2.6-9.5c-1-5.2-2.2-9.5-2.6-9.5c-0.4,0-1-1.8-1.4-4c-0.4-2.2-1.1-4-1.6-4s-0.9-1-0.9-2.1c0-2.6-3.2-12.3-4.2-12.7
			c-0.5-0.2-0.8-1.1-0.8-2.1c0-0.9-0.7-2.6-1.5-3.7c-0.8-1-1.5-2.7-1.5-3.7c0-0.9-0.4-2.5-0.9-3.5c-0.5-0.9-2.1-4.4-3.6-7.7
			c-1.5-3.3-3.8-8-5.1-10.5c-1.3-2.5-3.1-6.2-4-8.3c-0.9-2-2-3.7-2.5-3.7s-0.9-0.6-0.9-1.3c0-0.8-1.1-2.7-2.5-4.3
			c-1.4-1.6-2.5-3.4-2.5-4.1s-1.3-2.6-3-4.3c-1.6-1.7-3-3.6-3-4.3c0-0.7-2.1-3.4-4.5-6.1c-2.5-2.7-4.5-5.2-4.5-5.7
			c0-0.8-15.2-16.3-18.6-18.9c-1-0.8-3.9-3.1-6.4-5c-2.4-1.9-5.8-4.7-7.5-6.3c-1.6-1.5-3.9-3-5-3.3c-1.1-0.4-2.8-1.4-3.7-2.3
			c-2.8-2.6-4.7-4.1-5.3-4.1c-0.3,0-4.3-1.7-8.8-3.8c-4.5-2.2-11.3-4.7-15.2-5.7c-3.8-1-7.4-2.1-8-2.5
			C600.3,9.4,580.7,8.7,572.4,9.5z"/>
		
			<linearGradient id="region-1-2_00000098916847754471492930000007749420980207111584_" gradientUnits="userSpaceOnUse" x1="-1004.3569" y1="737.6837" x2="-1002.9767" y2="737.4783" gradientTransform="matrix(371.2282 0 0 593.7311 372988.0312 -437588.8438)">
			<stop  offset="0" style="stop-color:#D52E21;stop-opacity:0.99"/>
			<stop  offset="1" style="stop-color:#ED7867;stop-opacity:0.997"/>
		</linearGradient>
		<path id="region-1-2" style="fill:url(#region-1-2_00000098916847754471492930000007749420980207111584_);" d="M530.4,21.8
			c-1.4,0.6-2.7,1.4-3,1.7c-0.7,0.7-3.8,2.6-8.4,5.1c-2.2,1.2-4.6,2.8-5.4,3.5c-0.7,0.8-1.8,1.4-2.3,1.4c-0.9,0-3,1.6-8.8,6.7
			c-2,1.8-3.9,3.3-4.3,3.3s-2.2,1.6-4.1,3.5c-1.9,1.9-3.9,3.5-4.6,3.5c-0.6,0-1.1,0.4-1.1,0.8c0,1.3-5.6,7.2-6.8,7.2
			c-0.6,0-1.4,1.1-1.8,2.5c-0.3,1.4-1.8,3.2-3.3,4.1c-1.4,0.9-4.4,4.1-6.6,7.1c-2.2,3.1-5.9,7.6-8.2,10.1c-2.4,2.5-4.3,5.2-4.3,5.9
			c0,0.7-0.4,1.3-1,1.3c-0.5,0-1,0.7-1,1.5c0,0.8-0.4,1.5-1,1.5c-0.5,0-1.7,1.4-2.5,3.1c-0.9,1.7-3.2,5.1-5.1,7.6
			c-1.9,2.4-3.7,5.5-4,6.9c-0.3,1.3-0.9,2.4-1.3,2.4s-2.3,3-4.2,6.7c-1.8,3.8-3.7,7-4,7.3c-0.3,0.3-1.4,2.1-2.3,4.1s-2.8,4.2-4.2,5
			c-1.4,0.7-3.6,2.5-4.8,3.9c-1.2,1.4-4,3.4-6.1,4.4c-2.2,1.1-5.4,3-7.2,4.3c-1.7,1.3-3.6,2.3-4.2,2.3c-1.4,0-7.1,3.4-7.1,4.2
			c0,0.5-0.7,0.8-1.5,0.8c-0.8,0-1.5,0.4-1.5,1c0,0.5-1.1,1-2.5,1c-1.4,0-2.5,0.4-2.5,1c0,0.5-0.6,1-1.3,1c-0.8,0-2.4,0.9-3.7,2
			c-1.3,1.1-2.9,2-3.7,2c-0.7,0-1.3,0.4-1.3,1c0,0.5-0.9,1-1.9,1c-2,0-7.5,2.6-9.7,4.5c-0.6,0.6-3.1,1.7-5.5,2.5
			c-2.4,0.8-5,2-5.7,2.7s-2.2,1.3-3.3,1.3c-1.1,0-2.6,0.6-3.4,1.3c-0.7,0.7-3.8,1.9-6.9,2.7c-3.1,0.7-5.6,1.7-5.6,2.2
			c0,0.4-1,0.8-2.3,0.8c-1.2,0-4.8,0.9-8,2c-3.1,1.1-6.8,2-8.2,2c-1.5,0-4.7,0.9-7.3,2c-2.6,1-6.3,2.2-8.2,2.5
			c-13.6,2.4-28.1,4.4-31,4.5c-2,0-4,0.4-4.5,0.9c-2,1.9-13.2,4.1-17.7,3.5c-3.2-0.4-4.8-0.2-5.9,0.8c-0.8,0.8-4.5,2.5-8.3,3.9
			c-5.2,1.8-8.3,3.7-12.2,7.4c-2.8,2.7-9.1,8.8-13.9,13.5c-8.8,8.5-18.7,21.8-23.9,32.1c-1.6,3-4.3,8.3-6.2,11.9
			c-1.9,3.5-3.4,7.1-3.4,8c0,1.8-3.8,14.7-5.1,17.3c-0.5,1-1.4,4.9-1.8,8.8c-0.5,3.8-1.6,8.1-2.5,9.4c-1.8,2.8-2.1,5.2-0.6,5.7
			c1,0.3,0.4,3.1-3.1,14.5c-0.6,1.8-0.8,5.2-0.5,7.5c0.3,2.4,0.8,7.1,1.1,10.6c0.2,3.4,0.9,9.1,1.4,12.5c0.6,3.4,1.2,7.8,1.5,9.7
			c0.8,6.2,2.8,14.5,3.5,15c0.4,0.3,1.8,2.3,3.1,4.5c1.3,2.2,3,4.4,3.7,4.8c0.7,0.4,1.3,1.4,1.3,2.2c0,0.7,0.3,1.5,0.8,1.7
			c0.4,0.1,1.8,2.5,3.1,5.3c1.3,2.7,3.9,7.3,5.6,10c1.8,2.8,4,6.9,5.1,9c1,2.2,4.5,6.7,7.7,9.9c3.2,3.3,6.9,7.2,8.1,8.7
			c3,3.5,11.9,9.9,13.9,9.9c0.9,0,1.8,0.4,2.1,0.9s2.2,1.2,4.2,1.6c2,0.3,4.6,1.2,5.8,1.9c1.2,0.8,4.9,1.9,8.4,2.7
			c3.4,0.7,6.2,1.7,6.2,2.1c0,0.4,1.8,1.1,4,1.4c2.2,0.4,4,1,4,1.5s1.3,0.9,2.9,0.9c1.7,0,3.2,0.4,3.5,0.9c0.3,0.5,2.1,1.2,4,1.5
			c1.9,0.4,5.4,1.7,7.8,2.9c2.3,1.2,6.1,2.8,8.3,3.6c2.2,0.7,4.7,1.9,5.5,2.5c2.1,1.7,12,6.6,13.3,6.6c1.2,0,10.4,5.7,13.1,8.2
			c1.1,1,2.6,1.8,3.3,1.8c0.8,0,1.6,0.7,1.9,1.5c0.4,0.8,1,1.3,1.4,1c0.4-0.3,2.4,0.6,4.4,2s4.3,2.5,5.1,2.5c0.8,0,1.5,0.4,1.5,1
			c0,0.5,0.6,1,1.3,1c0.8,0,2.4,0.9,3.7,2c3,2.6,3.4,2.5,5.4-0.5c1.3-2,2.5-2.5,6-2.5c4.6,0,15.8,2,16.6,2.9
			c1.6,1.9,8.5,4.4,12.3,4.5l4.5,0.1l1.2,6c1.3,6.9,2,9.7,6.2,25c1.6,6,3.2,12.1,3.5,13.5s1.1,3.9,1.9,5.7c0.8,1.7,1.4,3.8,1.4,4.7
			c0,0.9,0.4,1.6,0.9,1.6s1.2,1,1.6,2.2c1.8,6.8,2.9,9.8,3.7,9.8c0.4,0,0.8,0.6,0.8,1.2c0,0.7,0.6,2.5,1.4,3.9
			c0.7,1.4,1.6,3.7,2,5.2c0.3,1.5,1.1,2.7,1.7,2.7s0.8,0.4,0.5,0.9c-0.7,1,8.1,18.8,9.6,19.8c0.6,0.3-0.6-2.5-2.5-6.3
			c-2-3.8-5.4-12.1-7.7-18.4c-2.3-6.3-6.4-17.1-9.1-24c-5.1-12.8-11.7-36.8-15-54.5c-1-5.5-2.3-11.3-2.9-12.9c-0.5-1.6-1-3.8-1-4.9
			c0-2.1,0-2.1,1.5-0.1c1.3,1.5,1.2,1.2-0.1-1.6c-2-4.2-5.1-15.9-6-23.2c-0.4-2.9-1-5.8-1.4-6.3c-0.4-0.6-1.3-14.1-2-30
			c-0.6-16-1.6-30.8-2.1-33c-0.6-2.2-1.5-5.8-2.1-8c-1.9-7.5,1.7-64.9,4.3-68.1c0.5-0.6,1-3.4,1.2-6.2c0.2-2.8,0.6-5.5,1-5.8
			c0.4-0.4,0.7-3.1,0.7-6s0.5-6.5,1.1-8.1c0.6-1.5,1.3-6.6,1.4-11.3c0.4-10.5,0.3-10.2,1.3-9.6c0.5,0.3,0.6-0.8,0.4-2.4
			c-0.2-1.7,0.2-4.7,1.1-6.7c0.8-2.1,1.8-6.4,2.1-9.5c0.4-3.3,1.3-6.1,2.2-6.6c0.7-0.4,2.3-4.2,3.3-8.4c1.1-4.2,2.7-9,3.5-10.7
			c0.9-1.6,1.6-3.7,1.6-4.6c0-0.8,0.4-1.5,0.9-1.5s0.9-1,0.9-2.3c0-1.2,1.8-7,4.2-12.7c5.3-13.3,10-27.2,9.4-28.1
			c-0.2-0.4,0.3-0.9,1.1-1.3c0.8-0.3,1.5-1.3,1.5-2.3s0.6-3,1.4-4.5c0.8-1.5,1.7-4.1,2.1-5.8c0.4-1.7,1.7-4.1,2.9-5.3
			c1.3-1.2,2.9-4.3,3.6-6.9c0.7-2.6,1.9-5.3,2.6-5.9c0.8-0.6,1.4-1.9,1.4-2.9c0-0.9,0.9-2.7,2-4c1.1-1.3,2.3-3.5,2.6-4.9
			c1.3-6,9.8-22.4,14.4-27.6c1-1.1,2.5-3.6,3.4-5.5c0.9-1.9,4.3-6.7,7.4-10.7c3.2-3.9,6.7-8.4,7.8-9.9c7.8-10.9,10.9-14.4,15.4-17.7
			c3.7-2.8,4.9-4.3,4.5-5.6c-0.4-1.3,1.2-3.2,5.5-7.1c3.2-2.9,7-5.9,8.2-6.8c1.3-0.8,4.8-3.9,7.8-6.7c3-2.9,9.1-7.5,13.5-10.2
			C533.4,21.7,537.7,18.4,530.4,21.8z"/>
		
			<linearGradient id="region-1-3_00000127733648711312041450000005640920249725726338_" gradientUnits="userSpaceOnUse" x1="-998.1345" y1="737.4073" x2="-996.8981" y2="738.1195" gradientTransform="matrix(111.8 0 0 118.9023 111729.8047 -87461.8281)">
			<stop  offset="0" style="stop-color:#AC3921"/>
			<stop  offset="1" style="stop-color:#764357"/>
		</linearGradient>
		<path id="region-1-3" style="fill:url(#region-1-3_00000127733648711312041450000005640920249725726338_);" d="M235.4,199.2
			c-3.5,0.2-6.9,0.8-7.5,1.2c-0.5,0.4-3.7,1.3-7,2c-3.3,0.7-7.6,2.1-9.5,3c-1.9,1-5.4,2.4-7.7,3.1c-2.4,0.7-4.3,1.7-4.3,2.2
			c0,0.4-0.6,0.8-1.3,0.8c-0.8,0-2.7,1.1-4.3,2.5c-1.6,1.4-3.7,2.8-4.7,3.1c-1,0.3-2.9,1.6-4.2,3c-1.3,1.3-3.3,2.4-4.4,2.4
			c-1.1,0-2.5,0.9-3.1,1.9c-0.5,1.1-1.6,2.5-2.3,3.3c-1.9,2-4.7,6.6-4.7,7.8c0,0.5-1.6,3.2-3.5,5.9c-1.9,2.6-3.8,6.4-4.1,8.2
			c-0.6,2.9-2.1,6.1-7.2,15.4c-2.5,4.6-4.5,18.9-2.1,15.5c1.6-2.3,0,4.7-2.2,9.6c-1.3,3-2,7.4-2.3,15.5l-0.4,11.4l8.1,0.3l8.2,0.3
			l1.9-3.1c1-1.7,2.2-6.3,2.7-10c0.4-3.8,1.3-7.7,1.8-8.7c1.3-2.6,5.1-15.5,5.1-17.3c0-0.9,1.5-4.5,3.4-8c1.9-3.6,4.6-8.9,6.2-11.9
			c5.2-10.3,15.1-23.6,23.9-32.1c4.8-4.7,11.1-10.8,13.9-13.5c3.9-3.7,7-5.6,12.2-7.4c3.8-1.4,7.5-3.1,8.3-3.9c1-1,2.7-1.2,5.8-0.8
			c4.7,0.6,10.3-0.2,10.3-1.5C260.4,198.5,249.2,198.5,235.4,199.2z"/>
		
			<linearGradient id="region-1-4_00000031929506392096492370000003482491486964637342_" gradientUnits="userSpaceOnUse" x1="-999.5352" y1="737.2065" x2="-998.3257" y2="738.0699" gradientTransform="matrix(133.666 0 0 175.1109 133651.7188 -128866.5391)">
			<stop  offset="0" style="stop-color:#D86862;stop-opacity:0.993"/>
			<stop  offset="1" style="stop-color:#AE362A;stop-opacity:0.996"/>
		</linearGradient>
		<path id="region-1-4" style="fill:url(#region-1-4_00000031929506392096492370000003482491486964637342_);" d="M177.4,220.5
			c-3.6,0.4-17.3,1.1-30.5,1.5c-13.2,0.3-26,1.1-28.5,1.6c-4.5,1-21.2,8.7-21.8,10.1c-0.2,0.5-0.9,0.8-1.6,0.8
			c-0.6,0-1.9,0.8-2.7,1.7c-0.9,1-4.8,4.3-8.7,7.3c-4,3-7.2,6.1-7.2,6.8c0,0.7-0.7,1.5-1.5,1.8c-0.8,0.3-2.9,2.9-4.7,5.7
			c-1.8,2.9-3.6,5.3-4,5.5c-0.5,0.2-0.8,1-0.8,1.7c0,0.8-0.6,1.8-1.3,2.2c-0.6,0.4-1.8,2.6-2.6,4.8c-1.6,4.7-3.5,9.5-6.1,15
			c-3,6.3-4,13.5-3.9,28.8c0,16.6,2.2,36.1,4,37.3c0.5,0.3,0.9,1.3,0.9,2.2c0,0.9,1.4,4.4,3,7.6c1.7,3.2,3,6.7,3,7.8
			c0,1,1,2.9,2.3,4.1c1.2,1.2,3.1,3.5,4.2,5.2c4.4,6.9,12.3,11.4,20,11.5c1.7,0,3.5,0.4,4.1,1c0.5,0.5,3.8,1.3,7.2,1.6l6.2,0.7
			v-12.2c0-7.1-0.4-12.1-1-12.1c-0.5,0-0.9-5-0.8-12.5c0.1-6.9,0.4-12.5,0.8-12.5c0.3,0,1.4-1.4,2.3-3c1-1.7,2.5-3,3.4-3
			c1,0,1.3-0.6,0.9-1.6c-1.1-2.8,1.3-4.4,6.4-4.4c4.3,0,5.3-0.5,9.6-4.5c3.2-3.1,5.6-4.5,7.5-4.5c2.8,0,6.9-3.9,6.9-6.6
			c0-1.4,1.1-1.8,4.1-1.5c1.9,0.2,3.1-6.6,2.8-15.9c-0.1-3.7,0.5-7,1.8-10c2.4-5.2,4.1-12.4,2.4-10c-2.4,3.4-0.4-10.9,2.1-15.5
			c5.1-9.3,6.6-12.5,7.2-15.4c0.3-1.8,2.2-5.6,4.1-8.2c1.9-2.7,3.5-5.4,3.5-5.9c0-1.2,2.8-5.8,4.7-7.8c0.7-0.8,1.8-2.2,2.3-3.3
			c0.6-1,1.9-1.9,2.8-1.9c1,0,2.7-0.7,3.8-1.5c1-0.8,1.5-1.4,0.9-1.3C184.4,219.7,181,220.1,177.4,220.5z"/>
		
			<linearGradient id="region-1-5_00000147203033983241789800000014295339069202456200_" gradientUnits="userSpaceOnUse" x1="-1003.0623" y1="737.6125" x2="-1001.9841" y2="737.5596" gradientTransform="matrix(252.7726 0 0 291.1069 253645.0938 -214259.2031)">
			<stop  offset="0" style="stop-color:#B75045"/>
			<stop  offset="1" style="stop-color:#5F050E"/>
		</linearGradient>
		<path id="region-1-5" style="fill:url(#region-1-5_00000147203033983241789800000014295339069202456200_);" d="M143.7,316.2
			c-0.7,0.3-1.3,1-1.3,1.7c0,2.7-4.1,6.6-6.9,6.6c-1.9,0-4.3,1.4-7.5,4.5c-4.3,4-5.3,4.5-9.6,4.5c-5.1,0-7.5,1.6-6.4,4.4
			c0.4,1,0.1,1.6-0.9,1.6c-0.9,0-2.4,1.3-3.4,3c-0.9,1.6-2,3-2.3,3c-0.4,0-0.7,5.6-0.8,12.5c-0.1,7.5,0.3,12.5,0.8,12.5
			c1.6,0,1.3,23.7-0.2,24.4c-1,0.5-1,0.7,0,1.2c0.6,0.3,1.2,1.8,1.2,3.4s0.4,3,1,3.2c0.5,0.2,1.2,7.8,1.6,17.8
			c0.3,9.6,0.9,18.4,1.4,19.5c0.8,2.1,2.8,29,3.5,49.5c0.3,6.3,0.9,16,1.5,21.5c0.5,5.5,1.4,14.3,2,19.5c0.5,5.2,1.6,18.3,2.5,29
			c1.3,15.9,1.9,19.8,3.3,20.9c1.3,1,1.4,1.4,0.4,1.8c-1.4,0.5,19.2,12.3,21.5,12.3c0.7,0,1.3,0.4,1.3,1c0,0.5,0.4,1,0.9,1
			s4.6,2.2,9.1,5c4.5,2.7,9.1,5.2,10.4,5.6c1.3,0.3,4.5-0.6,8.1-2.4c3.3-1.6,8.3-3.5,11-4.2c2.8-0.7,5.7-1.9,6.6-2.7
			c0.8-0.7,2.5-1.3,3.8-1.3c1.2,0,2.4-0.7,2.7-1.5c0.4-0.8,1.7-1.5,2.9-1.5c1.3,0,2.7-0.4,3-1c0.3-0.5,1.5-1,2.6-1
			c1.1,0,2.7-0.7,3.5-1.5c0.9-0.8,2.4-1.5,3.4-1.5s2-0.6,2.3-1.4c0.3-0.7,3.3-1.9,6.6-2.7c3.4-0.7,6.1-1.6,6.1-2
			c0-0.4,1.3-1,2.9-1.4c1.6-0.3,3.2-1.3,3.5-2.1c0.3-0.8,1.7-1.4,3.1-1.4c1.4,0,3.3-0.4,4.3-0.9c0.9-0.5,3.3-1.7,5.2-2.6
			c1.9-0.9,5.1-2.4,7-3.4c8.9-4.6,14.7-7.1,16.7-7.1c2.5,0,9.3-3.7,9.3-5.1c0-0.5,0.9-0.9,1.9-0.9c1.1,0,2.3-0.5,2.6-1
			c0.3-0.6,1.9-1,3.5-1c1.5,0,3-0.7,3.4-1.5c0.3-0.8,1.7-1.5,3.1-1.5c1.4,0,2.8-0.6,3.1-1.4c0.3-0.7,2.2-1.6,4.3-2
			c2.1-0.3,4.8-1.5,6.1-2.6c1.3-1.1,2.9-2,3.7-2c0.7,0,1.3-0.4,1.3-0.9s1.4-1.3,3.2-1.6c3-0.7,6.7-2.3,7.8-3.5c1-1.1,6.1-3,7.9-3
			c1,0,2.6-0.9,3.6-2s2.1-1.7,2.5-1.5c0.5,0.3,3.1-0.6,5.8-2c2.7-1.4,5.7-2.5,6.6-2.5c0.9,0,1.6-0.5,1.6-1c0-0.6,0.6-1,1.4-1
			c0.8,0,1.8-0.5,2.1-1c1-1.6-0.5-5-2.1-5c-0.8,0-1.4-0.5-1.4-1c0-0.6-0.5-1-1.1-1c-0.6,0-2.3-1.2-3.9-2.8c-3.7-3.6-5.7-5.2-6.8-5.2
			c-0.5,0-1.9-0.9-3.2-2c-1.3-1.1-2.9-2-3.7-2c-0.7,0-1.3-0.5-1.3-1c0-0.6-0.7-1-1.5-1c-0.8,0-3-1.1-5-2.4c-3.5-2.4-3.7-2.4-6.8-0.8
			c-1.8,0.9-3.3,2-3.5,2.4c-0.2,0.5-1.2,0.8-2.2,0.8s-2.2,0.4-2.5,1c-0.3,0.5-1.5,1-2.5,1s-2.5,0.6-3.2,1.3
			c-0.7,0.8-2.6,1.7-4.1,2.1c-1.5,0.3-2.7,1.1-2.7,1.6c0,0.6-1.1,1-2.4,1c-1.4,0-2.8,0.4-3.1,1c-0.3,0.5-1.7,1-2.9,1
			c-1.3,0-2.9,0.7-3.6,1.5c-0.6,0.8-2.2,1.7-3.3,2.1c-2.1,0.6-9.3,3.7-12.9,5.5c-1,0.5-2.3,0.9-3,0.9c-0.6,0-2,0.7-2.9,1.6
			c-1,0.9-3,1.7-4.4,1.6c-1.4,0-2.8,0.4-3.1,0.9c-0.7,1.2-5.9,3.5-12.6,5.5c-3.2,1-5.8,2.1-5.8,2.5c0,0.4-1.1,1-2.5,1.3
			c-1.4,0.4-2.5,1.1-2.5,1.6c0,0.6-0.7,1-1.6,1c-2.4,0-11.4,3.3-11.4,4.2c0,0.5-1.1,0.8-2.4,0.8c-1.4,0-3.1,0.7-4,1.5
			c-0.8,0.8-2.1,1.5-2.9,1.5s-2.8,0.7-4.3,1.5c-1.6,0.8-3.6,1.5-4.6,1.5c-0.9,0-1.8,0.3-2,0.7c-0.5,1.2-6.8,4.1-11.8,5.4
			c-2.5,0.7-4.9,1.6-5.5,2.1c-0.5,0.4-1.8,0.8-2.8,0.8c-1.1,0-3.4,0.9-5.2,2c-1.9,1.1-3.7,2-4.2,1.9c-0.4-0.1-2.1,0.1-3.6,0.6
			c-1.5,0.4-3.1,0.4-3.5,0c-0.4-0.3-1-12.9-1.3-27.8c-0.9-36.4-2.8-73.7-3.9-76.2c-0.5-1.1-1.1-4.4-1.3-7.4
			c-0.4-5.5-0.9-6.1-6.4-10.1c-1.9-1.3-2.2-2.9-2.8-14.3l-0.7-12.7h4c3.5,0,4.5,0.6,10.3,6.9c3.5,3.8,7.1,7.7,8,8.8
			c0.9,1,3.1,2.9,4.9,4.3c1.8,1.4,3.8,3.1,4.5,3.7c0.8,0.7,1.7,1.3,2.1,1.3c0.4,0,1.7,0.8,2.8,1.9c1.2,1,4.1,2.9,6.6,4.2
			c2.5,1.3,4.7,2.7,5,3c0.3,0.4,1.5,0.9,2.8,1.3c1.2,0.4,2.2,1.1,2.2,1.5c0,1.1,12.9,3.4,16.4,3l3-0.4l-4.2-2.7
			c-2.3-1.6-5.6-4.4-7.4-6.4c-1.8-2-5.8-6.2-8.8-9.3c-3.1-3.1-6.4-7.4-7.4-9.6c-1.1-2.1-3.3-6.2-5.1-9c-1.7-2.7-4.3-7.3-5.6-10
			c-1.3-2.8-2.7-5.2-3.1-5.3c-0.5-0.2-0.8-1-0.8-1.7c0-0.8-0.6-1.8-1.3-2.2c-0.7-0.4-2.4-2.6-3.7-4.8c-1.3-2.2-2.7-4.2-3.1-4.5
			c-0.7-0.5-2.7-8.8-3.5-15c-0.3-1.9-0.9-6.3-1.5-9.7c-0.5-3.4-1.2-9.1-1.4-12.5c-0.3-3.5-0.8-8.2-1.1-10.6
			c-0.3-2.3-0.1-5.7,0.5-7.5c3.8-12.5,4.1-13.9,2.8-15.2c-0.8-0.7-5-1.5-10.4-1.8c-5-0.2-9.5-0.7-10-1
			C145.3,316,144.3,316,143.7,316.2z"/>
		
			<linearGradient id="region-1-6_00000080910043537379802070000010235874359506483867_" gradientUnits="userSpaceOnUse" x1="-986.306" y1="737.5195" x2="-985.6533" y2="738.7054" gradientTransform="matrix(48.9921 0 0 44.7614 48676.6758 -32514.1172)">
			<stop  offset="0" style="stop-color:#EA97A5"/>
			<stop  offset="1" style="stop-color:#EEADBB"/>
		</linearGradient>
		<path id="region-1-6" style="fill:url(#region-1-6_00000080910043537379802070000010235874359506483867_);" d="M344,506.6
			c-1.7,2.5-1.2,4.6,1.5,5.4c1.1,0.4,2.7,1.7,3.5,3.1c0.9,1.3,2.3,2.4,3,2.4c0.8,0,1.4,0.4,1.4,1c0,0.5,0.7,1,1.5,1
			c0.8,0,1.7,1.1,2.1,2.5c0.3,1.4,1,2.2,1.5,1.9c1.2-0.7,18.3,12,20.3,15.2c0.9,1.3,2.2,2.4,2.9,2.4c1.3,0,4.7,3.4,4.7,4.8
			c0,0.7,5.1,3.4,5.6,2.9c0.1-0.1-0.9-4.3-2.2-9.2c-3.5-12.5-4.1-15.2-5.4-22l-1.2-6l-4.5-0.1c-3.8-0.1-10.7-2.6-12.3-4.5
			c-0.8-0.9-12-2.9-16.6-2.9C346.6,504.5,345.1,505,344,506.6z"/>
	</g>
	<g id="layer-2">
		
			<linearGradient id="region-2-1_00000134234414991957649570000004270260156437885314_" gradientUnits="userSpaceOnUse" x1="-1004.3152" y1="737.3489" x2="-1002.6739" y2="737.8885" gradientTransform="matrix(359.6037 0 0 659.2469 361506.375 -485868.9062)">
			<stop  offset="0" style="stop-color:#1A0000;stop-opacity:0.77"/>
			<stop  offset="1" style="stop-color:#AA503D;stop-opacity:0.821"/>
		</linearGradient>
		<path id="region-2-1" style="fill:url(#region-2-1_00000134234414991957649570000004270260156437885314_);" d="M579,26.3
			c-0.3,0.5-2.1,0.9-4.1,1c-2,0.1-4,0.4-4.5,0.7c-0.6,0.4-1,0.1-1-0.4c0-0.6-1-1.1-2.2-1c-2.1,0-2.2,0.1-0.4,0.8
			c1.8,0.7,1.8,0.8-0.5,1.4c-1.3,0.4-4,0.7-5.9,0.7c-1.9,0-4.8,0.7-6.4,1.5c-1.5,0.8-3.5,1.5-4.2,1.5c-0.8,0-1.7,0.6-2,1.4
			c-0.3,0.8-2.1,1.7-4,2c-1.9,0.4-3.4,1.1-3.4,1.7s-0.4,0.8-0.9,0.4c-0.5-0.3-1.6,0.2-2.4,1c-0.9,0.8-2,1.5-2.4,1.5
			c-0.5,0-2.4,1.1-4.3,2.5c-1.9,1.4-4,2.3-4.6,2.1c-0.6-0.2-1.7,0.6-2.3,1.8c-0.7,1.2-2.8,2.8-4.6,3.5c-1.9,0.6-3.7,2-4,3
			c-0.3,1.1-1.7,2.2-3,2.5c-1.4,0.4-2.5,1.1-2.5,1.6c0,0.6-0.7,1-1.5,1c-0.8,0-1.4,0.3-1.3,0.7c0.4,1.2-4.8,6-7.2,6.8
			c-1.1,0.3-2,1.3-2,2.1c0,0.8-0.7,1.4-1.6,1.4c-0.8,0-1.3,0.4-0.9,0.9c0.3,0.5-0.8,1.8-2.5,2.7c-2,1.3-2.6,2-1.7,2.6
			c0.8,0.5,0.7,0.8-0.5,0.8c-1,0-1.8,0.4-1.8,0.9s-2,2.9-4.5,5.4c-2.5,2.6-4.5,5.1-4.5,5.6c0,0.6-1.2,2.2-2.6,3.6
			c-3.4,3.4-9.3,11.1-10.5,13.8c-1.1,2.5-3.3,6.5-4.8,8.7c-0.6,0.8-2.6,3.8-4.6,6.7c-1.9,2.9-4.3,7.2-5.2,9.5
			c-0.9,2.4-2,4.5-2.4,4.8c-1.2,0.8-12.9,24.2-12.9,25.7c0,1.2-1,3.4-8.9,20.6c-1.7,3.7-3.1,7.5-3.1,8.4c0,1.9-2.2,8.6-3.1,9.3
			c-1,0.9-2.9,7.2-2.9,9.6c0,1.3-0.4,2.4-0.9,2.4c-0.4,0-1.4,2.8-2.1,6.2c-1.4,7.3-2.9,11.8-4,11.8c-0.7,0-1.4,2.8-2.7,11.5
			c-0.3,2.2-0.9,4.2-1.3,4.5c-0.8,0.6-4,12.1-4.7,17c-0.2,1.9-1.1,4.9-1.9,6.7c-0.8,1.7-1.4,3.8-1.4,4.7s-0.4,1.6-1,1.6
			c-0.5,0-1,1.7-1,3.7c-0.1,2.1-0.6,5.8-1.1,8.3c-0.6,2.5-1.4,7.4-1.9,11c-0.4,3.6-1.3,10.8-1.9,16c-0.7,5.2-1.6,12.4-2.2,16
			c-3.1,20.4-4.8,86.1-2.3,87.8c0.6,0.4,1.6,7,2.3,14.7c3.3,37.4,7,67.5,8.2,67.5c0.4,0,1.2,3.9,1.9,8.7c0.7,4.9,2.1,11.4,3.1,14.7
			c1.1,3.2,1.9,6.7,1.9,7.7c0,1.1,0.5,1.9,1,1.9c0.6,0,1,0.9,1,2c0,2.9,2.9,13.3,4,14.4c0.5,0.5,1,1.6,1,2.4s0.6,2.8,1.4,4.5
			c0.7,1.8,2.1,5.7,3,8.7c0.9,3.1,2.5,6.9,3.5,8.5c1,1.7,2.4,4.8,3.1,7c0.7,2.2,2.6,6.1,4.2,8.6c1.5,2.5,2.8,5.2,2.8,5.8
			c0,0.7,1.1,2.9,2.5,4.9c1.4,2,2.5,4.2,2.5,4.9s0.5,1.3,1,1.3c0.6,0,1,0.7,1,1.5c0,0.9,0.5,2.1,1,2.8c4,4.7,5,6.1,5,7
			c0,0.8,3.2,5.2,6.4,8.7c0.7,0.8,1.7,2.5,2,3.7c0.4,1.2,2,3.3,3.7,4.7c1.6,1.4,2.9,2.7,2.9,3c0,0.6,1.6,2.3,10.1,11.2
			c6.1,6.5,15.9,14.4,17.7,14.4c0.7,0,1.2,0.4,1.2,0.9s1.2,1.5,2.8,2.3c1.5,0.7,5.2,2.9,8.2,4.9c6.2,4,12.7,6.5,18.3,7.2
			c2,0.3,4.3,1,5.1,1.6c2.3,1.9,11.7,4.3,17.1,4.4c8,0,19.4-1.2,21.5-2.3c1.5-0.8,2-0.8,2,0.1c0,0.8,0.4,0.9,1.3,0
			c0.9-0.7,1.7-0.7,2.4,0c0.7,0.7,2.4,0.4,5.4-0.9c2.4-1.1,6.8-2.8,9.7-3.7s5.8-2.2,6.5-2.9c0.6-0.6,2.7-1.8,4.5-2.5
			c1.8-0.8,3.7-2.1,4.2-3c0.7-1.4,2.2-1.7,7.9-1.5l7.1,0.3l6.4-5.9c3.5-3.3,6.9-7.4,7.6-9c0.9-2.1,1.9-3,3.6-3
			c2.7,0,10.6-7.5,12.5-11.9c0.7-1.6,3.2-4.1,5.6-5.6c5.1-3.2,7.3-6,7.3-9.5c0-1.5,1.4-4.1,3.5-6.3c3.7-4.1,9.5-12.1,9.5-13.3
			c0-0.4,2.3-3.1,5-6c4.7-5,5-5.6,5-10.6c0-4.5,0.6-6.5,3.6-11.4c4.4-7,7.4-12.9,7.4-14.3c0-0.6,1.5-3.4,3.3-6.3
			c1.8-2.9,3.9-7.3,4.6-9.7c0.7-2.5,2.8-7.6,4.6-11.5c1.8-3.9,3.6-8.7,4-10.6c0.4-1.9,2.4-7.2,4.6-11.7c2.2-4.6,5.5-13.1,7.5-19
			c1.9-6,3.9-11.7,4.3-12.8c0.5-1.1,1.4-3.6,2.1-5.5s1.9-5,2.7-6.9c0.8-1.8,1.8-7.8,2.2-13.1c0.5-8,1-10.3,2.7-12.2
			c1.5-1.6,2.2-3.8,2.3-7.3c0.1-2.7,0.6-5.4,1.1-5.9c0.6-0.6,1-4.5,1-8.8c0-7.1-0.2-7.8-1.9-7.8c-2.7,0-3.4-1.5-1.6-3
			c1.2-1,1.5-1,1.5,0s0.3,1,1.5,0c0.8-0.7,1.5-2.3,1.5-3.6c0-1.3,0.4-2.4,0.8-2.4c0.5,0,1.4-4.4,2.1-9.8c0.7-5.3,1.7-12.4,2.3-15.7
			c3.4-19.9,4.8-38.7,4.8-64.5c0-19.3-2-54.4-3.6-64.3c-0.3-2-0.8-4.9-1-6.5c-0.3-1.5-0.7-5.1-1.1-8c-0.3-2.8-0.9-5.2-1.4-5.2
			s-0.9-1.7-0.9-3.8c0-4.5-0.9-8.2-2-8.2c-0.4,0-0.7,1.4-0.6,3c0.3,3.6-1.3,5.3-3.4,4c-1.1-0.7-1.1-1-0.2-1s1.2-3.3,1.1-13.8
			c-0.1-13.9-1.6-24.5-4.2-30.4c-0.9-1.8-1.8-4.5-2.1-6.1c-0.3-1.5-0.9-3.9-1.2-5.5c-0.3-1.5-0.9-3.6-1.4-4.7
			c-0.4-1.1-1.8-4.9-3.1-8.5c-1.2-3.6-2.6-6.9-3.1-7.5c-0.4-0.5-0.8-1.9-0.8-3.2c0-1.3-0.4-2.3-1-2.3c-0.5,0-1-0.5-1-1.2
			c0-1.1-5.3-13.1-7-15.8c-1.9-3-5.5-11.2-6.5-14.8c-0.4-1.2-1.1-2.2-1.6-2.2c-0.6,0-0.8-0.4-0.5-0.8c0.3-0.5-0.4-1.8-1.4-3
			c-1.1-1.2-2-2.5-2-3c0-1.1-3.1-4.8-10-12c-3.1-3.1-8.2-8.9-11.5-12.7c-9.3-10.8-26.5-27.5-28.5-27.5c-0.6,0-1.3-0.7-1.6-1.5
			c-0.4-0.8-1.6-1.5-2.8-1.5c-1.3,0-2.6-0.3-3-0.7c-0.3-0.4-1.2-0.8-1.9-0.9c-2.4-0.4-6.4-2.3-7.8-3.6c-2.6-2.5-6.8-4.8-8.8-4.8
			c-1,0-2.1-0.7-2.5-1.5c-0.3-0.8-1.4-1.5-2.5-1.5c-1.1,0-2.1-0.4-2.3-0.9c-0.1-0.5-2.5-1.2-5.3-1.5c-7.4-0.9-16.3-2.6-19.3-3.7
			c-1.8-0.7-2.7-0.6-3.3,0.3c-0.7,1-1.2,1.1-2.9,0C580.1,25.3,579.7,25.2,579,26.3z"/>
		
			<linearGradient id="region-2-2_00000049221902633579117730000008821202278418881717_" gradientUnits="userSpaceOnUse" x1="-836.7145" y1="741.6814" x2="-835.7509" y2="742.7022" gradientTransform="matrix(5.8802 0 0 6.3233 5090.4106 -4436.1602)">
			<stop  offset="0" style="stop-color:#FFF6DF;stop-opacity:0.813"/>
			<stop  offset="1" style="stop-color:#FFFAE3;stop-opacity:0.827"/>
		</linearGradient>
		<path id="region-2-2" style="fill:url(#region-2-2_00000049221902633579117730000008821202278418881717_);" d="M170.4,256.3
			c0,3.6,0.4,4,3.6,3.4c2-0.4,2.5-1,2.2-3.1c-0.2-2-0.9-2.7-3-2.9C170.7,253.4,170.4,253.7,170.4,256.3z"/>
		
			<linearGradient id="region-2-3_00000163055191677839009030000011213755802487752631_" gradientUnits="userSpaceOnUse" x1="-937.1818" y1="737.2371" x2="-937.1818" y2="738.2371" gradientTransform="matrix(14.4468 0 0 124.411 13918.293 -91465.0781)">
			<stop  offset="0" style="stop-color:#FBB5AE;stop-opacity:0.794"/>
			<stop  offset="1" style="stop-color:#FFE4D6;stop-opacity:0.834"/>
		</linearGradient>
		<path id="region-2-3" style="fill:url(#region-2-3_00000163055191677839009030000011213755802487752631_);" d="M385.2,256.5
			c-3.4,13.6-7.7,37.6-8.5,47.5c-0.3,3.3-0.9,6.5-1.5,7.2c-0.5,0.7-0.7,1.6-0.4,2.1c0.3,0.5-0.2,4.6-1,9.3c-1,5.6-1.6,17.5-1.9,35.9
			c-0.4,29.3,0.6,28.2,2.4-3c1.4-23,2.7-37.6,3.6-39c0.4-0.6,1.6-8.6,2.6-17.8c1.1-9.2,2.3-17.8,2.8-19.2c1.6-4.6,3.3-16.4,2.9-21
			C385.9,254.9,385.7,254.5,385.2,256.5z"/>
		
			<linearGradient id="region-2-4_00000054966393426649396000000001715084109097540271_" gradientUnits="userSpaceOnUse" x1="-996.486" y1="737.4037" x2="-995.7899" y2="738.7939" gradientTransform="matrix(97.8975 0 0 54 97633.8906 -39548)">
			<stop  offset="0" style="stop-color:#FFFFFF;stop-opacity:0.886"/>
			<stop  offset="1" style="stop-color:#FFFFFF;stop-opacity:0.841"/>
		</linearGradient>
		<path id="region-2-4" style="fill:url(#region-2-4_00000054966393426649396000000001715084109097540271_);" d="M144,282
			c-0.9,1.3-1.6,2.9-1.6,3.5c0,1.2-14.2,1.4-15.4,0.2c-1.2-1.2-5.6-1.4-34.5-1.7c-22-0.2-27.5-0.5-28.2-1.6c-0.8-1.2-1.1-1.1-2,0.4
			c-0.6,1-2.5,3.1-4.3,4.7c-2.6,2.4-3.5,4.3-4.4,9.4c-0.7,3.5-1.2,7.9-1.1,9.7c0.1,3.2,0.2,3.2,0.9,0.9l0.8-2.5l0.1,2.7
			c0.2,4,1.1,5.8,3.2,5.8c1,0,1.9,0.5,1.9,1c0,0.6,1.1,0.8,2.5,0.4c1.4-0.4,2.5-0.2,2.5,0.4c0,0.6,1.8,1.3,4,1.7s4.2,1.1,4.5,1.5
			c0.3,0.5,1.9,0.8,3.6,0.8c1.7-0.1,3.4,0.4,3.9,1.1c0.4,0.8,3.8,1.5,8.1,1.7c4,0.3,7.6,0.8,7.9,1.2c1,1.5,6,4.2,7.5,4.2
			c0.9,0,2.3,0.7,3.1,1.5c0.9,0.8,2.4,1.5,3.5,1.5s2.2,0.7,2.5,1.5c0.4,1,2.1,1.5,5.4,1.5c4.3,0,5.3-0.5,9.6-4.5
			c3.2-3.1,5.6-4.5,7.5-4.5c2.8,0,6.9-3.9,6.9-6.6c0-1.4,1.1-1.8,4.1-1.5c1.2,0.1,1.8-1,2.3-4.5c1-7.2,0.8-13.2-0.4-11.4
			c-1.4,2.2-1.3,0,0.5-8.5c2.2-10.3,2-12.5-0.9-12.5C146.6,279.5,145,280.5,144,282z"/>
		
			<linearGradient id="region-2-5_00000080198996982442312400000010652353228755045282_" gradientUnits="userSpaceOnUse" x1="-989.0644" y1="737.3933" x2="-988.7172" y2="738.5274" gradientTransform="matrix(56.7081 0 0 61.725 56277.3555 -45237.0508)">
			<stop  offset="0" style="stop-color:#FFFFFF;stop-opacity:0.85"/>
			<stop  offset="1" style="stop-color:#FFFFFF;stop-opacity:0.899"/>
		</linearGradient>
		<path id="region-2-5" style="fill:url(#region-2-5_00000080198996982442312400000010652353228755045282_);" d="M187.4,285.5
			c-4.9,7.1-8.8,14-9.3,16.5c-0.3,1.6-1,5.7-1.6,9c-0.6,3.3-1.6,7.2-2.2,8.7s-0.8,3.6-0.4,4.5c0.5,1,1,2.6,1.2,3.7
			c0.2,1,1,3,1.9,4.5c1.4,2.4,2.1,2.6,8.3,2.6c5.8,0,7.2,0.4,10.3,2.7c2,1.5,3.9,3.9,4.2,5.3c0.6,2.3,1.1,2.5,5.6,2.5
			c4.6,0,5.1-0.2,6.6-3.3c1-1.7,1.9-2.6,2.1-2c0.8,2.2,3.4,1.4,6.4-1.8c1.5-1.6,3.8-3.1,4.9-3.2c2.5-0.2,5-5.2,5-9.9
			c0-4.3-2.7-8.8-6.2-10.2c-3-1.3-3-1.3-0.9-2.8c1.7-1.2,1.9-2,1.2-4.5c-1.2-4-4-7.1-6-6.6c-1.1,0.3-2.1-0.8-3.3-3.7
			c-1.5-3.3-2.3-4-4.6-4c-1.6,0-3.4-0.8-4.2-2c-0.8-1.2-2.6-2-4.2-2c-1.5,0-2.8-0.5-2.8-1c0-0.6-0.7-1-1.5-1c-0.8,0-1.9-0.9-2.5-2
			C194.2,283.2,189.1,283.2,187.4,285.5z"/>
		
			<linearGradient id="region-2-6_00000112612936406616347690000015878424080496298654_" gradientUnits="userSpaceOnUse" x1="-975.5954" y1="738.1387" x2="-974.325" y2="738.3519" gradientTransform="matrix(31.8178 0 0 40.5689 31143.5098 -29583.2129)">
			<stop  offset="0" style="stop-color:#C0C0B8;stop-opacity:0.731"/>
			<stop  offset="1" style="stop-color:#B2B2AA;stop-opacity:0.676"/>
		</linearGradient>
		<path id="region-2-6" style="fill:url(#region-2-6_00000112612936406616347690000015878424080496298654_);" d="M118.4,346.5
			c0,0.5-1.1,1-2.5,1s-2.5,0.4-2.5,1c0,0.5-0.9,1-2.1,1c-4.4,0-6.9,5.5-6.9,15.2c0,3.2,0.4,5.8,1,5.8s1,1.3,1,2.9s0.7,3.4,1.5,4.1
			s1.5,1.7,1.5,2.3c0,1.2,5.1,5.7,6.5,5.8c0.6,0,3.8,0.2,7.2,0.4c5.5,0.4,6.6,0.1,9.2-2.1c1.7-1.4,3-2.8,2.9-3.2
			c-0.1-0.4,0.2-2.9,0.7-5.5c0.7-4.6,0.4-6.7-2.5-15.9c-0.5-1.6-0.4-3,0.1-3.4c0.5-0.3,0.9-1.8,0.9-3.5c0-2.1-0.5-2.9-1.8-2.9
			c-0.9,0-4.2-0.9-7.2-2C119.2,345.2,118.4,345.1,118.4,346.5z"/>
		
			<linearGradient id="region-2-7_00000099622864279448977860000005397530315200413064_" gradientUnits="userSpaceOnUse" x1="-1001.9731" y1="737.5568" x2="-1000.9105" y2="738.1453" gradientTransform="matrix(194.3611 0 0 89.3672 194903.5156 -65496.1016)">
			<stop  offset="0" style="stop-color:#B3666C;stop-opacity:0.82"/>
			<stop  offset="1" style="stop-color:#F87770;stop-opacity:0.79"/>
		</linearGradient>
		<path id="region-2-7" style="fill:url(#region-2-7_00000099622864279448977860000005397530315200413064_);" d="M183.8,397.9
			c-1.6,4,0.3,11.5,4.7,18.8c2.5,4,5.3,8.9,6.2,10.9c3.6,7.2,28.6,29.1,34.7,30.4c1.9,0.4,4.4,1.3,5.5,2c1.1,0.7,4.8,1.8,8.3,2.6
			c3.4,0.7,6.2,1.7,6.2,2.1c0,0.4,1.8,1.1,4,1.4c2.2,0.4,4,1,4,1.4s2.8,1.1,6.2,1.4c3.6,0.5,10,2.4,15.5,4.8c9.8,4.1,12.2,4.5,7.9,1
			c-2.9-2.2-3.4-5.4-1.1-7.4c4.5-4,5.1-4.2,14.2-4.6c6.6-0.3,10.7,0,14,1.1c10.1,3.3,21.9,6.7,25.3,7.4c1.9,0.3,4.3,1.4,5.3,2.4
			c1,0.9,5.1,2.7,9,3.9c4,1.2,8.1,2.6,9.2,3c1.1,0.5,4.9,2,8.4,3.4l6.3,2.5l-0.6-3.2c-1-4.5-2.7-18.1-3.2-25.2
			c-0.6-7.5-2-10.5-5.1-10.5c-1.3,0-2.3-0.5-2.3-1c0-0.6-0.9-1-2-1c-1.1,0-2-0.5-2-1c0-0.6-0.9-1-2-1c-1.1,0-2-0.5-2-1
			c0-1.4-3.7-1.2-4.4,0.2c-0.5,1-0.7,1-1.2,0c-0.3-0.6-1.4-1.2-2.5-1.2c-1,0-1.9-0.5-1.9-1c0-0.6-1.3-1-2.9-1s-3.2-0.6-3.4-1.3
			c-0.4-0.9-0.7-0.9-1.5,0.1c-1.2,1.7-23.9,1.9-25.5,0.3c-0.6-0.6-2.8-1.1-4.9-1.1s-3.8-0.5-3.8-1c0-1.9-1.8-1-2.3,1.1
			c-0.3,1.2-1,1.8-1.7,1.4c-0.6-0.3-2.5-0.8-4.2-1.1c-1.7-0.2-3.4-0.8-3.8-1.3c-0.3-0.6-2.1-1.3-4-1.6c-13.5-2.1-16.9-2.8-19.7-4.1
			c-1.7-0.8-4.5-1.4-6.1-1.4c-1.7,0-3.4-0.5-3.7-1c-0.3-0.6-2.5-1-4.8-1c-2.3-0.1-7.1-0.8-10.7-1.6c-3.6-0.9-8.3-1.8-10.4-2.1
			c-2.2-0.3-4.8-1.3-5.9-2.3c-1.9-1.8-5.5-2.7-13.6-3.3c-2.5-0.2-4.7-0.9-4.9-1.5c-0.2-0.7-0.8-1.2-1.4-1.2c-0.6,0-1.8-0.8-2.7-1.8
			c-0.9-1.1-3.4-2.2-5.6-2.5c-3.9-0.6-8.9-4.8-14.2-12C184.8,396.7,184.4,396.5,183.8,397.9z"/>
		
			<linearGradient id="region-2-8_00000101090236000128261090000014964357089993558934_" gradientUnits="userSpaceOnUse" x1="-996.1737" y1="737.79" x2="-996.1737" y2="738.79" gradientTransform="matrix(96.9779 0 0 37.3398 96879.7734 -27152.2793)">
			<stop  offset="0" style="stop-color:#F56254;stop-opacity:0.778"/>
			<stop  offset="1" style="stop-color:#F46658;stop-opacity:0.804"/>
		</linearGradient>
		<path id="region-2-8" style="fill:url(#region-2-8_00000101090236000128261090000014964357089993558934_);" d="M224.4,397.9
			c0,0.9,0.7,1.6,1.5,1.6c0.8,0,1.5,0.7,1.5,1.5s0.5,1.5,1.1,1.5c0.7,0,1.9,0.8,2.8,1.9c0.9,1,2.6,2.1,3.9,2.5
			c1.2,0.4,2.2,1.2,2.2,1.7s0.6,0.9,1.3,0.9c0.7,0,2.8,1.1,4.7,2.4c1.9,1.3,5,2.7,6.8,3c1.7,0.4,3.2,1.2,3.2,1.7s1.4,0.9,3.2,0.9
			c3.5,0,9.8,2,9.8,3.1c0,0.4,1.3,1,2.9,1.4c1.6,0.3,3.2,1.3,3.5,2.1c0.3,0.8,1.8,1.4,3.2,1.4c3.3,0,9.4,2.1,9.4,3.2
			c0,0.4,1.2,0.8,2.8,0.8c1.5,0,3.5,0.9,4.5,2c0.9,1.1,2.5,2,3.4,2.1c1,0,2.5,0.2,3.4,0.4c0.9,0.1,2.7-0.7,4-1.9
			c2.5-2.2,10.9-3.5,10.9-1.6c0,0.5,0.9,1,2,1c1.1,0,2-0.5,2-1c0-0.6,0.7-1,1.5-1c2.3,0,1.8-1.8-0.7-2.6c-1.3-0.3-5.4-2.1-9.3-3.9
			c-11.3-5.2-19.1-8.5-20.6-8.5c-0.8,0-2.3-0.7-3.3-1.5c-1.1-0.8-3-1.5-4.2-1.5c-1.3,0-2.6-0.5-2.9-1c-0.4-0.6-1.2-1-1.8-0.9
			c-2.7,0.3-6.3-0.2-7.7-1.1c-1.3-0.9-1.3-1.1,0-2c1.2-0.8,1-1-1-1s-2.2-0.2-1-1c1.2-0.8,1.1-1-0.7-1.1c-2.5-0.2-4.2-0.5-4.5-0.9
			c-0.2-0.2-4.5-0.4-9.7-0.5c-5.1-0.1-9.6-0.7-10-1.2c-0.3-0.6-3.5-1.6-7.1-2.1c-3.6-0.6-7.5-1.4-8.7-1.8
			C225,396.4,224.4,396.7,224.4,397.9z"/>
		
			<linearGradient id="region-2-9_00000051382044996862147860000010711585780449925266_" gradientUnits="userSpaceOnUse" x1="-978.5725" y1="737.235" x2="-978.5725" y2="738.235" gradientTransform="matrix(35.858 0 0 125.5268 35224.1328 -92076.6797)">
			<stop  offset="0" style="stop-color:#FF817B;stop-opacity:0.664"/>
			<stop  offset="1" style="stop-color:#FF888C;stop-opacity:0.571"/>
		</linearGradient>
		<path id="region-2-9" style="fill:url(#region-2-9_00000051382044996862147860000010711585780449925266_);" d="M125.2,466.2
			c-1.6,0.3-2.8,0.9-2.8,1.4s-0.8,0.9-1.9,0.9c-4.1,0-4.4,1.7-3.7,26.7c0.7,27.2,1,31.6,3.1,61.8c1.4,18.7,1.9,22.2,3.5,23.7
			c2.6,2.5,22,12,22,10.8c0-0.5,0.8-1,1.8-1c0.9,0,2.5-0.7,3.5-1.4c1.6-1.3,1.8-3,1.6-16.3c-0.1-8.1-0.5-15.3-0.9-15.8
			c-0.5-0.6-1.3-12.9-1.9-27.5c-1.6-35.9-2-41.3-3-42c-0.5-0.3-1.2-2.6-1.6-5.3c-0.4-2.6-1.1-5-1.6-5.3c-0.5-0.3-0.9-2.1-0.9-3.9
			c0-3.6-1-4.2-6.9-4.4c-1.3,0-2.7-0.4-3-0.9C131.7,466.4,128.4,465.8,125.2,466.2z"/>
		
			<linearGradient id="region-2-10_00000073687790543091805100000005045457221017530302_" gradientUnits="userSpaceOnUse" x1="-957.8123" y1="740.6296" x2="-957.2648" y2="742.322" gradientTransform="matrix(20.5 0 0 7.8894 19964.5 -5330.3535)">
			<stop  offset="0" style="stop-color:#D4FAFF;stop-opacity:0.437"/>
			<stop  offset="1" style="stop-color:#D5FBFF;stop-opacity:0.419"/>
		</linearGradient>
		<path id="region-2-10" style="fill:url(#region-2-10_00000073687790543091805100000005045457221017530302_);" d="M325.2,515.2
			c-1.6,1-2.8,2.2-2.8,2.8c0,1.3,5.7,3.5,9.1,3.5c3.3-0.1,11.4-4.3,11.4-6.1C342.9,513.1,328.7,513,325.2,515.2z"/>
		
			<linearGradient id="region-2-11_00000017487836818487560030000003930944522905008062_" gradientUnits="userSpaceOnUse" x1="-956.5583" y1="739.8978" x2="-956.399" y2="741.1954" gradientTransform="matrix(20.0211 0 0 10 19416.2422 -6854)">
			<stop  offset="0" style="stop-color:#E3FCFE;stop-opacity:0.379"/>
			<stop  offset="1" style="stop-color:#E5FEFF;stop-opacity:0.371"/>
		</linearGradient>
		<path id="region-2-11" style="fill:url(#region-2-11_00000017487836818487560030000003930944522905008062_);" d="M262.4,546.5
			c0,0.5-1.1,1-2.4,1c-2.5,0-3.6,1.6-3.6,5.6c0,2.3,0.2,2.4,7.3,2.4c6.2-0.1,7.6-0.4,10-2.5c5.1-4.5,2.9-7.5-5.5-7.5
			C265,545.5,262.4,545.9,262.4,546.5z"/>
		
			<linearGradient id="region-2-12_00000114039912303415544920000003338346860701939366_" gradientUnits="userSpaceOnUse" x1="-960.478" y1="741.1821" x2="-959.4232" y2="740.5936" gradientTransform="matrix(21.482 0 0 8.7994 20806.5664 -5937.186)">
			<stop  offset="0" style="stop-color:#031B0D;stop-opacity:0.275"/>
			<stop  offset="1" style="stop-color:#001506;stop-opacity:0.306"/>
		</linearGradient>
		<path id="region-2-12" style="fill:url(#region-2-12_00000114039912303415544920000003338346860701939366_);" d="M177.4,580
			c-2.2,2.4-2.3,2.6-0.7,4.2c1.2,1.2,3.8,1.8,8.5,2c5.8,0.3,7.1,0,9.5-2c5.1-4.3,2-6.7-8.9-6.7C180.6,577.5,179.4,577.9,177.4,580z"
			/>
	</g>
	<g id="layer-3">
		
			<linearGradient id="region-3-1_00000062176413250687399270000001947341224239993013_" gradientUnits="userSpaceOnUse" x1="-998.6281" y1="737.079" x2="-998.458" y2="738.1151" gradientTransform="matrix(124.8 0 0 216.7087 125280.8047 -159700.75)">
			<stop  offset="0" style="stop-color:#9C6267;stop-opacity:0.342"/>
			<stop  offset="1" style="stop-color:#601015;stop-opacity:2.300000e-02"/>
		</linearGradient>
		<path id="region-3-1" style="fill:url(#region-3-1_00000062176413250687399270000001947341224239993013_);" d="M624.4,43.4
			l-6.5,0.6l-0.3,4.4c-0.2,2.4,0,5.1,0.4,6c0.4,0.9,0.8,2,1,2.6c0.1,0.5,0.9,3,1.7,5.5c0.9,2.5,1.9,5.8,2.2,7.5
			c0.4,1.6,0.8,3.9,1.1,5c0.2,1.1,0.6,3.5,0.9,5.4c0.3,1.8,1,5.2,1.6,7.4c1.2,4.4,0.9,17.9-0.4,18.8c-0.4,0.3-0.8,5.5-0.9,11.5
			c0,6.1-0.6,12.7-1.4,14.9c-1.3,4.1-2,9.7-3.1,24c-0.3,4.4-0.9,8.4-1.3,9c-1,1.3-3.1,22.4-3.3,33.2c-0.1,4.6-0.6,8.3-1.1,8.3
			s-0.6,0.3-0.3,0.6c0.3,0.4,0.1,1.6-0.5,2.8c-0.7,1.1-1.3,3.9-1.5,6c-0.2,2.2-0.8,4.3-1.4,4.7c-0.7,0.4-1.3,6.1-1.5,15.5
			c-0.3,8.2-0.6,16.7-0.9,18.8l-0.3,3.9l10.5-0.7c6-0.3,11.3-1.1,12.2-1.9c3.4-2.6,6-3.5,11.2-3.8c4.7-0.3,14.8-3.5,16.6-5.3
			c0.3-0.3,2.1-0.6,3.9-0.6s3.5-0.4,3.8-0.8c0.3-0.5,2.4-0.9,4.6-1c2.3-0.1,5-0.6,6-1.2c1-0.5,3.5-1,5.4-1c4.1,0,5.5-0.6,16.1-7
			c2.8-1.7,6.8-3.5,9-4.1c12.3-3.3,15.5-4.3,20.3-6.7l5.2-2.6l-0.1-13.6c-0.1-13.7-1.6-24.3-4.2-30.2c-0.9-1.8-1.8-4.5-2.1-6.1
			c-0.3-1.5-0.9-3.9-1.2-5.5c-0.3-1.5-0.9-3.6-1.4-4.7c-0.4-1.1-1.8-4.9-3.1-8.5c-1.2-3.6-2.6-6.9-3.1-7.5c-0.4-0.5-0.8-1.9-0.8-3.2
			c0-1.3-0.4-2.3-1-2.3c-0.5,0-1-0.5-1-1.2c0-1.1-5.3-13.1-7-15.8c-1.9-3-5.5-11.2-6.5-14.8c-0.4-1.2-1.1-2.2-1.6-2.2
			c-0.6,0-0.8-0.4-0.5-0.8c0.3-0.5-0.4-1.8-1.4-3c-1.1-1.2-2-2.5-2-3c0-1.1-3.1-4.8-10-12c-3.1-3.1-8.2-8.9-11.5-12.7
			c-9.3-10.8-26.5-27.5-28.5-27.5c-0.6,0-1.3-0.7-1.6-1.5c-0.4-0.8-1.6-1.5-2.8-1.5c-1.3,0-2.6-0.3-3-0.7
			C637.4,43.2,631.9,42.7,624.4,43.4z"/>
		
			<linearGradient id="region-3-2_00000182520244371978891990000017144863941334647449_" gradientUnits="userSpaceOnUse" x1="-1002.9721" y1="738.1033" x2="-1001.9031" y2="737.2687" gradientTransform="matrix(244.7203 0 0 158.8996 245818.4219 -116871.6797)">
			<stop  offset="0" style="stop-color:#440400;stop-opacity:0.615"/>
			<stop  offset="1" style="stop-color:#A5151E;stop-opacity:0.235"/>
		</linearGradient>
		<path id="region-3-2" style="fill:url(#region-3-2_00000182520244371978891990000017144863941334647449_);" d="M401.6,267.8
			c-0.7,0.8-1.5,2.8-1.8,4.5c-0.4,1.8-1,3.2-1.5,3.2s-0.9,1.7-0.9,3.7c-0.1,2.1-0.6,5.8-1.1,8.3c-0.6,2.5-1.4,7.4-1.9,11
			c-0.4,3.6-1.3,10.8-1.9,16c-0.7,5.2-1.6,12.4-2.2,16c-2.6,17.4-4.8,70.9-3.4,82.8c0.6,5,0.8,5.3,3,4.8c4.4-1.1,109.7-0.7,111,0.4
			c0.8,0.6,4,0.8,7.9,0.5c3.9-0.3,7.5-0.1,8.7,0.5c1.8,1,14,1.7,42.9,2.4c6.3,0.2,12.2,0.6,13,0.9c1.8,0.7,8.5,1.5,19.1,2.3l7.7,0.6
			l4.2-4.1c2.3-2.3,4.8-4.1,5.6-4.1c0.7,0,1.6-0.9,1.9-2s1-2,1.5-2c0.4,0,1-1,1.4-2.3c0.3-1.2,1.7-3.5,3.1-5.1
			c1.4-1.6,2.5-3.7,2.5-4.8c0-1,0.4-1.8,0.8-1.8c0.5,0,1.5-1.9,2.2-4.3c0.7-2.3,1.8-4.7,2.4-5.2c1.3-1.2,1.7-2.5,2.3-8.5
			c0.3-2.5,1-5.1,1.5-5.7c1.6-2,2.2-34,0.8-39.3c-0.6-2.5-1.6-6.5-2.1-8.9c-0.5-2.5-1.3-4.7-1.8-5c-0.4-0.4-1.6-3.2-2.5-6.4
			c-2-6.8-7.6-13.1-14.7-16.5c-3.8-1.9-5.9-2.2-12-1.9c-4.1,0.2-8.5-0.1-9.9-0.6c-1.4-0.5-5.4-1.1-9-1.2c-7.9-0.3-15.6-1.4-19-2.5
			c-1.4-0.5-6.8-1.2-12-1.5s-11.1-1-13-1.5c-1.9-0.5-6.8-1.4-10.7-2.1c-4-0.7-7.3-1.6-7.3-2.2c0-0.5-0.7-0.7-1.4-0.4
			c-1.4,0.5-7.1-0.2-13.6-1.7c-1.4-0.3-4.5-0.8-6.9-1.1s-4.6-0.7-5-0.9c-0.4-0.3-3.6-0.5-7.1-0.7c-3.6-0.1-8.1-0.8-9.9-1.6
			c-1.9-0.7-4.9-1.6-6.5-1.8c-1.7-0.2-4.4-0.7-6.1-1.1c-3-0.6-9.1-1.3-13-1.4c-4-0.2-14.1-2.2-17.7-3.6c-3.9-1.4-5.6-1.8-15.8-3.5
			c-3.6-0.5-7.4-1.2-8.6-1.5C403.7,266.6,402.2,267,401.6,267.8z"/>
		
			<linearGradient id="region-3-3_00000145031893731105014810000000482979237920881583_" gradientUnits="userSpaceOnUse" x1="-1000.2017" y1="737.1116" x2="-1000.2017" y2="738.1116" gradientTransform="matrix(159 0 0 264.2106 159688 -194348.5781)">
			<stop  offset="0" style="stop-color:#070100;stop-opacity:5.700000e-02"/>
			<stop  offset="1" style="stop-color:#000000;stop-opacity:0"/>
		</linearGradient>
		<path id="region-3-3" style="fill:url(#region-3-3_00000145031893731105014810000000482979237920881583_);" d="M682.9,404.4
			L670,405l-2.8,4.2c-4.2,6.1-11.4,11.7-19.3,14.8c-11.9,4.5-17,6.7-17.5,7.4c-0.3,0.4-3.3,2.4-6.7,4.5s-7,4.7-7.9,5.7
			c-0.9,1-2.3,1.9-3.1,1.9c-0.7,0-1.3,0.4-1.3,0.8c0,0.5-2.1,1.8-4.7,3c-2.7,1.2-5.7,2.8-6.8,3.5c-6.3,4-9.7,5.7-11.2,5.7
			c-1.7,0-1.8,2.3-2.1,33.8c-0.2,18.5-0.6,35-0.9,36.7c-1.5,8.9-2,22.4-2.2,53.9c-0.2,31.6-1,44-3,45.6c-1,0.8-4.1,10.6-4.1,12.9
			c0,1.1,0.5,2.1,1,2.1c0.6,0,1,1.3,1,2.9c0,6.7,3.1,11.1,7.9,11.1c1.2,0,2.1,0.6,2.1,1.3s1.4,3.2,3.1,5.5c3.4,4.7,7.9,6.4,15.6,6
			c4.1-0.2,5.3-0.8,10.9-6c3.4-3.2,6.7-7.2,7.4-8.8c0.9-2.1,1.9-3,3.6-3c2.7,0,10.6-7.5,12.5-11.9c0.7-1.6,3.2-4.1,5.6-5.6
			c5.1-3.2,7.3-6,7.3-9.5c0-1.5,1.4-4.1,3.5-6.3c3.7-4.1,9.5-12.1,9.5-13.3c0-0.4,2.3-3.1,5-6c4.7-5,5-5.6,5-10.6
			c0-4.5,0.6-6.5,3.6-11.4c4.4-7,7.4-12.9,7.4-14.3c0-0.6,1.5-3.4,3.3-6.3c1.8-2.9,3.9-7.3,4.6-9.7c0.7-2.5,2.8-7.6,4.6-11.5
			c1.8-3.9,3.6-8.7,4-10.6c0.4-1.9,2.4-7.2,4.6-11.7c2.2-4.6,5.5-13.1,7.5-19c1.9-6,3.9-11.7,4.3-12.8c0.5-1.1,1.4-3.6,2.1-5.5
			s1.9-5,2.7-6.9c0.8-1.8,1.8-7.8,2.2-13.1c0.5-8,1-10.3,2.7-12.2c1.5-1.6,2.2-3.8,2.3-7.3c0.1-2.7,0.6-5.4,1.1-5.9
			c0.6-0.6,1-4.5,1-8.8c0-6.8-0.2-7.8-1.8-7.8c-1,0-2.2-0.4-2.7-0.8c-0.6-0.5-4.1-1.9-8-3.2c-3.8-1.3-7.4-2.6-8-3
			C713.3,404.3,697.1,403.8,682.9,404.4z"/>
	</g>
	<g id="layer-4">
		
			<linearGradient id="region-4-1_00000088104496367703839110000010928126034456015753_" gradientUnits="userSpaceOnUse" x1="-990.0066" y1="737.4208" x2="-988.5589" y2="738.2566" gradientTransform="matrix(58.6042 0 0 114.7415 58583.5625 -84290.2109)">
			<stop  offset="0" style="stop-color:#779F87;stop-opacity:0.798"/>
			<stop  offset="1" style="stop-color:#77A088;stop-opacity:0.801"/>
		</linearGradient>
		<path id="region-4-1" style="fill:url(#region-4-1_00000088104496367703839110000010928126034456015753_);" d="M600.2,304.5
			c-2.1,0.4-4.8,1.5-6,2.6c-3.3,2.6-12.8,12.4-12.8,13c0,0.3-1.4,3.5-3.1,7.2c-1.8,3.7-4.3,11.9-5.6,18.2c-2.2,10.1-2.4,13.3-2,25.7
			c0.4,12.2,0.9,15.2,3.2,21.5c4.8,13.3,6.8,17.3,10.9,21.5c3.9,4.2,4.2,4.3,10.5,4.3c8.6,0,12.3-2.6,19.7-13.8
			c7.4-11.2,9.7-17.9,12.4-35.2c2.8-18,2.3-26.7-2.1-40.5c-3.7-11.2-7.6-17.6-13.7-22.2C607.1,303.4,606.4,303.2,600.2,304.5z"/>
	</g>
</g>
<g id="图层_3_00000081605967938095891220000007666397821412112528_">
	<g id="layer-1_00000017500029295467273530000000505749494762217885_">
		
			<linearGradient id="region-1-1_00000121249528152751481890000018363468641762196648_" gradientUnits="userSpaceOnUse" x1="-1002.2455" y1="737.574" x2="-1001.0207" y2="737.5017" gradientTransform="matrix(382.5659 0 0 689.8447 384611.1562 -508435.875)">
			<stop  offset="0" style="stop-color:#922A22;stop-opacity:0.992"/>
			<stop  offset="1" style="stop-color:#A87576;stop-opacity:0.992"/>
		</linearGradient>
		
			<path id="region-1-1_00000052796018283700391080000005296618000114289073_" style="fill:url(#region-1-1_00000121249528152751481890000018363468641762196648_);" d="
			M1400.5,9c-10.5,1.1-25.2,4.5-28.5,6.7c-1.1,0.7-2.5,1.3-3.2,1.3c-0.7,0-6.4,3.3-12.6,7.3c-6.1,4-12.8,8.3-14.7,9.4
			c-1.9,1.2-5.1,3.8-7,5.9c-1.9,2-5.3,5-7.5,6.6c-9,6.6-15.5,13.1-15,14.9c0.4,1.3-0.8,2.8-4.5,5.6c-4.5,3.3-7.6,6.8-15.4,17.7
			c-1.1,1.5-4.6,6-7.8,9.9c-3.1,4-6.5,8.8-7.4,10.7s-2.4,4.4-3.4,5.5c-4.6,5.2-13.1,21.6-14.4,27.6c-0.3,1.4-1.5,3.6-2.6,4.9
			s-2,3.1-2,4c0,1-0.6,2.3-1.4,2.9c-0.7,0.6-1.9,3.3-2.6,5.9s-2.3,5.7-3.6,6.9c-1.2,1.2-2.5,3.6-2.9,5.3s-1.3,4.3-2.1,5.8
			c-0.8,1.5-1.4,3.5-1.4,4.5s-0.7,2-1.5,2.3c-0.8,0.4-1.3,0.9-1.1,1.3c0.6,0.9-4.1,14.8-9.4,28.1c-2.4,5.7-4.2,11.5-4.2,12.7
			c0,1.3-0.4,2.3-0.9,2.3s-0.9,0.7-0.9,1.5c0,0.9-0.7,3-1.6,4.6c-0.8,1.7-2.4,6.5-3.5,10.7c-1,4.2-2.6,8-3.3,8.4
			c-0.9,0.5-1.8,3.3-2.2,6.6c-0.3,3.1-1.3,7.4-2.1,9.5c-0.9,2-1.3,5-1.1,6.7c0.2,1.6,0.1,2.7-0.4,2.4c-1-0.6-0.9-0.9-1.3,9.6
			c-0.1,4.7-0.8,9.8-1.4,11.3c-0.6,1.6-1.1,5.2-1.1,8.1c0,2.9-0.3,5.6-0.7,6c-0.4,0.3-0.8,3-1,5.8c-0.2,2.8-0.7,5.6-1.2,6.2
			c-2.7,3.3-6.2,60.6-4.2,68.3c0.6,2.4,1.5,6,2,8c0.5,2.1,1.5,16.8,2.1,32.8c0.7,15.9,1.6,29.4,2,30c0.4,0.5,1,3.4,1.4,6.3
			c0.9,7.3,4,19,6,23.2c1.3,2.8,1.4,3.1,0.1,1.6c-1.5-2-1.5-2-1.5,0.1c0,1.1,0.5,3.3,1,4.9c0.6,1.6,1.9,7.4,2.9,12.9
			c3.3,17.6,9.9,41.6,15,54.5c8.8,22.6,10.3,26.9,9.5,28.1c-0.4,0.7-0.3,0.9,0.3,0.6c0.6-0.4,1.4,0.5,1.7,2.1
			c0.4,1.5,1.8,4.9,3.2,7.5c1.4,2.6,2.2,5.3,1.8,5.9s-0.3,0.8,0.3,0.5c0.5-0.3,2,1.5,3.3,4.1c2,4.2,6.7,11.9,8,13.2
			c0.7,0.7,2.9,4.2,3.7,6c0.4,0.8,1.7,2.6,3,4c1.3,1.4,2.3,2.8,2.3,3.1c0,1.9,29.2,31.9,30.9,31.9c0.6,0,3.1,1.5,5.5,3.4
			c2.4,1.8,5.8,4,7.5,4.7c1.7,0.8,3.1,1.7,3.1,2.1c0,0.5,0.6,0.8,1.4,0.8c0.7,0,1.9,0.7,2.6,1.5s3,2,5.1,2.7c2.2,0.6,3.9,1.5,3.9,2
			c0,0.4,0.8,0.8,1.8,0.8c0.9,0,3,0.7,4.6,1.5c1.5,0.8,3.9,1.5,5.2,1.5c1.3,0,2.4,0.4,2.4,0.9s2.1,1.2,4.8,1.6
			c2.6,0.4,5.3,1.2,6.1,1.8c1.9,1.6,39.9,1.6,40.9,0c0.4-0.6,2.8-1.4,5.5-1.8c2.6-0.4,5-1.1,5.3-1.6c0.3-0.5,1.8-0.9,3.4-0.9
			s3.1-0.4,3.5-0.9c0.3-0.5,1.9-1.2,3.5-1.6c1.7-0.4,3-1.1,3-1.6s0.6-0.9,1.4-0.9c1.9,0,5.1-1.4,10.1-4.5c2.2-1.3,5.5-3.2,7.3-4.1
			c1.7-1,3.2-2.1,3.2-2.6c0-0.4,0.7-0.8,1.5-0.8s1.5-0.4,1.5-0.8s1.5-1.6,3.3-2.7c3.5-2,8-5.9,13.9-11.8c2-2,4-3.7,4.3-3.7
			c0.8,0,1.1-0.4,10.5-11c4.1-4.7,8.3-9.2,9.3-10.1c0.9-0.9,1.7-2.1,1.7-2.8c0-0.6,0.4-1.1,1-1.1c0.5,0,1.7-1.5,2.6-3.3
			c0.9-1.7,3.2-4.8,5-6.7c1.9-1.9,3.4-4,3.4-4.6c0-0.6,1.4-2.9,3.1-5c1.7-2.2,4.1-5.6,5.2-7.7c1.2-2.1,3.4-6,5-8.5
			c1.5-2.6,3-5.5,3.3-6.5c0.4-0.9,1-1.7,1.4-1.7s1.1-1.1,1.4-2.5c0.4-1.4,1.1-2.5,1.6-2.5c0.6,0,1-1.3,1-2.9c0-1.6,0.6-3.1,1.5-3.5
			c0.8-0.3,1.5-1.2,1.5-2.1c0-0.8,0.4-1.5,0.8-1.5c0.5,0,1.5-1.9,2.2-4.3c0.8-2.3,1.9-4.9,2.6-5.7c0.7-0.8,1.6-2.7,1.9-4.3
			c0.4-1.5,1-2.7,1.4-2.7s1.5-2.7,2.5-6s2.2-6,2.7-6s0.9-0.8,0.9-1.8c0-0.9,0.6-2.8,1.3-4.2c0.7-1.4,1.9-4.5,2.7-7
			c0.7-2.5,1.7-5,2-5.5c0.4-0.6,1.5-3.5,2.5-6.5c0.9-3,2.1-6.3,2.6-7.2c0.5-1,0.9-2.5,0.9-3.4c0-0.9,0.6-2.8,1.4-4.2
			c2-4.1,4.6-12.7,4.6-15.5c0-1.4,0.4-2.8,0.9-3.2c0.6-0.3,1.3-2.6,1.7-5c0.3-2.5,1-4.5,1.4-4.5s1.5-4.6,2.5-10.3
			c0.9-5.6,2.1-10.7,2.5-11.2c0.4-0.6,1.1-3.3,1.5-6c0.4-2.8,1-5.2,1.5-5.5c0.4-0.3,1.5-6.6,2.4-14c1-7.4,2.1-13.9,2.7-14.5
			c0.5-0.5,0.9-2.7,0.9-5c0.1-2.2,0.6-6,1.1-8.5c1-4.4,1.9-11.7,3.9-35c0.5-6.3,1.4-16,1.9-21.5c1.3-13.1,1.3-46.9,0-56.5
			c-0.5-4.1-1.4-14.5-2-23c-1.7-26-2.6-36.3-3.8-40.5c-0.6-2.2-1.1-5.9-1.1-8.2s-0.4-4.4-0.9-4.7c-0.4-0.3-1.6-5.6-2.6-11.8
			s-2.2-11.8-2.6-12.4c-0.5-0.6-1.2-3.2-1.5-5.8c-0.4-2.5-1-4.6-1.3-4.6c-0.4,0-1.5-4.3-2.6-9.5c-1-5.2-2.2-9.5-2.6-9.5
			s-1-1.8-1.4-4s-1.1-4-1.6-4s-0.9-1-0.9-2.1c0-2.6-3.2-12.3-4.2-12.7c-0.5-0.2-0.8-1.1-0.8-2.1c0-0.9-0.7-2.6-1.5-3.7
			c-0.8-1-1.5-2.7-1.5-3.7c0-0.9-0.4-2.5-0.9-3.5c-0.5-0.9-2.1-4.4-3.6-7.7c-1.5-3.3-3.8-8-5.1-10.5c-1.3-2.5-3.1-6.2-4-8.3
			c-0.9-2-2-3.7-2.5-3.7s-0.9-0.6-0.9-1.3c0-0.8-1.1-2.7-2.5-4.3s-2.5-3.4-2.5-4.1c0-0.7-1.3-2.6-3-4.3c-1.6-1.7-3-3.6-3-4.3
			c0-0.7-2.1-3.4-4.5-6.1c-2.5-2.7-4.5-5.2-4.5-5.7c0-0.8-15.2-16.3-18.6-18.9c-1-0.8-3.9-3.1-6.4-5c-2.4-1.9-5.8-4.7-7.5-6.3
			c-1.6-1.5-3.9-3-5-3.3c-1.1-0.4-2.8-1.4-3.7-2.3c-2.8-2.6-4.7-4.1-5.3-4.1c-0.3,0-4.3-1.7-8.8-3.8c-4.5-2.2-11.3-4.7-15.2-5.7
			c-3.8-1-7.4-2.1-8-2.5C1428.4,8.9,1408.8,8.2,1400.5,9z"/>
		
			<linearGradient id="region-1-2_00000044882400318027898740000014385663119482283193_" gradientUnits="userSpaceOnUse" x1="-1002.1263" y1="737.6829" x2="-1000.7461" y2="737.4775" gradientTransform="matrix(371.2282 0 0 593.7311 372988.0312 -437588.8438)">
			<stop  offset="0" style="stop-color:#D52E21;stop-opacity:0.99"/>
			<stop  offset="1" style="stop-color:#ED7867;stop-opacity:0.997"/>
		</linearGradient>
		
			<path id="region-1-2_00000181079630004898880080000007597372047785688240_" style="fill:url(#region-1-2_00000044882400318027898740000014385663119482283193_);" d="
			M1358.5,21.3c-1.4,0.6-2.7,1.4-3,1.7c-0.7,0.7-3.8,2.6-8.4,5.1c-2.2,1.2-4.6,2.8-5.4,3.5c-0.7,0.8-1.8,1.4-2.3,1.4
			c-0.9,0-3,1.6-8.8,6.7c-2,1.8-3.9,3.3-4.3,3.3c-0.4,0-2.2,1.6-4.1,3.5c-1.9,1.9-3.9,3.5-4.6,3.5c-0.6,0-1.1,0.4-1.1,0.8
			c0,1.3-5.6,7.2-6.8,7.2c-0.6,0-1.4,1.1-1.8,2.5c-0.3,1.4-1.8,3.2-3.3,4.1c-1.4,0.9-4.4,4.1-6.6,7.1c-2.2,3.1-5.9,7.6-8.2,10.1
			c-2.4,2.5-4.3,5.2-4.3,5.9c0,0.7-0.4,1.3-1,1.3c-0.5,0-1,0.7-1,1.5c0,0.8-0.4,1.5-1,1.5c-0.5,0-1.7,1.4-2.5,3.1
			c-0.9,1.7-3.2,5.1-5.1,7.6c-1.9,2.4-3.7,5.5-4,6.9c-0.3,1.3-0.9,2.4-1.3,2.4s-2.3,3-4.2,6.7c-1.8,3.8-3.7,7-4,7.3
			c-0.3,0.3-1.4,2.1-2.3,4.1s-2.8,4.2-4.2,5c-1.4,0.7-3.6,2.5-4.8,3.9c-1.2,1.4-4,3.4-6.1,4.4c-2.2,1.1-5.4,3-7.2,4.3
			c-1.7,1.3-3.6,2.3-4.2,2.3c-1.4,0-7.1,3.4-7.1,4.2c0,0.5-0.7,0.8-1.5,0.8s-1.5,0.4-1.5,1c0,0.5-1.1,1-2.5,1s-2.5,0.4-2.5,1
			c0,0.5-0.6,1-1.3,1c-0.8,0-2.4,0.9-3.7,2c-1.3,1.1-2.9,2-3.7,2c-0.7,0-1.3,0.4-1.3,1c0,0.5-0.9,1-1.9,1c-2,0-7.5,2.6-9.7,4.5
			c-0.6,0.6-3.1,1.7-5.5,2.5s-5,2-5.7,2.7c-0.7,0.7-2.2,1.3-3.3,1.3s-2.6,0.6-3.4,1.3c-0.7,0.7-3.8,1.9-6.9,2.7
			c-3.1,0.7-5.6,1.7-5.6,2.2c0,0.4-1,0.8-2.3,0.8c-1.2,0-4.8,0.9-8,2c-3.1,1.1-6.8,2-8.2,2c-1.5,0-4.7,0.9-7.3,2
			c-2.6,1-6.3,2.2-8.2,2.5c-13.6,2.4-28.1,4.4-31,4.5c-2,0-4,0.4-4.5,0.9c-2,1.9-13.2,4.1-17.7,3.5c-3.2-0.4-4.8-0.2-5.9,0.8
			c-0.8,0.8-4.5,2.5-8.3,3.9c-5.2,1.8-8.3,3.7-12.2,7.4c-2.8,2.7-9.1,8.8-13.9,13.5c-8.8,8.5-18.7,21.8-23.9,32.1
			c-1.6,3-4.3,8.3-6.2,11.9c-1.9,3.5-3.4,7.1-3.4,8c0,1.8-3.8,14.7-5.1,17.3c-0.5,1-1.4,4.9-1.8,8.8c-0.5,3.8-1.6,8.1-2.5,9.4
			c-1.8,2.8-2.1,5.2-0.6,5.7c1,0.3,0.4,3.1-3.1,14.5c-0.6,1.8-0.8,5.2-0.5,7.5c0.3,2.4,0.8,7.1,1.1,10.6c0.2,3.4,0.9,9.1,1.4,12.5
			c0.6,3.4,1.2,7.8,1.5,9.7c0.8,6.2,2.8,14.5,3.5,15c0.4,0.3,1.8,2.3,3.1,4.5c1.3,2.2,3,4.4,3.7,4.8c0.7,0.4,1.3,1.4,1.3,2.2
			c0,0.7,0.3,1.5,0.8,1.7c0.4,0.1,1.8,2.5,3.1,5.3c1.3,2.7,3.9,7.3,5.6,10c1.8,2.8,4,6.9,5.1,9c1,2.2,4.5,6.7,7.7,9.9
			c3.2,3.3,6.9,7.2,8.1,8.7c3,3.5,11.9,9.9,13.9,9.9c0.9,0,1.8,0.4,2.1,0.9c0.3,0.5,2.2,1.2,4.2,1.6c2,0.3,4.6,1.2,5.8,1.9
			c1.2,0.8,4.9,1.9,8.4,2.7c3.4,0.7,6.2,1.7,6.2,2.1s1.8,1.1,4,1.4c2.2,0.4,4,1,4,1.5s1.3,0.9,2.9,0.9c1.7,0,3.2,0.4,3.5,0.9
			c0.3,0.5,2.1,1.2,4,1.5c1.9,0.4,5.4,1.7,7.8,2.9c2.3,1.2,6.1,2.8,8.3,3.6c2.2,0.7,4.7,1.9,5.5,2.5c2.1,1.7,12,6.6,13.3,6.6
			c1.2,0,10.4,5.7,13.1,8.2c1.1,1,2.6,1.8,3.3,1.8c0.8,0,1.6,0.7,1.9,1.5c0.4,0.8,1,1.3,1.4,1c0.4-0.3,2.4,0.6,4.4,2
			s4.3,2.5,5.1,2.5s1.5,0.4,1.5,1c0,0.5,0.6,1,1.3,1c0.8,0,2.4,0.9,3.7,2c3,2.6,3.4,2.5,5.4-0.5c1.3-2,2.5-2.5,6-2.5
			c4.6,0,15.8,2,16.6,2.9c1.6,1.9,8.5,4.4,12.3,4.5l4.5,0.1l1.2,6c1.3,6.9,2,9.7,6.2,25c1.6,6,3.2,12.1,3.5,13.5
			c0.3,1.4,1.1,3.9,1.9,5.7c0.8,1.7,1.4,3.8,1.4,4.7c0,0.9,0.4,1.6,0.9,1.6s1.2,1,1.6,2.2c1.8,6.8,2.9,9.8,3.7,9.8
			c0.4,0,0.8,0.6,0.8,1.2c0,0.7,0.6,2.5,1.4,3.9c0.7,1.4,1.6,3.7,2,5.2c0.3,1.5,1.1,2.7,1.7,2.7s0.8,0.4,0.5,0.9
			c-0.7,1,8.1,18.8,9.6,19.8c0.6,0.3-0.6-2.5-2.5-6.3c-2-3.8-5.4-12.1-7.7-18.4s-6.4-17.1-9.1-24c-5.1-12.8-11.7-36.8-15-54.5
			c-1-5.5-2.3-11.3-2.9-12.9c-0.5-1.6-1-3.8-1-4.9c0-2.1,0-2.1,1.5-0.1c1.3,1.5,1.2,1.2-0.1-1.6c-2-4.2-5.1-15.9-6-23.2
			c-0.4-2.9-1-5.8-1.4-6.3c-0.4-0.6-1.3-14.1-2-30c-0.6-16-1.6-30.8-2.1-33c-0.6-2.2-1.5-5.8-2.1-8c-1.9-7.5,1.7-64.9,4.3-68.1
			c0.5-0.6,1-3.4,1.2-6.2c0.2-2.8,0.6-5.5,1-5.8c0.4-0.4,0.7-3.1,0.7-6c0-2.9,0.5-6.5,1.1-8.1c0.6-1.5,1.3-6.6,1.4-11.3
			c0.4-10.5,0.3-10.2,1.3-9.6c0.5,0.3,0.6-0.8,0.4-2.4c-0.2-1.7,0.2-4.7,1.1-6.7c0.8-2.1,1.8-6.4,2.1-9.5c0.4-3.3,1.3-6.1,2.2-6.6
			c0.7-0.4,2.3-4.2,3.3-8.4c1.1-4.2,2.7-9,3.5-10.7c0.9-1.6,1.6-3.7,1.6-4.6c0-0.8,0.4-1.5,0.9-1.5s0.9-1,0.9-2.3
			c0-1.2,1.8-7,4.2-12.7c5.3-13.3,10-27.2,9.4-28.1c-0.2-0.4,0.3-0.9,1.1-1.3c0.8-0.3,1.5-1.3,1.5-2.3s0.6-3,1.4-4.5
			c0.8-1.5,1.7-4.1,2.1-5.8s1.7-4.1,2.9-5.3c1.3-1.2,2.9-4.3,3.6-6.9s1.9-5.3,2.6-5.9c0.8-0.6,1.4-1.9,1.4-2.9c0-0.9,0.9-2.7,2-4
			s2.3-3.5,2.6-4.9c1.3-6,9.8-22.4,14.4-27.6c1-1.1,2.5-3.6,3.4-5.5s4.3-6.7,7.4-10.7c3.2-3.9,6.7-8.4,7.8-9.9
			c7.8-10.9,10.9-14.4,15.4-17.7c3.7-2.8,4.9-4.3,4.5-5.6c-0.4-1.3,1.2-3.2,5.5-7.1c3.2-2.9,7-5.9,8.2-6.8c1.3-0.8,4.8-3.9,7.8-6.7
			c3-2.9,9.1-7.5,13.5-10.2C1361.5,21.2,1365.8,17.9,1358.5,21.3z"/>
		
			<linearGradient id="region-1-3_00000053505794249946512400000010331268864943010436_" gradientUnits="userSpaceOnUse" x1="-990.7279" y1="737.4033" x2="-989.4916" y2="738.1155" gradientTransform="matrix(111.8 0 0 118.9023 111729.8047 -87461.8281)">
			<stop  offset="0" style="stop-color:#AC3921"/>
			<stop  offset="1" style="stop-color:#764357"/>
		</linearGradient>
		
			<path id="region-1-3_00000178924762173382648530000014975312303355504776_" style="fill:url(#region-1-3_00000053505794249946512400000010331268864943010436_);" d="
			M1063.5,198.7c-3.5,0.2-6.9,0.8-7.5,1.2c-0.5,0.4-3.7,1.3-7,2c-3.3,0.7-7.6,2.1-9.5,3c-1.9,1-5.4,2.4-7.7,3.1
			c-2.4,0.7-4.3,1.7-4.3,2.2c0,0.4-0.6,0.8-1.3,0.8c-0.8,0-2.7,1.1-4.3,2.5c-1.6,1.4-3.7,2.8-4.7,3.1s-2.9,1.6-4.2,3
			c-1.3,1.3-3.3,2.4-4.4,2.4c-1.1,0-2.5,0.9-3.1,1.9c-0.5,1.1-1.6,2.5-2.3,3.3c-1.9,2-4.7,6.6-4.7,7.8c0,0.5-1.6,3.2-3.5,5.9
			c-1.9,2.6-3.8,6.4-4.1,8.2c-0.6,2.9-2.1,6.1-7.2,15.4c-2.5,4.6-4.5,18.9-2.1,15.5c1.6-2.3,0,4.7-2.2,9.6c-1.3,3-2,7.4-2.3,15.5
			l-0.4,11.4l8.1,0.3l8.2,0.3l1.9-3.1c1-1.7,2.2-6.3,2.7-10c0.4-3.8,1.3-7.7,1.8-8.7c1.3-2.6,5.1-15.5,5.1-17.3c0-0.9,1.5-4.5,3.4-8
			c1.9-3.6,4.6-8.9,6.2-11.9c5.2-10.3,15.1-23.6,23.9-32.1c4.8-4.7,11.1-10.8,13.9-13.5c3.9-3.7,7-5.6,12.2-7.4
			c3.8-1.4,7.5-3.1,8.3-3.9c1-1,2.7-1.2,5.8-0.8c4.7,0.6,10.3-0.2,10.3-1.5C1088.5,198,1077.3,198,1063.5,198.7z"/>
		
			<linearGradient id="region-1-4_00000168103799115899329110000001788465559237546394_" gradientUnits="userSpaceOnUse" x1="-993.3403" y1="737.2039" x2="-992.1308" y2="738.0671" gradientTransform="matrix(133.666 0 0 175.1109 133651.7188 -128866.5391)">
			<stop  offset="0" style="stop-color:#D86862;stop-opacity:0.993"/>
			<stop  offset="1" style="stop-color:#AE362A;stop-opacity:0.996"/>
		</linearGradient>
		
			<path id="region-1-4_00000147899157714766102400000013920952607686591657_" style="fill:url(#region-1-4_00000168103799115899329110000001788465559237546394_);" d="
			M1005.5,220c-3.6,0.4-17.3,1.1-30.5,1.5c-13.2,0.3-26,1.1-28.5,1.6c-4.5,1-21.2,8.7-21.8,10.1c-0.2,0.5-0.9,0.8-1.6,0.8
			c-0.6,0-1.9,0.8-2.7,1.7c-0.9,1-4.8,4.3-8.7,7.3c-4,3-7.2,6.1-7.2,6.8s-0.7,1.5-1.5,1.8s-2.9,2.9-4.7,5.7c-1.8,2.9-3.6,5.3-4,5.5
			c-0.5,0.2-0.8,1-0.8,1.7c0,0.8-0.6,1.8-1.3,2.2c-0.6,0.4-1.8,2.6-2.6,4.8c-1.6,4.7-3.5,9.5-6.1,15c-3,6.3-4,13.5-3.9,28.8
			c0,16.6,2.2,36.1,4,37.3c0.5,0.3,0.9,1.3,0.9,2.2c0,0.9,1.4,4.4,3,7.6c1.7,3.2,3,6.7,3,7.8c0,1,1,2.9,2.3,4.1
			c1.2,1.2,3.1,3.5,4.2,5.2c4.4,6.9,12.3,11.4,20,11.5c1.7,0,3.5,0.4,4.1,1c0.5,0.5,3.8,1.3,7.2,1.6l6.2,0.7v-12.2
			c0-7.1-0.4-12.1-1-12.1c-0.5,0-0.9-5-0.8-12.5c0.1-6.9,0.4-12.5,0.8-12.5c0.3,0,1.4-1.4,2.3-3c1-1.7,2.5-3,3.4-3
			c1,0,1.3-0.6,0.9-1.6c-1.1-2.8,1.3-4.4,6.4-4.4c4.3,0,5.3-0.5,9.6-4.5c3.2-3.1,5.6-4.5,7.5-4.5c2.8,0,6.9-3.9,6.9-6.6
			c0-1.4,1.1-1.8,4.1-1.5c1.9,0.2,3.1-6.6,2.8-15.9c-0.1-3.7,0.5-7,1.8-10c2.4-5.2,4.1-12.4,2.4-10c-2.4,3.4-0.4-10.9,2.1-15.5
			c5.1-9.3,6.6-12.5,7.2-15.4c0.3-1.8,2.2-5.6,4.1-8.2c1.9-2.7,3.5-5.4,3.5-5.9c0-1.2,2.8-5.8,4.7-7.8c0.7-0.8,1.8-2.2,2.3-3.3
			c0.6-1,1.9-1.9,2.8-1.9c1,0,2.7-0.7,3.8-1.5c1-0.8,1.5-1.4,0.9-1.3C1012.5,219.2,1009.1,219.6,1005.5,220z"/>
		
			<linearGradient id="region-1-5_00000125600803602090625090000005885573073516064936_" gradientUnits="userSpaceOnUse" x1="-999.7864" y1="737.6109" x2="-998.7082" y2="737.5579" gradientTransform="matrix(252.7726 0 0 291.1069 253645.0938 -214259.2031)">
			<stop  offset="0" style="stop-color:#B75045"/>
			<stop  offset="1" style="stop-color:#5F050E"/>
		</linearGradient>
		
			<path id="region-1-5_00000023266935887677943470000003626396849114662559_" style="fill:url(#region-1-5_00000125600803602090625090000005885573073516064936_);" d="
			M971.8,315.7c-0.7,0.3-1.3,1-1.3,1.7c0,2.7-4.1,6.6-6.9,6.6c-1.9,0-4.3,1.4-7.5,4.5c-4.3,4-5.3,4.5-9.6,4.5
			c-5.1,0-7.5,1.6-6.4,4.4c0.4,1,0.1,1.6-0.9,1.6c-0.9,0-2.4,1.3-3.4,3c-0.9,1.6-2,3-2.3,3c-0.4,0-0.7,5.6-0.8,12.5
			c-0.1,7.5,0.3,12.5,0.8,12.5c1.6,0,1.3,23.7-0.2,24.4c-1,0.5-1,0.7,0,1.2c0.6,0.3,1.2,1.8,1.2,3.4s0.4,3,1,3.2
			c0.5,0.2,1.2,7.8,1.6,17.8c0.3,9.6,0.9,18.4,1.4,19.5c0.8,2.1,2.8,29,3.5,49.5c0.3,6.3,0.9,16,1.5,21.5c0.5,5.5,1.4,14.3,2,19.5
			c0.5,5.2,1.6,18.3,2.5,29c1.3,15.9,1.9,19.8,3.3,20.9c1.3,1,1.4,1.4,0.4,1.8c-1.4,0.5,19.2,12.3,21.5,12.3c0.7,0,1.3,0.4,1.3,1
			c0,0.5,0.4,1,0.9,1s4.6,2.2,9.1,5c4.5,2.7,9.1,5.2,10.4,5.6c1.3,0.3,4.5-0.6,8.1-2.4c3.3-1.6,8.3-3.5,11-4.2
			c2.8-0.7,5.7-1.9,6.6-2.7c0.8-0.7,2.5-1.3,3.8-1.3c1.2,0,2.4-0.7,2.7-1.5c0.4-0.8,1.7-1.5,2.9-1.5c1.3,0,2.7-0.4,3-1
			c0.3-0.5,1.5-1,2.6-1s2.7-0.7,3.5-1.5c0.9-0.8,2.4-1.5,3.4-1.5s2-0.6,2.3-1.4c0.3-0.7,3.3-1.9,6.6-2.7c3.4-0.7,6.1-1.6,6.1-2
			c0-0.4,1.3-1,2.9-1.4c1.6-0.3,3.2-1.3,3.5-2.1c0.3-0.8,1.7-1.4,3.1-1.4s3.3-0.4,4.3-0.9c0.9-0.5,3.3-1.7,5.2-2.6
			c1.9-0.9,5.1-2.4,7-3.4c8.9-4.6,14.7-7.1,16.7-7.1c2.5,0,9.3-3.7,9.3-5.1c0-0.5,0.9-0.9,1.9-0.9c1.1,0,2.3-0.5,2.6-1
			c0.3-0.6,1.9-1,3.5-1c1.5,0,3-0.7,3.4-1.5c0.3-0.8,1.7-1.5,3.1-1.5s2.8-0.6,3.1-1.4c0.3-0.7,2.2-1.6,4.3-2
			c2.1-0.3,4.8-1.5,6.1-2.6c1.3-1.1,2.9-2,3.7-2c0.7,0,1.3-0.4,1.3-0.9s1.4-1.3,3.2-1.6c3-0.7,6.7-2.3,7.8-3.5c1-1.1,6.1-3,7.9-3
			c1,0,2.6-0.9,3.6-2c1-1.1,2.1-1.7,2.5-1.5c0.5,0.3,3.1-0.6,5.8-2c2.7-1.4,5.7-2.5,6.6-2.5s1.6-0.5,1.6-1c0-0.6,0.6-1,1.4-1
			c0.8,0,1.8-0.5,2.1-1c1-1.6-0.5-5-2.1-5c-0.8,0-1.4-0.5-1.4-1c0-0.6-0.5-1-1.1-1s-2.3-1.2-3.9-2.8c-3.7-3.6-5.7-5.2-6.8-5.2
			c-0.5,0-1.9-0.9-3.2-2s-2.9-2-3.7-2c-0.7,0-1.3-0.5-1.3-1c0-0.6-0.7-1-1.5-1s-3-1.1-5-2.4c-3.5-2.4-3.7-2.4-6.8-0.8
			c-1.8,0.9-3.3,2-3.5,2.4c-0.2,0.5-1.2,0.8-2.2,0.8s-2.2,0.4-2.5,1c-0.3,0.5-1.5,1-2.5,1s-2.5,0.6-3.2,1.3
			c-0.7,0.8-2.6,1.7-4.1,2.1c-1.5,0.3-2.7,1.1-2.7,1.6c0,0.6-1.1,1-2.4,1c-1.4,0-2.8,0.4-3.1,1c-0.3,0.5-1.7,1-2.9,1
			c-1.3,0-2.9,0.7-3.6,1.5c-0.6,0.8-2.2,1.7-3.3,2.1c-2.1,0.6-9.3,3.7-12.9,5.5c-1,0.5-2.3,0.9-3,0.9c-0.6,0-2,0.7-2.9,1.6
			c-1,0.9-3,1.7-4.4,1.6c-1.4,0-2.8,0.4-3.1,0.9c-0.7,1.2-5.9,3.5-12.6,5.5c-3.2,1-5.8,2.1-5.8,2.5c0,0.4-1.1,1-2.5,1.3
			c-1.4,0.4-2.5,1.1-2.5,1.6c0,0.6-0.7,1-1.6,1c-2.4,0-11.4,3.3-11.4,4.2c0,0.5-1.1,0.8-2.4,0.8c-1.4,0-3.1,0.7-4,1.5
			c-0.8,0.8-2.1,1.5-2.9,1.5c-0.8,0-2.8,0.7-4.3,1.5c-1.6,0.8-3.6,1.5-4.6,1.5c-0.9,0-1.8,0.3-2,0.7c-0.5,1.2-6.8,4.1-11.8,5.4
			c-2.5,0.7-4.9,1.6-5.5,2.1c-0.5,0.4-1.8,0.8-2.8,0.8c-1.1,0-3.4,0.9-5.2,2c-1.9,1.1-3.7,2-4.2,1.9c-0.4-0.1-2.1,0.1-3.6,0.6
			c-1.5,0.4-3.1,0.4-3.5,0c-0.4-0.3-1-12.9-1.3-27.8c-0.9-36.4-2.8-73.7-3.9-76.2c-0.5-1.1-1.1-4.4-1.3-7.4
			c-0.4-5.5-0.9-6.1-6.4-10.1c-1.9-1.3-2.2-2.9-2.8-14.3l-0.7-12.7h4c3.5,0,4.5,0.6,10.3,6.9c3.5,3.8,7.1,7.7,8,8.8
			c0.9,1,3.1,2.9,4.9,4.3s3.8,3.1,4.5,3.7c0.8,0.7,1.7,1.3,2.1,1.3c0.4,0,1.7,0.8,2.8,1.9c1.2,1,4.1,2.9,6.6,4.2s4.7,2.7,5,3
			c0.3,0.4,1.5,0.9,2.8,1.3c1.2,0.4,2.2,1.1,2.2,1.5c0,1.1,12.9,3.4,16.4,3l3-0.4l-4.2-2.7c-2.3-1.6-5.6-4.4-7.4-6.4
			c-1.8-2-5.8-6.2-8.8-9.3c-3.1-3.1-6.4-7.4-7.4-9.6c-1.1-2.1-3.3-6.2-5.1-9c-1.7-2.7-4.3-7.3-5.6-10c-1.3-2.8-2.7-5.2-3.1-5.3
			c-0.5-0.2-0.8-1-0.8-1.7c0-0.8-0.6-1.8-1.3-2.2c-0.7-0.4-2.4-2.6-3.7-4.8c-1.3-2.2-2.7-4.2-3.1-4.5c-0.7-0.5-2.7-8.8-3.5-15
			c-0.3-1.9-0.9-6.3-1.5-9.7c-0.5-3.4-1.2-9.1-1.4-12.5c-0.3-3.5-0.8-8.2-1.1-10.6c-0.3-2.3-0.1-5.7,0.5-7.5
			c3.8-12.5,4.1-13.9,2.8-15.2c-0.8-0.7-5-1.5-10.4-1.8c-5-0.2-9.5-0.7-10-1C973.4,315.5,972.4,315.5,971.8,315.7z"/>
		
			<linearGradient id="region-1-6_00000146482101921441746310000001535891264513898892_" gradientUnits="userSpaceOnUse" x1="-969.4043" y1="737.5088" x2="-968.7516" y2="738.6947" gradientTransform="matrix(48.9921 0 0 44.7614 48676.6758 -32514.1172)">
			<stop  offset="0" style="stop-color:#EA97A5"/>
			<stop  offset="1" style="stop-color:#EEADBB"/>
		</linearGradient>
		
			<path id="region-1-6_00000147178274251992030000000017674032970178490001_" style="fill:url(#region-1-6_00000146482101921441746310000001535891264513898892_);" d="
			M1172.1,506.1c-1.7,2.5-1.2,4.6,1.5,5.4c1.1,0.4,2.7,1.7,3.5,3.1c0.9,1.3,2.3,2.4,3,2.4c0.8,0,1.4,0.4,1.4,1c0,0.5,0.7,1,1.5,1
			s1.7,1.1,2.1,2.5c0.3,1.4,1,2.2,1.5,1.9c1.2-0.7,18.3,12,20.3,15.2c0.9,1.3,2.2,2.4,2.9,2.4c1.3,0,4.7,3.4,4.7,4.8
			c0,0.7,5.1,3.4,5.6,2.9c0.1-0.1-0.9-4.3-2.2-9.2c-3.5-12.5-4.1-15.2-5.4-22l-1.2-6l-4.5-0.1c-3.8-0.1-10.7-2.6-12.3-4.5
			c-0.8-0.9-12-2.9-16.6-2.9C1174.7,504,1173.2,504.5,1172.1,506.1z"/>
	</g>
	<g id="layer-2_00000038372296563053687040000006081263431833696660_">
		
			<linearGradient id="region-2-1_00000147931871867549496250000015028762587947782540_" gradientUnits="userSpaceOnUse" x1="-999.7878" y1="737.3573" x2="-998.1465" y2="737.8969" gradientTransform="matrix(359.6037 0 0 659.2469 361506.375 -485868.9062)">
			<stop  offset="0" style="stop-color:#1A0000;stop-opacity:0.77"/>
			<stop  offset="1" style="stop-color:#AA503D;stop-opacity:0.821"/>
		</linearGradient>
		
			<path id="region-2-1_00000176738644012747126550000004925477228733615547_" style="fill:url(#region-2-1_00000147931871867549496250000015028762587947782540_);stroke:#000000;stroke-miterlimit:10;" d="
			M2207.1,31.8c-0.3,0.5-2.1,0.9-4.1,1c-2,0.1-4,0.4-4.5,0.7c-0.6,0.4-1,0.1-1-0.4c0-0.6-1-1.1-2.2-1c-2.1,0-2.2,0.1-0.4,0.8
			c1.8,0.7,1.8,0.8-0.5,1.4c-1.3,0.4-4,0.7-5.9,0.7s-4.8,0.7-6.4,1.5c-1.5,0.8-3.5,1.5-4.2,1.5c-0.8,0-1.7,0.6-2,1.4
			c-0.3,0.8-2.1,1.7-4,2c-1.9,0.4-3.4,1.1-3.4,1.7c0,0.6-0.4,0.8-0.9,0.4c-0.5-0.3-1.6,0.2-2.4,1c-0.9,0.8-2,1.5-2.4,1.5
			c-0.5,0-2.4,1.1-4.3,2.5c-1.9,1.4-4,2.3-4.6,2.1c-0.6-0.2-1.7,0.6-2.3,1.8c-0.7,1.2-2.8,2.8-4.6,3.5c-1.9,0.6-3.7,2-4,3
			c-0.3,1.1-1.7,2.2-3,2.5c-1.4,0.4-2.5,1.1-2.5,1.6c0,0.6-0.7,1-1.5,1s-1.4,0.3-1.3,0.7c0.4,1.2-4.8,6-7.2,6.8
			c-1.1,0.3-2,1.3-2,2.1c0,0.8-0.7,1.4-1.6,1.4c-0.8,0-1.3,0.4-0.9,0.9c0.3,0.5-0.8,1.8-2.5,2.7c-2,1.3-2.6,2-1.7,2.6
			c0.8,0.5,0.7,0.8-0.5,0.8c-1,0-1.8,0.4-1.8,0.9s-2,2.9-4.5,5.4c-2.5,2.6-4.5,5.1-4.5,5.6c0,0.6-1.2,2.2-2.6,3.6
			c-3.4,3.4-9.3,11.1-10.5,13.8c-1.1,2.5-3.3,6.5-4.8,8.7c-0.6,0.8-2.6,3.8-4.6,6.7c-1.9,2.9-4.3,7.2-5.2,9.5
			c-0.9,2.4-2,4.5-2.4,4.8c-1.2,0.8-12.9,24.2-12.9,25.7c0,1.2-1,3.4-8.9,20.6c-1.7,3.7-3.1,7.5-3.1,8.4c0,1.9-2.2,8.6-3.1,9.3
			c-1,0.9-2.9,7.2-2.9,9.6c0,1.3-0.4,2.4-0.9,2.4c-0.4,0-1.4,2.8-2.1,6.2c-1.4,7.3-2.9,11.8-4,11.8c-0.7,0-1.4,2.8-2.7,11.5
			c-0.3,2.2-0.9,4.2-1.3,4.5c-0.8,0.6-4,12.1-4.7,17c-0.2,1.9-1.1,4.9-1.9,6.7c-0.8,1.7-1.4,3.8-1.4,4.7c0,0.9-0.4,1.6-1,1.6
			c-0.5,0-1,1.7-1,3.7c-0.1,2.1-0.6,5.8-1.1,8.3c-0.6,2.5-1.4,7.4-1.9,11c-0.4,3.6-1.3,10.8-1.9,16c-0.7,5.2-1.6,12.4-2.2,16
			c-3.1,20.4-4.8,86.1-2.3,87.8c0.6,0.4,1.6,7,2.3,14.7c3.3,37.4,7,67.5,8.2,67.5c0.4,0,1.2,3.9,1.9,8.7c0.7,4.9,2.1,11.4,3.1,14.7
			c1.1,3.2,1.9,6.7,1.9,7.7c0,1.1,0.5,1.9,1,1.9c0.6,0,1,0.9,1,2c0,2.9,2.9,13.3,4,14.4c0.5,0.5,1,1.6,1,2.4c0,0.8,0.6,2.8,1.4,4.5
			c0.7,1.8,2.1,5.7,3,8.7c0.9,3.1,2.5,6.9,3.5,8.5c1,1.7,2.4,4.8,3.1,7s2.6,6.1,4.2,8.6c1.5,2.5,2.8,5.2,2.8,5.8
			c0,0.7,1.1,2.9,2.5,4.9s2.5,4.2,2.5,4.9s0.5,1.3,1,1.3c0.6,0,1,0.7,1,1.5c0,0.9,0.5,2.1,1,2.8c4,4.7,5,6.1,5,7
			c0,0.8,3.2,5.2,6.4,8.7c0.7,0.8,1.7,2.5,2,3.7c0.4,1.2,2,3.3,3.7,4.7c1.6,1.4,2.9,2.7,2.9,3c0,0.6,1.6,2.3,10.1,11.2
			c6.1,6.5,15.9,14.4,17.7,14.4c0.7,0,1.2,0.4,1.2,0.9s1.2,1.5,2.8,2.3c1.5,0.7,5.2,2.9,8.2,4.9c6.2,4,12.7,6.5,18.3,7.2
			c2,0.3,4.3,1,5.1,1.6c2.3,1.9,11.7,4.3,17.1,4.4c8,0,19.4-1.2,21.5-2.3c1.5-0.8,2-0.8,2,0.1c0,0.8,0.4,0.9,1.3,0
			c0.9-0.7,1.7-0.7,2.4,0c0.7,0.7,2.4,0.4,5.4-0.9c2.4-1.1,6.8-2.8,9.7-3.7c2.9-0.9,5.8-2.2,6.5-2.9c0.6-0.6,2.7-1.8,4.5-2.5
			c1.8-0.8,3.7-2.1,4.2-3c0.7-1.4,2.2-1.7,7.9-1.5l7.1,0.3l6.4-5.9c3.5-3.3,6.9-7.4,7.6-9c0.9-2.1,1.9-3,3.6-3
			c2.7,0,10.6-7.5,12.5-11.9c0.7-1.6,3.2-4.1,5.6-5.6c5.1-3.2,7.3-6,7.3-9.5c0-1.5,1.4-4.1,3.5-6.3c3.7-4.1,9.5-12.1,9.5-13.3
			c0-0.4,2.3-3.1,5-6c4.7-5,5-5.6,5-10.6c0-4.5,0.6-6.5,3.6-11.4c4.4-7,7.4-12.9,7.4-14.3c0-0.6,1.5-3.4,3.3-6.3
			c1.8-2.9,3.9-7.3,4.6-9.7c0.7-2.5,2.8-7.6,4.6-11.5c1.8-3.9,3.6-8.7,4-10.6c0.4-1.9,2.4-7.2,4.6-11.7c2.2-4.6,5.5-13.1,7.5-19
			c1.9-6,3.9-11.7,4.3-12.8c0.5-1.1,1.4-3.6,2.1-5.5s1.9-5,2.7-6.9c0.8-1.8,1.8-7.8,2.2-13.1c0.5-8,1-10.3,2.7-12.2
			c1.5-1.6,2.2-3.8,2.3-7.3c0.1-2.7,0.6-5.4,1.1-5.9c0.6-0.6,1-4.5,1-8.8c0-7.1-0.2-7.8-1.9-7.8c-2.7,0-3.4-1.5-1.6-3
			c1.2-1,1.5-1,1.5,0s0.3,1,1.5,0c0.8-0.7,1.5-2.3,1.5-3.6c0-1.3,0.4-2.4,0.8-2.4c0.5,0,1.4-4.4,2.1-9.8c0.7-5.3,1.7-12.4,2.3-15.7
			c3.4-19.9,4.8-38.7,4.8-64.5c0-19.3-2-54.4-3.6-64.3c-0.3-2-0.8-4.9-1-6.5c-0.3-1.5-0.7-5.1-1.1-8c-0.3-2.8-0.9-5.2-1.4-5.2
			s-0.9-1.7-0.9-3.8c0-4.5-0.9-8.2-2-8.2c-0.4,0-0.7,1.4-0.6,3c0.3,3.6-1.3,5.3-3.4,4c-1.1-0.7-1.1-1-0.2-1c0.9,0,1.2-3.3,1.1-13.8
			c-0.1-13.9-1.6-24.5-4.2-30.4c-0.9-1.8-1.8-4.5-2.1-6.1c-0.3-1.5-0.9-3.9-1.2-5.5c-0.3-1.5-0.9-3.6-1.4-4.7
			c-0.4-1.1-1.8-4.9-3.1-8.5c-1.2-3.6-2.6-6.9-3.1-7.5c-0.4-0.5-0.8-1.9-0.8-3.2s-0.4-2.3-1-2.3c-0.5,0-1-0.5-1-1.2
			c0-1.1-5.3-13.1-7-15.8c-1.9-3-5.5-11.2-6.5-14.8c-0.4-1.2-1.1-2.2-1.6-2.2c-0.6,0-0.8-0.4-0.5-0.8c0.3-0.5-0.4-1.8-1.4-3
			c-1.1-1.2-2-2.5-2-3c0-1.1-3.1-4.8-10-12c-3.1-3.1-8.2-8.9-11.5-12.7c-9.3-10.8-26.5-27.5-28.5-27.5c-0.6,0-1.3-0.7-1.6-1.5
			c-0.4-0.8-1.6-1.5-2.8-1.5c-1.3,0-2.6-0.3-3-0.7c-0.3-0.4-1.2-0.8-1.9-0.9c-2.4-0.4-6.4-2.3-7.8-3.6c-2.6-2.5-6.8-4.8-8.8-4.8
			c-1,0-2.1-0.7-2.5-1.5c-0.3-0.8-1.4-1.5-2.5-1.5c-1.1,0-2.1-0.4-2.3-0.9c-0.1-0.5-2.5-1.2-5.3-1.5c-7.4-0.9-16.3-2.6-19.3-3.7
			c-1.8-0.7-2.7-0.6-3.3,0.3c-0.7,1-1.2,1.1-2.9,0C2208.2,30.8,2207.8,30.7,2207.1,31.8z"/>
		
			<linearGradient id="region-2-2_00000172410538641819260750000012984669570602838963_" gradientUnits="userSpaceOnUse" x1="-559.8474" y1="742.555" x2="-558.8838" y2="743.5758" gradientTransform="matrix(5.8802 0 0 6.3233 5090.4106 -4436.1602)">
			<stop  offset="0" style="stop-color:#FFF6DF;stop-opacity:0.813"/>
			<stop  offset="1" style="stop-color:#FFFAE3;stop-opacity:0.827"/>
		</linearGradient>
		
			<path id="region-2-2_00000123406886380303659320000006740421456822762626_" style="fill:url(#region-2-2_00000172410538641819260750000012984669570602838963_);stroke:#000000;stroke-miterlimit:10;" d="
			M1798.5,261.8c0,3.6,0.4,4,3.6,3.4c2-0.4,2.5-1,2.2-3.1c-0.2-2-0.9-2.7-3-2.9C1798.8,258.9,1798.5,259.2,1798.5,261.8z"/>
		
			<linearGradient id="region-2-3_00000166642057955768839630000003042639885677127851_" gradientUnits="userSpaceOnUse" x1="-824.4888" y1="737.2815" x2="-824.4888" y2="738.2815" gradientTransform="matrix(14.4468 0 0 124.411 13918.293 -91465.0781)">
			<stop  offset="0" style="stop-color:#FBB5AE;stop-opacity:0.794"/>
			<stop  offset="1" style="stop-color:#FFE4D6;stop-opacity:0.834"/>
		</linearGradient>
		
			<path id="region-2-3_00000013901977460667213580000009008740669799725984_" style="fill:url(#region-2-3_00000166642057955768839630000003042639885677127851_);stroke:#000000;stroke-miterlimit:10;" d="
			M2013.3,262c-3.4,13.6-7.7,37.6-8.5,47.5c-0.3,3.3-0.9,6.5-1.5,7.2c-0.5,0.7-0.7,1.6-0.4,2.1c0.3,0.5-0.2,4.6-1,9.3
			c-1,5.6-1.6,17.5-1.9,35.9c-0.4,29.3,0.6,28.2,2.4-3c1.4-23,2.7-37.6,3.6-39c0.4-0.6,1.6-8.6,2.6-17.8c1.1-9.2,2.3-17.8,2.8-19.2
			c1.6-4.6,3.3-16.4,2.9-21C2014,260.4,2013.8,260,2013.3,262z"/>
		
			<linearGradient id="region-2-4_00000166636703391327317990000012077982343803434938_" gradientUnits="userSpaceOnUse" x1="-979.8559" y1="737.506" x2="-979.1598" y2="738.8962" gradientTransform="matrix(97.8975 0 0 54 97633.8906 -39548)">
			<stop  offset="0" style="stop-color:#FFFFFF;stop-opacity:0.886"/>
			<stop  offset="1" style="stop-color:#FFFFFF;stop-opacity:0.841"/>
		</linearGradient>
		
			<path id="region-2-4_00000132790636690494113820000013767344044417669288_" style="fill:url(#region-2-4_00000166636703391327317990000012077982343803434938_);stroke:#000000;stroke-miterlimit:10;" d="
			M1772.1,287.5c-0.9,1.3-1.6,2.9-1.6,3.5c0,1.2-14.2,1.4-15.4,0.2c-1.2-1.2-5.6-1.4-34.5-1.7c-22-0.2-27.5-0.5-28.2-1.6
			c-0.8-1.2-1.1-1.1-2,0.4c-0.6,1-2.5,3.1-4.3,4.7c-2.6,2.4-3.5,4.3-4.4,9.4c-0.7,3.5-1.2,7.9-1.1,9.7c0.1,3.2,0.2,3.2,0.9,0.9
			l0.8-2.5l0.1,2.7c0.2,4,1.1,5.8,3.2,5.8c1,0,1.9,0.5,1.9,1c0,0.6,1.1,0.8,2.5,0.4c1.4-0.4,2.5-0.2,2.5,0.4c0,0.6,1.8,1.3,4,1.7
			s4.2,1.1,4.5,1.5c0.3,0.5,1.9,0.8,3.6,0.8c1.7-0.1,3.4,0.4,3.9,1.1c0.4,0.8,3.8,1.5,8.1,1.7c4,0.3,7.6,0.8,7.9,1.2
			c1,1.5,6,4.2,7.5,4.2c0.9,0,2.3,0.7,3.1,1.5c0.9,0.8,2.4,1.5,3.5,1.5s2.2,0.7,2.5,1.5c0.4,1,2.1,1.5,5.4,1.5
			c4.3,0,5.3-0.5,9.6-4.5c3.2-3.1,5.6-4.5,7.5-4.5c2.8,0,6.9-3.9,6.9-6.6c0-1.4,1.1-1.8,4.1-1.5c1.2,0.1,1.8-1,2.3-4.5
			c1-7.2,0.8-13.2-0.4-11.4c-1.4,2.2-1.3,0,0.5-8.5c2.2-10.3,2-12.5-0.9-12.5C1774.7,285,1773.1,286,1772.1,287.5z"/>
		
			<linearGradient id="region-2-5_00000113316001161926776300000013730344388269817258_" gradientUnits="userSpaceOnUse" x1="-960.3552" y1="737.4828" x2="-960.0079" y2="738.6169" gradientTransform="matrix(56.7081 0 0 61.725 56277.3555 -45237.0508)">
			<stop  offset="0" style="stop-color:#FFFFFF;stop-opacity:0.85"/>
			<stop  offset="1" style="stop-color:#FFFFFF;stop-opacity:0.899"/>
		</linearGradient>
		
			<path id="region-2-5_00000064337189358105737620000010005633997512822699_" style="fill:url(#region-2-5_00000113316001161926776300000013730344388269817258_);stroke:#000000;stroke-miterlimit:10;" d="
			M1815.5,291c-4.9,7.1-8.8,14-9.3,16.5c-0.3,1.6-1,5.7-1.6,9c-0.6,3.3-1.6,7.2-2.2,8.7s-0.8,3.6-0.4,4.5c0.5,1,1,2.6,1.2,3.7
			c0.2,1,1,3,1.9,4.5c1.4,2.4,2.1,2.6,8.3,2.6c5.8,0,7.2,0.4,10.3,2.7c2,1.5,3.9,3.9,4.2,5.3c0.6,2.3,1.1,2.5,5.6,2.5
			c4.6,0,5.1-0.2,6.6-3.3c1-1.7,1.9-2.6,2.1-2c0.8,2.2,3.4,1.4,6.4-1.8c1.5-1.6,3.8-3.1,4.9-3.2c2.5-0.2,5-5.2,5-9.9
			c0-4.3-2.7-8.8-6.2-10.2c-3-1.3-3-1.3-0.9-2.8c1.7-1.2,1.9-2,1.2-4.5c-1.2-4-4-7.1-6-6.6c-1.1,0.3-2.1-0.8-3.3-3.7
			c-1.5-3.3-2.3-4-4.6-4c-1.6,0-3.4-0.8-4.2-2c-0.8-1.2-2.6-2-4.2-2c-1.5,0-2.8-0.5-2.8-1c0-0.6-0.7-1-1.5-1s-1.9-0.9-2.5-2
			C1822.3,288.7,1817.2,288.7,1815.5,291z"/>
		
			<linearGradient id="region-2-6_00000107555086530113679830000016986971996014336397_" gradientUnits="userSpaceOnUse" x1="-924.4276" y1="738.2748" x2="-923.1572" y2="738.4881" gradientTransform="matrix(31.8178 0 0 40.5689 31143.5098 -29583.2129)">
			<stop  offset="0" style="stop-color:#C0C0B8;stop-opacity:0.731"/>
			<stop  offset="1" style="stop-color:#B2B2AA;stop-opacity:0.676"/>
		</linearGradient>
		
			<path id="region-2-6_00000003102375786299532100000002915040856481030038_" style="fill:url(#region-2-6_00000107555086530113679830000016986971996014336397_);stroke:#000000;stroke-miterlimit:10;" d="
			M1746.5,352c0,0.5-1.1,1-2.5,1s-2.5,0.4-2.5,1c0,0.5-0.9,1-2.1,1c-4.4,0-6.9,5.5-6.9,15.2c0,3.2,0.4,5.8,1,5.8s1,1.3,1,2.9
			c0,1.6,0.7,3.4,1.5,4.1c0.8,0.7,1.5,1.7,1.5,2.3c0,1.2,5.1,5.7,6.5,5.8c0.6,0,3.8,0.2,7.2,0.4c5.5,0.4,6.6,0.1,9.2-2.1
			c1.7-1.4,3-2.8,2.9-3.2c-0.1-0.4,0.2-2.9,0.7-5.5c0.7-4.6,0.4-6.7-2.5-15.9c-0.5-1.6-0.4-3,0.1-3.4c0.5-0.3,0.9-1.8,0.9-3.5
			c0-2.1-0.5-2.9-1.8-2.9c-0.9,0-4.2-0.9-7.2-2C1747.3,350.7,1746.5,350.6,1746.5,352z"/>
		
			<linearGradient id="region-2-7_00000169516375799201877690000006490581151688476565_" gradientUnits="userSpaceOnUse" x1="-993.5967" y1="737.6186" x2="-992.5341" y2="738.2071" gradientTransform="matrix(194.3611 0 0 89.3672 194903.5156 -65496.1016)">
			<stop  offset="0" style="stop-color:#B3666C;stop-opacity:0.82"/>
			<stop  offset="1" style="stop-color:#F87770;stop-opacity:0.79"/>
		</linearGradient>
		
			<path id="region-2-7_00000062881189838507802720000010912061086635911590_" style="fill:url(#region-2-7_00000169516375799201877690000006490581151688476565_);stroke:#000000;stroke-miterlimit:10;" d="
			M1811.9,403.4c-1.6,4,0.3,11.5,4.7,18.8c2.5,4,5.3,8.9,6.2,10.9c3.6,7.2,28.6,29.1,34.7,30.4c1.9,0.4,4.4,1.3,5.5,2
			c1.1,0.7,4.8,1.8,8.3,2.6c3.4,0.7,6.2,1.7,6.2,2.1s1.8,1.1,4,1.4c2.2,0.4,4,1,4,1.4s2.8,1.1,6.2,1.4c3.6,0.5,10,2.4,15.5,4.8
			c9.8,4.1,12.2,4.5,7.9,1c-2.9-2.2-3.4-5.4-1.1-7.4c4.5-4,5.1-4.2,14.2-4.6c6.6-0.3,10.7,0,14,1.1c10.1,3.3,21.9,6.7,25.3,7.4
			c1.9,0.3,4.3,1.4,5.3,2.4c1,0.9,5.1,2.7,9,3.9c4,1.2,8.1,2.6,9.2,3c1.1,0.5,4.9,2,8.4,3.4l6.3,2.5l-0.6-3.2
			c-1-4.5-2.7-18.1-3.2-25.2c-0.6-7.5-2-10.5-5.1-10.5c-1.3,0-2.3-0.5-2.3-1c0-0.6-0.9-1-2-1s-2-0.5-2-1c0-0.6-0.9-1-2-1s-2-0.5-2-1
			c0-1.4-3.7-1.2-4.4,0.2c-0.5,1-0.7,1-1.2,0c-0.3-0.6-1.4-1.2-2.5-1.2c-1,0-1.9-0.5-1.9-1c0-0.6-1.3-1-2.9-1s-3.2-0.6-3.4-1.3
			c-0.4-0.9-0.7-0.9-1.5,0.1c-1.2,1.7-23.9,1.9-25.5,0.3c-0.6-0.6-2.8-1.1-4.9-1.1c-2.1,0-3.8-0.5-3.8-1c0-1.9-1.8-1-2.3,1.1
			c-0.3,1.2-1,1.8-1.7,1.4c-0.6-0.3-2.5-0.8-4.2-1.1c-1.7-0.2-3.4-0.8-3.8-1.3c-0.3-0.6-2.1-1.3-4-1.6c-13.5-2.1-16.9-2.8-19.7-4.1
			c-1.7-0.8-4.5-1.4-6.1-1.4c-1.7,0-3.4-0.5-3.7-1c-0.3-0.6-2.5-1-4.8-1c-2.3-0.1-7.1-0.8-10.7-1.6c-3.6-0.9-8.3-1.8-10.4-2.1
			c-2.2-0.3-4.8-1.3-5.9-2.3c-1.9-1.8-5.5-2.7-13.6-3.3c-2.5-0.2-4.7-0.9-4.9-1.5c-0.2-0.7-0.8-1.2-1.4-1.2c-0.6,0-1.8-0.8-2.7-1.8
			c-0.9-1.1-3.4-2.2-5.6-2.5c-3.9-0.6-8.9-4.8-14.2-12C1812.9,402.2,1812.5,402,1811.9,403.4z"/>
		
			<linearGradient id="region-2-8_00000119088799887738356010000013063861497247268760_" gradientUnits="userSpaceOnUse" x1="-979.3859" y1="737.9379" x2="-979.3859" y2="738.9379" gradientTransform="matrix(96.9779 0 0 37.3398 96879.7734 -27152.2793)">
			<stop  offset="0" style="stop-color:#F56254;stop-opacity:0.778"/>
			<stop  offset="1" style="stop-color:#F46658;stop-opacity:0.804"/>
		</linearGradient>
		
			<path id="region-2-8_00000153700783997030460930000009405276518416768426_" style="fill:url(#region-2-8_00000119088799887738356010000013063861497247268760_);stroke:#000000;stroke-miterlimit:10;" d="
			M1852.5,403.4c0,0.9,0.7,1.6,1.5,1.6s1.5,0.7,1.5,1.5c0,0.8,0.5,1.5,1.1,1.5c0.7,0,1.9,0.8,2.8,1.9c0.9,1,2.6,2.1,3.9,2.5
			c1.2,0.4,2.2,1.2,2.2,1.7s0.6,0.9,1.3,0.9c0.7,0,2.8,1.1,4.7,2.4c1.9,1.3,5,2.7,6.8,3c1.7,0.4,3.2,1.2,3.2,1.7s1.4,0.9,3.2,0.9
			c3.5,0,9.8,2,9.8,3.1c0,0.4,1.3,1,2.9,1.4c1.6,0.3,3.2,1.3,3.5,2.1c0.3,0.8,1.8,1.4,3.2,1.4c3.3,0,9.4,2.1,9.4,3.2
			c0,0.4,1.2,0.8,2.8,0.8c1.5,0,3.5,0.9,4.5,2c0.9,1.1,2.5,2,3.4,2.1c1,0,2.5,0.2,3.4,0.4c0.9,0.1,2.7-0.7,4-1.9
			c2.5-2.2,10.9-3.5,10.9-1.6c0,0.5,0.9,1,2,1s2-0.5,2-1c0-0.6,0.7-1,1.5-1c2.3,0,1.8-1.8-0.7-2.6c-1.3-0.3-5.4-2.1-9.3-3.9
			c-11.3-5.2-19.1-8.5-20.6-8.5c-0.8,0-2.3-0.7-3.3-1.5c-1.1-0.8-3-1.5-4.2-1.5c-1.3,0-2.6-0.5-2.9-1c-0.4-0.6-1.2-1-1.8-0.9
			c-2.7,0.3-6.3-0.2-7.7-1.1c-1.3-0.9-1.3-1.1,0-2c1.2-0.8,1-1-1-1s-2.2-0.2-1-1c1.2-0.8,1.1-1-0.7-1.1c-2.5-0.2-4.2-0.5-4.5-0.9
			c-0.2-0.2-4.5-0.4-9.7-0.5c-5.1-0.1-9.6-0.7-10-1.2c-0.3-0.6-3.5-1.6-7.1-2.1c-3.6-0.6-7.5-1.4-8.7-1.8
			C1853.1,401.9,1852.5,402.2,1852.5,403.4z"/>
		
			<linearGradient id="region-2-9_00000068657601644188795780000001736246361184102283_" gradientUnits="userSpaceOnUse" x1="-933.1699" y1="737.279" x2="-933.1699" y2="738.279" gradientTransform="matrix(35.858 0 0 125.5268 35224.1328 -92076.6797)">
			<stop  offset="0" style="stop-color:#FF817B;stop-opacity:0.664"/>
			<stop  offset="1" style="stop-color:#FF888C;stop-opacity:0.571"/>
		</linearGradient>
		
			<path id="region-2-9_00000160178259213941021820000006107105212280817804_" style="fill:url(#region-2-9_00000068657601644188795780000001736246361184102283_);stroke:#000000;stroke-miterlimit:10;" d="
			M1753.3,471.7c-1.6,0.3-2.8,0.9-2.8,1.4s-0.8,0.9-1.9,0.9c-4.1,0-4.4,1.7-3.7,26.7c0.7,27.2,1,31.6,3.1,61.8
			c1.4,18.7,1.9,22.2,3.5,23.7c2.6,2.5,22,12,22,10.8c0-0.5,0.8-1,1.8-1c0.9,0,2.5-0.7,3.5-1.4c1.6-1.3,1.8-3,1.6-16.3
			c-0.1-8.1-0.5-15.3-0.9-15.8c-0.5-0.6-1.3-12.9-1.9-27.5c-1.6-35.9-2-41.3-3-42c-0.5-0.3-1.2-2.6-1.6-5.3c-0.4-2.6-1.1-5-1.6-5.3
			c-0.5-0.3-0.9-2.1-0.9-3.9c0-3.6-1-4.2-6.9-4.4c-1.3,0-2.7-0.4-3-0.9C1759.8,471.9,1756.5,471.3,1753.3,471.7z"/>
		
			<linearGradient id="region-2-10_00000178907443950337955960000003157400496588190856_" gradientUnits="userSpaceOnUse" x1="-878.3953" y1="741.3298" x2="-877.8478" y2="743.0221" gradientTransform="matrix(20.5 0 0 7.8894 19964.5 -5330.3535)">
			<stop  offset="0" style="stop-color:#D4FAFF;stop-opacity:0.437"/>
			<stop  offset="1" style="stop-color:#D5FBFF;stop-opacity:0.419"/>
		</linearGradient>
		
			<path id="region-2-10_00000047036197982503650330000012910370582639463869_" style="fill:url(#region-2-10_00000178907443950337955960000003157400496588190856_);stroke:#000000;stroke-miterlimit:10;" d="
			M1953.3,520.7c-1.6,1-2.8,2.2-2.8,2.8c0,1.3,5.7,3.5,9.1,3.5c3.3-0.1,11.4-4.3,11.4-6.1C1971,518.6,1956.8,518.5,1953.3,520.7z"/>
		
			<linearGradient id="region-2-11_00000083071193604056850300000013658188755191581110_" gradientUnits="userSpaceOnUse" x1="-875.2417" y1="740.4502" x2="-875.0824" y2="741.7478" gradientTransform="matrix(20.0211 0 0 10 19416.2422 -6854)">
			<stop  offset="0" style="stop-color:#E3FCFE;stop-opacity:0.379"/>
			<stop  offset="1" style="stop-color:#E5FEFF;stop-opacity:0.371"/>
		</linearGradient>
		
			<path id="region-2-11_00000165940024879554068380000014011559384923393442_" style="fill:url(#region-2-11_00000083071193604056850300000013658188755191581110_);stroke:#000000;stroke-miterlimit:10;" d="
			M1890.5,552c0,0.5-1.1,1-2.4,1c-2.5,0-3.6,1.6-3.6,5.6c0,2.3,0.2,2.4,7.3,2.4c6.2-0.1,7.6-0.4,10-2.5c5.1-4.5,2.9-7.5-5.5-7.5
			C1893.1,551,1890.5,551.4,1890.5,552z"/>
		
			<linearGradient id="region-2-12_00000074443145640914377850000014638468699073094078_" gradientUnits="userSpaceOnUse" x1="-884.6913" y1="741.8099" x2="-883.6365" y2="741.2213" gradientTransform="matrix(21.482 0 0 8.7994 20806.5664 -5937.186)">
			<stop  offset="0" style="stop-color:#031B0D;stop-opacity:0.275"/>
			<stop  offset="1" style="stop-color:#001506;stop-opacity:0.306"/>
		</linearGradient>
		
			<path id="region-2-12_00000116949133752753787860000005350189608360571798_" style="fill:url(#region-2-12_00000074443145640914377850000014638468699073094078_);stroke:#000000;stroke-miterlimit:10;" d="
			M1805.5,585.5c-2.2,2.4-2.3,2.6-0.7,4.2c1.2,1.2,3.8,1.8,8.5,2c5.8,0.3,7.1,0,9.5-2c5.1-4.3,2-6.7-8.9-6.7
			C1808.7,583,1807.5,583.4,1805.5,585.5z"/>
	</g>
	<g id="layer-3_00000021839946706267718810000003113433208963581312_">
		
			<linearGradient id="region-3-1_00000155145960127854992960000008296295894505362349_" gradientUnits="userSpaceOnUse" x1="-980.4464" y1="737.1276" x2="-980.2763" y2="738.1636" gradientTransform="matrix(124.8 0 0 216.7087 125280.8047 -159700.75)">
			<stop  offset="0" style="stop-color:#9C6267;stop-opacity:0.342"/>
			<stop  offset="1" style="stop-color:#601015;stop-opacity:2.300000e-02"/>
		</linearGradient>
		
			<path id="region-3-1_00000010294922985071308270000016608632827821307548_" style="fill:url(#region-3-1_00000155145960127854992960000008296295894505362349_);stroke:#000000;stroke-miterlimit:10;" d="
			M2893.5,53.9l-6.5,0.6l-0.3,4.4c-0.2,2.4,0,5.1,0.4,6c0.4,0.9,0.8,2,1,2.6c0.1,0.5,0.9,3,1.7,5.5c0.9,2.5,1.9,5.8,2.2,7.5
			c0.4,1.6,0.8,3.9,1.1,5c0.2,1.1,0.6,3.5,0.9,5.4c0.3,1.8,1,5.2,1.6,7.4c1.2,4.4,0.9,17.9-0.4,18.8c-0.4,0.3-0.8,5.5-0.9,11.5
			c0,6.1-0.6,12.7-1.4,14.9c-1.3,4.1-2,9.7-3.1,24c-0.3,4.4-0.9,8.4-1.3,9c-1,1.3-3.1,22.4-3.3,33.2c-0.1,4.6-0.6,8.3-1.1,8.3
			s-0.6,0.3-0.3,0.6c0.3,0.4,0.1,1.6-0.5,2.8c-0.7,1.1-1.3,3.9-1.5,6c-0.2,2.2-0.8,4.3-1.4,4.7c-0.7,0.4-1.3,6.1-1.5,15.5
			c-0.3,8.2-0.6,16.7-0.9,18.8l-0.3,3.9l10.5-0.7c6-0.3,11.3-1.1,12.2-1.9c3.4-2.6,6-3.5,11.2-3.8c4.7-0.3,14.8-3.5,16.6-5.3
			c0.3-0.3,2.1-0.6,3.9-0.6c1.8,0,3.5-0.4,3.8-0.8c0.3-0.5,2.4-0.9,4.6-1c2.3-0.1,5-0.6,6-1.2c1-0.5,3.5-1,5.4-1
			c4.1,0,5.5-0.6,16.1-7c2.8-1.7,6.8-3.5,9-4.1c12.3-3.3,15.5-4.3,20.3-6.7l5.2-2.6l-0.1-13.6c-0.1-13.7-1.6-24.3-4.2-30.2
			c-0.9-1.8-1.8-4.5-2.1-6.1c-0.3-1.5-0.9-3.9-1.2-5.5c-0.3-1.5-0.9-3.6-1.4-4.7c-0.4-1.1-1.8-4.9-3.1-8.5c-1.2-3.6-2.6-6.9-3.1-7.5
			c-0.4-0.5-0.8-1.9-0.8-3.2s-0.4-2.3-1-2.3c-0.5,0-1-0.5-1-1.2c0-1.1-5.3-13.1-7-15.8c-1.9-3-5.5-11.2-6.5-14.8
			c-0.4-1.2-1.1-2.2-1.6-2.2c-0.6,0-0.8-0.4-0.5-0.8c0.3-0.5-0.4-1.8-1.4-3c-1.1-1.2-2-2.5-2-3c0-1.1-3.1-4.8-10-12
			c-3.1-3.1-8.2-8.9-11.5-12.7c-9.3-10.8-26.5-27.5-28.5-27.5c-0.6,0-1.3-0.7-1.6-1.5c-0.4-0.8-1.6-1.5-2.8-1.5
			c-1.3,0-2.6-0.3-3-0.7C2906.5,53.7,2901,53.2,2893.5,53.9z"/>
		
			<linearGradient id="region-3-2_00000031195559553411352650000016679618101345379480_" gradientUnits="userSpaceOnUse" x1="-993.7" y1="738.1696" x2="-992.631" y2="737.3349" gradientTransform="matrix(244.7203 0 0 158.8996 245818.4219 -116871.6797)">
			<stop  offset="0" style="stop-color:#440400;stop-opacity:0.615"/>
			<stop  offset="1" style="stop-color:#A5151E;stop-opacity:0.235"/>
		</linearGradient>
		
			<path id="region-3-2_00000008137688966727516780000005774930198610042762_" style="fill:url(#region-3-2_00000031195559553411352650000016679618101345379480_);stroke:#000000;stroke-miterlimit:10;" d="
			M2670.7,278.3c-0.7,0.8-1.5,2.8-1.8,4.5c-0.4,1.8-1,3.2-1.5,3.2s-0.9,1.7-0.9,3.7c-0.1,2.1-0.6,5.8-1.1,8.3
			c-0.6,2.5-1.4,7.4-1.9,11c-0.4,3.6-1.3,10.8-1.9,16c-0.7,5.2-1.6,12.4-2.2,16c-2.6,17.4-4.8,70.9-3.4,82.8c0.6,5,0.8,5.3,3,4.8
			c4.4-1.1,109.7-0.7,111,0.4c0.8,0.6,4,0.8,7.9,0.5c3.9-0.3,7.5-0.1,8.7,0.5c1.8,1,14,1.7,42.9,2.4c6.3,0.2,12.2,0.6,13,0.9
			c1.8,0.7,8.5,1.5,19.1,2.3l7.7,0.6l4.2-4.1c2.3-2.3,4.8-4.1,5.6-4.1c0.7,0,1.6-0.9,1.9-2s1-2,1.5-2c0.4,0,1-1,1.4-2.3
			c0.3-1.2,1.7-3.5,3.1-5.1s2.5-3.7,2.5-4.8c0-1,0.4-1.8,0.8-1.8c0.5,0,1.5-1.9,2.2-4.3c0.7-2.3,1.8-4.7,2.4-5.2
			c1.3-1.2,1.7-2.5,2.3-8.5c0.3-2.5,1-5.1,1.5-5.7c1.6-2,2.2-34,0.8-39.3c-0.6-2.5-1.6-6.5-2.1-8.9c-0.5-2.5-1.3-4.7-1.8-5
			c-0.4-0.4-1.6-3.2-2.5-6.4c-2-6.8-7.6-13.1-14.7-16.5c-3.8-1.9-5.9-2.2-12-1.9c-4.1,0.2-8.5-0.1-9.9-0.6s-5.4-1.1-9-1.2
			c-7.9-0.3-15.6-1.4-19-2.5c-1.4-0.5-6.8-1.2-12-1.5c-5.2-0.3-11.1-1-13-1.5s-6.8-1.4-10.7-2.1c-4-0.7-7.3-1.6-7.3-2.2
			c0-0.5-0.7-0.7-1.4-0.4c-1.4,0.5-7.1-0.2-13.6-1.7c-1.4-0.3-4.5-0.8-6.9-1.1c-2.4-0.3-4.6-0.7-5-0.9c-0.4-0.3-3.6-0.5-7.1-0.7
			c-3.6-0.1-8.1-0.8-9.9-1.6c-1.9-0.7-4.9-1.6-6.5-1.8c-1.7-0.2-4.4-0.7-6.1-1.1c-3-0.6-9.1-1.3-13-1.4c-4-0.2-14.1-2.2-17.7-3.6
			c-3.9-1.4-5.6-1.8-15.8-3.5c-3.6-0.5-7.4-1.2-8.6-1.5C2672.8,277.1,2671.3,277.5,2670.7,278.3z"/>
		
			<linearGradient id="region-3-3_00000078728293603031315600000017222703044569548472_" gradientUnits="userSpaceOnUse" x1="-985.9308" y1="737.1515" x2="-985.9308" y2="738.1515" gradientTransform="matrix(159 0 0 264.2106 159688 -194348.5781)">
			<stop  offset="0" style="stop-color:#070100;stop-opacity:5.700000e-02"/>
			<stop  offset="1" style="stop-color:#000000;stop-opacity:0"/>
		</linearGradient>
		
			<path id="region-3-3_00000108272779609368676880000014000734415231365286_" style="fill:url(#region-3-3_00000078728293603031315600000017222703044569548472_);stroke:#000000;stroke-miterlimit:10;" d="
			M2952,414.9l-12.9,0.6l-2.8,4.2c-4.2,6.1-11.4,11.7-19.3,14.8c-11.9,4.5-17,6.7-17.5,7.4c-0.3,0.4-3.3,2.4-6.7,4.5
			c-3.4,2.1-7,4.7-7.9,5.7c-0.9,1-2.3,1.9-3.1,1.9c-0.7,0-1.3,0.4-1.3,0.8c0,0.5-2.1,1.8-4.7,3c-2.7,1.2-5.7,2.8-6.8,3.5
			c-6.3,4-9.7,5.7-11.2,5.7c-1.7,0-1.8,2.3-2.1,33.8c-0.2,18.5-0.6,35-0.9,36.7c-1.5,8.9-2,22.4-2.2,53.9c-0.2,31.6-1,44-3,45.6
			c-1,0.8-4.1,10.6-4.1,12.9c0,1.1,0.5,2.1,1,2.1c0.6,0,1,1.3,1,2.9c0,6.7,3.1,11.1,7.9,11.1c1.2,0,2.1,0.6,2.1,1.3
			c0,0.7,1.4,3.2,3.1,5.5c3.4,4.7,7.9,6.4,15.6,6c4.1-0.2,5.3-0.8,10.9-6c3.4-3.2,6.7-7.2,7.4-8.8c0.9-2.1,1.9-3,3.6-3
			c2.7,0,10.6-7.5,12.5-11.9c0.7-1.6,3.2-4.1,5.6-5.6c5.1-3.2,7.3-6,7.3-9.5c0-1.5,1.4-4.1,3.5-6.3c3.7-4.1,9.5-12.1,9.5-13.3
			c0-0.4,2.3-3.1,5-6c4.7-5,5-5.6,5-10.6c0-4.5,0.6-6.5,3.6-11.4c4.4-7,7.4-12.9,7.4-14.3c0-0.6,1.5-3.4,3.3-6.3
			c1.8-2.9,3.9-7.3,4.6-9.7c0.7-2.5,2.8-7.6,4.6-11.5c1.8-3.9,3.6-8.7,4-10.6c0.4-1.9,2.4-7.2,4.6-11.7c2.2-4.6,5.5-13.1,7.5-19
			c1.9-6,3.9-11.7,4.3-12.8c0.5-1.1,1.4-3.6,2.1-5.5s1.9-5,2.7-6.9c0.8-1.8,1.8-7.8,2.2-13.1c0.5-8,1-10.3,2.7-12.2
			c1.5-1.6,2.2-3.8,2.3-7.3c0.1-2.7,0.6-5.4,1.1-5.9c0.6-0.6,1-4.5,1-8.8c0-6.8-0.2-7.8-1.8-7.8c-1,0-2.2-0.4-2.7-0.8
			c-0.6-0.5-4.1-1.9-8-3.2c-3.8-1.3-7.4-2.6-8-3C2982.4,414.8,2966.2,414.3,2952,414.9z"/>
	</g>
	<g id="layer-4_00000047059162278864517690000005484920745725192620_">
		
			<linearGradient id="region-4-1_00000075136460053853595860000018377013170965462189_" gradientUnits="userSpaceOnUse" x1="-938.2347" y1="737.4166" x2="-936.787" y2="738.2524" gradientTransform="matrix(58.6042 0 0 114.7415 58583.5625 -84290.2109)">
			<stop  offset="0" style="stop-color:#779F87;stop-opacity:0.798"/>
			<stop  offset="1" style="stop-color:#77A088;stop-opacity:0.801"/>
		</linearGradient>
		
			<path id="region-4-1_00000074422925105030613590000018054485024099951016_" style="fill:url(#region-4-1_00000075136460053853595860000018377013170965462189_);stroke:#000000;stroke-miterlimit:10;" d="
			M3634.3,304c-2.1,0.4-4.8,1.5-6,2.6c-3.3,2.6-12.8,12.4-12.8,13c0,0.3-1.4,3.5-3.1,7.2c-1.8,3.7-4.3,11.9-5.6,18.2
			c-2.2,10.1-2.4,13.3-2,25.7c0.4,12.2,0.9,15.2,3.2,21.5c4.8,13.3,6.8,17.3,10.9,21.5c3.9,4.2,4.2,4.3,10.5,4.3
			c8.6,0,12.3-2.6,19.7-13.8c7.4-11.2,9.7-17.9,12.4-35.2c2.8-18,2.3-26.7-2.1-40.5c-3.7-11.2-7.6-17.6-13.7-22.2
			C3641.2,302.9,3640.5,302.7,3634.3,304z"/>
	</g>
</g>
</svg>
