<?xml version="1.0" encoding="UTF-8"?>
<svg xmlns="http://www.w3.org/2000/svg" xmlns:xlink="http://www.w3.org/1999/xlink" viewBox="0 0 2500 500">
  <defs>
    <style>
      .cls-1 {
        fill: url(#_未命名的渐变_5);
      }

      .cls-2 {
        fill: url(#_未命名的渐变_4-2);
      }

      .cls-3 {
        fill: url(#_未命名的渐变_4);
      }

      .cls-4 {
        fill: url(#_未命名的渐变_5-2);
      }

      .cls-5 {
        fill: url(#_未命名的渐变_3-2);
      }

      .cls-6 {
        stroke: #000;
        stroke-miterlimit: 10;
        stroke-width: 2px;
      }

      .cls-6, .cls-7 {
        fill: none;
      }

      .cls-8 {
        fill: url(#a2ed1d96-aebd-4bf9-a4b3-645f1ac);
      }

      .cls-9 {
        fill: url(#_未命名的渐变_7-2);
      }

      .cls-10 {
        fill: #d3d3d3;
      }

      .cls-11 {
        fill: url(#_未命名的渐变_2-2);
      }

      .cls-12 {
        fill: url(#_未命名的渐变_6-2);
      }

      .cls-13 {
        fill: url(#_未命名的渐变_6);
      }

      .cls-14 {
        fill: url(#_未命名的渐变_2);
      }

      .cls-15 {
        fill: url(#_未命名的渐变_3);
      }

      .cls-16 {
        fill: url(#_未命名的渐变_7);
      }
    </style>
    <pattern id="a2ed1d96-aebd-4bf9-a4b3-645f1ac" x="0" y="0" width="40" height="40" patternTransform="translate(161 -15583.24) scale(1 -1)" patternUnits="userSpaceOnUse" viewBox="0 0 40 40">
      <g>
        <rect class="cls-7" width="40" height="40"/>
        <g>
          <rect class="cls-7" width="40" height="40"/>
          <rect class="cls-7" width="40" height="40"/>
          <rect class="cls-10" y="20" width="20" height="20"/>
          <rect class="cls-10" x="20" width="20" height="20"/>
        </g>
      </g>
    </pattern>
    <linearGradient id="_未命名的渐变_7" data-name="未命名的渐变 7" x1="250.49" y1="750.5" x2="251.5" y2="751.49" gradientTransform="translate(-125249 -375249.01) scale(500)" gradientUnits="userSpaceOnUse">
      <stop offset="0" stop-color="#01ff00" stop-opacity=".99"/>
      <stop offset="1" stop-color="#008281"/>
    </linearGradient>
    <linearGradient id="_未命名的渐变_2" data-name="未命名的渐变 2" x1="249.34" y1="750.97" x2="249.93" y2="752.05" gradientTransform="translate(-36127.6 -186555.29) scale(146.3 248.42)" gradientUnits="userSpaceOnUse">
      <stop offset="0" stop-color="#00067a" stop-opacity=".33"/>
      <stop offset="1" stop-color="#454839" stop-opacity=".44"/>
    </linearGradient>
    <linearGradient id="_未命名的渐变_3" data-name="未命名的渐变 3" x1="249.62" y1="750.96" x2="251.2" y2="751.49" gradientTransform="translate(-48912 -282178.01) scale(196 376)" gradientUnits="userSpaceOnUse">
      <stop offset="0" stop-color="#b30041" stop-opacity=".36"/>
      <stop offset="1" stop-color="#018664" stop-opacity=".34"/>
    </linearGradient>
    <linearGradient id="_未命名的渐变_4" data-name="未命名的渐变 4" x1="249.97" y1="750.52" x2="251" y2="751.51" gradientTransform="translate(-57070.21 -317941.99) scale(229.41 423.6)" gradientUnits="userSpaceOnUse">
      <stop offset="0" stop-color="#000b80" stop-opacity=".3"/>
      <stop offset="1" stop-color="#022d3b" stop-opacity=".54"/>
    </linearGradient>
    <linearGradient id="_未命名的渐变_5" data-name="未命名的渐变 5" x1="249.94" y1="750.82" x2="249.94" y2="751.82" gradientTransform="translate(-40160 -226553.01) scale(161 302)" gradientUnits="userSpaceOnUse">
      <stop offset="0" stop-color="#00fea2" stop-opacity=".14"/>
      <stop offset="1" stop-color="aqua" stop-opacity=".44"/>
    </linearGradient>
    <linearGradient id="_未命名的渐变_6" data-name="未命名的渐变 6" x1="249.79" y1="751.69" x2="249.79" y2="752.69" gradientTransform="translate(-36495.15 -110636.43) scale(147.1 147.26)" gradientUnits="userSpaceOnUse">
      <stop offset="0" stop-color="#c50022" stop-opacity=".27"/>
      <stop offset="1" stop-color="#ac3b30" stop-opacity=".41"/>
    </linearGradient>
    <linearGradient id="_未命名的渐变_7-2" data-name="未命名的渐变 7" x1="251.49" y1="750.5" x2="252.5" y2="751.49" xlink:href="#_未命名的渐变_7"/>
    <linearGradient id="_未命名的渐变_2-2" data-name="未命名的渐变 2" x1="256.17" y1="750.97" x2="256.77" y2="752.05" xlink:href="#_未命名的渐变_2"/>
    <linearGradient id="_未命名的渐变_3-2" data-name="未命名的渐变 3" x1="254.72" x2="256.3" y2="751.49" xlink:href="#_未命名的渐变_3"/>
    <linearGradient id="_未命名的渐变_4-2" data-name="未命名的渐变 4" x1="256.51" y1="750.52" x2="257.54" y2="751.51" xlink:href="#_未命名的渐变_4"/>
    <linearGradient id="_未命名的渐变_5-2" data-name="未命名的渐变 5" x1="259.26" x2="259.26" xlink:href="#_未命名的渐变_5"/>
    <linearGradient id="_未命名的渐变_6-2" data-name="未命名的渐变 6" x1="263.39" x2="263.39" xlink:href="#_未命名的渐变_6"/>
  </defs>
  <g id="_图层_1" data-name="图层 1">
    <g id="_图层_1-2" data-name=" 图层 1">
      <rect class="cls-8" width="2500" height="500"/>
    </g>
    <g id="layer-1">
      <path id="region-1-1" class="cls-16" d="M0,250v250H500V0H0V250Z"/>
    </g>
    <g id="layer-2">
      <path id="region-2-1" class="cls-14" d="M436.7,13.7c-.8,2.1-22.3,54.4-47.6,116.2-25.3,61.9-45.9,112.6-45.7,112.8,.4,.5,145.9,16.3,146.3,16,.3-.4-50.5-247.8-51.1-248.4-.2-.2-1,1.3-1.9,3.4Z"/>
      <path id="region-2-2" class="cls-15" d="M33,259v188H229V71H33v188Z"/>
    </g>
    <g id="layer-3">
      <path id="region-3-1" class="cls-3" d="M298,16.9c-19.5,3.7-36.1,7-36.8,7.2-.8,.3,40.2,74,113.9,205.2,63.4,112.6,115.4,204.6,115.5,204.4,.3-.2-143.9-394.6-153.3-419.5-.8-2.3-2.1-4.2-2.7-4.1-.6,0-17.1,3.1-36.6,6.8Z"/>
      <path id="region-3-2" class="cls-1" d="M0,347v151H161V196H0v151Z"/>
    </g>
    <g id="layer-4">
      <path id="region-4-1" class="cls-13" d="M241.9,55.1c-30.3,2.5-56.7,25.6-64.3,56.1-2.2,8.9-2.2,25.7,0,34.6,6.7,26.9,27.7,47.9,54.6,54.6,8.9,2.2,25.7,2.2,34.6,0,26.9-6.7,47.9-27.7,54.6-54.6,2.2-8.9,2.2-25.7,0-34.6-4.4-17.7-15.5-33.7-30.4-43.9-14.2-9.7-30.4-13.7-49.1-12.2Z"/>
    </g>
  </g>
  <g id="_图层_2" data-name="图层 2">
    <g id="layer-1-2" data-name="layer-1">
      <path id="region-1-1-2" data-name="region-1-1" class="cls-9" d="M500,250v250h500V0H500V250Z"/>
    </g>
    <g id="layer-2-2" data-name="layer-2">
      <path id="region-2-1-2" data-name="region-2-1" class="cls-11" d="M1436.7,13.7c-.8,2.1-22.3,54.4-47.6,116.2-25.3,61.9-45.9,112.6-45.7,112.8,.4,.5,145.9,16.3,146.3,16,.3-.4-50.5-247.8-51.1-248.4-.2-.2-1,1.3-1.9,3.4Z"/>
      <path id="region-2-2-2" data-name="region-2-2" class="cls-5" d="M1033,259v188h196V71h-196v188Z"/>
    </g>
    <g id="layer-3-2" data-name="layer-3">
      <path id="region-3-1-2" data-name="region-3-1" class="cls-2" d="M1798,16.9c-19.5,3.7-36.1,7-36.8,7.2-.8,.3,40.2,74,113.9,205.2,63.4,112.6,115.4,204.6,115.5,204.4,.3-.2-143.9-394.6-153.3-419.5-.8-2.3-2.1-4.2-2.7-4.1-.6,0-17.1,3.1-36.6,6.8Z"/>
      <path id="region-3-2-2" data-name="region-3-2" class="cls-4" d="M1500,347v151h161V196h-161v151Z"/>
    </g>
    <g id="layer-4-2" data-name="layer-4">
      <path id="region-4-1-2" data-name="region-4-1" class="cls-12" d="M2241.9,55.1c-30.3,2.5-56.7,25.6-64.3,56.1-2.2,8.9-2.2,25.7,0,34.6,6.7,26.9,27.7,47.9,54.6,54.6,8.9,2.2,25.7,2.2,34.6,0,26.9-6.7,47.9-27.7,54.6-54.6,2.2-8.9,2.2-25.7,0-34.6-4.4-17.7-15.5-33.7-30.4-43.9-14.2-9.7-30.4-13.7-49.1-12.2Z"/>
    </g>
    <line class="cls-6" x1="500" x2="500" y2="500"/>
    <line class="cls-6" x1="1001" y1="0" x2="1001" y2="500"/>
    <line class="cls-6" x1="1500" y1="0" x2="1500" y2="500"/>
    <line class="cls-6" x1="2000" y1="0" x2="2000" y2="500"/>
  </g>
</svg>