<?xml version="1.0" encoding="UTF-8"?>
<svg xmlns="http://www.w3.org/2000/svg" xmlns:xlink="http://www.w3.org/1999/xlink" viewBox="0 0 3000.29 500.11">
  <defs>
    <style>
      .cls-1 {
        fill: url(#_未命名的渐变_5);
      }

      .cls-2 {
        fill: url(#_未命名的渐变_4-2);
      }

      .cls-3 {
        fill: url(#_未命名的渐变_4);
      }

      .cls-4 {
        fill: url(#_未命名的渐变_5-2);
      }

      .cls-5 {
        fill: url(#_未命名的渐变_3-2);
      }

      .cls-6 {
        stroke: #000;
        stroke-miterlimit: 10;
        stroke-width: 2px;
      }

      .cls-6, .cls-7 {
        fill: none;
      }

      .cls-8 {
        fill: url(#a2ed1d96-aebd-4bf9-a4b3-645f1ac);
      }

      .cls-9 {
        fill: url(#_未命名的渐变_7-2);
      }

      .cls-10 {
        fill: #d3d3d3;
      }

      .cls-11 {
        fill: url(#_未命名的渐变_2-2);
      }

      .cls-12 {
        fill: url(#_未命名的渐变_6-2);
      }

      .cls-13 {
        fill: url(#_未命名的渐变_6);
      }

      .cls-14 {
        fill: url(#_未命名的渐变_2);
      }

      .cls-15 {
        fill: url(#_未命名的渐变_3);
      }

      .cls-16 {
        fill: url(#_未命名的渐变_7);
      }
    </style>
    <pattern id="a2ed1d96-aebd-4bf9-a4b3-645f1ac" x="0" y="0" width="40" height="40" patternTransform="translate(161.29 -15583.13) scale(1 -1)" patternUnits="userSpaceOnUse" viewBox="0 0 40 40">
      <g>
        <rect class="cls-7" width="40" height="40"/>
        <g>
          <rect class="cls-7" width="40" height="40"/>
          <rect class="cls-7" width="40" height="40"/>
          <rect class="cls-10" y="20" width="20" height="20"/>
          <rect class="cls-10" x="20" width="20" height="20"/>
        </g>
      </g>
    </pattern>
    <linearGradient id="_未命名的渐变_7" data-name="未命名的渐变 7" x1="250.7" y1="750.76" x2="252.04" y2="751.56" gradientTransform="translate(-125392.39 -375306.36) scale(500)" gradientUnits="userSpaceOnUse">
      <stop offset="0" stop-color="#00d12d"/>
      <stop offset="1" stop-color="#00a05f"/>
    </linearGradient>
    <linearGradient id="_未命名的渐变_2" data-name="未命名的渐变 2" x1="250.01" y1="751.09" x2="250.08" y2="752.15" gradientTransform="translate(-36169.35 -186583.73) scale(146.3 248.42)" gradientUnits="userSpaceOnUse">
      <stop offset="0" stop-color="#008d4c"/>
      <stop offset="1" stop-color="#2f7448"/>
    </linearGradient>
    <linearGradient id="_未命名的渐变_3" data-name="未命名的渐变 3" x1="250.31" y1="750.63" x2="250.99" y2="751.69" gradientTransform="translate(-57135.84 -317990.56) scale(229.41 423.6)" gradientUnits="userSpaceOnUse">
      <stop offset="0" stop-color="#000585" stop-opacity=".32"/>
      <stop offset="1" stop-color="#002039" stop-opacity=".47"/>
    </linearGradient>
    <linearGradient id="_未命名的渐变_4" data-name="未命名的渐变 4" x1="250.08" y1="751.81" x2="250.08" y2="752.81" gradientTransform="translate(-36537.13 -110653.24) scale(147.1 147.26)" gradientUnits="userSpaceOnUse">
      <stop offset="0" stop-color="#eb0511" stop-opacity=".3"/>
      <stop offset="1" stop-color="#f40427" stop-opacity=".31"/>
    </linearGradient>
    <linearGradient id="_未命名的渐变_5" data-name="未命名的渐变 5" x1="249.86" y1="750.85" x2="250.52" y2="751.92" gradientTransform="translate(-40205.98 -226587.6) scale(161 302)" gradientUnits="userSpaceOnUse">
      <stop offset="0" stop-color="#00ff5a" stop-opacity=".38"/>
      <stop offset="1" stop-color="#00fffe" stop-opacity=".48"/>
    </linearGradient>
    <linearGradient id="_未命名的渐变_6" data-name="未命名的渐变 6" x1="250.02" y1="750.77" x2="250.99" y2="751.78" gradientTransform="translate(-48968.04 -282221.11) scale(196 376)" gradientUnits="userSpaceOnUse">
      <stop offset="0" stop-color="#8d3535" stop-opacity=".48"/>
      <stop offset="1" stop-color="#117677" stop-opacity=".24"/>
    </linearGradient>
    <linearGradient id="_未命名的渐变_7-2" data-name="未命名的渐变 7" x1="251.7" x2="253.04" xlink:href="#_未命名的渐变_7"/>
    <linearGradient id="_未命名的渐变_2-2" data-name="未命名的渐变 2" x1="256.84" y1="751.09" x2="256.91" y2="752.15" xlink:href="#_未命名的渐变_2"/>
    <linearGradient id="_未命名的渐变_3-2" data-name="未命名的渐变 3" x1="256.85" x2="257.53" y2="751.69" xlink:href="#_未命名的渐变_3"/>
    <linearGradient id="_未命名的渐变_4-2" data-name="未命名的渐变 4" x1="263.68" y1="751.81" x2="263.68" y2="752.81" xlink:href="#_未命名的渐变_4"/>
    <linearGradient id="_未命名的渐变_5-2" data-name="未命名的渐变 5" x1="256.08" y1="750.85" x2="256.74" y2="751.92" xlink:href="#_未命名的渐变_5"/>
    <linearGradient id="_未命名的渐变_6-2" data-name="未命名的渐变 6" x1="262.77" y1="750.77" x2="263.74" y2="751.78" xlink:href="#_未命名的渐变_6"/>
  </defs>
  <g id="_图层_1" data-name="图层 1">
    <g id="_图层_1-2" data-name=" 图层 1">
      <rect class="cls-8" width="3000.29" height="500"/>
    </g>
    <path class="cls-16" d="M.29,250.11v250H500.29V.11H.29V250.11Z"/>
    <path class="cls-14" d="M436.99,13.81c-.8,2.1-22.3,54.4-47.6,116.2-25.3,61.9-45.9,112.6-45.7,112.8,.4,.5,145.9,16.3,146.3,16,.3-.4-50.5-247.8-51.1-248.4-.2-.2-1,1.3-1.9,3.4Z"/>
    <path class="cls-15" d="M298.29,17.01c-19.5,3.7-36.1,7-36.8,7.2-.8,.3,40.2,74,113.9,205.2,63.4,112.6,115.4,204.6,115.5,204.4,.3-.2-143.9-394.6-153.3-419.5-.8-2.3-2.1-4.2-2.7-4.1-.6,0-17.1,3.1-36.6,6.8Z"/>
    <path class="cls-3" d="M242.19,55.21c-30.3,2.5-56.7,25.6-64.3,56.1-2.2,8.9-2.2,25.7,0,34.6,6.7,26.9,27.7,47.9,54.6,54.6,8.9,2.2,25.7,2.2,34.6,0,26.9-6.7,47.9-27.7,54.6-54.6,2.2-8.9,2.2-25.7,0-34.6-4.4-17.7-15.5-33.7-30.4-43.9-14.2-9.7-30.4-13.7-49.1-12.2Z"/>
    <path class="cls-1" d="M.29,347.11v151H161.29V196.11H.29v151Z"/>
    <path class="cls-13" d="M33.29,259.11v188H229.29V71.11H33.29v188Z"/>
  </g>
  <g id="_图层_2" data-name="图层 2">
    <path class="cls-9" d="M500.29,250.11v250h500V.11H500.29V250.11Z"/>
    <path class="cls-11" d="M1436.99,13.81c-.8,2.1-22.3,54.4-47.6,116.2-25.3,61.9-45.9,112.6-45.7,112.8,.4,.5,145.9,16.3,146.3,16,.3-.4-50.5-247.8-51.1-248.4-.2-.2-1,1.3-1.9,3.4Z"/>
    <path class="cls-5" d="M1798.29,17.01c-19.5,3.7-36.1,7-36.8,7.2-.8,.3,40.2,74,113.9,205.2,63.4,112.6,115.4,204.6,115.5,204.4,.3-.2-143.9-394.6-153.3-419.5-.8-2.3-2.1-4.2-2.7-4.1-.6,0-17.1,3.1-36.6,6.8Z"/>
    <path class="cls-2" d="M2242.19,56.21c-30.3,2.5-56.7,25.6-64.3,56.1-2.2,8.9-2.2,25.7,0,34.6,6.7,26.9,27.7,47.9,54.6,54.6,8.9,2.2,25.7,2.2,34.6,0,26.9-6.7,47.9-27.7,54.6-54.6,2.2-8.9,2.2-25.7,0-34.6-4.4-17.7-15.5-33.7-30.4-43.9-14.2-9.7-30.4-13.7-49.1-12.2Z"/>
    <path class="cls-4" d="M1000.29,347.11v151h161V196.11h-161v151Z"/>
    <path class="cls-12" d="M2533.29,260.11v188h196V72.11h-196v188Z"/>
    <line class="cls-6" x1="500.29" y1=".11" x2="500.29" y2="500.11"/>
    <line class="cls-6" x1="1001.29" y1=".11" x2="1001.29" y2="500.11"/>
    <line class="cls-6" x1="1500.29" y1=".11" x2="1500.29" y2="500.11"/>
    <line class="cls-6" x1="2001.29" y1=".11" x2="2001.29" y2="500.11"/>
    <line class="cls-6" x1="2501.29" y1=".11" x2="2501.29" y2="500.11"/>
  </g>
</svg>