<?xml version="1.0" standalone="no"?><!DOCTYPE svg PUBLIC "-//W3C//DTD SVG 20010904//EN" "http://www.w3.org/TR/2001/REC-SVG-20010904/DTD/svg10.dtd"><svg version="1.0" xmlns="http://www.w3.org/2000/svg" width="637pt" height="631pt" viewBox="0 0 637 631" preserveAspectRatio="xMidYMid meet"><defs><linearGradient id="linear-gradient-1-1" x1="0.00%" y1="100.00%" x2="0.00%" y2="-0.00%"><stop offset="0%" style="stop-color:rgb(203,51,36);stop-opacity:1.000" /><stop offset="100%" style="stop-color:rgb(163,11,0);stop-opacity:1.000" /></linearGradient><linearGradient id="linear-gradient-1-2" x1="0.00%" y1="100.00%" x2="102.37%" y2="6.11%"><stop offset="0%" style="stop-color:rgb(218,218,218);stop-opacity:0.993" /><stop offset="100%" style="stop-color:rgb(209,209,209);stop-opacity:0.998" /></linearGradient><linearGradient id="linear-gradient-1-3" x1="0.00%" y1="100.00%" x2="35.76%" y2="-41.18%"><stop offset="0%" style="stop-color:rgb(190,187,187);stop-opacity:0.999" /><stop offset="100%" style="stop-color:rgb(189,191,191);stop-opacity:0.999" /></linearGradient><linearGradient id="linear-gradient-1-4" x1="0.00%" y1="100.00%" x2="0.00%" y2="-0.00%"><stop offset="0%" style="stop-color:rgb(221,195,192);stop-opacity:0.997" /><stop offset="100%" style="stop-color:rgb(182,214,217);stop-opacity:0.997" /></linearGradient><linearGradient id="linear-gradient-1-5" x1="0.00%" y1="0.00%" x2="105.77%" y2="85.50%"><stop offset="0%" style="stop-color:rgb(28,15,0);stop-opacity:1.000" /><stop offset="100%" style="stop-color:rgb(109,40,1);stop-opacity:1.000" /></linearGradient><linearGradient id="linear-gradient-1-6" x1="0.00%" y1="0.00%" x2="106.36%" y2="26.74%"><stop offset="0%" style="stop-color:rgb(180,65,1);stop-opacity:1.000" /><stop offset="100%" style="stop-color:rgb(248,201,72);stop-opacity:1.000" /></linearGradient><linearGradient id="linear-gradient-2-1" x1="0.00%" y1="100.00%" x2="0.00%" y2="0.00%"><stop offset="0%" style="stop-color:rgb(15,73,105);stop-opacity:0.105" /><stop offset="100%" style="stop-color:rgb(0,82,129);stop-opacity:0.205" /></linearGradient><linearGradient id="linear-gradient-2-2" x1="0.00%" y1="100.00%" x2="113.22%" y2="10.99%"><stop offset="0%" style="stop-color:rgb(218,73,56);stop-opacity:0.717" /><stop offset="100%" style="stop-color:rgb(243,73,47);stop-opacity:0.814" /></linearGradient><linearGradient id="linear-gradient-2-3" x1="0.00%" y1="100.00%" x2="108.17%" y2="24.40%"><stop offset="0%" style="stop-color:rgb(190,57,49);stop-opacity:0.780" /><stop offset="100%" style="stop-color:rgb(207,71,52);stop-opacity:0.809" /></linearGradient><linearGradient id="linear-gradient-2-4" x1="0.00%" y1="0.00%" x2="105.81%" y2="38.09%"><stop offset="0%" style="stop-color:rgb(203,55,52);stop-opacity:0.677" /><stop offset="100%" style="stop-color:rgb(240,72,44);stop-opacity:0.820" /></linearGradient><linearGradient id="linear-gradient-2-5" x1="0.00%" y1="0.00%" x2="112.13%" y2="43.71%"><stop offset="0%" style="stop-color:rgb(255,255,255);stop-opacity:0.789" /><stop offset="100%" style="stop-color:rgb(255,255,255);stop-opacity:0.386" /></linearGradient><linearGradient id="linear-gradient-2-6" x1="0.00%" y1="100.00%" x2="2.78%" y2="-5.95%"><stop offset="0%" style="stop-color:rgb(255,251,251);stop-opacity:0.826" /><stop offset="100%" style="stop-color:rgb(255,248,247);stop-opacity:0.618" /></linearGradient><linearGradient id="linear-gradient-2-7" x1="0.00%" y1="100.00%" x2="79.67%" y2="-9.79%"><stop offset="0%" style="stop-color:rgb(155,155,155);stop-opacity:0.261" /><stop offset="100%" style="stop-color:rgb(184,184,184);stop-opacity:0.511" /></linearGradient><linearGradient id="linear-gradient-2-8" x1="0.00%" y1="0.00%" x2="101.29%" y2="44.59%"><stop offset="0%" style="stop-color:rgb(22,0,0);stop-opacity:0.549" /><stop offset="100%" style="stop-color:rgb(65,118,112);stop-opacity:0.085" /></linearGradient><linearGradient id="linear-gradient-2-9" x1="0.00%" y1="100.00%" x2="65.83%" y2="-40.96%"><stop offset="0%" style="stop-color:rgb(242,218,194);stop-opacity:0.211" /><stop offset="100%" style="stop-color:rgb(255,245,223);stop-opacity:0.180" /></linearGradient><linearGradient id="linear-gradient-2-10" x1="0.00%" y1="100.00%" x2="100.35%" y2="4.84%"><stop offset="0%" style="stop-color:rgb(38,9,0);stop-opacity:0.683" /><stop offset="100%" style="stop-color:rgb(204,173,152);stop-opacity:0.633" /></linearGradient><linearGradient id="linear-gradient-2-11" x1="0.00%" y1="100.00%" x2="133.86%" y2="27.61%"><stop offset="0%" style="stop-color:rgb(140,89,55);stop-opacity:0.813" /><stop offset="100%" style="stop-color:rgb(119,69,37);stop-opacity:0.779" /></linearGradient><linearGradient id="linear-gradient-2-12" x1="0.00%" y1="100.00%" x2="105.55%" y2="32.97%"><stop offset="0%" style="stop-color:rgb(24,12,6);stop-opacity:0.635" /><stop offset="100%" style="stop-color:rgb(18,11,2);stop-opacity:0.825" /></linearGradient><linearGradient id="linear-gradient-2-13" x1="0.00%" y1="100.00%" x2="86.20%" y2="-39.27%"><stop offset="0%" style="stop-color:rgb(214,156,124);stop-opacity:0.365" /><stop offset="100%" style="stop-color:rgb(253,229,167);stop-opacity:0.333" /></linearGradient><linearGradient id="linear-gradient-2-14" x1="0.00%" y1="100.00%" x2="18.48%" y2="-33.99%"><stop offset="0%" style="stop-color:rgb(143,112,88);stop-opacity:0.406" /><stop offset="100%" style="stop-color:rgb(148,114,87);stop-opacity:0.414" /></linearGradient><linearGradient id="linear-gradient-2-15" x1="0.00%" y1="100.00%" x2="119.50%" y2="5.79%"><stop offset="0%" style="stop-color:rgb(180,167,156);stop-opacity:0.305" /><stop offset="100%" style="stop-color:rgb(180,175,164);stop-opacity:0.285" /></linearGradient><linearGradient id="linear-gradient-2-16" x1="0.00%" y1="100.00%" x2="149.41%" y2="7.30%"><stop offset="0%" style="stop-color:rgb(196,179,162);stop-opacity:0.413" /><stop offset="100%" style="stop-color:rgb(199,181,165);stop-opacity:0.406" /></linearGradient><linearGradient id="linear-gradient-2-17" x1="0.00%" y1="100.00%" x2="0.00%" y2="0.00%"><stop offset="0%" style="stop-color:rgb(5,9,5);stop-opacity:0.581" /><stop offset="100%" style="stop-color:rgb(0,7,5);stop-opacity:0.610" /></linearGradient><linearGradient id="linear-gradient-2-18" x1="0.00%" y1="100.00%" x2="97.71%" y2="-2.15%"><stop offset="0%" style="stop-color:rgb(182,186,187);stop-opacity:0.158" /><stop offset="100%" style="stop-color:rgb(191,198,200);stop-opacity:0.138" /></linearGradient><linearGradient id="linear-gradient-3-1" x1="0.00%" y1="100.00%" x2="0.00%" y2="0.00%"><stop offset="0%" style="stop-color:rgb(192,53,35);stop-opacity:0.790" /><stop offset="100%" style="stop-color:rgb(202,61,42);stop-opacity:0.803" /></linearGradient><linearGradient id="linear-gradient-3-2" x1="0.00%" y1="100.00%" x2="59.27%" y2="-36.95%"><stop offset="0%" style="stop-color:rgb(222,157,151);stop-opacity:0.747" /><stop offset="100%" style="stop-color:rgb(230,160,151);stop-opacity:0.754" /></linearGradient><linearGradient id="linear-gradient-3-3" x1="0.00%" y1="100.00%" x2="43.92%" y2="-33.82%"><stop offset="0%" style="stop-color:rgb(165,165,165);stop-opacity:0.585" /><stop offset="100%" style="stop-color:rgb(185,185,185);stop-opacity:0.723" /></linearGradient><linearGradient id="linear-gradient-3-4" x1="0.00%" y1="100.00%" x2="0.00%" y2="-0.00%"><stop offset="0%" style="stop-color:rgb(0,0,0);stop-opacity:0.833" /><stop offset="100%" style="stop-color:rgb(23,14,13);stop-opacity:0.801" /></linearGradient></defs><g id="layer-1"><path d="M3080 6117 c-64 -18 -174 -80 -239 -135 -73 -63 -168 -183 -204 -260 -28 -61 -50 -179 -47 -256 0 -16 -5 -33 -12 -38 -10 -6 -10 -8 0 -8 6 0 12 -7 12 -15 0 -8 4 -14 9 -12 5 1 26 -14 48 -34 38 -35 40 -36 52 -17 11 18 16 16 91 -36 44 -31 82 -56 85 -56 3 0 39 -22 79 -49 l73 -50 13 24 c33 62 167 115 289 115 67 0 96 -6 195 -41 63 -23 122 -39 130 -36 7 3 26 38 41 77 25 65 27 81 22 159 -7 118 -32 178 -145 345 -145 213 -170 245 -220 277 -79 50 -191 69 -272 46z" fill="url(#linear-gradient-1-1)" id="region-1-1" transform="translate(0.000000,631.000000) scale(0.100000,-0.100000)"/><path d="M2443 5426 c-232 -102 -442 -245 -550 -375 -162 -197 -211 -487 -114 -679 103 -205 423 -352 1046 -483 408 -85 528 -102 553 -77 7 7 12 9 12 5 0 -5 31 18 69 50 99 84 245 195 282 215 21 11 38 14 48 9 67 -36 451 -60 516 -32 l30 13 -37 19 c-21 11 -99 83 -175 162 -297 308 -346 346 -601 475 -161 82 -289 138 -502 217 -85 32 -174 71 -197 87 -74 50 -112 141 -98 233 l6 46 48 -73 c47 -72 144 -173 189 -197 18 -9 23 -9 26 1 15 52 26 97 26 105 0 9 -132 103 -145 103 -3 0 -41 25 -85 56 -75 52 -80 54 -91 36 -12 -19 -14 -18 -52 17 -22 20 -43 35 -48 34 -5 -2 -9 3 -9 11 0 8 -6 17 -12 19 -10 4 -10 6 0 6 6 1 12 12 12 26 0 14 -6 25 -12 25 -7 -1 -68 -25 -135 -54z" fill="url(#linear-gradient-1-2)" id="region-1-2" transform="translate(0.000000,631.000000) scale(0.100000,-0.100000)"/><path d="M3720 5372 c0 -21 -45 -139 -60 -156 -7 -10 22 -23 123 -54 164 -51 274 -80 340 -88 l50 -7 -6 62 c-8 89 -47 164 -102 197 -50 29 -209 64 -291 64 -45 0 -54 -3 -54 -18z" fill="url(#linear-gradient-1-3)" id="region-1-3" transform="translate(0.000000,631.000000) scale(0.100000,-0.100000)"/><path d="M2725 5265 c-14 -92 24 -183 98 -233 23 -16 112 -55 197 -87 213 -79 341 -135 502 -217 255 -128 307 -170 597 -471 147 -153 178 -177 234 -177 34 0 45 7 104 68 135 140 185 233 154 290 -9 16 -5 32 21 81 24 47 32 77 36 135 6 96 -15 143 -104 226 -104 97 -246 161 -424 191 -136 23 -321 75 -561 159 -155 53 -182 60 -252 60 -87 0 -174 -24 -237 -66 -39 -26 -73 -81 -85 -139 -12 -57 -13 -57 -37 -44 -45 24 -142 125 -189 197 l-48 73 -6 -46z" fill="url(#linear-gradient-1-4)" id="region-1-4" transform="translate(0.000000,631.000000) scale(0.100000,-0.100000)"/><path d="M1695 4553 c-164 -40 -470 -174 -614 -270 -165 -110 -310 -273 -367 -412 -42 -102 -111 -500 -100 -580 3 -25 7 -68 9 -95 2 -39 9 -54 31 -72 40 -35 79 -31 122 11 19 19 39 35 45 35 18 0 95 -85 147 -165 67 -101 162 -288 242 -475 101 -235 216 -466 277 -559 71 -106 182 -220 244 -250 48 -22 135 -44 316 -80 221 -43 279 -93 402 -345 68 -139 87 -170 132 -210 64 -57 135 -81 221 -73 115 10 169 75 251 298 62 165 68 179 110 232 47 60 96 80 186 75 135 -8 205 -56 336 -228 86 -113 118 -144 167 -164 100 -42 180 4 228 131 12 32 42 153 65 268 64 313 104 418 198 521 53 58 160 140 222 171 120 60 251 73 342 33 94 -40 161 -136 142 -203 -16 -56 -22 -220 -9 -282 6 -33 13 -82 14 -110 6 -105 83 -205 157 -205 63 0 97 24 127 88 l27 57 -3 325 c-2 298 -1 331 17 403 30 116 93 228 171 306 37 36 75 78 84 94 24 35 36 34 36 -4 0 -51 18 -22 36 59 15 68 16 118 11 437 -7 393 -13 437 -67 547 -118 237 -362 429 -745 586 -119 48 -255 96 -259 90 -36 -52 -46 -79 -36 -99 21 -38 3 -103 -45 -166 -73 -98 -171 -193 -198 -193 -13 0 -39 -8 -58 -17 -27 -14 -59 -18 -159 -18 -119 1 -326 27 -361 46 -10 5 -27 2 -48 -9 -37 -20 -183 -131 -282 -215 -38 -32 -69 -55 -69 -50 0 4 -5 2 -12 -5 -19 -19 -89 -14 -253 17 -769 146 -1093 260 -1284 451 -45 45 -98 158 -107 226 -3 30 -9 53 -13 53 -3 -1 -15 -3 -26 -6z" fill="url(#linear-gradient-1-5)" id="region-1-5" transform="translate(0.000000,631.000000) scale(0.100000,-0.100000)"/><path d="M776 3135 c-25 -25 -44 -35 -66 -35 l-30 0 1 -392 c0 -216 4 -544 9 -728 5 -184 9 -421 9 -526 0 -215 7 -258 59 -364 29 -59 58 -96 137 -176 109 -110 199 -175 357 -258 257 -135 649 -256 1018 -315 940 -151 1948 -60 2650 241 357 152 592 350 681 573 l24 60 3 748 c2 725 3 749 22 787 20 40 27 100 11 100 -5 0 -17 -12 -27 -27 -9 -16 -47 -58 -84 -94 -78 -78 -141 -190 -171 -306 -18 -72 -19 -105 -17 -403 l3 -325 -27 -57 c-30 -64 -64 -88 -127 -88 -74 0 -151 100 -157 205 -1 28 -8 77 -14 110 -13 62 -7 226 9 282 12 41 -10 97 -55 144 -147 151 -441 86 -651 -145 -94 -103 -134 -208 -198 -521 -23 -115 -53 -236 -65 -268 -48 -127 -128 -173 -228 -131 -49 20 -81 51 -167 164 -131 172 -201 220 -336 228 -90 5 -139 -15 -186 -75 -42 -53 -48 -67 -110 -232 -82 -223 -136 -288 -251 -298 -86 -8 -157 16 -221 73 -45 40 -64 71 -132 210 -123 252 -181 302 -402 345 -181 36 -268 58 -316 80 -62 30 -173 144 -244 250 -61 93 -176 324 -277 559 -80 187 -175 374 -242 475 -52 80 -129 165 -147 165 -6 0 -26 -16 -45 -35z" fill="url(#linear-gradient-1-6)" id="region-1-6" transform="translate(0.000000,631.000000) scale(0.100000,-0.100000)"/></g><g id="layer-2"><path d="M3005 6071 c-101 -50 -196 -128 -270 -223 -85 -108 -123 -194 -140 -318 l-6 -45 41 74 c114 205 156 252 347 382 73 50 154 108 179 130 l45 39 -58 0 c-47 0 -73 -8 -138 -39z" fill="url(#linear-gradient-2-1)" id="region-2-1" transform="translate(0.000000,631.000000) scale(0.100000,-0.100000)"/><path d="M3293 6033 c-26 -10 -11 -51 53 -148 133 -199 275 -343 311 -314 28 24 11 59 -115 245 -97 142 -120 171 -151 193 -28 19 -78 32 -98 24z" fill="url(#linear-gradient-2-2)" id="region-2-2" transform="translate(0.000000,631.000000) scale(0.100000,-0.100000)"/><path d="M3050 5852 c-34 -28 -21 -47 61 -93 35 -19 86 -50 113 -67 57 -36 111 -56 131 -48 37 14 -42 118 -140 186 -62 43 -129 52 -165 22z" fill="url(#linear-gradient-2-3)" id="region-2-3" transform="translate(0.000000,631.000000) scale(0.100000,-0.100000)"/><path d="M3570 5512 c0 -57 -3 -64 -37 -100 -41 -43 -101 -69 -223 -97 -41 -9 -99 -24 -129 -33 -30 -8 -111 -18 -180 -21 l-126 -6 76 -52 76 -52 13 24 c33 62 167 115 289 115 67 0 96 -6 195 -41 63 -23 122 -39 130 -36 7 3 26 37 41 77 l27 71 -21 52 c-19 46 -67 107 -114 146 -16 12 -17 8 -17 -47z" fill="url(#linear-gradient-2-4)" id="region-2-4" transform="translate(0.000000,631.000000) scale(0.100000,-0.100000)"/><path d="M2471 5375 c-119 -64 -230 -156 -264 -219 -64 -115 -81 -220 -56 -338 20 -93 52 -150 125 -222 93 -91 202 -145 389 -191 118 -30 163 -47 290 -111 244 -124 391 -229 421 -301 8 -18 14 -66 14 -108 l0 -76 69 58 c99 84 245 195 282 215 21 11 38 14 48 9 67 -36 451 -60 516 -32 l30 13 -37 19 c-21 11 -99 83 -175 162 -297 308 -346 346 -601 475 -161 82 -289 138 -502 217 -85 32 -174 71 -197 87 -74 50 -112 141 -98 233 l6 46 48 -73 c47 -72 144 -173 189 -197 18 -9 23 -9 26 1 15 52 26 97 26 105 0 9 -132 103 -145 103 -3 0 -41 25 -85 56 -75 52 -80 54 -91 36 -12 -19 -14 -18 -52 17 -22 20 -43 35 -48 34 -5 -2 -9 4 -9 12 0 25 -31 17 -119 -30z" fill="url(#linear-gradient-2-5)" id="region-2-5" transform="translate(0.000000,631.000000) scale(0.100000,-0.100000)"/><path d="M2725 5265 c-14 -92 24 -183 98 -233 23 -16 112 -55 197 -87 213 -79 341 -135 502 -217 255 -128 307 -170 597 -471 147 -153 178 -177 234 -177 34 0 45 7 104 68 139 143 181 224 153 293 -20 46 -105 66 -415 93 -267 24 -331 47 -450 154 -105 96 -204 145 -472 232 -122 39 -232 79 -245 89 -13 10 -33 21 -46 25 -39 13 -153 127 -203 204 l-48 73 -6 -46z" fill="url(#linear-gradient-2-6)" id="region-2-6" transform="translate(0.000000,631.000000) scale(0.100000,-0.100000)"/><path d="M2169 5128 c-72 -98 -106 -214 -95 -328 22 -220 118 -404 311 -593 55 -54 130 -119 167 -143 128 -86 266 -133 348 -119 86 15 173 136 175 243 l0 44 -135 69 c-112 57 -159 75 -275 104 -187 46 -296 100 -389 191 -96 95 -136 193 -136 335 0 61 28 161 57 205 28 44 5 37 -28 -8z" fill="url(#linear-gradient-2-7)" id="region-2-7" transform="translate(0.000000,631.000000) scale(0.100000,-0.100000)"/><path d="M1748 4349 c-130 -172 24 -352 409 -478 544 -179 1431 -179 1973 -1 306 100 484 249 455 381 l-7 30 -61 -68 c-96 -106 -127 -133 -151 -133 -13 0 -38 -8 -57 -17 -27 -14 -59 -18 -159 -18 -119 1 -326 27 -361 46 -10 5 -27 2 -48 -9 -37 -20 -183 -131 -282 -215 -38 -32 -69 -55 -69 -50 0 4 -5 2 -12 -5 -19 -19 -89 -14 -253 17 -673 128 -995 229 -1190 373 -77 57 -121 101 -144 145 l-18 36 -25 -34z" fill="url(#linear-gradient-2-8)" id="region-2-8" transform="translate(0.000000,631.000000) scale(0.100000,-0.100000)"/><path d="M4670 4253 c-1 -57 -35 -203 -68 -285 -60 -150 -148 -273 -295 -414 -220 -212 -459 -337 -726 -380 -53 -8 -98 -18 -101 -21 -8 -9 397 5 470 16 36 5 94 12 130 16 82 7 283 47 425 85 245 65 486 163 612 248 119 80 214 214 213 299 -2 123 -122 258 -315 355 -76 38 -299 118 -330 118 -11 0 -15 -11 -15 -37z" fill="url(#linear-gradient-2-9)" id="region-2-9" transform="translate(0.000000,631.000000) scale(0.100000,-0.100000)"/><path d="M5319 4043 c117 -117 151 -209 122 -327 -123 -500 -1574 -840 -2951 -690 -665 72 -1215 254 -1448 478 -62 59 -107 120 -128 174 l-14 37 5 -60 c34 -383 763 -700 1830 -795 200 -18 643 -24 866 -11 830 46 1550 247 1846 515 28 25 75 83 104 128 48 75 53 88 57 154 2 40 2 88 -2 108 -15 79 -141 224 -272 312 -45 30 -84 54 -87 54 -4 0 29 -35 72 -77z" fill="url(#linear-gradient-2-10)" id="region-2-10" transform="translate(0.000000,631.000000) scale(0.100000,-0.100000)"/><path d="M5592 3349 c-39 -45 -195 -165 -309 -235 -43 -26 -80 -51 -83 -55 -3 -3 -24 -16 -48 -28 -24 -12 -57 -30 -74 -41 l-30 -18 44 -20 c82 -36 154 -162 204 -356 l28 -105 22 56 c13 30 31 65 42 77 10 11 39 50 64 86 26 36 70 95 100 132 83 104 93 142 91 333 -1 88 -6 172 -10 187 l-8 27 -33 -40z" fill="url(#linear-gradient-2-11)" id="region-2-11" transform="translate(0.000000,631.000000) scale(0.100000,-0.100000)"/><path d="M776 3235 c-40 -52 -100 -59 -142 -18 -16 17 -17 15 -11 -27 12 -90 90 -118 153 -55 19 19 39 35 45 35 18 0 95 -85 147 -165 67 -101 162 -288 242 -475 101 -235 216 -466 277 -559 71 -106 182 -220 244 -250 48 -22 135 -44 316 -80 221 -43 279 -93 402 -345 68 -139 87 -170 132 -210 64 -57 135 -81 221 -73 115 10 169 75 251 298 62 165 68 179 110 232 47 60 96 80 186 75 135 -8 205 -56 336 -228 86 -113 118 -144 167 -164 100 -42 180 4 228 131 12 32 42 153 65 268 78 385 131 489 313 623 119 88 214 124 326 124 115 0 208 -52 260 -147 l17 -30 -7 45 c-12 83 -59 147 -149 201 -35 21 -52 24 -135 24 -91 -1 -98 -3 -181 -43 -117 -59 -235 -154 -293 -239 -64 -95 -98 -197 -151 -453 -25 -122 -54 -243 -64 -270 -23 -60 -66 -117 -102 -136 -36 -18 -122 -18 -157 0 -36 19 -96 84 -166 178 -110 148 -203 208 -327 208 -74 0 -115 -17 -157 -64 -42 -49 -62 -88 -112 -231 -52 -147 -104 -249 -141 -276 -78 -55 -181 -66 -269 -28 -82 35 -131 99 -219 283 -128 267 -179 305 -479 356 -199 33 -273 69 -371 176 -117 127 -194 265 -356 634 -162 368 -239 512 -348 643 -58 70 -70 74 -101 32z" fill="url(#linear-gradient-2-12)" id="region-2-12" transform="translate(0.000000,631.000000) scale(0.100000,-0.100000)"/><path d="M776 3135 c-25 -25 -44 -35 -66 -35 l-30 0 1 -392 c0 -432 14 -1037 25 -1081 27 -114 385 -340 745 -470 478 -173 908 -253 1494 -278 221 -10 293 -9 485 5 578 42 1123 163 1573 348 256 105 511 255 584 344 l38 47 2 544 c3 522 4 545 23 583 20 40 27 100 11 100 -5 0 -17 -12 -27 -27 -9 -16 -47 -58 -84 -94 -78 -78 -141 -190 -171 -306 -18 -72 -19 -105 -17 -403 l3 -325 -27 -57 c-30 -64 -64 -88 -127 -88 -74 0 -151 100 -157 205 -1 28 -8 77 -14 110 -13 62 -7 226 9 282 12 41 -10 97 -55 144 -147 151 -441 86 -651 -145 -94 -103 -134 -208 -198 -521 -23 -115 -53 -236 -65 -268 -48 -127 -128 -173 -228 -131 -49 20 -81 51 -167 164 -131 172 -201 220 -336 228 -90 5 -139 -15 -186 -75 -42 -53 -48 -67 -110 -232 -82 -223 -136 -288 -251 -298 -86 -8 -157 16 -221 73 -45 40 -64 71 -132 210 -123 252 -181 302 -402 345 -181 36 -268 58 -316 80 -62 30 -173 144 -244 250 -61 93 -176 324 -277 559 -80 187 -175 374 -242 475 -52 80 -129 165 -147 165 -6 0 -26 -16 -45 -35z" fill="url(#linear-gradient-2-13)" id="region-2-13" transform="translate(0.000000,631.000000) scale(0.100000,-0.100000)"/><path d="M4690 2614 c-84 -25 -296 -122 -286 -131 2 -3 40 2 83 11 290 59 510 28 622 -88 18 -19 58 -83 87 -143 l54 -108 -5 55 c-23 210 -111 361 -239 409 -81 30 -203 28 -316 -5z" fill="url(#linear-gradient-2-14)" id="region-2-14" transform="translate(0.000000,631.000000) scale(0.100000,-0.100000)"/><path d="M4189 2186 c-136 -100 -209 -279 -209 -515 0 -47 -5 -103 -10 -123 -14 -51 -53 -94 -96 -108 l-36 -12 26 -26 c17 -18 36 -26 60 -26 78 0 114 79 127 275 13 198 73 385 168 523 18 25 28 46 24 46 -4 0 -29 -16 -54 -34z" fill="url(#linear-gradient-2-15)" id="region-2-15" transform="translate(0.000000,631.000000) scale(0.100000,-0.100000)"/><path d="M5311 1995 c-2 -67 -35 -224 -56 -264 -20 -40 -14 -49 19 -27 45 29 59 71 58 171 -1 50 -6 108 -11 130 l-9 40 -1 -50z" fill="url(#linear-gradient-2-16)" id="region-2-16" transform="translate(0.000000,631.000000) scale(0.100000,-0.100000)"/><path d="M5360 1817 c0 -32 -43 -117 -74 -146 -17 -16 -41 -25 -74 -29 -44 -4 -52 -1 -84 27 -20 17 -46 50 -58 74 l-22 42 6 -43 c15 -104 87 -192 157 -192 63 0 97 24 127 88 24 53 45 202 28 202 -3 0 -6 -10 -6 -23z" fill="url(#linear-gradient-2-17)" id="region-2-17" transform="translate(0.000000,631.000000) scale(0.100000,-0.100000)"/><path d="M3153 1751 c-70 -32 -123 -98 -209 -263 -114 -218 -182 -281 -285 -262 l-34 7 24 -26 c13 -14 39 -33 58 -42 105 -50 197 53 313 348 49 125 101 191 182 231 47 24 49 26 22 26 -16 0 -48 -9 -71 -19z" fill="url(#linear-gradient-2-18)" id="region-2-18" transform="translate(0.000000,631.000000) scale(0.100000,-0.100000)"/></g><g id="layer-3"><path d="M3390 5895 c-10 -12 -8 -23 10 -59 23 -48 141 -166 165 -166 27 0 29 47 4 82 -31 41 -147 158 -158 158 -5 0 -14 -7 -21 -15z" fill="url(#linear-gradient-3-1)" id="region-3-1" transform="translate(0.000000,631.000000) scale(0.100000,-0.100000)"/><path d="M3120 5820 c-13 -9 -12 -12 5 -25 10 -8 34 -19 52 -24 18 -5 47 -21 64 -35 48 -41 55 -30 13 18 -35 40 -88 76 -111 76 -4 0 -15 -5 -23 -10z" fill="url(#linear-gradient-3-2)" id="region-3-2" transform="translate(0.000000,631.000000) scale(0.100000,-0.100000)"/><path d="M2684 5327 c-40 -41 -106 -172 -135 -267 -19 -58 -24 -98 -24 -180 0 -94 3 -111 27 -163 39 -82 78 -128 150 -175 91 -59 136 -72 295 -83 277 -18 416 -71 588 -224 61 -53 125 -104 143 -113 17 -9 32 -19 32 -22 0 -4 6 -7 13 -8 6 -1 59 -11 117 -23 127 -25 367 -31 415 -10 l30 13 -37 19 c-21 11 -99 83 -175 162 -297 308 -346 346 -601 475 -161 82 -289 138 -502 217 -85 32 -174 71 -197 87 -74 50 -112 141 -98 233 l6 46 48 -73 c47 -72 144 -173 189 -197 18 -9 23 -9 26 1 15 52 26 97 26 105 0 9 -132 103 -145 103 -3 0 -41 24 -83 54 l-78 55 -30 -32z" fill="url(#linear-gradient-3-3)" id="region-3-3" transform="translate(0.000000,631.000000) scale(0.100000,-0.100000)"/><path d="M5634 2823 c-9 -16 -47 -58 -84 -94 -118 -118 -191 -297 -189 -463 l2 -81 7 75 c14 140 95 300 192 382 58 48 108 129 108 176 0 39 -12 41 -36 5z" fill="url(#linear-gradient-3-4)" id="region-3-4" transform="translate(0.000000,631.000000) scale(0.100000,-0.100000)"/></g></svg>