<?xml version="1.0" encoding="utf-8"?>
<!-- Generator: Adobe Illustrator 26.5.0, SVG Export Plug-In . SVG Version: 6.00 Build 0)  -->
<svg version="1.1" id="图层_1" xmlns="http://www.w3.org/2000/svg" xmlns:xlink="http://www.w3.org/1999/xlink" x="0px" y="0px"
	 viewBox="0 0 2548 631.6" style="enable-background:new 0 0 2548 631.6;" xml:space="preserve">
<style type="text/css">
	.st0{fill:none;}
	.st1{fill:#D3D3D3;}
	.st2{fill:url(#SVGID_1_);}
	.st3{fill:url(#region-1-1_00000101815344108918744550000010659501306639320200_);}
	.st4{fill:url(#region-1-2_00000096763690432381737700000003887454405435289474_);}
	.st5{fill:url(#region-1-3_00000062178743052784522980000018419521436670043835_);}
	.st6{fill:url(#region-1-4_00000109019943538045368980000006050683452179751313_);}
	.st7{fill:url(#region-1-5_00000041976109897146350300000013544255025199930028_);}
	.st8{fill:url(#region-1-6_00000179645698717067197490000018325529908703824258_);}
	.st9{fill:url(#region-2-1_00000044899801120391032090000017156341741254704790_);}
	.st10{fill:url(#region-2-2_00000134931707512007949540000000653194970280811949_);}
	.st11{fill:url(#region-2-3_00000074418062672354668360000001831365272166196629_);}
	.st12{fill:url(#region-2-4_00000005972080331959378920000006435589319914739354_);}
	.st13{fill:url(#region-2-5_00000123437477390298929450000007330622220542800277_);}
	.st14{fill:url(#region-2-6_00000028291996670375020680000008419744638076684445_);}
	.st15{fill:url(#region-2-7_00000062176181044346251320000006459041862256494002_);}
	.st16{fill:url(#region-2-8_00000085244820741568793240000015268415689294503867_);}
	.st17{fill:url(#region-2-9_00000100359850270604308750000001807643191743595956_);}
	.st18{fill:url(#region-2-10_00000021827157460753237400000010385649113118800035_);}
	.st19{fill:url(#region-2-11_00000092419076279314889980000001444289601847007122_);}
	.st20{fill:url(#region-2-12_00000137092752137815395900000008498146569772047766_);}
	.st21{fill:url(#region-2-13_00000083081314280394990760000001957250953605979543_);}
	.st22{fill:url(#region-2-14_00000068672974747963837610000004823740993582325676_);}
	.st23{fill:url(#region-2-15_00000123403923301884245930000011835746335516716722_);}
	.st24{fill:url(#region-2-16_00000021804402951935060560000004964261739463397784_);}
	.st25{fill:url(#region-2-17_00000098901463446780156710000017951037355682084781_);}
	.st26{fill:url(#region-2-18_00000065066398776892108830000003128913997505573541_);}
	.st27{fill:url(#region-3-1_00000014606715689822150020000007171137443870166946_);}
	.st28{fill:url(#region-3-2_00000082358122553222873080000018337762671528473276_);}
	.st29{fill:url(#region-3-3_00000127740931628376187080000011880190769096976034_);}
	.st30{fill:url(#region-3-4_00000108302126416982202190000010298643837505164206_);}
	.st31{fill:none;stroke:#000000;stroke-width:3;stroke-miterlimit:10;}
	.st32{fill:url(#region-3-1_00000169550647846154969300000002190636834754996120_);}
	.st33{fill:url(#region-3-2_00000134226563335191850140000015834973750003227791_);}
	
		.st34{fill:url(#region-3-3_00000047740680537362878020000002099820096695357594_);stroke:#000000;stroke-width:2;stroke-miterlimit:10;}
	.st35{fill:url(#region-3-4_00000160871769000370967570000015620131278040389793_);}
	
		.st36{fill:url(#region-2-1_00000126281299075132107130000014829865640163835828_);stroke:#000000;stroke-width:2;stroke-miterlimit:10;}
	.st37{fill:url(#region-2-2_00000078013843994702755630000011906475990723920539_);}
	.st38{fill:url(#region-2-3_00000134210959065205006550000015744672332182592958_);}
	.st39{fill:url(#region-2-4_00000172399685948178948460000018134098188588415646_);}
	
		.st40{fill:url(#region-2-5_00000109745860491651100810000011089443759321903513_);stroke:#000000;stroke-width:2;stroke-miterlimit:10;}
	
		.st41{fill:url(#region-2-6_00000094581620437892179650000005701467845769288580_);stroke:#000000;stroke-width:2;stroke-miterlimit:10;}
	
		.st42{fill:url(#region-2-7_00000171678870345709171110000013964043397188727437_);stroke:#000000;stroke-width:2;stroke-miterlimit:10;}
	
		.st43{fill:url(#region-2-8_00000061469642634448896730000011078447954351134341_);stroke:#000000;stroke-width:2;stroke-miterlimit:10;}
	
		.st44{fill:url(#region-2-9_00000141430814984468865020000007395626643579797180_);stroke:#000000;stroke-width:2;stroke-miterlimit:10;}
	.st45{fill:url(#region-2-10_00000127735246393530620080000014089459039276830126_);}
	.st46{fill:url(#region-2-11_00000123417284315661421750000016789861871081693061_);}
	.st47{fill:url(#region-2-12_00000056398719763019456530000004208133143429562262_);}
	
		.st48{fill:url(#region-2-13_00000101823254732811381320000015029907979227126932_);stroke:#000000;stroke-width:2;stroke-miterlimit:10;}
	
		.st49{fill:url(#region-2-14_00000074432799713768358430000008441353105385194898_);stroke:#000000;stroke-width:2;stroke-miterlimit:10;}
	
		.st50{fill:url(#region-2-15_00000179627597830839869490000013657274551007068041_);stroke:#000000;stroke-width:2;stroke-miterlimit:10;}
	
		.st51{fill:url(#region-2-16_00000064332651841963597010000005222931169393581481_);stroke:#000000;stroke-width:2;stroke-miterlimit:10;}
	.st52{fill:url(#region-2-17_00000096043112126954730510000016870362968759578032_);}
	
		.st53{fill:url(#region-2-18_00000072261772709799139230000002397048547940336000_);stroke:#000000;stroke-width:2;stroke-miterlimit:10;}
	.st54{fill:url(#region-1-1_00000100352609888536433610000006860750117541793957_);}
	.st55{fill:url(#region-1-2_00000144321345838686703650000005787038542656919967_);}
	.st56{fill:url(#region-1-3_00000160892734297970964840000017493108778295732623_);}
	.st57{fill:url(#region-1-4_00000180352754543029834500000009026263540172390539_);}
	.st58{fill:url(#region-1-5_00000078743839108583456630000005054070740623059889_);}
	.st59{fill:url(#region-1-6_00000147933700063579022640000006683717928200011426_);}
</style>
<pattern  y="631.6" width="40" height="40" patternUnits="userSpaceOnUse" id="SVGID_0000005712896073581907848" viewBox="0 -40 40 40" style="overflow:visible;">
	<g>
		<rect y="-40" class="st0" width="40" height="40"/>
		<g>
			<rect y="-40" class="st0" width="40" height="40"/>
			<g>
				<rect y="-40" class="st0" width="40" height="40"/>
				<rect y="-40" class="st0" width="40" height="40"/>
				<rect y="-40" class="st1" width="20" height="20"/>
				<rect x="20" y="-20" class="st1" width="20" height="20"/>
			</g>
		</g>
	</g>
</pattern>
<g id="图层_3">
	<pattern  id="SVGID_1_" xlink:href="#SVGID_0000005712896073581907848" patternTransform="matrix(1 0 0 1 66.3 17465.8398)">
	</pattern>
	<rect x="637" class="st2" width="1911" height="631.6"/>
</g>
<g id="图层_1_00000038399828226866982620000003243969533423147923_">
	<g id="layer-1">
		
			<linearGradient id="region-1-1_00000169523515220975054230000004631049097555659931_" gradientUnits="userSpaceOnUse" x1="3023.8997" y1="-50.8918" x2="3023.8997" y2="-51.8918" gradientTransform="matrix(114.8704 0 0 -97.5685 -347055.375 -4948.2036)">
			<stop  offset="0" style="stop-color:#CB3324"/>
			<stop  offset="1" style="stop-color:#A30B00"/>
		</linearGradient>
		<path id="region-1-1" style="fill:url(#region-1-1_00000169523515220975054230000004631049097555659931_);" d="M294.7,18.2
			c-6.4,1.8-17.4,8-23.9,13.5c-7.3,6.3-16.8,18.3-20.4,26c-2.8,6.1-5,17.9-4.7,25.6c0,1.6-0.5,3.3-1.2,3.8c-1,0.6-1,0.8,0,0.8
			c0.6,0,1.2,0.7,1.2,1.5s0.4,1.4,0.9,1.2c0.5-0.1,2.6,1.4,4.8,3.4c3.8,3.5,4,3.6,5.2,1.7c1.1-1.8,1.6-1.6,9.1,3.6
			c4.4,3.1,8.2,5.6,8.5,5.6s3.9,2.2,7.9,4.9l7.3,5l1.3-2.4c3.3-6.2,16.7-11.5,28.9-11.5c6.7,0,9.6,0.6,19.5,4.1
			c6.3,2.3,12.2,3.9,13,3.6c0.7-0.3,2.6-3.8,4.1-7.7c2.5-6.5,2.7-8.1,2.2-15.9c-0.7-11.8-3.2-17.8-14.5-34.5
			c-14.5-21.3-17-24.5-22-27.7C314,17.8,302.8,15.9,294.7,18.2z"/>
		
			<linearGradient id="region-1-2_00000026130750387918411500000008530528694893915815_" gradientUnits="userSpaceOnUse" x1="3038.2119" y1="-44.5111" x2="3039.2356" y2="-45.45" gradientTransform="matrix(260.5617 0 0 -167.8556 -791507.625 -7371.6548)">
			<stop  offset="0" style="stop-color:#DADADA;stop-opacity:0.993"/>
			<stop  offset="1" style="stop-color:#D1D1D1;stop-opacity:0.998"/>
		</linearGradient>
		<path id="region-1-2" style="fill:url(#region-1-2_00000026130750387918411500000008530528694893915815_);" d="M231,87.3
			c-23.2,10.2-44.2,24.5-55,37.5c-16.2,19.7-21.1,48.7-11.4,67.9c10.3,20.5,42.3,35.2,104.6,48.3c40.8,8.5,52.8,10.2,55.3,7.7
			c0.7-0.7,1.2-0.9,1.2-0.5c0,0.5,3.1-1.8,6.9-5c9.9-8.4,24.5-19.5,28.2-21.5c2.1-1.1,3.8-1.4,4.8-0.9c6.7,3.6,45.1,6,51.6,3.2
			l3-1.3l-3.7-1.9c-2.1-1.1-9.9-8.3-17.5-16.2c-29.7-30.8-34.6-34.6-60.1-47.5c-16.1-8.2-28.9-13.8-50.2-21.7
			c-8.5-3.2-17.4-7.1-19.7-8.7c-7.4-5-11.2-14.1-9.8-23.3l0.6-4.6l4.8,7.3c4.7,7.2,14.4,17.3,18.9,19.7c1.8,0.9,2.3,0.9,2.6-0.1
			c1.5-5.2,2.6-9.7,2.6-10.5c0-0.9-13.2-10.3-14.5-10.3c-0.3,0-4.1-2.5-8.5-5.6c-7.5-5.2-8-5.4-9.1-3.6c-1.2,1.9-1.4,1.8-5.2-1.7
			c-2.2-2-4.3-3.5-4.8-3.4c-0.5,0.2-0.9-0.3-0.9-1.1c0-0.8-0.6-1.7-1.2-1.9c-1-0.4-1-0.6,0-0.6c0.6-0.1,1.2-1.2,1.2-2.6
			s-0.6-2.5-1.2-2.5C243.8,82,237.7,84.4,231,87.3z"/>
		
			<linearGradient id="region-1-3_00000081622877140988531170000016864219779526075066_" gradientUnits="userSpaceOnUse" x1="2990.7842" y1="-82.1133" x2="2991.1418" y2="-83.5251" gradientTransform="matrix(51.399 0 0 -32.3 -153354.4219 -2564.0212)">
			<stop  offset="0" style="stop-color:#BEBBBB;stop-opacity:0.999"/>
			<stop  offset="1" style="stop-color:#BDBFBF;stop-opacity:0.999"/>
		</linearGradient>
		<path id="region-1-3" style="fill:url(#region-1-3_00000081622877140988531170000016864219779526075066_);" d="M358.7,92.7
			c0,2.1-4.5,13.9-6,15.6c-0.7,1,2.2,2.3,12.3,5.4c16.4,5.1,27.4,8,34,8.8l5,0.7l-0.6-6.2c-0.8-8.9-4.7-16.4-10.2-19.7
			c-5-2.9-20.9-6.4-29.1-6.4C359.6,90.9,358.7,91.2,358.7,92.7z"/>
		
			<linearGradient id="region-1-4_00000000924317790464118630000010232547177160335488_" gradientUnits="userSpaceOnUse" x1="3034.8315" y1="-47.6787" x2="3034.8315" y2="-48.6787" gradientTransform="matrix(194.6817 0 0 -123.1 -590469.9375 -5770.4448)">
			<stop  offset="0" style="stop-color:#DDC3C0;stop-opacity:0.997"/>
			<stop  offset="1" style="stop-color:#B6D6D9;stop-opacity:0.997"/>
		</linearGradient>
		<path id="region-1-4" style="fill:url(#region-1-4_00000000924317790464118630000010232547177160335488_);" d="M259.2,103.4
			c-1.4,9.2,2.4,18.3,9.8,23.3c2.3,1.6,11.2,5.5,19.7,8.7c21.3,7.9,34.1,13.5,50.2,21.7c25.5,12.8,30.7,17,59.7,47.1
			c14.7,15.3,17.8,17.7,23.4,17.7c3.4,0,4.5-0.7,10.4-6.8c13.5-14,18.5-23.3,15.4-29c-0.9-1.6-0.5-3.2,2.1-8.1
			c2.4-4.7,3.2-7.7,3.6-13.5c0.6-9.6-1.5-14.3-10.4-22.6c-10.4-9.7-24.6-16.1-42.4-19.1c-13.6-2.3-32.1-7.5-56.1-15.9
			c-15.5-5.3-18.2-6-25.2-6c-8.7,0-17.4,2.4-23.7,6.6c-3.9,2.6-7.3,8.1-8.5,13.9c-1.2,5.7-1.3,5.7-3.7,4.4
			c-4.5-2.4-14.2-12.5-18.9-19.7l-4.8-7.3L259.2,103.4z"/>
		
			<linearGradient id="region-1-5_00000070808007699248175650000013307516649092026269_" gradientUnits="userSpaceOnUse" x1="3044.0037" y1="-40.5802" x2="3045.0613" y2="-39.7251" gradientTransform="matrix(510.6877 0 0 -354.7498 -1554520.5 -13895.666)">
			<stop  offset="0" style="stop-color:#1C0F00"/>
			<stop  offset="1" style="stop-color:#6D2801"/>
		</linearGradient>
		<path id="region-1-5" style="fill:url(#region-1-5_00000070808007699248175650000013307516649092026269_);" d="M156.2,174.6
			c-16.4,4-47,17.4-61.4,27c-16.5,11-31,27.3-36.7,41.2c-4.2,10.2-11.1,50-10,58c0.3,2.5,0.7,6.8,0.9,9.5c0.2,3.9,0.9,5.4,3.1,7.2
			c4,3.5,7.9,3.1,12.2-1.1c1.9-1.9,3.9-3.5,4.5-3.5c1.8,0,9.5,8.5,14.7,16.5c6.7,10.1,16.2,28.8,24.2,47.5
			c10.1,23.5,21.6,46.6,27.7,55.9c7.1,10.6,18.2,22,24.4,25c4.8,2.2,13.5,4.4,31.6,8c22.1,4.3,27.9,9.3,40.2,34.5
			c6.8,13.9,8.7,17,13.2,21c6.4,5.7,13.5,8.1,22.1,7.3c11.5-1,16.9-7.5,25.1-29.8c6.2-16.5,6.8-17.9,11-23.2c4.7-6,9.6-8,18.6-7.5
			c13.5,0.8,20.5,5.6,33.6,22.8c8.6,11.3,11.8,14.4,16.7,16.4c10,4.2,18-0.4,22.8-13.1c1.2-3.2,4.2-15.3,6.5-26.8
			c6.4-31.3,10.4-41.8,19.8-52.1c5.3-5.8,16-14,22.2-17.1c12-6,25.1-7.3,34.2-3.3c9.4,4,16.1,13.6,14.2,20.3
			c-1.6,5.6-2.2,22-0.9,28.2c0.6,3.3,1.3,8.2,1.4,11c0.6,10.5,8.3,20.5,15.7,20.5c6.3,0,9.7-2.4,12.7-8.8l2.7-5.7l-0.3-32.5
			c-0.2-29.8-0.1-33.1,1.7-40.3c3-11.6,9.3-22.8,17.1-30.6c3.7-3.6,7.5-7.8,8.4-9.4c2.4-3.5,3.6-3.4,3.6,0.4c0,5.1,1.8,2.2,3.6-5.9
			c1.5-6.8,1.6-11.8,1.1-43.7c-0.7-39.3-1.3-43.7-6.7-54.7c-11.8-23.7-36.2-42.9-74.5-58.6c-11.9-4.8-25.5-9.6-25.9-9
			c-3.6,5.2-4.6,7.9-3.6,9.9c2.1,3.8,0.3,10.3-4.5,16.6c-7.3,9.8-17.1,19.3-19.8,19.3c-1.3,0-3.9,0.8-5.8,1.7
			c-2.7,1.4-5.9,1.8-15.9,1.8c-11.9-0.1-32.6-2.7-36.1-4.6c-1-0.5-2.7-0.2-4.8,0.9c-3.7,2-18.3,13.1-28.2,21.5
			c-3.8,3.2-6.9,5.5-6.9,5c0-0.4-0.5-0.2-1.2,0.5c-1.9,1.9-8.9,1.4-25.3-1.7c-76.9-14.6-109.3-26-128.4-45.1
			c-4.5-4.5-9.8-15.8-10.7-22.6c-0.3-3-0.9-5.3-1.3-5.3C158.5,174.1,157.3,174.3,156.2,174.6z"/>
		
			<linearGradient id="region-1-6_00000021117384887749054230000005174349111323038853_" gradientUnits="userSpaceOnUse" x1="3043.8279" y1="-41.2128" x2="3044.8914" y2="-40.9453" gradientTransform="matrix(498.9825 0 0 -290.0667 -1518811.875 -11467.001)">
			<stop  offset="0" style="stop-color:#B44101"/>
			<stop  offset="1" style="stop-color:#F8C948"/>
		</linearGradient>
		<path id="region-1-6" style="fill:url(#region-1-6_00000021117384887749054230000005174349111323038853_);" d="M64.3,316.4
			c-2.5,2.5-4.4,3.5-6.6,3.5h-3l0.1,39.2c0,21.6,0.4,54.4,0.9,72.8s0.9,42.1,0.9,52.6c0,21.5,0.7,25.8,5.9,36.4
			c2.9,5.9,5.8,9.6,13.7,17.6c10.9,11,19.9,17.5,35.7,25.8c25.7,13.5,64.9,25.6,101.8,31.5c94,15.1,194.8,6,265-24.1
			c35.7-15.2,59.2-35,68.1-57.3l2.4-6l0.3-74.8c0.2-72.5,0.3-74.9,2.2-78.7c2-4,2.7-10,1.1-10c-0.5,0-1.7,1.2-2.7,2.7
			c-0.9,1.6-4.7,5.8-8.4,9.4c-7.8,7.8-14.1,19-17.1,30.6c-1.8,7.2-1.9,10.5-1.7,40.3l0.3,32.5l-2.7,5.7c-3,6.4-6.4,8.8-12.7,8.8
			c-7.4,0-15.1-10-15.7-20.5c-0.1-2.8-0.8-7.7-1.4-11c-1.3-6.2-0.7-22.6,0.9-28.2c1.2-4.1-1-9.7-5.5-14.4
			c-14.7-15.1-44.1-8.6-65.1,14.5c-9.4,10.3-13.4,20.8-19.8,52.1c-2.3,11.5-5.3,23.6-6.5,26.8c-4.8,12.7-12.8,17.3-22.8,13.1
			c-4.9-2-8.1-5.1-16.7-16.4c-13.1-17.2-20.1-22-33.6-22.8c-9-0.5-13.9,1.5-18.6,7.5c-4.2,5.3-4.8,6.7-11,23.2
			c-8.2,22.3-13.6,28.8-25.1,29.8c-8.6,0.8-15.7-1.6-22.1-7.3c-4.5-4-6.4-7.1-13.2-21c-12.3-25.2-18.1-30.2-40.2-34.5
			c-18.1-3.6-26.8-5.8-31.6-8c-6.2-3-17.3-14.4-24.4-25c-6.1-9.3-17.6-32.4-27.7-55.9c-8-18.7-17.5-37.4-24.2-47.5
			c-5.2-8-12.9-16.5-14.7-16.5C68.2,312.9,66.2,314.5,64.3,316.4z"/>
	</g>
	<g id="layer-2">
		
			<linearGradient id="region-2-1_00000137817788992262921790000010448364252911279521_" gradientUnits="userSpaceOnUse" x1="3000.512" y1="-59.584" x2="3000.512" y2="-60.584" gradientTransform="matrix(61.2 0 0 -62.5 -183355.1406 -3705.1016)">
			<stop  offset="0" style="stop-color:#0F4969;stop-opacity:0.105"/>
			<stop  offset="1" style="stop-color:#005281;stop-opacity:0.205"/>
		</linearGradient>
		<path id="region-2-1" style="fill:url(#region-2-1_00000137817788992262921790000010448364252911279521_);" d="M287.2,22.8
			c-10.1,5-19.6,12.8-27,22.3c-8.5,10.8-12.3,19.4-14,31.8l-0.6,4.5l4.1-7.4c11.4-20.5,15.6-25.2,34.7-38.2c7.3-5,15.4-10.8,17.9-13
			l4.5-3.9H301C296.3,18.9,293.7,19.7,287.2,22.8z"/>
		
			<linearGradient id="region-2-2_00000091732547364881343820000012812549817190524327_" gradientUnits="userSpaceOnUse" x1="2971.0183" y1="-67.733" x2="2972.1504" y2="-68.6232" gradientTransform="matrix(38.7712 0 0 -46.812 -114876.6016 -3142.2957)">
			<stop  offset="0" style="stop-color:#DA4938;stop-opacity:0.717"/>
			<stop  offset="1" style="stop-color:#F3492F;stop-opacity:0.814"/>
		</linearGradient>
		<path id="region-2-2" style="fill:url(#region-2-2_00000091732547364881343820000012812549817190524327_);" d="M316,26.6
			c-2.6,1-1.1,5.1,5.3,14.8c13.3,19.9,27.5,34.3,31.1,31.4c2.8-2.4,1.1-5.9-11.5-24.5c-9.7-14.2-12-17.1-15.1-19.3
			C323,27.1,318,25.8,316,26.6z"/>
		
			<linearGradient id="region-2-3_00000173882063392224970680000010570928314405943704_" gradientUnits="userSpaceOnUse" x1="2957.7009" y1="-101.9387" x2="2958.7827" y2="-102.6948" gradientTransform="matrix(33.181 0 0 -22.7354 -97850.9297 -2273.4346)">
			<stop  offset="0" style="stop-color:#BE3931;stop-opacity:0.78"/>
			<stop  offset="1" style="stop-color:#CF4734;stop-opacity:0.809"/>
		</linearGradient>
		<path id="region-2-3" style="fill:url(#region-2-3_00000173882063392224970680000010570928314405943704_);" d="M291.7,44.7
			c-3.4,2.8-2.1,4.7,6.1,9.3c3.5,1.9,8.6,5,11.3,6.7c5.7,3.6,11.1,5.6,13.1,4.8c3.7-1.4-4.2-11.8-14-18.6
			C302,42.6,295.3,41.7,291.7,44.7z"/>
		
			<linearGradient id="region-2-4_00000111913113373004417520000010222106432727885713_" gradientUnits="userSpaceOnUse" x1="3013.8167" y1="-72.7185" x2="3014.8748" y2="-72.3377" gradientTransform="matrix(84.7 0 0 -41.3551 -255003.125 -2902.0071)">
			<stop  offset="0" style="stop-color:#CB3734;stop-opacity:0.677"/>
			<stop  offset="1" style="stop-color:#F0482C;stop-opacity:0.82"/>
		</linearGradient>
		<path id="region-2-4" style="fill:url(#region-2-4_00000111913113373004417520000010222106432727885713_);" d="M343.7,78.7
			c0,5.7-0.3,6.4-3.7,10c-4.1,4.3-10.1,6.9-22.3,9.7c-4.1,0.9-9.9,2.4-12.9,3.3c-3,0.8-11.1,1.8-18,2.1l-12.6,0.6l7.6,5.2l7.6,5.2
			l1.3-2.4c3.3-6.2,16.7-11.5,28.9-11.5c6.7,0,9.6,0.6,19.5,4.1c6.3,2.3,12.2,3.9,13,3.6c0.7-0.3,2.6-3.7,4.1-7.7l2.7-7.1l-2.1-5.2
			c-1.9-4.6-6.7-10.7-11.4-14.6C343.8,72.8,343.7,73.2,343.7,78.7z"/>
		
			<linearGradient id="region-2-5_00000060003791332677053440000012401740509600742310_" gradientUnits="userSpaceOnUse" x1="3035.9939" y1="-45.4874" x2="3037.115" y2="-45.0504" gradientTransform="matrix(219.5033 0 0 -160.9894 -666235.6875 -7122.5112)">
			<stop  offset="0" style="stop-color:#FFFFFF;stop-opacity:0.789"/>
			<stop  offset="1" style="stop-color:#FFFFFF;stop-opacity:0.386"/>
		</linearGradient>
		<path id="region-2-5" style="fill:url(#region-2-5_00000060003791332677053440000012401740509600742310_);" d="M233.8,92.4
			c-11.9,6.4-23,15.6-26.4,21.9c-6.4,11.5-8.1,22-5.6,33.8c2,9.3,5.2,15,12.5,22.2c9.3,9.1,20.2,14.5,38.9,19.1
			c11.8,3,16.3,4.7,29,11.1c24.4,12.4,39.1,22.9,42.1,30.1c0.8,1.8,1.4,6.6,1.4,10.8v7.6l6.9-5.8c9.9-8.4,24.5-19.5,28.2-21.5
			c2.1-1.1,3.8-1.4,4.8-0.9c6.7,3.6,45.1,6,51.6,3.2l3-1.3l-3.7-1.9c-2.1-1.1-9.9-8.3-17.5-16.2c-29.7-30.8-34.6-34.6-60.1-47.5
			c-16.1-8.2-28.9-13.8-50.2-21.7c-8.5-3.2-17.4-7.1-19.7-8.7c-7.4-5-11.2-14.1-9.8-23.3l0.6-4.6l4.8,7.3
			c4.7,7.2,14.4,17.3,18.9,19.7c1.8,0.9,2.3,0.9,2.6-0.1c1.5-5.2,2.6-9.7,2.6-10.5c0-0.9-13.2-10.3-14.5-10.3
			c-0.3,0-4.1-2.5-8.5-5.6c-7.5-5.2-8-5.4-9.1-3.6c-1.2,1.9-1.4,1.8-5.2-1.7c-2.2-2-4.3-3.5-4.8-3.4c-0.5,0.2-0.9-0.4-0.9-1.2
			C245.7,86.9,242.6,87.7,233.8,92.4z"/>
		
			<linearGradient id="region-2-6_00000040569771628341949400000003665273302663863426_" gradientUnits="userSpaceOnUse" x1="3034.3997" y1="-47.666" x2="3034.4275" y2="-48.7254" gradientTransform="matrix(189.6063 0 0 -123.1 -574989.625 -5770.4448)">
			<stop  offset="0" style="stop-color:#FFFBFB;stop-opacity:0.826"/>
			<stop  offset="1" style="stop-color:#FFF8F7;stop-opacity:0.618"/>
		</linearGradient>
		<path id="region-2-6" style="fill:url(#region-2-6_00000040569771628341949400000003665273302663863426_);" d="M259.2,103.4
			c-1.4,9.2,2.4,18.3,9.8,23.3c2.3,1.6,11.2,5.5,19.7,8.7c21.3,7.9,34.1,13.5,50.2,21.7c25.5,12.8,30.7,17,59.7,47.1
			c14.7,15.3,17.8,17.7,23.4,17.7c3.4,0,4.5-0.7,10.4-6.8c13.9-14.3,18.1-22.4,15.3-29.3c-2-4.6-10.5-6.6-41.5-9.3
			c-26.7-2.4-33.1-4.7-45-15.4c-10.5-9.6-20.4-14.5-47.2-23.2c-12.2-3.9-23.2-7.9-24.5-8.9s-3.3-2.1-4.6-2.5
			c-3.9-1.3-15.3-12.7-20.3-20.4l-4.8-7.3L259.2,103.4z"/>
		
			<linearGradient id="region-2-7_00000056428272709673367380000004680481747396075667_" gradientUnits="userSpaceOnUse" x1="3019.5706" y1="-47.7249" x2="3020.3674" y2="-48.8228" gradientTransform="matrix(100.303 0 0 -122.3055 -302673.6562 -5727.7998)">
			<stop  offset="0" style="stop-color:#9B9B9B;stop-opacity:0.261"/>
			<stop  offset="1" style="stop-color:#B8B8B8;stop-opacity:0.511"/>
		</linearGradient>
		<path id="region-2-7" style="fill:url(#region-2-7_00000056428272709673367380000004680481747396075667_);" d="M203.6,117.1
			c-7.2,9.8-10.6,21.4-9.5,32.8c2.2,22,11.8,40.4,31.1,59.3c5.5,5.4,13,11.9,16.7,14.3c12.8,8.6,26.6,13.3,34.8,11.9
			c8.6-1.5,17.3-13.6,17.5-24.3v-4.4l-13.5-6.9c-11.2-5.7-15.9-7.5-27.5-10.4c-18.7-4.6-29.6-10-38.9-19.1
			c-9.6-9.5-13.6-19.3-13.6-33.5c0-6.1,2.8-16.1,5.7-20.5C209.2,111.9,206.9,112.6,203.6,117.1z"/>
		
			<linearGradient id="region-2-8_00000016065653336041221620000001551288335130182825_" gradientUnits="userSpaceOnUse" x1="3039.314" y1="-59.4746" x2="3040.3269" y2="-59.0285" gradientTransform="matrix(288.5362 0 0 -64.6376 -876834.3125 -3608.0254)">
			<stop  offset="0" style="stop-color:#160000;stop-opacity:0.549"/>
			<stop  offset="1" style="stop-color:#417670;stop-opacity:8.500000e-02"/>
		</linearGradient>
		<path id="region-2-8" style="fill:url(#region-2-8_00000016065653336041221620000001551288335130182825_);" d="M161.5,195
			c-13,17.2,2.4,35.2,40.9,47.8c54.4,17.9,143.1,17.9,197.3,0.1c30.6-10,48.4-24.9,45.5-38.1l-0.7-3l-6.1,6.8
			c-9.6,10.6-12.7,13.3-15.1,13.3c-1.3,0-3.8,0.8-5.7,1.7c-2.7,1.4-5.9,1.8-15.9,1.8c-11.9-0.1-32.6-2.7-36.1-4.6
			c-1-0.5-2.7-0.2-4.8,0.9c-3.7,2-18.3,13.1-28.2,21.5c-3.8,3.2-6.9,5.5-6.9,5c0-0.4-0.5-0.2-1.2,0.5c-1.9,1.9-8.9,1.4-25.3-1.7
			c-67.3-12.8-99.5-22.9-119-37.3c-7.7-5.7-12.1-10.1-14.4-14.5l-1.8-3.6L161.5,195z"/>
		
			<linearGradient id="region-2-9_00000034784672856254247100000000060219672475353009_" gradientUnits="userSpaceOnUse" x1="3033.6619" y1="-48.5884" x2="3034.3201" y2="-49.998" gradientTransform="matrix(185.0125 0 0 -113.9878 -560902.5 -5345.7847)">
			<stop  offset="0" style="stop-color:#F2DAC2;stop-opacity:0.211"/>
			<stop  offset="1" style="stop-color:#FFF5DF;stop-opacity:0.18"/>
		</linearGradient>
		<path id="region-2-9" style="fill:url(#region-2-9_00000034784672856254247100000000060219672475353009_);" d="M453.7,204.6
			c-0.1,5.7-3.5,20.3-6.8,28.5c-6,15-14.8,27.3-29.5,41.4c-22,21.2-45.9,33.7-72.6,38c-5.3,0.8-9.8,1.8-10.1,2.1
			c-0.8,0.9,39.7-0.5,47-1.6c3.6-0.5,9.4-1.2,13-1.6c8.2-0.7,28.3-4.7,42.5-8.5c24.5-6.5,48.6-16.3,61.2-24.8
			c11.9-8,21.4-21.4,21.3-29.9c-0.2-12.3-12.2-25.8-31.5-35.5c-7.6-3.8-29.9-11.8-33-11.8C454.1,200.9,453.7,202,453.7,204.6z"/>
		
			<linearGradient id="region-2-10_00000168080514674713673350000007893035283613974925_" gradientUnits="userSpaceOnUse" x1="3043.6108" y1="-47.1753" x2="3044.6145" y2="-48.1269" gradientTransform="matrix(470.9314 0 0 -127.7982 -1433232.25 -5817.6533)">
			<stop  offset="0" style="stop-color:#260900;stop-opacity:0.683"/>
			<stop  offset="1" style="stop-color:#CCAD98;stop-opacity:0.633"/>
		</linearGradient>
		<path id="region-2-10" style="fill:url(#region-2-10_00000168080514674713673350000007893035283613974925_);" d="M518.6,225.6
			c11.7,11.7,15.1,20.9,12.2,32.7c-12.3,50-157.4,84-295.1,69c-66.5-7.2-121.5-25.4-144.8-47.8c-6.2-5.9-10.7-12-12.8-17.4l-1.4-3.7
			l0.5,6c3.4,38.3,76.3,70,183,79.5c20,1.8,64.3,2.4,86.6,1.1c83-4.6,155-24.7,184.6-51.5c2.8-2.5,7.5-8.3,10.4-12.8
			c4.8-7.5,5.3-8.8,5.7-15.4c0.2-4,0.2-8.8-0.2-10.8c-1.5-7.9-14.1-22.4-27.2-31.2c-4.5-3-8.4-5.4-8.7-5.4
			C511,217.9,514.3,221.4,518.6,225.6z"/>
		
			<linearGradient id="region-2-11_00000055694019240614702940000017834287648147206820_" gradientUnits="userSpaceOnUse" x1="2998.5527" y1="-52.3184" x2="2999.8914" y2="-53.0422" gradientTransform="matrix(59.5223 0 0 -89.8 -177992.125 -4399.415)">
			<stop  offset="0" style="stop-color:#8C5937;stop-opacity:0.813"/>
			<stop  offset="1" style="stop-color:#774525;stop-opacity:0.779"/>
		</linearGradient>
		<path id="region-2-11" style="fill:url(#region-2-11_00000055694019240614702940000017834287648147206820_);" d="M545.9,295
			c-3.9,4.5-19.5,16.5-30.9,23.5c-4.3,2.6-8,5.1-8.3,5.5c-0.3,0.3-2.4,1.6-4.8,2.8c-2.4,1.2-5.7,3-7.4,4.1l-3,1.8l4.4,2
			c8.2,3.6,15.4,16.2,20.4,35.6l2.8,10.5l2.2-5.6c1.3-3,3.1-6.5,4.2-7.7c1-1.1,3.9-5,6.4-8.6c2.6-3.6,7-9.5,10-13.2
			c8.3-10.4,9.3-14.2,9.1-33.3c-0.1-8.8-0.6-17.2-1-18.7l-0.8-2.7L545.9,295z"/>
		
			<linearGradient id="region-2-12_00000095313290182333324930000011323245563939518141_" gradientUnits="userSpaceOnUse" x1="3043.0681" y1="-42.2761" x2="3044.1235" y2="-42.9463" gradientTransform="matrix(444.1386 0 0 -225.0593 -1351540.5 -9174.9336)">
			<stop  offset="0" style="stop-color:#180C06;stop-opacity:0.635"/>
			<stop  offset="1" style="stop-color:#120B02;stop-opacity:0.825"/>
		</linearGradient>
		<path id="region-2-12" style="fill:url(#region-2-12_00000095313290182333324930000011323245563939518141_);" d="M64.3,306.4
			c-4,5.2-10,5.9-14.2,1.8c-1.6-1.7-1.7-1.5-1.1,2.7c1.2,9,9,11.8,15.3,5.5c1.9-1.9,3.9-3.5,4.5-3.5c1.8,0,9.5,8.5,14.7,16.5
			c6.7,10.1,16.2,28.8,24.2,47.5c10.1,23.5,21.6,46.6,27.7,55.9c7.1,10.6,18.2,22,24.4,25c4.8,2.2,13.5,4.4,31.6,8
			c22.1,4.3,27.9,9.3,40.2,34.5c6.8,13.9,8.7,17,13.2,21c6.4,5.7,13.5,8.1,22.1,7.3c11.5-1,16.9-7.5,25.1-29.8
			c6.2-16.5,6.8-17.9,11-23.2c4.7-6,9.6-8,18.6-7.5c13.5,0.8,20.5,5.6,33.6,22.8c8.6,11.3,11.8,14.4,16.7,16.4
			c10,4.2,18-0.4,22.8-13.1c1.2-3.2,4.2-15.3,6.5-26.8c7.8-38.5,13.1-48.9,31.3-62.3c11.9-8.8,21.4-12.4,32.6-12.4
			c11.5,0,20.8,5.2,26,14.7l1.7,3l-0.7-4.5c-1.2-8.3-5.9-14.7-14.9-20.1c-3.5-2.1-5.2-2.4-13.5-2.4c-9.1,0.1-9.8,0.3-18.1,4.3
			c-11.7,5.9-23.5,15.4-29.3,23.9c-6.4,9.5-9.8,19.7-15.1,45.3c-2.5,12.2-5.4,24.3-6.4,27c-2.3,6-6.6,11.7-10.2,13.6
			c-3.6,1.8-12.2,1.8-15.7,0c-3.6-1.9-9.6-8.4-16.6-17.8c-11-14.8-20.3-20.8-32.7-20.8c-7.4,0-11.5,1.7-15.7,6.4
			c-4.2,4.9-6.2,8.8-11.2,23.1c-5.2,14.7-10.4,24.9-14.1,27.6c-7.8,5.5-18.1,6.6-26.9,2.8c-8.2-3.5-13.1-9.9-21.9-28.3
			c-12.8-26.7-17.9-30.5-47.9-35.6c-19.9-3.3-27.3-6.9-37.1-17.6c-11.7-12.7-19.4-26.5-35.6-63.4c-16.2-36.8-23.9-51.2-34.8-64.3
			C68.6,302.6,67.4,302.2,64.3,306.4z"/>
		
			<linearGradient id="region-2-13_00000171686246477539210360000006354554738198359183_" gradientUnits="userSpaceOnUse" x1="3044.104" y1="-41.869" x2="3044.9661" y2="-43.2617" gradientTransform="matrix(498.9825 0 0 -229.7641 -1518811.875 -9332.251)">
			<stop  offset="0" style="stop-color:#D69C7C;stop-opacity:0.365"/>
			<stop  offset="1" style="stop-color:#FDE5A7;stop-opacity:0.333"/>
		</linearGradient>
		<path id="region-2-13" style="fill:url(#region-2-13_00000171686246477539210360000006354554738198359183_);" d="M64.3,316.4
			c-2.5,2.5-4.4,3.5-6.6,3.5h-3l0.1,39.2c0,43.2,1.4,103.7,2.5,108.1c2.7,11.4,38.5,34,74.5,47c47.8,17.3,90.8,25.3,149.4,27.8
			c22.1,1,29.3,0.9,48.5-0.5c57.8-4.2,112.3-16.3,157.3-34.8c25.6-10.5,51.1-25.5,58.4-34.4l3.8-4.7l0.2-54.4
			c0.3-52.2,0.4-54.5,2.3-58.3c2-4,2.7-10,1.1-10c-0.5,0-1.7,1.2-2.7,2.7c-0.9,1.6-4.7,5.8-8.4,9.4c-7.8,7.8-14.1,19-17.1,30.6
			c-1.8,7.2-1.9,10.5-1.7,40.3l0.3,32.5l-2.7,5.7c-3,6.4-6.4,8.8-12.7,8.8c-7.4,0-15.1-10-15.7-20.5c-0.1-2.8-0.8-7.7-1.4-11
			c-1.3-6.2-0.7-22.6,0.9-28.2c1.2-4.1-1-9.7-5.5-14.4c-14.7-15.1-44.1-8.6-65.1,14.5c-9.4,10.3-13.4,20.8-19.8,52.1
			c-2.3,11.5-5.3,23.6-6.5,26.8c-4.8,12.7-12.8,17.3-22.8,13.1c-4.9-2-8.1-5.1-16.7-16.4c-13.1-17.2-20.1-22-33.6-22.8
			c-9-0.5-13.9,1.5-18.6,7.5c-4.2,5.3-4.8,6.7-11,23.2c-8.2,22.3-13.6,28.8-25.1,29.8c-8.6,0.8-15.7-1.6-22.1-7.3
			c-4.5-4-6.4-7.1-13.2-21c-12.3-25.2-18.1-30.2-40.2-34.5c-18.1-3.6-26.8-5.8-31.6-8c-6.2-3-17.3-14.4-24.4-25
			c-6.1-9.3-17.6-32.4-27.7-55.9c-8-18.7-17.5-37.4-24.2-47.5c-5.2-8-12.9-16.5-14.7-16.5C68.2,312.9,66.2,314.5,64.3,316.4z"/>
		
			<linearGradient id="region-2-14_00000075873710637886150010000009368410255649344160_" gradientUnits="userSpaceOnUse" x1="3014.282" y1="-66.4945" x2="3014.4668" y2="-67.8344" gradientTransform="matrix(84.6342 0 0 -48.5198 -254649.5938 -2863.2021)">
			<stop  offset="0" style="stop-color:#8F7058;stop-opacity:0.406"/>
			<stop  offset="1" style="stop-color:#947257;stop-opacity:0.414"/>
		</linearGradient>
		<path id="region-2-14" style="fill:url(#region-2-14_00000075873710637886150010000009368410255649344160_);" d="M455.7,368.5
			c-8.4,2.5-29.6,12.2-28.6,13.1c0.2,0.3,4-0.2,8.3-1.1c29-5.9,51-2.8,62.2,8.8c1.8,1.9,5.8,8.3,8.7,14.3l5.4,10.8l-0.5-5.5
			c-2.3-21-11.1-36.1-23.9-40.9C479.2,365,467,365.2,455.7,368.5z"/>
		
			<linearGradient id="region-2-15_00000033334313846756375960000013519869211815018412_" gradientUnits="userSpaceOnUse" x1="2974.5532" y1="-53.3547" x2="2975.7483" y2="-54.2968" gradientTransform="matrix(40.5876 0 0 -84.4 -120361 -4091.3599)">
			<stop  offset="0" style="stop-color:#B4A79C;stop-opacity:0.305"/>
			<stop  offset="1" style="stop-color:#B4AFA4;stop-opacity:0.285"/>
		</linearGradient>
		<path id="region-2-15" style="fill:url(#region-2-15_00000033334313846756375960000013519869211815018412_);" d="M405.6,411.3
			c-13.6,10-20.9,27.9-20.9,51.5c0,4.7-0.5,10.3-1,12.3c-1.4,5.1-5.3,9.4-9.6,10.8l-3.6,1.2l2.6,2.6c1.7,1.8,3.6,2.6,6,2.6
			c7.8,0,11.4-7.9,12.7-27.5c1.3-19.8,7.3-38.5,16.8-52.3c1.8-2.5,2.8-4.6,2.4-4.6S408.1,409.5,405.6,411.3z"/>
		
			<linearGradient id="region-2-16_00000166646913390894078390000014141155011675496068_" gradientUnits="userSpaceOnUse" x1="2703.929" y1="-78.4336" x2="2705.4229" y2="-79.3606" gradientTransform="matrix(8.8532 0 0 -35.271 -23428.418 -2334.6704)">
			<stop  offset="0" style="stop-color:#C4B3A2;stop-opacity:0.413"/>
			<stop  offset="1" style="stop-color:#C7B5A5;stop-opacity:0.406"/>
		</linearGradient>
		<path id="region-2-16" style="fill:url(#region-2-16_00000166646913390894078390000014141155011675496068_);" d="M517.8,430.4
			c-0.2,6.7-3.5,22.4-5.6,26.4c-2,4-1.4,4.9,1.9,2.7c4.5-2.9,5.9-7.1,5.8-17.1c-0.1-5-0.6-10.8-1.1-13l-0.9-4L517.8,430.4z"/>
		
			<linearGradient id="region-2-17_00000065059536430779647420000005924924416606698672_" gradientUnits="userSpaceOnUse" x1="2956.0696" y1="-87.5207" x2="2956.0696" y2="-88.5207" gradientTransform="matrix(32.4172 0 0 -29 -95319.7891 -2092.1992)">
			<stop  offset="0" style="stop-color:#050905;stop-opacity:0.581"/>
			<stop  offset="1" style="stop-color:#000705;stop-opacity:0.61"/>
		</linearGradient>
		<path id="region-2-17" style="fill:url(#region-2-17_00000065059536430779647420000005924924416606698672_);" d="M522.7,448.2
			c0,3.2-4.3,11.7-7.4,14.6c-1.7,1.6-4.1,2.5-7.4,2.9c-4.4,0.4-5.2,0.1-8.4-2.7c-2-1.7-4.6-5-5.8-7.4l-2.2-4.2l0.6,4.3
			c1.5,10.4,8.7,19.2,15.7,19.2c6.3,0,9.7-2.4,12.7-8.8c2.4-5.3,4.5-20.2,2.8-20.2C523,445.9,522.7,446.9,522.7,448.2z"/>
		
			<linearGradient id="region-2-18_00000085215598340516437200000000021090327793784465_" gradientUnits="userSpaceOnUse" x1="3000.4185" y1="-59.8521" x2="3001.3958" y2="-60.8735" gradientTransform="matrix(61.6488 0 0 -61.709 -184720.4531 -3243.0955)">
			<stop  offset="0" style="stop-color:#B6BABB;stop-opacity:0.158"/>
			<stop  offset="1" style="stop-color:#BFC6C8;stop-opacity:0.138"/>
		</linearGradient>
		<path id="region-2-18" style="fill:url(#region-2-18_00000085215598340516437200000000021090327793784465_);" d="M302,454.8
			c-7,3.2-12.3,9.8-20.9,26.3c-11.4,21.8-18.2,28.1-28.5,26.2l-3.4-0.7l2.4,2.6c1.3,1.4,3.9,3.3,5.8,4.2c10.5,5,19.7-5.3,31.3-34.8
			c4.9-12.5,10.1-19.1,18.2-23.1c4.7-2.4,4.9-2.6,2.2-2.6C307.5,452.9,304.3,453.8,302,454.8z"/>
	</g>
	<g id="layer-3">
		
			<linearGradient id="region-3-1_00000161610546878812226490000015375785251240844425_" gradientUnits="userSpaceOnUse" x1="2899.3291" y1="-98.3769" x2="2899.3291" y2="-99.3769" gradientTransform="matrix(20.2552 0 0 -24 -58391.2578 -2322.1992)">
			<stop  offset="0" style="stop-color:#C03523;stop-opacity:0.79"/>
			<stop  offset="1" style="stop-color:#CA3D2A;stop-opacity:0.803"/>
		</linearGradient>
		<path id="region-3-1" style="fill:url(#region-3-1_00000161610546878812226490000015375785251240844425_);" d="M325.7,40.4
			c-1,1.2-0.8,2.3,1,5.9c2.3,4.8,14.1,16.6,16.5,16.6c2.7,0,2.9-4.7,0.4-8.2c-3.1-4.1-14.7-15.8-15.8-15.8
			C327.3,38.9,326.4,39.6,325.7,40.4z"/>
		
			<linearGradient id="region-3-2_00000059995156726198017550000012057913558316897449_" gradientUnits="userSpaceOnUse" x1="2870.6389" y1="-162.0492" x2="2871.2314" y2="-163.4187" gradientTransform="matrix(17.0528 0 0 -11.9253 -48651.0078 -1886.7902)">
			<stop  offset="0" style="stop-color:#DE9D97;stop-opacity:0.747"/>
			<stop  offset="1" style="stop-color:#E6A097;stop-opacity:0.754"/>
		</linearGradient>
		<path id="region-3-2" style="fill:url(#region-3-2_00000059995156726198017550000012057913558316897449_);" d="M298.7,47.9
			c-1.3,0.9-1.2,1.2,0.5,2.5c1,0.8,3.4,1.9,5.2,2.4c1.8,0.5,4.7,2.1,6.4,3.5c4.8,4.1,5.5,3,1.3-1.8c-3.5-4-8.8-7.6-11.1-7.6
			C300.6,46.9,299.5,47.4,298.7,47.9z"/>
		
			<linearGradient id="region-3-3_00000017505385522688309970000015843114434241355668_" gradientUnits="userSpaceOnUse" x1="3033.3826" y1="-46.8345" x2="3033.8218" y2="-48.1726" gradientTransform="matrix(181 0 0 -131.2767 -548759.5625 -6064.667)">
			<stop  offset="0" style="stop-color:#A5A5A5;stop-opacity:0.585"/>
			<stop  offset="1" style="stop-color:#B9B9B9;stop-opacity:0.723"/>
		</linearGradient>
		<path id="region-3-3" style="fill:url(#region-3-3_00000017505385522688309970000015843114434241355668_);" d="M255.1,97.2
			c-4,4.1-10.6,17.2-13.5,26.7c-1.9,5.8-2.4,9.8-2.4,18c0,9.4,0.3,11.1,2.7,16.3c3.9,8.2,7.8,12.8,15,17.5
			c9.1,5.9,13.6,7.2,29.5,8.3c27.7,1.8,41.6,7.1,58.8,22.4c6.1,5.3,12.5,10.4,14.3,11.3c1.7,0.9,3.2,1.9,3.2,2.2
			c0,0.4,0.6,0.7,1.3,0.8c0.6,0.1,5.9,1.1,11.7,2.3c12.7,2.5,36.7,3.1,41.5,1l3-1.3l-3.7-1.9c-2.1-1.1-9.9-8.3-17.5-16.2
			c-29.7-30.8-34.6-34.6-60.1-47.5c-16.1-8.2-28.9-13.8-50.2-21.7c-8.5-3.2-17.4-7.1-19.7-8.7c-7.4-5-11.2-14.1-9.8-23.3l0.6-4.6
			l4.8,7.3c4.7,7.2,14.4,17.3,18.9,19.7c1.8,0.9,2.3,0.9,2.6-0.1c1.5-5.2,2.6-9.7,2.6-10.5c0-0.9-13.2-10.3-14.5-10.3
			c-0.3,0-4.1-2.4-8.3-5.4l-7.8-5.5L255.1,97.2z"/>
		
			<linearGradient id="region-3-4_00000086679124088866875760000007568610933847684484_" gradientUnits="userSpaceOnUse" x1="2951.4412" y1="-58.1744" x2="2951.4412" y2="-59.1744" gradientTransform="matrix(30.9041 0 0 -66.3686 -90673.3828 -3515.9199)">
			<stop  offset="0" style="stop-color:#000000;stop-opacity:0.833"/>
			<stop  offset="1" style="stop-color:#170E0D;stop-opacity:0.801"/>
		</linearGradient>
		<path id="region-3-4" style="fill:url(#region-3-4_00000086679124088866875760000007568610933847684484_);" d="M550.1,347.6
			c-0.9,1.6-4.7,5.8-8.4,9.4c-11.8,11.8-19.1,29.7-18.9,46.3l0.2,8.1l0.7-7.5c1.4-14,9.5-30,19.2-38.2c5.8-4.8,10.8-12.9,10.8-17.6
			C553.7,344.2,552.5,344,550.1,347.6z"/>
	</g>
</g>
<g id="图层_2_00000140732406253602800790000008082784240275462311_">
	<line class="st31" x1="1911" y1="1.8" x2="1911" y2="631.1"/>
	<line class="st31" x1="637" y1="0.7" x2="637" y2="632.3"/>
	<line class="st31" x1="1274" y1="-2.1" x2="1274" y2="628.7"/>
	<g id="layer-3_00000137810822128029172170000002100873214482428812_">
		
			<linearGradient id="region-3-1_00000078019404098070157800000001229287839031412411_" gradientUnits="userSpaceOnUse" x1="2992.3965" y1="-100.7791" x2="2992.3965" y2="-101.7791" gradientTransform="matrix(20.2552 0 0 -24 -58391.2578 -2322.1992)">
			<stop  offset="0" style="stop-color:#C03523;stop-opacity:0.79"/>
			<stop  offset="1" style="stop-color:#CA3D2A;stop-opacity:0.803"/>
		</linearGradient>
		
			<path id="region-3-1_00000034779718351691477410000011813899626792058259_" style="fill:url(#region-3-1_00000078019404098070157800000001229287839031412411_);" d="
			M2210.8,98c-1,1.2-0.8,2.3,1,5.9c2.3,4.8,14.1,16.6,16.5,16.6c2.7,0,2.9-4.7,0.4-8.2c-3.1-4.1-14.7-15.8-15.8-15.8
			C2212.4,96.5,2211.5,97.2,2210.8,98z"/>
		
			<linearGradient id="region-3-2_00000138543391287174843540000008512765469188193439_" gradientUnits="userSpaceOnUse" x1="2981.187" y1="-166.8865" x2="2981.7798" y2="-168.256" gradientTransform="matrix(17.0528 0 0 -11.9253 -48651.0078 -1886.7902)">
			<stop  offset="0" style="stop-color:#DE9D97;stop-opacity:0.747"/>
			<stop  offset="1" style="stop-color:#E6A097;stop-opacity:0.754"/>
		</linearGradient>
		
			<path id="region-3-2_00000158737520924222609110000000944660816171141531_" style="fill:url(#region-3-2_00000138543391287174843540000008512765469188193439_);" d="
			M2183.8,105.5c-1.3,0.9-1.2,1.2,0.5,2.5c1,0.8,3.4,1.9,5.2,2.4s4.7,2.1,6.4,3.5c4.8,4.1,5.5,3,1.3-1.8c-3.5-4-8.8-7.6-11.1-7.6
			C2185.7,104.5,2184.6,105,2183.8,105.5z"/>
		
			<linearGradient id="region-3-3_00000004506462420563151330000006528901811768548260_" gradientUnits="userSpaceOnUse" x1="3043.7981" y1="-47.274" x2="3044.2371" y2="-48.6122" gradientTransform="matrix(181 0 0 -131.2767 -548759.5625 -6064.667)">
			<stop  offset="0" style="stop-color:#A5A5A5;stop-opacity:0.585"/>
			<stop  offset="1" style="stop-color:#B9B9B9;stop-opacity:0.723"/>
		</linearGradient>
		
			<path id="region-3-3_00000017487656782029571130000012758780404892932028_" style="fill:url(#region-3-3_00000004506462420563151330000006528901811768548260_);stroke:#000000;stroke-width:2;stroke-miterlimit:10;" d="
			M2140.2,154.8c-4,4.1-10.6,17.2-13.5,26.7c-1.9,5.8-2.4,9.8-2.4,18c0,9.4,0.3,11.1,2.7,16.3c3.9,8.2,7.8,12.8,15,17.5
			c9.1,5.9,13.6,7.2,29.5,8.3c27.7,1.8,41.6,7.1,58.8,22.4c6.1,5.3,12.5,10.4,14.3,11.3c1.7,0.9,3.2,1.9,3.2,2.2
			c0,0.4,0.6,0.7,1.3,0.8c0.6,0.1,5.9,1.1,11.7,2.3c12.7,2.5,36.7,3.1,41.5,1l3-1.3l-3.7-1.9c-2.1-1.1-9.9-8.3-17.5-16.2
			c-29.7-30.8-34.6-34.6-60.1-47.5c-16.1-8.2-28.9-13.8-50.2-21.7c-8.5-3.2-17.4-7.1-19.7-8.7c-7.4-5-11.2-14.1-9.8-23.3l0.6-4.6
			l4.8,7.3c4.7,7.2,14.4,17.3,18.9,19.7c1.8,0.9,2.3,0.9,2.6-0.1c1.5-5.2,2.6-9.7,2.6-10.5c0-0.9-13.2-10.3-14.5-10.3
			c-0.3,0-4.1-2.4-8.3-5.4l-7.8-5.5L2140.2,154.8z"/>
		
			<linearGradient id="region-3-4_00000170985859408218595930000017013347219173008813_" gradientUnits="userSpaceOnUse" x1="3012.4395" y1="-59.0423" x2="3012.4395" y2="-60.0423" gradientTransform="matrix(30.9041 0 0 -66.3686 -90673.3828 -3515.9199)">
			<stop  offset="0" style="stop-color:#000000;stop-opacity:0.833"/>
			<stop  offset="1" style="stop-color:#170E0D;stop-opacity:0.801"/>
		</linearGradient>
		
			<path id="region-3-4_00000083786811220196046020000015666931648745878182_" style="fill:url(#region-3-4_00000170985859408218595930000017013347219173008813_);" d="
			M2435.2,405.2c-0.9,1.6-4.7,5.8-8.4,9.4c-11.8,11.8-19.1,29.7-18.9,46.3l0.2,8.1l0.7-7.5c1.4-14,9.5-30,19.2-38.2
			c5.8-4.8,10.8-12.9,10.8-17.6C2438.8,401.8,2437.6,401.6,2435.2,405.2z"/>
	</g>
	<g id="layer-2_00000059989175084678661760000002159275142641285300_">
		
			<linearGradient id="region-2-1_00000059312315896444876960000004195078642284388787_" gradientUnits="userSpaceOnUse" x1="3021.6968" y1="-59.6176" x2="3021.6968" y2="-60.6176" gradientTransform="matrix(61.2 0 0 -62.5 -183355.1406 -3705.1016)">
			<stop  offset="0" style="stop-color:#0F4969;stop-opacity:0.105"/>
			<stop  offset="1" style="stop-color:#005281;stop-opacity:0.205"/>
		</linearGradient>
		
			<path id="region-2-1_00000132046119423278906570000017366175861023432337_" style="fill:url(#region-2-1_00000059312315896444876960000004195078642284388787_);stroke:#000000;stroke-width:2;stroke-miterlimit:10;" d="
			M1583.7,24.9c-10.1,5-19.6,12.8-27,22.3c-8.5,10.8-12.3,19.4-14,31.8l-0.6,4.5l4.1-7.4c11.4-20.5,15.6-25.2,34.7-38.2
			c7.3-5,15.4-10.8,17.9-13l4.5-3.9h-5.8C1592.8,21,1590.2,21.8,1583.7,24.9z"/>
		
			<linearGradient id="region-2-2_00000078031247268391007570000010803205766776717715_" gradientUnits="userSpaceOnUse" x1="3004.4609" y1="-67.7803" x2="3005.5933" y2="-68.6704" gradientTransform="matrix(38.7712 0 0 -46.812 -114876.6016 -3142.2957)">
			<stop  offset="0" style="stop-color:#DA4938;stop-opacity:0.717"/>
			<stop  offset="1" style="stop-color:#F3492F;stop-opacity:0.814"/>
		</linearGradient>
		
			<path id="region-2-2_00000067220713688367896020000016542427610926621621_" style="fill:url(#region-2-2_00000078031247268391007570000010803205766776717715_);" d="
			M1612.5,28.7c-2.6,1-1.1,5.1,5.3,14.8c13.3,19.9,27.5,34.3,31.1,31.4c2.8-2.4,1.1-5.9-11.5-24.5c-9.7-14.2-12-17.1-15.1-19.3
			C1619.5,29.2,1614.5,27.9,1612.5,28.7z"/>
		
			<linearGradient id="region-2-3_00000119802246289361670970000013124885607136203421_" gradientUnits="userSpaceOnUse" x1="2996.7795" y1="-102.0346" x2="2997.8613" y2="-102.7907" gradientTransform="matrix(33.181 0 0 -22.7354 -97850.9297 -2273.4346)">
			<stop  offset="0" style="stop-color:#BE3931;stop-opacity:0.78"/>
			<stop  offset="1" style="stop-color:#CF4734;stop-opacity:0.809"/>
		</linearGradient>
		
			<path id="region-2-3_00000085217207091251168670000002588525058678335633_" style="fill:url(#region-2-3_00000119802246289361670970000013124885607136203421_);" d="
			M1588.2,46.8c-3.4,2.8-2.1,4.7,6.1,9.3c3.5,1.9,8.6,5,11.3,6.7c5.7,3.6,11.1,5.6,13.1,4.8c3.7-1.4-4.2-11.8-14-18.6
			C1598.5,44.7,1591.8,43.8,1588.2,46.8z"/>
		
			<linearGradient id="region-2-4_00000160182388872343077860000011461509590058122117_" gradientUnits="userSpaceOnUse" x1="3029.1238" y1="-72.7696" x2="3030.1819" y2="-72.3884" gradientTransform="matrix(84.7 0 0 -41.3551 -255003.125 -2902.0071)">
			<stop  offset="0" style="stop-color:#CB3734;stop-opacity:0.677"/>
			<stop  offset="1" style="stop-color:#F0482C;stop-opacity:0.82"/>
		</linearGradient>
		
			<path id="region-2-4_00000109722426670221881850000013773092677014940851_" style="fill:url(#region-2-4_00000160182388872343077860000011461509590058122117_);" d="
			M1640.2,80.8c0,5.7-0.3,6.4-3.7,10c-4.1,4.3-10.1,6.9-22.3,9.7c-4.1,0.9-9.9,2.4-12.9,3.3c-3,0.8-11.1,1.8-18,2.1l-12.6,0.6
			l7.6,5.2l7.6,5.2l1.3-2.4c3.3-6.2,16.7-11.5,28.9-11.5c6.7,0,9.6,0.6,19.5,4.1c6.3,2.3,12.2,3.9,13,3.6c0.7-0.3,2.6-3.7,4.1-7.7
			l2.7-7.1l-2.1-5.2c-1.9-4.6-6.7-10.7-11.4-14.6C1640.3,74.9,1640.2,75.3,1640.2,80.8z"/>
		
			<linearGradient id="region-2-5_00000142163402725703801770000017164963243599265921_" gradientUnits="userSpaceOnUse" x1="3041.8999" y1="-45.5006" x2="3043.0212" y2="-45.0635" gradientTransform="matrix(219.5033 0 0 -160.9894 -666235.6875 -7122.5112)">
			<stop  offset="0" style="stop-color:#FFFFFF;stop-opacity:0.789"/>
			<stop  offset="1" style="stop-color:#FFFFFF;stop-opacity:0.386"/>
		</linearGradient>
		
			<path id="region-2-5_00000043447013651654898900000001463950915815914429_" style="fill:url(#region-2-5_00000142163402725703801770000017164963243599265921_);stroke:#000000;stroke-width:2;stroke-miterlimit:10;" d="
			M1530.3,94.5c-11.9,6.4-23,15.6-26.4,21.9c-6.4,11.5-8.1,22-5.6,33.8c2,9.3,5.2,15,12.5,22.2c9.3,9.1,20.2,14.5,38.9,19.1
			c11.8,3,16.3,4.7,29,11.1c24.4,12.4,39.1,22.9,42.1,30.1c0.8,1.8,1.4,6.6,1.4,10.8v7.6l6.9-5.8c9.9-8.4,24.5-19.5,28.2-21.5
			c2.1-1.1,3.8-1.4,4.8-0.9c6.7,3.6,45.1,6,51.6,3.2l3-1.3l-3.7-1.9c-2.1-1.1-9.9-8.3-17.5-16.2c-29.7-30.8-34.6-34.6-60.1-47.5
			c-16.1-8.2-28.9-13.8-50.2-21.7c-8.5-3.2-17.4-7.1-19.7-8.7c-7.4-5-11.2-14.1-9.8-23.3l0.6-4.6l4.8,7.3
			c4.7,7.2,14.4,17.3,18.9,19.7c1.8,0.9,2.3,0.9,2.6-0.1c1.5-5.2,2.6-9.7,2.6-10.5c0-0.9-13.2-10.3-14.5-10.3
			c-0.3,0-4.1-2.5-8.5-5.6c-7.5-5.2-8-5.4-9.1-3.6c-1.2,1.9-1.4,1.8-5.2-1.7c-2.2-2-4.3-3.5-4.8-3.4c-0.5,0.2-0.9-0.4-0.9-1.2
			C1542.2,89,1539.1,89.8,1530.3,94.5z"/>
		
			<linearGradient id="region-2-6_00000167385522466083725170000004154605550819897487_" gradientUnits="userSpaceOnUse" x1="3041.2375" y1="-47.683" x2="3041.2654" y2="-48.7425" gradientTransform="matrix(189.6063 0 0 -123.1 -574989.625 -5770.4448)">
			<stop  offset="0" style="stop-color:#FFFBFB;stop-opacity:0.826"/>
			<stop  offset="1" style="stop-color:#FFF8F7;stop-opacity:0.618"/>
		</linearGradient>
		
			<path id="region-2-6_00000133519571034718592660000016315769136396886960_" style="fill:url(#region-2-6_00000167385522466083725170000004154605550819897487_);stroke:#000000;stroke-width:2;stroke-miterlimit:10;" d="
			M1555.7,105.5c-1.4,9.2,2.4,18.3,9.8,23.3c2.3,1.6,11.2,5.5,19.7,8.7c21.3,7.9,34.1,13.5,50.2,21.7c25.5,12.8,30.7,17,59.7,47.1
			c14.7,15.3,17.8,17.7,23.4,17.7c3.4,0,4.5-0.7,10.4-6.8c13.9-14.3,18.1-22.4,15.3-29.3c-2-4.6-10.5-6.6-41.5-9.3
			c-26.7-2.4-33.1-4.7-45-15.4c-10.5-9.6-20.4-14.5-47.2-23.2c-12.2-3.9-23.2-7.9-24.5-8.9s-3.3-2.1-4.6-2.5
			c-3.9-1.3-15.3-12.7-20.3-20.4l-4.8-7.3L1555.7,105.5z"/>
		
			<linearGradient id="region-2-7_00000084495456444096362580000018092136919043971231_" gradientUnits="userSpaceOnUse" x1="3032.4976" y1="-47.7433" x2="3033.2942" y2="-48.8412" gradientTransform="matrix(100.303 0 0 -122.3055 -302673.6562 -5727.7998)">
			<stop  offset="0" style="stop-color:#9B9B9B;stop-opacity:0.261"/>
			<stop  offset="1" style="stop-color:#B8B8B8;stop-opacity:0.511"/>
		</linearGradient>
		
			<path id="region-2-7_00000044870027924860143200000013646970860878681535_" style="fill:url(#region-2-7_00000084495456444096362580000018092136919043971231_);stroke:#000000;stroke-width:2;stroke-miterlimit:10;" d="
			M1500.1,119.2c-7.2,9.8-10.6,21.4-9.5,32.8c2.2,22,11.8,40.4,31.1,59.3c5.5,5.4,13,11.9,16.7,14.3c12.8,8.6,26.6,13.3,34.8,11.9
			c8.6-1.5,17.3-13.6,17.5-24.3v-4.4l-13.5-6.9c-11.2-5.7-15.9-7.5-27.5-10.4c-18.7-4.6-29.6-10-38.9-19.1
			c-9.6-9.5-13.6-19.3-13.6-33.5c0-6.1,2.8-16.1,5.7-20.5C1505.7,114,1503.4,114.7,1500.1,119.2z"/>
		
			<linearGradient id="region-2-8_00000163775670363380618960000008857580411233126306_" gradientUnits="userSpaceOnUse" x1="3043.8071" y1="-59.5071" x2="3044.8201" y2="-59.0613" gradientTransform="matrix(288.5362 0 0 -64.6376 -876834.3125 -3608.0254)">
			<stop  offset="0" style="stop-color:#160000;stop-opacity:0.549"/>
			<stop  offset="1" style="stop-color:#417670;stop-opacity:8.500000e-02"/>
		</linearGradient>
		
			<path id="region-2-8_00000164500466835237083310000008474989271801478591_" style="fill:url(#region-2-8_00000163775670363380618960000008857580411233126306_);stroke:#000000;stroke-width:2;stroke-miterlimit:10;" d="
			M1458,197.1c-13,17.2,2.4,35.2,40.9,47.8c54.4,17.9,143.1,17.9,197.3,0.1c30.6-10,48.4-24.9,45.5-38.1l-0.7-3l-6.1,6.8
			c-9.6,10.6-12.7,13.3-15.1,13.3c-1.3,0-3.8,0.8-5.7,1.7c-2.7,1.4-5.9,1.8-15.9,1.8c-11.9-0.1-32.6-2.7-36.1-4.6
			c-1-0.5-2.7-0.2-4.8,0.9c-3.7,2-18.3,13.1-28.2,21.5c-3.8,3.2-6.9,5.5-6.9,5c0-0.4-0.5-0.2-1.2,0.5c-1.9,1.9-8.9,1.4-25.3-1.7
			c-67.3-12.8-99.5-22.9-119-37.3c-7.7-5.7-12.1-10.1-14.4-14.5l-1.8-3.6L1458,197.1z"/>
		
			<linearGradient id="region-2-9_00000160167191533813894730000008522019468317446023_" gradientUnits="userSpaceOnUse" x1="3040.6699" y1="-48.6081" x2="3041.3284" y2="-50.0177" gradientTransform="matrix(185.0125 0 0 -113.9878 -560902.5 -5345.7847)">
			<stop  offset="0" style="stop-color:#F2DAC2;stop-opacity:0.211"/>
			<stop  offset="1" style="stop-color:#FFF5DF;stop-opacity:0.18"/>
		</linearGradient>
		
			<path id="region-2-9_00000145056510920841019490000008355928433710789527_" style="fill:url(#region-2-9_00000160167191533813894730000008522019468317446023_);stroke:#000000;stroke-width:2;stroke-miterlimit:10;" d="
			M1750.2,206.7c-0.1,5.7-3.5,20.3-6.8,28.5c-6,15-14.8,27.3-29.5,41.4c-22,21.2-45.9,33.7-72.6,38c-5.3,0.8-9.8,1.8-10.1,2.1
			c-0.8,0.9,39.7-0.5,47-1.6c3.6-0.5,9.4-1.2,13-1.6c8.2-0.7,28.3-4.7,42.5-8.5c24.5-6.5,48.6-16.3,61.2-24.8
			c11.9-8,21.4-21.4,21.3-29.9c-0.2-12.3-12.2-25.8-31.5-35.5c-7.6-3.8-29.9-11.8-33-11.8C1750.6,203,1750.2,204.1,1750.2,206.7z"/>
		
			<linearGradient id="region-2-10_00000170241382662565638560000014476362092908028090_" gradientUnits="userSpaceOnUse" x1="3046.3645" y1="-47.1922" x2="3047.3679" y2="-48.1438" gradientTransform="matrix(470.9314 0 0 -127.7982 -1433232.25 -5817.6533)">
			<stop  offset="0" style="stop-color:#260900;stop-opacity:0.683"/>
			<stop  offset="1" style="stop-color:#CCAD98;stop-opacity:0.633"/>
		</linearGradient>
		
			<path id="region-2-10_00000131345116689297220920000012511743910099239308_" style="fill:url(#region-2-10_00000170241382662565638560000014476362092908028090_);" d="
			M1815.1,227.7c11.7,11.7,15.1,20.9,12.2,32.7c-12.3,50-157.4,84-295.1,69c-66.5-7.2-121.5-25.4-144.8-47.8
			c-6.2-5.9-10.7-12-12.8-17.4l-1.4-3.7l0.5,6c3.4,38.3,76.3,70,183,79.5c20,1.8,64.3,2.4,86.6,1.1c83-4.6,155-24.7,184.6-51.5
			c2.8-2.5,7.5-8.3,10.4-12.8c4.8-7.5,5.3-8.8,5.7-15.4c0.2-4,0.2-8.8-0.2-10.8c-1.5-7.9-14.1-22.4-27.2-31.2
			c-4.5-3-8.4-5.4-8.7-5.4C1807.5,220,1810.8,223.5,1815.1,227.7z"/>
		
			<linearGradient id="region-2-11_00000127728360939434195380000006163472275166224518_" gradientUnits="userSpaceOnUse" x1="3020.3367" y1="-52.3428" x2="3021.6753" y2="-53.0668" gradientTransform="matrix(59.5223 0 0 -89.8 -177992.125 -4399.415)">
			<stop  offset="0" style="stop-color:#8C5937;stop-opacity:0.813"/>
			<stop  offset="1" style="stop-color:#774525;stop-opacity:0.779"/>
		</linearGradient>
		
			<path id="region-2-11_00000111889103717835642500000000556426776437168803_" style="fill:url(#region-2-11_00000127728360939434195380000006163472275166224518_);" d="
			M1842.4,297.1c-3.9,4.5-19.5,16.5-30.9,23.5c-4.3,2.6-8,5.1-8.3,5.5c-0.3,0.3-2.4,1.6-4.8,2.8s-5.7,3-7.4,4.1l-3,1.8l4.4,2
			c8.2,3.6,15.4,16.2,20.4,35.6l2.8,10.5l2.2-5.6c1.3-3,3.1-6.5,4.2-7.7c1-1.1,3.9-5,6.4-8.6c2.6-3.6,7-9.5,10-13.2
			c8.3-10.4,9.3-14.2,9.1-33.3c-0.1-8.8-0.6-17.2-1-18.7l-0.8-2.7L1842.4,297.1z"/>
		
			<linearGradient id="region-2-12_00000165924476634127161890000005299536092942489518_" gradientUnits="userSpaceOnUse" x1="3045.9878" y1="-42.2854" x2="3047.0432" y2="-42.956" gradientTransform="matrix(444.1386 0 0 -225.0593 -1351540.5 -9174.9336)">
			<stop  offset="0" style="stop-color:#180C06;stop-opacity:0.635"/>
			<stop  offset="1" style="stop-color:#120B02;stop-opacity:0.825"/>
		</linearGradient>
		
			<path id="region-2-12_00000123435819326051865630000002217319220647549372_" style="fill:url(#region-2-12_00000165924476634127161890000005299536092942489518_);" d="
			M1360.8,308.5c-4,5.2-10,5.9-14.2,1.8c-1.6-1.7-1.7-1.5-1.1,2.7c1.2,9,9,11.8,15.3,5.5c1.9-1.9,3.9-3.5,4.5-3.5
			c1.8,0,9.5,8.5,14.7,16.5c6.7,10.1,16.2,28.8,24.2,47.5c10.1,23.5,21.6,46.6,27.7,55.9c7.1,10.6,18.2,22,24.4,25
			c4.8,2.2,13.5,4.4,31.6,8c22.1,4.3,27.9,9.3,40.2,34.5c6.8,13.9,8.7,17,13.2,21c6.4,5.7,13.5,8.1,22.1,7.3
			c11.5-1,16.9-7.5,25.1-29.8c6.2-16.5,6.8-17.9,11-23.2c4.7-6,9.6-8,18.6-7.5c13.5,0.8,20.5,5.6,33.6,22.8
			c8.6,11.3,11.8,14.4,16.7,16.4c10,4.2,18-0.4,22.8-13.1c1.2-3.2,4.2-15.3,6.5-26.8c7.8-38.5,13.1-48.9,31.3-62.3
			c11.9-8.8,21.4-12.4,32.6-12.4c11.5,0,20.8,5.2,26,14.7l1.7,3l-0.7-4.5c-1.2-8.3-5.9-14.7-14.9-20.1c-3.5-2.1-5.2-2.4-13.5-2.4
			c-9.1,0.1-9.8,0.3-18.1,4.3c-11.7,5.9-23.5,15.4-29.3,23.9c-6.4,9.5-9.8,19.7-15.1,45.3c-2.5,12.2-5.4,24.3-6.4,27
			c-2.3,6-6.6,11.7-10.2,13.6c-3.6,1.8-12.2,1.8-15.7,0c-3.6-1.9-9.6-8.4-16.6-17.8c-11-14.8-20.3-20.8-32.7-20.8
			c-7.4,0-11.5,1.7-15.7,6.4c-4.2,4.9-6.2,8.8-11.2,23.1c-5.2,14.7-10.4,24.9-14.1,27.6c-7.8,5.5-18.1,6.6-26.9,2.8
			c-8.2-3.5-13.1-9.9-21.9-28.3c-12.8-26.7-17.9-30.5-47.9-35.6c-19.9-3.3-27.3-6.9-37.1-17.6c-11.7-12.7-19.4-26.5-35.6-63.4
			c-16.2-36.8-23.9-51.2-34.8-64.3C1365.1,304.7,1363.9,304.3,1360.8,308.5z"/>
		
			<linearGradient id="region-2-13_00000136413226368437963800000009729584726900559038_" gradientUnits="userSpaceOnUse" x1="3046.7026" y1="-41.8789" x2="3047.5647" y2="-43.2716" gradientTransform="matrix(498.9825 0 0 -229.7641 -1518811.875 -9332.251)">
			<stop  offset="0" style="stop-color:#D69C7C;stop-opacity:0.365"/>
			<stop  offset="1" style="stop-color:#FDE5A7;stop-opacity:0.333"/>
		</linearGradient>
		
			<path id="region-2-13_00000026880922200248318380000007528917902689495451_" style="fill:url(#region-2-13_00000136413226368437963800000009729584726900559038_);stroke:#000000;stroke-width:2;stroke-miterlimit:10;" d="
			M1360.8,318.5c-2.5,2.5-4.4,3.5-6.6,3.5h-3l0.1,39.2c0,43.2,1.4,103.7,2.5,108.1c2.7,11.4,38.5,34,74.5,47
			c47.8,17.3,90.8,25.3,149.4,27.8c22.1,1,29.3,0.9,48.5-0.5c57.8-4.2,112.3-16.3,157.3-34.8c25.6-10.5,51.1-25.5,58.4-34.4l3.8-4.7
			l0.2-54.4c0.3-52.2,0.4-54.5,2.3-58.3c2-4,2.7-10,1.1-10c-0.5,0-1.7,1.2-2.7,2.7c-0.9,1.6-4.7,5.8-8.4,9.4
			c-7.8,7.8-14.1,19-17.1,30.6c-1.8,7.2-1.9,10.5-1.7,40.3l0.3,32.5l-2.7,5.7c-3,6.4-6.4,8.8-12.7,8.8c-7.4,0-15.1-10-15.7-20.5
			c-0.1-2.8-0.8-7.7-1.4-11c-1.3-6.2-0.7-22.6,0.9-28.2c1.2-4.1-1-9.7-5.5-14.4c-14.7-15.1-44.1-8.6-65.1,14.5
			c-9.4,10.3-13.4,20.8-19.8,52.1c-2.3,11.5-5.3,23.6-6.5,26.8c-4.8,12.7-12.8,17.3-22.8,13.1c-4.9-2-8.1-5.1-16.7-16.4
			c-13.1-17.2-20.1-22-33.6-22.8c-9-0.5-13.9,1.5-18.6,7.5c-4.2,5.3-4.8,6.7-11,23.2c-8.2,22.3-13.6,28.8-25.1,29.8
			c-8.6,0.8-15.7-1.6-22.1-7.3c-4.5-4-6.4-7.1-13.2-21c-12.3-25.2-18.1-30.2-40.2-34.5c-18.1-3.6-26.8-5.8-31.6-8
			c-6.2-3-17.3-14.4-24.4-25c-6.1-9.3-17.6-32.4-27.7-55.9c-8-18.7-17.5-37.4-24.2-47.5c-5.2-8-12.9-16.5-14.7-16.5
			C1364.7,315,1362.7,316.6,1360.8,318.5z"/>
		
			<linearGradient id="region-2-14_00000119817476959109433030000001195869914136592796_" gradientUnits="userSpaceOnUse" x1="3029.6013" y1="-66.5408" x2="3029.7864" y2="-67.8808" gradientTransform="matrix(84.6342 0 0 -48.5198 -254649.5938 -2863.2021)">
			<stop  offset="0" style="stop-color:#8F7058;stop-opacity:0.406"/>
			<stop  offset="1" style="stop-color:#947257;stop-opacity:0.414"/>
		</linearGradient>
		
			<path id="region-2-14_00000156562044043701968670000014638037583146672005_" style="fill:url(#region-2-14_00000119817476959109433030000001195869914136592796_);stroke:#000000;stroke-width:2;stroke-miterlimit:10;" d="
			M1752.2,370.6c-8.4,2.5-29.6,12.2-28.6,13.1c0.2,0.3,4-0.2,8.3-1.1c29-5.9,51-2.8,62.2,8.8c1.8,1.9,5.8,8.3,8.7,14.3l5.4,10.8
			l-0.5-5.5c-2.3-21-11.1-36.1-23.9-40.9C1775.7,367.1,1763.5,367.3,1752.2,370.6z"/>
		
			<linearGradient id="region-2-15_00000067220544181944496010000016928784048359285120_" gradientUnits="userSpaceOnUse" x1="3006.499" y1="-53.3815" x2="3007.6938" y2="-54.3235" gradientTransform="matrix(40.5876 0 0 -84.4 -120361 -4091.3599)">
			<stop  offset="0" style="stop-color:#B4A79C;stop-opacity:0.305"/>
			<stop  offset="1" style="stop-color:#B4AFA4;stop-opacity:0.285"/>
		</linearGradient>
		
			<path id="region-2-15_00000080907216433616022720000009951952286121280928_" style="fill:url(#region-2-15_00000067220544181944496010000016928784048359285120_);stroke:#000000;stroke-width:2;stroke-miterlimit:10;" d="
			M1702.1,413.4c-13.6,10-20.9,27.9-20.9,51.5c0,4.7-0.5,10.3-1,12.3c-1.4,5.1-5.3,9.4-9.6,10.8l-3.6,1.2l2.6,2.6
			c1.7,1.8,3.6,2.6,6,2.6c7.8,0,11.4-7.9,12.7-27.5c1.3-19.8,7.3-38.5,16.8-52.3c1.8-2.5,2.8-4.6,2.4-4.6S1704.6,411.6,1702.1,413.4
			z"/>
		
			<linearGradient id="region-2-16_00000178919116953616477190000004467728636969962125_" gradientUnits="userSpaceOnUse" x1="2850.3831" y1="-78.4993" x2="2851.877" y2="-79.4263" gradientTransform="matrix(8.8532 0 0 -35.271 -23428.418 -2334.6704)">
			<stop  offset="0" style="stop-color:#C4B3A2;stop-opacity:0.413"/>
			<stop  offset="1" style="stop-color:#C7B5A5;stop-opacity:0.406"/>
		</linearGradient>
		
			<path id="region-2-16_00000122690177259117011640000010469811282208398472_" style="fill:url(#region-2-16_00000178919116953616477190000004467728636969962125_);stroke:#000000;stroke-width:2;stroke-miterlimit:10;" d="
			M1814.3,432.5c-0.2,6.7-3.5,22.4-5.6,26.4c-2,4-1.4,4.9,1.9,2.7c4.5-2.9,5.9-7.1,5.8-17.1c-0.1-5-0.6-10.8-1.1-13l-0.9-4
			L1814.3,432.5z"/>
		
			<linearGradient id="region-2-17_00000013163787665948032410000010843506238371025056_" gradientUnits="userSpaceOnUse" x1="2996.064" y1="-87.5963" x2="2996.064" y2="-88.5963" gradientTransform="matrix(32.4172 0 0 -29 -95319.7891 -2092.1992)">
			<stop  offset="0" style="stop-color:#050905;stop-opacity:0.581"/>
			<stop  offset="1" style="stop-color:#000705;stop-opacity:0.61"/>
		</linearGradient>
		
			<path id="region-2-17_00000148660647180098391820000003213139270127216532_" style="fill:url(#region-2-17_00000013163787665948032410000010843506238371025056_);" d="
			M1819.2,450.3c0,3.2-4.3,11.7-7.4,14.6c-1.7,1.6-4.1,2.5-7.4,2.9c-4.4,0.4-5.2,0.1-8.4-2.7c-2-1.7-4.6-5-5.8-7.4l-2.2-4.2l0.6,4.3
			c1.5,10.4,8.7,19.2,15.7,19.2c6.3,0,9.7-2.4,12.7-8.8c2.4-5.3,4.5-20.2,2.8-20.2C1819.5,448,1819.2,449,1819.2,450.3z"/>
		
			<linearGradient id="region-2-18_00000052816008057731210420000010321693855472281262_" gradientUnits="userSpaceOnUse" x1="3021.4507" y1="-59.888" x2="3022.4277" y2="-60.9094" gradientTransform="matrix(61.6488 0 0 -61.709 -184720.4531 -3243.0955)">
			<stop  offset="0" style="stop-color:#B6BABB;stop-opacity:0.158"/>
			<stop  offset="1" style="stop-color:#BFC6C8;stop-opacity:0.138"/>
		</linearGradient>
		
			<path id="region-2-18_00000000202510569006920610000003940280030104503989_" style="fill:url(#region-2-18_00000052816008057731210420000010321693855472281262_);stroke:#000000;stroke-width:2;stroke-miterlimit:10;" d="
			M1598.5,456.9c-7,3.2-12.3,9.8-20.9,26.3c-11.4,21.8-18.2,28.1-28.5,26.2l-3.4-0.7l2.4,2.6c1.3,1.4,3.9,3.3,5.8,4.2
			c10.5,5,19.7-5.3,31.3-34.8c4.9-12.5,10.1-19.1,18.2-23.1c4.7-2.4,4.9-2.6,2.2-2.6C1604,455,1600.8,455.9,1598.5,456.9z"/>
	</g>
	<g id="layer-1_00000144336337479531777870000012562271211274658714_">
		
			<linearGradient id="region-1-1_00000157287585481104732160000001861319017556544409_" gradientUnits="userSpaceOnUse" x1="3029.5461" y1="-50.8262" x2="3029.5461" y2="-51.8262" gradientTransform="matrix(114.8704 0 0 -97.5685 -347055.375 -4948.2036)">
			<stop  offset="0" style="stop-color:#CB3324"/>
			<stop  offset="1" style="stop-color:#A30B00"/>
		</linearGradient>
		
			<path id="region-1-1_00000155826046150193131020000005383094706962881417_" style="fill:url(#region-1-1_00000157287585481104732160000001861319017556544409_);" d="
			M943.3,11.8c-6.4,1.8-17.4,8-23.9,13.5c-7.3,6.3-16.8,18.3-20.4,26c-2.8,6.1-5,17.9-4.7,25.6c0,1.6-0.5,3.3-1.2,3.8
			c-1,0.6-1,0.8,0,0.8c0.6,0,1.2,0.7,1.2,1.5s0.4,1.4,0.9,1.2c0.5-0.1,2.6,1.4,4.8,3.4c3.8,3.5,4,3.6,5.2,1.7
			c1.1-1.8,1.6-1.6,9.1,3.6c4.4,3.1,8.2,5.6,8.5,5.6s3.9,2.2,7.9,4.9l7.3,5l1.3-2.4c3.3-6.2,16.7-11.5,28.9-11.5
			c6.7,0,9.6,0.6,19.5,4.1c6.3,2.3,12.2,3.9,13,3.6c0.7-0.3,2.6-3.8,4.1-7.7c2.5-6.5,2.7-8.1,2.2-15.9c-0.7-11.8-3.2-17.8-14.5-34.5
			c-14.5-21.3-17-24.5-22-27.7C962.6,11.4,951.4,9.5,943.3,11.8z"/>
		
			<linearGradient id="region-1-2_00000165227398594941864440000011032822243649348795_" gradientUnits="userSpaceOnUse" x1="3040.7012" y1="-44.473" x2="3041.7251" y2="-45.4121" gradientTransform="matrix(260.5617 0 0 -167.8556 -791507.625 -7371.6548)">
			<stop  offset="0" style="stop-color:#DADADA;stop-opacity:0.993"/>
			<stop  offset="1" style="stop-color:#D1D1D1;stop-opacity:0.998"/>
		</linearGradient>
		
			<path id="region-1-2_00000173853521757048716090000008762172688748020125_" style="fill:url(#region-1-2_00000165227398594941864440000011032822243649348795_);" d="
			M879.6,80.9c-23.2,10.2-44.2,24.5-55,37.5c-16.2,19.7-21.1,48.7-11.4,67.9c10.3,20.5,42.3,35.2,104.6,48.3
			c40.8,8.5,52.8,10.2,55.3,7.7c0.7-0.7,1.2-0.9,1.2-0.5c0,0.5,3.1-1.8,6.9-5c9.9-8.4,24.5-19.5,28.2-21.5c2.1-1.1,3.8-1.4,4.8-0.9
			c6.7,3.6,45.1,6,51.6,3.2l3-1.3l-3.7-1.9c-2.1-1.1-9.9-8.3-17.5-16.2c-29.7-30.8-34.6-34.6-60.1-47.5
			c-16.1-8.2-28.9-13.8-50.2-21.7c-8.5-3.2-17.4-7.1-19.7-8.7c-7.4-5-11.2-14.1-9.8-23.3l0.6-4.6l4.8,7.3
			c4.7,7.2,14.4,17.3,18.9,19.7c1.8,0.9,2.3,0.9,2.6-0.1c1.5-5.2,2.6-9.7,2.6-10.5c0-0.9-13.2-10.3-14.5-10.3
			c-0.3,0-4.1-2.5-8.5-5.6c-7.5-5.2-8-5.4-9.1-3.6c-1.2,1.9-1.4,1.8-5.2-1.7c-2.2-2-4.3-3.5-4.8-3.4c-0.5,0.2-0.9-0.3-0.9-1.1
			c0-0.8-0.6-1.7-1.2-1.9c-1-0.4-1-0.6,0-0.6c0.6-0.1,1.2-1.2,1.2-2.6s-0.6-2.5-1.2-2.5C892.4,75.6,886.3,78,879.6,80.9z"/>
		
			<linearGradient id="region-1-3_00000029023561050251312580000004093194925928274866_" gradientUnits="userSpaceOnUse" x1="3003.4031" y1="-81.9154" x2="3003.7605" y2="-83.3272" gradientTransform="matrix(51.399 0 0 -32.3 -153354.4219 -2564.0212)">
			<stop  offset="0" style="stop-color:#BEBBBB;stop-opacity:0.999"/>
			<stop  offset="1" style="stop-color:#BDBFBF;stop-opacity:0.999"/>
		</linearGradient>
		
			<path id="region-1-3_00000103265919705048407060000013351066276675585972_" style="fill:url(#region-1-3_00000029023561050251312580000004093194925928274866_);" d="
			M1007.3,86.3c0,2.1-4.5,13.9-6,15.6c-0.7,1,2.2,2.3,12.3,5.4c16.4,5.1,27.4,8,34,8.8l5,0.7l-0.6-6.2c-0.8-8.9-4.7-16.4-10.2-19.7
			c-5-2.9-20.9-6.4-29.1-6.4C1008.2,84.5,1007.3,84.8,1007.3,86.3z"/>
		
			<linearGradient id="region-1-4_00000106864321161440433850000000483141422260906422_" gradientUnits="userSpaceOnUse" x1="3038.1633" y1="-47.6267" x2="3038.1633" y2="-48.6267" gradientTransform="matrix(194.6817 0 0 -123.1 -590469.9375 -5770.4448)">
			<stop  offset="0" style="stop-color:#DDC3C0;stop-opacity:0.997"/>
			<stop  offset="1" style="stop-color:#B6D6D9;stop-opacity:0.997"/>
		</linearGradient>
		
			<path id="region-1-4_00000021120071534367257700000010940396407518634645_" style="fill:url(#region-1-4_00000106864321161440433850000000483141422260906422_);" d="
			M907.8,97c-1.4,9.2,2.4,18.3,9.8,23.3c2.3,1.6,11.2,5.5,19.7,8.7c21.3,7.9,34.1,13.5,50.2,21.7c25.5,12.8,30.7,17,59.7,47.1
			c14.7,15.3,17.8,17.7,23.4,17.7c3.4,0,4.5-0.7,10.4-6.8c13.5-14,18.5-23.3,15.4-29c-0.9-1.6-0.5-3.2,2.1-8.1
			c2.4-4.7,3.2-7.7,3.6-13.5c0.6-9.6-1.5-14.3-10.4-22.6c-10.4-9.7-24.6-16.1-42.4-19.1c-13.6-2.3-32.1-7.5-56.1-15.9
			c-15.5-5.3-18.2-6-25.2-6c-8.7,0-17.4,2.4-23.7,6.6c-3.9,2.6-7.3,8.1-8.5,13.9c-1.2,5.7-1.3,5.7-3.7,4.4
			c-4.5-2.4-14.2-12.5-18.9-19.7l-4.8-7.3L907.8,97z"/>
		
			<linearGradient id="region-1-5_00000029028826522571169840000015928820287302579592_" gradientUnits="userSpaceOnUse" x1="3045.2737" y1="-40.5621" x2="3046.3315" y2="-39.7072" gradientTransform="matrix(510.6877 0 0 -354.7498 -1554520.5 -13895.666)">
			<stop  offset="0" style="stop-color:#1C0F00"/>
			<stop  offset="1" style="stop-color:#6D2801"/>
		</linearGradient>
		
			<path id="region-1-5_00000058563418257715452570000016955651270901624737_" style="fill:url(#region-1-5_00000029028826522571169840000015928820287302579592_);" d="
			M804.8,168.2c-16.4,4-47,17.4-61.4,27c-16.5,11-31,27.3-36.7,41.2c-4.2,10.2-11.1,50-10,58c0.3,2.5,0.7,6.8,0.9,9.5
			c0.2,3.9,0.9,5.4,3.1,7.2c4,3.5,7.9,3.1,12.2-1.1c1.9-1.9,3.9-3.5,4.5-3.5c1.8,0,9.5,8.5,14.7,16.5c6.7,10.1,16.2,28.8,24.2,47.5
			c10.1,23.5,21.6,46.6,27.7,55.9c7.1,10.6,18.2,22,24.4,25c4.8,2.2,13.5,4.4,31.6,8c22.1,4.3,27.9,9.3,40.2,34.5
			c6.8,13.9,8.7,17,13.2,21c6.4,5.7,13.5,8.1,22.1,7.3c11.5-1,16.9-7.5,25.1-29.8c6.2-16.5,6.8-17.9,11-23.2c4.7-6,9.6-8,18.6-7.5
			c13.5,0.8,20.5,5.6,33.6,22.8c8.6,11.3,11.8,14.4,16.7,16.4c10,4.2,18-0.4,22.8-13.1c1.2-3.2,4.2-15.3,6.5-26.8
			c6.4-31.3,10.4-41.8,19.8-52.1c5.3-5.8,16-14,22.2-17.1c12-6,25.1-7.3,34.2-3.3c9.4,4,16.1,13.6,14.2,20.3
			c-1.6,5.6-2.2,22-0.9,28.2c0.6,3.3,1.3,8.2,1.4,11c0.6,10.5,8.3,20.5,15.7,20.5c6.3,0,9.7-2.4,12.7-8.8l2.7-5.7l-0.3-32.5
			c-0.2-29.8-0.1-33.1,1.7-40.3c3-11.6,9.3-22.8,17.1-30.6c3.7-3.6,7.5-7.8,8.4-9.4c2.4-3.5,3.6-3.4,3.6,0.4c0,5.1,1.8,2.2,3.6-5.9
			c1.5-6.8,1.6-11.8,1.1-43.7c-0.7-39.3-1.3-43.7-6.7-54.7c-11.8-23.7-36.2-42.9-74.5-58.6c-11.9-4.8-25.5-9.6-25.9-9
			c-3.6,5.2-4.6,7.9-3.6,9.9c2.1,3.8,0.3,10.3-4.5,16.6c-7.3,9.8-17.1,19.3-19.8,19.3c-1.3,0-3.9,0.8-5.8,1.7
			c-2.7,1.4-5.9,1.8-15.9,1.8c-11.9-0.1-32.6-2.7-36.1-4.6c-1-0.5-2.7-0.2-4.8,0.9c-3.7,2-18.3,13.1-28.2,21.5
			c-3.8,3.2-6.9,5.5-6.9,5c0-0.4-0.5-0.2-1.2,0.5c-1.9,1.9-8.9,1.4-25.3-1.7c-76.9-14.6-109.3-26-128.4-45.1
			c-4.5-4.5-9.8-15.8-10.7-22.6c-0.3-3-0.9-5.3-1.3-5.3C807.1,167.7,805.9,167.9,804.8,168.2z"/>
		
			<linearGradient id="region-1-6_00000016790886052360963040000007712711354322903724_" gradientUnits="userSpaceOnUse" x1="3045.1277" y1="-41.1907" x2="3046.1914" y2="-40.9233" gradientTransform="matrix(498.9825 0 0 -290.0667 -1518811.875 -11467.001)">
			<stop  offset="0" style="stop-color:#B44101"/>
			<stop  offset="1" style="stop-color:#F8C948"/>
		</linearGradient>
		
			<path id="region-1-6_00000098180639175351823630000006111144368175084219_" style="fill:url(#region-1-6_00000016790886052360963040000007712711354322903724_);" d="
			M712.9,310c-2.5,2.5-4.4,3.5-6.6,3.5h-3l0.1,39.2c0,21.6,0.4,54.4,0.9,72.8s0.9,42.1,0.9,52.6c0,21.5,0.7,25.8,5.9,36.4
			c2.9,5.9,5.8,9.6,13.7,17.6c10.9,11,19.9,17.5,35.7,25.8c25.7,13.5,64.9,25.6,101.8,31.5c94,15.1,194.8,6,265-24.1
			c35.7-15.2,59.2-35,68.1-57.3l2.4-6l0.3-74.8c0.2-72.5,0.3-74.9,2.2-78.7c2-4,2.7-10,1.1-10c-0.5,0-1.7,1.2-2.7,2.7
			c-0.9,1.6-4.7,5.8-8.4,9.4c-7.8,7.8-14.1,19-17.1,30.6c-1.8,7.2-1.9,10.5-1.7,40.3l0.3,32.5l-2.7,5.7c-3,6.4-6.4,8.8-12.7,8.8
			c-7.4,0-15.1-10-15.7-20.5c-0.1-2.8-0.8-7.7-1.4-11c-1.3-6.2-0.7-22.6,0.9-28.2c1.2-4.1-1-9.7-5.5-14.4
			c-14.7-15.1-44.1-8.6-65.1,14.5c-9.4,10.3-13.4,20.8-19.8,52.1c-2.3,11.5-5.3,23.6-6.5,26.8c-4.8,12.7-12.8,17.3-22.8,13.1
			c-4.9-2-8.1-5.1-16.7-16.4c-13.1-17.2-20.1-22-33.6-22.8c-9-0.5-13.9,1.5-18.6,7.5c-4.2,5.3-4.8,6.7-11,23.2
			c-8.2,22.3-13.6,28.8-25.1,29.8c-8.6,0.8-15.7-1.6-22.1-7.3c-4.5-4-6.4-7.1-13.2-21c-12.3-25.2-18.1-30.2-40.2-34.5
			c-18.1-3.6-26.8-5.8-31.6-8c-6.2-3-17.3-14.4-24.4-25c-6.1-9.3-17.6-32.4-27.7-55.9c-8-18.7-17.5-37.4-24.2-47.5
			c-5.2-8-12.9-16.5-14.7-16.5C716.8,306.5,714.8,308.1,712.9,310z"/>
	</g>
</g>
</svg>
