<?xml version="1.0" encoding="utf-8"?>
<!-- Generator: Adobe Illustrator 26.5.0, SVG Export Plug-In . SVG Version: 6.00 Build 0)  -->
<svg version="1.1" id="_图层_1" xmlns="http://www.w3.org/2000/svg" xmlns:xlink="http://www.w3.org/1999/xlink" x="0px" y="0px"
	 viewBox="0 0 1130 620" style="enable-background:new 0 0 1130 620;" xml:space="preserve">
<style type="text/css">
	.st0{fill:none;}
	.st1{fill:#D3D3D3;}
	.st2{clip-path:url(#SVGID_00000088131177276943496480000003793444027042197927_);}
	.st3{fill:url(#SVGID_00000065071264138522972360000008130929313096406960_);}
	.st4{fill:url(#SVGID_00000059297266122116249920000018385921213532826783_);}
	.st5{fill:url(#SVGID_00000053531771165663762880000015987093105953938859_);}
	.st6{fill:none;stroke:#3FA9F5;stroke-width:4;stroke-linecap:round;stroke-miterlimit:10;}
	.st7{fill:#3FA9F5;}
	.st8{fill:url(#SVGID_00000062888479924073690050000016255632823212388278_);}
	.st9{fill:url(#SVGID_00000067203303045604269750000015294319058399205799_);}
	.st10{fill:url(#SVGID_00000067939304932587449610000015439720461538452147_);}
	.st11{fill:url(#SVGID_00000041255621331732616520000007161480159110387595_);}
	.st12{fill:url(#SVGID_00000049213849173892345250000006533187917362143880_);}
	.st13{fill:url(#SVGID_00000018235326281384022780000014081920180540699552_);}
	.st14{fill:url(#SVGID_00000119118724675913524800000006040922552189908098_);}
	.st15{fill:url(#SVGID_00000111149714835123558100000003191047544731007122_);}
	.st16{fill:url(#SVGID_00000045578048938266490520000002483092468609962425_);}
	.st17{fill:url(#SVGID_00000163786921870568343110000013421837882612633530_);}
	.st18{fill:url(#SVGID_00000062895342068669803790000016697580583148918177_);}
	.st19{fill:url(#SVGID_00000139259391775058797200000010555322123646944690_);}
	.st20{fill:url(#SVGID_00000012459427161748625680000010339271939676450951_);}
	.st21{fill:url(#SVGID_00000167393484855111487530000017109653020931352982_);}
	.st22{fill:url(#SVGID_00000019679392876245805760000012309411806272682142_);}
	.st23{fill:url(#SVGID_00000026884753001800744350000010261071216587251588_);}
	.st24{fill:url(#SVGID_00000052070857088083225980000005790627846007883421_);}
	.st25{fill:url(#SVGID_00000047779513554683364160000017286106736614415006_);}
	.st26{fill:url(#SVGID_00000052824273315856359730000013468050889878487716_);}
	.st27{fill:url(#SVGID_00000070804733170378108690000017077878525008053933_);}
	.st28{fill:url(#SVGID_00000129166925584544374980000003022534709410376859_);}
	.st29{fill:none;stroke:#FF0000;stroke-width:4;stroke-miterlimit:10;}
	.st30{fill:url(#SVGID_00000013900562176057017280000004210084864592558218_);}
</style>
<pattern  y="620" width="40" height="40" patternUnits="userSpaceOnUse" id="SVGID_0000014575958570114363868" viewBox="0 -40 40 40" style="overflow:visible;">
	<g>
		<rect y="-40" class="st0" width="40" height="40"/>
		<g>
			<rect y="-40" class="st0" width="40" height="40"/>
			<g>
				<rect y="-40" class="st0" width="40" height="40"/>
				<g>
					<rect y="-40" class="st0" width="40" height="40"/>
					<g>
						<rect y="-40" class="st0" width="40" height="40"/>
						<g>
							<rect y="-40" class="st0" width="40" height="40"/>
							<g>
								<rect y="-40" class="st0" width="40" height="40"/>
								<g>
									<polygon class="st0" points="0,0 40,0 40,-40 0,-40 									"/>
									<polygon class="st1" points="0,-20 20,-20 20,-40 0,-40 									"/>
									<polygon class="st1" points="20,0 40,0 40,-20 20,-20 									"/>
								</g>
							</g>
						</g>
					</g>
				</g>
			</g>
		</g>
	</g>
</pattern>
<g>
	<g>
		<g>
			<g>
				<defs>
					<rect id="SVGID_1_" y="-8.1" width="1130" height="620"/>
				</defs>
				<clipPath id="SVGID_00000173135679500165052960000011927648233337413762_">
					<use xlink:href="#SVGID_1_"  style="overflow:visible;"/>
				</clipPath>
				<g style="clip-path:url(#SVGID_00000173135679500165052960000011927648233337413762_);">
					
						<pattern  id="SVGID_00000132791484441788133790000018145481140328365983_" xlink:href="#SVGID_0000014575958570114363868" patternTransform="matrix(1 0 0 1 17766.5 52223.1094)">
					</pattern>
					
						<rect y="-8.1" style="fill:url(#SVGID_00000132791484441788133790000018145481140328365983_);" width="1129.3" height="619.6"/>
				</g>
			</g>
		</g>
	</g>
</g>
<linearGradient id="SVGID_00000104669660134768248310000016961797762356280762_" gradientUnits="userSpaceOnUse" x1="-3101.0276" y1="2748.9563" x2="-3100.2178" y2="2748.9563" gradientTransform="matrix(34.35 0 0 33.1 107351.4922 -90574.6016)">
	<stop  offset="0" style="stop-color:#D69C6D"/>
	<stop  offset="1" style="stop-color:#D69C6D"/>
</linearGradient>
<path style="fill:url(#SVGID_00000104669660134768248310000016961797762356280762_);" d="M1109.2,289.6
	c-3.2,26.7-9.6,42.6-23.2,56.6c-16.4,17.1-39.6,27.2-76.2,33c-7.2,1.1-13.1,2-36.2,5c-4.9,0.6-12,1.5-15.9,2
	c-18.5,2.4-40.8,7.4-55.7,12.5c-21.2,7.2-41.9,19.1-61.8,35.6l-9,7.4l0.2,52.3l0.2,52.2l4.1,2.2c2.2,1.2,4.5,2.2,5,2.2
	c1.1,0,0.7-4.2-1.6-16.6c-2.7-14.8-2.1-34.7,1.6-49.6c4.2-17,9.4-26.9,19.6-37.7c11.5-12.1,24.3-18.5,46.6-23.3
	c3.2-0.7,11.2-1.1,23.2-1.1c18.2,0.1,22.5,0.5,42.3,4.1c39.6,7.2,70.9,9.2,95.7,6.1c16.9-2.1,32.1-8.1,38.8-15.4l3.8-4.1v-66
	c0-36.2-0.2-65.9-0.2-65.9C1110.3,281.3,1109.8,285,1109.2,289.6L1109.2,289.6z"/>
<linearGradient id="SVGID_00000088116424868016011510000000424235075336370821_" gradientUnits="userSpaceOnUse" x1="-3078.5054" y1="2761.5967" x2="-3077.6953" y2="2761.5967" gradientTransform="matrix(26.73 0 0 22.2 83115.1094 -60997.4492)">
	<stop  offset="0" style="stop-color:#FFBA81;stop-opacity:0.91"/>
	<stop  offset="1" style="stop-color:#FFBA81;stop-opacity:0.91"/>
</linearGradient>
<path style="fill:url(#SVGID_00000088116424868016011510000000424235075336370821_);" d="M1047.2,220.1c-0.7,0.7-14.9,4.6-22.3,6.2
	c-12,2.5-19,3.6-51.3,7.7c-4.9,0.7-12,1.6-15.9,2c-18.5,2.4-40.8,7.4-55.7,12.5c-21.2,7.2-41.9,19.1-61.8,35.6l-9,7.4l0.2,52.3
	l0.2,52.2l4.1,2.2c2.2,1.2,4.5,2.2,5,2.2c1.1,0,0.7-4.2-1.6-16.6c-2.7-14.8-2.1-34.7,1.6-49.6c4.2-17,9.4-26.9,19.6-37.7
	c11.5-12.1,24.3-18.5,46.6-23.3c3.2-0.7,11.2-1.1,23.2-1.1c18.2,0.1,22.5,0.5,42.3,4.1c19.6,3.6,35.2,5.6,52.5,6.9
	c17.9,1.3,17.3,1.4,18.2-2.3c2.5-10,6.9-61.2,5.2-61.2C1048,219.8,1047.4,219.9,1047.2,220.1L1047.2,220.1z"/>
<g>
	<line class="st6" x1="384.2" y1="318.2" x2="344.9" y2="318.2"/>
	<polygon class="st7" points="399,318.2 378.1,334.5 383.1,318.2 378.1,301.9 	"/>
</g>
<linearGradient id="SVGID_00000046334639202532696900000014252694403216434321_" gradientUnits="userSpaceOnUse" x1="-1783.4897" y1="866.987" x2="-1784.2898" y2="868.087" gradientTransform="matrix(301.9 0 0 63.5 538651.1875 -54514)">
	<stop  offset="0" style="stop-color:#797C7E"/>
	<stop  offset="1" style="stop-color:#CECED3"/>
</linearGradient>
<path style="fill:url(#SVGID_00000046334639202532696900000014252694403216434321_);" d="M40,542.3c0.7,1.5,1.6,3.4,2.1,4.3
	c0.6,0.9,1.5,2.7,2.2,4.1c1.6,3.2,6.1,8.9,10.3,12.9c12.4,11.8,31.8,20.1,59.4,25.2c13.5,2.5,18,2.8,54,2.8c39,0,40.9-0.2,58.1-4.1
	c27.3-6.3,48.8-18.6,58.1-33.2c4.3-6.6,2.9-7-8.1-1.6c-12.3,6-20.3,8.8-37,13c-25,6.3-55.9,9.5-83.8,8.7c-17.2-0.4-21-0.7-33.2-1.7
	c-18.2-1.7-40.1-7.5-54-14.2c-5.1-2.5-15.8-9.7-17.2-11.6c-0.7-1-10.6-7.4-11.4-7.4C39.2,539.7,39.3,540.9,40,542.3L40,542.3z"/>
<linearGradient id="SVGID_00000034790108062771687560000006904686434932931982_" gradientUnits="userSpaceOnUse" x1="-1784.9698" y1="851.8444" x2="-1784.9998" y2="852.6544" gradientTransform="matrix(389.84 0 0 647.66 696024.375 -551651.4375)">
	<stop  offset="0" style="stop-color:#D7E100"/>
	<stop  offset="1" style="stop-color:#D50000"/>
</linearGradient>
<path style="fill:url(#SVGID_00000034790108062771687560000006904686434932931982_);" d="M127.5,45.5c-20.1,2-49.9,7.1-54.4,9.3
	c-0.7,0.3-3.8,1.3-6.9,2.1c-3,0.7-5.7,1.7-6,2.1s-1,0.7-1.6,0.7c-0.7,0-3.7,1.1-6.6,2.5c-2.9,1.3-5.4,2.5-5.6,2.5
	c-0.7,0-11.6,7.1-13.4,8.8c-1.1,1.1-2.3,1.9-2.6,1.9c-0.4,0-0.7,0.5-0.7,1.1c0,0.7-0.7,1.8-1.6,2.5c-2.2,2.1-4.4,8.3-3.9,11.4
	c0.6,4.1,3.4,11.2,4.3,11.2c0.5,0,2.4,1.5,4.1,3.4c1.8,1.9,5.2,4.4,7.6,5.8c2.3,1.3,4.3,2.8,4.3,3.2c0,0.7,5.8,3.7,16.4,8.4
	c15.3,6.8,39.3,12.2,64.3,14.4c12.5,1.1,44.8,1.1,58.4,0c16.6-1.4,39.8-4.7,55.6-7.9c2.5-0.5,2.6-0.4,3.4,3c0.5,2,1.3,4.7,1.8,6.1
	c0.5,1.3,1.1,3.2,1.3,4.1s0.9,2.8,1.6,4.3c0.7,1.4,1.1,3.4,1.1,4.6s0.4,2.4,0.8,2.6c0.5,0.2,0.8,1.6,0.8,2.8s0.3,2.5,0.7,2.9
	c0.5,0.5,0.9,3.2,1.1,6.1l0.2,5.2l-11.5,3.2c-30.1,8.2-58.1,12.1-87.6,12.1c-32.5,0-60.4-4.6-89.8-14.7c-6.6-2.3-12.7-4.2-13.4-4.2
	c-1.7,0-27.8-12.9-33.9-16.7s-5.3-6.3-8.3,26.5c-0.5,5.5-1.1,49.9-1.3,105.6c-0.4,98.8,0.2,147.3,2.6,179.7c0.7,9,1.4,19.6,1.7,23.7
	c1,15.9,4.4,26.5,11.7,36.4c3.8,5.3,13.5,14.1,21,19.1c4,2.7,7.5,5.2,7.8,5.5c1.4,1.9,12,9.2,17.2,11.6c13.9,6.7,35.9,12.5,54,14.2
	c12.1,1.1,16,1.3,33.2,1.7c27.9,0.8,58.8-2.4,83.8-8.7c16.7-4.3,24.7-7,37-13c8.1-4,9.7-4.5,10.1-3.4c0.4,1,1.2,0.2,3.2-3
	c1.5-2.3,4.5-5.7,6.7-7.5c8.1-6.5,15.9-16.8,19.9-26.4c1.1-2.5,2.3-5,2.8-5.6c0.8-1,1.4-5.6,3.9-33.6c1.3-15.3,2.4-38.6,2.5-54.2
	v-14.5l-3.9,4.1c-6.8,7.3-22,13.4-39,15.5c-25,3.1-56.5,1.1-96.3-6.1c-19.9-3.6-24.2-4-42.6-4.1c-12,0-20.1,0.3-23.3,1.1
	c-22.4,4.8-35.4,11.2-46.9,23.4c-10.2,10.8-15.5,20.8-19.7,37.9c-3.8,15-4.3,35-1.6,49.9c2.4,12.5,2.8,16.7,1.6,16.7
	c-3.5,0-16.5-9.8-25.1-18.9c-3.7-3.9-4.3-5-4.8-8.9c-0.7-6.5-2-43.6-2.3-69.6C21,411.7,21.5,212,22.1,184.1l0.5-24.2l-2.6-3
	c-1.5-1.6-2.5-3.1-2.4-3.2s9.7,4.5,21.2,10.3l20.9,10.4l-7-0.2l-7-0.2l-0.5,43.4c-0.7,49.9-0.7,215-0.2,215c0.2,0,4.1-3.1,8.6-6.9
	c18.8-15.7,40.7-28.2,61.8-35.5c15-5.1,37.5-10.1,56.1-12.5c3.9-0.5,11.1-1.4,16-2c23.3-3,29.2-3.9,36.4-5
	c36.8-5.9,60.1-16,76.6-33.2c14-14.7,19.8-29.1,23.7-59.5c1.2-10,1.3-13.7,0.4-40.9c-1.5-44.4-3.6-79-5.2-86.1
	c-1.2-5.6-9.6-29.7-12.5-36.4c-4.4-9.9-5.5-13.6-4.9-16.6c0.3-1.6,0.7-5.5,0.7-8.5c0.1-4.8-0.2-5.8-2.6-9.4
	c-3.5-5.1-9.5-9.9-17.4-14c-7.1-3.7-19.1-8.3-26.9-10.4c-3-0.7-6.2-1.7-7.4-2c-4.3-1.4-19.6-4.2-36-6.5
	C194.2,44.2,148,43.6,127.5,45.5L127.5,45.5z"/>
<linearGradient id="SVGID_00000171702236425821263270000000734216162718275215_" gradientUnits="userSpaceOnUse" x1="-1771.6246" y1="898.61" x2="-1770.8054" y2="898.61" gradientTransform="matrix(95.72 0 0 24.6 169745.3906 -22029.8203)">
	<stop  offset="0" style="stop-color:#636768"/>
	<stop  offset="1" style="stop-color:#636768"/>
</linearGradient>
<path style="fill:url(#SVGID_00000171702236425821263270000000734216162718275215_);" d="M196.7,68.1c-4.8,1.3-13.3,3.6-19,5
	c-9.5,2.4-10.5,2.8-10.5,4.4c0,2.5,1.2,3.4,8.3,5.9c7.4,2.6,19.4,3.4,29.6,2c7.9-1.2,32.2-6.8,37.3-8.8c2-0.7,3.4-1.7,3.2-2.3
	c-1-3.1-18.6-7.8-31.3-8.3C206.2,65.7,204.5,65.9,196.7,68.1L196.7,68.1z"/>
<linearGradient id="SVGID_00000054227479698358290510000013941868723108262829_" gradientUnits="userSpaceOnUse" x1="-1779.5221" y1="871.7206" x2="-1779.5519" y2="872.2906" gradientTransform="matrix(177.35 0 0 56.4 315696.5 -49041.9883)">
	<stop  offset="0" style="stop-color:#C0C5C2"/>
	<stop  offset="1" style="stop-color:#FAFAFA"/>
</linearGradient>
<path style="fill:url(#SVGID_00000054227479698358290510000013941868723108262829_);" d="M28.9,84.7c-1.3,4.4-0.5,8.5,2.5,13.5
	c2.1,3.5,10.3,9.2,17.8,12.4c3.4,1.5,6.9,2.9,7.8,3.4c3.8,1.7,18.1,5.6,30.3,8.1c13.7,2.9,40.8,5,63.9,4.9c28-0.2,30.1-1.2,3.7-1.8
	c-20.6-0.5-32.5-1.5-49.9-4.3c-7.5-1.2-9.6-1.6-20.1-4c-19.3-4.5-37.2-12.7-47-21.4c-4.7-4.2-6.6-7.4-7.4-11.8L30,80.8L28.9,84.7z"
	/>
<linearGradient id="SVGID_00000147196669937460383680000013281862572262817212_" gradientUnits="userSpaceOnUse" x1="-1782.9408" y1="871.9894" x2="-1783.7407" y2="873.0994" gradientTransform="matrix(275.8 0 0 54.36 491949.1562 -47320.9414)">
	<stop  offset="0" style="stop-color:#737677"/>
	<stop  offset="1" style="stop-color:#F0F0ED"/>
</linearGradient>
<path style="fill:url(#SVGID_00000147196669937460383680000013281862572262817212_);" d="M127.9,71.9C87,76,59.5,84.3,53.6,94.5
	l-1.7,2.9l3.8,1.6c6.1,2.6,15.4,5.5,24.7,7.8c14.8,3.6,16.5,3.8,41.8,7.1c12.7,1.6,21.5,2.1,45,2.1c40.9,0,71.6-4.2,100.1-13.6
	c8.4-2.8,10.5-4.1,10.5-6.5s-4.3-7-9-9.5c-1.6-0.9-3-1.6-3.2-1.7s0.5-0.8,1.5-1.6c1.1-1,1.9-2.9,2.3-5.6c0.5-3.9,0.4-4-1.1-2.8
	c-4.2,3.6-14.4,7.1-38.8,13.3c-21.5,5.5-31.2,7.1-41.1,7.1c-19.2,0-36.7-8.2-36.7-17.2c0-1.7,0.4-3.3,0.9-3.4
	c0.4-0.2,0.6-0.9,0.3-1.7c-0.5-1.2-1.8-1.4-11.4-1.2C135.6,71.5,129.5,71.8,127.9,71.9L127.9,71.9z"/>
<linearGradient id="SVGID_00000106835719218691978180000002961843591081661619_" gradientUnits="userSpaceOnUse" x1="-1783.4818" y1="861.4293" x2="-1783.4918" y2="862.1392" gradientTransform="matrix(294.17 0 0 102.93 524780.6875 -88566.2109)">
	<stop  offset="0" style="stop-color:#FBF529"/>
	<stop  offset="1" style="stop-color:#FFD92B"/>
</linearGradient>
<path style="fill:url(#SVGID_00000106835719218691978180000002961843591081661619_);" d="M26.3,103.8c-0.4,1.3-3.2,8.2-6.1,15.4
	c-5.2,13.4-7.9,21-8.9,25.5c-0.6,2.5-0.3,2.7,4.6,5.8c6.6,4.2,31.9,16.6,33.7,16.6c0.7,0,6.8,1.9,13.4,4.2
	c54.7,18.8,114.8,19.6,177.4,2.5l11.5-3.2l-0.2-5.2c-0.2-2.9-0.6-5.6-1.1-6.1c-0.4-0.4-0.7-1.7-0.7-2.9s-0.3-2.5-0.8-2.8
	c-0.4-0.2-0.8-1.5-0.8-2.6s-0.5-3.2-1.1-4.6c-1.4-3.3-3-7.9-3.6-10c-0.2-0.9-0.7-3-1.2-4.8c-0.7-2.9-0.9-3.1-3.4-2.6
	c-15.8,3.2-39,6.5-55.6,7.9c-13.6,1.1-45.9,1.1-58.4,0c-25-2.2-49-7.6-64.3-14.4c-10.6-4.8-16.4-7.7-16.4-8.4c0-0.4-2-1.9-4.3-3.2
	c-2.4-1.4-5.8-3.9-7.6-5.8C28.8,101.1,27.5,100.8,26.3,103.8L26.3,103.8z"/>
<linearGradient id="SVGID_00000129910948831797518800000002122201814935998861_" gradientUnits="userSpaceOnUse" x1="-1754.6558" y1="852.967" x2="-1753.8457" y2="852.197" gradientTransform="matrix(51.02 0 0 469.3 89549.7734 -399919.3125)">
	<stop  offset="0" style="stop-color:#FE6949"/>
	<stop  offset="1" style="stop-color:#FEE853"/>
</linearGradient>
<path style="fill:url(#SVGID_00000129910948831797518800000002122201814935998861_);" d="M17.4,153.9c0,0.2,1.2,1.6,2.5,3.3l2.5,2.9
	L22,184.3c-0.6,27.8-1.1,227.5-0.7,261.3c0.3,25,1.6,62.6,2.3,69.6c0.5,4.4,0.6,4.6,9,12.8c4.7,4.6,9.2,8.8,10.2,9.2l1.6,0.9V400.7
	c0-75.6,0.2-157.5,0.6-182.1l0.5-44.6l7,0.3c3.8,0.2,6.9,0.2,6.6-0.1C58.5,173.6,17.4,153.5,17.4,153.9L17.4,153.9z"/>
<linearGradient id="SVGID_00000168838918075140131430000003281252735034492553_" gradientUnits="userSpaceOnUse" x1="-1784.7942" y1="853.847" x2="-1783.9843" y2="853.847" gradientTransform="matrix(343.5 0 0 331 613122.5 -282216)">
	<stop  offset="0" style="stop-color:#D69C6D"/>
	<stop  offset="1" style="stop-color:#D69C6D"/>
</linearGradient>
<path style="fill:url(#SVGID_00000168838918075140131430000003281252735034492553_);" d="M323.7,280.3c-3.2,26.9-9.7,42.8-23.3,57
	c-16.5,17.2-39.9,27.4-76.6,33.2c-7.2,1.1-13.2,2-36.4,5c-4.9,0.7-12.1,1.6-16,2c-18.6,2.5-41.1,7.5-56.1,12.5
	c-21.4,7.3-42.2,19.2-62.1,35.8l-9.1,7.5l0.2,52.6l0.2,52.6l4.1,2.2c2.2,1.2,4.5,2.2,5,2.2c1.2,0,0.7-4.3-1.6-16.7
	c-2.7-14.9-2.1-34.9,1.6-49.9c4.3-17.1,9.5-27.1,19.7-37.9c11.5-12.2,24.5-18.6,46.9-23.4c3.2-0.7,11.3-1.1,23.3-1.1
	c18.3,0.1,22.7,0.5,42.6,4.1c39.8,7.3,71.3,9.2,96.3,6.1c17-2.1,32.3-8.2,39-15.5l3.9-4.1v-66.4c0-36.4-0.2-66.3-0.2-66.3
	C324.8,271.9,324.3,275.7,323.7,280.3L323.7,280.3z"/>
<linearGradient id="SVGID_00000119814007046433411060000004680961119820531082_" gradientUnits="userSpaceOnUse" x1="-1746.1122" y1="859.137" x2="-1745.2922" y2="859.137" gradientTransform="matrix(40.87 0 0 126.21 71375.6797 -107946.0391)">
	<stop  offset="0" style="stop-color:#FFFFFB;stop-opacity:0.52"/>
	<stop  offset="1" style="stop-color:#FFFFFB;stop-opacity:0.52"/>
</linearGradient>
<path style="fill:url(#SVGID_00000119814007046433411060000004680961119820531082_);" d="M37.6,440.5c-7.9,8.4-17.5,21.3-21.5,29.1
	c-1.8,3.4-3.7,6.2-4.2,6.2c-2.1,0-0.4,19.2,2.1,24.2c0.9,1.8,1.9,4.3,2.1,5.5c0.3,1.2,0.9,2.2,1.2,2.2s0.8,1.1,1.2,2.5
	c0.2,1.4,2.4,4.9,4.7,7.8c4.1,5.2,17.1,17.8,19.8,19.2c1.3,0.7,1.4-2,1.4-51.2c0-28.6-0.2-52-0.3-52S41.1,437,37.6,440.5L37.6,440.5
	z"/>
<linearGradient id="SVGID_00000146471388316957671480000014887748852339130040_" gradientUnits="userSpaceOnUse" x1="-1783.3116" y1="855.4459" x2="-1782.5016" y2="855.4459" gradientTransform="matrix(267.27 0 0 222 476671.625 -189457)">
	<stop  offset="0" style="stop-color:#FFBA81;stop-opacity:0.91"/>
	<stop  offset="1" style="stop-color:#FFBA81;stop-opacity:0.91"/>
</linearGradient>
<path style="fill:url(#SVGID_00000146471388316957671480000014887748852339130040_);" d="M261.3,361.5c-0.7,0.7-15,4.7-22.4,6.2
	c-12,2.5-19.2,3.6-51.6,7.8c-4.9,0.7-12.1,1.6-16,2c-18.6,2.5-41.1,7.5-56.1,12.5c-21.4,7.3-42.2,19.2-62.1,35.8l-9.1,7.5l0.2,52.6
	l0.2,52.6l4.1,2.2c2.2,1.2,4.5,2.2,5,2.2c1.2,0,0.7-4.3-1.6-16.7c-2.7-14.9-2.1-34.9,1.6-49.9c4.3-17.1,9.5-27.1,19.7-37.9
	c11.5-12.2,24.5-18.6,46.9-23.4c3.2-0.7,11.3-1.1,23.3-1.1c18.3,0.1,22.7,0.5,42.6,4.1c19.7,3.6,35.4,5.6,52.8,7
	c18,1.3,17.4,1.4,18.3-2.3c2.5-10.1,7-61.6,5.2-61.6C262,361.2,261.5,361.3,261.3,361.5L261.3,361.5z"/>
<linearGradient id="SVGID_00000106830701508840414200000007486156571009916580_" gradientUnits="userSpaceOnUse" x1="-1784.7344" y1="861.5076" x2="-1783.9143" y2="861.5076" gradientTransform="matrix(340.1 0 0 107.2 607012.3125 -92265.3125)">
	<stop  offset="0" style="stop-color:#C0C9F3;stop-opacity:0.83"/>
	<stop  offset="1" style="stop-color:#C0C9F3;stop-opacity:0.83"/>
</linearGradient>
<path style="fill:url(#SVGID_00000106830701508840414200000007486156571009916580_);" d="M127.5,45.5c-20.1,2-49.9,7.1-54.4,9.3
	c-0.7,0.3-3.8,1.3-6.9,2.1c-3,0.7-5.7,1.7-6,2.1s-1,0.7-1.6,0.7c-0.7,0-3.7,1.1-6.6,2.5c-2.9,1.3-5.4,2.5-5.6,2.5
	c-0.7,0-11.6,7.1-13.4,8.8c-1.1,1.1-2.3,1.9-2.6,1.9c-0.4,0-0.7,0.5-0.7,1.1c0,0.7-0.7,1.8-1.6,2.5c-2.2,2.1-4.4,8.3-3.9,11.4
	c0.6,3.8,3.4,11.2,4.2,11.2c0.4,0,2.7,1.9,5.2,4.2c2.4,2.2,6.1,4.8,8.2,5.7c2.2,0.9,5.4,2.4,7.2,3.2c7.4,3.6,14.9,6.1,25.4,8.7
	c9.7,2.5,11.5,2.9,18.4,4.1c21.1,3.9,33.2,4.7,68,4.7c30.1,0,44.2-0.6,62.2-2.8c3.9-0.4,10.1-1.1,13.9-1.6s8.6-1.1,10.6-1.6
	c6.9-1.5,26-8.1,31.9-11.1c3.2-1.6,6.2-2.9,6.7-2.9c1.3,0,9.7-6.4,11.5-8.7c0.8-1.1,2-2,2.6-2c1.3,0,2.2-4.9,2.3-12.4
	c0.1-4.9-0.2-5.8-2.6-9.4c-3.5-5.1-9.5-9.9-17.4-14c-7.1-3.7-19.1-8.3-26.9-10.4c-3-0.7-6.2-1.7-7.4-2c-4.3-1.4-19.6-4.2-36-6.5
	C194.2,44.2,148,43.6,127.5,45.5L127.5,45.5z M197.9,50c11,0.7,28.8,2.8,36,4c7.3,1.3,17.1,3.3,20.3,4.2c1.6,0.4,4.3,1.2,6,1.6
	c3.1,0.8,6.5,2,10.7,3.8c1.4,0.7,3,1.1,3.4,1.1c1.6,0,11.2,5.8,13.8,8.3c5,4.8,5.5,11.3,1.3,16.2c-3.6,4.3-13.5,10.2-22,12.9
	c-28.6,9.5-59.3,13.7-100.2,13.7c-23.5,0-32.3-0.4-45-2.1c-25.2-3.3-26.9-3.5-41.8-7.1C48.2,99,32.6,88.2,38,77.6
	c1.1-2.1,8-8.8,9.1-8.8c0.4,0,2.1-0.9,3.8-2c1.6-1,3.9-2.1,5.1-2.5s2.9-1,4.1-1.5c3.9-1.7,5.3-2.1,11.1-3.5c3.2-0.7,6.6-1.6,7.8-2
	c1.1-0.3,5.6-1.3,9.8-2s9.4-1.6,11.5-2c4.3-0.9,19.1-2.5,31.1-3.3C144.2,49.2,185.8,49.2,197.9,50L197.9,50z M32.4,89
	c4.2,8,22.1,18.8,40.9,24.6c6.1,1.9,9.7,2.8,20.2,5.2c15,3.4,37.5,5.7,61.4,6.3c26.4,0.7,24.3,1.6-3.7,1.8
	c-23.1,0.1-50.2-2-63.9-4.9c-12.2-2.5-26.5-6.4-30.3-8.1c-0.9-0.4-4.4-1.9-7.8-3.4c-15.7-6.6-23-16-20.2-25.8l1.1-3.9l0.5,2.9
	C30.8,85.2,31.7,87.6,32.4,89L32.4,89z"/>
<linearGradient id="SVGID_00000119838933382363500080000012774406662647958195_" gradientUnits="userSpaceOnUse" x1="-1610.7703" y1="1141.8502" x2="-1609.9503" y2="1141.8502" gradientTransform="matrix(9.91 0 0 3.96 16053.3203 -4338.98)">
	<stop  offset="0" style="stop-color:#FFFFF1;stop-opacity:0.88"/>
	<stop  offset="1" style="stop-color:#FFFFF1;stop-opacity:0.88"/>
</linearGradient>
<path style="fill:url(#SVGID_00000119838933382363500080000012774406662647958195_);" d="M91.1,181.9c0,1.2,2.9,2.5,5.6,2.5
	c3.1,0,3.3-1.1,0.5-2.3C94.7,180.9,91.1,180.7,91.1,181.9L91.1,181.9z"/>
<linearGradient id="SVGID_00000044869818573938223130000007120066158696706978_" gradientUnits="userSpaceOnUse" x1="-1784.2672" y1="870.6143" x2="-1783.4471" y2="870.6143" gradientTransform="matrix(311.82 0 0 58.75 556407.75 -51075.25)">
	<stop  offset="0" style="stop-color:#969BF5;stop-opacity:0.71"/>
	<stop  offset="1" style="stop-color:#969BF5;stop-opacity:0.71"/>
</linearGradient>
<path style="fill:url(#SVGID_00000044869818573938223130000007120066158696706978_);" d="M131.2,50c-12,0.8-26.8,2.4-31.1,3.3
	c-2.1,0.4-7.2,1.3-11.5,2s-8.7,1.7-9.8,2c-1.1,0.4-4.6,1.3-7.8,2c-5.7,1.4-7.1,1.8-11.1,3.5c-1.2,0.5-2.9,1.1-4.1,1.5
	c-1.2,0.4-3.4,1.5-5.1,2.5c-1.7,1.1-3.4,2-3.8,2c-1.1,0-8,6.7-9.1,8.8c-3.1,6.1,1.3,12.8,12.8,19.4c0.7,0.3,1.8-0.7,3.1-2.8
	c5.6-8.8,25.5-15.8,58.9-20.6c15.1-2.2,38.8-3,39.7-1.6c0.6,0.9,5.6-0.5,24.5-6.8l23.8-7.9h8.4c19.3,0,49.8,7.7,58,14.6
	c2.3,2,2.5,2.4,2,5.8c-0.3,2.4-1.1,4.3-2.2,5.2c-1,0.8-1.6,1.6-1.5,1.6s1.6,0.8,3.2,1.7c4.3,2.4,9,7.1,9,9.2c0,1.1,0.2,1.9,0.4,1.9
	c1.1,0,9.5-6,11.3-8.2c4.2-4.9,3.7-11.5-1.3-16.2c-2.6-2.5-12.3-8.3-13.8-8.3c-0.4,0-2-0.5-3.4-1.2c-4.2-1.8-7.6-3-10.7-3.8
	c-1.6-0.4-4.3-1.2-6-1.6c-3.2-0.9-13-2.9-20.3-4.2c-7.2-1.2-25-3.3-36-4C185.8,49.2,144.1,49.2,131.2,50L131.2,50z"/>
<linearGradient id="SVGID_00000150789980418523043200000000842919580812693931_" gradientUnits="userSpaceOnUse" x1="-1754.4556" y1="896.6406" x2="-1754.2056" y2="895.6907" gradientTransform="matrix(51.1 0 0 25.04 89694 -22293.3691)">
	<stop  offset="0" style="stop-color:#FFFFFF;stop-opacity:0.51"/>
	<stop  offset="1" style="stop-color:#FFFFFF;stop-opacity:0.72"/>
</linearGradient>
<path style="fill:url(#SVGID_00000150789980418523043200000000842919580812693931_);" d="M17.4,153.9c0,1.4,10.3,11.9,14.1,14.4
	c5.8,3.8,15.7,6.4,22.8,6.1l5-0.2L38.4,164C26.8,158.2,17.4,153.7,17.4,153.9L17.4,153.9z"/>
<linearGradient id="SVGID_00000008141259344985286760000015882687745766355119_" gradientUnits="userSpaceOnUse" x1="-1782.5509" y1="888.0486" x2="-1781.731" y2="888.0486" gradientTransform="matrix(239.76 0 0 31.08 427426.5938 -27475.3398)">
	<stop  offset="0" style="stop-color:#0023FE;stop-opacity:0.46"/>
	<stop  offset="1" style="stop-color:#0023FE;stop-opacity:0.46"/>
</linearGradient>
<path style="fill:url(#SVGID_00000008141259344985286760000015882687745766355119_);" d="M44.2,113.6c0.7,1.5,4.2,3.3,16.5,8.8
	c10.7,4.8,30,10,46.3,12.5c27.5,4.1,64.3,4.1,96.6-0.1c12-1.5,32.7-5,36-6.1c2.9-1-6.7-0.5-17.2,0.8c-23.4,2.9-83.5,3.9-102.8,1.8
	c-15.6-1.7-28.6-3.8-37.2-5.8c-20.1-4.8-26-6.9-38.3-13C43.8,112.3,43.8,112.8,44.2,113.6L44.2,113.6z"/>
<linearGradient id="SVGID_00000031915154959676982880000012961155312857535899_" gradientUnits="userSpaceOnUse" x1="-1748.3782" y1="870.3793" x2="-1748.3582" y2="869.5793" gradientTransform="matrix(43.43 0 0 59.91 75974.3359 -51978.5898)">
	<stop  offset="0" style="stop-color:#FFFFFF;stop-opacity:0.34"/>
	<stop  offset="1" style="stop-color:#FFFFFF;stop-opacity:0.35"/>
</linearGradient>
<path style="fill:url(#SVGID_00000031915154959676982880000012961155312857535899_);" d="M33.9,131.3c-2.9,7.8-6.1,16.5-7.1,19.2
	l-1.9,5l11,5.6c6.1,3,11.1,5.3,11.3,5.2c0.2-0.3,12.4-35.4,13.3-38.4c0.3-0.9-2.5-2.5-10.1-6c-5.7-2.5-10.6-4.7-10.9-4.7
	S36.7,123.6,33.9,131.3L33.9,131.3z"/>
<linearGradient id="SVGID_00000142886574997822440390000009239883923884194205_" gradientUnits="userSpaceOnUse" x1="-1777.6521" y1="876.2373" x2="-1776.8322" y2="876.2373" gradientTransform="matrix(142.77 0 0 45.9 253947.5156 -40142.9883)">
	<stop  offset="0" style="stop-color:#BFC5F3;stop-opacity:0.83"/>
	<stop  offset="1" style="stop-color:#BFC5F3;stop-opacity:0.83"/>
</linearGradient>
<path style="fill:url(#SVGID_00000142886574997822440390000009239883923884194205_);" d="M177.1,65.2c-12.4,4.2-23.1,8.1-24,8.7
	c-1,0.7-1.5,2.1-1.5,4.2c0,6.5,10.6,13.5,23.8,15.8c14.5,2.5,25.1,1.4,54-5.9c24.6-6.2,37.2-10.6,39-13.4
	c1.6-2.6-10.1-8.3-25.4-12.3c-12.8-3.3-23.9-4.8-34.5-4.8l-9,0.1L177.1,65.2L177.1,65.2z M231.1,68.3c8.4,2.1,14,4.5,14.5,6
	c0.2,0.6-1.2,1.6-3.2,2.3c-5.2,2-29.5,7.6-37.3,8.8c-10.1,1.4-22.2,0.7-29.6-2c-7-2.5-8.3-3.4-8.3-5.9c0-1.6,1-2.1,10.5-4.4
	c5.7-1.4,14.2-3.7,19-5c7.8-2.2,9.5-2.4,17.6-2.1C220,66.3,226.2,67.1,231.1,68.3L231.1,68.3z M161.1,74.8
	c-4.8,5.6,0.1,10.9,14.2,15.6c5.5,1.8,6.2,2.2,3.4,1.8c-11.9-1.6-21.6-6.6-23.8-12.5c-1.1-2.9-0.2-4.7,3.2-6.1
	C162.7,71.6,163.6,71.8,161.1,74.8z"/>
<linearGradient id="SVGID_00000117670483719740233640000017054719096295380117_" gradientUnits="userSpaceOnUse" x1="-1734.3619" y1="898.6896" x2="-1733.5419" y2="898.6896" gradientTransform="matrix(31.67 0 0 24.45 55080.6211 -21890.7109)">
	<stop  offset="0" style="stop-color:#EBEDF0;stop-opacity:0.98"/>
	<stop  offset="1" style="stop-color:#EBEDF0;stop-opacity:0.98"/>
</linearGradient>
<path style="fill:url(#SVGID_00000117670483719740233640000017054719096295380117_);" d="M158.1,73.5c-3.4,1.5-4.3,3.3-3.2,6.1
	c2.2,5.9,11.9,11,23.8,12.5c2.9,0.4,2.1,0-3.4-1.8c-14.2-4.7-19-10-14.2-15.6C163.6,71.8,162.7,71.6,158.1,73.5z"/>
<linearGradient id="SVGID_00000047748071568706456310000009254886068029078673_" gradientUnits="userSpaceOnUse" x1="-1777.6414" y1="885.162" x2="-1777.6814" y2="886.7019" gradientTransform="matrix(147.65 0 0 33.6 262678.4375 -29667.3398)">
	<stop  offset="0" style="stop-color:#000000;stop-opacity:0.11"/>
	<stop  offset="1" style="stop-color:#000000;stop-opacity:0.44"/>
</linearGradient>
<path style="fill:url(#SVGID_00000047748071568706456310000009254886068029078673_);" d="M268.5,74.4c-2,2.9-14.3,7.3-39,13.5
	c-14.2,3.6-21.9,5.2-29.2,6.3c-18.6,2.6-37.4-1.5-45.4-9.9c-2.6-2.7-3.1-3.8-3.1-6.7c0-3.1-0.1-3.3-1.3-2.1
	c-0.7,0.7-1.5,2.9-1.7,4.8c-1,9.3,8.8,17.7,24.3,20.5c7,1.3,29.2,0.3,38.5-1.6c22.9-5,46-11.6,53.8-15.5c2.2-1.1,3.2-2.2,3.8-4.3
	C269.8,76.3,269.5,72.9,268.5,74.4L268.5,74.4z"/>
<linearGradient id="SVGID_00000156545378114062940850000018168368099803115186_" gradientUnits="userSpaceOnUse" x1="-1785.1758" y1="862.2634" x2="-1784.3557" y2="862.2634" gradientTransform="matrix(371.42 0 0 91.58 663062.5 -78428.8672)">
	<stop  offset="0" style="stop-color:#00F3FF;stop-opacity:0.45"/>
	<stop  offset="1" style="stop-color:#00F3FF;stop-opacity:0.45"/>
</linearGradient>
<path style="fill:url(#SVGID_00000156545378114062940850000018168368099803115186_);" d="M12.5,500.4c0,4.4,4.8,15.4,9.7,22.1
	c3.8,5.3,13.5,14.1,21,19.1c4,2.7,7.5,5.2,7.8,5.5c1.4,1.9,12,9.2,17.2,11.6c13.9,6.7,35.9,12.5,54,14.2c12.1,1.1,16,1.3,33.2,1.7
	c27.9,0.8,58.8-2.4,83.8-8.7c16.7-4.3,24.7-7,37-13c8.1-4,9.7-4.5,10.1-3.4c0.4,1,1.2,0.2,3.2-3c1.5-2.3,4.5-5.7,6.7-7.5
	c7.5-6,15.3-16,19.4-25c2.2-4.8,0.2-3.5-3.2,2c-3.9,6.5-15.4,17.9-22.8,22.8c-17.7,11.6-37.2,18.8-64.3,23.7
	c-17,3-26.1,3.6-54.9,3.6c-31.3,0.1-39.2-0.6-60.6-4.9c-11.2-2.3-11.1-2.2-24.6-6.3c-5.2-1.6-13.1-3.9-17.6-5.2
	c-10.4-2.9-22.3-8.8-29.6-14.7c-7-5.7-16.5-15.3-17.5-17.8c-0.5-1.1-1.2-2.5-1.6-3.1c-1.1-1.7-3-6.2-4.9-11.5
	C13.1,499.7,12.6,499,12.5,500.4L12.5,500.4z"/>
<linearGradient id="SVGID_00000181784366506891448830000015832742050049984149_" gradientUnits="userSpaceOnUse" x1="-1768.0833" y1="921.1548" x2="-1768.2533" y2="924.0948" gradientTransform="matrix(81.72 0 0 16.68 144692.1094 -15286.2803)">
	<stop  offset="0" style="stop-color:#FFFFFF;stop-opacity:0.23"/>
	<stop  offset="1" style="stop-color:#FFFFFF;stop-opacity:0.46"/>
</linearGradient>
<path style="fill:url(#SVGID_00000181784366506891448830000015832742050049984149_);" d="M202,73.6c-2.2,0.7-6.3,1.7-9,2.4
	c-2.7,0.6-8.8,2.2-13.7,3.4l-8.8,2.3l5.5,1.9c6.9,2.4,19.4,3.1,29,1.8c5.9-0.9,28.5-5.9,31.7-7c2-0.7,0.7-1.2-10.6-3.7
	C214.1,71.9,208.3,71.7,202,73.6L202,73.6z"/>
<rect x="228" y="214.2" class="st29" width="108" height="313"/>
<linearGradient id="SVGID_00000134928831040468172010000002990767363063701121_" gradientUnits="userSpaceOnUse" x1="-1783.9454" y1="851.8344" x2="-1783.9755" y2="852.6444" gradientTransform="matrix(389.84 0 0 647.66 696024.375 -551651.4375)">
	<stop  offset="0" style="stop-color:#D7E100"/>
	<stop  offset="1" style="stop-color:#D50000"/>
</linearGradient>
<path style="fill:url(#SVGID_00000134928831040468172010000002990767363063701121_);" d="M526.7,40c-20.1,2-49.9,7.1-54.4,9.3
	c-0.7,0.3-3.8,1.3-6.9,2.1c-3,0.7-5.7,1.7-6,2.1s-1,0.7-1.6,0.7c-0.7,0-3.7,1.1-6.6,2.5c-2.9,1.3-5.4,2.5-5.6,2.5
	c-0.7,0-11.6,7.1-13.4,8.8c-1.1,1.1-2.3,1.9-2.6,1.9c-0.4,0-0.7,0.5-0.7,1.1c0,0.7-0.7,1.8-1.6,2.5c-2.2,2.1-4.4,8.3-3.9,11.4
	c0.6,4.1,3.4,11.2,4.3,11.2c0.5,0,2.4,1.5,4.1,3.4c1.8,1.9,5.2,4.4,7.6,5.8c2.3,1.3,4.3,2.8,4.3,3.2c0,0.7,5.8,3.7,16.4,8.4
	c15.3,6.8,39.3,12.2,64.3,14.4c12.5,1.1,44.8,1.1,58.4,0c16.6-1.4,39.8-4.7,55.6-7.9c2.5-0.5,2.6-0.4,3.4,3c0.5,2,1.3,4.7,1.8,6.1
	c0.5,1.3,1.1,3.2,1.3,4.1s0.9,2.8,1.6,4.3c0.7,1.4,1.2,3.4,1.2,4.6s0.4,2.4,0.8,2.6c0.5,0.2,0.8,1.6,0.8,2.8s0.3,2.5,0.7,2.9
	c0.5,0.5,0.9,3.2,1.1,6.1l0.2,5.2l-11.5,3.2c-30.1,8.2-58.1,12.1-87.6,12.1c-32.5,0-60.4-4.6-89.8-14.7c-6.6-2.3-12.7-4.2-13.4-4.2
	c-1.7,0-27.8-12.9-33.9-16.7s-5.3-6.3-8.3,26.5c-0.5,5.5-1.1,49.9-1.3,105.6c-0.4,98.8,0.2,147.3,2.6,179.7c0.7,9,1.4,19.6,1.7,23.7
	c1,15.9,4.4,26.5,11.7,36.4c3.8,5.3,13.5,14.1,21,19.1c4,2.7,7.5,5.2,7.8,5.5c1.4,1.9,12,9.2,17.2,11.6c13.9,6.7,35.9,12.5,54,14.2
	c12.1,1.1,16,1.3,33.2,1.7c27.9,0.8,58.8-2.4,83.8-8.7c16.7-4.3,24.7-7,37-13c8.1-4,9.7-4.5,10.2-3.4c0.4,1,1.2,0.2,3.2-3
	c1.5-2.3,4.5-5.7,6.7-7.5c8.1-6.5,15.9-16.8,19.9-26.4c1.1-2.5,2.3-5,2.8-5.6c0.8-1,1.4-5.6,3.8-33.6c1.3-15.3,2.4-38.6,2.5-54.2
	v-14.5l-3.8,4.1c-6.8,7.3-22,13.4-39,15.5c-25,3.1-56.5,1.1-96.3-6.1c-19.9-3.6-24.2-4-42.6-4.1c-12,0-20.1,0.3-23.3,1.1
	c-22.4,4.8-35.4,11.2-46.9,23.4c-10.2,10.8-15.5,20.8-19.7,37.9c-3.8,15-4.3,35-1.6,49.9c2.4,12.5,2.8,16.7,1.6,16.7
	c-3.5,0-16.5-9.8-25.1-18.9c-3.7-3.9-4.3-5-4.8-8.9c-0.7-6.5-2-43.6-2.3-69.6c-0.4-33.7,0.1-233.4,0.7-261.3l0.5-24.2l-2.6-3
	c-1.5-1.6-2.5-3.1-2.4-3.2s9.7,4.5,21.2,10.3l20.9,10.4l-7-0.2l-7-0.2l-0.5,43.4c-0.7,49.9-0.7,215-0.2,215c0.2,0,4.1-3.1,8.6-6.9
	c18.8-15.7,40.7-28.2,61.8-35.5c15-5.1,37.5-10.1,56.1-12.5c3.8-0.5,11-1.4,16-2c23.2-3,29.2-3.9,36.4-5c36.8-5.9,60.1-16,76.6-33.2
	c14-14.7,19.8-29.1,23.7-59.5c1.2-10,1.3-13.7,0.4-40.9c-1.5-44.4-3.6-79-5.2-86.1c-1.2-5.6-9.6-29.7-12.5-36.4
	c-4.4-9.9-5.5-13.6-4.9-16.6c0.3-1.6,0.7-5.5,0.7-8.5c0.1-4.8-0.2-5.8-2.6-9.4c-3.5-5.1-9.5-9.9-17.4-14C675,56.7,663,52.1,655.2,50
	c-3-0.7-6.2-1.7-7.4-2c-4.3-1.4-19.6-4.2-36-6.5C593.4,38.7,547.2,38,526.7,40L526.7,40z"/>
</svg>
