<?xml version="1.0" encoding="utf-8"?>
<!-- Generator: Adobe Illustrator 26.5.0, SVG Export Plug-In . SVG Version: 6.00 Build 0)  -->
<svg version="1.1" id="图层_1" xmlns="http://www.w3.org/2000/svg" xmlns:xlink="http://www.w3.org/1999/xlink" x="0px" y="0px"
	 viewBox="0 0 1132 600" style="enable-background:new 0 0 1132 600;" xml:space="preserve">
<style type="text/css">
	.st0{fill:none;}
	.st1{fill:#D3D3D3;}
	.st2{fill:url(#SVGID_1_);}
	.st3{fill:url(#region-1-1_00000129921663127440732020000016577917345839411105_);}
	.st4{fill:url(#region-1-2_00000031924215420371910630000007973015371692920706_);}
	.st5{fill:url(#region-1-3_00000011016058165703024420000005390036413034336899_);}
	.st6{fill:url(#region-2-1_00000061432408358196996670000017732302155490613892_);}
	.st7{fill:url(#region-2-2_00000150096582771740285690000017921049030083899799_);}
	.st8{fill:url(#region-2-3_00000013875531979928599230000008745249379345872769_);}
	.st9{fill:url(#region-2-4_00000146457679010561981320000011932355353101081014_);}
	.st10{fill:url(#region-2-5_00000124129295593227862170000010555158832943358850_);}
	.st11{fill:url(#region-2-6_00000048491504263414695030000017848677523176241294_);}
	.st12{fill:url(#region-2-7_00000064349962779245359080000009306294050720782749_);}
	.st13{fill:url(#region-2-8_00000106120669447179846540000005195935505367183523_);}
	.st14{fill:url(#region-3-1_00000113334036595037239140000001243311145518208950_);}
	.st15{fill:url(#region-3-2_00000067216439239327215220000015900479038923910842_);}
	.st16{fill:url(#region-3-3_00000096775203792043591850000014091829690698658239_);}
	.st17{fill:url(#region-3-4_00000005983953189506744650000004244432625294189199_);}
	.st18{fill:url(#region-4-1_00000121275574796179381080000014596838890163968411_);}
	.st19{fill:url(#region-4-2_00000177459846828266695410000012784285437381490564_);}
	.st20{fill:url(#region-4-3_00000145764657436295552790000001883910278166834089_);}
	.st21{fill:url(#region-4-4_00000070837709615783344540000008702072529414877063_);}
	.st22{fill:url(#region-5-1_00000170958236497474538100000012380119695625831346_);}
	.st23{fill:url(#region-1-2-2_00000147939930346856344610000001273225646767130530_);}
	.st24{fill:url(#region-3-3-2_00000123432297126732688220000018164092713980765071_);stroke:#000000;stroke-miterlimit:10;}
	.st25{fill:url(#region-2-7-2_00000143604647305225067310000014914752611476685212_);stroke:#000000;stroke-miterlimit:10;}
	.st26{fill:none;stroke:#0A41FF;stroke-width:4;stroke-miterlimit:10;}
	.st27{fill:none;stroke:#3FA9F5;stroke-width:4;stroke-linecap:round;stroke-miterlimit:10;}
	.st28{fill:#3FA9F5;}
</style>
<pattern  y="600" width="40" height="40" patternUnits="userSpaceOnUse" id="a2ed1d96-aebd-4bf9-a4b3-645f1ac" viewBox="0 -40 40 40" style="overflow:visible;">
	<g>
		<rect y="-40" class="st0" width="40" height="40"/>
		<g>
			<rect y="-40" class="st0" width="40" height="40"/>
			<rect y="-40" class="st0" width="40" height="40"/>
			<rect y="-20" class="st1" width="20" height="20"/>
			<rect x="20" y="-40" class="st1" width="20" height="20"/>
		</g>
	</g>
</pattern>
<g id="_图层_1">
	<pattern  id="SVGID_1_" xlink:href="#a2ed1d96-aebd-4bf9-a4b3-645f1ac" patternTransform="matrix(1 0 0 -1 181 -16103.2402)">
	</pattern>
	<rect class="st2" width="1132" height="600"/>
</g>
<g id="layer-1">
	
		<linearGradient id="region-1-1_00000134970209998597608790000005988629179084953988_" gradientUnits="userSpaceOnUse" x1="-207.0106" y1="163.0048" x2="-206.9206" y2="161.2448" gradientTransform="matrix(340.1 0 0 -114.07 70555.9922 18624.2285)">
		<stop  offset="0" style="stop-color:#D1D3D0;stop-opacity:0.99"/>
		<stop  offset="1" style="stop-color:#BBC1C1;stop-opacity:0.99"/>
	</linearGradient>
	<path id="region-1-1" style="fill:url(#region-1-1_00000134970209998597608790000005988629179084953988_);" d="M123.1,32.9
		c-19.9,2-49.3,7-53.8,9.2c-0.7,0.3-3.7,1.3-6.8,2.1c-3,0.7-5.7,1.7-5.9,2.1s-1,0.7-1.6,0.7c-0.7,0-3.6,1-6.6,2.4
		c-2.8,1.3-5.3,2.4-5.5,2.4c-0.7,0-11.5,7-13.3,8.7c-1.1,1-2.3,1.9-2.6,1.9c-0.4,0-0.7,0.5-0.7,1c0,0.7-0.7,1.8-1.5,2.5
		c-2.2,2-4.4,8.3-3.9,11.3c0.6,4.1,3.3,11.1,4.2,11.1c0.5,0,2.3,1.5,4.1,3.3c1.8,1.9,5.2,4.4,7.5,5.8c2.3,1.3,4.2,2.8,4.2,3.2
		c0,0.7,5.8,3.6,16.2,8.3c10.7,4.7,29.6,9.8,45.8,12.2c25.9,3.8,63.4,4,92.3,0.4c19.4-2.4,39-6.1,42.3-7.7c1.2-0.7,3.1-1.2,4-1.2
		c3,0,25.7-7.8,31.8-10.8c3.2-1.6,6.2-2.9,6.7-2.9c1.3,0,9.6-6.3,11.4-8.6c0.8-1.1,2-1.9,2.6-1.9c1.3,0,2.2-4.9,2.3-12.3
		c0.1-4.9-0.2-5.8-2.6-9.3c-3.5-5-9.4-9.8-17.2-13.8c-7-3.6-18.9-8.2-26.6-10.3c-2.9-0.7-6.1-1.7-7.3-2c-4.2-1.4-19.4-4.1-35.6-6.5
		C189,31.6,143.3,31,123.1,32.9L123.1,32.9z"/>
	
		<linearGradient id="region-1-2_00000158008286867215944520000011521429728842961330_" gradientUnits="userSpaceOnUse" x1="-207.0577" y1="165.4187" x2="-207.0577" y2="164.609" gradientTransform="matrix(389.68 0 0 -567.23 80847 93920.1953)">
		<stop  offset="0" style="stop-color:#FFE50D"/>
		<stop  offset="1" style="stop-color:#FF1600"/>
	</linearGradient>
	<path id="region-1-2" style="fill:url(#region-1-2_00000158008286867215944520000011521429728842961330_);" d="M23,90.6
		c-0.4,1.3-3.2,8.1-6,15.2c-9.7,24.7-9.7,24.5-12.6,57.1c-1.3,14.2-1.9,193-0.8,232.4c1.1,39.2,4,84.7,5.5,85.8
		c0.3,0.2,1.1,1.9,1.8,3.7c1.4,4.1,4,10.2,4.9,11.7c0.5,0.6,1.1,2,1.6,3.1c1,2.4,10.5,11.9,17.3,17.6c7.2,5.8,18.9,11.7,29.2,14.5
		c4.4,1.2,12.3,3.6,17.4,5.1c13.4,4,13.2,4,24.3,6.2c21.1,4.3,29,4.9,59.9,4.9c28.4,0,37.4-0.6,54.2-3.6c34.5-6.2,59-17.1,75.8-33.6
		c3.6-3.6,7.9-8.7,9.6-11.3s3.5-5.3,4-5.7c3.2-2.8,4-5.9,5.1-17c2.3-25.1,2.8-30.5,3.5-44.9c1-19.6,1-187.7,0-215.4
		c-1.5-38.1-3.6-73.2-5-79.3c-1.3-5.8-9.5-29.4-12.7-36.8c-0.8-1.8-2.1-5-2.9-7.1c-1.8-4.8-3.3-5.6-5.6-2.8
		c-2.1,2.4-10.5,8.8-11.7,8.8c-0.5,0-3.5,1.3-6.7,2.9c-6.1,3.1-28.8,10.8-31.8,10.8c-0.9,0-2.8,0.6-4,1.2
		c-3.2,1.6-22.9,5.3-42.3,7.7c-28.9,3.6-66.4,3.4-92.3-0.4c-16.1-2.4-35.1-7.5-45.8-12.2c-10.4-4.7-16.2-7.6-16.2-8.3
		c0-0.4-1.9-1.9-4.2-3.2c-2.3-1.4-5.8-3.9-7.5-5.8C25.4,87.8,24.1,87.6,23,90.6L23,90.6z"/>
	
		<linearGradient id="region-1-3_00000001639575827416656500000008406629935536331908_" gradientUnits="userSpaceOnUse" x1="-207.4701" y1="163.8285" x2="-206.6601" y2="163.2486" gradientTransform="matrix(371.42 0 0 -112.32 77055.6328 18886.9707)">
		<stop  offset="0" style="stop-color:#ECECED;stop-opacity:0.99"/>
		<stop  offset="1" style="stop-color:#616569;stop-opacity:0.99"/>
	</linearGradient>
	<path id="region-1-3" style="fill:url(#region-1-3_00000001639575827416656500000008406629935536331908_);" d="M9.3,482.7
		c0,4.4,4.8,15.3,9.6,21.9c2.4,3.3,8.8,9.9,13.4,13.8c1.8,1.5,3.2,2.9,3.3,3.2c0.2,1,2,5.4,2.9,7c0.5,0.9,1.5,2.7,2.2,4
		c1.5,3.2,6.1,8.8,10.2,12.8c12.2,11.7,31.4,19.8,58.7,24.9c13.4,2.5,17.8,2.8,53.4,2.8c38.6,0,40.5-0.2,57.5-4
		c21.5-5,38.3-13,49.7-23.8c2.6-2.5,7.3-8.3,10.3-12.9c3.3-5,7-9.5,9.4-11.4c7.4-5.8,15.1-15.8,19.1-24.6c2.2-4.8,0.2-3.5-3.2,2
		c-3.9,6.4-15.2,17.7-22.6,22.6c-17.5,11.5-36.8,18.5-63.6,23.4c-16.8,3-25.8,3.6-54.2,3.6c-30.9,0.1-38.8-0.6-59.9-4.9
		c-11.1-2.3-10.9-2.2-24.3-6.2c-5.1-1.5-13-3.9-17.4-5.1c-10.3-2.8-22-8.8-29.2-14.5c-6.9-5.7-16.3-15.1-17.3-17.6
		c-0.5-1-1.1-2.4-1.6-3.1c-1-1.7-3-6.1-4.9-11.3C9.9,482,9.4,481.3,9.3,482.7L9.3,482.7z"/>
</g>
<g id="layer-2">
	
		<linearGradient id="region-2-1_00000005958416318845125780000010274662528117414563_" gradientUnits="userSpaceOnUse" x1="-207.0218" y1="160.2123" x2="-206.5018" y2="156.3323" gradientTransform="matrix(311.82 0 0 -58.75 64689.0234 9446.75)">
		<stop  offset="0" style="stop-color:#595D5B;stop-opacity:0.33"/>
		<stop  offset="1" style="stop-color:#A3A6A4;stop-opacity:0.47"/>
	</linearGradient>
	<path id="region-2-1" style="fill:url(#region-2-1_00000005958416318845125780000010274662528117414563_);" d="M126.7,37.4
		c-11.9,0.8-26.5,2.3-30.8,3.2c-2,0.4-7.1,1.3-11.3,2s-8.6,1.7-9.7,2c-1.1,0.4-4.5,1.3-7.7,2c-5.7,1.4-7,1.8-10.9,3.5
		c-1.1,0.5-2.9,1.1-4.1,1.5s-3.4,1.5-5,2.4c-1.7,1-3.3,1.9-3.7,1.9c-1.1,0-7.9,6.6-9,8.7c-3.1,6,1.3,12.6,12.6,19.2
		c0.7,0.3,1.8-0.7,3.1-2.8c1.1-1.9,3.7-4.4,5.8-5.7c13.5-8.6,46.7-15.7,77.7-16.8c13-0.4,13.9-0.4,14.4,1c0.3,0.9,0.2,1.6-0.2,1.8
		s-0.9,1.7-0.9,3.4c0,8.9,17.3,17,36.3,17c9.8,0,19.4-1.6,40.6-7c24.1-6.1,34.2-9.6,38.4-13.1c1.5-1.2,1.5-1.1,1,2.8
		c-0.4,2.7-1.1,4.5-2.3,5.5c-1,0.8-1.6,1.5-1.5,1.6s1.6,0.8,3.2,1.7c4.3,2.3,8.9,7,8.9,9.2c0,1.1,0.2,1.9,0.4,1.9
		c1.1,0,9.4-5.9,11.2-8.1c4.1-4.9,3.6-11.3-1.3-16c-2.6-2.5-12.1-8.3-13.7-8.3c-0.4,0-1.9-0.5-3.3-1.1c-4.1-1.8-7.5-3-10.6-3.8
		c-1.6-0.4-4.3-1.1-5.9-1.5c-3.2-0.9-12.9-2.8-20.1-4.1c-7.1-1.2-24.8-3.2-35.6-4C180.7,36.5,139.5,36.5,126.7,37.4L126.7,37.4z"/>
	
		<linearGradient id="region-2-2_00000072272488919010067600000014377487204674119316_" gradientUnits="userSpaceOnUse" x1="-206.9404" y1="158.9218" x2="-206.3204" y2="162.2118" gradientTransform="matrix(275.8 0 0 -54.36 57215.5938 8741.6592)">
		<stop  offset="0" style="stop-color:#01020E;stop-opacity:0"/>
		<stop  offset="1" style="stop-color:#000000;stop-opacity:0.45"/>
	</linearGradient>
	<path id="region-2-2" style="fill:url(#region-2-2_00000072272488919010067600000014377487204674119316_);" d="M123.5,59
		C83.1,63,55.9,71.3,50,81.3l-1.7,2.8l3.7,1.6c6,2.6,15.2,5.4,24.4,7.7c14.7,3.6,16.4,3.8,41.3,7c12.6,1.6,21.3,2,44.5,2
		c40.4,0,70.9-4.1,98.9-13.4c8.3-2.8,10.4-4.1,10.4-6.4s-4.3-6.9-8.9-9.4c-1.5-0.9-3-1.6-3.2-1.7s0.5-0.8,1.5-1.6
		c1.1-1,1.9-2.8,2.3-5.5c0.5-3.9,0.4-4-1-2.8c-4.1,3.6-14.2,7-38.4,13.1c-21.3,5.4-30.9,7-40.6,7c-18.9,0-36.3-8.1-36.3-17
		c0-1.7,0.4-3.2,0.9-3.4c0.4-0.2,0.6-0.9,0.3-1.7c-0.5-1.2-1.8-1.4-11.3-1.2C131.1,58.6,125,58.8,123.5,59L123.5,59z"/>
	
		<linearGradient id="region-2-3_00000030446857830143343070000008263214616461366159_" gradientUnits="userSpaceOnUse" x1="-206.4375" y1="160.0524" x2="-206.4375" y2="159.2426" gradientTransform="matrix(177.35 0 0 -56.4 36708.4609 9092.9209)">
		<stop  offset="0" style="stop-color:#F8F8F9;stop-opacity:0.69"/>
		<stop  offset="1" style="stop-color:#FFFFFF;stop-opacity:0.62"/>
	</linearGradient>
	<path id="region-2-3" style="fill:url(#region-2-3_00000030446857830143343070000008263214616461366159_);" d="M25.6,71.6
		C24.3,76,25.1,80,28.1,85c2.1,3.5,10.2,9.1,17.7,12.2c3.3,1.5,6.8,2.9,7.7,3.3c3.7,1.7,17.9,5.5,30,8c13.5,2.9,40.3,4.9,63.2,4.9
		c27.7-0.2,29.7-1.1,3.6-1.8c-20.4-0.5-32.2-1.5-49.4-4.2c-7.4-1.1-9.5-1.5-19.8-4C61.8,99,44.1,90.9,34.5,82.2
		c-4.6-4.1-6.6-7.3-7.4-11.7l-0.5-2.8L25.6,71.6L25.6,71.6z"/>
	
		<linearGradient id="region-2-4_00000042701019516594938950000001665419254211429302_" gradientUnits="userSpaceOnUse" x1="-207.1684" y1="155.4375" x2="-206.3584" y2="154.6775" gradientTransform="matrix(239.76 0 0 -31.08 49709.9609 4933.2192)">
		<stop  offset="0" style="stop-color:#000000;stop-opacity:0.35"/>
		<stop  offset="1" style="stop-color:#878B8B;stop-opacity:0.97"/>
	</linearGradient>
	<path id="region-2-4" style="fill:url(#region-2-4_00000042701019516594938950000001665419254211429302_);" d="M40.7,100.2
		c0.7,1.5,4.1,3.2,16.4,8.7c10.6,4.8,29.6,9.9,45.8,12.3c27.2,4.1,63.6,4.1,95.6-0.1c11.8-1.5,32.3-4.9,35.6-6c2.8-1-6.6-0.5-17,0.8
		c-23.2,2.8-82.6,3.8-101.6,1.8c-15.4-1.7-28.3-3.7-36.8-5.8c-19.9-4.8-25.8-6.8-37.9-12.9C40.3,98.9,40.3,99.4,40.7,100.2
		L40.7,100.2z"/>
	
		<linearGradient id="region-2-5_00000052815828723798742430000006160194160249924224_" gradientUnits="userSpaceOnUse" x1="-203.8691" y1="153.3418" x2="-203.1091" y2="152.1817" gradientTransform="matrix(51.1 0 0 -25.04 10435.7998 3979.1018)">
		<stop  offset="0" style="stop-color:#FEFFE1;stop-opacity:0.7"/>
		<stop  offset="1" style="stop-color:#FEFFFF;stop-opacity:0.83"/>
	</linearGradient>
	<path id="region-2-5" style="fill:url(#region-2-5_00000052815828723798742430000006160194160249924224_);" d="M14.2,140
		c0,1.4,10.2,11.8,13.9,14.2c5.8,3.7,15.6,6.3,22.5,6l4.9-0.2l-20.7-10.1C23.5,144.3,14.2,139.9,14.2,140z"/>
	
		<linearGradient id="region-2-6_00000114046041674656903680000009346592206046549394_" gradientUnits="userSpaceOnUse" x1="-188.6443" y1="87.6929" x2="-187.8143" y2="87.3729" gradientTransform="matrix(9.91 0 0 -3.96 1958.5299 515.56)">
		<stop  offset="0" style="stop-color:#FEFDFE;stop-opacity:0.8"/>
		<stop  offset="1" style="stop-color:#FFFFFF;stop-opacity:0.83"/>
	</linearGradient>
	<path id="region-2-6" style="fill:url(#region-2-6_00000114046041674656903680000009346592206046549394_);" d="M87,167.7
		c0,1.2,2.8,2.4,5.6,2.4c3.1,0,3.2-1.1,0.5-2.3C90.6,166.7,87,166.6,87,167.7L87,167.7z"/>
	
		<linearGradient id="region-2-7_00000001640553325375181410000017562343570230517895_" gradientUnits="userSpaceOnUse" x1="-207.2507" y1="164.209" x2="-206.6507" y2="165.429" gradientTransform="matrix(383.87 0 0 -331 79643.5391 54912)">
		<stop  offset="0" style="stop-color:#F7D3D6;stop-opacity:0.6"/>
		<stop  offset="1" style="stop-color:#FFFFEB;stop-opacity:0.55"/>
	</linearGradient>
	<path id="region-2-7" style="fill:url(#region-2-7_00000001640553325375181410000017562343570230517895_);" d="M317.1,265.1
		c-3.2,26.6-9.5,42.4-23.1,56.4c-16.4,17-39.4,27-75.8,32.9c-7.1,1.1-13,1.9-36,4.9c-4.9,0.6-12,1.5-15.8,2
		c-18.4,2.4-40.7,7.4-55.5,12.4C83.5,383,54.4,401.8,34.6,423c-8.6,9.1-17.7,21.5-21.7,29.2c-1.8,3.4-3.6,6.1-4.1,6.1
		c-2.1,0-0.4,19,2.1,24c0.9,1.8,1.9,4.2,2.1,5.4c0.3,1.2,0.9,2.2,1.2,2.2s0.8,1.1,1.1,2.5c0.9,4.4,13.8,18.9,23.2,26
		c3.6,2.7,10.1,6.3,11.4,6.3c1.1,0,0.7-4-1.6-16.5c-2.7-14.7-2.1-34.5,1.6-49.3c4.2-16.9,9.4-26.8,19.5-37.5
		c11.4-12.1,24.2-18.4,46.4-23.2c3.2-0.7,11.2-1,23.1-1c18.1,0.1,22.4,0.5,42.1,4c39.4,7.2,70.5,9.1,95.2,6.1
		c16.8-2.1,31.9-8.1,38.6-15.3l3.8-4v-65.7c0-36-0.2-65.6-0.2-65.6C318.2,256.8,317.7,260.5,317.1,265.1L317.1,265.1z"/>
	
		<linearGradient id="region-2-8_00000005979353690461526810000016209044204765467808_" gradientUnits="userSpaceOnUse" x1="-207.0415" y1="163.4401" x2="-206.7615" y2="160.3902" gradientTransform="matrix(371.42 0 0 -91.58 77055.6328 15448.0117)">
		<stop  offset="0" style="stop-color:#000000;stop-opacity:0.27"/>
		<stop  offset="1" style="stop-color:#8E9596;stop-opacity:0.89"/>
	</linearGradient>
	<path id="region-2-8" style="fill:url(#region-2-8_00000005979353690461526810000016209044204765467808_);" d="M9.3,482.7
		c0,4.4,4.7,15.2,9.6,21.9c3.8,5.3,13.4,13.9,20.7,18.9c4,2.7,7.4,5.1,7.7,5.4c1.4,1.9,11.9,9.1,17,11.5c13.8,6.6,35.5,12.3,53.4,14
		c12,1,15.8,1.3,32.8,1.7c27.6,0.8,58.1-2.3,82.9-8.6c16.5-4.2,24.5-7,36.6-12.9c8-4,9.6-4.5,10-3.4c0.4,1,1.2,0.2,3.2-2.9
		c1.5-2.3,4.5-5.6,6.6-7.4c7.5-5.9,15.1-15.8,19.2-24.7c2.2-4.8,0.2-3.5-3.2,2c-3.9,6.4-15.2,17.7-22.6,22.6
		c-17.5,11.5-36.8,18.5-63.6,23.4c-16.8,3-25.8,3.6-54.2,3.6c-30.9,0.1-38.8-0.6-59.9-4.9c-11.1-2.3-10.9-2.2-24.3-6.2
		c-5.1-1.5-13-3.9-17.4-5.1c-10.3-2.8-22-8.8-29.2-14.5c-6.9-5.7-16.3-15.1-17.3-17.6c-0.5-1-1.1-2.4-1.6-3.1c-1-1.7-3-6.1-4.9-11.3
		C9.9,482.1,9.4,481.3,9.3,482.7L9.3,482.7z"/>
</g>
<linearGradient id="region-3-1_00000059996020521130445590000003968860587342832539_" gradientUnits="userSpaceOnUse" x1="-206.3669" y1="158.583" x2="-206.3568" y2="157.733" gradientTransform="matrix(142.77 0 0 -45.9 29667.0625 7323.4307)">
	<stop  offset="0" style="stop-color:#CCD2D1;stop-opacity:0.64"/>
	<stop  offset="1" style="stop-color:#CFD5D4;stop-opacity:0.65"/>
</linearGradient>
<path id="region-3-1" style="fill:url(#region-3-1_00000059996020521130445590000003968860587342832539_);" d="M172.1,52.3
	c-12.2,4.1-22.8,8-23.7,8.6c-1,0.7-1.5,2.1-1.5,4.1c0,6.4,10.4,13.4,23.6,15.6c14.3,2.5,24.9,1.4,53.4-5.8
	c24.3-6.2,36.8-10.4,38.5-13.3c1.5-2.6-10-8.2-25.1-12.2c-12.6-3.2-23.6-4.8-34.1-4.7l-8.9,0.1L172.1,52.3L172.1,52.3z"/>
<linearGradient id="region-3-2_00000168097887854995686660000004955316075208478651_" gradientUnits="userSpaceOnUse" x1="-206.5245" y1="155.1172" x2="-205.9745" y2="158.3073" gradientTransform="matrix(147.65 0 0 -33.6 30678.5371 5302.1885)">
	<stop  offset="0" style="stop-color:#363A3B;stop-opacity:0.66"/>
	<stop  offset="1" style="stop-color:#676B6C;stop-opacity:0.81"/>
</linearGradient>
<path id="region-3-2" style="fill:url(#region-3-2_00000168097887854995686660000004955316075208478651_);" d="M262.5,61.5
	c-1.9,2.9-14.2,7.2-38.6,13.4c-14.1,3.6-21.7,5.2-28.9,6.2c-18.4,2.6-37-1.5-44.9-9.8c-2.6-2.7-3.1-3.8-3.1-6.6c0-3.1-0.1-3.2-1.3-2
	c-0.7,0.7-1.5,2.9-1.7,4.8c-1,9.2,8.8,17.5,24.1,20.3c6.9,1.3,28.9,0.3,38.1-1.6c22.7-4.9,45.5-11.5,53.2-15.3
	c2.2-1.1,3.2-2.2,3.7-4.2C263.8,63.4,263.5,60,262.5,61.5L262.5,61.5z"/>
<linearGradient id="region-3-3_00000021809135943085642730000007453702076531973051_" gradientUnits="userSpaceOnUse" x1="-206.9563" y1="165.4186" x2="-206.9563" y2="164.6089" gradientTransform="matrix(302.4 0 0 -567.12 62779.6992 93897.3828)">
	<stop  offset="0" style="stop-color:#068534;stop-opacity:0.17"/>
	<stop  offset="1" style="stop-color:#280000;stop-opacity:0.18"/>
</linearGradient>
<path id="region-3-3" style="fill:url(#region-3-3_00000021809135943085642730000007453702076531973051_);" d="M291.4,90.2
	c-1.9,2.3-10.2,8.7-11.5,8.7c-0.5,0-3.5,1.3-6.6,2.9c-6.3,3.2-25.3,9.6-31.9,10.9c-2.3,0.4-4.4,1.1-4.7,1.4c-1,1.1,1.6,11,4.8,18.5
	c0.6,1.4,1,3.4,1,4.5s0.4,2.4,0.8,2.6c0.5,0.2,0.8,1.5,0.8,2.8s0.3,2.5,0.7,2.8c0.3,0.2,1,2.8,1.2,5.5c0.3,2.8,0.9,5.4,1.3,5.9
	c0.8,1.1,2.4,15.9,2.4,23.1c0,3.2,0.3,5.7,0.7,5.7c0.3,0,0.9,2.8,1.1,6.2c0.2,3.5,1.2,14.7,2.1,24.9c4.5,50,5.9,101.9,3.8,128.3
	c-0.6,7.8-1.6,19.8-2.1,26.7c-2.6,34.4-8.8,62.2-18.3,83.2c-1.5,3.3-2.8,6.4-2.8,6.8s-1.6,3.4-3.6,6.7c-17.4,29.4-46.5,49.8-84.3,59
	c-16.5,4.1-28.8,5.5-53.4,6.2l-19.4,0.5l8.5,2.7c12.2,3.8,12.3,3.9,23.5,6.2c21.1,4.3,29,4.9,59.9,4.9c28.4,0,37.4-0.6,54.2-3.6
	c34.5-6.2,59-17.1,75.8-33.6c3.6-3.6,7.9-8.7,9.6-11.3s3.5-5.3,4-5.7c3.2-2.8,4-5.9,5.1-17c2.3-25.1,2.8-30.5,3.5-44.9
	c1-19.6,1-187.7,0-215.4c-1.5-38.1-3.6-73.2-5-79.3c-1.1-5.2-9.7-30.2-12.1-35.2c-0.4-0.9-1.8-4.2-3-7.3
	C295.2,88.2,293.7,87.2,291.4,90.2L291.4,90.2z"/>
<linearGradient id="region-3-4_00000163041321578191154330000004236992493295911584_" gradientUnits="userSpaceOnUse" x1="-201.0736" y1="164.9515" x2="-197.2636" y2="164.6615" gradientTransform="matrix(29.67 0 0 -461.5 5982.8999 76438.5938)">
	<stop  offset="0" style="stop-color:#FEF699;stop-opacity:0.45"/>
	<stop  offset="1" style="stop-color:#FFEEFF;stop-opacity:0.36"/>
</linearGradient>
<path id="region-3-4" style="fill:url(#region-3-4_00000163041321578191154330000004236992493295911584_);" d="M18.7,169.3
	c-0.5,26.2-1,225.4-0.7,259.1c0.3,24.8,1.5,62,2.3,68.8c0.5,4.4,0.6,4.5,8.9,12.7c4.6,4.5,9.2,8.7,10,9.1l1.6,0.9V384.2
	c0-74.7,0.2-155.8,0.6-180.1l0.5-44.3l-4.8-1.4c-5.3-1.5-12.4-5.8-15.7-9.6l-2.3-2.4L18.7,169.3L18.7,169.3z"/>
<g id="layer-4">
	
		<linearGradient id="region-4-1_00000075880497242909492640000005576264476505414591_" gradientUnits="userSpaceOnUse" x1="-205.79" y1="147.7289" x2="-205.79" y2="146.9192" gradientTransform="matrix(95.57 0 0 -18.54 19868.5 2793.7004)">
		<stop  offset="0" style="stop-color:#05080B;stop-opacity:0.49"/>
		<stop  offset="1" style="stop-color:#000003;stop-opacity:0.52"/>
	</linearGradient>
	<path id="region-4-1" style="fill:url(#region-4-1_00000075880497242909492640000005576264476505414591_);" d="M191.5,55.2
		c-4.7,1.3-13.2,3.6-18.9,4.9c-10,2.5-10.4,2.7-10.1,4.6c0.4,3.1,2.4,3.9,6.9,2.9c6-1.4,20.4-5.1,24.9-6.5c8.9-2.8,18.5-2.1,35,2.6
		c3.8,1.1,4.5,1.1,7.5-0.2c1.8-0.7,3.2-1.8,3-2.3c-1-3.1-18.5-7.7-30.9-8.2C200.9,52.8,199.2,53,191.5,55.2L191.5,55.2z"/>
	
		<linearGradient id="region-4-2_00000015333930110081436630000000327280957344904102_" gradientUnits="userSpaceOnUse" x1="-202.166" y1="152.2641" x2="-201.926" y2="150.9141" gradientTransform="matrix(31.67 0 0 -24.45 6562.1396 3782.1499)">
		<stop  offset="0" style="stop-color:#F2F2F1;stop-opacity:0.75"/>
		<stop  offset="1" style="stop-color:#FFFFFF;stop-opacity:0.82"/>
	</linearGradient>
	<path id="region-4-2" style="fill:url(#region-4-2_00000015333930110081436630000000327280957344904102_);" d="M153.3,60.5
		c-3.3,1.5-4.3,3.2-3.2,6.1c2.2,5.8,11.7,10.8,23.6,12.4c2.8,0.4,2.1,0-3.3-1.8c-14-4.6-18.8-9.9-14.1-15.4
		C158.7,58.9,157.9,58.6,153.3,60.5L153.3,60.5z"/>
	
		<linearGradient id="region-4-3_00000155825198438359314290000003579712294672511880_" gradientUnits="userSpaceOnUse" x1="-205.4894" y1="145.7814" x2="-205.4894" y2="144.972" gradientTransform="matrix(81.72 0 0 -16.68 16991.3398 2492.2905)">
		<stop  offset="0" style="stop-color:#8A8D8D;stop-opacity:0.81"/>
		<stop  offset="1" style="stop-color:#919494;stop-opacity:0.78"/>
	</linearGradient>
	<path id="region-4-3" style="fill:url(#region-4-3_00000155825198438359314290000003579712294672511880_);" d="M196.8,60.6
		c-2.2,0.7-6.2,1.7-8.9,2.3c-2.7,0.6-8.8,2.2-13.5,3.4l-8.7,2.3l5.4,1.9c6.8,2.3,19.2,3.1,28.7,1.8c5.8-0.9,28.2-5.8,31.3-7
		c1.9-0.7,0.6-1.1-10.5-3.6C208.7,59,202.9,58.7,196.8,60.6L196.8,60.6z"/>
	
		<linearGradient id="region-4-4_00000048479768107840042230000014013629163232314013_" gradientUnits="userSpaceOnUse" x1="-207.0577" y1="162.808" x2="-206.9477" y2="160.618" gradientTransform="matrix(372.49 0 0 -102.94 77277.6406 16844.9414)">
		<stop  offset="0" style="stop-color:#FBFFB7;stop-opacity:0.56"/>
		<stop  offset="1" style="stop-color:#EBFF47;stop-opacity:0.12"/>
	</linearGradient>
	<path id="region-4-4" style="fill:url(#region-4-4_00000048479768107840042230000014013629163232314013_);" d="M23,90.6
		c-0.4,1.3-3.2,8.1-6,15.2C11.8,119,9.1,126.5,8.2,131c-0.6,2.4-0.3,2.7,4.5,5.8c6.6,4.1,31.6,16.4,33.4,16.4
		c0.7,0,6.7,1.9,13.3,4.1c46.9,16.1,97.1,18.9,150.8,8.3c14.1-2.8,42.5-10.4,49-13.2c0.9-0.4,3.5-1.4,5.7-2.1c2.3-0.8,4.5-1.7,4.9-2
		c0.5-0.3,5.2-2.6,10.5-4.9c16.5-7.2,29.1-14,29.4-15.9c0.2-0.9-0.9-4.7-2.4-8.4c-1.4-3.7-3.2-8.8-4.1-11.3s-2.3-5.9-3-7.7
		c-0.8-1.8-2.1-5-2.9-7.1c-1.8-4.8-3.3-5.6-5.6-2.8c-2.1,2.4-10.5,8.8-11.7,8.8c-0.5,0-3.5,1.3-6.7,2.9
		c-6.1,3.1-28.8,10.8-31.8,10.8c-0.9,0-2.8,0.6-4,1.2c-3.2,1.6-22.9,5.3-42.3,7.7c-28.9,3.6-66.4,3.4-92.3-0.4
		c-16.1-2.4-35.1-7.5-45.8-12.2c-10.4-4.7-16.2-7.6-16.2-8.3c0-0.4-1.9-1.9-4.2-3.2c-2.3-1.4-5.8-3.9-7.5-5.8
		C25.4,87.8,24.1,87.6,23,90.6L23,90.6z"/>
</g>
<g id="layer-5">
	
		<linearGradient id="region-5-1_00000141451743715284462980000009128397736808645761_" gradientUnits="userSpaceOnUse" x1="-202.8611" y1="160.5507" x2="-202.8611" y2="159.7408" gradientTransform="matrix(43.43 0 0 -59.91 8849.4502 9721.9893)">
		<stop  offset="0" style="stop-color:#FFF784;stop-opacity:0.6"/>
		<stop  offset="1" style="stop-color:#FFF18E;stop-opacity:0.61"/>
	</linearGradient>
	<path id="region-5-1" style="fill:url(#region-5-1_00000141451743715284462980000009128397736808645761_);" d="M30.5,117.7
		c-2.8,7.7-6,16.3-7,19l-1.9,4.9l10.8,5.5c6,3,11,5.3,11.2,5.1c0.2-0.3,12.2-35,13.1-38c0.3-0.9-2.4-2.4-10-5.9
		c-5.7-2.5-10.5-4.6-10.8-4.6S33.3,110.1,30.5,117.7z"/>
</g>
<linearGradient id="region-1-2-2_00000104674833235086627400000005863516796875832492_" gradientUnits="userSpaceOnUse" x1="-206.0052" y1="165.4187" x2="-206.0052" y2="164.609" gradientTransform="matrix(389.68 0 0 -567.23 80847 93920.1953)">
	<stop  offset="0" style="stop-color:#FFE50D"/>
	<stop  offset="1" style="stop-color:#FF1600"/>
</linearGradient>
<path id="region-1-2-2" style="fill:url(#region-1-2-2_00000104674833235086627400000005863516796875832492_);" d="M433.1,90.5
	c-0.4,1.3-3.2,8.1-6,15.2c-9.7,24.7-9.7,24.5-12.6,57.1c-1.3,14.2-1.9,193-0.8,232.4c1.1,39.2,4,84.7,5.5,85.8
	c0.3,0.2,1.1,1.9,1.8,3.7c1.4,4.1,4,10.2,4.9,11.7c0.5,0.6,1.1,2,1.6,3.1c1,2.4,10.5,11.9,17.3,17.6c7.2,5.8,19,11.7,29.2,14.5
	c4.5,1.2,12.3,3.6,17.4,5.1c13.4,4,13.2,4,24.3,6.2c21.1,4.3,29,4.9,59.9,4.9c28.4,0,37.4-0.6,54.2-3.6c34.5-6.2,59-17.1,75.8-33.6
	c3.6-3.6,7.9-8.7,9.6-11.3s3.5-5.3,4-5.7c3.2-2.8,4-5.9,5.1-17c2.3-25.1,2.8-30.5,3.5-44.9c1-19.6,1-187.7,0-215.4
	c-1.5-38.1-3.6-73.2-5-79.3c-1.3-5.8-9.5-29.4-12.7-36.8c-0.8-1.8-2.1-5-2.9-7.1c-1.8-4.8-3.3-5.6-5.6-2.8
	c-2.1,2.4-10.5,8.8-11.7,8.8c-0.5,0-3.5,1.3-6.7,2.9c-6.2,3.1-28.8,10.8-31.8,10.8c-0.9,0-2.8,0.6-4,1.2c-3.2,1.6-22.9,5.3-42.3,7.7
	c-28.9,3.6-66.4,3.4-92.3-0.4c-16.1-2.4-35.1-7.5-45.8-12.2c-10.5-4.7-16.2-7.6-16.2-8.3c0-0.4-1.9-1.9-4.2-3.2
	c-2.4-1.4-5.8-3.9-7.5-5.8C435.6,87.7,434.3,87.5,433.1,90.5L433.1,90.5z"/>
<linearGradient id="region-3-3-2_00000097494050618153333600000005169169394489355701_" gradientUnits="userSpaceOnUse" x1="-204.2957" y1="165.3886" x2="-204.2957" y2="164.5788" gradientTransform="matrix(302.4 0 0 -567.12 62779.6992 93897.3828)">
	<stop  offset="0" style="stop-color:#068534;stop-opacity:0.17"/>
	<stop  offset="1" style="stop-color:#280000;stop-opacity:0.18"/>
</linearGradient>
<path id="region-3-3-2" style="fill:url(#region-3-3-2_00000097494050618153333600000005169169394489355701_);stroke:#000000;stroke-miterlimit:10;" d="
	M1096,105.6c-1.9,2.3-10.2,8.7-11.5,8.7c-0.5,0-3.5,1.3-6.6,2.9c-6.3,3.2-25.3,9.6-31.9,10.9c-2.3,0.4-4.4,1.1-4.7,1.4
	c-1.1,1.1,1.6,11,4.8,18.5c0.6,1.4,1.1,3.4,1.1,4.5s0.4,2.4,0.8,2.6c0.5,0.2,0.8,1.5,0.8,2.8s0.3,2.5,0.7,2.8c0.3,0.2,1,2.8,1.2,5.5
	c0.3,2.8,0.9,5.4,1.3,5.9c0.8,1.1,2.4,15.9,2.4,23.1c0,3.2,0.3,5.7,0.7,5.7c0.3,0,0.9,2.8,1.1,6.2c0.2,3.5,1.2,14.7,2.1,24.9
	c4.4,50,5.9,101.9,3.8,128.3c-0.7,7.8-1.6,19.8-2.1,26.7c-2.6,34.4-8.8,62.2-18.3,83.2c-1.5,3.3-2.8,6.4-2.8,6.8s-1.6,3.4-3.6,6.7
	c-17.4,29.4-46.5,49.8-84.3,59c-16.5,4.1-28.8,5.5-53.4,6.2l-19.4,0.5l8.5,2.7c12.2,3.8,12.3,3.9,23.5,6.2c21.1,4.3,29,4.9,59.9,4.9
	c28.4,0,37.4-0.6,54.2-3.6c34.5-6.2,59-17.1,75.8-33.6c3.6-3.6,7.9-8.7,9.6-11.3s3.5-5.3,4-5.7c3.2-2.8,4.1-5.9,5.1-17
	c2.3-25.1,2.8-30.5,3.5-44.9c1-19.6,1-187.7,0-215.4c-1.5-38.1-3.6-73.2-5-79.3c-1.1-5.2-9.7-30.2-12.1-35.2c-0.4-0.9-1.8-4.2-3-7.3
	C1099.8,103.5,1098.2,102.5,1096,105.6L1096,105.6z"/>
<linearGradient id="region-2-7-2_00000156589042836024644360000006610626869150956445_" gradientUnits="userSpaceOnUse" x1="-205.3661" y1="164.2087" x2="-204.7661" y2="165.4287" gradientTransform="matrix(383.87 0 0 -331 79643.5391 54912)">
	<stop  offset="0" style="stop-color:#F7D3D6;stop-opacity:0.6"/>
	<stop  offset="1" style="stop-color:#FFFFEB;stop-opacity:0.55"/>
</linearGradient>
<path id="region-2-7-2" style="fill:url(#region-2-7-2_00000156589042836024644360000006610626869150956445_);stroke:#000000;stroke-miterlimit:10;" d="
	M1040.5,265.2c-3.2,26.6-9.6,42.4-23.1,56.4c-16.4,17-39.4,27-75.8,32.9c-7.1,1.1-13,1.9-36,4.9c-4.9,0.6-12,1.5-15.8,2
	c-18.4,2.4-40.7,7.4-55.5,12.4c-27.4,9.3-56.5,28.2-76.4,49.4c-8.6,9.1-17.7,21.5-21.7,29.2c-1.8,3.4-3.6,6.1-4.1,6.1
	c-2.1,0-0.4,19,2.1,24c0.9,1.8,1.9,4.2,2.1,5.4c0.3,1.2,0.9,2.2,1.2,2.2s0.8,1.1,1.1,2.5c0.9,4.4,13.8,18.9,23.2,26
	c3.6,2.7,10.1,6.3,11.4,6.3c1.1,0,0.7-4-1.6-16.5c-2.7-14.7-2.1-34.5,1.6-49.3c4.2-16.9,9.4-26.8,19.5-37.5
	c11.4-12.1,24.2-18.4,46.4-23.2c3.2-0.7,11.2-1,23.1-1c18.1,0.1,22.4,0.5,42.1,4c39.3,7.2,70.5,9.1,95.2,6.1
	c16.8-2.1,31.9-8.1,38.6-15.3l3.8-4v-65.7c0-36-0.2-65.6-0.2-65.6C1041.6,257,1041,260.7,1040.5,265.2L1040.5,265.2z"/>
<rect x="224.1" y="190.4" class="st26" width="108" height="313"/>
<g>
	<line class="st27" x1="392" y1="294.3" x2="339" y2="294.3"/>
	<polygon class="st28" points="412,294.3 383.8,310.6 390.5,294.3 383.8,278 	"/>
</g>
</svg>
