<?xml version="1.0" encoding="utf-8"?>
<!-- Generator: Adobe Illustrator 26.5.0, SVG Export Plug-In . SVG Version: 6.00 Build 0)  -->
<svg version="1.1" id="图层_1" xmlns="http://www.w3.org/2000/svg" xmlns:xlink="http://www.w3.org/1999/xlink" x="0px" y="0px"
	 viewBox="0 0 1640 881.5" style="enable-background:new 0 0 1640 881.5;" xml:space="preserve">
<style type="text/css">
	.st0{fill:none;}
	.st1{fill:#D3D3D3;}
	.st2{fill:url(#SVGID_1_);}
	.st3{fill:url(#e7d17ab5-10fd-49fb-af51-b5be3a6dee1c_00000143617929941164887940000007137254166576007592_);}
	.st4{fill:url(#fa0d7802-1bd5-4a86-b6a3-34555483f482_00000172421812007912714400000007049709624586281616_);}
	.st5{fill:url(#f1479883-a35a-4493-aa6a-e95200cd0a19_00000041997615981551114500000009379354138538560674_);}
	.st6{fill:url(#a34cadcb-b254-407c-8ba8-0b5fc65fd219_00000057860857650533547710000013122717321058595249_);}
	.st7{fill:url(#bfbe1db7-a7d5-404c-8b66-0b6f96c86f84_00000008118096390722478180000003984559361249862073_);}
	.st8{fill:url(#a9623ca7-54cd-4cb5-b942-0b32b89ee348_00000090289152576674391320000010421957874060265878_);}
	.st9{fill:url(#a6d95212-dc8a-4822-adfd-ab068af10040_00000088824048032568877600000014777756730280791434_);}
	.st10{fill:url(#aee8e9b3-72a9-482f-a883-4193f1805ebd_00000178186682579718069830000011406946801120222094_);}
	.st11{fill:url(#ab03e2c7-a57c-4ba7-8d09-c45cde54d65b_00000085966837196229877800000004286850935687794358_);}
	.st12{fill:url(#aaa49f67-14b9-48bd-b511-c18a966ef30b_00000119806806801811162500000012732258942271595952_);}
	.st13{fill:url(#a25cfa03-2e26-4b81-b997-13ad2efae280_00000161606006864590178000000011743855017578949272_);}
	.st14{fill:url(#e4a40ecc-e51d-4522-836f-14ef9bb394f8_00000109723575550399592360000017038250809249072531_);}
	.st15{fill:url(#b139ab89-38ca-416d-aef2-f4af949b4b88_00000156586289012859986330000005420878997391250340_);}
	.st16{fill:url(#b7fb2229-bd89-4397-8e1a-c3cc9d76318f_00000078019554615577598350000010542538612252288911_);}
	.st17{fill:url(#f6d10bad-6698-4b8c-8d7a-2aaed2250238_00000036957249253473146910000016580994926126530962_);}
	.st18{fill:url(#f0a36f3c-9732-4cd2-b292-ea4de269a1b9_00000157991715849612953330000008221150999599573676_);}
	.st19{fill:url(#b80cc5e1-0b09-49e9-8cb0-c1df67bab9d5_00000067954254210846141070000009079262228634086329_);}
	.st20{fill:url(#eb54b26f-4803-4b4b-a99c-241c57835c50_00000021113342888297918300000006737710236054176427_);}
	.st21{fill:url(#f5e90122-8665-4aa0-aaf9-0399405c4d65_00000040537576551527600500000004303768077557292161_);}
	
		.st22{fill:url(#be3100e3-a725-471c-b400-eb6ed743fa32_00000082362558412865720330000009154080494673940102_);stroke:#000000;stroke-miterlimit:10;}
	
		.st23{fill:url(#f78a76a4-1605-4f34-b3f5-05472853be5d_00000097484633166209560560000016756983177691029937_);stroke:#000000;stroke-miterlimit:10;}
	
		.st24{fill:url(#bb23a05e-f612-4649-98cf-a56e5314fd20_00000145766775666660810640000017089915345612239800_);stroke:#000000;stroke-miterlimit:10;}
	
		.st25{fill:url(#ab5fec03-1b75-438a-a113-def7e85b6037_00000031898384182869059000000000462393740937750663_);stroke:#000000;stroke-miterlimit:10;}
	
		.st26{fill:url(#eee265a4-d193-4b78-a589-65190ac5b6dc_00000070076825525843334470000011137388001511266214_);stroke:#000000;stroke-miterlimit:10;}
	.st27{fill:url(#a30215a5-0c36-438f-996b-a6a2bb563904_00000072981715630433521490000004202534569511952024_);}
	
		.st28{fill:url(#a98b2934-9b7d-4ea0-9493-987b92323e0e_00000096756561839584924550000006189316834939034542_);stroke:#000000;stroke-miterlimit:10;}
	.st29{fill:url(#ef765f38-c251-47af-9dd3-71f28f33c2fc_00000054257608666881037180000008579519158233757877_);}
	
		.st30{fill:url(#a4d3133f-71d2-43e8-9ce8-49b55ae0dcbd_00000150815719807037373570000003247068035601731972_);stroke:#000000;stroke-miterlimit:10;}
	.st31{fill:none;stroke:#000000;stroke-width:4;stroke-miterlimit:10;}
</style>
<pattern  y="881.5" width="40" height="40" patternUnits="userSpaceOnUse" id="b05ad03f-fb30-40b0-93d2-d417ed5" viewBox="0 -40 40 40" style="overflow:visible;">
	<g>
		<rect y="-40" class="st0" width="40" height="40"/>
		<rect y="-40" class="st0" width="40" height="40"/>
		<rect y="-40" class="st1" width="20" height="20"/>
		<rect x="20" y="-20" class="st1" width="20" height="20"/>
	</g>
</pattern>
<g id="b6d4c844-d35a-46cd-8f2d-a7195f9c42a4">
	<pattern  id="SVGID_1_" xlink:href="#b05ad03f-fb30-40b0-93d2-d417ed5" patternTransform="matrix(1 0 0 1 58 65.5)">
	</pattern>
	<rect x="412.5" y="0.5" class="st2" width="1227.5" height="881"/>
	<g id="ac092016-762a-480f-8756-f10ab1583329">
		
			<linearGradient id="e7d17ab5-10fd-49fb-af51-b5be3a6dee1c_00000150066869318404691950000004278421417802898619_" gradientUnits="userSpaceOnUse" x1="-1209.2571" y1="23.3965" x2="-1208.957" y2="24.3965" gradientTransform="matrix(66 0 0 76 79936 -1752.5)">
			<stop  offset="0" style="stop-color:#D9D6DA;stop-opacity:0.99"/>
			<stop  offset="1" style="stop-color:#C4C1C6;stop-opacity:0.99"/>
		</linearGradient>
		
			<path id="e7d17ab5-10fd-49fb-af51-b5be3a6dee1c" style="fill:url(#e7d17ab5-10fd-49fb-af51-b5be3a6dee1c_00000150066869318404691950000004278421417802898619_);" d="
			M167.9,63.4v38h-66V76.5c0-14,0.5-27.2,1.1-30c1.9-9,9.8-17.3,18.8-19.7c3-0.8,12.1-1.3,25.4-1.3l20.8-0.1V63.4"/>
		
			<linearGradient id="fa0d7802-1bd5-4a86-b6a3-34555483f482_00000104669700620464492180000015725778609732473002_" gradientUnits="userSpaceOnUse" x1="-1217.7107" y1="23.3961" x2="-1217.7107" y2="24.3961" gradientTransform="matrix(124 0 0 76.07 151226 -1755.061)">
			<stop  offset="0" style="stop-color:#C3BFC7"/>
			<stop  offset="1" style="stop-color:#B5B0B9"/>
		</linearGradient>
		
			<path id="fa0d7802-1bd5-4a86-b6a3-34555483f482" style="fill:url(#fa0d7802-1bd5-4a86-b6a3-34555483f482_00000104669700620464492180000015725778609732473002_);" d="
			M275.9,28c6,2.9,10.9,7.8,13.6,13.9c2.3,4.9,2.3,5.8,2.4,32.3v27.3h-124V25.3l51.8,0.3C269.7,25.9,271.5,26,275.9,28"/>
		
			<linearGradient id="f1479883-a35a-4493-aa6a-e95200cd0a19_00000004531312741518053450000001540086241703194553_" gradientUnits="userSpaceOnUse" x1="-1223.6464" y1="24.1285" x2="-1223.6464" y2="23.1285" gradientTransform="matrix(315 0 0 237.82 385640 -5398.8335)">
			<stop  offset="0" style="stop-color:#FFAE00"/>
			<stop  offset="1" style="stop-color:#FEB005"/>
		</linearGradient>
		
			<path id="f1479883-a35a-4493-aa6a-e95200cd0a19" style="fill:url(#f1479883-a35a-4493-aa6a-e95200cd0a19_00000004531312741518053450000001540086241703194553_);" d="
			M340.6,104.6c2.6,1.8,4.7,4.2,6.2,7.1l2.1,4.4v223.4h-315V226.9c0-121.4-0.3-115.1,5.1-120.2c5.9-5.6-2.9-5.3,153.4-5l144.1,0.2
			L340.6,104.6"/>
		
			<linearGradient id="a34cadcb-b254-407c-8ba8-0b5fc65fd219_00000083796056402111840610000002118446857758568366_" gradientUnits="userSpaceOnUse" x1="-1223.1416" y1="24.1862" x2="-1224.1416" y2="22.9261" gradientTransform="matrix(315 0 0 482 385640 -10776.5)">
			<stop  offset="0" style="stop-color:#866A6E"/>
			<stop  offset="1" style="stop-color:#674449;stop-opacity:0.99"/>
		</linearGradient>
		
			<path id="a34cadcb-b254-407c-8ba8-0b5fc65fd219" style="fill:url(#a34cadcb-b254-407c-8ba8-0b5fc65fd219_00000083796056402111840610000002118446857758568366_);" d="
			M348.9,573.3c0,162.9-0.3,234.8-1.1,236.8c-1.9,4.3-5.4,7.9-9.6,9.9c-2.7,1.2-27.2,1.4-147.3,1.4c-142.2,0-144.1,0-148-2
			c-2.5-1.4-4.7-3.4-6.5-5.7l-2.5-3.7V339.4h315V573.3"/>
		
			<linearGradient id="bfbe1db7-a7d5-404c-8b66-0b6f96c86f84_00000168839540456518843240000002105186779877015717_" gradientUnits="userSpaceOnUse" x1="-1223.1476" y1="23.6566" x2="-1222.7976" y2="24.6566" gradientTransform="matrix(270 0 0 44.99 330402 -243.2232)">
			<stop  offset="0" style="stop-color:#C0BDC4;stop-opacity:0.99"/>
			<stop  offset="1" style="stop-color:#B9B5BD;stop-opacity:0.99"/>
		</linearGradient>
		
			<path id="bfbe1db7-a7d5-404c-8b66-0b6f96c86f84" style="fill:url(#bfbe1db7-a7d5-404c-8b66-0b6f96c86f84_00000168839540456518843240000002105186779877015717_);" d="
			M325.9,835.5c0,10.9-0.4,14.9-1.6,17.5c-2.2,4.6-9.3,10.8-14.2,12.2c-2.9,0.9-33.9,1.2-119.8,1.2H74.4l-5.1-2.4
			c-5.7-2.7-11-8.4-12.5-13.6c-0.5-1.9-1-9.2-1-16.2v-12.8h270L325.9,835.5"/>
	</g>
	<g id="b6134261-712e-479f-852d-3a5bdb946915">
		
			<linearGradient id="a9623ca7-54cd-4cb5-b942-0b32b89ee348_00000178890059769928014950000000565590480467942842_" gradientUnits="userSpaceOnUse" x1="-1221.1415" y1="24.6566" x2="-1221.0814" y2="25.6566" gradientTransform="matrix(190 0 0 18 232208 -360.5)">
			<stop  offset="0" style="stop-color:#000000;stop-opacity:0.15"/>
			<stop  offset="1" style="stop-color:#000000;stop-opacity:0.17"/>
		</linearGradient>
		
			<path id="a9623ca7-54cd-4cb5-b942-0b32b89ee348" style="fill:url(#a9623ca7-54cd-4cb5-b942-0b32b89ee348_00000178890059769928014950000000565590480467942842_);" d="
			M291.9,92.4v9h-190v-18h190V92.4"/>
		
			<linearGradient id="a6d95212-dc8a-4822-adfd-ab068af10040_00000169533003233293938200000005326896997177947046_" gradientUnits="userSpaceOnUse" x1="-1217.5159" y1="23.2409" x2="-1217.5159" y2="24.2409" gradientTransform="matrix(121.58 0 0 122.88 148216.625 -2698.3457)">
			<stop  offset="0" style="stop-color:#F9F6E5;stop-opacity:0.78"/>
			<stop  offset="1" style="stop-color:#F8FFFF;stop-opacity:0.81"/>
		</linearGradient>
		
			<path id="a6d95212-dc8a-4822-adfd-ab068af10040" style="fill:url(#a6d95212-dc8a-4822-adfd-ab068af10040_00000169533003233293938200000005326896997177947046_);" d="
			M196.6,161.1c6.7,3.2,7.3,5.4,7.3,27.1v19.2h18.5c20.9,0,24.1,0.7,27.5,6.2c3.3,5.4,2.3,12.3-2.4,16.5l-3.6,3.3h-40v19.9
			c0,19.9,0,19.9-2.6,23c-2.8,3.3-7.7,6.1-10.6,6.1c-3.3,0-9.9-5-11.4-8.5c-1.1-2.5-1.4-8.2-1.4-21.9v-18.5h-19.3
			c-17.3,0-19.6-0.2-22.4-1.9c-5.8-3.6-7.5-9.9-4.4-16.5c3.3-6.8,6.3-7.6,28.1-7.6h18v-18.5c0-21,0.7-23.8,6.9-27.4
			C189.2,159,192,158.9,196.6,161.1"/>
		
			<linearGradient id="aee8e9b3-72a9-482f-a883-4193f1805ebd_00000074412986707099926980000007135392487114620337_" gradientUnits="userSpaceOnUse" x1="-1222.9922" y1="24.108" x2="-1223.0021" y2="23.1078" gradientTransform="matrix(269.58 0 0 269.4 329886.625 -5850.001)">
			<stop  offset="0" style="stop-color:#FFFFE0;stop-opacity:0.85"/>
			<stop  offset="1" style="stop-color:#FFFDD2;stop-opacity:0.8"/>
		</linearGradient>
		
			<path id="aee8e9b3-72a9-482f-a883-4193f1805ebd" style="fill:url(#aee8e9b3-72a9-482f-a883-4193f1805ebd_00000074412986707099926980000007135392487114620337_);" d="
			M217.7,378.4c73,14.7,120.2,85.9,105.5,158.8c-8.1,40-33.9,74.2-70.1,93c-21.8,11.2-43.1,15.9-67.7,14.8
			c-36.7-1.6-66.4-15.1-92.3-42.2c-18.7-19.5-29-38.9-34.9-65.7c-2.6-11.8-2.6-41.8,0-53.8c4.5-20.5,15-42.9,26.4-56.3
			c25.1-29.5,55-46.2,90.8-50.7C185.8,375.1,206.3,376,217.7,378.4"/>
		
			<linearGradient id="ab03e2c7-a57c-4ba7-8d09-c45cde54d65b_00000120558579234289899000000017124478928165734565_" gradientUnits="userSpaceOnUse" x1="-1217.5304" y1="25.1106" x2="-1217.5803" y2="24.1106" gradientTransform="matrix(122.06 0 0 26.9 148805.6719 69.7011)">
			<stop  offset="0" style="stop-color:#FFFFDB;stop-opacity:0.85"/>
			<stop  offset="1" style="stop-color:#FFFFD4;stop-opacity:0.82"/>
		</linearGradient>
		
			<path id="ab03e2c7-a57c-4ba7-8d09-c45cde54d65b" style="fill:url(#ab03e2c7-a57c-4ba7-8d09-c45cde54d65b_00000120558579234289899000000017124478928165734565_);" d="
			M244.6,720.3c9.4,4.2,9.9,17.7,1,23.1c-3.1,1.9-5.4,2-54.2,2c-47.5,0-51.2-0.1-54.4-1.8c-3.9-2.1-7.1-7.3-7.1-11.5
			c0-5.4,4.3-11.1,9.6-12.7c1.6-0.5,24.9-0.9,51.9-0.9C237.4,718.4,240.6,718.5,244.6,720.3"/>
		
			<linearGradient id="aaa49f67-14b9-48bd-b511-c18a966ef30b_00000016762054957694316070000009678785616753877400_" gradientUnits="userSpaceOnUse" x1="-1222.6067" y1="26.1388" x2="-1223.3967" y2="25.1388" gradientTransform="matrix(270 0 0 14 330402 469.5)">
			<stop  offset="0" style="stop-color:#8E8A91;stop-opacity:0.78"/>
			<stop  offset="1" style="stop-color:#737076;stop-opacity:0.58"/>
		</linearGradient>
		
			<path id="aaa49f67-14b9-48bd-b511-c18a966ef30b" style="fill:url(#aaa49f67-14b9-48bd-b511-c18a966ef30b_00000016762054957694316070000009678785616753877400_);" d="
			M325.9,828.4v7h-270v-14h270V828.4"/>
	</g>
	<g id="fe46de6b-c4f1-4a0d-b838-98d8870e0728">
		
			<linearGradient id="a25cfa03-2e26-4b81-b997-13ad2efae280_00000165198335988358521120000014589164894109203367_" gradientUnits="userSpaceOnUse" x1="-1221.3226" y1="23.308" x2="-1221.5626" y2="24.308" gradientTransform="matrix(202.49 0 0 101.87 247532.7812 -1972.373)">
			<stop  offset="0" style="stop-color:#7AC41E;stop-opacity:0.72"/>
			<stop  offset="1" style="stop-color:#57B700;stop-opacity:0.82"/>
		</linearGradient>
		
			<path id="a25cfa03-2e26-4b81-b997-13ad2efae280" style="fill:url(#a25cfa03-2e26-4b81-b997-13ad2efae280_00000165198335988358521120000014589164894109203367_);" d="
			M209.4,404.9c12.2,2.3,23.9,6.7,34.6,13.1c9.5,5.8,22.6,17.6,28.9,26.3c2.5,3.4,4.9,6.1,5.4,6.1c2.3-0.4,4.6-1,6.8-1.6
			c3.2-0.9,6-1.4,6.3-1.2c0.6,0.6-12.5,56-13.5,57.1c-0.6,0.7-43.7-38.9-43.9-40.4c-0.1-0.3,2.7-1.4,6.1-2.3l6.2-1.7l-5.4-5.5
			c-7.8-7.6-17.1-13.4-27.4-17c-10.4-3.6-26.7-4.4-37.8-2c-29.7,6.6-51.8,32-55.2,63.3l-0.7,6.2H88.9l0.4-2.8c0.2-1.5,0.7-6,1-9.9
			c0.6-8.3,4.3-21.7,8.4-30.8c10.7-23.5,32.4-43.4,58.1-53C171,403.7,192.9,401.9,209.4,404.9"/>
		
			<linearGradient id="e4a40ecc-e51d-4522-836f-14ef9bb394f8_00000139259421962648069950000016928989743535784857_" gradientUnits="userSpaceOnUse" x1="-1202.2281" y1="23.6581" x2="-1203.2281" y2="23.4081" gradientTransform="matrix(49 0 0 720 58992 -16488.5)">
			<stop  offset="0" style="stop-color:#FFFFF7;stop-opacity:0.14"/>
			<stop  offset="1" style="stop-color:#FFFFFB;stop-opacity:0.3"/>
		</linearGradient>
		
			<path id="e4a40ecc-e51d-4522-836f-14ef9bb394f8" style="fill:url(#e4a40ecc-e51d-4522-836f-14ef9bb394f8_00000139259421962648069950000016928989743535784857_);" d="
			M82.9,461.4v360h-18c-20.5,0-23.8-0.9-28.4-7.7l-2.5-3.7V462.1c0-296.8,0.2-348.2,1.4-350.5c2.1-3.9,5.5-6.9,9.6-8.6
			c2.7-1.2,7.6-1.5,20.8-1.6h17.2L82.9,461.4"/>
		
			<linearGradient id="b139ab89-38ca-416d-aef2-f4af949b4b88_00000098187940824580261870000006403602262138090404_" gradientUnits="userSpaceOnUse" x1="-1221.5634" y1="23.287" x2="-1221.4233" y2="24.287" gradientTransform="matrix(202.94 0 0 101.4 248086.6562 -1849.1013)">
			<stop  offset="0" style="stop-color:#6DBF12;stop-opacity:0.74"/>
			<stop  offset="1" style="stop-color:#51B300;stop-opacity:0.85"/>
		</linearGradient>
		
			<path id="b139ab89-38ca-416d-aef2-f4af949b4b88" style="fill:url(#b139ab89-38ca-416d-aef2-f4af949b4b88_00000098187940824580261870000006403602262138090404_);" d="
			M127.4,536.9c11,10.5,20.1,19.3,20.3,19.7s-2.5,1.5-5.9,2.5l-6.2,1.8l6.9,6.5c11.6,10.8,23.5,16.6,39.3,19
			c23.4,3.6,49.2-7,64.9-26.8c8.6-10.8,15.1-27.8,15.1-39.4v-4.8h31.3l-0.7,8.6c-1.7,23.6-11.8,45.9-28.4,62.7
			c-9.6,9.9-17.3,15.4-29.4,21.2c-16,7.6-22.2,8.8-43.7,8.9c-17.3,0-19.1-0.2-27.5-2.7c-22.6-6.9-40.6-19.3-53.7-36.8
			c-2.8-3.8-5.3-6.8-5.7-6.8s-3.5,0.9-7.1,2c-2.2,0.8-4.4,1.3-6.7,1.7c0.3-2.6,0.9-5.2,1.6-7.7c1-4.1,4.2-17.3,7.1-29.2
			c4.7-19.7,5.4-21.7,6.8-20.5C106.7,517.3,116.4,526.5,127.4,536.9"/>
		
			<linearGradient id="b7fb2229-bd89-4397-8e1a-c3cc9d76318f_00000116211711144644327200000007957095672736199357_" gradientUnits="userSpaceOnUse" x1="-1211.7355" y1="24.6667" x2="-1211.7355" y2="23.6667" gradientTransform="matrix(77 0 0 45 93398 -243.5)">
			<stop  offset="0" style="stop-color:#FFFFFF;stop-opacity:0.23"/>
			<stop  offset="1" style="stop-color:#FAFCF9;stop-opacity:0.17"/>
		</linearGradient>
		
			<path id="b7fb2229-bd89-4397-8e1a-c3cc9d76318f" style="fill:url(#b7fb2229-bd89-4397-8e1a-c3cc9d76318f_00000116211711144644327200000007957095672736199357_);" d="
			M132.9,843.9v22.5h-29.3c-28.6,0-29.4-0.1-34.3-2.4c-5.7-2.7-11-8.4-12.5-13.6c-0.5-1.9-1-9.2-1-16.2v-12.8h77L132.9,843.9"/>
	</g>
</g>
<g id="e24a59f7-c3a6-4180-8a4b-d07c70744cef">
	<g id="beb4297f-6c59-4ae5-bdd3-570d9d06d2a2">
		
			<linearGradient id="f6d10bad-6698-4b8c-8d7a-2aaed2250238_00000086664340775902193750000009192858088927619763_" gradientUnits="userSpaceOnUse" x1="-1202.9176" y1="23.396" x2="-1202.6077" y2="24.396" gradientTransform="matrix(66 0 0 76 79936 -1752.5)">
			<stop  offset="0" style="stop-color:#D9D6DA;stop-opacity:0.99"/>
			<stop  offset="1" style="stop-color:#C4C1C6;stop-opacity:0.99"/>
		</linearGradient>
		
			<path id="f6d10bad-6698-4b8c-8d7a-2aaed2250238" style="fill:url(#f6d10bad-6698-4b8c-8d7a-2aaed2250238_00000086664340775902193750000009192858088927619763_);" d="
			M586.6,63.5v38h-66v-25c0-14,0.5-27.2,1.1-30c1.9-9,9.8-17.3,18.8-19.7c3-0.8,12.1-1.3,25.4-1.3l20.8,0V63.5"/>
		
			<linearGradient id="f0a36f3c-9732-4cd2-b292-ea4de269a1b9_00000150790186699831899790000007772164330113618863_" gradientUnits="userSpaceOnUse" x1="-1214.3411" y1="23.3961" x2="-1214.3311" y2="24.3961" gradientTransform="matrix(124 0 0 76.07 151226 -1755.061)">
			<stop  offset="0" style="stop-color:#C3BFC7"/>
			<stop  offset="1" style="stop-color:#B5B0B9"/>
		</linearGradient>
		
			<path id="f0a36f3c-9732-4cd2-b292-ea4de269a1b9" style="fill:url(#f0a36f3c-9732-4cd2-b292-ea4de269a1b9_00000150790186699831899790000007772164330113618863_);" d="
			M694.7,28c6,2.9,10.9,7.8,13.6,13.9c2.3,4.9,2.3,5.8,2.3,32.3v27.3h-124V25.4l51.8,0.3C688.4,26,690.3,26,694.7,28"/>
		
			<linearGradient id="b80cc5e1-0b09-49e9-8cb0-c1df67bab9d5_00000182515198939136031010000001654942947085560764_" gradientUnits="userSpaceOnUse" x1="-1222.317" y1="24.1289" x2="-1222.317" y2="23.1288" gradientTransform="matrix(315 0 0 237.82 385640 -5398.8335)">
			<stop  offset="0" style="stop-color:#FFAE00"/>
			<stop  offset="1" style="stop-color:#FEB005"/>
		</linearGradient>
		
			<path id="b80cc5e1-0b09-49e9-8cb0-c1df67bab9d5" style="fill:url(#b80cc5e1-0b09-49e9-8cb0-c1df67bab9d5_00000182515198939136031010000001654942947085560764_);" d="
			M759.3,104.7c2.6,1.8,4.7,4.2,6.2,7.1l2.1,4.4v223.4h-315V226.9c0-121.4-0.3-115.1,5.2-120.1c5.9-5.6-2.9-5.3,153.4-5l144.1,0.2
			L759.3,104.7"/>
		
			<linearGradient id="eb54b26f-4803-4b4b-a99c-241c57835c50_00000021810254753062889200000009143938142726335624_" gradientUnits="userSpaceOnUse" x1="-1221.8096" y1="24.1846" x2="-1222.8096" y2="22.9346" gradientTransform="matrix(315 0 0 482 385640 -10776.5)">
			<stop  offset="0" style="stop-color:#866A6E"/>
			<stop  offset="1" style="stop-color:#674449;stop-opacity:0.99"/>
		</linearGradient>
		
			<path id="eb54b26f-4803-4b4b-a99c-241c57835c50" style="fill:url(#eb54b26f-4803-4b4b-a99c-241c57835c50_00000021810254753062889200000009143938142726335624_);" d="
			M767.6,573.4c0,162.8-0.3,234.8-1.1,236.8c-1.9,4.3-5.4,7.9-9.7,9.9c-2.7,1.1-27.2,1.4-147.3,1.4c-142.2,0-144.1,0-148-2
			c-2.5-1.4-4.7-3.4-6.5-5.7l-2.5-3.7V339.5h315V573.4"/>
		
			<linearGradient id="f5e90122-8665-4aa0-aaf9-0399405c4d65_00000114059033646689091210000016021767195831401901_" gradientUnits="userSpaceOnUse" x1="-1221.5974" y1="23.6565" x2="-1221.2474" y2="24.6565" gradientTransform="matrix(270 0 0 44.99 330402 -243.2232)">
			<stop  offset="0" style="stop-color:#C0BDC4;stop-opacity:0.99"/>
			<stop  offset="1" style="stop-color:#B9B5BD;stop-opacity:0.99"/>
		</linearGradient>
		
			<path id="f5e90122-8665-4aa0-aaf9-0399405c4d65" style="fill:url(#f5e90122-8665-4aa0-aaf9-0399405c4d65_00000114059033646689091210000016021767195831401901_);" d="
			M744.6,835.6c0,11-0.4,14.9-1.6,17.5c-2.2,4.6-9.3,10.8-14.2,12.2c-2.9,0.9-33.8,1.2-119.8,1.2H493.1l-5.1-2.4
			c-5.7-2.7-11-8.4-12.4-13.6c-0.5-1.9-1-9.2-1-16.2v-12.8h270L744.6,835.6"/>
	</g>
	<g id="f2ddc627-395c-45af-87f1-c37befde7bfd">
		
			<linearGradient id="be3100e3-a725-471c-b400-eb6ed743fa32_00000133489659836190015610000003658544095834550146_" gradientUnits="userSpaceOnUse" x1="-1216.5586" y1="24.3865" x2="-1216.5085" y2="25.3865" gradientTransform="matrix(190 0 0 18 232208 -360.5)">
			<stop  offset="0" style="stop-color:#000000;stop-opacity:0.15"/>
			<stop  offset="1" style="stop-color:#000000;stop-opacity:0.17"/>
		</linearGradient>
		
			<path id="be3100e3-a725-471c-b400-eb6ed743fa32" style="fill:url(#be3100e3-a725-471c-b400-eb6ed743fa32_00000133489659836190015610000003658544095834550146_);stroke:#000000;stroke-miterlimit:10;" d="
			M1161.6,87.5v9h-190v-18h190V87.5"/>
		
			<linearGradient id="f78a76a4-1605-4f34-b3f5-05472853be5d_00000165218593248202750640000013401551850156487053_" gradientUnits="userSpaceOnUse" x1="-1210.3621" y1="23.2009" x2="-1210.3621" y2="24.2012" gradientTransform="matrix(121.58 0 0 122.88 148216.625 -2698.3457)">
			<stop  offset="0" style="stop-color:#F9F6E5;stop-opacity:0.78"/>
			<stop  offset="1" style="stop-color:#F8FFFF;stop-opacity:0.81"/>
		</linearGradient>
		
			<path id="f78a76a4-1605-4f34-b3f5-05472853be5d" style="fill:url(#f78a76a4-1605-4f34-b3f5-05472853be5d_00000165218593248202750640000013401551850156487053_);stroke:#000000;stroke-miterlimit:10;" d="
			M1066.3,156.1c6.7,3.2,7.3,5.4,7.3,27.1v19.3h18.5c20.8,0,24.1,0.7,27.5,6.2c3.3,5.4,2.3,12.3-2.4,16.5l-3.6,3.3h-40v19.9
			c0,19.9,0,19.9-2.6,23c-2.8,3.3-7.7,6.1-10.6,6.1c-3.3,0-9.9-5-11.4-8.5c-1.1-2.5-1.4-8.2-1.4-21.9v-18.5h-19.2
			c-17.3,0-19.6-0.2-22.4-2c-5.8-3.6-7.5-9.9-4.3-16.5c3.3-6.8,6.3-7.6,28.1-7.6h18V184c0-21,0.7-23.8,6.9-27.4
			C1058.9,154.1,1061.8,153.9,1066.3,156.1"/>
		
			<linearGradient id="bb23a05e-f612-4649-98cf-a56e5314fd20_00000044873509737714522600000009146141464605267613_" gradientUnits="userSpaceOnUse" x1="-1219.7708" y1="24.088" x2="-1219.7708" y2="23.088" gradientTransform="matrix(269.58 0 0 269.4 329886.625 -5850.001)">
			<stop  offset="0" style="stop-color:#FFFFE0;stop-opacity:0.85"/>
			<stop  offset="1" style="stop-color:#FFFDD2;stop-opacity:0.8"/>
		</linearGradient>
		
			<path id="bb23a05e-f612-4649-98cf-a56e5314fd20" style="fill:url(#bb23a05e-f612-4649-98cf-a56e5314fd20_00000044873509737714522600000009146141464605267613_);stroke:#000000;stroke-miterlimit:10;" d="
			M1087.5,373.4c73,14.7,120.2,85.9,105.5,158.8c-8.1,40-33.9,74.2-70.1,93c-21.8,11.2-43.1,15.9-67.7,14.8
			c-36.7-1.6-66.4-15.1-92.3-42.2c-18.7-19.5-29-38.9-34.9-65.7c-2.6-11.8-2.6-41.8,0-53.8c4.5-20.5,15-42.8,26.4-56.3
			c25.1-29.5,55-46.2,90.8-50.7C1055.5,370.2,1076.1,371.1,1087.5,373.4"/>
		
			<linearGradient id="ab5fec03-1b75-438a-a113-def7e85b6037_00000034776177505577919130000014825301614246669202_" gradientUnits="userSpaceOnUse" x1="-1210.4045" y1="24.9309" x2="-1210.4546" y2="23.9309" gradientTransform="matrix(122.06 0 0 26.9 148805.6719 69.7011)">
			<stop  offset="0" style="stop-color:#FFFFDB;stop-opacity:0.85"/>
			<stop  offset="1" style="stop-color:#FFFFD4;stop-opacity:0.82"/>
		</linearGradient>
		
			<path id="ab5fec03-1b75-438a-a113-def7e85b6037" style="fill:url(#ab5fec03-1b75-438a-a113-def7e85b6037_00000034776177505577919130000014825301614246669202_);stroke:#000000;stroke-miterlimit:10;" d="
			M1114.3,715.4c9.3,4.2,9.9,17.7,1,23.1c-3.1,1.9-5.4,2-54.2,2c-47.5,0-51.2-0.1-54.4-1.8c-3.9-2.1-7.1-7.3-7.1-11.5
			c0-5.4,4.3-11.1,9.6-12.7c1.6-0.5,24.9-0.9,51.9-0.9C1107.2,713.5,1110.4,713.6,1114.3,715.4"/>
		
			<linearGradient id="eee265a4-d193-4b78-a589-65190ac5b6dc_00000041985844749404114800000003113519391730318517_" gradientUnits="userSpaceOnUse" x1="-1219.3907" y1="25.7821" x2="-1220.1807" y2="24.7821" gradientTransform="matrix(270 0 0 14 330402 469.5)">
			<stop  offset="0" style="stop-color:#8E8A91;stop-opacity:0.78"/>
			<stop  offset="1" style="stop-color:#737076;stop-opacity:0.58"/>
		</linearGradient>
		
			<path id="eee265a4-d193-4b78-a589-65190ac5b6dc" style="fill:url(#eee265a4-d193-4b78-a589-65190ac5b6dc_00000041985844749404114800000003113519391730318517_);stroke:#000000;stroke-miterlimit:10;" d="
			M1195.6,823.5v7h-270v-14h270V823.5"/>
	</g>
	<g id="e8f89492-c0fd-44e5-b487-b403b65e4923">
		
			<linearGradient id="a30215a5-0c36-438f-996b-a6a2bb563904_00000145741212727492803210000016014361914642027941_" gradientUnits="userSpaceOnUse" x1="-1215.1335" y1="23.2577" x2="-1215.3636" y2="24.2577" gradientTransform="matrix(202.49 0 0 101.87 247532.7812 -1972.373)">
			<stop  offset="0" style="stop-color:#7AC41E;stop-opacity:0.72"/>
			<stop  offset="1" style="stop-color:#57B700;stop-opacity:0.82"/>
		</linearGradient>
		
			<path id="a30215a5-0c36-438f-996b-a6a2bb563904" style="fill:url(#a30215a5-0c36-438f-996b-a6a2bb563904_00000145741212727492803210000016014361914642027941_);" d="
			M1464.1,400c12.2,2.3,23.9,6.7,34.6,13.1c9.6,5.8,22.6,17.6,28.9,26.3c2.5,3.4,4.9,6.1,5.4,6.1c2.3-0.4,4.6-1,6.8-1.6
			c3.2-0.9,6.1-1.4,6.3-1.2c0.6,0.6-12.5,56-13.5,57.1c-0.6,0.7-43.7-38.9-43.9-40.4c0-0.3,2.7-1.4,6.1-2.3l6.2-1.7l-5.4-5.5
			c-7.8-7.6-17.1-13.4-27.4-17c-10.4-3.6-26.7-4.4-37.8-2c-29.7,6.6-51.8,32-55.2,63.3l-0.7,6.2h-30.7l0.4-2.8c0.2-1.5,0.7-6,1-9.9
			c0.6-8.2,4.3-21.7,8.4-30.8c10.7-23.5,32.4-43.4,58.1-53C1425.7,398.7,1447.6,397,1464.1,400"/>
		
			<linearGradient id="a98b2934-9b7d-4ea0-9493-987b92323e0e_00000083068399859867214570000011269490279570240409_" gradientUnits="userSpaceOnUse" x1="-1176.6178" y1="23.647" x2="-1177.6178" y2="23.407" gradientTransform="matrix(49 0 0 720 58992 -16488.5)">
			<stop  offset="0" style="stop-color:#FFFFF7;stop-opacity:0.14"/>
			<stop  offset="1" style="stop-color:#FFFFFB;stop-opacity:0.3"/>
		</linearGradient>
		
			<path id="a98b2934-9b7d-4ea0-9493-987b92323e0e" style="fill:url(#a98b2934-9b7d-4ea0-9493-987b92323e0e_00000083068399859867214570000011269490279570240409_);stroke:#000000;stroke-miterlimit:10;" d="
			M1337.6,456.5v360h-18c-20.6,0-23.8-0.9-28.4-7.7l-2.5-3.7V457.2c0-296.8,0.2-348.2,1.4-350.5c2.1-3.9,5.5-6.9,9.6-8.6
			c2.7-1.2,7.6-1.5,20.8-1.6h17.2L1337.6,456.5"/>
		
			<linearGradient id="ef765f38-c251-47af-9dd3-71f28f33c2fc_00000042015656814462126900000016255557824585338294_" gradientUnits="userSpaceOnUse" x1="-1215.379" y1="23.2478" x2="-1215.239" y2="24.2478" gradientTransform="matrix(202.94 0 0 101.4 248086.6562 -1849.1013)">
			<stop  offset="0" style="stop-color:#6DBF12;stop-opacity:0.74"/>
			<stop  offset="1" style="stop-color:#51B300;stop-opacity:0.85"/>
		</linearGradient>
		
			<path id="ef765f38-c251-47af-9dd3-71f28f33c2fc" style="fill:url(#ef765f38-c251-47af-9dd3-71f28f33c2fc_00000042015656814462126900000016255557824585338294_);" d="
			M1382.1,532c11,10.5,20.1,19.3,20.3,19.7s-2.5,1.5-5.9,2.5l-6.2,1.8l6.9,6.5c11.6,10.8,23.5,16.6,39.3,19c23.4,3.6,49.2-7,65-26.8
			c8.6-10.8,15.1-27.8,15.1-39.4v-4.8h31.3l-0.7,8.6c-1.7,23.6-11.8,45.9-28.5,62.7c-9.6,9.9-17.3,15.4-29.4,21.2
			c-16,7.6-22.2,8.9-43.7,8.9c-17.3,0-19.1-0.2-27.5-2.7c-22.6-6.9-40.6-19.3-53.7-36.8c-2.8-3.8-5.4-6.8-5.7-6.8s-3.5,0.9-7.1,2
			c-2.2,0.8-4.4,1.3-6.7,1.7c0.3-2.6,0.9-5.2,1.6-7.7c1-4.1,4.2-17.3,7.1-29.2c4.7-19.7,5.4-21.6,6.8-20.5
			C1361.5,512.5,1371.2,521.6,1382.1,532"/>
		
			<linearGradient id="a4d3133f-71d2-43e8-9ce8-49b55ae0dcbd_00000178886786526992358310000001219779659361399451_" gradientUnits="userSpaceOnUse" x1="-1195.4398" y1="24.5567" x2="-1195.4398" y2="23.5567" gradientTransform="matrix(77 0 0 45 93398 -243.5)">
			<stop  offset="0" style="stop-color:#FFFFFF;stop-opacity:0.23"/>
			<stop  offset="1" style="stop-color:#FAFCF9;stop-opacity:0.17"/>
		</linearGradient>
		
			<path id="a4d3133f-71d2-43e8-9ce8-49b55ae0dcbd" style="fill:url(#a4d3133f-71d2-43e8-9ce8-49b55ae0dcbd_00000178886786526992358310000001219779659361399451_);stroke:#000000;stroke-miterlimit:10;" d="
			M1387.6,839v22.5h-29.2c-28.6,0-29.4-0.1-34.3-2.4c-5.7-2.7-11-8.4-12.4-13.6c-0.5-1.9-1-9.2-1-16.2v-12.8h77L1387.6,839"/>
	</g>
	<line class="st31" x1="412.5" y1="0" x2="414.5" y2="881"/>
	<line class="st31" x1="820" y1="0.5" x2="820" y2="881.5"/>
	<line class="st31" x1="1228" y1="0.5" x2="1230" y2="881.5"/>
</g>
</svg>
