<?xml version="1.0" encoding="utf-8"?>
<!-- Generator: Adobe Illustrator 26.5.0, SVG Export Plug-In . SVG Version: 6.00 Build 0)  -->
<svg version="1.1" id="图层_1" xmlns="http://www.w3.org/2000/svg" xmlns:xlink="http://www.w3.org/1999/xlink" x="0px" y="0px"
	 viewBox="0 0 1400 766" style="enable-background:new 0 0 1400 766;" xml:space="preserve">
<style type="text/css">
	.st0{fill:none;}
	.st1{fill:#D3D3D3;}
	.st2{fill:url(#SVGID_1_);}
	.st3{fill:url(#SVGID_00000079482836720758779250000004018395481352317355_);}
	.st4{fill:url(#SVGID_00000170251606891317242390000008630871834088278435_);}
	.st5{fill:url(#SVGID_00000006666441952470284590000004866929799223698819_);}
	.st6{fill:url(#SVGID_00000077324127210947767760000004346220705856051632_);}
	.st7{fill:url(#SVGID_00000082351007234309353830000003465320650600650398_);}
	.st8{fill:url(#SVGID_00000005976192521029916370000015522689048630007973_);}
	.st9{fill:url(#SVGID_00000105404023177073136320000001856530210869074819_);}
	.st10{fill:url(#SVGID_00000140011005212247283640000002045958016261142705_);}
	.st11{fill:url(#SVGID_00000025402205081451245300000014010939934557336224_);}
	.st12{fill:url(#SVGID_00000024721153481323865590000009052955554337582264_);}
	.st13{fill:url(#SVGID_00000085957853809060626540000004942776076547282072_);}
	.st14{fill:url(#SVGID_00000139272891599386671770000003127334956297061023_);}
	.st15{fill:url(#SVGID_00000092456376079404208560000017645682345577078160_);}
	.st16{fill:url(#SVGID_00000025436351586739266750000004669261738676895676_);}
	.st17{fill:url(#SVGID_00000109746385922915208250000008868900840672523934_);}
	.st18{fill:url(#SVGID_00000110441109991963417560000014775358830351862710_);}
	.st19{fill:url(#SVGID_00000091698793362594821070000002268876032876518048_);}
	.st20{fill:url(#SVGID_00000106867613169855380440000009013341545885456012_);}
	.st21{fill:url(#SVGID_00000128449905382696452680000005205630389663589252_);}
	.st22{fill:url(#SVGID_00000132794584673306993430000007344534103308556949_);}
	.st23{fill:url(#SVGID_00000055667362417155835410000004068003398507985333_);}
	.st24{fill:url(#SVGID_00000047765159644541642090000005517866894913519536_);}
	.st25{fill:url(#SVGID_00000080918050828257170030000013150065264931604897_);}
	.st26{fill:url(#SVGID_00000148644187327913266780000010534806086661743788_);}
	.st27{fill:url(#SVGID_00000006670586078865889610000011750938695215161236_);}
	.st28{fill:url(#SVGID_00000153676525403577420750000005079465514653942408_);}
	.st29{fill:url(#SVGID_00000133521212015492243580000006264581937047138180_);}
	.st30{fill:url(#SVGID_00000100369529989703241700000016372644867572913848_);}
	.st31{fill:url(#SVGID_00000097493878814145609210000008774727274803671480_);stroke:#000000;stroke-miterlimit:10;}
	.st32{fill:none;stroke:#000000;stroke-width:3;stroke-miterlimit:10;}
	.st33{fill:none;stroke:#FF0200;stroke-width:4;stroke-miterlimit:10;}
	.st34{fill:url(#SVGID_00000034774288818685166690000002059223214895216272_);}
	.st35{fill:url(#SVGID_00000168113040947131370240000004822527070600520353_);}
</style>
<pattern  y="766" width="40" height="40" patternUnits="userSpaceOnUse" id="SVGID_0000007945306559348641022" viewBox="0 -40 40 40" style="overflow:visible;">
	<g>
		<rect y="-40" class="st0" width="40" height="40"/>
		<g>
			<rect y="-40" class="st0" width="40" height="40"/>
			<g>
				<rect y="-40" class="st0" width="40" height="40"/>
				<g>
					<rect y="-40" class="st0" width="40" height="40"/>
					<g>
						<rect y="-40" class="st0" width="40" height="40"/>
						<rect y="-40" class="st0" width="40" height="40"/>
						<rect y="-40" class="st1" width="20" height="20"/>
						<rect x="20" y="-20" class="st1" width="20" height="20"/>
					</g>
				</g>
			</g>
		</g>
	</g>
</pattern>
<g id="_图层_1">
	<pattern  id="SVGID_1_" xlink:href="#SVGID_0000007945306559348641022" patternTransform="matrix(1 0 0 1 369.3 33764.2422)">
	</pattern>
	<rect class="st2" width="1400" height="766"/>
</g>
<linearGradient id="SVGID_00000066508432537615484880000009488198085788595900_" gradientUnits="userSpaceOnUse" x1="-1224.4933" y1="-0.3146" x2="-1223.4933" y2="-0.3146" gradientTransform="matrix(718 0 0 -766 879508.0625 142)">
	<stop  offset="0" style="stop-color:#FEDBBD"/>
	<stop  offset="1" style="stop-color:#FEDBBD"/>
</linearGradient>
<path style="fill:url(#SVGID_00000066508432537615484880000009488198085788595900_);" d="M318.8,383v383h718V0h-718L318.8,383
	L318.8,383z"/>
<linearGradient id="SVGID_00000065050376424669451510000010508979504199826593_" gradientUnits="userSpaceOnUse" x1="-1223.2751" y1="-1.896" x2="-1222.2751" y2="-1.896" gradientTransform="matrix(457.85 0 0 -260.77 560523.25 -322.7958)">
	<stop  offset="0" style="stop-color:#C57952"/>
	<stop  offset="1" style="stop-color:#C57952"/>
</linearGradient>
<path style="fill:url(#SVGID_00000065050376424669451510000010508979504199826593_);" d="M518.3,42c-27.1,5.8-62.9,40.4-71,68.4
	c-1.3,4.3-1.6,8.4-1.3,15c0.5,12.1,4.3,20.1,14.3,30.2c11.8,11.9,24.8,18.2,42.2,20.5l9.1,1.1l-2.3,5.2
	c-6.6,14.9-12.3,38.7-13.2,55.3l-0.6,10.2l4.9-1.6c3.2-1,10.3-1.7,20-2c20.6-0.7,34.3,1.6,63.8,10.8c7,2.2,12.9,3.9,13,3.7
	c0.2-0.2,1.7-2.3,3.4-4.8c3.8-5.6,14.2-15.7,20.5-20c13.9-9.3,29.5-14,48.7-14.7c15.7-0.6,24.7,0.5,37.5,4.8
	c24.9,8.3,43.6,26.4,50.1,48.4c1.8,6.3,2.5,21.7,1.1,26.7l-0.7,2.8h5.8c18.9,0,42-5.8,61.2-15.5c7.3-3.7,23.1-14,26.9-17.6l2.4-2.2
	l-0.6-18.6c-0.7-24.7-4.2-42.7-12.1-62.2l-3.4-8.4l5.7-0.8c16.2-2.2,27.8-6.8,38.8-15.1c17.3-13.1,24.6-31.5,19.8-50.1
	c-3.6-13.5-10.6-24.6-25.5-39.8c-21.6-22.3-40.2-31.9-58.5-30.3c-22.5,2-44.9,26.4-49.1,53.1l-0.6,4.1L755.5,92
	c-15.3-7.7-30.5-12.9-46.7-16.2c-10-2-14.4-2.3-34-2.3c-16.9,0-24.7,0.4-31.5,1.7c-18.8,3.6-40,11-54.5,19.2l-7.8,4.4l-1.7-7.7
	c-4.5-20.8-20.2-40.7-37.2-47.1C535.7,41.6,524.5,40.6,518.3,42L518.3,42z"/>
<linearGradient id="SVGID_00000047767178882975226910000008746749919305886138_" gradientUnits="userSpaceOnUse" x1="-1133.5477" y1="-38.6573" x2="-1132.5477" y2="-38.6573" gradientTransform="matrix(16.6 0 0 -15.86 19569.8301 -409.08)">
	<stop  offset="0" style="stop-color:#F0A56E"/>
	<stop  offset="1" style="stop-color:#F0A56E"/>
</linearGradient>
<path style="fill:url(#SVGID_00000047767178882975226910000008746749919305886138_);" d="M755.1,196.7c-1.8,0.7-1.6,7.4,0.3,10.1
	c3.5,5,12.4,7,14.4,3.1c2.8-5.1-3.9-14-10.3-13.8C757.7,196.1,755.7,196.4,755.1,196.7L755.1,196.7z"/>
<linearGradient id="SVGID_00000168101221192473621480000016583800547677654445_" gradientUnits="userSpaceOnUse" x1="-1136.7006" y1="-38.5614" x2="-1135.7003" y2="-38.5614" gradientTransform="matrix(17.18 0 0 -15.96 20125.6973 -411.46)">
	<stop  offset="0" style="stop-color:#78553F"/>
	<stop  offset="1" style="stop-color:#78553F"/>
</linearGradient>
<path style="fill:url(#SVGID_00000168101221192473621480000016583800547677654445_);" d="M596,197.2c-2.9,2.9-0.2,10.2,4.8,13.2
	c3.3,1.9,8.1,2.1,9.8,0.4c4.4-4.4-2.4-14.8-9.6-14.8C598.9,196,596.7,196.5,596,197.2L596,197.2z"/>
<linearGradient id="SVGID_00000030474550469811467990000011796188405123418271_" gradientUnits="userSpaceOnUse" x1="-1208.5623" y1="-6.8082" x2="-1207.5621" y2="-6.8082" gradientTransform="matrix(85.42 0 0 -85.03 104028.5625 -468.5311)">
	<stop  offset="0" style="stop-color:#ED9C6F"/>
	<stop  offset="1" style="stop-color:#ED9C6F"/>
</linearGradient>
<path style="fill:url(#SVGID_00000030474550469811467990000011796188405123418271_);" d="M814.1,70.5c-13.8,6.4-23.4,24.4-22,41.5
	c1,13.3,6.9,24.1,17.6,32.2c8.6,6.6,17.3,9.2,28.9,8.6c13.9-0.8,25.1-6.5,32.9-16.6c9.7-12.8,7.4-28.2-6.8-45.1
	c-7.2-8.5-16.7-16.1-25-20.1C831.2,67,821.9,66.8,814.1,70.5L814.1,70.5z"/>
<linearGradient id="SVGID_00000048461550032962448230000003886832736541599395_" gradientUnits="userSpaceOnUse" x1="-1208.5942" y1="-6.8846" x2="-1207.5942" y2="-6.8846" gradientTransform="matrix(85.59 0 0 -84.5 103913.6328 -471.5)">
	<stop  offset="0" style="stop-color:#ED9C70"/>
	<stop  offset="1" style="stop-color:#ED9C70"/>
</linearGradient>
<path style="fill:url(#SVGID_00000048461550032962448230000003886832736541599395_);" d="M511.6,69.9c-12,4.7-29.2,21.1-35.4,33.7
	c-4.5,9-5.4,16.8-2.9,24.3c2.5,7.7,10.8,16.1,20.3,20.8c7.5,3.7,7.8,3.8,19.2,3.8c11.4,0,11.7-0.1,19.3-3.8
	c27.2-13.5,33.9-47.9,13.6-70.1C538.8,71,532.4,68,523.4,68C519,68.1,514.5,68.8,511.6,69.9L511.6,69.9z"/>
<linearGradient id="SVGID_00000088116652325615143270000002323274470259502497_" gradientUnits="userSpaceOnUse" x1="-1217.1875" y1="-4.8739" x2="-1216.8575" y2="-3.8739" gradientTransform="matrix(169.73 0 0 -127.76 207244.2031 -281.3674)">
	<stop  offset="0" style="stop-color:#EC9C70"/>
	<stop  offset="1" style="stop-color:#EC9D70"/>
</linearGradient>
<path style="fill:url(#SVGID_00000088116652325615143270000002323274470259502497_);" d="M658.8,219.7c-13.4,2.2-28.2,8-38.6,15
	c-8.1,5.5-19.2,17.5-23.2,25c-11.8,22.2-8.9,47.7,7.3,63.8c17.4,17.4,51.2,26.3,85.6,22.6c39.7-4.3,64.7-22.4,69-50
	c2.8-18.8-3.7-36.8-19.1-52.1c-12.6-12.6-29.3-20.9-48-23.9C685.6,219.1,664,218.8,658.8,219.7L658.8,219.7z"/>
<linearGradient id="SVGID_00000069360288186718653460000002629492931888312759_" gradientUnits="userSpaceOnUse" x1="-1202.7747" y1="-4.4354" x2="-1201.7747" y2="-4.4354" gradientTransform="matrix(64.73 0 0 -125.51 78707.5 -52.9299)">
	<stop  offset="0" style="stop-color:#FCD8B8"/>
	<stop  offset="1" style="stop-color:#FCD8B8"/>
</linearGradient>
<path style="fill:url(#SVGID_00000069360288186718653460000002629492931888312759_);" d="M853,449.7c1,4.9,3,13.5,4.3,19.3
	c3.1,13.7,5.5,26.5,5.5,29.9c0,2,0.7,3.1,2.4,3.9c1.3,0.6,5.4,3.9,9.1,7.4c6.1,5.7,7.4,7.7,14.2,21.6c5.9,12,7.9,17.4,9.5,25
	c1,5.3,2,9.7,2.1,9.7c0.1,0.1,3.8-1.3,8.1-3.1l7.9-3.2l-4.9-2.5c-11.5-5.8-20.2-21.1-32-55.9c-8.7-25.5-14.2-38.6-21.9-51.5
	c-3.1-5.1-5.7-9.3-5.9-9.3S852,444.9,853,449.7L853,449.7z"/>
<linearGradient id="SVGID_00000141456759660478356480000008214866878756248453_" gradientUnits="userSpaceOnUse" x1="-1220.1351" y1="-7.3936" x2="-1220.1653" y2="-8.1336" gradientTransform="matrix(256.82 0 0 -78.34 314002.3438 -180.6871)">
	<stop  offset="0" style="stop-color:#DC3F68"/>
	<stop  offset="1" style="stop-color:#CF456C"/>
</linearGradient>
<path style="fill:url(#SVGID_00000141456759660478356480000008214866878756248453_);" d="M519.9,368.1c-0.6,1.8-1.1,6.4-1.1,10.3
	c0,13.1,5.3,20.6,20.7,29.5c22.7,12.9,53.8,24.4,81.7,30.1c32.2,6.6,69.6,7.1,101.6,1.4c18.9-3.4,51.7-13.4,52.7-16.2
	c0.9-2.2-3.4-14.5-6.6-19l-3-4l-12.8,4.3c-13.4,4.5-29.9,8.5-44.3,10.7c-13.4,2-54.7,1.7-69-0.5c-25.6-4.1-54-12.9-77.5-24.2
	c-14-6.8-32-17.6-36.5-22c-2-1.9-3.9-3.5-4.2-3.5S520.5,366.4,519.9,368.1L519.9,368.1z"/>
<linearGradient id="SVGID_00000152950326501795630300000007082482236835614884_" gradientUnits="userSpaceOnUse" x1="-1224.2473" y1="-1.1677" x2="-1223.2473" y2="-1.1677" gradientTransform="matrix(642.37 0 0 -374.97 786773.125 112.4374)">
	<stop  offset="0" style="stop-color:#B06C49"/>
	<stop  offset="1" style="stop-color:#B06C49"/>
</linearGradient>
<path style="fill:url(#SVGID_00000152950326501795630300000007082482236835614884_);" d="M828.9,368.2c2.4,6.9,2.4,12.5-0.1,19.9
	c-1.1,3.3-1.8,6.5-1.4,7.1c0.4,0.6,2.8,3.8,5.3,7.2c5.9,7.8,10.3,16.2,15,28.4c2,5.3,6.2,14,9.4,19.3c7.9,13.1,13.4,26,22.1,51.7
	c11.8,34.8,20.5,50.1,32,55.9l4.9,2.5l-7.9,3.2c-4.3,1.8-8,3.2-8.1,3.1c-0.1,0-1.1-4.4-2.1-9.7c-1.6-7.6-3.6-13-9.5-25
	c-6.8-13.9-8.1-15.9-14.2-21.6c-3.7-3.5-7.8-6.8-9.1-7.4c-1.8-0.8-2.4-1.9-2.4-4.2c0-2.8-5.7-32.6-6.3-33.3
	c-0.2-0.1-0.1,6.4,0.1,14.6c0.5,16.5,0,18.6-7.2,29.4c-11,16.5-30,27.7-50.1,29.4l-7.2,0.6l-1.2,8c-2.2,14-6.7,26.2-11.7,31.6
	c-1.3,1.4-4.2,4.8-6.3,7.5c-15.2,18.9-41.2,29-82,31.7c-29.2,2-58.4-0.8-79.1-7.7c-33.3-11.1-49.8-32-54.1-68.7
	c-3.1-26.5,2.5-57.6,14.7-81.9c4.6-9.2,15.1-25.5,18-27.9c1.2-1-1-2.1-12.3-6.4c-17-6.5-27-11-38.6-17.6
	c-10.7-6.2-15.1-10.4-18.4-17.6c-1.3-2.9-2.8-5.3-3.2-5.3c-1.7,0-14.9,10-20.4,15.4c-13.3,13.2-18.2,22-32.2,58.6
	c-11.1,28.9-18.4,45-24.9,54.8c-8.6,12.9-19.9,21.3-30.7,22.8c-5.3,0.7-15.1-1.5-22.4-5.1c-2.7-1.3-5.1-2.2-5.4-1.9
	c-0.3,0.2,0.9,3.4,2.7,7c3.5,7,9.4,14,15.6,18.6c3.6,2.5,3.7,2.8,1.5,2.8c-4,0-18.2,5.4-23,8.7c-2.4,1.7-6.2,4.9-8.4,7.2
	c-2.2,2.2-4.5,4.1-5.1,4.1c-1.7,0-8,12.5-10,20c-1.6,5.4-1.8,10-1.8,28c0.1,11.8,0.7,24.4,1.4,28c1.5,8.1,6,22.1,7,21.5
	c0.4-0.2,1.8,1.9,3.1,4.8c6,12.9,17.8,27.6,29.1,36.4c3.3,2.5,6.9,5.5,8.1,6.7c2.5,2.4,15.8,8.3,20.9,9.2c1.8,0.3,6.9,1.4,11.3,2.4
	c17,4,34.2,3.5,57.5-1.6c31.1-6.9,74.1-25.3,113.6-48.7l14.1-8.4l6.9,1c9.7,1.5,84.9,1.5,94.8,0l8-1.2l13.5,8.1
	c29.6,17.7,62.2,32.9,90.6,42.3c19.3,6.5,31.8,9.2,49,10.7c13.4,1.1,15.7,0.9,39-3.2c8.7-1.6,21.2-7,29.7-12.9
	c7.2-4.9,14-11.1,12.3-11.1c-0.4,0,1.4-2.4,4.2-5.3c6.7-7.1,12.8-16.3,17.6-26.6c2.2-4.7,4.4-8.8,4.8-9.2c0.5-0.3,1.8-4.1,3-8.5
	c3-10.8,3.9-47.9,1.5-59.2c-4.7-22.2-20.1-38-41.3-42.3l-6.1-1.3l4.5-3c21.7-14.3,28.7-55.5,15.7-91.8
	c-11.7-32.6-38.7-61.3-74.6-79.4c-16.2-8.2-44.9-17.6-60.9-19.9l-4.7-0.7L828.9,368.2L828.9,368.2z"/>
<linearGradient id="SVGID_00000145746998726341925310000015142327075611562664_" gradientUnits="userSpaceOnUse" x1="-1209.52" y1="-5.6348" x2="-1208.52" y2="-5.6348" gradientTransform="matrix(90.21 0 0 -102.3 109484.8828 81.8122)">
	<stop  offset="0" style="stop-color:#ED9D6F"/>
	<stop  offset="1" style="stop-color:#ED9D6F"/>
</linearGradient>
<path style="fill:url(#SVGID_00000145746998726341925310000015142327075611562664_);" d="M397.3,608.4c-23,7.2-31,38.7-16.9,67.2
	c9.9,20.1,28.8,33.5,47.4,33.8c11,0.1,17-2.3,24.6-9.8c7.6-7.6,10.4-14.3,11.1-26.7c2.1-33.3-25.1-66-54.7-65.8
	C404.7,607.1,399.5,607.7,397.3,608.4L397.3,608.4z"/>
<linearGradient id="SVGID_00000159464779275972690440000004500349331610912902_" gradientUnits="userSpaceOnUse" x1="-1202.9666" y1="-4.3102" x2="-1202.4866" y2="-4.3802" gradientTransform="matrix(65.45 0 0 -127.82 79172.2188 -58.8593)">
	<stop  offset="0" style="stop-color:#D1C5B8"/>
	<stop  offset="1" style="stop-color:#F3EEE3"/>
</linearGradient>
<path style="fill:url(#SVGID_00000159464779275972690440000004500349331610912902_);" d="M496.4,445.7
	c-8.8,13.7-16.7,31.7-25.1,57.3c-5.1,15.4-21.1,46.5-26.5,51.4c-2.2,2-5.1,3.8-6.5,4.2c-1.4,0.3-2.5,0.9-2.5,1.3
	c0,0.3,3.3,1.9,7.3,3.6c3.9,1.6,7.5,3.1,7.9,3.3c0.5,0.2,0.8-1,0.8-2.6c0-6.5,5.1-23,10.4-33.7c5.4-11,13.4-20.9,20.9-26.1
	c2.5-1.7,2.9-2.9,4.3-12.4c1.9-12.6,7.1-33.4,11.2-44.8c1.7-4.5,2.9-8.2,2.6-8.2C501,439,498.8,442,496.4,445.7L496.4,445.7z"/>
<linearGradient id="SVGID_00000008863497011793930750000005941450301797165476_" gradientUnits="userSpaceOnUse" x1="-1209.5532" y1="-5.5773" x2="-1208.5532" y2="-5.5773" gradientTransform="matrix(90.41 0 0 -102.63 110239.6484 85.9846)">
	<stop  offset="0" style="stop-color:#ED9D6F"/>
	<stop  offset="1" style="stop-color:#ED9D6F"/>
</linearGradient>
<path style="fill:url(#SVGID_00000008863497011793930750000005941450301797165476_);" d="M928.3,608.4c-17,5.4-32,20.4-39,38.9
	c-5.3,14.3-5.4,30.7-0.1,42.3c6.7,14.6,22.1,22.4,38.1,19.5c29.7-5.4,53.3-41.2,47.5-72.2c-2.4-13-10.8-23.8-21.6-27.9
	C946.9,606.7,934.7,606.4,928.3,608.4z"/>
<linearGradient id="SVGID_00000075123816428797137950000009991775090254487447_" gradientUnits="userSpaceOnUse" x1="-1215.2657" y1="-3.1885" x2="-1215.6758" y2="-2.8483" gradientTransform="matrix(144.21 0 0 -173.42 175725.6719 -85.7342)">
	<stop  offset="0" style="stop-color:#C4764F"/>
	<stop  offset="1" style="stop-color:#C77D56"/>
</linearGradient>
<path style="fill:url(#SVGID_00000075123816428797137950000009991775090254487447_);" d="M509.3,365.5
	c-58.4,13.6-100.7,43.9-120.9,86.6c-10.9,22.9-14.1,47.7-9.1,69.8l1.6,6.6l5.7,2.7c8.2,3.9,17.7,6.1,23.1,5.4
	c10.8-1.5,22.1-9.9,30.7-22.8c6.5-9.8,13.8-25.9,24.9-54.8c5.4-14,11.5-28.9,13.5-33c7.4-14.7,19.7-28.6,32.9-37l7-4.5v-6.6
	c0.1-3.7,0.8-8.5,1.6-10.8C522,362.3,522.7,362.4,509.3,365.5L509.3,365.5z"/>
<linearGradient id="SVGID_00000120519544027348594710000003740975161853054356_" gradientUnits="userSpaceOnUse" x1="-1220.0798" y1="-2.7212" x2="-1219.0798" y2="-2.7212" gradientTransform="matrix(235.16 0 0 -194.63 287472.6562 -8.2192)">
	<stop  offset="0" style="stop-color:#DA885E"/>
	<stop  offset="1" style="stop-color:#DA885E"/>
</linearGradient>
<path style="fill:url(#SVGID_00000120519544027348594710000003740975161853054356_);" d="M768.9,426.6c-18,7-42.9,12.9-64.1,15.4
	c-14.7,1.7-45.8,1.5-61.1-0.4c-14.9-1.9-28.9-4.6-41.6-8.2c-5.1-1.5-9.9-2.4-10.7-2.1c-2.4,0.9-12.2,15.4-18.1,26.8
	c-13,25.2-18.8,56.3-15.6,83.6c4.3,36.7,20.8,57.6,54.1,68.7c20.7,6.9,49.9,9.7,79.1,7.7c40.8-2.7,66.8-12.8,82-31.7
	c2.1-2.7,5-6.1,6.4-7.6c5-5.4,10.3-20.4,12-34.1l0.7-5.7h-7.8c-9.1,0-25.4-2.7-25.4-4.3c0-0.5,1.4-5.3,3.1-10.6
	c7.9-24.5,14-53.5,15.5-73.3c0.7-9.7-0.2-26.9-1.4-26.7C775.6,424.1,772.4,425.3,768.9,426.6L768.9,426.6z"/>
<linearGradient id="SVGID_00000170264042758547188530000004936961615368941724_" gradientUnits="userSpaceOnUse" x1="-1222.371" y1="-1.6195" x2="-1221.371" y2="-1.6195" gradientTransform="matrix(360.97 0 0 -294.9 441733.4375 -86.0306)">
	<stop  offset="0" style="stop-color:#E33E37"/>
	<stop  offset="1" style="stop-color:#E33E37"/>
</linearGradient>
<path style="fill:url(#SVGID_00000170264042758547188530000004936961615368941724_);" d="M504.1,245.5c-3.5,0.8-6.7,1.7-7.3,2
	c-1.5,0.9-1.2,18.6,0.5,30c2.2,14.3,5.8,26.4,12,39.2c5.9,12.5,9.1,17.5,17.6,27.9l5.8,7.1l-3,2.2c-1.6,1.2-4.3,4-5.9,6.2l-2.9,4
	l4.4,4c5.6,5.1,22.8,15.5,37,22.4c23.5,11.3,51.9,20.1,77.5,24.2c14.3,2.2,55.6,2.5,69,0.5c14.4-2.2,30.9-6.2,44.3-10.7l12.8-4.3
	l2.9,4c8.9,12.2,11.1,36.7,6,67.5c-2.2,13.4-8.1,37.6-12.9,52.4c-1.7,5.3-3.1,10.1-3.1,10.7c0,0.5,4.3,1.8,9.5,2.7
	c14.1,2.6,35.1,1.7,46-1.8c17.1-5.6,30.6-17,38.9-33c3.5-6.7,3.6-7.1,3.6-18.5c-0.1-43.9-16.3-81.2-44.8-103.3l-3.3-2.5l6.2-3.9
	c3.4-2.1,7.6-5.1,9.5-6.7c3.2-2.8,3.3-3.1,1.9-5.7c-0.7-1.5-3.2-4.4-5.5-6.5c-4.6-4.1-4.7-3.6,2.5-12.1c11.5-13.7,20.7-32,25.5-51.1
	c2.8-11,4.8-23.4,3.7-23.4c-0.3,0-4.1,2.5-8.3,5.5c-23.9,17.2-54.1,27.5-80.4,27.5h-5.6l-2.3,5.6c-6.9,16.4-23.1,28.7-46,34.8
	c-24.6,6.6-55.6,5.7-77.9-2.2c-37.6-13.3-51.4-44-35.8-79.4c0.7-1.4-1.1-2.3-12.1-5.7c-27.2-8.5-41.6-11.1-60.3-11
	C516.4,244.1,507.5,244.8,504.1,245.5L504.1,245.5z"/>
<linearGradient id="SVGID_00000172405637610403998400000013857534716484902838_" gradientUnits="userSpaceOnUse" x1="-1155.9816" y1="-21.391" x2="-1154.9816" y2="-21.391" gradientTransform="matrix(21.87 0 0 -28.53 26089.3359 -230.4493)">
	<stop  offset="0" style="stop-color:#AE3751"/>
	<stop  offset="1" style="stop-color:#AE3751"/>
</linearGradient>
<path style="fill:url(#SVGID_00000172405637610403998400000013857534716484902838_);" d="M825.2,367.1c-1,1.1-5.1,4.1-9.1,6.6
	l-7.4,4.7l3.3,2.5c1.8,1.4,5.8,4.9,8.9,7.9l5.7,5.3l1.6-4.3c2.5-6,3-12.8,1.6-18.7C828.4,365,827.7,364.4,825.2,367.1z"/>
<linearGradient id="SVGID_00000042719425454988089820000004867868816522371744_" gradientUnits="userSpaceOnUse" x1="-1224.2477" y1="-1.422" x2="-1223.2477" y2="-1.422" gradientTransform="matrix(642.32 0 0 -323.18 786712.1875 116.532)">
	<stop  offset="0" style="stop-color:#FE9C6A;stop-opacity:0.27"/>
	<stop  offset="1" style="stop-color:#FE9C6A;stop-opacity:0.27"/>
</linearGradient>
<path style="fill:url(#SVGID_00000042719425454988089820000004867868816522371744_);" d="M507.8,425.5c-2.8,6-5.4,11.5-5.8,12.1
	c-8,12-10.6,16.3-14.2,23.4c-4.9,9.7-11,25.4-16.5,42c-4.5,13.8-20.9,46.1-25.7,50.7c-1.8,1.8-5,3.9-7.2,4.8c-3.4,1.4-4.5,1.5-9,0.3
	c-2.9-0.7-10.2-1.3-17.1-1.2c-10.3,0-13.1,0.4-20,2.8c-9.4,3.2-15.5,6.9-21.6,13.1c-2.4,2.5-4.9,4.5-5.5,4.5c-1.7,0-8,12.5-10.1,20
	c-1.5,5.5-1.8,10-1.6,28.5c0.1,23.8,1.3,32.5,5.9,43.9c3,7.5,2.4,4-1.2-7.4s-4.5-32.8-2-44.4c3.6-16.2,14.6-31.5,26.9-37.4
	c15.6-7.6,40.5-6.9,57.5,1.5c28.2,14.1,49.7,46.4,53.1,79.8c4.1,40.1-18.3,70.8-51.9,70.8c-14.1,0-24.5-2.5-35.9-8.9
	c-5.2-2.9-6.8-2.4-2,0.6c4.3,2.6,18.2,8,20.7,8c1,0,5.2,0.9,9.3,1.9c21.4,5.5,49.3,2.6,82.4-8.4c13.5-4.5,35.6-13.5,45.9-18.7l5.9-3
	l-5.7-3.1c-15.8-8.8-33.3-25.2-45.8-42.8c-12.4-17.3-23.6-41.7-29.3-63.5c-5-18.9-6.9-51.5-4.2-70.8l1.2-9.1l0.6,21
	c0.4,12.2,1.4,24.7,2.3,29.8c0.9,4.8,1.8,10.3,2.1,12.1c0.7,5.7,5.4,18.5,10.3,28.1c20.4,39.6,58.5,61.6,121.9,70.2
	c19,2.6,85.1,2.6,104.3,0c71.8-9.7,112.9-37.7,129.6-88.4c1.4-4.3,3.2-9.2,3.9-10.9c3.3-7.2,4.9-22.2,4.9-47.3l0.1-24.4l1.7,7.4
	c2.4,10.3,4,30.6,3.3,41.4c-0.8,11.6-2.3,22.1-3.4,24.3c-0.6,0.9-2,6.2-3.2,11.7c-10.3,47-41.3,92.1-76.6,111.5
	c-2.4,1.3-4.3,2.7-4.3,3c0,0.9,26.6,12.7,39,17.3c34.2,12.7,64.1,17.8,85,14.3c19.1-3.2,21.6-3.8,29.7-7
	c8.5-3.5,20.8-11.4,25.8-16.6c4.2-4.4,2.1-3.6-3.6,1.3c-5.6,4.9-16,11.3-23.4,14.4c-6.3,2.7-18.9,5.3-25.2,5.3
	c-13.1-0.1-26.3-5.3-35.8-14.1c-7.2-6.8-11.4-13.6-15.2-24.4c-2.5-7.4-2.7-9.1-2.7-23.5c0-13,0.4-16.9,2.3-24
	c7.6-28.3,27.7-53.8,52-66c7.5-3.8,13.4-4.9,28.6-5.7c18.5-0.8,28.5,2.6,39.5,13.8c6.3,6.4,12.1,17,14.5,26.4
	c3.4,13.4,2.8,32.9-1.4,46.5c-1,3.3-1.5,6-1.1,6c1,0,3.6-9.6,5-18c1.5-9.9,1.2-42.2-0.5-50.3c-0.8-3.8-3.1-10.3-5.1-14.5
	c-12.8-26.6-47.3-36.4-80.8-23l-8.6,3.5l-0.6-3.6c-1.9-11.3-4.2-18-10.8-31.6c-6.7-13.6-8-15.6-14.1-21.3c-3.7-3.5-7.8-6.8-9.1-7.4
	c-1.8-0.8-2.4-1.9-2.4-4.2c0-2.8-5.7-32.6-6.3-33.3c-0.2-0.1-0.1,6.4,0.1,14.6c0.4,13.3,0.2,15.2-1.6,19.4
	c-7.5,17-22.7,30.5-40.7,36.4c-10.9,3.5-31.9,4.4-46,1.8c-5.6-1-9.5-2.2-9.5-2.8c0-0.7,1.6-6.2,3.6-12.2c4.1-13,11-40.8,12-48.3
	l0.7-5.2l-5.5,2.5c-12.5,5.7-33.6,9.1-49.8,8c-30.6-2-56.1-10.1-114.2-35.9c-49.9-22.1-64.3-27.1-83.3-28.5l-9.4-0.6L507.8,425.5
	L507.8,425.5z"/>
<linearGradient id="SVGID_00000160873659198549232230000003934648910039628433_" gradientUnits="userSpaceOnUse" x1="-1215.5508" y1="-3.4774" x2="-1214.5508" y2="-3.4774" gradientTransform="matrix(139.25 0 0 -157.27 169619.9062 107.9214)">
	<stop  offset="0" style="stop-color:#FE9C6A;stop-opacity:0.54"/>
	<stop  offset="1" style="stop-color:#FE9C6A;stop-opacity:0.54"/>
</linearGradient>
<path style="fill:url(#SVGID_00000160873659198549232230000003934648910039628433_);" d="M394.3,577.2
	c-17.8,3.3-33.3,20.2-38.1,41.4c-2.3,10.5-1.5,32.7,1.6,43.4c2.7,9.4,9.4,23.8,15,32.1c5.5,8.1,18.7,21.3,26.5,26.4
	c22.9,15,50.5,17.2,68.9,5.4c26.6-16.8,33.8-58.5,16.6-95.5c-12.5-27-36-48.1-58.8-52.9C418.1,575.9,402.4,575.7,394.3,577.2
	L394.3,577.2z M423,609.4c29.5,10.4,48.5,49.7,37.7,78.1c-3.1,8.2-12.2,17.4-19.9,20.1c-25.6,8.8-57.1-13.1-65.6-45.6
	c-2.5-9.5-2.2-22.9,0.6-31c3.9-11.4,11.6-19.5,21.5-22.6C404.1,606.3,415.4,606.7,423,609.4z"/>
<linearGradient id="SVGID_00000135672082849907784080000012535430444322419620_" gradientUnits="userSpaceOnUse" x1="-1215.5449" y1="-3.4807" x2="-1214.5447" y2="-3.4807" gradientTransform="matrix(139.13 0 0 -157.89 169974.9688 105.4844)">
	<stop  offset="0" style="stop-color:#FE9C6A;stop-opacity:0.54"/>
	<stop  offset="1" style="stop-color:#FE9C6A;stop-opacity:0.54"/>
</linearGradient>
<path style="fill:url(#SVGID_00000135672082849907784080000012535430444322419620_);" d="M927.8,577c-1.4,0.4-4.1,0.8-6,0.9
	c-4.4,0.1-16.5,5.8-24.5,11.6c-7.6,5.5-18.9,17.1-24.4,25.4c-6,8.9-12.5,23-15.2,33.1c-1.9,7.1-2.3,11-2.3,24
	c0,14.4,0.2,16.1,2.7,23.5c3.8,10.8,8,17.6,15.2,24.4c9.5,8.8,22.7,14,35.8,14.1c6.3,0,18.9-2.6,25.2-5.3
	c19.9-8.4,39-26.7,49.4-47.5s13.5-45.2,8.6-64.7c-2.4-9.4-8.2-20-14.5-26.4c-6.9-7-13-10.7-21.2-12.6
	C949.9,575.9,932.1,575.6,927.8,577z M953.2,609c17.3,6.5,26,27.2,21.1,50.5c-5,24-25.5,45.7-47,49.6c-26.2,4.8-45.9-17.6-41.5-47.4
	c3.6-25,20.7-46.4,42.5-53.3C934.7,606.4,946.9,606.7,953.2,609L953.2,609z"/>
<linearGradient id="SVGID_00000169536246186430974920000013227224374520628145_" gradientUnits="userSpaceOnUse" x1="-1220.6808" y1="-6.2025" x2="-1219.6808" y2="-6.2025" gradientTransform="matrix(259.07 0 0 -93.1 316762.7812 -165.8983)">
	<stop  offset="0" style="stop-color:#000000;stop-opacity:0.2"/>
	<stop  offset="1" style="stop-color:#000000;stop-opacity:0.2"/>
</linearGradient>
<path style="fill:url(#SVGID_00000169536246186430974920000013227224374520628145_);" d="M519.9,368.1c-0.6,1.8-1.1,6.4-1.1,10.3
	c0,8.4,2.8,15.3,8.3,20.8c9.2,9.3,43.8,25.2,72,33.3c26.5,7.6,48.5,10.7,76.2,10.7c26.6,0.1,44.4-2.2,69.2-8.8l13.3-3.6l2.7,3.3
	c4.2,4.9,7.5,9.7,12,17.2l4,6.8l0.7-4.7c2.3-17.1-1.5-39.8-8.4-49.2l-2.9-4l-12.8,4.3c-13.4,4.5-29.9,8.5-44.3,10.7
	c-13.4,2-54.7,1.7-69-0.5c-25.6-4.1-54-12.9-77.5-24.2c-14-6.8-32-17.6-36.5-22c-2-1.9-3.9-3.5-4.2-3.5
	C521.3,365,520.5,366.4,519.9,368.1L519.9,368.1z"/>
<linearGradient id="SVGID_00000005958197839712339850000017888077359791764637_" gradientUnits="userSpaceOnUse" x1="-1216.1143" y1="-3.0876" x2="-1215.1143" y2="-3.0876" gradientTransform="matrix(146.67 0 0 -173.84 179192.9844 -87.0309)">
	<stop  offset="0" style="stop-color:#FE9C6A;stop-opacity:0.27"/>
	<stop  offset="1" style="stop-color:#FE9C6A;stop-opacity:0.27"/>
</linearGradient>
<path style="fill:url(#SVGID_00000005958197839712339850000017888077359791764637_);" d="M828.9,368.2c1,2.9,1.8,7.6,1.9,10.4
	c0,4.8,0.2,5.1,4.1,7.3c7.1,4,18.7,13.9,24.5,20.8c8.1,9.9,13.7,19.9,20.1,36.3c15.5,40,18.9,48.3,23.9,58.1
	c16.7,32.7,34.9,42.3,59,31c3.5-1.6,6.4-2.7,6.7-2.5c1.3,1.3,4.1-14.5,4.5-25.6c1.1-31.8-11.2-61.9-35.8-87.4
	c-18.1-18.7-36.3-30.5-63.7-41.2c-11-4.3-33.2-10.5-42.4-11.9l-4.7-0.7L828.9,368.2L828.9,368.2z"/>
<linearGradient id="SVGID_00000011027462133446513800000009246014076445446572_" gradientUnits="userSpaceOnUse" x1="-1222.3215" y1="-3.4523" x2="-1221.3217" y2="-3.4523" gradientTransform="matrix(356.98 0 0 -158.88 436837.3125 -224.9692)">
	<stop  offset="0" style="stop-color:#00FF87;stop-opacity:0.21"/>
	<stop  offset="1" style="stop-color:#00FF87;stop-opacity:0.21"/>
</linearGradient>
<path style="fill:url(#SVGID_00000011027462133446513800000009246014076445446572_);" d="M504.1,245.5c-3.5,0.8-6.7,1.7-7.3,2
	c-1.5,0.9-1.2,18.6,0.5,30c0.8,5.5,2.7,14,4.1,19c3,10.5,11.4,28.6,17.4,37.5c23.4,34.5,62.3,57.2,113.5,66.1
	c15,2.7,54.8,3.8,70.7,2c77.1-8.8,130.3-48.7,145.8-109.7c2.8-11,4.8-23.4,3.7-23.4c-0.3,0-4.1,2.5-8.3,5.5
	c-23.9,17.2-54.1,27.5-80.4,27.5h-5.6l-2.3,5.6c-6.9,16.4-23.1,28.7-46,34.8c-24.6,6.6-55.6,5.7-77.9-2.2
	c-37.6-13.3-51.4-44-35.8-79.4c0.7-1.4-1.1-2.3-12.1-5.7c-27.2-8.5-41.6-11.1-60.3-11C516.4,244.1,507.5,244.8,504.1,245.5
	L504.1,245.5z"/>
<linearGradient id="SVGID_00000039814438912889774030000003974784177158738330_" gradientUnits="userSpaceOnUse" x1="-1198.1924" y1="-23.3343" x2="-1197.1924" y2="-23.3343" gradientTransform="matrix(54.31 0 0 -26.07 65721.1953 -363.8593)">
	<stop  offset="0" style="stop-color:#000000;stop-opacity:0.45"/>
	<stop  offset="1" style="stop-color:#000000;stop-opacity:0.45"/>
</linearGradient>
<path style="fill:url(#SVGID_00000039814438912889774030000003974784177158738330_);" d="M665.1,232c-10.9,2.3-17.4,7.3-17.6,13.5
	c-0.1,3,0.5,4.3,3.1,6.6c4.6,4.1,10.1,5.4,23.7,5.4c13.6,0,20.2-1.4,24.5-5.5c6.5-6.1,2-15.1-9.3-18.5
	C683,231.6,670.7,230.8,665.1,232L665.1,232z"/>
<linearGradient id="SVGID_00000023267873386166559330000018324994394516985997_" gradientUnits="userSpaceOnUse" x1="-1207.6171" y1="-8.4249" x2="-1206.6171" y2="-8.4249" gradientTransform="matrix(81.2 0 0 -69.71 98690.4688 -313.4491)">
	<stop  offset="0" style="stop-color:#000000;stop-opacity:0.55"/>
	<stop  offset="1" style="stop-color:#000000;stop-opacity:0.55"/>
</linearGradient>
<path style="fill:url(#SVGID_00000023267873386166559330000018324994394516985997_);" d="M643.2,243.4c-4,3.9-4.4,4.8-4.4,9.1
	c0,4.3,0.5,5.2,3.5,8c4.2,4.1,10.3,6.2,21.7,7.6l8.8,1.2v12c0,14.5-1.2,17.2-9.5,21.2c-4.3,2.2-6.2,2.6-9.4,2
	c-5.2-0.9-9.8-4-13.6-9.2c-3.3-4.6-3.4-4.7-5.5-3.3c-1.8,1.1-0.1,4.5,4.9,9.6c5.4,5.4,8.7,6.8,16.1,6.8c7.4,0,13.3-2.5,16.8-6.8
	l1.9-2.5l2.4,2.5c5.4,5.8,14.9,8.5,22.4,6.4c7.8-2.2,18.9-13.9,15.3-16.1c-2-1.3-2.2-1.2-4.1,2c-4.6,7.9-13.8,12.3-21.2,10.1
	c-10.4-3.1-12.5-7-12.5-22.8v-12l5.8-0.6C705,266.1,715,258,709.3,247c-1.4-2.7-7.3-8-8.9-8c-0.4,0-0.2,0.9,0.4,1.9
	c3.2,6.2-0.9,12.6-9.7,15.2c-6.1,1.8-27.2,1.8-33.1,0.1c-6.5-2-10.6-6.1-10.5-10.6c0.1-2,0.7-4.3,1.3-5.1c1-1.2,1-1.5,0-1.5
	C648.1,239,645.6,241,643.2,243.4L643.2,243.4z"/>
<linearGradient id="SVGID_00000092421312082099098950000001082282994143299262_" gradientUnits="userSpaceOnUse" x1="-1193.6963" y1="-12.1168" x2="-1194.4463" y2="-12.7868" gradientTransform="matrix(48.19 0 0 -48.25 58139.3945 -388.9805)">
	<stop  offset="0" style="stop-color:#1C1C1C;stop-opacity:0.55"/>
	<stop  offset="1" style="stop-color:#1C1C1C;stop-opacity:0.57"/>
</linearGradient>
<path style="fill:url(#SVGID_00000092421312082099098950000001082282994143299262_);" d="M588.5,190.4c-18.6,5.1-23.4,30.5-7.9,42.3
	c18.3,14,44.4-3.7,37.9-25.7C614.6,193.9,601.7,186.7,588.5,190.4z M608.3,199.5c5.6,5.7,4.6,12.5-1.8,12.5
	c-5.7,0-11.7-5.7-11.7-11.2c0-3.4,1.8-4.8,6.2-4.8C603.9,196,605.5,196.7,608.3,199.5z"/>
<linearGradient id="SVGID_00000012445680126520592370000009063589447526595722_" gradientUnits="userSpaceOnUse" x1="-1193.6934" y1="-12.0143" x2="-1194.0236" y2="-12.9648" gradientTransform="matrix(47.87 0 0 -48.09 57904.6523 -389.1914)">
	<stop  offset="0" style="stop-color:#1C1C1C;stop-opacity:0.57"/>
	<stop  offset="1" style="stop-color:#1C1C1C;stop-opacity:0.58"/>
</linearGradient>
<path style="fill:url(#SVGID_00000012445680126520592370000009063589447526595722_);" d="M746,190.8c-20.1,7.2-21.7,34.5-2.7,44.5
	c8.4,4.4,21.5,2,28.3-5.1c8.4-9,8.3-25-0.4-33.6C764.4,189.9,754.8,187.7,746,190.8L746,190.8z"/>
<linearGradient id="SVGID_00000051375376883304178910000002198357938104248995_" gradientUnits="userSpaceOnUse" x1="-1213.5555" y1="-5.6348" x2="-1212.5554" y2="-5.6348" gradientTransform="matrix(90.21 0 0 -102.3 109484.8828 81.8122)">
	<stop  offset="0" style="stop-color:#ED9D6F"/>
	<stop  offset="1" style="stop-color:#ED9D6F"/>
</linearGradient>
<path style="fill:url(#SVGID_00000051375376883304178910000002198357938104248995_);" d="M33.2,608.4c-23,7.2-31,38.7-16.9,67.2
	c9.9,20.1,28.8,33.5,47.4,33.8c11,0.1,17-2.3,24.6-9.8c7.6-7.6,10.4-14.3,11.1-26.7c2.1-33.3-25.1-66-54.7-65.8
	C40.6,607.1,35.4,607.7,33.2,608.4L33.2,608.4z"/>
<linearGradient id="SVGID_00000172423383021661526590000017307043276901478048_" gradientUnits="userSpaceOnUse" x1="-1217.3254" y1="-3.5003" x2="-1216.3254" y2="-3.5003" gradientTransform="matrix(139.25 0 0 -157.27 169619.9062 107.9214)">
	<stop  offset="0" style="stop-color:#FE9C6A;stop-opacity:0.54"/>
	<stop  offset="1" style="stop-color:#FE9C6A;stop-opacity:0.54"/>
</linearGradient>
<path style="fill:url(#SVGID_00000172423383021661526590000017307043276901478048_);stroke:#000000;stroke-miterlimit:10;" d="
	M147.1,580.8c-17.8,3.3-33.3,20.2-38.1,41.4c-2.3,10.5-1.5,32.7,1.6,43.4c2.7,9.4,9.4,23.8,15,32.1c5.5,8.1,18.7,21.3,26.5,26.4
	c22.9,15,50.5,17.2,68.9,5.4c26.6-16.8,33.8-58.5,16.6-95.5c-12.5-27-36-48.1-58.8-52.9C170.9,579.5,155.2,579.3,147.1,580.8
	L147.1,580.8z M175.8,613c29.5,10.4,48.5,49.7,37.7,78.1c-3.1,8.2-12.2,17.4-19.9,20.1c-25.6,8.8-57.1-13.1-65.6-45.6
	c-2.5-9.5-2.2-22.9,0.6-31c3.9-11.4,11.6-19.5,21.5-22.6C156.9,609.9,168.2,610.3,175.8,613z"/>
<g>
	<line class="st32" x1="329.3" y1="661.9" x2="268.9" y2="661.9"/>
	<path d="M252.8,661.9c7.6,3.7,17,10.1,22.9,16.8l-4.6-16.8l4.6-16.8C269.7,651.8,260.3,658.2,252.8,661.9z"/>
</g>
<rect x="343" y="570" class="st33" width="163" height="176.5"/>
<rect x="843.4" y="556.9" class="st33" width="163" height="176.5"/>
<g>
	<line class="st32" x1="1013.6" y1="678.7" x2="1093.5" y2="678.7"/>
	<path d="M1114.8,678.7c-10,3.7-22.5,10.1-30.2,16.8l6.1-16.8l-6.1-16.8C1092.4,668.6,1104.8,675,1114.8,678.7z"/>
</g>
<linearGradient id="SVGID_00000148647876003176343710000006550677860525920406_" gradientUnits="userSpaceOnUse" x1="-1213.63" y1="-3.501" x2="-1212.6298" y2="-3.501" gradientTransform="matrix(139.13 0 0 -157.89 169974.9688 105.4844)">
	<stop  offset="0" style="stop-color:#FE9C6A;stop-opacity:0.54"/>
	<stop  offset="1" style="stop-color:#FE9C6A;stop-opacity:0.54"/>
</linearGradient>
<path style="fill:url(#SVGID_00000148647876003176343710000006550677860525920406_);" d="M1194.2,580.2c-1.4,0.4-4.1,0.8-6,0.9
	c-4.4,0.1-16.5,5.8-24.5,11.6c-7.6,5.5-18.9,17.1-24.4,25.4c-6,8.9-12.5,23-15.2,33.1c-1.9,7.1-2.3,11-2.3,24
	c0,14.4,0.2,16.1,2.7,23.5c3.8,10.8,8,17.6,15.2,24.4c9.5,8.8,22.7,14,35.8,14.1c6.3,0,18.9-2.6,25.2-5.3
	c19.9-8.4,39-26.7,49.4-47.5s13.5-45.2,8.6-64.7c-2.4-9.4-8.2-20-14.5-26.4c-6.9-7-13-10.7-21.2-12.6
	C1216.3,579.1,1198.5,578.8,1194.2,580.2z M1219.6,612.2c17.3,6.5,26,27.2,21.1,50.5c-5,24-25.5,45.7-47,49.6
	c-26.2,4.8-45.9-17.6-41.5-47.4c3.6-25,20.7-46.4,42.5-53.3C1201.1,609.6,1213.3,609.9,1219.6,612.2L1219.6,612.2z"/>
<linearGradient id="SVGID_00000025441768502586889750000001000794198773680296_" gradientUnits="userSpaceOnUse" x1="-1205.0942" y1="-5.5452" x2="-1204.0942" y2="-5.5452" gradientTransform="matrix(90.41 0 0 -102.63 110239.6484 85.9846)">
	<stop  offset="0" style="stop-color:#ED9D6F"/>
	<stop  offset="1" style="stop-color:#ED9D6F"/>
</linearGradient>
<path style="fill:url(#SVGID_00000025441768502586889750000001000794198773680296_);" d="M1331.4,605.1c-17,5.4-32,20.4-39,38.9
	c-5.3,14.3-5.4,30.7-0.1,42.3c6.7,14.6,22.1,22.4,38.1,19.5c29.7-5.4,53.3-41.2,47.5-72.2c-2.4-13-10.8-23.8-21.6-27.9
	C1350,603.4,1337.8,603.1,1331.4,605.1z"/>
</svg>
