<?xml version="1.0" encoding="utf-8"?>
<!-- Generator: Adobe Illustrator 26.5.0, SVG Export Plug-In . SVG Version: 6.00 Build 0)  -->
<svg version="1.1" id="图层_1" xmlns="http://www.w3.org/2000/svg" xmlns:xlink="http://www.w3.org/1999/xlink" x="0px" y="0px"
	 viewBox="0 0 1400 766" style="enable-background:new 0 0 1400 766;" xml:space="preserve">
<style type="text/css">
	.st0{fill:none;}
	.st1{fill:#D3D3D3;}
	.st2{fill:url(#SVGID_1_);}
	.st3{fill:url(#region-1-1_00000103962326078576226230000015609578963064308403_);}
	.st4{fill:url(#region-2-1_00000129887553238456615680000016623598882193067440_);}
	.st5{fill:url(#region-2-2_00000044870951839380144660000008786994808041719425_);}
	.st6{fill:url(#region-2-3_00000055679373600947220330000000070737665802925699_);}
	.st7{fill:url(#region-2-4_00000125601595267907914700000008472218836642107280_);}
	.st8{fill:url(#region-2-5_00000109718718060190091490000009025085163654597807_);}
	.st9{fill:url(#region-3-1_00000055671346740285954150000005374394759494307464_);}
	.st10{fill:url(#region-3-2_00000039811863415922523340000009287603287841313467_);}
	.st11{fill:url(#region-3-3_00000164474260180525365490000010968762857410015413_);}
	.st12{fill:url(#region-3-4_00000019640999263519816750000009077204585682308519_);}
	.st13{fill:url(#region-3-5_00000129906339393357533410000001549662213794960271_);}
	.st14{fill:url(#region-3-6_00000050622432118757619190000008594655709874046869_);}
	.st15{fill:url(#region-3-7_00000000182118839509443150000009531082657024140707_);}
	.st16{fill:url(#region-3-8_00000093141014912596922830000008626877986591381671_);}
	.st17{fill:url(#region-3-9_00000096029662107404112610000001231745935925259939_);}
	.st18{fill:url(#region-3-10_00000024724426907165223220000008272692815006921389_);}
	.st19{fill:url(#region-3-11_00000096038533652286825350000018268811560916616096_);}
	.st20{fill:url(#region-3-12_00000087398710739028038650000016575925572338927501_);}
	.st21{fill:url(#region-3-13_00000033338173933164994110000007569573085395687300_);}
	.st22{fill:url(#region-3-14_00000103949261212514824540000009028594930475757756_);}
	.st23{fill:url(#region-3-15_00000048482477909359698540000010110902855764369025_);}
	.st24{fill:url(#region-4-1_00000109742132391422718340000010631215617278803844_);}
	.st25{fill:url(#region-4-2_00000089552378926209481280000017646092334539901841_);}
	.st26{fill:url(#region-4-3_00000103964198109553233000000014146043608791192239_);}
	.st27{fill:url(#region-4-4_00000098214491616064633650000006379548335869953410_);}
	.st28{fill:url(#region-4-5_00000170238398108834725070000001309639357106437007_);}
	.st29{fill:url(#region-4-6_00000096059581466376600300000003416307461023791774_);}
	.st30{fill:url(#region-4-7_00000118369745601208772760000006055806844315832483_);}
	.st31{fill:url(#region-4-8_00000113349914673584597820000007405106156723535287_);}
	.st32{fill:url(#region-4-9_00000154403888359673027240000010556869716756453035_);}
	.st33{fill:none;stroke:#000000;stroke-width:3;stroke-miterlimit:10;}
	.st34{fill:url(#region-3-14_00000008111217272263290680000004514257487709610431_);}
	.st35{fill:url(#region-4-8_00000131354893849066799680000011544621424904482476_);}
	.st36{fill:none;stroke:#0202A3;stroke-width:4;stroke-miterlimit:10;}
	.st37{fill:url(#region-4-9_00000043417183938297561530000004267560053475976832_);}
	.st38{fill:url(#region-3-15_00000109748641612285484680000008909737274204122008_);}
</style>
<pattern  y="766" width="40" height="40" patternUnits="userSpaceOnUse" id="SVGID_0000007804185420953410339" viewBox="0 -40 40 40" style="overflow:visible;">
	<g>
		<rect y="-40" class="st0" width="40" height="40"/>
		<g>
			<rect y="-40" class="st0" width="40" height="40"/>
			<g>
				<rect y="-40" class="st0" width="40" height="40"/>
				<g>
					<rect y="-40" class="st0" width="40" height="40"/>
					<g>
						<rect y="-40" class="st0" width="40" height="40"/>
						<rect y="-40" class="st0" width="40" height="40"/>
						<rect y="-40" class="st1" width="20" height="20"/>
						<rect x="20" y="-20" class="st1" width="20" height="20"/>
					</g>
				</g>
			</g>
		</g>
	</g>
</pattern>
<g id="_图层_2">
	<g id="_图层_1">
		<pattern  id="SVGID_1_" xlink:href="#SVGID_0000007804185420953410339" patternTransform="matrix(1 0 0 1 379 33764.2422)">
		</pattern>
		<rect class="st2" width="1400" height="766"/>
	</g>
</g>
<g id="layer-1">
	
		<linearGradient id="region-1-1_00000134244466078874917180000001408675676021682878_" gradientUnits="userSpaceOnUse" x1="-1240.4008" y1="0.2365" x2="-1240.2507" y2="-0.8736" gradientTransform="matrix(718 0 0 -766 891231 142)">
		<stop  offset="0" style="stop-color:#FFDDBC;stop-opacity:0.99"/>
		<stop  offset="1" style="stop-color:#FEDABA;stop-opacity:0.99"/>
	</linearGradient>
	<path id="region-1-1" style="fill:url(#region-1-1_00000134244466078874917180000001408675676021682878_);" d="M318,385v383h718V2
		H318V385z"/>
</g>
<g id="layer-2">
	
		<linearGradient id="region-2-1_00000011017960249649208410000006795331741433571245_" gradientUnits="userSpaceOnUse" x1="-1239.1746" y1="-1.313" x2="-1238.8745" y2="-2.803" gradientTransform="matrix(457.85 0 0 -260.77 567992.75 -322.7958)">
		<stop  offset="0" style="stop-color:#8B1300;stop-opacity:0.37"/>
		<stop  offset="1" style="stop-color:#BE6E42;stop-opacity:0.91"/>
	</linearGradient>
	<path id="region-2-1" style="fill:url(#region-2-1_00000011017960249649208410000006795331741433571245_);" d="M517.5,44
		c-27.1,5.8-62.9,40.4-71,68.4c-1.3,4.3-1.6,8.4-1.3,15c0.5,12.1,4.3,20.1,14.3,30.2c11.8,11.9,24.8,18.2,42.2,20.5l9.1,1.1
		l-2.3,5.2c-6.6,14.9-12.3,38.7-13.2,55.3l-0.6,10.2l4.9-1.6c3.2-1,10.3-1.7,20-2c20.6-0.7,34.3,1.6,63.8,10.8
		c7,2.2,12.9,3.9,13,3.7c0.2-0.2,1.7-2.3,3.4-4.8c3.8-5.6,14.2-15.7,20.5-20c13.9-9.3,29.5-14,48.7-14.7c15.7-0.6,24.7,0.5,37.5,4.8
		c24.9,8.3,43.6,26.4,50.1,48.4c1.8,6.3,2.5,21.7,1.1,26.7L757,304h5.8c18.9,0,42-5.8,61.2-15.5c7.3-3.7,23.1-14,26.9-17.6l2.4-2.2
		l-0.6-18.6c-0.7-24.7-4.2-42.7-12.1-62.2l-3.4-8.4l5.7-0.8c16.2-2.2,27.8-6.8,38.8-15.1c17.3-13.1,24.6-31.5,19.8-50.1
		c-3.6-13.5-10.6-24.6-25.5-39.8c-21.6-22.3-40.2-31.9-58.5-30.3c-22.5,2-44.9,26.4-49.1,53.1l-0.6,4.1L754.7,94
		c-15.3-7.7-30.5-12.9-46.7-16.2c-10-2-14.4-2.3-34-2.3c-16.9,0-24.7,0.4-31.5,1.7c-18.8,3.6-40,11-54.5,19.2l-7.8,4.4l-1.7-7.7
		C574,72.3,558.3,52.4,541.3,46C534.9,43.6,523.7,42.6,517.5,44L517.5,44z"/>
	
		<linearGradient id="region-2-2_00000111874956787494292790000009923629515161261756_" gradientUnits="userSpaceOnUse" x1="-1238.2021" y1="-0.899" x2="-1238.0623" y2="-2.049" gradientTransform="matrix(360.85 0 0 -319.83 447468.875 -89.3112)">
		<stop  offset="0" style="stop-color:#671F00;stop-opacity:0.57"/>
		<stop  offset="1" style="stop-color:#C85335;stop-opacity:0.83"/>
	</linearGradient>
	<path id="region-2-2" style="fill:url(#region-2-2_00000111874956787494292790000009923629515161261756_);" d="M658,221.7
		c-12.8,2.1-28.2,8-37.7,14.3c-6.3,4.3-16.7,14.4-20.5,20c-1.7,2.5-3.2,4.6-3.4,4.8c-0.1,0.2-6-1.5-13-3.7
		c-29.5-9.2-43.2-11.5-63.8-10.8c-8.7,0.3-17,1.1-19.6,1.9l-4.5,1.4l-0.3,9.4c-0.9,30.2,11.2,64.3,31.5,88.5l4.9,5.8l-5.1,5.1
		c-6.2,6.2-8.5,12.1-8.5,22c0,8.4,2.8,15.3,8.3,20.8c9.2,9.3,43.8,25.2,72,33.3c26.5,7.6,48.5,10.7,76.2,10.7
		c26.6,0.1,44.4-2.2,69.2-8.8l13.3-3.6l2.7,3.3c4.3,5.1,7.6,9.8,12.2,17.5l4.2,7.2l-2,12.5c-2.3,13.7-8.2,37.8-13,52.8
		c-1.7,5.3-3.1,10.1-3.1,10.7c0,0.5,4.3,1.8,9.5,2.7c14.1,2.6,35.1,1.7,46-1.8c17.1-5.6,30.6-17,38.9-33c3.5-6.7,3.6-7.1,3.6-18.5
		c-0.1-43.9-16.3-81.2-44.8-103.3l-3.3-2.5l6.2-3.9c3.4-2.1,7.6-5.1,9.5-6.7c3.2-2.8,3.3-3.1,1.9-5.7c-0.7-1.5-3.2-4.4-5.5-6.5
		c-4.6-4.1-4.7-3.6,2.5-12.1c11.5-13.7,20.7-32,25.5-51.1c2.8-11,4.8-23.4,3.7-23.4c-0.3,0-4.1,2.5-8.3,5.5
		c-24,17.3-54.1,27.5-80.6,27.5H757l0.7-2.8c1.4-5,0.7-20.4-1.1-26.7c-4.8-16.1-18.2-32.6-33.6-41.2c-8.6-4.8-22.5-9.7-32-11.2
		C684.8,221.1,663.2,220.8,658,221.7L658,221.7z"/>
	
		<linearGradient id="region-2-3_00000084513017836009973450000006048131749108414900_" gradientUnits="userSpaceOnUse" x1="-1231.668" y1="-2.6102" x2="-1231.668" y2="-3.6102" gradientTransform="matrix(144.21 0 0 -173.42 178067.1562 -85.7342)">
		<stop  offset="0" style="stop-color:#9A3002;stop-opacity:0.41"/>
		<stop  offset="1" style="stop-color:#952800;stop-opacity:0.64"/>
	</linearGradient>
	<path id="region-2-3" style="fill:url(#region-2-3_00000084513017836009973450000006048131749108414900_);" d="M508.5,367.5
		c-58.4,13.6-100.7,43.9-120.9,86.6c-10.9,22.9-14.1,47.7-9.1,69.8l1.6,6.6l5.7,2.7c8.2,3.9,17.7,6.1,23.1,5.4
		c10.8-1.5,22.1-9.9,30.7-22.8c6.5-9.8,13.8-25.9,24.9-54.8c5.4-14,11.5-28.9,13.5-33c7.4-14.7,19.7-28.6,32.9-37l7-4.5v-6.6
		c0.1-3.7,0.8-8.5,1.6-10.8C521.2,364.3,521.9,364.4,508.5,367.5L508.5,367.5z"/>
	
		<linearGradient id="region-2-4_00000029730490137214332380000010252447298372947644_" gradientUnits="userSpaceOnUse" x1="-1233.6117" y1="-2.6347" x2="-1232.4618" y2="-2.7945" gradientTransform="matrix(165.13 0 0 -196.31 204502.625 -66.6248)">
		<stop  offset="0" style="stop-color:#A42000;stop-opacity:0.5"/>
		<stop  offset="1" style="stop-color:#AA5C2C;stop-opacity:0.76"/>
	</linearGradient>
	<path id="region-2-4" style="fill:url(#region-2-4_00000029730490137214332380000010252447298372947644_);" d="M826.4,365.8
		c0.8,1.3-4.5,5.9-12.3,10.7l-6.2,3.9l3.3,2.5c15.8,12.2,27.6,28.6,35.6,49.7c2.1,5.4,6.3,14.2,9.5,19.5c7.9,13.1,13.4,26,22.1,51.7
		c11.7,34.6,20.5,50.1,31.8,55.8c3.2,1.6,7.7,1.9,13.5,0.9c4.9-0.9,12-1.5,15.9-1.3c6.5,0.2,7.6-0.1,11.5-2.7
		c17.7-12.3,26.1-43.9,19.9-74.6c-5-24.4-15.7-44.4-34-63.3c-18.1-18.7-36.3-30.5-63.7-41.2C856.8,370.9,824.6,363,826.4,365.8
		L826.4,365.8z"/>
	
		<linearGradient id="region-2-5_00000017483741988681075050000002073678337950939008_" gradientUnits="userSpaceOnUse" x1="-1240.614" y1="-0.8127" x2="-1239.6343" y2="-1.9028" gradientTransform="matrix(642.22 0 0 -352.77 797070.0625 112.4386)">
		<stop  offset="0" style="stop-color:#7D0D00;stop-opacity:0.52"/>
		<stop  offset="1" style="stop-color:#D18459;stop-opacity:0.84"/>
	</linearGradient>
	<path id="region-2-5" style="fill:url(#region-2-5_00000017483741988681075050000002073678337950939008_);" d="M509.4,391.9
		c-13.3,9.3-24.3,21.9-31.4,36.1c-2,4.1-8.1,19-13.5,33c-11.1,28.9-18.4,45-24.9,54.8c-8.6,12.9-19.9,21.3-30.7,22.8
		c-5.3,0.7-15.1-1.5-22.4-5.1c-2.7-1.3-5.1-2.2-5.4-1.9c-0.3,0.2,0.9,3.4,2.7,7c3.5,7,9.4,14,15.6,18.6c3.6,2.5,3.7,2.8,1.5,2.8
		c-4,0-18.2,5.4-23,8.7c-2.4,1.7-6.2,4.9-8.4,7.2c-2.2,2.2-4.5,4.1-5.1,4.1c-1.7,0-8,12.5-10,20c-1.6,5.4-1.8,10-1.8,28
		c0.1,11.8,0.7,24.4,1.4,28c1.5,8.1,6,22.1,7,21.5c0.4-0.2,1.8,1.9,3.1,4.8c6,12.9,17.8,27.6,29.1,36.4c3.3,2.5,6.9,5.5,8.1,6.7
		c2.5,2.4,15.8,8.3,20.9,9.2c1.8,0.3,6.9,1.4,11.3,2.4c17,4,34.2,3.5,57.5-1.6c31.1-6.9,74.1-25.3,113.6-48.7l14.1-8.4l6.9,1
		c9.7,1.5,84.9,1.5,94.8,0l8-1.2l13.5,8.1c29.6,17.7,62.2,32.9,90.6,42.3c19.3,6.5,31.8,9.2,49,10.7c13.4,1.1,15.7,0.9,39-3.2
		c8.7-1.6,21.2-7,29.7-12.9c7.2-4.9,14-11.1,12.3-11.1c-0.4,0,1.4-2.4,4.2-5.3c6.7-7.1,12.8-16.3,17.6-26.6c2.2-4.7,4.4-8.8,4.8-9.2
		c0.5-0.3,1.8-4.1,3-8.5c1.8-6.6,2.3-11.5,2.6-29.9c0.5-25.5-0.4-32-6.3-44.3c-10.4-21.7-35.9-32.7-64.2-27.8L915,562l-4.8-2.4
		c-11.3-5.7-20.1-21.2-31.8-55.8c-8.7-25.5-14.2-38.6-21.9-51.5c-3.1-5.1-5.8-9.3-6-9.3s0.3,2.4,1.1,5.2c2.4,9.2,4.4,26.5,4.4,38.3
		c0,11.1-0.1,11.5-3.6,18.2c-8.3,16-21.8,27.4-38.9,33c-10.9,3.5-31.9,4.4-46,1.8c-5.2-0.9-9.5-2.2-9.5-2.7c0-0.6,1.4-5.4,3.1-10.7
		c4.8-15,10.7-39.1,13-52.8l2-12.5l-4.2-7.2c-4.6-7.7-7.9-12.4-12.2-17.5l-2.7-3.3l-13.3,3.6c-24.8,6.6-42.6,8.9-69.2,8.8
		c-27.7,0-49.7-3.1-76.2-10.7c-28.2-8.1-62.8-24-72-33.3c-2-1.9-4.7-5.9-6-8.9c-1.3-2.9-2.8-5.3-3.2-5.3
		C516.7,387,513.2,389.2,509.4,391.9L509.4,391.9z"/>
</g>
<linearGradient id="region-3-1_00000163753742448594357080000007928751945372496263_" gradientUnits="userSpaceOnUse" x1="-1224.5673" y1="-6.3045" x2="-1223.9272" y2="-7.5244" gradientTransform="matrix(85.59 0 0 -84.5 105296.6797 -471.5)">
	<stop  offset="0" style="stop-color:#E08D5D;stop-opacity:0.83"/>
	<stop  offset="1" style="stop-color:#FFB585;stop-opacity:0.73"/>
</linearGradient>
<path id="region-3-1" style="fill:url(#region-3-1_00000163753742448594357080000007928751945372496263_);" d="M510.8,71.9
	c-12,4.7-29.2,21.1-35.4,33.7c-4.5,9-5.4,16.8-2.9,24.3c2.5,7.7,10.8,16.1,20.3,20.8c7.5,3.7,7.8,3.8,19.2,3.8s11.7-0.1,19.3-3.8
	c27.2-13.5,33.9-47.9,13.6-70.1C538,73,531.6,70,522.6,70C518.2,70.1,513.7,70.8,510.8,71.9L510.8,71.9z"/>
<linearGradient id="region-3-2_00000014628383015240351960000003456655909244823170_" gradientUnits="userSpaceOnUse" x1="-1224.4272" y1="-6.2698" x2="-1224.0673" y2="-7.4898" gradientTransform="matrix(85.42 0 0 -85.03 105408.8203 -468.5311)">
	<stop  offset="0" style="stop-color:#E79568;stop-opacity:0.81"/>
	<stop  offset="1" style="stop-color:#FFB483;stop-opacity:0.75"/>
</linearGradient>
<path id="region-3-2" style="fill:url(#region-3-2_00000014628383015240351960000003456655909244823170_);" d="M813.3,72.5
	c-13.8,6.4-23.4,24.4-22,41.5c1,13.3,6.9,24.1,17.6,32.2c8.6,6.6,17.3,9.2,28.9,8.6c13.9-0.8,25.1-6.5,32.9-16.6
	c9.7-12.8,7.4-28.2-6.8-45.1c-7.2-8.5-16.7-16.1-25-20.1C830.4,69,821.1,68.8,813.3,72.5L813.3,72.5z"/>
<linearGradient id="region-3-3_00000118380187456741754470000014731054851477828771_" gradientUnits="userSpaceOnUse" x1="-1210.1334" y1="-11.9708" x2="-1210.1334" y2="-12.9709" gradientTransform="matrix(48.19 0 0 -48.25 58910.9492 -388.9805)">
	<stop  offset="0" style="stop-color:#574536;stop-opacity:0.75"/>
	<stop  offset="1" style="stop-color:#463426;stop-opacity:0.81"/>
</linearGradient>
<path id="region-3-3" style="fill:url(#region-3-3_00000118380187456741754470000014731054851477828771_);" d="M587.7,192.4
	c-18.6,5.1-23.4,30.5-7.9,42.3c18.3,14,44.4-3.7,37.9-25.7C613.8,195.9,600.9,188.7,587.7,192.4z"/>
<linearGradient id="region-3-4_00000137831319844863948660000016989136515669085854_" gradientUnits="userSpaceOnUse" x1="-1209.8998" y1="-12.0133" x2="-1209.8998" y2="-13.0134" gradientTransform="matrix(47.87 0 0 -48.09 58670.9766 -389.1914)">
	<stop  offset="0" style="stop-color:#00191C;stop-opacity:0.42"/>
	<stop  offset="1" style="stop-color:#071916;stop-opacity:0.49"/>
</linearGradient>
<path id="region-3-4" style="fill:url(#region-3-4_00000137831319844863948660000016989136515669085854_);" d="M745.2,192.8
	c-20.1,7.2-21.7,34.5-2.7,44.5c8.4,4.4,21.5,2,28.3-5.1c8.4-9,8.3-25-0.4-33.6C763.6,191.9,754,189.7,745.2,192.8L745.2,192.8z"/>
<linearGradient id="region-3-5_00000081646550321898674720000015857181290642687875_" gradientUnits="userSpaceOnUse" x1="-1233.3785" y1="-3.85" x2="-1233.2385" y2="-5.05" gradientTransform="matrix(169.73 0 0 -127.76 210002.9219 -281.3674)">
	<stop  offset="0" style="stop-color:#F59F72;stop-opacity:0.8"/>
	<stop  offset="1" style="stop-color:#FFB281;stop-opacity:0.79"/>
</linearGradient>
<path id="region-3-5" style="fill:url(#region-3-5_00000081646550321898674720000015857181290642687875_);" d="M658,221.7
	c-13.4,2.2-28.2,8-38.6,15c-8.1,5.5-19.2,17.5-23.2,25c-11.8,22.2-8.9,47.7,7.3,63.8c17.4,17.4,51.2,26.3,85.6,22.6
	c39.7-4.3,64.7-22.4,69-50c2.8-18.8-3.7-36.8-19.1-52.1c-12.6-12.6-29.3-20.9-48-23.9C684.8,221.1,663.2,220.8,658,221.7L658,221.7z
	"/>
<linearGradient id="region-3-6_00000016054857124733890810000003402865120888093087_" gradientUnits="userSpaceOnUse" x1="-1238.4996" y1="-3.0448" x2="-1237.4297" y2="-2.6448" gradientTransform="matrix(338 0 0 -187.1 419091 -83.485)">
	<stop  offset="0" style="stop-color:#FA7165;stop-opacity:0.87"/>
	<stop  offset="1" style="stop-color:#FF000F;stop-opacity:0.35"/>
</linearGradient>
<path id="region-3-6" style="fill:url(#region-3-6_00000016054857124733890810000003402865120888093087_);" d="M526,358.8
	c-5.8,6-8,12.1-8,21.6c0,8.4,2.8,15.3,8.3,20.8c9.2,9.3,43.8,25.2,72,33.3c26.5,7.6,48.5,10.7,76.2,10.7c26.6,0.1,44.4-2.2,69.2-8.8
	l13.3-3.6l2.7,3.3c4.3,5.1,7.6,9.8,12.2,17.5l4.2,7.2l-2,12.5c-2.3,13.7-8.2,37.8-13,52.8c-1.7,5.3-3.1,10.1-3.1,10.7
	c0,0.5,4.3,1.8,9.5,2.7c14.1,2.6,35.1,1.7,46-1.8c17.1-5.6,30.6-17,38.9-33c3.5-6.7,3.6-7.1,3.6-18.5
	c-0.1-43.9-16.3-81.2-44.8-103.3l-3.3-2.5l6.2-3.9c3.4-2.1,7.6-5.1,9.5-6.7c3.2-2.8,3.3-3.1,1.9-5.7c-0.7-1.5-3.2-4.4-5.5-6.5
	l-4.1-3.7l-8.2,7.2c-27.5,23.9-62.5,38.1-105.5,43c-15.9,1.8-55.7,0.7-70.7-2c-39.1-6.8-69.3-20.7-93.8-43.1c-3-2.7-5.8-5-6.3-5
	C531,354,528.5,356.2,526,358.8z"/>
<linearGradient id="region-3-7_00000045612481982682127280000008313633762099165621_" gradientUnits="userSpaceOnUse" x1="-1171.0894" y1="-20.9439" x2="-1171.0894" y2="-21.944" gradientTransform="matrix(21.87 0 0 -28.53 26430.5605 -230.4493)">
	<stop  offset="0" style="stop-color:#A82C4C;stop-opacity:0.77"/>
	<stop  offset="1" style="stop-color:#A12256;stop-opacity:0.81"/>
</linearGradient>
<path id="region-3-7" style="fill:url(#region-3-7_00000045612481982682127280000008313633762099165621_);" d="M824.4,369.1
	c-1,1.1-5.1,4.1-9.1,6.6l-7.4,4.7l3.3,2.5c1.8,1.4,5.8,4.9,8.9,7.9l5.7,5.3l1.6-4.3c2.5-6,3-12.8,1.6-18.7
	C827.6,367,826.9,366.4,824.4,369.1z"/>
<linearGradient id="region-3-8_00000173161544151614584920000010884733304570000047_" gradientUnits="userSpaceOnUse" x1="-1231.9042" y1="-2.5207" x2="-1231.0741" y2="-3.6108" gradientTransform="matrix(141.27 0 0 -176.33 174864.9062 -66.4533)">
	<stop  offset="0" style="stop-color:#563421;stop-opacity:0.19"/>
	<stop  offset="1" style="stop-color:#A36144;stop-opacity:0.5"/>
</linearGradient>
<path id="region-3-8" style="fill:url(#region-3-8_00000173161544151614584920000010884733304570000047_);" d="M827.7,390.7
	c-0.9,3-1.4,5.9-1.1,6.5c0.4,0.6,2.8,3.8,5.3,7.2c5.9,7.8,10.3,16.2,15,28.4c2,5.3,6.2,14,9.4,19.3c7.9,13.1,13.4,26,22.1,51.7
	c11.7,34.6,20.5,50.1,31.8,55.8c3.2,1.6,7.7,1.9,13.5,0.9c4.9-0.9,12-1.5,15.9-1.3c6.5,0.2,7.6-0.1,11.5-2.7
	c5.2-3.7,11.4-11.3,14.5-18c3.5-7.4,3.2-7.8-3.9-4.5c-24.2,11.4-42.4,1.8-59.1-30.9c-5-9.8-8.4-18.1-23.9-58.1
	c-6.4-16.4-12-26.4-20.2-36.3c-5.6-6.8-18.1-17.3-25.2-21.3l-3.8-2.2L827.7,390.7L827.7,390.7z"/>
<linearGradient id="region-3-9_00000057106671121205274390000016711687529758432156_" gradientUnits="userSpaceOnUse" x1="-1235.8591" y1="-2.331" x2="-1235.8591" y2="-3.331" gradientTransform="matrix(235.19 0 0 -187.93 291335.3125 -6.6399)">
	<stop  offset="0" style="stop-color:#FA9B70;stop-opacity:0.8"/>
	<stop  offset="1" style="stop-color:#FFB37F;stop-opacity:0.71"/>
</linearGradient>
<path id="region-3-9" style="fill:url(#region-3-9_00000057106671121205274390000016711687529758432156_);" d="M587.2,436.7
	c-23.1,29.7-34.6,70.3-30.3,107s20.8,57.6,54.1,68.7c20.7,6.9,49.9,9.7,79.1,7.7c40.8-2.7,66.8-12.8,82-31.7c2.1-2.7,5-6.1,6.4-7.6
	c5-5.4,10.3-20.4,12-34.1l0.7-5.7h-7.8c-9.1,0-25.4-2.7-25.4-4.3c0-0.5,1.4-5.3,3.1-10.6c4.8-15,10.7-39.1,13-52.8l2-12.5l-4.2-7.2
	c-4.6-7.7-7.9-12.4-12.2-17.5l-2.7-3.3l-13.3,3.6c-24.8,6.6-42.6,8.9-69.2,8.8c-26.3,0-53.5-3.8-74.5-10.2
	C591.3,432.3,590.6,432.4,587.2,436.7L587.2,436.7z"/>
<linearGradient id="region-3-10_00000178169197595907617600000001183322734144319874_" gradientUnits="userSpaceOnUse" x1="-1219.1855" y1="-4.4708" x2="-1217.9255" y2="-4.3607" gradientTransform="matrix(65.45 0 0 -127.82 80225.9766 -58.8593)">
	<stop  offset="0" style="stop-color:#EFD5B7;stop-opacity:0.72"/>
	<stop  offset="1" style="stop-color:#FFF4D5;stop-opacity:0.84"/>
</linearGradient>
<path id="region-3-10" style="fill:url(#region-3-10_00000178169197595907617600000001183322734144319874_);" d="M495.6,447.7
	c-8.8,13.7-16.7,31.7-25.1,57.3c-5.1,15.4-21.1,46.5-26.5,51.4c-2.2,2-5.1,3.8-6.5,4.2c-1.4,0.3-2.5,0.9-2.5,1.3
	c0,0.3,3.3,1.9,7.3,3.6c3.9,1.6,7.5,3.1,7.9,3.3c0.5,0.2,0.8-1,0.8-2.6c0-6.5,5.1-23,10.4-33.7c5.4-11,13.4-20.9,20.9-26.1
	c2.5-1.7,2.9-2.9,4.3-12.4c1.9-12.6,7.1-33.4,11.2-44.8c1.7-4.5,2.9-8.2,2.6-8.2C500.2,441,498,444,495.6,447.7L495.6,447.7z"/>
<linearGradient id="region-3-11_00000137111461605110955980000005410677676069198743_" gradientUnits="userSpaceOnUse" x1="-1218.3925" y1="-3.9848" x2="-1218.3925" y2="-4.9847" gradientTransform="matrix(64.73 0 0 -125.51 79749.4844 -52.9299)">
	<stop  offset="0" style="stop-color:#FFE1C6;stop-opacity:0.81"/>
	<stop  offset="1" style="stop-color:#FFF0CB;stop-opacity:0.8"/>
</linearGradient>
<path id="region-3-11" style="fill:url(#region-3-11_00000137111461605110955980000005410677676069198743_);" d="M852.2,451.7
	c1,4.9,3,13.5,4.3,19.3c3.1,13.7,5.5,26.5,5.5,29.9c0,2,0.7,3.1,2.4,3.9c1.3,0.6,5.4,3.9,9.1,7.4c6.1,5.7,7.4,7.7,14.2,21.6
	c5.9,12,7.9,17.4,9.5,25c1,5.3,2,9.7,2.1,9.7c0.1,0.1,3.8-1.3,8.1-3.1l7.9-3.2l-4.9-2.5c-11.5-5.8-20.2-21.1-32-55.9
	c-8.7-25.5-14.2-38.6-21.9-51.5c-3.1-5.1-5.7-9.3-5.9-9.3S851.2,446.9,852.2,451.7L852.2,451.7z"/>
<linearGradient id="region-3-12_00000129897856469257181410000014348580180571802002_" gradientUnits="userSpaceOnUse" x1="-1231.6832" y1="-2.1136" x2="-1230.6932" y2="-3.1236" gradientTransform="matrix(138.21 0 0 -199.4 170966.3125 81.0787)">
	<stop  offset="0" style="stop-color:#4B1100;stop-opacity:0"/>
	<stop  offset="1" style="stop-color:#390E00;stop-opacity:0.29"/>
</linearGradient>
<path id="region-3-12" style="fill:url(#region-3-12_00000129897856469257181410000014348580180571802002_);" d="M863.4,532.1
	c0,25.1-1.6,40.1-4.9,47.3c-0.7,1.7-2.5,6.6-3.9,10.9c-10.3,31.1-30.1,53.8-60.1,68.9c-12.3,6.2-32.2,12.8-47.5,15.8
	c-6.3,1.2-13,2.5-14.8,2.8c-3.3,0.7-3,0.9,10.5,8.8c7.6,4.5,19.1,10.9,25.5,14.3l11.7,6.2l4.8-2.7c7.4-4.2,16.9-11.1,23.6-17.1
	c24.9-22.2,45.8-59.2,53.6-94.8c1.2-5.5,2.6-10.8,3.2-11.7c1.1-2.2,2.6-12.7,3.4-24.3c0.7-10.8-0.9-31.1-3.3-41.4l-1.7-7.4
	L863.4,532.1z"/>
<linearGradient id="region-3-13_00000151509667329307156080000000552383186865760402_" gradientUnits="userSpaceOnUse" x1="-1231.7657" y1="-2.4896" x2="-1230.5857" y2="-3.3496" gradientTransform="matrix(137.23 0 0 -189.4 169496.6719 80.8912)">
	<stop  offset="0" style="stop-color:#452F00;stop-opacity:0"/>
	<stop  offset="1" style="stop-color:#402E18;stop-opacity:0.21"/>
</linearGradient>
<path id="region-3-13" style="fill:url(#region-3-13_00000151509667329307156080000000552383186865760402_);" d="M482.3,526.6
	c-2.7,19.3-0.8,51.9,4.2,70.8c8.1,30.9,24.1,60.5,44.4,81.9c9.1,9.5,22.1,19.8,31.1,24.6l5.6,3l12.3-6.5c6.8-3.5,18.2-9.9,25.4-14.1
	l13-7.7l-12.9-2.3c-46.5-8.5-77.1-25.1-97.6-53c-8.2-11.2-18.1-33-19.3-42.9c-0.3-1.8-1.2-7.3-2.1-12.1c-0.9-5.1-1.9-17.6-2.3-29.8
	l-0.6-21L482.3,526.6L482.3,526.6z"/>
<linearGradient id="region-3-14_00000118395576557935448040000005425924430056560299_" gradientUnits="userSpaceOnUse" x1="-1231.6393" y1="-2.8889" x2="-1230.9492" y2="-4.0589" gradientTransform="matrix(139.25 0 0 -157.27 171880.2812 107.9214)">
	<stop  offset="0" style="stop-color:#DB8B5D;stop-opacity:0.76"/>
	<stop  offset="1" style="stop-color:#E89365;stop-opacity:0.77"/>
</linearGradient>
<path id="region-3-14" style="fill:url(#region-3-14_00000118395576557935448040000005425924430056560299_);" d="M393.5,579.2
	c-17.8,3.3-33.3,20.2-38.1,41.4c-2.3,10.5-1.5,32.7,1.6,43.4c2.7,9.4,9.4,23.8,15,32.1c5.5,8.1,18.7,21.3,26.5,26.4
	c22.9,15,50.5,17.2,68.9,5.4c26.6-16.8,33.8-58.5,16.6-95.5c-12.5-27-36-48.1-58.8-52.9C417.3,577.9,401.6,577.7,393.5,579.2
	L393.5,579.2z"/>
<linearGradient id="region-3-15_00000037674996233339220760000016079363284439806628_" gradientUnits="userSpaceOnUse" x1="-1231.6121" y1="-2.877" x2="-1230.9921" y2="-4.057" gradientTransform="matrix(139.13 0 0 -157.89 172233.375 105.4844)">
	<stop  offset="0" style="stop-color:#D27F50;stop-opacity:0.6"/>
	<stop  offset="1" style="stop-color:#E28A5F;stop-opacity:0.61"/>
</linearGradient>
<path id="region-3-15" style="fill:url(#region-3-15_00000037674996233339220760000016079363284439806628_);" d="M927,579
	c-1.4,0.4-4.1,0.8-6,0.9c-4.4,0.1-16.5,5.8-24.5,11.6c-7.6,5.5-18.9,17.1-24.4,25.4c-6,8.9-12.5,23-15.2,33.1
	c-1.9,7.1-2.3,11-2.3,24c0,14.4,0.2,16.1,2.7,23.5c3.8,10.8,8,17.6,15.2,24.4c9.5,8.8,22.7,14,35.8,14.1c6.3,0,18.9-2.6,25.2-5.3
	c19.9-8.4,39-26.7,49.4-47.5s13.5-45.2,8.6-64.7c-2.4-9.4-8.2-20-14.5-26.4c-6.9-7-13-10.7-21.2-12.6
	C949.1,577.9,931.3,577.6,927,579z"/>
<linearGradient id="region-4-1_00000104695577199428622510000014977970674396457110_" gradientUnits="userSpaceOnUse" x1="-1152.2302" y1="-38.5812" x2="-1151.0903" y2="-38.8412" gradientTransform="matrix(17.18 0 0 -15.96 20390.2402 -411.46)">
	<stop  offset="0" style="stop-color:#76543D;stop-opacity:0.79"/>
	<stop  offset="1" style="stop-color:#7E5A43;stop-opacity:0.8"/>
</linearGradient>
<path id="region-4-1" style="fill:url(#region-4-1_00000104695577199428622510000014977970674396457110_);" d="M595.2,199.2
	c-2.9,2.9-0.2,10.2,4.8,13.2c3.3,1.9,8.1,2.1,9.8,0.4c4.4-4.4-2.4-14.8-9.6-14.8C598.1,198,595.9,198.5,595.2,199.2L595.2,199.2z"/>
<linearGradient id="region-4-2_00000151509123401555628670000018032469029834472069_" gradientUnits="userSpaceOnUse" x1="-1149.0908" y1="-38.9593" x2="-1147.9509" y2="-38.6593" gradientTransform="matrix(16.6 0 0 -15.86 19824.8906 -409.08)">
	<stop  offset="0" style="stop-color:#755740;stop-opacity:0.79"/>
	<stop  offset="1" style="stop-color:#7C5C42;stop-opacity:0.81"/>
</linearGradient>
<path id="region-4-2" style="fill:url(#region-4-2_00000151509123401555628670000018032469029834472069_);" d="M754.3,198.7
	c-1.8,0.7-1.6,7.4,0.3,10.1c3.5,5,12.4,7,14.4,3.1c2.8-5.1-3.9-14-10.3-13.8C756.9,198.1,754.9,198.4,754.3,198.7L754.3,198.7z"/>
<linearGradient id="region-4-3_00000093149244535682765060000007211771232444388030_" gradientUnits="userSpaceOnUse" x1="-1213.7537" y1="-23.0084" x2="-1213.7537" y2="-24.0083" gradientTransform="matrix(54.31 0 0 -26.07 66592.8125 -363.8593)">
	<stop  offset="0" style="stop-color:#081511;stop-opacity:0.44"/>
	<stop  offset="1" style="stop-color:#000C07;stop-opacity:0.47"/>
</linearGradient>
<path id="region-4-3" style="fill:url(#region-4-3_00000093149244535682765060000007211771232444388030_);" d="M664.3,234
	c-10.9,2.3-17.4,7.3-17.6,13.5c-0.1,3,0.5,4.3,3.1,6.6c4.6,4.1,10.1,5.4,23.7,5.4c13.6,0,20.2-1.4,24.5-5.5c6.5-6.1,2-15.1-9.3-18.5
	C682.2,233.6,669.9,232.8,664.3,234L664.3,234z"/>
<linearGradient id="region-4-4_00000171687473629582447360000011415038617662898827_" gradientUnits="userSpaceOnUse" x1="-1223.8547" y1="-8.2679" x2="-1222.7347" y2="-8.5978" gradientTransform="matrix(81.2 0 0 -69.71 100001.7344 -313.4491)">
	<stop  offset="0" style="stop-color:#57402F;stop-opacity:0.69"/>
	<stop  offset="1" style="stop-color:#351E10;stop-opacity:0.82"/>
</linearGradient>
<path id="region-4-4" style="fill:url(#region-4-4_00000171687473629582447360000011415038617662898827_);" d="M642.4,245.4
	c-4,3.9-4.4,4.8-4.4,9.1c0,4.3,0.5,5.2,3.5,8c4.2,4.1,10.3,6.2,21.7,7.6l8.8,1.2v12c0,14.5-1.2,17.2-9.5,21.2
	c-4.3,2.2-6.2,2.6-9.4,2c-5.2-0.9-9.8-4-13.6-9.2c-3.3-4.6-3.4-4.7-5.5-3.3c-1.8,1.1-0.1,4.5,4.9,9.6c5.4,5.4,8.7,6.8,16.1,6.8
	c7.4,0,13.3-2.5,16.8-6.8l1.9-2.5l2.4,2.5c5.4,5.8,14.9,8.5,22.4,6.4c7.8-2.2,18.9-13.9,15.3-16.1c-2-1.3-2.2-1.2-4.1,2
	c-4.6,7.9-13.8,12.3-21.2,10.1c-10.4-3.1-12.5-7-12.5-22.8v-12l5.8-0.6c22.4-2.5,32.4-10.6,26.7-21.6c-1.4-2.7-7.3-8-8.9-8
	c-0.4,0-0.2,0.9,0.4,1.9c3.2,6.2-0.9,12.6-9.7,15.2c-6.1,1.8-27.2,1.8-33.1,0.1c-6.5-2-10.6-6.1-10.5-10.6c0.1-2,0.7-4.3,1.3-5.1
	c1-1.2,1-1.5,0-1.5C647.3,241,644.8,243,642.4,245.4L642.4,245.4z"/>
<linearGradient id="region-4-5_00000091724010815713861180000004813710021241005187_" gradientUnits="userSpaceOnUse" x1="-1236.4247" y1="-6.9896" x2="-1236.4247" y2="-7.9896" gradientTransform="matrix(256.82 0 0 -78.34 318185 -180.6871)">
	<stop  offset="0" style="stop-color:#9E344B;stop-opacity:0.71"/>
	<stop  offset="1" style="stop-color:#962C62;stop-opacity:0.81"/>
</linearGradient>
<path id="region-4-5" style="fill:url(#region-4-5_00000091724010815713861180000004813710021241005187_);" d="M519.1,370.1
	c-0.6,1.8-1.1,6.4-1.1,10.3c0,13.1,5.3,20.6,20.7,29.5c22.7,12.9,53.8,24.4,81.7,30.1c32.2,6.6,69.6,7.1,101.6,1.4
	c18.9-3.4,51.7-13.4,52.7-16.2c0.9-2.2-3.4-14.5-6.6-19l-3-4l-12.8,4.3c-13.4,4.5-29.9,8.5-44.3,10.7c-13.4,2-54.7,1.7-69-0.5
	c-25.6-4.1-54-12.9-77.5-24.2c-14-6.8-32-17.6-36.5-22c-2-1.9-3.9-3.5-4.2-3.5C520.5,367,519.7,368.4,519.1,370.1L519.1,370.1z"/>
<linearGradient id="region-4-6_00000085236645626234175310000017064167278601858464_" gradientUnits="userSpaceOnUse" x1="-1164.7426" y1="-17.4136" x2="-1164.7426" y2="-18.4137" gradientTransform="matrix(20.09 0 0 -34 24166.5215 -167.2109)">
	<stop  offset="0" style="stop-color:#7C9C5E;stop-opacity:0.44"/>
	<stop  offset="1" style="stop-color:#719D52;stop-opacity:0.49"/>
</linearGradient>
<path id="region-4-6" style="fill:url(#region-4-6_00000085236645626234175310000017064167278601858464_);" d="M765.6,429.4
	l-8.8,3.3l2.9,3.4c3.7,4.3,8.2,10.8,12.6,18.2l3.4,5.8l0.7-4.7c1.1-8.6,0.2-29.5-1.3-29.3C774.8,426.1,770.5,427.6,765.6,429.4
	L765.6,429.4z"/>
<linearGradient id="region-4-7_00000013179307905726204700000006154987207270112948_" gradientUnits="userSpaceOnUse" x1="-1238.5448" y1="-2.5831" x2="-1238.5448" y2="-3.5831" gradientTransform="matrix(394.55 0 0 -174.56 489246.0938 -63.906)">
	<stop  offset="0" style="stop-color:#74401F;stop-opacity:0.13"/>
	<stop  offset="1" style="stop-color:#AF7B59;stop-opacity:0.36"/>
</linearGradient>
<path id="region-4-7" style="fill:url(#region-4-7_00000013179307905726204700000006154987207270112948_);" d="M509.4,391.9
	c-13.3,9.3-24.3,21.9-31.4,36.1c-2,4.1-8.1,19-13.5,33c-11.1,28.9-18.4,45-24.9,54.8c-8.6,12.9-19.9,21.3-30.7,22.8
	c-5.3,0.7-15.1-1.5-22.4-5.1c-2.7-1.3-5.1-2.2-5.4-1.9c-1.1,1.1,6.3,13.9,10.6,18.6c8.1,8.6,8.7,8.8,22,9.3
	c6.5,0.2,13.5,0.8,15.6,1.5c4.9,1.5,9.6,0,14.8-4.7c5.3-4.8,21.4-36.1,26.4-51.3c5.5-16.6,11.6-32.3,16.5-42
	c3.6-7.1,6.2-11.4,14.2-23.4c0.4-0.6,3-6.1,5.8-12.1l5.1-11l9.4,0.6c19,1.4,33.4,6.4,83.3,28.5c58.1,25.8,83.6,33.9,114.2,35.9
	c16.2,1.1,36.9-2.2,49.9-8.1c3.9-1.7,6-4.3,6.4-7.7c0.6-4.8,0.3-5.7-3.5-12.2c-4.5-7.6-7.8-12.3-12.1-17.4l-2.7-3.3l-13.3,3.6
	c-24.8,6.6-42.6,8.9-69.2,8.8c-27.7,0-49.7-3.1-76.2-10.7c-28.2-8.1-62.8-24-72-33.3c-2-1.9-4.7-5.9-6-8.9c-1.3-2.9-2.8-5.3-3.2-5.3
	C516.7,387,513.2,389.2,509.4,391.9L509.4,391.9z"/>
<linearGradient id="region-4-8_00000067230746868940476110000006343789982475681458_" gradientUnits="userSpaceOnUse" x1="-1225.6274" y1="-5.0692" x2="-1224.8174" y2="-6.1892" gradientTransform="matrix(90.21 0 0 -102.3 110943.4609 81.8122)">
	<stop  offset="0" style="stop-color:#EB9C6E;stop-opacity:0.75"/>
	<stop  offset="1" style="stop-color:#FBA97B;stop-opacity:0.79"/>
</linearGradient>
<path id="region-4-8" style="fill:url(#region-4-8_00000067230746868940476110000006343789982475681458_);" d="M396.5,610.4
	c-23,7.2-31,38.7-16.9,67.2c9.9,20.1,28.8,33.5,47.4,33.8c11,0.1,17-2.3,24.6-9.8c7.6-7.6,10.4-14.3,11.1-26.7
	c2.1-33.3-25.1-66-54.7-65.8C403.9,609.1,398.7,609.7,396.5,610.4L396.5,610.4z"/>
<linearGradient id="region-4-9_00000093169116098640853410000004927514981506438827_" gradientUnits="userSpaceOnUse" x1="-1225.4154" y1="-4.9946" x2="-1225.0254" y2="-6.1745" gradientTransform="matrix(90.41 0 0 -102.63 111701.5 85.9846)">
	<stop  offset="0" style="stop-color:#E99A6D;stop-opacity:0.76"/>
	<stop  offset="1" style="stop-color:#FCAA7B;stop-opacity:0.8"/>
</linearGradient>
<path id="region-4-9" style="fill:url(#region-4-9_00000093169116098640853410000004927514981506438827_);" d="M927.5,610.4
	c-17,5.4-32,20.4-39,38.9c-5.3,14.3-5.4,30.7-0.1,42.3c6.7,14.6,22.1,22.4,38.1,19.5c29.7-5.4,53.3-41.2,47.5-72.2
	c-2.4-13-10.8-23.8-21.6-27.9C946.1,608.7,933.9,608.4,927.5,610.4z"/>
<g>
	<line class="st33" x1="1018.1" y1="660.2" x2="1089.2" y2="660.2"/>
	<path d="M1107.3,660.2c-8.5,3.2-19.1,8.5-25.6,14.3l5.2-14.3l-5.2-14.3C1088.2,651.7,1098.8,657.1,1107.3,660.2z"/>
</g>
<linearGradient id="region-3-14_00000045603300514570530150000012705544963408301225_" gradientUnits="userSpaceOnUse" x1="-1233.4662" y1="-2.9106" x2="-1232.7761" y2="-4.0806" gradientTransform="matrix(139.25 0 0 -157.27 171880.2812 107.9214)">
	<stop  offset="0" style="stop-color:#DB8B5D;stop-opacity:0.76"/>
	<stop  offset="1" style="stop-color:#E89365;stop-opacity:0.77"/>
</linearGradient>
<path id="region-3-14_00000058561616077762575260000004926607708523970468_" style="fill:url(#region-3-14_00000045603300514570530150000012705544963408301225_);" d="
	M139.1,582.6c-17.8,3.3-33.3,20.2-38.1,41.4c-2.3,10.5-1.5,32.7,1.6,43.4c2.7,9.4,9.4,23.8,15,32.1c5.5,8.1,18.7,21.3,26.5,26.4
	c22.9,15,50.5,17.2,68.9,5.4c26.6-16.8,33.8-58.5,16.6-95.5c-12.5-27-36-48.1-58.8-52.9C162.9,581.3,147.2,581.1,139.1,582.6
	L139.1,582.6z"/>
<linearGradient id="region-4-8_00000050627669037681940850000016819038867761927063_" gradientUnits="userSpaceOnUse" x1="-1229.7579" y1="-5.0993" x2="-1228.9479" y2="-6.2193" gradientTransform="matrix(90.21 0 0 -102.3 110943.4609 81.8122)">
	<stop  offset="0" style="stop-color:#EB9C6E;stop-opacity:0.75"/>
	<stop  offset="1" style="stop-color:#FBA97B;stop-opacity:0.79"/>
</linearGradient>
<path id="region-4-8_00000154418210510086578690000017155120982592807841_" style="fill:url(#region-4-8_00000050627669037681940850000016819038867761927063_);" d="
	M23.9,613.5c-23,7.2-31,38.7-16.9,67.2c9.9,20.1,28.8,33.5,47.4,33.8c11,0.1,17-2.3,24.6-9.8c7.6-7.6,10.4-14.3,11.1-26.7
	c2.1-33.3-25.1-66-54.7-65.8C31.3,612.2,26.1,612.8,23.9,613.5L23.9,613.5z"/>
<rect x="343" y="568.5" class="st36" width="163" height="176.5"/>
<rect x="848.2" y="568.5" class="st36" width="163" height="176.5"/>
<linearGradient id="region-4-9_00000152955005693862942210000010159217967848329398_" gradientUnits="userSpaceOnUse" x1="-1220.8341" y1="-4.9621" x2="-1220.4442" y2="-6.1422" gradientTransform="matrix(90.41 0 0 -102.63 111701.5 85.9846)">
	<stop  offset="0" style="stop-color:#E99A6D;stop-opacity:0.76"/>
	<stop  offset="1" style="stop-color:#FCAA7B;stop-opacity:0.8"/>
</linearGradient>
<path id="region-4-9_00000086668055417750253030000010593037785571026876_" style="fill:url(#region-4-9_00000152955005693862942210000010159217967848329398_);" d="
	M1341.7,607.1c-17,5.4-32,20.4-39,38.9c-5.3,14.3-5.4,30.7-0.1,42.3c6.7,14.6,22.1,22.4,38.1,19.5c29.7-5.4,53.3-41.2,47.5-72.2
	c-2.4-13-10.8-23.8-21.6-27.9C1360.3,605.4,1348.1,605.1,1341.7,607.1z"/>
<linearGradient id="region-3-15_00000172413780445429477660000000641255279601352850_" gradientUnits="userSpaceOnUse" x1="-1229.7161" y1="-2.9168" x2="-1229.0961" y2="-4.0969" gradientTransform="matrix(139.13 0 0 -157.89 172233.375 105.4844)">
	<stop  offset="0" style="stop-color:#D27F50;stop-opacity:0.6"/>
	<stop  offset="1" style="stop-color:#E28A5F;stop-opacity:0.61"/>
</linearGradient>
<path id="region-3-15_00000065765469080876547310000000344367693619591331_" style="fill:url(#region-3-15_00000172413780445429477660000000641255279601352850_);" d="
	M1190.8,585.3c-1.4,0.4-4.1,0.8-6,0.9c-4.4,0.1-16.5,5.8-24.5,11.6c-7.6,5.5-18.9,17.1-24.4,25.4c-6,8.9-12.5,23-15.2,33.1
	c-1.9,7.1-2.3,11-2.3,24c0,14.4,0.2,16.1,2.7,23.5c3.8,10.8,8,17.6,15.2,24.4c9.5,8.8,22.7,14,35.8,14.1c6.3,0,18.9-2.6,25.2-5.3
	c19.9-8.4,39-26.7,49.4-47.5s13.5-45.2,8.6-64.7c-2.4-9.4-8.2-20-14.5-26.4c-6.9-7-13-10.7-21.2-12.6
	C1212.9,584.2,1195.1,583.9,1190.8,585.3z"/>
<g>
	<line class="st33" x1="343" y1="649.1" x2="260.1" y2="649.1"/>
	<path d="M238.9,649.1c9.9,3.2,22.3,8.5,29.9,14.3l-6.1-14.3l6.1-14.3C261.2,640.6,248.9,646,238.9,649.1z"/>
</g>
</svg>
