<?xml version="1.0" encoding="utf-8"?>
<!-- Generator: Adobe Illustrator 26.5.0, SVG Export Plug-In . SVG Version: 6.00 Build 0)  -->
<svg version="1.1" id="图层_1" xmlns="http://www.w3.org/2000/svg" xmlns:xlink="http://www.w3.org/1999/xlink" x="0px" y="0px"
	 viewBox="0 0 2115.2 449" style="enable-background:new 0 0 2115.2 449;" xml:space="preserve">
<style type="text/css">
	.st0{fill:none;}
	.st1{fill:#D3D3D3;}
	.st2{clip-path:url(#SVGID_00000127037962395852949670000000959870133947318418_);}
	.st3{fill:url(#SVGID_00000063606798629832126270000005945109829275291013_);}
	.st4{fill:url(#SVGID_00000060013841046696314600000011801781904745075598_);}
	.st5{fill:url(#SVGID_00000060015812067447777470000003454452512163424440_);}
	.st6{fill:url(#SVGID_00000078727675368873184530000003109289206042210695_);}
	.st7{fill:url(#SVGID_00000075881463563247427350000008442913293873166226_);}
	.st8{fill:url(#SVGID_00000045594904139092966640000013768198065647763625_);}
	.st9{fill:url(#SVGID_00000037658579053308416310000003035010859679925179_);}
	.st10{fill:url(#SVGID_00000119836791224303840700000016187763406104354995_);}
	.st11{fill:url(#SVGID_00000117668482572937042250000017872509608223972780_);}
	.st12{fill:url(#SVGID_00000109720680293633216710000007342085671085683591_);}
	.st13{fill:url(#SVGID_00000070110209203972790370000018233356024229415570_);}
	.st14{fill:url(#SVGID_00000124872136935457311960000014781453066212235667_);}
	.st15{fill:url(#SVGID_00000049216766085451493740000016153156168815457927_);}
	.st16{fill:url(#SVGID_00000127725988040713625560000003961078948273542837_);}
	.st17{fill:url(#SVGID_00000067209252296839252900000005412437535932662951_);}
	.st18{fill:url(#SVGID_00000135686435694216717590000017505773393064274322_);}
	.st19{fill:url(#SVGID_00000028313257282753931390000015832262761391858097_);}
	.st20{fill:url(#SVGID_00000094607034629180447320000007273137347412918956_);}
	.st21{fill:url(#SVGID_00000045591307509188129970000016603481523234903209_);}
	.st22{fill:url(#SVGID_00000074400760955510989800000007167087791735954087_);}
	.st23{fill:url(#SVGID_00000051362315507739585360000015570775674510462130_);}
	.st24{fill:url(#SVGID_00000082359337395673022670000014728447358125772729_);}
	.st25{fill:url(#SVGID_00000013194670013436994560000003250890102547821229_);}
	.st26{fill:url(#SVGID_00000014609907043685435770000009913028905570162110_);}
	.st27{fill:url(#SVGID_00000128451004476966027090000012415718265844212658_);}
	.st28{fill:url(#SVGID_00000114041948807444176190000017446468575442155906_);}
	.st29{fill:url(#SVGID_00000129207478381849443630000014607327252721449396_);}
	.st30{fill:url(#SVGID_00000053543097804109010690000016609573738399657139_);}
	.st31{fill:url(#SVGID_00000065779554592219053020000014066656015043912117_);}
	.st32{fill:url(#SVGID_00000173864293676849624870000017848315425983055260_);}
	.st33{fill:url(#SVGID_00000031193862695967005860000005240337766345786536_);}
	.st34{fill:url(#SVGID_00000062878784287927645520000010566204869271176836_);}
	.st35{fill:url(#SVGID_00000133525356614166311880000016908427790368006056_);stroke:#000000;stroke-miterlimit:10;}
	.st36{fill:url(#SVGID_00000127734855679551969380000018093532315312820663_);stroke:#000000;stroke-miterlimit:10;}
	.st37{fill:url(#SVGID_00000173160642875996918250000015180214523528154758_);stroke:#000000;stroke-miterlimit:10;}
	.st38{fill:url(#SVGID_00000037664014989386499240000010353027304690805897_);stroke:#000000;stroke-miterlimit:10;}
	.st39{fill:url(#SVGID_00000076569319953830753030000011419787290275833018_);stroke:#000000;stroke-miterlimit:10;}
	.st40{fill:url(#SVGID_00000021810317674172246800000013772801142297532051_);stroke:#000000;stroke-miterlimit:10;}
	.st41{fill:url(#SVGID_00000073691531554023210260000007415540215128209555_);stroke:#000000;stroke-miterlimit:10;}
	.st42{fill:url(#SVGID_00000080204657087738953460000013858798432815406466_);stroke:#000000;stroke-miterlimit:10;}
	.st43{fill:url(#SVGID_00000117651908123192705480000015346810320095439533_);stroke:#000000;stroke-miterlimit:10;}
	.st44{fill:url(#SVGID_00000034090091982370368260000014762104124852224680_);stroke:#000000;stroke-miterlimit:10;}
	.st45{fill:url(#SVGID_00000114041098366364968210000009181438751963080332_);stroke:#000000;stroke-miterlimit:10;}
	.st46{fill:url(#SVGID_00000049182073259312273660000018117183630597436562_);stroke:#000000;stroke-miterlimit:10;}
	.st47{fill:url(#SVGID_00000078036182088184050960000014754339888285985165_);stroke:#000000;stroke-miterlimit:10;}
	.st48{fill:none;stroke:#000000;stroke-width:3;stroke-miterlimit:10;}
	.st49{fill:url(#SVGID_00000055695097944259636570000009971597484420667565_);}
</style>
<pattern  y="449" width="40" height="40" patternUnits="userSpaceOnUse" id="SVGID_0000000670537511533939726" viewBox="0 -40 40 40" style="overflow:visible;">
	<g>
		<rect y="-40" class="st0" width="40" height="40"/>
		<g>
			<rect y="-40" class="st0" width="40" height="40"/>
			<g>
				<rect y="-40" class="st0" width="40" height="40"/>
				<g>
					<rect y="-40" class="st0" width="40" height="40"/>
					<g>
						<rect y="-40" class="st0" width="40" height="40"/>
						<g>
							<rect y="-40" class="st0" width="40" height="40"/>
							<g>
								<rect y="-40" class="st0" width="40" height="40"/>
								<g>
									<polygon class="st0" points="0,0 40,0 40,-40 0,-40 									"/>
									<polygon class="st1" points="0,-20 20,-20 20,-40 0,-40 									"/>
									<polygon class="st1" points="20,0 40,0 40,-20 20,-20 									"/>
								</g>
							</g>
						</g>
					</g>
				</g>
			</g>
		</g>
	</g>
</pattern>
<g id="_图层_2">
	<g>
		<g>
			<g>
				<defs>
					<rect id="SVGID_1_" width="2115.2" height="449"/>
				</defs>
				<clipPath id="SVGID_00000083048327386718823590000006021169400964725910_">
					<use xlink:href="#SVGID_1_"  style="overflow:visible;"/>
				</clipPath>
				<g style="clip-path:url(#SVGID_00000083048327386718823590000006021169400964725910_);">
					
						<pattern  id="SVGID_00000150089861611039373070000005224912894794615199_" xlink:href="#SVGID_0000000670537511533939726" patternTransform="matrix(1 0 0 1 85.85 18045.1094)">
					</pattern>
					<rect style="fill:url(#SVGID_00000150089861611039373070000005224912894794615199_);" width="2113.9" height="448.7"/>
				</g>
			</g>
		</g>
	</g>
</g>
<linearGradient id="SVGID_00000026140973229428424650000014102068578740044689_" gradientUnits="userSpaceOnUse" x1="-1395.2432" y1="-2.3188" x2="-1394.2432" y2="-2.3188" gradientTransform="matrix(580 0 0 -447 809242.75 -812)">
	<stop  offset="0" style="stop-color:#72552A"/>
	<stop  offset="1" style="stop-color:#72552A"/>
</linearGradient>
<path style="fill:url(#SVGID_00000026140973229428424650000014102068578740044689_);" d="M154.6,3c-2.3,1-6.7,4.3-9.8,7.2l-5.6,5.3
	l-16.7-0.3c-19.9-0.5-31.1,1.1-48.1,6.9l-11.5,3.8l-4.5-4.3c-7.6-7.4-12-9.1-23-9.1c-7.9,0-10.2,0.4-13.6,2.2
	c-9.4,5-14.4,11.4-17,21.5c-2.3,9-0.1,20.2,5.5,26.8l2.8,3.4l-3.7,8.1C7.3,78.9,4.5,86.3,3,90.8c-2.4,7.7-2.6,9.6-2.6,27
	c0,39.6,6.5,57.3,35.9,98.1c16.7,23.2,21.3,33.6,35,78.7c15.6,51.8,25.9,80.1,37.8,103.9c14,28.1,25.6,40.9,42.9,47.1
	c5.5,2,8.4,2.4,18.8,2.4c14.6,0,19.8-1.5,32.1-8.9c25.3-15.4,43.6-20.9,72.5-21.8c14.8-0.4,19.3-0.2,29.6,1.5
	c21.1,3.6,35.2,9,52.4,19.8c12.6,7.9,17.8,9.4,32.6,9.4c19.8,0,28.3-4,45.1-21.3c16.7-17.2,33.4-41.2,46.2-66.6
	c8.7-17.3,11.7-24.9,15.1-38.6c4.6-18.1,8-46.9,8-67.6V245h4.8c11.9-0.1,26.8-6,40.1-16.1c15.5-11.6,23.9-24.3,28.6-43.3
	c2.3-9.1,2.5-11.7,2.5-32.7c0-23.6-0.6-29-5.1-44.4c-7.1-24.1-19.9-37.1-34.5-35.1c-6.1,0.8-10.5,3.6-13.2,8.4
	c-2.9,5.1-2.8,7.8,0.8,25.2c3.8,18.4,4,30.6,0.8,40c-1.8,5.5-3.3,7.7-10.2,14.6c-6.5,6.5-9.2,8.5-13.5,9.9c-6,1.9-11.8,1.6-15.7-1
	c-2.6-1.7-3.2-2.5-13.3-18C449.4,111.1,403,94.9,323.3,99c-28,1.4-48.2,0.9-57.5-1.6c-12.6-3.2-19.9-9-38.4-29.9
	c-7.3-8.3-15.4-17.3-18-20c-4.6-4.8-4.8-5.3-5.3-12c-0.8-10-3.9-17.4-10-24.2C186.5,3.1,181.4,1,168.8,1C161.1,1,157.8,1.5,154.6,3
	L154.6,3z"/>
<linearGradient id="SVGID_00000163777332710545640680000003885735949623228577_" gradientUnits="userSpaceOnUse" x1="-1389.8831" y1="-13.59" x2="-1389.6431" y2="-12.4999" gradientTransform="matrix(190.4 0 0 -93.12 264917.3125 -919.8541)">
	<stop  offset="0" style="stop-color:#F8E294"/>
	<stop  offset="1" style="stop-color:#FCECA7"/>
</linearGradient>
<path style="fill:url(#SVGID_00000163777332710545640680000003885735949623228577_);" d="M288.6,251c-2.3,0.5-5.5,1.5-7,2.4
	c-3.8,1.9-10.1,8.9-10.8,11.9c-0.6,2.4-0.8,2.4-10.1,1.9c-7.4-0.4-10.4-0.1-14,1.3c-9,3.4-14.7,10.6-16,20.2l-0.6,5l-6.2,0.5
	c-14.2,1.2-22.9,10.3-23,24.3c0,8.1,2.3,13.5,7.6,18c10.3,8.7,23.1,9.4,44.3,2.3c16.5-5.5,26.5-7.1,43.5-7.2
	c17.1-0.1,25.8,1.3,42.7,6.5c13.7,4.2,23.3,5.5,30.4,4c13.8-2.9,21.9-12,21.9-24.5c0-14.4-10.4-24.6-25-24.6h-4.7l-0.6-5.1
	c-1.2-9.8-8.4-18.2-18.2-20.9c-4.4-1.2-14.2-1-19.1,0.5c-1.7,0.5-2.3,0.2-2.7-1.8c-1-3.7-8.2-11.3-12.5-13
	C303.5,250.7,294,249.9,288.6,251L288.6,251z"/>
<linearGradient id="SVGID_00000042724127429064184570000013037818384317734017_" gradientUnits="userSpaceOnUse" x1="-1309.2799" y1="-36.6925" x2="-1308.2802" y2="-36.6925" gradientTransform="matrix(15.81 0 0 -33.92 21011.0293 -939.0706)">
	<stop  offset="0" style="stop-color:#D9A759"/>
	<stop  offset="1" style="stop-color:#D9A759"/>
</linearGradient>
<path style="fill:url(#SVGID_00000042724127429064184570000013037818384317734017_);" d="M322.5,290.3c-1.2,1.2-2.8,4.3-3.7,6.7
	c-2.2,6.2-5.5,20-5.5,23l0.1,2.5l2.4-3c3.7-4.5,13.6-24.5,13.3-26.8c-0.2-1.1-1.2-2.6-2.4-3.3C324.9,288.1,324.4,288.3,322.5,290.3
	L322.5,290.3z"/>
<linearGradient id="SVGID_00000057859330735924869010000003450415173286068383_" gradientUnits="userSpaceOnUse" x1="-1298.0028" y1="-175.1251" x2="-1297.0029" y2="-175.1251" gradientTransform="matrix(14.02 0 0 -7.18 18225.4805 -1097.1102)">
	<stop  offset="0" style="stop-color:#7D715B"/>
	<stop  offset="1" style="stop-color:#7D715B"/>
</linearGradient>
<path style="fill:url(#SVGID_00000057859330735924869010000003450415173286068383_);" d="M28.6,157.9c-0.9,1.3-0.1,1.9,5.1,3.8
	c7.2,2.7,8.6,2.8,8.6,0.8c0-1.6-3.7-3.8-9.1-5.3C30.4,156.4,29.5,156.5,28.6,157.9z"/>
<linearGradient id="SVGID_00000008110671026120604840000009189963706890853806_" gradientUnits="userSpaceOnUse" x1="-1329.896" y1="-161.6301" x2="-1328.8961" y2="-161.6301" gradientTransform="matrix(20.62 0 0 -7.75 27507.6602 -1095.6602)">
	<stop  offset="0" style="stop-color:#786C56"/>
	<stop  offset="1" style="stop-color:#786C56"/>
</linearGradient>
<path style="fill:url(#SVGID_00000008110671026120604840000009189963706890853806_);" d="M100.3,153.7c-5.4,0.9-11.9,3.5-12.4,5
	c-1,2.6,0.2,2.8,6.1,0.8c3.1-1.1,7.6-2,9.9-2h4.3l-2.1-2.3c-1.2-1.2-2.4-2.1-2.7-2.1C103.2,153.2,101.8,153.5,100.3,153.7z"/>
<linearGradient id="SVGID_00000009590849962897418940000003034008788971386801_" gradientUnits="userSpaceOnUse" x1="-1330.072" y1="-121.4605" x2="-1329.072" y2="-121.4605" gradientTransform="matrix(20.67 0 0 -10.34 27582.9395 -1084.7192)">
	<stop  offset="0" style="stop-color:#80745F"/>
	<stop  offset="1" style="stop-color:#80745F"/>
</linearGradient>
<path style="fill:url(#SVGID_00000009590849962897418940000003034008788971386801_);" d="M90.3,167.5c0,0.9,0.6,1.7,1.3,1.9
	c0.6,0.2,3.5,0.9,6.2,1.5c2.8,0.7,6.7,2.3,8.7,3.6c3.6,2.4,3.7,2.4,4.3,0.4c0.8-2.5-1.1-4.1-8.3-6.9
	C96.1,165.6,90.3,165.3,90.3,167.5z"/>
<linearGradient id="SVGID_00000084515534309841685910000003974570356322352523_" gradientUnits="userSpaceOnUse" x1="-1377.3588" y1="-18.5909" x2="-1376.3588" y2="-18.5909" gradientTransform="matrix(68.83 0 0 -66 95172.1875 -970)">
	<stop  offset="0" style="stop-color:#F8E59C"/>
	<stop  offset="1" style="stop-color:#F8E59C"/>
</linearGradient>
<path style="fill:url(#SVGID_00000084515534309841685910000003974570356322352523_);" d="M398.4,225.8c-3.2,1.7-6,5.7-7.4,10.4
	c-0.4,1.3-1.6,1.8-4.6,1.8c-14,0-20,16.6-9.5,25.9c3.5,3,3.5,3.1,2.3,7.5c-1,4-1,5.1,0.8,9.3c2.6,6.4,7,9.3,13.9,9.3
	c3.8,0,6.1-0.6,8.7-2.4l3.4-2.3l2.8,2.3c2.1,1.9,3.9,2.4,8.3,2.4c6.7,0,11.4-2.5,13.7-7.4c1.8-3.8,2.1-10.8,0.7-13.5
	c-0.8-1.4-0.4-2.1,2.1-3.5c3.2-2,6.8-8.5,6.8-12.6c0-7.7-7.2-15-14.7-15c-3.7,0-4-0.2-6-4.9c-2.6-6.2-6.9-9.1-13.3-9.1
	C403.8,224,400.2,224.8,398.4,225.8L398.4,225.8z"/>
<linearGradient id="SVGID_00000130627023319832139150000002740405200577321094_" gradientUnits="userSpaceOnUse" x1="-1358.9137" y1="-35.5123" x2="-1357.9137" y2="-35.5123" gradientTransform="matrix(36.06 0 0 -34.94 49390.4922 -984.2702)">
	<stop  offset="0" style="stop-color:#D9A759"/>
	<stop  offset="1" style="stop-color:#D9A759"/>
</linearGradient>
<path style="fill:url(#SVGID_00000130627023319832139150000002740405200577321094_);" d="M403.5,240.4c-1.2,1.4-0.5,4.6,1,4.6
	c0.5,0,0.9,2.7,0.9,6.1c0,4.9-0.3,6-1.4,5.6c-0.8-0.3-3.3-1.1-5.5-1.7s-4.6-2-5.2-3.1c-1.5-3-5.4-2.2-5.4,1.1c0,2.2,0.4,2.5,3.5,2.3
	c3.2-0.2,13,2.3,13,3.3c0,1.6-6.5,9-8.3,9.4c-1.5,0.4-2.2,1.4-2.2,3c0,2,0.5,2.5,2.5,2.5s2.6-0.6,2.8-2.9c0.4-3,4.8-10.6,6.2-10.6
	s7.2,8,6.7,9.2c-0.7,2,1.2,4.8,3.3,4.8c1.9,0,3.6-3.2,2.5-5c-0.3-0.5-1.5-1-2.5-1c-1.6,0-8-7.5-8-9.3c0-1.3,9.9-3.7,12.7-3.1
	c2.3,0.4,3.2,0.2,3.7-1.1c0.7-2-1-4.5-3-4.5c-0.7,0-1.9,0.8-2.6,1.8c-1,1.4-9.4,5.2-11.5,5.2c-0.2,0-0.3-2.6-0.3-5.7
	c0-3.8,0.5-6.2,1.6-7.5c1.4-1.4,1.4-2,0.4-3.3C406.8,238.6,405,238.6,403.5,240.4L403.5,240.4z"/>
<linearGradient id="SVGID_00000041285330755292040220000003636096824947971253_" gradientUnits="userSpaceOnUse" x1="-1335.8676" y1="-61.1015" x2="-1334.8674" y2="-61.1015" gradientTransform="matrix(22.61 0 0 -20.45 30535.4609 -934.1195)">
	<stop  offset="0" style="stop-color:#D9A759"/>
	<stop  offset="1" style="stop-color:#D9A759"/>
</linearGradient>
<path style="fill:url(#SVGID_00000041285330755292040220000003636096824947971253_);" d="M340.2,311.7c-6.9,7.3-11.4,13.1-10.6,13.9
	c0.6,0.7,17.7-10.9,20.5-13.9c3-3.1,2.6-6.1-0.8-6.5C347.2,305,345.5,306.3,340.2,311.7z"/>
<linearGradient id="SVGID_00000128465796667024885710000011761184927588916385_" gradientUnits="userSpaceOnUse" x1="-1335.5601" y1="-61.0588" x2="-1334.5601" y2="-61.0588" gradientTransform="matrix(22.5 0 0 -20.5 30288.4902 -936.29)">
	<stop  offset="0" style="stop-color:#D9A759"/>
	<stop  offset="1" style="stop-color:#D9A759"/>
</linearGradient>
<path style="fill:url(#SVGID_00000128465796667024885710000011761184927588916385_);" d="M240.4,306.5c-1.9,2.3-0.2,5.3,5.3,9.4
	c7.3,5.5,15.7,10.4,16.4,9.7c0.9-0.9-10.7-14.6-15.1-17.8C242.5,304.6,242.1,304.5,240.4,306.5L240.4,306.5z"/>
<linearGradient id="SVGID_00000035508082453143125790000014240404342295483823_" gradientUnits="userSpaceOnUse" x1="-1310.8424" y1="-37.5204" x2="-1309.8422" y2="-37.5204" gradientTransform="matrix(16.09 0 0 -33.19 21357.0781 -939.6218)">
	<stop  offset="0" style="stop-color:#D9A759"/>
	<stop  offset="1" style="stop-color:#D9A759"/>
</linearGradient>
<path style="fill:url(#SVGID_00000035508082453143125790000014240404342295483823_);" d="M264,290.6c-1.9,1.9-1.4,4.8,2.2,11.9
	c2,4.1,10.4,17.9,11.8,19.4c3.7,4-3.7-25.2-7.7-30.3C268,288.6,266.1,288.3,264,290.6z"/>
<linearGradient id="SVGID_00000055697405079822643600000014587040897229098913_" gradientUnits="userSpaceOnUse" x1="-1381.3956" y1="-26.6125" x2="-1380.4357" y2="-26.1824" gradientTransform="matrix(85.98 0 0 -46.95 118798.875 -1072.4213)">
	<stop  offset="0" style="stop-color:#FDF7E0"/>
	<stop  offset="1" style="stop-color:#FEF8E2"/>
</linearGradient>
<path style="fill:url(#SVGID_00000055697405079822643600000014587040897229098913_);" d="M78.3,145.4c-3.3,4.7-6.8,6.9-12.1,7.4
	c-6,0.6-10-1-14-5.5l-3-3.5l-5.4,2.2c-5.3,2.1-13.5,8.3-13.5,10.1c0,0.5,0.8,0.9,1.8,0.9c3,0.1,10.2,3.9,10.2,5.5
	c0,2-1.2,1.9-8.2-0.7c-7-2.5-7.8-2-8.6,4.8c-0.5,4.4-0.3,4.7,1.4,3.9c1-0.4,4.3-1,7.2-1.3c4.2-0.4,5.2-0.2,5.2,1.1
	c0,0.9-1.3,1.8-3.2,2.2c-8.1,1.6-9.9,2.6-9.2,4.8c1,3.4,5.2,8.6,8.2,10.1c3.7,1.8,10,2.7,14.4,2c2.4-0.4,5.3-2.2,8.7-5.3
	c5-4.6,5.2-4.7,6.8-2.8c1,1,4.4,3.2,7.6,4.8c11.2,5.5,26.3,3.3,34.1-4.9c1.6-1.7,2.6-3.7,2.3-4.5c-0.7-2-8.5-5.6-13.8-6.5
	c-3.1-0.5-4.5-1.3-4.7-2.6c-0.4-1.7,0.1-1.8,4.5-1.4c4,0.4,7.4,1.6,15.7,5.6c0.5,0.3,0.7-2.1,0.4-5.2c-0.6-7.7-2.8-10-8.6-9.2
	c-2.4,0.3-6.6,1.4-9.3,2.3c-5.1,1.8-6.3,1.6-5.3-1c0.6-1.7,8.3-4.7,12-4.7c8,0-1.9-7.1-14.8-10.5C82,142.6,79.7,143.3,78.3,145.4
	L78.3,145.4z"/>
<linearGradient id="SVGID_00000016036664977796031770000005057619837892686981_" gradientUnits="userSpaceOnUse" x1="-1330.9801" y1="-109.6847" x2="-1330.91" y2="-108.6747" gradientTransform="matrix(21.1 0 0 -11.49 28147.75 -1067.2898)">
	<stop  offset="0" style="stop-color:#E02126"/>
	<stop  offset="1" style="stop-color:#F26B7F"/>
</linearGradient>
<path style="fill:url(#SVGID_00000016036664977796031770000005057619837892686981_);" d="M58.5,183.7l-4.3,4.1l2.3,1.6
	c2.9,2.1,11.9,2.1,15.8,0.1c1.7-0.9,3-1.8,3-2c0-0.3-1.7-1.2-3.7-2c-2.1-0.9-4.9-2.6-6.3-3.8l-2.5-2.2L58.5,183.7L58.5,183.7z"/>
<linearGradient id="SVGID_00000038375457600541355030000000673341037121177772_" gradientUnits="userSpaceOnUse" x1="-1241.175" y1="-31.4832" x2="-1240.1755" y2="-31.4832" gradientTransform="matrix(8.93 0 0 -39.48 11372.2207 -943.23)">
	<stop  offset="0" style="stop-color:#D9A759"/>
	<stop  offset="1" style="stop-color:#D9A759"/>
</linearGradient>
<path style="fill:url(#SVGID_00000038375457600541355030000000673341037121177772_);" d="M292.5,282.5c-0.7,1.4-1.2,4.9-1.2,7.8
	c0.1,9.7,3.6,30.5,5,29.1c2.7-3,5.3-33.2,3.1-37.2C297.8,279.1,293.9,279.3,292.5,282.5L292.5,282.5z"/>
<linearGradient id="SVGID_00000163075008960139296210000006510892870877052806_" gradientUnits="userSpaceOnUse" x1="-1296.8627" y1="-250.4505" x2="-1295.8625" y2="-250.4505" gradientTransform="matrix(13.86 0 0 -5.03 18001.1016 -1088.1895)">
	<stop  offset="0" style="stop-color:#ABFFFF;stop-opacity:0.15"/>
	<stop  offset="1" style="stop-color:#ABFFFF;stop-opacity:0.15"/>
</linearGradient>
<path style="fill:url(#SVGID_00000163075008960139296210000006510892870877052806_);" d="M28.1,170.2c-2.9,1-3.2,1.6-2,3.4
	c1,1.7,13.2-1.4,13.2-3.2C39.3,168.7,32.3,168.6,28.1,170.2z"/>
<linearGradient id="SVGID_00000000944415821227711590000000218348620066920078_" gradientUnits="userSpaceOnUse" x1="-1395.2432" y1="-2.3188" x2="-1394.2432" y2="-2.3188" gradientTransform="matrix(580 0 0 -447 809242.75 -812)">
	<stop  offset="0" style="stop-color:#FFBE5E;stop-opacity:0.76"/>
	<stop  offset="1" style="stop-color:#FFBE5E;stop-opacity:0.76"/>
</linearGradient>
<path style="fill:url(#SVGID_00000000944415821227711590000000218348620066920078_);" d="M154.6,3c-2.3,1-6.7,4.3-9.8,7.2l-5.6,5.3
	l-16.7-0.3c-19.9-0.5-31.1,1.1-48.1,6.9l-11.5,3.8l-4.5-4.3c-7.6-7.4-12-9.1-23-9.1c-7.9,0-10.2,0.4-13.6,2.2
	c-9.4,5-14.4,11.4-17,21.5c-2.3,9-0.1,20.2,5.5,26.8l2.8,3.4l-3.7,8.1C7.3,78.9,4.5,86.3,3,90.8c-2.4,7.7-2.6,9.6-2.6,27
	c0,25.3,3.1,42.6,10.4,57c2.6,5.2,3.5,6.2,4,4.7c0.3-1.1,2.8-3.5,5.6-5.4c4-2.7,5-4,5-6.2c0-1.5,0.4-3.9,1-5.3
	c0.9-2.5,0.9-2.6-3.5-2.6c-2.4,0-4.6-0.4-5-0.9c-0.9-1.5,3-3.1,7.5-3.1c3.4,0,5-0.7,8.6-3.9c2.4-2.1,6.8-4.9,9.8-6l5.3-2.2l-0.5-4.9
	c-0.2-2.7-0.2-6.1,0.2-7.5c1.9-7.6,22.1-10.2,29.7-3.8c2.8,2.4,3,3,2.8,8.6l-0.3,6.1l4.5,1.2c6,1.5,11.4,3.9,15.2,6.6
	c1.7,1.3,4.9,2.8,7.1,3.3c4.4,1.2,5.9,3.4,2.8,4.2c-1.8,0.4-1.9,0.7-0.6,3.1c0.8,1.5,1.4,4.8,1.4,7.3c0,3.3,0.6,5.1,2,6.4
	c1.1,1,2,2.4,2,3.1c0,2.1-2.1,2.7-3.7,1.1c-1.3-1.3-1.9-1.1-4.9,2.3c-5.5,6.1-11.8,8.2-23.3,7.9c-6.1-0.2-10.4,0.1-11.8,0.9
	c-3,1.7-12.4,1.5-14.9-0.2c-1.6-1.1-3-1.2-6-0.5c-4.5,1-11.7,0.2-15.6-1.7c-2.8-1.5-7.8-7.3-7.8-9.2c0-2.5-2.4-2.3-6.3,0.5
	c-2.3,1.7-4.8,3.2-5.5,3.4c-1.7,0.6,5.1,12,18.3,30.4c5.9,8.2,12.5,18,14.7,21.7c6.3,10.7,13,28.3,22.7,60.4
	c15.6,51.8,25.9,80.1,37.8,103.9c14,28.1,25.6,40.9,42.9,47.1c5.5,2,8.4,2.4,18.8,2.4c14.6,0,19.8-1.5,32.1-8.9
	c25.3-15.4,43.6-20.9,72.5-21.8c14.8-0.4,19.3-0.2,29.6,1.5c21.1,3.6,35.2,9,52.4,19.8c12.6,7.9,17.8,9.4,32.6,9.4
	c19.8,0,28.3-4,45.1-21.3c16.7-17.2,33.4-41.2,46.2-66.6c8.7-17.3,11.7-24.9,15.1-38.6c4.6-18.1,8-46.9,8-67.6V245h4.8
	c11.9-0.1,26.8-6,40.1-16.1c15.5-11.6,23.9-24.3,28.6-43.3c2.3-9.1,2.5-11.7,2.5-32.7c0-23.6-0.6-29-5.1-44.4
	c-7.1-24.1-19.9-37.1-34.5-35.1c-6.1,0.8-10.5,3.6-13.2,8.4c-2.5,4.5-2.7,8.7-1,16.2c0.9,4,1.5,4.9,2.7,4.5
	c0.9-0.4,6.4-0.9,12.3-1.2c10.4-0.6,10.9-0.5,14.7,2c9.6,6.4,8.7,21.3-1.6,26.5c-4.6,2.4-12.9,4.2-18.8,4.2c-4.4,0-4.5,0.1-4.5,3.3
	c0,3.9-3,13.3-5.5,17c-1.6,2.5-1.6,2.6,4.5,9.9c8.7,10.3,13,18.3,13,24.2c0,6.5-2.1,10-7.6,12.6c-12.5,6.1-30.8-3.9-40.3-22.1
	c-1.9-3.5-4.9-7.7-6.7-9.2c-1.9-1.6-5.2-5.8-7.3-9.5c-5.8-9.9-11.9-17.9-19.7-25.4c-6-5.9-15.4-13.6-15.4-12.6
	c0,0.1,0.6,3.4,1.4,7.3c4.6,22.3,1.7,48.7-7.3,68.1c-5.3,11.2-8.2,14.8-14.3,17.4c-14.5,6.2-27.8,1.3-27.8-10.3
	c0-1.2,1.6-6.2,3.5-10.9c4.9-11.9,7.3-22.2,8.6-35.8c1.3-14-0.1-35.2-3-45.5c-1.1-3.8-1.7-7.3-1.5-7.7c0.3-0.4,0.2-0.8-0.1-0.8
	s-5.6-0.9-11.8-1.9c-6.2-1.1-13-2.1-15.2-2.4l-4-0.4l2.2,8.9c8.7,34.4,2.7,77.7-14.4,103.3c-4.8,7.4-11.2,10.7-21.5,11.3
	c-6.9,0.4-8.4,0.2-13.3-2.2c-4.1-2-6.2-3.9-8-7c-3.2-5.4-3.1-9.4,0-18.7c7-20.2,9.5-35.6,9.5-56.7c-0.1-16.4-1.2-27.3-3.6-34.6
	l-1.7-4.9l-7.5,0.7c-4.1,0.3-10,0.6-13.2,0.6h-5.6l1.8,8.7c1.3,6,1.8,13.2,1.9,22.8c0,21.2-3.3,36.8-11.4,53.5
	c-5.6,11.4-11.3,17.3-19.1,19.5c-11.6,3.4-21.2,0.3-26.7-8.4c-4.2-6.5-3.8-9.8,2.6-24.7c8.7-19.7,10.6-27.5,11.2-43.6
	c0.5-11,0.2-15.6-1.3-23c-1-5.1-1.9-9.8-1.9-10.3c0-0.6-1.6-2.1-3.5-3.4c-6.7-4.7-10.8-8.7-24-23.6c-7.3-8.3-15.4-17.3-18-20
	c-4.6-4.8-4.8-5.3-5.3-12c-0.8-10-3.9-17.4-10-24.2C186.6,3.1,181.5,1,168.9,1C161.2,1,157.9,1.5,154.6,3L154.6,3z M175.2,12.9
	c2,1,4.7,3,5.9,4.3c7.5,8,6.8,23.9-1.1,27.7c-4,1.9-9.8,0.4-22.1-5.4c-7.9-3.8-9.9-5.2-11.2-8c-3-6.2,1.4-15.1,9.1-18.6
	C161.2,10.4,170.2,10.4,175.2,12.9L175.2,12.9z M109.4,20.5c1,1.2,1,2.1,0.1,4.1c-0.6,1.4-1.1,2.6-1.1,2.8s2.2,0.6,5,1
	c9.9,1.3,18,5.6,18,9.6c0,0.9-0.9,2.5-2.1,3.6c-1.8,1.6-4.2,2-16.5,2.4c-15.4,0.5-14.7,0.3-18,6.2c-1.3,2.6-1.3,2.8,0.3,2.8
	c3,0,12.1,4.7,13.2,6.9c1.5,2.7,1.4,3.7-0.5,5.5c-1.2,1.3-3.9,1.6-12.4,1.6H84.5l-3.7,4.9c-6.1,8.5-13.3,11.3-17.5,7.1
	c-1.1-1.1-2-3-2-4.3c0-1.2-0.3-3.2-0.6-4.4c-0.6-2.3-2.7-2.4-12.2-0.2c-5.9,1.3-8.2,0.5-8.2-3.1c0-4.1,4.6-7.5,14.5-10.6
	c7.4-2.3,8.5-2.9,9.4-5.6l1.1-3.1L61,48.4c-13,1.9-13.7,1.9-13.7,0.2c0-4.3,13.9-13.8,25-17c3.1-0.9,6.8-2.9,8.6-4.7
	c4.6-4.4,13.7-7.8,21-7.9C106.2,19,108.4,19.5,109.4,20.5z M35.5,24.2c4.9,1.4,10.9,7.1,10.9,10.3c0,4.1-1.1,5.5-7.4,9.7
	c-3.3,2.3-8.9,6.3-12.4,9c-7,5.3-9.8,5.9-13,2.5c-2.9-3.1-4.2-7-4.2-12.8C9.4,29.2,22.1,20.1,35.5,24.2z M187.6,74.1
	c12.1,9.1,23.1,26,29.7,45.9c3.7,10.9,4.9,23.5,3.1,32.3c-4.7,22.2-26.6,42.1-52,47.2c-12.8,2.6-20.1,0.6-20.1-5.5
	c0-3.1,2.6-5.6,12.7-12.3c13.7-9.1,23-20.1,27.4-32.2c3.1-8.2,3.3-27.3,0.5-35.5c-3.1-9.2-8.7-20-14.8-28.5
	c-3.2-4.4-5.8-9.1-5.8-10.4c0-4,2.7-6.1,7.9-6.1C180.2,69,181.7,69.7,187.6,74.1L187.6,74.1z M159.2,88.5c4.1,2.1,9.7,9,13.4,16.5
	c3,6.1,3.2,7.1,3.2,17.5c0,9.6-0.3,11.6-2.4,15.9c-4.7,9.6-11.9,14.2-17.8,11.4c-4.4-2.1-5-5.5-2.4-14.3c3.1-10.3,2.6-20.3-1.3-29.5
	c-1.5-3.6-3.2-7.7-3.8-9.1C145.1,89.9,152,84.7,159.2,88.5z M121.9,108.1c6.7,6.3,2.1,17.9-7.1,17.9c-6,0-10.5-4.7-10.5-10.8
	c0-3.3,3.2-7.9,6.4-9.3C113.9,104.6,119.3,105.6,121.9,108.1z M31.6,114c8.7,9.7-4.8,22.8-14.5,14.1c-2.8-2.5-3.3-3.6-3.3-7.4
	C13.8,110.7,24.9,106.6,31.6,114z M414.2,226.1c2.2,1.3,4,3.7,5.4,7c2,4.7,2.3,4.9,6,4.9c7.5,0,14.7,7.3,14.7,15
	c0,4.1-3.6,10.6-6.8,12.6c-2.5,1.4-2.9,2.1-2.1,3.5c1.4,2.7,1.1,9.7-0.7,13.5c-2.3,4.9-7,7.4-13.7,7.4c-4.4,0-6.2-0.5-8.3-2.4
	l-2.8-2.3l-3.4,2.3c-2.6,1.8-4.9,2.4-8.7,2.4c-6.9,0-11.3-2.9-13.9-9.3c-1.8-4.2-1.8-5.3-0.8-9.3c1.2-4.4,1.2-4.5-2.3-7.5
	c-10.5-9.3-4.5-25.9,9.5-25.9c3,0,4.2-0.5,4.6-1.8c1.4-4.7,4.2-8.7,7.4-10.4C403,223.4,410,223.5,414.2,226.1L414.2,226.1z
	 M308.5,252.7c4.3,1.7,11.5,9.3,12.5,13c0.4,2,1,2.3,2.7,1.8c4.9-1.5,14.7-1.7,19.1-0.5c9.8,2.7,17,11.1,18.2,20.9l0.6,5.1h4.7
	c14.6,0,25,10.2,25,24.6c0,12.5-8.1,21.6-21.9,24.5c-7.1,1.5-16.7,0.2-30.4-4c-16.9-5.2-25.6-6.6-42.7-6.5c-17,0.1-27,1.7-43.5,7.2
	c-21.2,7.1-34,6.4-44.3-2.3c-5.3-4.5-7.6-9.9-7.6-18c0.1-14,8.8-23.1,23-24.3l6.2-0.5l0.6-5c1.3-9.6,7-16.8,16-20.2
	c3.6-1.4,6.6-1.7,14-1.3c9.3,0.5,9.5,0.5,10.1-1.9c0.7-3,7-10,10.8-11.9C288.5,249.8,300.7,249.5,308.5,252.7L308.5,252.7z"/>
<linearGradient id="SVGID_00000139987825104521677500000014316809888252378043_" gradientUnits="userSpaceOnUse" x1="-1348.4138" y1="-19.2825" x2="-1347.4137" y2="-19.2825" gradientTransform="matrix(28.37 0 0 -63.52 38403.5586 -1105.9692)">
	<stop  offset="0" style="stop-color:#000000;stop-opacity:0.51"/>
	<stop  offset="1" style="stop-color:#000000;stop-opacity:0.51"/>
</linearGradient>
<path style="fill:url(#SVGID_00000139987825104521677500000014316809888252378043_);" d="M150.6,88.2c-2.8,1.4-3.9,5.3-2.4,8.7
	c0.6,1.4,2.3,5.5,3.8,9.1c3.9,9.2,4.4,19.2,1.3,29.5c-2.6,8.8-2,12.2,2.4,14.3c5.9,2.8,13.1-1.8,17.8-11.4c2.1-4.3,2.4-6.3,2.4-15.9
	c0-10.4-0.2-11.4-3.2-17.5c-5.2-10.6-12.8-18.1-18-17.9C153.7,87.1,151.9,87.6,150.6,88.2z"/>
<linearGradient id="SVGID_00000035498678371009062140000011616351076248455091_" gradientUnits="userSpaceOnUse" x1="-1330.4282" y1="-60.4801" x2="-1329.4281" y2="-60.4801" gradientTransform="matrix(20.78 0 0 -20.67 27752.0215 -1134.4597)">
	<stop  offset="0" style="stop-color:#000000;stop-opacity:0.47"/>
	<stop  offset="1" style="stop-color:#000000;stop-opacity:0.47"/>
</linearGradient>
<path style="fill:url(#SVGID_00000035498678371009062140000011616351076248455091_);" d="M110.8,105.9c-3.2,1.4-6.4,6-6.4,9.3
	c0,6.1,4.5,10.8,10.5,10.8c9.2,0,13.8-11.6,7.1-17.9C119.3,105.6,113.9,104.6,110.8,105.9z"/>
<linearGradient id="SVGID_00000119088414337692726150000016462757967840342434_" gradientUnits="userSpaceOnUse" x1="-1382.299" y1="-19.8043" x2="-1381.299" y2="-19.8043" gradientTransform="matrix(91 0 0 -61.93 125829.875 -1176.5186)">
	<stop  offset="0" style="stop-color:#000000;stop-opacity:0.54"/>
	<stop  offset="1" style="stop-color:#000000;stop-opacity:0.54"/>
</linearGradient>
<path style="fill:url(#SVGID_00000119088414337692726150000016462757967840342434_);" d="M89.9,21.5c-3.2,1.3-7.3,3.8-9,5.4
	c-1.8,1.8-5.5,3.8-8.6,4.7c-11.1,3.2-25,12.7-25,17c0,1.7,0.7,1.7,13.7-0.2l4.3-0.7l-1.1,3.1c-0.9,2.7-2,3.3-9.4,5.6
	c-9.9,3.1-14.5,6.5-14.5,10.6c0,3.6,2.3,4.4,8.2,3.1c9.5-2.2,11.6-2.1,12.2,0.2c0.3,1.2,0.6,3.2,0.6,4.4c0,1.3,0.9,3.2,2,4.3
	c4.2,4.2,11.4,1.4,17.5-7.1l3.7-4.9h10.8c8.5,0,11.2-0.3,12.4-1.6c1.9-1.8,2-2.8,0.5-5.5C107.1,57.7,98,53,95,53
	c-1.6,0-1.6-0.2-0.3-2.8c3.3-5.9,2.6-5.7,18-6.2c12.3-0.4,14.7-0.8,16.5-2.4c1.2-1.1,2.1-2.7,2.1-3.6c0-4-8.1-8.3-18-9.6
	c-2.8-0.4-5-0.8-5-1s0.5-1.4,1.1-2.8c1.9-4.1-0.2-5.6-7.5-5.6C97.9,19,94,19.8,89.9,21.5z"/>
<linearGradient id="SVGID_00000000205804716765994290000007743862519487979196_" gradientUnits="userSpaceOnUse" x1="-1360.2572" y1="-35.9072" x2="-1359.2573" y2="-35.9072" gradientTransform="matrix(37.36 0 0 -34.67 50825.8516 -1204.4221)">
	<stop  offset="0" style="stop-color:#FFBE5E;stop-opacity:0.42"/>
	<stop  offset="1" style="stop-color:#FFBE5E;stop-opacity:0.42"/>
</linearGradient>
<path style="fill:url(#SVGID_00000000205804716765994290000007743862519487979196_);" d="M22,24.5c-12.4,4.4-17.1,22-8.5,31.2
	c3.2,3.4,6,2.8,13-2.5c3.5-2.7,9.1-6.7,12.4-9c8.8-5.9,9.7-9.8,3.9-15.5C37.3,23.3,29.6,21.7,22,24.5z"/>
<linearGradient id="SVGID_00000096744847671179246140000000181253962991574408_" gradientUnits="userSpaceOnUse" x1="-1378.5056" y1="-9.0955" x2="-1377.5055" y2="-9.0955" gradientTransform="matrix(72.94 0 0 -131.61 100699.1484 -1062.2479)">
	<stop  offset="0" style="stop-color:#000000;stop-opacity:0.56"/>
	<stop  offset="1" style="stop-color:#000000;stop-opacity:0.56"/>
</linearGradient>
<path style="fill:url(#SVGID_00000096744847671179246140000000181253962991574408_);" d="M170.1,70.8c-2.8,3.1-1.9,6.4,4.1,14.7
	c6.1,8.5,11.7,19.3,14.8,28.5c2.8,8.2,2.6,27.3-0.5,35.5c-4.4,12.1-13.7,23.1-27.4,32.2c-10.1,6.7-12.7,9.2-12.7,12.3
	c0,6.1,7.3,8.1,20.1,5.5c25.4-5.1,47.3-25,52-47.2c4.8-23.3-11.5-62.2-32.8-78.2c-5.9-4.4-7.4-5.1-11.4-5.1
	C173.1,69,171.2,69.6,170.1,70.8L170.1,70.8z"/>
<linearGradient id="SVGID_00000137818591283730032800000002032202136404831916_" gradientUnits="userSpaceOnUse" x1="-1375.6444" y1="-9.586" x2="-1374.6444" y2="-9.586" gradientTransform="matrix(63.47 0 0 -124.66 87629.3594 -1034.355)">
	<stop  offset="0" style="stop-color:#000000;stop-opacity:0.58"/>
	<stop  offset="1" style="stop-color:#000000;stop-opacity:0.58"/>
</linearGradient>
<path style="fill:url(#SVGID_00000137818591283730032800000002032202136404831916_);" d="M328,98.7c-3.1,0.4-3.7,0.7-3.2,2.1
	c2.7,7,3.7,14.4,4.2,31.2c0.8,25.1-1.5,40.5-9.2,62.9c-3.1,9.3-3.2,13.3,0,18.7c1.8,3.1,3.9,5,8,7c4.9,2.4,6.4,2.6,13.3,2.2
	c16.2-0.9,24.9-10.3,33-35.8c7.9-25,9-54.3,2.9-78.6l-2.2-8.9l-7.5-0.6C359.1,98.2,334,98.1,328,98.7L328,98.7z"/>
<linearGradient id="SVGID_00000176033165149019949320000017907335940116274849_" gradientUnits="userSpaceOnUse" x1="-1355.5024" y1="-43.2617" x2="-1354.5024" y2="-43.2617" gradientTransform="matrix(33.14 0 0 -28.84 44970.1992 -1109.189)">
	<stop  offset="0" style="stop-color:#000000;stop-opacity:0.52"/>
	<stop  offset="1" style="stop-color:#000000;stop-opacity:0.52"/>
</linearGradient>
<path style="fill:url(#SVGID_00000176033165149019949320000017907335940116274849_);" d="M57.8,124.9c-7.4,1.8-9.5,4.4-9.5,11.9
	c0,5.7,2.7,10.4,8,14c2.9,2,4.5,2.3,9,2c6.4-0.5,9.6-2.4,13.4-8.3c3.5-5.3,3.7-13.2,0.3-16.3C75,124.4,66,123,57.8,124.9z"/>
<linearGradient id="SVGID_00000035507857170552919240000001022631667487920028_" gradientUnits="userSpaceOnUse" x1="-1363.3892" y1="-35.8466" x2="-1362.3893" y2="-35.8466" gradientTransform="matrix(40.77 0 0 -34.73 55729.1875 -1216.6401)">
	<stop  offset="0" style="stop-color:#FFBE5E;stop-opacity:0.42"/>
	<stop  offset="1" style="stop-color:#FFBE5E;stop-opacity:0.42"/>
</linearGradient>
<path style="fill:url(#SVGID_00000035507857170552919240000001022631667487920028_);" d="M155.8,12.9c-4.8,2.2-8,5.9-9.6,11.3
	c-0.9,3.2-0.9,4.4,0.5,7.3c1.3,2.8,3.3,4.2,11.2,8c12.3,5.8,18.1,7.3,22.1,5.4c7.9-3.8,8.6-19.7,1.1-27.7
	C175.4,11,164.1,9.1,155.8,12.9z"/>
<linearGradient id="SVGID_00000097502513730418586800000007943436320007984792_" gradientUnits="userSpaceOnUse" x1="-1370.3378" y1="-27.2768" x2="-1369.3379" y2="-27.2768" gradientTransform="matrix(51.15 0 0 -45.4 70583.5312 -1058.1707)">
	<stop  offset="0" style="stop-color:#000000;stop-opacity:0.52"/>
	<stop  offset="1" style="stop-color:#000000;stop-opacity:0.52"/>
</linearGradient>
<path style="fill:url(#SVGID_00000097502513730418586800000007943436320007984792_);" d="M516.8,163.5c-6.9,7.1-13.7,10.1-20.5,9.2
	c-2.1-0.3-3.9-0.3-3.9,0s1.5,3.2,3.2,6.6c6.9,12.9,19,22.2,30.2,23.4c4.3,0.5,6.4,0.1,10-1.7c8.6-4.1,10.1-12.8,4.2-23.4
	c-3.6-6.4-14.4-19.8-16.1-20.1C523.4,157.4,520.2,160.1,516.8,163.5L516.8,163.5z"/>
<linearGradient id="SVGID_00000150805959026632912090000000036860383496562595_" gradientUnits="userSpaceOnUse" x1="-1329.5092" y1="-60.2718" x2="-1328.5092" y2="-60.2718" gradientTransform="matrix(20.5 0 0 -20.73 27268.7598 -1128.8296)">
	<stop  offset="0" style="stop-color:#000000;stop-opacity:0.48"/>
	<stop  offset="1" style="stop-color:#000000;stop-opacity:0.48"/>
</linearGradient>
<path style="fill:url(#SVGID_00000150805959026632912090000000036860383496562595_);" d="M19.9,110.9c-3.9,1.7-6,5.1-6,9.8
	c0,3.8,0.5,4.9,3.3,7.4c7,6.3,17.2,1.6,17.2-8C34.3,113.8,25.7,108.3,19.9,110.9z"/>
<linearGradient id="SVGID_00000012433442059953992580000013385600764535814794_" gradientUnits="userSpaceOnUse" x1="-1370.6057" y1="-10.6945" x2="-1369.6057" y2="-10.6945" gradientTransform="matrix(51.65 0 0 -112.7 71192.9297 -1043.9242)">
	<stop  offset="0" style="stop-color:#000000;stop-opacity:0.57"/>
	<stop  offset="1" style="stop-color:#000000;stop-opacity:0.57"/>
</linearGradient>
<path style="fill:url(#SVGID_00000012433442059953992580000013385600764535814794_);" d="M406,107.2c6,19,6.7,49.7,1.4,70.2
	c-1.1,4.3-3.5,11.6-5.5,16.4c-1.9,4.7-3.5,9.7-3.5,10.9c0,11.6,13.3,16.5,27.8,10.3c6.1-2.6,9-6.2,14.3-17.4
	c4.5-9.6,7.4-20.9,9-35.1c1.8-16.4-1-38.3-5.3-41.9c-5.6-4.5-31.7-15.6-36.9-15.6C405.5,105,405.4,105.4,406,107.2z"/>
<linearGradient id="SVGID_00000087413544558972022790000001402751070328289459_" gradientUnits="userSpaceOnUse" x1="-1374.3519" y1="-10.7498" x2="-1373.3521" y2="-10.7498" gradientTransform="matrix(59.96 0 0 -111.76 82644.5781 -1051.4265)">
	<stop  offset="0" style="stop-color:#000000;stop-opacity:0.58"/>
	<stop  offset="1" style="stop-color:#000000;stop-opacity:0.58"/>
</linearGradient>
<path style="fill:url(#SVGID_00000087413544558972022790000001402751070328289459_);" d="M254.6,95.3c0.3,0.7,1.3,5.1,2.2,9.8
	c1.3,6.5,1.6,11.5,1.2,22.4c-0.5,16.5-2.5,24-11.2,43.9c-6.4,14.9-6.8,18.2-2.6,24.7c5.5,8.7,15.1,11.8,26.7,8.4
	c7.8-2.2,13.5-8.1,19.1-19.5c8.1-16.8,11.4-32.3,11.4-53.5c-0.1-9.3-0.7-16.8-1.8-22.5l-1.8-8.5l-5.5-0.3
	c-13.5-0.6-26.3-2.3-31.2-4.2C255,93.7,254,93.5,254.6,95.3L254.6,95.3z"/>
<linearGradient id="SVGID_00000041260381735474211720000012495176409095692443_" gradientUnits="userSpaceOnUse" x1="-1357.7852" y1="-37.6939" x2="-1356.7853" y2="-37.6939" gradientTransform="matrix(35.04 0 0 -32.92 48102.7461 -1123.342)">
	<stop  offset="0" style="stop-color:#000000;stop-opacity:0.53"/>
	<stop  offset="1" style="stop-color:#000000;stop-opacity:0.53"/>
</linearGradient>
<path style="fill:url(#SVGID_00000041260381735474211720000012495176409095692443_);" d="M532.7,101.9c-2.4,0.4-4.4,0.9-4.7,1.2
	c-0.2,0.2,0.5,4.4,1.5,9.4c1,4.9,1.9,11.8,1.9,15.2v6.3h4.5c5.9,0,14.2-1.8,18.8-4.2c10.2-5.1,11.2-20,1.9-26.3
	c-3.2-2.2-4.7-2.5-11.7-2.4C540.5,101.2,535,101.6,532.7,101.9z"/>
<g id="图层_2_00000043447282333234390390000005826156277585454211_">
</g>
<linearGradient id="SVGID_00000052805850034002300330000009011082254212252088_" gradientUnits="userSpaceOnUse" x1="-1381.2185" y1="-14.4861" x2="-1380.9785" y2="-13.3959" gradientTransform="matrix(190.4 0 0 -93.12 264917.3125 -919.8541)">
	<stop  offset="0" style="stop-color:#F8E294"/>
	<stop  offset="1" style="stop-color:#FCECA7"/>
</linearGradient>
<path style="fill:url(#SVGID_00000052805850034002300330000009011082254212252088_);" d="M1938.3,334.5c-2.3,0.5-5.5,1.5-7,2.4
	c-3.8,1.9-10.1,8.9-10.8,11.9c-0.6,2.4-0.8,2.4-10.1,1.9c-7.4-0.4-10.4-0.1-14,1.3c-9,3.4-14.7,10.6-16,20.2l-0.6,5l-6.2,0.5
	c-14.2,1.2-22.9,10.3-23,24.3c0,8.1,2.3,13.5,7.6,18c10.3,8.7,23.1,9.4,44.3,2.3c16.5-5.5,26.5-7.1,43.5-7.2
	c17.1-0.1,25.8,1.3,42.7,6.5c13.7,4.2,23.3,5.5,30.4,4c13.8-2.9,21.9-12,21.9-24.5c0-14.4-10.4-24.6-25-24.6h-4.7l-0.6-5.1
	c-1.2-9.8-8.4-18.2-18.2-20.9c-4.4-1.2-14.2-1-19.1,0.5c-1.7,0.5-2.3,0.2-2.7-1.8c-1-3.7-8.2-11.3-12.5-13
	C1953.2,334.2,1943.7,333.4,1938.3,334.5L1938.3,334.5z"/>
<linearGradient id="SVGID_00000155146545013178636020000012870024587815569794_" gradientUnits="userSpaceOnUse" x1="-1354.5256" y1="-18.9379" x2="-1353.5256" y2="-18.9379" gradientTransform="matrix(68.83 0 0 -66 95172.1875 -970)">
	<stop  offset="0" style="stop-color:#F8E59C"/>
	<stop  offset="1" style="stop-color:#F8E59C"/>
</linearGradient>
<path style="fill:url(#SVGID_00000155146545013178636020000012870024587815569794_);" d="M1969.9,248.7c-3.2,1.7-6,5.7-7.4,10.4
	c-0.4,1.3-1.6,1.8-4.6,1.8c-14,0-20,16.6-9.5,25.9c3.5,3,3.5,3.1,2.3,7.5c-1,4-1,5.1,0.8,9.3c2.6,6.4,7,9.3,13.9,9.3
	c3.8,0,6.1-0.6,8.7-2.4l3.4-2.3l2.8,2.3c2.1,1.9,3.9,2.4,8.3,2.4c6.7,0,11.4-2.5,13.7-7.4c1.8-3.8,2.1-10.8,0.7-13.5
	c-0.8-1.4-0.4-2.1,2.1-3.5c3.2-2,6.8-8.5,6.8-12.6c0-7.7-7.2-15-14.7-15c-3.7,0-4-0.2-6-4.9c-2.6-6.2-6.9-9.1-13.3-9.1
	C1975.4,246.9,1971.8,247.7,1969.9,248.7L1969.9,248.7z"/>
<linearGradient id="SVGID_00000037682984152902839900000017680122050477678519_" gradientUnits="userSpaceOnUse" x1="-1393.2139" y1="-2.3213" x2="-1392.2139" y2="-2.3213" gradientTransform="matrix(580 0 0 -447 809242.75 -812)">
	<stop  offset="0" style="stop-color:#FFBE5E;stop-opacity:0.76"/>
	<stop  offset="1" style="stop-color:#FFBE5E;stop-opacity:0.76"/>
</linearGradient>
<path style="fill:url(#SVGID_00000037682984152902839900000017680122050477678519_);stroke:#000000;stroke-miterlimit:10;" d="
	M1331.4,4.1c-2.3,1-6.7,4.3-9.8,7.2l-5.6,5.3l-16.7-0.3c-19.9-0.5-31.1,1.1-48.1,6.9l-11.5,3.8l-4.5-4.3c-7.6-7.4-12-9.1-23-9.1
	c-7.9,0-10.2,0.4-13.6,2.2c-9.4,5-14.4,11.4-17,21.5c-2.3,9-0.1,20.2,5.5,26.8l2.8,3.4l-3.7,8.1c-2.1,4.4-4.9,11.8-6.4,16.3
	c-2.4,7.7-2.6,9.6-2.6,27c0,25.3,3.1,42.6,10.4,57c2.6,5.2,3.5,6.2,4,4.7c0.3-1.1,2.8-3.5,5.6-5.4c4-2.7,5-4,5-6.2
	c0-1.5,0.4-3.9,1-5.3c0.9-2.5,0.9-2.6-3.5-2.6c-2.4,0-4.6-0.4-5-0.9c-0.9-1.5,3-3.1,7.5-3.1c3.4,0,5-0.7,8.6-3.9
	c2.4-2.1,6.8-4.9,9.8-6l5.3-2.2l-0.5-4.9c-0.2-2.7-0.2-6.1,0.2-7.5c1.9-7.6,22.1-10.2,29.7-3.8c2.8,2.4,3,3,2.8,8.6l-0.3,6.1
	l4.5,1.2c6,1.5,11.4,3.9,15.2,6.6c1.7,1.3,4.9,2.8,7.1,3.3c4.4,1.2,5.9,3.4,2.8,4.2c-1.8,0.4-1.9,0.7-0.6,3.1
	c0.8,1.5,1.4,4.8,1.4,7.3c0,3.3,0.6,5.1,2,6.4c1.1,1,2,2.4,2,3.1c0,2.1-2.1,2.7-3.7,1.1c-1.3-1.3-1.9-1.1-4.9,2.3
	c-5.5,6.1-11.8,8.2-23.3,7.9c-6.1-0.2-10.4,0.1-11.8,0.9c-3,1.7-12.4,1.5-14.9-0.2c-1.6-1.1-3-1.2-6-0.5c-4.5,1-11.7,0.2-15.6-1.7
	c-2.8-1.5-7.8-7.3-7.8-9.2c0-2.5-2.4-2.3-6.3,0.5c-2.3,1.7-4.8,3.2-5.5,3.4c-1.7,0.6,5.1,12,18.3,30.4c5.9,8.2,12.5,18,14.7,21.7
	c6.3,10.7,13,28.3,22.7,60.4c15.6,51.8,25.9,80.1,37.8,103.9c14,28.1,25.6,40.9,42.9,47.1c5.5,2,8.4,2.4,18.8,2.4
	c14.6,0,19.8-1.5,32.1-8.9c25.3-15.4,43.6-20.9,72.5-21.8c14.8-0.4,19.3-0.2,29.6,1.5c21.1,3.6,35.2,9,52.4,19.8
	c12.6,7.9,17.8,9.4,32.6,9.4c19.8,0,28.3-4,45.1-21.3c16.7-17.2,33.4-41.2,46.2-66.6c8.7-17.3,11.7-24.9,15.1-38.6
	c4.6-18.1,8-46.9,8-67.6v-8.9h4.8c11.9-0.1,26.8-6,40.1-16.1c15.5-11.6,23.9-24.3,28.6-43.3c2.3-9.1,2.5-11.7,2.5-32.7
	c0-23.6-0.6-29-5.1-44.4c-7.1-24.1-19.9-37.1-34.5-35.1c-6.1,0.8-10.5,3.6-13.2,8.4c-2.5,4.5-2.7,8.7-1,16.2c0.9,4,1.5,4.9,2.7,4.5
	c0.9-0.4,6.4-0.9,12.3-1.2c10.4-0.6,10.9-0.5,14.7,2c9.6,6.4,8.7,21.3-1.6,26.5c-4.6,2.4-12.9,4.2-18.8,4.2c-4.4,0-4.5,0.1-4.5,3.3
	c0,3.9-3,13.3-5.5,17c-1.6,2.5-1.6,2.6,4.5,9.9c8.7,10.3,13,18.3,13,24.2c0,6.5-2.1,10-7.6,12.6c-12.5,6.1-30.8-3.9-40.3-22.1
	c-1.9-3.5-4.9-7.7-6.7-9.2c-1.9-1.6-5.2-5.8-7.3-9.5c-5.8-9.9-11.9-17.9-19.7-25.4c-6-5.9-15.4-13.6-15.4-12.6
	c0,0.1,0.6,3.4,1.4,7.3c4.6,22.3,1.7,48.7-7.3,68.1c-5.3,11.2-8.2,14.8-14.3,17.4c-14.5,6.2-27.8,1.3-27.8-10.3
	c0-1.2,1.6-6.2,3.5-10.9c4.9-11.9,7.3-22.2,8.6-35.8c1.3-14-0.1-35.2-3-45.5c-1.1-3.8-1.7-7.3-1.5-7.7c0.3-0.4,0.2-0.8-0.1-0.8
	s-5.6-0.9-11.8-1.9c-6.2-1.1-13-2.1-15.2-2.4l-4-0.4l2.2,8.9c8.7,34.4,2.7,77.7-14.4,103.3c-4.8,7.4-11.2,10.7-21.5,11.3
	c-6.9,0.4-8.4,0.2-13.3-2.2c-4.1-2-6.2-3.9-8-7c-3.2-5.4-3.1-9.4,0-18.7c7-20.2,9.5-35.6,9.5-56.7c-0.1-16.4-1.2-27.3-3.6-34.6
	l-1.7-4.9l-7.5,0.7c-4.1,0.3-10,0.6-13.2,0.6h-5.6l1.8,8.7c1.3,6,1.8,13.2,1.9,22.8c0,21.2-3.3,36.8-11.4,53.5
	c-5.6,11.4-11.3,17.3-19.1,19.5c-11.6,3.4-21.2,0.3-26.7-8.4c-4.2-6.5-3.8-9.8,2.6-24.7c8.7-19.7,10.6-27.5,11.2-43.6
	c0.5-11,0.2-15.6-1.3-23c-1-5.1-1.9-9.8-1.9-10.3c0-0.6-1.6-2.1-3.5-3.4c-6.7-4.7-10.8-8.7-24-23.6c-7.3-8.3-15.4-17.3-18-20
	c-4.6-4.8-4.8-5.3-5.3-12c-0.8-10-3.9-17.4-10-24.2c-7.4-8.2-12.5-10.3-25.1-10.3C1338.1,2.1,1334.8,2.6,1331.4,4.1L1331.4,4.1z
	 M1352,14c2,1,4.7,3,5.9,4.3c7.5,8,6.8,23.9-1.1,27.7c-4,1.9-9.8,0.4-22.1-5.4c-7.9-3.8-9.9-5.2-11.2-8c-3-6.2,1.4-15.1,9.1-18.6
	C1338.2,11.5,1347.2,11.5,1352,14L1352,14z M1286.2,21.6c1,1.2,1,2.1,0.1,4.1c-0.6,1.4-1.1,2.6-1.1,2.8s2.2,0.6,5,1
	c9.9,1.3,18,5.6,18,9.6c0,0.9-0.9,2.5-2.1,3.6c-1.8,1.6-4.2,2-16.5,2.4c-15.4,0.5-14.7,0.3-18,6.2c-1.3,2.6-1.3,2.8,0.3,2.8
	c3,0,12.1,4.7,13.2,6.9c1.5,2.7,1.4,3.7-0.5,5.5c-1.2,1.3-3.9,1.6-12.4,1.6h-10.8l-3.7,4.9c-6.1,8.5-13.3,11.3-17.5,7.1
	c-1.1-1.1-2-3-2-4.3c0-1.2-0.3-3.2-0.6-4.4c-0.6-2.3-2.7-2.4-12.2-0.2c-5.9,1.3-8.2,0.5-8.2-3.1c0-4.1,4.6-7.5,14.5-10.6
	c7.4-2.3,8.5-2.9,9.4-5.6l1.1-3.1l-4.3,0.7c-13,1.9-13.7,1.9-13.7,0.2c0-4.3,13.9-13.8,25-17c3.1-0.9,6.8-2.9,8.6-4.7
	c4.6-4.4,13.7-7.8,21-7.9C1283.2,20.1,1285.3,20.6,1286.2,21.6z M1212.4,25.3c4.9,1.4,10.9,7.1,10.9,10.3c0,4.1-1.1,5.5-7.4,9.7
	c-3.3,2.3-8.9,6.3-12.4,9c-7,5.3-9.8,5.9-13,2.5c-2.9-3.1-4.2-7-4.2-12.8C1186.2,30.3,1198.9,21.2,1212.4,25.3z M1364.5,75.2
	c12.1,9.1,23.1,26,29.7,45.9c3.7,10.9,4.9,23.5,3.1,32.3c-4.7,22.2-26.6,42.1-52,47.2c-12.8,2.6-20.1,0.6-20.1-5.5
	c0-3.1,2.6-5.6,12.7-12.3c13.7-9.1,23-20.1,27.4-32.2c3.1-8.2,3.3-27.3,0.5-35.5c-3.1-9.2-8.7-20-14.8-28.5
	c-3.2-4.4-5.8-9.1-5.8-10.4c0-4,2.7-6.1,7.9-6.1C1357.1,70.1,1358.6,70.8,1364.5,75.2L1364.5,75.2z M1336.2,89.6
	c4.1,2.1,9.7,9,13.4,16.5c3,6.1,3.2,7.1,3.2,17.5c0,9.6-0.3,11.6-2.4,15.9c-4.7,9.6-11.9,14.2-17.8,11.4c-4.4-2.1-5-5.5-2.4-14.3
	c3.1-10.3,2.6-20.3-1.3-29.5c-1.5-3.6-3.2-7.7-3.8-9.1C1322,91,1328.9,85.8,1336.2,89.6z M1298.8,109.2c6.7,6.3,2.1,17.9-7.1,17.9
	c-6,0-10.5-4.7-10.5-10.8c0-3.3,3.2-7.9,6.4-9.3C1290.8,105.7,1296.2,106.7,1298.8,109.2z M1208.5,115.1c8.7,9.7-4.8,22.8-14.5,14.1
	c-2.8-2.5-3.3-3.6-3.3-7.4C1190.7,111.8,1201.8,107.7,1208.5,115.1z M1591.2,227.2c2.2,1.3,4,3.7,5.4,7c2,4.7,2.3,4.9,6,4.9
	c7.5,0,14.7,7.3,14.7,15c0,4.1-3.6,10.6-6.8,12.6c-2.5,1.4-2.9,2.1-2.1,3.5c1.4,2.7,1.1,9.7-0.7,13.5c-2.3,4.9-7,7.4-13.7,7.4
	c-4.4,0-6.2-0.5-8.3-2.4l-2.8-2.3l-3.4,2.3c-2.6,1.8-4.9,2.4-8.7,2.4c-6.9,0-11.3-2.9-13.9-9.3c-1.8-4.2-1.8-5.3-0.8-9.3
	c1.2-4.4,1.2-4.5-2.3-7.5c-10.5-9.3-4.5-25.9,9.5-25.9c3,0,4.2-0.5,4.6-1.8c1.4-4.7,4.2-8.7,7.4-10.4
	C1579.9,224.5,1586.9,224.6,1591.2,227.2L1591.2,227.2z M1485.4,253.8c4.3,1.7,11.5,9.3,12.5,13c0.4,2,1,2.3,2.7,1.8
	c4.9-1.5,14.7-1.7,19.1-0.5c9.8,2.7,17,11.1,18.2,20.9l0.6,5.1h4.7c14.6,0,25,10.2,25,24.6c0,12.5-8.1,21.6-21.9,24.5
	c-7.1,1.5-16.7,0.2-30.4-4c-16.9-5.2-25.6-6.6-42.7-6.5c-17,0.1-27,1.7-43.5,7.2c-21.2,7.1-34,6.4-44.3-2.3c-5.3-4.5-7.6-9.9-7.6-18
	c0.1-14,8.8-23.1,23-24.3l6.2-0.5l0.6-5c1.3-9.6,7-16.8,16-20.2c3.6-1.4,6.6-1.7,14-1.3c9.3,0.5,9.5,0.5,10.1-1.9
	c0.7-3,7-10,10.8-11.9C1465.4,250.9,1477.6,250.6,1485.4,253.8L1485.4,253.8z"/>
<linearGradient id="SVGID_00000013166076946949745980000011518669379441173679_" gradientUnits="userSpaceOnUse" x1="-1290.1233" y1="-21.4786" x2="-1289.1232" y2="-21.4786" gradientTransform="matrix(28.37 0 0 -63.52 38403.5586 -1105.9692)">
	<stop  offset="0" style="stop-color:#000000;stop-opacity:0.51"/>
	<stop  offset="1" style="stop-color:#000000;stop-opacity:0.51"/>
</linearGradient>
<path style="fill:url(#SVGID_00000013166076946949745980000011518669379441173679_);stroke:#000000;stroke-miterlimit:10;" d="
	M1804.2,227.7c-2.8,1.4-3.9,5.3-2.4,8.7c0.6,1.4,2.3,5.5,3.8,9.1c3.9,9.2,4.4,19.2,1.3,29.5c-2.6,8.8-2,12.2,2.4,14.3
	c5.9,2.8,13.1-1.8,17.8-11.4c2.1-4.3,2.4-6.3,2.4-15.9c0-10.4-0.2-11.4-3.2-17.5c-5.2-10.6-12.8-18.1-18-17.9
	C1807.3,226.6,1805.5,227.1,1804.2,227.7z"/>
<linearGradient id="SVGID_00000085247271039320935590000008950668522549943440_" gradientUnits="userSpaceOnUse" x1="-1247.2028" y1="-62.662" x2="-1246.2026" y2="-62.662" gradientTransform="matrix(20.78 0 0 -20.67 27752.0215 -1134.4597)">
	<stop  offset="0" style="stop-color:#000000;stop-opacity:0.47"/>
	<stop  offset="1" style="stop-color:#000000;stop-opacity:0.47"/>
</linearGradient>
<path style="fill:url(#SVGID_00000085247271039320935590000008950668522549943440_);stroke:#000000;stroke-miterlimit:10;" d="
	M1840.1,151c-3.2,1.4-6.4,6-6.4,9.3c0,6.1,4.5,10.8,10.5,10.8c9.2,0,13.8-11.6,7.1-17.9C1848.7,150.7,1843.3,149.7,1840.1,151z"/>
<linearGradient id="SVGID_00000096021596934887874820000013248759578465701001_" gradientUnits="userSpaceOnUse" x1="-1363.1901" y1="-20.8248" x2="-1362.1901" y2="-20.8248" gradientTransform="matrix(91 0 0 -61.93 125829.875 -1176.5186)">
	<stop  offset="0" style="stop-color:#000000;stop-opacity:0.54"/>
	<stop  offset="1" style="stop-color:#000000;stop-opacity:0.54"/>
</linearGradient>
<path style="fill:url(#SVGID_00000096021596934887874820000013248759578465701001_);stroke:#000000;stroke-miterlimit:10;" d="
	M1828.9,84.7c-3.2,1.3-7.3,3.8-9,5.4c-1.8,1.8-5.5,3.8-8.6,4.7c-11.1,3.2-25,12.7-25,17c0,1.7,0.7,1.7,13.7-0.2l4.3-0.7l-1.1,3.1
	c-0.9,2.7-2,3.3-9.4,5.6c-9.9,3.1-14.5,6.5-14.5,10.6c0,3.6,2.3,4.4,8.2,3.1c9.5-2.2,11.6-2.1,12.2,0.2c0.3,1.2,0.6,3.2,0.6,4.4
	c0,1.3,0.9,3.2,2,4.3c4.2,4.2,11.4,1.4,17.5-7.1l3.7-4.9h10.8c8.5,0,11.2-0.3,12.4-1.6c1.9-1.8,2-2.8,0.5-5.5
	c-1.1-2.2-10.2-6.9-13.2-6.9c-1.6,0-1.6-0.2-0.3-2.8c3.3-5.9,2.6-5.7,18-6.2c12.3-0.4,14.7-0.8,16.5-2.4c1.2-1.1,2.1-2.7,2.1-3.6
	c0-4-8.1-8.3-18-9.6c-2.8-0.4-5-0.8-5-1s0.5-1.4,1.1-2.8c1.9-4.1-0.2-5.6-7.5-5.6C1836.8,82.2,1832.9,83,1828.9,84.7z"/>
<linearGradient id="SVGID_00000129208127807653004370000017816460567814050714_" gradientUnits="userSpaceOnUse" x1="-1312.7916" y1="-36.3946" x2="-1311.7917" y2="-36.3946" gradientTransform="matrix(37.36 0 0 -34.67 50825.8516 -1204.4221)">
	<stop  offset="0" style="stop-color:#FFBE5E;stop-opacity:0.42"/>
	<stop  offset="1" style="stop-color:#FFBE5E;stop-opacity:0.42"/>
</linearGradient>
<path style="fill:url(#SVGID_00000129208127807653004370000017816460567814050714_);stroke:#000000;stroke-miterlimit:10;" d="
	M1795.3,41.4c-12.4,4.4-17.1,22-8.5,31.2c3.2,3.4,6,2.8,13-2.5c3.5-2.7,9.1-6.7,12.4-9c8.8-5.9,9.7-9.8,3.9-15.5
	C1810.6,40.2,1802.9,38.6,1795.3,41.4z"/>
<linearGradient id="SVGID_00000087399197595717766880000012945783494394139287_" gradientUnits="userSpaceOnUse" x1="-1355.6956" y1="-10.1714" x2="-1354.6954" y2="-10.1714" gradientTransform="matrix(72.94 0 0 -131.61 100699.1484 -1062.2479)">
	<stop  offset="0" style="stop-color:#000000;stop-opacity:0.56"/>
	<stop  offset="1" style="stop-color:#000000;stop-opacity:0.56"/>
</linearGradient>
<path style="fill:url(#SVGID_00000087399197595717766880000012945783494394139287_);stroke:#000000;stroke-miterlimit:10;" d="
	M1833.8,212.4c-2.8,3.1-1.9,6.4,4.1,14.7c6.1,8.5,11.7,19.3,14.8,28.5c2.8,8.2,2.6,27.3-0.5,35.5c-4.4,12.1-13.7,23.1-27.4,32.2
	c-10.1,6.7-12.7,9.2-12.7,12.3c0,6.1,7.3,8.1,20.1,5.5c25.4-5.1,47.3-25,52-47.2c4.8-23.3-11.5-62.2-32.8-78.2
	c-5.9-4.4-7.4-5.1-11.4-5.1C1836.8,210.6,1834.9,211.2,1833.8,212.4L1833.8,212.4z"/>
<linearGradient id="SVGID_00000048480103000298474590000016372665522078480318_" gradientUnits="userSpaceOnUse" x1="-1349.9901" y1="-8.9571" x2="-1348.9901" y2="-8.9571" gradientTransform="matrix(63.47 0 0 -124.66 87629.3594 -1034.355)">
	<stop  offset="0" style="stop-color:#000000;stop-opacity:0.58"/>
	<stop  offset="1" style="stop-color:#000000;stop-opacity:0.58"/>
</linearGradient>
<path style="fill:url(#SVGID_00000048480103000298474590000016372665522078480318_);stroke:#000000;stroke-miterlimit:10;" d="
	M1956.3,20.3c-3.1,0.4-3.7,0.7-3.2,2.1c2.7,7,3.7,14.4,4.2,31.2c0.8,25.1-1.5,40.5-9.2,62.9c-3.1,9.3-3.2,13.3,0,18.7
	c1.8,3.1,3.9,5,8,7c4.9,2.4,6.4,2.6,13.3,2.2c16.2-0.9,24.9-10.3,33-35.8c7.9-25,9-54.3,2.9-78.6l-2.2-8.9l-7.5-0.6
	C1987.4,19.8,1962.3,19.7,1956.3,20.3L1956.3,20.3z"/>
<linearGradient id="SVGID_00000172400207874959573850000010577779857350136488_" gradientUnits="userSpaceOnUse" x1="-1321.9707" y1="-36.195" x2="-1320.9708" y2="-36.195" gradientTransform="matrix(40.77 0 0 -34.73 55729.1875 -1216.6401)">
	<stop  offset="0" style="stop-color:#FFBE5E;stop-opacity:0.42"/>
	<stop  offset="1" style="stop-color:#FFBE5E;stop-opacity:0.42"/>
</linearGradient>
<path style="fill:url(#SVGID_00000172400207874959573850000010577779857350136488_);stroke:#000000;stroke-miterlimit:10;" d="
	M1844.3,25c-4.8,2.2-8,5.9-9.6,11.3c-0.9,3.2-0.9,4.4,0.5,7.3c1.3,2.8,3.3,4.2,11.2,8c12.3,5.8,18.1,7.3,22.1,5.4
	c7.9-3.8,8.6-19.7,1.1-27.7C1863.9,23.1,1852.6,21.2,1844.3,25z"/>
<linearGradient id="SVGID_00000096750635416662706980000017606015078461370278_" gradientUnits="userSpaceOnUse" x1="-1340.4576" y1="-28.5257" x2="-1339.4578" y2="-28.5257" gradientTransform="matrix(51.15 0 0 -45.4 70583.5312 -1058.1707)">
	<stop  offset="0" style="stop-color:#000000;stop-opacity:0.52"/>
	<stop  offset="1" style="stop-color:#000000;stop-opacity:0.52"/>
</linearGradient>
<path style="fill:url(#SVGID_00000096750635416662706980000017606015078461370278_);stroke:#000000;stroke-miterlimit:10;" d="
	M2045.2,220.2c-6.9,7.1-13.7,10.1-20.5,9.2c-2.1-0.3-3.9-0.3-3.9,0s1.5,3.2,3.2,6.6c6.9,12.9,19,22.2,30.2,23.4
	c4.3,0.5,6.4,0.1,10-1.7c8.6-4.1,10.1-12.8,4.2-23.4c-3.6-6.4-14.4-19.8-16.1-20.1C2051.8,214.1,2048.6,216.8,2045.2,220.2
	L2045.2,220.2z"/>
<linearGradient id="SVGID_00000017480746393198542450000003879235938192599961_" gradientUnits="userSpaceOnUse" x1="-1242.6874" y1="-62.5873" x2="-1241.6874" y2="-62.5873" gradientTransform="matrix(20.5 0 0 -20.73 27268.7598 -1128.8296)">
	<stop  offset="0" style="stop-color:#000000;stop-opacity:0.48"/>
	<stop  offset="1" style="stop-color:#000000;stop-opacity:0.48"/>
</linearGradient>
<path style="fill:url(#SVGID_00000017480746393198542450000003879235938192599961_);stroke:#000000;stroke-miterlimit:10;" d="
	M1799.7,158.9c-3.9,1.7-6,5.1-6,9.8c0,3.8,0.5,4.9,3.3,7.4c7,6.3,17.2,1.6,17.2-8C1814.2,161.8,1805.6,156.3,1799.7,158.9z"/>
<linearGradient id="SVGID_00000020387516202152378320000017537835421366701496_" gradientUnits="userSpaceOnUse" x1="-1339.1096" y1="-10.0042" x2="-1338.1096" y2="-10.0042" gradientTransform="matrix(51.65 0 0 -112.7 71192.9297 -1043.9242)">
	<stop  offset="0" style="stop-color:#000000;stop-opacity:0.57"/>
	<stop  offset="1" style="stop-color:#000000;stop-opacity:0.57"/>
</linearGradient>
<path style="fill:url(#SVGID_00000020387516202152378320000017537835421366701496_);stroke:#000000;stroke-miterlimit:10;" d="
	M2032.8,29.4c6,19,6.7,49.7,1.4,70.2c-1.1,4.3-3.5,11.6-5.5,16.4c-1.9,4.7-3.5,9.7-3.5,10.9c0,11.6,13.3,16.5,27.8,10.3
	c6.1-2.6,9-6.2,14.3-17.4c4.5-9.6,7.4-20.9,9-35.1c1.8-16.4-1-38.3-5.3-41.9c-5.6-4.5-31.7-15.6-36.9-15.6
	C2032.4,27.2,2032.2,27.6,2032.8,29.4z"/>
<linearGradient id="SVGID_00000126299866051994694320000004432090062253063558_" gradientUnits="userSpaceOnUse" x1="-1347.0189" y1="-10.076" x2="-1346.019" y2="-10.076" gradientTransform="matrix(59.96 0 0 -111.76 82644.5781 -1051.4265)">
	<stop  offset="0" style="stop-color:#000000;stop-opacity:0.58"/>
	<stop  offset="1" style="stop-color:#000000;stop-opacity:0.58"/>
</linearGradient>
<path style="fill:url(#SVGID_00000126299866051994694320000004432090062253063558_);stroke:#000000;stroke-miterlimit:10;" d="
	M1893.5,20c0.3,0.7,1.3,5.1,2.2,9.8c1.3,6.5,1.6,11.5,1.2,22.4c-0.5,16.5-2.5,24-11.2,43.9c-6.4,14.9-6.8,18.2-2.6,24.7
	c5.5,8.7,15.1,11.8,26.7,8.4c7.8-2.2,13.5-8.1,19.1-19.5c8.1-16.8,11.4-32.3,11.4-53.5c-0.1-9.3-0.7-16.8-1.8-22.5l-1.8-8.5
	l-5.5-0.3c-13.5-0.6-26.3-2.3-31.2-4.2C1893.8,18.4,1892.8,18.2,1893.5,20L1893.5,20z"/>
<linearGradient id="SVGID_00000011720036883963864910000000930375514877907348_" gradientUnits="userSpaceOnUse" x1="-1314.45" y1="-39.6745" x2="-1313.4501" y2="-39.6745" gradientTransform="matrix(35.04 0 0 -32.92 48102.7461 -1123.342)">
	<stop  offset="0" style="stop-color:#000000;stop-opacity:0.53"/>
	<stop  offset="1" style="stop-color:#000000;stop-opacity:0.53"/>
</linearGradient>
<path style="fill:url(#SVGID_00000011720036883963864910000000930375514877907348_);stroke:#000000;stroke-miterlimit:10;" d="
	M2051.1,167.1c-2.4,0.4-4.4,0.9-4.7,1.2c-0.2,0.2,0.5,4.4,1.5,9.4c1,4.9,1.9,11.8,1.9,15.2v6.3h4.5c5.9,0,14.2-1.8,18.8-4.2
	c10.2-5.1,11.2-20,1.9-26.3c-3.2-2.2-4.7-2.5-11.7-2.4C2058.9,166.4,2053.4,166.8,2051.1,167.1z"/>
<g>
	<g>
		<line class="st48" x1="521.6" y1="343.6" x2="605.9" y2="343.6"/>
		<g>
			<path d="M624,343.6c-8.5,3.2-19.1,8.6-25.6,14.3l5.2-14.3l-5.2-14.3C604.9,335,615.5,340.4,624,343.6z"/>
		</g>
	</g>
</g>
<linearGradient id="SVGID_00000037687527692820102980000005417161945686682550_" gradientUnits="userSpaceOnUse" x1="-1394.2325" y1="-2.3177" x2="-1393.2325" y2="-2.3177" gradientTransform="matrix(580 0 0 -447 809242.75 -812)">
	<stop  offset="0" style="stop-color:#72552A"/>
	<stop  offset="1" style="stop-color:#72552A"/>
</linearGradient>
<path style="fill:url(#SVGID_00000037687527692820102980000005417161945686682550_);" d="M740.8,2.5c-2.3,1-6.7,4.3-9.8,7.2
	l-5.6,5.3l-16.7-0.3c-19.9-0.5-31.1,1.1-48.1,6.9l-11.5,3.8l-4.5-4.3c-7.6-7.4-12-9.1-23-9.1c-7.9,0-10.2,0.4-13.6,2.2
	c-9.4,5-14.4,11.4-17,21.5c-2.3,9-0.1,20.2,5.5,26.8l2.8,3.4l-3.7,8.1c-2.1,4.4-4.9,11.8-6.4,16.3c-2.4,7.7-2.6,9.6-2.6,27
	c0,39.6,6.5,57.3,35.9,98.1c16.7,23.2,21.3,33.6,35,78.7c15.6,51.8,25.9,80.1,37.8,103.9c14,28.1,25.6,40.9,42.9,47.1
	c5.5,2,8.4,2.4,18.8,2.4c14.6,0,19.8-1.5,32.1-8.9c25.3-15.4,43.6-20.9,72.5-21.8c14.8-0.4,19.3-0.2,29.6,1.5
	c21.1,3.6,35.2,9,52.4,19.8c12.6,7.9,17.8,9.4,32.6,9.4c19.8,0,28.3-4,45.1-21.3c16.7-17.2,33.4-41.2,46.2-66.6
	c8.7-17.3,11.7-24.9,15.1-38.6c4.6-18.1,8-46.9,8-67.6v-8.9h4.8c11.9-0.1,26.8-6,40.1-16.1c15.5-11.6,23.9-24.3,28.6-43.3
	c2.3-9.1,2.5-11.7,2.5-32.7c0-23.6-0.6-29-5.1-44.4c-7.1-24.1-19.9-37.1-34.5-35.1c-6.1,0.8-10.5,3.6-13.2,8.4
	c-2.9,5.1-2.8,7.8,0.8,25.2c3.8,18.4,4,30.6,0.8,40c-1.8,5.5-3.3,7.7-10.2,14.6c-6.5,6.5-9.2,8.5-13.5,9.9c-6,1.9-11.8,1.6-15.7-1
	c-2.6-1.7-3.2-2.5-13.3-18c-27.1-41.4-73.5-57.6-153.2-53.5c-28,1.4-48.2,0.9-57.5-1.6c-12.6-3.2-19.9-9-38.4-29.9
	c-7.3-8.3-15.4-17.3-18-20c-4.6-4.8-4.8-5.3-5.3-12c-0.8-10-3.9-17.4-10-24.2C772.7,2.6,767.6,0.5,755,0.5
	C747.3,0.5,744,1,740.8,2.5L740.8,2.5z"/>
</svg>
