<?xml version="1.0" encoding="utf-8"?>
<!-- Generator: Adobe Illustrator 26.5.0, SVG Export Plug-In . SVG Version: 6.00 Build 0)  -->
<svg version="1.1" id="图层_1" xmlns="http://www.w3.org/2000/svg" xmlns:xlink="http://www.w3.org/1999/xlink" x="0px" y="0px"
	 viewBox="0 0 1507.3 449" style="enable-background:new 0 0 1507.3 449;" xml:space="preserve">
<style type="text/css">
	.st0{fill:none;}
	.st1{fill:#D3D3D3;}
	.st2{clip-path:url(#SVGID_00000109748350502310516950000013363317180125576328_);}
	.st3{fill:url(#SVGID_00000024693445837397731840000001135775010719261579_);}
	.st4{fill:url(#region-1-1_00000129905242976733630320000013826610843555713154_);}
	.st5{fill:url(#region-2-1_00000043451291372387025100000003599693847557326209_);}
	.st6{fill:url(#region-2-2_00000129895433858323910190000004716456461292005053_);}
	.st7{fill:url(#region-2-3_00000059293210095715712530000013257726630041899155_);}
	.st8{fill:url(#region-2-4_00000100362329509850247290000017751491615173644474_);}
	.st9{fill:url(#region-2-5_00000152246180780441253940000005636018895628550800_);}
	.st10{fill:url(#region-2-6_00000004547729374567118130000014404370039725409464_);}
	.st11{fill:url(#region-2-7_00000139280305096471935420000002307778325179398558_);}
	.st12{fill:url(#region-2-8_00000169545546181814913930000010456831825069841330_);}
	.st13{fill:url(#region-2-9_00000015331720110231521500000007124028626688308882_);}
	.st14{fill:url(#region-2-10_00000127010802443262185790000000164109448544770741_);}
	.st15{fill:url(#region-2-11_00000077287035611858960480000003325193157939898013_);}
	.st16{fill:url(#region-2-12_00000086654634239087937660000011419139383750682300_);}
	.st17{fill:url(#region-2-13_00000066492743381066160720000016724007059805878971_);}
	.st18{fill:url(#region-2-14_00000055671865347893245200000009543349143657737347_);}
	.st19{fill:url(#region-2-15_00000145755471560043417800000011753649856171142797_);}
	.st20{fill:url(#region-2-16_00000081643711923879480750000000509508993237444780_);}
	.st21{fill:url(#region-3-1_00000072266319194254134650000017938947068965980555_);}
	.st22{fill:url(#region-3-2_00000008115533021583092780000004359780287490037427_);}
	.st23{fill:url(#region-3-3_00000079488213603205513850000017433564784240604839_);}
	.st24{fill:url(#region-3-4_00000104673061203069859440000003884620376496834470_);}
	.st25{fill:url(#region-3-5_00000108297353762580456910000000684375812607494800_);}
	.st26{fill:url(#region-3-6_00000052802714027098367310000018118438562922130856_);}
	.st27{fill:url(#region-3-7_00000138571258529800623900000000052206203542701753_);}
	.st28{fill:url(#region-3-8_00000178924237099385841110000013397271636304659365_);}
	.st29{fill:url(#region-3-9_00000020398484951633136760000016867267527485245599_);}
	.st30{fill:url(#region-3-10_00000165192875272691761030000016847221011699978671_);}
	.st31{fill:url(#region-3-11_00000116955570127527484810000009973662163328314787_);}
	.st32{fill:url(#region-1-1_00000167383418634441976050000011588175254827688338_);}
	.st33{fill:url(#region-2-1_00000061440840459529029600000017063449315625972365_);stroke:#000000;stroke-miterlimit:10;}
	.st34{fill:url(#region-2-2_00000073697014377278870600000017412081971077770121_);}
	.st35{fill:url(#region-2-3_00000057843559083236607570000007356958857676363408_);stroke:#000000;stroke-miterlimit:10;}
	.st36{fill:url(#region-2-4_00000160178242618341456090000000203932211153553029_);}
	.st37{fill:url(#region-2-5_00000147904338493324417270000009594373331782582442_);}
	.st38{fill:url(#region-2-6_00000032651080761701755950000012788311684482636950_);}
	.st39{fill:url(#region-2-7_00000033345055411105724120000011301791237680982678_);}
	.st40{fill:url(#region-2-8_00000098206886329908451250000008067674413747542953_);}
	.st41{fill:url(#region-2-9_00000129902411620792341630000017913596442747120547_);}
	.st42{fill:url(#region-2-10_00000051380690903537702130000004727118501025945218_);}
	.st43{fill:url(#region-2-11_00000049187685950512326950000004553004030896183227_);}
	.st44{fill:url(#region-2-14_00000042697686855578372270000000330023427872500896_);}
	.st45{fill:url(#region-2-15_00000152978842343508064680000014639895763363164808_);}
	.st46{fill:url(#region-2-16_00000003092245489443448060000010326576648683296906_);}
	.st47{fill:none;stroke:#000000;stroke-width:3;stroke-miterlimit:10;}
</style>
<pattern  y="449" width="40" height="40" patternUnits="userSpaceOnUse" id="SVGID_0000000884957668201953165" viewBox="0 -40 40 40" style="overflow:visible;">
	<g>
		<rect y="-40" class="st0" width="40" height="40"/>
		<g>
			<rect y="-40" class="st0" width="40" height="40"/>
			<g>
				<rect y="-40" class="st0" width="40" height="40"/>
				<g>
					<rect y="-40" class="st0" width="40" height="40"/>
					<g>
						<rect y="-40" class="st0" width="40" height="40"/>
						<g>
							<rect y="-40" class="st0" width="40" height="40"/>
							<g>
								<rect y="-40" class="st0" width="40" height="40"/>
								<g>
									<polygon class="st0" points="0,0 40,0 40,-40 0,-40 									"/>
									<polygon class="st1" points="0,-20 20,-20 20,-40 0,-40 									"/>
									<polygon class="st1" points="20,0 40,0 40,-20 20,-20 									"/>
								</g>
							</g>
						</g>
					</g>
				</g>
			</g>
		</g>
	</g>
</pattern>
<g id="_图层_2">
	<g>
		<g>
			<g>
				<defs>
					<rect id="SVGID_1_" x="0.3" width="1507" height="449"/>
				</defs>
				<clipPath id="SVGID_00000133498064870493226170000010651679003347363498_">
					<use xlink:href="#SVGID_1_"  style="overflow:visible;"/>
				</clipPath>
				<g style="clip-path:url(#SVGID_00000133498064870493226170000010651679003347363498_);">
					
						<pattern  id="SVGID_00000163032106713893415410000007865768438784224178_" xlink:href="#SVGID_0000000884957668201953165" patternTransform="matrix(1 0 0 1 104.85 18045.1094)">
					</pattern>
					<rect x="0.3" style="fill:url(#SVGID_00000163032106713893415410000007865768438784224178_);" width="1506" height="448.7"/>
				</g>
			</g>
		</g>
	</g>
</g>
<g id="_图层_1">
	<g id="layer-1">
		
			<linearGradient id="region-1-1_00000064348762589897963090000012347227858097257645_" gradientUnits="userSpaceOnUse" x1="-1693.847" y1="-2.5212" x2="-1692.637" y2="-2.0511" gradientTransform="matrix(580 0 0 -447 982363.75 -812)">
			<stop  offset="0" style="stop-color:#D8A554"/>
			<stop  offset="1" style="stop-color:#E5B973"/>
		</linearGradient>
		<path id="region-1-1" style="fill:url(#region-1-1_00000064348762589897963090000012347227858097257645_);" d="M155.5,3
			c-2.3,1-6.7,4.3-9.8,7.2l-5.6,5.3l-16.7-0.3c-19.9-0.5-31.1,1.1-48.1,6.9l-11.5,3.8l-4.5-4.3c-7.6-7.4-12-9.1-23-9.1
			c-7.9,0-10.2,0.4-13.6,2.2c-9.4,5-14.4,11.4-17,21.5c-2.3,9-0.1,20.2,5.5,26.8l2.8,3.4l-3.7,8.1c-2.1,4.4-4.9,11.8-6.4,16.3
			c-2.4,7.7-2.6,9.6-2.6,27c0,39.6,6.5,57.3,35.9,98.1c16.7,23.2,21.3,33.6,35,78.7c15.6,51.8,25.9,80.1,37.8,103.9
			c14,28.1,25.6,40.9,42.9,47.1c5.5,2,8.4,2.4,18.8,2.4c14.6,0,19.8-1.5,32.1-8.9c25.3-15.4,43.6-20.9,72.5-21.8
			c14.8-0.4,19.3-0.2,29.6,1.5c21.1,3.6,35.2,9,52.4,19.8c12.6,7.9,17.8,9.4,32.6,9.4c19.8,0,28.3-4,45.1-21.3
			c16.7-17.2,33.4-41.2,46.2-66.6c8.7-17.3,11.7-24.9,15.1-38.6c4.6-18.1,8-46.9,8-67.6V245h4.8c11.9-0.1,26.8-6,40.1-16.1
			c15.5-11.6,23.9-24.3,28.6-43.3c2.3-9.1,2.5-11.7,2.5-32.7c0-23.6-0.6-29-5.1-44.4c-7.1-24.1-19.9-37.1-34.5-35.1
			c-6.1,0.8-10.5,3.6-13.2,8.4c-2.9,5.1-2.8,7.8,0.8,25.2c3.8,18.4,4,30.6,0.8,40c-1.8,5.5-3.3,7.7-10.2,14.6
			c-6.5,6.5-9.2,8.5-13.5,9.9c-6,1.9-11.8,1.6-15.7-1c-2.6-1.7-3.2-2.5-13.3-18c-27.1-41.4-73.5-57.6-153.2-53.5
			c-28,1.4-48.2,0.9-57.5-1.6c-12.6-3.2-19.9-9-38.4-29.9c-7.3-8.3-15.4-17.3-18-20c-4.6-4.8-4.8-5.3-5.3-12
			c-0.8-10-3.9-17.4-10-24.2C187.5,3.1,182.4,1,169.8,1C162.1,1,158.8,1.5,155.5,3L155.5,3z"/>
	</g>
	<g id="layer-2">
		
			<linearGradient id="region-2-1_00000142142930180176262750000011882988065141368977_" gradientUnits="userSpaceOnUse" x1="-1654.8937" y1="-35.1917" x2="-1654.1537" y2="-36.3317" gradientTransform="matrix(40.77 0 0 -34.73 67620.4219 -1216.6401)">
			<stop  offset="0" style="stop-color:#5B2301;stop-opacity:0.31"/>
			<stop  offset="1" style="stop-color:#6D3710;stop-opacity:0.42"/>
		</linearGradient>
		<path id="region-2-1" style="fill:url(#region-2-1_00000142142930180176262750000011882988065141368977_);" d="M156.7,12.9
			c-4.8,2.2-8,5.9-9.6,11.3c-0.9,3.2-0.9,4.4,0.5,7.3c1.3,2.8,3.3,4.2,11.2,8c12.3,5.8,18.1,7.3,22.1,5.4c7.9-3.8,8.6-19.7,1.1-27.7
			C176.3,11,165,9.1,156.7,12.9z"/>
		
			<linearGradient id="region-2-2_00000048487727172986574530000016516434123005133245_" gradientUnits="userSpaceOnUse" x1="-1678.0743" y1="-19.4592" x2="-1676.9243" y2="-20.1492" gradientTransform="matrix(91 0 0 -61.93 152739.875 -1176.5186)">
			<stop  offset="0" style="stop-color:#34280D;stop-opacity:0.69"/>
			<stop  offset="1" style="stop-color:#000000;stop-opacity:0.89"/>
		</linearGradient>
		<path id="region-2-2" style="fill:url(#region-2-2_00000048487727172986574530000016516434123005133245_);" d="M90.9,21.5
			c-3.2,1.3-7.3,3.8-9,5.4c-1.8,1.8-5.5,3.8-8.6,4.7c-11.1,3.2-25,12.7-25,17c0,1.7,0.7,1.7,13.7-0.2l4.3-0.7l-1.1,3.1
			c-0.9,2.7-2,3.3-9.4,5.6c-9.9,3.1-14.5,6.5-14.5,10.6c0,3.6,2.3,4.4,8.2,3.1c9.5-2.2,11.6-2.1,12.2,0.2c0.3,1.2,0.6,3.2,0.6,4.4
			c0,1.3,0.9,3.2,2,4.3c4.2,4.2,11.4,1.4,17.5-7.1l3.7-4.9h10.8c8.5,0,11.2-0.3,12.4-1.6c1.9-1.8,2-2.8,0.5-5.5
			C108.1,57.7,99,53,96,53c-1.6,0-1.6-0.2-0.3-2.8c3.3-5.9,2.6-5.7,18-6.2c12.3-0.4,14.7-0.8,16.5-2.4c1.2-1.1,2.1-2.7,2.1-3.6
			c0-4-8.1-8.3-18-9.6c-2.8-0.4-5-0.8-5-1s0.5-1.4,1.1-2.8c1.9-4.1-0.2-5.6-7.5-5.6C98.8,19,94.9,19.8,90.9,21.5z"/>
		
			<linearGradient id="region-2-3_00000096053357243977905090000000821414951041857979_" gradientUnits="userSpaceOnUse" x1="-1650.661" y1="-35.3369" x2="-1650.661" y2="-36.337" gradientTransform="matrix(37.36 0 0 -34.67 61697.4922 -1204.4221)">
			<stop  offset="0" style="stop-color:#4D1600;stop-opacity:0.25"/>
			<stop  offset="1" style="stop-color:#461100;stop-opacity:0.33"/>
		</linearGradient>
		<path id="region-2-3" style="fill:url(#region-2-3_00000096053357243977905090000000821414951041857979_);" d="M23,24.5
			c-12.4,4.4-17.1,22-8.5,31.2c3.2,3.4,6,2.8,13-2.5c3.5-2.7,9.1-6.7,12.4-9c8.8-5.9,9.7-9.8,3.9-15.5C38.3,23.3,30.6,21.7,23,24.5z
			"/>
		
			<linearGradient id="region-2-4_00000145031772143709099420000007009335672389200787_" gradientUnits="userSpaceOnUse" x1="-1673.467" y1="-9.0502" x2="-1671.837" y2="-9.3002" gradientTransform="matrix(72.94 0 0 -131.61 122209.2109 -1062.2479)">
			<stop  offset="0" style="stop-color:#2E250A;stop-opacity:0.67"/>
			<stop  offset="1" style="stop-color:#000000;stop-opacity:0.89"/>
		</linearGradient>
		<path id="region-2-4" style="fill:url(#region-2-4_00000145031772143709099420000007009335672389200787_);" d="M171,70.8
			c-2.8,3.1-1.9,6.4,4.1,14.7c6.1,8.5,11.7,19.3,14.8,28.5c2.8,8.2,2.6,27.3-0.5,35.5c-4.4,12.1-13.7,23.1-27.4,32.2
			c-10.1,6.7-12.7,9.2-12.7,12.3c0,6.1,7.3,8.1,20.1,5.5c25.4-5.1,47.3-25,52-47.2c4.8-23.3-11.5-62.2-32.8-78.2
			c-5.9-4.4-7.4-5.1-11.4-5.1C174.1,69,172.2,69.6,171,70.8L171,70.8z"/>
		
			<linearGradient id="region-2-5_00000158729062012456412220000009415058944234706578_" gradientUnits="userSpaceOnUse" x1="-1636.8929" y1="-19.239" x2="-1635.0829" y2="-19.4791" gradientTransform="matrix(28.37 0 0 -63.52 46587.1914 -1105.9692)">
			<stop  offset="0" style="stop-color:#1E1406;stop-opacity:0.74"/>
			<stop  offset="1" style="stop-color:#040000;stop-opacity:0.84"/>
		</linearGradient>
		<path id="region-2-5" style="fill:url(#region-2-5_00000158729062012456412220000009415058944234706578_);" d="M151.5,88.2
			c-2.8,1.4-3.9,5.3-2.4,8.7c0.6,1.4,2.3,5.5,3.8,9.1c3.9,9.2,4.4,19.2,1.3,29.5c-2.6,8.8-2,12.2,2.4,14.3
			c5.9,2.8,13.1-1.8,17.8-11.4c2.1-4.3,2.4-6.3,2.4-15.9c0-10.4-0.2-11.4-3.2-17.5c-5.2-10.6-12.8-18.1-18-17.9
			C154.6,87.1,152.8,87.6,151.5,88.2z"/>
		
			<linearGradient id="region-2-6_00000026158294181911888310000008644626474401531574_" gradientUnits="userSpaceOnUse" x1="-1668.413" y1="-10.6531" x2="-1666.7329" y2="-10.9432" gradientTransform="matrix(59.96 0 0 -111.76 100273.6094 -1051.4265)">
			<stop  offset="0" style="stop-color:#231602;stop-opacity:0.7"/>
			<stop  offset="1" style="stop-color:#000000;stop-opacity:0.9"/>
		</linearGradient>
		<path id="region-2-6" style="fill:url(#region-2-6_00000026158294181911888310000008644626474401531574_);" d="M255.6,95.3
			c0.3,0.7,1.3,5.1,2.2,9.8c1.3,6.5,1.6,11.5,1.2,22.4c-0.5,16.5-2.5,24-11.2,43.9c-6.4,14.9-6.8,18.2-2.6,24.7
			c5.5,8.7,15.1,11.8,26.7,8.4c7.8-2.2,13.5-8.1,19.1-19.5c8.1-16.8,11.4-32.3,11.4-53.5c-0.1-9.3-0.7-16.8-1.8-22.5l-1.8-8.5
			l-5.5-0.3c-13.5-0.6-26.3-2.3-31.2-4.2C256,93.7,255,93.5,255.6,95.3L255.6,95.3z"/>
		
			<linearGradient id="region-2-7_00000113351327530816202560000008202340837136584121_" gradientUnits="userSpaceOnUse" x1="-1670.0017" y1="-9.4269" x2="-1668.1517" y2="-9.8868" gradientTransform="matrix(63.47 0 0 -124.66 106307.8906 -1034.355)">
			<stop  offset="0" style="stop-color:#2B2520;stop-opacity:0.67"/>
			<stop  offset="1" style="stop-color:#000000;stop-opacity:0.92"/>
		</linearGradient>
		<path id="region-2-7" style="fill:url(#region-2-7_00000113351327530816202560000008202340837136584121_);" d="M329,98.7
			c-3.1,0.4-3.7,0.7-3.2,2.1c2.7,7,3.7,14.4,4.2,31.2c0.8,25.1-1.5,40.5-9.2,62.9c-3.1,9.3-3.2,13.3,0,18.7c1.8,3.1,3.9,5,8,7
			c4.9,2.4,6.4,2.6,13.3,2.2c16.2-0.9,24.9-10.3,33-35.8c7.9-25,9-54.3,2.9-78.6l-2.2-8.9l-7.5-0.6C360.1,98.2,335,98.1,329,98.7
			L329,98.7z"/>
		
			<linearGradient id="region-2-8_00000080202380994077180760000009433510743694058929_" gradientUnits="userSpaceOnUse" x1="-1648.0396" y1="-37.1605" x2="-1647.3396" y2="-38.3005" gradientTransform="matrix(35.04 0 0 -32.92 58280.707 -1123.342)">
			<stop  offset="0" style="stop-color:#0C0100;stop-opacity:0.8"/>
			<stop  offset="1" style="stop-color:#241601;stop-opacity:0.81"/>
		</linearGradient>
		<path id="region-2-8" style="fill:url(#region-2-8_00000080202380994077180760000009433510743694058929_);" d="M533.7,101.9
			c-2.4,0.4-4.4,0.9-4.7,1.2c-0.2,0.2,0.5,4.4,1.5,9.4c1,4.9,1.9,11.8,1.9,15.2v6.3h4.5c5.9,0,14.2-1.8,18.8-4.2
			c10.2-5.1,11.2-20,1.9-26.3c-3.2-2.2-4.7-2.5-11.7-2.4C541.5,101.2,536,101.6,533.7,101.9z"/>
		
			<linearGradient id="region-2-9_00000113324339872586737410000017151130688434364547_" gradientUnits="userSpaceOnUse" x1="-1615.1018" y1="-60.3247" x2="-1613.7917" y2="-60.7047" gradientTransform="matrix(20.78 0 0 -20.67 33666.2383 -1134.4597)">
			<stop  offset="0" style="stop-color:#100500;stop-opacity:0.75"/>
			<stop  offset="1" style="stop-color:#1E1205;stop-opacity:0.7"/>
		</linearGradient>
		<path id="region-2-9" style="fill:url(#region-2-9_00000113324339872586737410000017151130688434364547_);" d="M111.7,105.9
			c-3.2,1.4-6.4,6-6.4,9.3c0,6.1,4.5,10.8,10.5,10.8c9.2,0,13.8-11.6,7.1-17.9C120.3,105.6,114.9,104.6,111.7,105.9z"/>
		
			<linearGradient id="region-2-10_00000088103151866541049050000017992749788220604067_" gradientUnits="userSpaceOnUse" x1="-1663.9419" y1="-10.4867" x2="-1662.2019" y2="-11.2766" gradientTransform="matrix(51.65 0 0 -112.7 86337.2812 -1043.9242)">
			<stop  offset="0" style="stop-color:#342005;stop-opacity:0.75"/>
			<stop  offset="1" style="stop-color:#000000;stop-opacity:0.85"/>
		</linearGradient>
		<path id="region-2-10" style="fill:url(#region-2-10_00000088103151866541049050000017992749788220604067_);" d="M407,107.2
			c6,19,6.7,49.7,1.4,70.2c-1.1,4.3-3.5,11.6-5.5,16.4c-1.9,4.7-3.5,9.7-3.5,10.9c0,11.6,13.3,16.5,27.8,10.3
			c6.1-2.6,9-6.2,14.3-17.4c4.5-9.6,7.4-20.9,9-35.1c1.8-16.4-1-38.3-5.3-41.9c-5.6-4.5-31.7-15.6-36.9-15.6
			C406.5,105,406.4,105.4,407,107.2z"/>
		
			<linearGradient id="region-2-11_00000145033825357002332630000002763208564828499860_" gradientUnits="userSpaceOnUse" x1="-1613.9042" y1="-60.2438" x2="-1612.8142" y2="-60.3038" gradientTransform="matrix(20.5 0 0 -20.73 33099.2578 -1128.8296)">
			<stop  offset="0" style="stop-color:#180E03;stop-opacity:0.78"/>
			<stop  offset="1" style="stop-color:#0E0400;stop-opacity:0.82"/>
		</linearGradient>
		<path id="region-2-11" style="fill:url(#region-2-11_00000145033825357002332630000002763208564828499860_);" d="M20.8,110.9
			c-3.9,1.7-6,5.1-6,9.8c0,3.8,0.5,4.9,3.3,7.4c7,6.3,17.2,1.6,17.2-8C35.3,113.8,26.7,108.3,20.8,110.9z"/>
		
			<linearGradient id="region-2-12_00000139282535274173433390000002023638146287715467_" gradientUnits="userSpaceOnUse" x1="-1645.2328" y1="-42.5962" x2="-1644.7128" y2="-43.7563" gradientTransform="matrix(33.14 0 0 -28.84 54580.0586 -1109.189)">
			<stop  offset="0" style="stop-color:#150D03;stop-opacity:0.76"/>
			<stop  offset="1" style="stop-color:#000000;stop-opacity:0.85"/>
		</linearGradient>
		<path id="region-2-12" style="fill:url(#region-2-12_00000139282535274173433390000002023638146287715467_);" d="M58.8,124.9
			c-7.4,1.8-9.5,4.4-9.5,11.9c0,5.7,2.7,10.4,8,14c2.9,2,4.5,2.3,9,2c6.4-0.5,9.6-2.4,13.4-8.3c3.5-5.3,3.7-13.2,0.3-16.3
			C75.9,124.4,66.9,123,58.8,124.9z"/>
		
			<linearGradient id="region-2-13_00000069380570847823402180000016517655046225419437_" gradientUnits="userSpaceOnUse" x1="-1676.5767" y1="-25.0283" x2="-1676.3367" y2="-26.2883" gradientTransform="matrix(85.96 0 0 -48.29 144176.8438 -1072.4696)">
			<stop  offset="0" style="stop-color:#FFFFFA;stop-opacity:0.82"/>
			<stop  offset="1" style="stop-color:#FFFFF7;stop-opacity:0.78"/>
		</linearGradient>
		<path id="region-2-13" style="fill:url(#region-2-13_00000069380570847823402180000016517655046225419437_);" d="M79.3,145.4
			c-3.3,4.7-6.8,6.9-12.1,7.4c-6,0.6-10-1-14-5.5l-3-3.5l-5.4,2.2c-10.3,4.2-18.5,14-18.5,22.1s4.3,16.5,9.8,19.3
			c3.9,1.9,11.1,2.7,15.6,1.7c3-0.7,4.4-0.6,6,0.5c2.5,1.7,11.9,1.9,14.9,0.2c1.4-0.8,5.7-1.1,11.9-0.9c8.1,0.2,10.4-0.1,14.5-1.9
			c5.4-2.4,9.8-6.1,11.9-10.2c1.9-3.6,1.8-12.2-0.2-16.4c-3.4-7.2-13.2-14-24.6-16.9C83,142.6,80.8,143.3,79.3,145.4L79.3,145.4z"/>
		
			<linearGradient id="region-2-14_00000182529160779305984650000018144324222456768436_" gradientUnits="userSpaceOnUse" x1="-1662.9406" y1="-26.755" x2="-1662.9406" y2="-27.7551" gradientTransform="matrix(51.15 0 0 -45.4 85578.3828 -1058.1707)">
			<stop  offset="0" style="stop-color:#1C150F;stop-opacity:0.74"/>
			<stop  offset="1" style="stop-color:#010000;stop-opacity:0.84"/>
		</linearGradient>
		<path id="region-2-14" style="fill:url(#region-2-14_00000182529160779305984650000018144324222456768436_);" d="M517.8,163.5
			c-6.9,7.1-13.7,10.1-20.5,9.2c-2.1-0.3-3.9-0.3-3.9,0s1.5,3.2,3.2,6.6c6.9,12.9,19,22.2,30.2,23.4c4.3,0.5,6.4,0.1,10-1.7
			c8.6-4.1,10.1-12.8,4.2-23.4c-3.6-6.4-14.4-19.8-16.1-20.1C524.4,157.4,521.2,160.1,517.8,163.5L517.8,163.5z"/>
		
			<linearGradient id="region-2-15_00000012442157467265787140000012993567516144375698_" gradientUnits="userSpaceOnUse" x1="-1672.03" y1="-18.6388" x2="-1670.9301" y2="-18.5589" gradientTransform="matrix(68.83 0 0 -66 115453.3594 -970)">
			<stop  offset="0" style="stop-color:#FDF1B0;stop-opacity:0.81"/>
			<stop  offset="1" style="stop-color:#FDEE9E;stop-opacity:0.77"/>
		</linearGradient>
		<path id="region-2-15" style="fill:url(#region-2-15_00000012442157467265787140000012993567516144375698_);" d="M399.4,225.8
			c-3.2,1.7-6,5.7-7.4,10.4c-0.4,1.3-1.6,1.8-4.6,1.8c-14,0-20,16.6-9.5,25.9c3.5,3,3.5,3.1,2.3,7.5c-1,4-1,5.1,0.8,9.3
			c2.6,6.4,7,9.3,13.9,9.3c3.8,0,6.1-0.6,8.7-2.4l3.4-2.3l2.8,2.3c2.1,1.9,3.9,2.4,8.3,2.4c6.7,0,11.4-2.5,13.7-7.4
			c1.8-3.8,2.1-10.8,0.7-13.5c-0.8-1.4-0.4-2.1,2.1-3.5c3.2-2,6.8-8.5,6.8-12.6c0-7.7-7.2-15-14.7-15c-3.7,0-4-0.2-6-4.9
			c-2.6-6.2-6.9-9.1-13.3-9.1C404.8,224,401.2,224.8,399.4,225.8L399.4,225.8z"/>
		
			<linearGradient id="region-2-16_00000112599473525216073790000016482792920302202021_" gradientUnits="userSpaceOnUse" x1="-1687.5765" y1="-13.6636" x2="-1686.6565" y2="-12.5135" gradientTransform="matrix(190.4 0 0 -93.12 321547.9062 -919.8541)">
			<stop  offset="0" style="stop-color:#F8E297;stop-opacity:0.82"/>
			<stop  offset="1" style="stop-color:#FFFFC6;stop-opacity:0.73"/>
		</linearGradient>
		<path id="region-2-16" style="fill:url(#region-2-16_00000112599473525216073790000016482792920302202021_);" d="M289.6,251
			c-2.3,0.5-5.5,1.5-7,2.4c-3.8,1.9-10.1,8.9-10.8,11.9c-0.6,2.4-0.8,2.4-10.1,1.9c-7.4-0.4-10.4-0.1-14,1.3
			c-9,3.4-14.7,10.6-16,20.2l-0.6,5l-6.2,0.5c-14.2,1.2-22.9,10.3-23,24.3c0,8.1,2.3,13.5,7.6,18c10.3,8.7,23.1,9.4,44.3,2.3
			c16.5-5.5,26.5-7.1,43.5-7.2c17.1-0.1,25.8,1.3,42.7,6.5c13.7,4.2,23.3,5.5,30.4,4c13.8-2.9,21.9-12,21.9-24.5
			c0-14.4-10.4-24.6-25-24.6h-4.7l-0.6-5.1c-1.2-9.8-8.4-18.2-18.2-20.9c-4.4-1.2-14.2-1-19.1,0.5c-1.7,0.5-2.3,0.2-2.7-1.8
			c-1-3.7-8.2-11.3-12.5-13C304.5,250.7,295,249.9,289.6,251L289.6,251z"/>
	</g>
	<g id="layer-3">
		
			<linearGradient id="region-3-1_00000109716186803380572280000012199625492193496757_" gradientUnits="userSpaceOnUse" x1="-1626.5582" y1="-166.4344" x2="-1625.5782" y2="-167.5243" gradientTransform="matrix(24.26 0 0 -7.52 39551.6523 -1097.1302)">
			<stop  offset="0" style="stop-color:#4D4025;stop-opacity:0.68"/>
			<stop  offset="1" style="stop-color:#4A3418;stop-opacity:0.72"/>
		</linearGradient>
		<path id="region-3-1" style="fill:url(#region-3-1_00000109716186803380572280000012199625492193496757_);" d="M101.3,153.7
			c-5.4,0.9-11.9,3.5-12.4,5c-1.1,2.6,0.2,2.8,5.7,0.8c3-1.1,8-1.9,11.7-1.9c5-0.1,6.5-0.4,6.5-1.6
			C112.8,153.8,107.4,152.7,101.3,153.7z"/>
		
			<linearGradient id="region-3-2_00000152969364139246827580000006437382251393469064_" gradientUnits="userSpaceOnUse" x1="-1627.2327" y1="-162.021" x2="-1627.2327" y2="-163.0206" gradientTransform="matrix(24.62 0 0 -7.73 40093.4609 -1093.9298)">
			<stop  offset="0" style="stop-color:#261703;stop-opacity:0.56"/>
			<stop  offset="1" style="stop-color:#201200;stop-opacity:0.58"/>
		</linearGradient>
		<path id="region-3-2" style="fill:url(#region-3-2_00000152969364139246827580000006437382251393469064_);" d="M20,157
			c-2.9,1.8-0.9,3,4.8,3c3.1,0,7.8,0.9,10.7,2c6.4,2.4,7.8,2.5,7.8,0.4C43.3,158.7,24.5,154.3,20,157z"/>
		
			<linearGradient id="region-3-3_00000133509174662548558170000007251279784852657542_" gradientUnits="userSpaceOnUse" x1="-1627.8669" y1="-91.7877" x2="-1627.8669" y2="-92.7875" gradientTransform="matrix(24.81 0 0 -13.58 40491.2227 -1078.3704)">
			<stop  offset="0" style="stop-color:#3B2F1B;stop-opacity:0.6"/>
			<stop  offset="1" style="stop-color:#442F12;stop-opacity:0.63"/>
		</linearGradient>
		<path id="region-3-3" style="fill:url(#region-3-3_00000133509174662548558170000007251279784852657542_);" d="M91.5,167.7
			c0.2,1.2,1.7,2,4.4,2.4c5.9,1.1,10.5,3.2,14.7,6.9c2,1.7,4.1,2.9,4.7,2.5c5-3.1-10.9-13.5-20.6-13.5
			C91.9,166,91.2,166.4,91.5,167.7L91.5,167.7z"/>
		
			<linearGradient id="region-3-4_00000169541902511836495480000001708699490388906145_" gradientUnits="userSpaceOnUse" x1="-1628.4084" y1="-97.4" x2="-1627.5284" y2="-96.22" gradientTransform="matrix(24.96 0 0 -12.96 40664.0117 -1081.5697)">
			<stop  offset="0" style="stop-color:#100A06;stop-opacity:0.5"/>
			<stop  offset="1" style="stop-color:#1E0D00;stop-opacity:0.55"/>
		</linearGradient>
		<path id="region-3-4" style="fill:url(#region-3-4_00000169541902511836495480000001708699490388906145_);" d="M27.9,170.6
			c-3.8,1.4-10.4,5.7-11.8,7.8c-1.2,1.7-0.9,3.6,0.4,3.6c0.6,0,2.5-1.1,4.2-2.4c4.7-3.5,9-5.5,14.6-6.7c3.1-0.7,5-1.6,5-2.5
			C40.3,168.5,33.2,168.6,27.9,170.6L27.9,170.6z"/>
		
			<linearGradient id="region-3-5_00000098213136449630984060000015738865242688073871_" gradientUnits="userSpaceOnUse" x1="-1615.7299" y1="-108.6653" x2="-1615.7299" y2="-109.6651" gradientTransform="matrix(21.1 0 0 -11.49 34157.6523 -1067.2898)">
			<stop  offset="0" style="stop-color:#E40C04;stop-opacity:0.64"/>
			<stop  offset="1" style="stop-color:#E20400;stop-opacity:0.67"/>
		</linearGradient>
		<path id="region-3-5" style="fill:url(#region-3-5_00000098213136449630984060000015738865242688073871_);" d="M59.5,183.7
			l-4.3,4.1l2.3,1.6c2.9,2.1,11.9,2.1,15.8,0.1c1.7-0.9,3-1.8,3-2c0-0.3-1.7-1.2-3.7-2c-2.1-0.9-4.9-2.6-6.3-3.8l-2.5-2.2
			L59.5,183.7L59.5,183.7z"/>
		
			<linearGradient id="region-3-6_00000075859771674200213130000008447066921293640867_" gradientUnits="userSpaceOnUse" x1="-1649.4264" y1="-34.9661" x2="-1648.7764" y2="-36.0961" gradientTransform="matrix(36.06 0 0 -34.94 59873.4297 -984.2702)">
			<stop  offset="0" style="stop-color:#CF9343;stop-opacity:0.75"/>
			<stop  offset="1" style="stop-color:#D1984A;stop-opacity:0.81"/>
		</linearGradient>
		<path id="region-3-6" style="fill:url(#region-3-6_00000075859771674200213130000008447066921293640867_);" d="M404.5,240.4
			c-1.2,1.4-0.5,4.6,1,4.6c0.5,0,0.9,2.7,0.9,6.1c0,4.9-0.3,6-1.4,5.6c-0.8-0.3-3.3-1.1-5.5-1.7s-4.6-2-5.2-3.1
			c-1.5-3-5.4-2.2-5.4,1.1c0,2.2,0.4,2.5,3.5,2.3c3.2-0.2,13,2.3,13,3.3c0,1.6-6.5,9-8.3,9.4c-1.5,0.4-2.2,1.4-2.2,3
			c0,2,0.5,2.5,2.5,2.5s2.6-0.6,2.8-2.9c0.4-3,4.8-10.6,6.2-10.6s7.2,8,6.7,9.2c-0.7,2,1.2,4.8,3.3,4.8c1.9,0,3.6-3.2,2.5-5
			c-0.3-0.5-1.5-1-2.5-1c-1.6,0-8-7.5-8-9.3c0-1.3,9.9-3.7,12.7-3.1c2.3,0.4,3.2,0.2,3.7-1.1c0.7-2-1-4.5-3-4.5
			c-0.7,0-1.9,0.8-2.6,1.8c-1,1.4-9.4,5.2-11.5,5.2c-0.2,0-0.3-2.6-0.3-5.7c0-3.8,0.5-6.2,1.6-7.5c1.4-1.4,1.4-2,0.4-3.3
			C407.8,238.6,406,238.6,404.5,240.4L404.5,240.4z"/>
		
			<linearGradient id="region-3-7_00000072253180650684289190000000878362818142070452_" gradientUnits="userSpaceOnUse" x1="-1506.6577" y1="-31.1289" x2="-1504.1976" y2="-31.979" gradientTransform="matrix(8.93 0 0 -39.48 13743.291 -943.23)">
			<stop  offset="0" style="stop-color:#C6812F;stop-opacity:0.63"/>
			<stop  offset="1" style="stop-color:#C98736;stop-opacity:0.66"/>
		</linearGradient>
		<path id="region-3-7" style="fill:url(#region-3-7_00000072253180650684289190000000878362818142070452_);" d="M293.5,282.5
			c-0.7,1.4-1.2,4.9-1.2,7.8c0.1,9.7,3.6,30.5,5,29.1c2.7-3,5.3-33.2,3.1-37.2C298.8,279.1,294.9,279.3,293.5,282.5L293.5,282.5z"/>
		
			<linearGradient id="region-3-8_00000085949384726063885610000003760503784281770629_" gradientUnits="userSpaceOnUse" x1="-1589.3973" y1="-36.2732" x2="-1587.9873" y2="-37.1932" gradientTransform="matrix(15.81 0 0 -33.92 25439.2207 -939.0706)">
			<stop  offset="0" style="stop-color:#CA8837;stop-opacity:0.68"/>
			<stop  offset="1" style="stop-color:#CD8E3D;stop-opacity:0.71"/>
		</linearGradient>
		<path id="region-3-8" style="fill:url(#region-3-8_00000085949384726063885610000003760503784281770629_);" d="M323.5,290.3
			c-1.2,1.2-2.8,4.3-3.7,6.7c-2.2,6.2-5.5,20-5.5,23l0.1,2.5l2.4-3c3.7-4.5,13.6-24.5,13.3-26.8c-0.2-1.1-1.2-2.6-2.4-3.3
			C325.9,288.1,325.4,288.3,323.5,290.3L323.5,290.3z"/>
		
			<linearGradient id="region-3-9_00000150102005823693221940000013236217501343116676_" gradientUnits="userSpaceOnUse" x1="-1591.287" y1="-37.0787" x2="-1590.057" y2="-38.0287" gradientTransform="matrix(16.09 0 0 -33.19 25868.9883 -939.6218)">
			<stop  offset="0" style="stop-color:#C37C2A;stop-opacity:0.59"/>
			<stop  offset="1" style="stop-color:#C68130;stop-opacity:0.61"/>
		</linearGradient>
		<path id="region-3-9" style="fill:url(#region-3-9_00000150102005823693221940000013236217501343116676_);" d="M265,290.6
			c-1.9,1.9-1.4,4.8,2.2,11.9c2,4.1,10.4,17.9,11.8,19.4c3.7,4-3.7-25.2-7.7-30.3C269,288.6,267.1,288.3,265,290.6z"/>
		
			<linearGradient id="region-3-10_00000165948260387899196540000012606425515803002007_" gradientUnits="userSpaceOnUse" x1="-1621.1127" y1="-60.3953" x2="-1620.4526" y2="-61.5352" gradientTransform="matrix(22.5 0 0 -20.5 36716.9922 -936.29)">
			<stop  offset="0" style="stop-color:#BD711F;stop-opacity:0.51"/>
			<stop  offset="1" style="stop-color:#C07522;stop-opacity:0.54"/>
		</linearGradient>
		<path id="region-3-10" style="fill:url(#region-3-10_00000165948260387899196540000012606425515803002007_);" d="M241.3,306.5
			c-1.9,2.3-0.2,5.3,5.3,9.4c7.3,5.5,15.7,10.4,16.4,9.7c0.9-0.9-10.7-14.6-15.1-17.8C243.4,304.6,243.1,304.5,241.3,306.5
			L241.3,306.5z"/>
		
			<linearGradient id="region-3-11_00000028310634625518590850000008916658487205249675_" gradientUnits="userSpaceOnUse" x1="-1621.5537" y1="-60.5863" x2="-1620.8137" y2="-61.7063" gradientTransform="matrix(22.61 0 0 -20.45 36996.8516 -934.1195)">
			<stop  offset="0" style="stop-color:#CE9344;stop-opacity:0.78"/>
			<stop  offset="1" style="stop-color:#D39848;stop-opacity:0.81"/>
		</linearGradient>
		<path id="region-3-11" style="fill:url(#region-3-11_00000028310634625518590850000008916658487205249675_);" d="M341.2,311.7
			c-6.9,7.3-11.4,13.1-10.6,13.9c0.6,0.7,17.7-10.9,20.5-13.9c3-3.1,2.6-6.1-0.8-6.5C348.2,305,346.5,306.3,341.2,311.7z"/>
	</g>
</g>
<g id="layer-1_00000002342994160479322950000001727103068292804757_">
	
		<linearGradient id="region-1-1_00000026854411763927067880000005721365215387821456_" gradientUnits="userSpaceOnUse" x1="-1692.8169" y1="-2.5201" x2="-1691.6069" y2="-2.05" gradientTransform="matrix(580 0 0 -447 982363.75 -812)">
		<stop  offset="0" style="stop-color:#D8A554"/>
		<stop  offset="1" style="stop-color:#E5B973"/>
	</linearGradient>
	
		<path id="region-1-1_00000139984230428198991010000012915791697494587045_" style="fill:url(#region-1-1_00000026854411763927067880000005721365215387821456_);" d="
		M753,2.5c-2.3,1-6.7,4.3-9.8,7.2l-5.6,5.3l-16.7-0.3c-19.9-0.5-31.1,1.1-48.1,6.9l-11.5,3.8l-4.5-4.3c-7.6-7.4-12-9.1-23-9.1
		c-7.9,0-10.2,0.4-13.6,2.2c-9.4,5-14.4,11.4-17,21.5c-2.3,9-0.1,20.2,5.5,26.8l2.8,3.4l-3.7,8.1c-2.1,4.4-4.9,11.8-6.4,16.3
		c-2.4,7.7-2.6,9.6-2.6,27c0,39.6,6.5,57.3,35.9,98.1c16.7,23.2,21.3,33.6,35,78.7c15.6,51.8,25.9,80.1,37.8,103.9
		c14,28.1,25.6,40.9,42.9,47.1c5.5,2,8.4,2.4,18.8,2.4c14.6,0,19.8-1.5,32.1-8.9c25.3-15.4,43.6-20.9,72.5-21.8
		c14.8-0.4,19.3-0.2,29.6,1.5c21.1,3.6,35.2,9,52.4,19.8c12.6,7.9,17.8,9.4,32.6,9.4c19.8,0,28.3-4,45.1-21.3
		c16.7-17.2,33.4-41.2,46.2-66.6c8.7-17.3,11.7-24.9,15.1-38.6c4.6-18.1,8-46.9,8-67.6v-8.9h4.8c11.9-0.1,26.8-6,40.1-16.1
		c15.5-11.6,23.9-24.3,28.6-43.3c2.3-9.1,2.5-11.7,2.5-32.7c0-23.6-0.6-29-5.1-44.4c-7.1-24.1-19.9-37.1-34.5-35.1
		c-6.1,0.8-10.5,3.6-13.2,8.4c-2.9,5.1-2.8,7.8,0.8,25.2c3.8,18.4,4,30.6,0.8,40c-1.8,5.5-3.3,7.7-10.2,14.6
		c-6.5,6.5-9.2,8.5-13.5,9.9c-6,1.9-11.8,1.6-15.7-1c-2.6-1.7-3.2-2.5-13.3-18c-27.1-41.4-73.5-57.6-153.2-53.5
		c-28,1.4-48.2,0.9-57.5-1.6c-12.6-3.2-19.9-9-38.4-29.9c-7.3-8.3-15.4-17.3-18-20c-4.6-4.8-4.8-5.3-5.3-12
		c-0.8-10-3.9-17.4-10-24.2C785,2.6,779.9,0.5,767.3,0.5C759.6,0.5,756.3,1,753,2.5L753,2.5z"/>
</g>
<linearGradient id="region-2-1_00000110457956331540280670000005678138713598210433_" gradientUnits="userSpaceOnUse" x1="-1628.0121" y1="-37.3988" x2="-1627.2721" y2="-38.5387" gradientTransform="matrix(40.77 0 0 -34.73 67620.4219 -1216.6401)">
	<stop  offset="0" style="stop-color:#5B2301;stop-opacity:0.31"/>
	<stop  offset="1" style="stop-color:#6D3710;stop-opacity:0.42"/>
</linearGradient>
<path id="region-2-1_00000023257948641018748800000008229403719607238301_" style="fill:url(#region-2-1_00000110457956331540280670000005678138713598210433_);stroke:#000000;stroke-miterlimit:10;" d="
	M1252.7,89.6c-4.8,2.2-8,5.9-9.6,11.3c-0.9,3.2-0.9,4.4,0.5,7.3c1.3,2.8,3.3,4.2,11.2,8c12.3,5.8,18.1,7.3,22.1,5.4
	c7.9-3.8,8.6-19.7,1.1-27.7C1272.3,87.7,1261,85.8,1252.7,89.6z"/>
<linearGradient id="region-2-2_00000088130936788212407590000009386421921763512489_" gradientUnits="userSpaceOnUse" x1="-1665.1057" y1="-21.8922" x2="-1663.9557" y2="-22.5822" gradientTransform="matrix(91 0 0 -61.93 152739.875 -1176.5186)">
	<stop  offset="0" style="stop-color:#34280D;stop-opacity:0.69"/>
	<stop  offset="1" style="stop-color:#000000;stop-opacity:0.89"/>
</linearGradient>
<path id="region-2-2_00000039842355928624466670000013232801165047850132_" style="fill:url(#region-2-2_00000088130936788212407590000009386421921763512489_);" d="
	M1271.1,172.2c-3.2,1.3-7.3,3.8-9,5.4c-1.8,1.8-5.5,3.8-8.6,4.7c-11.1,3.2-25,12.7-25,17c0,1.7,0.7,1.7,13.7-0.2l4.3-0.7l-1.1,3.1
	c-0.9,2.7-2,3.3-9.4,5.6c-9.9,3.1-14.5,6.5-14.5,10.6c0,3.6,2.3,4.4,8.2,3.1c9.5-2.2,11.6-2.1,12.2,0.2c0.3,1.2,0.6,3.2,0.6,4.4
	c0,1.3,0.9,3.2,2,4.3c4.2,4.2,11.4,1.4,17.5-7.1l3.7-4.9h10.8c8.5,0,11.2-0.3,12.4-1.6c1.9-1.8,2-2.8,0.5-5.5
	c-1.1-2.2-10.2-6.9-13.2-6.9c-1.6,0-1.6-0.2-0.3-2.8c3.3-5.9,2.6-5.7,18-6.2c12.3-0.4,14.7-0.8,16.5-2.4c1.2-1.1,2.1-2.7,2.1-3.6
	c0-4-8.1-8.3-18-9.6c-2.8-0.4-5-0.8-5-1s0.5-1.4,1.1-2.8c1.9-4.1-0.2-5.6-7.5-5.6C1279,169.7,1275.1,170.5,1271.1,172.2z"/>
<linearGradient id="region-2-3_00000157297153713334162090000017940443126331520654_" gradientUnits="userSpaceOnUse" x1="-1619.1353" y1="-37.4403" x2="-1619.1353" y2="-38.4404" gradientTransform="matrix(37.36 0 0 -34.67 61697.4922 -1204.4221)">
	<stop  offset="0" style="stop-color:#4D1600;stop-opacity:0.25"/>
	<stop  offset="1" style="stop-color:#461100;stop-opacity:0.33"/>
</linearGradient>
<path id="region-2-3_00000011719122302178726420000008327776731181110694_" style="fill:url(#region-2-3_00000157297153713334162090000017940443126331520654_);stroke:#000000;stroke-miterlimit:10;" d="
	M1200.8,97.4c-12.4,4.4-17.1,22-8.5,31.2c3.2,3.4,6,2.8,13-2.5c3.5-2.7,9.1-6.7,12.4-9c8.8-5.9,9.7-9.8,3.9-15.5
	C1216.1,96.2,1208.4,94.6,1200.8,97.4z"/>
<linearGradient id="region-2-4_00000028294230631973179370000018333030656500226977_" gradientUnits="userSpaceOnUse" x1="-1658.5752" y1="-10.344" x2="-1656.9452" y2="-10.594" gradientTransform="matrix(72.94 0 0 -131.61 122209.2109 -1062.2479)">
	<stop  offset="0" style="stop-color:#2E250A;stop-opacity:0.67"/>
	<stop  offset="1" style="stop-color:#000000;stop-opacity:0.89"/>
</linearGradient>
<path id="region-2-4_00000026846818875145997500000007972879653502967976_" style="fill:url(#region-2-4_00000028294230631973179370000018333030656500226977_);" d="
	M1257.3,241.1c-2.8,3.1-1.9,6.4,4.1,14.7c6.1,8.5,11.7,19.3,14.8,28.5c2.8,8.2,2.6,27.3-0.5,35.5c-4.4,12.1-13.7,23.1-27.4,32.2
	c-10.1,6.7-12.7,9.2-12.7,12.3c0,6.1,7.3,8.1,20.1,5.5c25.4-5.1,47.3-25,52-47.2c4.8-23.3-11.5-62.2-32.8-78.2
	c-5.9-4.4-7.4-5.1-11.4-5.1C1260.3,239.3,1258.4,239.9,1257.3,241.1L1257.3,241.1z"/>
<linearGradient id="region-2-5_00000178903654193708444060000001731892415985135003_" gradientUnits="userSpaceOnUse" x1="-1598.8319" y1="-21.8554" x2="-1597.0219" y2="-22.0954" gradientTransform="matrix(28.37 0 0 -63.52 46587.1914 -1105.9692)">
	<stop  offset="0" style="stop-color:#1E1406;stop-opacity:0.74"/>
	<stop  offset="1" style="stop-color:#040000;stop-opacity:0.84"/>
</linearGradient>
<path id="region-2-5_00000124864945215063748870000010334001000907110282_" style="fill:url(#region-2-5_00000178903654193708444060000001731892415985135003_);" d="
	M1231.3,254.4c-2.8,1.4-3.9,5.3-2.4,8.7c0.6,1.4,2.3,5.5,3.8,9.1c3.9,9.2,4.4,19.2,1.3,29.5c-2.6,8.8-2,12.2,2.4,14.3
	c5.9,2.8,13.1-1.8,17.8-11.4c2.1-4.3,2.4-6.3,2.4-15.9c0-10.4-0.2-11.4-3.2-17.5c-5.2-10.6-12.8-18.1-18-17.9
	C1234.4,253.3,1232.6,253.8,1231.3,254.4z"/>
<linearGradient id="region-2-6_00000030467590564129290190000012531799432293175728_" gradientUnits="userSpaceOnUse" x1="-1651.0853" y1="-10.135" x2="-1649.4053" y2="-10.425" gradientTransform="matrix(59.96 0 0 -111.76 100273.6094 -1051.4265)">
	<stop  offset="0" style="stop-color:#231602;stop-opacity:0.7"/>
	<stop  offset="1" style="stop-color:#000000;stop-opacity:0.9"/>
</linearGradient>
<path id="region-2-6_00000171691195338396070170000014447119104186064817_" style="fill:url(#region-2-6_00000030467590564129290190000012531799432293175728_);" d="
	M1294.6,37.4c0.3,0.7,1.3,5.1,2.2,9.8c1.3,6.5,1.6,11.5,1.2,22.4c-0.5,16.5-2.5,24-11.2,43.9c-6.4,14.9-6.8,18.2-2.6,24.7
	c5.5,8.7,15.1,11.8,26.7,8.4c7.8-2.2,13.5-8.1,19.1-19.5c8.1-16.8,11.4-32.3,11.4-53.5c-0.1-9.3-0.7-16.8-1.8-22.5l-1.8-8.5
	l-5.5-0.3c-13.5-0.6-26.3-2.3-31.2-4.2C1294.9,35.8,1293.9,35.6,1294.6,37.4L1294.6,37.4z"/>
<linearGradient id="region-2-7_00000151516525531649190160000003264935651195453881_" gradientUnits="userSpaceOnUse" x1="-1653.7633" y1="-8.9085" x2="-1651.9133" y2="-9.3684" gradientTransform="matrix(63.47 0 0 -124.66 106307.8906 -1034.355)">
	<stop  offset="0" style="stop-color:#2B2520;stop-opacity:0.67"/>
	<stop  offset="1" style="stop-color:#000000;stop-opacity:0.92"/>
</linearGradient>
<path id="region-2-7_00000031901891284326970840000005085864081667927945_" style="fill:url(#region-2-7_00000151516525531649190160000003264935651195453881_);" d="
	M1359.7,34.1c-3.1,0.4-3.7,0.7-3.2,2.1c2.7,7,3.7,14.4,4.2,31.2c0.8,25.1-1.5,40.5-9.2,62.9c-3.1,9.3-3.2,13.3,0,18.7
	c1.8,3.1,3.9,5,8,7c4.9,2.4,6.4,2.6,13.3,2.2c16.2-0.9,24.9-10.3,33-35.8c7.9-25,9-54.3,2.9-78.6l-2.2-8.9l-7.5-0.6
	C1390.8,33.6,1365.7,33.5,1359.7,34.1L1359.7,34.1z"/>
<linearGradient id="region-2-8_00000034791019970597298860000013727658926674874500_" gradientUnits="userSpaceOnUse" x1="-1621.8121" y1="-39.184" x2="-1621.1122" y2="-40.324" gradientTransform="matrix(35.04 0 0 -32.92 58280.707 -1123.342)">
	<stop  offset="0" style="stop-color:#0C0100;stop-opacity:0.8"/>
	<stop  offset="1" style="stop-color:#241601;stop-opacity:0.81"/>
</linearGradient>
<path id="region-2-8_00000160172599997786560900000001591989151218065848_" style="fill:url(#region-2-8_00000034791019970597298860000013727658926674874500_);" d="
	M1452.7,168.5c-2.4,0.4-4.4,0.9-4.7,1.2c-0.2,0.2,0.5,4.4,1.5,9.4c1,4.9,1.9,11.8,1.9,15.2v6.3h4.5c5.9,0,14.2-1.8,18.8-4.2
	c10.2-5.1,11.2-20,1.9-26.3c-3.2-2.2-4.7-2.5-11.7-2.4C1460.5,167.8,1455,168.2,1452.7,168.5z"/>
<linearGradient id="region-2-9_00000129172739059739403000000002809390529207076740_" gradientUnits="userSpaceOnUse" x1="-1560.1979" y1="-57.5188" x2="-1558.8878" y2="-57.8988" gradientTransform="matrix(20.78 0 0 -20.67 33666.2383 -1134.4597)">
	<stop  offset="0" style="stop-color:#100500;stop-opacity:0.75"/>
	<stop  offset="1" style="stop-color:#1E1205;stop-opacity:0.7"/>
</linearGradient>
<path id="region-2-9_00000151540230795375924750000002416501057421745548_" style="fill:url(#region-2-9_00000129172739059739403000000002809390529207076740_);" d="
	M1252.6,47.9c-3.2,1.4-6.4,6-6.4,9.3c0,6.1,4.5,10.8,10.5,10.8c9.2,0,13.8-11.6,7.1-17.9C1261.2,47.6,1255.8,46.6,1252.6,47.9z"/>
<linearGradient id="region-2-10_00000114770611152243183970000009258592770858483866_" gradientUnits="userSpaceOnUse" x1="-1644.1395" y1="-9.8726" x2="-1642.3995" y2="-10.6625" gradientTransform="matrix(51.65 0 0 -112.7 86337.2812 -1043.9242)">
	<stop  offset="0" style="stop-color:#342005;stop-opacity:0.75"/>
	<stop  offset="1" style="stop-color:#000000;stop-opacity:0.85"/>
</linearGradient>
<path id="region-2-10_00000030480364978927123630000016870709698299180177_" style="fill:url(#region-2-10_00000114770611152243183970000009258592770858483866_);" d="
	M1429.7,37.9c6,19,6.7,49.7,1.4,70.2c-1.1,4.3-3.5,11.6-5.5,16.4c-1.9,4.7-3.5,9.7-3.5,10.9c0,11.6,13.3,16.5,27.8,10.3
	c6.1-2.6,9-6.2,14.3-17.4c4.5-9.6,7.4-20.9,9-35.1c1.8-16.4-1-38.3-5.3-41.9c-5.6-4.5-31.7-15.6-36.9-15.6
	C1429.3,35.7,1429.1,36.1,1429.7,37.9z"/>
<linearGradient id="region-2-11_00000122702747986300516430000016356984815695160982_" gradientUnits="userSpaceOnUse" x1="-1556.2664" y1="-57.2481" x2="-1555.1764" y2="-57.3081" gradientTransform="matrix(20.5 0 0 -20.73 33099.2578 -1128.8296)">
	<stop  offset="0" style="stop-color:#180E03;stop-opacity:0.78"/>
	<stop  offset="1" style="stop-color:#0E0400;stop-opacity:0.82"/>
</linearGradient>
<path id="region-2-11_00000089569173990368112410000008068379371620426374_" style="fill:url(#region-2-11_00000122702747986300516430000016356984815695160982_);" d="
	M1202.4,48.8c-3.9,1.7-6,5.1-6,9.8c0,3.8,0.5,4.9,3.3,7.4c7,6.3,17.2,1.6,17.2-8C1216.9,51.7,1208.3,46.2,1202.4,48.8z"/>
<linearGradient id="region-2-14_00000151527611928782239960000002532881304647425419_" gradientUnits="userSpaceOnUse" x1="-1644.5945" y1="-28.2701" x2="-1644.5945" y2="-29.2701" gradientTransform="matrix(51.15 0 0 -45.4 85578.3828 -1058.1707)">
	<stop  offset="0" style="stop-color:#1C150F;stop-opacity:0.74"/>
	<stop  offset="1" style="stop-color:#010000;stop-opacity:0.84"/>
</linearGradient>
<path id="region-2-14_00000180324831791984411970000009517947768836070044_" style="fill:url(#region-2-14_00000151527611928782239960000002532881304647425419_);" d="
	M1456.2,232.3c-6.9,7.1-13.7,10.1-20.5,9.2c-2.1-0.3-3.9-0.3-3.9,0s1.5,3.2,3.2,6.6c6.9,12.9,19,22.2,30.2,23.4
	c4.3,0.5,6.4,0.1,10-1.7c8.6-4.1,10.1-12.8,4.2-23.4c-3.6-6.4-14.4-19.8-16.1-20.1C1462.8,226.2,1459.6,228.9,1456.2,232.3
	L1456.2,232.3z"/>
<linearGradient id="region-2-15_00000031920590730555841670000000230924186068207800_" gradientUnits="userSpaceOnUse" x1="-1656.9966" y1="-19.5161" x2="-1655.8966" y2="-19.4361" gradientTransform="matrix(68.83 0 0 -66 115453.3594 -970)">
	<stop  offset="0" style="stop-color:#FDF1B0;stop-opacity:0.81"/>
	<stop  offset="1" style="stop-color:#FDEE9E;stop-opacity:0.77"/>
</linearGradient>
<path id="region-2-15_00000057130798357648766200000007340719454080056248_" style="fill:url(#region-2-15_00000031920590730555841670000000230924186068207800_);" d="
	M1434.1,283.7c-3.2,1.7-6,5.7-7.4,10.4c-0.4,1.3-1.6,1.8-4.6,1.8c-14,0-20,16.6-9.5,25.9c3.5,3,3.5,3.1,2.3,7.5c-1,4-1,5.1,0.8,9.3
	c2.6,6.4,7,9.3,13.9,9.3c3.8,0,6.1-0.6,8.7-2.4l3.4-2.3l2.8,2.3c2.1,1.9,3.9,2.4,8.3,2.4c6.7,0,11.4-2.5,13.7-7.4
	c1.8-3.8,2.1-10.8,0.7-13.5c-0.8-1.4-0.4-2.1,2.1-3.5c3.2-2,6.8-8.5,6.8-12.6c0-7.7-7.2-15-14.7-15c-3.7,0-4-0.2-6-4.9
	c-2.6-6.2-6.9-9.1-13.3-9.1C1439.6,281.9,1436,282.7,1434.1,283.7L1434.1,283.7z"/>
<linearGradient id="region-2-16_00000032633958419887972820000004145856236665786261_" gradientUnits="userSpaceOnUse" x1="-1681.9824" y1="-14.6333" x2="-1681.0625" y2="-13.4832" gradientTransform="matrix(190.4 0 0 -93.12 321547.9062 -919.8541)">
	<stop  offset="0" style="stop-color:#F8E297;stop-opacity:0.82"/>
	<stop  offset="1" style="stop-color:#FFFFC6;stop-opacity:0.73"/>
</linearGradient>
<path id="region-2-16_00000116202387208884604320000000747331917614260358_" style="fill:url(#region-2-16_00000032633958419887972820000004145856236665786261_);" d="
	M1354.7,341.3c-2.3,0.5-5.5,1.5-7,2.4c-3.8,1.9-10.1,8.9-10.8,11.9c-0.6,2.4-0.8,2.4-10.1,1.9c-7.4-0.4-10.4-0.1-14,1.3
	c-9,3.4-14.7,10.6-16,20.2l-0.6,5l-6.2,0.5c-14.2,1.2-22.9,10.3-23,24.3c0,8.1,2.3,13.5,7.6,18c10.3,8.7,23.1,9.4,44.3,2.3
	c16.5-5.5,26.5-7.1,43.5-7.2c17.1-0.1,25.8,1.3,42.7,6.5c13.7,4.2,23.3,5.5,30.4,4c13.8-2.9,21.9-12,21.9-24.5
	c0-14.4-10.4-24.6-25-24.6h-4.7l-0.6-5.1c-1.2-9.8-8.4-18.2-18.2-20.9c-4.4-1.2-14.2-1-19.1,0.5c-1.7,0.5-2.3,0.2-2.7-1.8
	c-1-3.7-8.2-11.3-12.5-13C1369.6,341,1360.1,340.2,1354.7,341.3L1354.7,341.3z"/>
<g>
	<g>
		<line class="st47" x1="530.1" y1="311.4" x2="631.3" y2="311.4"/>
		<g>
			<path d="M653,311.4c-10.2,3.2-22.9,8.6-30.7,14.3l6.2-14.3l-6.2-14.3C630.1,302.8,642.8,308.2,653,311.4z"/>
		</g>
	</g>
</g>
</svg>
