<?xml version="1.0" encoding="utf-8"?>
<!-- Generator: Adobe Illustrator 26.5.0, SVG Export Plug-In . SVG Version: 6.00 Build 0)  -->
<svg version="1.1" id="图层_1" xmlns="http://www.w3.org/2000/svg" xmlns:xlink="http://www.w3.org/1999/xlink" x="0px" y="0px"
	 viewBox="0 0 580 340" style="enable-background:new 0 0 580 340;" xml:space="preserve">
<style type="text/css">
	.st0{fill:none;}
	.st1{fill:#D2D2D2;}
	.st2{fill:url(#SVGID_00000047061323176406762490000003312768555647048588_);}
	.st3{fill:url(#SVGID_00000013181157481217051040000001163770785106986126_);}
	.st4{fill:url(#SVGID_00000169556614806898677040000000193210751558926497_);}
	.st5{fill:url(#SVGID_00000175291907014549691620000014276075640252071602_);}
	.st6{fill:url(#SVGID_00000160174348510471420340000004420364122611055289_);}
	.st7{fill:url(#SVGID_00000051341097988784966590000002713273381166678677_);}
	.st8{fill:url(#SVGID_00000156566215224327089150000003215341988564190596_);}
	.st9{fill:url(#SVGID_00000033346200973224608490000003922625380645657245_);}
	.st10{fill:url(#SVGID_00000144312919240701102910000005631955220731782590_);}
	.st11{fill:url(#SVGID_00000060029922009459567580000010147554594660380802_);}
	.st12{fill:url(#SVGID_00000043435717477106469020000009543183953919529888_);}
	.st13{fill:url(#SVGID_00000159454891533774825590000002393200785305442440_);}
	.st14{fill:url(#SVGID_00000183217204442497271970000012786003003938147237_);}
	.st15{fill:url(#SVGID_00000142883337675508676140000013627781628541223050_);}
	.st16{fill:url(#SVGID_00000067939364315819088430000009526089112958851472_);}
	.st17{fill:url(#SVGID_00000147191460287044468960000009544858648519190699_);}
	.st18{fill:url(#SVGID_00000070820734727022678240000000893201593676268201_);}
	.st19{fill:url(#SVGID_00000169545246971790359270000008415326285840992409_);}
	.st20{fill:url(#SVGID_00000133512298896023351670000013256039506441383317_);}
	.st21{fill:url(#SVGID_00000143575699539299680240000013434278990734723484_);}
	.st22{fill:url(#SVGID_00000013163774375296678110000011924187500210128289_);}
	.st23{fill:url(#SVGID_00000085949730706488569790000001830019305419394946_);}
	.st24{fill:url(#SVGID_00000069399914455540379180000001629205167936673178_);}
	.st25{fill:url(#SVGID_00000040539802438042385600000000440845909980163473_);}
	.st26{fill:url(#SVGID_00000093168224792667042190000005487696366300499366_);}
	.st27{fill:url(#SVGID_00000143601727175279648080000014214625577464554645_);}
	.st28{fill:url(#SVGID_00000034775767576162867600000013974547169738951061_);}
	.st29{fill:url(#SVGID_00000034076597405942201270000001886801030532269706_);}
	.st30{fill:url(#SVGID_00000149348536028704993500000004219244552357954220_);}
	.st31{fill:url(#SVGID_00000057123384428884796870000004208844810164521662_);stroke:#000000;stroke-miterlimit:10;}
	.st32{fill:none;stroke:#FF0000;stroke-width:3;stroke-miterlimit:10;}
	.st33{fill:none;stroke:#3FA9F5;stroke-width:4;stroke-linecap:round;stroke-miterlimit:10;}
	.st34{fill:#3FA9F5;}
</style>
<pattern  x="-60" y="470" width="40" height="40" patternUnits="userSpaceOnUse" id="SVGID_1_" viewBox="0 -40 40 40" style="overflow:visible;">
	<g>
		<rect y="-40" class="st0" width="40" height="40"/>
		<g>
			<rect y="-40" class="st0" width="40" height="40"/>
			<rect y="-40" class="st0" width="40" height="40"/>
			<rect y="-20" class="st1" width="20" height="20"/>
			<rect x="20" y="-40" class="st1" width="20" height="20"/>
		</g>
	</g>
</pattern>
<pattern  id="SVGID_00000156573337650619195880000003704483652859764367_" xlink:href="#SVGID_1_" patternTransform="matrix(1 0 0 -1 95 -17363)">
</pattern>
<rect style="fill:url(#SVGID_00000156573337650619195880000003704483652859764367_);" width="580" height="337.5"/>
<linearGradient id="SVGID_00000134971932973780285510000008279635540809513907_" gradientUnits="userSpaceOnUse" x1="-1748.7085" y1="471.4389" x2="-1748.2283" y2="471.4389" gradientTransform="matrix(294.05 0 0 517.46 514338.0938 -243788.7969)">
	<stop  offset="0" style="stop-color:#000000"/>
	<stop  offset="1" style="stop-color:#000000"/>
</linearGradient>
<path style="fill:url(#SVGID_00000134971932973780285510000008279635540809513907_);" d="M185.8,42.5c-14.2,1.6-23.2,4.3-30.1,8.8
	c-5.8,3.8-8.5,6.9-12,13.7c-4.9,9.4-8,19.6-9.9,31.8c-2.7,17.4-3.2,32.9-1.7,60.8c0.2,4.6,0.4,13.8,0.4,20.4s0.2,16,0.5,20.9
	s0.7,13.6,1,19.3c0.7,14,1.6,21.3,2.9,23.8c5.8,11,17.2,22.3,28.3,28.1c1.4,0.8,3.9,2.2,5.4,3.1c6.3,3.8,13.3,6.5,20.5,7.9
	c14.2,2.4,33.5,0.5,46.1-4.6c6.7-3,13.1-6.5,19.2-10.5c3.3-2.4,11.6-11.5,12.4-13.6c0.5-1.5,0.8-3,1-4.6c0.2-1.9,0.7-4.5,1-5.9
	c1-5.3,1.4-25.1,1.5-71.8c0.1-50.7,0-54.3-2-66.9c-3.1-18.9-6.7-30.2-13.5-42.2c-4.4-7.8-15.8-14.4-28.4-16.3
	c-2.7-0.4-5.9-0.9-7.1-1.2C212.3,41.8,196.7,41.3,185.8,42.5z"/>
<linearGradient id="SVGID_00000150795423046237761850000004020161305864034177_" gradientUnits="userSpaceOnUse" x1="-1747.1766" y1="471.5485" x2="-1747.1166" y2="472.0185" gradientTransform="matrix(241.64 0 0 401.93 422383.9375 -189487.0938)">
	<stop  offset="0" style="stop-color:#080808"/>
	<stop  offset="1" style="stop-color:#FFFFFF"/>
</linearGradient>
<path style="fill:url(#SVGID_00000150795423046237761850000004020161305864034177_);" d="M188.4,43.2c-1.6,0.2-5,0.6-7.7,0.9
	l-4.8,0.6l-3.5,3.3c-6.9,6.4-16,18.5-20.3,26.8c-2.5,5.2-4.7,10.5-6.4,16c-2.7,9.7-2.9,26.8-0.5,41.6c1,6.5,3.4,15.9,4.5,18.3
	c0.4,0.8,0.8,1.6,1,2.4c0,1.1,5.3,13.9,7.9,19c1.7,3.3,4.1,8.3,5.3,11.1c2.6,5.8,4.2,9.4,5.5,12c0.4,0.8,0.8,1.7,0.9,2.6
	c0,0.4,0.2,0.8,0.4,1.2c1.6,1.6,5.4,16.8,5.9,23.6c0.1,1.7,0.2,1.8,2.5,2.5c1.3,0.4,3.7,1.1,5.3,1.5c2.3,0.6,4.6,1.1,7,1.4
	c2.2,0.3,5,0.8,6.1,1c2.5,0.5,18,0.5,20.5,0c1-0.2,3.9-0.6,6.4-1l4.4-0.6v-4.2c0-9.7,1.9-18.1,6.7-29.4c5.1-12.1,5.4-12.8,6.8-15.8
	c0.7-1.5,2-4.4,2.8-6.3s2-4.4,2.5-5.6c3.3-7.4,6-15.1,8.3-22.9c1.6-6.7,3-17.9,3.5-27.8c0.8-17.5-3.8-33.2-14.2-48.3
	c-3.8-5.6-6.1-8.2-13-15c-6.7-6.7-7.4-7.2-10.7-7.7c-5.4-0.9-10.8-1.6-16.3-1.9h-2.8v13.1l2.8,2.9c5.4,5.7,9.3,16.4,10.7,29.4
	c0.7,6.2,0.3,26.7-0.4,29.8c-0.3,1.2-0.9,3.6-1.3,5.5c-1.8,8.1-5,14.8-8.2,17.7c-0.7,0.7-1.6,1.4-2.5,1.8c-0.3,0-0.5,3.4-0.5,9.5
	v9.5h-2.9V144l-2.2-1c-3.1-1.4-6.1-5-9.7-11.2c-0.9-1.6-3.5-11.8-4-15.9c-2.3-17.6-1.1-36.7,3-47.2c2.6-6.7,6.4-12.1,9.1-12.7
	c1.1-0.3,1.1-0.3,1-7l-0.1-6.7h-3C192.7,42.8,190,43,188.4,43.2z"/>
<linearGradient id="SVGID_00000145761979637145801940000000219024844390612661_" gradientUnits="userSpaceOnUse" x1="-1728.6001" y1="472.8943" x2="-1729.0802" y2="472.9043" gradientTransform="matrix(69.23 0 0 229 119889.1953 -108185)">
	<stop  offset="0" style="stop-color:#2A2A2A"/>
	<stop  offset="1" style="stop-color:#DBDCDB"/>
</linearGradient>
<path style="fill:url(#SVGID_00000145761979637145801940000000219024844390612661_);" d="M196.3,56.6c-10.2,4.7-15.6,31.4-12,59.8
	c0.5,4,3.1,14.3,4,15.9c3.5,6.3,6.6,9.9,9.7,11.2l2.2,1v17.6h2.9v-9.5c0-6.2,0.2-9.5,0.5-9.5c0.9-0.5,1.8-1.1,2.5-1.8
	c3.3-2.9,6.4-9.7,8.2-17.7c0.4-1.9,1-4.4,1.3-5.5c0.8-3.1,1.1-23.6,0.4-29.8c-1.4-13.2-5.3-23.8-10.8-29.6c-2.7-2.8-2.9-2.9-5-2.9
	C198.9,55.7,197.6,56,196.3,56.6z"/>
<linearGradient id="SVGID_00000129206720198578295400000013219922536237477035_" gradientUnits="userSpaceOnUse" x1="-1722.0012" y1="474.3846" x2="-1721.5214" y2="474.3746" gradientTransform="matrix(54.26 0 0 144.03 93622.2891 -68225.0234)">
	<stop  offset="0" style="stop-color:#2E2E2D"/>
	<stop  offset="1" style="stop-color:#CCCDCD"/>
</linearGradient>
<path style="fill:url(#SVGID_00000129206720198578295400000013219922536237477035_);" d="M195.6,67.9c-4.7,4-7.5,12.7-8.6,27.3
	c-0.6,7.6,1.4,21.2,4.1,28.1c3.3,8.3,8.2,11.8,12.8,9.1c2-1.2,5.5-8.1,6.9-13.5c1.8-7.6,2.5-15.4,2-23.2
	c-1.2-12.1-2.2-16.3-5.3-22.6c-2.5-5-4.5-6.7-7.7-6.7C198.2,66.2,196.7,66.8,195.6,67.9z"/>
<linearGradient id="SVGID_00000082344448136518754400000012688660557499765168_" gradientUnits="userSpaceOnUse" x1="-1721.5597" y1="475.8645" x2="-1721.3097" y2="476.0545" gradientTransform="matrix(51.94 0 0 66.6 89668.7578 -31432.3789)">
	<stop  offset="0" style="stop-color:#070706"/>
	<stop  offset="1" style="stop-color:#2F2F2E"/>
</linearGradient>
<path style="fill:url(#SVGID_00000082344448136518754400000012688660557499765168_);" d="M264.1,258.5c-5,5.9-8.5,8.6-15.7,12.5
	c-4.7,2.4-4.9,2.6-4.4,3.6c1.7,2.9,3.7,5.7,5.8,8.4l1.1,1.3l3-2.6c6.1-5.4,10.5-13,13.8-24.3c0.4-1.3,0.8-2.6,1-4
	C268.6,253.3,266.6,255.6,264.1,258.5z"/>
<linearGradient id="SVGID_00000103224637202054723600000003934012471472107692_" gradientUnits="userSpaceOnUse" x1="-1747.0548" y1="473.4692" x2="-1747.3447" y2="474.0392" gradientTransform="matrix(238.74 0 0 122.84 417277.75 -57891.2773)">
	<stop  offset="0" style="stop-color:#000000"/>
	<stop  offset="1" style="stop-color:#363736"/>
</linearGradient>
<path style="fill:url(#SVGID_00000103224637202054723600000003934012471472107692_);" d="M136.1,242.4c0.2,1.2,0.7,4.1,1.2,6.5
	c4.2,19.3,11.1,30.9,22.9,38.2c9.6,6,20.1,9.1,34.5,10c8.4,0.4,16.9,0.2,25.3-0.7c5.7-0.9,11.3-2.4,16.8-4.4
	c4.3-1.6,12.9-6.4,13.6-7.5c0.1-0.3-0.6-1.5-1.6-2.9s-2.6-3.6-3.5-5s-1.7-2.6-1.7-2.7c-1.6,0.5-3.2,1-4.7,1.7
	c-8.6,3.7-16.3,5.4-27.9,6.2c-6.6,0.5-13.3,0.2-19.9-0.8c-7.2-1.4-14.2-4.1-20.5-7.9c-1.5-0.9-4-2.3-5.4-3.1
	c-11-5.8-21.7-16.3-28.3-28l-1.1-1.9L136.1,242.4z"/>
<linearGradient id="SVGID_00000093148472782991706200000004021122222220298683_" gradientUnits="userSpaceOnUse" x1="-1748.5963" y1="471.2635" x2="-1748.3463" y2="471.7135" gradientTransform="matrix(294.05 0 0 498.18 514338.0938 -234727.8125)">
	<stop  offset="0" style="stop-color:#7F7F7F;stop-opacity:0.43"/>
	<stop  offset="1" style="stop-color:#7F7F7F;stop-opacity:0.88"/>
</linearGradient>
<path style="fill:url(#SVGID_00000093148472782991706200000004021122222220298683_);" d="M185.8,42.5c-14.2,1.6-23.2,4.3-30.1,8.8
	c-5.8,3.8-8.5,6.9-12,13.7c-4.9,9.4-8,19.6-9.9,31.8c-2.7,17.4-3.2,32.9-1.7,60.8c0.2,4.6,0.4,13.8,0.4,20.4s0.2,16,0.5,20.9
	s0.7,13.6,1,19.3c0.7,14,1.6,21.3,2.9,23.8c5.6,10.1,13.5,18.7,23.2,25c4.7,3,5.9,3.6,6.3,3.1c0.6-0.6,3.3-6.7,5-11.4
	c1.7-4.9,3-9.9,4.1-15c0.1-0.8,0.3-1.6,0.5-2.4c0.5-0.8,0.9-7.3,0.9-13.4c0-8-1.3-16-3.8-23.7c-0.6-1.8-1.3-3.6-2.2-5.3
	c-0.3-0.3-0.4-0.7-0.4-1.2c-0.2-0.9-0.5-1.8-0.9-2.6c-1.3-2.6-2.9-6.2-5.5-12c-1.2-2.8-3.6-7.9-5.3-11.1c-2.6-5.1-7.9-17.9-7.9-19
	c-0.2-0.8-0.6-1.6-1-2.4c-1.1-2.4-3.4-11.8-4.5-18.3c-2.4-14.8-2.2-31.9,0.5-41.6c1.7-5.5,3.8-10.8,6.4-16
	c4.2-8.3,13.4-20.3,20.3-26.8l3.5-3.3l4.8-0.6l8.3-1c1.9-0.2,4.6-0.4,5.9-0.4h2.4v13h5.3v-13h2.8c5.4,0.3,10.9,0.9,16.2,1.8
	c3.3,0.6,4,1.1,10.7,7.8c6.9,6.8,9.1,9.4,13,15c10.4,15.1,15,30.8,14.2,48.3c-0.4,9.9-1.8,21.1-3.5,27.8c-2.2,7.8-5,15.4-8.3,22.9
	c-0.5,1.2-1.6,3.7-2.5,5.6s-2.1,4.7-2.8,6.3c-1.4,3-1.7,3.7-6.8,15.8c-5,11.9-6.7,19.5-6.7,31.2c-0.1,10.2,1.7,20.4,5.4,30
	c1.7,4.6,7.1,16.2,8.5,18.1c0.4,0.5,1.4,0.1,5.4-2c2.8-1.5,5.5-3.1,8.1-4.9c3.3-2.4,11.6-11.5,12.4-13.6c0.5-1.5,0.8-3,1-4.6
	c0.2-1.9,0.7-4.5,1-5.9c1-5.3,1.4-25.1,1.5-71.8c0.1-50.7,0-54.3-2-66.9c-3.1-18.9-6.7-30.2-13.5-42.2c-4.4-7.8-15.8-14.4-28.4-16.3
	c-2.7-0.4-5.9-0.9-7.1-1.2C212.3,41.8,196.7,41.3,185.8,42.5z"/>
<linearGradient id="SVGID_00000103229005944434383690000000269065941334656929_" gradientUnits="userSpaceOnUse" x1="-1745.4154" y1="476.4641" x2="-1745.1654" y2="476.9141" gradientTransform="matrix(192.64 0 0 56 336418.3438 -26412)">
	<stop  offset="0" style="stop-color:#7F7F7F;stop-opacity:0.43"/>
	<stop  offset="1" style="stop-color:#7F7F7F;stop-opacity:0.88"/>
</linearGradient>
<path style="fill:url(#SVGID_00000103229005944434383690000000269065941334656929_);" d="M163.9,274.8c-1.2,2.3-3.1,5.3-4.1,6.9
	c-0.8,1.1-1.4,2.2-1.8,3.5c0,0.7,4.5,3.6,8.9,5.7c5.1,2.5,18.1,5.9,22.3,5.9c1.2-0.1,2.3-0.5,3.3-1.1c4.2-2.5,5.8-2.9,11.9-2.9
	c5.5,0,5.9,0.1,9.3,1.6c1.9,0.9,3.5,1.8,3.5,2c0,1.1,13-1.7,19.8-4.3c4.3-1.6,12.9-6.4,13.6-7.5c0.1-0.3-0.6-1.5-1.6-2.9
	s-2.6-3.6-3.5-5s-1.7-2.6-1.7-2.7c-1.6,0.5-3.2,1-4.7,1.7c-8.6,3.7-16.3,5.4-27.9,6.2c-6.6,0.5-13.3,0.2-19.9-0.8
	c-7.5-1.5-14.6-4.3-21.1-8.3c-1.2-0.8-2.4-1.5-3.6-2.1C165.5,272,164.6,273.4,163.9,274.8z"/>
<linearGradient id="SVGID_00000111896532245566700130000017214792227004589488_" gradientUnits="userSpaceOnUse" x1="-1747.3964" y1="471.4457" x2="-1746.9165" y2="471.4457" gradientTransform="matrix(241.64 0 0 515.6 422383.9375 -242915.1875)">
	<stop  offset="0" style="stop-color:#FFFEFE;stop-opacity:0.21"/>
	<stop  offset="1" style="stop-color:#FFFEFE;stop-opacity:0.21"/>
</linearGradient>
<path style="fill:url(#SVGID_00000111896532245566700130000017214792227004589488_);" d="M188.4,43.2c-1.6,0.2-5,0.6-7.7,0.9
	l-4.8,0.6l-3.5,3.3c-6.9,6.4-16,18.5-20.3,26.8c-2.5,5.2-4.7,10.5-6.4,16c-2.7,9.7-2.9,26.8-0.5,41.6c1,6.5,3.4,15.9,4.5,18.3
	c0.4,0.8,0.8,1.6,1,2.4c0,1.1,5.3,13.9,7.9,19c1.7,3.3,4.1,8.3,5.3,11.1c2.6,5.8,4.2,9.4,5.5,12c0.4,0.8,0.8,1.7,0.9,2.6
	c0,0.4,0.2,0.8,0.4,1.2c0.8,1.7,1.6,3.5,2.2,5.3c2.5,7.6,3.8,15.6,3.8,23.7c0,6.1-0.4,12.6-0.9,13.4c-0.3,0.8-0.5,1.6-0.5,2.4
	c-1.1,5.1-2.4,10.1-4.1,15c-1.4,3.8-3,7.6-4.9,11.2c-0.5,0.6,5.9,4.5,11.1,6.9c9.3,4.2,20.2,5.9,33.4,5c11.6-0.8,19.3-2.5,27.8-6.1
	l4.4-1.9l-3.4-6.6c-7.5-14.8-10.8-27.6-10.8-42.4c0-11.6,1.6-19.2,6.7-31.2c5.1-12.1,5.4-12.8,6.8-15.8c0.7-1.5,2-4.4,2.8-6.3
	s2-4.4,2.5-5.6c3.3-7.4,6-15.1,8.3-22.9c1.6-6.7,3-17.9,3.5-27.8c0.8-17.5-3.8-33.2-14.2-48.3c-3.8-5.6-6.1-8.2-13-15
	c-6.6-6.7-7.4-7.2-10.6-7.7c-5.4-0.9-10.8-1.6-16.3-1.9h-2.8v13.1l2.8,2.9c5.4,5.7,9.3,16.4,10.7,29.4c0.7,6.2,0.3,26.7-0.4,29.8
	c-0.3,1.2-0.9,3.6-1.3,5.5c-1.8,8.1-5,14.8-8.2,17.7c-0.7,0.7-1.6,1.4-2.5,1.8c-0.3,0-0.5,3.4-0.5,9.5v9.5h-2.9v-17.7l-2.2-1
	c-3.1-1.4-6.1-5-9.7-11.2c-0.9-1.6-3.5-11.8-4-15.9c-2.3-17.6-1.1-36.7,3-47.2c2.6-6.7,6.4-12.1,9.1-12.7c1.1-0.3,1.1-0.3,1-7
	l-0.1-6.7h-3C192.7,42.8,190,43,188.4,43.2z"/>
<linearGradient id="SVGID_00000109714016689801816810000002490188261382773897_" gradientUnits="userSpaceOnUse" x1="-1721.6198" y1="503.3555" x2="-1721.1393" y2="503.3555" gradientTransform="matrix(53.5 0 0 10.21 92298 -4844.1797)">
	<stop  offset="0" style="stop-color:#9DBDFE;stop-opacity:0.66"/>
	<stop  offset="1" style="stop-color:#9DBDFE;stop-opacity:0.66"/>
</linearGradient>
<path style="fill:url(#SVGID_00000109714016689801816810000002490188261382773897_);" d="M198.5,293c-2.1,0.5-7.2,3.1-7.2,3.6
	c0,0.2,2.2,0.5,4.8,0.7c7.1,0.5,20.9-0.2,20.9-1c-1.1-0.8-2.2-1.4-3.5-1.9c-3.2-1.4-4-1.6-8.5-1.7
	C202.8,292.6,200.7,292.7,198.5,293z"/>
<linearGradient id="SVGID_00000103957505871081840830000015247537227190530476_" gradientUnits="userSpaceOnUse" x1="-1458.9623" y1="482.9703" x2="-1458.4823" y2="482.9703" gradientTransform="matrix(6 0 0 40 8954 -19166)">
	<stop  offset="0" style="stop-color:#000000;stop-opacity:0.39"/>
	<stop  offset="1" style="stop-color:#000000;stop-opacity:0.39"/>
</linearGradient>
<path style="fill:url(#SVGID_00000103957505871081840830000015247537227190530476_);" d="M200.2,152.8v9.3h2.9v-18.6h-2.9V152.8z"/>
<linearGradient id="SVGID_00000140728228785108864790000001479106482337987743_" gradientUnits="userSpaceOnUse" x1="-1712.3354" y1="476.7654" x2="-1711.9655" y2="477.1553" gradientTransform="matrix(41.92 0 0 86.93 71975.5391 -41360.8789)">
	<stop  offset="0" style="stop-color:#1F1F1F;stop-opacity:0.98"/>
	<stop  offset="1" style="stop-color:#1F1F1F"/>
</linearGradient>
<path style="fill:url(#SVGID_00000140728228785108864790000001479106482337987743_);" d="M196.8,79c-1.7,0.6-4.2,3.2-5.4,5.3
	c-1,1.8-1,2.4-0.8,14.2c0.3,13.6,0.6,15,3.6,17.7c2,1.6,4.4,2.5,6.9,2.7c2,0,6.3-2.4,7.9-4.3l1.5-1.8l0.2-13.1
	c0.1-9.5,0-13.6-0.4-14.9c-0.6-1.9-4-5.2-6-5.9C201.8,78.3,199.3,78.4,196.8,79z M207.8,87.7c0.7,1.3,0.6,1.7-0.3,2.6
	c-0.6,0.6-1.9,0.7-6.9,0.7s-6.3-0.1-6.9-0.7c-0.9-0.8-1-1.3-0.3-2.6c0.5-0.8,1.1-0.9,7.2-0.9S207.4,86.9,207.8,87.7L207.8,87.7z
	 M207.8,92.8c0.7,1.3,0.6,1.7-0.3,2.6c-0.6,0.6-1.9,0.7-6.9,0.7s-6.3-0.1-6.9-0.7c-0.9-0.8-1-1.3-0.3-2.6c0.5-0.8,1.1-0.9,7.2-0.9
	S207.4,92,207.8,92.8L207.8,92.8z M207.8,98.4c0.7,1.2,0.6,1.7-0.3,2.6c-0.6,0.6-1.9,0.7-6.9,0.7s-6.3-0.1-6.9-0.7
	c-0.9-0.8-1-1.3-0.3-2.6c0.5-0.8,1.1-0.9,7.2-0.9S207.4,97.6,207.8,98.4L207.8,98.4z M208.3,103.5c0.7,1.3,0.6,1.7-0.3,2.6
	c-0.6,0.6-1.9,0.7-6.9,0.7s-6.3-0.1-6.9-0.7c-0.9-0.8-1-1.3-0.3-2.6c0.5-0.8,1.1-0.9,7.2-0.9S207.9,102.7,208.3,103.5L208.3,103.5z
	 M208.3,109.1c0.7,1.2,0.6,1.7-0.3,2.6c-0.6,0.6-1.9,0.7-6.9,0.7s-6.3-0.1-6.9-0.7c-0.9-0.8-1-1.3-0.3-2.6c0.5-0.8,1.1-0.9,7.2-0.9
	S207.9,108.3,208.3,109.1L208.3,109.1z"/>
<linearGradient id="SVGID_00000094577798309551094780000012051497556211818659_" gradientUnits="userSpaceOnUse" x1="-1699.0902" y1="531.3682" x2="-1698.61" y2="531.3682" gradientTransform="matrix(31.9 0 0 9 54395.9531 -4672)">
	<stop  offset="0" style="stop-color:#000000;stop-opacity:0.67"/>
	<stop  offset="1" style="stop-color:#000000;stop-opacity:0.67"/>
</linearGradient>
<path style="fill:url(#SVGID_00000094577798309551094780000012051497556211818659_);" d="M194,109.1c-0.7,1.2-0.6,1.7,0.3,2.6
	c0.6,0.6,1.9,0.7,6.9,0.7s6.3-0.1,6.9-0.7c0.9-0.8,1-1.3,0.3-2.6c-0.5-0.8-1.1-0.9-7.2-0.9S194.4,108.3,194,109.1z"/>
<linearGradient id="SVGID_00000019636984726651706300000003237101249189698998_" gradientUnits="userSpaceOnUse" x1="-1699.0902" y1="532.0793" x2="-1698.61" y2="532.0793" gradientTransform="matrix(31.9 0 0 9 54395.9531 -4684)">
	<stop  offset="0" style="stop-color:#000000;stop-opacity:0.67"/>
	<stop  offset="1" style="stop-color:#000000;stop-opacity:0.67"/>
</linearGradient>
<path style="fill:url(#SVGID_00000019636984726651706300000003237101249189698998_);" d="M194,103.5c-0.7,1.3-0.6,1.7,0.3,2.6
	c0.6,0.6,1.9,0.7,6.9,0.7s6.3-0.1,6.9-0.7c0.9-0.8,1-1.3,0.3-2.6c-0.5-0.8-1.1-0.9-7.2-0.9S194.4,102.7,194,103.5z"/>
<linearGradient id="SVGID_00000175312339215274943140000013533775425688291499_" gradientUnits="userSpaceOnUse" x1="-1699.0802" y1="533.446" x2="-1698.6" y2="533.446" gradientTransform="matrix(31.9 0 0 9 54394.9531 -4707)">
	<stop  offset="0" style="stop-color:#000000;stop-opacity:0.66"/>
	<stop  offset="1" style="stop-color:#000000;stop-opacity:0.66"/>
</linearGradient>
<path style="fill:url(#SVGID_00000175312339215274943140000013533775425688291499_);" d="M193.5,92.8c-0.7,1.3-0.6,1.7,0.3,2.6
	c0.6,0.6,1.9,0.7,6.9,0.7s6.3-0.1,6.9-0.7c0.9-0.8,1-1.3,0.3-2.6c-0.5-0.8-1.1-0.9-7.2-0.9S194,92,193.5,92.8z"/>
<linearGradient id="SVGID_00000117634924713327430120000004902893007813673618_" gradientUnits="userSpaceOnUse" x1="-1699.0802" y1="532.7349" x2="-1698.6" y2="532.7349" gradientTransform="matrix(31.9 0 0 9 54394.9531 -4695)">
	<stop  offset="0" style="stop-color:#000000;stop-opacity:0.66"/>
	<stop  offset="1" style="stop-color:#000000;stop-opacity:0.66"/>
</linearGradient>
<path style="fill:url(#SVGID_00000117634924713327430120000004902893007813673618_);" d="M193.5,98.4c-0.7,1.2-0.6,1.7,0.3,2.6
	c0.6,0.6,1.9,0.7,6.9,0.7s6.3-0.1,6.9-0.7c0.9-0.8,1-1.3,0.3-2.6c-0.5-0.8-1.1-0.9-7.2-0.9S194,97.6,193.5,98.4z"/>
<linearGradient id="SVGID_00000145053952148997154550000009179909548444118438_" gradientUnits="userSpaceOnUse" x1="-1699.0802" y1="534.1016" x2="-1698.6" y2="534.1016" gradientTransform="matrix(31.9 0 0 9 54394.9531 -4718)">
	<stop  offset="0" style="stop-color:#000000;stop-opacity:0.67"/>
	<stop  offset="1" style="stop-color:#000000;stop-opacity:0.67"/>
</linearGradient>
<path style="fill:url(#SVGID_00000145053952148997154550000009179909548444118438_);" d="M193.5,87.7c-0.7,1.3-0.6,1.7,0.3,2.6
	c0.6,0.6,1.9,0.7,6.9,0.7s6.3-0.1,6.9-0.7c0.9-0.8,1-1.3,0.3-2.6c-0.5-0.8-1.1-0.9-7.2-0.9S194,86.9,193.5,87.7z"/>
<linearGradient id="SVGID_00000019677024858372002190000014034580047739489957_" gradientUnits="userSpaceOnUse" x1="-1748.1171" y1="471.389" x2="-1747.6368" y2="471.389" gradientTransform="matrix(294.05 0 0 517.46 514338.0938 -243788.7969)">
	<stop  offset="0" style="stop-color:#000000"/>
	<stop  offset="1" style="stop-color:#000000"/>
</linearGradient>
<path style="fill:url(#SVGID_00000019677024858372002190000014034580047739489957_);" d="M358.2,16.7C344,18.3,335,21,328.1,25.5
	c-5.8,3.8-8.5,6.9-12,13.7c-4.8,9.4-8,19.5-9.9,31.8c-2.7,17.4-3.2,32.9-1.7,60.8c0.2,4.6,0.4,13.8,0.4,20.4s0.2,16,0.5,20.9
	s0.7,13.6,1,19.3c0.7,14,1.6,21.3,2.9,23.8c5.8,11,17.2,22.3,28.3,28.1c1.4,0.8,3.9,2.2,5.4,3.1c6.3,3.8,13.3,6.5,20.5,7.9
	c14.2,2.4,33.5,0.5,46.1-4.6c6.7-3,13.1-6.5,19.2-10.5c3.3-2.4,11.6-11.5,12.4-13.6c0.5-1.5,0.8-3,1-4.6c0.2-1.9,0.7-4.5,1-5.9
	c1-5.3,1.4-25.1,1.5-71.8c0.1-50.7,0-54.3-2-66.9c-3.1-18.9-6.7-30.2-13.5-42.2c-4.4-7.8-15.8-14.4-28.4-16.3
	c-2.7-0.4-5.9-0.9-7.1-1.2C384.7,15.9,369.1,15.5,358.2,16.7z"/>
<linearGradient id="SVGID_00000092435310707611475030000012160932259607421350_" gradientUnits="userSpaceOnUse" x1="-1725.1851" y1="474.3913" x2="-1724.7052" y2="474.3813" gradientTransform="matrix(54.26 0 0 144.03 93622.2891 -68225.0234)">
	<stop  offset="0" style="stop-color:#2E2E2D"/>
	<stop  offset="1" style="stop-color:#CCCDCD"/>
</linearGradient>
<path style="fill:url(#SVGID_00000092435310707611475030000012160932259607421350_);" d="M22.5,68.9c-4.7,4-7.5,12.7-8.6,27.3
	c-0.6,7.6,1.4,21.2,4.1,28.1c3.3,8.3,8.2,11.8,12.8,9.1c2-1.2,5.5-8.1,6.9-13.5c1.8-7.6,2.5-15.4,2-23.2
	c-1.2-12.1-2.2-16.2-5.3-22.6c-2.5-5-4.5-6.7-7.7-6.7C25.1,67.2,23.6,67.8,22.5,68.9z"/>
<linearGradient id="SVGID_00000160889659765964854960000002476426540000498310_" gradientUnits="userSpaceOnUse" x1="-1718.1133" y1="476.1375" x2="-1717.8633" y2="476.3275" gradientTransform="matrix(51.94 0 0 66.6 89668.7578 -31432.3789)">
	<stop  offset="0" style="stop-color:#070706"/>
	<stop  offset="1" style="stop-color:#2F2F2E"/>
</linearGradient>
<path style="fill:url(#SVGID_00000160889659765964854960000002476426540000498310_);" d="M443.1,276.7c-5,5.9-8.5,8.6-15.7,12.5
	c-4.7,2.4-4.9,2.7-4.4,3.6c1.7,2.9,3.7,5.7,5.8,8.4l1.1,1.3l3-2.6c6.1-5.4,10.5-13,13.8-24.3c0.4-1.3,0.8-2.6,1-4
	C447.7,271.5,445.6,273.8,443.1,276.7z"/>
<linearGradient id="SVGID_00000000926039245406116330000013261478914870834594_" gradientUnits="userSpaceOnUse" x1="-1746.3267" y1="473.6406" x2="-1746.6166" y2="474.2107" gradientTransform="matrix(238.74 0 0 122.84 417277.75 -57891.2773)">
	<stop  offset="0" style="stop-color:#000000"/>
	<stop  offset="1" style="stop-color:#363736"/>
</linearGradient>
<path style="fill:url(#SVGID_00000000926039245406116330000013261478914870834594_);" d="M309.6,263.8c0.2,1.2,0.7,4.1,1.2,6.5
	c4.2,19.3,11.1,30.9,22.8,38.2c9.6,6,20.1,9.1,34.5,10c8.4,0.4,16.9,0.2,25.3-0.7c5.7-0.9,11.3-2.4,16.8-4.4
	c4.3-1.6,12.9-6.4,13.6-7.5c0.1-0.3-0.6-1.5-1.6-2.9s-2.6-3.6-3.5-5s-1.7-2.7-1.7-2.7c-1.6,0.4-3.1,1-4.6,1.7
	c-8.6,3.7-16.3,5.4-27.9,6.2c-6.6,0.5-13.3,0.2-19.9-0.8c-7.2-1.4-14.2-4.1-20.5-7.9c-1.5-0.9-4-2.3-5.4-3.1
	c-11-5.8-21.7-16.3-28.3-28l-1-1.8L309.6,263.8z"/>
<linearGradient id="SVGID_00000099651129387909549170000018433994019055667902_" gradientUnits="userSpaceOnUse" x1="-1743.8013" y1="476.7868" x2="-1743.5513" y2="477.2368" gradientTransform="matrix(192.64 0 0 56 336418.3438 -26412)">
	<stop  offset="0" style="stop-color:#7F7F7F;stop-opacity:0.43"/>
	<stop  offset="1" style="stop-color:#7F7F7F;stop-opacity:0.88"/>
</linearGradient>
<path style="fill:url(#SVGID_00000099651129387909549170000018433994019055667902_);" d="M474.7,292.8c-1.2,2.3-3.1,5.3-4.1,6.9
	c-0.8,1.1-1.4,2.2-1.8,3.5c0,0.7,4.5,3.6,8.9,5.7c5.1,2.5,18.1,5.9,22.3,5.9c1.2-0.1,2.3-0.5,3.3-1.1c4.2-2.5,5.8-2.9,11.9-2.9
	c5.5,0,5.9,0.1,9.3,1.6c1.9,0.9,3.5,1.8,3.5,2c0,1.1,13-1.7,19.8-4.3c4.3-1.6,12.9-6.4,13.6-7.5c0.1-0.3-0.6-1.5-1.6-2.9
	s-2.6-3.6-3.5-5c-0.9-1.4-1.7-2.7-1.7-2.7c-1.6,0.5-3.2,1-4.7,1.7c-8.6,3.7-16.3,5.4-27.9,6.2c-6.6,0.5-13.3,0.2-19.9-0.8
	c-7.5-1.5-14.6-4.3-21.1-8.3c-1.2-0.8-2.4-1.5-3.6-2.1C476.2,290,475.4,291.4,474.7,292.8z"/>
<linearGradient id="SVGID_00000114067769110044296030000009153121883079704252_" gradientUnits="userSpaceOnUse" x1="-1715.7875" y1="476.7459" x2="-1715.4175" y2="477.1258" gradientTransform="matrix(41.92 0 0 86.93 71975.5391 -41360.8789)">
	<stop  offset="0" style="stop-color:#1F1F1F;stop-opacity:0.98"/>
	<stop  offset="1" style="stop-color:#1F1F1F"/>
</linearGradient>
<path style="fill:url(#SVGID_00000114067769110044296030000009153121883079704252_);" d="M52.2,76.8c-1.7,0.7-4.2,3.2-5.4,5.3
	c-1,1.8-1,2.4-0.8,14.2c0.3,13.6,0.6,15,3.5,17.7c2,1.6,4.4,2.5,6.9,2.7c2,0,6.3-2.4,7.9-4.3l1.5-1.8l0.1-13.1
	c0.1-9.5,0-13.6-0.4-14.9c-0.6-1.9-4-5.2-6-5.9C57.2,76.2,54.6,76.2,52.2,76.8z M63.2,85.6c0.7,1.2,0.6,1.7-0.3,2.6
	C62.3,88.8,61,89,56,89s-6.3-0.1-6.9-0.8c-0.9-0.8-1-1.3-0.3-2.6c0.5-0.8,1.1-0.9,7.2-0.9S62.8,84.8,63.2,85.6L63.2,85.6z
	 M63.2,90.7c0.7,1.2,0.6,1.7-0.3,2.6c-0.6,0.6-1.9,0.8-6.9,0.8s-6.3-0.1-6.9-0.8c-0.9-0.8-1-1.3-0.3-2.6c0.5-0.8,1.1-0.9,7.2-0.9
	S62.8,89.9,63.2,90.7L63.2,90.7z M63.2,96.2c0.7,1.2,0.6,1.7-0.3,2.6c-0.6,0.6-1.9,0.7-6.9,0.7s-6.3-0.1-6.9-0.7
	c-0.9-0.8-1-1.3-0.3-2.6c0.5-0.8,1.1-0.9,7.2-0.9S62.8,95.5,63.2,96.2L63.2,96.2z M63.7,101.4c0.7,1.2,0.6,1.7-0.3,2.6
	c-0.6,0.6-1.9,0.8-6.9,0.8s-6.3-0.1-6.9-0.8c-0.9-0.8-1-1.3-0.3-2.6c0.5-0.8,1.1-0.9,7.2-0.9S63.3,100.6,63.7,101.4L63.7,101.4z
	 M63.7,106.9c0.7,1.3,0.6,1.7-0.3,2.6c-0.6,0.6-1.9,0.7-6.9,0.7s-6.3-0.1-6.9-0.7c-0.9-0.8-1-1.3-0.3-2.6c0.5-0.8,1.1-0.9,7.2-0.9
	S63.3,106.1,63.7,106.9L63.7,106.9z"/>
<linearGradient id="SVGID_00000139977059656829118330000011589661475002098853_" gradientUnits="userSpaceOnUse" x1="-1702.8519" y1="531.4673" x2="-1702.3717" y2="531.4673" gradientTransform="matrix(31.9 0 0 9 54395.9531 -4672)">
	<stop  offset="0" style="stop-color:#000000;stop-opacity:0.67"/>
	<stop  offset="1" style="stop-color:#000000;stop-opacity:0.67"/>
</linearGradient>
<path style="fill:url(#SVGID_00000139977059656829118330000011589661475002098853_);" d="M74.1,110c-0.7,1.2-0.6,1.7,0.3,2.5
	c0.6,0.6,1.9,0.8,6.9,0.8s6.3-0.1,6.9-0.8c0.9-0.8,1-1.3,0.3-2.5c-0.5-0.8-1.1-0.9-7.2-0.9S74.5,109.2,74.1,110z"/>
<linearGradient id="SVGID_00000124841065917533248830000011415558935401972140_" gradientUnits="userSpaceOnUse" x1="-1702.8488" y1="532.0006" x2="-1702.3685" y2="532.0006" gradientTransform="matrix(31.9 0 0 9 54395.9531 -4684)">
	<stop  offset="0" style="stop-color:#000000;stop-opacity:0.67"/>
	<stop  offset="1" style="stop-color:#000000;stop-opacity:0.67"/>
</linearGradient>
<path style="fill:url(#SVGID_00000124841065917533248830000011415558935401972140_);" d="M74.2,102.8c-0.7,1.2-0.6,1.7,0.3,2.6
	c0.6,0.6,1.9,0.7,6.9,0.7s6.3-0.1,6.9-0.7c0.9-0.8,1-1.3,0.3-2.6c-0.5-0.8-1.1-0.9-7.2-0.9S74.6,102,74.2,102.8z"/>
<linearGradient id="SVGID_00000072962148978131262250000007192101621956466877_" gradientUnits="userSpaceOnUse" x1="-1702.8187" y1="532.8309" x2="-1702.3385" y2="532.8309" gradientTransform="matrix(31.9 0 0 9 54394.9531 -4707)">
	<stop  offset="0" style="stop-color:#000000;stop-opacity:0.66"/>
	<stop  offset="1" style="stop-color:#000000;stop-opacity:0.66"/>
</linearGradient>
<path style="fill:url(#SVGID_00000072962148978131262250000007192101621956466877_);" d="M74.2,87.3c-0.7,1.2-0.6,1.7,0.3,2.6
	c0.6,0.6,1.9,0.7,6.9,0.7s6.3-0.1,6.9-0.7c0.9-0.8,1-1.3,0.3-2.6c-0.5-0.8-1.1-0.9-7.2-0.9S74.6,86.5,74.2,87.3z"/>
<linearGradient id="SVGID_00000087412346620453914340000016196640324770471565_" gradientUnits="userSpaceOnUse" x1="-1702.8131" y1="532.4476" x2="-1702.3329" y2="532.4476" gradientTransform="matrix(31.9 0 0 9 54394.9531 -4695)">
	<stop  offset="0" style="stop-color:#000000;stop-opacity:0.66"/>
	<stop  offset="1" style="stop-color:#000000;stop-opacity:0.66"/>
</linearGradient>
<path style="fill:url(#SVGID_00000087412346620453914340000016196640324770471565_);" d="M74.2,95.8c-0.7,1.3-0.6,1.7,0.3,2.6
	c0.6,0.6,1.9,0.7,6.9,0.7s6.3-0.1,6.9-0.7c0.9-0.8,1-1.3,0.3-2.6c-0.5-0.8-1.1-0.9-7.2-0.9S74.7,95,74.2,95.8z"/>
<linearGradient id="SVGID_00000136373478474026550090000010688982554740235924_" gradientUnits="userSpaceOnUse" x1="-1702.8025" y1="533.1859" x2="-1702.3223" y2="533.1859" gradientTransform="matrix(31.9 0 0 9 54394.9531 -4718)">
	<stop  offset="0" style="stop-color:#000000;stop-opacity:0.67"/>
	<stop  offset="1" style="stop-color:#000000;stop-opacity:0.67"/>
</linearGradient>
<path style="fill:url(#SVGID_00000136373478474026550090000010688982554740235924_);" d="M74.5,79.5c-0.7,1.3-0.6,1.7,0.3,2.6
	c0.6,0.6,1.9,0.7,6.9,0.7s6.3-0.1,6.9-0.7c0.9-0.8,1-1.3,0.3-2.6c-0.5-0.8-1.1-0.9-7.2-0.9S75,78.7,74.5,79.5z"/>
<linearGradient id="SVGID_00000164495062850069509520000018132160605737535132_" gradientUnits="userSpaceOnUse" x1="-2352.5906" y1="108.8319" x2="-2352.1101" y2="108.8319" gradientTransform="matrix(241.64 0 0 -515.6 568933.6875 56280.7383)">
	<stop  offset="0" style="stop-color:#FFFEFE;stop-opacity:0.21"/>
	<stop  offset="1" style="stop-color:#FFFEFE;stop-opacity:0.21"/>
</linearGradient>
<path style="fill:url(#SVGID_00000164495062850069509520000018132160605737535132_);stroke:#000000;stroke-miterlimit:10;" d="
	M499.2,48.1c-1.6,0.2-5,0.6-7.7,0.9l-4.8,0.5l-3.5,3.3c-6.9,6.4-16.1,18.5-20.3,26.7c-2.5,5.2-4.7,10.5-6.4,16
	c-2.7,9.7-2.9,26.8-0.5,41.6c1.1,6.5,3.4,15.9,4.5,18.3c0.4,0.8,0.8,1.6,1,2.4c0,1.1,5.3,13.9,7.9,19c1.7,3.3,4.1,8.3,5.3,11.1
	c2.6,5.8,4.2,9.4,5.5,12c0.4,0.8,0.8,1.7,0.9,2.6c0,0.4,0.2,0.8,0.4,1.2c0.8,1.7,1.6,3.5,2.2,5.3c2.5,7.6,3.8,15.6,3.8,23.7
	c0,6.1-0.4,12.6-0.9,13.4c-0.3,0.8-0.4,1.6-0.5,2.4c-1.1,5.1-2.4,10.1-4.1,15c-1.4,3.8-3,7.6-4.8,11.2c-0.5,0.6,5.9,4.6,11.1,6.9
	c9.3,4.2,20.3,5.9,33.4,5c11.6-0.8,19.3-2.5,27.8-6.1l4.4-1.9l-3.4-6.6c-7.5-14.8-10.8-27.6-10.8-42.4c0-11.6,1.6-19.2,6.7-31.2
	c5.1-12.1,5.4-12.8,6.8-15.8c0.7-1.5,2-4.4,2.8-6.3s2-4.4,2.5-5.6c3.3-7.4,6-15,8.3-22.8c1.6-6.7,3-17.9,3.5-27.8
	c0.9-17.4-3.8-33.2-14.1-48.2c-3.8-5.6-6.1-8.2-13-15s-7.4-7.2-10.7-7.8c-5.4-0.9-10.8-1.6-16.3-1.9h-2.8v13.1l2.8,3.3
	c5.4,5.7,9.3,16.4,10.7,29.4c0.7,6.2,0.3,26.7-0.4,29.8c-0.3,1.2-0.9,3.6-1.3,5.5c-1.8,8.1-4.9,14.8-8.2,17.7
	c-0.7,0.7-1.6,1.4-2.5,1.8c-0.3,0-0.5,3.3-0.5,9.5v9.5h-2.9v-17.7l-2.2-1c-3.1-1.4-6.1-5-9.7-11.2c-0.9-1.6-3.5-11.8-4-15.9
	c-2.2-17.6-1-36.7,3-47.2c2.6-6.7,6.4-12.1,9.1-12.7c1.1-0.3,1.1-0.3,1-7l-0.2-6.7h-3C503.5,47.7,500.8,47.8,499.2,48.1z"/>
<rect x="179.6" y="76.3" class="st32" width="40.8" height="48.4"/>
<g>
	<g>
		<line class="st33" x1="117.6" y1="93.2" x2="175.7" y2="93.2"/>
		<g>
			<polygon class="st34" points="95.7,93.2 126.6,103.7 119.3,93.2 126.6,82.7 			"/>
		</g>
	</g>
</g>
<rect x="160.5" y="253.9" class="st32" width="90.8" height="31.4"/>
<g>
	<g>
		<line class="st33" x1="286.6" y1="269.6" x2="257.8" y2="269.6"/>
		<g>
			<polygon class="st34" points="297.5,269.6 282.2,280.1 285.8,269.6 282.2,259 			"/>
		</g>
	</g>
</g>
<rect x="43.3" y="71.9" class="st32" width="27.3" height="52.7"/>
<rect x="303.7" y="259.6" class="st32" width="160.3" height="62.5"/>
</svg>
