<?xml version="1.0" encoding="utf-8"?>
<!-- Generator: Adobe Illustrator 26.5.0, SVG Export Plug-In . SVG Version: 6.00 Build 0)  -->
<svg version="1.1" id="图层_1" xmlns="http://www.w3.org/2000/svg" xmlns:xlink="http://www.w3.org/1999/xlink" x="0px" y="0px"
	 viewBox="0 0 580 340" style="enable-background:new 0 0 580 340;" xml:space="preserve">
<style type="text/css">
	.st0{fill:none;}
	.st1{fill:#D2D2D2;}
	.st2{fill:url(#SVGID_1_);}
	.st3{fill:url(#region-1-1_00000073722813390910537620000016406859869496164791_);}
	.st4{fill:url(#region-1-2_00000165215627109222746120000000851638521325456016_);}
	.st5{fill:url(#region-2-1_00000098211609349756966160000000817999642870395779_);}
	.st6{fill:url(#region-2-2_00000029005512425577469230000016956301347357428880_);}
	.st7{fill:url(#region-3-1_00000024683050878668224750000014262963776943301813_);}
	.st8{fill:url(#region-3-2_00000094617636315679969560000006105861154790342026_);}
	.st9{fill:url(#region-3-3_00000120535066335160264110000007314074757036549567_);}
	.st10{fill:url(#region-4-1_00000097497817010588499420000015084178865938759852_);}
	.st11{fill:url(#region-5-1_00000109022343900551083100000011787188428555805319_);}
	.st12{fill:url(#region-6-1_00000162332811745080905110000010200224959715502729_);}
	.st13{fill:url(#region-7-1_00000076567972496136592520000004587510197112410527_);}
	.st14{fill:url(#region-7-2_00000065782975051242761000000013768214530490540163_);}
	.st15{fill:url(#region-7-3_00000089541115284820989250000011780673697239922101_);}
	.st16{fill:url(#region-7-4_00000091696541477109581930000009667625104166170763_);}
	.st17{fill:url(#region-7-5_00000044898383950347702470000014813279805846676657_);}
	
		.st18{fill:url(#fc7c96f0-b6cc-4d56-aa3d-350486f6a5ae_00000032627229858410833870000010477615128678984340_);stroke:#000000;stroke-width:0.1;stroke-miterlimit:10;}
	.st19{fill:url(#SVGID_00000088120845116587361050000004929041178768530090_);}
	.st20{fill:#040000;}
	.st21{fill:url(#f67d6cf3-a3f1-4a02-8e3b-7b7e5a15ec3c_00000090975704245772924350000015250284994544458905_);}
	.st22{fill:url(#bdaa4870-1cc4-44aa-a54c-691d09e891e3_00000106825663290639558720000002788699423355831984_);}
	.st23{fill:url(#SVGID_00000183222544902015576580000001151933026189516467_);}
	.st24{fill:url(#SVGID_00000042729373820186343860000005432407061576386221_);}
	.st25{fill:url(#SVGID_00000080889529987090102400000013070952442286154886_);}
	.st26{fill:url(#SVGID_00000158709196645812391790000013487550922455398325_);}
	.st27{fill:url(#SVGID_00000168091693881298616770000007191928705654915762_);}
	.st28{fill:url(#region-2-2_00000024690379902811338020000006436927820470317471_);}
	.st29{fill:url(#region-1-1_00000107588342830138201990000009076915198485570993_);}
	.st30{fill:none;stroke:#0000FF;stroke-width:3;stroke-miterlimit:10;}
	.st31{fill:none;stroke:#3FA9F5;stroke-width:4;stroke-linecap:round;stroke-miterlimit:10;}
	.st32{fill:#3FA9F5;}
</style>
<pattern  y="340" width="40" height="40" patternUnits="userSpaceOnUse" id="SVGID_0000013569252358819781489" viewBox="0 -40 40 40" style="overflow:visible;">
	<g>
		<rect y="-40" class="st0" width="40" height="40"/>
		<g>
			<rect y="-40" class="st0" width="40" height="40"/>
			<g>
				<rect y="-40" class="st0" width="40" height="40"/>
				<g>
					<rect y="-40" class="st0" width="40" height="40"/>
					<g>
						<rect y="-40" class="st0" width="40" height="40"/>
						<rect y="-40" class="st0" width="40" height="40"/>
						<rect y="-40" class="st1" width="20" height="20"/>
						<rect x="20" y="-20" class="st1" width="20" height="20"/>
					</g>
				</g>
			</g>
		</g>
	</g>
</pattern>
<pattern  id="SVGID_1_" xlink:href="#SVGID_0000013569252358819781489" patternTransform="matrix(1 0 0 1 -10.537 35041.2578)">
</pattern>
<rect class="st2" width="580" height="340"/>
<g id="layer-1">
	
		<linearGradient id="region-1-1_00000099652922494996402180000014567617134753684118_" gradientUnits="userSpaceOnUse" x1="-2562.312" y1="-16.1824" x2="-2562.2034" y2="-16.7127" gradientTransform="matrix(294.0503 0 0 -548.702 753619.4375 -8860.6406)">
		<stop  offset="0" style="stop-color:#747474;stop-opacity:0.993"/>
		<stop  offset="1" style="stop-color:#1A1A19;stop-opacity:0.993"/>
	</linearGradient>
	<path id="region-1-1" style="fill:url(#region-1-1_00000099652922494996402180000014567617134753684118_);" d="M170.7,39.9
		c-14,1.7-22.9,4.4-29.7,9c-5.7,3.9-8.4,7.1-11.9,14c-4.8,9.6-7.9,20-9.8,32.4c-2.7,17.8-3.1,33.6-1.7,62.1c0.2,4.7,0.4,14,0.4,20.8
		c0,6.7,0.2,16.4,0.5,21.3c0.2,5,0.7,13.8,0.9,19.7c1.2,24.6,4.2,40,10.2,52.5c6.7,13.8,19.5,22.8,38,26.6c6.1,1.3,7.3,1.2,9.5-0.1
		c4.2-2.6,5.7-2.9,11.7-2.9c5.5,0,5.8,0.1,9.1,1.6c1.8,0.9,3.4,1.8,3.4,2.1c0,1.1,12.8-1.8,19.5-4.4c8.3-3.3,17-9.6,21.7-15.8
		c2.1-2.8,5.4-9.2,7-13.6c1.3-3.6,3.5-12.1,4-15.7c0.2-1.9,0.7-4.6,0.9-6c0.9-5.4,1.4-25.6,1.5-73.3c0.1-51.8,0-55.4-2-68.3
		c-3.1-19.3-6.6-30.9-13.3-43.1c-4.4-8-15.6-14.6-28-16.6c-2.7-0.4-5.8-0.9-7-1.2C196.9,39.2,181.5,38.7,170.7,39.9z"/>
	
		<linearGradient id="region-1-2_00000105386846426451226980000011383919515151498939_" gradientUnits="userSpaceOnUse" x1="-2522.9492" y1="-105.4493" x2="-2522.8291" y2="-107.2278" gradientTransform="matrix(53.5 0 0 -10.2113 135165.2188 -781.6617)">
		<stop  offset="0" style="stop-color:#5776A9"/>
		<stop  offset="1" style="stop-color:#6C7CA2"/>
	</linearGradient>
	<path id="region-1-2" style="fill:url(#region-1-2_00000105386846426451226980000011383919515151498939_);" d="M183.3,295.6
		c-2,0.5-7.1,3.1-7.1,3.6c0,0.2,2.1,0.6,4.7,0.8c7,0.5,20.6-0.2,20.6-1c0-0.2-1.6-1.1-3.4-1.9c-3.1-1.4-4-1.6-8.4-1.7
		C186.9,295.2,184.1,295.3,183.3,295.6z"/>
</g>
<linearGradient id="region-2-1_00000044881424508885396040000002601672539197079687_" gradientUnits="userSpaceOnUse" x1="-2560.3584" y1="-17.0282" x2="-2560.3584" y2="-17.5023" gradientTransform="matrix(241.6391 0 0 -401.925 618869.0625 -6803.9585)">
	<stop  offset="0" style="stop-color:#5B5C5C;stop-opacity:0.914"/>
	<stop  offset="1" style="stop-color:#FFFFFF;stop-opacity:0.375"/>
</linearGradient>
<path id="region-2-1" style="fill:url(#region-2-1_00000044881424508885396040000002601672539197079687_);" d="M173.3,40.7
	c-1.6,0.2-5,0.6-7.6,0.9l-4.7,0.6l-3.5,3.4c-6.8,6.5-15.8,18.9-20,27.3c-2.1,4.1-5.1,12.1-6.3,16.4c-2.7,9.9-2.9,27.3-0.5,42.4
	c1,6.6,3.3,16.2,4.4,18.7c0.6,1.1,1,2.3,1,2.5c0,1.1,5.3,14.2,7.8,19.4c1.7,3.4,4,8.5,5.3,11.4c2.6,5.9,4.2,9.6,5.5,12.3
	c0.5,1,0.9,2.2,0.9,2.7c0,0.4,0.2,0.9,0.4,1.2c1.6,1.7,5.4,17.2,5.8,24.1c0.1,1.8,0.2,1.8,2.5,2.5c1.3,0.4,3.6,1.1,5.2,1.6
	s4.6,1.1,6.9,1.4c2.2,0.3,4.9,0.8,6,1c2.5,0.5,17.7,0.5,20.3,0c1-0.2,3.9-0.7,6.3-1l4.4-0.6v-4.3c0-9.9,1.9-18.4,6.6-30
	c5-12.3,5.3-13,6.7-16.1c0.7-1.6,2-4.5,2.8-6.4c0.9-1.9,2-4.5,2.5-5.7c2.7-6,7.1-18.7,8.2-23.3c1.6-6.8,3-18.3,3.4-28.3
	c0.8-17.8-3.7-33.9-14-49.3c-3.8-5.7-6-8.4-12.8-15.3c-6.6-6.8-7.3-7.3-10.6-7.9c-4.8-0.9-13.4-1.9-16.1-1.9h-2.7V47v6.6h-2.6h-2.6
	V47v-6.6h-2.9C177.5,40.2,174.9,40.4,173.3,40.7z"/>
<linearGradient id="region-2-2_00000150818019289899172520000006711738168106976948_" gradientUnits="userSpaceOnUse" x1="-2557.6819" y1="-20.5305" x2="-2557.6533" y2="-21.0953" gradientTransform="matrix(192.6382 0 0 -154.5021 492892.1875 -2947.5107)">
	<stop  offset="0" style="stop-color:#282828;stop-opacity:0.577"/>
	<stop  offset="1" style="stop-color:#777878;stop-opacity:0.888"/>
</linearGradient>
<path id="region-2-2" style="fill:url(#region-2-2_00000150818019289899172520000006711738168106976948_);" d="M162.1,232.2
	c-0.3,6.1-0.6,9.3-1,10.8c-0.1,0.4-0.3,1.6-0.5,2.6c-0.4,2.7-2.8,11.8-4,15.1c-2.7,7.4-8.2,18.7-12.1,24.4c-0.7,0.9-1.2,2.1-1.2,2.5
	c0,0.7,4.4,3.6,8.8,5.8c5,2.5,17.9,6,22,6c0.8,0,2.2-0.5,3.2-1.1c4.2-2.6,5.7-2.9,11.7-2.9c5.5,0,5.8,0.1,9.1,1.6
	c1.8,0.9,3.4,1.8,3.4,2.1c0,1.1,12.8-1.8,19.5-4.4c4.2-1.7,12.8-6.5,13.5-7.6c0.1-0.3-0.6-1.6-1.6-2.9c-7.3-9.7-14.3-24.7-17.4-37.7
	c-0.7-2.7-1.4-7.7-1.8-11.2c-0.5-5.2-0.8-6.4-1.4-6.4c-0.4,0-2.6,0.4-5,0.8c-5.5,1-20.8,1.4-24.9,0.7c-9.1-1.5-11.5-2-14.7-2.9
	C161.6,225.6,162.4,224.9,162.1,232.2z"/>
<linearGradient id="region-3-1_00000050625336188150408640000004721174369473053631_" gradientUnits="userSpaceOnUse" x1="-2534.0417" y1="-20.5833" x2="-2533.4526" y2="-20.5252" gradientTransform="matrix(69.234 0 0 -190.2201 175608.625 -3812.1235)">
	<stop  offset="0" style="stop-color:#AFAFAF;stop-opacity:0.855"/>
	<stop  offset="1" style="stop-color:#727272;stop-opacity:0.742"/>
</linearGradient>
<path id="region-3-1" style="fill:url(#region-3-1_00000050625336188150408640000004721174369473053631_);" d="M181.1,54.3
	c-10.1,4.8-15.4,32.1-11.8,61c0.5,4.1,3,14.6,3.9,16.2c3.5,6.4,7.3,10.8,10.2,11.8c0.8,0.3,1.5,0.3,1.5,0.1s0.5-0.4,1.2-0.4
	c5,0,10-8.2,12.8-20.4c0.4-1.9,1-4.5,1.3-5.6c0.8-3.2,1.1-24.1,0.4-30.4c-1.4-13.4-5.2-24.3-10.7-30.1c-2.7-2.8-2.8-3-5-3
	C183.8,53.4,182.1,53.8,181.1,54.3z"/>
<linearGradient id="region-3-2_00000080921862892126741940000010944302614050768818_" gradientUnits="userSpaceOnUse" x1="-2141.6987" y1="-41.575" x2="-2141.6987" y2="-42.0489" gradientTransform="matrix(6 0 0 -40 13036.5928 -1520)">
	<stop  offset="0" style="stop-color:#484848;stop-opacity:0.81"/>
	<stop  offset="1" style="stop-color:#595A5A;stop-opacity:0.777"/>
</linearGradient>
<path id="region-3-2" style="fill:url(#region-3-2_00000080921862892126741940000010944302614050768818_);" d="M185,152.5v9.5h1.4
	h1.4v-9.5V143h-1.4H185V152.5z"/>
<linearGradient id="region-3-3_00000132060848714385265920000015912452494596188307_" gradientUnits="userSpaceOnUse" x1="-2561.7251" y1="-22.1844" x2="-2561.7244" y2="-22.665" gradientTransform="matrix(277.1 0 0 -121.364 710041.125 -2450.6345)">
	<stop  offset="0" style="stop-color:#2B2B2C;stop-opacity:9.100000e-02"/>
	<stop  offset="1" style="stop-color:#000000;stop-opacity:0"/>
</linearGradient>
<path id="region-3-3" style="fill:url(#region-3-3_00000132060848714385265920000015912452494596188307_);" d="M121.7,244
	c1.2,8.9,4.6,20.5,8.1,27.8c6.7,13.8,19.5,22.8,38,26.6c6.1,1.3,7.3,1.2,9.5-0.1c4.2-2.6,5.7-2.9,11.7-2.9c5.5,0,5.8,0.1,9.1,1.6
	c1.8,0.9,3.4,1.8,3.4,2.1c0,1.1,12.8-1.8,19.5-4.4c8.3-3.3,17-9.6,21.7-15.8c2.1-2.8,5.4-9.3,7-13.6c0.7-1.8,3.1-9.9,3.1-10.3
	c0,0-2,2.3-4.6,5.4c-5.3,6.4-8.3,8.8-17.2,13.7c-6.9,3.8-10.7,5.5-15.5,7c-10.9,3.4-28.2,4.5-39.5,2.5c-6.1-1-14.6-4.4-20.2-8.1
	c-1.5-0.9-3.9-2.4-5.4-3.2c-10.9-5.9-21.4-16.6-27.9-28.5l-1-1.9L121.7,244z"/>
<g id="layer-4">
	
		<linearGradient id="region-4-1_00000087402002105185671960000011469370446169120948_" gradientUnits="userSpaceOnUse" x1="-2523.7732" y1="-22.4659" x2="-2523.1643" y2="-22.547" gradientTransform="matrix(54.2594 0 0 -144.0282 137108.8125 -3142.3965)">
		<stop  offset="0" style="stop-color:#4E4F4F;stop-opacity:0.84"/>
		<stop  offset="1" style="stop-color:#818181;stop-opacity:0.765"/>
	</linearGradient>
	<path id="region-4-1" style="fill:url(#region-4-1_00000087402002105185671960000011469370446169120948_);" d="M180.4,65.8
		c-4.6,4.1-7.4,13-8.5,27.9c-0.6,7.7,1.4,21.7,4,28.7c3.3,8.5,8.1,12,12.6,9.3c1.9-1.2,5.5-8.3,6.8-13.8c1.7-7,2.6-17.3,1.9-23.7
		c-1.2-12.3-2.2-16.6-5.3-23c-2.5-5.1-4.4-6.8-7.6-6.8C182.5,64.3,181.9,64.5,180.4,65.8z"/>
</g>
<g id="layer-5">
	
		<linearGradient id="region-5-1_00000136380604875669970420000010049696477336982419_" gradientUnits="userSpaceOnUse" x1="-2509.5518" y1="-27.5358" x2="-2509.5518" y2="-28.01" gradientTransform="matrix(41.9242 0 0 -86.9264 105396.2656 -2316.9121)">
		<stop  offset="0" style="stop-color:#020101;stop-opacity:0.778"/>
		<stop  offset="1" style="stop-color:#0D0C0C;stop-opacity:0.804"/>
	</linearGradient>
	<path id="region-5-1" style="fill:url(#region-5-1_00000136380604875669970420000010049696477336982419_);" d="M181.6,77.2
		c-1.7,0.7-4.2,3.2-5.3,5.4c-0.9,1.8-1,2.4-0.8,14.5c0.3,13.9,0.6,15.3,3.5,18.1c1.5,1.4,4.8,2.7,6.8,2.7s6.3-2.4,7.8-4.4l1.5-1.8
		l0.1-13.3c0.1-9.7,0-13.8-0.4-15.2c-0.6-1.9-3.9-5.3-5.9-6C187.4,76.5,183.2,76.5,181.6,77.2z"/>
</g>
<g id="layer-6">
	
		<linearGradient id="region-6-1_00000127760563584697483010000012806120792607139226_" gradientUnits="userSpaceOnUse" x1="-2497.9128" y1="-29.3765" x2="-2497.3616" y2="-29.3179" gradientTransform="matrix(35.1222 0 0 -77.6808 87908.7266 -2182.54)">
		<stop  offset="0" style="stop-color:#181817;stop-opacity:0.722"/>
		<stop  offset="1" style="stop-color:#363635;stop-opacity:0.816"/>
	</linearGradient>
	<path id="region-6-1" style="fill:url(#region-6-1_00000127760563584697483010000012806120792607139226_);" d="M181.9,79.6
		c-1.6,0.9-3.1,2.4-3.9,3.9c-0.6,1.1-0.7,3.5-0.7,13.7c0.1,11.8,0.1,12.4,1.1,14.2c2.7,4.8,8.5,5.8,12.7,2.3
		c2.6-2.2,2.8-3.2,2.8-15.4c0-6.1-0.2-11.9-0.5-12.9c-0.9-4-4-6.4-8-6.4C184,79,182.4,79.3,181.9,79.6z"/>
</g>
<g id="layer-7">
	
		<linearGradient id="region-7-1_00000041974310988165550330000001690385219943681692_" gradientUnits="userSpaceOnUse" x1="-2490.5115" y1="-144.1144" x2="-2490.0342" y2="-143.7712" gradientTransform="matrix(31.9029 0 0 -9 79631.4531 -1208)">
		<stop  offset="0" style="stop-color:#F3F3F3;stop-opacity:0"/>
		<stop  offset="1" style="stop-color:#FFFFFF;stop-opacity:6.700000e-02"/>
	</linearGradient>
	<path id="region-7-1" style="fill:url(#region-7-1_00000041974310988165550330000001690385219943681692_);" d="M178.3,86.1
		c-0.7,1.3-0.6,1.8,0.3,2.6c0.6,0.6,1.9,0.8,6.8,0.8s6.3-0.1,6.8-0.8c0.9-0.9,0.9-1.3,0.3-2.6c-0.5-0.8-1.1-0.9-7.1-0.9
		C179.4,85.2,178.8,85.3,178.3,86.1z"/>
	
		<linearGradient id="region-7-2_00000053540781536093670650000002971275650514767274_" gradientUnits="userSpaceOnUse" x1="-2490.4443" y1="-143.5417" x2="-2489.9773" y2="-142.918" gradientTransform="matrix(31.9029 0 0 -9 79631.4531 -1197)">
		<stop  offset="0" style="stop-color:#F2F2F2;stop-opacity:0"/>
		<stop  offset="1" style="stop-color:#FFFFFF;stop-opacity:6.800000e-02"/>
	</linearGradient>
	<path id="region-7-2" style="fill:url(#region-7-2_00000053540781536093670650000002971275650514767274_);" d="M178.3,91.3
		c-0.7,1.3-0.6,1.8,0.3,2.6c0.6,0.6,1.9,0.8,6.8,0.8s6.3-0.1,6.8-0.8c0.9-0.9,0.9-1.3,0.3-2.6c-0.5-0.8-1.1-0.9-7.1-0.9
		C179.4,90.4,178.8,90.5,178.3,91.3z"/>
	
		<linearGradient id="region-7-3_00000142163216711315742420000018220810671050808455_" gradientUnits="userSpaceOnUse" x1="-2490.5105" y1="-142.772" x2="-2490.0334" y2="-142.4239" gradientTransform="matrix(31.9029 0 0 -9 79631.4531 -1185)">
		<stop  offset="0" style="stop-color:#F1F1F1;stop-opacity:0"/>
		<stop  offset="1" style="stop-color:#FFFFFF;stop-opacity:7.200000e-02"/>
	</linearGradient>
	<path id="region-7-3" style="fill:url(#region-7-3_00000142163216711315742420000018220810671050808455_);" d="M178.3,97
		c-0.7,1.3-0.6,1.8,0.3,2.6c0.6,0.6,1.9,0.8,6.8,0.8s6.3-0.1,6.8-0.8c0.9-0.9,0.9-1.3,0.3-2.6c-0.5-0.8-1.1-0.9-7.1-0.9
		C179.4,96.1,178.8,96.2,178.3,97z"/>
	
		<linearGradient id="region-7-4_00000167371311029435405390000001123857421413044671_" gradientUnits="userSpaceOnUse" x1="-2490.397" y1="-142.2175" x2="-2489.9575" y2="-141.2849" gradientTransform="matrix(31.9029 0 0 -9 79632.4531 -1174)">
		<stop  offset="0" style="stop-color:#F3F3F3;stop-opacity:0"/>
		<stop  offset="1" style="stop-color:#FFFFFF;stop-opacity:6.900000e-02"/>
	</linearGradient>
	<path id="region-7-4" style="fill:url(#region-7-4_00000167371311029435405390000001123857421413044671_);" d="M178.8,102.2
		c-0.7,1.3-0.6,1.8,0.3,2.6c0.6,0.6,1.9,0.8,6.8,0.8s6.3-0.1,6.8-0.8c0.9-0.9,0.9-1.3,0.3-2.6c-0.5-0.8-1.1-0.9-7.1-0.9
		S179.3,101.4,178.8,102.2z"/>
	
		<linearGradient id="region-7-5_00000035508755308281363840000017842749531048067729_" gradientUnits="userSpaceOnUse" x1="-2490.4668" y1="-141.4927" x2="-2489.9983" y2="-140.8992" gradientTransform="matrix(31.9029 0 0 -9 79632.4531 -1162)">
		<stop  offset="0" style="stop-color:#F3F3F3;stop-opacity:0"/>
		<stop  offset="1" style="stop-color:#FFFFFF;stop-opacity:6.800000e-02"/>
	</linearGradient>
	<path id="region-7-5" style="fill:url(#region-7-5_00000035508755308281363840000017842749531048067729_);" d="M178.8,107.9
		c-0.7,1.3-0.6,1.8,0.3,2.6c0.6,0.6,1.9,0.8,6.8,0.8s6.3-0.1,6.8-0.8c0.9-0.9,0.9-1.3,0.3-2.6c-0.5-0.8-1.1-0.9-7.1-0.9
		S179.3,107.1,178.8,107.9z"/>
</g>
<linearGradient id="fc7c96f0-b6cc-4d56-aa3d-350486f6a5ae_00000172441283013505249980000011696269933550725250_" gradientUnits="userSpaceOnUse" x1="-3117.7104" y1="235.1438" x2="-3117.7104" y2="235.6139" gradientTransform="matrix(277.05 0 0 121.36 863948.3125 -28295.3281)">
	<stop  offset="0" style="stop-color:#2B2B2B;stop-opacity:9.000000e-02"/>
	<stop  offset="1" style="stop-color:#040000;stop-opacity:0"/>
</linearGradient>
<path id="fc7c96f0-b6cc-4d56-aa3d-350486f6a5ae" style="fill:url(#fc7c96f0-b6cc-4d56-aa3d-350486f6a5ae_00000172441283013505249980000011696269933550725250_);stroke:#000000;stroke-width:0.1;stroke-miterlimit:10;" d="
	M125.3,250.4c6.3,8.9,14.6,16.3,24.2,21.5c1.5,0.8,3.9,2.2,5.4,3.1c6.3,3.8,13.3,6.4,20.5,7.9c11.5,1.9,28.9,0.9,40-2.5
	c4.9-1.5,8.8-3.2,15.8-6.9c9-4.8,12-7.1,17.4-13.4c2.5-3,4.6-5.3,4.6-5.2c0,0.4-2.5,8.3-3.1,10.1c-1.9,4.7-4.2,9.1-7.1,13.3
	c-4.7,6.1-13.5,12.3-21.9,15.5c-6.8,2.6-19.7,5.4-19.7,4.3c0-0.2-1.6-1.1-3.5-2c-3.3-1.5-3.7-1.6-9.2-1.6c-6.1,0-7.6,0.4-11.9,2.9
	c-2.2,1.3-3.5,1.3-9.6,0.1c-18.7-3.8-31.7-12.6-38.5-26.1c-4-8.6-6.8-17.8-8.2-27.2l-0.3-2.1l1,1.9C121.7,245,123.6,248,125.3,250.4
	"/>
<g id="e82ff96f-fe41-410d-8824-07b88b1dec90">
	
		<linearGradient id="SVGID_00000058568526356159226760000001550052738935935679_" gradientUnits="userSpaceOnUse" x1="-3116.5571" y1="235.1626" x2="-3116.5571" y2="235.6225" gradientTransform="matrix(277.05 0 0 121.36 863948.3125 -28295.3281)">
		<stop  offset="0" style="stop-color:#2B2B2B;stop-opacity:9.000000e-02"/>
		<stop  offset="1" style="stop-color:#040000;stop-opacity:0"/>
	</linearGradient>
	<path style="fill:url(#SVGID_00000058568526356159226760000001550052738935935679_);" d="M444.9,251.7c6.3,8.9,14.6,16.3,24.1,21.5
		c1.5,0.8,3.9,2.2,5.5,3.1c6.3,3.8,13.3,6.4,20.5,7.9c11.5,1.9,28.9,0.9,39.9-2.5c4.9-1.5,8.8-3.2,15.8-6.9c9-4.8,12-7.1,17.4-13.4
		c2.5-3,4.6-5.3,4.6-5.2c0,0.4-2.4,8.3-3.1,10.1c-1.8,4.7-4.2,9.1-7.1,13.3c-4.7,6.1-13.5,12.3-21.9,15.5
		c-6.8,2.6-19.7,5.4-19.7,4.3c0-0.2-1.6-1.2-3.5-2c-3.4-1.5-3.7-1.6-9.3-1.6c-6.1,0-7.6,0.4-11.9,2.9c-2.2,1.3-3.5,1.3-9.6,0.1
		c-18.7-3.7-31.7-12.6-38.5-26.1c-4-8.6-6.8-17.8-8.2-27.2l-0.2-2.1l1,1.9C441.4,246.3,443.2,249.2,444.9,251.7"/>
	<path class="st20" d="M492.9,300.3c-1.4,0-3.3-0.3-6.4-0.9c-18.9-3.8-32-12.7-38.8-26.4c-4-8.7-6.8-17.9-8.2-27.4l-0.5-4.7l2.2,4.2
		c0.5,0.9,2.3,3.8,4.1,6.4c6.2,8.8,14.5,16.2,24,21.4c1.4,0.8,3.9,2.2,5.5,3.1c6.3,3.8,13.1,6.4,20.3,7.8
		c11.3,1.9,28.8,0.8,39.7-2.4c4.9-1.5,8.7-3.1,15.7-6.9c8.9-4.8,11.8-7,17.3-13.3c4.7-5.6,4.8-5.5,5.2-5.4l0.3,0.1v0.4
		c0,0.5-2.6,8.8-3.2,10.3c-1.8,4.7-4.2,9.2-7.1,13.4c-4.7,6.2-13.6,12.5-22.1,15.7c-5.8,2.2-18.7,5.3-20.1,4.4
		c-0.1-0.1-0.2-0.2-0.3-0.4c-0.3-0.3-1.5-1-3.2-1.7c-3.3-1.5-3.5-1.5-9.1-1.5c-6,0-7.4,0.3-11.6,2.8
		C495.4,299.9,494.4,300.3,492.9,300.3z M520.5,299.7L520.5,299.7L520.5,299.7z M520.4,299.5L520.4,299.5L520.4,299.5z M440.6,245.9
		c1.4,9.2,4.1,18.2,8,26.6c6.7,13.4,19.5,22.1,38.1,25.8c6.1,1.2,7.2,1.2,9.3,0c4.3-2.6,5.9-3,12.1-3c5.6,0,6.1,0.1,9.5,1.6
		c2.7,1.2,3.5,1.8,3.7,2.2c1.5,0.4,12.5-2,19.1-4.5c8.4-3.2,17.1-9.4,21.7-15.4c2.8-4.1,5.2-8.5,7-13.1c0.5-1.3,1.8-5.6,2.6-8.1
		c-0.8,0.9-2,2.2-3.2,3.7c-5.5,6.3-8.6,8.7-17.5,13.5c-7,3.8-10.9,5.4-15.9,6.9c-11,3.3-28.7,4.4-40.2,2.5c-7.3-1.5-14.3-4.1-20.7-8
		c-1.6-1-4-2.3-5.4-3.1c-9.6-5.3-18-12.8-24.3-21.7l0,0C442.9,249.7,441.3,247.1,440.6,245.9z"/>
</g>
<linearGradient id="f67d6cf3-a3f1-4a02-8e3b-7b7e5a15ec3c_00000138558078005557297720000003887677751268178828_" gradientUnits="userSpaceOnUse" x1="-3073.8779" y1="235.1643" x2="-3074.3579" y2="235.0643" gradientTransform="matrix(54.17 0 0 143.99 166547.7969 -33759.957)">
	<stop  offset="0" style="stop-color:#7C7C7C;stop-opacity:0.77"/>
	<stop  offset="1" style="stop-color:#555555;stop-opacity:0.83"/>
</linearGradient>
<path id="f67d6cf3-a3f1-4a02-8e3b-7b7e5a15ec3c" style="fill:url(#f67d6cf3-a3f1-4a02-8e3b-7b7e5a15ec3c_00000138558078005557297720000003887677751268178828_);" d="
	M26.8,62.4c3.1,2.7,6.8,11.5,7.9,19c1.4,10.1,1.6,14,0.8,21.1c-1,8.9-2.2,13.8-4.9,19.2c-2.4,4.8-3.9,6.1-6.9,6.1
	c-6.6,0-11.7-10.8-13.5-28.6C9.1,87.6,11.6,72,15.8,65.5c0.8-1.2,1.7-2.2,2.8-3.1C21,60.5,24.4,60.5,26.8,62.4"/>
<linearGradient id="bdaa4870-1cc4-44aa-a54c-691d09e891e3_00000085929225556288884170000003771948491828019330_" gradientUnits="userSpaceOnUse" x1="-3043.3442" y1="243.3258" x2="-3043.8242" y2="243.3858" gradientTransform="matrix(35.08 0 0 77.67 106816.9141 -18808.9902)">
	<stop  offset="0" style="stop-color:#333233;stop-opacity:0.81"/>
	<stop  offset="1" style="stop-color:#1A1A1A;stop-opacity:0.74"/>
</linearGradient>
<path id="bdaa4870-1cc4-44aa-a54c-691d09e891e3" style="fill:url(#bdaa4870-1cc4-44aa-a54c-691d09e891e3_00000085929225556288884170000003771948491828019330_);" d="
	M52.2,75.5c1.9,1.2,3.3,3.1,3.9,5.3c0.4,4.2,0.5,8.4,0.4,12.6c0,11.9-0.2,12.9-2.8,15.1c-3.5,3-8.8,2.7-11.9-0.8
	c-0.4-0.4-0.7-0.9-1-1.4c-1-1.8-1.1-2.4-1.1-14c-0.1-13,0-13.6,2.5-15.8c1.9-1.6,2.9-2,5.7-2C49.4,74.2,50.9,74.6,52.2,75.5"/>
<g id="b10f45b6-a1d8-41f1-9968-fdf4bfd3a68e">
	
		<linearGradient id="SVGID_00000062161509009323969200000010851307173124130984_" gradientUnits="userSpaceOnUse" x1="-3034.0027" y1="377.0001" x2="-3034.4827" y2="377.0601" gradientTransform="matrix(31.85 0 0 9.16 96709.5469 -3383.7)">
		<stop  offset="0" style="stop-color:#FFFFFF;stop-opacity:6.000000e-02"/>
		<stop  offset="1" style="stop-color:#F2F3F3;stop-opacity:0"/>
	</linearGradient>
	<path style="fill:url(#SVGID_00000062161509009323969200000010851307173124130984_);" d="M75.3,68.7c0.7,1.2,0.6,1.7-0.3,2.6
		c-1.1,1.1-12.7,1.1-13.9,0c-0.9-0.9-0.9-1.3-0.3-2.6c0.5-0.8,1.1-0.9,7.2-0.9S74.8,67.9,75.3,68.7"/>
	<path class="st20" d="M68.1,72.6c-3.3,0-6.6-0.3-7.3-0.9c-1-1-1.1-1.7-0.4-3.2c0.6-1.1,1.4-1.2,7.6-1.2s7,0,7.6,1.2l0,0
		c0.8,1.4,0.7,2.2-0.4,3.2C74.7,72.3,71.4,72.6,68.1,72.6z M68.1,68.3c-5.9,0-6.4,0.1-6.8,0.6c-0.6,1.1-0.5,1.3,0.2,1.9
		c1,0.9,12.2,0.9,13.2,0c0.7-0.6,0.8-0.9,0.2-1.9C74.5,68.4,74,68.3,68.1,68.3z"/>
</g>
<g id="fae66e95-65e7-43cd-944c-1d32f02a02d2">
	
		<linearGradient id="SVGID_00000107584428304563818100000009312507414242015920_" gradientUnits="userSpaceOnUse" x1="-3033.9692" y1="376.8779" x2="-3034.4492" y2="376.9979" gradientTransform="matrix(31.85 0 0 9.16 96709.5469 -3372.7)">
		<stop  offset="0" style="stop-color:#FFFFFF;stop-opacity:7.000000e-02"/>
		<stop  offset="1" style="stop-color:#F2F2F2;stop-opacity:0"/>
	</linearGradient>
	<path style="fill:url(#SVGID_00000107584428304563818100000009312507414242015920_);" d="M75.3,79c0.7,1.2,0.6,1.7-0.3,2.6
		c-1.1,1.1-12.7,1.1-13.9,0c-0.9-0.9-0.9-1.3-0.3-2.6c0.5-0.8,1.1-0.9,7.2-0.9S74.8,78.2,75.3,79"/>
	<path class="st20" d="M68.1,82.9c-3.3,0-6.6-0.3-7.3-0.9c-1-1-1.1-1.7-0.4-3.2c0.6-1.1,1.4-1.2,7.6-1.2s7,0,7.6,1.2l0,0
		c0.8,1.4,0.7,2.2-0.4,3.2C74.7,82.6,71.4,82.9,68.1,82.9z M68.1,78.6c-5.9,0-6.4,0.1-6.8,0.6c-0.6,1.1-0.5,1.3,0.2,1.9
		c1,0.9,12.2,0.9,13.2,0c0.7-0.6,0.8-0.9,0.2-1.9C74.5,78.7,74,78.6,68.1,78.6z"/>
</g>
<g id="e0cfb5a7-7cc5-4632-b2b8-ee7fd56c0e63">
	
		<linearGradient id="SVGID_00000053508889061467228600000008524244469676976034_" gradientUnits="userSpaceOnUse" x1="-3033.9956" y1="376.96" x2="-3034.4761" y2="377.03" gradientTransform="matrix(31.85 0 0 9.16 96709.5469 -3360.7)">
		<stop  offset="0" style="stop-color:#FFFFFF;stop-opacity:7.000000e-02"/>
		<stop  offset="1" style="stop-color:#F0F0F0;stop-opacity:0"/>
	</linearGradient>
	<path style="fill:url(#SVGID_00000053508889061467228600000008524244469676976034_);" d="M75.3,91.4c0.7,1.2,0.6,1.7-0.3,2.6
		c-1.1,1.1-12.7,1.1-13.9,0c-0.9-0.9-0.9-1.3-0.3-2.6c0.5-0.8,1.1-0.9,7.2-0.9S74.8,90.5,75.3,91.4"/>
	<path class="st20" d="M68.1,95.2c-3.3,0-6.6-0.3-7.3-0.9c-1-1-1.1-1.7-0.4-3.2c0.6-1.1,1.4-1.2,7.6-1.2s7,0,7.6,1.2l0,0
		c0.8,1.4,0.7,2.2-0.4,3.2C74.7,94.9,71.4,95.2,68.1,95.2z M68.1,91c-5.9,0-6.4,0.1-6.8,0.6c-0.6,1.1-0.5,1.3,0.2,1.9
		c1,0.9,12.2,0.9,13.2,0c0.7-0.6,0.8-0.9,0.2-1.9C74.5,91.1,74,91,68.1,91z"/>
</g>
<g id="b7567299-4e43-44e0-8541-1f67f7a1a830">
	
		<linearGradient id="SVGID_00000038405027017021142580000006581233507725593731_" gradientUnits="userSpaceOnUse" x1="-3033.624" y1="376.8575" x2="-3034.7942" y2="377.3375" gradientTransform="matrix(31.85 0 0 9.16 96710.5469 -3349.7)">
		<stop  offset="0" style="stop-color:#FFFFFF;stop-opacity:0.13"/>
		<stop  offset="1" style="stop-color:#EAEBEA;stop-opacity:0"/>
	</linearGradient>
	<path style="fill:url(#SVGID_00000038405027017021142580000006581233507725593731_);" d="M75.3,103.7c0.7,1.2,0.6,1.7-0.3,2.6
		c-1.1,1.1-12.7,1.1-13.9,0c-0.9-0.9-0.9-1.3-0.3-2.6c0.5-0.8,1.1-0.9,7.2-0.9S74.8,102.9,75.3,103.7"/>
	<path class="st20" d="M68.1,107.5c-3.3,0-6.6-0.3-7.3-0.9c-1-1-1.1-1.7-0.4-3.2c0.6-1.1,1.4-1.2,7.6-1.2s7,0,7.6,1.2l0,0
		c0.8,1.4,0.7,2.2-0.4,3.2C74.7,107.2,71.4,107.5,68.1,107.5z M68.1,103.3c-5.9,0-6.4,0.1-6.8,0.6c-0.6,1.1-0.5,1.3,0.2,1.9
		c1,0.9,12.2,0.9,13.2,0c0.7-0.6,0.8-0.9,0.2-1.9C74.5,103.4,74,103.3,68.1,103.3z"/>
</g>
<g id="a1eba78c-0ad8-432c-a0c5-69b12a9fc44f">
	
		<linearGradient id="SVGID_00000157305585129240082430000001654089552171175831_" gradientUnits="userSpaceOnUse" x1="-3034.0049" y1="376.9946" x2="-3034.4849" y2="377.105" gradientTransform="matrix(31.85 0 0 9.16 96710.5469 -3337.7)">
		<stop  offset="0" style="stop-color:#FFFFFF;stop-opacity:6.000000e-02"/>
		<stop  offset="1" style="stop-color:#F2F2F2;stop-opacity:0"/>
	</linearGradient>
	<path style="fill:url(#SVGID_00000157305585129240082430000001654089552171175831_);" d="M75.3,115c0.7,1.2,0.6,1.7-0.3,2.6
		c-1.1,1.1-12.7,1.1-13.9,0c-0.9-0.9-0.9-1.3-0.3-2.6c0.5-0.8,1.1-0.9,7.2-0.9S74.8,114.2,75.3,115"/>
	<path class="st20" d="M68.1,118.8c-3.3,0-6.6-0.3-7.3-0.9c-1-1-1.1-1.7-0.4-3.2c0.6-1.1,1.4-1.2,7.6-1.2s7,0,7.6,1.2l0,0
		c0.8,1.4,0.7,2.2-0.4,3.2C74.7,118.5,71.4,118.8,68.1,118.8z M68.1,114.6c-5.9,0-6.4,0.1-6.8,0.6c-0.6,1.1-0.5,1.3,0.2,1.9
		c1,0.9,12.2,0.9,13.2,0c0.7-0.6,0.8-0.9,0.2-1.9C74.5,114.7,74,114.6,68.1,114.6z"/>
</g>
<linearGradient id="region-2-2_00000039848469319599803860000007097738314004447883_" gradientUnits="userSpaceOnUse" x1="-2556.0349" y1="-20.1677" x2="-2556.0061" y2="-20.7325" gradientTransform="matrix(192.6382 0 0 -154.5021 492892.1875 -2947.5107)">
	<stop  offset="0" style="stop-color:#282828;stop-opacity:0.577"/>
	<stop  offset="1" style="stop-color:#777878;stop-opacity:0.888"/>
</linearGradient>
<path id="region-2-2_00000174563899994736160790000002708320843529771696_" style="fill:url(#region-2-2_00000039848469319599803860000007097738314004447883_);" d="
	M479.4,176.1c-0.3,6.1-0.6,9.3-1,10.8c-0.1,0.4-0.3,1.6-0.5,2.6c-0.4,2.7-2.8,11.8-4,15.1c-2.7,7.4-8.2,18.7-12.1,24.4
	c-0.7,0.9-1.2,2.1-1.2,2.5c0,0.7,4.4,3.6,8.8,5.8c5,2.5,17.9,6,22,6c0.8,0,2.2-0.5,3.2-1.1c4.2-2.6,5.7-2.9,11.7-2.9
	c5.5,0,5.8,0.1,9.1,1.6c1.8,0.9,3.4,1.8,3.4,2.1c0,1.1,12.8-1.8,19.5-4.4c4.2-1.7,12.8-6.5,13.5-7.6c0.1-0.3-0.6-1.6-1.6-2.9
	c-7.3-9.7-14.3-24.7-17.4-37.7c-0.7-2.7-1.4-7.7-1.8-11.2c-0.5-5.2-0.8-6.4-1.4-6.4c-0.4,0-2.6,0.4-5,0.8c-5.5,1-20.8,1.4-24.9,0.7
	c-9.1-1.5-11.5-2-14.7-2.9C479,169.5,479.7,168.9,479.4,176.1z"/>
<linearGradient id="region-1-1_00000111899170906586235720000014321045721714936459_" gradientUnits="userSpaceOnUse" x1="-3168.6277" y1="787.6925" x2="-3168.519" y2="788.2229" gradientTransform="matrix(294.0503 0 0 548.702 932087.125 -432188.875)">
	<stop  offset="0" style="stop-color:#747474;stop-opacity:0.993"/>
	<stop  offset="1" style="stop-color:#1A1A19;stop-opacity:0.993"/>
</linearGradient>
<path id="region-1-1_00000168828705210079120740000005622603581152599963_" style="fill:url(#region-1-1_00000111899170906586235720000014321045721714936459_);" d="
	M351.1,40.9c-14,1.7-22.9,4.4-29.7,9c-5.7,3.9-8.4,7.1-11.9,14c-4.8,9.6-7.9,20-9.8,32.4c-2.7,17.8-3.1,33.6-1.7,62.1
	c0.2,4.7,0.4,14,0.4,20.8c0,6.7,0.2,16.4,0.5,21.3c0.2,5,0.7,13.8,0.9,19.7c1.2,24.6,4.2,40,10.2,52.5c6.7,13.8,19.5,22.8,38,26.6
	c6.1,1.3,7.3,1.2,9.5-0.1c4.2-2.6,5.7-2.9,11.7-2.9c5.5,0,5.8,0.1,9.1,1.6c1.8,0.9,3.4,1.8,3.4,2.1c0,1.1,12.8-1.8,19.5-4.4
	c8.3-3.3,17-9.6,21.7-15.8c2.1-2.8,5.4-9.2,7-13.6c1.3-3.6,3.5-12.1,4-15.7c0.2-1.9,0.7-4.6,0.9-6c0.9-5.4,1.4-25.6,1.5-73.3
	c0.1-51.8,0-55.4-2-68.3c-3.1-19.3-6.6-30.9-13.3-43.1c-4.4-8-15.6-14.6-28-16.6c-2.7-0.4-5.8-0.9-7-1.2
	C377.3,40.2,361.8,39.7,351.1,40.9z"/>
<rect x="164.2" y="73" class="st30" width="40.8" height="48.4"/>
<g>
	<g>
		<line class="st31" x1="102.1" y1="89.9" x2="160.2" y2="89.9"/>
		<g>
			<polygon class="st32" points="80.2,89.9 111.1,100.5 103.8,89.9 111.1,79.4 			"/>
		</g>
	</g>
</g>
<rect x="143.8" y="258.3" class="st30" width="90.8" height="37"/>
<g>
	<g>
		<line class="st31" x1="281.8" y1="274" x2="241" y2="274"/>
		<g>
			<polygon class="st32" points="297.2,274 275.5,284.5 280.6,274 275.5,263.5 			"/>
		</g>
	</g>
</g>
</svg>
