<?xml version="1.0" encoding="utf-8"?>
<!-- Generator: Adobe Illustrator 26.5.0, SVG Export Plug-In . SVG Version: 6.00 Build 0)  -->
<svg version="1.1" id="图层_1" xmlns="http://www.w3.org/2000/svg" xmlns:xlink="http://www.w3.org/1999/xlink" x="0px" y="0px"
	 viewBox="0 0 1159.8 290" style="enable-background:new 0 0 1159.8 290;" xml:space="preserve">
<style type="text/css">
	.st0{fill:none;}
	.st1{fill:#D3D3D3;}
	.st2{clip-path:url(#SVGID_00000150085921650393172660000010320996685512783744_);}
	.st3{fill:url(#SVGID_00000104708030778432382410000006219520600300328887_);}
	.st4{fill:url(#SVGID_00000021812341868148814610000002592132356186628002_);}
	.st5{fill:url(#SVGID_00000102524567869384512450000004000835640557707695_);}
	.st6{fill:url(#SVGID_00000181805932989971274820000016477595825462789001_);}
	.st7{fill:url(#SVGID_00000147898730587410358170000000202940971732809913_);}
	.st8{fill:url(#SVGID_00000178200951611378813780000010462704077661494716_);}
	.st9{fill:url(#SVGID_00000056411523833522902540000007886241832117525667_);}
	.st10{fill:url(#SVGID_00000041995084381425497420000003203725783836389292_);}
	.st11{fill:url(#SVGID_00000022542001540553584080000010068531675936057513_);}
	.st12{fill:url(#SVGID_00000141415782841982420940000016644767687358853049_);}
	.st13{fill:url(#SVGID_00000002375688152648277010000015899626040495080834_);}
	.st14{fill:url(#SVGID_00000165934141328669722230000003239597470555815097_);}
	.st15{fill:url(#SVGID_00000087393095775655877470000017169168531619181746_);}
	.st16{fill:url(#SVGID_00000101803929759422663100000008463472581541039268_);}
	.st17{fill:url(#SVGID_00000065760671447756472750000015847719871581136034_);}
	.st18{fill:url(#SVGID_00000072251938983747387960000001775126752633472164_);}
	.st19{fill:url(#SVGID_00000016753526241813245180000007129354984293810088_);}
	.st20{fill:url(#SVGID_00000090265163822431849180000000718406545717445013_);}
	.st21{fill:url(#SVGID_00000080166388501543242740000014259478466488600504_);}
	.st22{fill:url(#SVGID_00000060715921530708667060000017865494941327696318_);}
	.st23{fill:url(#SVGID_00000036249979684895444490000004620510485432745650_);}
	.st24{fill:url(#SVGID_00000085234292516451930050000004140245728189599106_);}
	.st25{fill:url(#SVGID_00000056418712548143158080000013386384428017885599_);}
	.st26{fill:url(#SVGID_00000026873014470463135440000016363153905487397029_);}
	.st27{fill:url(#SVGID_00000150089745052168792360000014020965259292867254_);}
	.st28{fill:url(#SVGID_00000045595226028276546800000002193736249751298215_);}
	.st29{fill:url(#SVGID_00000163756995313683528070000009617152294584943755_);}
	.st30{fill:url(#SVGID_00000074412015563754185450000010984624244962989465_);}
	.st31{fill:url(#SVGID_00000042011477189150897640000003054656890584135832_);}
	.st32{fill:url(#SVGID_00000029738670578629430240000013608268885697860243_);}
	.st33{fill:url(#SVGID_00000093143610737295202820000007070785341952523930_);}
	.st34{fill:url(#SVGID_00000174576732342693251220000004297269002893378219_);}
	.st35{fill:url(#SVGID_00000134217139015587842020000014665316645893607358_);}
	.st36{fill:url(#SVGID_00000121263317056240151090000003790110659102172051_);}
	.st37{fill:url(#SVGID_00000069377053580899516080000006763977338241440171_);}
	.st38{fill:url(#SVGID_00000117656194817836664230000015640456915393277864_);}
	.st39{fill:url(#SVGID_00000016045129658259693710000015071617422992970905_);}
	.st40{fill:url(#SVGID_00000176756357392472669300000003452161959052782983_);}
	.st41{fill:url(#SVGID_00000000915424839605152600000012299323629345650058_);}
	.st42{fill:url(#SVGID_00000028290045932248573210000014542926314534451850_);}
	.st43{fill:url(#SVGID_00000057829853600485465420000002400864045671224197_);}
	.st44{fill:url(#SVGID_00000034082644749399257260000014852805973778553230_);}
	.st45{fill:url(#SVGID_00000036972257157876493700000004645649190490887810_);}
	.st46{fill:url(#SVGID_00000157292735978042701130000013741100623986863495_);}
	.st47{fill:url(#SVGID_00000090265411966875229580000012086951529001611694_);}
	.st48{fill:url(#SVGID_00000059275282413344345500000000319329851592908475_);}
	.st49{fill:url(#SVGID_00000031921347909556243050000011512219057551056831_);}
	.st50{fill:url(#SVGID_00000123437941912409499620000006310395831848788109_);}
	.st51{fill:url(#SVGID_00000161593114869288132740000006499852235944298639_);}
	.st52{fill:url(#SVGID_00000082352950984149158740000011593356720821802642_);}
	.st53{fill:url(#SVGID_00000038372674294053861900000007952917344259657658_);}
	.st54{fill:url(#SVGID_00000119826003731123377850000016088596507749616010_);}
	.st55{fill:url(#SVGID_00000182494356463834370620000001882391804382145209_);}
	.st56{fill:none;stroke:#FF0000;stroke-width:3;stroke-miterlimit:10;}
	.st57{fill:url(#SVGID_00000108303251416570840700000011505684914011392695_);}
	.st58{fill:url(#SVGID_00000018238653367465599000000001617668352974005909_);}
	.st59{fill:url(#SVGID_00000050629488867347967430000009227618264716306315_);}
	.st60{fill:url(#SVGID_00000175319128231990578240000013562757656510667197_);}
	.st61{fill:none;stroke:#000000;stroke-width:3;stroke-miterlimit:10;}
</style>
<pattern  y="290" width="40" height="40" patternUnits="userSpaceOnUse" id="SVGID_0000004560408715772455349" viewBox="0 -40 40 40" style="overflow:visible;">
	<g>
		<rect y="-40" class="st0" width="40" height="40"/>
		<g>
			<rect y="-40" class="st0" width="40" height="40"/>
			<g>
				<rect y="-40" class="st0" width="40" height="40"/>
				<g>
					<rect y="-40" class="st0" width="40" height="40"/>
					<g>
						<rect y="-40" class="st0" width="40" height="40"/>
						<g>
							<rect y="-40" class="st0" width="40" height="40"/>
							<g>
								<rect y="-40" class="st0" width="40" height="40"/>
								<g>
									<polygon class="st0" points="0,0 40,0 40,-40 0,-40 									"/>
									<polygon class="st1" points="0,-20 20,-20 20,-40 0,-40 									"/>
									<polygon class="st1" points="20,0 40,0 40,-20 20,-20 									"/>
								</g>
							</g>
						</g>
					</g>
				</g>
			</g>
		</g>
	</g>
</pattern>
<g id="_图层_3">
	<g>
		<g>
			<g>
				<defs>
					<rect id="SVGID_1_" width="1159.8" height="290"/>
				</defs>
				<clipPath id="SVGID_00000004508232730812585650000001489208192298286506_">
					<use xlink:href="#SVGID_1_"  style="overflow:visible;"/>
				</clipPath>
				<g style="clip-path:url(#SVGID_00000004508232730812585650000001489208192298286506_);">
					
						<pattern  id="SVGID_00000138560463826675634150000001743482861294144166_" xlink:href="#SVGID_0000004560408715772455349" patternTransform="matrix(1 0 0 1 78.5 17883.1094)">
					</pattern>
					<rect style="fill:url(#SVGID_00000138560463826675634150000001743482861294144166_);" width="1159.1" height="289.8"/>
				</g>
			</g>
		</g>
	</g>
</g>
<linearGradient id="SVGID_00000158031274749173146870000008715581784620206262_" gradientUnits="userSpaceOnUse" x1="-1745.412" y1="-37.4542" x2="-1744.4119" y2="-37.4542" gradientTransform="matrix(24.09 0 0 -41.5 42372.2812 -1527.0996)">
	<stop  offset="0" style="stop-color:#862236"/>
	<stop  offset="1" style="stop-color:#862236"/>
</linearGradient>
<path style="fill:url(#SVGID_00000158031274749173146870000008715581784620206262_);" d="M333.6,7.5c-0.3,0.9-0.9,6.5-1.2,12.5
	l-0.7,11h4.4c5.8,0,6.5,0.6,7.3,6.2l0.7,4.8h-4.4c-7.4,0-16.7,1.2-16.1,2.1c0.3,0.5,2.5,0.9,5,0.9c3.2,0,4.4,0.4,4.4,1.5
	c0,0.8,0.5,1.5,1,1.5c0.6,0,1-0.7,1-1.5c0-1.1,1.1-1.5,4.3-1.5c2.3,0,5.2-0.3,6.5-0.6c2.3-0.7,2.4-1.5,0.7-10
	c-0.5-2.2-4.3-4.4-7.5-4.4c-1.9,0-2-0.8-2-10.9c0-8-0.4-11.2-1.4-12C334.5,6.2,334.1,6.3,333.6,7.5L333.6,7.5z"/>
<linearGradient id="SVGID_00000018228778386212763800000004590975975396192686_" gradientUnits="userSpaceOnUse" x1="-1797.3909" y1="-38.4" x2="-1797.3909" y2="-39.4" gradientTransform="matrix(78.8 0 0 -40 141847.5 -1531)">
	<stop  offset="0" style="stop-color:#DF652F"/>
	<stop  offset="1" style="stop-color:#DF573B"/>
</linearGradient>
<path style="fill:url(#SVGID_00000018228778386212763800000004590975975396192686_);" d="M175,21.2c0,9-0.3,18-0.6,20l-0.7,3.8h10.6
	l-0.5-11.2l-0.5-11.1l4.2,10.6c2.3,5.9,4.4,10.9,4.7,11.2c0.2,0.3,2.3-4.1,4.6-9.7l4.1-10.3v9.7L201,44h12v-9.2c0-5,0.3-8.8,0.7-8.4
	s1.3,3.5,2,6.8c1.9,9.2,2,9.3,18.3,9.3c18.9,0,18.4,0.5,18.5-18.7c0-7.9-0.3-15.1-0.7-16.1c-0.7-1.5-2.5-1.7-17.7-1.7
	c-19,0-17.7-0.6-18.7,8.6c-0.4,3-1,5.4-1.4,5.4c-1,0-2-5.2-2-10.1V6h-13.6l-2.9,6l-2.9,6.1l-1.9-6.6l-2-6.5H175V21.2L175,21.2z"/>
<linearGradient id="SVGID_00000158019331719957799290000002164232375701760418_" gradientUnits="userSpaceOnUse" x1="-1707.1875" y1="-142.7727" x2="-1706.1875" y2="-142.7727" gradientTransform="matrix(16 0 0 -11 27543 -1544)">
	<stop  offset="0" style="stop-color:#FFFFFF"/>
	<stop  offset="1" style="stop-color:#FFFFFF"/>
</linearGradient>
<path style="fill:url(#SVGID_00000158019331719957799290000002164232375701760418_);" d="M229.3,21.7c-0.8,0.3-1.3,2.4-1.3,5.4V32h7
	c7.8,0,9-1,9-7.4V21l-6.7,0.1C233.5,21.1,229.9,21.4,229.3,21.7z"/>
<linearGradient id="SVGID_00000008130837301263941150000003104592217338885271_" gradientUnits="userSpaceOnUse" x1="-1754.9618" y1="-29.3102" x2="-1755.9718" y2="-30.3102" gradientTransform="matrix(28 0 0 -52 49576 -1425)">
	<stop  offset="0" style="stop-color:#8CABF1"/>
	<stop  offset="1" style="stop-color:#A0CBFA"/>
</linearGradient>
<path style="fill:url(#SVGID_00000008130837301263941150000003104592217338885271_);" d="M409,125v26h28V99h-28V125z"/>
<linearGradient id="SVGID_00000049918170800135478360000001597656730632580267_" gradientUnits="userSpaceOnUse" x1="-1655.4563" y1="-38.9" x2="-1654.4563" y2="-38.9" gradientTransform="matrix(11 0 0 -40 18634 -1433)">
	<stop  offset="0" style="stop-color:#521C3E"/>
	<stop  offset="1" style="stop-color:#521C3E"/>
</linearGradient>
<path style="fill:url(#SVGID_00000049918170800135478360000001597656730632580267_);" d="M424,123v20h11v-40h-11V123z"/>
<linearGradient id="SVGID_00000157279461344433665320000003394277718151114934_" gradientUnits="userSpaceOnUse" x1="-1755.3738" y1="-18.6345" x2="-1755.5338" y2="-19.6345" gradientTransform="matrix(28 0 0 -80 49268 -1294)">
	<stop  offset="0" style="stop-color:#8AAAF0"/>
	<stop  offset="1" style="stop-color:#A5D8FE"/>
</linearGradient>
<path style="fill:url(#SVGID_00000157279461344433665320000003394277718151114934_);" d="M101,242v40h28v-80h-28V242z"/>
<linearGradient id="SVGID_00000080922000509762997810000008692471709182757514_" gradientUnits="userSpaceOnUse" x1="-1655.4563" y1="-37.939" x2="-1654.4563" y2="-37.939" gradientTransform="matrix(11 0 0 -41 18314 -1329)">
	<stop  offset="0" style="stop-color:#521C3E"/>
	<stop  offset="1" style="stop-color:#521C3E"/>
</linearGradient>
<path style="fill:url(#SVGID_00000080922000509762997810000008692471709182757514_);" d="M104,226.5V247h11v-41h-11V226.5z"/>
<linearGradient id="SVGID_00000026881499699468581520000007879025864841794195_" gradientUnits="userSpaceOnUse" x1="-1655.4563" y1="-37.939" x2="-1654.4563" y2="-37.939" gradientTransform="matrix(11 0 0 -41 18326 -1329)">
	<stop  offset="0" style="stop-color:#521C3E"/>
	<stop  offset="1" style="stop-color:#521C3E"/>
</linearGradient>
<path style="fill:url(#SVGID_00000026881499699468581520000007879025864841794195_);" d="M116,226.5V247h11v-41h-11V226.5z"/>
<linearGradient id="SVGID_00000127751803668400820320000014234576593164800685_" gradientUnits="userSpaceOnUse" x1="-1758.2031" y1="-19.4494" x2="-1757.2031" y2="-19.4494" gradientTransform="matrix(29 0 0 -79 51397 -1294)">
	<stop  offset="0" style="stop-color:#9CC8F9"/>
	<stop  offset="1" style="stop-color:#9CC8F9"/>
</linearGradient>
<path style="fill:url(#SVGID_00000127751803668400820320000014234576593164800685_);" d="M409,242.5V282h29v-79h-29V242.5z"/>
<linearGradient id="SVGID_00000177471770213538987870000016525191218370545589_" gradientUnits="userSpaceOnUse" x1="-1655.4563" y1="-37.939" x2="-1654.4563" y2="-37.939" gradientTransform="matrix(11 0 0 -41 18635 -1329)">
	<stop  offset="0" style="stop-color:#521C3E"/>
	<stop  offset="1" style="stop-color:#521C3E"/>
</linearGradient>
<path style="fill:url(#SVGID_00000177471770213538987870000016525191218370545589_);" d="M425,226.5V247h11v-41h-11V226.5z"/>
<linearGradient id="SVGID_00000015321267566954163560000008532268295114901171_" gradientUnits="userSpaceOnUse" x1="-1719.6678" y1="-112.8677" x2="-1718.6676" y2="-112.8677" gradientTransform="matrix(17.97 0 0 -13.91 31129.9277 -1544.9706)">
	<stop  offset="0" style="stop-color:#862236"/>
	<stop  offset="1" style="stop-color:#862236"/>
</linearGradient>
<path style="fill:url(#SVGID_00000015321267566954163560000008532268295114901171_);" d="M227.2,19c-2.1,0.9-2.3,1.5-2,6.7
	c0.4,7.4,2.8,8.7,2.8,1.5c0-5.8,0.5-6.2,9.1-6.2c5.7,0,7.7-1.1,4.3-2.4C239.1,17.7,229.8,18,227.2,19L227.2,19z"/>
<linearGradient id="SVGID_00000067926464664092778170000005660474773110454686_" gradientUnits="userSpaceOnUse" x1="-1816.8163" y1="-18.0412" x2="-1815.8163" y2="-18.0412" gradientTransform="matrix(435 0 0 -85 790361 -1425)">
	<stop  offset="0" style="stop-color:#F05E22"/>
	<stop  offset="1" style="stop-color:#F05E22"/>
</linearGradient>
<path style="fill:url(#SVGID_00000067926464664092778170000005660474773110454686_);" d="M47.6,73.7C47.3,77.9,47,97,47,116.2V151
	h48V90h34v61h274V93h34v58l20.3-0.2l20.2-0.3l2.2-35c1.2-19.3,2.2-38.3,2.2-42.3L482,66H48.3L47.6,73.7z"/>
<linearGradient id="SVGID_00000150092232911609130090000010366861046043063456_" gradientUnits="userSpaceOnUse" x1="-1760.3" y1="-30.402" x2="-1759.3" y2="-30.402" gradientTransform="matrix(30 0 0 -51 53011 -1434)">
	<stop  offset="0" style="stop-color:#521C3E"/>
	<stop  offset="1" style="stop-color:#521C3E"/>
</linearGradient>
<path style="fill:url(#SVGID_00000150092232911609130090000010366861046043063456_);" d="M202,116.5V142h30V91h-30V116.5z"/>
<linearGradient id="SVGID_00000038387182192636098690000018361564109047604133_" gradientUnits="userSpaceOnUse" x1="-1767.4387" y1="-17.8256" x2="-1766.4387" y2="-17.8256" gradientTransform="matrix(34 0 0 -86 60188 -1294)">
	<stop  offset="0" style="stop-color:#AA2C41"/>
	<stop  offset="1" style="stop-color:#AA2C41"/>
</linearGradient>
<path style="fill:url(#SVGID_00000038387182192636098690000018361564109047604133_);" d="M95,239v43h6v-80h28v-6H95V239z"/>
<linearGradient id="SVGID_00000015326700680075091680000005391697438359104702_" gradientUnits="userSpaceOnUse" x1="-1797.2139" y1="-35.6485" x2="-1797.1638" y2="-36.6385" gradientTransform="matrix(78.1 0 0 -43 140665.0938 -1528)">
	<stop  offset="0" style="stop-color:#DF6430"/>
	<stop  offset="1" style="stop-color:#DF573A"/>
</linearGradient>
<path style="fill:url(#SVGID_00000015326700680075091680000005391697438359104702_);" d="M292,7.5c0,1.4-0.3,2.5-0.7,2.5
	c-1,0-16.7-2.7-20.4-3.5c-2.4-0.6-2.7-0.2-3.8,3.9c-0.6,2.5-1.1,4.7-1.1,5c0,0.2,1.3,0.7,3,1.1c1.6,0.4,3.2,1.1,3.5,1.5
	c0.3,0.5-0.6,6.6-2,13.5s-2.3,13.5-2,14.5c0.5,1.6,1.5,2,5,2c3.8,0,4.5-0.3,4.9-2.3c0.3-1.2,1.5-7.1,2.7-13
	c2.4-11.9,1.8-11.3,9.1-9.1c1.3,0.4,1.9-0.7,2.9-5.1c1.3-6,2.9-8.2,2.9-4.1S293.9,27,292.9,27c-0.5,0-0.9,3.9-0.9,8.6v8.7l12.7-0.7
	c7-0.4,12.9-0.8,13-1c0.2-0.1,0-2.4-0.4-5.1l-0.6-4.8l-6.9,0.7c-3.9,0.3-6.8,0.2-6.8-0.3s-0.3-1.6-0.6-2.4c-0.4-1.2,0.8-1.8,5-2.7
	l5.6-1.1V17h-6c-4.5,0-6-0.4-6-1.4c0-1.1,2.2-1.6,9.1-2.2c6.2-0.4,9.2-1.1,9.6-2c1.6-4.2,2.3,0.4,2.3,15.2v16.7l6.8-0.6
	c3.7-0.4,8.6-0.7,11-0.7h4.3l-0.7-4.8c-0.8-5.5-1.5-6.2-7.1-6.2H332v-5.8c0.1-3.1,0.5-8.8,1-12.7c0.5-3.8,0.7-7.2,0.4-7.4
	c-0.2-0.2-3.4,0-7.1,0.6c-3.9,0.6-7.2,0.7-7.8,0.2C318,5.4,311.8,5,304.8,5H292V7.5z"/>
<linearGradient id="SVGID_00000091011956396039767750000008677589281507252869_" gradientUnits="userSpaceOnUse" x1="-1754.9747" y1="-27.6391" x2="-1755.9247" y2="-28.6391" gradientTransform="matrix(28 0 0 -55 49268 -1425)">
	<stop  offset="0" style="stop-color:#89A9F0"/>
	<stop  offset="1" style="stop-color:#9DCAF9"/>
</linearGradient>
<path style="fill:url(#SVGID_00000091011956396039767750000008677589281507252869_);" d="M101,123.5V151h28V96h-28V123.5z"/>
<linearGradient id="SVGID_00000147913683040197377640000006064811987847090570_" gradientUnits="userSpaceOnUse" x1="-1655.4563" y1="-38.9" x2="-1654.4563" y2="-38.9" gradientTransform="matrix(11 0 0 -40 18314 -1436)">
	<stop  offset="0" style="stop-color:#521C3E"/>
	<stop  offset="1" style="stop-color:#521C3E"/>
</linearGradient>
<path style="fill:url(#SVGID_00000147913683040197377640000006064811987847090570_);" d="M104,120v20h11v-40h-11V120z"/>
<linearGradient id="SVGID_00000120533444399403192930000014254315987938401425_" gradientUnits="userSpaceOnUse" x1="-1799.0314" y1="-36.0007" x2="-1798.0314" y2="-36.0007" gradientTransform="matrix(82.88 0 0 -43.16 149275.9219 -1527.371)">
	<stop  offset="0" style="stop-color:#862236"/>
	<stop  offset="1" style="stop-color:#862236"/>
</linearGradient>
<path style="fill:url(#SVGID_00000120533444399403192930000014254315987938401425_);" d="M189,5.7c0,0.4,0.8,3.4,1.8,6.6l1.8,5.7
	l2.9-6l2.9-6H212v3.9c0,4.9,1,10.1,2,10.1c0.4,0,1-2.4,1.4-5.4c1-9.2-0.3-8.6,18.7-8.6c15.2,0,17,0.2,17.7,1.7
	c0.4,1,0.7,8.2,0.7,16.1c-0.1,19.2,0.4,18.7-18.5,18.7c-16.3,0-16.4-0.1-18.3-9.3c-0.7-3.3-1.6-6.4-2-6.8s-0.7,3.4-0.7,8.4V44h-12
	l-0.1-9.8v-9.7l-4.1,10.3c-2.3,5.6-4.4,10-4.6,9.7c-0.3-0.3-2.4-5.3-4.7-11.2l-4.2-10.6l0.5,11.1l0.5,11.2l-5.4,0.1h-5.4l3.5,1.3
	c1.9,0.7,5.2,1.1,7.3,0.8c3.6-0.4,3.7-0.5,3.8-4.6l0.1-4.1l1.1,3.5c1.3,4.5,1,4.2,4.1,3.4c1.7-0.4,3.4-2,4.6-4.3l1.9-3.6l0.1,3.7
	c0,3.5,0.2,3.7,3.8,4.4c2,0.4,4.3,1.2,5.1,1.8c1.1,0.8,1.5,0.8,1.8-0.1c0.3-0.8,1.4-1.1,2.9-0.7c2.2,0.6,2.4,0.3,2.4-2.6
	c0-2.5,0.3-3,1.3-2.2c0.7,0.6,5.2,1.6,10,2.3c6,0.8,8.7,1.6,8.7,2.6c0,0.7,0.5,1.3,1,1.3c0.6,0,1-0.6,1-1.4c0-0.9,2-1.5,6.7-1.9
	c4.3-0.4,7.7-1.4,9.3-2.6c2.5-1.8,2.5-1.9,2.3-17.7C256.1,3.8,257.6,5.1,233.9,5c-15.9,0-17.8,0.2-18.4,1.7c-0.6,1.7-0.7,1.7-1.6,0
	c-0.8-1.4-2.4-1.7-8.8-1.7h-7.8l-1.9,3.9l-1.9,4l-1-3.6C191.6,6.1,189,3.4,189,5.7L189,5.7z"/>
<linearGradient id="SVGID_00000144331041656167756010000018201778254529529475_" gradientUnits="userSpaceOnUse" x1="-1655.4563" y1="-37.939" x2="-1654.4563" y2="-37.939" gradientTransform="matrix(11 0 0 -41 18623 -1329)">
	<stop  offset="0" style="stop-color:#521C3E"/>
	<stop  offset="1" style="stop-color:#521C3E"/>
</linearGradient>
<path style="fill:url(#SVGID_00000144331041656167756010000018201778254529529475_);" d="M413,226.5V247h11v-41h-11V226.5z"/>
<linearGradient id="SVGID_00000054243833617149163550000012029562360641261960_" gradientUnits="userSpaceOnUse" x1="-1655.4563" y1="-38.9" x2="-1654.4563" y2="-38.9" gradientTransform="matrix(11 0 0 -40 18622 -1433)">
	<stop  offset="0" style="stop-color:#521C3E"/>
	<stop  offset="1" style="stop-color:#521C3E"/>
</linearGradient>
<path style="fill:url(#SVGID_00000054243833617149163550000012029562360641261960_);" d="M412,123v20h11v-40h-11V123z"/>
<linearGradient id="SVGID_00000153703143616598407170000015859693447188446104_" gradientUnits="userSpaceOnUse" x1="-1777.3569" y1="-43.6752" x2="-1776.3572" y2="-43.6752" gradientTransform="matrix(41.72 0 0 -35.73 74430.2891 -1530.3805)">
	<stop  offset="0" style="stop-color:#862236"/>
	<stop  offset="1" style="stop-color:#862236"/>
</linearGradient>
<path style="fill:url(#SVGID_00000153703143616598407170000015859693447188446104_);" d="M294.9,12.5c-0.4,0.5-1.2,3.4-1.9,6.3
	c-0.9,4.1-1.6,5.2-2.9,4.8c-7.2-2.2-6.6-2.8-9,9.1c-1.2,5.9-2.4,11.8-2.7,13c-0.3,1.6,0,2.3,1,2.3c1.5,0,2.1-1.6,5.6-15
	c1.3-5.2,2-6.5,3.6-6.5c1.7,0,1.9,0.9,2.2,9.1l0.3,9.1l3.7,0.7c2,0.3,5.1,0.6,6.9,0.6c1.7,0,3.4,0.6,3.7,1.2c0.5,1,0.7,1,1.2,0
	c0.4-0.8,2.8-1.2,7-1.2c4.9,0,6.6-3,5.2-9l-1.2-5.2l-6.8,0.4c-8.4,0.6-8.8-1.2-0.7-2.7c5.3-1,5.4-1.1,5.7-4.9
	c0.2-2.1-0.1-4.3-0.7-4.9s-1.1-1.9-1.1-2.9c0-1.3,0.8-1.8,3-1.8c1.8,0,3-0.5,3-1.3c0-1-1.5-1.1-6.7-0.6c-3.8,0.5-8,0.8-9.5,0.8
	c-1.8,0.1-2.8,0.6-2.8,1.6c0,1.2,1.3,1.5,6,1.5h6v9.9l-5.6,1.1c-4.2,0.9-5.4,1.5-5,2.7c0.3,0.8,0.6,1.9,0.6,2.4s2.9,0.6,6.8,0.3
	l6.9-0.7l0.6,4.8c0.4,2.7,0.6,5,0.4,5.1c-0.1,0.2-6,0.6-13,1L292,44.3v-8.7c0-4.7,0.4-8.6,0.9-8.6c1.2,0,3.4-10.1,2.9-13.2
	C295.6,12.5,295.2,11.9,294.9,12.5z"/>
<linearGradient id="SVGID_00000020394191368807951540000001401137182173831331_" gradientUnits="userSpaceOnUse" x1="-1816.2454" y1="-16.711" x2="-1816.2454" y2="-17.711" gradientTransform="matrix(428 0 0 -89 777614 -1294)">
	<stop  offset="0" style="stop-color:#F05E22"/>
	<stop  offset="1" style="stop-color:#FE7C32"/>
</linearGradient>
<path style="fill:url(#SVGID_00000020394191368807951540000001401137182173831331_);" d="M47,237.5V282h48v-86h34v86h274v-85h35v85
	h32v-3.8c0-2,1.1-21.9,2.5-44.2s2.5-40.6,2.5-40.8c0-0.1-96.3-0.2-214-0.2H47V237.5L47,237.5z"/>
<linearGradient id="SVGID_00000064346401770321987250000007306713750962725805_" gradientUnits="userSpaceOnUse" x1="-1794.3192" y1="-26.4812" x2="-1792.8792" y2="-26.9412" gradientTransform="matrix(68 0 0 -58 122174 -1320)">
	<stop  offset="0" style="stop-color:#EFAA90"/>
	<stop  offset="1" style="stop-color:#F3AF92"/>
</linearGradient>
<path style="fill:url(#SVGID_00000064346401770321987250000007306713750962725805_);" d="M167,227v29h68v-58h-68V227z"/>
<linearGradient id="SVGID_00000133518674483055284220000015820467215357201573_" gradientUnits="userSpaceOnUse" x1="-1755.9628" y1="-30.402" x2="-1754.9628" y2="-30.402" gradientTransform="matrix(28 0 0 -51 49337 -1324)">
	<stop  offset="0" style="stop-color:#521C3E"/>
	<stop  offset="1" style="stop-color:#521C3E"/>
</linearGradient>
<path style="fill:url(#SVGID_00000133518674483055284220000015820467215357201573_);" d="M170,226.5V252h28v-51h-28V226.5z"/>
<linearGradient id="SVGID_00000159430256197308096030000006017617690588320941_" gradientUnits="userSpaceOnUse" x1="-1758.2031" y1="-30.402" x2="-1757.2031" y2="-30.402" gradientTransform="matrix(29 0 0 -51 51275 -1324)">
	<stop  offset="0" style="stop-color:#521C3E"/>
	<stop  offset="1" style="stop-color:#521C3E"/>
</linearGradient>
<path style="fill:url(#SVGID_00000159430256197308096030000006017617690588320941_);" d="M287,226.5V252h29v-51h-29V226.5z"/>
<linearGradient id="SVGID_00000077286311694774308270000012136306224263326894_" gradientUnits="userSpaceOnUse" x1="-1758.2031" y1="-30.402" x2="-1757.2031" y2="-30.402" gradientTransform="matrix(29 0 0 -51 51158 -1434)">
	<stop  offset="0" style="stop-color:#521C3E"/>
	<stop  offset="1" style="stop-color:#521C3E"/>
</linearGradient>
<path style="fill:url(#SVGID_00000077286311694774308270000012136306224263326894_);" d="M170,116.5V142h29V91h-29V116.5z"/>
<linearGradient id="SVGID_00000050637026247411148100000004799147664484492209_" gradientUnits="userSpaceOnUse" x1="-1760.3" y1="-30.402" x2="-1759.3" y2="-30.402" gradientTransform="matrix(30 0 0 -51 53128 -1324)">
	<stop  offset="0" style="stop-color:#521C3E"/>
	<stop  offset="1" style="stop-color:#521C3E"/>
</linearGradient>
<path style="fill:url(#SVGID_00000050637026247411148100000004799147664484492209_);" d="M319,226.5V252h30v-51h-30V226.5z"/>
<linearGradient id="SVGID_00000138533624219469983760000017009928771683622290_" gradientUnits="userSpaceOnUse" x1="-1768.9742" y1="-18.0412" x2="-1767.9742" y2="-18.0412" gradientTransform="matrix(35 0 0 -85 62317 -1294)">
	<stop  offset="0" style="stop-color:#AA2C41"/>
	<stop  offset="1" style="stop-color:#AA2C41"/>
</linearGradient>
<path style="fill:url(#SVGID_00000138533624219469983760000017009928771683622290_);" d="M403,239.5V282h6v-79h29v-6h-35V239.5z"/>
<linearGradient id="SVGID_00000180329903065200701700000013100327082552352179_" gradientUnits="userSpaceOnUse" x1="-1760.3" y1="-30.402" x2="-1759.3" y2="-30.402" gradientTransform="matrix(30 0 0 -51 53011 -1324)">
	<stop  offset="0" style="stop-color:#521C3E"/>
	<stop  offset="1" style="stop-color:#521C3E"/>
</linearGradient>
<path style="fill:url(#SVGID_00000180329903065200701700000013100327082552352179_);" d="M202,226.5V252h30v-51h-30V226.5z"/>
<linearGradient id="SVGID_00000000200600645022956910000012227242222383757216_" gradientUnits="userSpaceOnUse" x1="-1758.2031" y1="-30.402" x2="-1757.2031" y2="-30.402" gradientTransform="matrix(29 0 0 -51 51275 -1434)">
	<stop  offset="0" style="stop-color:#521C3E"/>
	<stop  offset="1" style="stop-color:#521C3E"/>
</linearGradient>
<path style="fill:url(#SVGID_00000000200600645022956910000012227242222383757216_);" d="M287,116.5V142h29V91h-29V116.5z"/>
<linearGradient id="SVGID_00000054229919865025997480000010080940186736527240_" gradientUnits="userSpaceOnUse" x1="-1760.3" y1="-30.402" x2="-1759.3" y2="-30.402" gradientTransform="matrix(30 0 0 -51 53128 -1434)">
	<stop  offset="0" style="stop-color:#521C3E"/>
	<stop  offset="1" style="stop-color:#521C3E"/>
</linearGradient>
<path style="fill:url(#SVGID_00000054229919865025997480000010080940186736527240_);" d="M319,116.5V142h30V91h-30V116.5z"/>
<linearGradient id="SVGID_00000147185620649265824060000015286413703492816516_" gradientUnits="userSpaceOnUse" x1="-1757.6383" y1="-40.9737" x2="-1756.6382" y2="-40.9737" gradientTransform="matrix(28.74 0 0 -38 50821.8008 -1528)">
	<stop  offset="0" style="stop-color:#FFFFFF"/>
	<stop  offset="1" style="stop-color:#FFFFFF"/>
</linearGradient>
<path style="fill:url(#SVGID_00000147185620649265824060000015286413703492816516_);" d="M320,12.5c0,2.1-0.5,2.5-3,2.5
	c-2.2,0-3,0.5-3,1.8c0,1,0.5,2.3,1.1,2.9s0.9,2.8,0.7,4.9c-0.3,3.8-0.4,3.9-5.7,4.9c-8.1,1.5-7.7,3.3,0.7,2.7l6.8-0.4l1.2,5.2
	c1.4,6-0.4,9-5.3,9c-3.7,0-6.5,0.4-6.5,1s5,1,13,1c10.9,0,13-0.2,13-1.5c0-1.1-1.1-1.5-4.3-1.5c-2.4,0-4.8-0.5-5.5-1.2
	c-0.8-0.8-1.2-6.2-1.2-17.5c0-10.2-0.4-16.3-1-16.3C320.5,10,320,11.1,320,12.5L320,12.5z"/>
<linearGradient id="SVGID_00000177468336326372798560000003388928341163613091_" gradientUnits="userSpaceOnUse" x1="-1767.4387" y1="-26.6724" x2="-1766.4387" y2="-26.6724" gradientTransform="matrix(34 0 0 -58 60496 -1425)">
	<stop  offset="0" style="stop-color:#AA2C41"/>
	<stop  offset="1" style="stop-color:#AA2C41"/>
</linearGradient>
<path style="fill:url(#SVGID_00000177468336326372798560000003388928341163613091_);" d="M403,122v29h6V99h28v-6h-34V122z"/>
<linearGradient id="SVGID_00000105407794175191244430000009187248175212633990_" gradientUnits="userSpaceOnUse" x1="-1748.16" y1="-240.216" x2="-1747.16" y2="-240.216" gradientTransform="matrix(25 0 0 -6.55 43915 -1528.6901)">
	<stop  offset="0" style="stop-color:#FFFFFF"/>
	<stop  offset="1" style="stop-color:#FFFFFF"/>
</linearGradient>
<path style="fill:url(#SVGID_00000105407794175191244430000009187248175212633990_);" d="M216,44c0,2.9-0.2,3.2-2.5,2.6
	c-1.4-0.4-2.5-0.2-2.5,0.4s4.7,1,12.5,1c9.8,0,12.5-0.3,12.5-1.3s-2.7-1.8-8.7-2.6c-4.8-0.7-9.3-1.7-10-2.3
	C216.3,41,216,41.5,216,44z"/>
<linearGradient id="SVGID_00000078760351757649618480000000868518225317238944_" gradientUnits="userSpaceOnUse" x1="-1745.402" y1="-151.766" x2="-1744.4022" y2="-151.766" gradientTransform="matrix(24.09 0 0 -10.33 42227.9102 -1525.08)">
	<stop  offset="0" style="stop-color:#FDFCFC"/>
	<stop  offset="1" style="stop-color:#FDFCFC"/>
</linearGradient>
<path style="fill:url(#SVGID_00000078760351757649618480000000868518225317238944_);" d="M198.1,40.8c-1.2,2.9-4.3,5.2-7,5.2
	c-0.4,0-1.2-1.7-1.8-3.8l-1-3.7l-0.2,4.2c-0.1,3.9-0.3,4.2-3.3,4.6c-1.8,0.2,2.9,0.5,10.5,0.5c13.2,0.2,17.2-0.8,8.8-2.2
	c-3.7-0.6-4-0.8-4.3-4.4l-0.3-3.7C199.5,37.5,198.1,40.8,198.1,40.8z"/>
<linearGradient id="SVGID_00000152986379082978993670000011612248647283345537_" gradientUnits="userSpaceOnUse" x1="-1817.6169" y1="-28.7786" x2="-1816.6169" y2="-28.7786" gradientTransform="matrix(538.1 0 0 -53.85 978060.9375 -1496.651)">
	<stop  offset="0" style="stop-color:#FAB596"/>
	<stop  offset="1" style="stop-color:#FAB596"/>
</linearGradient>
<path style="fill:url(#SVGID_00000152986379082978993670000011612248647283345537_);" d="M286.5,27.2c-0.2,0.7-0.9,3.3-1.5,5.8
	s-1.8,6.9-2.6,9.7l-1.5,5.3H1.9l0.3,6.6l0.3,6.7l21,7.4c11.5,4,21.5,7.2,22.2,7.1c0.7-0.2-8.4-3.7-20.2-7.8L3.9,60.5l10.8-0.6
	c5.9-0.4,118.8-0.7,250.9-0.8l240-0.1l15.2,10.5C529.2,75.3,536.9,80,538,80c1.7,0,2-0.7,2-4.4v-4.5L525.3,59l-14.8-12.2l-102.7,0.5
	C350.2,47.5,305,47.4,305,46.9s-1.5-0.9-3.2-0.9c-1.8,0-5-0.3-7-0.6l-3.7-0.7l-0.3-9.1c-0.3-7.7-0.6-9.1-2.1-9.4
	C287.8,26,286.8,26.4,286.5,27.2L286.5,27.2z"/>
<linearGradient id="SVGID_00000066476087320950407020000005359358910483812741_" gradientUnits="userSpaceOnUse" x1="-1767.4387" y1="-25.3361" x2="-1766.4387" y2="-25.3361" gradientTransform="matrix(34 0 0 -61 60188 -1425)">
	<stop  offset="0" style="stop-color:#AA2C41"/>
	<stop  offset="1" style="stop-color:#AA2C41"/>
</linearGradient>
<path style="fill:url(#SVGID_00000066476087320950407020000005359358910483812741_);" d="M95,120.5V151h6V96h28v-6H95V120.5z"/>
<linearGradient id="SVGID_00000071550021986808934130000000409289454606163898_" gradientUnits="userSpaceOnUse" x1="-1655.4563" y1="-38.9" x2="-1654.4563" y2="-38.9" gradientTransform="matrix(11 0 0 -40 18326 -1436)">
	<stop  offset="0" style="stop-color:#521C3E"/>
	<stop  offset="1" style="stop-color:#521C3E"/>
</linearGradient>
<path style="fill:url(#SVGID_00000071550021986808934130000000409289454606163898_);" d="M116,120v20h11v-40h-11V120z"/>
<linearGradient id="SVGID_00000039821048822779247490000012723832687109513908_" gradientUnits="userSpaceOnUse" x1="-1817.0238" y1="-16.1312" x2="-1817.1039" y2="-14.7212" gradientTransform="matrix(531.5 0 0 -97.84 966044.375 -1422.2156)">
	<stop  offset="0" style="stop-color:#AC2C3E"/>
	<stop  offset="1" style="stop-color:#A22C49"/>
</linearGradient>
<path style="fill:url(#SVGID_00000039821048822779247490000012723832687109513908_);" d="M13.7,59.9l-9.8,0.6l21.8,7.6l21.8,7.6
	l0.3-4.8l0.3-4.9H482l-0.1,6.7c0,3.8-1,22.9-2.2,42.5l-2.2,35.8h12.6c11.4,0,12.7,0.2,13.1,1.8c0.4,1.3,2.3,2.1,7.3,3
	c3.7,0.7,6.8,1.2,7,1c0.1-0.2,1.2-15.4,2.4-33.8s2.4-35.6,2.7-38.2l0.6-4.7l6.1-0.3l6.1-0.3l-14.9-10.3L505.6,59l-241.1,0.2
	C132,59.3,19.1,59.6,13.7,59.9L13.7,59.9z"/>
<linearGradient id="SVGID_00000062171670858637680760000007018042335262392467_" gradientUnits="userSpaceOnUse" x1="-1816.6458" y1="-196" x2="-1816.6558" y2="-197.15" gradientTransform="matrix(473 0 0 -8 859542 -1417)">
	<stop  offset="0" style="stop-color:#F1AC90"/>
	<stop  offset="1" style="stop-color:#FFFFF2"/>
</linearGradient>
<path style="fill:url(#SVGID_00000062171670858637680760000007018042335262392467_);" d="M30,155v4h473v-8H30V155z"/>
<linearGradient id="SVGID_00000172411278089887011270000001109902780653113245_" gradientUnits="userSpaceOnUse" x1="-1760.0349" y1="-38.2223" x2="-1759.0349" y2="-38.2223" gradientTransform="matrix(29.87 0 0 -40.7 53075.1211 -1380.9987)">
	<stop  offset="0" style="stop-color:#C5585B"/>
	<stop  offset="1" style="stop-color:#C5585B"/>
</linearGradient>
<path style="fill:url(#SVGID_00000172411278089887011270000001109902780653113245_);" d="M503,174.6V195h13.5
	c10.1,0,13.5-0.3,13.5-1.3c0-0.6,0.7-7.3,1.5-14.7c2.2-20.7,4-18-13.5-21.6l-15-3.1V174.6L503,174.6z"/>
<linearGradient id="SVGID_00000072999508821172051610000011809932895197338028_" gradientUnits="userSpaceOnUse" x1="-1780.2852" y1="-17.3482" x2="-1779.2852" y2="-17.3482" gradientTransform="matrix(44.72 0 0 -88.3 80086.2734 -1293.9987)">
	<stop  offset="0" style="stop-color:#AA2C41"/>
	<stop  offset="1" style="stop-color:#AA2C41"/>
</linearGradient>
<path style="fill:url(#SVGID_00000072999508821172051610000011809932895197338028_);" d="M474.6,201.1c-0.9,10.4-4.6,72.6-4.6,77.1
	v3.8h38.9l0.5-3.3c0.8-5.3,5.7-82.9,5.3-83.4c-0.3-0.2-9.3-0.7-20-1l-19.5-0.6L474.6,201.1z"/>
<linearGradient id="SVGID_00000103257548951449338300000013232451635831421583_" gradientUnits="userSpaceOnUse" x1="-1817.1462" y1="-44.1459" x2="-1816.1462" y2="-44.1459" gradientTransform="matrix(473 0 0 -35.3 859542 -1381.7006)">
	<stop  offset="0" style="stop-color:#F9B495"/>
	<stop  offset="1" style="stop-color:#F9B495"/>
</linearGradient>
<path style="fill:url(#SVGID_00000103257548951449338300000013232451635831421583_);" d="M30,176v17h215.3
	c118.5,0,224.9,0.3,236.5,0.7l21.2,0.6V159H30V176z"/>
<linearGradient id="SVGID_00000123416699845841189410000008089207986319222667_" gradientUnits="userSpaceOnUse" x1="-1794.2986" y1="-26.278" x2="-1793.0386" y2="-27.1379" gradientTransform="matrix(68 0 0 -58 122174 -1430)">
	<stop  offset="0" style="stop-color:#FFFFFF;stop-opacity:0.53"/>
	<stop  offset="1" style="stop-color:#FFFFFF;stop-opacity:0.53"/>
</linearGradient>
<path style="fill:url(#SVGID_00000123416699845841189410000008089207986319222667_);" d="M167,117v29h68V88h-68V117z M199,116.5V142
	h-29V91h29V116.5z M232,116.5V142h-30V91h30V116.5z"/>
<linearGradient id="SVGID_00000013891591330938669250000006653779216682371487_" gradientUnits="userSpaceOnUse" x1="-1793.7155" y1="-27.1793" x2="-1793.7255" y2="-26.1793" gradientTransform="matrix(68 0 0 -58 122291 -1320)">
	<stop  offset="0" style="stop-color:#FFFFFF;stop-opacity:0.49"/>
	<stop  offset="1" style="stop-color:#FFFFFF;stop-opacity:0.53"/>
</linearGradient>
<path style="fill:url(#SVGID_00000013891591330938669250000006653779216682371487_);" d="M284,227v29h68v-58h-68V227z M316,226.5
	V252h-29v-51h29V226.5z M349,226.5V252h-30v-51h30V226.5z"/>
<linearGradient id="SVGID_00000008120993702191785940000013373704316472747648_" gradientUnits="userSpaceOnUse" x1="-1794.2209" y1="-27.1677" x2="-1793.2209" y2="-26.1778" gradientTransform="matrix(68 0 0 -58 122291 -1430)">
	<stop  offset="0" style="stop-color:#FFFFFF;stop-opacity:0.53"/>
	<stop  offset="1" style="stop-color:#FFFFFF;stop-opacity:0.53"/>
</linearGradient>
<path style="fill:url(#SVGID_00000008120993702191785940000013373704316472747648_);" d="M284,117v29h68V88h-68V117z M316,116.5V142
	h-29V91h29V116.5z M349,116.5V142h-30V91h30V116.5z"/>
<linearGradient id="SVGID_00000127729200944038424540000011202171441561898898_" gradientUnits="userSpaceOnUse" x1="-1743.6823" y1="-71.1262" x2="-1743.6823" y2="-72.1262" gradientTransform="matrix(23.7 0 0 -21.85 41618.4219 -1528.6498)">
	<stop  offset="0" style="stop-color:#FFFFFF"/>
	<stop  offset="1" style="stop-color:#FFFFFF"/>
</linearGradient>
<path style="fill:url(#SVGID_00000127729200944038424540000011202171441561898898_);" d="M286.6,27.2c-0.3,0.7-1.4,4.9-2.6,9.3
	c-1.1,4.4-2.3,8.8-2.6,9.7c-0.5,1.6,0.5,1.8,11.5,1.8c7.4,0,12.1-0.4,12.1-1s-1.5-1-3.2-1c-1.8,0-5-0.3-7-0.6l-3.7-0.7l-0.3-9.1
	c-0.3-7.7-0.6-9.1-2.1-9.4C287.8,26,286.8,26.4,286.6,27.2L286.6,27.2z"/>
<linearGradient id="SVGID_00000068663716203052883420000001988144192322954895_" gradientUnits="userSpaceOnUse" x1="-1734.0524" y1="-17.2845" x2="-1734.2123" y2="-18.2845" gradientTransform="matrix(28 0 0 -80 49268 -1294)">
	<stop  offset="0" style="stop-color:#8AAAF0"/>
	<stop  offset="1" style="stop-color:#A5D8FE"/>
</linearGradient>
<path style="fill:url(#SVGID_00000068663716203052883420000001988144192322954895_);" d="M698,134v40h28V94h-28V134L698,134z"/>
<linearGradient id="SVGID_00000031924892795726448970000011303483020925452218_" gradientUnits="userSpaceOnUse" x1="-1737.8448" y1="-18.1519" x2="-1736.8448" y2="-18.1519" gradientTransform="matrix(29 0 0 -79 51397 -1294)">
	<stop  offset="0" style="stop-color:#9CC8F9"/>
	<stop  offset="1" style="stop-color:#9CC8F9"/>
</linearGradient>
<path style="fill:url(#SVGID_00000031924892795726448970000011303483020925452218_);" d="M999.5,140v39.5h29v-79h-29V140z"/>
<linearGradient id="SVGID_00000136400522885952282520000006384213898367298470_" gradientUnits="userSpaceOnUse" x1="-1750.2076" y1="-16.4826" x2="-1749.2076" y2="-16.4826" gradientTransform="matrix(34 0 0 -86 60188 -1294)">
	<stop  offset="0" style="stop-color:#AA2C41"/>
	<stop  offset="1" style="stop-color:#AA2C41"/>
</linearGradient>
<path style="fill:url(#SVGID_00000136400522885952282520000006384213898367298470_);" d="M681,123.5v43h6v-80h28v-6h-34V123.5z"/>
<linearGradient id="SVGID_00000147194531874122653650000001492034799688099731_" gradientUnits="userSpaceOnUse" x1="-1814.8561" y1="-16.741" x2="-1814.8561" y2="-17.741" gradientTransform="matrix(428 0 0 -89 777614 -1294)">
	<stop  offset="0" style="stop-color:#F05E22"/>
	<stop  offset="1" style="stop-color:#FE7C32"/>
</linearGradient>
<path style="fill:url(#SVGID_00000147194531874122653650000001492034799688099731_);" d="M641.6,240.1v44.5h48v-86h34v86h274v-85h35
	v85h32v-3.8c0-2,1.1-21.9,2.5-44.2s2.5-40.6,2.5-40.8c0-0.1-96.3-0.2-214-0.2h-214V240.1L641.6,240.1z"/>
<linearGradient id="SVGID_00000137826761033950887830000017853270857411486367_" gradientUnits="userSpaceOnUse" x1="-1752.4286" y1="-16.6941" x2="-1751.4286" y2="-16.6941" gradientTransform="matrix(35 0 0 -85 62317 -1294)">
	<stop  offset="0" style="stop-color:#AA2C41"/>
	<stop  offset="1" style="stop-color:#AA2C41"/>
</linearGradient>
<path style="fill:url(#SVGID_00000137826761033950887830000017853270857411486367_);" d="M982,125v42.5h6v-79h29v-6h-35V125L982,125
	z"/>
<rect x="93.1" y="188.9" class="st56" width="39.4" height="98.3"/>
<rect x="396.6" y="188.9" class="st56" width="45.7" height="98.3"/>
<linearGradient id="SVGID_00000055694753345891276640000013715256665711633036_" gradientUnits="userSpaceOnUse" x1="-1598.0018" y1="-35.3537" x2="-1597.0018" y2="-35.3537" gradientTransform="matrix(11 0 0 -41 18314 -1329)">
	<stop  offset="0" style="stop-color:#521C3E"/>
	<stop  offset="1" style="stop-color:#521C3E"/>
</linearGradient>
<path style="fill:url(#SVGID_00000055694753345891276640000013715256665711633036_);" d="M736,120.5V141h11v-41h-11V120.5z"/>
<linearGradient id="SVGID_00000182502041099803114350000009809729040261427848_" gradientUnits="userSpaceOnUse" x1="-1597.5472" y1="-35.3537" x2="-1596.5472" y2="-35.3537" gradientTransform="matrix(11 0 0 -41 18326 -1329)">
	<stop  offset="0" style="stop-color:#521C3E"/>
	<stop  offset="1" style="stop-color:#521C3E"/>
</linearGradient>
<path style="fill:url(#SVGID_00000182502041099803114350000009809729040261427848_);" d="M753,120.5V141h11v-41h-11V120.5z"/>
<linearGradient id="SVGID_00000025416132951757467530000008446810095822789773_" gradientUnits="userSpaceOnUse" x1="-1570.22" y1="-35.4634" x2="-1569.22" y2="-35.4634" gradientTransform="matrix(11 0 0 -41 18314 -1329)">
	<stop  offset="0" style="stop-color:#521C3E"/>
	<stop  offset="1" style="stop-color:#521C3E"/>
</linearGradient>
<path style="fill:url(#SVGID_00000025416132951757467530000008446810095822789773_);" d="M1041.6,125v20.5h11v-41h-11V125z"/>
<linearGradient id="SVGID_00000063629795412111172850000000576829027576501178_" gradientUnits="userSpaceOnUse" x1="-1569.7654" y1="-35.4634" x2="-1568.7654" y2="-35.4634" gradientTransform="matrix(11 0 0 -41 18326 -1329)">
	<stop  offset="0" style="stop-color:#521C3E"/>
	<stop  offset="1" style="stop-color:#521C3E"/>
</linearGradient>
<path style="fill:url(#SVGID_00000063629795412111172850000000576829027576501178_);" d="M1058.6,125v20.5h11v-41h-11V125z"/>
<g>
	<line class="st61" x1="554.9" y1="188.9" x2="601.4" y2="188.9"/>
	<path d="M619.5,188.9c-8.5,3.2-19.1,8.6-25.6,14.3l5.2-14.3l-5.2-14.3C600.4,180.4,611,185.8,619.5,188.9z"/>
</g>
</svg>
