<?xml version="1.0" standalone="no"?><!DOCTYPE svg PUBLIC "-//W3C//DTD SVG 20010904//EN" "http://www.w3.org/TR/2001/REC-SVG-20010904/DTD/svg10.dtd"><svg version="1.0" xmlns="http://www.w3.org/2000/svg" width="1452pt" height="737pt" viewBox="0 0 1452 737" preserveAspectRatio="xMidYMid meet"><defs><linearGradient id="linear-gradient-1-1" x1="0.00%" y1="100.00%" x2="157.73%" y2="47.79%"><stop offset="0%" style="stop-color:rgb(163,14,21);stop-opacity:1.000" /><stop offset="100%" style="stop-color:rgb(157,122,128);stop-opacity:1.000" /></linearGradient><linearGradient id="linear-gradient-1-2" x1="0.00%" y1="100.00%" x2="0.00%" y2="-0.00%"><stop offset="0%" style="stop-color:rgb(125,56,35);stop-opacity:0.995" /><stop offset="100%" style="stop-color:rgb(88,38,40);stop-opacity:0.995" /></linearGradient><linearGradient id="linear-gradient-1-3" x1="0.00%" y1="100.00%" x2="95.87%" y2="-0.20%"><stop offset="0%" style="stop-color:rgb(42,110,114);stop-opacity:0.992" /><stop offset="100%" style="stop-color:rgb(35,110,111);stop-opacity:0.992" /></linearGradient><linearGradient id="linear-gradient-1-4" x1="0.00%" y1="100.00%" x2="144.73%" y2="4.92%"><stop offset="0%" style="stop-color:rgb(33,30,31);stop-opacity:0.996" /><stop offset="100%" style="stop-color:rgb(33,30,31);stop-opacity:0.996" /></linearGradient><linearGradient id="linear-gradient-1-5" x1="0.00%" y1="100.00%" x2="101.45%" y2="0.32%"><stop offset="0%" style="stop-color:rgb(74,47,52);stop-opacity:0.993" /><stop offset="100%" style="stop-color:rgb(64,31,42);stop-opacity:0.995" /></linearGradient><linearGradient id="linear-gradient-1-6" x1="0.00%" y1="100.00%" x2="82.81%" y2="-39.67%"><stop offset="0%" style="stop-color:rgb(172,205,197);stop-opacity:0.992" /><stop offset="100%" style="stop-color:rgb(138,214,201);stop-opacity:1.000" /></linearGradient><linearGradient id="linear-gradient-1-7" x1="0.00%" y1="100.00%" x2="109.81%" y2="45.92%"><stop offset="0%" style="stop-color:rgb(223,90,92);stop-opacity:0.998" /><stop offset="100%" style="stop-color:rgb(235,142,140);stop-opacity:0.998" /></linearGradient><linearGradient id="linear-gradient-1-8" x1="0.00%" y1="100.00%" x2="268.02%" y2="82.03%"><stop offset="0%" style="stop-color:rgb(36,110,112);stop-opacity:1.000" /><stop offset="100%" style="stop-color:rgb(40,111,113);stop-opacity:1.000" /></linearGradient><linearGradient id="linear-gradient-1-9" x1="0.00%" y1="100.00%" x2="152.25%" y2="15.70%"><stop offset="0%" style="stop-color:rgb(96,98,99);stop-opacity:0.996" /><stop offset="100%" style="stop-color:rgb(96,98,99);stop-opacity:0.998" /></linearGradient><linearGradient id="linear-gradient-1-10" x1="0.00%" y1="0.00%" x2="129.45%" y2="6.84%"><stop offset="0%" style="stop-color:rgb(78,79,81);stop-opacity:0.999" /><stop offset="100%" style="stop-color:rgb(106,108,109);stop-opacity:0.999" /></linearGradient><linearGradient id="linear-gradient-1-11" x1="0.00%" y1="100.00%" x2="95.52%" y2="-2.23%"><stop offset="0%" style="stop-color:rgb(96,98,99);stop-opacity:0.998" /><stop offset="100%" style="stop-color:rgb(97,99,100);stop-opacity:1.000" /></linearGradient><linearGradient id="linear-gradient-1-12" x1="0.00%" y1="100.00%" x2="68.41%" y2="-11.46%"><stop offset="0%" style="stop-color:rgb(96,98,99);stop-opacity:0.997" /><stop offset="100%" style="stop-color:rgb(96,98,99);stop-opacity:0.999" /></linearGradient><linearGradient id="linear-gradient-2-1" x1="0.00%" y1="100.00%" x2="159.30%" y2="48.39%"><stop offset="0%" style="stop-color:rgb(240,88,97);stop-opacity:0.843" /><stop offset="100%" style="stop-color:rgb(230,37,47);stop-opacity:0.738" /></linearGradient><linearGradient id="linear-gradient-2-2" x1="0.00%" y1="100.00%" x2="97.55%" y2="-0.82%"><stop offset="0%" style="stop-color:rgb(167,93,48);stop-opacity:0.807" /><stop offset="100%" style="stop-color:rgb(197,122,60);stop-opacity:0.745" /></linearGradient><linearGradient id="linear-gradient-2-3" x1="0.00%" y1="100.00%" x2="307.57%" y2="39.67%"><stop offset="0%" style="stop-color:rgb(110,223,186);stop-opacity:0.626" /><stop offset="100%" style="stop-color:rgb(117,227,190);stop-opacity:0.608" /></linearGradient><linearGradient id="linear-gradient-2-4" x1="0.00%" y1="100.00%" x2="0.00%" y2="0.00%"><stop offset="0%" style="stop-color:rgb(237,65,74);stop-opacity:0.768" /><stop offset="100%" style="stop-color:rgb(255,70,78);stop-opacity:0.809" /></linearGradient><linearGradient id="linear-gradient-2-5" x1="0.00%" y1="100.00%" x2="137.08%" y2="75.56%"><stop offset="0%" style="stop-color:rgb(39,16,24);stop-opacity:0.610" /><stop offset="100%" style="stop-color:rgb(20,0,5);stop-opacity:0.684" /></linearGradient><linearGradient id="linear-gradient-2-6" x1="0.00%" y1="100.00%" x2="45.53%" y2="-6.03%"><stop offset="0%" style="stop-color:rgb(0,22,12);stop-opacity:0.834" /><stop offset="100%" style="stop-color:rgb(0,22,12);stop-opacity:0.840" /></linearGradient><linearGradient id="linear-gradient-2-7" x1="0.00%" y1="100.00%" x2="61.51%" y2="-32.84%"><stop offset="0%" style="stop-color:rgb(244,250,252);stop-opacity:0.801" /><stop offset="100%" style="stop-color:rgb(247,249,252);stop-opacity:0.798" /></linearGradient><linearGradient id="linear-gradient-2-8" x1="0.00%" y1="100.00%" x2="157.48%" y2="33.25%"><stop offset="0%" style="stop-color:rgb(242,0,15);stop-opacity:0.687" /><stop offset="100%" style="stop-color:rgb(239,15,30);stop-opacity:0.754" /></linearGradient><linearGradient id="linear-gradient-2-9" x1="0.00%" y1="100.00%" x2="46.75%" y2="-6.05%"><stop offset="0%" style="stop-color:rgb(0,21,11);stop-opacity:0.834" /><stop offset="100%" style="stop-color:rgb(0,22,12);stop-opacity:0.839" /></linearGradient><linearGradient id="linear-gradient-2-10" x1="0.00%" y1="100.00%" x2="90.87%" y2="-2.09%"><stop offset="0%" style="stop-color:rgb(251,177,201);stop-opacity:0.339" /><stop offset="100%" style="stop-color:rgb(253,178,202);stop-opacity:0.342" /></linearGradient><linearGradient id="linear-gradient-2-11" x1="0.00%" y1="0.00%" x2="7.77%" y2="252.02%"><stop offset="0%" style="stop-color:rgb(230,0,0);stop-opacity:0.923" /><stop offset="100%" style="stop-color:rgb(216,41,50);stop-opacity:0.639" /></linearGradient><linearGradient id="linear-gradient-2-12" x1="0.00%" y1="100.00%" x2="28.59%" y2="-38.44%"><stop offset="0%" style="stop-color:rgb(116,10,37);stop-opacity:0.703" /><stop offset="100%" style="stop-color:rgb(126,7,32);stop-opacity:0.805" /></linearGradient><linearGradient id="linear-gradient-2-13" x1="0.00%" y1="100.00%" x2="376.54%" y2="50.27%"><stop offset="0%" style="stop-color:rgb(110,216,183);stop-opacity:0.673" /><stop offset="100%" style="stop-color:rgb(109,218,184);stop-opacity:0.659" /></linearGradient><linearGradient id="linear-gradient-2-14" x1="0.00%" y1="100.00%" x2="244.05%" y2="57.03%"><stop offset="0%" style="stop-color:rgb(136,140,146);stop-opacity:0.699" /><stop offset="100%" style="stop-color:rgb(186,193,202);stop-opacity:0.815" /></linearGradient><linearGradient id="linear-gradient-2-15" x1="0.00%" y1="100.00%" x2="147.40%" y2="11.86%"><stop offset="0%" style="stop-color:rgb(45,70,74);stop-opacity:0.342" /><stop offset="100%" style="stop-color:rgb(54,75,78);stop-opacity:0.423" /></linearGradient><linearGradient id="linear-gradient-2-16" x1="0.00%" y1="100.00%" x2="59.32%" y2="-5.87%"><stop offset="0%" style="stop-color:rgb(0,21,11);stop-opacity:0.831" /><stop offset="100%" style="stop-color:rgb(0,21,11);stop-opacity:0.836" /></linearGradient><linearGradient id="linear-gradient-2-17" x1="0.00%" y1="100.00%" x2="0.00%" y2="0.00%"><stop offset="0%" style="stop-color:rgb(145,149,156);stop-opacity:0.804" /><stop offset="100%" style="stop-color:rgb(170,177,184);stop-opacity:0.777" /></linearGradient><linearGradient id="linear-gradient-2-18" x1="0.00%" y1="100.00%" x2="93.97%" y2="-0.84%"><stop offset="0%" style="stop-color:rgb(74,86,88);stop-opacity:0.773" /><stop offset="100%" style="stop-color:rgb(75,87,89);stop-opacity:0.806" /></linearGradient><linearGradient id="linear-gradient-2-19" x1="0.00%" y1="100.00%" x2="101.79%" y2="0.92%"><stop offset="0%" style="stop-color:rgb(61,79,82);stop-opacity:0.500" /><stop offset="100%" style="stop-color:rgb(65,81,84);stop-opacity:0.574" /></linearGradient><linearGradient id="linear-gradient-2-20" x1="0.00%" y1="100.00%" x2="65.15%" y2="-5.54%"><stop offset="0%" style="stop-color:rgb(0,20,11);stop-opacity:0.831" /><stop offset="100%" style="stop-color:rgb(0,21,11);stop-opacity:0.835" /></linearGradient><linearGradient id="linear-gradient-2-21" x1="0.00%" y1="100.00%" x2="56.54%" y2="-11.75%"><stop offset="0%" style="stop-color:rgb(31,62,66);stop-opacity:0.274" /><stop offset="100%" style="stop-color:rgb(34,64,69);stop-opacity:0.291" /></linearGradient><linearGradient id="linear-gradient-3-1" x1="0.00%" y1="100.00%" x2="165.40%" y2="50.40%"><stop offset="0%" style="stop-color:rgb(234,157,151);stop-opacity:0.583" /><stop offset="100%" style="stop-color:rgb(242,165,159);stop-opacity:0.598" /></linearGradient><linearGradient id="linear-gradient-3-2" x1="0.00%" y1="100.00%" x2="171.55%" y2="37.76%"><stop offset="0%" style="stop-color:rgb(237,137,135);stop-opacity:0.799" /><stop offset="100%" style="stop-color:rgb(234,136,134);stop-opacity:0.801" /></linearGradient><linearGradient id="linear-gradient-3-3" x1="0.00%" y1="100.00%" x2="194.35%" y2="48.91%"><stop offset="0%" style="stop-color:rgb(243,187,177);stop-opacity:0.473" /><stop offset="100%" style="stop-color:rgb(244,194,183);stop-opacity:0.447" /></linearGradient><linearGradient id="linear-gradient-3-4" x1="0.00%" y1="100.00%" x2="150.21%" y2="21.50%"><stop offset="0%" style="stop-color:rgb(0,65,66);stop-opacity:0.776" /><stop offset="100%" style="stop-color:rgb(8,65,67);stop-opacity:0.807" /></linearGradient><linearGradient id="linear-gradient-3-5" x1="0.00%" y1="100.00%" x2="460.70%" y2="27.14%"><stop offset="0%" style="stop-color:rgb(22,40,39);stop-opacity:0.456" /><stop offset="100%" style="stop-color:rgb(39,35,37);stop-opacity:0.447" /></linearGradient><linearGradient id="linear-gradient-3-6" x1="0.00%" y1="100.00%" x2="53.53%" y2="-4.95%"><stop offset="0%" style="stop-color:rgb(0,19,21);stop-opacity:0.823" /><stop offset="100%" style="stop-color:rgb(0,19,22);stop-opacity:0.828" /></linearGradient><linearGradient id="linear-gradient-3-7" x1="0.00%" y1="100.00%" x2="178.82%" y2="32.38%"><stop offset="0%" style="stop-color:rgb(198,186,188);stop-opacity:0.503" /><stop offset="100%" style="stop-color:rgb(202,195,197);stop-opacity:0.461" /></linearGradient><linearGradient id="linear-gradient-3-8" x1="0.00%" y1="100.00%" x2="84.20%" y2="-7.99%"><stop offset="0%" style="stop-color:rgb(186,179,181);stop-opacity:0.539" /><stop offset="100%" style="stop-color:rgb(190,183,185);stop-opacity:0.521" /></linearGradient><linearGradient id="linear-gradient-3-9" x1="0.00%" y1="100.00%" x2="129.21%" y2="6.35%"><stop offset="0%" style="stop-color:rgb(188,178,180);stop-opacity:0.547" /><stop offset="100%" style="stop-color:rgb(196,189,191);stop-opacity:0.493" /></linearGradient><linearGradient id="linear-gradient-3-10" x1="0.00%" y1="100.00%" x2="75.26%" y2="-11.98%"><stop offset="0%" style="stop-color:rgb(228,215,217);stop-opacity:0.386" /><stop offset="100%" style="stop-color:rgb(236,222,224);stop-opacity:0.368" /></linearGradient><linearGradient id="linear-gradient-4-1" x1="0.00%" y1="100.00%" x2="128.50%" y2="17.05%"><stop offset="0%" style="stop-color:rgb(146,133,132);stop-opacity:0.496" /><stop offset="100%" style="stop-color:rgb(146,134,133);stop-opacity:0.489" /></linearGradient><linearGradient id="linear-gradient-4-2" x1="0.00%" y1="100.00%" x2="176.74%" y2="45.28%"><stop offset="0%" style="stop-color:rgb(255,248,184);stop-opacity:0.811" /><stop offset="100%" style="stop-color:rgb(255,249,184);stop-opacity:0.808" /></linearGradient><linearGradient id="linear-gradient-4-3" x1="0.00%" y1="100.00%" x2="129.67%" y2="7.48%"><stop offset="0%" style="stop-color:rgb(77,80,80);stop-opacity:0.674" /><stop offset="100%" style="stop-color:rgb(81,83,84);stop-opacity:0.721" /></linearGradient><linearGradient id="linear-gradient-4-4" x1="0.00%" y1="100.00%" x2="90.87%" y2="-5.02%"><stop offset="0%" style="stop-color:rgb(77,79,80);stop-opacity:0.669" /><stop offset="100%" style="stop-color:rgb(80,82,83);stop-opacity:0.702" /></linearGradient><linearGradient id="linear-gradient-4-5" x1="0.00%" y1="100.00%" x2="169.69%" y2="67.37%"><stop offset="0%" style="stop-color:rgb(255,248,184);stop-opacity:0.813" /><stop offset="100%" style="stop-color:rgb(255,250,185);stop-opacity:0.805" /></linearGradient><linearGradient id="linear-gradient-4-6" x1="0.00%" y1="100.00%" x2="54.36%" y2="-14.64%"><stop offset="0%" style="stop-color:rgb(72,75,75);stop-opacity:0.622" /><stop offset="100%" style="stop-color:rgb(74,76,77);stop-opacity:0.637" /></linearGradient><linearGradient id="linear-gradient-4-7" x1="0.00%" y1="100.00%" x2="149.07%" y2="83.27%"><stop offset="0%" style="stop-color:rgb(2,6,8);stop-opacity:0.693" /><stop offset="100%" style="stop-color:rgb(0,2,4);stop-opacity:0.736" /></linearGradient></defs><g id="layer-1"><path d="M12691 7345 c-160 -45 -295 -129 -429 -269 -232 -244 -833 -944 -1825 -2130 -119 -143 -217 -265 -217 -272 0 -7 24 -26 53 -42 50 -29 100 -37 1482 -241 787 -116 1440 -211 1453 -211 12 0 22 6 22 13 0 24 219 1678 242 1827 19 121 23 187 23 400 0 272 -7 341 -52 485 -60 192 -160 319 -315 401 l-93 48 -145 3 c-105 2 -160 -2 -199 -12z" fill="url(#linear-gradient-1-1)" id="region-1-1" transform="translate(0.000000,737.000000) scale(0.100000,-0.100000)"/><path d="M5935 5742 c-177 -61 -310 -229 -370 -468 -38 -148 -52 -389 -29 -501 6 -30 24 -29 115 8 l76 30 6 132 c11 260 89 435 228 512 45 25 65 30 124 30 95 0 177 -39 274 -130 299 -282 423 -881 254 -1224 -20 -42 -39 -79 -41 -83 -4 -8 112 -45 167 -54 34 -6 37 -4 55 33 72 149 100 313 94 546 -6 195 -33 339 -95 507 -127 342 -352 593 -592 664 -73 21 -202 20 -266 -2z" fill="url(#linear-gradient-1-2)" id="region-1-2" transform="translate(0.000000,737.000000) scale(0.100000,-0.100000)"/><path d="M160 5558 c-51 -35 -93 -95 -120 -174 -22 -64 -24 -87 -28 -306 -5 -355 -2 -370 248 -1055 128 -351 157 -420 170 -413 90 48 323 77 404 50 21 -6 40 -10 43 -7 3 3 0 111 -7 239 -42 869 -170 1377 -400 1592 -64 60 -122 86 -208 93 -59 4 -71 2 -102 -19z" fill="url(#linear-gradient-1-3)" id="region-1-3" transform="translate(0.000000,737.000000) scale(0.100000,-0.100000)"/><path d="M5883 5398 c-61 -67 -61 -60 15 -230 l69 -155 -22 -27 c-26 -32 -50 -95 -40 -104 4 -4 10 -1 12 6 3 6 13 12 23 12 10 0 39 9 65 20 63 27 119 26 170 -5 151 -88 212 -384 108 -523 -29 -39 -97 -71 -168 -81 l-50 -6 47 -33 c50 -35 104 -44 163 -29 30 8 32 6 60 -54 28 -58 34 -64 93 -91 35 -16 68 -28 72 -26 5 2 -18 63 -51 136 -40 90 -57 138 -50 145 5 7 17 39 27 72 33 113 18 277 -36 411 -13 29 -10 34 69 152 l82 123 -28 49 c-15 28 -31 50 -34 50 -5 0 -98 -136 -161 -234 -5 -7 -19 0 -40 21 -49 46 -110 73 -166 73 l-49 0 -78 175 c-43 96 -79 175 -80 175 -1 0 -11 -10 -22 -22z" fill="url(#linear-gradient-1-4)" id="region-1-4" transform="translate(0.000000,737.000000) scale(0.100000,-0.100000)"/><path d="M8587 5239 c-241 -31 -410 -170 -438 -362 -15 -96 -81 -908 -75 -914 8 -8 329 35 461 62 337 70 566 188 622 322 12 27 28 100 38 163 9 63 27 180 41 259 26 154 24 182 -16 261 -22 44 -94 112 -147 138 -61 32 -171 61 -268 72 -102 11 -122 11 -218 -1z" fill="url(#linear-gradient-1-5)" id="region-1-5" transform="translate(0.000000,737.000000) scale(0.100000,-0.100000)"/><path d="M6005 4920 c-22 -10 -50 -19 -62 -19 -12 -1 -23 -5 -25 -9 -1 -4 -82 -39 -178 -77 l-175 -69 -170 -7 c-198 -9 -3551 -380 -3660 -405 -260 -60 -510 -237 -661 -469 -52 -80 -124 -221 -124 -244 0 -16 -18 -13 -48 8 -51 35 -99 44 -216 38 -178 -8 -299 -59 -403 -170 -61 -64 -98 -138 -120 -240 -52 -239 98 -471 364 -562 89 -31 283 -51 339 -36 58 16 104 50 140 103 24 36 33 43 37 30 3 -9 25 -87 50 -172 26 -85 67 -236 92 -335 52 -204 44 -192 180 -270 98 -55 201 -89 320 -104 50 -6 225 -29 390 -51 726 -95 1374 -164 2385 -256 l65 -5 18 93 c92 477 412 865 807 978 107 31 299 38 411 15 188 -38 361 -134 509 -284 217 -219 347 -513 395 -892 l6 -46 122 -6 c175 -9 892 -25 1692 -38 380 -6 751 -16 825 -22 74 -6 273 -12 442 -12 168 0 310 -3 314 -8 4 -4 64 -7 134 -7 69 0 130 -4 136 -9 12 -11 904 -35 914 -24 4 4 13 26 20 48 40 125 134 269 243 371 301 281 740 234 997 -107 32 -43 75 -113 96 -154 l38 -76 40 6 c90 14 315 69 418 102 158 49 319 120 439 192 103 61 255 178 245 188 -2 3 -74 18 -158 33 -451 83 -990 227 -1598 430 -611 203 -814 291 -855 370 -28 54 -12 181 27 217 19 17 81 18 1320 21 l1301 2 72 -39 c77 -41 206 -141 248 -191 14 -17 32 -30 40 -30 18 0 27 80 27 246 0 104 -2 124 -15 124 -8 0 -15 2 -15 4 0 3 -9 53 -21 112 -39 206 -119 406 -226 567 -100 151 -290 320 -456 404 -68 34 -228 95 -234 89 -3 -2 -7 -23 -10 -45 -5 -34 -9 -41 -28 -41 -12 0 -663 94 -1446 210 -1321 194 -1428 212 -1478 237 -29 16 -55 33 -58 40 -3 7 5 26 17 43 14 20 17 30 8 30 -7 0 -229 32 -494 70 -266 39 -487 70 -492 70 -5 0 -21 -78 -36 -172 -60 -383 -61 -384 -145 -460 -138 -124 -420 -216 -821 -267 -269 -35 -454 -45 -840 -45 -318 -1 -392 2 -485 17 -302 50 -560 147 -785 295 l-85 56 50 7 c72 10 139 42 168 81 65 87 70 243 12 373 -66 151 -174 209 -290 155z" fill="url(#linear-gradient-1-6)" id="region-1-6" transform="translate(0.000000,737.000000) scale(0.100000,-0.100000)"/><path d="M11235 2973 c-33 -8 -52 -32 -64 -78 -15 -61 -14 -121 4 -155 41 -79 244 -167 855 -370 834 -278 1553 -450 2045 -491 195 -16 274 -10 320 25 77 59 110 152 103 292 -4 88 -47 180 -145 311 -147 196 -318 358 -457 434 l-71 39 -1285 -1 c-707 -1 -1294 -4 -1305 -6z" fill="url(#linear-gradient-1-7)" id="region-1-7" transform="translate(0.000000,737.000000) scale(0.100000,-0.100000)"/><path d="M1005 2761 c-61 -93 -131 -118 -279 -102 -55 5 -101 9 -103 8 -1 -2 2 -225 7 -497 9 -527 18 -645 66 -860 58 -256 153 -438 256 -491 81 -41 209 -7 262 70 38 54 71 137 92 226 25 106 25 386 0 565 -35 255 -112 595 -211 935 -62 212 -54 200 -90 146z" fill="url(#linear-gradient-1-8)" id="region-1-8" transform="translate(0.000000,737.000000) scale(0.100000,-0.100000)"/><path d="M5410 2684 c-428 -91 -756 -469 -872 -1004 -19 -92 -22 -133 -22 -330 0 -195 3 -239 22 -326 31 -145 65 -242 132 -379 154 -317 407 -540 700 -615 74 -19 105 -21 245 -18 153 4 165 5 263 40 136 47 245 114 358 221 240 226 383 529 425 897 15 135 6 374 -20 502 -106 527 -450 925 -873 1012 -94 19 -268 20 -358 0z" fill="url(#linear-gradient-1-9)" id="region-1-9" transform="translate(0.000000,737.000000) scale(0.100000,-0.100000)"/><path d="M11802 1920 c-238 -64 -443 -275 -538 -552 -60 -176 -76 -410 -40 -592 66 -340 267 -597 541 -692 69 -24 96 -28 195 -28 94 0 128 4 185 23 106 34 190 86 276 168 360 344 401 988 89 1401 -93 124 -213 212 -357 263 -87 31 -255 35 -351 9z" fill="url(#linear-gradient-1-10)" id="region-1-10" transform="translate(0.000000,737.000000) scale(0.100000,-0.100000)"/><path d="M2307 1824 c-12 -13 -8 -249 8 -366 73 -554 416 -993 862 -1105 102 -26 322 -23 428 5 179 48 376 174 506 324 192 223 319 535 345 846 l7 82 -38 0 c-127 0 -1898 184 -2080 216 -17 3 -34 2 -38 -2z" fill="url(#linear-gradient-1-11)" id="region-1-11" transform="translate(0.000000,737.000000) scale(0.100000,-0.100000)"/><path d="M8830 1359 c0 -225 82 -484 205 -647 99 -132 243 -234 390 -278 82 -25 248 -25 330 0 315 94 541 403 586 800 9 84 9 109 -1 121 -10 12 -38 15 -141 15 -77 0 -130 4 -134 10 -4 7 -102 8 -298 4 -208 -5 -304 -3 -332 5 -23 6 -162 14 -322 18 l-283 6 0 -54z" fill="url(#linear-gradient-1-12)" id="region-1-12" transform="translate(0.000000,737.000000) scale(0.100000,-0.100000)"/></g><g id="layer-2"><path d="M12805 7261 c-168 -46 -291 -125 -438 -284 -253 -272 -821 -934 -1627 -1897 -200 -239 -369 -438 -374 -442 -5 -4 1 -9 15 -12 63 -15 2793 -414 2803 -410 8 3 54 322 131 902 65 493 125 940 133 992 20 141 20 490 -1 612 -46 263 -146 445 -289 523 -49 27 -62 30 -168 32 -88 2 -131 -2 -185 -16z" fill="url(#linear-gradient-2-1)" id="region-2-1" transform="translate(0.000000,737.000000) scale(0.100000,-0.100000)"/><path d="M5929 5727 c-124 -42 -227 -145 -300 -300 -21 -46 -32 -85 -34 -129 -2 -35 -9 -83 -15 -108 -6 -25 -14 -115 -17 -200 -6 -146 -5 -154 11 -141 31 26 44 64 60 176 43 290 129 446 290 525 59 29 71 32 144 29 68 -4 90 -9 164 -46 136 -68 278 -212 351 -358 41 -82 78 -193 102 -310 13 -60 29 -128 34 -150 17 -68 78 -97 115 -56 16 17 17 27 6 93 -34 222 -133 475 -246 629 -24 32 -54 79 -68 106 -32 60 -57 88 -126 140 -155 116 -321 151 -471 100z" fill="url(#linear-gradient-2-2)" id="region-2-2" transform="translate(0.000000,737.000000) scale(0.100000,-0.100000)"/><path d="M190 5532 c-19 -9 -50 -39 -67 -65 -118 -176 -121 -568 -8 -927 35 -111 325 -903 333 -912 4 -4 34 2 67 13 33 11 102 23 154 26 l94 6 -7 156 c-24 558 -108 1087 -218 1369 -64 165 -167 302 -254 338 -43 18 -52 18 -94 -4z" fill="url(#linear-gradient-2-3)" id="region-2-3" transform="translate(0.000000,737.000000) scale(0.100000,-0.100000)"/><path d="M8500 5094 c-87 -23 -141 -54 -201 -114 -39 -39 -61 -70 -72 -105 -10 -31 -26 -167 -42 -350 -14 -165 -31 -355 -37 -423 -6 -67 -8 -125 -4 -129 9 -9 249 23 392 52 233 49 437 129 529 208 l39 34 13 274 c14 294 13 330 -17 388 -60 119 -210 182 -429 180 -68 0 -139 -6 -171 -15z" fill="url(#linear-gradient-2-4)" id="region-2-4" transform="translate(0.000000,737.000000) scale(0.100000,-0.100000)"/><path d="M6005 4920 c-22 -10 -50 -19 -62 -19 -12 -1 -23 -5 -25 -9 -1 -4 -77 -37 -167 -72 -112 -44 -158 -66 -144 -70 11 -3 47 -39 80 -80 94 -118 159 -185 267 -276 91 -76 105 -84 143 -84 49 0 138 32 170 62 77 72 90 254 28 393 -66 151 -174 209 -290 155z" fill="url(#linear-gradient-2-5)" id="region-2-5" transform="translate(0.000000,737.000000) scale(0.100000,-0.100000)"/><path d="M9724 4686 c-12 -31 0 -61 27 -64 31 -4 52 18 47 50 -2 18 -10 24 -36 26 -21 2 -34 -2 -38 -12z" fill="url(#linear-gradient-2-6)" id="region-2-6" transform="translate(0.000000,737.000000) scale(0.100000,-0.100000)"/><path d="M9302 4538 c-16 -16 -15 -107 3 -202 8 -44 20 -122 26 -173 19 -170 -20 -369 -86 -442 -99 -109 -370 -174 -940 -223 -90 -7 -406 -12 -890 -14 -738 -2 -823 -5 -903 -35 -59 -23 -46 -59 33 -88 123 -46 429 -92 750 -112 210 -13 1394 -7 1950 10 171 6 408 13 528 17 l219 7 -45 46 c-44 46 -137 166 -137 177 0 3 -18 36 -40 73 -22 37 -40 77 -40 88 0 12 -5 25 -10 28 -19 12 -61 107 -81 183 -15 57 -22 131 -29 287 -9 236 -6 248 61 272 39 14 151 16 222 4 26 -4 47 -5 47 -1 0 9 -265 75 -380 95 -104 18 -241 20 -258 3z" fill="url(#linear-gradient-2-7)" id="region-2-7" transform="translate(0.000000,737.000000) scale(0.100000,-0.100000)"/><path d="M1765 4330 c-111 -22 -271 -93 -386 -171 -137 -91 -299 -281 -370 -434 -13 -27 -27 -52 -30 -55 -4 -3 -10 -20 -14 -37 -3 -18 -10 -33 -13 -33 -4 0 -23 11 -42 24 -61 41 -104 49 -224 43 -178 -8 -299 -59 -403 -170 -61 -64 -98 -138 -120 -240 -52 -239 98 -471 364 -562 89 -31 283 -51 339 -36 58 16 104 49 140 103 l31 46 31 -101 c39 -126 124 -441 142 -524 l14 -62 75 -49 c175 -114 242 -135 522 -167 142 -16 147 -16 202 3 258 91 444 426 502 907 22 182 16 637 -10 785 -21 118 -76 286 -117 359 -147 260 -412 415 -633 371z" fill="url(#linear-gradient-2-8)" id="region-2-8" transform="translate(0.000000,737.000000) scale(0.100000,-0.100000)"/><path d="M10057 4214 c-12 -13 -8 -51 8 -64 9 -7 25 -10 40 -6 22 6 26 11 23 39 -3 28 -7 32 -33 35 -17 2 -34 0 -38 -4z" fill="url(#linear-gradient-2-9)" id="region-2-9" transform="translate(0.000000,737.000000) scale(0.100000,-0.100000)"/><path d="M10254 3526 c-3 -8 -4 -25 -2 -38 2 -18 9 -23 32 -23 36 0 56 27 40 53 -14 22 -62 28 -70 8z" fill="url(#linear-gradient-2-10)" id="region-2-10" transform="translate(0.000000,737.000000) scale(0.100000,-0.100000)"/><path d="M2552 3349 l3 -144 570 -52 c2910 -266 5592 -427 7658 -459 l429 -7 -26 38 c-18 26 -26 51 -26 82 0 62 19 129 42 150 19 17 81 18 1320 21 l1301 2 72 -39 c77 -41 206 -141 248 -191 14 -17 32 -30 40 -30 18 0 27 80 27 248 l0 125 -87 -7 c-48 -3 -135 -9 -193 -13 -58 -3 -107 -9 -110 -13 -5 -8 -285 -25 -675 -40 -762 -30 -2696 -43 -3270 -22 -1771 65 -3080 140 -4840 277 -740 58 -2235 188 -2433 211 l-53 6 3 -143z" fill="url(#linear-gradient-2-11)" id="region-2-11" transform="translate(0.000000,737.000000) scale(0.100000,-0.100000)"/><path d="M11167 2881 c-11 -55 -8 -110 8 -141 41 -79 244 -167 855 -370 834 -278 1553 -450 2045 -491 195 -16 274 -10 320 25 47 36 84 94 92 142 6 37 6 38 -11 21 -40 -39 -79 -50 -194 -55 -467 -19 -1511 225 -2547 595 -416 148 -535 208 -553 275 l-8 33 -7 -34z" fill="url(#linear-gradient-2-12)" id="region-2-12" transform="translate(0.000000,737.000000) scale(0.100000,-0.100000)"/><path d="M941 2694 c-51 -36 -101 -46 -198 -38 l-86 7 7 -454 c4 -250 11 -503 17 -564 30 -345 122 -629 241 -748 62 -63 95 -74 143 -52 67 33 125 156 150 324 30 198 10 465 -66 861 -35 181 -159 690 -168 689 -3 0 -21 -12 -40 -25z" fill="url(#linear-gradient-2-13)" id="region-2-13" transform="translate(0.000000,737.000000) scale(0.100000,-0.100000)"/><path d="M5447 2680 c-371 -63 -700 -376 -842 -803 -64 -193 -79 -288 -79 -517 -1 -229 16 -345 75 -523 47 -139 177 -389 187 -359 1 5 -11 58 -28 115 -37 130 -83 321 -106 447 -26 136 -26 492 -1 607 59 274 176 493 361 678 104 104 219 187 341 248 78 38 208 84 267 93 21 4 41 11 44 15 6 11 -153 10 -219 -1z" fill="url(#linear-gradient-2-14)" id="region-2-14" transform="translate(0.000000,737.000000) scale(0.100000,-0.100000)"/><path d="M5422 2460 c-405 -106 -692 -563 -692 -1104 0 -363 123 -689 343 -908 293 -291 711 -299 1007 -21 225 212 349 503 367 858 27 563 -270 1067 -693 1175 -100 26 -233 26 -332 0z" fill="url(#linear-gradient-2-15)" id="region-2-15" transform="translate(0.000000,737.000000) scale(0.100000,-0.100000)"/><path d="M10356 2124 c-9 -8 -16 -22 -16 -29 0 -18 27 -45 45 -45 18 0 45 27 45 45 0 18 -27 45 -45 45 -7 0 -21 -7 -29 -16z" fill="url(#linear-gradient-2-16)" id="region-2-16" transform="translate(0.000000,737.000000) scale(0.100000,-0.100000)"/><path d="M11830 1914 c-194 -41 -392 -205 -493 -408 -83 -165 -117 -313 -117 -511 0 -143 16 -250 54 -361 35 -104 119 -264 132 -251 2 2 -12 62 -31 132 -59 215 -78 335 -79 480 0 219 50 387 167 559 111 164 336 319 510 351 20 4 40 11 43 16 8 14 -112 9 -186 -7z" fill="url(#linear-gradient-2-17)" id="region-2-17" transform="translate(0.000000,737.000000) scale(0.100000,-0.100000)"/><path d="M11890 1783 c-247 -41 -447 -269 -512 -583 -27 -127 -21 -335 11 -459 106 -403 434 -622 751 -502 74 28 179 108 235 178 58 73 138 237 160 326 82 340 -9 704 -226 900 -122 111 -279 163 -419 140z" fill="url(#linear-gradient-2-18)" id="region-2-18" transform="translate(0.000000,737.000000) scale(0.100000,-0.100000)"/><path d="M2523 1633 c15 -353 131 -645 336 -847 89 -89 176 -148 273 -186 462 -180 946 166 1076 770 30 136 39 248 21 254 -8 2 -192 20 -409 41 -217 20 -555 54 -750 76 -195 21 -400 39 -454 39 l-99 0 6 -147z" fill="url(#linear-gradient-2-19)" id="region-2-19" transform="translate(0.000000,737.000000) scale(0.100000,-0.100000)"/><path d="M10264 1566 c-3 -8 -4 -25 -2 -38 2 -19 9 -23 38 -23 33 0 35 2 35 35 0 32 -3 35 -33 38 -21 2 -34 -2 -38 -12z" fill="url(#linear-gradient-2-20)" id="region-2-20" transform="translate(0.000000,737.000000) scale(0.100000,-0.100000)"/><path d="M8990 1318 c1 -340 209 -664 474 -734 65 -18 186 -18 251 0 252 67 451 354 472 679 l6 97 -61 0 c-39 0 -62 4 -65 13 -3 9 -75 12 -313 13 -170 1 -411 5 -536 9 l-228 6 0 -83z" fill="url(#linear-gradient-2-21)" id="region-2-21" transform="translate(0.000000,737.000000) scale(0.100000,-0.100000)"/></g><g id="layer-3"><path d="M12783 7159 c-62 -12 -146 -55 -231 -119 -105 -79 -322 -304 -472 -489 -69 -85 -145 -178 -170 -205 -91 -103 -291 -336 -440 -516 -85 -101 -221 -256 -303 -345 -346 -373 -447 -575 -340 -678 127 -121 437 -100 851 59 408 157 708 357 898 599 210 270 435 758 503 1092 56 274 -2 491 -153 577 -50 29 -88 35 -143 25z" fill="url(#linear-gradient-3-1)" id="region-3-1" transform="translate(0.000000,737.000000) scale(0.100000,-0.100000)"/><path d="M8563 5020 c-197 -28 -307 -215 -308 -525 0 -105 3 -126 23 -170 31 -67 52 -88 125 -121 56 -26 72 -29 172 -29 100 0 116 3 173 29 155 72 233 238 236 501 1 110 -1 125 -25 176 -28 59 -69 97 -135 125 -43 19 -175 26 -261 14z" fill="url(#linear-gradient-3-2)" id="region-3-2" transform="translate(0.000000,737.000000) scale(0.100000,-0.100000)"/><path d="M1715 4291 c-173 -51 -319 -136 -454 -266 -105 -102 -175 -199 -238 -332 -56 -118 -54 -126 45 -153 80 -21 162 -117 191 -225 6 -22 17 -119 26 -215 23 -265 69 -402 170 -506 96 -98 194 -132 400 -141 379 -15 431 56 466 635 22 374 -26 666 -149 906 -47 92 -138 221 -188 268 -52 48 -162 60 -269 29z" fill="url(#linear-gradient-3-3)" id="region-3-3" transform="translate(0.000000,737.000000) scale(0.100000,-0.100000)"/><path d="M585 3660 c-124 -26 -223 -79 -302 -163 -61 -64 -98 -138 -120 -240 -52 -239 98 -471 364 -562 89 -31 283 -51 339 -36 128 34 199 156 224 383 32 287 -53 523 -219 605 -40 20 -215 28 -286 13z" fill="url(#linear-gradient-3-4)" id="region-3-4" transform="translate(0.000000,737.000000) scale(0.100000,-0.100000)"/><path d="M9823 4739 c-16 -16 -9 -29 52 -92 29 -30 65 -72 79 -94 14 -21 39 -57 56 -81 140 -198 270 -527 345 -875 75 -347 117 -976 95 -1417 -16 -336 -56 -576 -114 -694 -27 -54 -25 -76 8 -76 60 0 126 243 157 580 24 269 11 890 -27 1240 -66 607 -272 1162 -536 1446 -68 72 -92 86 -115 63z" fill="url(#linear-gradient-3-5)" id="region-3-5" transform="translate(0.000000,737.000000) scale(0.100000,-0.100000)"/><path d="M10348 2829 c-27 -15 -23 -57 7 -71 30 -13 55 3 55 36 0 39 -28 55 -62 35z" fill="url(#linear-gradient-3-6)" id="region-3-6" transform="translate(0.000000,737.000000) scale(0.100000,-0.100000)"/><path d="M5385 2331 c-93 -27 -183 -80 -263 -155 -132 -126 -220 -292 -262 -496 -19 -90 -21 -127 -17 -255 4 -106 11 -173 25 -227 100 -375 362 -622 662 -622 303 0 566 250 662 631 19 74 23 115 23 258 0 145 -4 183 -23 258 -83 315 -285 548 -528 611 -79 21 -203 19 -279 -3z" fill="url(#linear-gradient-3-7)" id="region-3-7" transform="translate(0.000000,737.000000) scale(0.100000,-0.100000)"/><path d="M2634 1688 c45 -483 402 -841 776 -778 260 44 488 288 570 611 32 123 36 117 -75 121 -53 1 -99 8 -103 14 -7 11 -637 79 -712 76 -25 -1 -99 5 -165 13 -66 8 -159 15 -208 15 l-90 0 7 -72z" fill="url(#linear-gradient-3-8)" id="region-3-8" transform="translate(0.000000,737.000000) scale(0.100000,-0.100000)"/><path d="M11799 1667 c-201 -69 -340 -285 -356 -557 -16 -263 112 -514 313 -615 54 -28 67 -30 164 -30 96 0 110 3 165 29 128 62 245 217 292 386 28 102 25 303 -5 400 -65 205 -184 342 -339 390 -84 26 -152 25 -234 -3z" fill="url(#linear-gradient-3-9)" id="region-3-9" transform="translate(0.000000,737.000000) scale(0.100000,-0.100000)"/><path d="M9074 1343 c29 -220 144 -401 304 -480 72 -36 81 -38 172 -38 88 0 101 3 165 34 160 78 269 247 309 477 l5 31 -137 6 c-75 4 -292 10 -481 13 l-344 7 7 -50z" fill="url(#linear-gradient-3-10)" id="region-3-10" transform="translate(0.000000,737.000000) scale(0.100000,-0.100000)"/></g><g id="layer-4"><path d="M587 3624 c-138 -30 -248 -100 -313 -199 -32 -47 -35 -59 -29 -92 37 -197 280 -318 471 -233 71 31 112 66 154 132 44 67 70 164 70 256 0 51 -4 62 -27 84 -16 14 -44 34 -63 44 -47 24 -175 28 -263 8z" fill="url(#linear-gradient-4-1)" id="region-4-1" transform="translate(0.000000,737.000000) scale(0.100000,-0.100000)"/><path d="M5382 2235 c-93 -20 -143 -48 -227 -127 -177 -165 -270 -391 -263 -638 l3 -105 33 95 c76 214 165 340 241 340 32 0 111 -40 127 -65 13 -20 12 -30 -10 -101 -77 -248 -84 -382 -26 -536 20 -54 109 -168 130 -168 5 0 -11 37 -35 83 -59 111 -78 195 -73 322 13 270 189 505 380 505 95 0 161 -31 246 -116 40 -41 77 -74 82 -74 28 0 -4 156 -55 267 -121 262 -310 371 -553 318z" fill="url(#linear-gradient-4-2)" id="region-4-2" transform="translate(0.000000,737.000000) scale(0.100000,-0.100000)"/><path d="M5533 1743 c-23 -8 -64 -34 -91 -58 -200 -180 -166 -553 62 -673 43 -22 64 -27 131 -27 67 0 88 5 131 27 130 68 202 218 191 395 -4 71 -11 97 -41 158 -43 87 -113 155 -183 179 -57 20 -144 19 -200 -1z" fill="url(#linear-gradient-4-3)" id="region-4-3" transform="translate(0.000000,737.000000) scale(0.100000,-0.100000)"/><path d="M3104 1656 c15 -145 84 -256 197 -315 60 -31 69 -33 139 -29 50 3 89 12 116 26 59 30 139 122 163 187 25 66 37 135 24 135 -5 0 -121 11 -259 25 -137 14 -280 29 -318 32 l-69 6 7 -67z" fill="url(#linear-gradient-4-4)" id="region-4-4" transform="translate(0.000000,737.000000) scale(0.100000,-0.100000)"/><path d="M11793 1606 c-63 -20 -106 -50 -167 -116 -69 -75 -122 -181 -141 -283 -17 -90 -20 -197 -5 -197 6 0 10 7 10 16 0 24 57 155 90 207 16 25 43 53 60 62 29 15 34 15 67 -2 56 -28 60 -40 34 -127 -47 -159 -46 -277 3 -375 23 -44 71 -99 80 -90 3 2 -12 37 -32 78 -32 65 -37 83 -40 168 -3 62 -1 98 7 106 6 6 11 19 11 29 0 34 53 132 97 179 93 100 216 97 317 -7 20 -21 36 -41 36 -46 0 -4 7 -8 15 -8 49 0 -27 222 -108 315 -55 65 -127 98 -217 102 -45 2 -92 -3 -117 -11z" fill="url(#linear-gradient-4-5)" id="region-4-5" transform="translate(0.000000,737.000000) scale(0.100000,-0.100000)"/><path d="M9394 1323 c20 -156 153 -259 284 -222 90 25 172 138 172 236 l0 33 -231 0 -232 0 7 -47z" fill="url(#linear-gradient-4-6)" id="region-4-6" transform="translate(0.000000,737.000000) scale(0.100000,-0.100000)"/><path d="M11926 1276 c-82 -31 -150 -126 -162 -229 -20 -172 100 -328 243 -314 64 7 89 20 152 80 44 42 51 55 66 118 11 49 14 90 9 132 -6 54 -13 67 -58 120 -28 33 -67 68 -86 78 -50 26 -117 32 -164 15z" fill="url(#linear-gradient-4-7)" id="region-4-7" transform="translate(0.000000,737.000000) scale(0.100000,-0.100000)"/></g></svg>