<?xml version="1.0" standalone="no"?><!DOCTYPE svg PUBLIC "-//W3C//DTD SVG 20010904//EN" "http://www.w3.org/TR/2001/REC-SVG-20010904/DTD/svg10.dtd"><svg version="1.0" xmlns="http://www.w3.org/2000/svg" width="550pt" height="290pt" viewBox="0 0 550 290" preserveAspectRatio="xMidYMid meet"><defs><linearGradient id="linear-gradient-1-1" x1="0.00%" y1="100.00%" x2="52.59%" y2="-20.90%"><stop offset="0%" style="stop-color:rgb(133,32,52);stop-opacity:0.994" /><stop offset="100%" style="stop-color:rgb(133,32,52);stop-opacity:0.994" /></linearGradient><linearGradient id="linear-gradient-1-2" x1="0.00%" y1="100.00%" x2="0.00%" y2="-0.00%"><stop offset="0%" style="stop-color:rgb(223,99,46);stop-opacity:0.991" /><stop offset="100%" style="stop-color:rgb(223,85,57);stop-opacity:0.991" /></linearGradient><linearGradient id="linear-gradient-1-3" x1="0.00%" y1="100.00%" x2="66.62%" y2="-7.75%"><stop offset="0%" style="stop-color:rgb(133,33,53);stop-opacity:0.998" /><stop offset="100%" style="stop-color:rgb(133,33,53);stop-opacity:0.998" /></linearGradient><linearGradient id="linear-gradient-1-4" x1="0.00%" y1="100.00%" x2="0.00%" y2="-0.00%"><stop offset="0%" style="stop-color:rgb(250,180,148);stop-opacity:0.993" /><stop offset="100%" style="stop-color:rgb(248,180,153);stop-opacity:0.994" /></linearGradient><linearGradient id="linear-gradient-1-5" x1="0.00%" y1="100.00%" x2="0.00%" y2="-0.00%"><stop offset="0%" style="stop-color:rgb(233,78,25);stop-opacity:0.992" /><stop offset="100%" style="stop-color:rgb(254,123,48);stop-opacity:0.992" /></linearGradient><linearGradient id="linear-gradient-1-6" x1="0.00%" y1="100.00%" x2="10.85%" y2="-0.71%"><stop offset="0%" style="stop-color:rgb(169,42,63);stop-opacity:0.993" /><stop offset="100%" style="stop-color:rgb(169,42,63);stop-opacity:0.994" /></linearGradient><linearGradient id="linear-gradient-2-1" x1="0.00%" y1="100.00%" x2="0.00%" y2="-0.00%"><stop offset="0%" style="stop-color:rgb(248,119,45);stop-opacity:0.787" /><stop offset="100%" style="stop-color:rgb(250,102,61);stop-opacity:0.772" /></linearGradient><linearGradient id="linear-gradient-2-2" x1="0.00%" y1="100.00%" x2="96.77%" y2="-0.32%"><stop offset="0%" style="stop-color:rgb(98,7,56);stop-opacity:0.713" /><stop offset="100%" style="stop-color:rgb(111,21,52);stop-opacity:0.798" /></linearGradient><linearGradient id="linear-gradient-2-3" x1="0.00%" y1="100.00%" x2="0.59%" y2="-4.32%"><stop offset="0%" style="stop-color:rgb(142,10,53);stop-opacity:0.802" /><stop offset="100%" style="stop-color:rgb(150,0,31);stop-opacity:0.756" /></linearGradient><linearGradient id="linear-gradient-2-4" x1="0.00%" y1="100.00%" x2="0.04%" y2="-1.60%"><stop offset="0%" style="stop-color:rgb(253,206,180);stop-opacity:0.802" /><stop offset="100%" style="stop-color:rgb(253,206,184);stop-opacity:0.769" /></linearGradient><linearGradient id="linear-gradient-2-5" x1="0.00%" y1="100.00%" x2="121.16%" y2="98.83%"><stop offset="0%" style="stop-color:rgb(144,24,73);stop-opacity:0.736" /><stop offset="100%" style="stop-color:rgb(144,14,93);stop-opacity:0.814" /></linearGradient><linearGradient id="linear-gradient-2-6" x1="0.00%" y1="100.00%" x2="0.00%" y2="-0.00%"><stop offset="0%" style="stop-color:rgb(134,18,81);stop-opacity:0.666" /><stop offset="100%" style="stop-color:rgb(142,17,75);stop-opacity:0.758" /></linearGradient><linearGradient id="linear-gradient-2-7" x1="0.00%" y1="100.00%" x2="37.60%" y2="-8.24%"><stop offset="0%" style="stop-color:rgb(251,201,178);stop-opacity:0.803" /><stop offset="100%" style="stop-color:rgb(250,200,183);stop-opacity:0.757" /></linearGradient><linearGradient id="linear-gradient-2-8" x1="0.00%" y1="100.00%" x2="45.44%" y2="-8.67%"><stop offset="0%" style="stop-color:rgb(251,201,178);stop-opacity:0.802" /><stop offset="100%" style="stop-color:rgb(250,201,183);stop-opacity:0.755" /></linearGradient><linearGradient id="linear-gradient-3-1" x1="0.00%" y1="100.00%" x2="72.66%" y2="-8.19%"><stop offset="0%" style="stop-color:rgb(103,12,55);stop-opacity:0.746" /><stop offset="100%" style="stop-color:rgb(108,18,53);stop-opacity:0.782" /></linearGradient><linearGradient id="linear-gradient-3-2" x1="0.00%" y1="100.00%" x2="0.00%" y2="0.00%"><stop offset="0%" style="stop-color:rgb(255,106,24);stop-opacity:0.802" /><stop offset="100%" style="stop-color:rgb(255,106,42);stop-opacity:0.799" /></linearGradient><linearGradient id="linear-gradient-3-3" x1="0.00%" y1="100.00%" x2="40.06%" y2="-3.51%"><stop offset="0%" style="stop-color:rgb(154,11,42);stop-opacity:0.542" /><stop offset="100%" style="stop-color:rgb(158,19,48);stop-opacity:0.570" /></linearGradient><linearGradient id="linear-gradient-3-4" x1="0.00%" y1="100.00%" x2="206.72%" y2="25.66%"><stop offset="0%" style="stop-color:rgb(43,0,41);stop-opacity:0.814" /><stop offset="100%" style="stop-color:rgb(43,0,41);stop-opacity:0.814" /></linearGradient><linearGradient id="linear-gradient-3-5" x1="0.00%" y1="100.00%" x2="185.88%" y2="19.62%"><stop offset="0%" style="stop-color:rgb(43,0,41);stop-opacity:0.814" /><stop offset="100%" style="stop-color:rgb(43,0,41);stop-opacity:0.813" /></linearGradient><linearGradient id="linear-gradient-3-6" x1="0.00%" y1="100.00%" x2="150.87%" y2="7.69%"><stop offset="0%" style="stop-color:rgb(43,0,41);stop-opacity:0.814" /><stop offset="100%" style="stop-color:rgb(43,0,41);stop-opacity:0.813" /></linearGradient><linearGradient id="linear-gradient-3-7" x1="0.00%" y1="100.00%" x2="122.79%" y2="2.85%"><stop offset="0%" style="stop-color:rgb(43,0,41);stop-opacity:0.814" /><stop offset="100%" style="stop-color:rgb(43,0,41);stop-opacity:0.813" /></linearGradient><linearGradient id="linear-gradient-3-8" x1="0.00%" y1="100.00%" x2="0.00%" y2="-0.00%"><stop offset="0%" style="stop-color:rgb(131,199,255);stop-opacity:0.804" /><stop offset="100%" style="stop-color:rgb(166,246,255);stop-opacity:0.859" /></linearGradient><linearGradient id="linear-gradient-3-9" x1="0.00%" y1="100.00%" x2="0.00%" y2="0.00%"><stop offset="0%" style="stop-color:rgb(130,197,255);stop-opacity:0.803" /><stop offset="100%" style="stop-color:rgb(165,244,255);stop-opacity:0.865" /></linearGradient><linearGradient id="linear-gradient-4-1" x1="0.00%" y1="100.00%" x2="125.14%" y2="13.89%"><stop offset="0%" style="stop-color:rgb(253,201,178);stop-opacity:0.801" /><stop offset="100%" style="stop-color:rgb(253,204,179);stop-opacity:0.778" /></linearGradient><linearGradient id="linear-gradient-4-2" x1="0.00%" y1="100.00%" x2="126.78%" y2="15.23%"><stop offset="0%" style="stop-color:rgb(253,203,181);stop-opacity:0.785" /><stop offset="100%" style="stop-color:rgb(253,206,182);stop-opacity:0.765" /></linearGradient><linearGradient id="linear-gradient-4-3" x1="0.00%" y1="100.00%" x2="198.05%" y2="22.08%"><stop offset="0%" style="stop-color:rgb(132,16,80);stop-opacity:0.641" /><stop offset="100%" style="stop-color:rgb(145,26,70);stop-opacity:0.736" /></linearGradient><linearGradient id="linear-gradient-4-4" x1="0.00%" y1="100.00%" x2="97.92%" y2="-0.20%"><stop offset="0%" style="stop-color:rgb(134,18,79);stop-opacity:0.656" /><stop offset="100%" style="stop-color:rgb(146,27,70);stop-opacity:0.745" /></linearGradient><linearGradient id="linear-gradient-4-5" x1="0.00%" y1="100.00%" x2="79.67%" y2="-1.19%"><stop offset="0%" style="stop-color:rgb(116,183,255);stop-opacity:0.823" /><stop offset="100%" style="stop-color:rgb(144,221,255);stop-opacity:0.854" /></linearGradient><linearGradient id="linear-gradient-4-6" x1="0.00%" y1="100.00%" x2="101.21%" y2="0.10%"><stop offset="0%" style="stop-color:rgb(117,184,255);stop-opacity:0.827" /><stop offset="100%" style="stop-color:rgb(139,215,255);stop-opacity:0.848" /></linearGradient><linearGradient id="linear-gradient-4-7" x1="0.00%" y1="100.00%" x2="0.00%" y2="0.00%"><stop offset="0%" style="stop-color:rgb(248,241,233);stop-opacity:0.774" /><stop offset="100%" style="stop-color:rgb(255,249,241);stop-opacity:0.805" /></linearGradient><linearGradient id="linear-gradient-4-8" x1="0.00%" y1="100.00%" x2="380.46%" y2="41.15%"><stop offset="0%" style="stop-color:rgb(68,0,24);stop-opacity:0.810" /><stop offset="100%" style="stop-color:rgb(66,0,24);stop-opacity:0.819" /></linearGradient><linearGradient id="linear-gradient-4-9" x1="0.00%" y1="100.00%" x2="378.51%" y2="39.63%"><stop offset="0%" style="stop-color:rgb(68,0,24);stop-opacity:0.809" /><stop offset="100%" style="stop-color:rgb(66,0,23);stop-opacity:0.819" /></linearGradient><linearGradient id="linear-gradient-4-10" x1="0.00%" y1="100.00%" x2="31.74%" y2="-0.49%"><stop offset="0%" style="stop-color:rgb(68,0,24);stop-opacity:0.810" /><stop offset="100%" style="stop-color:rgb(66,0,24);stop-opacity:0.819" /></linearGradient><linearGradient id="linear-gradient-4-11" x1="0.00%" y1="100.00%" x2="32.07%" y2="-0.49%"><stop offset="0%" style="stop-color:rgb(68,0,24);stop-opacity:0.810" /><stop offset="100%" style="stop-color:rgb(66,0,24);stop-opacity:0.819" /></linearGradient><linearGradient id="linear-gradient-5-1" x1="0.00%" y1="100.00%" x2="179.73%" y2="15.74%"><stop offset="0%" style="stop-color:rgb(43,0,41);stop-opacity:0.814" /><stop offset="100%" style="stop-color:rgb(43,0,41);stop-opacity:0.813" /></linearGradient><linearGradient id="linear-gradient-5-2" x1="0.00%" y1="100.00%" x2="165.06%" y2="12.07%"><stop offset="0%" style="stop-color:rgb(43,0,42);stop-opacity:0.814" /><stop offset="100%" style="stop-color:rgb(43,0,41);stop-opacity:0.813" /></linearGradient><linearGradient id="linear-gradient-5-3" x1="0.00%" y1="100.00%" x2="140.02%" y2="5.49%"><stop offset="0%" style="stop-color:rgb(43,0,41);stop-opacity:0.814" /><stop offset="100%" style="stop-color:rgb(43,0,41);stop-opacity:0.813" /></linearGradient><linearGradient id="linear-gradient-5-4" x1="0.00%" y1="100.00%" x2="124.17%" y2="3.06%"><stop offset="0%" style="stop-color:rgb(43,0,42);stop-opacity:0.814" /><stop offset="100%" style="stop-color:rgb(43,0,41);stop-opacity:0.813" /></linearGradient><linearGradient id="linear-gradient-5-5" x1="0.00%" y1="100.00%" x2="369.51%" y2="38.68%"><stop offset="0%" style="stop-color:rgb(68,0,24);stop-opacity:0.810" /><stop offset="100%" style="stop-color:rgb(65,0,24);stop-opacity:0.820" /></linearGradient><linearGradient id="linear-gradient-5-6" x1="0.00%" y1="100.00%" x2="366.32%" y2="36.71%"><stop offset="0%" style="stop-color:rgb(68,0,24);stop-opacity:0.810" /><stop offset="100%" style="stop-color:rgb(65,0,24);stop-opacity:0.821" /></linearGradient><linearGradient id="linear-gradient-5-7" x1="0.00%" y1="100.00%" x2="186.59%" y2="4.01%"><stop offset="0%" style="stop-color:rgb(68,0,24);stop-opacity:0.810" /><stop offset="100%" style="stop-color:rgb(66,0,24);stop-opacity:0.818" /></linearGradient><linearGradient id="linear-gradient-5-8" x1="0.00%" y1="100.00%" x2="174.63%" y2="3.21%"><stop offset="0%" style="stop-color:rgb(68,0,24);stop-opacity:0.811" /><stop offset="100%" style="stop-color:rgb(66,0,24);stop-opacity:0.818" /></linearGradient></defs><g id="layer-1"><path d="M1750 2692 c0 -88 -3 -179 -6 -204 -6 -43 -6 -44 27 -54 19 -6 51 -9 72 -6 36 4 37 5 38 46 l1 41 11 -35 c13 -45 10 -42 41 -34 17 4 34 20 46 43 l19 36 1 -37 c0 -35 2 -37 38 -44 20 -4 43 -12 51 -18 11 -8 15 -8 18 1 3 8 14 11 29 7 22 -6 24 -3 24 26 0 25 3 30 13 22 7 -6 52 -16 100 -23 60 -8 87 -16 87 -26 0 -7 5 -13 10 -13 6 0 10 6 10 14 0 9 20 15 67 19 43 4 77 14 93 26 25 18 25 19 23 177 -2 206 13 193 -224 194 -159 0 -178 -2 -184 -17 -6 -17 -7 -17 -16 0 -8 14 -24 17 -88 17 l-78 0 -19 -39 -19 -40 -10 37 -11 37 -82 3 -82 3 0 -159z m690 -38 c0 -64 -12 -74 -90 -74 l-70 0 0 49 c0 30 5 51 13 54 6 3 42 6 80 6 l67 1 0 -36z" fill="url(#linear-gradient-1-1)" id="region-1-1" transform="translate(0.000000,290.000000) scale(0.100000,-0.100000)"/><path d="M2920 2825 c0 -14 -3 -25 -7 -25 -10 0 -167 27 -204 35 -24 6 -27 2 -38 -39 -6 -25 -11 -47 -11 -50 0 -2 13 -7 30 -11 16 -4 32 -11 35 -15 3 -5 -6 -66 -20 -135 -14 -69 -23 -135 -20 -145 5 -16 15 -20 50 -20 38 0 45 3 49 23 3 12 15 71 27 130 24 119 18 113 91 91 13 -4 19 7 29 51 13 60 29 82 29 41 0 -41 -21 -126 -31 -126 -5 0 -9 -39 -9 -86 l0 -87 127 7 c70 4 129 8 130 10 2 1 0 24 -4 51 l-6 48 -69 -7 c-39 -3 -68 -2 -68 3 0 5 -3 16 -6 24 -4 12 8 18 50 27 l56 11 0 50 0 49 -60 0 c-45 0 -60 4 -60 14 0 11 22 16 91 22 62 4 92 11 96 20 16 42 23 -4 23 -149 0 -113 4 -167 12 -175 7 -7 31 -12 55 -12 32 0 43 -4 43 -15 0 -8 5 -15 10 -15 6 0 10 7 10 15 0 11 11 15 43 15 23 0 52 3 65 6 23 7 24 15 7 100 -5 22 -43 44 -75 44 -19 0 -20 8 -20 108 0 96 -2 111 -20 127 -18 16 -28 17 -88 8 -38 -6 -71 -7 -77 -2 -5 5 -67 9 -137 9 l-128 0 0 -25z" fill="url(#linear-gradient-1-2)" id="region-1-2" transform="translate(0.000000,290.000000) scale(0.100000,-0.100000)"/><path d="M2949 2775 c-4 -5 -12 -34 -19 -63 -9 -41 -16 -52 -29 -48 -72 22 -66 28 -90 -91 -12 -59 -24 -118 -27 -130 -3 -16 0 -23 10 -23 15 0 21 16 56 150 13 52 20 65 36 65 17 0 19 -9 22 -91 l3 -91 37 -7 c20 -3 51 -6 69 -6 17 0 34 -6 37 -12 5 -10 7 -10 12 0 4 8 28 12 70 12 73 0 73 0 52 90 l-12 52 -68 -4 c-84 -6 -88 12 -7 27 53 10 54 11 57 49 2 21 -1 43 -7 49 -6 6 -11 19 -11 29 0 13 8 18 30 18 18 0 30 5 30 13 0 10 -15 11 -67 6 -38 -5 -80 -8 -95 -8 -18 -1 -28 -6 -28 -16 0 -12 13 -15 60 -15 l60 0 0 -49 0 -50 -56 -11 c-42 -9 -54 -15 -50 -27 3 -8 6 -19 6 -24 0 -5 29 -6 68 -3 l69 7 6 -48 c4 -27 6 -50 4 -51 -1 -2 -60 -6 -130 -10 l-127 -7 0 87 c0 47 4 86 9 86 12 0 34 101 29 132 -2 13 -6 19 -9 13z" fill="url(#linear-gradient-1-3)" id="region-1-3" transform="translate(0.000000,290.000000) scale(0.100000,-0.100000)"/><path d="M1762 2423 l-1743 -3 3 -66 3 -67 209 -73 c115 -41 215 -74 222 -74 12 0 14 -66 14 -375 l0 -375 -85 0 -85 0 0 -40 0 -40 2365 0 2365 0 0 24 0 23 71 -14 c39 -8 72 -13 73 -11 2 1 13 154 25 338 12 184 24 356 27 383 l6 47 84 0 84 0 0 44 0 45 -147 120 -147 121 -801 -2 c-440 -2 -1584 -4 -2543 -5z" fill="url(#linear-gradient-1-4)" id="region-1-4" transform="translate(0.000000,290.000000) scale(0.100000,-0.100000)"/><path d="M5030 1334 l0 -24 -2365 0 -2365 0 0 -170 0 -170 85 0 85 0 0 -445 0 -445 2115 0 2115 0 0 38 c0 45 37 667 46 771 l6 73 274 -7 c228 -6 274 -5 274 6 0 8 7 75 15 149 22 207 40 180 -135 216 l-150 31 0 -23z" fill="url(#linear-gradient-1-5)" id="region-1-5" transform="translate(0.000000,290.000000) scale(0.100000,-0.100000)"/><path d="M4746 889 c-9 -104 -46 -726 -46 -771 l0 -38 195 0 194 0 5 33 c8 53 57 829 53 834 -3 2 -93 7 -200 10 l-195 6 -6 -74z" fill="url(#linear-gradient-1-6)" id="region-1-6" transform="translate(0.000000,290.000000) scale(0.100000,-0.100000)"/></g><g id="layer-2"><path d="M1750 2688 c0 -90 -3 -180 -6 -200 l-7 -38 53 0 53 0 -5 112 -5 111 42 -106 c23 -59 44 -109 47 -112 2 -3 23 41 46 97 l41 103 0 -97 1 -98 60 0 60 0 0 92 c0 50 3 88 7 84 4 -4 13 -35 20 -68 19 -92 20 -93 183 -93 189 0 184 -5 185 187 0 79 -3 151 -7 161 -7 15 -25 17 -177 17 -190 0 -177 6 -187 -86 -4 -30 -10 -54 -14 -54 -10 0 -20 52 -20 101 l0 39 -68 0 -68 0 -29 -60 -29 -61 -19 66 -20 65 -68 0 -69 0 0 -162z m690 -34 c0 -64 -12 -74 -90 -74 l-70 0 0 49 c0 30 5 51 13 54 6 3 42 6 80 6 l67 1 0 -36z" fill="url(#linear-gradient-2-1)" id="region-2-1" transform="translate(0.000000,290.000000) scale(0.100000,-0.100000)"/><path d="M3336 2825 c-3 -9 -9 -65 -12 -125 l-7 -110 44 0 c58 0 65 -6 73 -62 l7 -48 -44 0 c-74 0 -167 -12 -161 -21 3 -5 25 -9 50 -9 32 0 44 -4 44 -15 0 -8 5 -15 10 -15 6 0 10 7 10 15 0 11 11 15 43 15 23 0 52 3 65 6 23 7 24 15 7 100 -5 22 -43 44 -75 44 -19 0 -20 8 -20 109 0 80 -4 112 -14 120 -11 9 -15 8 -20 -4z" fill="url(#linear-gradient-2-2)" id="region-2-2" transform="translate(0.000000,290.000000) scale(0.100000,-0.100000)"/><path d="M137 2301 l-98 -6 215 -75 216 -75 0 -377 0 -378 -85 0 -85 0 0 -40 0 -40 2365 0 2365 0 0 24 0 23 71 -14 c39 -8 72 -13 73 -11 2 1 13 154 25 338 12 184 24 356 27 382 l6 47 61 3 61 3 -149 103 -149 102 -2411 -2 c-1325 -1 -2454 -4 -2508 -7z" fill="url(#linear-gradient-2-3)" id="region-2-3" transform="translate(0.000000,290.000000) scale(0.100000,-0.100000)"/><path d="M5030 1334 l0 -24 -2365 0 -2365 0 0 -170 0 -170 2148 0 c1468 0 2257 -3 2494 -12 191 -6 350 -10 352 -7 5 5 36 285 36 323 0 19 -14 24 -150 52 l-150 31 0 -23z" fill="url(#linear-gradient-2-4)" id="region-2-4" transform="translate(0.000000,290.000000) scale(0.100000,-0.100000)"/><path d="M950 510 l0 -430 170 0 170 0 0 430 0 430 -170 0 -170 0 0 -430z" fill="url(#linear-gradient-2-5)" id="region-2-5" transform="translate(0.000000,290.000000) scale(0.100000,-0.100000)"/><path d="M4030 505 l0 -425 175 0 175 0 0 425 0 425 -175 0 -175 0 0 -425z" fill="url(#linear-gradient-2-6)" id="region-2-6" transform="translate(0.000000,290.000000) scale(0.100000,-0.100000)"/><path d="M1670 630 l0 -290 340 0 340 0 0 290 0 290 -340 0 -340 0 0 -290z" fill="url(#linear-gradient-2-7)" id="region-2-7" transform="translate(0.000000,290.000000) scale(0.100000,-0.100000)"/><path d="M2840 630 l0 -290 340 0 340 0 0 290 0 290 -340 0 -340 0 0 -290z" fill="url(#linear-gradient-2-8)" id="region-2-8" transform="translate(0.000000,290.000000) scale(0.100000,-0.100000)"/></g><g id="layer-3"><path d="M2272 2710 c-21 -9 -23 -15 -20 -67 4 -74 28 -87 28 -15 0 58 5 62 91 62 57 0 77 11 43 24 -23 9 -116 6 -142 -4z" fill="url(#linear-gradient-3-1)" id="region-3-1" transform="translate(0.000000,290.000000) scale(0.100000,-0.100000)"/><path d="M476 2163 c-3 -42 -6 -233 -6 -425 l0 -348 -85 0 -85 0 0 -40 0 -40 2365 0 2365 0 0 40 0 40 -128 0 -127 0 22 358 c12 196 22 387 22 425 l1 67 -2169 0 -2168 0 -7 -77z" fill="url(#linear-gradient-3-2)" id="region-3-2" transform="translate(0.000000,290.000000) scale(0.100000,-0.100000)"/><path d="M5030 1154 l0 -204 135 0 c101 0 135 3 135 13 0 6 7 73 15 147 22 207 40 180 -135 216 l-150 31 0 -203z" fill="url(#linear-gradient-3-3)" id="region-3-3" transform="translate(0.000000,290.000000) scale(0.100000,-0.100000)"/><path d="M1700 635 l0 -255 140 0 140 0 0 255 0 255 -140 0 -140 0 0 -255z" fill="url(#linear-gradient-3-4)" id="region-3-4" transform="translate(0.000000,290.000000) scale(0.100000,-0.100000)"/><path d="M2020 635 l0 -255 150 0 150 0 0 255 0 255 -150 0 -150 0 0 -255z" fill="url(#linear-gradient-3-5)" id="region-3-5" transform="translate(0.000000,290.000000) scale(0.100000,-0.100000)"/><path d="M2870 635 l0 -255 145 0 145 0 0 255 0 255 -145 0 -145 0 0 -255z" fill="url(#linear-gradient-3-6)" id="region-3-6" transform="translate(0.000000,290.000000) scale(0.100000,-0.100000)"/><path d="M3190 635 l0 -255 150 0 150 0 0 255 0 255 -150 0 -150 0 0 -255z" fill="url(#linear-gradient-3-7)" id="region-3-7" transform="translate(0.000000,290.000000) scale(0.100000,-0.100000)"/><path d="M1010 480 l0 -400 140 0 140 0 0 400 0 400 -140 0 -140 0 0 -400z" fill="url(#linear-gradient-3-8)" id="region-3-8" transform="translate(0.000000,290.000000) scale(0.100000,-0.100000)"/><path d="M4090 475 l0 -395 145 0 145 0 0 395 0 395 -145 0 -145 0 0 -395z" fill="url(#linear-gradient-3-9)" id="region-3-9" transform="translate(0.000000,290.000000) scale(0.100000,-0.100000)"/></g><g id="layer-4"><path d="M1670 1730 l0 -290 340 0 340 0 0 290 0 290 -340 0 -340 0 0 -290z" fill="url(#linear-gradient-4-1)" id="region-4-1" transform="translate(0.000000,290.000000) scale(0.100000,-0.100000)"/><path d="M2840 1730 l0 -290 340 0 340 0 0 290 0 290 -340 0 -340 0 0 -290z" fill="url(#linear-gradient-4-2)" id="region-4-2" transform="translate(0.000000,290.000000) scale(0.100000,-0.100000)"/><path d="M950 1695 l0 -305 30 0 30 0 0 275 0 275 140 0 140 0 0 30 0 30 -170 0 -170 0 0 -305z" fill="url(#linear-gradient-4-3)" id="region-4-3" transform="translate(0.000000,290.000000) scale(0.100000,-0.100000)"/><path d="M4030 1680 l0 -290 30 0 30 0 0 260 0 260 140 0 140 0 0 30 0 30 -170 0 -170 0 0 -290z" fill="url(#linear-gradient-4-4)" id="region-4-4" transform="translate(0.000000,290.000000) scale(0.100000,-0.100000)"/><path d="M1010 1665 l0 -275 140 0 140 0 0 275 0 275 -140 0 -140 0 0 -275z" fill="url(#linear-gradient-4-5)" id="region-4-5" transform="translate(0.000000,290.000000) scale(0.100000,-0.100000)"/><path d="M4090 1650 l0 -260 140 0 140 0 0 260 0 260 -140 0 -140 0 0 -260z" fill="url(#linear-gradient-4-6)" id="region-4-6" transform="translate(0.000000,290.000000) scale(0.100000,-0.100000)"/><path d="M300 1350 l0 -40 2365 0 2365 0 0 40 0 40 -2365 0 -2365 0 0 -40z" fill="url(#linear-gradient-4-7)" id="region-4-7" transform="translate(0.000000,290.000000) scale(0.100000,-0.100000)"/><path d="M1040 635 l0 -205 55 0 55 0 0 205 0 205 -55 0 -55 0 0 -205z" fill="url(#linear-gradient-4-8)" id="region-4-8" transform="translate(0.000000,290.000000) scale(0.100000,-0.100000)"/><path d="M1160 635 l0 -205 55 0 55 0 0 205 0 205 -55 0 -55 0 0 -205z" fill="url(#linear-gradient-4-9)" id="region-4-9" transform="translate(0.000000,290.000000) scale(0.100000,-0.100000)"/><path d="M4130 635 l0 -205 55 0 55 0 0 205 0 205 -55 0 -55 0 0 -205z" fill="url(#linear-gradient-4-10)" id="region-4-10" transform="translate(0.000000,290.000000) scale(0.100000,-0.100000)"/><path d="M4250 635 l0 -205 55 0 55 0 0 205 0 205 -55 0 -55 0 0 -205z" fill="url(#linear-gradient-4-11)" id="region-4-11" transform="translate(0.000000,290.000000) scale(0.100000,-0.100000)"/></g><g id="layer-5"><path d="M1700 1735 l0 -255 145 0 145 0 0 255 0 255 -145 0 -145 0 0 -255z" fill="url(#linear-gradient-5-1)" id="region-5-1" transform="translate(0.000000,290.000000) scale(0.100000,-0.100000)"/><path d="M2020 1735 l0 -255 150 0 150 0 0 255 0 255 -150 0 -150 0 0 -255z" fill="url(#linear-gradient-5-2)" id="region-5-2" transform="translate(0.000000,290.000000) scale(0.100000,-0.100000)"/><path d="M2870 1735 l0 -255 145 0 145 0 0 255 0 255 -145 0 -145 0 0 -255z" fill="url(#linear-gradient-5-3)" id="region-5-3" transform="translate(0.000000,290.000000) scale(0.100000,-0.100000)"/><path d="M3190 1735 l0 -255 150 0 150 0 0 255 0 255 -150 0 -150 0 0 -255z" fill="url(#linear-gradient-5-4)" id="region-5-4" transform="translate(0.000000,290.000000) scale(0.100000,-0.100000)"/><path d="M1040 1700 l0 -200 55 0 55 0 0 200 0 200 -55 0 -55 0 0 -200z" fill="url(#linear-gradient-5-5)" id="region-5-5" transform="translate(0.000000,290.000000) scale(0.100000,-0.100000)"/><path d="M1160 1700 l0 -200 55 0 55 0 0 200 0 200 -55 0 -55 0 0 -200z" fill="url(#linear-gradient-5-6)" id="region-5-6" transform="translate(0.000000,290.000000) scale(0.100000,-0.100000)"/><path d="M4120 1670 l0 -200 55 0 55 0 0 200 0 200 -55 0 -55 0 0 -200z" fill="url(#linear-gradient-5-7)" id="region-5-7" transform="translate(0.000000,290.000000) scale(0.100000,-0.100000)"/><path d="M4240 1670 l0 -200 55 0 55 0 0 200 0 200 -55 0 -55 0 0 -200z" fill="url(#linear-gradient-5-8)" id="region-5-8" transform="translate(0.000000,290.000000) scale(0.100000,-0.100000)"/></g></svg>