<?xml version="1.0" encoding="utf-8"?>
<!-- Generator: Adobe Illustrator 26.5.0, SVG Export Plug-In . SVG Version: 6.00 Build 0)  -->
<svg version="1.1" id="图层_1" xmlns="http://www.w3.org/2000/svg" xmlns:xlink="http://www.w3.org/1999/xlink" x="0px" y="0px"
	 viewBox="0 0 800 360" style="enable-background:new 0 0 800 360;" xml:space="preserve">
<style type="text/css">
	.st0{fill:none;}
	.st1{fill:#D3D3D3;}
	.st2{fill:url(#SVGID_1_);}
	.st3{fill:url(#SVGID_00000057855295128582773530000002395570818759278496_);}
	.st4{fill:url(#SVGID_00000063623444660292331730000001719902289396644519_);}
	.st5{fill:url(#SVGID_00000039840483470122235970000009648412739481719977_);}
	.st6{fill:url(#SVGID_00000083787249733485230060000004434109001186178494_);}
	.st7{fill:url(#SVGID_00000061451648841476273450000014876473457999507845_);}
	.st8{fill:url(#SVGID_00000090998671110515679120000005650477129423828152_);}
	.st9{fill:url(#SVGID_00000134211445903364096840000014495881034561911693_);}
	.st10{fill:url(#SVGID_00000129170067759837413720000005349502298336940434_);}
	.st11{fill:url(#SVGID_00000143583464284595647110000004511850402092881290_);}
	.st12{fill:url(#SVGID_00000018922876069564025330000000162304776391596981_);}
	.st13{fill:url(#SVGID_00000081629128640233298570000000019286564904597163_);}
	.st14{fill:url(#SVGID_00000026843519160397029680000007713923956037578905_);}
	.st15{fill:url(#SVGID_00000157293918517484458080000007761698901383675839_);}
	.st16{fill:url(#SVGID_00000072975516636008939870000011587205079832069522_);}
	.st17{fill:url(#SVGID_00000150820953869905488210000000189252482901854648_);}
	.st18{fill:url(#SVGID_00000176729668387909603720000017847265403412018091_);}
	.st19{fill:url(#SVGID_00000106114159269250175360000018432132959928822927_);}
	.st20{fill:url(#SVGID_00000031193538730742195650000008100004606120230281_);}
	.st21{fill:url(#SVGID_00000100349641565949873640000009628780895337771404_);}
	.st22{fill:url(#SVGID_00000137824907790888013910000014680875499496505990_);}
	.st23{fill:url(#SVGID_00000122718297855673395440000007785286670213754791_);}
	.st24{fill:url(#SVGID_00000142886165214740826380000010095293892582201477_);}
	
		.st25{fill:url(#SVGID_00000133525335021914811570000018156900003618765212_);stroke:#000000;stroke-width:1.000000e-03;stroke-miterlimit:10;}
	
		.st26{fill:url(#SVGID_00000072964643383373393540000002259999940495776958_);stroke:#000000;stroke-width:1.000000e-03;stroke-miterlimit:10;}
	.st27{fill:none;stroke:#FF0000;stroke-width:3;stroke-miterlimit:10;}
	.st28{fill:none;stroke:#3FA9F5;stroke-width:4;stroke-linecap:round;stroke-miterlimit:10;}
	.st29{fill:#3FA9F5;}
	.st30{fill:url(#SVGID_00000007414849539778888830000004941329781453787026_);stroke:#000000;stroke-miterlimit:10;}
</style>
<pattern  y="360" width="40" height="40" patternUnits="userSpaceOnUse" id="SVGID_0000014790309712476748460" viewBox="0 -40 40 40" style="overflow:visible;">
	<g>
		<rect y="-40" class="st0" width="40" height="40"/>
		<g>
			<rect y="-40" class="st0" width="40" height="40"/>
			<g>
				<rect y="-40" class="st0" width="40" height="40"/>
				<g>
					<rect y="-40" class="st0" width="40" height="40"/>
					<g>
						<rect y="-40" class="st0" width="40" height="40"/>
						<g>
							<rect y="-40" class="st0" width="40" height="40"/>
							<g>
								<rect y="-40" class="st0" width="40" height="40"/>
								<g>
									<rect y="-40" class="st0" width="40" height="40"/>
									<g>
										<rect y="-40" class="st0" width="40" height="40"/>
										<rect y="-40" class="st0" width="40" height="40"/>
										<rect y="-40" class="st1" width="20" height="20"/>
										<rect x="20" y="-20" class="st1" width="20" height="20"/>
									</g>
								</g>
							</g>
						</g>
					</g>
				</g>
			</g>
		</g>
	</g>
</pattern>
<g id="图层_1_00000157288352502879121620000001827616579138560703_">
	
		<pattern  id="SVGID_1_" xlink:href="#SVGID_0000014790309712476748460" patternTransform="matrix(0.8889 0 0 1 -6717.4424 66999.7422)">
	</pattern>
	<rect y="0.5" class="st2" width="800" height="360"/>
</g>
<g>
	<g>
		
			<linearGradient id="SVGID_00000164472496459045386320000012971591740200262564_" gradientUnits="userSpaceOnUse" x1="-547.861" y1="722.7023" x2="-548.2762" y2="723.1783" gradientTransform="matrix(82.9492 0 0 131.62 46078.625 -95109.2109)">
			<stop  offset="0" style="stop-color:#FBEFD8"/>
			<stop  offset="1" style="stop-color:#FBF0D9"/>
		</linearGradient>
		<path style="fill:url(#SVGID_00000164472496459045386320000012971591740200262564_);" d="M615.6,12c-0.8,0.1-3,0.7-4.9,1.2
			c-4.5,1.2-8,4.3-8.5,7.6c-0.7,3.8-0.4,7.6,0.7,9.9c0.9,2,6,8,6.9,8c0.5,0,8.2,8.1,9,9.5c3.5,6.4,4.1,8.6,3.5,13
			c-0.4,3.2-0.8,4.7-2.2,9.4c-0.8,2.4-4.6,10.2-6.2,12.6c-1.3,1.9-0.8,1.9,3.2,0.2c3.7-1.6,10-7.4,11.1-10.2
			c0.5-1.1,1.6-2.8,2.4-3.9c0.9-1.1,1.6-2.2,1.6-2.4c0-0.2,0.9-2.1,1.9-4.3c2.4-4.9,2.5-8.1,0.5-12.5c-0.8-1.7-1.7-3-1.9-3
			s-2.4-1.8-4.8-3.9c-2.4-2.2-4.9-4.4-5.7-4.8c-0.8-0.5-2-1.6-2.8-2.3c-0.8-0.8-2.1-1.8-2.9-2.3c-1.6-1.1-2.5-4.8-1.6-6.8
			c0.3-0.6,0.7-1.6,0.9-2.1c0.3-1.2,3.5-2.5,7.3-3.1c3.5-0.6,9.7,0.6,12.3,2.2c1.1,0.7,2.9,1.7,4,2.2c1.1,0.5,3,1.7,4.3,2.7
			c2.5,1.9,4,1.9,4-0.1c0-2.1-6.3-9.7-10.8-13C633.6,13.3,620.8,11.1,615.6,12z"/>
	</g>
	<g>
		
			<linearGradient id="SVGID_00000022526345459229591760000015662463493989043848_" gradientUnits="userSpaceOnUse" x1="-556.8699" y1="720.7964" x2="-556.8755" y2="721.35" gradientTransform="matrix(539.9464 0 0 344.2262 301301 -248007.0938)">
			<stop  offset="0" style="stop-color:#868686"/>
			<stop  offset="1" style="stop-color:#C6C6C6"/>
		</linearGradient>
		<path style="fill:url(#SVGID_00000022526345459229591760000015662463493989043848_);" d="M733.1,110.8c-0.2,1.5-2.6,4.3-5.6,6.4
			c-10.8,7.4-35.4,12.7-69.5,14.9c-14.9,1-63,1.2-77.3,0.3c-20.6-1.3-37.3-3.5-51-6.9c-12.5-3.1-20.3-6.8-24.9-11.7l-2.3-2.5
			l0.3,6.3c0.5,8.9,1.8,19.3,4.3,35.4c2.3,14.6,8.5,35.3,15,50.5c1.6,3.5,2.6,6.7,2.4,7c-0.2,0.3-1.3,0.7-2.4,0.9
			c-4.8,0.9-22,7.5-28.8,11.1c-11.2,5.9-18.2,12.2-21.8,19.5c-1.9,3.7-2.1,4.6-2.1,8.4c0,3.8,0.2,4.7,2,8.4
			c4.3,8.7,15.1,16.8,32.3,24.2c9.5,4.1,29.4,9.6,45.4,12.5c42.8,7.8,96.7,7.8,139.5,0c27-4.9,48.6-12.3,62.8-21.6
			c11.2-7.3,16.7-14.8,16.8-23.5c0.1-3.9-0.1-4.5-2.2-8.6c-3.7-7.1-9-12-19.9-18.2c-7.5-4.3-22-10-31.4-12.4c-2-0.6-3.8-1.2-3.9-1.6
			c-0.4-1.1,2.3-4.4,3.5-4.2c0.6,0.1,5,0.3,9.9,0.5c9.5,0.3,11.6,0,19-3c5.3-2.1,11-7.9,13-13.1c2.5-6.7,2.9-8.5,2.8-16.6
			c-0.1-20.2-6.5-29.8-20.8-31.3c-2.5-0.2-5.2-0.3-6-0.2c-0.9,0.2-1.6,0.2-1.6,0.1s0.3-3.3,0.8-7.1c1.4-12.5,2.1-20.7,1.9-22.7
			C733.3,110.8,733.1,110.3,733.1,110.8z"/>
	</g>
	<g>
		
			<linearGradient id="SVGID_00000079452653570800709840000010686588995467472533_" gradientUnits="userSpaceOnUse" x1="-555.9984" y1="727.7114" x2="-555.9984" y2="727.2408" gradientTransform="matrix(345.9593 0 0 35.1773 192987.2188 -25441.0664)">
			<stop  offset="0" style="stop-color:#121212"/>
			<stop  offset="1" style="stop-color:#4F4F4F"/>
		</linearGradient>
		<path style="fill:url(#SVGID_00000079452653570800709840000010686588995467472533_);" d="M728.4,139.6c-4.3,3.1-16.1,7.8-23.7,9.3
			c-13.4,2.7-23.8,4.2-37.9,5.3c-43.7,3.5-89.1,2.3-126.3-3.4c-1.6-0.2-1.8-0.1-1.8,0.8c0,1.3-0.8,1.1,11.6,2.9
			c14,1.9,24.6,2.8,44.8,3.4c33.4,1,66.2-0.1,86.4-2.9c4.4-0.6,9.6-1.3,11.6-1.6c2-0.3,4.1-0.6,4.7-0.8s4.2-1.1,8-2
			c9.6-2.4,18.3-6.1,22.7-9.9C730.8,138.9,730.7,138,728.4,139.6z"/>
	</g>
	<g>
		
			<linearGradient id="SVGID_00000175280330024787031290000014125809641472067487_" gradientUnits="userSpaceOnUse" x1="-556.3903" y1="724.0687" x2="-556.3903" y2="723.5151" gradientTransform="matrix(416.5085 0 0 83.7131 232359.25 -60481.1289)">
			<stop  offset="0" style="stop-color:#C0C0C0"/>
			<stop  offset="1" style="stop-color:#CECECE"/>
		</linearGradient>
		<path style="fill:url(#SVGID_00000175280330024787031290000014125809641472067487_);" d="M591,87.3c-43,2.3-69.3,7.3-81.8,15.2
			c-3.4,2.2-6.5,5.8-6.5,7.5c0,1.6,3.7,5.6,7.1,7.9c11.2,7.1,37,12.3,71,14.4c14.3,0.9,62.3,0.7,77.3-0.3
			c34.2-2.2,58.7-7.5,69.5-14.9c2.9-2,5.1-4.5,5.7-6.7c0.5-1.6-2.2-5-5.9-7.6c-9.4-6.4-30.2-11.3-58.6-13.9
			C641.8,86.5,615.5,86,591,87.3z"/>
	</g>
	<g>
		
			<linearGradient id="SVGID_00000075878614693043171880000015003121413092223900_" gradientUnits="userSpaceOnUse" x1="-552.3418" y1="728.3754" x2="-552.3418" y2="727.8218" gradientTransform="matrix(142.7398 0 0 35.6682 79458.7656 -25854.5449)">
			<stop  offset="0" style="stop-color:#7A583B"/>
			<stop  offset="1" style="stop-color:#91755C"/>
		</linearGradient>
		<path style="fill:url(#SVGID_00000075878614693043171880000015003121413092223900_);" d="M592,105.7c-11.1,0.3-11.8,0.4-13,1.6
			c-1.1,1.1-1.2,1.4-0.5,2.9c1,2.4,4.7,6,8.4,8.2c7.6,4.5,17.8,6.8,30.1,6.9c12.3,0.1,20-1.5,29-5.7c6.7-3.2,12.5-9.6,10.9-12.1
			c-0.2-0.3-1.3-0.8-2.4-1.1C651.9,105.7,607.9,105.2,592,105.7z"/>
	</g>
	<g>
		
			<linearGradient id="SVGID_00000011746443281771147180000002194914843259358394_" gradientUnits="userSpaceOnUse" x1="-556.2919" y1="726.7343" x2="-556.2919" y2="726.1807" gradientTransform="matrix(398 0 0 46.8856 222022 -33955.2852)">
			<stop  offset="0" style="stop-color:#6C6966"/>
			<stop  offset="1" style="stop-color:#D5D5D5"/>
		</linearGradient>
		<path style="fill:url(#SVGID_00000011746443281771147180000002194914843259358394_);" d="M581.3,93c-35.8,2.2-54.4,5.2-65.4,10.4
			c-4.3,2-8.2,5.3-8.2,6.9c0,1.3,4.9,5.2,8.3,6.6c3.5,1.4,3.7,1.4,4.4,0.4c2.3-2.8,9.1-5.4,22.1-8.2c3.2-0.7,20-2.6,29.6-3.4
			c9.2-0.7,83.9-0.7,92.5,0c10.9,0.9,26.1,2.8,30.3,3.6c10.5,2.2,18.1,5.1,20.2,7.6c0.8,1,1.3,1.2,2.4,0.9
			c4.7-1.3,10.5-5.6,10.5-7.7c0-1.5-2-3.8-4.6-5.3c-8.8-5.1-27.9-9.1-52.7-10.9c-4.6-0.3-11.3-0.9-14.9-1.2
			c-3.7-0.3-18.2-0.7-32.4-0.8C603.1,92.1,594.1,92.2,581.3,93z"/>
	</g>
	<g>
		
			<linearGradient id="SVGID_00000145771242809166391730000014217546208638502318_" gradientUnits="userSpaceOnUse" x1="-530.2219" y1="733.6326" x2="-530.1887" y2="733.5052" gradientTransform="matrix(34 0 0 18.9664 18542.0039 -13770.1094)">
			<stop  offset="0" style="stop-color:#080808"/>
			<stop  offset="1" style="stop-color:#6C6C6C"/>
		</linearGradient>
		<path style="fill:url(#SVGID_00000145771242809166391730000014217546208638502318_);" d="M505.5,138.4c0,1.2,6.5,5.6,11.3,7.8
			c6.9,3,7.5,3.2,7.5,1.8c0-0.8-0.9-1.3-4-2.3c-4.7-1.5-10.9-4.5-13.2-6.5C506.2,138.4,505.5,138.1,505.5,138.4z"/>
	</g>
	<g>
		
			<linearGradient id="SVGID_00000020389961764997780790000004313013068145546391_" gradientUnits="userSpaceOnUse" x1="-555.7172" y1="722.8428" x2="-555.7172" y2="722.2836" gradientTransform="matrix(315.497 0 0 75.3116 175946.0469 -54159.0312)">
			<stop  offset="0" style="stop-color:#6C6C6C"/>
			<stop  offset="1" style="stop-color:#B3B3B3"/>
		</linearGradient>
		<path style="fill:url(#SVGID_00000020389961764997780790000004313013068145546391_);" d="M687.5,243.3c-3.2,3.1-6.5,6.1-7.4,6.8
			c-5.9,4.3-8.7,6.3-12.2,8.2c-4.1,2.3-13.8,6.9-14.7,6.9c-0.3,0-1.2,0.3-2,0.7c-0.8,0.3-1.8,0.7-2.1,0.7c-0.3,0.1-1.9,0.6-3.7,1.1
			c-2.8,0.8-10.6,2.3-15.4,2.8c-2.3,0.3-21.6,0.3-24.1,0.1c-0.9-0.1-2.5-0.3-3.6-0.5c-1.1-0.2-3.3-0.6-5-0.8
			c-1.7-0.3-3.7-0.7-4.5-0.9c-0.8-0.2-1.8-0.4-2.2-0.5c-0.4-0.1-1.5-0.4-2.4-0.8c-0.9-0.3-2-0.7-2.5-0.8c-0.5-0.1-1.4-0.3-2-0.6
			c-0.6-0.3-2-0.8-3-1.2c-6.6-2.4-18.9-9.5-24.2-14c-4.6-3.8-7.5-6.4-10.1-9.1l-2.8-2.9l-3.1,1.6c-3.6,1.9-7.7,6.3-8.6,9.2
			c-2.6,8.6,8.7,17.1,30.8,22.9c8,2.1,33.3,5.6,52.9,7.3c6.5,0.6,36.1-2.7,52.8-5.9c7.8-1.4,18.3-4.8,23.9-7.5
			c11.1-5.4,15.4-10.9,13.6-16.9c-0.8-2.8-5.8-7.9-9.7-9.9l-2.9-1.4L687.5,243.3z"/>
	</g>
	<g>
		
			<linearGradient id="SVGID_00000166672201043166829560000003255546946816551098_" gradientUnits="userSpaceOnUse" x1="-556.011" y1="727.0408" x2="-556.011" y2="727.6054" gradientTransform="matrix(353 0 0 39.648 196890 -28720.4277)">
			<stop  offset="0" style="stop-color:#5C3412"/>
			<stop  offset="1" style="stop-color:#613A19"/>
		</linearGradient>
		<path style="fill:url(#SVGID_00000166672201043166829560000003255546946816551098_);" d="M570.8,105.8c-23.8,1.9-39.4,4.9-46.7,9
			c-2,1.2-3.7,2.4-3.7,2.8c0,1.6,18.9,5.6,32.8,7c19.7,1.9,28.4,2.3,56.1,2.6c50.2,0.5,82.1-1.9,103.4-8c1.7-0.5,3.2-1.1,3.2-1.3
			c0-0.2-0.6-0.9-1.2-1.5c-4.2-3.8-16.2-7-33.5-9c-16.7-1.9-22.7-2.3-36.2-2.2l-13,0.1l11.3,0.3c11.5,0.3,13.8,0.8,13.8,2.5
			c0,3.2-5.1,8.4-11.2,11.3c-8.9,4.2-16.6,5.8-28.9,5.7c-12.2-0.1-22.5-2.4-30.1-6.9c-3.7-2.2-7.4-5.8-8.4-8.2
			c-0.7-1.6-0.6-1.8,0.5-2.9c1.1-1.2,1.8-1.2,13-1.6l11.7-0.3l-13.6-0.1C582.7,105.4,574,105.6,570.8,105.8z"/>
	</g>
	<g>
		
			<linearGradient id="SVGID_00000107574794262501837450000002409647312978605962_" gradientUnits="userSpaceOnUse" x1="-555.9985" y1="727.439" x2="-555.9985" y2="727.0072" gradientTransform="matrix(345.9783 0 0 36 192997.875 -26026)">
			<stop  offset="0" style="stop-color:#050505"/>
			<stop  offset="1" style="stop-color:#313131"/>
		</linearGradient>
		<path style="fill:url(#SVGID_00000107574794262501837450000002409647312978605962_);" d="M728.4,143.9c-2.3,1.8-9.9,5.4-15.1,7.1
			c-8.4,2.8-26,6-40.4,7.3c-16.2,1.4-23.1,1.8-47.9,2c-25.5,0.3-41.8-0.2-55.3-1.5c-2.9-0.3-8.2-0.8-11.9-1.1
			c-3.7-0.3-9.2-1.1-12.3-1.7c-7-1.3-6.8-1.3-6.8,0c0,0.7,0.4,1.2,1.3,1.4c1.2,0.3,13.9,2,22.5,3c9,1.1,36.4,2.2,55.4,2.2
			c50.9,0,85-4.3,103-13c3.5-1.7,10.5-7,9.2-7C729.9,142.9,729.2,143.4,728.4,143.9z"/>
	</g>
	<g>
		
			<linearGradient id="SVGID_00000175306064527315172830000007323750899165659784_" gradientUnits="userSpaceOnUse" x1="-556.8741" y1="722.1083" x2="-556.8741" y2="721.5492" gradientTransform="matrix(540 0 0 101.8064 301331 -73203.6953)">
			<stop  offset="0" style="stop-color:#333333"/>
			<stop  offset="1" style="stop-color:#ACACAC"/>
		</linearGradient>
		<path style="fill:url(#SVGID_00000175306064527315172830000007323750899165659784_);" d="M469.5,255.6c0,3.1,3.7,9.7,7.5,13.5
			c1.4,1.3,2.5,2.7,2.5,3.1c0,0.8,5.9,6.9,9.4,9.7c13.2,10.6,40.7,20.4,70.6,25.1c15.8,2.4,21.9,3.1,37.4,4
			c39.5,2.3,80.9-1.7,112.1-10.7c16.7-4.8,32.1-11.8,40-18.3c4.8-3.9,9.5-9,8.9-9.7c-0.1-0.1,1.2-1.3,2.7-2.8
			c4-3.8,7.9-10.6,7.9-13.9c0-0.8-0.4-0.3-1.2,1.3c-3,6.5-7.8,11.7-15.7,16.8c-14.3,9.2-35.9,16.7-62.8,21.6
			c-42.8,7.8-96.7,7.8-139.5,0c-16-2.9-35.9-8.4-45.4-12.5c-17.2-7.4-28-15.5-32.3-24.2C470.4,256.4,469.5,255,469.5,255.6z"/>
	</g>
	<g>
		
			<linearGradient id="SVGID_00000109720896896773899500000013454384154734230400_" gradientUnits="userSpaceOnUse" x1="-557.151" y1="722.0831" x2="-556.5974" y2="722.0831" gradientTransform="matrix(540.0109 0 0 87.5494 301337.125 -62938.2812)">
			<stop  offset="0" style="stop-color:#FFFFFF;stop-opacity:0.9145"/>
			<stop  offset="1" style="stop-color:#FFFFFF;stop-opacity:0.9145"/>
		</linearGradient>
		<path style="fill:url(#SVGID_00000109720896896773899500000013454384154734230400_);" d="M469.5,255.6c0,5.3,7,14.3,15.3,19.8
			c1.8,1.2,3.9,2.6,4.8,3.2c4,2.8,20.5,9.9,27.1,11.7c1.6,0.4,5.2,1.4,7.9,2.2c17.8,5,37.3,8.2,62.3,10.4
			c11.3,0.9,43.7,1.3,54.5,0.6c22.2-1.4,23.5-1.6,44.8-4.8c7.2-1.1,26-5.5,33.9-7.9c25.7-7.9,43.4-19.9,47.7-32.1
			c1.1-3.2,0.8-4.5-0.5-1.7c-3,6.5-7.8,11.7-15.7,16.8c-14.3,9.2-35.9,16.7-62.8,21.6c-42.8,7.8-96.7,7.8-139.5,0
			c-16-2.9-35.9-8.4-45.4-12.5c-17.2-7.4-28-15.5-32.3-24.2C470.4,256.4,469.5,255,469.5,255.6z"/>
	</g>
	<g>
		
			<linearGradient id="SVGID_00000043423480670261782280000001498241280774337669_" gradientUnits="userSpaceOnUse" x1="-556.9034" y1="721.1619" x2="-556.3499" y2="721.1619" gradientTransform="matrix(463.5097 0 0 332.4591 258632.7344 -239578.2344)">
			<stop  offset="0" style="stop-color:#FFFFFF;stop-opacity:0.5805"/>
			<stop  offset="1" style="stop-color:#FFFFFF;stop-opacity:0.5805"/>
		</linearGradient>
		<path style="fill:url(#SVGID_00000043423480670261782280000001498241280774337669_);" d="M591,87.3c-49.7,2.7-77.4,8.9-86.4,19.3
			l-2,2.3l0.3,7.5c0.4,9.4,1.6,18.9,4.3,36.5c0.8,5.1,4.1,19.2,6.1,26c5.5,18.7,13.3,35.8,21.9,48.2c5.1,7.4,6,8.6,7.4,10.1
			c0.7,0.8,2.4,2.6,3.8,4.1c2.3,2.5,5.5,5.4,10.1,9.2c5.3,4.4,17.7,11.5,24.2,14c1.1,0.4,2.4,0.9,3,1.2c0.6,0.2,1.5,0.4,2,0.6
			c0.5,0.1,1.6,0.5,2.5,0.8c0.9,0.4,1.9,0.7,2.4,0.8c0.4,0.1,1.4,0.3,2.2,0.5c0.8,0.2,2.8,0.6,4.5,0.9c1.7,0.3,3.9,0.6,5,0.8
			c1.1,0.2,2.7,0.4,3.6,0.5c2.4,0.2,21.8,0.2,24.1-0.1c4.8-0.5,12.6-1.9,15.4-2.8c1.7-0.5,3.4-0.9,3.7-1.1c0.3-0.1,1.3-0.4,2.1-0.7
			c0.9-0.4,1.8-0.7,2-0.7c0.8,0,10.6-4.6,14.7-6.9c3.4-1.9,6.5-4,12.2-8.2c5.9-4.4,18.1-18.1,22.3-25c5.3-8.8,7.6-13,8.5-15.4
			c1.6-4.2,2.4-4.8,5.5-4.2c4.4,0.9,17,0.7,20.4-0.3c7.3-2.1,10-3.6,14.1-7.6c3.3-3.3,4.3-4.6,5.4-7.8c2.5-6.7,2.9-8.5,2.8-16.6
			c-0.1-20.2-6.5-29.8-20.8-31.3c-2.5-0.2-5.3-0.3-6.1-0.2l-1.6,0.3l0.3-2.6c1.3-10.4,2.5-23.5,2.5-27c0-2.5-0.3-3.5-1.6-5.3
			c-6.3-8.6-28.7-15.1-63.2-18.2C641.8,86.5,615.5,86,591,87.3z M664.6,105.8c24.2,2,39.2,4.8,46.4,8.4c2.3,1.2,4.8,3.1,4.8,3.8
			c0,0.8-12.1,3.7-21.6,5.3c-7.4,1.2-27.3,2.9-42.6,3.7c-17.5,0.8-67.9,0.3-82.2-0.8c-21.2-1.8-27.6-2.5-37.6-4.8
			c-7.9-1.7-11.3-2.8-11.3-3.6c0-0.4,1.7-1.7,3.7-2.8c7.3-4,22.9-7,46.7-9C579.2,105.2,656.6,105.1,664.6,105.8z M537.6,139.3
			c1,0.3,1.1,0.9,1.1,5.7v5.4l3.5,0.7c21,3.9,67.5,6,101,4.6c26.8-1.2,43-2.9,61.6-6.7c7.6-1.6,19.3-6.1,23.8-9.4
			c2.4-1.7,2-0.4-0.4,1.6c-4.7,3.7-12.8,7.2-22.4,9.5c-3.7,0.9-7.3,1.8-7.9,2s-2.7,0.5-4.7,0.8c-2,0.3-7.2,1-11.6,1.6
			c-20.2,2.8-52.9,3.9-86.4,2.9c-20.2-0.6-31.1-1.4-44.6-3.4c-4.3-0.6-8.7-1.2-9.8-1.4c-1.8-0.2-2.1-0.1-2.1,0.7
			c0,0.9,0.9,1.2,6.3,2.2c3.4,0.7,9.2,1.4,12.8,1.8c3.7,0.3,9,0.8,11.9,1.1c13.5,1.3,29.8,1.8,55.3,1.5c24.8-0.3,31.8-0.6,47.9-2
			c14.4-1.3,32.1-4.5,40.4-7.3c4.9-1.6,13-5.4,14.7-6.8c1.3-1.1,2.4-1.7,2-1.1c-0.7,1.2-6.5,5.3-9.2,6.6
			c-13.5,6.5-35.9,10.5-67.8,12.1c-20.5,1.1-49.9,1.1-70,0c-15.3-0.8-20.6-1.3-36.9-3.6c-16.9-2.3-31.3-7.3-37.5-13l-2.8-2.5l3,1.9
			c4.7,2.9,7.3,4.2,11.9,5.6l4.2,1.3v-1.2c0-1-0.5-1.4-2.3-1.9c-6.4-1.9-17.1-8.2-17.1-10.1c0-0.3,0.6-0.1,1.3,0.6
			c1.9,1.7,8,4.9,12.6,6.5c4.9,1.7,5.1,1.7,4.7,0.4c-0.1-0.5-0.4-2.8-0.6-5.1l-0.3-4.2l6.7,1.3C533.5,138.3,537,139.1,537.6,139.3z
			 M738.7,158.1c3.1,1.4,4.7,4.6,5.3,10.4c0.5,5,0,9.5-1.3,12c-3,5.6-10.4,9.4-20,10.1c-2.5,0.2-3.5,0.1-3.5-0.4
			c0-0.4,0.6-2.5,1.4-4.8c0.8-2.3,1.7-5.4,2.2-6.9c0.4-1.6,1.4-5.1,2.2-8c0.8-2.9,1.8-7,2.3-9.1c0.4-2.1,1.1-4.1,1.4-4.3
			C729.8,156.4,736.4,157,738.7,158.1z"/>
	</g>
	<g>
		
			<linearGradient id="SVGID_00000156580759022907634790000007100221235566750362_" gradientUnits="userSpaceOnUse" x1="-556.4338" y1="727.4456" x2="-555.8802" y2="727.4456" gradientTransform="matrix(371.8557 0 0 35.1773 207437.4219 -25441.0664)">
			<stop  offset="0" style="stop-color:#000000;stop-opacity:0.3285"/>
			<stop  offset="1" style="stop-color:#000000;stop-opacity:0.3285"/>
		</linearGradient>
		<path style="fill:url(#SVGID_00000156580759022907634790000007100221235566750362_);" d="M728.4,139.6c-4.3,3.1-16.1,7.8-23.7,9.3
			c-18.7,3.8-34.8,5.5-61.6,6.7c-35.2,1.6-80.2-0.7-103.4-5c-9.1-1.7-11.2-2.2-13.5-3c-2.1-0.8-2.1-0.8-1.9,0.4
			c0.2,1.1,1,1.4,8.5,3.3c15.7,3.8,34.4,5.8,62.3,6.6c33.4,1,66.2-0.1,86.4-2.9c4.4-0.6,9.6-1.3,11.6-1.6c2-0.3,4.1-0.6,4.7-0.8
			s4.2-1.1,8-2c9.6-2.4,18.3-6.1,22.7-9.9C730.8,138.9,730.7,138,728.4,139.6z"/>
	</g>
	<g>
		
			<linearGradient id="SVGID_00000021086652803000191940000001093883154520780974_" gradientUnits="userSpaceOnUse" x1="-530.6458" y1="733.8273" x2="-530.0922" y2="733.8273" gradientTransform="matrix(34.1621 0 0 18.3343 18634.4395 -13305.7471)">
			<stop  offset="0" style="stop-color:#000000;stop-opacity:0.6981"/>
			<stop  offset="1" style="stop-color:#000000;stop-opacity:0.6981"/>
		</linearGradient>
		<path style="fill:url(#SVGID_00000021086652803000191940000001093883154520780974_);" d="M506.8,144c1.9,2.2,6,4.8,10.7,6.9
			c6.6,2.9,7.9,3.2,7.9,1.9c0-0.8-0.9-1.4-4.4-2.4c-4.9-1.6-7.6-2.8-12.2-5.8C506.6,143.3,506,143,506.8,144z"/>
	</g>
	<g>
		
			<linearGradient id="SVGID_00000027572926924389444860000012086989947728483203_" gradientUnits="userSpaceOnUse" x1="-541.3794" y1="724.1425" x2="-540.8257" y2="724.1425" gradientTransform="matrix(45.2395 0 0 61.4727 25210.8828 -44341.1602)">
			<stop  offset="0" style="stop-color:#FFFFFF;stop-opacity:0.9907"/>
			<stop  offset="1" style="stop-color:#FFFFFF;stop-opacity:0.9907"/>
		</linearGradient>
		<path style="fill:url(#SVGID_00000027572926924389444860000012086989947728483203_);" d="M728.7,157.2c-0.4,0.2-1.1,2.2-1.4,4.3
			c-0.4,2.1-1.4,6.2-2.3,9.1c-0.8,2.9-1.8,6.5-2.2,8c-0.4,1.5-1.4,4.6-2.2,6.9c-0.8,2.3-1.4,4.4-1.4,4.8c0,1.6,11.2-0.4,16.2-2.9
			c7.1-3.6,9.6-9.2,8.7-18.9c-0.6-5.8-2.2-9-5.3-10.4C736.4,157,729.8,156.4,728.7,157.2z"/>
	</g>
	<g>
		
			<linearGradient id="SVGID_00000014608948856218687970000003402897178849666731_" gradientUnits="userSpaceOnUse" x1="-520.647" y1="747.6866" x2="-520.0934" y2="747.6866" gradientTransform="matrix(24.8699 0 0 8.8808 13473.2725 -6487.9751)">
			<stop  offset="0" style="stop-color:#FEFEFE;stop-opacity:0.6444"/>
			<stop  offset="1" style="stop-color:#FEFEFE;stop-opacity:0.6444"/>
		</linearGradient>
		<path style="fill:url(#SVGID_00000014608948856218687970000003402897178849666731_);" d="M524.8,150.6c0,1.3,0.6,1.6,7.9,3
			c5.9,1.2,6,1.2,5.8,0.2c-0.1-0.9-1.3-1.4-6.3-2.7C524.9,149.2,524.8,149.2,524.8,150.6z"/>
	</g>
	<g>
		
			<linearGradient id="SVGID_00000052095725989984645510000016200610313868481983_" gradientUnits="userSpaceOnUse" x1="-519.2213" y1="746.1194" x2="-518.6677" y2="746.1194" gradientTransform="matrix(23.9673 0 0 9.3453 12969.7129 -6818.1489)">
			<stop  offset="0" style="stop-color:#000000;stop-opacity:0.3013"/>
			<stop  offset="1" style="stop-color:#000000;stop-opacity:0.3013"/>
		</linearGradient>
		<path style="fill:url(#SVGID_00000052095725989984645510000016200610313868481983_);" d="M525.4,152.8c0,1.1,0.8,1.5,8.1,3.3
			c5.5,1.4,5.3,1.4,5-0.2c-0.2-1.1-0.8-1.3-5.7-2.3c-3-0.7-6-1.3-6.5-1.6C525.7,151.8,525.4,152.1,525.4,152.8z"/>
	</g>
	<g>
		
			<linearGradient id="SVGID_00000176753057678209987490000004906632817290928810_" gradientUnits="userSpaceOnUse" x1="-525.0598" y1="730.6333" x2="-524.5062" y2="730.6333" gradientTransform="matrix(28.1441 0 0 24.5348 15300.4746 -17782.7324)">
			<stop  offset="0" style="stop-color:#FFFFFF;stop-opacity:0.6751"/>
			<stop  offset="1" style="stop-color:#FFFFFF;stop-opacity:0.6751"/>
		</linearGradient>
		<path style="fill:url(#SVGID_00000176753057678209987490000004906632817290928810_);" d="M523.5,140.6c0.6,6.9,0.3,6.6,8.6,8.4
			c7.1,1.6,6.6,1.9,6.6-4.2c0-6.1,0.9-5.3-8.9-7.2l-6.7-1.3L523.5,140.6z"/>
	</g>
</g>
<g transform="translate(0.000000,650.000000) scale(0.100000,-0.100000)">
	<g>
		
			<linearGradient id="SVGID_00000145758583568240392480000012525267268559292341_" gradientUnits="userSpaceOnUse" x1="-114834.0703" y1="6870965.5" x2="-114836.0859" y2="6870663" gradientTransform="matrix(5.400000e-06 0 0 3.876000e-06 -231831.2344 -214810.4062)">
			<stop  offset="0" style="stop-color:#7F7F7F"/>
			<stop  offset="1" style="stop-color:#CACACA"/>
		</linearGradient>
		<path style="fill:url(#SVGID_00000145758583568240392480000012525267268559292341_);" d="M1836.9,5532.6
			c-502.9-27.4-783.4-89.6-874.2-194.9l-20.2-23l2.8-75.6c3.9-94.6,15.7-191,43.7-369.6c23-147.3,85.7-357.3,151.8-510.7
			c15.7-35.8,26.3-67.8,24.6-71.1c-2.2-3.4-12.9-7.3-24.6-9.5c-48.7-9-222.3-75.6-291.2-112c-113.1-59.9-184.2-123.2-221.2-197.1
			c-18.5-37.5-20.7-46.5-20.7-85.1s2.2-47.6,20.7-84.6c43.7-87.9,152.3-169.7,326.5-244.7c95.8-41.4,297.4-96.9,459.2-126.6
			c432.9-79,978.3-79,1411.2,0c272.7,49.8,491.1,124.9,635.6,218.4c113.7,73.4,168.6,150.1,170.2,238c1.1,39.2-0.6,45.4-21.8,86.8
			c-37,72.2-91.3,121.5-201,183.7c-76.2,43.7-222.3,100.8-318.1,125.4c-20.7,5.6-38.1,12.3-39.2,15.7c-3.9,11.2,23.5,44.2,35.3,42.6
			c5.6-1.1,50.4-3.4,99.7-5c95.8-3.4,117,0,192.6,30.8c53.2,21.3,111.4,80.1,131,132.7c25.8,67.8,29.1,86.2,28.6,168
			c-0.6,203.8-65.5,301.3-210.6,316.4c-25.2,2.2-53.2,3.4-61.6,1.7l-16.2-3.4l3.4,26.3c13.4,105.3,25.8,237.4,25.8,272.7
			c0,25.8-2.8,35.3-15.7,53.2c-63.8,87.4-290.6,152.9-639.5,183.7C2350.9,5540.4,2084.4,5546,1836.9,5532.6z"/>
	</g>
</g>
<g transform="translate(0.000000,650.000000) scale(0.100000,-0.100000)">
	<g>
		
			<linearGradient id="SVGID_00000027578425530617821760000011338478097533195667_" gradientUnits="userSpaceOnUse" x1="2655.395" y1="1665483" x2="2655.395" y2="1665669.375" gradientTransform="matrix(3.329000e-06 0 0 3.472000e-07 -158228.625 12276.3193)">
			<stop  offset="0" style="stop-color:#0E0E0E"/>
			<stop  offset="1" style="stop-color:#2E2E2E"/>
		</linearGradient>
		<path style="fill:url(#SVGID_00000027578425530617821760000011338478097533195667_);" d="M3387.3,6133.4
			c-30.8-22.4-76.7-43.7-141.7-65.5s-81.8-25.8-170.8-42.6c-180.9-34.7-510.2-59.4-793-59.4c-234.1,0-595.8,21.3-723,43.1
			c-15.7,2.2-18.5,1.1-18.5-8.4s6.2-11.8,43.7-17.4c188.7-28,333.8-35.8,692.7-35.8c344.4-0.6,453,5,635.6,30.2
			c44.8,6.2,97.4,13.4,117.6,16.2c20.2,2.8,41.4,6.2,47.6,7.8c6.2,1.7,42.6,10.6,81.2,20.2c96.9,24.1,184.8,62.2,229.6,100.2
			C3410.9,6140.7,3410.3,6149.6,3387.3,6133.4z"/>
	</g>
</g>
<g transform="translate(0.000000,650.000000) scale(0.100000,-0.100000)">
	<g>
		
			<linearGradient id="SVGID_00000052789712700710382250000016066231462285723268_" gradientUnits="userSpaceOnUse" x1="1520400" y1="5769.9297" x2="1520586.5" y2="5769.9297" gradientTransform="matrix(3.330000e-06 0 0 3.588000e-07 -158241.8906 11451.5508)">
			<stop  offset="0" style="stop-color:#000000;stop-opacity:0.9061"/>
			<stop  offset="1" style="stop-color:#000000;stop-opacity:0.9061"/>
		</linearGradient>
		<path style="fill:url(#SVGID_00000052789712700710382250000016066231462285723268_);" d="M3367.3,5859.7
			c-23-17.9-99.7-54.3-152.9-72.2c-51-17.4-215-51.5-296.8-62.2c-51-6.2-144.5-15.1-254.8-23.5c-122.1-9.5-594.2-12.9-726.3-5.6
			c-161.8,9-386.4,29.7-407.7,37.5c-5.6,2.2-8.4,0-8.4-7.8c0-12.9,0.6-13.4,126-29.1c207.2-26.3,642.9-35.3,957.6-19.6
			c323.1,16.2,549.4,56.6,686,122.6c35.8,17.4,106.4,70.6,93.5,70.6C3382.5,5870.4,3375.2,5865.3,3367.3,5859.7z"/>
	</g>
</g>
<g transform="translate(0.000000,650.000000) scale(0.100000,-0.100000)">
	<g>
		<g>
			<g>
				<g>
					<path id="SVGID_00000088132694634120131830000011467056303484684426_" d="M1380.3,5997.2c-5.7,0-13.6,0.9-25.2,2.4
						c-37,5-150.5,31.9-199.8,48.4c-19.8,6.2-33.1,12.8-33.1,24.3v2.4c-0.1,3.7-0.2,7.6,3.1,10c4.7,3.5,10.4,1.6,41.9-9l8.1-2.7
						c22.1-7,68.5-18.8,102.3-25c109.5-20.9,117.8-22.8,117.8-37.9c0-3.1-0.4-7.1-3.5-9.8
						C1389.5,5998.1,1386.1,5997.2,1380.3,5997.2z M1132.2,6076.2c0-0.4,0-0.8,0-1.2v-2.7c0-4.4,8.6-9.3,26.2-14.8
						c48.9-16.4,161.4-43,198-48c9.8-1.2,26.4-3.4,28.9-1.7l0,0c-0.1,0,0.1,0.6,0.1,2.3c0,6.6-18,10.6-109.6,28.1
						c-34.2,6.3-81.2,18.2-103.6,25.3l-8.2,2.7C1148.1,6071.6,1136.8,6075.4,1132.2,6076.2z"/>
				</g>
			</g>
			<g>
				<path d="M1380.4,6001.7c-5.2,0-12.9,0.8-24.7,2.3c-36.8,5-149.8,31.7-198.9,48.2c-21.6,6.8-30,12.4-30,20.1c0,0.9,0,1.7,0,2.5
					c-0.1,3-0.1,5.2,1.3,6.3c2.8,2.1,10.9-0.6,37.8-9.6l8.1-2.7c22.3-7.1,68.9-18.9,102.9-25.2c106.6-20.4,114.1-22.6,114.1-33.5
					c0-2.4-0.2-4.9-2-6.4C1387.5,6002.3,1384.9,6001.7,1380.4,6001.7z M1130.7,6080.8c-0.9,0-1.6-0.2-2-0.5c-1-0.8-1-2.6-0.9-5.5
					c0-0.8,0-1.6,0-2.5c0-7,8.5-12.6,29.4-19.1c49-16.5,162-43.2,198.7-48.2c21.4-2.7,29.5-3.2,32.5-0.6c1.2,1.1,1.7,2.6,1.7,5.7
					c0,10.1-8.5,12.5-113.3,32.5c-34,6.3-80.8,18.1-103.1,25.2l-8.1,2.7C1145,6077.4,1135,6080.8,1130.7,6080.8z"/>
				<path d="M1380.4,5996.7c-5.6,0-13.8,0.9-25.3,2.4c-37,5-150.6,31.9-199.9,48.4c-20.6,6.5-33.4,12.9-33.4,24.8v2.1
					c-0.1,3.9-0.2,8.1,3.3,10.7c5,3.7,10.7,1.7,42.3-8.9l8.1-2.7c22-7,68.4-18.8,102.3-25c109.9-21,118.2-22.9,118.2-38.4
					c0-2.1,0-6.9-3.7-10.2C1389.1,5997.1,1384.5,5996.7,1380.4,5996.7z M1132.7,6075.5c0-0.2,0-0.4,0-0.6v-2.7
					c0-4.1,8.7-9,25.9-14.4c48.9-16.4,161.3-43,197.9-48c8.9-1.1,25.4-3.2,28.4-1.8c-0.1,0.1,0,0.7,0,1.9
					c0,6.1-20.7,10.7-109.2,27.6c-34.2,6.3-81.2,18.2-103.6,25.4l-8.2,2.7C1148.1,6071.1,1137.6,6074.6,1132.7,6075.5z"/>
			</g>
		</g>
	</g>
</g>
<g transform="translate(0.000000,650.000000) scale(0.100000,-0.100000)">
	<g>
		
			<linearGradient id="SVGID_00000133506641972572981890000003422752249305227439_" gradientUnits="userSpaceOnUse" x1="8519.9238" y1="6160.4985" x2="8535.0693" y2="6160.4985" gradientTransform="matrix(2.704000e-07 0 0 1.587000e-07 -52217.1602 24368.1133)">
			<stop  offset="0" style="stop-color:#000000;stop-opacity:0.8017"/>
			<stop  offset="1" style="stop-color:#000000;stop-opacity:0.8017"/>
		</linearGradient>
		
			<path style="fill:url(#SVGID_00000133506641972572981890000003422752249305227439_);stroke:#000000;stroke-width:1.000000e-03;stroke-miterlimit:10;" d="
			M855.7,6199.2c19-20.7,59.9-47.6,102.5-67.2c22.4-10.1,42-17.4,43.1-15.7c7.3,6.7-5,20.7-21.3,24.6
			c-21.8,4.5-62.7,24.6-104.7,51.5C852.9,6206.4,847.3,6208.7,855.7,6199.2z"/>
	</g>
</g>
<g transform="translate(0.000000,650.000000) scale(0.100000,-0.100000)">
	<g>
		
			<linearGradient id="SVGID_00000170999623870807151150000017888665320518243209_" gradientUnits="userSpaceOnUse" x1="8517" y1="5861.2168" x2="8531.5605" y2="5861.2168" gradientTransform="matrix(2.600000e-07 0 0 1.632000e-07 -51871.1211 24176.3926)">
			<stop  offset="0" style="stop-color:#000000;stop-opacity:0.7668"/>
			<stop  offset="1" style="stop-color:#000000;stop-opacity:0.7668"/>
		</linearGradient>
		
			<path style="fill:url(#SVGID_00000170999623870807151150000017888665320518243209_);stroke:#000000;stroke-width:1.000000e-03;stroke-miterlimit:10;" d="
			M851.7,5905.7c0-10.6,57.7-52.1,99.1-71.7c21.8-10.1,41.4-18.5,43.1-18.5s3.4,5,3.4,11.2c0,7.3-3.9,11.2-10.1,11.2
			c-14.6,0-97.4,41.4-118.2,59.4C859.5,5905.2,851.7,5909.1,851.7,5905.7z"/>
	</g>
</g>
<g transform="translate(0.000000,650.000000) scale(0.100000,-0.100000)">
	<g>
		<g>
			<g>
				<g>
					<path id="SVGID_00000112618326611293797880000011007111967697124765_" d="M1321.1,5729.6c-4.4,0-10.2,0.7-17.7,1.8
						c-34.8,4.5-133.6,27.7-182.2,42.8c-28.2,8.3-40.8,15.8-43.6,25.8v0.1c-1.2,4.7-2.8,10.4,1.2,14c4.8,4.4,12.3,1.9,35.6-6.5
						c19-6.8,197.7-46.1,212.4-46.7l0,0c5.4,0,8.7-6.3,8.7-16.8c0-4-0.3-8.6-3.8-11.6C1329.2,5730.4,1325.9,5729.6,1321.1,5729.6z
						 M1087.2,5802.6c1.7-5.8,14.1-12.2,36.9-18.9c48.3-15,146.2-38,180.6-42.4c5-0.7,18.3-2.6,20.4-1.2c0,0.1,0.3,0.9,0.3,4
						c0,3.4-0.5,5.8-0.9,7c-25.2,2.9-193.8,40-213.6,47.1c-8,2.9-19.6,7.1-24.5,7.9C1086.6,5805.3,1086.8,5804.2,1087.2,5802.6z
						 M1326.1,5750.9c0.1,0,0.3,0,0.4,0C1326.4,5750.9,1326.2,5750.9,1326.1,5750.9z"/>
				</g>
			</g>
			<g>
				<path d="M1321.2,5734.1c-4,0-9.5,0.6-17.1,1.7c-34.7,4.5-133,27.6-181.5,42.6c-26.2,7.8-38.3,14.6-40.6,22.7l0,0
					c-1.3,5.1-1.8,8.1-0.1,9.6c2.7,2.5,10.7-0.1,31-7.4c19.1-6.9,198.9-46.4,213.7-47c2.9,0,4.4-6.2,4.4-12.3c0-4-0.4-6.6-2.2-8.2
					C1327.2,5734.6,1324.9,5734.1,1321.2,5734.1z M1082.9,5801.4c2.2-7.7,14.5-14.5,40-22.1c48.4-15,146.7-38.1,181.3-42.6
					c14-2,21.2-2.5,23.9-0.1c1.6,1.4,1.9,3.8,1.9,7.4c0,6.8-1.8,11.3-3.4,11.3c-14.9,0.6-194.9,40.2-214.1,47
					c-19.1,6.9-27.7,9.7-30,7.6C1081.2,5808.9,1081.7,5806,1082.9,5801.4z"/>
				<path d="M1321.2,5729.1c-4.5,0-10.4,0.7-17.8,1.8c-34.8,4.5-133.6,27.7-182.3,42.8c-28.3,8.4-41.1,16-44,26.2
					c-1.2,4.6-2.9,10.8,1.3,14.6c5,4.6,12.6,2.1,36.1-6.4c19-6.8,197.5-46.1,212.3-46.7l0,0c5.7,0,9.2-6.5,9.2-17.3
					c0-4.1-0.3-8.8-3.9-12C1328.9,5729.4,1324.6,5729.1,1321.2,5729.1z M1087.7,5802.8c1.6-5.6,13.9-11.9,36.6-18.6
					c48.3-15,146.1-38,180.5-42.4c4.9-0.7,17.7-2.5,20.1-1.2c-0.3-0.1,0,0.7,0,3.6c0,3.2-0.4,5.4-0.8,6.5
					c-26.2,3.3-194.8,40.4-213.3,47.1c-7.2,2.6-18.4,6.7-23.7,7.7C1087.2,5804.7,1087.4,5803.9,1087.7,5802.8z"/>
			</g>
		</g>
	</g>
</g>
<rect x="508.5" y="138" class="st27" width="46" height="36"/>
<g>
	<g>
		<line class="st28" x1="404.2" y1="151.5" x2="479" y2="151.5"/>
		<g>
			<polygon class="st29" points="376,151.5 415.8,167.8 406.4,151.5 415.8,135.2 			"/>
		</g>
	</g>
</g>
<rect x="67" y="19" class="st27" width="296.1" height="71.3"/>
<g>
	
		<linearGradient id="SVGID_00000065060008798983112100000015331470381228627865_" gradientUnits="userSpaceOnUse" x1="-542.5017" y1="730.6205" x2="-541.9481" y2="730.6205" gradientTransform="matrix(28.1441 0 0 24.5348 15300.4746 -17782.7324)">
		<stop  offset="0" style="stop-color:#FFFFFF;stop-opacity:0.6751"/>
		<stop  offset="1" style="stop-color:#FFFFFF;stop-opacity:0.6751"/>
	</linearGradient>
	<path style="fill:url(#SVGID_00000065060008798983112100000015331470381228627865_);stroke:#000000;stroke-miterlimit:10;" d="
		M32.6,140.3c0.6,6.9,0.3,6.6,8.6,8.4c7.1,1.6,6.6,1.9,6.6-4.2c0-6.1,0.9-5.3-8.9-7.2l-6.7-1.3L32.6,140.3z"/>
</g>
</svg>
