<?xml version="1.0" encoding="utf-8"?>
<!-- Generator: Adobe Illustrator 26.5.0, SVG Export Plug-In . SVG Version: 6.00 Build 0)  -->
<svg version="1.1" id="图层_1" xmlns="http://www.w3.org/2000/svg" xmlns:xlink="http://www.w3.org/1999/xlink" x="0px" y="0px"
	 viewBox="0 0 800 360" style="enable-background:new 0 0 800 360;" xml:space="preserve">
<style type="text/css">
	.st0{fill:none;}
	.st1{fill:#D3D3D3;}
	.st2{fill:url(#SVGID_00000075855938227324083970000007378830055546612411_);}
	.st3{fill:url(#region-1-1_00000044856088686475164240000010543970529076202672_);}
	.st4{fill:url(#region-1-2_00000106858362683322377200000015578891868970462872_);}
	.st5{fill:url(#region-1-3_00000046310876225048539760000015178630106392717967_);}
	.st6{fill:url(#region-1-4_00000155121175157121181300000007901330075400163974_);}
	.st7{fill:url(#region-1-5_00000049217272179891108010000005138188374850714245_);}
	.st8{fill:url(#region-2-1_00000089556877524467611180000009521730762824168329_);}
	.st9{fill:url(#region-2-2_00000014624894889978342040000012243989178216687021_);}
	.st10{fill:url(#region-2-3_00000060008910407574388060000014997250174589227165_);}
	.st11{fill:url(#region-2-4_00000099663552642408406270000007305756340568359577_);}
	.st12{fill:url(#region-2-5_00000163787909375563228670000010787798060065495469_);}
	.st13{fill:url(#region-2-6_00000034792399898688257600000011878933126881733051_);}
	.st14{fill:url(#region-3-1_00000137839620573928996780000010985259061141532337_);}
	.st15{fill:url(#region-3-2_00000073696516735970427120000017776287843852419243_);}
	.st16{fill:url(#region-2-3_00000039124901772592459830000004079357267398039705_);}
	.st17{fill:url(#region-2-4_00000039128613806565900640000005511539089506154429_);}
	.st18{fill:none;stroke:#0000FF;stroke-width:3;stroke-miterlimit:10;}
	.st19{fill:none;stroke:#3FA9F5;stroke-width:4;stroke-linecap:round;stroke-miterlimit:10;}
	.st20{fill:#3FA9F5;}
	.st21{fill:url(#region-1-3_00000059992011686027215790000011955903043479646104_);}
	.st22{fill:url(#region-1-4_00000168113563399535618900000016366362620577204622_);}
	.st23{fill:url(#region-3-2_00000079457192979352028180000004949940202789881730_);stroke:#000000;stroke-miterlimit:10;}
</style>
<pattern  y="360" width="40" height="40" patternUnits="userSpaceOnUse" id="SVGID_1_" viewBox="0 -40 40 40" style="overflow:visible;">
	<g>
		<rect y="-40" class="st0" width="40" height="40"/>
		<g>
			<rect y="-40" class="st0" width="40" height="40"/>
			<g>
				<rect y="-40" class="st0" width="40" height="40"/>
				<g>
					<rect y="-40" class="st0" width="40" height="40"/>
					<g>
						<rect y="-40" class="st0" width="40" height="40"/>
						<g>
							<rect y="-40" class="st0" width="40" height="40"/>
							<rect y="-40" class="st0" width="40" height="40"/>
							<rect y="-20" class="st1" width="20" height="20"/>
							<rect x="20" y="-40" class="st1" width="20" height="20"/>
						</g>
					</g>
				</g>
			</g>
		</g>
	</g>
</pattern>
<g id="图层_1_00000162321299983841449250000014464619041503499705_">
	
		<pattern  id="SVGID_00000141453828630586665680000010168937325491342270_" xlink:href="#SVGID_1_" patternTransform="matrix(0.8889 0 0 -1 -4233.2363 -49458.2422)">
	</pattern>
	<rect style="fill:url(#SVGID_00000141453828630586665680000010168937325491342270_);" width="800" height="360"/>
</g>
<g>
	<g id="layer-1_00000135682404714199277830000016083534274835167910_">
		
			<linearGradient id="region-1-1_00000115487932965594486850000009878402598071225497_" gradientUnits="userSpaceOnUse" x1="-548.3066" y1="723.0092" x2="-547.5777" y2="723.157" gradientTransform="matrix(82.9492 0 0 131.62 46078.625 -95109.2109)">
			<stop  offset="0" style="stop-color:#FAEFD8;stop-opacity:0.991"/>
			<stop  offset="1" style="stop-color:#FAEFD8;stop-opacity:0.991"/>
		</linearGradient>
		
			<path id="region-1-1_00000176751750623644303110000008431424301902183089_" style="fill:url(#region-1-1_00000115487932965594486850000009878402598071225497_);" d="
			M614.6,24c-0.8,0.1-3,0.7-4.9,1.2c-4.5,1.2-8,4.3-8.5,7.6c-0.7,3.8-0.4,7.6,0.7,9.9c0.9,2,6,8,6.9,8c0.5,0,8.2,8.1,9,9.5
			c3.5,6.4,4.1,8.6,3.5,12.9c-0.4,3.2-0.8,4.7-2.2,9.4c-0.8,2.4-4.6,10.2-6.2,12.6c-1.3,1.9-0.8,1.9,3.2,0.2
			c3.7-1.6,10-7.4,11.1-10.2c0.5-1.1,1.5-2.8,2.4-3.9c0.9-1.1,1.6-2.2,1.6-2.4c0-0.2,0.9-2.1,1.9-4.3c2.4-4.9,2.5-8.1,0.5-12.4
			c-0.8-1.7-1.7-3-1.9-3c-0.3,0-2.4-1.8-4.8-3.9c-2.4-2.2-4.9-4.4-5.7-4.8c-0.8-0.5-2-1.5-2.8-2.3s-2.1-1.8-2.9-2.3
			c-1.6-1.1-2.5-4.8-1.6-6.8c0.3-0.6,0.7-1.6,0.9-2.1c0.3-1.2,3.5-2.5,7.2-3.1c3.5-0.6,9.7,0.6,12.3,2.2c1.1,0.7,2.9,1.7,4,2.2
			c1.1,0.5,3,1.7,4.3,2.7c2.5,1.9,4,1.9,4-0.1c0-2.1-6.3-9.7-10.8-13C632.6,25.4,619.8,23.1,614.6,24z"/>
		
			<linearGradient id="region-1-2_00000044150587038056905770000007468530294334047881_" gradientUnits="userSpaceOnUse" x1="-556.3926" y1="723.6583" x2="-556.3926" y2="724.2115" gradientTransform="matrix(416.5085 0 0 83.7131 232359.25 -60481.1289)">
			<stop  offset="0" style="stop-color:#EDECEC;stop-opacity:0.991"/>
			<stop  offset="1" style="stop-color:#E2E2E1;stop-opacity:0.991"/>
		</linearGradient>
		
			<path id="region-1-2_00000164511292489531182130000008717259867514111382_" style="fill:url(#region-1-2_00000044150587038056905770000007468530294334047881_);" d="
			M590,99.3c-43,2.3-69.3,7.2-81.7,15.2c-3.4,2.2-6.5,5.8-6.5,7.5c0,1.6,3.7,5.6,7.1,7.9c11.2,7.1,37,12.3,70.9,14.4
			c14.3,0.9,62.3,0.7,77.2-0.3c34.1-2.2,58.6-7.5,69.4-14.9c2.9-2,5.1-4.5,5.7-6.7c0.5-1.6-2.2-5-5.9-7.6
			c-9.4-6.4-30.2-11.3-58.5-13.9C640.8,98.5,614.5,98,590,99.3z"/>
		
			<linearGradient id="region-1-3_00000147925229830597642770000008075614179487350165_" gradientUnits="userSpaceOnUse" x1="-556.6292" y1="720.9924" x2="-556.6292" y2="721.5457" gradientTransform="matrix(463.6097 0 0 289.0397 258688.5312 -208272.8594)">
			<stop  offset="0" style="stop-color:#DCDCDC;stop-opacity:0.993"/>
			<stop  offset="1" style="stop-color:#AFAFAF;stop-opacity:0.993"/>
		</linearGradient>
		
			<path id="region-1-3_00000143588683872594366630000010479531297041844412_" style="fill:url(#region-1-3_00000147925229830597642770000008075614179487350165_);" d="
			M732,122.8c-0.2,1.5-2.6,4.3-5.6,6.4c-10.8,7.4-35.4,12.7-69.4,14.9c-14.9,1-63,1.2-77.2,0.3c-20.6-1.3-37.2-3.5-51-6.9
			c-12.4-3.1-20.3-6.8-24.8-11.7l-2.3-2.5l0.3,6.3c0.5,8.9,1.8,19.3,4.3,35.4c0.8,5.1,4.1,19.2,6.1,26c5.5,18.6,13.3,35.8,21.9,48.1
			c5.1,7.4,6,8.6,7.4,10.1c0.7,0.8,2.4,2.6,3.8,4.1c2.3,2.5,5.5,5.4,10.1,9.2c5.3,4.4,17.6,11.5,24.2,13.9c1.1,0.4,2.4,0.9,3,1.2
			c0.6,0.2,1.5,0.4,2,0.6c0.5,0.1,1.6,0.5,2.5,0.8c0.9,0.4,1.9,0.7,2.4,0.8s1.4,0.3,2.2,0.5c0.8,0.2,2.8,0.6,4.5,0.9
			c1.7,0.3,3.9,0.6,5,0.8c1.1,0.2,2.7,0.4,3.6,0.5c2.4,0.2,21.8,0.2,24.1-0.1c4.8-0.5,12.6-1.9,15.4-2.8c1.7-0.5,3.4-0.9,3.7-1.1
			c0.3-0.1,1.3-0.4,2.1-0.7c0.9-0.4,1.8-0.7,2-0.7c0.8,0,10.6-4.6,14.7-6.9c3.4-1.9,6.5-4,12.2-8.2c5.9-4.4,18.1-18.1,22.2-25
			c5.3-8.8,7.6-12.9,8.5-15.4c1.5-4.1,2.4-4.8,5.5-4.2c4.4,0.9,17,0.7,20.4-0.3c7.2-2.1,10-3.6,14.1-7.6c3.3-3.3,4.3-4.6,5.4-7.8
			c2.5-6.7,2.9-8.5,2.8-16.6c-0.1-20.1-6.5-29.8-20.8-31.3c-2.5-0.2-5.2-0.3-6-0.2c-0.9,0.2-1.5,0.2-1.5,0.1s0.3-3.3,0.8-7.1
			c1.4-12.5,2.1-20.7,1.9-22.7C732.2,122.8,732,122.3,732,122.8z M737.6,170c3.1,1.4,4.7,4.6,5.3,10.4c0.5,5,0,9.5-1.3,12
			c-3,5.6-10.4,9.4-20,10.1c-2.5,0.2-3.5,0.1-3.5-0.4c0-0.4,0.6-2.5,1.4-4.8c0.8-2.3,1.7-5.4,2.2-6.9c0.4-1.5,1.4-5.1,2.2-8
			c0.8-2.9,1.8-7,2.3-9.1c0.4-2.1,1.1-4.1,1.4-4.3C728.7,168.3,735.4,168.9,737.6,170z"/>
		
			<linearGradient id="region-1-4_00000170274448260058438600000018267043947841135791_" gradientUnits="userSpaceOnUse" x1="-556.876" y1="721.2186" x2="-556.876" y2="721.772" gradientTransform="matrix(540 0 0 169.6032 301331 -122099.1172)">
			<stop  offset="0" style="stop-color:#B6B6B6;stop-opacity:0.996"/>
			<stop  offset="1" style="stop-color:#BDBDBD;stop-opacity:0.998"/>
		</linearGradient>
		
			<path id="region-1-4_00000181779675795469598230000005559807948140103576_" style="fill:url(#region-1-4_00000170274448260058438600000018267043947841135791_);" d="
			M522.8,222.7c-0.8,0.4-1.8,0.7-2.3,0.7c-1.3,0-11.1,3.5-18.4,6.5c-16.8,7-26.8,14.6-31.4,23.8c-2,3.9-2.1,4.4-2.1,9.5
			c0,2.9,0.3,6.2,0.7,7.2c2,5.7,7.6,12.2,14.6,16.8c1.8,1.2,3.9,2.6,4.8,3.2c4,2.8,20.5,9.9,27.1,11.7c1.6,0.4,5.2,1.4,7.9,2.2
			c17.8,5,37.2,8.2,62.2,10.3c11.3,0.9,43.7,1.3,54.5,0.6c22.2-1.4,23.5-1.6,44.8-4.8c7.2-1.1,25.9-5.5,33.9-7.9
			c25.7-8,43.9-20.2,47.6-32.2c0.3-1.1,0.6-4.3,0.7-7.2c0-5.1-0.1-5.5-2.2-9.7c-3.7-7.1-9.1-12-19.9-18.1
			c-7.6-4.3-21.6-9.8-31.6-12.4l-3.9-1.1l-0.5,1.3c-0.4,1.1-3.4,6.3-7.9,13.8c-4.1,6.9-16.3,20.6-22.2,25c-5.7,4.3-8.7,6.3-12.2,8.2
			c-4.1,2.3-13.8,6.9-14.7,6.9c-0.3,0-1.2,0.3-2,0.7c-0.8,0.3-1.8,0.7-2.1,0.7c-0.3,0.1-1.9,0.6-3.7,1.1c-2.8,0.8-10.6,2.3-15.4,2.8
			c-2.3,0.3-21.6,0.3-24.1,0.1c-0.9-0.1-2.5-0.3-3.6-0.5c-1.1-0.2-3.3-0.6-5-0.8c-1.7-0.3-3.7-0.7-4.5-0.9c-0.8-0.2-1.8-0.4-2.2-0.5
			s-1.5-0.4-2.4-0.8c-0.9-0.3-2-0.7-2.5-0.8c-0.5-0.1-1.4-0.3-2-0.6c-0.6-0.3-2-0.8-3-1.2c-6.6-2.4-18.9-9.6-24.2-13.9
			c-4.6-3.8-7.8-6.8-10.1-9.2c-1.4-1.5-3.1-3.3-3.8-4.1c-3.4-3.7-15-21.2-15-22.7c0-0.2-0.6-1.2-1.3-2.3
			C524.2,222.1,524.1,222,522.8,222.7z"/>
		
			<linearGradient id="region-1-5_00000127041734316116721620000013664425122591982268_" gradientUnits="userSpaceOnUse" x1="-556.7681" y1="722.7425" x2="-556.7516" y2="721.7081" gradientTransform="matrix(503.7986 0 0 71.7383 281112.375 -51524.543)">
			<stop  offset="0" style="stop-color:#3A3A3A;stop-opacity:0.997"/>
			<stop  offset="1" style="stop-color:#6B6B6B;stop-opacity:0.997"/>
		</linearGradient>
		<path id="region-1-5" style="fill:url(#region-1-5_00000127041734316116721620000013664425122591982268_);" d="M478.5,284.2
			c0,0.7,6.1,6.9,9.4,9.6c13.2,10.6,40.7,20.4,70.5,25.1c15.8,2.4,21.9,3.1,37.3,4c39.5,2.3,80.9-1.7,112-10.7
			c16.7-4.8,32-11.8,40-18.3c4.7-3.9,10.5-10.1,9.2-10.1c-0.2,0-1.8,1.2-3.8,2.7c-7.5,5.8-20.4,11.9-34.3,16.2
			c-8,2.4-26.7,6.9-33.9,7.9c-21.3,3.2-22.6,3.4-44.8,4.8c-10.8,0.7-43.2,0.4-54.5-0.6c-25-2.1-44.4-5.3-62.2-10.3
			c-2.7-0.8-6.3-1.8-7.9-2.2c-6.5-1.8-23-9-27.1-11.7c-0.9-0.6-3-2-4.8-3.2c-1.8-1.2-3.7-2.5-4.3-2.9
			C479,284,478.5,283.9,478.5,284.2z"/>
	</g>
	<g id="layer-2_00000132805840645723916790000012125221824916356753_">
		
			<linearGradient id="region-2-1_00000140012708753961790960000011316402809908108963_" gradientUnits="userSpaceOnUse" x1="-556.2944" y1="726.4363" x2="-556.2944" y2="726.9896" gradientTransform="matrix(398 0 0 46.8856 222022 -33955.2852)">
			<stop  offset="0" style="stop-color:#0D0C0C;stop-opacity:3.200000e-02"/>
			<stop  offset="1" style="stop-color:#000000;stop-opacity:0.107"/>
		</linearGradient>
		
			<path id="region-2-1_00000091719059192346523310000011920743169504374463_" style="fill:url(#region-2-1_00000140012708753961790960000011316402809908108963_);" d="
			M580.3,105c-35.7,2.2-54.3,5.2-65.4,10.3c-4.3,2-8.2,5.3-8.2,6.9c0,1.3,4.9,5.2,8.3,6.6c3.5,1.4,3.7,1.4,4.4,0.4
			c2.3-2.8,9.1-5.4,22.1-8.2c3.2-0.7,20-2.6,29.5-3.4c9.2-0.7,83.8-0.7,92.5,0c10.9,0.9,26.1,2.8,30.3,3.6
			c10.5,2.2,18.1,5.1,20.1,7.6c0.8,1,1.3,1.2,2.4,0.9c4.6-1.3,10.5-5.6,10.5-7.7c0-1.5-2-3.8-4.6-5.3c-8.8-5.1-27.9-9.1-52.7-10.8
			c-4.6-0.3-11.3-0.9-14.9-1.2c-3.7-0.3-18.2-0.7-32.4-0.8C602.1,104,593.2,104.2,580.3,105z"/>
		
			<linearGradient id="region-2-2_00000124139395408986477540000011443453761237252996_" gradientUnits="userSpaceOnUse" x1="-556.0146" y1="727.3392" x2="-556.0129" y2="728.0117" gradientTransform="matrix(353 0 0 39.6654 196890 -28732.9609)">
			<stop  offset="0" style="stop-color:#4E2100;stop-opacity:0.806"/>
			<stop  offset="1" style="stop-color:#491C00;stop-opacity:0.821"/>
		</linearGradient>
		
			<path id="region-2-2_00000130618137583792012140000001157048503100236675_" style="fill:url(#region-2-2_00000124139395408986477540000011443453761237252996_);" d="
			M569.8,117.8c-23.8,1.9-39.4,4.9-46.6,9c-2,1.2-3.7,2.4-3.7,2.8c0,1.6,18.9,5.6,32.8,7c19.6,1.9,28.4,2.3,56,2.6
			c50.2,0.5,82.1-1.9,103.4-8c1.7-0.5,3.2-1.1,3.2-1.3c0-0.7-2.4-2.6-4.8-3.8c-7.2-3.7-22.2-6.4-46.4-8.4
			C655.6,117.1,578.2,117.2,569.8,117.8z"/>
		
			<linearGradient id="region-2-3_00000080923907425060356370000011246617275316249733_" gradientUnits="userSpaceOnUse" x1="-556.3377" y1="727.2995" x2="-556.328" y2="728.4637" gradientTransform="matrix(405.9611 0 0 36.2398 226468.25 -26207.1289)">
			<stop  offset="0" style="stop-color:#0C0C0C;stop-opacity:0.761"/>
			<stop  offset="1" style="stop-color:#000000;stop-opacity:0.885"/>
		</linearGradient>
		
			<path id="region-2-3_00000171683880858890014980000004554605979652782522_" style="fill:url(#region-2-3_00000080923907425060356370000011246617275316249733_);" d="
			M504.5,150.3c0,1.2,5.8,5.2,10.4,7.4c15.2,7,40.8,11,79.2,12.1c33.4,1,66.1-0.1,86.3-2.9c4.4-0.6,9.6-1.3,11.6-1.6
			s4.1-0.6,4.7-0.8c0.6-0.2,4.1-1.1,7.9-2c9.6-2.3,17.8-5.8,22.4-9.5c2.5-1.9,2.9-3.3,0.4-1.5c-3.3,2.4-7.6,4.3-14.1,6.5
			c-6.4,2.2-8.1,2.5-16.9,4.2c-17.9,3.4-50.4,5.9-78.5,5.9c-25.8,0-64.1-2.5-75.9-5c-1.4-0.3-5.2-1.1-8.5-1.7
			c-11-2.1-24.1-7.1-27.9-10.6C505.1,150.2,504.5,150,504.5,150.3z"/>
		
			<linearGradient id="region-2-4_00000134226745449050352620000009128070217345513097_" gradientUnits="userSpaceOnUse" x1="-556.3345" y1="727.2243" x2="-556.3259" y2="728.3637" gradientTransform="matrix(405.3416 0 0 36.1 226122.4375 -26098.0996)">
			<stop  offset="0" style="stop-color:#0C0C0C;stop-opacity:0.781"/>
			<stop  offset="1" style="stop-color:#000000;stop-opacity:0.898"/>
		</linearGradient>
		
			<path id="region-2-4_00000174598292552234900250000017269662339905216698_" style="fill:url(#region-2-4_00000134226745449050352620000009128070217345513097_);" d="
			M507.6,157.3c3.1,2.8,9.8,6.3,16.2,8.3c9.5,3,15.3,4.1,35.8,6.6c10.7,1.4,36.7,2.5,57.3,2.5c50.9,0,85-4.3,102.9-12.9
			c2.8-1.3,8.5-5.4,9.2-6.6c0.4-0.6-0.7-0.1-2,1.1c-1.7,1.4-9.8,5.1-14.7,6.8c-8.4,2.8-25.9,6-40.4,7.3c-16.1,1.4-23.1,1.8-47.7,2
			c-25.1,0.3-42.9-0.2-55.4-1.5c-2.6-0.3-7.9-0.8-11.8-1.1c-8.9-0.8-27.6-4.4-35.5-7c-6.4-2-8.7-3.1-13.6-6.1l-3-1.9L507.6,157.3z"
			/>
		
			<linearGradient id="region-2-5_00000155142074551098478980000004861007610074224574_" gradientUnits="userSpaceOnUse" x1="-556.0432" y1="722.7687" x2="-555.4854" y2="722.6579" gradientTransform="matrix(315.497 0 0 75.3116 175946.0469 -54159.0312)">
			<stop  offset="0" style="stop-color:#080808;stop-opacity:0.291"/>
			<stop  offset="1" style="stop-color:#909090;stop-opacity:0.824"/>
		</linearGradient>
		
			<path id="region-2-5_00000080890047733063058930000016523989128536134587_" style="fill:url(#region-2-5_00000155142074551098478980000004861007610074224574_);" d="
			M686.5,255.2c-3.2,3.1-6.5,6.1-7.4,6.8c-5.9,4.3-8.7,6.3-12.2,8.2c-4.1,2.3-13.8,6.9-14.7,6.9c-0.3,0-1.2,0.3-2,0.7
			c-0.8,0.3-1.8,0.7-2.1,0.7c-0.3,0.1-1.9,0.6-3.7,1.1c-2.8,0.8-10.6,2.3-15.4,2.8c-2.3,0.3-21.6,0.3-24.1,0.1
			c-0.9-0.1-2.5-0.3-3.6-0.5c-1.1-0.2-3.3-0.6-5-0.8c-1.7-0.3-3.7-0.7-4.5-0.9c-0.8-0.2-1.8-0.4-2.2-0.5s-1.5-0.4-2.4-0.8
			c-0.9-0.3-2-0.7-2.5-0.8c-0.5-0.1-1.4-0.3-2-0.6c-0.6-0.3-2-0.8-3-1.2c-6.6-2.4-18.9-9.5-24.2-13.9c-4.6-3.8-7.5-6.4-10.1-9.1
			l-2.8-2.9l-3.1,1.6c-3.6,1.9-7.7,6.3-8.6,9.2c-2.6,8.6,8.7,17.1,30.8,22.9c8,2.1,33.3,5.6,52.8,7.2c6.5,0.6,36.1-2.7,52.7-5.9
			c7.7-1.4,18.3-4.8,23.9-7.5c11.1-5.4,15.4-10.8,13.6-16.9c-0.8-2.8-5.8-7.9-9.7-9.8l-2.9-1.4L686.5,255.2z"/>
		
			<linearGradient id="region-2-6_00000041290611131578493100000010623358687006968246_" gradientUnits="userSpaceOnUse" x1="-556.8764" y1="721.9352" x2="-556.8484" y2="723.0485" gradientTransform="matrix(540.0109 0 0 87.5494 301337.125 -62938.2812)">
			<stop  offset="0" style="stop-color:#FFFFFF;stop-opacity:0.805"/>
			<stop  offset="1" style="stop-color:#FFFFFF;stop-opacity:0.799"/>
		</linearGradient>
		
			<path id="region-2-6_00000065033068688335249480000012689216910802535326_" style="fill:url(#region-2-6_00000041290611131578493100000010623358687006968246_);" d="
			M468.6,267.5c0,5.3,7,14.3,15.3,19.8c1.8,1.2,3.9,2.6,4.8,3.2c4,2.8,20.5,9.9,27.1,11.7c1.6,0.4,5.2,1.4,7.9,2.2
			c17.8,5,37.2,8.2,62.2,10.3c11.3,0.9,43.7,1.3,54.5,0.6c22.2-1.4,23.5-1.6,44.8-4.8c7.2-1.1,25.9-5.5,33.9-7.9
			c25.7-7.9,43.4-19.9,47.6-32.1c1.1-3.2,0.8-4.5-0.5-1.7c-3,6.5-7.7,11.7-15.7,16.8c-14.3,9.2-35.9,16.7-62.8,21.6
			c-42.8,7.8-96.7,7.8-139.4,0c-16-2.9-35.9-8.4-45.4-12.5c-17.2-7.4-27.9-15.5-32.3-24.2C469.4,268.3,468.6,266.9,468.6,267.5z"/>
	</g>
	<g id="layer-3_00000138564396254059373690000014277119119155594408_">
		
			<linearGradient id="region-3-1_00000068665475486952629760000001291431661222005170_" gradientUnits="userSpaceOnUse" x1="-552.3506" y1="728.152" x2="-552.3358" y2="728.8881" gradientTransform="matrix(142.7398 0 0 35.6682 79458.7656 -25854.5449)">
			<stop  offset="0" style="stop-color:#FFFFEE;stop-opacity:0.248"/>
			<stop  offset="1" style="stop-color:#FFFFEA;stop-opacity:0.17"/>
		</linearGradient>
		
			<path id="region-3-1_00000078728790260386652680000012476384362623652273_" style="fill:url(#region-3-1_00000068665475486952629760000001291431661222005170_);" d="
			M591,117.7c-11.1,0.3-11.8,0.4-12.9,1.5c-1.1,1.1-1.2,1.4-0.5,2.9c1,2.4,4.7,6,8.4,8.2c7.6,4.5,17.8,6.8,30,6.9
			c12.3,0.1,20-1.5,28.9-5.7c6.7-3.2,12.4-9.6,10.9-12.1c-0.2-0.3-1.3-0.8-2.4-1.1C650.9,117.7,606.9,117.2,591,117.7z"/>
		
			<linearGradient id="region-3-2_00000132060588068532851090000017666751631928959114_" gradientUnits="userSpaceOnUse" x1="-532.885" y1="722.1602" x2="-532.885" y2="722.7134" gradientTransform="matrix(36.934 0 0 123.1848 20213.9316 -88810.8359)">
			<stop  offset="0" style="stop-color:#ECECEC;stop-opacity:0.269"/>
			<stop  offset="1" style="stop-color:#F8F7F8;stop-opacity:0.461"/>
		</linearGradient>
		
			<path id="region-3-2_00000137116766908661367990000017573360259984691626_" style="fill:url(#region-3-2_00000132060588068532851090000017666751631928959114_);" d="
			M522.5,152.3c0.2,2.2,0.6,5.4,0.9,7.2c1,5.8,6.4,25.7,9.4,34.2c3,8.6,9.5,23.7,9.8,22.7c0.1-0.3-0.3-2.7-0.9-5.3
			c-2.9-12.6-3.9-23.5-3.9-44c0-15-0.1-15.6-1.1-15.9c-0.6-0.2-4.1-0.9-7.7-1.6l-6.8-1.3L522.5,152.3z"/>
	</g>
</g>
<linearGradient id="region-2-3_00000096765818327538752610000001888497029805418415_" gradientUnits="userSpaceOnUse" x1="-2741.8928" y1="74.5664" x2="-2741.8928" y2="74.0064" gradientTransform="matrix(405.9611 0 0 -36.2488 1113333 2769.3718)">
	<stop  offset="0" style="stop-color:#070707;stop-opacity:0.79"/>
	<stop  offset="1" style="stop-color:#000000;stop-opacity:0.849"/>
</linearGradient>
<path id="region-2-3_00000044875813417254657880000015911553605071066045_" style="fill:url(#region-2-3_00000096765818327538752610000001888497029805418415_);" d="
	M117.5,66.6c0,0.9,5.2,4.9,8.3,6.5c11.1,5.5,28.3,9.4,53.8,11.8c13,1.3,46,2.1,67.2,1.7c20.3-0.4,36-1.5,48.7-3.2
	c4.5-0.6,9.7-1.3,11.8-1.6c2-0.3,4.1-0.6,4.8-0.8s4.2-1.1,8-2c9.7-2.4,18-5.9,22.7-9.6c2.5-2,2.9-3.3,0.4-1.6
	c-3.4,2.4-7.7,4.4-14.3,6.6c-6.5,2.2-8.2,2.6-17.1,4.3c-18.1,3.5-51,5.9-79.4,5.9c-26.2,0-64.9-2.5-76.8-5c-1.4-0.3-5.3-1.1-8.6-1.7
	c-11.1-2.1-24.4-7.2-28.2-10.8C118,66.5,117.5,66.3,117.5,66.6z"/>
<linearGradient id="region-2-4_00000150821059589232103500000007464968755567866531_" gradientUnits="userSpaceOnUse" x1="-2741.8831" y1="75.1301" x2="-2741.8831" y2="74.5706" gradientTransform="matrix(405.3416 0 0 -36.1 1111630.625 2759.2981)">
	<stop  offset="0" style="stop-color:#000000;stop-opacity:0.832"/>
	<stop  offset="1" style="stop-color:#000000;stop-opacity:0.831"/>
</linearGradient>
<path id="region-2-4_00000003088145897230102730000007140698633034593160_" style="fill:url(#region-2-4_00000150821059589232103500000007464968755567866531_);" d="
	M120.5,49.7c3.1,2.9,9.9,6.3,16.4,8.4c9.6,3,15.5,4.1,36.2,6.7c10.8,1.4,37.1,2.5,58,2.5c51.5,0,86-4.4,104.2-13.1
	c2.8-1.3,8.6-5.5,9.4-6.7c0.4-0.6-0.7-0.1-2.1,1.1c-1.7,1.4-9.9,5.2-14.8,6.8c-8.5,2.9-26.3,6-40.9,7.4c-16.3,1.5-23.4,1.8-48.3,2.1
	c-25.4,0.3-43.4-0.2-56.1-1.5c-2.6-0.3-8-0.8-11.9-1.1c-9-0.8-27.9-4.5-35.9-7.1c-6.4-2.1-8.8-3.1-13.8-6.2l-3.1-1.9L120.5,49.7z"/>
<rect x="511.5" y="148.5" class="st18" width="46" height="36"/>
<g>
	<g>
		<line class="st19" x1="424.2" y1="163" x2="499" y2="163"/>
		<g>
			<polygon class="st20" points="396,163 435.8,179.3 426.4,163 435.8,146.7 			"/>
		</g>
	</g>
</g>
<linearGradient id="region-1-3_00000049921045952074136300000001018822447307425440_" gradientUnits="userSpaceOnUse" x1="-1115.2493" y1="-1.1249" x2="-1115.2493" y2="-1.7317" gradientTransform="matrix(463.6097 0 0 -289.0397 517287.375 -234.2332)">
	<stop  offset="0" style="stop-color:#DEDEDE;stop-opacity:0.993"/>
	<stop  offset="1" style="stop-color:#B4B4B4;stop-opacity:0.997"/>
</linearGradient>
<path id="region-1-3_00000146462925529437227980000014284334710808453294_" style="fill:url(#region-1-3_00000049921045952074136300000001018822447307425440_);" d="
	M358.9,91.1c-0.2,1.6-2.9,4.7-6.1,7c-11.8,8.1-38.8,13.9-76.1,16.3c-16.4,1.1-69,1.3-84.7,0.3c-22.6-1.4-40.8-3.9-55.9-7.6
	c-13.7-3.4-22.2-7.4-27.2-12.9l-2.5-2.8l0.4,6.9c0.5,9.7,1.9,21.1,4.7,38.8c0.8,5.6,4.5,21.1,6.7,28.5c6,20.4,14.6,39.3,24,52.8
	c5.6,8.1,6.6,9.4,8.1,11c0.8,0.8,2.7,2.9,4.2,4.5c2.5,2.7,6,5.9,11,10.1c5.8,4.8,19.4,12.6,26.6,15.3c1.2,0.4,2.7,1,3.3,1.3
	c0.7,0.2,1.6,0.5,2.2,0.6c0.5,0.1,1.8,0.5,2.7,0.9c1,0.4,2.1,0.8,2.6,0.9s1.6,0.4,2.4,0.5c0.8,0.2,3.1,0.7,4.9,1s4.3,0.7,5.5,0.9
	c1.2,0.2,3,0.4,3.9,0.5c2.7,0.2,23.9,0.2,26.4-0.1c5.3-0.5,13.8-2.1,16.9-3c1.9-0.5,3.7-1,4-1.2c0.4-0.1,1.4-0.4,2.3-0.8
	c1-0.4,1.9-0.7,2.2-0.7c0.9,0,11.6-5,16.1-7.5c3.8-2.1,7.1-4.4,13.3-9c6.5-4.9,19.8-19.8,24.4-27.4c5.8-9.6,8.3-14.2,9.3-16.9
	c1.7-4.6,2.7-5.2,6.1-4.6c4.8,1,18.6,0.7,22.4-0.4c7.9-2.3,11-3.9,15.5-8.4c3.6-3.6,4.7-5,5.9-8.6c2.8-7.3,3.2-9.3,3.1-18.2
	c-0.1-22.1-7.1-32.6-22.8-34.3c-2.7-0.2-5.7-0.4-6.6-0.2c-1,0.2-1.7,0.2-1.7,0.1s0.4-3.6,0.8-7.8c1.6-13.7,2.3-22.7,2.1-24.9
	C359.1,91.1,358.9,90.6,358.9,91.1z M365,142.9c3.4,1.6,5.2,5,5.8,11.4c0.5,5.5,0,10.4-1.5,13.2c-3.3,6.1-11.4,10.3-22,11.1
	c-2.8,0.2-3.8,0.1-3.8-0.4c0-0.4,0.7-2.8,1.6-5.3c0.8-2.5,1.9-5.9,2.4-7.5c0.4-1.7,1.5-5.6,2.4-8.8s2-7.6,2.5-10
	c0.4-2.3,1.2-4.5,1.6-4.7C355.3,141.1,362.6,141.7,365,142.9z"/>
<linearGradient id="region-1-4_00000164475365605235705250000004721183676084861621_" gradientUnits="userSpaceOnUse" x1="-1115.5475" y1="-2.5118" x2="-1115.5475" y2="-3.1187" gradientTransform="matrix(540 0 0 -169.6032 602632 -174.2135)">
	<stop  offset="0" style="stop-color:#B9B9B9;stop-opacity:0.996"/>
	<stop  offset="1" style="stop-color:#C1C1C1;stop-opacity:0.998"/>
</linearGradient>
<path id="region-1-4_00000080173718232562030350000013424814624972802471_" style="fill:url(#region-1-4_00000164475365605235705250000004721183676084861621_);" d="
	M131.9,252.8c-0.8,0.4-2,0.8-2.5,0.8c-1.4,0-12.2,3.8-20.2,7.1c-18.4,7.6-29.4,16-34.4,26.2c-2.2,4.3-2.3,4.9-2.3,10.4
	c0,3.2,0.3,6.8,0.7,7.9c2.2,6.2,8.4,13.4,16,18.4c1.9,1.3,4.3,2.9,5.3,3.5c4.4,3,22.5,10.9,29.7,12.9c1.8,0.5,5.7,1.6,8.7,2.4
	c19.5,5.5,40.8,9,68.3,11.3c12.4,1,47.9,1.4,59.8,0.6c24.3-1.6,25.7-1.8,49.1-5.3c7.9-1.2,28.5-6,37.2-8.7
	c28.2-8.7,48.1-22.1,52.2-35.3c0.4-1.2,0.7-4.7,0.7-7.9c0-5.6-0.1-6-2.4-10.6c-4-7.8-10-13.2-21.8-19.8
	c-8.3-4.7-23.7-10.8-34.6-13.7l-4.3-1.2l-0.5,1.5c-0.5,1.2-3.8,6.9-8.7,15.1c-4.6,7.6-17.9,22.6-24.4,27.4c-6.2,4.7-9.6,6.9-13.3,9
	c-4.5,2.5-15.2,7.5-16.1,7.5c-0.3,0-1.3,0.3-2.2,0.7c-0.9,0.4-1.9,0.7-2.3,0.8c-0.3,0.1-2.1,0.6-4,1.2c-3.1,0.9-11.6,2.5-16.9,3
	c-2.5,0.3-23.7,0.3-26.4,0.1c-1-0.1-2.8-0.4-3.9-0.5c-1.2-0.2-3.6-0.6-5.5-0.9c-1.8-0.3-4.1-0.7-4.9-1c-0.8-0.2-1.9-0.4-2.4-0.5
	s-1.6-0.5-2.6-0.9s-2.2-0.8-2.7-0.9s-1.5-0.4-2.2-0.6c-0.7-0.3-2.2-0.8-3.3-1.3c-7.2-2.7-20.8-10.5-26.6-15.3
	c-5-4.2-8.6-7.4-11-10.1c-1.5-1.6-3.4-3.6-4.2-4.5c-3.7-4-16.4-23.2-16.4-24.9c0-0.2-0.6-1.3-1.4-2.5
	C133.5,252.2,133.3,252,131.9,252.8z"/>
<linearGradient id="region-3-2_00000024724635436980744120000010380669777580115389_" gradientUnits="userSpaceOnUse" x1="-545.9545" y1="722.1746" x2="-545.9545" y2="722.7279" gradientTransform="matrix(36.934 0 0 123.1848 20213.9316 -88810.8359)">
	<stop  offset="0" style="stop-color:#ECECEC;stop-opacity:0.269"/>
	<stop  offset="1" style="stop-color:#F8F7F8;stop-opacity:0.461"/>
</linearGradient>
<path id="region-3-2_00000105415095017121416330000001464410338048520328_" style="fill:url(#region-3-2_00000024724635436980744120000010380669777580115389_);stroke:#000000;stroke-miterlimit:10;" d="
	M39.8,154.1c0.2,2.2,0.6,5.4,0.9,7.2c1,5.8,6.4,25.7,9.4,34.2c3,8.6,9.5,23.7,9.8,22.7c0.1-0.3-0.3-2.7-0.9-5.3
	c-2.9-12.6-3.9-23.5-3.9-44c0-15-0.1-15.6-1.1-15.9c-0.6-0.2-4.1-0.9-7.7-1.6l-6.8-1.3L39.8,154.1z"/>
</svg>
