<?xml version="1.0" standalone="no"?><!DOCTYPE svg PUBLIC "-//W3C//DTD SVG 20010904//EN" "http://www.w3.org/TR/2001/REC-SVG-20010904/DTD/svg10.dtd"><svg version="1.0" xmlns="http://www.w3.org/2000/svg" width="705pt" height="752pt" viewBox="0 0 705 752" preserveAspectRatio="xMidYMid meet"><defs><linearGradient id="linear-gradient-1-1" x1="0.00%" y1="100.00%" x2="52.17%" y2="-46.62%"><stop offset="0%" style="stop-color:rgb(71,75,88);stop-opacity:0.990" /><stop offset="100%" style="stop-color:rgb(48,52,66);stop-opacity:0.990" /></linearGradient><linearGradient id="linear-gradient-1-2" x1="0.00%" y1="100.00%" x2="6.98%" y2="-15.03%"><stop offset="0%" style="stop-color:rgb(0,0,1);stop-opacity:0.995" /><stop offset="100%" style="stop-color:rgb(2,3,5);stop-opacity:1.000" /></linearGradient><linearGradient id="linear-gradient-1-3" x1="0.00%" y1="100.00%" x2="20.00%" y2="-7.91%"><stop offset="0%" style="stop-color:rgb(189,139,99);stop-opacity:0.994" /><stop offset="100%" style="stop-color:rgb(182,131,92);stop-opacity:0.995" /></linearGradient><linearGradient id="linear-gradient-1-4" x1="0.00%" y1="100.00%" x2="0.27%" y2="-4.50%"><stop offset="0%" style="stop-color:rgb(181,132,95);stop-opacity:0.994" /><stop offset="100%" style="stop-color:rgb(177,128,91);stop-opacity:0.994" /></linearGradient><linearGradient id="linear-gradient-1-5" x1="0.00%" y1="100.00%" x2="126.45%" y2="66.89%"><stop offset="0%" style="stop-color:rgb(177,133,99);stop-opacity:0.990" /><stop offset="100%" style="stop-color:rgb(147,87,49);stop-opacity:0.991" /></linearGradient><linearGradient id="linear-gradient-1-6" x1="0.00%" y1="100.00%" x2="6.70%" y2="-13.43%"><stop offset="0%" style="stop-color:rgb(158,105,69);stop-opacity:0.997" /><stop offset="100%" style="stop-color:rgb(159,106,69);stop-opacity:0.997" /></linearGradient><linearGradient id="linear-gradient-2-1" x1="0.00%" y1="100.00%" x2="0.00%" y2="-0.00%"><stop offset="0%" style="stop-color:rgb(0,0,10);stop-opacity:0.682" /><stop offset="100%" style="stop-color:rgb(30,27,30);stop-opacity:0.828" /></linearGradient><linearGradient id="linear-gradient-2-2" x1="0.00%" y1="100.00%" x2="69.46%" y2="-9.77%"><stop offset="0%" style="stop-color:rgb(151,93,59);stop-opacity:0.637" /><stop offset="100%" style="stop-color:rgb(157,101,66);stop-opacity:0.708" /></linearGradient><linearGradient id="linear-gradient-2-3" x1="0.00%" y1="100.00%" x2="109.15%" y2="3.34%"><stop offset="0%" style="stop-color:rgb(65,80,120);stop-opacity:0.135" /><stop offset="100%" style="stop-color:rgb(66,80,120);stop-opacity:0.114" /></linearGradient><linearGradient id="linear-gradient-2-4" x1="0.00%" y1="100.00%" x2="0.00%" y2="-0.00%"><stop offset="0%" style="stop-color:rgb(93,33,9);stop-opacity:0.302" /><stop offset="100%" style="stop-color:rgb(83,20,0);stop-opacity:0.362" /></linearGradient><linearGradient id="linear-gradient-2-5" x1="0.00%" y1="100.00%" x2="0.00%" y2="-0.00%"><stop offset="0%" style="stop-color:rgb(92,26,0);stop-opacity:0.170" /><stop offset="100%" style="stop-color:rgb(92,24,0);stop-opacity:0.194" /></linearGradient><linearGradient id="linear-gradient-2-6" x1="0.00%" y1="100.00%" x2="0.42%" y2="-10.17%"><stop offset="0%" style="stop-color:rgb(255,229,214);stop-opacity:0.549" /><stop offset="100%" style="stop-color:rgb(255,227,212);stop-opacity:0.523" /></linearGradient><linearGradient id="linear-gradient-2-7" x1="0.00%" y1="100.00%" x2="5.99%" y2="-114.92%"><stop offset="0%" style="stop-color:rgb(118,68,45);stop-opacity:0.660" /><stop offset="100%" style="stop-color:rgb(126,77,52);stop-opacity:0.749" /></linearGradient><linearGradient id="linear-gradient-2-8" x1="0.00%" y1="100.00%" x2="1.52%" y2="-78.11%"><stop offset="0%" style="stop-color:rgb(124,77,49);stop-opacity:0.730" /><stop offset="100%" style="stop-color:rgb(138,87,56);stop-opacity:0.777" /></linearGradient><linearGradient id="linear-gradient-2-9" x1="0.00%" y1="100.00%" x2="122.60%" y2="9.84%"><stop offset="0%" style="stop-color:rgb(116,48,17);stop-opacity:0.593" /><stop offset="100%" style="stop-color:rgb(157,105,74);stop-opacity:0.815" /></linearGradient><linearGradient id="linear-gradient-2-10" x1="0.00%" y1="100.00%" x2="8.45%" y2="-39.81%"><stop offset="0%" style="stop-color:rgb(97,23,0);stop-opacity:0.208" /><stop offset="100%" style="stop-color:rgb(147,89,55);stop-opacity:0.600" /></linearGradient><linearGradient id="linear-gradient-2-11" x1="0.00%" y1="100.00%" x2="28.57%" y2="-311.42%"><stop offset="0%" style="stop-color:rgb(107,39,18);stop-opacity:0.618" /><stop offset="100%" style="stop-color:rgb(114,48,25);stop-opacity:0.715" /></linearGradient><linearGradient id="linear-gradient-3-1" x1="0.00%" y1="100.00%" x2="13.30%" y2="-161.23%"><stop offset="0%" style="stop-color:rgb(73,47,6);stop-opacity:0.653" /><stop offset="100%" style="stop-color:rgb(65,39,0);stop-opacity:0.686" /></linearGradient><linearGradient id="linear-gradient-3-2" x1="0.00%" y1="100.00%" x2="47.09%" y2="-690.70%"><stop offset="0%" style="stop-color:rgb(190,140,114);stop-opacity:0.724" /><stop offset="100%" style="stop-color:rgb(215,157,130);stop-opacity:0.797" /></linearGradient><linearGradient id="linear-gradient-3-3" x1="0.00%" y1="100.00%" x2="0.00%" y2="0.00%"><stop offset="0%" style="stop-color:rgb(117,51,20);stop-opacity:0.461" /><stop offset="100%" style="stop-color:rgb(136,76,45);stop-opacity:0.612" /></linearGradient><linearGradient id="linear-gradient-3-4" x1="0.00%" y1="100.00%" x2="155.84%" y2="22.31%"><stop offset="0%" style="stop-color:rgb(90,15,0);stop-opacity:0.183" /><stop offset="100%" style="stop-color:rgb(100,29,8);stop-opacity:0.238" /></linearGradient><linearGradient id="linear-gradient-3-5" x1="0.00%" y1="100.00%" x2="0.00%" y2="-0.00%"><stop offset="0%" style="stop-color:rgb(126,62,34);stop-opacity:0.354" /><stop offset="100%" style="stop-color:rgb(117,51,24);stop-opacity:0.443" /></linearGradient></defs><g id="layer-1"><path d="M2889 7346 c-2 -3 -135 -9 -294 -16 -441 -16 -788 -50 -1030 -100 -685 -141 -1125 -421 -1331 -845 -49 -103 -97 -260 -89 -292 3 -12 0 -42 -5 -65 -20 -78 -30 -278 -19 -378 55 -520 336 -1145 852 -1895 125 -182 115 -175 160 -120 l38 45 -54 83 c-29 45 -70 104 -90 130 -20 27 -37 53 -37 59 0 12 -96 175 -120 203 -36 42 -250 451 -250 478 0 14 -37 100 -91 213 -16 33 -29 67 -29 76 0 15 -42 146 -59 183 -5 11 -19 65 -32 120 -12 55 -25 105 -29 110 -35 47 -47 531 -18 688 10 49 22 94 27 101 6 7 17 37 25 67 20 70 92 211 149 291 51 72 244 264 279 277 13 5 43 24 68 42 58 42 341 184 400 199 25 7 59 18 75 25 17 7 50 16 75 19 24 4 49 11 55 15 15 12 99 31 134 31 16 0 32 4 36 9 3 5 31 12 63 16 31 3 93 12 137 20 85 15 207 27 475 47 221 17 1090 17 1365 0 290 -18 666 -68 700 -92 6 -4 46 -15 90 -25 105 -22 225 -57 231 -67 3 -4 15 -8 27 -8 12 0 49 -14 82 -31 33 -17 101 -49 150 -70 50 -22 106 -52 125 -67 19 -15 48 -34 64 -42 42 -22 291 -264 310 -302 8 -18 34 -62 55 -98 66 -107 72 -120 87 -178 8 -30 21 -69 28 -86 28 -64 51 -229 51 -366 0 -148 -20 -369 -35 -384 -6 -6 -10 -23 -10 -39 0 -32 -19 -117 -30 -132 -4 -5 -24 -66 -44 -135 -63 -206 -75 -238 -163 -420 -47 -96 -109 -224 -138 -285 -53 -109 -194 -354 -223 -388 -8 -9 -55 -79 -103 -154 l-88 -137 37 -40 c20 -23 40 -41 44 -41 4 0 54 68 112 151 478 693 748 1261 843 1774 25 137 25 463 0 578 -38 170 -92 299 -187 440 -79 117 -156 200 -264 284 -394 305 -962 462 -1796 498 -140 6 -331 15 -425 20 -175 11 -358 13 -366 6z" fill="url(#linear-gradient-1-1)" id="region-1-1" transform="translate(0.000000,752.000000) scale(0.100000,-0.100000)"/><path d="M2560 7195 c-8 -2 -96 -8 -195 -14 -233 -15 -381 -29 -480 -46 -44 -8 -106 -17 -137 -20 -32 -4 -60 -11 -63 -16 -4 -5 -20 -9 -36 -9 -35 0 -119 -19 -134 -31 -6 -4 -31 -11 -55 -15 -25 -3 -58 -12 -75 -19 -16 -7 -50 -18 -75 -25 -59 -15 -342 -157 -400 -199 -25 -18 -55 -37 -68 -42 -35 -13 -228 -205 -279 -277 -57 -80 -129 -221 -149 -291 -8 -30 -19 -60 -25 -67 -5 -7 -17 -52 -27 -101 -29 -157 -17 -641 18 -688 4 -5 17 -55 29 -110 13 -55 27 -109 32 -120 17 -37 59 -168 59 -183 0 -9 13 -43 29 -76 54 -113 91 -199 91 -213 0 -27 214 -436 250 -478 24 -28 120 -191 120 -203 0 -6 17 -32 37 -59 20 -26 61 -85 91 -131 35 -53 58 -80 64 -74 6 6 -18 53 -65 128 -143 229 -287 496 -287 533 0 11 -18 49 -40 84 -107 170 -255 616 -307 924 -25 149 -25 490 0 613 37 180 112 360 202 485 61 85 217 234 304 290 155 100 396 198 640 260 110 28 357 72 444 79 29 3 95 10 147 15 166 19 264 22 741 28 447 4 501 3 879 -27 590 -46 1120 -225 1382 -468 222 -206 357 -503 374 -822 3 -58 7 -107 9 -110 4 -8 -13 -239 -24 -330 -14 -99 -59 -293 -102 -435 -101 -329 -347 -841 -558 -1160 -36 -54 -49 -81 -42 -88 13 -13 2 -27 101 128 46 72 91 139 100 150 31 36 171 278 225 390 29 61 91 189 138 285 88 182 100 214 163 420 20 69 40 130 44 135 11 15 30 100 30 132 0 16 4 33 10 39 15 15 35 236 35 384 0 137 -23 302 -51 366 -7 17 -20 56 -28 86 -15 58 -21 71 -87 178 -21 36 -47 80 -55 98 -19 38 -268 280 -310 302 -16 8 -45 27 -64 42 -19 15 -75 45 -125 67 -49 21 -117 53 -150 70 -33 17 -70 31 -82 31 -12 0 -24 4 -27 8 -6 10 -126 45 -231 67 -44 10 -84 21 -90 25 -31 22 -404 73 -670 91 -155 10 -1160 22 -1195 14z" fill="url(#linear-gradient-1-2)" id="region-1-2" transform="translate(0.000000,752.000000) scale(0.100000,-0.100000)"/><path d="M3045 5156 c-49 -22 -81 -65 -140 -188 -75 -155 -93 -243 -78 -377 17 -148 84 -276 160 -303 18 -7 33 -16 33 -20 0 -15 188 -9 251 9 l61 17 45 93 c48 99 62 167 63 289 0 177 -98 336 -281 454 -69 44 -71 45 -114 26z" fill="url(#linear-gradient-1-3)" id="region-1-3" transform="translate(0.000000,752.000000) scale(0.100000,-0.100000)"/><path d="M2640 4538 c-662 -24 -1225 -130 -1340 -252 -32 -35 -49 -99 -57 -218 -7 -108 5 -168 40 -211 18 -23 37 -30 112 -43 50 -8 97 -19 107 -24 9 -5 40 -12 70 -15 142 -16 224 -28 233 -35 9 -7 197 -33 325 -45 30 -3 98 -10 150 -16 222 -23 365 -30 700 -35 337 -5 466 0 680 26 47 6 135 15 195 20 61 4 198 22 305 39 107 17 212 30 233 31 20 0 45 4 55 10 9 5 82 20 161 34 79 14 150 31 158 38 47 39 69 149 53 265 -7 46 -16 86 -21 89 -5 3 -9 19 -9 35 0 38 -31 69 -108 108 -181 91 -572 158 -1153 196 l-96 7 -7 -33 c-3 -18 -26 -74 -50 -124 l-44 -91 -61 -17 c-63 -18 -251 -24 -251 -9 0 4 -15 13 -33 20 -54 19 -104 90 -141 197 l-21 60 -185 -7z" fill="url(#linear-gradient-1-4)" id="region-1-4" transform="translate(0.000000,752.000000) scale(0.100000,-0.100000)"/><path d="M6340 4240 c-139 -16 -189 -31 -241 -71 -96 -77 -232 -266 -355 -493 -36 -68 -82 -140 -102 -159 -82 -79 -205 -134 -364 -161 -51 -9 -73 -17 -72 -27 1 -8 39 -63 85 -122 149 -192 206 -279 282 -432 80 -160 130 -303 148 -425 6 -41 14 -151 16 -244 l5 -168 121 5 c143 6 211 22 326 79 280 137 409 470 372 966 -6 92 -18 214 -27 272 -21 147 -21 244 1 310 46 143 179 340 340 503 91 93 97 109 48 128 -94 36 -418 58 -583 39z" fill="url(#linear-gradient-1-5)" id="region-1-5" transform="translate(0.000000,752.000000) scale(0.100000,-0.100000)"/><path d="M1300 3819 c0 -7 -42 -56 -93 -108 -109 -113 -296 -329 -420 -485 -302 -379 -449 -730 -464 -1106 -18 -439 173 -858 558 -1224 85 -81 248 -217 307 -256 16 -11 27 -34 38 -79 29 -126 89 -199 194 -236 105 -37 566 -113 870 -144 455 -47 762 -56 1115 -33 504 33 1170 136 1288 199 79 43 130 121 150 231 5 26 3 32 -11 32 -10 1 -4 6 14 14 17 8 99 69 183 136 388 313 635 698 697 1087 18 114 15 369 -5 503 -24 164 -148 467 -251 614 -165 236 -431 558 -616 746 -52 53 -94 101 -94 108 0 9 -9 12 -27 8 -16 -3 -82 -15 -148 -26 -66 -12 -128 -25 -137 -31 -10 -5 -35 -9 -55 -9 -21 -1 -126 -14 -233 -31 -107 -17 -244 -35 -305 -39 -60 -5 -148 -14 -195 -20 -214 -26 -343 -31 -680 -26 -335 5 -478 12 -700 35 -52 6 -120 13 -150 16 -128 12 -316 38 -325 45 -9 7 -90 19 -235 35 -30 4 -59 10 -65 14 -5 4 -44 13 -85 20 -41 7 -85 15 -97 18 -15 3 -23 1 -23 -8z" fill="url(#linear-gradient-1-6)" id="region-1-6" transform="translate(0.000000,752.000000) scale(0.100000,-0.100000)"/></g><g id="layer-2"><path d="M2540 7240 c-74 -4 -218 -10 -320 -14 -102 -4 -201 -11 -220 -16 -19 -5 -98 -16 -175 -25 -77 -9 -205 -29 -285 -45 -738 -147 -1195 -469 -1359 -957 -54 -161 -78 -372 -60 -537 57 -520 338 -1144 852 -1891 125 -182 115 -175 160 -120 l38 45 -54 83 c-29 45 -70 104 -90 130 -20 27 -37 53 -37 59 0 12 -96 175 -120 203 -36 42 -250 451 -250 478 0 14 -37 100 -91 213 -16 33 -29 67 -29 76 0 15 -42 146 -59 183 -5 11 -19 65 -32 120 -12 55 -25 105 -29 110 -35 47 -47 531 -18 688 10 49 22 94 27 101 6 7 17 37 25 67 20 70 92 211 149 291 51 72 244 264 279 277 13 5 43 24 68 42 58 42 341 184 400 199 25 7 59 18 75 25 17 7 50 16 75 19 24 4 49 11 55 15 15 12 99 31 134 31 16 0 32 4 36 9 3 5 31 12 63 16 31 3 93 12 137 20 85 15 207 27 475 47 221 17 1090 17 1365 0 290 -18 666 -68 700 -92 6 -4 46 -15 90 -25 105 -22 225 -57 231 -67 3 -4 15 -8 27 -8 12 0 49 -14 82 -31 33 -17 101 -49 150 -70 50 -22 106 -52 125 -67 19 -15 48 -34 64 -42 42 -22 291 -264 310 -302 8 -18 34 -62 55 -98 66 -107 72 -120 87 -178 8 -30 21 -69 28 -86 28 -64 51 -229 51 -366 0 -148 -20 -369 -35 -384 -6 -6 -10 -23 -10 -39 0 -32 -19 -117 -30 -132 -4 -5 -24 -66 -44 -135 -72 -238 -63 -217 -302 -705 -65 -134 -163 -298 -294 -496 -122 -184 -122 -185 -105 -199 12 -10 16 -9 22 6 5 11 53 87 109 169 387 576 624 1060 724 1480 12 50 26 98 31 108 28 52 35 574 8 602 -5 5 -9 24 -9 43 0 40 -49 190 -86 264 -84 168 -279 383 -445 491 -140 91 -317 174 -499 233 -179 59 -487 124 -585 124 -28 0 -55 4 -60 9 -6 5 -50 12 -100 15 -49 4 -146 10 -215 15 -69 5 -190 14 -270 19 -160 12 -779 13 -990 2z" fill="url(#linear-gradient-2-1)" id="region-2-1" transform="translate(0.000000,752.000000) scale(0.100000,-0.100000)"/><path d="M2978 5063 c-53 -89 -86 -180 -104 -284 -19 -112 -14 -180 21 -286 57 -170 106 -210 244 -200 109 7 170 33 198 82 21 37 73 183 73 206 0 5 -24 9 -52 9 -68 1 -116 18 -161 59 -67 61 -135 222 -158 375 -16 105 -21 108 -61 39z" fill="url(#linear-gradient-2-2)" id="region-2-2" transform="translate(0.000000,752.000000) scale(0.100000,-0.100000)"/><path d="M620 4627 c0 -11 140 -287 145 -287 5 0 -132 279 -141 289 -2 2 -4 1 -4 -2z" fill="url(#linear-gradient-2-3)" id="region-2-3" transform="translate(0.000000,752.000000) scale(0.100000,-0.100000)"/><path d="M1915 4411 c-248 -37 -408 -80 -473 -128 -45 -34 -42 -77 7 -110 71 -48 323 -109 491 -119 47 -3 97 -10 111 -15 14 -6 98 -14 185 -19 87 -5 231 -14 319 -20 254 -17 1256 1 1291 23 6 3 80 11 165 17 85 6 158 15 163 20 6 6 30 10 55 10 56 0 235 40 314 70 64 24 117 64 117 87 0 8 -6 13 -13 10 -7 -3 -82 -17 -167 -31 -85 -15 -171 -31 -190 -36 -43 -11 -184 -27 -345 -40 -271 -22 -901 -5 -1095 30 -30 5 -101 14 -158 20 -132 14 -310 59 -388 98 -69 35 -124 91 -124 127 0 24 -2 25 -72 24 -40 -1 -127 -9 -193 -18z" fill="url(#linear-gradient-2-4)" id="region-2-4" transform="translate(0.000000,752.000000) scale(0.100000,-0.100000)"/><path d="M2575 4359 c-92 -12 -169 -35 -185 -54 -19 -23 1 -39 90 -72 75 -28 75 -28 330 -27 286 1 378 10 438 44 48 27 48 38 1 21 -38 -13 -229 -15 -229 -2 0 5 -12 12 -27 16 -14 3 -40 21 -57 40 l-31 33 -130 5 c-71 3 -161 1 -200 -4z" fill="url(#linear-gradient-2-5)" id="region-2-5" transform="translate(0.000000,752.000000) scale(0.100000,-0.100000)"/><path d="M6340 4240 c-119 -13 -191 -32 -218 -55 l-26 -22 26 -17 c14 -9 61 -23 104 -32 43 -8 102 -20 131 -26 67 -14 403 -3 497 16 103 21 138 70 69 97 -94 36 -418 58 -583 39z" fill="url(#linear-gradient-2-6)" id="region-2-6" transform="translate(0.000000,752.000000) scale(0.100000,-0.100000)"/><path d="M1256 4188 c-15 -50 -19 -217 -7 -261 22 -78 44 -95 146 -113 50 -8 97 -19 107 -24 9 -5 40 -12 70 -15 142 -16 224 -28 233 -35 9 -7 197 -33 325 -45 30 -3 98 -10 150 -16 222 -23 365 -30 700 -35 337 -5 466 0 680 26 47 6 135 15 195 20 61 4 198 22 305 39 107 17 212 30 233 31 20 0 45 4 55 10 9 5 82 20 161 34 79 14 150 31 158 38 47 39 69 149 53 265 -12 84 -25 109 -41 80 -24 -42 -188 -110 -354 -147 -55 -12 -109 -26 -120 -30 -28 -13 -132 -30 -179 -30 -22 0 -65 -5 -95 -10 -158 -28 -441 -44 -856 -47 -533 -4 -870 9 -1150 46 -44 6 -120 16 -170 22 -49 6 -94 15 -99 20 -6 5 -25 9 -44 9 -36 0 -182 35 -210 50 -9 5 -55 27 -103 48 -47 21 -94 51 -106 65 -25 33 -29 33 -37 5z" fill="url(#linear-gradient-2-7)" id="region-2-7" transform="translate(0.000000,752.000000) scale(0.100000,-0.100000)"/><path d="M1300 3818 c0 -8 -16 -29 -35 -48 -40 -38 -43 -48 -17 -56 9 -4 49 -19 89 -35 39 -16 80 -29 90 -29 10 0 31 -7 46 -15 32 -16 112 -38 207 -56 36 -7 70 -15 75 -20 13 -9 168 -38 265 -49 41 -5 120 -15 175 -24 251 -38 827 -52 1130 -28 379 29 676 65 790 93 87 22 163 37 217 44 32 3 60 11 63 16 4 5 21 9 39 9 28 0 393 94 403 103 1 2 -15 21 -37 42 -22 22 -40 45 -40 53 0 10 -8 12 -27 8 -16 -3 -82 -15 -148 -26 -66 -12 -128 -25 -137 -31 -10 -5 -35 -9 -55 -9 -21 -1 -126 -14 -233 -31 -107 -17 -244 -35 -305 -39 -60 -5 -148 -14 -195 -20 -214 -26 -343 -31 -680 -26 -335 5 -478 12 -700 35 -52 6 -120 13 -150 16 -128 12 -316 38 -325 45 -9 7 -90 19 -235 35 -30 4 -59 10 -65 14 -5 4 -44 13 -85 20 -41 7 -85 15 -97 18 -16 3 -23 1 -23 -9z" fill="url(#linear-gradient-2-8)" id="region-2-8" transform="translate(0.000000,752.000000) scale(0.100000,-0.100000)"/><path d="M5400 3384 c-25 -8 -79 -21 -120 -28 -53 -9 -75 -17 -74 -27 1 -8 39 -63 85 -122 149 -192 206 -279 282 -432 80 -160 130 -303 148 -425 6 -41 14 -150 16 -242 l5 -168 102 0 103 0 7 68 c19 194 19 246 -3 353 -11 59 -21 115 -21 125 0 11 -7 32 -15 48 -8 15 -15 36 -15 46 0 9 -11 38 -25 64 -14 26 -25 54 -25 62 0 35 -201 411 -251 469 -21 24 -70 112 -100 178 -23 51 -29 53 -99 31z" fill="url(#linear-gradient-2-9)" id="region-2-9" transform="translate(0.000000,752.000000) scale(0.100000,-0.100000)"/><path d="M505 2508 c-10 -29 -21 -57 -25 -63 -14 -18 -42 -186 -55 -332 -11 -113 26 -421 54 -457 4 -6 11 -27 15 -46 8 -45 142 -313 167 -336 10 -9 19 -23 19 -29 0 -7 19 -35 43 -61 24 -27 64 -76 89 -109 44 -59 189 -197 298 -285 30 -24 79 -65 108 -91 45 -40 61 -47 109 -53 31 -4 62 -11 67 -16 6 -4 58 -14 116 -20 58 -6 109 -15 115 -19 5 -5 42 -11 80 -15 39 -3 97 -11 130 -16 33 -5 116 -14 183 -20 68 -5 128 -13 133 -16 45 -27 1318 -48 1491 -24 40 6 134 14 208 20 74 5 203 18 285 30 342 47 411 57 425 62 21 9 181 38 204 38 64 0 548 454 599 563 9 18 30 51 48 73 37 46 149 270 149 299 0 11 7 34 16 50 15 29 35 116 54 235 18 114 5 439 -18 462 -4 4 -25 -4 -46 -18 -51 -35 -361 -189 -411 -205 -22 -6 -53 -18 -70 -25 -46 -19 -191 -60 -280 -79 -44 -10 -84 -21 -90 -25 -13 -9 -104 -27 -180 -35 -33 -4 -64 -10 -70 -15 -10 -7 -89 -19 -265 -40 -52 -6 -106 -14 -120 -17 -23 -5 -88 -9 -480 -33 -323 -19 -865 -7 -1137 25 -67 8 -145 15 -175 15 -52 1 -111 9 -343 49 -66 11 -134 21 -152 21 -17 0 -34 4 -37 9 -3 5 -27 12 -53 15 -68 9 -146 27 -158 36 -5 5 -28 11 -50 15 -22 4 -44 11 -50 15 -5 4 -35 15 -65 25 -161 51 -486 205 -553 261 -17 14 -40 30 -52 34 -20 8 -117 83 -212 164 l-41 36 -17 -52z" fill="url(#linear-gradient-2-10)" id="region-2-10" transform="translate(0.000000,752.000000) scale(0.100000,-0.100000)"/><path d="M1224 569 c11 -75 62 -165 111 -199 61 -42 101 -55 278 -89 609 -119 1260 -167 1792 -133 504 33 1170 136 1288 199 79 44 129 121 151 232 l6 34 -61 -7 c-34 -3 -67 -10 -73 -15 -6 -6 -36 -12 -66 -16 -135 -15 -226 -29 -235 -35 -5 -4 -73 -13 -150 -20 -77 -6 -147 -15 -155 -20 -8 -4 -73 -10 -143 -14 -70 -3 -147 -11 -170 -16 -122 -27 -1012 -41 -1282 -20 -60 5 -173 14 -250 20 -195 15 -305 26 -415 44 -52 9 -143 20 -201 26 -91 9 -331 48 -408 67 -23 6 -24 5 -17 -38z" fill="url(#linear-gradient-2-11)" id="region-2-11" transform="translate(0.000000,752.000000) scale(0.100000,-0.100000)"/></g><g id="layer-3"><path d="M6351 4200 c-25 -5 -51 -16 -59 -24 -12 -12 -11 -16 9 -28 18 -10 75 -13 224 -13 209 0 255 5 255 30 0 9 -12 21 -27 27 -35 14 -343 20 -402 8z" fill="url(#linear-gradient-3-1)" id="region-3-1" transform="translate(0.000000,752.000000) scale(0.100000,-0.100000)"/><path d="M1300 3823 c0 -10 248 -70 465 -113 198 -39 520 -86 724 -105 189 -17 944 -22 983 -5 13 5 93 14 178 19 174 11 376 37 402 51 10 6 35 10 56 10 45 0 153 20 167 31 6 4 46 12 90 19 118 17 384 80 391 92 4 6 -4 8 -22 4 -16 -3 -83 -15 -149 -26 -66 -12 -128 -25 -137 -31 -10 -5 -35 -9 -55 -9 -21 -1 -126 -14 -233 -31 -107 -17 -244 -35 -305 -39 -60 -5 -148 -14 -195 -20 -214 -26 -343 -31 -680 -26 -335 5 -478 12 -700 35 -52 6 -120 13 -150 16 -128 12 -316 38 -325 45 -9 7 -90 19 -235 35 -30 4 -59 10 -65 14 -5 4 -44 13 -85 20 -41 7 -85 15 -97 18 -13 3 -23 1 -23 -4z" fill="url(#linear-gradient-3-2)" id="region-3-2" transform="translate(0.000000,752.000000) scale(0.100000,-0.100000)"/><path d="M6030 4103 c-79 -87 -197 -263 -285 -427 -77 -142 -120 -189 -224 -245 -61 -32 -230 -81 -282 -81 -15 0 -31 -5 -34 -10 -8 -13 -11 -8 115 -172 95 -124 113 -137 144 -107 6 5 19 9 29 9 22 0 61 16 166 67 173 85 311 273 371 503 12 47 26 94 30 105 4 11 13 54 19 95 6 41 15 98 20 125 12 64 13 176 2 193 -6 10 -25 -5 -71 -55z" fill="url(#linear-gradient-3-3)" id="region-3-3" transform="translate(0.000000,752.000000) scale(0.100000,-0.100000)"/><path d="M1572 3467 c-60 -64 -282 -460 -282 -502 0 -9 -11 -40 -24 -68 -13 -29 -27 -65 -31 -82 -3 -16 -15 -47 -25 -70 -24 -53 -46 -145 -55 -225 -3 -36 -11 -71 -17 -78 -15 -18 -22 -369 -10 -472 15 -119 43 -282 52 -300 4 -8 12 -40 19 -70 16 -69 51 -182 62 -195 4 -6 17 -35 29 -65 30 -76 119 -251 169 -333 22 -37 41 -71 41 -75 0 -4 13 -23 28 -42 16 -19 32 -42 35 -50 4 -8 35 -49 70 -90 66 -78 96 -98 187 -126 30 -9 64 -20 75 -25 16 -7 445 -38 445 -33 0 1 -16 26 -35 55 -19 30 -35 59 -35 65 0 6 -9 23 -20 37 -55 70 -233 468 -280 627 -12 41 -26 83 -31 92 -5 9 -12 36 -15 60 -4 24 -10 48 -14 53 -11 14 -40 148 -40 182 0 16 -4 33 -9 39 -5 5 -11 45 -13 89 -1 44 -8 85 -14 90 -31 27 -55 571 -34 770 21 203 82 451 156 634 19 47 34 89 34 93 0 4 -53 8 -119 8 -65 0 -131 4 -147 9 -16 5 -52 12 -80 15 -44 4 -55 2 -72 -17z" fill="url(#linear-gradient-3-4)" id="region-3-4" transform="translate(0.000000,752.000000) scale(0.100000,-0.100000)"/><path d="M4065 3449 c-16 -5 -96 -12 -177 -16 -82 -3 -148 -8 -148 -11 0 -2 16 -44 35 -91 19 -48 41 -116 50 -151 9 -36 20 -74 25 -85 14 -32 31 -102 40 -174 5 -36 14 -88 19 -116 16 -80 24 -475 11 -610 -19 -217 -44 -399 -65 -490 -9 -38 -21 -95 -26 -125 -6 -30 -14 -59 -20 -64 -5 -6 -9 -20 -9 -32 0 -22 -33 -141 -50 -179 -5 -11 -20 -57 -35 -102 -15 -46 -31 -85 -36 -88 -5 -4 -9 -14 -9 -23 0 -24 -118 -283 -171 -376 -24 -43 -56 -100 -71 -128 l-27 -51 154 6 c177 7 345 37 412 75 45 25 144 129 170 179 8 15 26 44 41 63 15 19 35 51 46 70 10 19 32 55 48 79 34 50 103 201 154 336 19 50 38 99 43 110 5 11 16 54 26 95 10 41 22 80 26 85 4 6 13 44 18 85 6 41 15 98 21 125 17 91 24 355 11 460 -45 381 -179 741 -398 1073 -56 85 -58 86 -108 71z" fill="url(#linear-gradient-3-5)" id="region-3-5" transform="translate(0.000000,752.000000) scale(0.100000,-0.100000)"/></g></svg>