<?xml version="1.0" encoding="utf-8"?>
<!-- Generator: Adobe Illustrator 26.5.0, SVG Export Plug-In . SVG Version: 6.00 Build 0)  -->
<svg version="1.1" id="图层_1" xmlns="http://www.w3.org/2000/svg" xmlns:xlink="http://www.w3.org/1999/xlink" x="0px" y="0px"
	 viewBox="0 0 2820 752" style="enable-background:new 0 0 2820 752;" xml:space="preserve">
<style type="text/css">
	.st0{fill:none;}
	.st1{fill:#D3D3D3;}
	.st2{fill:url(#SVGID_00000056418973661768514800000014368128178736010384_);}
	.st3{fill:none;stroke:#000000;stroke-width:3;stroke-miterlimit:10;}
	.st4{fill:url(#region-1-1_00000167366098213636212630000006260962682990641576_);}
	.st5{fill:url(#region-1-2_00000145045910712224223600000007678941316638264729_);}
	.st6{fill:url(#region-1-3_00000108273482879213106510000008390459388931278746_);}
	.st7{fill:url(#region-1-4_00000023979681122097520460000009283695297481019557_);}
	.st8{fill:url(#region-1-5_00000031188436997455207880000000249494103883603357_);}
	.st9{fill:url(#region-1-6_00000041980870000656256770000013527261716652504202_);}
	.st10{fill:url(#region-2-1_00000074432651235041267460000012980688837256637853_);}
	.st11{fill:url(#region-2-2_00000022562164042597088340000008268974704753922481_);}
	.st12{fill:url(#region-2-3_00000101805484605413986960000016332212217679706015_);}
	.st13{fill:url(#region-2-4_00000010286259944881552810000016112985835602720896_);}
	.st14{fill:url(#region-2-5_00000146474893940632088740000008810180268271686563_);}
	.st15{fill:url(#region-2-6_00000078022518893629093720000016272360875963602842_);}
	.st16{fill:url(#region-2-7_00000078023788942312445160000008460921619427876263_);}
	.st17{fill:url(#region-2-8_00000021098502350077297490000008822758876264960158_);}
	.st18{fill:url(#region-2-9_00000036215762421019334450000008369557729346032024_);}
	.st19{fill:url(#region-2-10_00000005253078308496484150000001713273372214397098_);}
	.st20{fill:url(#region-2-11_00000028303493453995075720000000797508626140018062_);}
	.st21{fill:url(#region-3-1_00000173870411615795682030000016790820974169376160_);}
	.st22{fill:url(#region-3-2_00000090278346109796926020000010397016761992300675_);}
	.st23{fill:url(#region-3-3_00000000213132348516970960000007929900311156674177_);}
	.st24{fill:url(#region-3-4_00000147936246156686264290000003303460973856772227_);}
	.st25{fill:url(#region-3-5_00000158750969691527359360000005635560450928491425_);}
	.st26{fill:url(#region-1-1_00000082330073817116045350000004606898890774858385_);}
	.st27{fill:url(#region-1-2_00000178900261046122308610000005491542469360140941_);}
	.st28{fill:url(#region-1-3_00000148627570971302232070000006230570857875245444_);}
	.st29{fill:url(#region-1-4_00000114793994438732870220000009510552477075709886_);}
	.st30{fill:url(#region-1-5_00000124859516606008590190000015240614919984894396_);}
	.st31{fill:url(#region-1-6_00000131336731405921272700000015538545391705917375_);}
	.st32{fill:url(#region-2-1_00000168803586090951457170000001732960766161904264_);}
	
		.st33{fill:url(#region-2-2_00000021095202065883659380000003685970815618984340_);stroke:#000000;stroke-width:2;stroke-miterlimit:10;}
	
		.st34{fill:url(#region-2-3_00000129927471684830010190000000691957725721109916_);stroke:#000000;stroke-width:2;stroke-miterlimit:10;}
	
		.st35{fill:url(#region-2-4_00000111872703079860636580000009519842981037624253_);stroke:#000000;stroke-width:2;stroke-miterlimit:10;}
	
		.st36{fill:url(#region-2-5_00000085234177496769753440000009125450316080207263_);stroke:#000000;stroke-width:2;stroke-miterlimit:10;}
	
		.st37{fill:url(#region-2-6_00000079454589841354350300000016037200944872303284_);stroke:#000000;stroke-width:2;stroke-miterlimit:10;}
	
		.st38{fill:url(#region-2-7_00000097501983404462184310000009111928928260715943_);stroke:#000000;stroke-width:2;stroke-miterlimit:10;}
	
		.st39{fill:url(#region-2-8_00000031200359919807555290000011196646056727081384_);stroke:#000000;stroke-width:2;stroke-miterlimit:10;}
	
		.st40{fill:url(#region-2-9_00000074440456128097826270000009205424776723270844_);stroke:#000000;stroke-width:2;stroke-miterlimit:10;}
	
		.st41{fill:url(#region-2-10_00000109725197912216145830000006592795666358399146_);stroke:#000000;stroke-width:2;stroke-miterlimit:10;}
	
		.st42{fill:url(#region-2-11_00000145050854599292119220000008495549437353000086_);stroke:#000000;stroke-width:2;stroke-miterlimit:10;}
	
		.st43{fill:url(#region-3-1_00000121260940773493428610000000138276283408156840_);stroke:#000000;stroke-width:2;stroke-miterlimit:10;}
	
		.st44{fill:url(#region-3-2_00000100358401294771698370000017714370248851241407_);stroke:#000000;stroke-width:2;stroke-miterlimit:10;}
	
		.st45{fill:url(#region-3-3_00000003068033995421073990000012052013165626805921_);stroke:#000000;stroke-width:2;stroke-miterlimit:10;}
	
		.st46{fill:url(#region-3-4_00000137108728013427118490000004530560654919346095_);stroke:#000000;stroke-width:2;stroke-miterlimit:10;}
	
		.st47{fill:url(#region-3-5_00000077298621245519130760000000288119771896131005_);stroke:#000000;stroke-width:2;stroke-miterlimit:10;}
</style>
<pattern  y="752" width="40" height="40" patternUnits="userSpaceOnUse" id="SVGID_1_" viewBox="0 -40 40 40" style="overflow:visible;">
	<g>
		<rect y="-40" class="st0" width="40" height="40"/>
		<g>
			<rect y="-40" class="st0" width="40" height="40"/>
			<rect y="-40" class="st0" width="40" height="40"/>
			<rect y="-20" class="st1" width="20" height="20"/>
			<rect x="20" y="-40" class="st1" width="20" height="20"/>
		</g>
	</g>
</pattern>
<g id="图层_2_00000163035835697794008820000010904614751966535358_">
	
		<pattern  id="SVGID_00000026138704026926828640000018333727346395020718_" xlink:href="#SVGID_1_" patternTransform="matrix(1 0 0 -1 1070.5 -17579.2402)">
	</pattern>
	<rect x="705" style="fill:url(#SVGID_00000026138704026926828640000018333727346395020718_);" width="2115" height="752"/>
	<line class="st3" x1="705" y1="0" x2="705" y2="752"/>
	<line class="st3" x1="1410" y1="0" x2="1410" y2="752"/>
	<line class="st3" x1="2115" y1="0" x2="2115" y2="752"/>
</g>
<g id="图层_1_00000165916514453219151790000015516905760594708886_">
	<g id="layer-1">
		
			<linearGradient id="region-1-1_00000103965853503568488710000015735405315122543000_" gradientUnits="userSpaceOnUse" x1="-187.8738" y1="-77.5547" x2="-187.3521" y2="-79.0207" gradientTransform="matrix(582.9293 0 0 -375.5083 109705.3359 -29146.1602)">
			<stop  offset="0" style="stop-color:#474B58;stop-opacity:0.99"/>
			<stop  offset="1" style="stop-color:#303442;stop-opacity:0.99"/>
		</linearGradient>
		<path id="region-1-1" style="fill:url(#region-1-1_00000103965853503568488710000015735405315122543000_);" d="M287.7,17.4
			c-0.2,0.3-13.5,0.9-29.4,1.6c-44.1,1.6-78.8,5-103,10C86.8,43.1,42.8,71.1,22.2,113.5c-4.9,10.3-9.7,26-8.9,29.2
			c0.3,1.2,0,4.2-0.5,6.5c-2,7.8-3,27.8-1.9,37.8c5.5,52,33.6,114.5,85.2,189.5c12.5,18.2,11.5,17.5,16,12l3.8-4.5l-5.4-8.3
			c-2.9-4.5-7-10.4-9-13c-2-2.7-3.7-5.3-3.7-5.9c0-1.2-9.6-17.5-12-20.3c-3.6-4.2-25-45.1-25-47.8c0-1.4-3.7-10-9.1-21.3
			c-1.6-3.3-2.9-6.7-2.9-7.6c0-1.5-4.2-14.6-5.9-18.3c-0.5-1.1-1.9-6.5-3.2-12c-1.2-5.5-2.5-10.5-2.9-11c-3.5-4.7-4.7-53.1-1.8-68.8
			c1-4.9,2.2-9.4,2.7-10.1c0.6-0.7,1.7-3.7,2.5-6.7c2-7,9.2-21.1,14.9-29.1c5.1-7.2,24.4-26.4,27.9-27.7c1.3-0.5,4.3-2.4,6.8-4.2
			c5.8-4.2,34.1-18.4,40-19.9c2.5-0.7,5.9-1.8,7.5-2.5c1.7-0.7,5-1.6,7.5-1.9c2.4-0.4,4.9-1.1,5.5-1.5c1.5-1.2,9.9-3.1,13.4-3.1
			c1.6,0,3.2-0.4,3.6-0.9c0.3-0.5,3.1-1.2,6.3-1.6c3.1-0.3,9.3-1.2,13.7-2c8.5-1.5,20.7-2.7,47.5-4.7c22.1-1.7,109-1.7,136.5,0
			c29,1.8,66.6,6.8,70,9.2c0.6,0.4,4.6,1.5,9,2.5c10.5,2.2,22.5,5.7,23.1,6.7c0.3,0.4,1.5,0.8,2.7,0.8s4.9,1.4,8.2,3.1
			c3.3,1.7,10.1,4.9,15,7c5,2.2,10.6,5.2,12.5,6.7s4.8,3.4,6.4,4.2c4.2,2.2,29.1,26.4,31,30.2c0.8,1.8,3.4,6.2,5.5,9.8
			c6.6,10.7,7.2,12,8.7,17.8c0.8,3,2.1,6.9,2.8,8.6c2.8,6.4,5.1,22.9,5.1,36.6c0,14.8-2,36.9-3.5,38.4c-0.6,0.6-1,2.3-1,3.9
			c0,3.2-1.9,11.7-3,13.2c-0.4,0.5-2.4,6.6-4.4,13.5c-6.3,20.6-7.5,23.8-16.3,42c-4.7,9.6-10.9,22.4-13.8,28.5
			c-5.3,10.9-19.4,35.4-22.3,38.8c-0.8,0.9-5.5,7.9-10.3,15.4l-8.8,13.7l3.7,4c2,2.3,4,4.1,4.4,4.1s5.4-6.8,11.2-15.1
			C555,308.1,582,251.3,591.5,200c2.5-13.7,2.5-46.3,0-57.8c-3.8-17-9.2-29.9-18.7-44c-7.9-11.7-15.6-20-26.4-28.4
			C507,39.3,450.2,23.6,366.8,20c-14-0.6-33.1-1.5-42.5-2C306.8,16.9,288.5,16.7,287.7,17.4z"/>
		
			<linearGradient id="region-1-2_00000083062477805347833480000008207460839900567190_" gradientUnits="userSpaceOnUse" x1="-187.6795" y1="-77.6792" x2="-187.6096" y2="-78.8295" gradientTransform="matrix(537.9291 0 0 -351.8038 101245.7109 -27305.6094)">
			<stop  offset="0" style="stop-color:#000001;stop-opacity:0.995"/>
			<stop  offset="1" style="stop-color:#020305"/>
		</linearGradient>
		<path id="region-1-2" style="fill:url(#region-1-2_00000083062477805347833480000008207460839900567190_);" d="M254.8,32.5
			c-0.8,0.2-9.6,0.8-19.5,1.4c-23.3,1.5-38.1,2.9-48,4.6c-4.4,0.8-10.6,1.7-13.7,2c-3.2,0.4-6,1.1-6.3,1.6c-0.4,0.5-2,0.9-3.6,0.9
			c-3.5,0-11.9,1.9-13.4,3.1c-0.6,0.4-3.1,1.1-5.5,1.5c-2.5,0.3-5.8,1.2-7.5,1.9c-1.6,0.7-5,1.8-7.5,2.5c-5.9,1.5-34.2,15.7-40,19.9
			c-2.5,1.8-5.5,3.7-6.8,4.2c-3.5,1.3-22.8,20.5-27.9,27.7c-5.7,8-12.9,22.1-14.9,29.1c-0.8,3-1.9,6-2.5,6.7
			c-0.5,0.7-1.7,5.2-2.7,10.1c-2.9,15.7-1.7,64.1,1.8,68.8c0.4,0.5,1.7,5.5,2.9,11c1.3,5.5,2.7,10.9,3.2,12
			c1.7,3.7,5.9,16.8,5.9,18.3c0,0.9,1.3,4.3,2.9,7.6c5.4,11.3,9.1,19.9,9.1,21.3c0,2.7,21.4,43.6,25,47.8c2.4,2.8,12,19.1,12,20.3
			c0,0.6,1.7,3.2,3.7,5.9c2,2.6,6.1,8.5,9.1,13.1c3.5,5.3,5.8,8,6.4,7.4s-1.8-5.3-6.5-12.8c-14.3-22.9-28.7-49.6-28.7-53.3
			c0-1.1-1.8-4.9-4-8.4c-10.7-17-25.5-61.6-30.7-92.4c-2.5-14.9-2.5-49,0-61.3c3.7-18,11.2-36,20.2-48.5c6.1-8.5,21.7-23.4,30.4-29
			c15.5-10,39.6-19.8,64-26c11-2.8,35.7-7.2,44.4-7.9c2.9-0.3,9.5-1,14.7-1.5c16.6-1.9,26.4-2.2,74.1-2.8
			c44.7-0.4,50.1-0.3,87.9,2.7c59,4.6,112,22.5,138.2,46.8c22.2,20.6,35.7,50.3,37.4,82.2c0.3,5.8,0.7,10.7,0.9,11
			c0.4,0.8-1.3,23.9-2.4,33c-1.4,9.9-5.9,29.3-10.2,43.5c-10.1,32.9-34.7,84.1-55.8,116c-3.6,5.4-4.9,8.1-4.2,8.8
			c1.3,1.3,0.2,2.7,10.1-12.8c4.6-7.2,9.1-13.9,10-15c3.1-3.6,17.1-27.8,22.5-39c2.9-6.1,9.1-18.9,13.8-28.5
			c8.8-18.2,10-21.4,16.3-42c2-6.9,4-13,4.4-13.5c1.1-1.5,3-10,3-13.2c0-1.6,0.4-3.3,1-3.9c1.5-1.5,3.5-23.6,3.5-38.4
			c0-13.7-2.3-30.2-5.1-36.6c-0.7-1.7-2-5.6-2.8-8.6c-1.5-5.8-2.1-7.1-8.7-17.8c-2.1-3.6-4.7-8-5.5-9.8c-1.9-3.8-26.8-28-31-30.2
			c-1.6-0.8-4.5-2.7-6.4-4.2s-7.5-4.5-12.5-6.7c-4.9-2.1-11.7-5.3-15-7s-7-3.1-8.2-3.1s-2.4-0.4-2.7-0.8c-0.6-1-12.6-4.5-23.1-6.7
			c-4.4-1-8.4-2.1-9-2.5c-3.1-2.2-40.4-7.3-67-9.1C358.8,32.9,258.3,31.7,254.8,32.5z"/>
		
			<linearGradient id="region-1-3_00000050648845282527614570000005400710174758310810_" gradientUnits="userSpaceOnUse" x1="-185.0838" y1="-79.6703" x2="-184.8838" y2="-80.7494" gradientTransform="matrix(61.7862 0 0 -90.8242 11740.4102 -7007.2119)">
			<stop  offset="0" style="stop-color:#BD8B63;stop-opacity:0.994"/>
			<stop  offset="1" style="stop-color:#B6835C;stop-opacity:0.995"/>
		</linearGradient>
		<path id="region-1-3" style="fill:url(#region-1-3_00000050648845282527614570000005400710174758310810_);" d="M303.3,236.4
			c-4.9,2.2-8.1,6.5-14,18.8c-7.5,15.5-9.3,24.3-7.8,37.7c1.7,14.8,8.4,27.6,16,30.3c1.8,0.7,3.3,1.6,3.3,2c0,1.5,18.8,0.9,25.1-0.9
			l6.1-1.7l4.5-9.3c4.8-9.9,6.2-16.7,6.3-28.9c0-17.7-9.8-33.6-28.1-45.4C307.8,234.6,307.6,234.5,303.3,236.4z"/>
		
			<linearGradient id="region-1-4_00000018214533342284094840000006950189776201946559_" gradientUnits="userSpaceOnUse" x1="-187.479" y1="-79.757" x2="-187.4762" y2="-80.8021" gradientTransform="matrix(358.4091 0 0 -90.2731 67495.7344 -6902.5474)">
			<stop  offset="0" style="stop-color:#B5845F;stop-opacity:0.994"/>
			<stop  offset="1" style="stop-color:#B1805B;stop-opacity:0.994"/>
		</linearGradient>
		<path id="region-1-4" style="fill:url(#region-1-4_00000018214533342284094840000006950189776201946559_);" d="M262.8,298.2
			c-66.2,2.4-122.5,13-134,25.2c-3.2,3.5-4.9,9.9-5.7,21.8c-0.7,10.8,0.5,16.8,4,21.1c1.8,2.3,3.7,3,11.2,4.3
			c5,0.8,9.7,1.9,10.7,2.4c0.9,0.5,4,1.2,7,1.5c14.2,1.6,22.4,2.8,23.3,3.5c0.9,0.7,19.7,3.3,32.5,4.5c3,0.3,9.8,1,15,1.6
			c22.2,2.3,36.5,3,70,3.5c33.7,0.5,46.6,0,68-2.6c4.7-0.6,13.5-1.5,19.5-2c6.1-0.4,19.8-2.2,30.5-3.9c10.7-1.7,21.2-3,23.3-3.1
			c2,0,4.5-0.4,5.5-1c0.9-0.5,8.2-2,16.1-3.4s15-3.1,15.8-3.8c4.7-3.9,6.9-14.9,5.3-26.5c-0.7-4.6-1.6-8.6-2.1-8.9s-0.9-1.9-0.9-3.5
			c0-3.8-3.1-6.9-10.8-10.8c-18.1-9.1-57.2-15.8-115.3-19.6l-9.6-0.7l-0.7,3.3c-0.3,1.8-2.6,7.4-5,12.4l-4.4,9.1l-6.1,1.7
			c-6.3,1.8-25.1,2.4-25.1,0.9c0-0.4-1.5-1.3-3.3-2c-5.4-1.9-10.4-9-14.1-19.7l-2.1-6L262.8,298.2z"/>
		
			<linearGradient id="region-1-5_00000094597032864700576070000011859686713271991695_" gradientUnits="userSpaceOnUse" x1="-187.5118" y1="-78.3976" x2="-186.2473" y2="-78.7288" gradientTransform="matrix(174.7513 0 0 -230.8985 33272.7266 -17700.8789)">
			<stop  offset="0" style="stop-color:#B18563;stop-opacity:0.99"/>
			<stop  offset="1" style="stop-color:#935731;stop-opacity:0.991"/>
		</linearGradient>
		<path id="region-1-5" style="fill:url(#region-1-5_00000094597032864700576070000011859686713271991695_);" d="M632.8,328
			c-13.9,1.6-18.9,3.1-24.1,7.1c-9.6,7.7-23.2,26.6-35.5,49.3c-3.6,6.8-8.2,14-10.2,15.9c-8.2,7.9-20.5,13.4-36.4,16.1
			c-5.1,0.9-7.3,1.7-7.2,2.7c0.1,0.8,3.9,6.3,8.5,12.2c14.9,19.2,20.6,27.9,28.2,43.2c8,16,13,30.3,14.8,42.5
			c0.6,4.1,1.4,15.1,1.6,24.4l0.5,16.8l12.1-0.5c14.3-0.6,21.1-2.2,32.6-7.9c28-13.7,40.9-47,37.2-96.6c-0.6-9.2-1.8-21.4-2.7-27.2
			c-2.1-14.7-2.1-24.4,0.1-31c4.6-14.3,17.9-34,34-50.3c9.1-9.3,9.7-10.9,4.8-12.8C681.7,328.3,649.3,326.1,632.8,328z"/>
		
			<linearGradient id="region-1-6_00000130625320446849637560000013206192933972813955_" gradientUnits="userSpaceOnUse" x1="-187.6836" y1="-77.6465" x2="-187.6166" y2="-78.7809" gradientTransform="matrix(541.6071 0 0 -369.2433 101936.6172 -28311.6016)">
			<stop  offset="0" style="stop-color:#9E6945;stop-opacity:0.997"/>
			<stop  offset="1" style="stop-color:#9F6A45;stop-opacity:0.997"/>
		</linearGradient>
		<path id="region-1-6" style="fill:url(#region-1-6_00000130625320446849637560000013206192933972813955_);" d="M128.8,370.1
			c0,0.7-4.2,5.6-9.3,10.8c-10.9,11.3-29.6,32.9-42,48.5c-30.2,37.9-44.9,73-46.4,110.6c-1.8,43.9,17.3,85.8,55.8,122.4
			c8.5,8.1,24.8,21.7,30.7,25.6c1.6,1.1,2.7,3.4,3.8,7.9c2.9,12.6,8.9,19.9,19.4,23.6s56.6,11.3,87,14.4
			c45.5,4.7,76.2,5.6,111.5,3.3c50.4-3.3,117-13.6,128.8-19.9c7.9-4.3,13-12.1,15-23.1c0.5-2.6,0.3-3.2-1.1-3.2
			c-1-0.1-0.4-0.6,1.4-1.4c1.7-0.8,9.9-6.9,18.3-13.6c38.8-31.3,63.5-69.8,69.7-108.7c1.8-11.4,1.5-36.9-0.5-50.3
			c-2.4-16.4-14.8-46.7-25.1-61.4c-16.5-23.6-43.1-55.8-61.6-74.6c-5.2-5.3-9.4-10.1-9.4-10.8c0-0.9-0.9-1.2-2.7-0.8
			c-1.6,0.3-8.2,1.5-14.8,2.6c-6.6,1.2-12.8,2.5-13.7,3.1c-1,0.5-3.5,0.9-5.5,0.9c-2.1,0.1-12.6,1.4-23.3,3.1
			c-10.7,1.7-24.4,3.5-30.5,3.9c-6,0.5-14.8,1.4-19.5,2c-21.4,2.6-34.3,3.1-68,2.6c-33.5-0.5-47.8-1.2-70-3.5
			c-5.2-0.6-12-1.3-15-1.6c-12.8-1.2-31.6-3.8-32.5-4.5s-9-1.9-23.5-3.5c-3-0.4-5.9-1-6.5-1.4c-0.5-0.4-4.4-1.3-8.5-2
			s-8.5-1.5-9.7-1.8C129.6,369,128.8,369.2,128.8,370.1z"/>
	</g>
	<g id="layer-2">
		
			<linearGradient id="region-2-1_00000049185976745925603640000010366207707262645416_" gradientUnits="userSpaceOnUse" x1="-187.6714" y1="-77.6829" x2="-187.6714" y2="-78.6829" gradientTransform="matrix(570.0914 0 0 -364.6856 107285.2109 -28302.5879)">
			<stop  offset="0" style="stop-color:#00000A;stop-opacity:0.682"/>
			<stop  offset="1" style="stop-color:#1E1B1E;stop-opacity:0.828"/>
		</linearGradient>
		<path id="region-2-1" style="fill:url(#region-2-1_00000049185976745925603640000010366207707262645416_);" d="M252.8,28
			c-7.4,0.4-21.8,1-32,1.4s-20.1,1.1-22,1.6s-9.8,1.6-17.5,2.5s-20.5,2.9-28.5,4.5C79,52.7,33.3,84.9,16.9,133.7
			c-5.4,16.1-7.8,37.2-6,53.7c5.7,52,33.8,114.4,85.2,189.1c12.5,18.2,11.5,17.5,16,12l3.8-4.5l-5.4-8.3c-2.9-4.5-7-10.4-9-13
			c-2-2.7-3.7-5.3-3.7-5.9c0-1.2-9.6-17.5-12-20.3c-3.6-4.2-25-45.1-25-47.8c0-1.4-3.7-10-9.1-21.3c-1.6-3.3-2.9-6.7-2.9-7.6
			c0-1.5-4.2-14.6-5.9-18.3c-0.5-1.1-1.9-6.5-3.2-12c-1.2-5.5-2.5-10.5-2.9-11c-3.5-4.7-4.7-53.1-1.8-68.8c1-4.9,2.2-9.4,2.7-10.1
			c0.6-0.7,1.7-3.7,2.5-6.7c2-7,9.2-21.1,14.9-29.1c5.1-7.2,24.4-26.4,27.9-27.7c1.3-0.5,4.3-2.4,6.8-4.2c5.8-4.2,34.1-18.4,40-19.9
			c2.5-0.7,5.9-1.8,7.5-2.5c1.7-0.7,5-1.6,7.5-1.9c2.4-0.4,4.9-1.1,5.5-1.5c1.5-1.2,9.9-3.1,13.4-3.1c1.6,0,3.2-0.4,3.6-0.9
			c0.3-0.5,3.1-1.2,6.3-1.6c3.1-0.3,9.3-1.2,13.7-2c8.5-1.5,20.7-2.7,47.5-4.7c22.1-1.7,109-1.7,136.5,0c29,1.8,66.6,6.8,70,9.2
			c0.6,0.4,4.6,1.5,9,2.5c10.5,2.2,22.5,5.7,23.1,6.7c0.3,0.4,1.5,0.8,2.7,0.8s4.9,1.4,8.2,3.1c3.3,1.7,10.1,4.9,15,7
			c5,2.2,10.6,5.2,12.5,6.7s4.8,3.4,6.4,4.2c4.2,2.2,29.1,26.4,31,30.2c0.8,1.8,3.4,6.2,5.5,9.8c6.6,10.7,7.2,12,8.7,17.8
			c0.8,3,2.1,6.9,2.8,8.6c2.8,6.4,5.1,22.9,5.1,36.6c0,14.8-2,36.9-3.5,38.4c-0.6,0.6-1,2.3-1,3.9c0,3.2-1.9,11.7-3,13.2
			c-0.4,0.5-2.4,6.6-4.4,13.5c-7.2,23.8-6.3,21.7-30.2,70.5c-6.5,13.4-16.3,29.8-29.4,49.6c-12.2,18.4-12.2,18.5-10.5,19.9
			c1.2,1,1.6,0.9,2.2-0.6c0.5-1.1,5.3-8.7,10.9-16.9c38.7-57.6,62.4-106,72.4-148c1.2-5,2.6-9.8,3.1-10.8c2.8-5.2,3.5-57.4,0.8-60.2
			c-0.5-0.5-0.9-2.4-0.9-4.3c0-4-4.9-19-8.6-26.4c-8.4-16.8-27.9-38.3-44.5-49.1c-14-9.1-31.7-17.4-49.9-23.3
			C456.9,40.5,426.1,34,416.3,34c-2.8,0-5.5-0.4-6-0.9c-0.6-0.5-5-1.2-10-1.5c-4.9-0.4-14.6-1-21.5-1.5s-19-1.4-27-1.9
			C335.8,27,273.9,26.9,252.8,28z"/>
		
			<linearGradient id="region-2-2_00000144326633449110911710000016076648689933994634_" gradientUnits="userSpaceOnUse" x1="-185.0156" y1="-80.0057" x2="-184.321" y2="-81.1035" gradientTransform="matrix(54.6934 0 0 -81.8136 10407.4971 -6307.5938)">
			<stop  offset="0" style="stop-color:#975D3B;stop-opacity:0.637"/>
			<stop  offset="1" style="stop-color:#9D6542;stop-opacity:0.708"/>
		</linearGradient>
		<path id="region-2-2" style="fill:url(#region-2-2_00000144326633449110911710000016076648689933994634_);" d="M296.6,245.7
			c-5.3,8.9-8.6,18-10.4,28.4c-1.9,11.2-1.4,18,2.1,28.6c5.7,17,10.6,21,24.4,20c10.9-0.7,17-3.3,19.8-8.2
			c2.1-3.7,7.3-18.3,7.3-20.6c0-0.5-2.4-0.9-5.2-0.9c-6.8-0.1-11.6-1.8-16.1-5.9c-6.7-6.1-13.5-22.2-15.8-37.5
			C301.1,239.1,300.6,238.8,296.6,245.7z"/>
		
			<linearGradient id="region-2-3_00000167361007443783747960000012665201210681762713_" gradientUnits="userSpaceOnUse" x1="-175.6194" y1="-85.6134" x2="-174.5279" y2="-86.58" gradientTransform="matrix(14.5134 0 0 -29.004 2609.2937 -2193.3162)">
			<stop  offset="0" style="stop-color:#415078;stop-opacity:0.135"/>
			<stop  offset="1" style="stop-color:#425078;stop-opacity:0.114"/>
		</linearGradient>
		<path id="region-2-3" style="fill:url(#region-2-3_00000167361007443783747960000012665201210681762713_);" d="M60.8,289.3
			c0,1.1,14,28.7,14.5,28.7s-13.2-27.9-14.1-28.9C61,288.9,60.8,289,60.8,289.3z"/>
		
			<linearGradient id="region-2-4_00000141433899623011005520000011141357470078264722_" gradientUnits="userSpaceOnUse" x1="-187.4237" y1="-82.7116" x2="-187.4237" y2="-83.7116" gradientTransform="matrix(324.985 0 0 -43.5974 61212.1875 -3296.937)">
			<stop  offset="0" style="stop-color:#5D2109;stop-opacity:0.302"/>
			<stop  offset="1" style="stop-color:#531400;stop-opacity:0.362"/>
		</linearGradient>
		<path id="region-2-4" style="fill:url(#region-2-4_00000141433899623011005520000011141357470078264722_);" d="M190.3,310.9
			c-24.8,3.7-40.8,8-47.3,12.8c-4.5,3.4-4.2,7.7,0.7,11c7.1,4.8,32.3,10.9,49.1,11.9c4.7,0.3,9.7,1,11.1,1.5
			c1.4,0.6,9.8,1.4,18.5,1.9s23.1,1.4,31.9,2c25.4,1.7,125.6-0.1,129.1-2.3c0.6-0.3,8-1.1,16.5-1.7s15.8-1.5,16.3-2
			c0.6-0.6,3-1,5.5-1c5.6,0,23.5-4,31.4-7c6.4-2.4,11.7-6.4,11.7-8.7c0-0.8-0.6-1.3-1.3-1c-0.7,0.3-8.2,1.7-16.7,3.1
			c-8.5,1.5-17.1,3.1-19,3.6c-4.3,1.1-18.4,2.7-34.5,4c-27.1,2.2-90.1,0.5-109.5-3c-3-0.5-10.1-1.4-15.8-2
			c-13.2-1.4-31-5.9-38.8-9.8c-6.9-3.5-12.4-9.1-12.4-12.7c0-2.4-0.2-2.5-7.2-2.4C205.6,309.2,196.9,310,190.3,310.9z"/>
		
			<linearGradient id="region-2-5_00000059308568624171085230000011772426258429639608_" gradientUnits="userSpaceOnUse" x1="-185.9203" y1="-92.6906" x2="-185.9203" y2="-93.6906" gradientTransform="matrix(90.0686 0 0 -15.8702 17027.7637 -1155.4597)">
			<stop  offset="0" style="stop-color:#5C1A00;stop-opacity:0.17"/>
			<stop  offset="1" style="stop-color:#5C1800;stop-opacity:0.194"/>
		</linearGradient>
		<path id="region-2-5" style="fill:url(#region-2-5_00000059308568624171085230000011772426258429639608_);" d="M256.3,316.1
			c-9.2,1.2-16.9,3.5-18.5,5.4c-1.9,2.3,0.1,3.9,9,7.2c7.5,2.8,7.5,2.8,33,2.7c28.6-0.1,37.8-1,43.8-4.4c4.8-2.7,4.8-3.8,0.1-2.1
			c-3.8,1.3-22.9,1.5-22.9,0.2c0-0.5-1.2-1.2-2.7-1.6c-1.4-0.3-4-2.1-5.7-4l-3.1-3.3l-13-0.5C269.2,315.4,260.2,315.6,256.3,316.1z"
			/>
		
			<linearGradient id="region-2-6_00000066503525265758216210000007143524795587500946_" gradientUnits="userSpaceOnUse" x1="-185.8308" y1="-92.0612" x2="-185.8266" y2="-93.1629" gradientTransform="matrix(86.2776 0 0 -16.5305 16684.4121 -1194.5186)">
			<stop  offset="0" style="stop-color:#FFE5D6;stop-opacity:0.549"/>
			<stop  offset="1" style="stop-color:#FFE3D4;stop-opacity:0.523"/>
		</linearGradient>
		<path id="region-2-6" style="fill:url(#region-2-6_00000066503525265758216210000007143524795587500946_);" d="M632.8,328
			c-11.9,1.3-19.1,3.2-21.8,5.5l-2.6,2.2l2.6,1.7c1.4,0.9,6.1,2.3,10.4,3.2c4.3,0.8,10.2,2,13.1,2.6c6.7,1.4,40.3,0.3,49.7-1.6
			c10.3-2.1,13.8-7,6.9-9.7C681.7,328.3,649.3,326.1,632.8,328z"/>
		
			<linearGradient id="region-2-7_00000075133527874676854440000008279792011939107227_" gradientUnits="userSpaceOnUse" x1="-187.4868" y1="-81.3852" x2="-187.4269" y2="-83.5343" gradientTransform="matrix(358.3221 0 0 -56.6144 67479.4219 -4277.1792)">
			<stop  offset="0" style="stop-color:#76442D;stop-opacity:0.66"/>
			<stop  offset="1" style="stop-color:#7E4D34;stop-opacity:0.749"/>
		</linearGradient>
		<path id="region-2-7" style="fill:url(#region-2-7_00000075133527874676854440000008279792011939107227_);" d="M124.4,333.2
			c-1.5,5-1.9,21.7-0.7,26.1c2.2,7.8,4.4,9.5,14.6,11.3c5,0.8,9.7,1.9,10.7,2.4c0.9,0.5,4,1.2,7,1.5c14.2,1.6,22.4,2.8,23.3,3.5
			c0.9,0.7,19.7,3.3,32.5,4.5c3,0.3,9.8,1,15,1.6c22.2,2.3,36.5,3,70,3.5c33.7,0.5,46.6,0,68-2.6c4.7-0.6,13.5-1.5,19.5-2
			c6.1-0.4,19.8-2.2,30.5-3.9c10.7-1.7,21.2-3,23.3-3.1c2,0,4.5-0.4,5.5-1c0.9-0.5,8.2-2,16.1-3.4s15-3.1,15.8-3.8
			c4.7-3.9,6.9-14.9,5.3-26.5c-1.2-8.4-2.5-10.9-4.1-8c-2.4,4.2-18.8,11-35.4,14.7c-5.5,1.2-10.9,2.6-12,3c-2.8,1.3-13.2,3-17.9,3
			c-2.2,0-6.5,0.5-9.5,1c-15.8,2.8-44.1,4.4-85.6,4.7c-53.3,0.4-87-0.9-115-4.6c-4.4-0.6-12-1.6-17-2.2c-4.9-0.6-9.4-1.5-9.9-2
			c-0.6-0.5-2.5-0.9-4.4-0.9c-3.6,0-18.2-3.5-21-5c-0.9-0.5-5.5-2.7-10.3-4.8c-4.7-2.1-9.4-5.1-10.6-6.5
			C125.6,330.4,125.2,330.4,124.4,333.2z"/>
		
			<linearGradient id="region-2-8_00000018916053812983662300000000894695702264784053_" gradientUnits="userSpaceOnUse" x1="-187.4829" y1="-83.5123" x2="-187.4677" y2="-85.2935" gradientTransform="matrix(360.5866 0 0 -38.2131 67905.2031 -2822.2478)">
			<stop  offset="0" style="stop-color:#7C4D31;stop-opacity:0.73"/>
			<stop  offset="1" style="stop-color:#8A5738;stop-opacity:0.777"/>
		</linearGradient>
		<path id="region-2-8" style="fill:url(#region-2-8_00000018916053812983662300000000894695702264784053_);" d="M128.8,370.2
			c0,0.8-1.6,2.9-3.5,4.8c-4,3.8-4.3,4.8-1.7,5.6c0.9,0.4,4.9,1.9,8.9,3.5c3.9,1.6,8,2.9,9,2.9s3.1,0.7,4.6,1.5
			c3.2,1.6,11.2,3.8,20.7,5.6c3.6,0.7,7,1.5,7.5,2c1.3,0.9,16.8,3.8,26.5,4.9c4.1,0.5,12,1.5,17.5,2.4c25.1,3.8,82.7,5.2,113,2.8
			c37.9-2.9,67.6-6.5,79-9.3c8.7-2.2,16.3-3.7,21.7-4.4c3.2-0.3,6-1.1,6.3-1.6c0.4-0.5,2.1-0.9,3.9-0.9c2.8,0,39.3-9.4,40.3-10.3
			c0.1-0.2-1.5-2.1-3.7-4.2c-2.2-2.2-4-4.5-4-5.3c0-1-0.8-1.2-2.7-0.8c-1.6,0.3-8.2,1.5-14.8,2.6c-6.6,1.2-12.8,2.5-13.7,3.1
			c-1,0.5-3.5,0.9-5.5,0.9c-2.1,0.1-12.6,1.4-23.3,3.1c-10.7,1.7-24.4,3.5-30.5,3.9c-6,0.5-14.8,1.4-19.5,2
			c-21.4,2.6-34.3,3.1-68,2.6c-33.5-0.5-47.8-1.2-70-3.5c-5.2-0.6-12-1.3-15-1.6c-12.8-1.2-31.6-3.8-32.5-4.5s-9-1.9-23.5-3.5
			c-3-0.4-5.9-1-6.5-1.4c-0.5-0.4-4.4-1.3-8.5-2s-8.5-1.5-9.7-1.8C129.5,369,128.8,369.2,128.8,370.2z"/>
		
			<linearGradient id="region-2-9_00000028318402145777779320000000609195268217165217_" gradientUnits="userSpaceOnUse" x1="-186.0952" y1="-78.7815" x2="-184.8693" y2="-79.683" gradientTransform="matrix(76.1928 0 0 -145.7312 14694.4316 -11058.0068)">
			<stop  offset="0" style="stop-color:#743011;stop-opacity:0.593"/>
			<stop  offset="1" style="stop-color:#9D694A;stop-opacity:0.815"/>
		</linearGradient>
		<path id="region-2-9" style="fill:url(#region-2-9_00000028318402145777779320000000609195268217165217_);" d="M538.8,413.6
			c-2.5,0.8-7.9,2.1-12,2.8c-5.3,0.9-7.5,1.7-7.4,2.7c0.1,0.8,3.9,6.3,8.5,12.2c14.9,19.2,20.6,27.9,28.2,43.2
			c8,16,13,30.3,14.8,42.5c0.6,4.1,1.4,15,1.6,24.2L573,558h10.2h10.3l0.7-6.8c1.9-19.4,1.9-24.6-0.3-35.3
			c-1.1-5.9-2.1-11.5-2.1-12.5c0-1.1-0.7-3.2-1.5-4.8c-0.8-1.5-1.5-3.6-1.5-4.6c0-0.9-1.1-3.8-2.5-6.4s-2.5-5.4-2.5-6.2
			c0-3.5-20.1-41.1-25.1-46.9c-2.1-2.4-7-11.2-10-17.8C546.4,411.6,545.8,411.4,538.8,413.6z"/>
		
			<linearGradient id="region-2-10_00000160880765372690229760000017783885727248502416_" gradientUnits="userSpaceOnUse" x1="-187.657" y1="-78.1734" x2="-187.5725" y2="-79.5715" gradientTransform="matrix(521.5435 0 0 -207.0509 98164.7734 -15695.9014)">
			<stop  offset="0" style="stop-color:#611700;stop-opacity:0.208"/>
			<stop  offset="1" style="stop-color:#935937;stop-opacity:0.6"/>
		</linearGradient>
		<path id="region-2-10" style="fill:url(#region-2-10_00000160880765372690229760000017783885727248502416_);" d="M49.3,501.2
			c-1,2.9-2.1,5.7-2.5,6.3c-1.4,1.8-4.2,18.6-5.5,33.2c-1.1,11.3,2.6,42.1,5.4,45.7c0.4,0.6,1.1,2.7,1.5,4.6
			c0.8,4.5,14.2,31.3,16.7,33.6c1,0.9,1.9,2.3,1.9,2.9c0,0.7,1.9,3.5,4.3,6.1c2.4,2.7,6.4,7.6,8.9,10.9c4.4,5.9,18.9,19.7,29.8,28.5
			c3,2.4,7.9,6.5,10.8,9.1c4.5,4,6.1,4.7,10.9,5.3c3.1,0.4,6.2,1.1,6.7,1.6c0.6,0.4,5.8,1.4,11.6,2s10.9,1.5,11.5,1.9
			c0.5,0.5,4.2,1.1,8,1.5c3.9,0.3,9.7,1.1,13,1.6s11.6,1.4,18.3,2c6.8,0.5,12.8,1.3,13.3,1.6c4.5,2.7,131.8,4.8,149.1,2.4
			c4-0.6,13.4-1.4,20.8-2c7.4-0.5,20.3-1.8,28.5-3c34.2-4.7,41.1-5.7,42.5-6.2c2.1-0.9,18.1-3.8,20.4-3.8c6.4,0,54.8-45.4,59.9-56.3
			c0.9-1.8,3-5.1,4.8-7.3c3.7-4.6,14.9-27,14.9-29.9c0-1.1,0.7-3.4,1.6-5c1.5-2.9,3.5-11.6,5.4-23.5c1.8-11.4,0.5-43.9-1.8-46.2
			c-0.4-0.4-2.5,0.4-4.6,1.8c-5.1,3.5-36.1,18.9-41.1,20.5c-2.2,0.6-5.3,1.8-7,2.5c-4.6,1.9-19.1,6-28,7.9c-4.4,1-8.4,2.1-9,2.5
			c-1.3,0.9-10.4,2.7-18,3.5c-3.3,0.4-6.4,1-7,1.5c-1,0.7-8.9,1.9-26.5,4c-5.2,0.6-10.6,1.4-12,1.7c-2.3,0.5-8.8,0.9-48,3.3
			c-32.3,1.9-86.5,0.7-113.7-2.5c-6.7-0.8-14.5-1.5-17.5-1.5c-5.2-0.1-11.1-0.9-34.3-4.9c-6.6-1.1-13.4-2.1-15.2-2.1
			c-1.7,0-3.4-0.4-3.7-0.9s-2.7-1.2-5.3-1.5c-6.8-0.9-14.6-2.7-15.8-3.6c-0.5-0.5-2.8-1.1-5-1.5s-4.4-1.1-5-1.5
			c-0.5-0.4-3.5-1.5-6.5-2.5c-16.1-5.1-48.6-20.5-55.3-26.1c-1.7-1.4-4-3-5.2-3.4c-2-0.8-11.7-8.3-21.2-16.4L51,496L49.3,501.2z"/>
		
			<linearGradient id="region-2-11_00000165934360528430724460000005453399833876560529_" gradientUnits="userSpaceOnUse" x1="-187.4918" y1="-82.2005" x2="-187.2061" y2="-86.3147" gradientTransform="matrix(362.9815 0 0 -47.5673 68355.5078 -3221.0127)">
			<stop  offset="0" style="stop-color:#6B2712;stop-opacity:0.618"/>
			<stop  offset="1" style="stop-color:#723019;stop-opacity:0.715"/>
		</linearGradient>
		<path id="region-2-11" style="fill:url(#region-2-11_00000165934360528430724460000005453399833876560529_);" d="M121.2,695.1
			c1.1,7.5,6.2,16.5,11.1,19.9c6.1,4.2,10.1,5.5,27.8,8.9c60.9,11.9,126,16.7,179.2,13.3c50.4-3.3,117-13.6,128.8-19.9
			c7.9-4.4,12.9-12.1,15.1-23.2l0.6-3.4l-6.1,0.7c-3.4,0.3-6.7,1-7.3,1.5c-0.6,0.6-3.6,1.2-6.6,1.6c-13.5,1.5-22.6,2.9-23.5,3.5
			c-0.5,0.4-7.3,1.3-15,2c-7.7,0.6-14.7,1.5-15.5,2c-0.8,0.4-7.3,1-14.3,1.4c-7,0.3-14.7,1.1-17,1.6c-12.2,2.7-101.2,4.1-128.2,2
			c-6-0.5-17.3-1.4-25-2c-19.5-1.5-30.5-2.6-41.5-4.4c-5.2-0.9-14.3-2-20.1-2.6c-9.1-0.9-33.1-4.8-40.8-6.7
			C120.6,690.7,120.5,690.8,121.2,695.1z"/>
	</g>
	<g id="layer-3">
		
			<linearGradient id="region-3-1_00000058580122170441039440000001217598854193551515_" gradientUnits="userSpaceOnUse" x1="-184.2529" y1="-111.8336" x2="-184.1199" y2="-114.4459" gradientTransform="matrix(49.5796 0 0 -7.1434 9785.6797 -467.6477)">
			<stop  offset="0" style="stop-color:#492F06;stop-opacity:0.653"/>
			<stop  offset="1" style="stop-color:#412700;stop-opacity:0.686"/>
		</linearGradient>
		<path id="region-3-1" style="fill:url(#region-3-1_00000058580122170441039440000001217598854193551515_);" d="M633.9,332
			c-2.5,0.5-5.1,1.6-5.9,2.4c-1.2,1.2-1.1,1.6,0.9,2.8c1.8,1,7.5,1.3,22.4,1.3c20.9,0,25.5-0.5,25.5-3c0-0.9-1.2-2.1-2.7-2.7
			C670.6,331.4,639.8,330.8,633.9,332z"/>
		
			<linearGradient id="region-3-2_00000142153647945701518480000006800517799513259652_" gradientUnits="userSpaceOnUse" x1="-187.4611" y1="-87.392" x2="-186.9902" y2="-95.299" gradientTransform="matrix(345.7009 0 0 -23.8931 65106.1094 -1719.6455)">
			<stop  offset="0" style="stop-color:#BE8C72;stop-opacity:0.724"/>
			<stop  offset="1" style="stop-color:#D79D82;stop-opacity:0.797"/>
		</linearGradient>
		<path id="region-3-2" style="fill:url(#region-3-2_00000142153647945701518480000006800517799513259652_);" d="M128.8,369.7
			c0,1,24.8,7,46.5,11.3c19.8,3.9,52,8.6,72.4,10.5c18.9,1.7,94.4,2.2,98.3,0.5c1.3-0.5,9.3-1.4,17.8-1.9
			c17.4-1.1,37.6-3.7,40.2-5.1c1-0.6,3.5-1,5.6-1c4.5,0,15.3-2,16.7-3.1c0.6-0.4,4.6-1.2,9-1.9c11.8-1.7,38.4-8,39.1-9.2
			c0.4-0.6-0.4-0.8-2.2-0.4c-1.6,0.3-8.3,1.5-14.9,2.6c-6.6,1.2-12.8,2.5-13.7,3.1c-1,0.5-3.5,0.9-5.5,0.9
			c-2.1,0.1-12.6,1.4-23.3,3.1c-10.7,1.7-24.4,3.5-30.5,3.9c-6,0.5-14.8,1.4-19.5,2c-21.4,2.6-34.3,3.1-68,2.6
			c-33.5-0.5-47.8-1.2-70-3.5c-5.2-0.6-12-1.3-15-1.6c-12.8-1.2-31.6-3.8-32.5-4.5s-9-1.9-23.5-3.5c-3-0.4-5.9-1-6.5-1.4
			c-0.5-0.4-4.4-1.3-8.5-2s-8.5-1.5-9.7-1.8C129.8,369,128.8,369.2,128.8,369.7z"/>
		
			<linearGradient id="region-3-3_00000177481398187006975860000012590463143220854917_" gradientUnits="userSpaceOnUse" x1="-185.9349" y1="-79.2363" x2="-185.9349" y2="-80.2363" gradientTransform="matrix(90.6897 0 0 -111.3522 17426.7051 -8487.2275)">
			<stop  offset="0" style="stop-color:#753314;stop-opacity:0.461"/>
			<stop  offset="1" style="stop-color:#884C2D;stop-opacity:0.612"/>
		</linearGradient>
		<path id="region-3-3" style="fill:url(#region-3-3_00000177481398187006975860000012590463143220854917_);" d="M601.8,341.7
			c-7.9,8.7-19.7,26.3-28.5,42.7c-7.7,14.2-12,18.9-22.4,24.5c-6.1,3.2-23,8.1-28.2,8.1c-1.5,0-3.1,0.5-3.4,1
			c-0.8,1.3-1.1,0.8,11.5,17.2c9.5,12.4,11.3,13.7,14.4,10.7c0.6-0.5,1.9-0.9,2.9-0.9c2.2,0,6.1-1.6,16.6-6.7
			c17.3-8.5,31.1-27.3,37.1-50.3c1.2-4.7,2.6-9.4,3-10.5s1.3-5.4,1.9-9.5c0.6-4.1,1.5-9.8,2-12.5c1.2-6.4,1.3-17.6,0.2-19.3
			C608.3,335.2,606.4,336.7,601.8,341.7z"/>
		
			<linearGradient id="region-3-4_00000169517449020213589580000000983647890079524026_" gradientUnits="userSpaceOnUse" x1="-187.0389" y1="-78.0062" x2="-185.4804" y2="-78.7831" gradientTransform="matrix(121.8089 0 0 -292.0255 22884.6523 -22331.4707)">
			<stop  offset="0" style="stop-color:#5A0F00;stop-opacity:0.183"/>
			<stop  offset="1" style="stop-color:#641D08;stop-opacity:0.238"/>
		</linearGradient>
		<path id="region-3-4" style="fill:url(#region-3-4_00000169517449020213589580000000983647890079524026_);" d="M156,405.3
			c-6,6.4-28.2,46-28.2,50.2c0,0.9-1.1,4-2.4,6.8c-1.3,2.9-2.7,6.5-3.1,8.2c-0.3,1.6-1.5,4.7-2.5,7c-2.4,5.3-4.6,14.5-5.5,22.5
			c-0.3,3.6-1.1,7.1-1.7,7.8c-1.5,1.8-2.2,36.9-1,47.2c1.5,11.9,4.3,28.2,5.2,30c0.4,0.8,1.2,4,1.9,7c1.6,6.9,5.1,18.2,6.2,19.5
			c0.4,0.6,1.7,3.5,2.9,6.5c3,7.6,11.9,25.1,16.9,33.3c2.2,3.7,4.1,7.1,4.1,7.5s1.3,2.3,2.8,4.2c1.6,1.9,3.2,4.2,3.5,5
			c0.4,0.8,3.5,4.9,7,9c6.6,7.8,9.6,9.8,18.7,12.6c3,0.9,6.4,2,7.5,2.5c1.6,0.7,44.5,3.8,44.5,3.3c0-0.1-1.6-2.6-3.5-5.5
			c-1.9-3-3.5-5.9-3.5-6.5s-0.9-2.3-2-3.7c-5.5-7-23.3-46.8-28-62.7c-1.2-4.1-2.6-8.3-3.1-9.2s-1.2-3.6-1.5-6
			c-0.4-2.4-1-4.8-1.4-5.3c-1.1-1.4-4-14.8-4-18.2c0-1.6-0.4-3.3-0.9-3.9c-0.5-0.5-1.1-4.5-1.3-8.9c-0.1-4.4-0.8-8.5-1.4-9
			c-3.1-2.7-5.5-57.1-3.4-77c2.1-20.3,8.2-45.1,15.6-63.4c1.9-4.7,3.4-8.9,3.4-9.3s-5.3-0.8-11.9-0.8c-6.5,0-13.1-0.4-14.7-0.9
			c-1.6-0.5-5.2-1.2-8-1.5C158.8,403.2,157.7,403.4,156,405.3z"/>
		
			<linearGradient id="region-3-5_00000076581364019508681360000003131260625359736226_" gradientUnits="userSpaceOnUse" x1="-186.4083" y1="-77.8529" x2="-186.4083" y2="-78.8529" gradientTransform="matrix(117.6731 0 0 -291.9355 22332.9844 -22321.6582)">
			<stop  offset="0" style="stop-color:#7E3E22;stop-opacity:0.354"/>
			<stop  offset="1" style="stop-color:#753318;stop-opacity:0.443"/>
		</linearGradient>
		<path id="region-3-5" style="fill:url(#region-3-5_00000076581364019508681360000003131260625359736226_);" d="M405.3,407.1
			c-1.6,0.5-9.6,1.2-17.7,1.6c-8.2,0.3-14.8,0.8-14.8,1.1c0,0.2,1.6,4.4,3.5,9.1c1.9,4.8,4.1,11.6,5,15.1c0.9,3.6,2,7.4,2.5,8.5
			c1.4,3.2,3.1,10.2,4,17.4c0.5,3.6,1.4,8.8,1.9,11.6c1.6,8,2.4,47.5,1.1,61c-1.9,21.7-4.4,39.9-6.5,49c-0.9,3.8-2.1,9.5-2.6,12.5
			c-0.6,3-1.4,5.9-2,6.4c-0.5,0.6-0.9,2-0.9,3.2c0,2.2-3.3,14.1-5,17.9c-0.5,1.1-2,5.7-3.5,10.2c-1.5,4.6-3.1,8.5-3.6,8.8
			c-0.5,0.4-0.9,1.4-0.9,2.3c0,2.4-11.8,28.3-17.1,37.6c-2.4,4.3-5.6,10-7.1,12.8l-2.7,5.1l15.4-0.6c17.7-0.7,34.5-3.7,41.2-7.5
			c4.5-2.5,14.4-12.9,17-17.9c0.8-1.5,2.6-4.4,4.1-6.3s3.5-5.1,4.6-7c1-1.9,3.2-5.5,4.8-7.9c3.4-5,10.3-20.1,15.4-33.6
			c1.9-5,3.8-9.9,4.3-11s1.6-5.4,2.6-9.5s2.2-8,2.6-8.5c0.4-0.6,1.3-4.4,1.8-8.5c0.6-4.1,1.5-9.8,2.1-12.5c1.7-9.1,2.4-35.5,1.1-46
			c-4.5-38.1-17.9-74.1-39.8-107.3C410.5,405.7,410.3,405.6,405.3,407.1z"/>
	</g>
</g>
<g id="图层_3">
	<g id="layer-1_00000150812932529820946940000009291760099694000780_">
		
			<linearGradient id="region-1-1_00000155113098260891316350000014822640585436112546_" gradientUnits="userSpaceOnUse" x1="-186.6644" y1="-77.55" x2="-186.1427" y2="-79.0162" gradientTransform="matrix(582.9293 0 0 -375.5083 109705.3359 -29146.1602)">
			<stop  offset="0" style="stop-color:#474B58;stop-opacity:0.99"/>
			<stop  offset="1" style="stop-color:#303442;stop-opacity:0.99"/>
		</linearGradient>
		
			<path id="region-1-1_00000048460149589624308850000003588038129836548011_" style="fill:url(#region-1-1_00000155113098260891316350000014822640585436112546_);" d="
			M992.7,15.7c-0.2,0.3-13.5,0.9-29.4,1.6c-44.1,1.6-78.8,5-103,10c-68.5,14.1-112.5,42.1-133.1,84.5c-4.9,10.3-9.7,26-8.9,29.2
			c0.3,1.2,0,4.2-0.5,6.5c-2,7.8-3,27.8-1.9,37.8c5.5,52,33.6,114.5,85.2,189.5c12.5,18.2,11.5,17.5,16,12l3.8-4.5l-5.4-8.3
			c-2.9-4.5-7-10.4-9-13c-2-2.7-3.7-5.3-3.7-5.9c0-1.2-9.6-17.5-12-20.3c-3.6-4.2-25-45.1-25-47.8c0-1.4-3.7-10-9.1-21.3
			c-1.6-3.3-2.9-6.7-2.9-7.6c0-1.5-4.2-14.6-5.9-18.3c-0.5-1.1-1.9-6.5-3.2-12c-1.2-5.5-2.5-10.5-2.9-11c-3.5-4.7-4.7-53.1-1.8-68.8
			c1-4.9,2.2-9.4,2.7-10.1c0.6-0.7,1.7-3.7,2.5-6.7c2-7,9.2-21.1,14.9-29.1c5.1-7.2,24.4-26.4,27.9-27.7c1.3-0.5,4.3-2.4,6.8-4.2
			c5.8-4.2,34.1-18.4,40-19.9c2.5-0.7,5.9-1.8,7.5-2.5c1.7-0.7,5-1.6,7.5-1.9c2.4-0.4,4.9-1.1,5.5-1.5c1.5-1.2,9.9-3.1,13.4-3.1
			c1.6,0,3.2-0.4,3.6-0.9c0.3-0.5,3.1-1.2,6.3-1.6c3.1-0.3,9.3-1.2,13.7-2c8.5-1.5,20.7-2.7,47.5-4.7c22.1-1.7,109-1.7,136.5,0
			c29,1.8,66.6,6.8,70,9.2c0.6,0.4,4.6,1.5,9,2.5c10.5,2.2,22.5,5.7,23.1,6.7c0.3,0.4,1.5,0.8,2.7,0.8s4.9,1.4,8.2,3.1
			c3.3,1.7,10.1,4.9,15,7c5,2.2,10.6,5.2,12.5,6.7s4.8,3.4,6.4,4.2c4.2,2.2,29.1,26.4,31,30.2c0.8,1.8,3.4,6.2,5.5,9.8
			c6.6,10.7,7.2,12,8.7,17.8c0.8,3,2.1,6.9,2.8,8.6c2.8,6.4,5.1,22.9,5.1,36.6c0,14.8-2,36.9-3.5,38.4c-0.6,0.6-1,2.3-1,3.9
			c0,3.2-1.9,11.7-3,13.2c-0.4,0.5-2.4,6.6-4.4,13.5c-6.3,20.6-7.5,23.8-16.3,42c-4.7,9.6-10.9,22.4-13.8,28.5
			c-5.3,10.9-19.4,35.4-22.3,38.8c-0.8,0.9-5.5,7.9-10.3,15.4l-8.8,13.7l3.7,4c2,2.3,4,4.1,4.4,4.1s5.4-6.8,11.2-15.1
			c47.8-69.3,74.8-126.1,84.3-177.4c2.5-13.7,2.5-46.3,0-57.8c-3.8-17-9.2-29.9-18.7-44c-7.9-11.7-15.6-20-26.4-28.4
			c-39.4-30.5-96.2-46.2-179.6-49.8c-14-0.6-33.1-1.5-42.5-2C1011.8,15.2,993.5,15,992.7,15.7z"/>
		
			<linearGradient id="region-1-2_00000036936030264586352330000006642312299309300638_" gradientUnits="userSpaceOnUse" x1="-186.3689" y1="-77.6743" x2="-186.299" y2="-78.8245" gradientTransform="matrix(537.9291 0 0 -351.8038 101245.7109 -27305.6094)">
			<stop  offset="0" style="stop-color:#000001;stop-opacity:0.995"/>
			<stop  offset="1" style="stop-color:#020305"/>
		</linearGradient>
		
			<path id="region-1-2_00000055708867325893163320000016009742779090901648_" style="fill:url(#region-1-2_00000036936030264586352330000006642312299309300638_);" d="
			M959.8,30.8c-0.8,0.2-9.6,0.8-19.5,1.4c-23.3,1.5-38.1,2.9-48,4.6c-4.4,0.8-10.6,1.7-13.7,2c-3.2,0.4-6,1.1-6.3,1.6
			c-0.4,0.5-2,0.9-3.6,0.9c-3.5,0-11.9,1.9-13.4,3.1c-0.6,0.4-3.1,1.1-5.5,1.5c-2.5,0.3-5.8,1.2-7.5,1.9c-1.6,0.7-5,1.8-7.5,2.5
			c-5.9,1.5-34.2,15.7-40,19.9c-2.5,1.8-5.5,3.7-6.8,4.2c-3.5,1.3-22.8,20.5-27.9,27.7c-5.7,8-12.9,22.1-14.9,29.1
			c-0.8,3-1.9,6-2.5,6.7c-0.5,0.7-1.7,5.2-2.7,10.1c-2.9,15.7-1.7,64.1,1.8,68.8c0.4,0.5,1.7,5.5,2.9,11c1.3,5.5,2.7,10.9,3.2,12
			c1.7,3.7,5.9,16.8,5.9,18.3c0,0.9,1.3,4.3,2.9,7.6c5.4,11.3,9.1,19.9,9.1,21.3c0,2.7,21.4,43.6,25,47.8c2.4,2.8,12,19.1,12,20.3
			c0,0.6,1.7,3.2,3.7,5.9c2,2.6,6.1,8.5,9.1,13.1c3.5,5.3,5.8,8,6.4,7.4c0.6-0.6-1.8-5.3-6.5-12.8c-14.3-22.9-28.7-49.6-28.7-53.3
			c0-1.1-1.8-4.9-4-8.4c-10.7-17-25.5-61.6-30.7-92.4c-2.5-14.9-2.5-49,0-61.3c3.7-18,11.2-36,20.2-48.5c6.1-8.5,21.7-23.4,30.4-29
			c15.5-10,39.6-19.8,64-26c11-2.8,35.7-7.2,44.4-7.9c2.9-0.3,9.5-1,14.7-1.5c16.6-1.9,26.4-2.2,74.1-2.8
			c44.7-0.4,50.1-0.3,87.9,2.7c59,4.6,112,22.5,138.2,46.8c22.2,20.6,35.7,50.3,37.4,82.2c0.3,5.8,0.7,10.7,0.9,11
			c0.4,0.8-1.3,23.9-2.4,33c-1.4,9.9-5.9,29.3-10.2,43.5c-10.1,32.9-34.7,84.1-55.8,116c-3.6,5.4-4.9,8.1-4.2,8.8
			c1.3,1.3,0.2,2.7,10.1-12.8c4.6-7.2,9.1-13.9,10-15c3.1-3.6,17.1-27.8,22.5-39c2.9-6.1,9.1-18.9,13.8-28.5
			c8.8-18.2,10-21.4,16.3-42c2-6.9,4-13,4.4-13.5c1.1-1.5,3-10,3-13.2c0-1.6,0.4-3.3,1-3.9c1.5-1.5,3.5-23.6,3.5-38.4
			c0-13.7-2.3-30.2-5.1-36.6c-0.7-1.7-2-5.6-2.8-8.6c-1.5-5.8-2.1-7.1-8.7-17.8c-2.1-3.6-4.7-8-5.5-9.8c-1.9-3.8-26.8-28-31-30.2
			c-1.6-0.8-4.5-2.7-6.4-4.2s-7.5-4.5-12.5-6.7c-4.9-2.1-11.7-5.3-15-7s-7-3.1-8.2-3.1s-2.4-0.4-2.7-0.8c-0.6-1-12.6-4.5-23.1-6.7
			c-4.4-1-8.4-2.1-9-2.5c-3.1-2.2-40.4-7.3-67-9.1C1063.8,31.2,963.3,30,959.8,30.8z"/>
		
			<linearGradient id="region-1-3_00000052825034968670474900000010052169040902046358_" gradientUnits="userSpaceOnUse" x1="-173.6734" y1="-79.6516" x2="-173.4735" y2="-80.7307" gradientTransform="matrix(61.7862 0 0 -90.8242 11740.4102 -7007.2119)">
			<stop  offset="0" style="stop-color:#BD8B63;stop-opacity:0.994"/>
			<stop  offset="1" style="stop-color:#B6835C;stop-opacity:0.995"/>
		</linearGradient>
		
			<path id="region-1-3_00000160873708198615159800000009934608908067672250_" style="fill:url(#region-1-3_00000052825034968670474900000010052169040902046358_);" d="
			M1008.3,234.7c-4.9,2.2-8.1,6.5-14,18.8c-7.5,15.5-9.3,24.3-7.8,37.7c1.7,14.8,8.4,27.6,16,30.3c1.8,0.7,3.3,1.6,3.3,2
			c0,1.5,18.8,0.9,25.1-0.9l6.1-1.7l4.5-9.3c4.8-9.9,6.2-16.7,6.3-28.9c0-17.7-9.8-33.6-28.1-45.4
			C1012.8,232.9,1012.6,232.8,1008.3,234.7z"/>
		
			<linearGradient id="region-1-4_00000173849782831813178040000012944327457152028589_" gradientUnits="userSpaceOnUse" x1="-185.5119" y1="-79.7382" x2="-185.5093" y2="-80.7832" gradientTransform="matrix(358.4091 0 0 -90.2731 67495.7344 -6902.5474)">
			<stop  offset="0" style="stop-color:#B5845F;stop-opacity:0.994"/>
			<stop  offset="1" style="stop-color:#B1805B;stop-opacity:0.994"/>
		</linearGradient>
		
			<path id="region-1-4_00000173883179156322571280000016840539733421013667_" style="fill:url(#region-1-4_00000173849782831813178040000012944327457152028589_);" d="
			M967.8,296.5c-66.2,2.4-122.5,13-134,25.2c-3.2,3.5-4.9,9.9-5.7,21.8c-0.7,10.8,0.5,16.8,4,21.1c1.8,2.3,3.7,3,11.2,4.3
			c5,0.8,9.7,1.9,10.7,2.4c0.9,0.5,4,1.2,7,1.5c14.2,1.6,22.4,2.8,23.3,3.5c0.9,0.7,19.7,3.3,32.5,4.5c3,0.3,9.8,1,15,1.6
			c22.2,2.3,36.5,3,70,3.5c33.7,0.5,46.6,0,68-2.6c4.7-0.6,13.5-1.5,19.5-2c6.1-0.4,19.8-2.2,30.5-3.9c10.7-1.7,21.2-3,23.3-3.1
			c2,0,4.5-0.4,5.5-1c0.9-0.5,8.2-2,16.1-3.4s15-3.1,15.8-3.8c4.7-3.9,6.9-14.9,5.3-26.5c-0.7-4.6-1.6-8.6-2.1-8.9s-0.9-1.9-0.9-3.5
			c0-3.8-3.1-6.9-10.8-10.8c-18.1-9.1-57.2-15.8-115.3-19.6l-9.6-0.7l-0.7,3.3c-0.3,1.8-2.6,7.4-5,12.4l-4.4,9.1l-6.1,1.7
			c-6.3,1.8-25.1,2.4-25.1,0.9c0-0.4-1.5-1.3-3.3-2c-5.4-1.9-10.4-9-14.1-19.7l-2.1-6L967.8,296.5z"/>
		
			<linearGradient id="region-1-5_00000145767500076146570890000005577909851013815199_" gradientUnits="userSpaceOnUse" x1="-183.4775" y1="-78.3903" x2="-182.213" y2="-78.7214" gradientTransform="matrix(174.7513 0 0 -230.8985 33272.7266 -17700.8789)">
			<stop  offset="0" style="stop-color:#B18563;stop-opacity:0.99"/>
			<stop  offset="1" style="stop-color:#935731;stop-opacity:0.991"/>
		</linearGradient>
		
			<path id="region-1-5_00000082368819963535679920000012329696057327288984_" style="fill:url(#region-1-5_00000145767500076146570890000005577909851013815199_);" d="
			M1337.8,326.3c-13.9,1.6-18.9,3.1-24.1,7.1c-9.6,7.7-23.2,26.6-35.5,49.3c-3.6,6.8-8.2,14-10.2,15.9c-8.2,7.9-20.5,13.4-36.4,16.1
			c-5.1,0.9-7.3,1.7-7.2,2.7c0.1,0.8,3.9,6.3,8.5,12.2c14.9,19.2,20.6,27.9,28.2,43.2c8,16,13,30.3,14.8,42.5
			c0.6,4.1,1.4,15.1,1.6,24.4l0.5,16.8l12.1-0.5c14.3-0.6,21.1-2.2,32.6-7.9c28-13.7,40.9-47,37.2-96.6c-0.6-9.2-1.8-21.4-2.7-27.2
			c-2.1-14.7-2.1-24.4,0.1-31c4.6-14.3,17.9-34,34-50.3c9.1-9.3,9.7-10.9,4.8-12.8C1386.7,326.6,1354.3,324.4,1337.8,326.3z"/>
		
			<linearGradient id="region-1-6_00000137825445403954098940000012850543117651747729_" gradientUnits="userSpaceOnUse" x1="-186.3819" y1="-77.642" x2="-186.315" y2="-78.7762" gradientTransform="matrix(541.6071 0 0 -369.2433 101936.6172 -28311.6016)">
			<stop  offset="0" style="stop-color:#9E6945;stop-opacity:0.997"/>
			<stop  offset="1" style="stop-color:#9F6A45;stop-opacity:0.997"/>
		</linearGradient>
		
			<path id="region-1-6_00000002364794255104217810000007994742712144672173_" style="fill:url(#region-1-6_00000137825445403954098940000012850543117651747729_);" d="
			M833.8,368.4c0,0.7-4.2,5.6-9.3,10.8c-10.9,11.3-29.6,32.9-42,48.5c-30.2,37.9-44.9,73-46.4,110.6c-1.8,43.9,17.3,85.8,55.8,122.4
			c8.5,8.1,24.8,21.7,30.7,25.6c1.6,1.1,2.7,3.4,3.8,7.9c2.9,12.6,8.9,19.9,19.4,23.6c10.5,3.7,56.6,11.3,87,14.4
			c45.5,4.7,76.2,5.6,111.5,3.3c50.4-3.3,117-13.6,128.8-19.9c7.9-4.3,13-12.1,15-23.1c0.5-2.6,0.3-3.2-1.1-3.2
			c-1-0.1-0.4-0.6,1.4-1.4c1.7-0.8,9.9-6.9,18.3-13.6c38.8-31.3,63.5-69.8,69.7-108.7c1.8-11.4,1.5-36.9-0.5-50.3
			c-2.4-16.4-14.8-46.7-25.1-61.4c-16.5-23.6-43.1-55.8-61.6-74.6c-5.2-5.3-9.4-10.1-9.4-10.8c0-0.9-0.9-1.2-2.7-0.8
			c-1.6,0.3-8.2,1.5-14.8,2.6c-6.6,1.2-12.8,2.5-13.7,3.1c-1,0.5-3.5,0.9-5.5,0.9c-2.1,0.1-12.6,1.4-23.3,3.1
			c-10.7,1.7-24.4,3.5-30.5,3.9c-6,0.5-14.8,1.4-19.5,2c-21.4,2.6-34.3,3.1-68,2.6c-33.5-0.5-47.8-1.2-70-3.5
			c-5.2-0.6-12-1.3-15-1.6c-12.8-1.2-31.6-3.8-32.5-4.5s-9-1.9-23.5-3.5c-3-0.4-5.9-1-6.5-1.4c-0.5-0.4-4.4-1.3-8.5-2
			s-8.5-1.5-9.7-1.8C834.6,367.3,833.8,367.5,833.8,368.4z"/>
	</g>
	<g id="layer-2_00000126306252313149098870000014118901383757528729_">
		
			<linearGradient id="region-2-1_00000099651471254524835710000012266125070595074979_" gradientUnits="userSpaceOnUse" x1="-185.2073" y1="-77.6782" x2="-185.2073" y2="-78.6782" gradientTransform="matrix(570.0914 0 0 -364.6856 107285.2109 -28302.5879)">
			<stop  offset="0" style="stop-color:#00000A;stop-opacity:0.682"/>
			<stop  offset="1" style="stop-color:#1E1B1E;stop-opacity:0.828"/>
		</linearGradient>
		
			<path id="region-2-1_00000116946549995520039970000001896492943522175935_" style="fill:url(#region-2-1_00000099651471254524835710000012266125070595074979_);" d="
			M1657.6,26.3c-7.4,0.4-21.8,1-32,1.4s-20.1,1.1-22,1.6s-9.8,1.6-17.5,2.5c-7.7,0.9-20.5,2.9-28.5,4.5
			c-73.8,14.7-119.5,46.9-135.9,95.7c-5.4,16.1-7.8,37.2-6,53.7c5.7,52,33.8,114.4,85.2,189.1c12.5,18.2,11.5,17.5,16,12l3.8-4.5
			l-5.4-8.3c-2.9-4.5-7-10.4-9-13c-2-2.7-3.7-5.3-3.7-5.9c0-1.2-9.6-17.5-12-20.3c-3.6-4.2-25-45.1-25-47.8c0-1.4-3.7-10-9.1-21.3
			c-1.6-3.3-2.9-6.7-2.9-7.6c0-1.5-4.2-14.6-5.9-18.3c-0.5-1.1-1.9-6.5-3.2-12c-1.2-5.5-2.5-10.5-2.9-11c-3.5-4.7-4.7-53.1-1.8-68.8
			c1-4.9,2.2-9.4,2.7-10.1c0.6-0.7,1.7-3.7,2.5-6.7c2-7,9.2-21.1,14.9-29.1c5.1-7.2,24.4-26.4,27.9-27.7c1.3-0.5,4.3-2.4,6.8-4.2
			c5.8-4.2,34.1-18.4,40-19.9c2.5-0.7,5.9-1.8,7.5-2.5c1.7-0.7,5-1.6,7.5-1.9c2.4-0.4,4.9-1.1,5.5-1.5c1.5-1.2,9.9-3.1,13.4-3.1
			c1.6,0,3.2-0.4,3.6-0.9c0.3-0.5,3.1-1.2,6.3-1.6c3.1-0.3,9.3-1.2,13.7-2c8.5-1.5,20.7-2.7,47.5-4.7c22.1-1.7,109-1.7,136.5,0
			c29,1.8,66.6,6.8,70,9.2c0.6,0.4,4.6,1.5,9,2.5c10.5,2.2,22.5,5.7,23.1,6.7c0.3,0.4,1.5,0.8,2.7,0.8s4.9,1.4,8.2,3.1
			c3.3,1.7,10.1,4.9,15,7c5,2.2,10.6,5.2,12.5,6.7s4.8,3.4,6.4,4.2c4.2,2.2,29.1,26.4,31,30.2c0.8,1.8,3.4,6.2,5.5,9.8
			c6.6,10.7,7.2,12,8.7,17.8c0.8,3,2.1,6.9,2.8,8.6c2.8,6.4,5.1,22.9,5.1,36.6c0,14.8-2,36.9-3.5,38.4c-0.6,0.6-1,2.3-1,3.9
			c0,3.2-1.9,11.7-3,13.2c-0.4,0.5-2.4,6.6-4.4,13.5c-7.2,23.8-6.3,21.7-30.2,70.5c-6.5,13.4-16.3,29.8-29.4,49.6
			c-12.2,18.4-12.2,18.5-10.5,19.9c1.2,1,1.6,0.9,2.2-0.6c0.5-1.1,5.3-8.7,10.9-16.9c38.7-57.6,62.4-106,72.4-148
			c1.2-5,2.6-9.8,3.1-10.8c2.8-5.2,3.5-57.4,0.8-60.2c-0.5-0.5-0.9-2.4-0.9-4.3c0-4-4.9-19-8.6-26.4c-8.4-16.8-27.9-38.3-44.5-49.1
			c-14-9.1-31.7-17.4-49.9-23.3c-17.9-5.9-48.7-12.4-58.5-12.4c-2.8,0-5.5-0.4-6-0.9c-0.6-0.5-5-1.2-10-1.5
			c-4.9-0.4-14.6-1-21.5-1.5s-19-1.4-27-1.9C1740.6,25.3,1678.7,25.2,1657.6,26.3z"/>
		
			<linearGradient id="region-2-2_00000153678927590067785490000007093757636331642045_" gradientUnits="userSpaceOnUse" x1="-159.3304" y1="-79.9853" x2="-158.6358" y2="-81.083" gradientTransform="matrix(54.6934 0 0 -81.8136 10407.4971 -6307.5938)">
			<stop  offset="0" style="stop-color:#975D3B;stop-opacity:0.637"/>
			<stop  offset="1" style="stop-color:#9D6542;stop-opacity:0.708"/>
		</linearGradient>
		
			<path id="region-2-2_00000045597252589256298430000000005581814114213294_" style="fill:url(#region-2-2_00000153678927590067785490000007093757636331642045_);stroke:#000000;stroke-width:2;stroke-miterlimit:10;" d="
			M1701.4,244c-5.3,8.9-8.6,18-10.4,28.4c-1.9,11.2-1.4,18,2.1,28.6c5.7,17,10.6,21,24.4,20c10.9-0.7,17-3.3,19.8-8.2
			c2.1-3.7,7.3-18.3,7.3-20.6c0-0.5-2.4-0.9-5.2-0.9c-6.8-0.1-11.6-1.8-16.1-5.9c-6.7-6.1-13.5-22.2-15.8-37.5
			C1705.9,237.4,1705.4,237.1,1701.4,244z"/>
		
			<linearGradient id="region-2-3_00000023982007289606235230000000939696445872153230_" gradientUnits="userSpaceOnUse" x1="-78.8236" y1="-85.557" x2="-77.732" y2="-86.5236" gradientTransform="matrix(14.5134 0 0 -29.004 2609.2937 -2193.3162)">
			<stop  offset="0" style="stop-color:#415078;stop-opacity:0.135"/>
			<stop  offset="1" style="stop-color:#425078;stop-opacity:0.114"/>
		</linearGradient>
		
			<path id="region-2-3_00000070089910668266290210000017115777102912120215_" style="fill:url(#region-2-3_00000023982007289606235230000000939696445872153230_);stroke:#000000;stroke-width:2;stroke-miterlimit:10;" d="
			M1465.6,287.6c0,1.1,14,28.7,14.5,28.7s-13.2-27.9-14.1-28.9C1465.8,287.2,1465.6,287.3,1465.6,287.6z"/>
		
			<linearGradient id="region-2-4_00000086672312944880880020000001276581453187399579_" gradientUnits="userSpaceOnUse" x1="-183.101" y1="-82.6726" x2="-183.101" y2="-83.6726" gradientTransform="matrix(324.985 0 0 -43.5974 61212.1875 -3296.937)">
			<stop  offset="0" style="stop-color:#5D2109;stop-opacity:0.302"/>
			<stop  offset="1" style="stop-color:#531400;stop-opacity:0.362"/>
		</linearGradient>
		
			<path id="region-2-4_00000178905791918679561040000013296360806495169694_" style="fill:url(#region-2-4_00000086672312944880880020000001276581453187399579_);stroke:#000000;stroke-width:2;stroke-miterlimit:10;" d="
			M1595.1,309.2c-24.8,3.7-40.8,8-47.3,12.8c-4.5,3.4-4.2,7.7,0.7,11c7.1,4.8,32.3,10.9,49.1,11.9c4.7,0.3,9.7,1,11.1,1.5
			c1.4,0.6,9.8,1.4,18.5,1.9s23.1,1.4,31.9,2c25.4,1.7,125.6-0.1,129.1-2.3c0.6-0.3,8-1.1,16.5-1.7s15.8-1.5,16.3-2
			c0.6-0.6,3-1,5.5-1c5.6,0,23.5-4,31.4-7c6.4-2.4,11.7-6.4,11.7-8.7c0-0.8-0.6-1.3-1.3-1c-0.7,0.3-8.2,1.7-16.7,3.1
			c-8.5,1.5-17.1,3.1-19,3.6c-4.3,1.1-18.4,2.7-34.5,4c-27.1,2.2-90.1,0.5-109.5-3c-3-0.5-10.1-1.4-15.8-2
			c-13.2-1.4-31-5.9-38.8-9.8c-6.9-3.5-12.4-9.1-12.4-12.7c0-2.4-0.2-2.5-7.2-2.4C1610.4,307.5,1601.7,308.3,1595.1,309.2z"/>
		
			<linearGradient id="region-2-5_00000129919222839750248410000007837081128486322093_" gradientUnits="userSpaceOnUse" x1="-170.3233" y1="-92.5825" x2="-170.3233" y2="-93.5825" gradientTransform="matrix(90.0686 0 0 -15.8702 17027.7637 -1155.4597)">
			<stop  offset="0" style="stop-color:#5C1A00;stop-opacity:0.17"/>
			<stop  offset="1" style="stop-color:#5C1800;stop-opacity:0.194"/>
		</linearGradient>
		
			<path id="region-2-5_00000089546504251703082180000004573547008112923302_" style="fill:url(#region-2-5_00000129919222839750248410000007837081128486322093_);stroke:#000000;stroke-width:2;stroke-miterlimit:10;" d="
			M1661.1,314.4c-9.2,1.2-16.9,3.5-18.5,5.4c-1.9,2.3,0.1,3.9,9,7.2c7.5,2.8,7.5,2.8,33,2.7c28.6-0.1,37.8-1,43.8-4.4
			c4.8-2.7,4.8-3.8,0.1-2.1c-3.8,1.3-22.9,1.5-22.9,0.2c0-0.5-1.2-1.2-2.7-1.6c-1.4-0.3-4-2.1-5.7-4l-3.1-3.3l-13-0.5
			C1674,313.7,1665,313.9,1661.1,314.4z"/>
		
			<linearGradient id="region-2-6_00000016780353275975270250000007297225637095754155_" gradientUnits="userSpaceOnUse" x1="-169.5484" y1="-91.9583" x2="-169.5443" y2="-93.0601" gradientTransform="matrix(86.2776 0 0 -16.5305 16684.4121 -1194.5186)">
			<stop  offset="0" style="stop-color:#FFE5D6;stop-opacity:0.549"/>
			<stop  offset="1" style="stop-color:#FFE3D4;stop-opacity:0.523"/>
		</linearGradient>
		
			<path id="region-2-6_00000176020503411933882170000004498001304508106665_" style="fill:url(#region-2-6_00000016780353275975270250000007297225637095754155_);stroke:#000000;stroke-width:2;stroke-miterlimit:10;" d="
			M2037.6,326.3c-11.9,1.3-19.1,3.2-21.8,5.5l-2.6,2.2l2.6,1.7c1.4,0.9,6.1,2.3,10.4,3.2c4.3,0.8,10.2,2,13.1,2.6
			c6.7,1.4,40.3,0.3,49.7-1.6c10.3-2.1,13.8-7,6.9-9.7C2086.5,326.6,2054.1,324.4,2037.6,326.3z"/>
		
			<linearGradient id="region-2-7_00000174594052249386505650000011261506752872695461_" gradientUnits="userSpaceOnUse" x1="-183.5663" y1="-81.3552" x2="-183.5065" y2="-83.5044" gradientTransform="matrix(358.3221 0 0 -56.6144 67479.4219 -4277.1792)">
			<stop  offset="0" style="stop-color:#76442D;stop-opacity:0.66"/>
			<stop  offset="1" style="stop-color:#7E4D34;stop-opacity:0.749"/>
		</linearGradient>
		
			<path id="region-2-7_00000138531153808278177360000014976858991868456324_" style="fill:url(#region-2-7_00000174594052249386505650000011261506752872695461_);stroke:#000000;stroke-width:2;stroke-miterlimit:10;" d="
			M1529.2,331.5c-1.5,5-1.9,21.7-0.7,26.1c2.2,7.8,4.4,9.5,14.6,11.3c5,0.8,9.7,1.9,10.7,2.4c0.9,0.5,4,1.2,7,1.5
			c14.2,1.6,22.4,2.8,23.3,3.5s19.7,3.3,32.5,4.5c3,0.3,9.8,1,15,1.6c22.2,2.3,36.5,3,70,3.5c33.7,0.5,46.6,0,68-2.6
			c4.7-0.6,13.5-1.5,19.5-2c6.1-0.4,19.8-2.2,30.5-3.9c10.7-1.7,21.2-3,23.3-3.1c2,0,4.5-0.4,5.5-1c0.9-0.5,8.2-2,16.1-3.4
			s15-3.1,15.8-3.8c4.7-3.9,6.9-14.9,5.3-26.5c-1.2-8.4-2.5-10.9-4.1-8c-2.4,4.2-18.8,11-35.4,14.7c-5.5,1.2-10.9,2.6-12,3
			c-2.8,1.3-13.2,3-17.9,3c-2.2,0-6.5,0.5-9.5,1c-15.8,2.8-44.1,4.4-85.6,4.7c-53.3,0.4-87-0.9-115-4.6c-4.4-0.6-12-1.6-17-2.2
			c-4.9-0.6-9.4-1.5-9.9-2c-0.6-0.5-2.5-0.9-4.4-0.9c-3.6,0-18.2-3.5-21-5c-0.9-0.5-5.5-2.7-10.3-4.8c-4.7-2.1-9.4-5.1-10.6-6.5
			C1530.4,328.7,1530,328.7,1529.2,331.5z"/>
		
			<linearGradient id="region-2-8_00000101089850733171993560000006818460547862746773_" gradientUnits="userSpaceOnUse" x1="-183.5871" y1="-83.4678" x2="-183.5719" y2="-85.2489" gradientTransform="matrix(360.5866 0 0 -38.2131 67905.2031 -2822.2478)">
			<stop  offset="0" style="stop-color:#7C4D31;stop-opacity:0.73"/>
			<stop  offset="1" style="stop-color:#8A5738;stop-opacity:0.777"/>
		</linearGradient>
		
			<path id="region-2-8_00000145028065431777855130000010036227323182031777_" style="fill:url(#region-2-8_00000101089850733171993560000006818460547862746773_);stroke:#000000;stroke-width:2;stroke-miterlimit:10;" d="
			M1533.6,368.5c0,0.8-1.6,2.9-3.5,4.8c-4,3.8-4.3,4.8-1.7,5.6c0.9,0.4,4.9,1.9,8.9,3.5c3.9,1.6,8,2.9,9,2.9s3.1,0.7,4.6,1.5
			c3.2,1.6,11.2,3.8,20.7,5.6c3.6,0.7,7,1.5,7.5,2c1.3,0.9,16.8,3.8,26.5,4.9c4.1,0.5,12,1.5,17.5,2.4c25.1,3.8,82.7,5.2,113,2.8
			c37.9-2.9,67.6-6.5,79-9.3c8.7-2.2,16.3-3.7,21.7-4.4c3.2-0.3,6-1.1,6.3-1.6c0.4-0.5,2.1-0.9,3.9-0.9c2.8,0,39.3-9.4,40.3-10.3
			c0.1-0.2-1.5-2.1-3.7-4.2c-2.2-2.2-4-4.5-4-5.3c0-1-0.8-1.2-2.7-0.8c-1.6,0.3-8.2,1.5-14.8,2.6c-6.6,1.2-12.8,2.5-13.7,3.1
			c-1,0.5-3.5,0.9-5.5,0.9c-2.1,0.1-12.6,1.4-23.3,3.1c-10.7,1.7-24.4,3.5-30.5,3.9c-6,0.5-14.8,1.4-19.5,2
			c-21.4,2.6-34.3,3.1-68,2.6c-33.5-0.5-47.8-1.2-70-3.5c-5.2-0.6-12-1.3-15-1.6c-12.8-1.2-31.6-3.8-32.5-4.5s-9-1.9-23.5-3.5
			c-3-0.4-5.9-1-6.5-1.4c-0.5-0.4-4.4-1.3-8.5-2s-8.5-1.5-9.7-1.8C1534.3,367.3,1533.6,367.5,1533.6,368.5z"/>
		
			<linearGradient id="region-2-9_00000103242328615432581920000015485010182878647970_" gradientUnits="userSpaceOnUse" x1="-167.6574" y1="-78.77" x2="-166.4315" y2="-79.6717" gradientTransform="matrix(76.1928 0 0 -145.7312 14694.4316 -11058.0068)">
			<stop  offset="0" style="stop-color:#743011;stop-opacity:0.593"/>
			<stop  offset="1" style="stop-color:#9D694A;stop-opacity:0.815"/>
		</linearGradient>
		
			<path id="region-2-9_00000156574726235715578840000010152981393698043069_" style="fill:url(#region-2-9_00000103242328615432581920000015485010182878647970_);stroke:#000000;stroke-width:2;stroke-miterlimit:10;" d="
			M1943.6,411.9c-2.5,0.8-7.9,2.1-12,2.8c-5.3,0.9-7.5,1.7-7.4,2.7c0.1,0.8,3.9,6.3,8.5,12.2c14.9,19.2,20.6,27.9,28.2,43.2
			c8,16,13,30.3,14.8,42.5c0.6,4.1,1.4,15,1.6,24.2l0.5,16.8h10.2h10.3l0.7-6.8c1.9-19.4,1.9-24.6-0.3-35.3
			c-1.1-5.9-2.1-11.5-2.1-12.5c0-1.1-0.7-3.2-1.5-4.8c-0.8-1.5-1.5-3.6-1.5-4.6c0-0.9-1.1-3.8-2.5-6.4s-2.5-5.4-2.5-6.2
			c0-3.5-20.1-41.1-25.1-46.9c-2.1-2.4-7-11.2-10-17.8C1951.2,409.9,1950.6,409.7,1943.6,411.9z"/>
		
			<linearGradient id="region-2-10_00000031184537713152601110000009374011587648228510_" gradientUnits="userSpaceOnUse" x1="-184.9634" y1="-78.1662" x2="-184.8789" y2="-79.5643" gradientTransform="matrix(521.5435 0 0 -207.0509 98164.7734 -15695.9014)">
			<stop  offset="0" style="stop-color:#611700;stop-opacity:0.208"/>
			<stop  offset="1" style="stop-color:#935937;stop-opacity:0.6"/>
		</linearGradient>
		
			<path id="region-2-10_00000137109101489242377720000016463362794717585575_" style="fill:url(#region-2-10_00000031184537713152601110000009374011587648228510_);stroke:#000000;stroke-width:2;stroke-miterlimit:10;" d="
			M1454.1,499.5c-1,2.9-2.1,5.7-2.5,6.3c-1.4,1.8-4.2,18.6-5.5,33.2c-1.1,11.3,2.6,42.1,5.4,45.7c0.4,0.6,1.1,2.7,1.5,4.6
			c0.8,4.5,14.2,31.3,16.7,33.6c1,0.9,1.9,2.3,1.9,2.9c0,0.7,1.9,3.5,4.3,6.1c2.4,2.7,6.4,7.6,8.9,10.9c4.4,5.9,18.9,19.7,29.8,28.5
			c3,2.4,7.9,6.5,10.8,9.1c4.5,4,6.1,4.7,10.9,5.3c3.1,0.4,6.2,1.1,6.7,1.6c0.6,0.4,5.8,1.4,11.6,2c5.8,0.6,10.9,1.5,11.5,1.9
			c0.5,0.5,4.2,1.1,8,1.5c3.9,0.3,9.7,1.1,13,1.6s11.6,1.4,18.3,2c6.8,0.5,12.8,1.3,13.3,1.6c4.5,2.7,131.8,4.8,149.1,2.4
			c4-0.6,13.4-1.4,20.8-2c7.4-0.5,20.3-1.8,28.5-3c34.2-4.7,41.1-5.7,42.5-6.2c2.1-0.9,18.1-3.8,20.4-3.8c6.4,0,54.8-45.4,59.9-56.3
			c0.9-1.8,3-5.1,4.8-7.3c3.7-4.6,14.9-27,14.9-29.9c0-1.1,0.7-3.4,1.6-5c1.5-2.9,3.5-11.6,5.4-23.5c1.8-11.4,0.5-43.9-1.8-46.2
			c-0.4-0.4-2.5,0.4-4.6,1.8c-5.1,3.5-36.1,18.9-41.1,20.5c-2.2,0.6-5.3,1.8-7,2.5c-4.6,1.9-19.1,6-28,7.9c-4.4,1-8.4,2.1-9,2.5
			c-1.3,0.9-10.4,2.7-18,3.5c-3.3,0.4-6.4,1-7,1.5c-1,0.7-8.9,1.9-26.5,4c-5.2,0.6-10.6,1.4-12,1.7c-2.3,0.5-8.8,0.9-48,3.3
			c-32.3,1.9-86.5,0.7-113.7-2.5c-6.7-0.8-14.5-1.5-17.5-1.5c-5.2-0.1-11.1-0.9-34.3-4.9c-6.6-1.1-13.4-2.1-15.2-2.1
			c-1.7,0-3.4-0.4-3.7-0.9c-0.3-0.5-2.7-1.2-5.3-1.5c-6.8-0.9-14.6-2.7-15.8-3.6c-0.5-0.5-2.8-1.1-5-1.5s-4.4-1.1-5-1.5
			c-0.5-0.4-3.5-1.5-6.5-2.5c-16.1-5.1-48.6-20.5-55.3-26.1c-1.7-1.4-4-3-5.2-3.4c-2-0.8-11.7-8.3-21.2-16.4l-4.1-3.6L1454.1,499.5z
			"/>
		
			<linearGradient id="region-2-11_00000131336249072925083110000016073487162702605748_" gradientUnits="userSpaceOnUse" x1="-183.6216" y1="-82.1648" x2="-183.3359" y2="-86.2789" gradientTransform="matrix(362.9815 0 0 -47.5673 68355.5078 -3221.0127)">
			<stop  offset="0" style="stop-color:#6B2712;stop-opacity:0.618"/>
			<stop  offset="1" style="stop-color:#723019;stop-opacity:0.715"/>
		</linearGradient>
		
			<path id="region-2-11_00000118392878707369427170000009086542821437924228_" style="fill:url(#region-2-11_00000131336249072925083110000016073487162702605748_);stroke:#000000;stroke-width:2;stroke-miterlimit:10;" d="
			M1526,693.4c1.1,7.5,6.2,16.5,11.1,19.9c6.1,4.2,10.1,5.5,27.8,8.9c60.9,11.9,126,16.7,179.2,13.3c50.4-3.3,117-13.6,128.8-19.9
			c7.9-4.4,12.9-12.1,15.1-23.2l0.6-3.4l-6.1,0.7c-3.4,0.3-6.7,1-7.3,1.5c-0.6,0.6-3.6,1.2-6.6,1.6c-13.5,1.5-22.6,2.9-23.5,3.5
			c-0.5,0.4-7.3,1.3-15,2c-7.7,0.6-14.7,1.5-15.5,2c-0.8,0.4-7.3,1-14.3,1.4c-7,0.3-14.7,1.1-17,1.6c-12.2,2.7-101.2,4.1-128.2,2
			c-6-0.5-17.3-1.4-25-2c-19.5-1.5-30.5-2.6-41.5-4.4c-5.2-0.9-14.3-2-20.1-2.6c-9.1-0.9-33.1-4.8-40.8-6.7
			C1525.4,689,1525.3,689.1,1526,693.4z"/>
	</g>
	<g id="layer-3_00000074427279833282683670000007759757795186515865_">
		
			<linearGradient id="region-3-1_00000067231647272350937020000010218202872444475819_" gradientUnits="userSpaceOnUse" x1="-142.5845" y1="-111.5953" x2="-142.4515" y2="-114.2076" gradientTransform="matrix(49.5796 0 0 -7.1434 9785.6797 -467.6477)">
			<stop  offset="0" style="stop-color:#492F06;stop-opacity:0.653"/>
			<stop  offset="1" style="stop-color:#412700;stop-opacity:0.686"/>
		</linearGradient>
		
			<path id="region-3-1_00000075131817326033955970000002409704045978942109_" style="fill:url(#region-3-1_00000067231647272350937020000010218202872444475819_);stroke:#000000;stroke-width:2;stroke-miterlimit:10;" d="
			M2699.8,330.3c-2.5,0.5-5.1,1.6-5.9,2.4c-1.2,1.2-1.1,1.6,0.9,2.8c1.8,1,7.5,1.3,22.4,1.3c20.9,0,25.5-0.5,25.5-3
			c0-0.9-1.2-2.1-2.7-2.7C2736.5,329.7,2705.7,329.1,2699.8,330.3z"/>
		
			<linearGradient id="region-3-2_00000114766405472339780020000008682246140943740297_" gradientUnits="userSpaceOnUse" x1="-181.4851" y1="-87.3207" x2="-181.0142" y2="-95.2278" gradientTransform="matrix(345.7009 0 0 -23.8931 65106.1094 -1719.6455)">
			<stop  offset="0" style="stop-color:#BE8C72;stop-opacity:0.724"/>
			<stop  offset="1" style="stop-color:#D79D82;stop-opacity:0.797"/>
		</linearGradient>
		
			<path id="region-3-2_00000033330083376964395460000009412524624678680481_" style="fill:url(#region-3-2_00000114766405472339780020000008682246140943740297_);stroke:#000000;stroke-width:2;stroke-miterlimit:10;" d="
			M2194.7,368c0,1,24.8,7,46.5,11.3c19.8,3.9,52,8.6,72.4,10.5c18.9,1.7,94.4,2.2,98.3,0.5c1.3-0.5,9.3-1.4,17.8-1.9
			c17.4-1.1,37.6-3.7,40.2-5.1c1-0.6,3.5-1,5.6-1c4.5,0,15.3-2,16.7-3.1c0.6-0.4,4.6-1.2,9-1.9c11.8-1.7,38.4-8,39.1-9.2
			c0.4-0.6-0.4-0.8-2.2-0.4c-1.6,0.3-8.3,1.5-14.9,2.6c-6.6,1.2-12.8,2.5-13.7,3.1c-1,0.5-3.5,0.9-5.5,0.9
			c-2.1,0.1-12.6,1.4-23.3,3.1s-24.4,3.5-30.5,3.9c-6,0.5-14.8,1.4-19.5,2c-21.4,2.6-34.3,3.1-68,2.6c-33.5-0.5-47.8-1.2-70-3.5
			c-5.2-0.6-12-1.3-15-1.6c-12.8-1.2-31.6-3.8-32.5-4.5s-9-1.9-23.5-3.5c-3-0.4-5.9-1-6.5-1.4c-0.5-0.4-4.4-1.3-8.5-2
			s-8.5-1.5-9.7-1.8C2195.7,367.3,2194.7,367.5,2194.7,368z"/>
		
			<linearGradient id="region-3-3_00000001641458453011566590000014217322231299796899_" gradientUnits="userSpaceOnUse" x1="-163.1551" y1="-79.221" x2="-163.1551" y2="-80.221" gradientTransform="matrix(90.6897 0 0 -111.3522 17426.7051 -8487.2275)">
			<stop  offset="0" style="stop-color:#753314;stop-opacity:0.461"/>
			<stop  offset="1" style="stop-color:#884C2D;stop-opacity:0.612"/>
		</linearGradient>
		
			<path id="region-3-3_00000181078920007043382290000014135173942891110805_" style="fill:url(#region-3-3_00000001641458453011566590000014217322231299796899_);stroke:#000000;stroke-width:2;stroke-miterlimit:10;" d="
			M2667.7,340c-7.9,8.7-19.7,26.3-28.5,42.7c-7.7,14.2-12,18.9-22.4,24.5c-6.1,3.2-23,8.1-28.2,8.1c-1.5,0-3.1,0.5-3.4,1
			c-0.8,1.3-1.1,0.8,11.5,17.2c9.5,12.4,11.3,13.7,14.4,10.7c0.6-0.5,1.9-0.9,2.9-0.9c2.2,0,6.1-1.6,16.6-6.7
			c17.3-8.5,31.1-27.3,37.1-50.3c1.2-4.7,2.6-9.4,3-10.5s1.3-5.4,1.9-9.5c0.6-4.1,1.5-9.8,2-12.5c1.2-6.4,1.3-17.6,0.2-19.3
			C2674.2,333.5,2672.3,335,2667.7,340z"/>
		
			<linearGradient id="region-3-4_00000038377887130195408060000004682422761550217903_" gradientUnits="userSpaceOnUse" x1="-170.0789" y1="-78.0003" x2="-168.5205" y2="-78.7771" gradientTransform="matrix(121.8089 0 0 -292.0255 22884.6523 -22331.4707)">
			<stop  offset="0" style="stop-color:#5A0F00;stop-opacity:0.183"/>
			<stop  offset="1" style="stop-color:#641D08;stop-opacity:0.238"/>
		</linearGradient>
		
			<path id="region-3-4_00000027597912349642626990000001249849710786268591_" style="fill:url(#region-3-4_00000038377887130195408060000004682422761550217903_);stroke:#000000;stroke-width:2;stroke-miterlimit:10;" d="
			M2221.9,403.6c-6,6.4-28.2,46-28.2,50.2c0,0.9-1.1,4-2.4,6.8c-1.3,2.9-2.7,6.5-3.1,8.2c-0.3,1.6-1.5,4.7-2.5,7
			c-2.4,5.3-4.6,14.5-5.5,22.5c-0.3,3.6-1.1,7.1-1.7,7.8c-1.5,1.8-2.2,36.9-1,47.2c1.5,11.9,4.3,28.2,5.2,30c0.4,0.8,1.2,4,1.9,7
			c1.6,6.9,5.1,18.2,6.2,19.5c0.4,0.6,1.7,3.5,2.9,6.5c3,7.6,11.9,25.1,16.9,33.3c2.2,3.7,4.1,7.1,4.1,7.5s1.3,2.3,2.8,4.2
			c1.6,1.9,3.2,4.2,3.5,5c0.4,0.8,3.5,4.9,7,9c6.6,7.8,9.6,9.8,18.7,12.6c3,0.9,6.4,2,7.5,2.5c1.6,0.7,44.5,3.8,44.5,3.3
			c0-0.1-1.6-2.6-3.5-5.5c-1.9-3-3.5-5.9-3.5-6.5s-0.9-2.3-2-3.7c-5.5-7-23.3-46.8-28-62.7c-1.2-4.1-2.6-8.3-3.1-9.2s-1.2-3.6-1.5-6
			c-0.4-2.4-1-4.8-1.4-5.3c-1.1-1.4-4-14.8-4-18.2c0-1.6-0.4-3.3-0.9-3.9c-0.5-0.5-1.1-4.5-1.3-8.9c-0.1-4.4-0.8-8.5-1.4-9
			c-3.1-2.7-5.5-57.1-3.4-77c2.1-20.3,8.2-45.1,15.6-63.4c1.9-4.7,3.4-8.9,3.4-9.3s-5.3-0.8-11.9-0.8c-6.5,0-13.1-0.4-14.7-0.9
			c-1.6-0.5-5.2-1.2-8-1.5C2224.7,401.5,2223.6,401.7,2221.9,403.6z"/>
		
			<linearGradient id="region-3-5_00000070797256444035779680000005619028267310509711_" gradientUnits="userSpaceOnUse" x1="-168.8521" y1="-77.8471" x2="-168.8521" y2="-78.8471" gradientTransform="matrix(117.6731 0 0 -291.9355 22332.9844 -22321.6582)">
			<stop  offset="0" style="stop-color:#7E3E22;stop-opacity:0.354"/>
			<stop  offset="1" style="stop-color:#753318;stop-opacity:0.443"/>
		</linearGradient>
		
			<path id="region-3-5_00000127759490091272425390000015883512954204978060_" style="fill:url(#region-3-5_00000070797256444035779680000005619028267310509711_);stroke:#000000;stroke-width:2;stroke-miterlimit:10;" d="
			M2471.2,405.4c-1.6,0.5-9.6,1.2-17.7,1.6c-8.2,0.3-14.8,0.8-14.8,1.1c0,0.2,1.6,4.4,3.5,9.1c1.9,4.8,4.1,11.6,5,15.1
			c0.9,3.6,2,7.4,2.5,8.5c1.4,3.2,3.1,10.2,4,17.4c0.5,3.6,1.4,8.8,1.9,11.6c1.6,8,2.4,47.5,1.1,61c-1.9,21.7-4.4,39.9-6.5,49
			c-0.9,3.8-2.1,9.5-2.6,12.5c-0.6,3-1.4,5.9-2,6.4c-0.5,0.6-0.9,2-0.9,3.2c0,2.2-3.3,14.1-5,17.9c-0.5,1.1-2,5.7-3.5,10.2
			c-1.5,4.6-3.1,8.5-3.6,8.8c-0.5,0.4-0.9,1.4-0.9,2.3c0,2.4-11.8,28.3-17.1,37.6c-2.4,4.3-5.6,10-7.1,12.8l-2.7,5.1l15.4-0.6
			c17.7-0.7,34.5-3.7,41.2-7.5c4.5-2.5,14.4-12.9,17-17.9c0.8-1.5,2.6-4.4,4.1-6.3c1.5-1.9,3.5-5.1,4.6-7c1-1.9,3.2-5.5,4.8-7.9
			c3.4-5,10.3-20.1,15.4-33.6c1.9-5,3.8-9.9,4.3-11s1.6-5.4,2.6-9.5s2.2-8,2.6-8.5c0.4-0.6,1.3-4.4,1.8-8.5
			c0.6-4.1,1.5-9.8,2.1-12.5c1.7-9.1,2.4-35.5,1.1-46c-4.5-38.1-17.9-74.1-39.8-107.3C2476.4,404,2476.2,403.9,2471.2,405.4z"/>
	</g>
</g>
</svg>
