<?xml version="1.0" encoding="utf-8"?>
<!-- Generator: Adobe Illustrator 26.0.0, SVG Export Plug-In . SVG Version: 6.00 Build 0)  -->
<svg version="1.1" id="e3c911e6-0ea3-4dca-a445-efe8f8e469a5"
	 xmlns="http://www.w3.org/2000/svg" xmlns:xlink="http://www.w3.org/1999/xlink" x="0px" y="0px" viewBox="0 0 1742.4 672.2"
	 style="enable-background:new 0 0 1742.4 672.2;" xml:space="preserve">
<style type="text/css">
	.st0{fill:none;}
	.st1{fill:#D3D3D3;}
	.st2{clip-path:url(#SVGID_00000145737533272512105010000014732959833591852928_);}
	.st3{fill:url(#SVGID_00000148636934810292974440000000530019517307377049_);}
	.st4{clip-path:url(#SVGID_00000019650600921953522820000015628970292661716610_);}
	.st5{fill:url(#SVGID_00000065753845112879093610000007360534481631484582_);}
	.st6{clip-path:url(#SVGID_00000026130027495011498500000002850014225871147666_);}
	.st7{fill:url(#SVGID_00000024719429729947285290000003955541763585236665_);}
	.st8{clip-path:url(#SVGID_00000071517966709413129330000000879593055086389667_);}
	.st9{fill:url(#SVGID_00000025442913055751725610000010103843880392327813_);}
	.st10{clip-path:url(#SVGID_00000123431752834275949290000014609314154139735430_);}
	.st11{fill:url(#SVGID_00000041260402343815874860000001444247198958818983_);}
	.st12{clip-path:url(#SVGID_00000158737087328084394220000002055730438363478191_);}
	.st13{fill:url(#SVGID_00000085952104028635438540000004840223307367001514_);}
	.st14{clip-path:url(#SVGID_00000164471553219395049180000011573183219211710088_);}
	.st15{fill:url(#SVGID_00000010306762645587946250000009237184679964339097_);}
	.st16{clip-path:url(#SVGID_00000157986749158908253250000011691652299665744772_);}
	.st17{fill:url(#SVGID_00000070813177357595657630000007523067540177013122_);}
	.st18{clip-path:url(#SVGID_00000163044843406698409870000013225357310476052356_);}
	.st19{fill:url(#SVGID_00000057844079459565400570000010458881965316552843_);}
	.st20{clip-path:url(#SVGID_00000019656428628461377560000016502843654040406184_);}
	.st21{fill:url(#SVGID_00000168812914249063487760000001280894011844920451_);}
	.st22{clip-path:url(#SVGID_00000172418180595913399900000017335593912361003947_);}
	.st23{fill:url(#SVGID_00000033361910534047983660000001827654146291532447_);}
	.st24{fill:none;stroke:#000000;stroke-width:4.4811;stroke-miterlimit:10;}
</style>
<pattern  y="812.6" width="40" height="40" patternUnits="userSpaceOnUse" id="e35040a7-e4e1-4b61-94e9-2bfeb96" viewBox="0 -40 40 40" style="overflow:visible;">
	<g>
		<rect y="-40" class="st0" width="40" height="40"/>
		<rect y="-40" class="st0" width="40" height="40"/>
		<rect y="-20" class="st1" width="20" height="20"/>
		<rect x="20" y="-40" class="st1" width="20" height="20"/>
	</g>
</pattern>
<g>
	<g>
		<defs>
			<rect id="SVGID_1_" width="1792.4" height="672.2"/>
		</defs>
		<clipPath id="SVGID_00000018210406558260015200000005054427093474874021_">
			<use xlink:href="#SVGID_1_"  style="overflow:visible;"/>
		</clipPath>
		<g style="clip-path:url(#SVGID_00000018210406558260015200000005054427093474874021_);">
			
				<pattern  id="SVGID_00000043440866716207054270000015432241389922124686_" xlink:href="#e35040a7-e4e1-4b61-94e9-2bfeb96" patternTransform="matrix(1 0 0 -1 16986.3203 -1203.571)">
			</pattern>
			<rect style="fill:url(#SVGID_00000043440866716207054270000015432241389922124686_);" width="1736.4" height="672.2"/>
			<g>
				<defs>
					<rect id="SVGID_00000014607289499446380110000003216522244949221269_" width="429.1" height="672.2"/>
				</defs>
				<clipPath id="SVGID_00000132086303097493363940000007812242813108532884_">
					<use xlink:href="#SVGID_00000014607289499446380110000003216522244949221269_"  style="overflow:visible;"/>
				</clipPath>
				<g style="clip-path:url(#SVGID_00000132086303097493363940000007812242813108532884_);">
					
						<linearGradient id="SVGID_00000183226356774519332530000000616690520963901845_" gradientUnits="userSpaceOnUse" x1="120.9881" y1="306.5539" x2="122.1084" y2="306.5539" gradientTransform="matrix(3.673941e-14 600 383 -2.345199e-14 -117195.5938 -72592.8672)">
						<stop  offset="0" style="stop-color:#FFFFFD"/>
						<stop  offset="1" style="stop-color:#FEFFFF"/>
					</linearGradient>
					<rect style="fill:url(#SVGID_00000183226356774519332530000000616690520963901845_);" width="429.1" height="672.2"/>
				</g>
			</g>
			<g>
				<defs>
					<path id="SVGID_00000124145775286164611800000003050000100204741525_" d="M75.1,66.7l-33,33L179.2,237
						c75.5,75.5,144.2,144.2,152.6,152.6l15.4,15.3l33.1-33c18.2-18.2,33-33.5,33-34S345,268.9,261.5,185.6S109.2,34,108.8,33.9l0,0
						C108.3,33.9,93.1,48.6,75.1,66.7"/>
				</defs>
				<clipPath id="SVGID_00000181045474652089088120000002770648095083469726_">
					<use xlink:href="#SVGID_00000124145775286164611800000003050000100204741525_"  style="overflow:visible;"/>
				</clipPath>
				<g style="clip-path:url(#SVGID_00000181045474652089088120000002770648095083469726_);">
					<g>
						
							<linearGradient id="SVGID_00000031920305864723670170000009677998902677681319_" gradientUnits="userSpaceOnUse" x1="120.8909" y1="307.5132" x2="122.0112" y2="307.5132" gradientTransform="matrix(2.028015e-14 -331.2 -331.49 -2.029791e-14 102165.2656 40443.9922)">
							<stop  offset="0" style="stop-color:#A8BDDB"/>
							<stop  offset="1" style="stop-color:#1B50B9"/>
						</linearGradient>
						
							<rect x="42" y="33.9" style="fill:url(#SVGID_00000031920305864723670170000009677998902677681319_);" width="371.4" height="371"/>
					</g>
				</g>
			</g>
			<g>
				<defs>
					<path id="SVGID_00000021821078707094878990000013334753802544912564_" d="M1.1,366.9c0,1.5,302.7,304.1,304.2,304.1
						c0.6,0,13.7-12.6,29.1-28l28-28L210.1,462.7C126.3,378.9,57.4,310.3,57.1,310.3C56,310.3,1.1,365.8,1.1,366.9"/>
				</defs>
				<clipPath id="SVGID_00000111881292145410911220000016422113591198469037_">
					<use xlink:href="#SVGID_00000021821078707094878990000013334753802544912564_"  style="overflow:visible;"/>
				</clipPath>
				<g style="clip-path:url(#SVGID_00000111881292145410911220000016422113591198469037_);">
					<g>
						
							<linearGradient id="SVGID_00000181057836215084898750000016291267901265885583_" gradientUnits="userSpaceOnUse" x1="120.7993" y1="307.5383" x2="121.9196" y2="307.5383" gradientTransform="matrix(1.971681e-14 -322 -322.49 -1.974682e-14 99359.7812 39568.4297)">
							<stop  offset="0" style="stop-color:#F8D1B6"/>
							<stop  offset="1" style="stop-color:#F19A60"/>
						</linearGradient>
						
							<rect x="1.1" y="310.3" style="fill:url(#SVGID_00000181057836215084898750000016291267901265885583_);" width="361.3" height="360.7"/>
					</g>
				</g>
			</g>
			<g>
				<defs>
					<path id="SVGID_00000146496953851833186970000011628262593696048048_" d="M369.7,1.2c-0.3,0-61.6,60.8-136.1,135L98,271.1
						l29.7,29.7l29.7,29.7L293,194.9L428.5,59.4l-29.1-29.1C383.4,14.2,370,1.2,369.7,1.2L369.7,1.2"/>
				</defs>
				<clipPath id="SVGID_00000164475291188496272700000000254071951051414438_">
					<use xlink:href="#SVGID_00000146496953851833186970000011628262593696048048_"  style="overflow:visible;"/>
				</clipPath>
				<g style="clip-path:url(#SVGID_00000164475291188496272700000000254071951051414438_);">
					<g>
						
							<linearGradient id="SVGID_00000002370319681636399810000000353199158190485398_" gradientUnits="userSpaceOnUse" x1="120.7777" y1="306.5018" x2="121.898" y2="306.5018" gradientTransform="matrix(117.91 293.95 294.99 -117.5 -104458.4062 513.1423)">
							<stop  offset="0" style="stop-color:#9FE883"/>
							<stop  offset="1" style="stop-color:#0E9E14"/>
						</linearGradient>
						<polygon style="fill:url(#SVGID_00000002370319681636399810000000353199158190485398_);" points="-15.9,46.5 143.6,444 
							542.4,285.1 383,-112.3 						"/>
					</g>
				</g>
			</g>
			<g>
				<defs>
					<path id="SVGID_00000124879181535165457830000010255126021215257254_" d="M211.7,417.7L70,558.8l30.8,30.9l30.8,30.9
						l140.9-140.9c77.5-77.5,140.9-141.4,140.9-141.9c0-0.6-13.5-14.6-30-31.2l-30-30.1L211.7,417.7z"/>
				</defs>
				<clipPath id="SVGID_00000152967953354676202410000006400233975272333209_">
					<use xlink:href="#SVGID_00000124879181535165457830000010255126021215257254_"  style="overflow:visible;"/>
				</clipPath>
				<g style="clip-path:url(#SVGID_00000152967953354676202410000006400233975272333209_);">
					<g>
						
							<linearGradient id="SVGID_00000179628329709757230850000002014462787844987032_" gradientUnits="userSpaceOnUse" x1="121.2828" y1="307.3419" x2="122.403" y2="307.3419" gradientTransform="matrix(-306.5 -184.28 -183.91 307.13 94112.1328 -71490.7188)">
							<stop  offset="0" style="stop-color:#FFFAE1"/>
							<stop  offset="1" style="stop-color:#FDBF0A"/>
						</linearGradient>
						<polygon style="fill:url(#SVGID_00000179628329709757230850000002014462787844987032_);" points="564.9,367.7 160.9,124.8 
							-81.5,529.6 322.5,772.4 						"/>
					</g>
				</g>
			</g>
			<g>
				<defs>
					<rect id="SVGID_00000105399975952885232190000016880587868224436656_" x="430.2" width="429.1" height="672.2"/>
				</defs>
				<clipPath id="SVGID_00000000941998068577229440000006611910958625413046_">
					<use xlink:href="#SVGID_00000105399975952885232190000016880587868224436656_"  style="overflow:visible;"/>
				</clipPath>
				<g style="clip-path:url(#SVGID_00000000941998068577229440000006611910958625413046_);">
					
						<linearGradient id="SVGID_00000073685188582680286790000010737987570307508368_" gradientUnits="userSpaceOnUse" x1="120.9881" y1="306.4682" x2="122.1084" y2="306.4682" gradientTransform="matrix(3.673941e-14 600 383 -2.345199e-14 -116732.5938 -72592.8672)">
						<stop  offset="0" style="stop-color:#FFFFFD"/>
						<stop  offset="1" style="stop-color:#FEFFFF"/>
					</linearGradient>
					
						<rect x="430.2" style="fill:url(#SVGID_00000073685188582680286790000010737987570307508368_);" width="429.1" height="672.2"/>
				</g>
			</g>
			<g>
				<defs>
					<path id="SVGID_00000032625266014322080770000018132157552122076590_" d="M935.9,44l-33,33l137.2,137.3
						c75.5,75.5,144.2,144.2,152.7,152.6l15.4,15.3l33-33c18.2-18.2,33-33.4,33-34s-68.3-69.1-151.9-152.4S970,11.4,969.7,11.2l0,0
						C969.1,11.2,954,25.9,935.9,44"/>
				</defs>
				<clipPath id="SVGID_00000036222016525927813430000004588984095944213643_">
					<use xlink:href="#SVGID_00000032625266014322080770000018132157552122076590_"  style="overflow:visible;"/>
				</clipPath>
				<g style="clip-path:url(#SVGID_00000036222016525927813430000004588984095944213643_);">
					<g>
						
							<linearGradient id="SVGID_00000078015843774458382310000008403165713961598905_" gradientUnits="userSpaceOnUse" x1="120.8978" y1="307.5937" x2="122.0181" y2="307.5937" gradientTransform="matrix(2.028015e-14 -331.2 -331.49 -2.029791e-14 103052.7656 40423.6406)">
							<stop  offset="0" style="stop-color:#A8BDDB"/>
							<stop  offset="1" style="stop-color:#1B50B9"/>
						</linearGradient>
						
							<rect x="902.9" y="11.2" style="fill:url(#SVGID_00000078015843774458382310000008403165713961598905_);" width="371.4" height="371"/>
					</g>
				</g>
			</g>
			<g>
				<defs>
					<path id="SVGID_00000113335315346144748980000010779031361755369898_" d="M862,344.3c0,1.5,302.7,304.1,304.2,304.1
						c0.6,0,13.7-12.6,29.1-28l28-28L1070.9,440C987.1,356.2,918.3,287.7,918,287.7C916.9,287.7,862,343.2,862,344.3"/>
				</defs>
				<clipPath id="SVGID_00000121281296007740386780000017822454690818015388_">
					<use xlink:href="#SVGID_00000113335315346144748980000010779031361755369898_"  style="overflow:visible;"/>
				</clipPath>
				<g style="clip-path:url(#SVGID_00000121281296007740386780000017822454690818015388_);">
					<g>
						
							<linearGradient id="SVGID_00000031911340046828687230000010693097275015292805_" gradientUnits="userSpaceOnUse" x1="120.8064" y1="307.6199" x2="121.9267" y2="307.6199" gradientTransform="matrix(1.971681e-14 -322 -322.49 -1.974682e-14 100246.9375 39548.0781)">
							<stop  offset="0" style="stop-color:#F8D1B6"/>
							<stop  offset="1" style="stop-color:#F19A60"/>
						</linearGradient>
						
							<rect x="862" y="287.7" style="fill:url(#SVGID_00000031911340046828687230000010693097275015292805_);" width="361.3" height="360.7"/>
					</g>
				</g>
			</g>
			<g>
				<defs>
					<path id="SVGID_00000029726944273416275240000006782445250618692503_" d="M1675.3,26.7c-0.3,0-61.6,60.8-136.1,135
						l-135.6,134.9l29.7,29.7L1463,356l135.6-135.6l135.6-135.6L1705,55.8C1689,39.8,1675.6,26.7,1675.3,26.7L1675.3,26.7"/>
				</defs>
				<clipPath id="SVGID_00000001621786024434142520000010126205106711455114_">
					<use xlink:href="#SVGID_00000029726944273416275240000006782445250618692503_"  style="overflow:visible;"/>
				</clipPath>
				<g style="clip-path:url(#SVGID_00000001621786024434142520000010126205106711455114_);">
					<g>
						
							<linearGradient id="SVGID_00000113321294719010143340000018193122998273563321_" gradientUnits="userSpaceOnUse" x1="120.8998" y1="306.7764" x2="122.0201" y2="306.7764" gradientTransform="matrix(117.91 293.95 294.99 -117.5 -103247.9062 535.7907)">
							<stop  offset="0" style="stop-color:#9FE883"/>
							<stop  offset="1" style="stop-color:#0E9E14"/>
						</linearGradient>
						<polygon style="fill:url(#SVGID_00000113321294719010143340000018193122998273563321_);" points="1289.7,72.1 1449.1,469.5 
							1848,310.7 1688.6,-86.8 						"/>
					</g>
				</g>
			</g>
			<g>
				<defs>
					<path id="SVGID_00000050624627838692916680000002684239897904688779_" d="M1517.3,443.2l-141.7,141.2l30.8,30.9l30.8,30.9
						l140.9-140.9c77.5-77.5,140.9-141.4,140.9-141.9c0-0.6-13.5-14.6-30-31.2l-30-30.1L1517.3,443.2z"/>
				</defs>
				<clipPath id="SVGID_00000063610239096278789960000011963364488125801860_">
					<use xlink:href="#SVGID_00000050624627838692916680000002684239897904688779_"  style="overflow:visible;"/>
				</clipPath>
				<g style="clip-path:url(#SVGID_00000063610239096278789960000011963364488125801860_);">
					<g>
						
							<linearGradient id="SVGID_00000057140609444242409520000016329361079944757414_" gradientUnits="userSpaceOnUse" x1="121.0528" y1="307.2113" x2="122.1731" y2="307.2113" gradientTransform="matrix(-306.5 -184.28 -183.91 307.13 95322.5078 -71467.8594)">
							<stop  offset="0" style="stop-color:#FFFAE1"/>
							<stop  offset="1" style="stop-color:#FDBF0A"/>
						</linearGradient>
						<polygon style="fill:url(#SVGID_00000057140609444242409520000016329361079944757414_);" points="1870.5,393.2 1466.5,150.3 
							1224.1,555.1 1628.1,798 						"/>
					</g>
				</g>
			</g>
		</g>
	</g>
	<line class="st24" x1="430.2" y1="0" x2="430.2" y2="672.2"/>
	<line class="st24" x1="859.3" y1="0" x2="859.3" y2="672.2"/>
	<line class="st24" x1="1296.2" y1="0" x2="1295" y2="672.2"/>
</g>
</svg>
