<?xml version="1.0" standalone="no"?><!DOCTYPE svg PUBLIC "-//W3C//DTD SVG 20010904//EN" "http://www.w3.org/TR/2001/REC-SVG-20010904/DTD/svg10.dtd"><svg version="1.0" xmlns="http://www.w3.org/2000/svg" width="500pt" height="500pt" viewBox="0 0 500 500" preserveAspectRatio="xMidYMid meet"><defs><linearGradient id="linear-gradient-1-1" x1="0.00%" y1="100.00%" x2="100.60%" y2="0.61%"><stop offset="0%" style="stop-color:rgb(1,255,0);stop-opacity:0.990" /><stop offset="100%" style="stop-color:rgb(0,130,129);stop-opacity:1.000" /></linearGradient><linearGradient id="linear-gradient-2-1" x1="0.00%" y1="100.00%" x2="59.44%" y2="-7.84%"><stop offset="0%" style="stop-color:rgb(0,6,122);stop-opacity:0.326" /><stop offset="100%" style="stop-color:rgb(69,72,57);stop-opacity:0.445" /></linearGradient><linearGradient id="linear-gradient-2-2" x1="0.00%" y1="100.00%" x2="157.87%" y2="47.68%"><stop offset="0%" style="stop-color:rgb(179,0,65);stop-opacity:0.364" /><stop offset="100%" style="stop-color:rgb(1,134,100);stop-opacity:0.343" /></linearGradient><linearGradient id="linear-gradient-3-1" x1="0.00%" y1="100.00%" x2="102.78%" y2="0.86%"><stop offset="0%" style="stop-color:rgb(0,11,128);stop-opacity:0.297" /><stop offset="100%" style="stop-color:rgb(2,45,59);stop-opacity:0.543" /></linearGradient><linearGradient id="linear-gradient-3-2" x1="0.00%" y1="100.00%" x2="0.00%" y2="-0.00%"><stop offset="0%" style="stop-color:rgb(0,254,162);stop-opacity:0.143" /><stop offset="100%" style="stop-color:rgb(0,255,255);stop-opacity:0.435" /></linearGradient><linearGradient id="linear-gradient-4-1" x1="0.00%" y1="100.00%" x2="0.00%" y2="-0.00%"><stop offset="0%" style="stop-color:rgb(197,0,34);stop-opacity:0.274" /><stop offset="100%" style="stop-color:rgb(172,59,48);stop-opacity:0.415" /></linearGradient></defs><g id="layer-1"><path d="M0 2500 l0 -2500 2500 0 2500 0 0 2500 0 2500 -2500 0 -2500 0 0 -2500z" fill="url(#linear-gradient-1-1)" id="region-1-1" transform="translate(0.000000,500.000000) scale(0.100000,-0.100000)"/></g><g id="layer-2"><path d="M4367 4863 c-8 -21 -223 -544 -476 -1162 -253 -619 -459 -1126 -457 -1128 4 -5 1459 -163 1463 -160 3 4 -505 2478 -511 2484 -2 2 -10 -13 -19 -34z" fill="url(#linear-gradient-2-1)" id="region-2-1" transform="translate(0.000000,500.000000) scale(0.100000,-0.100000)"/><path d="M330 2410 l0 -1880 980 0 980 0 0 1880 0 1880 -980 0 -980 0 0 -1880z" fill="url(#linear-gradient-2-2)" id="region-2-2" transform="translate(0.000000,500.000000) scale(0.100000,-0.100000)"/></g><g id="layer-3"><path d="M2980 4831 c-195 -37 -361 -70 -368 -72 -8 -3 402 -740 1139 -2052 634 -1126 1154 -2046 1155 -2044 3 2 -1439 3946 -1533 4195 -8 23 -21 42 -27 41 -6 0 -171 -31 -366 -68z" fill="url(#linear-gradient-3-1)" id="region-3-1" transform="translate(0.000000,500.000000) scale(0.100000,-0.100000)"/><path d="M0 1530 l0 -1510 805 0 805 0 0 1510 0 1510 -805 0 -805 0 0 -1510z" fill="url(#linear-gradient-3-2)" id="region-3-2" transform="translate(0.000000,500.000000) scale(0.100000,-0.100000)"/></g><g id="layer-4"><path d="M2419 4449 c-303 -25 -567 -256 -643 -561 -22 -89 -22 -257 0 -346 67 -269 277 -479 546 -546 89 -22 257 -22 346 0 269 67 479 277 546 546 22 89 22 257 0 346 -44 177 -155 337 -304 439 -142 97 -304 137 -491 122z" fill="url(#linear-gradient-4-1)" id="region-4-1" transform="translate(0.000000,500.000000) scale(0.100000,-0.100000)"/></g></svg>