<?xml version="1.0" encoding="utf-8"?>
<!-- Generator: Adobe Illustrator 26.2.1, SVG Export Plug-In . SVG Version: 6.00 Build 0)  -->
<svg version="1.1" xmlns="http://www.w3.org/2000/svg" xmlns:xlink="http://www.w3.org/1999/xlink" x="0px" y="0px"
	 viewBox="0 0 2500 500" style="enable-background:new 0 0 2500 500;" xml:space="preserve">
<style type="text/css">
	.st0{fill:none;}
	.st1{fill:#D3D3D3;}
	.st2{fill:url(#SVGID_1_);}
	.st3{fill:url(#region-1-1_00000030452648254069759180000006615283910467206062_);}
	.st4{fill:url(#region-2-1_00000150809783446381293910000008554379162418671544_);}
	.st5{fill:url(#region-2-2_00000029748398823913132490000007363340535959122873_);}
	.st6{fill:url(#region-3-1_00000064317590939219165880000003449036835834389143_);}
	.st7{fill:url(#region-3-2_00000165912942818697780300000004278327103588209828_);}
	.st8{fill:url(#region-4-1_00000154412576450944222190000004387989574155499427_);}
	.st9{fill:url(#region-1-1_00000127760679998438627070000009659815794223973543_);}
	
		.st10{fill:url(#region-2-1_00000095312832666194761190000015934616745771402638_);stroke:#000000;stroke-width:2;stroke-miterlimit:10;}
	
		.st11{fill:url(#region-2-2_00000101805956213720429560000003632266173322301070_);stroke:#000000;stroke-width:2;stroke-miterlimit:10;}
	
		.st12{fill:url(#region-3-1_00000090295715722221842590000012192064378867445124_);stroke:#000000;stroke-width:2;stroke-miterlimit:10;}
	
		.st13{fill:url(#region-3-2_00000011004267846634964240000009402917154542573697_);stroke:#000000;stroke-width:2;stroke-miterlimit:10;}
	
		.st14{fill:url(#region-4-1_00000085936441239656622200000017974752799155058873_);stroke:#000000;stroke-width:2;stroke-miterlimit:10;}
	.st15{fill:none;stroke:#000000;stroke-width:3;stroke-miterlimit:10;}
</style>
<pattern  x="1000" y="500" width="40" height="40" patternUnits="userSpaceOnUse" id="a2ed1d96-aebd-4bf9-a4b3-645f1ac" viewBox="0 -40 40 40" style="overflow:visible;">
	<g>
		<rect y="-40" class="st0" width="40" height="40"/>
		<rect y="-40" class="st0" width="40" height="40"/>
		<rect y="-40" class="st1" width="20" height="20"/>
		<rect x="20" y="-20" class="st1" width="20" height="20"/>
	</g>
</pattern>
<g id="图层_2">
	<pattern  id="SVGID_1_" xlink:href="#a2ed1d96-aebd-4bf9-a4b3-645f1ac" patternTransform="matrix(1 0 0 1 -48 550.24)">
	</pattern>
	<rect y="0" class="st2" width="2500" height="500"/>
</g>
<g id="图层_1">
	<g id="layer-1">
		
			<linearGradient id="region-1-1_00000001636300854178876350000005533481783955875470_" gradientUnits="userSpaceOnUse" x1="290.415" y1="790.5811" x2="291.421" y2="791.575" gradientTransform="matrix(500 0 0 500 -145209 -395289)">
			<stop  offset="0" style="stop-color:#01FF00;stop-opacity:0.99"/>
			<stop  offset="1" style="stop-color:#008281"/>
		</linearGradient>
		<path id="region-1-1" style="fill:url(#region-1-1_00000001636300854178876350000005533481783955875470_);" d="M0,250v250h250h250
			V250V0H250H0V250z"/>
	</g>
	<g id="layer-2">
		
			<linearGradient id="region-2-1_00000109721531530624759960000017588948520712917663_" gradientUnits="userSpaceOnUse" x1="289.0627" y1="791.1348" x2="289.6572" y2="792.2132" gradientTransform="matrix(146.3028 0 0 248.4221 -41939.7109 -196532.1719)">
			<stop  offset="0" style="stop-color:#00067A;stop-opacity:0.326"/>
			<stop  offset="1" style="stop-color:#454839;stop-opacity:0.445"/>
		</linearGradient>
		<path id="region-2-1" style="fill:url(#region-2-1_00000109721531530624759960000017588948520712917663_);" d="M436.7,13.7
			c-0.8,2.1-22.3,54.4-47.6,116.2c-25.3,61.9-45.9,112.6-45.7,112.8c0.4,0.5,145.9,16.3,146.3,16c0.3-0.4-50.5-247.8-51.1-248.4
			C438.4,10.1,437.6,11.6,436.7,13.7z"/>
		
			<linearGradient id="region-2-2_00000161614497757651397510000014887540370942115717_" gradientUnits="userSpaceOnUse" x1="289.4155" y1="791.0698" x2="290.9942" y2="791.593" gradientTransform="matrix(196 0 0 376 -56712 -297258)">
			<stop  offset="0" style="stop-color:#B30041;stop-opacity:0.364"/>
			<stop  offset="1" style="stop-color:#018664;stop-opacity:0.343"/>
		</linearGradient>
		<path id="region-2-2" style="fill:url(#region-2-2_00000161614497757651397510000014887540370942115717_);" d="M33,259v188h98h98
			V259V71h-98H33V259z"/>
	</g>
	<g id="layer-3">
		
			<linearGradient id="region-3-1_00000044164618631660229370000010936308193029678263_" gradientUnits="userSpaceOnUse" x1="289.7997" y1="790.6116" x2="290.8275" y2="791.603" gradientTransform="matrix(229.4119 0 0 423.6041 -66206.6875 -334926.1562)">
			<stop  offset="0" style="stop-color:#000B80;stop-opacity:0.297"/>
			<stop  offset="1" style="stop-color:#022D3B;stop-opacity:0.543"/>
		</linearGradient>
		<path id="region-3-1" style="fill:url(#region-3-1_00000044164618631660229370000010936308193029678263_);" d="M298,16.9
			c-19.5,3.7-36.1,7-36.8,7.2c-0.8,0.3,40.2,74,113.9,205.2c63.4,112.6,115.4,204.6,115.5,204.4c0.3-0.2-143.9-394.6-153.3-419.5
			c-0.8-2.3-2.1-4.2-2.7-4.1C334,10.1,317.5,13.2,298,16.9z"/>
		
			<linearGradient id="region-3-2_00000023978255486115990220000010731460638758102206_" gradientUnits="userSpaceOnUse" x1="289.6925" y1="790.957" x2="289.6925" y2="791.957" gradientTransform="matrix(161 0 0 302 -46560 -238673)">
			<stop  offset="0" style="stop-color:#00FEA2;stop-opacity:0.143"/>
			<stop  offset="1" style="stop-color:#00FFFF;stop-opacity:0.435"/>
		</linearGradient>
		<path id="region-3-2" style="fill:url(#region-3-2_00000023978255486115990220000010731460638758102206_);" d="M0,347v151h80.5
			H161V347V196H80.5H0V347z"/>
	</g>
	<g id="layer-4">
		
			<linearGradient id="region-4-1_00000175299299936333971320000008158746644923348908_" gradientUnits="userSpaceOnUse" x1="289.5218" y1="791.9626" x2="289.5218" y2="792.9626" gradientTransform="matrix(147.1 0 0 147.2563 -42339.1523 -116566.6875)">
			<stop  offset="0" style="stop-color:#C50022;stop-opacity:0.274"/>
			<stop  offset="1" style="stop-color:#AC3B30;stop-opacity:0.415"/>
		</linearGradient>
		<path id="region-4-1" style="fill:url(#region-4-1_00000175299299936333971320000008158746644923348908_);" d="M241.9,55.1
			c-30.3,2.5-56.7,25.6-64.3,56.1c-2.2,8.9-2.2,25.7,0,34.6c6.7,26.9,27.7,47.9,54.6,54.6c8.9,2.2,25.7,2.2,34.6,0
			c26.9-6.7,47.9-27.7,54.6-54.6c2.2-8.9,2.2-25.7,0-34.6C317,93.5,305.9,77.5,291,67.3C276.8,57.6,260.6,53.6,241.9,55.1z"/>
	</g>
</g>
<g id="图层_3">
	<g id="layer-1_00000111193012361173115370000015829982268521444506_">
		
			<linearGradient id="region-1-1_00000179604168419213624740000015848104946760357297_" gradientUnits="userSpaceOnUse" x1="291.415" y1="790.582" x2="292.421" y2="791.5759" gradientTransform="matrix(500 0 0 500 -145209 -395289)">
			<stop  offset="0" style="stop-color:#01FF00;stop-opacity:0.99"/>
			<stop  offset="1" style="stop-color:#008281"/>
		</linearGradient>
		
			<path id="region-1-1_00000041275199492552038700000016611571442213098630_" style="fill:url(#region-1-1_00000179604168419213624740000015848104946760357297_);" d="
			M500,250.5v250h250h250v-250V0.5H750H500V250.5z"/>
	</g>
	<g id="layer-2_00000176739401964295886100000006664662542700961455_">
		
			<linearGradient id="region-2-1_00000150083623180485512580000015515649353314721455_" gradientUnits="userSpaceOnUse" x1="295.7882" y1="791.1368" x2="296.3826" y2="792.2152" gradientTransform="matrix(146.3028 0 0 248.4221 -41939.7109 -196532.1719)">
			<stop  offset="0" style="stop-color:#00067A;stop-opacity:0.326"/>
			<stop  offset="1" style="stop-color:#454839;stop-opacity:0.445"/>
		</linearGradient>
		
			<path id="region-2-1_00000127015813924856931150000005965350428574421695_" style="fill:url(#region-2-1_00000150083623180485512580000015515649353314721455_);stroke:#000000;stroke-width:2;stroke-miterlimit:10;" d="
			M1420.6,14.2c-0.8,2.1-22.3,54.4-47.6,116.2c-25.3,61.9-45.9,112.6-45.7,112.8c0.4,0.5,145.9,16.3,146.3,16
			c0.3-0.4-50.5-247.8-51.1-248.4C1422.3,10.6,1421.5,12.1,1420.6,14.2z"/>
		
			<linearGradient id="region-2-2_00000132068104773555921950000008774089793859751586_" gradientUnits="userSpaceOnUse" x1="294.4356" y1="791.0712" x2="296.0143" y2="791.5944" gradientTransform="matrix(196 0 0 376 -56712 -297258)">
			<stop  offset="0" style="stop-color:#B30041;stop-opacity:0.364"/>
			<stop  offset="1" style="stop-color:#018664;stop-opacity:0.343"/>
		</linearGradient>
		
			<path id="region-2-2_00000026870223247155523720000005142261777466659771_" style="fill:url(#region-2-2_00000132068104773555921950000008774089793859751586_);stroke:#000000;stroke-width:2;stroke-miterlimit:10;" d="
			M1016.9,259.5v188h98h98v-188v-188h-98h-98V259.5z"/>
	</g>
	<g id="layer-3_00000044147060628569542690000013607326410520432555_">
		
			<linearGradient id="region-3-1_00000049180244536658267580000008575551316168952998_" gradientUnits="userSpaceOnUse" x1="296.3587" y1="790.6127" x2="297.3865" y2="791.6041" gradientTransform="matrix(229.4119 0 0 423.6041 -66206.6875 -334926.1562)">
			<stop  offset="0" style="stop-color:#000B80;stop-opacity:0.297"/>
			<stop  offset="1" style="stop-color:#022D3B;stop-opacity:0.543"/>
		</linearGradient>
		
			<path id="region-3-1_00000144311728144305753820000013164079687562433935_" style="fill:url(#region-3-1_00000049180244536658267580000008575551316168952998_);stroke:#000000;stroke-width:2;stroke-miterlimit:10;" d="
			M1802.7,17.4c-19.5,3.7-36.1,7-36.8,7.2c-0.8,0.3,40.2,74,113.9,205.2c63.4,112.6,115.4,204.6,115.5,204.4
			c0.3-0.2-143.9-394.6-153.3-419.5c-0.8-2.3-2.1-4.2-2.7-4.1C1838.7,10.6,1822.2,13.7,1802.7,17.4z"/>
		
			<linearGradient id="region-3-2_00000109723172210560984770000014622320234550965657_" gradientUnits="userSpaceOnUse" x1="299.0385" y1="790.9586" x2="299.0385" y2="791.9586" gradientTransform="matrix(161 0 0 302 -46560 -238673)">
			<stop  offset="0" style="stop-color:#00FEA2;stop-opacity:0.143"/>
			<stop  offset="1" style="stop-color:#00FFFF;stop-opacity:0.435"/>
		</linearGradient>
		
			<path id="region-3-2_00000166676175187924885180000013319726668539687613_" style="fill:url(#region-3-2_00000109723172210560984770000014622320234550965657_);stroke:#000000;stroke-width:2;stroke-miterlimit:10;" d="
			M1504.7,347.5v151h80.5h80.5v-151v-151h-80.5h-80.5V347.5z"/>
	</g>
	<g id="layer-4_00000031165148117521785010000004522507579285496226_">
		
			<linearGradient id="region-4-1_00000056402017839640812620000009826796172333857711_" gradientUnits="userSpaceOnUse" x1="303.1213" y1="791.9659" x2="303.1213" y2="792.9659" gradientTransform="matrix(147.1 0 0 147.2563 -42339.1523 -116566.6875)">
			<stop  offset="0" style="stop-color:#C50022;stop-opacity:0.274"/>
			<stop  offset="1" style="stop-color:#AC3B30;stop-opacity:0.415"/>
		</linearGradient>
		
			<path id="region-4-1_00000157288680296203616880000000241748482809970860_" style="fill:url(#region-4-1_00000056402017839640812620000009826796172333857711_);stroke:#000000;stroke-width:2;stroke-miterlimit:10;" d="
			M2242.4,55.6c-30.3,2.5-56.7,25.6-64.3,56.1c-2.2,8.9-2.2,25.7,0,34.6c6.7,26.9,27.7,47.9,54.6,54.6c8.9,2.2,25.7,2.2,34.6,0
			c26.9-6.7,47.9-27.7,54.6-54.6c2.2-8.9,2.2-25.7,0-34.6c-4.4-17.7-15.5-33.7-30.4-43.9C2277.3,58.1,2261.1,54.1,2242.4,55.6z"/>
	</g>
	<line class="st15" x1="500" y1="0.5" x2="500" y2="500"/>
	<line class="st15" x1="1000" y1="0.5" x2="1000" y2="500.5"/>
	<line class="st15" x1="1500" y1="0" x2="1500" y2="500.5"/>
	<line class="st15" x1="2000" y1="0" x2="2000" y2="500"/>
</g>
</svg>
