<?xml version="1.0" standalone="no"?><!DOCTYPE svg PUBLIC "-//W3C//DTD SVG 20010904//EN" "http://www.w3.org/TR/2001/REC-SVG-20010904/DTD/svg10.dtd"><svg version="1.0" xmlns="http://www.w3.org/2000/svg" width="666pt" height="609pt" viewBox="0 0 666 609" preserveAspectRatio="xMidYMid meet"><defs><linearGradient id="linear-gradient-1-1" x1="0.00%" y1="100.00%" x2="50.87%" y2="-27.91%"><stop offset="0%" style="stop-color:rgb(250,112,91);stop-opacity:0.990" /><stop offset="100%" style="stop-color:rgb(249,114,94);stop-opacity:1.000" /></linearGradient><linearGradient id="linear-gradient-1-2" x1="0.00%" y1="100.00%" x2="35.65%" y2="-35.07%"><stop offset="0%" style="stop-color:rgb(255,112,92);stop-opacity:0.992" /><stop offset="100%" style="stop-color:rgb(255,112,92);stop-opacity:0.992" /></linearGradient><linearGradient id="linear-gradient-1-3" x1="0.00%" y1="100.00%" x2="31.61%" y2="-35.28%"><stop offset="0%" style="stop-color:rgb(255,113,93);stop-opacity:0.995" /><stop offset="100%" style="stop-color:rgb(255,113,93);stop-opacity:0.996" /></linearGradient><linearGradient id="linear-gradient-1-4" x1="0.00%" y1="100.00%" x2="14.38%" y2="-36.64%"><stop offset="0%" style="stop-color:rgb(35,47,53);stop-opacity:0.992" /><stop offset="100%" style="stop-color:rgb(37,49,55);stop-opacity:0.993" /></linearGradient><linearGradient id="linear-gradient-1-5" x1="0.00%" y1="100.00%" x2="0.00%" y2="-0.00%"><stop offset="0%" style="stop-color:rgb(36,48,54);stop-opacity:0.992" /><stop offset="100%" style="stop-color:rgb(36,48,54);stop-opacity:0.993" /></linearGradient><linearGradient id="linear-gradient-1-6" x1="0.00%" y1="100.00%" x2="139.42%" y2="19.16%"><stop offset="0%" style="stop-color:rgb(36,48,55);stop-opacity:0.995" /><stop offset="100%" style="stop-color:rgb(37,49,55);stop-opacity:0.999" /></linearGradient><linearGradient id="linear-gradient-1-7" x1="0.00%" y1="100.00%" x2="34.80%" y2="-7.10%"><stop offset="0%" style="stop-color:rgb(37,49,55);stop-opacity:0.997" /><stop offset="100%" style="stop-color:rgb(37,49,55);stop-opacity:1.000" /></linearGradient><linearGradient id="linear-gradient-2-1" x1="0.00%" y1="100.00%" x2="0.01%" y2="-0.12%"><stop offset="0%" style="stop-color:rgb(0,35,47);stop-opacity:0.815" /><stop offset="100%" style="stop-color:rgb(0,35,47);stop-opacity:0.815" /></linearGradient><linearGradient id="linear-gradient-2-2" x1="0.00%" y1="100.00%" x2="246.51%" y2="22.79%"><stop offset="0%" style="stop-color:rgb(0,36,47);stop-opacity:0.822" /><stop offset="100%" style="stop-color:rgb(0,36,47);stop-opacity:0.822" /></linearGradient><linearGradient id="linear-gradient-2-3" x1="0.00%" y1="100.00%" x2="169.60%" y2="6.13%"><stop offset="0%" style="stop-color:rgb(0,36,47);stop-opacity:0.822" /><stop offset="100%" style="stop-color:rgb(0,36,47);stop-opacity:0.822" /></linearGradient><linearGradient id="linear-gradient-2-4" x1="0.00%" y1="100.00%" x2="64.33%" y2="-17.87%"><stop offset="0%" style="stop-color:rgb(255,168,155);stop-opacity:0.795" /><stop offset="100%" style="stop-color:rgb(255,167,155);stop-opacity:0.800" /></linearGradient><linearGradient id="linear-gradient-2-5" x1="0.00%" y1="100.00%" x2="101.11%" y2="1.04%"><stop offset="0%" style="stop-color:rgb(255,168,156);stop-opacity:0.784" /><stop offset="100%" style="stop-color:rgb(255,167,155);stop-opacity:0.806" /></linearGradient><linearGradient id="linear-gradient-2-6" x1="0.00%" y1="100.00%" x2="0.00%" y2="0.00%"><stop offset="0%" style="stop-color:rgb(255,167,155);stop-opacity:0.791" /><stop offset="100%" style="stop-color:rgb(255,168,155);stop-opacity:0.801" /></linearGradient><linearGradient id="linear-gradient-2-7" x1="0.00%" y1="100.00%" x2="0.00%" y2="0.00%"><stop offset="0%" style="stop-color:rgb(0,36,48);stop-opacity:0.805" /><stop offset="100%" style="stop-color:rgb(0,36,48);stop-opacity:0.807" /></linearGradient><linearGradient id="linear-gradient-2-8" x1="0.00%" y1="100.00%" x2="105.33%" y2="2.49%"><stop offset="0%" style="stop-color:rgb(98,42,34);stop-opacity:0.475" /><stop offset="100%" style="stop-color:rgb(133,59,49);stop-opacity:0.612" /></linearGradient><linearGradient id="linear-gradient-2-9" x1="0.00%" y1="100.00%" x2="43.56%" y2="-8.78%"><stop offset="0%" style="stop-color:rgb(111,50,41);stop-opacity:0.517" /><stop offset="100%" style="stop-color:rgb(138,61,50);stop-opacity:0.644" /></linearGradient><linearGradient id="linear-gradient-2-10" x1="0.00%" y1="100.00%" x2="0.04%" y2="-7.15%"><stop offset="0%" style="stop-color:rgb(0,26,40);stop-opacity:0.805" /><stop offset="100%" style="stop-color:rgb(12,30,34);stop-opacity:0.780" /></linearGradient><linearGradient id="linear-gradient-2-11" x1="0.00%" y1="100.00%" x2="20.25%" y2="-377.84%"><stop offset="0%" style="stop-color:rgb(119,52,43);stop-opacity:0.548" /><stop offset="100%" style="stop-color:rgb(145,64,52);stop-opacity:0.677" /></linearGradient><linearGradient id="linear-gradient-2-12" x1="0.00%" y1="100.00%" x2="20.87%" y2="-40.17%"><stop offset="0%" style="stop-color:rgb(136,61,49);stop-opacity:0.634" /><stop offset="100%" style="stop-color:rgb(144,65,52);stop-opacity:0.680" /></linearGradient><linearGradient id="linear-gradient-2-13" x1="0.00%" y1="100.00%" x2="60.37%" y2="-53.98%"><stop offset="0%" style="stop-color:rgb(118,58,44);stop-opacity:0.548" /><stop offset="100%" style="stop-color:rgb(134,57,48);stop-opacity:0.624" /></linearGradient><linearGradient id="linear-gradient-2-14" x1="0.00%" y1="100.00%" x2="5.21%" y2="-53.97%"><stop offset="0%" style="stop-color:rgb(0,35,47);stop-opacity:0.817" /><stop offset="100%" style="stop-color:rgb(0,35,47);stop-opacity:0.818" /></linearGradient><linearGradient id="linear-gradient-2-15" x1="0.00%" y1="100.00%" x2="0.24%" y2="-32.84%"><stop offset="0%" style="stop-color:rgb(0,35,47);stop-opacity:0.819" /><stop offset="100%" style="stop-color:rgb(0,36,47);stop-opacity:0.823" /></linearGradient><linearGradient id="linear-gradient-3-1" x1="0.00%" y1="100.00%" x2="0.56%" y2="-5.29%"><stop offset="0%" style="stop-color:rgb(98,137,151);stop-opacity:0.459" /><stop offset="100%" style="stop-color:rgb(100,140,155);stop-opacity:0.441" /></linearGradient><linearGradient id="linear-gradient-3-2" x1="0.00%" y1="100.00%" x2="152.98%" y2="44.32%"><stop offset="0%" style="stop-color:rgb(1,49,62);stop-opacity:0.770" /><stop offset="100%" style="stop-color:rgb(0,32,41);stop-opacity:0.808" /></linearGradient><linearGradient id="linear-gradient-3-3" x1="0.00%" y1="100.00%" x2="0.00%" y2="0.00%"><stop offset="0%" style="stop-color:rgb(2,47,60);stop-opacity:0.781" /><stop offset="100%" style="stop-color:rgb(0,29,37);stop-opacity:0.810" /></linearGradient><linearGradient id="linear-gradient-3-4" x1="0.00%" y1="100.00%" x2="22.75%" y2="-96.47%"><stop offset="0%" style="stop-color:rgb(255,255,255);stop-opacity:0.806" /><stop offset="100%" style="stop-color:rgb(255,255,255);stop-opacity:0.816" /></linearGradient><linearGradient id="linear-gradient-3-5" x1="0.00%" y1="100.00%" x2="77.92%" y2="-17.74%"><stop offset="0%" style="stop-color:rgb(239,255,255);stop-opacity:0.841" /><stop offset="100%" style="stop-color:rgb(244,255,255);stop-opacity:0.831" /></linearGradient><linearGradient id="linear-gradient-3-6" x1="0.00%" y1="100.00%" x2="0.00%" y2="-0.00%"><stop offset="0%" style="stop-color:rgb(240,255,255);stop-opacity:0.838" /><stop offset="100%" style="stop-color:rgb(242,255,255);stop-opacity:0.834" /></linearGradient><linearGradient id="linear-gradient-3-7" x1="0.00%" y1="100.00%" x2="0.01%" y2="-0.17%"><stop offset="0%" style="stop-color:rgb(89,120,133);stop-opacity:0.566" /><stop offset="100%" style="stop-color:rgb(89,120,133);stop-opacity:0.568" /></linearGradient><linearGradient id="linear-gradient-4-1" x1="0.00%" y1="100.00%" x2="89.13%" y2="-14.53%"><stop offset="0%" style="stop-color:rgb(157,169,174);stop-opacity:0.632" /><stop offset="100%" style="stop-color:rgb(162,173,178);stop-opacity:0.599" /></linearGradient><linearGradient id="linear-gradient-4-2" x1="0.00%" y1="100.00%" x2="13.10%" y2="-7.33%"><stop offset="0%" style="stop-color:rgb(255,255,255);stop-opacity:0.899" /><stop offset="100%" style="stop-color:rgb(255,255,255);stop-opacity:0.893" /></linearGradient><linearGradient id="linear-gradient-4-3" x1="0.00%" y1="100.00%" x2="124.75%" y2="32.01%"><stop offset="0%" style="stop-color:rgb(255,255,255);stop-opacity:0.895" /><stop offset="100%" style="stop-color:rgb(255,255,255);stop-opacity:0.894" /></linearGradient><linearGradient id="linear-gradient-4-4" x1="0.00%" y1="100.00%" x2="148.28%" y2="11.86%"><stop offset="0%" style="stop-color:rgb(0,10,17);stop-opacity:0.807" /><stop offset="100%" style="stop-color:rgb(0,11,18);stop-opacity:0.812" /></linearGradient><linearGradient id="linear-gradient-4-5" x1="0.00%" y1="100.00%" x2="139.30%" y2="9.97%"><stop offset="0%" style="stop-color:rgb(0,10,17);stop-opacity:0.808" /><stop offset="100%" style="stop-color:rgb(0,10,18);stop-opacity:0.810" /></linearGradient><linearGradient id="linear-gradient-4-6" x1="0.00%" y1="100.00%" x2="154.53%" y2="9.98%"><stop offset="0%" style="stop-color:rgb(0,10,17);stop-opacity:0.808" /><stop offset="100%" style="stop-color:rgb(0,10,18);stop-opacity:0.811" /></linearGradient><linearGradient id="linear-gradient-4-7" x1="0.00%" y1="100.00%" x2="109.95%" y2="2.34%"><stop offset="0%" style="stop-color:rgb(0,10,17);stop-opacity:0.808" /><stop offset="100%" style="stop-color:rgb(0,10,18);stop-opacity:0.811" /></linearGradient><linearGradient id="linear-gradient-4-8" x1="0.00%" y1="100.00%" x2="0.00%" y2="-0.00%"><stop offset="0%" style="stop-color:rgb(253,252,252);stop-opacity:0.755" /><stop offset="100%" style="stop-color:rgb(255,255,254);stop-opacity:0.765" /></linearGradient><linearGradient id="linear-gradient-4-9" x1="0.00%" y1="100.00%" x2="111.27%" y2="2.53%"><stop offset="0%" style="stop-color:rgb(0,9,17);stop-opacity:0.807" /><stop offset="100%" style="stop-color:rgb(0,11,18);stop-opacity:0.811" /></linearGradient><linearGradient id="linear-gradient-4-10" x1="0.00%" y1="100.00%" x2="120.70%" y2="2.91%"><stop offset="0%" style="stop-color:rgb(0,10,17);stop-opacity:0.808" /><stop offset="100%" style="stop-color:rgb(0,10,18);stop-opacity:0.811" /></linearGradient><linearGradient id="linear-gradient-4-11" x1="0.00%" y1="100.00%" x2="94.55%" y2="-0.86%"><stop offset="0%" style="stop-color:rgb(0,10,17);stop-opacity:0.809" /><stop offset="100%" style="stop-color:rgb(0,10,18);stop-opacity:0.811" /></linearGradient><linearGradient id="linear-gradient-4-12" x1="0.00%" y1="100.00%" x2="109.19%" y2="1.36%"><stop offset="0%" style="stop-color:rgb(0,9,16);stop-opacity:0.807" /><stop offset="100%" style="stop-color:rgb(0,11,18);stop-opacity:0.813" /></linearGradient></defs><g id="layer-1"><path d="M1653 6059 c-120 -38 -234 -150 -321 -317 -128 -246 -345 -824 -456 -1216 -20 -68 -45 -122 -105 -220 -151 -251 -284 -499 -367 -686 -16 -36 -62 -108 -103 -160 -99 -126 -207 -290 -242 -367 -39 -84 -43 -162 -30 -493 21 -514 57 -820 115 -995 43 -128 72 -179 134 -237 98 -92 238 -138 557 -183 616 -87 1207 -142 1767 -166 336 -14 1535 2 1868 26 693 49 1540 149 1695 200 229 75 307 154 380 385 57 183 94 562 102 1050 l5 345 -26 60 c-33 73 -150 251 -251 380 -41 53 -87 124 -101 158 -63 150 -201 408 -350 658 -85 141 -98 169 -138 305 -132 441 -329 955 -452 1181 -83 153 -193 256 -311 293 -64 20 -88 20 -1687 19 -1579 0 -1623 -1 -1683 -20z" fill="url(#linear-gradient-1-1)" id="region-1-1" transform="translate(0.000000,609.000000) scale(0.100000,-0.100000)"/><path d="M365 4879 c-147 -17 -219 -54 -279 -142 -46 -68 -76 -156 -76 -227 0 -97 -14 -93 363 -94 243 -1 327 2 344 12 36 20 53 98 53 236 0 137 -11 191 -42 207 -28 15 -261 20 -363 8z" fill="url(#linear-gradient-1-2)" id="region-1-2" transform="translate(0.000000,609.000000) scale(0.100000,-0.100000)"/><path d="M5932 4843 c-47 -9 -57 -44 -57 -203 1 -150 12 -217 42 -241 13 -11 82 -14 349 -14 312 0 333 1 353 19 26 24 28 80 5 157 -23 78 -50 125 -100 179 -55 59 -116 86 -224 99 -81 11 -321 13 -368 4z" fill="url(#linear-gradient-1-3)" id="region-1-3" transform="translate(0.000000,609.000000) scale(0.100000,-0.100000)"/><path d="M853 4598 c-48 -10 -82 -49 -101 -115 -7 -24 -22 -48 -35 -55 -17 -10 -101 -13 -345 -12 -177 0 -322 -2 -322 -5 0 -18 43 -73 64 -80 20 -8 424 -31 544 -31 32 0 44 -4 48 -17 17 -55 18 -54 82 50 41 69 70 131 87 187 13 47 23 85 22 85 -1 1 -21 -2 -44 -7z" fill="url(#linear-gradient-1-4)" id="region-1-4" transform="translate(0.000000,609.000000) scale(0.100000,-0.100000)"/><path d="M5800 4548 c0 -37 37 -123 87 -206 43 -71 60 -91 72 -86 9 3 111 10 226 15 248 10 332 16 356 29 14 8 59 69 59 81 0 2 -150 4 -333 4 -373 0 -360 -3 -378 72 -16 60 -89 136 -89 91z" fill="url(#linear-gradient-1-5)" id="region-1-5" transform="translate(0.000000,609.000000) scale(0.100000,-0.100000)"/><path d="M36 2029 c-45 -956 -32 -1393 50 -1677 57 -195 125 -221 584 -222 118 0 246 5 283 10 122 18 198 73 227 165 13 39 10 358 -7 702 l-6 132 -41 6 c-561 77 -606 86 -745 152 -66 32 -141 98 -176 158 -65 111 -121 353 -141 602 -10 138 -21 128 -28 -28z" fill="url(#linear-gradient-1-6)" id="region-1-6" transform="translate(0.000000,609.000000) scale(0.100000,-0.100000)"/><path d="M6583 1793 c-7 -43 -24 -116 -38 -163 -96 -303 -216 -378 -710 -446 -137 -18 -261 -34 -275 -34 -19 0 -33 -12 -57 -48 l-32 -47 -10 -309 c-19 -545 -16 -586 41 -652 75 -86 140 -97 533 -92 290 4 313 5 364 26 81 32 117 73 146 163 52 165 73 340 82 690 6 245 -13 952 -26 977 -4 7 -12 -23 -18 -65z" fill="url(#linear-gradient-1-7)" id="region-1-7" transform="translate(0.000000,609.000000) scale(0.100000,-0.100000)"/></g><g id="layer-2"><path d="M1565 5761 c-150 -15 -139 -8 -202 -139 -256 -542 -453 -1080 -453 -1239 l0 -46 1568 6 c862 4 1933 7 2381 7 l814 0 -6 88 c-5 94 -16 128 -153 493 -184 493 -297 759 -331 778 -34 18 -179 30 -473 41 -350 13 -3034 22 -3145 11z" fill="url(#linear-gradient-2-1)" id="region-2-1" transform="translate(0.000000,609.000000) scale(0.100000,-0.100000)"/><path d="M1496 4241 c-15 -117 12 -362 59 -526 28 -97 109 -275 125 -275 6 0 -3 26 -19 58 -92 182 -145 433 -154 727 l-2 80 -9 -64z" fill="url(#linear-gradient-2-2)" id="region-2-2" transform="translate(0.000000,609.000000) scale(0.100000,-0.100000)"/><path d="M5087 4123 c-7 -238 -57 -455 -144 -627 -19 -37 -32 -70 -30 -72 7 -7 24 18 60 91 83 167 126 361 134 603 4 106 2 162 -4 162 -6 0 -12 -62 -16 -157z" fill="url(#linear-gradient-2-3)" id="region-2-3" transform="translate(0.000000,609.000000) scale(0.100000,-0.100000)"/><path d="M1042 4073 c-30 -85 -92 -211 -128 -258 -15 -20 -43 -45 -63 -55 l-36 -18 25 -11 c14 -6 104 -40 200 -77 96 -37 210 -82 252 -101 66 -30 84 -34 122 -29 25 4 48 11 51 17 4 5 -74 142 -172 304 -157 260 -181 295 -203 295 -22 0 -28 -8 -48 -67z" fill="url(#linear-gradient-2-4)" id="region-2-4" transform="translate(0.000000,609.000000) scale(0.100000,-0.100000)"/><path d="M5477 4085 c-18 -18 -361 -585 -356 -589 2 -1 27 -8 56 -14 48 -10 55 -9 95 13 46 25 225 98 396 160 102 37 132 55 93 55 -51 0 -144 142 -207 313 -30 80 -46 93 -77 62z" fill="url(#linear-gradient-2-5)" id="region-2-5" transform="translate(0.000000,609.000000) scale(0.100000,-0.100000)"/><path d="M1740 3941 c0 -11 -13 -31 -30 -44 -36 -31 -36 -38 -6 -212 l22 -130 34 1 c19 1 161 7 315 13 154 6 610 11 1013 11 402 0 732 3 732 8 0 4 -29 46 -64 93 l-64 86 -78 7 c-179 14 -870 47 -1174 56 -335 9 -392 16 -530 61 -36 12 -87 32 -114 45 -60 29 -56 28 -56 5z" fill="url(#linear-gradient-2-6)" id="region-2-6" transform="translate(0.000000,609.000000) scale(0.100000,-0.100000)"/><path d="M1713 3404 c-55 -28 -77 -75 -81 -180 -5 -108 12 -295 33 -379 38 -145 113 -253 211 -301 77 -38 202 -51 594 -65 424 -15 2226 -5 2295 12 88 22 168 119 193 234 7 28 19 157 27 289 l16 238 -23 46 c-43 87 -35 85 -395 93 -450 11 -1984 29 -2448 29 -337 0 -394 -3 -422 -16z" fill="url(#linear-gradient-2-7)" id="region-2-7" transform="translate(0.000000,609.000000) scale(0.100000,-0.100000)"/><path d="M843 4246 c-123 -168 -332 -536 -376 -664 -18 -54 -33 -123 -39 -186 -5 -56 -28 -200 -50 -322 -45 -253 -45 -259 30 -326 84 -76 207 -122 492 -182 273 -58 717 -136 772 -136 18 0 2 20 -82 105 -58 58 -110 105 -117 105 -7 0 -15 10 -17 23 -3 12 -19 92 -36 177 -38 184 -71 323 -107 444 -32 104 -75 159 -181 230 -115 76 -478 246 -526 246 -8 0 -17 4 -20 8 -6 10 140 262 243 420 81 124 90 162 14 58z" fill="url(#linear-gradient-2-8)" id="region-2-8" transform="translate(0.000000,609.000000) scale(0.100000,-0.100000)"/><path d="M5670 4327 c0 -4 24 -44 53 -89 54 -83 176 -294 256 -440 38 -70 40 -78 23 -78 -54 0 -402 -159 -527 -241 -107 -70 -156 -123 -183 -200 -31 -89 -84 -307 -123 -509 -19 -93 -39 -170 -44 -170 -9 0 -40 -32 -179 -188 -22 -23 -37 -45 -34 -47 14 -14 845 142 1012 190 170 49 304 136 322 209 5 19 -7 109 -34 260 -23 127 -43 267 -46 311 -2 44 -12 112 -22 150 -27 107 -225 488 -375 721 -53 81 -99 138 -99 121z" fill="url(#linear-gradient-2-9)" id="region-2-9" transform="translate(0.000000,609.000000) scale(0.100000,-0.100000)"/><path d="M6516 2625 c-129 -100 -326 -182 -531 -224 -361 -73 -1057 -96 -2630 -87 -1501 9 -1849 22 -2280 82 -209 29 -509 85 -645 119 -79 20 -314 93 -357 111 -7 3 -13 2 -13 -3 0 -9 186 -75 315 -112 281 -81 677 -145 1085 -175 868 -65 2650 -72 3920 -16 469 21 731 69 953 175 116 54 273 164 256 179 -2 2 -35 -20 -73 -49z" fill="url(#linear-gradient-2-10)" id="region-2-10" transform="translate(0.000000,609.000000) scale(0.100000,-0.100000)"/><path d="M404 2488 c115 -92 380 -207 617 -267 323 -82 558 -99 1109 -83 646 20 2138 105 2655 152 88 8 80 8 -70 4 -507 -13 -1544 -16 -2035 -5 -1017 22 -1434 49 -1855 122 -113 20 -386 79 -430 94 -14 5 -12 0 9 -17z" fill="url(#linear-gradient-2-11)" id="region-2-11" transform="translate(0.000000,609.000000) scale(0.100000,-0.100000)"/><path d="M5768 2102 l-498 -55 0 -199 c0 -183 1 -198 18 -198 24 0 464 57 587 76 55 8 139 24 187 35 77 18 91 25 123 61 42 46 67 99 101 217 30 105 31 121 2 120 -13 -1 -247 -26 -520 -57z" fill="url(#linear-gradient-2-12)" id="region-2-12" transform="translate(0.000000,609.000000) scale(0.100000,-0.100000)"/><path d="M376 2038 c48 -207 101 -294 198 -323 67 -20 301 -58 551 -90 110 -14 219 -27 243 -31 l42 -5 0 200 c0 111 -2 201 -5 201 -3 0 -229 25 -503 55 -273 30 -507 55 -519 55 -21 0 -21 -1 -7 -62z" fill="url(#linear-gradient-2-13)" id="region-2-13" transform="translate(0.000000,609.000000) scale(0.100000,-0.100000)"/><path d="M1879 1981 c-15 -11 -30 -32 -33 -45 -3 -14 0 -88 9 -165 22 -215 51 -317 95 -341 76 -41 858 -80 1610 -80 480 0 757 11 930 36 126 19 156 30 197 77 54 62 103 254 103 407 0 79 -18 100 -94 111 -32 4 -673 11 -1424 15 l-1367 7 -26 -22z" fill="url(#linear-gradient-2-14)" id="region-2-14" transform="translate(0.000000,609.000000) scale(0.100000,-0.100000)"/><path d="M6280 1649 c-1005 -251 -2101 -372 -3210 -356 -931 14 -1780 111 -2697 308 -182 39 -211 44 -201 34 9 -9 383 -91 608 -134 774 -146 1486 -217 2290 -228 1130 -16 2166 100 3201 357 90 22 173 45 184 50 l20 9 -20 -1 c-11 0 -90 -18 -175 -39z" fill="url(#linear-gradient-2-15)" id="region-2-15" transform="translate(0.000000,609.000000) scale(0.100000,-0.100000)"/></g><g id="layer-3"><path d="M1764 5699 c-136 -8 -216 -21 -267 -42 -31 -13 -44 -34 -140 -223 -192 -380 -337 -732 -337 -819 0 -57 28 -114 77 -154 80 -66 -93 -61 2295 -61 l2168 0 0 53 c0 77 -21 147 -114 382 -182 457 -318 753 -358 779 -112 69 -769 97 -2283 94 -506 0 -974 -4 -1041 -9z" fill="url(#linear-gradient-3-1)" id="region-3-1" transform="translate(0.000000,609.000000) scale(0.100000,-0.100000)"/><path d="M5670 4327 c0 -4 24 -44 53 -89 54 -83 176 -294 256 -440 38 -70 40 -78 23 -78 -54 0 -402 -159 -527 -241 -115 -75 -157 -123 -188 -216 -41 -126 -147 -590 -147 -645 0 -23 53 -24 215 -2 204 26 795 141 811 157 3 3 5 135 5 293 1 394 -5 421 -152 702 -96 184 -171 316 -250 438 -53 81 -99 138 -99 121z" fill="url(#linear-gradient-3-2)" id="region-3-2" transform="translate(0.000000,609.000000) scale(0.100000,-0.100000)"/><path d="M843 4246 c-121 -165 -332 -536 -374 -660 -42 -120 -49 -191 -49 -497 l0 -276 28 -6 c459 -98 751 -149 925 -163 l87 -7 -6 34 c-38 206 -99 472 -141 613 -32 104 -75 159 -181 230 -115 76 -478 246 -526 246 -8 0 -17 4 -20 8 -6 10 140 262 243 420 81 124 90 162 14 58z" fill="url(#linear-gradient-3-3)" id="region-3-3" transform="translate(0.000000,609.000000) scale(0.100000,-0.100000)"/><path d="M1722 3390 c-62 -38 -72 -68 -72 -225 0 -419 118 -611 395 -645 238 -28 1309 -38 2325 -21 l385 6 48 28 c112 66 140 149 161 476 17 262 13 290 -46 333 -29 20 -46 22 -347 29 -318 9 -2444 39 -2686 39 -112 0 -135 -3 -163 -20z" fill="url(#linear-gradient-3-4)" id="region-3-4" transform="translate(0.000000,609.000000) scale(0.100000,-0.100000)"/><path d="M5994 2117 l-182 -20 -6 -46 c-3 -25 -9 -100 -12 -167 l-7 -121 99 14 c178 24 255 57 290 124 15 29 74 213 74 230 0 12 -44 10 -256 -14z" fill="url(#linear-gradient-3-5)" id="region-3-5" transform="translate(0.000000,609.000000) scale(0.100000,-0.100000)"/><path d="M420 2086 c0 -2 16 -55 35 -117 42 -132 69 -173 139 -205 49 -22 280 -63 292 -51 3 3 0 78 -7 166 -9 116 -16 161 -25 161 -14 0 -340 37 -396 45 -21 3 -38 3 -38 1z" fill="url(#linear-gradient-3-6)" id="region-3-6" transform="translate(0.000000,609.000000) scale(0.100000,-0.100000)"/><path d="M1889 1960 c-29 -28 -30 -33 -24 -87 27 -238 59 -375 94 -407 45 -41 502 -66 1336 -73 789 -7 1191 12 1308 61 75 31 128 166 143 368 6 70 4 87 -9 100 -22 21 -143 26 -842 33 -739 7 -1755 23 -1878 30 l-98 5 -30 -30z" fill="url(#linear-gradient-3-7)" id="region-3-7" transform="translate(0.000000,609.000000) scale(0.100000,-0.100000)"/></g><g id="layer-4"><path d="M2245 5623 c-265 -9 -492 -38 -572 -73 -51 -22 -72 -55 -148 -225 -100 -226 -343 -860 -333 -870 3 -3 160 -8 349 -11 355 -7 624 4 710 29 l44 13 101 194 c56 107 192 362 302 565 l201 370 -47 7 c-45 6 -438 7 -607 1z" fill="url(#linear-gradient-4-1)" id="region-4-1" transform="translate(0.000000,609.000000) scale(0.100000,-0.100000)"/><path d="M541 3704 c-16 -27 -45 -92 -63 -144 l-32 -95 -4 -317 -4 -316 74 -17 c264 -60 676 -133 851 -150 52 -5 67 -4 67 7 0 19 -64 326 -89 428 -44 177 -73 259 -108 300 -70 81 -249 188 -487 290 -169 73 -168 73 -205 14z" fill="url(#linear-gradient-4-2)" id="region-4-2" transform="translate(0.000000,609.000000) scale(0.100000,-0.100000)"/><path d="M5920 3679 c-114 -46 -367 -172 -437 -219 -109 -72 -149 -120 -178 -213 -44 -136 -150 -615 -139 -626 15 -16 456 54 779 122 l200 43 8 119 c12 186 1 467 -23 561 -21 82 -82 223 -103 236 -18 11 -25 10 -107 -23z" fill="url(#linear-gradient-4-3)" id="region-4-3" transform="translate(0.000000,609.000000) scale(0.100000,-0.100000)"/><path d="M1833 3299 c-17 -5 -43 -23 -57 -40 -24 -28 -26 -37 -26 -132 0 -133 14 -218 49 -293 41 -88 111 -151 197 -178 20 -6 19 0 -21 321 l-40 328 -35 2 c-19 1 -49 -3 -67 -8z" fill="url(#linear-gradient-4-4)" id="region-4-4" transform="translate(0.000000,609.000000) scale(0.100000,-0.100000)"/><path d="M2085 3275 c3 -16 19 -167 36 -335 17 -168 31 -306 32 -306 1 -1 52 -4 112 -8 l110 -7 -18 338 c-11 186 -20 339 -21 339 0 1 -58 4 -129 6 l-127 4 5 -31z" fill="url(#linear-gradient-4-5)" id="region-4-5" transform="translate(0.000000,609.000000) scale(0.100000,-0.100000)"/><path d="M2486 3208 c3 -51 9 -202 13 -336 5 -133 10 -244 12 -246 2 -2 50 -7 107 -11 l102 -8 0 99 c0 55 -3 210 -7 347 l-6 247 -113 0 -112 0 4 -92z" fill="url(#linear-gradient-4-6)" id="region-4-6" transform="translate(0.000000,609.000000) scale(0.100000,-0.100000)"/><path d="M2854 3244 c3 -33 8 -160 11 -284 3 -124 8 -253 11 -287 l6 -63 154 0 154 0 -5 28 c-3 15 -14 117 -25 227 -29 286 -19 255 -108 319 -42 30 -93 66 -112 80 -19 14 -48 28 -64 32 l-28 7 6 -59z" fill="url(#linear-gradient-4-7)" id="region-4-7" transform="translate(0.000000,609.000000) scale(0.100000,-0.100000)"/><path d="M3010 3283 c0 -5 47 -38 103 -75 l103 -68 92 0 92 0 100 67 c55 36 100 70 100 75 0 4 -133 8 -295 8 -162 0 -295 -3 -295 -7z" fill="url(#linear-gradient-4-8)" id="region-4-8" transform="translate(0.000000,609.000000) scale(0.100000,-0.100000)"/><path d="M3598 3204 c-51 -42 -97 -79 -101 -83 -8 -8 -57 -425 -57 -483 l0 -28 149 0 148 0 7 108 c3 59 9 209 12 335 l7 227 -36 0 c-29 0 -51 -13 -129 -76z" fill="url(#linear-gradient-4-9)" id="region-4-9" transform="translate(0.000000,609.000000) scale(0.100000,-0.100000)"/><path d="M3906 3043 c-3 -131 -8 -282 -11 -335 l-5 -98 109 0 108 0 7 118 c3 64 9 215 12 335 l7 217 -110 0 -111 0 -6 -237z" fill="url(#linear-gradient-4-10)" id="region-4-10" transform="translate(0.000000,609.000000) scale(0.100000,-0.100000)"/><path d="M4276 3193 c-3 -43 -10 -166 -16 -273 -5 -107 -12 -221 -15 -252 l-6 -58 113 0 114 0 32 318 c18 174 33 323 32 330 0 9 -32 12 -124 12 l-124 0 -6 -77z" fill="url(#linear-gradient-4-11)" id="region-4-11" transform="translate(0.000000,609.000000) scale(0.100000,-0.100000)"/><path d="M4680 3261 c0 -3 -18 -145 -39 -316 -21 -170 -37 -312 -36 -313 7 -8 74 20 118 48 86 54 96 81 114 302 9 106 13 206 9 221 -3 15 -16 33 -29 41 -22 14 -137 28 -137 17z" fill="url(#linear-gradient-4-12)" id="region-4-12" transform="translate(0.000000,609.000000) scale(0.100000,-0.100000)"/></g></svg>