<?xml version="1.0" encoding="utf-8"?>
<!-- Generator: Adobe Illustrator 26.5.0, SVG Export Plug-In . SVG Version: 6.00 Build 0)  -->
<svg version="1.1" id="图层_1" xmlns="http://www.w3.org/2000/svg" xmlns:xlink="http://www.w3.org/1999/xlink" x="0px" y="0px"
	 viewBox="0 0 1261.9 454.5" style="enable-background:new 0 0 1261.9 454.5;" xml:space="preserve">
<style type="text/css">
	.st0{fill:none;}
	.st1{fill:#D3D3D3;}
	.st2{clip-path:url(#SVGID_00000026160148843908469380000017914966654733270154_);}
	.st3{fill:url(#SVGID_00000089553967850166017330000013204857965153538434_);}
	.st4{fill:none;stroke:#000000;stroke-width:3;stroke-miterlimit:10;}
	.st5{fill:url(#region-1-1_00000027588805062804409110000003431030392507652280_);}
	.st6{fill:url(#region-1-2_00000151505607518294003090000015735956991324227216_);}
	.st7{fill:url(#region-1-3_00000091728375414086134000000006265204457877471665_);}
	.st8{fill:url(#region-1-4_00000140733956362338408360000001367153674423054002_);}
	.st9{fill:url(#region-1-5_00000129923432997235849340000010410650516064446110_);}
	.st10{fill:url(#region-1-6_00000041253673145470935550000005257531935950936722_);}
	.st11{fill:url(#region-1-7_00000037658868715713743970000010593465531778309764_);}
	.st12{fill:url(#region-1-8_00000109022310400431089610000018422693083862866347_);}
	.st13{fill:url(#region-1-9_00000173871267505157786330000009991201941348804283_);}
	.st14{fill:url(#region-1-10_00000007399114909542716520000002432985847258795915_);}
	.st15{fill:url(#region-1-11_00000044147651194665562810000015909525136137007807_);}
	.st16{fill:url(#region-1-12_00000032624172468402575300000013440796077630875805_);}
	.st17{fill:url(#region-2-1_00000175323901045013317890000002621395895430571424_);}
	.st18{fill:url(#region-2-2_00000013166550949534627980000015510900070375949699_);}
	.st19{fill:url(#region-2-3_00000137115978155449660790000012139084872259350444_);}
	.st20{fill:url(#region-2-4_00000135662233253890744130000003505444842850788492_);}
	.st21{fill:url(#region-2-5_00000111193438506868852510000011734374649130786434_);}
	.st22{fill:url(#region-2-6_00000046312762874774613480000007735608056325630113_);}
	.st23{fill:url(#region-2-7_00000050621739419490463210000006624354135316195509_);}
	.st24{fill:url(#region-2-8_00000032626460851134669230000006648103465647194549_);}
	.st25{fill:url(#region-2-9_00000123408012407131126360000006407499461523279258_);}
	.st26{fill:url(#region-2-10_00000088122150806537974120000003007359207109440428_);}
	.st27{fill:url(#region-2-11_00000098184731215836127110000016274657295339289520_);}
	.st28{fill:url(#region-2-12_00000044174715431528191240000000886464451907913372_);}
	.st29{fill:url(#region-2-13_00000144320996001588751350000013849229013947246522_);}
	.st30{fill:url(#region-2-14_00000170982607169336630050000007255143563750143410_);}
	.st31{fill:url(#region-2-15_00000132775460665581539530000010319678534884327083_);}
	.st32{fill:url(#region-2-16_00000037684387051770476890000014229777376903336333_);}
	.st33{fill:url(#region-2-17_00000183940519664492317510000005821585255441249192_);}
	.st34{fill:url(#region-2-18_00000071557781176515210520000007179001846225488318_);}
	.st35{fill:url(#region-3-1_00000093138692246310927070000007726396345996904094_);}
	.st36{fill:url(#region-3-2_00000142880044098847231030000016405479933242879644_);}
	.st37{fill:url(#region-3-3_00000112616287463495990780000011943965200219192988_);}
	.st38{fill:url(#region-3-4_00000018238403056772181750000001360096502790348473_);}
	.st39{fill:url(#region-3-5_00000084490774670359332700000008776917354365012401_);}
	.st40{fill:url(#region-3-6_00000137095561642854868740000004500190800638844340_);}
	.st41{fill:url(#region-3-7_00000137840459426033218390000007369582084208184992_);}
	.st42{fill:url(#region-3-8_00000160150935836633533150000016206384363602622855_);}
	.st43{fill:url(#region-3-9_00000116215322173851528450000017317946131638201788_);}
	.st44{fill:url(#region-1-7-2_00000011728110403288351800000007696369695993915052_);}
	.st45{fill:url(#region-2-8-2_00000108306579143202622750000016084172261075052674_);}
	.st46{fill:url(#region-3-3-2_00000169554207350259215180000013432921635032884905_);stroke:#000000;stroke-miterlimit:10;}
	.st47{fill:url(#region-4-1-2_00000134937614330304233450000000495034229662052769_);stroke:#000000;stroke-miterlimit:10;}
	.st48{fill:none;stroke:#0000FF;stroke-width:2;stroke-miterlimit:10;}
	.st49{fill:url(#region-2-14_00000090997368035719737370000018337528722365545400_);}
	.st50{fill:url(#region-3-5_00000182505717514600173450000009993274429472732331_);}
	.st51{fill:url(#region-3-6_00000145765678820264754320000012793319298351995324_);}
	.st52{fill:url(#region-3-7_00000054264888191824373670000016460898058812398739_);}
	.st53{fill:url(#region-4-1_00000079453631839897370420000000121034872100035731_);}
	.st54{fill:url(#region-4-2_00000018205286327189843620000005387312335233947558_);}
	.st55{fill:url(#region-4-3_00000178191435479706532240000014025732476765570947_);}
	.st56{fill:url(#region-4-4_00000063603119602418604360000007604399510778093231_);}
</style>
<pattern  y="454.5" width="40" height="40" patternUnits="userSpaceOnUse" id="SVGID_0000006504079990814301047" viewBox="0 -40 40 40" style="overflow:visible;">
	<g>
		<rect y="-40" class="st0" width="40" height="40"/>
		<g>
			<rect y="-40" class="st0" width="40" height="40"/>
			<g>
				<rect y="-40" class="st0" width="40" height="40"/>
				<g>
					<rect y="-40" class="st0" width="40" height="40"/>
					<g>
						<rect y="-40" class="st0" width="40" height="40"/>
						<g>
							<rect y="-40" class="st0" width="40" height="40"/>
							<g>
								<polygon class="st0" points="0,-40 40,-40 40,0 0,0 								"/>
								<polygon class="st1" points="0,-20 20,-20 20,0 0,0 								"/>
								<polygon class="st1" points="20,-40 40,-40 40,-20 20,-20 								"/>
							</g>
						</g>
					</g>
				</g>
			</g>
		</g>
	</g>
</pattern>
<g>
	<g>
		<defs>
			<rect id="SVGID_1_" x="0.2" width="1261.4" height="454.3"/>
		</defs>
		<clipPath id="SVGID_00000057860389537280792500000000783100638116973488_">
			<use xlink:href="#SVGID_1_"  style="overflow:visible;"/>
		</clipPath>
		<g style="clip-path:url(#SVGID_00000057860389537280792500000000783100638116973488_);">
			
				<pattern  id="SVGID_00000157301489057630722800000011418691667488066742_" xlink:href="#SVGID_0000006504079990814301047" patternTransform="matrix(1 0 0 -1 39.44 -17426.1406)">
			</pattern>
			<rect x="0.2" style="fill:url(#SVGID_00000157301489057630722800000011418691667488066742_);" width="1260.6" height="454"/>
		</g>
	</g>
</g>
<g>
	<line class="st4" x1="965.4" y1="304.3" x2="1022.9" y2="304.3"/>
	<path d="M1041,304.3c-8.5,3.2-19.1,8.5-25.6,14.3l5.2-14.3l-5.2-14.3C1021.9,295.7,1032.5,301.1,1041,304.3z"/>
</g>
<g id="layer-1">
	
		<linearGradient id="region-1-1_00000101781569841626241620000008229896117309349277_" gradientUnits="userSpaceOnUse" x1="-1329.2112" y1="773.6904" x2="-1328.2012" y2="773.6804" gradientTransform="matrix(201 0 0 164 267756.75 -126800.2109)">
		<stop  offset="0" style="stop-color:#EA572D;stop-opacity:0.99"/>
		<stop  offset="1" style="stop-color:#CD1C1B"/>
	</linearGradient>
	<path id="region-1-1" style="fill:url(#region-1-1_00000101781569841626241620000008229896117309349277_);" d="M660.6,5.8
		c-22.1,2-40.4,3.9-40.6,4.1c-0.3,0.3-1.7,8.8-3.2,19c-7.7,53.1-17.6,98.7-27.9,128.9c-1.5,4.1-2.6,7.6-2.6,7.8s45.2,0.3,100.5,0.3
		s100.5-0.3,100.5-0.8c0-0.4-0.7-3-1.5-5.7c-6.2-20.3-13.5-69.8-17.5-118.5c-0.7-7.4-1.5-13.8-1.8-14.2c-0.4-0.3-12.1-6.1-26-12.7
		L715.1,1.9L708,2C704,2.1,682.7,3.8,660.6,5.8L660.6,5.8z"/>
	
		<linearGradient id="region-1-2_00000077282382183792301310000008604564595814438314_" gradientUnits="userSpaceOnUse" x1="-1287.2537" y1="777.1719" x2="-1285.7937" y2="778.1119" gradientTransform="matrix(34.98 0 0 98 45833.043 -76143.9531)">
		<stop  offset="0" style="stop-color:#6B47A8;stop-opacity:0.99"/>
		<stop  offset="1" style="stop-color:#6C48A8"/>
	</linearGradient>
	<path id="region-1-2" style="fill:url(#region-1-2_00000077282382183792301310000008604564595814438314_);" d="M807.8,12.8
		c-3,13.1-2.4,14.5,10.9,28.1s12.6,11.1,12.6,42.2v19.8h10V77.1c0-14.1-0.4-27.4-0.9-29.4c-0.5-2.1-2.8-6.6-5.1-10
		c-6.6-9.7-24.1-32.8-25-32.8C810,4.9,808.8,8.5,807.8,12.8z"/>
	
		<linearGradient id="region-1-3_00000103254253685368317560000002651701063510863496_" gradientUnits="userSpaceOnUse" x1="-1282.2195" y1="780.5266" x2="-1282.2195" y2="781.5266" gradientTransform="matrix(32.19 0 0 71.72 42113.8398 -55877.3008)">
		<stop  offset="0" style="stop-color:#937CCE;stop-opacity:0.99"/>
		<stop  offset="1" style="stop-color:#9985D5;stop-opacity:0.99"/>
	</linearGradient>
	<path id="region-1-3" style="fill:url(#region-1-3_00000103254253685368317560000002651701063510863496_);" d="M828.8,104.1
		c-5.2,3.4-5,2.2-5.3,33l-0.4,28.8h3.6c2.3,0,3.6,0.5,3.6,1.3c0,1.2,20.3,7.7,24,7.7c1.1,0,1.2-5.7,0.7-31.5
		c-0.4-17.3-1.1-32.5-1.7-33.9c-0.5-1.4-2.4-3.2-4.1-4.2C845,103.2,831.5,102.4,828.8,104.1L828.8,104.1z"/>
	
		<linearGradient id="region-1-4_00000038403207393425586700000007586840576495387054_" gradientUnits="userSpaceOnUse" x1="-1325.1409" y1="772.1683" x2="-1325.1409" y2="773.1683" gradientTransform="matrix(143.46 0 0 199.61 190991.8906 -153964.5781)">
		<stop  offset="0" style="stop-color:#D01D1B;stop-opacity:0.99"/>
		<stop  offset="1" style="stop-color:#CA191B"/>
	</linearGradient>
	<path id="region-1-4" style="fill:url(#region-1-4_00000038403207393425586700000007586840576495387054_);" d="M830.3,190.1
		c0,45-4.4,96.7-12.7,147.6c-1.4,8.9-2.4,16.5-2.1,16.7c0.2,0.3,8.5,1.2,18.4,2.1c9.8,0.9,35,4,55.9,6.9c20.9,3,38.1,5.3,38.2,5.1
		c0.9-0.8,31.3-107.2,30.9-108.1c-0.2-0.7-2.3-1.5-4.6-1.8c-5.6-0.7-10.3-5.4-13.1-12.6c-3-7.9-2.3-22.5,1.4-29.7
		c2.8-5.4,7.4-10.3,11.3-11.9c2.2-0.9-0.9-1.9-22.9-8l-25.4-7l-2-4c-1-2.2-3.7-5.4-6-7.1c-5.1-3.9-10.9-4.7-32.6-4.3
		c-14,0.2-15.9,0-24.2-2.4c-4.9-1.5-9.3-2.7-9.7-2.7S830.3,178.5,830.3,190.1L830.3,190.1z"/>
	
		<linearGradient id="region-1-5_00000135669905873636436870000004955100572577119121_" gradientUnits="userSpaceOnUse" x1="-1332.0675" y1="772.3726" x2="-1331.0275" y2="773.3026" gradientTransform="matrix(302 0 0 186.62 402843.1875 -143993)">
		<stop  offset="0" style="stop-color:#F95059;stop-opacity:0.99"/>
		<stop  offset="1" style="stop-color:#FA3D1C"/>
	</linearGradient>
	<path id="region-1-5" style="fill:url(#region-1-5_00000135669905873636436870000004955100572577119121_);" d="M528.3,181.9v15.9
		l3.3,0.5c8,1.3,10.2,1,16.4-2.2c10.8-5.6,20-7.5,33.3-7c9.2,0.4,12.8,1,18.2,3.1c17.1,6.6,30.2,18.9,40.3,38
		c4.3,8.1,10.5,25,10.5,28.8c0,1,0.4,1.9,0.9,1.9c1,0,1.9,5.2,2.7,17c0.7,9.9-1,33.4-3.1,43.4c-0.8,3.8-1.3,7.1-1.1,7.4
		c0.3,0.2,11.7,2,25.5,4l25.1,3.5l4.9-5.4c3.1-3.5,7.2-6.5,11.4-8.7c5.7-2.8,7.5-3.2,14.5-3.2c6.4,0,8.2-0.3,9.6-1.8
		c2.6-3,11.8-7.2,17.7-8.1c6.6-1.1,15.7,0.2,21.2,3c9.8,5.1,18.5,17.8,21.3,31.3c0.9,3.9,1.6,7.2,1.7,7.3c0.4,0.3,12.2,2.1,12.4,1.9
		c0.6-0.5,5.5-32.9,7.7-50.6c5.3-41.4,7.6-76.3,7.6-113.3v-22.7h-302L528.3,181.9L528.3,181.9z"/>
	
		<linearGradient id="region-1-6_00000075137149119420937080000006963442930181809083_" gradientUnits="userSpaceOnUse" x1="-1322.1718" y1="774.738" x2="-1321.0518" y2="774.798" gradientTransform="matrix(111.87 0 0 137.41 148453.3438 -106203.7734)">
		<stop  offset="0" style="stop-color:#540648;stop-opacity:0.99"/>
		<stop  offset="1" style="stop-color:#6D2552;stop-opacity:0.99"/>
	</linearGradient>
	<path id="region-1-6" style="fill:url(#region-1-6_00000075137149119420937080000006963442930181809083_);" d="M560.3,191.2
		c-4.1,1.3-10,3.6-13,5.2l-5.5,2.8l11,1.8c6.1,1,15.1,2.9,20.2,4.2c6.9,1.7,9.4,2,9.7,1.1c0.6-1.6,5-0.5,15.3,3.9
		c8.3,3.5,17.4,10,24.7,17.6c7.5,7.7,16.4,24.5,21,39.6c1.6,4.9,3.5,11.2,4.3,13.9c1.3,4.1,1.5,8.8,1.1,26.5
		c-0.6,22.7,0,24.3,2.8,7.2c2.7-16.6,2.2-54.1-0.7-54.1c-0.5,0-0.9-0.9-0.9-1.9c0-3.8-6.2-20.7-10.5-28.8
		c-10.1-19.1-23.2-31.4-40.3-38c-5.6-2.2-8.7-2.7-19.2-3C569.4,188.9,566.8,189.2,560.3,191.2L560.3,191.2z"/>
	
		<linearGradient id="region-1-7_00000104666336406193615440000003997397112083936442_" gradientUnits="userSpaceOnUse" x1="-1329.3414" y1="772.064" x2="-1328.0615" y2="772.744" gradientTransform="matrix(201.88 0 0 212.45 268792.0625 -163786.6094)">
		<stop  offset="0" style="stop-color:#B17FC2"/>
		<stop  offset="1" style="stop-color:#200034"/>
	</linearGradient>
	<path id="region-1-7" style="fill:url(#region-1-7_00000104666336406193615440000003997397112083936442_);" d="M504.3,199.5
		c-7.3,2-19.4,8.1-23.9,12.2c-2,1.8-4.7,4.3-6.1,5.6c-8.8,8.1-19.8,23.3-21.1,29.5c-0.5,2-2.2,7.6-3.9,12.5
		c-1.7,4.8-3.8,12.2-4.6,16.3c-1.6,8.4-1.8,36.7-0.4,44.8c0.5,2.7,1.4,8.2,1.9,12c2.2,15.4,12.8,37.2,24.5,50.5
		c7.4,8.3,22.5,18,28.1,18c1.1,0,4.9,0.9,8.4,2c16.4,5.2,50,9.1,60.4,7c26.1-5,51.1-26,65-54.5c4.5-9.4,9.4-25,11.3-36.4
		c2.4-15,1.5-37.1-2-50c-2.8-10-8.2-21.8-13.7-29.8c-8.6-12.4-22-23.7-32.9-27.5C565.3,201,520.9,195.1,504.3,199.5L504.3,199.5z"/>
	
		<linearGradient id="region-1-8_00000078023255945264885030000004191102669822548869_" gradientUnits="userSpaceOnUse" x1="-1307.6785" y1="784.1514" x2="-1307.1686" y2="785.3114" gradientTransform="matrix(58.97 0 0 55.86 78067.2344 -43605.6914)">
		<stop  offset="0" style="stop-color:#EE3A1E"/>
		<stop  offset="1" style="stop-color:#FF6245"/>
	</linearGradient>
	<path id="region-1-8" style="fill:url(#region-1-8_00000078023255945264885030000004191102669822548869_);" d="M953.3,204.6
		c-2.9,1.1-8.2,6.9-10.7,11.7c-3.7,7.2-4.4,21.8-1.4,29.7c4.1,10.9,11.8,14.7,27.7,13.7c8.9-0.6,14.6-3.2,21.8-10.2
		c6.5-6.3,7.6-9.6,7.6-22.1c-0.1-15.4-3.8-20.5-16.5-22.4C974.1,203.9,956,203.6,953.3,204.6L953.3,204.6z"/>
	
		<linearGradient id="region-1-9_00000088847087703836912810000007362931136542114690_" gradientUnits="userSpaceOnUse" x1="-1309.1226" y1="789.7007" x2="-1309.0825" y2="790.7407" gradientTransform="matrix(62.43 0 0 42.11 82497.9688 -32944.0703)">
		<stop  offset="0" style="stop-color:#621B4E"/>
		<stop  offset="1" style="stop-color:#7B3568"/>
	</linearGradient>
	<path id="region-1-9" style="fill:url(#region-1-9_00000088847087703836912810000007362931136542114690_);" d="M757.9,309
		c-5.3,0.9-14.7,5.2-17.2,8.1c-1.4,1.4-1.4,1.8-0.3,1.9c18,0.8,24.7,1.8,31.2,4.8c8.3,3.8,11.6,6.7,17.5,15.1c2.6,3.6,5,6.6,5.4,6.8
		c0.5,0.2,0.8,1.2,0.8,2.2c0,1.2,1,2,3.2,2.4c1.7,0.3,3.3,0.4,3.5,0.2s-0.3-3.5-1.1-7.3C796,319.7,778.3,305.6,757.9,309z"/>
	
		<linearGradient id="region-1-10_00000018957764524611616890000015141233622108794001_" gradientUnits="userSpaceOnUse" x1="-1320.9498" y1="775.3397" x2="-1320.8798" y2="776.3796" gradientTransform="matrix(106.92 0 0 118.5 141975.0469 -91563.1562)">
		<stop  offset="0" style="stop-color:#712467"/>
		<stop  offset="1" style="stop-color:#3B1456"/>
	</linearGradient>
	<path id="region-1-10" style="fill:url(#region-1-10_00000018957764524611616890000015141233622108794001_);" d="M716.8,322
		c-10.7,5.3-22.8,20.3-26,32.2c-1.4,5.2-1.6,9.5-1.3,24.3c0.4,17,0.6,18.3,3.3,24.9c6.2,15.1,13.7,24.4,22.7,28.4
		c6.7,3,22.3,5.6,33.3,5.6c9,0,10.6-0.3,15.3-2.7c20.1-10.4,32.2-33.4,32.2-61.2c0-17.8-4.9-31.2-15.3-41.3
		c-4.3-4.3-6.6-5.6-13.2-7.8c-11.2-3.6-23.1-5.5-34.9-5.5C723.7,318.9,722.3,319.2,716.8,322z"/>
	
		<linearGradient id="region-1-11_00000178182734403220497160000015935230944331491004_" gradientUnits="userSpaceOnUse" x1="-1319.6261" y1="775.9176" x2="-1319.316" y2="777.0176" gradientTransform="matrix(98.34 0 0 109.68 130661.8516 -84767.8984)">
		<stop  offset="0" style="stop-color:#2C113F"/>
		<stop  offset="1" style="stop-color:#411552"/>
	</linearGradient>
	<path id="region-1-11" style="fill:url(#region-1-11_00000178182734403220497160000015935230944331491004_);" d="M935,345.6
		c-0.2,0.4-1.9,5.9-3.7,12.1c-3.2,11-3.3,11.3-5.9,10.8c-1.4-0.3-14.1-2.1-28.1-4.1c-14-1.9-26.4-3.7-27.5-4
		c-1.7-0.3-2.7,0.7-5.3,5.4c-3.5,6.5-3.9,8.6-1.7,9.5c0.8,0.3,1.5,1.4,1.5,2.5c0,1.4,0.9,2.1,3.3,2.6c6.3,1.3,6.8,1.6,6.5,3.8
		c-0.3,1.9-1,2.2-5.3,2.3c-6.3,0.1-12,2.6-12.9,5.6c-1.1,4.2-0.6,20.2,0.9,27.3c2,9.6,8.5,22.5,13.5,26.8c6.7,5.7,13.8,7.9,27.2,8.5
		c11.3,0.4,12,0.3,17.5-2.3c7.6-3.7,20.6-16.7,26.2-26.2c2.4-4,6.1-12.3,8.3-18.5c3.8-10.7,4-12,4.1-23.8c0.2-9.5-0.2-13.9-1.6-18.5
		c-2-6.5-9.1-18.1-11.6-18.8c-0.9-0.3-2.3-0.8-3.2-1.2C936.2,345.1,935.3,345.1,935,345.6L935,345.6z"/>
	
		<linearGradient id="region-1-12_00000009568426713115220530000017747979205527208376_" gradientUnits="userSpaceOnUse" x1="-1314.895" y1="797.1191" x2="-1314.4349" y2="798.7191" gradientTransform="matrix(77.87 0 0 31.49 103207.8828 -24746.7793)">
		<stop  offset="0" style="stop-color:#4C165C"/>
		<stop  offset="1" style="stop-color:#3B144C"/>
	</linearGradient>
	<path id="region-1-12" style="fill:url(#region-1-12_00000009568426713115220530000017747979205527208376_);" d="M848.4,364.9
		l-1.3,7.2l-3.6-0.7c-2.9-0.5-3.9-0.3-5.2,1.5c-1.5,2-1.7,2.1-15,0.6c-7.4-0.8-16.5-1.7-20.2-2.1l-6.8-0.6v8.8l17.8,0.6
		c21.1,0.8,22.2,1,22.2,4.6c0,2.7,0,2.8,10.3,3.8c8.7,0.9,10.7,0.8,13.7-0.5c1.9-0.9,5.8-1.6,8.5-1.6c4.3-0.1,5-0.4,5.3-2.3
		c0.3-2.2-0.2-2.5-6.5-3.8c-2.3-0.5-3.3-1.2-3.3-2.5c0-2.1-2.8-4-5.9-4c-2.5,0-2.5-0.6-0.7-8.5c0.8-3.3,1.3-6.1,1.2-6.2
		c-0.1-0.2-2.3-0.6-4.7-0.9l-4.5-0.6L848.4,364.9z"/>
</g>
<linearGradient id="region-2-1_00000106135889295497978480000014480345152425800350_" gradientUnits="userSpaceOnUse" x1="-1321.0483" y1="773.3672" x2="-1321.0483" y2="774.3672" gradientTransform="matrix(107.8 0 0 159 143059.4062 -122958.8438)">
	<stop  offset="0" style="stop-color:#BFC2FF;stop-opacity:0.83"/>
	<stop  offset="1" style="stop-color:#F2FFFF;stop-opacity:0.86"/>
</linearGradient>
<path id="region-2-1" style="fill:url(#region-2-1_00000106135889295497978480000014480345152425800350_);" d="M662.4,10.5
	c-20.5,2.3-37.5,4.5-37.8,4.7c-0.2,0.3-1.3,8-2.3,17.1c-4.7,41-13.2,86.5-22.9,121.8l-2.9,10.8h107.8V5.9L702.1,6
	C700.8,6.1,683,8.1,662.4,10.5z"/>
<linearGradient id="region-2-2_00000003790959542644547480000014223968423617908151_" gradientUnits="userSpaceOnUse" x1="-1311.731" y1="773.4728" x2="-1311.731" y2="774.4728" gradientTransform="matrix(68.95 0 0 156 91193.875 -120652.4219)">
	<stop  offset="0" style="stop-color:#6482FF;stop-opacity:0.64"/>
	<stop  offset="1" style="stop-color:#6E90FF;stop-opacity:0.65"/>
</linearGradient>
<path id="region-2-2" style="fill:url(#region-2-2_00000003790959542644547480000014223968423617908151_);" d="M715.8,42.6
	c-1.1,45.9,1.6,110.5,5.1,121.5c0.5,1.7,2.9,1.8,32.1,1.8h31.5l-0.6-2.3c-0.4-1.2-2.9-13.2-5.6-26.7c-5.4-27.2-9.8-55.2-13.4-85.9
	c-1.4-11.2-2.8-20.7-3.3-21.2c-0.7-0.7-43.9-19.9-44.7-19.9C716.7,9.9,716.2,24.6,715.8,42.6z"/>
<linearGradient id="region-2-3_00000162345700438091067370000005944423745617197742_" gradientUnits="userSpaceOnUse" x1="-1332.271" y1="955.5352" x2="-1331.271" y2="955.0751" gradientTransform="matrix(302 0 0 5 402843.1875 -4607.8896)">
	<stop  offset="0" style="stop-color:#F5805F;stop-opacity:0.82"/>
	<stop  offset="1" style="stop-color:#FEFFE5;stop-opacity:0.68"/>
</linearGradient>
<path id="region-2-3" style="fill:url(#region-2-3_00000162345700438091067370000005944423745617197742_);" d="M528.3,168.4v2.5h302
	v-5h-302V168.4z"/>
<linearGradient id="region-2-4_00000024696309749220738130000006840238097376560829_" gradientUnits="userSpaceOnUse" x1="-1307.3311" y1="773.5869" x2="-1305.931" y2="774.5369" gradientTransform="matrix(57.79 0 0 155.74 76200.0078 -120288.1406)">
	<stop  offset="0" style="stop-color:#8F1783;stop-opacity:0.44"/>
	<stop  offset="1" style="stop-color:#3F002A;stop-opacity:0.8"/>
</linearGradient>
<path id="region-2-4" style="fill:url(#region-2-4_00000024696309749220738130000006840238097376560829_);" d="M707.3,175.6
	c-0.1,6.5-10.6,149.3-11.1,149.7c-0.2,0.2-10.2-1.2-22.2-3.1c-19.4-3.1-24.2-3.5-22.6-1.8c0.8,0.8,46,7.8,46.6,7.2
	c0.3-0.3,2.7-32.4,5.3-71.4c2.7-38.9,5.1-73.8,5.4-77.6c0.4-4.2,0.2-6.7-0.4-6.7C707.8,171.9,707.3,173.6,707.3,175.6L707.3,175.6z"
	/>
<linearGradient id="region-2-5_00000066493311653598057960000000240616405825188496_" gradientUnits="userSpaceOnUse" x1="-1312.365" y1="781.6985" x2="-1312.365" y2="782.6985" gradientTransform="matrix(70.69 0 0 65.81 93642.9141 -51269.1602)">
	<stop  offset="0" style="stop-color:#FF6A4A;stop-opacity:0.82"/>
	<stop  offset="1" style="stop-color:#FF4524;stop-opacity:0.75"/>
</linearGradient>
<path id="region-2-5" style="fill:url(#region-2-5_00000066493311653598057960000000240616405825188496_);" d="M852.8,176.4
	c-9.8,5.9-15.3,16.1-16.2,30.1c-1.1,16.7,6,29.9,17.5,32.3c11,2.3,24.7,1,32.2-3.1c8.3-4.5,17.3-14.8,19.6-22.5
	c2.8-9.4,0.8-24.4-4.1-30.9c-1.4-1.8-4.1-4.2-6.2-5.5c-3.4-2.1-4.9-2.3-21.2-2.6C857.3,174,856.7,174,852.8,176.4L852.8,176.4z"/>
<linearGradient id="region-2-6_00000114067687701485603720000011482341314356899981_" gradientUnits="userSpaceOnUse" x1="-1282.5337" y1="861.8842" x2="-1281.4937" y2="861.4241" gradientTransform="matrix(32 0 0 10 41698.9805 -8424.2598)">
	<stop  offset="0" style="stop-color:#A71F84;stop-opacity:0.77"/>
	<stop  offset="1" style="stop-color:#971581;stop-opacity:0.83"/>
</linearGradient>
<path id="region-2-6" style="fill:url(#region-2-6_00000114067687701485603720000011482341314356899981_);" d="M661.3,191.9v5h32
	v-10h-32V191.9z"/>
<linearGradient id="region-2-7_00000075164308245277693110000018286530877569053092_" gradientUnits="userSpaceOnUse" x1="-1294.4215" y1="1079.5137" x2="-1293.4515" y2="1081.5938" gradientTransform="matrix(41 0 0 3 53830.5508 -3040.95)">
	<stop  offset="0" style="stop-color:#5D021A;stop-opacity:0.2"/>
	<stop  offset="1" style="stop-color:#4D001D;stop-opacity:0.27"/>
</linearGradient>
<path id="region-2-7" style="fill:url(#region-2-7_00000075164308245277693110000018286530877569053092_);" d="M750.3,199.4
	c0,1.3,2.9,1.5,20.5,1.5s20.5-0.2,20.5-1.5s-2.9-1.5-20.5-1.5S750.3,198.1,750.3,199.4z"/>
<linearGradient id="region-2-8_00000162338811362783621760000017023798755215300784_" gradientUnits="userSpaceOnUse" x1="-1325.1001" y1="772.023" x2="-1324.6901" y2="773.103" gradientTransform="matrix(140.41 0 0 200.99 186538.8594 -154994.7344)">
	<stop  offset="0" style="stop-color:#7B466A;stop-opacity:0.8"/>
	<stop  offset="1" style="stop-color:#6A1688;stop-opacity:0.8"/>
</linearGradient>
<path id="region-2-8" style="fill:url(#region-2-8_00000162338811362783621760000017023798755215300784_);" d="M505.6,200.4
	c-11.7,3.2-22.5,10-33,20.6c-12.8,13.1-21.1,28-26.5,47.9c-2.1,7.7-2.3,10.6-2.3,30.5c0.1,24.4,1,30,8.2,48.9c1.9,5,3.7,9.9,4,10.8
	c0.3,1,0.9,1.8,1.4,1.8s0.9,0.5,0.9,1c0,0.6,2.3,4.6,5.2,8.8c7.4,11.1,17.9,21.1,26.8,25.5c6.7,3.4,7.9,3.7,16,3.7
	c11.4,0,19.7-2.5,29.3-9c33.1-22.1,54.2-76.6,47.3-121.7c-5-33.1-23.2-59.7-46.4-67.9C528.6,198.5,514.2,198.1,505.6,200.4
	L505.6,200.4z"/>
<linearGradient id="region-2-9_00000090263745215897404570000009842878962937734583_" gradientUnits="userSpaceOnUse" x1="-1294.1898" y1="1079.5759" x2="-1293.7499" y2="1084.376" gradientTransform="matrix(41 0 0 3 53830.5508 -3031.95)">
	<stop  offset="0" style="stop-color:#420031;stop-opacity:0.23"/>
	<stop  offset="1" style="stop-color:#3A0034;stop-opacity:0.29"/>
</linearGradient>
<path id="region-2-9" style="fill:url(#region-2-9_00000090263745215897404570000009842878962937734583_);" d="M750.3,208.4
	c0,1.3,2.9,1.5,20.5,1.5s20.5-0.2,20.5-1.5s-2.9-1.5-20.5-1.5S750.3,207.1,750.3,208.4z"/>
<linearGradient id="region-2-10_00000076586328404788425840000017469852251491384192_" gradientUnits="userSpaceOnUse" x1="-1258.1381" y1="786.4727" x2="-1257.6681" y2="787.5026" gradientTransform="matrix(22.33 0 0 49.07 29071.75 -38389.6602)">
	<stop  offset="0" style="stop-color:#AE0F17;stop-opacity:0.73"/>
	<stop  offset="1" style="stop-color:#B20C11;stop-opacity:0.8"/>
</linearGradient>
<path id="region-2-10" style="fill:url(#region-2-10_00000076586328404788425840000017469852251491384192_);" d="M980.4,209.2
	c-4.2,0.8-4.3,0.9-2.1,2c1.3,0.7,3.5,3.4,4.9,6.2c2.3,4.3,2.6,6.2,2.6,14.5s-0.4,10.2-2.5,14.3c-1.3,2.7-4.1,6.4-6.2,8.3
	c-4.2,3.7-3.7,4.2,2,1.9c4.6-1.9,13.6-11.2,15.8-16.3c2.5-5.7,2.3-18.6-0.4-23.8C991.1,209.6,987.4,207.7,980.4,209.2L980.4,209.2z"
	/>
<linearGradient id="region-2-11_00000077307915272452807600000011489542356610829218_" gradientUnits="userSpaceOnUse" x1="-1280.3821" y1="787.0249" x2="-1279.4921" y2="788.0449" gradientTransform="matrix(30.88 0 0 47.85 40494.0703 -37448.9492)">
	<stop  offset="0" style="stop-color:#FFE989;stop-opacity:0.61"/>
	<stop  offset="1" style="stop-color:#FFFFA8;stop-opacity:0.74"/>
</linearGradient>
<path id="region-2-11" style="fill:url(#region-2-11_00000077307915272452807600000011489542356610829218_);" d="M972.3,212.4
	c-6.5,3.6-15.5,18.7-16.6,27.9c-1.5,12.6,1.5,17.6,11,18.4c4.8,0.4,5.4,0.1,9.6-3.6c6.4-5.6,9.3-11.9,9.8-21.3
	c0.5-8.4-0.6-13.3-4.4-19.2C979.1,210.6,976.6,210,972.3,212.4L972.3,212.4z"/>
<linearGradient id="region-2-12_00000035503489727126618100000002811656355511874946_" gradientUnits="userSpaceOnUse" x1="-1294.7258" y1="1080.2443" x2="-1293.7158" y2="1080.0242" gradientTransform="matrix(41 0 0 3 53830.5508 -3021.95)">
	<stop  offset="0" style="stop-color:#6F0524;stop-opacity:0.37"/>
	<stop  offset="1" style="stop-color:#5C002E;stop-opacity:0.45"/>
</linearGradient>
<path id="region-2-12" style="fill:url(#region-2-12_00000035503489727126618100000002811656355511874946_);" d="M750.3,218.4
	c0,1.3,2.9,1.5,20.5,1.5s20.5-0.2,20.5-1.5s-2.9-1.5-20.5-1.5S750.3,217.1,750.3,218.4z"/>
<linearGradient id="region-2-13_00000137820573140963362220000008909172208668647096_" gradientUnits="userSpaceOnUse" x1="-1307.7853" y1="783.5684" x2="-1307.0553" y2="784.6784" gradientTransform="matrix(58.92 0 0 58.04 77644.0781 -45229.1406)">
	<stop  offset="0" style="stop-color:#2F0046;stop-opacity:0.77"/>
	<stop  offset="1" style="stop-color:#501A65;stop-opacity:0.78"/>
</linearGradient>
<path id="region-2-13" style="fill:url(#region-2-13_00000137820573140963362220000008909172208668647096_);" d="M603.5,260.9
	l-18.2,11.9v11c0,6.3,0.4,11.2,1,11.6c0.6,0.3,9.6-4,20.1-9.6c10.4-5.6,19.1-10,19.3-9.8s4.1,7.7,8.7,16.7
	c9.4,18.3,9.7,18.4,9.8,3.5c0.1-9,0-9.4-4.2-17.5c-8.5-16.4-16.2-29.8-17.2-29.8C622.2,248.9,613.6,254.3,603.5,260.9L603.5,260.9z"
	/>
<linearGradient id="region-2-14_00000078029613211150275810000011222207671405057175_" gradientUnits="userSpaceOnUse" x1="-1321.4292" y1="778.4207" x2="-1321.4292" y2="779.4207" gradientTransform="matrix(110.18 0 0 85.53 146488.75 -66317.7812)">
	<stop  offset="0" style="stop-color:#3B0036;stop-opacity:0.75"/>
	<stop  offset="1" style="stop-color:#451367;stop-opacity:0.81"/>
</linearGradient>
<path id="region-2-14" style="fill:url(#region-2-14_00000078029613211150275810000011222207671405057175_);" d="M855.4,260.1
	c-1.5,4.6-17.2,70.1-16.8,70.4c0.1,0.1,21.1,3.1,46.5,6.5c35.5,4.9,46.5,6.1,47.1,5.1c0.4-0.6,3.8-13.9,7.5-29.4
	c3.7-15.6,7.4-30.1,8.2-32.2s1.1-4.3,0.7-4.7c-1.1-1.1-16.9-5.2-34.3-8.9c-14.1-3-53.6-10-56.4-10
	C857.1,256.9,856,258.4,855.4,260.1L855.4,260.1z"/>
<linearGradient id="region-2-15_00000035527713014622434630000008499769523297842305_" gradientUnits="userSpaceOnUse" x1="-1315.2073" y1="775.7131" x2="-1315.1073" y2="776.743" gradientTransform="matrix(79.42 0 0 113.08 105178.7812 -87404.5703)">
	<stop  offset="0" style="stop-color:#875D76;stop-opacity:0.6"/>
	<stop  offset="1" style="stop-color:#8A25A7;stop-opacity:0.54"/>
</linearGradient>
<path id="region-2-15" style="fill:url(#region-2-15_00000035527713014622434630000008499769523297842305_);" d="M717.8,323
	c-6.5,3.2-14.6,11.1-20,19.3c-5.6,8.4-7.8,16.4-8.3,30.2c-0.6,17.6,2.3,29,11,43.1c13,20.8,31.6,23.1,48.2,6
	c7.5-7.8,12-15.2,15.7-25.9c8.5-25.1,4.6-51.8-9.9-66.5c-7-7.2-12-9.3-22.3-9.3C724.9,319.9,723,320.3,717.8,323L717.8,323z"/>
<linearGradient id="region-2-16_00000081639858592593620060000008200990551135194763_" gradientUnits="userSpaceOnUse" x1="-1314.663" y1="786.5567" x2="-1314.033" y2="787.8467" gradientTransform="matrix(76.55 0 0 48.9 101203.8672 -38135.9883)">
	<stop  offset="0" style="stop-color:#210338;stop-opacity:0.77"/>
	<stop  offset="1" style="stop-color:#421A58;stop-opacity:0.81"/>
</linearGradient>
<path id="region-2-16" style="fill:url(#region-2-16_00000081639858592593620060000008200990551135194763_);" d="M597.3,338.6
	l-24.5,8.7l-4.5,8c-2.5,4.4-7.1,11.5-10.2,15.8l-5.7,7.7l4.6-2c8.9-3.8,53.8-21.8,55.2-22.1c0.8-0.2,2.2,2.1,3.7,6.2
	c1.4,3.6,2.9,7.6,3.4,8.9l1.1,2.3l2.7-3.5c1.5-1.9,3.6-5.3,4.6-7.5c1.8-4,1.8-4.2-0.9-15.9c-3.3-14.7-3.5-15.3-4.3-15.3
	C622.1,330,610.8,333.9,597.3,338.6L597.3,338.6z"/>
<linearGradient id="region-2-17_00000160179854740134335800000012199389056734911650_" gradientUnits="userSpaceOnUse" x1="-1266.687" y1="793.7711" x2="-1266.167" y2="794.8511" gradientTransform="matrix(25 0 0 35.5 32441.5293 -27835.8398)">
	<stop  offset="0" style="stop-color:#34094F;stop-opacity:0.79"/>
	<stop  offset="1" style="stop-color:#48145F;stop-opacity:0.81"/>
</linearGradient>
<path id="region-2-17" style="fill:url(#region-2-17_00000160179854740134335800000012199389056734911650_);" d="M777.6,351.2
	l-7.2,5.2l-0.1,7.2c0,4,0.3,7.3,0.6,7.3c0.4,0,4-2,8.1-4.5c7.3-4.5,7.4-4.5,8.2-2.2c0.5,1.2,2.5,5.6,4.5,9.7l3.5,7.5l0.1-8.2
	c0-7.9-0.2-8.7-4.7-17.8c-2.6-5.2-5-9.5-5.3-9.5C785,346,781.5,348.3,777.6,351.2z"/>
<linearGradient id="region-2-18_00000052823602280083268720000001813580344766913935_" gradientUnits="userSpaceOnUse" x1="-1281.4453" y1="804.9606" x2="-1280.9254" y2="806.1807" gradientTransform="matrix(31.6 0 0 24.9 41254.6602 -19656)">
	<stop  offset="0" style="stop-color:#2B0A42;stop-opacity:0.79"/>
	<stop  offset="1" style="stop-color:#330F4A;stop-opacity:0.81"/>
</linearGradient>
<path id="region-2-18" style="fill:url(#region-2-18_00000052823602280083268720000001813580344766913935_);" d="M774.5,395.6
	c-9.2,3.6-9.4,3.7-12.2,9.2c-1.6,3.1-3.9,7.1-5.1,8.8c-1.1,1.8-1.9,3.3-1.6,3.3c0.2,0,5.2-2.3,11.1-5c5.9-2.8,11.3-5,12-5
	s1.9,2.1,2.7,4.7l1.5,4.7l2.3-4c2-3.3,2.2-4.8,1.7-9.7c-0.7-6.9-1.6-10.7-2.5-10.6C784.1,392,779.6,393.6,774.5,395.6z"/>
<linearGradient id="region-3-1_00000098904679205175583720000015227822177999907489_" gradientUnits="userSpaceOnUse" x1="-1275.5619" y1="783.3115" x2="-1274.8419" y2="784.3416" gradientTransform="matrix(28.5 0 0 59.04 37230.25 -46069.3203)">
	<stop  offset="0" style="stop-color:#B0080F;stop-opacity:0.74"/>
	<stop  offset="1" style="stop-color:#B5171B;stop-opacity:0.8"/>
</linearGradient>
<path id="region-3-1" style="fill:url(#region-3-1_00000098904679205175583720000015227822177999907489_);" d="M884.4,180l-3.3,1
	l3.6,3.7c6.9,6.9,9.3,21.5,5.7,34.2c-1.7,5.7-7.3,14.2-11.1,16.8l-3.5,2.4l3-0.8c5.4-1.3,10.8-4.5,16-9.8c6.8-6.8,9.5-13.8,9.5-24.5
	c0-12.3-3.5-19.6-10.7-22.7C889.9,178.7,889.1,178.7,884.4,180L884.4,180z"/>
<linearGradient id="region-3-2_00000121270545451961727190000010884882753181280134_" gradientUnits="userSpaceOnUse" x1="-1289.5459" y1="784.6567" x2="-1287.9958" y2="784.0867" gradientTransform="matrix(36.63 0 0 57 48088.0703 -44500.5312)">
	<stop  offset="0" style="stop-color:#F3D07B;stop-opacity:0.69"/>
	<stop  offset="1" style="stop-color:#FFF19B;stop-opacity:0.82"/>
</linearGradient>
<path id="region-3-2" style="fill:url(#region-3-2_00000121270545451961727190000010884882753181280134_);" d="M874.1,186.4
	c-3.2,2.5-5.8,4.9-5.8,5.3s-1.5,2.3-3.3,4.3c-9.4,10.3-12.6,29.5-6.4,38.8l2.7,4.1h6.8c5.7-0.1,7.3-0.5,10.7-2.8
	c10.7-7.4,16.1-26.2,11.7-40.8c-2-6.7-6.8-13.4-9.6-13.4C880.3,181.9,877.2,183.9,874.1,186.4L874.1,186.4z"/>
<linearGradient id="region-3-3_00000042705471636879466400000006692202612478146723_" gradientUnits="userSpaceOnUse" x1="-1308.927" y1="783.6373" x2="-1308.927" y2="784.6374" gradientTransform="matrix(62.19 0 0 57.94 81900.7812 -45205.4102)">
	<stop  offset="0" style="stop-color:#D69CDE;stop-opacity:0.23"/>
	<stop  offset="1" style="stop-color:#E49CFC;stop-opacity:0.27"/>
</linearGradient>
<path id="region-3-3" style="fill:url(#region-3-3_00000042705471636879466400000006692202612478146723_);" d="M504.5,203.8
	c-15.4,4.5-30.6,15.1-35.3,24.7c-4.1,8.7-0.7,18,10.1,27.4c6.7,5.8,6.3,5.8,10.6-1c0.9-1.4,3.2-3.7,5.2-5c2.1-1.3,4.8-3.4,6.2-4.6
	c3.7-3.2,11.5-5.5,19.6-5.7l7.2-0.2l0.8-6c1.3-9.9,1-24.6-0.7-28c-1.4-2.9-1.6-3-9.4-3.2C513.5,202.1,508.7,202.6,504.5,203.8z"/>
<linearGradient id="region-3-4_00000137108383286940884920000013903918589471407288_" gradientUnits="userSpaceOnUse" x1="-1315.5173" y1="775.6788" x2="-1314.7974" y2="776.7389" gradientTransform="matrix(79.36 0 0 113.09 104886.8359 -87489.1562)">
	<stop  offset="0" style="stop-color:#8882DA;stop-opacity:0.73"/>
	<stop  offset="1" style="stop-color:#D1CCFF;stop-opacity:0.84"/>
</linearGradient>
<path id="region-3-4" style="fill:url(#region-3-4_00000137108383286940884920000013903918589471407288_);" d="M514.9,240
	c-6.3,1-10.5,2.7-13.6,5.4c-1.4,1.1-4.1,3.1-6,4.4c-3.9,2.6-10.9,12.1-13.9,19.2c-10.1,23-4.3,56,13,73.9c6.3,6.5,12,9.3,19.1,9.3
	c16,0,32.3-16.7,40-41.3c2-6.5,2.3-9.5,2.3-22.5c-0.1-14.7-0.1-15.1-3.2-21.7c-5.8-12.4-14.3-22-22.5-25.7
	C525.2,238.8,522.8,238.6,514.9,240L514.9,240z"/>
<linearGradient id="region-3-5_00000144331902415540288450000013621239020935877026_" gradientUnits="userSpaceOnUse" x1="-1318.3995" y1="804.3735" x2="-1318.3995" y2="805.3734" gradientTransform="matrix(92.9 0 0 25.38 123378.3672 -20146.5996)">
	<stop  offset="0" style="stop-color:#623E7C;stop-opacity:0.79"/>
	<stop  offset="1" style="stop-color:#633D7A;stop-opacity:0.8"/>
</linearGradient>
<path id="region-3-5" style="fill:url(#region-3-5_00000144331902415540288450000013621239020935877026_);" d="M853.6,270.3l-1,4.3
	l17.6,0.6c26.6,0.8,46.9,5,65,13.3c4.1,1.9,7.8,3.1,8.2,2.7c0.5-0.5,1.1-2.6,1.5-4.9l0.6-4.1l-3.8-0.6c-2.2-0.3-22.2-3.9-44.6-8.1
	c-22.3-4.2-41-7.6-41.5-7.6S854.2,267.9,853.6,270.3L853.6,270.3z"/>
<linearGradient id="region-3-6_00000167365862133557182980000003482567019265699718_" gradientUnits="userSpaceOnUse" x1="-1318.1631" y1="806.4883" x2="-1318.153" y2="807.5183" gradientTransform="matrix(91.68 0 0 24 121744.1875 -19072.8906)">
	<stop  offset="0" style="stop-color:#623D7B;stop-opacity:0.79"/>
	<stop  offset="1" style="stop-color:#633C78;stop-opacity:0.8"/>
</linearGradient>
<path id="region-3-6" style="fill:url(#region-3-6_00000167365862133557182980000003482567019265699718_);" d="M850.3,284.1
	c0,0.7-0.3,2.2-0.6,3.4c-0.5,2-0.1,2.1,13.3,2.7c15.7,0.8,30.7,2.8,43.2,5.7c9.4,2.3,24.8,7.3,29.2,9.6c1.6,0.8,3.2,1.4,3.7,1.4
	c0.9,0,2.7-6.8,2-7.5c-0.3-0.4-88.2-16.5-89.8-16.5C850.8,282.9,850.3,283.5,850.3,284.1L850.3,284.1z"/>
<linearGradient id="region-3-7_00000023279992608432009040000010361422693019279251_" gradientUnits="userSpaceOnUse" x1="-1318.1982" y1="805.4927" x2="-1318.1982" y2="806.5127" gradientTransform="matrix(91.89 0 0 24.63 122020.4844 -19538.5195)">
	<stop  offset="0" style="stop-color:#623D79;stop-opacity:0.79"/>
	<stop  offset="1" style="stop-color:#633B76;stop-opacity:0.8"/>
</linearGradient>
<path id="region-3-7" style="fill:url(#region-3-7_00000023279992608432009040000010361422693019279251_);" d="M847,298.6
	c-0.2,0.5-0.7,2-1.1,3.5l-0.6,2.8h6.4c14.3,0,39.1,3.4,55.6,7.7c7.6,1.9,19.7,6.3,27.6,9.9c1.2,0.5,3-6.3,2-7.3
	c-0.3-0.3-86.9-17.1-89.3-17.3C847.5,297.9,847.2,298.2,847,298.6L847,298.6z"/>
<linearGradient id="region-3-8_00000023961543739745705750000013281633752663623098_" gradientUnits="userSpaceOnUse" x1="-1286.8599" y1="796.0335" x2="-1286.8599" y2="797.0336" gradientTransform="matrix(35.07 0 0 32.79 45850.9414 -25783.6406)">
	<stop  offset="0" style="stop-color:#9D659A;stop-opacity:0.72"/>
	<stop  offset="1" style="stop-color:#9B5EAD;stop-opacity:0.79"/>
</linearGradient>
<path id="region-3-8" style="fill:url(#region-3-8_00000023961543739745705750000013281633752663623098_);" d="M721.5,322.9
	c-6.9,2.5-11.4,5.3-15.1,9.6c-5.2,5.9-3.9,13.8,3.1,19.3c3.4,2.7,3.9,2.6,6.9-0.5c5.1-5.5,10.9-8.4,16.6-8.4h5.3v-9.1
	c0-5-0.5-9.9-1-11C735.9,320.3,728.7,320.3,721.5,322.9z"/>
<linearGradient id="region-3-9_00000111168172007193893770000000292239629061517966_" gradientUnits="userSpaceOnUse" x1="-1298.2477" y1="782.2615" x2="-1297.7377" y2="783.3416" gradientTransform="matrix(44.9 0 0 63 59010.3594 -48944.3711)">
	<stop  offset="0" style="stop-color:#908ADB;stop-opacity:0.7"/>
	<stop  offset="1" style="stop-color:#B8B2FF;stop-opacity:0.86"/>
</linearGradient>
<path id="region-3-9" style="fill:url(#region-3-9_00000111168172007193893770000000292239629061517966_);" d="M723.5,345.6
	c-11.9,8.1-15.2,14.2-15.2,28.3c0,9.2,1.9,16.2,6.3,22.6c4.3,6.5,8.8,9.4,14.4,9.4c5.6,0,8.9-1.7,13.6-6.9
	c7.5-8.3,11.3-19.6,10.5-31.5c-0.6-8.9-3-13.8-9.9-20c-4.7-4.2-5.5-4.6-10.4-4.6C728.8,342.9,726.7,343.5,723.5,345.6z"/>
<linearGradient id="region-1-7-2_00000077298336344625405560000003546382232430872470_" gradientUnits="userSpaceOnUse" x1="-1330.6675" y1="772.2131" x2="-1329.3774" y2="772.8931" gradientTransform="matrix(201.88 0 0 212.45 268792.0625 -163786.6094)">
	<stop  offset="0" style="stop-color:#B17FC2"/>
	<stop  offset="1" style="stop-color:#200034"/>
</linearGradient>
<path id="region-1-7-2" style="fill:url(#region-1-7-2_00000077298336344625405560000003546382232430872470_);" d="M237.6,231.2
	c-7.3,2-19.4,8.1-23.9,12.2c-2,1.8-4.7,4.3-6.1,5.6c-8.8,8.1-19.8,23.3-21.1,29.5c-0.5,2-2.2,7.6-3.9,12.5
	c-1.7,4.8-3.8,12.2-4.6,16.3c-1.6,8.4-1.8,36.7-0.4,44.8c0.5,2.7,1.4,8.2,1.9,12c2.2,15.4,12.8,37.2,24.5,50.5
	c7.4,8.3,22.5,18,28.1,18c1.1,0,4.9,0.9,8.4,2c16.4,5.2,50,9.1,60.4,7c26.1-5,51.1-26,65-54.5c4.5-9.4,9.4-25,11.3-36.4
	c2.4-15,1.5-37.1-2-50c-2.8-10-8.2-21.8-13.7-29.8c-8.6-12.4-22-23.7-32.9-27.5C298.6,232.7,254.2,226.8,237.6,231.2L237.6,231.2z"
	/>
<linearGradient id="region-2-8-2_00000006671628387952093340000016826538986322556818_" gradientUnits="userSpaceOnUse" x1="-1328.0698" y1="772.225" x2="-1327.6598" y2="773.295" gradientTransform="matrix(140.41 0 0 200.99 186538.8594 -154994.7344)">
	<stop  offset="0" style="stop-color:#7B466A;stop-opacity:0.8"/>
	<stop  offset="1" style="stop-color:#6A1688;stop-opacity:0.8"/>
</linearGradient>
<path id="region-2-8-2" style="fill:url(#region-2-8-2_00000006671628387952093340000016826538986322556818_);" d="M88.6,239.8
	c-11.7,3.2-22.5,10-33,20.6c-12.8,13.1-21.1,28-26.5,47.9c-2.1,7.7-2.3,10.6-2.3,30.5c0.1,24.4,1,30,8.2,48.9c1.9,5,3.7,9.9,4,10.8
	c0.3,1,0.9,1.8,1.4,1.8s0.9,0.5,0.9,1c0,0.6,2.3,4.6,5.2,8.8c7.4,11.1,17.9,21.1,26.8,25.5c6.7,3.4,7.9,3.7,16,3.7
	c11.4,0,19.7-2.5,29.3-9c33.1-22.1,54.2-76.6,47.3-121.7c-5-33.1-23.2-59.7-46.4-67.9C111.6,237.9,97.2,237.5,88.6,239.8L88.6,239.8
	z"/>
<linearGradient id="region-3-3-2_00000020363286721842107170000004753903992908610473_" gradientUnits="userSpaceOnUse" x1="-1316.1356" y1="783.5159" x2="-1316.1356" y2="784.516" gradientTransform="matrix(62.19 0 0 57.94 81900.7812 -45205.4102)">
	<stop  offset="0" style="stop-color:#D69CDE;stop-opacity:0.23"/>
	<stop  offset="1" style="stop-color:#E49CFC;stop-opacity:0.27"/>
</linearGradient>
<path id="region-3-3-2" style="fill:url(#region-3-3-2_00000020363286721842107170000004753903992908610473_);stroke:#000000;stroke-miterlimit:10;" d="
	M56.2,196.9c-15.4,4.5-30.6,15.1-35.3,24.7c-4.1,8.7-0.7,18,10.1,27.4c6.7,5.8,6.3,5.8,10.6-1c0.9-1.4,3.2-3.7,5.2-5
	c2.1-1.3,4.8-3.4,6.2-4.6c3.7-3.2,11.5-5.5,19.6-5.7l7.2-0.2l0.8-6c1.3-9.9,1-24.6-0.7-28c-1.4-2.9-1.6-3-9.4-3.2
	C65.2,195.2,60.4,195.7,56.2,196.9L56.2,196.9z"/>
<linearGradient id="region-4-1-2_00000072996936963701916020000009338548515402125993_" gradientUnits="userSpaceOnUse" x1="-1318.1307" y1="793.171" x2="-1318.1307" y2="794.171" gradientTransform="matrix(71.68 0 0 35.05 94616.4766 -27607.4707)">
	<stop  offset="0" style="stop-color:#1F003C;stop-opacity:0.44"/>
	<stop  offset="1" style="stop-color:#340F51;stop-opacity:0.36"/>
</linearGradient>
<path id="region-4-1-2" style="fill:url(#region-4-1-2_00000072996936963701916020000009338548515402125993_);stroke:#000000;stroke-miterlimit:10;" d="
	M124.1,197.8c-7.1,2.8-15.6,9.5-22.8,17.7c-4,4.6-4.8,6.2-4,7.4c1.8,2.8,2.8,2.4,5.9-2.1c1.6-2.4,4.6-5.4,6.5-6.7s4.6-3.3,6-4.5
	c6.1-5.4,24.5-7.9,31.7-4.4c6.2,3,14.3,12.4,19,22c3.4,6.7,2.9,1.7-0.6-6.8c-5.4-13.4-10.4-19.8-18.7-23.7
	C142.2,194.4,131.4,194.9,124.1,197.8L124.1,197.8z"/>
<rect x="437.7" y="185.6" class="st48" width="107.4" height="83.1"/>
<rect x="831.7" y="253.4" class="st48" width="123.6" height="97.2"/>
<g>
	<line class="st4" x1="428.6" y1="229.7" x2="371.2" y2="229.7"/>
	<path d="M353.1,229.7c8.5-3.2,19.1-8.5,25.6-14.3l-5.2,14.3l5.2,14.3C372.1,238.2,361.6,232.8,353.1,229.7z"/>
</g>
<linearGradient id="region-2-14_00000087392551483313821920000003577648526542736809_" gradientUnits="userSpaceOnUse" x1="-1319.6384" y1="778.6575" x2="-1319.6384" y2="779.6574" gradientTransform="matrix(110.18 0 0 85.53 146488.75 -66317.7812)">
	<stop  offset="0" style="stop-color:#3B0036;stop-opacity:0.75"/>
	<stop  offset="1" style="stop-color:#451367;stop-opacity:0.81"/>
</linearGradient>
<path id="region-2-14_00000049940565294231859500000007633964967338823045_" style="fill:url(#region-2-14_00000087392551483313821920000003577648526542736809_);" d="
	M1052.7,280.3c-1.5,4.6-17.2,70.1-16.8,70.4c0.1,0.1,21.1,3.1,46.5,6.5c35.5,4.9,46.5,6.1,47.1,5.1c0.4-0.6,3.8-13.9,7.5-29.4
	c3.7-15.6,7.4-30.1,8.2-32.2c0.8-2.1,1.1-4.3,0.7-4.7c-1.1-1.1-16.9-5.2-34.3-8.9c-14.1-3-53.6-10-56.4-10
	C1054.4,277.1,1053.3,278.6,1052.7,280.3L1052.7,280.3z"/>
<linearGradient id="region-3-5_00000116917870735440209340000007849215173145805723_" gradientUnits="userSpaceOnUse" x1="-1315.1616" y1="806.2731" x2="-1315.1616" y2="807.273" gradientTransform="matrix(92.9 0 0 25.38 123378.3672 -20146.5996)">
	<stop  offset="0" style="stop-color:#623E7C;stop-opacity:0.79"/>
	<stop  offset="1" style="stop-color:#633D7A;stop-opacity:0.8"/>
</linearGradient>
<path id="region-3-5_00000117651922928757939270000018354680258342583704_" style="fill:url(#region-3-5_00000116917870735440209340000007849215173145805723_);" d="
	M1154.4,318.5l-1,4.3l17.6,0.6c26.6,0.8,46.9,5,65,13.3c4.1,1.9,7.8,3.1,8.2,2.7c0.5-0.5,1.1-2.6,1.5-4.9l0.6-4.1l-3.8-0.6
	c-2.2-0.3-22.2-3.9-44.6-8.1c-22.3-4.2-41-7.6-41.5-7.6S1155,316.1,1154.4,318.5L1154.4,318.5z"/>
<linearGradient id="region-3-6_00000137109643439952814520000013093139773287729064_" gradientUnits="userSpaceOnUse" x1="-1314.8822" y1="808.4971" x2="-1314.8721" y2="809.5272" gradientTransform="matrix(91.68 0 0 24 121744.1875 -19072.8906)">
	<stop  offset="0" style="stop-color:#623D7B;stop-opacity:0.79"/>
	<stop  offset="1" style="stop-color:#633C78;stop-opacity:0.8"/>
</linearGradient>
<path id="region-3-6_00000170236746309190528940000009828008500193570487_" style="fill:url(#region-3-6_00000137109643439952814520000013093139773287729064_);" d="
	M1151.1,332.3c0,0.7-0.3,2.2-0.6,3.4c-0.5,2-0.1,2.1,13.3,2.7c15.7,0.8,30.7,2.8,43.2,5.7c9.4,2.3,24.8,7.3,29.2,9.6
	c1.6,0.8,3.2,1.4,3.7,1.4c0.9,0,2.7-6.8,2-7.5c-0.3-0.4-88.2-16.5-89.8-16.5C1151.6,331.1,1151.1,331.7,1151.1,332.3L1151.1,332.3z"
	/>
<linearGradient id="region-3-7_00000093885530208083087930000005029762056588294301_" gradientUnits="userSpaceOnUse" x1="-1314.9248" y1="807.4502" x2="-1314.9248" y2="808.4701" gradientTransform="matrix(91.89 0 0 24.63 122020.4844 -19538.5195)">
	<stop  offset="0" style="stop-color:#623D79;stop-opacity:0.79"/>
	<stop  offset="1" style="stop-color:#633B76;stop-opacity:0.8"/>
</linearGradient>
<path id="region-3-7_00000020367973325249526710000016911292519345848762_" style="fill:url(#region-3-7_00000093885530208083087930000005029762056588294301_);" d="
	M1147.8,346.8c-0.2,0.5-0.7,2-1.1,3.5l-0.6,2.8h6.4c14.3,0,39.1,3.4,55.6,7.7c7.6,1.9,19.7,6.3,27.6,9.9c1.2,0.5,3-6.3,2-7.3
	c-0.3-0.3-86.9-17.1-89.3-17.3C1148.3,346.1,1148,346.4,1147.8,346.8L1147.8,346.8z"/>
<g id="layer-4_00000068648404648921128030000008760607706062694285_">
	
		<linearGradient id="region-4-1_00000004535634120061114910000006484613443778939575_" gradientUnits="userSpaceOnUse" x1="-316.754" y1="775.9194" x2="-316.754" y2="776.9194" gradientTransform="matrix(71.6827 0 0 35.0527 23224.2344 -26967.3379)">
		<stop  offset="0" style="stop-color:#1E003C;stop-opacity:0.44"/>
		<stop  offset="1" style="stop-color:#330F50;stop-opacity:0.359"/>
	</linearGradient>
	
		<path id="region-4-1_00000134240702157338901120000016313257310940478884_" style="fill:url(#region-4-1_00000004535634120061114910000006484613443778939575_);" d="
		M509.7,233.2c-7.1,2.8-15.6,9.5-22.8,17.7c-4,4.6-4.8,6.2-4,7.4c1.8,2.8,2.8,2.4,5.9-2.1c1.6-2.4,4.6-5.4,6.5-6.7
		c1.9-1.3,4.6-3.3,6-4.5c6.1-5.4,24.5-7.9,31.7-4.4c6.2,3,14.3,12.4,19,22c3.4,6.7,2.9,1.7-0.6-6.8c-5.4-13.4-10.4-19.8-18.7-23.7
		C527.8,229.8,517,230.3,509.7,233.2z"/>
	
		<linearGradient id="region-4-2_00000154394778429200756710000001915744152953729720_" gradientUnits="userSpaceOnUse" x1="-307.6997" y1="772.6786" x2="-306.7627" y2="773.6983" gradientTransform="matrix(38 0 0 54.798 12197.5 -42074.0742)">
		<stop  offset="0" style="stop-color:#724AA8;stop-opacity:0.704"/>
		<stop  offset="1" style="stop-color:#4F2692;stop-opacity:0.841"/>
	</linearGradient>
	
		<path id="region-4-2_00000091004472020131111580000017645091999269141182_" style="fill:url(#region-4-2_00000154394778429200756710000001915744152953729720_);" d="
		M513.6,271.9c-2.4,1.7-5.5,5-7,7.2c-2.5,3.7-2.7,4.7-2.8,15c0,9.5,0.3,11.7,2.4,16.2c2.6,5.8,8.6,11.9,12.7,12.9
		c4.4,1.1,11.3-2.5,15.4-7.9c5.2-6.8,7.4-13.7,7.5-22.8c0-6.5-0.5-8.4-3-13.5c-4-7.7-8-10.4-15.4-10.4
		C518.7,268.6,517.2,269.1,513.6,271.9z"/>
	
		<linearGradient id="region-4-3_00000112597736699579777950000013078832517046006685_" gradientUnits="userSpaceOnUse" x1="-308.2425" y1="785.5068" x2="-308.2425" y2="786.5068" gradientTransform="matrix(40 0 0 16.8938 13061 -12933.4668)">
		<stop  offset="0" style="stop-color:#170040;stop-opacity:0.415"/>
		<stop  offset="1" style="stop-color:#20054A;stop-opacity:0.383"/>
	</linearGradient>
	
		<path id="region-4-3_00000171720085520207464350000008935000819296450451_" style="fill:url(#region-4-3_00000112597736699579777950000013078832517046006685_);" d="
		M724.5,339.2c-5.2,2.6-13.2,10.5-13.2,13c0,2.2,2.4,1.6,5-1.1c5.1-5.5,10-8,16.9-8.5l6.6-0.6l5.7,5.6c3.2,3.1,5.8,5.4,5.8,5.3
		c0-0.2-1.1-2.5-2.4-5.1C743.3,336.9,735,333.9,724.5,339.2z"/>
	
		<linearGradient id="region-4-4_00000081627170217741890850000007781814512160538000_" gradientUnits="userSpaceOnUse" x1="-292.6148" y1="776.9962" x2="-291.7654" y2="778.0385" gradientTransform="matrix(21.8048 0 0 31.1292 7105.0835 -23830.127)">
		<stop  offset="0" style="stop-color:#5F369B;stop-opacity:0.765"/>
		<stop  offset="1" style="stop-color:#5F359B;stop-opacity:0.812"/>
	</linearGradient>
	
		<path id="region-4-4_00000085932918522987711560000003808806030353757630_" style="fill:url(#region-4-4_00000081627170217741890850000007781814512160538000_);" d="
		M727.6,362c-3.5,3.2-3.7,3.8-4.1,10.3c-0.3,5.6,0,7.8,1.7,11.1c3.7,7.2,9.4,8.3,14.5,2.8C752.4,372.8,740.9,349.8,727.6,362z"/>
</g>
</svg>
