<?xml version="1.0" encoding="utf-8"?>
<!-- Generator: Adobe Illustrator 26.5.0, SVG Export Plug-In . SVG Version: 6.00 Build 0)  -->
<svg version="1.1" id="图层_1" xmlns="http://www.w3.org/2000/svg" xmlns:xlink="http://www.w3.org/1999/xlink" x="0px" y="0px"
	 viewBox="0 0 1250 455" style="enable-background:new 0 0 1250 455;" xml:space="preserve">
<style type="text/css">
	.st0{fill:none;}
	.st1{fill:#D3D3D3;}
	.st2{clip-path:url(#SVGID_00000041264128122249735830000011723573033410911419_);}
	.st3{fill:url(#SVGID_00000072252274573455022280000014209450199363661206_);}
	.st4{fill:none;stroke:#000000;stroke-width:3;stroke-miterlimit:10;}
	.st5{fill:url(#SVGID_00000115494237300110473330000004864782661991576510_);}
	.st6{fill:url(#SVGID_00000172403827412768556880000009404129518209221055_);}
	.st7{fill:url(#SVGID_00000082369970774697142770000012440817883613649069_);}
	.st8{fill:url(#SVGID_00000067945934578041825750000016195897285514187413_);}
	.st9{fill:url(#SVGID_00000141417249443175555850000017699946835940384957_);}
	.st10{fill:url(#SVGID_00000003818488938546978560000000939312417312116614_);}
	.st11{fill:url(#SVGID_00000109018374044345637620000014473430547540660614_);}
	.st12{fill:url(#SVGID_00000163765950192411547300000004452628690784101514_);}
	.st13{fill:url(#SVGID_00000088829238814402048430000015463171704398090630_);}
	.st14{fill:url(#SVGID_00000181794480584670600890000014764490759168216742_);}
	.st15{fill:url(#SVGID_00000111891798764180733960000009463931416977314445_);}
	.st16{fill:url(#SVGID_00000083072896159427192200000015822485463152073091_);}
	.st17{fill:url(#SVGID_00000163768167131943511240000004444817302632524458_);}
	.st18{fill:url(#SVGID_00000165917587185598804790000005416116496599447432_);}
	.st19{fill:url(#SVGID_00000031923137481564094690000011608603794962658480_);}
	.st20{fill:url(#SVGID_00000032637416317107189510000017469502236952212358_);}
	.st21{fill:url(#SVGID_00000067956057548740663100000010841652516233801129_);}
	.st22{fill:url(#SVGID_00000038402263101571668510000016833439033652510605_);}
	.st23{fill:url(#SVGID_00000029745278450701395250000016454416773893281438_);}
	.st24{fill:url(#SVGID_00000127025783022513366930000017779848296930799243_);}
	.st25{fill:url(#SVGID_00000072977812647846471690000007505974463967991426_);}
	.st26{fill:url(#SVGID_00000114766000705723791150000000537216253997852295_);}
	.st27{fill:url(#SVGID_00000043449878470738770910000010158216725685211829_);}
	.st28{fill:url(#SVGID_00000134207549995021925470000010340840130700002185_);}
	.st29{fill:url(#SVGID_00000011746993855658600410000006073756488960876952_);}
	.st30{fill:url(#SVGID_00000005973104660202966440000015679531851933040046_);}
	.st31{fill:url(#SVGID_00000159435438645947372410000016005261119449528472_);}
	.st32{fill:url(#SVGID_00000016076414418934628610000017023703406113820834_);}
	.st33{fill:url(#SVGID_00000114796123192596449050000004503177650649641605_);}
	.st34{fill:url(#SVGID_00000019679362108537764900000009511288661392317570_);}
	.st35{fill:url(#SVGID_00000110454981520472975490000001523505121352569989_);}
	.st36{fill:url(#SVGID_00000157998665220902415450000004852401352955116700_);}
	.st37{fill:url(#SVGID_00000098915010041847511010000000548080171618227845_);}
	.st38{fill:url(#SVGID_00000041260251412048349100000017294485967181794953_);}
	.st39{fill:url(#SVGID_00000090274024665804828420000015384098574609791648_);}
	.st40{fill:url(#SVGID_00000000188452999165432270000015910106242956236977_);}
	.st41{fill:url(#SVGID_00000159444329287670555180000006440141371560387752_);}
	.st42{fill:url(#SVGID_00000128475805542291781820000013322935952253737898_);}
	.st43{fill:url(#SVGID_00000164499797596303680920000001463889756066199456_);}
	.st44{fill:url(#SVGID_00000011753965180387996070000008619587007225000321_);}
	.st45{fill:url(#SVGID_00000051353909836616215830000001731248251728001437_);}
	.st46{fill:url(#SVGID_00000023266436560029734810000012680937505466389408_);}
	.st47{fill:url(#SVGID_00000144326345647986431670000007619757247899263897_);}
	.st48{fill:url(#SVGID_00000014629266432856687630000016616732528968946357_);}
	.st49{fill:url(#SVGID_00000019664582057710315720000002277516939327572144_);}
	.st50{fill:url(#SVGID_00000145048946190793641610000017807079837950485163_);}
	.st51{fill:url(#SVGID_00000168108946774746897820000002693992180639819440_);}
	.st52{fill:url(#SVGID_00000000223779319409449610000004584855174025913013_);}
	.st53{fill:url(#SVGID_00000052798573767914173480000005859711160243962263_);stroke:#000000;stroke-miterlimit:10;}
	.st54{fill:none;stroke:#FF0000;stroke-width:3;stroke-miterlimit:10;}
	.st55{fill:url(#SVGID_00000118383032264701186900000018207129807567373724_);}
	.st56{fill:url(#SVGID_00000080170647366961405960000016951369207843815307_);}
	.st57{fill:url(#SVGID_00000074426114514492823720000017258046886360801722_);}
	.st58{fill:url(#SVGID_00000107584073913288792870000005829167946916920960_);}
	.st59{fill:none;stroke:#FF0000;stroke-width:2.9999;stroke-miterlimit:9.9996;}
	.st60{fill:url(#SVGID_00000157281881220822344990000012881916053378061996_);}
	.st61{fill:url(#SVGID_00000120519690670984823790000006625791808665112206_);}
</style>
<pattern  y="455" width="40" height="40" patternUnits="userSpaceOnUse" id="SVGID_0000000886537346260787842" viewBox="0 -40 40 40" style="overflow:visible;">
	<g>
		<rect y="-40" class="st0" width="40" height="40"/>
		<g>
			<rect y="-40" class="st0" width="40" height="40"/>
			<g>
				<rect y="-40" class="st0" width="40" height="40"/>
				<g>
					<rect y="-40" class="st0" width="40" height="40"/>
					<g>
						<rect y="-40" class="st0" width="40" height="40"/>
						<g>
							<rect y="-40" class="st0" width="40" height="40"/>
							<g>
								<rect y="-40" class="st0" width="40" height="40"/>
								<g>
									<rect y="-40" class="st0" width="40" height="40"/>
									<g>
										<rect y="-40" class="st0" width="40" height="40"/>
										<g>
											<polygon class="st0" points="0,0 40,0 40,-40 0,-40 											"/>
											<polygon class="st1" points="0,-20 20,-20 20,-40 0,-40 											"/>
											<polygon class="st1" points="20,0 40,0 40,-20 20,-20 											"/>
										</g>
									</g>
								</g>
							</g>
						</g>
					</g>
				</g>
			</g>
		</g>
	</g>
</pattern>
<g>
	<g>
		<g>
			<g>
				<g>
					<defs>
						<rect id="SVGID_1_" width="1250" height="455"/>
					</defs>
					<clipPath id="SVGID_00000068645473825838514890000004367145611721192070_">
						<use xlink:href="#SVGID_1_"  style="overflow:visible;"/>
					</clipPath>
					<g style="clip-path:url(#SVGID_00000068645473825838514890000004367145611721192070_);">
						
							<pattern  id="SVGID_00000134943975875530402760000010451046616590121654_" xlink:href="#SVGID_0000000886537346260787842" patternTransform="matrix(1 0 0 1 88.5 34963.1094)">
						</pattern>
						<rect style="fill:url(#SVGID_00000134943975875530402760000010451046616590121654_);" width="1249.3" height="454.7"/>
					</g>
				</g>
			</g>
		</g>
	</g>
</g>
<g>
	<line class="st4" x1="937" y1="313.4" x2="994.5" y2="313.4"/>
	<path d="M1012.6,313.4c-8.5,3.2-19.1,8.5-25.6,14.3l5.2-14.3l-5.2-14.3C993.5,304.9,1004.1,310.3,1012.6,313.4z"/>
</g>
<linearGradient id="SVGID_00000063618366167650811910000005171357875495128460_" gradientUnits="userSpaceOnUse" x1="-2225.3831" y1="-11.4803" x2="-2226.6531" y2="-11.6404" gradientTransform="matrix(68.95 0 0 -156 154179.1719 -1707)">
	<stop  offset="0" style="stop-color:#8157A5"/>
	<stop  offset="1" style="stop-color:#9E75C2"/>
</linearGradient>
<path style="fill:url(#SVGID_00000063618366167650811910000005171357875495128460_);" d="M690.9,42.4c-1.1,45.9,1.6,110.5,5.1,121.5
	c0.5,1.7,2.9,1.8,32.1,1.8h31.5l-0.6-2.3c-0.4-1.2-2.9-13.2-5.6-26.7c-5.4-27.2-9.8-55.2-13.4-85.9c-1.4-11.2-2.8-20.7-3.3-21.2
	C736,28.9,692.8,9.7,692,9.7C691.8,9.7,691.3,24.4,690.9,42.4z"/>
<linearGradient id="SVGID_00000106133234386541356990000006474685883915600036_" gradientUnits="userSpaceOnUse" x1="-2250.656" y1="-10.9133" x2="-2251.6553" y2="-10.9432" gradientTransform="matrix(200.86 0 0 -164 452828.8125 -1707)">
	<stop  offset="0" style="stop-color:#C4251D"/>
	<stop  offset="1" style="stop-color:#FD592D"/>
</linearGradient>
<path style="fill:url(#SVGID_00000106133234386541356990000006474685883915600036_);" d="M635.7,5.6c-22.1,2-40.4,3.9-40.6,4.1
	c-0.3,0.3-1.7,8.8-3.2,19c-7.7,53.1-17.6,98.7-27.9,128.9c-1.5,4.1-2.6,7.6-2.6,7.8s30.4,0.3,67.6,0.3c63.9,0,67.5-0.1,67-1.8
	c-1.4-4.4-3.6-29.1-4.7-52.7c-1-22.2-0.6-100.2,0.5-101.3c0.4-0.4,43.9,18.7,44.9,19.7c0.5,0.5,1.9,10,3.3,21.2
	c3.1,26.9,7.7,57.2,12,79.4c5.4,27.6,7.4,35.5,9,35.5c1.7,0,1.7-0.3-0.1-6.5c-6.2-20.3-13.5-69.8-17.5-118.5
	c-0.7-7.4-1.5-13.8-1.8-14.2c-0.4-0.3-12.1-6.1-26-12.7L690.2,1.7l-7.1,0.1C679.1,1.9,657.8,3.6,635.7,5.6L635.7,5.6z"/>
<linearGradient id="SVGID_00000062907100622105379570000003209594681552777653_" gradientUnits="userSpaceOnUse" x1="-2239.9636" y1="-11.1651" x2="-2238.6736" y2="-11.5852" gradientTransform="matrix(107.8 0 0 -159 242056.2188 -1708)">
	<stop  offset="0" style="stop-color:#C4AEDA"/>
	<stop  offset="1" style="stop-color:#F4F2FF"/>
</linearGradient>
<path style="fill:url(#SVGID_00000062907100622105379570000003209594681552777653_);" d="M637.5,10.3C617,12.6,600,14.8,599.7,15
	c-0.2,0.3-1.3,8-2.3,17.1c-4.7,41-13.2,86.5-22.9,121.8l-2.9,10.8h107.8V5.7l-2.2,0.1C675.9,5.9,658.1,7.9,637.5,10.3L637.5,10.3z"
	/>
<linearGradient id="SVGID_00000075122939210852850610000002429790619816972210_" gradientUnits="userSpaceOnUse" x1="-2188.3157" y1="-18.6092" x2="-2187.3154" y2="-18.6092" gradientTransform="matrix(34.98 0 0 -98 77330.3281 -1770)">
	<stop  offset="0" style="stop-color:#6D49A9"/>
	<stop  offset="1" style="stop-color:#6D49A9"/>
</linearGradient>
<path style="fill:url(#SVGID_00000075122939210852850610000002429790619816972210_);" d="M782.9,12.6c-3,13.1-2.4,14.5,10.9,28.1
	s12.6,11.1,12.6,42.2v19.8h10V76.9c0-14.1-0.4-27.4-0.9-29.4c-0.5-2.1-2.8-6.6-5.1-10c-6.6-9.7-24.1-32.8-25-32.8
	C785.1,4.7,783.9,8.3,782.9,12.6z"/>
<linearGradient id="SVGID_00000042004146518795950750000010995848678923086226_" gradientUnits="userSpaceOnUse" x1="-2180.6667" y1="-25.623" x2="-2181.7168" y2="-25.623" gradientTransform="matrix(32.19 0 0 -71.72 71024.9766 -1698.8398)">
	<stop  offset="0" style="stop-color:#7D60B7"/>
	<stop  offset="1" style="stop-color:#B7AFF1"/>
</linearGradient>
<path style="fill:url(#SVGID_00000042004146518795950750000010995848678923086226_);" d="M803.9,103.9c-5.2,3.4-5,2.2-5.3,33
	l-0.4,28.8h3.6c2.3,0,3.6,0.5,3.6,1.3c0,1.2,20.3,7.7,24,7.7c1.1,0,1.2-5.7,0.7-31.5c-0.4-17.3-1.1-32.5-1.7-33.9
	c-0.5-1.4-2.4-3.2-4.1-4.2C820.1,103,806.6,102.2,803.9,103.9L803.9,103.9z"/>
<linearGradient id="SVGID_00000105397565807822663580000013795582525548030643_" gradientUnits="userSpaceOnUse" x1="-2255.6191" y1="-374.5453" x2="-2255.5891" y2="-362.1152" gradientTransform="matrix(302 0 0 -5 681851 -1702)">
	<stop  offset="0" style="stop-color:#F47F6B"/>
	<stop  offset="1" style="stop-color:#F8DE90"/>
</linearGradient>
<path style="fill:url(#SVGID_00000105397565807822663580000013795582525548030643_);" d="M503.4,168.2v2.5h302v-5h-302L503.4,168.2
	L503.4,168.2z"/>
<linearGradient id="SVGID_00000002381601574773202400000014153459428077898152_" gradientUnits="userSpaceOnUse" x1="-2230.5488" y1="-58.9795" x2="-2229.5488" y2="-58.9795" gradientTransform="matrix(77.87 0 0 -31.49 174461.4688 -1484.02)">
	<stop  offset="0" style="stop-color:#431553"/>
	<stop  offset="1" style="stop-color:#431553"/>
</linearGradient>
<path style="fill:url(#SVGID_00000002381601574773202400000014153459428077898152_);" d="M823.5,364.7l-1.3,7.2l-3.6-0.7
	c-2.9-0.5-3.9-0.3-5.2,1.5c-1.5,2-1.7,2.1-15,0.6c-7.4-0.8-16.5-1.7-20.2-2.1l-6.8-0.6v8.8l17.8,0.6c21.1,0.8,22.2,1,22.2,4.6
	c0,2.7,0,2.8,10.3,3.8c8.7,0.9,10.7,0.8,13.7-0.5c1.9-0.9,5.8-1.6,8.5-1.6c4.3-0.1,5-0.4,5.3-2.3c0.3-2.2-0.2-2.5-6.5-3.8
	c-2.3-0.5-3.3-1.2-3.3-2.5c0-2.1-2.8-4-5.9-4c-2.5,0-2.5-0.6-0.7-8.5c0.8-3.3,1.3-6.1,1.2-6.2c-0.1-0.2-2.3-0.6-4.7-0.9l-4.5-0.6
	L823.5,364.7z"/>
<linearGradient id="SVGID_00000064332912752619816630000011933452101268138887_" gradientUnits="userSpaceOnUse" x1="-2144.8738" y1="-37.705" x2="-2143.8738" y2="-37.705" gradientTransform="matrix(22.33 0 0 -49.07 48843.2969 -1617.1309)">
	<stop  offset="0" style="stop-color:#C41F1C"/>
	<stop  offset="1" style="stop-color:#C41F1C"/>
</linearGradient>
<path style="fill:url(#SVGID_00000064332912752619816630000011933452101268138887_);" d="M955.5,209c-4.2,0.8-4.3,0.9-2.1,2
	c1.3,0.7,3.5,3.4,4.9,6.2c2.3,4.3,2.6,6.2,2.6,14.5s-0.4,10.2-2.5,14.3c-1.3,2.7-4.1,6.4-6.2,8.3c-4.2,3.7-3.7,4.2,2,1.9
	c4.6-1.9,13.6-11.2,15.8-16.3c2.5-5.7,2.3-18.6-0.4-23.8C966.2,209.4,962.5,207.5,955.5,209L955.5,209z"/>
<linearGradient id="SVGID_00000075145030566387152980000003891272447841496987_" gradientUnits="userSpaceOnUse" x1="-2248.2205" y1="-15.2874" x2="-2247.2205" y2="-15.2874" gradientTransform="matrix(159.86 0 0 -118.42 360064.3438 -1432.3477)">
	<stop  offset="0" style="stop-color:#582568"/>
	<stop  offset="1" style="stop-color:#582568"/>
</linearGradient>
<path style="fill:url(#SVGID_00000075145030566387152980000003891272447841496987_);" d="M691.9,321.8c-6.4,3.2-14.3,10.9-20.1,19.4
	c-3.7,5.3-7.5,15.9-7.3,20.4c0,1.6,0.6,0.5,1.4-2.9c2-8.1,4.7-13.8,9.8-20.5c6.3-8.4,10.2-11.8,17.3-15.4c5.4-2.7,7.2-3.1,14.5-3.1
	c10.1,0,15.2,2.1,22.1,9.3c14.5,14.7,18.4,41.4,9.9,66.5c-3.7,10.7-8.2,18.1-15.7,25.9c-13.1,13.5-27.5,15.1-39.8,4.3
	c-7.2-6.3-14.3-19-17.6-31.3c-1.8-6.4-1.9-6.7-1.4-2.2c0.7,5.9,4.5,15.8,9,23.6c3.9,6.7,10.8,13.2,16.6,15.8
	c6.7,3,22.3,5.6,33.3,5.6c9,0,10.6-0.3,15.3-2.7c14.9-7.7,25.5-22.5,30.2-41.9c1.1-4.6,2-11.5,2-15.2v-6.8l6.8,0.6
	c3.7,0.4,12.8,1.3,20.2,2.1c13.3,1.5,13.5,1.4,15-0.6c1.3-1.8,2.3-2,5.2-1.5l3.5,0.7l1.3-6.7c0.7-3.6,1.1-6.7,0.9-6.9
	s-7.8-1.1-16.8-2c-10.2-1.1-16.8-2.2-17.6-3c-0.8-0.7-4.2-1.6-7.7-2c-10.2-1.2-11.8-1.7-11.8-3.6c0-1-0.3-2-0.8-2.2
	c-0.4-0.2-2.8-3.2-5.4-6.8c-5.9-8.4-9.2-11.3-17.5-15.1c-5.8-2.6-8.6-3.2-18.3-3.9c-6.3-0.5-15.8-0.9-21-0.9
	C698.8,318.7,697.3,319,691.9,321.8L691.9,321.8z"/>
<linearGradient id="SVGID_00000161620852566601999570000000000297595862229154_" gradientUnits="userSpaceOnUse" x1="-2157.7058" y1="-52.2521" x2="-2156.7058" y2="-52.2521" gradientTransform="matrix(25 0 0 -35.5 54688 -1491.5)">
	<stop  offset="0" style="stop-color:#431159"/>
	<stop  offset="1" style="stop-color:#431159"/>
</linearGradient>
<path style="fill:url(#SVGID_00000161620852566601999570000000000297595862229154_);" d="M752.7,351l-7.2,5.2l-0.1,7.2
	c0,4,0.3,7.3,0.6,7.3c0.4,0,4-2,8.1-4.5c7.3-4.5,7.4-4.5,8.2-2.2c0.5,1.2,2.5,5.6,4.5,9.7l3.5,7.5l0.1-8.2c0-7.9-0.2-8.7-4.7-17.8
	c-2.6-5.2-5-9.5-5.3-9.5C760.1,345.8,756.6,348.1,752.7,351z"/>
<linearGradient id="SVGID_00000114787672881151090180000003281791721258017726_" gradientUnits="userSpaceOnUse" x1="-2178.1392" y1="-38.6345" x2="-2177.1392" y2="-38.6345" gradientTransform="matrix(30.88 0 0 -47.85 68190.9141 -1613.9512)">
	<stop  offset="0" style="stop-color:#FEC57A"/>
	<stop  offset="1" style="stop-color:#FEC57A"/>
</linearGradient>
<path style="fill:url(#SVGID_00000114787672881151090180000003281791721258017726_);" d="M947.4,212.2c-6.5,3.6-15.5,18.7-16.6,27.9
	c-1.5,12.6,1.5,17.6,11,18.4c4.8,0.4,5.4,0.1,9.6-3.6c6.4-5.6,9.3-11.9,9.8-21.3c0.5-8.4-0.6-13.3-4.4-19.2
	C954.2,210.4,951.7,209.8,947.4,212.2L947.4,212.2z"/>
<linearGradient id="SVGID_00000181805884478408635870000000742720146961321654_" gradientUnits="userSpaceOnUse" x1="-2230.8716" y1="-15.5853" x2="-2230.5815" y2="-16.5753" gradientTransform="matrix(79.42 0 0 -113.08 177869.125 -1442.0352)">
	<stop  offset="0" style="stop-color:#844E7D"/>
	<stop  offset="1" style="stop-color:#65187E"/>
</linearGradient>
<path style="fill:url(#SVGID_00000181805884478408635870000000742720146961321654_);" d="M692.9,322.8c-6.5,3.2-14.6,11.1-20,19.3
	c-5.6,8.4-7.8,16.4-8.3,30.2c-0.6,17.6,2.3,29,11,43.1c13,20.8,31.6,23.1,48.2,6c7.5-7.8,12-15.2,15.7-25.9
	c8.5-25.1,4.6-51.8-9.9-66.5c-7-7.2-12-9.3-22.3-9.3C700,319.7,698.1,320.1,692.9,322.8L692.9,322.8z"/>
<linearGradient id="SVGID_00000000190782834853592390000016788087755027920314_" gradientUnits="userSpaceOnUse" x1="-2058.6694" y1="-123.165" x2="-2057.6694" y2="-123.165" gradientTransform="matrix(13 0 0 -15.13 27476 -1518.1404)">
	<stop  offset="0" style="stop-color:#53225E"/>
	<stop  offset="1" style="stop-color:#53225E"/>
</linearGradient>
<path style="fill:url(#SVGID_00000000190782834853592390000016788087755027920314_);" d="M713.4,339.3c0,0.8,2.9,4.3,6.5,7.7
	c3.6,3.4,6.5,6.1,6.5,5.9c0-1.7-5.6-10.5-8-12.6C714.8,337.3,713.4,337,713.4,339.3z"/>
<linearGradient id="SVGID_00000159456653117710359990000001313338092905043612_" gradientUnits="userSpaceOnUse" x1="-2255.0515" y1="-10.2249" x2="-2255.8914" y2="-9.075" gradientTransform="matrix(302 0 0 -181.62 681851 -1516.9062)">
	<stop  offset="0" style="stop-color:#FE3E11"/>
	<stop  offset="1" style="stop-color:#F14F70"/>
</linearGradient>
<path style="fill:url(#SVGID_00000159456653117710359990000001313338092905043612_);" d="M503.4,184.2v13.4l3.3,0.5
	c8,1.3,10.2,1,16.4-2.2c10.8-5.6,20-7.5,33.3-7c9.2,0.4,12.8,1,18.2,3.1c17.1,6.6,30.2,18.9,40.3,38c4.3,8.1,10.5,25,10.5,28.8
	c0,1,0.4,1.9,0.9,1.9c2.6,0,3.5,37.1,1.2,50.9c-0.6,3.6-0.9,6.6-0.8,6.7c0.5,0.5,44.2,7.2,44.6,6.8c0.3-0.2,2.9-34.7,5.9-76.7
	c3-41.9,5.6-76.4,5.8-76.6c0.2-0.2,0.6-0.2,0.8,0c0.6,0.6-10.1,154.9-10.7,155.6c-0.3,0.3-10.8-1.1-23.3-3.1s-23.1-3.3-23.5-2.9
	c-0.4,0.5-1,2.2-1.3,3.9c-0.9,3.8-3,3.2,27.2,7.5l23.2,3.2l4.9-5.4c3.1-3.5,7.2-6.5,11.4-8.6c5.7-2.9,7.5-3.3,14.5-3.3
	c6.4,0,8.2-0.3,9.6-1.8c2.6-3,11.8-7.2,17.7-8.1c6.6-1.1,15.7,0.2,21.2,3c9.8,5.1,18.5,17.8,21.3,31.3c0.9,3.9,1.6,7.2,1.7,7.3
	c0.4,0.3,12.2,2.1,12.4,1.9c0.6-0.5,5.5-32.9,7.7-50.6c5.1-40.4,7.6-76.3,7.6-110.8v-20.2h-302L503.4,184.2L503.4,184.2z"/>
<linearGradient id="SVGID_00000173843719600097973590000010178143676941264268_" gradientUnits="userSpaceOnUse" x1="-2199.5757" y1="-623.7333" x2="-2198.5757" y2="-623.7333" gradientTransform="matrix(41 0 0 -3 90908 -1663)">
	<stop  offset="0" style="stop-color:#C83134"/>
	<stop  offset="1" style="stop-color:#C83134"/>
</linearGradient>
<path style="fill:url(#SVGID_00000173843719600097973590000010178143676941264268_);" d="M725.4,208.2c0,1.3,2.9,1.5,20.5,1.5
	s20.5-0.2,20.5-1.5s-2.9-1.5-20.5-1.5C728.3,206.7,725.4,206.9,725.4,208.2z"/>
<linearGradient id="SVGID_00000160164883858613204170000015942661034282104991_" gradientUnits="userSpaceOnUse" x1="-2191.7729" y1="-32.3544" x2="-2190.7729" y2="-32.3544" gradientTransform="matrix(36.63 0 0 -57 81114.8203 -1634)">
	<stop  offset="0" style="stop-color:#FEC67A"/>
	<stop  offset="1" style="stop-color:#FEC67A"/>
</linearGradient>
<path style="fill:url(#SVGID_00000160164883858613204170000015942661034282104991_);" d="M849.2,186.2c-3.2,2.5-5.8,4.9-5.8,5.3
	s-1.5,2.3-3.3,4.3c-9.4,10.3-12.6,29.5-6.4,38.8l2.7,4.1h6.8c5.7-0.1,7.3-0.5,10.7-2.8c10.7-7.4,16.1-26.2,11.7-40.8
	c-2-6.7-6.8-13.4-9.6-13.4C855.4,181.7,852.3,183.7,849.2,186.2L849.2,186.2z"/>
<linearGradient id="SVGID_00000163040169181084006320000001423052675394044041_" gradientUnits="userSpaceOnUse" x1="-2217.6472" y1="-11.6686" x2="-2219.1873" y2="-11.0784" gradientTransform="matrix(57.79 0 0 -155.74 128840.7188 -1542.5195)">
	<stop  offset="0" style="stop-color:#660B2F"/>
	<stop  offset="1" style="stop-color:#C52E5E"/>
</linearGradient>
<path style="fill:url(#SVGID_00000163040169181084006320000001423052675394044041_);" d="M682.4,175.4
	c-0.1,6.5-10.6,149.3-11.1,149.7c-0.2,0.2-10.2-1.2-22.2-3.1c-19.4-3.1-24.2-3.5-22.6-1.8c0.8,0.8,46,7.8,46.6,7.2
	c0.3-0.3,2.7-32.4,5.3-71.4c2.7-38.9,5.1-73.8,5.4-77.6c0.4-4.2,0.2-6.7-0.4-6.7C682.9,171.7,682.4,173.4,682.4,175.4L682.4,175.4z"
	/>
<linearGradient id="SVGID_00000129914299515903021240000000205430071765187501_" gradientUnits="userSpaceOnUse" x1="-2199.5757" y1="-623.7333" x2="-2198.5757" y2="-623.7333" gradientTransform="matrix(41 0 0 -3 90908 -1672)">
	<stop  offset="0" style="stop-color:#D2342F"/>
	<stop  offset="1" style="stop-color:#D2342F"/>
</linearGradient>
<path style="fill:url(#SVGID_00000129914299515903021240000000205430071765187501_);" d="M725.4,199.2c0,1.3,2.9,1.5,20.5,1.5
	s20.5-0.2,20.5-1.5s-2.9-1.5-20.5-1.5C728.3,197.7,725.4,197.9,725.4,199.2z"/>
<linearGradient id="SVGID_00000122689562046383955120000000072551609137015438_" gradientUnits="userSpaceOnUse" x1="-2227.0583" y1="-27.9472" x2="-2226.0583" y2="-27.9472" gradientTransform="matrix(70.69 0 0 -65.81 158241.0938 -1632.3828)">
	<stop  offset="0" style="stop-color:#F9492E"/>
	<stop  offset="1" style="stop-color:#F9492E"/>
</linearGradient>
<path style="fill:url(#SVGID_00000122689562046383955120000000072551609137015438_);" d="M827.9,176.2c-9.8,5.9-15.3,16.1-16.2,30.1
	c-1.1,16.7,6,29.9,17.5,32.3c11,2.3,24.7,1,32.2-3.1c8.3-4.5,17.3-14.8,19.6-22.5c2.8-9.4,0.8-24.4-4.1-30.9
	c-1.4-1.8-4.1-4.2-6.2-5.5c-3.4-2.1-4.9-2.3-21.2-2.6C832.4,173.8,831.8,173.8,827.9,176.2L827.9,176.2z M868.7,180.1
	c7.2,3.1,10.7,10.4,10.7,22.7c0,5.4-0.6,9.5-2,13.2c-5,13.4-19.2,22.7-34.6,22.7c-6.3,0-6.4,0-9.1-4.1c-3.1-4.8-4-11.7-2.5-20
	c1.2-6.2,4.7-14.4,7.2-16.9c0.9-0.9,2.8-3.2,4.4-5.3c4.8-6.3,16-13.5,21.4-13.7C864.9,178.7,866.9,179.3,868.7,180.1L868.7,180.1z"
	/>
<linearGradient id="SVGID_00000028316512444403908570000008179942647356696733_" gradientUnits="userSpaceOnUse" x1="-2205.0762" y1="-28.9504" x2="-2204.3262" y2="-29.7604" gradientTransform="matrix(44.9 0 0 -63 99702.8672 -1467)">
	<stop  offset="0" style="stop-color:#8064BA"/>
	<stop  offset="1" style="stop-color:#B7B0F1"/>
</linearGradient>
<path style="fill:url(#SVGID_00000028316512444403908570000008179942647356696733_);" d="M698.6,345.4
	c-11.9,8.1-15.2,14.2-15.2,28.3c0,9.2,1.9,16.2,6.3,22.6c4.3,6.5,8.8,9.4,14.4,9.4c5.6,0,8.9-1.7,13.6-6.9
	c7.5-8.3,11.3-19.6,10.5-31.5c-0.6-8.9-3-13.8-9.9-20c-4.7-4.2-5.5-4.6-10.4-4.6C703.9,342.7,701.8,343.3,698.6,345.4z"/>
<linearGradient id="SVGID_00000106826865014726044640000014287812352970942600_" gradientUnits="userSpaceOnUse" x1="-2014.307" y1="-128.9122" x2="-2013.307" y2="-128.9122" gradientTransform="matrix(10.7 0 0 -14.49 22384.3711 -1501.5698)">
	<stop  offset="0" style="stop-color:#FFFFFF"/>
	<stop  offset="1" style="stop-color:#FFFFFF"/>
</linearGradient>
<path style="fill:url(#SVGID_00000106826865014726044640000014287812352970942600_);" d="M833.5,362.5c-0.5,2-1.3,5.4-1.7,7.4
	c-0.6,3.5-0.4,3.8,1.7,3.7c1.9,0,3.1-1.4,5.7-6.6c1.7-3.7,3.1-6.7,3-6.8c-0.2-0.1-2-0.5-4-0.8C834.6,358.8,834.4,358.9,833.5,362.5
	L833.5,362.5z"/>
<linearGradient id="SVGID_00000104692701923214149160000002548487492568518805_" gradientUnits="userSpaceOnUse" x1="-2165.28" y1="-111.0954" x2="-2164.28" y2="-111.0954" gradientTransform="matrix(26.9 0 0 -16.77 58929.1836 -1517.8193)">
	<stop  offset="0" style="stop-color:#66337B"/>
	<stop  offset="1" style="stop-color:#66337B"/>
</linearGradient>
<path style="fill:url(#SVGID_00000104692701923214149160000002548487492568518805_);" d="M699.7,339.2c-5.3,2.7-13.3,10.6-13.3,13.1
	c0,2.2,2.4,1.6,5.1-1.2c5.1-5.5,10.9-8.4,16.6-8.4c5.3,0,5.4-0.1,5.1-2.8c-0.3-2.4-0.8-2.7-4.3-3
	C706.1,336.7,703.3,337.4,699.7,339.2L699.7,339.2z"/>
<g>
	
		<linearGradient id="SVGID_00000019680251592324485310000006215150894027148727_" gradientUnits="userSpaceOnUse" x1="-2246.2996" y1="-8.89" x2="-2245.2996" y2="-8.89" gradientTransform="matrix(143.46 0 0 -199.61 323043.25 -1506.0195)">
		<stop  offset="0" style="stop-color:#CB1B1C"/>
		<stop  offset="1" style="stop-color:#CB1B1C"/>
	</linearGradient>
	<path style="fill:url(#SVGID_00000019680251592324485310000006215150894027148727_);" d="M805.4,189.9c0,45-4.4,96.7-12.7,147.6
		c-1.4,8.9-2.4,16.5-2.1,16.7c0.2,0.3,8.5,1.2,18.4,2.1c9.8,0.9,35,4,55.9,6.9c20.9,3,38.1,5.3,38.2,5.1
		c0.9-0.8,31.3-107.2,30.9-108.1c-0.2-0.7-2.3-1.5-4.6-1.8c-5.6-0.7-10.3-5.4-13.1-12.6c-3-7.9-2.3-22.5,1.4-29.7
		c2.8-5.4,7.4-10.2,11.3-11.9c2.1-0.9-0.9-1.9-22.3-7.8c-13.6-3.7-25.1-6.8-25.4-6.7c-0.4,0-0.3,1.7,0.2,3.7
		c1.3,5.7,1.1,14.4-0.5,19.6c-1.5,5-9.9,16.3-14.3,19.3c-8.2,5.5-14.5,7.4-24.5,7.4c-12.4,0-17.6-1.5-22.5-6.6
		c-11.3-11.6-10.9-37.5,0.7-50.7c2.2-2.4,5.3-5,7.1-5.7c3.1-1.3,3-1.4-8.7-4.7c-6.6-1.8-12.2-3.3-12.6-3.3
		C805.7,168.7,805.4,178.3,805.4,189.9L805.4,189.9z"/>
	
		<linearGradient id="SVGID_00000175299158591362568570000009167569804009171329_" gradientUnits="userSpaceOnUse" x1="-2170.887" y1="-31.2244" x2="-2169.887" y2="-31.2244" gradientTransform="matrix(28.5 0 0 -59.04 62721 -1635.1074)">
		<stop  offset="0" style="stop-color:#CB1B1C"/>
		<stop  offset="1" style="stop-color:#CB1B1C"/>
	</linearGradient>
	<path style="fill:url(#SVGID_00000175299158591362568570000009167569804009171329_);" d="M859.5,179.8l-3.3,1l3.6,3.7
		c6.9,6.9,9.3,21.5,5.7,34.2c-1.7,5.7-7.3,14.2-11.1,16.8l-3.5,2.4l3-0.8c5.4-1.3,10.8-4.5,16-9.8c6.8-6.8,9.5-13.8,9.5-24.5
		c0-12.3-3.5-19.6-10.7-22.7C865,178.5,864.2,178.5,859.5,179.8L859.5,179.8z"/>
</g>
<linearGradient id="SVGID_00000154391069054874614370000000864454068683488643_" gradientUnits="userSpaceOnUse" x1="-2240.1177" y1="-20.9433" x2="-2240.2378" y2="-21.8424" gradientTransform="matrix(110.18 0 0 -85.53 247691.6562 -1526.7031)">
	<stop  offset="0" style="stop-color:#550837"/>
	<stop  offset="1" style="stop-color:#581B6C"/>
</linearGradient>
<path style="fill:url(#SVGID_00000154391069054874614370000000864454068683488643_);" d="M830.5,259.9c-1.5,4.6-17.2,70.1-16.8,70.4
	c0.1,0.1,21.1,3.1,46.5,6.5c35.5,4.9,46.5,6.1,47.1,5.1c0.4-0.6,3.8-13.9,7.5-29.4c3.7-15.6,7.4-30.1,8.2-32.2s1.1-4.3,0.7-4.7
	c-1.1-1.1-16.9-5.2-34.3-8.9c-14.1-3-53.6-10-56.4-10C832.2,256.7,831.1,258.2,830.5,259.9L830.5,259.9z M872.2,273.3
	c22.4,4.2,42.4,7.8,44.6,8.1l3.8,0.6l-0.6,4.1c-0.4,2.3-1,4.4-1.5,4.9c-0.4,0.4-4.1-0.8-8.2-2.7c-18.1-8.3-38.4-12.5-65-13.3
	l-17.6-0.6l1-4.3c0.6-2.4,1.5-4.4,2-4.4S849.9,269.1,872.2,273.3L872.2,273.3z M871.7,290.8c24.3,4.4,44.3,8.2,44.5,8.4
	c0.7,0.7-1.1,7.5-2,7.5c-0.5,0-2.1-0.6-3.7-1.4c-4.4-2.3-19.8-7.3-29.2-9.6c-12.5-2.9-27.5-4.9-43.2-5.7
	c-13.4-0.6-13.8-0.7-13.3-2.7c0.3-1.2,0.6-2.7,0.6-3.4c0-0.6,0.5-1.2,1-1.2C827,282.7,847.3,286.3,871.7,290.8L871.7,290.8z
	 M867.2,306.1c24.4,4.6,44.6,8.6,44.8,8.9c1,1-0.8,7.8-2,7.3c-7.9-3.6-20-8-27.6-9.9c-16.5-4.3-41.3-7.7-55.6-7.7h-6.4l0.6-2.8
	c0.6-2.6,1.3-4.2,1.7-4.2C822.8,297.7,842.8,301.5,867.2,306.1L867.2,306.1z"/>
<linearGradient id="SVGID_00000146498978837793565240000000706208590012762267_" gradientUnits="userSpaceOnUse" x1="-2235.8101" y1="-75.4163" x2="-2234.8101" y2="-75.4163" gradientTransform="matrix(91.89 0 0 -24.63 206269.7188 -1547.4907)">
	<stop  offset="0" style="stop-color:#62336E"/>
	<stop  offset="1" style="stop-color:#62336E"/>
</linearGradient>
<path style="fill:url(#SVGID_00000146498978837793565240000000706208590012762267_);" d="M822.1,298.4c-0.2,0.5-0.7,2-1.1,3.5
	l-0.6,2.8h6.4c14.3,0,39.1,3.4,55.6,7.7c7.6,1.9,19.7,6.3,27.6,9.9c1.2,0.5,3-6.3,2-7.3c-0.3-0.3-86.9-17.1-89.3-17.3
	C822.6,297.7,822.3,298,822.1,298.4L822.1,298.4z"/>
<linearGradient id="SVGID_00000011724924459126161570000009824251779561962170_" gradientUnits="userSpaceOnUse" x1="-2222.0325" y1="-43.9199" x2="-2221.0325" y2="-43.9199" gradientTransform="matrix(62.43 0 0 -42.11 139439.6406 -1520.1172)">
	<stop  offset="0" style="stop-color:#60144A"/>
	<stop  offset="1" style="stop-color:#60144A"/>
</linearGradient>
<path style="fill:url(#SVGID_00000011724924459126161570000009824251779561962170_);" d="M733,308.8c-5.3,0.9-14.7,5.2-17.2,8.1
	c-1.4,1.4-1.4,1.8-0.3,1.9c18,0.8,24.7,1.8,31.2,4.8c8.3,3.8,11.6,6.7,17.5,15.1c2.6,3.6,5,6.6,5.4,6.8c0.5,0.2,0.8,1.2,0.8,2.2
	c0,1.2,1,2,3.2,2.4c1.7,0.3,3.3,0.4,3.5,0.2s-0.3-3.5-1.1-7.3C771.1,319.5,753.4,305.4,733,308.8z"/>
<linearGradient id="SVGID_00000057144131878479688810000014830405541117783956_" gradientUnits="userSpaceOnUse" x1="-2237.2974" y1="-16.1337" x2="-2237.1475" y2="-17.1035" gradientTransform="matrix(98.34 0 0 -109.68 220889.8281 -1418.1816)">
	<stop  offset="0" style="stop-color:#2F1241"/>
	<stop  offset="1" style="stop-color:#401551"/>
</linearGradient>
<path style="fill:url(#SVGID_00000057144131878479688810000014830405541117783956_);" d="M910.1,345.4c-0.2,0.4-1.9,5.9-3.7,12.1
	c-3.2,11-3.3,11.3-5.9,10.8c-1.4-0.3-14.1-2.1-28.1-4.1c-14-1.9-26.4-3.7-27.5-4c-1.7-0.3-2.7,0.7-5.3,5.4c-3.5,6.5-3.9,8.6-1.7,9.5
	c0.8,0.3,1.5,1.4,1.5,2.5c0,1.4,0.9,2.1,3.3,2.6c6.3,1.3,6.8,1.6,6.5,3.8c-0.3,1.9-1,2.2-5.3,2.3c-6.3,0.1-12,2.6-12.9,5.6
	c-1.1,4.2-0.6,20.2,0.9,27.3c2,9.6,8.5,22.5,13.5,26.8c6.7,5.7,13.8,7.9,27.2,8.5c11.3,0.4,12,0.3,17.5-2.3
	c7.6-3.7,20.6-16.7,26.2-26.2c2.4-4,6.1-12.3,8.3-18.5c3.8-10.7,4-12,4.1-23.8c0.2-9.5-0.2-13.9-1.6-18.5c-2-6.5-9.1-18.1-11.6-18.8
	c-0.9-0.3-2.3-0.8-3.2-1.2C911.3,344.9,910.4,344.9,910.1,345.4L910.1,345.4z"/>
<linearGradient id="SVGID_00000047030066428364571540000012894252504860288153_" gradientUnits="userSpaceOnUse" x1="-2235.7402" y1="-77.5292" x2="-2234.7402" y2="-77.5292" gradientTransform="matrix(91.68 0 0 -24 205798.7812 -1566)">
	<stop  offset="0" style="stop-color:#62336E"/>
	<stop  offset="1" style="stop-color:#62336E"/>
</linearGradient>
<path style="fill:url(#SVGID_00000047030066428364571540000012894252504860288153_);" d="M825.4,283.9c0,0.7-0.3,2.2-0.6,3.4
	c-0.5,2-0.1,2.1,13.3,2.7c15.7,0.8,30.7,2.8,43.2,5.7c9.4,2.3,24.8,7.3,29.2,9.6c1.6,0.8,3.2,1.4,3.7,1.4c0.9,0,2.7-6.8,2-7.5
	c-0.3-0.4-88.2-16.5-89.8-16.5C825.9,282.7,825.4,283.3,825.4,283.9L825.4,283.9z"/>
<linearGradient id="SVGID_00000146460384588407111340000008908606909177034882_" gradientUnits="userSpaceOnUse" x1="-2236.1257" y1="-73.1919" x2="-2235.1257" y2="-73.1919" gradientTransform="matrix(92.9 0 0 -25.38 208563.7812 -1579.2212)">
	<stop  offset="0" style="stop-color:#62336E"/>
	<stop  offset="1" style="stop-color:#62336E"/>
</linearGradient>
<path style="fill:url(#SVGID_00000146460384588407111340000008908606909177034882_);" d="M828.7,270.1l-1,4.3l17.6,0.6
	c26.6,0.8,46.9,5,65,13.3c4.1,1.9,7.8,3.1,8.2,2.7c0.5-0.5,1.1-2.6,1.5-4.9l0.6-4.1l-3.8-0.6c-2.2-0.3-22.2-3.9-44.6-8.1
	c-22.3-4.2-41-7.6-41.5-7.6S829.3,267.7,828.7,270.1L828.7,270.1z"/>
<linearGradient id="SVGID_00000032632979320970705240000018061205846907768236_" gradientUnits="userSpaceOnUse" x1="-2181.1775" y1="-186.77" x2="-2180.1775" y2="-186.77" gradientTransform="matrix(32 0 0 -10 70434 -1676)">
	<stop  offset="0" style="stop-color:#A82274"/>
	<stop  offset="1" style="stop-color:#A82274"/>
</linearGradient>
<path style="fill:url(#SVGID_00000032632979320970705240000018061205846907768236_);" d="M636.4,191.7v5h32v-10h-32V191.7z"/>
<linearGradient id="SVGID_00000178895368610390736580000016609193905397608343_" gradientUnits="userSpaceOnUse" x1="-2219.5286" y1="-32.9001" x2="-2218.5386" y2="-33.24" gradientTransform="matrix(58.97 0 0 -55.86 131801.7188 -1615.2188)">
	<stop  offset="0" style="stop-color:#E7381E"/>
	<stop  offset="1" style="stop-color:#E37358"/>
</linearGradient>
<path style="fill:url(#SVGID_00000178895368610390736580000016609193905397608343_);" d="M928.4,204.4c-2.9,1.1-8.2,6.9-10.7,11.7
	c-3.7,7.2-4.4,21.8-1.4,29.7c4.1,10.9,11.8,14.7,27.7,13.7c8.9-0.6,14.6-3.2,21.8-10.2c6.5-6.3,7.6-9.6,7.6-22.1
	c-0.1-15.4-3.8-20.5-16.5-22.4C949.2,203.7,931.1,203.4,928.4,204.4L928.4,204.4z M966.2,210.9c3.5,3,5.5,9.2,5.5,17.3
	c-0.1,10.1-1.7,14-9.2,21.5c-4.6,4.7-6.8,6.2-11.5,7.5c-11.2,3.3-19,0.5-20.2-7.3c-1.6-10.2,2.4-22.2,10.5-32
	C948.5,209.2,960.2,205.9,966.2,210.9z"/>
<linearGradient id="SVGID_00000172430374333639413680000002657435078994673798_" gradientUnits="userSpaceOnUse" x1="-2251.5154" y1="-8.3074" x2="-2250.5154" y2="-8.3074" gradientTransform="matrix(198.85 0 0 -212.45 448131.7188 -1460.8555)">
	<stop  offset="0" style="stop-color:#532066"/>
	<stop  offset="1" style="stop-color:#532066"/>
</linearGradient>
<path style="fill:url(#SVGID_00000172430374333639413680000002657435078994673798_);" d="M479.4,199.3c-7.3,2-19.4,8.1-23.9,12.2
	c-2,1.8-4.7,4.3-6.1,5.6c-8,7.3-21,25-21,28.6c0,0.8,1.5-1,3.3-4c6.1-10,8.7-13.4,16-20.9c15.1-15.4,29.7-22.1,48.2-22.1
	c20.1,0.1,36.1,10.6,49.4,32.8c21.5,35.8,17.7,92.1-9,132.6c-10.8,16.3-26.2,29.5-39.5,33.6c-4.5,1.4-9.4,2-15.4,2
	c-8.1,0-9.3-0.3-16-3.7c-8.9-4.4-19.4-14.4-26.8-25.5c-2.9-4.2-5.2-8.2-5.2-8.8c0-0.5-0.4-1-0.8-1c-0.9,0-2.1-2.9-7.2-17.5
	c-2.2-6.1-3.9-10.1-3.9-9c-0.1,2.8,6,20,9,25.5c5,9.3,10.7,17.8,15.3,23c7.4,8.3,22.5,18,28.1,18c1.1,0,4.9,0.9,8.4,2
	c16.4,5.2,50,9.1,60.4,7c26.1-5,51.1-26,65-54.5c4.5-9.4,9.4-25,11.3-36.4c2.4-15,1.5-37.1-2-50c-2.8-10-8.2-21.8-13.7-29.8
	c-8.6-12.4-22-23.7-32.9-27.5C540.4,200.8,496,194.9,479.4,199.3L479.4,199.3z"/>
<linearGradient id="SVGID_00000096051151378591227320000005595968389215950750_" gradientUnits="userSpaceOnUse" x1="-2229.6318" y1="-37.4568" x2="-2229.4219" y2="-38.2168" gradientTransform="matrix(76.55 0 0 -48.9 171233.9062 -1494.0996)">
	<stop  offset="0" style="stop-color:#320D48"/>
	<stop  offset="1" style="stop-color:#3D1652"/>
</linearGradient>
<path style="fill:url(#SVGID_00000096051151378591227320000005595968389215950750_);" d="M572.4,338.4l-24.5,8.7l-4.5,8
	c-2.5,4.4-7.1,11.5-10.2,15.8l-5.7,7.7l4.6-2c8.9-3.8,53.8-21.8,55.2-22.1c0.8-0.2,2.2,2.1,3.7,6.2c1.4,3.6,2.9,7.6,3.4,8.9l1.1,2.3
	l2.7-3.5c1.5-1.9,3.6-5.3,4.6-7.5c1.8-4,1.8-4.2-0.9-15.9c-3.3-14.7-3.5-15.3-4.3-15.3C597.2,329.8,585.9,333.7,572.4,338.4
	L572.4,338.4z"/>
<linearGradient id="SVGID_00000114786450859714535420000016777531765446614679_" gradientUnits="userSpaceOnUse" x1="-2180.116" y1="-74.7682" x2="-2179.1162" y2="-74.7682" gradientTransform="matrix(31.6 0 0 -24.9 69618.9062 -1457.48)">
	<stop  offset="0" style="stop-color:#350F4B"/>
	<stop  offset="1" style="stop-color:#350F4B"/>
</linearGradient>
<path style="fill:url(#SVGID_00000114786450859714535420000016777531765446614679_);" d="M749.6,395.4c-9.2,3.6-9.4,3.7-12.2,9.2
	c-1.6,3.1-3.9,7.1-5.1,8.8c-1.1,1.8-1.9,3.3-1.6,3.3c0.2,0,5.2-2.3,11.1-5c5.9-2.8,11.3-5,12-5s1.9,2.1,2.7,4.7l1.5,4.7l2.3-4
	c2-3.3,2.2-4.8,1.7-9.7c-0.7-6.9-1.6-10.7-2.5-10.6C759.2,391.8,754.7,393.4,749.6,395.4z"/>
<linearGradient id="SVGID_00000177450137527088391640000003676134062616879285_" gradientUnits="userSpaceOnUse" x1="-2199.5757" y1="-623.7333" x2="-2198.5757" y2="-623.7333" gradientTransform="matrix(41 0 0 -3 90908 -1653)">
	<stop  offset="0" style="stop-color:#BC292F"/>
	<stop  offset="1" style="stop-color:#BC292F"/>
</linearGradient>
<path style="fill:url(#SVGID_00000177450137527088391640000003676134062616879285_);" d="M725.4,218.2c0,1.3,2.9,1.5,20.5,1.5
	s20.5-0.2,20.5-1.5s-2.9-1.5-20.5-1.5C728.3,216.7,725.4,216.9,725.4,218.2z"/>
<linearGradient id="SVGID_00000167387214534340783130000017887533464019854755_" gradientUnits="userSpaceOnUse" x1="-2241.02" y1="-13.1131" x2="-2240.02" y2="-13.1131" gradientTransform="matrix(111.87 0 0 -137.41 251222.75 -1544.2656)">
	<stop  offset="0" style="stop-color:#611349"/>
	<stop  offset="1" style="stop-color:#611349"/>
</linearGradient>
<path style="fill:url(#SVGID_00000167387214534340783130000017887533464019854755_);" d="M535.4,191c-4.1,1.3-10,3.6-13,5.2
	l-5.5,2.8l11,1.8c6.1,1,15.1,2.9,20.2,4.2c6.9,1.7,9.4,2,9.7,1.1c0.6-1.6,5-0.5,15.3,3.9c8.3,3.5,17.4,10,24.7,17.6
	c7.5,7.7,16.4,24.5,21,39.6c1.6,4.9,3.5,11.2,4.3,13.9c1.3,4.1,1.5,8.8,1.1,26.5c-0.6,22.7,0,24.3,2.8,7.2
	c2.7-16.6,2.2-54.1-0.7-54.1c-0.5,0-0.9-0.9-0.9-1.9c0-3.8-6.2-20.7-10.5-28.8c-10.1-19.1-23.2-31.4-40.3-38
	c-5.6-2.2-8.7-2.7-19.2-3C544.5,188.7,541.9,189,535.4,191L535.4,191z"/>
<linearGradient id="SVGID_00000006697701544868144530000001682615860634224261_" gradientUnits="userSpaceOnUse" x1="-2219.1926" y1="-31.3967" x2="-2218.8027" y2="-32.3967" gradientTransform="matrix(58.92 0 0 -58.04 131332.2344 -1563.4082)">
	<stop  offset="0" style="stop-color:#3E0E54"/>
	<stop  offset="1" style="stop-color:#4C1860"/>
</linearGradient>
<path style="fill:url(#SVGID_00000006697701544868144530000001682615860634224261_);" d="M578.6,260.7l-18.2,11.9v11
	c0,6.3,0.4,11.2,1,11.6c0.6,0.3,9.6-4,20.1-9.6c10.4-5.6,19.1-10,19.3-9.8s4.1,7.7,8.7,16.7c9.4,18.3,9.7,18.4,9.8,3.5
	c0.1-9,0-9.4-4.2-17.5c-8.5-16.4-16.2-29.8-17.2-29.8C597.3,248.7,588.7,254.1,578.6,260.7L578.6,260.7z"/>
<linearGradient id="SVGID_00000152958903557570904020000017395243317939691152_" gradientUnits="userSpaceOnUse" x1="-2245.6177" y1="-8.4299" x2="-2245.0676" y2="-9.3299" gradientTransform="matrix(140.41 0 0 -200.99 315763.0312 -1475.6758)">
	<stop  offset="0" style="stop-color:#84507E"/>
	<stop  offset="1" style="stop-color:#65197F"/>
</linearGradient>
<path style="fill:url(#SVGID_00000152958903557570904020000017395243317939691152_);" d="M480.7,200.2c-11.7,3.2-22.5,10-33,20.6
	c-12.8,13.1-21.1,28-26.5,47.9c-2.1,7.7-2.3,10.6-2.3,30.5c0.1,24.4,1,30,8.2,48.9c1.9,5,3.7,9.9,4,10.8c0.3,1,0.9,1.8,1.4,1.8
	s0.9,0.5,0.9,1c0,0.6,2.3,4.6,5.2,8.8c7.4,11.1,17.9,21.1,26.8,25.5c6.7,3.4,7.9,3.7,16,3.7c11.4,0,19.7-2.5,29.3-9
	c33.1-22.1,54.2-76.6,47.3-121.7c-5-33.1-23.2-59.7-46.4-67.9C503.7,198.3,489.3,197.9,480.7,200.2L480.7,200.2z"/>
<linearGradient id="SVGID_00000007430392395908141280000000022927475053194396_" gradientUnits="userSpaceOnUse" x1="-2231.0073" y1="-15.7571" x2="-2230.2175" y2="-16.517" gradientTransform="matrix(79.36 0 0 -113.09 177521.5469 -1518.9531)">
	<stop  offset="0" style="stop-color:#8569C0"/>
	<stop  offset="1" style="stop-color:#BBB3F5"/>
</linearGradient>
<path style="fill:url(#SVGID_00000007430392395908141280000000022927475053194396_);" d="M490,239.8c-6.3,1-10.5,2.7-13.6,5.4
	c-1.4,1.1-4.1,3.1-6,4.4c-3.9,2.6-10.9,12.1-13.9,19.2c-10.1,23-4.3,56,13,73.9c6.3,6.5,12,9.3,19.1,9.3c16,0,32.3-16.7,40-41.3
	c2-6.5,2.3-9.5,2.3-22.5c-0.1-14.7-0.1-15.1-3.2-21.7c-5.8-12.4-14.3-22-22.5-25.7C500.3,238.6,497.9,238.4,490,239.8L490,239.8z"/>
<linearGradient id="SVGID_00000170992926408361514440000016833655638583765164_" gradientUnits="userSpaceOnUse" x1="-2161.6365" y1="-53.6053" x2="-2160.6365" y2="-53.6053" gradientTransform="matrix(25.95 0 0 -34.66 56599.5742 -1609.6299)">
	<stop  offset="0" style="stop-color:#542260"/>
	<stop  offset="1" style="stop-color:#542260"/>
</linearGradient>
<path style="fill:url(#SVGID_00000170992926408361514440000016833655638583765164_);" d="M503.4,234.5c0,3.6,0.3,4.1,3.8,5.7
	c6.8,3.2,14.9,12.3,19.9,22.5c2.9,5.8,3,2.5,0.3-4.9c-2.8-7.2-5.7-12.9-8.6-16.8c-2.7-3.5-9.5-8.6-13.1-9.7
	C503.6,230.6,503.4,230.9,503.4,234.5z"/>
<linearGradient id="SVGID_00000021830789709274046520000015226065148689509565_" gradientUnits="userSpaceOnUse" x1="-2222.1545" y1="-33.2697" x2="-2221.1545" y2="-33.2697" gradientTransform="matrix(62.61 0 0 -55.51 139574.7969 -1617.0596)">
	<stop  offset="0" style="stop-color:#FF92F9;stop-opacity:0.16"/>
	<stop  offset="1" style="stop-color:#FF92F9;stop-opacity:0.16"/>
</linearGradient>
<path style="fill:url(#SVGID_00000021830789709274046520000015226065148689509565_);" d="M479.6,203.6
	c-15.4,4.5-30.6,15.1-35.3,24.7c-3.8,8-0.6,18.2,8.2,25.7l4.1,3.5l5.2-6.1c11.4-13.5,24.1-20.7,36.3-20.7h6.2l0.7-4.6
	c0.9-6-0.1-17.6-1.8-21.1c-1.3-2.7-1.7-2.8-9.3-3C488.6,201.9,483.8,202.4,479.6,203.6L479.6,203.6z"/>
<linearGradient id="SVGID_00000181798042871978108310000001022062709009818534_" gradientUnits="userSpaceOnUse" x1="-2236.9661" y1="-33.2813" x2="-2237.0161" y2="-34.1914" gradientTransform="matrix(97.45 0 0 -54.66 218769.7344 -1497.999)">
	<stop  offset="0" style="stop-color:#FFFFFF;stop-opacity:0.96"/>
	<stop  offset="1" style="stop-color:#FFFFFF"/>
</linearGradient>
<path style="fill:url(#SVGID_00000181798042871978108310000001022062709009818534_);" d="M735.9,322.1c13,3.6,15.5,4.8,21.2,10.9
	c8.1,8.6,14.3,23,14.3,33.5v4.1l5.3,0.5c2.8,0.3,11.9,1.2,20.2,2.1c14.9,1.5,15,1.5,16.5-0.6c1.3-1.7,2.3-1.9,5.2-1.4l3.5,0.7
	l1.3-6.7c0.7-3.6,1.1-6.7,0.9-6.9s-7.8-1.1-16.8-2c-10.2-1.1-16.8-2.2-17.6-3c-0.8-0.7-4.2-1.6-7.7-2c-10.2-1.2-11.8-1.7-11.8-3.6
	c0-1-0.3-2-0.8-2.2c-0.4-0.2-2.8-3.2-5.4-6.8c-2.5-3.6-6-7.7-7.6-9.2c-5.2-4.6-15.9-8.9-23.2-9.4l-6.5-0.5L735.9,322.1z"/>
<linearGradient id="SVGID_00000031199704270570919720000011740965756225979295_" gradientUnits="userSpaceOnUse" x1="-2188.3582" y1="-59.8942" x2="-2187.3582" y2="-59.8942" gradientTransform="matrix(35 0 0 -31.06 77271 -1524.0806)">
	<stop  offset="0" style="stop-color:#FF8FF8;stop-opacity:0.18"/>
	<stop  offset="1" style="stop-color:#FF8FF8;stop-opacity:0.18"/>
</linearGradient>
<path style="fill:url(#SVGID_00000031199704270570919720000011740965756225979295_);" d="M696.6,322.7
	c-11.5,4.1-18.2,10.5-18.2,17.3c0,4.3,2.2,8.6,5.5,11.1c1.7,1.2,2.2,1,4.7-2.5c5.4-7.4,14.6-12.5,21.4-11.7l3.4,0.4v-6.4
	c0-8.8-0.9-10.2-6.8-10.2C704,320.8,699.5,321.6,696.6,322.7L696.6,322.7z"/>
<linearGradient id="SVGID_00000122707196196931217210000008566222958895291022_" gradientUnits="userSpaceOnUse" x1="-1976.7162" y1="-116.1379" x2="-1975.7162" y2="-116.1379" gradientTransform="matrix(10.7 0 0 -14.49 22384.3711 -1501.5698)">
	<stop  offset="0" style="stop-color:#FFFFFF"/>
	<stop  offset="1" style="stop-color:#FFFFFF"/>
</linearGradient>
<path style="fill:url(#SVGID_00000122707196196931217210000008566222958895291022_);" d="M1235.7,177.4c-0.5,2-1.3,5.4-1.7,7.4
	c-0.6,3.5-0.4,3.8,1.7,3.7c1.9,0,3.1-1.4,5.7-6.6c1.7-3.7,3.1-6.7,3-6.8c-0.2-0.1-2-0.5-4-0.8
	C1236.8,173.7,1236.6,173.8,1235.7,177.4L1235.7,177.4z"/>
<linearGradient id="SVGID_00000049218449278102165730000000961524474743480456_" gradientUnits="userSpaceOnUse" x1="-2252.825" y1="-8.3399" x2="-2251.825" y2="-8.3399" gradientTransform="matrix(198.85 0 0 -212.45 448131.7188 -1460.8555)">
	<stop  offset="0" style="stop-color:#532066"/>
	<stop  offset="1" style="stop-color:#532066"/>
</linearGradient>
<path style="fill:url(#SVGID_00000049218449278102165730000000961524474743480456_);" d="M217.6,206.2c-7.3,2-19.4,8.1-23.9,12.2
	c-2,1.8-4.7,4.3-6.1,5.6c-8,7.3-21,25-21,28.6c0,0.8,1.5-1,3.3-4c6.1-10,8.7-13.4,16-20.9c15.1-15.4,29.7-22.1,48.2-22.1
	c20.1,0.1,36.1,10.6,49.4,32.8c21.5,35.8,17.7,92.1-9,132.6c-10.8,16.3-26.2,29.5-39.5,33.6c-4.5,1.4-9.4,2-15.4,2
	c-8.1,0-9.3-0.3-16-3.7c-8.9-4.4-19.4-14.4-26.8-25.5c-2.9-4.2-5.2-8.2-5.2-8.8c0-0.5-0.4-1-0.8-1c-0.9,0-2.1-2.9-7.2-17.5
	c-2.2-6.1-3.9-10.1-3.9-9c-0.1,2.8,6,20,9,25.5c5,9.3,10.7,17.8,15.3,23c7.4,8.3,22.5,18,28.1,18c1.1,0,4.9,0.9,8.4,2
	c16.4,5.2,50,9.1,60.4,7c26.1-5,51.1-26,65-54.5c4.5-9.4,9.4-25,11.3-36.4c2.4-15,1.5-37.1-2-50c-2.8-10-8.2-21.8-13.7-29.8
	c-8.6-12.4-22-23.7-32.9-27.5C278.6,207.7,234.2,201.8,217.6,206.2L217.6,206.2z"/>
<linearGradient id="SVGID_00000036940868077630301830000011434409628936570504_" gradientUnits="userSpaceOnUse" x1="-2248.5181" y1="-8.5467" x2="-2247.9683" y2="-9.4466" gradientTransform="matrix(140.41 0 0 -200.99 315763.0312 -1475.6758)">
	<stop  offset="0" style="stop-color:#84507E"/>
	<stop  offset="1" style="stop-color:#65197F"/>
</linearGradient>
<path style="fill:url(#SVGID_00000036940868077630301830000011434409628936570504_);" d="M73.6,224c-11.7,3.2-22.5,10-33,20.6
	c-12.8,13.1-21.1,28-26.5,47.9c-2.1,7.7-2.3,10.6-2.3,30.5c0.1,24.4,1,30,8.2,48.9c1.9,5,3.7,9.9,4,10.8c0.3,1,0.9,1.8,1.4,1.8
	s0.9,0.5,0.9,1c0,0.6,2.3,4.6,5.2,8.8c7.4,11.1,17.9,21.1,26.8,25.5c6.7,3.4,7.9,3.7,16,3.7c11.4,0,19.7-2.5,29.3-9
	c33.1-22.1,54.2-76.6,47.3-121.7c-5-33.1-23.2-59.7-46.4-67.9C96.6,222.1,82.2,221.7,73.6,224L73.6,224z"/>
<linearGradient id="SVGID_00000034806233119038085950000017734192969907543972_" gradientUnits="userSpaceOnUse" x1="-2177.4419" y1="-52.5839" x2="-2176.4419" y2="-52.5839" gradientTransform="matrix(25.95 0 0 -34.66 56599.5742 -1609.6299)">
	<stop  offset="0" style="stop-color:#542260"/>
	<stop  offset="1" style="stop-color:#542260"/>
</linearGradient>
<path style="fill:url(#SVGID_00000034806233119038085950000017734192969907543972_);" d="M93.4,199.1c0,3.6,0.3,4.1,3.8,5.7
	c6.8,3.2,14.9,12.3,19.9,22.5c2.9,5.8,3,2.5,0.3-4.9c-2.8-7.2-5.7-12.9-8.6-16.8c-2.7-3.5-9.5-8.6-13.1-9.7
	C93.6,195.2,93.4,195.5,93.4,199.1L93.4,199.1z"/>
<linearGradient id="SVGID_00000140013078250466981100000006981449306961472151_" gradientUnits="userSpaceOnUse" x1="-2228.9739" y1="-32.877" x2="-2227.9739" y2="-32.877" gradientTransform="matrix(62.61 0 0 -55.51 139574.7969 -1617.0596)">
	<stop  offset="0" style="stop-color:#FF92F9;stop-opacity:0.16"/>
	<stop  offset="1" style="stop-color:#FF92F9;stop-opacity:0.16"/>
</linearGradient>
<path style="fill:url(#SVGID_00000140013078250466981100000006981449306961472151_);stroke:#000000;stroke-miterlimit:10;" d="
	M53,181.8c-15.4,4.5-30.6,15.1-35.3,24.7c-3.8,8-0.6,18.2,8.2,25.7l4.1,3.5l5.2-6.1c11.4-13.5,24.1-20.7,36.3-20.7h6.2l0.7-4.6
	c0.9-6-0.1-17.6-1.8-21.1c-1.3-2.7-1.7-2.8-9.3-3C62,180.1,57.2,180.6,53,181.8L53,181.8z"/>
<g>
	<rect x="423.6" y="181.6" class="st54" width="100.7" height="82.3"/>
</g>
<linearGradient id="SVGID_00000088110541684030418350000012909393493763395971_" gradientUnits="userSpaceOnUse" x1="-2238.2844" y1="-21.2047" x2="-2238.4043" y2="-22.1039" gradientTransform="matrix(110.18 0 0 -85.53 247691.6562 -1526.7031)">
	<stop  offset="0" style="stop-color:#550837"/>
	<stop  offset="1" style="stop-color:#581B6C"/>
</linearGradient>
<path style="fill:url(#SVGID_00000088110541684030418350000012909393493763395971_);" d="M1032.5,282.3
	c-1.5,4.6-17.2,70.1-16.8,70.4c0.1,0.1,21.1,3.1,46.5,6.5c35.5,4.9,46.5,6.1,47.1,5.1c0.4-0.6,3.8-13.9,7.5-29.4
	c3.7-15.6,7.4-30.1,8.2-32.2s1.1-4.3,0.7-4.7c-1.1-1.1-16.9-5.2-34.3-8.9c-14.1-3-53.6-10-56.4-10
	C1034.2,279.1,1033.1,280.6,1032.5,282.3L1032.5,282.3z M1074.2,295.7c22.4,4.2,42.4,7.8,44.6,8.1l3.8,0.6l-0.6,4.1
	c-0.4,2.3-1,4.4-1.5,4.9c-0.4,0.4-4.1-0.8-8.2-2.7c-18.1-8.3-38.4-12.5-65-13.3l-17.6-0.6l1-4.3c0.6-2.4,1.5-4.4,2-4.4
	S1051.9,291.5,1074.2,295.7L1074.2,295.7z M1073.7,313.2c24.3,4.4,44.3,8.2,44.5,8.4c0.7,0.7-1.1,7.5-2,7.5c-0.5,0-2.1-0.6-3.7-1.4
	c-4.4-2.3-19.8-7.3-29.2-9.6c-12.5-2.9-27.5-4.9-43.2-5.7c-13.4-0.6-13.8-0.7-13.3-2.7c0.3-1.2,0.6-2.7,0.6-3.4c0-0.6,0.5-1.2,1-1.2
	C1029,305.1,1049.3,308.7,1073.7,313.2L1073.7,313.2z M1069.2,328.5c24.4,4.6,44.6,8.6,44.8,8.9c1,1-0.8,7.8-2,7.3
	c-7.9-3.6-20-8-27.6-9.9c-16.5-4.3-41.3-7.7-55.6-7.7h-6.4l0.6-2.8c0.6-2.6,1.3-4.2,1.7-4.2C1024.8,320.1,1044.8,323.9,1069.2,328.5
	L1069.2,328.5z"/>
<linearGradient id="SVGID_00000031889600885963385060000015595683505099432843_" gradientUnits="userSpaceOnUse" x1="-2232.4026" y1="-77.3002" x2="-2231.4026" y2="-77.3002" gradientTransform="matrix(91.89 0 0 -24.63 206269.7188 -1547.4907)">
	<stop  offset="0" style="stop-color:#62336E"/>
	<stop  offset="1" style="stop-color:#62336E"/>
</linearGradient>
<path style="fill:url(#SVGID_00000031889600885963385060000015595683505099432843_);" d="M1135.2,344.8c-0.2,0.5-0.7,2-1.1,3.5
	l-0.6,2.8h6.4c14.3,0,39.1,3.4,55.6,7.7c7.6,1.9,19.7,6.3,27.6,9.9c1.2,0.5,3-6.3,2-7.3c-0.3-0.3-86.9-17.1-89.3-17.3
	C1135.7,344.1,1135.4,344.4,1135.2,344.8L1135.2,344.8z"/>
<linearGradient id="SVGID_00000152224381117184512340000012549329284990844078_" gradientUnits="userSpaceOnUse" x1="-2232.325" y1="-79.4625" x2="-2231.325" y2="-79.4625" gradientTransform="matrix(91.68 0 0 -24 205798.7812 -1566)">
	<stop  offset="0" style="stop-color:#62336E"/>
	<stop  offset="1" style="stop-color:#62336E"/>
</linearGradient>
<path style="fill:url(#SVGID_00000152224381117184512340000012549329284990844078_);" d="M1138.5,330.3c0,0.7-0.3,2.2-0.6,3.4
	c-0.5,2-0.1,2.1,13.3,2.7c15.7,0.8,30.7,2.8,43.2,5.7c9.4,2.3,24.8,7.3,29.2,9.6c1.6,0.8,3.2,1.4,3.7,1.4c0.9,0,2.7-6.8,2-7.5
	c-0.3-0.4-88.2-16.5-89.8-16.5C1139,329.1,1138.5,329.7,1138.5,330.3L1138.5,330.3z"/>
<linearGradient id="SVGID_00000009588216666278214850000002627894046727429533_" gradientUnits="userSpaceOnUse" x1="-2232.7554" y1="-75.0201" x2="-2231.7554" y2="-75.0201" gradientTransform="matrix(92.9 0 0 -25.38 208563.7812 -1579.2212)">
	<stop  offset="0" style="stop-color:#62336E"/>
	<stop  offset="1" style="stop-color:#62336E"/>
</linearGradient>
<path style="fill:url(#SVGID_00000009588216666278214850000002627894046727429533_);" d="M1141.8,316.5l-1,4.3l17.6,0.6
	c26.6,0.8,46.9,5,65,13.3c4.1,1.9,7.8,3.1,8.2,2.7c0.5-0.5,1.1-2.6,1.5-4.9l0.6-4.1l-3.8-0.6c-2.2-0.3-22.2-3.9-44.6-8.1
	c-22.3-4.2-41-7.6-41.5-7.6S1142.4,314.1,1141.8,316.5L1141.8,316.5z"/>
<g>
	<line class="st4" x1="418.9" y1="234.7" x2="361.4" y2="234.7"/>
	<path d="M343.3,234.7c8.5-3.2,19.1-8.5,25.6-14.3l-5.2,14.3L369,249C362.4,243.3,351.8,237.9,343.3,234.7z"/>
</g>
<rect x="809.5" y="251.2" class="st54" width="134.4" height="106.3"/>
<rect x="1015.9" y="266" transform="matrix(0.1892 -0.9819 0.9819 0.1892 549.1895 1312.0062)" class="st59" width="106.3" height="114.8"/>
<g>
	<g transform="translate(0.000000,455.000000) scale(0.100000,-0.100000)">
		<g>
			
				<linearGradient id="SVGID_00000001663851410510635270000003715635888227047051_" gradientUnits="userSpaceOnUse" x1="-2995.26" y1="-3225.3721" x2="-2994.26" y2="-3225.3721" gradientTransform="matrix(21.8048 0 0 31.1292 72299.125 101213.5547)">
				<stop  offset="0" style="stop-color:#6C47A8"/>
				<stop  offset="1" style="stop-color:#6C47A8"/>
			</linearGradient>
			<path style="fill:url(#SVGID_00000001663851410510635270000003715635888227047051_);" d="M7030,931.5c-35-32-37-38-41-103
				c-3-56,0-78,17-111c37-72,94-83,145-28C7278,823.5,7163,1053.5,7030,931.5z"/>
		</g>
	</g>
	<g transform="translate(0.000000,455.000000) scale(0.100000,-0.100000)">
		<g>
			
				<linearGradient id="SVGID_00000152974954606306320600000004707121510287058355_" gradientUnits="userSpaceOnUse" x1="-3133.4568" y1="-3178.8904" x2="-3134.3967" y2="-3179.6104" gradientTransform="matrix(38 0 0 54.798 124195 175959.7969)">
				<stop  offset="0" style="stop-color:#6B46A7"/>
				<stop  offset="1" style="stop-color:#6D49AA"/>
			</linearGradient>
			<path style="fill:url(#SVGID_00000152974954606306320600000004707121510287058355_);" d="M4890,1832.5c-24-17-55-50-70-72
				c-25-37-27-47-28-150c0-95,3-117,24-162c26-58,86-119,127-129c44-11,113,25,154,79c52,68,74,137,75,228c0,65-5,84-30,135
				c-40,77-80,104-154,104C4941,1865.5,4926,1860.5,4890,1832.5z"/>
		</g>
	</g>
</g>
</svg>
