<?xml version="1.0" encoding="utf-8"?>
<!-- Generator: Adobe Illustrator 26.5.0, SVG Export Plug-In . SVG Version: 6.00 Build 0)  -->
<svg version="1.1" id="图层_1" xmlns="http://www.w3.org/2000/svg" xmlns:xlink="http://www.w3.org/1999/xlink" x="0px" y="0px"
	 viewBox="0 0 2257.1 752" style="enable-background:new 0 0 2257.1 752;" xml:space="preserve">
<style type="text/css">
	.st0{fill:none;}
	.st1{fill:#D3D3D3;}
	.st2{fill:url(#SVGID_00000174581234902913656720000003079159364293618072_);}
	.st3{fill:none;stroke:#000002;stroke-width:3;stroke-miterlimit:10;}
	.st4{fill:#000002;}
	.st5{fill:url(#region-1-1_00000124854334246014566740000015930478581429247635_);}
	.st6{fill:url(#region-1-2_00000178173256075924206770000010661427173519945908_);}
	.st7{fill:url(#region-1-3_00000041261307770126436200000014596205151370169751_);}
	.st8{fill:url(#region-1-4_00000052096243246571309970000011840212415540343698_);}
	.st9{fill:url(#region-1-5_00000153686046934996552890000013737098076664335768_);}
	.st10{fill:url(#region-1-6_00000068650857280941231500000017801404874275325629_);}
	.st11{fill:url(#region-2-1_00000023251953705824499130000017845644823974108087_);}
	.st12{fill:url(#region-2-2_00000016763201964196046900000011668642452692244653_);}
	.st13{fill:url(#region-2-3_00000039106049516045076600000016682652513083318445_);}
	.st14{fill:url(#region-2-4_00000086663390044675579490000000945850251141746610_);}
	.st15{fill:url(#region-2-5_00000178899361508209771990000015963135912962597546_);}
	.st16{fill:url(#region-2-6_00000031928738857694643750000017584406364452358017_);}
	.st17{fill:url(#region-2-7_00000113339136967866720140000002557050472061045136_);}
	.st18{fill:url(#region-2-8_00000103251380347317839560000009880353579117829036_);}
	.st19{fill:url(#region-2-9_00000021095360055102695250000014611141890218291840_);}
	.st20{fill:url(#region-2-10_00000162319155362067511600000013378303326997634979_);}
	.st21{fill:url(#region-2-11_00000037687883048067982610000009108015107510429325_);}
	.st22{fill:url(#region-3-1_00000168076761680414619000000000212348517938176188_);}
	.st23{fill:url(#region-3-2_00000014592507991237418600000001646446502394737083_);}
	.st24{fill:url(#region-3-3_00000146495096137733330180000014608984581306895796_);}
	.st25{fill:url(#region-3-4_00000039125470685903230830000006338565047377139596_);}
	.st26{fill:url(#region-3-5_00000041253891449684891180000016560220997465136808_);}
	.st27{fill:url(#region-1-6-2_00000051378806505698119930000015973551250772243099_);}
	.st28{fill:url(#region-2-3-2_00000039852550367250002560000004065374551892468616_);}
	.st29{fill:url(#region-2-10-2_00000102545003749547701470000005461161083910214556_);stroke:#000000;stroke-miterlimit:10;}
	.st30{fill:url(#region-3-4-2_00000010302747811113350320000005888270288601851522_);stroke:#000000;stroke-miterlimit:10;}
	.st31{fill:url(#region-3-5-2_00000024697322630114924000000004403885129476518575_);stroke:#000000;stroke-miterlimit:10;}
	.st32{fill:none;stroke:#1F00FC;stroke-width:4;stroke-miterlimit:10;}
</style>
<pattern  y="752" width="40" height="40" patternUnits="userSpaceOnUse" id="SVGID_1_" viewBox="0 -40 40 40" style="overflow:visible;">
	<g>
		<rect y="-40" class="st0" width="40" height="40"/>
		<g>
			<rect y="-40" class="st0" width="40" height="40"/>
			<g>
				<rect y="-40" class="st0" width="40" height="40"/>
				<g>
					<rect y="-40" class="st0" width="40" height="40"/>
					<rect y="-40" class="st0" width="40" height="40"/>
					<rect y="-20" class="st1" width="20" height="20"/>
					<rect x="20" y="-40" class="st1" width="20" height="20"/>
				</g>
			</g>
		</g>
	</g>
</pattern>
<g id="_图层_1">
	
		<pattern  id="SVGID_00000008148520488025758520000001696037988474732697_" xlink:href="#SVGID_1_" patternTransform="matrix(1 0 0 -1 201 -33393.2422)">
	</pattern>
	<rect style="fill:url(#SVGID_00000008148520488025758520000001696037988474732697_);" width="2257.1" height="752"/>
</g>
<g>
	<line class="st3" x1="555.8" y1="642" x2="679.2" y2="642"/>
	<path class="st4" d="M701.1,642c-10.3,3.2-23.1,8.5-31,14.3l6.3-14.3l-6.3-14.3C678,633.4,690.8,638.8,701.1,642z"/>
</g>
<g id="layer-1">
	
		<linearGradient id="region-1-1_00000062156501333956931960000005974148417237317271_" gradientUnits="userSpaceOnUse" x1="-873.1904" y1="917.1982" x2="-872.6703" y2="918.6582" gradientTransform="matrix(582.93 0 0 375.51 509199.9375 -344437.625)">
		<stop  offset="0" style="stop-color:#474B58;stop-opacity:0.99"/>
		<stop  offset="1" style="stop-color:#303442;stop-opacity:0.99"/>
	</linearGradient>
	<path id="region-1-1" style="fill:url(#region-1-1_00000062156501333956931960000005974148417237317271_);" d="M288.9,17.4
		c-0.2,0.3-13.5,0.9-29.4,1.6c-44.1,1.6-78.8,5-103,10C88,43.1,44,71.1,23.4,113.5c-4.9,10.3-9.7,26-8.9,29.2c0.3,1.2,0,4.2-0.5,6.5
		c-2,7.8-3,27.8-1.9,37.8c5.5,52,33.6,114.5,85.2,189.5c12.5,18.2,11.5,17.5,16,12l3.8-4.5l-5.4-8.3c-2.9-4.5-7-10.4-9-13
		c-2-2.7-3.7-5.3-3.7-5.9c0-1.2-9.6-17.5-12-20.3c-3.6-4.2-25-45.1-25-47.8c0-1.4-3.7-10-9.1-21.3c-1.6-3.3-2.9-6.7-2.9-7.6
		c0-1.5-4.2-14.6-5.9-18.3c-0.5-1.1-1.9-6.5-3.2-12c-1.2-5.5-2.5-10.5-2.9-11c-3.5-4.7-4.7-53.1-1.8-68.8c1-4.9,2.2-9.4,2.7-10.1
		c0.6-0.7,1.7-3.7,2.5-6.7c2-7,9.2-21.1,14.9-29.1c5.1-7.2,24.4-26.4,27.9-27.7c1.3-0.5,4.3-2.4,6.8-4.2c5.8-4.2,34.1-18.4,40-19.9
		c2.5-0.7,5.9-1.8,7.5-2.5c1.7-0.7,5-1.6,7.5-1.9c2.4-0.4,4.9-1.1,5.5-1.5c1.5-1.2,9.9-3.1,13.4-3.1c1.6,0,3.2-0.4,3.6-0.9
		c0.3-0.5,3.1-1.2,6.3-1.6c3.1-0.3,9.3-1.2,13.7-2c8.5-1.5,20.7-2.7,47.5-4.7c22.1-1.7,109-1.7,136.5,0c29,1.8,66.6,6.8,70,9.2
		c0.6,0.4,4.6,1.5,9,2.5c10.5,2.2,22.5,5.7,23.1,6.7c0.3,0.4,1.5,0.8,2.7,0.8s4.9,1.4,8.2,3.1s10.1,4.9,15,7
		c5,2.2,10.6,5.2,12.5,6.7s4.8,3.4,6.4,4.2c4.2,2.2,29.1,26.4,31,30.2c0.8,1.8,3.4,6.2,5.5,9.8c6.6,10.7,7.2,12,8.7,17.8
		c0.8,3,2.1,6.9,2.8,8.6c2.8,6.4,5.1,22.9,5.1,36.6c0,14.8-2,36.9-3.5,38.4c-0.6,0.6-1,2.3-1,3.9c0,3.2-1.9,11.7-3,13.2
		c-0.4,0.5-2.4,6.6-4.4,13.5c-6.3,20.6-7.5,23.8-16.3,42c-4.7,9.6-10.9,22.4-13.8,28.5c-5.3,10.9-19.4,35.4-22.3,38.8
		c-0.8,0.9-5.5,7.9-10.3,15.4l-8.8,13.7l3.7,4c2,2.3,4,4.1,4.4,4.1s5.4-6.8,11.2-15.1c47.8-69.3,74.8-126.1,84.3-177.4
		c2.5-13.7,2.5-46.3,0-57.8c-3.8-17-9.2-29.9-18.7-44c-7.9-11.7-15.6-20-26.4-28.4C508.2,39.3,451.4,23.6,368,20
		c-14-0.6-33.1-1.5-42.5-2C308,16.9,289.7,16.7,288.9,17.4L288.9,17.4z"/>
	
		<linearGradient id="region-1-2_00000107582438455384769860000015673240359184715451_" gradientUnits="userSpaceOnUse" x1="-872.9009" y1="917.3566" x2="-872.8309" y2="918.5067" gradientTransform="matrix(537.93 0 0 351.8 469847.75 -322709)">
		<stop  offset="0" style="stop-color:#000001"/>
		<stop  offset="1" style="stop-color:#020305"/>
	</linearGradient>
	<path id="region-1-2" style="fill:url(#region-1-2_00000107582438455384769860000015673240359184715451_);" d="M256,32.5
		c-0.8,0.2-9.6,0.8-19.5,1.4c-23.3,1.5-38.1,2.9-48,4.6c-4.4,0.8-10.6,1.7-13.7,2c-3.2,0.4-6,1.1-6.3,1.6c-0.4,0.5-2,0.9-3.6,0.9
		c-3.5,0-11.9,1.9-13.4,3.1c-0.6,0.4-3.1,1.1-5.5,1.5c-2.5,0.3-5.8,1.2-7.5,1.9c-1.6,0.7-5,1.8-7.5,2.5c-5.9,1.5-34.2,15.7-40,19.9
		c-2.5,1.8-5.5,3.7-6.8,4.2c-3.5,1.3-22.8,20.5-27.9,27.7c-5.7,8-12.9,22.1-14.9,29.1c-0.8,3-1.9,6-2.5,6.7
		c-0.5,0.7-1.7,5.2-2.7,10.1c-2.9,15.7-1.7,64.1,1.8,68.8c0.4,0.5,1.7,5.5,2.9,11c1.3,5.5,2.7,10.9,3.2,12
		c1.7,3.7,5.9,16.8,5.9,18.3c0,0.9,1.3,4.3,2.9,7.6c5.4,11.3,9.1,19.9,9.1,21.3c0,2.7,21.4,43.6,25,47.8c2.4,2.8,12,19.1,12,20.3
		c0,0.6,1.7,3.2,3.7,5.9c2,2.6,6.1,8.5,9.1,13.1c3.5,5.3,5.8,8,6.4,7.4s-1.8-5.3-6.5-12.8C97.4,347.5,83,320.8,83,317.1
		c0-1.1-1.8-4.9-4-8.4c-10.7-17-25.5-61.6-30.7-92.4c-2.5-14.9-2.5-49,0-61.3c3.7-18,11.2-36,20.2-48.5c6.1-8.5,21.7-23.4,30.4-29
		c15.5-10,39.6-19.8,64-26c11-2.8,35.7-7.2,44.4-7.9c2.9-0.3,9.5-1,14.7-1.5c16.6-1.9,26.4-2.2,74.1-2.8c44.7-0.4,50.1-0.3,87.9,2.7
		c59,4.6,112,22.5,138.2,46.8c22.2,20.6,35.7,50.3,37.4,82.2c0.3,5.8,0.7,10.7,0.9,11c0.4,0.8-1.3,23.9-2.4,33
		c-1.4,9.9-5.9,29.3-10.2,43.5c-10.1,32.9-34.7,84.1-55.8,116c-3.6,5.4-4.9,8.1-4.2,8.8c1.3,1.3,0.2,2.7,10.1-12.8
		c4.6-7.2,9.1-13.9,10-15c3.1-3.6,17.1-27.8,22.5-39c2.9-6.1,9.1-18.9,13.8-28.5c8.8-18.2,10-21.4,16.3-42c2-6.9,4-13,4.4-13.5
		c1.1-1.5,3-10,3-13.2c0-1.6,0.4-3.3,1-3.9c1.5-1.5,3.5-23.6,3.5-38.4c0-13.7-2.3-30.2-5.1-36.6c-0.7-1.7-2-5.6-2.8-8.6
		c-1.5-5.8-2.1-7.1-8.7-17.8c-2.1-3.6-4.7-8-5.5-9.8c-1.9-3.8-26.8-28-31-30.2c-1.6-0.8-4.5-2.7-6.4-4.2s-7.5-4.5-12.5-6.7
		c-4.9-2.1-11.7-5.3-15-7s-7-3.1-8.2-3.1s-2.4-0.4-2.7-0.8c-0.6-1-12.6-4.5-23.1-6.7c-4.4-1-8.4-2.1-9-2.5c-3.1-2.2-40.4-7.3-67-9.1
		C360,32.9,259.5,31.7,256,32.5L256,32.5z"/>
	
		<linearGradient id="region-1-3_00000013169300773461782340000015914878356237187208_" gradientUnits="userSpaceOnUse" x1="-860.4263" y1="921.3047" x2="-860.2264" y2="922.3846" gradientTransform="matrix(61.79 0 0 90.82 53471.1602 -83448.7109)">
		<stop  offset="0" style="stop-color:#BD8B63;stop-opacity:0.99"/>
		<stop  offset="1" style="stop-color:#B6835C"/>
	</linearGradient>
	<path id="region-1-3" style="fill:url(#region-1-3_00000013169300773461782340000015914878356237187208_);" d="M304.5,236.4
		c-4.9,2.2-8.1,6.5-14,18.8c-7.5,15.5-9.3,24.3-7.8,37.7c1.7,14.8,8.4,27.6,16,30.3c1.8,0.7,3.3,1.6,3.3,2c0,1.5,18.8,0.9,25.1-0.9
		l6.1-1.7l4.5-9.3c4.8-9.9,6.2-16.7,6.3-28.9c0-17.7-9.8-33.6-28.1-45.4C309,234.6,308.8,234.5,304.5,236.4z"/>
	
		<linearGradient id="region-1-4_00000019673440919917934030000014211054068957716098_" gradientUnits="userSpaceOnUse" x1="-872.0571" y1="921.4114" x2="-872.0571" y2="922.4614" gradientTransform="matrix(358.41 0 0 90.27 312857.2812 -82881.6797)">
		<stop  offset="0" style="stop-color:#B5845F;stop-opacity:0.99"/>
		<stop  offset="1" style="stop-color:#B1805B;stop-opacity:0.99"/>
	</linearGradient>
	<path id="region-1-4" style="fill:url(#region-1-4_00000019673440919917934030000014211054068957716098_);" d="M264,298.2
		c-66.2,2.4-122.5,13-134,25.2c-3.2,3.5-4.9,9.9-5.7,21.8c-0.7,10.8,0.5,16.8,4,21.1c1.8,2.3,3.7,3,11.2,4.3c5,0.8,9.7,1.9,10.7,2.4
		c0.9,0.5,4,1.2,7,1.5c14.2,1.6,22.4,2.8,23.3,3.5s19.7,3.3,32.5,4.5c3,0.3,9.8,1,15,1.6c22.2,2.3,36.5,3,70,3.5
		c33.7,0.5,46.6,0,68-2.6c4.7-0.6,13.5-1.5,19.5-2c6.1-0.4,19.8-2.2,30.5-3.9s21.2-3,23.3-3.1c2,0,4.5-0.4,5.5-1
		c0.9-0.5,8.2-2,16.1-3.4s15-3.1,15.8-3.8c4.7-3.9,6.9-14.9,5.3-26.5c-0.7-4.6-1.6-8.6-2.1-8.9s-0.9-1.9-0.9-3.5
		c0-3.8-3.1-6.9-10.8-10.8c-18.1-9.1-57.2-15.8-115.3-19.6l-9.6-0.7l-0.7,3.3c-0.3,1.8-2.6,7.4-5,12.4l-4.4,9.1l-6.1,1.7
		c-6.3,1.8-25.1,2.4-25.1,0.9c0-0.4-1.5-1.3-3.3-2c-5.4-1.9-10.4-9-14.1-19.7l-2.1-6L264,298.2L264,298.2z"/>
	
		<linearGradient id="region-1-5_00000153672019879075473850000016810197343970239907_" gradientUnits="userSpaceOnUse" x1="-870.074" y1="918.4329" x2="-868.814" y2="918.7628" gradientTransform="matrix(174.75 0 0 230.9 152552.625 -211664.7188)">
		<stop  offset="0" style="stop-color:#B18563;stop-opacity:0.99"/>
		<stop  offset="1" style="stop-color:#935731;stop-opacity:0.99"/>
	</linearGradient>
	<path id="region-1-5" style="fill:url(#region-1-5_00000153672019879075473850000016810197343970239907_);" d="M634,328
		c-13.9,1.6-18.9,3.1-24.1,7.1c-9.6,7.7-23.2,26.6-35.5,49.3c-3.6,6.8-8.2,14-10.2,15.9c-8.2,7.9-20.5,13.4-36.4,16.1
		c-5.1,0.9-7.3,1.7-7.2,2.7c0.1,0.8,3.9,6.3,8.5,12.2c14.9,19.2,20.6,27.9,28.2,43.2c8,16,13,30.3,14.8,42.5
		c0.6,4.1,1.4,15.1,1.6,24.4l0.5,16.8l12.1-0.5c14.3-0.6,21.1-2.2,32.6-7.9c28-13.7,40.9-47,37.2-96.6c-0.6-9.2-1.8-21.4-2.7-27.2
		c-2.1-14.7-2.1-24.4,0.1-31c4.6-14.3,17.9-34,34-50.3c9.1-9.3,9.7-10.9,4.8-12.8C682.9,328.3,650.5,326.1,634,328L634,328z"/>
	
		<linearGradient id="region-1-6_00000147933021732275093360000007529451636965194652_" gradientUnits="userSpaceOnUse" x1="-872.9126" y1="917.2927" x2="-872.8427" y2="918.4327" gradientTransform="matrix(541.61 0 0 369.24 473064.2188 -338346.7188)">
		<stop  offset="0" style="stop-color:#9E6945"/>
		<stop  offset="1" style="stop-color:#9F6A45"/>
	</linearGradient>
	<path id="region-1-6" style="fill:url(#region-1-6_00000147933021732275093360000007529451636965194652_);" d="M130,370.1
		c0,0.7-4.2,5.6-9.3,10.8c-10.9,11.3-29.6,32.9-42,48.5c-30.2,37.9-44.9,73-46.4,110.6c-1.8,43.9,17.3,85.8,55.8,122.4
		c8.5,8.1,24.8,21.7,30.7,25.6c1.6,1.1,2.7,3.4,3.8,7.9c2.9,12.6,8.9,19.9,19.4,23.6s56.6,11.3,87,14.4c45.5,4.7,76.2,5.6,111.5,3.3
		c50.4-3.3,117-13.6,128.8-19.9c7.9-4.3,13-12.1,15-23.1c0.5-2.6,0.3-3.2-1.1-3.2c-1-0.1-0.4-0.6,1.4-1.4c1.7-0.8,9.9-6.9,18.3-13.6
		c38.8-31.3,63.5-69.8,69.7-108.7c1.8-11.4,1.5-36.9-0.5-50.3c-2.4-16.4-14.8-46.7-25.1-61.4c-16.5-23.6-43.1-55.8-61.6-74.6
		c-5.2-5.3-9.4-10.1-9.4-10.8c0-0.9-0.9-1.2-2.7-0.8c-1.6,0.3-8.2,1.5-14.8,2.6c-6.6,1.2-12.8,2.5-13.7,3.1c-1,0.5-3.5,0.9-5.5,0.9
		c-2.1,0.1-12.6,1.4-23.3,3.1s-24.4,3.5-30.5,3.9c-6,0.5-14.8,1.4-19.5,2c-21.4,2.6-34.3,3.1-68,2.6c-33.5-0.5-47.8-1.2-70-3.5
		c-5.2-0.6-12-1.3-15-1.6c-12.8-1.2-31.6-3.8-32.5-4.5s-9-1.9-23.5-3.5c-3-0.4-5.9-1-6.5-1.4c-0.5-0.4-4.4-1.3-8.5-2
		s-8.5-1.5-9.7-1.8C130.8,369,130,369.2,130,370.1L130,370.1z"/>
</g>
<g id="layer-2">
	
		<linearGradient id="region-2-1_00000099638727816489871180000011331256361046856590_" gradientUnits="userSpaceOnUse" x1="-872.9666" y1="917.3439" x2="-872.9666" y2="918.3439" gradientTransform="matrix(570.09 0 0 364.69 497966.125 -334513.8125)">
		<stop  offset="0" style="stop-color:#00000A;stop-opacity:0.68"/>
		<stop  offset="1" style="stop-color:#1E1B1E;stop-opacity:0.83"/>
	</linearGradient>
	<path id="region-2-1" style="fill:url(#region-2-1_00000099638727816489871180000011331256361046856590_);" d="M254,28
		c-7.4,0.4-21.8,1-32,1.4s-20.1,1.1-22,1.6s-9.8,1.6-17.5,2.5S162,36.4,154,38C80.2,52.7,34.5,84.9,18.1,133.7
		c-5.4,16.1-7.8,37.2-6,53.7c5.7,52,33.8,114.4,85.2,189.1c12.5,18.2,11.5,17.5,16,12l3.8-4.5l-5.4-8.3c-2.9-4.5-7-10.4-9-13
		c-2-2.7-3.7-5.3-3.7-5.9c0-1.2-9.6-17.5-12-20.3c-3.6-4.2-25-45.1-25-47.8c0-1.4-3.7-10-9.1-21.3c-1.6-3.3-2.9-6.7-2.9-7.6
		c0-1.5-4.2-14.6-5.9-18.3c-0.5-1.1-1.9-6.5-3.2-12c-1.2-5.5-2.5-10.5-2.9-11c-3.5-4.7-4.7-53.1-1.8-68.8c1-4.9,2.2-9.4,2.7-10.1
		c0.6-0.7,1.7-3.7,2.5-6.7c2-7,9.2-21.1,14.9-29.1c5.1-7.2,24.4-26.4,27.9-27.7c1.3-0.5,4.3-2.4,6.8-4.2c5.8-4.2,34.1-18.4,40-19.9
		c2.5-0.7,5.9-1.8,7.5-2.5c1.7-0.7,5-1.6,7.5-1.9c2.4-0.4,4.9-1.1,5.5-1.5c1.5-1.2,9.9-3.1,13.4-3.1c1.6,0,3.2-0.4,3.6-0.9
		c0.3-0.5,3.1-1.2,6.3-1.6c3.1-0.3,9.3-1.2,13.7-2c8.5-1.5,20.7-2.7,47.5-4.7c22.1-1.7,109-1.7,136.5,0c29,1.8,66.6,6.8,70,9.2
		c0.6,0.4,4.6,1.5,9,2.5c10.5,2.2,22.5,5.7,23.1,6.7c0.3,0.4,1.5,0.8,2.7,0.8s4.9,1.4,8.2,3.1s10.1,4.9,15,7
		c5,2.2,10.6,5.2,12.5,6.7s4.8,3.4,6.4,4.2c4.2,2.2,29.1,26.4,31,30.2c0.8,1.8,3.4,6.2,5.5,9.8c6.6,10.7,7.2,12,8.7,17.8
		c0.8,3,2.1,6.9,2.8,8.6c2.8,6.4,5.1,22.9,5.1,36.6c0,14.8-2,36.9-3.5,38.4c-0.6,0.6-1,2.3-1,3.9c0,3.2-1.9,11.7-3,13.2
		c-0.4,0.5-2.4,6.6-4.4,13.5c-7.2,23.8-6.3,21.7-30.2,70.5c-6.5,13.4-16.3,29.8-29.4,49.6c-12.2,18.4-12.2,18.5-10.5,19.9
		c1.2,1,1.6,0.9,2.2-0.6c0.5-1.1,5.3-8.7,10.9-16.9c38.7-57.6,62.4-106,72.4-148c1.2-5,2.6-9.8,3.1-10.8c2.8-5.2,3.5-57.4,0.8-60.2
		c-0.5-0.5-0.9-2.4-0.9-4.3c0-4-4.9-19-8.6-26.4c-8.4-16.8-27.9-38.3-44.5-49.1c-14-9.1-31.7-17.4-49.9-23.3
		C458.1,40.5,427.3,34,417.5,34c-2.8,0-5.5-0.4-6-0.9c-0.6-0.5-5-1.2-10-1.5c-4.9-0.4-14.6-1-21.5-1.5s-19-1.4-27-1.9
		C337,27,275.1,26.9,254,28L254,28z"/>
	
		<linearGradient id="region-2-2_00000120554293959333205040000003337215085006464153_" gradientUnits="userSpaceOnUse" x1="-858.9853" y1="921.9634" x2="-858.2953" y2="923.0634" gradientTransform="matrix(54.69 0 0 81.81 47267.1406 -75189.2109)">
		<stop  offset="0" style="stop-color:#975D3B;stop-opacity:0.64"/>
		<stop  offset="1" style="stop-color:#9D6542;stop-opacity:0.71"/>
	</linearGradient>
	<path id="region-2-2" style="fill:url(#region-2-2_00000120554293959333205040000003337215085006464153_);" d="M297.8,245.7
		c-5.3,8.9-8.6,18-10.4,28.4c-1.9,11.2-1.4,18,2.1,28.6c5.7,17,10.6,21,24.4,20c10.9-0.7,17-3.3,19.8-8.2c2.1-3.7,7.3-18.3,7.3-20.6
		c0-0.5-2.4-0.9-5.2-0.9c-6.8-0.1-11.6-1.8-16.1-5.9c-6.7-6.1-13.5-22.2-15.8-37.5C302.3,239.1,301.8,238.8,297.8,245.7L297.8,245.7
		z"/>
	
		<linearGradient id="region-2-3_00000130641804202759327760000001946518760000485793_" gradientUnits="userSpaceOnUse" x1="-814.8505" y1="933.0283" x2="-813.7604" y2="933.9883" gradientTransform="matrix(14.51 0 0 29 11885.29 -26767.6699)">
		<stop  offset="0" style="stop-color:#415078;stop-opacity:0.14"/>
		<stop  offset="1" style="stop-color:#425078;stop-opacity:0.11"/>
	</linearGradient>
	<path id="region-2-3" style="fill:url(#region-2-3_00000130641804202759327760000001946518760000485793_);" d="M62,289.3
		c0,1.1,14,28.7,14.5,28.7s-13.2-27.9-14.1-28.9C62.2,288.9,62,289,62,289.3L62,289.3z"/>
	
		<linearGradient id="region-2-4_00000078007303597854176460000008339310705946375604_" gradientUnits="userSpaceOnUse" x1="-871.8168" y1="927.217" x2="-871.8168" y2="928.217" gradientTransform="matrix(324.98 0 0 43.6 283626.5312 -40115.1484)">
		<stop  offset="0" style="stop-color:#5D2109;stop-opacity:0.3"/>
		<stop  offset="1" style="stop-color:#531400;stop-opacity:0.36"/>
	</linearGradient>
	<path id="region-2-4" style="fill:url(#region-2-4_00000078007303597854176460000008339310705946375604_);" d="M191.5,310.9
		c-24.8,3.7-40.8,8-47.3,12.8c-4.5,3.4-4.2,7.7,0.7,11c7.1,4.8,32.3,10.9,49.1,11.9c4.7,0.3,9.7,1,11.1,1.5
		c1.4,0.6,9.8,1.4,18.5,1.9s23.1,1.4,31.9,2c25.4,1.7,125.6-0.1,129.1-2.3c0.6-0.3,8-1.1,16.5-1.7s15.8-1.5,16.3-2
		c0.6-0.6,3-1,5.5-1c5.6,0,23.5-4,31.4-7c6.4-2.4,11.7-6.4,11.7-8.7c0-0.8-0.6-1.3-1.3-1s-8.2,1.7-16.7,3.1
		c-8.5,1.5-17.1,3.1-19,3.6c-4.3,1.1-18.4,2.7-34.5,4c-27.1,2.2-90.1,0.5-109.5-3c-3-0.5-10.1-1.4-15.8-2c-13.2-1.4-31-5.9-38.8-9.8
		c-6.9-3.5-12.4-9.1-12.4-12.7c0-2.4-0.2-2.5-7.2-2.4C206.8,309.2,198.1,310,191.5,310.9L191.5,310.9z"/>
	
		<linearGradient id="region-2-5_00000053535123092694059450000000057578209414970523_" gradientUnits="userSpaceOnUse" x1="-864.7761" y1="946.812" x2="-864.7761" y2="947.812" gradientTransform="matrix(90.07 0 0 15.87 78173.7656 -14710.5596)">
		<stop  offset="0" style="stop-color:#5C1A00;stop-opacity:0.17"/>
		<stop  offset="1" style="stop-color:#5C1800;stop-opacity:0.19"/>
	</linearGradient>
	<path id="region-2-5" style="fill:url(#region-2-5_00000053535123092694059450000000057578209414970523_);" d="M257.5,316.1
		c-9.2,1.2-16.9,3.5-18.5,5.4c-1.9,2.3,0.1,3.9,9,7.2c5,1.9,16,2.8,33,2.7c28.6-0.1,37.8-1,43.8-4.4c4.8-2.7,4.8-3.8,0.1-2.1
		c-3.8,1.3-22.9,1.5-22.9,0.2c0-0.5-1.2-1.2-2.7-1.6c-1.4-0.3-4-2.1-5.7-4l-3.1-3.3l-13-0.5C270.4,315.4,261.4,315.6,257.5,316.1
		L257.5,316.1z"/>
	
		<linearGradient id="region-2-6_00000007426066755257249090000015322310933360073636_" gradientUnits="userSpaceOnUse" x1="-864.3467" y1="945.5815" x2="-864.3369" y2="946.6816" gradientTransform="matrix(86.28 0 0 16.53 75228.1719 -15303.6104)">
		<stop  offset="0" style="stop-color:#FFE5D6;stop-opacity:0.55"/>
		<stop  offset="1" style="stop-color:#FFE3D4;stop-opacity:0.52"/>
	</linearGradient>
	<path id="region-2-6" style="fill:url(#region-2-6_00000007426066755257249090000015322310933360073636_);" d="M634,328
		c-11.9,1.3-19.1,3.2-21.8,5.5l-2.6,2.2l2.6,1.7c1.4,0.9,6.1,2.3,10.4,3.2c4.3,0.8,10.2,2,13.1,2.6c6.7,1.4,40.3,0.3,49.7-1.6
		c10.3-2.1,13.8-7,6.9-9.7C682.9,328.3,650.5,326.1,634,328L634,328z"/>
	
		<linearGradient id="region-2-7_00000098916563964565287680000001115212943806156672_" gradientUnits="userSpaceOnUse" x1="-872.0731" y1="924.6287" x2="-872.0131" y2="926.7687" gradientTransform="matrix(358.32 0 0 56.61 312780.4688 -52016.6602)">
		<stop  offset="0" style="stop-color:#76442D;stop-opacity:0.66"/>
		<stop  offset="1" style="stop-color:#7E4D34;stop-opacity:0.75"/>
	</linearGradient>
	<path id="region-2-7" style="fill:url(#region-2-7_00000098916563964565287680000001115212943806156672_);" d="M125.6,333.2
		c-1.5,5-1.9,21.7-0.7,26.1c2.2,7.8,4.4,9.5,14.6,11.3c5,0.8,9.7,1.9,10.7,2.4c0.9,0.5,4,1.2,7,1.5c14.2,1.6,22.4,2.8,23.3,3.5
		s19.7,3.3,32.5,4.5c3,0.3,9.8,1,15,1.6c22.2,2.3,36.5,3,70,3.5c33.7,0.5,46.6,0,68-2.6c4.7-0.6,13.5-1.5,19.5-2
		c6.1-0.4,19.8-2.2,30.5-3.9s21.2-3,23.3-3.1c2,0,4.5-0.4,5.5-1c0.9-0.5,8.2-2,16.1-3.4s15-3.1,15.8-3.8c4.7-3.9,6.9-14.9,5.3-26.5
		c-1.2-8.4-2.5-10.9-4.1-8c-2.4,4.2-18.8,11-35.4,14.7c-5.5,1.2-10.9,2.6-12,3c-2.8,1.3-13.2,3-17.9,3c-2.2,0-6.5,0.5-9.5,1
		c-15.8,2.8-44.1,4.4-85.6,4.7c-53.3,0.4-87-0.9-115-4.6c-4.4-0.6-12-1.6-17-2.2c-4.9-0.6-9.4-1.5-9.9-2c-0.6-0.5-2.5-0.9-4.4-0.9
		c-3.6,0-18.2-3.5-21-5c-0.9-0.5-5.5-2.7-10.3-4.8c-4.7-2.1-9.4-5.1-10.6-6.5C126.8,330.4,126.4,330.4,125.6,333.2L125.6,333.2z"/>
	
		<linearGradient id="region-2-8_00000109707988414446347600000009700217726399850127_" gradientUnits="userSpaceOnUse" x1="-872.0716" y1="928.7918" x2="-872.0516" y2="930.5717" gradientTransform="matrix(360.59 0 0 38.21 314762.2812 -35123.0391)">
		<stop  offset="0" style="stop-color:#7C4D31;stop-opacity:0.73"/>
		<stop  offset="1" style="stop-color:#8A5738;stop-opacity:0.78"/>
	</linearGradient>
	<path id="region-2-8" style="fill:url(#region-2-8_00000109707988414446347600000009700217726399850127_);" d="M130,370.2
		c0,0.8-1.6,2.9-3.5,4.8c-4,3.8-4.3,4.8-1.7,5.6c0.9,0.4,4.9,1.9,8.9,3.5c3.9,1.6,8,2.9,9,2.9s3.1,0.7,4.6,1.5
		c3.2,1.6,11.2,3.8,20.7,5.6c3.6,0.7,7,1.5,7.5,2c1.3,0.9,16.8,3.8,26.5,4.9c4.1,0.5,12,1.5,17.5,2.4c25.1,3.8,82.7,5.2,113,2.8
		c37.9-2.9,67.6-6.5,79-9.3c8.7-2.2,16.3-3.7,21.7-4.4c3.2-0.3,6-1.1,6.3-1.6c0.4-0.5,2.1-0.9,3.9-0.9c2.8,0,39.3-9.4,40.3-10.3
		c0.1-0.2-1.5-2.1-3.7-4.2c-2.2-2.2-4-4.5-4-5.3c0-1-0.8-1.2-2.7-0.8c-1.6,0.3-8.2,1.5-14.8,2.6c-6.6,1.2-12.8,2.5-13.7,3.1
		c-1,0.5-3.5,0.9-5.5,0.9c-2.1,0.1-12.6,1.4-23.3,3.1s-24.4,3.5-30.5,3.9c-6,0.5-14.8,1.4-19.5,2c-21.4,2.6-34.3,3.1-68,2.6
		c-33.5-0.5-47.8-1.2-70-3.5c-5.2-0.6-12-1.3-15-1.6c-12.8-1.2-31.6-3.8-32.5-4.5s-9-1.9-23.5-3.5c-3-0.4-5.9-1-6.5-1.4
		c-0.5-0.4-4.4-1.3-8.5-2s-8.5-1.5-9.7-1.8C130.7,369,130,369.2,130,370.2L130,370.2z"/>
	
		<linearGradient id="region-2-9_00000080910296362108412660000015954815759456167324_" gradientUnits="userSpaceOnUse" x1="-863.5844" y1="919.4433" x2="-862.3544" y2="920.3433" gradientTransform="matrix(76.19 0 0 145.73 66313.5625 -133566.4844)">
		<stop  offset="0" style="stop-color:#743011;stop-opacity:0.59"/>
		<stop  offset="1" style="stop-color:#9D694A;stop-opacity:0.81"/>
	</linearGradient>
	<path id="region-2-9" style="fill:url(#region-2-9_00000080910296362108412660000015954815759456167324_);" d="M540,413.6
		c-2.5,0.8-7.9,2.1-12,2.8c-5.3,0.9-7.5,1.7-7.4,2.7c0.1,0.8,3.9,6.3,8.5,12.2c14.9,19.2,20.6,27.9,28.2,43.2
		c8,16,13,30.3,14.8,42.5c0.6,4.1,1.4,15,1.6,24.2l0.5,16.8h20.5l0.7-6.8c1.9-19.4,1.9-24.6-0.3-35.3c-1.1-5.9-2.1-11.5-2.1-12.5
		c0-1.1-0.7-3.2-1.5-4.8c-0.8-1.5-1.5-3.6-1.5-4.6c0-0.9-1.1-3.8-2.5-6.4s-2.5-5.4-2.5-6.2c0-3.5-20.1-41.1-25.1-46.9
		c-2.1-2.4-7-11.2-10-17.8C547.6,411.6,547,411.4,540,413.6L540,413.6z"/>
	
		<linearGradient id="region-2-10_00000004506043670421672640000015744730757485304715_" gradientUnits="userSpaceOnUse" x1="-872.8416" y1="918.3348" x2="-872.7617" y2="919.7347" gradientTransform="matrix(521.54 0 0 207.05 455516.875 -189651.6094)">
		<stop  offset="0" style="stop-color:#611700;stop-opacity:0.21"/>
		<stop  offset="1" style="stop-color:#935937;stop-opacity:0.6"/>
	</linearGradient>
	<path id="region-2-10" style="fill:url(#region-2-10_00000004506043670421672640000015744730757485304715_);" d="M50.5,501.2
		c-1,2.9-2.1,5.7-2.5,6.3c-1.4,1.8-4.2,18.6-5.5,33.2c-1.1,11.3,2.6,42.1,5.4,45.7c0.4,0.6,1.1,2.7,1.5,4.6
		c0.8,4.5,14.2,31.3,16.7,33.6c1,0.9,1.9,2.3,1.9,2.9c0,0.7,1.9,3.5,4.3,6.1c2.4,2.7,6.4,7.6,8.9,10.9c4.4,5.9,18.9,19.7,29.8,28.5
		c3,2.4,7.9,6.5,10.8,9.1c4.5,4,6.1,4.7,10.9,5.3c3.1,0.4,6.2,1.1,6.7,1.6c0.6,0.4,5.8,1.4,11.6,2s10.9,1.5,11.5,1.9
		c0.5,0.5,4.2,1.1,8,1.5c3.9,0.3,9.7,1.1,13,1.6s11.6,1.4,18.3,2c6.8,0.5,12.8,1.3,13.3,1.6c4.5,2.7,131.8,4.8,149.1,2.4
		c4-0.6,13.4-1.4,20.8-2c7.4-0.5,20.3-1.8,28.5-3c34.2-4.7,41.1-5.7,42.5-6.2c2.1-0.9,18.1-3.8,20.4-3.8c6.4,0,54.8-45.4,59.9-56.3
		c0.9-1.8,3-5.1,4.8-7.3c3.7-4.6,14.9-27,14.9-29.9c0-1.1,0.7-3.4,1.6-5c1.5-2.9,3.5-11.6,5.4-23.5c1.8-11.4,0.5-43.9-1.8-46.2
		c-0.4-0.4-2.5,0.4-4.6,1.8c-5.1,3.5-36.1,18.9-41.1,20.5c-2.2,0.6-5.3,1.8-7,2.5c-4.6,1.9-19.1,6-28,7.9c-4.4,1-8.4,2.1-9,2.5
		c-1.3,0.9-10.4,2.7-18,3.5c-3.3,0.4-6.4,1-7,1.5c-1,0.7-8.9,1.9-26.5,4c-5.2,0.6-10.6,1.4-12,1.7c-2.3,0.5-8.8,0.9-48,3.3
		c-32.3,1.9-86.5,0.7-113.7-2.5c-6.7-0.8-14.5-1.5-17.5-1.5c-5.2-0.1-11.1-0.9-34.3-4.9c-6.6-1.1-13.4-2.1-15.2-2.1
		c-1.7,0-3.4-0.4-3.7-0.9s-2.7-1.2-5.3-1.5c-6.8-0.9-14.6-2.7-15.8-3.6c-0.5-0.5-2.8-1.1-5-1.5s-4.4-1.1-5-1.5
		c-0.5-0.4-3.5-1.5-6.5-2.5c-16.1-5.1-48.6-20.5-55.3-26.1c-1.7-1.4-4-3-5.2-3.4c-2-0.8-11.7-8.3-21.2-16.4l-4.1-3.6L50.5,501.2
		L50.5,501.2z"/>
	
		<linearGradient id="region-2-11_00000085954285918926210160000002152844253324024709_" gradientUnits="userSpaceOnUse" x1="-872.0965" y1="926.2427" x2="-871.8065" y2="930.3627" gradientTransform="matrix(362.98 0 0 47.57 316855.4375 -43369.9805)">
		<stop  offset="0" style="stop-color:#6B2712;stop-opacity:0.62"/>
		<stop  offset="1" style="stop-color:#723019;stop-opacity:0.71"/>
	</linearGradient>
	<path id="region-2-11" style="fill:url(#region-2-11_00000085954285918926210160000002152844253324024709_);" d="M122.4,695.1
		c1.1,7.5,6.2,16.5,11.1,19.9c6.1,4.2,10.1,5.5,27.8,8.9c60.9,11.9,126,16.7,179.2,13.3c50.4-3.3,117-13.6,128.8-19.9
		c7.9-4.4,12.9-12.1,15.1-23.2l0.6-3.4l-6.1,0.7c-3.4,0.3-6.7,1-7.3,1.5c-0.6,0.6-3.6,1.2-6.6,1.6c-13.5,1.5-22.6,2.9-23.5,3.5
		c-0.5,0.4-7.3,1.3-15,2c-7.7,0.6-14.7,1.5-15.5,2c-0.8,0.4-7.3,1-14.3,1.4c-7,0.3-14.7,1.1-17,1.6c-12.2,2.7-101.2,4.1-128.2,2
		c-6-0.5-17.3-1.4-25-2c-19.5-1.5-30.5-2.6-41.5-4.4c-5.2-0.9-14.3-2-20.1-2.6c-9.1-0.9-33.1-4.8-40.8-6.7
		C121.8,690.7,121.7,690.8,122.4,695.1L122.4,695.1z"/>
</g>
<linearGradient id="region-3-1_00000160191302974556685510000017765097988712473774_" gradientUnits="userSpaceOnUse" x1="-856.9028" y1="984.4492" x2="-856.7628" y2="987.0692" gradientTransform="matrix(49.58 0 0 7.14 43135.668 -6700.96)">
	<stop  offset="0" style="stop-color:#492F06;stop-opacity:0.65"/>
	<stop  offset="1" style="stop-color:#412700;stop-opacity:0.69"/>
</linearGradient>
<path id="region-3-1" style="fill:url(#region-3-1_00000160191302974556685510000017765097988712473774_);" d="M635.1,332
	c-2.5,0.5-5.1,1.6-5.9,2.4c-1.2,1.2-1.1,1.6,0.9,2.8c1.8,1,7.5,1.3,22.4,1.3c20.9,0,25.5-0.5,25.5-3c0-0.9-1.2-2.1-2.7-2.7
	C671.8,331.4,641,330.8,635.1,332L635.1,332z"/>
<linearGradient id="region-3-2_00000144336618596274035170000012198245022213661571_" gradientUnits="userSpaceOnUse" x1="-871.9807" y1="936.4362" x2="-871.5107" y2="944.3463" gradientTransform="matrix(345.7 0 0 23.89 301743.0625 -22005.9609)">
	<stop  offset="0" style="stop-color:#BE8C72;stop-opacity:0.72"/>
	<stop  offset="1" style="stop-color:#D79D82;stop-opacity:0.8"/>
</linearGradient>
<path id="region-3-2" style="fill:url(#region-3-2_00000144336618596274035170000012198245022213661571_);" d="M130,369.7
	c0,1,24.8,7,46.5,11.3c19.8,3.9,52,8.6,72.4,10.5c18.9,1.7,94.4,2.2,98.3,0.5c1.3-0.5,9.3-1.4,17.8-1.9c17.4-1.1,37.6-3.7,40.2-5.1
	c1-0.6,3.5-1,5.6-1c4.5,0,15.3-2,16.7-3.1c0.6-0.4,4.6-1.2,9-1.9c11.8-1.7,38.4-8,39.1-9.2c0.4-0.6-0.4-0.8-2.2-0.4
	c-1.6,0.3-8.3,1.5-14.9,2.6c-6.6,1.2-12.8,2.5-13.7,3.1c-1,0.5-3.5,0.9-5.5,0.9c-2.1,0.1-12.6,1.4-23.3,3.1s-24.4,3.5-30.5,3.9
	c-6,0.5-14.8,1.4-19.5,2c-21.4,2.6-34.3,3.1-68,2.6c-33.5-0.5-47.8-1.2-70-3.5c-5.2-0.6-12-1.3-15-1.6c-12.8-1.2-31.6-3.8-32.5-4.5
	s-9-1.9-23.5-3.5c-3-0.4-5.9-1-6.5-1.4c-0.5-0.4-4.4-1.3-8.5-2s-8.5-1.5-9.7-1.8C131,369,130,369.2,130,369.7L130,369.7z"/>
<linearGradient id="region-3-3_00000182505764455978671520000000042592591514016134_" gradientUnits="userSpaceOnUse" x1="-864.8494" y1="920.3878" x2="-864.8494" y2="921.3878" gradientTransform="matrix(90.69 0 0 111.35 78998.7109 -102151.7266)">
	<stop  offset="0" style="stop-color:#753314;stop-opacity:0.46"/>
	<stop  offset="1" style="stop-color:#884C2D;stop-opacity:0.61"/>
</linearGradient>
<path id="region-3-3" style="fill:url(#region-3-3_00000182505764455978671520000000042592591514016134_);" d="M603,341.7
	c-7.9,8.7-19.7,26.3-28.5,42.7c-7.7,14.2-12,18.9-22.4,24.5c-6.1,3.2-23,8.1-28.2,8.1c-1.5,0-3.1,0.5-3.4,1
	c-0.8,1.3-1.1,0.8,11.5,17.2c9.5,12.4,11.3,13.7,14.4,10.7c0.6-0.5,1.9-0.9,2.9-0.9c2.2,0,6.1-1.6,16.6-6.7
	C583.2,429.8,597,411,603,388c1.2-4.7,2.6-9.4,3-10.5s1.3-5.4,1.9-9.5s1.5-9.8,2-12.5c1.2-6.4,1.3-17.6,0.2-19.3
	C609.5,335.2,607.6,336.7,603,341.7L603,341.7z"/>
<linearGradient id="region-3-4_00000042706276489260780590000006621880607480797569_" gradientUnits="userSpaceOnUse" x1="-867.8833" y1="917.8134" x2="-866.3332" y2="918.5933" gradientTransform="matrix(121.81 0 0 292.03 105820.2969 -267580.875)">
	<stop  offset="0" style="stop-color:#5A0F00;stop-opacity:0.18"/>
	<stop  offset="1" style="stop-color:#641D08;stop-opacity:0.24"/>
</linearGradient>
<path id="region-3-4" style="fill:url(#region-3-4_00000042706276489260780590000006621880607480797569_);" d="M157.2,405.3
	c-6,6.4-28.2,46-28.2,50.2c0,0.9-1.1,4-2.4,6.8c-1.3,2.9-2.7,6.5-3.1,8.2c-0.3,1.6-1.5,4.7-2.5,7c-2.4,5.3-4.6,14.5-5.5,22.5
	c-0.3,3.6-1.1,7.1-1.7,7.8c-1.5,1.8-2.2,36.9-1,47.2c1.5,11.9,4.3,28.2,5.2,30c0.4,0.8,1.2,4,1.9,7c1.6,6.9,5.1,18.2,6.2,19.5
	c0.4,0.6,1.7,3.5,2.9,6.5c3,7.6,11.9,25.1,16.9,33.3c2.2,3.7,4.1,7.1,4.1,7.5s1.3,2.3,2.8,4.2c1.6,1.9,3.2,4.2,3.5,5
	c0.4,0.8,3.5,4.9,7,9c6.6,7.8,9.6,9.8,18.7,12.6c3,0.9,6.4,2,7.5,2.5c1.6,0.7,44.5,3.8,44.5,3.3c0-0.1-1.6-2.6-3.5-5.5
	c-1.9-3-3.5-5.9-3.5-6.5s-0.9-2.3-2-3.7c-5.5-7-23.3-46.8-28-62.7c-1.2-4.1-2.6-8.3-3.1-9.2s-1.2-3.6-1.5-6c-0.4-2.4-1-4.8-1.4-5.3
	c-1.1-1.4-4-14.8-4-18.2c0-1.6-0.4-3.3-0.9-3.9c-0.5-0.5-1.1-4.5-1.3-8.9c-0.1-4.4-0.8-8.5-1.4-9c-3.1-2.7-5.5-57.1-3.4-77
	c2.1-20.3,8.2-45.1,15.6-63.4c1.9-4.7,3.4-8.9,3.4-9.3s-5.3-0.8-11.9-0.8s-13.1-0.4-14.7-0.9s-5.2-1.2-8-1.5
	C160,403.2,158.9,403.4,157.2,405.3L157.2,405.3z"/>
<linearGradient id="region-3-5_00000111893358045370725950000012670084829181950626_" gradientUnits="userSpaceOnUse" x1="-867.08" y1="917.6766" x2="-867.08" y2="918.6766" gradientTransform="matrix(117.67 0 0 291.94 102428.2344 -267495.5312)">
	<stop  offset="0" style="stop-color:#7E3E22;stop-opacity:0.35"/>
	<stop  offset="1" style="stop-color:#753318;stop-opacity:0.44"/>
</linearGradient>
<path id="region-3-5" style="fill:url(#region-3-5_00000111893358045370725950000012670084829181950626_);" d="M406.5,407.1
	c-1.6,0.5-9.6,1.2-17.7,1.6c-8.2,0.3-14.8,0.8-14.8,1.1c0,0.2,1.6,4.4,3.5,9.1c1.9,4.8,4.1,11.6,5,15.1c0.9,3.6,2,7.4,2.5,8.5
	c1.4,3.2,3.1,10.2,4,17.4c0.5,3.6,1.4,8.8,1.9,11.6c1.6,8,2.4,47.5,1.1,61c-1.9,21.7-4.4,39.9-6.5,49c-0.9,3.8-2.1,9.5-2.6,12.5
	c-0.6,3-1.4,5.9-2,6.4c-0.5,0.6-0.9,2-0.9,3.2c0,2.2-3.3,14.1-5,17.9c-0.5,1.1-2,5.7-3.5,10.2c-1.5,4.6-3.1,8.5-3.6,8.8
	c-0.5,0.4-0.9,1.4-0.9,2.3c0,2.4-11.8,28.3-17.1,37.6c-2.4,4.3-5.6,10-7.1,12.8l-2.7,5.1l15.4-0.6c17.7-0.7,34.5-3.7,41.2-7.5
	c4.5-2.5,14.4-12.9,17-17.9c0.8-1.5,2.6-4.4,4.1-6.3s3.5-5.1,4.6-7c1-1.9,3.2-5.5,4.8-7.9c3.4-5,10.3-20.1,15.4-33.6
	c1.9-5,3.8-9.9,4.3-11s1.6-5.4,2.6-9.5s2.2-8,2.6-8.5c0.4-0.6,1.3-4.4,1.8-8.5c0.6-4.1,1.5-9.8,2.1-12.5c1.7-9.1,2.4-35.5,1.1-46
	c-4.5-38.1-17.9-74.1-39.8-107.3C411.7,405.7,411.5,405.6,406.5,407.1z"/>
<linearGradient id="region-1-6-2_00000015355635340385119870000013917434376223216569_" gradientUnits="userSpaceOnUse" x1="-871.6588" y1="917.3046" x2="-871.5988" y2="918.4445" gradientTransform="matrix(541.61 0 0 369.24 473064.2188 -338346.7188)">
	<stop  offset="0" style="stop-color:#9E6945"/>
	<stop  offset="1" style="stop-color:#9F6A45"/>
</linearGradient>
<path id="region-1-6-2" style="fill:url(#region-1-6-2_00000015355635340385119870000013917434376223216569_);" d="M806.7,374.6
	c0,0.7-4.2,5.6-9.3,10.8c-10.9,11.3-29.6,32.9-42,48.5c-30.2,37.9-44.9,73-46.4,110.6c-1.8,43.9,17.3,85.8,55.8,122.4
	c8.5,8.1,24.8,21.7,30.7,25.6c1.6,1.1,2.7,3.4,3.8,7.9c2.9,12.6,8.9,19.9,19.4,23.6s56.6,11.3,87,14.4c45.5,4.7,76.2,5.6,111.5,3.3
	c50.4-3.3,117-13.6,128.8-19.9c7.9-4.3,13-12.1,15-23.1c0.5-2.6,0.3-3.2-1.1-3.2c-1-0.1-0.4-0.6,1.4-1.4c1.7-0.8,9.9-6.9,18.3-13.6
	c38.8-31.3,63.5-69.8,69.7-108.7c1.8-11.4,1.5-36.9-0.5-50.3c-2.4-16.4-14.8-46.7-25.1-61.4c-16.5-23.6-43.1-55.8-61.6-74.6
	c-5.2-5.3-9.4-10.1-9.4-10.8c0-0.9-0.9-1.2-2.7-0.8c-1.6,0.3-8.2,1.5-14.8,2.6c-6.6,1.2-12.8,2.5-13.7,3.1c-1,0.5-3.5,0.9-5.5,0.9
	c-2.1,0.1-12.6,1.4-23.3,3.1s-24.4,3.5-30.5,3.9c-6,0.5-14.8,1.4-19.5,2c-21.4,2.6-34.3,3.1-68,2.6c-33.5-0.5-47.8-1.2-70-3.5
	c-5.2-0.6-12-1.3-15-1.6c-12.8-1.2-31.6-3.8-32.5-4.5c-0.9-0.7-9-1.9-23.5-3.5c-3-0.4-5.9-1-6.5-1.4c-0.5-0.4-4.4-1.3-8.5-2
	c-4.1-0.7-8.5-1.5-9.7-1.8C807.5,373.5,806.7,373.7,806.7,374.6L806.7,374.6z"/>
<linearGradient id="region-2-3-2_00000131329410679934612920000005679165613087237296_" gradientUnits="userSpaceOnUse" x1="-764.3059" y1="931.8486" x2="-763.2159" y2="932.8187" gradientTransform="matrix(14.51 0 0 29 11885.29 -26767.6699)">
	<stop  offset="0" style="stop-color:#415078;stop-opacity:0.14"/>
	<stop  offset="1" style="stop-color:#425078;stop-opacity:0.11"/>
</linearGradient>
<path id="region-2-3-2" style="fill:url(#region-2-3-2_00000131329410679934612920000005679165613087237296_);" d="M795.5,255.4
	c0,1.1,14,28.7,14.5,28.7s-13.2-27.9-14.1-28.9C795.7,255,795.5,255.1,795.5,255.4L795.5,255.4z"/>
<linearGradient id="region-2-10-2_00000131337128642606099980000005649646805459391125_" gradientUnits="userSpaceOnUse" x1="-870.4604" y1="918.3947" x2="-870.3805" y2="919.7947" gradientTransform="matrix(521.54 0 0 207.05 455516.875 -189651.6094)">
	<stop  offset="0" style="stop-color:#611700;stop-opacity:0.21"/>
	<stop  offset="1" style="stop-color:#935937;stop-opacity:0.6"/>
</linearGradient>
<path id="region-2-10-2" style="fill:url(#region-2-10-2_00000131337128642606099980000005649646805459391125_);stroke:#000000;stroke-miterlimit:10;" d="
	M1292.6,515c-1,2.9-2.1,5.7-2.5,6.3c-1.4,1.8-4.2,18.6-5.5,33.2c-1.1,11.3,2.6,42.1,5.4,45.7c0.4,0.6,1.1,2.7,1.5,4.6
	c0.8,4.5,14.2,31.3,16.7,33.6c1,0.9,1.9,2.3,1.9,2.9c0,0.7,1.9,3.5,4.3,6.1c2.4,2.7,6.4,7.6,8.9,10.9c4.4,5.9,18.9,19.7,29.8,28.5
	c3,2.4,7.9,6.5,10.8,9.1c4.5,4,6.1,4.7,10.9,5.3c3.1,0.4,6.2,1.1,6.7,1.6c0.6,0.4,5.8,1.4,11.6,2c5.8,0.6,10.9,1.5,11.5,1.9
	c0.5,0.5,4.2,1.1,8,1.5c3.9,0.3,9.7,1.1,13,1.6c3.3,0.5,11.6,1.4,18.3,2c6.8,0.5,12.8,1.3,13.3,1.6c4.5,2.7,131.8,4.8,149.1,2.4
	c4-0.6,13.4-1.4,20.8-2c7.4-0.5,20.3-1.8,28.5-3c34.2-4.7,41.1-5.7,42.5-6.2c2.1-0.9,18.1-3.8,20.4-3.8c6.4,0,54.8-45.4,59.9-56.3
	c0.9-1.8,3-5.1,4.8-7.3c3.7-4.6,14.9-27,14.9-29.9c0-1.1,0.7-3.4,1.6-5c1.5-2.9,3.5-11.6,5.4-23.5c1.8-11.4,0.5-43.9-1.8-46.2
	c-0.4-0.4-2.5,0.4-4.6,1.8c-5.1,3.5-36.1,18.9-41.1,20.5c-2.2,0.6-5.3,1.8-7,2.5c-4.6,1.9-19.1,6-28,7.9c-4.4,1-8.4,2.1-9,2.5
	c-1.3,0.9-10.4,2.7-18,3.5c-3.3,0.4-6.4,1-7,1.5c-1,0.7-8.9,1.9-26.5,4c-5.2,0.6-10.6,1.4-12,1.7c-2.3,0.5-8.8,0.9-48,3.3
	c-32.3,1.9-86.5,0.7-113.7-2.5c-6.7-0.8-14.5-1.5-17.5-1.5c-5.2-0.1-11.1-0.9-34.3-4.9c-6.6-1.1-13.4-2.1-15.2-2.1
	c-1.7,0-3.4-0.4-3.7-0.9c-0.3-0.5-2.7-1.2-5.3-1.5c-6.8-0.9-14.6-2.7-15.8-3.6c-0.5-0.5-2.8-1.1-5-1.5c-2.2-0.4-4.4-1.1-5-1.5
	c-0.5-0.4-3.5-1.5-6.5-2.5c-16.1-5.1-48.6-20.5-55.3-26.1c-1.7-1.4-4-3-5.2-3.4c-2-0.8-11.7-8.3-21.2-16.4l-4.1-3.6L1292.6,515
	L1292.6,515z"/>
<linearGradient id="region-3-4-2_00000161624123000442722030000011741586287674013074_" gradientUnits="userSpaceOnUse" x1="-853.7007" y1="917.6967" x2="-852.1407" y2="918.4768" gradientTransform="matrix(121.81 0 0 292.03 105820.2969 -267580.875)">
	<stop  offset="0" style="stop-color:#5A0F00;stop-opacity:0.18"/>
	<stop  offset="1" style="stop-color:#641D08;stop-opacity:0.24"/>
</linearGradient>
<path id="region-3-4-2" style="fill:url(#region-3-4-2_00000161624123000442722030000011741586287674013074_);stroke:#000000;stroke-miterlimit:10;" d="
	M1885.1,371c-6,6.4-28.2,46-28.2,50.2c0,0.9-1.1,4-2.4,6.8c-1.3,2.9-2.7,6.5-3.1,8.2c-0.3,1.6-1.5,4.7-2.5,7
	c-2.4,5.3-4.6,14.5-5.5,22.5c-0.3,3.6-1.1,7.1-1.7,7.8c-1.5,1.8-2.2,36.9-1,47.2c1.5,11.9,4.3,28.2,5.2,30c0.4,0.8,1.2,4,1.9,7
	c1.6,6.9,5.1,18.2,6.2,19.5c0.4,0.6,1.7,3.5,2.9,6.5c3,7.6,11.9,25.1,16.9,33.3c2.2,3.7,4.1,7.1,4.1,7.5s1.3,2.3,2.8,4.2
	c1.6,1.9,3.2,4.2,3.5,5c0.4,0.8,3.5,4.9,7,9c6.6,7.8,9.6,9.8,18.7,12.6c3,0.9,6.4,2,7.5,2.5c1.6,0.7,44.5,3.8,44.5,3.3
	c0-0.1-1.6-2.6-3.5-5.5c-1.9-3-3.5-5.9-3.5-6.5s-0.9-2.3-2-3.7c-5.5-7-23.3-46.8-28-62.7c-1.2-4.1-2.6-8.3-3.1-9.2s-1.2-3.6-1.5-6
	c-0.4-2.4-1-4.8-1.4-5.3c-1.1-1.4-4-14.8-4-18.2c0-1.6-0.4-3.3-0.9-3.9c-0.5-0.5-1.1-4.5-1.3-8.9c-0.1-4.4-0.8-8.5-1.4-9
	c-3.1-2.7-5.5-57.1-3.4-77c2.1-20.3,8.2-45.1,15.6-63.4c1.9-4.7,3.4-8.9,3.4-9.3s-5.3-0.8-11.9-0.8c-6.6,0-13.1-0.4-14.7-0.9
	c-1.6-0.5-5.2-1.2-8-1.5C1887.9,368.9,1886.8,369.1,1885.1,371L1885.1,371z"/>
<linearGradient id="region-3-5-2_00000069376579163341857450000003663176889259441825_" gradientUnits="userSpaceOnUse" x1="-852.0405" y1="917.5504" x2="-852.0405" y2="918.5504" gradientTransform="matrix(117.67 0 0 291.94 102428.2344 -267495.5312)">
	<stop  offset="0" style="stop-color:#7E3E22;stop-opacity:0.35"/>
	<stop  offset="1" style="stop-color:#753318;stop-opacity:0.44"/>
</linearGradient>
<path id="region-3-5-2" style="fill:url(#region-3-5-2_00000069376579163341857450000003663176889259441825_);stroke:#000000;stroke-miterlimit:10;" d="
	M2176.2,370c-1.6,0.5-9.6,1.2-17.7,1.6c-8.2,0.3-14.8,0.8-14.8,1.1c0,0.2,1.6,4.4,3.5,9.1c1.9,4.8,4.1,11.6,5,15.1
	c0.9,3.6,2,7.4,2.5,8.5c1.4,3.2,3.1,10.2,4,17.4c0.5,3.6,1.4,8.8,1.9,11.6c1.6,8,2.4,47.5,1.1,61c-1.9,21.7-4.4,39.9-6.5,49
	c-0.9,3.8-2.1,9.5-2.6,12.5c-0.6,3-1.4,5.9-2,6.4c-0.5,0.6-0.9,2-0.9,3.2c0,2.2-3.3,14.1-5,17.9c-0.5,1.1-2,5.7-3.5,10.2
	c-1.5,4.6-3.1,8.5-3.6,8.8c-0.5,0.4-0.9,1.4-0.9,2.3c0,2.4-11.8,28.3-17.1,37.6c-2.4,4.3-5.6,10-7.1,12.8l-2.7,5.1l15.4-0.6
	c17.7-0.7,34.5-3.7,41.2-7.5c4.5-2.5,14.4-12.9,17-17.9c0.8-1.5,2.6-4.4,4.1-6.3s3.5-5.1,4.6-7c1-1.9,3.2-5.5,4.8-7.9
	c3.4-5,10.3-20.1,15.4-33.6c1.9-5,3.8-9.9,4.3-11s1.6-5.4,2.6-9.5s2.2-8,2.6-8.5c0.4-0.6,1.3-4.4,1.8-8.5c0.6-4.1,1.5-9.8,2.1-12.5
	c1.7-9.1,2.4-35.5,1.1-46c-4.5-38.1-17.9-74.1-39.8-107.3C2181.4,368.6,2181.2,368.5,2176.2,370z"/>
<rect x="102" y="396.1" class="st32" width="144" height="307"/>
<rect x="319" y="403.4" class="st32" width="147" height="305.6"/>
</svg>
