<?xml version="1.0" encoding="utf-8"?>
<!-- Generator: Adobe Illustrator 26.5.0, SVG Export Plug-In . SVG Version: 6.00 Build 0)  -->
<svg version="1.1" id="图层_1" xmlns="http://www.w3.org/2000/svg" xmlns:xlink="http://www.w3.org/1999/xlink" x="0px" y="0px"
	 viewBox="0 0 1996.5 752" style="enable-background:new 0 0 1996.5 752;" xml:space="preserve">
<style type="text/css">
	.st0{fill:none;}
	.st1{fill:#D3D3D3;}
	.st2{fill:url(#SVGID_1_);}
	.st3{fill:url(#SVGID_00000078754859987774679110000007579878974381266569_);}
	.st4{fill:url(#SVGID_00000113347067549449356210000015985329855443432587_);}
	.st5{fill:url(#SVGID_00000080908686313233989640000014688819824634525072_);}
	.st6{fill:url(#SVGID_00000046311560514586910960000005212393879669516987_);}
	.st7{fill:url(#SVGID_00000129919441272074033190000006284707755418509202_);}
	.st8{fill:url(#SVGID_00000023278634650789871440000014749560260949575869_);}
	.st9{fill:url(#SVGID_00000050623378509175045380000001656966950643874489_);}
	.st10{fill:url(#SVGID_00000146463351634100129730000009478092457362955402_);}
	.st11{fill:url(#SVGID_00000155853061947389488950000014976264144482167229_);}
	.st12{fill:url(#SVGID_00000015316565803662860390000016985742776393642931_);}
	.st13{fill:url(#SVGID_00000012430410424507004570000017184736128627615396_);}
	.st14{fill:url(#SVGID_00000097459589869608415330000005071169207658385050_);}
	.st15{fill:url(#SVGID_00000015342663500718089900000005012230145081635479_);}
	.st16{fill:url(#SVGID_00000068678363438163484210000004723305230376492214_);}
	.st17{fill:url(#SVGID_00000062156629899008618930000009333781568962716836_);}
	.st18{fill:url(#SVGID_00000159469178280410801880000000362560652516608439_);}
	.st19{fill:url(#SVGID_00000034776840910802290080000004438512531577710006_);}
	.st20{fill:url(#SVGID_00000148657018942908622430000018236083893729614244_);}
	.st21{fill:url(#SVGID_00000102523218064616473170000010324081993943302313_);}
	.st22{fill:url(#SVGID_00000032625915110437153120000000558463042525384084_);}
	.st23{fill:url(#SVGID_00000105424126585110016150000011445664235455261320_);}
	.st24{fill:url(#SVGID_00000134952484802472633700000009021347028117714618_);}
	.st25{fill:url(#SVGID_00000040567263948668818730000014212147160117442207_);}
	.st26{fill:url(#SVGID_00000003814707539932453400000004005547344699230336_);}
	.st27{fill:url(#SVGID_00000086661672582355630110000010223801761801356718_);}
	.st28{fill:url(#SVGID_00000183969249585405859840000010021373437059930505_);}
	.st29{fill:url(#SVGID_00000011734228831110590200000008186884180621583232_);}
	.st30{fill:url(#SVGID_00000119082365188697251610000007635386396410641823_);}
	.st31{fill:url(#SVGID_00000142160626099200469660000008420577853645370255_);stroke:#000000;stroke-miterlimit:10;}
	.st32{fill:none;stroke:#FF0000;stroke-width:4;stroke-miterlimit:10;}
	.st33{fill:none;stroke:#020000;stroke-width:3;stroke-miterlimit:10;}
	.st34{fill:#020000;}
</style>
<pattern  y="752" width="40" height="40" patternUnits="userSpaceOnUse" id="SVGID_0000018396078018610038220" viewBox="0 -40 40 40" style="overflow:visible;">
	<g>
		<rect y="-40" class="st0" width="40" height="40"/>
		<g>
			<rect y="-40" class="st0" width="40" height="40"/>
			<g>
				<rect y="-40" class="st0" width="40" height="40"/>
				<g>
					<rect y="-40" class="st0" width="40" height="40"/>
					<g>
						<rect y="-40" class="st0" width="40" height="40"/>
						<rect y="-40" class="st0" width="40" height="40"/>
						<rect y="-40" class="st1" width="20" height="20"/>
						<rect x="20" y="-20" class="st1" width="20" height="20"/>
					</g>
				</g>
			</g>
		</g>
	</g>
</pattern>
<g id="_图层_2">
	<g id="_图层_1">
		<pattern  id="SVGID_1_" xlink:href="#SVGID_0000018396078018610038220" patternTransform="matrix(1 0 0 1 59 33684.2422)">
		</pattern>
		<rect class="st2" width="1996.5" height="752"/>
	</g>
</g>
<linearGradient id="SVGID_00000047026564578591953860000011588162110843010489_" gradientUnits="userSpaceOnUse" x1="-492.0904" y1="-0.4809" x2="-491.0903" y2="-0.4809" gradientTransform="matrix(541.69 0 0 -668.98 266594.7812 51.8296)">
	<stop  offset="0" style="stop-color:#9E6945"/>
	<stop  offset="1" style="stop-color:#9E6945"/>
</linearGradient>
<path style="fill:url(#SVGID_00000047026564578591953860000011588162110843010489_);" d="M256.9,39.5c-0.3,0.2-6.3,0.7-13.4,1
	c-7.2,0.3-17,1-22,1.6c-4.9,0.6-11.3,1.2-14.2,1.5c-8.7,0.7-33.4,5.1-44.4,7.9c-24.4,6.2-48.5,16-64,26c-8.7,5.6-24.3,20.5-30.4,29
	C59.5,119,52,137,48.3,155c-2.5,12.3-2.5,46.4,0,61.3c5.2,30.8,20,75.4,30.7,92.4c2.2,3.5,4,7.3,4,8.4c0,3.7,14.4,30.4,28.6,53.2
	L119,382l-6.7,7.8c-3.8,4.3-10.9,12.5-15.9,18.3c-30.4,35-46.3,59.9-55.8,87.5c-22.9,66.8,0.8,131.7,66.9,183.6
	c5.5,4.4,11.1,8.8,12.3,9.8c2.8,2.4,28,7.4,44.9,9c6,0.5,15.1,1.7,20.3,2.6c11,1.8,22,2.9,41.5,4.4c7.7,0.6,19,1.5,25,2
	c27,2.1,116,0.7,128.2-2c2.3-0.5,10-1.3,17-1.6c7-0.4,13.5-1,14.3-1.4c0.8-0.5,7.8-1.4,15.5-2c7.7-0.7,14.5-1.6,15-2
	c0.9-0.6,10.1-2,23.3-3.5c3-0.3,6.1-1,7-1.5c1-0.5,4.3-1.4,7.4-2c6.4-1.3,8.7-2.7,27.1-17.8c22-17.9,41.7-42.2,53.7-66.1
	c4.8-9.7,10.8-28.5,12.6-39.8c1.8-11.4,1.5-36.9-0.5-50.3c-1.8-12.2-6.8-26.5-14.8-42.5c-10.6-21.2-25.1-41.1-54.2-74.2l-16-18.3
	l5.1-7.7c21-31.7,45.6-83,55.7-115.8c4.3-14.2,8.8-33.6,10.2-43.5c1.1-9.1,2.8-32.2,2.4-33c-0.2-0.3-0.6-5.2-0.9-11
	c-1.7-31.9-15.2-61.6-37.4-82.2c-19.5-18-54-32.8-96.7-41.3c-16.7-3.3-24.7-4.2-65.2-7.4C348.4,39.1,257.7,38.6,256.9,39.5
	L256.9,39.5z"/>
<linearGradient id="SVGID_00000122685464012565474440000013047419210638917521_" gradientUnits="userSpaceOnUse" x1="-491.6039" y1="-4.7609" x2="-490.6039" y2="-4.7609" gradientTransform="matrix(351.96 0 0 -124.54 173152.4375 -295.4207)">
	<stop  offset="0" style="stop-color:#BB8961"/>
	<stop  offset="1" style="stop-color:#BB8961"/>
</linearGradient>
<path style="fill:url(#SVGID_00000122685464012565474440000013047419210638917521_);" d="M304.5,236.4c-4.9,2.2-8.1,6.4-14,18.7
	c-6.5,13.7-8.8,23-8.3,34.4l0.3,8l-18.5,0.7c-55.3,2-106.6,10.1-126.5,20c-5.4,2.7-10.5,7.7-10.5,10.4c0,3.9,4.1,7.6,12.9,11.6
	c4.8,2.1,9.4,4.3,10.3,4.8c2.8,1.5,17.4,5,21,5c1.9,0,3.8,0.4,4.4,0.9c0.5,0.5,5,1.4,9.9,2c5,0.6,12.6,1.6,17,2.2
	c28,3.7,61.7,5,115,4.6c41.5-0.3,69.8-1.9,85.6-4.7c3-0.5,7.3-1,9.5-1c4.7,0,15.1-1.7,17.9-3c1.1-0.4,6.5-1.8,12-3
	c17.1-3.8,33.1-10.6,35.5-15c1.7-3.1,1.1-7-1.4-9.5c-11.7-11.7-55.1-20.5-123.7-25l-9.6-0.7l0.5-9.8c0.4-8,0.1-11-1.6-16.7
	c-3.9-12.6-12.8-23.6-26.3-32.3C309,234.6,308.8,234.5,304.5,236.4L304.5,236.4z"/>
<linearGradient id="SVGID_00000158749340003115711540000000910670571677045409_" gradientUnits="userSpaceOnUse" x1="-487.5257" y1="-40.5956" x2="-486.5257" y2="-40.5956" gradientTransform="matrix(90.07 0 0 -15.87 44149.0195 -320.7697)">
	<stop  offset="0" style="stop-color:#A36F4C"/>
	<stop  offset="1" style="stop-color:#A36F4C"/>
</linearGradient>
<path style="fill:url(#SVGID_00000158749340003115711540000000910670571677045409_);" d="M257.5,316.1c-9.2,1.2-16.9,3.5-18.5,5.4
	c-1.9,2.3,0.1,3.9,9,7.2c5,1.9,16,2.8,33,2.7c28.6-0.1,37.8-1,43.8-4.4c4.8-2.7,4.8-3.8,0.1-2.1c-3.8,1.3-22.9,1.5-22.9,0.2
	c0-0.5-1.2-1.2-2.7-1.6c-1.4-0.3-4-2.1-5.7-4l-3.1-3.3l-13-0.5C270.4,315.4,261.4,315.6,257.5,316.1L257.5,316.1z"/>
<linearGradient id="SVGID_00000136377701974770398600000009580058360315139517_" gradientUnits="userSpaceOnUse" x1="-491.0037" y1="-14.6951" x2="-490.9337" y2="-12.6151" gradientTransform="matrix(324.98 0 0 -43.6 159866.1875 -296.9498)">
	<stop  offset="0" style="stop-color:#996241"/>
	<stop  offset="1" style="stop-color:#9C6543"/>
</linearGradient>
<path style="fill:url(#SVGID_00000136377701974770398600000009580058360315139517_);" d="M191.5,310.9c-24.8,3.7-40.8,8-47.3,12.8
	c-4.5,3.4-4.2,7.7,0.7,11c7.1,4.8,32.3,10.9,49.1,11.9c4.7,0.3,9.7,1,11.1,1.5c1.4,0.6,9.8,1.4,18.5,1.9s23.1,1.4,31.9,2
	c25.4,1.7,125.6-0.1,129.1-2.3c0.6-0.3,8-1.1,16.5-1.7s15.8-1.5,16.3-2c0.6-0.6,3-1,5.5-1c5.6,0,23.5-4,31.4-7
	c6.4-2.4,11.7-6.4,11.7-8.7c0-0.8-0.6-1.3-1.3-1s-8.2,1.7-16.7,3.1c-8.5,1.5-17.1,3.1-19,3.6c-4.3,1.1-18.4,2.7-34.5,4
	c-27.1,2.2-90.1,0.5-109.5-3c-3-0.5-10.1-1.4-15.8-2c-13.2-1.4-31-5.9-38.8-9.8c-6.9-3.5-12.4-9.1-12.4-12.7c0-2.4-0.2-2.5-7.2-2.4
	C206.8,309.2,198.1,310,191.5,310.9L191.5,310.9z"/>
<linearGradient id="SVGID_00000001660918646814145960000001888443449911159455_" gradientUnits="userSpaceOnUse" x1="-491.0756" y1="-26.2888" x2="-491.0756" y2="-27.3187" gradientTransform="matrix(345.7 0 0 -23.89 170067.6875 -261.8315)">
	<stop  offset="0" style="stop-color:#C88C6C"/>
	<stop  offset="1" style="stop-color:#DD9F80"/>
</linearGradient>
<path style="fill:url(#SVGID_00000001660918646814145960000001888443449911159455_);" d="M130,369.7c0,1,24.8,7,46.5,11.3
	c19.8,3.9,52,8.6,72.4,10.5c18.9,1.7,94.4,2.2,98.3,0.5c1.3-0.5,9.3-1.4,17.8-1.9c17.4-1.1,37.6-3.7,40.2-5.1c1-0.6,3.5-1,5.6-1
	c4.5,0,15.3-2,16.7-3.1c0.6-0.4,4.6-1.2,9-1.9c11.8-1.7,38.4-8,39.1-9.2c0.4-0.6-0.4-0.8-2.2-0.4c-1.6,0.3-8.3,1.5-14.9,2.6
	c-6.6,1.2-12.8,2.5-13.7,3.1c-1,0.5-3.5,0.9-5.5,0.9c-2.1,0.1-12.6,1.4-23.3,3.1s-24.4,3.5-30.5,3.9c-6,0.5-14.8,1.4-19.5,2
	c-21.4,2.6-34.3,3.1-68,2.6c-33.5-0.5-47.8-1.2-70-3.5c-5.2-0.6-12-1.3-15-1.6c-12.8-1.2-31.6-3.8-32.5-4.5s-9-1.9-23.5-3.5
	c-3-0.4-5.9-1-6.5-1.4c-0.5-0.4-4.4-1.3-8.5-2s-8.5-1.5-9.7-1.8C131,369,130,369.2,130,369.7L130,369.7z"/>
<linearGradient id="SVGID_00000145751902416564079460000011176989578874686094_" gradientUnits="userSpaceOnUse" x1="-483.1668" y1="-7.9315" x2="-484.0968" y2="-7.2514" gradientTransform="matrix(54.69 0 0 -81.81 26757.5566 -332.4432)">
	<stop  offset="0" style="stop-color:#A46E4A"/>
	<stop  offset="1" style="stop-color:#A56E4A"/>
</linearGradient>
<path style="fill:url(#SVGID_00000145751902416564079460000011176989578874686094_);" d="M297.8,245.7c-5.3,8.9-8.6,18-10.4,28.4
	c-1.9,11.2-1.4,18,2.1,28.6c5.7,17,10.6,21,24.4,20c10.9-0.7,17-3.3,19.8-8.2c2.1-3.7,7.3-18.3,7.3-20.6c0-0.5-2.4-0.9-5.2-0.9
	c-6.8-0.1-11.6-1.8-16.1-5.9c-6.7-6.1-13.5-22.2-15.8-37.5C302.3,239.1,301.8,238.8,297.8,245.7L297.8,245.7z"/>
<linearGradient id="SVGID_00000173125416292454662720000000149904043207819960_" gradientUnits="userSpaceOnUse" x1="-491.1444" y1="-12.7095" x2="-491.1444" y2="-13.8096" gradientTransform="matrix(362.98 0 0 -47.57 178579.1094 88.7093)">
	<stop  offset="0" style="stop-color:#7E4024"/>
	<stop  offset="1" style="stop-color:#814329"/>
</linearGradient>
<path style="fill:url(#SVGID_00000173125416292454662720000000149904043207819960_);" d="M122.4,695.1c1.1,7.5,6.2,16.5,11.1,19.9
	c6.1,4.2,10.1,5.5,27.8,8.9c60.9,11.9,126,16.7,179.2,13.3c50.4-3.3,117-13.6,128.8-19.9c7.9-4.4,12.9-12.1,15.1-23.2l0.6-3.4
	l-6.1,0.7c-3.4,0.3-6.7,1-7.3,1.5c-0.6,0.6-3.6,1.2-6.6,1.6c-13.5,1.5-22.6,2.9-23.5,3.5c-0.5,0.4-7.3,1.3-15,2
	c-7.7,0.6-14.7,1.5-15.5,2c-0.8,0.4-7.3,1-14.3,1.4c-7,0.3-14.7,1.1-17,1.6c-12.2,2.7-101.2,4.1-128.2,2c-6-0.5-17.3-1.4-25-2
	c-19.5-1.5-30.5-2.6-41.5-4.4c-5.2-0.9-14.3-2-20.1-2.6c-9.1-0.9-33.1-4.8-40.8-6.7C121.8,690.7,121.7,690.8,122.4,695.1
	L122.4,695.1z"/>
<linearGradient id="SVGID_00000024686206627683424190000009337713548362480263_" gradientUnits="userSpaceOnUse" x1="-491.836" y1="-1.7821" x2="-491.486" y2="-0.5921" gradientTransform="matrix(582.93 0 0 -375.51 286902.6562 -257.946)">
	<stop  offset="0" style="stop-color:#323643"/>
	<stop  offset="1" style="stop-color:#383C4A"/>
</linearGradient>
<path style="fill:url(#SVGID_00000024686206627683424190000009337713548362480263_);" d="M288.9,17.4c-0.2,0.3-13.5,0.9-29.4,1.6
	c-44.1,1.6-78.8,5-103,10C88,43.1,44,71.1,23.4,113.5c-4.9,10.3-9.7,26-8.9,29.2c0.3,1.2,0,4.2-0.5,6.5c-2,7.8-3,27.8-1.9,37.8
	c5.5,52,33.6,114.5,85.2,189.5c12.6,18.4,11.3,17.5,17,11l4.7-5.4l-7.3-11.8C97.4,347.5,83,320.8,83,317.1c0-1.1-1.8-4.9-4-8.4
	c-10.7-17-25.5-61.6-30.7-92.4c-2.5-14.9-2.5-49,0-61.3c3.7-18,11.2-36,20.2-48.5c6.1-8.5,21.7-23.4,30.4-29
	c15.5-10,39.6-19.8,64-26c11-2.8,35.7-7.2,44.4-7.9c2.9-0.3,9.5-1,14.7-1.5c16.6-1.9,26.4-2.2,74.1-2.8c44.7-0.4,50.1-0.3,87.9,2.7
	c59,4.6,112,22.5,138.2,46.8c22.2,20.6,35.7,50.3,37.4,82.2c0.3,5.8,0.7,10.7,0.9,11c0.4,0.8-1.3,23.9-2.4,33
	c-1.4,9.9-5.9,29.3-10.2,43.5c-10.1,32.9-34.7,84.1-55.8,115.9l-5.2,7.8l4.8,5.2c2.6,2.8,5.1,5.1,5.5,5.1s5.4-6.8,11.2-15.1
	c47.8-69.3,74.8-126.1,84.3-177.4c2.5-13.7,2.5-46.3,0-57.8c-3.8-17-9.2-29.9-18.7-44c-7.9-11.7-15.6-20-26.4-28.4
	C508.2,39.3,451.4,23.6,368,20c-14-0.6-33.1-1.5-42.5-2C308,16.9,289.7,16.7,288.9,17.4L288.9,17.4z"/>
<linearGradient id="SVGID_00000026850730874043146700000008484179903008772993_" gradientUnits="userSpaceOnUse" x1="-458.6291" y1="-22.0884" x2="-458.6591" y2="-22.1085" gradientTransform="matrix(14.51 0 0 -29 6724.4707 -337.6699)">
	<stop  offset="0" style="stop-color:#0A0C11"/>
	<stop  offset="1" style="stop-color:#0B0E14"/>
</linearGradient>
<path style="fill:url(#SVGID_00000026850730874043146700000008484179903008772993_);" d="M62,289.3c0,1.1,14,28.7,14.5,28.7
	s-13.2-27.9-14.1-28.9C62.2,288.9,62,289,62,289.3L62,289.3z"/>
<linearGradient id="SVGID_00000125570159306837667370000016827131375200673922_" gradientUnits="userSpaceOnUse" x1="-487.2813" y1="-38.9695" x2="-486.2813" y2="-38.9695" gradientTransform="matrix(86.28 0 0 -16.53 42651.207 -308.5997)">
	<stop  offset="0" style="stop-color:#D2A88D"/>
	<stop  offset="1" style="stop-color:#D2A88D"/>
</linearGradient>
<path style="fill:url(#SVGID_00000125570159306837667370000016827131375200673922_);" d="M634,328c-11.9,1.3-19.1,3.2-21.8,5.5
	l-2.6,2.2l2.6,1.7c1.4,0.9,6.1,2.3,10.4,3.2c4.3,0.8,10.2,2,13.1,2.6c6.7,1.4,40.3,0.3,49.7-1.6c10.3-2.1,13.8-7,6.9-9.7
	C682.9,328.3,650.5,326.1,634,328L634,328z"/>
<linearGradient id="SVGID_00000066514805176280656720000015625780674587911348_" gradientUnits="userSpaceOnUse" x1="-483.0592" y1="-91.2477" x2="-482.0592" y2="-91.2477" gradientTransform="matrix(49.58 0 0 -7.14 24578.1074 -316.5801)">
	<stop  offset="0" style="stop-color:#624119"/>
	<stop  offset="1" style="stop-color:#624119"/>
</linearGradient>
<path style="fill:url(#SVGID_00000066514805176280656720000015625780674587911348_);" d="M635.1,332c-2.5,0.5-5.1,1.6-5.9,2.4
	c-1.2,1.2-1.1,1.6,0.9,2.8c1.8,1,7.5,1.3,22.4,1.3c20.9,0,25.5-0.5,25.5-3c0-0.9-1.2-2.1-2.7-2.7C671.8,331.4,641,330.8,635.1,332
	L635.1,332z"/>
<linearGradient id="SVGID_00000069358646530978077860000003579009736434795703_" gradientUnits="userSpaceOnUse" x1="-488.955" y1="-3.6138" x2="-487.9551" y2="-3.6138" gradientTransform="matrix(121.92 0 0 -159.45 59722.9453 39.5066)">
	<stop  offset="0" style="stop-color:#86492A"/>
	<stop  offset="1" style="stop-color:#86492A"/>
</linearGradient>
<path style="fill:url(#SVGID_00000069358646530978077860000003579009736434795703_);" d="M112.1,542.7c0,10,4,38.6,5.9,42.3
	c0.4,0.8,1.2,4,1.9,7c1.6,6.9,5.1,18.2,6.2,19.5c0.4,0.6,1.7,3.5,2.9,6.5c3,7.6,11.9,25.1,16.9,33.3c2.2,3.7,4.1,7.1,4.1,7.5
	s1.3,2.3,2.8,4.2c1.6,1.9,3.2,4.2,3.5,5c0.4,0.8,3.5,4.9,7,9c6.6,7.8,9.6,9.8,18.7,12.6c3,0.9,6.4,2,7.5,2.5
	c1.6,0.7,44.5,3.8,44.5,3.3c0-0.1-1.6-2.6-3.5-5.5c-1.9-3-3.5-5.9-3.5-6.5s-0.9-2.3-2-3.7c-5.5-7-23.3-46.8-28-62.7
	c-1.2-4.1-2.6-8.3-3.1-9.2s-1.2-3.6-1.5-6c-0.4-2.4-1-4.8-1.4-5.3c-1.1-1.4-4-14.8-4-18.2c0-1.6-0.4-3.3-0.9-3.8
	c-0.6-0.6-1.1-4.7-1.3-9.2l-0.3-8.3h-4.2c-2.3,0-4.4-0.4-4.7-0.9s-2.7-1.2-5.3-1.5c-6.8-0.9-14.6-2.7-15.8-3.6
	c-0.5-0.5-2.8-1.1-5-1.5s-4.4-1.1-5-1.5c-0.5-0.4-4.1-1.8-8-3c-3.8-1.3-10.6-3.8-15-5.7c-4.4-1.8-8.3-3.3-8.7-3.3
	S112,539,112.1,542.7L112.1,542.7z"/>
<linearGradient id="SVGID_00000005975353065716005870000003869104039675275665_" gradientUnits="userSpaceOnUse" x1="-492.0587" y1="-1.6823" x2="-491.0587" y2="-1.6823" gradientTransform="matrix(521.54 0 0 -299.62 256670.6094 49.1918)">
	<stop  offset="0" style="stop-color:#925938"/>
	<stop  offset="1" style="stop-color:#925938"/>
</linearGradient>
<path style="fill:url(#SVGID_00000005975353065716005870000003869104039675275665_);" d="M157.2,405.3c-6,6.4-28.2,46-28.2,50.2
	c0,0.9-1.1,4-2.4,6.8c-1.3,2.9-2.7,6.5-3.1,8.2c-0.3,1.6-1.5,4.7-2.5,7c-2.4,5.3-4.6,14.5-5.5,22.5c-0.3,3.6-1.1,7-1.6,7.6
	c-0.5,0.7-1.2,7.1-1.6,14.3c-0.3,7.2-0.8,13.1-1,13.1c-1.3,0-26.2-13.5-28.6-15.6c-1.7-1.4-4-3-5.2-3.4c-2-0.8-11.7-8.3-21.2-16.4
	l-4.1-3.6l-1.7,5.2c-1,2.9-2.1,5.7-2.5,6.3c-1.4,1.8-4.2,18.6-5.5,33.2c-1.1,11.3,2.6,42.1,5.4,45.7c0.4,0.6,1.1,2.7,1.5,4.6
	c0.8,4.5,14.2,31.3,16.7,33.6c1,0.9,1.9,2.3,1.9,2.9c0,0.7,1.9,3.5,4.3,6.1c2.4,2.7,6.4,7.6,8.9,10.9c4.4,5.9,18.9,19.7,29.8,28.5
	c3,2.4,7.9,6.5,10.8,9.1c4.5,4,6.1,4.7,10.9,5.3c3.1,0.4,6.2,1.1,6.7,1.6c0.6,0.4,5.8,1.4,11.6,2s10.9,1.5,11.5,1.9
	c0.5,0.5,4.2,1.1,8,1.5c3.9,0.3,9.7,1.1,13,1.6s11.6,1.4,18.3,2c6.8,0.5,12.8,1.3,13.3,1.6c4.5,2.7,131.8,4.8,149.1,2.4
	c4-0.6,13.4-1.4,20.8-2c7.4-0.5,20.3-1.8,28.5-3c34.2-4.7,41.1-5.7,42.5-6.2c2.1-0.9,18.1-3.8,20.4-3.8c6.4,0,54.8-45.4,59.9-56.3
	c0.9-1.8,3-5.1,4.8-7.3c3.7-4.6,14.9-27,14.9-29.9c0-1.1,0.7-3.4,1.6-5c1.5-2.9,3.5-11.6,5.4-23.5c1.8-11.4,0.5-43.9-1.8-46.2
	c-0.4-0.4-2.5,0.4-4.6,1.8c-5.1,3.5-36.1,18.9-41.1,20.5c-2.2,0.6-5.3,1.8-7,2.5c-4.6,1.9-19.1,6-28,7.9c-4.4,1-8.4,2.1-9,2.5
	c-0.5,0.4-4,1.3-7.6,2l-6.6,1.3l-1.2,8.1c-0.7,4.5-1.7,11.2-2.2,15c-0.5,3.9-1.3,7.5-1.8,8c-0.4,0.6-1.6,4.5-2.6,8.6
	s-2.1,8.4-2.6,9.5s-2.4,6-4.3,11c-5.1,13.5-12,28.6-15.4,33.6c-1.6,2.4-3.8,6-4.8,7.9c-1.1,1.9-3.1,5.1-4.6,7s-3.3,4.8-4.1,6.3
	c-2.6,5-12.5,15.4-17,17.9c-6.7,3.8-23.5,6.8-41.2,7.5l-15.4,0.6l2.7-5.1c1.5-2.8,4.7-8.5,7.1-12.8c5.3-9.3,17.1-35.2,17.1-37.6
	c0-0.9,0.4-1.9,0.9-2.3c0.5-0.3,2.1-4.2,3.6-8.8c1.5-4.5,3-9.1,3.5-10.2c1.7-3.8,5-15.7,5-17.9c0-1.2,0.4-2.6,0.9-3.2
	c0.6-0.5,1.5-3.4,2-6.4c0.6-3,2-10.3,3.3-16.2c1.2-5.9,1.9-11,1.5-11.4s-5.1-0.2-10.4,0.5C352,570,276,569.2,246,565.4
	c-6.3-0.7-14-1.4-17-1.4c-5.3-0.1-11.8-1-31.5-4.4c-14.6-2.5-13.7-2.9-12.9,6.1c0.3,4.3,1,8.2,1.5,8.7c0.5,0.6,0.9,2.3,0.9,3.9
	c0,3.4,2.9,16.8,4,18.2c0.4,0.5,1,2.9,1.4,5.3c0.3,2.4,1,5.1,1.5,6s1.9,5.1,3.1,9.2c4.7,15.9,22.5,55.7,28,62.7c1.1,1.4,2,3.1,2,3.7
	s1.6,3.5,3.5,6.5c1.9,2.9,3.5,5.4,3.5,5.5c0,0.5-42.9-2.6-44.5-3.3c-1.1-0.5-4.5-1.6-7.5-2.5c-9.1-2.8-12.1-4.8-18.7-12.6
	c-3.5-4.1-6.6-8.2-7-9c-0.3-0.8-1.9-3.1-3.5-5c-1.5-1.9-2.8-3.8-2.8-4.2s-1.9-3.8-4.1-7.5c-5-8.2-13.9-25.7-16.9-33.3
	c-1.2-3-2.5-5.9-2.9-6.5c-1.1-1.3-4.6-12.6-6.2-19.5c-0.7-3-1.5-6.2-1.9-7c-0.8-1.6-3.8-18.6-5.1-29c-1-8.5-1.1-20-0.1-20
	c0.4,0,4.3,1.5,8.7,3.3c4.4,1.9,11.2,4.4,15,5.7c3.9,1.2,7.5,2.6,8,3c0.6,0.4,2.8,1.1,5,1.5s4.5,1,5,1.5c1.2,0.9,9,2.7,15.8,3.6
	c2.6,0.3,5,1,5.3,1.5s2,0.9,3.7,0.9h3.3l-0.8-7.3c-2.9-27.7-3.6-53.7-1.8-70.2c2.1-20.3,8.2-45.1,15.6-63.4c1.9-4.7,3.4-8.9,3.4-9.3
	s-5.3-0.8-11.9-0.8s-13.1-0.4-14.7-0.9s-5.2-1.2-8-1.5C160,403.2,158.9,403.4,157.2,405.3L157.2,405.3z"/>
<linearGradient id="SVGID_00000109733696602529381610000010013579776564720277_" gradientUnits="userSpaceOnUse" x1="-489.6461" y1="-2.4212" x2="-488.6461" y2="-2.4212" gradientTransform="matrix(146.91 0 0 -223.2 72474.0938 -93.8059)">
	<stop  offset="0" style="stop-color:#925938"/>
	<stop  offset="1" style="stop-color:#925938"/>
</linearGradient>
<path style="fill:url(#SVGID_00000109733696602529381610000010013579776564720277_);" d="M603,341.8c-7.9,8.6-19.8,26.3-28.5,42.6
	c-7.5,14-11.9,18.8-21.7,24.1l-5.5,3l2.6,5.2c6.2,12.4,7.4,14.4,10.2,17.9c3.6,4.5,3.6,5.2,0.2,6.6c-1.6,0.6-4.2,1.7-6,2.4
	c-1.7,0.8-4,1.4-5.1,1.4c-1.2,0-2.4,0.4-2.7,1c-0.3,0.5-1.5,1-2.6,1c-2.7,0-2.4,0.9,2,7.1c6,8.2,18.5,34.2,22,45.4
	c4.1,13.3,5.3,21.7,5.8,41.9l0.5,16.8l12.1-0.5c14.3-0.6,21.1-2.2,32.6-7.9c28-13.7,40.9-47,37.2-96.6c-0.6-9.2-1.8-21.4-2.7-27.2
	c-2.1-14.8-2.1-24.4,0.1-31c4.3-13.2,14.2-28.6,28.5-44.6c4.5-4.9,7.6-9,7-9.2c-0.5-0.2-3.4,0.2-6.2,0.8c-7.5,1.7-40.7,2.5-47.1,1.2
	c-2.9-0.6-8.8-1.8-13.2-2.6c-4.4-0.9-9.2-2.5-10.7-3.6l-2.7-2L603,341.8L603,341.8z"/>
<linearGradient id="SVGID_00000044137801752877950310000017074167409803933836_" gradientUnits="userSpaceOnUse" x1="-488.7757" y1="-4.1509" x2="-487.7757" y2="-4.1509" gradientTransform="matrix(116.82 0 0 -141.1 57436.625 42.0493)">
	<stop  offset="0" style="stop-color:#86492A"/>
	<stop  offset="1" style="stop-color:#86492A"/>
</linearGradient>
<path style="fill:url(#SVGID_00000044137801752877950310000017074167409803933836_);" d="M450.5,557.7c-1.6,0.3-3.4,0.8-4,1.3
	c-1,0.7-8.1,1.8-26.5,4.1c-5.2,0.6-12.2,1.5-15.5,2s-8.2,0.9-11,0.9h-5l-2.3,11.3c-1.2,6.1-2.7,13.7-3.3,16.7c-0.5,3-1.4,5.9-2,6.5
	c-0.5,0.5-0.9,1.9-0.9,3.1c0,2.2-3.3,14.1-5,17.9c-0.5,1.1-2,5.7-3.5,10.2c-1.5,4.6-3.1,8.5-3.6,8.8c-0.5,0.4-0.9,1.4-0.9,2.3
	c0,2.4-11.8,28.3-17.1,37.6c-2.4,4.3-5.6,10-7.1,12.8l-2.7,5.1l15.4-0.6c17.7-0.7,34.5-3.7,41.2-7.5c4.5-2.5,14.4-12.9,17-17.9
	c0.8-1.5,2.6-4.4,4.1-6.3s3.5-5.1,4.6-7c1-1.9,3.2-5.5,4.8-7.9c3.4-5,10.3-20.1,15.4-33.6c1.9-5,3.8-9.9,4.3-11s1.6-5.4,2.6-9.5
	s2.2-8,2.6-8.5c0.4-0.6,1.3-4.4,1.8-8.5c0.6-4.1,1.5-9.8,2-12.5c0.6-2.8,1-6.2,1-7.8C457,556.9,456.8,556.8,450.5,557.7L450.5,557.7
	z"/>
<linearGradient id="SVGID_00000100371912838920407000000012983263254055644060_" gradientUnits="userSpaceOnUse" x1="-481.451" y1="-18.1625" x2="-480.451" y2="-18.1625" gradientTransform="matrix(42.68 0 0 -34.88 21065.8906 -203.6894)">
	<stop  offset="0" style="stop-color:#874B2C"/>
	<stop  offset="1" style="stop-color:#874B2C"/>
</linearGradient>
<path style="fill:url(#SVGID_00000100371912838920407000000012983263254055644060_);" d="M536,414.6c-4.7,1.2-9.9,2.3-11.7,2.3
	c-1.7,0.1-3.5,0.6-3.8,1.1c-0.8,1.3-1.1,0.8,11.5,17.2c9.5,12.4,11.3,13.7,14.5,10.7c0.5-0.5,1.8-0.9,2.8-0.9s3.3-0.6,5-1.4
	c1.8-0.7,4.4-1.8,6-2.4c3.3-1.4,3.4-2.3,0.3-5.9c-2.7-3.2-7.5-11.6-10.7-18.6C547.5,411.3,547.8,411.4,536,414.6L536,414.6z"/>
<linearGradient id="SVGID_00000044887596672560841210000012781577275836308622_" gradientUnits="userSpaceOnUse" x1="-491.5298" y1="-1.9053" x2="-491.5598" y2="-0.8852" gradientTransform="matrix(514.13 0 0 -343.17 253022.375 -269.5039)">
	<stop  offset="0" style="stop-color:#FFFFFF;stop-opacity:0.99"/>
	<stop  offset="1" style="stop-color:#FFFFFF;stop-opacity:0.99"/>
</linearGradient>
<path style="fill:url(#SVGID_00000044887596672560841210000012781577275836308622_);" d="M256.9,39.5c-0.3,0.2-6.3,0.7-13.4,1
	c-7.2,0.3-17,1-22,1.6c-4.9,0.6-11.3,1.2-14.2,1.5c-8.7,0.7-33.4,5.1-44.4,7.9c-24.4,6.2-48.5,16-64,26c-8.7,5.6-24.3,20.5-30.4,29
	C59.5,119,52,137,48.3,155c-2.5,12.3-2.5,46.4,0,61.3c5.2,30.8,20,75.4,30.7,92.4c2.2,3.5,4,7.4,4,8.5c0,3.7,18.6,37.7,31.8,58.2
	l4.4,6.8l5.4-5.3c3-2.9,5.4-6,5.4-6.7c0-0.8-0.8-2.6-1.9-4c-3.5-5.1-4.4-10-3.8-20.6c0.8-12.2,2.4-18.6,5.7-22.2
	c11.5-12.2,67.8-22.8,134-25.2l18.5-0.7l-0.3-8c-0.5-11.4,1.8-20.7,8.3-34.4c6.1-12.5,9.9-17.4,15.2-19.2c3.1-1,3.9-0.8,8.9,2.3
	c13.4,8,23.7,20.4,27.6,33.1c1.7,5.7,2,8.7,1.6,16.7l-0.5,9.8l9.6,0.7c58.1,3.8,97.3,10.5,115.3,19.6c7.7,3.9,10.8,7,10.8,10.8
	c0,1.6,0.4,3.2,0.9,3.5c1.8,1.1,3.3,17,2.2,22.9c-1,5.8-3.3,11.1-5.1,12.2c-2.1,1.3-0.8,4.3,4.3,9.3c6.3,6.2,5.2,6.9,14.9-8.8
	c32.6-52.7,56.4-111.4,61.9-153c1.1-9.1,2.8-32.2,2.4-33c-0.2-0.3-0.6-5.2-0.9-11c-1.7-31.9-15.2-61.6-37.4-82.2
	c-19.5-18-54-32.8-96.7-41.3c-16.7-3.3-24.7-4.2-65.2-7.4C348.4,39.1,257.7,38.6,256.9,39.5L256.9,39.5z"/>
<linearGradient id="SVGID_00000134240945187369689640000009672271123140021904_" gradientUnits="userSpaceOnUse" x1="-487.1272" y1="-3.5582" x2="-486.1272" y2="-3.5582" gradientTransform="matrix(84 0 0 -159.64 41293 -81.8549)">
	<stop  offset="0" style="stop-color:#000000;stop-opacity:0.11"/>
	<stop  offset="1" style="stop-color:#000000;stop-opacity:0.11"/>
</linearGradient>
<path style="fill:url(#SVGID_00000134240945187369689640000009672271123140021904_);" d="M406.5,407.1c-1.6,0.5-9.6,1.2-17.7,1.6
	c-8.2,0.3-14.8,0.8-14.8,1.1c0,0.2,1.6,4.4,3.5,9.1c1.9,4.8,4.1,11.6,5,15.1c0.9,3.6,2,7.4,2.5,8.5c1.4,3.2,3.1,10.2,4,17.4
	c0.5,3.6,1.4,8.8,1.9,11.6c1.6,8,2.4,47.5,1.1,61c-1.3,14.8-2.6,26-3.5,30.3l-0.7,3.2h5.3c3,0,8.1-0.4,11.4-0.9s10.3-1.4,15.5-2
	c18.2-2.2,25.5-3.4,26.5-4.1c0.6-0.4,3.1-1,5.6-1.4c5.7-0.8,5.9-1.6,5.9-18c0-40.5-14.8-86.2-40.7-125.4
	C411.7,405.7,411.5,405.6,406.5,407.1L406.5,407.1z"/>
<linearGradient id="SVGID_00000111881479509122734250000006739334832683354246_" gradientUnits="userSpaceOnUse" x1="-489.0545" y1="-2.8206" x2="-488.5944" y2="-1.8006" gradientTransform="matrix(131.27 0 0 -229.7 64785.4023 -93.6184)">
	<stop  offset="0" style="stop-color:#FFFFFF;stop-opacity:9.000000e-02"/>
	<stop  offset="1" style="stop-color:#FFFFFF;stop-opacity:9.000000e-02"/>
</linearGradient>
<path style="fill:url(#SVGID_00000111881479509122734250000006739334832683354246_);" d="M634,328c-10.9,1.2-18.9,3.1-21.1,4.9
	c-1.7,1.4-2,3.1-2.3,13.7c-0.2,6.6-0.8,12.9-1.4,14s-1.3,4.9-1.7,8.4c-0.4,3.6-1,7.4-1.5,8.5c-0.4,1.1-1.8,5.8-3,10.5
	c-5.5,21.1-18.4,39.9-33.5,48.5c-2.7,1.6-5.2,3-5.4,3.2c-0.2,0.1,1.2,2.9,3.1,6c4.8,7.8,17.8,33.9,17.8,35.7c0,0.8,1.1,3.6,2.5,6.2
	s2.5,5.5,2.5,6.4c0,1,0.7,3.1,1.5,4.6c0.8,1.6,1.5,3.7,1.5,4.8c0,1,1,6.6,2.1,12.5c2.2,10.7,2.2,16.9,0.3,35.3
	c-0.6,5.3-0.5,5.8,1.3,5.8c4.2,0,14.2-3.2,22.2-7.2c28-13.7,40.9-47,37.2-96.6c-0.6-9.2-1.8-21.4-2.7-27.2
	c-2.1-14.7-2.1-24.4,0.1-31c4.6-14.3,17.9-34,34-50.3c9.1-9.3,9.7-10.9,4.8-12.8C682.9,328.3,650.5,326.1,634,328L634,328z"/>
<linearGradient id="SVGID_00000059299830887700646400000008590770287171488906_" gradientUnits="userSpaceOnUse" x1="-491.6362" y1="-17.0576" x2="-490.6363" y2="-17.0576" gradientTransform="matrix(360.46 0 0 -36.89 177335.1406 -240.312)">
	<stop  offset="0" style="stop-color:#000000;stop-opacity:0.14"/>
	<stop  offset="1" style="stop-color:#000000;stop-opacity:0.14"/>
</linearGradient>
<path style="fill:url(#SVGID_00000059299830887700646400000008590770287171488906_);" d="M460,374.2c-8.5,2-19.1,4.2-23.5,4.8
	c-4.4,0.7-8.4,1.5-9,1.9c-1.4,1.1-12.2,3.1-16.7,3.1c-2.1,0-4.6,0.4-5.6,1c-2.6,1.4-22.8,4-40.2,5.1c-8.5,0.5-16.5,1.4-17.8,1.9
	c-3.9,1.7-79.4,1.2-98.3-0.5c-32.8-3.1-71.8-9.6-103.2-17.2l-14.8-3.6l-4,3.9c-4.4,4.2-4.7,5.2-2.1,6c0.9,0.4,4.9,1.9,8.9,3.5
	c3.9,1.6,8,2.9,9,2.9s3.1,0.7,4.6,1.5c3.2,1.6,11.2,3.8,20.7,5.6c3.6,0.7,7,1.5,7.5,2c1.3,0.9,16.8,3.8,26.5,4.9
	c4.1,0.5,12,1.5,17.5,2.4c25.1,3.8,82.7,5.2,113,2.8c37.9-2.9,67.6-6.5,79-9.3c8.7-2.2,16.3-3.7,21.7-4.4c3.2-0.3,6-1.1,6.3-1.6
	c0.4-0.5,2.1-0.9,3.9-0.9c2.7,0,39.3-9.4,40.2-10.3c0.1-0.1-1.6-2.2-4-4.7l-4.2-4.5L460,374.2L460,374.2z"/>
<linearGradient id="SVGID_00000033367548835881898730000004215866635315287203_" gradientUnits="userSpaceOnUse" x1="-492.1401" y1="-1.2769" x2="-491.1401" y2="-1.2769" gradientTransform="matrix(570.09 0 0 -364.69 280573.7812 -256.0803)">
	<stop  offset="0" style="stop-color:#000000;stop-opacity:0.57"/>
	<stop  offset="1" style="stop-color:#000000;stop-opacity:0.57"/>
</linearGradient>
<path style="fill:url(#SVGID_00000033367548835881898730000004215866635315287203_);" d="M254,28c-7.4,0.4-21.8,1-32,1.4
	s-20.1,1.1-22,1.6s-9.8,1.6-17.5,2.5S162,36.4,154,38C80.2,52.7,34.5,84.9,18.1,133.7c-5.4,16.1-7.8,37.2-6,53.7
	c5.7,52,33.8,114.4,85.2,189.1c12.5,18.2,11.5,17.5,16,12l3.8-4.5l-5.4-8.3c-2.9-4.5-7-10.4-9-13c-2-2.7-3.7-5.3-3.7-5.9
	c0-1.2-9.6-17.5-12-20.3c-3.6-4.2-25-45.1-25-47.8c0-1.4-3.7-10-9.1-21.3c-1.6-3.3-2.9-6.7-2.9-7.6c0-1.5-4.2-14.6-5.9-18.3
	c-0.5-1.1-1.9-6.5-3.2-12c-1.2-5.5-2.5-10.5-2.9-11c-3.5-4.7-4.7-53.1-1.8-68.8c1-4.9,2.2-9.4,2.7-10.1c0.6-0.7,1.7-3.7,2.5-6.7
	c2-7,9.2-21.1,14.9-29.1c5.1-7.2,24.4-26.4,27.9-27.7c1.3-0.5,4.3-2.4,6.8-4.2c5.8-4.2,34.1-18.4,40-19.9c2.5-0.7,5.9-1.8,7.5-2.5
	c1.7-0.7,5-1.6,7.5-1.9c2.4-0.4,4.9-1.1,5.5-1.5c1.5-1.2,9.9-3.1,13.4-3.1c1.6,0,3.2-0.4,3.6-0.9c0.3-0.5,3.1-1.2,6.3-1.6
	c3.1-0.3,9.3-1.2,13.7-2c8.5-1.5,20.7-2.7,47.5-4.7c22.1-1.7,109-1.7,136.5,0c29,1.8,66.6,6.8,70,9.2c0.6,0.4,4.6,1.5,9,2.5
	c10.5,2.2,22.5,5.7,23.1,6.7c0.3,0.4,1.5,0.8,2.7,0.8s4.9,1.4,8.2,3.1s10.1,4.9,15,7c5,2.2,10.6,5.2,12.5,6.7s4.8,3.4,6.4,4.2
	c4.2,2.2,29.1,26.4,31,30.2c0.8,1.8,3.4,6.2,5.5,9.8c6.6,10.7,7.2,12,8.7,17.8c0.8,3,2.1,6.9,2.8,8.6c2.8,6.4,5.1,22.9,5.1,36.6
	c0,14.8-2,36.9-3.5,38.4c-0.6,0.6-1,2.3-1,3.9c0,3.2-1.9,11.7-3,13.2c-0.4,0.5-2.4,6.6-4.4,13.5c-7.2,23.8-6.3,21.7-30.2,70.5
	c-6.5,13.4-16.3,29.8-29.4,49.6c-12.2,18.4-12.2,18.5-10.5,19.9c1.2,1,1.6,0.9,2.2-0.6c0.5-1.1,5.3-8.7,10.9-16.9
	c38.7-57.6,62.4-106,72.4-148c1.2-5,2.6-9.8,3.1-10.8c2.8-5.2,3.5-57.4,0.8-60.2c-0.5-0.5-0.9-2.4-0.9-4.3c0-4-4.9-19-8.6-26.4
	c-8.4-16.8-27.9-38.3-44.5-49.1c-14-9.1-31.7-17.4-49.9-23.3C458.1,40.5,427.3,34,417.5,34c-2.8,0-5.5-0.4-6-0.9
	c-0.6-0.5-5-1.2-10-1.5c-4.9-0.4-14.6-1-21.5-1.5s-19-1.4-27-1.9C337,27,275.1,26.9,254,28L254,28z"/>
<linearGradient id="SVGID_00000138544698215169307230000008251148789223851927_" gradientUnits="userSpaceOnUse" x1="-491.6732" y1="-1.8898" x2="-491.5032" y2="-0.7497" gradientTransform="matrix(537.93 0 0 -351.8 264740.4688 -271.4112)">
	<stop  offset="0" style="stop-color:#000000;stop-opacity:0.95"/>
	<stop  offset="1" style="stop-color:#000000;stop-opacity:0.97"/>
</linearGradient>
<path style="fill:url(#SVGID_00000138544698215169307230000008251148789223851927_);" d="M256,32.5c-0.8,0.2-9.6,0.8-19.5,1.4
	c-23.3,1.5-38.1,2.9-48,4.6c-4.4,0.8-10.6,1.7-13.7,2c-3.2,0.4-6,1.1-6.3,1.6c-0.4,0.5-2,0.9-3.6,0.9c-3.5,0-11.9,1.9-13.4,3.1
	c-0.6,0.4-3.1,1.1-5.5,1.5c-2.5,0.3-5.8,1.2-7.5,1.9c-1.6,0.7-5,1.8-7.5,2.5c-5.9,1.5-34.2,15.7-40,19.9c-2.5,1.8-5.5,3.7-6.8,4.2
	c-3.5,1.3-22.8,20.5-27.9,27.7c-5.7,8-12.9,22.1-14.9,29.1c-0.8,3-1.9,6-2.5,6.7c-0.5,0.7-1.7,5.2-2.7,10.1
	c-2.9,15.7-1.7,64.1,1.8,68.8c0.4,0.5,1.7,5.5,2.9,11c1.3,5.5,2.7,10.9,3.2,12c1.7,3.8,5.9,16.9,5.9,18.5c0,0.9,0.9,3.4,2,5.5
	c1.2,2.2,4.1,8.5,6.5,14c7,16,25.5,53.4,27.9,56.3c3,3.6,12.6,19.7,12.6,21c0,0.6,1.7,3.2,3.7,5.9c2,2.6,6.1,8.5,9.1,13.1
	c3.5,5.3,5.8,8,6.4,7.4s-1.8-5.3-6.5-12.8C97.4,347.5,83,320.8,83,317.1c0-1.1-1.8-4.9-4-8.4c-10.7-17-25.5-61.6-30.7-92.4
	c-2.5-14.9-2.5-49,0-61.3c3.7-18,11.2-36,20.2-48.5c6.1-8.5,21.7-23.4,30.4-29c15.5-10,39.6-19.8,64-26c11-2.8,35.7-7.2,44.4-7.9
	c2.9-0.3,9.5-1,14.7-1.5c16.6-1.9,26.4-2.2,74.1-2.8c44.7-0.4,50.1-0.3,87.9,2.7c59,4.6,112,22.5,138.2,46.8
	c22.2,20.6,35.7,50.3,37.4,82.2c0.3,5.8,0.7,10.7,0.9,11c0.4,0.8-1.3,23.9-2.4,33c-1.4,9.9-5.9,29.3-10.2,43.5
	c-10.1,32.9-34.7,84.1-55.8,116c-3.6,5.4-4.9,8.1-4.2,8.8c1.3,1.3,0.2,2.7,10.1-12.8c4.6-7.2,9.1-13.9,10-15
	c3.1-3.6,17.1-27.8,22.5-39c2.9-6.1,9.1-18.9,13.8-28.5c8.8-18.2,10-21.4,16.3-42c2-6.9,4-13,4.4-13.5c1.1-1.5,3-10,3-13.2
	c0-1.6,0.4-3.3,1-3.9c1.5-1.5,3.5-23.6,3.5-38.4c0-13.7-2.3-30.2-5.1-36.6c-0.7-1.7-2-5.6-2.8-8.6c-1.5-5.8-2.1-7.1-8.7-17.8
	c-2.1-3.6-4.7-8-5.5-9.8c-1.9-3.8-26.8-28-31-30.2c-1.6-0.8-4.5-2.7-6.4-4.2s-7.5-4.5-12.5-6.7c-4.9-2.1-11.7-5.3-15-7
	s-7-3.1-8.2-3.1s-2.4-0.4-2.7-0.8c-0.6-1-12.6-4.5-23.1-6.7c-4.4-1-8.4-2.1-9-2.5c-3.1-2.2-40.4-7.3-67-9.1
	C360,32.9,259.5,31.7,256,32.5L256,32.5z"/>
<linearGradient id="SVGID_00000109012752306975393070000004722307377055270795_" gradientUnits="userSpaceOnUse" x1="-491.6188" y1="-10.0401" x2="-490.6188" y2="-10.0401" gradientTransform="matrix(358.11 0 0 -62.05 176178.1094 -260.9593)">
	<stop  offset="0" style="stop-color:#000000;stop-opacity:0.12"/>
	<stop  offset="1" style="stop-color:#000000;stop-opacity:0.12"/>
</linearGradient>
<path style="fill:url(#SVGID_00000109012752306975393070000004722307377055270795_);" d="M125.3,334.7c-0.4,2.1-0.8,8.5-0.8,14.3
	c0,8.4,0.4,11.2,1.9,14c1,1.9,2.3,4.4,2.9,5.6c2.6,4.9,73.9,18.6,119.6,22.9c18.9,1.7,94.4,2.2,98.3,0.5c1.3-0.5,9.3-1.4,17.8-1.9
	c17.4-1.1,37.6-3.7,40.2-5.1c1-0.6,3.5-1,5.6-1c4.5,0,15.3-2,16.7-3.1c0.6-0.4,4.6-1.2,9-1.9c4.4-0.6,14.8-2.7,23.2-4.6
	c14.8-3.4,15.1-3.6,17.6-7.2c5-7.3,6.3-14.6,4.6-26.2c-1.1-8.1-2.4-10.6-4-7.7c-2.4,4.2-18.8,11-35.4,14.7c-5.5,1.2-10.9,2.6-12,3
	c-2.8,1.3-13.2,3-17.9,3c-2.2,0-6.5,0.5-9.5,1c-15.8,2.8-44.1,4.4-85.6,4.7c-53.3,0.4-87-0.9-115-4.6c-4.4-0.6-12-1.6-17-2.2
	c-4.9-0.6-9.4-1.5-9.9-2c-0.6-0.5-2.5-0.9-4.4-0.9c-3.6,0-18.2-3.5-21-5c-0.9-0.5-5.5-2.7-10.3-4.8c-4.7-2.1-9.4-5.1-10.6-6.5
	c-1.1-1.5-2.3-2.7-2.6-2.7C126.3,331,125.7,332.7,125.3,334.7L125.3,334.7z"/>
<linearGradient id="SVGID_00000137112853431600436040000000593606880070462894_" gradientUnits="userSpaceOnUse" x1="-491.6039" y1="-9.9633" x2="-490.6039" y2="-9.9633" gradientTransform="matrix(351.96 0 0 -62.27 173152.4375 -291.7807)">
	<stop  offset="0" style="stop-color:#000000;stop-opacity:4.000000e-02"/>
	<stop  offset="1" style="stop-color:#000000;stop-opacity:4.000000e-02"/>
</linearGradient>
<path style="fill:url(#SVGID_00000137112853431600436040000000593606880070462894_);" d="M264,298.2c-55.3,2-106.6,10.1-126.5,20
	c-5.4,2.7-10.5,7.7-10.5,10.4c0,3.9,4.1,7.6,12.9,11.6c4.8,2.1,9.4,4.3,10.3,4.8c2.8,1.5,17.4,5,21,5c1.9,0,3.8,0.4,4.3,0.9
	c0.6,0.5,5.1,1.4,10,2c5,0.6,12.6,1.6,17,2.2c28,3.7,61.7,5,115,4.6c41.5-0.3,69.8-1.9,85.6-4.7c3-0.5,7.3-1,9.5-1
	c4.7,0,15.1-1.7,17.9-3c1.1-0.4,6.5-1.8,12-3c17.1-3.8,33.1-10.6,35.5-15c1.7-3.1,1.1-7-1.4-9.5c-11.7-11.7-55.1-20.5-123.7-25
	l-9.6-0.7l-0.7,3.3c-0.8,4.3-9.3,21.9-10.5,21.9c-0.6,0-3.2,1.4-6,3.1c-7,4.4-14.2,5.2-45.1,5.3c-17,0.1-28-0.8-33-2.7
	c-8.9-3.3-10.9-4.9-9-7.2c3.2-3.9,23.8-6.9,40.2-5.9l11,0.7l-1.8-3.4c-0.9-1.9-2.7-6.1-3.8-9.4l-2.1-6L264,298.2L264,298.2z"/>
<linearGradient id="SVGID_00000105413924602409104910000013236914158655060118_" gradientUnits="userSpaceOnUse" x1="-490.7904" y1="-0.5315" x2="-489.7903" y2="-0.5315" gradientTransform="matrix(541.69 0 0 -668.98 266594.7812 51.8296)">
	<stop  offset="0" style="stop-color:#9E6945"/>
	<stop  offset="1" style="stop-color:#9E6945"/>
</linearGradient>
<path style="fill:url(#SVGID_00000105413924602409104910000013236914158655060118_);" d="M958.9,73.4c-0.3,0.2-6.3,0.7-13.4,1
	c-7.2,0.3-17,1-22,1.6c-4.9,0.6-11.3,1.2-14.2,1.5c-8.7,0.7-33.4,5.1-44.4,7.9c-24.4,6.2-48.5,16-64,26c-8.7,5.6-24.3,20.5-30.4,29
	c-9,12.5-16.5,30.5-20.2,48.5c-2.5,12.3-2.5,46.4,0,61.3c5.2,30.8,20,75.4,30.7,92.4c2.2,3.5,4,7.3,4,8.4c0,3.7,14.4,30.4,28.6,53.2
	l7.4,11.7l-6.7,7.8c-3.8,4.3-10.9,12.5-15.9,18.3c-30.4,35-46.3,59.9-55.8,87.5c-22.9,66.8,0.8,131.7,66.9,183.6
	c5.5,4.4,11.1,8.8,12.3,9.8c2.8,2.4,28,7.4,44.9,9c6,0.5,15.1,1.7,20.3,2.6c11,1.8,22,2.9,41.5,4.4c7.7,0.6,19,1.5,25,2
	c27,2.1,116,0.7,128.2-2c2.3-0.5,10-1.3,17-1.6c7-0.4,13.5-1,14.3-1.4c0.8-0.5,7.8-1.4,15.5-2c7.7-0.7,14.5-1.6,15-2
	c0.9-0.6,10.1-2,23.3-3.5c3-0.3,6.1-1,7-1.5c1-0.5,4.3-1.4,7.4-2c6.4-1.3,8.7-2.7,27.1-17.8c22-17.9,41.7-42.2,53.7-66.1
	c4.8-9.7,10.8-28.5,12.6-39.8c1.8-11.4,1.5-36.9-0.5-50.3c-1.8-12.2-6.8-26.5-14.8-42.5c-10.6-21.2-25.1-41.1-54.2-74.2l-16-18.3
	l5.1-7.7c21-31.7,45.6-83,55.7-115.8c4.3-14.2,8.8-33.6,10.2-43.5c1.1-9.1,2.8-32.2,2.4-33c-0.2-0.3-0.6-5.2-0.9-11
	c-1.7-31.9-15.2-61.6-37.4-82.2c-19.5-18-54-32.8-96.7-41.3c-16.7-3.3-24.7-4.2-65.2-7.4C1050.4,73,959.7,72.5,958.9,73.4
	L958.9,73.4z"/>
<linearGradient id="SVGID_00000168806989134867099930000011504863074219741874_" gradientUnits="userSpaceOnUse" x1="-479.3351" y1="-3.8019" x2="-478.3351" y2="-3.8019" gradientTransform="matrix(121.92 0 0 -159.45 59722.9453 39.5066)">
	<stop  offset="0" style="stop-color:#86492A"/>
	<stop  offset="1" style="stop-color:#86492A"/>
</linearGradient>
<path style="fill:url(#SVGID_00000168806989134867099930000011504863074219741874_);" d="M1285.3,572.7c0,10,4,38.6,5.9,42.3
	c0.4,0.8,1.2,4,1.9,7c1.6,6.9,5.1,18.2,6.2,19.5c0.4,0.6,1.7,3.5,2.9,6.5c3,7.6,11.9,25.1,16.9,33.3c2.2,3.7,4.1,7.1,4.1,7.5
	s1.3,2.3,2.8,4.2c1.6,1.9,3.2,4.2,3.5,5c0.4,0.8,3.5,4.9,7,9c6.6,7.8,9.6,9.8,18.7,12.6c3,0.9,6.4,2,7.5,2.5
	c1.6,0.7,44.5,3.8,44.5,3.3c0-0.1-1.6-2.6-3.5-5.5c-1.9-3-3.5-5.9-3.5-6.5s-0.9-2.3-2-3.7c-5.5-7-23.3-46.8-28-62.7
	c-1.2-4.1-2.6-8.3-3.1-9.2s-1.2-3.6-1.5-6c-0.4-2.4-1-4.8-1.4-5.3c-1.1-1.4-4-14.8-4-18.2c0-1.6-0.4-3.3-0.9-3.8
	c-0.6-0.6-1.1-4.7-1.3-9.2l-0.3-8.3h-4.2c-2.3,0-4.4-0.4-4.7-0.9s-2.7-1.2-5.3-1.5c-6.8-0.9-14.6-2.7-15.8-3.6
	c-0.5-0.5-2.8-1.1-5-1.5s-4.4-1.1-5-1.5c-0.5-0.4-4.1-1.8-8-3c-3.8-1.3-10.6-3.8-15-5.7c-4.4-1.8-8.3-3.3-8.7-3.3
	S1285.2,569,1285.3,572.7L1285.3,572.7z"/>
<linearGradient id="SVGID_00000162313512033565444380000002220266756196766903_" gradientUnits="userSpaceOnUse" x1="-489.5082" y1="-1.8115" x2="-488.5082" y2="-1.8115" gradientTransform="matrix(521.54 0 0 -299.62 256670.6094 49.1918)">
	<stop  offset="0" style="stop-color:#925938"/>
	<stop  offset="1" style="stop-color:#925938"/>
</linearGradient>
<path style="fill:url(#SVGID_00000162313512033565444380000002220266756196766903_);" d="M1487.4,444c-6,6.4-28.2,46-28.2,50.2
	c0,0.9-1.1,4-2.4,6.8c-1.3,2.9-2.7,6.5-3.1,8.2c-0.3,1.6-1.5,4.7-2.5,7c-2.4,5.3-4.6,14.5-5.5,22.5c-0.3,3.6-1.1,7-1.6,7.6
	c-0.5,0.7-1.2,7.1-1.6,14.3c-0.3,7.2-0.8,13.1-1,13.1c-1.3,0-26.2-13.5-28.6-15.6c-1.7-1.4-4-3-5.2-3.4c-2-0.8-11.7-8.3-21.2-16.4
	l-4.1-3.6l-1.7,5.2c-1,2.9-2.1,5.7-2.5,6.3c-1.4,1.8-4.2,18.6-5.5,33.2c-1.1,11.3,2.6,42.1,5.4,45.7c0.4,0.6,1.1,2.7,1.5,4.6
	c0.8,4.5,14.2,31.3,16.7,33.6c1,0.9,1.9,2.3,1.9,2.9c0,0.7,1.9,3.5,4.3,6.1c2.4,2.7,6.4,7.6,8.9,10.9c4.4,5.9,18.9,19.7,29.8,28.5
	c3,2.4,7.9,6.5,10.8,9.1c4.5,4,6.1,4.7,10.9,5.3c3.1,0.4,6.2,1.1,6.7,1.6c0.6,0.4,5.8,1.4,11.6,2s10.9,1.5,11.5,1.9
	c0.5,0.5,4.2,1.1,8,1.5c3.9,0.3,9.7,1.1,13,1.6s11.6,1.4,18.3,2c6.8,0.5,12.8,1.3,13.3,1.6c4.5,2.7,131.8,4.8,149.1,2.4
	c4-0.6,13.4-1.4,20.8-2c7.4-0.5,20.3-1.8,28.5-3c34.2-4.7,41.1-5.7,42.5-6.2c2.1-0.9,18.1-3.8,20.4-3.8c6.4,0,54.8-45.4,59.9-56.3
	c0.9-1.8,3-5.1,4.8-7.3c3.7-4.6,14.9-27,14.9-29.9c0-1.1,0.7-3.4,1.6-5c1.5-2.9,3.5-11.6,5.4-23.5c1.8-11.4,0.5-43.9-1.8-46.2
	c-0.4-0.4-2.5,0.4-4.6,1.8c-5.1,3.5-36.1,18.9-41.1,20.5c-2.2,0.6-5.3,1.8-7,2.5c-4.6,1.9-19.1,6-28,7.9c-4.4,1-8.4,2.1-9,2.5
	c-0.5,0.4-4,1.3-7.6,2l-6.6,1.3l-1.2,8.1c-0.7,4.5-1.7,11.2-2.2,15c-0.5,3.9-1.3,7.5-1.8,8c-0.4,0.6-1.6,4.5-2.6,8.6
	s-2.1,8.4-2.6,9.5s-2.4,6-4.3,11c-5.1,13.5-12,28.6-15.4,33.6c-1.6,2.4-3.8,6-4.8,7.9c-1.1,1.9-3.1,5.1-4.6,7s-3.3,4.8-4.1,6.3
	c-2.6,5-12.5,15.4-17,17.9c-6.7,3.8-23.5,6.8-41.2,7.5l-15.4,0.6l2.7-5.1c1.5-2.8,4.7-8.5,7.1-12.8c5.3-9.3,17.1-35.2,17.1-37.6
	c0-0.9,0.4-1.9,0.9-2.3c0.5-0.3,2.1-4.2,3.6-8.8c1.5-4.5,3-9.1,3.5-10.2c1.7-3.8,5-15.7,5-17.9c0-1.2,0.4-2.6,0.9-3.2
	c0.6-0.5,1.5-3.4,2-6.4c0.6-3,2-10.3,3.3-16.2c1.2-5.9,1.9-11,1.5-11.4s-5.1-0.2-10.4,0.5c-25.3,3.1-101.3,2.3-131.3-1.5
	c-6.3-0.7-14-1.4-17-1.4c-5.3-0.1-11.8-1-31.5-4.4c-14.6-2.5-13.7-2.9-12.9,6.1c0.3,4.3,1,8.2,1.5,8.7c0.5,0.6,0.9,2.3,0.9,3.9
	c0,3.4,2.9,16.8,4,18.2c0.4,0.5,1,2.9,1.4,5.3c0.3,2.4,1,5.1,1.5,6s1.9,5.1,3.1,9.2c4.7,15.9,22.5,55.7,28,62.7c1.1,1.4,2,3.1,2,3.7
	s1.6,3.5,3.5,6.5c1.9,2.9,3.5,5.4,3.5,5.5c0,0.5-42.9-2.6-44.5-3.3c-1.1-0.5-4.5-1.6-7.5-2.5c-9.1-2.8-12.1-4.8-18.7-12.6
	c-3.5-4.1-6.6-8.2-7-9c-0.3-0.8-1.9-3.1-3.5-5c-1.5-1.9-2.8-3.8-2.8-4.2s-1.9-3.8-4.1-7.5c-5-8.2-13.9-25.7-16.9-33.3
	c-1.2-3-2.5-5.9-2.9-6.5c-1.1-1.3-4.6-12.6-6.2-19.5c-0.7-3-1.5-6.2-1.9-7c-0.8-1.6-3.8-18.6-5.1-29c-1-8.5-1.1-20-0.1-20
	c0.4,0,4.3,1.5,8.7,3.3c4.4,1.9,11.2,4.4,15,5.7c3.9,1.2,7.5,2.6,8,3c0.6,0.4,2.8,1.1,5,1.5s4.5,1,5,1.5c1.2,0.9,9,2.7,15.8,3.6
	c2.6,0.3,5,1,5.3,1.5s2,0.9,3.7,0.9h3.3l-0.8-7.3c-2.9-27.7-3.6-53.7-1.8-70.2c2.1-20.3,8.2-45.1,15.6-63.4c1.9-4.7,3.4-8.9,3.4-9.3
	s-5.3-0.8-11.9-0.8s-13.1-0.4-14.7-0.9s-5.2-1.2-8-1.5C1490.2,441.9,1489.1,442.1,1487.4,444L1487.4,444z"/>
<linearGradient id="SVGID_00000092455211049147496290000005769144974793156795_" gradientUnits="userSpaceOnUse" x1="-475.6557" y1="-4.3324" x2="-474.6555" y2="-4.3324" gradientTransform="matrix(116.82 0 0 -141.1 57436.625 42.0493)">
	<stop  offset="0" style="stop-color:#86492A"/>
	<stop  offset="1" style="stop-color:#86492A"/>
</linearGradient>
<path style="fill:url(#SVGID_00000092455211049147496290000005769144974793156795_);" d="M1983.2,583.3c-1.6,0.3-3.4,0.8-4,1.3
	c-1,0.7-8.1,1.8-26.5,4.1c-5.2,0.6-12.2,1.5-15.5,2s-8.2,0.9-11,0.9h-5l-2.3,11.3c-1.2,6.1-2.7,13.7-3.3,16.7c-0.5,3-1.4,5.9-2,6.5
	c-0.5,0.5-0.9,1.9-0.9,3.1c0,2.2-3.3,14.1-5,17.9c-0.5,1.1-2,5.7-3.5,10.2c-1.5,4.6-3.1,8.5-3.6,8.8c-0.5,0.4-0.9,1.4-0.9,2.3
	c0,2.4-11.8,28.3-17.1,37.6c-2.4,4.3-5.6,10-7.1,12.8l-2.7,5.1l15.4-0.6c17.7-0.7,34.5-3.7,41.2-7.5c4.5-2.5,14.4-12.9,17-17.9
	c0.8-1.5,2.6-4.4,4.1-6.3s3.5-5.1,4.6-7c1-1.9,3.2-5.5,4.8-7.9c3.4-5,10.3-20.1,15.4-33.6c1.9-5,3.8-9.9,4.3-11s1.6-5.4,2.6-9.5
	s2.2-8,2.6-8.5c0.4-0.6,1.3-4.4,1.8-8.5c0.6-4.1,1.5-9.8,2-12.5c0.6-2.8,1-6.2,1-7.8C1989.8,582.5,1989.6,582.4,1983.2,583.3
	L1983.2,583.3z"/>
<linearGradient id="SVGID_00000098939360709187728510000012614602437851301509_" gradientUnits="userSpaceOnUse" x1="-471.2672" y1="-3.7054" x2="-470.2672" y2="-3.7054" gradientTransform="matrix(84 0 0 -159.64 41293 -81.8549)">
	<stop  offset="0" style="stop-color:#000000;stop-opacity:0.11"/>
	<stop  offset="1" style="stop-color:#000000;stop-opacity:0.11"/>
</linearGradient>
<path style="fill:url(#SVGID_00000098939360709187728510000012614602437851301509_);stroke:#000000;stroke-miterlimit:10;" d="
	M1739.2,430.6c-1.6,0.5-9.6,1.2-17.7,1.6c-8.2,0.3-14.8,0.8-14.8,1.1c0,0.2,1.6,4.4,3.5,9.1c1.9,4.8,4.1,11.6,5,15.1
	c0.9,3.6,2,7.4,2.5,8.5c1.4,3.2,3.1,10.2,4,17.4c0.5,3.6,1.4,8.8,1.9,11.6c1.6,8,2.4,47.5,1.1,61c-1.3,14.8-2.6,26-3.5,30.3
	l-0.7,3.2h5.3c3,0,8.1-0.4,11.4-0.9s10.3-1.4,15.5-2c18.2-2.2,25.5-3.4,26.5-4.1c0.6-0.4,3.1-1,5.6-1.4c5.7-0.8,5.9-1.6,5.9-18
	c0-40.5-14.8-86.2-40.7-125.4C1744.4,429.2,1744.2,429.1,1739.2,430.6L1739.2,430.6z"/>
<rect x="103.9" y="396.1" class="st32" width="134.5" height="305.7"/>
<rect x="332.4" y="400.4" class="st32" width="133.6" height="303"/>
<g>
	<line class="st33" x1="668.4" y1="442.1" x2="753.2" y2="442.1"/>
	<path class="st34" d="M771.3,442.1c-8.5,3.2-19.1,8.5-25.6,14.3l5.2-14.3l-5.2-14.3C752.2,433.6,762.8,439,771.3,442.1z"/>
</g>
</svg>
