<?xml version="1.0" encoding="utf-8"?>
<!-- Generator: Adobe Illustrator 26.5.0, SVG Export Plug-In . SVG Version: 6.00 Build 0)  -->
<svg version="1.1" id="图层_1" xmlns="http://www.w3.org/2000/svg" xmlns:xlink="http://www.w3.org/1999/xlink" x="0px" y="0px"
	 viewBox="0 0 600 340" style="enable-background:new 0 0 600 340;" xml:space="preserve">
<style type="text/css">
	.st0{fill:none;}
	.st1{fill:#D3D3D3;}
	.st2{fill:url(#SVGID_1_);}
	.st3{fill:url(#region-1-1_00000106827367386862938690000005852301625877102256_);}
	.st4{fill:url(#region-1-2_00000111185213699573309520000014581043467757109673_);}
	.st5{fill:url(#region-1-3_00000023991838721547779470000007663714088102297780_);}
	.st6{fill:url(#region-1-4_00000129915998646392872980000002911843035419382673_);}
	.st7{fill:url(#region-1-5_00000124120052638080489050000003809884550552466869_);}
	.st8{fill:url(#region-1-6_00000123423796817433699160000005774748922548033213_);}
	.st9{fill:url(#region-1-7_00000017495983295486468310000006091684524621246132_);}
	.st10{fill:url(#region-2-1_00000181782761143186917230000012135568320041577099_);}
	.st11{fill:url(#region-2-2_00000037664340176207498790000001821551839621143205_);}
	.st12{fill:url(#region-2-3_00000116914396867859466970000017122524744222448785_);}
	.st13{fill:url(#region-2-4_00000158027312738993021820000008476386937985783988_);}
	.st14{fill:url(#region-2-5_00000000206823406229667210000008992054853735170446_);}
	.st15{fill:url(#region-2-6_00000104695075993098756960000017024269504589919122_);}
	.st16{fill:url(#region-2-7_00000182512778727175406410000017126085118742854545_);}
	.st17{fill:url(#region-2-8_00000134955848785181871320000010820864225687867011_);}
	.st18{fill:url(#region-2-9_00000165957421828115598800000011699579250966213516_);}
	.st19{fill:url(#region-2-10_00000070826867395549089920000005671372423501425582_);}
	.st20{fill:url(#region-2-11_00000012431167186846379840000008623382536998197682_);}
	.st21{fill:url(#region-2-12_00000011008984138722057110000013896708046067913647_);}
	.st22{fill:url(#region-2-13_00000180368929136639487980000010182180966018704001_);}
	.st23{fill:url(#region-2-14_00000090294650709024928030000001797718026818675637_);}
	.st24{fill:url(#region-2-15_00000130644581131285780900000008095031192890257586_);}
	.st25{fill:url(#region-3-1_00000161622967830080732420000007427723251184102314_);}
	.st26{fill:url(#region-3-2_00000000918063769559187670000007303513340202094741_);}
	.st27{fill:url(#region-3-3_00000004533152172522624170000015552587241004782501_);}
	.st28{fill:url(#region-3-4_00000044176990668020651840000001838668911090503040_);}
	.st29{fill:url(#region-3-5_00000160149088407215161020000010589305705560753540_);}
	.st30{fill:url(#region-3-6_00000072982360954936719850000009665080917890829226_);}
	.st31{fill:url(#region-3-7_00000117650116129476970390000016055472373773242264_);}
	.st32{fill:url(#region-4-1_00000100369730448789088690000016718544217335249071_);}
	.st33{fill:url(#region-4-2_00000045610186017469682080000010977628687397241735_);}
	.st34{fill:url(#region-4-3_00000171695641041964126650000009100888062554981280_);}
	.st35{fill:url(#region-4-4_00000075129763097348551800000004456145671447662476_);}
	.st36{fill:url(#region-4-5_00000124156433881298033370000004742780945353512624_);}
	.st37{fill:url(#region-4-6_00000047751965439032810400000017516226809551499697_);}
	.st38{fill:url(#region-4-7_00000007422430799188610780000008557395235073637309_);}
	.st39{fill:url(#region-4-8_00000095335317624300203660000011340185204876095135_);}
	.st40{fill:url(#region-4-9_00000043437053716803957520000006478120651629109672_);}
	.st41{fill:url(#region-4-10_00000089554010245033328360000013722109199658623415_);}
	.st42{fill:url(#region-4-11_00000164507270400070986940000015037534046719535019_);}
	.st43{fill:url(#region-4-12_00000122000827223689682060000010038037136821947279_);}
	.st44{fill:url(#region-2-12_00000080918736528130598170000014842590274328210867_);}
	.st45{fill:url(#region-2-13_00000119818256033710020290000008605460178003450773_);}
	.st46{fill:url(#region-3-1_00000163033218490773802530000012930993395912179596_);}
	.st47{fill:url(#region-3-2_00000167368582599447672730000013625372792169304225_);}
	.st48{fill:url(#region-3-3_00000157290316595320476840000004677136149537330304_);}
	.st49{fill:url(#region-3-5_00000119834581601368060140000010067875450658482337_);stroke:#000000;stroke-miterlimit:10;}
	.st50{fill:url(#region-3-6_00000016765581234582221860000003457454455582169775_);stroke:#000000;stroke-miterlimit:10;}
	.st51{fill:url(#region-4-1_00000178889015832364278790000003682846720351902127_);}
	.st52{fill:url(#region-4-2_00000021816793093988465570000004983084546702231210_);stroke:#000000;stroke-miterlimit:10;}
	.st53{fill:url(#region-4-3_00000158721498850236080590000000891001738670583701_);stroke:#000000;stroke-miterlimit:10;}
	.st54{fill:none;stroke:#000000;stroke-miterlimit:10;}
</style>
<pattern  y="475.8" width="30" height="30" patternUnits="userSpaceOnUse" id="SVGID_2_" viewBox="0 -30 30 30" style="overflow:visible;">
	<g>
		<rect y="-30" class="st0" width="30" height="30"/>
		<g>
			<polygon class="st0" points="0,-30 30,-30 30,0 0,0 			"/>
			<g>
				<polygon class="st0" points="0,-30 30,-30 30,0 0,0 				"/>
				<polygon class="st0" points="0,-30 30,-30 30,0 0,0 				"/>
				<polygon class="st1" points="0,-30 15,-30 15,-15 0,-15 				"/>
				<polygon class="st1" points="15,-15 30,-15 30,0 15,0 				"/>
			</g>
		</g>
	</g>
</pattern>
<pattern  id="SVGID_1_" xlink:href="#SVGID_2_" patternTransform="matrix(0.75 0 0 0.75 -3946.875 12454.7588)">
</pattern>
<rect class="st2" width="600" height="340"/>
<g id="layer-1">
	
		<linearGradient id="region-1-1_00000083804394172939065960000016898508968319381419_" gradientUnits="userSpaceOnUse" x1="-655.7396" y1="917.79" x2="-655.4902" y2="918.4171" gradientTransform="matrix(497.2252 0 0 379.9166 326271.7188 -348605.3438)">
		<stop  offset="0" style="stop-color:#FA705B;stop-opacity:0.99"/>
		<stop  offset="1" style="stop-color:#F9725E"/>
	</linearGradient>
	<path id="region-1-1" style="fill:url(#region-1-1_00000083804394172939065960000016898508968319381419_);" d="M234.9,93
		c-4.4,1.4-8.6,5.5-11.8,11.7c-4.7,9-12.7,30.3-16.8,44.7c-0.7,2.5-1.7,4.5-3.9,8.1c-5.6,9.2-10.4,18.3-13.5,25.2
		c-0.6,1.3-2.3,4-3.8,5.9c-3.6,4.6-7.6,10.7-8.9,13.5c-1.4,3.1-1.6,6-1.1,18.1c0.8,18.9,2.1,30.1,4.2,36.6c1.6,4.7,2.6,6.6,4.9,8.7
		c3.6,3.4,8.8,5.1,20.5,6.7c22.6,3.2,44.4,5.2,65,6.1c12.4,0.5,56.4-0.1,68.7-1c25.5-1.8,56.6-5.5,62.3-7.4
		c8.4-2.8,11.3-5.7,14-14.2c2.1-6.7,3.5-20.7,3.8-38.6l0.2-12.7l-1-2.2c-1.2-2.7-5.5-9.2-9.2-14c-1.5-1.9-3.2-4.6-3.7-5.8
		c-2.3-5.5-7.4-15-12.9-24.2c-3.1-5.2-3.6-6.2-5.1-11.2c-4.9-16.2-12.1-35.1-16.6-43.4c-3.1-5.6-7.1-9.4-11.4-10.8
		c-2.4-0.7-3.2-0.7-62-0.7C238.7,92.2,237.1,92.3,234.9,93z"/>
	
		<linearGradient id="region-1-2_00000098933193140099383870000006294868989066878632_" gradientUnits="userSpaceOnUse" x1="-642.7916" y1="931.2734" x2="-642.6169" y2="931.9351" gradientTransform="matrix(57.005 0 0 35.2411 36826.1289 -32684.5)">
		<stop  offset="0" style="stop-color:#FF705C;stop-opacity:0.992"/>
		<stop  offset="1" style="stop-color:#FF705C;stop-opacity:0.992"/>
	</linearGradient>
	<path id="region-1-2" style="fill:url(#region-1-2_00000098933193140099383870000006294868989066878632_);" d="M187.5,136.4
		c-5.4,0.6-8.1,2-10.3,5.2c-1.7,2.5-2.8,5.7-2.8,8.3c0,3.6-0.5,3.4,13.4,3.5c8.9,0,12-0.1,12.7-0.4c1.3-0.7,1.9-3.6,1.9-8.7
		c0-5-0.4-7-1.5-7.6C199.8,136.1,191.3,135.9,187.5,136.4z"/>
	
		<linearGradient id="region-1-3_00000024686353664872664320000014801063203820633516_" gradientUnits="userSpaceOnUse" x1="-646.8046" y1="931.442" x2="-646.6495" y2="932.1052" gradientTransform="matrix(57.3726 0 0 34.775 37507.7031 -32254.6836)">
		<stop  offset="0" style="stop-color:#FF715D;stop-opacity:0.995"/>
		<stop  offset="1" style="stop-color:#FF715D;stop-opacity:0.996"/>
	</linearGradient>
	<path id="region-1-3" style="fill:url(#region-1-3_00000024686353664872664320000014801063203820633516_);" d="M392.2,137.7
		c-1.7,0.3-2.1,1.6-2.1,7.5c0,5.5,0.4,8,1.5,8.9c0.5,0.4,3,0.5,12.8,0.5c11.5,0,12.2,0,13-0.7c1-0.9,1-2.9,0.2-5.8
		c-0.8-2.9-1.8-4.6-3.7-6.6c-2-2.2-4.3-3.2-8.2-3.6C402.8,137.4,394,137.4,392.2,137.7z"/>
	
		<linearGradient id="region-1-4_00000060015294552718069630000016876852948844227771_" gradientUnits="userSpaceOnUse" x1="-644.2448" y1="935.5618" x2="-644.1743" y2="936.231" gradientTransform="matrix(63.5302 0 0 26.8782 41119.4609 -25000.4004)">
		<stop  offset="0" style="stop-color:#232F35;stop-opacity:0.992"/>
		<stop  offset="1" style="stop-color:#253137;stop-opacity:0.993"/>
	</linearGradient>
	<path id="region-1-4" style="fill:url(#region-1-4_00000060015294552718069630000016876852948844227771_);" d="M205.5,146.7
		c-1.8,0.4-3,1.8-3.7,4.2c-0.3,0.9-0.8,1.8-1.3,2c-0.6,0.4-3.7,0.5-12.7,0.4c-6.5,0-11.8,0.1-11.8,0.2c0,0.7,1.6,2.7,2.4,2.9
		c0.7,0.3,15.6,1.1,20,1.1c1.2,0,1.6,0.1,1.8,0.6c0.6,2,0.7,2,3-1.8c1.5-2.5,2.6-4.8,3.2-6.9c0.5-1.7,0.8-3.1,0.8-3.1
		C207.1,146.4,206.3,146.5,205.5,146.7z"/>
	
		<linearGradient id="region-1-5_00000109719424001764358240000010324138600811818675_" gradientUnits="userSpaceOnUse" x1="-647.1255" y1="938.7876" x2="-647.1255" y2="939.278" gradientTransform="matrix(60.0001 0 0 22.9753 39229.668 -21420.8691)">
		<stop  offset="0" style="stop-color:#243036;stop-opacity:0.992"/>
		<stop  offset="1" style="stop-color:#243036;stop-opacity:0.993"/>
	</linearGradient>
	<path id="region-1-5" style="fill:url(#region-1-5_00000109719424001764358240000010324138600811818675_);" d="M387.4,148.5
		c0,1.4,1.4,4.5,3.2,7.6c1.6,2.6,2.2,3.3,2.6,3.2c0.3-0.1,4.1-0.4,8.3-0.6c9.1-0.4,12.2-0.6,13.1-1.1c0.5-0.3,2.2-2.5,2.2-3
		c0-0.1-5.5-0.1-12.2-0.1c-13.7,0-13.2,0.1-13.9-2.6C390.1,149.7,387.4,146.9,387.4,148.5z"/>
	
		<linearGradient id="region-1-6_00000140728389675985162090000017170606693225063349_" gradientUnits="userSpaceOnUse" x1="-648.2" y1="919.2603" x2="-647.5163" y2="919.6566" gradientTransform="matrix(88.3228 0 0 151.7783 57417.6055 -139264.375)">
		<stop  offset="0" style="stop-color:#243037;stop-opacity:0.995"/>
		<stop  offset="1" style="stop-color:#253137;stop-opacity:0.999"/>
	</linearGradient>
	<path id="region-1-6" style="fill:url(#region-1-6_00000140728389675985162090000017170606693225063349_);" d="M175.4,241.2
		c-1.7,35.2-1.2,51.2,1.8,61.7c2.1,7.2,4.6,8.1,21.5,8.2c4.3,0,9-0.2,10.4-0.4c4.5-0.7,7.3-2.7,8.3-6.1c0.5-1.4,0.4-13.2-0.3-25.8
		l-0.2-4.9l-1.5-0.2c-20.6-2.8-22.3-3.2-27.4-5.6c-2.4-1.2-5.2-3.6-6.5-5.8c-2.4-4.1-4.4-13-5.2-22.1
		C176.1,235.1,175.7,235.4,175.4,241.2z"/>
	
		<linearGradient id="region-1-7_00000109015935595015771570000010639867051783903671_" gradientUnits="userSpaceOnUse" x1="-650.3142" y1="919.2285" x2="-650.1434" y2="919.7542" gradientTransform="matrix(88.3227 0 0 139.3519 57825.5625 -127855.8203)">
		<stop  offset="0" style="stop-color:#253137;stop-opacity:0.997"/>
		<stop  offset="1" style="stop-color:#253137"/>
	</linearGradient>
	<path id="region-1-7" style="fill:url(#region-1-7_00000109015935595015771570000010639867051783903671_);" d="M416.2,249.8
		c-0.3,1.6-0.9,4.3-1.4,6c-3.5,11.1-7.9,13.9-26.1,16.4c-5,0.7-9.6,1.3-10.1,1.3c-0.7,0-1.2,0.4-2.1,1.8l-1.2,1.7l-0.4,11.4
		c-0.7,20-0.6,21.5,1.5,24c2.8,3.2,5.1,3.6,19.6,3.4c10.7-0.1,11.5-0.2,13.4-1c3-1.2,4.3-2.7,5.4-6c1.9-6.1,2.7-12.5,3-25.4
		c0.2-9-0.5-35-1-35.9C416.7,247.2,416.4,248.3,416.2,249.8z"/>
</g>
<g id="layer-2">
	
		<linearGradient id="region-2-1_00000039135584576777688170000003542116562850396047_" gradientUnits="userSpaceOnUse" x1="-655.0298" y1="921.562" x2="-655.0298" y2="922.0527" gradientTransform="matrix(357.225 0 0 107.1706 234288.1719 -98660.5859)">
		<stop  offset="0" style="stop-color:#00232F;stop-opacity:0.815"/>
		<stop  offset="1" style="stop-color:#00232F;stop-opacity:0.815"/>
	</linearGradient>
	<path id="region-2-1" style="fill:url(#region-2-1_00000039135584576777688170000003542116562850396047_);" d="M231.7,103.9
		c-5.5,0.6-5.1,0.3-7.4,5.1c-9.4,19.9-16.7,39.7-16.7,45.6v1.7l57.7-0.2c31.7-0.1,71.1-0.3,87.5-0.3h29.9l-0.2-3.2
		c-0.2-3.5-0.6-4.7-5.6-18.1c-6.8-18.1-10.9-27.9-12.2-28.6c-1.3-0.7-6.6-1.1-17.4-1.5C334.4,103.9,235.7,103.5,231.7,103.9z"/>
	
		<linearGradient id="region-2-2_00000088112645000145675280000009793992382966528910_" gradientUnits="userSpaceOnUse" x1="-603.3444" y1="924.2727" x2="-602.1359" y2="924.6513" gradientTransform="matrix(14.2517 0 0 64.875 8826.9697 -59794.9531)">
		<stop  offset="0" style="stop-color:#00242F;stop-opacity:0.822"/>
		<stop  offset="1" style="stop-color:#00242F;stop-opacity:0.822"/>
	</linearGradient>
	<path id="region-2-2" style="fill:url(#region-2-2_00000088112645000145675280000009793992382966528910_);" d="M229.1,159.8
		c-0.6,4.3,0.4,13.3,2.2,19.3c1,3.6,4,10.1,4.6,10.1c0.2,0-0.1-1-0.7-2.1c-3.4-6.7-5.3-15.9-5.7-26.7l-0.1-2.9L229.1,159.8z"/>
	
		<linearGradient id="region-2-3_00000108267958809889281550000018200948616356149147_" gradientUnits="userSpaceOnUse" x1="-613.9581" y1="924.2653" x2="-613.1266" y2="924.7255" gradientTransform="matrix(14.7213 0 0 64.2846 9392.3047 -59252.0977)">
		<stop  offset="0" style="stop-color:#00242F;stop-opacity:0.822"/>
		<stop  offset="1" style="stop-color:#00242F;stop-opacity:0.822"/>
	</linearGradient>
	<path id="region-2-3" style="fill:url(#region-2-3_00000108267958809889281550000018200948616356149147_);" d="M361.2,164.2
		c-0.3,8.8-2.1,16.7-5.3,23.1c-0.7,1.4-1.2,2.6-1.1,2.6c0.3,0.3,0.9-0.7,2.2-3.3c3.1-6.1,4.6-13.3,4.9-22.2c0.1-3.9,0.1-6-0.1-6
		C361.5,158.4,361.3,160.7,361.2,164.2z"/>
	
		<linearGradient id="region-2-4_00000072245607340965643810000005795835708900036994_" gradientUnits="userSpaceOnUse" x1="-641.1029" y1="927.0966" x2="-640.7875" y2="927.6744" gradientTransform="matrix(48.761 0 0 46.3361 31466.0625 -42795.1172)">
		<stop  offset="0" style="stop-color:#FFA89B;stop-opacity:0.795"/>
		<stop  offset="1" style="stop-color:#FFA79B;stop-opacity:0.8"/>
	</linearGradient>
	<path id="region-2-4" style="fill:url(#region-2-4_00000072245607340965643810000005795835708900036994_);" d="M212.4,166
		c-1.1,3.1-3.4,7.8-4.7,9.5c-0.6,0.7-1.6,1.7-2.3,2l-1.3,0.7l0.9,0.4c0.5,0.2,3.8,1.5,7.4,2.8s7.7,3,9.3,3.7
		c2.4,1.1,3.1,1.3,4.5,1.1c0.9-0.1,1.8-0.4,1.9-0.6c0.1-0.2-2.7-5.2-6.3-11.2c-5.8-9.6-6.7-10.8-7.5-10.8S213.2,163.8,212.4,166z"/>
	
		<linearGradient id="region-2-5_00000071552818619649517290000002975692104849726126_" gradientUnits="userSpaceOnUse" x1="-644.6768" y1="927.0086" x2="-644.181" y2="927.4938" gradientTransform="matrix(49.239 0 0 46.8436 32103.3066 -43257.1602)">
		<stop  offset="0" style="stop-color:#FFA89C;stop-opacity:0.784"/>
		<stop  offset="1" style="stop-color:#FFA79B;stop-opacity:0.806"/>
	</linearGradient>
	<path id="region-2-5" style="fill:url(#region-2-5_00000071552818619649517290000002975692104849726126_);" d="M375.5,165.6
		c-0.7,0.7-13.3,21.5-13.1,21.7c0.1,0,1,0.3,2.1,0.5c1.8,0.4,2,0.3,3.5-0.5c1.7-0.9,8.3-3.6,14.6-5.9c3.8-1.4,4.9-2,3.4-2
		c-1.9,0-5.3-5.2-7.6-11.5C377.2,164.9,376.6,164.4,375.5,165.6z"/>
	
		<linearGradient id="region-2-6_00000152948168620165991950000005627505244099562152_" gradientUnits="userSpaceOnUse" x1="-652.4827" y1="932.6318" x2="-652.4827" y2="933.1219" gradientTransform="matrix(160.3351 0 0 30.2272 104891.1406 -28020.6152)">
		<stop  offset="0" style="stop-color:#FFA79B;stop-opacity:0.791"/>
		<stop  offset="1" style="stop-color:#FFA89B;stop-opacity:0.801"/>
	</linearGradient>
	<path id="region-2-6" style="fill:url(#region-2-6_00000152948168620165991950000005627505244099562152_);" d="M238.1,170.9
		c0,0.4-0.5,1.1-1.1,1.6c-1.3,1.1-1.3,1.4-0.2,7.8l0.8,4.8l1.3,0c0.7,0,5.9-0.3,11.6-0.5c5.7-0.2,22.4-0.4,37.2-0.4
		c14.8,0,26.9-0.1,26.9-0.3c0-0.1-1.1-1.7-2.4-3.4l-2.4-3.2L307,177c-6.6-0.5-32-1.7-43.2-2.1c-12.3-0.3-14.4-0.6-19.5-2.2
		c-1.3-0.4-3.2-1.2-4.2-1.7C237.9,170,238.1,170,238.1,170.9z"/>
	
		<linearGradient id="region-2-7_00000131331180529426780770000007189890366363562884_" gradientUnits="userSpaceOnUse" x1="-654.2195" y1="922.96" x2="-654.2195" y2="923.4495" gradientTransform="matrix(252.7411 0 0 71.1254 165644.1875 -65455.8789)">
		<stop  offset="0" style="stop-color:#002430;stop-opacity:0.805"/>
		<stop  offset="1" style="stop-color:#002430;stop-opacity:0.807"/>
	</linearGradient>
	<path id="region-2-7" style="fill:url(#region-2-7_00000131331180529426780770000007189890366363562884_);" d="M237.1,190.6
		c-2,1-2.8,2.8-3,6.6c-0.2,4,0.4,10.8,1.2,13.9c1.4,5.3,4.2,9.3,7.8,11.1c2.8,1.4,7.4,1.9,21.8,2.4c15.6,0.6,81.8,0.2,84.4-0.4
		c3.2-0.8,6.2-4.4,7.1-8.6c0.3-1,0.7-5.8,1-10.6l0.6-8.8l-0.8-1.7c-1.6-3.2-1.3-3.1-14.5-3.4c-16.5-0.4-73-1.1-90-1.1
		C240.2,190,238.1,190.1,237.1,190.6z"/>
	
		<linearGradient id="region-2-8_00000059305891425689633330000007202184318558491551_" gradientUnits="userSpaceOnUse" x1="-649.3754" y1="919.9691" x2="-648.8589" y2="920.4472" gradientTransform="matrix(99.8495 0 0 140.717 65021.6641 -129290.125)">
		<stop  offset="0" style="stop-color:#622A22;stop-opacity:0.475"/>
		<stop  offset="1" style="stop-color:#853B31;stop-opacity:0.612"/>
	</linearGradient>
	<path id="region-2-8" style="fill:url(#region-2-8_00000059305891425689633330000007202184318558491551_);" d="M205.1,159.6
		c-4.5,6.2-12.2,19.7-13.8,24.4c-0.7,2-1.2,4.5-1.4,6.8c-0.2,2.1-1,7.4-1.8,11.8c-1.7,9.3-1.7,9.5,1.1,12c3.1,2.8,7.6,4.5,18.1,6.7
		c10,2.1,26.4,5,28.4,5c0.7,0,0.1-0.7-3-3.9c-2.1-2.1-4-3.9-4.3-3.9c-0.3,0-0.6-0.4-0.6-0.8c-0.1-0.4-0.7-3.4-1.3-6.5
		c-1.4-6.8-2.6-11.9-3.9-16.3c-1.2-3.8-2.8-5.9-6.7-8.5c-4.2-2.8-17.6-9-19.3-9c-0.3,0-0.6-0.1-0.7-0.3c-0.2-0.4,5.1-9.6,8.9-15.4
		C207.6,157.2,207.9,155.8,205.1,159.6z"/>
	
		<linearGradient id="region-2-9_00000046304254160276974630000001918630273653207736_" gradientUnits="userSpaceOnUse" x1="-651.0191" y1="919.7271" x2="-650.8055" y2="920.2603" gradientTransform="matrix(100.1618 0 0 147.4421 65569.3672 -135454.2656)">
		<stop  offset="0" style="stop-color:#6F3229;stop-opacity:0.517"/>
		<stop  offset="1" style="stop-color:#8A3D32;stop-opacity:0.644"/>
	</linearGradient>
	<path id="region-2-9" style="fill:url(#region-2-9_00000046304254160276974630000001918630273653207736_);" d="M382.6,156.7
		c0,0.1,0.9,1.6,2,3.3c2,3.1,6.5,10.8,9.4,16.2c1.4,2.6,1.5,2.9,0.8,2.9c-2,0-14.8,5.9-19.4,8.9c-3.9,2.6-5.7,4.5-6.7,7.4
		c-1.1,3.3-3.1,11.3-4.5,18.7c-0.7,3.4-1.4,6.2-1.6,6.2c-0.3,0-1.5,1.2-6.6,6.9c-0.8,0.8-1.4,1.7-1.3,1.7c0.5,0.5,31.1-5.2,37.2-7
		c6.2-1.8,11.2-5,11.8-7.7c0.2-0.7-0.3-4-1.3-9.6c-0.8-4.7-1.6-9.8-1.7-11.4c-0.1-1.6-0.4-4.1-0.8-5.5c-1-3.9-8.3-17.9-13.8-26.5
		C384.3,158.1,382.6,156,382.6,156.7z"/>
	
		<linearGradient id="region-2-10_00000064335930985772147030000005952175457783852206_" gradientUnits="userSpaceOnUse" x1="-655.566" y1="931.4254" x2="-655.5658" y2="931.9507" gradientTransform="matrix(489.7704 0 0 29.3933 321373.1875 -27160.1992)">
		<stop  offset="0" style="stop-color:#001A28;stop-opacity:0.805"/>
		<stop  offset="1" style="stop-color:#0C1E22;stop-opacity:0.78"/>
	</linearGradient>
	<path id="region-2-10" style="fill:url(#region-2-10_00000064335930985772147030000005952175457783852206_);" d="M413.7,219.2
		c-4.7,3.7-12,6.7-19.5,8.2c-13.3,2.7-38.9,3.5-96.7,3.2c-55.2-0.3-68-0.8-83.8-3c-7.7-1.1-18.7-3.1-23.7-4.4
		c-2.9-0.7-11.5-3.4-13.1-4.1c-0.3-0.1-0.5-0.1-0.5,0.1c0,0.3,6.8,2.8,11.6,4.1c10.3,3,24.9,5.3,39.9,6.4
		c31.9,2.4,97.4,2.6,144.1,0.6c17.2-0.8,26.9-2.5,35-6.4c4.3-2,10-6,9.4-6.6C416.3,217.4,415.1,218.2,413.7,219.2z"/>
	
		<linearGradient id="region-2-11_00000099639411660747516710000004034756148353935749_" gradientUnits="userSpaceOnUse" x1="-654.8233" y1="931.8999" x2="-654.724" y2="934.2426" gradientTransform="matrix(334.1717 0 0 28.0705 219091.5469 -25935.5449)">
		<stop  offset="0" style="stop-color:#77342B;stop-opacity:0.548"/>
		<stop  offset="1" style="stop-color:#914034;stop-opacity:0.677"/>
	</linearGradient>
	<path id="region-2-11" style="fill:url(#region-2-11_00000099639411660747516710000004034756148353935749_);" d="M189,224.3
		c4.2,3.4,14,7.6,22.7,9.8c11.9,3,20.5,3.6,40.8,3.1c23.8-0.7,78.6-3.9,97.6-5.6c3.2-0.3,2.9-0.3-2.6-0.1
		c-18.6,0.5-56.8,0.6-74.8,0.2c-37.4-0.8-52.7-1.8-68.2-4.5c-4.2-0.7-14.2-2.9-15.8-3.5C188.1,223.5,188.2,223.7,189,224.3z"/>
	
		<linearGradient id="region-2-12_00000042007263819496846260000016583591373269427358_" gradientUnits="userSpaceOnUse" x1="-649.2367" y1="927.4017" x2="-649.1344" y2="928.0889" gradientTransform="matrix(77.9354 0 0 38.1782 50982.3984 -35171.3203)">
		<stop  offset="0" style="stop-color:#883D31;stop-opacity:0.634"/>
		<stop  offset="1" style="stop-color:#904134;stop-opacity:0.68"/>
	</linearGradient>
	<path id="region-2-12" style="fill:url(#region-2-12_00000042007263819496846260000016583591373269427358_);" d="M386.2,238.5
		l-18.3,2v7.3c0,6.7,0,7.3,0.7,7.3c0.9,0,17.1-2.1,21.6-2.8c2-0.3,5.1-0.9,6.9-1.3c2.8-0.7,3.3-0.9,4.5-2.2c1.5-1.7,2.5-3.6,3.7-8
		c1.1-3.9,1.1-4.4,0.1-4.4C404.8,236.4,396.2,237.3,386.2,238.5z"/>
	
		<linearGradient id="region-2-13_00000164481396145118826990000017325237016434455197_" gradientUnits="userSpaceOnUse" x1="-646.9185" y1="927.2668" x2="-646.6226" y2="928.0216" gradientTransform="matrix(78.2818 0 0 38.325 50842.3438 -35301.4219)">
		<stop  offset="0" style="stop-color:#763A2C;stop-opacity:0.548"/>
		<stop  offset="1" style="stop-color:#863930;stop-opacity:0.624"/>
	</linearGradient>
	<path id="region-2-13" style="fill:url(#region-2-13_00000164481396145118826990000017325237016434455197_);" d="M187.9,240.8
		c1.8,7.6,3.7,10.8,7.3,11.9c2.5,0.7,11.1,2.1,20.3,3.3c4,0.5,8.1,1,8.9,1.1l1.5,0.2V250c0-4.1-0.1-7.4-0.2-7.4
		c-0.1,0-8.4-0.9-18.5-2c-10-1.1-18.6-2-19.1-2C187.4,238.6,187.4,238.6,187.9,240.8z"/>
	
		<linearGradient id="region-2-14_00000050645080301159373230000000505609450695784345_" gradientUnits="userSpaceOnUse" x1="-653.8228" y1="924.8522" x2="-653.7973" y2="925.6064" gradientTransform="matrix(220.8844 0 0 48.975 144714.4375 -45052.8867)">
		<stop  offset="0" style="stop-color:#00232F;stop-opacity:0.817"/>
		<stop  offset="1" style="stop-color:#00232F;stop-opacity:0.818"/>
	</linearGradient>
	<path id="region-2-14" style="fill:url(#region-2-14_00000050645080301159373230000000505609450695784345_);" d="M243.2,242.9
		c-0.6,0.4-1.1,1.2-1.2,1.7c-0.1,0.5,0,3.2,0.3,6.1c0.8,7.9,1.9,11.7,3.5,12.5c2.8,1.5,31.5,2.9,59.2,2.9c17.6,0,27.8-0.4,34.2-1.3
		c4.6-0.7,5.7-1.1,7.2-2.8c2-2.3,3.8-9.3,3.8-15c0-2.9-0.7-3.7-3.5-4.1c-1.2-0.1-24.8-0.4-52.4-0.6l-50.3-0.3L243.2,242.9z"/>
	
		<linearGradient id="region-2-15_00000126289620425436091190000015216524489306284957_" gradientUnits="userSpaceOnUse" x1="-655.5144" y1="929.2977" x2="-655.5132" y2="929.949" gradientTransform="matrix(472.855 0 0 31.309 310259.5312 -28841.7031)">
		<stop  offset="0" style="stop-color:#00232F;stop-opacity:0.819"/>
		<stop  offset="1" style="stop-color:#00242F;stop-opacity:0.823"/>
	</linearGradient>
	<path id="region-2-15" style="fill:url(#region-2-15_00000126289620425436091190000015216524489306284957_);" d="M405,255.1
		c-37,9.2-77.3,13.7-118,13.1c-34.2-0.5-65.5-4.1-99.2-11.3c-6.7-1.4-7.8-1.6-7.4-1.3c0.3,0.3,14.1,3.3,22.4,4.9
		c28.5,5.4,54.6,8,84.2,8.4c41.5,0.6,79.6-3.7,117.7-13.1c3.3-0.8,6.4-1.7,6.8-1.8l0.7-0.3l-0.7,0
		C411.1,253.7,408.1,254.4,405,255.1z"/>
</g>
<g id="layer-3">
	
		<linearGradient id="region-3-1_00000178903374918998335140000015304702624597822081_" gradientUnits="userSpaceOnUse" x1="-654.9352" y1="922.0215" x2="-654.9326" y2="922.5377" gradientTransform="matrix(340.5 0 0 98.1227 223299.75 -90365.5547)">
		<stop  offset="0" style="stop-color:#628997;stop-opacity:0.459"/>
		<stop  offset="1" style="stop-color:#648C9B;stop-opacity:0.441"/>
	</linearGradient>
	<path id="region-3-1" style="fill:url(#region-3-1_00000178903374918998335140000015304702624597822081_);" d="M239,106.2
		c-5,0.3-7.9,0.8-9.8,1.5c-1.1,0.5-1.6,1.3-5.1,8.2c-7.1,14-12.4,26.9-12.4,30.1c0,2.1,1,4.2,2.8,5.7c2.9,2.4-3.4,2.2,84.4,2.2h79.7
		v-2c0-2.8-0.8-5.4-4.2-14c-6.7-16.8-11.7-27.7-13.2-28.6c-4.1-2.5-28.3-3.6-83.9-3.5C258.6,105.9,241.4,106,239,106.2z"/>
	
		<linearGradient id="region-3-2_00000046309980275760697520000007706248033968091539_" gradientUnits="userSpaceOnUse" x1="-649.3779" y1="920.4002" x2="-648.6279" y2="920.6732" gradientTransform="matrix(77.3311 0 0 129.7427 50575.2695 -119236.0547)">
		<stop  offset="0" style="stop-color:#01313E;stop-opacity:0.77"/>
		<stop  offset="1" style="stop-color:#002029;stop-opacity:0.808"/>
	</linearGradient>
	<path id="region-3-2" style="fill:url(#region-3-2_00000046309980275760697520000007706248033968091539_);" d="M382.6,156.7
		c0,0.1,0.9,1.6,2,3.3c2,3.1,6.5,10.8,9.4,16.2c1.4,2.6,1.5,2.9,0.8,2.9c-2,0-14.8,5.9-19.4,8.9c-4.2,2.8-5.8,4.5-6.9,7.9
		c-1.5,4.6-5.4,21.7-5.4,23.7c0,0.8,2,0.9,7.9,0.1c7.5-1,29.2-5.2,29.8-5.8c0.1-0.1,0.2-5,0.2-10.8c0-14.5-0.2-15.5-5.6-25.8
		c-3.5-6.8-6.3-11.6-9.2-16.1C384.3,158.1,382.6,156,382.6,156.7z"/>
	
		<linearGradient id="region-3-3_00000176764465384034220830000008211829015264498857_" gradientUnits="userSpaceOnUse" x1="-646.8256" y1="920.361" x2="-646.8256" y2="920.8512" gradientTransform="matrix(78 0 0 125.192 50661.0625 -115064.4062)">
		<stop  offset="0" style="stop-color:#022F3C;stop-opacity:0.781"/>
		<stop  offset="1" style="stop-color:#001D25;stop-opacity:0.81"/>
	</linearGradient>
	<path id="region-3-3" style="fill:url(#region-3-3_00000176764465384034220830000008211829015264498857_);" d="M205.1,159.6
		c-4.4,6.1-12.2,19.7-13.8,24.3c-1.5,4.4-1.8,7-1.8,18.3v10.1l1,0.2c16.9,3.6,27.6,5.5,34,6l3.2,0.3l-0.2-1.3
		c-1.4-7.6-3.6-17.4-5.2-22.5c-1.2-3.8-2.8-5.9-6.7-8.5c-4.2-2.8-17.6-9-19.3-9c-0.3,0-0.6-0.1-0.7-0.3c-0.2-0.4,5.1-9.6,8.9-15.4
		C207.6,157.2,207.9,155.8,205.1,159.6z"/>
	
		<linearGradient id="region-3-4_00000090274769534288867300000005953927314780210338_" gradientUnits="userSpaceOnUse" x1="-654.2025" y1="923.1385" x2="-654.0911" y2="924.101" gradientTransform="matrix(249.2066 0 0 68.95 163321.6875 -63461.8477)">
		<stop  offset="0" style="stop-color:#FFFFFF;stop-opacity:0.806"/>
		<stop  offset="1" style="stop-color:#FFFFFF;stop-opacity:0.816"/>
	</linearGradient>
	<path id="region-3-4" style="fill:url(#region-3-4_00000090274769534288867300000005953927314780210338_);" d="M237.4,191.1
		c-2.3,1.4-2.6,2.5-2.6,8.3c0,15.4,4.3,22.5,14.5,23.7c8.8,1,48.1,1.4,85.5,0.8l14.2-0.2l1.8-1c4.1-2.4,5.1-5.5,5.9-17.5
		c0.6-9.6,0.5-10.7-1.7-12.2c-1.1-0.7-1.7-0.8-12.8-1.1c-11.7-0.3-89.9-1.4-98.8-1.4C239.3,190.4,238.5,190.5,237.4,191.1z"/>
	
		<linearGradient id="region-3-5_00000181073003114897876880000008638127055855485830_" gradientUnits="userSpaceOnUse" x1="-639.927" y1="931.3336" x2="-639.5449" y2="931.9107" gradientTransform="matrix(34.725 0 0 28.1383 22610.2871 -25970.0605)">
		<stop  offset="0" style="stop-color:#EFFFFF;stop-opacity:0.841"/>
		<stop  offset="1" style="stop-color:#F4FFFF;stop-opacity:0.831"/>
	</linearGradient>
	<path id="region-3-5" style="fill:url(#region-3-5_00000181073003114897876880000008638127055855485830_);" d="M394.5,237.9
		l-6.7,0.7l-0.2,1.7c-0.1,0.9-0.3,3.7-0.4,6.1l-0.3,4.4l3.6-0.5c6.5-0.9,9.4-2.1,10.7-4.6c0.6-1.1,2.7-7.8,2.7-8.5
		C403.9,237,402.3,237,394.5,237.9z"/>
	
		<linearGradient id="region-3-6_00000173140656283689197520000017669119156091831995_" gradientUnits="userSpaceOnUse" x1="-634.0372" y1="931.2473" x2="-634.0372" y2="931.7377" gradientTransform="matrix(35.0368 0 0 28.2412 22412.7715 -26060.5723)">
		<stop  offset="0" style="stop-color:#F0FFFF;stop-opacity:0.838"/>
		<stop  offset="1" style="stop-color:#F2FFFF;stop-opacity:0.834"/>
	</linearGradient>
	<path id="region-3-6" style="fill:url(#region-3-6_00000173140656283689197520000017669119156091831995_);" d="M189.5,239.1
		c0,0.1,0.6,2,1.3,4.3c1.5,4.9,2.5,6.4,5.1,7.5c1.8,0.8,10.3,2.3,10.7,1.9c0.1-0.1,0-2.9-0.3-6.1c-0.3-4.3-0.6-5.9-0.9-5.9
		c-0.5,0-12.5-1.4-14.6-1.7C190.2,239,189.5,239,189.5,239.1z"/>
	
		<linearGradient id="region-3-7_00000151504680267627143860000017214374875383580313_" gradientUnits="userSpaceOnUse" x1="-653.7527" y1="925.628" x2="-653.7527" y2="926.1191" gradientTransform="matrix(216.5381 0 0 44.8803 141858.0312 -41299.8594)">
		<stop  offset="0" style="stop-color:#597885;stop-opacity:0.566"/>
		<stop  offset="1" style="stop-color:#597885;stop-opacity:0.568"/>
	</linearGradient>
	<path id="region-3-7" style="fill:url(#region-3-7_00000151504680267627143860000017214374875383580313_);" d="M243.6,243.7
		c-1.1,1-1.1,1.2-0.9,3.2c1,8.8,2.2,13.8,3.5,15c1.7,1.5,18.5,2.4,49.1,2.7c29,0.3,43.8-0.4,48.1-2.2c2.8-1.1,4.7-6.1,5.3-13.5
		c0.2-2.6,0.1-3.2-0.3-3.7c-0.8-0.8-5.3-1-31-1.2c-27.2-0.3-64.5-0.8-69.1-1.1l-3.6-0.2L243.6,243.7z"/>
</g>
<g id="layer-4">
	
		<linearGradient id="region-4-1_00000005263737720915124830000016213247160642560939_" gradientUnits="userSpaceOnUse" x1="-651.3439" y1="922.5557" x2="-650.907" y2="923.117" gradientTransform="matrix(128.0475 0 0 88.8827 83625.2188 -81892.7344)">
		<stop  offset="0" style="stop-color:#9DA9AE;stop-opacity:0.632"/>
		<stop  offset="1" style="stop-color:#A2ADB2;stop-opacity:0.599"/>
	</linearGradient>
	<path id="region-4-1" style="fill:url(#region-4-1_00000005263737720915124830000016213247160642560939_);" d="M256.6,109
		c-9.7,0.3-18.1,1.4-21,2.7c-1.9,0.8-2.6,2-5.4,8.3c-3.7,8.3-12.6,31.6-12.2,32c0.1,0.1,5.9,0.3,12.8,0.4
		c13.1,0.3,22.9-0.1,26.1-1.1l1.6-0.5l3.7-7.1c2.1-3.9,7.1-13.3,11.1-20.8l7.4-13.6L279,109C277.3,108.8,262.9,108.8,256.6,109z"/>
	
		<linearGradient id="region-4-2_00000085962009479769828300000004879520016105362340_" gradientUnits="userSpaceOnUse" x1="-646.3886" y1="922.2565" x2="-646.3244" y2="922.7827" gradientTransform="matrix(74.4 0 0 81.3392 48295.4648 -74839.4531)">
		<stop  offset="0" style="stop-color:#FFFFFF;stop-opacity:0.899"/>
		<stop  offset="1" style="stop-color:#FFFFFF;stop-opacity:0.893"/>
	</linearGradient>
	<path id="region-4-2" style="fill:url(#region-4-2_00000085962009479769828300000004879520016105362340_);" d="M194,179.6
		c-0.6,1-1.7,3.4-2.3,5.3l-1.2,3.5l-0.1,11.7l-0.1,11.6l2.7,0.6c9.7,2.2,24.9,4.9,31.3,5.5c1.9,0.2,2.5,0.1,2.5-0.3
		c0-0.7-2.4-12-3.3-15.7c-1.6-6.5-2.7-9.5-4-11c-2.6-3-9.2-6.9-17.9-10.7C195.3,177.4,195.4,177.4,194,179.6z"/>
	
		<linearGradient id="region-4-3_00000158710881931711339750000010338750035751260602_" gradientUnits="userSpaceOnUse" x1="-649.0652" y1="922.334" x2="-648.4537" y2="922.6674" gradientTransform="matrix(74.4514 0 0 81.7194 48683.75 -75184.9922)">
		<stop  offset="0" style="stop-color:#FFFFFF;stop-opacity:0.895"/>
		<stop  offset="1" style="stop-color:#FFFFFF;stop-opacity:0.894"/>
	</linearGradient>
	<path id="region-4-3" style="fill:url(#region-4-3_00000158710881931711339750000010338750035751260602_);" d="M391.8,180.5
		c-4.2,1.7-13.5,6.3-16.1,8.1c-4,2.6-5.5,4.4-6.5,7.8c-1.6,5-5.5,22.6-5.1,23c0.6,0.6,16.8-2,28.6-4.5l7.4-1.6l0.3-4.4
		c0.4-6.8,0-17.2-0.8-20.6c-0.8-3-3-8.2-3.8-8.7C395.1,179.2,394.8,179.3,391.8,180.5z"/>
	
		<linearGradient id="region-4-4_00000027582067837325354710000004335715884601468326_" gradientUnits="userSpaceOnUse" x1="-618.2276" y1="925.9246" x2="-617.5006" y2="926.3567" gradientTransform="matrix(19.4078 0 0 48.9223 12236.4707 -45102.3945)">
		<stop  offset="0" style="stop-color:#000A11;stop-opacity:0.807"/>
		<stop  offset="1" style="stop-color:#000B12;stop-opacity:0.812"/>
	</linearGradient>
	<path id="region-4-4" style="fill:url(#region-4-4_00000027582067837325354710000004335715884601468326_);" d="M241.5,194.5
		c-0.6,0.2-1.6,0.8-2.1,1.5c-0.9,1-1,1.4-1,4.9c0,4.9,0.5,8,1.8,10.8c1.5,3.2,4.1,5.5,7.2,6.5c0.7,0.2,0.7,0-0.8-11.8l-1.5-12.1
		l-1.3-0.1C243.3,194.1,242.2,194.3,241.5,194.5z"/>
	
		<linearGradient id="region-4-5_00000106105935868119125380000006254718157048298395_" gradientUnits="userSpaceOnUse" x1="-623.6326" y1="925.4506" x2="-622.9496" y2="925.892" gradientTransform="matrix(22.125 0 0 51.525 14047.7812 -47487.2148)">
		<stop  offset="0" style="stop-color:#000A11;stop-opacity:0.808"/>
		<stop  offset="1" style="stop-color:#000A12;stop-opacity:0.81"/>
	</linearGradient>
	<path id="region-4-5" style="fill:url(#region-4-5_00000106105935868119125380000006254718157048298395_);" d="M250.8,195.4
		c0.1,0.6,0.7,6.1,1.3,12.3c0.6,6.2,1.1,11.2,1.2,11.2c0,0,1.9,0.1,4.1,0.3l4,0.3l-0.7-12.4c-0.4-6.8-0.7-12.5-0.8-12.5
		c0,0-2.1-0.1-4.7-0.2l-4.7-0.1L250.8,195.4z"/>
	
		<linearGradient id="region-4-6_00000016756550884362607320000016371881382303626153_" gradientUnits="userSpaceOnUse" x1="-616.3813" y1="925.3851" x2="-615.6237" y2="925.8264" gradientTransform="matrix(17.85 0 0 51.975 11267.1162 -47899.1133)">
		<stop  offset="0" style="stop-color:#000A11;stop-opacity:0.808"/>
		<stop  offset="1" style="stop-color:#000A12;stop-opacity:0.811"/>
	</linearGradient>
	<path id="region-4-6" style="fill:url(#region-4-6_00000016756550884362607320000016371881382303626153_);" d="M265.5,197.8
		c0.1,1.9,0.3,7.4,0.5,12.4c0.2,4.9,0.4,9,0.4,9c0.1,0.1,1.8,0.3,3.9,0.4l3.8,0.3v-3.6c0-2-0.1-7.7-0.3-12.8l-0.2-9.1h-4.2h-4.1
		L265.5,197.8z"/>
	
		<linearGradient id="region-4-7_00000148622921683706772500000009514203785927890877_" gradientUnits="userSpaceOnUse" x1="-629.4615" y1="925.3859" x2="-628.9224" y2="925.8646" gradientTransform="matrix(25.65 0 0 51.975 16423.0703 -47899.332)">
		<stop  offset="0" style="stop-color:#000A11;stop-opacity:0.808"/>
		<stop  offset="1" style="stop-color:#000A12;stop-opacity:0.811"/>
	</linearGradient>
	<path id="region-4-7" style="fill:url(#region-4-7_00000148622921683706772500000009514203785927890877_);" d="M279,196.5
		c0.1,1.2,0.3,5.9,0.4,10.4c0.1,4.6,0.3,9.3,0.4,10.6l0.2,2.3h5.7h5.7l-0.2-1c-0.1-0.6-0.5-4.3-0.9-8.3c-1.1-10.5-0.7-9.4-4-11.7
		c-1.5-1.1-3.4-2.4-4.1-2.9c-0.7-0.5-1.8-1-2.4-1.2l-1-0.3L279,196.5z"/>
	
		<linearGradient id="region-4-8_00000083767769088099477930000007695550284712699806_" gradientUnits="userSpaceOnUse" x1="-641.1094" y1="957.8875" x2="-641.1094" y2="958.3776" gradientTransform="matrix(44.25 0 0 11.25 28664.7188 -10581.4375)">
		<stop  offset="0" style="stop-color:#FDFCFC;stop-opacity:0.755"/>
		<stop  offset="1" style="stop-color:#FFFFFE;stop-opacity:0.765"/>
	</linearGradient>
	<path id="region-4-8" style="fill:url(#region-4-8_00000083767769088099477930000007695550284712699806_);" d="M284.8,195.1
		c0,0.2,1.7,1.4,3.8,2.8l3.8,2.5h3.4h3.4l3.7-2.5c2-1.3,3.7-2.6,3.7-2.8c0-0.1-4.9-0.3-10.8-0.3
		C289.7,194.8,284.8,194.9,284.8,195.1z"/>
	
		<linearGradient id="region-4-9_00000142158182729983725990000009282606797485158288_" gradientUnits="userSpaceOnUse" x1="-628.7014" y1="925.6319" x2="-628.1559" y2="926.1098" gradientTransform="matrix(24.225 0 0 50.25 15530.5225 -46316.9727)">
		<stop  offset="0" style="stop-color:#000911;stop-opacity:0.807"/>
		<stop  offset="1" style="stop-color:#000B12;stop-opacity:0.811"/>
	</linearGradient>
	<path id="region-4-9" style="fill:url(#region-4-9_00000142158182729983725990000009282606797485158288_);" d="M306.4,198
		c-1.9,1.5-3.6,2.9-3.7,3.1c-0.3,0.3-2.1,15.6-2.1,17.8v1h5.5h5.4l0.3-4c0.1-2.2,0.3-7.7,0.4-12.3l0.3-8.3h-1.3
		C310.1,195.2,309.3,195.6,306.4,198z"/>
	
		<linearGradient id="region-4-10_00000181072905877562088410000005603244450152719506_" gradientUnits="userSpaceOnUse" x1="-620.1683" y1="925.6436" x2="-619.5766" y2="926.1196" gradientTransform="matrix(18.225 0 0 50.25 11619.2725 -46316.9727)">
		<stop  offset="0" style="stop-color:#000A11;stop-opacity:0.808"/>
		<stop  offset="1" style="stop-color:#000A12;stop-opacity:0.811"/>
	</linearGradient>
	<path id="region-4-10" style="fill:url(#region-4-10_00000181072905877562088410000005603244450152719506_);" d="M317.7,203.9
		c-0.1,4.8-0.3,10.4-0.4,12.3l-0.2,3.6h4h4l0.3-4.3c0.1-2.4,0.3-7.9,0.4-12.3l0.3-8h-4h-4.1L317.7,203.9z"/>
	
		<linearGradient id="region-4-11_00000116951606838709619730000007993684704226636421_" gradientUnits="userSpaceOnUse" x1="-626.9165" y1="925.7422" x2="-626.4529" y2="926.2367" gradientTransform="matrix(21.8285 0 0 49.5 14014.7598 -45628.9883)">
		<stop  offset="0" style="stop-color:#000A11;stop-opacity:0.809"/>
		<stop  offset="1" style="stop-color:#000A12;stop-opacity:0.811"/>
	</linearGradient>
	<path id="region-4-11" style="fill:url(#region-4-11_00000116951606838709619730000007993684704226636421_);" d="M331.3,198.4
		c-0.1,1.6-0.4,6.1-0.6,10c-0.2,3.9-0.4,8.1-0.6,9.3l-0.2,2.1h4.2h4.2l1.2-11.7c0.7-6.4,1.2-11.9,1.2-12.1c0-0.3-1.2-0.4-4.6-0.4
		h-4.6L331.3,198.4z"/>
	
		<linearGradient id="region-4-12_00000020367109824448905280000006740245666475131573_" gradientUnits="userSpaceOnUse" x1="-621.608" y1="926.1509" x2="-621.0726" y2="926.6344" gradientTransform="matrix(18.1946 0 0 47.5756 11652.9121 -43865.2109)">
		<stop  offset="0" style="stop-color:#000910;stop-opacity:0.807"/>
		<stop  offset="1" style="stop-color:#000B12;stop-opacity:0.813"/>
	</linearGradient>
	<path id="region-4-12" style="fill:url(#region-4-12_00000020367109824448905280000006740245666475131573_);" d="M346.2,195.9
		c0,0.1-0.7,5.3-1.4,11.6c-0.8,6.2-1.4,11.5-1.3,11.5c0.3,0.3,2.7-0.7,4.3-1.8c3.2-2,3.5-3,4.2-11.1c0.3-3.9,0.5-7.6,0.3-8.1
		c-0.1-0.6-0.6-1.2-1.1-1.5C350.4,196,346.2,195.5,346.2,195.9z"/>
</g>
<linearGradient id="region-2-12_00000176041901064999804020000009183746393686481043_" gradientUnits="userSpaceOnUse" x1="-647.7074" y1="928.1364" x2="-647.6051" y2="928.8237" gradientTransform="matrix(77.9354 0 0 38.1782 50982.3984 -35171.3203)">
	<stop  offset="0" style="stop-color:#883D31;stop-opacity:0.634"/>
	<stop  offset="1" style="stop-color:#904134;stop-opacity:0.68"/>
</linearGradient>
<path id="region-2-12_00000163774457713219218360000008427904423051537820_" style="fill:url(#region-2-12_00000176041901064999804020000009183746393686481043_);" d="
	M505.4,266.5l-18.3,2v7.3c0,6.7,0,7.3,0.7,7.3c0.9,0,17.1-2.1,21.6-2.8c2-0.3,5.1-0.9,6.9-1.3c2.8-0.7,3.3-0.9,4.5-2.2
	c1.5-1.7,2.5-3.6,3.7-8c1.1-3.9,1.1-4.4,0.1-4.4C524,264.5,515.4,265.4,505.4,266.5z"/>
<linearGradient id="region-2-13_00000060728407008202175800000008422140005166845842_" gradientUnits="userSpaceOnUse" x1="-648.4243" y1="927.9412" x2="-648.1283" y2="928.696" gradientTransform="matrix(78.2818 0 0 38.325 50842.3438 -35301.4219)">
	<stop  offset="0" style="stop-color:#763A2C;stop-opacity:0.548"/>
	<stop  offset="1" style="stop-color:#863930;stop-opacity:0.624"/>
</linearGradient>
<path id="region-2-13_00000113322604366972715880000006137532056702175414_" style="fill:url(#region-2-13_00000060728407008202175800000008422140005166845842_);" d="
	M70,266.7c1.8,7.6,3.7,10.8,7.3,11.9c2.5,0.7,11.1,2.1,20.3,3.3c4,0.5,8.1,1,8.9,1.1l1.5,0.2v-7.4c0-4.1-0.1-7.4-0.2-7.4
	s-8.4-0.9-18.5-2c-10-1.1-18.6-2-19.1-2C69.5,264.4,69.5,264.4,70,266.7z"/>
<linearGradient id="region-3-1_00000057862594454409224360000002442712954386409876_" gradientUnits="userSpaceOnUse" x1="-654.9093" y1="920.5016" x2="-654.9065" y2="921.0184" gradientTransform="matrix(340.4951 1.833 -0.5282 98.1214 223774.1094 -89110.875)">
	<stop  offset="0" style="stop-color:#628997;stop-opacity:0.459"/>
	<stop  offset="1" style="stop-color:#648C9B;stop-opacity:0.441"/>
</linearGradient>
<path id="region-3-1_00000024721341655637674600000004489160461887723957_" style="fill:url(#region-3-1_00000057862594454409224360000002442712954386409876_);" d="
	M239.2,9.8c-5,0.3-7.9,0.7-9.8,1.5c-1.1,0.5-1.6,1.2-5.2,8.2c-7.1,13.9-12.5,26.8-12.5,30c0,2.1,1,4.2,2.8,5.7
	c2.9,2.4-3.4,2.2,84.4,2.7l79.7,0.4l0-2c0-2.8-0.7-5.4-4.1-14.1c-6.6-16.8-11.5-27.8-13-28.7c-4.1-2.6-28.3-3.7-83.9-3.9
	C258.9,9.6,241.7,9.6,239.2,9.8z"/>
<linearGradient id="region-3-2_00000057845093855218617620000005987652202140951715_" gradientUnits="userSpaceOnUse" x1="-647.2531" y1="919.9728" x2="-646.5031" y2="920.2457" gradientTransform="matrix(77.3311 0 0 129.7427 50575.2695 -119236.0547)">
	<stop  offset="0" style="stop-color:#01313E;stop-opacity:0.77"/>
	<stop  offset="1" style="stop-color:#002029;stop-opacity:0.808"/>
</linearGradient>
<path id="region-3-2_00000051373626991266843630000015698843038461950399_" style="fill:url(#region-3-2_00000057845093855218617620000005987652202140951715_);" d="
	M546.8,101.2c0,0.1,0.9,1.6,2,3.3c2,3.1,6.5,10.8,9.4,16.2c1.4,2.6,1.5,2.9,0.8,2.9c-2,0-14.8,5.9-19.4,8.9
	c-4.2,2.8-5.8,4.5-6.9,7.9c-1.5,4.6-5.4,21.7-5.4,23.7c0,0.8,2,0.9,7.9,0.1c7.5-1,29.2-5.2,29.8-5.8c0.1-0.1,0.2-5,0.2-10.8
	c0-14.5-0.2-15.5-5.6-25.8c-3.5-6.8-6.3-11.6-9.2-16.1C548.5,102.6,546.8,100.5,546.8,101.2z"/>
<linearGradient id="region-3-3_00000181767641789521781950000002929940497047628458_" gradientUnits="userSpaceOnUse" x1="-648.8134" y1="919.9395" x2="-648.8134" y2="920.4297" gradientTransform="matrix(78 0 0 125.192 50661.0625 -115064.4062)">
	<stop  offset="0" style="stop-color:#022F3C;stop-opacity:0.781"/>
	<stop  offset="1" style="stop-color:#001D25;stop-opacity:0.81"/>
</linearGradient>
<path id="region-3-3_00000052804952547603020940000013308109858209847478_" style="fill:url(#region-3-3_00000181767641789521781950000002929940497047628458_);" d="
	M50.1,106.9c-4.4,6.1-12.2,19.7-13.8,24.3c-1.5,4.4-1.8,7-1.8,18.3v10.1l1,0.2c16.9,3.6,27.6,5.5,34,6l3.2,0.3l-0.2-1.3
	c-1.4-7.6-3.6-17.4-5.2-22.5c-1.2-3.8-2.8-5.9-6.7-8.5c-4.2-2.8-17.6-9-19.3-9c-0.3,0-0.6-0.1-0.7-0.3c-0.2-0.4,5.1-9.6,8.9-15.4
	C52.5,104.4,52.8,103,50.1,106.9z"/>
<linearGradient id="region-3-5_00000126319513976477390240000004011663844096493717_" gradientUnits="userSpaceOnUse" x1="-636.9825" y1="931.2589" x2="-636.6005" y2="931.8363" gradientTransform="matrix(34.725 0 0 28.1383 22610.2871 -25970.0605)">
	<stop  offset="0" style="stop-color:#EFFFFF;stop-opacity:0.841"/>
	<stop  offset="1" style="stop-color:#F4FFFF;stop-opacity:0.831"/>
</linearGradient>
<path id="region-3-5_00000048480259922677175890000009333800860925482902_" style="fill:url(#region-3-5_00000126319513976477390240000004011663844096493717_);stroke:#000000;stroke-miterlimit:10;" d="
	M496.7,235.8l-6.7,0.7l-0.2,1.7c-0.1,0.9-0.3,3.7-0.4,6.1l-0.3,4.4l3.6-0.5c6.5-0.9,9.4-2.1,10.7-4.6c0.6-1.1,2.7-7.8,2.7-8.5
	C506.2,234.9,504.5,234.9,496.7,235.8z"/>
<linearGradient id="region-3-6_00000032607662481551824460000015081429901232003503_" gradientUnits="userSpaceOnUse" x1="-636.8535" y1="931.1187" x2="-636.8535" y2="931.6091" gradientTransform="matrix(35.0368 0 0 28.2412 22412.7715 -26060.5723)">
	<stop  offset="0" style="stop-color:#F0FFFF;stop-opacity:0.838"/>
	<stop  offset="1" style="stop-color:#F2FFFF;stop-opacity:0.834"/>
</linearGradient>
<path id="region-3-6_00000136411529299663979890000014885501882480500124_" style="fill:url(#region-3-6_00000032607662481551824460000015081429901232003503_);stroke:#000000;stroke-miterlimit:10;" d="
	M90.9,235.4c0,0.1,0.6,2,1.3,4.3c1.5,4.9,2.5,6.4,5.1,7.5c1.8,0.8,10.3,2.3,10.7,1.9c0.1-0.1,0-2.9-0.3-6.1
	c-0.3-4.3-0.6-5.9-0.9-5.9c-0.5,0-12.5-1.4-14.6-1.7C91.5,235.4,90.9,235.4,90.9,235.4z"/>
<linearGradient id="region-4-1_00000153664795489826381850000011369564702746668939_" gradientUnits="userSpaceOnUse" x1="-651.9495" y1="921.4678" x2="-651.5124" y2="922.0294" gradientTransform="matrix(128.0475 0 0 88.8827 83625.2188 -81892.7344)">
	<stop  offset="0" style="stop-color:#9DA9AE;stop-opacity:0.632"/>
	<stop  offset="1" style="stop-color:#A2ADB2;stop-opacity:0.599"/>
</linearGradient>
<path id="region-4-1_00000106864341088601228990000010073833724874009532_" style="fill:url(#region-4-1_00000153664795489826381850000011369564702746668939_);" d="
	M179.1,12.3c-9.7,0.3-18.1,1.4-21,2.7c-1.9,0.8-2.6,2-5.4,8.3c-3.7,8.3-12.6,31.6-12.2,32c0.1,0.1,5.9,0.3,12.8,0.4
	c13.1,0.3,22.9-0.1,26.1-1.1l1.6-0.5l3.7-7.1c2.1-3.9,7.1-13.3,11.1-20.8l7.4-13.6l-1.7-0.3C199.8,12.1,185.3,12.1,179.1,12.3z"/>
<linearGradient id="region-4-2_00000003824180513144975900000004840120068847644828_" gradientUnits="userSpaceOnUse" x1="-648.4695" y1="922.2866" x2="-648.4053" y2="922.8128" gradientTransform="matrix(74.4 0 0 81.3392 48295.4648 -74839.4531)">
	<stop  offset="0" style="stop-color:#FFFFFF;stop-opacity:0.899"/>
	<stop  offset="1" style="stop-color:#FFFFFF;stop-opacity:0.893"/>
</linearGradient>
<path id="region-4-2_00000104688627083058368510000004185813648136208304_" style="fill:url(#region-4-2_00000003824180513144975900000004840120068847644828_);stroke:#000000;stroke-miterlimit:10;" d="
	M39.2,182c-0.6,1-1.7,3.4-2.3,5.3l-1.2,3.5l-0.2,11.7l-0.2,11.6l2.7,0.6c9.7,2.2,24.9,4.9,31.3,5.5c1.9,0.2,2.5,0.1,2.5-0.3
	c0-0.7-2.4-12-3.3-15.7c-1.6-6.5-2.7-9.5-4-11c-2.6-3-9.2-6.9-17.9-10.7C40.5,179.8,40.5,179.8,39.2,182z"/>
<linearGradient id="region-4-3_00000097496876747691895850000005185700863239991729_" gradientUnits="userSpaceOnUse" x1="-646.8981" y1="922.3735" x2="-646.2864" y2="922.7068" gradientTransform="matrix(74.4514 0 0 81.7194 48683.75 -75184.9922)">
	<stop  offset="0" style="stop-color:#FFFFFF;stop-opacity:0.895"/>
	<stop  offset="1" style="stop-color:#FFFFFF;stop-opacity:0.894"/>
</linearGradient>
<path id="region-4-3_00000113352525802512133400000007138438954171940228_" style="fill:url(#region-4-3_00000097496876747691895850000005185700863239991729_);stroke:#000000;stroke-miterlimit:10;" d="
	M553.2,183.7c-4.2,1.7-13.5,6.3-16.1,8.1c-4,2.6-5.5,4.4-6.5,7.8c-1.6,5-5.5,22.6-5.1,23c0.6,0.6,16.8-2,28.6-4.5l7.4-1.6l0.3-4.4
	c0.4-6.8,0-17.2-0.8-20.6c-0.8-3-3-8.2-3.8-8.7C556.4,182.5,556.2,182.5,553.2,183.7z"/>
<line class="st54" x1="314.6" y1="65.7" x2="314.7" y2="130.5"/>
<line class="st54" x1="171.8" y1="60.4" x2="241.9" y2="122.9"/>
<line class="st54" x1="521.4" y1="206.3" x2="396.4" y2="206"/>
<line class="st54" x1="529.1" y1="155.9" x2="390.4" y2="169.4"/>
<line class="st54" x1="484.5" y1="246.3" x2="396.4" y2="243.8"/>
<line class="st54" x1="478.8" y1="273.5" x2="374.5" y2="250.9"/>
<line class="st54" x1="113.7" y1="245.8" x2="195.8" y2="244.1"/>
<line class="st54" x1="111.4" y1="273.8" x2="217.9" y2="252.7"/>
<line class="st54" x1="71.9" y1="209.7" x2="196.1" y2="207.7"/>
<line class="st54" x1="72.7" y1="159.7" x2="198.4" y2="172.4"/>
</svg>
