<?xml version="1.0" encoding="utf-8"?>
<!-- Generator: Adobe Illustrator 26.5.0, SVG Export Plug-In . SVG Version: 6.00 Build 0)  -->
<svg version="1.1" id="图层_1" xmlns="http://www.w3.org/2000/svg" xmlns:xlink="http://www.w3.org/1999/xlink" x="0px" y="0px"
	 viewBox="0 0 600 340" style="enable-background:new 0 0 600 340;" xml:space="preserve">
<style type="text/css">
	.st0{fill:none;}
	.st1{fill:#D3D3D3;}
	.st2{fill:url(#SVGID_1_);}
	.st3{fill:url(#SVGID_00000180347175966043374170000016759164232295943350_);}
	.st4{fill:url(#SVGID_00000170280536590153141740000015216279969500993947_);}
	.st5{fill:url(#SVGID_00000125595859892266782210000013961382027449056699_);}
	.st6{fill:url(#SVGID_00000101087008041371960600000000634744548551524759_);}
	.st7{fill:url(#SVGID_00000135653105007573014390000010124128045711945090_);}
	.st8{fill:url(#SVGID_00000158715395768811517130000004363663373316932772_);}
	.st9{fill:url(#SVGID_00000023264289635632858370000002322866456329838493_);}
	.st10{fill:url(#SVGID_00000012433019052153664510000018280619983969474222_);}
	.st11{fill:url(#SVGID_00000090291779960586560700000005669095491813830785_);}
	.st12{fill:url(#SVGID_00000124860188680795492930000009033031910449288324_);}
	.st13{fill:url(#SVGID_00000147203267663040959620000008716137365061242016_);}
	.st14{fill:url(#SVGID_00000029738767670578442550000015183977763130849946_);}
	.st15{fill:url(#SVGID_00000075878678908212631110000007233759885036575650_);}
	.st16{fill:url(#SVGID_00000090977168249004788620000014725641940572603520_);}
	.st17{fill:url(#SVGID_00000018212462041863766500000012082287306946938805_);}
	.st18{fill:url(#SVGID_00000132770848812728261660000015775411325059584185_);}
	.st19{fill:url(#SVGID_00000073682283405030279770000000995655520531701666_);}
	.st20{fill:url(#SVGID_00000069374683535365168080000007593669374795280002_);}
	.st21{fill:url(#SVGID_00000108299019034462985170000000478680379629022345_);}
	.st22{fill:url(#SVGID_00000016760569569353857640000001285771935909924503_);}
	.st23{fill:url(#SVGID_00000068645746065683224820000012801792267208008097_);}
	.st24{fill:url(#SVGID_00000044171760427916025870000002104482503789129603_);}
	.st25{fill:url(#SVGID_00000138568801026411585110000018113223090103909786_);}
	.st26{fill:url(#SVGID_00000043416717966358714690000003989633359047147158_);}
	.st27{fill:url(#SVGID_00000097485935741377956300000009487380000809953166_);}
	.st28{fill:url(#SVGID_00000051351226870238470320000002735450028879240341_);}
	.st29{fill:url(#SVGID_00000110470922364805221120000001888986733268267183_);}
	.st30{fill:url(#SVGID_00000010281858719652455540000007542978421106166679_);}
	.st31{fill:url(#SVGID_00000108298122121493018690000008242201489258381246_);}
	.st32{fill:url(#SVGID_00000165219505807904797780000002086643983896343476_);}
	.st33{fill:url(#SVGID_00000016058234341700683800000016598515783947519651_);}
	.st34{fill:url(#SVGID_00000100355811766854291540000013411721024119776947_);}
	.st35{fill:url(#SVGID_00000124125465892209395250000004547079468993545120_);}
	.st36{fill:url(#SVGID_00000041253023361308988500000011497063710313720995_);stroke:#000000;stroke-miterlimit:10;}
	.st37{fill:url(#SVGID_00000072280929620030902260000000236986326821222841_);}
	.st38{fill:url(#SVGID_00000177445393860462156450000006382476757267869102_);stroke:#000000;stroke-miterlimit:10;}
	.st39{fill:url(#SVGID_00000112603796962818592380000017020464330504271544_);stroke:#000000;stroke-miterlimit:10;}
	.st40{fill:url(#SVGID_00000134229726530109284220000004764521021583146893_);}
	.st41{fill:url(#SVGID_00000025401824566840923460000012556174120542827437_);stroke:#000000;stroke-miterlimit:10;}
	.st42{fill:url(#SVGID_00000139980187405153979460000003617279516819038872_);stroke:#000000;stroke-miterlimit:10;}
	.st43{fill:url(#SVGID_00000033338004810559552000000005584269342540559752_);stroke:#000000;stroke-miterlimit:10;}
	.st44{fill:url(#SVGID_00000051360366116118916270000013999804029264591272_);stroke:#000000;stroke-miterlimit:10;}
	.st45{fill:url(#SVGID_00000063593913300488385350000005956724662839796407_);stroke:#000000;stroke-miterlimit:10;}
	.st46{fill:none;stroke:#000000;stroke-miterlimit:10;}
	.st47{fill:none;stroke:#FF0000;stroke-width:3;stroke-miterlimit:10;}
</style>
<pattern  y="470" width="30" height="30" patternUnits="userSpaceOnUse" id="SVGID_2_" viewBox="0 -30 30 30" style="overflow:visible;">
	<g>
		<rect y="-30" class="st0" width="30" height="30"/>
		<g>
			<polygon class="st0" points="0,-30 30,-30 30,0 0,0 			"/>
			<g>
				<polygon class="st0" points="0,-30 30,-30 30,0 0,0 				"/>
				<polygon class="st0" points="0,-30 30,-30 30,0 0,0 				"/>
				<polygon class="st1" points="0,-30 15,-30 15,-15 0,-15 				"/>
				<polygon class="st1" points="15,-15 30,-15 30,0 15,0 				"/>
			</g>
		</g>
	</g>
</pattern>
<pattern  id="SVGID_1_" xlink:href="#SVGID_2_" patternTransform="matrix(0.75 0 0 0.75 -3946.875 12456.2129)">
</pattern>
<rect x="-0.3" class="st2" width="600" height="340"/>
<g transform="translate(0.000000,609.000000) scale(0.100000,-0.100000)">
	<g>
		
			<linearGradient id="SVGID_00000066483715326315327400000003332313586896711830_" gradientUnits="userSpaceOnUse" x1="-3869.3733" y1="-192941.25" x2="-3868.8838" y2="-192941.25" gradientTransform="matrix(4.9722 0 0 3.7992 21009.0605 737255.8125)">
			<stop  offset="0" style="stop-color:#FE715D"/>
			<stop  offset="1" style="stop-color:#FE715D"/>
		</linearGradient>
		<path style="fill:url(#SVGID_00000066483715326315327400000003332313586896711830_);" d="M2368.2,5161.6
			c-44.1-13.9-85.9-55.1-117.9-116.4c-47-90.3-126.7-302.5-167.4-446.4c-7.3-25-16.5-44.8-38.6-80.8
			c-55.4-92.2-104.3-183.2-134.7-251.9c-5.9-13.2-22.8-39.6-37.8-58.7c-36.3-46.3-76-106.5-88.8-134.7c-14.3-30.8-15.8-59.5-11-181
			c7.7-188.7,20.9-301.1,42.2-365.3c15.8-47,26.4-65.7,49.2-87c36-33.8,87.4-50.7,204.5-67.2c226.2-31.9,443.1-52.1,648.7-60.9
			c123.4-5.1,563.5,0.7,685.8,9.6c254.4,18,565.4,54.7,622.3,73.4c84.1,27.5,112.7,56.5,139.5,141.3
			c20.9,67.2,34.5,206.3,37.5,385.5l1.8,126.7l-9.5,22c-12.1,26.8-55.1,92.2-92.2,139.5c-15,19.5-31.9,45.5-37.1,58
			c-23.1,55.1-73.8,149.8-128.5,241.6c-31.2,51.8-36,62.1-50.7,112c-48.5,161.9-120.8,350.6-165.9,433.6
			c-30.5,56.2-70.9,94-114.2,107.6c-23.5,7.3-32.3,7.3-619.3,7C2406.4,5168.9,2390.3,5168.5,2368.2,5161.6z"/>
	</g>
</g>
<g transform="translate(0.000000,609.000000) scale(0.100000,-0.100000)">
	<g>
		
			<linearGradient id="SVGID_00000011724012991874122370000009035465245763220158_" gradientUnits="userSpaceOnUse" x1="-2496.9995" y1="-198138.9062" x2="-2496.51" y2="-198138.9062" gradientTransform="matrix(2.5274 0 0 0.7113 8671.1533 144944.9375)">
			<stop  offset="0" style="stop-color:#263238"/>
			<stop  offset="1" style="stop-color:#263238"/>
		</linearGradient>
		<path style="fill:url(#SVGID_00000011724012991874122370000009035465245763220158_);" d="M2390.3,4186.8
			c-20.2-10.3-28.3-27.5-29.7-66.1c-1.8-39.6,4.4-108.3,12.1-139.1c13.9-53.2,41.5-92.9,77.5-110.5c28.3-14,74.2-18.7,218.1-23.9
			c155.7-5.5,817.2-1.8,842.6,4.4c32.3,8.1,61.7,43.7,70.9,85.9c2.6,10.3,7,57.6,9.9,106.1l5.9,87.4l-8.4,16.9
			c-15.8,31.9-12.9,31.2-145,34.1c-165.2,4-728.4,10.7-898.7,10.7C2421.5,4192.7,2400.6,4191.6,2390.3,4186.8z"/>
	</g>
</g>
<g transform="translate(0.000000,609.000000) scale(0.100000,-0.100000)">
	<g>
		
			<linearGradient id="SVGID_00000060709741940814820750000003483464897805634986_" gradientUnits="userSpaceOnUse" x1="10647.665" y1="-233478.0625" x2="10648.1543" y2="-233478.0625" gradientTransform="matrix(0.4425 0 0 0.1125 -1845.1521 30383.7227)">
			<stop  offset="0" style="stop-color:#F5F5F5"/>
			<stop  offset="1" style="stop-color:#F5F5F5"/>
		</linearGradient>
		<path style="fill:url(#SVGID_00000060709741940814820750000003483464897805634986_);" d="M2866.4,4142.4
			c0-1.8,17.3-13.9,37.8-27.5l37.8-25h33.8h33.8l36.7,24.6c20.2,13.2,36.7,25.7,36.7,27.5c0,1.5-48.8,2.9-108.3,2.9
			C2915.3,4145,2866.4,4143.9,2866.4,4142.4z"/>
	</g>
</g>
<g transform="translate(0.000000,609.000000) scale(0.100000,-0.100000)">
	<g>
		
			<linearGradient id="SVGID_00000027567986978600137960000005855032674444964224_" gradientUnits="userSpaceOnUse" x1="7366.145" y1="-202177.2812" x2="7366.6348" y2="-202177.2812" gradientTransform="matrix(0.4924 0 0 0.4684 14.4284 99035.8125)">
			<stop  offset="0" style="stop-color:#FF9D8F"/>
			<stop  offset="1" style="stop-color:#FF9D8F"/>
		</linearGradient>
		<path style="fill:url(#SVGID_00000027567986978600137960000005855032674444964224_);" d="M3772.2,4436.9
			c-6.6-6.6-132.5-214.8-130.7-216.2c0.7-0.4,9.9-2.9,20.6-5.1c17.6-3.7,20.2-3.3,34.9,4.8c16.9,9.2,82.6,36,145.4,58.7
			c37.4,13.6,48.5,20.2,34.1,20.2c-18.7,0-52.9,52.1-76,114.9C3789.4,4443.5,3783.5,4448.2,3772.2,4436.9z"/>
	</g>
</g>
<g transform="translate(0.000000,609.000000) scale(0.100000,-0.100000)">
	<g>
		
			<linearGradient id="SVGID_00000032625634874096340860000011734911404523095216_" gradientUnits="userSpaceOnUse" x1="-2029.0143" y1="-200850.8594" x2="-2028.5248" y2="-200850.8594" gradientTransform="matrix(2.1654 0 0 0.4488 6838.585 93699.7266)">
			<stop  offset="0" style="stop-color:#455A64"/>
			<stop  offset="1" style="stop-color:#455A64"/>
		</linearGradient>
		<path style="fill:url(#SVGID_00000032625634874096340860000011734911404523095216_);" d="M2454.9,3656.7
			c-10.6-10.3-11-12.1-8.8-32c9.9-87.4,21.7-137.7,34.5-149.4c16.5-15.1,184.3-24.2,490.5-26.8c289.7-2.6,437.2,4.4,480.2,22.4
			c27.5,11.4,47,61,52.5,135.1c2.2,25.7,1.5,31.9-3.3,36.7c-8.1,7.7-52.5,9.5-309.1,12.1c-271.3,2.6-644.3,8.4-689.5,11l-36,1.8
			L2454.9,3656.7z"/>
	</g>
</g>
<g transform="translate(0.000000,609.000000) scale(0.100000,-0.100000)">
	<g>
		
			<linearGradient id="SVGID_00000054971611031278873200000017366917584303574972_" gradientUnits="userSpaceOnUse" x1="5411.3325" y1="-197447.9219" x2="5411.8218" y2="-197447.9219" gradientTransform="matrix(0.744 0 0 0.8134 -2103.8494 164715.7031)">
			<stop  offset="0" style="stop-color:#F5F5F5"/>
			<stop  offset="1" style="stop-color:#F5F5F5"/>
		</linearGradient>
		<path style="fill:url(#SVGID_00000054971611031278873200000017366917584303574972_);" d="M1960,4297c-5.9-9.9-16.5-33.8-23.1-52.9
			l-11.7-34.9l-1.5-116.4l-1.5-116l27.2-6.2c96.9-22,248.2-48.8,312.4-55.1c19.1-1.8,24.6-1.5,24.6,2.6c0,7-23.5,119.7-32.7,157.1
			c-16.2,65-26.8,95.1-39.7,110.1c-25.7,29.7-91.4,69-178.8,106.5C1973.2,4318.6,1973.6,4318.6,1960,4297z"/>
	</g>
</g>
<g transform="translate(0.000000,609.000000) scale(0.100000,-0.100000)">
	<g>
		
			<linearGradient id="SVGID_00000069391287700352125510000009416514027612480646_" gradientUnits="userSpaceOnUse" x1="-3017.6736" y1="-196474.75" x2="-3017.7568" y2="-196475.5469" gradientTransform="matrix(3.5723 0 0 1.0717 13918.7666 215612.0781)">
			<stop  offset="0" style="stop-color:#1E2F36"/>
			<stop  offset="1" style="stop-color:#3B383B"/>
		</linearGradient>
		<path style="fill:url(#SVGID_00000069391287700352125510000009416514027612480646_);" d="M2335.9,5052.2c-55.1-5.5-51-2.9-74.2-51
			c-94-199-166.3-396.5-166.3-454.9v-16.9l575.7,2.2c316.5,1.5,709.7,2.6,874.1,2.6h298.8l-2.2,32.3c-1.8,34.5-5.9,47-56.2,181
			c-67.5,181-109,278.7-121.5,285.6c-12.5,6.6-65.7,11-173.7,15.1C3362.1,5052.9,2376.7,5056.2,2335.9,5052.2z"/>
	</g>
</g>
<g transform="translate(0.000000,609.000000) scale(0.100000,-0.100000)">
	<g>
		
			<linearGradient id="SVGID_00000008138578328842568080000000480753771852628886_" gradientUnits="userSpaceOnUse" x1="-3602.1104" y1="-206922.3281" x2="-3602.1104" y2="-206921.625" gradientTransform="matrix(4.8977 0 0 0.2939 20624.2051 64606.3555)">
			<stop  offset="0" style="stop-color:#392A2A"/>
			<stop  offset="1" style="stop-color:#10323D"/>
		</linearGradient>
		<path style="fill:url(#SVGID_00000008138578328842568080000000480753771852628886_);" d="M4153.6,3900.8
			c-47.4-36.7-119.7-66.8-194.9-82.2c-132.5-26.8-388.1-35.2-965.6-31.9c-551.1,3.3-678.8,8.1-837.1,30.1
			c-76.7,10.7-186.9,31.2-236.8,43.7c-29,7.3-115.3,34.1-131.1,40.8c-2.6,1.1-4.8,0.7-4.8-1.1c0-3.3,68.3-27.5,115.6-41.1
			c103.2-29.7,248.6-53.2,398.3-64.2c318.7-23.9,972.9-26.4,1439.1-5.9c172.2,7.7,268.4,25.3,349.9,64.2
			c42.6,19.8,100.2,60.2,94,65.7C4179.7,3919.6,4167.6,3911.5,4153.6,3900.8z"/>
	</g>
</g>
<g transform="translate(0.000000,609.000000) scale(0.100000,-0.100000)">
	<g>
		
			<linearGradient id="SVGID_00000042714415535492772770000016250450749889937087_" gradientUnits="userSpaceOnUse" x1="3165.8452" y1="-195542.2344" x2="3165.3167" y2="-195541.9844" gradientTransform="matrix(0.7733 0 0 1.2974 1585.0374 257686.2344)">
			<stop  offset="0" style="stop-color:#20292E"/>
			<stop  offset="1" style="stop-color:#28353C"/>
		</linearGradient>
		<path style="fill:url(#SVGID_00000042714415535492772770000016250450749889937087_);" d="M3843,4525.7c0-1.5,8.8-16.2,19.5-32.7
			c19.8-30.5,64.6-107.9,94-161.5c13.9-25.7,14.7-28.6,8.4-28.6c-19.8,0-147.6-58.4-193.5-88.5c-42.2-27.5-57.6-45.2-69-79.3
			c-15.1-46.3-54-216.6-54-236.8c0-8.5,19.5-8.8,78.9-0.7c74.9,9.6,291.9,51.8,297.7,57.6c1.1,1.1,1.8,49.6,1.8,107.6
			c0.4,144.6-1.8,154.6-55.8,257.7c-35.2,67.6-62.8,116-91.8,160.8C3859.9,4511,3843,4531.9,3843,4525.7z"/>
	</g>
</g>
<g transform="translate(0.000000,609.000000) scale(0.100000,-0.100000)">
	<g>
		
			<linearGradient id="SVGID_00000057135233568235330760000013846996413770088853_" gradientUnits="userSpaceOnUse" x1="-3795.2209" y1="-204570.7969" x2="-3794.7314" y2="-204570.7969" gradientTransform="matrix(4.7285 0 0 0.3131 19769.7812 67529.6484)">
			<stop  offset="0" style="stop-color:#263238"/>
			<stop  offset="1" style="stop-color:#263238"/>
		</linearGradient>
		<path style="fill:url(#SVGID_00000057135233568235330760000013846996413770088853_);" d="M4067,3542.5
			c-369-92.1-771.3-136.6-1178.5-130.7c-341.8,5.1-653.5,40.8-990.2,113.1c-66.8,14.3-77.5,16.2-73.8,12.5
			c3.3-3.3,140.6-33.4,223.2-49.2c284.2-53.6,545.6-79.7,840.7-83.7c414.9-5.9,795.2,36.7,1175.2,131.1c33,8.1,63.5,16.5,67.5,18.4
			l7.3,3.3l-7.3-0.4C4127.2,3556.8,4098.2,3550.2,4067,3542.5z"/>
	</g>
</g>
<g transform="translate(0.000000,609.000000) scale(0.100000,-0.100000)">
	<g>
		
			<linearGradient id="SVGID_00000054243878840963654230000003715115919705798584_" gradientUnits="userSpaceOnUse" x1="3870.3994" y1="-194246.2188" x2="3870.8889" y2="-194246.2188" gradientTransform="matrix(0.8832 0 0 1.5178 -1653.2445 298179.3438)">
			<stop  offset="0" style="stop-color:#263238"/>
			<stop  offset="1" style="stop-color:#263238"/>
		</linearGradient>
		<path style="fill:url(#SVGID_00000054243878840963654230000003715115919705798584_);" d="M1774.6,3682
			c-16.5-351-11.7-511.4,18.4-615.7c20.9-71.6,45.9-81.1,214.4-81.5c43.3,0,90.3,1.8,103.9,3.7c44.8,6.6,72.7,26.8,83.3,60.6
			c4.8,14.3,3.7,131.4-2.6,257.7l-2.2,48.5l-15.1,2.2c-206,28.3-222.5,31.6-273.5,55.8c-24.2,11.7-51.8,36-64.6,58
			c-23.9,40.8-44.4,129.6-51.8,221C1781.2,3743,1777.2,3739.3,1774.6,3682z"/>
	</g>
</g>
<g transform="translate(0.000000,609.000000) scale(0.100000,-0.100000)">
	<g>
		
			<linearGradient id="SVGID_00000107564092569627311400000001373401581569638806_" gradientUnits="userSpaceOnUse" x1="9040.626" y1="-206577.0469" x2="9041.1152" y2="-206577.0469" gradientTransform="matrix(0.5701 0 0 0.3524 -3388.5754 77444.375)">
			<stop  offset="0" style="stop-color:#FE725E"/>
			<stop  offset="1" style="stop-color:#FE725E"/>
		</linearGradient>
		<path style="fill:url(#SVGID_00000107564092569627311400000001373401581569638806_);" d="M1895.4,4728.3
			c-54-6.2-80.4-19.8-102.4-52.1c-16.9-25-27.9-57.3-27.9-83.3c0-35.6-5.1-34.1,133.3-34.5c89.2-0.4,120.1,0.7,126.3,4.4
			c13.2,7.3,19.5,36,19.5,86.6c0,50.3-4,70.1-15.4,76C2018.4,4730.9,1932.8,4732.8,1895.4,4728.3z"/>
	</g>
</g>
<g transform="translate(0.000000,609.000000) scale(0.100000,-0.100000)">
	<g>
		
			<linearGradient id="SVGID_00000047749905365869981080000003743457206717058232_" gradientUnits="userSpaceOnUse" x1="7518.9414" y1="-210895.2031" x2="7519.4312" y2="-210895.2031" gradientTransform="matrix(0.6353 0 0 0.2688 -2997.0427 61246.4609)">
			<stop  offset="0" style="stop-color:#263238"/>
			<stop  offset="1" style="stop-color:#263238"/>
		</linearGradient>
		<path style="fill:url(#SVGID_00000047749905365869981080000003743457206717058232_);" d="M2074.5,4625.2
			c-17.6-3.7-30.1-18-37.1-42.2c-2.6-8.8-8.1-17.6-12.8-20.2c-6.2-3.7-37.1-4.8-126.7-4.4c-65,0-118.2-0.7-118.2-1.8
			c0-6.6,15.8-26.8,23.5-29.4c7.3-2.9,155.7-11.4,199.7-11.4c11.7,0,16.2-1.5,17.6-6.2c6.2-20.2,6.6-19.8,30.1,18.4
			c15.1,25.3,25.7,48.1,31.9,68.7c4.8,17.3,8.4,31.2,8.1,31.2C2090.3,4628.1,2083,4627,2074.5,4625.2z"/>
	</g>
</g>
<g transform="translate(0.000000,609.000000) scale(0.100000,-0.100000)">
	<g>
		
			<linearGradient id="SVGID_00000179630671361593462470000006462820885548447898_" gradientUnits="userSpaceOnUse" x1="12026.0244" y1="-206667.375" x2="12026.5137" y2="-206667.375" gradientTransform="matrix(0.3473 0 0 0.2814 -290.0791 61805.3086)">
			<stop  offset="0" style="stop-color:#E7EFE3"/>
			<stop  offset="1" style="stop-color:#E7EFE3"/>
		</linearGradient>
		<path style="fill:url(#SVGID_00000179630671361593462470000006462820885548447898_);" d="M3962,3714.3l-66.8-7.3l-2.2-16.9
			c-1.1-9.2-3.3-36.7-4.4-61.3l-2.6-44.4l36.3,5.1c65.4,8.8,93.6,20.9,106.5,45.5c5.5,10.6,27.2,78.2,27.2,84.4
			C4055.9,3723.9,4039.8,3723.1,3962,3714.3z"/>
	</g>
</g>
<g transform="translate(0.000000,609.000000) scale(0.100000,-0.100000)">
	<g>
		
			<linearGradient id="SVGID_00000141420816971788912430000012630882982505881016_" gradientUnits="userSpaceOnUse" x1="38169.8398" y1="-199364.4844" x2="38170.3281" y2="-199364.4844" gradientTransform="matrix(0.1472 0 0 0.6429 -2053.969 132512.5625)">
			<stop  offset="0" style="stop-color:#263238"/>
			<stop  offset="1" style="stop-color:#263238"/>
		</linearGradient>
		<path style="fill:url(#SVGID_00000141420816971788912430000012630882982505881016_);" d="M3629,4450.8
			c-2.6-87.4-20.9-167.1-52.9-230.2c-7-13.6-11.7-25.7-11-26.4c2.6-2.6,8.8,6.6,22,33.4c30.5,61.3,46.3,132.5,49.2,221.4
			c1.5,38.9,0.7,59.5-1.5,59.5C3632.6,4508.4,3630.4,4485.7,3629,4450.8z"/>
	</g>
</g>
<g transform="translate(0.000000,609.000000) scale(0.100000,-0.100000)">
	<g>
		
			<linearGradient id="SVGID_00000033351178113207977750000000997451897223680930_" gradientUnits="userSpaceOnUse" x1="5033.1382" y1="-206739.0469" x2="5033.6279" y2="-206739.0469" gradientTransform="matrix(0.5737 0 0 0.3478 1030.6085 76525.6016)">
			<stop  offset="0" style="stop-color:#FF725E"/>
			<stop  offset="1" style="stop-color:#FF725E"/>
		</linearGradient>
		<path style="fill:url(#SVGID_00000033351178113207977750000000997451897223680930_);" d="M3939.2,4715.1
			c-17.3-3.3-20.9-16.2-20.9-74.5c0.4-55.1,4.4-79.7,15.4-88.5c4.8-4,30.1-5.1,128.1-5.1c114.6,0,122.3,0.4,129.6,7
			c9.6,8.8,10.3,29.4,1.8,57.6c-8.4,28.6-18.4,45.9-36.7,65.7c-20.2,21.7-42.6,31.6-82.2,36.3
			C4044.6,4717.7,3956.5,4718.4,3939.2,4715.1z"/>
	</g>
</g>
<g transform="translate(0.000000,609.000000) scale(0.100000,-0.100000)">
	<g>
		
			<linearGradient id="SVGID_00000091721036407038897450000006690248551805073589_" gradientUnits="userSpaceOnUse" x1="4618.0459" y1="-214132.8906" x2="4618.5356" y2="-214132.8906" gradientTransform="matrix(0.6 0 0 0.2297 1119.9144 53752.625)">
			<stop  offset="0" style="stop-color:#263238"/>
			<stop  offset="1" style="stop-color:#263238"/>
		</linearGradient>
		<path style="fill:url(#SVGID_00000091721036407038897450000006690248551805073589_);" d="M3890.7,4606.8
			c0-13.6,13.6-45.2,31.9-75.6c15.8-26.1,22-33.4,26.4-31.6c3.3,1.1,40.8,3.7,83,5.5c91.1,3.7,121.9,5.9,130.7,10.6
			c5.1,2.9,21.7,25.3,21.7,29.7c0,0.7-55.1,1.5-122.3,1.5c-136.9,0-132.2-1.1-138.8,26.4C3917.5,4595.4,3890.7,4623.4,3890.7,4606.8
			z"/>
	</g>
</g>
<g transform="translate(0.000000,609.000000) scale(0.100000,-0.100000)">
	<g>
		
			<linearGradient id="SVGID_00000023972398933051035250000015894658436186605202_" gradientUnits="userSpaceOnUse" x1="17734.4805" y1="-206542.5" x2="17734.9688" y2="-206542.5" gradientTransform="matrix(0.3504 0 0 0.2824 -4298.0537 61964.0117)">
			<stop  offset="0" style="stop-color:#E6EEE2"/>
			<stop  offset="1" style="stop-color:#E6EEE2"/>
		</linearGradient>
		<path style="fill:url(#SVGID_00000023972398933051035250000015894658436186605202_);" d="M1915.6,3702.9c0-0.7,5.9-20.2,12.8-42.9
			c15.4-48.5,25.3-63.5,51-75.3c18-8.1,102.8-23.1,107.2-18.7c1.1,1.1,0,28.6-2.6,60.9c-3.3,42.6-5.9,59.1-9.2,59.1
			c-5.1,0-124.8,13.6-145.4,16.5C1921.8,3703.7,1915.6,3703.7,1915.6,3702.9z"/>
	</g>
</g>
<g transform="translate(0.000000,609.000000) scale(0.100000,-0.100000)">
	<g>
		
			<linearGradient id="SVGID_00000007421490837265868170000006370281675571209612_" gradientUnits="userSpaceOnUse" x1="1512.1458" y1="-194417.2344" x2="1512.6353" y2="-194417.2344" gradientTransform="matrix(0.8832 0 0 1.3935 2426.856 274202.875)">
			<stop  offset="0" style="stop-color:#263238"/>
			<stop  offset="1" style="stop-color:#263238"/>
		</linearGradient>
		<path style="fill:url(#SVGID_00000007421490837265868170000006370281675571209612_);" d="M4178.2,3595.4
			c-2.6-15.8-8.8-42.6-13.9-59.8c-35.2-111.2-79.3-138.8-260.7-163.7c-50.3-6.6-95.8-12.5-101-12.5c-7,0-12.1-4.4-20.9-17.6
			l-11.7-17.3l-3.7-113.4c-7-200.1-5.9-215.1,15.1-239.4c27.5-31.6,51.4-35.6,195.7-33.8c106.5,1.5,114.9,1.8,133.6,9.6
			c29.7,11.7,42.9,26.8,53.6,59.8c19.1,60.6,26.8,124.8,30.1,253.3c2.2,89.9-4.8,349.5-9.6,358.7
			C4183.3,3621.8,4180.4,3610.8,4178.2,3595.4z"/>
	</g>
</g>
<g transform="translate(0.000000,609.000000) scale(0.100000,-0.100000)">
	<g>
		
			<linearGradient id="SVGID_00000086670131239188306500000010251185174037991350_" gradientUnits="userSpaceOnUse" x1="-1844.4165" y1="-199833.2812" x2="-1844.4604" y2="-199834.0938" gradientTransform="matrix(2.2088 0 0 0.4897 7066.5879 101537.3516)">
			<stop  offset="0" style="stop-color:#333333;stop-opacity:0.9953"/>
			<stop  offset="1" style="stop-color:#333333"/>
		</linearGradient>
		<path style="fill:url(#SVGID_00000086670131239188306500000010251185174037991350_);" d="M2451.2,3664.4c-5.5-4-11-11.7-12.1-16.5
			c-1.1-5.1,0-32.3,3.3-60.6c8.1-78.9,18.7-116.4,34.9-125.2c27.9-15,315-29.4,591.1-29.4c176.2,0,277.9,4,341.4,13.2
			c46.3,7,57.3,11,72.3,28.3c19.8,22.8,37.8,93.3,37.8,149.4c0,29-6.6,36.7-34.5,40.8c-11.7,1.5-247.1,4-522.8,5.5l-501.9,2.6
			L2451.2,3664.4z M2761.8,3660.4c123.4-1.8,316.5-4.4,429.5-5.5c256.6-2.6,301.1-4.4,309.1-12.1c4.8-4.8,5.5-11,3.3-36.7
			c-5.5-74.2-25-123.7-52.5-135.1c-42.9-18-190.5-25-480.2-22.4c-306.2,2.6-474,11.7-490.5,26.8c-12.8,11.7-24.6,62.1-34.5,149.4
			c-2.2,19.8-1.8,21.7,8.8,31.9l11,11l36-1.8C2521.7,3664.8,2638.8,3662.2,2761.8,3660.4z"/>
	</g>
</g>
<g transform="translate(0.000000,609.000000) scale(0.100000,-0.100000)">
	<g>
		
			<linearGradient id="SVGID_00000056406340784238896660000012720398266049254536_" gradientUnits="userSpaceOnUse" x1="875.3802" y1="-198714.4531" x2="875.8698" y2="-198714.4531" gradientTransform="matrix(1.0031 0 0 0.6449 2686.5374 132115.8438)">
			<stop  offset="0" style="stop-color:#000000;stop-opacity:0.301"/>
			<stop  offset="1" style="stop-color:#000000;stop-opacity:0.301"/>
		</linearGradient>
		<path style="fill:url(#SVGID_00000056406340784238896660000012720398266049254536_);" d="M4027.3,4038.5
			c-0.4-45.2-1.5-83-2.6-83.7c-2.6-2.6-113.1-26.1-185.4-39.3c-82.2-15-147.9-23.9-178.1-23.9h-22l-24.2-26.4
			c-13.2-14.7-30.1-33.8-37.8-42.6c-8.1-8.4-13.6-16.5-12.5-17.3c5.1-5.1,310.2,52.1,371.5,69.8c74.5,21.7,120.1,55.4,119.3,88.8
			c0,5.5-6.2,43.3-13.9,83.3l-13.6,73.4L4027.3,4038.5z"/>
	</g>
</g>
<g transform="translate(0.000000,609.000000) scale(0.100000,-0.100000)">
	<g>
		
			<linearGradient id="SVGID_00000024688772154150485320000009789055020528785807_" gradientUnits="userSpaceOnUse" x1="49019.9844" y1="-199310.4062" x2="49020.3789" y2="-199310.375" gradientTransform="matrix(0.1425 0 0 0.6488 -4645.6538 133659.8906)">
			<stop  offset="0" style="stop-color:#333333;stop-opacity:0.9823"/>
			<stop  offset="1" style="stop-color:#333333"/>
		</linearGradient>
		<path style="fill:url(#SVGID_00000024688772154150485320000009789055020528785807_);" d="M2310.6,4494.1
			c-5.5-43,4.4-132.9,21.7-193.1c10.3-35.6,40-101,45.9-101c2.2,0-1.1,9.5-7,21.3c-33.8,66.8-53.2,159-56.5,266.9l-0.7,29.4
			L2310.6,4494.1z"/>
	</g>
</g>
<g transform="translate(0.000000,609.000000) scale(0.100000,-0.100000)">
	<g>
		
			<linearGradient id="SVGID_00000133527015858622424400000006873422662547151780_" gradientUnits="userSpaceOnUse" x1="5261.4854" y1="-195298.4062" x2="5261.3481" y2="-195298.8594" gradientTransform="matrix(0.78 0 0 1.2519 -1917.9017 248968.7812)">
			<stop  offset="0" style="stop-color:#2A2A2A;stop-opacity:0.9922"/>
			<stop  offset="1" style="stop-color:#2A2A2A"/>
		</linearGradient>
		<path style="fill:url(#SVGID_00000133527015858622424400000006873422662547151780_);" d="M2070.9,4496
			c-44.4-60.6-121.9-196.8-137.3-242.3c-15.4-44.1-18-70.1-18-182.5v-101.3l10.3-2.2c168.5-36,275.7-54.7,339.6-59.8l31.9-2.6
			l-2.2,12.5c-13.9,75.6-36.3,173.3-51.8,225c-11.7,38.2-27.5,58.4-66.4,84.4c-42.2,27.9-175.5,90.3-193.1,90.3
			c-2.9,0-6.2,1.5-7.3,2.9c-2.2,3.7,51.4,96.2,89.2,154.2C2095.5,4520.2,2098.8,4534.1,2070.9,4496z M2035.3,4291.8
			c87.4-37.5,153.1-76.7,178.8-106.5c12.8-15,23.5-45.2,39.7-110.1c9.2-37.5,32.7-150.2,32.7-157.1c0-4-5.5-4.4-24.6-2.6
			c-64.2,6.2-215.5,33-312.4,55.1l-27.2,6.2l1.5,116l1.5,116.4l11.7,34.9c6.6,19.1,17.3,43,23.1,52.9
			C1973.6,4318.6,1973.2,4318.6,2035.3,4291.8z"/>
	</g>
</g>
<g transform="translate(0.000000,609.000000) scale(0.100000,-0.100000)">
	<g>
		
			<linearGradient id="SVGID_00000092426527979303415480000002123134595562540461_" gradientUnits="userSpaceOnUse" x1="2540.7769" y1="-202676.25" x2="2541.2664" y2="-202676.25" gradientTransform="matrix(0.7793 0 0 0.3818 1716.0074 81014.0625)">
			<stop  offset="0" style="stop-color:#000000;stop-opacity:0.301"/>
			<stop  offset="1" style="stop-color:#000000;stop-opacity:0.301"/>
		</linearGradient>
		<path style="fill:url(#SVGID_00000092426527979303415480000002123134595562540461_);" d="M3879,3708.8l-182.8-20.2v-73.1
			c0-67.2,0.4-72.7,6.6-72.7c8.8,0,170.4,20.9,215.5,27.9c20.2,2.9,51,8.8,68.7,12.9c28.3,6.6,33.4,9.2,45.2,22.4
			c15.4,16.9,24.6,36.3,37.1,79.7c11,38.5,11.4,44.4,0.7,44.1C4065.1,3729.4,3979.2,3720.2,3879,3708.8z M4055.9,3719.5
			c0-6.2-21.7-73.8-27.2-84.4c-12.8-24.6-41.1-36.7-106.5-45.5l-36.3-5.1l2.6,44.4c1.1,24.6,3.3,52.1,4.4,61.3l2.2,16.9l66.8,7.3
			C4039.8,3723.1,4055.9,3723.9,4055.9,3719.5z"/>
	</g>
</g>
<g transform="translate(0.000000,609.000000) scale(0.100000,-0.100000)">
	<g>
		
			<linearGradient id="SVGID_00000082342059301515026160000008622204337601025185_" gradientUnits="userSpaceOnUse" x1="2654.7456" y1="-198972.625" x2="2655.2351" y2="-198972.625" gradientTransform="matrix(0.9985 0 0 0.6248 -761.8344 128290.3047)">
			<stop  offset="0" style="stop-color:#000000;stop-opacity:0.301"/>
			<stop  offset="1" style="stop-color:#000000;stop-opacity:0.301"/>
		</linearGradient>
		<path style="fill:url(#SVGID_00000082342059301515026160000008622204337601025185_);" d="M1899.8,4059.8
			c-16.2-86.3-15.8-89.2,11.4-113.8c30.8-27.9,76-44.8,180.6-66.8c100.2-21.3,263.2-49.9,283.4-49.9c6.6,0,1.1,7.3-29.7,38.2
			l-37.8,37.8l-37.1,2.6c-64.6,4-168.1,22-344.7,59.8l-10.3,1.8l-0.7,83l-1.1,82.6L1899.8,4059.8z"/>
	</g>
</g>
<g transform="translate(0.000000,609.000000) scale(0.100000,-0.100000)">
	<g>
		
			<linearGradient id="SVGID_00000109026625247986598730000015799336926857671858_" gradientUnits="userSpaceOnUse" x1="4903.3306" y1="-202573.2969" x2="4903.8203" y2="-202573.2969" gradientTransform="matrix(0.7828 0 0 0.3832 -1942.5861 81250.5)">
			<stop  offset="0" style="stop-color:#000000;stop-opacity:0.301"/>
			<stop  offset="1" style="stop-color:#000000;stop-opacity:0.301"/>
		</linearGradient>
		<path style="fill:url(#SVGID_00000109026625247986598730000015799336926857671858_);" d="M1899.4,3685.3
			c17.6-76,37.1-107.9,72.7-118.6c24.6-7.3,110.5-21.3,202.3-33c40.4-5.1,80.4-9.9,89.2-11.4l15.4-1.8v73.4
			c0,40.8-0.7,73.8-1.8,73.8c-1.1,0-84.1,9.2-184.7,20.2c-100.2,11-186.1,20.2-190.5,20.2
			C1894.3,3708.1,1894.3,3707.7,1899.4,3685.3z M2006.6,3693.4c35.2-4,65.7-7.3,68.3-7.3c3.3,0,5.9-16.5,9.2-59.1
			c2.6-32.3,3.7-59.8,2.6-60.9c-4.4-4.4-89.2,10.6-107.2,18.7c-25.7,11.7-35.6,26.8-51,75.3c-7,22.8-12.8,42.2-12.8,43
			c0,0.7,6.2,0.7,13.9-0.4C1936.9,3701.5,1971.7,3697.4,2006.6,3693.4z"/>
	</g>
</g>
<g transform="translate(0.000000,609.000000) scale(0.100000,-0.100000)">
	<g>
		
			<linearGradient id="SVGID_00000072960972972582844390000013837222886624012451_" gradientUnits="userSpaceOnUse" x1="-3095.8718" y1="-207207.9375" x2="-3095.3823" y2="-207207.9375" gradientTransform="matrix(3.3417 0 0 0.2807 12248.6465 61952.0195)">
			<stop  offset="0" style="stop-color:#000000;stop-opacity:0.301"/>
			<stop  offset="1" style="stop-color:#000000;stop-opacity:0.301"/>
		</linearGradient>
		<path style="fill:url(#SVGID_00000072960972972582844390000013837222886624012451_);" d="M1909.7,3850.5
			c42.2-33.8,139.5-76,226.5-98c118.6-30.1,204.9-36.3,407.1-30.5c237.2,7.3,784.9,38.5,974.7,55.8c32.3,2.9,29.4,2.9-25.7,1.5
			c-186.1-4.8-566.9-5.9-747.1-1.8c-373.4,8.1-526.5,18-681,44.8c-41.5,7.3-141.7,29-157.9,34.5
			C1901.3,3858.6,1902,3856.8,1909.7,3850.5z"/>
	</g>
</g>
<g transform="translate(0.000000,609.000000) scale(0.100000,-0.100000)">
	<g>
		
			<linearGradient id="SVGID_00000182514629012602860380000006715007194580899209_" gradientUnits="userSpaceOnUse" x1="3122.8406" y1="-197293.2031" x2="3123.051" y2="-197293.5625" gradientTransform="matrix(0.7445 0 0 0.8172 1444.3627 165413.7812)">
			<stop  offset="0" style="stop-color:#FFFFFF;stop-opacity:0.949"/>
			<stop  offset="1" style="stop-color:#FFFFFF;stop-opacity:0.9505"/>
		</linearGradient>
		<path style="fill:url(#SVGID_00000182514629012602860380000006715007194580899209_);" d="M3934.8,4287.8
			c-41.9-16.9-134.7-63.1-160.4-80.4c-40-26.4-54.7-44.1-65.3-78.2c-16.2-49.9-55.1-225.8-51-229.8c5.5-5.9,167.4,19.8,286,44.8
			l73.4,15.8l2.9,43.7c4.4,68.3,0.4,171.4-8.4,206c-7.7,30.1-30.1,81.9-37.8,86.6C3967.5,4300.3,3964.9,4299.9,3934.8,4287.8z"/>
	</g>
</g>
<g transform="translate(0.000000,609.000000) scale(0.100000,-0.100000)">
	<g>
		
			<linearGradient id="SVGID_00000017489829109880333670000016010352131133925273_" gradientUnits="userSpaceOnUse" x1="11308.7676" y1="-202305.8281" x2="11308.3418" y2="-202305.9219" gradientTransform="matrix(0.4876 0 0 0.4634 -3241.4878 98095.3828)">
			<stop  offset="0" style="stop-color:#FFFFFF;stop-opacity:0.3035"/>
			<stop  offset="1" style="stop-color:#FFFFFF;stop-opacity:0.3044"/>
		</linearGradient>
		<path style="fill:url(#SVGID_00000017489829109880333670000016010352131133925273_);" d="M2143.9,4432.4
			c-11-31.2-33.8-77.5-47-94.7c-5.5-7.3-15.8-16.5-23.1-20.2l-13.2-6.6l9.2-4c5.1-2.2,38.2-14.7,73.4-28.3
			c35.2-13.6,77.1-30.1,92.5-37.1c24.2-11,30.8-12.5,44.8-10.6c9.2,1.5,17.6,4,18.7,6.2c1.5,1.8-27.2,52.1-63.1,111.6
			c-57.6,95.5-66.4,108.3-74.5,108.3C2153.5,4457,2151.3,4454.1,2143.9,4432.4z"/>
	</g>
</g>
<g transform="translate(0.000000,609.000000) scale(0.100000,-0.100000)">
	<g>
		
			<linearGradient id="SVGID_00000003078226346606829350000000395210768830401439_" gradientUnits="userSpaceOnUse" x1="-2282.698" y1="-198064.1406" x2="-2282.4043" y2="-198065.125" gradientTransform="matrix(2.4921 0 0 0.6895 8489.4287 140778.8594)">
			<stop  offset="0" style="stop-color:#FFFFFF;stop-opacity:0.8505"/>
			<stop  offset="1" style="stop-color:#FFFFFF;stop-opacity:0.8505"/>
		</linearGradient>
		<path style="fill:url(#SVGID_00000003078226346606829350000000395210768830401439_);" d="M2393.6,4181.7
			c-22.8-14-26.4-25-26.4-82.6c0-153.8,43.3-224.3,145-236.8c87.4-10.3,480.6-13.9,853.6-7.7l141.3,2.2l17.6,10.3
			c41.1,24.2,51.4,54.7,59.1,174.8c6.2,96.2,4.8,106.5-16.9,122.3c-10.7,7.3-16.9,8.1-127.4,10.6c-116.7,3.3-897.3,14.3-986.1,14.3
			C2412.3,4189,2403.9,4187.9,2393.6,4181.7z M2486.5,4030.1c14.7-117.8,15.1-120,7.7-117.8c-31.6,9.9-57.3,33-72.3,65.3
			c-12.8,27.5-18,58.8-18,107.6c0,34.9,0.7,38.2,9.5,48.5c10.3,12.5,26.1,18.7,45.5,17.6l12.9-0.7L2486.5,4030.1z M2619,4147.2
			c0.4,0,3.7-56.2,7.7-124.5l6.6-124.1l-40.4,2.6c-22,1.5-40.8,2.6-41.1,2.9c-0.4,0-5.5,50.7-11.7,112.3s-12.1,117.1-13.2,123
			l-1.8,11.4l46.6-1.5C2597.7,4148.7,2619,4147.5,2619,4147.2z M2757.4,4058c1.5-50.3,2.6-107.2,2.6-127.4v-36.3l-37.4,2.9
			c-20.9,1.5-38.6,3.3-39.3,4c-0.7,0.7-2.6,41.5-4.4,90.3c-1.5,49.2-3.7,104.6-4.8,123.4l-1.5,33.8h41.1h41.5L2757.4,4058z
			 M2840.7,4135.4c7-5.1,25.7-18.4,41.1-29.4c32.7-23.5,29-12.1,39.7-117.1c4-40.4,8.1-77.8,9.2-83.3l1.8-10.3H2876h-56.5l-2.2,23.1
			c-1.1,12.5-2.9,59.8-4,105.4c-1.1,45.5-2.9,92.1-4,104.3l-2.2,21.7l10.3-2.6C2823.1,4145.7,2833.8,4140.6,2840.7,4135.4z
			 M3083,4142c0-1.8-16.5-14.3-36.7-27.5l-36.7-24.6h-33.8h-33.8l-37.8,25c-20.6,13.6-37.8,25.7-37.8,27.5c0,1.5,48.8,2.6,108.3,2.6
			S3083,4143.5,3083,4142z M3140.3,4058c-1.1-46.3-3.3-101.3-4.4-123l-2.6-39.6H3079h-54.7v10.3c0,21.3,18,174.4,20.9,177.3
			c1.5,1.5,18.4,15.1,37.1,30.5c28.6,23.1,36.7,27.9,47.4,27.9h13.2L3140.3,4058z M3276.2,4061.6c-1.1-44.1-3.3-99.5-4.4-123
			l-2.6-43.3h-39.6h-40l1.8,36c1.1,19.5,2.9,74.9,4,123l2.2,87h40.8h40.4L3276.2,4061.6z M3424.5,4133.2
			c0.4-2.6-5.1-57.3-11.7-121.2l-11.7-116.7h-41.9h-41.5l2.2,21.3c1.1,11.4,3.7,53.2,5.5,92.5c2.2,39.3,4.8,84.4,5.9,100.2l2.2,28.3
			h45.5C3412.7,4137.6,3424.5,4136.5,3424.5,4133.2z M3529.8,4128.1c4.8-2.9,9.6-9.5,10.7-15c1.5-5.5,0-42.2-3.3-81.1
			c-6.6-81.1-10.3-91-41.8-110.9c-16.2-10.3-40.8-20.6-43.3-17.6c-0.4,0.4,5.5,52.5,13.2,114.9c7.7,62.8,14.3,114.9,14.3,116
			C3479.6,4138.4,3521.8,4133.2,3529.8,4128.1z"/>
	</g>
</g>
<g transform="translate(0.000000,609.000000) scale(0.100000,-0.100000)">
	<g>
		
			<linearGradient id="SVGID_00000038394388774249463910000001899719367746524298_" gradientUnits="userSpaceOnUse" x1="-3212.5605" y1="-197180.4844" x2="-3212.071" y2="-197180.4844" gradientTransform="matrix(3.405 0 0 0.9812 13074.6289 198272.0156)">
			<stop  offset="0" style="stop-color:#BDE6FE;stop-opacity:0.2095"/>
			<stop  offset="1" style="stop-color:#BDE6FE;stop-opacity:0.2095"/>
		</linearGradient>
		<path style="fill:url(#SVGID_00000038394388774249463910000001899719367746524298_);" d="M2409,5029.4c-49.9-2.9-79.3-7.7-98-15.4
			c-11.4-4.8-16.2-12.5-51.4-81.9c-70.5-139.5-123.7-268.7-123.7-300.7c0-20.9,10.3-41.9,28.3-56.5c29.4-24.2-34.1-22.4,842.6-22.4
			h795.9v19.5c0,28.3-7.7,54-41.8,140.2c-66.8,167.8-116.7,276.5-131.4,286c-41.1,25.3-282.3,35.6-838.2,34.5
			C2605.4,5032.7,2433.6,5031.2,2409,5029.4z M2808.4,5001.1l17.3-2.6l-73.8-135.8c-40.4-74.5-90.3-168.1-110.9-207.4l-37.1-71.2
			l-16.2-4.8c-31.6-9.2-130.3-13.2-260.7-10.6c-69.4,1.1-127,2.9-128.1,4c-3.7,3.7,85.5,236.4,122.3,319.4
			c27.9,62.4,35.6,74.5,54.3,82.6c29.4,12.9,112.7,23.5,210,26.8C2647.6,5003.7,2791.9,5003.3,2808.4,5001.1z"/>
	</g>
</g>
<g transform="translate(0.000000,609.000000) scale(0.100000,-0.100000)">
	<g>
		
			<linearGradient id="SVGID_00000162312263374899412630000013598814365565551802_" gradientUnits="userSpaceOnUse" x1="-667.8557" y1="-207998.8594" x2="-667.3809" y2="-207998.5625" gradientTransform="matrix(1.6034 0 0 0.3023 3590.0725 67163.375)">
			<stop  offset="0" style="stop-color:#FFFFFF;stop-opacity:0.3048"/>
			<stop  offset="1" style="stop-color:#FFFFFF;stop-opacity:0.3051"/>
		</linearGradient>
		<path style="fill:url(#SVGID_00000162312263374899412630000013598814365565551802_);" d="M2400.2,4384c0-4-4.8-11.4-11-16.2
			c-13.2-11.4-13.2-14-2.2-77.8l8.1-47.7l12.5,0.4c7,0.4,59.1,2.6,115.6,4.8c56.5,2.2,223.9,4,371.9,4c147.6,0,268.7,1.1,268.7,2.9
			c0,1.5-10.7,16.9-23.5,34.1l-23.5,31.6l-28.6,2.6c-65.7,5.1-319.4,17.3-431,20.6c-123,3.3-143.9,5.9-194.6,22.4
			c-13.2,4.4-31.9,11.7-41.9,16.5C2398.7,4392.8,2400.2,4392.4,2400.2,4384z"/>
	</g>
</g>
<g transform="translate(0.000000,609.000000) scale(0.100000,-0.100000)">
	<g>
		
			<linearGradient id="SVGID_00000178915992922147488900000001671060707893754524_" gradientUnits="userSpaceOnUse" x1="597.7119" y1="-197744.8281" x2="598.2014" y2="-197744.8281" gradientTransform="matrix(1.2805 0 0 0.8888 1433.526 180546.9688)">
			<stop  offset="0" style="stop-color:#D2E9FE;stop-opacity:0.4684"/>
			<stop  offset="1" style="stop-color:#D2E9FE;stop-opacity:0.4684"/>
		</linearGradient>
		<path style="fill:url(#SVGID_00000178915992922147488900000001671060707893754524_);" d="M2585.6,5001.5
			c-97.3-3.3-180.6-14-210-26.8c-18.7-8.1-26.4-20.2-54.3-82.6c-36.7-83-125.9-315.7-122.3-319.4c1.1-1.1,58.7-2.9,128.1-4
			c130.3-2.6,229.1,1.5,260.7,10.6l16.2,4.8l37.1,71.2c20.6,39.3,70.5,132.9,110.9,207.4l73.8,135.8l-17.3,2.6
			C2791.9,5003.3,2647.6,5003.7,2585.6,5001.5z"/>
	</g>
</g>
<g>
	
		<linearGradient id="SVGID_00000181781000738572477120000015843091572732841139_" gradientUnits="userSpaceOnUse" x1="-648.6807" y1="916.7309" x2="-648.1912" y2="916.7309" gradientTransform="matrix(74.4 0 0 81.3392 48295.4648 -74372.2969)">
		<stop  offset="0" style="stop-color:#F5F5F5"/>
		<stop  offset="1" style="stop-color:#F5F5F5"/>
	</linearGradient>
	<path style="fill:url(#SVGID_00000181781000738572477120000015843091572732841139_);stroke:#000000;stroke-miterlimit:10;" d="
		M37.4,175.5c-0.6,1-1.7,3.4-2.3,5.3l-1.2,3.5l-0.2,11.6l-0.2,11.6l2.7,0.6c9.7,2.2,24.8,4.9,31.2,5.5c1.9,0.2,2.5,0.1,2.5-0.3
		c0-0.7-2.3-12-3.3-15.7c-1.6-6.5-2.7-9.5-4-11c-2.6-3-9.1-6.9-17.9-10.6C38.7,173.4,38.8,173.4,37.4,175.5z"/>
</g>
<g>
	
		<linearGradient id="SVGID_00000134965313210683721430000009602369038642861732_" gradientUnits="userSpaceOnUse" x1="-646.7012" y1="914.4935" x2="-647.2299" y2="914.244" gradientTransform="matrix(77.3311 0 0 129.7427 50575.2695 -118487.4453)">
		<stop  offset="0" style="stop-color:#20292E"/>
		<stop  offset="1" style="stop-color:#28353C"/>
	</linearGradient>
	<path style="fill:url(#SVGID_00000134965313210683721430000009602369038642861732_);" d="M546.1,107.3c0,0.1,0.9,1.6,1.9,3.3
		c2,3,6.5,10.8,9.4,16.2c1.4,2.6,1.5,2.9,0.8,2.9c-2,0-14.8,5.8-19.3,8.9c-4.2,2.8-5.8,4.5-6.9,7.9c-1.5,4.6-5.4,21.7-5.4,23.7
		c0,0.8,1.9,0.9,7.9,0.1c7.5-1,29.2-5.2,29.8-5.8c0.1-0.1,0.2-5,0.2-10.8c0-14.5-0.2-15.5-5.6-25.8c-3.5-6.8-6.3-11.6-9.2-16.1
		C547.8,108.7,546.1,106.7,546.1,107.3z"/>
</g>
<g>
	
		<linearGradient id="SVGID_00000176039917423492592730000013836043517897156242_" gradientUnits="userSpaceOnUse" x1="-636.8476" y1="926.2368" x2="-636.358" y2="926.2368" gradientTransform="matrix(34.725 0 0 28.1383 22610.2871 -25812.2559)">
		<stop  offset="0" style="stop-color:#E7EFE3"/>
		<stop  offset="1" style="stop-color:#E7EFE3"/>
	</linearGradient>
	<path style="fill:url(#SVGID_00000176039917423492592730000013836043517897156242_);stroke:#000000;stroke-miterlimit:10;" d="
		M503.4,244.4l-6.7,0.7l-0.2,1.7c-0.1,0.9-0.3,3.7-0.4,6.1l-0.3,4.4l3.6-0.5c6.5-0.9,9.4-2.1,10.6-4.6c0.5-1.1,2.7-7.8,2.7-8.4
		C512.8,243.4,511.1,243.5,503.4,244.4z"/>
</g>
<g>
	
		<linearGradient id="SVGID_00000104704088378008299610000009346224744332040370_" gradientUnits="userSpaceOnUse" x1="-637.3439" y1="926.0489" x2="-636.8546" y2="926.0489" gradientTransform="matrix(35.0368 0 0 28.2412 22412.7715 -25902.1699)">
		<stop  offset="0" style="stop-color:#E6EEE2"/>
		<stop  offset="1" style="stop-color:#E6EEE2"/>
	</linearGradient>
	<path style="fill:url(#SVGID_00000104704088378008299610000009346224744332040370_);stroke:#000000;stroke-miterlimit:10;" d="
		M82.3,243.7c0,0.1,0.6,2,1.3,4.3c1.5,4.8,2.5,6.4,5.1,7.5c1.8,0.8,10.3,2.3,10.7,1.9c0.1-0.1,0-2.9-0.3-6.1
		c-0.3-4.3-0.6-5.9-0.9-5.9c-0.5,0-12.5-1.4-14.5-1.6C82.9,243.6,82.3,243.6,82.3,243.7z"/>
</g>
<g>
	
		<linearGradient id="SVGID_00000174585484970315437700000005936283898526576265_" gradientUnits="userSpaceOnUse" x1="-648.7369" y1="914.2375" x2="-648.8738" y2="914.6978" gradientTransform="matrix(78 0 0 125.192 50661.0625 -114342.25)">
		<stop  offset="0" style="stop-color:#2A2A2A;stop-opacity:0.9922"/>
		<stop  offset="1" style="stop-color:#2A2A2A"/>
	</linearGradient>
	<path style="fill:url(#SVGID_00000174585484970315437700000005936283898526576265_);" d="M48.1,110.5c-4.4,6.1-12.2,19.7-13.7,24.2
		c-1.5,4.4-1.8,7-1.8,18.2v10.1l1,0.2c16.9,3.6,27.6,5.5,34,6l3.2,0.3l-0.2-1.2c-1.4-7.6-3.6-17.3-5.2-22.5
		c-1.2-3.8-2.8-5.8-6.6-8.4c-4.2-2.8-17.5-9-19.3-9c-0.3,0-0.6-0.1-0.7-0.3c-0.2-0.4,5.1-9.6,8.9-15.4
		C50.5,108.1,50.8,106.7,48.1,110.5z M44.5,130.9c8.7,3.7,15.3,7.7,17.9,10.6c1.3,1.5,2.3,4.5,4,11c0.9,3.7,3.3,15,3.3,15.7
		c0,0.4-0.5,0.4-2.5,0.3c-6.4-0.6-21.5-3.3-31.2-5.5l-2.7-0.6l0.2-11.6l0.1-11.6l1.2-3.5c0.7-1.9,1.7-4.3,2.3-5.3
		C38.3,128.2,38.3,128.2,44.5,130.9z"/>
</g>
<g>
	
		<linearGradient id="SVGID_00000099641167654758623630000002479682290785186972_" gradientUnits="userSpaceOnUse" x1="-647.8026" y1="922.6863" x2="-647.3132" y2="922.6863" gradientTransform="matrix(77.9354 0 0 38.1782 50982.3984 -34955.1367)">
		<stop  offset="0" style="stop-color:#000000;stop-opacity:0.301"/>
		<stop  offset="1" style="stop-color:#000000;stop-opacity:0.301"/>
	</linearGradient>
	<path style="fill:url(#SVGID_00000099641167654758623630000002479682290785186972_);stroke:#000000;stroke-miterlimit:10;" d="
		M513.9,264.1l-18.3,2v7.3c0,6.7,0,7.3,0.7,7.3c0.9,0,17-2.1,21.5-2.8c2-0.3,5.1-0.9,6.9-1.3c2.8-0.7,3.3-0.9,4.5-2.2
		c1.5-1.7,2.5-3.6,3.7-8c1.1-3.9,1.1-4.4,0.1-4.4C532.5,262.1,523.9,263,513.9,264.1z M531.6,263.1c0,0.6-2.2,7.4-2.7,8.4
		c-1.3,2.5-4.1,3.7-10.6,4.6l-3.6,0.5l0.3-4.4c0.1-2.5,0.3-5.2,0.4-6.1l0.2-1.7l6.7-0.7C530,262.7,531.6,262.6,531.6,263.1z"/>
</g>
<g>
	
		<linearGradient id="SVGID_00000089558204113120936240000014702676442826847150_" gradientUnits="userSpaceOnUse" x1="-648.6979" y1="922.5326" x2="-648.2084" y2="922.5326" gradientTransform="matrix(78.2818 0 0 38.325 50842.3438 -35084.3828)">
		<stop  offset="0" style="stop-color:#000000;stop-opacity:0.301"/>
		<stop  offset="1" style="stop-color:#000000;stop-opacity:0.301"/>
	</linearGradient>
	<path style="fill:url(#SVGID_00000089558204113120936240000014702676442826847150_);stroke:#000000;stroke-miterlimit:10;" d="
		M61.5,264.6c1.8,7.6,3.7,10.8,7.3,11.9c2.5,0.7,11,2.1,20.2,3.3c4,0.5,8,1,8.9,1.1l1.5,0.2v-7.3c0-4.1-0.1-7.4-0.2-7.4
		s-8.4-0.9-18.5-2c-10-1.1-18.6-2-19.1-2C61,262.3,61,262.3,61.5,264.6z M72.2,263.8c3.5,0.4,6.6,0.7,6.8,0.7c0.3,0,0.6,1.6,0.9,5.9
		c0.3,3.2,0.4,6,0.3,6.1c-0.4,0.4-8.9-1.1-10.7-1.9c-2.6-1.2-3.6-2.7-5.1-7.5c-0.7-2.3-1.3-4.2-1.3-4.3s0.6-0.1,1.4,0
		C65.2,263,68.7,263.4,72.2,263.8z"/>
</g>
<g>
	
		<linearGradient id="SVGID_00000122712313519058626250000010831366983263374485_" gradientUnits="userSpaceOnUse" x1="-646.6662" y1="916.5581" x2="-646.4557" y2="916.9204" gradientTransform="matrix(74.4514 0 0 81.7194 48683.75 -74715.625)">
		<stop  offset="0" style="stop-color:#FFFFFF;stop-opacity:0.949"/>
		<stop  offset="1" style="stop-color:#FFFFFF;stop-opacity:0.9505"/>
	</linearGradient>
	<path style="fill:url(#SVGID_00000122712313519058626250000010831366983263374485_);stroke:#000000;stroke-miterlimit:10;" d="
		M555.1,174.9c-4.2,1.7-13.5,6.3-16,8c-4,2.6-5.5,4.4-6.5,7.8c-1.6,5-5.5,22.6-5.1,23c0.5,0.6,16.7-2,28.6-4.5l7.3-1.6l0.3-4.4
		c0.4-6.8,0-17.1-0.8-20.6c-0.8-3-3-8.2-3.8-8.7C558.3,173.7,558.1,173.7,555.1,174.9z"/>
</g>
<g>
	
		<linearGradient id="SVGID_00000063603572416130524870000010587494788573622955_" gradientUnits="userSpaceOnUse" x1="221.1898" y1="967.0687" x2="362.7566" y2="967.0687" gradientTransform="matrix(0.7431 0.6692 0.6692 -0.7431 -566.3818 565.6748)">
		<stop  offset="0" style="stop-color:#BDE6FE;stop-opacity:0.2095"/>
		<stop  offset="1" style="stop-color:#BDE6FE;stop-opacity:0.2095"/>
	</linearGradient>
	<path style="fill:url(#SVGID_00000063603572416130524870000010587494788573622955_);stroke:#000000;stroke-miterlimit:10;" d="
		M240,10.5c-5,0.3-7.9,0.8-9.8,1.6c-1.1,0.5-1.6,1.3-5.1,8.2c-7,14-12.2,26.9-12.2,30.1c0,2.1,1.1,4.2,2.9,5.6
		c3,2.4-3.4,2.3,84.3,1.7l79.6-0.5l0-1.9c0-2.8-0.8-5.4-4.3-14c-6.8-16.7-11.8-27.6-13.3-28.5c-4.1-2.5-28.3-3.4-83.8-2.9
		C259.6,10,242.4,10.3,240,10.5z M279.9,13.1l1.7,0.2l-7.3,13.6c-4,7.5-8.9,16.9-11,20.8l-3.7,7.1l-1.6,0.5
		c-3.2,0.9-13,1.4-26.1,1.2c-6.9-0.1-12.7-0.2-12.8-0.3c-0.4-0.4,8.4-23.7,12-32c2.8-6.3,3.5-7.5,5.4-8.3c2.9-1.3,11.3-2.4,21-2.8
		C263.8,12.9,278.3,12.8,279.9,13.1z"/>
</g>
<g>
	
		<linearGradient id="SVGID_00000053507136616571234650000016467347517975151514_" gradientUnits="userSpaceOnUse" x1="-651.8688" y1="915.9835" x2="-651.3794" y2="915.9835" gradientTransform="matrix(128.0475 0 0 88.8827 83625.2188 -81381.7109)">
		<stop  offset="0" style="stop-color:#D2E9FE;stop-opacity:0.4684"/>
		<stop  offset="1" style="stop-color:#D2E9FE;stop-opacity:0.4684"/>
	</linearGradient>
	<path style="fill:url(#SVGID_00000053507136616571234650000016467347517975151514_);stroke:#000000;stroke-miterlimit:10;" d="
		M193.7,11.8c-9.7,0.3-18.1,1.4-21,2.7c-1.9,0.8-2.6,2-5.4,8.3c-3.7,8.3-12.6,31.6-12.2,31.9c0.1,0.1,5.9,0.3,12.8,0.4
		c13,0.3,22.9-0.1,26.1-1.1l1.6-0.5l3.7-7.1c2.1-3.9,7.1-13.3,11.1-20.7l7.4-13.6l-1.7-0.3C214.3,11.6,199.9,11.5,193.7,11.8z"/>
</g>
<line class="st46" x1="185.2" y1="58.1" x2="244.5" y2="123.5"/>
<line class="st46" x1="66.8" y1="153.9" x2="200.1" y2="170.7"/>
<line class="st46" x1="70.7" y1="205.8" x2="204.3" y2="204.3"/>
<line class="st46" x1="103.1" y1="245.5" x2="198" y2="245.6"/>
<line class="st46" x1="103.1" y1="274.8" x2="213.4" y2="254.6"/>
<line class="st46" x1="311.3" y1="61.9" x2="312.4" y2="133.5"/>
<line class="st46" x1="490.6" y1="249.9" x2="400.1" y2="241.9"/>
<line class="st46" x1="489.8" y1="274.8" x2="381" y2="247.6"/>
<line class="st46" x1="525.4" y1="164.6" x2="392.6" y2="168.6"/>
<line class="st46" x1="525.4" y1="203.8" x2="402.4" y2="213.4"/>
<rect x="144" y="4.5" class="st47" width="248.7" height="67.6"/>
<rect x="52.2" y="234.8" class="st47" width="59.2" height="63"/>
<rect x="483.2" y="233.2" class="st47" width="59.2" height="63"/>
</svg>
