<?xml version="1.0" encoding="utf-8"?>
<!-- Generator: Adobe Illustrator 26.5.0, SVG Export Plug-In . SVG Version: 6.00 Build 0)  -->
<svg version="1.1" id="图层_1" xmlns="http://www.w3.org/2000/svg" xmlns:xlink="http://www.w3.org/1999/xlink" x="0px" y="0px"
	 viewBox="0 0 1412.7 624" style="enable-background:new 0 0 1412.7 624;" xml:space="preserve">
<style type="text/css">
	.st0{fill:none;}
	.st1{fill:#D3D3D3;}
	.st2{fill:url(#SVGID_00000075875199018563346290000012557970048367908527_);}
	.st3{fill:url(#region-1-1_00000124155040060107384910000001046347409225682603_);}
	.st4{fill:url(#region-2-1_00000059269853406568283570000015325571076658586005_);}
	.st5{fill:url(#region-2-2_00000028293136300098217250000004165752720066939010_);}
	.st6{fill:url(#region-2-3_00000039128027290385948240000000775201090752070333_);}
	.st7{fill:url(#region-2-4_00000052066528474434711470000002684994653914127291_);}
	.st8{fill:url(#region-2-5_00000121258479897337410860000002365877058462969494_);}
	.st9{fill:url(#region-2-6_00000082343627011704942400000014794548628582987148_);}
	.st10{fill:url(#region-2-5_00000073710794650323177570000016299122345695564972_);}
	.st11{fill:url(#region-3-1_00000183961717988679738290000016366121288305285252_);}
	.st12{fill:url(#region-3-2_00000005247326455326191100000007207287226746176696_);}
	.st13{fill:url(#region-3-3_00000109713368518113053940000004395235721479586230_);}
	.st14{fill:url(#region-3-4_00000009563162257668354460000015031527333505568955_);}
	.st15{fill:url(#region-3-5_00000047030274584192178140000013401223601982091145_);}
	.st16{fill:url(#region-3-6_00000088854619853996313070000004214140013253171872_);}
	.st17{fill:url(#region-4-1_00000150781692569580869880000003114013739332777873_);}
	.st18{fill:url(#region-4-2_00000163761333215579838810000011713016927610311609_);}
	.st19{fill:url(#region-4-3_00000061451170419362510220000015156629473992239242_);}
	.st20{fill:url(#region-4-4_00000004513054378951765750000011612275998808233858_);}
	.st21{fill:url(#region-5-1_00000002375256335315944820000016166707836899883160_);}
	.st22{fill:url(#region-5-2_00000095338739659674124420000001603931566355500970_);}
	.st23{fill:url(#region-5-3_00000122717136286502457270000003603182131602756006_);}
	.st24{fill:url(#region-5-4_00000153703635876146328430000003411144703244268174_);}
	.st25{fill:url(#region-5-5_00000173135100923513683720000004966337074172920253_);}
	.st26{fill:url(#region-6-1_00000141428324390156208580000010096915845333186971_);}
	.st27{fill:url(#region-6-2_00000059270475033526422720000011586724588923943087_);}
	.st28{fill:url(#region-6-3_00000016045845041490824710000004122218256682380193_);}
	.st29{fill:url(#region-6-4_00000137814561370988107020000011944767179223570619_);}
	.st30{fill:url(#region-6-5_00000174568220670556825560000007293574891538741656_);}
	.st31{fill:url(#region-6-6_00000160182678102822269020000009168550524790725286_);}
	.st32{fill:url(#region-6-7_00000033334602750532573430000018170579976248835494_);}
	.st33{fill:url(#region-7-1_00000085969684375100070150000009911311802533861295_);}
	.st34{fill:url(#region-7-2_00000175281402553897099580000018362754474463021230_);}
	.st35{fill:url(#region-7-3_00000157283080891449897440000016972171544785486263_);}
	.st36{fill:url(#region-2-4-2_00000109718051757819472880000011493553080249633172_);stroke:#000000;stroke-miterlimit:10;}
	.st37{fill:url(#region-3-1-2_00000147216689843270279340000013214811453775554218_);stroke:#000000;stroke-miterlimit:10;}
	.st38{fill:url(#region-3-2-2_00000142156252050566986560000001373527118196957621_);stroke:#000000;stroke-miterlimit:10;}
	.st39{fill:url(#region-3-4-2_00000044174947614583878550000002577604432978754944_);stroke:#000000;stroke-miterlimit:10;}
	.st40{fill:url(#region-3-5-2_00000134930681175520155650000011284408881895017351_);stroke:#000000;stroke-miterlimit:10;}
	.st41{fill:url(#region-4-4-2_00000088816240291225625460000016646876973093007803_);}
	.st42{fill:none;stroke:#0600FF;stroke-width:4;stroke-miterlimit:10;}
	.st43{fill:none;stroke:#000000;stroke-width:3;stroke-miterlimit:10;}
</style>
<pattern  y="624" width="40" height="40" patternUnits="userSpaceOnUse" id="SVGID_1_" viewBox="0 -40 40 40" style="overflow:visible;">
	<g>
		<rect y="-40" class="st0" width="40" height="40"/>
		<g>
			<rect y="-40" class="st0" width="40" height="40"/>
			<g>
				<rect y="-40" class="st0" width="40" height="40"/>
				<g>
					<rect y="-40" class="st0" width="40" height="40"/>
					<rect y="-40" class="st0" width="40" height="40"/>
					<rect y="-20" class="st1" width="20" height="20"/>
					<rect x="20" y="-40" class="st1" width="20" height="20"/>
				</g>
			</g>
		</g>
	</g>
</pattern>
<g id="_图层_2">
	<g id="_图层_1">
		
			<pattern  id="SVGID_00000099620485663969788280000013943629522863571371_" xlink:href="#SVGID_1_" patternTransform="matrix(1 0 0 -1 189 -33161.2422)">
		</pattern>
		<rect style="fill:url(#SVGID_00000099620485663969788280000013943629522863571371_);" width="1412.7" height="624"/>
	</g>
</g>
<g id="layer-1">
	
		<linearGradient id="region-1-1_00000058572169456816316020000011677040298362311062_" gradientUnits="userSpaceOnUse" x1="-1200.3402" y1="852.9984" x2="-1200.0302" y2="854.1783" gradientTransform="matrix(524.98 0 0 622 630345.4375 -530624)">
		<stop  offset="0" style="stop-color:#8769F9;stop-opacity:0.99"/>
		<stop  offset="1" style="stop-color:#684FDF;stop-opacity:0.99"/>
	</linearGradient>
	<path id="region-1-1" style="fill:url(#region-1-1_00000058572169456816316020000011677040298362311062_);" d="M120,24.1
		C66.4,36.6,17.4,48.1,11.2,49.6L0,52.2v5.7C0,61,6.1,137.1,13.5,227c7.5,89.9,14.2,175.2,15,189.5C31.3,468,35,560.2,35,581v11.5
		l99.3,15.3l99.2,15.3h131.1l131-0.1l3.2-21.3c12.2-80.2,20.9-169.2,25.2-257.2c1.3-27.3,1.3-171.5,0-196c-2-37.2-7.5-98.1-8.9-99.7
		c-1-1.2-286.9-47.8-292.5-47.7C219.7,1.1,175.5,11,120,24.1L120,24.1z"/>
</g>
<linearGradient id="region-2-1_00000170967287562337836380000016630792980223495076_" gradientUnits="userSpaceOnUse" x1="-1197.5157" y1="853.1094" x2="-1197.5157" y2="854.1094" gradientTransform="matrix(241.53 0 0 614.01 289360.2188 -523805.7812)">
	<stop  offset="0" style="stop-color:#AA0065;stop-opacity:0.81"/>
	<stop  offset="1" style="stop-color:#400C8A;stop-opacity:0.77"/>
</linearGradient>
<path id="region-2-1" style="fill:url(#region-2-1_00000170967287562337836380000016630792980223495076_);" d="M111.7,32.9
	C52.5,46,3.7,56.9,3.5,57.2c-0.3,0.3,1.9,30.2,5,66.4C19.7,257.7,26.8,355.9,27.6,386c0.2,10.7,1.1,32.8,1.9,49
	c2.9,58.2,5.5,127.7,5.5,145.9v11.6l99.3,15.3c54.5,8.4,101.1,15.3,103.4,15.3c4-0.1,4.2-0.3,4.7-3.4c1-6.1,2.6-117.2,2.6-178.2
	c0-97.6-3.7-212.5-9.5-298.5c-1.4-20.3-11.9-126.3-13.1-131.8c-0.2-1.2-1-2.2-1.7-2.1C220.1,9.1,171,19.9,111.7,32.9L111.7,32.9z"/>
<linearGradient id="region-2-2_00000111155969978671034290000012262708645936352957_" gradientUnits="userSpaceOnUse" x1="-1153.3396" y1="853.9904" x2="-1146.6295" y2="854.2006" gradientTransform="matrix(24.2 0 0 439.91 28131.9297 -375473.1562)">
	<stop  offset="0" style="stop-color:#AD97FF;stop-opacity:0.8"/>
	<stop  offset="1" style="stop-color:#B29BFF;stop-opacity:0.8"/>
</linearGradient>
<path id="region-2-2" style="fill:url(#region-2-2_00000111155969978671034290000012262708645936352957_);" d="M222.6,12.1
	c1.9,13.1,10.8,103.4,12.4,125.4c4.1,57.8,7.4,135.1,9,215c1.8,86.1,2.7,86.2,2.6,0.5l-0.2-126.5l-5.2-49c-2.9-27-6.8-65.7-8.7-86.2
	c-4-43.2-8.4-80.4-9.6-81.7C222.4,9.1,222.3,10.2,222.6,12.1z"/>
<linearGradient id="region-2-3_00000021814132653910949370000009414222049975397248_" gradientUnits="userSpaceOnUse" x1="-1197.7859" y1="853.6965" x2="-1197.6357" y2="854.7664" gradientTransform="matrix(249.97 0 0 389.2 299763.9062 -332229.1875)">
	<stop  offset="0" style="stop-color:#DC9249;stop-opacity:0.97"/>
	<stop  offset="1" style="stop-color:#309DF5;stop-opacity:0.82"/>
</linearGradient>
<path id="region-2-3" style="fill:url(#region-2-3_00000021814132653910949370000009414222049975397248_);" d="M354.5,51.5
	c-53.8,9.9-91.8,63.4-101,142.1c-1.7,14.9-2,47.6-0.5,63.9c5.8,62.9,26.3,113.6,59.5,147.1c15.7,15.8,32.4,26.3,51.2,32.1
	c8.1,2.5,10.1,2.7,26.3,2.7s18-0.1,26-2.8c30.8-10.2,55.9-33.6,74.4-69.6c5.9-11.6,11.7-26.4,11.6-30c-0.1-0.8-1.6,2.1-3.4,6.5
	c-18.1,43.9-45.8,72.2-78.4,80.2c-10.5,2.6-27.4,2.1-39.3-1c-12.8-3.3-19.5-6.1-30.9-12.9c-16.7-9.8-26.3-20.3-42.5-46.3
	c-18-28.8-28.7-59.6-34.7-99.8c-2.8-18.8-3.1-63.1-0.5-80c4.2-27.1,9.9-46.3,20.1-67.2c17.9-36.6,45.5-60.3,76.3-65.5l4.8-0.8h-6
	C364.2,50.2,358.4,50.8,354.5,51.5L354.5,51.5z"/>
<linearGradient id="region-2-4_00000111172926335613769390000017763593403357748620_" gradientUnits="userSpaceOnUse" x1="-1198.1747" y1="854.6772" x2="-1196.9447" y2="853.9072" gradientTransform="matrix(244.81 0 0 375.28 293576.9062 -320371.0938)">
	<stop  offset="0" style="stop-color:#0E0600;stop-opacity:0.2"/>
	<stop  offset="1" style="stop-color:#CCBCA4;stop-opacity:0.94"/>
</linearGradient>
<path id="region-2-4" style="fill:url(#region-2-4_00000111172926335613769390000017763593403357748620_);" d="M368.7,51
	c-17.4,3-35,12.5-49.4,26.9c-19.7,19.7-35.3,50.1-42.7,83.4c-5.2,22.8-6,31.2-6,60.7c0.1,22.9,0.4,29.9,2.2,41.7
	c6,40.2,16.7,71,34.7,99.8c16.2,26,25.8,36.5,42.5,46.3c11.4,6.8,18.1,9.6,30.9,12.9c11.9,3.1,28.8,3.6,39.3,1
	c46.9-11.5,83.4-65.7,93.5-138.7c2.3-17.1,2.3-53.7-0.1-71c-4.6-33.7-12.5-60.6-25.5-86.5c-8.4-16.5-15.8-27.5-26.8-39.7
	c-17.9-19.8-36.9-31.4-58.6-35.9C393.1,49.9,377.6,49.5,368.7,51L368.7,51z"/>
<linearGradient id="region-2-5_00000167389225974337866500000012394490737319308183_" gradientUnits="userSpaceOnUse" x1="-1189.5896" y1="857.4556" x2="-1189.5896" y2="858.4556" gradientTransform="matrix(93.3 0 0 124.88 111371.375 -106616.9062)">
	<stop  offset="0" style="stop-color:#310047;stop-opacity:0.82"/>
	<stop  offset="1" style="stop-color:#5C2C7B;stop-opacity:0.77"/>
</linearGradient>
<path id="region-2-5" style="fill:url(#region-2-5_00000167389225974337866500000012394490737319308183_);" d="M368.8,464.9
	c-11.1,4.4-19.6,12.8-25.3,24.6c-9.6,19.9-10,49.5-1,66.2c8.2,15.3,17.3,23.9,30.7,29.2c11.2,4.5,16.6,4.3,24.9-1
	c14.4-9.3,24.7-23.4,29-39.6c2.7-10.2,3-28.6,0.5-38.8c-4.2-17.5-15.3-32.9-28.1-39c-5.1-2.5-7.4-2.9-16-3.2
	C375.5,463,372.6,463.4,368.8,464.9L368.8,464.9z"/>
<linearGradient id="region-2-6_00000111170055115373687110000003874715360193797793_" gradientUnits="userSpaceOnUse" x1="-1197.8304" y1="878.4242" x2="-1197.7605" y2="881.9142" gradientTransform="matrix(257.13 0 0 25.76 308365.25 -22033.6699)">
	<stop  offset="0" style="stop-color:#541880;stop-opacity:0.64"/>
	<stop  offset="1" style="stop-color:#581E89;stop-opacity:0.68"/>
</linearGradient>
<path id="region-2-6" style="fill:url(#region-2-6_00000111170055115373687110000003874715360193797793_);" d="M493.7,598.5
	c-6.1,2.3-25.6,6.4-42.5,9c-30.4,4.7-44.7,5.6-107.7,6.5c-66.8,1-97.7,1.9-99.3,2.9c-0.6,0.3-1.4,1.9-1.7,3.4l-0.7,2.7h253.8
	l1.7-11.3C499.8,595.3,500,596.2,493.7,598.5L493.7,598.5z"/>
<linearGradient id="region-2-5_00000075863606532380012020000007044463949794287028_" gradientUnits="userSpaceOnUse" x1="-1184.3195" y1="857.735" x2="-1184.3195" y2="858.735" gradientTransform="matrix(93.3 0 0 124.88 111371.375 -106616.9062)">
	<stop  offset="0" style="stop-color:#310047;stop-opacity:0.82"/>
	<stop  offset="1" style="stop-color:#5C2C7B;stop-opacity:0.77"/>
</linearGradient>
<path id="region-2-5_00000010310242309763449630000002843427611875691444_" style="fill:url(#region-2-5_00000075863606532380012020000007044463949794287028_);" d="
	M860.5,499.8c-11.1,4.4-19.6,12.8-25.3,24.6c-9.6,19.9-10,49.5-1,66.2c8.2,15.3,17.3,23.9,30.7,29.2c11.2,4.5,16.6,4.3,24.9-1
	c14.4-9.3,24.7-23.4,29-39.6c2.7-10.2,3-28.6,0.5-38.8c-4.2-17.5-15.3-32.9-28.1-39c-5.1-2.5-7.4-2.9-16-3.2
	C867.2,497.9,864.3,498.3,860.5,499.8L860.5,499.8z"/>
<g id="layer-3">
	
		<linearGradient id="region-3-1_00000093136317009826578100000001481354912247667335_" gradientUnits="userSpaceOnUse" x1="-1197.3867" y1="856.437" x2="-1196.3268" y2="855.557" gradientTransform="matrix(214.25 0 0 198.49 256843.7188 -169740.7969)">
		<stop  offset="0" style="stop-color:#8B899B;stop-opacity:0.24"/>
		<stop  offset="1" style="stop-color:#FFFFFF;stop-opacity:0.76"/>
	</linearGradient>
	<path id="region-3-1" style="fill:url(#region-3-1_00000093136317009826578100000001481354912247667335_);" d="M373,52.7
		c-27.1,3.1-48.3,21.3-61.6,52.7c-7.4,17.5-11.8,39.2-10,49c0.6,3.3,1,3.7,3.3,3.4c2.1-0.2,3.8-2.3,9-10.8
		c9.2-15,16.3-24.2,26.7-34.5c10.5-10.5,20.8-17.2,32.1-21.1c10.9-3.7,24.5-3.9,35.5-0.5c15,4.6,26.4,11.5,38.3,23
		c23.2,22.4,41,56.9,60.2,116.5c4.3,13.5,7,20.6,7.8,20.3c1.6-0.5,1.1-21.4-0.9-37.2c-4-32-12.3-60.1-25.3-86
		c-12.4-24.5-25-40.2-43-53.4C423.5,58.2,396.1,50.1,373,52.7L373,52.7z"/>
	
		<linearGradient id="region-3-2_00000031889820775378715940000003806456022036941719_" gradientUnits="userSpaceOnUse" x1="-1196.276" y1="854.2839" x2="-1196.006" y2="855.3939" gradientTransform="matrix(188.51 0 0 287.08 225883.375 -245182.6562)">
		<stop  offset="0" style="stop-color:#55496F;stop-opacity:0.77"/>
		<stop  offset="1" style="stop-color:#CECEF4;stop-opacity:0.83"/>
	</linearGradient>
	<path id="region-3-2" style="fill:url(#region-3-2_00000031889820775378715940000003806456022036941719_);" d="M380.3,95
		c-20,4.2-39.8,20.2-52.2,42.1c-1.7,3.1-3.1,6.2-3.1,7s-1.1,3-2.4,5c-1.3,1.9-3.7,7.3-5.4,12c-14,39.9-13.7,99.8,0.8,139.9
		c6.7,18.4,7.8,21,12.5,28.5c14,22.5,27.9,35,47.1,42.5c3.2,1.2,9.2,3.9,13.3,5.9c7.1,3.5,7.6,3.6,18.5,3.5
		c18.5-0.2,30.6-5.6,45.7-20.4c16-15.7,27.6-37.3,34.3-63.5c10.3-40.7,7.2-90.1-7.9-128.5c-1.9-4.8-3.5-9.3-3.5-10
		c0-1.8-10.5-19.4-16.2-27.2c-6.9-9.4-20.6-22.1-29.7-27.4c-11.9-7-21.3-9.6-35.6-10C389.9,94.2,382.6,94.5,380.3,95L380.3,95z"/>
	
		<linearGradient id="region-3-3_00000017478471761620044250000015294317195458923446_" gradientUnits="userSpaceOnUse" x1="-1192.6584" y1="854.3549" x2="-1190.8983" y2="854.9649" gradientTransform="matrix(115.2 0 0 326 137447.2969 -278321)">
		<stop  offset="0" style="stop-color:#000006;stop-opacity:0.76"/>
		<stop  offset="1" style="stop-color:#330662;stop-opacity:0.81"/>
	</linearGradient>
	<path id="region-3-3" style="fill:url(#region-3-3_00000017478471761620044250000015294317195458923446_);" d="M112.5,119.7
		c-27.5,4.2-50.2,7.7-50.4,7.9c-0.1,0.1,3.1,27.6,7.3,61.1C83.9,304.3,94,404.5,94,431.6v6.4h83.3l-0.6-70.3
		c-0.8-86.2-2.8-148.8-6.3-200.2c-0.8-12.1-1.8-29.5-2.1-38.8l-0.6-16.7l-2.6,0.1C163.7,112.2,140,115.6,112.5,119.7L112.5,119.7z"
		/>
	
		<linearGradient id="region-3-4_00000180344162995717557680000003405818966766051240_" gradientUnits="userSpaceOnUse" x1="-1193.4417" y1="855.9526" x2="-1193.4417" y2="856.9526" gradientTransform="matrix(132.51 0 0 172.45 158499.3594 -147356.4688)">
		<stop  offset="0" style="stop-color:#B0A08E;stop-opacity:0.31"/>
		<stop  offset="1" style="stop-color:#A398D5;stop-opacity:0.52"/>
	</linearGradient>
	<path id="region-3-4" style="fill:url(#region-3-4_00000180344162995717557680000003405818966766051240_);" d="M292.2,252.3
		c-5.9,7,1.7,63.1,13.4,98.6c5.7,17.4,11.3,27,22.8,38.9c21.8,22.6,37,29.9,68.9,33.2c8.8,0.9,10.4,0.8,14-0.8
		c5.2-2.3,10.4-8.1,11.2-12.5c0.9-4.7-1.9-11.1-6.8-15.2c-2.2-1.9-14.5-8.7-27.1-15c-12.7-6.2-24.8-12.4-26.8-13.7
		c-5.5-3.4-21.3-21-28.1-31.3c-9.8-14.9-16.6-29.6-25.4-54.8c-5.7-16.4-8.8-23.5-11.5-26.4C294.3,250.7,293.6,250.5,292.2,252.3
		L292.2,252.3z"/>
	
		<linearGradient id="region-3-5_00000081636874162247556880000012545932360357623718_" gradientUnits="userSpaceOnUse" x1="-1186.8757" y1="858.7191" x2="-1186.8757" y2="859.7191" gradientTransform="matrix(77.01 0 0 101.36 91776.7969 -86566.6719)">
		<stop  offset="0" style="stop-color:#A5B884;stop-opacity:0.84"/>
		<stop  offset="1" style="stop-color:#92A8AE;stop-opacity:0.81"/>
	</linearGradient>
	<path id="region-3-5" style="fill:url(#region-3-5_00000081636874162247556880000012545932360357623718_);" d="M366,475.9
		c-9.3,3-18.8,11.7-23.3,21.3c-7.9,16.8-7.6,41.3,0.9,58c3.5,7,12.1,15.3,19.2,18.6c8.2,3.8,18.4,3.8,26.3-0.1
		c15.1-7.4,24.9-26.1,24.9-47.7c-0.1-29.2-15.6-50-38-50.7C371.9,475.2,367.4,475.4,366,475.9L366,475.9z"/>
	
		<linearGradient id="region-3-6_00000180324790120453036610000005694926682933200293_" gradientUnits="userSpaceOnUse" x1="-1196.7312" y1="873.9919" x2="-1196.3112" y2="878.352" gradientTransform="matrix(207.11 0 0 30.9 247984.7812 -26415.9609)">
		<stop  offset="0" style="stop-color:#310950;stop-opacity:0.49"/>
		<stop  offset="1" style="stop-color:#310B5D;stop-opacity:0.57"/>
	</linearGradient>
	<path id="region-3-6" style="fill:url(#region-3-6_00000180324790120453036610000005694926682933200293_);" d="M36,592.6
		c6.6,1.6,197.1,30.4,200.9,30.4c4.4,0,4.9-0.2,5.5-2.6c0.4-1.5,0.5-2.9,0.2-3.1c-0.7-0.7-201.4-25.3-205.1-25.2
		C35.9,592.2,35.2,592.4,36,592.6L36,592.6z"/>
</g>
<g id="layer-4">
	
		<linearGradient id="region-4-1_00000056398254249803539380000015861229555474779028_" gradientUnits="userSpaceOnUse" x1="-1153.698" y1="877.3165" x2="-1152.7981" y2="878.4165" gradientTransform="matrix(24.41 0 0 26.85 28599.0605 -23479.1406)">
		<stop  offset="0" style="stop-color:#FFFFFF;stop-opacity:0.82"/>
		<stop  offset="1" style="stop-color:#FFFFFF;stop-opacity:0.82"/>
	</linearGradient>
	<path id="region-4-1" style="fill:url(#region-4-1_00000056398254249803539380000015861229555474779028_);" d="M438,81.5
		c-2.9,3.5,3.5,16.8,10.5,21.7c14,9.7,18.3-2.4,5.8-16.3C448.4,80.4,441,77.9,438,81.5z"/>
	
		<linearGradient id="region-4-2_00000023960694948036114700000014067793154556909199_" gradientUnits="userSpaceOnUse" x1="-1195.5051" y1="854.6094" x2="-1195.4651" y2="855.6294" gradientTransform="matrix(170.93 0 0 259.61 204736.8438 -221753.8594)">
		<stop  offset="0" style="stop-color:#CBCD4B;stop-opacity:0.9"/>
		<stop  offset="1" style="stop-color:#5E63B8;stop-opacity:0.7"/>
	</linearGradient>
	<path id="region-4-2" style="fill:url(#region-4-2_00000023960694948036114700000014067793154556909199_);" d="M370.5,116.5
		c-35.9,9.9-60.9,53.5-63.2,110.5c-1.3,32.3,4.6,62.4,18.4,94c2.9,6.7,14.1,22.8,20.8,29.9c8.2,8.7,13.5,12.6,24,17.9
		c12.2,6.1,14.8,6.6,33,5.3c15.1-1.1,15.9-1.2,22.5-4.7c20.7-10.8,38.8-37.9,46.9-70.2c5.2-20.2,6.6-49.6,3.6-72.5
		c-7.5-57-36.8-100.4-74.3-110.2C394.8,114.6,377.5,114.6,370.5,116.5L370.5,116.5z"/>
	
		<linearGradient id="region-4-3_00000153673077024216947240000004634086483555176361_" gradientUnits="userSpaceOnUse" x1="-1189.7405" y1="854.227" x2="-1189.7405" y2="855.227" gradientTransform="matrix(94.39 0 0 305.32 112428.2734 -260686.9219)">
		<stop  offset="0" style="stop-color:#340D46;stop-opacity:0.79"/>
		<stop  offset="1" style="stop-color:#390763;stop-opacity:0.8"/>
	</linearGradient>
	<path id="region-4-3" style="fill:url(#region-4-3_00000153673077024216947240000004634086483555176361_);" d="M122.8,134.4
		c-22.4,3.4-41,6.5-41.3,6.7c-0.2,0.3,1.1,14.2,3,31c1.8,16.7,3.8,34.4,4.3,39.4c0.5,4.9,2.1,19.6,3.6,32.5
		c5.6,50,12.7,135.1,14.2,171.1l0.7,15.7l7.6,1.3c4.2,0.8,13.9,1.4,21.6,1.3c11.7,0,16-0.5,26-2.8c6.6-1.5,12.4-3.1,12.9-3.4
		c1.1-0.6,0.1-114.2-1.4-158.2c-1.4-42.5-2.9-75.3-4.5-101c-2.6-40.2-2.6-40-4.4-39.9C164.2,128.2,145.2,131,122.8,134.4
		L122.8,134.4z"/>
	
		<linearGradient id="region-4-4_00000026145277989442295450000014027709865930533307_" gradientUnits="userSpaceOnUse" x1="-1181.2163" y1="860.9458" x2="-1181.2163" y2="861.9458" gradientTransform="matrix(56.54 0 0 76.1 67161.7422 -65028.0898)">
		<stop  offset="0" style="stop-color:#0A0021;stop-opacity:0.84"/>
		<stop  offset="1" style="stop-color:#14003F;stop-opacity:0.84"/>
	</linearGradient>
	<path id="region-4-4" style="fill:url(#region-4-4_00000026145277989442295450000014027709865930533307_);" d="M365.4,489.9
		c-5.9,2.7-11.2,8.4-14.8,16c-3,6.3-3.1,7.2-3.1,19.1c0,10.7,0.4,13.3,2.3,18.2c4.6,11.4,16.2,20.8,25.9,20.8
		c22.6,0,36.2-34.7,23.4-59.7C392.2,490.6,377.6,484.4,365.4,489.9L365.4,489.9z"/>
</g>
<g id="layer-5">
	
		<linearGradient id="region-5-1_00000155833181507669855180000016200236968057584551_" gradientUnits="userSpaceOnUse" x1="-1194.7267" y1="854.8876" x2="-1194.7267" y2="855.8876" gradientTransform="matrix(154.4 0 0 235.54 184853.4688 -201232.7969)">
		<stop  offset="0" style="stop-color:#230042;stop-opacity:0.85"/>
		<stop  offset="1" style="stop-color:#00082B;stop-opacity:0.77"/>
	</linearGradient>
	<path id="region-5-1" style="fill:url(#region-5-1_00000155833181507669855180000016200236968057584551_);" d="M368.8,129.5
		C331.3,139,306.5,190,311,248.6c2.4,31.9,9.8,56,23.6,77.1C364,370.9,410,376.8,439.3,339c23.5-30.5,31.5-78.4,21.1-126
		c-6-27-17.6-49.6-33.3-65c-8.6-8.4-17.5-14.1-27.1-17.1C391.6,128.2,376.6,127.5,368.8,129.5z"/>
	
		<linearGradient id="region-5-2_00000064316493979216084010000003283022300258532781_" gradientUnits="userSpaceOnUse" x1="-1187.54" y1="859.3895" x2="-1187.15" y2="860.6094" gradientTransform="matrix(79.22 0 0 90.97 94190.5469 -78029.3828)">
		<stop  offset="0" style="stop-color:#2D005C;stop-opacity:0.68"/>
		<stop  offset="1" style="stop-color:#2E0042;stop-opacity:0.81"/>
	</linearGradient>
	<path id="region-5-2" style="fill:url(#region-5-2_00000064316493979216084010000003283022300258532781_);" d="M117.5,162.5
		c-0.5,0.2-2.6,0.6-4.6,0.9c-8.7,1.5-17.4,10.9-21.2,23.1c-2.7,8.8-2.9,26.5-0.4,36.8c3.3,13.2,9.8,23.1,17.9,27.1
		c4.6,2.3,6.4,2.6,16.2,2.6c6.1,0,14.1-0.3,17.8-0.6l6.7-0.7l4.1-5.8c5.9-8.4,11.8-21.3,13.6-29.9c2.1-9.9,1.3-25-1.9-33.5
		c-3.7-9.9-10.1-18.4-13.9-18.5c-1,0-1.8-0.5-1.8-1C150,162.1,120.1,161.6,117.5,162.5L117.5,162.5z"/>
	
		<linearGradient id="region-5-3_00000029033677769908222350000001397914284524324010_" gradientUnits="userSpaceOnUse" x1="-1164.4521" y1="867.3708" x2="-1164.0121" y2="868.5308" gradientTransform="matrix(31.4 0 0 44 36679.3008 -37884.2695)">
		<stop  offset="0" style="stop-color:#28054D;stop-opacity:0.76"/>
		<stop  offset="1" style="stop-color:#2F004D;stop-opacity:0.81"/>
	</linearGradient>
	<path id="region-5-3" style="fill:url(#region-5-3_00000029033677769908222350000001397914284524324010_);" d="M115,289.2
		c-5.3,3.6-7.5,8.9-7.5,18.3c0,14.1,6.5,23.5,16.1,23.5c5.4,0,10.3-3.3,13.2-9c2-3.9,2.3-5.6,2-13.5c-0.4-10.3-2.9-16.2-8.4-19.5
		C126,286.2,119.2,286.4,115,289.2z"/>
	
		<linearGradient id="region-5-4_00000003783397907709905980000002648295442597673345_" gradientUnits="userSpaceOnUse" x1="-1169.0551" y1="867.4195" x2="-1168.9152" y2="868.5196" gradientTransform="matrix(35.92 0 0 44 42134.6055 -37882.9609)">
		<stop  offset="0" style="stop-color:#501F83;stop-opacity:0.81"/>
		<stop  offset="1" style="stop-color:#3C0A6E;stop-opacity:0.78"/>
	</linearGradient>
	<path id="region-5-4" style="fill:url(#region-5-4_00000003783397907709905980000002648295442597673345_);" d="M130.5,289
		c5.4,3.4,7.9,9.3,8.3,19.5c0.3,7.9,0,9.6-2,13.5c-1.3,2.5-3.8,5.5-5.7,6.7l-3.4,2.3h13.5c15.3,0,14.7,0.3,19.5-9
		c2.5-5,2.8-6.4,2.7-15.2c0-9.3-0.2-9.9-3.1-13.5c-4-5.1-7.7-6.2-21.3-6.2l-11.5-0.1L130.5,289L130.5,289z"/>
	
		<linearGradient id="region-5-5_00000015352066965285303110000008702055107904693661_" gradientUnits="userSpaceOnUse" x1="-1181.062" y1="867.2672" x2="-1181.062" y2="868.2672" gradientTransform="matrix(56.18 0 0 44.61 66488.4766 -38351)">
		<stop  offset="0" style="stop-color:#4F1E7E;stop-opacity:0.81"/>
		<stop  offset="1" style="stop-color:#3C0B6D;stop-opacity:0.78"/>
	</linearGradient>
	<path id="region-5-5" style="fill:url(#region-5-5_00000015352066965285303110000008702055107904693661_);" d="M117,341.8
		c-7.4,4-10.5,15.2-7.6,26.9c1.9,7.8,5.5,12.9,10.5,15c3,1.3,6.5,1.4,20,0.9c18.4-0.7,17.1-0.2,21.8-9.6c2.4-4.6,2.8-6.8,2.8-13.5
		s-0.4-8.7-2.3-12c-4.2-7.3-6.5-8.1-25.2-8.9C121.9,340,120.2,340.1,117,341.8z"/>
</g>
<g id="layer-6">
	
		<linearGradient id="region-6-1_00000113327052784425984500000009542114874026825638_" gradientUnits="userSpaceOnUse" x1="-1175.7946" y1="859.4973" x2="-1175.7946" y2="860.4972" gradientTransform="matrix(45.01 0 0 90.85 53068.7734 -77921.9531)">
		<stop  offset="0" style="stop-color:#572997;stop-opacity:0.74"/>
		<stop  offset="1" style="stop-color:#420A71;stop-opacity:0.6"/>
	</linearGradient>
	<path id="region-6-1" style="fill:url(#region-6-1_00000113327052784425984500000009542114874026825638_);" d="M126.3,163.4
		c13,3.5,22.2,19.4,23.4,40.6c1.4,24.4-7.9,43.3-23.7,48.1c-3.2,1,7.8,1.1,17.2,0.3l6.7-0.7l4.1-5.8c5.9-8.4,11.8-21.3,13.6-29.9
		c2.1-9.9,1.3-25-1.9-33.5c-3.7-9.9-10.1-18.4-13.9-18.5c-1,0-1.8-0.5-1.8-1c0-0.6-5.4-1-14.2-0.9
		C122.3,162.1,121.8,162.2,126.3,163.4L126.3,163.4z"/>
	
		<linearGradient id="region-6-2_00000065032755030302044080000012140970212899933354_" gradientUnits="userSpaceOnUse" x1="-1194.7269" y1="855.9053" x2="-1194.7269" y2="856.9053" gradientTransform="matrix(154.31 0 0 174.26 184745.9375 -148963.8906)">
		<stop  offset="0" style="stop-color:#430968;stop-opacity:0.65"/>
		<stop  offset="1" style="stop-color:#4C1F8D;stop-opacity:0.77"/>
	</linearGradient>
	<path id="region-6-2" style="fill:url(#region-6-2_00000065032755030302044080000012140970212899933354_);" d="M314.1,200.1
		c-9,43.1-0.9,92.9,20.5,125.6c18.4,28.3,44.8,42.4,69.6,37.2c36.5-7.6,63.1-58.7,60.4-116.4c-0.7-16-1.5-23.5-2.6-23.5
		c-0.4,0-2.3,2.5-4.3,5.5c-13.1,19.6-38.3,34.4-63.3,37c-5.7,0.7-7.1,1.2-9.1,3.6c-2.9,3.4-8.3,5.3-13,4.4
		c-4-0.7-11.5-7.1-13.2-11.3c-0.6-1.5-3.3-4.1-5.9-5.7c-16-10.1-28.9-31-34.4-55.9l-2.5-10.9L314.1,200.1L314.1,200.1z"/>
	
		<linearGradient id="region-6-3_00000162319070765691203570000011260658662471967121_" gradientUnits="userSpaceOnUse" x1="-1128.7797" y1="880.1829" x2="-1128.6398" y2="881.2629" gradientTransform="matrix(16.27 0 0 24.12 18480.8008 -21040.3008)">
		<stop  offset="0" style="stop-color:#FFEF15;stop-opacity:0.81"/>
		<stop  offset="1" style="stop-color:#FFFA0A;stop-opacity:0.85"/>
	</linearGradient>
	<path id="region-6-3" style="fill:url(#region-6-3_00000162319070765691203570000011260658662471967121_);" d="M111.1,197.6
		c-2.3,2.9-2.9,11.2-1.2,15.7c2.1,5.5,7.3,7.3,11.8,4.2c4.4-3.1,4.7-16.2,0.6-20.7C119.7,193.9,113.6,194.4,111.1,197.6z"/>
	
		<linearGradient id="region-6-4_00000064349583250109691890000001388922471509075599_" gradientUnits="userSpaceOnUse" x1="-1169.7466" y1="863.9365" x2="-1169.3367" y2="865.0665" gradientTransform="matrix(36.4 0 0 56.64 42944.5508 -48724.2812)">
		<stop  offset="0" style="stop-color:#FFF5FF;stop-opacity:0.48"/>
		<stop  offset="1" style="stop-color:#FFF4FF;stop-opacity:0.38"/>
	</linearGradient>
	<path id="region-6-4" style="fill:url(#region-6-4_00000064349583250109691890000001388922471509075599_);" d="M365.4,218.9
		c-7,4.3-9.9,11.5-9.8,24.6c0,12.6,2.4,19.4,8.8,25.3c7.4,6.8,15.7,6.6,21.6-0.6c4.4-5.3,6-11.8,6-24.1c0-9-0.4-11.3-2.4-15.6
		c-2.7-5.8-4.6-7.6-10.4-9.8C373.6,216.5,369.2,216.6,365.4,218.9L365.4,218.9z"/>
	
		<linearGradient id="region-6-5_00000176037280576953981180000013357546356203316414_" gradientUnits="userSpaceOnUse" x1="-1163.7996" y1="900.7437" x2="-1163.3396" y2="902.6037" gradientTransform="matrix(31.02 0 0 13.94 36246.1289 -12265.4004)">
		<stop  offset="0" style="stop-color:#9C6BFF;stop-opacity:0.4"/>
		<stop  offset="1" style="stop-color:#A068FF;stop-opacity:0.34"/>
	</linearGradient>
	<path id="region-6-5" style="fill:url(#region-6-5_00000176037280576953981180000013357546356203316414_);" d="M133.4,291.5
		c1.3,1.4,2.9,3.9,3.6,5.5c1.4,3.3,4.9,4.7,14.2,5.7c11.6,1.2,14-2.2,7-9.7l-3.9-4h-23.2L133.4,291.5L133.4,291.5z"/>
	
		<linearGradient id="region-6-6_00000126302227638281259190000009605411942581043331_" gradientUnits="userSpaceOnUse" x1="-1164.8168" y1="867.9993" x2="-1163.5468" y2="867.5693" gradientTransform="matrix(31.4 0 0 44.58 36683.2891 -38325.4883)">
		<stop  offset="0" style="stop-color:#20003E;stop-opacity:0.79"/>
		<stop  offset="1" style="stop-color:#350253;stop-opacity:0.8"/>
	</linearGradient>
	<path id="region-6-6" style="fill:url(#region-6-6_00000126302227638281259190000009605411942581043331_);" d="M117,341.8
		c-5.4,2.9-8.4,9.1-8.4,17.7c-0.1,9.4,1.9,15.9,6.3,20.5c4.8,5.1,9.4,6,15.5,3c6.3-3,9.6-9.7,9.6-19.5c0-4-0.5-8.7-1.1-10.6
		C135.3,342.2,125.6,337.3,117,341.8z"/>
	
		<linearGradient id="region-6-7_00000173154200170455586970000013981500557183943609_" gradientUnits="userSpaceOnUse" x1="-1159.67" y1="900.554" x2="-1159.3099" y2="902.254" gradientTransform="matrix(28.02 0 0 14 32637.3516 -12267)">
		<stop  offset="0" style="stop-color:#9A69FF;stop-opacity:0.4"/>
		<stop  offset="1" style="stop-color:#9D67FF;stop-opacity:0.36"/>
	</linearGradient>
	<path id="region-6-7" style="fill:url(#region-6-7_00000173154200170455586970000013981500557183943609_);" d="M134.9,345.7
		c1.6,2.1,3.3,5,3.6,6.4c0.8,3.1,3.8,3.9,14.3,3.9c4.7,0,6.4-0.4,6.8-1.5c1-2.4-0.4-6.1-3.5-9.4c-1.9-2.1-6.4-3.1-13.5-3.1h-10.7
		L134.9,345.7L134.9,345.7z"/>
</g>
<g id="layer-7">
	
		<linearGradient id="region-7-1_00000108309392167073338640000005301223680550834816_" gradientUnits="userSpaceOnUse" x1="-1170.3802" y1="876.4692" x2="-1169.3202" y2="877.2892" gradientTransform="matrix(36.76 0 0 27.94 43152.3516 -24325.3203)">
		<stop  offset="0" style="stop-color:#8556EB;stop-opacity:0.4"/>
		<stop  offset="1" style="stop-color:#9B60E6;stop-opacity:0.4"/>
	</linearGradient>
	<path id="region-7-1" style="fill:url(#region-7-1_00000108309392167073338640000005301223680550834816_);" d="M134.2,167.3
		c2.4,1.8,5.7,5.7,7.5,8.7c3.9,6.8,8.5,11.4,13.9,14c4.3,2.1,9.9,2.6,10.9,1c0.3-0.5-0.5-3.9-1.7-7.5c-2.6-7.6-10-17.6-13.8-18.6
		c-1.4-0.4-6.7-0.7-11.8-0.8l-9.4-0.1L134.2,167.3L134.2,167.3z"/>
	
		<linearGradient id="region-7-2_00000101797428213457477520000001086013199802799516_" gradientUnits="userSpaceOnUse" x1="-1159.3008" y1="872.8488" x2="-1158.4009" y2="873.9288" gradientTransform="matrix(27.57 0 0 32.54 32324.5781 -28190.1191)">
		<stop  offset="0" style="stop-color:#E3FF09;stop-opacity:0.8"/>
		<stop  offset="1" style="stop-color:#E0FF00;stop-opacity:0.87"/>
	</linearGradient>
	<path id="region-7-2" style="fill:url(#region-7-2_00000101797428213457477520000001086013199802799516_);" d="M369.3,218.7
		c-1.3,0.3-3.2,1.6-4.4,3.1c-5.3,6.8,3.2,24.2,13.8,28.3c7.4,2.8,11.3-0.3,12.1-9.5c0.4-5.6-2-12.9-5.6-16.9
		C382.3,220.4,374.1,217.9,369.3,218.7L369.3,218.7z"/>
	
		<linearGradient id="region-7-3_00000142870892861291498430000011780795950859923344_" gradientUnits="userSpaceOnUse" x1="-1139.3356" y1="885.5099" x2="-1138.6655" y2="886.7198" gradientTransform="matrix(18.91 0 0 20.29 21908.041 -17712.5898)">
		<stop  offset="0" style="stop-color:#FBDFFF;stop-opacity:0.31"/>
		<stop  offset="1" style="stop-color:#FADDFF;stop-opacity:0.26"/>
	</linearGradient>
	<path id="region-7-3" style="fill:url(#region-7-3_00000142870892861291498430000011780795950859923344_);" d="M358.5,252
		c-2.1,3.4,4.2,15.7,9.4,18.4c1.6,0.9,4.4,1.6,6.1,1.6c2.6,0,3-0.4,3-2.6C377,265.3,360.1,249.4,358.5,252z"/>
</g>
<linearGradient id="region-2-4-2_00000109714459797235292630000012466849814329350031_" gradientUnits="userSpaceOnUse" x1="-1195.4534" y1="854.6393" x2="-1194.2134" y2="853.8693" gradientTransform="matrix(244.81 0 0 375.28 293576.9062 -320371.0938)">
	<stop  offset="0" style="stop-color:#0E0600;stop-opacity:0.2"/>
	<stop  offset="1" style="stop-color:#CCBCA4;stop-opacity:0.94"/>
</linearGradient>
<path id="region-2-4-2" style="fill:url(#region-2-4-2_00000109714459797235292630000012466849814329350031_);stroke:#000000;stroke-miterlimit:10;" d="
	M1035.4,37.4c-17.4,3-35,12.5-49.4,26.9c-19.7,19.7-35.3,50.1-42.7,83.4c-5.2,22.8-6,31.2-6,60.7c0.1,22.9,0.4,29.9,2.2,41.7
	c6,40.2,16.7,71,34.7,99.8c16.2,26,25.8,36.5,42.5,46.3c11.4,6.8,18.1,9.6,30.9,12.9c11.9,3.1,28.8,3.6,39.3,1
	c46.9-11.5,83.4-65.7,93.5-138.7c2.3-17.1,2.3-53.7-0.1-71c-4.6-33.7-12.5-60.6-25.5-86.5c-8.4-16.5-15.8-27.5-26.8-39.7
	c-17.9-19.8-36.9-31.4-58.6-35.9C1059.8,36.3,1044.3,35.9,1035.4,37.4z"/>
<linearGradient id="region-3-1-2_00000016033710745184621790000004156667640261509786_" gradientUnits="userSpaceOnUse" x1="-1193.2242" y1="856.2601" x2="-1192.1642" y2="855.3702" gradientTransform="matrix(214.25 0 0 198.49 256843.7188 -169740.7969)">
	<stop  offset="0" style="stop-color:#8B899B;stop-opacity:0.24"/>
	<stop  offset="1" style="stop-color:#FFFFFF;stop-opacity:0.76"/>
</linearGradient>
<path id="region-3-1-2" style="fill:url(#region-3-1-2_00000016033710745184621790000004156667640261509786_);stroke:#000000;stroke-miterlimit:10;" d="
	M1265.1,16.3c-27.1,3.1-48.3,21.3-61.6,52.7c-7.4,17.5-11.8,39.2-10,49c0.6,3.3,1,3.7,3.3,3.4c2.1-0.2,3.8-2.3,9-10.8
	c9.2-15,16.3-24.2,26.7-34.5c10.5-10.5,20.8-17.2,32.1-21.1c10.9-3.7,24.5-3.9,35.5-0.5c15,4.6,26.4,11.5,38.3,23
	c23.2,22.4,41,56.9,60.2,116.5c4.3,13.5,7,20.6,7.8,20.3c1.6-0.5,1.1-21.4-0.9-37.2c-4-32-12.3-60.1-25.3-86
	c-12.4-24.5-25-40.2-43-53.4C1315.6,21.8,1288.2,13.7,1265.1,16.3L1265.1,16.3z"/>
<linearGradient id="region-3-2-2_00000057858059397712175620000000764319490261360573_" gradientUnits="userSpaceOnUse" x1="-1194.052" y1="854.1329" x2="-1193.7821" y2="855.2429" gradientTransform="matrix(188.51 0 0 287.08 225883.375 -245182.6562)">
	<stop  offset="0" style="stop-color:#55496F;stop-opacity:0.77"/>
	<stop  offset="1" style="stop-color:#CECEF4;stop-opacity:0.83"/>
</linearGradient>
<path id="region-3-2-2" style="fill:url(#region-3-2-2_00000057858059397712175620000000764319490261360573_);stroke:#000000;stroke-miterlimit:10;" d="
	M799.6,52c-20,4.2-39.8,20.2-52.2,42.1c-1.7,3.1-3.1,6.2-3.1,7s-1.1,3-2.4,5c-1.3,1.9-3.7,7.3-5.4,12c-14,39.9-13.7,99.8,0.8,139.9
	c6.7,18.4,7.8,21,12.5,28.5c14,22.5,27.9,35,47.1,42.5c3.2,1.2,9.2,3.9,13.3,5.9c7.1,3.5,7.6,3.6,18.5,3.5
	c18.5-0.2,30.6-5.6,45.7-20.4c16-15.7,27.6-37.3,34.3-63.5c10.3-40.7,7.2-90.1-7.9-128.5c-1.9-4.8-3.5-9.3-3.5-10
	c0-1.8-10.5-19.4-16.2-27.2c-6.9-9.4-20.6-22.1-29.7-27.4c-11.9-7-21.3-9.6-35.6-10C809.2,51.2,801.9,51.5,799.6,52L799.6,52z"/>
<linearGradient id="region-3-4-2_00000147900456712735504990000001283141358330113971_" gradientUnits="userSpaceOnUse" x1="-1190.5242" y1="856.1326" x2="-1190.5242" y2="857.1326" gradientTransform="matrix(132.51 0 0 172.45 158499.3594 -147356.4688)">
	<stop  offset="0" style="stop-color:#B0A08E;stop-opacity:0.31"/>
	<stop  offset="1" style="stop-color:#A398D5;stop-opacity:0.52"/>
</linearGradient>
<path id="region-3-4-2" style="fill:url(#region-3-4-2_00000147900456712735504990000001283141358330113971_);stroke:#000000;stroke-miterlimit:10;" d="
	M678.8,283.3c-5.9,7,1.7,63.1,13.4,98.6c5.7,17.4,11.3,27,22.8,38.9c21.8,22.6,37,29.9,68.9,33.2c8.8,0.9,10.4,0.8,14-0.8
	c5.2-2.3,10.4-8.1,11.2-12.5c0.9-4.7-1.9-11.1-6.8-15.2c-2.2-1.9-14.5-8.7-27.1-15c-12.7-6.2-24.8-12.4-26.8-13.7
	c-5.5-3.4-21.3-21-28.1-31.3c-9.8-14.9-16.6-29.6-25.4-54.8c-5.7-16.4-8.8-23.5-11.5-26.4C680.9,281.7,680.2,281.5,678.8,283.3
	L678.8,283.3z"/>
<linearGradient id="region-3-5-2_00000103266029208944190520000013319016886953036687_" gradientUnits="userSpaceOnUse" x1="-1178.8053" y1="859.0891" x2="-1178.8053" y2="860.0891" gradientTransform="matrix(77.01 0 0 101.36 91776.7969 -86566.6719)">
	<stop  offset="0" style="stop-color:#A5B884;stop-opacity:0.84"/>
	<stop  offset="1" style="stop-color:#92A8AE;stop-opacity:0.81"/>
</linearGradient>
<path id="region-3-5-2" style="fill:url(#region-3-5-2_00000103266029208944190520000013319016886953036687_);stroke:#000000;stroke-miterlimit:10;" d="
	M987.5,513.9c-9.3,3-18.8,11.7-23.3,21.3c-7.9,16.8-7.6,41.3,0.9,58c3.5,7,12.1,15.3,19.2,18.6c8.2,3.8,18.4,3.8,26.3-0.1
	c15.1-7.4,24.9-26.1,24.9-47.7c-0.1-29.2-15.6-50-38-50.7C993.4,513.2,988.9,513.4,987.5,513.9L987.5,513.9z"/>
<linearGradient id="region-4-4-2_00000163767621222324285440000009163091866278182021_" gradientUnits="userSpaceOnUse" x1="-1168.3281" y1="861.4458" x2="-1168.3281" y2="862.4465" gradientTransform="matrix(56.54 0 0 76.1 67161.7422 -65028.0898)">
	<stop  offset="0" style="stop-color:#0A0021;stop-opacity:0.84"/>
	<stop  offset="1" style="stop-color:#14003F;stop-opacity:0.84"/>
</linearGradient>
<path id="region-4-4-2" style="fill:url(#region-4-4-2_00000163767621222324285440000009163091866278182021_);" d="M1094.1,528
	c-5.9,2.7-11.2,8.4-14.8,16c-3,6.3-3.1,7.2-3.1,19.1c0,10.7,0.4,13.3,2.3,18.2c4.6,11.4,16.2,20.8,25.9,20.8
	c22.6,0,36.2-34.7,23.4-59.7C1120.9,528.6,1106.3,522.4,1094.1,528L1094.1,528z"/>
<rect x="279" y="36.5" class="st42" width="256.5" height="401.5"/>
<rect x="328.7" y="463.4" class="st42" width="114.3" height="124.6"/>
<g>
	<line class="st43" x1="460.2" y1="572.7" x2="695.7" y2="572.7"/>
	<path d="M733.9,572.7c-18,3.7-40.3,10-54.2,16.7l10.9-16.7L679.7,556C693.6,562.7,715.9,569,733.9,572.7z"/>
</g>
<g>
	<line class="st43" x1="535.5" y1="244.8" x2="678.7" y2="244.8"/>
	<path d="M702,244.8c-11,2.3-24.5,6.1-33,10.2l6.6-10.2l-6.6-10.2C677.5,238.7,691,242.5,702,244.8z"/>
</g>
</svg>
