<?xml version="1.0" encoding="utf-8"?>
<!-- Generator: Adobe Illustrator 26.5.0, SVG Export Plug-In . SVG Version: 6.00 Build 0)  -->
<svg version="1.1" id="图层_1" xmlns="http://www.w3.org/2000/svg" xmlns:xlink="http://www.w3.org/1999/xlink" x="0px" y="0px"
	 viewBox="0 0 1164.7 624" style="enable-background:new 0 0 1164.7 624;" xml:space="preserve">
<style type="text/css">
	.st0{fill:none;}
	.st1{fill:#D3D3D3;}
	.st2{fill:url(#SVGID_00000030471442691622834530000015860082563997846418_);}
	.st3{fill:none;stroke:#000000;stroke-width:3;stroke-miterlimit:10;}
	.st4{fill:url(#SVGID_00000141436367262931353370000004650066393192233368_);}
	.st5{fill:url(#SVGID_00000044160870578854695830000006044093224493367482_);}
	.st6{fill:url(#SVGID_00000107587857212215762010000010868239338071923381_);}
	.st7{fill:url(#SVGID_00000128476828132998123310000004814088541755130547_);}
	.st8{fill:url(#SVGID_00000139277659516857309210000003144299069221126825_);}
	.st9{fill:url(#SVGID_00000085934020425267183130000010737907080924899722_);}
	.st10{fill:url(#SVGID_00000168118343111482949680000009681291386126654089_);}
	.st11{fill:url(#SVGID_00000134232655578105932240000018391427059366189719_);}
	.st12{fill:url(#SVGID_00000015333610811525246270000011291362684973888426_);}
	.st13{fill:url(#SVGID_00000117661898511681893080000004204945765172778655_);}
	.st14{fill:url(#SVGID_00000181070100511893834570000004332250026562784940_);}
	.st15{fill:url(#SVGID_00000127008067628334218590000015327526934854364550_);}
	.st16{fill:url(#SVGID_00000067231400624009828850000008561497704425448841_);}
	.st17{fill:url(#SVGID_00000123424462367257888600000015015299527953720227_);}
	.st18{fill:url(#SVGID_00000102532014438042484870000004360996810795277971_);}
	.st19{fill:url(#SVGID_00000142893067751439884470000005126186446644173749_);}
	.st20{fill:url(#SVGID_00000126299813986006871120000008600733220664654271_);}
	.st21{fill:url(#SVGID_00000110455281622403146490000015251132288118823350_);}
	.st22{fill:url(#SVGID_00000026127296369773017670000015296950865871592070_);}
	.st23{fill:url(#SVGID_00000057864890486162504060000017340013765587035038_);}
	.st24{fill:url(#SVGID_00000129174923967896982400000016544566796919147157_);}
	.st25{fill:url(#SVGID_00000154421070854348807550000014033498040137623999_);}
	.st26{fill:url(#SVGID_00000163763976362369057610000007968471819983018428_);}
	.st27{fill:url(#SVGID_00000054947119808756940310000015492924457608588461_);}
	.st28{fill:url(#SVGID_00000164481374999483395720000017366007622697524123_);}
	.st29{fill:url(#SVGID_00000026138697376663596740000016019316223461424306_);}
	.st30{fill:url(#SVGID_00000085219258222558895070000015145706224314023579_);}
	.st31{fill:url(#SVGID_00000176764395111702468350000013682508894275664555_);}
	.st32{fill:url(#SVGID_00000002360808139777579090000018062507444028676233_);}
	.st33{fill:url(#SVGID_00000121957924017977144430000015012963225263114921_);}
	.st34{fill:url(#SVGID_00000074439561705822539890000015730713950478929056_);}
	.st35{fill:url(#SVGID_00000062173086739621911350000012692807553424573833_);}
	.st36{fill:url(#SVGID_00000073710561225010490470000001063133108330366088_);}
	.st37{fill:url(#SVGID_00000005952587342511505040000008256633295912698042_);}
	.st38{fill:none;stroke:#FF0000;stroke-width:4;stroke-miterlimit:10;}
	.st39{fill:url(#SVGID_00000155851692927079040500000001013018148975816601_);}
</style>
<pattern  y="624" width="40" height="40" patternUnits="userSpaceOnUse" id="SVGID_1_" viewBox="0 -40 40 40" style="overflow:visible;">
	<g>
		<rect y="-40" class="st0" width="40" height="40"/>
		<g>
			<rect y="-40" class="st0" width="40" height="40"/>
			<g>
				<rect y="-40" class="st0" width="40" height="40"/>
				<g>
					<rect y="-40" class="st0" width="40" height="40"/>
					<rect y="-40" class="st0" width="40" height="40"/>
					<rect y="-20" class="st1" width="20" height="20"/>
					<rect x="20" y="-40" class="st1" width="20" height="20"/>
				</g>
			</g>
		</g>
	</g>
</pattern>
<g id="_图层_1">
	
		<pattern  id="SVGID_00000036235924570330973300000000219696877272909702_" xlink:href="#SVGID_1_" patternTransform="matrix(1 0 0 -1 197 -33161.2422)">
	</pattern>
	<rect style="fill:url(#SVGID_00000036235924570330973300000000219696877272909702_);" width="1164.7" height="624"/>
</g>
<g>
	<line class="st3" x1="544.1" y1="313" x2="620.3" y2="313"/>
	<path d="M638.4,313c-8.5,3.2-19.1,8.5-25.6,14.3L618,313l-5.2-14.3C619.3,304.4,629.9,309.8,638.4,313z"/>
</g>
<linearGradient id="SVGID_00000006697121096310760420000000723331940875313562_" gradientUnits="userSpaceOnUse" x1="-1447.5535" y1="854.1348" x2="-1447.8035" y2="853.0848" gradientTransform="matrix(524.98 0 0 615.33 760292.5 -524937.375)">
	<stop  offset="0" style="stop-color:#7347D5"/>
	<stop  offset="1" style="stop-color:#8D6BFC"/>
</linearGradient>
<path style="fill:url(#SVGID_00000006697121096310760420000000723331940875313562_);" d="M120,24.1C66.4,36.6,17.4,48.1,11.2,49.6
	L0,52.2v5.7C0,63.1,26.3,385.2,27.4,393c0.2,1.9,0.2-3.5,0-12c-0.8-28.3-8.5-132.6-18.9-257.4c-3.1-36.2-5.3-66.1-5-66.4
	c0.8-0.9,217.9-48.3,219-47.8c1.5,0.5,5.6,34.7,10,82.1c1.9,20.3,5.8,59,8.7,86l5.2,49l0.1,126.5c0,69.6-0.2,116.4-0.5,104
	c-0.6-22.5-0.6-22.4-0.8,11.5c-0.1,18.7-0.7,59.6-1.3,90.8c-0.6,31.3-1,56.9-0.8,57.1c0.2,0.1,6-0.1,12.9-0.5
	c6.9-0.4,38.2-1,69.5-1.4c58.1-0.6,79.5-1.5,103.5-4c18.9-2.1,42.4-6.1,56-9.7c6.3-1.7,12.2-3.1,13.1-3.1c1.2-0.1,1.8-1.4,2.2-4.7
	c0.3-2.5,2.2-16.2,4.1-30.5c9.1-67.3,16-144.4,19.6-218c1.3-27.3,1.3-171.5,0-196c-2-37.2-7.5-98.1-8.9-99.7
	c-1-1.2-286.9-47.8-292.5-47.7C219.7,1.1,175.5,11,120,24.1L120,24.1z"/>
<linearGradient id="SVGID_00000116954404099546536980000007981925167697771662_" gradientUnits="userSpaceOnUse" x1="-1444.9633" y1="854.605" x2="-1444.1633" y2="853.9951" gradientTransform="matrix(245.35 0 0 375.08 354822.125 -320200.9375)">
	<stop  offset="0" style="stop-color:#503D84"/>
	<stop  offset="1" style="stop-color:#9C8A90"/>
</linearGradient>
<path style="fill:url(#SVGID_00000116954404099546536980000007981925167697771662_);" d="M368.7,51c-17.9,3.2-35,12.6-49.4,26.9
	c-19.7,19.7-35.3,50.1-42.7,83.4c-5.2,22.8-6,31.2-6,60.7c0.1,22.9,0.4,29.9,2.2,41.7c6,40.2,16.7,71,34.7,99.8
	c16.2,26,25.8,36.5,42.5,46.3c11.4,6.8,18.1,9.6,30.9,12.9c11.9,3.1,28.8,3.6,39.3,1c29.7-7.3,55.3-31.3,73.3-68.9
	c13-27.3,20-56.5,22.1-92.6c0.6-10.9,0.5-12.2-0.9-11.6c-1.3,0.5-2.8-3.3-8.2-20.2c-3.7-11.4-8.8-26.4-11.5-33.3
	c-5.5-14.6-16.1-38.4-16.7-37.7c-0.3,0.2,1.1,4.5,3.1,9.4c15.2,38.6,18.3,87.9,8,128.7c-6.7,26.2-18.3,47.8-34.3,63.5
	c-15,14.7-27.2,20.2-45.6,20.4c-10.1,0.1-11.5-0.1-16.9-2.7c-3.2-1.5-5.7-3-5.5-3.1c0.2-0.2,7.5-0.9,16.2-1.5
	c15.3-1.1,16.1-1.2,22.7-4.7c20.7-10.8,38.8-37.9,46.9-70.2c5.2-20.2,6.6-49.6,3.6-72.5c-7.5-57-36.8-100.4-74.3-110.2
	c-7.6-1.9-23.9-1.9-31.2,0c-29.7,7.8-53.6,40.7-61,84c-1.1,6.4-2.1,13.6-2.1,15.8c-0.1,2.3-0.3,3.4-0.6,2.3
	c-0.7-2.8,1.5-23.7,3.8-35.1c2.5-12.7,8.1-29.4,11.4-34.3c1.4-2,2.5-4.3,2.5-5.1s1.4-3.9,3.1-7c12.8-22.7,32.7-38.3,53.6-42.2
	c3.2-0.6,10.5-0.9,16.3-0.6c18.8,0.8,34.3,7.7,50.1,22.3l8.4,7.8l-7.5-7.8c-12.2-12.7-25.3-20.8-41-25.7c-11-3.4-24.6-3.2-35.5,0.5
	c-11.3,3.9-21.6,10.6-32.1,21.1C330,122.8,322.9,132,313.7,147c-5.2,8.5-6.9,10.6-9,10.8c-2.3,0.3-2.7-0.1-3.3-3.4
	c-1.8-9.8,2.6-31.5,10-49C323,78,341.6,59.7,363.6,54.3c9.1-2.2,28.1-2.1,38.9,0.2c15.8,3.3,32.7,11.5,46.1,22.3
	c8.5,6.8,9.5,6.1,1.2-0.8c-13.7-11.5-28.1-19.3-42.5-23.1C398.6,50.5,376.9,49.5,368.7,51L368.7,51z M296.8,253.3
	c2.7,2.9,5.8,10,11.5,26.4c8.8,25.2,15.6,39.9,25.4,54.8c6.8,10.3,22.6,27.9,28.1,31.3c2,1.3,14.1,7.5,26.8,13.7
	c12.6,6.3,24.9,13.1,27.1,15c4.9,4.1,7.7,10.5,6.8,15.2c-0.8,4.4-6,10.2-11.2,12.5c-3.6,1.6-5.2,1.7-14,0.8
	c-31.9-3.3-47.1-10.6-68.9-33.2c-11.5-11.9-17.1-21.5-22.8-38.9C292.5,311,285.5,251,293.9,251C294.3,251,295.6,252,296.8,253.3
	L296.8,253.3z"/>
<linearGradient id="SVGID_00000064319690373804179490000007953135958742249382_" gradientUnits="userSpaceOnUse" x1="-1410.3914" y1="864.9689" x2="-1411.0614" y2="864.1089" gradientTransform="matrix(36.4 0 0 56.64 51723.75 -48724.2812)">
	<stop  offset="0" style="stop-color:#565584"/>
	<stop  offset="1" style="stop-color:#BAC6DB"/>
</linearGradient>
<path style="fill:url(#SVGID_00000064319690373804179490000007953135958742249382_);" d="M365.4,218.9c-7,4.3-9.9,11.5-9.8,24.6
	c0,12.6,2.4,19.4,8.8,25.3c7.4,6.8,15.7,6.6,21.6-0.6c4.4-5.3,6-11.8,6-24.1c0-9-0.4-11.3-2.4-15.6c-2.7-5.8-4.6-7.6-10.4-9.8
	C373.6,216.5,369.2,216.6,365.4,218.9L365.4,218.9z M371.3,261.1c4,4,5.7,6.5,5.7,8.3c0,2.2-0.4,2.6-3,2.6c-1.7,0-4.5-0.7-6.1-1.6
	c-5.2-2.7-11.5-15-9.4-18.4C359.4,250.6,363.9,253.8,371.3,261.1z"/>
<linearGradient id="SVGID_00000140727412973216571230000010864129803223056041_" gradientUnits="userSpaceOnUse" x1="-1398.4014" y1="873.5384" x2="-1397.4016" y2="873.5384" gradientTransform="matrix(27.57 0 0 32.54 38913.9414 -28190.1191)">
	<stop  offset="0" style="stop-color:#D2F712"/>
	<stop  offset="1" style="stop-color:#D2F712"/>
</linearGradient>
<path style="fill:url(#SVGID_00000140727412973216571230000010864129803223056041_);" d="M369.3,218.7c-1.3,0.3-3.2,1.6-4.4,3.1
	c-5.3,6.8,3.2,24.2,13.8,28.3c7.4,2.8,11.3-0.3,12.1-9.5c0.4-5.6-2-12.9-5.6-16.9C382.3,220.4,374.1,217.9,369.3,218.7L369.3,218.7z
	"/>
<linearGradient id="SVGID_00000088852047326856559290000016114053605446242976_" gradientUnits="userSpaceOnUse" x1="-1431.6554" y1="858.7191" x2="-1431.6554" y2="859.7191" gradientTransform="matrix(77.01 0 0 101.36 110627.2812 -86566.6719)">
	<stop  offset="0" style="stop-color:#FFAD05"/>
	<stop  offset="1" style="stop-color:#097EFF"/>
</linearGradient>
<path style="fill:url(#SVGID_00000088852047326856559290000016114053605446242976_);" d="M366,475.9c-9.3,3-18.8,11.7-23.3,21.3
	c-7.9,16.8-7.6,41.3,0.9,58c3.5,7,12.1,15.3,19.2,18.6c8.2,3.8,18.4,3.8,26.3-0.1c15.1-7.4,24.9-26.1,24.9-47.7
	c-0.1-29.2-15.6-50-38-50.7C371.9,475.2,367.4,475.4,366,475.9L366,475.9z"/>
<linearGradient id="SVGID_00000000183482599057516700000017830968013088762815_" gradientUnits="userSpaceOnUse" x1="-1425.3544" y1="861.4197" x2="-1424.3544" y2="861.4197" gradientTransform="matrix(56.54 0 0 76.1 80935.6641 -65028.0898)">
	<stop  offset="0" style="stop-color:#230540"/>
	<stop  offset="1" style="stop-color:#230540"/>
</linearGradient>
<path style="fill:url(#SVGID_00000000183482599057516700000017830968013088762815_);" d="M365.4,489.9c-5.9,2.7-11.2,8.4-14.8,16
	c-3,6.3-3.1,7.2-3.1,19.1c0,10.7,0.4,13.3,2.3,18.2c4.6,11.4,16.2,20.8,25.9,20.8c22.6,0,36.2-34.7,23.4-59.7
	C392.2,490.6,377.6,484.4,365.4,489.9L365.4,489.9z"/>
<linearGradient id="SVGID_00000088100778240181145790000015345964731469251745_" gradientUnits="userSpaceOnUse" x1="-1439.5193" y1="856.3552" x2="-1439.8492" y2="856.7753" gradientTransform="matrix(132.51 0 0 172.45 191113.8281 -147356.4688)">
	<stop  offset="0" style="stop-color:#79637C"/>
	<stop  offset="1" style="stop-color:#8577C4"/>
</linearGradient>
<path style="fill:url(#SVGID_00000088100778240181145790000015345964731469251745_);" d="M292.2,252.3c-5.9,7,1.7,63.1,13.4,98.6
	c5.7,17.4,11.3,27,22.8,38.9c21.8,22.6,37,29.9,68.9,33.2c8.8,0.9,10.4,0.8,14-0.8c5.2-2.3,10.4-8.1,11.2-12.5
	c0.9-4.7-1.9-11.1-6.8-15.2c-2.2-1.9-14.5-8.7-27.1-15c-12.7-6.2-24.8-12.4-26.8-13.7c-5.5-3.4-21.3-21-28.1-31.3
	c-9.8-14.9-16.6-29.6-25.4-54.8c-5.7-16.4-8.8-23.5-11.5-26.4C294.3,250.7,293.6,250.5,292.2,252.3L292.2,252.3z"/>
<linearGradient id="SVGID_00000165953540823249883010000014924222200242615466_" gradientUnits="userSpaceOnUse" x1="-1443.9097" y1="856.2495" x2="-1443.3597" y2="855.6194" gradientTransform="matrix(214.25 0 0 198.49 309729.7188 -169740.7969)">
	<stop  offset="0" style="stop-color:#735F88"/>
	<stop  offset="1" style="stop-color:#D9D5E0"/>
</linearGradient>
<path style="fill:url(#SVGID_00000165953540823249883010000014924222200242615466_);" d="M373,52.7c-27.1,3.1-48.3,21.3-61.6,52.7
	c-7.4,17.5-11.8,39.2-10,49c0.6,3.3,1,3.7,3.3,3.4c2.1-0.2,3.8-2.3,9-10.8c9.2-15,16.3-24.2,26.7-34.5
	c10.5-10.5,20.8-17.2,32.1-21.1c10.9-3.7,24.5-3.9,35.5-0.5c15,4.6,26.4,11.5,38.3,23c23.2,22.4,41,56.9,60.2,116.5
	c4.3,13.5,7,20.6,7.8,20.3c1.6-0.5,1.1-21.4-0.9-37.2c-4-32-12.3-60.1-25.3-86c-12.4-24.5-25-40.2-43-53.4
	C423.5,58.2,396.1,50.1,373,52.7L373,52.7z"/>
<linearGradient id="SVGID_00000134221367740313026210000006394190400708749744_" gradientUnits="userSpaceOnUse" x1="-1391.5911" y1="877.9297" x2="-1390.5911" y2="877.9297" gradientTransform="matrix(24.41 0 0 26.85 34404.7383 -23479.1406)">
	<stop  offset="0" style="stop-color:#FFFFFF"/>
	<stop  offset="1" style="stop-color:#FFFFFF"/>
</linearGradient>
<path style="fill:url(#SVGID_00000134221367740313026210000006394190400708749744_);" d="M438,81.5c-2.9,3.5,3.5,16.8,10.5,21.7
	c14,9.7,18.3-2.4,5.8-16.3C448.4,80.4,441,77.9,438,81.5z"/>
<linearGradient id="SVGID_00000096049078024391176310000016541261380311263645_" gradientUnits="userSpaceOnUse" x1="-1374.3269" y1="885.8771" x2="-1373.3267" y2="885.8771" gradientTransform="matrix(18.91 0 0 20.29 26349.7207 -17712.5898)">
	<stop  offset="0" style="stop-color:#A08FB0"/>
	<stop  offset="1" style="stop-color:#A08FB0"/>
</linearGradient>
<path style="fill:url(#SVGID_00000096049078024391176310000016541261380311263645_);" d="M358.5,252c-2.1,3.4,4.2,15.7,9.4,18.4
	c1.6,0.9,4.4,1.6,6.1,1.6c2.6,0,3-0.4,3-2.6C377,265.3,360.1,249.4,358.5,252z"/>
<linearGradient id="SVGID_00000043458546331971443890000013410587325638718142_" gradientUnits="userSpaceOnUse" x1="-1447.5674" y1="853.1094" x2="-1447.5674" y2="854.1094" gradientTransform="matrix(495.47 0 0 614.01 717477.4375 -523805.7812)">
	<stop  offset="0" style="stop-color:#A30681"/>
	<stop  offset="1" style="stop-color:#4A1F9E"/>
</linearGradient>
<path style="fill:url(#SVGID_00000043458546331971443890000013410587325638718142_);" d="M111.7,32.9C52.5,46,3.7,56.9,3.5,57.2
	c-0.3,0.3,1.9,30.2,5,66.4C19.7,257.7,26.8,355.9,27.6,386c0.2,10.7,1.1,32.8,1.9,49c2.9,58.2,5.5,127.7,5.5,145.9v11.6l99.3,15.3
	l99.2,15.3h131.1l131.1-0.1l1.8-12.5c1-6.9,1.6-12.7,1.4-13c-0.3-0.2-3.2,0.4-6.6,1.5c-8.6,2.7-27.4,6.5-43.8,8.9
	c-29.3,4.4-42.3,5.1-110,6.2c-36.3,0.5-72.5,1.3-80.5,1.7c-8,0.5-14.7,0.7-14.9,0.6c-0.2-0.2,0.2-25.8,0.8-57.1
	c2.8-145.2-0.2-294.9-8.4-416.3c-1.4-20.3-11.9-126.3-13.1-131.8c-0.2-1.2-1-2.2-1.7-2.1C220.1,9.1,171,19.9,111.7,32.9L111.7,32.9z
	"/>
<linearGradient id="SVGID_00000095323615464210453310000007275017784040366524_" gradientUnits="userSpaceOnUse" x1="-1438.4448" y1="854.5327" x2="-1437.0249" y2="854.6627" gradientTransform="matrix(115.2 0 0 326 165768.8906 -278321)">
	<stop  offset="0" style="stop-color:#1A0520"/>
	<stop  offset="1" style="stop-color:#5F0E5E"/>
</linearGradient>
<path style="fill:url(#SVGID_00000095323615464210453310000007275017784040366524_);" d="M112.5,119.7c-27.5,4.2-50.2,7.7-50.4,7.9
	c-0.1,0.1,3.1,27.6,7.3,61.1C83.9,304.3,94,404.5,94,431.6v6.4h83.3l-0.6-70.3c-0.8-86.2-2.8-148.8-6.3-200.2
	c-0.8-12.1-1.8-29.5-2.1-38.8l-0.6-16.7l-2.6,0.1C163.7,112.2,140,115.6,112.5,119.7L112.5,119.7z"/>
<linearGradient id="SVGID_00000132802168262791852400000018434958293488177567_" gradientUnits="userSpaceOnUse" x1="-1434.9716" y1="854.1722" x2="-1435.2216" y2="855.1722" gradientTransform="matrix(94.39 0 0 305.32 135588.9844 -260686.9219)">
	<stop  offset="0" style="stop-color:#310B40"/>
	<stop  offset="1" style="stop-color:#3C0867"/>
</linearGradient>
<path style="fill:url(#SVGID_00000132802168262791852400000018434958293488177567_);" d="M122.8,134.4c-22.4,3.4-41,6.5-41.3,6.7
	c-0.2,0.3,1.1,14.2,3,31c1.8,16.7,3.8,34.4,4.3,39.4c0.5,4.9,2.1,19.6,3.6,32.5c5.6,50,12.7,135.1,14.2,171.1l0.7,15.7l7.6,1.3
	c4.2,0.8,13.9,1.4,21.6,1.3c11.7,0,16-0.5,26-2.8c6.6-1.5,12.4-3.1,12.9-3.4c1.1-0.6,0.1-114.2-1.4-158.2
	c-1.4-42.5-2.9-75.3-4.5-101c-2.6-40.2-2.6-40-4.4-39.9C164.2,128.2,145.2,131,122.8,134.4L122.8,134.4z M150,163c0,0.5,0.8,1,1.8,1
	c3.8,0.1,10.2,8.6,13.9,18.5c3.2,8.5,4,23.6,1.9,33.5c-1.8,8.6-7.7,21.5-13.6,29.9l-4.1,5.8l-6.7,0.7c-3.7,0.3-11.7,0.6-17.8,0.6
	c-9.8,0-11.6-0.3-16.2-2.6c-8.1-4-14.6-13.9-17.9-27.1c-2.5-10.3-2.3-28,0.4-36.8c3.8-12.2,12.5-21.6,21.2-23.1
	c2-0.3,4.1-0.7,4.6-0.9C120.1,161.6,150,162.1,150,163L150,163z"/>
<linearGradient id="SVGID_00000046336370810158103970000001210821130855460276_" gradientUnits="userSpaceOnUse" x1="-1409.8717" y1="868.5347" x2="-1409.8018" y2="867.5046" gradientTransform="matrix(35.72 0 0 43.95 50504.7734 -37836.5195)">
	<stop  offset="0" style="stop-color:#39085E"/>
	<stop  offset="1" style="stop-color:#441C99"/>
</linearGradient>
<path style="fill:url(#SVGID_00000046336370810158103970000001210821130855460276_);" d="M129,288c0.8,0.5,6.9,1,13.4,1h11.9l3.9,4
	c4,4.3,5,8.3,2.2,9.4s-10.7,0.6-16.4-0.9c-3-0.8-5.5-1.5-5.5-1.5s0.1,3.9,0.3,8.7c0.3,7.6,0,9.4-2,13.3c-1.3,2.5-3.8,5.5-5.7,6.7
	l-3.4,2.3h13.5c15.3,0,14.7,0.3,19.5-9c2.5-5,2.8-6.4,2.7-15.2c0-9.3-0.2-9.9-3.1-13.5c-1.6-2.1-4.5-4.3-6.4-5
	C149.7,286.8,126.8,286.6,129,288L129,288z"/>
<linearGradient id="SVGID_00000152984118108162030680000013875965257253173130_" gradientUnits="userSpaceOnUse" x1="-1441.1199" y1="855.9053" x2="-1441.1199" y2="856.9053" gradientTransform="matrix(154.31 0 0 174.26 222766.8438 -148963.8906)">
	<stop  offset="0" style="stop-color:#3C0C5B"/>
	<stop  offset="1" style="stop-color:#3F1F7D"/>
</linearGradient>
<path style="fill:url(#SVGID_00000152984118108162030680000013875965257253173130_);" d="M314.1,200.1c-9,43.1-0.9,92.9,20.5,125.6
	c18.4,28.3,44.8,42.4,69.6,37.2c36.5-7.6,63.1-58.7,60.4-116.4c-0.7-16-1.5-23.5-2.6-23.5c-0.4,0-2.3,2.5-4.3,5.5
	c-13.1,19.6-38.3,34.4-63.3,37c-5.7,0.7-7.1,1.2-9.1,3.6c-2.9,3.4-8.3,5.3-13,4.4c-4-0.7-11.5-7.1-13.2-11.3
	c-0.6-1.5-3.3-4.1-5.9-5.7c-16-10.1-28.9-31-34.4-55.9l-2.5-10.9L314.1,200.1L314.1,200.1z"/>
<linearGradient id="SVGID_00000098214290826715429690000015384212651564276899_" gradientUnits="userSpaceOnUse" x1="-1404.2531" y1="901.1025" x2="-1403.2531" y2="901.1025" gradientTransform="matrix(31.02 0 0 13.94 43691.0898 -12265.4004)">
	<stop  offset="0" style="stop-color:#6735A8"/>
	<stop  offset="1" style="stop-color:#6735A8"/>
</linearGradient>
<path style="fill:url(#SVGID_00000098214290826715429690000015384212651564276899_);" d="M133.4,291.5c1.3,1.4,2.9,3.9,3.6,5.5
	c1.4,3.3,4.9,4.7,14.2,5.7c11.6,1.2,14-2.2,7-9.7l-3.9-4h-23.2L133.4,291.5L133.4,291.5z"/>
<linearGradient id="SVGID_00000111889816074105058630000000525969355779537841_" gradientUnits="userSpaceOnUse" x1="-1440.4927" y1="856.9436" x2="-1440.5027" y2="857.943" gradientTransform="matrix(145.13 0 0 137.85 209449.2656 -118000.4375)">
	<stop  offset="0" style="stop-color:#30033B"/>
	<stop  offset="1" style="stop-color:#320C50"/>
</linearGradient>
<path style="fill:url(#SVGID_00000111889816074105058630000000525969355779537841_);" d="M368.8,129.5
	c-21.2,5.3-40.5,25.9-49.8,52.9c-2.5,7.5-2.5,9,0.4,21.1c5.4,22.2,15.8,39.5,30.4,50.5c3.7,2.7,7,5,7.3,5s0-2.4-0.8-5.3
	c-1.7-6.3-1.2-19.6,1-24.7c4.6-10.7,12-14.2,21.9-10.3c5.8,2.2,7.7,4,10.4,9.8c2.1,4.3,2.4,6.5,2.4,16c-0.1,8.1-0.6,12.4-1.9,16.4
	l-1.9,5.3l6.5-0.7c25-2.7,49.5-17.2,63.4-37.6l4.2-6.3l-2.2-10c-5.8-25.7-17.6-48.5-33-63.6c-8.6-8.4-17.5-14.1-27.1-17.1
	C391.6,128.2,376.6,127.5,368.8,129.5L368.8,129.5z"/>
<linearGradient id="SVGID_00000145057150000640215330000014678908817276850860_" gradientUnits="userSpaceOnUse" x1="-1412.4048" y1="868.3379" x2="-1412.2748" y2="867.2978" gradientTransform="matrix(38 0 0 44.57 53814.5 -38317.7812)">
	<stop  offset="0" style="stop-color:#390755"/>
	<stop  offset="1" style="stop-color:#451E9E"/>
</linearGradient>
<path style="fill:url(#SVGID_00000145057150000640215330000014678908817276850860_);" d="M128.5,341c1.1,0.5,7.1,0.9,13.3,0.9
	l11.4,0.1l2.9,3.1c3.2,3.4,4.5,7,3.5,9.5c-0.6,1.4-2,1.6-10.1,1.2l-9.5-0.5v7.6c0,10.2-3.1,16.9-9.3,20.1l-4.2,2.2l14.9-0.7
	c16.8-0.7,15.7-0.2,20.3-9.5c2.4-4.6,2.8-6.8,2.8-13.5s-0.4-8.7-2.3-12c-4-7-6.8-8.1-22.2-8.7C132.5,340.5,127.4,340.6,128.5,341
	L128.5,341z"/>
<linearGradient id="SVGID_00000009552591198220881490000002431659400999343023_" gradientUnits="userSpaceOnUse" x1="-1442.8145" y1="854.3716" x2="-1442.7944" y2="855.3716" gradientTransform="matrix(188.25 0 0 287.08 272009.3125 -245180.5625)">
	<stop  offset="0" style="stop-color:#5D4873"/>
	<stop  offset="1" style="stop-color:#E0DCE6"/>
</linearGradient>
<path style="fill:url(#SVGID_00000009552591198220881490000002431659400999343023_);" d="M380.3,95c-20,4.2-39.8,20.2-52.2,42.1
	c-1.7,3.1-3.1,6.2-3.1,7s-1.1,3.1-2.5,5.1c-3.3,4.9-8.9,21.6-11.4,34.3c-2.3,11.4-4.5,32.3-3.8,35.1c0.3,1.1,0.5,0,0.6-2.3
	c0-2.2,1-9.4,2.1-15.8c7.4-43.3,31.3-76.2,61-84c7.3-1.9,23.6-1.9,31.2,0c32.1,8.4,58.2,40.9,69.9,87.4c7.6,30.1,8,67.2,0.8,95.3
	c-8.1,32.3-26.2,59.4-46.9,70.2c-6.6,3.5-7.4,3.6-22.7,4.7c-8.7,0.6-16,1.3-16.2,1.5c-0.2,0.1,2.3,1.6,5.5,3.1
	c5.4,2.6,6.8,2.8,16.9,2.7c18.4-0.2,30.6-5.7,45.6-20.4c16-15.7,27.6-37.3,34.3-63.5c10.3-40.7,7.2-90.1-7.9-128.5
	c-1.9-4.8-3.5-9.3-3.5-10c0-1.8-10.5-19.4-16.2-27.2c-6.9-9.4-20.6-22.1-29.7-27.4c-11.9-7-21.3-9.6-35.6-10
	C389.9,94.2,382.6,94.5,380.3,95L380.3,95z"/>
<linearGradient id="SVGID_00000072992546507319429940000012485790066225910917_" gradientUnits="userSpaceOnUse" x1="-1399.2506" y1="901.1429" x2="-1398.2507" y2="901.1429" gradientTransform="matrix(28.02 0 0 14 39338.3125 -12267)">
	<stop  offset="0" style="stop-color:#6634A8"/>
	<stop  offset="1" style="stop-color:#6634A8"/>
</linearGradient>
<path style="fill:url(#SVGID_00000072992546507319429940000012485790066225910917_);" d="M134.9,345.7c1.6,2.1,3.3,5,3.6,6.4
	c0.8,3.1,3.8,3.9,14.3,3.9c4.7,0,6.4-0.4,6.8-1.5c1-2.4-0.4-6.1-3.5-9.4c-1.9-2.1-6.4-3.1-13.5-3.1h-10.7L134.9,345.7L134.9,345.7z"
	/>
<linearGradient id="SVGID_00000078025213659984980520000008408712214247646619_" gradientUnits="userSpaceOnUse" x1="-1434.7351" y1="857.5057" x2="-1435.135" y2="858.4158" gradientTransform="matrix(93.3 0 0 124.88 134261.7812 -106616.9062)">
	<stop  offset="0" style="stop-color:#4E0020"/>
	<stop  offset="1" style="stop-color:#A046B6"/>
</linearGradient>
<path style="fill:url(#SVGID_00000078025213659984980520000008408712214247646619_);" d="M368.8,464.9
	c-11.1,4.4-19.6,12.8-25.3,24.6c-9.6,19.9-10,49.5-1,66.2c8.2,15.3,17.3,23.9,30.7,29.2c11.2,4.5,16.6,4.3,24.9-1
	c14.4-9.3,24.7-23.4,29-39.6c2.7-10.2,3-28.6,0.5-38.8c-4.2-17.5-15.3-32.9-28.1-39c-5.1-2.5-7.4-2.9-16-3.2
	C375.5,463,372.6,463.4,368.8,464.9L368.8,464.9z M389.3,478.2c10.7,5,19.8,17.5,23.2,32.1c1.9,8.1,1.9,23.7,0,31.2
	c-3.9,14.8-12.7,27-23.4,32.2c-7.9,3.9-18.1,3.9-26.3,0.1c-7.1-3.3-15.7-11.6-19.2-18.6c-8.5-16.7-8.8-41.2-0.9-58
	c4.5-9.6,14-18.3,23.3-21.3C371.2,474.2,383.2,475.4,389.3,478.2L389.3,478.2z"/>
<linearGradient id="SVGID_00000036938617065127432160000001691620222052588185_" gradientUnits="userSpaceOnUse" x1="-1418.1956" y1="860.5604" x2="-1417.9855" y2="859.5403" gradientTransform="matrix(44.67 0 0 90.85 63489.6289 -77921.9531)">
	<stop  offset="0" style="stop-color:#360754"/>
	<stop  offset="1" style="stop-color:#462097"/>
</linearGradient>
<path style="fill:url(#SVGID_00000036938617065127432160000001691620222052588185_);" d="M124.5,163c1.7,0.4,7.7,0.9,13.5,1
	s11.6,0.5,13,0.9c3.8,1,11.2,11,13.8,18.6c1.2,3.6,2,7,1.7,7.5c-1.8,2.9-12.3-0.4-17.9-5.7l-2.9-2.7l0.7,2.5
	c9,31.3,0.1,60.7-20.4,67c-3.2,1,7.8,1.1,17.2,0.3l6.7-0.7l4.1-5.8c5.9-8.4,11.8-21.3,13.6-29.9c2.1-9.9,1.3-25-1.9-33.5
	c-3.7-9.9-10.1-18.4-13.9-18.5c-1,0-1.8-0.5-1.8-1c0-0.6-5.3-1-14.2-0.9C127,162.2,122.7,162.5,124.5,163L124.5,163z"/>
<linearGradient id="SVGID_00000166663079561382646380000008321608303758001834_" gradientUnits="userSpaceOnUse" x1="-1411.5586" y1="876.9968" x2="-1410.5585" y2="876.9968" gradientTransform="matrix(36.76 0 0 27.94 52020.8281 -24325.3203)">
	<stop  offset="0" style="stop-color:#6736AA"/>
	<stop  offset="1" style="stop-color:#6736AA"/>
</linearGradient>
<path style="fill:url(#SVGID_00000166663079561382646380000008321608303758001834_);" d="M134.2,167.3c2.4,1.8,5.7,5.7,7.5,8.7
	c3.9,6.8,8.5,11.4,13.9,14c4.3,2.1,9.9,2.6,10.9,1c0.3-0.5-0.5-3.9-1.7-7.5c-2.6-7.6-10-17.6-13.8-18.6c-1.4-0.4-6.7-0.7-11.8-0.8
	l-9.4-0.1L134.2,167.3L134.2,167.3z"/>
<linearGradient id="SVGID_00000089550074084498587620000006960937928086270346_" gradientUnits="userSpaceOnUse" x1="-1361.4443" y1="881.2325" x2="-1361.4443" y2="880.2323" gradientTransform="matrix(16.27 0 0 24.12 22267.7617 -21040.3008)">
	<stop  offset="0" style="stop-color:#C9F801"/>
	<stop  offset="1" style="stop-color:#FB9B31"/>
</linearGradient>
<path style="fill:url(#SVGID_00000089550074084498587620000006960937928086270346_);" d="M111.1,197.6c-2.3,2.9-2.9,11.2-1.2,15.7
	c2.1,5.5,7.3,7.3,11.8,4.2c4.4-3.1,4.7-16.2,0.6-20.7C119.7,193.9,113.6,194.4,111.1,197.6z"/>
<linearGradient id="SVGID_00000004507148032363978290000010773418343568921508_" gradientUnits="userSpaceOnUse" x1="-1391.083" y1="854.0076" x2="-1390.084" y2="854.0076" gradientTransform="matrix(24.2 0 0 439.91 33885.5312 -375473.1562)">
	<stop  offset="0" style="stop-color:#A68EFF"/>
	<stop  offset="1" style="stop-color:#A68EFF"/>
</linearGradient>
<path style="fill:url(#SVGID_00000004507148032363978290000010773418343568921508_);" d="M222.6,12.1
	c1.9,13.1,10.8,103.4,12.4,125.4c4.1,57.8,7.4,135.1,9,215c1.8,86.1,2.7,86.2,2.6,0.5l-0.2-126.5l-5.2-49c-2.9-27-6.8-65.7-8.7-86.2
	c-4-43.2-8.4-80.4-9.6-81.7C222.4,9.1,222.3,10.2,222.6,12.1z"/>
<linearGradient id="SVGID_00000101097165915718071770000004744691135188002750_" gradientUnits="userSpaceOnUse" x1="-1443.9994" y1="874.5473" x2="-1442.9994" y2="874.5473" gradientTransform="matrix(207.11 0 0 30.9 299100.0625 -26415.9609)">
	<stop  offset="0" style="stop-color:#000000;stop-opacity:0.23"/>
	<stop  offset="1" style="stop-color:#000000;stop-opacity:0.23"/>
</linearGradient>
<path style="fill:url(#SVGID_00000101097165915718071770000004744691135188002750_);" d="M36,592.6c6.6,1.6,197.1,30.4,200.9,30.4
	c4.4,0,4.9-0.2,5.5-2.6c0.4-1.5,0.5-2.9,0.2-3.1c-0.7-0.7-201.4-25.3-205.1-25.2C35.9,592.2,35.2,592.4,36,592.6L36,592.6z"/>
<linearGradient id="SVGID_00000147215739458526254540000005317597633966647479_" gradientUnits="userSpaceOnUse" x1="-1441.5187" y1="855.0921" x2="-1442.5187" y2="855.1521" gradientTransform="matrix(170.93 0 0 259.61 246879.5 -221753.8594)">
	<stop  offset="0" style="stop-color:#FFFFFF;stop-opacity:0.14"/>
	<stop  offset="1" style="stop-color:#FFFFFF;stop-opacity:0.32"/>
</linearGradient>
<path style="fill:url(#SVGID_00000147215739458526254540000005317597633966647479_);" d="M370.5,116.5
	c-35.9,9.9-60.9,53.5-63.2,110.5c-1.3,32.3,4.6,62.4,18.4,94c2.9,6.7,14.1,22.8,20.8,29.9c8.2,8.7,13.5,12.6,24,17.9
	c12.2,6.1,14.8,6.6,33,5.3c15.1-1.1,15.9-1.2,22.5-4.7c20.7-10.8,38.8-37.9,46.9-70.2c5.2-20.2,6.6-49.6,3.6-72.5
	c-7.5-57-36.8-100.4-74.3-110.2C394.8,114.6,377.5,114.6,370.5,116.5L370.5,116.5z M400,130.9c18.5,5.9,36.7,23.5,48.3,46.6
	c12.9,25.9,19.2,64.1,15.7,95c-2.3,19.5-6.2,33.1-14,49c-23.9,48.2-68.1,56.5-103.6,19.3c-37.4-39-47.4-120.3-21.3-172.4
	c10-20,26.4-34.5,43.7-38.9C376.6,127.5,391.6,128.2,400,130.9L400,130.9z"/>
<linearGradient id="SVGID_00000147903160519482333210000012467085724167883960_" gradientUnits="userSpaceOnUse" x1="-1444.917" y1="854.6747" x2="-1444.437" y2="853.8146" gradientTransform="matrix(249.97 0 0 389.2 361508.4688 -332229.1875)">
	<stop  offset="0" style="stop-color:#FF0000;stop-opacity:0"/>
	<stop  offset="1" style="stop-color:#FF0000;stop-opacity:0.76"/>
</linearGradient>
<path style="fill:url(#SVGID_00000147903160519482333210000012467085724167883960_);" d="M354.5,51.5c-53.8,9.9-91.8,63.4-101,142.1
	c-1.7,14.9-2,47.6-0.5,63.9c5.8,62.9,26.3,113.6,59.5,147.1c15.7,15.8,32.4,26.3,51.2,32.1c8.1,2.5,10.1,2.7,26.3,2.7s18-0.1,26-2.8
	c30.8-10.2,55.9-33.6,74.4-69.6c5.9-11.6,11.7-26.4,11.6-30c-0.1-0.8-1.6,2.1-3.4,6.5c-18.1,43.9-45.8,72.2-78.4,80.2
	c-10.5,2.6-27.4,2.1-39.3-1c-12.8-3.3-19.5-6.1-30.9-12.9c-16.7-9.8-26.3-20.3-42.5-46.3c-18-28.8-28.7-59.6-34.7-99.8
	c-2.8-18.8-3.1-63.1-0.5-80c4.2-27.1,9.9-46.3,20.1-67.2c17.9-36.6,45.5-60.3,76.3-65.5l4.8-0.8h-6
	C364.2,50.2,358.4,50.8,354.5,51.5L354.5,51.5z"/>
<linearGradient id="SVGID_00000023281140486963853400000003860995563059229832_" gradientUnits="userSpaceOnUse" x1="-1443.3615" y1="854.4974" x2="-1442.5615" y2="853.8875" gradientTransform="matrix(245.35 0 0 375.08 354822.125 -320200.9375)">
	<stop  offset="0" style="stop-color:#503D84"/>
	<stop  offset="1" style="stop-color:#9C8A90"/>
</linearGradient>
<path style="fill:url(#SVGID_00000023281140486963853400000003860995563059229832_);" d="M760.8,11.7c-17.9,3.2-35,12.6-49.4,26.9
	c-19.7,19.7-35.3,50.1-42.7,83.4c-5.2,22.8-6,31.2-6,60.7c0.1,22.9,0.4,29.9,2.2,41.7c6,40.2,16.7,71,34.7,99.8
	c16.2,26,25.8,36.5,42.5,46.3c11.4,6.8,18.1,9.6,30.9,12.9c11.9,3.1,28.8,3.6,39.3,1c29.7-7.3,55.3-31.3,73.3-68.9
	c13-27.3,20-56.5,22.1-92.6c0.6-10.9,0.5-12.2-0.9-11.6c-1.3,0.5-2.8-3.3-8.2-20.2c-3.7-11.4-8.8-26.4-11.5-33.3
	c-5.5-14.6-16.1-38.4-16.7-37.7c-0.3,0.2,1.1,4.5,3.1,9.4c15.2,38.6,18.3,87.9,8,128.7c-6.7,26.2-18.3,47.8-34.3,63.5
	c-15,14.7-27.2,20.2-45.6,20.4c-10.1,0.1-11.5-0.1-16.9-2.7c-3.2-1.5-5.7-3-5.5-3.1c0.2-0.2,7.5-0.9,16.2-1.5
	c15.3-1.1,16.1-1.2,22.7-4.7c20.7-10.8,38.8-37.9,46.9-70.2c5.2-20.2,6.6-49.6,3.6-72.5c-7.5-57-36.8-100.4-74.3-110.2
	c-7.6-1.9-23.9-1.9-31.2,0c-29.7,7.8-53.6,40.7-61,84c-1.1,6.4-2.1,13.6-2.1,15.8c-0.1,2.3-0.3,3.4-0.6,2.3
	c-0.7-2.8,1.5-23.7,3.8-35.1c2.5-12.7,8.1-29.4,11.4-34.3c1.4-2,2.5-4.3,2.5-5.1s1.4-3.9,3.1-7c12.8-22.7,32.7-38.3,53.6-42.2
	c3.2-0.6,10.5-0.9,16.3-0.6c18.8,0.8,34.3,7.7,50.1,22.3l8.4,7.8l-7.5-7.8c-12.2-12.7-25.3-20.8-41-25.7c-11-3.4-24.6-3.2-35.5,0.5
	C753.3,56,743,62.7,732.5,73.2c-10.4,10.3-17.5,19.5-26.7,34.5c-5.2,8.5-6.9,10.6-9,10.8c-2.3,0.3-2.7-0.1-3.3-3.4
	c-1.8-9.8,2.6-31.5,10-49c11.6-27.4,30.2-45.7,52.2-51.1c9.1-2.2,28.1-2.1,38.9,0.2c15.8,3.3,32.7,11.5,46.1,22.3
	c8.5,6.8,9.5,6.1,1.2-0.8c-13.7-11.5-28.1-19.3-42.5-23.1C790.7,11.2,769,10.2,760.8,11.7L760.8,11.7z M688.9,214
	c2.7,2.9,5.8,10,11.5,26.4c8.8,25.2,15.6,39.9,25.4,54.8c6.8,10.3,22.6,27.9,28.1,31.3c2,1.3,14.1,7.5,26.8,13.7
	c12.6,6.3,24.9,13.1,27.1,15c4.9,4.1,7.7,10.5,6.8,15.2c-0.8,4.4-6,10.2-11.2,12.5c-3.6,1.6-5.2,1.7-14,0.8
	c-31.9-3.3-47.1-10.6-68.9-33.2c-11.5-11.9-17.1-21.5-22.8-38.9c-13.1-39.9-20.1-99.9-11.7-99.9C686.4,211.7,687.7,212.7,688.9,214
	L688.9,214z"/>
<linearGradient id="SVGID_00000157997431144229911500000016689406854333093289_" gradientUnits="userSpaceOnUse" x1="-1424.068" y1="858.8391" x2="-1424.068" y2="859.8391" gradientTransform="matrix(77.01 0 0 101.36 110627.2812 -86566.6719)">
	<stop  offset="0" style="stop-color:#FFAD05"/>
	<stop  offset="1" style="stop-color:#097EFF"/>
</linearGradient>
<path style="fill:url(#SVGID_00000157997431144229911500000016689406854333093289_);" d="M950.3,488.5c-9.3,3-18.8,11.7-23.3,21.3
	c-7.9,16.8-7.6,41.3,0.9,58c3.5,7,12.1,15.3,19.2,18.6c8.2,3.8,18.4,3.8,26.3-0.1c15.1-7.4,24.9-26.1,24.9-47.7
	c-0.1-29.2-15.6-50-38-50.7C956.2,487.8,951.7,488,950.3,488.5L950.3,488.5z"/>
<linearGradient id="SVGID_00000037663891499126201650000009683900440628427428_" gradientUnits="userSpaceOnUse" x1="-1436.8899" y1="856.8047" x2="-1437.22" y2="857.2247" gradientTransform="matrix(132.51 0 0 172.45 191113.8281 -147356.4688)">
	<stop  offset="0" style="stop-color:#79637C"/>
	<stop  offset="1" style="stop-color:#8577C4"/>
</linearGradient>
<path style="fill:url(#SVGID_00000037663891499126201650000009683900440628427428_);" d="M640.5,330c-5.9,7,1.7,63.1,13.4,98.6
	c5.7,17.4,11.3,27,22.8,38.9c21.8,22.6,37,29.9,68.9,33.2c8.8,0.9,10.4,0.8,14-0.8c5.2-2.3,10.4-8.1,11.2-12.5
	c0.9-4.7-1.9-11.1-6.8-15.2c-2.2-1.9-14.5-8.7-27.1-15c-12.7-6.2-24.8-12.4-26.8-13.7c-5.5-3.4-21.3-21-28.1-31.3
	c-9.8-14.9-16.6-29.6-25.4-54.8c-5.7-16.4-8.8-23.5-11.5-26.4C642.6,328.4,641.9,328.2,640.5,330L640.5,330z"/>
<linearGradient id="SVGID_00000143581107400594769090000003380710308350080180_" gradientUnits="userSpaceOnUse" x1="-1440.9794" y1="856.0497" x2="-1440.4294" y2="855.4197" gradientTransform="matrix(214.25 0 0 198.49 309729.7188 -169740.7969)">
	<stop  offset="0" style="stop-color:#735F88"/>
	<stop  offset="1" style="stop-color:#D9D5E0"/>
</linearGradient>
<path style="fill:url(#SVGID_00000143581107400594769090000003380710308350080180_);" d="M1000.7,13.2
	c-27.1,3.1-48.3,21.3-61.6,52.7c-7.4,17.5-11.8,39.2-10,49c0.6,3.3,1,3.7,3.3,3.4c2.1-0.2,3.8-2.3,9-10.8
	c9.2-15,16.3-24.2,26.7-34.5c10.5-10.5,20.8-17.2,32.1-21.1c10.9-3.7,24.5-3.9,35.5-0.5c15,4.6,26.4,11.5,38.3,23
	c23.2,22.4,41,56.9,60.2,116.5c4.3,13.5,7,20.6,7.8,20.3c1.6-0.5,1.1-21.4-0.9-37.2c-4-32-12.3-60.1-25.3-86
	c-12.4-24.5-25-40.2-43-53.4C1051.2,18.7,1023.8,10.6,1000.7,13.2L1000.7,13.2z"/>
<linearGradient id="SVGID_00000162341324125571974160000003303824868920186037_" gradientUnits="userSpaceOnUse" x1="-1439.4993" y1="854.3815" x2="-1439.4792" y2="855.3815" gradientTransform="matrix(188.25 0 0 287.08 272009.3125 -245180.5625)">
	<stop  offset="0" style="stop-color:#5D4873"/>
	<stop  offset="1" style="stop-color:#E0DCE6"/>
</linearGradient>
<path style="fill:url(#SVGID_00000162341324125571974160000003303824868920186037_);" d="M1004.4,98.8c-20,4.2-39.8,20.2-52.2,42.1
	c-1.7,3.1-3.1,6.2-3.1,7s-1.1,3.1-2.5,5.1c-3.3,4.9-8.9,21.6-11.4,34.3c-2.3,11.4-4.5,32.3-3.8,35.1c0.3,1.1,0.5,0,0.6-2.3
	c0-2.2,1-9.4,2.1-15.8c7.4-43.3,31.3-76.2,61-84c7.3-1.9,23.6-1.9,31.2,0c32.1,8.4,58.2,40.9,69.9,87.4c7.6,30.1,8,67.2,0.8,95.3
	c-8.1,32.3-26.2,59.4-46.9,70.2c-6.6,3.5-7.4,3.6-22.7,4.7c-8.7,0.6-16,1.3-16.2,1.5c-0.2,0.1,2.3,1.6,5.5,3.1
	c5.4,2.6,6.8,2.8,16.9,2.7c18.4-0.2,30.6-5.7,45.6-20.4c16-15.7,27.6-37.3,34.3-63.5c10.3-40.7,7.2-90.1-7.9-128.5
	c-1.9-4.8-3.5-9.3-3.5-10c0-1.8-10.5-19.4-16.2-27.2c-6.9-9.4-20.6-22.1-29.7-27.4c-11.9-7-21.3-9.6-35.6-10
	C1014,98,1006.7,98.3,1004.4,98.8L1004.4,98.8z"/>
<linearGradient id="SVGID_00000000934016499236707080000006222036281034046388_" gradientUnits="userSpaceOnUse" x1="-1429.8256" y1="857.6628" x2="-1430.2256" y2="858.5729" gradientTransform="matrix(93.3 0 0 124.88 134261.7812 -106616.9062)">
	<stop  offset="0" style="stop-color:#4E0020"/>
	<stop  offset="1" style="stop-color:#A046B6"/>
</linearGradient>
<path style="fill:url(#SVGID_00000000934016499236707080000006222036281034046388_);" d="M827,484.1c-11.1,4.4-19.6,12.8-25.3,24.6
	c-9.6,19.9-10,49.5-1,66.2c8.2,15.3,17.3,23.9,30.7,29.2c11.2,4.5,16.6,4.3,24.9-1c14.4-9.3,24.7-23.4,29-39.6
	c2.7-10.2,3-28.6,0.5-38.8c-4.2-17.5-15.3-32.9-28.1-39c-5.1-2.5-7.4-2.9-16-3.2C833.7,482.2,830.8,482.6,827,484.1L827,484.1z
	 M847.5,497.4c10.7,5,19.8,17.5,23.2,32.1c1.9,8.1,1.9,23.7,0,31.2c-3.9,14.8-12.7,27-23.4,32.2c-7.9,3.9-18.1,3.9-26.3,0.1
	c-7.1-3.3-15.7-11.6-19.2-18.6c-8.5-16.7-8.8-41.2-0.9-58c4.5-9.6,14-18.3,23.3-21.3C829.4,493.4,841.4,494.6,847.5,497.4
	L847.5,497.4z"/>
<rect x="265.9" y="47.3" class="st38" width="266.1" height="382.9"/>
<rect x="327.4" y="454" class="st38" width="109.9" height="138.1"/>
<linearGradient id="SVGID_00000111912212861493370090000007881022842934711732_" gradientUnits="userSpaceOnUse" x1="-1413.5012" y1="861.5853" x2="-1412.5012" y2="861.5853" gradientTransform="matrix(56.54 0 0 76.1 80935.6641 -65028.0898)">
	<stop  offset="0" style="stop-color:#230540"/>
	<stop  offset="1" style="stop-color:#230540"/>
</linearGradient>
<path style="fill:url(#SVGID_00000111912212861493370090000007881022842934711732_);" d="M1035.6,502.5c-5.9,2.7-11.2,8.4-14.8,16
	c-3,6.3-3.1,7.2-3.1,19.1c0,10.7,0.4,13.3,2.3,18.2c4.6,11.4,16.2,20.8,25.9,20.8c22.6,0,36.2-34.7,23.4-59.7
	C1062.4,503.2,1047.8,497,1035.6,502.5L1035.6,502.5z"/>
<g>
	<line class="st3" x1="454.9" y1="545" x2="650.5" y2="545"/>
	<path d="M697,545c-21.9,3.2-49,8.5-65.9,14.3l13.3-14.3l-13.3-14.3C648,536.5,675.1,541.9,697,545z"/>
</g>
</svg>
