<?xml version="1.0" encoding="utf-8"?>
<!-- Generator: Adobe Illustrator 26.5.0, SVG Export Plug-In . SVG Version: 6.00 Build 0)  -->
<svg version="1.1" id="图层_1" xmlns="http://www.w3.org/2000/svg" xmlns:xlink="http://www.w3.org/1999/xlink" x="0px" y="0px"
	 viewBox="0 0 740 320" style="enable-background:new 0 0 740 320;" xml:space="preserve">
<style type="text/css">
	.st0{fill:none;}
	.st1{fill:#D3D3D3;}
	.st2{fill:url(#SVGID_00000142872564493186922860000001696276841845311367_);}
	.st3{fill:url(#SVGID_00000096053913110060231210000017165331735082567334_);}
	.st4{fill:url(#SVGID_00000045587322421054096950000002438800329667259817_);}
	.st5{fill:url(#SVGID_00000084504176057218687090000015560745220070169245_);}
	.st6{fill:url(#SVGID_00000011710910642863308430000002176019083344685198_);}
	.st7{fill:url(#SVGID_00000181046971006832990840000003147625064078361759_);}
	.st8{fill:url(#SVGID_00000000930345086066721320000005818108161980160187_);}
	.st9{fill:url(#SVGID_00000091722074579396623630000000113664088522712473_);}
	.st10{fill:url(#SVGID_00000111164750445998687630000002897365401541522073_);}
	.st11{fill:url(#SVGID_00000111154679172545636780000006165546175572419980_);}
	.st12{fill:url(#SVGID_00000152950172501669491140000014480610404773275825_);}
	.st13{fill:url(#SVGID_00000012440413901920630480000016755597168744767885_);}
	.st14{fill:url(#SVGID_00000020356430235179327450000007571675850505705919_);}
	.st15{fill:url(#SVGID_00000121250293092709987140000012484596039011486648_);}
	.st16{fill:url(#SVGID_00000019645814439713569710000005536703419938537888_);}
	.st17{fill:url(#SVGID_00000124150339760316866030000000568392205514884741_);}
	.st18{fill:url(#SVGID_00000127041228359243510010000007341982747723982480_);}
	.st19{fill:url(#SVGID_00000127740550611541615290000014479122249460252345_);}
	.st20{fill:url(#SVGID_00000095296579830663742200000003442755079888440226_);}
	.st21{fill:url(#SVGID_00000169551123824082435230000016000778102652573089_);}
	.st22{fill:url(#SVGID_00000042731912167796141970000006191763933254647486_);}
	.st23{fill:url(#SVGID_00000160176022725866455530000018167777259353532818_);}
	.st24{fill:url(#SVGID_00000021828947417929285220000006394526227750273937_);}
	.st25{fill:url(#SVGID_00000119113660911734656080000005779131959418421395_);}
	.st26{fill:url(#SVGID_00000104680956480747852250000001809809657514821040_);}
	.st27{fill:url(#SVGID_00000079458041832723948250000015079256518338906770_);}
	.st28{fill:url(#SVGID_00000072248008169283194560000005788155263648096670_);}
	.st29{fill:url(#SVGID_00000077291794301314336590000000967899809814802827_);}
	.st30{fill:url(#SVGID_00000007403580346330522520000005539518332506436755_);}
	.st31{fill:url(#SVGID_00000011015340784780791110000007224502709172188061_);}
	.st32{fill:url(#SVGID_00000031918523743489428840000017052248338699801768_);}
	.st33{fill:url(#SVGID_00000072974076531819201720000017987805705371085713_);stroke:#000000;stroke-miterlimit:10;}
	.st34{fill:url(#SVGID_00000103249076668633142490000016224877232889726135_);}
	.st35{fill:url(#SVGID_00000038394236706424277260000007471332491200774571_);}
	.st36{fill:url(#SVGID_00000068641370843554433220000000533422530325949329_);}
	.st37{fill:url(#SVGID_00000017498968880429890110000010944164448154534329_);stroke:#000000;stroke-miterlimit:10;}
	.st38{fill:url(#SVGID_00000115481465045799727210000007242160868229360297_);stroke:#000000;stroke-miterlimit:10;}
	.st39{fill:url(#SVGID_00000034810452954671975390000011766399468585089980_);}
	.st40{fill:none;stroke:#3FA9F5;stroke-width:4;stroke-linecap:round;stroke-miterlimit:10;}
	.st41{fill:#3FA9F5;}
	.st42{fill:none;stroke:#FF0000;stroke-width:3;stroke-miterlimit:10;}
</style>
<pattern  y="320" width="40" height="40" patternUnits="userSpaceOnUse" id="SVGID_1_" viewBox="0 -40 40 40" style="overflow:visible;">
	<g>
		<rect y="-40" class="st0" width="40" height="40"/>
		<g>
			<rect y="-40" class="st0" width="40" height="40"/>
			<g>
				<rect y="-40" class="st0" width="40" height="40"/>
				<g>
					<rect y="-40" class="st0" width="40" height="40"/>
					<rect y="-40" class="st0" width="40" height="40"/>
					<rect y="-20" class="st1" width="20" height="20"/>
					<rect x="20" y="-40" class="st1" width="20" height="20"/>
				</g>
			</g>
		</g>
	</g>
</pattern>
<pattern  id="SVGID_00000018208670146259021510000007541460030127727294_" xlink:href="#SVGID_1_" patternTransform="matrix(1 0 0 -1 54 -32723.4082)">
</pattern>
<rect style="fill:url(#SVGID_00000018208670146259021510000007541460030127727294_);" width="740" height="320"/>
<g transform="translate(0.000000,300.000000) scale(0.100000,-0.100000)">
	<g>
		
			<linearGradient id="SVGID_00000077315628459494226310000009069598815151746691_" gradientUnits="userSpaceOnUse" x1="-579660.375" y1="-5718549.5" x2="-579659.625" y2="-5718549.5" gradientTransform="matrix(0.5 0 0 0.3 290055 1716963)">
			<stop  offset="0" style="stop-color:#FEFBBE"/>
			<stop  offset="1" style="stop-color:#FEFBBE"/>
		</linearGradient>
		<path style="fill:url(#SVGID_00000077315628459494226310000009069598815151746691_);" d="M224.8,1398.2V197.4h2001.4h2001.4
			v1200.8V2599H2226.2H224.8V1398.2z"/>
	</g>
</g>
<g transform="translate(0.000000,300.000000) scale(0.100000,-0.100000)">
	<g>
		
			<linearGradient id="SVGID_00000126304968533460182510000015434109285430659480_" gradientUnits="userSpaceOnUse" x1="-452407.2812" y1="-5914751" x2="-452406.4688" y2="-5914751" gradientTransform="matrix(0.1069 0 0 4.127000e-02 49881.4258 245803.5312)">
			<stop  offset="0" style="stop-color:#AAA465"/>
			<stop  offset="1" style="stop-color:#AAA465"/>
		</linearGradient>
		<path style="fill:url(#SVGID_00000126304968533460182510000015434109285430659480_);" d="M2084.5,1859.3
			c-132.9-25.6-201.7-59.2-414.7-203.3c-185.7-124.9-168.1-112.1-161.7-119.3c3.2-2.4,64.8,35.2,137.7,84.1
			c284.2,192.1,481.1,253,692.5,213c42.4-8,19.2,8.8-27.2,20C2248.6,1868.9,2147.7,1871.3,2084.5,1859.3z"/>
	</g>
</g>
<g transform="translate(0.000000,300.000000) scale(0.100000,-0.100000)">
	<g>
		
			<linearGradient id="SVGID_00000160179781724984033180000011649041584833073331_" gradientUnits="userSpaceOnUse" x1="-244573.1719" y1="-6182237.5" x2="-244572.3594" y2="-6182237.5" gradientTransform="matrix(4.667000e-02 0 0 1.898000e-02 13337.6289 119094.5859)">
			<stop  offset="0" style="stop-color:#AAA465"/>
			<stop  offset="1" style="stop-color:#AAA465"/>
		</linearGradient>
		<path style="fill:url(#SVGID_00000160179781724984033180000011649041584833073331_);" d="M2173.3,1810.5
			c-31.2-10.4-77.6-28.8-104.1-40c-53.6-23.2-149.7-84.1-144.1-90.5c2.4-2.4,41.6,14.4,86.5,36.8c45.6,22.4,127.3,56,182.5,74.5
			c55.2,18.4,101.7,34.4,103.3,36C2309.4,1838.5,2219.8,1826.5,2173.3,1810.5z"/>
	</g>
</g>
<g transform="translate(0.000000,300.000000) scale(0.100000,-0.100000)">
	<g>
		
			<linearGradient id="SVGID_00000124158188094420018610000002421771047789977231_" gradientUnits="userSpaceOnUse" x1="-82801.5703" y1="-6230525.5" x2="-82800.7656" y2="-6230525.5" gradientTransform="matrix(3.211000e-02 0 0 1.741000e-02 5382.8037 110293.5547)">
			<stop  offset="0" style="stop-color:#FFFFFF"/>
			<stop  offset="1" style="stop-color:#FFFFFF"/>
		</linearGradient>
		<path style="fill:url(#SVGID_00000124158188094420018610000002421771047789977231_);" d="M2939.5,1880.9
			c-56.8-19.2-238.6-130.5-213-130.5c4,0,241.8,126.5,251.4,133.7C2989.1,1892.9,2969.9,1891.3,2939.5,1880.9z"/>
	</g>
</g>
<g transform="translate(0.000000,300.000000) scale(0.100000,-0.100000)">
	<g>
		
			<linearGradient id="SVGID_00000159466554512079602280000014552995679500780687_" gradientUnits="userSpaceOnUse" x1="-509729.9688" y1="-5765017.5" x2="-509729.1562" y2="-5765017.5" gradientTransform="matrix(0.1679 0 0 0.119 85912.2031 686824.25)">
			<stop  offset="0" style="stop-color:#AAA465"/>
			<stop  offset="1" style="stop-color:#AAA465"/>
		</linearGradient>
		<path style="fill:url(#SVGID_00000159466554512079602280000014552995679500780687_);" d="M1588.1,1455.8
			c-63.2-44-381.9-284.2-481.1-362.7c-35.2-28-63.2-56-61.6-60.8c3.2-10.4-112.9-96.1-125.7-92.1c-15.2,4-144.1-72.8-315.4-187.3
			C407.4,620.8,298.5,541.6,312.9,541.6c5.6,0,57.6,29.6,115.3,66.4c57.6,36.8,124.9,76.8,148.9,88.9
			c107.3,55.2,358.6,214.6,457.9,290.6c24.8,18.4,48.8,34.4,53.6,34.4c22.4,0,342.6,245.8,333,254.6c-5.6,6.4-63.2-34.4-201.7-140.9
			c-70.4-55.2-136.9-100.9-145.7-101.7c-9.6-0.8-16-0.8-14.4,0c99.3,72.8,582.8,439.5,590,448.3
			C1668.2,1504.7,1645,1494.2,1588.1,1455.8z"/>
	</g>
</g>
<g transform="translate(0.000000,300.000000) scale(0.100000,-0.100000)">
	<g>
		
			<linearGradient id="SVGID_00000071532605314395453320000004696471084856977076_" gradientUnits="userSpaceOnUse" x1="-524689.375" y1="-5811927" x2="-524688.5625" y2="-5811927" gradientTransform="matrix(0.1939 0 0 7.404000e-02 102704.2734 431360.5312)">
			<stop  offset="0" style="stop-color:#AAA465"/>
			<stop  offset="1" style="stop-color:#AAA465"/>
		</linearGradient>
		<path style="fill:url(#SVGID_00000071532605314395453320000004696471084856977076_);" d="M2525.6,1335.7
			c-4-3.2-21.6-30.4-39.2-61.6c-45.6-84.1-141.7-176.1-228.2-217.8c-112.1-54.4-210.6-75.2-376.3-79.3l-140.1-3.2l72.1,24
			c53.6,18.4,91.3,24.8,148.1,27.2c171.3,7.2,365.8,79.3,442.7,164.1c34.4,38.4,72,101.7,68,114.5c-2.4,5.6-14.4-7.2-28.8-27.2
			c-74.5-108.1-224.2-192.1-401.9-225.8c-104.1-20-107.3-14.4-11.2,19.2c49.6,16.8,96.1,34.4,104.1,39.2
			c40.8,23.2-36.8,2.4-293-79.3c-151.3-48-276.2-86.5-277.8-84.9s24,14.4,57.6,28.8c32.8,14.4,60,29.6,60,33.6
			c0,4.8-6.4,5.6-13.6,2.4c-8-3.2-37.6-13.6-66.4-24c-99.3-35.2-610-229-615.6-233c-22.4-19.2,180.1,44,365.9,113.7
			c28,10.4,53.6,17.6,56.8,15.2c3.2-1.6,67.2,15.2,141.7,36.8l135.3,40l116.1-0.8c130.5-0.8,320.2,12,375.5,25.6
			c20,4.8,65.6,23.2,100.9,40.8c74.5,38.4,171.3,128.9,205.7,193.7c20,37.6,56.8,124.1,52,124.1
			C2535.2,1342.1,2530.4,1338.9,2525.6,1335.7z"/>
	</g>
	<g>
		
			<linearGradient id="SVGID_00000006699794282914946240000012059195171592809391_" gradientUnits="userSpaceOnUse" x1="-260104.1562" y1="-6123991" x2="-260103.3438" y2="-6123991" gradientTransform="matrix(4.962000e-02 0 0 2.091000e-02 13532.2773 128758.0156)">
			<stop  offset="0" style="stop-color:#AAA465"/>
			<stop  offset="1" style="stop-color:#AAA465"/>
		</linearGradient>
		<path style="fill:url(#SVGID_00000006699794282914946240000012059195171592809391_);" d="M932.5,762.5
			c-39.2-14.4-123.3-48.8-186.5-76.8c-103.3-46.4-135.3-64-113.7-64c23.2,0,354.6,135.3,381.9,156.1
			C1038.9,797,1012.5,791.4,932.5,762.5z"/>
	</g>
</g>
<g transform="translate(0.000000,300.000000) scale(0.100000,-0.100000)">
	<g>
		
			<linearGradient id="SVGID_00000160899320124800433120000008407358278050997655_" gradientUnits="userSpaceOnUse" x1="-292653.0625" y1="-6214973" x2="-292652.2812" y2="-6214973" gradientTransform="matrix(5.364000e-02 0 0 1.756000e-02 17605.9922 110285.7109)">
			<stop  offset="0" style="stop-color:#AAA465"/>
			<stop  offset="1" style="stop-color:#AAA465"/>
		</linearGradient>
		<path style="fill:url(#SVGID_00000160899320124800433120000008407358278050997655_);" d="M2202.2,1182
			c-148.1-51.2-212.9-72.1-228.2-72.1c-17.6,0-71.2-23.2-66.4-28.8c11.2-10.4,405.1,112.1,425.9,132.9
			C2348.7,1229.3,2311,1220.4,2202.2,1182z"/>
	</g>
</g>
<g transform="translate(0.000000,300.000000) scale(0.100000,-0.100000)">
	<g>
		
			<linearGradient id="SVGID_00000012449602868022718270000000983188865761900180_" gradientUnits="userSpaceOnUse" x1="-544126.5625" y1="-5751980" x2="-544125.75" y2="-5751980" gradientTransform="matrix(0.2484 0 0 0.1438 135732.1406 828350.75)">
			<stop  offset="0" style="stop-color:#DE2126"/>
			<stop  offset="1" style="stop-color:#DE2126"/>
		</linearGradient>
		<path style="fill:url(#SVGID_00000012449602868022718270000000983188865761900180_);" d="M2192.5,1766.4
			c-38.4-12.8-108.9-42.4-156.1-65.7c-48-22.4-91.3-40.8-96.1-40c-16,3.2-56-20-154.5-88.9c-110.5-76.8-169.7-124.9-164.1-132.9
			c1.6-4-36-37.6-84.1-76.1c-86.5-68.8-115.3-102.5-59.2-69.7c53.6,32,19.2,2.4-85.7-72.1c-104.9-74.4-127.3-103.3-43.2-56
			c24,13.6,44,24,44,22.4s-125.7-84.9-280.2-186.5C959.6,900,833.1,814.4,833.1,811.2c0-4,34.4,11.2,76.1,33.6
			c41.6,23.2,76.1,39.2,76.1,37.6c0-5.6-172.1-106.5-276.2-160.9c-106.5-56-141.7-76.8-137.7-80.9c4-4,146.5,48.8,401.9,148.9
			c226.6,88.9,417.1,160.1,425.9,160.1c4-0.8-16.8-12-45.6-25.6c-28.8-12.8-48-25.6-43.2-28c12-4,139.3,44,297.8,112.9
			c108.9,46.4,124.1,51.2,134.5,40.8c7.2-6.4,15.2-12,19.2-12c9.6,0,180.1,62.4,221.8,80.9c18.4,8,52.8,20,76.1,26.4
			c117.7,30.4,329.8,114.5,378.7,149.7c17.6,12,44.8,29.6,60,38.4c15.2,8,36.8,24.8,47.2,36c16,16.8,17.6,22.4,8.8,32.8
			s-16.8,5.6-60-35.2c-46.4-43.2-112.1-83.3-140.1-85.7c-6.4-0.8-29.6-9.6-52-19.2c-134.5-59.2-322.6-118.5-332.2-104.9
			c-2.4,3.2-79.3-18.4-172.1-48c-92.1-30.4-171.3-55.2-176.1-55.2c-4,0,0.8,8,12,16.8l20,16l-24-12c-32-15.2-116.1-36.8-116.1-29.6
			c0,3.2,12,12,26.4,19.2l25.6,12.8l-25.6-4.8c-27.2-4.8-33.6,3.2-16.8,20c8,8-154.5-49.6-227.4-81.7c-36.8-16-46.4-16-46.4-1.6
			c0,13.6,120.9,101.7,348.2,255.4c156.1,106.5,161.7,113.7,43.2,60.8c-73.6-32.8-95.3-37.6-95.3-20.8
			c0,9.6,198.5,144.1,254.6,172.9c15.2,8,16.8,12,8.8,21.6c-12,14.4-5.6,20,83.3,69.7c36,20.8,58.4,37.6,52,40
			c-14.4,6.4,24.8,38.4,74.4,61.6c21.6,10.4,36.8,20.8,35.2,24.8c-4.8,7.2,113.7,50.4,175.3,63.2c25.6,5.6,69.6,10.4,97.7,10.4
			c35.2,1.6,51.2,4.8,51.2,12C2378.3,1800.9,2268.6,1792,2192.5,1766.4z"/>
	</g>
</g>
<g transform="translate(0.000000,300.000000) scale(0.100000,-0.100000)">
	<g>
		
			<linearGradient id="SVGID_00000004506573496811669350000002924409336005459850_" gradientUnits="userSpaceOnUse" x1="-42089.0781" y1="-5972240" x2="-42088.2773" y2="-5972240" gradientTransform="matrix(2.996000e-02 0 0 3.320000e-02 3679.9792 200304.2812)">
			<stop  offset="0" style="stop-color:#F7FAFC"/>
			<stop  offset="1" style="stop-color:#F7FAFC"/>
		</linearGradient>
		<path style="fill:url(#SVGID_00000004506573496811669350000002924409336005459850_);" d="M2577.6,2089.1
			c-81.7-84.9-159.3-180.1-159.3-195.3c0-13.6,175.3,159.3,213,209.8c27.2,36.8,33.6,55.2,20,55.2
			C2648.1,2158.7,2614.4,2127.5,2577.6,2089.1z"/>
	</g>
</g>
<g transform="translate(0.000000,300.000000) scale(0.100000,-0.100000)">
	<g>
		
			<linearGradient id="SVGID_00000030485694711093684270000006564251482390118273_" gradientUnits="userSpaceOnUse" x1="-335875.3438" y1="-5895701.5" x2="-336273.4062" y2="-5895514.5" gradientTransform="matrix(6.288000e-02 0 0 4.579000e-02 23866.207 271916.5625)">
			<stop  offset="0" style="stop-color:#00569B"/>
			<stop  offset="1" style="stop-color:#156FA9"/>
		</linearGradient>
		<path style="fill:url(#SVGID_00000030485694711093684270000006564251482390118273_);" d="M2678.5,2177.9
			c-49.6-18.4-204.9-179.3-276.2-285c-54.4-81.7-43.2-87.3,81.7-37.6c68,26.4,88.1,38.4,112.9,67.2
			c32.8,37.6,155.3,139.3,232.2,191.3c24.8,17.6,45.6,34.4,45.6,37.6s-15.2,13.6-34.4,22.4
			C2799.4,2193.9,2727.3,2195.5,2678.5,2177.9z M2658.5,2149.9c0-17.6-56.8-84.9-147.3-175.3c-51.2-50.4-92.9-86.5-92.9-80.9
			c0,15.2,77.6,110.5,159.3,195.3C2642.4,2156.3,2658.5,2168.3,2658.5,2149.9z"/>
	</g>
</g>
<g transform="translate(0.000000,300.000000) scale(0.100000,-0.100000)">
	<g>
		
			<linearGradient id="SVGID_00000163052423873284527580000010530716756675266442_" gradientUnits="userSpaceOnUse" x1="-513920.4375" y1="-5759733.5" x2="-513919.625" y2="-5759733.5" gradientTransform="matrix(0.1698 0 0 0.1308 89640.2891 755278.8125)">
			<stop  offset="0" style="stop-color:#A9ACAD"/>
			<stop  offset="1" style="stop-color:#A9ACAD"/>
		</linearGradient>
		<path style="fill:url(#SVGID_00000163052423873284527580000010530716756675266442_);" d="M3362.9,2399.7
			c-110.5-39.2-228.2-96.1-355.5-172.1c-244.2-144.9-445.1-309.8-445.1-363.4c0-12.8-8-17.6-45.6-24c-25.6-4.8-67.2-16-93.7-25.6
			l-46.4-17.6l4-30.4c4.8-37.6,37.6-108.1,63.2-137.7l18.4-21.6l68,48c119.3,84.1,296.2,198.5,334.6,218.5
			c112.1,56.8,185.7,40.8,185.7-40c0-29.6-49.6-75.2-115.3-107.3c-47.2-22.4-281-101.7-389.1-131.3c-69.6-20-68.9-18.4-48.8-81.7
			c8.8-30.4,29.6-72,44.8-93.7l28-37.6l39.2,19.2c20.8,11.2,59.2,38.4,84.1,60.8c24.8,23.2,44.8,36.8,44.8,32
			c0-16.8,125.7-4,236.2,23.2c253,62.4,526.8,176.1,700.5,290.6l60.8,39.2l-29.6,31.2c-94.5,99.3-199.3,307.4-241.8,478.7
			l-17.6,72.1L3362.9,2399.7z"/>
	</g>
</g>
<g transform="translate(0.000000,300.000000) scale(0.100000,-0.100000)">
	<g>
		
			<linearGradient id="SVGID_00000078767021994237669200000013672653887072309391_" gradientUnits="userSpaceOnUse" x1="-141206.0625" y1="-5947895.5" x2="-141205.25" y2="-5947895.5" gradientTransform="matrix(3.584000e-02 0 0 3.643000e-02 8217.3506 218663.8125)">
			<stop  offset="0" style="stop-color:#E3AB2A"/>
			<stop  offset="1" style="stop-color:#E3AB2A"/>
		</linearGradient>
		<path style="fill:url(#SVGID_00000078767021994237669200000013672653887072309391_);" d="M3222.9,2107.5
			c-48.8-29.6-70.5-74.4-66.5-136.9c2.4-38.4,8-56,24-77.6c28-36.8,72.9-57.6,122.5-56.8c49.6,0,84.1,17.6,113.7,55.2
			c31.2,41.6,35.2,120.9,8.8,167.3C3387,2125.1,3290.9,2148.3,3222.9,2107.5z"/>
	</g>
</g>
<g transform="translate(0.000000,300.000000) scale(0.100000,-0.100000)">
	<g>
		
			<linearGradient id="SVGID_00000000188001295204915930000011470516620141093802_" gradientUnits="userSpaceOnUse" x1="-3885.1223" y1="-6032454" x2="-3884.5149" y2="-6032453.5" gradientTransform="matrix(2.785000e-02 0 0 2.770000e-02 3338.3843 169001.9219)">
			<stop  offset="0" style="stop-color:#040000"/>
			<stop  offset="1" style="stop-color:#186C90"/>
		</linearGradient>
		<path style="fill:url(#SVGID_00000000188001295204915930000011470516620141093802_);" d="M3243.7,2080.2
			c-74.5-40.8-75.2-159.3-1.6-197.7c30.4-15.2,83.3-15.2,113.7,0c68,35.2,73.6,144.9,9.6,191.3
			C3334.9,2096.3,3277.3,2099.5,3243.7,2080.2z"/>
	</g>
</g>
<g transform="translate(0.000000,300.000000) scale(0.100000,-0.100000)">
	<g>
		
			<linearGradient id="SVGID_00000082364893302671562510000007668411925119490193_" gradientUnits="userSpaceOnUse" x1="-270307" y1="-7069093" x2="-270306.2188" y2="-7069093" gradientTransform="matrix(4.963000e-02 0 0 6.746000e-03 16061.5146 49066.5625)">
			<stop  offset="0" style="stop-color:#FFFFFF"/>
			<stop  offset="1" style="stop-color:#FFFFFF"/>
		</linearGradient>
		<path style="fill:url(#SVGID_00000082364893302671562510000007668411925119490193_);" d="M2814.6,1394.2
			c-30.4-6.4-68.9-14.4-84.1-19.2c-15.2-4.8-42.4-8.8-60-9.6c-29.6,0-30.4-0.8-12-8.8c43.2-17.6,336.2,13.6,383.5,41.6
			C3061.9,1410.2,2878.6,1406.2,2814.6,1394.2z"/>
	</g>
</g>
<g transform="translate(0.000000,300.000000) scale(0.100000,-0.100000)">
	<g>
		
			<linearGradient id="SVGID_00000058581593050035900700000002972487260633762201_" gradientUnits="userSpaceOnUse" x1="-371902.9375" y1="-6025442.5" x2="-371902.125" y2="-6025442.5" gradientTransform="matrix(7.041001e-02 0 0 2.765000e-02 28784.9805 168059.2031)">
			<stop  offset="0" style="stop-color:#12376E"/>
			<stop  offset="1" style="stop-color:#12376E"/>
		</linearGradient>
		<path style="fill:url(#SVGID_00000058581593050035900700000002972487260633762201_);" d="M3102.8,1553.5
			c-53.6-20-216.1-57.6-273.8-64c-48-4.8-64-11.2-142.5-58.4c-49.6-29.6-88.1-58.4-88.1-64.8c0-30.4,252.2-27.2,399.5,4
			c96.9,20.8,152.9,74.5,162.5,154.5C3166,1571.9,3160.4,1575.1,3102.8,1553.5z M3041.9,1398.2c-47.2-28-340.2-59.2-383.5-41.6
			c-18.4,8-17.6,8.8,12,8.8c17.6,0.8,44.8,4.8,60,9.6c62.4,19.2,144.9,29.6,232.2,30.4C3021.9,1405.4,3049.9,1403,3041.9,1398.2z"/>
	</g>
</g>
<g transform="translate(0.000000,300.000000) scale(0.100000,-0.100000)">
	<g>
		
			<linearGradient id="SVGID_00000026130603476695385150000011656934543904930747_" gradientUnits="userSpaceOnUse" x1="-278965.25" y1="-6036883.5" x2="-278964.4375" y2="-6036883.5" gradientTransform="matrix(5.094000e-02 0 0 2.701000e-02 16813.3945 164842.5938)">
			<stop  offset="0" style="stop-color:#2485C0"/>
			<stop  offset="1" style="stop-color:#2485C0"/>
		</linearGradient>
		<path style="fill:url(#SVGID_00000026130603476695385150000011656934543904930747_);" d="M2881.8,1863.3
			c-33.6-16.8-109.7-62.4-169.7-101.7c-152.1-99.3-148.1-104.9,29.6-43.2c199.3,68.8,269,108.1,269,148.9c0,20-21.6,35.2-31.2,21.6
			c-4.8-7.2-244.2-138.5-253-138.5c-24.8,0,154.5,110.5,213,131.3c19.2,6.4,28,12,19.2,12.8
			C2949.9,1894.5,2914.6,1880.9,2881.8,1863.3z"/>
	</g>
</g>
<g transform="translate(0.000000,300.000000) scale(0.100000,-0.100000)">
	<g>
		
			<linearGradient id="SVGID_00000111877122437610736670000015035453529079869313_" gradientUnits="userSpaceOnUse" x1="-373615.5" y1="-5925103" x2="-373614.6875" y2="-5925103" gradientTransform="matrix(7.103001e-02 0 0 3.952000e-02 29020.5977 235911.3594)">
			<stop  offset="0" style="stop-color:#0B3870"/>
			<stop  offset="1" style="stop-color:#0B3870"/>
		</linearGradient>
		<path style="fill:url(#SVGID_00000111877122437610736670000015035453529079869313_);" d="M2921.8,1898.5
			c-48.8-15.2-148.9-76.8-304.2-187.3c-118.5-84.1-144.1-106.5-133.7-117.7c6.4-5.6,221,48.8,316.2,80.9
			c113.7,37.6,180.1,70.5,218.5,107.3c35.2,33.6,40,57.6,20,96.1C3021.1,1912.1,2986.7,1917.7,2921.8,1898.5z M3009.1,1869.7
			c4.8-42.4-63.2-80.1-267.4-151.3c-177.7-61.6-181.7-56-29.6,43.2c152.1,98.5,222.5,133.7,262.6,131.3
			C3002.7,1890.5,3006.7,1888.1,3009.1,1869.7z"/>
	</g>
</g>
<g transform="translate(0.000000,300.000000) scale(0.100000,-0.100000)">
	<g>
		
			<linearGradient id="SVGID_00000145746523025355285620000000150623800392574123_" gradientUnits="userSpaceOnUse" x1="-400467.5625" y1="-5818600" x2="-400466.75" y2="-5818600" gradientTransform="matrix(7.879000e-02 0 0 7.252000e-02 35007.8242 424111.5938)">
			<stop  offset="0" style="stop-color:#D02030"/>
			<stop  offset="1" style="stop-color:#D02030"/>
		</linearGradient>
		<path style="fill:url(#SVGID_00000145746523025355285620000000150623800392574123_);" d="M3468.6,2434.1
			c-16.8-4-18.4-7.2-13.6-37.6c3.2-18.4,8-36,11.2-40c3.2-3.2,43.2-0.8,89.7,5.6c105.7,14.4,281.8,22.4,323.4,14.4
			c28.8-5.6,20.8-8-100.1-36.8c-72.9-16.8-167.3-41.6-209.8-55.2l-77.6-24l20-52c44-118.5,179.3-337,216.1-351.4
			c16-5.6,54.4,31.2,118.5,113.7c100.9,128.9,237,345.8,237,377.1c0,10.4-8,27.2-17.6,38.4c-16,17.6-30.4,22.4-110.5,32.8
			C3865.7,2431.7,3507,2442.1,3468.6,2434.1z"/>
	</g>
</g>
<g transform="translate(0.000000,300.000000) scale(0.100000,-0.100000)">
	<g>
		
			<linearGradient id="SVGID_00000013155029329018091120000004827495668924708784_" gradientUnits="userSpaceOnUse" x1="-498819.9062" y1="-5782995" x2="-499666" y2="-5783122" gradientTransform="matrix(0.1612 0 0 9.676000e-02 82932.2578 561014.9375)">
			<stop  offset="0" style="stop-color:#E4A433"/>
			<stop  offset="1" style="stop-color:#E39C34"/>
		</linearGradient>
		<path style="fill:url(#SVGID_00000013155029329018091120000004827495668924708784_);" d="M2298.2,1769.6
			c-102.5-16-253-61.6-244.2-74.5c1.6-4-13.6-14.4-35.2-24.8c-49.6-23.2-88.9-55.2-74.4-61.6c6.4-2.4-16-19.2-52-40
			c-88.9-49.6-95.3-55.2-83.3-69.7c8-9.6,6.4-13.6-8.8-21.6c-56-28.8-254.6-163.3-254.6-172.9c0-16.8,21.6-12,95.3,20.8
			c118.5,52.8,112.9,45.6-43.2-60.8c-227.4-153.7-348.2-241.8-348.2-255.4c0-14.4,9.6-14.4,46.4,1.6c72.9,32,235.4,89.7,227.4,81.7
			c-16.8-16.8-10.4-24.8,16.8-20l25.6,4.8l-25.6-12.8c-14.4-7.2-26.4-16-26.4-19.2c0-7.2,84.1,14.4,116.1,29.6l24,12l-20-16
			c-11.2-8.8-16-16.8-12-16.8c4.8,0,84.1,24.8,176.1,55.2c92.9,29.6,169.7,51.2,172.1,48c9.6-13.6,197.7,45.6,332.2,104.9
			c22.4,9.6,45.6,18.4,52,19.2c28.8,2.4,93.7,42.4,140.9,86.5c44,41.6,49.6,49.6,41.6,62.4c-8.8,14.4-12,12.8-47.2-20
			c-60.8-56.8-231.4-132.9-297-132.1l-26.4,0.8l28,24c28,24.8,28,24.8,4,12.8c-35.2-16.8-291.4-100.1-321.8-103.3
			c-38.4-4.8-32,6.4,17.6,34.4c24,13.6,44,25.6,44,27.2c0,3.2-120.1-28.8-212.9-56.8c-79.3-23.2-101.7-24.8-97.7-5.6
			c3.2,16,148.9,123.3,238.6,175.3c68.1,40,68.9,44,3.2,15.2c-25.6-11.2-47.2-19.2-48.8-16.8c-4.8,4.8,68.9,67.2,133.7,112.9
			c69.6,48.8,145.7,88.9,208.1,108.9c60,19.2,21.6,19.2-60,0c-35.2-8.8-65.6-13.6-67.2-12c-12.8,12.8,129.7,82.5,184.9,89.7
			l42.4,5.6l-44,4l-44,4l46.4,18.4c32.8,12.8,63.2,17.6,105.7,17.6c60.8,0,69.6,4.8,47.2,27.2
			C2361.5,1773.6,2342.2,1776,2298.2,1769.6z"/>
	</g>
</g>
<g transform="translate(0.000000,300.000000) scale(0.100000,-0.100000)">
	<g>
		
			<linearGradient id="SVGID_00000018932112576305257940000006469051715440595844_" gradientUnits="userSpaceOnUse" x1="-296266.9375" y1="-6359103" x2="-296266.125" y2="-6359103" gradientTransform="matrix(5.303000e-02 0 0 1.420000e-02 19178.3848 92623.5156)">
			<stop  offset="0" style="stop-color:#F09868"/>
			<stop  offset="1" style="stop-color:#F09868"/>
		</linearGradient>
		<path style="fill:url(#SVGID_00000018932112576305257940000006469051715440595844_);" d="M3667.2,2374.1
			c-80.9-5.6-192.9-20.8-198.5-27.2c-4-3.2,15.2-70.4,23.2-78.4c2.4-4,39.2,4,80.1,16.8c41.6,12.8,134.5,37.6,207.3,54.4
			c119.3,28,128.1,31.2,100.1,36.8C3840.9,2382.9,3778.4,2382.9,3667.2,2374.1z"/>
	</g>
</g>
<g transform="translate(0.000000,300.000000) scale(0.100000,-0.100000)">
	<g>
		
			<linearGradient id="SVGID_00000049196225558440271020000017870890795516069294_" gradientUnits="userSpaceOnUse" x1="-480018.25" y1="-5827182" x2="-480017.4375" y2="-5827182" gradientTransform="matrix(0.1286 0 0 6.695000e-02 63340.0781 391596.125)">
			<stop  offset="0" style="stop-color:#FBE193"/>
			<stop  offset="1" style="stop-color:#FBE193"/>
		</linearGradient>
		<path style="fill:url(#SVGID_00000049196225558440271020000017870890795516069294_);" d="M2218.2,1716l-44-17.6l44-4l44-4
			l-42.4-5.6c-55.2-7.2-197.7-76.8-184.9-89.7c1.6-1.6,32,3.2,67.2,12c81.7,19.2,120.1,19.2,60,0c-62.4-20-138.5-60-208.1-108.9
			c-64.8-45.6-138.5-108.1-133.7-112.9c1.6-2.4,23.2,5.6,48.8,16.8c65.6,28.8,64.8,24.8-3.2-15.2c-89.7-52-235.4-159.3-238.6-175.3
			c-4-19.2,18.4-17.6,97.7,5.6c92.9,28,212.9,60,212.9,56.8c0-1.6-20-13.6-44-27.2c-49.6-28-56-39.2-17.6-34.4
			c30.4,3.2,286.6,86.5,321.8,103.3c24,12,24,12-4-12.8l-28-24l26.4-0.8c65.6-0.8,248.2,80.9,300.2,134.5l29.6,30.4l-15.2,39.2
			c-8,22.4-17.6,51.2-20,64.8c-5.6,23.2-3.2,25.6,24.8,36.8c16.8,7.2,56.8,18.4,88.9,26.4c32,7.2,56.8,15.2,55.2,17.6
			c-2.4,1.6-40.8-6.4-85.7-17.6c-44.8-11.2-84.1-19.2-85.7-16.8c-10.4,9.6,8.8,30.4,64.8,68.8c33.6,23.2,60.8,43.2,60.8,45.6
			c0,4.8-23.2-9.6-89.7-56.8l-60.8-44l-21.6,28c-11.2,15.2-28,44-36.8,63.2l-16,36l-61.6-0.8
			C2279.8,1733.6,2249.4,1728.8,2218.2,1716z"/>
	</g>
</g>
<g transform="translate(0.000000,300.000000) scale(0.100000,-0.100000)">
	<g>
		
			<linearGradient id="SVGID_00000164502297953839711550000015181101175185712570_" gradientUnits="userSpaceOnUse" x1="-455388.1562" y1="-5825538" x2="-454587.6875" y2="-5825538" gradientTransform="matrix(0.1072 0 0 6.862000e-02 51440.707 401815.5625)">
			<stop  offset="0" style="stop-color:#F9FDFF;stop-opacity:0.7346"/>
			<stop  offset="1" style="stop-color:#F9FDFF;stop-opacity:0.7346"/>
		</linearGradient>
		<path style="fill:url(#SVGID_00000164502297953839711550000015181101175185712570_);" d="M3407,2329.2
			c-213-84.9-361-175.3-738.1-451.5c-40.8-30.4-40.8-30.4-32-59.2c5.6-20,12.8-28,20.8-25.6c7.2,1.6,99.3,56.8,204.9,123.3
			c105.7,65.6,231.4,142.5,279.4,169.7c96.9,56,323.4,168.9,339.4,168.9c12,0,12-3.2-2.4,46.4C3464.6,2347.6,3459,2350,3407,2329.2z
			"/>
	</g>
</g>
<g transform="translate(0.000000,300.000000) scale(0.100000,-0.100000)">
	<g>
		
			<linearGradient id="SVGID_00000098938832579799121070000011976576897085036217_" gradientUnits="userSpaceOnUse" x1="105559.5703" y1="-6467744" x2="105560.3672" y2="-6467744" gradientTransform="matrix(2.384000e-02 0 0 1.209000e-02 -138.6902 79990.4062)">
			<stop  offset="0" style="stop-color:#000000;stop-opacity:0.5187"/>
			<stop  offset="1" style="stop-color:#000000;stop-opacity:0.5187"/>
		</linearGradient>
		<path style="fill:url(#SVGID_00000098938832579799121070000011976576897085036217_);" d="M2502.4,1838.5
			c-17.6-4-52.8-14.4-77.6-24c-41.6-15.2-46.4-19.2-46.4-40c0-12.8,3.2-24.8,7.2-27.2s47.2,10.4,96.1,28.8
			c78.5,28.8,89.7,34.4,87.3,49.6C2566.4,1844.9,2549.6,1848.1,2502.4,1838.5z"/>
	</g>
</g>
<g transform="translate(0.000000,300.000000) scale(0.100000,-0.100000)">
	<g>
		
			<linearGradient id="SVGID_00000024695383640150069320000009789219785630548362_" gradientUnits="userSpaceOnUse" x1="99009.9844" y1="-6166546.5" x2="99010.7812" y2="-6166546.5" gradientTransform="matrix(2.400000e-02 0 0 1.950000e-02 162.1604 121707.9062)">
			<stop  offset="0" style="stop-color:#000000;stop-opacity:0.5694"/>
			<stop  offset="1" style="stop-color:#000000;stop-opacity:0.5694"/>
		</linearGradient>
		<path style="fill:url(#SVGID_00000024695383640150069320000009789219785630548362_);" d="M2695.3,1535.1
			c-7.2-12-78.5-64-123.3-90.5l-33.6-20l16-20.8l16.8-21.6l38.4,19.2c36,18.4,120.9,88.9,120.9,99.3c0,3.2-7.2,14.4-15.2,24.8
			C2705.7,1538.3,2699.3,1541.5,2695.3,1535.1z"/>
	</g>
</g>
<g transform="translate(0.000000,300.000000) scale(0.100000,-0.100000)">
	<g>
		
			<linearGradient id="SVGID_00000021822246689228785070000010082355152279878809_" gradientUnits="userSpaceOnUse" x1="1015.8238" y1="-6067280.5" x2="1016.6246" y2="-6067280.5" gradientTransform="matrix(2.788000e-02 0 0 2.480000e-02 2358.4429 152174.875)">
			<stop  offset="0" style="stop-color:#000000;stop-opacity:0.4058"/>
			<stop  offset="1" style="stop-color:#000000;stop-opacity:0.4058"/>
		</linearGradient>
		<path style="fill:url(#SVGID_00000021822246689228785070000010082355152279878809_);" d="M2475.1,1773.6
			c-46.4-16.8-84.9-32.8-87.3-34.4c-5.6-5.6,28-75.2,50.4-104.1l21.6-28l53.6,37.6c29.6,20.8,63.2,44.8,75.2,53.6l21.6,16
			l-17.6,46.4c-8.8,24.8-20.8,45.6-25.6,44.8C2562.4,1805.7,2520.8,1791.2,2475.1,1773.6z"/>
	</g>
</g>
<g transform="translate(0.000000,300.000000) scale(0.100000,-0.100000)">
	<g>
		
			<linearGradient id="SVGID_00000165944641917533101510000003193517929339220096_" gradientUnits="userSpaceOnUse" x1="-57167.6367" y1="-5997311.5" x2="-57168.1641" y2="-5997310.5" gradientTransform="matrix(3.077000e-02 0 0 3.089000e-02 5118.3516 187145.7344)">
			<stop  offset="0" style="stop-color:#FFFFFF;stop-opacity:0.6368"/>
			<stop  offset="1" style="stop-color:#FFFFFF;stop-opacity:0.6403"/>
		</linearGradient>
		<path style="fill:url(#SVGID_00000165944641917533101510000003193517929339220096_);" d="M3226.1,2084.2
			c-39.2-25.6-56.8-64.9-52.8-114.5c5.6-74.4,59.2-120.9,133.7-113.7c69.6,7.2,112.1,55.2,112.1,128.1c0,68.9-52,118.5-124.9,118.5
			C3265.3,2102.7,3245.3,2097.9,3226.1,2084.2z M3365.4,2073.8c64-46.4,58.4-156.1-9.6-191.3c-30.4-15.2-83.3-15.2-113.7,0
			c-73.6,38.4-72.9,156.9,1.6,197.7C3277.3,2099.5,3334.9,2096.3,3365.4,2073.8z"/>
	</g>
</g>
<g transform="translate(0.000000,300.000000) scale(0.100000,-0.100000)">
	<g>
		
			<linearGradient id="SVGID_00000036221200669957011090000002867898396938155954_" gradientUnits="userSpaceOnUse" x1="3202.8999" y1="2030.7312" x2="3207.7358" y2="2030.7312" gradientTransform="matrix(6.045000e-03 0 0 7.967000e-03 -10051.8896 56828.4727)">
			<stop  offset="0" style="stop-color:#FFFFFF;stop-opacity:0.4465"/>
			<stop  offset="1" style="stop-color:#FFFFFF;stop-opacity:0.4465"/>
		</linearGradient>
		<path style="fill:url(#SVGID_00000036221200669957011090000002867898396938155954_);" d="M3219.7,2041.8c-9.6-12-16.8-28-16.8-36
			c0-11.2,4.8-9.6,24,10.4c23.2,23.2,32,46.4,16.8,46.4C3239.7,2062.6,3228.5,2053,3219.7,2041.8z"/>
	</g>
</g>
<g transform="translate(0.000000,300.000000) scale(0.100000,-0.100000)">
	<g>
		
			<linearGradient id="SVGID_00000021097935859403986720000017296807461025331132_" gradientUnits="userSpaceOnUse" x1="333974.625" y1="-6217409.5" x2="333975.4375" y2="-6217409.5" gradientTransform="matrix(1.787000e-02 0 0 1.787000e-02 -2708.1113 113112.1875)">
			<stop  offset="0" style="stop-color:#FFFFFF;stop-opacity:0.546"/>
			<stop  offset="1" style="stop-color:#FFFFFF;stop-opacity:0.546"/>
		</linearGradient>
		<path style="fill:url(#SVGID_00000021097935859403986720000017296807461025331132_);" d="M3260.5,2065c1.6-9.6,12.8-16,34.4-19.2
			c17.6-2.4,40-9.6,50.4-15.2c20.8-13.6,41.6-53.6,41.6-81.7c0.8-16.8,0.8-17.6,8.8-3.2c16.8,27.2,3.2,78.5-28,106.5
			c-24.8,22.4-34.4,26.4-69.6,26.4C3263.7,2078.7,3258.1,2076.2,3260.5,2065z"/>
	</g>
</g>
<g transform="translate(0.000000,300.000000) scale(0.100000,-0.100000)">
	<g>
		
			<linearGradient id="SVGID_00000116210618988084037760000001354743304405518782_" gradientUnits="userSpaceOnUse" x1="28529.6758" y1="-6080864" x2="28530.4766" y2="-6080864" gradientTransform="matrix(2.665000e-02 0 0 2.385000e-02 1721.9843 146554.7031)">
			<stop  offset="0" style="stop-color:#000000;stop-opacity:0.4079"/>
			<stop  offset="1" style="stop-color:#000000;stop-opacity:0.4079"/>
		</linearGradient>
		<path style="fill:url(#SVGID_00000116210618988084037760000001354743304405518782_);" d="M2584,1606.3
			c-65.6-17.6-101.7-32-101.7-40c0-16,33.6-109.7,44.8-124.1c12-16,12-16,45.6,3.2c47.2,27.2,117.7,80.1,122.5,92.1
			c4.8,12.8-35.2,84.9-47.2,84.1C2642.4,1621.5,2613.6,1614.3,2584,1606.3z"/>
	</g>
</g>
<g>
	
		<linearGradient id="SVGID_00000044890987487096853170000014700399047329474738_" gradientUnits="userSpaceOnUse" x1="-1683.9097" y1="105.6027" x2="-1683.1093" y2="105.6027" gradientTransform="matrix(32.1105 0 0 -17.414 54724.457 2082.9187)">
		<stop  offset="0" style="stop-color:#FFFFFF"/>
		<stop  offset="1" style="stop-color:#FFFFFF"/>
	</linearGradient>
	<path style="fill:url(#SVGID_00000044890987487096853170000014700399047329474738_);stroke:#000000;stroke-miterlimit:10;" d="
		M674.8,237.9c-5.7,1.9-23.9,13-21.3,13c0.4,0,24.2-12.7,25.1-13.4C679.7,236.7,677.8,236.9,674.8,237.9z"/>
</g>
<g>
	
		<linearGradient id="SVGID_00000034802641339617448000000003954214679558278829_" gradientUnits="userSpaceOnUse" x1="-1708.7758" y1="127.5747" x2="-1707.9746" y2="127.5747" gradientTransform="matrix(50.9402 0 0 -27.0125 87642.4688 3690.0745)">
		<stop  offset="0" style="stop-color:#2485C0"/>
		<stop  offset="1" style="stop-color:#2485C0"/>
	</linearGradient>
	<path style="fill:url(#SVGID_00000034802641339617448000000003954214679558278829_);" d="M625,236.3c-3.4,1.7-11,6.2-17,10.2
		c-15.2,9.9-14.8,10.5,3,4.3c19.9-6.9,26.9-10.8,26.9-14.9c0-2-2.2-3.5-3.1-2.2c-0.5,0.7-24.4,13.8-25.3,13.8
		c-2.5,0,15.5-11,21.3-13.1c1.9-0.6,2.8-1.2,1.9-1.3C631.8,233.2,628.3,234.5,625,236.3z"/>
</g>
<g>
	
		<linearGradient id="SVGID_00000018960127995144677180000012411901871647925170_" gradientUnits="userSpaceOnUse" x1="-1720.9597" y1="139.984" x2="-1720.1591" y2="139.984" gradientTransform="matrix(71.0323 0 0 -39.5159 122768.4297 5782.5205)">
		<stop  offset="0" style="stop-color:#0B3870"/>
		<stop  offset="1" style="stop-color:#0B3870"/>
	</linearGradient>
	<path style="fill:url(#SVGID_00000018960127995144677180000012411901871647925170_);" d="M568.7,236.2c-4.9,1.5-14.9,7.7-30.4,18.7
		c-11.9,8.4-14.4,10.7-13.4,11.8c0.6,0.6,22.1-4.9,31.6-8.1c11.4-3.8,18-7,21.9-10.7c3.5-3.4,4-5.8,2-9.6
		C578.6,234.8,575.2,234.3,568.7,236.2z M577.4,239c0.5,4.2-6.3,8-26.7,15.1c-17.8,6.2-18.2,5.6-3-4.3c15.2-9.8,22.3-13.4,26.3-13.1
		C576.8,237,577.2,237.2,577.4,239z"/>
</g>
<g>
	
		<linearGradient id="SVGID_00000168092476329124279300000015466865402245886890_" gradientUnits="userSpaceOnUse" x1="-1723.7927" y1="154.1894" x2="-1722.9923" y2="154.1894" gradientTransform="matrix(78.7946 0 0 -72.5195 136465.9688 11244.7793)">
		<stop  offset="0" style="stop-color:#D02030"/>
		<stop  offset="1" style="stop-color:#D02030"/>
	</linearGradient>
	<path style="fill:url(#SVGID_00000168092476329124279300000015466865402245886890_);" d="M642,34.3c-1.7,0.4-1.8,0.7-1.4,3.8
		c0.3,1.8,0.8,3.6,1.1,4c0.3,0.3,4.3,0.1,9-0.6c10.6-1.4,28.2-2.2,32.3-1.4c2.9,0.6,2.1,0.8-10,3.7c-7.3,1.7-16.7,4.2-21,5.5
		l-7.8,2.4l2,5.2c4.4,11.8,17.9,33.7,21.6,35.1c1.6,0.6,5.4-3.1,11.8-11.4c10.1-12.9,23.7-34.6,23.7-37.7c0-1-0.8-2.7-1.8-3.8
		c-1.6-1.8-3-2.2-11-3.3C681.7,34.5,645.8,33.5,642,34.3z"/>
</g>
<g>
	
		<linearGradient id="SVGID_00000044176670502322203840000017487984607526469296_" gradientUnits="userSpaceOnUse" x1="-1712.4719" y1="101.5979" x2="-1711.6714" y2="101.5979" gradientTransform="matrix(53.0281 0 0 -14.1965 91402.2734 1482.6775)">
		<stop  offset="0" style="stop-color:#F09868"/>
		<stop  offset="1" style="stop-color:#F09868"/>
	</linearGradient>
	<path style="fill:url(#SVGID_00000044176670502322203840000017487984607526469296_);stroke:#000000;stroke-miterlimit:10;" d="
		M613,35.4c-8.1,0.6-19.3,2.1-19.8,2.7c-0.4,0.3,1.5,7,2.3,7.8c0.2,0.4,3.9-0.4,8-1.7c4.2-1.3,13.5-3.8,20.7-5.4
		c11.9-2.8,12.8-3.1,10-3.7C630.4,34.5,624.2,34.5,613,35.4z"/>
</g>
<g>
	
		<linearGradient id="SVGID_00000031169071066592358720000011239847773482075548_" gradientUnits="userSpaceOnUse" x1="-1730.7769" y1="153.5357" x2="-1729.9767" y2="153.5357" gradientTransform="matrix(107.1771 0 0 -68.6167 186004.4688 10602.9004)">
		<stop  offset="0" style="stop-color:#F9FDFF;stop-opacity:0.7346"/>
		<stop  offset="1" style="stop-color:#F9FDFF;stop-opacity:0.7346"/>
	</linearGradient>
	<path style="fill:url(#SVGID_00000031169071066592358720000011239847773482075548_);stroke:#000000;stroke-miterlimit:10;" d="
		M582.3,41.6c-21.3,8.5-36.1,17.5-73.8,45.1c-4.1,3-4.1,3-3.2,5.9c0.6,2,1.3,2.8,2.1,2.6c0.7-0.2,9.9-5.7,20.5-12.3
		c10.6-6.6,23.1-14.2,27.9-17c9.7-5.6,32.3-16.9,33.9-16.9c1.2,0,1.2,0.3-0.2-4.6C588.1,39.8,587.5,39.5,582.3,41.6z"/>
</g>
<g transform="translate(0.000000,300.000000) scale(0.100000,-0.100000)">
	<g>
		
			<linearGradient id="SVGID_00000065062727852982475780000005698711981346946463_" gradientUnits="userSpaceOnUse" x1="-497635.375" y1="-5759659.5" x2="-497634.5938" y2="-5759659.5" gradientTransform="matrix(0.1698 0 0 0.1308 89640.2891 755278.8125)">
			<stop  offset="0" style="stop-color:#A9ACAD"/>
			<stop  offset="1" style="stop-color:#A9ACAD"/>
		</linearGradient>
		<path style="fill:url(#SVGID_00000065062727852982475780000005698711981346946463_);" d="M6128.1,2409.4
			c-110.5-39.2-228.2-96.1-355.5-172.1c-244.2-144.9-445.1-309.8-445.1-363.4c0-12.8-8-17.6-45.6-24c-25.6-4.8-67.2-16-93.7-25.6
			l-46.4-17.6l4-30.4c4.8-37.6,37.6-108.1,63.2-137.7l18.4-21.6l68,48c119.3,84.1,296.2,198.5,334.6,218.5
			c112.1,56.8,185.7,40.8,185.7-40c0-29.6-49.6-75.2-115.3-107.3c-47.2-22.4-281-101.7-389.1-131.3c-69.6-20-68.9-18.4-48.8-81.7
			c8.8-30.4,29.6-72,44.8-93.7l28-37.6l39.2,19.2c20.8,11.2,59.2,38.4,84.1,60.8c24.8,23.2,44.8,36.8,44.8,32
			c0-16.8,125.7-4,236.2,23.2c253,62.4,526.8,176.1,700.5,290.6l60.8,39.2l-29.6,31.2c-94.5,99.3-199.3,307.4-241.8,478.7
			l-17.6,72.1L6128.1,2409.4z"/>
	</g>
</g>
<g>
	<g>
		<line class="st40" x1="444.7" y1="75.2" x2="353.4" y2="75.2"/>
		<g>
			<polygon class="st41" points="479.1,75.2 430.5,91.5 442,75.2 430.5,58.9 			"/>
		</g>
	</g>
</g>
<g>
	<g>
		<line class="st40" x1="462.8" y1="198.5" x2="293.3" y2="129.3"/>
		<g>
			<polygon class="st41" points="526.7,224.5 431.5,200.1 457.8,196.4 441.5,175.4 			"/>
		</g>
	</g>
</g>
<rect x="492" y="20.5" class="st42" width="218" height="259.8"/>
</svg>
