<?xml version="1.0" encoding="utf-8"?>
<!-- Generator: Adobe Illustrator 26.5.0, SVG Export Plug-In . SVG Version: 6.00 Build 0)  -->
<svg version="1.1" id="图层_1" xmlns="http://www.w3.org/2000/svg" xmlns:xlink="http://www.w3.org/1999/xlink" x="0px" y="0px"
	 viewBox="0 0 740 320" style="enable-background:new 0 0 740 320;" xml:space="preserve">
<style type="text/css">
	.st0{fill:none;}
	.st1{fill:#D3D3D3;}
	.st2{fill:url(#SVGID_00000142882494326014102670000012048298236468680868_);}
	.st3{fill:url(#region-1-1_00000079474832221541377310000017671675429481657491_);}
	.st4{fill:url(#region-2-1_00000132076784043012112640000001598476325538501518_);}
	.st5{fill:url(#region-2-2_00000086677943310827259710000004107072351860551591_);}
	.st6{fill:url(#region-2-3_00000049935113557428257680000015465470606566468274_);}
	.st7{fill:url(#region-2-4_00000114791022193420647370000008273330723536238208_);}
	.st8{fill:url(#region-2-5_00000129898540623474084400000013998232175622203790_);}
	.st9{fill:url(#region-2-6_00000006703935374267810810000010829581670466352003_);}
	.st10{fill:url(#region-2-7_00000121971727737558192690000000275239391411430841_);}
	.st11{fill:url(#region-2-8_00000008121794086279941890000004130618709845918125_);}
	.st12{fill:url(#region-2-9_00000016792064829954520910000012749375834789721487_);}
	.st13{fill:url(#region-3-1_00000050628706133085285290000013211495689904359348_);}
	.st14{fill:url(#region-3-2_00000056411672975174934700000006282134360502354100_);}
	.st15{fill:url(#region-3-3_00000123413787169259051730000013897371870978476475_);}
	.st16{fill:url(#region-3-4_00000075120621054144032720000002881471927991191979_);}
	.st17{fill:url(#region-3-5_00000129174669478176339560000010184748983155238280_);}
	.st18{fill:url(#region-3-6_00000149374224955988516380000005024209022692884368_);}
	.st19{fill:url(#region-4-1_00000101089763456673608690000014899350296618043057_);}
	.st20{fill:url(#region-4-2_00000035526699206385640400000011988506424600611219_);}
	.st21{fill:url(#region-4-3_00000138558624309509139840000015686411490027348134_);}
	.st22{fill:url(#region-4-4_00000151520570783370565630000013263685280670494616_);}
	.st23{fill:url(#region-4-5_00000011713102072867368010000000298725593521900201_);}
	.st24{fill:url(#region-4-6_00000180368556617768746250000012322362960589224349_);}
	.st25{fill:url(#region-5-1_00000043419984961391718640000014445681337332453513_);}
	.st26{fill:url(#region-5-2_00000040535623970081056420000007107745230862431374_);}
	.st27{fill:url(#region-5-3_00000138558375939700600680000015863781406054841777_);}
	.st28{fill:url(#region-5-4_00000079485113541115451060000013029915241720953472_);}
	.st29{fill:url(#region-6-1_00000103240885615619032670000009594046496778881153_);}
	.st30{fill:url(#region-6-2_00000082366249023874537680000014000384879288791718_);}
	.st31{fill:url(#region-6-3_00000069370369608107356860000008772157628595029951_);}
	.st32{fill:url(#region-6-4_00000082351178337705855470000006992629307140881553_);}
	.st33{fill:url(#region-2-1_00000078760692613035363090000011376817597205609660_);}
	.st34{fill:url(#region-2-2_00000170981262240116375720000012363844979766521754_);}
	.st35{fill:url(#region-3-1_00000098914346131189409660000017416580146376420753_);}
	.st36{fill:url(#region-3-4_00000039846702673458388600000010875697237597351063_);}
	.st37{fill:url(#region-4-1_00000173864567206129221120000016030730948683382922_);stroke:#000000;stroke-miterlimit:10;}
	.st38{fill:url(#region-4-4_00000002357472336536733750000013206709420915314339_);stroke:#000000;stroke-miterlimit:10;}
	.st39{fill:url(#region-5-2_00000071530611441405106520000007679232432430484661_);stroke:#000000;stroke-miterlimit:10;}
	.st40{fill:none;stroke:#3FA9F5;stroke-width:4;stroke-linecap:round;stroke-miterlimit:10;}
	.st41{fill:#3FA9F5;}
	.st42{fill:none;stroke:#0000FF;stroke-width:3;stroke-miterlimit:10;}
</style>
<pattern  x="-30" y="528" width="40" height="40" patternUnits="userSpaceOnUse" id="SVGID_1_" viewBox="0 -40 40 40" style="overflow:visible;">
	<g>
		<rect y="-40" class="st0" width="40" height="40"/>
		<g>
			<rect y="-40" class="st0" width="40" height="40"/>
			<g>
				<rect y="-40" class="st0" width="40" height="40"/>
				<g>
					<rect y="-40" class="st0" width="40" height="40"/>
					<rect y="-40" class="st0" width="40" height="40"/>
					<rect y="-20" class="st1" width="20" height="20"/>
					<rect x="20" y="-40" class="st1" width="20" height="20"/>
				</g>
			</g>
		</g>
	</g>
</pattern>
<pattern  id="SVGID_00000113354956736787799050000018253135709622765699_" xlink:href="#SVGID_1_" patternTransform="matrix(1 0 0 -1 107 -33801.0078)">
</pattern>
<rect style="fill:url(#SVGID_00000113354956736787799050000018253135709622765699_);" width="740" height="320"/>
<g>
	
		<linearGradient id="region-1-1_00000116220337746827777950000001040207734042123948_" gradientUnits="userSpaceOnUse" x1="-1702.2284" y1="-69.364" x2="-1702.0573" y2="-70.2855" gradientTransform="matrix(500 0 0 -300 851294 -20788)">
		<stop  offset="0" style="stop-color:#FEFABE;stop-opacity:0.99"/>
		<stop  offset="1" style="stop-color:#FFFABE;stop-opacity:0.99"/>
	</linearGradient>
	<path id="region-1-1" style="fill:url(#region-1-1_00000116220337746827777950000001040207734042123948_);" d="M21.7,159.4V280
		h200.9h200.9V159.4V38.8H222.6h-201L21.7,159.4L21.7,159.4z"/>
	
		<linearGradient id="region-2-1_00000060708573560490836010000004869357058414109867_" gradientUnits="userSpaceOnUse" x1="-1697.689" y1="-73.6308" x2="-1697.689" y2="-74.434" gradientTransform="matrix(211.7769 0 0 -109.0197 359853.5625 -7971.9487)">
		<stop  offset="0" style="stop-color:#736CF4;stop-opacity:0.384"/>
		<stop  offset="1" style="stop-color:#7593BD;stop-opacity:0.533"/>
	</linearGradient>
	<path id="region-2-1" style="fill:url(#region-2-1_00000060708573560490836010000004869357058414109867_);" d="M346.4,55.7
		c-12.3,3.1-30.9,11.6-47.3,21.5l-10.8,6.5l-3.6-2c-4.4-2.3-10.9-2.6-16.5-0.6c-5.2,1.8-20.4,17.4-28.3,29.2
		c-5.1,7.6-3.6,8.2,8.4,3.4l7.6-3.1l0.9,4.2c0.5,2.2,1.6,6.1,2.6,8.5s1.8,4.7,1.8,4.9c0,0.3-2.7,2.4-6.1,4.7c-5.6,3.9-7.6,6-6.5,6.9
		c0.2,0.2,4.1-0.6,8.6-1.7s8.4-2,8.4-1.9s1,1.8,1.9,3.7c2,4,0.6,4.2,16.2-1.6c28.1-10.5,66.3-29.3,75.5-37.2c1.1-1,3-2.1,4.1-2.6
		c5.9-2.5,34.2-26,41.8-34.7c2.7-3,2.7-3.4,1.6-4.4c-2.2-2-18.5-3.8-38.7-4.1C357.8,55.1,347.9,55.3,346.4,55.7z"/>
	
		<linearGradient id="region-2-2_00000052095928498483915490000014834764260211193256_" gradientUnits="userSpaceOnUse" x1="-1696.834" y1="-72.5446" x2="-1696.3593" y2="-73.4734" gradientTransform="matrix(185.3217 0 0 -128.2305 314749.3125 -9250.998)">
		<stop  offset="0" style="stop-color:#4A69CF;stop-opacity:0.328"/>
		<stop  offset="1" style="stop-color:#676B7E;stop-opacity:0.684"/>
	</linearGradient>
	<path id="region-2-2" style="fill:url(#region-2-2_00000052095928498483915490000014834764260211193256_);" d="M404.8,64.2
		c-5.1,6.7-35.4,31.8-41.4,34.4c-1.1,0.5-3,1.7-4.1,2.6c-9.3,8.2-60.1,32.5-83.6,40.1c-2.4,0.7-4.7,1.7-5.1,2c-1,1,3.6,7.1,5.5,7.4
		c1,0.2-1.5,2.1-7.2,5.5c-4.9,3-8.8,5.8-8.8,6.4c0,3,25.3,2.7,40.1-0.4c9.9-2.1,15.4-7.6,16.3-15.8l0.4-4.4l7.4-2.6
		c19.7-7.1,39.8-17.2,49.4-24.9c6.2-5,12.5-12.7,21.8-26.5c9.8-14.7,13.9-21.9,13.6-24.2C408.5,60.9,407.1,61,404.8,64.2z"/>
	
		<linearGradient id="region-2-3_00000164488912440296781780000013431857126733374357_" gradientUnits="userSpaceOnUse" x1="-1689.9001" y1="-84.103" x2="-1689.5367" y2="-85.2294" gradientTransform="matrix(106.9322 0 0 -41.2661 180880.1875 -3361.3806)">
		<stop  offset="0" style="stop-color:#7F7938;stop-opacity:0.666"/>
		<stop  offset="1" style="stop-color:#938D4C;stop-opacity:0.783"/>
	</linearGradient>
	<path id="region-2-3" style="fill:url(#region-2-3_00000164488912440296781780000013431857126733374357_);" d="M208.4,113.1
		c-13.3,2.6-20.2,6-41.6,20.4c-18.6,12.5-16.9,11.2-16.2,12c0.3,0.2,6.5-3.5,13.8-8.4c28.5-19.3,48.3-25.4,69.5-21.4
		c4.3,0.8,1.9-0.9-2.7-2C224.9,112.1,214.8,111.9,208.4,113.1z"/>
	
		<linearGradient id="region-2-4_00000178900193989678409810000010421219567766623115_" gradientUnits="userSpaceOnUse" x1="-1669.6271" y1="-104.2356" x2="-1669.2709" y2="-105.339" gradientTransform="matrix(46.6662 0 0 -18.9756 78118.9062 -1863.5121)">
		<stop  offset="0" style="stop-color:#867F40;stop-opacity:0.707"/>
		<stop  offset="1" style="stop-color:#908948;stop-opacity:0.76"/>
	</linearGradient>
	<path id="region-2-4" style="fill:url(#region-2-4_00000178900193989678409810000010421219567766623115_);" d="M217.3,118
		c-3.1,1-7.8,2.9-10.5,4c-5.4,2.3-15,8.4-14.5,9.1c0.2,0.2,4.2-1.5,8.7-3.7c4.6-2.2,12.8-5.6,18.3-7.5s10.2-3.5,10.4-3.6
		C231,115.2,222,116.4,217.3,118z"/>
	
		<linearGradient id="region-2-5_00000145051992876361568940000005048939996620308911_" gradientUnits="userSpaceOnUse" x1="-1699.2311" y1="-71.7136" x2="-1699.2311" y2="-72.5174" gradientTransform="matrix(270.0378 0 0 -150.2797 459021.7812 -10662.3877)">
		<stop  offset="0" style="stop-color:#D50000;stop-opacity:0.797"/>
		<stop  offset="1" style="stop-color:#D70008;stop-opacity:0.838"/>
	</linearGradient>
	<path id="region-2-5" style="fill:url(#region-2-5_00000145051992876361568940000005048939996620308911_);" d="M250.2,115.2
		c-1.8,0.4-5.6,1.6-8.4,2.7c-3.6,1.5-6.7,2.1-10.2,2.1c-6.3,0-15.8,3-28,9c-4.7,2.2-9.2,4.1-9.6,4c-1.6-0.3-5.6,2-15.5,8.9
		c-11.1,7.7-17,12.5-16.5,13.3c0.2,0.4-3.6,3.8-8.4,7.6c-8.7,6.9-11.6,10.3-6,7c5.4-3.2,1.9-0.2-8.6,7.2
		c-10.5,7.5-12.8,10.4-4.3,5.6c2.4-1.4,4.4-2.4,4.4-2.2s-12.6,8.5-28.1,18.7c-15.4,10.1-28.1,18.7-28.1,19c0,0.4,3.5-1.1,7.6-3.4
		c4.2-2.3,7.6-3.9,7.6-3.8c0,0.6-17.3,10.7-27.7,16.2c-10.7,5.6-14.2,7.7-13.8,8.1s14.7-4.9,40.4-15c22.8-8.9,41.9-16.1,42.8-16.1
		c0.4,0.1-1.7,1.2-4.6,2.6c-2.9,1.3-4.8,2.6-4.3,2.8c1.2,0.4,14-4.4,29.9-11.3c10.9-4.7,12.5-5.1,13.5-4.1c0.7,0.6,1.5,1.2,1.9,1.2
		c1,0,18.1-6.3,22.3-8.1c1.9-0.8,5.3-2,7.6-2.6c11.3-3,32.5-11.2,37.8-14.8c1.8-1.2,4.5-2.9,6-3.9c1.5-0.9,3.9-2.7,5.1-3.9
		c1.4-1.3,2.4-2.1,2.4-1.8c0,1.3,8.1-3.6,12.1-7.3l4.2-3.9l-2.4-3.6c-1.4-1.9-3-4.8-3.9-6.4c-0.8-1.5-1.5-2.9-1.6-3
		s-3.9,0.7-8.4,1.9s-8.4,1.9-8.6,1.7c-1-1,0.9-3,6.6-7c4.3-2.9,6-4.6,5.8-5.5c-0.2-0.7-1.3-3.9-2.4-6.9
		C256.3,114.3,256,114.1,250.2,115.2z"/>
	
		<linearGradient id="region-2-6_00000143584340898825934570000005247955663503557291_" gradientUnits="userSpaceOnUse" x1="-1695.6968" y1="-72.8579" x2="-1694.9558" y2="-73.7016" gradientTransform="matrix(167.9328 0 0 -118.959 284798.1875 -8520.1943)">
		<stop  offset="0" style="stop-color:#706928;stop-opacity:0.581"/>
		<stop  offset="1" style="stop-color:#989252;stop-opacity:0.808"/>
	</linearGradient>
	<path id="region-2-6" style="fill:url(#region-2-6_00000143584340898825934570000005247955663503557291_);" d="M158.6,153.6
		c-6.4,4.4-38.3,28.5-48.3,36.4c-3.5,2.8-6.4,5.6-6.2,6.1c0.3,1-11.3,9.6-12.6,9.2c-1.5-0.4-14.5,7.3-31.7,18.8
		c-19.8,13.3-30.7,21.2-29.3,21.2c0.6,0,5.8-3,11.6-6.7s12.5-7.7,14.9-8.9c10.8-5.5,36-21.5,46-29.2c2.5-1.9,4.9-3.5,5.4-3.5
		c2.2,0,34.4-24.7,33.4-25.6c-0.6-0.6-6.4,3.5-20.2,14.1c-7.1,5.5-13.7,10.1-14.6,10.2c-1,0.1-1.6,0.1-1.5,0
		c10-7.3,58.5-44.1,59.2-45C166.6,148.7,164.3,149.8,158.6,153.6z"/>
	
		<linearGradient id="region-2-7_00000178166245924879604990000016641616673602079915_" gradientUnits="userSpaceOnUse" x1="-1696.9407" y1="-76.3219" x2="-1696.5682" y2="-77.4602" gradientTransform="matrix(193.8665 0 0 -74.0358 329125.125 -5491.4062)">
		<stop  offset="0" style="stop-color:#756E2D;stop-opacity:0.609"/>
		<stop  offset="1" style="stop-color:#918B4A;stop-opacity:0.768"/>
	</linearGradient>
	<path id="region-2-7" style="fill:url(#region-2-7_00000178166245924879604990000016641616673602079915_);" d="M252.7,165.7
		c-0.4,0.3-2.2,3-3.9,6.2c-4.6,8.4-14.2,17.7-22.9,21.9c-11.2,5.5-21.1,7.6-37.8,8L174,202l7.2-2.4c5.4-1.9,9.2-2.5,14.9-2.7
		c17.2-0.7,36.7-8,44.5-16.5c3.5-3.9,7.2-10.2,6.8-11.5c-0.2-0.6-1.5,0.7-2.9,2.7c-7.5,10.9-22.5,19.3-40.4,22.7
		c-10.5,2-10.8,1.5-1.1-1.9c5-1.7,9.6-3.5,10.5-3.9c4.1-2.3-3.7-0.2-29.4,8c-15.2,4.8-27.7,8.7-27.9,8.5s2.4-1.5,5.8-2.9
		c3.3-1.5,6-3,6-3.4c0-0.5-0.6-0.6-1.4-0.2c-0.8,0.3-3.8,1.4-6.7,2.4c-10,3.5-61.2,23-61.8,23.4c-2.2,1.9,18.1-4.4,36.7-11.4
		c2.8-1,5.4-1.8,5.7-1.5c0.3,0.2,6.8-1.5,14.2-3.7l13.6-4l11.6,0.1c13.1,0.1,32.1-1.2,37.7-2.6c2-0.5,6.6-2.3,10.1-4.1
		c7.5-3.9,17.2-12.9,20.7-19.5c2-3.8,5.7-12.5,5.2-12.5C253.7,165,253.2,165.4,252.7,165.7z"/>
	
		<linearGradient id="region-2-8_00000096768605059374661540000017149092417691785110_" gradientUnits="userSpaceOnUse" x1="-1674.2906" y1="-106.3969" x2="-1673.962" y2="-107.5941" gradientTransform="matrix(53.6415 0 0 -17.5596 90016.5625 -1692.3995)">
		<stop  offset="0" style="stop-color:#827C3D;stop-opacity:0.687"/>
		<stop  offset="1" style="stop-color:#8B8442;stop-opacity:0.731"/>
	</linearGradient>
	<path id="region-2-8" style="fill:url(#region-2-8_00000096768605059374661540000017149092417691785110_);" d="M220.2,181.1
		c-14.9,5.1-21.4,7.2-22.9,7.2c-1.8,0-7.1,2.3-6.7,2.9c1.1,1,40.7-11.2,42.8-13.3C234.9,176.4,231.2,177.2,220.2,181.1z"/>
	
		<linearGradient id="region-2-9_00000050640874530538197250000012045128872806359438_" gradientUnits="userSpaceOnUse" x1="-1671.2203" y1="-99.5661" x2="-1670.6809" y2="-100.6293" gradientTransform="matrix(49.6208 0 0 -20.9054 82997.1875 -1862.5455)">
		<stop  offset="0" style="stop-color:#817B3C;stop-opacity:0.682"/>
		<stop  offset="1" style="stop-color:#8B8442;stop-opacity:0.732"/>
	</linearGradient>
	<path id="region-2-9" style="fill:url(#region-2-9_00000050640874530538197250000012045128872806359438_);" d="M92.8,223.2
		c-3.9,1.5-12.4,4.9-18.7,7.7c-10.4,4.7-13.6,6.4-11.4,6.4c2.3,0,35.6-13.6,38.3-15.7C103.4,219.8,100.8,220.3,92.8,223.2z"/>
	
		<linearGradient id="region-3-1_00000181801781055027416470000000204345704724026799_" gradientUnits="userSpaceOnUse" x1="-1685.1086" y1="-76.9964" x2="-1684.1139" y2="-77.6839" gradientTransform="matrix(78.8391 0 0 -72.5195 133196.6719 -5526.541)">
		<stop  offset="0" style="stop-color:#E80000;stop-opacity:0.829"/>
		<stop  offset="1" style="stop-color:#DD001E;stop-opacity:0.792"/>
	</linearGradient>
	<path id="region-3-1" style="fill:url(#region-3-1_00000181801781055027416470000000204345704724026799_);" d="M347.5,55.4
		c-2.2,0.5-2.2,0.9-0.2,8.8c2.3,8.9,5.1,16.3,10.2,26c4.5,8.8,13.8,22.2,16,23.1c1.6,0.6,5.5-3.1,11.9-11.4
		C395.5,89,409.2,67.2,409.2,64c0-1-0.8-2.7-1.8-3.9c-1.6-1.8-3-2.2-11.1-3.3C387.2,55.6,351.2,54.6,347.5,55.4z"/>
	
		<linearGradient id="region-3-2_00000132791044555607323630000002219182310588278194_" gradientUnits="userSpaceOnUse" x1="-1679.4489" y1="-82.9019" x2="-1678.4127" y2="-83.2772" gradientTransform="matrix(62.8769 0 0 -45.7904 105830.1094 -3704.9128)">
		<stop  offset="0" style="stop-color:#0860A8;stop-opacity:0.763"/>
		<stop  offset="1" style="stop-color:#003F8C;stop-opacity:0.943"/>
	</linearGradient>
	<path id="region-3-2" style="fill:url(#region-3-2_00000132791044555607323630000002219182310588278194_);" d="M268,81.1
		c-5,1.9-20.6,18-27.7,28.6c-5.5,8.2-4.3,8.8,8.2,3.8c6.8-2.6,8.8-3.9,11.3-6.8c3.3-3.8,15.6-14,23.3-19.2c2.5-1.8,4.6-3.5,4.6-3.8
		s-1.5-1.4-3.5-2.2C280.2,79.5,273,79.4,268,81.1z"/>
	
		<linearGradient id="region-3-3_00000067948926976901200770000004724498966037185453_" gradientUnits="userSpaceOnUse" x1="-1659.8455" y1="-86.6909" x2="-1658.8953" y2="-87.4302" gradientTransform="matrix(35.8418 0 0 -36.4327 59806.2539 -3070.1433)">
		<stop  offset="0" style="stop-color:#EBA400;stop-opacity:0.795"/>
		<stop  offset="1" style="stop-color:#ECA503;stop-opacity:0.801"/>
	</linearGradient>
	<path id="region-3-3" style="fill:url(#region-3-3_00000067948926976901200770000004724498966037185453_);" d="M322.7,88.2
		c-4.9,3-7.1,7.5-6.7,13.7c0.2,3.9,0.8,5.6,2.4,7.8c2.8,3.7,7.3,5.8,12.3,5.7c5,0,8.4-1.8,11.4-5.5c3.1-4.2,3.5-12.1,0.9-16.8
		C339.2,86.4,329.5,84.1,322.7,88.2z"/>
	
		<linearGradient id="region-3-4_00000047761704297673460790000016883607645880775811_" gradientUnits="userSpaceOnUse" x1="-1682.3804" y1="-84.9165" x2="-1681.76" y2="-85.8549" gradientTransform="matrix(71.0323 0 0 -39.5159 119757.0391 -3249.4578)">
		<stop  offset="0" style="stop-color:#120E55;stop-opacity:0.73"/>
		<stop  offset="1" style="stop-color:#002769;stop-opacity:0.918"/>
	</linearGradient>
	<path id="region-3-4" style="fill:url(#region-3-4_00000047761704297673460790000016883607645880775811_);" d="M292.5,109.2
		c-4.9,1.5-15,7.7-30.5,18.8c-11.9,8.4-14.5,10.7-13.4,11.8c0.6,0.6,22.2-4.9,31.8-8.1c11.4-3.8,18.1-7.1,21.9-10.8
		c3.5-3.4,4-5.8,2-9.6C302.5,107.8,299,107.2,292.5,109.2z"/>
	
		<linearGradient id="region-3-5_00000169539848884365849230000000810135812893162659_" gradientUnits="userSpaceOnUse" x1="-1696.4095" y1="-73.7095" x2="-1696.4095" y2="-74.5138" gradientTransform="matrix(185.3 0 0 -105.5792 314543.7812 -7667.4727)">
		<stop  offset="0" style="stop-color:#E58B33;stop-opacity:0.808"/>
		<stop  offset="1" style="stop-color:#E7E63D;stop-opacity:0.678"/>
	</linearGradient>
	<path id="region-3-5" style="fill:url(#region-3-5_00000169539848884365849230000000810135812893162659_);" d="M250.4,115.2
		c-6.1,1.3-12.5,4-12.5,5.5c0,1.1-0.9,1.4-5.1,1.5c-2.8,0-7.2,0.5-9.8,1c-6.2,1.3-18.1,5.6-17.6,6.4c0.2,0.4-1.4,1.5-3.5,2.5
		c-5,2.3-8.9,5.5-7.5,6.2c0.6,0.2-1.6,1.9-5.2,4c-8.9,5-9.6,5.5-8.4,7c0.8,1,0.6,1.4-0.9,2.2c-5.6,2.9-25.6,16.4-25.6,17.4
		c0,1.7,2.2,1.2,9.6-2.1c11.9-5.3,11.3-4.6-4.3,6.1c-22.8,15.4-35,24.3-35,25.6c0,1.5,1,1.5,4.7-0.2c7.3-3.2,23.6-9,22.8-8.2
		c-1.7,1.7-1,2.5,1.7,2l2.6-0.5l-2.6,1.3c-1.5,0.7-2.6,1.6-2.6,1.9c0,0.7,8.4-1.5,11.6-3l2.4-1.2l-2,1.6c-1.1,0.9-1.6,1.7-1.2,1.7
		c0.5,0,8.4-2.5,17.7-5.5c9.3-3,17-5.1,17.3-4.8c1,1.4,19.9-4.6,33.4-10.5c2.2-1,4.6-1.9,5.2-1.9c2.8-0.2,9.4-4.3,14.1-8.6
		c4.9-4.6,5.1-4.7,6.4-3.1s1.5,1.5,5.2-0.4c2.1-1,5.7-3.7,8.1-5.9l4.2-3.9l-2.4-3.6c-1.4-1.9-3-4.8-3.9-6.4c-0.8-1.5-1.5-2.9-1.6-3
		s-3.9,0.7-8.4,1.9s-8.4,1.9-8.6,1.7c-1-1,0.9-3,6.6-7c4.3-2.9,6-4.6,5.8-5.5c-0.2-0.7-1.3-3.9-2.4-6.9
		C256.4,114.3,256,114.1,250.4,115.2z"/>
	
		<linearGradient id="region-3-6_00000021086370248311299730000003036347194331579312_" gradientUnits="userSpaceOnUse" x1="-1681.9873" y1="-92.3055" x2="-1681.7498" y2="-93.3857" gradientTransform="matrix(70.4125 0 0 -27.6507 118714.2266 -2411.6272)">
		<stop  offset="0" style="stop-color:#001150;stop-opacity:0.842"/>
		<stop  offset="1" style="stop-color:#00286F;stop-opacity:0.805"/>
	</linearGradient>
	<path id="region-3-6" style="fill:url(#region-3-6_00000021086370248311299730000003036347194331579312_);" d="M310.6,143.8
		c-5.4,2-21.7,5.8-27.5,6.4c-4.8,0.5-6.4,1.1-14.3,5.9c-5,3-8.8,5.9-8.8,6.5c0,3,25.3,2.7,40.1-0.4c9.7-2.1,15.4-7.5,16.3-15.5
		C317,142,316.4,141.6,310.6,143.8z"/>
	
		<linearGradient id="region-4-1_00000042735659723466191420000012940843023643886520_" gradientUnits="userSpaceOnUse" x1="-1695.0098" y1="-76.7812" x2="-1695.0098" y2="-77.5852" gradientTransform="matrix(157.6009 0 0 -73.7669 267461.7188 -5603.1851)">
		<stop  offset="0" style="stop-color:#FEFFC8;stop-opacity:0.472"/>
		<stop  offset="1" style="stop-color:#FBFFFF;stop-opacity:0.663"/>
	</linearGradient>
	<path id="region-4-1" style="fill:url(#region-4-1_00000042735659723466191420000012940843023643886520_);" d="M367.3,61.4
		c-15.8,1.1-22.8,2.8-35.7,8.4c-12.1,5.3-31.1,17.1-51.5,32c-19.1,13.9-17.3,12.1-16.2,15.4c0.4,1.5,1.2,2.8,1.6,2.8
		c0.5,0,10.6-6.1,22.6-13.5C314.5,90,321,86.3,336,79.2c13.3-6.4,23.6-9.9,42.6-14.3c12-2.8,12.9-3.1,10-3.7
		C384.8,60.5,378.5,60.5,367.3,61.4z"/>
	
		<linearGradient id="region-4-2_00000088817827868431204160000011191334375818370209_" gradientUnits="userSpaceOnUse" x1="-1649.7324" y1="-88.5716" x2="-1649.7324" y2="-89.3754" gradientTransform="matrix(29.9631 0 0 -33.195 49685.0508 -2857.061)">
		<stop  offset="0" style="stop-color:#FCFFFF;stop-opacity:0.827"/>
		<stop  offset="1" style="stop-color:#FFFFFF;stop-opacity:0.944"/>
	</linearGradient>
	<path id="region-4-2" style="fill:url(#region-4-2_00000088817827868431204160000011191334375818370209_);" d="M257.9,90
		c-8.2,8.5-16,18.1-16,19.6c0,1.4,17.6-16,21.4-21.1c2.7-3.7,3.4-5.5,2-5.5C265,83,261.6,86.2,257.9,90z"/>
	
		<linearGradient id="region-4-3_00000171679324626694283180000009673242175506720134_" gradientUnits="userSpaceOnUse" x1="-1652.1666" y1="-90.9669" x2="-1651.4591" y2="-90.1338" gradientTransform="matrix(30.7695 0 0 -30.8917 51154.9961 -2695.7224)">
		<stop  offset="0" style="stop-color:#F3ECD7;stop-opacity:0.762"/>
		<stop  offset="1" style="stop-color:#F7FBE7;stop-opacity:0.802"/>
	</linearGradient>
	<path id="region-4-3" style="fill:url(#region-4-3_00000171679324626694283180000009673242175506720134_);" d="M323,90.5
		c-3.9,2.6-5.7,6.5-5.3,11.5c0.6,7.5,6,12.1,13.4,11.4c7-0.7,11.2-5.5,11.2-12.9c0-6.9-5.2-11.9-12.5-11.9
		C327,88.7,325,89.1,323,90.5z"/>
	
		<linearGradient id="region-4-4_00000085972912601146057460000009167027268547046841_" gradientUnits="userSpaceOnUse" x1="-1673.0802" y1="-93.4069" x2="-1672.3582" y2="-94.2933" gradientTransform="matrix(50.7696 0 0 -26.8391 85204 -2398.0742)">
		<stop  offset="0" style="stop-color:#28BBF6;stop-opacity:0.558"/>
		<stop  offset="1" style="stop-color:#2EC5FF;stop-opacity:0.569"/>
	</linearGradient>
	<path id="region-4-4" style="fill:url(#region-4-4_00000085972912601146057460000009167027268547046841_);" d="M288.5,112.6
		c-3.4,1.8-11,6.4-17,10.3c-15.3,10-14.9,10.5,3,4.3c20.5-7.1,27.3-10.9,26.9-15.2c-0.2-1.9-0.6-2.1-3.5-2.3
		C295.4,109.6,293.1,110.3,288.5,112.6z"/>
	
		<linearGradient id="region-4-5_00000034080788182190521930000004601370806253648530_" gradientUnits="userSpaceOnUse" x1="-1693.5892" y1="-75.7267" x2="-1693.2014" y2="-76.7015" gradientTransform="matrix(138.1553 0 0 -80.6051 234162.0938 -5994.167)">
		<stop  offset="0" style="stop-color:#FFF8AD;stop-opacity:0.804"/>
		<stop  offset="1" style="stop-color:#FFF3AB;stop-opacity:0.795"/>
	</linearGradient>
	<path id="region-4-5" style="fill:url(#region-4-5_00000034080788182190521930000004601370806253648530_);" d="M250.4,115.2
		c-1.8,0.4-5.3,1.5-8,2.4l-4.7,1.8l0.4,3.1l0.4,3.1h-6c-4.2,0-7.2,0.5-10.5,1.8l-4.7,1.9l4.4,0.4l4.4,0.4l-4.3,0.6
		c-5.5,0.7-19.9,7.7-18.6,9c0.2,0.2,3.2-0.3,6.8-1.2c8.2-1.9,12.1-1.9,6,0c-6.3,2-13.9,6-20.9,10.9c-6.5,4.6-13.9,10.9-13.4,11.3
		c0.2,0.2,2.3-0.6,4.9-1.7c6.6-2.9,6.5-2.5-0.3,1.5c-9,5.2-23.6,16-24,17.6c-0.4,1.9,1.9,1.8,9.8-0.6c9.3-2.8,21.4-6,21.4-5.7
		c0,0.2-2,1.4-4.4,2.7c-5,2.8-5.6,3.9-1.8,3.5c3-0.3,28.8-8.7,32.3-10.4c2.4-1.2,2.4-1.2-0.4,1.3l-2.8,2.4l2.6,0.1
		c6.7,0.1,24.9-8.1,30.3-13.7l3-3.1l2.3,3.2l2.2,3.1l3.9-1.9c2.2-1.1,5.8-3.8,8.2-6l4.2-3.9l-2.4-3.6c-1.4-1.9-3-4.8-3.9-6.4
		c-0.8-1.5-1.5-2.9-1.6-3s-3.9,0.7-8.4,1.9s-8.4,1.9-8.6,1.7c-1-1,0.9-3,6.6-7c4.3-2.9,6-4.6,5.8-5.5c-0.2-0.7-1.3-3.9-2.4-6.9
		C256.4,114.3,256,114.1,250.4,115.2z"/>
	
		<linearGradient id="region-4-6_00000005226177973040250030000001590446285663974813_" gradientUnits="userSpaceOnUse" x1="-1672.0007" y1="-170.3946" x2="-1671.9282" y2="-171.7796" gradientTransform="matrix(49.63 0 0 -6.7458 83265.2422 -990.8358)">
		<stop  offset="0" style="stop-color:#FFFFFF;stop-opacity:0.912"/>
		<stop  offset="1" style="stop-color:#FFFFFF;stop-opacity:0.918"/>
	</linearGradient>
	<path id="region-4-6" style="fill:url(#region-4-6_00000005226177973040250030000001590446285663974813_);" d="M281.7,159.8
		c-3,0.6-6.9,1.5-8.4,1.9s-4.3,0.9-6,1c-3,0-3,0.1-1.2,0.9c4.3,1.8,33.8-1.4,38.5-4.2C306.5,158.2,288.1,158.6,281.7,159.8z"/>
	
		<linearGradient id="region-5-1_00000132072510623238745610000015627384585864344244_" gradientUnits="userSpaceOnUse" x1="-1646.1625" y1="-92.7913" x2="-1646.1625" y2="-93.5954" gradientTransform="matrix(27.8459 0 0 -27.7009 46169.168 -2480.7185)">
		<stop  offset="0" style="stop-color:#020F22;stop-opacity:0.796"/>
		<stop  offset="1" style="stop-color:#00000A;stop-opacity:0.893"/>
	</linearGradient>
	<path id="region-5-1" style="fill:url(#region-5-1_00000132072510623238745610000015627384585864344244_);" d="M324.8,90.9
		c-7.5,4.1-7.6,16-0.2,19.9c3,1.5,8.4,1.5,11.4,0c6.8-3.5,7.4-14.5,1-19.2C334,89.3,328.2,89,324.8,90.9z"/>
	
		<linearGradient id="region-5-2_00000119828522657078847220000002089852328870525574_" gradientUnits="userSpaceOnUse" x1="-1654.0736" y1="-107.7167" x2="-1653.3292" y2="-108.5763" gradientTransform="matrix(32.1105 0 0 -17.414 53386.707 -1766.1632)">
		<stop  offset="0" style="stop-color:#FFFFFD;stop-opacity:0.869"/>
		<stop  offset="1" style="stop-color:#FFFFFF;stop-opacity:0.913"/>
	</linearGradient>
	<path id="region-5-2" style="fill:url(#region-5-2_00000119828522657078847220000002089852328870525574_);" d="M294.2,110.9
		c-5.7,1.9-24,13.1-21.4,13.1c0.4,0,24.3-12.7,25.2-13.4C299.2,109.7,297.3,109.9,294.2,110.9z"/>
	
		<linearGradient id="region-5-3_00000000914610414152486390000002332774233295697845_" gradientUnits="userSpaceOnUse" x1="-1647.0952" y1="-90.8794" x2="-1646.5419" y2="-91.7376" gradientTransform="matrix(28.5019 0 0 -29.5532 47187.0391 -2573.7363)">
		<stop  offset="0" style="stop-color:#313E58;stop-opacity:0.757"/>
		<stop  offset="1" style="stop-color:#3D475C;stop-opacity:0.806"/>
	</linearGradient>
	<path id="region-5-3" style="fill:url(#region-5-3_00000000914610414152486390000002332774233295697845_);" d="M250.4,115.2
		c-1.8,0.4-5.3,1.5-8,2.4l-4.7,1.8l0.4,3c0.5,3.8,3.8,10.9,6.4,13.8l1.9,2.2l7.2-5.2c4-2.9,7.1-5.6,7.1-6.2s-1-3.5-2.1-6.6
		C256.4,114.3,256,114.1,250.4,115.2z"/>
	
		<linearGradient id="region-5-4_00000101099046779869184560000004826964381124855466_" gradientUnits="userSpaceOnUse" x1="-1652.1678" y1="-90.6617" x2="-1652.1678" y2="-91.465" gradientTransform="matrix(31.3 0 0 -29.7062 51973.8008 -2556.0439)">
		<stop  offset="0" style="stop-color:#182A55;stop-opacity:0.575"/>
		<stop  offset="1" style="stop-color:#001041;stop-opacity:0.678"/>
	</linearGradient>
	<path id="region-5-4" style="fill:url(#region-5-4_00000101099046779869184560000004826964381124855466_);" d="M258.6,138.5
		c-6.6,1.8-10.2,3.2-10.2,4c0,2.5,3.7,11.5,6,14.7l2.8,3.8l3.9-2c2.2-1,5.8-3.7,8.2-5.9l4.2-3.9l-2.4-3.6c-1.4-1.9-3-4.7-3.8-6.2
		C265.8,136.5,265.9,136.6,258.6,138.5z"/>
	
		<linearGradient id="region-6-1_00000026842333849160579460000016629684505329139112_" gradientUnits="userSpaceOnUse" x1="-1613.0667" y1="-106.965" x2="-1613.0667" y2="-107.7684" gradientTransform="matrix(17.8681 0 0 -17.8685 29156.1172 -1820.2139)">
		<stop  offset="0" style="stop-color:#DFE6EE;stop-opacity:0.787"/>
		<stop  offset="1" style="stop-color:#D6DFE9;stop-opacity:0.723"/>
	</linearGradient>
	<path id="region-6-1" style="fill:url(#region-6-1_00000026842333849160579460000016629684505329139112_);" d="M326.5,92.5
		c0.2,1,1.3,1.6,3.5,1.9c1.8,0.2,4,1,5.1,1.5c2.1,1.4,4.2,5.4,4.2,8.2c0.1,1.7,0.1,1.8,0.9,0.3c1.7-2.7,0.3-7.9-2.8-10.7
		c-2.5-2.2-3.5-2.6-7-2.6C326.8,91.1,326.2,91.3,326.5,92.5z"/>
	
		<linearGradient id="region-6-2_00000168085345328325441190000017024130942458768813_" gradientUnits="userSpaceOnUse" x1="-1432.2999" y1="-157.3412" x2="-1431.3937" y2="-156.5584" gradientTransform="matrix(6.0448 0 0 -7.9672 8978.4287 -1154.8318)">
		<stop  offset="0" style="stop-color:#F5F3FC;stop-opacity:0.514"/>
		<stop  offset="1" style="stop-color:#FEFCFF;stop-opacity:0.55"/>
	</linearGradient>
	<path id="region-6-2" style="fill:url(#region-6-2_00000168085345328325441190000017024130942458768813_);" d="M322.4,94.8
		c-1,1.2-1.7,2.8-1.7,3.6c0,1.1,0.5,1,2.4-1c2.3-2.3,3.2-4.7,1.7-4.7C324.4,92.7,323.3,93.6,322.4,94.8z"/>
	
		<linearGradient id="region-6-3_00000040536111276756763170000006249395192182409858_" gradientUnits="userSpaceOnUse" x1="-1635.4945" y1="-125.5047" x2="-1635.1665" y2="-126.49" gradientTransform="matrix(23.836 0 0 -12.0914 39227.2148 -1403.7742)">
		<stop  offset="0" style="stop-color:#3A494B;stop-opacity:0.603"/>
		<stop  offset="1" style="stop-color:#3E4D4F;stop-opacity:0.632"/>
	</linearGradient>
	<path id="region-6-3" style="fill:url(#region-6-3_00000040536111276756763170000006249395192182409858_);" d="M250.4,115.2
		c-1.8,0.4-5.3,1.5-7.8,2.4c-4.2,1.5-4.7,1.9-4.7,4c0,1.3,0.3,2.5,0.7,2.7c0.4,0.2,4.7-1,9.6-2.9c7.9-2.9,9-3.5,8.8-5
		C256.8,114.5,255.1,114.2,250.4,115.2z"/>
	
		<linearGradient id="region-6-4_00000039108535920968263090000014009636741638886072_" gradientUnits="userSpaceOnUse" x1="-1636.0774" y1="-102.8765" x2="-1635.886" y2="-103.7488" gradientTransform="matrix(24 0 0 -19.5 39527 -1861.9902)">
		<stop  offset="0" style="stop-color:#393D48;stop-opacity:0.774"/>
		<stop  offset="1" style="stop-color:#43454D;stop-opacity:0.805"/>
	</linearGradient>
	<path id="region-6-4" style="fill:url(#region-6-4_00000039108535920968263090000014009636741638886072_);" d="M269.7,145.7
		c-0.7,1.2-7.9,6.4-12.4,9.1l-3.4,2l1.6,2.1l1.7,2.2l3.9-1.9c3.6-1.9,12.1-8.9,12.1-10c0-0.3-0.7-1.5-1.5-2.5
		C270.8,145.3,270.1,145,269.7,145.7z"/>
</g>
<linearGradient id="region-2-1_00000161594955894070390360000014723724972608544693_" gradientUnits="userSpaceOnUse" x1="-1696.4321" y1="-73.929" x2="-1696.4321" y2="-74.7329" gradientTransform="matrix(211.7769 0 0 -109.0197 359853.5625 -7971.9487)">
	<stop  offset="0" style="stop-color:#736CF4;stop-opacity:0.384"/>
	<stop  offset="1" style="stop-color:#7593BD;stop-opacity:0.533"/>
</linearGradient>
<path id="region-2-1_00000033370232717212264760000012434827164795349912_" style="fill:url(#region-2-1_00000161594955894070390360000014723724972608544693_);" d="
	M612.6,88.2c-12.3,3.1-31,11.6-47.3,21.5l-10.8,6.5l-3.6-2c-4.4-2.3-10.9-2.6-16.5-0.6c-5.2,1.8-20.4,17.4-28.3,29.2
	c-5.1,7.6-3.6,8.2,8.4,3.4l7.6-3.1l0.9,4.2c0.5,2.2,1.6,6.1,2.6,8.5c1,2.4,1.8,4.7,1.8,4.9c0,0.3-2.7,2.4-6.1,4.7
	c-5.6,3.9-7.6,5.9-6.5,6.9c0.2,0.2,4.1-0.6,8.6-1.7c4.5-1.1,8.4-2,8.4-1.8s1,1.8,1.9,3.7c2,4,0.6,4.2,16.2-1.6
	c28.1-10.4,66.3-29.3,75.5-37.2c1.1-1,3-2.1,4.1-2.6c5.9-2.5,34.2-26,41.8-34.7c2.7-3,2.7-3.4,1.6-4.4c-2.2-2-18.5-3.8-38.7-4.1
	C624,87.6,614.1,87.8,612.6,88.2z"/>
<linearGradient id="region-2-2_00000066475277487798216520000002129604037270456202_" gradientUnits="userSpaceOnUse" x1="-1695.3975" y1="-72.7985" x2="-1694.9226" y2="-73.7275" gradientTransform="matrix(185.3217 0 0 -128.2305 314749.3125 -9250.998)">
	<stop  offset="0" style="stop-color:#4A69CF;stop-opacity:0.328"/>
	<stop  offset="1" style="stop-color:#676B7E;stop-opacity:0.684"/>
</linearGradient>
<path id="region-2-2_00000092453200089853878430000000043003054841723837_" style="fill:url(#region-2-2_00000066475277487798216520000002129604037270456202_);" d="
	M671.1,96.8c-5.1,6.7-35.4,31.8-41.4,34.4c-1.1,0.5-3,1.7-4.1,2.6c-9.3,8.2-60.1,32.5-83.6,40.1c-2.4,0.7-4.7,1.7-5.1,2
	c-1,1,3.6,7.1,5.5,7.4c1,0.2-1.5,2.1-7.2,5.5c-4.9,3-8.8,5.8-8.8,6.4c0,3,25.3,2.7,40.1-0.4c9.9-2.1,15.4-7.6,16.3-15.8l0.4-4.4
	l7.4-2.6c19.7-7.1,39.8-17.2,49.3-24.9c6.2-5,12.5-12.7,21.8-26.5c9.8-14.7,13.9-21.9,13.6-24.2C674.8,93.5,673.4,93.6,671.1,96.8z"
	/>
<linearGradient id="region-3-1_00000010308812606399364060000012660766241473626793_" gradientUnits="userSpaceOnUse" x1="-1681.1681" y1="-76.6014" x2="-1680.1735" y2="-77.2889" gradientTransform="matrix(78.8391 0 0 -72.5195 133196.6719 -5526.541)">
	<stop  offset="0" style="stop-color:#E80000;stop-opacity:0.829"/>
	<stop  offset="1" style="stop-color:#DD001E;stop-opacity:0.792"/>
</linearGradient>
<path id="region-3-1_00000048490046149711102910000011692054714865418385_" style="fill:url(#region-3-1_00000010308812606399364060000012660766241473626793_);" d="
	M658.2,26.8c-2.2,0.5-2.2,0.9-0.2,8.8c2.3,8.9,5.1,16.3,10.2,26c4.5,8.8,13.8,22.2,16,23.1c1.6,0.6,5.5-3.1,11.9-11.4
	c10.1-12.9,23.8-34.7,23.8-37.9c0-1-0.8-2.7-1.8-3.9c-1.6-1.8-3-2.2-11.1-3.3C697.9,27,661.9,26,658.2,26.8z"/>
<linearGradient id="region-3-4_00000149373193861103311990000002379399393437604756_" gradientUnits="userSpaceOnUse" x1="-1678.5226" y1="-87.9871" x2="-1677.9023" y2="-88.9255" gradientTransform="matrix(71.0323 0 0 -39.5159 119757.0391 -3249.4578)">
	<stop  offset="0" style="stop-color:#120E55;stop-opacity:0.73"/>
	<stop  offset="1" style="stop-color:#002769;stop-opacity:0.918"/>
</linearGradient>
<path id="region-3-4_00000117639536747577900830000012938065616192432311_" style="fill:url(#region-3-4_00000149373193861103311990000002379399393437604756_);" d="
	M566.5,230.6c-4.9,1.5-15,7.7-30.5,18.8c-11.9,8.4-14.5,10.7-13.4,11.8c0.6,0.6,22.2-4.9,31.8-8.1c11.4-3.8,18.1-7.1,21.9-10.8
	c3.5-3.4,4-5.8,2-9.7C576.5,229.2,573,228.6,566.5,230.6z"/>
<linearGradient id="region-4-1_00000008852508475768277300000007840139106984802230_" gradientUnits="userSpaceOnUse" x1="-1693.4869" y1="-76.5317" x2="-1693.4869" y2="-77.3353" gradientTransform="matrix(157.6009 0 0 -73.7669 267461.7188 -5603.1851)">
	<stop  offset="0" style="stop-color:#FEFFC8;stop-opacity:0.472"/>
	<stop  offset="1" style="stop-color:#FBFFFF;stop-opacity:0.663"/>
</linearGradient>
<path id="region-4-1_00000046330015207484998130000002054911422831938236_" style="fill:url(#region-4-1_00000008852508475768277300000007840139106984802230_);stroke:#000000;stroke-miterlimit:10;" d="
	M607.3,43c-15.8,1.1-22.8,2.8-35.7,8.4c-12.1,5.3-31.1,17.1-51.5,32c-19.1,13.9-17.3,12.1-16.2,15.3c0.4,1.5,1.2,2.8,1.6,2.8
	c0.5,0,10.6-6.1,22.6-13.5C554.5,71.5,561,67.8,576,60.7c13.3-6.4,23.6-9.9,42.6-14.3c12-2.8,12.9-3.1,10-3.7
	C624.8,42.1,618.5,42.1,607.3,43z"/>
<linearGradient id="region-4-4_00000075857328096376336670000016160783202656688518_" gradientUnits="userSpaceOnUse" x1="-1666.2999" y1="-97.253" x2="-1665.5779" y2="-98.1393" gradientTransform="matrix(50.7653 0.6585 0.3481 -26.8369 85225.8828 -1279.1597)">
	<stop  offset="0" style="stop-color:#28BBF6;stop-opacity:0.558"/>
	<stop  offset="1" style="stop-color:#2EC5FF;stop-opacity:0.569"/>
</linearGradient>
<path id="region-4-4_00000136394410889508733390000004642933136767224483_" style="fill:url(#region-4-4_00000075857328096376336670000016160783202656688518_);stroke:#000000;stroke-miterlimit:10;" d="
	M628,237.5c-3.4,1.7-11.1,6.2-17.2,10.1c-15.4,9.8-15,10.3,2.9,4.4c20.6-6.9,27.5-10.6,27-14.8c-0.2-1.8-0.6-2.1-3.4-2.4
	C634.9,234.6,632.7,235.3,628,237.5z"/>
<linearGradient id="region-5-2_00000143583552116600298650000010939239737245895334_" gradientUnits="userSpaceOnUse" x1="-1641.934" y1="-115.0835" x2="-1641.1895" y2="-115.9432" gradientTransform="matrix(32.1105 0 0 -17.414 53386.707 -1766.1632)">
	<stop  offset="0" style="stop-color:#FFFFFD;stop-opacity:0.869"/>
	<stop  offset="1" style="stop-color:#FFFFFF;stop-opacity:0.913"/>
</linearGradient>
<path id="region-5-2_00000068664879494143232840000015542705050261410467_" style="fill:url(#region-5-2_00000143583552116600298650000010939239737245895334_);stroke:#000000;stroke-miterlimit:10;" d="
	M684,239.2c-5.7,1.9-24,13.1-21.4,13.1c0.4,0,24.3-12.7,25.2-13.4C689,238,687.1,238.2,684,239.2z"/>
<g>
	<g>
		<line class="st40" x1="443.9" y1="71.9" x2="352.6" y2="71.9"/>
		<g>
			<polygon class="st41" points="478.3,71.9 429.7,88.2 441.2,71.9 429.7,55.6 			"/>
		</g>
	</g>
</g>
<g>
	<g>
		<line class="st40" x1="445.3" y1="205.1" x2="292.5" y2="126"/>
		<g>
			<polygon class="st41" points="503,234.8 417.1,206.9 440.8,202.7 426.1,178.7 			"/>
		</g>
	</g>
</g>
<rect x="491.8" y="15.5" class="st42" width="236.2" height="264.6"/>
</svg>
