<?xml version="1.0" encoding="utf-8"?>
<!-- Generator: Adobe Illustrator 27.0.0, SVG Export Plug-In . SVG Version: 6.00 Build 0)  -->
<svg version="1.1" xmlns="http://www.w3.org/2000/svg" xmlns:xlink="http://www.w3.org/1999/xlink" x="0px" y="0px"
	 viewBox="0 0 5191 766" style="enable-background:new 0 0 5191 766;" xml:space="preserve">
<style type="text/css">
	.st0{fill:none;}
	.st1{fill:#D3D3D3;}
	.st2{fill:url(#SVGID_00000095315293198495892970000012125722002294373535_);}
	.st3{fill:url(#region-1-1_00000000937195370962191640000006564169499452639675_);}
	.st4{fill:url(#region-1-2_00000174568237323993224990000013132704231248164253_);}
	.st5{fill:url(#region-1-3_00000150791381015342647310000015742930278509218973_);}
	.st6{fill:url(#region-2-1_00000085943652365403708730000003325492640002514061_);}
	.st7{fill:url(#region-2-2_00000163794688237623585040000006571107839395741622_);}
	.st8{fill:url(#region-2-3_00000178206790154782872880000006979233342327620247_);}
	.st9{fill:url(#region-2-4_00000069365453492650506840000015993148555323104927_);}
	.st10{fill:url(#region-2-5_00000142155900821143592800000016179106775632509341_);}
	.st11{fill:url(#region-3-1_00000018942091238536513110000013628332898835651764_);}
	.st12{fill:url(#region-3-2_00000150074235920882232970000015195160217887317411_);}
	.st13{fill:url(#region-3-3_00000059993210154229061430000015001113936680591021_);}
	.st14{fill:url(#region-3-4_00000008133374365250235970000013457545431266223772_);}
	.st15{fill:url(#region-3-5_00000067951346537583182530000003696463844060313499_);}
	.st16{fill:url(#region-3-6_00000073686102160658194130000017567576934474592445_);}
	.st17{fill:url(#region-3-7_00000180361862030322371230000015649988682530534784_);}
	.st18{fill:url(#region-3-8_00000116917222579565548190000013875488257652201406_);}
	.st19{fill:url(#region-4-1_00000053515482656216983690000005157076823828143537_);}
	.st20{fill:url(#region-4-2_00000109024479442927655890000010602703465282644154_);}
	.st21{fill:url(#region-5-1_00000124123953043050284740000005104269879516800146_);}
	.st22{fill:url(#region-5-2_00000114767412822596056060000002366472802426989495_);}
	.st23{fill:none;stroke:#000000;stroke-width:3;stroke-miterlimit:10;}
	.st24{fill:url(#region-1-1_00000051360160771760254270000010214559351349453973_);}
	.st25{fill:url(#region-1-2_00000053535537836868219950000015710490661505843605_);}
	.st26{fill:url(#region-1-3_00000183960833999034779730000011323245865103949701_);}
	.st27{fill:url(#region-2-1_00000076589962025706024890000003825676602389106599_);stroke:#000000;stroke-miterlimit:10;}
	.st28{fill:url(#region-2-2_00000110468307541345777750000008976346650811601037_);stroke:#000000;stroke-miterlimit:10;}
	.st29{fill:url(#region-2-3_00000045618176659588913610000009533436724148277890_);stroke:#000000;stroke-miterlimit:10;}
	.st30{fill:url(#region-2-4_00000180336144620168580400000004943823172165813385_);stroke:#000000;stroke-miterlimit:10;}
	.st31{fill:url(#region-2-5_00000005233057389851869220000008954343268372459145_);stroke:#000000;stroke-miterlimit:10;}
	.st32{fill:url(#region-3-1_00000111906395546518456320000016875136915776606127_);stroke:#000000;stroke-miterlimit:10;}
	.st33{fill:url(#region-3-2_00000102540054403432450140000018195278415871646878_);stroke:#000000;stroke-miterlimit:10;}
	.st34{fill:url(#region-3-3_00000072990423520330701660000016801483552814959781_);stroke:#000000;stroke-miterlimit:10;}
	.st35{fill:url(#region-3-4_00000029750717129889972610000017401478856586966182_);stroke:#000000;stroke-miterlimit:10;}
	.st36{fill:url(#region-3-5_00000125604503883752813630000011130454617086560435_);stroke:#000000;stroke-miterlimit:10;}
	.st37{fill:url(#region-3-6_00000111895938456051019610000001469326719871905460_);stroke:#000000;stroke-miterlimit:10;}
	.st38{fill:url(#region-3-7_00000116947679773446432260000012303958739311341758_);stroke:#000000;stroke-miterlimit:10;}
	.st39{fill:url(#region-3-8_00000068654346021595402500000002780342096136461199_);stroke:#000000;stroke-miterlimit:10;}
	.st40{fill:url(#region-4-1_00000130624190864745432450000008806864430013829023_);stroke:#000000;stroke-miterlimit:10;}
	.st41{fill:url(#region-4-2_00000116955646262303405650000006638241655249042088_);stroke:#000000;stroke-miterlimit:10;}
	.st42{fill:url(#region-5-1_00000152943336525860220620000015775711144928688536_);stroke:#000000;stroke-miterlimit:10;}
	.st43{fill:url(#region-5-2_00000041993948432800406280000000990376946722839445_);stroke:#000000;stroke-miterlimit:10;}
</style>
<pattern  width="40" height="40" patternUnits="userSpaceOnUse" id="SVGID_1_" viewBox="0 -40 40 40" style="overflow:visible;">
	<g>
		<rect y="-40" class="st0" width="40" height="40"/>
		<g>
			<rect y="-40" class="st0" width="40" height="40"/>
			<rect y="-40" class="st0" width="40" height="40"/>
			<rect y="-20" class="st1" width="20" height="20"/>
			<rect x="20" y="-40" class="st1" width="20" height="20"/>
		</g>
	</g>
</pattern>
<g id="图层_2">
	
		<pattern  id="SVGID_00000036968444131242668260000017350659461882758018_" xlink:href="#SVGID_1_" patternTransform="matrix(1 0 0 -1 -219 -13248.2402)">
	</pattern>
	<rect style="fill:url(#SVGID_00000036968444131242668260000017350659461882758018_);" width="5191" height="766"/>
</g>
<g id="图层_1">
	<g id="layer-1">
		
			<linearGradient id="region-1-1_00000110443133928314469370000014082606749407063994_" gradientUnits="userSpaceOnUse" x1="2587.8271" y1="682.777" x2="2589.155" y2="683.6752" gradientTransform="matrix(202.0897 0 0 339.7017 -522342 -231845.125)">
			<stop  offset="0" style="stop-color:#E3E1D7;stop-opacity:0.995"/>
			<stop  offset="1" style="stop-color:#C8C3B0"/>
		</linearGradient>
		<path id="region-1-1" style="fill:url(#region-1-1_00000110443133928314469370000014082606749407063994_);" d="M644.2,68.1
			c-2.1,0.7-2.2,0.8-0.5,0.9c3.9,0.2,13.2,7.5,28.5,22.6c8.5,8.4,22,21.5,29.9,29.1c28.2,27.2,30.1,29.1,30.1,30.2
			c0,0.6,0.7,0.9,1.5,0.6c1-0.4,12.9,10.5,35.7,32.6c18.9,18.3,34.2,33.7,34,34.1c-0.1,0.5,0.2,0.9,0.6,0.9c1.7,0,13.3,17,16.3,24
			c0.6,1.4,1.7,3.7,2.5,5.1c0.7,1.4,2.5,6.6,4,11.5c2.8,8.8,2.8,9.1,3.2,43.8c0.3,28.4,0.6,35.4,1.8,37c1.2,1.7,1.3,4.7,0.9,15.1
			c-1.2,26.5-3.4,42.8-6.6,48.2c-2.8,4.9-0.7,4,5-2.3c6.3-6.9,7.8-11.7,9.1-28.9c0.6-7.2,1.5-17.4,2-22.8
			c1.3-12.7,2.5-47.8,2.4-68.7c0-16.1-0.1-16.7-3.3-25.5c-7.8-21.1-13.5-29.7-31.1-46.4c-7.2-6.8-24.2-23.2-37.8-36.5
			c-13.6-13.2-36.2-34.4-50.2-47s-32.7-30-41.5-38.7c-10.7-10.5-17.5-16.5-20.5-17.8C655.6,67.1,648.8,66.6,644.2,68.1z"/>
		
			<linearGradient id="region-1-2_00000168100825670800569630000016240469993037809809_" gradientUnits="userSpaceOnUse" x1="2597.8674" y1="682.7236" x2="2598.1814" y2="683.9097" gradientTransform="matrix(759.0127 0 0 573.8323 -1971485.125 -391754.375)">
			<stop  offset="0" style="stop-color:#F6F5F5;stop-opacity:0.991"/>
			<stop  offset="1" style="stop-color:#BDB2B5"/>
		</linearGradient>
		<path id="region-1-2" style="fill:url(#region-1-2_00000168100825670800569630000016240469993037809809_);" d="M634.7,71.8
			c-24,8.7-123.3,46.2-145.5,54.8c-5.2,2-14,5.4-19.5,7.5c-15.3,5.8-51.7,19.7-64.5,24.7c-6.3,2.4-13.7,5.3-16.5,6.3
			c-2.7,1-15.6,5.9-28.5,10.9c-12.9,5.1-30.2,11.7-38.5,14.7c-8.2,3.1-16.3,6.2-18,6.9c-1.6,0.7-15.8,6.1-31.5,12
			c-15.7,5.9-39.7,15-53.5,20.2c-13.7,5.2-35.6,13.5-48.5,18.3c-61.3,23.1-74.7,28.2-77.7,29.5c-1.7,0.8-3.8,1.5-4.8,1.5
			c-2.3,0-6.6,2.4-9.2,5.2c-5.6,6-6.6,14.2-3.9,34.8c0.8,6.3,1.8,16.8,2.1,23.2c0.4,6.5,0.8,12.1,0.9,12.5c0,0.5-3,1.8-6.9,3.1
			c-4.8,1.5-8.1,3.4-10.8,6l-3.8,3.7l0.6,8c0.3,4.4,1.5,15.8,2.6,25.4l2,17.5L73.9,443c6.9,13.5,13.4,25.6,14.5,26.8
			c1.1,1.2,3.4,2.7,5.1,3.3c1.8,0.7,5.9,2.5,9.3,4.1c3.3,1.6,7.2,2.9,8.6,2.9c2.2,0,12.5,11.8,69.1,79.2
			c71.6,85.4,70.1,83.9,79.5,83.7c4.4,0,7.9-3.7,9.3-9.7c0.5-2,0.9-17.8,0.9-35v-31.4l-2.8,0.7l-2.9,0.6l-0.6-10.7
			c-0.4-5.9-0.7-21.2-0.7-34.1c0-14.4-0.4-23.3-1-23.3c-1.2,0-4-5.3-4-7.5c0-1.6-5.3-13.5-9.2-20.9l-2.1-4l2.3-1.5
			c2.1-1.4,24.1-10.6,57-23.8c6.3-2.5,12.2-5.2,13-5.8c1.4-1.2,4.4-2.4,6.5-2.6c0.6,0,1.5-0.5,2.1-1c0.7-0.5,2.2-1.2,3.3-1.4
			c1.2-0.2,33.1-13.1,70.9-28.6s74.6-30.5,81.7-33.5c12.4-5,46.1-18.8,81-33.1c8.8-3.6,19.6-8,24-9.8c25.6-10.4,118.2-48.3,127-52
			c4.4-1.9,28.5-11.8,53.5-22c25-10.3,45.7-18.9,45.9-19.1c0.4-0.4-8.7-12.5-10.6-14.1c-0.8-0.6-1.5-1.5-1.5-2
			c0-0.4-15.3-15.6-34-33.6c-22.5-21.9-34.3-32.7-35.3-32.3c-0.8,0.3-1.5,0-1.5-0.6c0-1.1-1.9-3-30.1-30.2
			c-7.9-7.6-21.4-20.7-29.9-29.1c-15.6-15.3-24.8-22.5-28.5-22.4C642.6,69.2,638.6,70.4,634.7,71.8z"/>
		
			<linearGradient id="region-1-3_00000147926200474601360940000000908780807891098522_" gradientUnits="userSpaceOnUse" x1="2597.8557" y1="682.6953" x2="2598.0884" y2="683.9177" gradientTransform="matrix(744.1205 0 0 461.6181 -1932718 -314947.1875)">
			<stop  offset="0" style="stop-color:#848281;stop-opacity:0.994"/>
			<stop  offset="1" style="stop-color:#D5D5D6"/>
		</linearGradient>
		<path id="region-1-3" style="fill:url(#region-1-3_00000147926200474601360940000000908780807891098522_);" d="M779.7,248.2
			c-18.7,7.8-39.8,16.5-47,19.4c-7.1,2.9-33.5,13.7-58.5,24c-45.4,18.6-70.4,28.9-85.5,35c-4.4,1.8-15.2,6.2-24,9.8
			c-34.9,14.3-68.6,28.1-81,33.1c-7.1,3-43.9,18-81.7,33.5s-69.7,28.4-70.9,28.6c-1.1,0.2-2.8,1-3.7,1.7c-0.8,0.7-1.6,1.1-1.6,0.9
			c-0.2-0.7-5,1.1-6.6,2.4c-0.8,0.6-6.7,3.3-13,5.8c-32.9,13.2-54.9,22.4-57,23.8l-2.3,1.5l2.1,4c3.9,7.4,9.2,19.3,9.2,20.9
			c0,2.2,2.8,7.5,4,7.5c0.6,0,1,8.9,1,23.3c0,12.9,0.3,28.2,0.7,34.1l0.6,10.7l2.9-0.6l2.8-0.7v31.4c0,17.2-0.4,33-0.9,35
			c-1.4,6-4.9,9.7-9.3,9.7c-9.4,0.2-7.9,1.7-79.5-83.7c-57.7-68.7-66.9-79.2-69.2-79.2c-1.5,0-5.3-1.4-8.5-3
			c-6.2-3.3-7.6-3.2-7.6,0.5c0,1.3-0.5,3.6-1.2,5.2c-0.6,1.5-1.2,3.5-1.4,4.3c-0.2,0.8-1.2,4.6-2.2,8.5c-1,3.8-1.7,8.8-1.6,11
			c0.2,5.9,2.3,15.5,4.4,20c1,2.2,2.4,5.9,3.1,8.2c0.6,2.4,2.5,5.7,4,7.5c1.6,1.7,3.1,3.9,3.4,4.9c0.3,0.9,1.2,2,2,2.3
			c0.8,0.3,1.5,1,1.5,1.6s0.4,1.6,1,2.3c8.7,10.7,11,13.7,11,14.6c0,0.6,0.7,1.1,1.5,1.1s1.5,0.6,1.5,1.3c0,0.6,1.4,2.5,3,4
			c1.7,1.6,3,3.5,3,4.3c0,0.8,0.6,1.4,1.4,1.4c0.7,0,2.5,1.5,3.9,3.3c3.6,4.6,17.6,18.7,18.6,18.7c0.5,0,1.1,1,1.5,2.3
			c0.3,1.3,1.7,3.6,3.1,5.1c1.4,1.5,2.5,3.1,2.5,3.7c0,0.5,0.5,0.9,1,0.9c0.6,0,1,0.6,1,1.4c0,0.8,0.6,1.6,1.3,1.9
			c0.6,0.2,2.5,3.1,4.1,6.3c1.7,3.3,3.6,6.5,4.3,7.2s1.3,1.8,1.3,2.3c0,0.6,1.1,2.5,2.5,4.3c1.4,1.8,2.5,4,2.5,4.8
			c0,0.9,1.5,2.7,3.4,4.2c1.9,1.4,3.8,3.6,4.2,4.8c0.4,1.2,2.4,4,4.5,6.2c2.2,2.1,3.9,4.3,3.9,4.8c0,0.4,0.5,0.8,1.2,0.8
			c0.6,0,4.1,2.6,7.7,5.7c7.5,6.5,16.4,12.7,20,13.8c1.3,0.4,3.1,1.4,4.1,2.2c7.3,6.3,38.3,11.8,60.2,10.8
			c21.1-0.9,30.6-2.6,44.6-7.6c11.2-4.1,21.4-8,23-8.9c1-0.5,6.9-2.9,13.3-5.4s12.9-5.2,14.5-6.1c1.6-0.8,3.5-1.5,4.2-1.5
			c0.7,0,2-0.4,3-1c1.7-1,6.8-3.1,8.7-3.6c1-0.2,18.1-7.3,24-9.9c1.7-0.7,5.9-2.3,9.5-3.5c3.6-1.2,7.9-2.7,9.5-3.4
			c1.7-0.8,6.4-2.6,10.5-4.1c4.1-1.5,8.9-3.3,10.5-4.1c6.7-2.8,16.4-6.7,23.7-9.4c4.2-1.6,9.8-4,12.4-5.4c2.7-1.4,5.4-2.6,6-2.6
			c0.7,0,2.9-0.9,5.1-2c2.1-1,6.1-2.9,8.8-4.1c5.5-2.3,15.3-6.8,28.5-13.1c4.7-2.2,10.5-5,13-6.1c2.5-1.1,8.1-3.8,12.5-6
			c4.4-2.1,10-4.7,12.5-5.7s9.7-4.3,16-7.3c14.7-6.9,19-8.8,27-12.1c3.6-1.5,8.8-3.8,11.5-5.1c2.8-1.3,7.5-3.3,10.5-4.5
			s6.4-2.6,7.5-3.1c5.7-2.4,14.3-5.7,16.5-6.4c1.4-0.4,5.4-2.1,9-3.7c10.5-4.8,12.8-5.8,13.4-5.8c0.8,0,16.6-7.3,40.7-18.7
			c5.8-2.8,11.6-5.4,13-5.8c1.3-0.4,3.1-1.3,3.9-2c0.8-0.6,3.1-1.8,5-2.5c8.1-3.2,39.1-19.3,47.2-24.6c2.1-1.3,4.1-2.4,4.4-2.4
			c0.4,0,1.4-0.7,2.3-1.4c0.9-0.8,3.7-3.4,6.4-5.7c6.1-5.4,11.2-12.5,12.3-16.9c1.7-7.7,0-24-2.6-24c-0.3,0-0.7-0.6-0.7-1.3
			c0-1.4-8.3-14-9.5-14.5c-1.8-0.8-0.6-3,2.2-4.2c7.7-3.2,10.8-16.9,12.5-54.5c0.4-10.4,0.3-13.4-0.9-15.1c-1.2-1.6-1.5-8.6-1.8-37
			c-0.4-34.7-0.4-35-3.2-43.9c-1.5-5-3.4-10-4.2-11.2c-0.8-1.2-1.4-2.8-1.4-3.5c0-1.7-5.8-10.8-6.8-10.8
			C814,234.2,798.4,240.5,779.7,248.2z"/>
	</g>
	<g id="layer-2">
		
			<linearGradient id="region-2-1_00000002347872462581575450000000027462531293336211_" gradientUnits="userSpaceOnUse" x1="2597.3174" y1="682.6152" x2="2597.4856" y2="683.8824" gradientTransform="matrix(644.8126 0 0 316.9001 -1674336.5 -216187.6719)">
			<stop  offset="0" style="stop-color:#FF7E5F;stop-opacity:0.805"/>
			<stop  offset="1" style="stop-color:#FF2915;stop-opacity:0.797"/>
		</linearGradient>
		<path id="region-2-1" style="fill:url(#region-2-1_00000002347872462581575450000000027462531293336211_);" d="M719.7,155.1
			c-16,4.4-69.4,24.2-121.5,45c-62.4,25-353.4,139.2-356.5,140c-3.9,1-66,31.2-69.1,33.6l-2.3,1.9l35,39.9
			c19.2,22,34.9,40.3,34.9,40.6c0,0.4,1.4,3.2,3.1,6.3l3.1,5.7l2.6-1.8c1.5-1,10.1-4.9,19.2-8.5c30.7-12.3,49.8-20.3,51.1-21.4
			c1.5-1.2,6.3-2.8,6.5-2.2c0,0.2,0.8-0.2,1.6-0.9c0.9-0.7,2.6-1.5,3.7-1.7c1.2-0.2,33.1-13.1,70.9-28.6s74.6-30.5,81.7-33.5
			c12.4-5,46.1-18.8,81-33.1c8.8-3.6,19.6-8,24-9.8c25.6-10.4,118.2-48.3,127-52c4.4-1.9,28.5-11.8,53.5-22
			c25-10.3,45.7-18.9,45.9-19.1c0.4-0.4-8.8-12.5-10.8-14.2c-0.9-0.7-1.5-1.6-1.5-2c0.2-0.9-67.2-66.2-68.3-66.1
			C734.1,151.2,727.4,153,719.7,155.1z"/>
		
			<linearGradient id="region-2-2_00000061436173226262507310000015870568215423335868_" gradientUnits="userSpaceOnUse" x1="2554.0332" y1="679.3687" x2="2554.156" y2="680.5602" gradientTransform="matrix(55.8836 0 0 29.0069 -142577.1875 -19439.6094)">
			<stop  offset="0" style="stop-color:#261E06;stop-opacity:0.395"/>
			<stop  offset="1" style="stop-color:#1A1200;stop-opacity:0.442"/>
		</linearGradient>
		<path id="region-2-2" style="fill:url(#region-2-2_00000061436173226262507310000015870568215423335868_);" d="M149.7,273.9
			c-13.2,3-24.2,5.7-24.4,5.9c-0.3,0.2,0.2,1,1,1.8c1.3,1.4,3.7,1,20.9-3c10.7-2.5,19.8-4.4,20.3-4.2c0.5,0.1-5.1,3.8-12.4,8.1
			c-7.4,4.2-14.3,8.4-15.4,9.2c-1.9,1.4-1.9,1.4,0.1,3.5l2,2l18.5-11.5c10.1-6.3,19.1-11.9,19.9-12.4c1.3-0.8,1.2-1.2-0.4-3.1
			c-1.1-1.1-2.9-2.1-4-2C174.6,268.3,162.9,270.8,149.7,273.9z"/>
		
			<linearGradient id="region-2-3_00000034052635454368495670000008058022167714271392_" gradientUnits="userSpaceOnUse" x1="2589.1191" y1="682.7142" x2="2589.1191" y2="683.7142" gradientTransform="matrix(214.1 0 0 363.7313 -554167.1875 -248045.2656)">
			<stop  offset="0" style="stop-color:#927E06;stop-opacity:0.135"/>
			<stop  offset="1" style="stop-color:#191000;stop-opacity:0.612"/>
		</linearGradient>
		<path id="region-2-3" style="fill:url(#region-2-3_00000034052635454368495670000008058022167714271392_);" d="M82.6,281
			c-9.4,5.8-11.1,14-8,38.1c0.8,6.3,1.8,16.8,2.1,23.2c0.4,6.5,0.8,12.1,0.9,12.5c0,0.5-3,1.8-6.9,3.1c-4.8,1.5-8.1,3.4-10.8,6
			l-3.8,3.7l0.6,8c0.3,4.4,1.5,15.8,2.6,25.4l2,17.5L73.9,443c6.9,13.5,13.4,25.6,14.5,26.8c1.1,1.2,3.4,2.7,5.1,3.3
			c1.8,0.7,5.9,2.5,9.3,4.1c3.3,1.6,7.2,2.9,8.6,2.9c2.2,0,12.5,11.8,69.1,79.2c71.6,85.4,70.1,83.9,79.5,83.7
			c4.4,0,7.9-3.7,9.3-9.7c0.5-2,0.9-17.8,0.9-35v-31.4l-2.8,0.7l-2.9,0.6l-0.6-10.7c-0.4-5.9-0.7-21.2-0.7-34.1
			c0-14.4-0.4-23.3-1-23.3c-1.2,0-4-5.3-4-7.7c0-1-0.9-3.5-2-5.6c-1.1-2.1-2.8-5.7-3.7-8c-0.9-2.3-3.1-6.5-4.9-9.2
			c-1.7-2.8-4.4-7.4-5.9-10.3c-2.4-4.6-69.8-83.4-72.3-84.4c-0.4-0.1-13.2-14.5-28.3-31.8s-33.8-38.8-41.6-47.7l-14.1-16.1L82.6,281
			z"/>
		
			<linearGradient id="region-2-4_00000075846316645930568650000013407570884537828528_" gradientUnits="userSpaceOnUse" x1="2549.5942" y1="679.1015" x2="2550.1301" y2="680.4602" gradientTransform="matrix(51.3007 0 0 27.3961 -130633.4688 -18323.4414)">
			<stop  offset="0" style="stop-color:#281C06;stop-opacity:0.357"/>
			<stop  offset="1" style="stop-color:#191500;stop-opacity:0.416"/>
		</linearGradient>
		<path id="region-2-4" style="fill:url(#region-2-4_00000075846316645930568650000013407570884537828528_);" d="M175.3,285.7
			c-5.5,1.5-20.4,8.3-23.2,10.6c-6.8,5.6-2.5,13.8,7.9,15.2c7.1,0.9,19.1-3.4,22.6-8.1c2.8-3.8,1.2-7.2-4.4-10l-4.5-2.1l3-1.3
			c4.7-2,15.5-1.8,16.8,0.3c0.9,1.3,0.7,2.2-0.8,3.8c-1.8,1.9-1.8,2.2-0.2,3.8c1.6,1.5,2,1.5,4.5,0.2c5-2.9,3.8-9.6-2.3-12.5
			C190.6,283.7,182.5,283.8,175.3,285.7z"/>
		
			<linearGradient id="region-2-5_00000039106775186474475650000016640500345140818856_" gradientUnits="userSpaceOnUse" x1="2597.7615" y1="682.6813" x2="2598.0264" y2="683.9247" gradientTransform="matrix(727.6259 0 0 447 -1889799 -304963)">
			<stop  offset="0" style="stop-color:#000000;stop-opacity:9.400000e-02"/>
			<stop  offset="1" style="stop-color:#2F2F2F;stop-opacity:0.846"/>
		</linearGradient>
		<path id="region-2-5" style="fill:url(#region-2-5_00000039106775186474475650000016640500345140818856_);" d="M779.7,248.2
			c-18.7,7.8-39.8,16.5-47,19.4c-7.1,2.9-33.5,13.7-58.5,24c-45.4,18.6-70.4,28.9-85.5,35c-4.4,1.8-15.2,6.2-24,9.8
			c-34.9,14.3-68.6,28.1-81,33.1c-7.1,3-43.9,18-81.7,33.5s-69.7,28.4-70.9,28.6c-1.1,0.2-2.8,1-3.7,1.7c-0.8,0.7-1.6,1.1-1.6,0.9
			c-0.2-0.7-5,1.1-6.6,2.4c-0.8,0.6-6.7,3.3-13,5.8c-32.9,13.2-54.9,22.4-57,23.8l-2.3,1.5l2.1,4c3.9,7.4,9.2,19.3,9.2,20.9
			c0,2.2,2.8,7.5,4,7.5c0.6,0,1,8.9,1,23.3c0,12.9,0.3,28.2,0.7,34.1l0.6,10.7l2.9-0.6l2.8-0.7v31.4c0,17.2-0.4,33-0.9,35
			c-1.4,6-4.9,9.7-9.3,9.7c-9.4,0.2-7.9,1.7-79.5-83.7c-64.5-76.9-66.6-79.2-70-79.2c-4.1,0-4.5-0.8,6.9,13.3
			c7.1,8.7,8.6,11.2,7.7,12.3c-1.5,1.9-2.7,1.8-8.8-0.8l-5.2-2.1l-2.9,3.4c-2.1,2.5-2.9,4.5-3,7.4c0,3.9,0.6,4.6,22.9,26.9
			c20.9,20.9,23,22.7,25,21.7c2.3-1.3,2.5-3.1,1.2-9.8c-0.7-3.7-0.5-4.5,1.5-6.4c1.2-1.1,2.7-2,3.3-1.8c0.6,0.2,19,21.3,41,46.9
			c39.7,46.3,41.7,49,36.2,49c-0.9,0-4-3.2-6.9-7.1c-2.9-3.8-5.9-7.2-6.7-7.5c-0.8-0.3-5.8,1-11.2,2.9l-9.8,3.5l17.5,17.6l17.5,17.7
			l4-1.4c4-1.4,4-1.4,3.7-6.4c-0.2-4.5,0-5.1,2.3-6.1c1.4-0.7,3.3-1.2,4.1-1.2c2.8,0,24.3,20.1,26.5,24.8c1.1,2.3,2.4,4.2,3,4.2
			c1.4,0,538.2-227,539.4-228.1c0.5-0.5,1.1-5.6,1.3-11.2c0.4-9.9,0.3-10.5-3.3-18.7c-2-4.6-4-8.7-4.6-9c-0.5-0.4,1.6-1.7,4.6-2.9
			c8.9-3.7,11.2-9.3,13.4-32.1c2-20.8,2.3-36.3,0.7-38.6c-1.2-1.6-1.5-8.6-1.8-37c-0.4-34.7-0.4-35-3.2-43.9c-1.5-5-3.4-10-4.2-11.2
			c-0.8-1.2-1.4-2.8-1.4-3.5c0-1.7-5.8-10.8-6.8-10.8C814,234.2,798.4,240.5,779.7,248.2z"/>
	</g>
	<g id="layer-3">
		
			<linearGradient id="region-3-1_00000005262392913628580410000013788551929259143301_" gradientUnits="userSpaceOnUse" x1="2597.3098" y1="682.5082" x2="2597.5889" y2="684.021" gradientTransform="matrix(644.7126 0 0 251 -1674076.375 -171112)">
			<stop  offset="0" style="stop-color:#FF8C84;stop-opacity:0.506"/>
			<stop  offset="1" style="stop-color:#FFFFFF"/>
		</linearGradient>
		<path id="region-3-1" style="fill:url(#region-3-1_00000005262392913628580410000013788551929259143301_);" d="M707.2,222.1
			c-13.5,2.7-33.9,7.4-45.5,10.5l-21,5.4l-59,26.9c-58.9,26.9-59.1,26.9-95.5,39c-48.1,15.9-106.6,31.1-147.5,38.2
			c-26.2,4.5-29.5,4.9-50.5,5.4c-20.2,0.5-24.2,0.3-38.5-1.8l-16-2.3l-29.4,14.2c-16.1,7.9-30.4,15.1-31.6,16.1l-2.4,1.9l35,39.9
			c19.2,22,34.9,40.3,34.9,40.6c0,0.4,1.4,3.2,3.1,6.3l3.1,5.7l2.6-1.8c1.5-1,10.1-4.9,19.2-8.5c30.7-12.3,49.8-20.3,51.1-21.4
			c1.5-1.2,6.3-2.8,6.5-2.2c0,0.2,0.8-0.2,1.6-0.9c0.9-0.7,2.6-1.5,3.7-1.7c1.2-0.2,33.1-13.1,70.9-28.6s74.6-30.5,81.7-33.5
			c12.4-5,46.1-18.8,81-33.1c8.8-3.6,19.6-8,24-9.8c25.6-10.4,118.2-48.3,127-52c4.4-1.9,28.5-11.8,53.5-22
			c25-10.3,45.6-18.9,45.8-19c0.2-0.2-2-3.5-4.9-7.4c-4.4-5.9-5.9-7.1-8.4-7.3c-1.6,0-4.3-0.2-6-0.4c-1.6-0.1-16.7-0.5-33.5-0.8
			l-30.5-0.6L707.2,222.1z"/>
		
			<linearGradient id="region-3-2_00000172414948434037405170000004979985227533560723_" gradientUnits="userSpaceOnUse" x1="2479.9636" y1="674.2281" x2="2479.9861" y2="675.2671" gradientTransform="matrix(21.8124 0 0 11.8633 -53928.0742 -7703.7031)">
			<stop  offset="0" style="stop-color:#CECCCC;stop-opacity:0.796"/>
			<stop  offset="1" style="stop-color:#D2D1D0;stop-opacity:0.813"/>
		</linearGradient>
		<path id="region-3-2" style="fill:url(#region-3-2_00000172414948434037405170000004979985227533560723_);" d="M160.8,297.4
			c-7.4,4.2-7.4,8.9,0,9.5c4.3,0.3,14-4,15.8-7C179.5,295,168.1,293.2,160.8,297.4z"/>
		
			<linearGradient id="region-3-3_00000042696176248158615920000006305948331793499534_" gradientUnits="userSpaceOnUse" x1="2554.3972" y1="682.8812" x2="2555.885" y2="682.9316" gradientTransform="matrix(56.9 0 0 171.5468 -145260.6094 -116762.4844)">
			<stop  offset="0" style="stop-color:#30281E;stop-opacity:0.726"/>
			<stop  offset="1" style="stop-color:#1A1208;stop-opacity:0.813"/>
		</linearGradient>
		<path id="region-3-3" style="fill:url(#region-3-3_00000042696176248158615920000006305948331793499534_);" d="M87.8,331.3
			c0.4,21.2,1,31.5,1.8,32c5.4,3.3,5.4,3.6,0.5,7.9l-4.6,4L98,398.9c8.2,15.6,13.9,25.2,16.7,28.2l4.2,4.5l2.3,19.5
			c1.2,10.7,2.5,19.8,2.9,20.3c0.4,0.4,2,0.3,3.7-0.2c1.6-0.5,4.1-1.2,5.6-1.5c1.4-0.3,4.1-1.8,5.8-3.3l3.2-2.6l-0.8-22.1l-0.7-22.1
			l-13.7-28l-13.6-28.1l-6.5-1.8c-11.9-3.5-10.9-0.8-10.9-30v-25.3l-3.9-3.1c-2.2-1.8-4.3-3.2-4.6-3.2
			C87.3,300.1,87.4,314.2,87.8,331.3z"/>
		
			<linearGradient id="region-3-4_00000052099374332791286770000009787479690839454614_" gradientUnits="userSpaceOnUse" x1="2584.8032" y1="683.2623" x2="2586.5273" y2="682.9689" gradientTransform="matrix(164.3567 0 0 310.8293 -424744.7188 -211886.4062)">
			<stop  offset="0" style="stop-color:#000000;stop-opacity:0.938"/>
			<stop  offset="1" style="stop-color:#4B4440;stop-opacity:0.628"/>
		</linearGradient>
		<path id="region-3-4" style="fill:url(#region-3-4_00000052099374332791286770000009787479690839454614_);" d="M96.2,331.6
			c0,29.3-1,26.6,10.9,30.1l6.5,1.8l13.6,28.1l13.7,28l0.7,22.1l0.8,22.1l-3.2,2.6c-1.7,1.5-3.6,2.7-4.1,2.7s-0.9,0.5-0.9,1.1
			c0,0.9,18.2,23.5,25.1,31.3c0.5,0.5,1.1-0.9,1.5-3.1c0.9-6,5.9-10.1,18.4-15.3c5.8-2.4,11-4.7,11.6-5.2c0.6-0.4,1.4-2.9,1.7-5.4
			c0.5-4.8,2.5-7.8,7-10.1c11-5.6,30.9,14.7,40,40.9c2.1,5.9,4.7,13.8,5.8,17.5c2.2,7.5,3.6,26.3,2.5,33.7c-1.4,9-8.5,12-17.4,7.4
			l-4.3-2.3l-5.7,3.1c-3.1,1.8-5.8,3.6-6,4.2c-0.4,1.4,42.6,49.6,44.7,50c1.5,0.3,1.6-1.4,1.3-19.5c-0.2-10.9-0.8-22.3-1.3-25.3
			c-1.4-7.6-2.6-21.8-3.9-46c-0.9-17.9-1.4-21.6-3.9-29.5c-3.9-12.4-10.1-24.3-18.1-35c-8-10.8-134.7-155.5-136.1-155.5
			C96.6,306.1,96.2,316.3,96.2,331.6z"/>
		
			<linearGradient id="region-3-5_00000003813843957935049370000004126346157002250165_" gradientUnits="userSpaceOnUse" x1="2596.7979" y1="682.6488" x2="2597.168" y2="683.8771" gradientTransform="matrix(586.011 0 0 408.6029 -1521317 -278737.7812)">
			<stop  offset="0" style="stop-color:#E5DED6;stop-opacity:0.782"/>
			<stop  offset="1" style="stop-color:#BBA7BB;stop-opacity:0.411"/>
		</linearGradient>
		<path id="region-3-5" style="fill:url(#region-3-5_00000003813843957935049370000004126346157002250165_);" d="M779.7,248.2
			c-18.7,7.8-39.8,16.5-47,19.4c-7.1,2.9-33.5,13.7-58.5,24c-45.4,18.6-70.4,28.9-85.5,35c-4.4,1.8-15.2,6.2-24,9.8
			c-34.9,14.3-68.6,28.1-81,33.1c-7.1,3-43.9,18-81.7,33.5s-69.7,28.4-70.9,28.6c-1.1,0.2-2.8,1-3.7,1.7c-0.8,0.7-1.6,1.1-1.6,0.9
			c-0.2-0.7-5,1.1-6.6,2.4c-0.8,0.6-6.7,3.3-13,5.8c-32.9,13.2-54.9,22.4-57,23.8l-2.3,1.5l2.1,4c3.9,7.4,9.2,19.3,9.2,20.9
			c0,2.2,2.8,7.5,4,7.5c0.6,0,1,8.9,1,23.3c0,12.9,0.3,28.2,0.7,34.1l0.6,10.7l2.9-0.6l2.8-0.7v31.4c0,17.2-0.4,33-0.9,35.1
			c-0.5,2.2-1.9,5-3.2,6.3c-1.2,1.3-2,2.7-1.7,3c0.4,0.3,56.8-22.9,125.5-51.6c127.4-53.2,394.8-165.5,403.8-169.5
			c2.8-1.3,10.5-4.6,17.3-7.5c11.2-4.8,12.5-5.6,14.6-9.4c3.7-6.4,5.9-21.2,7.1-49.1c0.4-10.4,0.3-13.4-0.9-15.1
			c-1.2-1.6-1.5-8.6-1.8-37c-0.4-34.7-0.4-35-3.2-43.9c-1.5-5-3.4-10-4.2-11.2c-0.8-1.2-1.4-2.8-1.4-3.5c0-1.7-5.8-10.8-6.8-10.8
			C814,234.2,798.4,240.5,779.7,248.2z"/>
		
			<linearGradient id="region-3-6_00000111188165797240566400000004094286158457032872_" gradientUnits="userSpaceOnUse" x1="2531.0303" y1="681.6349" x2="2531.158" y2="682.6498" gradientTransform="matrix(37.6468 0 0 79.3728 -95199.3672 -53727.5391)">
			<stop  offset="0" style="stop-color:#46341C;stop-opacity:0.743"/>
			<stop  offset="1" style="stop-color:#614F2B;stop-opacity:0.82"/>
		</linearGradient>
		<path id="region-3-6" style="fill:url(#region-3-6_00000111188165797240566400000004094286158457032872_);" d="M69.2,381.4
			c0,0.7,0.9,7.7,2,15.6c1.7,11.6,1.8,15,0.9,18.1c-1.2,3.8-1.1,4.1,8.6,21.9l9.9,17.9l4.5,1.2c2.5,0.7,5.9,1.8,7.6,2.5
			c1.6,0.8,3.3,1.1,3.7,0.9c0.5-0.3,0.6-7.2,0.2-15.2l-0.6-14.7l-12.9-23.5l-12.9-23.6l-4.5-1.2C70,379.8,69.2,379.8,69.2,381.4z"/>
		
			<linearGradient id="region-3-7_00000008840401704197483830000002291415708467809953_" gradientUnits="userSpaceOnUse" x1="2556.5522" y1="681.4506" x2="2557.8059" y2="682.2343" gradientTransform="matrix(59.7393 0 0 62.2191 -152558.1406 -41916.3984)">
			<stop  offset="0" style="stop-color:#251E13;stop-opacity:0.457"/>
			<stop  offset="1" style="stop-color:#0E0400;stop-opacity:0.557"/>
		</linearGradient>
		<path id="region-3-7" style="fill:url(#region-3-7_00000008840401704197483830000002291415708467809953_);" d="M197.7,476.8
			c-2.2,0.8-5.1,1.7-6.5,1.9c-1.4,0.2-6,1.9-10.3,3.7l-7.9,3.5l6.2,3.8c5.2,3.2,6.6,4.6,8.6,9.2c1.3,3,4.5,8.7,7,12.8
			c3.5,5.6,5.1,9.6,6.6,16.2c1,4.8,2.3,9,2.7,9.5c0.4,0.4,3,0.1,5.7-0.7c2.7-0.8,8.7-2.2,13.4-3.2c4.7-0.9,8.9-2.1,9.4-2.5
			c0.8-0.7-1.9-11.8-6.7-27.4c-1.3-4.3-4.3-10.3-7.8-15.5c-4.6-6.8-6.6-8.9-10.3-10.8C202.4,474.8,202.9,474.8,197.7,476.8z"/>
		
			<linearGradient id="region-3-8_00000016756104374592740500000016639174065331185285_" gradientUnits="userSpaceOnUse" x1="2510.0503" y1="681.3552" x2="2510.0503" y2="682.3552" gradientTransform="matrix(28.986 0 0 63.1908 -72572.6875 -42558.332)">
			<stop  offset="0" style="stop-color:#573E13;stop-opacity:0.519"/>
			<stop  offset="1" style="stop-color:#422800;stop-opacity:0.604"/>
		</linearGradient>
		<path id="region-3-8" style="fill:url(#region-3-8_00000016756104374592740500000016639174065331185285_);" d="M169.8,500.8
			c-1.6,9.9-0.1,19.8,5,33.4c1.8,4.9,4.7,9.3,11,16.8c8.3,9.9,8.7,10.2,10.5,8.5c2.5-2.2,2.5-8.3,0-20.6
			c-2.9-14.2-6.2-21.7-14.4-32.5c-3.3-4.4-9-9.3-10.9-9.3C170.7,497.1,170.2,498.8,169.8,500.8z"/>
	</g>
	<g id="layer-4">
		
			<linearGradient id="region-4-1_00000004530722164597313770000003075739569339123601_" gradientUnits="userSpaceOnUse" x1="2596.6221" y1="682.4651" x2="2597.2766" y2="683.9659" gradientTransform="matrix(574.3048 0 0 241 -1490875.25 -164272)">
			<stop  offset="0" style="stop-color:#E3A0A6;stop-opacity:0.13"/>
			<stop  offset="1" style="stop-color:#BFFFFF;stop-opacity:0.736"/>
		</linearGradient>
		<path id="region-4-1" style="fill:url(#region-4-1_00000004530722164597313770000003075739569339123601_);" d="M808.7,227.9
			c-0.6,0.5-4.8,2.4-9.5,4.2s-9.9,3.9-11.6,4.6c-1.7,0.7-29.8,11.9-62.5,24.9c-32.7,12.9-62.8,24.9-66.9,26.6
			c-8,3.2-27.5,11-48,19.1c-6.9,2.7-14.5,5.7-17,6.8s-28.8,11.6-58.5,23.4c-75.3,29.9-118.9,47.2-122.7,48.9c-1.8,0.8-6,2.5-9.3,3.7
			c-3.3,1.3-7.8,3.1-10,4c-2.2,1-15.7,6.4-30,12c-14.3,5.6-27.8,11-30,11.9c-2.2,1-7.4,3-11.5,4.5c-4.1,1.5-8.4,3.2-9.5,3.7
			c-1.1,0.5-13,5.2-26.5,10.5c-35.5,13.8-37.2,14.5-38.9,15.4c-0.9,0.5-2.4,1.1-3.4,1.4c-3,0.9-2.9,2.9,0.4,8.9l3.1,5.7l2.6-1.8
			c1.5-1,10.1-4.9,19.2-8.5c30.7-12.3,49.8-20.3,51.1-21.4c1.4-1,4.4-2.2,6.4-2.4c0.6,0,1.5-0.5,2.1-1c0.7-0.5,2.2-1.2,3.3-1.4
			c1.2-0.2,33.1-13.1,70.9-28.6s74.6-30.5,81.7-33.5c12.4-5,46.1-18.8,81-33.1c8.8-3.6,19.6-8,24-9.8c25.6-10.4,118.2-48.3,127-52
			c4.4-1.9,28.5-11.8,53.5-22c25-10.3,45.7-18.9,45.8-19c0.5-0.5-4-6.5-4.8-6.5C809.9,227.1,809.2,227.5,808.7,227.9z"/>
		
			<linearGradient id="region-4-2_00000126305526268988122860000018432760839259601065_" gradientUnits="userSpaceOnUse" x1="2596.8015" y1="682.5976" x2="2597.1418" y2="683.904" gradientTransform="matrix(582.8 0 0 333.9 -1512965.125 -227715.7031)">
			<stop  offset="0" style="stop-color:#7F7682;stop-opacity:0.793"/>
			<stop  offset="1" style="stop-color:#C4C0BF;stop-opacity:0.79"/>
		</linearGradient>
		<path id="region-4-2" style="fill:url(#region-4-2_00000126305526268988122860000018432760839259601065_);" d="M779.7,248.2
			c-18.7,7.8-39.8,16.5-47,19.4c-7.1,2.9-33.5,13.7-58.5,24c-45.4,18.6-70.4,28.9-85.5,35c-4.4,1.8-15.2,6.2-24,9.8
			c-34.9,14.3-68.6,28.1-81,33.1c-7.1,3-43.9,18-81.7,33.5s-69.7,28.4-70.9,28.6c-1.1,0.2-2.8,1-3.7,1.7c-0.8,0.7-1.6,1.1-1.6,0.9
			c-0.2-0.7-5,1.1-6.6,2.4c-0.8,0.6-6.7,3.3-13,5.8c-32.9,13.2-54.9,22.4-57,23.8l-2.3,1.5l2.1,4c3.9,7.4,9.2,19.3,9.2,20.9
			c0,2.2,2.8,7.5,4,7.5c0.6,0,1,8.9,1,23.3c0,12.9,0.3,28.2,0.6,34l0.7,10.6l5.1-0.6c3.5-0.4,31.9-11.6,90.1-35.6
			c46.8-19.2,89.7-36.9,95.5-39.2c5.8-2.4,21.1-8.7,34-14c12.9-5.4,28.2-11.7,34-14c5.8-2.4,17.3-7.1,25.5-10.5
			c8.3-3.5,17.5-7.3,20.5-8.5s14.1-5.7,24.5-10c10.5-4.2,20.4-8.3,22-9c2.6-1.2,158.6-65.5,199-82l15-6.1l-0.1-35v-34.9l-2.8-9
			c-1.5-5-3.4-10-4.2-11.2c-0.8-1.2-1.4-2.8-1.4-3.5c0-1.7-5.8-10.8-6.8-10.8C814,234.2,798.4,240.5,779.7,248.2z"/>
	</g>
	<g id="layer-5">
		
			<linearGradient id="region-5-1_00000080916180229447419900000006733235336692119697_" gradientUnits="userSpaceOnUse" x1="2596.9478" y1="682.6108" x2="2596.9478" y2="683.6108" gradientTransform="matrix(582.3 0 0 267.0407 -1511664.625 -182050.7969)">
			<stop  offset="0" style="stop-color:#B8B2B6;stop-opacity:0.802"/>
			<stop  offset="1" style="stop-color:#BBB5C0;stop-opacity:0.8"/>
		</linearGradient>
		<path id="region-5-1" style="fill:url(#region-5-1_00000080916180229447419900000006733235336692119697_);" d="M779.7,248.2
			c-18.7,7.8-39.8,16.5-47,19.4c-7.1,2.9-33.5,13.7-58.5,24c-45.4,18.6-70.4,28.9-85.5,35c-4.4,1.8-15.2,6.2-24,9.8
			c-34.9,14.3-68.6,28.1-81,33.1c-7.1,3-43.9,18-81.7,33.5s-69.7,28.4-70.9,28.6c-1.1,0.2-2.8,1-3.7,1.7c-0.8,0.7-1.6,1.1-1.6,0.9
			c-0.2-0.7-5,1.1-6.6,2.4c-0.8,0.6-6.7,3.3-13,5.8c-32.9,13.2-54.9,22.4-57,23.8l-2.3,1.5l2.1,4c3.9,7.4,9.2,19.3,9.2,20.9
			c0,2.1,1.8,5.6,3.9,7.6c1.9,1.8-7.4,5.3,96.6-36.5c68.7-27.6,134.7-54.3,139-56.1c1.7-0.7,17.2-7,34.5-14s45.5-18.3,62.5-25.2
			c17.1-6.9,51-20.6,75.5-30.5c33.3-13.4,147.3-59.3,157.8-63.5c0.6-0.3,1.2-1.8,1.2-3.3c0-3.6-4.7-19.8-6.6-22.7
			c-0.8-1.2-1.4-2.8-1.4-3.5c0-1.7-5.8-10.8-6.8-10.8C814,234.2,798.4,240.5,779.7,248.2z"/>
		
			<linearGradient id="region-5-2_00000137104959872344225990000007273055963818687896_" gradientUnits="userSpaceOnUse" x1="2511.2026" y1="679.4957" x2="2511.2026" y2="680.4957" gradientTransform="matrix(29.356 0 0 29.6601 -73411.375 -19659.7129)">
			<stop  offset="0" style="stop-color:#474035;stop-opacity:0.771"/>
			<stop  offset="1" style="stop-color:#3D362B;stop-opacity:0.812"/>
		</linearGradient>
		<path id="region-5-2" style="fill:url(#region-5-2_00000137104959872344225990000007273055963818687896_);" d="M304.7,495.4
			c-2.7,1.2-2.9,1.6-2.6,6.6l0.3,5.2l-5.1,2.1c-4.7,2-5,2.3-4.4,5.2c0.3,1.7,0.7,3.3,0.9,3.5c0.2,0.2,2.2-0.4,4.5-1.3
			c4.8-2,5.9-1.2,5.9,4.1v3.1l4-1.5c3.9-1.6,4-1.7,4-6.4v-4.8l5.1-2.2c4.8-2.1,5.1-2.4,4.5-5.2c-0.3-1.7-0.8-3.2-1-3.4
			c-0.1-0.2-2.2,0.4-4.6,1.2c-5,1.8-6,1.1-6-4.3C310.2,493.8,309.3,493.5,304.7,495.4z"/>
	</g>
	<g id="图层_3">
	</g>
	<line class="st23" x1="891" y1="1" x2="891" y2="767"/>
	<line class="st23" x1="1776.5" y1="-3" x2="1776.5" y2="763"/>
	<line class="st23" x1="2623.5" y1="-3" x2="2623.5" y2="763"/>
	<line class="st23" x1="3473.5" y1="1" x2="3473.5" y2="767"/>
	<line class="st23" x1="4299.5" y1="5" x2="4299.5" y2="771"/>
</g>
<g id="图层_3_00000134214410710103221560000009612375837017952140_">
	<g id="layer-1_00000154407086559149014900000016022048098214651283_">
		
			<linearGradient id="region-1-1_00000019670889259960175900000003514726339615994245_" gradientUnits="userSpaceOnUse" x1="2592.2695" y1="682.7892" x2="2593.5974" y2="683.6874" gradientTransform="matrix(202.0897 0 0 339.7017 -522342 -231845.125)">
			<stop  offset="0" style="stop-color:#E3E1D7;stop-opacity:0.995"/>
			<stop  offset="1" style="stop-color:#C8C3B0"/>
		</linearGradient>
		
			<path id="region-1-1_00000134972537466280294450000006313890370340816271_" style="fill:url(#region-1-1_00000019670889259960175900000003514726339615994245_);" d="
			M1542,72.2c-2.1,0.7-2.2,0.8-0.5,0.9c3.9,0.2,13.2,7.5,28.5,22.6c8.5,8.4,22,21.5,29.9,29.1c28.2,27.2,30.1,29.1,30.1,30.2
			c0,0.6,0.7,0.9,1.5,0.6c1-0.4,12.9,10.5,35.7,32.6c18.9,18.3,34.2,33.7,34,34.1c-0.1,0.5,0.2,0.9,0.6,0.9c1.7,0,13.3,17,16.3,24
			c0.6,1.4,1.7,3.7,2.5,5.1c0.7,1.4,2.5,6.6,4,11.5c2.8,8.8,2.8,9.1,3.2,43.8c0.3,28.4,0.6,35.4,1.8,37c1.2,1.7,1.3,4.7,0.9,15.1
			c-1.2,26.5-3.4,42.8-6.6,48.2c-2.8,4.9-0.7,4,5-2.3c6.3-6.9,7.8-11.7,9.1-28.9c0.6-7.2,1.5-17.4,2-22.8
			c1.3-12.7,2.5-47.8,2.4-68.7c0-16.1-0.1-16.7-3.3-25.5c-7.8-21.1-13.5-29.7-31.1-46.4c-7.2-6.8-24.2-23.2-37.8-36.5
			c-13.6-13.2-36.2-34.4-50.2-47c-14-12.6-32.7-30-41.5-38.7c-10.7-10.5-17.5-16.5-20.5-17.8C1553.4,71.2,1546.6,70.7,1542,72.2z"/>
		
			<linearGradient id="region-1-2_00000091712484793192719980000006003803546898770582_" gradientUnits="userSpaceOnUse" x1="2599.0503" y1="682.7309" x2="2599.364" y2="683.917" gradientTransform="matrix(759.0127 0 0 573.8323 -1971485.125 -391754.375)">
			<stop  offset="0" style="stop-color:#F6F5F5;stop-opacity:0.991"/>
			<stop  offset="1" style="stop-color:#BDB2B5"/>
		</linearGradient>
		
			<path id="region-1-2_00000165195066464354799120000013370266762651884464_" style="fill:url(#region-1-2_00000091712484793192719980000006003803546898770582_);" d="
			M1532.5,75.9c-24,8.7-123.3,46.2-145.5,54.8c-5.2,2-14,5.4-19.5,7.5c-15.3,5.8-51.7,19.7-64.5,24.7c-6.3,2.4-13.7,5.3-16.5,6.3
			c-2.7,1-15.6,5.9-28.5,10.9c-12.9,5.1-30.2,11.7-38.5,14.7c-8.2,3.1-16.3,6.2-18,6.9c-1.6,0.7-15.8,6.1-31.5,12
			c-15.7,5.9-39.7,15-53.5,20.2c-13.7,5.2-35.6,13.5-48.5,18.3c-61.3,23.1-74.7,28.2-77.7,29.5c-1.7,0.8-3.8,1.5-4.8,1.5
			c-2.3,0-6.6,2.4-9.2,5.2c-5.6,6-6.6,14.2-3.9,34.8c0.8,6.3,1.8,16.8,2.1,23.2c0.4,6.5,0.8,12.1,0.9,12.5c0,0.5-3,1.8-6.9,3.1
			c-4.8,1.5-8.1,3.4-10.8,6l-3.8,3.7l0.6,8c0.3,4.4,1.5,15.8,2.6,25.4l2,17.5l12.6,24.5c6.9,13.5,13.4,25.6,14.5,26.8
			c1.1,1.2,3.4,2.7,5.1,3.3c1.8,0.7,5.9,2.5,9.3,4.1c3.3,1.6,7.2,2.9,8.6,2.9c2.2,0,12.5,11.8,69.1,79.2
			c71.6,85.4,70.1,83.9,79.5,83.7c4.4,0,7.9-3.7,9.3-9.7c0.5-2,0.9-17.8,0.9-35V571l-2.8,0.7l-2.9,0.6l-0.6-10.7
			c-0.4-5.9-0.7-21.2-0.7-34.1c0-14.4-0.4-23.3-1-23.3c-1.2,0-4-5.3-4-7.5c0-1.6-5.3-13.5-9.2-20.9l-2.1-4l2.3-1.5
			c2.1-1.4,24.1-10.6,57-23.8c6.3-2.5,12.2-5.2,13-5.8c1.4-1.2,4.4-2.4,6.5-2.6c0.6,0,1.5-0.5,2.1-1c0.7-0.5,2.2-1.2,3.3-1.4
			c1.2-0.2,33.1-13.1,70.9-28.6c37.8-15.5,74.6-30.5,81.7-33.5c12.4-5,46.1-18.8,81-33.1c8.8-3.6,19.6-8,24-9.8
			c25.6-10.4,118.2-48.3,127-52c4.4-1.9,28.5-11.8,53.5-22c25-10.3,45.7-18.9,45.9-19.1c0.4-0.4-8.7-12.5-10.6-14.1
			c-0.8-0.6-1.5-1.5-1.5-2c0-0.4-15.3-15.6-34-33.6c-22.5-21.9-34.3-32.7-35.3-32.3c-0.8,0.3-1.5,0-1.5-0.6c0-1.1-1.9-3-30.1-30.2
			c-7.9-7.6-21.4-20.7-29.9-29.1c-15.6-15.3-24.8-22.5-28.5-22.4C1540.4,73.3,1536.4,74.5,1532.5,75.9z"/>
		
			<linearGradient id="region-1-3_00000041998519781287716230000001917483587896637846_" gradientUnits="userSpaceOnUse" x1="2599.0623" y1="682.7043" x2="2599.2947" y2="683.9267" gradientTransform="matrix(744.1205 0 0 461.6181 -1932718 -314947.1875)">
			<stop  offset="0" style="stop-color:#848281;stop-opacity:0.994"/>
			<stop  offset="1" style="stop-color:#D5D5D6"/>
		</linearGradient>
		
			<path id="region-1-3_00000059281506354905589900000011373024931984686728_" style="fill:url(#region-1-3_00000041998519781287716230000001917483587896637846_);" d="
			M1677.5,252.3c-18.7,7.8-39.8,16.5-47,19.4c-7.1,2.9-33.5,13.7-58.5,24c-45.4,18.6-70.4,28.9-85.5,35c-4.4,1.8-15.2,6.2-24,9.8
			c-34.9,14.3-68.6,28.1-81,33.1c-7.1,3-43.9,18-81.7,33.5c-37.8,15.5-69.7,28.4-70.9,28.6c-1.1,0.2-2.8,1-3.7,1.7
			c-0.8,0.7-1.6,1.1-1.6,0.9c-0.2-0.7-5,1.1-6.6,2.4c-0.8,0.6-6.7,3.3-13,5.8c-32.9,13.2-54.9,22.4-57,23.8l-2.3,1.5l2.1,4
			c3.9,7.4,9.2,19.3,9.2,20.9c0,2.2,2.8,7.5,4,7.5c0.6,0,1,8.9,1,23.3c0,12.9,0.3,28.2,0.7,34.1l0.6,10.7l2.9-0.6l2.8-0.7v31.4
			c0,17.2-0.4,33-0.9,35c-1.4,6-4.9,9.7-9.3,9.7c-9.4,0.2-7.9,1.7-79.5-83.7c-57.7-68.7-66.9-79.2-69.2-79.2c-1.5,0-5.3-1.4-8.5-3
			c-6.2-3.3-7.6-3.2-7.6,0.5c0,1.3-0.5,3.6-1.2,5.2c-0.6,1.5-1.2,3.5-1.4,4.3c-0.2,0.8-1.2,4.6-2.2,8.5c-1,3.8-1.7,8.8-1.6,11
			c0.2,5.9,2.3,15.5,4.4,20c1,2.2,2.4,5.9,3.1,8.2c0.6,2.4,2.5,5.7,4,7.5c1.6,1.7,3.1,3.9,3.4,4.9c0.3,0.9,1.2,2,2,2.3
			s1.5,1,1.5,1.6c0,0.6,0.4,1.6,1,2.3c8.7,10.7,11,13.7,11,14.6c0,0.6,0.7,1.1,1.5,1.1s1.5,0.6,1.5,1.3c0,0.6,1.4,2.5,3,4
			c1.7,1.6,3,3.5,3,4.3s0.6,1.4,1.4,1.4c0.7,0,2.5,1.5,3.9,3.3c3.6,4.6,17.6,18.7,18.6,18.7c0.5,0,1.1,1,1.5,2.3
			c0.3,1.3,1.7,3.6,3.1,5.1c1.4,1.5,2.5,3.1,2.5,3.7c0,0.5,0.5,0.9,1,0.9c0.6,0,1,0.6,1,1.4s0.6,1.6,1.3,1.9
			c0.6,0.2,2.5,3.1,4.1,6.3c1.7,3.3,3.6,6.5,4.3,7.2s1.3,1.8,1.3,2.3c0,0.6,1.1,2.5,2.5,4.3c1.4,1.8,2.5,4,2.5,4.8
			c0,0.9,1.5,2.7,3.4,4.2c1.9,1.4,3.8,3.6,4.2,4.8c0.4,1.2,2.4,4,4.5,6.2c2.2,2.1,3.9,4.3,3.9,4.8c0,0.4,0.5,0.8,1.2,0.8
			c0.6,0,4.1,2.6,7.7,5.7c7.5,6.5,16.4,12.7,20,13.8c1.3,0.4,3.1,1.4,4.1,2.2c7.3,6.3,38.3,11.8,60.2,10.8
			c21.1-0.9,30.6-2.6,44.6-7.6c11.2-4.1,21.4-8,23-8.9c1-0.5,6.9-2.9,13.3-5.4s12.9-5.2,14.5-6.1c1.6-0.8,3.5-1.5,4.2-1.5
			c0.7,0,2-0.4,3-1c1.7-1,6.8-3.1,8.7-3.6c1-0.2,18.1-7.3,24-9.9c1.7-0.7,5.9-2.3,9.5-3.5c3.6-1.2,7.9-2.7,9.5-3.4
			c1.7-0.8,6.4-2.6,10.5-4.1c4.1-1.5,8.9-3.3,10.5-4.1c6.7-2.8,16.4-6.7,23.7-9.4c4.2-1.6,9.8-4,12.4-5.4c2.7-1.4,5.4-2.6,6-2.6
			c0.7,0,2.9-0.9,5.1-2c2.1-1,6.1-2.9,8.8-4.1c5.5-2.3,15.3-6.8,28.5-13.1c4.7-2.2,10.5-5,13-6.1c2.5-1.1,8.1-3.8,12.5-6
			c4.4-2.1,10-4.7,12.5-5.7s9.7-4.3,16-7.3c14.7-6.9,19-8.8,27-12.1c3.6-1.5,8.8-3.8,11.5-5.1c2.8-1.3,7.5-3.3,10.5-4.5
			c3-1.2,6.4-2.6,7.5-3.1c5.7-2.4,14.3-5.7,16.5-6.4c1.4-0.4,5.4-2.1,9-3.7c10.5-4.8,12.8-5.8,13.4-5.8c0.8,0,16.6-7.3,40.7-18.7
			c5.8-2.8,11.6-5.4,13-5.8c1.3-0.4,3.1-1.3,3.9-2c0.8-0.6,3.1-1.8,5-2.5c8.1-3.2,39.1-19.3,47.2-24.6c2.1-1.3,4.1-2.4,4.4-2.4
			c0.4,0,1.4-0.7,2.3-1.4c0.9-0.8,3.7-3.4,6.4-5.7c6.1-5.4,11.2-12.5,12.3-16.9c1.7-7.7,0-24-2.6-24c-0.3,0-0.7-0.6-0.7-1.3
			c0-1.4-8.3-14-9.5-14.5c-1.8-0.8-0.6-3,2.2-4.2c7.7-3.2,10.8-16.9,12.5-54.5c0.4-10.4,0.3-13.4-0.9-15.1c-1.2-1.6-1.5-8.6-1.8-37
			c-0.4-34.7-0.4-35-3.2-43.9c-1.5-5-3.4-10-4.2-11.2c-0.8-1.2-1.4-2.8-1.4-3.5c0-1.7-5.8-10.8-6.8-10.8
			C1711.8,238.3,1696.2,244.6,1677.5,252.3z"/>
	</g>
	<g id="layer-2_00000011723804567387428350000017517316686400459962_">
		
			<linearGradient id="region-2-1_00000062906440625063283600000005968983458914068144_" gradientUnits="userSpaceOnUse" x1="2600.0371" y1="682.6851" x2="2600.2053" y2="683.9523" gradientTransform="matrix(644.8126 0 0 316.9001 -1674336.5 -216187.6719)">
			<stop  offset="0" style="stop-color:#FF7E5F;stop-opacity:0.805"/>
			<stop  offset="1" style="stop-color:#FF2915;stop-opacity:0.797"/>
		</linearGradient>
		
			<path id="region-2-1_00000052068662962033035700000007157037104976410303_" style="fill:url(#region-2-1_00000062906440625063283600000005968983458914068144_);stroke:#000000;stroke-miterlimit:10;" d="
			M2473.5,177.2c-16,4.4-69.4,24.2-121.5,45c-62.4,25-353.4,139.2-356.5,140c-3.9,1-66,31.2-69.1,33.6l-2.3,1.9l35,39.9
			c19.2,22,34.9,40.3,34.9,40.6c0,0.4,1.4,3.2,3.1,6.3l3.1,5.7l2.6-1.8c1.5-1,10.1-4.9,19.2-8.5c30.7-12.3,49.8-20.3,51.1-21.4
			c1.5-1.2,6.3-2.8,6.5-2.2c0,0.2,0.8-0.2,1.6-0.9c0.9-0.7,2.6-1.5,3.7-1.7c1.2-0.2,33.1-13.1,70.9-28.6s74.6-30.5,81.7-33.5
			c12.4-5,46.1-18.8,81-33.1c8.8-3.6,19.6-8,24-9.8c25.6-10.4,118.2-48.3,127-52c4.4-1.9,28.5-11.8,53.5-22
			c25-10.3,45.7-18.9,45.9-19.1c0.4-0.4-8.8-12.5-10.8-14.2c-0.9-0.7-1.5-1.6-1.5-2c0.2-0.9-67.2-66.2-68.3-66.1
			C2487.9,173.3,2481.2,175.1,2473.5,177.2z"/>
		
			<linearGradient id="region-2-2_00000168092042474333295020000004106160130292688057_" gradientUnits="userSpaceOnUse" x1="2585.4155" y1="680.132" x2="2585.5386" y2="681.3236" gradientTransform="matrix(55.8836 0 0 29.0069 -142577.1875 -19439.6094)">
			<stop  offset="0" style="stop-color:#261E06;stop-opacity:0.395"/>
			<stop  offset="1" style="stop-color:#1A1200;stop-opacity:0.442"/>
		</linearGradient>
		
			<path id="region-2-2_00000041268861916539960150000000265734288136499382_" style="fill:url(#region-2-2_00000168092042474333295020000004106160130292688057_);stroke:#000000;stroke-miterlimit:10;" d="
			M1903.5,296c-13.2,3-24.2,5.7-24.4,5.9c-0.3,0.2,0.2,1,1,1.8c1.3,1.4,3.7,1,20.9-3c10.7-2.5,19.8-4.4,20.3-4.2
			c0.5,0.1-5.1,3.8-12.4,8.1c-7.4,4.2-14.3,8.4-15.4,9.2c-1.9,1.4-1.9,1.4,0.1,3.5l2,2l18.5-11.5c10.1-6.3,19.1-11.9,19.9-12.4
			c1.3-0.8,1.2-1.2-0.4-3.1c-1.1-1.1-2.9-2.1-4-2C1928.4,290.4,1916.7,292.9,1903.5,296z"/>
		
			<linearGradient id="region-2-3_00000007401328887535536330000013325740102668960923_" gradientUnits="userSpaceOnUse" x1="2597.3103" y1="682.7751" x2="2597.3103" y2="683.7751" gradientTransform="matrix(214.1 0 0 363.7313 -554167.1875 -248045.2656)">
			<stop  offset="0" style="stop-color:#927E06;stop-opacity:0.135"/>
			<stop  offset="1" style="stop-color:#191000;stop-opacity:0.612"/>
		</linearGradient>
		
			<path id="region-2-3_00000103947358084086385290000018323676481588404894_" style="fill:url(#region-2-3_00000007401328887535536330000013325740102668960923_);stroke:#000000;stroke-miterlimit:10;" d="
			M1836.4,303.1c-9.4,5.8-11.1,14-8,38.1c0.8,6.3,1.8,16.8,2.1,23.2c0.4,6.5,0.8,12.1,0.9,12.5c0,0.5-3,1.8-6.9,3.1
			c-4.8,1.5-8.1,3.4-10.8,6l-3.8,3.7l0.6,8c0.3,4.4,1.5,15.8,2.6,25.4l2,17.5l12.6,24.5c6.9,13.5,13.4,25.6,14.5,26.8
			c1.1,1.2,3.4,2.7,5.1,3.3c1.8,0.7,5.9,2.5,9.3,4.1c3.3,1.6,7.2,2.9,8.6,2.9c2.2,0,12.5,11.8,69.1,79.2
			c71.6,85.4,70.1,83.9,79.5,83.7c4.4,0,7.9-3.7,9.3-9.7c0.5-2,0.9-17.8,0.9-35V589l-2.8,0.7l-2.9,0.6l-0.6-10.7
			c-0.4-5.9-0.7-21.2-0.7-34.1c0-14.4-0.4-23.3-1-23.3c-1.2,0-4-5.3-4-7.7c0-1-0.9-3.5-2-5.6s-2.8-5.7-3.7-8
			c-0.9-2.3-3.1-6.5-4.9-9.2c-1.7-2.8-4.4-7.4-5.9-10.3c-2.4-4.6-69.8-83.4-72.3-84.4c-0.4-0.1-13.2-14.5-28.3-31.8
			c-15.1-17.3-33.8-38.8-41.6-47.7l-14.1-16.1L1836.4,303.1z"/>
		
			<linearGradient id="region-2-4_00000134227698638025505520000008402530894022918333_" gradientUnits="userSpaceOnUse" x1="2583.78" y1="679.9097" x2="2584.3159" y2="681.2684" gradientTransform="matrix(51.3007 0 0 27.3961 -130633.4688 -18323.4414)">
			<stop  offset="0" style="stop-color:#281C06;stop-opacity:0.357"/>
			<stop  offset="1" style="stop-color:#191500;stop-opacity:0.416"/>
		</linearGradient>
		
			<path id="region-2-4_00000007418494386586378240000017952957098282961812_" style="fill:url(#region-2-4_00000134227698638025505520000008402530894022918333_);stroke:#000000;stroke-miterlimit:10;" d="
			M1929.1,307.8c-5.5,1.5-20.4,8.3-23.2,10.6c-6.8,5.6-2.5,13.8,7.9,15.2c7.1,0.9,19.1-3.4,22.6-8.1c2.8-3.8,1.2-7.2-4.4-10
			l-4.5-2.1l3-1.3c4.7-2,15.5-1.8,16.8,0.3c0.9,1.3,0.7,2.2-0.8,3.8c-1.8,1.9-1.8,2.2-0.2,3.8c1.6,1.5,2,1.5,4.5,0.2
			c5-2.9,3.8-9.6-2.3-12.5C1944.4,305.8,1936.3,305.9,1929.1,307.8z"/>
		
			<linearGradient id="region-2-5_00000071529003009631494990000008382955113864043653_" gradientUnits="userSpaceOnUse" x1="2600.1716" y1="682.7308" x2="2600.4368" y2="683.9742" gradientTransform="matrix(727.6259 0 0 447 -1889799 -304963)">
			<stop  offset="0" style="stop-color:#000000;stop-opacity:9.400000e-02"/>
			<stop  offset="1" style="stop-color:#2F2F2F;stop-opacity:0.846"/>
		</linearGradient>
		
			<path id="region-2-5_00000124881677376614999080000000375150062446931105_" style="fill:url(#region-2-5_00000071529003009631494990000008382955113864043653_);stroke:#000000;stroke-miterlimit:10;" d="
			M2533.5,270.3c-18.7,7.8-39.8,16.5-47,19.4c-7.1,2.9-33.5,13.7-58.5,24c-45.4,18.6-70.4,28.9-85.5,35c-4.4,1.8-15.2,6.2-24,9.8
			c-34.9,14.3-68.6,28.1-81,33.1c-7.1,3-43.9,18-81.7,33.5s-69.7,28.4-70.9,28.6c-1.1,0.2-2.8,1-3.7,1.7c-0.8,0.7-1.6,1.1-1.6,0.9
			c-0.2-0.7-5,1.1-6.6,2.4c-0.8,0.6-6.7,3.3-13,5.8c-32.9,13.2-54.9,22.4-57,23.8l-2.3,1.5l2.1,4c3.9,7.4,9.2,19.3,9.2,20.9
			c0,2.2,2.8,7.5,4,7.5c0.6,0,1,8.9,1,23.3c0,12.9,0.3,28.2,0.7,34.1l0.6,10.7l2.9-0.6l2.8-0.7v31.4c0,17.2-0.4,33-0.9,35
			c-1.4,6-4.9,9.7-9.3,9.7c-9.4,0.2-7.9,1.7-79.5-83.7c-64.5-76.9-66.6-79.2-70-79.2c-4.1,0-4.5-0.8,6.9,13.3
			c7.1,8.7,8.6,11.2,7.7,12.3c-1.5,1.9-2.7,1.8-8.8-0.8l-5.2-2.1l-2.9,3.4c-2.1,2.5-2.9,4.5-3,7.4c0,3.9,0.6,4.6,22.9,26.9
			c20.9,20.9,23,22.7,25,21.7c2.3-1.3,2.5-3.1,1.2-9.8c-0.7-3.7-0.5-4.5,1.5-6.4c1.2-1.1,2.7-2,3.3-1.8s19,21.3,41,46.9
			c39.7,46.3,41.7,49,36.2,49c-0.9,0-4-3.2-6.9-7.1c-2.9-3.8-5.9-7.2-6.7-7.5s-5.8,1-11.2,2.9l-9.8,3.5l17.5,17.6l17.5,17.7l4-1.4
			c4-1.4,4-1.4,3.7-6.4c-0.2-4.5,0-5.1,2.3-6.1c1.4-0.7,3.3-1.2,4.1-1.2c2.8,0,24.3,20.1,26.5,24.8c1.1,2.3,2.4,4.2,3,4.2
			c1.4,0,538.2-227,539.4-228.1c0.5-0.5,1.1-5.6,1.3-11.2c0.4-9.9,0.3-10.5-3.3-18.7c-2-4.6-4-8.7-4.6-9c-0.5-0.4,1.6-1.7,4.6-2.9
			c8.9-3.7,11.2-9.3,13.4-32.1c2-20.8,2.3-36.3,0.7-38.6c-1.2-1.6-1.5-8.6-1.8-37c-0.4-34.7-0.4-35-3.2-43.9c-1.5-5-3.4-10-4.2-11.2
			c-0.8-1.2-1.4-2.8-1.4-3.5c0-1.7-5.8-10.8-6.8-10.8C2567.8,256.3,2552.2,262.6,2533.5,270.3z"/>
	</g>
	<g id="layer-3_00000008138943871854079270000004986727696990889369_">
		
			<linearGradient id="region-3-1_00000109718347621746353380000018175603936995440524_" gradientUnits="userSpaceOnUse" x1="2601.3416" y1="682.5406" x2="2601.6206" y2="684.0534" gradientTransform="matrix(644.7126 0 0 251 -1674076.375 -171112)">
			<stop  offset="0" style="stop-color:#FF8C84;stop-opacity:0.506"/>
			<stop  offset="1" style="stop-color:#FFFFFF"/>
		</linearGradient>
		
			<path id="region-3-1_00000077304956625826728450000000238810511573284245_" style="fill:url(#region-3-1_00000109718347621746353380000018175603936995440524_);stroke:#000000;stroke-miterlimit:10;" d="
			M3306.5,230.2c-13.5,2.7-33.9,7.4-45.5,10.5l-21,5.4l-59,26.9c-58.9,26.9-59.1,26.9-95.5,39c-48.1,15.9-106.6,31.1-147.5,38.2
			c-26.2,4.5-29.5,4.9-50.5,5.4c-20.2,0.5-24.2,0.3-38.5-1.8l-16-2.3l-29.4,14.2c-16.1,7.9-30.4,15.1-31.6,16.1l-2.4,1.9l35,39.9
			c19.2,22,34.9,40.3,34.9,40.6c0,0.4,1.4,3.2,3.1,6.3l3.1,5.7l2.6-1.8c1.5-1,10.1-4.9,19.2-8.5c30.7-12.3,49.8-20.3,51.1-21.4
			c1.5-1.2,6.3-2.8,6.5-2.2c0,0.2,0.8-0.2,1.6-0.9c0.9-0.7,2.6-1.5,3.7-1.7c1.2-0.2,33.1-13.1,70.9-28.6s74.6-30.5,81.7-33.5
			c12.4-5,46.1-18.8,81-33.1c8.8-3.6,19.6-8,24-9.8c25.6-10.4,118.2-48.3,127-52c4.4-1.9,28.5-11.8,53.5-22
			c25-10.3,45.6-18.9,45.8-19c0.2-0.2-2-3.5-4.9-7.4c-4.4-5.9-5.9-7.1-8.4-7.3c-1.6,0-4.3-0.2-6-0.4c-1.6-0.1-16.7-0.5-33.5-0.8
			l-30.5-0.6L3306.5,230.2z"/>
		
			<linearGradient id="region-3-2_00000050642116275149602880000016669031548124293567_" gradientUnits="userSpaceOnUse" x1="2599.1279" y1="674.9146" x2="2599.1504" y2="675.9534" gradientTransform="matrix(21.8124 0 0 11.8633 -53928.0742 -7703.7031)">
			<stop  offset="0" style="stop-color:#CECCCC;stop-opacity:0.796"/>
			<stop  offset="1" style="stop-color:#D2D1D0;stop-opacity:0.813"/>
		</linearGradient>
		
			<path id="region-3-2_00000011712908162459248890000005676546146259369630_" style="fill:url(#region-3-2_00000050642116275149602880000016669031548124293567_);stroke:#000000;stroke-miterlimit:10;" d="
			M2760.1,305.5c-7.4,4.2-7.4,8.9,0,9.5c4.3,0.3,14-4,15.8-7C2778.8,303.1,2767.4,301.3,2760.1,305.5z"/>
		
			<linearGradient id="region-3-3_00000118358380185524259260000010850739895903742092_" gradientUnits="userSpaceOnUse" x1="2600.0784" y1="682.9286" x2="2601.5664" y2="682.979" gradientTransform="matrix(56.9 0 0 171.5468 -145260.6094 -116762.4844)">
			<stop  offset="0" style="stop-color:#30281E;stop-opacity:0.726"/>
			<stop  offset="1" style="stop-color:#1A1208;stop-opacity:0.813"/>
		</linearGradient>
		
			<path id="region-3-3_00000087393727115420487390000010469140166230534529_" style="fill:url(#region-3-3_00000118358380185524259260000010850739895903742092_);stroke:#000000;stroke-miterlimit:10;" d="
			M2687.1,339.4c0.4,21.2,1,31.5,1.8,32c5.4,3.3,5.4,3.6,0.5,7.9l-4.6,4l12.5,23.7c8.2,15.6,13.9,25.2,16.7,28.2l4.2,4.5l2.3,19.5
			c1.2,10.7,2.5,19.8,2.9,20.3c0.4,0.4,2,0.3,3.7-0.2c1.6-0.5,4.1-1.2,5.6-1.5c1.4-0.3,4.1-1.8,5.8-3.3l3.2-2.6l-0.8-22.1l-0.7-22.1
			l-13.7-28l-13.6-28.1l-6.5-1.8c-11.9-3.5-10.9-0.8-10.9-30v-25.3l-3.9-3.1c-2.2-1.8-4.3-3.2-4.6-3.2
			C2686.6,308.2,2686.7,322.3,2687.1,339.4z"/>
		
			<linearGradient id="region-3-4_00000098187036330893100540000018067118172312312766_" gradientUnits="userSpaceOnUse" x1="2600.6179" y1="683.2885" x2="2602.342" y2="682.9951" gradientTransform="matrix(164.3567 0 0 310.8293 -424744.7188 -211886.4062)">
			<stop  offset="0" style="stop-color:#000000;stop-opacity:0.938"/>
			<stop  offset="1" style="stop-color:#4B4440;stop-opacity:0.628"/>
		</linearGradient>
		
			<path id="region-3-4_00000113327579168543102730000010365824011307671217_" style="fill:url(#region-3-4_00000098187036330893100540000018067118172312312766_);stroke:#000000;stroke-miterlimit:10;" d="
			M2695.5,339.7c0,29.3-1,26.6,10.9,30.1l6.5,1.8l13.6,28.1l13.7,28l0.7,22.1l0.8,22.1l-3.2,2.6c-1.7,1.5-3.6,2.7-4.1,2.7
			s-0.9,0.5-0.9,1.1c0,0.9,18.2,23.5,25.1,31.3c0.5,0.5,1.1-0.9,1.5-3.1c0.9-6,5.9-10.1,18.4-15.3c5.8-2.4,11-4.7,11.6-5.2
			c0.6-0.4,1.4-2.9,1.7-5.4c0.5-4.8,2.5-7.8,7-10.1c11-5.6,30.9,14.7,40,40.9c2.1,5.9,4.7,13.8,5.8,17.5c2.2,7.5,3.6,26.3,2.5,33.7
			c-1.4,9-8.5,12-17.4,7.4l-4.3-2.3l-5.7,3.1c-3.1,1.8-5.8,3.6-6,4.2c-0.4,1.4,42.6,49.6,44.7,50c1.5,0.3,1.6-1.4,1.3-19.5
			c-0.2-10.9-0.8-22.3-1.3-25.3c-1.4-7.6-2.6-21.8-3.9-46c-0.9-17.9-1.4-21.6-3.9-29.5c-3.9-12.4-10.1-24.3-18.1-35
			c-8-10.8-134.7-155.5-136.1-155.5C2695.9,314.2,2695.5,324.4,2695.5,339.7z"/>
		
			<linearGradient id="region-3-5_00000075139392069053105370000014893318469591281536_" gradientUnits="userSpaceOnUse" x1="2601.2334" y1="682.6688" x2="2601.6035" y2="683.897" gradientTransform="matrix(586.011 0 0 408.6029 -1521317 -278737.7812)">
			<stop  offset="0" style="stop-color:#E5DED6;stop-opacity:0.782"/>
			<stop  offset="1" style="stop-color:#BBA7BB;stop-opacity:0.411"/>
		</linearGradient>
		
			<path id="region-3-5_00000103240207878881736440000007696840164921032606_" style="fill:url(#region-3-5_00000075139392069053105370000014893318469591281536_);stroke:#000000;stroke-miterlimit:10;" d="
			M3379,256.3c-18.7,7.8-39.8,16.5-47,19.4c-7.1,2.9-33.5,13.7-58.5,24c-45.4,18.6-70.4,28.9-85.5,35c-4.4,1.8-15.2,6.2-24,9.8
			c-34.9,14.3-68.6,28.1-81,33.1c-7.1,3-43.9,18-81.7,33.5s-69.7,28.4-70.9,28.6c-1.1,0.2-2.8,1-3.7,1.7c-0.8,0.7-1.6,1.1-1.6,0.9
			c-0.2-0.7-5,1.1-6.6,2.4c-0.8,0.6-6.7,3.3-13,5.8c-32.9,13.2-54.9,22.4-57,23.8l-2.3,1.5l2.1,4c3.9,7.4,9.2,19.3,9.2,20.9
			c0,2.2,2.8,7.5,4,7.5c0.6,0,1,8.9,1,23.3c0,12.9,0.3,28.2,0.7,34.1l0.6,10.7l2.9-0.6l2.8-0.7v31.4c0,17.2-0.4,33-0.9,35.1
			c-0.5,2.2-1.9,5-3.2,6.3c-1.2,1.3-2,2.7-1.7,3c0.4,0.3,56.8-22.9,125.5-51.6C3116.6,546,3384,433.7,3393,429.7
			c2.8-1.3,10.5-4.6,17.3-7.5c11.2-4.8,12.5-5.6,14.6-9.4c3.7-6.4,5.9-21.2,7.1-49.1c0.4-10.4,0.3-13.4-0.9-15.1
			c-1.2-1.6-1.5-8.6-1.8-37c-0.4-34.7-0.4-35-3.2-43.9c-1.5-5-3.4-10-4.2-11.2c-0.8-1.2-1.4-2.8-1.4-3.5c0-1.7-5.8-10.8-6.8-10.8
			C3413.3,242.3,3397.7,248.6,3379,256.3z"/>
		
			<linearGradient id="region-3-6_00000017488321241622761350000002421829988554527414_" gradientUnits="userSpaceOnUse" x1="2600.0735" y1="681.7375" x2="2600.2014" y2="682.7524" gradientTransform="matrix(37.6468 0 0 79.3728 -95199.3672 -53727.5391)">
			<stop  offset="0" style="stop-color:#46341C;stop-opacity:0.743"/>
			<stop  offset="1" style="stop-color:#614F2B;stop-opacity:0.82"/>
		</linearGradient>
		
			<path id="region-3-6_00000161626326394593458870000000568455425051285919_" style="fill:url(#region-3-6_00000017488321241622761350000002421829988554527414_);stroke:#000000;stroke-miterlimit:10;" d="
			M2668.5,389.5c0,0.7,0.9,7.7,2,15.6c1.7,11.6,1.8,15,0.9,18.1c-1.2,3.8-1.1,4.1,8.6,21.9l9.9,17.9l4.5,1.2
			c2.5,0.7,5.9,1.8,7.6,2.5c1.6,0.8,3.3,1.1,3.7,0.9c0.5-0.3,0.6-7.2,0.2-15.2l-0.6-14.7l-12.9-23.5l-12.9-23.6l-4.5-1.2
			C2669.3,387.9,2668.5,387.9,2668.5,389.5z"/>
		
			<linearGradient id="region-3-7_00000107583551206190858720000006531767831836065430_" gradientUnits="userSpaceOnUse" x1="2600.0623" y1="681.5814" x2="2601.3159" y2="682.3651" gradientTransform="matrix(59.7393 0 0 62.2191 -152558.1406 -41916.3984)">
			<stop  offset="0" style="stop-color:#251E13;stop-opacity:0.457"/>
			<stop  offset="1" style="stop-color:#0E0400;stop-opacity:0.557"/>
		</linearGradient>
		
			<path id="region-3-7_00000025414367927742785890000017343542767573591971_" style="fill:url(#region-3-7_00000107583551206190858720000006531767831836065430_);stroke:#000000;stroke-miterlimit:10;" d="
			M2797,484.9c-2.2,0.8-5.1,1.7-6.5,1.9s-6,1.9-10.3,3.7l-7.9,3.5l6.2,3.8c5.2,3.2,6.6,4.6,8.6,9.2c1.3,3,4.5,8.7,7,12.8
			c3.5,5.6,5.1,9.6,6.6,16.2c1,4.8,2.3,9,2.7,9.5c0.4,0.4,3,0.1,5.7-0.7c2.7-0.8,8.7-2.2,13.4-3.2c4.7-0.9,8.9-2.1,9.4-2.5
			c0.8-0.7-1.9-11.8-6.7-27.4c-1.3-4.3-4.3-10.3-7.8-15.5c-4.6-6.8-6.6-8.9-10.3-10.8C2801.7,482.9,2802.2,482.9,2797,484.9z"/>
		
			<linearGradient id="region-3-8_00000086668406781727569410000016181015635807787696_" gradientUnits="userSpaceOnUse" x1="2599.7234" y1="681.4841" x2="2599.7234" y2="682.4841" gradientTransform="matrix(28.986 0 0 63.1908 -72572.6875 -42558.332)">
			<stop  offset="0" style="stop-color:#573E13;stop-opacity:0.519"/>
			<stop  offset="1" style="stop-color:#422800;stop-opacity:0.604"/>
		</linearGradient>
		
			<path id="region-3-8_00000173882288027829003760000010146791757848370344_" style="fill:url(#region-3-8_00000086668406781727569410000016181015635807787696_);stroke:#000000;stroke-miterlimit:10;" d="
			M2769.1,508.9c-1.6,9.9-0.1,19.8,5,33.4c1.8,4.9,4.7,9.3,11,16.8c8.3,9.9,8.7,10.2,10.5,8.5c2.5-2.2,2.5-8.3,0-20.6
			c-2.9-14.2-6.2-21.7-14.4-32.5c-3.3-4.4-9-9.3-10.9-9.3C2770,505.2,2769.5,506.9,2769.1,508.9z"/>
	</g>
	<g id="layer-4_00000183936137385092065400000006312367243427542659_">
		
			<linearGradient id="region-4-1_00000124870614713064720880000000275713194461801145_" gradientUnits="userSpaceOnUse" x1="2602.5105" y1="682.5403" x2="2603.165" y2="684.0411" gradientTransform="matrix(574.3048 0 0 241 -1490875.25 -164272)">
			<stop  offset="0" style="stop-color:#E3A0A6;stop-opacity:0.13"/>
			<stop  offset="1" style="stop-color:#BFFFFF;stop-opacity:0.736"/>
		</linearGradient>
		
			<path id="region-4-1_00000052813402700544424900000014936141604360188048_" style="fill:url(#region-4-1_00000124870614713064720880000000275713194461801145_);stroke:#000000;stroke-miterlimit:10;" d="
			M4190.5,246c-0.6,0.5-4.8,2.4-9.5,4.2s-9.9,3.9-11.6,4.6c-1.7,0.7-29.8,11.9-62.5,24.9c-32.7,12.9-62.8,24.9-66.9,26.6
			c-8,3.2-27.5,11-48,19.1c-6.9,2.7-14.5,5.7-17,6.8s-28.8,11.6-58.5,23.4c-75.3,29.9-118.9,47.2-122.7,48.9c-1.8,0.8-6,2.5-9.3,3.7
			c-3.3,1.3-7.8,3.1-10,4c-2.2,1-15.7,6.4-30,12s-27.8,11-30,11.9c-2.2,1-7.4,3-11.5,4.5c-4.1,1.5-8.4,3.2-9.5,3.7
			c-1.1,0.5-13,5.2-26.5,10.5c-35.5,13.8-37.2,14.5-38.9,15.4c-0.9,0.5-2.4,1.1-3.4,1.4c-3,0.9-2.9,2.9,0.4,8.9l3.1,5.7l2.6-1.8
			c1.5-1,10.1-4.9,19.2-8.5c30.7-12.3,49.8-20.3,51.1-21.4c1.4-1,4.4-2.2,6.4-2.4c0.6,0,1.5-0.5,2.1-1c0.7-0.5,2.2-1.2,3.3-1.4
			c1.2-0.2,33.1-13.1,70.9-28.6c37.8-15.5,74.6-30.5,81.7-33.5c12.4-5,46.1-18.8,81-33.1c8.8-3.6,19.6-8,24-9.8
			c25.6-10.4,118.2-48.3,127-52c4.4-1.9,28.5-11.8,53.5-22c25-10.3,45.7-18.9,45.8-19c0.5-0.5-4-6.5-4.8-6.5
			C4191.7,245.2,4191,245.6,4190.5,246z"/>
		
			<linearGradient id="region-4-2_00000083057023380787836810000010805811828459825590_" gradientUnits="userSpaceOnUse" x1="2602.604" y1="682.6519" x2="2602.9443" y2="683.9583" gradientTransform="matrix(582.8 0 0 333.9 -1512965.125 -227715.7031)">
			<stop  offset="0" style="stop-color:#7F7682;stop-opacity:0.793"/>
			<stop  offset="1" style="stop-color:#C4C0BF;stop-opacity:0.79"/>
		</linearGradient>
		
			<path id="region-4-2_00000091002516762876686790000010013117875705683118_" style="fill:url(#region-4-2_00000083057023380787836810000010805811828459825590_);stroke:#000000;stroke-miterlimit:10;" d="
			M4161.5,266.3c-18.7,7.8-39.8,16.5-47,19.4c-7.1,2.9-33.5,13.7-58.5,24c-45.4,18.6-70.4,28.9-85.5,35c-4.4,1.8-15.2,6.2-24,9.8
			c-34.9,14.3-68.6,28.1-81,33.1c-7.1,3-43.9,18-81.7,33.5c-37.8,15.5-69.7,28.4-70.9,28.6c-1.1,0.2-2.8,1-3.7,1.7
			c-0.8,0.7-1.6,1.1-1.6,0.9c-0.2-0.7-5,1.1-6.6,2.4c-0.8,0.6-6.7,3.3-13,5.8c-32.9,13.2-54.9,22.4-57,23.8l-2.3,1.5l2.1,4
			c3.9,7.4,9.2,19.3,9.2,20.9c0,2.2,2.8,7.5,4,7.5c0.6,0,1,8.9,1,23.3c0,12.9,0.3,28.2,0.6,34l0.7,10.6l5.1-0.6
			c3.5-0.4,31.9-11.6,90.1-35.6c46.8-19.2,89.7-36.9,95.5-39.2c5.8-2.4,21.1-8.7,34-14c12.9-5.4,28.2-11.7,34-14
			c5.8-2.4,17.3-7.1,25.5-10.5c8.3-3.5,17.5-7.3,20.5-8.5c3-1.2,14.1-5.7,24.5-10c10.5-4.2,20.4-8.3,22-9c2.6-1.2,158.6-65.5,199-82
			l15-6.1l-0.1-35v-34.9l-2.8-9c-1.5-5-3.4-10-4.2-11.2c-0.8-1.2-1.4-2.8-1.4-3.5c0-1.7-5.8-10.8-6.8-10.8
			C4195.8,252.3,4180.2,258.6,4161.5,266.3z"/>
	</g>
	<g id="layer-5_00000164481682870387809260000003285838779207986053_">
		
			<linearGradient id="region-5-1_00000157296446214012785590000008440870450663638403_" gradientUnits="userSpaceOnUse" x1="2604.1714" y1="682.7162" x2="2604.1714" y2="683.7162" gradientTransform="matrix(582.3 0 0 267.0407 -1511664.625 -182050.7969)">
			<stop  offset="0" style="stop-color:#B8B2B6;stop-opacity:0.802"/>
			<stop  offset="1" style="stop-color:#BBB5C0;stop-opacity:0.8"/>
		</linearGradient>
		
			<path id="region-5-1_00000057869459229244872470000014296263555457745812_" style="fill:url(#region-5-1_00000157296446214012785590000008440870450663638403_);stroke:#000000;stroke-miterlimit:10;" d="
			M4986,276.3c-18.7,7.8-39.8,16.5-47,19.4c-7.1,2.9-33.5,13.7-58.5,24c-45.4,18.6-70.4,28.9-85.5,35c-4.4,1.8-15.2,6.2-24,9.8
			c-34.9,14.3-68.6,28.1-81,33.1c-7.1,3-43.9,18-81.7,33.5c-37.8,15.5-69.7,28.4-70.9,28.6c-1.1,0.2-2.8,1-3.7,1.7
			c-0.8,0.7-1.6,1.1-1.6,0.9c-0.2-0.7-5,1.1-6.6,2.4c-0.8,0.6-6.7,3.3-13,5.8c-32.9,13.2-54.9,22.4-57,23.8l-2.3,1.5l2.1,4
			c3.9,7.4,9.2,19.3,9.2,20.9c0,2.1,1.8,5.6,3.9,7.6c1.9,1.8-7.4,5.3,96.6-36.5c68.7-27.6,134.7-54.3,139-56.1
			c1.7-0.7,17.2-7,34.5-14s45.5-18.3,62.5-25.2c17.1-6.9,51-20.6,75.5-30.5c33.3-13.4,147.3-59.3,157.8-63.5
			c0.6-0.3,1.2-1.8,1.2-3.3c0-3.6-4.7-19.8-6.6-22.7c-0.8-1.2-1.4-2.8-1.4-3.5c0-1.7-5.8-10.8-6.8-10.8
			C5020.3,262.3,5004.7,268.6,4986,276.3z"/>
		
			<linearGradient id="region-5-2_00000092433438587702876190000001656430333702572938_" gradientUnits="userSpaceOnUse" x1="2654.4875" y1="680.4446" x2="2654.4875" y2="681.4446" gradientTransform="matrix(29.356 0 0 29.6601 -73411.375 -19659.7129)">
			<stop  offset="0" style="stop-color:#474035;stop-opacity:0.771"/>
			<stop  offset="1" style="stop-color:#3D362B;stop-opacity:0.812"/>
		</linearGradient>
		
			<path id="region-5-2_00000075139038013847520580000009219130081879955383_" style="fill:url(#region-5-2_00000092433438587702876190000001656430333702572938_);stroke:#000000;stroke-miterlimit:10;" d="
			M4511,523.5c-2.7,1.2-2.9,1.6-2.6,6.6l0.3,5.2l-5.1,2.1c-4.7,2-5,2.3-4.4,5.2c0.3,1.7,0.7,3.3,0.9,3.5c0.2,0.2,2.2-0.4,4.5-1.3
			c4.8-2,5.9-1.2,5.9,4.1v3.1l4-1.5c3.9-1.6,4-1.7,4-6.4v-4.8l5.1-2.2c4.8-2.1,5.1-2.4,4.5-5.2c-0.3-1.7-0.8-3.2-1-3.4
			c-0.1-0.2-2.2,0.4-4.6,1.2c-5,1.8-6,1.1-6-4.3C4516.5,521.9,4515.6,521.6,4511,523.5z"/>
	</g>
	<g id="图层_3_00000127763143905738867020000006594339408696567448_">
	</g>
</g>
</svg>
