<?xml version="1.0" encoding="utf-8"?>
<!-- Generator: Adobe Illustrator 26.5.0, SVG Export Plug-In . SVG Version: 6.00 Build 0)  -->
<svg version="1.1" id="图层_1" xmlns="http://www.w3.org/2000/svg" xmlns:xlink="http://www.w3.org/1999/xlink" x="0px" y="0px"
	 viewBox="0 0 800 375" style="enable-background:new 0 0 800 375;" xml:space="preserve">
<style type="text/css">
	.st0{fill:none;}
	.st1{fill:#D3D3D3;}
	.st2{fill:url(#SVGID_00000009592267627895503520000011026412941288701848_);}
	.st3{fill:url(#SVGID_00000076598733858126980500000017785109411909212350_);}
	.st4{fill:url(#SVGID_00000163057056101973498940000017310402779885666745_);}
	.st5{fill:url(#SVGID_00000173122502678895589770000002408298254194888321_);}
	.st6{fill:url(#SVGID_00000049219239171093633460000014122646805846775990_);}
	.st7{fill:url(#SVGID_00000036243878678536307150000007697344746123464587_);}
	.st8{fill:url(#SVGID_00000107566500433453949870000010347578199219905455_);}
	.st9{fill:url(#SVGID_00000113331755106646386820000001369923811590273705_);}
	.st10{fill:url(#SVGID_00000029034534596059142990000007544665138229086357_);}
	.st11{fill:url(#SVGID_00000121266790300858577440000014095312497274528693_);}
	.st12{fill:url(#SVGID_00000018953578447407416700000017340399621468465848_);}
	.st13{fill:url(#SVGID_00000174589142949878322980000005797805039299885226_);}
	.st14{fill:url(#SVGID_00000157304004324798209020000006351844283260207268_);}
	.st15{fill:url(#SVGID_00000132071367075044810970000015161492866816030628_);}
	.st16{fill:url(#SVGID_00000031195360185221799760000009183891254172787328_);}
	.st17{fill:url(#SVGID_00000126323003879171421400000011523380577131458732_);}
	.st18{fill:url(#SVGID_00000140705539208633685640000011032053032533544351_);}
	.st19{fill:url(#SVGID_00000181085289360330786150000014757610116741839240_);}
	.st20{fill:url(#SVGID_00000102542390250085073420000003013167167011838909_);}
	.st21{fill:url(#SVGID_00000116226294904978596660000010138794724705423032_);}
	.st22{fill:url(#SVGID_00000153670560720633313450000000667640551806560916_);}
	.st23{fill:url(#SVGID_00000016057040535224058050000018004706218181644698_);}
	.st24{fill:url(#SVGID_00000063618810309201127640000000393359940620294060_);}
	.st25{fill:url(#SVGID_00000180346931921669006300000009508522517804525757_);}
	.st26{fill:url(#SVGID_00000004516492483424807280000017051656691249023376_);}
	.st27{fill:url(#SVGID_00000023967261581368654370000013982287418323100827_);}
	.st28{fill:url(#SVGID_00000091717626549760224210000016916743486071937945_);}
	.st29{fill:url(#SVGID_00000157990194992571985140000004857084644717348245_);}
	.st30{fill:url(#SVGID_00000168091501860177001580000013698370055562814112_);}
	.st31{fill:url(#SVGID_00000174595355597560385730000010209930232645501363_);}
	.st32{fill:url(#SVGID_00000178172759045693377890000011506586696586133422_);}
	.st33{fill:none;stroke:#FF0000;stroke-width:3;stroke-miterlimit:10;}
	.st34{fill:none;stroke:#3FA9F5;stroke-width:4;stroke-linecap:round;stroke-miterlimit:10;}
	.st35{fill:#3FA9F5;}
</style>
<pattern  y="375" width="40" height="40" patternUnits="userSpaceOnUse" id="SVGID_1_" viewBox="0 -40 40 40" style="overflow:visible;">
	<g>
		<rect y="-40" class="st0" width="40" height="40"/>
		<g>
			<rect y="-40" class="st0" width="40" height="40"/>
			<g>
				<rect y="-40" class="st0" width="40" height="40"/>
				<g>
					<rect y="-40" class="st0" width="40" height="40"/>
					<rect y="-40" class="st0" width="40" height="40"/>
					<rect y="-20" class="st1" width="20" height="20"/>
					<rect x="20" y="-40" class="st1" width="20" height="20"/>
				</g>
			</g>
		</g>
	</g>
</pattern>
<g id="图层_1_00000149372806822041399860000009534012079141317262_">
	
		<pattern  id="SVGID_00000134946626298711196220000002808406653404873901_" xlink:href="#SVGID_1_" patternTransform="matrix(1 0 0 -1 -91 -33763.7422)">
	</pattern>
	<rect x="2" y="0.5" style="fill:url(#SVGID_00000134946626298711196220000002808406653404873901_);" width="796" height="374"/>
</g>
<g id="图层_2_00000090292177828988606760000008625460188836969900_">
	<g transform="translate(0.000000,548.000000) scale(0.100000,-0.100000)">
		<g>
			
				<linearGradient id="SVGID_00000165940876577915985920000003382940018877173897_" gradientUnits="userSpaceOnUse" x1="35931.2227" y1="-2533772" x2="36431.2227" y2="-2533772" gradientTransform="matrix(0.886 0 0 0.548 -30373.8613 1391965.375)">
				<stop  offset="0" style="stop-color:#A7E8F3"/>
				<stop  offset="1" style="stop-color:#A7E8F3"/>
			</linearGradient>
			<path style="fill:url(#SVGID_00000165940876577915985920000003382940018877173897_);" d="M1461.2,3458.3v-1370h2215h2215v1370
				v1370h-2215h-2215L1461.2,3458.3L1461.2,3458.3z"/>
		</g>
	</g>
	<g transform="translate(0.000000,548.000000) scale(0.100000,-0.100000)">
		<g>
			
				<linearGradient id="SVGID_00000147218701361901626270000017919555460361625743_" gradientUnits="userSpaceOnUse" x1="129108.6406" y1="-2945753" x2="129108.6328" y2="-2945752.5" gradientTransform="matrix(7.600000e-02 0 0 2.400000e-02 -4180.7598 75290.2031)">
				<stop  offset="0" style="stop-color:#F4FEFF"/>
				<stop  offset="1" style="stop-color:#FFFFFF"/>
			</linearGradient>
			<path style="fill:url(#SVGID_00000147218701361901626270000017919555460361625743_);" d="M5578.7,4705.8c-11-4-28-16-37.5-26.5
				c-15-17.5-19.5-19.5-34-17.5c-33,5.5-66-20.5-66-51.5v-17h190c168,0,190,1,190,7.5c0,13.5-23.5,32.5-39.5,32.5
				c-10.5,0-17.5,3.5-23,12c-10.5,16-37,28-61,28c-13.5,0-21,3-25,9.5c-7.5,11.5-45.5,30.5-62,30.5
				C5604.2,4712.8,5589.7,4709.8,5578.7,4705.8z"/>
		</g>
	</g>
	<g transform="translate(0.000000,548.000000) scale(0.100000,-0.100000)">
		<g>
			
				<linearGradient id="SVGID_00000038384567223105399230000015281589616349280439_" gradientUnits="userSpaceOnUse" x1="107373.0234" y1="-2777608.5" x2="107373.5234" y2="-2777608.5" gradientTransform="matrix(0.1248 0 0 3.791000e-02 -10636.8184 109602.1875)">
				<stop  offset="0" style="stop-color:#FBFEFE"/>
				<stop  offset="1" style="stop-color:#FBFEFE"/>
			</linearGradient>
			<path style="fill:url(#SVGID_00000038384567223105399230000015281589616349280439_);" d="M3078.7,4393.8c-27-6.5-52-21-69.5-40.5
				c-16-18-18.5-19-47-18.5c-37,0-70-15-92-42c-13-16-19-19.5-33.5-19.5c-23.5,0-50-14.5-64-35c-22-32-41.5-30,301-30h312.5v16.5
				c-0.5,37-30.5,76.5-68,88.5c-17.5,6-50.5,5-67.5-2c-5-2.5-9.5,0.5-13,8.5c-18.5,40-79,79-121.5,78
				C3103.7,4397.3,3087.2,4395.8,3078.7,4393.8z"/>
		</g>
	</g>
	<g transform="translate(0.000000,548.000000) scale(0.100000,-0.100000)">
		<g>
			
				<linearGradient id="SVGID_00000016033217867634128240000014581321453562207384_" gradientUnits="userSpaceOnUse" x1="165544.625" y1="-2958776.75" x2="165544.5938" y2="-2958776.25" gradientTransform="matrix(7.700000e-02 0 0 2.316000e-02 -10023.2705 73066.4141)">
				<stop  offset="0" style="stop-color:#F4FCFE"/>
				<stop  offset="1" style="stop-color:#FFFFFF"/>
			</linearGradient>
			<path style="fill:url(#SVGID_00000016033217867634128240000014581321453562207384_);" d="M2677.7,4652.3c-15-3.5-26-10.5-41-26.5
				c-19.5-21.5-22-22.5-47.5-22.5c-24.5,0-28.5-1.5-42.5-17.5c-10-11.5-15.5-23-15.5-32.5v-15h192.5c106,0,192.5,2,192.5,4.5
				c0,11.5-22,30.5-39,33.5c-10,2-26.5,10.5-36.5,19.5c-18,16-53,27-64,20.5c-3-2-7.5,1-10,6
				C2754.7,4645.3,2712.7,4659.3,2677.7,4652.3z"/>
		</g>
	</g>
	<g transform="translate(0.000000,548.000000) scale(0.100000,-0.100000)">
		<g>
			
				<linearGradient id="SVGID_00000177444922627611516760000017136687380150614170_" gradientUnits="userSpaceOnUse" x1="104326.9141" y1="-2576660.25" x2="104326.3281" y2="-2576660" gradientTransform="matrix(0.1306 0 0 0.1619 -9696.1807 420844.6562)">
				<stop  offset="0" style="stop-color:#758A31"/>
				<stop  offset="1" style="stop-color:#768C34"/>
			</linearGradient>
			<path style="fill:url(#SVGID_00000177444922627611516760000017136687380150614170_);" d="M3603.7,4250.8c-2.5-1-11-3-19-4.5
				c-22.5-5-52-36.5-73.5-77.5c-14.5-28-26-42.5-43.5-55.5c-30-22-52.5-52-67.5-88.5c-10.5-26.5-11.5-36.5-12-124c0-52-0.5-99-1-104
				c-0.5-4.5-19-27.5-40.5-50c-49.5-51.5-55.5-69-43-121.5c10.5-43.5,25.5-69,55-96.5c25-23,76.5-49,122.5-62
				c28.5-8.5,120.5-24.5,123.5-22c0.5,1-1,46.5-3.5,101.5l-4.5,99.5l-26.5,52.5l-26.5,52.5l-26,7.5c-14.5,4-26.5,9-26.5,11.5
				c0,3.5,12,2,36.5-5c12.5-3.5,11,2-16.5,47.5c-26,43.5-27,57.5-0.5,17.5l15.5-24l0.5,30l1,30l4-34.5c5-38,5.5-39,44-106.5l26.5-46
				l34.5,52c52,79,56,89,53.5,125c-2,20-8,41-18.5,62.5c-12,24.5-13.5,29.5-5.5,20c6-7,17-25.5,25-41.5l14-29l6,26.5
				c3,14.5,7,38.5,8.5,53c5,45,12.5,29.5,9-17.5c-4-54.5-13.5-96.5-30-137c-7-17.5-12.5-32-12.5-33s9,3,20,8.5
				c29,14.5,45,20.5,45,16c0-2.5-7.5-7.5-16-12c-46.5-22-100-82.5-107.5-120.5l-3-16l22.5,21c22.5,20.5,59.5,42,84,48.5
				c7,2,2-3-12-11c-34.5-21-63.5-46.5-80-70.5l-14.5-21l8.5-78.5c4.5-43,9.5-79.5,11-81s23.5-2,48.5-1.5c109.5,2,218.5,65.5,248,144
				c11.5,31,14,87,5,119c-3,12-17,31.5-37.5,53.5c-43,45.5-45.5,55.5-29,112c23,77.5,10.5,129.5-45,192.5c-15.5,17-46.5,54-69,81.5
				c-41,51-86,89.5-115.5,98C3627.2,4249.3,3609.7,4252.3,3603.7,4250.8z"/>
		</g>
	</g>
	<g transform="translate(0.000000,548.000000) scale(0.100000,-0.100000)">
		<g>
			
				<linearGradient id="SVGID_00000047773585727579342990000012728729276200621755_" gradientUnits="userSpaceOnUse" x1="37938.2305" y1="-2548956" x2="37938.3789" y2="-2548955.25" gradientTransform="matrix(0.886 0 0 0.2918 -30373.8613 745834.875)">
				<stop  offset="0" style="stop-color:#738623"/>
				<stop  offset="1" style="stop-color:#799345"/>
			</linearGradient>
			<path style="fill:url(#SVGID_00000047773585727579342990000012728729276200621755_);" d="M5366.2,3544.8c-13-4.5-35.5-28-45-46.5
				c-21.5-41.5-40.5-129.5-50-227.5c-3-33-6.5-72-8-87l-3-26.5l-15.5,15c-42.5,40-68.5,32-68.5-21v-15.5l-13,20
				c-23,34.5-42.5,52.5-58,52.5c-11,0-14.5-3-17.5-13.5c-3-13,7.5-76,16-98c2.5-6-8.5-1.5-36.5,15.5c-47.5,29-115,52.5-143.5,50
				c-19-1.5-20-2.5-21.5-19c-1-11.5,3-26,11-41.5l12.5-23.5h-34h-34.5l9.5,30.5c11,34.5,12,52.5,4,73c-13.5,35.5-47,28-99-22
				l-24.5-24l-2.5,57.5c-4.5,88-21.5,139-56,169c-26.5,23.5-39.5,21.5-72.5-12.5c-33-34.5-66-98.5-102-199c-3-8-6-4.5-15.5,19
				c-6,16-14,32-17.5,36c-15.5,18.5-39,0-67-52l-17-31.5l-16.5,33.5c-9,18.5-26,43.5-38,56c-18,18.5-24.5,22-37.5,20.5
				c-19-2-34-21.5-46.5-60.5c-4.5-14.5-9.5-29.5-11-33.5c-1-4-8,11.5-14.5,34.5c-18,60.5-40,102-76,141
				c-63,68.5-117.5,72.5-174.5,13.5c-25-26-55.5-73-72-111c-6.5-15-13.5-28-15-28s-5.5,6-9,13.5c-9.5,21-40.5,61-51,67
				c-18.5,9.5-54.5-23-87-79c-5.5-9-11.5-16.5-13.5-16.5s-21.5-12-43.5-27l-39.5-27l-10.5,28.5c-20,55-40.5,58-78.5,11.5
				c-27.5-34-33-37-26.5-15c7.5,27,5.5,73-4,89.5c-8.5,14-33.5,29.5-48,29.5c-9.5,0-41-21.5-56-39c-6.5-7.5-20.5-29-30.5-48.5
				c-10.5-19-19.5-32.5-20-30c-1,3-6,27.5-12,55.5c-29,146.5-77,247-130.5,275c-21.5,11-55,9-75-4.5c-40-26.5-68-120.5-73.5-246
				l-3.5-70l-14,30c-30.5,65-62.5,79-96,42c-10-11.5-22.5-29.5-27-40l-8.5-19l-22.5,22.5c-74,76.5-145,111-174,85
				c-19-17.5-26-74-16-134c6-37.5-2-28-14,16c-22,81.5-76,200-115,254c-9,11.5-23.5,25-33,29.5c-16,7.5-19,7.5-34.5,0
				c-20.5-9.5-37-30.5-57-71c-14-28.5-39.5-101-51-146c-5-19.5-6.5-21-19-18.5c-27,5.5-45-33.5-49.5-106.5c-1.5-25.5-4-46.5-5-46.5
				s-8.5,8-17,17.5c-27.5,31-44,21-48-28.5c-1-17.5-3-34-4-37c-1-4-16-3-51,3.5c-67,13-66.5,12.5-43.5,28c75,49.5,112,90,112,122
				c0,16-2,20.5-12.5,25.5c-19.5,9-64.5-1.5-130-30l-57-25l-11,12c-13,14-29,15-50,4c-8.5-4-16-7-17-6s0.5,12.5,3,26
				c4.5,25,2.5,40-6.5,51.5c-8,10-29.5-4.5-54-35.5c-11.5-15.5-22-28-23.5-28c-1,0-0.5,13.5,1.5,29.5c4.5,40.5-1.5,90.5-12.5,105
				c-21,27.5-48.5-1-74-77.5c-10.5-31-14-37-17-29.5c-2.5,5.5-14.5,37-27,70c-31,80-87,194-111,225c-10.5,13.5-25,28-32.5,32
				c-12,7-14,7-23.5-1.5c-6-5.5-14-21-18-35c-11.5-37.5-19-141-16-214c1-35.5,1.5-64,1-64c-1,0-6.5,8-12.5,17.5
				c-27.5,44.5-72,87.5-91,87.5c-5,0-10-5-12-12c-2.5-10.5,6-61.5,15.5-95.5c3-9,1-10-22-8.5l-25.5,2v-548v-548h2215h2215v648
				c0,589-0.5,648-8,645c-4.5-1.5-14-3-22-3c-12,0-16-4.5-31.5-33.5c-9.5-19-23.5-53-31.5-76.5l-14-42l-5.5,24.5
				c-3.5,14-8.5,30.5-11.5,37.5c-6,15-29.5,37.5-43.5,42c-17.5,5-42-14.5-54.5-43.5c-6.5-14-14-31.5-17-38.5c-5-12-5.5-12-5.5,5.5
				c-0.5,29-11,75.5-21,95c-10.5,20.5-24,27.5-38.5,20c-13.5-7-38-56-54-108l-14-44.5l-8.5,60.5c-21.5,147.5-62,243.5-113,264.5
				C5380.2,3548.8,5377.7,3548.8,5366.2,3544.8z"/>
		</g>
	</g>
	<g transform="translate(0.000000,548.000000) scale(0.100000,-0.100000)">
		<g>
			
				<linearGradient id="SVGID_00000008861531527654031690000016434335245494295713_" gradientUnits="userSpaceOnUse" x1="373278.1562" y1="-3137861.75" x2="373278.6562" y2="-3137861.75" gradientTransform="matrix(2.914000e-02 0 0 1.303000e-02 -7745.938 43417.1992)">
				<stop  offset="0" style="stop-color:#41555A"/>
				<stop  offset="1" style="stop-color:#41555A"/>
			</linearGradient>
			<path style="fill:url(#SVGID_00000008861531527654031690000016434335245494295713_);" d="M3162.7,2553.3
				c-16-9.5-31.5-33-31.5-47.5c0-6.5,10.5-7.5,72.5-7.5c81,0,82.5,1,62.5,34C3247.7,2562.3,3194.7,2573.3,3162.7,2553.3z"/>
		</g>
	</g>
	<g transform="translate(0.000000,548.000000) scale(0.100000,-0.100000)">
		<g>
			
				<linearGradient id="SVGID_00000124132833703998295700000000843053097810943392_" gradientUnits="userSpaceOnUse" x1="795639.5" y1="-3650451.5" x2="796139.5" y2="-3650451.5" gradientTransform="matrix(1.496000e-02 0 0 7.130000e-03 -10116.3682 28538.8438)">
				<stop  offset="0" style="stop-color:#4A6058"/>
				<stop  offset="1" style="stop-color:#4A6058"/>
			</linearGradient>
			<path style="fill:url(#SVGID_00000124132833703998295700000000843053097810943392_);" d="M1794.2,2517.3c-14.5-21-11-24,29.5-24
				c33,0,37.5,1,37.5,9C1861.2,2527.8,1809.2,2539.3,1794.2,2517.3z"/>
		</g>
	</g>
	<g transform="translate(0.000000,548.000000) scale(0.100000,-0.100000)">
		<g>
			
				<linearGradient id="SVGID_00000103249580441182705720000012247090137830819241_" gradientUnits="userSpaceOnUse" x1="212148.4688" y1="-2570518.5" x2="212648.4688" y2="-2570518.5" gradientTransform="matrix(5.200000e-02 0 0 0.1712 -7540.52 443541.875)">
				<stop  offset="0" style="stop-color:#694B26"/>
				<stop  offset="1" style="stop-color:#694B26"/>
			</linearGradient>
			<path style="fill:url(#SVGID_00000103249580441182705720000012247090137830819241_);" d="M3719.7,3947.3
				c-1.5-14.5-5.5-38.5-8.5-53l-6-26.5l-14,29c-8,16-19,34.5-25,41.5c-8,9.5-6.5,4.5,5.5-20c10.5-21.5,16.5-42.5,18.5-62.5
				c2.5-36-1.5-46-53.5-125l-34.5-52l-26.5,46c-38.5,67.5-39,68.5-44,106.5l-4,34.5l-1-30l-0.5-30l-15.5,24
				c-26.5,40-25.5,26,0.5-17.5c14-23,25-43,25-45.5c0-3.5-12-2-36,5c-5,1-9,0.5-9-2s12-7.5,26.5-11.5l26-7.5l26.5-53l27-52.5
				l6.5-162.5c4-89,7.5-190.5,7.5-225c0-56.5,1-64,10-72c5.5-5,15-22,20.5-38l11-29.5l14,10.5c8,5.5,14.5,14.5,14.5,19.5
				s-9,71.5-19.5,148.5c-11,76.5-23.5,176.5-28.5,222.5l-8.5,83.5l14.5,21c16.5,24,45.5,49.5,80,70.5c14,8,19,13,12,11
				c-24.5-6.5-61.5-28-84-48.5l-22.5-21l3,16c7.5,38,61,98.5,107.5,120.5c8.5,4.5,16,9.5,16,12c0,4.5-16-1.5-45-16
				c-11-5.5-20-9.5-20-8.5s5.5,15.5,12.5,33c16.5,40.5,26,82.5,30,137C3732.2,3976.8,3724.7,3992.3,3719.7,3947.3z"/>
		</g>
	</g>
	<g transform="translate(0.000000,548.000000) scale(0.100000,-0.100000)">
		<g>
			
				<linearGradient id="SVGID_00000091013318965628239990000011653976726278913965_" gradientUnits="userSpaceOnUse" x1="91793.0078" y1="-2564980.25" x2="91792.5" y2="-2564980.25" gradientTransform="matrix(0.1317 0 0 0.2011 -6852.8574 519735.5)">
				<stop  offset="0" style="stop-color:#684620"/>
				<stop  offset="1" style="stop-color:#6C5324"/>
			</linearGradient>
			<path style="fill:url(#SVGID_00000091013318965628239990000011653976726278913965_);" d="M5333.7,4517.3c-1-3.5-4-28-7-54
				c-5-43-24.5-150.5-28-154c-0.5-1-5,9-9.5,22.5c-9.5,27-46.5,91.5-52.5,91.5c-2.5,0,3.5-18,13-40.5
				c22.5-51.5,34.5-117.5,26.5-143.5c-10-30.5-43.5-89.5-92.5-161c-25.5-37-50-75-54.5-84l-8.5-17l-30.5,54.5
				c-16.5,29.5-41,72-54.5,94c-24.5,40-39,87.5-39.5,125.5c0,8.5-1.5,23.5-3.5,32.5c-3,13.5-4.5,6.5-6.5-30l-2.5-46.5l-29.5,42.5
				c-16,24-34,47-39.5,52c-11.5,10-10.5,8,16-33.5c18.5-29.5,80-137,78.5-138.5c-0.5-0.5-15,2-33,6c-51.5,10-70,12-70,7.5
				c0-2.5,7.5-5.5,16.5-7.5c8.5-2,35-9,58-15.5l41.5-12.5l40.5-83.5c37-77,40.5-87.5,46.5-133.5c4-27.5,7-57.5,7-66.5v-16l-18.5,8
				c-39.5,16-100,27.5-167.5,30.5c-74,3.5-75.5,4-103.5,39.5c-16.5,21-17,11.5-0.5-14.5l14.5-23.5l-23.5,3c-13,1.5-32,3.5-42,5
				c-18,2-26.5-4.5-12.5-9.5c3-1-2.5-4-12.5-6c-36-7-18.5-10,48-8.5c70,2,165.5-7.5,220-21.5c16-4,45-15,65-24.5l36.5-16.5l3-76.5
				c2-42,3.5-98.5,3.5-126c0-27,1-49,2.5-49c1,0,15,8,30.5,18c26,16.5,28,19,25,33.5c-8,46-19,149-22.5,208.5c-4,66-3.5,68,8.5,89.5
				c27.5,49,117,128,170,150c14.5,6,22,15.5,12,15.5c-2,0-28.5-12.5-58.5-27c-36-18-68.5-39-94.5-61l-39.5-33.5l3.5,22
				c11,70.5,103.5,172,202,221.5c15,7.5,26,14.5,25,16c-4,3.5-54-15.5-92.5-35l-36-18l17,40c21.5,51,35.5,95.5,48,155
				C5340.7,4379.8,5347.2,4559.3,5333.7,4517.3z"/>
		</g>
	</g>
	<g transform="translate(0.000000,548.000000) scale(0.100000,-0.100000)">
		<g>
			
				<linearGradient id="SVGID_00000124159480857004490220000013591136292303817644_" gradientUnits="userSpaceOnUse" x1="60645.4844" y1="-2557297.5" x2="60155.3516" y2="-2557219.25" gradientTransform="matrix(0.2708 0 0 0.2426 -10655.7236 624260.625)">
				<stop  offset="0" style="stop-color:#85A43C"/>
				<stop  offset="1" style="stop-color:#86A53E"/>
			</linearGradient>
			<path style="fill:url(#SVGID_00000124159480857004490220000013591136292303817644_);" d="M4991.2,4625.8
				c-90.5-20.5-173-87.5-228-185c-25-45.5-54.5-127-67-187.5c-20.5-95-44-123.5-119-143c-40.5-10.5-72.5-30-103.5-62.5
				c-49.5-52-77-135-77.5-232c0-97,23.5-145,97.5-200c20-14.5,46-38.5,58-53.5c68-82.5,124-120.5,200.5-136
				c112.5-23,260.5,9,353,76.5l21,15.5v49c0,27.5-1.5,84-3.5,126l-3,76.5l-36.5,16.5c-20,9.5-49,20.5-65,24.5
				c-54.5,14-150,23.5-220,21.5c-66.5-1.5-84,1.5-48,8.5c10,2,15.5,5,12.5,6c-3.5,1.5-6.5,4.5-6.5,7c0,4,14,3.5,66-3.5l19-2
				l-15,23.5c-16.5,26-16,35.5,0.5,14.5c28-35.5,29.5-36,103.5-39.5c67.5-3,128-14.5,167.5-30.5l18.5-8v16c0,9-3,39-7,66.5
				c-6,46-9.5,56.5-46.5,133.5l-40.5,83.5l-41.5,12.5c-23,6.5-49.5,13.5-58,15.5c-9,2-16.5,5-16.5,7.5c0,4.5,18.5,2.5,70-7.5
				c18-4,32.5-6.5,33-6c1.5,1.5-60,109-78.5,138.5c-26.5,41.5-27.5,43.5-16,33.5c5.5-5,23.5-28,39.5-52l29.5-42.5l2.5,46.5
				c2,36.5,3.5,43.5,6.5,30c2-9,3.5-24,3.5-32.5c0.5-38,15-85.5,39.5-125.5c13.5-22,38-64.5,54.5-94l30.5-54.5l8.5,17
				c4.5,9,29,47,54.5,84c49,71.5,82.5,130.5,92.5,161c8,26-4,92-26.5,143.5c-9.5,22.5-15.5,40.5-13,40.5c6,0,43-64.5,52.5-91.5
				c4.5-13.5,9-23.5,9.5-22.5c3.5,4,22.5,107.5,28,154c9.5,84,16,74,13-20c-4-112-21-191.5-61-285l-17-40l36,18
				c38.5,19.5,88.5,38.5,92.5,35c1-1.5-10-8.5-25-16c-98.5-49.5-191-151-202-221.5l-3.5-22l39.5,33.5c26,22,58.5,43,94.5,61
				c30,14.5,56.5,27,58.5,27c10,0,2.5-9.5-12-15.5c-53-22-142.5-101-170-150c-12-21.5-12.5-23.5-8.5-92c4-66.5,21-210.5,25.5-215
				c1-1.5,15.5,0,31.5,2.5c16.5,2.5,65.5,3.5,110,2c151-6,270.5,20,338,73c26.5,21.5,57.5,69.5,69.5,109.5
				c13,41.5,18,116.5,10.5,165.5c-3,20.5-8,55.5-11,77c-7,53.5-20.5,83.5-50.5,110.5c-35.5,32-69,43-142.5,47
				c-66,3.5-76.5,7.5-98.5,37.5c-9,11.5-11,24-13.5,89.5c-4,81-14,132.5-36.5,181.5c-36,78-95.5,131.5-178.5,159.5
				c-37.5,12.5-50.5,14-117,15.5C5045.7,4632.8,5014.2,4630.8,4991.2,4625.8z"/>
		</g>
	</g>
	<g transform="translate(0.000000,548.000000) scale(0.100000,-0.100000)">
		<g>
			
				<linearGradient id="SVGID_00000005243906553661066400000000574481671946896820_" gradientUnits="userSpaceOnUse" x1="506126.4375" y1="-3354907.5" x2="506626.4375" y2="-3354907.5" gradientTransform="matrix(2.190000e-02 0 0 9.708000e-03 -8322.9688 35132.0156)">
				<stop  offset="0" style="stop-color:#D0C6B7"/>
				<stop  offset="1" style="stop-color:#D0C6B7"/>
			</linearGradient>
			<path style="fill:url(#SVGID_00000005243906553661066400000000574481671946896820_);" d="M2788.2,2583.8c-13-6-27-24.5-27-36.5
				c0-8,5.5-9,54.5-9h55l-5,14.5c-3,8-9.5,18.5-14.5,23C2840.2,2585.8,2803.7,2590.3,2788.2,2583.8z"/>
		</g>
	</g>
	<g transform="translate(0.000000,548.000000) scale(0.100000,-0.100000)">
		<g>
			
				<linearGradient id="SVGID_00000129190491614471358540000003535934896243803545_" gradientUnits="userSpaceOnUse" x1="423233.5312" y1="-3102060.25" x2="423234.0312" y2="-3102060.25" gradientTransform="matrix(2.930000e-02 0 0 1.390000e-02 -10789.543 45681.6836)">
				<stop  offset="0" style="stop-color:#D1C6B9"/>
				<stop  offset="1" style="stop-color:#D1C6B9"/>
			</linearGradient>
			<path style="fill:url(#SVGID_00000129190491614471358540000003535934896243803545_);" d="M1648.2,2588.8c-18.5-8.5-37-33-37-49.5
				c0-4.5,71.5-11,122-11h24.5l-3.5,16c-4,19.5-20,38-41.5,47C1691.2,2600.8,1672.7,2599.8,1648.2,2588.8z"/>
		</g>
	</g>
	<g transform="translate(0.000000,548.000000) scale(0.100000,-0.100000)">
		<g>
			
				<linearGradient id="SVGID_00000150784723303501633980000010027946481426966429_" gradientUnits="userSpaceOnUse" x1="308301.7812" y1="-2625345" x2="308801.875" y2="-2625345" gradientTransform="matrix(2.880000e-02 0 0 8.235000e-02 -3757.3911 219538.8125)">
				<stop  offset="0" style="stop-color:#684923"/>
				<stop  offset="1" style="stop-color:#684923"/>
			</linearGradient>
			<path style="fill:url(#SVGID_00000150784723303501633980000010027946481426966429_);" d="M5155.7,3534.3l-28-17.5l-3-155.5
				l-3-155.5l14-15c8-8,20-24,27.5-35l13-20v15.5c0,53,26,61,68,21l15.5-14.5l3,19c6,35.5,3.5,58-11.5,105.5
				c-20,62-48,173.5-55.5,221c-3.5,20.5-7.5,40-9,43C5184.7,3549.8,5173.7,3545.8,5155.7,3534.3z"/>
		</g>
	</g>
	<g transform="translate(0.000000,548.000000) scale(0.100000,-0.100000)">
		<g>
			
				<linearGradient id="SVGID_00000086657053606154964080000014630694814112092067_" gradientUnits="userSpaceOnUse" x1="395003.3125" y1="-3253876" x2="395003.8125" y2="-3253876" gradientTransform="matrix(2.285000e-02 0 0 1.091000e-02 -4184.3135 37960.3672)">
				<stop  offset="0" style="stop-color:#41565A"/>
				<stop  offset="1" style="stop-color:#41565A"/>
			</linearGradient>
			<path style="fill:url(#SVGID_00000086657053606154964080000014630694814112092067_);" d="M4877.7,2482.8c-17.5-5-36.5-26-36.5-40
				c0-8.5,4.5-9.5,57.5-9.5c63,0,64.5,1,47.5,28.5c-6.5,10.5-15.5,17.5-28.5,21c-10.5,3-20,5.5-21.5,5
				C4894.7,2487.8,4886.7,2485.3,4877.7,2482.8z"/>
		</g>
	</g>
	<g transform="translate(0.000000,548.000000) scale(0.100000,-0.100000)">
		<g>
			
				<linearGradient id="SVGID_00000142872150628314028950000000201136332371353757_" gradientUnits="userSpaceOnUse" x1="1875.4989" y1="2578.3" x2="1881.569" y2="2578.3" gradientTransform="matrix(1.214000e-02 0 0 6.000000e-03 -9874.6904 25828.8008)">
				<stop  offset="0" style="stop-color:#D1C6BA"/>
				<stop  offset="1" style="stop-color:#D1C6BA"/>
			</linearGradient>
			<path style="fill:url(#SVGID_00000142872150628314028950000000201136332371353757_);" d="M1887.2,2585.3c-20.5-14.5-14-22,19-22
				c23,0,30,1.5,30,7c0,8.5-19,23-30,23C1901.7,2593.3,1893.2,2589.8,1887.2,2585.3z"/>
		</g>
	</g>
	<g transform="translate(0.000000,548.000000) scale(0.100000,-0.100000)">
		<g>
			
				<linearGradient id="SVGID_00000071559432797988164560000005249874327010620545_" gradientUnits="userSpaceOnUse" x1="88308.9688" y1="-2560121.75" x2="87819.4219" y2="-2560154" gradientTransform="matrix(0.193 0 0 0.2247 -14475.165 579321.25)">
				<stop  offset="0" style="stop-color:#839E32"/>
				<stop  offset="1" style="stop-color:#86A63F"/>
			</linearGradient>
			<path style="fill:url(#SVGID_00000071559432797988164560000005249874327010620545_);" d="M2045.7,4658.3
				c-32.5-5.5-42-11.5-84.5-52.5c-41-39.5-64-50.5-94-45c-19,3-79,23.5-100.5,34c-33,16.5-88.5-4.5-114.5-43
				c-30.5-44.5-41-97.5-41-200c0.5-135,31.5-243,93.5-323.5c13.5-18,27.5-37.5,30.5-43.5c8.5-15.5,7.5-43-3.5-94
				c-20-92.5-18-141.5,6.5-195.5c19-42,66.5-86,118-111c43.5-20.5,103.5-39,109.5-33.5c5.5,6,3,304-3.5,375c-3.5,38.5-7.5,97-9,130
				c-2,44-6,71-15.5,101c-12.5,40.5-62.5,148-89.5,191c-7.5,12-10.5,20.5-7,18c11.5-7,66-95,91.5-147.5c17.5-36,26-49.5,27.5-42.5
				c1.5,5.5,17,55,35.5,110l33,100v58.5c0,32.5,1.5,59,3.5,59c6,0,15-72,12-97.5c-1.5-14.5-15.5-77.5-31-140.5l-28-114.5l3-60
				c2-33,5.5-62,8-64.5s10.5,0.5,19,6.5c30,21,87,44.5,141.5,58l55.5,14l14.5,22.5c8,12.5,14.5,26,14.5,29.5s2,6.5,4.5,6.5
				c5,0-2-30.5-10-46c-4.5-8-3-8,21.5-1c14.5,4.5,38.5,13,53,19.5c29.5,13.5,35,9.5,8-6l-18-10l41.5-4.5c33-3.5,37.5-4.5,19.5-5.5
				c-67-4-123-14-180-32.5c-72-23-115.5-44.5-156.5-77c-24-18.5-29-25-26.5-33.5c2-6,4.5-105,6.5-220.5l3-209l58,2.5
				c35.5,1.5,66.5,5.5,80,10.5c51,19,91.5,63.5,151,165.5c46,79,87,118.5,148.5,144.5c30,12.5,54.5,26.5,71,41.5
				c53.5,48,74.5,130.5,50,198c-6,17-14,34.5-17,38.5c-3.5,4-13.5,20-23,35c-26,43.5-68.5,93-102,118c-16.5,13-55,35-85.5,49
				c-85,40.5-103.5,67-135,193.5c-20,79-34.5,110.5-56,118.5C2127.7,4659.8,2072.7,4663.3,2045.7,4658.3z"/>
		</g>
	</g>
	<g transform="translate(0.000000,548.000000) scale(0.100000,-0.100000)">
		<g>
			
				<linearGradient id="SVGID_00000121272099042974322120000002509705670359024304_" gradientUnits="userSpaceOnUse" x1="135723.6719" y1="-2552088.75" x2="135723.1562" y2="-2552088.75" gradientTransform="matrix(0.1064 0 0 0.2701 -12067.5078 693147.25)">
				<stop  offset="0" style="stop-color:#581700"/>
				<stop  offset="1" style="stop-color:#74624A"/>
			</linearGradient>
			<path style="fill:url(#SVGID_00000121272099042974322120000002509705670359024304_);" d="M2028.7,4444.3v-58.5l-33-100
				c-18.5-55-34-104.5-35.5-110c-1.5-7-10,6.5-27.5,42.5c-25.5,52.5-80,140.5-91.5,147.5c-3.5,2.5-0.5-6,7-18
				c27-43,77-150.5,89.5-191c9.5-30,13.5-57,15.5-101c1.5-33,5.5-91.5,9-130s6.5-135,6.5-215c0-126-2-162-14.5-275
				c-9-80.5-14.5-159.5-15-206.5l-0.5-76.5l15,19c16,20.5,36,41,47.5,49c6.5,4.5,7,52,4.5,367.5c-1.5,199.5-4.5,368.5-6.5,376
				c-3.5,12-1,15.5,25.5,36c77,60.5,202.5,101.5,336.5,109.5c18,1,13.5,2-19.5,5.5l-41.5,4.5l18,10c27,15.5,21.5,19.5-8,6
				c-14.5-6.5-38.5-15-53-19.5c-24.5-7-26-7-21.5,1c8,15.5,15,46,10,46c-2.5,0-4.5-3-4.5-6.5s-6.5-17-14.5-29.5l-14.5-22.5l-55.5-14
				c-54.5-13.5-111.5-37-141.5-58c-8.5-6-16.5-9-19-6.5s-6,31.5-8,64.5l-3,60l28,114.5c15.5,63,29.5,126,31,140.5
				c3,25.5-6,97.5-12,97.5C2030.2,4503.3,2028.7,4476.8,2028.7,4444.3z"/>
		</g>
	</g>
	<g transform="translate(0.000000,548.000000) scale(0.100000,-0.100000)">
		<g>
			
				<linearGradient id="SVGID_00000107560199985954511740000007521941832402812049_" gradientUnits="userSpaceOnUse" x1="324343.3125" y1="-3120295" x2="324343.8125" y2="-3120295" gradientTransform="matrix(3.120000e-02 0 0 1.389000e-02 -6184.312 46153.918)">
				<stop  offset="0" style="stop-color:#40545A"/>
				<stop  offset="1" style="stop-color:#40545A"/>
			</linearGradient>
			<path style="fill:url(#SVGID_00000107560199985954511740000007521941832402812049_);" d="M3977.7,2838.8c-22-10-33.5-24-39-46.5
				l-3.5-14h78c71,0,78,1,78,9c0,16.5-20,41.5-41.5,51C4023.2,2850.8,4004.2,2850.8,3977.7,2838.8z"/>
		</g>
	</g>
	<g transform="translate(0.000000,548.000000) scale(0.100000,-0.100000)">
		<g>
			
				<linearGradient id="SVGID_00000109013666704083516650000005576646707414055322_" gradientUnits="userSpaceOnUse" x1="65288.2266" y1="-2611924.25" x2="65288.7266" y2="-2611924.25" gradientTransform="matrix(0.1975 0 0 9.393000e-02 -7990.7251 248650.6719)">
				<stop  offset="0" style="stop-color:#D3FF72;stop-opacity:0.372"/>
				<stop  offset="1" style="stop-color:#D3FF72;stop-opacity:0.372"/>
			</linearGradient>
			<path style="fill:url(#SVGID_00000109013666704083516650000005576646707414055322_);" d="M5366.2,3544.8c-13-4.5-35.5-28-45-46.5
				c-21.5-41.5-40.5-129.5-50-227.5c-3-33-6.5-72-8-87l-3-26.5l-15.5,15c-42.5,40-68.5,32-68.5-21v-15.5l-13,20
				c-23,34.5-42.5,52.5-58,52.5c-11,0-14.5-3-17.5-13.5c-3-13,7.5-76,16-98c2.5-6-8.5-1.5-36.5,15.5c-47.5,29-115,52.5-143.5,50
				l-20-1.5l0.5-23c0-14.5,4-29,11.5-41.5l12-18.5l208,4c114.5,2,331,4,482,4h273.5v149c0,134.5-1,149.5-8,146.5c-4.5-1.5-14-3-22-3
				c-12,0-16-4.5-31.5-33.5c-9.5-19-23.5-53-31.5-76.5l-14-42l-5.5,24.5c-3.5,14-8.5,30.5-11.5,37.5c-6,15-29.5,37.5-43.5,42
				c-17.5,5-42-14.5-54.5-43.5c-6.5-14-14-31.5-17-38.5c-5-12-5.5-12-5.5,5.5c-0.5,29-11,75.5-21,95c-10.5,20.5-24,27.5-38.5,20
				c-13.5-7-38-56-54-108l-14-44.5l-8.5,60.5c-21.5,147.5-62,243.5-113,264.5C5380.2,3548.8,5377.7,3548.8,5366.2,3544.8z"/>
		</g>
	</g>
	<g transform="translate(0.000000,548.000000) scale(0.100000,-0.100000)">
		<g>
			
				<linearGradient id="SVGID_00000092450835166323743690000001108678094965932701_" gradientUnits="userSpaceOnUse" x1="35931.2227" y1="-2583714" x2="36431.2227" y2="-2583714" gradientTransform="matrix(0.886 0 0 0.1198 -30373.8613 311916.75)">
				<stop  offset="0" style="stop-color:#D7FF58;stop-opacity:0.4289"/>
				<stop  offset="1" style="stop-color:#D7FF58;stop-opacity:0.4289"/>
			</linearGradient>
			<path style="fill:url(#SVGID_00000092450835166323743690000001108678094965932701_);" d="M5281.2,2682.8
				c-34.5-2.5-94-6.5-132.5-9.5s-97-7.5-130-10s-92.5-7-132.5-9.5c-92-7-424-28.5-542.5-35.5c-363-20.5-454-22.5-640-12.5
				c-209,11.5-971,16-1207.5,7.5c-352.5-13-621.5-11.5-837.5,5c-33,2.5-91,6-128.5,7.5l-69,3.5v-270.5v-270.5h2215h2215v192.5v192.5
				h-23.5c-13.5,0-40.5-3.5-60-7.5c-75.5-16-162-23-309-25.5l-150-3l-104.5,20.5c-58,11-106.5,23-109,26.5c-2,3.5-4,16-4,27.5
				c0,16.5,3.5,25,15.5,39c20.5,23,53,32.5,112.5,32.5h46l5,21.5c7.5,28.5,21,40.5,41,37c13.5-3,15-2,15,10.5c0,7.5,1.5,18.5,3,25
				C5372.7,2689.8,5381.2,2689.3,5281.2,2682.8z M1712.7,2591.3c21.5-9,37.5-27.5,41.5-47l3.5-16h-24.5c-50.5,0-122,6.5-122,11
				c0,3,4,13,8.5,22.5C1633.7,2592.3,1678.2,2606.3,1712.7,2591.3z M1925.2,2585.3c20.5-14.5,14-22-19-22c-23,0-30,1.5-30,7
				c0,8.5,19,23,30,23C1910.7,2593.3,1919.2,2589.8,1925.2,2585.3z M2851.2,2575.8c5-4.5,11.5-15,14.5-23l5-14.5h-55
				c-49,0-54.5,1-54.5,9c0,12,14,30.5,27,36.5C2803.7,2590.3,2840.2,2585.8,2851.2,2575.8z M4383.2,2572.3c6.5-9,17.5-32,23.5-51.5
				c6-19,12.5-37,14.5-39s7.5,6,13,17.5c35,80.5,66,93.5,52.5,22.5c-3.5-17-7.5-36.5-9-43.5c-3-12-2.5-11.5,16.5,4
				c12,10,25,16,34,16c13.5,0,14-1,11.5-18.5c-1.5-10.5-7.5-29.5-13.5-42.5l-10.5-24h-99.5h-99.5l-8,15c-4,8-7.5,21.5-7.5,30
				c0,12,2,15,11.5,15c6,0,17.5-3.5,25.5-7.5c7.5-4,14.5-7.5,15-7.5c0,0-0.5,24.5-1,54.5C4349.7,2586.8,4358.7,2603.8,4383.2,2572.3
				z M2333.2,2567.3c8.5-14,18-57.5,18-85v-20l22.5,31c28,37.5,40,39,39.5,5c0-12.5-2-28.5-4-36c-3.5-12.5-3-14,8.5-14
				c20,0,20.5-8,2-22c-16.5-12.5-19.5-13-87.5-13h-71l-22.5,33.5c-25.5,38.5-29,54-11,48.5c6-1.5,22.5-9,36-16.5
				c14-7,26.5-13.5,28-14.5c2-1,4,19.5,5.5,45c2,47.5,9,69,21.5,69C2322.7,2578.3,2329.2,2573.3,2333.2,2567.3z M3238.7,2556.3
				c17.5-7.5,37.5-33.5,37.5-49c0-8-7-9-72.5-9c-80,0-80.5,0.5-65,30.5C3155.2,2559.8,3200.2,2572.3,3238.7,2556.3z M1852.2,2519.8
				c5-4.5,9-12,9-17.5c0-8-4.5-9-37.5-9c-40.5,0-44,3-29.5,24C1803.7,2530.8,1838.2,2532.8,1852.2,2519.8z M4917.7,2482.8
				c13-3.5,22-10.5,28.5-21c17-27.5,15.5-28.5-47.5-28.5c-53,0-57.5,1-57.5,9.5c0,19.5,25,40,55,45
				C4897.7,2488.3,4907.2,2485.8,4917.7,2482.8z"/>
		</g>
	</g>
	<g transform="translate(0.000000,548.000000) scale(0.100000,-0.100000)">
		<g>
			
				<linearGradient id="SVGID_00000148644058858503290720000007266587669119826321_" gradientUnits="userSpaceOnUse" x1="247608.5781" y1="-2873964.5" x2="248108.6406" y2="-2873964.5" gradientTransform="matrix(3.390000e-02 0 0 2.310000e-02 -2672.2507 69059.1328)">
				<stop  offset="0" style="stop-color:#D4FF69;stop-opacity:0.3769"/>
				<stop  offset="1" style="stop-color:#D4FF69;stop-opacity:0.3769"/>
			</linearGradient>
			<path style="fill:url(#SVGID_00000148644058858503290720000007266587669119826321_);" d="M5769.7,2722.8c-24.5-2-45.5-5-46.5-6
				c-1.5-1.5-2-16.5-1-33.5l1.5-30.5l18,26.5c34.5,51.5,62,50.5,62-2.5c0-14.5-2-34.5-4-45l-4-19l24.5,25
				c22.5,23.5,26,25.5,47.5,25.5h23.5v32.5v32.5l-38.5-0.5C5831.2,2727.3,5793.7,2725.3,5769.7,2722.8z"/>
		</g>
	</g>
	<g transform="translate(0.000000,548.000000) scale(0.100000,-0.100000)">
		<g>
			
				<linearGradient id="SVGID_00000151525966328724105270000002060829342250056618_" gradientUnits="userSpaceOnUse" x1="139846.125" y1="-2614024" x2="139846.625" y2="-2614024" gradientTransform="matrix(9.438000e-02 0 0 9.080000e-02 -10920.4775 240574.125)">
				<stop  offset="0" style="stop-color:#D5FF62;stop-opacity:0.4133"/>
				<stop  offset="1" style="stop-color:#D5FF62;stop-opacity:0.4133"/>
			</linearGradient>
			<path style="fill:url(#SVGID_00000151525966328724105270000002060829342250056618_);" d="M2522.2,3438.3
				c-33.5-20.5-71-99.5-101-213.5c-5-19.5-6.5-21-19-18.5c-27,5.5-45-33.5-49.5-106.5c-1.5-25.5-4-46.5-5-46.5s-8.5,8-17,17.5
				c-28.5,32-43.5,21.5-49-34.5l-3.5-37.5l38-3.5c43-4,429,0.5,433.5,5c3.5,3.5-17,100-23.5,113.5c-2,4-9,25-15,46.5
				c-32,113.5-104,255.5-141.5,278.5C2549.7,3450.8,2542.7,3450.8,2522.2,3438.3z"/>
		</g>
	</g>
	<g transform="translate(0.000000,548.000000) scale(0.100000,-0.100000)">
		<g>
			
				<linearGradient id="SVGID_00000119839726176951791450000009537684943579611776_" gradientUnits="userSpaceOnUse" x1="173017.1406" y1="-2592799.25" x2="173017.6406" y2="-2592799.25" gradientTransform="matrix(6.461000e-02 0 0 0.1233 -7550.5396 323545.8438)">
				<stop  offset="0" style="stop-color:#000000;stop-opacity:0.1363"/>
				<stop  offset="1" style="stop-color:#000000;stop-opacity:0.1363"/>
			</linearGradient>
			<path style="fill:url(#SVGID_00000119839726176951791450000009537684943579611776_);" d="M3831.2,4029.8c0-20.5-6-46.5-20-88
				c-16-47-20-67-20-94.5c0-33.5,1.5-38,30.5-92c35-66.5,40.5-92.5,27.5-138c-10-33-39.5-69.5-69.5-85c-11-5.5-33-11-48-12.5
				c-27.5-2-28.5-1.5-65.5,25.5c-20.5,15-37.5,27-38,26.5c-1.5-2.5,14-126,16.5-128.5c1-1.5,23-2,48-1.5c109.5,2,218.5,65.5,248,144
				c11.5,31,14,87,5,119c-3,12-17,31.5-37.5,53.5c-43,45.5-45.5,55.5-29,112c16,54.5,15,93-4.5,133.5c-11,23.5-34.5,54.5-41,54.5
				C3832.2,4058.3,3831.2,4045.3,3831.2,4029.8z"/>
		</g>
	</g>
	<g transform="translate(0.000000,548.000000) scale(0.100000,-0.100000)">
		<g>
			
				<linearGradient id="SVGID_00000165200919182889735720000006040738625343619489_" gradientUnits="userSpaceOnUse" x1="186782.8125" y1="-2678167.25" x2="186783.3125" y2="-2678167.25" gradientTransform="matrix(6.120000e-02 0 0 5.695000e-02 -8132.2236 156108.5625)">
				<stop  offset="0" style="stop-color:#000000;stop-opacity:0.1368"/>
				<stop  offset="1" style="stop-color:#000000;stop-opacity:0.1368"/>
			</linearGradient>
			<path style="fill:url(#SVGID_00000165200919182889735720000006040738625343619489_);" d="M3317.7,3717.3c-19-20-23.5-52-14-92
				c10.5-43.5,25.5-69,55-96.5c25-23,76.5-49,122.5-62c28.5-8.5,120.5-24.5,123.5-22c0.5,1,0,30.5-2,65.5l-3,64l-55.5-3
				c-30.5-1.5-78.5-4-106.5-6c-43.5-2.5-53.5-2-64.5,5.5c-19.5,12.5-32,47-38.5,106l-6,52.5L3317.7,3717.3z"/>
		</g>
	</g>
</g>
<g transform="translate(0.000000,548.000000) scale(0.100000,-0.100000)">
	<g>
		
			<linearGradient id="SVGID_00000132070968052343212260000008637294417990807459_" gradientUnits="userSpaceOnUse" x1="106656.9453" y1="-2568960.25" x2="106656.4375" y2="-2568960" gradientTransform="matrix(0.1317 0 0 0.2011 -6852.8574 519735.5)">
			<stop  offset="0" style="stop-color:#684620"/>
			<stop  offset="1" style="stop-color:#6C5324"/>
		</linearGradient>
		<path style="fill:url(#SVGID_00000132070968052343212260000008637294417990807459_);" d="M7291,3717.1c-1-3.5-4-28-7-54
			c-5-43-24.5-150.5-28-154c-0.5-1-5,9-9.5,22.5c-9.5,27-46.5,91.5-52.5,91.5c-2.5,0,3.5-18,13-40.5
			c22.5-51.5,34.5-117.5,26.5-143.5c-10-30.5-43.5-89.5-92.5-161c-25.5-37-50-75-54.5-84l-8.5-17l-30.5,54.5
			c-16.5,29.5-41,72-54.5,94c-24.5,40-39,87.5-39.5,125.5c0,8.5-1.5,23.5-3.5,32.5c-3,13.5-4.5,6.5-6.5-30l-2.5-46.5l-29.5,42.5
			c-16,24-34,47-39.5,52c-11.5,10-10.5,8,16-33.5c18.5-29.5,80-137,78.5-138.5c-0.5-0.5-15,2-33,6c-51.5,10-70,12-70,7.5
			c0-2.5,7.5-5.5,16.5-7.5c8.5-2,35-9,58-15.5l41.5-12.5l40.5-83.5c37-77,40.5-87.5,46.5-133.5c4-27.5,7-57.5,7-66.5v-16l-18.5,8
			c-39.5,16-100,27.5-167.5,30.5c-74,3.5-75.5,4-103.5,39.5c-16.5,21-17,11.5-0.5-14.5l14.5-23.5l-23.5,3c-13,1.5-32,3.5-42,5
			c-18,2-26.5-4.5-12.5-9.5c3-1-2.5-4-12.5-6c-36-7-18.5-10,48-8.5c70,2,165.5-7.5,220-21.5c16-4,45-15,65-24.5l36.5-16.5l3-76.5
			c2-42,3.5-98.5,3.5-126c0-27,1-49,2.5-49c1,0,15,8,30.5,18c26,16.5,28,19,25,33.5c-8,46-19,149-22.5,208.5c-4,66-3.5,68,8.5,89.5
			c27.5,49,117,128,170,150c14.5,6,22,15.5,12,15.5c-2,0-28.5-12.5-58.5-27c-36-18-68.5-39-94.5-61l-39.5-33.5l3.5,22
			c11,70.5,103.5,172,202,221.5c15,7.5,26,14.5,25,16c-4,3.5-54-15.5-92.5-35l-36-18l17,40c21.5,51,35.5,95.5,48,155
			C7298,3579.6,7304.5,3759.1,7291,3717.1z"/>
	</g>
</g>
<g transform="translate(0.000000,548.000000) scale(0.100000,-0.100000)">
	<g>
		
			<linearGradient id="SVGID_00000134956398148437205540000001265292406798781850_" gradientUnits="userSpaceOnUse" x1="68008.1172" y1="-2555535.25" x2="67517.9844" y2="-2555457" gradientTransform="matrix(0.2708 0 0 0.2426 -10655.7236 624260.625)">
			<stop  offset="0" style="stop-color:#85A43C"/>
			<stop  offset="1" style="stop-color:#86A53E"/>
		</linearGradient>
		<path style="fill:url(#SVGID_00000134956398148437205540000001265292406798781850_);" d="M6985,5053.3
			c-90.5-20.5-173-87.5-228-185c-25-45.5-54.5-127-67-187.5c-20.5-95-44-123.5-119-143c-40.5-10.5-72.5-30-103.5-62.5
			c-49.5-52-77-135-77.5-232c0-97,23.5-145,97.5-200c20-14.5,46-38.5,58-53.5c68-82.5,124-120.5,200.5-136
			c112.5-23,260.5,9,353,76.5l21,15.5v49c0,27.5-1.5,84-3.5,126l-3,76.5l-36.5,16.5c-20,9.5-49,20.5-65,24.5
			c-54.5,14-150,23.5-220,21.5c-66.5-1.5-84,1.5-48,8.5c10,2,15.5,5,12.5,6c-3.5,1.5-6.5,4.5-6.5,7c0,4,14,3.5,66-3.5l19-2l-15,23.5
			c-16.5,26-16,35.5,0.5,14.5c28-35.5,29.5-36,103.5-39.5c67.5-3,128-14.5,167.5-30.5l18.5-8v16c0,9-3,39-7,66.5
			c-6,46-9.5,56.5-46.5,133.5l-40.5,83.5l-41.5,12.5c-23,6.5-49.5,13.5-58,15.5c-9,2-16.5,5-16.5,7.5c0,4.5,18.5,2.5,70-7.5
			c18-4,32.5-6.5,33-6c1.5,1.5-60,109-78.5,138.5c-26.5,41.5-27.5,43.5-16,33.5c5.5-5,23.5-28,39.5-52l29.5-42.5l2.5,46.5
			c2,36.5,3.5,43.5,6.5,30c2-9,3.5-24,3.5-32.5c0.5-38,15-85.5,39.5-125.5c13.5-22,38-64.5,54.5-94l30.5-54.5l8.5,17
			c4.5,9,29,47,54.5,84c49,71.5,82.5,130.5,92.5,161c8,26-4,92-26.5,143.5c-9.5,22.5-15.5,40.5-13,40.5c6,0,43-64.5,52.5-91.5
			c4.5-13.5,9-23.5,9.5-22.5c3.5,4,22.5,107.5,28,154c9.5,84,16,74,13-20c-4-112-21-191.5-61-285l-17-40l36,18
			c38.5,19.5,88.5,38.5,92.5,35c1-1.5-10-8.5-25-16c-98.5-49.5-191-151-202-221.5l-3.5-22l39.5,33.5c26,22,58.5,43,94.5,61
			c30,14.5,56.5,27,58.5,27c10,0,2.5-9.5-12-15.5c-53-22-142.5-101-170-150c-12-21.5-12.5-23.5-8.5-92c4-66.5,21-210.5,25.5-215
			c1-1.5,15.5,0,31.5,2.5c16.5,2.5,65.5,3.5,110,2c151-6,270.5,20,338,73c26.5,21.5,57.5,69.5,69.5,109.5
			c13,41.5,18,116.5,10.5,165.5c-3,20.5-8,55.5-11,77c-7,53.5-20.5,83.5-50.5,110.5c-35.5,32-69,43-142.5,47
			c-66,3.5-76.5,7.5-98.5,37.5c-9,11.5-11,24-13.5,89.5c-4,81-14,132.5-36.5,181.5c-36,78-95.5,131.5-178.5,159.5
			c-37.5,12.5-50.5,14-117,15.5C7039.5,5060.3,7008,5058.3,6985,5053.3z"/>
	</g>
</g>
<g transform="translate(0.000000,548.000000) scale(0.100000,-0.100000)">
	<g>
		
			<linearGradient id="SVGID_00000174575551758400323240000004397405174740444344_" gradientUnits="userSpaceOnUse" x1="375846.9375" y1="-2638334.5" x2="376347" y2="-2638334.5" gradientTransform="matrix(2.880000e-02 0 0 8.235000e-02 -3757.3911 219538.8125)">
			<stop  offset="0" style="stop-color:#684923"/>
			<stop  offset="1" style="stop-color:#684923"/>
		</linearGradient>
		<path style="fill:url(#SVGID_00000174575551758400323240000004397405174740444344_);" d="M7101,2464.6l-28-17.5l-3-155.5l-3-155.5
			l14-15c8-8,20-24,27.5-35l13-20v15.5c0,53,26,61,68,21l15.5-14.5l3,19c6,35.5,3.5,58-11.5,105.5c-20,62-48,173.5-55.5,221
			c-3.5,20.5-7.5,40-9,43C7130,2480.1,7119,2476.1,7101,2464.6z"/>
	</g>
</g>
<g transform="translate(0.000000,548.000000) scale(0.100000,-0.100000)">
	<g>
		
			<linearGradient id="SVGID_00000017492240933607186960000012552501673885090741_" gradientUnits="userSpaceOnUse" x1="80293.6328" y1="-2558232" x2="79804.0938" y2="-2558264.25" gradientTransform="matrix(0.193 0 0 0.2247 -14475.165 579321.25)">
			<stop  offset="0" style="stop-color:#839E32"/>
			<stop  offset="1" style="stop-color:#86A63F"/>
		</linearGradient>
		<path style="fill:url(#SVGID_00000017492240933607186960000012552501673885090741_);" d="M498.5,5082.9
			c-32.5-5.5-42-11.5-84.5-52.5c-41-39.5-64-50.5-94-45c-19,3-79,23.5-100.5,34c-33,16.5-88.5-4.5-114.5-43
			c-30.5-44.5-41-97.5-41-200c0.5-135,31.5-243,93.5-323.5c13.5-18,27.5-37.5,30.5-43.5c8.5-15.5,7.5-43-3.5-94
			c-20-92.5-18-141.5,6.5-195.5c19-42,66.5-86,118-111c43.5-20.5,103.5-39,109.5-33.5c5.5,6,3,304-3.5,375c-3.5,38.5-7.5,97-9,130
			c-2,44-6,71-15.5,101c-12.5,40.5-62.5,148-89.5,191c-7.5,12-10.5,20.5-7,18c11.5-7,66-95,91.5-147.5c17.5-36,26-49.5,27.5-42.5
			c1.5,5.5,17,55,35.5,110l33,100v58.5c0,32.5,1.5,59,3.5,59c6,0,15-72,12-97.5c-1.5-14.5-15.5-77.5-31-140.5l-28-114.5l3-60
			c2-33,5.5-62,8-64.5s10.5,0.5,19,6.5c30,21,87,44.5,141.5,58l55.5,14l14.5,22.5c8,12.5,14.5,26,14.5,29.5s2,6.5,4.5,6.5
			c5,0-2-30.5-10-46c-4.5-8-3-8,21.5-1c14.5,4.5,38.5,13,53,19.5c29.5,13.5,35,9.5,8-6l-18-10l41.5-4.5c33-3.5,37.5-4.5,19.5-5.5
			c-67-4-123-14-180-32.5c-72-23-115.5-44.5-156.5-77c-24-18.5-29-25-26.5-33.5c2-6,4.5-105,6.5-220.5l3-209l58,2.5
			c35.5,1.5,66.5,5.5,80,10.5c51,19,91.5,63.5,151,165.5c46,79,87,118.5,148.5,144.5c30,12.5,54.5,26.5,71,41.5
			c53.5,48,74.5,130.5,50,198c-6,17-14,34.5-17,38.5c-3.5,4-13.5,20-23,35c-26,43.5-68.5,93-102,118c-16.5,13-55,35-85.5,49
			c-85,40.5-103.5,67-135,193.5c-20,79-34.5,110.5-56,118.5C580.5,5084.4,525.5,5087.9,498.5,5082.9z"/>
	</g>
</g>
<g transform="translate(0.000000,548.000000) scale(0.100000,-0.100000)">
	<g>
		
			<linearGradient id="SVGID_00000141439245943872033500000010717887330290309269_" gradientUnits="userSpaceOnUse" x1="121483.4766" y1="-2556196" x2="121482.9609" y2="-2556196" gradientTransform="matrix(0.1064 0 0 0.2701 -12067.5078 693147.25)">
			<stop  offset="0" style="stop-color:#581700"/>
			<stop  offset="1" style="stop-color:#74624A"/>
		</linearGradient>
		<path style="fill:url(#SVGID_00000141439245943872033500000010717887330290309269_);" d="M514.5,3364.6v-58.5l-33-100
			c-18.5-55-34-104.5-35.5-110c-1.5-7-10,6.5-27.5,42.5c-25.5,52.5-80,140.5-91.5,147.5c-3.5,2.5-0.5-6,7-18
			c27-43,77-150.5,89.5-191c9.5-30,13.5-57,15.5-101c1.5-33,5.5-91.5,9-130s6.5-135,6.5-215c0-126-2-162-14.5-275
			c-9-80.5-14.5-159.5-15-206.5l-0.5-76.5l15,19c16,20.5,36,41,47.5,49c6.5,4.5,7,52,4.5,367.5c-1.5,199.5-4.5,368.5-6.5,376
			c-3.5,12-1,15.5,25.5,36c77,60.5,202.5,101.5,336.5,109.5c18,1,13.5,2-19.5,5.5l-41.5,4.5l18,10c27,15.5,21.5,19.5-8,6
			c-14.5-6.5-38.5-15-53-19.5c-24.5-7-26-7-21.5,1c8,15.5,15,46,10,46c-2.5,0-4.5-3-4.5-6.5s-6.5-17-14.5-29.5l-14.5-22.5l-55.5-14
			c-54.5-13.5-111.5-37-141.5-58c-8.5-6-16.5-9-19-6.5s-6,31.5-8,64.5l-3,60l28,114.5c15.5,63,29.5,126,31,140.5
			c3,25.5-6,97.5-12,97.5C516,3423.6,514.5,3397.1,514.5,3364.6z"/>
	</g>
</g>
<rect x="157" y="72.5" class="st33" width="106" height="160.2"/>
<g>
	<g>
		<line class="st34" x1="115.7" y1="163.4" x2="168.4" y2="163.4"/>
		<g>
			<polygon class="st35" points="95.8,163.4 123.9,179.7 117.3,163.4 123.9,147.1 			"/>
		</g>
	</g>
</g>
<rect x="430.1" y="72.5" class="st33" width="149.5" height="160.2"/>
<g>
	<g>
		<line class="st34" x1="625.1" y1="158.5" x2="563.1" y2="158.5"/>
		<g>
			<polygon class="st35" points="648.5,158.5 615.5,174.8 623.3,158.5 615.5,142.2 			"/>
		</g>
	</g>
</g>
<rect x="660.9" y="168.5" class="st33" width="106" height="183.5"/>
</svg>
