<?xml version="1.0" encoding="utf-8"?>
<!-- Generator: Adobe Illustrator 26.5.0, SVG Export Plug-In . SVG Version: 6.00 Build 0)  -->
<svg version="1.1" id="图层_1" xmlns="http://www.w3.org/2000/svg" xmlns:xlink="http://www.w3.org/1999/xlink" x="0px" y="0px"
	 viewBox="0 0 800 375" style="enable-background:new 0 0 800 375;" xml:space="preserve">
<style type="text/css">
	.st0{fill:none;}
	.st1{fill:#D3D3D3;}
	.st2{fill:url(#SVGID_00000141436362509584490550000004883999692935814815_);}
	.st3{fill:url(#region-1-1_00000085236617515933390800000005390115728018047383_);}
	.st4{fill:url(#region-1-2_00000069355572577331591750000012896932805685352100_);}
	.st5{fill:url(#region-2-1_00000144321750069115630210000013258300395207600819_);}
	.st6{fill:url(#region-2-2_00000059291903903390076560000007427445251344345246_);}
	.st7{fill:url(#region-2-3_00000107557885963685624460000003302143350463130016_);}
	.st8{fill:url(#region-2-4_00000068673256940504196680000013799666828243587509_);}
	.st9{fill:url(#region-2-5_00000011027480388757021710000000738928962973072057_);}
	.st10{fill:url(#region-2-6_00000169542653954914098560000006875534434189731982_);}
	.st11{fill:url(#region-2-7_00000049917063107325790540000015539007215335924149_);}
	.st12{fill:url(#region-2-8_00000008131378530997202870000007377438654103086498_);}
	.st13{fill:url(#region-2-9_00000003092559251584631390000017910584080759979918_);}
	.st14{fill:url(#region-2-10_00000129901647338327577510000012555850227689446564_);}
	.st15{fill:url(#region-2-11_00000040533590275168258020000005416978441330161083_);}
	.st16{fill:url(#region-2-12_00000061434719684068831730000002523937794426389154_);}
	.st17{fill:url(#region-2-13_00000097492215931833440580000008032800425836684196_);}
	.st18{fill:url(#region-2-14_00000039131926188205444840000010413646201991093400_);}
	.st19{fill:url(#region-2-15_00000104667904512968570570000002662398317735403654_);}
	.st20{fill:url(#region-2-16_00000062905144303349176130000002501669644466919584_);}
	.st21{fill:url(#region-2-17_00000062912639462576544280000007409526996997056173_);}
	.st22{fill:url(#region-2-18_00000108285497509215564240000004907206189899671225_);}
	.st23{fill:url(#region-2-19_00000127036375618883946530000007644286667641154696_);}
	.st24{fill:url(#region-2-20_00000077326130840533706970000002154195021683157392_);}
	.st25{fill:url(#region-2-21_00000136385895074509225470000010829972466426211731_);}
	.st26{fill:url(#region-2-22_00000013897778657563327730000014383312917161402532_);}
	.st27{fill:url(#region-3-1_00000093141197823283502200000007259307141013937804_);}
	.st28{fill:url(#region-3-2_00000157305310228057088040000005499407370452394675_);}
	.st29{fill:url(#region-3-3_00000061435146910514435840000009369801660788405133_);}
	.st30{fill:url(#region-3-4_00000090276692174964706670000010294338218822081440_);}
	.st31{fill:url(#region-3-5_00000108287522935956312850000016249358775262078851_);}
	.st32{fill:url(#region-3-6_00000039125157168793133480000014631590444952482693_);}
	.st33{fill:url(#region-3-7_00000157299335455360421170000006942613359912337570_);}
	.st34{fill:url(#region-3-8_00000109717645211515274060000010568471714410339499_);}
	.st35{fill:url(#region-2-2_00000118358916619009591460000011026296192079618495_);}
	.st36{fill:url(#region-2-4_00000099654959620372229650000009572410243640553135_);}
	.st37{fill:url(#region-2-5_00000104702294980602304810000016398669288592213429_);}
	.st38{fill:url(#region-2-6_00000155122962569230216250000017649741755169379756_);}
	.st39{fill:url(#region-3-1_00000067207129843796870990000006356640392561600406_);}
	.st40{fill:url(#region-3-2_00000018200834563088479360000014579853304401750705_);}
	.st41{fill:none;stroke:#0000FF;stroke-width:3;stroke-miterlimit:10;}
	.st42{fill:none;stroke:#3FA9F5;stroke-width:4;stroke-linecap:round;stroke-miterlimit:10;}
	.st43{fill:#3FA9F5;}
</style>
<pattern  y="375" width="40" height="40" patternUnits="userSpaceOnUse" id="SVGID_1_" viewBox="0 -40 40 40" style="overflow:visible;">
	<g>
		<rect y="-40" class="st0" width="40" height="40"/>
		<g>
			<rect y="-40" class="st0" width="40" height="40"/>
			<g>
				<rect y="-40" class="st0" width="40" height="40"/>
				<g>
					<rect y="-40" class="st0" width="40" height="40"/>
					<rect y="-40" class="st0" width="40" height="40"/>
					<rect y="-20" class="st1" width="20" height="20"/>
					<rect x="20" y="-40" class="st1" width="20" height="20"/>
				</g>
			</g>
		</g>
	</g>
</pattern>
<g id="图层_1_00000115494775193193425560000018079183368208798882_">
	
		<pattern  id="SVGID_00000089564956513785077110000008381235438017307521_" xlink:href="#SVGID_1_" patternTransform="matrix(1 0 0 -1 -21 -33513.7422)">
	</pattern>
	<rect style="fill:url(#SVGID_00000089564956513785077110000008381235438017307521_);" width="800" height="375"/>
</g>
<g id="图层_3">
	<g id="layer-1">
		
			<linearGradient id="region-1-1_00000081650211683797165180000000327630518277456274_" gradientUnits="userSpaceOnUse" x1="-1673.9542" y1="-74.5805" x2="-1673.41" y2="-74.9247" gradientTransform="matrix(886 0 0 -365.3 1483260 -27173.4531)">
			<stop  offset="0" style="stop-color:#98CDD7;stop-opacity:0.993"/>
			<stop  offset="1" style="stop-color:#B6FCFF;stop-opacity:0.993"/>
		</linearGradient>
		<path id="region-1-1" style="fill:url(#region-1-1_00000081650211683797165180000000327630518277456274_);" d="M163.4,135.6v82.2
			h2.1c1.1,0,2.4,0.1,2.9,0.2c12.8,3.6,55.1,13.8,68.2,16.5c9.4,1.9,8.4,2.1,8.8-2.1c0.5-5.5,2.1-6.6,4.9-3.4
			c0.8,0.9,1.6,1.8,1.7,1.8s0.4-2.1,0.5-4.6c0.4-7.3,2.2-11.2,4.9-10.7c1.2,0.2,1.4,0.1,1.9-1.8c1.1-4.5,3.7-11.8,5.1-14.6
			c2-4.1,3.6-6.1,5.7-7.1c1.6-0.8,1.9-0.8,3.5,0c0.9,0.5,2.4,1.8,3.3,3c3.9,5.3,9.1,17,11.5,25.2c0.6,2.1,1.3,4.2,1.5,4.6
			c0.2,0.5,0.9,3.2,1.5,6l1.2,5.2l4.8-0.1c2.6,0,10.7-0.3,18-0.5c7.3-0.3,19.5-0.7,27.2-1c12.9-0.4,19.1-0.6,51.2-2
			c6.4-0.2,18.8-0.7,27.2-1c8.5-0.2,21.6-0.8,29-1.1c42-1.6,110.8-3,135.1-2.8l21.1,0.2v-87.2V53.3H384.9H163.4V135.6z"/>
		
			<linearGradient id="region-1-2_00000104665340528656206460000015734014148892378035_" gradientUnits="userSpaceOnUse" x1="-1673.6833" y1="-75.0603" x2="-1673.6672" y2="-75.6164" gradientTransform="matrix(886 0 0 -271.8877 1483260 -20218.3516)">
			<stop  offset="0" style="stop-color:#9AC345"/>
			<stop  offset="1" style="stop-color:#98BF49"/>
		</linearGradient>
		<path id="region-1-2" style="fill:url(#region-1-2_00000104665340528656206460000015734014148892378035_);" d="M269.5,192.4
			c-3.4,2-7.1,9.9-10.1,21.4c-0.5,1.9-0.7,2.1-1.9,1.8c-2.7-0.5-4.5,3.4-4.9,10.7c-0.1,2.5-0.4,4.6-0.5,4.6s-0.9-0.8-1.7-1.8
			c-2.9-3.2-4.4-2.1-4.9,3.4c-0.3,4.2,0.7,4-8.8,2.1c-12.5-2.5-26-5.7-49-11.6c-10.2-2.6-19.8-4.8-21.4-5l-2.9-0.3v54.8v54.8h221.5
			h221.5v-49.6V228l-6.8-0.3c-17.6-0.9-96.1,0.5-149.6,2.6c-7.3,0.2-20.2,0.8-28.8,1c-8.5,0.3-20.8,0.8-27.2,1
			c-32.1,1.4-38.3,1.6-51.2,2c-7.7,0.3-20,0.7-27.2,1c-7.3,0.2-15.4,0.5-18,0.5l-4.8,0.1l-1.2-5.2c-0.6-2.8-1.4-5.5-1.5-6
			c-0.2-0.4-0.9-2.5-1.5-4.6c-3.2-11.4-10.4-25.5-14.1-27.9C272.2,191.1,271.5,191.1,269.5,192.4z"/>
	</g>
	<g id="layer-2">
		
			<linearGradient id="region-2-1_00000172441695536491409770000008433816061813840277_" gradientUnits="userSpaceOnUse" x1="-1656.8945" y1="-117.1531" x2="-1656.7274" y2="-117.9172" gradientTransform="matrix(76 0 0 -24 126496 -2747.5)">
			<stop  offset="0" style="stop-color:#FFFFFF;stop-opacity:0.817"/>
			<stop  offset="1" style="stop-color:#FFFFFF;stop-opacity:0.804"/>
		</linearGradient>
		<path id="region-2-1" style="fill:url(#region-2-1_00000172441695536491409770000008433816061813840277_);" d="M575.1,65.6
			c-1.1,0.4-2.8,1.6-3.8,2.6c-1.5,1.8-1.9,2-3.4,1.8c-3.3-0.5-6.6,2-6.6,5.1v1.7h19c16.8,0,19-0.1,19-0.8c0-1.4-2.3-3.2-3.9-3.2
			c-1.1,0-1.8-0.4-2.3-1.2c-1-1.6-3.7-2.8-6.1-2.8c-1.3,0-2.1-0.3-2.5-1c-0.8-1.1-4.5-3-6.2-3C577.7,64.9,576.2,65.2,575.1,65.6z"/>
		
			<linearGradient id="region-2-2_00000145046292422793603520000003392214994760770723_" gradientUnits="userSpaceOnUse" x1="-1664.3486" y1="-77.8085" x2="-1664.3486" y2="-78.3089" gradientTransform="matrix(158.7196 0 0 -172.9672 264397.5625 -13388.1641)">
			<stop  offset="0" style="stop-color:#88A700;stop-opacity:0.629"/>
			<stop  offset="1" style="stop-color:#83990B;stop-opacity:0.824"/>
		</linearGradient>
		<path id="region-2-2" style="fill:url(#region-2-2_00000145046292422793603520000003392214994760770723_);" d="M221.8,70.4
			c-3.2,0.5-4.2,1.1-8.4,5.2c-4.1,3.9-6.4,5-9.4,4.5c-1.8-0.3-8.1-2.5-9.6-3.2c-1-0.5-1.2,1.6-1.2,12c0,10.9,2,18.2,6.8,25
			c3.8,5.4,3.9,5.6,3.9,8.1c0,1.3-0.4,3.8-0.8,5.8c-0.4,1.8-0.9,5.4-0.9,7.9c-0.1,3.9,0.2,4.9,1.2,7.4c2,4.3,5.4,7.6,10.1,9.8
			c6.1,2.9,10.1,3.8,17.1,3.8c5.3,0,6.2-0.1,8.4-1.2c3.6-1.8,6.6-5.1,10.8-12.1c5-8.4,7.5-10.9,13.5-13.8c4.5-2.1,9.9-6.3,9-6.9
			c-0.2-0.1-1.1-1.6-2.1-3.1c-2.5-4.4-7.2-9.9-10.6-12.5c-1.7-1.2-5.6-3.5-8.6-4.9c-8.5-4-10.4-6.7-13.5-19.4
			c-2-7.9-3.5-11-5.6-11.8C230,70.2,224.5,69.9,221.8,70.4z"/>
		
			<linearGradient id="region-2-3_00000137118189272422184160000003603961100601831351_" gradientUnits="userSpaceOnUse" x1="-1653.2742" y1="-118.5706" x2="-1653.248" y2="-119.1501" gradientTransform="matrix(77 0 0 -23.162 127590 -2675.7158)">
			<stop  offset="0" style="stop-color:#FFFFFF;stop-opacity:0.827"/>
			<stop  offset="1" style="stop-color:#FFFFFF;stop-opacity:0.815"/>
		</linearGradient>
		<path id="region-2-3" style="fill:url(#region-2-3_00000137118189272422184160000003603961100601831351_);" d="M285,71
			c-1.5,0.3-2.6,1-4.1,2.6c-1.9,2.1-2.2,2.2-4.8,2.2c-2.4,0-2.9,0.1-4.2,1.8c-1,1.1-1.5,2.3-1.5,3.2v1.5h19.2
			c10.6,0,19.2-0.2,19.2-0.5c0-1.1-2.2-3-3.9-3.4c-1-0.2-2.7-1-3.7-1.9c-1.8-1.6-5.3-2.7-6.4-2.1c-0.3,0.2-0.8-0.1-1-0.6
			C292.7,71.7,288.5,70.3,285,71z"/>
		
			<linearGradient id="region-2-4_00000109725087036771078640000007008016591184570785_" gradientUnits="userSpaceOnUse" x1="-1668.9441" y1="-77.0376" x2="-1668.627" y2="-77.5874" gradientTransform="matrix(217.6419 0 0 -195.6974 363716.9375 -15007.5723)">
			<stop  offset="0" style="stop-color:#829B00;stop-opacity:0.698"/>
			<stop  offset="1" style="stop-color:#839D0C;stop-opacity:0.825"/>
		</linearGradient>
		<path id="region-2-4" style="fill:url(#region-2-4_00000109725087036771078640000007008016591184570785_);" d="M516.5,73.6
			c-3.7,0.9-7.8,2.6-10.7,4.7c-2.2,1.6-7.6,6.4-6.5,5.8c0.5-0.2,0.5,0.1,0.2,1.9c-0.9,4.7-0.4,8.4,1.9,14.9c2,6,2.1,6.4,1.6,9
			c-0.7,3.3-3.8,8.1-8.5,13c-3.5,3.6-5,4.7-9.9,6.5c-5,1.9-7.1,4.5-8.2,10.3c-0.4,1.7-0.6,5.1-0.4,7.5c0.3,8,3.9,13.2,10,14.6
			c3.9,0.9,5.1,1.8,7.4,4.7c2.4,3.2,4.4,4.3,8.1,4.3c3.2,0,6.6-1.5,11.4-5c9.1-6.6,16.5-7.9,32.5-6c17.6,2.1,25.9,0.8,32.9-5.2
			c2.8-2.4,5.3-7.6,6.1-12.4c0.7-3.8,0.4-13.6-0.4-16.6c-0.7-2.4-4.8-3.8-12.5-4.2c-6.6-0.4-7.7-0.8-9.8-3.8
			c-0.9-1.1-1.1-2.4-1.4-8.9c-0.4-8.1-1.4-13.2-3.6-18.2c-3.6-7.8-9.6-13.1-17.9-15.9c-3.8-1.2-5-1.4-11.7-1.6
			C521.9,72.9,518.7,73.1,516.5,73.6z"/>
		
			<linearGradient id="region-2-5_00000151540286291009356770000012114703741888214414_" gradientUnits="userSpaceOnUse" x1="-1666.575" y1="-76.6357" x2="-1666.0723" y2="-77.1349" gradientTransform="matrix(193.033 0 0 -212.3769 321877.3125 -16193.8926)">
			<stop  offset="0" style="stop-color:#7D9200;stop-opacity:0.626"/>
			<stop  offset="1" style="stop-color:#7F9918;stop-opacity:0.844"/>
		</linearGradient>
		<path id="region-2-5" style="fill:url(#region-2-5_00000151540286291009356770000012114703741888214414_);" d="M189.1,76.3
			c-7.4,1.8-10.7,9.5-10.7,24.7c0,13.5,3.1,24.3,9.3,32.4c1.4,1.8,2.8,3.8,3.1,4.4c0.9,1.5,0.8,4.3-0.4,9.4
			c-2.7,12.5-1.4,19,5.1,25.4c3.7,3.7,9.5,6.8,15.2,8.1c1.9,0.4,4.3,1,5.3,1.4c2.6,0.8,13.2,0.2,15.9-0.8c5.1-1.9,9.1-6.4,15.1-16.5
			c4.6-7.9,8.7-11.9,14.9-14.5c5.8-2.4,9-5.1,11.2-9.6c2.1-4.4,2.5-10,0.9-14.3c-0.6-1.6-1.2-2.9-1.5-2.9c-0.2,0-1.1,0.8-2.1,1.8
			c-1,1.1-3.8,2.8-6.7,4.2c-6.3,3-8.7,5.4-13.8,13.9c-4.2,7-7.2,10.3-10.8,12.1c-2.2,1.1-3.1,1.2-8.4,1.2c-7-0.1-10.9-0.9-17.1-3.8
			c-4.8-2.2-8.1-5.5-10.1-9.8c-1.1-2.5-1.3-3.5-1.2-7.4c0-2.5,0.4-6.1,0.9-7.9c0.4-1.9,0.8-4.5,0.8-5.8c0-2.5-0.1-2.7-3.9-8
			c-4.6-6.5-6.6-13.3-6.9-23.6c-0.2-3.7-0.1-8.1,0.2-9.9c0.2-1.7,0.3-3.4,0.1-3.6C193,76.2,190.8,75.9,189.1,76.3z"/>
		
			<linearGradient id="region-2-6_00000123409826451986157140000001095985510711627148_" gradientUnits="userSpaceOnUse" x1="-1670.0417" y1="-76.383" x2="-1670.0417" y2="-76.8825" gradientTransform="matrix(270.8015 0 0 -220.6125 452774.3125 -16767.0195)">
			<stop  offset="0" style="stop-color:#798D00;stop-opacity:0.771"/>
			<stop  offset="1" style="stop-color:#7D9518;stop-opacity:0.806"/>
		</linearGradient>
		<path id="region-2-6" style="fill:url(#region-2-6_00000123409826451986157140000001095985510711627148_);" d="M498.3,85.3
			c-4.1,4.4-9.1,15.4-11.2,24.8c-1.4,6.6-1.9,7.7-3.8,10.3c-1.6,2.2-4.2,3.8-8.3,4.8c-4.1,1.1-7.2,3-10.4,6.2
			c-5,5.2-7.7,13.5-7.8,23.2c0,9.7,2.4,14.5,9.8,20c2,1.4,4.6,3.9,5.8,5.4c6.8,8.2,12.4,12,20.1,13.6c11.2,2.3,25.6-0.8,35-7.5
			c1.3-0.9,2.5-1.7,2.7-1.7c0.1,0,1.6-0.9,3.3-2.1c4-2.6,6.5-3,16.6-2.6c15.1,0.6,27.1-2,33.8-7.3c2.6-2.1,5.8-7,6.9-11
			c1.3-4.1,1.8-11.6,1.1-16.5c-0.3-2.1-0.8-5.6-1.1-7.7c-0.6-5-2-8.1-4.5-10.5c-1.1-1.1-2.1-1.9-2.2-1.7c-0.1,0.1,0,1.9,0.2,4
			c2.1,17.9-3.4,28-17.1,31.2c-4.3,1-12.1,0.9-21.9-0.2c-16-1.9-23.4-0.6-32.5,6c-4.8,3.5-8.2,5-11.4,5c-3.7,0-5.7-1.1-8.1-4.3
			c-2.2-2.9-3.5-3.8-7.4-4.7s-6.2-2.9-8.2-6.8c-1.4-2.8-1.7-4-1.8-7.8c-0.2-2.5,0-5.9,0.4-7.5c1.1-5.8,3.2-8.5,8.2-10.3
			c4.9-1.9,6.4-2.9,9.9-6.5c4.6-4.9,7.8-9.7,8.5-13c0.5-2.6,0.4-3-1.5-8.8c-2.5-7.1-2.9-10-2.2-14c0.3-1.6,0.5-3,0.4-3.1
			C499.6,84,499,84.5,498.3,85.3z"/>
		
			<linearGradient id="region-2-7_00000015326966740520270540000017450449599132624830_" gradientUnits="userSpaceOnUse" x1="-1662.0538" y1="-99.5901" x2="-1662.0538" y2="-100.0898" gradientTransform="matrix(124.7877 0 0 -37.9087 207728.4062 -3678.9084)">
			<stop  offset="0" style="stop-color:#FFFFFF;stop-opacity:0.816"/>
			<stop  offset="1" style="stop-color:#FFFFFF;stop-opacity:0.828"/>
		</linearGradient>
		<path id="region-2-7" style="fill:url(#region-2-7_00000015326966740520270540000017450449599132624830_);" d="M325.1,96.8
			c-2.7,0.7-5.2,2.1-7,4.1c-1.6,1.8-1.9,1.9-4.7,1.9c-3.7,0-7,1.5-9.2,4.2c-1.3,1.6-1.9,2-3.4,2c-2.4,0-5,1.4-6.4,3.5
			c-2.2,3.2-4.1,3,30.1,3h31.2v-1.6c-0.1-3.7-3.1-7.7-6.8-8.9c-1.8-0.6-5-0.5-6.8,0.2c-0.5,0.2-0.9,0-1.3-0.8
			c-1.9-4-7.9-7.9-12.1-7.8C327.6,96.5,326,96.6,325.1,96.8z"/>
		
			<linearGradient id="region-2-8_00000035502502882316853150000016954202562256242072_" gradientUnits="userSpaceOnUse" x1="-1660.0415" y1="-78.667" x2="-1660.0415" y2="-79.167" gradientTransform="matrix(105.1873 0 0 -146.532 174991.6094 -11416.2217)">
			<stop  offset="0" style="stop-color:#687400;stop-opacity:0.695"/>
			<stop  offset="1" style="stop-color:#666F00;stop-opacity:0.825"/>
		</linearGradient>
		<path id="region-2-8" style="fill:url(#region-2-8_00000035502502882316853150000016954202562256242072_);" d="M377.6,111.1
			c-0.2,0.1-1.1,0.3-1.9,0.4c-2.2,0.5-5.2,3.7-7.4,7.8c-1.5,2.8-2.6,4.2-4.4,5.6c-3,2.2-5.2,5.2-6.8,8.9c-1,2.6-1.1,3.6-1.2,12.4
			c0,5.2,0,9.9-0.1,10.4c-0.1,0.4-1.4,2.2-2.9,3.9l-2.8,3l0.3,4.1c0.5,5.6,1.6,9.2,3.4,11l1.5,1.5l5.1-0.3c2.8-0.1,8.3-0.4,12.2-0.6
			l7.1-0.3l3.9,2.9c3.8,2.8,3.9,2.8,6.6,2.6c1.5-0.2,3.7-0.7,4.8-1.2c3-1.6,5.9-5.2,6.9-8.5c1.3-4.6,0.8-7.2-2.8-13.8
			c-2.9-5.4-3-5.9-3-9.2c0-2.8,0.4-4.8,2-9.5c1.4-4.1,2-6.8,2-8.8c0-1.9,0.2-2.8,0.5-2.6c1,0.6-8.8-11.1-11.6-13.9
			C385.7,113.2,379.9,110.5,377.6,111.1z"/>
		
			<linearGradient id="region-2-9_00000105412122308282337200000004456559080693842611_" gradientUnits="userSpaceOnUse" x1="-1663.349" y1="-80.0178" x2="-1662.6503" y2="-80.2109" gradientTransform="matrix(130.4372 0 0 -123.2164 217304.2969 -9710.5)">
			<stop  offset="0" style="stop-color:#596903;stop-opacity:0.787"/>
			<stop  offset="1" style="stop-color:#515E00;stop-opacity:0.819"/>
		</linearGradient>
		<path id="region-2-9" style="fill:url(#region-2-9_00000105412122308282337200000004456559080693842611_);" d="M400.4,133.2
			c0,2-0.6,4.6-2,8.8c-1.6,4.7-2,6.7-2,9.5c0,3.3,0.1,3.8,3,9.2c3.5,6.6,4.1,9.2,2.8,13.8c-1,3.3-3.9,6.9-6.9,8.5
			c-1.1,0.5-3.3,1.1-4.8,1.2c-2.8,0.2-2.9,0.1-6.6-2.6l-3.9-2.9l-7.1,0.3c-4,0.2-9.5,0.5-12.2,0.6l-5.1,0.3l-1.5-1.5
			c-1.8-1.8-2.9-5.4-3.4-11l-0.3-4.2l-1.2,1.1c-1.9,1.8-2.4,5.2-1.4,9.2c1,4.3,2.5,6.9,5.4,9.6c5.9,5.4,17.8,8.7,31.6,8.8
			c5.7,0,7-0.1,10.5-1.2c11.2-3.7,17.2-10.5,17.2-19.5c0-5.4-0.6-7-4.3-10.9c-4.3-4.6-4.5-5.6-2.9-11.2c1.6-5.4,1.5-9.3-0.4-13.4
			c-1.1-2.3-3.5-5.4-4.1-5.4C400.5,130.4,400.4,131.7,400.4,133.2z"/>
		
			<linearGradient id="region-2-10_00000023967963488914800540000003831054037164644787_" gradientUnits="userSpaceOnUse" x1="-1668.2437" y1="-81.8979" x2="-1668.1338" y2="-82.5146" gradientTransform="matrix(197.5 0 0 -93.9328 330022.5 -7514.5151)">
			<stop  offset="0" style="stop-color:#90B12A;stop-opacity:0.569"/>
			<stop  offset="1" style="stop-color:#8CA400;stop-opacity:0.789"/>
		</linearGradient>
		<path id="region-2-10" style="fill:url(#region-2-10_00000023967963488914800540000003831054037164644787_);" d="M553.9,181.7
			c-1.3,0.4-3.5,2.8-4.5,4.6c-2.1,4.1-4,12.9-5,22.8c-0.3,3.3-0.6,7.2-0.8,8.7l-0.3,2.7l-1.5-1.5c-4.2-4-6.9-3.2-6.9,2.1v1.6l-1.3-2
			c-2.3-3.5-4.2-5.2-5.8-5.2c-1.1,0-1.5,0.3-1.8,1.4c-0.3,1.3,0.8,7.6,1.6,9.8c0.2,0.6-0.8,0.1-3.6-1.5c-4.8-2.9-11.5-5.2-14.4-5
			l-2,0.1v2.3c0,1.5,0.4,2.9,1.1,4.1l1.2,1.9l20.8-0.4c11.5-0.2,33.1-0.4,48.2-0.4h27.3v-14.9c0-13.5-0.1-15-0.8-14.7
			c-0.5,0.2-1.4,0.3-2.2,0.3c-1.2,0-1.6,0.4-3.1,3.4c-1,1.9-2.4,5.3-3.2,7.6l-1.4,4.2l-0.6-2.4c-0.3-1.4-0.8-3.1-1.1-3.8
			c-0.6-1.5-3-3.8-4.4-4.2c-1.8-0.5-4.2,1.5-5.4,4.4c-0.7,1.4-1.4,3.1-1.7,3.9c-0.5,1.2-0.5,1.2-0.5-0.6c-0.1-2.9-1.1-7.5-2.1-9.5
			s-2.4-2.8-3.8-2c-1.4,0.7-3.8,5.6-5.4,10.8l-1.4,4.4l-0.9-6c-2.1-14.8-6.2-24.4-11.3-26.5C555.3,181.3,555,181.3,553.9,181.7z"/>
		
			<linearGradient id="region-2-11_00000096055733533268281720000014026771159682274980_" gradientUnits="userSpaceOnUse" x1="-1664.3225" y1="-81.4453" x2="-1664.3225" y2="-81.9453" gradientTransform="matrix(160.6856 0 0 -98.1757 267639.375 -7810.9673)">
			<stop  offset="0" style="stop-color:#697500;stop-opacity:0.641"/>
			<stop  offset="1" style="stop-color:#697501;stop-opacity:0.822"/>
		</linearGradient>
		<path id="region-2-11" style="fill:url(#region-2-11_00000096055733533268281720000014026771159682274980_);" d="M181.2,185.8
			c-2.2,2.4-3.6,13.5-3.1,24.7c0.1,3.5,0.2,6.4,0.1,6.4c-0.1,0-0.9-1.2-1.9-2.6c-3.6-5.5-8.3-9.1-9.5-7.3c-0.9,1.3,0.7,9.6,2.1,10.9
			c0.6,0.6,8.6,2.8,23.3,6.4c20.5,5,25.4,6.2,37.3,8.9l3.9,0.9l2.1-1.4c7.4-4.9,11.4-9.1,11.4-12.3c0-1.6-0.2-2-1.2-2.5
			c-2-0.9-6.5,0.1-13,3l-5.7,2.5l-1.1-1.2c-1.3-1.4-2.9-1.5-5-0.4c-0.9,0.4-1.6,0.7-1.7,0.6c-0.1-0.1,0-1.2,0.3-2.6
			c0.5-2.5,0.2-4-0.6-5.1c-0.8-1-2.9,0.5-5.4,3.5c-1.2,1.6-2.2,2.8-2.4,2.8c-0.1,0-0.1-1.4,0.1-3c0.5-4-0.1-9-1.2-10.5
			c-2.1-2.8-4.8,0.1-7.4,7.8c-1.1,3.1-1.4,3.7-1.7,3c-0.2-0.6-1.4-3.7-2.8-7c-4.8-12.3-10.3-22.7-13.5-25.2
			C182.9,184.6,182.3,184.6,181.2,185.8z"/>
		
			<linearGradient id="region-2-12_00000014636016554620682580000001389353875537916553_" gradientUnits="userSpaceOnUse" x1="-1671.7892" y1="-81.5943" x2="-1671.7546" y2="-82.2709" gradientTransform="matrix(430.5432 0 0 -96.3197 720166.625 -7672.4053)">
			<stop  offset="0" style="stop-color:#667200;stop-opacity:0.642"/>
			<stop  offset="1" style="stop-color:#677100;stop-opacity:0.858"/>
		</linearGradient>
		<path id="region-2-12" style="fill:url(#region-2-12_00000014636016554620682580000001389353875537916553_);" d="M333.3,189
			c-4,2.6-6.8,12-7.3,24.6l-0.4,7l-1.4-3c-3.1-6.5-6.2-7.9-9.6-4.2c-1,1.1-2.2,3-2.7,4l-0.9,1.9l-2.2-2.2
			c-5.3-5.5-11.2-9.3-14.5-9.4c-3.8-0.1-5.2,3.1-4.8,10.7c0.5,6.4,0.7,8.1,2,13.2l1.1,4.4l4.7-0.1c2.6,0,10.7-0.3,18-0.5
			c7.3-0.3,19.5-0.7,27.2-1c13-0.5,19.9-0.7,51.2-2c6.4-0.2,18.9-0.7,27.5-1s21.2-0.8,28-1c6.8-0.3,21.4-0.8,32.5-1.1
			c14.2-0.3,20.4-0.7,20.9-1.1c1-1.1,2.3-7,1.9-9c-0.9-4.9-4.5-4.5-10.2,1l-2.4,2.4l-0.2-5.8c-0.5-8.8-2.2-13.9-5.6-16.9
			c-2.6-2.4-4-2.2-7.2,1.2c-3.3,3.4-6.6,9.8-10.2,19.9c-0.3,0.8-0.6,0.4-1.5-1.9c-0.6-1.6-1.4-3.2-1.8-3.6c-1.6-1.9-3.9,0-6.7,5.2
			l-1.7,3.2l-1.7-3.4c-0.9-1.9-2.6-4.4-3.8-5.6c-1.8-1.9-2.5-2.2-3.8-2c-1.9,0.2-3.4,2.1-4.6,6c-0.5,1.5-1,3-1.1,3.4
			s-0.8-1.1-1.5-3.5c-1.8-6-4-10.2-7.6-14.1c-6.3-6.8-11.8-7.2-17.5-1.3c-2.5,2.6-5.5,7.3-7.2,11.1c-0.6,1.5-1.3,2.8-1.5,2.8
			c-0.1,0-0.5-0.6-0.9-1.4c-0.9-2.1-4-6.1-5.1-6.7c-1.8-0.9-5.4,2.3-8.7,7.9c-0.6,0.9-1.1,1.6-1.4,1.6s-2.1,1.2-4.4,2.7l-3.9,2.7
			l-1.1-2.9c-2-5.5-4-5.8-7.9-1.1c-2.8,3.4-3.3,3.7-2.6,1.5c0.8-2.7,0.6-7.3-0.4-9c-0.9-1.4-3.4-2.9-4.8-2.9c-1,0-4.1,2.1-5.6,3.9
			c-0.6,0.8-2.1,2.9-3.1,4.9c-1,1.9-1.9,3.2-2,3c-0.1-0.3-0.6-2.8-1.2-5.6c-2.9-14.6-7.7-24.7-13.1-27.5
			C338.7,187.5,335.3,187.7,333.3,189z"/>
		
			<linearGradient id="region-2-13_00000057867166988386463980000007513597314588514998_" gradientUnits="userSpaceOnUse" x1="-1673.7151" y1="-77.1968" x2="-1673.6101" y2="-78.1463" gradientTransform="matrix(886 0 0 -169.5567 1483260 -12901.6738)">
			<stop  offset="0" style="stop-color:#757F24;stop-opacity:0.425"/>
			<stop  offset="1" style="stop-color:#72901F;stop-opacity:0.569"/>
		</linearGradient>
		<path id="region-2-13" style="fill:url(#region-2-13_00000057867166988386463980000007513597314588514998_);" d="M269.5,192.4
			c-3.4,2-7.1,9.9-10.1,21.4c-0.5,1.9-0.7,2.1-1.9,1.8c-2.7-0.5-4.5,3.4-4.9,10.7c-0.1,2.5-0.4,4.6-0.5,4.6s-0.9-0.8-1.7-1.8
			c-2.9-3.2-4.4-2.1-4.9,3.4c-0.3,4.2,0.7,4-8.8,2.1c-12.5-2.5-26-5.7-49-11.6c-10.2-2.6-19.8-4.8-21.4-5l-2.9-0.3v27.8v27.8
			l6.8,0.4c3.8,0.1,9.6,0.5,12.9,0.8c21.6,1.6,48.5,1.8,83.8,0.5c23.6-0.9,99.9-0.4,120.8,0.8c18.6,1,27.7,0.8,64-1.2
			c11.8-0.7,45-2.9,54.2-3.6c4-0.2,10.3-0.7,14-0.9c3.7-0.2,7.6-0.6,8.5-0.8c1-0.1,5.8-0.5,10.8-0.8c15.4-0.9,15-0.8,15.9-2.8
			c1.5-3,3.8-3.2,7.8-0.6l2.2,1.5l2.1-1c2.1-1,2.2-1.1,3-4.9c1.8-7.9,4.5-11.6,8.8-11.6c5.2,0,9.2,5,10.3,13.2l0.4,2.4l1.8-0.3
			c1-0.1,4.8-0.4,8.5-0.6l6.6-0.3v-17.6v-17.6l-6.8-0.3c-17.6-0.9-96.1,0.5-149.6,2.6c-7.3,0.2-20.2,0.8-28.8,1
			c-8.5,0.3-20.8,0.8-27.2,1c-32.1,1.4-38.3,1.6-51.2,2c-7.7,0.3-20,0.7-27.2,1c-7.3,0.2-15.4,0.5-18,0.5l-4.8,0.1l-1.2-5.2
			c-0.6-2.8-1.4-5.5-1.5-6c-0.2-0.4-0.9-2.5-1.5-4.6c-3.2-11.4-10.4-25.5-14.1-27.9C272.2,191.1,271.5,191.1,269.5,192.4z"/>
		
			<linearGradient id="region-2-14_00000014594407799089620860000012560423140009632940_" gradientUnits="userSpaceOnUse" x1="-1666.0936" y1="-81.9334" x2="-1666.0419" y2="-82.4825" gradientTransform="matrix(152 0 0 -87.2805 253810 -6904.1304)">
			<stop  offset="0" style="stop-color:#575F1E;stop-opacity:0.511"/>
			<stop  offset="1" style="stop-color:#5B6323;stop-opacity:0.578"/>
		</linearGradient>
		<path id="region-2-14" style="fill:url(#region-2-14_00000014594407799089620860000012560423140009632940_);" d="M574.8,250.2
			c-2,1.7-3.7,5.3-4.8,10.2c-0.8,3.8-0.8,3.9-3,4.9l-2.1,1l-2.2-1.5c-5.2-3.4-8-1.9-8.7,4.6c-0.3,2.7-0.3,2.8-1.8,2.5
			c-1.9-0.4-3.2,0.9-4,3.7l-0.5,2.1h-4.6c-6,0-9.2,0.9-11.2,3.2c-1.2,1.4-1.6,2.2-1.6,3.9c0,1.2,0.2,2.4,0.4,2.8
			c0.2,0.3,5.1,1.5,10.9,2.7l10.4,2l15-0.3c14.7-0.2,23.4-1,30.9-2.6c2-0.4,4.7-0.8,6-0.8h2.3v-12.8V263l-6.6,0.3
			c-3.7,0.2-7.5,0.5-8.5,0.6l-1.8,0.3l-0.4-2.4c-0.8-5.6-3.3-10.3-6.4-12.2C580.3,248.4,576.8,248.5,574.8,250.2z"/>
		
			<linearGradient id="region-2-15_00000129171257857367054540000007545767310828596608_" gradientUnits="userSpaceOnUse" x1="-1613.792" y1="-135.2823" x2="-1613.2214" y2="-135.5626" gradientTransform="matrix(29.3 0 0 -13.8987 47460.8008 -1602.1509)">
			<stop  offset="0" style="stop-color:#DFC6D8;stop-opacity:0.739"/>
			<stop  offset="1" style="stop-color:#E6C9E1;stop-opacity:0.772"/>
		</linearGradient>
		<path id="region-2-15" style="fill:url(#region-2-15_00000129171257857367054540000007545767310828596608_);" d="M182.1,277.3
			c-1.9,0.9-3.7,3.3-3.7,5c0,0.5,7.1,1.1,12.2,1.1h2.4l-0.4-1.6c-0.4-2-2-3.8-4.1-4.7C186.4,276.1,184.5,276.2,182.1,277.3z"/>
		
			<linearGradient id="region-2-16_00000107566312479613244350000004692436304689600428_" gradientUnits="userSpaceOnUse" x1="-1527.6504" y1="-218.9009" x2="-1527.6504" y2="-219.4009" gradientTransform="matrix(12.1402 0 0 -6 18753.834 -1036.5)">
			<stop  offset="0" style="stop-color:#DEC7D6;stop-opacity:0.782"/>
			<stop  offset="1" style="stop-color:#E1C8D9;stop-opacity:0.795"/>
		</linearGradient>
		<path id="region-2-16" style="fill:url(#region-2-16_00000107566312479613244350000004692436304689600428_);" d="M206,277.7
			c-2.1,1.5-1.4,2.2,1.9,2.2c2.3,0,3-0.1,3-0.7c0-0.9-1.9-2.3-3-2.3C207.4,276.9,206.6,277.2,206,277.7z"/>
		
			<linearGradient id="region-2-17_00000113338443567852054900000004058795088047983775_" gradientUnits="userSpaceOnUse" x1="-1598.0111" y1="-162.6489" x2="-1597.4491" y2="-162.9639" gradientTransform="matrix(21.9 0 0 -9.7082 35288.4023 -1300.3519)">
			<stop  offset="0" style="stop-color:#D8C6CC;stop-opacity:0.774"/>
			<stop  offset="1" style="stop-color:#E0C9D4;stop-opacity:0.805"/>
		</linearGradient>
		<path id="region-2-17" style="fill:url(#region-2-17_00000113338443567852054900000004058795088047983775_);" d="M296.1,277.8
			c-1.3,0.6-2.7,2.5-2.7,3.7c0,0.8,0.5,0.9,5.4,0.9h5.5l-0.5-1.5c-0.3-0.8-0.9-1.9-1.4-2.3C301.3,277.6,297.6,277.2,296.1,277.8z"/>
		
			<linearGradient id="region-2-18_00000150089162055909839820000008103173003973510028_" gradientUnits="userSpaceOnUse" x1="-1643.2985" y1="-96.7545" x2="-1643.2985" y2="-97.2545" gradientTransform="matrix(47.935 0 0 -35 79231.0625 -3109)">
			<stop  offset="0" style="stop-color:#271804;stop-opacity:0.251"/>
			<stop  offset="1" style="stop-color:#241302;stop-opacity:0.314"/>
		</linearGradient>
		<path id="region-2-18" style="fill:url(#region-2-18_00000150089162055909839820000008103173003973510028_);" d="M452.8,278.4
			c-0.3,0.6-0.4,3.1-0.3,6.5c0,3,0.1,5.4,0.1,5.4s-0.8-0.3-1.5-0.8c-0.8-0.4-1.9-0.8-2.5-0.8c-1,0-1.1,0.3-1.1,1.5
			c0,0.9,0.4,2.2,0.8,3l0.8,1.5h10h9.9l1.1-2.4c0.6-1.3,1.2-3.2,1.4-4.2c0.2-1.8,0.2-1.9-1.2-1.9c-0.9,0-2.2,0.6-3.4,1.6
			c-1.9,1.5-1.9,1.6-1.6,0.4c0.1-0.7,0.5-2.6,0.9-4.3c1.4-7.1-1.8-5.8-5.2,2.2c-0.5,1.2-1.1,2-1.3,1.8c-0.2-0.2-0.9-2-1.5-3.9
			c-1.1-3.3-3.1-6.7-4-6.7C453.6,277.4,453.2,277.8,452.8,278.4z"/>
		
			<linearGradient id="region-2-19_00000096757779356191677680000011881565826223293602_" gradientUnits="userSpaceOnUse" x1="-1635.0562" y1="-98.2547" x2="-1635.0562" y2="-98.7547" gradientTransform="matrix(43.3437 0 0 -33 71119.0859 -2964)">
			<stop  offset="0" style="stop-color:#281A04;stop-opacity:0.262"/>
			<stop  offset="1" style="stop-color:#261603;stop-opacity:0.324"/>
		</linearGradient>
		<path id="region-2-19" style="fill:url(#region-2-19_00000096757779356191677680000011881565826223293602_);" d="M247.8,279.5
			c-0.3,0.6-0.7,3.2-0.8,5.8c-0.1,2.5-0.3,4.6-0.6,4.5c-0.1-0.1-1.4-0.8-2.8-1.5c-1.4-0.8-3-1.5-3.6-1.6c-1.8-0.6-1.4,1,1.1,4.8
			l2.2,3.3h7.1c6.8,0,7.1,0,8.8-1.3c1.8-1.4,1.8-2.2-0.2-2.2c-1.1,0-1.2-0.1-0.9-1.4c0.2-0.8,0.4-2.4,0.4-3.6
			c0.1-3.4-1.2-3.2-3.9,0.5l-2.2,3.1v-2c0-4.6-1.7-9.6-3.2-9.6C248.7,278.4,248.1,278.9,247.8,279.5z"/>
		
			<linearGradient id="region-2-20_00000106826712807593907080000004270523394679169202_" gradientUnits="userSpaceOnUse" x1="-1618.5742" y1="-139.1543" x2="-1618.2136" y2="-139.7926" gradientTransform="matrix(29.1393 0 0 -13.0247 47495.4648 -1532.7859)">
			<stop  offset="0" style="stop-color:#0A1264;stop-opacity:0.569"/>
			<stop  offset="1" style="stop-color:#020868;stop-opacity:0.609"/>
		</linearGradient>
		<path id="region-2-20" style="fill:url(#region-2-20_00000106826712807593907080000004270523394679169202_);" d="M333.5,280.9
			c-1.6,0.9-3.1,3.3-3.1,4.7c0,0.7,1,0.8,7.2,0.8c8.1,0,8.2-0.1,6.2-3.4C342,280,336.7,278.9,333.5,280.9z"/>
		
			<linearGradient id="region-2-21_00000107563085536571046120000015880966343674423172_" gradientUnits="userSpaceOnUse" x1="-1554.9668" y1="-194.639" x2="-1554.9668" y2="-195.139" gradientTransform="matrix(14.9602 0 0 -7.1299 23462.3359 -1104.448)">
			<stop  offset="0" style="stop-color:#384A5C;stop-opacity:0.802"/>
			<stop  offset="1" style="stop-color:#3B4E5B;stop-opacity:0.798"/>
		</linearGradient>
		<path id="region-2-21" style="fill:url(#region-2-21_00000107563085536571046120000015880966343674423172_);" d="M196.7,284.5
			c-1.4,2.1-1.1,2.4,3,2.4c3.3,0,3.8-0.1,3.8-0.9C203.4,283.4,198.2,282.3,196.7,284.5z"/>
		
			<linearGradient id="region-2-22_00000114069515203696866830000011619203251689697982_" gradientUnits="userSpaceOnUse" x1="-1610.2894" y1="-151.5774" x2="-1609.8583" y2="-152.1557" gradientTransform="matrix(22.8482 0 0 -10.9128 37293.582 -1366.6829)">
			<stop  offset="0" style="stop-color:#020966;stop-opacity:0.545"/>
			<stop  offset="1" style="stop-color:#000468;stop-opacity:0.58"/>
		</linearGradient>
		<path id="region-2-22" style="fill:url(#region-2-22_00000114069515203696866830000011619203251689697982_);" d="M505,287.9
			c-1.8,0.5-3.6,2.6-3.6,4c0,0.8,0.4,0.9,5.8,0.9c6.3,0,6.4-0.1,4.8-2.8c-0.6-1-1.6-1.8-2.9-2.1c-1-0.3-2-0.6-2.1-0.5
			C506.7,287.4,505.9,287.7,505,287.9z"/>
	</g>
	<g id="layer-3">
		
			<linearGradient id="region-3-1_00000013886571152071587200000012672758875822896290_" gradientUnits="userSpaceOnUse" x1="-1664.5358" y1="-75.4365" x2="-1663.6649" y2="-75.8715" gradientTransform="matrix(131.6813 0 0 -276.5884 219675.9844 -20769.6387)">
			<stop  offset="0" style="stop-color:#633332;stop-opacity:0.75"/>
			<stop  offset="1" style="stop-color:#5B2A00;stop-opacity:0.852"/>
		</linearGradient>
		<path id="region-3-1" style="fill:url(#region-3-1_00000013886571152071587200000012672758875822896290_);" d="M550.6,84.5
			c-0.1,0.3-0.4,2.8-0.7,5.4c-0.5,4.3-2.5,15-2.8,15.4c0,0.1-0.5-0.9-0.9-2.2c-1-2.7-4.7-9.1-5.2-9.1c-0.2,0,0.3,1.8,1.3,4
			c2.2,5.1,3.5,11.8,2.6,14.4c-1,3-4.3,9-9.2,16.1c-2.5,3.7-5,7.5-5.4,8.4l-0.9,1.7l-3-5.5c-1.7-3-4.1-7.2-5.5-9.4
			c-2.5-4-3.9-8.8-4-12.6c0-0.8-0.1-2.3-0.3-3.2c-0.3-1.3-0.5-0.6-0.6,3l-0.2,4.7l-3-4.2c-1.6-2.4-3.4-4.7-3.9-5.2
			c-1.2-1-1.1-0.8,1.6,3.4c1.9,2.9,8,13.7,7.9,13.9c-0.1,0-1.5-0.2-3.3-0.6c-5.1-1-7-1.2-7-0.8c0,0.2,0.8,0.5,1.6,0.8
			c0.9,0.2,3.5,0.9,5.8,1.5l4.2,1.2l4,8.4c3.7,7.7,4,8.8,4.7,13.4c0.4,2.8,0.7,5.8,0.7,6.6v1.6l-1.8-0.8c-4-1.6-10-2.8-16.8-3
			c-7.4-0.4-7.5-0.4-10.4-4c-1.6-2.1-1.7-1.1,0,1.5l1.4,2.4l-2.3-0.3c-1.3-0.1-3.2-0.3-4.2-0.5c-1.8-0.2-2.6,0.5-1.2,1
			c0.3,0.1-0.2,0.4-1.2,0.6c-3.6,0.7-1.9,1,4.8,0.9c7-0.2,16.6,0.8,22,2.1c1.6,0.4,4.5,1.5,6.5,2.4l3.7,1.7l0.3,10.4
			c0.2,5.8,0.2,18.5,0.1,28.3c-0.2,17.4-0.2,17.8,0.8,18.8c0.5,0.5,1.8,2,2.7,3.4c1.7,2.5,1.7,2.5,1.7,0.9c0-5.3,2.6-6.1,6.8-2.1
			l1.5,1.4l0.3-1.9c0.6-3.5,0.3-5.8-1.2-10.5c-4.8-14.9-8.8-37.7-9-52.2c-0.1-4.5,0-5,1.3-7c3.5-5.2,11.6-12.2,16.7-14.4
			c1.5-0.6,2.2-1.5,1.2-1.5c-0.2,0-2.9,1.2-5.9,2.7c-3.6,1.8-6.8,3.9-9.4,6.1l-4,3.4l0.3-2.2c1.1-7,10.4-17.2,20.2-22.1
			c1.5-0.8,2.6-1.4,2.5-1.6c-0.4-0.3-5.4,1.6-9.2,3.5l-3.6,1.8l1.7-4c2.2-5.1,3.6-9.6,4.8-15.5C551.3,98.2,552,80.3,550.6,84.5z"/>
		
			<linearGradient id="region-3-2_00000044174975800099406770000014969276873858451123_" gradientUnits="userSpaceOnUse" x1="-1658.9595" y1="-75.4278" x2="-1658.702" y2="-75.9356" gradientTransform="matrix(106.3798 0 0 -270.1 176692.25 -20301.6484)">
			<stop  offset="0" style="stop-color:#61342A;stop-opacity:0.74"/>
			<stop  offset="1" style="stop-color:#5E2E00;stop-opacity:0.859"/>
		</linearGradient>
		<path id="region-3-2" style="fill:url(#region-3-2_00000044174975800099406770000014969276873858451123_);" d="M220.1,91.8v5.9
			l-3.3,10c-1.9,5.5-3.4,10.4-3.6,11c-0.1,0.7-1-0.6-2.8-4.2c-2.6-5.2-8-14.1-9.1-14.8c-0.4-0.2-0.1,0.6,0.7,1.8
			c2.7,4.3,7.7,15.1,8.9,19.1c0.9,3,1.4,5.7,1.6,10.1c0.1,3.3,0.6,9.1,0.9,13c0.4,3.9,0.7,13.5,0.7,21.5c0,12.6-0.2,16.2-1.5,27.5
			c-0.9,8-1.4,15.9-1.5,20.6v7.6l1.5-1.9c1.6-2,3.6-4.1,4.8-4.9c0.6-0.5,0.7-5.2,0.4-36.8c-0.2-20-0.4-36.9-0.7-37.6
			c-0.3-1.2-0.1-1.5,2.6-3.6c7.7-6,20.2-10.1,33.7-10.9c1.8-0.1,1.3-0.2-2-0.6l-4.1-0.4l1.8-1c2.7-1.6,2.1-2-0.8-0.6
			c-1.4,0.6-3.9,1.5-5.3,1.9c-2.4,0.7-2.6,0.7-2.1-0.1c0.8-1.6,1.5-4.6,1-4.6c-0.2,0-0.4,0.3-0.4,0.6s-0.7,1.7-1.5,3l-1.4,2.2
			L233,127c-5.4,1.4-11.1,3.7-14.1,5.8c-0.9,0.6-1.6,0.9-1.9,0.6s-0.6-3.1-0.8-6.4l-0.3-6l2.8-11.5c1.6-6.3,2.9-12.6,3.1-14
			c0.3-2.6-0.6-9.8-1.2-9.8C220.3,85.9,220.1,88.5,220.1,91.8z"/>
		
			<linearGradient id="region-3-3_00000163071149330565595650000005644842288799051411_" gradientUnits="userSpaceOnUse" x1="-1644.5604" y1="-77.6588" x2="-1642.9989" y2="-77.9057" gradientTransform="matrix(52 0 0 -171.1679 85882 -13122.1963)">
			<stop  offset="0" style="stop-color:#6D4B35;stop-opacity:0.742"/>
			<stop  offset="1" style="stop-color:#5B2800;stop-opacity:0.878"/>
		</linearGradient>
		<path id="region-3-3" style="fill:url(#region-3-3_00000163071149330565595650000005644842288799051411_);" d="M389.2,141.5
			c-0.2,1.4-0.6,3.8-0.9,5.3l-0.6,2.6l-1.4-2.9c-0.8-1.6-1.9-3.5-2.5-4.1c-0.8-1-0.6-0.5,0.5,2c1.1,2.1,1.6,4.2,1.9,6.2
			c0.2,3.6-0.1,4.6-5.4,12.5l-3.4,5.2l-2.7-4.6c-3.8-6.8-3.9-6.9-4.4-10.7l-0.4-3.4l-0.1,3v3l-1.6-2.4c-2.6-4-2.5-2.6,0.1,1.8
			c1.4,2.3,2.5,4.3,2.5,4.5c0,0.4-1.2,0.2-3.6-0.5c-0.5-0.1-0.9,0-0.9,0.2s1.2,0.8,2.6,1.1l2.6,0.8l2.6,5.3l2.7,5.2l0.6,16.2
			c0.4,8.9,0.8,19.1,0.8,22.5c0,5.6,0.1,6.4,1,7.2c0.5,0.5,1.5,2.2,2,3.8l1.1,3l1.4-1.1c0.8-0.5,1.5-1.4,1.5-1.9s-0.9-7.1-2-14.9
			c-1.1-7.6-2.4-17.6-2.9-22.2l-0.8-8.4l1.4-2.1c1.6-2.4,4.6-4.9,8-7c1.4-0.8,1.9-1.3,1.2-1.1c-2.5,0.6-6.1,2.8-8.4,4.9l-2.2,2.1
			l0.3-1.6c0.8-3.8,6.1-9.9,10.8-12c0.9-0.5,1.6-1,1.6-1.2c0-0.5-1.6,0.1-4.5,1.6c-1.1,0.5-2,0.9-2,0.9c0-0.1,0.5-1.6,1.2-3.3
			c1.6-4,2.6-8.2,3-13.7C390.5,138.5,389.7,137,389.2,141.5z"/>
		
			<linearGradient id="region-3-4_00000113339738552561550250000003768040314800400270_" gradientUnits="userSpaceOnUse" x1="-1657.125" y1="-82.1807" x2="-1657.125" y2="-82.6807" gradientTransform="matrix(94.3798 0 0 -90.7974 156667.9375 -7270.3823)">
			<stop  offset="0" style="stop-color:#AAE17F;stop-opacity:0.556"/>
			<stop  offset="1" style="stop-color:#ACDD54;stop-opacity:0.408"/>
		</linearGradient>
		<path id="region-3-4" style="fill:url(#region-3-4_00000113339738552561550250000003768040314800400270_);" d="M269.5,192.4
			c-3.4,2-7.1,9.9-10.1,21.4c-0.5,1.9-0.7,2.1-1.9,1.8c-2.7-0.5-4.5,3.4-4.9,10.7c-0.1,2.5-0.4,4.6-0.5,4.6s-0.9-0.8-1.7-1.8
			c-2.9-3.2-4.4-2.1-4.9,3.4l-0.3,3.8l3.8,0.4c4.3,0.4,42.9,0,43.4-0.5c0.3-0.4-1.7-10-2.4-11.4c-0.2-0.4-0.9-2.5-1.5-4.6
			c-3.2-11.4-10.4-25.5-14.1-27.9C272.2,191.1,271.5,191.1,269.5,192.4z"/>
		
			<linearGradient id="region-3-5_00000139998485209479282070000000653233239488224393_" gradientUnits="userSpaceOnUse" x1="-1655.3892" y1="-91.5508" x2="-1655.3392" y2="-92.1008" gradientTransform="matrix(83 0 0 -45.7277 137725 -3943.7856)">
			<stop  offset="0" style="stop-color:#200A29;stop-opacity:0.127"/>
			<stop  offset="1" style="stop-color:#1F062D;stop-opacity:0.167"/>
		</linearGradient>
		<path id="region-3-5" style="fill:url(#region-3-5_00000139998485209479282070000000653233239488224393_);" d="M332.6,244.6
			c-1.2,1.9-3.1,7.5-3.8,11.7c-0.3,2-0.8,3.6-0.9,3.6s-0.8-1.9-1.4-4.1c-1.4-5-4.1-10.6-5.2-10.8c-1.2-0.2-1.9,2-2.5,9l-0.6,6.6
			l-2.8-1.6c-3.4-2-5.5-2.2-5.5-0.5c0,0.6,0.9,2.6,1.9,4.4l2,3.2l17.2,0.1l17.2,0.1l1.5-1.8c0.9-1,1.6-2.1,1.6-2.5
			c0-1.2-1.9-1.9-4.8-1.5c-3,0.4-3.1,0.2-1.9-2.4c0.9-2.2,0.9-4.8,0.1-5.2c-1.2-0.4-3.4,0.8-6.2,3.4l-2.7,2.6v-6.5
			c0-6.3-0.5-8.6-1.9-9C333.7,243.4,333.1,243.9,332.6,244.6z"/>
		
			<linearGradient id="region-3-6_00000001664626255720529190000013164498297742106508_" gradientUnits="userSpaceOnUse" x1="-1663.0106" y1="-85.815" x2="-1662.77" y2="-86.4869" gradientTransform="matrix(142 0 0 -63.9777 236326 -5248.0239)">
			<stop  offset="0" style="stop-color:#474B2A;stop-opacity:0.236"/>
			<stop  offset="1" style="stop-color:#4D4E30;stop-opacity:0.297"/>
		</linearGradient>
		<path id="region-3-6" style="fill:url(#region-3-6_00000001664626255720529190000013164498297742106508_);" d="M189.2,245.3
			c-2.4,2.6-3.4,6.8-3.7,16c-0.2,7.8-0.2,8.1-1.1,7c-1.9-2.9-3.8-4.9-4.6-4.9c-1.1,0-2.2,1.8-2.6,4.1l-0.4,1.9l-2.2-2
			c-4.3-4-6.2-3.3-6.2,2.2v3.6l1.6,0.2c0.9,0.2,4.5,0.4,8.1,0.6s9.5,0.5,13.2,0.8c10.1,0.6,48,1.2,48,0.6c-0.1-0.8-1.8-2.6-3.5-3.5
			c-1.4-0.8-2.8-0.9-6.9-0.9h-5.1v-2.4c0-2.9-1.2-5.9-2.2-5.9s-3.5,2.5-4.7,4.7l-0.8,1.6l-0.6-3.8c-0.9-5.1-2-8-3.4-8.6
			c-1.1-0.5-1.4-0.4-2.7,0.8c-0.8,0.8-2,2.7-2.6,4.2c-2.6,6-2.4,5.5-2.4,3.8c-0.1-4.5-2.8-13.8-5-17.4
			C196.6,243.8,191.9,242.5,189.2,245.3z"/>
		
			<linearGradient id="region-3-7_00000150098388060106896610000000902969234805141403_" gradientUnits="userSpaceOnUse" x1="-1624.8298" y1="-136.9835" x2="-1624.6921" y2="-137.6199" gradientTransform="matrix(31.2 0 0 -13.8877 51110 -1651.3452)">
			<stop  offset="0" style="stop-color:#040E7A;stop-opacity:0.498"/>
			<stop  offset="1" style="stop-color:#00087F;stop-opacity:0.534"/>
		</linearGradient>
		<path id="region-3-7" style="fill:url(#region-3-7_00000150098388060106896610000000902969234805141403_);" d="M415,252.3
			c-2.2,1-3.4,2.4-3.9,4.7l-0.4,1.4h7.8c7.1,0,7.8-0.1,7.8-0.9c0-1.7-2-4.2-4.1-5.1C419.6,251.1,417.7,251.1,415,252.3z"/>
		
			<linearGradient id="region-3-8_00000026151295144038226300000017870051660901301132_" gradientUnits="userSpaceOnUse" x1="-1634.3392" y1="-110.5728" x2="-1633.7727" y2="-110.6446" gradientTransform="matrix(33.9041 0 0 -23.1 55999.3633 -2286.1489)">
			<stop  offset="0" style="stop-color:#98C246;stop-opacity:0.757"/>
			<stop  offset="1" style="stop-color:#A3CE50;stop-opacity:0.802"/>
		</linearGradient>
		<path id="region-3-8" style="fill:url(#region-3-8_00000026151295144038226300000017870051660901301132_);" d="M594.2,263.9
			c-2.5,0.2-4.5,0.5-4.7,0.6c-0.1,0.1-0.2,1.6-0.1,3.4l0.1,3l1.8-2.6c3.4-5.1,6.2-5,6.2,0.2c0,1.5-0.2,3.5-0.4,4.5l-0.4,1.9l2.5-2.5
			c2.2-2.4,2.6-2.5,4.8-2.5h2.3v-3.2v-3.2h-3.8C600.4,263.5,596.6,263.7,594.2,263.9z"/>
	</g>
</g>
<linearGradient id="region-2-2_00000147218724878288071500000007860390064093594771_" gradientUnits="userSpaceOnUse" x1="-1665.3511" y1="-77.9687" x2="-1665.3511" y2="-78.469" gradientTransform="matrix(158.7196 0 0 -172.9672 264397.5625 -13388.1641)">
	<stop  offset="0" style="stop-color:#88A700;stop-opacity:0.629"/>
	<stop  offset="1" style="stop-color:#83990B;stop-opacity:0.824"/>
</linearGradient>
<path id="region-2-2_00000147899910236339616670000010460224489108887217_" style="fill:url(#region-2-2_00000147218724878288071500000007860390064093594771_);" d="
	M62.7,98.1c-3.2,0.5-4.2,1.1-8.4,5.2c-4.1,4-6.4,5-9.4,4.5c-1.8-0.3-8.1-2.5-9.6-3.2c-1-0.5-1.2,1.6-1.2,12c0,10.9,2,18.2,6.8,25
	c3.8,5.4,3.9,5.6,3.9,8.1c0,1.3-0.4,3.8-0.8,5.8c-0.4,1.8-0.9,5.4-0.9,7.9c-0.1,3.9,0.2,4.9,1.2,7.4c2,4.3,5.4,7.6,10.1,9.8
	c6.1,2.9,10.1,3.8,17.1,3.8c5.3,0,6.2-0.2,8.4-1.2c3.6-1.8,6.6-5.2,10.8-12.1c5-8.5,7.5-11,13.5-13.8c4.5-2.2,9.9-6.3,9-6.9
	c-0.2-0.1-1.2-1.5-2.1-3c-2.5-4.4-7.2-9.9-10.6-12.5c-1.7-1.2-5.6-3.5-8.6-4.9c-8.5-4.1-10.4-6.7-13.5-19.3
	c-2-7.9-3.5-11.1-5.6-11.9C70.9,97.9,65.4,97.6,62.7,98.1z"/>
<linearGradient id="region-2-4_00000087370260294122097930000009810752639953469078_" gradientUnits="userSpaceOnUse" x1="-1668.0782" y1="-77.1454" x2="-1667.7611" y2="-77.6951" gradientTransform="matrix(217.6419 0 0 -195.6974 363716.9375 -15007.5723)">
	<stop  offset="0" style="stop-color:#829B00;stop-opacity:0.698"/>
	<stop  offset="1" style="stop-color:#839D0C;stop-opacity:0.825"/>
</linearGradient>
<path id="region-2-4_00000032633660240387280140000013901314389870161850_" style="fill:url(#region-2-4_00000087370260294122097930000009810752639953469078_);" d="
	M705.1,94.7c-3.7,0.8-7.8,2.6-10.7,4.7c-2.2,1.6-7.6,6.3-6.5,5.8c0.5-0.2,0.5,0.1,0.2,1.9c-0.8,4.7-0.4,8.4,1.8,14.9
	c2.1,6,2.2,6.4,1.6,9c-0.7,3.3-3.8,8.1-8.5,13c-3.5,3.6-5,4.7-9.9,6.5c-5,1.9-7.1,4.5-8.2,10.3c-0.3,1.7-0.5,5.1-0.4,7.5
	c0.3,8,3.9,13.2,10,14.6c3.8,0.9,5.1,1.8,7.3,4.7c2.5,3.2,4.5,4.3,8.1,4.3c3.2,0,6.6-1.5,11.4-5c9.1-6.6,16.5-7.9,32.5-6
	c17.6,2.1,25.9,0.8,32.9-5.2c2.8-2.4,5.3-7.6,6.1-12.4c0.7-3.8,0.4-13.6-0.4-16.6c-0.7-2.4-4.8-3.8-12.5-4.2
	c-6.6-0.4-7.7-0.8-9.8-3.8c-0.9-1.1-1.1-2.4-1.4-8.9c-0.4-8.1-1.4-13.2-3.6-18.2c-3.6-7.8-9.6-13.1-17.9-15.9
	c-3.8-1.2-5-1.4-11.7-1.6C710.5,94,707.3,94.2,705.1,94.7z"/>
<linearGradient id="region-2-5_00000173882821902697512900000009008817046918052752_" gradientUnits="userSpaceOnUse" x1="-1667.3972" y1="-76.7651" x2="-1666.8947" y2="-77.2645" gradientTransform="matrix(193.033 0 0 -212.3769 321877.3125 -16193.8926)">
	<stop  offset="0" style="stop-color:#7D9200;stop-opacity:0.626"/>
	<stop  offset="1" style="stop-color:#7F9918;stop-opacity:0.844"/>
</linearGradient>
<path id="region-2-5_00000094601163794345150530000003489741010479670972_" style="fill:url(#region-2-5_00000173882821902697512900000009008817046918052752_);" d="
	M30.3,103.9c-7.4,1.8-10.7,9.5-10.7,24.7c0.1,13.5,3.2,24.3,9.3,32.4c1.3,1.8,2.8,3.8,3.1,4.3c0.8,1.6,0.8,4.3-0.3,9.4
	c-2.7,12.6-1.4,19,5,25.4c3.7,3.6,9.5,6.8,15.2,8.1c1.9,0.4,4.3,1.1,5.3,1.3c2.6,0.8,13.1,0.2,15.9-0.8c5.1-1.9,9.1-6.4,15.1-16.6
	c4.6-7.9,8.7-11.9,14.9-14.4c5.8-2.4,8.9-5.2,11.2-9.7c2.2-4.4,2.6-10,0.9-14.3c-0.6-1.5-1.2-2.8-1.5-2.8c-0.2,0-1.1,0.8-2.1,1.8
	s-3.8,2.8-6.7,4.2c-6.3,3.1-8.7,5.4-13.8,13.9c-4.2,6.9-7.2,10.3-10.8,12.1c-2.2,1-3.1,1.2-8.5,1.2c-7-0.1-10.9-0.9-17.1-3.8
	c-4.8-2.2-8.1-5.5-10.1-9.9c-1.1-2.4-1.3-3.5-1.2-7.3c0-2.5,0.4-6.1,0.8-7.9c0.5-1.9,0.8-4.4,0.8-5.8c0-2.4-0.1-2.6-3.8-8
	c-4.6-6.4-6.6-13.3-7-23.6c-0.1-3.7-0.1-8.1,0.2-9.8c0.2-1.7,0.3-3.3,0.2-3.6C34.2,103.8,32,103.5,30.3,103.9z"/>
<linearGradient id="region-2-6_00000103945758054570997710000011729673467635203740_" gradientUnits="userSpaceOnUse" x1="-1669.3469" y1="-76.4759" x2="-1669.3469" y2="-76.9754" gradientTransform="matrix(270.8015 0 0 -220.6125 452774.3125 -16767.0195)">
	<stop  offset="0" style="stop-color:#798D00;stop-opacity:0.771"/>
	<stop  offset="1" style="stop-color:#7D9518;stop-opacity:0.806"/>
</linearGradient>
<path id="region-2-6_00000137116082037362099930000011823867648930742458_" style="fill:url(#region-2-6_00000103945758054570997710000011729673467635203740_);" d="
	M686.5,105.9c-4.2,4.4-9.2,15.4-11.2,24.8c-1.5,6.6-1.9,7.7-3.8,10.3c-1.6,2.2-4.2,3.8-8.3,4.8c-4,1.1-7.2,3-10.4,6.2
	c-4.9,5.2-7.7,13.5-7.8,23.2c0,9.7,2.4,14.5,9.8,20c2,1.4,4.6,3.9,5.8,5.4c6.8,8.2,12.4,12,20,13.6c11.2,2.3,25.6-0.8,35-7.5
	c1.3-0.9,2.5-1.7,2.7-1.7c0.1,0,1.6-0.9,3.3-2.1c4-2.6,6.5-3,16.6-2.6c15.1,0.6,27.1-2,33.8-7.3c2.6-2.1,5.8-7,6.9-11
	c1.3-4.1,1.8-11.6,1.1-16.5c-0.3-2.1-0.8-5.6-1.1-7.7c-0.6-5-2-8.1-4.5-10.5c-1.1-1.1-2.1-1.9-2.2-1.7c-0.1,0.1,0,1.9,0.2,4
	c2.1,17.9-3.4,28-17.1,31.2c-4.3,1-12.1,0.9-21.9-0.2c-16-1.9-23.4-0.6-32.5,6c-4.8,3.5-8.2,5-11.4,5c-3.7,0-5.7-1.1-8.1-4.3
	c-2.2-2.9-3.5-3.8-7.3-4.7c-3.9-0.9-6.2-2.9-8.2-6.8c-1.4-2.8-1.7-4-1.8-7.8c-0.2-2.5,0-5.9,0.4-7.5c1.2-5.8,3.2-8.5,8.2-10.3
	c4.9-1.9,6.5-2.9,9.9-6.5c4.7-4.9,7.8-9.7,8.5-13c0.5-2.6,0.5-3-1.5-8.8c-2.5-7.1-2.9-10-2.2-14c0.3-1.6,0.5-3,0.4-3.1
	C687.8,104.6,687.2,105.1,686.5,105.9z"/>
<linearGradient id="region-3-1_00000018216519572686633960000001908720280292313264_" gradientUnits="userSpaceOnUse" x1="-1663.2003" y1="-75.9229" x2="-1662.3293" y2="-76.3579" gradientTransform="matrix(131.6813 0 0 -276.5884 219675.9844 -20769.6387)">
	<stop  offset="0" style="stop-color:#633332;stop-opacity:0.75"/>
	<stop  offset="1" style="stop-color:#5B2A00;stop-opacity:0.852"/>
</linearGradient>
<path id="region-3-1_00000039109955808993010870000004611036443947215750_" style="fill:url(#region-3-1_00000018216519572686633960000001908720280292313264_);" d="
	M726.6,219c-0.1,0.3-0.4,2.8-0.7,5.4c-0.5,4.3-2.5,15-2.8,15.4c0,0.1-0.5-0.9-1-2.2c-1-2.7-4.6-9.1-5.2-9.1c-0.2,0,0.4,1.8,1.3,4
	c2.2,5.1,3.5,11.8,2.7,14.4c-1,3-4.3,9-9.2,16.1c-2.5,3.7-5,7.5-5.5,8.4l-0.8,1.7l-3-5.5c-1.7-3-4.1-7.2-5.5-9.4
	c-2.5-4-3.9-8.8-4-12.6c0-0.8-0.2-2.3-0.3-3.2c-0.3-1.3-0.5-0.6-0.7,3l-0.2,4.7l-3-4.2c-1.6-2.4-3.4-4.7-4-5.2c-1.1-1-1-0.8,1.6,3.4
	c1.8,2.9,8,13.7,7.8,13.9c0,0-1.5-0.2-3.3-0.6c-5.2-1-7-1.2-7-0.8c0,0.2,0.8,0.5,1.7,0.8c0.8,0.2,3.5,0.9,5.8,1.5l4.1,1.2l4.1,8.4
	c3.7,7.7,4,8.8,4.6,13.4c0.4,2.7,0.7,5.7,0.7,6.6v1.6l-1.8-0.8c-4-1.6-10-2.8-16.8-3c-7.4-0.3-7.6-0.4-10.4-4
	c-1.6-2.1-1.7-1.1,0,1.5l1.5,2.3l-2.4-0.3c-1.3-0.1-3.2-0.3-4.2-0.5c-1.8-0.2-2.7,0.5-1.2,1c0.3,0.1-0.2,0.4-1.2,0.6
	c-3.6,0.7-1.9,1,4.8,0.9c7-0.2,16.5,0.8,22,2.1c1.6,0.4,4.5,1.5,6.5,2.5l3.7,1.7l0.3,10.4c0.2,5.8,0.2,18.5,0.1,28.3
	c-0.2,17.5-0.2,17.8,0.8,18.8c0.6,0.5,1.8,2,2.7,3.4c1.7,2.5,1.7,2.5,1.7,1c0-5.3,2.6-6.1,6.8-2.1l1.5,1.5l0.3-1.9
	c0.6-3.5,0.3-5.8-1.2-10.5c-4.8-14.9-8.8-37.7-9-52.2c-0.2-4.5,0-5,1.3-7c3.5-5.2,11.6-12.2,16.7-14.4c1.4-0.6,2.2-1.5,1.2-1.5
	c-0.2,0-2.8,1.2-5.8,2.7c-3.6,1.8-6.8,3.9-9.5,6.1l-4,3.4l0.4-2.2c1.1-7,10.3-17.2,20.2-22.1c1.5-0.8,2.6-1.4,2.5-1.6
	c-0.4-0.3-5.4,1.6-9.2,3.5l-3.6,1.8l1.7-4c2.2-5.1,3.5-9.6,4.8-15.5C727.3,232.7,727.9,214.8,726.6,219z"/>
<linearGradient id="region-3-2_00000073719960293325451680000003377759146438288789_" gradientUnits="userSpaceOnUse" x1="-1660.3157" y1="-75.9267" x2="-1660.0583" y2="-76.4345" gradientTransform="matrix(106.3798 0 0 -270.1 176692.25 -20301.6484)">
	<stop  offset="0" style="stop-color:#61342A;stop-opacity:0.74"/>
	<stop  offset="1" style="stop-color:#5E2E00;stop-opacity:0.859"/>
</linearGradient>
<path id="region-3-2_00000163053468267664708060000011189161661054737815_" style="fill:url(#region-3-2_00000073719960293325451680000003377759146438288789_);" d="
	M75.8,226.5v5.9l-3.3,10c-1.8,5.5-3.4,10.4-3.5,11c-0.2,0.7-1-0.7-2.8-4.2c-2.6-5.2-8-14.1-9.2-14.8c-0.3-0.2,0,0.6,0.7,1.8
	c2.7,4.3,7.7,15,9,19.1c0.9,3,1.3,5.7,1.5,10.1c0.2,3.3,0.6,9.1,0.9,13s0.7,13.5,0.7,21.5c0,12.6-0.2,16.2-1.4,27.5
	c-0.9,8-1.5,15.9-1.5,20.6l-0.1,7.6l1.5-1.9c1.6-2,3.6-4.1,4.8-4.9c0.7-0.5,0.7-5.2,0.4-36.8c-0.1-20-0.4-36.9-0.6-37.6
	c-0.4-1.2-0.1-1.5,2.5-3.6c7.7-6,20.2-10.1,33.7-10.9c1.8-0.1,1.3-0.2-1.9-0.6l-4.2-0.4l1.8-1c2.7-1.6,2.2-2-0.8-0.6
	c-1.5,0.6-3.8,1.5-5.3,1.9c-2.4,0.7-2.6,0.7-2.2-0.1c0.8-1.6,1.5-4.6,1-4.6c-0.2,0-0.4,0.3-0.4,0.6c0,0.4-0.7,1.7-1.4,3l-1.5,2.2
	l-5.5,1.4c-5.5,1.4-11.2,3.7-14.2,5.8c-0.8,0.6-1.7,0.9-1.9,0.6s-0.6-3.1-0.8-6.4l-0.3-6l2.8-11.4c1.6-6.3,3-12.6,3.1-14.1
	c0.3-2.6-0.6-9.8-1.2-9.8C76,220.6,75.8,223.2,75.8,226.5z"/>
<rect x="174.8" y="63.9" class="st41" width="106" height="160.2"/>
<g>
	<g>
		<line class="st42" x1="143.7" y1="154.8" x2="186.3" y2="154.8"/>
		<g>
			<polygon class="st43" points="127.7,154.8 150.3,171.1 145,154.8 150.3,138.5 			"/>
		</g>
	</g>
</g>
<rect x="447.9" y="63.9" class="st41" width="149.5" height="160.2"/>
<g>
	<g>
		<line class="st42" x1="624.7" y1="149.9" x2="580.9" y2="149.9"/>
		<g>
			<polygon class="st43" points="641.1,149.9 617.9,166.2 623.4,149.9 617.9,133.6 			"/>
		</g>
	</g>
</g>
</svg>
