<?xml version="1.0" encoding="utf-8"?>
<!-- Generator: Adobe Illustrator 26.5.0, SVG Export Plug-In . SVG Version: 6.00 Build 0)  -->
<svg version="1.1" id="图层_1" xmlns="http://www.w3.org/2000/svg" xmlns:xlink="http://www.w3.org/1999/xlink" x="0px" y="0px"
	 viewBox="0 0 1599.8 400.2" style="enable-background:new 0 0 1599.8 400.2;" xml:space="preserve">
<style type="text/css">
	.st0{fill:none;}
	.st1{fill:#D3D3D3;}
	.st2{fill:url(#SVGID_1_);}
	.st3{fill:url(#ad45fd15-8b5f-4805-b5bf-fd33bfc6cf24_00000036953851950234809140000015121288571741322931_);}
	.st4{fill:url(#e706419a-3bd5-4aac-bfac-b33050d9ad12_00000026865057501819050140000012641079075920271002_);}
	.st5{fill:url(#a2c3390f-d10b-4ce5-b18e-91ea02708b63_00000107569586271813718410000007748689485203357087_);}
	.st6{fill:url(#a3daba71-4953-47af-83a2-43899380bca5_00000096762861708688489040000009958244982935286662_);}
	.st7{fill:url(#b313e006-4590-4db4-93f6-dc6d132057b8_00000107555922724105184550000018341063815953572788_);}
	.st8{fill:url(#acdfa4fc-4553-4735-bbad-fb898d5e6f3c_00000165923853004076674620000000955954100376833699_);}
	.st9{fill:url(#b556376d-a8da-4176-b74f-d7ea859efec6_00000178177049962564399260000007983359075630834871_);}
	.st10{fill:url(#abc4aa61-6fdc-4ded-9fc9-dc8a76da539e_00000057147223194985478440000011220775349217655450_);}
	.st11{fill:url(#acb72ce8-ab97-428e-bf73-e266e8de753a_00000056393477393102601020000009487932381279323016_);}
	.st12{fill:url(#SVGID_00000028298245351327726320000008820592047611946914_);}
	.st13{fill:url(#ba75795e-8879-46b7-b141-963b1c1712c1_00000074441711694740639650000007105548372560564634_);}
	.st14{fill:url(#e9117974-497d-4e45-8c93-5b192788a4b0_00000013900731922217561730000005954422620697592754_);}
	.st15{fill:url(#adfdaec0-ab12-4225-98d6-43331992a1e7_00000182525611580655114620000011161518584678555818_);}
	.st16{fill:url(#SVGID_00000144312107415564322850000007773979647771909299_);}
	
		.st17{fill:url(#a032c44f-980d-4103-9f98-ead4402adb13_00000106124554621080820810000002774489055960972692_);stroke:#231815;stroke-miterlimit:10;}
	
		.st18{fill:url(#a0cdd9a5-d48a-4327-b507-d663c3690f19_00000169534927564074267270000016321650591590881186_);stroke:#231815;stroke-miterlimit:10;}
	
		.st19{fill:url(#ba4be479-55e1-401a-bb0b-8f51dec9f9dd_00000167386874327928663100000007277006653957626789_);stroke:#231815;stroke-miterlimit:10;}
	
		.st20{fill:url(#a7c0ce0e-5a18-45f6-a521-34d58b54c4cd_00000140716713553052205830000002888499637429957764_);stroke:#231815;stroke-miterlimit:10;}
	
		.st21{fill:url(#e8698845-f9b9-4369-b161-dca305c09e0e_00000176744502388219117430000018385923150415840438_);stroke:#231815;stroke-miterlimit:10;}
	.st22{fill:url(#SVGID_00000158019939468436783370000015283739309973626794_);}
	.st23{fill:url(#af8c4ca6-1abc-482a-a198-70a5fc3fc996_00000178206500319519900580000002337436008543346095_);}
	.st24{fill:none;stroke:#231815;stroke-width:4;stroke-miterlimit:10;}
</style>
<pattern  y="400.2" width="40" height="40" patternUnits="userSpaceOnUse" id="e1469826-7d76-4ccf-a677-6704cd3" viewBox="0 -40 40 40" style="overflow:visible;">
	<g>
		<rect y="-40" class="st0" width="40" height="40"/>
		<rect y="-40" class="st0" width="40" height="40"/>
		<rect y="-40" class="st1" width="20" height="20"/>
		<rect x="20" y="-20" class="st1" width="20" height="20"/>
	</g>
</pattern>
<g id="eb8066eb-be6c-4d79-ae4a-faf54c63eeb0">
	<pattern  id="SVGID_1_" xlink:href="#e1469826-7d76-4ccf-a677-6704cd3" patternTransform="matrix(1 0 0 1 48 298)">
	</pattern>
	<rect x="400" class="st2" width="0" height="400"/>
	<g id="b48929b6-6710-4f4e-8215-f096ecbd124c">
		
			<linearGradient id="ad45fd15-8b5f-4805-b5bf-fd33bfc6cf24_00000050641678953704421140000011605722908046058666_" gradientUnits="userSpaceOnUse" x1="-1681.0336" y1="153.7173" x2="-1680.0336" y2="153.5473" gradientTransform="matrix(242.18 0 0 318.62 407144.8438 -48748.4961)">
			<stop  offset="0" style="stop-color:#EC6747;stop-opacity:0.99"/>
			<stop  offset="1" style="stop-color:#661115"/>
		</linearGradient>
		
			<path id="ad45fd15-8b5f-4805-b5bf-fd33bfc6cf24" style="fill:url(#ad45fd15-8b5f-4805-b5bf-fd33bfc6cf24_00000050641678953704421140000011605722908046058666_);" d="
			M237,52.5c23,1.4,28.8,2.2,31.5,4.5c1,0.8,1.4,5.9,1.4,21.6l0.1,20.5l-3,3.4c-1.9,2.1-2.8,4.1-2.5,5.3c0.4,1.6-0.2,2-3.3,2.6
			c-5.4,0.9-6.4,1.8-7.4,6.6c-1.4,6.2-0.2,12.1,3.1,15.7c2.3,2.4,4,3.2,8.6,3.8c8.1,1,8.4,1.2,7.4,4.6c-0.6,1.8-1.4,3.6-2.4,5.1
			c-0.9,1.3-1.6,4.3-1.6,7.4c0,6.3-3.4,42.9-5.5,59c-1.5,11.7-5.1,32.2-8,45.5c-0.8,3.6-1.6,8.2-1.9,10.2c-0.4,2.4-1.2,4.6-2.5,6.6
			c-3.8,5.3-2.5,7.1,5.1,7.1c2.4,0,3.7,0.4,3.4,1s-4.7,1-9.7,1c-12.1,0-14.9,1.4-18.8,9.3c-3.2,6.4-3.8,11.9-1.9,16.2
			c1,2.3,1.8,2.5,6.5,2.5c3.6,0,5.3,0.4,5.3,1.2c-0.6,3-1.4,5.9-2.4,8.8c-1.2,3.8-2.2,7.6-2.8,11.5c-0.2,2.1-0.7,4.2-1.6,6.1
			c-0.7,1.3-1.1,2.7-1.2,4.1c0,8.1-11.3,18.2-20.4,18.2c-1.9,0-3.6,0.5-3.8,1s-1.7,1.2-3.3,1.5s-5.2,0.9-8,1.5
			c-9.4,2.1-23,3.1-44.5,3.1c-32.6,0.1-57.8-3-73.6-9.1c-3.4-1.2-6.6-2.7-9.8-4.3c-1.6-1.2-7.6-17.8-15-41.7
			C47,289.2,38.9,245.1,37,217.9c-0.5-7.9-1.7-21.3-2.4-29.9c-2.5-26.9-3.8-65.1-3.2-97.8c0.5-30.6,0.6-31.5,2.7-33.8
			c1.4-1.4,3-2.6,4.8-3.4C46.4,50,189,49.6,237,52.5"/>
		
			<linearGradient id="e706419a-3bd5-4aac-bfac-b33050d9ad12_00000103255249383424538220000017562548663421722559_" gradientUnits="userSpaceOnUse" x1="-1673.4075" y1="155.2466" x2="-1672.4075" y2="154.7166" gradientTransform="matrix(115.61 0 0 148.88 193724.3125 -22901.6621)">
			<stop  offset="0" style="stop-color:#C1A49B"/>
			<stop  offset="1" style="stop-color:#834D44"/>
		</linearGradient>
		
			<path id="e706419a-3bd5-4aac-bfac-b33050d9ad12" style="fill:url(#e706419a-3bd5-4aac-bfac-b33050d9ad12_00000103255249383424538220000017562548663421722559_);" d="
			M279,104.5c2.6,0.6,5.1,1.5,7.5,2.5c3.3,1.4,6.6,2.5,10,3.5c12.1,3.3,23.9,7.9,35,13.8c7.7,3.9,14.5,7.6,15.1,8.1s3.9,2.9,7.2,5.3
			c7.8,5.6,11.1,9.8,17.1,21.9c7.8,15.7,9.6,22.7,9.4,36.4c-0.4,17.3-2.5,26.7-9.4,40.5c-4.3,8.7-7.1,12.5-9.1,12.5
			c-2.2,0-2.3-3.3-0.2-5c0.7-0.5,1.3-1.3,1.5-2.2c0.4-1.3,1-2.5,1.8-3.6c1.9-3.4,3.4-6.9,4.7-10.6c2.5-6.9,2.9-9.7,3.2-21.2
			c0.3-11.3,0.1-14.4-1.8-21c-1.2-4.3-2.8-8.4-3.5-9.2c-1.5-1.7-7.5-14-7.5-15.5c0-2-8.6-12.4-14-17c-9.8-8.4-30.1-20.2-41.5-24.1
			c-7.8-2.7-29.1-7.8-34.1-8.2c-4.5-0.4-5.2-0.7-5.6-2.9c-0.3-1.7,0.3-3.4,1.9-5.3l2.4-2.9l3.2,1.8C274.4,103.1,276.7,104,279,104.5
			"/>
		
			<linearGradient id="a2c3390f-d10b-4ce5-b18e-91ea02708b63_00000147185828736852501260000014322929539356122504_" gradientUnits="userSpaceOnUse" x1="-1675.345" y1="154.3603" x2="-1676.345" y2="154.3403" gradientTransform="matrix(144.81 0 0 201.68 242980.75 -30916.5625)">
			<stop  offset="0" style="stop-color:#E45F49"/>
			<stop  offset="1" style="stop-color:#A82E24"/>
		</linearGradient>
		
			<path id="a2c3390f-d10b-4ce5-b18e-91ea02708b63" style="fill:url(#a2c3390f-d10b-4ce5-b18e-91ea02708b63_00000147185828736852501260000014322929539356122504_);" d="
			M278,112.5c2.5,0.8,8.5,2.3,13.5,3.4c13.4,3.1,18.8,5.2,29.5,11.1s19.5,11.8,25,16.4s14,15,14,17c0,1.5,6,13.8,7.5,15.5
			c0.7,0.8,2.3,5,3.5,9.2c1.8,6.6,2.1,9.7,1.8,21c-0.3,11.5-0.8,14.3-3.2,21.2c-1.2,3.7-2.8,7.2-4.7,10.6c-0.8,1.1-1.4,2.3-1.8,3.6
			c-0.2,0.8-0.7,1.6-1.4,2.1c-1,1.1-1.7,2.4-1.9,3.9c-0.7,3.6-14.8,18.6-23.5,25c-13.6,10-36.6,21.3-57.2,28.1
			c-19.2,6.2-22.6,7.3-29,8.7c-3.6,0.8-6.8,1.8-7.2,2.2s-3.4,0.6-6.6,0.4c-5.2-0.3-6.1-0.6-7.1-2.8c-1.9-4.2-1.3-9.7,1.9-16.1
			c3.9-7.9,6.7-9.3,18.8-9.3c5,0,9.3-0.5,9.7-1s-1-1-3.4-1c-8.6,0-9.1-2-2.5-10.9c0.1-0.2,1.8,0.6,3.6,1.7c3,1.8,4.6,2,14.3,1.7
			c11.8-0.4,19.2-1.9,33.5-6.5c3.5-1.2,7.1-2.2,10.7-3c3.1,0,16-9.6,24.8-18.4c13.2-13.2,17.5-22.6,19-41c0.6-7.1,0.3-9.5-1.5-15.7
			c-5.2-17.2-15.3-31.1-28.1-38.8s-28-12-44.4-12.7c-17.7-0.7-25.7-2.3-28.8-5.9c-2.5-2.9-4.2-9.8-3.3-13.2c0.3-1,0.7-2.9,1.1-4.4
			c0.4-1.7,1.7-3.1,3.3-3.7C261.1,109.9,271.8,110.7,278,112.5"/>
	</g>
	<g id="bfbf7abe-f4da-447e-9278-b7d9c8bf7b62">
		
			<linearGradient id="a3daba71-4953-47af-83a2-43899380bca5_00000107547293128122700760000007281747078211880330_" gradientUnits="userSpaceOnUse" x1="-1678.8171" y1="190.4186" x2="-1681.9072" y2="189.4186" gradientTransform="matrix(237.07 0 0 9.9 398517.3125 -1824.4497)">
			<stop  offset="0" style="stop-color:#FAD9A2;stop-opacity:0.87"/>
			<stop  offset="1" style="stop-color:#040000;stop-opacity:0.71"/>
		</linearGradient>
		
			<path id="a3daba71-4953-47af-83a2-43899380bca5" style="fill:url(#a3daba71-4953-47af-83a2-43899380bca5_00000107547293128122700760000007281747078211880330_);" d="
			M237,52.5c23.8,1.5,29.9,2.4,31.9,4.8c0.9,1.1-3.1,1.5-24.1,2.2c-32.6,1.2-143.4,1.1-182.5,0L32,58.7l2.1-2.3
			c1.4-1.4,3-2.5,4.8-3.3C46.5,50,189.1,49.6,237,52.5"/>
		
			<linearGradient id="b313e006-4590-4db4-93f6-dc6d132057b8_00000049206582170187517680000007120189141093540028_" gradientUnits="userSpaceOnUse" x1="-1664.1797" y1="154.5542" x2="-1665.1797" y2="152.7842" gradientTransform="matrix(74.33 0 0 301.81 123844.0234 -46189.5273)">
			<stop  offset="0" style="stop-color:#FFFFFF;stop-opacity:0.18"/>
			<stop  offset="1" style="stop-color:#EF8273"/>
		</linearGradient>
		
			<path id="b313e006-4590-4db4-93f6-dc6d132057b8" style="fill:url(#b313e006-4590-4db4-93f6-dc6d132057b8_00000049206582170187517680000007120189141093540028_);" d="
			M105.7,60.7l29.2,0.7l-0.6,35.1c-0.9,53.1-1,64-0.4,64.6c0.3,0.3,0.3,6.4,0,13.5c-0.9,20.9,0.2,89.2,2,123
			c0.6,11,1.3,25.1,1.6,31.2l0.6,11.2h-2.4c-1.9,0.3-3.6,1.2-4.9,2.6c-2.1,2.2-2.4,3.4-2.1,8.9c0.2,4.1-0.2,6.6-1,7.3
			c-2.4,1.9-9.8,2.3-19,1.2c-8-1-9.6-1.5-11.5-3.8c-3.2-3.7-3.8-4.5-4-5.4c-0.1-0.4-1.1-3.2-2.2-6.2c-1-2.7-1.9-5.4-2.5-8.2
			c-0.3-1.5-1.6-7.9-3-14.2s-3.9-18.9-5.6-28s-3.3-17.2-3.6-18c-0.4-1.6-0.7-3.3-0.9-5c-0.2-1.9-0.6-5.3-0.9-7.5s-0.8-6.5-1.1-9.5
			c-0.1-2.4-0.5-4.7-1-7c-0.5-2-0.8-4-0.9-6c-0.2-2.5-0.8-8.6-1.4-13.5s-1.3-11.7-1.5-15S67.6,199.1,67,190s-1.5-19.1-1.9-22.3
			s-0.9-29-1-57.4l-0.2-51.6l6.3,0.6C73.7,59.7,89.7,60.3,105.7,60.7"/>
		
			<linearGradient id="acdfa4fc-4553-4735-bbad-fb898d5e6f3c_00000124868815232441212380000005327092324551852719_" gradientUnits="userSpaceOnUse" x1="-1618.7975" y1="155.6898" x2="-1619.7975" y2="154.9398" gradientTransform="matrix(24.74 0 0 133.01 40323.0586 -20453.7988)">
			<stop  offset="0" style="stop-color:#978982;stop-opacity:0.86"/>
			<stop  offset="1" style="stop-color:#89564F;stop-opacity:0.66"/>
		</linearGradient>
		
			<path id="acdfa4fc-4553-4735-bbad-fb898d5e6f3c" style="fill:url(#acdfa4fc-4553-4735-bbad-fb898d5e6f3c_00000124868815232441212380000005327092324551852719_);" d="
			M272.6,137.7c1.5,0.6,0.4,5.1-2,8.5c-0.9,1.3-1.6,4.3-1.6,7.4c0,6.3-3.4,42.9-5.5,59c-2.8,21.9-9.6,55.7-11.3,56.2
			c-0.6,0.2-1.8-0.7-2.7-2c-1.4-2.2-1.4-3.2,0.4-12.3c5.9-30,11.8-71.7,12.7-89.4c0.3-5.8,1-11.8,1.5-13.4c0.8-2.5,0.6-3.2-1.5-5
			c-2.5-2.1-2.9-3.1-2.7-7.9l0.1-2.9l5.7,0.7C268,136.8,270.3,137.2,272.6,137.7"/>
		
			<linearGradient id="b556376d-a8da-4176-b74f-d7ea859efec6_00000127037390277322934110000000783773160149440900_" gradientUnits="userSpaceOnUse" x1="-1669.5834" y1="155.1632" x2="-1670.5834" y2="154.7733" gradientTransform="matrix(96.72 0 0 155.46 161847.2344 -23865.1719)">
			<stop  offset="0" style="stop-color:#FFFFFF;stop-opacity:0.63"/>
			<stop  offset="1" style="stop-color:#F5BAC1;stop-opacity:0.35"/>
		</linearGradient>
		
			<path id="b556376d-a8da-4176-b74f-d7ea859efec6" style="fill:url(#b556376d-a8da-4176-b74f-d7ea859efec6_00000127037390277322934110000000783773160149440900_);" d="
			M331.3,140.9c6,2.8,19.7,14.5,19.7,16.8c0,0.6,0.3,1.1,0.8,1.4c1.5,0.7,5.4,7,10.3,16.9l5.1,10.1l0.6,14.2
			c0.7,16.6-0.4,22.1-6.6,34.4c-7.3,14.3-18.1,26.6-31.4,35.5c-18.3,12.4-53.1,26.2-57.3,22.7c-2.2-1.8-1.7-2.4,3.4-3.9
			c3.5-1.1,6.9-2.4,10.2-3.8l7.5-3.3c4.4-1.8,8.9-3.3,13.5-4.4c2-0.6,3.8-1.6,5.5-2.7c5.8-3.7,10.9-6.3,11.8-6
			c0.4,0.1,1-0.5,1.4-1.3s1-1.3,1.5-1s1.2-0.1,1.5-1s1-1.3,1.4-1s1.9-0.8,3.1-2.5s2.7-3,3.3-3c1.5,0,9.6-8.2,9.6-9.7
			c0-0.7,1.1-2,2.5-2.9s2.5-2.3,2.5-3s0.4-1.4,0.9-1.4c1.3,0,6.9-10.2,9.7-17.8c3.5-9.4,4-18.7,1.5-30.5
			c-2.1-10.3-4.4-15.8-9.8-24.1c-1.8-2.8-3.9-5.9-4.6-7c-1.3-1.8-2.7-3.4-4.3-5c-1.6-1.7-2.9-3.4-2.8-3.8s-0.2-0.8-0.7-0.8
			s-2.7-1.6-4.8-3.5s-4.4-3.5-5-3.5c-0.8-0.1-1.6-0.6-2-1.4c-1-1.2-2.3-2.1-3.7-2.8c-3.3-1.6-4.6-3.9-2.1-3.9c0.9,0,4.4,1.3,7.8,2.9
			"/>
		
			<linearGradient id="abc4aa61-6fdc-4ded-9fc9-dc8a76da539e_00000119823325266438684270000000172136693651136437_" gradientUnits="userSpaceOnUse" x1="-1661.7789" y1="174.4254" x2="-1662.7789" y2="174.5354" gradientTransform="matrix(66.91 0 0 16.84 111503.2109 -2664.5706)">
			<stop  offset="0" style="stop-color:#DBEFF2;stop-opacity:0.71"/>
			<stop  offset="1" style="stop-color:#ACD7DD;stop-opacity:0.55"/>
		</linearGradient>
		
			<path id="abc4aa61-6fdc-4ded-9fc9-dc8a76da539e" style="fill:url(#abc4aa61-6fdc-4ded-9fc9-dc8a76da539e_00000119823325266438684270000000172136693651136437_);" d="
			M316,265.6c0,1.2-14.9,7.3-24,9.9c-17.3,5-36.7,7.7-41.4,5.9c-2.6-1-1.8-3.7,3-10.2c0.1-0.2,1.8,0.6,3.6,1.7c3,1.8,4.6,2,14.3,1.7
			c11.3-0.4,21.4-2.4,33.9-6.8C312.6,265.2,316,264.5,316,265.6"/>
	</g>
	<g id="e9dd614b-0945-4242-b256-650889db4e94">
		
			<linearGradient id="acb72ce8-ab97-428e-bf73-e266e8de753a_00000060004903913651548330000015917047862528143798_" gradientUnits="userSpaceOnUse" x1="-1659.0885" y1="201.4683" x2="-1659.6584" y2="202.4683" gradientTransform="matrix(60.04 0 0 7.5 99822.5625 -1458)">
			<stop  offset="0" style="stop-color:#E1A09F;stop-opacity:0.81"/>
			<stop  offset="1" style="stop-color:#DC9191;stop-opacity:0.75"/>
		</linearGradient>
		
			<path id="acb72ce8-ab97-428e-bf73-e266e8de753a" style="fill:url(#acb72ce8-ab97-428e-bf73-e266e8de753a_00000060004903913651548330000015917047862528143798_);" d="
			M218.2,54.6c4.3,1.5,6.6,3.9,5.2,5.3c-0.3,0.3-13.3,0.6-28.8,0.6c-27.4,0-28.2-0.1-28.5-2c-0.3-1.4-1-2.7-1.9-3.8
			c-1.5-1.7-0.2-1.8,23.9-1.8C208.7,53,214.5,53.3,218.2,54.6"/>
	</g>
</g>
<g id="f03fa001-a40b-424e-820e-fb86bfe8c657">
	
		<pattern  id="SVGID_00000132077362820311378220000012415811066882596015_" xlink:href="#e1469826-7d76-4ccf-a677-6704cd3" patternTransform="matrix(1 0 0 1 48 298)">
	</pattern>
	<rect x="400" y="0.2" style="fill:url(#SVGID_00000132077362820311378220000012415811066882596015_);" width="400" height="400"/>
	<g id="bf81df1d-d6ed-4f74-9351-8f50a4a01683">
		
			<linearGradient id="ba75795e-8879-46b7-b141-963b1c1712c1_00000166646186173761688190000009225517348906605757_" gradientUnits="userSpaceOnUse" x1="-1679.3834" y1="153.7181" x2="-1678.3834" y2="153.5481" gradientTransform="matrix(242.18 0 0 318.62 407144.8438 -48748.4961)">
			<stop  offset="0" style="stop-color:#EC6747;stop-opacity:0.99"/>
			<stop  offset="1" style="stop-color:#661115"/>
		</linearGradient>
		
			<path id="ba75795e-8879-46b7-b141-963b1c1712c1" style="fill:url(#ba75795e-8879-46b7-b141-963b1c1712c1_00000166646186173761688190000009225517348906605757_);" d="
			M637,52.8c23,1.4,28.8,2.2,31.5,4.5c1,0.8,1.4,5.9,1.4,21.6l0.1,20.5l-3,3.4c-1.9,2.1-2.8,4.1-2.5,5.3c0.4,1.6-0.2,2-3.3,2.6
			c-5.4,0.9-6.3,1.8-7.4,6.7c-1.4,6.2-0.2,12.1,3.1,15.7c2.3,2.4,4,3.2,8.6,3.8c8.1,1,8.4,1.2,7.4,4.6c-0.6,1.8-1.4,3.6-2.4,5.1
			c-0.9,1.3-1.6,4.3-1.6,7.4c0,6.3-3.4,42.9-5.5,59c-1.5,11.7-5.1,32.3-8,45.6c-0.8,3.6-1.6,8.2-1.9,10.2c-0.4,2.4-1.2,4.6-2.5,6.6
			c-3.8,5.3-2.5,7.1,5.1,7.1c2.4,0,3.7,0.4,3.4,1s-4.7,1-9.7,1c-12.1,0-14.9,1.4-18.8,9.3c-3.2,6.4-3.8,11.9-1.9,16.2
			c1,2.3,1.8,2.5,6.5,2.5c3.6,0,5.3,0.4,5.3,1.2c-0.6,3-1.4,5.9-2.4,8.8c-1.2,3.8-2.2,7.6-2.8,11.5c-0.2,2.1-0.7,4.2-1.6,6.1
			c-0.7,1.3-1.1,2.6-1.2,4.1c0,8.1-11.3,18.2-20.4,18.2c-1.9,0-3.6,0.5-3.8,1s-1.7,1.2-3.3,1.5s-5.2,0.9-8,1.5
			c-9.4,2.1-23,3.1-44.5,3.1c-32.6,0.1-57.8-3-73.6-9.1c-3.4-1.2-6.6-2.7-9.8-4.4c-1.6-1.2-7.6-17.8-15-41.7
			c-7.7-24.8-15.8-68.9-17.7-96.1c-0.5-7.9-1.6-21.3-2.4-29.9c-2.5-26.9-3.8-65.1-3.2-97.7c0.5-30.6,0.6-31.5,2.7-33.8
			c1.4-1.4,3-2.6,4.8-3.4C446.4,50.2,589,49.8,637,52.8"/>
		
			<linearGradient id="e9117974-497d-4e45-8c93-5b192788a4b0_00000127030731154468959700000003087707608652100258_" gradientUnits="userSpaceOnUse" x1="-1669.9469" y1="155.2478" x2="-1668.9469" y2="154.7178" gradientTransform="matrix(115.61 0 0 148.88 193724.3125 -22901.6621)">
			<stop  offset="0" style="stop-color:#C1A49B"/>
			<stop  offset="1" style="stop-color:#834D44"/>
		</linearGradient>
		
			<path id="e9117974-497d-4e45-8c93-5b192788a4b0" style="fill:url(#e9117974-497d-4e45-8c93-5b192788a4b0_00000127030731154468959700000003087707608652100258_);" d="
			M679,104.7c2.6,0.6,5.1,1.5,7.5,2.5c3.3,1.4,6.6,2.5,10,3.5c12.1,3.3,23.9,7.9,35,13.8c7.7,3.9,14.5,7.6,15.1,8.1s3.9,2.9,7.2,5.3
			c7.8,5.6,11.1,9.8,17.1,21.9c7.8,15.7,9.6,22.7,9.4,36.3c-0.3,17.3-2.5,26.7-9.4,40.5c-4.3,8.7-7.1,12.5-9.1,12.5
			c-2.2,0-2.3-3.3-0.2-5c0.7-0.5,1.2-1.3,1.5-2.2c0.4-1.3,1-2.5,1.8-3.6c1.9-3.4,3.4-6.9,4.7-10.6c2.5-6.9,2.9-9.7,3.2-21.2
			c0.3-11.3,0.1-14.4-1.8-21c-1.2-4.3-2.8-8.4-3.5-9.3c-1.5-1.7-7.5-14-7.5-15.5c0-2-8.6-12.4-14-16.9c-9.8-8.4-30.1-20.2-41.5-24.1
			c-7.8-2.7-29.1-7.8-34.2-8.2c-4.5-0.4-5.2-0.7-5.6-2.9c-0.3-1.7,0.3-3.4,1.9-5.3l2.4-2.9l3.2,1.8
			C674.4,103.3,676.7,104.2,679,104.7"/>
		
			<linearGradient id="adfdaec0-ab12-4225-98d6-43331992a1e7_00000116956021284307793820000010640101118669170576_" gradientUnits="userSpaceOnUse" x1="-1672.585" y1="154.3613" x2="-1673.585" y2="154.3413" gradientTransform="matrix(144.81 0 0 201.68 242980.75 -30916.5625)">
			<stop  offset="0" style="stop-color:#E45F49"/>
			<stop  offset="1" style="stop-color:#A82E24"/>
		</linearGradient>
		
			<path id="adfdaec0-ab12-4225-98d6-43331992a1e7" style="fill:url(#adfdaec0-ab12-4225-98d6-43331992a1e7_00000116956021284307793820000010640101118669170576_);" d="
			M678,112.7c2.5,0.8,8.5,2.3,13.5,3.4c13.4,3.1,18.8,5.2,29.5,11.1s19.5,11.8,25,16.4s14,15,14,16.9c0,1.5,6,13.8,7.5,15.5
			c0.7,0.8,2.3,5,3.5,9.3c1.8,6.6,2.1,9.7,1.8,21c-0.3,11.5-0.8,14.4-3.2,21.2c-1.2,3.7-2.8,7.2-4.7,10.6c-0.8,1.1-1.5,2.3-1.9,3.7
			c-0.2,0.8-0.7,1.6-1.4,2.1c-1,1.1-1.7,2.4-1.9,3.9c-0.7,3.6-14.8,18.6-23.5,25c-13.6,10-36.6,21.3-57.2,28
			c-19.2,6.3-22.6,7.3-29,8.7c-3.6,0.8-6.8,1.8-7.2,2.2s-3.4,0.6-6.6,0.4c-5.2-0.3-6.1-0.6-7.1-2.8c-1.9-4.2-1.3-9.7,1.9-16.1
			c4-7.9,6.7-9.3,18.8-9.3c5,0,9.3-0.5,9.7-1s-1-1-3.4-1c-8.7,0-9.1-2-2.5-10.9c0.2-0.2,1.8,0.6,3.6,1.7c3,1.8,4.6,2,14.3,1.7
			c11.8-0.4,19.2-1.9,33.5-6.5c3.5-1.2,7.1-2.2,10.7-3c3.1,0,16-9.6,24.8-18.4c13.2-13.2,17.5-22.6,19-41c0.6-7.1,0.3-9.5-1.5-15.7
			c-5.2-17.2-15.3-31.1-28.1-38.8s-28-12.1-44.4-12.7c-17.7-0.7-25.7-2.3-28.8-5.9c-2.5-2.9-4.2-9.8-3.3-13.2c0.3-1,0.7-2.9,1.1-4.4
			c0.4-1.7,1.7-3.1,3.3-3.7C661,110.1,671.8,110.9,678,112.7"/>
	</g>
</g>
<g id="a70e94b1-7f7a-40a7-9dce-326dab1d57bd">
	
		<pattern  id="SVGID_00000105392261957877676790000017218448650151886760_" xlink:href="#e1469826-7d76-4ccf-a677-6704cd3" patternTransform="matrix(1 0 0 1 48 298)">
	</pattern>
	
		<rect x="799.9" y="0.2" style="fill:url(#SVGID_00000105392261957877676790000017218448650151886760_);" width="400" height="400"/>
	<g id="af07da8d-8e16-4caf-b700-f10290b7862a">
		
			<linearGradient id="a032c44f-980d-4103-9f98-ead4402adb13_00000106862018089306264160000011926105200139485577_" gradientUnits="userSpaceOnUse" x1="-1675.4374" y1="190.4398" x2="-1678.5374" y2="189.4398" gradientTransform="matrix(237.07 0 0 9.9 398517.3125 -1824.4497)">
			<stop  offset="0" style="stop-color:#FAD9A2;stop-opacity:0.87"/>
			<stop  offset="1" style="stop-color:#040000;stop-opacity:0.71"/>
		</linearGradient>
		
			<path id="a032c44f-980d-4103-9f98-ead4402adb13" style="fill:url(#a032c44f-980d-4103-9f98-ead4402adb13_00000106862018089306264160000011926105200139485577_);stroke:#231815;stroke-miterlimit:10;" d="
			M1036.9,52.8c23.8,1.5,29.9,2.4,31.9,4.8c0.9,1.1-3.1,1.5-24.1,2.2c-32.6,1.1-143.5,1.1-182.5,0l-30.3-0.9l2.2-2.3
			c1.4-1.4,3-2.5,4.8-3.3C846.4,50.2,989,49.8,1036.9,52.8"/>
		
			<linearGradient id="a0cdd9a5-d48a-4327-b507-d663c3690f19_00000078748065660704092760000008617680017876514713_" gradientUnits="userSpaceOnUse" x1="-1653.4191" y1="154.5538" x2="-1654.4191" y2="152.7838" gradientTransform="matrix(74.33 0 0 301.81 123844.0234 -46189.5273)">
			<stop  offset="0" style="stop-color:#FFFFFF;stop-opacity:0.18"/>
			<stop  offset="1" style="stop-color:#EF8273"/>
		</linearGradient>
		
			<path id="a0cdd9a5-d48a-4327-b507-d663c3690f19" style="fill:url(#a0cdd9a5-d48a-4327-b507-d663c3690f19_00000078748065660704092760000008617680017876514713_);stroke:#231815;stroke-miterlimit:10;" d="
			M905.6,60.8l29.2,0.7l-0.6,35.1c-0.9,53.1-1,64.1-0.4,64.6c0.3,0.3,0.3,6.4,0,13.5c-0.9,20.9,0.2,89.2,2,123
			c0.6,11,1.3,25.1,1.6,31.2l0.5,11.2h-2.4c-1.9,0.3-3.6,1.2-4.8,2.6c-2.1,2.2-2.4,3.4-2.2,8.9c0.2,4.2-0.2,6.6-1,7.3
			c-2.4,1.9-9.8,2.3-19,1.2c-8-1-9.5-1.5-11.5-3.8c-3.2-3.7-3.8-4.5-4-5.4c-0.1-0.4-1-3.2-2.2-6.2c-1-2.7-1.9-5.4-2.5-8.2
			c-0.3-1.5-1.6-7.9-3-14.2s-3.9-18.9-5.6-28s-3.4-17.2-3.7-18c-0.4-1.6-0.7-3.3-0.9-5c-0.2-1.9-0.6-5.3-0.9-7.5s-0.8-6.5-1.1-9.5
			c-0.1-2.4-0.5-4.7-1-7c-0.5-2-0.8-4-0.9-6c-0.2-2.5-0.8-8.6-1.4-13.5s-1.3-11.7-1.5-15s-0.9-13.4-1.5-22.5s-1.5-19.1-1.9-22.3
			s-0.9-29-1-57.4l-0.2-51.6l6.3,0.6C873.6,59.9,889.6,60.5,905.6,60.8"/>
		
			<linearGradient id="ba4be479-55e1-401a-bb0b-8f51dec9f9dd_00000003102440746904302070000012672816848101562524_" gradientUnits="userSpaceOnUse" x1="-1586.465" y1="155.6868" x2="-1587.465" y2="154.9468" gradientTransform="matrix(24.74 0 0 133.01 40323.0586 -20453.7988)">
			<stop  offset="0" style="stop-color:#978982;stop-opacity:0.86"/>
			<stop  offset="1" style="stop-color:#89564F;stop-opacity:0.66"/>
		</linearGradient>
		
			<path id="ba4be479-55e1-401a-bb0b-8f51dec9f9dd" style="fill:url(#ba4be479-55e1-401a-bb0b-8f51dec9f9dd_00000003102440746904302070000012672816848101562524_);stroke:#231815;stroke-miterlimit:10;" d="
			M1072.4,137.9c1.5,0.6,0.4,5-2,8.5c-0.9,1.3-1.6,4.3-1.6,7.4c0,6.3-3.4,42.9-5.5,59c-2.8,21.9-9.6,55.7-11.2,56.2
			c-0.6,0.2-1.8-0.7-2.7-2c-1.4-2.2-1.4-3.2,0.4-12.3c5.9-30,11.8-71.7,12.7-89.4c0.3-5.8,1-11.8,1.5-13.4c0.8-2.5,0.6-3.2-1.5-5
			c-2.6-2.1-2.9-3.1-2.7-7.9l0.1-2.9l5.7,0.7C1067.9,137,1070.2,137.4,1072.4,137.9"/>
		
			<linearGradient id="a7c0ce0e-5a18-45f6-a521-34d58b54c4cd_00000169544247299112265050000008124357010255863989_" gradientUnits="userSpaceOnUse" x1="-1661.3105" y1="155.1658" x2="-1662.3105" y2="154.7758" gradientTransform="matrix(96.72 0 0 155.46 161847.2344 -23865.1719)">
			<stop  offset="0" style="stop-color:#FFFFFF;stop-opacity:0.63"/>
			<stop  offset="1" style="stop-color:#F5BAC1;stop-opacity:0.35"/>
		</linearGradient>
		
			<path id="a7c0ce0e-5a18-45f6-a521-34d58b54c4cd" style="fill:url(#a7c0ce0e-5a18-45f6-a521-34d58b54c4cd_00000169544247299112265050000008124357010255863989_);stroke:#231815;stroke-miterlimit:10;" d="
			M1131.2,141.1c6,2.9,19.7,14.5,19.7,16.8c0,0.6,0.3,1.1,0.8,1.4c1.5,0.7,5.4,7,10.3,16.9l5,10.1l0.6,14.1
			c0.7,16.6-0.4,22.1-6.6,34.4c-7.3,14.3-18.1,26.6-31.4,35.5c-18.2,12.4-53.1,26.2-57.3,22.7c-2.2-1.8-1.7-2.4,3.4-3.9
			c3.5-1.1,6.9-2.3,10.2-3.8l7.5-3.3c4.4-1.8,8.9-3.3,13.5-4.4c2-0.6,3.8-1.6,5.5-2.7c5.8-3.7,10.9-6.3,11.8-6
			c0.4,0.1,1-0.5,1.3-1.3s1-1.2,1.5-1s1.2-0.1,1.5-1s1-1.3,1.4-1s1.8-0.8,3.1-2.5s2.7-3,3.3-3c1.5,0,9.6-8.2,9.6-9.7
			c0-0.7,1.1-2,2.5-2.9s2.5-2.3,2.5-3s0.4-1.4,0.9-1.4c1.3,0,6.9-10.2,9.7-17.8c3.5-9.4,4-18.7,1.5-30.5
			c-2.1-10.3-4.4-15.8-9.8-24.1l-4.6-7c-1.3-1.8-2.7-3.4-4.3-5c-1.7-1.7-2.9-3.4-2.8-3.8s-0.2-0.8-0.7-0.8s-2.7-1.6-4.8-3.5
			s-4.3-3.5-5-3.5c-0.8-0.1-1.6-0.6-2-1.4c-1-1.2-2.3-2.1-3.7-2.8c-3.3-1.6-4.6-3.9-2.1-3.9C1124.2,138.2,1127.7,139.5,1131.2,141.1
			"/>
		
			<linearGradient id="e8698845-f9b9-4369-b161-dca305c09e0e_00000153666264454892158090000017310589501986492575_" gradientUnits="userSpaceOnUse" x1="-1649.8187" y1="174.4372" x2="-1650.8187" y2="174.5472" gradientTransform="matrix(66.91 0 0 16.84 111503.2109 -2664.5706)">
			<stop  offset="0" style="stop-color:#DBEFF2;stop-opacity:0.71"/>
			<stop  offset="1" style="stop-color:#ACD7DD;stop-opacity:0.55"/>
		</linearGradient>
		
			<path id="e8698845-f9b9-4369-b161-dca305c09e0e" style="fill:url(#e8698845-f9b9-4369-b161-dca305c09e0e_00000153666264454892158090000017310589501986492575_);stroke:#231815;stroke-miterlimit:10;" d="
			M1115.9,265.8c0,1.2-14.9,7.3-24,9.9c-17.3,5-36.7,7.7-41.4,5.9c-2.6-1-1.8-3.7,3-10.3c0.1-0.2,1.8,0.6,3.6,1.7
			c3,1.8,4.6,2,14.3,1.7c11.3-0.4,21.3-2.4,33.9-6.8C1112.4,265.4,1115.8,264.7,1115.9,265.8"/>
	</g>
</g>
<g id="a518e63c-20a1-48ed-8ca2-c2550104edaa">
	
		<pattern  id="SVGID_00000062913121676426612740000005973448513574090386_" xlink:href="#e1469826-7d76-4ccf-a677-6704cd3" patternTransform="matrix(1 0 0 1 48 298)">
	</pattern>
	<rect x="1199.8" style="fill:url(#SVGID_00000062913121676426612740000005973448513574090386_);" width="400" height="400"/>
	<g id="a6b84fba-b1da-46e8-b6b8-7cde0a956fa0">
		
			<linearGradient id="af8c4ca6-1abc-482a-a198-70a5fc3fc996_00000023960756455839391880000006366478851125242814_" gradientUnits="userSpaceOnUse" x1="-1639.1064" y1="201.4694" x2="-1639.6765" y2="202.4694" gradientTransform="matrix(60.04 0 0 7.5 99822.5625 -1458)">
			<stop  offset="0" style="stop-color:#E1A09F;stop-opacity:0.81"/>
			<stop  offset="1" style="stop-color:#DC9191;stop-opacity:0.75"/>
		</linearGradient>
		
			<path id="af8c4ca6-1abc-482a-a198-70a5fc3fc996" style="fill:url(#af8c4ca6-1abc-482a-a198-70a5fc3fc996_00000023960756455839391880000006366478851125242814_);" d="
			M1418,54.6c4.3,1.5,6.6,3.9,5.2,5.3c-0.3,0.3-13.3,0.6-28.8,0.6c-27.4,0-28.2-0.1-28.5-2c-0.3-1.4-1-2.7-1.9-3.8
			c-1.5-1.7-0.3-1.8,23.9-1.8C1408.4,53,1414.3,53.3,1418,54.6"/>
	</g>
	<line class="st24" x1="400" y1="0.2" x2="400" y2="400"/>
	<line class="st24" x1="800" y1="0.2" x2="800" y2="400.2"/>
	<line class="st24" x1="1199.9" y1="0.2" x2="1199.8" y2="400"/>
</g>
</svg>
