<?xml version="1.0" encoding="utf-8"?>
<!-- Generator: Adobe Illustrator 27.0.0, SVG Export Plug-In . SVG Version: 6.00 Build 0)  -->
<svg version="1.1" xmlns="http://www.w3.org/2000/svg" xmlns:xlink="http://www.w3.org/1999/xlink" x="0px" y="0px"
	 viewBox="0 0 1400 568" style="enable-background:new 0 0 1400 568;" xml:space="preserve">
<style type="text/css">
	.st0{fill:none;}
	.st1{fill:#D3D3D3;}
	.st2{fill:url(#SVGID_00000153684595527467791770000004802278045934118036_);}
	.st3{fill:none;stroke:#000000;stroke-width:5;stroke-miterlimit:10;}
	.st4{fill:url(#region-1-1_00000075132242323614603560000014210090388272389531_);}
	.st5{fill:url(#region-1-2_00000032642823432122939680000009386155682633320857_);}
	.st6{fill:url(#region-1-3_00000080172894033240549430000012333737034363104429_);}
	.st7{fill:url(#region-1-4_00000107579018496155227800000017535884173798059393_);}
	.st8{fill:url(#region-2-1_00000088102437690290903650000017253705523925254299_);}
	.st9{fill:url(#region-2-2_00000088819967984727413120000001424055473685650619_);}
	.st10{fill:url(#region-2-3_00000090282283988334206490000008079912031223088304_);}
	.st11{fill:url(#region-2-4_00000084505910815100860780000003804575637861795768_);}
	.st12{fill:url(#region-2-5_00000074399584520967075610000015861452159945436580_);}
	.st13{fill:url(#region-2-6_00000042015120199865453080000001214462951637703563_);}
	.st14{fill:url(#region-2-7_00000032631203678827306310000015127040747504633230_);}
	.st15{fill:url(#region-2-8_00000021819590086641610920000017727040347485961407_);}
	.st16{fill:url(#region-2-9_00000111156973953067805760000000238660305501181373_);}
	.st17{fill:url(#region-2-10_00000147912566589526674160000013535930459250988959_);}
	.st18{fill:url(#region-2-11_00000018234131718475392320000013212359277066303661_);}
	.st19{fill:url(#region-3-1_00000173135913912317612210000006602643869873667243_);}
	.st20{fill:url(#region-3-2_00000127765470975457730410000008697252087661982620_);}
	.st21{fill:url(#region-3-3_00000067216683551083989160000017206775735629948335_);}
	.st22{fill:url(#region-3-4_00000030481120077890711310000011915811039976173470_);}
	.st23{fill:url(#region-3-5_00000129912025037166151150000003051818757626116008_);}
	.st24{fill:url(#region-3-6_00000060020518552830328720000004611437803090569355_);}
	.st25{fill:url(#region-3-7_00000069388603012373460260000011317859085053391764_);}
	.st26{fill:url(#region-1-1_00000070825841456585666600000001875058393968455325_);}
	.st27{fill:url(#region-1-2_00000098932134235024801200000007948530685522422158_);}
	.st28{fill:url(#region-1-3_00000164486492400199539940000012149828490269301924_);}
	.st29{fill:url(#region-1-4_00000046317472120628436950000002386380989697589403_);}
	.st30{fill:url(#region-2-1_00000045603471055348321270000017410733083686121883_);stroke:#000000;stroke-miterlimit:10;}
	.st31{fill:url(#region-2-2_00000137821134064405372610000004146795224657467280_);stroke:#000000;stroke-miterlimit:10;}
	.st32{fill:url(#region-2-3_00000056403533412344113580000016362534677400029337_);stroke:#000000;stroke-miterlimit:10;}
	.st33{fill:url(#region-2-4_00000143608055637605443000000012893802434034017723_);stroke:#000000;stroke-miterlimit:10;}
	.st34{fill:url(#region-2-5_00000181055117967999707880000007494738399670315696_);stroke:#000000;stroke-miterlimit:10;}
	.st35{fill:url(#region-2-6_00000156586925722025606820000012122458668159312307_);stroke:#000000;stroke-miterlimit:10;}
	.st36{fill:url(#region-2-7_00000067214697090115661660000017775972573876285327_);stroke:#000000;stroke-miterlimit:10;}
	.st37{fill:url(#region-2-8_00000057123202888237587750000017778364977250519944_);stroke:#000000;stroke-miterlimit:10;}
	.st38{fill:url(#region-2-9_00000026851549689332181910000010806629142329588117_);stroke:#000000;stroke-miterlimit:10;}
	.st39{fill:url(#region-2-10_00000165955105961609613720000002372879583596831898_);stroke:#000000;stroke-miterlimit:10;}
	.st40{fill:url(#region-2-11_00000077294275169977422810000015541399433701301145_);stroke:#000000;stroke-miterlimit:10;}
	.st41{fill:url(#region-3-1_00000135648686399640899250000001773896194191245961_);stroke:#000000;stroke-miterlimit:10;}
	.st42{fill:url(#region-3-2_00000058576561121118452630000007390374046149711768_);stroke:#000000;stroke-miterlimit:10;}
	.st43{fill:url(#region-3-3_00000049906547382642615500000015740829758648083870_);stroke:#000000;stroke-miterlimit:10;}
	.st44{fill:url(#region-3-4_00000132790901048053950420000008190058028855526802_);stroke:#000000;stroke-miterlimit:10;}
	.st45{fill:url(#region-3-5_00000124121939569007066620000015527496598474193083_);stroke:#000000;stroke-miterlimit:10;}
	.st46{fill:url(#region-3-6_00000139271077064002980110000016699550157865804955_);stroke:#000000;stroke-miterlimit:10;}
	.st47{fill:url(#region-3-7_00000088091030568357979280000004376219078818628768_);stroke:#000000;stroke-miterlimit:10;}
</style>
<pattern  width="40" height="40" patternUnits="userSpaceOnUse" id="SVGID_1_" viewBox="0 -40 40 40" style="overflow:visible;">
	<g>
		<rect y="-40" class="st0" width="40" height="40"/>
		<g>
			<rect y="-40" class="st0" width="40" height="40"/>
			<rect y="-40" class="st0" width="40" height="40"/>
			<rect y="-20" class="st1" width="20" height="20"/>
			<rect x="20" y="-40" class="st1" width="20" height="20"/>
		</g>
	</g>
</pattern>
<g id="图层_1">
	<g id="图层_1_00000015316622078413379080000000961724766797632903_">
		
			<pattern  id="SVGID_00000116205856542556177980000004033930650738518662_" xlink:href="#SVGID_1_" patternTransform="matrix(1 0 0 -1 -199 -13823.2402)">
		</pattern>
		<rect x="0" style="fill:url(#SVGID_00000116205856542556177980000004033930650738518662_);" width="1400" height="568"/>
	</g>
	<g id="图层_3">
	</g>
	<line class="st3" x1="353.5" y1="0" x2="353.5" y2="568"/>
	<line class="st3" x1="705.5" y1="0" x2="705.5" y2="568"/>
	<line class="st3" x1="1056.5" y1="0" x2="1056.5" y2="568"/>
</g>
<g id="图层_2">
	<g id="layer-1">
		
			<linearGradient id="region-1-1_00000034809026336096266590000011088963005978247356_" gradientUnits="userSpaceOnUse" x1="-541.5039" y1="513.6168" x2="-541.5039" y2="514.6168" gradientTransform="matrix(81.0891 0 0 135.3766 44093.832 -69482.9531)">
			<stop  offset="0" style="stop-color:#114540;stop-opacity:0.999"/>
			<stop  offset="1" style="stop-color:#001C18"/>
		</linearGradient>
		<path id="region-1-1" style="fill:url(#region-1-1_00000034809026336096266590000011088963005978247356_);" d="M165.3,49.3
			c-22.4,2.1-25.3,5.6-19.5,24.3c3,9.7,3.1,13.8,0.5,24c-2.5,9.8-2.5,13.1,0,21.5c2.9,9.8,3.8,18.1,2.7,25c-0.9,5.6-0.8,6.1,1.4,7.9
			l2.4,1.9l-4.2,1.2l-4.1,1.3l0.1,12.8l0.1,12.9h4.3c2.4,0,4.3,0.4,4.3,1c0,0.5,1.8,1,4,1s4-0.4,4-1s9.7-0.9,27-0.7l26.9,0.2l0.3-3
			c0.3-2.8,0.6-3,4.6-3.3l4.2-0.3v-7.5v-7.4h-4c-3.4,0-4.1-0.4-4.6-2.5c-0.8-3.1-3.1-4.5-7.6-4.5c-3.4-0.1-3.2-0.6,1.7-3.5
			c1.7-1,1.7-1.5,0.1-8.5c-1.8-7.9-1.6-12.9,1-23c2.1-8,1.9-15.6-0.6-23c-3.3-9.7-3.5-15.2-1.1-24.7c1.2-4.5,2.1-9.4,2.1-11
			c0-2.8-3.3-9.2-4.7-9.4c-0.5,0-1.7-0.2-2.8-0.5c-1.1-0.2-6.7-0.7-12.5-0.9c-5.8-0.3-12.1-0.7-14-0.8
			C175.4,48.6,170,48.8,165.3,49.3z"/>
		
			<linearGradient id="region-1-2_00000083078831090592808340000015652889874628606644_" gradientUnits="userSpaceOnUse" x1="-519.3967" y1="512.5134" x2="-518.4434" y2="513.5519" gradientTransform="matrix(19.1611 0 0 34.8114 10078.1338 -17679.0723)">
			<stop  offset="0" style="stop-color:#615444"/>
			<stop  offset="1" style="stop-color:#4A3E2E"/>
		</linearGradient>
		<path id="region-1-2" style="fill:url(#region-1-2_00000083078831090592808340000015652889874628606644_);" d="M126.9,165.8
			c-0.3,2.1-0.6,9.9-0.8,17.3c-0.3,11.4-0.1,13.5,1.2,13.8c2.5,0.4,7-9.8,7-15.8v-5h4.5c4.1,0,4.5-0.2,4.5-2.5
			c0-1.4,0.5-2.5,1.1-2.5c1.7,0,0.2-6.2-1.8-7.8c-1-0.7-4.6-1.2-8.4-1.2h-6.7L126.9,165.8z"/>
		
			<linearGradient id="region-1-3_00000181084032456280880060000004952035572291072410_" gradientUnits="userSpaceOnUse" x1="-546.3265" y1="513.8372" x2="-546.3265" y2="514.8372" gradientTransform="matrix(261.0063 0 0 318.6939 142778.7656 -163574.4062)">
			<stop  offset="0" style="stop-color:#2F776D;stop-opacity:0.99"/>
			<stop  offset="1" style="stop-color:#4F9981;stop-opacity:0.99"/>
		</linearGradient>
		<path id="region-1-3" style="fill:url(#region-1-3_00000181084032456280880060000004952035572291072410_);" d="M161.3,183.2
			c0,0.5-1.6,0.9-3.5,0.9h-3.5v6.6c0,6.3-2,12.9-4.3,14.5c-0.6,0.4-2.6,1-4.7,1.3c-6,0.9-8.6,4.2-10,12.4c-1.4,8.6-3,10.8-12.5,17.2
			c-4,2.7-8.2,6.1-9.3,7.5s-2.4,2.5-2.9,2.5c-0.8,0-7.6,7-16.3,17c-5.9,6.7-17.7,25.6-22.9,36.5c-2.9,6-5.9,12.2-6.7,13.6
			c-1.3,2.6-2.7,7.2-6.4,21c-1.8,7-2.3,10.1-4.1,29.4C51,397.2,61,443.1,76.6,466.1c7.6,11.1,22.7,24.5,34.5,30.4
			c2.9,1.5,5,3.1,4.7,3.6c-0.8,1.3,76.8,1.3,111.7,0l26.7-1l10-6c12.6-7.7,18.6-12.7,25.6-21.5c16.1-20.3,24.5-49.6,24.8-87.1
			c0.1-14.7-0.5-21.1-3.4-35.4c-1.8-9.3-5.7-23.5-7.8-28.5c-0.5-1.1-2.1-5.2-3.7-9c-3.3-8.2-9.8-20.7-13.1-25.1
			c-1.3-1.7-2.3-3.6-2.3-4.2c0-0.7-0.8-2-1.7-3c-1-0.9-3.4-4.2-5.5-7.2c-5.6-8.4-15.6-19.6-22-24.5c-1.4-1.1-4.4-3.7-6.6-5.7
			c-4.2-3.9-17-12.8-18.4-12.8c-1.3,0-3.8-5.7-3.8-8.7c0-3.8-2.2-9.8-4.5-12.3c-1-1.1-3.7-2.5-5.9-3.1c-7.1-1.8-7.4-1.9-8.2-3.7
			c-0.4-0.9-1-5.5-1.3-10.2l-0.6-8.5l-22.2-0.2C170.5,182.3,161.3,182.6,161.3,183.2z M198.8,374.5c6.6,3.1,9.2,5.7,12.4,12.5
			c3.6,7.6,3.6,18.3,0.1,25.5c-6.9,14.2-23,20.5-36.3,14.2c-7.4-3.5-10.8-6.5-13.7-12.2c-2.9-5.8-3.9-17.2-2-23.8
			c2.2-8.1,11.5-16.2,21.4-18.7C185.3,370.8,193.2,371.9,198.8,374.5z"/>
		
			<linearGradient id="region-1-4_00000145025173447854082000000011528015405617110938_" gradientUnits="userSpaceOnUse" x1="-545.6496" y1="511.7464" x2="-545.5871" y2="515.5576" gradientTransform="matrix(198.6155 0 0 23.1 108558.2891 -11324.4004)">
			<stop  offset="0" style="stop-color:#71706E"/>
			<stop  offset="1" style="stop-color:#9B9A99"/>
		</linearGradient>
		<path id="region-1-4" style="fill:url(#region-1-4_00000145025173447854082000000011528015405617110938_);" d="M255.7,498.1
			c-2.5,2.5-139.4,4.4-141,1.9c-0.5-0.8-4.2-1-12.1-0.7c-10.5,0.5-11.7,0.8-13.8,2.9c-1.2,1.3-2.6,3.7-2.9,5.2
			c-0.6,2.6-0.3,2.9,5.6,5.7c8.5,4,19,4.7,87.2,6.1l54.1,1l24-2.5c13.3-1.4,24.8-2.6,25.8-2.6c1.4,0,1.7-1.1,1.7-6.8v-6.8l-4.5-2.2
			c-3.7-1.8-6.3-2.2-13.8-2.2C260.9,497.1,256.3,497.5,255.7,498.1z"/>
	</g>
	<g id="layer-2">
		
			<linearGradient id="region-2-1_00000136369224897423726310000009440770694308618916_" gradientUnits="userSpaceOnUse" x1="-479.2889" y1="507.2368" x2="-479.2889" y2="508.2368" gradientTransform="matrix(8.1968 0 0 7.6697 4081.0217 -3835.884)">
			<stop  offset="0" style="stop-color:#F5FCFD;stop-opacity:0.79"/>
			<stop  offset="1" style="stop-color:#F9FDFF;stop-opacity:0.806"/>
		</linearGradient>
		<path id="region-2-1" style="fill:url(#region-2-1_00000136369224897423726310000009440770694308618916_);" d="M150.4,56
			c-2.9,2.9-2.8,6.1,0.3,6.1c1.7,0,3-1,4.5-3.5c1.1-1.9,1.6-3.5,1.1-3.5c-0.4,0-1.5-0.3-2.3-0.6C153.1,54.2,151.5,54.9,150.4,56z"/>
		
			<linearGradient id="region-2-2_00000060015246533749253540000013305137676910300306_" gradientUnits="userSpaceOnUse" x1="-466.1471" y1="500.9205" x2="-466.1471" y2="501.9205" gradientTransform="matrix(6.8887 0 0 3.9659 3401.0256 -1931.8555)">
			<stop  offset="0" style="stop-color:#EEFFFF;stop-opacity:0.813"/>
			<stop  offset="1" style="stop-color:#F0FFFF;stop-opacity:0.817"/>
		</linearGradient>
		<path id="region-2-2" style="fill:url(#region-2-2_00000060015246533749253540000013305137676910300306_);" d="M189.1,54.9
			c-3.5,0.4-3.6,1.9-0.2,3.2c2.9,1.1,4.4,0.6,4.4-1.5C193.3,54.8,192.4,54.4,189.1,54.9z"/>
		
			<linearGradient id="region-2-3_00000147209266042565735510000013335189572894557618_" gradientUnits="userSpaceOnUse" x1="-489.2406" y1="512.2416" x2="-489.2406" y2="513.2416" gradientTransform="matrix(9.5733 0 0 29.5 4838.3203 -15031)">
			<stop  offset="0" style="stop-color:#F2FDFF;stop-opacity:0.777"/>
			<stop  offset="1" style="stop-color:#FFFFFF;stop-opacity:0.828"/>
		</linearGradient>
		<path id="region-2-3" style="fill:url(#region-2-3_00000147209266042565735510000013335189572894557618_);" d="M152.9,84.9
			c0.4,3.3,0,6.9-1.2,11.3c-0.9,3.5-1.8,8-1.8,9.9c-0.1,3,0.2,3.5,2.2,3.5c1.9,0,2.7-1.1,4.8-7c2.8-8,3.3-13.4,1.5-18.8
			c-1-2.9-1.8-3.7-3.7-3.7C152.3,80.1,152.3,80.3,152.9,84.9z"/>
		
			<linearGradient id="region-2-4_00000001641203668194030670000015642285679151679144_" gradientUnits="userSpaceOnUse" x1="-491.7702" y1="511.9931" x2="-491.7702" y2="512.9931" gradientTransform="matrix(10.0002 0 0 25.8468 5108.0869 -13153.0908)">
			<stop  offset="0" style="stop-color:#E5F2F7;stop-opacity:0.771"/>
			<stop  offset="1" style="stop-color:#F1FEFF;stop-opacity:0.818"/>
		</linearGradient>
		<path id="region-2-4" style="fill:url(#region-2-4_00000001641203668194030670000015642285679151679144_);" d="M185.9,82.3
			c-1.1,4.2-0.7,6.6,1.3,7.3c1.1,0.3,2.5,1.2,3.1,2c1,1.2,0.7,1.9-1.5,3.8c-2.6,2.2-2.7,2.4-1.4,6.5c1.1,3.8,1.5,4.2,4.6,4.2
			c2.8,0,3.3-0.3,3.3-2.4c0-1.4-0.5-3.7-1.1-5.3c-0.7-1.5-1.5-6.2-1.8-10.3c-0.6-7.2-0.7-7.5-3.2-7.8
			C187.2,80.1,186.4,80.5,185.9,82.3z"/>
		
			<linearGradient id="region-2-5_00000068653286386716071460000004732752536032417960_" gradientUnits="userSpaceOnUse" x1="-475.3893" y1="511.1023" x2="-475.3893" y2="512.1023" gradientTransform="matrix(7.7596 0 0 17.9009 3846.2378 -9018.9775)">
			<stop  offset="0" style="stop-color:#EEF6F9;stop-opacity:0.781"/>
			<stop  offset="1" style="stop-color:#F7FFFF;stop-opacity:0.815"/>
		</linearGradient>
		<path id="region-2-5" style="fill:url(#region-2-5_00000068653286386716071460000004732752536032417960_);" d="M156,130.8
			c-1.5,0.4-1.7,1.5-1.5,6.6c0.1,3.4-0.2,7.2-0.6,8.4c-0.7,2-0.5,2.3,1.7,2.3c2.7,0,5.7-3.6,5.7-7c0-3-2.1-11-2.9-10.9
			C158.1,130.3,157,130.5,156,130.8z"/>
		
			<linearGradient id="region-2-6_00000114780423415529285070000008705992935359077787_" gradientUnits="userSpaceOnUse" x1="-470.4005" y1="510.2949" x2="-470.4005" y2="511.2949" gradientTransform="matrix(7.2639 0 0 14 3607.177 -7012)">
			<stop  offset="0" style="stop-color:#E3F6FA;stop-opacity:0.784"/>
			<stop  offset="1" style="stop-color:#E9FDFF;stop-opacity:0.81"/>
		</linearGradient>
		<path id="region-2-6" style="fill:url(#region-2-6_00000114780423415529285070000008705992935359077787_);" d="M186.9,135.8
			c-0.4,2.8-0.2,4.1,0.9,4.9c2,1.5,1.9,2.4-0.1,2.4c-1.4,0-1.4,0.3-0.4,1.5c0.7,0.8,2.6,1.5,4.2,1.5c2.6,0,2.8-0.2,1.8-2.1
			c-0.7-1.1-0.9-2.8-0.6-3.6c0.4-0.9,0.4-3.1,0-4.9c-0.5-2.7-1.1-3.4-2.9-3.4S187.4,132.8,186.9,135.8z"/>
		
			<linearGradient id="region-2-7_00000047780545970377621560000010079019164773432715_" gradientUnits="userSpaceOnUse" x1="-541.3909" y1="512.264" x2="-541.3909" y2="513.264" gradientTransform="matrix(79.8 0 0 29.8807 43387.4023 -15152.5674)">
			<stop  offset="0" style="stop-color:#FFEDC4;stop-opacity:0.747"/>
			<stop  offset="1" style="stop-color:#FFEAB8;stop-opacity:0.694"/>
		</linearGradient>
		<path id="region-2-7" style="fill:url(#region-2-7_00000047780545970377621560000010079019164773432715_);" d="M147.6,155.3
			l-3.1,1l0.1,12.9l0.1,12.9h4.3c2.4,0,4.3,0.4,4.3,1c0,0.5,1.8,1,4,1s4-0.4,4-1s9.7-0.9,27-0.7l26.9,0.2l0.3-3
			c0.3-2.8,0.6-3,4.6-3.3l4.2-0.3v-7.5v-7.4h-4c-3.4,0-4.1-0.4-4.6-2.5c-0.3-1.4-1.4-3-2.4-3.5C210.8,153.8,151.8,154,147.6,155.3z"
			/>
		
			<linearGradient id="region-2-8_00000158015118297701990830000003078060993114974125_" gradientUnits="userSpaceOnUse" x1="-546.1602" y1="513.582" x2="-546.0188" y2="515.1707" gradientTransform="matrix(233.7366 0 0 136.0701 127817.9375 -69705.7578)">
			<stop  offset="0" style="stop-color:#000C0A;stop-opacity:0.815"/>
			<stop  offset="1" style="stop-color:#004544;stop-opacity:0.758"/>
		</linearGradient>
		<path id="region-2-8" style="fill:url(#region-2-8_00000158015118297701990830000003078060993114974125_);" d="M161.3,183.2
			c0,0.5-1.6,0.9-3.5,0.9h-3.5v6.6c0,6.3-2,12.9-4.3,14.5c-0.6,0.4-2.6,1-4.7,1.3c-6,0.9-8.6,4.2-10,12.4c-1.4,8.6-3,10.8-12.5,17.2
			c-4,2.7-8.2,6.1-9.3,7.5s-2.4,2.5-2.9,2.5c-0.8,0-7.6,7-16.3,17c-5.9,6.7-17.7,25.6-22.9,36.5c-2.9,6-5.9,12.2-6.7,13.7
			c-1.5,2.7-1.4,2.7,2.8,3.9c5.9,1.6,63.5,1.7,84.3,0.1c33.5-2.5,37.4-3.1,49.3-7.8c4.9-1.9,9.4-2.7,19.5-3.4
			c18.2-1.3,30-1.2,33.4,0.1c1.7,0.8,10.5,1.2,23.4,1.3c18,0.1,20.6-0.1,20.1-1.4c-1.2-3.2-8.7-16.6-10.9-19.6
			c-1.3-1.7-2.3-3.6-2.3-4.2c0-0.7-0.8-2-1.7-3c-1-0.9-3.4-4.2-5.5-7.2c-5.6-8.4-15.6-19.6-22-24.5c-1.4-1.1-4.4-3.7-6.6-5.7
			c-4.2-3.9-17-12.8-18.4-12.8c-1.3,0-3.8-5.7-3.8-8.7c0-3.8-2.2-9.8-4.5-12.3c-1-1.1-3.7-2.5-5.9-3.1c-7.1-1.8-7.4-1.9-8.2-3.7
			c-0.4-0.9-1-5.5-1.3-10.2l-0.6-8.5l-22.2-0.2C170.5,182.3,161.3,182.6,161.3,183.2z"/>
		
			<linearGradient id="region-2-9_00000152977709821377929950000002726151582343452598_" gradientUnits="userSpaceOnUse" x1="-541.484" y1="513.3788" x2="-541.484" y2="514.3788" gradientTransform="matrix(80.8592 0 0 83.5013 43985.8516 -42516.1797)">
			<stop  offset="0" style="stop-color:#001607;stop-opacity:0.723"/>
			<stop  offset="1" style="stop-color:#14362D;stop-opacity:0.814"/>
		</linearGradient>
		<path id="region-2-9" style="fill:url(#region-2-9_00000152977709821377929950000002726151582343452598_);" d="M195.2,352.6
			c-13.4,4.9-27.5,16.1-31.5,25.2c-3.3,7.4-3,8.4,1,3.7c8-9.4,22.4-12.5,33.6-7.2c7.1,3.3,9.7,5.8,12.9,12.7
			c5.2,11.2,2.9,25.3-5.7,33.9c-3.9,3.8-12.7,8.2-17,8.3l-2.7,0.1l2.5,0.7c1.4,0.5,4.4,1.8,6.7,2.9c3.6,1.9,5.9,2.2,15.1,2.2
			c10.1,0,11.3-0.2,15.8-2.7c7.4-4.1,12.7-10,14.7-16.2c1.3-4.2,1.7-9,1.7-22.6c0-9.5-0.4-17.5-0.8-17.7c-0.5-0.2-2.2-2.8-3.9-5.8
			c-4.8-8.3-12.6-16.6-16.5-17.4C214.7,351.3,198.9,351.2,195.2,352.6z"/>
		
			<linearGradient id="region-2-10_00000068643308210563862580000014184929453341219209_" gradientUnits="userSpaceOnUse" x1="-532.6584" y1="512.962" x2="-532.6584" y2="513.962" gradientTransform="matrix(35.8113 0 0 49.9707 19210.4766 -25226.3301)">
			<stop  offset="0" style="stop-color:#E2FAF9;stop-opacity:0.794"/>
			<stop  offset="1" style="stop-color:#E5FFFF;stop-opacity:0.81"/>
		</linearGradient>
		<path id="region-2-10" style="fill:url(#region-2-10_00000068643308210563862580000014184929453341219209_);" d="M119.1,406.9
			c-2.4,0.5-2.3,3.8,0.2,12.1c3.9,13,13.4,25.2,26.1,33.7c7.1,4.7,10.2,5.4,5.6,1.2c-1.4-1.3-4.3-4.6-6.4-7.4
			c-2.1-2.8-6.2-8-9.2-11.5c-6.2-7.4-9.6-14-11.2-22.1C123,407.2,122.2,406.2,119.1,406.9z"/>
		
			<linearGradient id="region-2-11_00000047744881638938334700000009258001525988327579_" gradientUnits="userSpaceOnUse" x1="-544.5221" y1="509.1945" x2="-543.5881" y2="514.0977" gradientTransform="matrix(140.1492 0 0 10.9814 76490.4219 -5093.2915)">
			<stop  offset="0" style="stop-color:#002500;stop-opacity:0.656"/>
			<stop  offset="1" style="stop-color:#008959;stop-opacity:0.393"/>
		</linearGradient>
		<path id="region-2-11" style="fill:url(#region-2-11_00000047744881638938334700000009258001525988327579_);" d="M224.8,500.2
			c-9.9,0.3-38.5,0.7-63.5,0.8l-45.5,0.2l2.8,2.2c1.5,1.3,2.7,2.8,2.7,3.5c0,0.8,1.8,1.2,5.3,1.2c2.8,0.1,19.9,0.7,37.9,1.4
			c34.5,1.4,44.5,1,72.3-2.9c14.9-2.1,19.7-3.4,19.1-5.2c-0.4-0.8-0.6-1.7-0.6-1.9C255.3,499.1,250.9,499.1,224.8,500.2z"/>
	</g>
	<g id="layer-3">
		
			<linearGradient id="region-3-1_00000125564468486982580720000002116271074699920013_" gradientUnits="userSpaceOnUse" x1="-456.6852" y1="510.424" x2="-456.6852" y2="511.424" gradientTransform="matrix(6.1788 0 0 14.5053 2982.5005 -7218.6104)">
			<stop  offset="0" style="stop-color:#E5F6F9;stop-opacity:0.707"/>
			<stop  offset="1" style="stop-color:#ECFEFF;stop-opacity:0.735"/>
		</linearGradient>
		<path id="region-3-1" style="fill:url(#region-3-1_00000125564468486982580720000002116271074699920013_);" d="M158.3,189.4
			c0,2.5-0.2,5.1-0.5,5.9c-0.9,2.4,1.9,5.1,4.4,4.3c1.9-0.6,2-0.9,0.9-2.2c-0.7-0.9-1.3-3.9-1.3-6.7c0-4-0.4-5.1-1.7-5.4
			C158.6,185,158.3,185.7,158.3,189.4z"/>
		
			<linearGradient id="region-3-2_00000044172673743339592060000014092293027997777315_" gradientUnits="userSpaceOnUse" x1="-453.7587" y1="501.2736" x2="-452.7308" y2="501.4539" gradientTransform="matrix(5.9521 0 0 3.9492 2887.5952 -1782.8225)">
			<stop  offset="0" style="stop-color:#E3F9FB;stop-opacity:0.649"/>
			<stop  offset="1" style="stop-color:#E8FFFF;stop-opacity:0.669"/>
		</linearGradient>
		<path id="region-3-2" style="fill:url(#region-3-2_00000044172673743339592060000014092293027997777315_);" d="M188,195.7
			c-1.7,1.7-0.5,3.4,2.4,3.4c2.4,0,3-0.4,2.7-1.8C192.8,195.6,189.3,194.4,188,195.7z"/>
		
			<linearGradient id="region-3-3_00000083789258131965493940000002473539212036616093_" gradientUnits="userSpaceOnUse" x1="-480.534" y1="511.4124" x2="-479.327" y2="511.0617" gradientTransform="matrix(8.2751 0 0 15.8194 4115.1436 -7869.127)">
			<stop  offset="0" style="stop-color:#EDF7FC;stop-opacity:0.786"/>
			<stop  offset="1" style="stop-color:#EAF6FB;stop-opacity:0.75"/>
		</linearGradient>
		<path id="region-3-3" style="fill:url(#region-3-3_00000083789258131965493940000002473539212036616093_);" d="M142.4,212
			c-2.1,2.1-3.7,10-2.7,12.7c0.3,0.9,1.5,1.4,2.8,1.2c2-0.3,2.3-0.8,2-4.1c-0.2-2.5,0.3-4.9,1.6-7.1c1.1-1.9,1.8-3.7,1.5-4
			C146.4,209.6,144.3,210.1,142.4,212z"/>
		
			<linearGradient id="region-3-4_00000026132828974061554140000011129985798665655944_" gradientUnits="userSpaceOnUse" x1="-498.7878" y1="504.9037" x2="-497.8011" y2="503.7799" gradientTransform="matrix(11.3 0 0 5.1341 5834.3999 -2376.9182)">
			<stop  offset="0" style="stop-color:#E3F5F9;stop-opacity:0.779"/>
			<stop  offset="1" style="stop-color:#EDFEFF;stop-opacity:0.814"/>
		</linearGradient>
		<path id="region-3-4" style="fill:url(#region-3-4_00000026132828974061554140000011129985798665655944_);" d="M200.3,212.6
			c2.3,2.5,9,3.6,9,1.6c0-3.2-1.4-4.1-6.3-4.1h-5L200.3,212.6z"/>
		
			<linearGradient id="region-3-5_00000160884865559929033210000012235210548772604586_" gradientUnits="userSpaceOnUse" x1="-491.9992" y1="501.6937" x2="-490.9857" y2="501.4687" gradientTransform="matrix(9.9395 0 0 4 5089.854 -1784.0126)">
			<stop  offset="0" style="stop-color:#E2F4F8;stop-opacity:0.744"/>
			<stop  offset="1" style="stop-color:#EAFCFF;stop-opacity:0.776"/>
		</linearGradient>
		<path id="region-3-5" style="fill:url(#region-3-5_00000160884865559929033210000012235210548772604586_);" d="M202.1,221.2
			c-3.2,1.8-1.9,2.9,3.2,2.9c4.3,0,5-0.3,5-2c0-1.6-0.7-2-3.2-2C205.3,220.1,203,220.6,202.1,221.2z"/>
		
			<linearGradient id="region-3-6_00000113319296484490102920000005382876437335850889_" gradientUnits="userSpaceOnUse" x1="-534.7449" y1="513.5467" x2="-534.7449" y2="514.5467" gradientTransform="matrix(41.2434 0 0 114.4351 22138.0215 -58501.3477)">
			<stop  offset="0" style="stop-color:#F1FBFC;stop-opacity:0.753"/>
			<stop  offset="1" style="stop-color:#EBFBFB;stop-opacity:0.833"/>
		</linearGradient>
		<path id="region-3-6" style="fill:url(#region-3-6_00000113319296484490102920000005382876437335850889_);" d="M97.2,273.8
			c-19.2,24.1-30.1,50-33.9,80.5c-1,8.3-0.9,9.1,1.6,16.7c4.4,13.3,5,13.2,5.7-1c0.8-15.8,5.3-37.3,10.7-50.4
			c3.6-8.7,8.2-18.2,12.1-24.8c2.6-4.3,5.4-10.8,6.3-14.4c1-3.6,2.4-8.2,3.2-10.1c0.8-1.9,1.2-3.7,1-3.9
			C103.7,266.1,100.7,269.5,97.2,273.8z"/>
		
			<linearGradient id="region-3-7_00000010298274966657484720000014594532516750080414_" gradientUnits="userSpaceOnUse" x1="-539.7322" y1="514.4214" x2="-538.6744" y2="513.4922" gradientTransform="matrix(61 0 0 95.7316 33148 -48887.8945)">
			<stop  offset="0" style="stop-color:#D1E6F4;stop-opacity:0.632"/>
			<stop  offset="1" style="stop-color:#FFFFFF;stop-opacity:0.877"/>
		</linearGradient>
		<path id="region-3-7" style="fill:url(#region-3-7_00000010298274966657484720000014594532516750080414_);" d="M226.3,266.5
			c0,0.3,1.7,2.3,3.8,4.4c12.2,11.9,32.7,45.4,37.2,60.5c1,3.4,3.8,10.9,6.2,16.6c3.4,8.2,5,10.8,7.3,12.2c3.9,2.3,6.5,2.4,6.5,0.1
			c-0.1-3.1-2.7-13.5-6.3-24.7c-2-6.1-4.5-14.3-5.7-18.2c-2-7.1-9.9-23.5-15.3-32c-3.5-5.5-7.2-8.1-19.2-13.5
			C230.1,267,226.3,265.6,226.3,266.5z"/>
	</g>
</g>
<g id="图层_3_00000127011260652902401570000009244947747530126491_">
	<g id="layer-1_00000178910563488300050980000012306026795590611386_">
		
			<linearGradient id="region-1-1_00000101072521046951061170000009664129514612452513_" gradientUnits="userSpaceOnUse" x1="-537.1013" y1="513.6168" x2="-537.1013" y2="514.6168" gradientTransform="matrix(81.0891 0 0 135.3766 44093.832 -69482.9531)">
			<stop  offset="0" style="stop-color:#114540;stop-opacity:0.999"/>
			<stop  offset="1" style="stop-color:#001C18"/>
		</linearGradient>
		
			<path id="region-1-1_00000120535730210386255460000011026185732885160086_" style="fill:url(#region-1-1_00000101072521046951061170000009664129514612452513_);" d="
			M522.3,49.3c-22.4,2.1-25.3,5.6-19.5,24.3c3,9.7,3.1,13.8,0.5,24c-2.5,9.8-2.5,13.1,0,21.5c2.9,9.8,3.8,18.1,2.7,25
			c-0.9,5.6-0.8,6.1,1.4,7.9l2.4,1.9l-4.2,1.2l-4.1,1.3l0.1,12.8l0.1,12.9h4.3c2.4,0,4.3,0.4,4.3,1c0,0.5,1.8,1,4,1s4-0.4,4-1
			s9.7-0.9,27-0.7l26.9,0.2l0.3-3c0.3-2.8,0.6-3,4.6-3.3l4.2-0.3v-7.5v-7.4h-4c-3.4,0-4.1-0.4-4.6-2.5c-0.8-3.1-3.1-4.5-7.6-4.5
			c-3.4-0.1-3.2-0.6,1.7-3.5c1.7-1,1.7-1.5,0.1-8.5c-1.8-7.9-1.6-12.9,1-23c2.1-8,1.9-15.6-0.6-23c-3.3-9.7-3.5-15.2-1.1-24.7
			c1.2-4.5,2.1-9.4,2.1-11c0-2.8-3.3-9.2-4.7-9.4c-0.5,0-1.7-0.2-2.8-0.5c-1.1-0.2-6.7-0.7-12.5-0.9c-5.8-0.3-12.1-0.7-14-0.8
			C532.4,48.6,527,48.8,522.3,49.3z"/>
		
			<linearGradient id="region-1-2_00000158729935633774232360000002655162591880807088_" gradientUnits="userSpaceOnUse" x1="-500.7652" y1="512.5134" x2="-499.812" y2="513.5519" gradientTransform="matrix(19.1611 0 0 34.8114 10078.1338 -17679.0723)">
			<stop  offset="0" style="stop-color:#615444"/>
			<stop  offset="1" style="stop-color:#4A3E2E"/>
		</linearGradient>
		
			<path id="region-1-2_00000112616362663858298030000005108024307738007204_" style="fill:url(#region-1-2_00000158729935633774232360000002655162591880807088_);" d="
			M483.9,165.8c-0.3,2.1-0.6,9.9-0.8,17.3c-0.3,11.4-0.1,13.5,1.2,13.8c2.5,0.4,7-9.8,7-15.8v-5h4.5c4.1,0,4.5-0.2,4.5-2.5
			c0-1.4,0.5-2.5,1.1-2.5c1.7,0,0.2-6.2-1.8-7.8c-1-0.7-4.6-1.2-8.4-1.2h-6.7L483.9,165.8z"/>
		
			<linearGradient id="region-1-3_00000013899952221097881110000001219142225598657175_" gradientUnits="userSpaceOnUse" x1="-544.9587" y1="513.8372" x2="-544.9587" y2="514.8372" gradientTransform="matrix(261.0063 0 0 318.6939 142778.7656 -163574.4062)">
			<stop  offset="0" style="stop-color:#2F776D;stop-opacity:0.99"/>
			<stop  offset="1" style="stop-color:#4F9981;stop-opacity:0.99"/>
		</linearGradient>
		
			<path id="region-1-3_00000001657246154594659000000017934542730276017319_" style="fill:url(#region-1-3_00000013899952221097881110000001219142225598657175_);" d="
			M518.3,183.2c0,0.5-1.6,0.9-3.5,0.9h-3.5v6.6c0,6.3-2,12.9-4.3,14.5c-0.6,0.4-2.6,1-4.7,1.3c-6,0.9-8.6,4.2-10,12.4
			c-1.4,8.6-3,10.8-12.5,17.2c-4,2.7-8.2,6.1-9.3,7.5s-2.4,2.5-2.9,2.5c-0.8,0-7.6,7-16.3,17c-5.9,6.7-17.7,25.6-22.9,36.5
			c-2.9,6-5.9,12.2-6.7,13.6c-1.3,2.6-2.7,7.2-6.4,21c-1.8,7-2.3,10.1-4.1,29.4c-3.2,33.6,6.8,79.5,22.4,102.5
			c7.6,11.1,22.7,24.5,34.5,30.4c2.9,1.5,5,3.1,4.7,3.6c-0.8,1.3,76.8,1.3,111.7,0l26.7-1l10-6c12.6-7.7,18.6-12.7,25.6-21.5
			c16.1-20.3,24.5-49.6,24.8-87.1c0.1-14.7-0.5-21.1-3.4-35.4c-1.8-9.3-5.7-23.5-7.8-28.5c-0.5-1.1-2.1-5.2-3.7-9
			c-3.3-8.2-9.8-20.7-13.1-25.1c-1.3-1.7-2.3-3.6-2.3-4.2c0-0.7-0.8-2-1.7-3c-1-0.9-3.4-4.2-5.5-7.2c-5.6-8.4-15.6-19.6-22-24.5
			c-1.4-1.1-4.4-3.7-6.6-5.7c-4.2-3.9-17-12.8-18.4-12.8c-1.3,0-3.8-5.7-3.8-8.7c0-3.8-2.2-9.8-4.5-12.3c-1-1.1-3.7-2.5-5.9-3.1
			c-7.1-1.8-7.4-1.9-8.2-3.7c-0.4-0.9-1-5.5-1.3-10.2l-0.6-8.5l-22.2-0.2C527.5,182.3,518.3,182.6,518.3,183.2z M555.8,374.5
			c6.6,3.1,9.2,5.7,12.4,12.5c3.6,7.6,3.6,18.3,0.1,25.5c-6.9,14.2-23,20.5-36.3,14.2c-7.4-3.5-10.8-6.5-13.7-12.2
			c-2.9-5.8-3.9-17.2-2-23.8c2.2-8.1,11.5-16.2,21.4-18.7C542.3,370.8,550.2,371.9,555.8,374.5z"/>
		
			<linearGradient id="region-1-4_00000098218344150356360830000000371815954471428225_" gradientUnits="userSpaceOnUse" x1="-543.8522" y1="511.7464" x2="-543.7897" y2="515.5576" gradientTransform="matrix(198.6155 0 0 23.1 108558.2891 -11324.4004)">
			<stop  offset="0" style="stop-color:#71706E"/>
			<stop  offset="1" style="stop-color:#9B9A99"/>
		</linearGradient>
		
			<path id="region-1-4_00000150788420181572480530000017635034632298379398_" style="fill:url(#region-1-4_00000098218344150356360830000000371815954471428225_);" d="
			M612.7,498.1c-2.5,2.5-139.4,4.4-141,1.9c-0.5-0.8-4.2-1-12.1-0.7c-10.5,0.5-11.7,0.8-13.8,2.9c-1.2,1.3-2.6,3.7-2.9,5.2
			c-0.6,2.6-0.3,2.9,5.6,5.7c8.5,4,19,4.7,87.2,6.1l54.1,1l24-2.5c13.3-1.4,24.8-2.6,25.8-2.6c1.4,0,1.7-1.1,1.7-6.8v-6.8l-4.5-2.2
			c-3.7-1.8-6.3-2.2-13.8-2.2C617.9,497.1,613.3,497.5,612.7,498.1z"/>
	</g>
	<g id="layer-2_00000035495553376669649390000015268728775743158949_">
		
			<linearGradient id="region-2-1_00000083080492799562120630000011902684255872609965_" gradientUnits="userSpaceOnUse" x1="-392.6694" y1="503.7165" x2="-392.6694" y2="504.7165" gradientTransform="matrix(8.1968 0 0 7.6697 4081.0217 -3835.884)">
			<stop  offset="0" style="stop-color:#F5FCFD;stop-opacity:0.79"/>
			<stop  offset="1" style="stop-color:#F9FDFF;stop-opacity:0.806"/>
		</linearGradient>
		
			<path id="region-2-1_00000064347147362738142560000018435969828140881285_" style="fill:url(#region-2-1_00000083080492799562120630000011902684255872609965_);stroke:#000000;stroke-miterlimit:10;" d="
			M860.4,29c-2.9,2.9-2.8,6.1,0.3,6.1c1.7,0,3-1,4.5-3.5c1.1-1.9,1.6-3.5,1.1-3.5c-0.4,0-1.5-0.3-2.3-0.6
			C863.1,27.2,861.5,27.9,860.4,29z"/>
		
			<linearGradient id="region-2-2_00000093856790569324458800000007264012177576543621_" gradientUnits="userSpaceOnUse" x1="-363.0803" y1="494.1125" x2="-363.0803" y2="495.1125" gradientTransform="matrix(6.8887 0 0 3.9659 3401.0256 -1931.8555)">
			<stop  offset="0" style="stop-color:#EEFFFF;stop-opacity:0.813"/>
			<stop  offset="1" style="stop-color:#F0FFFF;stop-opacity:0.817"/>
		</linearGradient>
		
			<path id="region-2-2_00000037659654609740696960000016681777598382530196_" style="fill:url(#region-2-2_00000093856790569324458800000007264012177576543621_);stroke:#000000;stroke-miterlimit:10;" d="
			M899.1,27.9c-3.5,0.4-3.6,1.9-0.2,3.2c2.9,1.1,4.4,0.6,4.4-1.5C903.3,27.8,902.4,27.4,899.1,27.9z"/>
		
			<linearGradient id="region-2-3_00000039107361987232639800000014925814466592487316_" gradientUnits="userSpaceOnUse" x1="-415.076" y1="511.3264" x2="-415.076" y2="512.3264" gradientTransform="matrix(9.5733 0 0 29.5 4838.3203 -15031)">
			<stop  offset="0" style="stop-color:#F2FDFF;stop-opacity:0.777"/>
			<stop  offset="1" style="stop-color:#FFFFFF;stop-opacity:0.828"/>
		</linearGradient>
		
			<path id="region-2-3_00000011711268758399827950000006569925470081877648_" style="fill:url(#region-2-3_00000039107361987232639800000014925814466592487316_);stroke:#000000;stroke-miterlimit:10;" d="
			M862.9,57.9c0.4,3.3,0,6.9-1.2,11.3c-0.9,3.5-1.8,8-1.8,9.9c-0.1,3,0.2,3.5,2.2,3.5c1.9,0,2.7-1.1,4.8-7c2.8-8,3.3-13.4,1.5-18.8
			c-1-2.9-1.8-3.7-3.7-3.7C862.3,53.1,862.3,53.3,862.9,57.9z"/>
		
			<linearGradient id="region-2-4_00000075131657729613881100000006848190752420293802_" gradientUnits="userSpaceOnUse" x1="-420.7713" y1="510.9485" x2="-420.7713" y2="511.9485" gradientTransform="matrix(10.0002 0 0 25.8468 5108.0869 -13153.0908)">
			<stop  offset="0" style="stop-color:#E5F2F7;stop-opacity:0.771"/>
			<stop  offset="1" style="stop-color:#F1FEFF;stop-opacity:0.818"/>
		</linearGradient>
		
			<path id="region-2-4_00000005241030946071672710000002422974881766912910_" style="fill:url(#region-2-4_00000075131657729613881100000006848190752420293802_);stroke:#000000;stroke-miterlimit:10;" d="
			M895.9,55.3c-1.1,4.2-0.7,6.6,1.3,7.3c1.1,0.3,2.5,1.2,3.1,2c1,1.2,0.7,1.9-1.5,3.8c-2.6,2.2-2.7,2.4-1.4,6.5
			c1.1,3.8,1.5,4.2,4.6,4.2c2.8,0,3.3-0.3,3.3-2.4c0-1.4-0.5-3.7-1.1-5.3c-0.7-1.5-1.5-6.2-1.8-10.3c-0.6-7.2-0.7-7.5-3.2-7.8
			C897.2,53.1,896.4,53.5,895.9,55.3z"/>
		
			<linearGradient id="region-2-5_00000180360893964478376050000002618081065480236211_" gradientUnits="userSpaceOnUse" x1="-383.8892" y1="509.594" x2="-383.8892" y2="510.594" gradientTransform="matrix(7.7596 0 0 17.9009 3846.2378 -9018.9775)">
			<stop  offset="0" style="stop-color:#EEF6F9;stop-opacity:0.781"/>
			<stop  offset="1" style="stop-color:#F7FFFF;stop-opacity:0.815"/>
		</linearGradient>
		
			<path id="region-2-5_00000065035685504011599950000015903514776335171487_" style="fill:url(#region-2-5_00000180360893964478376050000002618081065480236211_);stroke:#000000;stroke-miterlimit:10;" d="
			M866,103.8c-1.5,0.4-1.7,1.5-1.5,6.6c0.1,3.4-0.2,7.2-0.6,8.4c-0.7,2-0.5,2.3,1.7,2.3c2.7,0,5.7-3.6,5.7-7c0-3-2.1-11-2.9-10.9
			C868.1,103.3,867,103.5,866,103.8z"/>
		
			<linearGradient id="region-2-6_00000142889509052042847010000002030638357863263125_" gradientUnits="userSpaceOnUse" x1="-372.6569" y1="508.3663" x2="-372.6569" y2="509.3663" gradientTransform="matrix(7.2639 0 0 14 3607.177 -7012)">
			<stop  offset="0" style="stop-color:#E3F6FA;stop-opacity:0.784"/>
			<stop  offset="1" style="stop-color:#E9FDFF;stop-opacity:0.81"/>
		</linearGradient>
		
			<path id="region-2-6_00000015343549803612453930000009334971962847633816_" style="fill:url(#region-2-6_00000142889509052042847010000002030638357863263125_);stroke:#000000;stroke-miterlimit:10;" d="
			M896.9,108.8c-0.4,2.8-0.2,4.1,0.9,4.9c2,1.5,1.9,2.4-0.1,2.4c-1.4,0-1.4,0.3-0.4,1.5c0.7,0.8,2.6,1.5,4.2,1.5
			c2.6,0,2.8-0.2,1.8-2.1c-0.7-1.1-0.9-2.8-0.6-3.6c0.4-0.9,0.4-3.1,0-4.9c-0.5-2.7-1.1-3.4-2.9-3.4S897.4,105.8,896.9,108.8z"/>
		
			<linearGradient id="region-2-7_00000053530377648091235000000018208097397628001179_" gradientUnits="userSpaceOnUse" x1="-532.4937" y1="511.3604" x2="-532.4937" y2="512.3605" gradientTransform="matrix(79.8 0 0 29.8807 43387.4023 -15152.5674)">
			<stop  offset="0" style="stop-color:#FFEDC4;stop-opacity:0.747"/>
			<stop  offset="1" style="stop-color:#FFEAB8;stop-opacity:0.694"/>
		</linearGradient>
		
			<path id="region-2-7_00000115492476302204649600000001231769498021544883_" style="fill:url(#region-2-7_00000053530377648091235000000018208097397628001179_);stroke:#000000;stroke-miterlimit:10;" d="
			M857.6,128.3l-3.1,1l0.1,12.9l0.1,12.9h4.3c2.4,0,4.3,0.4,4.3,1c0,0.5,1.8,1,4,1s4-0.4,4-1s9.7-0.9,27-0.7l26.9,0.2l0.3-3
			c0.3-2.8,0.6-3,4.6-3.3l4.2-0.3v-7.5v-7.4h-4c-3.4,0-4.1-0.4-4.6-2.5c-0.3-1.4-1.4-3-2.4-3.5C920.8,126.8,861.8,127,857.6,128.3z"
			/>
		
			<linearGradient id="region-2-8_00000157987502414595326390000009721581365047015358_" gradientUnits="userSpaceOnUse" x1="-543.1226" y1="513.3836" x2="-542.9812" y2="514.9722" gradientTransform="matrix(233.7366 0 0 136.0701 127817.9375 -69705.7578)">
			<stop  offset="0" style="stop-color:#000C0A;stop-opacity:0.815"/>
			<stop  offset="1" style="stop-color:#004544;stop-opacity:0.758"/>
		</linearGradient>
		
			<path id="region-2-8_00000056409749152831765010000010723997314357405585_" style="fill:url(#region-2-8_00000157987502414595326390000009721581365047015358_);stroke:#000000;stroke-miterlimit:10;" d="
			M871.3,156.2c0,0.5-1.6,0.9-3.5,0.9h-3.5v6.6c0,6.3-2,12.9-4.3,14.5c-0.6,0.4-2.6,1-4.7,1.3c-6,0.9-8.6,4.2-10,12.4
			c-1.4,8.6-3,10.8-12.5,17.2c-4,2.7-8.2,6.1-9.3,7.5s-2.4,2.5-2.9,2.5c-0.8,0-7.6,7-16.3,17c-5.9,6.7-17.7,25.6-22.9,36.5
			c-2.9,6-5.9,12.2-6.7,13.7c-1.5,2.7-1.4,2.7,2.8,3.9c5.9,1.6,63.5,1.7,84.3,0.1c33.5-2.5,37.4-3.1,49.3-7.8
			c4.9-1.9,9.4-2.7,19.5-3.4c18.2-1.3,30-1.2,33.4,0.1c1.7,0.8,10.5,1.2,23.4,1.3c18,0.1,20.6-0.1,20.1-1.4
			c-1.2-3.2-8.7-16.6-10.9-19.6c-1.3-1.7-2.3-3.6-2.3-4.2c0-0.7-0.8-2-1.7-3c-1-0.9-3.4-4.2-5.5-7.2c-5.6-8.4-15.6-19.6-22-24.5
			c-1.4-1.1-4.4-3.7-6.6-5.7c-4.2-3.9-17-12.8-18.4-12.8c-1.3,0-3.8-5.7-3.8-8.7c0-3.8-2.2-9.8-4.5-12.3c-1-1.1-3.7-2.5-5.9-3.1
			c-7.1-1.8-7.4-1.9-8.2-3.7c-0.4-0.9-1-5.5-1.3-10.2l-0.6-8.5l-22.2-0.2C880.5,155.3,871.3,155.6,871.3,156.2z"/>
		
			<linearGradient id="region-2-9_00000168805530032892636920000013110074575487451266_" gradientUnits="userSpaceOnUse" x1="-532.7033" y1="513.0554" x2="-532.7033" y2="514.0554" gradientTransform="matrix(80.8592 0 0 83.5013 43985.8516 -42516.1797)">
			<stop  offset="0" style="stop-color:#001607;stop-opacity:0.723"/>
			<stop  offset="1" style="stop-color:#14362D;stop-opacity:0.814"/>
		</linearGradient>
		
			<path id="region-2-9_00000129193285391655665030000001122832283537368990_" style="fill:url(#region-2-9_00000168805530032892636920000013110074575487451266_);stroke:#000000;stroke-miterlimit:10;" d="
			M905.2,325.6c-13.4,4.9-27.5,16.1-31.5,25.2c-3.3,7.4-3,8.4,1,3.7c8-9.4,22.4-12.5,33.6-7.2c7.1,3.3,9.7,5.8,12.9,12.7
			c5.2,11.2,2.9,25.3-5.7,33.9c-3.9,3.8-12.7,8.2-17,8.3l-2.7,0.1l2.5,0.7c1.4,0.5,4.4,1.8,6.7,2.9c3.6,1.9,5.9,2.2,15.1,2.2
			c10.1,0,11.3-0.2,15.8-2.7c7.4-4.1,12.7-10,14.7-16.2c1.3-4.2,1.7-9,1.7-22.6c0-9.5-0.4-17.5-0.8-17.7c-0.5-0.2-2.2-2.8-3.9-5.8
			c-4.8-8.3-12.6-16.6-16.5-17.4C924.7,324.3,908.9,324.2,905.2,325.6z"/>
		
			<linearGradient id="region-2-10_00000019661610494462820060000013376794291742108057_" gradientUnits="userSpaceOnUse" x1="-512.8323" y1="512.4216" x2="-512.8323" y2="513.4216" gradientTransform="matrix(35.8113 0 0 49.9707 19210.4766 -25226.3301)">
			<stop  offset="0" style="stop-color:#E2FAF9;stop-opacity:0.794"/>
			<stop  offset="1" style="stop-color:#E5FFFF;stop-opacity:0.81"/>
		</linearGradient>
		
			<path id="region-2-10_00000008844184349218941030000000198827337592922555_" style="fill:url(#region-2-10_00000019661610494462820060000013376794291742108057_);stroke:#000000;stroke-miterlimit:10;" d="
			M829.1,379.9c-2.4,0.5-2.3,3.8,0.2,12.1c3.9,13,13.4,25.2,26.1,33.7c7.1,4.7,10.2,5.4,5.6,1.2c-1.4-1.3-4.3-4.6-6.4-7.4
			c-2.1-2.8-6.2-8-9.2-11.5c-6.2-7.4-9.6-14-11.2-22.1C833,380.2,832.2,379.2,829.1,379.9z"/>
		
			<linearGradient id="region-2-11_00000061443214020767435070000015978075938996215998_" gradientUnits="userSpaceOnUse" x1="-539.4561" y1="506.7358" x2="-538.5222" y2="511.639" gradientTransform="matrix(140.1492 0 0 10.9814 76490.4219 -5093.2915)">
			<stop  offset="0" style="stop-color:#002500;stop-opacity:0.656"/>
			<stop  offset="1" style="stop-color:#008959;stop-opacity:0.393"/>
		</linearGradient>
		
			<path id="region-2-11_00000086671481983156472800000015732352360492872842_" style="fill:url(#region-2-11_00000061443214020767435070000015978075938996215998_);stroke:#000000;stroke-miterlimit:10;" d="
			M934.8,473.2c-9.9,0.3-38.5,0.7-63.5,0.8l-45.5,0.2l2.8,2.2c1.5,1.3,2.7,2.8,2.7,3.5c0,0.8,1.8,1.2,5.3,1.2
			c2.8,0.1,19.9,0.7,37.9,1.4c34.5,1.4,44.5,1,72.3-2.9c14.9-2.1,19.7-3.4,19.1-5.2c-0.4-0.8-0.6-1.7-0.6-1.9
			C965.3,472.1,960.9,472.1,934.8,473.2z"/>
	</g>
	<g id="layer-3_00000147196515110987718220000000870818118209804673_">
		
			<linearGradient id="region-3-1_00000173125641888608999360000001201367325971336359_" gradientUnits="userSpaceOnUse" x1="-284.3222" y1="508.2435" x2="-284.3222" y2="509.2435" gradientTransform="matrix(6.1788 0 0 14.5053 2982.5005 -7218.6104)">
			<stop  offset="0" style="stop-color:#E5F6F9;stop-opacity:0.707"/>
			<stop  offset="1" style="stop-color:#ECFEFF;stop-opacity:0.735"/>
		</linearGradient>
		
			<path id="region-3-1_00000125594495852566224500000014162145826204972952_" style="fill:url(#region-3-1_00000173125641888608999360000001201367325971336359_);stroke:#000000;stroke-miterlimit:10;" d="
			M1223.3,157.8c0,2.5-0.2,5.1-0.5,5.9c-0.9,2.4,1.9,5.1,4.4,4.3c1.9-0.6,2-0.9,0.9-2.2c-0.7-0.9-1.3-3.9-1.3-6.7
			c0-4-0.4-5.1-1.7-5.4C1223.6,153.4,1223.3,154.1,1223.3,157.8z"/>
		
			<linearGradient id="region-3-2_00000110435058997482914410000011235506006427586232_" gradientUnits="userSpaceOnUse" x1="-274.8288" y1="493.2646" x2="-273.8009" y2="493.4449" gradientTransform="matrix(5.9521 0 0 3.9492 2887.5952 -1782.8225)">
			<stop  offset="0" style="stop-color:#E3F9FB;stop-opacity:0.649"/>
			<stop  offset="1" style="stop-color:#E8FFFF;stop-opacity:0.669"/>
		</linearGradient>
		
			<path id="region-3-2_00000057149361379887932050000001660290843124518299_" style="fill:url(#region-3-2_00000110435058997482914410000011235506006427586232_);stroke:#000000;stroke-miterlimit:10;" d="
			M1253,164.1c-1.7,1.7-0.5,3.4,2.4,3.4c2.4,0,3-0.4,2.7-1.8C1257.8,164,1254.3,162.8,1253,164.1z"/>
		
			<linearGradient id="region-3-3_00000115513059251121558350000018067901459936600963_" gradientUnits="userSpaceOnUse" x1="-351.8352" y1="509.413" x2="-350.6282" y2="509.0624" gradientTransform="matrix(8.2751 0 0 15.8194 4115.1436 -7869.127)">
			<stop  offset="0" style="stop-color:#EDF7FC;stop-opacity:0.786"/>
			<stop  offset="1" style="stop-color:#EAF6FB;stop-opacity:0.75"/>
		</linearGradient>
		
			<path id="region-3-3_00000044885153432285906450000015209778580927279272_" style="fill:url(#region-3-3_00000115513059251121558350000018067901459936600963_);stroke:#000000;stroke-miterlimit:10;" d="
			M1207.4,180.4c-2.1,2.1-3.7,10-2.7,12.7c0.3,0.9,1.5,1.4,2.8,1.2c2-0.3,2.3-0.8,2-4.1c-0.2-2.5,0.3-4.9,1.6-7.1
			c1.1-1.9,1.8-3.7,1.5-4C1211.4,178,1209.3,178.5,1207.4,180.4z"/>
		
			<linearGradient id="region-3-4_00000055702780035146615520000005527583265179016080_" gradientUnits="userSpaceOnUse" x1="-404.54" y1="498.7432" x2="-403.5534" y2="497.6194" gradientTransform="matrix(11.3 0 0 5.1341 5834.3999 -2376.9182)">
			<stop  offset="0" style="stop-color:#E3F5F9;stop-opacity:0.779"/>
			<stop  offset="1" style="stop-color:#EDFEFF;stop-opacity:0.814"/>
		</linearGradient>
		
			<path id="region-3-4_00000174590546027437652090000014851441076029716878_" style="fill:url(#region-3-4_00000055702780035146615520000005527583265179016080_);stroke:#000000;stroke-miterlimit:10;" d="
			M1265.3,181c2.3,2.5,9,3.6,9,1.6c0-3.2-1.4-4.1-6.3-4.1h-5L1265.3,181z"/>
		
			<linearGradient id="region-3-5_00000026138259436146384930000005920892969297988281_" gradientUnits="userSpaceOnUse" x1="-384.8511" y1="493.7866" x2="-383.8376" y2="493.5616" gradientTransform="matrix(9.9395 0 0 4 5089.854 -1784.0126)">
			<stop  offset="0" style="stop-color:#E2F4F8;stop-opacity:0.744"/>
			<stop  offset="1" style="stop-color:#EAFCFF;stop-opacity:0.776"/>
		</linearGradient>
		
			<path id="region-3-5_00000006697975323072820050000010966822389635029181_" style="fill:url(#region-3-5_00000026138259436146384930000005920892969297988281_);stroke:#000000;stroke-miterlimit:10;" d="
			M1267.1,189.6c-3.2,1.8-1.9,2.9,3.2,2.9c4.3,0,5-0.3,5-2c0-1.6-0.7-2-3.2-2C1270.3,188.5,1268,189,1267.1,189.6z"/>
		
			<linearGradient id="region-3-6_00000170994170230986239730000004367108005494144691_" gradientUnits="userSpaceOnUse" x1="-508.9226" y1="513.2703" x2="-508.9226" y2="514.2703" gradientTransform="matrix(41.2434 0 0 114.4351 22138.0215 -58501.3477)">
			<stop  offset="0" style="stop-color:#F1FBFC;stop-opacity:0.753"/>
			<stop  offset="1" style="stop-color:#EBFBFB;stop-opacity:0.833"/>
		</linearGradient>
		
			<path id="region-3-6_00000020365985862752293520000013085635491603812771_" style="fill:url(#region-3-6_00000170994170230986239730000004367108005494144691_);stroke:#000000;stroke-miterlimit:10;" d="
			M1162.2,242.2c-19.2,24.1-30.1,50-33.9,80.5c-1,8.3-0.9,9.1,1.6,16.7c4.4,13.3,5,13.2,5.7-1c0.8-15.8,5.3-37.3,10.7-50.4
			c3.6-8.7,8.2-18.2,12.1-24.8c2.6-4.3,5.4-10.8,6.3-14.4c1-3.6,2.4-8.2,3.2-10.1c0.8-1.9,1.2-3.7,1-3.9
			C1168.7,234.5,1165.7,237.9,1162.2,242.2z"/>
		
			<linearGradient id="region-3-7_00000176004652553538325630000005131967343242160550_" gradientUnits="userSpaceOnUse" x1="-522.2731" y1="514.0911" x2="-521.2153" y2="513.1619" gradientTransform="matrix(61 0 0 95.7316 33148 -48887.8945)">
			<stop  offset="0" style="stop-color:#D1E6F4;stop-opacity:0.632"/>
			<stop  offset="1" style="stop-color:#FFFFFF;stop-opacity:0.877"/>
		</linearGradient>
		
			<path id="region-3-7_00000048497523886634087240000002317950665038389432_" style="fill:url(#region-3-7_00000176004652553538325630000005131967343242160550_);stroke:#000000;stroke-miterlimit:10;" d="
			M1291.3,234.9c0,0.3,1.7,2.3,3.8,4.4c12.2,11.9,32.7,45.4,37.2,60.5c1,3.4,3.8,10.9,6.2,16.6c3.4,8.2,5,10.8,7.3,12.2
			c3.9,2.3,6.5,2.4,6.5,0.1c-0.1-3.1-2.7-13.5-6.3-24.7c-2-6.1-4.5-14.3-5.7-18.2c-2-7.1-9.9-23.5-15.3-32
			c-3.5-5.5-7.2-8.1-19.2-13.5C1295.1,235.4,1291.3,234,1291.3,234.9z"/>
	</g>
</g>
</svg>
