<?xml version="1.0" standalone="no"?><!DOCTYPE svg PUBLIC "-//W3C//DTD SVG 20010904//EN" "http://www.w3.org/TR/2001/REC-SVG-20010904/DTD/svg10.dtd"><svg version="1.0" xmlns="http://www.w3.org/2000/svg" width="434pt" height="701pt" viewBox="0 0 434 701" preserveAspectRatio="xMidYMid meet"><defs><linearGradient id="linear-gradient-1-1" x1="0.00%" y1="100.00%" x2="17.96%" y2="-13.06%"><stop offset="0%" style="stop-color:rgb(237,227,175);stop-opacity:0.990" /><stop offset="100%" style="stop-color:rgb(238,228,175);stop-opacity:1.000" /></linearGradient><linearGradient id="linear-gradient-2-1" x1="0.00%" y1="100.00%" x2="0.00%" y2="0.00%"><stop offset="0%" style="stop-color:rgb(50,72,168);stop-opacity:0.337" /><stop offset="100%" style="stop-color:rgb(50,79,138);stop-opacity:0.455" /></linearGradient><linearGradient id="linear-gradient-2-2" x1="0.00%" y1="100.00%" x2="42.28%" y2="-19.64%"><stop offset="0%" style="stop-color:rgb(0,93,11);stop-opacity:0.808" /><stop offset="100%" style="stop-color:rgb(0,114,24);stop-opacity:0.796" /></linearGradient><linearGradient id="linear-gradient-3-1" x1="0.00%" y1="100.00%" x2="0.00%" y2="-0.00%"><stop offset="0%" style="stop-color:rgb(233,234,235);stop-opacity:0.802" /><stop offset="100%" style="stop-color:rgb(248,247,249);stop-opacity:0.761" /></linearGradient><linearGradient id="linear-gradient-3-2" x1="0.00%" y1="100.00%" x2="0.00%" y2="0.00%"><stop offset="0%" style="stop-color:rgb(228,228,229);stop-opacity:0.771" /><stop offset="100%" style="stop-color:rgb(239,238,240);stop-opacity:0.801" /></linearGradient><linearGradient id="linear-gradient-3-3" x1="0.00%" y1="0.00%" x2="138.05%" y2="21.86%"><stop offset="0%" style="stop-color:rgb(87,247,85);stop-opacity:0.363" /><stop offset="100%" style="stop-color:rgb(133,251,161);stop-opacity:0.764" /></linearGradient><linearGradient id="linear-gradient-3-4" x1="0.00%" y1="100.00%" x2="1.18%" y2="-78.28%"><stop offset="0%" style="stop-color:rgb(158,144,163);stop-opacity:0.705" /><stop offset="100%" style="stop-color:rgb(191,176,195);stop-opacity:0.832" /></linearGradient><linearGradient id="linear-gradient-4-1" x1="0.00%" y1="100.00%" x2="0.00%" y2="0.00%"><stop offset="0%" style="stop-color:rgb(43,47,50);stop-opacity:0.384" /><stop offset="100%" style="stop-color:rgb(56,60,64);stop-opacity:0.324" /></linearGradient><linearGradient id="linear-gradient-4-2" x1="0.00%" y1="100.00%" x2="0.00%" y2="-0.00%"><stop offset="0%" style="stop-color:rgb(188,244,255);stop-opacity:0.647" /><stop offset="100%" style="stop-color:rgb(198,251,255);stop-opacity:0.687" /></linearGradient><linearGradient id="linear-gradient-4-3" x1="0.00%" y1="100.00%" x2="0.00%" y2="-0.00%"><stop offset="0%" style="stop-color:rgb(152,161,255);stop-opacity:0.611" /><stop offset="100%" style="stop-color:rgb(174,214,255);stop-opacity:0.747" /></linearGradient><linearGradient id="linear-gradient-4-4" x1="0.00%" y1="100.00%" x2="13.58%" y2="-667.97%"><stop offset="0%" style="stop-color:rgb(231,230,233);stop-opacity:0.800" /><stop offset="100%" style="stop-color:rgb(238,239,240);stop-opacity:0.799" /></linearGradient><linearGradient id="linear-gradient-5-1" x1="0.00%" y1="100.00%" x2="10.18%" y2="-227.66%"><stop offset="0%" style="stop-color:rgb(228,228,228);stop-opacity:0.670" /><stop offset="100%" style="stop-color:rgb(255,255,255);stop-opacity:0.801" /></linearGradient><linearGradient id="linear-gradient-5-2" x1="0.00%" y1="0.00%" x2="32.45%" y2="572.74%"><stop offset="0%" style="stop-color:rgb(169,170,171);stop-opacity:0.994" /><stop offset="100%" style="stop-color:rgb(255,255,255);stop-opacity:0.627" /></linearGradient><linearGradient id="linear-gradient-5-3" x1="0.00%" y1="100.00%" x2="34.51%" y2="-472.47%"><stop offset="0%" style="stop-color:rgb(229,230,231);stop-opacity:0.801" /><stop offset="100%" style="stop-color:rgb(235,235,236);stop-opacity:0.797" /></linearGradient><linearGradient id="linear-gradient-5-4" x1="0.00%" y1="100.00%" x2="31.62%" y2="-17.04%"><stop offset="0%" style="stop-color:rgb(235,59,27);stop-opacity:0.807" /><stop offset="100%" style="stop-color:rgb(224,15,0);stop-opacity:0.805" /></linearGradient><linearGradient id="linear-gradient-5-5" x1="0.00%" y1="100.00%" x2="39.88%" y2="-15.94%"><stop offset="0%" style="stop-color:rgb(178,31,0);stop-opacity:0.800" /><stop offset="100%" style="stop-color:rgb(172,19,0);stop-opacity:0.812" /></linearGradient><linearGradient id="linear-gradient-5-6" x1="0.00%" y1="100.00%" x2="7.66%" y2="-5.27%"><stop offset="0%" style="stop-color:rgb(179,33,2);stop-opacity:0.797" /><stop offset="100%" style="stop-color:rgb(170,16,0);stop-opacity:0.816" /></linearGradient><linearGradient id="linear-gradient-5-7" x1="0.00%" y1="100.00%" x2="92.60%" y2="-7.23%"><stop offset="0%" style="stop-color:rgb(209,57,28);stop-opacity:0.808" /><stop offset="100%" style="stop-color:rgb(198,13,0);stop-opacity:0.799" /></linearGradient><linearGradient id="linear-gradient-6-1" x1="0.00%" y1="100.00%" x2="74.81%" y2="-133.88%"><stop offset="0%" style="stop-color:rgb(182,184,185);stop-opacity:0.710" /><stop offset="100%" style="stop-color:rgb(160,162,164);stop-opacity:0.825" /></linearGradient><linearGradient id="linear-gradient-6-2" x1="0.00%" y1="100.00%" x2="0.00%" y2="0.00%"><stop offset="0%" style="stop-color:rgb(188,190,191);stop-opacity:0.798" /><stop offset="100%" style="stop-color:rgb(192,194,196);stop-opacity:0.802" /></linearGradient><linearGradient id="linear-gradient-6-3" x1="0.00%" y1="100.00%" x2="0.00%" y2="-0.00%"><stop offset="0%" style="stop-color:rgb(159,246,255);stop-opacity:0.814" /><stop offset="100%" style="stop-color:rgb(152,247,255);stop-opacity:0.851" /></linearGradient><linearGradient id="linear-gradient-6-4" x1="0.00%" y1="100.00%" x2="102.79%" y2="4.40%"><stop offset="0%" style="stop-color:rgb(105,184,239);stop-opacity:0.694" /><stop offset="100%" style="stop-color:rgb(98,184,250);stop-opacity:0.739" /></linearGradient><linearGradient id="linear-gradient-6-5" x1="0.00%" y1="100.00%" x2="2.79%" y2="-3.83%"><stop offset="0%" style="stop-color:rgb(108,176,225);stop-opacity:0.756" /><stop offset="100%" style="stop-color:rgb(95,169,236);stop-opacity:0.806" /></linearGradient></defs><g id="layer-1"><path d="M0 3505 l0 -3505 2170 0 2170 0 0 3505 0 3505 -2170 0 -2170 0 0 -3505z" fill="url(#linear-gradient-1-1)" id="region-1-1" transform="translate(0.000000,701.000000) scale(0.100000,-0.100000)"/></g><g id="layer-2"><path d="M1865 6900 c-712 -42 -1137 -132 -1256 -268 -31 -35 -31 -36 -27 -128 4 -102 2 -98 100 -166 166 -114 598 -207 1113 -239 238 -15 781 -6 995 16 285 29 505 70 688 130 127 42 196 76 262 130 53 44 61 70 56 172 -2 45 -7 58 -36 89 -116 122 -521 216 -1095 254 -222 15 -629 20 -800 10z" fill="url(#linear-gradient-2-1)" id="region-2-1" transform="translate(0.000000,701.000000) scale(0.100000,-0.100000)"/><path d="M3734 6372 c-127 -115 -475 -210 -944 -257 -214 -22 -757 -31 -995 -16 -565 35 -987 134 -1153 268 -24 20 -44 34 -46 32 -11 -15 -228 -409 -258 -469 -74 -146 -68 79 -66 -2676 l3 -2479 29 -53 c35 -62 133 -158 203 -197 37 -22 54 -40 72 -79 53 -109 141 -167 356 -232 177 -54 214 -63 305 -83 325 -68 559 -85 1094 -78 350 4 446 9 571 26 360 49 718 145 845 227 55 34 105 93 143 165 22 40 60 90 101 129 45 43 77 85 99 129 l32 66 3 2440 c2 1740 0 2459 -8 2505 -18 101 -41 157 -143 337 -53 92 -115 204 -139 247 -24 44 -47 81 -53 82 -5 2 -29 -14 -51 -34z" fill="url(#linear-gradient-2-2)" id="region-2-2" transform="translate(0.000000,701.000000) scale(0.100000,-0.100000)"/></g><g id="layer-3"><path d="M1765 6860 c-578 -33 -1065 -141 -1134 -254 -27 -44 -26 -68 4 -104 100 -119 534 -225 1078 -263 232 -16 943 -7 1137 15 445 50 756 132 865 228 79 70 58 131 -68 192 -165 81 -475 142 -892 176 -177 15 -794 21 -990 10z" fill="url(#linear-gradient-3-1)" id="region-3-1" transform="translate(0.000000,701.000000) scale(0.100000,-0.100000)"/><path d="M3736 6451 c-9 -10 -45 -32 -79 -49 -173 -85 -465 -147 -886 -189 -218 -21 -901 -25 -1111 -5 -500 46 -817 116 -985 217 -32 20 -60 33 -63 30 -3 -3 17 -27 44 -53 233 -225 1323 -343 2219 -242 311 36 577 97 731 169 80 38 154 98 154 126 0 19 -3 19 -24 -4z" fill="url(#linear-gradient-3-2)" id="region-3-2" transform="translate(0.000000,701.000000) scale(0.100000,-0.100000)"/><path d="M640 6034 c-68 -92 -134 -188 -147 -214 -55 -114 -53 -26 -53 -2542 l0 -2320 24 -53 c65 -142 223 -242 522 -329 287 -83 480 -111 749 -110 193 0 218 3 307 27 183 49 319 145 381 268 l27 55 -3 2339 c-1 1287 -5 2349 -9 2361 -3 11 -13 43 -21 70 -28 96 -117 251 -186 327 -23 26 -29 27 -115 27 -438 1 -949 91 -1248 220 -51 22 -95 40 -98 40 -3 0 -61 -75 -130 -166z" fill="url(#linear-gradient-3-3)" id="region-3-3" transform="translate(0.000000,701.000000) scale(0.100000,-0.100000)"/><path d="M3860 498 c-342 -214 -853 -319 -1545 -317 -148 0 -306 5 -350 10 -44 5 -134 13 -201 19 -66 5 -145 14 -175 19 -108 20 -415 70 -464 76 -11 1 -27 5 -35 8 -8 3 -55 15 -103 27 -120 29 -257 75 -346 116 -41 19 -76 32 -79 29 -9 -9 64 -118 101 -150 42 -36 148 -83 272 -121 177 -54 214 -63 305 -83 325 -68 559 -85 1094 -78 350 4 446 9 571 26 278 38 538 98 705 163 165 65 220 109 284 231 20 37 35 67 33 67 -1 -1 -31 -19 -67 -42z" fill="url(#linear-gradient-3-4)" id="region-3-4" transform="translate(0.000000,701.000000) scale(0.100000,-0.100000)"/></g><g id="layer-4"><path d="M1745 6839 c-276 -15 -529 -46 -715 -88 -47 -11 -107 -24 -135 -31 -64 -14 -185 -87 -205 -122 -13 -25 -13 -31 0 -55 8 -14 42 -41 75 -60 162 -90 486 -154 930 -183 202 -13 785 -13 975 0 568 39 938 125 995 233 18 34 19 39 5 64 -58 104 -400 192 -905 233 -177 15 -824 21 -1020 9z" fill="url(#linear-gradient-4-1)" id="region-4-1" transform="translate(0.000000,701.000000) scale(0.100000,-0.100000)"/><path d="M3630 5694 c-181 -59 -447 -111 -755 -146 -176 -21 -905 -17 -1125 5 -224 23 -544 69 -732 105 -82 16 -148 25 -148 21 0 -10 36 -20 250 -69 442 -100 807 -142 1225 -142 363 0 668 32 956 103 215 52 449 130 449 150 0 12 1 12 -120 -27z" fill="url(#linear-gradient-4-2)" id="region-4-2" transform="translate(0.000000,701.000000) scale(0.100000,-0.100000)"/><path d="M4035 5188 c-169 -56 -295 -150 -415 -309 -113 -151 -191 -307 -290 -579 -68 -187 -124 -307 -188 -402 -98 -145 -202 -208 -356 -215 -115 -6 -227 16 -466 92 -229 73 -321 89 -475 82 -143 -6 -219 -25 -340 -81 -206 -97 -396 -286 -569 -565 -146 -237 -278 -565 -400 -998 l-46 -161 0 -343 c0 -189 4 -339 8 -333 5 5 19 36 32 69 70 180 170 345 260 428 128 119 249 113 374 -17 28 -30 56 -55 61 -57 6 -2 51 -51 101 -109 279 -321 460 -420 743 -408 251 12 444 95 630 273 144 138 226 260 436 646 186 342 236 418 340 524 112 113 171 146 270 153 58 4 81 0 118 -16 68 -30 115 -69 164 -136 l43 -58 0 1266 c0 696 -1 1266 -2 1265 -2 0 -16 -5 -33 -11z" fill="url(#linear-gradient-4-3)" id="region-4-3" transform="translate(0.000000,701.000000) scale(0.100000,-0.100000)"/><path d="M1116 234 c-14 -36 -5 -41 122 -67 317 -67 550 -87 988 -87 277 0 391 4 545 20 277 28 654 101 654 126 0 19 -86 14 -230 -15 -263 -52 -483 -71 -821 -71 -415 0 -957 45 -1155 96 -73 18 -95 18 -103 -2z" fill="url(#linear-gradient-4-4)" id="region-4-4" transform="translate(0.000000,701.000000) scale(0.100000,-0.100000)"/></g><g id="layer-5"><path d="M1730 6730 c-63 -4 -191 -8 -283 -9 -121 -1 -177 -5 -202 -16 -19 -7 -63 -17 -98 -21 -51 -6 -107 -23 -126 -40 -12 -10 63 -61 124 -85 168 -65 352 -83 809 -76 365 5 435 13 519 59 33 18 43 30 45 53 5 48 -34 95 -98 121 -53 22 -66 23 -315 22 -143 -1 -312 -5 -375 -8z" fill="url(#linear-gradient-5-1)" id="region-5-1" transform="translate(0.000000,701.000000) scale(0.100000,-0.100000)"/><path d="M2499 6715 c51 -38 66 -136 31 -206 -86 -168 -441 -208 -1155 -130 -89 10 -215 39 -215 51 0 4 -20 15 -44 24 -68 26 -131 79 -150 125 -9 23 -17 41 -19 41 -28 0 -191 -72 -201 -88 -9 -15 83 -59 179 -87 100 -29 331 -71 470 -86 50 -5 128 -14 175 -19 152 -17 740 -23 980 -11 384 20 695 61 883 116 94 27 187 69 187 85 0 17 -123 68 -226 94 -188 48 -498 87 -789 102 -125 6 -129 5 -106 -11z" fill="url(#linear-gradient-5-2)" id="region-5-2" transform="translate(0.000000,701.000000) scale(0.100000,-0.100000)"/><path d="M1000 6582 c0 -15 57 -60 109 -86 154 -79 438 -116 877 -116 205 0 327 16 409 55 54 26 113 77 70 61 -98 -36 -295 -56 -560 -56 -450 0 -708 38 -862 127 -24 14 -43 20 -43 15z" fill="url(#linear-gradient-5-3)" id="region-5-3" transform="translate(0.000000,701.000000) scale(0.100000,-0.100000)"/><path d="M1349 3515 c-73 -27 -118 -56 -162 -105 -61 -68 -89 -142 -95 -253 -4 -83 -3 -91 27 -152 51 -104 131 -164 315 -239 127 -52 187 -87 247 -143 182 -171 167 -510 -28 -604 -93 -45 -226 -20 -288 53 -57 67 -54 146 9 278 39 82 44 116 21 160 -47 92 -226 84 -298 -12 -69 -92 -97 -210 -77 -328 22 -128 114 -285 213 -359 220 -167 502 -158 679 21 184 187 240 583 118 830 -42 85 -82 139 -145 197 -72 65 -123 95 -236 137 -141 52 -205 109 -216 192 -6 47 9 80 41 88 34 8 62 -10 69 -46 10 -47 49 -80 94 -80 73 0 113 52 113 145 0 99 -44 168 -135 211 -41 20 -65 24 -140 23 -49 0 -106 -6 -126 -14z" fill="url(#linear-gradient-5-4)" id="region-5-4" transform="translate(0.000000,701.000000) scale(0.100000,-0.100000)"/><path d="M3462 3860 c-62 -38 -122 -157 -122 -245 0 -101 78 -116 118 -23 6 15 23 35 37 44 25 16 27 16 53 -3 35 -26 51 -60 59 -123 l6 -50 -32 16 c-65 32 -137 1 -180 -76 -21 -37 -25 -61 -29 -149 -5 -120 6 -176 44 -221 37 -43 75 -60 137 -60 64 0 95 20 122 76 l18 38 14 -30 c29 -56 68 -69 103 -34 15 15 20 33 20 78 0 59 -9 81 -56 132 -33 37 -52 116 -69 296 -18 198 -41 280 -90 323 -43 38 -102 42 -153 11z" fill="url(#linear-gradient-5-5)" id="region-5-5" transform="translate(0.000000,701.000000) scale(0.100000,-0.100000)"/><path d="M3074 3749 c-17 -19 -19 -37 -19 -178 0 -86 3 -177 7 -204 l8 -47 -40 20 c-211 107 -443 -206 -379 -512 23 -111 102 -239 170 -274 16 -8 50 -14 77 -14 83 0 166 68 214 177 l20 46 19 -30 c21 -33 66 -57 95 -51 34 6 64 66 64 128 0 149 -91 865 -117 918 -16 33 -23 37 -59 40 -31 2 -45 -2 -60 -19z" fill="url(#linear-gradient-5-6)" id="region-5-6" transform="translate(0.000000,701.000000) scale(0.100000,-0.100000)"/><path d="M2215 3252 c-104 -49 -175 -196 -175 -363 0 -101 14 -170 51 -249 99 -212 297 -241 407 -60 49 81 66 150 66 265 0 122 -25 212 -83 302 -67 104 -176 147 -266 105z" fill="url(#linear-gradient-5-7)" id="region-5-7" transform="translate(0.000000,701.000000) scale(0.100000,-0.100000)"/></g><g id="layer-6"><path d="M2062 6715 c-88 -24 -122 -57 -107 -105 16 -49 156 -86 293 -77 130 9 222 49 222 98 0 21 -52 67 -86 75 -13 3 -24 10 -24 15 0 15 -239 9 -298 -6z" fill="url(#linear-gradient-6-1)" id="region-6-1" transform="translate(0.000000,701.000000) scale(0.100000,-0.100000)"/><path d="M1355 6669 c-70 -10 -125 -27 -125 -39 0 -17 84 -41 177 -50 63 -7 131 -7 198 0 98 9 185 33 185 50 0 37 -280 61 -435 39z" fill="url(#linear-gradient-6-2)" id="region-6-2" transform="translate(0.000000,701.000000) scale(0.100000,-0.100000)"/><path d="M2260 3025 c-52 -55 -31 -196 33 -219 84 -30 130 132 61 214 -31 37 -63 38 -94 5z" fill="url(#linear-gradient-6-3)" id="region-6-3" transform="translate(0.000000,701.000000) scale(0.100000,-0.100000)"/><path d="M3490 3308 c-36 -59 -16 -141 37 -154 50 -13 86 34 80 104 -9 83 -79 113 -117 50z" fill="url(#linear-gradient-6-4)" id="region-6-4" transform="translate(0.000000,701.000000) scale(0.100000,-0.100000)"/><path d="M2850 3094 c-46 -39 -62 -79 -62 -150 0 -167 155 -239 230 -106 27 48 31 156 7 201 -23 45 -72 81 -110 81 -22 0 -45 -9 -65 -26z" fill="url(#linear-gradient-6-5)" id="region-6-5" transform="translate(0.000000,701.000000) scale(0.100000,-0.100000)"/></g></svg>