<?xml version="1.0" encoding="utf-8"?>
<!-- Generator: Adobe Illustrator 26.2.1, SVG Export Plug-In . SVG Version: 6.00 Build 0)  -->
<svg version="1.1" xmlns="http://www.w3.org/2000/svg" xmlns:xlink="http://www.w3.org/1999/xlink" x="0px" y="0px"
	 viewBox="0 0 3038 701" style="enable-background:new 0 0 3038 701;" xml:space="preserve">
<style type="text/css">
	.st0{fill:none;}
	.st1{fill:#D3D3D3;}
	.st2{fill:url(#SVGID_1_);}
	.st3{fill:url(#region-1-1_00000065037690071220843870000002963290919988499591_);}
	.st4{fill:url(#region-2-1_00000080189951847875334590000017982207630344166335_);}
	.st5{fill:url(#region-2-2_00000181061806036120695640000015670699880090447495_);}
	.st6{fill:url(#region-3-1_00000180367270831689129600000015197102424115120018_);}
	.st7{fill:url(#region-3-2_00000160911631178105105240000009667044885599088060_);}
	.st8{fill:url(#region-3-3_00000092417290153286353640000007560113512119859630_);}
	.st9{fill:url(#region-3-4_00000047043311554048908710000006598508013142873229_);}
	.st10{fill:url(#region-4-1_00000145753262013756415600000004891852198395793575_);}
	.st11{fill:url(#region-4-2_00000176016443335593649960000014317426975819700911_);}
	.st12{fill:url(#region-4-3_00000043445032775252598870000016400639347299632014_);}
	.st13{fill:url(#region-4-4_00000145758260615481016170000016341757133698834588_);}
	.st14{fill:url(#region-5-1_00000106138778924482151020000013690860153248768189_);}
	.st15{fill:url(#region-5-2_00000098906251203256265830000011630026498615336377_);}
	.st16{fill:url(#region-5-3_00000173149885575919563170000014789175676515960732_);}
	.st17{fill:url(#region-5-4_00000175320905621642538680000014435079255733760174_);}
	.st18{fill:url(#region-5-5_00000054260267895342757330000002125341090068903869_);}
	.st19{fill:url(#region-5-6_00000116211298708852552660000013257478068550894772_);}
	.st20{fill:url(#region-5-7_00000014597973162623846620000004343185350283180435_);}
	.st21{fill:url(#region-6-1_00000144317204272690395900000001965777417839414457_);}
	.st22{fill:url(#region-6-2_00000013875380478344093120000011752781067896728990_);}
	.st23{fill:url(#region-6-3_00000158726895630627412910000014964087124563755412_);}
	.st24{fill:url(#region-6-4_00000178911696457864467660000008825849027557181598_);}
	.st25{fill:url(#region-6-5_00000176749076025355499710000007625658456529056942_);}
	.st26{fill:url(#region-1-1_00000054237200239468970160000017534588272731686821_);}
	
		.st27{fill:url(#region-2-1_00000057111939897611915850000004241722259088777088_);stroke:#000000;stroke-width:2;stroke-miterlimit:10;}
	.st28{fill:url(#region-2-2_00000089560678161440068240000012749850828942811569_);}
	
		.st29{fill:url(#region-3-1_00000022522278597723172230000010685825390262194097_);stroke:#000000;stroke-width:2;stroke-miterlimit:10;}
	
		.st30{fill:url(#region-3-2_00000103242663164854925150000009593875531607001751_);stroke:#000000;stroke-width:2;stroke-miterlimit:10;}
	
		.st31{fill:url(#region-3-3_00000155839164572357213070000013808506131248758458_);stroke:#000000;stroke-width:2;stroke-miterlimit:10;}
	
		.st32{fill:url(#region-3-4_00000150091959470913599600000015357263071668496569_);stroke:#000000;stroke-width:2;stroke-miterlimit:10;}
	
		.st33{fill:url(#region-4-1_00000092435599096282340730000009903194140670837689_);stroke:#000000;stroke-width:2;stroke-miterlimit:10;}
	
		.st34{fill:url(#region-4-2_00000047045772997032245600000002330590143532461732_);stroke:#000000;stroke-width:2;stroke-miterlimit:10;}
	
		.st35{fill:url(#region-4-3_00000016077097844881925480000003876734366156410544_);stroke:#000000;stroke-width:2;stroke-miterlimit:10;}
	
		.st36{fill:url(#region-4-4_00000093859443182640452450000013613727198510211463_);stroke:#000000;stroke-width:2;stroke-miterlimit:10;}
	
		.st37{fill:url(#region-5-1_00000035505997048000819830000008094126660840113798_);stroke:#000000;stroke-width:2;stroke-miterlimit:10;}
	
		.st38{fill:url(#region-5-2_00000011026520825096538860000012109116380715570315_);stroke:#000000;stroke-width:2;stroke-miterlimit:10;}
	
		.st39{fill:url(#region-5-3_00000039840194490995097770000012082895343984722102_);stroke:#000000;stroke-width:2;stroke-miterlimit:10;}
	.st40{fill:url(#region-5-4_00000109725120971821457930000011940771676221132169_);}
	.st41{fill:url(#region-5-5_00000163769404772695731250000011737049247167242421_);}
	.st42{fill:url(#region-5-6_00000029030959539307875110000016500976033803672216_);}
	.st43{fill:url(#region-5-7_00000031169056114370418980000011371662496122073479_);}
	
		.st44{fill:url(#region-6-1_00000070112338155718566620000003747922383049060754_);stroke:#000000;stroke-width:2;stroke-miterlimit:10;}
	
		.st45{fill:url(#region-6-2_00000129923388261915616360000014715094462581917845_);stroke:#000000;stroke-width:2;stroke-miterlimit:10;}
	
		.st46{fill:url(#region-6-3_00000150799836150066938300000017855134561139370684_);stroke:#000000;stroke-width:2;stroke-miterlimit:10;}
	
		.st47{fill:url(#region-6-4_00000103242641210766196250000009288976338678236598_);stroke:#000000;stroke-width:2;stroke-miterlimit:10;}
	
		.st48{fill:url(#region-6-5_00000132059535392021560090000015635743901914478492_);stroke:#000000;stroke-width:2;stroke-miterlimit:10;}
	.st49{fill:none;stroke:#000000;stroke-width:3;stroke-miterlimit:10;}
</style>
<pattern  x="1302" y="701" width="40" height="40" patternUnits="userSpaceOnUse" id="a2ed1d96-aebd-4bf9-a4b3-645f1ac" viewBox="0 -40 40 40" style="overflow:visible;">
	<g>
		<rect y="-40" class="st0" width="40" height="40"/>
		<rect y="-40" class="st0" width="40" height="40"/>
		<rect y="-40" class="st1" width="20" height="20"/>
		<rect x="20" y="-20" class="st1" width="20" height="20"/>
	</g>
</pattern>
<g id="图层_2">
	<pattern  id="SVGID_1_" xlink:href="#a2ed1d96-aebd-4bf9-a4b3-645f1ac" patternTransform="matrix(1 0 0 1 -41 489.24)">
	</pattern>
	<rect class="st2" width="3038" height="701"/>
</g>
<g id="图层_1">
	<g id="layer-1">
		
			<linearGradient id="region-1-1_00000006700568862806210880000006881447996570025869_" gradientUnits="userSpaceOnUse" x1="559.1199" y1="890.2045" x2="559.2994" y2="891.3348" gradientTransform="matrix(434 0 0 701 -242480 -624079)">
			<stop  offset="0" style="stop-color:#EDE3AF;stop-opacity:0.99"/>
			<stop  offset="1" style="stop-color:#EEE4AF"/>
		</linearGradient>
		<path id="region-1-1" style="fill:url(#region-1-1_00000006700568862806210880000006881447996570025869_);" d="M0,350.5V701h217
			h217V350.5V0H217H0V350.5z"/>
	</g>
	<g id="layer-2">
		
			<linearGradient id="region-2-1_00000058549908856940129640000010726744492038965898_" gradientUnits="userSpaceOnUse" x1="558.7593" y1="892.323" x2="558.7593" y2="893.323" gradientTransform="matrix(321.7105 0 0 81.3612 -179539.8906 -72589.9766)">
			<stop  offset="0" style="stop-color:#3248A8;stop-opacity:0.337"/>
			<stop  offset="1" style="stop-color:#324F8A;stop-opacity:0.455"/>
		</linearGradient>
		<path id="region-2-1" style="fill:url(#region-2-1_00000058549908856940129640000010726744492038965898_);" d="M186.5,11
			C115.3,15.2,72.8,24.2,60.9,37.8c-3.1,3.5-3.1,3.6-2.7,12.8c0.4,10.2,0.2,9.8,10,16.6C84.8,78.6,128,87.9,179.5,91.1
			c23.8,1.5,78.1,0.6,99.5-1.6c28.5-2.9,50.5-7,68.8-13c12.7-4.2,19.6-7.6,26.2-13c5.3-4.4,6.1-7,5.6-17.2c-0.2-4.5-0.7-5.8-3.6-8.9
			C364.4,25.2,323.9,15.8,266.5,12C244.3,10.5,203.6,10,186.5,11z"/>
		
			<linearGradient id="region-2-2_00000025420030727028171700000000261206926556479891_" gradientUnits="userSpaceOnUse" x1="558.8367" y1="890.1955" x2="559.2595" y2="891.3919" gradientTransform="matrix(385.7733 0 0 635.4626 -215445.9219 -565690.3125)">
			<stop  offset="0" style="stop-color:#005D0B;stop-opacity:0.808"/>
			<stop  offset="1" style="stop-color:#007218;stop-opacity:0.796"/>
		</linearGradient>
		<path id="region-2-2" style="fill:url(#region-2-2_00000025420030727028171700000000261206926556479891_);" d="M373.4,63.8
			c-12.7,11.5-47.5,21-94.4,25.7c-21.4,2.2-75.7,3.1-99.5,1.6C123,87.6,80.8,77.7,64.2,64.3c-2.4-2-4.4-3.4-4.6-3.2
			C58.5,62.6,36.8,102,33.8,108c-7.4,14.6-6.8-7.9-6.6,267.6l0.3,247.9l2.9,5.3c3.5,6.2,13.3,15.8,20.3,19.7c3.7,2.2,5.4,4,7.2,7.9
			c5.3,10.9,14.1,16.7,35.6,23.2c17.7,5.4,21.4,6.3,30.5,8.3c32.5,6.8,55.9,8.5,109.4,7.8c35-0.4,44.6-0.9,57.1-2.6
			c36-4.9,71.8-14.5,84.5-22.7c5.5-3.4,10.5-9.3,14.3-16.5c2.2-4,6-9,10.1-12.9c4.5-4.3,7.7-8.5,9.9-12.9l3.2-6.6l0.3-244
			c0.2-174,0-245.9-0.8-250.5c-1.8-10.1-4.1-15.7-14.3-33.7c-5.3-9.2-11.5-20.4-13.9-24.7c-2.4-4.4-4.7-8.1-5.3-8.2
			C378,60.2,375.6,61.8,373.4,63.8z"/>
	</g>
	<g id="layer-3">
		
			<linearGradient id="region-3-1_00000060725456374653718890000003206479044894734979_" gradientUnits="userSpaceOnUse" x1="558.7222" y1="892.9774" x2="558.7222" y2="893.9774" gradientTransform="matrix(314.992 0 0 63.4773 -175774.3594 -56669.3594)">
			<stop  offset="0" style="stop-color:#E9EAEB;stop-opacity:0.802"/>
			<stop  offset="1" style="stop-color:#F8F7F9;stop-opacity:0.761"/>
		</linearGradient>
		<path id="region-3-1" style="fill:url(#region-3-1_00000060725456374653718890000003206479044894734979_);" d="M176.5,15
			C118.7,18.3,70,29.1,63.1,40.4c-2.7,4.4-2.6,6.8,0.4,10.4c10,11.9,53.4,22.5,107.8,26.3c23.2,1.6,94.3,0.7,113.7-1.5
			c44.5-5,75.6-13.2,86.5-22.8c7.9-7,5.8-13.1-6.8-19.2c-16.5-8.1-47.5-14.2-89.2-17.6C257.8,14.5,196.1,13.9,176.5,15z"/>
		
			<linearGradient id="region-3-2_00000065794945384767993700000005868461820082898582_" gradientUnits="userSpaceOnUse" x1="558.7213" y1="895.4745" x2="558.7213" y2="896.4745" gradientTransform="matrix(314.8298 0 0 34.5232 -175683.5312 -30860.5645)">
			<stop  offset="0" style="stop-color:#E4E4E5;stop-opacity:0.771"/>
			<stop  offset="1" style="stop-color:#EFEEF0;stop-opacity:0.801"/>
		</linearGradient>
		<path id="region-3-2" style="fill:url(#region-3-2_00000065794945384767993700000005868461820082898582_);" d="M373.6,55.9
			c-0.9,1-4.5,3.2-7.9,4.9c-17.3,8.5-46.5,14.7-88.6,18.9c-21.8,2.1-90.1,2.5-111.1,0.5c-50-4.6-81.7-11.6-98.5-21.7
			c-3.2-2-6-3.3-6.3-3c-0.3,0.3,1.7,2.7,4.4,5.3C88.9,83.3,197.9,95.1,287.5,85c31.1-3.6,57.7-9.7,73.1-16.9
			c8-3.8,15.4-9.8,15.4-12.6C376,53.6,375.7,53.6,373.6,55.9z"/>
		
			<linearGradient id="region-3-3_00000066507647100105067730000002872521700238026163_" gradientUnits="userSpaceOnUse" x1="557.1483" y1="890.9149" x2="558.5287" y2="890.6962" gradientTransform="matrix(201.0009 0 0 573.4026 -111956.5234 -510436.3125)">
			<stop  offset="0" style="stop-color:#57F755;stop-opacity:0.363"/>
			<stop  offset="1" style="stop-color:#85FBA1;stop-opacity:0.764"/>
		</linearGradient>
		<path id="region-3-3" style="fill:url(#region-3-3_00000066507647100105067730000002872521700238026163_);" d="M64,97.6
			c-6.8,9.2-13.4,18.8-14.7,21.4c-5.5,11.4-5.3,2.6-5.3,254.2v232l2.4,5.3c6.5,14.2,22.3,24.2,52.2,32.9c28.7,8.3,48,11.1,74.9,11
			c19.3,0,21.8-0.3,30.7-2.7c18.3-4.9,31.9-14.5,38.1-26.8l2.7-5.5l-0.3-233.9c-0.1-128.7-0.5-234.9-0.9-236.1
			c-0.3-1.1-1.3-4.3-2.1-7c-2.8-9.6-11.7-25.1-18.6-32.7c-2.3-2.6-2.9-2.7-11.5-2.7c-43.8-0.1-94.9-9.1-124.8-22
			c-5.1-2.2-9.5-4-9.8-4S70.9,88.5,64,97.6z"/>
		
			<linearGradient id="region-3-4_00000165201175580209973950000008639032979666629556_" gradientUnits="userSpaceOnUse" x1="558.8359" y1="893.866" x2="558.8477" y2="895.6488" gradientTransform="matrix(336.5941 0 0 48.8456 -187876.5625 -43014.6211)">
			<stop  offset="0" style="stop-color:#9E90A3;stop-opacity:0.705"/>
			<stop  offset="1" style="stop-color:#BFB0C3;stop-opacity:0.832"/>
		</linearGradient>
		<path id="region-3-4" style="fill:url(#region-3-4_00000165201175580209973950000008639032979666629556_);" d="M386,651.2
			c-34.2,21.4-85.3,31.9-154.5,31.7c-14.8,0-30.6-0.5-35-1c-4.4-0.5-13.4-1.3-20.1-1.9c-6.6-0.5-14.5-1.4-17.5-1.9
			c-10.8-2-41.5-7-46.4-7.6c-1.1-0.1-2.7-0.5-3.5-0.8s-5.5-1.5-10.3-2.7c-12-2.9-25.7-7.5-34.6-11.6c-4.1-1.9-7.6-3.2-7.9-2.9
			c-0.9,0.9,6.4,11.8,10.1,15c4.2,3.6,14.8,8.3,27.2,12.1c17.7,5.4,21.4,6.3,30.5,8.3c32.5,6.8,55.9,8.5,109.4,7.8
			c35-0.4,44.6-0.9,57.1-2.6c27.8-3.8,53.8-9.8,70.5-16.3c16.5-6.5,22-10.9,28.4-23.1c2-3.7,3.5-6.7,3.3-6.7
			C392.6,647.1,389.6,648.9,386,651.2z"/>
	</g>
	<g id="layer-4">
		
			<linearGradient id="region-4-1_00000089535885812266230000000002546347969550677433_" gradientUnits="userSpaceOnUse" x1="558.6329" y1="893.4046" x2="558.6329" y2="894.4046" gradientTransform="matrix(299.9355 0 0 55.5133 -167335.8906 -49579.4023)">
			<stop  offset="0" style="stop-color:#2B2F32;stop-opacity:0.384"/>
			<stop  offset="1" style="stop-color:#383C40;stop-opacity:0.324"/>
		</linearGradient>
		<path id="region-4-1" style="fill:url(#region-4-1_00000089535885812266230000000002546347969550677433_);" d="M174.5,17.1
			c-27.6,1.5-52.9,4.6-71.5,8.8C98.3,27,92.3,28.3,89.5,29C83.1,30.4,71,37.7,69,41.2c-1.3,2.5-1.3,3.1,0,5.5c0.8,1.4,4.2,4.1,7.5,6
			c16.2,9,48.6,15.4,93,18.3c20.2,1.3,78.5,1.3,97.5,0c56.8-3.9,93.8-12.5,99.5-23.3c1.8-3.4,1.9-3.9,0.5-6.4
			c-5.8-10.4-40-19.2-90.5-23.3C258.8,16.5,194.1,15.9,174.5,17.1z"/>
		
			<linearGradient id="region-4-2_00000021807575175167138400000007242693477161945739_" gradientUnits="userSpaceOnUse" x1="558.5555" y1="897.2682" x2="558.5555" y2="898.2682" gradientTransform="matrix(288 0 0 26.0035 -160633.0156 -23203.9336)">
			<stop  offset="0" style="stop-color:#BCF4FF;stop-opacity:0.647"/>
			<stop  offset="1" style="stop-color:#C6FBFF;stop-opacity:0.687"/>
		</linearGradient>
		<path id="region-4-2" style="fill:url(#region-4-2_00000021807575175167138400000007242693477161945739_);" d="M363,131.6
			c-18.1,5.9-44.7,11.1-75.5,14.6c-17.6,2.1-90.5,1.7-112.5-0.5c-22.4-2.3-54.4-6.9-73.2-10.5c-8.2-1.6-14.8-2.5-14.8-2.1
			c0,1,3.6,2,25,6.9c44.2,10,80.7,14.2,122.5,14.2c36.3,0,66.8-3.2,95.6-10.3c21.5-5.2,44.9-13,44.9-15
			C375,127.7,375.1,127.7,363,131.6z"/>
		
			<linearGradient id="region-4-3_00000128475436513443495270000015368209350308989627_" gradientUnits="userSpaceOnUse" x1="558.9357" y1="890.4824" x2="558.9357" y2="891.4824" gradientTransform="matrix(358 0 0 391.7957 -199871 -348706.0938)">
			<stop  offset="0" style="stop-color:#98A1FF;stop-opacity:0.611"/>
			<stop  offset="1" style="stop-color:#AED6FF;stop-opacity:0.747"/>
		</linearGradient>
		<path id="region-4-3" style="fill:url(#region-4-3_00000128475436513443495270000015368209350308989627_);" d="M403.5,182.2
			c-16.9,5.6-29.5,15-41.5,30.9c-11.3,15.1-19.1,30.7-29,57.9c-6.8,18.7-12.4,30.7-18.8,40.2c-9.8,14.5-20.2,20.8-35.6,21.5
			c-11.5,0.6-22.7-1.6-46.6-9.2c-22.9-7.3-32.1-8.9-47.5-8.2c-14.3,0.6-21.9,2.5-34,8.1c-20.6,9.7-39.6,28.6-56.9,56.5
			c-14.6,23.7-27.8,56.5-40,99.8L49,495.8v34.3c0,18.9,0.4,33.9,0.8,33.3c0.5-0.5,1.9-3.6,3.2-6.9c7-18,17-34.5,26-42.8
			c12.8-11.9,24.9-11.3,37.4,1.7c2.8,3,5.6,5.5,6.1,5.7c0.6,0.2,5.1,5.1,10.1,10.9c27.9,32.1,46,42,74.3,40.8
			c25.1-1.2,44.4-9.5,63-27.3c14.4-13.8,22.6-26,43.6-64.6c18.6-34.2,23.6-41.8,34-52.4c11.2-11.3,17.1-14.6,27-15.3
			c5.8-0.4,8.1,0,11.8,1.6c6.8,3,11.5,6.9,16.4,13.6l4.3,5.8V307.6c0-69.6-0.1-126.6-0.2-126.5C406.6,181.1,405.2,181.6,403.5,182.2
			z"/>
		
			<linearGradient id="region-4-4_00000039114998428971776380000000980640270637389502_" gradientUnits="userSpaceOnUse" x1="558.0766" y1="901.1577" x2="558.2124" y2="908.8374" gradientTransform="matrix(231.3898 0 0 16.926 -128907.1641 -14577.0547)">
			<stop  offset="0" style="stop-color:#E7E6E9;stop-opacity:0.8"/>
			<stop  offset="1" style="stop-color:#EEEFF0;stop-opacity:0.799"/>
		</linearGradient>
		<path id="region-4-4" style="fill:url(#region-4-4_00000039114998428971776380000000980640270637389502_);" d="M111.6,677.6
			c-1.4,3.6-0.5,4.1,12.2,6.7c31.7,6.7,55,8.7,98.8,8.7c27.7,0,39.1-0.4,54.5-2c27.7-2.8,65.4-10.1,65.4-12.6c0-1.9-8.6-1.4-23,1.5
			c-26.3,5.2-48.3,7.1-82.1,7.1c-41.5,0-95.7-4.5-115.5-9.6C114.6,675.6,112.4,675.6,111.6,677.6z"/>
	</g>
	<g id="layer-5">
		
			<linearGradient id="region-5-1_00000081614375668505608920000015359332829751665832_" gradientUnits="userSpaceOnUse" x1="556.7493" y1="897.3486" x2="556.8511" y2="900.6252" gradientTransform="matrix(149.8706 0 0 25.6666 -83265.5781 -23005.1016)">
			<stop  offset="0" style="stop-color:#E4E4E4;stop-opacity:0.67"/>
			<stop  offset="1" style="stop-color:#FFFFFF;stop-opacity:0.801"/>
		</linearGradient>
		<path id="region-5-1" style="fill:url(#region-5-1_00000081614375668505608920000015359332829751665832_);" d="M173,28
			c-6.3,0.4-19.1,0.8-28.3,0.9c-12.1,0.1-17.7,0.5-20.2,1.6c-1.9,0.7-6.3,1.7-9.8,2.1c-5.1,0.6-10.7,2.3-12.6,4
			c-1.2,1,6.3,6.1,12.4,8.5c16.8,6.5,35.2,8.3,80.9,7.6c36.5-0.5,43.5-1.3,51.9-5.9c3.3-1.8,4.3-3,4.5-5.3c0.5-4.8-3.4-9.5-9.8-12.1
			c-5.3-2.2-6.6-2.3-31.5-2.2C196.2,27.3,179.3,27.7,173,28z"/>
		
			<linearGradient id="region-5-2_00000099642288019104893280000017305062464820535454_" gradientUnits="userSpaceOnUse" x1="558.5215" y1="895.6741" x2="558.8461" y2="889.9467" gradientTransform="matrix(287.461 0 0 40.6674 -160343.6406 -36354.9102)">
			<stop  offset="0" style="stop-color:#A9AAAB;stop-opacity:0.994"/>
			<stop  offset="1" style="stop-color:#FFFFFF;stop-opacity:0.627"/>
		</linearGradient>
		<path id="region-5-2" style="fill:url(#region-5-2_00000099642288019104893280000017305062464820535454_);" d="M249.9,29.5
			c5.1,3.8,6.6,13.6,3.1,20.6c-8.6,16.8-44.1,20.8-115.5,13c-8.9-1-21.5-3.9-21.5-5.1c0-0.4-2-1.5-4.4-2.4
			c-6.8-2.6-13.1-7.9-15-12.5c-0.9-2.3-1.7-4.1-1.9-4.1c-2.8,0-19.1,7.2-20.1,8.8c-0.9,1.5,8.3,5.9,17.9,8.7c10,2.9,33.1,7.1,47,8.6
			c5,0.5,12.8,1.4,17.5,1.9c15.2,1.7,74,2.3,98,1.1c38.4-2,69.5-6.1,88.3-11.6c9.4-2.7,18.7-6.9,18.7-8.5c0-1.7-12.3-6.8-22.6-9.4
			c-18.8-4.8-49.8-8.7-78.9-10.2C248,27.8,247.6,27.9,249.9,29.5z"/>
		
			<linearGradient id="region-5-3_00000026158652705255245230000012721286543354968723_" gradientUnits="userSpaceOnUse" x1="556.7007" y1="899.2474" x2="557.0458" y2="904.972" gradientTransform="matrix(147.9814 0 0 20.3741 -82209.5859 -18279.3418)">
			<stop  offset="0" style="stop-color:#E5E6E7;stop-opacity:0.801"/>
			<stop  offset="1" style="stop-color:#EBEBEC;stop-opacity:0.797"/>
		</linearGradient>
		<path id="region-5-3" style="fill:url(#region-5-3_00000026158652705255245230000012721286543354968723_);" d="M100,42.8
			c0,1.5,5.7,6,10.9,8.6c15.4,7.9,43.8,11.6,87.7,11.6c20.5,0,32.7-1.6,40.9-5.5c5.4-2.6,11.3-7.7,7-6.1c-9.8,3.6-29.5,5.6-56,5.6
			c-45,0-70.8-3.8-86.2-12.7C101.9,42.9,100,42.3,100,42.8z"/>
		
			<linearGradient id="region-5-4_00000158747409307947593400000010740494741316838019_" gradientUnits="userSpaceOnUse" x1="555.1202" y1="890.9476" x2="555.4364" y2="892.1179" gradientTransform="matrix(108.1202 0 0 183.7634 -59885.918 -163390.3594)">
			<stop  offset="0" style="stop-color:#EB3B1B;stop-opacity:0.807"/>
			<stop  offset="1" style="stop-color:#E00F00;stop-opacity:0.805"/>
		</linearGradient>
		<path id="region-5-4" style="fill:url(#region-5-4_00000158747409307947593400000010740494741316838019_);" d="M134.9,349.5
			c-7.3,2.7-11.8,5.6-16.2,10.5c-6.1,6.8-8.9,14.2-9.5,25.3c-0.4,8.3-0.3,9.1,2.7,15.2c5.1,10.4,13.1,16.4,31.5,23.9
			c12.7,5.2,18.7,8.7,24.7,14.3c18.2,17.1,16.7,51-2.8,60.4c-9.3,4.5-22.6,2-28.8-5.3c-5.7-6.7-5.4-14.6,0.9-27.8
			c3.9-8.2,4.4-11.6,2.1-16c-4.7-9.2-22.6-8.4-29.8,1.2c-6.9,9.2-9.7,21-7.7,32.8c2.2,12.8,11.4,28.5,21.3,35.9
			c22,16.7,50.2,15.8,67.9-2.1c18.4-18.7,24-58.3,11.8-83c-4.2-8.5-8.2-13.9-14.5-19.7c-7.2-6.5-12.3-9.5-23.6-13.7
			c-14.1-5.2-20.5-10.9-21.6-19.2c-0.6-4.7,0.9-8,4.1-8.8c3.4-0.8,6.2,1,6.9,4.6c1,4.7,4.9,8,9.4,8c7.3,0,11.3-5.2,11.3-14.5
			c0-9.9-4.4-16.8-13.5-21.1c-4.1-2-6.5-2.4-14-2.3C142.6,348.1,136.9,348.7,134.9,349.5z"/>
		
			<linearGradient id="region-5-5_00000073686281172069805000000007630177971580432553_" gradientUnits="userSpaceOnUse" x1="548.7958" y1="891.9982" x2="549.1946" y2="893.1576" gradientTransform="matrix(49 0 0 91.068 -26546 -80926.625)">
			<stop  offset="0" style="stop-color:#B21F00;stop-opacity:0.8"/>
			<stop  offset="1" style="stop-color:#AC1300;stop-opacity:0.812"/>
		</linearGradient>
		<path id="region-5-5" style="fill:url(#region-5-5_00000073686281172069805000000007630177971580432553_);" d="M346.2,315
			c-6.2,3.8-12.2,15.7-12.2,24.5c0,10.1,7.8,11.6,11.8,2.3c0.6-1.5,2.3-3.5,3.7-4.4c2.5-1.6,2.7-1.6,5.3,0.3c3.5,2.6,5.1,6,5.9,12.3
			l0.6,5l-3.2-1.6c-6.5-3.2-13.7-0.1-18,7.6c-2.1,3.7-2.5,6.1-2.9,14.9c-0.5,12,0.6,17.6,4.4,22.1c3.7,4.3,7.5,6,13.7,6
			c6.4,0,9.5-2,12.2-7.6l1.8-3.8l1.4,3c2.9,5.6,6.8,6.9,10.3,3.4c1.5-1.5,2-3.3,2-7.8c0-5.9-0.9-8.1-5.6-13.2
			c-3.3-3.7-5.2-11.6-6.9-29.6c-1.8-19.8-4.1-28-9-32.3C357.2,312.3,351.3,311.9,346.2,315z"/>
		
			<linearGradient id="region-5-6_00000036248803754240790990000012869092999851691169_" gradientUnits="userSpaceOnUse" x1="552.084" y1="891.5062" x2="552.1606" y2="892.5588" gradientTransform="matrix(66.9819 0 0 122.8471 -36685.8242 -109198.8047)">
			<stop  offset="0" style="stop-color:#B32102;stop-opacity:0.797"/>
			<stop  offset="1" style="stop-color:#AA1000;stop-opacity:0.816"/>
		</linearGradient>
		<path id="region-5-6" style="fill:url(#region-5-6_00000036248803754240790990000012869092999851691169_);" d="M307.4,326.1
			c-1.7,1.9-1.9,3.7-1.9,17.8c0,8.6,0.3,17.7,0.7,20.4l0.8,4.7l-4-2c-21.1-10.7-44.3,20.6-37.9,51.2c2.3,11.1,10.2,23.9,17,27.4
			c1.6,0.8,5,1.4,7.7,1.4c8.3,0,16.6-6.8,21.4-17.7l2-4.6l1.9,3c2.1,3.3,6.6,5.7,9.5,5.1c3.4-0.6,6.4-6.6,6.4-12.8
			c0-14.9-9.1-86.5-11.7-91.8c-1.6-3.3-2.3-3.7-5.9-4C310.3,324,308.9,324.4,307.4,326.1z"/>
		
			<linearGradient id="region-5-7_00000111898575820938350490000008471450087790904194_" gradientUnits="userSpaceOnUse" x1="549.3523" y1="892.3074" x2="550.2783" y2="893.3798" gradientTransform="matrix(52.4 0 0 80.7207 -28580 -71656.1797)">
			<stop  offset="0" style="stop-color:#D1391C;stop-opacity:0.808"/>
			<stop  offset="1" style="stop-color:#C60D00;stop-opacity:0.799"/>
		</linearGradient>
		<path id="region-5-7" style="fill:url(#region-5-7_00000111898575820938350490000008471450087790904194_);" d="M221.5,375.8
			c-10.4,4.9-17.5,19.6-17.5,36.3c0,10.1,1.4,17,5.1,24.9c9.9,21.2,29.7,24.1,40.7,6c4.9-8.1,6.6-15,6.6-26.5
			c0-12.2-2.5-21.2-8.3-30.2C241.4,375.9,230.5,371.6,221.5,375.8z"/>
	</g>
	<g id="layer-6">
		
			<linearGradient id="region-6-1_00000039841019859031383370000012645184844523716517_" gradientUnits="userSpaceOnUse" x1="549.4985" y1="899.4473" x2="550.2466" y2="901.7861" gradientTransform="matrix(51.8426 0 0 19.8043 -28276.7148 -17786.793)">
			<stop  offset="0" style="stop-color:#B6B8B9;stop-opacity:0.71"/>
			<stop  offset="1" style="stop-color:#A0A2A4;stop-opacity:0.825"/>
		</linearGradient>
		<path id="region-6-1" style="fill:url(#region-6-1_00000039841019859031383370000012645184844523716517_);" d="M206.2,29.5
			c-8.8,2.4-12.2,5.7-10.7,10.5c1.6,4.9,15.6,8.6,29.3,7.7c13-0.9,22.2-4.9,22.2-9.8c0-2.1-5.2-6.7-8.6-7.5c-1.3-0.3-2.4-1-2.4-1.5
			C236,27.4,212.1,28,206.2,29.5z"/>
		
			<linearGradient id="region-6-2_00000160879434004411469230000002267472955205351344_" gradientUnits="userSpaceOnUse" x1="550.5" y1="908.4097" x2="550.5" y2="909.4097" gradientTransform="matrix(56 0 0 10.2663 -30677 -9292.7559)">
			<stop  offset="0" style="stop-color:#BCBEBF;stop-opacity:0.798"/>
			<stop  offset="1" style="stop-color:#C0C2C4;stop-opacity:0.802"/>
		</linearGradient>
		<path id="region-6-2" style="fill:url(#region-6-2_00000160879434004411469230000002267472955205351344_);" d="M135.5,34.1
			c-7,1-12.5,2.7-12.5,3.9c0,1.7,8.4,4.1,17.7,5c6.3,0.7,13.1,0.7,19.8,0c9.8-0.9,18.5-3.3,18.5-5C179,34.3,151,31.9,135.5,34.1z"/>
		
			<linearGradient id="region-6-3_00000055695767109899463440000005455985060004355727_" gradientUnits="userSpaceOnUse" x1="524.7941" y1="897.6687" x2="524.7941" y2="898.6687" gradientTransform="matrix(15.6837 0 0 24.6456 -7999.7847 -21727.4258)">
			<stop  offset="0" style="stop-color:#9FF6FF;stop-opacity:0.814"/>
			<stop  offset="1" style="stop-color:#98F7FF;stop-opacity:0.851"/>
		</linearGradient>
		<path id="region-6-3" style="fill:url(#region-6-3_00000055695767109899463440000005455985060004355727_);" d="M226,398.5
			c-5.2,5.5-3.1,19.6,3.3,21.9c8.4,3,13-13.2,6.1-21.4C232.3,395.3,229.1,395.2,226,398.5z"/>
		
			<linearGradient id="region-6-4_00000163069671723696231600000000338447025229938079_" gradientUnits="userSpaceOnUse" x1="518.7615" y1="899.973" x2="519.7894" y2="900.929" gradientTransform="matrix(13.5862 0 0 18.9924 -6701.0825 -16725.418)">
			<stop  offset="0" style="stop-color:#69B8EF;stop-opacity:0.694"/>
			<stop  offset="1" style="stop-color:#62B8FA;stop-opacity:0.739"/>
		</linearGradient>
		<path id="region-6-4" style="fill:url(#region-6-4_00000163069671723696231600000000338447025229938079_);" d="M349,370.2
			c-3.6,5.9-1.6,14.1,3.7,15.4c5,1.3,8.6-3.4,8-10.4C359.8,366.9,352.8,363.9,349,370.2z"/>
		
			<linearGradient id="region-6-5_00000047044942452924609650000009417361926758668690_" gradientUnits="userSpaceOnUse" x1="538.3387" y1="895.3705" x2="538.3666" y2="896.4088" gradientTransform="matrix(25.2846 0 0 35.1069 -13320.6006 -31045.127)">
			<stop  offset="0" style="stop-color:#6CB0E1;stop-opacity:0.756"/>
			<stop  offset="1" style="stop-color:#5FA9EC;stop-opacity:0.806"/>
		</linearGradient>
		<path id="region-6-5" style="fill:url(#region-6-5_00000047044942452924609650000009417361926758668690_);" d="M285,391.6
			c-4.6,3.9-6.2,7.9-6.2,15c0,16.7,15.5,23.9,23,10.6c2.7-4.8,3.1-15.6,0.7-20.1c-2.3-4.5-7.2-8.1-11-8.1
			C289.3,389,287,389.9,285,391.6z"/>
	</g>
</g>
<g id="图层_3">
	<g id="layer-1_00000168095195192539767390000005739568065167342503_">
		
			<linearGradient id="region-1-1_00000139279000177440190780000003508523190103699340_" gradientUnits="userSpaceOnUse" x1="560.1199" y1="890.2045" x2="560.2994" y2="891.3348" gradientTransform="matrix(434 0 0 701 -242480 -624079)">
			<stop  offset="0" style="stop-color:#EDE3AF;stop-opacity:0.99"/>
			<stop  offset="1" style="stop-color:#EEE4AF"/>
		</linearGradient>
		
			<path id="region-1-1_00000169556121678999639170000014993970754377401248_" style="fill:url(#region-1-1_00000139279000177440190780000003508523190103699340_);" d="
			M434,350.5V701h217h217V350.5V0H651H434V350.5z"/>
	</g>
	<g id="layer-2_00000145039286159664013500000000389722690981644220_">
		
			<linearGradient id="region-2-1_00000045581274066998523010000004452592346080909737_" gradientUnits="userSpaceOnUse" x1="561.4481" y1="892.323" x2="561.4481" y2="893.323" gradientTransform="matrix(321.7105 0 0 81.3612 -179539.8906 -72589.9766)">
			<stop  offset="0" style="stop-color:#3248A8;stop-opacity:0.337"/>
			<stop  offset="1" style="stop-color:#324F8A;stop-opacity:0.455"/>
		</linearGradient>
		
			<path id="region-2-1_00000138545783143179495510000014411835488373828744_" style="fill:url(#region-2-1_00000045581274066998523010000004452592346080909737_);stroke:#000000;stroke-width:2;stroke-miterlimit:10;" d="
			M1051.5,11c-71.2,4.2-113.7,13.2-125.6,26.8c-3.1,3.5-3.1,3.6-2.7,12.8c0.4,10.2,0.2,9.8,10,16.6c16.6,11.4,59.8,20.7,111.3,23.9
			c23.8,1.5,78.1,0.6,99.5-1.6c28.5-2.9,50.5-7,68.8-13c12.7-4.2,19.6-7.6,26.2-13c5.3-4.4,6.1-7,5.6-17.2c-0.2-4.5-0.7-5.8-3.6-8.9
			c-11.6-12.2-52.1-21.6-109.5-25.4C1109.3,10.5,1068.6,10,1051.5,11z"/>
		
			<linearGradient id="region-2-2_00000007404844537632715470000001819332039941331381_" gradientUnits="userSpaceOnUse" x1="561.079" y1="890.1955" x2="561.5018" y2="891.3919" gradientTransform="matrix(385.7733 0 0 635.4626 -215445.9219 -565690.3125)">
			<stop  offset="0" style="stop-color:#005D0B;stop-opacity:0.808"/>
			<stop  offset="1" style="stop-color:#007218;stop-opacity:0.796"/>
		</linearGradient>
		
			<path id="region-2-2_00000158723450311811217910000017899587804881545390_" style="fill:url(#region-2-2_00000007404844537632715470000001819332039941331381_);" d="
			M1238.4,63.8c-12.7,11.5-47.5,21-94.4,25.7c-21.4,2.2-75.7,3.1-99.5,1.6c-56.5-3.5-98.7-13.4-115.3-26.8c-2.4-2-4.4-3.4-4.6-3.2
			c-1.1,1.5-22.8,40.9-25.8,46.9c-7.4,14.6-6.8-7.9-6.6,267.6l0.3,247.9l2.9,5.3c3.5,6.2,13.3,15.8,20.3,19.7c3.7,2.2,5.4,4,7.2,7.9
			c5.3,10.9,14.1,16.7,35.6,23.2c17.7,5.4,21.4,6.3,30.5,8.3c32.5,6.8,55.9,8.5,109.4,7.8c35-0.4,44.6-0.9,57.1-2.6
			c36-4.9,71.8-14.5,84.5-22.7c5.5-3.4,10.5-9.3,14.3-16.5c2.2-4,6-9,10.1-12.9c4.5-4.3,7.7-8.5,9.9-12.9l3.2-6.6l0.3-244
			c0.2-174,0-245.9-0.8-250.5c-1.8-10.1-4.1-15.7-14.3-33.7c-5.3-9.2-11.5-20.4-13.9-24.7c-2.4-4.4-4.7-8.1-5.3-8.2
			C1243,60.2,1240.6,61.8,1238.4,63.8z"/>
	</g>
	<g id="layer-3_00000094600345380886547760000002534921087469856416_">
		
			<linearGradient id="region-3-1_00000104694735661358677320000017069524153975756454_" gradientUnits="userSpaceOnUse" x1="562.813" y1="892.9774" x2="562.813" y2="893.9774" gradientTransform="matrix(314.992 0 0 63.4773 -175774.3594 -56669.3594)">
			<stop  offset="0" style="stop-color:#E9EAEB;stop-opacity:0.802"/>
			<stop  offset="1" style="stop-color:#F8F7F9;stop-opacity:0.761"/>
		</linearGradient>
		
			<path id="region-3-1_00000173862027561130567020000008765209557577191041_" style="fill:url(#region-3-1_00000104694735661358677320000017069524153975756454_);stroke:#000000;stroke-width:2;stroke-miterlimit:10;" d="
			M1465.1,15c-57.8,3.3-106.5,14.1-113.4,25.4c-2.7,4.4-2.6,6.8,0.4,10.4c10,11.9,53.4,22.5,107.8,26.3c23.2,1.6,94.3,0.7,113.7-1.5
			c44.5-5,75.6-13.2,86.5-22.8c7.9-7,5.8-13.1-6.8-19.2c-16.5-8.1-47.5-14.2-89.2-17.6C1546.4,14.5,1484.7,13.9,1465.1,15z"/>
		
			<linearGradient id="region-3-2_00000158031209043422821920000003915609175349038216_" gradientUnits="userSpaceOnUse" x1="562.8142" y1="895.4745" x2="562.8142" y2="896.4745" gradientTransform="matrix(314.8298 0 0 34.5232 -175683.5312 -30860.5645)">
			<stop  offset="0" style="stop-color:#E4E4E5;stop-opacity:0.771"/>
			<stop  offset="1" style="stop-color:#EFEEF0;stop-opacity:0.801"/>
		</linearGradient>
		
			<path id="region-3-2_00000042003485642544513840000014161810164588260275_" style="fill:url(#region-3-2_00000158031209043422821920000003915609175349038216_);stroke:#000000;stroke-width:2;stroke-miterlimit:10;" d="
			M1662.2,55.9c-0.9,1-4.5,3.2-7.9,4.9c-17.3,8.5-46.5,14.7-88.6,18.9c-21.8,2.1-90.1,2.5-111.1,0.5c-50-4.6-81.7-11.6-98.5-21.7
			c-3.2-2-6-3.3-6.3-3c-0.3,0.3,1.7,2.7,4.4,5.3c23.3,22.5,132.3,34.3,221.9,24.2c31.1-3.6,57.7-9.7,73.1-16.9
			c8-3.8,15.4-9.8,15.4-12.6C1664.6,53.6,1664.3,53.6,1662.2,55.9z"/>
		
			<linearGradient id="region-3-3_00000136409632706117152350000013956105597921938313_" gradientUnits="userSpaceOnUse" x1="563.5591" y1="890.9149" x2="564.9396" y2="890.6962" gradientTransform="matrix(201.0009 0 0 573.4026 -111956.5234 -510436.3125)">
			<stop  offset="0" style="stop-color:#57F755;stop-opacity:0.363"/>
			<stop  offset="1" style="stop-color:#85FBA1;stop-opacity:0.764"/>
		</linearGradient>
		
			<path id="region-3-3_00000170241783805262985700000007633138698442873234_" style="fill:url(#region-3-3_00000136409632706117152350000013956105597921938313_);stroke:#000000;stroke-width:2;stroke-miterlimit:10;" d="
			M1352.6,97.6c-6.8,9.2-13.4,18.8-14.7,21.4c-5.5,11.4-5.3,2.6-5.3,254.2v232l2.4,5.3c6.5,14.2,22.3,24.2,52.2,32.9
			c28.7,8.3,48,11.1,74.9,11c19.3,0,21.8-0.3,30.7-2.7c18.3-4.9,31.9-14.5,38.1-26.8l2.7-5.5l-0.3-233.9
			c-0.1-128.7-0.5-234.9-0.9-236.1c-0.3-1.1-1.3-4.3-2.1-7c-2.8-9.6-11.7-25.1-18.6-32.7c-2.3-2.6-2.9-2.7-11.5-2.7
			c-43.8-0.1-94.9-9.1-124.8-22c-5.1-2.2-9.5-4-9.8-4S1359.5,88.5,1352.6,97.6z"/>
		
			<linearGradient id="region-3-4_00000148662393786359175810000011795270682107660694_" gradientUnits="userSpaceOnUse" x1="562.6642" y1="893.866" x2="562.676" y2="895.6488" gradientTransform="matrix(336.5941 0 0 48.8456 -187876.5625 -43014.6211)">
			<stop  offset="0" style="stop-color:#9E90A3;stop-opacity:0.705"/>
			<stop  offset="1" style="stop-color:#BFB0C3;stop-opacity:0.832"/>
		</linearGradient>
		
			<path id="region-3-4_00000039846513778332761680000014037770177174867075_" style="fill:url(#region-3-4_00000148662393786359175810000011795270682107660694_);stroke:#000000;stroke-width:2;stroke-miterlimit:10;" d="
			M1674.6,651.2c-34.2,21.4-85.3,31.9-154.5,31.7c-14.8,0-30.6-0.5-35-1s-13.4-1.3-20.1-1.9c-6.6-0.5-14.5-1.4-17.5-1.9
			c-10.8-2-41.5-7-46.4-7.6c-1.1-0.1-2.7-0.5-3.5-0.8s-5.5-1.5-10.3-2.7c-12-2.9-25.7-7.5-34.6-11.6c-4.1-1.9-7.6-3.2-7.9-2.9
			c-0.9,0.9,6.4,11.8,10.1,15c4.2,3.6,14.8,8.3,27.2,12.1c17.7,5.4,21.4,6.3,30.5,8.3c32.5,6.8,55.9,8.5,109.4,7.8
			c35-0.4,44.6-0.9,57.1-2.6c27.8-3.8,53.8-9.8,70.5-16.3c16.5-6.5,22-10.9,28.4-23.1c2-3.7,3.5-6.7,3.3-6.7
			C1681.2,647.1,1678.2,648.9,1674.6,651.2z"/>
	</g>
	<g id="layer-4_00000141430793829887272780000007142450926018369687_">
		
			<linearGradient id="region-4-1_00000051359781295933832020000013729186382295019962_" gradientUnits="userSpaceOnUse" x1="564.3842" y1="893.4046" x2="564.3842" y2="894.4046" gradientTransform="matrix(299.9355 0 0 55.5133 -167335.8906 -49579.4023)">
			<stop  offset="0" style="stop-color:#2B2F32;stop-opacity:0.384"/>
			<stop  offset="1" style="stop-color:#383C40;stop-opacity:0.324"/>
		</linearGradient>
		
			<path id="region-4-1_00000098913110057438472840000011323001000435947711_" style="fill:url(#region-4-1_00000051359781295933832020000013729186382295019962_);stroke:#000000;stroke-width:2;stroke-miterlimit:10;" d="
			M1899.5,17.1c-27.6,1.5-52.9,4.6-71.5,8.8c-4.7,1.1-10.7,2.4-13.5,3.1c-6.4,1.4-18.5,8.7-20.5,12.2c-1.3,2.5-1.3,3.1,0,5.5
			c0.8,1.4,4.2,4.1,7.5,6c16.2,9,48.6,15.4,93,18.3c20.2,1.3,78.5,1.3,97.5,0c56.8-3.9,93.8-12.5,99.5-23.3c1.8-3.4,1.9-3.9,0.5-6.4
			c-5.8-10.4-40-19.2-90.5-23.3C1983.8,16.5,1919.1,15.9,1899.5,17.1z"/>
		
			<linearGradient id="region-4-2_00000078044641296467651330000003655556050868435605_" gradientUnits="userSpaceOnUse" x1="564.5452" y1="897.2682" x2="564.5452" y2="898.2682" gradientTransform="matrix(288 0 0 26.0035 -160633.0156 -23203.9336)">
			<stop  offset="0" style="stop-color:#BCF4FF;stop-opacity:0.647"/>
			<stop  offset="1" style="stop-color:#C6FBFF;stop-opacity:0.687"/>
		</linearGradient>
		
			<path id="region-4-2_00000174596806653487512060000005350474232401137562_" style="fill:url(#region-4-2_00000078044641296467651330000003655556050868435605_);stroke:#000000;stroke-width:2;stroke-miterlimit:10;" d="
			M2088,131.6c-18.1,5.9-44.7,11.1-75.5,14.6c-17.6,2.1-90.5,1.7-112.5-0.5c-22.4-2.3-54.4-6.9-73.2-10.5
			c-8.2-1.6-14.8-2.5-14.8-2.1c0,1,3.6,2,25,6.9c44.2,10,80.7,14.2,122.5,14.2c36.3,0,66.8-3.2,95.6-10.3c21.5-5.2,44.9-13,44.9-15
			C2100,127.7,2100.1,127.7,2088,131.6z"/>
		
			<linearGradient id="region-4-3_00000135682786805410215000000001948109581610078391_" gradientUnits="userSpaceOnUse" x1="563.7542" y1="890.4824" x2="563.7542" y2="891.4824" gradientTransform="matrix(358 0 0 391.7957 -199871 -348706.0938)">
			<stop  offset="0" style="stop-color:#98A1FF;stop-opacity:0.611"/>
			<stop  offset="1" style="stop-color:#AED6FF;stop-opacity:0.747"/>
		</linearGradient>
		
			<path id="region-4-3_00000155852082149399084060000002399258878805837722_" style="fill:url(#region-4-3_00000135682786805410215000000001948109581610078391_);stroke:#000000;stroke-width:2;stroke-miterlimit:10;" d="
			M2128.5,182.2c-16.9,5.6-29.5,15-41.5,30.9c-11.3,15.1-19.1,30.7-29,57.9c-6.8,18.7-12.4,30.7-18.8,40.2
			c-9.8,14.5-20.2,20.8-35.6,21.5c-11.5,0.6-22.7-1.6-46.6-9.2c-22.9-7.3-32.1-8.9-47.5-8.2c-14.3,0.6-21.9,2.5-34,8.1
			c-20.6,9.7-39.6,28.6-56.9,56.5c-14.6,23.7-27.8,56.5-40,99.8l-4.6,16.1v34.3c0,18.9,0.4,33.9,0.8,33.3c0.5-0.5,1.9-3.6,3.2-6.9
			c7-18,17-34.5,26-42.8c12.8-11.9,24.9-11.3,37.4,1.7c2.8,3,5.6,5.5,6.1,5.7c0.6,0.2,5.1,5.1,10.1,10.9c27.9,32.1,46,42,74.3,40.8
			c25.1-1.2,44.4-9.5,63-27.3c14.4-13.8,22.6-26,43.6-64.6c18.6-34.2,23.6-41.8,34-52.4c11.2-11.3,17.1-14.6,27-15.3
			c5.8-0.4,8.1,0,11.8,1.6c6.8,3,11.5,6.9,16.4,13.6l4.3,5.8V307.6c0-69.6-0.1-126.6-0.2-126.5
			C2131.6,181.1,2130.2,181.6,2128.5,182.2z"/>
		
			<linearGradient id="region-4-4_00000083807030723204827990000010814617169816189627_" gradientUnits="userSpaceOnUse" x1="565.5316" y1="901.1577" x2="565.6674" y2="908.8374" gradientTransform="matrix(231.3898 0 0 16.926 -128907.1641 -14577.0547)">
			<stop  offset="0" style="stop-color:#E7E6E9;stop-opacity:0.8"/>
			<stop  offset="1" style="stop-color:#EEEFF0;stop-opacity:0.799"/>
		</linearGradient>
		
			<path id="region-4-4_00000082365177541123247470000014092528922904763781_" style="fill:url(#region-4-4_00000083807030723204827990000010814617169816189627_);stroke:#000000;stroke-width:2;stroke-miterlimit:10;" d="
			M1836.6,677.6c-1.4,3.6-0.5,4.1,12.2,6.7c31.7,6.7,55,8.7,98.8,8.7c27.7,0,39.1-0.4,54.5-2c27.7-2.8,65.4-10.1,65.4-12.6
			c0-1.9-8.6-1.4-23,1.5c-26.3,5.2-48.3,7.1-82.1,7.1c-41.5,0-95.7-4.5-115.5-9.6C1839.6,675.6,1837.4,675.6,1836.6,677.6z"/>
	</g>
	<g id="layer-5_00000141424360728456576010000002780778323448960179_">
		
			<linearGradient id="region-5-1_00000124862978659614023000000003506592783373750916_" gradientUnits="userSpaceOnUse" x1="571.15" y1="897.3486" x2="571.2518" y2="900.6252" gradientTransform="matrix(149.8706 0 0 25.6666 -83265.5781 -23005.1016)">
			<stop  offset="0" style="stop-color:#E4E4E4;stop-opacity:0.67"/>
			<stop  offset="1" style="stop-color:#FFFFFF;stop-opacity:0.801"/>
		</linearGradient>
		
			<path id="region-5-1_00000132788504125794157270000011183235843266768301_" style="fill:url(#region-5-1_00000124862978659614023000000003506592783373750916_);stroke:#000000;stroke-width:2;stroke-miterlimit:10;" d="
			M2331.2,28c-6.3,0.4-19.1,0.8-28.3,0.9c-12.1,0.1-17.7,0.5-20.2,1.6c-1.9,0.7-6.3,1.7-9.8,2.1c-5.1,0.6-10.7,2.3-12.6,4
			c-1.2,1,6.3,6.1,12.4,8.5c16.8,6.5,35.2,8.3,80.9,7.6c36.5-0.5,43.5-1.3,51.9-5.9c3.3-1.8,4.3-3,4.5-5.3c0.5-4.8-3.4-9.5-9.8-12.1
			c-5.3-2.2-6.6-2.3-31.5-2.2C2354.4,27.3,2337.5,27.7,2331.2,28z"/>
		
			<linearGradient id="region-5-2_00000057129675882182865050000007614143599798833580_" gradientUnits="userSpaceOnUse" x1="566.0295" y1="895.6741" x2="566.3539" y2="889.9467" gradientTransform="matrix(287.461 0 0 40.6674 -160343.6406 -36354.9102)">
			<stop  offset="0" style="stop-color:#A9AAAB;stop-opacity:0.994"/>
			<stop  offset="1" style="stop-color:#FFFFFF;stop-opacity:0.627"/>
		</linearGradient>
		
			<path id="region-5-2_00000104691759171104461500000009769967717617232530_" style="fill:url(#region-5-2_00000057129675882182865050000007614143599798833580_);stroke:#000000;stroke-width:2;stroke-miterlimit:10;" d="
			M2408.1,29.5c5.1,3.8,6.6,13.6,3.1,20.6c-8.6,16.8-44.1,20.8-115.5,13c-8.9-1-21.5-3.9-21.5-5.1c0-0.4-2-1.5-4.4-2.4
			c-6.8-2.6-13.1-7.9-15-12.5c-0.9-2.3-1.7-4.1-1.9-4.1c-2.8,0-19.1,7.2-20.1,8.8c-0.9,1.5,8.3,5.9,17.9,8.7c10,2.9,33.1,7.1,47,8.6
			c5,0.5,12.8,1.4,17.5,1.9c15.2,1.7,74,2.3,98,1.1c38.4-2,69.5-6.1,88.3-11.6c9.4-2.7,18.7-6.9,18.7-8.5c0-1.7-12.3-6.8-22.6-9.4
			c-18.8-4.8-49.8-8.7-78.9-10.2C2406.2,27.8,2405.8,27.9,2408.1,29.5z"/>
		
			<linearGradient id="region-5-3_00000149357637025783317070000017444313404498692788_" gradientUnits="userSpaceOnUse" x1="571.2852" y1="899.2474" x2="571.6303" y2="904.972" gradientTransform="matrix(147.9814 0 0 20.3741 -82209.5859 -18279.3418)">
			<stop  offset="0" style="stop-color:#E5E6E7;stop-opacity:0.801"/>
			<stop  offset="1" style="stop-color:#EBEBEC;stop-opacity:0.797"/>
		</linearGradient>
		
			<path id="region-5-3_00000115473968736166975860000003888687863981072286_" style="fill:url(#region-5-3_00000149357637025783317070000017444313404498692788_);stroke:#000000;stroke-width:2;stroke-miterlimit:10;" d="
			M2258.2,42.8c0,1.5,5.7,6,10.9,8.6c15.4,7.9,43.8,11.6,87.7,11.6c20.5,0,32.7-1.6,40.9-5.5c5.4-2.6,11.3-7.7,7-6.1
			c-9.8,3.6-29.5,5.6-56,5.6c-45,0-70.8-3.8-86.2-12.7C2260.1,42.9,2258.2,42.3,2258.2,42.8z"/>
		
			<linearGradient id="region-5-4_00000047040030227689444150000013586866955730828957_" gradientUnits="userSpaceOnUse" x1="575.0816" y1="890.9476" x2="575.3978" y2="892.1179" gradientTransform="matrix(108.1202 0 0 183.7634 -59885.918 -163390.3594)">
			<stop  offset="0" style="stop-color:#EB3B1B;stop-opacity:0.807"/>
			<stop  offset="1" style="stop-color:#E00F00;stop-opacity:0.805"/>
		</linearGradient>
		
			<path id="region-5-4_00000080897996308625267970000018172566132348984469_" style="fill:url(#region-5-4_00000047040030227689444150000013586866955730828957_);" d="
			M2293.1,349.5c-7.3,2.7-11.8,5.6-16.2,10.5c-6.1,6.8-8.9,14.2-9.5,25.3c-0.4,8.3-0.3,9.1,2.7,15.2c5.1,10.4,13.1,16.4,31.5,23.9
			c12.7,5.2,18.7,8.7,24.7,14.3c18.2,17.1,16.7,51-2.8,60.4c-9.3,4.5-22.6,2-28.8-5.3c-5.7-6.7-5.4-14.6,0.9-27.8
			c3.9-8.2,4.4-11.6,2.1-16c-4.7-9.2-22.6-8.4-29.8,1.2c-6.9,9.2-9.7,21-7.7,32.8c2.2,12.8,11.4,28.5,21.3,35.9
			c22,16.7,50.2,15.8,67.9-2.1c18.4-18.7,24-58.3,11.8-83c-4.2-8.5-8.2-13.9-14.5-19.7c-7.2-6.5-12.3-9.5-23.6-13.7
			c-14.1-5.2-20.5-10.9-21.6-19.2c-0.6-4.7,0.9-8,4.1-8.8c3.4-0.8,6.2,1,6.9,4.6c1,4.7,4.9,8,9.4,8c7.3,0,11.3-5.2,11.3-14.5
			c0-9.9-4.4-16.8-13.5-21.1c-4.1-2-6.5-2.4-14-2.3C2300.8,348.1,2295.1,348.7,2293.1,349.5z"/>
		
			<linearGradient id="region-5-5_00000122685781824143060160000013806185849288283291_" gradientUnits="userSpaceOnUse" x1="592.8413" y1="891.9982" x2="593.2401" y2="893.1576" gradientTransform="matrix(49 0 0 91.068 -26546 -80926.625)">
			<stop  offset="0" style="stop-color:#B21F00;stop-opacity:0.8"/>
			<stop  offset="1" style="stop-color:#AC1300;stop-opacity:0.812"/>
		</linearGradient>
		
			<path id="region-5-5_00000011728346493336666090000016190093729192017051_" style="fill:url(#region-5-5_00000122685781824143060160000013806185849288283291_);" d="
			M2504.4,315c-6.2,3.8-12.2,15.7-12.2,24.5c0,10.1,7.8,11.6,11.8,2.3c0.6-1.5,2.3-3.5,3.7-4.4c2.5-1.6,2.7-1.6,5.3,0.3
			c3.5,2.6,5.1,6,5.9,12.3l0.6,5l-3.2-1.6c-6.5-3.2-13.7-0.1-18,7.6c-2.1,3.7-2.5,6.1-2.9,14.9c-0.5,12,0.6,17.6,4.4,22.1
			c3.7,4.3,7.5,6,13.7,6c6.4,0,9.5-2,12.2-7.6l1.8-3.8l1.4,3c2.9,5.6,6.8,6.9,10.3,3.4c1.5-1.5,2-3.3,2-7.8c0-5.9-0.9-8.1-5.6-13.2
			c-3.3-3.7-5.2-11.6-6.9-29.6c-1.8-19.8-4.1-28-9-32.3C2515.4,312.3,2509.5,311.9,2504.4,315z"/>
		
			<linearGradient id="region-5-6_00000039112360794512661840000005650013717836480686_" gradientUnits="userSpaceOnUse" x1="584.3052" y1="891.5062" x2="584.3818" y2="892.5588" gradientTransform="matrix(66.9819 0 0 122.8471 -36685.8242 -109198.8047)">
			<stop  offset="0" style="stop-color:#B32102;stop-opacity:0.797"/>
			<stop  offset="1" style="stop-color:#AA1000;stop-opacity:0.816"/>
		</linearGradient>
		
			<path id="region-5-6_00000114051996493623217090000004771576722194719404_" style="fill:url(#region-5-6_00000039112360794512661840000005650013717836480686_);" d="
			M2465.6,326.1c-1.7,1.9-1.9,3.7-1.9,17.8c0,8.6,0.3,17.7,0.7,20.4l0.8,4.7l-4-2c-21.1-10.7-44.3,20.6-37.9,51.2
			c2.3,11.1,10.2,23.9,17,27.4c1.6,0.8,5,1.4,7.7,1.4c8.3,0,16.6-6.8,21.4-17.7l2-4.6l1.9,3c2.1,3.3,6.6,5.7,9.5,5.1
			c3.4-0.6,6.4-6.6,6.4-12.8c0-14.9-9.1-86.5-11.7-91.8c-1.6-3.3-2.3-3.7-5.9-4C2468.5,324,2467.1,324.4,2465.6,326.1z"/>
		
			<linearGradient id="region-5-7_00000052799317661277443760000001398748734432773520_" gradientUnits="userSpaceOnUse" x1="590.5399" y1="892.3074" x2="591.4659" y2="893.3798" gradientTransform="matrix(52.4 0 0 80.7207 -28580 -71656.1797)">
			<stop  offset="0" style="stop-color:#D1391C;stop-opacity:0.808"/>
			<stop  offset="1" style="stop-color:#C60D00;stop-opacity:0.799"/>
		</linearGradient>
		
			<path id="region-5-7_00000065786081231837657050000016464027199955112080_" style="fill:url(#region-5-7_00000052799317661277443760000001398748734432773520_);" d="
			M2379.7,375.8c-10.4,4.9-17.5,19.6-17.5,36.3c0,10.1,1.4,17,5.1,24.9c9.9,21.2,29.7,24.1,40.7,6c4.9-8.1,6.6-15,6.6-26.5
			c0-12.2-2.5-21.2-8.3-30.2C2399.6,375.9,2388.7,371.6,2379.7,375.8z"/>
	</g>
	<g id="layer-6_00000031924381892765690670000010323951667614675878_">
		
			<linearGradient id="region-6-1_00000052100348181045884920000009631986730116895400_" gradientUnits="userSpaceOnUse" x1="599.4955" y1="899.4473" x2="600.2436" y2="901.7861" gradientTransform="matrix(51.8426 0 0 19.8043 -28276.7148 -17786.793)">
			<stop  offset="0" style="stop-color:#B6B8B9;stop-opacity:0.71"/>
			<stop  offset="1" style="stop-color:#A0A2A4;stop-opacity:0.825"/>
		</linearGradient>
		
			<path id="region-6-1_00000129168438449785652640000012846422640422725301_" style="fill:url(#region-6-1_00000052100348181045884920000009631986730116895400_);stroke:#000000;stroke-width:2;stroke-miterlimit:10;" d="
			M2798.2,29.5c-8.8,2.4-12.2,5.7-10.7,10.5c1.6,4.9,15.6,8.6,29.3,7.7c13-0.9,22.2-4.9,22.2-9.8c0-2.1-5.2-6.7-8.6-7.5
			c-1.3-0.3-2.4-1-2.4-1.5C2828,27.4,2804.1,28,2798.2,29.5z"/>
		
			<linearGradient id="region-6-2_00000137841971083931915300000006850247818569831060_" gradientUnits="userSpaceOnUse" x1="596.7853" y1="908.4097" x2="596.7853" y2="909.4097" gradientTransform="matrix(56 0 0 10.2663 -30677 -9292.7559)">
			<stop  offset="0" style="stop-color:#BCBEBF;stop-opacity:0.798"/>
			<stop  offset="1" style="stop-color:#C0C2C4;stop-opacity:0.802"/>
		</linearGradient>
		
			<path id="region-6-2_00000095306959558721721450000002147758009693739702_" style="fill:url(#region-6-2_00000137841971083931915300000006850247818569831060_);stroke:#000000;stroke-width:2;stroke-miterlimit:10;" d="
			M2727.5,34.1c-7,1-12.5,2.7-12.5,3.9c0,1.7,8.4,4.1,17.7,5c6.3,0.7,13.1,0.7,19.8,0c9.8-0.9,18.5-3.3,18.5-5
			C2771,34.3,2743,31.9,2727.5,34.1z"/>
		
			<linearGradient id="region-6-3_00000058571882000013331360000009820250488768311461_" gradientUnits="userSpaceOnUse" x1="690.06" y1="897.6687" x2="690.06" y2="898.6687" gradientTransform="matrix(15.6837 0 0 24.6456 -7999.7847 -21727.4258)">
			<stop  offset="0" style="stop-color:#9FF6FF;stop-opacity:0.814"/>
			<stop  offset="1" style="stop-color:#98F7FF;stop-opacity:0.851"/>
		</linearGradient>
		
			<path id="region-6-3_00000038410715999338539780000010411233863960170408_" style="fill:url(#region-6-3_00000058571882000013331360000009820250488768311461_);stroke:#000000;stroke-width:2;stroke-miterlimit:10;" d="
			M2818,398.5c-5.2,5.5-3.1,19.6,3.3,21.9c8.4,3,13-13.2,6.1-21.4C2824.3,395.3,2821.1,395.2,2818,398.5z"/>
		
			<linearGradient id="region-6-4_00000127728656707257133290000006394469989854770829_" gradientUnits="userSpaceOnUse" x1="709.5418" y1="899.973" x2="710.5697" y2="900.929" gradientTransform="matrix(13.5862 0 0 18.9924 -6701.0825 -16725.418)">
			<stop  offset="0" style="stop-color:#69B8EF;stop-opacity:0.694"/>
			<stop  offset="1" style="stop-color:#62B8FA;stop-opacity:0.739"/>
		</linearGradient>
		
			<path id="region-6-4_00000064340730739627181350000010108861499673525947_" style="fill:url(#region-6-4_00000127728656707257133290000006394469989854770829_);stroke:#000000;stroke-width:2;stroke-miterlimit:10;" d="
			M2941,370.2c-3.6,5.9-1.6,14.1,3.7,15.4c5,1.3,8.6-3.4,8-10.4C2951.8,366.9,2944.8,363.9,2941,370.2z"/>
		
			<linearGradient id="region-6-5_00000087381061560981268310000012422138002740032417_" gradientUnits="userSpaceOnUse" x1="640.8505" y1="895.3705" x2="640.8785" y2="896.4088" gradientTransform="matrix(25.2846 0 0 35.1069 -13320.6006 -31045.127)">
			<stop  offset="0" style="stop-color:#6CB0E1;stop-opacity:0.756"/>
			<stop  offset="1" style="stop-color:#5FA9EC;stop-opacity:0.806"/>
		</linearGradient>
		
			<path id="region-6-5_00000126295605308939887100000003242722633402192535_" style="fill:url(#region-6-5_00000087381061560981268310000012422138002740032417_);stroke:#000000;stroke-width:2;stroke-miterlimit:10;" d="
			M2877,391.6c-4.6,3.9-6.2,7.9-6.2,15c0,16.7,15.5,23.9,23,10.6c2.7-4.8,3.1-15.6,0.7-20.1c-2.3-4.5-7.2-8.1-11-8.1
			C2881.3,389,2879,389.9,2877,391.6z"/>
	</g>
	<line class="st49" x1="434" y1="0" x2="434" y2="701"/>
	<line class="st49" x1="868" y1="0" x2="868" y2="701"/>
	<line class="st49" x1="1302" y1="0" x2="1302" y2="701"/>
	<line class="st49" x1="1736" y1="0" x2="1736" y2="701"/>
	<line class="st49" x1="2170" y1="0" x2="2170" y2="701"/>
	<line class="st49" x1="2604" y1="0" x2="2604" y2="701"/>
</g>
</svg>
