<?xml version="1.0" encoding="utf-8"?>
<!-- Generator: Adobe Illustrator 26.5.0, SVG Export Plug-In . SVG Version: 6.00 Build 0)  -->
<svg version="1.1" id="图层_1" xmlns="http://www.w3.org/2000/svg" xmlns:xlink="http://www.w3.org/1999/xlink" x="0px" y="0px"
	 viewBox="0 0 1061 605.6" style="enable-background:new 0 0 1061 605.6;" xml:space="preserve">
<style type="text/css">
	.st0{fill:none;}
	.st1{fill:#D3D3D3;}
	.st2{clip-path:url(#SVGID_00000173134766571110235750000008410294938788561301_);}
	.st3{fill:url(#SVGID_00000137847767162624759940000015788959100171468423_);}
	.st4{fill:url(#SVGID_00000124160206016171942860000007490144490202739372_);}
	.st5{fill:url(#SVGID_00000115496152638388332830000001699859272328231582_);}
	.st6{fill:url(#SVGID_00000142863405341539641430000013651324016837058227_);}
	.st7{fill:url(#SVGID_00000132773933367166519940000016327444870650765954_);}
	.st8{fill:url(#SVGID_00000013189014815310992760000003232913228951537319_);}
	.st9{fill:url(#SVGID_00000088127262544839716580000010333495091725457556_);}
	.st10{fill:url(#SVGID_00000018231114965957224400000003637739247064161421_);}
	.st11{fill:url(#SVGID_00000023257783978837639260000018198736881808052904_);}
	.st12{fill:url(#SVGID_00000150067088115024606800000011350898173430471581_);}
	.st13{fill:url(#SVGID_00000183210720337464693470000007583702080409603213_);}
	.st14{fill:url(#SVGID_00000036231217769163364520000008299723251238387356_);}
	.st15{fill:url(#SVGID_00000056409269194990565870000014061359217631111556_);}
	.st16{fill:url(#SVGID_00000123440806759153727930000012151120822477756837_);}
	.st17{fill:url(#SVGID_00000116942691718869507740000010970765619023850155_);}
	.st18{fill:url(#SVGID_00000029731114697585016800000002446633804389413291_);}
	.st19{fill:url(#SVGID_00000011029929601983173430000002984043340703770298_);}
	.st20{fill:url(#SVGID_00000013156660774739640020000015290783071987633288_);}
	.st21{fill:url(#SVGID_00000158018301659219303480000006780074945254644626_);}
	.st22{fill:url(#SVGID_00000082363774381691058620000004747624444401242001_);}
	.st23{fill:url(#SVGID_00000038391397714889237490000004645545451110224524_);}
	.st24{fill:url(#SVGID_00000028320866114227907810000013575766977449838763_);}
	.st25{fill:url(#SVGID_00000111883714502007020040000007263231578938873989_);}
	.st26{fill:url(#SVGID_00000143581978226509921730000014663238259942817167_);}
	.st27{fill:url(#SVGID_00000085230607156518050210000008920964598222428812_);}
	.st28{fill:url(#SVGID_00000066516119604665650690000002596300748216746130_);}
	.st29{fill:url(#SVGID_00000041260974168616979230000004257099616417797542_);}
	.st30{fill:url(#SVGID_00000103254375110607572020000013055809258971138454_);}
	.st31{fill:url(#SVGID_00000030463402870712832750000001492547875728302231_);}
	.st32{fill:url(#SVGID_00000155110380909636657430000001837899176100130991_);}
	.st33{fill:url(#SVGID_00000107582148234907687100000006368615134348738714_);}
	.st34{fill:url(#SVGID_00000005983831260465550480000009271324343130805152_);}
	.st35{fill:url(#SVGID_00000032619604957238367280000015167680982020555932_);}
	.st36{fill:url(#SVGID_00000128450318797395879840000004959375424604296638_);}
	.st37{fill:url(#SVGID_00000020380718006661725200000001656108465335739558_);}
	.st38{fill:url(#SVGID_00000093172256195232355690000002740492814814844329_);}
	.st39{fill:url(#SVGID_00000175287393726799200910000003867904569793658020_);}
	.st40{fill:url(#SVGID_00000155135114649334036630000003491338767613539217_);}
	.st41{fill:url(#SVGID_00000152950331161423934310000003005843357776594860_);}
	.st42{fill:url(#SVGID_00000111909048509350816660000014015061801982634150_);}
	.st43{fill:url(#SVGID_00000024711218684190410530000011561243061808549302_);}
	.st44{fill:url(#SVGID_00000133491053877999889450000001109289356091590331_);}
	.st45{fill:url(#SVGID_00000165937172335941040210000010701892660052300947_);}
	.st46{fill:url(#SVGID_00000109716758771645726850000015975294414261760900_);}
	.st47{fill:url(#SVGID_00000021106684210314996270000011533454270531098288_);}
	.st48{fill:url(#SVGID_00000168805847974460719840000004386093474031447486_);}
	.st49{fill:url(#SVGID_00000166662528657599367680000009066342729115743897_);}
	.st50{fill:url(#SVGID_00000015353476731655325940000006383867180034978212_);}
	.st51{fill:url(#SVGID_00000055693406811535953070000006560229406362431894_);}
	.st52{fill:url(#SVGID_00000039124251675921411460000018297564644467872949_);}
	.st53{fill:url(#SVGID_00000083058528559176372280000013557007092510018200_);}
	.st54{fill:url(#SVGID_00000103950076867848718510000004840103806573442957_);}
	.st55{fill:url(#SVGID_00000036931128126256379090000011714412655595565472_);}
	.st56{fill:url(#SVGID_00000057870767977601267890000003209888623451141536_);}
	.st57{fill:url(#SVGID_00000044155113392081809260000017703790139064067474_);}
	.st58{fill:url(#SVGID_00000049918571701669751640000002522959042022305434_);}
	.st59{fill:url(#SVGID_00000094583353275128700020000015637682974382181287_);}
	.st60{fill:none;stroke:#FF0000;stroke-width:4;stroke-miterlimit:10;}
	.st61{fill:none;stroke:#000000;stroke-width:2;stroke-miterlimit:10;}
	.st62{fill:none;stroke:#F90315;stroke-width:4;stroke-miterlimit:10;}
</style>
<pattern  y="605.6" width="40" height="40" patternUnits="userSpaceOnUse" id="SVGID_0000000739066373999983211" viewBox="0 -40 40 40" style="overflow:visible;">
	<g>
		<rect y="-40" class="st0" width="40" height="40"/>
		<g>
			<rect y="-40" class="st0" width="40" height="40"/>
			<g>
				<rect y="-40" class="st0" width="40" height="40"/>
				<g>
					<rect y="-40" class="st0" width="40" height="40"/>
					<g>
						<rect y="-40" class="st0" width="40" height="40"/>
						<g>
							<rect y="-40" class="st0" width="40" height="40"/>
							<g>
								<rect y="-40" class="st0" width="40" height="40"/>
								<g>
									<polygon class="st0" points="0,0 40,0 40,-40 0,-40 									"/>
									<polygon class="st1" points="0,-20 20,-20 20,-40 0,-40 									"/>
									<polygon class="st1" points="20,0 40,0 40,-20 20,-20 									"/>
								</g>
							</g>
						</g>
					</g>
				</g>
			</g>
		</g>
	</g>
</pattern>
<g id="_图层_3">
	<g>
		<g>
			<g>
				<defs>
					<rect id="SVGID_1_" width="1061" height="605.6"/>
				</defs>
				<clipPath id="SVGID_00000119815691487885655530000007481471430167943322_">
					<use xlink:href="#SVGID_1_"  style="overflow:visible;"/>
				</clipPath>
				<g style="clip-path:url(#SVGID_00000119815691487885655530000007481471430167943322_);">
					
						<pattern  id="SVGID_00000070815502622058058280000003893044447978540678_" xlink:href="#SVGID_0000000739066373999983211" patternTransform="matrix(1 0 0 1 122.5 18203.6895)">
					</pattern>
					<rect style="fill:url(#SVGID_00000070815502622058058280000003893044447978540678_);" width="1060.3" height="605.2"/>
				</g>
			</g>
		</g>
	</g>
</g>
<g id="_图层_1">
	
		<linearGradient id="SVGID_00000021116379030907501940000016117129880432887695_" gradientUnits="userSpaceOnUse" x1="-1088.3484" y1="-2.5072" x2="-1087.3483" y2="-2.5072" gradientTransform="matrix(126.81 0 0 -214.44 138015.3281 -430.4504)">
		<stop  offset="0" style="stop-color:#AE464D"/>
		<stop  offset="1" style="stop-color:#AE464D"/>
	</linearGradient>
	<path style="fill:url(#SVGID_00000021116379030907501940000016117129880432887695_);" d="M102.5,1c-6.4,1.8-26.7,12.2-31,15.9
		c-2.2,1.8-5.6,4.3-7.6,5.5C62,23.6,55.8,29.2,50.2,35C40.6,44.9,40,45.7,40,49.7s3,11.2,8.3,19.6C54.6,79.3,59,90.5,59,96.7
		c0,3.2-2.5,11.9-5,17.4c-2.5,5.6-9.3,15-25.9,35.9C4.3,180,1,185.6,1,197c0,7.2,0.1,7.5,3.5,10.5c12.6,11.1,54.6,8.6,94.5-5.7
		c4.1-1.5,6.7-2.8,5.8-3c-1.6-0.3-1.6-0.6,0.2-4.2c1.1-2.2,2-4.4,2-4.9s-5.1,1.4-11.2,4.4c-13.6,6.5-29.1,11.8-41.3,14
		c-12.1,2.3-26.4,1.7-32.1-1.3c-4.2-2.2-7.4-7-7.4-11.2c0-12.5,14.5-38.5,37.9-67.8C85.2,87.2,102,61.3,102,51.9
		c0-7.6,8.6-24.8,20.3-40.6c3.2-4.3,5.7-8.6,5.5-9.5c-0.3-1.5-1.9-1.7-10.8-1.8C111.2-0.1,104.7,0.3,102.5,1z"/>
	
		<linearGradient id="SVGID_00000147211107499507232850000010898021170947518092_" gradientUnits="userSpaceOnUse" x1="-1042.7474" y1="-27.8829" x2="-1043.2174" y2="-27.8029" gradientTransform="matrix(20.56 0 0 -31.77 21525.2988 -855.77)">
		<stop  offset="0" style="stop-color:#FDF0E9"/>
		<stop  offset="1" style="stop-color:#FFFFFF"/>
	</linearGradient>
	<path style="fill:url(#SVGID_00000147211107499507232850000010898021170947518092_);" d="M82,15c-9.9,7.2-13.5,13.3-15.5,26.1
		c-0.6,3.6-0.3,3.3,3.3-3.7c4.4-8.5,8.6-15,13.9-21.6c1.9-2.3,3.3-4.2,3.1-4.2S84.5,13.1,82,15z"/>
	
		<linearGradient id="SVGID_00000157283022657694553420000015657361536886589841_" gradientUnits="userSpaceOnUse" x1="-1087.7114" y1="-6.9749" x2="-1086.7114" y2="-6.9749" gradientTransform="matrix(118.11 0 0 -106.63 128925.6953 -458.8214)">
		<stop  offset="0" style="stop-color:#873345"/>
		<stop  offset="1" style="stop-color:#873345"/>
	</linearGradient>
	<path style="fill:url(#SVGID_00000157283022657694553420000015657361536886589841_);" d="M454.2,237.8c2.5,19.6,9.5,42.6,17.9,58.8
		c7.3,14.4,6.9,14,11.1,9.9c4-4,10.6-6.8,11.8-4.9c0.8,1.3,2.6,13.9,3.6,25.2c0.5,6.3,1.1,8.1,3,9.9c2.9,2.8,3.4,2.3,6.4-6.1
		c5.6-16.1,11.5-23.3,22.4-27c7.8-2.8,21.6-3.7,30.7-2.1c7.7,1.4,6.7-0.3,9.4,15.6l1.3,8l0.1-7.6c0.1-4.2-0.2-10.4-0.5-13.8
		l-0.7-6.1h-7.9c-6.1,0-8.8-0.5-12-2.1c-5.7-2.9-14.2-11.2-25.1-24.4c-18.4-22.4-21.3-24.7-38.7-30.3c-10.7-3.5-31.1-9.2-32.6-9.2
		C453.7,231.6,453.6,233.7,454.2,237.8L454.2,237.8z"/>
	
		<linearGradient id="SVGID_00000113313980076830963440000010857721062518236346_" gradientUnits="userSpaceOnUse" x1="-1004.8797" y1="-15.2686" x2="-1003.8798" y2="-15.2686" gradientTransform="matrix(11.91 0 0 -54.86 12436.041 -439.4603)">
		<stop  offset="0" style="stop-color:#A13D47"/>
		<stop  offset="1" style="stop-color:#A13D47"/>
	</linearGradient>
	<path style="fill:url(#SVGID_00000113313980076830963440000010857721062518236346_);" d="M473.7,375.1c1.9,11.3,0,32.6-4.3,48.2
		c-1.2,4.5,1.2,2.2,5.6-5.1c2.4-4.1,4.7-7.3,5.2-7c0.4,0.3,0.8-0.5,0.8-1.8c0-3.4-6.7-37.8-7.5-38.6
		C473.1,370.4,473.2,372.3,473.7,375.1L473.7,375.1z"/>
	
		<linearGradient id="SVGID_00000062183210288973914870000003914508749502609045_" gradientUnits="userSpaceOnUse" x1="-1046.7694" y1="-20.5909" x2="-1045.7694" y2="-20.5909" gradientTransform="matrix(21.84 0 0 -42 23373.2402 -286.2188)">
		<stop  offset="0" style="stop-color:#4D2449"/>
		<stop  offset="1" style="stop-color:#4D2449"/>
	</linearGradient>
	<path style="fill:url(#SVGID_00000062183210288973914870000003914508749502609045_);" d="M511.3,560.3c0.3,1.6,1.5,11,2.8,21.1
		l2.3,18.2h8.3c4.6,0,8.3-0.4,8.3-0.9c0-1.7-5.2-15.5-7.7-20.6c-3.5-6.9-12.5-20.5-13.6-20.5C511.2,557.6,511,558.8,511.3,560.3
		L511.3,560.3z"/>
	
		<linearGradient id="SVGID_00000127012221241929194100000017366988006533641381_" gradientUnits="userSpaceOnUse" x1="-1085.1783" y1="-9.7825" x2="-1084.1782" y2="-9.7825" gradientTransform="matrix(92.77 0 0 -81.19 101258.3906 -545.7395)">
		<stop  offset="0" style="stop-color:#EA6288"/>
		<stop  offset="1" style="stop-color:#EA6288"/>
	</linearGradient>
	<path style="fill:url(#SVGID_00000127012221241929194100000017366988006533641381_);" d="M625.4,208.5c-5.4,2.4-7,7.5-8.4,27.8
		c-1.3,18.7-3.4,26.2-9,32.6c-5,5.7-15,12.4-19.6,13.3c-5,0.9-3.7,2.6,3.7,4.8c4.6,1.3,10,1.9,19,2l12.7,0.1l9.3-4.8
		c16.9-8.6,34.4-24.8,41.8-38.6c3.9-7.4,4.4-17.3,1.1-22.6c-3.3-5.4-11.3-10.1-22.5-13.2C647.3,208.2,628.3,207.2,625.4,208.5z"/>
	
		<linearGradient id="SVGID_00000093140548411800276570000001528263385723253386_" gradientUnits="userSpaceOnUse" x1="-1041.9022" y1="-16.6524" x2="-1040.9021" y2="-16.6524" gradientTransform="matrix(19.91 0 0 -50.99 21399.7598 -609.5988)">
		<stop  offset="0" style="stop-color:#E0567F"/>
		<stop  offset="1" style="stop-color:#E0567F"/>
	</linearGradient>
	<path style="fill:url(#SVGID_00000093140548411800276570000001528263385723253386_);" d="M655,214.3c0,0.3,1.5,2.4,3.3,4.7
		c5,6.1,5.7,7.9,5.7,14.5c0,6.2-3,16.1-7.6,25.3c-3.1,6.2-3.1,7.2,0.4,5.4c4.4-2.3,11.1-10.2,14.3-16.9c5.4-11.5,3.3-21.4-5.9-28.2
		C660.6,215.8,655,213.1,655,214.3z"/>
	
		<linearGradient id="SVGID_00000105384317767470168150000006073397022617102253_" gradientUnits="userSpaceOnUse" x1="-1040.165" y1="-26.3113" x2="-1039.165" y2="-26.3113" gradientTransform="matrix(19.3 0 0 -33.33 20554.8984 -559.5175)">
		<stop  offset="0" style="stop-color:#BF4546"/>
		<stop  offset="1" style="stop-color:#BF4546"/>
	</linearGradient>
	<path style="fill:url(#SVGID_00000105384317767470168150000006073397022617102253_);" d="M488.2,302.8c-2.3,1.1-5.2,3.4-6.3,5
		l-2.1,2.9l5.5,7.2c3,4,7.3,9.2,9.6,11.7l4.2,4.5l-0.6-8c-0.6-8-2.1-19-3-23.3C494.9,300.1,493.7,300.1,488.2,302.8L488.2,302.8z"/>
	
		<linearGradient id="SVGID_00000125573707643629902420000017814261680695764116_" gradientUnits="userSpaceOnUse" x1="-1052.3917" y1="-16.6247" x2="-1051.3917" y2="-16.6247" gradientTransform="matrix(24.59 0 0 -51 26131.1621 -273.7617)">
		<stop  offset="0" style="stop-color:#5A2A54"/>
		<stop  offset="1" style="stop-color:#5A2A54"/>
	</linearGradient>
	<path style="fill:url(#SVGID_00000125573707643629902420000017814261680695764116_);" d="M253.3,552.3c0.3,2.1,1.6,13.3,2.8,24.9
		l2.2,21.1l6,0.7c3.3,0.3,7.7,0.6,9.9,0.6c3.7,0,3.8-0.1,3.2-2.8c-1.4-5.6-6.7-19.9-9.6-25.7c-3.5-7-13.4-22.5-14.4-22.5
		C253,548.6,253,550.3,253.3,552.3L253.3,552.3z"/>
	
		<linearGradient id="SVGID_00000142881456982774896330000001633325062869925549_" gradientUnits="userSpaceOnUse" x1="-1074.8672" y1="-35.9765" x2="-1073.8673" y2="-35.9765" gradientTransform="matrix(49.57 0 0 -24.95 53527.0273 -763.5392)">
		<stop  offset="0" style="stop-color:#A54D54"/>
		<stop  offset="1" style="stop-color:#A54D54"/>
	</linearGradient>
	<path style="fill:url(#SVGID_00000142881456982774896330000001633325062869925549_);" d="M285.3,122.3c0.9,0.9-21.1,9.1-29.6,11
		l-6.9,1.6l9.4,3.9c5.1,2.2,11.7,4.8,14.5,5.9c6.7,2.4,16.6,2.5,21.2,0.1c5.5-2.7,5.7-4,1.8-10.5c-4.7-7.7-8.6-12.7-9.9-12.7
		C285.2,121.6,285,121.9,285.3,122.3z"/>
	
		<linearGradient id="SVGID_00000049934275917504535070000007756900821775867284_" gradientUnits="userSpaceOnUse" x1="-1048.6476" y1="-16.6146" x2="-1047.6477" y2="-16.6146" gradientTransform="matrix(22.69 0 0 -51.21 24025.9414 -388.4522)">
		<stop  offset="0" style="stop-color:#E17372"/>
		<stop  offset="1" style="stop-color:#E17372"/>
	</linearGradient>
	<path style="fill:url(#SVGID_00000049934275917504535070000007756900821775867284_);" d="M238.6,438.8c-2.8,15.5-4.8,31.6-4.4,36.3
		c0.6,7,3.4,10.2,10.7,12.1c13.1,3.4,14.8-3.7,8.1-31.7l-3.3-13.7l-4.6-2.3c-2.5-1.3-4.9-2.5-5.3-2.7S238.9,437.5,238.6,438.8
		L238.6,438.8z"/>
	
		<linearGradient id="SVGID_00000142163087248428032730000005014838261917865602_" gradientUnits="userSpaceOnUse" x1="-1088.8959" y1="-6.9621" x2="-1088.6959" y2="-5.922" gradientTransform="matrix(142.2 0 0 -112.77 155409.0312 -505.9666)">
		<stop  offset="0" style="stop-color:#E06F6D"/>
		<stop  offset="1" style="stop-color:#EE8585"/>
	</linearGradient>
	<path style="fill:url(#SVGID_00000142163087248428032730000005014838261917865602_);" d="M627,174.2c-1.4,1-5.2,4.2-8.5,7.2
		c-7.1,6.5-12.4,9.2-18.5,9.2c-5.7,0-29.9-4.2-41-7.1c-11.5-3-26.7-3.2-32.9-0.5c-3.6,1.7-4.8,3-7.8,9c-3.3,6.6-3.5,7.5-3.6,17.5
		c0,5.8,0.5,12.6,1.2,15.1c3.7,13.9,13.9,32.5,20.1,36.6c1.9,1.4,5.7,4.2,8.3,6.3c5.5,4.3,18.8,10,29.2,12.5
		c10.2,2.5,10.3,2.5,10.8,4.4c0.4,1.5,0.5,1.5,0.6,0.1c0.1-1.1,1.4-1.9,3.5-2.3c4.6-0.9,14.6-7.7,19.6-13.3c5.6-6.4,7.7-13.9,9-32.6
		c1.2-17.4,2.1-21.6,5.5-25.4c2.3-2.8,2.5-2.8,13.7-2.7c6.2,0,13.3,0.6,15.7,1.3c2.3,0.7,4.6,1,4.9,0.7c0.9-1-4.7-20.5-7.8-27.2
		c-1.7-3.5-4.3-7.2-5.7-8.1C639.5,172.4,630.1,172,627,174.2L627,174.2z"/>
	
		<linearGradient id="SVGID_00000085952375091948696060000005817859311502991289_" gradientUnits="userSpaceOnUse" x1="-1057.7921" y1="-20.1082" x2="-1056.7922" y2="-20.1082" gradientTransform="matrix(27.98 0 0 -43.06 30139.75 -638.7299)">
		<stop  offset="0" style="stop-color:#A13B4F"/>
		<stop  offset="1" style="stop-color:#A13B4F"/>
	</linearGradient>
	<path style="fill:url(#SVGID_00000085952375091948696060000005817859311502991289_);" d="M544,206.2c0,0.4,0.8,1.3,1.8,2
		c1.4,1,1.8,3.5,2.3,15.8c0.6,16.6,1.3,18.3,8.9,22.3c5.2,2.8,13.4,3.2,14.4,0.7c1.8-4.8-0.8-19.5-5.1-27.7
		c-2.3-4.5-8.5-10.9-12-12.4C551,205.6,544,205.1,544,206.2L544,206.2z"/>
	
		<linearGradient id="SVGID_00000080898590061632093900000017200579106079325597_" gradientUnits="userSpaceOnUse" x1="-1074.8494" y1="-28.0813" x2="-1073.8494" y2="-28.0813" gradientTransform="matrix(49.53 0 0 -31.47 53772.2305 -606.3596)">
		<stop  offset="0" style="stop-color:#781B37"/>
		<stop  offset="1" style="stop-color:#781B37"/>
	</linearGradient>
	<path style="fill:url(#SVGID_00000080898590061632093900000017200579106079325597_);" d="M534.9,263.5c2.5,4.6,13.3,18.1,18.3,22.8
		c6.7,6.3,11.7,8,17.6,6c4.2-1.5,13.1-6.8,13.2-7.8c0-0.4-4.2-1.7-9.2-2.9c-15.4-3.7-33.6-12.5-37.6-18.1
		C535.5,261,533.6,261,534.9,263.5z"/>
	
		<linearGradient id="SVGID_00000116938586718480757220000003563402864472703388_" gradientUnits="userSpaceOnUse" x1="-1083.4265" y1="-9.3041" x2="-1082.4264" y2="-9.3041" gradientTransform="matrix(80.8 0 0 -84.18 88032.8359 -410.0329)">
		<stop  offset="0" style="stop-color:#CD5A4F"/>
		<stop  offset="1" style="stop-color:#CD5A4F"/>
	</linearGradient>
	<path style="fill:url(#SVGID_00000116938586718480757220000003563402864472703388_);" d="M569.7,335.4
		c-2.1,10.6-11.3,23.9-19.4,28.1l-3.8,1.9l-6.3-2.9c-8.7-3.9-21.5-11.8-28.9-17.8c-3.4-2.8-6.4-4.7-6.7-4.3
		c-2.7,4.4-15.9,73.2-14.4,74.8c0.4,0.3,1.9-0.3,3.5-1.3c3.7-2.6,20.1-11.7,34.3-19c6.3-3.3,14.7-7.7,18.5-9.8
		c3.9-2.1,8.4-4.5,10.1-5.3c7.2-3.4,15.2-27.6,14.2-43.2l-0.3-5.5L569.7,335.4L569.7,335.4z"/>
	
		<linearGradient id="SVGID_00000029730228101418333310000005893034568838324106_" gradientUnits="userSpaceOnUse" x1="-1092.7568" y1="-3.3756" x2="-1091.7568" y2="-3.3756" gradientTransform="matrix(258.8 0 0 -179.46 283167.4062 -480.9106)">
		<stop  offset="0" style="stop-color:#D86B52"/>
		<stop  offset="1" style="stop-color:#D86B52"/>
	</linearGradient>
	<path style="fill:url(#SVGID_00000029730228101418333310000005893034568838324106_);" d="M455.5,35.7c-3.4,1-6.5,5.3-9.6,13.2
		c-1.1,2.8-2.9,6.1-3.9,7.2s-2.1,3.1-2.5,4.5c-0.4,1.3-1.4,3-2.1,3.8c-0.8,0.7-1.4,1.9-1.4,2.6c0,1.8-24.3,5-37.5,5
		c-10.9,0-18.1-1.5-29.8-6c-2-0.8-4.3-1.4-5-1.3c-2.1,0.1,7.4,3.9,15.3,6.2c9.8,2.7,26.7,2.8,44.3,0.2c11.6-1.6,13-2.1,14-4.2
		c0.5-1.2,1.4-2.3,1.8-2.3s1-1.3,1.4-2.9c0.3-1.6,1.5-3.7,2.7-4.7c1.3-1.3,1.8-0.9,1.5,1.1c-0.4,1.6-1.8,9.7-3.2,18
		c-3.3,19.2-6.5,34.7-7.5,36c-0.4,0.5-1.1,2.6-1.5,4.5s-3.6,14.1-7.2,27c-9.4,34.3-13.2,54-10.4,54c0.6,0,2.7,1.8,4.7,4
		c4.4,4.8,11.3,8.3,21.8,11c18.3,4.7,42.5,1,66.4-10c6.7-3.1,7-3.4,10.3-10.2c4.7-9.8,7.7-11.3,21.9-11.2c7.6,0,12.9,0.7,19,2.3
		c11,2.9,35.2,7.1,41,7.1s11.2-2.6,17.3-8l4.9-4.3l-5.6-2.4c-15-6.3-52.5-32.2-54.1-37.3c-0.4-1.1,0.1-3,0.9-4.2
		c1.1-1.5,1.6-4.4,1.6-8.8c-0.1-5.9-0.2-6.3-1.5-4.6c-0.8,1.1-1.5,4.1-1.5,6.7c0,6.5-2.3,8.3-3.8,3c-1.8-5.8-1.5-7.6,1.9-11.2l3-3.2
		l-1.9-2.6c-1-1.4-2.8-3-3.9-3.5c-2.6-1.2-3.1-4.5-3.8-26.6c-0.7-21.4-2.3-39.9-3.8-43c-2.3-4.7-5.6-4.8-17.6-0.7
		c-14,4.8-18,4.7-42.9-0.2C466.6,35.2,459.7,34.4,455.5,35.7L455.5,35.7z M549.9,142.7c2,0.6,6.1,1.9,9.1,2.9s6.7,2.1,8.2,2.4
		c4,0.9,16.9,9.9,22.1,15.5c6.2,6.6,6.4,9.9,0.6,14c-10.3,7.5-28.6,6.5-48.3-2.7c-11.3-5.4-24.8-14.4-28.7-19.3l-3.2-4.1l2.4-1.9
		c6.6-5.3,14.5-7.6,26.3-7.8C542.8,141.6,548,142.1,549.9,142.7L549.9,142.7z"/>
	
		<linearGradient id="SVGID_00000161600002840475367910000017294117334225188027_" gradientUnits="userSpaceOnUse" x1="-1046.0448" y1="-29.7517" x2="-1045.045" y2="-29.7517" gradientTransform="matrix(21.53 0 0 -29.87 23043.2793 -835.149)">
		<stop  offset="0" style="stop-color:#F29F77"/>
		<stop  offset="1" style="stop-color:#F29F77"/>
	</linearGradient>
	<path style="fill:url(#SVGID_00000161600002840475367910000017294117334225188027_);" d="M535,40.2c-1.9,0.8-4.9,2.6-6.7,4
		c-3.9,2.9-4.2,5.7-1.8,16.8c1.7,7.9,2,8.5,4,6.5c1.1-1.1,10.2-16.9,15.4-26.7c1.1-2.1,1-2.2-3.1-2.2
		C540.4,38.7,536.9,39.4,535,40.2L535,40.2z"/>
	
		<linearGradient id="SVGID_00000078039082986391122660000014056615668774884739_" gradientUnits="userSpaceOnUse" x1="-1090.129" y1="-8.078" x2="-1089.9791" y2="-7.2881" gradientTransform="matrix(169.71 0 0 -98.91 185489.4531 -509.8553)">
		<stop  offset="0" style="stop-color:#9B333A"/>
		<stop  offset="1" style="stop-color:#D95C45"/>
	</linearGradient>
	<path style="fill:url(#SVGID_00000078039082986391122660000014056615668774884739_);" d="M414.2,202.8c0.2,2.9,1.1,6.6,1.9,8.3
		c1.6,3.3,11,10.1,17.9,12.9c2.5,1,6.4,2.7,8.8,3.7c2.4,1.1,7.1,2.3,10.5,2.8c11,1.6,40.3,10.4,48.7,14.7c5.3,2.6,12,9.5,25.2,25.4
		c23.6,28.6,32,31.7,52.1,18.8c2.6-1.7,4.5-3.3,4.3-3.6c-0.3-0.3-2.3,0.7-4.5,2.2c-10.6,7.4-17,6.8-26.7-2.6
		c-6.5-6.2-18.9-22.7-17.8-23.7c0.3-0.3,1.3,0.3,2.2,1.4c2.6,3.2,10.6,8.4,18.7,12.1c7.1,3.3,27.2,9,28.2,8.1
		c0.5-0.6-0.7-1-10.2-3.3c-10.4-2.5-23.7-8.2-29.2-12.5c-2.6-2.1-6.4-4.9-8.3-6.3c-4-2.7-12.5-15.8-16.3-25.2
		c-3.9-9.6-5.1-16.2-5-26.7c0-5.3,0-9.7-0.2-9.7c-0.1,0-3.5,1.5-7.6,3.4c-23.5,10.7-47.3,14.2-65.5,9.6c-10.5-2.7-17.4-6.2-21.8-11
		C414.7,196.2,413.7,196.4,414.2,202.8z"/>
	
		<linearGradient id="SVGID_00000160148745538939010770000006028989349549207959_" gradientUnits="userSpaceOnUse" x1="-1084.3705" y1="-14.0683" x2="-1084.5204" y2="-12.9883" gradientTransform="matrix(90.42 0 0 -61.38 98295.1797 -258.9276)">
		<stop  offset="0" style="stop-color:#782556"/>
		<stop  offset="1" style="stop-color:#8F3669"/>
	</linearGradient>
	<path style="fill:url(#SVGID_00000160148745538939010770000006028989349549207959_);" d="M235.5,539c-8.2,1.6-20.6,6.2-29,10.9
		c-7.5,4.3-7.7,5-6.9,28.9l0.6,17.6l12.2,0.6c6.6,0.3,19.6,0.7,28.9,0.9c14.6,0.2,16.7,0.1,16.7-1.3c0-0.9-1.1-11.9-2.5-24.4
		c-1.4-12.6-2.3-23.1-2.1-23.4c0.7-0.6,10.7,15.1,14.5,22.6c1.8,3.5,4.7,10.9,6.6,16.5l3.4,10.2l5.6,0.9c3.1,0.4,5.8,0.6,6.1,0.4
		c1.4-1.4-11.3-30.6-18.3-42.1c-4.3-7.2-11.6-15.3-15.4-17.3C251.8,537.9,243.3,537.5,235.5,539L235.5,539z"/>
	
		<linearGradient id="SVGID_00000160173111628488362190000006420778262586124677_" gradientUnits="userSpaceOnUse" x1="-1084.3872" y1="-14.2709" x2="-1083.3872" y2="-14.2709" gradientTransform="matrix(87 0 0 -58.33 94689 -732.1581)">
		<stop  offset="0" style="stop-color:#A25365"/>
		<stop  offset="1" style="stop-color:#A25365"/>
	</linearGradient>
	<path style="fill:url(#SVGID_00000160173111628488362190000006420778262586124677_);" d="M347,74.9c0,5.3,4.4,17.9,9,25.7
		c7.5,12.8,23,25.7,33.7,28.1c5.1,1.2,5.7,1.1,11.5-1.7c6.4-3,8.9-4.9,19.7-15.1c3.6-3.5,7.5-6.3,8.6-6.3c2.1,0,4.5-1.7,4.5-3.1
		c0-1.5-6.4-2.9-10.4-2.2c-2.2,0.3-5.4,1.6-6.9,2.7c-2.4,1.8-4.3,2.1-11.5,2.1c-8.2,0-9.1-0.2-17.2-4.3c-4.7-2.3-10.5-5.4-13-6.9
		c-6.3-3.7-22-15.9-25.2-19.7l-2.7-3.1C347.1,71.1,347,74.9,347,74.9z"/>
	
		<linearGradient id="SVGID_00000116951633041000732040000002381426000318544814_" gradientUnits="userSpaceOnUse" x1="-1079.309" y1="-27.2505" x2="-1078.309" y2="-27.2505" gradientTransform="matrix(62.02 0 0 -32.4 67306.1875 -774.5178)">
		<stop  offset="0" style="stop-color:#7C2A42"/>
		<stop  offset="1" style="stop-color:#7C2A42"/>
	</linearGradient>
	<path style="fill:url(#SVGID_00000116951633041000732040000002381426000318544814_);" d="M372,96.2c9.8,16.2,20.9,28.4,25.9,28.4
		c3.9,0,8.1-1.9,10.4-4.7c1-1.3,2.3-2.3,2.8-2.3c0.6,0,3.6-2.6,6.7-5.9c6.2-6.3,9.6-8.6,11.7-7.7c0.8,0.3,1.7,0.1,2-0.4
		c0.9-1.5-3.6-2.8-7.5-2.2c-1.9,0.3-4.8,1.4-6.3,2.6c-2.5,1.8-4.3,2.1-12.5,2.1c-9.4,0-9.9-0.1-18.2-4.3c-4.7-2.3-10.5-5.4-12.9-6.9
		l-4.5-2.7L372,96.2z"/>
	
		<linearGradient id="SVGID_00000112591524585603135290000013880392847090869691_" gradientUnits="userSpaceOnUse" x1="-1051.6512" y1="-15.6898" x2="-1050.6511" y2="-15.6898" gradientTransform="matrix(24.19 0 0 -53.84 25916.8633 -506.2195)">
		<stop  offset="0" style="stop-color:#E06D55"/>
		<stop  offset="1" style="stop-color:#E06D55"/>
	</linearGradient>
	<path style="fill:url(#SVGID_00000112591524585603135290000013880392847090869691_);" d="M477.3,315.3c-0.9,2.1-1.9,7-2.1,10.8
		c-0.3,6.1,0,8.2,2.7,15c1.8,4.8,3.1,9.8,3.1,12.6c0,10,4.2,14.3,9.8,10.2c4.6-3.3,7.2-10,7.9-20.1l0.6-9l-5.9-6.8
		c-3.3-3.8-7.5-9-9.3-11.7c-1.9-2.6-3.8-4.7-4.3-4.7S478.2,313.3,477.3,315.3L477.3,315.3z"/>
	
		<linearGradient id="SVGID_00000160905231209471611660000016777953416143072152_" gradientUnits="userSpaceOnUse" x1="-1077.7168" y1="-4.0355" x2="-1076.7168" y2="-4.0355" gradientTransform="matrix(56.9 0 0 -158.77 61791.4062 -163.6633)">
		<stop  offset="0" style="stop-color:#8E2A4E"/>
		<stop  offset="1" style="stop-color:#8E2A4E"/>
	</linearGradient>
	<path style="fill:url(#SVGID_00000160905231209471611660000016777953416143072152_);" d="M513.5,404c-6,3.4-14,7.8-17.6,9.8
		l-6.6,3.7l-5-3.4l-5-3.3l-5.1,8.6l-5.1,8.7l2,21.1c1.8,19.4,1.9,21.8,0.5,31l-1.5,9.9l3.5,5.1l3.6,5.1l-1.1,27.9
		c-0.5,15.3-0.9,28-0.7,28.2s2.1-0.5,4.3-1.6c2.1-1.1,6.5-2.8,9.8-3.8s6.1-1.9,6.3-2s-0.8-3.5-2.3-7.6c-5.2-14.4-4.1-25.9,4-43.6
		c1.9-4.1,3.5-8.3,3.5-9.2c0-1-0.9-4.8-2.1-8.6c-2-6.6-2-6.9-0.4-13.8c2-8.5,12.1-34.4,21-53.8c3.6-7.8,6.5-14.3,6.5-14.5
		C526,397.1,523.8,398.2,513.5,404L513.5,404z"/>
	
		<linearGradient id="SVGID_00000057867196971288878800000005254945656612345266_" gradientUnits="userSpaceOnUse" x1="-1090.7504" y1="-13.3758" x2="-1090.7605" y2="-14.3748" gradientTransform="matrix(191 0 0 -59.92 208783 -258.6426)">
		<stop  offset="0" style="stop-color:#741F54"/>
		<stop  offset="1" style="stop-color:#7C285B"/>
	</linearGradient>
	<path style="fill:url(#SVGID_00000057867196971288878800000005254945656612345266_);" d="M379.4,546.6c-7.8,2-18.8,6.7-23.4,10
		l-3,2.1v36.6l22.2,0.6c12.1,0.4,22.3,0.9,22.6,1.2c0.3,0.2-0.3,1.6-1.2,2.9c-0.9,1.4-1.6,3-1.6,3.6s5.8,1,16.5,1H428v-2.8
		c0-5.2,3-14.3,8.7-26.4c4.1-8.7,5.9-11.5,6.3-10.1c0.4,1,1.5,10.2,2.5,20.5l1.8,18.8h19.4c18.8,0,19.3-0.1,18.3-1.9
		c-0.5-1.1-1-2.2-1-2.5s7.2-0.6,16-0.6c14.9,0,16-0.1,16-1.8c0-1.1-1.1-10.4-2.5-20.8c-2.9-22.1-2.7-19.4-1.7-19.4
		c1.3,0,11.1,15.4,14.6,23.2c1.9,4,4.2,9.9,5.2,13l1.8,5.8H544l-1.6-4.2c-0.9-2.4-4.4-10.1-7.9-17.3c-6.7-13.5-13.6-23.3-19.4-27.2
		c-8.1-5.5-29.8-1-46.8,9.7c-2,1.3-2.5,1.2-4.5-0.6c-3.3-3-10.7-6.3-17.1-7.6c-10.5-2.2-23.1,1.6-27.3,8.4l-2.5,3.9l-3.8-5.8
		c-4-6.2-9.8-11.9-13.8-13.4C395.5,544.1,387.2,544.5,379.4,546.6L379.4,546.6z"/>
	
		<linearGradient id="SVGID_00000060007289036636695890000003750589663520403342_" gradientUnits="userSpaceOnUse" x1="-1007.5945" y1="-25.8794" x2="-1006.5945" y2="-25.8794" gradientTransform="matrix(12.27 0 0 -34 12762.1191 -308.3008)">
		<stop  offset="0" style="stop-color:#53234B"/>
		<stop  offset="1" style="stop-color:#53234B"/>
	</linearGradient>
	<path style="fill:url(#SVGID_00000060007289036636695890000003750589663520403342_);" d="M399.3,559.3c0.4,2.7,1.2,10.3,1.8,17
		c0.7,6.8,1.5,12.3,1.8,12.3c0.9,0,8.6-14.4,8.5-15.8c-0.3-1.9-10.7-18.2-11.8-18.2C399.1,554.6,399,556.7,399.3,559.3z"/>
	
		<linearGradient id="SVGID_00000031924336099737579750000008219250281627363971_" gradientUnits="userSpaceOnUse" x1="-1039.2648" y1="-21.2688" x2="-1038.2648" y2="-21.2688" gradientTransform="matrix(19 0 0 -40.61 20174 -279.429)">
		<stop  offset="0" style="stop-color:#5B2954"/>
		<stop  offset="1" style="stop-color:#5B2954"/>
	</linearGradient>
	<path style="fill:url(#SVGID_00000031924336099737579750000008219250281627363971_);" d="M436.7,575.5c-5.7,12-8.7,21.1-8.7,26.3
		v2.8h19v-2.8c-0.1-4.4-3.7-37.3-4.2-37.8C442.5,563.8,439.8,569,436.7,575.5L436.7,575.5z"/>
	
		<linearGradient id="SVGID_00000044869640322659870670000003326581259693125794_" gradientUnits="userSpaceOnUse" x1="-1039.288" y1="-25.6367" x2="-1038.2881" y2="-25.6367" gradientTransform="matrix(19.01 0 0 -34.3 20307.8105 -789.5897)">
		<stop  offset="0" style="stop-color:#902F47"/>
		<stop  offset="1" style="stop-color:#902F47"/>
	</linearGradient>
	<path style="fill:url(#SVGID_00000044869640322659870670000003326581259693125794_);" d="M553.5,85.3l0.6,12.8l4.7,4.4l4.7,4.4
		l0.6-9.6c0.5-8.2,1-10.5,4-16.4c1.9-3.7,3.6-7.1,3.7-7.6c0.2-0.4-4-0.7-9.3-0.7h-9.7C552.8,72.6,553.5,85.3,553.5,85.3z"/>
	
		<linearGradient id="SVGID_00000037662540318016138070000004939377620751573666_" gradientUnits="userSpaceOnUse" x1="-1035.2318" y1="-41.9058" x2="-1034.2319" y2="-41.9058" gradientTransform="matrix(17.76 0 0 -21.49 18852.4492 -769.7)">
		<stop  offset="0" style="stop-color:#FFFFFF"/>
		<stop  offset="1" style="stop-color:#FFFFFF"/>
	</linearGradient>
	<path style="fill:url(#SVGID_00000037662540318016138070000004939377620751573666_);" d="M467.6,123.2c-1.1,5.8,0.4,12.5,3.5,15.6
		c2.3,2.4,3.6,2.8,8.3,2.8c3.1,0,5.6-0.2,5.6-0.5c0-1.2-5-10.4-6-11c-0.6-0.3-1,0.4-1,1.8c0,2.9-3.1,6-5.3,5.2
		c-2.5-1-4-6.1-3.4-11.5C470,119.9,468.5,117.9,467.6,123.2z"/>
	
		<linearGradient id="SVGID_00000057852628439423502450000004648261185888262062_" gradientUnits="userSpaceOnUse" x1="-1040.165" y1="-13.3617" x2="-1039.1649" y2="-13.3617" gradientTransform="matrix(19.3 0 0 -61.77 20360.4082 -350.7681)">
		<stop  offset="0" style="stop-color:#E67A7A"/>
		<stop  offset="1" style="stop-color:#E67A7A"/>
	</linearGradient>
	<path style="fill:url(#SVGID_00000057852628439423502450000004648261185888262062_);" d="M288.4,444.8l-4.1,1l-0.6,21.3
		c-0.8,29.1,0.6,36.5,7.4,38c4.8,1.1,8.8-0.3,10.5-3.8c2.3-4.3,1.4-12-3.6-31.4c-2.2-8.7-4.1-18.1-4.3-21c-0.1-2.9-0.4-5.2-0.7-5.2
		C292.7,443.8,290.7,444.3,288.4,444.8L288.4,444.8z"/>
	
		<linearGradient id="SVGID_00000103250920927296146600000016166789759782327450_" gradientUnits="userSpaceOnUse" x1="-1055.4519" y1="-5.3388" x2="-1054.4519" y2="-5.3388" gradientTransform="matrix(26.4 0 0 -130.73 28314.5996 -202.157)">
		<stop  offset="0" style="stop-color:#FEFEFE"/>
		<stop  offset="1" style="stop-color:#FEFEFE"/>
	</linearGradient>
	<path style="fill:url(#SVGID_00000103250920927296146600000016166789759782327450_);" d="M462.8,438.8
		c-12.4,22.7-12.5,22.8-7.7,34.6c6.5,16.1,6.4,13.8,0.7,25.4l-5,10.3l0.5,11c0.9,17,6.2,33.8,12.3,39.6c1.6,1.5,3.6,1.6,6,0.3
		c1.9-1,4-2.4,4.5-3.1c0.6-0.6,1.5-13.6,2-28.8l1.1-27.8l-3.6-5.1l-3.5-5.1l1.5-9.5c1.3-8.5,1.3-11.5-0.2-28
		C469.1,425.8,469.6,426.6,462.8,438.8L462.8,438.8z"/>
	
		<linearGradient id="SVGID_00000061457127387917784420000003973169895055724934_" gradientUnits="userSpaceOnUse" x1="-977.9086" y1="-64.593" x2="-976.9083" y2="-64.593" gradientTransform="matrix(9.21 0 0 -14.2 9646.2695 -716.5204)">
		<stop  offset="0" style="stop-color:#AF4255"/>
		<stop  offset="1" style="stop-color:#AF4255"/>
	</linearGradient>
	<path style="fill:url(#SVGID_00000061457127387917784420000003973169895055724934_);" d="M643.4,196.9c-1.4,1.9-3.2,4.8-4,6.5
		c-1.2,2.9-1.1,3.2,0.5,3.2c1,0,3.2,0.3,4.9,0.6l3,0.6l-0.1-7.1c-0.1-3.9-0.5-7.1-0.9-7.1S644.9,195.1,643.4,196.9z"/>
	
		<linearGradient id="SVGID_00000027594347466619820620000004372440526532658355_" gradientUnits="userSpaceOnUse" x1="-1058.764" y1="-25.4068" x2="-1057.7639" y2="-25.4068" gradientTransform="matrix(28.69 0 0 -34.66 30722.4434 -807.7004)">
		<stop  offset="0" style="stop-color:#F08E5F"/>
		<stop  offset="1" style="stop-color:#F08E5F"/>
	</linearGradient>
	<path style="fill:url(#SVGID_00000027594347466619820620000004372440526532658355_);" d="M344.7,56.3c-1.1,1.1-0.8,6.2,0.6,9.6
		c0.8,1.8,3.4,5.2,5.8,7.7c5,5.1,20.9,17.3,21.6,16.6c0.3-0.2-2-3.5-5-7.3c-3-3.7-7.4-10-9.7-13.8c-2.3-3.9-5.3-8.5-6.7-10.3
		C349.1,55.8,346.2,54.7,344.7,56.3L344.7,56.3z"/>
	
		<linearGradient id="SVGID_00000018927073449453689130000006195650418695231883_" gradientUnits="userSpaceOnUse" x1="-1038.2646" y1="-9.156" x2="-1037.2648" y2="-9.156" gradientTransform="matrix(18.68 0 0 -85.5 19780.2383 -412.9922)">
		<stop  offset="0" style="stop-color:#CE554A"/>
		<stop  offset="1" style="stop-color:#CE554A"/>
	</linearGradient>
	<path style="fill:url(#SVGID_00000018927073449453689130000006195650418695231883_);" d="M389.5,329.6c0.3,1.4,1.9,7.4,3.5,13.5
		c4.3,16.3,5.3,24.8,4.7,38.7c-0.5,14.1-2.1,19.6-7.3,25.6c-3.9,4.6-4.1,5.2-1.6,5.2c2.2,0,11.5-3.1,12.2-4c0.3-0.4,1.6-1.3,2.8-1.9
		c2.1-1.1,2.3-1.8,1.8-5.4c-0.4-2.3-1-11.2-1.4-19.7c-0.8-15.4-0.8-15.6-6.6-32.5c-3.2-9.4-6.5-18.1-7.3-19.5l-1.4-2.5L389.5,329.6
		L389.5,329.6z"/>
	
		<linearGradient id="SVGID_00000034779195203851022710000002770254561922056377_" gradientUnits="userSpaceOnUse" x1="-1084.4749" y1="-4.7284" x2="-1083.4749" y2="-4.7284" gradientTransform="matrix(87.6 0 0 -143.2 95305.6797 -192.5151)">
		<stop  offset="0" style="stop-color:#8E2A4E"/>
		<stop  offset="1" style="stop-color:#8E2A4E"/>
	</linearGradient>
	<path style="fill:url(#SVGID_00000034779195203851022710000002770254561922056377_);" d="M341.5,417.4c-5.5,5-18.2,13.6-26.1,17.5
		l-5.1,2.6l-0.6,9.3c-0.3,5.1-1.3,14-2.2,19.8s-1.3,11.5-1,12.6c0.3,1.3,5.5,6,12.2,11c14.3,10.8,25.2,20.9,29.2,27.2
		c4,6.4,5.9,13.6,7.3,27.3l1.1,11.5l5.1-2.7c6.9-3.7,18.9-7.6,26.4-8.6l6.2-0.8l-6.7-8.5c-3.6-4.7-8.9-12.1-11.8-16.5
		c-3.8-5.7-8.7-11-16.9-18.5c-17-15.3-24.1-24-25.2-30.7c-1-6.7,3.6-27.4,11.1-49.2c1.4-4.1,2.4-7.5,2.2-7.7
		C346.6,412.9,344.3,414.9,341.5,417.4L341.5,417.4z"/>
	
		<linearGradient id="SVGID_00000010292617215285196710000012625510581113602209_" gradientUnits="userSpaceOnUse" x1="-1088.3809" y1="-16.0676" x2="-1087.3809" y2="-16.0676" gradientTransform="matrix(127.23 0 0 -52.81 138714.7812 -700.3393)">
		<stop  offset="0" style="stop-color:#D76452"/>
		<stop  offset="1" style="stop-color:#D76452"/>
	</linearGradient>
	<path style="fill:url(#SVGID_00000010292617215285196710000012625510581113602209_);" d="M272.5,125.2c-6,1.9-15.8,4.6-21.7,6.1
		c-12.4,3-12.9,3.6-8,11.4c12.6,19.8,48.4,31.9,94.9,31.9c11.7,0,15.3-0.8,25.4-5.5c4.9-2.3,5.1-2.5,1.9-2
		c-17.8,2.6-26.7,1.5-39.2-4.7c-7.9-4-19.1-13.7-26.1-22.8c-1.5-1.9-2.2-2.5-1.5-1.3c3.7,6.7-13.1,10.9-25.5,6.4
		c-2.8-1.1-9.4-3.7-14.5-5.9l-9.4-3.9l6.9-1.6c8.5-1.9,30.5-10.1,29.6-11S284.9,121.3,272.5,125.2z"/>
	
		<linearGradient id="SVGID_00000034060549683152567320000002661769423018012043_" gradientUnits="userSpaceOnUse" x1="-1083.3676" y1="-6.6357" x2="-1082.4475" y2="-5.9258" gradientTransform="matrix(80.71 0 0 -117.95 87644.1328 -342.1401)">
		<stop  offset="0" style="stop-color:#C64748"/>
		<stop  offset="1" style="stop-color:#D3614C"/>
	</linearGradient>
	<path style="fill:url(#SVGID_00000034060549683152567320000002661769423018012043_);" d="M225.1,336.8c-8.4,13.2-8.5,13.3-8.2,19.4
		c0.2,6.3-1.8,16.4-11.9,57.9c-2.8,11.5-4.9,21.6-4.7,22.5c0.2,0.8,0.9-0.5,1.6-3c3.1-11.8,6-21.8,7-24.4l1.1-2.8l9.3,8.9
		c13.7,13.2,26.7,21.4,39.9,24.9c5.5,1.4,21.8,1.9,21.8,0.6c0-0.4-2.1-1.8-4.7-3.2c-2.7-1.3-8.7-6.3-13.4-11
		c-7.1-7.1-9.3-10.1-13.2-18c-6.8-13.7-7.9-18.9-7.8-35.4c0.1-14.3-2.1-28.8-6.7-43.9l-1.7-5.7L225.1,336.8L225.1,336.8z"/>
	
		<linearGradient id="SVGID_00000129925421676225356170000010233870752450342537_" gradientUnits="userSpaceOnUse" x1="-1038.7715" y1="-36.2632" x2="-1037.7715" y2="-36.2632" gradientTransform="matrix(18.84 0 0 -24.71 20041.8105 -770.1104)">
		<stop  offset="0" style="stop-color:#D05F4F"/>
		<stop  offset="1" style="stop-color:#D05F4F"/>
	</linearGradient>
	<path style="fill:url(#SVGID_00000129925421676225356170000010233870752450342537_);" d="M471,114.1c0,0.3,1.7,2.4,3.8,4.5
		c2.1,2.2,5.7,7.6,8.1,12.1c2.4,4.4,4.8,7.8,5.4,7.6c0.7-0.2,1.3-2.5,1.5-5c0.2-3.6-0.3-5.9-2.4-9.8c-4.5-8.1-6.6-9.9-11.9-9.9
		C473,113.6,471,113.8,471,114.1z"/>
	
		<linearGradient id="SVGID_00000098212952072869690960000000342194078642864274_" gradientUnits="userSpaceOnUse" x1="-1087.3542" y1="-4.4663" x2="-1088.3044" y2="-3.5664" gradientTransform="matrix(127.47 0 0 -159.1 139069.3906 -158.9698)">
		<stop  offset="0" style="stop-color:#AA3B42"/>
		<stop  offset="1" style="stop-color:#F5855D"/>
	</linearGradient>
	<path style="fill:url(#SVGID_00000098212952072869690960000000342194078642864274_);" d="M350.3,408.8
		c-6.2,6.6-18.5,51.1-16.9,61.1c1.1,6.7,8.2,15.4,25.2,30.7c7.8,7,13.1,12.8,16.2,17.5c2.5,3.8,7.8,11.3,11.9,16.7
		c6.1,7.8,8.1,9.7,10.7,10.2c4.4,0.8,11.1,6.8,15.7,13.9l3.8,5.8l2.5-3.9c5.8-9.3,24.1-11.8,37.2-5.2c2.1,1.1,3.9,1.8,4.1,1.6
		s-0.8-2.6-2.2-5.4c-3.9-7.7-6.5-19.4-7.2-31.7l-0.5-11l5-10.3c5.7-11.6,5.8-9.3-0.7-25.4c-1.7-4.2-3.1-8.8-3.1-10.3
		c0-2-2.6-5.1-11.9-14.1c-14.2-13.7-20.9-21.8-28.1-33.9c-2.9-5-5.4-9.1-5.6-9.3c-0.3-0.5-4.7,1.9-5.4,2.8c-0.3,0.4-4.3,1.9-8.8,3.5
		c-10.1,3.3-12.5,3.1-26.4-2.5c-5.4-2.2-10.4-4-11.1-4S352,407.1,350.3,408.8L350.3,408.8z"/>
	
		<linearGradient id="SVGID_00000003803094172259945030000014000631980240086656_" gradientUnits="userSpaceOnUse" x1="-904.8423" y1="-140.2941" x2="-903.8427" y2="-140.2941" gradientTransform="matrix(5.71 0 0 -6.66 5648.8403 -790.3102)">
		<stop  offset="0" style="stop-color:#F5A563"/>
		<stop  offset="1" style="stop-color:#F5A563"/>
	</linearGradient>
	<path style="fill:url(#SVGID_00000003803094172259945030000014000631980240086656_);" d="M485.8,143.1c-0.6,1.4-1.6,2.5-2.2,2.5
		s-0.3,0.5,0.7,1.1c2.8,1.6,4.7,0.3,4.7-3.1C489,140,487.4,139.7,485.8,143.1z"/>
	
		<linearGradient id="SVGID_00000132077909424362334040000011816044788015362202_" gradientUnits="userSpaceOnUse" x1="-1093.145" y1="-1.4875" x2="-1092.405" y2="-0.7676" gradientTransform="matrix(286.47 0 0 -299.02 313282.8438 16.4176)">
		<stop  offset="0" style="stop-color:#CF534C"/>
		<stop  offset="1" style="stop-color:#FDA463"/>
	</linearGradient>
	<path style="fill:url(#SVGID_00000132077909424362334040000011816044788015362202_);" d="M124,262.7c0,7.4-0.7,20.6-1.5,29.4
		c-2.4,26.4-2.7,24.6,5.9,36.6c5.9,8.3,8.6,11.2,13.7,14.6c7.7,5,19.8,17,25.1,24.8c3.4,5.2,6.8,13.7,6.8,17.4
		c0,0.8-1.1,4.8-2.5,8.8c-2.2,6.4-2.6,9.5-3,23.6c-0.2,8.9-0.9,20.7-1.4,26.2c-0.6,5.5-1.4,14.2-1.7,19.3l-0.7,9.2l16.1,15.5
		c16.2,15.7,24.5,25.6,28.2,33.6c2.4,5.4,2.7,16.7,0.5,22.9c-1.1,3.1-1.2,4.1-0.2,3.6c11.3-5.1,20.7-8.2,28.9-9.5l9.6-1.5l-6.2-7
		c-17.2-19.4-34.4-42.9-40.1-54.7c-3.8-8-4.2-11.7-2.4-22.9c1.5-9.8,9.1-39,10.6-40.9c0.1-0.2,4.4,3.6,9.5,8.5
		c14.1,13.6,26.9,21.4,40.8,25c23.5,6,60.4-7.6,85.4-31.6c4.6-4.4,8.8-8,9.4-8c0.7,0,5.6,1.8,10.9,3.9c5.4,2.1,11.3,4.2,13.1,4.6
		c4.1,0.9,11.2-0.3,9.2-1.5c-1-0.6-0.5-1.8,2.3-5c5.3-6.2,6.9-11.6,7.4-25.8c0.6-13.9-0.4-22.4-4.7-38.7c-1.6-6.1-3.2-12.1-3.5-13.5
		l-0.6-2.5l1.4,2.5c0.8,1.4,4.1,10.1,7.3,19.5l5.8,17l0.7,16c0.8,18.1,0.6,16.8,1.8,16.1c3-1.9,1.5-51.8-1.9-60.8
		c-4.2-11.3-23.4-35.5-35-44.1c-9.4-7.1-10.4-6.9-22.5,5.8c-6.2,6.4-10.9,10.5-12.1,10.5c-3.4,0-6-2.7-14.7-14.8
		c-13.1-18.1-23.8-27.1-32.2-27.2c-3.8,0-11.5,4.4-18.3,10.5c-6.4,5.8-20,22.5-28.9,35.6l-6.5,9.7l3,12.3
		c4.6,18.3,5.2,23.1,5.1,37.9c-0.1,16,1.1,21.3,7.8,35c3.9,7.9,6.1,10.9,13.2,18c4.7,4.7,10.7,9.7,13.4,11c2.6,1.4,4.7,2.8,4.7,3.2
		c0,1.3-16.3,0.8-21.8-0.6c-13.2-3.5-26.2-11.7-39.9-24.9l-9.3-8.9l-1.1,2.8c-1,2.6-3.9,12.6-7,24.4c-0.7,2.5-1.4,3.8-1.6,3
		c-0.2-0.9,1.9-11,4.7-22.5c11.8-48.6,13.8-60.2,11-62c-0.5-0.3-1-0.2-1,0.4c0,1.7-6.7,3.3-10.7,2.5c-5.5-1-16.8-5.1-24.5-9
		c-10-5-11.2-7.1-25.8-41.8c-12.9-30.9-21.5-47.2-27.9-53l-2.1-1.9L124,262.7L124,262.7z"/>
	
		<linearGradient id="SVGID_00000069392970629489396190000001179305754574898323_" gradientUnits="userSpaceOnUse" x1="-1061.473" y1="-14.5168" x2="-1060.4731" y2="-14.5168" gradientTransform="matrix(30.88 0 0 -57.39 33071.8203 -511.6804)">
		<stop  offset="0" style="stop-color:#D5835E"/>
		<stop  offset="1" style="stop-color:#D5835E"/>
	</linearGradient>
	<path style="fill:url(#SVGID_00000069392970629489396190000001179305754574898323_);" d="M311,298.7c0,8.1-1.2,10.3-5.4,9.5
		c-5.9-1.1-7.8,3.5-9.1,21.9l-0.7,10l4.1,4.6c4.8,5.5,7.9,6.6,12.6,4.3c5.6-2.6,12.7-14.6,14-23.8c1.2-7.7-3.8-19.7-12.8-30.9
		C311.4,291.5,311,292.2,311,298.7z"/>
	
		<linearGradient id="SVGID_00000159451053347589296320000016231548408137593509_" gradientUnits="userSpaceOnUse" x1="-1077.4664" y1="-20.5856" x2="-1076.4663" y2="-20.5856" gradientTransform="matrix(56.16 0 0 -41.87 60970.0859 -802.9514)">
		<stop  offset="0" style="stop-color:#F2A177"/>
		<stop  offset="1" style="stop-color:#F2A177"/>
	</linearGradient>
	<path style="fill:url(#SVGID_00000159451053347589296320000016231548408137593509_);" d="M460.2,38.3c-3.2,0.7-4.6,4.7-3.1,9.2
		c3.7,11.2,32.2,30.5,47.1,31.9l5.8,0.5l1.6-3.8c2-4.9,1.2-11.4-2.6-19.2c-4.6-9.6-10.1-13.4-24.5-16.6
		C476.8,38.6,463.8,37.5,460.2,38.3z"/>
	
		<linearGradient id="SVGID_00000165235279728927683850000010989048680651796909_" gradientUnits="userSpaceOnUse" x1="-1080.4246" y1="-12.7009" x2="-1079.4246" y2="-12.7009" gradientTransform="matrix(66.2 0 0 -64.8 72029.2031 -489.9185)">
		<stop  offset="0" style="stop-color:#B34144"/>
		<stop  offset="1" style="stop-color:#B34144"/>
	</linearGradient>
	<path style="fill:url(#SVGID_00000165235279728927683850000010989048680651796909_);" d="M535,302.2c-15.1,4-20.4,9.7-27.5,29.4
		l-2.7,7.5l4.3,3.8c6.2,5.5,17.1,12.5,27.8,17.9l9.3,4.7l4-2c11.1-5.7,20.8-23.6,20.8-38.5c0-4.3-2.5-21.3-3.2-21.9
		c-0.2-0.2-2.7-0.8-5.6-1.4C554.9,300.2,541.6,300.4,535,302.2L535,302.2z"/>
	
		<linearGradient id="SVGID_00000024714163620953623440000004273658506581285005_" gradientUnits="userSpaceOnUse" x1="-1077.9236" y1="-18.848" x2="-1078.7036" y2="-18.408" gradientTransform="matrix(59.83 0 0 -45.82 65091.8281 -773.139)">
		<stop  offset="0" style="stop-color:#AC363A"/>
		<stop  offset="1" style="stop-color:#B86A76"/>
	</linearGradient>
	<path style="fill:url(#SVGID_00000024714163620953623440000004273658506581285005_);" d="M604.5,65.4c-16.4,4.8-24.7,6.2-38.5,6.4
		c-12.3,0.2-12.6,0.2-3.7,0.5c5.4,0.2,9.7,0.7,9.5,1.1s-1.8,3.8-3.7,7.5c-3,5.9-3.5,8.2-4,16.4l-0.6,9.6l-5.2-4.8
		c-2.9-2.6-5.3-4.2-5.3-3.7c0,2.2,8.7,8.5,13.5,9.8c10.5,2.8,16.6,1,24.9-7.2c8.6-8.5,22.2-31.7,21.4-36.3
		C612.5,63.1,611.8,63.2,604.5,65.4L604.5,65.4z"/>
	
		<linearGradient id="SVGID_00000025415813012461021820000014756779167738154420_" gradientUnits="userSpaceOnUse" x1="-1085.7711" y1="-14.8031" x2="-1084.7811" y2="-14.8733" gradientTransform="matrix(97.63 0 0 -56.2 106351.4141 -751.7111)">
		<stop  offset="0" style="stop-color:#AA3B50"/>
		<stop  offset="1" style="stop-color:#EA7E6D"/>
	</linearGradient>
	<path style="fill:url(#SVGID_00000025415813012461021820000014756779167738154420_);" d="M442.7,57.3c-0.8,1-1.9,3-2.2,4.5
		c-0.4,1.6-1,2.8-1.4,2.8s-1.3,1.1-1.8,2.3c-1,2.1-2.4,2.6-14,4.2c-26.8,4-43.2,2.2-61.3-6.8c-4.7-2.3-8.8-4.3-9.3-4.5
		c-1.4-0.7,9.6,16.4,15,23.1c3,3.8,5.3,7.1,5,7.3c-0.7,0.7-16.6-11.4-21.4-16.4c-4.7-4.8-5.8-4.5-1.5,0.4c3.2,3.8,18.9,16,25.2,19.7
		c2.5,1.5,8.3,4.6,13,6.9c8.1,4.1,9,4.3,17.2,4.3c7.2,0,9.1-0.3,11.5-2.1c3.6-2.6,10.1-3.7,14.2-2.3c3.5,1.2,3.7,1.6,1.8,3.8
		c-1.1,1.3-1.1,2.3-0.1,5.1c0.8,2.4,1.4,3,1.8,2c1.6-4.3,11-55,10.3-55.7C444.5,55.7,443.6,56.4,442.7,57.3L442.7,57.3z"/>
	
		<linearGradient id="SVGID_00000155863877792820480760000008398598332025653905_" gradientUnits="userSpaceOnUse" x1="-1094.3009" y1="-1.3103" x2="-1094.0309" y2="-0.3303" gradientTransform="matrix(469 0 0 -347.1 513499.5 -3.6261)">
		<stop  offset="0" style="stop-color:#DA6953"/>
		<stop  offset="1" style="stop-color:#9F4E56"/>
	</linearGradient>
	<path style="fill:url(#SVGID_00000155863877792820480760000008398598332025653905_);" d="M175.2,119.3c-7.1,10.1-27.1,34.9-34.6,43
		c-6.8,7.4-16.8,15.3-26.7,21.4c-4.8,2.9-6,4.3-8.2,9.1c-2.3,5.3-2.4,5.8-0.7,5.8c0.9,0,3.3-0.7,5.2-1.5l3.5-1.4l3.2,14.2
		c1.7,7.8,3.8,18,4.6,22.7c1.9,10.9,1.9,38.8,0,58c-0.8,8-1.5,20.7-1.5,28.3c0,16.4-1.5,12.6,19.5,47.7
		c17.9,29.9,26.3,46.6,27.2,53.8c1.1,9.5,2.1,6.5,2.1-6c-0.1-10.8,0.2-13.2,2.6-19.9c1.4-4.1,2.6-8.2,2.6-9c0-3.7-3.4-12.2-6.8-17.4
		c-5.3-7.8-17.4-19.8-25.1-24.8c-5.1-3.4-7.8-6.3-13.7-14.6c-8.4-11.8-8.4-11.6-6.3-31.2c0.6-5.7,1.4-19,1.7-29.4l0.7-19l4.7,5.9
		c6.4,8.1,13.9,23,24.8,49c10.1,24.4,13.1,30.6,16.7,35.4c2.7,3.5,11.7,8.5,22.8,12.4c16.7,6,18.8,5.3,27.4-8.4
		c19.7-31.3,37.9-56,48.3-65.3c6.8-6.1,14.5-10.5,18.3-10.5c8.4,0.1,19.1,9.1,32.2,27.2c8.7,12.1,11.3,14.8,14.7,14.8
		c1.2,0,5.9-4.1,12.1-10.5c12.1-12.7,13.1-12.9,22.5-5.8c11.6,8.6,30.7,32.8,35,44.1c2.7,7.2,4.5,39.7,2.9,55.3l-1.1,12l5.7,9.7
		c3.2,5.3,7.4,11.7,9.3,14.2c4.6,5.8,22.6,24.3,27.4,28.1l3.7,3l4.2-8.3c2.3-4.6,6.2-11.9,8.8-16.3c2.5-4.4,4.6-9.1,4.7-10.5
		c0-1.4,1.1-7.2,2.3-13c2.4-11.3,3.2-27.8,1.8-36.5c-0.5-2.8-0.6-4.7-0.2-4.3c0.8,0.8,7.5,35.2,7.5,38.8c0,1.9,1.1,3.2,4.1,5
		c2.2,1.4,4.4,2.4,4.9,2.3c0.4-0.1,8.4-4.4,17.6-9.6c9.3-5.1,18.5-9.9,20.4-10.7s3.7-1.7,4-2.1s2.1-1.4,4-2.3
		c1.9-0.8,7.1-3.6,11.5-6.1s9.2-5.1,10.6-5.7c4.5-2,10.1-14.2,12.4-27.3c1.9-11.1,2.9-33.7,2-47.7l-0.7-11.6l-3.4,1.4
		c-4.9,2-11.8,1.7-16.6-0.7c-5.8-2.9-13.5-10.4-24.6-23.9c-13.2-15.9-19.9-22.8-25.2-25.4c-8.4-4.3-37.7-13.1-48.7-14.7
		c-3.4-0.5-8.1-1.7-10.5-2.8c-2.4-1-6.3-2.7-8.8-3.7c-6.8-2.8-16.3-9.6-18-12.9c-2.2-4.3-1.9-21.7,0.4-33c1.1-5,4.5-18.4,7.7-30
		c3.2-11.5,5.6-21.1,5.4-21.3c-0.5-0.6-7.7,4.4-25.5,17.8c-23.2,17.3-28.3,19.8-45.3,22.1c-8.7,1.2-9.9,1.1-25.2-1.6
		c-2.5-0.4-2.3-0.3,1,1.1c4.4,1.9,20.4,2.5,29,1.1l5-0.7l-5.4,2.5c-10.1,4.7-13.7,5.5-25.4,5.5c-46.5,0-82.3-12.1-94.9-31.9
		c-4.9-7.8-4.4-8.5,7.4-11.2c5.6-1.3,9.7-2.4,9.2-2.6s-5,0.6-9.9,1.8c-5,1.1-10.2,2.3-11.8,2.6c-5.8,1.1-21.6-3.6-33.7-10
		c-19.1-10.1-20.3-10.7-22.2-10.7C180.7,112.6,178.2,115.2,175.2,119.3L175.2,119.3z M466.5,234.7c16.1,4.5,29.4,8.9,34.5,11.5
		c5.2,2.6,12,9.4,24.7,24.9c10.9,13.2,19.4,21.5,25.1,24.4c3.2,1.6,5.9,2.1,12,2.1h7.9l0.7,7c0.9,8.4-0.1,35.8-1.5,45
		c-2.2,14.3-8.1,27.7-13.3,30.2c-1.7,0.8-6.2,3.2-10.1,5.3c-3.8,2.1-12.2,6.5-18.5,9.8c-14.2,7.3-30.6,16.4-34.3,19
		c-1.6,1-3.1,1.6-3.5,1.3c-1-1.1,6.5-44,10.6-60.5l3.9-15.4l-2.6-2.3l-2.6-2.2l-0.7,9c-0.8,10.2-3.5,16.9-8,20.1
		c-5.6,4.1-9.8-0.2-9.8-10.2c0-2.8-1.3-7.8-3.1-12.6c-2.6-6.8-3-8.9-2.7-15c0.2-4.6,1.1-8.5,2.5-11.4l2.2-4.3l-2.4-3.7
		c-8-12.8-16.8-35.3-20.5-52.8c-2.9-13.9-3.9-22.3-2.6-22.3C454.9,231.6,460.4,233,466.5,234.7L466.5,234.7z"/>
	
		<linearGradient id="SVGID_00000179614513563951634350000005043838618204855455_" gradientUnits="userSpaceOnUse" x1="-1064.9589" y1="-30.9316" x2="-1063.959" y2="-30.9316" gradientTransform="matrix(34.24 0 0 -28.73 36913.3828 -762.7007)">
		<stop  offset="0" style="stop-color:#753D58"/>
		<stop  offset="1" style="stop-color:#753D58"/>
	</linearGradient>
	<path style="fill:url(#SVGID_00000179614513563951634350000005043838618204855455_);" d="M455.5,113.3c2.2,1,6.3,2.9,9,4.4l5,2.7
		l-0.3,5.2c-0.4,5.6,1.1,10.5,3.5,11.5c2.2,0.8,5.3-2.3,5.3-5.2c0-3.4,1.6-2,4.6,3.9c1.4,2.7,2.8,4.8,3.1,4.5s-1.3-4-3.6-8.2
		c-8-14.9-13.5-19.4-24.5-20.1l-6.1-0.4C451.5,111.6,455.5,113.3,455.5,113.3z"/>
	
		<linearGradient id="SVGID_00000041292674492861195170000002159597980861072575_" gradientUnits="userSpaceOnUse" x1="-1048.2401" y1="-40.6433" x2="-1047.2401" y2="-40.6433" gradientTransform="matrix(22.5 0 0 -22.11 24142.5 -775.8704)">
		<stop  offset="0" style="stop-color:#743D58"/>
		<stop  offset="1" style="stop-color:#743D58"/>
	</linearGradient>
	<path style="fill:url(#SVGID_00000041292674492861195170000002159597980861072575_);" d="M567.3,114.7c-6.2,3-10.3,7.1-10.3,10.4
		c0,1,0.5,3.5,1.2,5.6c1.5,5.3,3.8,3.5,3.8-3c0-2.6,0.7-5.6,1.5-6.8c1.8-2.6,7.4-6.1,12.4-7.9l3.6-1.3h-3
		C574.9,111.7,570.7,113,567.3,114.7z"/>
	
		<linearGradient id="SVGID_00000143615260752204814060000001138081607297908385_" gradientUnits="userSpaceOnUse" x1="-1083.1882" y1="-21.7569" x2="-1083.8782" y2="-20.5669" gradientTransform="matrix(84.4 0 0 -40.73 92002.5938 -701.2905)">
		<stop  offset="0" style="stop-color:#EA8B70"/>
		<stop  offset="1" style="stop-color:#F8AB7B"/>
	</linearGradient>
	<path style="fill:url(#SVGID_00000143615260752204814060000001138081607297908385_);" d="M525.5,143.1c-5.3,1.3-9.5,3.3-13.4,6.4
		l-2.4,1.9l3.2,4.1c3.9,4.9,17.4,13.9,28.7,19.3c19.7,9.2,38,10.2,48.3,2.7c5.8-4.1,5.6-7.4-0.6-14c-5.2-5.6-18.1-14.6-22.1-15.5
		c-1.5-0.3-5.2-1.4-8.2-2.4s-7.1-2.3-9.1-2.9C545.4,141.3,532,141.5,525.5,143.1z"/>
	
		<linearGradient id="SVGID_00000122719352696114137990000011916088838381457822_" gradientUnits="userSpaceOnUse" x1="-1086.0089" y1="-3.587" x2="-1085.049" y2="-4.4769" gradientTransform="matrix(101.24 0 0 -159.2 110294.5703 -158.7338)">
		<stop  offset="0" style="stop-color:#FFFFFF"/>
		<stop  offset="1" style="stop-color:#FFFFFF"/>
	</linearGradient>
	<path style="fill:url(#SVGID_00000122719352696114137990000011916088838381457822_);" d="M350.3,408.8
		c-6.2,6.6-18.5,51.1-16.9,61.1c1.1,6.7,8.2,15.4,25.2,30.7c7.8,7,13.1,12.8,16.2,17.5c2.5,3.8,7.8,11.3,11.9,16.7
		c6.1,7.8,8.1,9.7,10.7,10.2c4.4,0.8,11.1,6.8,15.7,13.9l3.8,5.9l2.2-3.6c1.2-2,3-4.1,4.1-4.7c4.4-2.4,8.7-16.5,10.9-35.5
		c1.2-11-0.3-18.8-5-26.5l-2.8-4.5l1.5-9.7l1.6-9.7l-3.2-4.2c-7.9-10.7-19.8-28.8-22.4-34.3c-2.4-5.1-2.8-7.3-2.8-14.3
		c0-4.5-0.4-8.2-0.8-8.2c-0.5,0-4.2,1.2-8.3,2.6c-9.2,3.2-12.6,2.8-26-2.6c-5.5-2.2-10.5-4-11.2-4S352,407.1,350.3,408.8
		L350.3,408.8z"/>
	
		<linearGradient id="SVGID_00000168086878673392176290000011161712456381117363_" gradientUnits="userSpaceOnUse" x1="-1077.9354" y1="-6.7985" x2="-1077.2555" y2="-7.4586" gradientTransform="matrix(59.28 0 0 -107.82 63976.4492 -680.7797)">
		<stop  offset="0" style="stop-color:#FF0000;stop-opacity:6.000000e-02"/>
		<stop  offset="1" style="stop-color:#FF0000;stop-opacity:7.000000e-02"/>
	</linearGradient>
	<path style="fill:url(#SVGID_00000168086878673392176290000011161712456381117363_);" d="M96,4.9c-1.9,1.3-6.6,3.6-10.4,5.2
		c-9.8,4.1-19.8,10.9-30,20.6C44.8,40.8,41,45.9,41,49.9c0,2.9,3.7,11.1,8.3,18.4c9.7,15.3,12.5,26.8,9.1,36.9
		c-0.8,2.5-1.3,4.8-1,5.1c0.2,0.3,2.1,0,4.1-0.7c3-1,4.7-2.8,9.2-9.6C78,88.7,84.6,74.5,87.1,64.5c2.6-10.2,2.3-23-0.8-29.9l-2-4.5
		l3.7-7.5c2.1-4.1,5.9-10.3,8.4-13.8c2.5-3.4,4.3-6.2,3.8-6.2C99.8,2.6,97.9,3.6,96,4.9z M83.7,15.8c-5.3,6.6-9.5,13.1-13.9,21.6
		c-3.6,7-3.9,7.3-3.3,3.7c1.4-8.8,3.7-14.7,7.3-18.7c3.1-3.4,11.9-10.7,13-10.8C87,11.6,85.6,13.5,83.7,15.8z"/>
</g>
<linearGradient id="SVGID_00000183220562145319308070000012808366552814090389_" gradientUnits="userSpaceOnUse" x1="-1084.3608" y1="-6.6721" x2="-1083.3608" y2="-6.6721" gradientTransform="matrix(118.11 0 0 -106.63 128925.6953 -458.8214)">
	<stop  offset="0" style="stop-color:#873345"/>
	<stop  offset="1" style="stop-color:#873345"/>
</linearGradient>
<path style="fill:url(#SVGID_00000183220562145319308070000012808366552814090389_);" d="M849.8,205.5c2.5,19.6,9.5,42.6,17.9,58.8
	c7.3,14.4,6.9,14,11.1,9.9c4-4,10.6-6.8,11.8-4.9c0.8,1.3,2.6,13.9,3.6,25.2c0.5,6.3,1.1,8.1,3,9.9c2.9,2.8,3.4,2.3,6.4-6.1
	c5.6-16.1,11.5-23.3,22.4-27c7.8-2.8,21.6-3.7,30.7-2.1c7.7,1.4,6.7-0.3,9.4,15.6l1.3,8l0.1-7.6c0.1-4.2-0.2-10.4-0.5-13.8l-0.7-6.1
	h-7.9c-6.1,0-8.8-0.5-12-2.1c-5.7-2.9-14.2-11.2-25.1-24.4c-18.4-22.4-21.3-24.7-38.7-30.3c-10.7-3.5-31.1-9.2-32.6-9.2
	C849.3,199.3,849.2,201.4,849.8,205.5L849.8,205.5z"/>
<linearGradient id="SVGID_00000101064950554012708100000003846759000801938366_" gradientUnits="userSpaceOnUse" x1="-1020.761" y1="-26.1886" x2="-1019.761" y2="-26.1886" gradientTransform="matrix(19.3 0 0 -33.33 20554.8984 -559.5175)">
	<stop  offset="0" style="stop-color:#BF4546"/>
	<stop  offset="1" style="stop-color:#BF4546"/>
</linearGradient>
<path style="fill:url(#SVGID_00000101064950554012708100000003846759000801938366_);" d="M862.5,298.7c-2.3,1.1-5.2,3.4-6.3,5
	l-2.1,2.9l5.5,7.2c3,4,7.3,9.2,9.6,11.7l4.2,4.5l-0.6-8c-0.6-8-2.1-19-3-23.3C869.2,296,868,296,862.5,298.7L862.5,298.7z"/>
<linearGradient id="SVGID_00000155869227903100393200000004974919910264257192_" gradientUnits="userSpaceOnUse" x1="-1078.5153" y1="-9.4729" x2="-1077.5153" y2="-9.4729" gradientTransform="matrix(80.8 0 0 -84.18 88032.8359 -410.0329)">
	<stop  offset="0" style="stop-color:#CD5A4F"/>
	<stop  offset="1" style="stop-color:#CD5A4F"/>
</linearGradient>
<path style="fill:url(#SVGID_00000155869227903100393200000004974919910264257192_);" d="M966.2,349.6
	c-2.1,10.6-11.3,23.9-19.4,28.1l-3.8,1.9l-6.3-2.9c-8.7-3.9-21.5-11.8-28.9-17.8c-3.4-2.8-6.4-4.7-6.7-4.3
	c-2.7,4.4-15.9,73.2-14.4,74.8c0.4,0.3,1.9-0.3,3.5-1.3c3.7-2.6,20.1-11.7,34.3-19c6.3-3.3,14.7-7.7,18.5-9.8
	c3.9-2.1,8.4-4.5,10.1-5.3c7.2-3.4,15.2-27.6,14.2-43.2l-0.3-5.5L966.2,349.6L966.2,349.6z"/>
<linearGradient id="SVGID_00000093172465102167652410000001872157751835824060_" gradientUnits="userSpaceOnUse" x1="-1036.6897" y1="-15.9891" x2="-1035.6895" y2="-15.9891" gradientTransform="matrix(24.19 0 0 -53.84 25916.8633 -506.2195)">
	<stop  offset="0" style="stop-color:#E06D55"/>
	<stop  offset="1" style="stop-color:#E06D55"/>
</linearGradient>
<path style="fill:url(#SVGID_00000093172465102167652410000001872157751835824060_);" d="M839.5,331.4c-0.9,2.1-1.9,7-2.1,10.8
	c-0.3,6.1,0,8.2,2.7,15c1.8,4.8,3.1,9.8,3.1,12.6c0,10,4.2,14.3,9.8,10.2c4.6-3.3,7.2-10,7.9-20.1l0.6-9l-5.9-6.8
	c-3.3-3.8-7.5-9-9.3-11.7c-1.9-2.6-3.8-4.7-4.3-4.7S840.4,329.4,839.5,331.4L839.5,331.4z"/>
<linearGradient id="SVGID_00000120561156938100462190000009717536088035227298_" gradientUnits="userSpaceOnUse" x1="-1074.4427" y1="-12.6177" x2="-1073.4427" y2="-12.6177" gradientTransform="matrix(66.2 0 0 -64.8 72029.2031 -489.9185)">
	<stop  offset="0" style="stop-color:#B34144"/>
	<stop  offset="1" style="stop-color:#B34144"/>
</linearGradient>
<path style="fill:url(#SVGID_00000120561156938100462190000009717536088035227298_);" d="M931.4,296.8c-15.1,4-20.4,9.7-27.5,29.4
	l-2.7,7.5l4.3,3.8c6.2,5.5,17.1,12.5,27.8,17.9l9.3,4.7l4-2c11.1-5.7,20.8-23.6,20.8-38.5c0-4.3-2.5-21.3-3.2-21.9
	c-0.2-0.2-2.7-0.8-5.6-1.4C951.3,294.8,938,295,931.4,296.8L931.4,296.8z"/>
<rect x="460.7" y="255.1" class="st60" width="118.8" height="150.5"/>
<g>
	<line class="st61" x1="603.7" y1="327.7" x2="776.7" y2="327.7"/>
	<path d="M801.7,327.7c-11.9,2.1-26.4,5.7-35.6,9.5l7.1-9.5l-7.1-9.5C775.2,322,790,325.6,801.7,327.7z"/>
</g>
<rect x="189.7" y="246.2" class="st62" width="63.4" height="136.4"/>
</svg>
