<?xml version="1.0" encoding="utf-8"?>
<!-- Generator: Adobe Illustrator 26.5.0, SVG Export Plug-In . SVG Version: 6.00 Build 0)  -->
<svg version="1.1" id="图层_1" xmlns="http://www.w3.org/2000/svg" xmlns:xlink="http://www.w3.org/1999/xlink" x="0px" y="0px"
	 viewBox="0 0 2000 1000" style="enable-background:new 0 0 2000 1000;" xml:space="preserve">
<style type="text/css">
	.st0{fill:none;}
	.st1{fill:#D3D3D3;}
	.st2{clip-path:url(#SVGID_00000156554098552052194290000003724913757744891832_);}
	.st3{fill:url(#SVGID_00000181059667337116353120000004407176446366545848_);}
	.st4{fill:url(#SVGID_00000084497417128052840530000012462790539002433967_);}
	.st5{fill:url(#SVGID_00000081613675069965716360000008938395541413716406_);}
	.st6{fill:url(#SVGID_00000023965736272310327450000013892559773630205630_);}
	.st7{fill:url(#SVGID_00000085217625894658732290000015247058705449477017_);}
	.st8{fill:url(#SVGID_00000155104341984417976840000018144562890506281097_);}
	.st9{fill:url(#SVGID_00000100357101704112069860000012670668994051484576_);}
	.st10{fill:url(#SVGID_00000032607836787756430410000005505574313574288315_);}
	.st11{fill:url(#SVGID_00000146479813427702663980000014376881469768704411_);}
	.st12{fill:url(#SVGID_00000031166335368493760770000001344063914091819165_);}
	.st13{fill:url(#SVGID_00000135651632665367855090000008600097241933377471_);}
	.st14{fill:url(#SVGID_00000075878440519272657040000005515228986564501156_);}
	.st15{fill:url(#SVGID_00000024708355359941618910000002459926153146116506_);}
	.st16{fill:url(#SVGID_00000122685431578240864730000005297229859876100506_);}
	.st17{fill:url(#SVGID_00000164483225195550300260000017854797501141520011_);}
	.st18{fill:url(#SVGID_00000149382164017109269100000001867826157404587168_);}
	.st19{fill:url(#SVGID_00000168797809358421746750000000993190000627011476_);}
	.st20{fill:url(#SVGID_00000065049172526711023640000008447162909995015817_);}
	.st21{fill:url(#SVGID_00000149373807539626369990000008876746391579847830_);}
	.st22{fill:url(#SVGID_00000101820946727204716810000009891345806075474597_);}
	.st23{fill:url(#SVGID_00000139981313910616247660000000469510984152946088_);}
	.st24{fill:url(#SVGID_00000072270753816278001710000002789999888219888006_);}
	.st25{fill:url(#SVGID_00000065777623853628883380000013290180837016470411_);}
	.st26{fill:url(#SVGID_00000170967939974707392310000001228872900354752445_);stroke:#000000;stroke-miterlimit:10;}
	.st27{fill:url(#SVGID_00000011738826186963514100000008084173516167198855_);stroke:#000000;stroke-miterlimit:10;}
	.st28{fill:none;stroke:#FF0000;stroke-width:4;stroke-miterlimit:10;}
	.st29{fill:none;stroke:#3FA9F5;stroke-width:4;stroke-linecap:round;stroke-miterlimit:10;}
	.st30{fill:#3FA9F5;}
</style>
<pattern  y="1000" width="40" height="40" patternUnits="userSpaceOnUse" id="SVGID_0000009029248232788981065" viewBox="0 -40 40 40" style="overflow:visible;">
	<g>
		<rect y="-40" class="st0" width="40" height="40"/>
		<g>
			<rect y="-40" class="st0" width="40" height="40"/>
			<g>
				<rect y="-40" class="st0" width="40" height="40"/>
				<g>
					<rect y="-40" class="st0" width="40" height="40"/>
					<g>
						<rect y="-40" class="st0" width="40" height="40"/>
						<g>
							<rect y="-40" class="st0" width="40" height="40"/>
							<g>
								<polygon class="st0" points="0,-40 40,-40 40,0 0,0 								"/>
								<polygon class="st1" points="0,-20 20,-20 20,0 0,0 								"/>
								<polygon class="st1" points="20,-40 40,-40 40,-20 20,-20 								"/>
							</g>
						</g>
					</g>
				</g>
			</g>
		</g>
	</g>
</pattern>
<g id="_图层_1">
	<g>
		<g>
			<defs>
				<rect id="SVGID_1_" width="2000" height="1000"/>
			</defs>
			<clipPath id="SVGID_00000132782570812776689890000016943336493845976210_">
				<use xlink:href="#SVGID_1_"  style="overflow:visible;"/>
			</clipPath>
			<g style="clip-path:url(#SVGID_00000132782570812776689890000016943336493845976210_);">
				
					<pattern  id="SVGID_00000104698219569202834110000018378476783982048896_" xlink:href="#SVGID_0000009029248232788981065" patternTransform="matrix(1 0 0 -1 -53.5 -18524.1094)">
				</pattern>
				<rect style="fill:url(#SVGID_00000104698219569202834110000018378476783982048896_);" width="1998.7" height="999.3"/>
			</g>
		</g>
	</g>
	
		<linearGradient id="SVGID_00000128465668561592629170000011691528300802863528_" gradientUnits="userSpaceOnUse" x1="-118.7972" y1="730.8229" x2="-117.7972" y2="730.8229" gradientTransform="matrix(746.68 0 0 147.82 88819.4531 -107193.5469)">
		<stop  offset="0" style="stop-color:#951C4D"/>
		<stop  offset="1" style="stop-color:#951C4D"/>
	</linearGradient>
	<path style="fill:url(#SVGID_00000128465668561592629170000011691528300802863528_);" d="M117.4,765.5c0.1,1.6,0.6,5.7,1.3,9.3
		l1.1,6.4l14.5,4.4c60.1,18,116,35.9,269,86.4c79.6,26.3,117.2,38.3,121,38.6c5.3,0.3,11.1-1.9,171-66.3
		c91-36.7,165.9-67.1,166.4-67.6c1-0.9,2.9-12.9,2.2-13.6c-0.4-0.4-330.4,125.6-335.8,128.2c-2.5,1.2-4.9,0.8-24.5-4.6
		c-75.3-20.6-213.7-64.9-354.6-113.3c-16.9-5.8-31-10.6-31.2-10.6C117.6,762.8,117.4,764,117.4,765.5L117.4,765.5z"/>
	
		<linearGradient id="SVGID_00000137848532247450863910000001313514196812919722_" gradientUnits="userSpaceOnUse" x1="-117.9572" y1="731.2432" x2="-116.9565" y2="731.2432" gradientTransform="matrix(146.21 0 0 377.78 17732.7695 -275960.125)">
		<stop  offset="0" style="stop-color:#E8935D"/>
		<stop  offset="1" style="stop-color:#E8935D"/>
	</linearGradient>
	<path style="fill:url(#SVGID_00000137848532247450863910000001313514196812919722_);" d="M493.6,100.6c-3.4,0.4-6.5,1-6.8,1.4
		c-0.4,0.4,0.4,8.3,1.9,17.5c4.1,27.2,8,57.4,17.1,134.8c17,144.1,20.5,169.3,30.2,208.7l3.6,14.8h5.6c7.3,0,37.2-2.6,52.7-4.6
		c12.4-1.5,34.5-5.1,35.1-5.6c0.1-0.2-1.5-6.6-3.7-14.3c-21.2-74.4-65.7-255-82.4-334c-1.6-7.2-3.3-13.5-3.9-14.2
		C539.5,101.4,510.8,98.8,493.6,100.6L493.6,100.6z"/>
	
		<linearGradient id="SVGID_00000173879245045862518820000014867708593778318222_" gradientUnits="userSpaceOnUse" x1="-114.1612" y1="721.671" x2="-113.1614" y2="721.671" gradientTransform="matrix(31.48 0 0 10.55 4093.28 -7501.5601)">
		<stop  offset="0" style="stop-color:#F9F2EB"/>
		<stop  offset="1" style="stop-color:#F9F2EB"/>
	</linearGradient>
	<path style="fill:url(#SVGID_00000173879245045862518820000014867708593778318222_);" d="M500.5,108.4c0.5,2.7,10.1,7.2,17.8,8.5
		c7.4,1.2,12.6-0.1,13.4-3.2c1.1-4.2-1.4-4.9-22.7-6.5C500.7,106.5,500.2,106.6,500.5,108.4z"/>
	
		<linearGradient id="SVGID_00000121962215454641527260000012797014666070875820_" gradientUnits="userSpaceOnUse" x1="-118.7974" y1="730.8663" x2="-117.7974" y2="730.8663" gradientTransform="matrix(744.36 0 0 161.06 88544.4688 -116902)">
		<stop  offset="0" style="stop-color:#FE7E27"/>
		<stop  offset="1" style="stop-color:#FE7E27"/>
	</linearGradient>
	<path style="fill:url(#SVGID_00000121962215454641527260000012797014666070875820_);" d="M713.5,736.9c2.7,8.8,2.5,14.7-1,22.2
		c-1.6,3.4-4,7.4-5.3,8.9c-3.4,3.9-11.3,9.5-18.2,13c-3.4,1.7-6.4,3.5-6.7,3.9c-0.9,1.5-17.7,7.9-30,11.4
		c-23.5,6.8-50.4,11.5-86.9,15.2c-22.2,2.2-103.3,2.6-125.5,0.5c-31.1-2.9-54.2-6.4-76-11.7c-42-10.1-67.8-25.2-73-42.7
		c-1.9-6.4-1.9-9.6,0-17.7c0.9-3.5,1.4-6.6,1.2-6.8c-0.4-0.4-23.9,3.4-111.2,17.7c-26.9,4.4-52.3,8.5-56.2,9.1
		c-4,0.6-7.3,1.5-7.3,1.9c0,0.8,6.3,3,88,30.7c123.8,41.9,231.6,75.9,298.3,94.2c19.6,5.4,22,5.8,24.5,4.6
		c1.5-0.7,77-29.7,167.7-64.5c90.8-34.7,165.4-63.5,165.8-64c1-0.9-9.7-3.5-44.8-11.1c-27.5-6-101.7-20.9-103.8-20.9
		C711.8,730.8,711.8,731.7,713.5,736.9L713.5,736.9z"/>
	
		<linearGradient id="SVGID_00000070081588565352634320000003644872562363553687_" gradientUnits="userSpaceOnUse" x1="-117.798" y1="730.6559" x2="-118.488" y2="731.4559" gradientTransform="matrix(392.63 0 0 210.71 46859.5703 -153328.2344)">
		<stop  offset="0" style="stop-color:#CB4938"/>
		<stop  offset="1" style="stop-color:#961B4D"/>
	</linearGradient>
	<path style="fill:url(#SVGID_00000070081588565352634320000003644872562363553687_);" d="M318,628.5c-3.3,14.2-11,46.5-17.3,71.7
		c-6.2,25.3-11.3,47.4-11.3,49.1c0,5.5,2.9,13.2,7,18.4c17.3,21.9,67,37.2,143.5,44.3c18.8,1.7,102.2,1.8,120,0
		c37.7-3.7,65.3-8.2,88.9-14.7c13.1-3.6,34.1-11.3,33.2-12.2c-0.3-0.3-3.5,0.6-7.3,2.1c-13.5,5-34,10.3-35.3,9
		c-1.3-1.5-46.1-138.3-56.9-174l-2.2-7l-7.2,1.2c-20.1,3.5-35.4,4.6-68.8,5.1c-60.1,1-105.6-3.7-177.4-18.2l-3-0.7L318,628.5
		L318,628.5z"/>
	
		<linearGradient id="SVGID_00000173868402995482738300000000874650211763780241_" gradientUnits="userSpaceOnUse" x1="-117.8652" y1="731.0143" x2="-116.8652" y2="731.0143" gradientTransform="matrix(134.39 0 0 213.27 16421.4316 -155213.5938)">
		<stop  offset="0" style="stop-color:#D36C4D"/>
		<stop  offset="1" style="stop-color:#D36C4D"/>
	</linearGradient>
	<path style="fill:url(#SVGID_00000173868402995482738300000000874650211763780241_);" d="M651.8,589.9
		c-20.2,10.6-49.7,21.3-67.8,24.5c-3.2,0.5-3.7,0.9-3.1,2.8c6.6,22.9,57.1,177.5,58.4,179c1.8,1.9,31.8-6.9,45.7-13.4
		c15.3-7.1,22.9-13.7,27.5-23.9c4.6-9.9,4.2-12.2-11-60.6c-7.2-23.1-18-58.4-24.1-78.5c-6-20-11.3-36.5-11.8-36.6
		C665.3,583.1,659.1,586.1,651.8,589.9L651.8,589.9z"/>
	
		<linearGradient id="SVGID_00000067914937039932620170000015897950898709824167_" gradientUnits="userSpaceOnUse" x1="-117.7816" y1="730.3915" x2="-116.7816" y2="730.3915" gradientTransform="matrix(124.69 0 0 91.28 15104.0312 -66531.5703)">
		<stop  offset="0" style="stop-color:#DF5B27"/>
		<stop  offset="1" style="stop-color:#DF5B27"/>
	</linearGradient>
	<path style="fill:url(#SVGID_00000067914937039932620170000015897950898709824167_);" d="M467.9,94.4c-15.6,2.4-26.1,6.3-28.9,10.7
		c-1.8,2.7-21.2,74.5-20.4,75.2c1,0.8,77.6,4.6,78.7,3.8c0.4-0.3-5.1-42.4-8.5-64.6c-1.5-9.2-2.3-17.1-2-17.5
		c1-0.9,13.7-2.1,24.3-2.1c10.4-0.1,22.5,1.4,28.3,3.4c4.8,1.7,5.2,0.5,0.8-2.8c-3.7-2.8-10.5-5.1-19.2-6.6
		C512.5,92.4,478.6,92.7,467.9,94.4L467.9,94.4z"/>
	
		<linearGradient id="SVGID_00000059294753360843704660000004326298410705802133_" gradientUnits="userSpaceOnUse" x1="-117.7728" y1="730.7784" x2="-116.7027" y2="730.5085" gradientTransform="matrix(117.52 0 0 113.21 14225.8486 -82474.5312)">
		<stop  offset="0" style="stop-color:#A08CA7"/>
		<stop  offset="1" style="stop-color:#CEBBB9"/>
	</linearGradient>
	<path style="fill:url(#SVGID_00000059294753360843704660000004326298410705802133_);" d="M418,181.5c-1,1.7-12.6,49.4-24.1,99.3
		c-0.9,4.2-1.1,6.7-0.4,7.1c1,0.6,20.8,2.2,48.3,3.9c8.3,0.5,27.1,1.2,41.9,1.6l26.9,0.7l-0.6-3.9c-0.3-2.1-3.2-26.4-6.3-53.8
		c-4-33.9-6.3-50.3-7.2-51.3c-1-0.9-4.6-1.3-13-1.3c-6.4,0-18.4-0.5-26.7-1C421.2,180.6,418.6,180.5,418,181.5L418,181.5z"/>
	
		<linearGradient id="SVGID_00000006686975006891675100000018241492167097609100_" gradientUnits="userSpaceOnUse" x1="-118.4644" y1="731.1033" x2="-117.5444" y2="730.7433" gradientTransform="matrix(255.12 0 0 160.64 30531.0586 -116866.9219)">
		<stop  offset="0" style="stop-color:#665891"/>
		<stop  offset="1" style="stop-color:#C0A9B2"/>
	</linearGradient>
	<path style="fill:url(#SVGID_00000006686975006891675100000018241492167097609100_);" d="M354.5,464c-0.5,1.8-5.3,23.3-10.6,47.8
		c-5.3,24.5-11.8,54.4-14.5,66.6c-2.8,12.1-5,22.5-5,23.1c0,1.3,3.5,2.1,29.4,6.9c23.6,4.3,55.1,8.8,76.6,11
		c21.9,2.1,80.1,3,102.5,1.5c15.4-1.1,44.9-4.6,46.6-5.6c0.3-0.3-3-12-7.3-26.2c-9.9-32.1-24.4-81.7-28.9-98.4l-3.3-12.6l-15.1,0.5
		c-16.6,0.5-52.8-1.1-76-3.3c-25.2-2.5-66.1-8.9-90.6-14.1C355.8,460.7,355.4,461,354.5,464L354.5,464z"/>
	
		<linearGradient id="SVGID_00000036233167235642033840000014862721158758322620_" gradientUnits="userSpaceOnUse" x1="-117.7868" y1="730.8379" x2="-116.7868" y2="730.8379" gradientTransform="matrix(125.61 0 0 146.44 15335.6992 -106482.8281)">
		<stop  offset="0" style="stop-color:#DACBC9"/>
		<stop  offset="1" style="stop-color:#DACBC9"/>
	</linearGradient>
	<path style="fill:url(#SVGID_00000036233167235642033840000014862721158758322620_);" d="M617.3,470.3c-17.6,3-37.2,5.2-59.2,6.7
		c-9.8,0.7-17.8,1.6-17.8,2.2c0,2.8,17.8,64.3,31.3,108.1l8.3,27l3.9-0.2c5.8-0.4,28.2-6.8,41.3-11.9c16.3-6.3,41.4-19.3,40.8-21.1
		c-0.3-0.8-7.1-24.2-15.1-52.1c-18.3-64.1-17.4-61.2-18.8-61.1C631.3,468,624.8,469.1,617.3,470.3z"/>
	
		<linearGradient id="SVGID_00000101098912746262443680000006292092076079537578_" gradientUnits="userSpaceOnUse" x1="-117.1865" y1="730.7516" x2="-118.2266" y2="731.3817" gradientTransform="matrix(184.39 0 0 190.47 22143.9492 -138847.1562)">
		<stop  offset="0" style="stop-color:#E15C25"/>
		<stop  offset="1" style="stop-color:#BD3E3F"/>
	</linearGradient>
	<path style="fill:url(#SVGID_00000101098912746262443680000006292092076079537578_);" d="M392,289.5
		c-1.4,4.9-25.9,117.7-34.2,157.8c-1.4,6.6-2.7,12.9-3,14c-0.4,1.4-0.3,1.6,0.4,0.7c0.7-1,3.3-0.8,13.3,1.2
		c41.3,8.2,76.9,12.6,118.9,14.7c22.2,1.1,50.3,0.9,51.5-0.3c0.3-0.3-0.7-5.9-2.4-12.4c-7.7-30.7-11.6-54.8-19.6-119.9
		c-3.1-24.8-5.8-46.5-6.1-48.3l-0.5-3.2H499c-23,0-97.3-3.9-104.4-5.5C393.1,287.9,392.3,288.3,392,289.5L392,289.5z"/>
	
		<linearGradient id="SVGID_00000173159044649691141940000016540747535767149998_" gradientUnits="userSpaceOnUse" x1="-117.2734" y1="730.7289" x2="-116.2934" y2="730.4189" gradientTransform="matrix(89.6 0 0 109.76 11007.5 -79950.1875)">
		<stop  offset="0" style="stop-color:#FFFFFF;stop-opacity:0.65"/>
		<stop  offset="1" style="stop-color:#FFFFFF;stop-opacity:0.76"/>
	</linearGradient>
	<path style="fill:url(#SVGID_00000173159044649691141940000016540747535767149998_);" d="M522.2,184.5l-24.7,0.3l0.5,2.8
		c0.4,2.6,12.4,104.3,12.4,105.8c0,0.8,55.2-0.2,68.6-1.3l8.1-0.6l-2.3-9.6c-7.8-32.5-22.5-94-22.9-95.9c-0.5-2.1-1-2.2-7.8-2
		C550.1,184.2,535.8,184.4,522.2,184.5L522.2,184.5z"/>
	
		<linearGradient id="SVGID_00000036213275266727874080000014720373798951791551_" gradientUnits="userSpaceOnUse" x1="-116.3815" y1="730.859" x2="-116.4915" y2="729.829" gradientTransform="matrix(74.12 0 0 84.79 9154.21 -61780.1992)">
		<stop  offset="0" style="stop-color:#FFFFFF;stop-opacity:0.13"/>
		<stop  offset="1" style="stop-color:#FFFFFF;stop-opacity:0.18"/>
	</linearGradient>
	<path style="fill:url(#SVGID_00000036213275266727874080000014720373798951791551_);" d="M493.6,100.6c-3.4,0.4-6.5,1-6.8,1.4
		c-0.4,0.4,0.4,8.3,1.9,17.5c2.7,18.1,8.6,61.5,8.6,64c0,1.4,3.5,1.5,31.5,1.1c17.4-0.3,31.8-0.7,32-0.9s-1.6-9-4-19.4
		c-2.5-10.5-6.3-27.8-8.6-38.5s-4.7-20-5.3-20.7C539.5,101.4,510.9,98.8,493.6,100.6L493.6,100.6z M523.7,108.5
		c6.4,0.6,8.8,2.2,8,5.2c-0.8,3.1-6,4.4-13.4,3.2c-7.7-1.3-17.3-5.8-17.8-8.5c-0.3-1.8,0.2-1.9,8.5-1.2
		C513.9,107.5,520.5,108.1,523.7,108.5z"/>
</g>
<linearGradient id="SVGID_00000076567592816796517970000011103737921419799734_" gradientUnits="userSpaceOnUse" x1="-111.4972" y1="731.1696" x2="-110.4972" y2="731.1696" gradientTransform="matrix(146.21 0 0 377.78 17732.7695 -275960.125)">
	<stop  offset="0" style="stop-color:#E8935D"/>
	<stop  offset="1" style="stop-color:#E8935D"/>
</linearGradient>
<path style="fill:url(#SVGID_00000076567592816796517970000011103737921419799734_);" d="M1438.7,72.8c-3.4,0.4-6.5,1-6.8,1.4
	c-0.4,0.4,0.4,8.3,1.9,17.5c4.1,27.2,8,57.4,17.1,134.8c16.9,144.1,20.5,169.3,30.1,208.7l3.6,14.8h5.6c7.3,0,37.2-2.6,52.7-4.6
	c12.4-1.5,34.5-5.1,35.1-5.6c0.1-0.2-1.5-6.6-3.7-14.3c-21.2-74.4-65.7-255-82.4-334c-1.6-7.2-3.3-13.5-3.9-14.2
	C1484.5,73.6,1455.8,71,1438.7,72.8L1438.7,72.8z"/>
<linearGradient id="SVGID_00000166676694925122102310000016160923319925748610_" gradientUnits="userSpaceOnUse" x1="-83.7912" y1="721.0075" x2="-82.7923" y2="721.0075" gradientTransform="matrix(31.48 0 0 10.55 4093.28 -7501.5601)">
	<stop  offset="0" style="stop-color:#F9F2EB"/>
	<stop  offset="1" style="stop-color:#F9F2EB"/>
</linearGradient>
<path style="fill:url(#SVGID_00000166676694925122102310000016160923319925748610_);" d="M1456.4,101.4c0.5,2.7,10.1,7.2,17.8,8.5
	c7.4,1.2,12.6-0.1,13.4-3.2c1.1-4.2-1.4-4.9-22.7-6.5C1456.7,99.5,1456.2,99.6,1456.4,101.4L1456.4,101.4z"/>
<linearGradient id="SVGID_00000146462867664799527710000016236500504242440341_" gradientUnits="userSpaceOnUse" x1="-115.5569" y1="730.9661" x2="-116.2469" y2="731.7661" gradientTransform="matrix(392.63 0 0 210.71 46859.5703 -153328.2344)">
	<stop  offset="0" style="stop-color:#CB4938"/>
	<stop  offset="1" style="stop-color:#961B4D"/>
</linearGradient>
<path style="fill:url(#SVGID_00000146462867664799527710000016236500504242440341_);" d="M1196.9,694.5c-3.3,14.2-11,46.5-17.3,71.7
	c-6.2,25.3-11.3,47.4-11.3,49.1c0,5.5,2.9,13.2,7,18.4c17.3,21.9,67,37.2,143.5,44.3c18.8,1.7,102.2,1.8,120,0
	c37.7-3.7,65.3-8.2,88.9-14.7c13.1-3.6,34.1-11.3,33.2-12.2c-0.3-0.3-3.5,0.6-7.3,2.1c-13.5,5-34,10.3-35.3,9
	c-1.3-1.5-46.1-138.3-56.9-174l-2.2-7l-7.2,1.2c-20.1,3.5-35.4,4.6-68.8,5.1c-60.1,1-105.6-3.7-177.4-18.2l-3-0.7L1196.9,694.5
	L1196.9,694.5z"/>
<linearGradient id="SVGID_00000092414635331337035160000011439254236004728464_" gradientUnits="userSpaceOnUse" x1="-110.6952" y1="731.3566" x2="-109.6952" y2="731.3566" gradientTransform="matrix(134.39 0 0 213.27 16421.4316 -155213.5938)">
	<stop  offset="0" style="stop-color:#D36C4D"/>
	<stop  offset="1" style="stop-color:#D36C4D"/>
</linearGradient>
<path style="fill:url(#SVGID_00000092414635331337035160000011439254236004728464_);" d="M1615.8,662.9
	c-20.2,10.6-49.7,21.3-67.8,24.5c-3.2,0.5-3.7,0.9-3.1,2.8c6.6,22.9,57.1,177.5,58.4,179c1.8,1.9,31.8-6.9,45.7-13.4
	c15.3-7.1,22.9-13.7,27.5-23.9c4.6-9.9,4.2-12.2-11-60.6c-7.2-23.1-18-58.4-24.1-78.5c-6-20-11.3-36.5-11.8-36.6
	C1629.2,656.1,1623,659.1,1615.8,662.9L1615.8,662.9z"/>
<linearGradient id="SVGID_00000076574128927407382980000017917220042981047698_" gradientUnits="userSpaceOnUse" x1="-110.9115" y1="730.2163" x2="-109.9115" y2="730.2163" gradientTransform="matrix(124.69 0 0 91.28 15104.0312 -66531.5703)">
	<stop  offset="0" style="stop-color:#DF5B27"/>
	<stop  offset="1" style="stop-color:#DF5B27"/>
</linearGradient>
<path style="fill:url(#SVGID_00000076574128927407382980000017917220042981047698_);" d="M1323.8,78.4c-15.6,2.4-26.1,6.3-28.9,10.7
	c-1.8,2.7-21.2,74.5-20.4,75.2c1,0.8,77.6,4.6,78.7,3.8c0.4-0.3-5.1-42.4-8.5-64.6c-1.5-9.2-2.3-17.1-2-17.5
	c1-0.9,13.7-2.1,24.3-2.1c10.4-0.1,22.5,1.4,28.3,3.4c4.8,1.7,5.2,0.5,0.8-2.8c-3.7-2.8-10.5-5.1-19.2-6.6
	C1368.6,76.4,1334.7,76.7,1323.8,78.4L1323.8,78.4z"/>
<linearGradient id="SVGID_00000095325342313104018170000007836469550470447757_" gradientUnits="userSpaceOnUse" x1="-110.4627" y1="730.8513" x2="-109.3927" y2="730.5814" gradientTransform="matrix(117.52 0 0 113.21 14225.8486 -82474.5312)">
	<stop  offset="0" style="stop-color:#A08CA7"/>
	<stop  offset="1" style="stop-color:#CEBBB9"/>
</linearGradient>
<path style="fill:url(#SVGID_00000095325342313104018170000007836469550470447757_);" d="M1278.1,189.5c-1,1.7-12.6,49.4-24.1,99.3
	c-0.9,4.2-1.1,6.7-0.4,7.1c1,0.6,20.8,2.2,48.3,3.9c8.3,0.5,27.1,1.2,41.9,1.6l26.9,0.7l-0.6-3.9c-0.3-2.1-3.2-26.4-6.3-53.8
	c-4-33.9-6.3-50.3-7.2-51.3c-1-0.9-4.6-1.3-13-1.3c-6.4,0-18.4-0.5-26.7-1C1281.3,188.6,1278.7,188.5,1278.1,189.5L1278.1,189.5z"/>
<linearGradient id="SVGID_00000030461365701237983110000011357799064576341914_" gradientUnits="userSpaceOnUse" x1="-115.0341" y1="731.4344" x2="-114.1141" y2="731.0744" gradientTransform="matrix(255.12 0 0 160.64 30531.0586 -116866.9219)">
	<stop  offset="0" style="stop-color:#665891"/>
	<stop  offset="1" style="stop-color:#C0A9B2"/>
</linearGradient>
<path style="fill:url(#SVGID_00000030461365701237983110000011357799064576341914_);" d="M1230.4,517c-0.5,1.8-5.3,23.3-10.6,47.8
	c-5.3,24.5-11.8,54.4-14.5,66.6c-2.8,12.1-5,22.5-5,23.1c0,1.3,3.5,2.1,29.4,6.9c23.6,4.3,55.1,8.8,76.6,11
	c21.9,2.1,80.1,3,102.5,1.5c15.4-1.1,44.9-4.6,46.6-5.6c0.3-0.3-3-12-7.3-26.2c-9.9-32.1-24.4-81.7-28.9-98.4l-3.3-12.6l-15.1,0.5
	c-16.6,0.5-52.8-1.1-76-3.3c-25.2-2.5-66.1-8.9-90.6-14.1C1231.8,513.7,1231.4,514,1230.4,517L1230.4,517z"/>
<linearGradient id="SVGID_00000153702508571732781870000013349581739856647851_" gradientUnits="userSpaceOnUse" x1="-110.2369" y1="730.9608" x2="-109.2369" y2="730.9608" gradientTransform="matrix(125.61 0 0 146.44 15335.6992 -106482.8281)">
	<stop  offset="0" style="stop-color:#DACBC9"/>
	<stop  offset="1" style="stop-color:#DACBC9"/>
</linearGradient>
<path style="fill:url(#SVGID_00000153702508571732781870000013349581739856647851_);" d="M1565.3,488.3c-17.6,3-37.2,5.2-59.2,6.7
	c-9.8,0.7-17.8,1.6-17.8,2.2c0,2.8,17.8,64.3,31.3,108.1l8.3,27l3.9-0.2c5.8-0.4,28.2-6.8,41.3-11.9c16.3-6.3,41.4-19.3,40.8-21.1
	c-0.3-0.8-7.1-24.2-15.1-52.1c-18.3-64.1-17.4-61.2-18.8-61.1C1579.4,486,1572.8,487.1,1565.3,488.3L1565.3,488.3z"/>
<linearGradient id="SVGID_00000015355160268627236660000012882739159539106213_" gradientUnits="userSpaceOnUse" x1="-112.4986" y1="730.9384" x2="-113.5385" y2="731.5683" gradientTransform="matrix(184.39 0 0 190.47 22143.9492 -138847.1562)">
	<stop  offset="0" style="stop-color:#E15C25"/>
	<stop  offset="1" style="stop-color:#BD3E3F"/>
</linearGradient>
<path style="fill:url(#SVGID_00000015355160268627236660000012882739159539106213_);" d="M1256.9,324.7
	c-1.4,4.9-25.9,117.7-34.2,157.8c-1.4,6.6-2.7,12.9-3,14c-0.4,1.4-0.3,1.6,0.4,0.7c0.7-1,3.3-0.8,13.3,1.2
	c41.3,8.2,76.9,12.6,118.9,14.7c22.2,1.1,50.3,0.9,51.5-0.3c0.3-0.3-0.7-5.9-2.4-12.4c-7.7-30.7-11.6-54.8-19.6-119.9
	c-3.1-24.8-5.8-46.5-6.1-48.3l-0.5-3.2H1364c-23,0-97.3-3.9-104.4-5.5C1258.2,323.1,1257.4,323.5,1256.9,324.7L1256.9,324.7z"/>
<linearGradient id="SVGID_00000004511822028090718890000001441612983200072354_" gradientUnits="userSpaceOnUse" x1="-104.9837" y1="730.9379" x2="-104.0037" y2="730.6279" gradientTransform="matrix(89.6 0 0 109.76 11007.5 -79950.1875)">
	<stop  offset="0" style="stop-color:#FFFFFF;stop-opacity:0.65"/>
	<stop  offset="1" style="stop-color:#FFFFFF;stop-opacity:0.76"/>
</linearGradient>
<path style="fill:url(#SVGID_00000004511822028090718890000001441612983200072354_);stroke:#000000;stroke-miterlimit:10;" d="
	M1623.2,207.5l-24.7,0.3l0.5,2.8c0.4,2.6,12.4,104.3,12.4,105.8c0,0.8,55.2-0.2,68.6-1.3l8.1-0.6l-2.3-9.6
	c-7.8-32.5-22.5-94-22.9-95.9c-0.5-2.1-1-2.2-7.8-2C1651.1,207.2,1636.7,207.4,1623.2,207.5L1623.2,207.5z"/>
<linearGradient id="SVGID_00000047029546305597998150000006733308644406218127_" gradientUnits="userSpaceOnUse" x1="-101.7018" y1="730.5591" x2="-101.8118" y2="729.5291" gradientTransform="matrix(74.12 0 0 84.79 9154.21 -61780.1992)">
	<stop  offset="0" style="stop-color:#FFFFFF;stop-opacity:0.13"/>
	<stop  offset="1" style="stop-color:#FFFFFF;stop-opacity:0.18"/>
</linearGradient>
<path style="fill:url(#SVGID_00000047029546305597998150000006733308644406218127_);stroke:#000000;stroke-miterlimit:10;" d="
	M1581.7,75.6c-3.4,0.4-6.5,1-6.8,1.4c-0.4,0.4,0.4,8.3,1.9,17.5c2.7,18.1,8.6,61.5,8.6,64c0,1.4,3.5,1.5,31.5,1.1
	c17.4-0.3,31.8-0.7,32-0.9s-1.6-9-4-19.4c-2.5-10.5-6.3-27.8-8.6-38.5c-2.3-10.7-4.7-20-5.3-20.7
	C1627.5,76.4,1598.8,73.8,1581.7,75.6L1581.7,75.6z M1611.7,83.5c6.4,0.6,8.8,2.2,8,5.2c-0.8,3.1-6,4.4-13.4,3.2
	c-7.7-1.3-17.3-5.8-17.8-8.5c-0.3-1.8,0.2-1.9,8.5-1.2C1601.8,82.5,1608.4,83.1,1611.7,83.5L1611.7,83.5z"/>
<rect x="432" y="77" class="st28" width="281" height="744"/>
<g>
	<line class="st29" x1="1124.2" y1="477.6" x2="811.5" y2="477.6"/>
	<polygon class="st30" points="1156.6,477.6 1110.9,493.9 1121.7,477.6 1110.9,461.3 	"/>
</g>
</svg>
