<?xml version="1.0" encoding="utf-8"?>
<!-- Generator: Adobe Illustrator 26.5.0, SVG Export Plug-In . SVG Version: 6.00 Build 0)  -->
<svg version="1.1" id="图层_1" xmlns="http://www.w3.org/2000/svg" xmlns:xlink="http://www.w3.org/1999/xlink" x="0px" y="0px"
	 viewBox="0 0 2000 1000" style="enable-background:new 0 0 2000 1000;" xml:space="preserve">
<style type="text/css">
	.st0{fill:none;}
	.st1{fill:#D3D3D3;}
	.st2{clip-path:url(#SVGID_00000169545579277763733610000010409828764574709643_);}
	.st3{fill:url(#SVGID_00000179641571191638047690000002279467735083920790_);}
	.st4{fill:url(#region-1-1_00000099636622972185958120000012015764720482456197_);}
	.st5{fill:url(#region-1-2_00000182509905341004465850000015037536051181792943_);}
	.st6{fill:url(#region-1-3_00000024720515711253770520000014143916963891036846_);}
	.st7{fill:url(#region-1-4_00000065784718826983659460000015340473866672394887_);}
	.st8{fill:url(#region-2-1_00000077315751399860911560000001726651953643970479_);}
	.st9{fill:url(#region-2-2_00000046333712202269238930000000782727893375610270_);}
	.st10{fill:url(#region-2-3_00000025412651081955231400000001309065554484722578_);}
	.st11{fill:url(#region-3-1_00000023241956903496638150000015453363694384698784_);}
	.st12{fill:url(#region-4-1_00000033363676587823283090000012754133404898738612_);}
	.st13{fill:none;stroke:#0000FF;stroke-width:4;stroke-miterlimit:10;}
	.st14{fill:none;stroke:#3FA9F5;stroke-width:4;stroke-linecap:round;stroke-miterlimit:10;}
	.st15{fill:#3FA9F5;}
	.st16{fill:url(#region-1-3_00000054252335674657720630000008684635855583573433_);}
	.st17{fill:url(#region-1-1_00000133489915433303704550000006255107793569532847_);}
	.st18{fill:url(#region-1-2_00000023253983208697871940000016620518575027350974_);}
	.st19{fill:url(#region-2-1_00000021801137198617366190000009894328752789037492_);}
	.st20{fill:url(#region-2-2_00000145759450960756561180000006091893713465770925_);}
	.st21{fill:url(#region-3-1_00000144333434773853154850000006258508809420810661_);stroke:#000000;stroke-miterlimit:10;}
	.st22{fill:url(#region-4-1_00000043455947055488642490000004175937084394220705_);}
</style>
<pattern  y="1000" width="40" height="40" patternUnits="userSpaceOnUse" id="SVGID_0000002541729029589025173" viewBox="0 -40 40 40" style="overflow:visible;">
	<g>
		<rect y="-40" class="st0" width="40" height="40"/>
		<g>
			<rect y="-40" class="st0" width="40" height="40"/>
			<g>
				<rect y="-40" class="st0" width="40" height="40"/>
				<g>
					<rect y="-40" class="st0" width="40" height="40"/>
					<g>
						<rect y="-40" class="st0" width="40" height="40"/>
						<g>
							<rect y="-40" class="st0" width="40" height="40"/>
							<g>
								<polygon class="st0" points="0,-40 40,-40 40,0 0,0 								"/>
								<polygon class="st1" points="0,-20 20,-20 20,0 0,0 								"/>
								<polygon class="st1" points="20,-40 40,-40 40,-20 20,-20 								"/>
							</g>
						</g>
					</g>
				</g>
			</g>
		</g>
	</g>
</pattern>
<g>
	<g>
		<g>
			<defs>
				<rect id="SVGID_1_" y="-0.5" width="2000" height="1000"/>
			</defs>
			<clipPath id="SVGID_00000076583320401731678760000011934792136653691313_">
				<use xlink:href="#SVGID_1_"  style="overflow:visible;"/>
			</clipPath>
			<g style="clip-path:url(#SVGID_00000076583320401731678760000011934792136653691313_);">
				
					<pattern  id="SVGID_00000028313484920413099900000000557651494916714889_" xlink:href="#SVGID_0000002541729029589025173" patternTransform="matrix(1 0 0 -1 17546.5 -49844.1094)">
				</pattern>
				<rect y="-0.5" style="fill:url(#SVGID_00000028313484920413099900000000557651494916714889_);" width="1998.7" height="999.4"/>
			</g>
		</g>
	</g>
</g>
<linearGradient id="region-1-1_00000151512371535695117100000006798657148497906326_" gradientUnits="userSpaceOnUse" x1="-168.0596" y1="749.5782" x2="-167.0415" y2="749.6143" gradientTransform="matrix(142.4377 0 0 91.5853 24288.1523 -68514.8438)">
	<stop  offset="0" style="stop-color:#DE582A;stop-opacity:0.996"/>
	<stop  offset="1" style="stop-color:#DF5F1A;stop-opacity:0.998"/>
</linearGradient>
<path id="region-1-1" style="fill:url(#region-1-1_00000151512371535695117100000006798657148497906326_);" d="M401.9,93.2
	c-15.6,2.4-26.1,6.3-28.9,10.7c-1.8,2.7-21.3,74.5-20.4,75.1c0.6,0.6,37.1,2.6,64.8,3.7c24,1,76.5,0.7,77.6-0.3
	c0.1-0.2-0.8-5.1-2.2-10.8c-1.4-5.8-5.4-23.8-9-40c-6.1-27.8-6.6-29.6-9.4-32.1c-3.2-2.7-10.1-5.2-19.4-6.8
	C446.5,91.2,412.8,91.5,401.9,93.2z"/>
<linearGradient id="region-1-2_00000040536190115265026500000002622332081598971583_" gradientUnits="userSpaceOnUse" x1="-168.7008" y1="750.5385" x2="-167.3186" y2="750.0359" gradientTransform="matrix(341.614 0 0 440.7425 57854.7656 -330294.8125)">
	<stop  offset="0" style="stop-color:#A02656;stop-opacity:0.998"/>
	<stop  offset="1" style="stop-color:#FF7C00;stop-opacity:0.998"/>
</linearGradient>
<path id="region-1-2" style="fill:url(#region-1-2_00000040536190115265026500000002622332081598971583_);" d="M352,180.3
	c-2,3.3-28,115.7-44,189.8c-2.5,11.5-10.9,50.7-18.6,87c-7.8,36.3-17.9,83.2-22.5,104.2c-4.7,21-8.5,38.7-8.5,39.2
	c0,2.5,68.4,13.9,106,17.7c21.9,2.1,80.1,3,102.5,1.5c48.8-3.3,81.7-11.8,118.7-30.8c10.2-5.2,14.7-8,14.4-8.9
	c-2.6-6.7-44.2-154.5-54-191.4c-11.4-43.4-41.1-164.1-50.1-203.5c-0.4-2-1.3-2-43.2-2.1c-23.5,0-50.9-0.6-60.8-1.2
	C355.8,179.4,352.6,179.3,352,180.3z"/>
<linearGradient id="region-1-3_00000119828651975191113050000018250294233237282714_" gradientUnits="userSpaceOnUse" x1="-168.6338" y1="750.6799" x2="-167.6975" y2="749.5405" gradientTransform="matrix(425.7732 0 0 230.1024 72042.6641 -171912.4219)">
	<stop  offset="0" style="stop-color:#911455;stop-opacity:0.987"/>
	<stop  offset="1" style="stop-color:#DB571D;stop-opacity:0.992"/>
</linearGradient>
<path id="region-1-3" style="fill:url(#region-1-3_00000119828651975191113050000018250294233237282714_);" d="M585.8,588.8
	c-34.5,18.2-70,27.6-117,30.9c-18.4,1.3-66.3,1.3-85.7,0c-35.5-2.5-77.1-8.4-122.3-17.5l-3-0.7l-5.9,25.9
	c-3.3,14.2-11,46.5-17.3,71.7c-6.2,25.3-11.3,47.4-11.3,49.1c0,28.2,45.5,50.1,124.5,59.9c28.3,3.5,40.3,4.1,87,4.1
	c37.6,0,50.5-0.4,64.5-1.8c36.5-3.7,63.4-8.4,86.9-15.2c12.3-3.5,29.1-9.9,30-11.4c0.3-0.4,3.3-2.2,6.7-3.9
	c6.9-3.5,14.8-9.1,18.2-13c1.3-1.5,3.7-5.6,5.4-9.2c4.6-9.8,4.2-12-11-60.5c-7.2-23.1-18-58.4-24.1-78.5c-6-20-11.3-36.5-11.8-36.6
	C599.2,582,593,585,585.8,588.8z"/>
<linearGradient id="region-1-4_00000168074479790662544880000008567033518183676545_" gradientUnits="userSpaceOnUse" x1="-168.3188" y1="749.538" x2="-168.3098" y2="750.6461" gradientTransform="matrix(746.5781 0 0 179.8202 126086.7031 -134053.1406)">
	<stop  offset="0" style="stop-color:#FE7E26;stop-opacity:0.997"/>
	<stop  offset="1" style="stop-color:#FF7E26;stop-opacity:0.999"/>
</linearGradient>
<path id="region-1-4" style="fill:url(#region-1-4_00000168074479790662544880000008567033518183676545_);" d="M647.5,735.8
	c2.7,8.8,2.5,14.7-1,22.2c-1.6,3.4-4,7.4-5.3,8.9c-3.4,3.9-11.3,9.5-18.2,13c-3.4,1.7-6.4,3.5-6.7,3.9c-0.9,1.5-17.7,7.9-30,11.4
	c-23.5,6.8-50.4,11.5-86.9,15.2c-22.2,2.2-103.3,2.6-125.5,0.5c-31.1-2.9-54.2-6.4-76-11.7c-42-10.1-67.8-25.2-73-42.7
	c-1.9-6.4-1.9-9.6,0-17.7c0.9-3.5,1.4-6.6,1.2-6.8c-0.4-0.4-23.9,3.4-111.2,17.7c-26.9,4.4-52.3,8.5-56.2,9.1l-7.3,1.1l0.1,3.7
	c0.1,2,0.6,6.5,1.3,10.1l1.1,6.4l14.5,4.4c60.1,18,116,35.9,269,86.4c79.6,26.3,117.2,38.3,121,38.6c5.3,0.3,11.1-1.9,171-66.3
	c91-36.7,165.9-67.1,166.4-67.6c0.5-0.4,1.3-3.6,1.8-7c0.6-4.7,0.5-6.5-0.4-7.1c-3.5-2.1-143.5-31.8-150.1-31.8
	C645.8,729.7,645.8,730.5,647.5,735.8z"/>
<g id="layer-2">
	
		<linearGradient id="region-2-1_00000016050805379677978000000016493127518920302497_" gradientUnits="userSpaceOnUse" x1="-168.3905" y1="749.9614" x2="-167.3026" y2="749.6286" gradientTransform="matrix(193.943 0 0 112.3456 32967.1211 -83997.0625)">
		<stop  offset="0" style="stop-color:#9DACCE;stop-opacity:0.719"/>
		<stop  offset="1" style="stop-color:#D9E8FF;stop-opacity:0.829"/>
	</linearGradient>
	<path id="region-2-1" style="fill:url(#region-2-1_00000016050805379677978000000016493127518920302497_);" d="M352,180.3
		c-1,1.7-12.6,49.4-24.1,99.3c-0.9,4.1-1.1,6.7-0.5,7.1c1,0.6,15.5,1.8,49.9,4.1c20.3,1.4,115,1.7,132.1,0.5l11.6-0.9l-2.3-9.6
		c-8.6-36-22.5-94-22.9-95.7c-0.4-2-1.3-2-43.2-2.1c-23.5,0-50.9-0.6-60.8-1.2C355.8,179.4,352.6,179.3,352,180.3z"/>
	
		<linearGradient id="region-2-2_00000118384802467652746510000002063660022740593847_" gradientUnits="userSpaceOnUse" x1="-168.703" y1="750.1116" x2="-167.6479" y2="749.8245" gradientTransform="matrix(341.5421 0 0 160.6133 57842.6211 -119917.7422)">
		<stop  offset="0" style="stop-color:#6C78A3;stop-opacity:0.765"/>
		<stop  offset="1" style="stop-color:#D1DCF7;stop-opacity:0.818"/>
	</linearGradient>
	<path id="region-2-2" style="fill:url(#region-2-2_00000118384802467652746510000002063660022740593847_);" d="M288.5,462.9
		c-0.5,1.8-5.3,23.3-10.6,47.8c-5.3,24.5-11.8,54.4-14.5,66.6c-2.8,12.1-5,22.5-5,23.1c0,1.3,3.5,2.1,29.4,6.9
		c49.8,9.1,82.1,12.4,127.6,13.1c79.4,1.2,121.7-6.6,170.2-31.4c10.9-5.5,14.8-8,14.3-9c-0.3-0.8-6.2-21.4-13.1-45.6
		c-12.5-44.2-19.2-66.8-19.7-67.4c-0.2-0.1-5.5,0.6-11.8,1.7c-65.3,11-134.4,11.5-205.4,1.4c-14.7-2.1-45.7-7.5-57.6-10
		C289.9,459.5,289.5,459.9,288.5,462.9z"/>
	
		<linearGradient id="region-2-3_00000162350541012117084780000005171328151565451927_" gradientUnits="userSpaceOnUse" x1="-168.3175" y1="749.4399" x2="-168.3121" y2="750.5378" gradientTransform="matrix(746.6773 0 0 147.8202 126103.5312 -110021.1328)">
		<stop  offset="0" style="stop-color:#760057;stop-opacity:0.779"/>
		<stop  offset="1" style="stop-color:#7A0356;stop-opacity:0.802"/>
	</linearGradient>
	<path id="region-2-3" style="fill:url(#region-2-3_00000162350541012117084780000005171328151565451927_);" d="M51.4,764.3
		c0.1,1.6,0.6,5.7,1.3,9.3l1.1,6.4l14.5,4.4c60.1,18,116,35.9,269,86.4c79.6,26.3,117.2,38.3,121,38.6c5.3,0.3,11.1-1.9,171-66.3
		c91-36.7,165.9-67.1,166.4-67.6c1-0.9,2.9-12.9,2.2-13.6c-0.4-0.4-330.4,125.6-335.8,128.2c-2.5,1.2-4.9,0.8-24.5-4.6
		C362.4,865,223.9,820.7,83,772.2c-16.9-5.8-31-10.6-31.2-10.6C51.5,761.7,51.3,762.8,51.4,764.3z"/>
</g>
<g id="layer-3">
	
		<linearGradient id="region-3-1_00000178916897387242112840000008752313869297689488_" gradientUnits="userSpaceOnUse" x1="-167.9032" y1="749.8817" x2="-167.9032" y2="750.8817" gradientTransform="matrix(228.3757 0 0 696.4473 38879.8906 -522154.25)">
		<stop  offset="0" style="stop-color:#FFFFDC;stop-opacity:0.473"/>
		<stop  offset="1" style="stop-color:#FFFFD1;stop-opacity:0.153"/>
	</linearGradient>
	<path id="region-3-1" style="fill:url(#region-3-1_00000178916897387242112840000008752313869297689488_);" d="M427.6,99.4
		c-3.4,0.4-6.5,1-6.8,1.4c-0.4,0.4,0.4,8.3,1.9,17.5c4.1,27.2,8,57.4,17.1,134.8c21,179.1,22.6,188,51.1,284.5
		c21.3,72.1,79.7,254.5,82.4,257.4c1.8,1.9,31.8-6.9,45.7-13.4c15.3-7.1,22.9-13.7,27.5-23.9c4.6-9.9,4.2-12.2-11-60.6
		C606,602.3,566.8,467.5,546,388.6c-19-71.8-53.5-215.6-65.1-270.5c-1.6-7.2-3.3-13.5-3.9-14.2C473.5,100.2,444.9,97.6,427.6,99.4z"
		/>
</g>
<g id="layer-4">
	
		<linearGradient id="region-4-1_00000121238520131022469210000006739892519188903356_" gradientUnits="userSpaceOnUse" x1="-164.1868" y1="742.1618" x2="-164.1057" y2="743.4948" gradientTransform="matrix(31.4756 0 0 10.5452 5617.4116 -7720.9141)">
		<stop  offset="0" style="stop-color:#FBFFFF;stop-opacity:0.813"/>
		<stop  offset="1" style="stop-color:#FBFFFF;stop-opacity:0.813"/>
	</linearGradient>
	<path id="region-4-1" style="fill:url(#region-4-1_00000121238520131022469210000006739892519188903356_);" d="M434.5,107.2
		c0.5,2.7,10.1,7.2,17.8,8.5c7.4,1.2,12.6-0.1,13.4-3.2c1.1-4.2-1.4-4.9-22.7-6.5C434.6,105.3,434.1,105.4,434.5,107.2z"/>
</g>
<rect x="410.4" y="138" class="st13" width="238.6" height="682"/>
<g>
	<line class="st14" x1="927.8" y1="423.6" x2="665" y2="423.6"/>
	<polygon class="st15" points="955,423.6 916.6,449 925.7,423.6 916.6,398.3 	"/>
</g>
<linearGradient id="region-1-3_00000059282167425741063420000012401505364385976985_" gradientUnits="userSpaceOnUse" x1="-167.002" y1="750.7778" x2="-166.0657" y2="749.6384" gradientTransform="matrix(425.7732 0 0 230.1024 72042.6641 -171912.4219)">
	<stop  offset="0" style="stop-color:#911455;stop-opacity:0.987"/>
	<stop  offset="1" style="stop-color:#DB571D;stop-opacity:0.992"/>
</linearGradient>
<path id="region-1-3_00000039092826145055716890000015891180787359181231_" style="fill:url(#region-1-3_00000059282167425741063420000012401505364385976985_);" d="
	M1280.6,611.3c-34.5,18.2-70,27.6-117,30.9c-18.4,1.3-66.3,1.3-85.7,0c-35.5-2.5-77.1-8.4-122.3-17.5l-3-0.7l-5.9,25.9
	c-3.3,14.2-11,46.5-17.3,71.7c-6.2,25.3-11.3,47.4-11.3,49.1c0,28.2,45.5,50.1,124.5,59.9c28.3,3.5,40.3,4.1,87,4.1
	c37.6,0,50.5-0.4,64.5-1.8c36.5-3.7,63.4-8.4,86.9-15.2c12.3-3.5,29.1-9.9,30-11.4c0.3-0.4,3.3-2.2,6.7-3.9
	c6.9-3.5,14.8-9.1,18.2-13c1.3-1.5,3.7-5.6,5.4-9.2c4.6-9.8,4.2-12-11-60.5c-7.2-23.1-18-58.4-24.1-78.5c-6-20-11.3-36.5-11.8-36.6
	C1294,604.5,1287.8,607.5,1280.6,611.3z"/>
<linearGradient id="region-1-1_00000062155340239912990410000011852042398740173204_" gradientUnits="userSpaceOnUse" x1="-163.1758" y1="749.601" x2="-162.1576" y2="749.6372" gradientTransform="matrix(142.4377 0 0 91.5853 24288.1523 -68514.8438)">
	<stop  offset="0" style="stop-color:#DE582A;stop-opacity:0.996"/>
	<stop  offset="1" style="stop-color:#DF5F1A;stop-opacity:0.998"/>
</linearGradient>
<path id="region-1-1_00000024715129152985111170000006477418325609654149_" style="fill:url(#region-1-1_00000062155340239912990410000011852042398740173204_);" d="
	M1097.5,95.3c-15.6,2.4-26.1,6.3-28.9,10.7c-1.8,2.7-21.3,74.5-20.4,75.1c0.6,0.6,37.1,2.6,64.8,3.7c24,1,76.5,0.7,77.6-0.3
	c0.1-0.2-0.8-5.1-2.2-10.8c-1.4-5.8-5.4-23.8-9-40c-6.1-27.8-6.6-29.6-9.4-32.1c-3.2-2.7-10.1-5.2-19.4-6.8
	C1142.2,93.3,1108.4,93.6,1097.5,95.3z"/>
<linearGradient id="region-1-2_00000135663114490914893330000004214383196898505876_" gradientUnits="userSpaceOnUse" x1="-166.6663" y1="750.5703" x2="-165.2841" y2="750.0677" gradientTransform="matrix(341.614 0 0 440.7425 57854.7656 -330294.8125)">
	<stop  offset="0" style="stop-color:#A02656;stop-opacity:0.998"/>
	<stop  offset="1" style="stop-color:#FF7C00;stop-opacity:0.998"/>
</linearGradient>
<path id="region-1-2_00000181778935992520400270000006322619810253624714_" style="fill:url(#region-1-2_00000135663114490914893330000004214383196898505876_);" d="
	M1047.1,194.3c-2,3.3-28.1,115.6-44.1,189.8c-2.5,11.5-10.9,50.7-18.6,87c-7.8,36.3-17.9,83.2-22.5,104.2c-4.7,21-8.5,38.7-8.5,39.2
	c0,2.5,68.4,13.9,106,17.7c21.9,2.1,80.1,3,102.5,1.5c48.8-3.3,81.7-11.8,118.7-30.8c10.2-5.2,14.7-8,14.4-8.9
	c-2.6-6.7-44.2-154.5-54-191.4c-11.4-43.4-41.1-164.1-50.1-203.5c-0.4-2-1.3-2-43.2-2.1c-23.5,0-50.9-0.6-60.8-1.2
	C1050.8,193.4,1047.7,193.3,1047.1,194.3z"/>
<linearGradient id="region-2-1_00000119109020436559104520000014415670248985416601_" gradientUnits="userSpaceOnUse" x1="-162.7443" y1="750.0684" x2="-161.6564" y2="749.7355" gradientTransform="matrix(193.943 0 0 112.3456 32967.1211 -83997.0625)">
	<stop  offset="0" style="stop-color:#9DACCE;stop-opacity:0.719"/>
	<stop  offset="1" style="stop-color:#D9E8FF;stop-opacity:0.829"/>
</linearGradient>
<path id="region-2-1_00000041268321477649165850000003105043664265602485_" style="fill:url(#region-2-1_00000119109020436559104520000014415670248985416601_);" d="
	M1447.1,192.3c-1,1.7-12.6,49.4-24.1,99.3c-0.9,4.1-1.1,6.7-0.5,7.1c1,0.6,15.5,1.8,49.9,4.1c20.3,1.4,115,1.7,132.1,0.5l11.6-0.9
	l-2.3-9.6c-8.6-36-22.5-94-22.9-95.7c-0.4-2-1.3-2-43.2-2.1c-23.5,0-50.9-0.6-60.8-1.2C1450.8,191.4,1447.7,191.3,1447.1,192.3z"/>
<linearGradient id="region-2-2_00000104700092448946770890000008856172670446245795_" gradientUnits="userSpaceOnUse" x1="-165.4911" y1="750.1177" x2="-164.436" y2="749.8306" gradientTransform="matrix(341.5421 0 0 160.6133 57842.6211 -119917.7422)">
	<stop  offset="0" style="stop-color:#6C78A3;stop-opacity:0.765"/>
	<stop  offset="1" style="stop-color:#D1DCF7;stop-opacity:0.818"/>
</linearGradient>
<path id="region-2-2_00000047049405736727737600000015871645151891711922_" style="fill:url(#region-2-2_00000104700092448946770890000008856172670446245795_);" d="
	M1385.4,463.9c-0.5,1.8-5.3,23.3-10.6,47.8c-5.3,24.5-11.8,54.4-14.5,66.6c-2.8,12.1-5,22.5-5,23.1c0,1.3,3.5,2.1,29.4,6.9
	c49.8,9.1,82.1,12.4,127.6,13.1c79.4,1.2,121.7-6.6,170.2-31.4c10.9-5.5,14.8-8,14.3-9c-0.3-0.8-6.2-21.4-13.1-45.6
	c-12.5-44.2-19.2-66.8-19.7-67.4c-0.2-0.1-5.5,0.6-11.8,1.7c-65.3,11-134.4,11.5-205.4,1.4c-14.7-2.1-45.7-7.5-57.6-10
	C1386.8,460.5,1386.4,460.9,1385.4,463.9z"/>
<linearGradient id="region-3-1_00000115492999983448444800000011178501802593511564_" gradientUnits="userSpaceOnUse" x1="-162.1053" y1="749.9003" x2="-162.1053" y2="750.9003" gradientTransform="matrix(228.3757 0 0 696.4473 38879.8906 -522154.25)">
	<stop  offset="0" style="stop-color:#FFFFDC;stop-opacity:0.473"/>
	<stop  offset="1" style="stop-color:#FFFFD1;stop-opacity:0.153"/>
</linearGradient>
<path id="region-3-1_00000119809169572003657830000006009911241076952507_" style="fill:url(#region-3-1_00000115492999983448444800000011178501802593511564_);stroke:#000000;stroke-miterlimit:10;" d="
	M1751.7,112.4c-3.4,0.4-6.5,1-6.8,1.4c-0.4,0.4,0.4,8.3,1.9,17.5c4.1,27.2,8,57.4,17.1,134.8c21,179.1,22.6,188,51.1,284.5
	c21.3,72.1,79.7,254.5,82.4,257.4c1.8,1.9,31.8-6.9,45.7-13.4c15.3-7.1,22.9-13.7,27.5-23.9c4.6-9.9,4.2-12.2-11-60.6
	c-29.6-94.8-68.8-229.7-89.6-308.5c-18.9-71.9-53.5-215.6-65.1-270.5c-1.6-7.2-3.3-13.5-3.9-14.2
	C1797.6,113.2,1768.8,110.6,1751.7,112.4z"/>
<linearGradient id="region-4-1_00000026143156900788105080000014873460447570365367_" gradientUnits="userSpaceOnUse" x1="-127.749" y1="742.162" x2="-127.6678" y2="743.4949" gradientTransform="matrix(31.4756 0 0 10.5452 5617.4116 -7720.9141)">
	<stop  offset="0" style="stop-color:#FBFFFF;stop-opacity:0.813"/>
	<stop  offset="1" style="stop-color:#FBFFFF;stop-opacity:0.813"/>
</linearGradient>
<path id="region-4-1_00000123432650499688819600000003070214944382181539_" style="fill:url(#region-4-1_00000026143156900788105080000014873460447570365367_);" d="
	M1581.4,107.2c0.5,2.7,10.1,7.2,17.8,8.5c7.4,1.2,12.6-0.1,13.4-3.2c1.1-4.2-1.4-4.9-22.7-6.5
	C1581.7,105.3,1581.2,105.4,1581.4,107.2z"/>
</svg>
