<?xml version="1.0" encoding="utf-8"?>
<!-- Generator: Adobe Illustrator 26.5.0, SVG Export Plug-In . SVG Version: 6.00 Build 0)  -->
<svg version="1.1" id="图层_1" xmlns="http://www.w3.org/2000/svg" xmlns:xlink="http://www.w3.org/1999/xlink" x="0px" y="0px"
	 viewBox="0 0 1535.7 701" style="enable-background:new 0 0 1535.7 701;" xml:space="preserve">
<style type="text/css">
	.st0{fill:none;}
	.st1{fill:#D3D3D3;}
	.st2{fill:url(#SVGID_00000039123164976145888910000004817592479678741933_);}
	.st3{fill:url(#SVGID_00000017490816637655035180000002536644979684852635_);}
	.st4{fill:url(#SVGID_00000091714041908579905780000008292413934446462098_);}
	.st5{fill:url(#SVGID_00000070816150190669353940000000796167618611555205_);}
	.st6{fill:url(#SVGID_00000132799301706800055020000014642105121513967543_);}
	.st7{fill:url(#SVGID_00000170979122318823391140000011370907749664025996_);}
	.st8{fill:url(#SVGID_00000129912395713286185550000004505783052020082869_);}
	.st9{fill:url(#SVGID_00000115503442463440345930000009426458382999320463_);}
	.st10{fill:url(#SVGID_00000086683321350989963210000005827432552487362721_);}
	.st11{fill:url(#SVGID_00000070809869969324809130000010150695863298570906_);}
	.st12{fill:url(#SVGID_00000114073250557520411040000012653866327098033850_);}
	.st13{fill:url(#SVGID_00000036962541916390749760000009613576112829466024_);}
	.st14{fill:url(#SVGID_00000173857459933705619980000014806177462699285637_);}
	.st15{fill:url(#SVGID_00000044143871236328969730000005518748928574469559_);}
	.st16{fill:url(#SVGID_00000158727721278462930730000016174037150037147808_);}
	.st17{fill:url(#SVGID_00000167380775855936908070000005663014257020987310_);}
	.st18{fill:url(#SVGID_00000147929410732825020560000002201819526907671977_);}
	.st19{fill:url(#SVGID_00000132770600111933581930000013539885103024696721_);}
	.st20{fill:url(#SVGID_00000011724755609224976110000013238085063149843129_);}
	.st21{fill:url(#SVGID_00000064352773924070725200000002487434340463025591_);}
	.st22{fill:url(#SVGID_00000041264074839526108920000014778765761552174525_);}
	.st23{fill:url(#SVGID_00000120529251849553793970000015918292733303156660_);}
	.st24{fill:url(#SVGID_00000097457999994514160990000015136696941056700556_);}
	.st25{fill:url(#SVGID_00000163770440465292006620000011551523704715730313_);}
	.st26{fill:url(#SVGID_00000152236971822617390170000000621671810060157333_);}
	.st27{fill:url(#SVGID_00000163035319773580018930000003525771228900824476_);}
	.st28{fill:url(#SVGID_00000072273301373806789220000008839060233989183128_);}
	.st29{fill:url(#SVGID_00000166671818074768422470000000251270097012169630_);}
	.st30{fill:url(#SVGID_00000104683307336604107910000003362636456030601643_);}
	.st31{fill:url(#SVGID_00000178179937033075819320000009566109625382327209_);}
	.st32{fill:url(#SVGID_00000127035615853686380580000014793670177880234673_);}
	.st33{fill:url(#SVGID_00000149350730749342841090000004620134832400135835_);stroke:#000000;stroke-miterlimit:10;}
	.st34{fill:url(#SVGID_00000047058372498064508180000016394569044927944845_);stroke:#000000;stroke-miterlimit:10;}
	.st35{fill:none;stroke:#FF0000;stroke-width:4;stroke-miterlimit:10;}
	.st36{fill:none;stroke:#000000;stroke-width:3;stroke-miterlimit:10;}
	.st37{fill:url(#SVGID_00000111165286506163023680000007262490966311602610_);}
</style>
<pattern  y="701" width="40" height="40" patternUnits="userSpaceOnUse" id="SVGID_1_" viewBox="0 -40 40 40" style="overflow:visible;">
	<g>
		<rect y="-40" class="st0" width="40" height="40"/>
		<g>
			<rect y="-40" class="st0" width="40" height="40"/>
			<g>
				<rect y="-40" class="st0" width="40" height="40"/>
				<g>
					<rect y="-40" class="st0" width="40" height="40"/>
					<rect y="-40" class="st0" width="40" height="40"/>
					<rect y="-20" class="st1" width="20" height="20"/>
					<rect x="20" y="-40" class="st1" width="20" height="20"/>
				</g>
			</g>
		</g>
	</g>
</pattern>
<g id="_图层_2">
	<g id="_图层_1">
		
			<pattern  id="SVGID_00000021094602844517715500000011283746056121999746_" xlink:href="#SVGID_1_" patternTransform="matrix(1 0 0 -1 227 -33318.2422)">
		</pattern>
		<rect style="fill:url(#SVGID_00000021094602844517715500000011283746056121999746_);" width="1535.7" height="701"/>
	</g>
</g>
<linearGradient id="SVGID_00000011013447412386949440000005350882634208452737_" gradientUnits="userSpaceOnUse" x1="-1328.0123" y1="891.4297" x2="-1326.8623" y2="891.1897" gradientTransform="matrix(434 0 0 701 576323 -624457)">
	<stop  offset="0" style="stop-color:#EAE1AC"/>
	<stop  offset="1" style="stop-color:#EEE4B1"/>
</linearGradient>
<path style="fill:url(#SVGID_00000011013447412386949440000005350882634208452737_);" d="M0,350.5V701h434V0H0V350.5z"/>
<linearGradient id="SVGID_00000154387359869251770590000014159800282145485745_" gradientUnits="userSpaceOnUse" x1="-1327.6162" y1="891.712" x2="-1326.5261" y2="891.082" gradientTransform="matrix(385.77 0 0 622.53 512158.375 -554556.0625)">
	<stop  offset="0" style="stop-color:#338B36"/>
	<stop  offset="1" style="stop-color:#369039"/>
</linearGradient>
<path style="fill:url(#SVGID_00000154387359869251770590000014159800282145485745_);" d="M373.4,63.8c-12.7,11.5-47.5,21-94.4,25.7
	c-21.4,2.2-75.7,3.1-99.5,1.6C123,87.6,80.8,77.7,64.2,64.3c-2.4-2-4.4-3.4-4.6-3.2C58.5,62.6,36.8,102,33.8,108
	c-7.4,14.6-6.8-7.9-6.6,267.6l0.3,247.9l3,5.4c1.6,2.9,6,8.2,9.8,11.7c11.1,10.2,33.3,20.3,58.4,26.4c4.8,1.2,9.5,2.4,10.3,2.7
	s2.4,0.7,3.5,0.8c4.9,0.6,35.6,5.6,46.4,7.6c3,0.5,10.9,1.4,17.5,1.9c6.7,0.6,15.7,1.4,20.1,1.9c13,1.5,60,1.3,79.5-0.4
	c41.2-3.6,70.7-10.5,95.5-22.5c20.2-9.7,32.9-20.3,38.3-31.7l2.7-5.8l0.3-244c0.2-174,0-245.9-0.8-250.5
	c-1.8-10.1-4.1-15.7-14.3-33.7c-5.3-9.2-11.5-20.4-13.9-24.7c-2.4-4.4-4.7-8.1-5.3-8.2C378,60.2,375.6,61.8,373.4,63.8L373.4,63.8z"
	/>
<linearGradient id="SVGID_00000062156295366713462790000004975701751426100892_" gradientUnits="userSpaceOnUse" x1="-1305.5992" y1="897.5315" x2="-1304.5992" y2="897.5315" gradientTransform="matrix(52.4 0 0 80.72 68617.3984 -72034.1797)">
	<stop  offset="0" style="stop-color:#D44129"/>
	<stop  offset="1" style="stop-color:#D44129"/>
</linearGradient>
<path style="fill:url(#SVGID_00000062156295366713462790000004975701751426100892_);" d="M221.5,375.8
	c-10.4,4.9-17.5,19.6-17.5,36.3c0,10.1,1.4,17,5.1,24.9c9.9,21.2,29.7,24.1,40.7,6c4.9-8.1,6.6-15,6.6-26.5
	c0-12.2-2.5-21.2-8.3-30.2C241.4,375.9,230.5,371.6,221.5,375.8L221.5,375.8z"/>
<linearGradient id="SVGID_00000050628478923039007270000001386451832182521482_" gradientUnits="userSpaceOnUse" x1="-1246.1262" y1="913.3417" x2="-1245.126" y2="913.3417" gradientTransform="matrix(15.68 0 0 24.65 19764.8711 -22105.4297)">
	<stop  offset="0" style="stop-color:#A0D8E7"/>
	<stop  offset="1" style="stop-color:#A0D8E7"/>
</linearGradient>
<path style="fill:url(#SVGID_00000050628478923039007270000001386451832182521482_);" d="M226,398.5c-5.2,5.5-3.1,19.6,3.3,21.9
	c8.4,3,13-13.2,6.1-21.4C232.3,395.3,229.1,395.2,226,398.5L226,398.5z"/>
<linearGradient id="SVGID_00000111170580567260651590000017341527824479877259_" gradientUnits="userSpaceOnUse" x1="-1326.364" y1="897.966" x2="-1326.364" y2="896.966" gradientTransform="matrix(321.71 0 0 81.36 426923.4062 -72967.9688)">
	<stop  offset="0" style="stop-color:#A0A5A4"/>
	<stop  offset="1" style="stop-color:#AAABAD"/>
</linearGradient>
<path style="fill:url(#SVGID_00000111170580567260651590000017341527824479877259_);" d="M186.5,11C115.3,15.2,72.8,24.2,60.9,37.8
	c-3.1,3.5-3.1,3.6-2.7,12.8c0.4,10.2,0.2,9.8,10,16.6C84.8,78.6,128,87.9,179.5,91.1c23.8,1.5,78.1,0.6,99.5-1.6
	c28.5-2.9,50.5-7,68.8-13c12.7-4.2,19.6-7.6,26.2-13c5.3-4.4,6.1-7,5.6-17.2c-0.2-4.5-0.7-5.8-3.6-8.9
	C364.4,25.2,323.9,15.8,266.5,12C244.3,10.5,203.6,10,186.5,11z"/>
<linearGradient id="SVGID_00000142859229555921763200000010677114987705822625_" gradientUnits="userSpaceOnUse" x1="-1321.6234" y1="912.3254" x2="-1321.5935" y2="914.2854" gradientTransform="matrix(149.87 0 0 25.67 198248.4062 -23383.0996)">
	<stop  offset="0" style="stop-color:#CACBCD"/>
	<stop  offset="1" style="stop-color:#FFFFFF"/>
</linearGradient>
<path style="fill:url(#SVGID_00000142859229555921763200000010677114987705822625_);" d="M173,28c-6.3,0.4-19.1,0.8-28.3,0.9
	c-12.1,0.1-17.7,0.5-20.2,1.6c-1.9,0.7-6.3,1.7-9.8,2.1c-5.1,0.6-10.7,2.3-12.6,4c-1.2,1,6.3,6.1,12.4,8.5
	c16.8,6.5,35.2,8.3,80.9,7.6c36.5-0.5,43.5-1.3,51.9-5.9c3.3-1.8,4.3-3,4.5-5.3c0.5-4.8-3.4-9.5-9.8-12.1c-5.3-2.2-6.6-2.3-31.5-2.2
	C196.2,27.3,179.3,27.7,173,28L173,28z"/>
<linearGradient id="SVGID_00000008838555473672925750000015889339981568649602_" gradientUnits="userSpaceOnUse" x1="-1322.7839" y1="891.985" x2="-1321.7839" y2="891.985" gradientTransform="matrix(162 0 0 381.9 214536 -340277)">
	<stop  offset="0" style="stop-color:#7293BD"/>
	<stop  offset="1" style="stop-color:#7293BD"/>
</linearGradient>
<path style="fill:url(#SVGID_00000008838555473672925750000015889339981568649602_);" d="M403.5,182.2c-16.9,5.6-29.5,15-41.5,30.9
	c-11.3,15.1-19.1,30.7-29,57.9c-9.6,26.4-18.9,43.4-28.2,51.5c-11.4,9.9-25.9,12.7-45.3,8.6c-5.5-1.2-11-2.4-12.2-2.7l-2.3-0.6v26.8
	l0.1,26.9l3.5,5.5c11.1,17.4,10.6,44.3-1.1,59.6l-2.5,3.3v56.5c0,31.1,0.3,56.6,0.7,56.6c1.2,0,9.8-5.4,15.3-9.6
	c3-2.3,8.7-7.5,12.6-11.5c12.7-13.3,20.1-24.6,39.9-61c18.6-34.2,23.6-41.8,34-52.4c11.2-11.3,17.1-14.6,27-15.3
	c5.8-0.4,8.1,0,11.8,1.6c6.8,3,11.5,6.9,16.4,13.6l4.3,5.8V307.6c0-69.6-0.1-126.6-0.2-126.5C406.6,181.1,405.2,181.6,403.5,182.2
	L403.5,182.2z"/>
<linearGradient id="SVGID_00000007408027873841360560000007931763958296524173_" gradientUnits="userSpaceOnUse" x1="-1303.8396" y1="896.7069" x2="-1302.8396" y2="896.7069" gradientTransform="matrix(49 0 0 91.07 64222 -81304.6328)">
	<stop  offset="0" style="stop-color:#A53421"/>
	<stop  offset="1" style="stop-color:#A53421"/>
</linearGradient>
<path style="fill:url(#SVGID_00000007408027873841360560000007931763958296524173_);" d="M346.2,315c-6.2,3.8-12.2,15.7-12.2,24.5
	c0,10.1,7.8,11.6,11.8,2.3c0.6-1.5,2.3-3.5,3.7-4.4c2.5-1.6,2.7-1.6,5.3,0.3c3.5,2.6,5.1,6,5.9,12.3l0.6,5l-3.2-1.6
	c-6.5-3.2-13.7-0.1-18,7.6c-2.1,3.7-2.5,6.1-2.9,14.9c-0.5,12,0.6,17.6,4.4,22.1c3.7,4.3,7.5,6,13.7,6s9.5-2,12.2-7.6l1.8-3.8l1.4,3
	c2.9,5.6,6.8,6.9,10.3,3.4c1.5-1.5,2-3.3,2-7.8c0-5.9-0.9-8.1-5.6-13.2c-3.3-3.7-5.2-11.6-6.9-29.6c-1.8-19.8-4.1-28-9-32.3
	C357.2,312.3,351.3,311.9,346.2,315L346.2,315z"/>
<linearGradient id="SVGID_00000098214202665017891240000014805887100506889398_" gradientUnits="userSpaceOnUse" x1="-1233.0493" y1="920.4708" x2="-1232.0496" y2="920.4708" gradientTransform="matrix(13.59 0 0 18.99 17101.6406 -17103.4199)">
	<stop  offset="0" style="stop-color:#7994BA"/>
	<stop  offset="1" style="stop-color:#7994BA"/>
</linearGradient>
<path style="fill:url(#SVGID_00000098214202665017891240000014805887100506889398_);" d="M349,370.2c-3.6,5.9-1.6,14.1,3.7,15.4
	c5,1.3,8.6-3.4,8-10.4C359.8,366.9,352.8,363.9,349,370.2z"/>
<linearGradient id="SVGID_00000116196816356594251280000016465659821056570524_" gradientUnits="userSpaceOnUse" x1="-1318.6923" y1="893.6022" x2="-1317.692" y2="893.6022" gradientTransform="matrix(108.12 0 0 183.76 142678.2031 -163768.375)">
	<stop  offset="0" style="stop-color:#D44129"/>
	<stop  offset="1" style="stop-color:#D44129"/>
</linearGradient>
<path style="fill:url(#SVGID_00000116196816356594251280000016465659821056570524_);" d="M134.9,349.5c-7.3,2.7-11.8,5.6-16.2,10.5
	c-6.1,6.8-8.9,14.2-9.5,25.3c-0.4,8.3-0.3,9.1,2.7,15.2c5.1,10.4,13.1,16.4,31.5,23.9c12.7,5.2,18.7,8.7,24.7,14.3
	c18.2,17.1,16.7,51-2.8,60.4c-9.3,4.5-22.6,2-28.8-5.3c-5.7-6.7-5.4-14.6,0.9-27.8c3.9-8.2,4.4-11.6,2.1-16
	c-4.7-9.2-22.6-8.4-29.8,1.2s-9.7,21-7.7,32.8c2.2,12.8,11.4,28.5,21.3,35.9c22,16.7,50.2,15.8,67.9-2.1c18.4-18.7,24-58.3,11.8-83
	c-4.2-8.5-8.2-13.9-14.5-19.7c-7.2-6.5-12.3-9.5-23.6-13.7c-14.1-5.2-20.5-10.9-21.6-19.2c-0.6-4.7,0.9-8,4.1-8.8
	c3.4-0.8,6.2,1,6.9,4.6c1,4.7,4.9,8,9.4,8c7.3,0,11.3-5.2,11.3-14.5c0-9.9-4.4-16.8-13.5-21.1c-4.1-2-6.5-2.4-14-2.3
	C142.6,348.1,136.9,348.7,134.9,349.5L134.9,349.5z"/>
<linearGradient id="SVGID_00000152258270286230164430000001098402845843496589_" gradientUnits="userSpaceOnUse" x1="-1310.1331" y1="894.8656" x2="-1311.0231" y2="895.5656" gradientTransform="matrix(66.98 0 0 122.85 88084.7812 -109576.8125)">
	<stop  offset="0" style="stop-color:#A53420"/>
	<stop  offset="1" style="stop-color:#A53521"/>
</linearGradient>
<path style="fill:url(#SVGID_00000152258270286230164430000001098402845843496589_);" d="M307.4,326.1c-1.7,1.9-1.9,3.7-1.9,17.8
	c0,8.6,0.3,17.7,0.7,20.4l0.8,4.7l-4-2c-21.1-10.7-44.3,20.6-37.9,51.2c2.3,11.1,10.2,23.9,17,27.4c1.6,0.8,5,1.4,7.7,1.4
	c8.3,0,16.6-6.8,21.4-17.7l2-4.6l1.9,3c2.1,3.3,6.6,5.7,9.5,5.1c3.4-0.6,6.4-6.6,6.4-12.8c0-14.9-9.1-86.5-11.7-91.8
	c-1.6-3.3-2.3-3.7-5.9-4C310.3,324,308.9,324.4,307.4,326.1z"/>
<linearGradient id="SVGID_00000046297324170080168020000013259810013435855807_" gradientUnits="userSpaceOnUse" x1="-1278.351" y1="906.5703" x2="-1277.3508" y2="906.5703" gradientTransform="matrix(25.28 0 0 35.11 32598.9297 -31423.1309)">
	<stop  offset="0" style="stop-color:#7392BC"/>
	<stop  offset="1" style="stop-color:#7392BC"/>
</linearGradient>
<path style="fill:url(#SVGID_00000046297324170080168020000013259810013435855807_);" d="M285,391.6c-4.6,3.9-6.2,7.9-6.2,15
	c0,16.7,15.5,23.9,23,10.6c2.7-4.8,3.1-15.6,0.7-20.1c-2.3-4.5-7.2-8.1-11-8.1C289.3,389,287,389.9,285,391.6z"/>
<linearGradient id="SVGID_00000108997720981055282800000009705318991571028136_" gradientUnits="userSpaceOnUse" x1="-1325.8784" y1="911.9684" x2="-1325.8784" y2="913.4684" gradientTransform="matrix(288 0 0 26 382084 -23581.9297)">
	<stop  offset="0" style="stop-color:#73B796"/>
	<stop  offset="1" style="stop-color:#8AC4BB"/>
</linearGradient>
<path style="fill:url(#SVGID_00000108997720981055282800000009705318991571028136_);" d="M363,131.6c-18.1,5.9-44.7,11.1-75.5,14.6
	c-17.6,2.1-90.5,1.7-112.5-0.5c-22.4-2.3-54.4-6.9-73.2-10.5c-8.2-1.6-14.8-2.5-14.8-2.1c0,1,3.6,2,25,6.9
	c44.2,10,80.7,14.2,122.5,14.2c36.3,0,66.8-3.2,95.6-10.3c21.5-5.2,44.9-13,44.9-15C375,127.7,375.1,127.7,363,131.6L363,131.6z"/>
<linearGradient id="SVGID_00000038403787798859962870000005779163410064239529_" gradientUnits="userSpaceOnUse" x1="-1324.205" y1="892.6913" x2="-1323.205" y2="892.6913" gradientTransform="matrix(196 0 0 257.73 259594 -229629.2969)">
	<stop  offset="0" style="stop-color:#9BD8E8"/>
	<stop  offset="1" style="stop-color:#9BD8E8"/>
</linearGradient>
<path style="fill:url(#SVGID_00000038403787798859962870000005779163410064239529_);" d="M171,316.5c-29.4,6-54.6,26.6-77.4,63.4
	c-14.6,23.7-27.8,56.5-40,99.8L49,495.8v34.3c0,18.9,0.4,33.9,0.8,33.3c0.5-0.5,1.9-3.6,3.2-6.9c7-18,17-34.5,26-42.8
	c12.8-11.9,24.9-11.3,37.4,1.7c2.8,3,5.6,5.5,6.1,5.7c0.6,0.2,5.1,5.1,10.1,10.9c21.5,24.7,36.4,35.4,55.2,39.6
	c14.2,3.2,39.3,0.3,52.2-5.9l4.5-2.2l0.3-56.7L245,450l-4.6,2.5c-11.7,6.2-24,0.1-31.3-15.5c-10.8-23.1-3.8-55,13.5-61.6
	c5.7-2.2,11.2-1.4,17.5,2.5l4.9,3v-53.4l-15.5-4.8c-8.4-2.7-18.9-5.5-23.2-6.2C196.6,314.7,179.6,314.8,171,316.5L171,316.5z
	 M161.5,350.4c9.1,4.3,13.5,11.2,13.5,21.1c0,9.3-4,14.5-11.3,14.5c-4.5,0-8.4-3.3-9.4-8c-0.7-3.6-3.5-5.4-6.9-4.6
	c-3.2,0.8-4.7,4.1-4.1,8.8c1.1,8.3,7.5,14,21.6,19.2c11.3,4.2,16.4,7.2,23.6,13.7c15.9,14.6,23.1,35.6,20.4,59.4
	c-3.6,32.5-19.1,52.6-43.7,56.7c-18.5,3.1-40.1-5.6-51.2-20.7c-15-20.4-16.7-42.8-4.3-59.3c7.2-9.6,25.1-10.4,29.8-1.2
	c2.3,4.4,1.8,7.8-2.1,16c-6.3,13.2-6.6,21.1-0.9,27.8c6.2,7.3,19.5,9.8,28.8,5.3c19.5-9.4,21-43.3,2.8-60.4c-6-5.6-12-9.1-24.7-14.3
	c-18.4-7.5-26.4-13.5-31.5-23.9c-3-6.1-3.1-6.9-2.7-15.2c0.6-11.1,3.4-18.5,9.5-25.3c7.5-8.4,15.9-11.8,28.8-11.9
	C155,348,157.4,348.4,161.5,350.4L161.5,350.4z"/>
<linearGradient id="SVGID_00000160165697742273756320000016301122117732304295_" gradientUnits="userSpaceOnUse" x1="-1326.5547" y1="901.608" x2="-1326.5547" y2="902.588" gradientTransform="matrix(336.59 0 0 48.85 446729.4375 -43392.6211)">
	<stop  offset="0" style="stop-color:#76847C"/>
	<stop  offset="1" style="stop-color:#A9ABAD"/>
</linearGradient>
<path style="fill:url(#SVGID_00000160165697742273756320000016301122117732304295_);" d="M386,651.2
	c-34.2,21.4-85.3,31.9-154.5,31.7c-14.8,0-30.6-0.5-35-1s-13.4-1.3-20.1-1.9c-6.6-0.5-14.5-1.4-17.5-1.9c-10.8-2-41.5-7-46.4-7.6
	c-1.1-0.1-2.7-0.5-3.5-0.8s-5.5-1.5-10.3-2.7c-12-2.9-25.7-7.5-34.6-11.6c-4.1-1.9-7.6-3.2-7.9-2.9c-0.9,0.9,6.4,11.8,10.1,15
	c4.2,3.6,14.8,8.3,27.2,12.1c17.7,5.4,21.4,6.3,30.5,8.3c32.5,6.8,55.9,8.5,109.4,7.8c35-0.4,44.6-0.9,57.1-2.6
	c27.8-3.8,53.8-9.8,70.5-16.3c16.5-6.5,22-10.9,28.4-23.1c2-3.7,3.5-6.7,3.3-6.7C392.6,647.1,389.6,648.9,386,651.2L386,651.2z"/>
<linearGradient id="SVGID_00000023249359398991020820000006067813455745494185_" gradientUnits="userSpaceOnUse" x1="-1325.2445" y1="923.78" x2="-1324.2445" y2="923.78" gradientTransform="matrix(231.39 0 0 16.93 306760.0312 -14955.0596)">
	<stop  offset="0" style="stop-color:#F8FEFE;stop-opacity:0.63"/>
	<stop  offset="1" style="stop-color:#F8FEFE;stop-opacity:0.63"/>
</linearGradient>
<path style="fill:url(#SVGID_00000023249359398991020820000006067813455745494185_);" d="M111.6,677.6c-1.4,3.6-0.5,4.1,12.2,6.7
	c31.7,6.7,55,8.7,98.8,8.7c27.7,0,39.1-0.4,54.5-2c27.7-2.8,65.4-10.1,65.4-12.6c0-1.9-8.6-1.4-23,1.5c-26.3,5.2-48.3,7.1-82.1,7.1
	c-41.5,0-95.7-4.5-115.5-9.6C114.6,675.6,112.4,675.6,111.6,677.6L111.6,677.6z"/>
<linearGradient id="SVGID_00000130627345918980417740000017630172410430139069_" gradientUnits="userSpaceOnUse" x1="-1215.0835" y1="898.8383" x2="-1214.083" y2="898.8383" gradientTransform="matrix(11.48 0 0 68 14197.3896 -60705.5)">
	<stop  offset="0" style="stop-color:#000000;stop-opacity:0.21"/>
	<stop  offset="1" style="stop-color:#000000;stop-opacity:0.21"/>
</linearGradient>
<path style="fill:url(#SVGID_00000130627345918980417740000017630172410430139069_);" d="M245.1,415.5v34l2.1-2.5
	c3.8-4.5,7.7-14.3,8.8-22c1.9-13.4-0.9-27.7-7.4-38l-3.5-5.5V415.5z"/>
<linearGradient id="SVGID_00000080891362229776346330000001800782713304176003_" gradientUnits="userSpaceOnUse" x1="-1322.5012" y1="917.0741" x2="-1321.5012" y2="917.0741" gradientTransform="matrix(156.7 0 0 21.49 207323.7031 -19564.1699)">
	<stop  offset="0" style="stop-color:#ABFFE5"/>
	<stop  offset="1" style="stop-color:#ABFFE5"/>
</linearGradient>
<path style="fill:url(#SVGID_00000080891362229776346330000001800782713304176003_);" d="M87,133.1c0,1,3.6,2,25,6.9
	c40.4,9.1,76.6,13.6,114.5,14.2l17,0.3l0.1-3.1l0.1-3.1l-26.6-0.6c-37.4-0.8-76.7-5-115.3-12.5C93.6,133.6,87,132.7,87,133.1
	L87,133.1z"/>
<linearGradient id="SVGID_00000116217857332076706380000012550906424355772544_" gradientUnits="userSpaceOnUse" x1="-1324.3798" y1="891.4929" x2="-1323.3798" y2="891.4929" gradientTransform="matrix(201 0 0 573.4 266244.6875 -510814.3125)">
	<stop  offset="0" style="stop-color:#5FFF64;stop-opacity:0.37"/>
	<stop  offset="1" style="stop-color:#5FFF64;stop-opacity:0.37"/>
</linearGradient>
<path style="fill:url(#SVGID_00000116217857332076706380000012550906424355772544_);" d="M64,97.6c-6.8,9.2-13.4,18.8-14.7,21.4
	c-5.5,11.4-5.3,2.6-5.3,254.2v232l2.4,5.3c6.5,14.2,22.3,24.2,52.2,32.9c28.7,8.3,48,11.1,74.9,11c19.3,0,21.8-0.3,30.7-2.7
	c18.3-4.9,31.9-14.5,38.1-26.7l2.7-5.5v-56.2l-4.7,2.3c-13.4,6.4-38.1,9.2-52.5,6c-18.8-4.2-33.7-14.9-55.2-39.6
	c-5-5.8-9.5-10.7-10.1-10.9c-0.5-0.2-3.3-2.7-6.1-5.7c-12.5-13-24.6-13.6-37.4-1.7c-9,8.3-19,24.8-26,42.8c-1.3,3.3-2.7,6.4-3.2,7
	C49.4,564,49,549,49,530.1v-34.3l4.6-16.1c12.2-43.3,25.4-76.1,40-99.8c17.3-27.9,36.3-46.8,56.9-56.5c12.1-5.6,19.7-7.5,34-8.1
	c15-0.7,24.9,1,44.2,7.2c7.7,2.5,14.6,4.5,15.2,4.5c0.8,0,1.1-22.5,1.1-86.3l-0.1-86.2l-17.7-0.2c-37.8-0.6-74.5-5.1-115.2-14.3
	c-21.4-4.9-25-5.9-25-6.9c0-0.4,6.6,0.5,14.8,2.1c18.9,3.7,51.2,8.3,72.2,10.3c18.9,1.9,69,3.2,69,1.9c-0.1-4.6-7.6-21-13.7-29.7
	c-5-7.1-10.9-10.7-17.7-10.7c-43.8-0.1-94.9-9.1-124.8-22c-5.1-2.2-9.5-4-9.8-4S70.9,88.5,64,97.6L64,97.6z"/>
<linearGradient id="SVGID_00000093891851279100655890000008443863043605352881_" gradientUnits="userSpaceOnUse" x1="-1326.7692" y1="907.0088" x2="-1325.7692" y2="907.0088" gradientTransform="matrix(314.83 0 0 34.52 417768.75 -31238.5605)">
	<stop  offset="0" style="stop-color:#F8FFFE;stop-opacity:0.64"/>
	<stop  offset="1" style="stop-color:#F8FFFE;stop-opacity:0.64"/>
</linearGradient>
<path style="fill:url(#SVGID_00000093891851279100655890000008443863043605352881_);" d="M373.6,55.9c-0.9,1-4.5,3.2-7.9,4.9
	c-17.3,8.5-46.5,14.7-88.6,18.9c-21.8,2.1-90.1,2.5-111.1,0.5c-50-4.6-81.7-11.6-98.5-21.7c-3.2-2-6-3.3-6.3-3s1.7,2.7,4.4,5.3
	C88.9,83.3,197.9,95.1,287.5,85c31.1-3.6,57.7-9.7,73.1-16.9c8-3.8,15.4-9.8,15.4-12.6C376,53.6,375.7,53.6,373.6,55.9z"/>
<linearGradient id="SVGID_00000152955289546846268710000002343641608111820198_" gradientUnits="userSpaceOnUse" x1="-1326.272" y1="899.3035" x2="-1326.642" y2="903.2335" gradientTransform="matrix(314.99 0 0 63.48 417983.3438 -57047.3594)">
	<stop  offset="0" style="stop-color:#FFFFFF;stop-opacity:0.55"/>
	<stop  offset="1" style="stop-color:#FFFFFF;stop-opacity:0.74"/>
</linearGradient>
<path style="fill:url(#SVGID_00000152955289546846268710000002343641608111820198_);" d="M176.5,15C118.7,18.3,70,29.1,63.1,40.4
	c-2.7,4.4-2.6,6.8,0.4,10.4c10,11.9,53.4,22.5,107.8,26.3c23.2,1.6,94.3,0.7,113.7-1.5c44.5-5,75.6-13.2,86.5-22.8
	c7.9-7,5.8-13.1-6.8-19.2c-16.5-8.1-47.5-14.2-89.2-17.6C257.8,14.5,196.1,13.9,176.5,15z M276.5,18c50.5,4.1,84.7,12.9,90.5,23.3
	c1.4,2.5,1.3,3-0.5,6.4C360.8,58.5,323.8,67.1,267,71c-19,1.3-77.3,1.3-97.5,0c-44.4-2.9-76.8-9.3-93-18.3c-3.3-1.9-6.7-4.6-7.5-6
	c-1.3-2.4-1.3-3,0-5.5c2-3.5,14.1-10.8,20.5-12.2c2.8-0.7,8.8-2,13.5-3.1c18.6-4.2,43.9-7.3,71.5-8.8
	C194.1,15.9,258.8,16.5,276.5,18z"/>
<linearGradient id="SVGID_00000049179578981023342620000001225169051305286573_" gradientUnits="userSpaceOnUse" x1="-1326.371" y1="904.3842" x2="-1325.371" y2="904.3842" gradientTransform="matrix(287.46 0 0 40.67 381353.5312 -36732.9102)">
	<stop  offset="0" style="stop-color:#F9FDFF;stop-opacity:0.61"/>
	<stop  offset="1" style="stop-color:#F9FDFF;stop-opacity:0.61"/>
</linearGradient>
<path style="fill:url(#SVGID_00000049179578981023342620000001225169051305286573_);" d="M249.9,29.5c5.1,3.8,6.6,13.6,3.1,20.6
	c-8.6,16.8-44.1,20.8-115.5,13c-8.9-1-21.5-3.9-21.5-5.1c0-0.4-2-1.5-4.4-2.4c-6.8-2.6-13.1-7.9-15-12.5c-0.9-2.3-1.7-4.1-1.9-4.1
	c-2.8,0-19.1,7.2-20.1,8.8c-0.9,1.5,8.3,5.9,17.9,8.7c10,2.9,33.1,7.1,47,8.6c5,0.5,12.8,1.4,17.5,1.9c15.2,1.7,74,2.3,98,1.1
	c38.4-2,69.5-6.1,88.3-11.6c9.4-2.7,18.7-6.9,18.7-8.5c0-1.7-12.3-6.8-22.6-9.4c-18.8-4.8-49.8-8.7-78.9-10.2
	C248,27.8,247.6,27.9,249.9,29.5z"/>
<linearGradient id="SVGID_00000174598655908164345460000003994122680667648390_" gradientUnits="userSpaceOnUse" x1="-1304.8845" y1="918.6826" x2="-1304.8445" y2="919.8625" gradientTransform="matrix(51.84 0 0 19.8 67865.1484 -18164.7891)">
	<stop  offset="0" style="stop-color:#7F7F7F;stop-opacity:0.41"/>
	<stop  offset="1" style="stop-color:#7F7F7F;stop-opacity:0.54"/>
</linearGradient>
<path style="fill:url(#SVGID_00000174598655908164345460000003994122680667648390_);" d="M206.2,29.5c-8.8,2.4-12.2,5.7-10.7,10.5
	c1.6,4.9,15.6,8.6,29.3,7.7c13-0.9,22.2-4.9,22.2-9.8c0-2.1-5.2-6.7-8.6-7.5c-1.3-0.3-2.4-1-2.4-1.5C236,27.4,212.1,28,206.2,29.5z"
	/>
<linearGradient id="SVGID_00000098913653479385666800000016668838354883689359_" gradientUnits="userSpaceOnUse" x1="-1322.0096" y1="918.5151" x2="-1321.0096" y2="918.5151" gradientTransform="matrix(147.98 0 0 20.37 195731.4062 -18657.3398)">
	<stop  offset="0" style="stop-color:#F9FEFF;stop-opacity:0.63"/>
	<stop  offset="1" style="stop-color:#F9FEFF;stop-opacity:0.63"/>
</linearGradient>
<path style="fill:url(#SVGID_00000098913653479385666800000016668838354883689359_);" d="M100,42.8c0,1.5,5.7,6,10.9,8.6
	c15.4,7.9,43.8,11.6,87.7,11.6c20.5,0,32.7-1.6,40.9-5.5c5.4-2.6,11.3-7.7,7-6.1c-9.8,3.6-29.5,5.6-56,5.6c-45,0-70.8-3.8-86.2-12.7
	C101.9,42.9,100,42.3,100,42.8z"/>
<linearGradient id="SVGID_00000130640995544507094510000006475906078200751510_" gradientUnits="userSpaceOnUse" x1="-1306.7477" y1="946.0261" x2="-1306.7076" y2="944.2861" gradientTransform="matrix(56 0 0 10.27 73328 -9670.7598)">
	<stop  offset="0" style="stop-color:#7F7F7F;stop-opacity:0.18"/>
	<stop  offset="1" style="stop-color:#7F7F7F;stop-opacity:0.34"/>
</linearGradient>
<path style="fill:url(#SVGID_00000130640995544507094510000006475906078200751510_);" d="M135.5,34.1c-7,1-12.5,2.7-12.5,3.9
	c0,1.7,8.4,4.1,17.7,5c6.3,0.7,13.1,0.7,19.8,0c9.8-0.9,18.5-3.3,18.5-5C179,34.3,151,31.9,135.5,34.1z"/>
<linearGradient id="SVGID_00000034788697779562698960000015766691603044885406_" gradientUnits="userSpaceOnUse" x1="-1308.149" y1="892.3033" x2="-1307.1488" y2="892.3033" gradientTransform="matrix(108.12 0 0 183.76 142678.2031 -163768.375)">
	<stop  offset="0" style="stop-color:#D44129"/>
	<stop  offset="1" style="stop-color:#D44129"/>
</linearGradient>
<path style="fill:url(#SVGID_00000034788697779562698960000015766691603044885406_);" d="M1274.9,110.8c-7.3,2.7-11.8,5.6-16.2,10.5
	c-6.1,6.8-8.9,14.2-9.5,25.3c-0.4,8.3-0.3,9.1,2.7,15.2c5.1,10.4,13.1,16.4,31.5,23.9c12.7,5.2,18.7,8.7,24.7,14.3
	c18.2,17.1,16.7,51-2.8,60.4c-9.3,4.5-22.6,2-28.8-5.3c-5.7-6.7-5.4-14.6,0.9-27.8c3.9-8.2,4.4-11.6,2.1-16
	c-4.7-9.2-22.6-8.4-29.8,1.2c-7.2,9.6-9.7,21-7.7,32.8c2.2,12.8,11.4,28.5,21.3,35.9c22,16.7,50.2,15.8,67.9-2.1
	c18.4-18.7,24-58.3,11.8-83c-4.2-8.5-8.2-13.9-14.5-19.7c-7.2-6.5-12.3-9.5-23.6-13.7c-14.1-5.2-20.5-10.9-21.6-19.2
	c-0.6-4.7,0.9-8,4.1-8.8c3.4-0.8,6.2,1,6.9,4.6c1,4.7,4.9,8,9.4,8c7.3,0,11.3-5.2,11.3-14.5c0-9.9-4.4-16.8-13.5-21.1
	c-4.1-2-6.5-2.4-14-2.3C1282.6,109.4,1276.9,110,1274.9,110.8L1274.9,110.8z"/>
<linearGradient id="SVGID_00000103946058496189363920000004349175726589893523_" gradientUnits="userSpaceOnUse" x1="-1283.229" y1="894.889" x2="-1282.229" y2="894.889" gradientTransform="matrix(52.4 0 0 80.72 68617.3984 -72034.1797)">
	<stop  offset="0" style="stop-color:#D44129"/>
	<stop  offset="1" style="stop-color:#D44129"/>
</linearGradient>
<path style="fill:url(#SVGID_00000103946058496189363920000004349175726589893523_);" d="M1393.7,162.5
	c-10.4,4.9-17.5,19.6-17.5,36.3c0,10.1,1.4,17,5.1,24.9c9.9,21.2,29.7,24.1,40.7,6c4.9-8.1,6.6-15,6.6-26.5
	c0-12.2-2.5-21.2-8.3-30.2C1413.6,162.6,1402.7,158.3,1393.7,162.5z"/>
<linearGradient id="SVGID_00000183950797504941100890000007933427962884101252_" gradientUnits="userSpaceOnUse" x1="-1315.9395" y1="892.0203" x2="-1314.9395" y2="892.0203" gradientTransform="matrix(162 0 0 381.9 214536 -340277)">
	<stop  offset="0" style="stop-color:#7293BD"/>
	<stop  offset="1" style="stop-color:#7293BD"/>
</linearGradient>
<path style="fill:url(#SVGID_00000183950797504941100890000007933427962884101252_);" d="M1512.3,195.7c-16.9,5.6-29.5,15-41.5,30.9
	c-11.3,15.1-19.1,30.7-29,57.9c-9.6,26.4-18.9,43.4-28.2,51.5c-11.4,9.9-25.9,12.7-45.3,8.6c-5.5-1.2-11-2.4-12.2-2.7l-2.3-0.6v26.8
	l0.1,26.9l3.5,5.5c11.1,17.4,10.6,44.3-1.1,59.6l-2.5,3.3v56.5c0,31.1,0.3,56.6,0.7,56.6c1.2,0,9.8-5.4,15.3-9.6
	c3-2.3,8.7-7.5,12.6-11.5c12.7-13.3,20.1-24.6,39.9-61c18.6-34.2,23.6-41.8,34-52.4c11.2-11.3,17.1-14.6,27-15.3
	c5.8-0.4,8.1,0,11.8,1.6c6.8,3,11.5,6.9,16.4,13.6l4.3,5.8V321.1c0-69.6-0.1-126.6-0.2-126.5C1515.4,194.6,1514,195.1,1512.3,195.7
	L1512.3,195.7z"/>
<linearGradient id="SVGID_00000126286103448774893420000005142767232161575100_" gradientUnits="userSpaceOnUse" x1="-1321.9948" y1="908.6193" x2="-1321.9948" y2="910.1193" gradientTransform="matrix(288 0 0 26 382084 -23581.9297)">
	<stop  offset="0" style="stop-color:#73B796"/>
	<stop  offset="1" style="stop-color:#8AC4BB"/>
</linearGradient>
<path style="fill:url(#SVGID_00000126286103448774893420000005142767232161575100_);" d="M1481.5,44.5
	c-18.1,5.9-44.7,11.1-75.5,14.6c-17.6,2.1-90.5,1.7-112.5-0.5c-22.4-2.3-54.4-6.9-73.2-10.5c-8.2-1.6-14.8-2.5-14.8-2.1
	c0,1,3.6,2,25,6.9c44.2,10,80.7,14.2,122.5,14.2c36.3,0,66.8-3.2,95.6-10.3c21.5-5.2,44.9-13,44.9-15
	C1493.5,40.6,1493.6,40.6,1481.5,44.5z"/>
<linearGradient id="SVGID_00000178181624239421185320000011166377987359529896_" gradientUnits="userSpaceOnUse" x1="-1318.6228" y1="892.7336" x2="-1317.6228" y2="892.7336" gradientTransform="matrix(196 0 0 257.73 259594 -229629.2969)">
	<stop  offset="0" style="stop-color:#9BD8E8"/>
	<stop  offset="1" style="stop-color:#9BD8E8"/>
</linearGradient>
<path style="fill:url(#SVGID_00000178181624239421185320000011166377987359529896_);" d="M1265.4,327.4c-29.4,6-54.6,26.6-77.4,63.4
	c-14.6,23.7-27.8,56.5-40,99.8l-4.6,16.1V541c0,18.9,0.4,33.9,0.8,33.3c0.5-0.5,1.9-3.6,3.2-6.9c7-18,17-34.5,26-42.8
	c12.8-11.9,24.9-11.3,37.4,1.7c2.8,3,5.6,5.5,6.1,5.7c0.6,0.2,5.1,5.1,10.1,10.9c21.5,24.7,36.4,35.4,55.2,39.6
	c14.2,3.2,39.3,0.3,52.2-5.9l4.5-2.2l0.3-56.7l0.2-56.8l-4.6,2.5c-11.7,6.2-24,0.1-31.3-15.5c-10.8-23.1-3.8-55,13.5-61.6
	c5.7-2.2,11.2-1.4,17.5,2.5l4.9,3v-53.4l-15.5-4.8c-8.4-2.7-18.9-5.5-23.2-6.2C1291,325.6,1274,325.7,1265.4,327.4L1265.4,327.4z
	 M1255.9,361.3c9.1,4.3,13.5,11.2,13.5,21.1c0,9.3-4,14.5-11.3,14.5c-4.5,0-8.4-3.3-9.4-8c-0.7-3.6-3.5-5.4-6.9-4.6
	c-3.2,0.8-4.7,4.1-4.1,8.8c1.1,8.3,7.5,14,21.6,19.2c11.3,4.2,16.4,7.2,23.6,13.7c15.9,14.6,23.1,35.6,20.4,59.4
	c-3.6,32.5-19.1,52.6-43.7,56.7c-18.5,3.1-40.1-5.6-51.2-20.7c-15-20.4-16.7-42.8-4.3-59.3c7.2-9.6,25.1-10.4,29.8-1.2
	c2.3,4.4,1.8,7.8-2.1,16c-6.3,13.2-6.6,21.1-0.9,27.8c6.2,7.3,19.5,9.8,28.8,5.3c19.5-9.4,21-43.3,2.8-60.4c-6-5.6-12-9.1-24.7-14.3
	c-18.4-7.5-26.4-13.5-31.5-23.9c-3-6.1-3.1-6.9-2.7-15.2c0.6-11.1,3.4-18.5,9.5-25.3c7.5-8.4,15.9-11.8,28.8-11.9
	C1249.4,358.9,1251.8,359.3,1255.9,361.3L1255.9,361.3z"/>
<linearGradient id="SVGID_00000036946093163964393830000016177952139976740265_" gradientUnits="userSpaceOnUse" x1="-1316.483" y1="913.1932" x2="-1315.483" y2="913.1932" gradientTransform="matrix(156.7 0 0 21.49 207323.7031 -19564.1699)">
	<stop  offset="0" style="stop-color:#ABFFE5"/>
	<stop  offset="1" style="stop-color:#ABFFE5"/>
</linearGradient>
<path style="fill:url(#SVGID_00000036946093163964393830000016177952139976740265_);stroke:#000000;stroke-miterlimit:10;" d="
	M1031.4,49.7c0,1,3.6,2,25,6.9c40.4,9.1,76.6,13.6,114.5,14.2l17,0.3l0.1-3.1l0.1-3.1l-26.6-0.6c-37.4-0.8-76.7-5-115.3-12.5
	C1038,50.2,1031.4,49.3,1031.4,49.7z"/>
<linearGradient id="SVGID_00000001651188899140298990000007083794853786796184_" gradientUnits="userSpaceOnUse" x1="-1319.6299" y1="891.5424" x2="-1318.6299" y2="891.5424" gradientTransform="matrix(201 0 0 573.4 266244.6875 -510814.3125)">
	<stop  offset="0" style="stop-color:#5FFF64;stop-opacity:0.37"/>
	<stop  offset="1" style="stop-color:#5FFF64;stop-opacity:0.37"/>
</linearGradient>
<path style="fill:url(#SVGID_00000001651188899140298990000007083794853786796184_);stroke:#000000;stroke-miterlimit:10;" d="
	M1017.6,126c-6.8,9.2-13.4,18.8-14.7,21.4c-5.5,11.4-5.3,2.6-5.3,254.2v232l2.4,5.3c6.5,14.2,22.3,24.2,52.2,32.9
	c28.7,8.3,48,11.1,74.9,11c19.3,0,21.8-0.3,30.7-2.7c18.3-4.9,31.9-14.5,38.1-26.7l2.7-5.5v-56.2l-4.7,2.3
	c-13.4,6.4-38.1,9.2-52.5,6c-18.8-4.2-33.7-14.9-55.2-39.6c-5-5.8-9.5-10.7-10.1-10.9c-0.5-0.2-3.3-2.7-6.1-5.7
	c-12.5-13-24.6-13.6-37.4-1.7c-9,8.3-19,24.8-26,42.8c-1.3,3.3-2.7,6.4-3.2,7c-0.4,0.5-0.8-14.5-0.8-33.4v-34.3l4.6-16.1
	c12.2-43.3,25.4-76.1,40-99.8c17.3-27.9,36.3-46.8,56.9-56.5c12.1-5.6,19.7-7.5,34-8.1c15-0.7,24.9,1,44.2,7.2
	c7.7,2.5,14.6,4.5,15.2,4.5c0.8,0,1.1-22.5,1.1-86.3l-0.1-86.2l-17.7-0.2c-37.8-0.6-74.5-5.1-115.2-14.3c-21.4-4.9-25-5.9-25-6.9
	c0-0.4,6.6,0.5,14.8,2.1c18.9,3.7,51.2,8.3,72.2,10.3c18.9,1.9,69,3.2,69,1.9c-0.1-4.6-7.6-21-13.7-29.7c-5-7.1-10.9-10.7-17.7-10.7
	c-43.8-0.1-94.9-9.1-124.8-22c-5.1-2.2-9.5-4-9.8-4C1030.3,109.4,1024.5,116.9,1017.6,126L1017.6,126z"/>
<rect x="68.5" y="335.8" class="st35" width="192.2" height="214.9"/>
<rect x="74.5" y="120.1" class="st35" width="318.2" height="47.2"/>
<g>
	<line class="st36" x1="440.5" y1="374.2" x2="548.1" y2="374.2"/>
	<path d="M566.2,374.2c-8.5,3.2-19.1,8.5-25.6,14.3l5.2-14.3l-5.2-14.3C547.1,365.7,557.7,371.1,566.2,374.2z"/>
</g>
<linearGradient id="SVGID_00000010295764539794846000000012551655568896402363_" gradientUnits="userSpaceOnUse" x1="-1326.1755" y1="891.7162" x2="-1325.0854" y2="891.0862" gradientTransform="matrix(385.77 0 0 622.53 512158.375 -554556.0625)">
	<stop  offset="0" style="stop-color:#338B36"/>
	<stop  offset="1" style="stop-color:#369039"/>
</linearGradient>
<path style="fill:url(#SVGID_00000010295764539794846000000012551655568896402363_);" d="M929.2,66.4c-12.7,11.5-47.5,21-94.4,25.7
	c-21.4,2.2-75.7,3.1-99.5,1.6c-56.5-3.5-98.7-13.4-115.3-26.8c-2.4-2-4.4-3.4-4.6-3.2c-1.1,1.5-22.8,40.9-25.8,46.9
	c-7.4,14.6-6.8-7.9-6.6,267.6l0.3,247.9l3,5.4c1.6,2.9,6,8.2,9.8,11.7c11.1,10.2,33.3,20.3,58.4,26.4c4.8,1.2,9.5,2.4,10.3,2.7
	s2.4,0.7,3.5,0.8c4.9,0.6,35.6,5.6,46.4,7.6c3,0.5,10.9,1.4,17.5,1.9c6.7,0.6,15.7,1.4,20.1,1.9c13,1.5,60,1.3,79.5-0.4
	c41.2-3.6,70.7-10.5,95.5-22.5c20.2-9.7,32.9-20.3,38.3-31.7l2.7-5.8l0.3-244c0.2-174,0-245.9-0.8-250.5
	c-1.8-10.1-4.1-15.7-14.3-33.7c-5.3-9.2-11.5-20.4-13.9-24.7c-2.4-4.4-4.7-8.1-5.3-8.2C933.8,62.8,931.4,64.4,929.2,66.4L929.2,66.4
	z"/>
</svg>
