<?xml version="1.0" encoding="utf-8"?>
<!-- Generator: Adobe Illustrator 26.5.0, SVG Export Plug-In . SVG Version: 6.00 Build 0)  -->
<svg version="1.1" id="图层_1" xmlns="http://www.w3.org/2000/svg" xmlns:xlink="http://www.w3.org/1999/xlink" x="0px" y="0px"
	 viewBox="0 0 1466.5 701" style="enable-background:new 0 0 1466.5 701;" xml:space="preserve">
<style type="text/css">
	.st0{fill:none;}
	.st1{fill:#D3D3D3;}
	.st2{fill:url(#SVGID_00000114045026532573490120000008182173064314738864_);}
	.st3{fill:url(#region-1-1_00000062177487749846660930000000699979964183067068_);}
	.st4{fill:url(#region-2-1_00000134240739326953705140000017946111773282949305_);}
	.st5{fill:url(#region-2-2_00000086665521107660339950000011776726917938298249_);}
	.st6{fill:url(#region-3-1_00000026880355755885758110000013809175124707050126_);}
	.st7{fill:url(#region-3-2_00000060730900710046849920000002743099776028690085_);}
	.st8{fill:url(#region-3-3_00000076580923517391722050000000074111097751992234_);}
	.st9{fill:url(#region-3-4_00000037673959217203432550000007884608549625558937_);}
	.st10{fill:url(#region-4-1_00000160903826446380768440000005621716134773697943_);}
	.st11{fill:url(#region-4-2_00000030480950957226424170000001088152388976063120_);}
	.st12{fill:url(#region-4-3_00000121987056800062277500000006789322946373137837_);}
	.st13{fill:url(#region-4-4_00000116957997511739698100000002981422241912338064_);}
	.st14{fill:url(#region-5-1_00000145041657048163135730000005803141757278548099_);}
	.st15{fill:url(#region-5-2_00000102537052239862522100000017293761345268844949_);}
	.st16{fill:url(#region-5-3_00000119106771630898902580000011939591405658994622_);}
	.st17{fill:url(#region-5-4_00000137090352930922512440000004772922283452901509_);}
	.st18{fill:url(#region-5-5_00000149344239643442707810000008184049315035217072_);}
	.st19{fill:url(#region-5-6_00000015313620245574723200000018013758943752944553_);}
	.st20{fill:url(#region-5-7_00000000916915090826360640000009083286541096171944_);}
	.st21{fill:url(#region-6-1_00000106112702870331733170000006570149666350125703_);}
	.st22{fill:url(#region-6-2_00000150792195640730735510000018314670320099407512_);}
	.st23{fill:url(#region-6-3_00000113345231325330926010000006607447319011239585_);}
	.st24{fill:url(#region-6-4_00000132805306720994897820000012729925415570863536_);}
	.st25{fill:url(#region-6-5_00000159444278974845146340000018431401343301791645_);}
	.st26{fill:url(#region-3-3-2_00000163781689590867857660000006858392030449272993_);stroke:#000000;stroke-miterlimit:10;}
	.st27{fill:url(#region-4-2-2_00000076579101533608339320000004654261217903926198_);stroke:#000000;stroke-miterlimit:10;}
	.st28{fill:url(#region-4-3-2_00000023245281114448243510000003042471512669379492_);stroke:#000000;stroke-miterlimit:10;}
	.st29{fill:url(#region-5-4-2_00000137095712965824047100000013976629224678271165_);}
	.st30{fill:url(#region-5-7-2_00000001640645651957355230000007894672618625418398_);}
	.st31{fill:none;stroke:#000000;stroke-width:2;stroke-miterlimit:10;}
	.st32{fill:none;stroke:#0000FF;stroke-width:4;stroke-miterlimit:10;}
	.st33{fill:url(#region-2-2_00000159436355555357193980000011409682135967809190_);}
</style>
<pattern  y="701" width="40" height="40" patternUnits="userSpaceOnUse" id="SVGID_1_" viewBox="0 -40 40 40" style="overflow:visible;">
	<g>
		<rect y="-40" class="st0" width="40" height="40"/>
		<g>
			<rect y="-40" class="st0" width="40" height="40"/>
			<g>
				<rect y="-40" class="st0" width="40" height="40"/>
				<g>
					<rect y="-40" class="st0" width="40" height="40"/>
					<rect y="-40" class="st0" width="40" height="40"/>
					<rect y="-20" class="st1" width="20" height="20"/>
					<rect x="20" y="-40" class="st1" width="20" height="20"/>
				</g>
			</g>
		</g>
	</g>
</pattern>
<g id="_图层_3">
	<g id="_图层_1">
		
			<pattern  id="SVGID_00000071556320700689179640000012053147905717254062_" xlink:href="#SVGID_1_" patternTransform="matrix(1 0 0 -1 223 -33318.2422)">
		</pattern>
		<rect style="fill:url(#SVGID_00000071556320700689179640000012053147905717254062_);" width="1466.5" height="701"/>
	</g>
</g>
<g id="_图层_1-2">
	<g id="layer-1">
		
			<linearGradient id="region-1-1_00000001648189528583284470000018134888337281521049_" gradientUnits="userSpaceOnUse" x1="-1403.3488" y1="890.7394" x2="-1403.1687" y2="891.87" gradientTransform="matrix(434 0 0 701 609231 -624457)">
			<stop  offset="0" style="stop-color:#EDE3AF;stop-opacity:0.99"/>
			<stop  offset="1" style="stop-color:#EEE4AF"/>
		</linearGradient>
		<path id="region-1-1" style="fill:url(#region-1-1_00000001648189528583284470000018134888337281521049_);" d="M0,350.5V701h434V0
			H0V350.5z"/>
	</g>
	<g id="layer-2">
		
			<linearGradient id="region-2-1_00000152264317923738419450000015898867176870194096_" gradientUnits="userSpaceOnUse" x1="-1402.1278" y1="896.966" x2="-1402.1278" y2="897.966" gradientTransform="matrix(321.71 0 0 81.36 451297.4062 -72967.9688)">
			<stop  offset="0" style="stop-color:#3248A8;stop-opacity:0.34"/>
			<stop  offset="1" style="stop-color:#324F8A;stop-opacity:0.46"/>
		</linearGradient>
		<path id="region-2-1" style="fill:url(#region-2-1_00000152264317923738419450000015898867176870194096_);" d="M186.5,11
			C115.3,15.2,72.8,24.2,60.9,37.8c-3.1,3.5-3.1,3.6-2.7,12.8c0.4,10.2,0.2,9.8,10,16.6C84.8,78.6,128,87.9,179.5,91.1
			c23.8,1.5,78.1,0.6,99.5-1.6c28.5-2.9,50.5-7,68.8-13c12.7-4.2,19.6-7.6,26.2-13c5.3-4.4,6.1-7,5.6-17.2c-0.2-4.5-0.7-5.8-3.6-8.9
			C364.4,25.2,323.9,15.8,266.5,12C244.3,10.5,203.6,10,186.5,11z"/>
		
			<linearGradient id="region-2-2_00000041264938180507967260000003283613984717223859_" gradientUnits="userSpaceOnUse" x1="-1403.0696" y1="890.7961" x2="-1402.6497" y2="891.9861" gradientTransform="matrix(385.77 0 0 635.46 541400.875 -566068.3125)">
			<stop  offset="0" style="stop-color:#005D0B;stop-opacity:0.81"/>
			<stop  offset="1" style="stop-color:#007218;stop-opacity:0.8"/>
		</linearGradient>
		<path id="region-2-2" style="fill:url(#region-2-2_00000041264938180507967260000003283613984717223859_);" d="M373.4,63.8
			c-12.7,11.5-47.5,21-94.4,25.7c-21.4,2.2-75.7,3.1-99.5,1.6C123,87.6,80.8,77.7,64.2,64.3c-2.4-2-4.4-3.4-4.6-3.2
			C58.5,62.6,36.8,102,33.8,108c-7.4,14.6-6.8-7.9-6.6,267.6l0.3,247.9l2.9,5.3c3.5,6.2,13.3,15.8,20.3,19.7c3.7,2.2,5.4,4,7.2,7.9
			c5.3,10.9,14.1,16.7,35.6,23.2c17.7,5.4,21.4,6.3,30.5,8.3c32.5,6.8,55.9,8.5,109.4,7.8c35-0.4,44.6-0.9,57.1-2.6
			c36-4.9,71.8-14.5,84.5-22.7c5.5-3.4,10.5-9.3,14.3-16.5c2.2-4,6-9,10.1-12.9c4.5-4.3,7.7-8.5,9.9-12.9l3.2-6.6l0.3-244
			c0.2-174,0-245.9-0.8-250.5c-1.8-10.1-4.1-15.7-14.3-33.7c-5.3-9.2-11.5-20.4-13.9-24.7c-2.4-4.4-4.7-8.1-5.3-8.2
			C378,60.2,375.6,61.8,373.4,63.8L373.4,63.8z"/>
	</g>
	<g id="layer-3">
		
			<linearGradient id="region-3-1_00000013159730120171921300000005660660224001207708_" gradientUnits="userSpaceOnUse" x1="-1402.0378" y1="898.9346" x2="-1402.0378" y2="899.9346" gradientTransform="matrix(314.99 0 0 63.48 441846.5625 -57047.3594)">
			<stop  offset="0" style="stop-color:#E9EAEB;stop-opacity:0.8"/>
			<stop  offset="1" style="stop-color:#F8F7F9;stop-opacity:0.76"/>
		</linearGradient>
		<path id="region-3-1" style="fill:url(#region-3-1_00000013159730120171921300000005660660224001207708_);" d="M176.5,15
			C118.7,18.3,70,29.1,63.1,40.4c-2.7,4.4-2.6,6.8,0.4,10.4c10,11.9,53.4,22.5,107.8,26.3c23.2,1.6,94.3,0.7,113.7-1.5
			c44.5-5,75.6-13.2,86.5-22.8c7.9-7,5.8-13.1-6.8-19.2c-16.5-8.1-47.5-14.2-89.2-17.6C257.8,14.5,196.1,13.9,176.5,15z"/>
		
			<linearGradient id="region-3-2_00000182509289951401479260000017715534455932258998_" gradientUnits="userSpaceOnUse" x1="-1402.0305" y1="906.4202" x2="-1402.0305" y2="907.4203" gradientTransform="matrix(314.83 0 0 34.52 441619.8125 -31238.5605)">
			<stop  offset="0" style="stop-color:#E4E4E5;stop-opacity:0.77"/>
			<stop  offset="1" style="stop-color:#EFEEF0;stop-opacity:0.8"/>
		</linearGradient>
		<path id="region-3-2" style="fill:url(#region-3-2_00000182509289951401479260000017715534455932258998_);" d="M373.6,55.9
			c-0.9,1-4.5,3.2-7.9,4.9c-17.3,8.5-46.5,14.7-88.6,18.9c-21.8,2.1-90.1,2.5-111.1,0.5c-50-4.6-81.7-11.6-98.5-21.7
			c-3.2-2-6-3.3-6.3-3s1.7,2.7,4.4,5.3C88.9,83.3,197.9,95.1,287.5,85c31.1-3.6,57.7-9.7,73.1-16.9c8-3.8,15.4-9.8,15.4-12.6
			C376,53.6,375.7,53.6,373.6,55.9z"/>
		
			<linearGradient id="region-3-3_00000085228003186417337790000017728166964985766042_" gradientUnits="userSpaceOnUse" x1="-1400.0609" y1="891.5732" x2="-1398.6809" y2="891.3633" gradientTransform="matrix(201 0 0 573.4 281444.6875 -510814.3125)">
			<stop  offset="0" style="stop-color:#57F755;stop-opacity:0.36"/>
			<stop  offset="1" style="stop-color:#85FBA1;stop-opacity:0.76"/>
		</linearGradient>
		<path id="region-3-3" style="fill:url(#region-3-3_00000085228003186417337790000017728166964985766042_);" d="M64,97.6
			c-6.8,9.2-13.4,18.8-14.7,21.4c-5.5,11.4-5.3,2.6-5.3,254.2v232l2.4,5.3c6.5,14.2,22.3,24.2,52.2,32.9c28.7,8.3,48,11.1,74.9,11
			c19.3,0,21.8-0.3,30.7-2.7c18.3-4.9,31.9-14.5,38.1-26.8l2.7-5.5l-0.3-233.9c-0.1-128.7-0.5-234.9-0.9-236.1
			c-0.3-1.1-1.3-4.3-2.1-7c-2.8-9.6-11.7-25.1-18.6-32.7c-2.3-2.6-2.9-2.7-11.5-2.7c-43.8-0.1-94.9-9.1-124.8-22
			c-5.1-2.2-9.5-4-9.8-4S70.9,88.5,64,97.6L64,97.6z"/>
		
			<linearGradient id="region-3-4_00000139989048384882814740000009758063472527729542_" gradientUnits="userSpaceOnUse" x1="-1402.3286" y1="901.608" x2="-1402.3087" y2="903.3881" gradientTransform="matrix(336.59 0 0 48.85 472234.2812 -43392.6211)">
			<stop  offset="0" style="stop-color:#9E90A3;stop-opacity:0.7"/>
			<stop  offset="1" style="stop-color:#BFB0C3;stop-opacity:0.83"/>
		</linearGradient>
		<path id="region-3-4" style="fill:url(#region-3-4_00000139989048384882814740000009758063472527729542_);" d="M386,651.2
			c-34.2,21.4-85.3,31.9-154.5,31.7c-14.8,0-30.6-0.5-35-1s-13.4-1.3-20.1-1.9c-6.6-0.5-14.5-1.4-17.5-1.9c-10.8-2-41.5-7-46.4-7.6
			c-1.1-0.1-2.7-0.5-3.5-0.8s-5.5-1.5-10.3-2.7c-12-2.9-25.7-7.5-34.6-11.6c-4.1-1.9-7.6-3.2-7.9-2.9c-0.9,0.9,6.4,11.8,10.1,15
			c4.2,3.6,14.8,8.3,27.2,12.1c17.7,5.4,21.4,6.3,30.5,8.3c32.5,6.8,55.9,8.5,109.4,7.8c35-0.4,44.6-0.9,57.1-2.6
			c27.8-3.8,53.8-9.8,70.5-16.3c16.5-6.5,22-10.9,28.4-23.1c2-3.7,3.5-6.7,3.3-6.7C392.6,647.1,389.6,648.9,386,651.2L386,651.2z"/>
	</g>
	<g id="layer-4">
		
			<linearGradient id="region-4-1_00000016049669351724217760000009816153583711379122_" gradientUnits="userSpaceOnUse" x1="-1401.7981" y1="900.2096" x2="-1401.7981" y2="901.2097" gradientTransform="matrix(299.94 0 0 55.51 420673.3125 -49957.3984)">
			<stop  offset="0" style="stop-color:#2B2F32;stop-opacity:0.38"/>
			<stop  offset="1" style="stop-color:#383C40;stop-opacity:0.32"/>
		</linearGradient>
		<path id="region-4-1" style="fill:url(#region-4-1_00000016049669351724217760000009816153583711379122_);" d="M174.5,17.1
			c-27.6,1.5-52.9,4.6-71.5,8.8C98.3,27,92.3,28.3,89.5,29C83.1,30.4,71,37.7,69,41.2c-1.3,2.5-1.3,3.1,0,5.5c0.8,1.4,4.2,4.1,7.5,6
			c16.2,9,48.6,15.4,93,18.3c20.2,1.3,78.5,1.3,97.5,0c56.8-3.9,93.8-12.5,99.5-23.3c1.8-3.4,1.9-3.9,0.5-6.4
			c-5.8-10.4-40-19.2-90.5-23.3C258.8,16.5,194.1,15.9,174.5,17.1z"/>
		
			<linearGradient id="region-4-2_00000015335114884751767810000015831296181445030022_" gradientUnits="userSpaceOnUse" x1="-1401.6146" y1="911.8085" x2="-1401.6146" y2="912.8087" gradientTransform="matrix(288 0 0 26 403896 -23581.9297)">
			<stop  offset="0" style="stop-color:#BCF4FF;stop-opacity:0.65"/>
			<stop  offset="1" style="stop-color:#C6FBFF;stop-opacity:0.69"/>
		</linearGradient>
		<path id="region-4-2" style="fill:url(#region-4-2_00000015335114884751767810000015831296181445030022_);" d="M363,131.6
			c-18.1,5.9-44.7,11.1-75.5,14.6c-17.6,2.1-90.5,1.7-112.5-0.5c-22.4-2.3-54.4-6.9-73.2-10.5c-8.2-1.6-14.8-2.5-14.8-2.1
			c0,1,3.6,2,25,6.9c44.2,10,80.7,14.2,122.5,14.2c36.3,0,66.8-3.2,95.6-10.3c21.5-5.2,44.9-13,44.9-15
			C375,127.7,375.1,127.7,363,131.6L363,131.6z"/>
		
			<linearGradient id="region-4-3_00000041267990110719702960000004343051414598295954_" gradientUnits="userSpaceOnUse" x1="-1402.5698" y1="891.4448" x2="-1402.5698" y2="892.4448" gradientTransform="matrix(358 0 0 391.8 502348 -349084.0938)">
			<stop  offset="0" style="stop-color:#98A1FF;stop-opacity:0.61"/>
			<stop  offset="1" style="stop-color:#AED6FF;stop-opacity:0.75"/>
		</linearGradient>
		<path id="region-4-3" style="fill:url(#region-4-3_00000041267990110719702960000004343051414598295954_);" d="M403.5,182.2
			c-16.9,5.6-29.5,15-41.5,30.9c-11.3,15.1-19.1,30.7-29,57.9c-6.8,18.7-12.4,30.7-18.8,40.2c-9.8,14.5-20.2,20.8-35.6,21.5
			c-11.5,0.6-22.7-1.6-46.6-9.2c-22.9-7.3-32.1-8.9-47.5-8.2c-14.3,0.6-21.9,2.5-34,8.1c-20.6,9.7-39.6,28.6-56.9,56.5
			c-14.6,23.7-27.8,56.5-40,99.8L49,495.8v34.3c0,18.9,0.4,33.9,0.8,33.3c0.5-0.5,1.9-3.6,3.2-6.9c7-18,17-34.5,26-42.8
			c12.8-11.9,24.9-11.3,37.4,1.7c2.8,3,5.6,5.5,6.1,5.7c0.6,0.2,5.1,5.1,10.1,10.9c27.9,32.1,46,42,74.3,40.8
			c25.1-1.2,44.4-9.5,63-27.3c14.4-13.8,22.6-26,43.6-64.6c18.6-34.2,23.6-41.8,34-52.4c11.2-11.3,17.1-14.6,27-15.3
			c5.8-0.4,8.1,0,11.8,1.6c6.8,3,11.5,6.9,16.4,13.6l4.3,5.8V307.6c0-69.6-0.1-126.6-0.2-126.5C406.6,181.1,405.2,181.6,403.5,182.2
			L403.5,182.2z"/>
		
			<linearGradient id="region-4-4_00000037676717642540793350000004401408991071606970_" gradientUnits="userSpaceOnUse" x1="-1400.4181" y1="923.487" x2="-1400.2781" y2="931.1671" gradientTransform="matrix(231.39 0 0 16.93 324269.6562 -14955.0596)">
			<stop  offset="0" style="stop-color:#E7E6E9;stop-opacity:0.8"/>
			<stop  offset="1" style="stop-color:#EEEFF0;stop-opacity:0.8"/>
		</linearGradient>
		<path id="region-4-4" style="fill:url(#region-4-4_00000037676717642540793350000004401408991071606970_);" d="M111.6,677.6
			c-1.4,3.6-0.5,4.1,12.2,6.7c31.7,6.7,55,8.7,98.8,8.7c27.7,0,39.1-0.4,54.5-2c27.7-2.8,65.4-10.1,65.4-12.6c0-1.9-8.6-1.4-23,1.5
			c-26.3,5.2-48.3,7.1-82.1,7.1c-41.5,0-95.7-4.5-115.5-9.6C114.6,675.6,112.4,675.6,111.6,677.6L111.6,677.6z"/>
	</g>
	<g id="layer-5">
		
			<linearGradient id="region-5-1_00000170275363569283169850000011092855415046661564_" gradientUnits="userSpaceOnUse" x1="-1397.125" y1="912.0754" x2="-1397.025" y2="915.3555" gradientTransform="matrix(149.87 0 0 25.67 209562.5156 -23383.0996)">
			<stop  offset="0" style="stop-color:#E4E4E4;stop-opacity:0.67"/>
			<stop  offset="1" style="stop-color:#FFFFFF;stop-opacity:0.8"/>
		</linearGradient>
		<path id="region-5-1" style="fill:url(#region-5-1_00000170275363569283169850000011092855415046661564_);" d="M173,28
			c-6.3,0.4-19.1,0.8-28.3,0.9c-12.1,0.1-17.7,0.5-20.2,1.6c-1.9,0.7-6.3,1.7-9.8,2.1c-5.1,0.6-10.7,2.3-12.6,4
			c-1.2,1,6.3,6.1,12.4,8.5c16.8,6.5,35.2,8.3,80.9,7.6c36.5-0.5,43.5-1.3,51.9-5.9c3.3-1.8,4.3-3,4.5-5.3c0.5-4.8-3.4-9.5-9.8-12.1
			c-5.3-2.2-6.6-2.3-31.5-2.2C196.2,27.3,179.3,27.7,173,28L173,28z"/>
		
			<linearGradient id="region-5-2_00000161632324771954800080000010677979024404896933_" gradientUnits="userSpaceOnUse" x1="-1401.6421" y1="904.9639" x2="-1401.3121" y2="899.2441" gradientTransform="matrix(287.46 0 0 40.67 403124.5312 -36732.9102)">
			<stop  offset="0" style="stop-color:#A9AAAB;stop-opacity:0.99"/>
			<stop  offset="1" style="stop-color:#FFFFFF;stop-opacity:0.63"/>
		</linearGradient>
		<path id="region-5-2" style="fill:url(#region-5-2_00000161632324771954800080000010677979024404896933_);" d="M249.9,29.5
			c5.1,3.8,6.6,13.6,3.1,20.6c-8.6,16.8-44.1,20.8-115.5,13c-8.9-1-21.5-3.9-21.5-5.1c0-0.4-2-1.5-4.4-2.4
			c-6.8-2.6-13.1-7.9-15-12.5c-0.9-2.3-1.7-4.1-1.9-4.1c-2.8,0-19.1,7.2-20.1,8.8c-0.9,1.5,8.3,5.9,17.9,8.7c10,2.9,33.1,7.1,47,8.6
			c5,0.5,12.8,1.4,17.5,1.9c15.2,1.7,74,2.3,98,1.1c38.4-2,69.5-6.1,88.3-11.6c9.4-2.7,18.7-6.9,18.7-8.5c0-1.7-12.3-6.8-22.6-9.4
			c-18.8-4.8-49.8-8.7-78.9-10.2C248,27.8,247.6,27.9,249.9,29.5z"/>
		
			<linearGradient id="region-5-3_00000155865310309670072260000000781534528680230279_" gradientUnits="userSpaceOnUse" x1="-1397.0244" y1="917.8077" x2="-1396.6844" y2="923.5278" gradientTransform="matrix(147.98 0 0 20.37 206901.9062 -18657.3398)">
			<stop  offset="0" style="stop-color:#E5E6E7;stop-opacity:0.8"/>
			<stop  offset="1" style="stop-color:#EBEBEC;stop-opacity:0.8"/>
		</linearGradient>
		<path id="region-5-3" style="fill:url(#region-5-3_00000155865310309670072260000000781534528680230279_);" d="M100,42.8
			c0,1.5,5.7,6,10.9,8.6c15.4,7.9,43.8,11.6,87.7,11.6c20.5,0,32.7-1.6,40.9-5.5c5.4-2.6,11.3-7.7,7-6.1c-9.8,3.6-29.5,5.6-56,5.6
			c-45,0-70.8-3.8-86.2-12.7C101.9,42.9,100,42.3,100,42.8z"/>
		
			<linearGradient id="region-5-4_00000124150109308385479720000008884414695381605277_" gradientUnits="userSpaceOnUse" x1="-1393.6941" y1="893.0083" x2="-1393.374" y2="894.1783" gradientTransform="matrix(108.12 0 0 183.76 150819.3281 -163768.375)">
			<stop  offset="0" style="stop-color:#EB3B1B;stop-opacity:0.81"/>
			<stop  offset="1" style="stop-color:#E00F00;stop-opacity:0.81"/>
		</linearGradient>
		<path id="region-5-4" style="fill:url(#region-5-4_00000124150109308385479720000008884414695381605277_);" d="M134.9,349.5
			c-7.3,2.7-11.8,5.6-16.2,10.5c-6.1,6.8-8.9,14.2-9.5,25.3c-0.4,8.3-0.3,9.1,2.7,15.2c5.1,10.4,13.1,16.4,31.5,23.9
			c12.7,5.2,18.7,8.7,24.7,14.3c18.2,17.1,16.7,51-2.8,60.4c-9.3,4.5-22.6,2-28.8-5.3c-5.7-6.7-5.4-14.6,0.9-27.8
			c3.9-8.2,4.4-11.6,2.1-16c-4.7-9.2-22.6-8.4-29.8,1.2s-9.7,21-7.7,32.8c2.2,12.8,11.4,28.5,21.3,35.9c22,16.7,50.2,15.8,67.9-2.1
			c18.4-18.7,24-58.3,11.8-83c-4.2-8.5-8.2-13.9-14.5-19.7c-7.2-6.5-12.3-9.5-23.6-13.7c-14.1-5.2-20.5-10.9-21.6-19.2
			c-0.6-4.7,0.9-8,4.1-8.8c3.4-0.8,6.2,1,6.9,4.6c1,4.7,4.9,8,9.4,8c7.3,0,11.3-5.2,11.3-14.5c0-9.9-4.4-16.8-13.5-21.1
			c-4.1-2-6.5-2.4-14-2.3C142.6,348.1,136.9,348.7,134.9,349.5L134.9,349.5z"/>
		
			<linearGradient id="region-5-5_00000064353300907946374980000017421474442404560823_" gradientUnits="userSpaceOnUse" x1="-1378.0553" y1="896.1495" x2="-1377.6553" y2="897.3095" gradientTransform="matrix(49 0 0 91.07 67870 -81304.6328)">
			<stop  offset="0" style="stop-color:#B21F00;stop-opacity:0.8"/>
			<stop  offset="1" style="stop-color:#AC1300;stop-opacity:0.81"/>
		</linearGradient>
		<path id="region-5-5" style="fill:url(#region-5-5_00000064353300907946374980000017421474442404560823_);" d="M346.2,315
			c-6.2,3.8-12.2,15.7-12.2,24.5c0,10.1,7.8,11.6,11.8,2.3c0.6-1.5,2.3-3.5,3.7-4.4c2.5-1.6,2.7-1.6,5.3,0.3c3.5,2.6,5.1,6,5.9,12.3
			l0.6,5l-3.2-1.6c-6.5-3.2-13.7-0.1-18,7.6c-2.1,3.7-2.5,6.1-2.9,14.9c-0.5,12,0.6,17.6,4.4,22.1c3.7,4.3,7.5,6,13.7,6
			s9.5-2,12.2-7.6l1.8-3.8l1.4,3c2.9,5.6,6.8,6.9,10.3,3.4c1.5-1.5,2-3.3,2-7.8c0-5.9-0.9-8.1-5.6-13.2c-3.3-3.7-5.2-11.6-6.9-29.6
			c-1.8-19.8-4.1-28-9-32.3C357.2,312.3,351.3,311.9,346.2,315L346.2,315z"/>
		
			<linearGradient id="region-5-6_00000168100766834742292660000010782152445088852149_" gradientUnits="userSpaceOnUse" x1="-1385.5704" y1="894.5884" x2="-1385.4905" y2="895.6384" gradientTransform="matrix(66.98 0 0 122.85 93099.2656 -109576.8125)">
			<stop  offset="0" style="stop-color:#B32102;stop-opacity:0.8"/>
			<stop  offset="1" style="stop-color:#AA1000;stop-opacity:0.82"/>
		</linearGradient>
		<path id="region-5-6" style="fill:url(#region-5-6_00000168100766834742292660000010782152445088852149_);" d="M307.4,326.1
			c-1.7,1.9-1.9,3.7-1.9,17.8c0,8.6,0.3,17.7,0.7,20.4l0.8,4.7l-4-2c-21.1-10.7-44.3,20.6-37.9,51.2c2.3,11.1,10.2,23.9,17,27.4
			c1.6,0.8,5,1.4,7.7,1.4c8.3,0,16.6-6.8,21.4-17.7l2-4.6l1.9,3c2.1,3.3,6.6,5.7,9.5,5.1c3.4-0.6,6.4-6.6,6.4-12.8
			c0-14.9-9.1-86.5-11.7-91.8c-1.6-3.3-2.3-3.7-5.9-4C310.3,324,308.9,324.4,307.4,326.1z"/>
		
			<linearGradient id="region-5-7_00000078043388532831822740000002448354173901488026_" gradientUnits="userSpaceOnUse" x1="-1380.1134" y1="896.9965" x2="-1379.1833" y2="898.0665" gradientTransform="matrix(52.4 0 0 80.72 72523.8047 -72034.1797)">
			<stop  offset="0" style="stop-color:#D1391C;stop-opacity:0.81"/>
			<stop  offset="1" style="stop-color:#C60D00;stop-opacity:0.8"/>
		</linearGradient>
		<path id="region-5-7" style="fill:url(#region-5-7_00000078043388532831822740000002448354173901488026_);" d="M221.5,375.8
			c-10.4,4.9-17.5,19.6-17.5,36.3c0,10.1,1.4,17,5.1,24.9c9.9,21.2,29.7,24.1,40.7,6c4.9-8.1,6.6-15,6.6-26.5
			c0-12.2-2.5-21.2-8.3-30.2C241.4,375.9,230.5,371.6,221.5,375.8L221.5,375.8z"/>
	</g>
	<g id="layer-6">
		
			<linearGradient id="region-6-1_00000139274848864019379850000014735086859167907459_" gradientUnits="userSpaceOnUse" x1="-1379.6492" y1="918.5688" x2="-1378.8992" y2="920.9089" gradientTransform="matrix(51.84 0 0 19.8 71728.9922 -18164.7891)">
			<stop  offset="0" style="stop-color:#B6B8B9;stop-opacity:0.71"/>
			<stop  offset="1" style="stop-color:#A0A2A4;stop-opacity:0.82"/>
		</linearGradient>
		<path id="region-6-1" style="fill:url(#region-6-1_00000139274848864019379850000014735086859167907459_);" d="M206.2,29.5
			c-8.8,2.4-12.2,5.7-10.7,10.5c1.6,4.9,15.6,8.6,29.3,7.7c13-0.9,22.2-4.9,22.2-9.8c0-2.1-5.2-6.7-8.6-7.5c-1.3-0.3-2.4-1-2.4-1.5
			C236,27.4,212.1,28,206.2,29.5z"/>
		
			<linearGradient id="region-6-2_00000076565898853640408320000005454566658767597990_" gradientUnits="userSpaceOnUse" x1="-1381.375" y1="945.2162" x2="-1381.375" y2="946.2159" gradientTransform="matrix(56 0 0 10.27 77508 -9670.7598)">
			<stop  offset="0" style="stop-color:#BCBEBF;stop-opacity:0.8"/>
			<stop  offset="1" style="stop-color:#C0C2C4;stop-opacity:0.8"/>
		</linearGradient>
		<path id="region-6-2" style="fill:url(#region-6-2_00000076565898853640408320000005454566658767597990_);" d="M135.5,34.1
			c-7,1-12.5,2.7-12.5,3.9c0,1.7,8.4,4.1,17.7,5c6.3,0.7,13.1,0.7,19.8,0c9.8-0.9,18.5-3.3,18.5-5C179,34.3,151,31.9,135.5,34.1z"/>
		
			<linearGradient id="region-6-3_00000044886316660931279890000000570111413633129129_" gradientUnits="userSpaceOnUse" x1="-1316.9412" y1="913.0046" x2="-1316.9412" y2="914.0045" gradientTransform="matrix(15.68 0 0 24.65 20880.5488 -22105.4297)">
			<stop  offset="0" style="stop-color:#9FF6FF;stop-opacity:0.81"/>
			<stop  offset="1" style="stop-color:#98F7FF;stop-opacity:0.85"/>
		</linearGradient>
		<path id="region-6-3" style="fill:url(#region-6-3_00000044886316660931279890000000570111413633129129_);" d="M226,398.5
			c-5.2,5.5-3.1,19.6,3.3,21.9c8.4,3,13-13.2,6.1-21.4C232.3,395.3,229.1,395.2,226,398.5L226,398.5z"/>
		
			<linearGradient id="region-6-4_00000075860276574651967210000011193983897713917081_" gradientUnits="userSpaceOnUse" x1="-1303.4434" y1="919.8392" x2="-1302.4135" y2="920.7992" gradientTransform="matrix(13.59 0 0 18.99 18058.4805 -17103.4199)">
			<stop  offset="0" style="stop-color:#69B8EF;stop-opacity:0.69"/>
			<stop  offset="1" style="stop-color:#62B8FA;stop-opacity:0.74"/>
		</linearGradient>
		<path id="region-6-4" style="fill:url(#region-6-4_00000075860276574651967210000011193983897713917081_);" d="M349,370.2
			c-3.6,5.9-1.6,14.1,3.7,15.4c5,1.3,8.6-3.4,8-10.4C359.8,366.9,352.8,363.9,349,370.2z"/>
		
			<linearGradient id="region-6-5_00000091013894763933989370000008885916291605264556_" gradientUnits="userSpaceOnUse" x1="-1350.9917" y1="906.1398" x2="-1350.9618" y2="907.1798" gradientTransform="matrix(25.28 0 0 35.11 34444.2109 -31423.1309)">
			<stop  offset="0" style="stop-color:#6CB0E1;stop-opacity:0.76"/>
			<stop  offset="1" style="stop-color:#5FA9EC;stop-opacity:0.81"/>
		</linearGradient>
		<path id="region-6-5" style="fill:url(#region-6-5_00000091013894763933989370000008885916291605264556_);" d="M285,391.6
			c-4.6,3.9-6.2,7.9-6.2,15c0,16.7,15.5,23.9,23,10.6c2.7-4.8,3.1-15.6,0.7-20.1c-2.3-4.5-7.2-8.1-11-8.1
			C289.3,389,287,389.9,285,391.6z"/>
	</g>
</g>
<linearGradient id="region-3-3-2_00000028289317017073094110000017287885246509968546_" gradientUnits="userSpaceOnUse" x1="-1395.9001" y1="891.6157" x2="-1394.5201" y2="891.3956" gradientTransform="matrix(201 0 0 573.4 281444.6875 -510814.3125)">
	<stop  offset="0" style="stop-color:#57F755;stop-opacity:0.36"/>
	<stop  offset="1" style="stop-color:#85FBA1;stop-opacity:0.76"/>
</linearGradient>
<path id="region-3-3-2" style="fill:url(#region-3-3-2_00000028289317017073094110000017287885246509968546_);stroke:#000000;stroke-miterlimit:10;" d="
	M901.7,118.9c-6.8,9.2-13.4,18.8-14.7,21.4c-5.5,11.4-5.3,2.6-5.3,254.2v232l2.4,5.3c6.5,14.2,22.3,24.2,52.2,32.9
	c28.7,8.3,48,11.1,74.9,11c19.3,0,21.8-0.3,30.7-2.7c18.3-4.9,31.9-14.5,38.1-26.8l2.7-5.5l-0.3-233.9
	c-0.1-128.7-0.5-234.9-0.9-236.1c-0.3-1.1-1.3-4.3-2.1-7c-2.8-9.6-11.7-25.1-18.6-32.7c-2.3-2.6-2.9-2.7-11.5-2.7
	c-43.8-0.1-94.9-9.1-124.8-22c-5.1-2.2-9.5-4-9.8-4S908.6,109.8,901.7,118.9L901.7,118.9z"/>
<linearGradient id="region-4-2-2_00000112629101574386196700000012067820018614307769_" gradientUnits="userSpaceOnUse" x1="-1398.3914" y1="909.9113" x2="-1398.3914" y2="910.9114" gradientTransform="matrix(288 0 0 26 403896 -23581.9297)">
	<stop  offset="0" style="stop-color:#BCF4FF;stop-opacity:0.65"/>
	<stop  offset="1" style="stop-color:#C6FBFF;stop-opacity:0.69"/>
</linearGradient>
<path id="region-4-2-2" style="fill:url(#region-4-2-2_00000112629101574386196700000012067820018614307769_);stroke:#000000;stroke-miterlimit:10;" d="
	M1291.3,82.2c-18.1,5.9-44.7,11.1-75.5,14.6c-17.6,2.1-90.5,1.7-112.5-0.5c-22.4-2.3-54.4-6.9-73.2-10.5c-8.2-1.6-14.8-2.5-14.8-2.1
	c0,1,3.6,2,25,6.9c44.2,10,80.7,14.2,122.5,14.2c36.3,0,66.8-3.2,95.6-10.3c21.5-5.2,44.9-13,44.9-15
	C1303.3,78.3,1303.4,78.3,1291.3,82.2z"/>
<linearGradient id="region-4-3-2_00000098185585591206170080000015181750637959686314_" gradientUnits="userSpaceOnUse" x1="-1399.6709" y1="891.5703" x2="-1399.6709" y2="892.5703" gradientTransform="matrix(358 0 0 391.8 502348 -349084.0938)">
	<stop  offset="0" style="stop-color:#98A1FF;stop-opacity:0.61"/>
	<stop  offset="1" style="stop-color:#AED6FF;stop-opacity:0.75"/>
</linearGradient>
<path id="region-4-3-2" style="fill:url(#region-4-3-2_00000098185585591206170080000015181750637959686314_);stroke:#000000;stroke-miterlimit:10;" d="
	M1441.3,229.3c-16.9,5.6-29.5,15-41.5,30.9c-11.3,15.1-19.1,30.7-29,57.9c-6.8,18.7-12.4,30.7-18.8,40.2
	c-9.8,14.5-20.2,20.8-35.6,21.5c-11.5,0.6-22.7-1.6-46.6-9.2c-22.9-7.3-32.1-8.9-47.5-8.2c-14.3,0.6-21.9,2.5-34,8.1
	c-20.6,9.7-39.6,28.6-56.9,56.5c-14.6,23.7-27.8,56.5-40,99.8l-4.6,16.1v34.3c0,18.9,0.4,33.9,0.8,33.3c0.5-0.5,1.9-3.6,3.2-6.9
	c7-18,17-34.5,26-42.8c12.8-11.9,24.9-11.3,37.4,1.7c2.8,3,5.6,5.5,6.1,5.7c0.6,0.2,5.1,5.1,10.1,10.9c27.9,32.1,46,42,74.3,40.8
	c25.1-1.2,44.4-9.5,63-27.3c14.4-13.8,22.6-26,43.6-64.6c18.6-34.2,23.6-41.8,34-52.4c11.2-11.3,17.1-14.6,27-15.3
	c5.8-0.4,8.1,0,11.8,1.6c6.8,3,11.5,6.9,16.4,13.6l4.3,5.8V354.7c0-69.6-0.1-126.6-0.2-126.5C1444.4,228.2,1443,228.7,1441.3,229.3
	L1441.3,229.3z"/>
<linearGradient id="region-5-4-2_00000073679700830573728500000017809935603302967713_" gradientUnits="userSpaceOnUse" x1="-1384.1891" y1="891.8849" x2="-1383.8691" y2="893.0549" gradientTransform="matrix(108.12 0 0 183.76 150819.3281 -163768.375)">
	<stop  offset="0" style="stop-color:#EB3B1B;stop-opacity:0.81"/>
	<stop  offset="1" style="stop-color:#E00F00;stop-opacity:0.81"/>
</linearGradient>
<path id="region-5-4-2" style="fill:url(#region-5-4-2_00000073679700830573728500000017809935603302967713_);" d="M1162.5,142.6
	c-7.3,2.7-11.8,5.6-16.2,10.5c-6.1,6.8-8.9,14.2-9.5,25.3c-0.4,8.3-0.3,9.1,2.7,15.2c5.1,10.4,13.1,16.4,31.5,23.9
	c12.7,5.2,18.7,8.7,24.7,14.3c18.2,17.1,16.7,51-2.8,60.4c-9.3,4.5-22.6,2-28.8-5.3c-5.7-6.7-5.4-14.6,0.9-27.8
	c3.9-8.2,4.4-11.6,2.1-16c-4.7-9.2-22.6-8.4-29.8,1.2c-7.2,9.6-9.7,21-7.7,32.8c2.2,12.8,11.4,28.5,21.3,35.9
	c22,16.7,50.2,15.8,67.9-2.1c18.4-18.7,24-58.3,11.8-83c-4.2-8.5-8.2-13.9-14.5-19.7c-7.2-6.5-12.3-9.5-23.6-13.7
	c-14.1-5.2-20.5-10.9-21.6-19.2c-0.6-4.7,0.9-8,4.1-8.8c3.4-0.8,6.2,1,6.9,4.6c1,4.7,4.9,8,9.4,8c7.3,0,11.3-5.2,11.3-14.5
	c0-9.9-4.4-16.8-13.5-21.1c-4.1-2-6.5-2.4-14-2.3C1170.2,141.2,1164.5,141.8,1162.5,142.6L1162.5,142.6z"/>
<linearGradient id="region-5-7-2_00000037659404141059615270000005895624016170697638_" gradientUnits="userSpaceOnUse" x1="-1359.6302" y1="894.861" x2="-1358.7103" y2="895.9309" gradientTransform="matrix(52.4 0 0 80.72 72523.8047 -72034.1797)">
	<stop  offset="0" style="stop-color:#D1391C;stop-opacity:0.81"/>
	<stop  offset="1" style="stop-color:#C60D00;stop-opacity:0.8"/>
</linearGradient>
<path id="region-5-7-2" style="fill:url(#region-5-7-2_00000037659404141059615270000005895624016170697638_);" d="M1294.6,203.5
	c-10.4,4.9-17.5,19.6-17.5,36.3c0,10.1,1.4,17,5.1,24.9c9.9,21.2,29.7,24.1,40.7,6c4.9-8.1,6.6-15,6.6-26.5
	c0-12.2-2.5-21.2-8.3-30.2C1314.5,203.6,1303.6,199.3,1294.6,203.5z"/>
<g>
	<line class="st31" x1="436" y1="378.1" x2="459.5" y2="378.1"/>
	<path d="M471.6,378.1c-5.7,2.1-12.7,5.7-17.1,9.5l3.4-9.5l-3.4-9.5C458.9,372.4,466,376,471.6,378.1z"/>
</g>
<rect x="78.4" y="116.1" class="st32" width="303.7" height="47.5"/>
<rect x="68" y="328.1" class="st32" width="191.9" height="224.8"/>
<linearGradient id="region-2-2_00000129201177200957314960000009718405068160243094_" gradientUnits="userSpaceOnUse" x1="-1401.8917" y1="890.7961" x2="-1401.4718" y2="891.9861" gradientTransform="matrix(385.77 0 0 635.46 541400.875 -566068.3125)">
	<stop  offset="0" style="stop-color:#005D0B;stop-opacity:0.81"/>
	<stop  offset="1" style="stop-color:#007218;stop-opacity:0.8"/>
</linearGradient>
<path id="region-2-2_00000057862197506586978730000015861180136712538246_" style="fill:url(#region-2-2_00000129201177200957314960000009718405068160243094_);" d="
	M827.8,63.8c-12.7,11.5-47.5,21-94.4,25.7c-21.4,2.2-75.7,3.1-99.5,1.6c-56.5-3.5-98.7-13.4-115.3-26.8c-2.4-2-4.4-3.4-4.6-3.2
	c-1.1,1.5-22.8,40.9-25.8,46.9c-7.4,14.6-6.8-7.9-6.6,267.6l0.3,247.9l2.9,5.3c3.5,6.2,13.3,15.8,20.3,19.7c3.7,2.2,5.4,4,7.2,7.9
	c5.3,10.9,14.1,16.7,35.6,23.2c17.7,5.4,21.4,6.3,30.5,8.3c32.5,6.8,55.9,8.5,109.4,7.8c35-0.4,44.6-0.9,57.1-2.6
	c36-4.9,71.8-14.5,84.5-22.7c5.5-3.4,10.5-9.3,14.3-16.5c2.2-4,6-9,10.1-12.9c4.5-4.3,7.7-8.5,9.9-12.9l3.2-6.6l0.3-244
	c0.2-174,0-245.9-0.8-250.5c-1.8-10.1-4.1-15.7-14.3-33.7c-5.3-9.2-11.5-20.4-13.9-24.7c-2.4-4.4-4.7-8.1-5.3-8.2
	C832.4,60.2,830,61.8,827.8,63.8L827.8,63.8z"/>
</svg>
