<?xml version="1.0" encoding="utf-8"?>
<!-- Generator: Adobe Illustrator 26.5.0, SVG Export Plug-In . SVG Version: 6.00 Build 0)  -->
<svg version="1.1" id="图层_1" xmlns="http://www.w3.org/2000/svg" xmlns:xlink="http://www.w3.org/1999/xlink" x="0px" y="0px"
	 viewBox="0 0 1229 520" style="enable-background:new 0 0 1229 520;" xml:space="preserve">
<style type="text/css">
	.st0{fill:none;}
	.st1{fill:#D3D3D3;}
	.st2{clip-path:url(#SVGID_00000133495400907043985720000009023387390666459817_);}
	.st3{fill:url(#SVGID_00000145040899617249606800000000294489866990552991_);}
	.st4{fill:none;stroke:#000000;stroke-width:3;stroke-miterlimit:10;}
	.st5{fill:url(#SVGID_00000115495208179585676050000011415152138277898116_);}
	.st6{fill:url(#SVGID_00000044152715192255558160000011368550685602785465_);}
	.st7{fill:url(#SVGID_00000160172597663417250240000017605342577430064290_);}
	.st8{fill:url(#SVGID_00000125592141329268291970000017842651433747906994_);}
	.st9{fill:url(#SVGID_00000016041241425684898010000005177279236523994503_);}
	.st10{fill:url(#SVGID_00000072270835817595409070000013088969144727394212_);}
	.st11{fill:url(#SVGID_00000127722403800780111620000011763546543313939635_);}
	.st12{fill:url(#SVGID_00000035516115918660966870000000127096024830878848_);}
	.st13{fill:url(#SVGID_00000110461967172786746080000001763687154065219739_);}
	.st14{fill:url(#SVGID_00000081642393313641232810000004977276906550129306_);}
	.st15{fill:url(#SVGID_00000007416787835801712160000012301871292597592449_);}
	.st16{fill:url(#SVGID_00000145761496967340787440000017040839595725154444_);}
	.st17{fill:url(#SVGID_00000018226167292961254310000013368785125394197900_);}
	.st18{fill:url(#SVGID_00000173861199147302799900000009009278028474028711_);}
	.st19{fill:url(#SVGID_00000062903516862685370200000018075136666745479838_);}
	.st20{fill:url(#SVGID_00000035517140936950272370000009344169923918540734_);}
	.st21{fill:url(#SVGID_00000074433359707364666350000016985015045552712588_);}
	.st22{fill:url(#SVGID_00000125594907049968499670000015226562264055559570_);stroke:#000000;stroke-miterlimit:10;}
	.st23{fill:url(#SVGID_00000153698100201215330880000011949968266291235459_);}
	.st24{fill:url(#SVGID_00000046324187452582705360000014625292775224089251_);}
	.st25{fill:none;stroke:#FF0000;stroke-width:4;stroke-miterlimit:10.0001;}
</style>
<pattern  y="520" width="40" height="40" patternUnits="userSpaceOnUse" id="SVGID_0000000309510881240543256" viewBox="0 -40 40 40" style="overflow:visible;">
	<g>
		<rect y="-40" class="st0" width="40" height="40"/>
		<g>
			<rect y="-40" class="st0" width="40" height="40"/>
			<g>
				<rect y="-40" class="st0" width="40" height="40"/>
				<g>
					<rect y="-40" class="st0" width="40" height="40"/>
					<g>
						<rect y="-40" class="st0" width="40" height="40"/>
						<g>
							<rect y="-40" class="st0" width="40" height="40"/>
							<g>
								<rect y="-40" class="st0" width="40" height="40"/>
								<g>
									<polygon class="st0" points="0,0 40,0 40,-40 0,-40 									"/>
									<polygon class="st1" points="0,-20 20,-20 20,-40 0,-40 									"/>
									<polygon class="st1" points="20,0 40,0 40,-20 20,-20 									"/>
								</g>
							</g>
						</g>
					</g>
				</g>
			</g>
		</g>
	</g>
</pattern>
<g>
	<g>
		<g>
			<defs>
				<rect id="SVGID_1_" width="1229" height="520"/>
			</defs>
			<clipPath id="SVGID_00000059271541200273559950000011630538868853648553_">
				<use xlink:href="#SVGID_1_"  style="overflow:visible;"/>
			</clipPath>
			<g style="clip-path:url(#SVGID_00000059271541200273559950000011630538868853648553_);">
				
					<pattern  id="SVGID_00000163754659895059426590000011367700035575790246_" xlink:href="#SVGID_0000000309510881240543256" patternTransform="matrix(1 0 0 1 65.5 18123.1094)">
				</pattern>
				<rect style="fill:url(#SVGID_00000163754659895059426590000011367700035575790246_);" width="1228.2" height="519.7"/>
			</g>
		</g>
	</g>
</g>
<g>
	<line class="st4" x1="303.1" y1="162" x2="365" y2="162"/>
	<path d="M379.9,162c-7,3.2-15.6,8.6-21,14.3l4.2-14.3l-4.2-14.3C364.2,153.5,372.9,158.9,379.9,162z"/>
</g>
<g id="_图层_1">
	
		<linearGradient id="SVGID_00000036951654892145521890000009732614887943972284_" gradientUnits="userSpaceOnUse" x1="-1554.6654" y1="-1.3026" x2="-1554.8455" y2="-2.1526" gradientTransform="matrix(573.98 0 0 -497.33 892719.375 -607.7433)">
		<stop  offset="0" style="stop-color:#4D301F"/>
		<stop  offset="1" style="stop-color:#5C3A28"/>
	</linearGradient>
	<path style="fill:url(#SVGID_00000036951654892145521890000009732614887943972284_);" d="M202.5,14.7c-1.1,0.3-6.7,2-12.5,4
		c-25.2,8.4-38.6,16.2-49,28.4c-3,3.5-6.1,7.1-7,8c-2.7,2.8-11.8,13.3-14.1,16.4c-1.3,1.6-2.6,3.2-2.9,3.5s-3,3.4-6,7
		c-3,3.5-6.2,7.1-7.1,8c-0.9,0.8-4.5,4.9-7.9,9c-3.5,4.1-10.4,11.9-15.4,17.4c-11.2,12.1-9.7,10.4-18.3,20.8c-6.8,8-7.3,9-7.3,13.3
		s-0.2,4.6-2,4c-4.9-1.6-7.8,0.4-20.2,14.1c-6.8,7.4-12.6,14.8-13,16.3c-0.5,1.6-1.5,3.4-2.3,4.1c-2,1.7-1.9,4.9,0.7,13.3
		c2,6.9,2.5,7.4,16.2,21.2c12.2,12.2,21.2,20.1,32.1,28c1.5,1.1,6.3,4,10.8,6.4c7.7,4.1,8.4,4.3,14.9,3.9l6.9-0.4l7.3-7.4
		c8.5-8.7,16.8-18.5,21.4-25.3c1.8-2.6,3.9-4.7,4.7-4.7c2.8,0,8.3-6.5,10.1-12c3.2-10.1,11.2-22,14.7-22c2.1,0,16.3,6.9,20.9,10.1
		c1.4,1.1,2.8,1.9,3.1,1.9s3.8,2.2,7.7,4.9s9.3,5.5,12,6.2s5.1,1.8,5.2,2.4c0.4,1.7,315.8,293.9,318.2,294.8c1.2,0.5,6.4,0.9,11.6,1
		c8.5,0.1,10.1-0.1,15-2.5c6.3-3.1,12.1-8.4,20.7-18.9c17.6-21.6,22.1-34.8,15.5-46c-4.1-7.1-8.5-11.4-28.4-28
		c-10-8.3-19.9-16.6-21.8-18.3c-2-1.7-5.5-4.7-7.9-6.6c-2.3-1.9-5.2-4.4-6.5-5.5c-1.2-1.1-4.4-3.8-7-6s-5.8-4.9-7-6
		s-4.2-3.6-6.6-5.5s-7.6-6.2-11.5-9.5c-5.8-5-30.7-25.8-39.4-33c-1.3-1.1-3.4-2.9-4.7-4c-1.2-1.2-4.1-3.6-6.4-5.5s-5.5-4.6-7-6
		s-4.5-3.9-6.6-5.7c-2.2-1.7-13-10.7-24-20c-11.1-9.2-22.1-18.4-24.4-20.3c-2.4-1.9-5.7-4.7-7.4-6.2c-9.4-8.2-35.7-30.3-53.6-45.2
		c-11.3-9.3-23.7-19.7-27.6-23c-3.9-3.4-9-7.7-11.3-9.6c-2.4-1.9-5.3-4.4-6.6-5.5c-8.2-7.3-15.1-13.2-16.9-14.5
		c-1.2-0.8-2.5-1.9-3.1-2.5c-0.5-0.6-2.9-2.6-5.3-4.5c-3.6-2.7-4.2-3.7-3.7-5.7c0.3-1.3,0-3.3-0.6-4.4c-2.1-3.9-16.1-21.7-32.2-40.9
		c-6.7-7.9-7.8-9.7-7.3-12c0.7-3.8,6-11.4,12.6-18.3c5.2-5.5,5.9-5.8,12-6.7c8.7-1.2,39,1.1,59.5,4.5c16,2.7,25.7-2.8,27.2-15.3
		c0.3-2.8,0-6.5-0.6-8.5c-1.1-3.3-1.6-3.6-11.4-6.7c-5.6-1.7-12-3.8-14.2-4.5c-5.1-1.7-22.5-7.2-38-12c-6.6-2-12.9-4.1-14-4.6
		C228.4,14.7,210.1,12.9,202.5,14.7L202.5,14.7z"/>
	
		<linearGradient id="SVGID_00000113321263502444134980000002348369792450816392_" gradientUnits="userSpaceOnUse" x1="-1552.2799" y1="-3.9568" x2="-1551.28" y2="-3.9568" gradientTransform="matrix(272.42 0 0 -250.77 423095.1875 -679.8516)">
		<stop  offset="0" style="stop-color:#F6D490"/>
		<stop  offset="1" style="stop-color:#F6D490"/>
	</linearGradient>
	<path style="fill:url(#SVGID_00000113321263502444134980000002348369792450816392_);" d="M224.5,188.7c-0.4,1.3,0.5,2.8,3.2,5.2
		c2.1,1.8,7.2,6.5,11.3,10.5c4.1,3.9,13.6,12.7,20.9,19.6c7.4,6.9,15.1,14.1,17.1,16s10.1,9.6,18.1,17c7.9,7.4,18.2,17.2,22.9,21.6
		c4.7,4.5,11,10.3,14,12.8c3,2.6,16.1,15.4,29,28.5s26.2,26.2,29.6,29.2c9,8.1,27.2,24.8,32.9,30.1c2.7,2.7,5.2,4.8,5.6,4.8
		c0.3,0,2.4,1.7,4.5,3.7c7.4,7.1,14.9,13.4,25.9,21.8c3.3,2.5,7.3,5.6,8.9,6.8s8.4,6.8,15.3,12.4c9.3,7.8,12.5,9.9,13,8.8
		c0.9-2.5-2.2-5.2-35.2-31.5c-7.7-6.1-16.3-13.2-19-15.8c-2.8-2.6-7.3-6.7-10-9.1c-2.8-2.5-10.6-9.7-17.4-16
		c-6.8-6.4-13.6-12.7-15.1-14.1s-6-5.4-10-9c-8.2-7.3-13.5-12.6-33.1-32.6c-18.9-19.4-40.3-40.1-47.4-46c-3.3-2.7-6.9-5.8-8.1-6.9
		s-3.9-3.6-6.1-5.5c-15.3-13.5-26.1-23.4-48.3-44.6c-10.5-10.1-20.8-19.4-21.4-19.4C225.4,187,224.9,187.8,224.5,188.7L224.5,188.7z
		"/>
	
		<linearGradient id="SVGID_00000080910557480285657630000004706773779887870625_" gradientUnits="userSpaceOnUse" x1="-1544.7208" y1="-16.2211" x2="-1544.6307" y2="-16.9412" gradientTransform="matrix(121.12 0 0 -65.05 187352.0781 -1011.5765)">
		<stop  offset="0" style="stop-color:#796F6B"/>
		<stop  offset="1" style="stop-color:#EBE4E1"/>
	</linearGradient>
	<path style="fill:url(#SVGID_00000080910557480285657630000004706773779887870625_);" d="M313.1,45.8c0.7,1.9,0.9,5.6,0.6,8.4
		c-1.5,12.5-11.2,18-27.2,15.3C266,66.1,235.7,63.8,227,65c-6.1,0.9-6.8,1.2-12,6.7c-6.6,6.8-11.9,14.5-12.6,18.3
		c-0.5,2.2,0.4,3.9,4.7,9.1c6.3,7.7,9,10.5,6.5,6.9c-2.5-3.8-2-6.8,2.5-13.7c5.3-8.2,12.9-15,18.2-16.4s16-0.8,46.2,2.6
		c19.8,2.2,25,2.5,29.4,1.6c9.1-1.8,13.4-7.6,13.5-17.6c0-7-1.1-9.3-7.1-15.5l-4.3-4.5L313.1,45.8z"/>
	
		<linearGradient id="SVGID_00000048462781878388754270000017534876911970208946_" gradientUnits="userSpaceOnUse" x1="-1485.6049" y1="-28.8684" x2="-1484.6049" y2="-28.8684" gradientTransform="matrix(21.52 0 0 -38 32001.8301 -906)">
		<stop  offset="0" style="stop-color:#B0A7A6"/>
		<stop  offset="1" style="stop-color:#B0A7A6"/>
	</linearGradient>
	<path style="fill:url(#SVGID_00000048462781878388754270000017534876911970208946_);" d="M38.5,178.3c-5.8,5.6-6.5,6.7-6.5,10.1
		s0.8,4.6,6.8,10.8C44.4,205,51.1,210,53.5,210c0.3,0-2.9-3.2-7-7.1c-8-7.6-9.5-10.5-7.6-14.5c1.1-2.4,5.5-8.5,9.4-12.8
		c2.3-2.7,2.2-3.6-0.8-3.6C45.9,172,42.9,174,38.5,178.3z"/>
	
		<linearGradient id="SVGID_00000011723591909039652820000006390793257601280438_" gradientUnits="userSpaceOnUse" x1="-1551.5739" y1="-5.9874" x2="-1550.5341" y2="-5.8074" gradientTransform="matrix(241.48 0 0 -174.41 374727.0312 -917.8995)">
		<stop  offset="0" style="stop-color:#1A1109"/>
		<stop  offset="1" style="stop-color:#392D26"/>
	</linearGradient>
	<path style="fill:url(#SVGID_00000011723591909039652820000006390793257601280438_);" d="M190.5,27.1C174.7,31,157.6,40.3,149,49.7
		c-8,8.7-16.3,18.3-17.9,20.6c-0.9,1.3-2.5,3.2-3.6,4.3s-9,10.1-17.5,20c-8.5,9.8-16.3,18.8-17.5,20c-1.1,1.1-3.5,3.8-5.4,6
		c-3,3.5-7.8,9-17.8,20.3c-3,3.3-3.2,3.4-3.3,1.3c0-1.9-0.3-2.1-1.9-1.2c-3.2,1.7-6.4,7.7-5.6,10.7c0.8,3.2,8,10.2,25,24.4
		c5.1,4.3,10.2,8.8,12.9,11.5c4.3,4.2,14.2,12.1,15.9,12.7c3.5,1.3,6.5-0.3,7.3-3.6c0.8-4,6.8-16,10.3-20.7c4.2-5.7,9.4-10,13-10.6
		c5-1,13.8,1.9,26.9,8.8c6.4,3.3,11.9,6.4,12.2,6.8c0.3,0.3,2.4,1.7,4.8,3c2.3,1.3,4.2,2.7,4.2,3.1c0,1.2,6.1,3.2,6.9,2.3
		c7.2-7.6,9-10.6,7.9-12.4c-1-1.6-0.6-2.5,3.1-6.7c9.4-10.5,10.5-11.4,12.4-10.9c2.3,0.6,7.2-3.8,8.7-7.9c1.1-2.8,0.7-3.8-3-7.6
		c-0.8-0.9-4.2-4.7-7.5-8.4c-3.3-3.8-7.3-8.3-9-10c-1.6-1.8-3.9-4.3-5-5.6c-16-19.2-17.5-21.7-17.5-29.1c0-4.5,2.7-12.8,4.1-12.8
		c0.5,0,0.9-0.5,0.9-1.1c0-2.1,8.8-13.6,13.9-18.1c8-7.2,10.7-8.1,25.6-8.6c12.2-0.3,19.3,0.2,51,4.1c12,1.5,15.9,1,16.3-1.9
		c0.3-2.3-0.2-2.5-11.3-4c-2.7-0.3-15.8-4.2-29-8.4c-43.1-14.1-39.8-13.2-53-13.6C199.9,26.2,192.7,26.5,190.5,27.1L190.5,27.1z"/>
	
		<linearGradient id="SVGID_00000152977850361678247230000017810216484107482283_" gradientUnits="userSpaceOnUse" x1="-1511.5902" y1="-29.1021" x2="-1510.5901" y2="-29.1021" gradientTransform="matrix(33.57 0 0 -37.7 50950.7188 -918.1998)">
		<stop  offset="0" style="stop-color:#E39353"/>
		<stop  offset="1" style="stop-color:#E39353"/>
	</linearGradient>
	<path style="fill:url(#SVGID_00000152977850361678247230000017810216484107482283_);" d="M222.3,166.8
		c-10.5,11.7-16.3,18.5-16.3,19.1c0,0.3,2.8,3.1,6.3,6.2l6.3,5.7l2.3-4l2.3-4l-5.1-5.2c-4-4.1-4.9-5.4-3.9-6.4s2.3-0.2,6.3,3.7
		l5,4.9l7.5-7.9c7.3-7.6,7.4-7.9,5.6-9.5c-1.1-0.9-3.8-3.4-6.1-5.5l-4.2-3.8L222.3,166.8L222.3,166.8z"/>
	
		<linearGradient id="SVGID_00000065796789784124608080000005057461067933521795_" gradientUnits="userSpaceOnUse" x1="-1553.1084" y1="-3.1577" x2="-1552.9884" y2="-3.0277" gradientTransform="matrix(347.78 0 0 -309.91 540497.9375 -633.2589)">
		<stop  offset="0" style="stop-color:#F1B86B"/>
		<stop  offset="1" style="stop-color:#F5BB6C"/>
	</linearGradient>
	<path style="fill:url(#SVGID_00000065796789784124608080000005057461067933521795_);" d="M232.6,179.1c-3.6,3.9-6.6,7.4-6.5,7.7
		c0,0.4,2.6,2.9,5.7,5.6s10,9,15.2,14c22.2,21.2,33,31.1,48.3,44.6c2.2,1.9,4.9,4.4,6.1,5.5s4.8,4.2,8.1,6.9
		c7.1,5.9,28.5,26.6,47.4,46c19.6,20,24.9,25.3,33.1,32.6c4,3.6,8.5,7.6,10,9s8.3,7.7,15.1,14.1c6.8,6.3,14.6,13.5,17.4,16
		c2.7,2.4,7.2,6.5,10,9.1c2.7,2.6,11.3,9.7,19,15.8c33,26.3,36.1,29,35.2,31.5c-0.5,1.1-3.7-1-13-8.8c-6.9-5.6-13.7-11.2-15.3-12.4
		s-5.6-4.3-8.9-6.8c-11-8.4-18.5-14.7-25.9-21.8c-2.1-2-4.2-3.7-4.5-3.7c-0.4,0-2.9-2.1-5.6-4.8c-5.7-5.3-23.9-22-32.9-30.1
		c-3.4-3-16.7-16.1-29.6-29.2s-26-25.9-29-28.5c-3-2.5-9.3-8.3-14-12.8c-4.7-4.4-15-14.2-22.9-21.6c-8-7.4-16.1-15.1-18.1-17
		s-9.7-9.1-17.1-16c-7.3-6.9-16.8-15.7-20.9-19.7c-4.1-3.9-9.2-8.6-11.3-10.3c-2.8-2.4-3.6-3.8-3.1-5.2c0.9-2.9-8.3-12.3-10.3-10.6
		c-1.1,0.9-0.4,2.1,3.7,6.3l5.2,5.3l-2.3,3.9l-2.3,4l4.6,4.4c4.1,4,22.1,20.7,28.7,26.8c4.4,4,27.1,25.3,32.6,30.6
		c12.1,11.6,37,35.1,50,47.2c7.7,7.2,21.5,20.4,30.7,29.4s18.7,18.2,21,20.4c7.1,6.4,26.7,24.5,33.2,30.6c3.4,3.1,9.2,8.5,13,12
		c3.9,3.5,8.6,8,10.6,9.9c5.8,5.7,13.8,12.8,25.5,22.8c6.1,5.2,11.7,10.2,12.5,11.1c0.9,0.9,4.5,4.1,8,7.1c3.6,3,7,5.9,7.6,6.5
		c0.6,0.5,3.3,2.8,5.8,5c2.6,2.1,5.8,4.8,7,6c19.1,17.1,20.2,17.5,29.5,8.9c10-9.3,21.5-25.1,22.6-31c0.5-2.6-0.4-3.9-7.2-11
		c-7.6-7.9-12.9-12.8-24.8-22.9c-3.2-2.8-6.9-6-8.1-7.1c-1.2-1.2-3.7-3.2-5.6-4.5c-1.8-1.3-4-3.1-4.9-3.9c-0.8-0.8-3.3-3-5.5-4.8
		c-4-3.4-14.4-12.7-19.4-17.2c-1.5-1.4-4-3.6-5.6-4.9c-7-5.9-14.9-12.6-15.4-13.1c-0.3-0.3-1.8-1.6-3.5-2.9
		c-2.8-2.1-10.7-8.9-16.1-13.6c-1.2-1.1-4.4-3.8-7-6s-8-6.7-11.8-10c-3.9-3.3-11.1-9.4-16.1-13.5c-4.9-4.1-9.2-7.7-9.5-8
		c-0.7-0.8-17-13.9-20.6-16.5c-1.5-1.1-7.5-5.8-13.4-10.5s-14.8-11.7-19.9-15.5c-11.3-8.7-10.8-8.3-33.1-26.5
		c-23.6-19.3-26-21.3-27.4-22.5c-0.6-0.6-5.1-4.3-10.1-8.4c-4.9-4.1-9.7-8.2-10.6-9c-0.9-0.9-3.8-3.4-6.5-5.6
		c-2.6-2.2-5.7-4.9-6.9-6c-3.5-3.6-11.2-9.5-12.2-9.5C239.7,172,236.3,175.2,232.6,179.1L232.6,179.1z"/>
	
		<linearGradient id="SVGID_00000017503993193285342390000015772235915181655438_" gradientUnits="userSpaceOnUse" x1="-1528.4738" y1="-22.2803" x2="-1527.4838" y2="-22.2703" gradientTransform="matrix(52.77 0 0 -49 80683.9375 -905)">
		<stop  offset="0" style="stop-color:#7F7F7F;stop-opacity:0.66"/>
		<stop  offset="1" style="stop-color:#7F7F7F;stop-opacity:0.69"/>
	</linearGradient>
	<path style="fill:url(#SVGID_00000017503993193285342390000015772235915181655438_);" d="M43.9,167.8c-3,3.3-7.2,8-9.4,10.7
		c-2.2,2.6-4.7,5.5-5.6,6.4c-2.6,2.5-0.8,5.5,10,16.3C48,210.3,49,211,52.6,211c2.1,0,6.2-1.1,9.1-2.4c5.1-2.4,14.4-10.7,17.7-15.8
		c1.6-2.5,1.6-2.8,0.1-5.2c-1-1.4-2-2.6-2.4-2.6c-0.3,0-1.7-1-3.1-2.3s-5.6-5-9.5-8.4c-3.8-3.3-8.5-7.5-10.4-9.2S50.3,162,50,162
		C49.6,162,46.9,164.6,43.9,167.8z M50,172.8c0,0.5-0.8,1.7-1.7,2.8c-3.9,4.3-8.3,10.4-9.4,12.8c-1.9,4-0.4,6.9,7.6,14.5
		c4.1,3.9,7.3,7.1,7,7.1c-2.4,0-9.1-5-14.7-10.8c-6-6.2-6.8-7.5-6.8-10.8s0.7-4.5,6.5-10.1c4.4-4.3,7.4-6.3,9-6.3
		C48.9,172,50,172.4,50,172.8z"/>
	
		<linearGradient id="SVGID_00000179616155318242579430000014867019594450851518_" gradientUnits="userSpaceOnUse" x1="-1538.7612" y1="-21.3037" x2="-1537.7612" y2="-21.3037" gradientTransform="matrix(81 0 0 -51.16 124666 -877.0784)">
		<stop  offset="0" style="stop-color:#000000;stop-opacity:0.41"/>
		<stop  offset="1" style="stop-color:#000000;stop-opacity:0.41"/>
	</linearGradient>
	<path style="fill:url(#SVGID_00000179616155318242579430000014867019594450851518_);" d="M83.3,188.5c-0.4,1.3,1,3.1,5.3,6.9
		c12,10.5,13.6,12.3,13,14.2c-0.3,1.1-3.3,4.8-6.7,8.4c-3.3,3.6-7.2,8-8.6,9.8c-4,5.1-5.6,5.6-10.4,3.1c-2.3-1.1-4.7-2.5-5.3-3
		s-4.1-3.2-7.8-5.9c-3.7-2.8-8.7-6.8-11-9c-2.4-2.2-4.9-4-5.6-4c-3,0-7.4-3.4-13.6-10.5c-3.6-4.2-6.6-7.1-6.6-6.6
		c0,4.3,39.2,40.1,43.8,40.1c0.5,0,1.5,0.7,2.2,1.4c0.6,0.8,3.2,2.3,5.7,3.2l4.6,1.8l4.9-5.5c10.6-11.5,19.8-23.1,19.8-24.8
		c0-1.8-3.8-5.6-15.3-15.6C84.8,186.6,84.2,186.3,83.3,188.5L83.3,188.5z"/>
	
		<linearGradient id="SVGID_00000107570940311790663340000009247010775950046617_" gradientUnits="userSpaceOnUse" x1="-1554.8164" y1="-2.0299" x2="-1554.4564" y2="-1.5501" gradientTransform="matrix(564.61 0 0 -486.91 878118.625 -612.8683)">
		<stop  offset="0" style="stop-color:#FFFFFF;stop-opacity:0.99"/>
		<stop  offset="1" style="stop-color:#FFFFFF"/>
	</linearGradient>
	<path style="fill:url(#SVGID_00000107570940311790663340000009247010775950046617_);" d="M196.7,16.4c-7.3,2.2-12.6,4.7-6.2,3
		c5.5-1.5,24.6-0.9,31.5,1c13.4,3.6,59.3,18.4,65.5,21c1.7,0.7,5.2,1.9,7.8,2.6c5.9,1.6,8.2,4.5,7.3,9.4c-1.3,6.6-1.1,6.6-34.1,2.6
		c-21.8-2.6-44.4-3.1-49.5-1.1c-10.9,4.4-28,26.3-28,35.8c0,5.2,4.1,12.1,12.9,21.8c1,1.1,5.1,5.8,9.1,10.5s7.6,8.7,8,9
		s3.4,3.7,6.8,7.7c5.3,6.1,6.2,7.8,6.2,11c0,4,1.3,5.9,8.1,11.7c1.9,1.6,5,4.3,7,6s6.7,5.9,10.5,9.2c3.8,3.4,13.2,11.4,20.9,17.8
		c7.7,6.5,15.4,12.9,17.2,14.4c1.7,1.5,4.6,3.9,6.5,5.4c1.8,1.5,10.3,8.4,18.8,15.3c8.5,7,16.6,13.5,18,14.6
		c12.2,9.4,22.5,17.4,27.5,21.1c1.7,1.2,3.2,2.5,3.5,2.8s2.1,1.7,4,3s4,2.9,4.6,3.5c0.7,0.5,2.9,2.3,4.9,4c5,4,11.5,9.3,14,11.3
		c1.1,1,3.6,2.8,5.5,4.2c1.9,1.3,5.5,4.3,8,6.6s6.5,5.9,9,7.9s5.4,4.4,6.5,5.3c1.1,1,6.5,5.5,12,10.1c11,9.2,19.7,16.5,23,19.6
		c4.4,3.9,13.7,11.8,16.3,13.9c3.7,2.8,16.3,13.5,18.3,15.5c0.9,0.9,3.8,3.4,6.4,5.6c2.7,2.2,5.5,4.7,6.4,5.6
		c1.6,1.7,6.1,5.5,14.1,11.9c2.4,1.9,5.4,4.4,6.6,5.5c1.3,1.1,5.3,4.7,9.1,7.9c12.1,10.6,26.4,25.5,27.9,29.2c1,2.3,1.3,4.8,0.8,6.7
		c-0.7,3.3-3.5,9.8-4.5,10.7c-0.3,0.3-1.2,1.6-1.9,3c-2.3,4.4-11.5,15.3-18.3,21.7c-10.3,9.7-17.6,10.7-26,3.5
		c-2.4-2-6.3-5.3-8.6-7.2c-2.4-1.9-5.3-4.4-6.5-5.5c-1.3-1.1-4.9-4.3-8.2-7c-3.2-2.8-9.4-8.2-13.8-12c-4.3-3.9-11.2-9.8-15.3-13.2
		c-7.8-6.5-11.6-10-24.6-22.3c-4.4-4.1-8.5-8-9.1-8.5c-0.6-0.6-3.9-3.5-7.2-6.5c-21.6-19.9-29.1-26.8-31.3-29.1
		c-1.4-1.4-6.9-6.4-12.1-11s-9.9-9-10.4-9.8c-0.5-0.9-4.4-4.7-8.5-8.6c-4.2-3.8-13.9-13.1-21.6-20.6c-17.4-16.8-20.4-19.7-30.1-28.4
		c-4.2-3.9-10.5-9.7-13.9-13c-6.4-6.3-30.2-28.8-43.8-41.5c-4.5-4.1-11.7-10.9-16.2-15.1c-9-8.5-20.5-19.2-27.9-25.9
		c-2.7-2.5-5.8-5.3-6.8-6.2c-1.2-1.2-2.7-1.6-4.7-1.2c-3.2,0.7-4.5,0.1-15.6-7.1c-11.4-7.3-22.6-13.1-30.6-15.6
		c-6.9-2.2-7-2.2-10.5-0.3c-3.6,1.9-8.2,7-11.6,12.8C126.5,188,123,196,123,198c0,2.5-4.6,6-8,6c-2.7,0-3.4,0.9-6.1,7.9
		c-0.7,1.9-2.2,4.4-3.3,5.7c-1.2,1.2-4.8,5.3-8.1,9c-14.2,16.1-14.7,16.3-23.7,11.8c-12.9-6.6-36-25.9-46.3-38.9
		c-2.2-2.7-4.6-5.6-5.3-6.4c-0.7-0.7-1.6-2.6-1.9-4.2l-0.5-2.9l-1.9,2.4c-2.4,3.1-2.4,5.2,0.2,13.8c1.7,5.5,3.1,7.9,6.9,11.6
		c8.4,8.4,16.3,15.3,24.5,21.6c12,9.1,13.8,10.3,20.6,13.6c8.5,4.1,14.8,4.1,21.2,0c2.6-1.6,4.7-3.3,4.7-3.7c0-0.5,2.2-3.1,4.8-5.9
		c8.8-9.5,16.4-18.8,17.9-22c1-1.9,2.8-3.5,4.9-4.3c4.4-1.6,6.8-4.9,10.8-14.9c4.4-10.8,9.4-18.1,12.4-18.2c4,0,29.7,13.5,35.8,18.8
		c2.2,1.9,7,4,10.9,4.8c2.2,0.4,5.1,1.5,6.3,2.5c2.5,1.9,24.7,22.4,29.2,26.9c1.4,1.4,8.8,8.4,16.5,15.5s17.4,16.1,21.5,20
		c19.8,19,215.9,200.3,226.1,209c24.5,21,28.1,23.4,36,23.5c12,0.1,23.7-8.8,40.6-30.8c4.2-5.5,10.1-18.2,10.8-23.2
		c0.5-3.6,0.2-6.5-1-10.2c-1.6-5-2.6-6.1-16.3-17.3c-8-6.6-18-14.9-22.2-18.5s-9.6-8.1-11.9-10s-5.2-4.4-6.5-5.5
		c-1.2-1.1-4.4-3.8-7-6s-5.8-4.9-7-6s-4.2-3.6-6.6-5.5s-7.6-6.2-11.5-9.5c-5.8-5-30.7-25.8-39.4-33c-1.3-1.1-3.4-2.9-4.7-4
		c-1.2-1.2-4.1-3.6-6.4-5.5s-5.5-4.6-7-6s-4.5-3.9-6.6-5.7c-2.2-1.7-13-10.7-24-20c-11.1-9.2-22.1-18.4-24.4-20.3
		c-2.4-1.9-5.7-4.7-7.4-6.2c-9.4-8.2-35.7-30.3-53.6-45.2c-11.3-9.3-23.7-19.7-27.6-23c-3.9-3.4-9-7.7-11.3-9.6
		c-2.4-1.9-5.3-4.4-6.6-5.5c-8.2-7.3-15.1-13.2-16.9-14.5c-1.2-0.8-2.5-1.9-3.1-2.5c-0.5-0.6-2.9-2.6-5.3-4.5
		c-3.6-2.7-4.2-3.7-3.7-5.7c0.3-1.3,0-3.3-0.6-4.4c-2.1-3.9-16.1-21.7-32.2-40.9c-6.7-7.9-7.8-9.7-7.3-12c0.7-3.8,6-11.4,12.6-18.3
		c5.2-5.5,5.9-5.8,12-6.7c8.7-1.2,39,1.1,59.5,4.5c16,2.7,25.7-2.8,27.2-15.3c0.3-2.8,0-6.5-0.6-8.5c-1.1-3.3-1.6-3.6-11.4-6.7
		c-5.6-1.7-12-3.8-14.2-4.5c-5.1-1.7-22.5-7.2-38-12c-6.6-2-12.9-4.1-14-4.6C225.7,13.5,208.8,12.8,196.7,16.4L196.7,16.4z"/>
	
		<linearGradient id="SVGID_00000023991740031614389590000007602408622035742140_" gradientUnits="userSpaceOnUse" x1="-1555.1564" y1="-2.9207" x2="-1554.1963" y2="-2.8206" gradientTransform="matrix(556.94 0 0 -331.32 866190.1875 -604.4866)">
		<stop  offset="0" style="stop-color:#FFFFFF;stop-opacity:0.6"/>
		<stop  offset="1" style="stop-color:#FFFFFF;stop-opacity:0.66"/>
	</linearGradient>
	<path style="fill:url(#SVGID_00000023991740031614389590000007602408622035742140_);" d="M141.1,185.1c-1.9,2.7-4.9,8.6-6.7,13.1
		c-4,10-6.4,13.3-10.8,14.9c-2.1,0.8-3.9,2.4-4.9,4.3c-1.5,3.2-9.1,12.5-17.9,22c-2.6,2.8-4.8,5.4-4.8,5.9c0,0.4-2.1,2.1-4.7,3.7
		c-6.4,4.1-12.7,4.1-21.2,0c-3.5-1.7-7.7-4.1-9.4-5.3c-6.3-4.4-20.2-15.1-21.2-16.3c-0.5-0.6-3-2.8-5.5-4.9s-0.2,0.5,5,5.6
		c8.3,8.2,18.3,16.7,27.5,23.4c1.5,1.1,6.3,4,10.8,6.4c7.7,4.1,8.4,4.3,14.9,3.9l6.9-0.4l7.3-7.4c8.5-8.7,16.8-18.5,21.4-25.3
		c1.8-2.6,3.9-4.7,4.7-4.7c2.8,0,8.3-6.5,10.1-12c3.2-10.1,11.2-22,14.7-22c2.1,0,16.3,6.9,20.9,10.1c1.4,1.1,2.8,1.9,3.1,1.9
		s3.8,2.2,7.7,4.9s9.3,5.5,12,6.2s5.1,1.8,5.2,2.4c0.4,1.7,315.8,293.9,318.2,294.8c1.2,0.5,6.4,0.9,11.6,1c8.5,0.1,10.1-0.1,15-2.5
		c10.9-5.4,28.5-26,36-42.1c5.3-11.5,3.4-22.1-5.6-30.8l-3.3-3.1l1.6,4.3c2.1,6.3,1,13.2-3.8,22.5c-4.2,8.1-5.3,9.7-13.5,19.7
		c-15.2,18.2-28.1,24.8-40.5,20.3c-8.3-2.9-25.4-18.2-143.9-128c-56.9-52.7-106.9-99.1-111-103.1c-4.1-3.9-13.8-12.9-21.5-20
		S230.4,234.4,229,233c-4.5-4.5-26.7-25-29.2-26.9c-1.2-1-4.1-2.1-6.3-2.5c-3.9-0.8-8.7-2.9-10.9-4.8c-6.1-5.3-31.8-18.8-35.8-18.8
		C145.2,180,143.5,181.5,141.1,185.1L141.1,185.1z"/>
	
		<linearGradient id="SVGID_00000047042045749436081660000014787733775039046828_" gradientUnits="userSpaceOnUse" x1="-1544.0238" y1="-8.8723" x2="-1545.0638" y2="-9.0224" gradientTransform="matrix(120.5 0 0 -117.69 186343 -956.2299)">
		<stop  offset="0" style="stop-color:#555555;stop-opacity:0.19"/>
		<stop  offset="1" style="stop-color:#555555;stop-opacity:0.36"/>
	</linearGradient>
	<path style="fill:url(#SVGID_00000047042045749436081660000014787733775039046828_);" d="M209,40c-15.4,4.9-29.6,15.7-36.7,28
		c-1.5,2.5-3.2,5.2-3.9,6c-1.9,2.4-6.4,15.8-6.4,19.3c0,1.8,1.3,5.9,2.9,9.2c2.4,5,6.7,9.7,26.3,29c12.9,12.6,24.6,23.6,26.1,24.4
		c2.4,1.3,2.9,1.2,4.8-0.5c5-4.5,4.6-6.1-4.2-15.4c-3.7-3.9-20.5-23.3-25.9-29.9c-9.3-11.4-10.8-20.8-5-31.6
		c8.2-15.3,16.2-23.9,27.6-30c6.3-3.3,7.3-3.5,15.8-3.4c8.7,0,13.2,0.4,29.1,2.7c3.9,0.6,10.6,1.3,15,1.5l8,0.5l-5.5-1.5
		c-6.5-1.8-30.1-7-38-8.3C232.5,38.8,212.6,38.8,209,40L209,40z"/>
	
		<linearGradient id="SVGID_00000048482381516260539580000010440091105010147495_" gradientUnits="userSpaceOnUse" x1="-1550.3849" y1="-6.4779" x2="-1550.6747" y2="-5.6378" gradientTransform="matrix(224.12 0 0 -170.39 347682.1875 -916.0792)">
		<stop  offset="0" style="stop-color:#FFFFFF;stop-opacity:0.23"/>
		<stop  offset="1" style="stop-color:#FFFFFF;stop-opacity:0.38"/>
	</linearGradient>
	<path style="fill:url(#SVGID_00000048482381516260539580000010440091105010147495_);" d="M181,31.8c-5.3,1-11.3,2.8-13.5,4.2
		c-9.6,5.6-14.3,9.1-18.5,13.7c-8,8.7-16.3,18.3-17.9,20.6c-0.9,1.3-2.5,3.2-3.6,4.3s-9,10.1-17.5,20c-8.5,9.8-16.3,18.8-17.5,20
		c-1.1,1.1-3.5,3.8-5.4,6c-3,3.5-7.8,9-17.8,20.3c-3,3.3-3.2,3.4-3.3,1.3c0-1.9-0.3-2.1-1.9-1.2c-3.2,1.7-6.4,7.7-5.6,10.7
		c0.8,3.2,8,10.2,25,24.4c5.1,4.3,10.2,8.8,12.9,11.5c4.3,4.2,14.2,12.1,15.9,12.7c3.5,1.3,6.5-0.3,7.3-3.6c0.8-4,6.8-16,10.3-20.7
		c4.2-5.7,9.4-10,13-10.6c5-1,13.8,1.9,26.9,8.8c6.4,3.3,11.9,6.4,12.2,6.8c0.3,0.3,2.4,1.7,4.8,3c2.3,1.3,4.2,2.7,4.2,3.1
		c0,1.2,6.1,3.2,6.9,2.3c7.2-7.6,9-10.6,7.9-12.4c-1.2-1.9-0.4-3.1,10.3-14.6c1.6-1.7,2.9-3.6,2.9-4.1s-1.9-2.5-4.2-4.3
		c-2.4-1.9-13.9-12.9-25.7-24.5c-28.2-27.7-30-31.3-24.5-46.7c1.4-4,3.2-8,3.8-8.8c0.7-0.8,2.4-3.5,3.9-6
		c3.3-5.8,11.8-14.7,18.4-19.3c5.5-3.8,15-8.1,20.5-9.2c2.9-0.5,2.6-0.2-2.2,2.5c-6.4,3.6-11,7.8-15.1,13.7c-6.3,9-2.4,9.8,6.8,1.4
		c4.5-4.2,8.7-6.9,13.8-9c9.9-4.2,17.7-4.2,45-0.3c3.9,0.6,10.6,1.3,15,1.5l8,0.5l-5.5-1.5c-3-0.8-10.4-2.5-16.5-3.9
		c-6-1.3-13.2-2.9-16-3.5c-2.7-0.7-9.9-1.6-16-2l-11-0.8l14,0.4l14,0.3l-7-2C216.1,30.5,196.9,28.8,181,31.8z M173.3,50.5
		c-6,1.6-11.9,5.1-17.6,10.4c-2.2,2-16.1,18.2-31,36.1C85.2,144.5,85,144.7,85,145.7c0,0.4,1.6,3.3,3.6,6.2l3.7,5.4l-3.4-2.3
		c-5.4-3.8-10.7-9.5-11.5-12.4c-0.5-2.3,0.2-3.6,5.2-8.9c3.3-3.4,9.1-9.8,12.9-14.1c3.9-4.4,8.1-9.1,9.5-10.6
		c3.1-3.3,15.9-17.5,23-25.5c3-3.3,5.6-6.2,5.9-6.5c0.8-0.7,6.5-7.2,12-13.8c7.3-8.7,17.6-14.1,27.1-14.1h5.5L173.3,50.5z
		 M152.6,144c3.4,0.6,7.5,1.7,9,2.5c1.6,0.8,3.4,1.5,3.9,1.5c1,0,15.6,8.2,17.9,10.1c9.7,7.7,19.6,16.7,19.6,18
		c0,0.9-1.6,3.3-3.6,5.3l-3.6,3.7l-3.1-2.1c-1.8-1.1-4.5-2.8-6.1-3.7c-1.5-1-4.4-2.8-6.3-4.1c-4-2.6-14.6-8.1-21.5-11.1
		c-6.1-2.7-14.6-3.7-19.1-2.2c-7.7,2.6-19.1,17.9-24,32.3c-0.9,2.4-3.1,2.2-6.1-0.5c-7.1-6.5-12.5-11.3-25.1-22.2
		c-22.6-19.6-22.8-19.8-22.1-22.2c0.9-2.7,3.7-3.8,4.8-1.9c0.5,0.8,1.4,2.1,2.1,2.8c0.6,0.7,2.3,2.9,3.6,4.8
		c3.4,5,10.8,10.7,16.9,13l5.2,2l5.3-2.4c3.1-1.4,8.1-5.2,12.5-9.5C125.8,145.3,136.8,141.4,152.6,144L152.6,144z"/>
	
		<linearGradient id="SVGID_00000121977943538940327960000008500503515138658470_" gradientUnits="userSpaceOnUse" x1="-1541.6" y1="-9.8015" x2="-1542.6299" y2="-9.8315" gradientTransform="matrix(101.24 0 0 -108.2 156248.375 -958.7009)">
		<stop  offset="0" style="stop-color:#FFFFFF;stop-opacity:0.62"/>
		<stop  offset="1" style="stop-color:#FFFFFF;stop-opacity:0.64"/>
	</linearGradient>
	<path style="fill:url(#SVGID_00000121977943538940327960000008500503515138658470_);" d="M164,50.4c-6.4,2.4-13.7,7.6-18.1,12.8
		c-5.5,6.6-11.2,13.1-12,13.8c-0.3,0.3-2.9,3.2-5.9,6.5c-7.1,8-19.9,22.2-23,25.5c-1.4,1.5-5.6,6.2-9.5,10.6
		c-3.8,4.3-9.6,10.7-12.9,14.1c-5,5.3-5.7,6.6-5.2,8.9c0.8,2.9,6.1,8.6,11.5,12.4l3.4,2.3l-3.7-5.4c-2-2.9-3.6-5.8-3.6-6.2
		c0-1,0.2-1.2,39.7-48.7c14.9-17.9,28.8-34.1,31-36.1c5.7-5.3,11.6-8.8,17.6-10.4l5.2-1.4H173C170,49.1,165.9,49.7,164,50.4z"/>
	
		<linearGradient id="SVGID_00000169537637537997294200000005899044725441418155_" gradientUnits="userSpaceOnUse" x1="-1543.8683" y1="-45.4675" x2="-1543.8483" y2="-44.7175" gradientTransform="matrix(114.18 0 0 -24.54 176510.25 -1065.4592)">
		<stop  offset="0" style="stop-color:#7F7F7F;stop-opacity:7.000000e-02"/>
		<stop  offset="1" style="stop-color:#7F7F7F;stop-opacity:0.62"/>
	</linearGradient>
	<path style="fill:url(#SVGID_00000169537637537997294200000005899044725441418155_);" d="M189.5,27.4c-6.2,1.7-16.9,5.8-13.5,5.2
		c22-3.9,37.4-2.9,62.5,4.2l7,2l-14-0.3l-14-0.4l11,0.8c6.1,0.4,13.3,1.3,16,2c2.8,0.6,10,2.2,16,3.5c6.1,1.3,14.8,3.3,19.5,4.5
		c17.3,4.4,10.6,1.3-16.5-7.6c-47-15.4-43.6-14.5-57-14.9C198.5,26.2,192.8,26.5,189.5,27.4z"/>
	
		<linearGradient id="SVGID_00000111184291999418205630000006916884501676900019_" gradientUnits="userSpaceOnUse" x1="-1545.9752" y1="-20.4849" x2="-1546.9653" y2="-20.635" gradientTransform="matrix(140.78 0 0 -52.79 217840.9219 -916.428)">
		<stop  offset="0" style="stop-color:#555555;stop-opacity:0.33"/>
		<stop  offset="1" style="stop-color:#555555;stop-opacity:0.49"/>
	</linearGradient>
	<path style="fill:url(#SVGID_00000111184291999418205630000006916884501676900019_);" d="M136.3,144.1c-7.5,1.3-15.2,5.8-23.5,14
		c-4.4,4.3-9.4,8.1-12.5,9.5L95,170l-5.2-2c-6.1-2.3-13.5-8-16.9-13c-1.3-1.9-3-4.1-3.6-4.8c-0.7-0.7-1.6-2-2.1-2.8
		c-1.1-1.9-3.9-0.8-4.8,1.9c-0.7,2.4-0.5,2.6,22.1,22.2c12.6,10.9,18,15.7,25.1,22.2c3,2.7,5.2,2.9,6.1,0.5c3-9,10.7-21.6,16.4-27.2
		c8.9-8.6,17.4-8,38,2.5c3.7,1.9,8.3,4.5,10.2,5.7c1.9,1.3,4.8,3.1,6.3,4.1c1.6,0.9,4.3,2.6,6.1,3.7l3.1,2.1l3.6-3.7
		c2-2,3.6-4.4,3.6-5.3c0-1.3-9.9-10.3-19.6-18c-2.3-1.9-16.9-10.1-17.9-10.1c-0.5,0-2.3-0.7-3.9-1.5c-3-1.6-13.4-3.6-17.6-3.4
		C142.6,143.2,139.2,143.6,136.3,144.1L136.3,144.1z"/>
</g>
<linearGradient id="SVGID_00000173877273379116514410000014922537347371766975_" gradientUnits="userSpaceOnUse" x1="-1553.9226" y1="-1.2932" x2="-1554.1025" y2="-2.1432" gradientTransform="matrix(573.98 0 0 -497.33 892719.375 -607.7433)">
	<stop  offset="0" style="stop-color:#4D301F"/>
	<stop  offset="1" style="stop-color:#5C3A28"/>
</linearGradient>
<path style="fill:url(#SVGID_00000173877273379116514410000014922537347371766975_);" d="M629,9.6c-1.1,0.3-6.7,2-12.5,4
	c-25.2,8.4-38.6,16.2-49,28.4c-3,3.5-6.1,7.1-7,8c-2.7,2.8-11.8,13.3-14.1,16.4c-1.3,1.6-2.6,3.2-2.9,3.5s-3,3.4-6,7
	c-3,3.5-6.2,7.1-7.1,8c-0.9,0.8-4.5,4.9-7.9,9c-3.5,4.1-10.4,11.9-15.4,17.4c-11.2,12.1-9.7,10.4-18.3,20.8c-6.8,8-7.3,9-7.3,13.3
	s-0.2,4.6-2,4c-4.9-1.6-7.8,0.4-20.2,14.1c-6.8,7.4-12.6,14.8-13,16.3c-0.5,1.6-1.5,3.4-2.3,4.1c-2,1.7-1.9,4.9,0.7,13.3
	c2,6.9,2.5,7.4,16.2,21.2c12.2,12.2,21.2,20.1,32.1,28c1.5,1.1,6.3,4,10.8,6.4c7.7,4.1,8.4,4.3,14.9,3.9l6.9-0.4l7.3-7.4
	c8.5-8.7,16.8-18.5,21.4-25.3c1.8-2.6,3.9-4.7,4.7-4.7c2.8,0,8.3-6.5,10.1-12c3.2-10.1,11.2-22,14.7-22c2.1,0,16.3,6.9,20.9,10.1
	c1.4,1.1,2.8,1.9,3.1,1.9s3.8,2.2,7.7,4.9s9.3,5.5,12,6.2s5.1,1.8,5.2,2.4c0.4,1.7,315.8,293.9,318.2,294.8c1.2,0.5,6.4,0.9,11.6,1
	c8.5,0.1,10.1-0.1,15-2.5c6.3-3.1,12.1-8.4,20.7-18.9c17.6-21.6,22.1-34.8,15.5-46c-4.1-7.1-8.5-11.4-28.4-28
	c-10-8.3-19.9-16.6-21.8-18.3c-2-1.7-5.5-4.7-7.9-6.6c-2.3-1.9-5.2-4.4-6.5-5.5c-1.2-1.1-4.4-3.8-7-6s-5.8-4.9-7-6s-4.2-3.6-6.6-5.5
	s-7.6-6.2-11.5-9.5c-5.8-5-30.7-25.8-39.4-33c-1.3-1.1-3.4-2.9-4.7-4c-1.2-1.2-4.1-3.6-6.4-5.5s-5.5-4.6-7-6s-4.5-3.9-6.6-5.7
	c-2.2-1.7-13-10.7-24-20c-11.1-9.2-22.1-18.4-24.4-20.3c-2.4-1.9-5.7-4.7-7.4-6.2c-9.4-8.2-35.7-30.3-53.6-45.2
	c-11.3-9.3-23.7-19.7-27.6-23c-3.9-3.4-9-7.7-11.3-9.6c-2.4-1.9-5.3-4.4-6.6-5.5c-8.2-7.3-15.1-13.2-16.9-14.5
	c-1.2-0.8-2.5-1.9-3.1-2.5c-0.5-0.6-2.9-2.6-5.3-4.5c-3.6-2.7-4.2-3.7-3.7-5.7c0.3-1.3,0-3.3-0.6-4.4c-2.1-3.9-16.1-21.7-32.2-40.9
	c-6.7-7.9-7.8-9.7-7.3-12c0.7-3.8,6-11.4,12.6-18.3c5.2-5.5,5.9-5.8,12-6.7c8.7-1.2,39,1.1,59.5,4.5c16,2.7,25.7-2.8,27.2-15.3
	c0.3-2.8,0-6.5-0.6-8.5c-1.1-3.3-1.6-3.6-11.4-6.7c-5.6-1.7-12-3.8-14.2-4.5c-5.1-1.7-22.5-7.2-38-12c-6.6-2-12.9-4.1-14-4.6
	C654.9,9.6,636.6,7.8,629,9.6L629,9.6z"/>
<linearGradient id="SVGID_00000103962596654770939770000012447890719178670780_" gradientUnits="userSpaceOnUse" x1="-1549.7734" y1="-3.5149" x2="-1548.7736" y2="-3.5149" gradientTransform="matrix(272.42 0 0 -250.77 423095.1875 -679.8516)">
	<stop  offset="0" style="stop-color:#F6D490"/>
	<stop  offset="1" style="stop-color:#F6D490"/>
</linearGradient>
<path style="fill:url(#SVGID_00000103962596654770939770000012447890719178670780_);stroke:#000000;stroke-miterlimit:10;" d="
	M908.4,77.9c-0.4,1.3,0.5,2.8,3.2,5.2c2.1,1.8,7.2,6.5,11.3,10.5c4.1,3.9,13.6,12.7,20.9,19.6c7.4,6.9,15.1,14.1,17.1,16
	c2,1.9,10.1,9.6,18.1,17c7.9,7.4,18.2,17.2,22.9,21.6c4.7,4.5,11,10.3,14,12.8c3,2.6,16.1,15.4,29,28.5s26.2,26.2,29.6,29.2
	c9,8.1,27.2,24.8,32.9,30.1c2.7,2.7,5.2,4.8,5.6,4.8c0.3,0,2.4,1.7,4.5,3.7c7.4,7.1,14.9,13.4,25.9,21.8c3.3,2.5,7.3,5.6,8.9,6.8
	s8.4,6.8,15.3,12.4c9.3,7.8,12.5,9.9,13,8.8c0.9-2.5-2.2-5.2-35.2-31.5c-7.7-6.1-16.3-13.2-19-15.8c-2.8-2.6-7.3-6.7-10-9.1
	c-2.8-2.5-10.6-9.7-17.4-16c-6.8-6.4-13.6-12.7-15.1-14.1s-6-5.4-10-9c-8.2-7.3-13.5-12.6-33.1-32.6c-18.9-19.4-40.3-40.1-47.4-46
	c-3.3-2.7-6.9-5.8-8.1-6.9s-3.9-3.6-6.1-5.5c-15.3-13.5-26.1-23.4-48.3-44.6c-10.5-10.1-20.8-19.4-21.4-19.4
	C909.3,76.2,908.8,77,908.4,77.9L908.4,77.9z"/>
<linearGradient id="SVGID_00000123402176932804397830000009494797698302566294_" gradientUnits="userSpaceOnUse" x1="-1494.3466" y1="-27.5928" x2="-1493.3464" y2="-27.5928" gradientTransform="matrix(33.57 0 0 -37.7 50950.7188 -918.1998)">
	<stop  offset="0" style="stop-color:#E39353"/>
	<stop  offset="1" style="stop-color:#E39353"/>
</linearGradient>
<path style="fill:url(#SVGID_00000123402176932804397830000009494797698302566294_);" d="M801.1,109.9
	c-10.5,11.7-16.3,18.5-16.3,19.1c0,0.3,2.8,3.1,6.3,6.2l6.3,5.7l2.3-4l2.3-4l-5.1-5.2c-4-4.1-4.9-5.4-3.9-6.4s2.3-0.2,6.3,3.7l5,4.9
	l7.5-7.9c7.3-7.6,7.4-7.9,5.6-9.5c-1.1-0.9-3.8-3.4-6.1-5.5l-4.2-3.8L801.1,109.9L801.1,109.9z"/>
<linearGradient id="SVGID_00000052798474554027712430000003017613265177606790_" gradientUnits="userSpaceOnUse" x1="-1551.3824" y1="-3.0202" x2="-1551.2625" y2="-2.8902" gradientTransform="matrix(347.78 0 0 -309.91 540497.9375 -633.2589)">
	<stop  offset="0" style="stop-color:#F1B86B"/>
	<stop  offset="1" style="stop-color:#F5BB6C"/>
</linearGradient>
<path style="fill:url(#SVGID_00000052798474554027712430000003017613265177606790_);" d="M832.3,137c-3.6,3.9-6.6,7.4-6.5,7.7
	c0,0.4,2.6,2.9,5.7,5.6s10,9,15.2,14c22.2,21.2,33,31.1,48.3,44.6c2.2,1.9,4.9,4.4,6.1,5.5s4.8,4.2,8.1,6.9
	c7.1,5.9,28.5,26.6,47.4,46c19.6,20,24.9,25.3,33.1,32.6c4,3.6,8.5,7.6,10,9s8.3,7.7,15.1,14.1c6.8,6.3,14.6,13.5,17.4,16
	c2.7,2.4,7.2,6.5,10,9.1c2.7,2.6,11.3,9.7,19,15.8c33,26.3,36.1,29,35.2,31.5c-0.5,1.1-3.7-1-13-8.8c-6.9-5.6-13.7-11.2-15.3-12.4
	s-5.6-4.3-8.9-6.8c-11-8.4-18.5-14.7-25.9-21.8c-2.1-2-4.2-3.7-4.5-3.7c-0.4,0-2.9-2.1-5.6-4.8c-5.7-5.3-23.9-22-32.9-30.1
	c-3.4-3-16.7-16.1-29.6-29.2s-26-25.9-29-28.5c-3-2.5-9.3-8.3-14-12.8c-4.7-4.4-15-14.2-22.9-21.6c-8-7.4-16.1-15.1-18.1-17
	s-9.7-9.1-17.1-16c-7.3-6.9-16.8-15.7-20.9-19.7c-4.1-3.9-9.2-8.6-11.3-10.3c-2.8-2.4-3.6-3.8-3.1-5.2c0.9-2.9-8.3-12.3-10.3-10.6
	c-1.1,0.9-0.4,2.1,3.7,6.3l5.2,5.3l-2.3,3.9l-2.3,4l4.6,4.4c4.1,4,22.1,20.7,28.7,26.8c4.4,4,27.1,25.3,32.6,30.6
	c12.1,11.6,37,35.1,50,47.2c7.7,7.2,21.5,20.4,30.7,29.4s18.7,18.2,21,20.4c7.1,6.4,26.7,24.5,33.2,30.6c3.4,3.1,9.2,8.5,13,12
	c3.9,3.5,8.6,8,10.6,9.9c5.8,5.7,13.8,12.8,25.5,22.8c6.1,5.2,11.7,10.2,12.5,11.1c0.9,0.9,4.5,4.1,8,7.1c3.6,3,7,5.9,7.6,6.5
	c0.6,0.5,3.3,2.8,5.8,5c2.6,2.1,5.8,4.8,7,6c19.1,17.1,20.2,17.5,29.5,8.9c10-9.3,21.5-25.1,22.6-31c0.5-2.6-0.4-3.9-7.2-11
	c-7.6-7.9-12.9-12.8-24.8-22.9c-3.2-2.8-6.9-6-8.1-7.1c-1.2-1.2-3.7-3.2-5.6-4.5c-1.8-1.3-4-3.1-4.9-3.9c-0.8-0.8-3.3-3-5.5-4.8
	c-4-3.4-14.4-12.7-19.4-17.2c-1.5-1.4-4-3.6-5.6-4.9c-7-5.9-14.9-12.6-15.4-13.1c-0.3-0.3-1.8-1.6-3.5-2.9
	c-2.8-2.1-10.7-8.9-16.1-13.6c-1.2-1.1-4.4-3.8-7-6s-8-6.7-11.8-10c-3.9-3.3-11.1-9.4-16.1-13.5c-4.9-4.1-9.2-7.7-9.5-8
	c-0.7-0.8-17-13.9-20.6-16.5c-1.5-1.1-7.5-5.8-13.4-10.5s-14.8-11.7-19.9-15.5c-11.3-8.7-10.8-8.3-33.1-26.5
	c-23.6-19.3-26-21.3-27.4-22.5c-0.6-0.6-5.1-4.3-10.1-8.4c-4.9-4.1-9.7-8.2-10.6-9c-0.9-0.9-3.8-3.4-6.5-5.6c-2.6-2.2-5.7-4.9-6.9-6
	c-3.5-3.6-11.2-9.5-12.2-9.5C839.4,129.9,836,133.1,832.3,137L832.3,137z"/>
<rect x="336.3" y="71.9" transform="matrix(0.6875 -0.7262 0.7262 0.6875 -109.8727 373.3273)" class="st25" width="85.1" height="484.8"/>
<rect x="930.9" y="26.2" transform="matrix(0.6875 -0.7262 0.7262 0.6875 109.1703 790.8387)" class="st25" width="85.1" height="484.8"/>
</svg>
