<?xml version="1.0" encoding="utf-8"?>
<!-- Generator: Adobe Illustrator 26.5.0, SVG Export Plug-In . SVG Version: 6.00 Build 0)  -->
<svg version="1.1" id="图层_1" xmlns="http://www.w3.org/2000/svg" xmlns:xlink="http://www.w3.org/1999/xlink" x="0px" y="0px"
	 viewBox="0 0 1181.5 520" style="enable-background:new 0 0 1181.5 520;" xml:space="preserve">
<style type="text/css">
	.st0{fill:none;}
	.st1{fill:#D3D3D3;}
	.st2{clip-path:url(#SVGID_00000149351557337892196510000018403350773935172002_);}
	.st3{fill:url(#SVGID_00000106827396712797399290000014903952769563088556_);}
	.st4{fill:url(#region-1-1_00000078016789741533786420000016706178122651146417_);}
	.st5{fill:url(#region-2-1_00000175305195337133301630000008892946365522009507_);}
	.st6{fill:url(#region-2-2_00000170267418852308252070000012020943102093746872_);}
	.st7{fill:url(#region-2-3_00000117636302424998096430000003194817220432459145_);}
	.st8{fill:url(#region-3-1_00000087389269658044530150000004725018408931424429_);}
	.st9{fill:url(#region-3-2_00000088119003496207113810000012518700985875137471_);}
	.st10{fill:url(#region-3-3_00000140697998138621525100000017796820650621889722_);}
	.st11{fill:url(#region-3-4_00000181076160798086433170000015209924498934684343_);}
	.st12{fill:url(#region-3-5_00000080924120171553154020000004444514509735476896_);}
	.st13{fill:url(#region-3-6_00000010290777746770403280000011402027290799581569_);}
	.st14{fill:url(#region-3-7_00000176755951692917607470000014825527899398130872_);}
	.st15{fill:url(#region-4-1_00000055703728413193832430000014005125839750087302_);}
	.st16{fill:url(#region-4-2_00000132776796252760638950000013750401381466139276_);}
	.st17{fill:url(#region-4-3_00000057121325817528798000000009738193755277884318_);}
	.st18{fill:url(#region-4-4_00000028294507917669615630000012959794041551079848_);}
	.st19{fill:url(#region-4-5_00000078034442093491866450000009400484871375494039_);}
	.st20{fill:url(#region-4-6_00000049942355353111774250000005594735584184145319_);}
	.st21{fill:url(#region-4-7_00000127018496880473812950000004559381949242305447_);}
	.st22{fill:url(#region-2-1-2_00000090295428084790768890000002290148840331505824_);}
	.st23{fill:url(#region-3-4-2_00000145056671693779752840000000594294944573733041_);}
	.st24{fill:url(#region-3-6-2_00000034809980393449855420000009258423293800579508_);}
	.st25{fill:url(#region-4-6-2_00000101820434047827646100000013572245663950498464_);stroke:#000000;stroke-miterlimit:10;}
	.st26{fill:none;stroke:#000000;stroke-width:3;stroke-miterlimit:10;}
	.st27{fill:none;stroke:#0000FF;stroke-width:4;stroke-miterlimit:10;}
</style>
<pattern  y="520" width="40" height="40" patternUnits="userSpaceOnUse" id="SVGID_0000017529885321422988102" viewBox="0 -40 40 40" style="overflow:visible;">
	<g>
		<rect y="-40" class="st0" width="40" height="40"/>
		<g>
			<rect y="-40" class="st0" width="40" height="40"/>
			<g>
				<rect y="-40" class="st0" width="40" height="40"/>
				<g>
					<rect y="-40" class="st0" width="40" height="40"/>
					<g>
						<rect y="-40" class="st0" width="40" height="40"/>
						<g>
							<rect y="-40" class="st0" width="40" height="40"/>
							<g>
								<rect y="-40" class="st0" width="40" height="40"/>
								<g>
									<polygon class="st0" points="0,0 40,0 40,-40 0,-40 									"/>
									<polygon class="st1" points="0,-20 20,-20 20,-40 0,-40 									"/>
									<polygon class="st1" points="20,0 40,0 40,-20 20,-20 									"/>
								</g>
							</g>
						</g>
					</g>
				</g>
			</g>
		</g>
	</g>
</pattern>
<g id="_图层_2">
	<g>
		<g>
			<g>
				<defs>
					<rect id="SVGID_1_" y="2.7" width="1181.5" height="520"/>
				</defs>
				<clipPath id="SVGID_00000088850854246828729570000009853634516024401809_">
					<use xlink:href="#SVGID_1_"  style="overflow:visible;"/>
				</clipPath>
				<g style="clip-path:url(#SVGID_00000088850854246828729570000009853634516024401809_);">
					
						<pattern  id="SVGID_00000114795257620151077640000015676417216150390441_" xlink:href="#SVGID_0000017529885321422988102" patternTransform="matrix(1 0 0 1 31.5 18123.1094)">
					</pattern>
					<rect y="2.7" style="fill:url(#SVGID_00000114795257620151077640000015676417216150390441_);" width="1180.7" height="519.7"/>
				</g>
			</g>
		</g>
	</g>
</g>
<g id="_图层_1">
	<g id="layer-1">
		
			<linearGradient id="region-1-1_00000023988079752981438370000008430290247257408949_" gradientUnits="userSpaceOnUse" x1="-1601.2913" y1="-2.0485" x2="-1600.0813" y2="-1.5385" gradientTransform="matrix(573.98 0 0 -497.33 919076.5 -607.7433)">
			<stop  offset="0" style="stop-color:#FBF6ED"/>
			<stop  offset="1" style="stop-color:#FFFFFF"/>
		</linearGradient>
		<path id="region-1-1" style="fill:url(#region-1-1_00000023988079752981438370000008430290247257408949_);" d="M202.5,14.7
			c-1.1,0.3-6.7,2-12.5,4c-25.2,8.4-38.6,16.2-49,28.4c-3,3.5-6.1,7.1-7,8c-2.7,2.8-11.8,13.3-14.1,16.4c-1.3,1.6-2.6,3.2-2.9,3.5
			s-3,3.4-6,7c-3,3.5-6.2,7.1-7.1,8c-0.9,0.8-4.5,4.9-7.9,9c-3.5,4.1-10.4,11.9-15.4,17.4c-11.2,12.1-9.7,10.4-18.3,20.8
			c-6.8,8-7.3,9-7.3,13.3s-0.2,4.6-2,4c-4.9-1.6-7.8,0.4-20.2,14.1c-6.8,7.4-12.6,14.8-13,16.3c-0.5,1.6-1.5,3.4-2.3,4.1
			c-2,1.7-1.9,4.9,0.7,13.3c2,6.9,2.5,7.4,16.2,21.2c12.2,12.2,21.2,20.1,32.1,28c1.5,1.1,6.3,4,10.8,6.4c7.7,4.1,8.4,4.3,14.9,3.9
			l6.9-0.4l7.3-7.4c8.5-8.7,16.8-18.5,21.4-25.3c1.8-2.6,3.9-4.7,4.7-4.7c2.8,0,8.3-6.5,10.1-12c3.2-10.1,11.2-22,14.7-22
			c2.1,0,16.3,6.9,20.9,10.1c1.4,1.1,2.8,1.9,3.1,1.9s3.8,2.2,7.7,4.9s9.3,5.5,12,6.2s5.1,1.8,5.2,2.4
			c0.4,1.7,315.8,293.9,318.2,294.8c1.2,0.5,6.4,0.9,11.6,1c8.5,0.1,10.1-0.1,15-2.5c6.3-3.1,12.1-8.4,20.7-18.9
			c17.6-21.6,22.1-34.8,15.5-46c-4.1-7.1-8.5-11.4-28.4-28c-10-8.3-19.9-16.6-21.8-18.3c-2-1.7-5.5-4.7-7.9-6.6
			c-2.3-1.9-5.2-4.4-6.5-5.5c-1.2-1.1-4.4-3.8-7-6s-5.8-4.9-7-6s-4.2-3.6-6.6-5.5s-7.6-6.2-11.5-9.5c-5.8-5-30.7-25.8-39.4-33
			c-1.3-1.1-3.4-2.9-4.7-4c-1.2-1.2-4.1-3.6-6.4-5.5s-5.5-4.6-7-6s-4.5-3.9-6.6-5.7c-2.2-1.7-13-10.7-24-20
			c-11.1-9.2-22.1-18.4-24.4-20.3c-2.4-1.9-5.7-4.7-7.4-6.2c-9.4-8.2-35.7-30.3-53.6-45.2c-11.3-9.3-23.7-19.7-27.6-23
			c-3.9-3.4-9-7.7-11.3-9.6c-2.4-1.9-5.3-4.4-6.6-5.5c-8.2-7.3-15.1-13.2-16.9-14.5c-1.2-0.8-2.5-1.9-3.1-2.5
			c-0.5-0.6-2.9-2.6-5.3-4.5c-3.6-2.7-4.2-3.7-3.7-5.7c0.8-3.5-0.7-5.9-19.5-29.3c-10-12.5-11-14-11-16.9c0-3.4,7.3-14.3,13.2-19.6
			c8.5-7.7,12.3-7.9,55.3-3c19.8,2.2,25,2.5,29.4,1.6c9.1-1.8,13.4-7.6,13.5-17.6c0-6.9-1.1-9.3-7.1-15.7c-3.9-4.1-5.6-5-14.6-7.8
			c-5.6-1.7-12-3.8-14.2-4.5c-5.1-1.7-22.5-7.2-38-12c-6.6-2-12.9-4.1-14-4.6C228.4,14.7,210.1,12.9,202.5,14.7L202.5,14.7z"/>
	</g>
	<g id="layer-2">
		
			<linearGradient id="region-2-1_00000117668426999670668280000003557567675820860334_" gradientUnits="userSpaceOnUse" x1="-1601.16" y1="-1.543" x2="-1599.96" y2="-2.073" gradientTransform="matrix(549.64 0 0 -471.67 880036.875 -626.1005)">
			<stop  offset="0" style="stop-color:#110000;stop-opacity:0.81"/>
			<stop  offset="1" style="stop-color:#5C2400;stop-opacity:0.81"/>
		</linearGradient>
		<path id="region-2-1" style="fill:url(#region-2-1_00000117668426999670668280000003557567675820860334_);" d="M192.5,19
			c-9.6,1.6-16,3.9-28.5,10.4c-10.3,5.4-16.7,10.3-23,17.7c-3,3.5-6.1,7.1-7,8c-2.7,2.8-11.8,13.3-14.1,16.4
			c-1.3,1.6-2.6,3.2-2.9,3.5s-3,3.4-6,7c-3,3.5-6.2,7.1-7.1,8c-0.9,0.8-4.5,4.9-7.9,9c-3.5,4.1-10.4,11.9-15.4,17.4
			c-11.2,12.1-9.7,10.4-18.3,20.8c-6.8,8-7.3,9-7.3,13.3s-0.2,4.6-2,4c-4.9-1.6-7.7,0.4-20.4,14.3C21.8,180.5,20,183,20,185.8
			c0,3,1.4,6.9,2.9,8.2c0.3,0.3,2.4,2.7,4.6,5.5c10.3,13,33.4,32.3,46.3,38.9c9,4.5,9.5,4.3,23.7-11.8c3.3-3.7,6.9-7.8,8.1-9
			c1.1-1.3,2.6-3.8,3.3-5.7c2.7-7,3.4-7.9,6.1-7.9c3.4,0,8-3.5,8-6c0-2,3.5-10,6.8-15.6c3.4-5.8,8-10.9,11.6-12.8
			c3.5-1.9,3.6-1.9,10.5,0.3c8,2.5,19.2,8.3,30.6,15.6c11.1,7.2,12.4,7.8,15.6,7.1c2-0.4,3.5,0,4.7,1.2c1,0.9,4.1,3.7,6.8,6.2
			c7.4,6.7,18.9,17.4,27.9,25.9c4.5,4.2,11.7,11,16.2,15.1c13.6,12.7,37.4,35.2,43.8,41.5c3.4,3.3,9.7,9.1,13.9,13
			c9.7,8.7,12.7,11.6,30.1,28.4c7.7,7.5,17.4,16.8,21.6,20.6c4.1,3.9,8,7.7,8.5,8.6c0.5,0.8,5.2,5.2,10.4,9.8s10.7,9.6,12.1,11
			c2.2,2.3,9.7,9.2,31.3,29.1c3.3,3,6.6,5.9,7.2,6.5c0.6,0.5,4.7,4.4,9.1,8.5c13,12.3,16.8,15.8,24.6,22.3c4.1,3.4,11,9.3,15.3,13.2
			c4.4,3.8,10.6,9.2,13.8,12c3.3,2.7,6.9,5.9,8.2,7c1.2,1.1,4.1,3.6,6.5,5.5c2.3,1.9,6.2,5.2,8.6,7.2c8.4,7.2,15.7,6.2,26-3.5
			c6.8-6.4,16-17.3,18.3-21.7c0.7-1.4,1.6-2.7,1.9-3c1-0.9,3.8-7.4,4.5-10.7c0.5-1.9,0.2-4.4-0.8-6.7c-1.5-3.7-15.8-18.6-27.9-29.2
			c-3.8-3.2-7.8-6.8-9.1-7.9c-1.2-1.1-4.2-3.6-6.6-5.5c-8-6.4-12.5-10.2-14.1-11.9c-0.9-0.9-3.7-3.4-6.4-5.6
			c-2.6-2.2-5.5-4.7-6.4-5.6c-2-2-14.6-12.7-18.3-15.5c-2.6-2.1-11.9-10-16.3-13.9c-3.3-3.1-12-10.4-23-19.6
			c-5.5-4.6-10.9-9.1-12-10.1c-1.1-0.9-4-3.3-6.5-5.3s-6.5-5.6-9-7.9s-6.1-5.3-8-6.6c-1.9-1.4-4.4-3.2-5.5-4.2c-2.5-2-9-7.3-14-11.3
			c-2-1.7-4.2-3.5-4.9-4c-0.6-0.6-2.7-2.2-4.6-3.5s-3.7-2.7-4-3s-1.8-1.6-3.5-2.8c-5-3.7-15.3-11.7-27.5-21.1
			c-1.4-1.1-9.5-7.6-18-14.6c-8.5-6.9-17-13.8-18.8-15.3c-1.9-1.5-4.8-3.9-6.5-5.4c-1.8-1.5-9.5-7.9-17.2-14.4
			c-7.7-6.4-17.1-14.4-20.9-17.8c-3.8-3.3-8.5-7.5-10.5-9.2s-5.1-4.4-7-6c-6.8-5.8-8.1-7.7-8.1-11.7c0-3.2-0.9-4.9-6.2-11
			c-3.4-4-6.4-7.4-6.8-7.7s-4-4.3-8-9s-8.1-9.4-9.1-10.5c-8.8-9.7-12.9-16.6-12.9-21.8c0-9.5,17.1-31.4,28-35.8
			c5.1-2,27.7-1.5,49.5,1.1c33,4,32.8,4,34.1-2.6c0.9-4.9-1.4-7.8-7.3-9.4c-2.6-0.7-6.1-1.9-7.8-2.6c-4-1.7-37.2-12.6-50.5-16.6
			C216.4,18.6,204.8,17.1,192.5,19L192.5,19z"/>
		
			<linearGradient id="region-2-2_00000053534633239783900060000004048183709837414543_" gradientUnits="userSpaceOnUse" x1="-1590.2803" y1="-16.157" x2="-1590.2803" y2="-17.157" gradientTransform="matrix(121.12 0 0 -65.05 192877.5781 -1011.5765)">
			<stop  offset="0" style="stop-color:#827773;stop-opacity:0.85"/>
			<stop  offset="1" style="stop-color:#A29793;stop-opacity:0.73"/>
		</linearGradient>
		<path id="region-2-2" style="fill:url(#region-2-2_00000053534633239783900060000004048183709837414543_);" d="M313.1,45.8
			c0.7,1.9,0.9,5.6,0.6,8.4c-1.5,12.5-11.2,18-27.2,15.3C266,66.1,235.7,63.8,227,65c-6.1,0.9-6.8,1.2-12,6.7
			c-6.6,6.8-11.9,14.5-12.6,18.3c-0.5,2.2,0.4,3.9,4.7,9.1c6.3,7.7,9,10.5,6.5,6.9c-2.5-3.8-2-6.8,2.5-13.7
			c5.3-8.2,12.9-15,18.2-16.4s16-0.8,46.2,2.6c19.8,2.2,25,2.5,29.4,1.6c9.1-1.8,13.4-7.6,13.5-17.6c0-7-1.1-9.3-7.1-15.5l-4.3-4.5
			L313.1,45.8z"/>
		
			<linearGradient id="region-2-3_00000031923454423315359040000016743072545300603798_" gradientUnits="userSpaceOnUse" x1="-1600.9889" y1="-3.4527" x2="-1600.1888" y2="-2.1827" gradientTransform="matrix(556.94 0 0 -331.32 891763.4375 -604.4866)">
			<stop  offset="0" style="stop-color:#CAB4C1;stop-opacity:0.14"/>
			<stop  offset="1" style="stop-color:#423E2B;stop-opacity:0.75"/>
		</linearGradient>
		<path id="region-2-3" style="fill:url(#region-2-3_00000031923454423315359040000016743072545300603798_);" d="M141.1,185.1
			c-1.9,2.7-4.9,8.6-6.7,13.1c-4,10-6.4,13.3-10.8,14.9c-2.1,0.8-3.9,2.4-4.9,4.3c-1.5,3.2-9.1,12.5-17.9,22
			c-2.6,2.8-4.8,5.4-4.8,5.9c0,0.4-2.1,2.1-4.7,3.7c-6.4,4.1-12.7,4.1-21.2,0c-3.5-1.7-7.7-4.1-9.4-5.3
			c-6.3-4.4-20.2-15.1-21.2-16.3c-0.5-0.6-3-2.8-5.5-4.9s-0.2,0.5,5,5.6c8.3,8.2,18.3,16.7,27.5,23.4c1.5,1.1,6.3,4,10.8,6.4
			c7.7,4.1,8.4,4.3,14.9,3.9l6.9-0.4l7.3-7.4c8.5-8.7,16.8-18.5,21.4-25.3c1.8-2.6,3.9-4.7,4.7-4.7c2.8,0,8.3-6.5,10.1-12
			c3.2-10.1,11.2-22,14.7-22c2.1,0,16.3,6.9,20.9,10.1c1.4,1.1,2.8,1.9,3.1,1.9s3.8,2.2,7.7,4.9s9.3,5.5,12,6.2s5.1,1.8,5.2,2.4
			c0.4,1.7,315.8,293.9,318.2,294.8c1.2,0.5,6.4,0.9,11.6,1c8.5,0.1,10.1-0.1,15-2.5c10.9-5.4,28.5-26,36-42.1
			c5.3-11.5,3.4-22.1-5.6-30.8l-3.3-3.1l1.6,4.3c2.1,6.3,1,13.2-3.8,22.5c-4.2,8.1-5.3,9.7-13.5,19.7
			c-15.2,18.2-28.1,24.8-40.5,20.3c-8.3-2.9-25.4-18.2-143.9-128c-56.9-52.7-106.9-99.1-111-103.1c-4.1-3.9-13.8-12.9-21.5-20
			S230.4,234.4,229,233c-4.5-4.5-26.7-25-29.2-26.9c-1.2-1-4.1-2.1-6.3-2.5c-3.9-0.8-8.7-2.9-10.9-4.8c-6.1-5.3-31.8-18.8-35.8-18.8
			C145.2,180,143.5,181.5,141.1,185.1L141.1,185.1z"/>
	</g>
	<g id="layer-3">
		
			<linearGradient id="region-3-1_00000128475284979035213750000002182469536614903211_" gradientUnits="userSpaceOnUse" x1="-1589.6896" y1="-44.3895" x2="-1588.9495" y2="-46.6895" gradientTransform="matrix(114.18 0 0 -24.54 181716.5312 -1065.4592)">
			<stop  offset="0" style="stop-color:#6C6A68;stop-opacity:0.65"/>
			<stop  offset="1" style="stop-color:#3D3B39;stop-opacity:0.84"/>
		</linearGradient>
		<path id="region-3-1" style="fill:url(#region-3-1_00000128475284979035213750000002182469536614903211_);" d="M189.5,27.4
			c-6.2,1.7-16.9,5.8-13.5,5.2c22-3.9,37.4-2.9,62.5,4.2l7,2l-14-0.3l-14-0.4l11,0.8c6.1,0.4,13.3,1.3,16,2c2.8,0.6,10,2.2,16,3.5
			c6.1,1.3,14.8,3.3,19.5,4.5c17.3,4.4,10.6,1.3-16.5-7.6c-47-15.4-43.6-14.5-57-14.9C198.5,26.2,192.8,26.5,189.5,27.4z"/>
		
			<linearGradient id="region-3-2_00000103237668025175682450000004206538791456196798_" gradientUnits="userSpaceOnUse" x1="-1595.4175" y1="-6.561" x2="-1594.3475" y2="-5.6309" gradientTransform="matrix(187.12 0 0 -170.42 298597.7188 -911.6909)">
			<stop  offset="0" style="stop-color:#4A4543;stop-opacity:0.87"/>
			<stop  offset="1" style="stop-color:#B7B9B7;stop-opacity:0.41"/>
		</linearGradient>
		<path id="region-3-2" style="fill:url(#region-3-2_00000103237668025175682450000004206538791456196798_);" d="M181,31.8
			c-5.3,1-11.3,2.8-13.5,4.2c-9.6,5.6-14.3,9.1-18.5,13.7c-8,8.7-16.3,18.3-17.9,20.6c-0.9,1.3-2.5,3.2-3.6,4.3s-9,10.1-17.5,20
			c-8.5,9.8-16.3,18.8-17.5,20c-1.1,1.1-3.5,3.8-5.4,6c-3,3.5-7.8,9-17.8,20.3c-3,3.3-3.2,3.4-3.3,1.3c0-1.9-0.3-2.1-1.9-1.2
			c-3.2,1.7-6.4,7.7-5.6,10.7c0.8,3.2,8,10.2,25,24.4c5.1,4.3,10.2,8.8,12.9,11.5c4.3,4.2,14.2,12.1,15.9,12.7
			c3.5,1.3,6.5-0.3,7.3-3.6c0.8-4,6.8-16,10.3-20.7c4.2-5.7,9.4-10,13-10.6c5-1,13.8,1.9,26.9,8.8c6.4,3.3,11.9,6.4,12.2,6.8
			c0.3,0.3,2.4,1.7,4.8,3c2.3,1.3,4.2,2.7,4.2,3.1c0,1.2,6.1,3.2,6.9,2.3c7.2-7.6,9-10.6,7.9-12.4c-1.2-1.9-0.4-3.1,10.3-14.6
			c1.6-1.7,2.9-3.5,2.9-3.9s1.1-1.6,2.5-2.7s3-2.8,3.6-3.9c1.1-2.2-0.4-4.6-7.2-11.9c-3.7-3.9-20.5-23.3-25.9-29.9
			c-9.3-11.4-10.8-20.8-5-31.6c7.5-13.9,16.3-24,24.8-28.4c2-1.1,3.3-2,2.9-2.1c-2.1-0.1-9.1,4.5-14.5,9.5c-8.7,8-12.4,7-6.3-1.9
			c3.9-5.7,9.9-10.9,16.3-14.3c5.1-2.7,5.8-2.8,20.3-2.7h15l-7-1.9C215.2,30.4,196.9,28.8,181,31.8L181,31.8z"/>
		
			<linearGradient id="region-3-3_00000046307913919804275400000007784508966665611681_" gradientUnits="userSpaceOnUse" x1="-1589.722" y1="-8.273" x2="-1589.722" y2="-9.273" gradientTransform="matrix(116.27 0 0 -120.38 185078.6875 -954.1144)">
			<stop  offset="0" style="stop-color:#001207;stop-opacity:0.33"/>
			<stop  offset="1" style="stop-color:#060700;stop-opacity:0.51"/>
		</linearGradient>
		<path id="region-3-3" style="fill:url(#region-3-3_00000046307913919804275400000007784508966665611681_);" d="M209,42.1
			c-6.3,3.5-11,7.6-15.1,13.6c-6.1,8.8-2.4,9.8,6.3,1.8c5.4-5,12.4-9.6,14.5-9.5c0.4,0.1-0.9,1-2.9,2.1
			c-8.5,4.4-17.3,14.5-24.8,28.4c-5.8,10.8-4.3,20.2,5,31.6c5.4,6.6,22.2,26,25.9,29.9c6.8,7.3,8.3,9.7,7.2,11.9
			c-0.6,1.1-2.2,2.8-3.6,3.9c-3,2.4-3.1,2.8-0.4,3.5c2.5,0.7,7.3-3.5,8.9-7.8c1.1-2.8,0.7-3.8-3-7.6c-0.8-0.9-4.2-4.7-7.5-8.4
			c-3.3-3.8-7.3-8.3-9-10c-1.6-1.8-3.9-4.3-5-5.6c-16-19.2-17.5-21.7-17.5-29.1c0-4.5,2.7-12.8,4.1-12.8c0.5,0,0.9-0.5,0.9-1.1
			c0-2.1,8.8-13.6,13.9-18.1c8-7.2,10.7-8.1,25.6-8.6c12.2-0.3,19.3,0.2,51,4.1c12.1,1.5,15.9,1,16.3-2c0.3-2.2-0.5-2.4-11.8-3.9
			l-3.5-0.4l3.5,1.4c5.2,2.1,1.2,1.9-8.2-0.5c-9.5-2.5-32.6-7.5-40.8-8.9c-3-0.6-9.8-1-15-1C215.3,39,214,39.3,209,42.1L209,42.1z"
			/>
		
			<linearGradient id="region-3-4_00000000223975817065734330000017209165003872863366_" gradientUnits="userSpaceOnUse" x1="-1555.4" y1="-28.847" x2="-1554.2" y2="-29.667" gradientTransform="matrix(32.96 0 0 -37.5 51469.4141 -918.4004)">
			<stop  offset="0" style="stop-color:#FF9D4D;stop-opacity:0.79"/>
			<stop  offset="1" style="stop-color:#FFB566;stop-opacity:0.83"/>
		</linearGradient>
		<path id="region-3-4" style="fill:url(#region-3-4_00000000223975817065734330000017209165003872863366_);" d="M221.9,167.2
			c-3.5,4-8,9.1-9.9,11.3c-7.1,8-7.1,6.9,0,13.4l6.4,5.7l4-6c2.3-3.4,7.2-9.4,11.1-13.3c6.8-7,7-7.3,5.1-8.9
			c-1.1-0.9-3.8-3.4-6.1-5.5l-4.2-3.8L221.9,167.2L221.9,167.2z"/>
		
			<linearGradient id="region-3-5_00000099647943100262922170000003468008876251156627_" gradientUnits="userSpaceOnUse" x1="-1582.2693" y1="-15.8105" x2="-1581.1193" y2="-14.9805" gradientTransform="matrix(73.68 0 0 -70.36 116604.5938 -885.7606)">
			<stop  offset="0" style="stop-color:#6C5B57;stop-opacity:0.68"/>
			<stop  offset="1" style="stop-color:#888986;stop-opacity:0.86"/>
		</linearGradient>
		<path id="region-3-5" style="fill:url(#region-3-5_00000099647943100262922170000003468008876251156627_);" d="M43.9,167.8
			c-3,3.3-7.2,8-9.4,10.7c-2.2,2.6-4.7,5.5-5.6,6.4c-2.6,2.5-0.9,5.3,9.4,15.5c10.1,10.1,17.2,16.3,25.7,22.5c3,2.2,6,4.5,6.6,5
			s3,1.9,5.3,3c4.8,2.5,6.4,2,10.4-3.1c1.4-1.8,5.3-6.2,8.6-9.8c8-8.6,8.2-9.4,3.4-13.9c-9.7-8.9-16.7-15.1-17.1-15.1
			c-0.3,0-1.4-1-2.6-2.3c-1.2-1.2-4.9-4.5-8.1-7.2c-6.2-5.2-16-14-18.3-16.2c-0.7-0.7-1.7-1.3-2.1-1.3S46.9,164.6,43.9,167.8
			L43.9,167.8z"/>
		
			<linearGradient id="region-3-6_00000119803651823212769000000004717346162965277579_" gradientUnits="userSpaceOnUse" x1="-1599.4198" y1="-2.8068" x2="-1598.1998" y2="-3.4068" gradientTransform="matrix(342.62 0 0 -309.91 548174.5 -633.2589)">
			<stop  offset="0" style="stop-color:#FFD97A;stop-opacity:0.84"/>
			<stop  offset="1" style="stop-color:#FFD47E;stop-opacity:0.81"/>
		</linearGradient>
		<path id="region-3-6" style="fill:url(#region-3-6_00000119803651823212769000000004717346162965277579_);" d="M232.9,178.8
			c-6.1,6.6-13.9,16.9-13.9,18.5c0,1,12.5,13,32.9,31.6c4.4,4,27.1,25.3,32.6,30.6c12.1,11.6,37,35.1,50,47.2
			c7.7,7.2,21.5,20.4,30.7,29.4s18.7,18.2,21,20.4c7.1,6.4,26.7,24.5,33.2,30.6c3.4,3.1,9.2,8.5,13,12c3.9,3.5,8.6,8,10.6,9.9
			c5.8,5.7,13.8,12.8,25.5,22.8c6.1,5.2,11.7,10.2,12.5,11.1c0.9,0.9,4.5,4.1,8,7.1c3.6,3,7,5.9,7.6,6.5c0.6,0.5,3.3,2.8,5.8,5
			c2.6,2.1,5.8,4.8,7,6c19.1,17.1,20.2,17.5,29.5,8.9c10-9.3,21.5-25.1,22.6-31c0.5-2.6-0.4-3.9-7.2-11
			c-7.6-7.9-12.9-12.8-24.8-22.9c-3.2-2.8-6.9-6-8.1-7.1c-1.2-1.2-3.7-3.2-5.6-4.5c-1.8-1.3-4-3.1-4.9-3.9c-0.8-0.8-3.3-3-5.5-4.8
			c-4-3.4-14.4-12.7-19.4-17.2c-1.5-1.4-4-3.6-5.6-4.9c-7-5.9-14.9-12.6-15.4-13.1c-0.3-0.3-1.8-1.6-3.5-2.9
			c-2.8-2.1-10.7-8.9-16.1-13.6c-1.2-1.1-4.4-3.8-7-6s-8-6.7-11.8-10c-3.9-3.3-11.1-9.4-16.1-13.5c-4.9-4.1-9.2-7.7-9.5-8
			c-0.7-0.8-17-13.9-20.6-16.5c-1.5-1.1-7.5-5.8-13.4-10.5s-14.8-11.7-19.9-15.5c-11.3-8.7-10.8-8.3-33.1-26.5
			c-23.6-19.3-26-21.3-27.4-22.5c-0.6-0.6-5.1-4.3-10.1-8.4c-4.9-4.1-9.7-8.2-10.6-9c-0.9-0.9-3.8-3.4-6.5-5.6
			c-2.6-2.2-5.7-4.9-6.9-6c-3.5-3.6-11.2-9.5-12.2-9.5C239.7,172,236.4,175.1,232.9,178.8L232.9,178.8z"/>
		
			<linearGradient id="region-3-7_00000052826045223861523440000003567435170529112969_" gradientUnits="userSpaceOnUse" x1="-1584.0986" y1="-20.7156" x2="-1583.0986" y2="-21.7056" gradientTransform="matrix(81 0 0 -51.16 128346 -877.0784)">
			<stop  offset="0" style="stop-color:#1B180A;stop-opacity:0.57"/>
			<stop  offset="1" style="stop-color:#1E1910;stop-opacity:0.69"/>
		</linearGradient>
		<path id="region-3-7" style="fill:url(#region-3-7_00000052826045223861523440000003567435170529112969_);" d="M83.3,188.5
			c-0.4,1.3,1,3.1,5.3,6.9c12,10.5,13.6,12.3,13,14.2c-0.3,1.1-3.3,4.8-6.7,8.4c-3.3,3.6-7.2,8-8.6,9.8c-4,5.1-5.6,5.6-10.4,3.1
			c-2.3-1.1-4.7-2.5-5.3-3s-4.1-3.2-7.8-5.9c-3.7-2.8-8.7-6.8-11-9c-2.4-2.2-4.9-4-5.6-4c-3,0-7.4-3.4-13.6-10.5
			c-3.6-4.2-6.6-7.1-6.6-6.6c0,4.3,39.2,40.1,43.8,40.1c0.5,0,1.5,0.7,2.2,1.4c0.6,0.8,3.2,2.3,5.7,3.2l4.6,1.8l4.9-5.5
			c10.6-11.5,19.8-23.1,19.8-24.8c0-1.8-3.8-5.6-15.3-15.6C84.8,186.6,84.2,186.3,83.3,188.5L83.3,188.5z"/>
	</g>
	<g id="layer-4">
		
			<linearGradient id="region-4-1_00000140726973243264355550000016428613020643676059_" gradientUnits="userSpaceOnUse" x1="-1578.6256" y1="-8.4359" x2="-1577.5256" y2="-9.4159" gradientTransform="matrix(63.32 0 0 -117.64 100123.625 -960.9308)">
			<stop  offset="0" style="stop-color:#221C19;stop-opacity:0.74"/>
			<stop  offset="1" style="stop-color:#292421;stop-opacity:0.81"/>
		</linearGradient>
		<path id="region-4-1" style="fill:url(#region-4-1_00000140726973243264355550000016428613020643676059_);" d="M209,40
			c-15.4,4.9-29.6,15.7-36.7,28c-1.5,2.5-3.2,5.2-3.9,6c-1.9,2.4-6.4,15.8-6.4,19.3c0,1.8,1.3,5.9,2.9,9.2c2.4,5,6.7,9.7,26.3,29
			c12.9,12.6,24.6,23.6,26.1,24.4c2.4,1.3,2.9,1.2,4.8-0.5c5-4.5,4.6-6.1-4.2-15.4c-3.7-3.9-20.5-23.3-25.9-29.9
			c-9.3-11.4-10.8-20.8-5-31.6c7.5-13.9,16.3-24,24.8-28.4c2-1.1,3.3-2,2.9-2.1c-2.1-0.1-9.1,4.5-14.5,9.5c-8.7,8-12.4,7-6.3-1.8
			c4.1-6,8.8-10.1,15.1-13.6C214.3,39.2,214.3,38.3,209,40L209,40z"/>
		
			<linearGradient id="region-4-2_00000103245080743109498570000012051704350220238751_" gradientUnits="userSpaceOnUse" x1="-1586.0164" y1="-45.5978" x2="-1586.0164" y2="-46.5978" gradientTransform="matrix(91.68 0 0 -23.95 145642.6406 -1053.9088)">
			<stop  offset="0" style="stop-color:#968D8D;stop-opacity:0.75"/>
			<stop  offset="1" style="stop-color:#998F90;stop-opacity:0.75"/>
		</linearGradient>
		<path id="region-4-2" style="fill:url(#region-4-2_00000103245080743109498570000012051704350220238751_);" d="M209,42.1
			c-6.3,3.5-11,7.6-15.1,13.6c-6.3,9-2.4,9.8,6.8,1.4c4.5-4.2,8.7-6.9,13.8-9c9.9-4.2,17.7-4.2,45-0.3c3.9,0.6,10.6,1.3,15,1.5
			l8,0.5l-5.5-1.5c-6.5-1.8-30.1-7-38-8.3c-3-0.6-9.8-1-15-1C215.3,39,214,39.3,209,42.1z"/>
		
			<linearGradient id="region-4-3_00000003793430170516074720000016553067602791374008_" gradientUnits="userSpaceOnUse" x1="-1587.6288" y1="-9.3157" x2="-1587.6288" y2="-10.3157" gradientTransform="matrix(101.24 0 0 -108.2 160859.4062 -958.7009)">
			<stop  offset="0" style="stop-color:#BEB6B5;stop-opacity:0.8"/>
			<stop  offset="1" style="stop-color:#C7BEBD;stop-opacity:0.79"/>
		</linearGradient>
		<path id="region-4-3" style="fill:url(#region-4-3_00000003793430170516074720000016553067602791374008_);" d="M164,50.4
			c-6.4,2.4-13.7,7.6-18.1,12.8c-5.5,6.6-11.2,13.1-12,13.8c-0.3,0.3-2.9,3.2-5.9,6.5c-7.1,8-19.9,22.2-23,25.5
			c-1.4,1.5-5.6,6.2-9.5,10.6c-3.8,4.3-9.6,10.7-12.9,14.1c-5,5.3-5.7,6.6-5.2,8.9c0.8,2.9,6.1,8.6,11.5,12.4l3.4,2.3l-3.7-5.4
			c-2-2.9-3.6-5.8-3.6-6.2c0-1,0.2-1.2,39.7-48.7c14.9-17.9,28.8-34.1,31-36.1c5.7-5.3,11.6-8.8,17.6-10.4l5.2-1.4H173
			C170,49.1,165.9,49.7,164,50.4z"/>
		
			<linearGradient id="region-4-4_00000104690495092106883660000004850367920656770972_" gradientUnits="userSpaceOnUse" x1="-1592.7672" y1="-20.8152" x2="-1591.7172" y2="-20.2951" gradientTransform="matrix(140.78 0 0 -52.79 224270.8281 -916.428)">
			<stop  offset="0" style="stop-color:#302925;stop-opacity:0.78"/>
			<stop  offset="1" style="stop-color:#292320;stop-opacity:0.8"/>
		</linearGradient>
		<path id="region-4-4" style="fill:url(#region-4-4_00000104690495092106883660000004850367920656770972_);" d="M136.3,144.1
			c-7.5,1.3-15.2,5.8-23.5,14c-4.4,4.3-9.4,8.1-12.5,9.5L95,170l-5.2-2c-6.1-2.3-13.5-8-16.9-13c-1.3-1.9-3-4.1-3.6-4.8
			c-0.7-0.7-1.6-2-2.1-2.8c-1.1-1.9-3.9-0.8-4.8,1.9c-0.7,2.4-0.5,2.6,22.1,22.2c12.6,10.9,18,15.7,25.1,22.2c3,2.7,5.2,2.9,6.1,0.5
			c3-9,10.7-21.6,16.4-27.2c8.9-8.6,17.4-8,38,2.5c3.7,1.9,8.3,4.5,10.2,5.7c1.9,1.3,4.8,3.1,6.3,4.1c1.6,0.9,4.3,2.6,6.1,3.7
			l3.1,2.1l3.6-3.7c2-2,3.6-4.4,3.6-5.3c0-1.3-9.9-10.3-19.6-18c-2.3-1.9-16.9-10.1-17.9-10.1c-0.5,0-2.3-0.7-3.9-1.5
			c-3-1.6-13.4-3.6-17.6-3.4C142.6,143.2,139.2,143.6,136.3,144.1L136.3,144.1z"/>
		
			<linearGradient id="region-4-5_00000111181623748865382040000008857868117037206457_" gradientUnits="userSpaceOnUse" x1="-1529.2463" y1="-28.24" x2="-1528.6462" y2="-29.3001" gradientTransform="matrix(21.52 0 0 -38 32945.75 -906)">
			<stop  offset="0" style="stop-color:#C1B9B7;stop-opacity:0.8"/>
			<stop  offset="1" style="stop-color:#C2BCBC;stop-opacity:0.8"/>
		</linearGradient>
		<path id="region-4-5" style="fill:url(#region-4-5_00000111181623748865382040000008857868117037206457_);" d="M38.5,178.3
			c-5.8,5.6-6.5,6.7-6.5,10.1s0.8,4.6,6.8,10.8C44.4,205,51.1,210,53.5,210c0.3,0-2.9-3.2-7-7.1c-8-7.6-9.5-10.5-7.6-14.5
			c1.1-2.4,5.5-8.5,9.4-12.8c2.3-2.7,2.2-3.6-0.8-3.6C45.9,172,42.9,174,38.5,178.3z"/>
		
			<linearGradient id="region-4-6_00000018944904401989969690000013794369684668043155_" gradientUnits="userSpaceOnUse" x1="-1597.8694" y1="-3.2486" x2="-1597.7694" y2="-4.3285" gradientTransform="matrix(282.79 0 0 -259.98 452202.9062 -675.9487)">
			<stop  offset="0" style="stop-color:#FFEFC7;stop-opacity:0.28"/>
			<stop  offset="1" style="stop-color:#FFD88C;stop-opacity:0.83"/>
		</linearGradient>
		<path id="region-4-6" style="fill:url(#region-4-6_00000018944904401989969690000013794369684668043155_);" d="M214.2,178.3
			c-1.3,1.6,4.6,7.5,45.7,45.7c7.4,6.9,15.1,14.1,17.1,16s10.1,9.6,18.1,17c7.9,7.4,18.2,17.2,22.9,21.6c4.7,4.5,11,10.3,14,12.8
			c3,2.6,16.1,15.4,29,28.5s26.2,26.2,29.6,29.2c9,8.1,27.2,24.8,32.9,30.1c2.7,2.7,5.2,4.8,5.6,4.8c0.3,0,2.4,1.7,4.5,3.7
			c7.4,7.1,14.9,13.4,25.9,21.8c3.3,2.5,7.3,5.6,8.9,6.8s8.4,6.8,15.3,12.4c9.3,7.8,12.5,9.9,13,8.8c0.9-2.5-2.2-5.2-35.2-31.5
			c-7.7-6.1-16.3-13.2-19-15.8c-2.8-2.6-7.3-6.7-10-9.1c-2.8-2.5-10.6-9.7-17.4-16c-6.8-6.4-13.6-12.7-15.1-14.1s-6-5.4-10-9
			c-8.2-7.3-13.5-12.6-33.1-32.6c-18.9-19.4-40.3-40.1-47.4-46c-3.3-2.7-6.9-5.8-8.1-6.9s-3.9-3.6-6.1-5.5
			c-15.2-13.4-24.8-22.2-48.3-44.6c-5.2-5-12-11.3-15-13.9c-3-2.7-8-7.3-11.1-10.3C216.3,177.9,215.1,177.1,214.2,178.3L214.2,178.3
			z"/>
		
			<linearGradient id="region-4-7_00000069374919437404377460000005196748895231019945_" gradientUnits="userSpaceOnUse" x1="-1572.6804" y1="-24.6443" x2="-1572.4204" y2="-25.8143" gradientTransform="matrix(51.9 0 0 -43.36 81690.5156 -885.7606)">
			<stop  offset="0" style="stop-color:#1D1717;stop-opacity:0.49"/>
			<stop  offset="1" style="stop-color:#030200;stop-opacity:0.6"/>
		</linearGradient>
		<path id="region-4-7" style="fill:url(#region-4-7_00000069374919437404377460000005196748895231019945_);" d="M80.5,191
			c-0.4,1.2-3.5,5-7,8.5C66.6,206.6,58.7,211,53,211h-3.4l3.3,3.1c1.9,1.7,6.4,5.3,10,8c3.6,2.7,7.1,5.3,7.7,5.8s3,1.9,5.3,3
			c4.8,2.5,6.4,2,10.4-3.1c1.4-1.8,5.3-6.2,8.6-9.8c8-8.6,8.2-9.4,3.4-13.9c-8-7.3-16.7-15.1-16.9-15.1
			C81.3,189,80.8,189.9,80.5,191z"/>
	</g>
</g>
<linearGradient id="region-2-1-2_00000010270437717104525520000018067177418257834941_" gradientUnits="userSpaceOnUse" x1="-1600.4406" y1="-1.5443" x2="-1599.2407" y2="-2.0642" gradientTransform="matrix(549.64 0 0 -471.67 880036.875 -626.1005)">
	<stop  offset="0" style="stop-color:#110000;stop-opacity:0.81"/>
	<stop  offset="1" style="stop-color:#5C2400;stop-opacity:0.81"/>
</linearGradient>
<path id="region-2-1-2" style="fill:url(#region-2-1-2_00000010270437717104525520000018067177418257834941_);" d="M587.7,16.4
	c-9.6,1.6-16,3.9-28.5,10.4c-10.3,5.4-16.7,10.3-23,17.7c-3,3.5-6.1,7.1-7,8c-2.7,2.8-11.8,13.3-14.1,16.4c-1.3,1.6-2.6,3.2-2.9,3.5
	s-3,3.4-6,7c-3,3.5-6.2,7.1-7.1,8c-0.9,0.8-4.5,4.9-7.9,9c-3.5,4.1-10.4,11.9-15.4,17.4c-11.2,12.1-9.7,10.4-18.3,20.8
	c-6.8,8-7.3,9-7.3,13.3s-0.2,4.6-2,4c-4.9-1.6-7.7,0.4-20.4,14.3c-10.8,11.7-12.6,14.2-12.6,17c0,3,1.4,6.9,2.9,8.2
	c0.3,0.3,2.4,2.7,4.6,5.5c10.3,13,33.4,32.3,46.3,38.9c9,4.5,9.5,4.3,23.7-11.8c3.3-3.7,6.9-7.8,8.1-9c1.1-1.3,2.6-3.8,3.3-5.7
	c2.7-7,3.4-7.9,6.1-7.9c3.4,0,8-3.5,8-6c0-2,3.5-10,6.8-15.6c3.4-5.8,8-10.9,11.6-12.8c3.5-1.9,3.6-1.9,10.5,0.3
	c8,2.5,19.2,8.3,30.6,15.6c11.1,7.2,12.4,7.8,15.6,7.1c2-0.4,3.5,0,4.7,1.2c1,0.9,4.1,3.7,6.8,6.2c7.4,6.7,18.9,17.4,27.9,25.9
	c4.5,4.2,11.7,11,16.2,15.1c13.6,12.7,37.4,35.2,43.8,41.5c3.4,3.3,9.7,9.1,13.9,13c9.7,8.7,12.7,11.6,30.1,28.4
	c7.7,7.5,17.4,16.8,21.6,20.6c4.1,3.9,8,7.7,8.5,8.6c0.5,0.8,5.2,5.2,10.4,9.8s10.7,9.6,12.1,11c2.2,2.3,9.7,9.2,31.3,29.1
	c3.3,3,6.6,5.9,7.2,6.5c0.6,0.5,4.7,4.4,9.1,8.5c13,12.3,16.8,15.8,24.6,22.3c4.1,3.4,11,9.3,15.3,13.2c4.4,3.8,10.6,9.2,13.8,12
	c3.3,2.7,6.9,5.9,8.2,7c1.2,1.1,4.1,3.6,6.5,5.5c2.3,1.9,6.2,5.2,8.6,7.2c8.4,7.2,15.7,6.2,26-3.5c6.8-6.4,16-17.3,18.3-21.7
	c0.7-1.4,1.6-2.7,1.9-3c1-0.9,3.8-7.4,4.5-10.7c0.5-1.9,0.2-4.4-0.8-6.7c-1.5-3.7-15.8-18.6-27.9-29.2c-3.8-3.2-7.8-6.8-9.1-7.9
	c-1.2-1.1-4.2-3.6-6.6-5.5c-8-6.4-12.5-10.2-14.1-11.9c-0.9-0.9-3.7-3.4-6.4-5.6c-2.6-2.2-5.5-4.7-6.4-5.6c-2-2-14.6-12.7-18.3-15.5
	c-2.6-2.1-11.9-10-16.3-13.9c-3.3-3.1-12-10.4-23-19.6c-5.5-4.6-10.9-9.1-12-10.1c-1.1-0.9-4-3.3-6.5-5.3s-6.5-5.6-9-7.9
	s-6.1-5.3-8-6.6c-1.9-1.4-4.4-3.2-5.5-4.2c-2.5-2-9-7.3-14-11.3c-2-1.7-4.2-3.5-4.9-4c-0.6-0.6-2.7-2.2-4.6-3.5s-3.7-2.7-4-3
	s-1.8-1.6-3.5-2.8c-5-3.7-15.3-11.7-27.5-21.1c-1.4-1.1-9.5-7.6-18-14.6c-8.5-6.9-17-13.8-18.8-15.3c-1.9-1.5-4.8-3.9-6.5-5.4
	c-1.8-1.5-9.5-7.9-17.2-14.4c-7.7-6.4-17.1-14.4-20.9-17.8c-3.8-3.3-8.5-7.5-10.5-9.2s-5.1-4.4-7-6c-6.8-5.8-8.1-7.7-8.1-11.7
	c0-3.2-0.9-4.9-6.2-11c-3.4-4-6.4-7.4-6.8-7.7s-4-4.3-8-9s-8.1-9.4-9.1-10.5c-8.8-9.7-12.9-16.6-12.9-21.8c0-9.5,17.1-31.4,28-35.8
	c5.1-2,27.7-1.5,49.5,1.1c33,4,32.8,4,34.1-2.6c0.9-4.9-1.4-7.8-7.3-9.4c-2.6-0.7-6.1-1.9-7.8-2.6c-4-1.7-37.2-12.6-50.5-16.6
	C611.6,15.9,600,14.4,587.7,16.4L587.7,16.4z"/>
<linearGradient id="region-3-4-2_00000113311891011500070220000003308187870195598991_" gradientUnits="userSpaceOnUse" x1="-1539.0267" y1="-27.6526" x2="-1537.8367" y2="-28.4826" gradientTransform="matrix(32.96 0 0 -37.5 51469.4141 -918.4004)">
	<stop  offset="0" style="stop-color:#FF9D4D;stop-opacity:0.79"/>
	<stop  offset="1" style="stop-color:#FFB566;stop-opacity:0.83"/>
</linearGradient>
<path id="region-3-4-2" style="fill:url(#region-3-4-2_00000113311891011500070220000003308187870195598991_);" d="M761.4,122.6
	c-3.5,4-8,9.1-9.9,11.3c-7.1,8-7.1,6.9,0,13.4l6.4,5.7l4-6c2.3-3.4,7.2-9.4,11.1-13.3c6.8-7,7-7.3,5.1-8.9c-1.1-0.9-3.8-3.4-6.1-5.5
	l-4.2-3.8L761.4,122.6L761.4,122.6z"/>
<linearGradient id="region-3-6-2_00000156563464127106292760000007499425742099686072_" gradientUnits="userSpaceOnUse" x1="-1597.7966" y1="-2.6965" x2="-1596.5867" y2="-3.2866" gradientTransform="matrix(342.62 0 0 -309.91 548174.5 -633.2589)">
	<stop  offset="0" style="stop-color:#FFD97A;stop-opacity:0.84"/>
	<stop  offset="1" style="stop-color:#FFD47E;stop-opacity:0.81"/>
</linearGradient>
<path id="region-3-6-2" style="fill:url(#region-3-6-2_00000156563464127106292760000007499425742099686072_);" d="M788.9,143.8
	c-6.1,6.6-13.9,16.9-13.9,18.5c0,1,12.5,13,32.9,31.6c4.4,4,27.1,25.3,32.6,30.6c12.1,11.6,37,35.1,50,47.2
	c7.7,7.2,21.5,20.4,30.7,29.4s18.7,18.2,21,20.4c7.1,6.4,26.7,24.5,33.2,30.6c3.4,3.1,9.2,8.5,13,12c3.9,3.5,8.6,8,10.6,9.9
	c5.8,5.7,13.8,12.8,25.5,22.8c6.1,5.2,11.7,10.2,12.5,11.1c0.9,0.9,4.5,4.1,8,7.1c3.6,3,7,5.9,7.6,6.5c0.6,0.5,3.3,2.8,5.8,5
	c2.6,2.1,5.8,4.8,7,6c19.1,17.1,20.2,17.5,29.5,8.9c10-9.3,21.5-25.1,22.6-31c0.5-2.6-0.4-3.9-7.2-11c-7.6-7.9-12.9-12.8-24.8-22.9
	c-3.2-2.8-6.9-6-8.1-7.1c-1.2-1.2-3.7-3.2-5.6-4.5c-1.8-1.3-4-3.1-4.9-3.9c-0.8-0.8-3.3-3-5.5-4.8c-4-3.4-14.4-12.7-19.4-17.2
	c-1.5-1.4-4-3.6-5.6-4.9c-7-5.9-14.9-12.6-15.4-13.1c-0.3-0.3-1.8-1.6-3.5-2.9c-2.8-2.1-10.7-8.9-16.1-13.6c-1.2-1.1-4.4-3.8-7-6
	s-8-6.7-11.8-10c-3.9-3.3-11.1-9.4-16.1-13.5c-4.9-4.1-9.2-7.7-9.5-8c-0.7-0.8-17-13.9-20.6-16.5c-1.5-1.1-7.5-5.8-13.4-10.5
	s-14.8-11.7-19.9-15.5c-11.3-8.7-10.8-8.3-33.1-26.5c-23.6-19.3-26-21.3-27.4-22.5c-0.6-0.6-5.1-4.3-10.1-8.4
	c-4.9-4.1-9.7-8.2-10.6-9c-0.9-0.9-3.8-3.4-6.5-5.6c-2.6-2.2-5.7-4.9-6.9-6c-3.5-3.6-11.2-9.5-12.2-9.5
	C795.7,137,792.4,140.1,788.9,143.8L788.9,143.8z"/>
<linearGradient id="region-4-6-2_00000101078324919374173720000010222833061088681094_" gradientUnits="userSpaceOnUse" x1="-1595.7607" y1="-2.8761" x2="-1595.6606" y2="-3.9461" gradientTransform="matrix(282.79 0 0 -259.98 452202.9062 -675.9487)">
	<stop  offset="0" style="stop-color:#FFEFC7;stop-opacity:0.28"/>
	<stop  offset="1" style="stop-color:#FFD88C;stop-opacity:0.83"/>
</linearGradient>
<path id="region-4-6-2" style="fill:url(#region-4-6-2_00000101078324919374173720000010222833061088681094_);stroke:#000000;stroke-miterlimit:10;" d="
	M810.6,81.2c-1.3,1.6,4.6,7.5,45.7,45.7c7.4,6.9,15.1,14.1,17.1,16s10.1,9.6,18.1,17c7.9,7.4,18.2,17.2,22.9,21.6
	c4.7,4.5,11,10.3,14,12.8c3,2.6,16.1,15.4,29,28.5S983.6,249,987,252c9,8.1,27.2,24.8,32.9,30.1c2.7,2.7,5.2,4.8,5.6,4.8
	c0.3,0,2.4,1.7,4.5,3.7c7.4,7.1,14.9,13.4,25.9,21.8c3.3,2.5,7.3,5.6,8.9,6.8s8.4,6.8,15.3,12.4c9.3,7.8,12.5,9.9,13,8.8
	c0.9-2.5-2.2-5.2-35.2-31.5c-7.7-6.1-16.3-13.2-19-15.8c-2.8-2.6-7.3-6.7-10-9.1c-2.8-2.5-10.6-9.7-17.4-16
	c-6.8-6.4-13.6-12.7-15.1-14.1s-6-5.4-10-9c-8.2-7.3-13.5-12.6-33.1-32.6c-18.9-19.4-40.3-40.1-47.4-46c-3.3-2.7-6.9-5.8-8.1-6.9
	s-3.9-3.6-6.1-5.5c-15.2-13.4-24.8-22.2-48.3-44.6c-5.2-5-12-11.3-15-13.9c-3-2.7-8-7.3-11.1-10.3C812.7,80.8,811.5,80,810.6,81.2
	L810.6,81.2z"/>
<g>
	<line class="st26" x1="285.9" y1="169.5" x2="358.2" y2="169.5"/>
	<path d="M376.3,169.5c-8.5,3.2-19.1,8.6-25.6,14.3l5.2-14.3l-5.2-14.3C357.2,160.9,367.8,166.3,376.3,169.5L376.3,169.5z"/>
</g>
<rect x="333.7" y="70.7" transform="matrix(0.6875 -0.7262 0.7262 0.6875 -109.7412 371.1115)" class="st27" width="85.1" height="484.8"/>
</svg>
