<?xml version="1.0" standalone="no"?><!DOCTYPE svg PUBLIC "-//W3C//DTD SVG 20010904//EN" "http://www.w3.org/TR/2001/REC-SVG-20010904/DTD/svg10.dtd"><svg version="1.0" xmlns="http://www.w3.org/2000/svg" width="500pt" height="300pt" viewBox="0 0 500 300" preserveAspectRatio="xMidYMid meet"><defs><linearGradient id="linear-gradient-1-1" x1="0.00%" y1="100.00%" x2="21.28%" y2="-14.58%"><stop offset="0%" style="stop-color:rgb(254,250,190);stop-opacity:0.990" /><stop offset="100%" style="stop-color:rgb(255,250,190);stop-opacity:0.990" /></linearGradient><linearGradient id="linear-gradient-2-1" x1="0.00%" y1="100.00%" x2="0.00%" y2="-0.00%"><stop offset="0%" style="stop-color:rgb(115,108,244);stop-opacity:0.384" /><stop offset="100%" style="stop-color:rgb(117,147,189);stop-opacity:0.533" /></linearGradient><linearGradient id="linear-gradient-2-2" x1="0.00%" y1="100.00%" x2="59.07%" y2="-15.58%"><stop offset="0%" style="stop-color:rgb(74,105,207);stop-opacity:0.328" /><stop offset="100%" style="stop-color:rgb(103,107,126);stop-opacity:0.684" /></linearGradient><linearGradient id="linear-gradient-2-3" x1="0.00%" y1="100.00%" x2="45.22%" y2="-40.14%"><stop offset="0%" style="stop-color:rgb(127,121,56);stop-opacity:0.666" /><stop offset="100%" style="stop-color:rgb(147,141,76);stop-opacity:0.783" /></linearGradient><linearGradient id="linear-gradient-2-4" x1="0.00%" y1="100.00%" x2="44.32%" y2="-37.28%"><stop offset="0%" style="stop-color:rgb(134,127,64);stop-opacity:0.707" /><stop offset="100%" style="stop-color:rgb(144,137,72);stop-opacity:0.760" /></linearGradient><linearGradient id="linear-gradient-2-5" x1="0.00%" y1="100.00%" x2="0.00%" y2="0.00%"><stop offset="0%" style="stop-color:rgb(213,0,0);stop-opacity:0.797" /><stop offset="100%" style="stop-color:rgb(215,0,8);stop-opacity:0.838" /></linearGradient><linearGradient id="linear-gradient-2-6" x1="0.00%" y1="100.00%" x2="92.18%" y2="-4.96%"><stop offset="0%" style="stop-color:rgb(112,105,40);stop-opacity:0.581" /><stop offset="100%" style="stop-color:rgb(152,146,82);stop-opacity:0.808" /></linearGradient><linearGradient id="linear-gradient-2-7" x1="0.00%" y1="100.00%" x2="46.34%" y2="-41.61%"><stop offset="0%" style="stop-color:rgb(117,110,45);stop-opacity:0.609" /><stop offset="100%" style="stop-color:rgb(145,139,74);stop-opacity:0.768" /></linearGradient><linearGradient id="linear-gradient-2-8" x1="0.00%" y1="100.00%" x2="40.88%" y2="-48.95%"><stop offset="0%" style="stop-color:rgb(130,124,61);stop-opacity:0.687" /><stop offset="100%" style="stop-color:rgb(139,132,66);stop-opacity:0.731" /></linearGradient><linearGradient id="linear-gradient-2-9" x1="0.00%" y1="100.00%" x2="67.12%" y2="-32.28%"><stop offset="0%" style="stop-color:rgb(129,123,60);stop-opacity:0.682" /><stop offset="100%" style="stop-color:rgb(139,132,66);stop-opacity:0.732" /></linearGradient><linearGradient id="linear-gradient-3-1" x1="0.00%" y1="100.00%" x2="123.76%" y2="14.46%"><stop offset="0%" style="stop-color:rgb(232,0,0);stop-opacity:0.829" /><stop offset="100%" style="stop-color:rgb(221,0,30);stop-opacity:0.792" /></linearGradient><linearGradient id="linear-gradient-3-2" x1="0.00%" y1="100.00%" x2="128.92%" y2="53.30%"><stop offset="0%" style="stop-color:rgb(8,96,168);stop-opacity:0.763" /><stop offset="100%" style="stop-color:rgb(0,63,140);stop-opacity:0.943" /></linearGradient><linearGradient id="linear-gradient-3-3" x1="0.00%" y1="100.00%" x2="118.24%" y2="8.00%"><stop offset="0%" style="stop-color:rgb(235,164,0);stop-opacity:0.795" /><stop offset="100%" style="stop-color:rgb(236,165,3);stop-opacity:0.801" /></linearGradient><linearGradient id="linear-gradient-3-4" x1="0.00%" y1="100.00%" x2="77.17%" y2="-16.75%"><stop offset="0%" style="stop-color:rgb(18,14,85);stop-opacity:0.730" /><stop offset="100%" style="stop-color:rgb(0,39,105);stop-opacity:0.918" /></linearGradient><linearGradient id="linear-gradient-3-5" x1="0.00%" y1="100.00%" x2="0.00%" y2="0.00%"><stop offset="0%" style="stop-color:rgb(229,139,51);stop-opacity:0.808" /><stop offset="100%" style="stop-color:rgb(231,230,61);stop-opacity:0.678" /></linearGradient><linearGradient id="linear-gradient-3-6" x1="0.00%" y1="100.00%" x2="29.55%" y2="-34.38%"><stop offset="0%" style="stop-color:rgb(0,17,80);stop-opacity:0.842" /><stop offset="100%" style="stop-color:rgb(0,40,111);stop-opacity:0.805" /></linearGradient><linearGradient id="linear-gradient-4-1" x1="0.00%" y1="100.00%" x2="0.00%" y2="0.00%"><stop offset="0%" style="stop-color:rgb(254,255,200);stop-opacity:0.472" /><stop offset="100%" style="stop-color:rgb(251,255,255);stop-opacity:0.663" /></linearGradient><linearGradient id="linear-gradient-4-2" x1="0.00%" y1="100.00%" x2="0.00%" y2="-0.00%"><stop offset="0%" style="stop-color:rgb(252,255,255);stop-opacity:0.827" /><stop offset="100%" style="stop-color:rgb(255,255,255);stop-opacity:0.944" /></linearGradient><linearGradient id="linear-gradient-4-3" x1="0.00%" y1="0.00%" x2="88.02%" y2="103.66%"><stop offset="0%" style="stop-color:rgb(243,236,215);stop-opacity:0.762" /><stop offset="100%" style="stop-color:rgb(247,251,231);stop-opacity:0.802" /></linearGradient><linearGradient id="linear-gradient-4-4" x1="0.00%" y1="100.00%" x2="89.84%" y2="-10.28%"><stop offset="0%" style="stop-color:rgb(40,187,246);stop-opacity:0.558" /><stop offset="100%" style="stop-color:rgb(46,197,255);stop-opacity:0.569" /></linearGradient><linearGradient id="linear-gradient-4-5" x1="0.00%" y1="100.00%" x2="48.25%" y2="-21.29%"><stop offset="0%" style="stop-color:rgb(255,248,173);stop-opacity:0.804" /><stop offset="100%" style="stop-color:rgb(255,243,171);stop-opacity:0.795" /></linearGradient><linearGradient id="linear-gradient-4-6" x1="0.00%" y1="100.00%" x2="9.00%" y2="-72.31%"><stop offset="0%" style="stop-color:rgb(255,255,255);stop-opacity:0.912" /><stop offset="100%" style="stop-color:rgb(255,255,255);stop-opacity:0.918" /></linearGradient><linearGradient id="linear-gradient-5-1" x1="0.00%" y1="100.00%" x2="0.00%" y2="0.00%"><stop offset="0%" style="stop-color:rgb(2,15,34);stop-opacity:0.796" /><stop offset="100%" style="stop-color:rgb(0,0,10);stop-opacity:0.893" /></linearGradient><linearGradient id="linear-gradient-5-2" x1="0.00%" y1="100.00%" x2="92.62%" y2="-6.94%"><stop offset="0%" style="stop-color:rgb(255,255,253);stop-opacity:0.869" /><stop offset="100%" style="stop-color:rgb(255,255,255);stop-opacity:0.913" /></linearGradient><linearGradient id="linear-gradient-5-3" x1="0.00%" y1="100.00%" x2="68.85%" y2="-6.77%"><stop offset="0%" style="stop-color:rgb(49,62,88);stop-opacity:0.757" /><stop offset="100%" style="stop-color:rgb(61,71,92);stop-opacity:0.806" /></linearGradient><linearGradient id="linear-gradient-5-4" x1="0.00%" y1="100.00%" x2="0.00%" y2="0.00%"><stop offset="0%" style="stop-color:rgb(24,42,85);stop-opacity:0.575" /><stop offset="100%" style="stop-color:rgb(0,16,65);stop-opacity:0.678" /></linearGradient><linearGradient id="linear-gradient-6-1" x1="0.00%" y1="100.00%" x2="0.00%" y2="0.00%"><stop offset="0%" style="stop-color:rgb(223,230,238);stop-opacity:0.787" /><stop offset="100%" style="stop-color:rgb(214,223,233);stop-opacity:0.723" /></linearGradient><linearGradient id="linear-gradient-6-2" x1="0.00%" y1="0.00%" x2="112.74%" y2="97.40%"><stop offset="0%" style="stop-color:rgb(245,243,252);stop-opacity:0.514" /><stop offset="100%" style="stop-color:rgb(254,252,255);stop-opacity:0.550" /></linearGradient><linearGradient id="linear-gradient-6-3" x1="0.00%" y1="100.00%" x2="40.80%" y2="-22.61%"><stop offset="0%" style="stop-color:rgb(58,73,75);stop-opacity:0.603" /><stop offset="100%" style="stop-color:rgb(62,77,79);stop-opacity:0.632" /></linearGradient><linearGradient id="linear-gradient-6-4" x1="0.00%" y1="100.00%" x2="23.82%" y2="-8.53%"><stop offset="0%" style="stop-color:rgb(57,61,72);stop-opacity:0.774" /><stop offset="100%" style="stop-color:rgb(67,69,77);stop-opacity:0.805" /></linearGradient></defs><g id="layer-1"><path d="M0 1500 l0 -1500 2500 0 2500 0 0 1500 0 1500 -2500 0 -2500 0 0 -1500z" fill="url(#linear-gradient-1-1)" id="region-1-1" transform="translate(0.000000,300.000000) scale(0.100000,-0.100000)"/></g><g id="layer-2"><path d="M4040 2790 c-153 -39 -385 -145 -588 -268 l-134 -81 -45 25 c-55 29 -136 32 -205 8 -65 -22 -254 -217 -352 -363 -63 -94 -45 -102 104 -42 l95 39 11 -52 c6 -28 20 -76 32 -106 12 -30 22 -58 22 -61 0 -4 -34 -30 -76 -59 -70 -48 -94 -74 -81 -86 2 -3 51 7 107 21 56 14 104 25 105 23 1 -2 12 -22 24 -46 25 -50 7 -52 201 20 350 130 825 364 940 463 14 12 37 26 51 32 73 31 425 323 520 432 33 37 34 42 20 55 -28 25 -230 47 -481 51 -129 3 -251 0 -270 -5z" fill="url(#linear-gradient-2-1)" id="region-2-1" transform="translate(0.000000,300.000000) scale(0.100000,-0.100000)"/><path d="M4766 2685 c-64 -83 -440 -396 -515 -428 -14 -6 -37 -21 -51 -33 -116 -102 -748 -405 -1040 -499 -30 -9 -59 -21 -64 -25 -12 -12 45 -88 68 -92 12 -2 -19 -26 -90 -68 -61 -37 -109 -72 -109 -80 0 -38 315 -34 499 5 123 26 192 94 203 197 l5 55 92 33 c245 88 495 214 614 310 77 62 156 158 271 330 122 183 173 273 169 301 -5 35 -23 33 -52 -6z" fill="url(#linear-gradient-2-2)" id="region-2-2" transform="translate(0.000000,300.000000) scale(0.100000,-0.100000)"/><path d="M2323 2076 c-166 -32 -252 -74 -518 -254 -232 -156 -210 -140 -202 -149 4 -3 81 44 172 105 355 240 601 316 865 266 53 -10 24 11 -34 25 -78 19 -204 22 -283 7z" fill="url(#linear-gradient-2-3)" id="region-2-3" transform="translate(0.000000,300.000000) scale(0.100000,-0.100000)"/><path d="M2434 2015 c-39 -13 -97 -36 -130 -50 -67 -29 -187 -105 -180 -113 3 -3 52 18 108 46 57 28 159 70 228 93 69 23 127 43 129 45 15 14 -97 -1 -155 -21z" fill="url(#linear-gradient-2-4)" id="region-2-4" transform="translate(0.000000,300.000000) scale(0.100000,-0.100000)"/><path d="M2843 2050 c-22 -5 -70 -20 -105 -34 -45 -18 -83 -26 -127 -26 -78 0 -196 -38 -348 -112 -59 -28 -114 -51 -120 -50 -20 4 -70 -25 -193 -111 -138 -96 -212 -156 -205 -166 2 -5 -45 -47 -105 -95 -108 -86 -144 -128 -74 -87 67 40 24 3 -107 -90 -131 -93 -159 -129 -54 -70 30 17 55 30 55 28 0 -2 -157 -106 -350 -233 -192 -126 -350 -233 -350 -237 0 -5 43 14 95 42 52 29 95 49 95 47 0 -7 -215 -133 -345 -201 -133 -70 -177 -96 -172 -101 5 -5 183 61 502 186 283 111 521 200 532 200 5 -1 -21 -15 -57 -32 -36 -16 -60 -32 -54 -35 15 -5 174 55 372 141 136 58 155 64 168 51 9 -8 19 -15 24 -15 12 0 225 78 277 101 23 10 66 25 95 33 141 37 404 140 470 184 22 15 56 36 74 48 19 11 48 34 64 49 17 16 30 26 30 22 0 -16 101 45 151 91 l52 48 -30 45 c-17 24 -38 60 -48 79 -10 19 -19 36 -20 38 -1 2 -49 -9 -105 -23 -56 -14 -105 -24 -107 -21 -13 13 11 38 82 87 53 36 75 57 72 68 -3 9 -16 48 -30 86 -28 76 -32 79 -104 65z" fill="url(#linear-gradient-2-5)" id="region-2-5" transform="translate(0.000000,300.000000) scale(0.100000,-0.100000)"/><path d="M1703 1572 c-79 -55 -477 -355 -601 -453 -44 -35 -79 -70 -77 -76 4 -13 -141 -120 -157 -115 -19 5 -180 -91 -394 -234 -246 -165 -382 -264 -364 -264 7 0 72 37 144 83 72 46 156 96 186 111 134 69 448 268 572 363 31 23 61 43 67 43 28 0 428 307 416 318 -7 8 -79 -43 -252 -176 -88 -69 -171 -126 -182 -127 -12 -1 -20 -1 -18 0 124 91 728 549 737 560 23 28 -6 15 -77 -33z" fill="url(#linear-gradient-2-6)" id="region-2-6" transform="translate(0.000000,300.000000) scale(0.100000,-0.100000)"/><path d="M2874 1422 c-5 -4 -27 -38 -49 -77 -57 -105 -177 -220 -285 -272 -140 -68 -263 -94 -470 -99 l-175 -4 90 30 c67 23 114 31 185 34 214 9 457 99 553 205 43 48 90 127 85 143 -3 7 -18 -9 -36 -34 -93 -135 -280 -240 -502 -282 -130 -25 -134 -18 -14 24 62 21 120 43 130 49 51 29 -46 3 -366 -99 -189 -60 -345 -108 -347 -106 -2 2 30 18 72 36 41 18 75 37 75 42 0 6 -8 7 -17 3 -10 -4 -47 -17 -83 -30 -124 -44 -762 -286 -769 -291 -28 -24 225 55 457 142 35 13 67 22 71 19 4 -2 84 19 177 46 l169 50 145 -1 c163 -1 400 15 469 32 25 6 82 29 126 51 93 48 214 161 257 242 25 47 71 155 65 155 -1 0 -7 -4 -13 -8z" fill="url(#linear-gradient-2-7)" id="region-2-7" transform="translate(0.000000,300.000000) scale(0.100000,-0.100000)"/><path d="M2470 1230 c-185 -64 -266 -90 -285 -90 -22 0 -89 -29 -83 -36 14 -13 506 140 532 166 19 19 -28 8 -164 -40z" fill="url(#linear-gradient-2-8)" id="region-2-8" transform="translate(0.000000,300.000000) scale(0.100000,-0.100000)"/><path d="M884 706 c-49 -18 -154 -61 -233 -96 -129 -58 -169 -80 -142 -80 29 0 443 169 477 195 31 24 -2 17 -102 -19z" fill="url(#linear-gradient-2-9)" id="region-2-9" transform="translate(0.000000,300.000000) scale(0.100000,-0.100000)"/></g><g id="layer-3"><path d="M4053 2794 c-28 -6 -28 -11 -3 -110 29 -111 64 -203 127 -324 56 -109 172 -276 199 -287 20 -7 68 39 148 142 126 161 296 432 296 471 0 13 -10 34 -22 48 -20 22 -38 28 -138 41 -112 16 -560 29 -607 19z" fill="url(#linear-gradient-3-1)" id="region-3-1" transform="translate(0.000000,300.000000) scale(0.100000,-0.100000)"/><path d="M3065 2474 c-62 -23 -256 -224 -345 -356 -68 -102 -54 -109 102 -47 85 33 110 48 141 84 41 47 194 174 290 239 31 22 57 43 57 47 0 4 -19 17 -43 28 -51 25 -141 27 -202 5z" fill="url(#linear-gradient-3-2)" id="region-3-2" transform="translate(0.000000,300.000000) scale(0.100000,-0.100000)"/><path d="M3745 2386 c-61 -37 -88 -93 -83 -171 3 -48 10 -70 30 -97 35 -46 91 -72 153 -71 62 0 105 22 142 69 39 52 44 151 11 209 -48 83 -168 112 -253 61z" fill="url(#linear-gradient-3-3)" id="region-3-3" transform="translate(0.000000,300.000000) scale(0.100000,-0.100000)"/><path d="M3369 2125 c-61 -19 -186 -96 -380 -234 -148 -105 -180 -133 -167 -147 8 -7 276 61 395 101 142 47 225 88 273 134 44 42 50 72 25 120 -22 43 -65 50 -146 26z" fill="url(#linear-gradient-3-4)" id="region-3-4" transform="translate(0.000000,300.000000) scale(0.100000,-0.100000)"/><path d="M2845 2050 c-76 -16 -155 -50 -155 -68 0 -14 -11 -17 -64 -19 -35 0 -90 -6 -122 -13 -77 -16 -225 -70 -219 -79 2 -5 -17 -18 -44 -31 -62 -29 -111 -69 -93 -77 8 -3 -20 -24 -65 -50 -111 -62 -119 -69 -104 -87 10 -12 8 -17 -11 -27 -70 -36 -318 -204 -318 -216 0 -21 27 -15 119 26 148 66 141 57 -54 -76 -284 -192 -435 -302 -435 -319 0 -18 12 -18 58 2 91 40 294 112 284 102 -21 -21 -13 -31 21 -25 l32 6 -32 -16 c-18 -9 -33 -20 -33 -24 0 -9 105 18 145 37 l30 15 -25 -20 c-14 -11 -20 -21 -15 -21 6 0 105 31 220 69 116 37 212 64 215 60 12 -17 247 57 415 131 28 12 57 23 65 24 35 3 117 53 175 107 61 57 63 58 80 39 17 -19 18 -19 65 5 26 13 71 46 101 73 l52 48 -30 45 c-17 24 -38 60 -48 79 -10 19 -19 36 -20 38 -1 2 -49 -9 -105 -23 -56 -14 -105 -24 -107 -21 -13 13 11 38 82 87 53 36 75 57 72 68 -3 9 -16 48 -30 86 -27 76 -32 79 -102 65z" fill="url(#linear-gradient-3-5)" id="region-3-5" transform="translate(0.000000,300.000000) scale(0.100000,-0.100000)"/><path d="M3595 1694 c-67 -25 -270 -72 -342 -80 -60 -6 -80 -14 -178 -73 -62 -37 -110 -73 -110 -81 0 -38 315 -34 499 5 121 26 191 93 203 193 7 59 0 63 -72 36z" fill="url(#linear-gradient-3-6)" id="region-3-6" transform="translate(0.000000,300.000000) scale(0.100000,-0.100000)"/></g><g id="layer-4"><path d="M4300 2719 c-197 -14 -283 -35 -444 -105 -151 -66 -387 -213 -641 -398 -238 -173 -215 -151 -202 -191 5 -19 15 -35 20 -35 6 0 132 76 281 168 329 205 409 251 596 340 165 80 294 123 530 178 149 35 160 39 125 46 -48 8 -126 8 -265 -3z" fill="url(#linear-gradient-4-1)" id="region-4-1" transform="translate(0.000000,300.000000) scale(0.100000,-0.100000)"/><path d="M2939 2363 c-102 -106 -199 -225 -199 -244 0 -17 219 199 266 262 34 46 42 69 25 69 -4 0 -46 -39 -92 -87z" fill="url(#linear-gradient-4-2)" id="region-4-2" transform="translate(0.000000,300.000000) scale(0.100000,-0.100000)"/><path d="M3749 2357 c-49 -32 -71 -81 -66 -143 7 -93 74 -151 167 -142 87 9 140 69 140 160 0 86 -65 148 -156 148 -36 0 -61 -6 -85 -23z" fill="url(#linear-gradient-4-3)" id="region-4-3" transform="translate(0.000000,300.000000) scale(0.100000,-0.100000)"/><path d="M3319 2082 c-42 -22 -137 -79 -212 -128 -190 -124 -185 -131 37 -54 255 89 340 136 334 189 -3 23 -8 26 -43 29 -30 2 -58 -7 -116 -36z" fill="url(#linear-gradient-4-4)" id="region-4-4" transform="translate(0.000000,300.000000) scale(0.100000,-0.100000)"/><path d="M2845 2050 c-22 -5 -66 -18 -99 -30 l-58 -22 5 -39 5 -39 -74 0 c-52 0 -90 -6 -131 -22 l-58 -23 55 -5 55 -5 -53 -7 c-69 -9 -247 -96 -231 -112 2 -2 40 4 84 15 102 24 150 24 75 0 -78 -25 -173 -75 -260 -136 -81 -57 -173 -135 -167 -141 2 -3 29 7 61 21 82 36 81 31 -4 -19 -112 -65 -294 -199 -298 -219 -5 -24 23 -22 122 7 116 35 266 75 266 71 0 -2 -25 -17 -55 -34 -62 -35 -70 -49 -22 -43 38 4 358 108 402 129 30 15 30 15 -5 -16 l-35 -30 33 -1 c83 -1 310 101 377 170 l38 39 29 -40 28 -39 49 24 c27 14 72 47 102 74 l52 48 -30 45 c-17 24 -38 60 -48 79 -10 19 -19 36 -20 38 -1 2 -49 -9 -105 -23 -56 -14 -105 -24 -107 -21 -13 13 11 38 82 87 53 36 75 57 72 68 -3 9 -16 48 -30 86 -27 76 -32 79 -102 65z" fill="url(#linear-gradient-4-5)" id="region-4-5" transform="translate(0.000000,300.000000) scale(0.100000,-0.100000)"/><path d="M3235 1495 c-38 -8 -86 -18 -105 -24 -19 -6 -53 -11 -75 -12 -37 0 -38 -1 -15 -11 54 -22 420 17 479 52 25 15 -204 10 -284 -5z" fill="url(#linear-gradient-4-6)" id="region-4-6" transform="translate(0.000000,300.000000) scale(0.100000,-0.100000)"/></g><g id="layer-5"><path d="M3771 2352 c-93 -51 -94 -199 -2 -247 38 -19 104 -19 142 0 85 44 92 181 12 239 -38 28 -110 32 -152 8z" fill="url(#linear-gradient-5-1)" id="region-5-1" transform="translate(0.000000,300.000000) scale(0.100000,-0.100000)"/><path d="M3391 2103 c-71 -24 -298 -163 -266 -163 5 0 302 158 314 167 14 11 -10 9 -48 -4z" fill="url(#linear-gradient-5-2)" id="region-5-2" transform="translate(0.000000,300.000000) scale(0.100000,-0.100000)"/><path d="M2845 2050 c-22 -5 -66 -18 -99 -30 l-58 -22 5 -38 c6 -47 47 -135 79 -172 l23 -27 90 65 c50 36 89 70 88 77 0 7 -12 44 -26 82 -27 76 -32 79 -102 65z" fill="url(#linear-gradient-5-3)" id="region-5-3" transform="translate(0.000000,300.000000) scale(0.100000,-0.100000)"/><path d="M2947 1760 c-82 -22 -127 -40 -127 -50 0 -31 46 -143 75 -183 l35 -47 49 25 c27 13 72 46 102 73 l52 48 -30 45 c-17 24 -38 59 -47 77 -19 37 -18 36 -109 12z" fill="url(#linear-gradient-5-4)" id="region-5-4" transform="translate(0.000000,300.000000) scale(0.100000,-0.100000)"/></g><g id="layer-6"><path d="M3792 2333 c2 -12 16 -20 43 -24 22 -3 50 -12 63 -19 26 -17 52 -67 52 -102 1 -21 1 -22 11 -4 21 34 4 98 -35 133 -31 28 -43 33 -87 33 -43 0 -50 -3 -47 -17z" fill="url(#linear-gradient-6-1)" id="region-6-1" transform="translate(0.000000,300.000000) scale(0.100000,-0.100000)"/><path d="M3741 2304 c-12 -15 -21 -35 -21 -45 0 -14 6 -12 30 13 29 29 40 58 21 58 -5 0 -19 -12 -30 -26z" fill="url(#linear-gradient-6-2)" id="region-6-2" transform="translate(0.000000,300.000000) scale(0.100000,-0.100000)"/><path d="M2845 2050 c-22 -5 -66 -18 -97 -30 -52 -19 -58 -24 -58 -50 0 -16 4 -31 9 -34 5 -3 59 13 120 36 98 36 112 43 109 62 -3 24 -24 28 -83 16z" fill="url(#linear-gradient-6-3)" id="region-6-3" transform="translate(0.000000,300.000000) scale(0.100000,-0.100000)"/><path d="M3086 1671 c-9 -15 -98 -80 -154 -113 l-42 -25 20 -26 21 -27 48 24 c45 23 151 111 151 124 0 4 -9 18 -19 31 -12 16 -20 20 -25 12z" fill="url(#linear-gradient-6-4)" id="region-6-4" transform="translate(0.000000,300.000000) scale(0.100000,-0.100000)"/></g></svg>