<?xml version="1.0" standalone="no"?><!DOCTYPE svg PUBLIC "-//W3C//DTD SVG 20010904//EN" "http://www.w3.org/TR/2001/REC-SVG-20010904/DTD/svg10.dtd"><svg version="1.0" xmlns="http://www.w3.org/2000/svg" width="750pt" height="500pt" viewBox="0 0 750 500" preserveAspectRatio="xMidYMid meet"><defs><linearGradient id="linear-gradient-1-1" x1="0.00%" y1="100.00%" x2="0.00%" y2="0.00%"><stop offset="0%" style="stop-color:rgb(254,204,127);stop-opacity:1.000" /><stop offset="100%" style="stop-color:rgb(255,255,255);stop-opacity:1.000" /></linearGradient><linearGradient id="linear-gradient-2-1" x1="0.00%" y1="100.00%" x2="16.88%" y2="-37.82%"><stop offset="0%" style="stop-color:rgb(255,244,229);stop-opacity:0.870" /><stop offset="100%" style="stop-color:rgb(255,227,185);stop-opacity:0.649" /></linearGradient><linearGradient id="linear-gradient-2-2" x1="0.00%" y1="0.00%" x2="91.35%" y2="115.34%"><stop offset="0%" style="stop-color:rgb(255,216,165);stop-opacity:0.696" /><stop offset="100%" style="stop-color:rgb(254,255,255);stop-opacity:0.879" /></linearGradient><linearGradient id="linear-gradient-2-3" x1="0.00%" y1="100.00%" x2="0.00%" y2="0.00%"><stop offset="0%" style="stop-color:rgb(254,132,32);stop-opacity:0.526" /><stop offset="100%" style="stop-color:rgb(254,253,72);stop-opacity:0.692" /></linearGradient><linearGradient id="linear-gradient-3-1" x1="0.00%" y1="100.00%" x2="28.02%" y2="-37.71%"><stop offset="0%" style="stop-color:rgb(182,70,26);stop-opacity:0.417" /><stop offset="100%" style="stop-color:rgb(255,40,16);stop-opacity:0.114" /></linearGradient><linearGradient id="linear-gradient-3-2" x1="0.00%" y1="100.00%" x2="0.00%" y2="-0.00%"><stop offset="0%" style="stop-color:rgb(254,220,171);stop-opacity:0.843" /><stop offset="100%" style="stop-color:rgb(255,204,131);stop-opacity:0.766" /></linearGradient><linearGradient id="linear-gradient-4-1" x1="0.00%" y1="100.00%" x2="0.00%" y2="0.00%"><stop offset="0%" style="stop-color:rgb(159,6,0);stop-opacity:0.093" /><stop offset="100%" style="stop-color:rgb(171,2,0);stop-opacity:0.502" /></linearGradient><linearGradient id="linear-gradient-4-2" x1="0.00%" y1="100.00%" x2="63.80%" y2="-20.01%"><stop offset="0%" style="stop-color:rgb(163,84,106);stop-opacity:0.542" /><stop offset="100%" style="stop-color:rgb(207,59,22);stop-opacity:0.894" /></linearGradient><linearGradient id="linear-gradient-5-1" x1="0.00%" y1="100.00%" x2="0.00%" y2="-0.00%"><stop offset="0%" style="stop-color:rgb(255,234,201);stop-opacity:0.285" /><stop offset="100%" style="stop-color:rgb(255,243,203);stop-opacity:0.034" /></linearGradient><linearGradient id="linear-gradient-5-2" x1="0.00%" y1="100.00%" x2="0.00%" y2="-0.00%"><stop offset="0%" style="stop-color:rgb(255,255,226);stop-opacity:0.460" /><stop offset="100%" style="stop-color:rgb(255,255,219);stop-opacity:0.326" /></linearGradient><linearGradient id="linear-gradient-5-3" x1="0.00%" y1="100.00%" x2="67.14%" y2="-13.94%"><stop offset="0%" style="stop-color:rgb(247,248,178);stop-opacity:0.221" /><stop offset="100%" style="stop-color:rgb(255,255,181);stop-opacity:0.159" /></linearGradient><linearGradient id="linear-gradient-6-1" x1="0.00%" y1="100.00%" x2="0.00%" y2="-0.00%"><stop offset="0%" style="stop-color:rgb(116,3,41);stop-opacity:0.755" /><stop offset="100%" style="stop-color:rgb(207,89,80);stop-opacity:0.802" /></linearGradient><linearGradient id="linear-gradient-7-1" x1="0.00%" y1="100.00%" x2="3.60%" y2="-16.74%"><stop offset="0%" style="stop-color:rgb(24,10,20);stop-opacity:0.776" /><stop offset="100%" style="stop-color:rgb(55,0,28);stop-opacity:0.672" /></linearGradient><linearGradient id="linear-gradient-7-2" x1="0.00%" y1="100.00%" x2="0.00%" y2="0.00%"><stop offset="0%" style="stop-color:rgb(185,86,81);stop-opacity:0.735" /><stop offset="100%" style="stop-color:rgb(196,90,78);stop-opacity:0.798" /></linearGradient><linearGradient id="linear-gradient-8-1" x1="0.00%" y1="100.00%" x2="1.36%" y2="-14.20%"><stop offset="0%" style="stop-color:rgb(32,7,21);stop-opacity:0.693" /><stop offset="100%" style="stop-color:rgb(28,7,19);stop-opacity:0.800" /></linearGradient></defs><g id="layer-1"><path d="M0 2500 l0 -2500 3750 0 3750 0 0 2500 0 2500 -3750 0 -3750 0 0 -2500z" fill="url(#linear-gradient-1-1)" id="region-1-1" transform="translate(0.000000,500.000000) scale(0.100000,-0.100000)"/></g><g id="layer-2"><path d="M7420 4341 c-101 -32 -222 -122 -266 -197 -14 -24 -27 -44 -29 -44 -1 0 -20 7 -41 16 -95 40 -226 35 -320 -11 -78 -38 -172 -128 -204 -196 l-26 -56 -36 13 c-137 47 -327 5 -426 -94 -35 -35 -39 -36 -62 -24 -14 7 -51 12 -85 10 -52 -2 -66 2 -109 30 -76 49 -139 67 -236 67 -106 -1 -152 -14 -232 -68 -74 -50 -130 -120 -159 -199 -19 -50 -24 -56 -40 -48 -55 30 -179 -2 -214 -56 -13 -20 -18 -22 -52 -12 -50 14 -127 4 -170 -22 l-35 -20 -36 31 c-20 18 -61 44 -92 58 -48 23 -68 26 -155 26 -90 0 -106 -3 -158 -28 -75 -37 -148 -111 -184 -186 -27 -58 -29 -60 -60 -54 -40 6 -99 -12 -117 -38 -13 -19 -14 -19 -57 1 -67 30 -178 28 -249 -6 l-55 -26 33 -15 c117 -49 300 -71 457 -55 212 22 403 81 815 250 404 166 525 197 750 189 235 -8 344 -51 740 -289 320 -192 437 -248 594 -283 101 -23 156 -14 394 61 97 31 183 58 190 60 9 3 12 135 12 619 0 486 -3 615 -12 614 -7 0 -38 -8 -68 -18z" fill="url(#linear-gradient-2-1)" id="region-2-1" transform="translate(0.000000,500.000000) scale(0.100000,-0.100000)"/><path d="M0 3824 c0 -385 3 -484 12 -478 7 5 60 40 118 79 459 312 720 373 1100 259 47 -14 162 -55 255 -91 218 -83 330 -119 428 -138 86 -16 263 -20 271 -6 3 5 -12 29 -35 54 -68 79 -197 124 -320 114 -67 -6 -69 -5 -69 17 0 51 -79 106 -133 92 -19 -4 -26 2 -46 40 -31 57 -89 109 -160 143 -49 23 -68 26 -151 25 -96 0 -150 -16 -204 -57 -18 -13 -22 -12 -39 9 -10 13 -37 29 -60 36 -27 7 -58 29 -87 58 -70 71 -126 94 -242 98 -80 3 -104 0 -142 -17 l-47 -20 -44 31 c-37 26 -58 33 -109 36 -56 4 -65 7 -75 28 -27 60 -164 174 -208 174 -10 0 -13 -104 -13 -486z" fill="url(#linear-gradient-2-2)" id="region-2-2" transform="translate(0.000000,500.000000) scale(0.100000,-0.100000)"/><path d="M774 3729 c-68 -11 -199 -53 -279 -89 -91 -41 -186 -97 -352 -207 l-143 -95 0 -1669 0 -1669 3750 0 3750 0 0 1564 0 1564 -37 -10 c-21 -5 -106 -31 -188 -58 -209 -68 -271 -77 -371 -55 -157 35 -274 91 -594 283 -396 238 -505 281 -740 289 -225 8 -346 -23 -750 -189 -402 -165 -594 -225 -800 -249 -243 -28 -399 9 -790 186 -113 51 -237 104 -276 118 -186 67 -349 74 -621 27 -322 -55 -418 -41 -848 123 -347 133 -526 167 -711 136z" fill="url(#linear-gradient-2-3)" id="region-2-3" transform="translate(0.000000,500.000000) scale(0.100000,-0.100000)"/></g><g id="layer-3"><path d="M2450 3092 c0 -17 -10 -20 -72 -26 -141 -14 -377 -90 -550 -177 -54 -27 -58 -28 -58 -10 0 29 -18 35 -22 9 -4 -28 6 -28 -150 2 -119 22 -127 25 -134 49 -6 20 -8 22 -11 9 -3 -10 -9 -18 -14 -18 -5 0 -9 8 -9 18 -1 15 -2 14 -13 -3 -15 -26 -43 -21 -51 8 -7 22 -7 22 -15 1 -9 -20 -11 -20 -127 -6 -221 26 -744 17 -856 -14 -11 -3 -19 3 -24 18 l-7 23 -8 -23 c-10 -26 -29 -29 -29 -4 -1 15 -2 14 -12 -3 -6 -11 -12 -21 -13 -23 -2 -2 -15 -5 -30 -8 -15 -3 -33 -6 -39 -7 -6 -1 -12 8 -14 20 -2 14 -8 20 -18 16 -10 -4 -14 2 -14 20 0 50 -19 37 -30 -21 l-12 -59 -56 -14 -57 -15 -3 -1427 -2 -1427 3750 0 3750 0 0 1330 c0 1262 -1 1329 -17 1323 -27 -10 -93 -52 -137 -87 -21 -17 -93 -94 -161 -172 -173 -199 -277 -270 -475 -327 l-85 -25 -50 33 c-27 17 -108 70 -180 117 -71 47 -149 95 -172 108 -24 13 -46 34 -52 49 -7 21 -10 23 -16 10 -6 -16 -9 -16 -45 0 -29 11 -41 24 -45 44 -7 30 -20 35 -33 11 -7 -13 -16 -13 -83 6 -98 27 -241 35 -351 18 l-86 -14 -9 31 -10 30 -7 -32 c-8 -36 -26 -45 -26 -13 0 30 -18 24 -22 -7 -3 -25 -9 -28 -63 -39 -172 -36 -339 -39 -369 -8 -8 7 -16 10 -20 7 -3 -4 -6 3 -6 15 0 29 -16 37 -23 11 -6 -24 -27 -17 -27 9 -1 16 -2 15 -14 -1 -12 -16 -14 -14 -20 18 -4 20 -11 33 -16 30 -4 -3 -11 1 -13 7 -4 8 -8 4 -12 -9 -4 -13 -10 -23 -14 -23 -3 0 -62 46 -131 101 -69 55 -153 117 -187 137 -35 20 -63 44 -63 52 0 13 -1 13 -10 0 -7 -12 -11 -8 -16 17 -7 34 -24 36 -24 3 0 -16 -5 -17 -32 -10 -18 4 -50 11 -70 15 -29 4 -38 11 -38 25 0 27 -18 25 -22 -2 -3 -18 -6 -14 -12 15 -6 25 -13 36 -21 33 -8 -3 -16 8 -20 27 l-7 32 -11 -35 c-6 -19 -14 -37 -18 -40 -3 -3 -9 -14 -13 -25 -5 -19 -22 -22 -186 -39 -99 -9 -184 -15 -190 -11 -5 3 -10 15 -10 26 0 27 -20 24 -21 -3 0 -22 -1 -22 -11 2 l-11 25 -10 -34 -11 -34 -88 7 c-97 7 -240 41 -332 79 -43 18 -62 32 -72 53 -8 19 -13 23 -13 12 -1 -10 -7 -18 -14 -18 -7 0 -72 26 -143 59 -71 32 -146 65 -168 72 -22 8 -43 24 -49 37 -7 16 -13 19 -18 10 -4 -7 -10 3 -14 25 -8 39 -25 51 -25 18 0 -46 -7 -50 -63 -35 -29 8 -91 17 -139 21 -62 4 -88 10 -88 19 0 7 -4 16 -10 19 -5 3 -10 -3 -10 -13z" fill="url(#linear-gradient-3-1)" id="region-3-1" transform="translate(0.000000,500.000000) scale(0.100000,-0.100000)"/><path d="M7377 2989 c-120 -28 -253 -153 -288 -270 -12 -37 -14 -39 -54 -39 -52 0 -127 -45 -146 -88 l-13 -30 -41 16 c-24 10 -68 17 -110 17 -59 0 -81 -5 -137 -33 -61 -30 -118 -80 -131 -114 -3 -9 -14 -4 -38 19 -19 18 -54 39 -78 48 -49 17 -156 20 -195 5 -16 -6 -27 -6 -31 1 -17 26 -106 59 -162 59 -56 1 -59 2 -85 39 -57 83 -162 133 -278 134 -127 0 -229 -53 -292 -152 l-29 -46 -64 -1 c-52 -1 -72 -6 -105 -28 -22 -14 -40 -30 -40 -35 0 -5 -28 3 -62 16 -66 27 -196 41 -236 26 -21 -8 -20 -10 28 -46 27 -20 51 -37 54 -37 2 0 7 10 11 23 4 13 8 17 12 9 2 -6 9 -10 13 -7 5 3 12 -10 16 -30 6 -31 8 -34 19 -19 11 15 12 15 18 -6 6 -24 27 -19 27 6 0 8 5 12 10 9 6 -3 10 -16 10 -27 0 -12 3 -19 6 -15 4 3 12 0 20 -7 30 -31 197 -28 369 8 54 11 60 14 63 39 4 31 22 37 22 7 0 -31 16 -24 27 13 l10 32 7 -30 7 -31 87 14 c110 17 253 9 351 -18 67 -19 76 -19 83 -6 13 24 26 19 33 -11 4 -20 16 -33 45 -44 36 -16 39 -16 45 0 6 13 9 11 16 -10 6 -15 28 -36 52 -49 23 -13 101 -61 172 -108 72 -47 153 -100 180 -117 l50 -33 85 25 c198 57 302 128 477 329 124 142 191 203 271 244 l42 22 0 169 0 169 -42 -1 c-24 -1 -60 -5 -81 -10z" fill="url(#linear-gradient-3-2)" id="region-3-2" transform="translate(0.000000,500.000000) scale(0.100000,-0.100000)"/></g><g id="layer-4"><path d="M130 2942 l-12 -59 -56 -14 -57 -15 -3 -1427 -2 -1427 3750 0 3750 0 0 990 c0 893 -2 996 -17 1050 -9 33 -19 57 -22 54 -3 -3 -16 -47 -28 -97 -12 -51 -22 -80 -22 -64 -2 46 -17 30 -32 -34 l-14 -60 -90 -38 c-49 -21 -118 -52 -152 -70 -57 -28 -63 -29 -63 -13 0 35 -15 34 -25 -3 -8 -26 -22 -42 -51 -60 l-40 -24 -19 90 c-11 49 -22 89 -25 89 -3 0 -16 -48 -29 -107 -13 -60 -27 -115 -32 -124 -4 -9 -53 -43 -108 -77 l-100 -61 -7 35 c-8 42 -15 37 -29 -19 -10 -40 -14 -44 -135 -112 -69 -39 -181 -101 -250 -137 l-125 -66 -124 52 c-121 50 -125 53 -135 90 -11 37 -26 40 -26 4 0 -41 -17 -14 -29 47 -7 36 -16 65 -20 65 -5 0 -13 -25 -20 -55 -12 -52 -13 -54 -36 -43 -16 7 -27 25 -35 57 -13 47 -16 46 -34 -11 -11 -37 -34 -5 -51 73 -16 74 -33 96 -36 46 -1 -12 -6 -3 -12 21 -5 23 -13 42 -17 42 -3 0 -12 -29 -19 -65 -7 -36 -16 -67 -20 -69 -15 -9 -56 20 -59 42 -4 28 -22 29 -22 1 0 -13 -5 -19 -12 -16 -7 3 -57 20 -111 39 l-99 33 48 42 c27 23 47 43 44 45 -3 2 -84 23 -180 47 -192 47 -463 133 -689 218 -216 81 -511 204 -511 214 0 4 -8 7 -17 7 -35 -2 -93 30 -93 51 0 12 -4 21 -10 21 -5 0 -10 -4 -10 -10 0 -19 -29 -9 -256 91 -259 114 -586 254 -718 307 -92 36 -121 56 -129 89 -4 16 -6 15 -12 -4 -4 -13 -11 -23 -15 -23 -4 0 -12 10 -18 23 -9 18 -11 19 -11 4 -1 -24 -21 -11 -21 13 0 10 -8 26 -17 36 -16 16 -18 15 -26 -10 -9 -28 -27 -35 -27 -11 0 8 -4 15 -10 15 -5 0 -10 -4 -10 -8 0 -4 -80 19 -179 51 -157 53 -179 63 -188 86 -11 26 -11 26 -12 2 -1 -19 -5 -22 -23 -17 -13 3 -26 6 -30 6 -4 0 -10 16 -14 35 -3 19 -10 33 -14 30 -5 -3 -11 1 -13 7 -3 7 -8 -2 -12 -19 -7 -29 -10 -32 -34 -27 -14 4 -31 13 -38 21 -6 8 -16 12 -21 9 -5 -3 -13 9 -17 27 l-7 32 -10 -31 c-10 -31 -11 -31 -50 -21 -22 5 -42 17 -45 26 -14 44 -16 46 -22 21 -8 -30 3 -30 -153 0 -119 22 -127 25 -134 49 -6 20 -8 22 -11 9 -3 -10 -9 -18 -14 -18 -5 0 -9 8 -9 18 -1 15 -2 14 -13 -3 -15 -26 -43 -21 -51 8 -7 22 -7 22 -15 1 -9 -20 -11 -20 -127 -6 -221 26 -744 17 -856 -14 -11 -3 -19 3 -24 18 l-7 23 -8 -23 c-10 -26 -29 -29 -29 -4 -1 15 -2 14 -12 -3 -6 -11 -12 -21 -13 -23 -2 -2 -15 -5 -30 -8 -15 -3 -33 -6 -39 -7 -6 -1 -12 8 -14 20 -2 14 -8 20 -18 16 -10 -4 -14 2 -14 20 0 50 -19 37 -30 -21z" fill="url(#linear-gradient-4-1)" id="region-4-1" transform="translate(0.000000,500.000000) scale(0.100000,-0.100000)"/><path d="M7455 2639 c-78 -41 -146 -103 -268 -243 -69 -78 -153 -164 -187 -189 -156 -117 -338 -172 -745 -222 -483 -59 -655 -131 -1009 -424 l-78 -65 108 -37 c60 -21 110 -38 112 -39 1 0 2 9 2 20 0 27 18 25 22 -2 3 -22 44 -51 59 -42 4 2 13 33 20 69 7 36 16 65 19 65 4 0 12 -19 17 -42 6 -24 11 -33 12 -21 3 50 20 28 36 -46 17 -78 40 -110 51 -73 18 57 21 58 34 11 8 -32 19 -50 35 -57 23 -11 24 -9 36 43 7 30 15 55 20 55 4 0 13 -29 20 -65 12 -61 29 -88 29 -47 0 36 15 33 26 -4 10 -37 14 -40 135 -90 l124 -52 125 66 c69 36 181 98 250 137 121 68 125 72 135 112 14 56 21 61 29 19 l7 -35 100 61 c55 34 104 68 108 77 5 9 19 64 32 124 13 59 26 107 29 107 3 0 14 -40 25 -89 l19 -90 40 24 c29 18 43 34 51 60 10 37 25 38 25 3 0 -16 6 -15 63 13 34 18 103 49 152 70 l90 38 14 60 c15 64 30 80 32 34 0 -16 11 15 24 67 13 52 24 97 25 100 1 3 10 -20 20 -50 l18 -55 1 333 c1 182 0 332 -2 332 -1 0 -20 -9 -42 -21z" fill="url(#linear-gradient-4-2)" id="region-4-2" transform="translate(0.000000,500.000000) scale(0.100000,-0.100000)"/></g><g id="layer-5"><path d="M0 1226 l0 -1226 3750 0 3750 0 0 990 c0 893 -2 996 -17 1050 -9 33 -19 57 -22 54 -3 -3 -16 -47 -28 -97 -12 -51 -22 -80 -22 -64 -2 46 -17 30 -32 -34 l-14 -60 -90 -38 c-49 -21 -118 -52 -152 -70 -57 -28 -63 -29 -63 -13 0 35 -15 34 -25 -3 -8 -26 -22 -42 -51 -60 l-40 -24 -19 90 c-11 49 -22 89 -25 89 -3 0 -16 -48 -29 -107 -13 -60 -27 -115 -32 -124 -4 -9 -53 -43 -108 -77 l-100 -61 -7 35 c-8 42 -15 37 -29 -19 -10 -40 -14 -44 -135 -112 -69 -39 -181 -101 -250 -137 l-125 -66 -124 52 c-121 50 -125 53 -135 90 -11 37 -26 40 -26 4 0 -41 -17 -14 -29 47 -7 36 -16 65 -20 65 -5 0 -13 -25 -20 -55 -12 -52 -13 -54 -36 -43 -16 7 -27 25 -35 57 -13 47 -16 46 -34 -11 -11 -37 -34 -5 -51 73 -16 74 -33 96 -36 46 -1 -12 -6 -3 -12 21 -5 23 -13 42 -17 42 -3 0 -12 -29 -19 -65 -7 -36 -16 -67 -20 -69 -15 -9 -56 20 -59 42 -4 28 -22 29 -22 1 0 -13 -5 -19 -12 -16 -7 3 -88 31 -180 62 -184 61 -390 116 -511 136 -70 12 -78 16 -84 38 l-6 25 -9 -23 c-7 -21 -13 -23 -46 -17 -20 3 -54 6 -74 6 -36 0 -37 1 -49 55 -12 54 -29 83 -29 51 0 -9 -4 -16 -10 -16 -5 0 -10 8 -10 18 0 9 -4 23 -9 30 -6 9 -14 -9 -26 -57 l-17 -71 -78 0 -78 0 -6 45 c-9 59 -23 65 -31 14 -9 -54 -18 -38 -41 68 -9 45 -20 83 -24 83 -5 0 -13 -28 -20 -63 l-13 -63 -51 9 c-64 12 -143 -8 -202 -51 l-39 -29 -50 33 c-55 37 -146 64 -212 64 -96 0 -220 -43 -277 -96 -23 -22 -32 -25 -45 -15 -55 40 -126 52 -169 28 -21 -12 -28 -8 -101 64 -126 124 -244 172 -426 172 -113 0 -197 -18 -293 -63 -52 -24 -64 -27 -69 -14 -3 8 -26 26 -51 41 -54 32 -148 37 -199 11 l-32 -16 -32 49 c-36 56 -117 132 -168 159 -98 49 -265 66 -364 36 l-46 -14 -25 38 c-42 63 -119 110 -182 110 -13 0 -42 13 -66 29 -76 50 -133 66 -238 66 -64 0 -115 -6 -155 -18 l-60 -19 -75 40 c-102 55 -197 82 -307 89 l-93 6 0 -1227z" fill="url(#linear-gradient-5-1)" id="region-5-1" transform="translate(0.000000,500.000000) scale(0.100000,-0.100000)"/><path d="M7341 2259 c-106 -53 -168 -155 -192 -312 -5 -39 -12 -87 -15 -104 -5 -31 -7 -33 -45 -33 -51 0 -97 -20 -132 -58 -26 -27 -28 -34 -22 -76 l7 -46 41 25 c30 18 44 34 52 60 10 37 25 38 25 3 0 -16 6 -15 63 13 34 18 103 49 152 70 l90 38 14 60 c15 64 30 80 32 34 0 -16 11 15 24 67 13 52 24 97 25 100 1 3 10 -20 20 -50 l18 -55 1 148 1 147 -48 0 c-35 0 -67 -9 -111 -31z" fill="url(#linear-gradient-5-2)" id="region-5-2" transform="translate(0.000000,500.000000) scale(0.100000,-0.100000)"/><path d="M6722 1718 c-42 -14 -120 -83 -128 -112 -5 -21 -13 -24 -84 -29 -190 -13 -316 -133 -328 -313 l-5 -75 79 43 c44 23 135 74 204 113 121 68 125 72 135 112 14 56 21 61 29 19 l7 -35 100 61 c55 34 104 68 108 77 13 24 34 132 27 138 -11 12 -111 12 -144 1z" fill="url(#linear-gradient-5-3)" id="region-5-3" transform="translate(0.000000,500.000000) scale(0.100000,-0.100000)"/></g><g id="layer-6"><path d="M136 2289 c-2 -8 -17 -68 -33 -133 -28 -119 -28 -120 -63 -131 l-35 -12 -3 -1006 -2 -1007 3750 0 3750 0 0 990 c0 893 -2 996 -17 1050 -9 33 -19 57 -22 54 -3 -3 -16 -47 -28 -97 -12 -51 -22 -80 -22 -64 -2 46 -17 30 -32 -34 l-14 -60 -90 -38 c-49 -21 -118 -52 -152 -70 -57 -28 -63 -29 -63 -13 0 35 -15 34 -25 -3 -8 -26 -22 -42 -51 -60 l-40 -24 -19 90 c-11 49 -22 89 -25 89 -3 0 -16 -48 -29 -107 -13 -60 -27 -115 -32 -124 -4 -9 -53 -43 -108 -77 l-100 -61 -7 35 c-8 42 -15 37 -29 -19 -10 -40 -14 -44 -135 -112 -69 -39 -181 -101 -250 -137 l-125 -66 -124 52 c-121 50 -125 53 -135 90 -11 37 -26 40 -26 4 0 -41 -17 -14 -29 47 -7 36 -16 65 -20 65 -5 0 -13 -25 -20 -55 -12 -52 -13 -54 -36 -43 -16 7 -27 25 -35 57 -13 47 -16 46 -34 -11 -11 -37 -34 -5 -51 73 -16 74 -33 96 -36 46 -1 -12 -6 -3 -12 21 -5 23 -13 42 -17 42 -3 0 -12 -29 -19 -65 -7 -36 -16 -67 -20 -69 -15 -9 -56 20 -59 42 -4 28 -22 29 -22 1 0 -13 -5 -19 -12 -16 -7 3 -88 31 -180 62 -184 61 -390 116 -511 136 -70 12 -78 16 -84 38 l-6 25 -9 -23 c-7 -21 -13 -23 -46 -17 -20 3 -54 6 -74 6 -36 0 -37 1 -49 55 -12 54 -29 83 -29 51 0 -9 -4 -16 -10 -16 -5 0 -10 8 -10 18 0 9 -4 23 -9 30 -6 9 -14 -9 -26 -57 l-17 -71 -78 0 -78 0 -6 45 c-9 59 -23 65 -31 14 -9 -54 -18 -38 -41 68 -9 45 -20 83 -24 83 -4 0 -15 -36 -25 -81 -30 -141 -33 -149 -60 -149 -18 0 -26 7 -31 25 -8 33 -22 32 -26 -2 -3 -26 -7 -28 -133 -54 -71 -14 -251 -57 -400 -93 -547 -136 -774 -168 -1039 -145 -141 12 -166 19 -166 49 0 28 -18 34 -22 8 -2 -18 -9 -23 -31 -21 -48 3 -168 45 -176 62 -4 9 -14 44 -21 78 -14 67 -23 73 -35 21 -6 -28 -8 -30 -14 -14 -7 18 -8 18 -14 2 -4 -10 -7 -26 -7 -37 0 -10 -3 -19 -7 -19 -13 0 -196 102 -335 187 -206 125 -421 248 -473 270 -28 11 -45 24 -45 35 0 9 -4 20 -10 23 -5 3 -10 -1 -10 -9 0 -9 -1 -16 -3 -16 -16 0 -174 64 -179 73 -4 7 -8 22 -8 35 0 33 -17 27 -24 -9 -5 -24 -10 -30 -23 -25 -9 4 -36 10 -59 13 -37 5 -43 9 -48 35 -3 16 -10 27 -15 24 -5 -3 -14 17 -21 44 -7 27 -15 48 -20 45 -4 -2 -13 -32 -20 -65 -10 -46 -17 -60 -31 -60 -18 0 -22 9 -34 68 -9 46 -21 40 -31 -15 -9 -45 -11 -48 -42 -51 -18 -2 -40 2 -48 9 -11 9 -14 8 -14 -5 0 -11 -9 -16 -32 -16 -18 0 -43 -3 -55 -6 -19 -5 -22 0 -34 50 -6 30 -15 53 -19 51 -4 -3 -11 -24 -15 -47 l-7 -43 -24 99 c-25 104 -31 118 -38 95z" fill="url(#linear-gradient-6-1)" id="region-6-1" transform="translate(0.000000,500.000000) scale(0.100000,-0.100000)"/></g><g id="layer-7"><path d="M7460 2100 c-1 -3 -12 -48 -25 -100 -13 -52 -24 -83 -24 -67 -2 46 -17 30 -32 -34 l-14 -60 -90 -38 c-49 -21 -118 -52 -152 -70 -57 -28 -63 -29 -63 -13 0 35 -15 34 -25 -3 -8 -26 -22 -42 -51 -60 l-40 -24 -19 90 c-11 49 -22 89 -25 89 -3 0 -16 -48 -29 -107 -13 -60 -27 -115 -32 -124 -4 -9 -53 -43 -108 -77 l-100 -61 -7 35 c-8 42 -15 37 -29 -19 -10 -41 -14 -44 -155 -124 -405 -231 -1231 -613 -1252 -581 -4 7 -8 20 -8 29 0 36 -16 27 -30 -18 -8 -26 -19 -48 -24 -48 -5 0 -19 41 -30 92 -23 99 -32 118 -41 82 -3 -13 -15 -69 -28 -123 l-23 -99 -149 -54 c-389 -139 -581 -186 -770 -187 -149 0 -218 14 -332 71 l-71 36 -22 96 c-29 129 -40 171 -45 171 -2 0 -13 -43 -25 -95 l-22 -94 -24 15 c-13 9 -24 25 -24 35 0 10 -4 21 -10 24 -5 3 -10 -1 -10 -9 0 -20 -10 -20 -36 -2 -11 8 -48 24 -82 35 -83 28 -177 27 -314 -4 -182 -41 -232 -47 -301 -35 -101 18 -207 79 -487 279 -364 261 -537 366 -692 423 -52 18 -58 24 -64 54 -8 45 -21 51 -29 14 -5 -23 -11 -29 -23 -26 -55 16 -144 35 -187 41 -98 12 -90 5 -115 115 -13 55 -26 98 -29 94 -3 -3 -13 -36 -22 -72 -11 -45 -18 -61 -22 -49 -4 9 -10 25 -14 35 -4 11 -11 -4 -21 -46 -13 -54 -19 -62 -36 -60 -17 3 -24 20 -45 111 -13 59 -27 107 -31 107 -3 0 -16 -46 -29 -102 -12 -57 -24 -111 -27 -120 -3 -10 -22 -22 -47 -28 -163 -41 -408 -144 -591 -248 -60 -35 -113 -59 -117 -55 -3 5 -19 64 -34 133 -15 68 -31 133 -35 145 -9 24 -8 26 -44 -96 l-26 -85 0 -617 0 -617 3750 0 3750 0 0 993 c0 946 -1 995 -19 1052 -11 33 -20 58 -21 55z" fill="url(#linear-gradient-7-1)" id="region-7-1" transform="translate(0.000000,500.000000) scale(0.100000,-0.100000)"/><path d="M5910 1159 c-79 -22 -183 -83 -213 -126 -26 -37 -33 -41 -50 -31 -13 6 -53 9 -105 5 -65 -4 -96 -11 -143 -34 l-59 -29 -27 28 c-97 102 -276 105 -387 7 -25 -22 -51 -55 -57 -74 -7 -19 -16 -32 -21 -29 -20 13 -82 -11 -116 -44 l-37 -36 -82 3 c-113 4 -181 -17 -239 -74 -29 -30 -48 -59 -56 -90 -10 -35 -16 -44 -28 -38 -8 4 -44 9 -80 10 -75 4 -119 -16 -148 -67 -13 -23 -21 -28 -37 -22 -44 16 -139 7 -183 -18 -49 -27 -46 -30 48 -56 94 -26 292 -24 425 5 121 26 338 92 540 164 l149 54 23 99 c13 54 25 110 28 123 9 36 18 18 40 -79 11 -49 25 -90 30 -92 6 -2 17 19 25 45 14 45 30 54 30 18 1 -43 14 -42 149 14 205 85 349 149 561 252 l195 94 -34 15 c-37 16 -89 17 -141 3z" fill="url(#linear-gradient-7-2)" id="region-7-2" transform="translate(0.000000,500.000000) scale(0.100000,-0.100000)"/></g><g id="layer-8"><path d="M57 1420 c-4 -8 -17 -53 -31 -101 l-26 -85 0 -617 0 -617 3750 0 3750 0 0 353 0 352 -60 199 c-32 109 -61 201 -64 204 -8 7 -11 -2 -71 -273 -31 -137 -59 -260 -62 -273 -5 -20 -12 -11 -53 59 -26 46 -51 84 -56 86 -5 1 -22 -40 -38 -92 -16 -52 -32 -95 -36 -95 -4 0 -18 24 -30 52 l-23 53 -30 -97 c-17 -54 -33 -98 -36 -98 -3 0 -21 69 -40 153 -19 83 -37 157 -40 162 -3 6 -13 -33 -22 -85 l-16 -95 -10 40 c-6 22 -21 84 -34 139 -13 57 -25 92 -29 85 -4 -8 -20 -99 -36 -203 l-28 -189 -14 54 c-7 30 -17 58 -21 62 -5 4 -14 -19 -21 -52 -7 -34 -18 -67 -24 -75 -8 -10 -49 -15 -148 -20 l-136 -6 -28 83 -27 82 -13 -30 c-7 -16 -13 -39 -14 -50 -1 -32 -14 -1 -35 82 -11 40 -22 73 -25 73 -4 0 -12 -39 -19 -87 -18 -127 -21 -136 -36 -93 -6 19 -16 34 -21 33 -5 -1 -16 -27 -24 -58 l-14 -56 -50 3 c-48 3 -50 4 -60 43 -13 44 -20 40 -30 -17 -5 -27 -12 -38 -25 -38 -14 0 -21 17 -36 88 -10 48 -21 91 -25 95 -4 5 -16 -36 -26 -90 l-20 -98 -46 -5 -46 -6 -11 38 c-15 47 -27 48 -35 3 -4 -19 -11 -37 -16 -40 -4 -3 -82 -12 -172 -20 -90 -8 -181 -17 -204 -20 l-40 -6 -24 76 c-13 42 -27 78 -31 80 -3 3 -14 -26 -24 -62 l-18 -67 -31 81 c-17 45 -34 84 -38 88 -4 4 -21 -40 -38 -97 -33 -106 -47 -128 -87 -128 -23 0 -31 19 -49 108 -9 44 -15 34 -28 -45 -6 -38 -16 -67 -21 -66 -6 0 -21 51 -35 111 -14 61 -28 113 -31 117 -7 7 -12 -17 -30 -145 -7 -47 -15 -89 -19 -93 -6 -7 -281 -46 -323 -47 -5 0 -22 31 -39 70 -17 38 -34 70 -38 70 -3 0 -12 -23 -19 -50 -15 -57 -26 -64 -36 -20 -9 40 -22 30 -30 -24 -4 -23 -10 -49 -15 -56 -8 -14 -399 -72 -412 -61 -3 3 -21 62 -39 131 -18 69 -34 127 -36 129 -7 9 -13 -10 -44 -146 l-32 -141 -34 -7 c-42 -8 -49 -3 -58 37 l-7 33 -13 -40 c-12 -42 -10 -40 -117 -59 l-37 -7 -46 148 c-25 81 -49 156 -51 166 -3 9 -8 17 -12 17 -4 0 -29 -61 -57 -134 -27 -74 -53 -129 -56 -123 -3 7 -16 50 -29 97 -12 47 -25 88 -29 93 -4 4 -26 -55 -50 -131 l-43 -139 -115 18 c-63 10 -117 19 -118 21 -2 2 -22 63 -45 137 -23 73 -45 129 -50 125 -4 -5 -25 -61 -45 -124 l-38 -115 -38 3 c-45 5 -38 -15 -84 222 -38 193 -43 215 -49 209 -3 -2 -23 -87 -46 -189 -23 -102 -45 -191 -49 -198 -4 -7 -18 40 -31 105 -12 65 -26 124 -30 132 -5 9 -19 -33 -36 -107 -30 -133 -28 -131 -101 -116 -28 6 -32 12 -52 82 -53 183 -62 212 -70 208 -4 -3 -16 -33 -26 -66 -11 -37 -21 -56 -25 -48 -4 7 -18 84 -31 171 -13 86 -26 157 -29 157 -4 0 -24 -64 -45 -142 l-39 -143 -20 78 c-12 42 -23 77 -27 77 -4 0 -31 -70 -60 -155 -50 -145 -55 -155 -79 -155 -69 0 -366 35 -376 44 -6 6 -21 52 -33 101 -48 195 -47 195 -76 80 -10 -38 -21 -73 -25 -78 -3 -4 -13 39 -22 95 -9 57 -31 194 -49 306 -18 111 -35 200 -38 196 -3 -3 -29 -109 -56 -236 l-50 -230 -24 161 c-13 89 -27 161 -31 161 -4 0 -33 -117 -66 -259 -32 -143 -60 -259 -61 -257 -1 1 -23 69 -49 152 -25 82 -49 153 -53 157 -5 4 -23 -27 -41 -70 -18 -43 -36 -81 -40 -86 -3 -4 -30 67 -59 158 -29 91 -54 165 -56 165 -2 0 -38 -61 -81 -136 -42 -74 -80 -131 -84 -127 -4 4 -49 195 -100 423 -98 439 -104 465 -113 440z" fill="url(#linear-gradient-8-1)" id="region-8-1" transform="translate(0.000000,500.000000) scale(0.100000,-0.100000)"/></g></svg>