<?xml version="1.0" encoding="utf-8"?>
<!-- Generator: Adobe Illustrator 26.5.0, SVG Export Plug-In . SVG Version: 6.00 Build 0)  -->
<svg version="1.1" xmlns="http://www.w3.org/2000/svg" xmlns:xlink="http://www.w3.org/1999/xlink" x="0px" y="0px"
	 viewBox="0 0 6000 500" style="enable-background:new 0 0 6000 500;" xml:space="preserve">
<style type="text/css">
	.st0{fill:none;}
	.st1{fill:#D3D3D3;}
	.st2{fill:url(#SVGID_1_);}
	.st3{fill:url(#region-1-1_00000087410521923254097840000015194151500383094204_);}
	.st4{fill:url(#region-2-1_00000167385611469466611000000000833097707978645435_);}
	.st5{fill:url(#region-2-2_00000134957392107814272300000003500896981537317024_);}
	.st6{fill:url(#region-2-3_00000027574167336179298420000011176625152886661769_);}
	.st7{fill:url(#region-2-4_00000182522356124211458160000016520019917157784217_);}
	.st8{fill:url(#region-2-5_00000080896949249671254500000007765874331598893445_);}
	.st9{fill:url(#region-3-1_00000000207920085266900950000008508588503482347654_);}
	.st10{fill:url(#region-3-2_00000093879928000982893480000011102398111541532809_);}
	.st11{fill:url(#region-4-1_00000158709224835013692740000004031409286027547566_);}
	.st12{fill:url(#region-4-2_00000051365765799544056020000009828838374518462356_);}
	.st13{fill:url(#region-4-3_00000079459739301252841280000005484089701021969580_);}
	.st14{fill:url(#region-5-1_00000020397293334774490630000010065866233723288221_);}
	.st15{fill:url(#region-6-1_00000026134639031888432770000008910071162352415887_);}
	.st16{fill:url(#region-6-2_00000074415963372179381980000007284279132718759087_);}
	.st17{fill:url(#region-7-1_00000121967357056221765270000008943312110220753798_);}
	.st18{fill:url(#region-1-1_00000032647225818347520020000011553941551605213881_);}
	.st19{fill:url(#region-2-1_00000114054486560810452260000009227130629383095487_);}
	.st20{fill:url(#region-2-2_00000123424191879456700020000012495442906303683230_);}
	.st21{fill:url(#region-2-3_00000026869550636667023980000000404497410942529965_);}
	.st22{fill:url(#region-2-4_00000118366296447693761110000007045971098005945270_);}
	.st23{fill:url(#region-2-5_00000168795497069075948600000010054769116530316426_);}
	.st24{fill:url(#region-3-1_00000143600286407152674750000005432954243551632820_);}
	.st25{fill:url(#region-3-2_00000113328804969504165570000016929012033339502218_);}
	.st26{fill:url(#region-4-1_00000021830462711301117230000008149471789254771886_);stroke:#000000;stroke-miterlimit:10;}
	.st27{fill:url(#region-4-2_00000167364943964113667650000014378042481798244795_);stroke:#000000;stroke-miterlimit:10;}
	.st28{fill:url(#region-4-3_00000010295373249905469130000007616347414247852722_);stroke:#000000;stroke-miterlimit:10;}
	.st29{fill:url(#region-5-1_00000015334149140179733320000013376067288784947090_);}
	.st30{fill:url(#region-6-1_00000054960534559051849850000013881071983542977188_);}
	.st31{fill:url(#region-6-2_00000173844652174924533700000016761012961424013446_);}
	.st32{fill:url(#region-7-1_00000067211438533838879740000010915524564920187277_);}
</style>
<pattern  width="40" height="40" patternUnits="userSpaceOnUse" id="SVGID_0000009819875603640501018" viewBox="0 -40 40 40" style="overflow:visible;">
	<g>
		<rect y="-40" class="st0" width="40" height="40"/>
		<g>
			<rect y="-40" class="st0" width="40" height="40"/>
			<g>
				<rect y="-40" class="st0" width="40" height="40"/>
				<rect y="-40" class="st0" width="40" height="40"/>
				<rect y="-40" class="st1" width="20" height="20"/>
				<rect x="20" y="-20" class="st1" width="20" height="20"/>
			</g>
		</g>
	</g>
</pattern>
<g id="图层_1">
	<pattern  id="SVGID_1_" xlink:href="#SVGID_0000009819875603640501018" patternTransform="matrix(1 0 0 1 1291 17312.2402)">
	</pattern>
	<rect x="0.33" class="st2" width="5999.67" height="500"/>
	<g id="layer-1">
		
			<linearGradient id="region-1-1_00000004540057011293179330000001838253875255280006_" gradientUnits="userSpaceOnUse" x1="2598.033" y1="650.3033" x2="2598.033" y2="651.3033" gradientTransform="matrix(750 0 0 500 -1948149 -325149)">
			<stop  offset="0" style="stop-color:#FEA66F;stop-opacity:0.99"/>
			<stop  offset="1" style="stop-color:#FFD54F"/>
		</linearGradient>
		<path id="region-1-1" style="fill:url(#region-1-1_00000004540057011293179330000001838253875255280006_);" d="M0.67,252.67v250
			h375h375v-250v-250h-375h-375V252.67z"/>
	</g>
	<g id="layer-2">
		
			<linearGradient id="region-2-1_00000119075530776685503460000013536140695750095238_" gradientUnits="userSpaceOnUse" x1="2598.033" y1="650.8445" x2="2598.033" y2="651.8445" gradientTransform="matrix(750 0 0 179.6 -1948149 -116889)">
			<stop  offset="0" style="stop-color:#FEDD7E;stop-opacity:0.616"/>
			<stop  offset="1" style="stop-color:#FFEEDA;stop-opacity:0.86"/>
		</linearGradient>
		<path id="region-2-1" style="fill:url(#region-2-1_00000119075530776685503460000013536140695750095238_);" d="M0.67,36.87v34.3
			l4.6,1.9c5.4,2.2,14.2,10,16.9,14.9c1.8,3.3,2.1,3.5,8.2,3.9c5,0.3,7.1,1,10.8,3.6l4.4,3.1l4.7-2c3.8-1.7,6.2-2,14.2-1.7
			c11.6,0.4,17.2,2.7,24.2,9.8c2.9,2.9,6,5.1,8.7,5.8c2.3,0.7,5,2.3,6,3.6c1.7,2.1,2.1,2.2,3.9,0.9c5.4-4.1,10.8-5.7,20.4-5.7
			c8.3-0.1,10.2,0.2,15.1,2.5c7.1,3.4,12.9,8.6,16,14.3c2,3.8,2.7,4.4,4.6,4c5.4-1.4,13.3,4.1,13.3,9.2c0,2.2,0.2,2.3,6.9,1.7
			c12.6-1.1,25.2,3.5,32.5,11.9l4.5,5.2l15.4-2.7c33.3-5.8,48.4-3.4,85.8,13.9c7.9,3.7,17.9,8.1,22.2,9.9l7.8,3.1l5.6-2.8
			c7.1-3.6,18.2-3.9,25.2-0.8c4.3,2,4.4,2,5.7,0.1c1.8-2.6,7.7-4.4,11.7-3.8c3.1,0.6,3.3,0.4,6-5.4c3.6-7.5,10.9-14.9,18.4-18.6
			c5.2-2.5,6.8-2.8,15.8-2.8c8.7,0,10.7,0.3,15.5,2.6c3.1,1.4,7.2,4,9.2,5.8l3.6,3.1l3.5-2c4.3-2.6,12-3.6,17-2.2
			c3.4,1,3.9,0.8,5.2-1.2c3.5-5.4,15.9-8.6,21.4-5.6c1.6,0.8,2.1,0.2,4-4.8c2.9-7.9,8.5-14.9,15.9-19.9c8-5.4,12.6-6.7,23.2-6.8
			c9.7,0,16,1.8,23.6,6.7c4.3,2.8,5.7,3.2,10.9,3c3.4-0.2,7.1,0.3,8.5,1c2.3,1.2,2.7,1.1,6.2-2.4c9.9-9.9,28.9-14.1,42.6-9.4
			l3.6,1.3l2.6-5.6c3.2-6.8,12.6-15.8,20.3-19.6c9.5-4.6,22.6-5.1,32.1-1.1c2.1,0.9,4,1.6,4.1,1.6c0.2,0,1.5-2,2.9-4.4
			c4.7-8.1,17.5-17.2,28.4-20.2l6.2-1.7v-31.9V2.67h-375h-375V36.87z"/>
		
			<linearGradient id="region-2-2_00000150810975681976759150000002006836036736748695_" gradientUnits="userSpaceOnUse" x1="2594.854" y1="651.0223" x2="2595.2173" y2="652.5755" gradientTransform="matrix(398.5 0 0 136.5157 -1033546 -88820.125)">
			<stop  offset="0" style="stop-color:#FEFAEC;stop-opacity:0.882"/>
			<stop  offset="1" style="stop-color:#FFF2D2;stop-opacity:0.703"/>
		</linearGradient>
		<path id="region-2-2" style="fill:url(#region-2-2_00000150810975681976759150000002006836036736748695_);" d="M742.67,68.57
			c-10.1,3.2-22.2,12.2-26.6,19.7c-1.4,2.4-2.7,4.4-2.9,4.4c-0.1,0-2-0.7-4.1-1.6c-9.5-4-22.6-3.5-32,1.1
			c-7.8,3.8-17.2,12.8-20.4,19.6l-2.6,5.6l-3.6-1.3c-13.7-4.7-32.7-0.5-42.6,9.4c-3.5,3.5-3.9,3.6-6.2,2.4c-1.4-0.7-5.1-1.2-8.5-1
			c-5.2,0.2-6.6-0.2-10.9-3c-7.6-4.9-13.9-6.7-23.6-6.7c-10.6,0.1-15.2,1.4-23.2,6.8c-7.4,5-13,12-15.9,19.9c-1.9,5-2.4,5.6-4,4.8
			c-5.5-3-17.9,0.2-21.4,5.6c-1.3,2-1.8,2.2-5.2,1.2c-5-1.4-12.7-0.4-17,2.2l-3.5,2l-3.6-3.1c-2-1.8-6.1-4.4-9.2-5.8
			c-4.8-2.3-6.8-2.6-15.5-2.6c-9,0-10.6,0.3-15.8,2.8c-7.5,3.7-14.8,11.1-18.4,18.6c-2.7,5.8-2.9,6-6,5.4c-4-0.6-9.9,1.2-11.7,3.8
			c-1.3,1.9-1.4,1.9-5.7-0.1c-6.7-3-17.8-2.8-24.9,0.6l-5.5,2.6l3.3,1.5c11.7,4.9,30,7.1,45.7,5.5c21.2-2.2,40.3-8.1,81.5-25
			c40.4-16.6,52.5-19.7,75-18.9c23.5,0.8,34.4,5.1,74,28.9c32,19.2,43.7,24.8,59.4,28.3c10.1,2.3,15.6,1.4,39.4-6.1
			c9.7-3.1,18.3-5.8,19-6c0.9-0.3,1.2-13.5,1.2-61.9c0-48.6-0.3-61.5-1.2-61.4C748.77,66.77,745.67,67.57,742.67,68.57z"/>
		
			<linearGradient id="region-2-3_00000114051214345594297520000005673055079490549942_" gradientUnits="userSpaceOnUse" x1="2589.1289" y1="652.5997" x2="2590.052" y2="651.46" gradientTransform="matrix(218.4381 0 0 96.4253 -565556.5 -62756.457)">
			<stop  offset="0" style="stop-color:#FFEDBD;stop-opacity:0.651"/>
			<stop  offset="1" style="stop-color:#FEFFFF;stop-opacity:0.897"/>
		</linearGradient>
		<path id="region-2-3" style="fill:url(#region-2-3_00000114051214345594297520000005673055079490549942_);" d="M0.67,120.27
			c0,38.5,0.3,48.4,1.2,47.8c0.7-0.5,6-4,11.8-7.9c45.9-31.2,72-37.3,110-25.9c4.7,1.4,16.2,5.5,25.5,9.1
			c21.8,8.3,33,11.9,42.8,13.8c8.6,1.6,26.3,2,27.1,0.6c0.3-0.5-1.2-2.9-3.5-5.4c-6.8-7.9-19.7-12.4-32-11.4
			c-6.7,0.6-6.9,0.5-6.9-1.7c0-5.1-7.9-10.6-13.3-9.2c-1.9,0.4-2.6-0.2-4.6-4c-3.1-5.7-8.9-10.9-16-14.3c-4.9-2.3-6.8-2.6-15.1-2.5
			c-9.6,0-15,1.6-20.4,5.7c-1.8,1.3-2.2,1.2-3.9-0.9c-1-1.3-3.7-2.9-6-3.6c-2.7-0.7-5.8-2.9-8.7-5.8c-7-7.1-12.6-9.4-24.2-9.8
			c-8-0.3-10.4,0-14.2,1.7l-4.7,2l-4.4-3.1c-3.7-2.6-5.8-3.3-10.9-3.6c-5.6-0.4-6.5-0.7-7.5-2.8c-2.7-6-16.4-17.4-20.8-17.4
			C0.97,71.67,0.67,82.07,0.67,120.27z"/>
		
			<linearGradient id="region-2-4_00000008111378380876334810000015163551487514642596_" gradientUnits="userSpaceOnUse" x1="2597.906" y1="650.4155" x2="2598.1729" y2="651.7838" gradientTransform="matrix(750 0 0 310.5775 -1948149 -201834.9531)">
			<stop  offset="0" style="stop-color:#B4370F;stop-opacity:0.394"/>
			<stop  offset="1" style="stop-color:#FF7783;stop-opacity:0.144"/>
		</linearGradient>
		<path id="region-2-4" style="fill:url(#region-2-4_00000008111378380876334810000015163551487514642596_);" d="M245.67,193.47
			c0,1.7-1,2-7.2,2.6c-14.1,1.4-37.7,9-55,17.7c-5.4,2.7-5.8,2.8-5.8,1c0-2.9-1.8-3.5-2.2-0.9c-0.4,2.8,0.6,2.8-15-0.2
			c-11.9-2.2-12.7-2.5-13.4-4.9c-0.6-2-0.8-2.2-1.1-0.9c-0.3,1-0.9,1.8-1.4,1.8s-0.9-0.8-0.9-1.8c-0.1-1.5-0.2-1.4-1.3,0.3
			c-1.5,2.6-4.3,2.1-5.1-0.8c-0.7-2.2-0.7-2.2-1.5-0.1c-0.9,2-1.1,2-12.7,0.6c-22.1-2.6-74.4-1.7-85.6,1.4c-1.1,0.3-1.9-0.3-2.4-1.8
			l-0.7-2.3l-0.8,2.3c-1,2.6-2.9,2.9-2.9,0.4c-0.1-1.5-0.2-1.4-1.2,0.3c-0.6,1.1-1.2,2.1-1.3,2.3c-0.2,0.2-1.5,0.5-3,0.8
			s-3.3,0.6-3.9,0.7c-0.6,0.1-1.2-0.8-1.4-2c-0.2-1.4-0.8-2-1.8-1.6c-1,0.4-1.4-0.2-1.4-2c0-5-1.9-3.7-3,2.1l-1.2,5.9l-5.6,1.4
			l-5.7,1.5l-0.3,142.7l-0.2,142.7h375h375v-133c0-126.2-0.1-132.9-1.7-132.3c-2.7,1-9.3,5.2-13.7,8.7c-2.1,1.7-9.3,9.4-16.1,17.2
			c-17.3,19.9-27.7,27-47.5,32.7l-8.5,2.5l-5-3.3c-2.7-1.7-10.8-7-18-11.7c-7.1-4.7-14.9-9.5-17.2-10.8c-2.4-1.3-4.6-3.4-5.2-4.9
			c-0.7-2.1-1-2.3-1.6-1c-0.6,1.6-0.9,1.6-4.5,0c-2.9-1.1-4.1-2.4-4.5-4.4c-0.7-3-2-3.5-3.3-1.1c-0.7,1.3-1.6,1.3-8.3-0.6
			c-9.8-2.7-24.1-3.5-35.1-1.8l-8.6,1.4l-0.9-3.1l-1-3l-0.7,3.2c-0.8,3.6-2.6,4.5-2.6,1.3c0-3-1.8-2.4-2.2,0.7
			c-0.3,2.5-0.9,2.8-6.3,3.9c-17.2,3.6-33.9,3.9-36.9,0.8c-0.8-0.7-1.6-1-2-0.7c-0.3,0.4-0.6-0.3-0.6-1.5c0-2.9-1.6-3.7-2.3-1.1
			c-0.6,2.4-2.7,1.7-2.7-0.9c-0.1-1.6-0.2-1.5-1.4,0.1c-1.2,1.6-1.4,1.4-2-1.8c-0.4-2-1.1-3.3-1.6-3c-0.4,0.3-1.1-0.1-1.3-0.7
			c-0.4-0.8-0.8-0.4-1.2,0.9c-0.4,1.3-1,2.3-1.4,2.3c-0.3,0-6.2-4.6-13.1-10.1c-6.9-5.5-15.3-11.7-18.7-13.7c-3.5-2-6.3-4.4-6.3-5.2
			c0-1.3-0.1-1.3-1,0c-0.7,1.2-1.1,0.8-1.6-1.7c-0.7-3.4-2.4-3.6-2.4-0.3c0,1.6-0.5,1.7-3.2,1c-1.8-0.4-5-1.1-7-1.5
			c-2.9-0.4-3.8-1.1-3.8-2.5c0-2.7-1.8-2.5-2.2,0.2c-0.3,1.8-0.6,1.4-1.2-1.5c-0.6-2.5-1.3-3.6-2.1-3.3c-0.8,0.3-1.6-0.8-2-2.7
			l-0.7-3.2l-1.1,3.5c-0.6,1.9-1.4,3.7-1.8,4c-0.3,0.3-0.9,1.4-1.3,2.5c-0.5,1.9-2.2,2.2-18.6,3.9c-9.9,0.9-18.4,1.5-19,1.1
			c-0.5-0.3-1-1.5-1-2.6c0-2.7-2-2.4-2.1,0.3c0,2.2-0.1,2.2-1.1-0.2l-1.1-2.5l-1,3.4l-1.1,3.4l-8.8-0.7c-9.7-0.7-24-4.1-33.2-7.9
			c-4.3-1.8-6.2-3.2-7.2-5.3c-0.8-1.9-1.3-2.3-1.3-1.2c-0.1,1-0.7,1.8-1.4,1.8s-7.2-2.6-14.3-5.9c-7.1-3.2-14.6-6.5-16.8-7.2
			c-2.2-0.8-4.3-2.4-4.9-3.7c-0.7-1.6-1.3-1.9-1.8-1c-0.4,0.7-1-0.3-1.4-2.5c-0.8-3.9-2.5-5.1-2.5-1.8c0,4.6-0.7,5-6.3,3.5
			c-2.9-0.8-9.1-1.7-13.9-2.1c-6.2-0.4-8.8-1-8.8-1.9c0-0.7-0.4-1.6-1-1.9C246.17,191.87,245.67,192.47,245.67,193.47z"/>
		
			<linearGradient id="region-2-5_00000129897613523724465690000012120762708065231751_" gradientUnits="userSpaceOnUse" x1="2592.0471" y1="651.5818" x2="2592.0498" y2="652.5913" gradientTransform="matrix(275.1049 0 0 95.8 -712471.9375 -62219)">
			<stop  offset="0" style="stop-color:#FEFFFF;stop-opacity:0.399"/>
			<stop  offset="1" style="stop-color:#FEFFFF;stop-opacity:0.203"/>
		</linearGradient>
		<path id="region-2-5" style="fill:url(#region-2-5_00000129897613523724465690000012120762708065231751_);" d="M738.37,203.77
			c-12,2.8-25.3,15.3-28.8,27c-1.2,3.7-1.4,3.9-5.4,3.9c-5.2,0-12.7,4.5-14.6,8.8l-1.3,3l-4.1-1.6c-2.4-1-6.8-1.7-11-1.7
			c-5.9,0-8.1,0.5-13.7,3.3c-6.1,3-11.8,8-13.1,11.4c-0.3,0.9-1.4,0.4-3.8-1.9c-1.9-1.8-5.4-3.9-7.8-4.8c-4.9-1.7-15.6-2-19.5-0.5
			c-1.6,0.6-2.7,0.6-3.1-0.1c-1.7-2.6-10.6-5.9-16.2-5.9c-5.6-0.1-5.9-0.2-8.5-3.9c-5.7-8.3-16.2-13.3-27.8-13.4
			c-12.7,0-22.9,5.3-29.2,15.2l-2.9,4.6l-6.4,0.1c-5.2,0.1-7.2,0.6-10.5,2.8c-2.2,1.4-4,3-4,3.5s-2.8-0.3-6.2-1.6
			c-6.6-2.7-19.6-4.1-23.6-2.6c-2.1,0.8-2,1,2.8,4.6c2.7,2,5.1,3.7,5.4,3.7c0.2,0,0.7-1,1.1-2.3c0.4-1.3,0.8-1.7,1.2-0.9
			c0.2,0.6,0.9,1,1.3,0.7c0.5-0.3,1.2,1,1.6,3c0.6,3.1,0.8,3.4,1.9,1.9c1.1-1.5,1.2-1.5,1.8,0.6c0.6,2.4,2.7,1.9,2.7-0.6
			c0-0.8,0.5-1.2,1-0.9c0.6,0.3,1,1.6,1,2.7c0,1.2,0.3,1.9,0.6,1.5c0.4-0.3,1.2,0,2,0.7c3,3.1,19.7,2.8,36.9-0.8
			c5.4-1.1,6-1.4,6.3-3.9c0.4-3.1,2.2-3.7,2.2-0.7c0,3.1,1.6,2.4,2.7-1.3l1-3.2l0.7,3l0.7,3.1l8.7-1.4c11-1.7,25.3-0.9,35.1,1.8
			c6.7,1.9,7.6,1.9,8.3,0.6c1.3-2.4,2.6-1.9,3.3,1.1c0.4,2,1.6,3.3,4.5,4.4c3.6,1.6,3.9,1.6,4.5,0c0.6-1.3,0.9-1.1,1.6,1
			c0.6,1.5,2.8,3.6,5.2,4.9c2.3,1.3,10.1,6.1,17.2,10.8c7.2,4.7,15.3,10,18,11.7l5,3.3l8.5-2.5c19.8-5.7,30.2-12.8,47.7-32.9
			c12.4-14.2,19.1-20.3,27.1-24.4l4.2-2.2v-16.9v-16.9l-4.2,0.1C744.07,202.87,740.47,203.27,738.37,203.77z"/>
	</g>
	<g id="layer-3">
		
			<linearGradient id="region-3-1_00000049213579035191738440000017522029142385562271_" gradientUnits="userSpaceOnUse" x1="2598.033" y1="650.5066" x2="2598.033" y2="651.5066" gradientTransform="matrix(750 0 0 299.3995 -1948149 -194558.0469)">
			<stop  offset="0" style="stop-color:#930001;stop-opacity:0.078"/>
			<stop  offset="1" style="stop-color:#AB0407;stop-opacity:0.471"/>
		</linearGradient>
		<path id="region-3-1" style="fill:url(#region-3-1_00000049213579035191738440000017522029142385562271_);" d="M13.67,208.47
			l-1.2,5.9l-5.6,1.4l-5.7,1.5l-0.3,142.7l-0.2,142.7h375h375v-99c0-89.3-0.2-99.6-1.7-105c-0.9-3.3-1.9-5.7-2.2-5.4
			c-0.3,0.3-1.6,4.7-2.8,9.7c-1.2,5.1-2.2,8-2.2,6.4c-0.2-4.6-1.7-3-3.2,3.4l-1.4,6l-9,3.8c-4.9,2.1-11.8,5.2-15.2,7
			c-5.7,2.8-6.3,2.9-6.3,1.3c0-3.5-1.5-3.4-2.5,0.3c-0.8,2.6-2.2,4.2-5.1,6l-4,2.4l-1.9-9c-1.1-4.9-2.2-8.9-2.5-8.9
			s-1.6,4.8-2.9,10.7c-1.3,6-2.7,11.5-3.2,12.4c-0.4,0.9-5.3,4.3-10.8,7.7l-10,6.1l-0.7-3.5c-0.8-4.2-1.5-3.7-2.9,1.9
			c-1,4-1.4,4.4-13.5,11.2c-6.9,3.9-18.1,10.1-25,13.7l-12.5,6.6l-12.4-5.2c-12.1-5-12.5-5.3-13.5-9c-1.1-3.7-2.6-4-2.6-0.4
			c0,4.1-1.7,1.4-2.9-4.7c-0.7-3.6-1.6-6.5-2-6.5c-0.5,0-1.3,2.5-2,5.5c-1.2,5.2-1.3,5.4-3.6,4.3c-1.6-0.7-2.7-2.5-3.5-5.7
			c-1.3-4.7-1.6-4.6-3.4,1.1c-1.1,3.7-3.4,0.5-5.1-7.3c-1.6-7.4-3.3-9.6-3.6-4.6c-0.1,1.2-0.6,0.3-1.2-2.1c-0.5-2.3-1.3-4.2-1.7-4.2
			c-0.3,0-1.2,2.9-1.9,6.5c-0.7,3.6-1.6,6.7-2,6.9c-1.5,0.9-5.6-2-5.9-4.2c-0.4-2.8-2.2-2.9-2.2-0.1c0,1.3-0.5,1.9-1.2,1.6
			s-5.7-2-11.1-3.9l-9.9-3.3l4.8-4.2c2.7-2.3,4.7-4.3,4.4-4.5c-0.3-0.2-8.4-2.3-18-4.7c-19.2-4.7-46.3-13.3-68.9-21.8
			c-21.6-8.1-51.1-20.4-51.1-21.4c0-0.4-0.8-0.7-1.7-0.7c-3.5,0.2-9.3-3-9.3-5.1c0-1.2-0.4-2.1-1-2.1c-0.5,0-1,0.4-1,1
			c0,1.9-2.9,0.9-25.6-9.1c-25.9-11.4-58.6-25.4-71.8-30.7c-9.2-3.6-12.1-5.6-12.9-8.9c-0.4-1.6-0.6-1.5-1.2,0.4
			c-0.4,1.3-1.1,2.3-1.5,2.3s-1.2-1-1.8-2.3c-0.9-1.8-1.1-1.9-1.1-0.4c-0.1,2.4-2.1,1.1-2.1-1.3c0-1-0.8-2.6-1.7-3.6
			c-1.6-1.6-1.8-1.5-2.6,1c-0.9,2.8-2.7,3.5-2.7,1.1c0-0.8-0.4-1.5-1-1.5c-0.5,0-1,0.4-1,0.8c0,0.4-8-1.9-17.9-5.1
			c-15.7-5.3-17.9-6.3-18.8-8.6c-1.1-2.6-1.1-2.6-1.2-0.2c-0.1,1.9-0.5,2.2-2.3,1.7c-1.3-0.3-2.6-0.6-3-0.6c-0.4,0-1-1.6-1.4-3.5
			c-0.3-1.9-1-3.3-1.4-3c-0.5,0.3-1.1-0.1-1.3-0.7c-0.3-0.7-0.8,0.2-1.2,1.9c-0.7,2.9-1,3.2-3.4,2.7c-1.4-0.4-3.1-1.3-3.8-2.1
			c-0.6-0.8-1.6-1.2-2.1-0.9s-1.3-0.9-1.7-2.7l-0.7-3.2l-1,3.1c-1,3.1-1.1,3.1-5,2.1c-2.2-0.5-4.2-1.7-4.5-2.6
			c-1.4-4.4-1.6-4.6-2.2-2.1c-0.8,3,0.3,3-15.3,0c-11.9-2.2-12.7-2.5-13.4-4.9c-0.6-2-0.8-2.2-1.1-0.9c-0.3,1-0.9,1.8-1.4,1.8
			s-0.9-0.8-0.9-1.8c-0.1-1.5-0.2-1.4-1.3,0.3c-1.5,2.6-4.3,2.1-5.1-0.8c-0.7-2.2-0.7-2.2-1.5-0.1c-0.9,2-1.1,2-12.7,0.6
			c-22.1-2.6-74.4-1.7-85.6,1.4c-1.1,0.3-1.9-0.3-2.4-1.8l-0.7-2.3l-0.8,2.3c-1,2.6-2.9,2.9-2.9,0.4c-0.1-1.5-0.2-1.4-1.2,0.3
			c-0.6,1.1-1.2,2.1-1.3,2.3c-0.2,0.2-1.5,0.5-3,0.8s-3.3,0.6-3.9,0.7c-0.6,0.1-1.2-0.8-1.4-2c-0.2-1.4-0.8-2-1.8-1.6
			c-1,0.4-1.4-0.2-1.4-2C16.67,201.37,14.77,202.67,13.67,208.47z"/>
		
			<linearGradient id="region-3-2_00000074422460467777183200000011916628440995935163_" gradientUnits="userSpaceOnUse" x1="2590.0229" y1="650.8846" x2="2590.7786" y2="652.0494" gradientTransform="matrix(233.1392 0 0 151.8 -603277.3125 -98585)">
			<stop  offset="0" style="stop-color:#99496A;stop-opacity:0.492"/>
			<stop  offset="1" style="stop-color:#D54317;stop-opacity:0.919"/>
		</linearGradient>
		<path id="region-3-2" style="fill:url(#region-3-2_00000074422460467777183200000011916628440995935163_);" d="M746.17,238.77
			c-7.8,4.1-14.6,10.3-26.8,24.3c-6.9,7.8-15.3,16.4-18.7,18.9c-15.6,11.7-33.8,17.2-74.5,22.2c-48.3,5.9-65.5,13.1-100.9,42.4
			l-7.8,6.5l10.8,3.7c6,2.1,11,3.8,11.2,3.9c0.1,0,0.2-0.9,0.2-2c0-2.7,1.8-2.5,2.2,0.2c0.3,2.2,4.4,5.1,5.9,4.2
			c0.4-0.2,1.3-3.3,2-6.9c0.7-3.6,1.6-6.5,1.9-6.5c0.4,0,1.2,1.9,1.7,4.2c0.6,2.4,1.1,3.3,1.2,2.1c0.3-5,2-2.8,3.6,4.6
			c1.7,7.8,4,11,5.1,7.3c1.8-5.7,2.1-5.8,3.4-1.1c0.8,3.2,1.9,5,3.5,5.7c2.3,1.1,2.4,0.9,3.6-4.3c0.7-3,1.5-5.5,2-5.5
			c0.4,0,1.3,2.9,2,6.5c1.2,6.1,2.9,8.8,2.9,4.7c0-3.6,1.5-3.3,2.6,0.4c1,3.7,1.4,4,13.5,9l12.4,5.2l12.5-6.6
			c6.9-3.6,18.1-9.8,25-13.7c12.1-6.8,12.5-7.2,13.5-11.2c1.4-5.6,2.1-6.1,2.9-1.9l0.7,3.5l10-6.1c5.5-3.4,10.4-6.8,10.8-7.7
			c0.5-0.9,1.9-6.4,3.2-12.4c1.3-5.9,2.6-10.7,2.9-10.7s1.4,4,2.5,8.9l1.9,9l4-2.4c2.9-1.8,4.3-3.4,5.1-6c1-3.7,2.5-3.8,2.5-0.3
			c0,1.6,0.6,1.5,6.3-1.3c3.4-1.8,10.3-4.9,15.2-7l9-3.8l1.4-6c1.5-6.4,3-8,3.2-3.4c0,1.6,1.1-1.5,2.4-6.7c1.3-5.2,2.4-9.7,2.5-10
			c0.1-0.3,1,2,2,5l1.8,5.5l0.1-33.3c0.1-18.2,0-33.2-0.2-33.2C750.27,236.67,748.37,237.57,746.17,238.77z"/>
	</g>
	<g id="layer-4">
		
			<linearGradient id="region-4-1_00000111875844060367600520000007229650805430283708_" gradientUnits="userSpaceOnUse" x1="2598.033" y1="650.6183" x2="2598.033" y2="651.6183" gradientTransform="matrix(750 0 0 245.3 -1948149 -159339.2969)">
			<stop  offset="0" style="stop-color:#FFEDD0;stop-opacity:0.278"/>
			<stop  offset="1" style="stop-color:#FFF1C9;stop-opacity:0.051"/>
		</linearGradient>
		<path id="region-4-1" style="fill:url(#region-4-1_00000111875844060367600520000007229650805430283708_);" d="M0.67,380.07v122.6
			h375h375v-99c0-89.3-0.2-99.6-1.7-105c-0.9-3.3-1.9-5.7-2.2-5.4c-0.3,0.3-1.6,4.7-2.8,9.7c-1.2,5.1-2.2,8-2.2,6.4
			c-0.2-4.6-1.7-3-3.2,3.4l-1.4,6l-9,3.8c-4.9,2.1-11.8,5.2-15.2,7c-5.7,2.8-6.3,2.9-6.3,1.3c0-3.5-1.5-3.4-2.5,0.3
			c-0.8,2.6-2.2,4.2-5.1,6l-4,2.4l-1.9-9c-1.1-4.9-2.2-8.9-2.5-8.9s-1.6,4.8-2.9,10.7c-1.3,6-2.7,11.5-3.2,12.4
			c-0.4,0.9-5.3,4.3-10.8,7.7l-10,6.1l-0.7-3.5c-0.8-4.2-1.5-3.7-2.9,1.9c-1,4-1.4,4.4-13.5,11.2c-6.9,3.9-18.1,10.1-25,13.7
			l-12.5,6.6l-12.4-5.2c-12.1-5-12.5-5.3-13.5-9c-1.1-3.7-2.6-4-2.6-0.4c0,4.1-1.7,1.4-2.9-4.7c-0.7-3.6-1.6-6.5-2-6.5
			c-0.5,0-1.3,2.5-2,5.5c-1.2,5.2-1.3,5.4-3.6,4.3c-1.6-0.7-2.7-2.5-3.5-5.7c-1.3-4.7-1.6-4.6-3.4,1.1c-1.1,3.7-3.4,0.5-5.1-7.3
			c-1.6-7.4-3.3-9.6-3.6-4.6c-0.1,1.2-0.6,0.3-1.2-2.1c-0.5-2.3-1.3-4.2-1.7-4.2c-0.3,0-1.2,2.9-1.9,6.5c-0.7,3.6-1.6,6.7-2,6.9
			c-1.5,0.9-5.6-2-5.9-4.2c-0.4-2.8-2.2-2.9-2.2-0.1c0,1.3-0.5,1.9-1.2,1.6s-8.8-3.1-18-6.2c-18.4-6.1-39-11.6-51.1-13.6
			c-7-1.2-7.8-1.6-8.4-3.8l-0.6-2.5l-0.9,2.3c-0.7,2.1-1.3,2.3-4.6,1.7c-2-0.3-5.4-0.6-7.4-0.6c-3.6,0-3.7-0.1-4.9-5.5
			c-1.2-5.4-2.9-8.3-2.9-5.1c0,0.9-0.4,1.6-1,1.6c-0.5,0-1-0.8-1-1.8c0-0.9-0.4-2.3-0.9-3c-0.6-0.9-1.4,0.9-2.6,5.7l-1.7,7.1h-7.8
			h-7.8l-0.6-4.5c-0.9-5.9-2.3-6.5-3.1-1.4c-0.9,5.4-1.8,3.8-4.1-6.8c-0.9-4.5-2-8.3-2.4-8.3c-0.5,0-1.3,2.8-2,6.3l-1.3,6.3
			l-5.1-0.9c-6.4-1.2-14.3,0.8-20.2,5.1l-3.9,2.9l-5-3.3c-5.5-3.7-14.6-6.4-21.2-6.4c-9.6,0-22,4.3-27.7,9.6
			c-2.3,2.2-3.2,2.5-4.5,1.5c-5.5-4-12.6-5.2-16.9-2.8c-2.1,1.2-2.8,0.8-10.1-6.4c-12.6-12.4-24.4-17.2-42.6-17.2
			c-11.3,0-19.7,1.8-29.3,6.3c-5.2,2.4-6.4,2.7-6.9,1.4c-0.3-0.8-2.6-2.6-5.1-4.1c-5.4-3.2-14.8-3.7-19.9-1.1l-3.2,1.6l-3.2-4.9
			c-3.6-5.6-11.7-13.2-16.8-15.9c-9.8-4.9-26.5-6.6-36.4-3.6l-4.6,1.4l-2.5-3.8c-4.2-6.3-11.9-11-18.2-11c-1.3,0-4.2-1.3-6.6-2.9
			c-7.6-5-13.3-6.6-23.8-6.6c-6.4,0-11.5,0.6-15.5,1.8l-6,1.9l-7.5-4c-10.2-5.5-19.7-8.2-30.7-8.9l-9.3-0.6V380.07z"/>
		
			<linearGradient id="region-4-2_00000135680759481604270160000017988515218344277948_" gradientUnits="userSpaceOnUse" x1="2555.7043" y1="652.298" x2="2555.7043" y2="653.298" gradientTransform="matrix(56.7812 0 0 66 -144393.5625 -42778)">
			<stop  offset="0" style="stop-color:#FFFFE4;stop-opacity:0.46"/>
			<stop  offset="1" style="stop-color:#FFFFDD;stop-opacity:0.326"/>
		</linearGradient>
		<path id="region-4-2" style="fill:url(#region-4-2_00000135680759481604270160000017988515218344277948_);" d="M734.77,276.77
			c-10.6,5.3-16.8,15.5-19.2,31.2c-0.5,3.9-1.2,8.7-1.5,10.4c-0.5,3.1-0.7,3.3-4.5,3.3c-5.1,0-9.7,2-13.2,5.8
			c-2.6,2.7-2.8,3.4-2.2,7.6l0.7,4.6l4.1-2.5c3-1.8,4.4-3.4,5.2-6c1-3.7,2.5-3.8,2.5-0.3c0,1.6,0.6,1.5,6.3-1.3
			c3.4-1.8,10.3-4.9,15.2-7l9-3.8l1.4-6c1.5-6.4,3-8,3.2-3.4c0,1.6,1.1-1.5,2.4-6.7c1.3-5.2,2.4-9.7,2.5-10c0.1-0.3,1,2,2,5l1.8,5.5
			l0.1-14.8l0.1-14.7h-4.8C742.37,273.67,739.17,274.57,734.77,276.77z"/>
		
			<linearGradient id="region-4-3_00000008134652644260091690000007853313388890818185_" gradientUnits="userSpaceOnUse" x1="2563.8027" y1="652.7955" x2="2563.8655" y2="653.8361" gradientTransform="matrix(69.0393 0 0 53.7129 -176352.4062 -34735)">
			<stop  offset="0" style="stop-color:#F7F9B8;stop-opacity:0.24"/>
			<stop  offset="1" style="stop-color:#FFFFB8;stop-opacity:0.125"/>
		</linearGradient>
		<path id="region-4-3" style="fill:url(#region-4-3_00000008134652644260091690000007853313388890818185_);" d="M672.87,330.87
			c-4.2,1.4-12,8.3-12.8,11.2c-0.5,2.1-1.3,2.4-8.4,2.9c-19,1.3-31.6,13.3-32.8,31.3l-0.5,7.5l7.9-4.3c4.4-2.3,13.5-7.4,20.4-11.3
			c12.1-6.8,12.5-7.2,13.5-11.2c1.4-5.6,2.1-6.1,2.9-1.9l0.7,3.5l10-6.1c5.5-3.4,10.4-6.8,10.8-7.7c1.3-2.4,3.4-13.2,2.7-13.8
			C686.17,329.77,676.17,329.77,672.87,330.87z"/>
	</g>
	<g id="layer-5">
		
			<linearGradient id="region-5-1_00000116945641865587692670000014925823471257487288_" gradientUnits="userSpaceOnUse" x1="2598.033" y1="650.6599" x2="2598.033" y2="651.6599" gradientTransform="matrix(750 0 0 229.8505 -1948149 -149281.6875)">
			<stop  offset="0" style="stop-color:#6D0025;stop-opacity:0.713"/>
			<stop  offset="1" style="stop-color:#D35B54;stop-opacity:0.803"/>
		</linearGradient>
		<path id="region-5-1" style="fill:url(#region-5-1_00000116945641865587692670000014925823471257487288_);" d="M14.27,273.77
			c-0.2,0.8-1.7,6.8-3.3,13.3c-2.8,11.9-2.8,12-6.3,13.1l-3.5,1.2l-0.3,100.6l-0.2,100.7h375h375v-99c0-89.3-0.2-99.6-1.7-105
			c-0.9-3.3-1.9-5.7-2.2-5.4c-0.3,0.3-1.6,4.7-2.8,9.7c-1.2,5.1-2.2,8-2.2,6.4c-0.2-4.6-1.7-3-3.2,3.4l-1.4,6l-9,3.8
			c-4.9,2.1-11.8,5.2-15.2,7c-5.7,2.8-6.3,2.9-6.3,1.3c0-3.5-1.5-3.4-2.5,0.3c-0.8,2.6-2.2,4.2-5.1,6l-4,2.4l-1.9-9
			c-1.1-4.9-2.2-8.9-2.5-8.9s-1.6,4.8-2.9,10.7c-1.3,6-2.7,11.5-3.2,12.4c-0.4,0.9-5.3,4.3-10.8,7.7l-10,6.1l-0.7-3.5
			c-0.8-4.2-1.5-3.7-2.9,1.9c-1,4-1.4,4.4-13.5,11.2c-6.9,3.9-18.1,10.1-25,13.7l-12.5,6.6l-12.4-5.2c-12.1-5-12.5-5.3-13.5-9
			c-1.1-3.7-2.6-4-2.6-0.4c0,4.1-1.7,1.4-2.9-4.7c-0.7-3.6-1.6-6.5-2-6.5c-0.5,0-1.3,2.5-2,5.5c-1.2,5.2-1.3,5.4-3.6,4.3
			c-1.6-0.7-2.7-2.5-3.5-5.7c-1.3-4.7-1.6-4.6-3.4,1.1c-1.1,3.7-3.4,0.5-5.1-7.3c-1.6-7.4-3.3-9.6-3.6-4.6c-0.1,1.2-0.6,0.3-1.2-2.1
			c-0.5-2.3-1.3-4.2-1.7-4.2c-0.3,0-1.2,2.9-1.9,6.5c-0.7,3.6-1.6,6.7-2,6.9c-1.5,0.9-5.6-2-5.9-4.2c-0.4-2.8-2.2-2.9-2.2-0.1
			c0,1.3-0.5,1.9-1.2,1.6s-8.8-3.1-18-6.2c-18.4-6.1-39-11.6-51.1-13.6c-7-1.2-7.8-1.6-8.4-3.8l-0.6-2.5l-0.9,2.3
			c-0.7,2.1-1.3,2.3-4.6,1.7c-2-0.3-5.4-0.6-7.4-0.6c-3.6,0-3.7-0.1-4.9-5.5c-1.2-5.4-2.9-8.3-2.9-5.1c0,0.9-0.4,1.6-1,1.6
			c-0.5,0-1-0.8-1-1.8c0-0.9-0.4-2.3-0.9-3c-0.6-0.9-1.4,0.9-2.6,5.7l-1.7,7.1h-7.8h-7.8l-0.6-4.5c-0.9-5.9-2.3-6.5-3.1-1.4
			c-0.9,5.4-1.8,3.8-4.1-6.8c-0.9-4.5-2-8.3-2.4-8.3c-0.4,0-1.5,3.6-2.5,8.1c-3,14.1-3.3,14.9-6,14.9c-1.8,0-2.6-0.7-3.1-2.5
			c-0.8-3.3-2.2-3.2-2.6,0.2c-0.3,2.6-0.7,2.8-13.3,5.4c-7.1,1.4-25.1,5.7-40,9.3c-54.7,13.6-77.4,16.8-103.9,14.5
			c-14.1-1.2-16.6-1.9-16.6-4.9c0-2.8-1.8-3.4-2.2-0.8c-0.2,1.8-0.9,2.3-3.1,2.1c-4.8-0.3-16.8-4.5-17.6-6.2
			c-0.4-0.9-1.4-4.4-2.1-7.8c-1.4-6.7-2.3-7.3-3.5-2.1c-0.6,2.8-0.8,3-1.4,1.4c-0.7-1.8-0.8-1.8-1.4-0.2c-0.4,1-0.7,2.6-0.7,3.7
			c0,1-0.3,1.9-0.7,1.9c-1.3,0-19.6-10.2-33.5-18.7c-20.6-12.5-42.1-24.8-47.3-27c-2.8-1.1-4.5-2.4-4.5-3.5c0-0.9-0.4-2-1-2.3
			c-0.5-0.3-1,0.1-1,0.9c0,0.9-0.1,1.6-0.3,1.6c-1.6,0-17.4-6.4-17.9-7.3c-0.4-0.7-0.8-2.2-0.8-3.5c0-3.3-1.7-2.7-2.4,0.9
			c-0.5,2.4-1,3-2.3,2.5c-0.9-0.4-3.6-1-5.9-1.3c-3.7-0.5-4.3-0.9-4.8-3.5c-0.3-1.6-1-2.7-1.5-2.4c-0.5,0.3-1.4-1.7-2.1-4.4
			c-0.7-2.7-1.5-4.8-2-4.5c-0.4,0.2-1.3,3.2-2,6.5c-1,4.6-1.7,6-3.1,6c-1.8,0-2.2-0.9-3.4-6.8c-0.9-4.6-2.1-4-3.1,1.5
			c-0.9,4.5-1.1,4.8-4.2,5.1c-1.8,0.2-4-0.2-4.8-0.9c-1.1-0.9-1.4-0.8-1.4,0.5c0,1.1-0.9,1.6-3.2,1.6c-1.8,0-4.3,0.3-5.5,0.6
			c-1.9,0.5-2.2,0-3.4-5c-0.6-3-1.5-5.3-1.9-5.1c-0.4,0.3-1.1,2.4-1.5,4.7l-0.7,4.3l-2.4-9.9
			C15.57,272.87,14.97,271.47,14.27,273.77z"/>
	</g>
	<g id="layer-6">
		
			<linearGradient id="region-6-1_00000137103951488198914760000000536557741779403401_" gradientUnits="userSpaceOnUse" x1="2598.0188" y1="650.7099" x2="2598.0474" y2="651.8472" gradientTransform="matrix(750 0 0 210.0244 -1948149 -136374.8906)">
			<stop  offset="0" style="stop-color:#220D17;stop-opacity:0.811"/>
			<stop  offset="1" style="stop-color:#30001A;stop-opacity:0.653"/>
		</linearGradient>
		<path id="region-6-1" style="fill:url(#region-6-1_00000137103951488198914760000000536557741779403401_);" d="M746.67,292.67
			c-0.1,0.3-1.2,4.8-2.5,10c-1.3,5.2-2.4,8.3-2.4,6.7c-0.2-4.6-1.7-3-3.2,3.4l-1.4,6l-9,3.8c-4.9,2.1-11.8,5.2-15.2,7
			c-5.7,2.8-6.3,2.9-6.3,1.3c0-3.5-1.5-3.4-2.5,0.3c-0.8,2.6-2.2,4.2-5.1,6l-4,2.4l-1.9-9c-1.1-4.9-2.2-8.9-2.5-8.9
			s-1.6,4.8-2.9,10.7c-1.3,6-2.7,11.5-3.2,12.4c-0.4,0.9-5.3,4.3-10.8,7.7l-10,6.1l-0.7-3.5c-0.8-4.2-1.5-3.7-2.9,1.9
			c-1,4.1-1.4,4.4-15.5,12.4c-40.5,23.1-123.1,61.3-125.2,58.1c-0.4-0.7-0.8-2-0.8-2.9c0-3.6-1.6-2.7-3,1.8
			c-0.8,2.6-1.9,4.8-2.4,4.8s-1.9-4.1-3-9.2c-2.3-9.9-3.2-11.8-4.1-8.2c-0.3,1.3-1.5,6.9-2.8,12.3l-2.3,9.9l-14.9,5.4
			c-38.9,13.9-58.1,18.6-77,18.7c-14.9,0-21.8-1.4-33.2-7.1l-7.1-3.6l-2.2-9.6c-2.9-12.9-4-17.1-4.5-17.1c-0.2,0-1.3,4.3-2.5,9.5
			l-2.2,9.4l-2.4-1.5c-1.3-0.9-2.4-2.5-2.4-3.5s-0.4-2.1-1-2.4c-0.5-0.3-1,0.1-1,0.9c0,2-1,2-3.6,0.2c-1.1-0.8-4.8-2.4-8.2-3.5
			c-8.3-2.8-17.7-2.7-31.4,0.4c-18.2,4.1-23.2,4.7-30.1,3.5c-10.1-1.8-20.7-7.9-48.7-27.9c-36.4-26.1-53.7-36.6-69.2-42.3
			c-5.2-1.8-5.8-2.4-6.4-5.4c-0.8-4.5-2.1-5.1-2.9-1.4c-0.5,2.3-1.1,2.9-2.3,2.6c-5.5-1.6-14.4-3.5-18.7-4.1
			c-9.8-1.2-9-0.5-11.5-11.5c-1.3-5.5-2.6-9.8-2.9-9.4c-0.3,0.3-1.3,3.6-2.2,7.2c-1.1,4.5-1.8,6.1-2.2,4.9c-0.4-0.9-1-2.5-1.4-3.5
			c-0.4-1.1-1.1,0.4-2.1,4.6c-1.3,5.4-1.9,6.2-3.6,6c-1.7-0.3-2.4-2-4.5-11.1c-1.3-5.9-2.7-10.7-3.1-10.7c-0.3,0-1.6,4.6-2.9,10.2
			c-1.2,5.7-2.4,11.1-2.7,12c-0.3,1-2.2,2.2-4.7,2.8c-16.3,4.1-40.8,14.4-59.1,24.8c-6,3.5-11.3,5.9-11.7,5.5
			c-0.3-0.5-1.9-6.4-3.4-13.3c-1.5-6.8-3.1-13.3-3.5-14.5c-0.9-2.4-0.8-2.6-4.4,9.6l-2.6,8.5v61.7v61.7h375h375v-99.3
			c0-94.6-0.1-99.5-1.9-105.2C747.67,294.87,746.77,292.37,746.67,292.67z"/>
		
			<linearGradient id="region-6-2_00000166635248653562985640000002246882897749750169_" gradientUnits="userSpaceOnUse" x1="2590.0667" y1="652.0413" x2="2590.0667" y2="653.0413" gradientTransform="matrix(227.4359 0 0 74.3008 -588578.75 -48061.4297)">
			<stop  offset="0" style="stop-color:#B95651;stop-opacity:0.731"/>
			<stop  offset="1" style="stop-color:#C3594D;stop-opacity:0.8"/>
		</linearGradient>
		<path id="region-6-2" style="fill:url(#region-6-2_00000166635248653562985640000002246882897749750169_);" d="M591.67,386.77
			c-7.9,2.2-18.3,8.3-21.3,12.6c-2.6,3.7-3.3,4.1-5,3.1c-1.3-0.6-5.3-0.9-10.5-0.5c-6.5,0.4-9.6,1.1-14.3,3.4l-5.9,2.9l-2.7-2.8
			c-9.7-10.2-27.6-10.5-38.7-0.7c-2.5,2.2-5.1,5.5-5.7,7.4c-0.7,1.9-1.6,3.2-2.1,2.9c-2-1.3-8.2,1.1-11.6,4.4l-3.7,3.6l-8.2-0.3
			c-11.3-0.4-18.1,1.7-23.9,7.4c-2.9,3-4.8,5.9-5.6,9c-1,3.5-1.6,4.4-2.8,3.8c-0.8-0.4-4.4-0.9-8-1c-7.5-0.4-11.9,1.6-14.8,6.7
			c-1.3,2.3-2.1,2.8-3.7,2.2c-4.4-1.6-13.9-0.7-18.3,1.8c-4.9,2.7-4.6,3,4.8,5.6c9.4,2.6,29.2,2.4,42.5-0.5
			c12.1-2.6,33.8-9.2,54-16.4l14.9-5.4l2.3-9.9c1.3-5.4,2.5-11,2.8-12.3c0.9-3.6,1.8-1.8,4,7.9c1.1,4.9,2.5,9,3,9.2
			c0.6,0.2,1.7-1.9,2.5-4.5c1.4-4.5,3-5.4,3-1.8c0.1,4.3,1.4,4.2,14.9-1.4c20.5-8.5,34.9-14.9,56.1-25.2l19.5-9.4l-3.4-1.5
			C602.07,385.47,596.87,385.37,591.67,386.77z"/>
	</g>
	<g id="layer-7">
		
			<linearGradient id="region-7-1_00000054971166306320780190000004260007054142311594_" gradientUnits="userSpaceOnUse" x1="2598.0273" y1="651.0596" x2="2598.0354" y2="652.1479" gradientTransform="matrix(750 0 0 142.6603 -1948149 -92520.8438)">
			<stop  offset="0" style="stop-color:#1E0714;stop-opacity:0.669"/>
			<stop  offset="1" style="stop-color:#180512;stop-opacity:0.76"/>
		</linearGradient>
		<path id="region-7-1" style="fill:url(#region-7-1_00000054971166306320780190000004260007054142311594_);" d="M6.37,360.67
			c-0.4,0.8-1.7,5.3-3.1,10.1l-2.6,8.5v61.7v61.7h375h375v-35.3v-35.2l-6-19.9c-3.2-10.9-6.1-20.1-6.4-20.4
			c-0.8-0.7-1.1,0.2-7.1,27.3c-3.1,13.7-5.9,26-6.2,27.3c-0.5,2-1.2,1.1-5.3-5.9c-2.6-4.6-5.1-8.4-5.6-8.6c-0.5-0.1-2.2,4-3.8,9.2
			c-1.6,5.2-3.2,9.5-3.6,9.5c-0.4,0-1.8-2.4-3-5.2l-2.3-5.3l-3,9.7c-1.7,5.4-3.3,9.8-3.6,9.8s-2.1-6.9-4-15.3
			c-1.9-8.3-3.7-15.7-4-16.2c-0.3-0.6-1.3,3.3-2.2,8.5l-1.6,9.5l-1-4c-0.6-2.2-2.1-8.4-3.4-13.9c-1.3-5.7-2.5-9.2-2.9-8.5
			c-0.4,0.8-2,9.9-3.6,20.3l-2.8,18.9l-1.4-5.4c-0.7-3-1.7-5.8-2.1-6.2c-0.5-0.4-1.4,1.9-2.1,5.2c-0.7,3.4-1.8,6.7-2.4,7.5
			c-0.8,1-4.9,1.5-14.8,2l-13.6,0.6l-2.8-8.3l-2.7-8.2l-1.3,3c-0.7,1.6-1.3,3.9-1.4,5c-0.1,3.2-1.4,0.1-3.5-8.2
			c-1.1-4-2.2-7.3-2.5-7.3c-0.4,0-1.2,3.9-1.9,8.7c-1.8,12.7-2.1,13.6-3.6,9.3c-0.6-1.9-1.6-3.4-2.1-3.3s-1.6,2.7-2.4,5.8l-1.4,5.6
			l-5-0.3c-4.8-0.3-5-0.4-6-4.3c-1.3-4.4-2-4-3,1.7c-0.5,2.7-1.2,3.8-2.5,3.8c-1.4,0-2.1-1.7-3.6-8.8c-1-4.8-2.1-9.1-2.5-9.5
			c-0.4-0.5-1.6,3.6-2.6,9l-2,9.8l-4.6,0.5l-4.6,0.6l-1.1-3.8c-1.5-4.7-2.7-4.8-3.5-0.3c-0.4,1.9-1.1,3.7-1.6,4
			c-0.4,0.3-8.2,1.2-17.2,2c-9,0.8-18.1,1.7-20.4,2l-4,0.6l-2.4-7.6c-1.3-4.2-2.7-7.8-3.1-8c-0.3-0.3-1.4,2.6-2.4,6.2l-1.8,6.7
			l-3.1-8.1c-1.7-4.5-3.4-8.4-3.8-8.8c-0.4-0.4-2.1,4-3.8,9.7c-3.3,10.6-4.7,12.8-8.7,12.8c-2.3,0-3.1-1.9-4.9-10.8
			c-0.9-4.4-1.5-3.4-2.8,4.5c-0.6,3.8-1.6,6.7-2.1,6.6c-0.6,0-2.1-5.1-3.5-11.1c-1.4-6.1-2.8-11.3-3.1-11.7c-0.7-0.7-1.2,1.7-3,14.5
			c-0.7,4.7-1.5,8.9-1.9,9.3c-0.6,0.7-28.1,4.6-32.3,4.7c-0.5,0-2.2-3.1-3.9-7c-1.7-3.8-3.4-7-3.8-7c-0.3,0-1.2,2.3-1.9,5
			c-1.5,5.7-2.6,6.4-3.6,2c-0.9-4-2.2-3-3,2.4c-0.4,2.3-1,4.9-1.5,5.6c-0.8,1.4-39.9,7.2-41.2,6.1c-0.3-0.3-2.1-6.2-3.9-13.1
			c-1.8-6.9-3.4-12.7-3.6-12.9c-0.7-0.9-1.3,1-4.4,14.6l-3.2,14.1l-3.4,0.7c-4.2,0.8-4.9,0.3-5.8-3.7l-0.7-3.3l-1.3,4
			c-1.2,4.2-1,4-11.7,5.9l-3.7,0.7l-4.6-14.8c-2.5-8.1-4.9-15.6-5.1-16.6c-0.3-0.9-0.8-1.7-1.2-1.7s-2.9,6.1-5.7,13.4
			c-2.7,7.4-5.3,12.9-5.6,12.3c-0.3-0.7-1.6-5-2.9-9.7c-1.2-4.7-2.5-8.8-2.9-9.3c-0.4-0.4-2.6,5.5-5,13.1l-4.3,13.9l-11.5-1.8
			c-6.3-1-11.7-1.9-11.8-2.1c-0.2-0.2-2.2-6.3-4.5-13.7c-2.3-7.3-4.5-12.9-5-12.5c-0.4,0.5-2.5,6.1-4.5,12.4l-3.8,11.5l-3.8-0.3
			c-4.5-0.5-3.8,1.5-8.4-22.2c-3.8-19.3-4.3-21.5-4.9-20.9c-0.3,0.2-2.3,8.7-4.6,18.9c-2.3,10.2-4.5,19.1-4.9,19.8
			c-0.4,0.7-1.8-4-3.1-10.5c-1.2-6.5-2.6-12.4-3-13.2c-0.5-0.9-1.9,3.3-3.6,10.7c-3,13.3-2.8,13.1-10.1,11.6
			c-2.8-0.6-3.2-1.2-5.2-8.2c-5.3-18.3-6.2-21.2-7-20.8c-0.4,0.3-1.6,3.3-2.6,6.6c-1.1,3.7-2.1,5.6-2.5,4.8
			c-0.4-0.7-1.8-8.4-3.1-17.1c-1.3-8.6-2.6-15.7-2.9-15.7c-0.4,0-2.4,6.4-4.5,14.2l-3.9,14.3l-2-7.8c-1.2-4.2-2.3-7.7-2.7-7.7
			c-0.4,0-3.1,7-6,15.5c-5,14.5-5.5,15.5-7.9,15.5c-6.9,0-36.6-3.5-37.6-4.4c-0.6-0.6-2.1-5.2-3.3-10.1c-4.8-19.5-4.7-19.5-7.6-8
			c-1,3.8-2.1,7.3-2.5,7.8c-0.3,0.4-1.3-3.9-2.2-9.5c-0.9-5.7-3.1-19.4-4.9-30.6c-1.8-11.1-3.5-20-3.8-19.6
			c-0.3,0.3-2.9,10.9-5.6,23.6l-5,23l-2.4-16.1c-1.3-8.9-2.7-16.1-3.1-16.1s-3.3,11.7-6.6,25.9c-3.2,14.3-6,25.9-6.1,25.7
			c-0.1-0.1-2.3-6.9-4.9-15.2c-2.5-8.2-4.9-15.3-5.3-15.7c-0.5-0.4-2.3,2.7-4.1,7c-1.8,4.3-3.6,8.1-4,8.6c-0.3,0.4-3-6.7-5.9-15.8
			c-2.9-9.1-5.4-16.5-5.6-16.5c-0.2,0-3.8,6.1-8.1,13.6c-4.2,7.4-8,13.1-8.4,12.7c-0.4-0.4-4.9-19.5-10-42.3
			C7.87,360.77,7.27,358.17,6.37,360.67z"/>
	</g>
</g>
<g id="图层_2">
	<g id="layer-1_00000163772263315705822940000006507341223387947946_">
		
			<linearGradient id="region-1-1_00000098939224130842882340000001040291157153787776_" gradientUnits="userSpaceOnUse" x1="2599.0334" y1="650.3" x2="2599.0334" y2="651.3" gradientTransform="matrix(750 0 0 500 -1948149 -325149)">
			<stop  offset="0" style="stop-color:#FEA66F;stop-opacity:0.99"/>
			<stop  offset="1" style="stop-color:#FFD54F"/>
		</linearGradient>
		
			<path id="region-1-1_00000121982721377471201790000002177794407865936543_" style="fill:url(#region-1-1_00000098939224130842882340000001040291157153787776_);" d="
			M751,251v250h375h375V251V1h-375H751V251z"/>
	</g>
	<g id="layer-2_00000022555461946132240230000012314480529049811627_">
		
			<linearGradient id="region-2-1_00000085960208222569773400000000937296318361836935_" gradientUnits="userSpaceOnUse" x1="2600.033" y1="650.8278" x2="2600.033" y2="651.8278" gradientTransform="matrix(750 0 0 179.6 -1948149 -116889)">
			<stop  offset="0" style="stop-color:#FEDD7E;stop-opacity:0.616"/>
			<stop  offset="1" style="stop-color:#FFEEDA;stop-opacity:0.86"/>
		</linearGradient>
		
			<path id="region-2-1_00000026872330347639094580000006910378679513064070_" style="fill:url(#region-2-1_00000085960208222569773400000000937296318361836935_);" d="
			M1500.67,33.87v34.3l4.6,1.9c5.4,2.2,14.2,10,16.9,14.9c1.8,3.3,2.1,3.5,8.2,3.9c5,0.3,7.1,1,10.8,3.6l4.4,3.1l4.7-2
			c3.8-1.7,6.2-2,14.2-1.7c11.6,0.4,17.2,2.7,24.2,9.8c2.9,2.9,6,5.1,8.7,5.8c2.3,0.7,5,2.3,6,3.6c1.7,2.1,2.1,2.2,3.9,0.9
			c5.4-4.1,10.8-5.7,20.4-5.7c8.3-0.1,10.2,0.2,15.1,2.5c7.1,3.4,12.9,8.6,16,14.3c2,3.8,2.7,4.4,4.6,4c5.4-1.4,13.3,4.1,13.3,9.2
			c0,2.2,0.2,2.3,6.9,1.7c12.6-1.1,25.2,3.5,32.5,11.9l4.5,5.2l15.4-2.7c33.3-5.8,48.4-3.4,85.8,13.9c7.9,3.7,17.9,8.1,22.2,9.9
			l7.8,3.1l5.6-2.8c7.1-3.6,18.2-3.9,25.2-0.8c4.3,2,4.4,2,5.7,0.1c1.8-2.6,7.7-4.4,11.7-3.8c3.1,0.6,3.3,0.4,6-5.4
			c3.6-7.5,10.9-14.9,18.4-18.6c5.2-2.5,6.8-2.8,15.8-2.8c8.7,0,10.7,0.3,15.5,2.6c3.1,1.4,7.2,4,9.2,5.8l3.6,3.1l3.5-2
			c4.3-2.6,12-3.6,17-2.2c3.4,1,3.9,0.8,5.2-1.2c3.5-5.4,15.9-8.6,21.4-5.6c1.6,0.8,2.1,0.2,4-4.8c2.9-7.9,8.5-14.9,15.9-19.9
			c8-5.4,12.6-6.7,23.2-6.8c9.7,0,16,1.8,23.6,6.7c4.3,2.8,5.7,3.2,10.9,3c3.4-0.2,7.1,0.3,8.5,1c2.3,1.2,2.7,1.1,6.2-2.4
			c9.9-9.9,28.9-14.1,42.6-9.4l3.6,1.3l2.6-5.6c3.2-6.8,12.6-15.8,20.3-19.6c9.5-4.6,22.6-5.1,32.1-1.1c2.1,0.9,4,1.6,4.1,1.6
			c0.2,0,1.5-2,2.9-4.4c4.7-8.1,17.5-17.2,28.4-20.2l6.2-1.7v-31.9v-31.8h-375h-375V33.87z"/>
		
			<linearGradient id="region-2-2_00000073697225607993611950000012756784143173118351_" gradientUnits="userSpaceOnUse" x1="2598.6182" y1="651.0003" x2="2598.9812" y2="652.5535" gradientTransform="matrix(398.5 0 0 136.5157 -1033546 -88820.125)">
			<stop  offset="0" style="stop-color:#FEFAEC;stop-opacity:0.882"/>
			<stop  offset="1" style="stop-color:#FFF2D2;stop-opacity:0.703"/>
		</linearGradient>
		
			<path id="region-2-2_00000023262878193656664800000017079144333197343881_" style="fill:url(#region-2-2_00000073697225607993611950000012756784143173118351_);" d="
			M2242.67,65.57c-10.1,3.2-22.2,12.2-26.6,19.7c-1.4,2.4-2.7,4.4-2.9,4.4c-0.1,0-2-0.7-4.1-1.6c-9.5-4-22.6-3.5-32,1.1
			c-7.8,3.8-17.2,12.8-20.4,19.6l-2.6,5.6l-3.6-1.3c-13.7-4.7-32.7-0.5-42.6,9.4c-3.5,3.5-3.9,3.6-6.2,2.4c-1.4-0.7-5.1-1.2-8.5-1
			c-5.2,0.2-6.6-0.2-10.9-3c-7.6-4.9-13.9-6.7-23.6-6.7c-10.6,0.1-15.2,1.4-23.2,6.8c-7.4,5-13,12-15.9,19.9c-1.9,5-2.4,5.6-4,4.8
			c-5.5-3-17.9,0.2-21.4,5.6c-1.3,2-1.8,2.2-5.2,1.2c-5-1.4-12.7-0.4-17,2.2l-3.5,2l-3.6-3.1c-2-1.8-6.1-4.4-9.2-5.8
			c-4.8-2.3-6.8-2.6-15.5-2.6c-9,0-10.6,0.3-15.8,2.8c-7.5,3.7-14.8,11.1-18.4,18.6c-2.7,5.8-2.9,6-6,5.4c-4-0.6-9.9,1.2-11.7,3.8
			c-1.3,1.9-1.4,1.9-5.7-0.1c-6.7-3-17.8-2.8-24.9,0.6l-5.5,2.6l3.3,1.5c11.7,4.9,30,7.1,45.7,5.5c21.2-2.2,40.3-8.1,81.5-25
			c40.4-16.6,52.5-19.7,75-18.9c23.5,0.8,34.4,5.1,74,28.9c32,19.2,43.7,24.8,59.4,28.3c10.1,2.3,15.6,1.4,39.4-6.1
			c9.7-3.1,18.3-5.8,19-6c0.9-0.3,1.2-13.5,1.2-61.9c0-48.6-0.3-61.5-1.2-61.4C2248.77,63.77,2245.67,64.57,2242.67,65.57z"/>
		
			<linearGradient id="region-2-3_00000004548337115313259980000014012317394639568516_" gradientUnits="userSpaceOnUse" x1="2595.9958" y1="652.5685" x2="2596.9189" y2="651.429" gradientTransform="matrix(218.4381 0 0 96.4253 -565556.5 -62756.457)">
			<stop  offset="0" style="stop-color:#FFEDBD;stop-opacity:0.651"/>
			<stop  offset="1" style="stop-color:#FEFFFF;stop-opacity:0.897"/>
		</linearGradient>
		
			<path id="region-2-3_00000018222612159790499050000005400924660762854310_" style="fill:url(#region-2-3_00000004548337115313259980000014012317394639568516_);" d="
			M1500.67,117.27c0,38.5,0.3,48.4,1.2,47.8c0.7-0.5,6-4,11.8-7.9c45.9-31.2,72-37.3,110-25.9c4.7,1.4,16.2,5.5,25.5,9.1
			c21.8,8.3,33,11.9,42.8,13.8c8.6,1.6,26.3,2,27.1,0.6c0.3-0.5-1.2-2.9-3.5-5.4c-6.8-7.9-19.7-12.4-32-11.4
			c-6.7,0.6-6.9,0.5-6.9-1.7c0-5.1-7.9-10.6-13.3-9.2c-1.9,0.4-2.6-0.2-4.6-4c-3.1-5.7-8.9-10.9-16-14.3c-4.9-2.3-6.8-2.6-15.1-2.5
			c-9.6,0-15,1.6-20.4,5.7c-1.8,1.3-2.2,1.2-3.9-0.9c-1-1.3-3.7-2.9-6-3.6c-2.7-0.7-5.8-2.9-8.7-5.8c-7-7.1-12.6-9.4-24.2-9.8
			c-8-0.3-10.4,0-14.2,1.7l-4.7,2l-4.4-3.1c-3.7-2.6-5.8-3.3-10.9-3.6c-5.6-0.4-6.5-0.7-7.5-2.8c-2.7-6-16.4-17.4-20.8-17.4
			C1500.97,68.67,1500.67,79.07,1500.67,117.27z"/>
		
			<linearGradient id="region-2-4_00000125585569340818178290000001040889193361025723_" gradientUnits="userSpaceOnUse" x1="2599.906" y1="650.4059" x2="2600.1729" y2="651.7741" gradientTransform="matrix(750 0 0 310.5775 -1948149 -201834.9531)">
			<stop  offset="0" style="stop-color:#B4370F;stop-opacity:0.394"/>
			<stop  offset="1" style="stop-color:#FF7783;stop-opacity:0.144"/>
		</linearGradient>
		
			<path id="region-2-4_00000021078014677138490900000015922328588236636073_" style="fill:url(#region-2-4_00000125585569340818178290000001040889193361025723_);" d="
			M1745.67,190.47c0,1.7-1,2-7.2,2.6c-14.1,1.4-37.7,9-55,17.7c-5.4,2.7-5.8,2.8-5.8,1c0-2.9-1.8-3.5-2.2-0.9
			c-0.4,2.8,0.6,2.8-15-0.2c-11.9-2.2-12.7-2.5-13.4-4.9c-0.6-2-0.8-2.2-1.1-0.9c-0.3,1-0.9,1.8-1.4,1.8s-0.9-0.8-0.9-1.8
			c-0.1-1.5-0.2-1.4-1.3,0.3c-1.5,2.6-4.3,2.1-5.1-0.8c-0.7-2.2-0.7-2.2-1.5-0.1c-0.9,2-1.1,2-12.7,0.6c-22.1-2.6-74.4-1.7-85.6,1.4
			c-1.1,0.3-1.9-0.3-2.4-1.8l-0.7-2.3l-0.8,2.3c-1,2.6-2.9,2.9-2.9,0.4c-0.1-1.5-0.2-1.4-1.2,0.3c-0.6,1.1-1.2,2.1-1.3,2.3
			c-0.2,0.2-1.5,0.5-3,0.8s-3.3,0.6-3.9,0.7c-0.6,0.1-1.2-0.8-1.4-2c-0.2-1.4-0.8-2-1.8-1.6c-1,0.4-1.4-0.2-1.4-2c0-5-1.9-3.7-3,2.1
			l-1.2,5.9l-5.6,1.4l-5.7,1.5l-0.3,142.7l-0.2,142.7h375h375v-133c0-126.2-0.1-132.9-1.7-132.3c-2.7,1-9.3,5.2-13.7,8.7
			c-2.1,1.7-9.3,9.4-16.1,17.2c-17.3,19.9-27.7,27-47.5,32.7l-8.5,2.5l-5-3.3c-2.7-1.7-10.8-7-18-11.7c-7.1-4.7-14.9-9.5-17.2-10.8
			c-2.4-1.3-4.6-3.4-5.2-4.9c-0.7-2.1-1-2.3-1.6-1c-0.6,1.6-0.9,1.6-4.5,0c-2.9-1.1-4.1-2.4-4.5-4.4c-0.7-3-2-3.5-3.3-1.1
			c-0.7,1.3-1.6,1.3-8.3-0.6c-9.8-2.7-24.1-3.5-35.1-1.8l-8.6,1.4l-0.9-3.1l-1-3l-0.7,3.2c-0.8,3.6-2.6,4.5-2.6,1.3
			c0-3-1.8-2.4-2.2,0.7c-0.3,2.5-0.9,2.8-6.3,3.9c-17.2,3.6-33.9,3.9-36.9,0.8c-0.8-0.7-1.6-1-2-0.7c-0.3,0.4-0.6-0.3-0.6-1.5
			c0-2.9-1.6-3.7-2.3-1.1c-0.6,2.4-2.7,1.7-2.7-0.9c-0.1-1.6-0.2-1.5-1.4,0.1c-1.2,1.6-1.4,1.4-2-1.8c-0.4-2-1.1-3.3-1.6-3
			c-0.4,0.3-1.1-0.1-1.3-0.7c-0.4-0.8-0.8-0.4-1.2,0.9c-0.4,1.3-1,2.3-1.4,2.3c-0.3,0-6.2-4.6-13.1-10.1
			c-6.9-5.5-15.3-11.7-18.7-13.7c-3.5-2-6.3-4.4-6.3-5.2c0-1.3-0.1-1.3-1,0c-0.7,1.2-1.1,0.8-1.6-1.7c-0.7-3.4-2.4-3.6-2.4-0.3
			c0,1.6-0.5,1.7-3.2,1c-1.8-0.4-5-1.1-7-1.5c-2.9-0.4-3.8-1.1-3.8-2.5c0-2.7-1.8-2.5-2.2,0.2c-0.3,1.8-0.6,1.4-1.2-1.5
			c-0.6-2.5-1.3-3.6-2.1-3.3c-0.8,0.3-1.6-0.8-2-2.7l-0.7-3.2l-1.1,3.5c-0.6,1.9-1.4,3.7-1.8,4c-0.3,0.3-0.9,1.4-1.3,2.5
			c-0.5,1.9-2.2,2.2-18.6,3.9c-9.9,0.9-18.4,1.5-19,1.1c-0.5-0.3-1-1.5-1-2.6c0-2.7-2-2.4-2.1,0.3c0,2.2-0.1,2.2-1.1-0.2l-1.1-2.5
			l-1,3.4l-1.1,3.4l-8.8-0.7c-9.7-0.7-24-4.1-33.2-7.9c-4.3-1.8-6.2-3.2-7.2-5.3c-0.8-1.9-1.3-2.3-1.3-1.2c-0.1,1-0.7,1.8-1.4,1.8
			c-0.7,0-7.2-2.6-14.3-5.9c-7.1-3.2-14.6-6.5-16.8-7.2c-2.2-0.8-4.3-2.4-4.9-3.7c-0.7-1.6-1.3-1.9-1.8-1c-0.4,0.7-1-0.3-1.4-2.5
			c-0.8-3.9-2.5-5.1-2.5-1.8c0,4.6-0.7,5-6.3,3.5c-2.9-0.8-9.1-1.7-13.9-2.1c-6.2-0.4-8.8-1-8.8-1.9c0-0.7-0.4-1.6-1-1.9
			C1746.17,188.87,1745.67,189.47,1745.67,190.47z"/>
		
			<linearGradient id="region-2-5_00000147189196516760711180000011262420077063685518_" gradientUnits="userSpaceOnUse" x1="2597.4998" y1="651.5505" x2="2597.5024" y2="652.56" gradientTransform="matrix(275.1049 0 0 95.8 -712471.9375 -62219)">
			<stop  offset="0" style="stop-color:#FEFFFF;stop-opacity:0.399"/>
			<stop  offset="1" style="stop-color:#FEFFFF;stop-opacity:0.203"/>
		</linearGradient>
		
			<path id="region-2-5_00000125600315548202795070000004587348863804592305_" style="fill:url(#region-2-5_00000147189196516760711180000011262420077063685518_);" d="
			M2238.37,200.77c-12,2.8-25.3,15.3-28.8,27c-1.2,3.7-1.4,3.9-5.4,3.9c-5.2,0-12.7,4.5-14.6,8.8l-1.3,3l-4.1-1.6
			c-2.4-1-6.8-1.7-11-1.7c-5.9,0-8.1,0.5-13.7,3.3c-6.1,3-11.8,8-13.1,11.4c-0.3,0.9-1.4,0.4-3.8-1.9c-1.9-1.8-5.4-3.9-7.8-4.8
			c-4.9-1.7-15.6-2-19.5-0.5c-1.6,0.6-2.7,0.6-3.1-0.1c-1.7-2.6-10.6-5.9-16.2-5.9c-5.6-0.1-5.9-0.2-8.5-3.9
			c-5.7-8.3-16.2-13.3-27.8-13.4c-12.7,0-22.9,5.3-29.2,15.2l-2.9,4.6l-6.4,0.1c-5.2,0.1-7.2,0.6-10.5,2.8c-2.2,1.4-4,3-4,3.5
			s-2.8-0.3-6.2-1.6c-6.6-2.7-19.6-4.1-23.6-2.6c-2.1,0.8-2,1,2.8,4.6c2.7,2,5.1,3.7,5.4,3.7c0.2,0,0.7-1,1.1-2.3
			c0.4-1.3,0.8-1.7,1.2-0.9c0.2,0.6,0.9,1,1.3,0.7c0.5-0.3,1.2,1,1.6,3c0.6,3.1,0.8,3.4,1.9,1.9c1.1-1.5,1.2-1.5,1.8,0.6
			c0.6,2.4,2.7,1.9,2.7-0.6c0-0.8,0.5-1.2,1-0.9c0.6,0.3,1,1.6,1,2.7c0,1.2,0.3,1.9,0.6,1.5c0.4-0.3,1.2,0,2,0.7
			c3,3.1,19.7,2.8,36.9-0.8c5.4-1.1,6-1.4,6.3-3.9c0.4-3.1,2.2-3.7,2.2-0.7c0,3.1,1.6,2.4,2.7-1.3l1-3.2l0.7,3l0.7,3.1l8.7-1.4
			c11-1.7,25.3-0.9,35.1,1.8c6.7,1.9,7.6,1.9,8.3,0.6c1.3-2.4,2.6-1.9,3.3,1.1c0.4,2,1.6,3.3,4.5,4.4c3.6,1.6,3.9,1.6,4.5,0
			c0.6-1.3,0.9-1.1,1.6,1c0.6,1.5,2.8,3.6,5.2,4.9c2.3,1.3,10.1,6.1,17.2,10.8c7.2,4.7,15.3,10,18,11.7l5,3.3l8.5-2.5
			c19.8-5.7,30.2-12.8,47.7-32.9c12.4-14.2,19.1-20.3,27.1-24.4l4.2-2.2v-16.9v-16.9l-4.2,0.1
			C2244.07,199.87,2240.47,200.27,2238.37,200.77z"/>
	</g>
	<g id="layer-3_00000081622624118785796590000014540935511043760554_">
		
			<linearGradient id="region-3-1_00000152262332809906293270000010189193433727822498_" gradientUnits="userSpaceOnUse" x1="2601.033" y1="650.4965" x2="2601.033" y2="651.4965" gradientTransform="matrix(750 0 0 299.3995 -1948149 -194558.0469)">
			<stop  offset="0" style="stop-color:#930001;stop-opacity:0.078"/>
			<stop  offset="1" style="stop-color:#AB0407;stop-opacity:0.471"/>
		</linearGradient>
		
			<path id="region-3-1_00000006706824038507544280000017229784494679779730_" style="fill:url(#region-3-1_00000152262332809906293270000010189193433727822498_);" d="
			M2263.67,205.47l-1.2,5.9l-5.6,1.4l-5.7,1.5l-0.3,142.7l-0.2,142.7h375h375v-99c0-89.3-0.2-99.6-1.7-105c-0.9-3.3-1.9-5.7-2.2-5.4
			c-0.3,0.3-1.6,4.7-2.8,9.7c-1.2,5.1-2.2,8-2.2,6.4c-0.2-4.6-1.7-3-3.2,3.4l-1.4,6l-9,3.8c-4.9,2.1-11.8,5.2-15.2,7
			c-5.7,2.8-6.3,2.9-6.3,1.3c0-3.5-1.5-3.4-2.5,0.3c-0.8,2.6-2.2,4.2-5.1,6l-4,2.4l-1.9-9c-1.1-4.9-2.2-8.9-2.5-8.9
			c-0.3,0-1.6,4.8-2.9,10.7c-1.3,6-2.7,11.5-3.2,12.4c-0.4,0.9-5.3,4.3-10.8,7.7l-10,6.1l-0.7-3.5c-0.8-4.2-1.5-3.7-2.9,1.9
			c-1,4-1.4,4.4-13.5,11.2c-6.9,3.9-18.1,10.1-25,13.7l-12.5,6.6l-12.4-5.2c-12.1-5-12.5-5.3-13.5-9c-1.1-3.7-2.6-4-2.6-0.4
			c0,4.1-1.7,1.4-2.9-4.7c-0.7-3.6-1.6-6.5-2-6.5c-0.5,0-1.3,2.5-2,5.5c-1.2,5.2-1.3,5.4-3.6,4.3c-1.6-0.7-2.7-2.5-3.5-5.7
			c-1.3-4.7-1.6-4.6-3.4,1.1c-1.1,3.7-3.4,0.5-5.1-7.3c-1.6-7.4-3.3-9.6-3.6-4.6c-0.1,1.2-0.6,0.3-1.2-2.1c-0.5-2.3-1.3-4.2-1.7-4.2
			c-0.3,0-1.2,2.9-1.9,6.5c-0.7,3.6-1.6,6.7-2,6.9c-1.5,0.9-5.6-2-5.9-4.2c-0.4-2.8-2.2-2.9-2.2-0.1c0,1.3-0.5,1.9-1.2,1.6
			c-0.7-0.3-5.7-2-11.1-3.9l-9.9-3.3l4.8-4.2c2.7-2.3,4.7-4.3,4.4-4.5c-0.3-0.2-8.4-2.3-18-4.7c-19.2-4.7-46.3-13.3-68.9-21.8
			c-21.6-8.1-51.1-20.4-51.1-21.4c0-0.4-0.8-0.7-1.7-0.7c-3.5,0.2-9.3-3-9.3-5.1c0-1.2-0.4-2.1-1-2.1c-0.5,0-1,0.4-1,1
			c0,1.9-2.9,0.9-25.6-9.1c-25.9-11.4-58.6-25.4-71.8-30.7c-9.2-3.6-12.1-5.6-12.9-8.9c-0.4-1.6-0.6-1.5-1.2,0.4
			c-0.4,1.3-1.1,2.3-1.5,2.3c-0.4,0-1.2-1-1.8-2.3c-0.9-1.8-1.1-1.9-1.1-0.4c-0.1,2.4-2.1,1.1-2.1-1.3c0-1-0.8-2.6-1.7-3.6
			c-1.6-1.6-1.8-1.5-2.6,1c-0.9,2.8-2.7,3.5-2.7,1.1c0-0.8-0.4-1.5-1-1.5c-0.5,0-1,0.4-1,0.8c0,0.4-8-1.9-17.9-5.1
			c-15.7-5.3-17.9-6.3-18.8-8.6c-1.1-2.6-1.1-2.6-1.2-0.2c-0.1,1.9-0.5,2.2-2.3,1.7c-1.3-0.3-2.6-0.6-3-0.6c-0.4,0-1-1.6-1.4-3.5
			c-0.3-1.9-1-3.3-1.4-3c-0.5,0.3-1.1-0.1-1.3-0.7c-0.3-0.7-0.8,0.2-1.2,1.9c-0.7,2.9-1,3.2-3.4,2.7c-1.4-0.4-3.1-1.3-3.8-2.1
			c-0.6-0.8-1.6-1.2-2.1-0.9s-1.3-0.9-1.7-2.7l-0.7-3.2l-1,3.1c-1,3.1-1.1,3.1-5,2.1c-2.2-0.5-4.2-1.7-4.5-2.6
			c-1.4-4.4-1.6-4.6-2.2-2.1c-0.8,3,0.3,3-15.3,0c-11.9-2.2-12.7-2.5-13.4-4.9c-0.6-2-0.8-2.2-1.1-0.9c-0.3,1-0.9,1.8-1.4,1.8
			s-0.9-0.8-0.9-1.8c-0.1-1.5-0.2-1.4-1.3,0.3c-1.5,2.6-4.3,2.1-5.1-0.8c-0.7-2.2-0.7-2.2-1.5-0.1c-0.9,2-1.1,2-12.7,0.6
			c-22.1-2.6-74.4-1.7-85.6,1.4c-1.1,0.3-1.9-0.3-2.4-1.8l-0.7-2.3l-0.8,2.3c-1,2.6-2.9,2.9-2.9,0.4c-0.1-1.5-0.2-1.4-1.2,0.3
			c-0.6,1.1-1.2,2.1-1.3,2.3c-0.2,0.2-1.5,0.5-3,0.8s-3.3,0.6-3.9,0.7c-0.6,0.1-1.2-0.8-1.4-2c-0.2-1.4-0.8-2-1.8-1.6
			c-1,0.4-1.4-0.2-1.4-2C2266.67,198.37,2264.77,199.67,2263.67,205.47z"/>
		
			<linearGradient id="region-3-2_00000173845469687176086950000001340222820340996769_" gradientUnits="userSpaceOnUse" x1="2599.6738" y1="650.8649" x2="2600.4294" y2="652.0297" gradientTransform="matrix(233.1392 0 0 151.8 -603277.3125 -98585)">
			<stop  offset="0" style="stop-color:#99496A;stop-opacity:0.492"/>
			<stop  offset="1" style="stop-color:#D54317;stop-opacity:0.919"/>
		</linearGradient>
		
			<path id="region-3-2_00000159464084398682357090000013902658618842334139_" style="fill:url(#region-3-2_00000173845469687176086950000001340222820340996769_);" d="
			M2996.17,235.77c-7.8,4.1-14.6,10.3-26.8,24.3c-6.9,7.8-15.3,16.4-18.7,18.9c-15.6,11.7-33.8,17.2-74.5,22.2
			c-48.3,5.9-65.5,13.1-100.9,42.4l-7.8,6.5l10.8,3.7c6,2.1,11,3.8,11.2,3.9c0.1,0,0.2-0.9,0.2-2c0-2.7,1.8-2.5,2.2,0.2
			c0.3,2.2,4.4,5.1,5.9,4.2c0.4-0.2,1.3-3.3,2-6.9c0.7-3.6,1.6-6.5,1.9-6.5c0.4,0,1.2,1.9,1.7,4.2c0.6,2.4,1.1,3.3,1.2,2.1
			c0.3-5,2-2.8,3.6,4.6c1.7,7.8,4,11,5.1,7.3c1.8-5.7,2.1-5.8,3.4-1.1c0.8,3.2,1.9,5,3.5,5.7c2.3,1.1,2.4,0.9,3.6-4.3
			c0.7-3,1.5-5.5,2-5.5c0.4,0,1.3,2.9,2,6.5c1.2,6.1,2.9,8.8,2.9,4.7c0-3.6,1.5-3.3,2.6,0.4c1,3.7,1.4,4,13.5,9l12.4,5.2l12.5-6.6
			c6.9-3.6,18.1-9.8,25-13.7c12.1-6.8,12.5-7.2,13.5-11.2c1.4-5.6,2.1-6.1,2.9-1.9l0.7,3.5l10-6.1c5.5-3.4,10.4-6.8,10.8-7.7
			c0.5-0.9,1.9-6.4,3.2-12.4c1.3-5.9,2.6-10.7,2.9-10.7c0.3,0,1.4,4,2.5,8.9l1.9,9l4-2.4c2.9-1.8,4.3-3.4,5.1-6
			c1-3.7,2.5-3.8,2.5-0.3c0,1.6,0.6,1.5,6.3-1.3c3.4-1.8,10.3-4.9,15.2-7l9-3.8l1.4-6c1.5-6.4,3-8,3.2-3.4c0,1.6,1.1-1.5,2.4-6.7
			c1.3-5.2,2.4-9.7,2.5-10c0.1-0.3,1,2,2,5l1.8,5.5l0.1-33.3c0.1-18.2,0-33.2-0.2-33.2
			C3000.27,233.67,2998.37,234.57,2996.17,235.77z"/>
	</g>
	<g id="layer-4_00000092414056848809739350000014347337680297080467_">
		
			<linearGradient id="region-4-1_00000147192750040430912330000002997297817419951795_" gradientUnits="userSpaceOnUse" x1="2602.033" y1="650.6061" x2="2602.033" y2="651.6061" gradientTransform="matrix(750 0 0 245.3 -1948149 -159339.2969)">
			<stop  offset="0" style="stop-color:#FFEDD0;stop-opacity:0.278"/>
			<stop  offset="1" style="stop-color:#FFF1C9;stop-opacity:0.051"/>
		</linearGradient>
		
			<path id="region-4-1_00000158749701377273547370000006575298119564496785_" style="fill:url(#region-4-1_00000147192750040430912330000002997297817419951795_);stroke:#000000;stroke-miterlimit:10;" d="
			M3000.67,377.07v122.6h375h375v-99c0-89.3-0.2-99.6-1.7-105c-0.9-3.3-1.9-5.7-2.2-5.4c-0.3,0.3-1.6,4.7-2.8,9.7
			c-1.2,5.1-2.2,8-2.2,6.4c-0.2-4.6-1.7-3-3.2,3.4l-1.4,6l-9,3.8c-4.9,2.1-11.8,5.2-15.2,7c-5.7,2.8-6.3,2.9-6.3,1.3
			c0-3.5-1.5-3.4-2.5,0.3c-0.8,2.6-2.2,4.2-5.1,6l-4,2.4l-1.9-9c-1.1-4.9-2.2-8.9-2.5-8.9c-0.3,0-1.6,4.8-2.9,10.7
			c-1.3,6-2.7,11.5-3.2,12.4c-0.4,0.9-5.3,4.3-10.8,7.7l-10,6.1l-0.7-3.5c-0.8-4.2-1.5-3.7-2.9,1.9c-1,4-1.4,4.4-13.5,11.2
			c-6.9,3.9-18.1,10.1-25,13.7l-12.5,6.6l-12.4-5.2c-12.1-5-12.5-5.3-13.5-9c-1.1-3.7-2.6-4-2.6-0.4c0,4.1-1.7,1.4-2.9-4.7
			c-0.7-3.6-1.6-6.5-2-6.5c-0.5,0-1.3,2.5-2,5.5c-1.2,5.2-1.3,5.4-3.6,4.3c-1.6-0.7-2.7-2.5-3.5-5.7c-1.3-4.7-1.6-4.6-3.4,1.1
			c-1.1,3.7-3.4,0.5-5.1-7.3c-1.6-7.4-3.3-9.6-3.6-4.6c-0.1,1.2-0.6,0.3-1.2-2.1c-0.5-2.3-1.3-4.2-1.7-4.2c-0.3,0-1.2,2.9-1.9,6.5
			c-0.7,3.6-1.6,6.7-2,6.9c-1.5,0.9-5.6-2-5.9-4.2c-0.4-2.8-2.2-2.9-2.2-0.1c0,1.3-0.5,1.9-1.2,1.6c-0.7-0.3-8.8-3.1-18-6.2
			c-18.4-6.1-39-11.6-51.1-13.6c-7-1.2-7.8-1.6-8.4-3.8l-0.6-2.5l-0.9,2.3c-0.7,2.1-1.3,2.3-4.6,1.7c-2-0.3-5.4-0.6-7.4-0.6
			c-3.6,0-3.7-0.1-4.9-5.5c-1.2-5.4-2.9-8.3-2.9-5.1c0,0.9-0.4,1.6-1,1.6c-0.5,0-1-0.8-1-1.8c0-0.9-0.4-2.3-0.9-3
			c-0.6-0.9-1.4,0.9-2.6,5.7l-1.7,7.1h-7.8h-7.8l-0.6-4.5c-0.9-5.9-2.3-6.5-3.1-1.4c-0.9,5.4-1.8,3.8-4.1-6.8
			c-0.9-4.5-2-8.3-2.4-8.3c-0.5,0-1.3,2.8-2,6.3l-1.3,6.3l-5.1-0.9c-6.4-1.2-14.3,0.8-20.2,5.1l-3.9,2.9l-5-3.3
			c-5.5-3.7-14.6-6.4-21.2-6.4c-9.6,0-22,4.3-27.7,9.6c-2.3,2.2-3.2,2.5-4.5,1.5c-5.5-4-12.6-5.2-16.9-2.8
			c-2.1,1.2-2.8,0.8-10.1-6.4c-12.6-12.4-24.4-17.2-42.6-17.2c-11.3,0-19.7,1.8-29.3,6.3c-5.2,2.4-6.4,2.7-6.9,1.4
			c-0.3-0.8-2.6-2.6-5.1-4.1c-5.4-3.2-14.8-3.7-19.9-1.1l-3.2,1.6l-3.2-4.9c-3.6-5.6-11.7-13.2-16.8-15.9
			c-9.8-4.9-26.5-6.6-36.4-3.6l-4.6,1.4l-2.5-3.8c-4.2-6.3-11.9-11-18.2-11c-1.3,0-4.2-1.3-6.6-2.9c-7.6-5-13.3-6.6-23.8-6.6
			c-6.4,0-11.5,0.6-15.5,1.8l-6,1.9l-7.5-4c-10.2-5.5-19.7-8.2-30.7-8.9l-9.3-0.6V377.07z"/>
		
			<linearGradient id="region-4-2_00000135687231421166406920000012511766258155797898_" gradientUnits="userSpaceOnUse" x1="2608.5388" y1="652.2525" x2="2608.5388" y2="653.2525" gradientTransform="matrix(56.7812 0 0 66 -144393.5625 -42778)">
			<stop  offset="0" style="stop-color:#FFFFE4;stop-opacity:0.46"/>
			<stop  offset="1" style="stop-color:#FFFFDD;stop-opacity:0.326"/>
		</linearGradient>
		
			<path id="region-4-2_00000136396614128214934510000014817206729870925449_" style="fill:url(#region-4-2_00000135687231421166406920000012511766258155797898_);stroke:#000000;stroke-miterlimit:10;" d="
			M3734.77,273.77c-10.6,5.3-16.8,15.5-19.2,31.2c-0.5,3.9-1.2,8.7-1.5,10.4c-0.5,3.1-0.7,3.3-4.5,3.3c-5.1,0-9.7,2-13.2,5.8
			c-2.6,2.7-2.8,3.4-2.2,7.6l0.7,4.6l4.1-2.5c3-1.8,4.4-3.4,5.2-6c1-3.7,2.5-3.8,2.5-0.3c0,1.6,0.6,1.5,6.3-1.3
			c3.4-1.8,10.3-4.9,15.2-7l9-3.8l1.4-6c1.5-6.4,3-8,3.2-3.4c0,1.6,1.1-1.5,2.4-6.7c1.3-5.2,2.4-9.7,2.5-10c0.1-0.3,1,2,2,5l1.8,5.5
			l0.1-14.8l0.1-14.7h-4.8C3742.37,270.67,3739.17,271.57,3734.77,273.77z"/>
		
			<linearGradient id="region-4-3_00000044898515259100957580000012171533616390578351_" gradientUnits="userSpaceOnUse" x1="2607.2563" y1="652.7397" x2="2607.3188" y2="653.7803" gradientTransform="matrix(69.0393 0 0 53.7129 -176352.4062 -34735)">
			<stop  offset="0" style="stop-color:#F7F9B8;stop-opacity:0.24"/>
			<stop  offset="1" style="stop-color:#FFFFB8;stop-opacity:0.125"/>
		</linearGradient>
		
			<path id="region-4-3_00000075870950136478286530000000415399262041432454_" style="fill:url(#region-4-3_00000044898515259100957580000012171533616390578351_);stroke:#000000;stroke-miterlimit:10;" d="
			M3672.87,327.87c-4.2,1.4-12,8.3-12.8,11.2c-0.5,2.1-1.3,2.4-8.4,2.9c-19,1.3-31.6,13.3-32.8,31.3l-0.5,7.5l7.9-4.3
			c4.4-2.3,13.5-7.4,20.4-11.3c12.1-6.8,12.5-7.2,13.5-11.2c1.4-5.6,2.1-6.1,2.9-1.9l0.7,3.5l10-6.1c5.5-3.4,10.4-6.8,10.8-7.7
			c1.3-2.4,3.4-13.2,2.7-13.8C3686.17,326.77,3676.17,326.77,3672.87,327.87z"/>
	</g>
	<g id="layer-5_00000150101690579486291350000018035323486436222598_">
		
			<linearGradient id="region-5-1_00000163782393056018855660000002829358130542311307_" gradientUnits="userSpaceOnUse" x1="2603.033" y1="650.6468" x2="2603.033" y2="651.6468" gradientTransform="matrix(750 0 0 229.8505 -1948149 -149281.6875)">
			<stop  offset="0" style="stop-color:#6D0025;stop-opacity:0.713"/>
			<stop  offset="1" style="stop-color:#D35B54;stop-opacity:0.803"/>
		</linearGradient>
		
			<path id="region-5-1_00000021821056113015505020000014876935345963045300_" style="fill:url(#region-5-1_00000163782393056018855660000002829358130542311307_);" d="
			M3764.27,270.77c-0.2,0.8-1.7,6.8-3.3,13.3c-2.8,11.9-2.8,12-6.3,13.1l-3.5,1.2l-0.3,100.6l-0.2,100.7h375h375v-99
			c0-89.3-0.2-99.6-1.7-105c-0.9-3.3-1.9-5.7-2.2-5.4c-0.3,0.3-1.6,4.7-2.8,9.7c-1.2,5.1-2.2,8-2.2,6.4c-0.2-4.6-1.7-3-3.2,3.4
			l-1.4,6l-9,3.8c-4.9,2.1-11.8,5.2-15.2,7c-5.7,2.8-6.3,2.9-6.3,1.3c0-3.5-1.5-3.4-2.5,0.3c-0.8,2.6-2.2,4.2-5.1,6l-4,2.4l-1.9-9
			c-1.1-4.9-2.2-8.9-2.5-8.9c-0.3,0-1.6,4.8-2.9,10.7c-1.3,6-2.7,11.5-3.2,12.4c-0.4,0.9-5.3,4.3-10.8,7.7l-10,6.1l-0.7-3.5
			c-0.8-4.2-1.5-3.7-2.9,1.9c-1,4-1.4,4.4-13.5,11.2c-6.9,3.9-18.1,10.1-25,13.7l-12.5,6.6l-12.4-5.2c-12.1-5-12.5-5.3-13.5-9
			c-1.1-3.7-2.6-4-2.6-0.4c0,4.1-1.7,1.4-2.9-4.7c-0.7-3.6-1.6-6.5-2-6.5c-0.5,0-1.3,2.5-2,5.5c-1.2,5.2-1.3,5.4-3.6,4.3
			c-1.6-0.7-2.7-2.5-3.5-5.7c-1.3-4.7-1.6-4.6-3.4,1.1c-1.1,3.7-3.4,0.5-5.1-7.3c-1.6-7.4-3.3-9.6-3.6-4.6c-0.1,1.2-0.6,0.3-1.2-2.1
			c-0.5-2.3-1.3-4.2-1.7-4.2c-0.3,0-1.2,2.9-1.9,6.5c-0.7,3.6-1.6,6.7-2,6.9c-1.5,0.9-5.6-2-5.9-4.2c-0.4-2.8-2.2-2.9-2.2-0.1
			c0,1.3-0.5,1.9-1.2,1.6c-0.7-0.3-8.8-3.1-18-6.2c-18.4-6.1-39-11.6-51.1-13.6c-7-1.2-7.8-1.6-8.4-3.8l-0.6-2.5l-0.9,2.3
			c-0.7,2.1-1.3,2.3-4.6,1.7c-2-0.3-5.4-0.6-7.4-0.6c-3.6,0-3.7-0.1-4.9-5.5c-1.2-5.4-2.9-8.3-2.9-5.1c0,0.9-0.4,1.6-1,1.6
			c-0.5,0-1-0.8-1-1.8c0-0.9-0.4-2.3-0.9-3c-0.6-0.9-1.4,0.9-2.6,5.7l-1.7,7.1h-7.8h-7.8l-0.6-4.5c-0.9-5.9-2.3-6.5-3.1-1.4
			c-0.9,5.4-1.8,3.8-4.1-6.8c-0.9-4.5-2-8.3-2.4-8.3c-0.4,0-1.5,3.6-2.5,8.1c-3,14.1-3.3,14.9-6,14.9c-1.8,0-2.6-0.7-3.1-2.5
			c-0.8-3.3-2.2-3.2-2.6,0.2c-0.3,2.6-0.7,2.8-13.3,5.4c-7.1,1.4-25.1,5.7-40,9.3c-54.7,13.6-77.4,16.8-103.9,14.5
			c-14.1-1.2-16.6-1.9-16.6-4.9c0-2.8-1.8-3.4-2.2-0.8c-0.2,1.8-0.9,2.3-3.1,2.1c-4.8-0.3-16.8-4.5-17.6-6.2
			c-0.4-0.9-1.4-4.4-2.1-7.8c-1.4-6.7-2.3-7.3-3.5-2.1c-0.6,2.8-0.8,3-1.4,1.4c-0.7-1.8-0.8-1.8-1.4-0.2c-0.4,1-0.7,2.6-0.7,3.7
			c0,1-0.3,1.9-0.7,1.9c-1.3,0-19.6-10.2-33.5-18.7c-20.6-12.5-42.1-24.8-47.3-27c-2.8-1.1-4.5-2.4-4.5-3.5c0-0.9-0.4-2-1-2.3
			c-0.5-0.3-1,0.1-1,0.9c0,0.9-0.1,1.6-0.3,1.6c-1.6,0-17.4-6.4-17.9-7.3c-0.4-0.7-0.8-2.2-0.8-3.5c0-3.3-1.7-2.7-2.4,0.9
			c-0.5,2.4-1,3-2.3,2.5c-0.9-0.4-3.6-1-5.9-1.3c-3.7-0.5-4.3-0.9-4.8-3.5c-0.3-1.6-1-2.7-1.5-2.4c-0.5,0.3-1.4-1.7-2.1-4.4
			c-0.7-2.7-1.5-4.8-2-4.5c-0.4,0.2-1.3,3.2-2,6.5c-1,4.6-1.7,6-3.1,6c-1.8,0-2.2-0.9-3.4-6.8c-0.9-4.6-2.1-4-3.1,1.5
			c-0.9,4.5-1.1,4.8-4.2,5.1c-1.8,0.2-4-0.2-4.8-0.9c-1.1-0.9-1.4-0.8-1.4,0.5c0,1.1-0.9,1.6-3.2,1.6c-1.8,0-4.3,0.3-5.5,0.6
			c-1.9,0.5-2.2,0-3.4-5c-0.6-3-1.5-5.3-1.9-5.1c-0.4,0.3-1.1,2.4-1.5,4.7l-0.7,4.3l-2.4-9.9
			C3765.57,269.87,3764.97,268.47,3764.27,270.77z"/>
	</g>
	<g id="layer-6_00000042708218346309105270000003794326154509146007_">
		
			<linearGradient id="region-6-1_00000068656651020532657910000010436943386289271460_" gradientUnits="userSpaceOnUse" x1="2604.0193" y1="650.6972" x2="2604.0479" y2="651.8345" gradientTransform="matrix(750 0 0 210.0244 -1948149 -136374.8906)">
			<stop  offset="0" style="stop-color:#220D17;stop-opacity:0.811"/>
			<stop  offset="1" style="stop-color:#30001A;stop-opacity:0.653"/>
		</linearGradient>
		
			<path id="region-6-1_00000090982045957488886050000010550339525130803597_" style="fill:url(#region-6-1_00000068656651020532657910000010436943386289271460_);" d="
			M5247,290c-0.1,0.3-1.2,4.8-2.5,10s-2.4,8.3-2.4,6.7c-0.2-4.6-1.7-3-3.2,3.4l-1.4,6l-9,3.8c-4.9,2.1-11.8,5.2-15.2,7
			c-5.7,2.8-6.3,2.9-6.3,1.3c0-3.5-1.5-3.4-2.5,0.3c-0.8,2.6-2.2,4.2-5.1,6l-4,2.4l-1.9-9c-1.1-4.9-2.2-8.9-2.5-8.9
			s-1.6,4.8-2.9,10.7c-1.3,6-2.7,11.5-3.2,12.4c-0.4,0.9-5.3,4.3-10.8,7.7l-10,6.1l-0.7-3.5c-0.8-4.2-1.5-3.7-2.9,1.9
			c-1,4.1-1.4,4.4-15.5,12.4c-40.5,23.1-123.1,61.3-125.2,58.1c-0.4-0.7-0.8-2-0.8-2.9c0-3.6-1.6-2.7-3,1.8
			c-0.8,2.6-1.9,4.8-2.4,4.8s-1.9-4.1-3-9.2c-2.3-9.9-3.2-11.8-4.1-8.2c-0.3,1.3-1.5,6.9-2.8,12.3l-2.3,9.9l-14.9,5.4
			c-38.9,13.9-58.1,18.6-77,18.7c-14.9,0-21.8-1.4-33.2-7.1l-7.1-3.6l-2.2-9.6c-2.9-12.9-4-17.1-4.5-17.1c-0.2,0-1.3,4.3-2.5,9.5
			l-2.2,9.4l-2.4-1.5c-1.3-0.9-2.4-2.5-2.4-3.5s-0.4-2.1-1-2.4c-0.5-0.3-1,0.1-1,0.9c0,2-1,2-3.6,0.2c-1.1-0.8-4.8-2.4-8.2-3.5
			c-8.3-2.8-17.7-2.7-31.4,0.4c-18.2,4.1-23.2,4.7-30.1,3.5c-10.1-1.8-20.7-7.9-48.7-27.9c-36.4-26.1-53.7-36.6-69.2-42.3
			c-5.2-1.8-5.8-2.4-6.4-5.4c-0.8-4.5-2.1-5.1-2.9-1.4c-0.5,2.3-1.1,2.9-2.3,2.6c-5.5-1.6-14.4-3.5-18.7-4.1
			c-9.8-1.2-9-0.5-11.5-11.5c-1.3-5.5-2.6-9.8-2.9-9.4c-0.3,0.3-1.3,3.6-2.2,7.2c-1.1,4.5-1.8,6.1-2.2,4.9c-0.4-0.9-1-2.5-1.4-3.5
			c-0.4-1.1-1.1,0.4-2.1,4.6c-1.3,5.4-1.9,6.2-3.6,6c-1.7-0.3-2.4-2-4.5-11.1c-1.3-5.9-2.7-10.7-3.1-10.7c-0.3,0-1.6,4.6-2.9,10.2
			c-1.2,5.7-2.4,11.1-2.7,12c-0.3,1-2.2,2.2-4.7,2.8c-16.3,4.1-40.8,14.4-59.1,24.8c-6,3.5-11.3,5.9-11.7,5.5
			c-0.3-0.5-1.9-6.4-3.4-13.3c-1.5-6.8-3.1-13.3-3.5-14.5c-0.9-2.4-0.8-2.6-4.4,9.6l-2.6,8.5v61.7V500h375h375v-99.3
			c0-94.6-0.1-99.5-1.9-105.2C5248,292.2,5247.1,289.7,5247,290z"/>
		
			<linearGradient id="region-6-2_00000059989654233916907050000007611108007500868540_" gradientUnits="userSpaceOnUse" x1="2609.854" y1="652.0054" x2="2609.854" y2="653.0054" gradientTransform="matrix(227.4359 0 0 74.3008 -588578.75 -48061.4297)">
			<stop  offset="0" style="stop-color:#B95651;stop-opacity:0.731"/>
			<stop  offset="1" style="stop-color:#C3594D;stop-opacity:0.8"/>
		</linearGradient>
		
			<path id="region-6-2_00000049922283132072042490000000074480443551147429_" style="fill:url(#region-6-2_00000059989654233916907050000007611108007500868540_);" d="
			M5092,384.1c-7.9,2.2-18.3,8.3-21.3,12.6c-2.6,3.7-3.3,4.1-5,3.1c-1.3-0.6-5.3-0.9-10.5-0.5c-6.5,0.4-9.6,1.1-14.3,3.4l-5.9,2.9
			l-2.7-2.8c-9.7-10.2-27.6-10.5-38.7-0.7c-2.5,2.2-5.1,5.5-5.7,7.4c-0.7,1.9-1.6,3.2-2.1,2.9c-2-1.3-8.2,1.1-11.6,4.4l-3.7,3.6
			l-8.2-0.3c-11.3-0.4-18.1,1.7-23.9,7.4c-2.9,3-4.8,5.9-5.6,9c-1,3.5-1.6,4.4-2.8,3.8c-0.8-0.4-4.4-0.9-8-1
			c-7.5-0.4-11.9,1.6-14.8,6.7c-1.3,2.3-2.1,2.8-3.7,2.2c-4.4-1.6-13.9-0.7-18.3,1.8c-4.9,2.7-4.6,3,4.8,5.6s29.2,2.4,42.5-0.5
			c12.1-2.6,33.8-9.2,54-16.4l14.9-5.4l2.3-9.9c1.3-5.4,2.5-11,2.8-12.3c0.9-3.6,1.8-1.8,4,7.9c1.1,4.9,2.5,9,3,9.2
			c0.6,0.2,1.7-1.9,2.5-4.5c1.4-4.5,3-5.4,3-1.8c0.1,4.3,1.4,4.2,14.9-1.4c20.5-8.5,34.9-14.9,56.1-25.2l19.5-9.4l-3.4-1.5
			C5102.4,382.8,5097.2,382.7,5092,384.1z"/>
	</g>
	<g id="layer-7_00000045613117360723321520000009104934569872788880_">
		
			<linearGradient id="region-7-1_00000100356915214867280260000015370706608060055469_" gradientUnits="userSpaceOnUse" x1="2605.0264" y1="651.0409" x2="2605.0344" y2="652.1293" gradientTransform="matrix(750 0 0 142.6603 -1948149 -92520.8438)">
			<stop  offset="0" style="stop-color:#1E0714;stop-opacity:0.669"/>
			<stop  offset="1" style="stop-color:#180512;stop-opacity:0.76"/>
		</linearGradient>
		
			<path id="region-7-1_00000007420917527903898910000002909241980273929603_" style="fill:url(#region-7-1_00000100356915214867280260000015370706608060055469_);" d="
			M5255.7,358c-0.4,0.8-1.7,5.3-3.1,10.1l-2.6,8.5v61.7V500h375h375v-35.3v-35.2l-6-19.9c-3.2-10.9-6.1-20.1-6.4-20.4
			c-0.8-0.7-1.1,0.2-7.1,27.3c-3.1,13.7-5.9,26-6.2,27.3c-0.5,2-1.2,1.1-5.3-5.9c-2.6-4.6-5.1-8.4-5.6-8.6c-0.5-0.1-2.2,4-3.8,9.2
			s-3.2,9.5-3.6,9.5s-1.8-2.4-3-5.2l-2.3-5.3l-3,9.7c-1.7,5.4-3.3,9.8-3.6,9.8c-0.3,0-2.1-6.9-4-15.3c-1.9-8.3-3.7-15.7-4-16.2
			c-0.3-0.6-1.3,3.3-2.2,8.5l-1.6,9.5l-1-4c-0.6-2.2-2.1-8.4-3.4-13.9c-1.3-5.7-2.5-9.2-2.9-8.5c-0.4,0.8-2,9.9-3.6,20.3l-2.8,18.9
			l-1.4-5.4c-0.7-3-1.7-5.8-2.1-6.2c-0.5-0.4-1.4,1.9-2.1,5.2c-0.7,3.4-1.8,6.7-2.4,7.5c-0.8,1-4.9,1.5-14.8,2l-13.6,0.6l-2.8-8.3
			l-2.7-8.2l-1.3,3c-0.7,1.6-1.3,3.9-1.4,5c-0.1,3.2-1.4,0.1-3.5-8.2c-1.1-4-2.2-7.3-2.5-7.3c-0.4,0-1.2,3.9-1.9,8.7
			c-1.8,12.7-2.1,13.6-3.6,9.3c-0.6-1.9-1.6-3.4-2.1-3.3c-0.5,0.1-1.6,2.7-2.4,5.8l-1.4,5.6l-5-0.3c-4.8-0.3-5-0.4-6-4.3
			c-1.3-4.4-2-4-3,1.7c-0.5,2.7-1.2,3.8-2.5,3.8c-1.4,0-2.1-1.7-3.6-8.8c-1-4.8-2.1-9.1-2.5-9.5c-0.4-0.5-1.6,3.6-2.6,9l-2,9.8
			l-4.6,0.5l-4.6,0.6l-1.1-3.8c-1.5-4.7-2.7-4.8-3.5-0.3c-0.4,1.9-1.1,3.7-1.6,4c-0.4,0.3-8.2,1.2-17.2,2s-18.1,1.7-20.4,2l-4,0.6
			l-2.4-7.6c-1.3-4.2-2.7-7.8-3.1-8c-0.3-0.3-1.4,2.6-2.4,6.2l-1.8,6.7l-3.1-8.1c-1.7-4.5-3.4-8.4-3.8-8.8c-0.4-0.4-2.1,4-3.8,9.7
			c-3.3,10.6-4.7,12.8-8.7,12.8c-2.3,0-3.1-1.9-4.9-10.8c-0.9-4.4-1.5-3.4-2.8,4.5c-0.6,3.8-1.6,6.7-2.1,6.6
			c-0.6,0-2.1-5.1-3.5-11.1c-1.4-6.1-2.8-11.3-3.1-11.7c-0.7-0.7-1.2,1.7-3,14.5c-0.7,4.7-1.5,8.9-1.9,9.3
			c-0.6,0.7-28.1,4.6-32.3,4.7c-0.5,0-2.2-3.1-3.9-7c-1.7-3.8-3.4-7-3.8-7c-0.3,0-1.2,2.3-1.9,5c-1.5,5.7-2.6,6.4-3.6,2
			c-0.9-4-2.2-3-3,2.4c-0.4,2.3-1,4.9-1.5,5.6c-0.8,1.4-39.9,7.2-41.2,6.1c-0.3-0.3-2.1-6.2-3.9-13.1c-1.8-6.9-3.4-12.7-3.6-12.9
			c-0.7-0.9-1.3,1-4.4,14.6l-3.2,14.1l-3.4,0.7c-4.2,0.8-4.9,0.3-5.8-3.7l-0.7-3.3l-1.3,4c-1.2,4.2-1,4-11.7,5.9l-3.7,0.7l-4.6-14.8
			c-2.5-8.1-4.9-15.6-5.1-16.6c-0.3-0.9-0.8-1.7-1.2-1.7c-0.4,0-2.9,6.1-5.7,13.4c-2.7,7.4-5.3,12.9-5.6,12.3
			c-0.3-0.7-1.6-5-2.9-9.7c-1.2-4.7-2.5-8.8-2.9-9.3c-0.4-0.4-2.6,5.5-5,13.1l-4.3,13.9l-11.5-1.8c-6.3-1-11.7-1.9-11.8-2.1
			c-0.2-0.2-2.2-6.3-4.5-13.7c-2.3-7.3-4.5-12.9-5-12.5c-0.4,0.5-2.5,6.1-4.5,12.4l-3.8,11.5l-3.8-0.3c-4.5-0.5-3.8,1.5-8.4-22.2
			c-3.8-19.3-4.3-21.5-4.9-20.9c-0.3,0.2-2.3,8.7-4.6,18.9s-4.5,19.1-4.9,19.8c-0.4,0.7-1.8-4-3.1-10.5c-1.2-6.5-2.6-12.4-3-13.2
			c-0.5-0.9-1.9,3.3-3.6,10.7c-3,13.3-2.8,13.1-10.1,11.6c-2.8-0.6-3.2-1.2-5.2-8.2c-5.3-18.3-6.2-21.2-7-20.8
			c-0.4,0.3-1.6,3.3-2.6,6.6c-1.1,3.7-2.1,5.6-2.5,4.8c-0.4-0.7-1.8-8.4-3.1-17.1c-1.3-8.6-2.6-15.7-2.9-15.7
			c-0.4,0-2.4,6.4-4.5,14.2l-3.9,14.3l-2-7.8c-1.2-4.2-2.3-7.7-2.7-7.7s-3.1,7-6,15.5c-5,14.5-5.5,15.5-7.9,15.5
			c-6.9,0-36.6-3.5-37.6-4.4c-0.6-0.6-2.1-5.2-3.3-10.1c-4.8-19.5-4.7-19.5-7.6-8c-1,3.8-2.1,7.3-2.5,7.8c-0.3,0.4-1.3-3.9-2.2-9.5
			c-0.9-5.7-3.1-19.4-4.9-30.6c-1.8-11.1-3.5-20-3.8-19.6c-0.3,0.3-2.9,10.9-5.6,23.6l-5,23l-2.4-16.1c-1.3-8.9-2.7-16.1-3.1-16.1
			s-3.3,11.7-6.6,25.9c-3.2,14.3-6,25.9-6.1,25.7c-0.1-0.1-2.3-6.9-4.9-15.2c-2.5-8.2-4.9-15.3-5.3-15.7c-0.5-0.4-2.3,2.7-4.1,7
			c-1.8,4.3-3.6,8.1-4,8.6c-0.3,0.4-3-6.7-5.9-15.8s-5.4-16.5-5.6-16.5s-3.8,6.1-8.1,13.6c-4.2,7.4-8,13.1-8.4,12.7
			c-0.4-0.4-4.9-19.5-10-42.3C5257.2,358.1,5256.6,355.5,5255.7,358z"/>
	</g>
</g>
</svg>
