<?xml version="1.0" encoding="utf-8"?>
<!-- Generator: Adobe Illustrator 26.5.0, SVG Export Plug-In . SVG Version: 6.00 Build 0)  -->
<svg version="1.1" xmlns="http://www.w3.org/2000/svg" xmlns:xlink="http://www.w3.org/1999/xlink" x="0px" y="0px"
	 viewBox="0 0 6750 500" style="enable-background:new 0 0 6750 500;" xml:space="preserve">
<style type="text/css">
	.st0{fill:none;}
	.st1{fill:#D3D3D3;}
	.st2{fill:url(#SVGID_1_);}
	.st3{fill:url(#region-1-1_00000160180005710876075790000012219076814263874744_);}
	.st4{fill:url(#region-2-1_00000111876050656728732970000002976416686136534684_);}
	.st5{fill:url(#region-2-2_00000048478029766921146020000003371508670812937385_);}
	.st6{fill:url(#region-2-3_00000109727886087097592820000017443838958507943590_);}
	.st7{fill:url(#region-3-1_00000021120966613138054040000003994388593219465905_);}
	.st8{fill:url(#region-3-2_00000173125234499009839250000011505301462330588573_);}
	.st9{fill:url(#region-4-1_00000034058650803627009960000017220731687064642471_);}
	.st10{fill:url(#region-4-2_00000015314059895673849380000005413818628581738919_);}
	.st11{fill:url(#region-5-1_00000122707629078476185770000001273906409216707773_);}
	.st12{fill:url(#region-5-2_00000047018048725180770370000017691295034460154290_);}
	.st13{fill:url(#region-5-3_00000009571048227151157010000003113723035931179175_);}
	.st14{fill:url(#region-6-1_00000005980525776560649310000003065636728198615691_);}
	.st15{fill:url(#region-7-1_00000101075651645481150190000011204993878637634210_);}
	.st16{fill:url(#region-7-2_00000054954930737389069200000011838075676011725984_);}
	.st17{fill:url(#region-8-1_00000161618676059841320960000014285221402504067761_);}
	.st18{fill:url(#region-1-1_00000107570573041829823630000007928046959999200441_);}
	.st19{fill:url(#region-2-1_00000098199703356985338200000010294534023697904804_);}
	.st20{fill:url(#region-2-2_00000071561520939678854830000000968968853861803699_);}
	.st21{fill:url(#region-2-3_00000163787731667364152890000009422324896061649069_);}
	.st22{fill:url(#region-3-1_00000127763597708989793960000016983108305778948769_);}
	.st23{fill:url(#region-3-2_00000118358261058217743330000002271141654025364113_);}
	.st24{fill:url(#region-4-1_00000062876811105932632390000001742081942253117321_);}
	.st25{fill:url(#region-4-2_00000065067252973183531370000015083364007921762207_);}
	.st26{fill:url(#region-5-1_00000129899592675192705460000002680476028692161967_);stroke:#000000;stroke-miterlimit:10;}
	.st27{fill:url(#region-5-2_00000115514691122832459640000016497919258428060043_);stroke:#000000;stroke-miterlimit:10;}
	.st28{fill:url(#region-5-3_00000060029038398589489040000012407842745716193701_);stroke:#000000;stroke-miterlimit:10;}
	.st29{fill:url(#region-6-1_00000063628198101978990770000015600553271420562320_);}
	.st30{fill:url(#region-7-1_00000183929650965990761330000001680896768940482203_);}
	.st31{fill:url(#region-7-2_00000106148182401323317610000015571590655426908321_);}
	.st32{fill:url(#region-8-1_00000065038805756737882900000015022885798103429773_);}
</style>
<pattern  width="40" height="40" patternUnits="userSpaceOnUse" id="SVGID_0000009819875603640501018" viewBox="0 -40 40 40" style="overflow:visible;">
	<g>
		<rect y="-40" class="st0" width="40" height="40"/>
		<g>
			<rect y="-40" class="st0" width="40" height="40"/>
			<g>
				<rect y="-40" class="st0" width="40" height="40"/>
				<rect y="-40" class="st0" width="40" height="40"/>
				<rect y="-40" class="st1" width="20" height="20"/>
				<rect x="20" y="-20" class="st1" width="20" height="20"/>
			</g>
		</g>
	</g>
</pattern>
<g id="图层_1">
	<pattern  id="SVGID_1_" xlink:href="#SVGID_0000009819875603640501018" patternTransform="matrix(1 0 0 1 1321 17312.2402)">
	</pattern>
	<rect class="st2" width="6750" height="500"/>
	<g id="layer-1">
		
			<linearGradient id="region-1-1_00000055687000464273137610000013866432563514031795_" gradientUnits="userSpaceOnUse" x1="375.9985" y1="499.9982" x2="375.9985" y2="500.9982" gradientTransform="matrix(750 0 0 500 -281624 -249999)">
			<stop  offset="0" style="stop-color:#FECC7F"/>
			<stop  offset="1" style="stop-color:#FFFFFF"/>
		</linearGradient>
		<path id="region-1-1" style="fill:url(#region-1-1_00000055687000464273137610000013866432563514031795_);" d="M-0.1,250.1v250
			h375h375v-250V0.1h-375h-375V250.1z"/>
	</g>
	<g id="layer-2">
		
			<linearGradient id="region-2-1_00000075121913665484444340000011531978988095724477_" gradientUnits="userSpaceOnUse" x1="375.4966" y1="499.9395" x2="375.6654" y2="501.3177" gradientTransform="matrix(398.5 0 0 136.5157 -149108.5 -68192.7656)">
			<stop  offset="0" style="stop-color:#FFF4E5;stop-opacity:0.87"/>
			<stop  offset="1" style="stop-color:#FFE3B9;stop-opacity:0.649"/>
		</linearGradient>
		<path id="region-2-1" style="fill:url(#region-2-1_00000075121913665484444340000011531978988095724477_);" d="M741.9,66
			c-10.1,3.2-22.2,12.2-26.6,19.7c-1.4,2.4-2.7,4.4-2.9,4.4c-0.1,0-2-0.7-4.1-1.6c-9.5-4-22.6-3.5-32,1.1
			c-7.8,3.8-17.2,12.8-20.4,19.6l-2.6,5.6l-3.6-1.3c-13.7-4.7-32.7-0.5-42.6,9.4c-3.5,3.5-3.9,3.6-6.2,2.4c-1.4-0.7-5.1-1.2-8.5-1
			c-5.2,0.2-6.6-0.2-10.9-3c-7.6-4.9-13.9-6.7-23.6-6.7c-10.6,0.1-15.2,1.4-23.2,6.8c-7.4,5-13,12-15.9,19.9c-1.9,5-2.4,5.6-4,4.8
			c-5.5-3-17.9,0.2-21.4,5.6c-1.3,2-1.8,2.2-5.2,1.2c-5-1.4-12.7-0.4-17,2.2l-3.5,2l-3.6-3.1c-2-1.8-6.1-4.4-9.2-5.8
			c-4.8-2.3-6.8-2.6-15.5-2.6c-9,0-10.6,0.3-15.8,2.8c-7.5,3.7-14.8,11.1-18.4,18.6c-2.7,5.8-2.9,6-6,5.4c-4-0.6-9.9,1.2-11.7,3.8
			c-1.3,1.9-1.4,1.9-5.7-0.1c-6.7-3-17.8-2.8-24.9,0.6l-5.5,2.6l3.3,1.5c11.7,4.9,30,7.1,45.7,5.5c21.2-2.2,40.3-8.1,81.5-25
			c40.4-16.6,52.5-19.7,75-18.9c23.5,0.8,34.4,5.1,74,28.9c32,19.2,43.7,24.8,59.4,28.3c10.1,2.3,15.6,1.4,39.4-6.1
			c9.7-3.1,18.3-5.8,19-6c0.9-0.3,1.2-13.5,1.2-61.9c0-48.6-0.3-61.5-1.2-61.4C748,64.2,744.9,65,741.9,66z"/>
		
			<linearGradient id="region-2-2_00000101088395035638805710000000925643509402474629_" gradientUnits="userSpaceOnUse" x1="374.3179" y1="501.0222" x2="375.2314" y2="499.8688" gradientTransform="matrix(218.4381 0 0 96.4253 -81756.7188 -48142.6602)">
			<stop  offset="0" style="stop-color:#FFD8A5;stop-opacity:0.696"/>
			<stop  offset="1" style="stop-color:#FEFFFF;stop-opacity:0.879"/>
		</linearGradient>
		<path id="region-2-2" style="fill:url(#region-2-2_00000101088395035638805710000000925643509402474629_);" d="M-0.1,117.7
			c0,38.5,0.3,48.4,1.2,47.8c0.7-0.5,6-4,11.8-7.9c45.9-31.2,72-37.3,110-25.9c4.7,1.4,16.2,5.5,25.5,9.1
			c21.8,8.3,33,11.9,42.8,13.8c8.6,1.6,26.3,2,27.1,0.6c0.3-0.5-1.2-2.9-3.5-5.4c-6.8-7.9-19.7-12.4-32-11.4
			c-6.7,0.6-6.9,0.5-6.9-1.7c0-5.1-7.9-10.6-13.3-9.2c-1.9,0.4-2.6-0.2-4.6-4c-3.1-5.7-8.9-10.9-16-14.3c-4.9-2.3-6.8-2.6-15.1-2.5
			c-9.6,0-15,1.6-20.4,5.7c-1.8,1.3-2.2,1.2-3.9-0.9c-1-1.3-3.7-2.9-6-3.6c-2.7-0.7-5.8-2.9-8.7-5.8c-7-7.1-12.6-9.4-24.2-9.8
			c-8-0.3-10.4,0-14.2,1.7l-4.7,2l-4.4-3.1c-3.7-2.6-5.8-3.3-10.9-3.6c-5.6-0.4-6.5-0.7-7.5-2.8c-2.7-6-16.4-17.4-20.8-17.4
			C0.2,69.1-0.1,79.5-0.1,117.7z"/>
		
			<linearGradient id="region-2-3_00000165939007301200635140000000346009717952685481_" gradientUnits="userSpaceOnUse" x1="375.9985" y1="499.9976" x2="375.9985" y2="500.9976" gradientTransform="matrix(750 0 0 373.9666 -281624 -186856.2656)">
			<stop  offset="0" style="stop-color:#FE8420;stop-opacity:0.526"/>
			<stop  offset="1" style="stop-color:#FEFD48;stop-opacity:0.692"/>
		</linearGradient>
		<path id="region-2-3" style="fill:url(#region-2-3_00000165939007301200635140000000346009717952685481_);" d="M77.3,127.2
			c-6.8,1.1-19.9,5.3-27.9,8.9c-9.1,4.1-18.6,9.7-35.2,20.7l-14.3,9.5v166.9v166.9h375h375V343.7V187.3l-3.7,1
			c-2.1,0.5-10.6,3.1-18.8,5.8c-20.9,6.8-27.1,7.7-37.1,5.5c-15.7-3.5-27.4-9.1-59.4-28.3c-39.6-23.8-50.5-28.1-74-28.9
			c-22.5-0.8-34.6,2.3-75,18.9c-40.2,16.5-59.4,22.5-80,24.9c-24.3,2.8-39.9-0.9-79-18.6c-11.3-5.1-23.7-10.4-27.6-11.8
			c-18.6-6.7-34.9-7.4-62.1-2.7c-32.2,5.5-41.8,4.1-84.8-12.3C113.7,127.5,95.8,124.1,77.3,127.2z"/>
	</g>
	<g id="layer-3">
		
			<linearGradient id="region-3-1_00000013891143298580507510000006871969764299120575_" gradientUnits="userSpaceOnUse" x1="375.8659" y1="499.9224" x2="376.1461" y2="501.2995" gradientTransform="matrix(750 0 0 310.5775 -281624 -155098.3281)">
			<stop  offset="0" style="stop-color:#B6461A;stop-opacity:0.417"/>
			<stop  offset="1" style="stop-color:#FF2810;stop-opacity:0.114"/>
		</linearGradient>
		<path id="region-3-1" style="fill:url(#region-3-1_00000013891143298580507510000006871969764299120575_);" d="M244.9,190.9
			c0,1.7-1,2-7.2,2.6c-14.1,1.4-37.7,9-55,17.7c-5.4,2.7-5.8,2.8-5.8,1c0-2.9-1.8-3.5-2.2-0.9c-0.4,2.8,0.6,2.8-15-0.2
			c-11.9-2.2-12.7-2.5-13.4-4.9c-0.6-2-0.8-2.2-1.1-0.9c-0.3,1-0.9,1.8-1.4,1.8s-0.9-0.8-0.9-1.8c-0.1-1.5-0.2-1.4-1.3,0.3
			c-1.5,2.6-4.3,2.1-5.1-0.8c-0.7-2.2-0.7-2.2-1.5-0.1c-0.9,2-1.1,2-12.7,0.6c-22.1-2.6-74.4-1.7-85.6,1.4c-1.1,0.3-1.9-0.3-2.4-1.8
			l-0.7-2.3l-0.8,2.3c-1,2.6-2.9,2.9-2.9,0.4c-0.1-1.5-0.2-1.4-1.2,0.3c-0.6,1.1-1.2,2.1-1.3,2.3c-0.2,0.2-1.5,0.5-3,0.8
			s-3.3,0.6-3.9,0.7c-0.6,0.1-1.2-0.8-1.4-2c-0.2-1.4-0.8-2-1.8-1.6c-1,0.4-1.4-0.2-1.4-2c0-5-1.9-3.7-3,2.1l-1.2,5.9l-5.6,1.4
			l-5.7,1.5L0.1,357.4l-0.2,142.7h375h375v-133c0-126.2-0.1-132.9-1.7-132.3c-2.7,1-9.3,5.2-13.7,8.7c-2.1,1.7-9.3,9.4-16.1,17.2
			c-17.3,19.9-27.7,27-47.5,32.7l-8.5,2.5l-5-3.3c-2.7-1.7-10.8-7-18-11.7c-7.1-4.7-14.9-9.5-17.2-10.8c-2.4-1.3-4.6-3.4-5.2-4.9
			c-0.7-2.1-1-2.3-1.6-1c-0.6,1.6-0.9,1.6-4.5,0c-2.9-1.1-4.1-2.4-4.5-4.4c-0.7-3-2-3.5-3.3-1.1c-0.7,1.3-1.6,1.3-8.3-0.6
			c-9.8-2.7-24.1-3.5-35.1-1.8l-8.6,1.4l-0.9-3.1l-1-3l-0.7,3.2c-0.8,3.6-2.6,4.5-2.6,1.3c0-3-1.8-2.4-2.2,0.7
			c-0.3,2.5-0.9,2.8-6.3,3.9c-17.2,3.6-33.9,3.9-36.9,0.8c-0.8-0.7-1.6-1-2-0.7c-0.3,0.4-0.6-0.3-0.6-1.5c0-2.9-1.6-3.7-2.3-1.1
			c-0.6,2.4-2.7,1.7-2.7-0.9c-0.1-1.6-0.2-1.5-1.4,0.1c-1.2,1.6-1.4,1.4-2-1.8c-0.4-2-1.1-3.3-1.6-3c-0.4,0.3-1.1-0.1-1.3-0.7
			c-0.4-0.8-0.8-0.4-1.2,0.9s-1,2.3-1.4,2.3c-0.3,0-6.2-4.6-13.1-10.1s-15.3-11.7-18.7-13.7c-3.5-2-6.3-4.4-6.3-5.2
			c0-1.3-0.1-1.3-1,0c-0.7,1.2-1.1,0.8-1.6-1.7c-0.7-3.4-2.4-3.6-2.4-0.3c0,1.6-0.5,1.7-3.2,1c-1.8-0.4-5-1.1-7-1.5
			c-2.9-0.4-3.8-1.1-3.8-2.5c0-2.7-1.8-2.5-2.2,0.2c-0.3,1.8-0.6,1.4-1.2-1.5c-0.6-2.5-1.3-3.6-2.1-3.3c-0.8,0.3-1.6-0.8-2-2.7
			l-0.7-3.2l-1.1,3.5c-0.6,1.9-1.4,3.7-1.8,4c-0.3,0.3-0.9,1.4-1.3,2.5c-0.5,1.9-2.2,2.2-18.6,3.9c-9.9,0.9-18.4,1.5-19,1.1
			c-0.5-0.3-1-1.5-1-2.6c0-2.7-2-2.4-2.1,0.3c0,2.2-0.1,2.2-1.1-0.2l-1.1-2.5l-1,3.4l-1.1,3.4l-8.8-0.7c-9.7-0.7-24-4.1-33.2-7.9
			c-4.3-1.8-6.2-3.2-7.2-5.3c-0.8-1.9-1.3-2.3-1.3-1.2c-0.1,1-0.7,1.8-1.4,1.8c-0.7,0-7.2-2.6-14.3-5.9c-7.1-3.2-14.6-6.5-16.8-7.2
			c-2.2-0.8-4.3-2.4-4.9-3.7c-0.7-1.6-1.3-1.9-1.8-1c-0.4,0.7-1-0.3-1.4-2.5c-0.8-3.9-2.5-5.1-2.5-1.8c0,4.6-0.7,5-6.3,3.5
			c-2.9-0.8-9.1-1.7-13.9-2.1c-6.2-0.4-8.8-1-8.8-1.9c0-0.7-0.4-1.6-1-1.9C245.4,189.3,244.9,189.9,244.9,190.9z"/>
		
			<linearGradient id="region-3-2_00000005974219727148376260000013175426002052342203_" gradientUnits="userSpaceOnUse" x1="375.1329" y1="499.9906" x2="375.1329" y2="500.9906" gradientTransform="matrix(275.1049 0 0 95.8 -102588.5391 -47699)">
			<stop  offset="0" style="stop-color:#FEDCAB;stop-opacity:0.843"/>
			<stop  offset="1" style="stop-color:#FFCC83;stop-opacity:0.766"/>
		</linearGradient>
		<path id="region-3-2" style="fill:url(#region-3-2_00000005974219727148376260000013175426002052342203_);" d="M737.6,201.2
			c-12,2.8-25.3,15.3-28.8,27c-1.2,3.7-1.4,3.9-5.4,3.9c-5.2,0-12.7,4.5-14.6,8.8l-1.3,3l-4.1-1.6c-2.4-1-6.8-1.7-11-1.7
			c-5.9,0-8.1,0.5-13.7,3.3c-6.1,3-11.8,8-13.1,11.4c-0.3,0.9-1.4,0.4-3.8-1.9c-1.9-1.8-5.4-3.9-7.8-4.8c-4.9-1.7-15.6-2-19.5-0.5
			c-1.6,0.6-2.7,0.6-3.1-0.1c-1.7-2.6-10.6-5.9-16.2-5.9c-5.6-0.1-5.9-0.2-8.5-3.9c-5.7-8.3-16.2-13.3-27.8-13.4
			c-12.7,0-22.9,5.3-29.2,15.2l-2.9,4.6l-6.4,0.1c-5.2,0.1-7.2,0.6-10.5,2.8c-2.2,1.4-4,3-4,3.5s-2.8-0.3-6.2-1.6
			c-6.6-2.7-19.6-4.1-23.6-2.6c-2.1,0.8-2,1,2.8,4.6c2.7,2,5.1,3.7,5.4,3.7c0.2,0,0.7-1,1.1-2.3s0.8-1.7,1.2-0.9
			c0.2,0.6,0.9,1,1.3,0.7c0.5-0.3,1.2,1,1.6,3c0.6,3.1,0.8,3.4,1.9,1.9s1.2-1.5,1.8,0.6c0.6,2.4,2.7,1.9,2.7-0.6
			c0-0.8,0.5-1.2,1-0.9c0.6,0.3,1,1.6,1,2.7c0,1.2,0.3,1.9,0.6,1.5c0.4-0.3,1.2,0,2,0.7c3,3.1,19.7,2.8,36.9-0.8
			c5.4-1.1,6-1.4,6.3-3.9c0.4-3.1,2.2-3.7,2.2-0.7c0,3.1,1.6,2.4,2.7-1.3l1-3.2l0.7,3l0.7,3.1l8.7-1.4c11-1.7,25.3-0.9,35.1,1.8
			c6.7,1.9,7.6,1.9,8.3,0.6c1.3-2.4,2.6-1.9,3.3,1.1c0.4,2,1.6,3.3,4.5,4.4c3.6,1.6,3.9,1.6,4.5,0c0.6-1.3,0.9-1.1,1.6,1
			c0.6,1.5,2.8,3.6,5.2,4.9c2.3,1.3,10.1,6.1,17.2,10.8c7.2,4.7,15.3,10,18,11.7l5,3.3l8.5-2.5c19.8-5.7,30.2-12.8,47.7-32.9
			c12.4-14.2,19.1-20.3,27.1-24.4l4.2-2.2V217v-16.9l-4.2,0.1C743.3,200.3,739.7,200.7,737.6,201.2z"/>
	</g>
	<g id="layer-4">
		
			<linearGradient id="region-4-1_00000173870965535317109970000011715542926238545315_" gradientUnits="userSpaceOnUse" x1="375.9985" y1="499.997" x2="375.9985" y2="500.997" gradientTransform="matrix(750 0 0 299.3995 -281624 -149498.1406)">
			<stop  offset="0" style="stop-color:#9F0600;stop-opacity:0.093"/>
			<stop  offset="1" style="stop-color:#AB0200;stop-opacity:0.502"/>
		</linearGradient>
		<path id="region-4-1" style="fill:url(#region-4-1_00000173870965535317109970000011715542926238545315_);" d="M12.9,205.9
			l-1.2,5.9l-5.6,1.4l-5.7,1.5L0.1,357.4l-0.2,142.7h375h375v-99c0-89.3-0.2-99.6-1.7-105c-0.9-3.3-1.9-5.7-2.2-5.4
			c-0.3,0.3-1.6,4.7-2.8,9.7c-1.2,5.1-2.2,8-2.2,6.4c-0.2-4.6-1.7-3-3.2,3.4l-1.4,6l-9,3.8c-4.9,2.1-11.8,5.2-15.2,7
			c-5.7,2.8-6.3,2.9-6.3,1.3c0-3.5-1.5-3.4-2.5,0.3c-0.8,2.6-2.2,4.2-5.1,6l-4,2.4l-1.9-9c-1.1-4.9-2.2-8.9-2.5-8.9
			s-1.6,4.8-2.9,10.7c-1.3,6-2.7,11.5-3.2,12.4c-0.4,0.9-5.3,4.3-10.8,7.7l-10,6.1l-0.7-3.5c-0.8-4.2-1.5-3.7-2.9,1.9
			c-1,4-1.4,4.4-13.5,11.2c-6.9,3.9-18.1,10.1-25,13.7l-12.5,6.6l-12.4-5.2c-12.1-5-12.5-5.3-13.5-9c-1.1-3.7-2.6-4-2.6-0.4
			c0,4.1-1.7,1.4-2.9-4.7c-0.7-3.6-1.6-6.5-2-6.5c-0.5,0-1.3,2.5-2,5.5c-1.2,5.2-1.3,5.4-3.6,4.3c-1.6-0.7-2.7-2.5-3.5-5.7
			c-1.3-4.7-1.6-4.6-3.4,1.1c-1.1,3.7-3.4,0.5-5.1-7.3c-1.6-7.4-3.3-9.6-3.6-4.6c-0.1,1.2-0.6,0.3-1.2-2.1c-0.5-2.3-1.3-4.2-1.7-4.2
			c-0.3,0-1.2,2.9-1.9,6.5c-0.7,3.6-1.6,6.7-2,6.9c-1.5,0.9-5.6-2-5.9-4.2c-0.4-2.8-2.2-2.9-2.2-0.1c0,1.3-0.5,1.9-1.2,1.6
			c-0.7-0.3-5.7-2-11.1-3.9l-9.9-3.3l4.8-4.2c2.7-2.3,4.7-4.3,4.4-4.5c-0.3-0.2-8.4-2.3-18-4.7c-19.2-4.7-46.3-13.3-68.9-21.8
			c-21.6-8.1-51.1-20.4-51.1-21.4c0-0.4-0.8-0.7-1.7-0.7c-3.5,0.2-9.3-3-9.3-5.1c0-1.2-0.4-2.1-1-2.1c-0.5,0-1,0.4-1,1
			c0,1.9-2.9,0.9-25.6-9.1c-25.9-11.4-58.6-25.4-71.8-30.7c-9.2-3.6-12.1-5.6-12.9-8.9c-0.4-1.6-0.6-1.5-1.2,0.4
			c-0.4,1.3-1.1,2.3-1.5,2.3s-1.2-1-1.8-2.3c-0.9-1.8-1.1-1.9-1.1-0.4c-0.1,2.4-2.1,1.1-2.1-1.3c0-1-0.8-2.6-1.7-3.6
			c-1.6-1.6-1.8-1.5-2.6,1c-0.9,2.8-2.7,3.5-2.7,1.1c0-0.8-0.4-1.5-1-1.5c-0.5,0-1,0.4-1,0.8c0,0.4-8-1.9-17.9-5.1
			c-15.7-5.3-17.9-6.3-18.8-8.6c-1.1-2.6-1.1-2.6-1.2-0.2c-0.1,1.9-0.5,2.2-2.3,1.7c-1.3-0.3-2.6-0.6-3-0.6s-1-1.6-1.4-3.5
			c-0.3-1.9-1-3.3-1.4-3c-0.5,0.3-1.1-0.1-1.3-0.7c-0.3-0.7-0.8,0.2-1.2,1.9c-0.7,2.9-1,3.2-3.4,2.7c-1.4-0.4-3.1-1.3-3.8-2.1
			c-0.6-0.8-1.6-1.2-2.1-0.9s-1.3-0.9-1.7-2.7l-0.7-3.2l-1,3.1c-1,3.1-1.1,3.1-5,2.1c-2.2-0.5-4.2-1.7-4.5-2.6
			c-1.4-4.4-1.6-4.6-2.2-2.1c-0.8,3,0.3,3-15.3,0c-11.9-2.2-12.7-2.5-13.4-4.9c-0.6-2-0.8-2.2-1.1-0.9c-0.3,1-0.9,1.8-1.4,1.8
			s-0.9-0.8-0.9-1.8c-0.1-1.5-0.2-1.4-1.3,0.3c-1.5,2.6-4.3,2.1-5.1-0.8c-0.7-2.2-0.7-2.2-1.5-0.1c-0.9,2-1.1,2-12.7,0.6
			c-22.1-2.6-74.4-1.7-85.6,1.4c-1.1,0.3-1.9-0.3-2.4-1.8l-0.7-2.3l-0.8,2.3c-1,2.6-2.9,2.9-2.9,0.4c-0.1-1.5-0.2-1.4-1.2,0.3
			c-0.6,1.1-1.2,2.1-1.3,2.3c-0.2,0.2-1.5,0.5-3,0.8s-3.3,0.6-3.9,0.7c-0.6,0.1-1.2-0.8-1.4-2c-0.2-1.4-0.8-2-1.8-1.6
			c-1,0.4-1.4-0.2-1.4-2C15.9,198.8,14,200.1,12.9,205.9z"/>
		
			<linearGradient id="region-4-2_00000142166501132038212350000003293909602114411959_" gradientUnits="userSpaceOnUse" x1="374.6173" y1="499.8716" x2="375.2553" y2="501.0717" gradientTransform="matrix(233.1392 0 0 151.8 -86767.5469 -75665)">
			<stop  offset="0" style="stop-color:#A3546A;stop-opacity:0.542"/>
			<stop  offset="1" style="stop-color:#CF3B16;stop-opacity:0.894"/>
		</linearGradient>
		<path id="region-4-2" style="fill:url(#region-4-2_00000142166501132038212350000003293909602114411959_);" d="M745.4,236.2
			c-7.8,4.1-14.6,10.3-26.8,24.3c-6.9,7.8-15.3,16.4-18.7,18.9c-15.6,11.7-33.8,17.2-74.5,22.2c-48.3,5.9-65.5,13.1-100.9,42.4
			l-7.8,6.5l10.8,3.7c6,2.1,11,3.8,11.2,3.9c0.1,0,0.2-0.9,0.2-2c0-2.7,1.8-2.5,2.2,0.2c0.3,2.2,4.4,5.1,5.9,4.2
			c0.4-0.2,1.3-3.3,2-6.9c0.7-3.6,1.6-6.5,1.9-6.5c0.4,0,1.2,1.9,1.7,4.2c0.6,2.4,1.1,3.3,1.2,2.1c0.3-5,2-2.8,3.6,4.6
			c1.7,7.8,4,11,5.1,7.3c1.8-5.7,2.1-5.8,3.4-1.1c0.8,3.2,1.9,5,3.5,5.7c2.3,1.1,2.4,0.9,3.6-4.3c0.7-3,1.5-5.5,2-5.5
			c0.4,0,1.3,2.9,2,6.5c1.2,6.1,2.9,8.8,2.9,4.7c0-3.6,1.5-3.3,2.6,0.4c1,3.7,1.4,4,13.5,9l12.4,5.2l12.5-6.6
			c6.9-3.6,18.1-9.8,25-13.7c12.1-6.8,12.5-7.2,13.5-11.2c1.4-5.6,2.1-6.1,2.9-1.9l0.7,3.5l10-6.1c5.5-3.4,10.4-6.8,10.8-7.7
			c0.5-0.9,1.9-6.4,3.2-12.4c1.3-5.9,2.6-10.7,2.9-10.7s1.4,4,2.5,8.9l1.9,9l4-2.4c2.9-1.8,4.3-3.4,5.1-6c1-3.7,2.5-3.8,2.5-0.3
			c0,1.6,0.6,1.5,6.3-1.3c3.4-1.8,10.3-4.9,15.2-7l9-3.8l1.4-6c1.5-6.4,3-8,3.2-3.4c0,1.6,1.1-1.5,2.4-6.7c1.3-5.2,2.4-9.7,2.5-10
			c0.1-0.3,1,2,2,5l1.8,5.5l0.1-33.3c0.1-18.2,0-33.2-0.2-33.2C749.5,234.1,747.6,235,745.4,236.2z"/>
	</g>
	<g id="layer-5">
		
			<linearGradient id="region-5-1_00000030473443650392248490000014760029834743778214_" gradientUnits="userSpaceOnUse" x1="375.9985" y1="499.9963" x2="375.9985" y2="500.9963" gradientTransform="matrix(750 0 0 245.3 -281624 -122394.3047)">
			<stop  offset="0" style="stop-color:#FFEAC9;stop-opacity:0.285"/>
			<stop  offset="1" style="stop-color:#FFF3CB;stop-opacity:0.034"/>
		</linearGradient>
		<path id="region-5-1" style="fill:url(#region-5-1_00000030473443650392248490000014760029834743778214_);" d="M-0.1,377.5v122.6
			h375h375v-99c0-89.3-0.2-99.6-1.7-105c-0.9-3.3-1.9-5.7-2.2-5.4c-0.3,0.3-1.6,4.7-2.8,9.7c-1.2,5.1-2.2,8-2.2,6.4
			c-0.2-4.6-1.7-3-3.2,3.4l-1.4,6l-9,3.8c-4.9,2.1-11.8,5.2-15.2,7c-5.7,2.8-6.3,2.9-6.3,1.3c0-3.5-1.5-3.4-2.5,0.3
			c-0.8,2.6-2.2,4.2-5.1,6l-4,2.4l-1.9-9c-1.1-4.9-2.2-8.9-2.5-8.9s-1.6,4.8-2.9,10.7c-1.3,6-2.7,11.5-3.2,12.4
			c-0.4,0.9-5.3,4.3-10.8,7.7l-10,6.1l-0.7-3.5c-0.8-4.2-1.5-3.7-2.9,1.9c-1,4-1.4,4.4-13.5,11.2c-6.9,3.9-18.1,10.1-25,13.7
			l-12.5,6.6l-12.4-5.2c-12.1-5-12.5-5.3-13.5-9c-1.1-3.7-2.6-4-2.6-0.4c0,4.1-1.7,1.4-2.9-4.7c-0.7-3.6-1.6-6.5-2-6.5
			c-0.5,0-1.3,2.5-2,5.5c-1.2,5.2-1.3,5.4-3.6,4.3c-1.6-0.7-2.7-2.5-3.5-5.7c-1.3-4.7-1.6-4.6-3.4,1.1c-1.1,3.7-3.4,0.5-5.1-7.3
			c-1.6-7.4-3.3-9.6-3.6-4.6c-0.1,1.2-0.6,0.3-1.2-2.1c-0.5-2.3-1.3-4.2-1.7-4.2c-0.3,0-1.2,2.9-1.9,6.5c-0.7,3.6-1.6,6.7-2,6.9
			c-1.5,0.9-5.6-2-5.9-4.2c-0.4-2.8-2.2-2.9-2.2-0.1c0,1.3-0.5,1.9-1.2,1.6c-0.7-0.3-8.8-3.1-18-6.2c-18.4-6.1-39-11.6-51.1-13.6
			c-7-1.2-7.8-1.6-8.4-3.8l-0.6-2.5l-0.9,2.3c-0.7,2.1-1.3,2.3-4.6,1.7c-2-0.3-5.4-0.6-7.4-0.6c-3.6,0-3.7-0.1-4.9-5.5
			c-1.2-5.4-2.9-8.3-2.9-5.1c0,0.9-0.4,1.6-1,1.6c-0.5,0-1-0.8-1-1.8c0-0.9-0.4-2.3-0.9-3c-0.6-0.9-1.4,0.9-2.6,5.7l-1.7,7.1h-7.8
			h-7.8l-0.6-4.5c-0.9-5.9-2.3-6.5-3.1-1.4c-0.9,5.4-1.8,3.8-4.1-6.8c-0.9-4.5-2-8.3-2.4-8.3c-0.5,0-1.3,2.8-2,6.3l-1.3,6.3
			l-5.1-0.9c-6.4-1.2-14.3,0.8-20.2,5.1l-3.9,2.9l-5-3.3c-5.5-3.7-14.6-6.4-21.2-6.4c-9.6,0-22,4.3-27.7,9.6
			c-2.3,2.2-3.2,2.5-4.5,1.5c-5.5-4-12.6-5.2-16.9-2.8c-2.1,1.2-2.8,0.8-10.1-6.4c-12.6-12.4-24.4-17.2-42.6-17.2
			c-11.3,0-19.7,1.8-29.3,6.3c-5.2,2.4-6.4,2.7-6.9,1.4c-0.3-0.8-2.6-2.6-5.1-4.1c-5.4-3.2-14.8-3.7-19.9-1.1l-3.2,1.6l-3.2-4.9
			c-3.6-5.6-11.7-13.2-16.8-15.9c-9.8-4.9-26.5-6.6-36.4-3.6l-4.6,1.4l-2.5-3.8c-4.2-6.3-11.9-11-18.2-11c-1.3,0-4.2-1.3-6.6-2.9
			c-7.6-5-13.3-6.6-23.8-6.6c-6.4,0-11.5,0.6-15.5,1.8l-6,1.9l-7.5-4c-10.2-5.5-19.7-8.2-30.7-8.9l-9.3-0.6V377.5z"/>
		
			<linearGradient id="region-5-2_00000129883845171170119950000013270180904981193387_" gradientUnits="userSpaceOnUse" x1="369.8763" y1="499.9864" x2="369.8763" y2="500.9864" gradientTransform="matrix(56.7812 0 0 66 -20280.4941 -32728)">
			<stop  offset="0" style="stop-color:#FFFFE2;stop-opacity:0.46"/>
			<stop  offset="1" style="stop-color:#FFFFDB;stop-opacity:0.326"/>
		</linearGradient>
		<path id="region-5-2" style="fill:url(#region-5-2_00000129883845171170119950000013270180904981193387_);" d="M734,274.2
			c-10.6,5.3-16.8,15.5-19.2,31.2c-0.5,3.9-1.2,8.7-1.5,10.4c-0.5,3.1-0.7,3.3-4.5,3.3c-5.1,0-9.7,2-13.2,5.8
			c-2.6,2.7-2.8,3.4-2.2,7.6l0.7,4.6l4.1-2.5c3-1.8,4.4-3.4,5.2-6c1-3.7,2.5-3.8,2.5-0.3c0,1.6,0.6,1.5,6.3-1.3
			c3.4-1.8,10.3-4.9,15.2-7l9-3.8l1.4-6c1.5-6.4,3-8,3.2-3.4c0,1.6,1.1-1.5,2.4-6.7c1.3-5.2,2.4-9.7,2.5-10c0.1-0.3,1,2,2,5l1.8,5.5
			l0.1-14.8l0.1-14.7h-4.8C741.6,271.1,738.4,272,734,274.2z"/>
		
			<linearGradient id="region-5-3_00000111877323480012335190000005260368087429596072_" gradientUnits="userSpaceOnUse" x1="370.7003" y1="499.8961" x2="371.3717" y2="501.0355" gradientTransform="matrix(69.0393 0 0 53.7129 -24965.0605 -26528.0645)">
			<stop  offset="0" style="stop-color:#F7F8B2;stop-opacity:0.221"/>
			<stop  offset="1" style="stop-color:#FFFFB5;stop-opacity:0.159"/>
		</linearGradient>
		<path id="region-5-3" style="fill:url(#region-5-3_00000111877323480012335190000005260368087429596072_);" d="M672.1,328.3
			c-4.2,1.4-12,8.3-12.8,11.2c-0.5,2.1-1.3,2.4-8.4,2.9c-19,1.3-31.6,13.3-32.8,31.3l-0.5,7.5l7.9-4.3c4.4-2.3,13.5-7.4,20.4-11.3
			c12.1-6.8,12.5-7.2,13.5-11.2c1.4-5.6,2.1-6.1,2.9-1.9l0.7,3.5l10-6.1c5.5-3.4,10.4-6.8,10.8-7.7c1.3-2.4,3.4-13.2,2.7-13.8
			C685.4,327.2,675.4,327.2,672.1,328.3z"/>
	</g>
	<g id="layer-6">
		
			<linearGradient id="region-6-1_00000139266812775459611550000003203169343027224485_" gradientUnits="userSpaceOnUse" x1="375.9985" y1="499.9961" x2="375.9985" y2="500.9961" gradientTransform="matrix(750 0 0 229.8505 -281624 -114654.1094)">
			<stop  offset="0" style="stop-color:#740329;stop-opacity:0.755"/>
			<stop  offset="1" style="stop-color:#CF5950;stop-opacity:0.802"/>
		</linearGradient>
		<path id="region-6-1" style="fill:url(#region-6-1_00000139266812775459611550000003203169343027224485_);" d="M13.5,271.2
			c-0.2,0.8-1.7,6.8-3.3,13.3c-2.8,11.9-2.8,12-6.3,13.1l-3.5,1.2L0.1,399.4l-0.2,100.7h375h375v-99c0-89.3-0.2-99.6-1.7-105
			c-0.9-3.3-1.9-5.7-2.2-5.4c-0.3,0.3-1.6,4.7-2.8,9.7c-1.2,5.1-2.2,8-2.2,6.4c-0.2-4.6-1.7-3-3.2,3.4l-1.4,6l-9,3.8
			c-4.9,2.1-11.8,5.2-15.2,7c-5.7,2.8-6.3,2.9-6.3,1.3c0-3.5-1.5-3.4-2.5,0.3c-0.8,2.6-2.2,4.2-5.1,6l-4,2.4l-1.9-9
			c-1.1-4.9-2.2-8.9-2.5-8.9s-1.6,4.8-2.9,10.7c-1.3,6-2.7,11.5-3.2,12.4c-0.4,0.9-5.3,4.3-10.8,7.7l-10,6.1l-0.7-3.5
			c-0.8-4.2-1.5-3.7-2.9,1.9c-1,4-1.4,4.4-13.5,11.2c-6.9,3.9-18.1,10.1-25,13.7l-12.5,6.6l-12.4-5.2c-12.1-5-12.5-5.3-13.5-9
			c-1.1-3.7-2.6-4-2.6-0.4c0,4.1-1.7,1.4-2.9-4.7c-0.7-3.6-1.6-6.5-2-6.5c-0.5,0-1.3,2.5-2,5.5c-1.2,5.2-1.3,5.4-3.6,4.3
			c-1.6-0.7-2.7-2.5-3.5-5.7c-1.3-4.7-1.6-4.6-3.4,1.1c-1.1,3.7-3.4,0.5-5.1-7.3c-1.6-7.4-3.3-9.6-3.6-4.6c-0.1,1.2-0.6,0.3-1.2-2.1
			c-0.5-2.3-1.3-4.2-1.7-4.2c-0.3,0-1.2,2.9-1.9,6.5c-0.7,3.6-1.6,6.7-2,6.9c-1.5,0.9-5.6-2-5.9-4.2c-0.4-2.8-2.2-2.9-2.2-0.1
			c0,1.3-0.5,1.9-1.2,1.6c-0.7-0.3-8.8-3.1-18-6.2c-18.4-6.1-39-11.6-51.1-13.6c-7-1.2-7.8-1.6-8.4-3.8l-0.6-2.5l-0.9,2.3
			c-0.7,2.1-1.3,2.3-4.6,1.7c-2-0.3-5.4-0.6-7.4-0.6c-3.6,0-3.7-0.1-4.9-5.5c-1.2-5.4-2.9-8.3-2.9-5.1c0,0.9-0.4,1.6-1,1.6
			c-0.5,0-1-0.8-1-1.8c0-0.9-0.4-2.3-0.9-3c-0.6-0.9-1.4,0.9-2.6,5.7l-1.7,7.1h-7.8h-7.8l-0.6-4.5c-0.9-5.9-2.3-6.5-3.1-1.4
			c-0.9,5.4-1.8,3.8-4.1-6.8c-0.9-4.5-2-8.3-2.4-8.3s-1.5,3.6-2.5,8.1c-3,14.1-3.3,14.9-6,14.9c-1.8,0-2.6-0.7-3.1-2.5
			c-0.8-3.3-2.2-3.2-2.6,0.2c-0.3,2.6-0.7,2.8-13.3,5.4c-7.1,1.4-25.1,5.7-40,9.3c-54.7,13.6-77.4,16.8-103.9,14.5
			c-14.1-1.2-16.6-1.9-16.6-4.9c0-2.8-1.8-3.4-2.2-0.8c-0.2,1.8-0.9,2.3-3.1,2.1c-4.8-0.3-16.8-4.5-17.6-6.2
			c-0.4-0.9-1.4-4.4-2.1-7.8c-1.4-6.7-2.3-7.3-3.5-2.1c-0.6,2.8-0.8,3-1.4,1.4c-0.7-1.8-0.8-1.8-1.4-0.2c-0.4,1-0.7,2.6-0.7,3.7
			c0,1-0.3,1.9-0.7,1.9c-1.3,0-19.6-10.2-33.5-18.7c-20.6-12.5-42.1-24.8-47.3-27c-2.8-1.1-4.5-2.4-4.5-3.5c0-0.9-0.4-2-1-2.3
			c-0.5-0.3-1,0.1-1,0.9c0,0.9-0.1,1.6-0.3,1.6c-1.6,0-17.4-6.4-17.9-7.3c-0.4-0.7-0.8-2.2-0.8-3.5c0-3.3-1.7-2.7-2.4,0.9
			c-0.5,2.4-1,3-2.3,2.5c-0.9-0.4-3.6-1-5.9-1.3c-3.7-0.5-4.3-0.9-4.8-3.5c-0.3-1.6-1-2.7-1.5-2.4s-1.4-1.7-2.1-4.4
			c-0.7-2.7-1.5-4.8-2-4.5c-0.4,0.2-1.3,3.2-2,6.5c-1,4.6-1.7,6-3.1,6c-1.8,0-2.2-0.9-3.4-6.8c-0.9-4.6-2.1-4-3.1,1.5
			c-0.9,4.5-1.1,4.8-4.2,5.1c-1.8,0.2-4-0.2-4.8-0.9c-1.1-0.9-1.4-0.8-1.4,0.5c0,1.1-0.9,1.6-3.2,1.6c-1.8,0-4.3,0.3-5.5,0.6
			c-1.9,0.5-2.2,0-3.4-5c-0.6-3-1.5-5.3-1.9-5.1c-0.4,0.3-1.1,2.4-1.5,4.7l-0.7,4.3l-2.4-9.9C14.8,270.3,14.2,268.9,13.5,271.2z"/>
	</g>
	<g id="layer-7">
		
			<linearGradient id="region-7-1_00000039831008981707426510000003602890448974213541_" gradientUnits="userSpaceOnUse" x1="375.9813" y1="499.9808" x2="376.0173" y2="501.1483" gradientTransform="matrix(750 0 0 210.0244 -281624 -104721.2344)">
			<stop  offset="0" style="stop-color:#180A14;stop-opacity:0.776"/>
			<stop  offset="1" style="stop-color:#37001C;stop-opacity:0.672"/>
		</linearGradient>
		<path id="region-7-1" style="fill:url(#region-7-1_00000039831008981707426510000003602890448974213541_);" d="M745.9,290.1
			c-0.1,0.3-1.2,4.8-2.5,10c-1.3,5.2-2.4,8.3-2.4,6.7c-0.2-4.6-1.7-3-3.2,3.4l-1.4,6l-9,3.8c-4.9,2.1-11.8,5.2-15.2,7
			c-5.7,2.8-6.3,2.9-6.3,1.3c0-3.5-1.5-3.4-2.5,0.3c-0.8,2.6-2.2,4.2-5.1,6l-4,2.4l-1.9-9c-1.1-4.9-2.2-8.9-2.5-8.9
			s-1.6,4.8-2.9,10.7c-1.3,6-2.7,11.5-3.2,12.4c-0.4,0.9-5.3,4.3-10.8,7.7l-10,6.1l-0.7-3.5c-0.8-4.2-1.5-3.7-2.9,1.9
			c-1,4.1-1.4,4.4-15.5,12.4c-40.5,23.1-123.1,61.3-125.2,58.1c-0.4-0.7-0.8-2-0.8-2.9c0-3.6-1.6-2.7-3,1.8
			c-0.8,2.6-1.9,4.8-2.4,4.8c-0.5,0-1.9-4.1-3-9.2c-2.3-9.9-3.2-11.8-4.1-8.2c-0.3,1.3-1.5,6.9-2.8,12.3l-2.3,9.9l-14.9,5.4
			c-38.9,13.9-58.1,18.6-77,18.7c-14.9,0-21.8-1.4-33.2-7.1l-7.1-3.6l-2.2-9.6c-2.9-12.9-4-17.1-4.5-17.1c-0.2,0-1.3,4.3-2.5,9.5
			l-2.2,9.4l-2.4-1.5c-1.3-0.9-2.4-2.5-2.4-3.5s-0.4-2.1-1-2.4c-0.5-0.3-1,0.1-1,0.9c0,2-1,2-3.6,0.2c-1.1-0.8-4.8-2.4-8.2-3.5
			c-8.3-2.8-17.7-2.7-31.4,0.4c-18.2,4.1-23.2,4.7-30.1,3.5c-10.1-1.8-20.7-7.9-48.7-27.9c-36.4-26.1-53.7-36.6-69.2-42.3
			c-5.2-1.8-5.8-2.4-6.4-5.4c-0.8-4.5-2.1-5.1-2.9-1.4c-0.5,2.3-1.1,2.9-2.3,2.6c-5.5-1.6-14.4-3.5-18.7-4.1
			c-9.8-1.2-9-0.5-11.5-11.5c-1.3-5.5-2.6-9.8-2.9-9.4c-0.3,0.3-1.3,3.6-2.2,7.2c-1.1,4.5-1.8,6.1-2.2,4.9c-0.4-0.9-1-2.5-1.4-3.5
			c-0.4-1.1-1.1,0.4-2.1,4.6c-1.3,5.4-1.9,6.2-3.6,6c-1.7-0.3-2.4-2-4.5-11.1c-1.3-5.9-2.7-10.7-3.1-10.7c-0.3,0-1.6,4.6-2.9,10.2
			c-1.2,5.7-2.4,11.1-2.7,12c-0.3,1-2.2,2.2-4.7,2.8c-16.3,4.1-40.8,14.4-59.1,24.8c-6,3.5-11.3,5.9-11.7,5.5
			c-0.3-0.5-1.9-6.4-3.4-13.3c-1.5-6.8-3.1-13.3-3.5-14.5c-0.9-2.4-0.8-2.6-4.4,9.6l-2.6,8.5v61.7v61.7h375h375v-99.3
			c0-94.6-0.1-99.5-1.9-105.2C746.9,292.3,746,289.8,745.9,290.1z"/>
		
			<linearGradient id="region-7-2_00000000191133434368924460000003792293233699723401_" gradientUnits="userSpaceOnUse" x1="374.8463" y1="499.9879" x2="374.8463" y2="500.9879" gradientTransform="matrix(227.4359 0 0 74.3008 -84758.8438 -36766.3008)">
			<stop  offset="0" style="stop-color:#B95651;stop-opacity:0.735"/>
			<stop  offset="1" style="stop-color:#C45A4E;stop-opacity:0.798"/>
		</linearGradient>
		<path id="region-7-2" style="fill:url(#region-7-2_00000000191133434368924460000003792293233699723401_);" d="M590.9,384.2
			c-7.9,2.2-18.3,8.3-21.3,12.6c-2.6,3.7-3.3,4.1-5,3.1c-1.3-0.6-5.3-0.9-10.5-0.5c-6.5,0.4-9.6,1.1-14.3,3.4l-5.9,2.9l-2.7-2.8
			c-9.7-10.2-27.6-10.5-38.7-0.7c-2.5,2.2-5.1,5.5-5.7,7.4c-0.7,1.9-1.6,3.2-2.1,2.9c-2-1.3-8.2,1.1-11.6,4.4l-3.7,3.6l-8.2-0.3
			c-11.3-0.4-18.1,1.7-23.9,7.4c-2.9,3-4.8,5.9-5.6,9c-1,3.5-1.6,4.4-2.8,3.8c-0.8-0.4-4.4-0.9-8-1c-7.5-0.4-11.9,1.6-14.8,6.7
			c-1.3,2.3-2.1,2.8-3.7,2.2c-4.4-1.6-13.9-0.7-18.3,1.8c-4.9,2.7-4.6,3,4.8,5.6c9.4,2.6,29.2,2.4,42.5-0.5
			c12.1-2.6,33.8-9.2,54-16.4l14.9-5.4l2.3-9.9c1.3-5.4,2.5-11,2.8-12.3c0.9-3.6,1.8-1.8,4,7.9c1.1,4.9,2.5,9,3,9.2
			c0.6,0.2,1.7-1.9,2.5-4.5c1.4-4.5,3-5.4,3-1.8c0.1,4.3,1.4,4.2,14.9-1.4c20.5-8.5,34.9-14.9,56.1-25.2l19.5-9.4l-3.4-1.5
			C601.3,382.9,596.1,382.8,590.9,384.2z"/>
	</g>
	<g id="layer-8">
		
			<linearGradient id="region-8-1_00000129884289287000933130000017481846092705782163_" gradientUnits="userSpaceOnUse" x1="375.9895" y1="499.988" x2="376.0031" y2="501.13" gradientTransform="matrix(750 0 0 142.6603 -281624 -70971.7969)">
			<stop  offset="0" style="stop-color:#200715;stop-opacity:0.693"/>
			<stop  offset="1" style="stop-color:#1C0713;stop-opacity:0.8"/>
		</linearGradient>
		<path id="region-8-1" style="fill:url(#region-8-1_00000129884289287000933130000017481846092705782163_);" d="M5.6,358.1
			c-0.4,0.8-1.7,5.3-3.1,10.1l-2.6,8.5v61.7v61.7h375h375v-35.3v-35.2l-6-19.9c-3.2-10.9-6.1-20.1-6.4-20.4
			c-0.8-0.7-1.1,0.2-7.1,27.3c-3.1,13.7-5.9,26-6.2,27.3c-0.5,2-1.2,1.1-5.3-5.9c-2.6-4.6-5.1-8.4-5.6-8.6c-0.5-0.1-2.2,4-3.8,9.2
			c-1.6,5.2-3.2,9.5-3.6,9.5c-0.4,0-1.8-2.4-3-5.2l-2.3-5.3l-3,9.7c-1.7,5.4-3.3,9.8-3.6,9.8c-0.3,0-2.1-6.9-4-15.3
			c-1.9-8.3-3.7-15.7-4-16.2c-0.3-0.6-1.3,3.3-2.2,8.5l-1.6,9.5l-1-4c-0.6-2.2-2.1-8.4-3.4-13.9c-1.3-5.7-2.5-9.2-2.9-8.5
			c-0.4,0.8-2,9.9-3.6,20.3l-2.8,18.9l-1.4-5.4c-0.7-3-1.7-5.8-2.1-6.2c-0.5-0.4-1.4,1.9-2.1,5.2c-0.7,3.4-1.8,6.7-2.4,7.5
			c-0.8,1-4.9,1.5-14.8,2l-13.6,0.6l-2.8-8.3l-2.7-8.2l-1.3,3c-0.7,1.6-1.3,3.9-1.4,5c-0.1,3.2-1.4,0.1-3.5-8.2
			c-1.1-4-2.2-7.3-2.5-7.3c-0.4,0-1.2,3.9-1.9,8.7c-1.8,12.7-2.1,13.6-3.6,9.3c-0.6-1.9-1.6-3.4-2.1-3.3c-0.5,0.1-1.6,2.7-2.4,5.8
			l-1.4,5.6l-5-0.3c-4.8-0.3-5-0.4-6-4.3c-1.3-4.4-2-4-3,1.7c-0.5,2.7-1.2,3.8-2.5,3.8c-1.4,0-2.1-1.7-3.6-8.8
			c-1-4.8-2.1-9.1-2.5-9.5c-0.4-0.5-1.6,3.6-2.6,9l-2,9.8l-4.6,0.5l-4.6,0.6l-1.1-3.8c-1.5-4.7-2.7-4.8-3.5-0.3
			c-0.4,1.9-1.1,3.7-1.6,4c-0.4,0.3-8.2,1.2-17.2,2c-9,0.8-18.1,1.7-20.4,2l-4,0.6l-2.4-7.6c-1.3-4.2-2.7-7.8-3.1-8
			c-0.3-0.3-1.4,2.6-2.4,6.2l-1.8,6.7l-3.1-8.1c-1.7-4.5-3.4-8.4-3.8-8.8c-0.4-0.4-2.1,4-3.8,9.7c-3.3,10.6-4.7,12.8-8.7,12.8
			c-2.3,0-3.1-1.9-4.9-10.8c-0.9-4.4-1.5-3.4-2.8,4.5c-0.6,3.8-1.6,6.7-2.1,6.6c-0.6,0-2.1-5.1-3.5-11.1c-1.4-6.1-2.8-11.3-3.1-11.7
			c-0.7-0.7-1.2,1.7-3,14.5c-0.7,4.7-1.5,8.9-1.9,9.3c-0.6,0.7-28.1,4.6-32.3,4.7c-0.5,0-2.2-3.1-3.9-7c-1.7-3.8-3.4-7-3.8-7
			c-0.3,0-1.2,2.3-1.9,5c-1.5,5.7-2.6,6.4-3.6,2c-0.9-4-2.2-3-3,2.4c-0.4,2.3-1,4.9-1.5,5.6c-0.8,1.4-39.9,7.2-41.2,6.1
			c-0.3-0.3-2.1-6.2-3.9-13.1c-1.8-6.9-3.4-12.7-3.6-12.9c-0.7-0.9-1.3,1-4.4,14.6l-3.2,14.1l-3.4,0.7c-4.2,0.8-4.9,0.3-5.8-3.7
			l-0.7-3.3l-1.3,4c-1.2,4.2-1,4-11.7,5.9l-3.7,0.7l-4.6-14.8c-2.5-8.1-4.9-15.6-5.1-16.6c-0.3-0.9-0.8-1.7-1.2-1.7
			s-2.9,6.1-5.7,13.4c-2.7,7.4-5.3,12.9-5.6,12.3c-0.3-0.7-1.6-5-2.9-9.7c-1.2-4.7-2.5-8.8-2.9-9.3c-0.4-0.4-2.6,5.5-5,13.1
			l-4.3,13.9l-11.5-1.8c-6.3-1-11.7-1.9-11.8-2.1c-0.2-0.2-2.2-6.3-4.5-13.7c-2.3-7.3-4.5-12.9-5-12.5c-0.4,0.5-2.5,6.1-4.5,12.4
			l-3.8,11.5l-3.8-0.3c-4.5-0.5-3.8,1.5-8.4-22.2c-3.8-19.3-4.3-21.5-4.9-20.9c-0.3,0.2-2.3,8.7-4.6,18.9s-4.5,19.1-4.9,19.8
			c-0.4,0.7-1.8-4-3.1-10.5c-1.2-6.5-2.6-12.4-3-13.2c-0.5-0.9-1.9,3.3-3.6,10.7c-3,13.3-2.8,13.1-10.1,11.6
			c-2.8-0.6-3.2-1.2-5.2-8.2c-5.3-18.3-6.2-21.2-7-20.8c-0.4,0.3-1.6,3.3-2.6,6.6c-1.1,3.7-2.1,5.6-2.5,4.8
			c-0.4-0.7-1.8-8.4-3.1-17.1c-1.3-8.6-2.6-15.7-2.9-15.7c-0.4,0-2.4,6.4-4.5,14.2l-3.9,14.3l-2-7.8c-1.2-4.2-2.3-7.7-2.7-7.7
			c-0.4,0-3.1,7-6,15.5c-5,14.5-5.5,15.5-7.9,15.5c-6.9,0-36.6-3.5-37.6-4.4c-0.6-0.6-2.1-5.2-3.3-10.1c-4.8-19.5-4.7-19.5-7.6-8
			c-1,3.8-2.1,7.3-2.5,7.8c-0.3,0.4-1.3-3.9-2.2-9.5c-0.9-5.7-3.1-19.4-4.9-30.6c-1.8-11.1-3.5-20-3.8-19.6
			c-0.3,0.3-2.9,10.9-5.6,23.6l-5,23L89,430.2c-1.3-8.9-2.7-16.1-3.1-16.1s-3.3,11.7-6.6,25.9c-3.2,14.3-6,25.9-6.1,25.7
			c-0.1-0.1-2.3-6.9-4.9-15.2c-2.5-8.2-4.9-15.3-5.3-15.7c-0.5-0.4-2.3,2.7-4.1,7c-1.8,4.3-3.6,8.1-4,8.6c-0.3,0.4-3-6.7-5.9-15.8
			c-2.9-9.1-5.4-16.5-5.6-16.5c-0.2,0-3.8,6.1-8.1,13.6c-4.2,7.4-8,13.1-8.4,12.7c-0.4-0.4-4.9-19.5-10-42.3
			C7.1,358.2,6.5,355.6,5.6,358.1z"/>
	</g>
</g>
<g id="图层_2">
	<g id="layer-1_00000114774819939910062470000001141339175770515616_">
		
			<linearGradient id="region-1-1_00000178916038142856139830000006434719441874266270_" gradientUnits="userSpaceOnUse" x1="376.998" y1="499.997" x2="376.998" y2="500.997" gradientTransform="matrix(750 0 0 500 -281624 -249999)">
			<stop  offset="0" style="stop-color:#FECC7F"/>
			<stop  offset="1" style="stop-color:#FFFFFF"/>
		</linearGradient>
		
			<path id="region-1-1_00000121998296719291188300000014024939453748191910_" style="fill:url(#region-1-1_00000178916038142856139830000006434719441874266270_);" d="
			M749.5,249.5v250h375h375v-250v-250h-375h-375V249.5z"/>
	</g>
	<g id="layer-2_00000121978682036944715930000012932926007331592346_">
		
			<linearGradient id="region-2-1_00000178883135385653900850000012347373138068937890_" gradientUnits="userSpaceOnUse" x1="379.261" y1="499.9387" x2="379.4298" y2="501.3169" gradientTransform="matrix(398.5 0 0 136.5157 -149108.5 -68192.7656)">
			<stop  offset="0" style="stop-color:#FFF4E5;stop-opacity:0.87"/>
			<stop  offset="1" style="stop-color:#FFE3B9;stop-opacity:0.649"/>
		</linearGradient>
		
			<path id="region-2-1_00000120525634672187876960000013126540496992886716_" style="fill:url(#region-2-1_00000178883135385653900850000012347373138068937890_);" d="
			M2242,65.9c-10.1,3.2-22.2,12.2-26.6,19.7c-1.4,2.4-2.7,4.4-2.9,4.4c-0.1,0-2-0.7-4.1-1.6c-9.5-4-22.6-3.5-32,1.1
			c-7.8,3.8-17.2,12.8-20.4,19.6l-2.6,5.6l-3.6-1.3c-13.7-4.7-32.7-0.5-42.6,9.4c-3.5,3.5-3.9,3.6-6.2,2.4c-1.4-0.7-5.1-1.2-8.5-1
			c-5.2,0.2-6.6-0.2-10.9-3c-7.6-4.9-13.9-6.7-23.6-6.7c-10.6,0.1-15.2,1.4-23.2,6.8c-7.4,5-13,12-15.9,19.9c-1.9,5-2.4,5.6-4,4.8
			c-5.5-3-17.9,0.2-21.4,5.6c-1.3,2-1.8,2.2-5.2,1.2c-5-1.4-12.7-0.4-17,2.2l-3.5,2l-3.6-3.1c-2-1.8-6.1-4.4-9.2-5.8
			c-4.8-2.3-6.8-2.6-15.5-2.6c-9,0-10.6,0.3-15.8,2.8c-7.5,3.7-14.8,11.1-18.4,18.6c-2.7,5.8-2.9,6-6,5.4c-4-0.6-9.9,1.2-11.7,3.8
			c-1.3,1.9-1.4,1.9-5.7-0.1c-6.7-3-17.8-2.8-24.9,0.6l-5.5,2.6l3.3,1.5c11.7,4.9,30,7.1,45.7,5.5c21.2-2.2,40.3-8.1,81.5-25
			c40.4-16.6,52.5-19.7,75-18.9c23.5,0.8,34.4,5.1,74,28.9c32,19.2,43.7,24.8,59.4,28.3c10.1,2.3,15.6,1.4,39.4-6.1
			c9.7-3.1,18.3-5.8,19-6c0.9-0.3,1.2-13.5,1.2-61.9c0-48.6-0.3-61.5-1.2-61.4C2248.1,64.1,2245,64.9,2242,65.9z"/>
		
			<linearGradient id="region-2-2_00000099644568439647302610000003929290994275901870_" gradientUnits="userSpaceOnUse" x1="381.1854" y1="501.0211" x2="382.0988" y2="499.8677" gradientTransform="matrix(218.4381 0 0 96.4253 -81756.7188 -48142.6602)">
			<stop  offset="0" style="stop-color:#FFD8A5;stop-opacity:0.696"/>
			<stop  offset="1" style="stop-color:#FEFFFF;stop-opacity:0.879"/>
		</linearGradient>
		
			<path id="region-2-2_00000105400300511427405880000007646388037742913925_" style="fill:url(#region-2-2_00000099644568439647302610000003929290994275901870_);" d="
			M1500,117.6c0,38.5,0.3,48.4,1.2,47.8c0.7-0.5,6-4,11.8-7.9c45.9-31.2,72-37.3,110-25.9c4.7,1.4,16.2,5.5,25.5,9.1
			c21.8,8.3,33,11.9,42.8,13.8c8.6,1.6,26.3,2,27.1,0.6c0.3-0.5-1.2-2.9-3.5-5.4c-6.8-7.9-19.7-12.4-32-11.4
			c-6.7,0.6-6.9,0.5-6.9-1.7c0-5.1-7.9-10.6-13.3-9.2c-1.9,0.4-2.6-0.2-4.6-4c-3.1-5.7-8.9-10.9-16-14.3c-4.9-2.3-6.8-2.6-15.1-2.5
			c-9.6,0-15,1.6-20.4,5.7c-1.8,1.3-2.2,1.2-3.9-0.9c-1-1.3-3.7-2.9-6-3.6c-2.7-0.7-5.8-2.9-8.7-5.8c-7-7.1-12.6-9.4-24.2-9.8
			c-8-0.3-10.4,0-14.2,1.7l-4.7,2l-4.4-3.1c-3.7-2.6-5.8-3.3-10.9-3.6c-5.6-0.4-6.5-0.7-7.5-2.8c-2.7-6-16.4-17.4-20.8-17.4
			C1500.3,69,1500,79.4,1500,117.6z"/>
		
			<linearGradient id="region-2-3_00000166675550692523136500000013166043350618900868_" gradientUnits="userSpaceOnUse" x1="377.9987" y1="499.9973" x2="377.9987" y2="500.9973" gradientTransform="matrix(750 0 0 373.9666 -281624 -186856.2656)">
			<stop  offset="0" style="stop-color:#FE8420;stop-opacity:0.526"/>
			<stop  offset="1" style="stop-color:#FEFD48;stop-opacity:0.692"/>
		</linearGradient>
		
			<path id="region-2-3_00000164494990685097055680000003291066985527363981_" style="fill:url(#region-2-3_00000166675550692523136500000013166043350618900868_);" d="
			M1577.4,127.1c-6.8,1.1-19.9,5.3-27.9,8.9c-9.1,4.1-18.6,9.7-35.2,20.7l-14.3,9.5v166.9V500h375h375V343.6V187.2l-3.7,1
			c-2.1,0.5-10.6,3.1-18.8,5.8c-20.9,6.8-27.1,7.7-37.1,5.5c-15.7-3.5-27.4-9.1-59.4-28.3c-39.6-23.8-50.5-28.1-74-28.9
			c-22.5-0.8-34.6,2.3-75,18.9c-40.2,16.5-59.4,22.5-80,24.9c-24.3,2.8-39.9-0.9-79-18.6c-11.3-5.1-23.7-10.4-27.6-11.8
			c-18.6-6.7-34.9-7.4-62.1-2.7c-32.2,5.5-41.8,4.1-84.8-12.3C1613.8,127.4,1595.9,124,1577.4,127.1z"/>
	</g>
	<g id="layer-3_00000147178244225854047920000005759854774212330658_">
		
			<linearGradient id="region-3-1_00000076584755089732574230000006184263445358530220_" gradientUnits="userSpaceOnUse" x1="378.8667" y1="499.9204" x2="379.1469" y2="501.2975" gradientTransform="matrix(750 0 0 310.5775 -281624 -155098.3281)">
			<stop  offset="0" style="stop-color:#B6461A;stop-opacity:0.417"/>
			<stop  offset="1" style="stop-color:#FF2810;stop-opacity:0.114"/>
		</linearGradient>
		
			<path id="region-3-1_00000124863264279408048080000014278813152418880404_" style="fill:url(#region-3-1_00000076584755089732574230000006184263445358530220_);" d="
			M2495.5,190.3c0,1.7-1,2-7.2,2.6c-14.1,1.4-37.7,9-55,17.7c-5.4,2.7-5.8,2.8-5.8,1c0-2.9-1.8-3.5-2.2-0.9c-0.4,2.8,0.6,2.8-15-0.2
			c-11.9-2.2-12.7-2.5-13.4-4.9c-0.6-2-0.8-2.2-1.1-0.9c-0.3,1-0.9,1.8-1.4,1.8s-0.9-0.8-0.9-1.8c-0.1-1.5-0.2-1.4-1.3,0.3
			c-1.5,2.6-4.3,2.1-5.1-0.8c-0.7-2.2-0.7-2.2-1.5-0.1c-0.9,2-1.1,2-12.7,0.6c-22.1-2.6-74.4-1.7-85.6,1.4c-1.1,0.3-1.9-0.3-2.4-1.8
			l-0.7-2.3l-0.8,2.3c-1,2.6-2.9,2.9-2.9,0.4c-0.1-1.5-0.2-1.4-1.2,0.3c-0.6,1.1-1.2,2.1-1.3,2.3c-0.2,0.2-1.5,0.5-3,0.8
			c-1.5,0.3-3.3,0.6-3.9,0.7c-0.6,0.1-1.2-0.8-1.4-2c-0.2-1.4-0.8-2-1.8-1.6c-1,0.4-1.4-0.2-1.4-2c0-5-1.9-3.7-3,2.1l-1.2,5.9
			l-5.6,1.4l-5.7,1.5l-0.3,142.7l-0.2,142.7h375h375v-133c0-126.2-0.1-132.9-1.7-132.3c-2.7,1-9.3,5.2-13.7,8.7
			c-2.1,1.7-9.3,9.4-16.1,17.2c-17.3,19.9-27.7,27-47.5,32.7l-8.5,2.5l-5-3.3c-2.7-1.7-10.8-7-18-11.7c-7.1-4.7-14.9-9.5-17.2-10.8
			c-2.4-1.3-4.6-3.4-5.2-4.9c-0.7-2.1-1-2.3-1.6-1c-0.6,1.6-0.9,1.6-4.5,0c-2.9-1.1-4.1-2.4-4.5-4.4c-0.7-3-2-3.5-3.3-1.1
			c-0.7,1.3-1.6,1.3-8.3-0.6c-9.8-2.7-24.1-3.5-35.1-1.8l-8.6,1.4l-0.9-3.1l-1-3l-0.7,3.2c-0.8,3.6-2.6,4.5-2.6,1.3
			c0-3-1.8-2.4-2.2,0.7c-0.3,2.5-0.9,2.8-6.3,3.9c-17.2,3.6-33.9,3.9-36.9,0.8c-0.8-0.7-1.6-1-2-0.7c-0.3,0.4-0.6-0.3-0.6-1.5
			c0-2.9-1.6-3.7-2.3-1.1c-0.6,2.4-2.7,1.7-2.7-0.9c-0.1-1.6-0.2-1.5-1.4,0.1c-1.2,1.6-1.4,1.4-2-1.8c-0.4-2-1.1-3.3-1.6-3
			c-0.4,0.3-1.1-0.1-1.3-0.7c-0.4-0.8-0.8-0.4-1.2,0.9s-1,2.3-1.4,2.3c-0.3,0-6.2-4.6-13.1-10.1s-15.3-11.7-18.7-13.7
			c-3.5-2-6.3-4.4-6.3-5.2c0-1.3-0.1-1.3-1,0c-0.7,1.2-1.1,0.8-1.6-1.7c-0.7-3.4-2.4-3.6-2.4-0.3c0,1.6-0.5,1.7-3.2,1
			c-1.8-0.4-5-1.1-7-1.5c-2.9-0.4-3.8-1.1-3.8-2.5c0-2.7-1.8-2.5-2.2,0.2c-0.3,1.8-0.6,1.4-1.2-1.5c-0.6-2.5-1.3-3.6-2.1-3.3
			c-0.8,0.3-1.6-0.8-2-2.7l-0.7-3.2l-1.1,3.5c-0.6,1.9-1.4,3.7-1.8,4c-0.3,0.3-0.9,1.4-1.3,2.5c-0.5,1.9-2.2,2.2-18.6,3.9
			c-9.9,0.9-18.4,1.5-19,1.1c-0.5-0.3-1-1.5-1-2.6c0-2.7-2-2.4-2.1,0.3c0,2.2-0.1,2.2-1.1-0.2l-1.1-2.5l-1,3.4l-1.1,3.4l-8.8-0.7
			c-9.7-0.7-24-4.1-33.2-7.9c-4.3-1.8-6.2-3.2-7.2-5.3c-0.8-1.9-1.3-2.3-1.3-1.2c-0.1,1-0.7,1.8-1.4,1.8s-7.2-2.6-14.3-5.9
			c-7.1-3.2-14.6-6.5-16.8-7.2c-2.2-0.8-4.3-2.4-4.9-3.7c-0.7-1.6-1.3-1.9-1.8-1c-0.4,0.7-1-0.3-1.4-2.5c-0.8-3.9-2.5-5.1-2.5-1.8
			c0,4.6-0.7,5-6.3,3.5c-2.9-0.8-9.1-1.7-13.9-2.1c-6.2-0.4-8.8-1-8.8-1.9c0-0.7-0.4-1.6-1-1.9
			C2496,188.7,2495.5,189.3,2495.5,190.3z"/>
		
			<linearGradient id="region-3-2_00000148648648100642908390000012797159556225018513_" gradientUnits="userSpaceOnUse" x1="383.3138" y1="499.9843" x2="383.3138" y2="500.9843" gradientTransform="matrix(275.1049 0 0 95.8 -102588.5391 -47699)">
			<stop  offset="0" style="stop-color:#FEDCAB;stop-opacity:0.843"/>
			<stop  offset="1" style="stop-color:#FFCC83;stop-opacity:0.766"/>
		</linearGradient>
		
			<path id="region-3-2_00000072971062506169723510000001378909465681657994_" style="fill:url(#region-3-2_00000148648648100642908390000012797159556225018513_);" d="
			M2988.2,200.6c-12,2.8-25.3,15.3-28.8,27c-1.2,3.7-1.4,3.9-5.4,3.9c-5.2,0-12.7,4.5-14.6,8.8l-1.3,3l-4.1-1.6
			c-2.4-1-6.8-1.7-11-1.7c-5.9,0-8.1,0.5-13.7,3.3c-6.1,3-11.8,8-13.1,11.4c-0.3,0.9-1.4,0.4-3.8-1.9c-1.9-1.8-5.4-3.9-7.8-4.8
			c-4.9-1.7-15.6-2-19.5-0.5c-1.6,0.6-2.7,0.6-3.1-0.1c-1.7-2.6-10.6-5.9-16.2-5.9c-5.6-0.1-5.9-0.2-8.5-3.9
			c-5.7-8.3-16.2-13.3-27.8-13.4c-12.7,0-22.9,5.3-29.2,15.2l-2.9,4.6l-6.4,0.1c-5.2,0.1-7.2,0.6-10.5,2.8c-2.2,1.4-4,3-4,3.5
			s-2.8-0.3-6.2-1.6c-6.6-2.7-19.6-4.1-23.6-2.6c-2.1,0.8-2,1,2.8,4.6c2.7,2,5.1,3.7,5.4,3.7c0.2,0,0.7-1,1.1-2.3s0.8-1.7,1.2-0.9
			c0.2,0.6,0.9,1,1.3,0.7c0.5-0.3,1.2,1,1.6,3c0.6,3.1,0.8,3.4,1.9,1.9s1.2-1.5,1.8,0.6c0.6,2.4,2.7,1.9,2.7-0.6
			c0-0.8,0.5-1.2,1-0.9c0.6,0.3,1,1.6,1,2.7c0,1.2,0.3,1.9,0.6,1.5c0.4-0.3,1.2,0,2,0.7c3,3.1,19.7,2.8,36.9-0.8
			c5.4-1.1,6-1.4,6.3-3.9c0.4-3.1,2.2-3.7,2.2-0.7c0,3.1,1.6,2.4,2.7-1.3l1-3.2l0.7,3l0.7,3.1l8.7-1.4c11-1.7,25.3-0.9,35.1,1.8
			c6.7,1.9,7.6,1.9,8.3,0.6c1.3-2.4,2.6-1.9,3.3,1.1c0.4,2,1.6,3.3,4.5,4.4c3.6,1.6,3.9,1.6,4.5,0c0.6-1.3,0.9-1.1,1.6,1
			c0.6,1.5,2.8,3.6,5.2,4.9c2.3,1.3,10.1,6.1,17.2,10.8c7.2,4.7,15.3,10,18,11.7l5,3.3l8.5-2.5c19.8-5.7,30.2-12.8,47.7-32.9
			c12.4-14.2,19.1-20.3,27.1-24.4l4.2-2.2v-16.9v-16.9l-4.2,0.1C2993.9,199.7,2990.3,200.1,2988.2,200.6z"/>
	</g>
	<g id="layer-4_00000093886787332231601100000004830734063968866239_">
		
			<linearGradient id="region-4-1_00000165193122789653026360000001084475230027216805_" gradientUnits="userSpaceOnUse" x1="379.9993" y1="499.9983" x2="379.9993" y2="500.9983" gradientTransform="matrix(750 0 0 299.3995 -281624 -149498.1406)">
			<stop  offset="0" style="stop-color:#9F0600;stop-opacity:0.093"/>
			<stop  offset="1" style="stop-color:#AB0200;stop-opacity:0.502"/>
		</linearGradient>
		
			<path id="region-4-1_00000007391833401923830040000013173430525673369246_" style="fill:url(#region-4-1_00000165193122789653026360000001084475230027216805_);" d="
			M3013.5,206.3l-1.2,5.9l-5.6,1.4l-5.7,1.5l-0.3,142.7l-0.2,142.7h375h375v-99c0-89.3-0.2-99.6-1.7-105c-0.9-3.3-1.9-5.7-2.2-5.4
			c-0.3,0.3-1.6,4.7-2.8,9.7c-1.2,5.1-2.2,8-2.2,6.4c-0.2-4.6-1.7-3-3.2,3.4l-1.4,6l-9,3.8c-4.9,2.1-11.8,5.2-15.2,7
			c-5.7,2.8-6.3,2.9-6.3,1.3c0-3.5-1.5-3.4-2.5,0.3c-0.8,2.6-2.2,4.2-5.1,6l-4,2.4l-1.9-9c-1.1-4.9-2.2-8.9-2.5-8.9
			s-1.6,4.8-2.9,10.7c-1.3,6-2.7,11.5-3.2,12.4c-0.4,0.9-5.3,4.3-10.8,7.7l-10,6.1l-0.7-3.5c-0.8-4.2-1.5-3.7-2.9,1.9
			c-1,4-1.4,4.4-13.5,11.2c-6.9,3.9-18.1,10.1-25,13.7l-12.5,6.6l-12.4-5.2c-12.1-5-12.5-5.3-13.5-9c-1.1-3.7-2.6-4-2.6-0.4
			c0,4.1-1.7,1.4-2.9-4.7c-0.7-3.6-1.6-6.5-2-6.5c-0.5,0-1.3,2.5-2,5.5c-1.2,5.2-1.3,5.4-3.6,4.3c-1.6-0.7-2.7-2.5-3.5-5.7
			c-1.3-4.7-1.6-4.6-3.4,1.1c-1.1,3.7-3.4,0.5-5.1-7.3c-1.6-7.4-3.3-9.6-3.6-4.6c-0.1,1.2-0.6,0.3-1.2-2.1c-0.5-2.3-1.3-4.2-1.7-4.2
			c-0.3,0-1.2,2.9-1.9,6.5c-0.7,3.6-1.6,6.7-2,6.9c-1.5,0.9-5.6-2-5.9-4.2c-0.4-2.8-2.2-2.9-2.2-0.1c0,1.3-0.5,1.9-1.2,1.6
			c-0.7-0.3-5.7-2-11.1-3.9l-9.9-3.3l4.8-4.2c2.7-2.3,4.7-4.3,4.4-4.5c-0.3-0.2-8.4-2.3-18-4.7c-19.2-4.7-46.3-13.3-68.9-21.8
			c-21.6-8.1-51.1-20.4-51.1-21.4c0-0.4-0.8-0.7-1.7-0.7c-3.5,0.2-9.3-3-9.3-5.1c0-1.2-0.4-2.1-1-2.1c-0.5,0-1,0.4-1,1
			c0,1.9-2.9,0.9-25.6-9.1c-25.9-11.4-58.6-25.4-71.8-30.7c-9.2-3.6-12.1-5.6-12.9-8.9c-0.4-1.6-0.6-1.5-1.2,0.4
			c-0.4,1.3-1.1,2.3-1.5,2.3s-1.2-1-1.8-2.3c-0.9-1.8-1.1-1.9-1.1-0.4c-0.1,2.4-2.1,1.1-2.1-1.3c0-1-0.8-2.6-1.7-3.6
			c-1.6-1.6-1.8-1.5-2.6,1c-0.9,2.8-2.7,3.5-2.7,1.1c0-0.8-0.4-1.5-1-1.5c-0.5,0-1,0.4-1,0.8c0,0.4-8-1.9-17.9-5.1
			c-15.7-5.3-17.9-6.3-18.8-8.6c-1.1-2.6-1.1-2.6-1.2-0.2c-0.1,1.9-0.5,2.2-2.3,1.7c-1.3-0.3-2.6-0.6-3-0.6c-0.4,0-1-1.6-1.4-3.5
			c-0.3-1.9-1-3.3-1.4-3c-0.5,0.3-1.1-0.1-1.3-0.7c-0.3-0.7-0.8,0.2-1.2,1.9c-0.7,2.9-1,3.2-3.4,2.7c-1.4-0.4-3.1-1.3-3.8-2.1
			c-0.6-0.8-1.6-1.2-2.1-0.9c-0.5,0.3-1.3-0.9-1.7-2.7l-0.7-3.2l-1,3.1c-1,3.1-1.1,3.1-5,2.1c-2.2-0.5-4.2-1.7-4.5-2.6
			c-1.4-4.4-1.6-4.6-2.2-2.1c-0.8,3,0.3,3-15.3,0c-11.9-2.2-12.7-2.5-13.4-4.9c-0.6-2-0.8-2.2-1.1-0.9c-0.3,1-0.9,1.8-1.4,1.8
			s-0.9-0.8-0.9-1.8c-0.1-1.5-0.2-1.4-1.3,0.3c-1.5,2.6-4.3,2.1-5.1-0.8c-0.7-2.2-0.7-2.2-1.5-0.1c-0.9,2-1.1,2-12.7,0.6
			c-22.1-2.6-74.4-1.7-85.6,1.4c-1.1,0.3-1.9-0.3-2.4-1.8l-0.7-2.3l-0.8,2.3c-1,2.6-2.9,2.9-2.9,0.4c-0.1-1.5-0.2-1.4-1.2,0.3
			c-0.6,1.1-1.2,2.1-1.3,2.3c-0.2,0.2-1.5,0.5-3,0.8c-1.5,0.3-3.3,0.6-3.9,0.7c-0.6,0.1-1.2-0.8-1.4-2c-0.2-1.4-0.8-2-1.8-1.6
			c-1,0.4-1.4-0.2-1.4-2C3016.5,199.2,3014.6,200.5,3013.5,206.3z"/>
		
			<linearGradient id="region-4-2_00000041976026503907450540000010585478287001004938_" gradientUnits="userSpaceOnUse" x1="387.4877" y1="499.8741" x2="388.1257" y2="501.0742" gradientTransform="matrix(233.1392 0 0 151.8 -86767.5469 -75665)">
			<stop  offset="0" style="stop-color:#A3546A;stop-opacity:0.542"/>
			<stop  offset="1" style="stop-color:#CF3B16;stop-opacity:0.894"/>
		</linearGradient>
		
			<path id="region-4-2_00000080201192406350964050000004045117818408563840_" style="fill:url(#region-4-2_00000041976026503907450540000010585478287001004938_);" d="
			M3746,236.6c-7.8,4.1-14.6,10.3-26.8,24.3c-6.9,7.8-15.3,16.4-18.7,18.9c-15.6,11.7-33.8,17.2-74.5,22.2
			c-48.3,5.9-65.5,13.1-100.9,42.4l-7.8,6.5l10.8,3.7c6,2.1,11,3.8,11.2,3.9c0.1,0,0.2-0.9,0.2-2c0-2.7,1.8-2.5,2.2,0.2
			c0.3,2.2,4.4,5.1,5.9,4.2c0.4-0.2,1.3-3.3,2-6.9c0.7-3.6,1.6-6.5,1.9-6.5c0.4,0,1.2,1.9,1.7,4.2c0.6,2.4,1.1,3.3,1.2,2.1
			c0.3-5,2-2.8,3.6,4.6c1.7,7.8,4,11,5.1,7.3c1.8-5.7,2.1-5.8,3.4-1.1c0.8,3.2,1.9,5,3.5,5.7c2.3,1.1,2.4,0.9,3.6-4.3
			c0.7-3,1.5-5.5,2-5.5c0.4,0,1.3,2.9,2,6.5c1.2,6.1,2.9,8.8,2.9,4.7c0-3.6,1.5-3.3,2.6,0.4c1,3.7,1.4,4,13.5,9l12.4,5.2l12.5-6.6
			c6.9-3.6,18.1-9.8,25-13.7c12.1-6.8,12.5-7.2,13.5-11.2c1.4-5.6,2.1-6.1,2.9-1.9l0.7,3.5l10-6.1c5.5-3.4,10.4-6.8,10.8-7.7
			c0.5-0.9,1.9-6.4,3.2-12.4c1.3-5.9,2.6-10.7,2.9-10.7s1.4,4,2.5,8.9l1.9,9l4-2.4c2.9-1.8,4.3-3.4,5.1-6c1-3.7,2.5-3.8,2.5-0.3
			c0,1.6,0.6,1.5,6.3-1.3c3.4-1.8,10.3-4.9,15.2-7l9-3.8l1.4-6c1.5-6.4,3-8,3.2-3.4c0,1.6,1.1-1.5,2.4-6.7s2.4-9.7,2.5-10s1,2,2,5
			l1.8,5.5l0.1-33.3c0.1-18.2,0-33.2-0.2-33.2C3750.1,234.5,3748.2,235.4,3746,236.6z"/>
	</g>
	<g id="layer-5_00000064354026483091990520000007366915437040783805_">
		
			<linearGradient id="region-5-1_00000031192796299908442180000014570474090989730432_" gradientUnits="userSpaceOnUse" x1="380.9993" y1="499.9939" x2="380.9993" y2="500.9939" gradientTransform="matrix(750 0 0 245.3 -281624 -122394.3047)">
			<stop  offset="0" style="stop-color:#FFEAC9;stop-opacity:0.285"/>
			<stop  offset="1" style="stop-color:#FFF3CB;stop-opacity:0.034"/>
		</linearGradient>
		
			<path id="region-5-1_00000155115556188262666560000005871835371252617887_" style="fill:url(#region-5-1_00000031192796299908442180000014570474090989730432_);stroke:#000000;stroke-miterlimit:10;" d="
			M3750.5,376.9v122.6h375h375v-99c0-89.3-0.2-99.6-1.7-105c-0.9-3.3-1.9-5.7-2.2-5.4c-0.3,0.3-1.6,4.7-2.8,9.7
			c-1.2,5.1-2.2,8-2.2,6.4c-0.2-4.6-1.7-3-3.2,3.4l-1.4,6l-9,3.8c-4.9,2.1-11.8,5.2-15.2,7c-5.7,2.8-6.3,2.9-6.3,1.3
			c0-3.5-1.5-3.4-2.5,0.3c-0.8,2.6-2.2,4.2-5.1,6l-4,2.4l-1.9-9c-1.1-4.9-2.2-8.9-2.5-8.9s-1.6,4.8-2.9,10.7
			c-1.3,6-2.7,11.5-3.2,12.4c-0.4,0.9-5.3,4.3-10.8,7.7l-10,6.1l-0.7-3.5c-0.8-4.2-1.5-3.7-2.9,1.9c-1,4-1.4,4.4-13.5,11.2
			c-6.9,3.9-18.1,10.1-25,13.7l-12.5,6.6l-12.4-5.2c-12.1-5-12.5-5.3-13.5-9c-1.1-3.7-2.6-4-2.6-0.4c0,4.1-1.7,1.4-2.9-4.7
			c-0.7-3.6-1.6-6.5-2-6.5c-0.5,0-1.3,2.5-2,5.5c-1.2,5.2-1.3,5.4-3.6,4.3c-1.6-0.7-2.7-2.5-3.5-5.7c-1.3-4.7-1.6-4.6-3.4,1.1
			c-1.1,3.7-3.4,0.5-5.1-7.3c-1.6-7.4-3.3-9.6-3.6-4.6c-0.1,1.2-0.6,0.3-1.2-2.1c-0.5-2.3-1.3-4.2-1.7-4.2c-0.3,0-1.2,2.9-1.9,6.5
			c-0.7,3.6-1.6,6.7-2,6.9c-1.5,0.9-5.6-2-5.9-4.2c-0.4-2.8-2.2-2.9-2.2-0.1c0,1.3-0.5,1.9-1.2,1.6c-0.7-0.3-8.8-3.1-18-6.2
			c-18.4-6.1-39-11.6-51.1-13.6c-7-1.2-7.8-1.6-8.4-3.8l-0.6-2.5l-0.9,2.3c-0.7,2.1-1.3,2.3-4.6,1.7c-2-0.3-5.4-0.6-7.4-0.6
			c-3.6,0-3.7-0.1-4.9-5.5c-1.2-5.4-2.9-8.3-2.9-5.1c0,0.9-0.4,1.6-1,1.6c-0.5,0-1-0.8-1-1.8c0-0.9-0.4-2.3-0.9-3
			c-0.6-0.9-1.4,0.9-2.6,5.7l-1.7,7.1h-7.8h-7.8l-0.6-4.5c-0.9-5.9-2.3-6.5-3.1-1.4c-0.9,5.4-1.8,3.8-4.1-6.8
			c-0.9-4.5-2-8.3-2.4-8.3c-0.5,0-1.3,2.8-2,6.3l-1.3,6.3l-5.1-0.9c-6.4-1.2-14.3,0.8-20.2,5.1l-3.9,2.9l-5-3.3
			c-5.5-3.7-14.6-6.4-21.2-6.4c-9.6,0-22,4.3-27.7,9.6c-2.3,2.2-3.2,2.5-4.5,1.5c-5.5-4-12.6-5.2-16.9-2.8
			c-2.1,1.2-2.8,0.8-10.1-6.4c-12.6-12.4-24.4-17.2-42.6-17.2c-11.3,0-19.7,1.8-29.3,6.3c-5.2,2.4-6.4,2.7-6.9,1.4
			c-0.3-0.8-2.6-2.6-5.1-4.1c-5.4-3.2-14.8-3.7-19.9-1.1l-3.2,1.6l-3.2-4.9c-3.6-5.6-11.7-13.2-16.8-15.9
			c-9.8-4.9-26.5-6.6-36.4-3.6l-4.6,1.4l-2.5-3.8c-4.2-6.3-11.9-11-18.2-11c-1.3,0-4.2-1.3-6.6-2.9c-7.6-5-13.3-6.6-23.8-6.6
			c-6.4,0-11.5,0.6-15.5,1.8l-6,1.9l-7.5-4c-10.2-5.5-19.7-8.2-30.7-8.9l-9.3-0.6V376.9z"/>
		
			<linearGradient id="region-5-2_00000160910649769428577090000014171509405233309837_" gradientUnits="userSpaceOnUse" x1="435.9299" y1="499.9773" x2="435.9299" y2="500.9773" gradientTransform="matrix(56.7812 0 0 66 -20280.4941 -32728)">
			<stop  offset="0" style="stop-color:#FFFFE2;stop-opacity:0.46"/>
			<stop  offset="1" style="stop-color:#FFFFDB;stop-opacity:0.326"/>
		</linearGradient>
		
			<path id="region-5-2_00000036959222468157685750000003943897313642010513_" style="fill:url(#region-5-2_00000160910649769428577090000014171509405233309837_);stroke:#000000;stroke-miterlimit:10;" d="
			M4484.6,273.6c-10.6,5.3-16.8,15.5-19.2,31.2c-0.5,3.9-1.2,8.7-1.5,10.4c-0.5,3.1-0.7,3.3-4.5,3.3c-5.1,0-9.7,2-13.2,5.8
			c-2.6,2.7-2.8,3.4-2.2,7.6l0.7,4.6l4.1-2.5c3-1.8,4.4-3.4,5.2-6c1-3.7,2.5-3.8,2.5-0.3c0,1.6,0.6,1.5,6.3-1.3
			c3.4-1.8,10.3-4.9,15.2-7l9-3.8l1.4-6c1.5-6.4,3-8,3.2-3.4c0,1.6,1.1-1.5,2.4-6.7s2.4-9.7,2.5-10s1,2,2,5l1.8,5.5l0.1-14.8
			l0.1-14.7h-4.8C4492.2,270.5,4489,271.4,4484.6,273.6z"/>
		
			<linearGradient id="region-5-3_00000116939170597979563840000000573828018453796998_" gradientUnits="userSpaceOnUse" x1="425.026" y1="499.8849" x2="425.6974" y2="501.0243" gradientTransform="matrix(69.0393 0 0 53.7129 -24965.0605 -26528.0645)">
			<stop  offset="0" style="stop-color:#F7F8B2;stop-opacity:0.221"/>
			<stop  offset="1" style="stop-color:#FFFFB5;stop-opacity:0.159"/>
		</linearGradient>
		
			<path id="region-5-3_00000012430454985487341100000005457410395021619590_" style="fill:url(#region-5-3_00000116939170597979563840000000573828018453796998_);stroke:#000000;stroke-miterlimit:10;" d="
			M4422.7,327.7c-4.2,1.4-12,8.3-12.8,11.2c-0.5,2.1-1.3,2.4-8.4,2.9c-19,1.3-31.6,13.3-32.8,31.3l-0.5,7.5l7.9-4.3
			c4.4-2.3,13.5-7.4,20.4-11.3c12.1-6.8,12.5-7.2,13.5-11.2c1.4-5.6,2.1-6.1,2.9-1.9l0.7,3.5l10-6.1c5.5-3.4,10.4-6.8,10.8-7.7
			c1.3-2.4,3.4-13.2,2.7-13.8C4436,326.6,4426,326.6,4422.7,327.7z"/>
	</g>
	<g id="layer-6_00000103259150502542972320000005764843150545168051_">
		
			<linearGradient id="region-6-1_00000040559324167902953940000007237212518659080593_" gradientUnits="userSpaceOnUse" x1="381.9993" y1="499.9978" x2="381.9993" y2="500.9978" gradientTransform="matrix(750 0 0 229.8505 -281624 -114654.1094)">
			<stop  offset="0" style="stop-color:#740329;stop-opacity:0.755"/>
			<stop  offset="1" style="stop-color:#CF5950;stop-opacity:0.802"/>
		</linearGradient>
		
			<path id="region-6-1_00000152259889503850918530000005660133940112203711_" style="fill:url(#region-6-1_00000040559324167902953940000007237212518659080593_);" d="
			M4514.1,271.6c-0.2,0.8-1.7,6.8-3.3,13.3c-2.8,11.9-2.8,12-6.3,13.1l-3.5,1.2l-0.3,100.6l-0.2,100.7h375h375v-99
			c0-89.3-0.2-99.6-1.7-105c-0.9-3.3-1.9-5.7-2.2-5.4c-0.3,0.3-1.6,4.7-2.8,9.7c-1.2,5.1-2.2,8-2.2,6.4c-0.2-4.6-1.7-3-3.2,3.4
			l-1.4,6l-9,3.8c-4.9,2.1-11.8,5.2-15.2,7c-5.7,2.8-6.3,2.9-6.3,1.3c0-3.5-1.5-3.4-2.5,0.3c-0.8,2.6-2.2,4.2-5.1,6l-4,2.4l-1.9-9
			c-1.1-4.9-2.2-8.9-2.5-8.9s-1.6,4.8-2.9,10.7c-1.3,6-2.7,11.5-3.2,12.4c-0.4,0.9-5.3,4.3-10.8,7.7l-10,6.1l-0.7-3.5
			c-0.8-4.2-1.5-3.7-2.9,1.9c-1,4-1.4,4.4-13.5,11.2c-6.9,3.9-18.1,10.1-25,13.7l-12.5,6.6l-12.4-5.2c-12.1-5-12.5-5.3-13.5-9
			c-1.1-3.7-2.6-4-2.6-0.4c0,4.1-1.7,1.4-2.9-4.7c-0.7-3.6-1.6-6.5-2-6.5c-0.5,0-1.3,2.5-2,5.5c-1.2,5.2-1.3,5.4-3.6,4.3
			c-1.6-0.7-2.7-2.5-3.5-5.7c-1.3-4.7-1.6-4.6-3.4,1.1c-1.1,3.7-3.4,0.5-5.1-7.3c-1.6-7.4-3.3-9.6-3.6-4.6c-0.1,1.2-0.6,0.3-1.2-2.1
			c-0.5-2.3-1.3-4.2-1.7-4.2c-0.3,0-1.2,2.9-1.9,6.5c-0.7,3.6-1.6,6.7-2,6.9c-1.5,0.9-5.6-2-5.9-4.2c-0.4-2.8-2.2-2.9-2.2-0.1
			c0,1.3-0.5,1.9-1.2,1.6c-0.7-0.3-8.8-3.1-18-6.2c-18.4-6.1-39-11.6-51.1-13.6c-7-1.2-7.8-1.6-8.4-3.8l-0.6-2.5l-0.9,2.3
			c-0.7,2.1-1.3,2.3-4.6,1.7c-2-0.3-5.4-0.6-7.4-0.6c-3.6,0-3.7-0.1-4.9-5.5c-1.2-5.4-2.9-8.3-2.9-5.1c0,0.9-0.4,1.6-1,1.6
			c-0.5,0-1-0.8-1-1.8c0-0.9-0.4-2.3-0.9-3c-0.6-0.9-1.4,0.9-2.6,5.7l-1.7,7.1h-7.8h-7.8l-0.6-4.5c-0.9-5.9-2.3-6.5-3.1-1.4
			c-0.9,5.4-1.8,3.8-4.1-6.8c-0.9-4.5-2-8.3-2.4-8.3s-1.5,3.6-2.5,8.1c-3,14.1-3.3,14.9-6,14.9c-1.8,0-2.6-0.7-3.1-2.5
			c-0.8-3.3-2.2-3.2-2.6,0.2c-0.3,2.6-0.7,2.8-13.3,5.4c-7.1,1.4-25.1,5.7-40,9.3c-54.7,13.6-77.4,16.8-103.9,14.5
			c-14.1-1.2-16.6-1.9-16.6-4.9c0-2.8-1.8-3.4-2.2-0.8c-0.2,1.8-0.9,2.3-3.1,2.1c-4.8-0.3-16.8-4.5-17.6-6.2
			c-0.4-0.9-1.4-4.4-2.1-7.8c-1.4-6.7-2.3-7.3-3.5-2.1c-0.6,2.8-0.8,3-1.4,1.4c-0.7-1.8-0.8-1.8-1.4-0.2c-0.4,1-0.7,2.6-0.7,3.7
			c0,1-0.3,1.9-0.7,1.9c-1.3,0-19.6-10.2-33.5-18.7c-20.6-12.5-42.1-24.8-47.3-27c-2.8-1.1-4.5-2.4-4.5-3.5c0-0.9-0.4-2-1-2.3
			c-0.5-0.3-1,0.1-1,0.9c0,0.9-0.1,1.6-0.3,1.6c-1.6,0-17.4-6.4-17.9-7.3c-0.4-0.7-0.8-2.2-0.8-3.5c0-3.3-1.7-2.7-2.4,0.9
			c-0.5,2.4-1,3-2.3,2.5c-0.9-0.4-3.6-1-5.9-1.3c-3.7-0.5-4.3-0.9-4.8-3.5c-0.3-1.6-1-2.7-1.5-2.4c-0.5,0.3-1.4-1.7-2.1-4.4
			s-1.5-4.8-2-4.5c-0.4,0.2-1.3,3.2-2,6.5c-1,4.6-1.7,6-3.1,6c-1.8,0-2.2-0.9-3.4-6.8c-0.9-4.6-2.1-4-3.1,1.5
			c-0.9,4.5-1.1,4.8-4.2,5.1c-1.8,0.2-4-0.2-4.8-0.9c-1.1-0.9-1.4-0.8-1.4,0.5c0,1.1-0.9,1.6-3.2,1.6c-1.8,0-4.3,0.3-5.5,0.6
			c-1.9,0.5-2.2,0-3.4-5c-0.6-3-1.5-5.3-1.9-5.1c-0.4,0.3-1.1,2.4-1.5,4.7l-0.7,4.3l-2.4-9.9
			C4515.4,270.7,4514.8,269.3,4514.1,271.6z"/>
	</g>
	<g id="layer-7_00000055708630357715350540000013297400162293391279_">
		
			<linearGradient id="region-7-1_00000098942314150011255980000014589247663068368276_" gradientUnits="userSpaceOnUse" x1="382.9828" y1="499.9851" x2="383.0187" y2="501.1525" gradientTransform="matrix(750 0 0 210.0244 -281624 -104721.2344)">
			<stop  offset="0" style="stop-color:#180A14;stop-opacity:0.776"/>
			<stop  offset="1" style="stop-color:#37001C;stop-opacity:0.672"/>
		</linearGradient>
		
			<path id="region-7-1_00000061435182536354841380000007571613725542722735_" style="fill:url(#region-7-1_00000098942314150011255980000014589247663068368276_);" d="
			M5997,291c-0.1,0.3-1.2,4.8-2.5,10s-2.4,8.3-2.4,6.7c-0.2-4.6-1.7-3-3.2,3.4l-1.4,6l-9,3.8c-4.9,2.1-11.8,5.2-15.2,7
			c-5.7,2.8-6.3,2.9-6.3,1.3c0-3.5-1.5-3.4-2.5,0.3c-0.8,2.6-2.2,4.2-5.1,6l-4,2.4l-1.9-9c-1.1-4.9-2.2-8.9-2.5-8.9
			s-1.6,4.8-2.9,10.7c-1.3,6-2.7,11.5-3.2,12.4c-0.4,0.9-5.3,4.3-10.8,7.7l-10,6.1l-0.7-3.5c-0.8-4.2-1.5-3.7-2.9,1.9
			c-1,4.1-1.4,4.4-15.5,12.4c-40.5,23.1-123.1,61.3-125.2,58.1c-0.4-0.7-0.8-2-0.8-2.9c0-3.6-1.6-2.7-3,1.8
			c-0.8,2.6-1.9,4.8-2.4,4.8s-1.9-4.1-3-9.2c-2.3-9.9-3.2-11.8-4.1-8.2c-0.3,1.3-1.5,6.9-2.8,12.3l-2.3,9.9l-14.9,5.4
			c-38.9,13.9-58.1,18.6-77,18.7c-14.9,0-21.8-1.4-33.2-7.1l-7.1-3.6l-2.2-9.6c-2.9-12.9-4-17.1-4.5-17.1c-0.2,0-1.3,4.3-2.5,9.5
			l-2.2,9.4l-2.4-1.5c-1.3-0.9-2.4-2.5-2.4-3.5s-0.4-2.1-1-2.4c-0.5-0.3-1,0.1-1,0.9c0,2-1,2-3.6,0.2c-1.1-0.8-4.8-2.4-8.2-3.5
			c-8.3-2.8-17.7-2.7-31.4,0.4c-18.2,4.1-23.2,4.7-30.1,3.5c-10.1-1.8-20.7-7.9-48.7-27.9c-36.4-26.1-53.7-36.6-69.2-42.3
			c-5.2-1.8-5.8-2.4-6.4-5.4c-0.8-4.5-2.1-5.1-2.9-1.4c-0.5,2.3-1.1,2.9-2.3,2.6c-5.5-1.6-14.4-3.5-18.7-4.1
			c-9.8-1.2-9-0.5-11.5-11.5c-1.3-5.5-2.6-9.8-2.9-9.4c-0.3,0.3-1.3,3.6-2.2,7.2c-1.1,4.5-1.8,6.1-2.2,4.9c-0.4-0.9-1-2.5-1.4-3.5
			c-0.4-1.1-1.1,0.4-2.1,4.6c-1.3,5.4-1.9,6.2-3.6,6c-1.7-0.3-2.4-2-4.5-11.1c-1.3-5.9-2.7-10.7-3.1-10.7c-0.3,0-1.6,4.6-2.9,10.2
			c-1.2,5.7-2.4,11.1-2.7,12c-0.3,1-2.2,2.2-4.7,2.8c-16.3,4.1-40.8,14.4-59.1,24.8c-6,3.5-11.3,5.9-11.7,5.5
			c-0.3-0.5-1.9-6.4-3.4-13.3c-1.5-6.8-3.1-13.3-3.5-14.5c-0.9-2.4-0.8-2.6-4.4,9.6l-2.6,8.5v61.7V501h375h375v-99.3
			c0-94.6-0.1-99.5-1.9-105.2C5998,293.2,5997.1,290.7,5997,291z"/>
		
			<linearGradient id="region-7-2_00000145754536528750895210000009787042186717671081_" gradientUnits="userSpaceOnUse" x1="397.9346" y1="500" x2="397.9346" y2="501" gradientTransform="matrix(227.4359 0 0 74.3008 -84758.8438 -36766.3008)">
			<stop  offset="0" style="stop-color:#B95651;stop-opacity:0.735"/>
			<stop  offset="1" style="stop-color:#C45A4E;stop-opacity:0.798"/>
		</linearGradient>
		
			<path id="region-7-2_00000137822099656213059810000015425250858954094220_" style="fill:url(#region-7-2_00000145754536528750895210000009787042186717671081_);" d="
			M5842,385.1c-7.9,2.2-18.3,8.3-21.3,12.6c-2.6,3.7-3.3,4.1-5,3.1c-1.3-0.6-5.3-0.9-10.5-0.5c-6.5,0.4-9.6,1.1-14.3,3.4l-5.9,2.9
			l-2.7-2.8c-9.7-10.2-27.6-10.5-38.7-0.7c-2.5,2.2-5.1,5.5-5.7,7.4c-0.7,1.9-1.6,3.2-2.1,2.9c-2-1.3-8.2,1.1-11.6,4.4l-3.7,3.6
			l-8.2-0.3c-11.3-0.4-18.1,1.7-23.9,7.4c-2.9,3-4.8,5.9-5.6,9c-1,3.5-1.6,4.4-2.8,3.8c-0.8-0.4-4.4-0.9-8-1
			c-7.5-0.4-11.9,1.6-14.8,6.7c-1.3,2.3-2.1,2.8-3.7,2.2c-4.4-1.6-13.9-0.7-18.3,1.8c-4.9,2.7-4.6,3,4.8,5.6s29.2,2.4,42.5-0.5
			c12.1-2.6,33.8-9.2,54-16.4l14.9-5.4l2.3-9.9c1.3-5.4,2.5-11,2.8-12.3c0.9-3.6,1.8-1.8,4,7.9c1.1,4.9,2.5,9,3,9.2
			c0.6,0.2,1.7-1.9,2.5-4.5c1.4-4.5,3-5.4,3-1.8c0.1,4.3,1.4,4.2,14.9-1.4c20.5-8.5,34.9-14.9,56.1-25.2l19.5-9.4l-3.4-1.5
			C5852.4,383.8,5847.2,383.7,5842,385.1z"/>
	</g>
	<g id="layer-8_00000181071304763720231550000015612011535324391825_">
		
			<linearGradient id="region-8-1_00000150081004142812701410000018060675236361722558_" gradientUnits="userSpaceOnUse" x1="383.9923" y1="499.9872" x2="384.0059" y2="501.1292" gradientTransform="matrix(750 0 0 142.6603 -281624 -70971.7969)">
			<stop  offset="0" style="stop-color:#200715;stop-opacity:0.693"/>
			<stop  offset="1" style="stop-color:#1C0713;stop-opacity:0.8"/>
		</linearGradient>
		
			<path id="region-8-1_00000107579707197420247790000001351926043022723717_" style="fill:url(#region-8-1_00000150081004142812701410000018060675236361722558_);" d="
			M6007.7,358c-0.4,0.8-1.7,5.3-3.1,10.1l-2.6,8.5v61.7V500h375h375v-35.3v-35.2l-6-19.9c-3.2-10.9-6.1-20.1-6.4-20.4
			c-0.8-0.7-1.1,0.2-7.1,27.3c-3.1,13.7-5.9,26-6.2,27.3c-0.5,2-1.2,1.1-5.3-5.9c-2.6-4.6-5.1-8.4-5.6-8.6c-0.5-0.1-2.2,4-3.8,9.2
			s-3.2,9.5-3.6,9.5s-1.8-2.4-3-5.2l-2.3-5.3l-3,9.7c-1.7,5.4-3.3,9.8-3.6,9.8c-0.3,0-2.1-6.9-4-15.3c-1.9-8.3-3.7-15.7-4-16.2
			c-0.3-0.6-1.3,3.3-2.2,8.5l-1.6,9.5l-1-4c-0.6-2.2-2.1-8.4-3.4-13.9c-1.3-5.7-2.5-9.2-2.9-8.5c-0.4,0.8-2,9.9-3.6,20.3l-2.8,18.9
			l-1.4-5.4c-0.7-3-1.7-5.8-2.1-6.2c-0.5-0.4-1.4,1.9-2.1,5.2c-0.7,3.4-1.8,6.7-2.4,7.5c-0.8,1-4.9,1.5-14.8,2l-13.6,0.6l-2.8-8.3
			l-2.7-8.2l-1.3,3c-0.7,1.6-1.3,3.9-1.4,5c-0.1,3.2-1.4,0.1-3.5-8.2c-1.1-4-2.2-7.3-2.5-7.3c-0.4,0-1.2,3.9-1.9,8.7
			c-1.8,12.7-2.1,13.6-3.6,9.3c-0.6-1.9-1.6-3.4-2.1-3.3c-0.5,0.1-1.6,2.7-2.4,5.8l-1.4,5.6l-5-0.3c-4.8-0.3-5-0.4-6-4.3
			c-1.3-4.4-2-4-3,1.7c-0.5,2.7-1.2,3.8-2.5,3.8c-1.4,0-2.1-1.7-3.6-8.8c-1-4.8-2.1-9.1-2.5-9.5c-0.4-0.5-1.6,3.6-2.6,9l-2,9.8
			l-4.6,0.5l-4.6,0.6l-1.1-3.8c-1.5-4.7-2.7-4.8-3.5-0.3c-0.4,1.9-1.1,3.7-1.6,4c-0.4,0.3-8.2,1.2-17.2,2s-18.1,1.7-20.4,2l-4,0.6
			l-2.4-7.6c-1.3-4.2-2.7-7.8-3.1-8c-0.3-0.3-1.4,2.6-2.4,6.2l-1.8,6.7l-3.1-8.1c-1.7-4.5-3.4-8.4-3.8-8.8c-0.4-0.4-2.1,4-3.8,9.7
			c-3.3,10.6-4.7,12.8-8.7,12.8c-2.3,0-3.1-1.9-4.9-10.8c-0.9-4.4-1.5-3.4-2.8,4.5c-0.6,3.8-1.6,6.7-2.1,6.6
			c-0.6,0-2.1-5.1-3.5-11.1c-1.4-6.1-2.8-11.3-3.1-11.7c-0.7-0.7-1.2,1.7-3,14.5c-0.7,4.7-1.5,8.9-1.9,9.3
			c-0.6,0.7-28.1,4.6-32.3,4.7c-0.5,0-2.2-3.1-3.9-7c-1.7-3.8-3.4-7-3.8-7c-0.3,0-1.2,2.3-1.9,5c-1.5,5.7-2.6,6.4-3.6,2
			c-0.9-4-2.2-3-3,2.4c-0.4,2.3-1,4.9-1.5,5.6c-0.8,1.4-39.9,7.2-41.2,6.1c-0.3-0.3-2.1-6.2-3.9-13.1c-1.8-6.9-3.4-12.7-3.6-12.9
			c-0.7-0.9-1.3,1-4.4,14.6l-3.2,14.1l-3.4,0.7c-4.2,0.8-4.9,0.3-5.8-3.7l-0.7-3.3l-1.3,4c-1.2,4.2-1,4-11.7,5.9l-3.7,0.7l-4.6-14.8
			c-2.5-8.1-4.9-15.6-5.1-16.6c-0.3-0.9-0.8-1.7-1.2-1.7c-0.4,0-2.9,6.1-5.7,13.4c-2.7,7.4-5.3,12.9-5.6,12.3
			c-0.3-0.7-1.6-5-2.9-9.7c-1.2-4.7-2.5-8.8-2.9-9.3c-0.4-0.4-2.6,5.5-5,13.1l-4.3,13.9l-11.5-1.8c-6.3-1-11.7-1.9-11.8-2.1
			c-0.2-0.2-2.2-6.3-4.5-13.7c-2.3-7.3-4.5-12.9-5-12.5c-0.4,0.5-2.5,6.1-4.5,12.4l-3.8,11.5l-3.8-0.3c-4.5-0.5-3.8,1.5-8.4-22.2
			c-3.8-19.3-4.3-21.5-4.9-20.9c-0.3,0.2-2.3,8.7-4.6,18.9s-4.5,19.1-4.9,19.8c-0.4,0.7-1.8-4-3.1-10.5c-1.2-6.5-2.6-12.4-3-13.2
			c-0.5-0.9-1.9,3.3-3.6,10.7c-3,13.3-2.8,13.1-10.1,11.6c-2.8-0.6-3.2-1.2-5.2-8.2c-5.3-18.3-6.2-21.2-7-20.8
			c-0.4,0.3-1.6,3.3-2.6,6.6c-1.1,3.7-2.1,5.6-2.5,4.8c-0.4-0.7-1.8-8.4-3.1-17.1c-1.3-8.6-2.6-15.7-2.9-15.7
			c-0.4,0-2.4,6.4-4.5,14.2l-3.9,14.3l-2-7.8c-1.2-4.2-2.3-7.7-2.7-7.7s-3.1,7-6,15.5c-5,14.5-5.5,15.5-7.9,15.5
			c-6.9,0-36.6-3.5-37.6-4.4c-0.6-0.6-2.1-5.2-3.3-10.1c-4.8-19.5-4.7-19.5-7.6-8c-1,3.8-2.1,7.3-2.5,7.8c-0.3,0.4-1.3-3.9-2.2-9.5
			c-0.9-5.7-3.1-19.4-4.9-30.6c-1.8-11.1-3.5-20-3.8-19.6c-0.3,0.3-2.9,10.9-5.6,23.6l-5,23l-2.4-16.1c-1.3-8.9-2.7-16.1-3.1-16.1
			s-3.3,11.7-6.6,25.9c-3.2,14.3-6,25.9-6.1,25.7c-0.1-0.1-2.3-6.9-4.9-15.2c-2.5-8.2-4.9-15.3-5.3-15.7c-0.5-0.4-2.3,2.7-4.1,7
			c-1.8,4.3-3.6,8.1-4,8.6c-0.3,0.4-3-6.7-5.9-15.8s-5.4-16.5-5.6-16.5s-3.8,6.1-8.1,13.6c-4.2,7.4-8,13.1-8.4,12.7
			c-0.4-0.4-4.9-19.5-10-42.3C6009.2,358.1,6008.6,355.5,6007.7,358z"/>
	</g>
</g>
</svg>
