<?xml version="1.0" encoding="utf-8"?>
<!-- Generator: Adobe Illustrator 27.0.0, SVG Export Plug-In . SVG Version: 6.00 Build 0)  -->
<svg version="1.1" xmlns="http://www.w3.org/2000/svg" xmlns:xlink="http://www.w3.org/1999/xlink" x="0px" y="0px"
	 viewBox="0 0 2000 470" style="enable-background:new 0 0 2000 470;" xml:space="preserve">
<style type="text/css">
	.st0{fill:none;}
	.st1{fill:#D3D3D3;}
	.st2{fill:url(#SVGID_00000163785330734593300370000014156068499026835354_);}
	.st3{fill:none;stroke:#000000;stroke-width:5;stroke-miterlimit:10;}
	.st4{fill:url(#region-1-1_00000169518917740216665000000003065973704849751949_);}
	.st5{fill:url(#region-1-2_00000119801615547877976550000015737819365630284689_);}
	.st6{fill:url(#region-1-3_00000036212679220970365220000010430127498510678672_);}
	.st7{fill:url(#region-1-4_00000038373780791635601390000002651957092407749540_);}
	.st8{fill:url(#region-1-5_00000095335802760857516170000000043403035735012791_);}
	.st9{fill:url(#region-1-6_00000113326177296690586940000017260281090425834930_);}
	.st10{fill:url(#region-1-7_00000031915085305440395280000006484560482536404386_);}
	.st11{fill:url(#region-1-8_00000173154027141162090080000010086201669159870137_);}
	.st12{fill:url(#region-2-1_00000145041099762314141580000018386328250171632000_);}
	.st13{fill:url(#region-2-2_00000183931107567032364130000014925631058899354556_);}
	.st14{fill:url(#region-2-3_00000090271990024813070240000002883400931802332544_);}
	.st15{fill:url(#region-2-4_00000010300836270405952350000012525689516634867106_);}
	.st16{fill:url(#region-2-5_00000027605178668048475600000001093905737371644863_);}
	.st17{fill:url(#region-2-6_00000097459806165178494050000004884332216214833028_);}
	.st18{fill:url(#region-2-7_00000096046931067242008670000002247833743315520641_);}
	.st19{fill:url(#region-3-1_00000096047071076955812890000007236478447813057932_);}
	.st20{fill:url(#region-1-1_00000091005448322721701880000014747648369337313197_);}
	.st21{fill:url(#region-1-2_00000170264178113413635550000017650875029108909741_);}
	.st22{fill:url(#region-1-3_00000008844290955679429050000017496803016732299159_);}
	.st23{fill:url(#region-1-4_00000052825178885464137470000016525970539170974897_);}
	.st24{fill:url(#region-1-5_00000150824515019314035520000013775543067928474547_);}
	.st25{fill:url(#region-1-6_00000079451007844423028530000010392499011418615213_);}
	.st26{fill:url(#region-1-7_00000054987807091540006670000006241492130404435336_);}
	.st27{fill:url(#region-1-8_00000137111307070430338820000009074005635805441431_);}
	.st28{fill:url(#region-2-1_00000155122596729245925600000000736567741395680149_);stroke:#000000;stroke-miterlimit:10;}
	.st29{fill:url(#region-2-2_00000039093119371938406760000013332797592480220065_);stroke:#000000;stroke-miterlimit:10;}
	.st30{fill:url(#region-2-3_00000096036796513620855440000004385381879004665518_);stroke:#000000;stroke-miterlimit:10;}
	.st31{fill:url(#region-2-4_00000122683604287331520740000010069404687323003036_);stroke:#000000;stroke-miterlimit:10;}
	.st32{fill:url(#region-2-5_00000141423824899451416210000012575237290429074367_);stroke:#000000;stroke-miterlimit:10;}
	.st33{fill:url(#region-2-6_00000127046415832545222450000004060056991184801950_);stroke:#000000;stroke-miterlimit:10;}
	.st34{fill:url(#region-2-7_00000031891586227247056800000010181766522651431093_);stroke:#000000;stroke-miterlimit:10;}
	.st35{fill:url(#region-3-1_00000105429001453291141630000018173021189054998463_);}
</style>
<pattern  width="40" height="40" patternUnits="userSpaceOnUse" id="SVGID_1_" viewBox="0 -40 40 40" style="overflow:visible;">
	<g>
		<rect y="-40" class="st0" width="40" height="40"/>
		<g>
			<rect y="-40" class="st0" width="40" height="40"/>
			<rect y="-40" class="st0" width="40" height="40"/>
			<rect y="-20" class="st1" width="20" height="20"/>
			<rect x="20" y="-40" class="st1" width="20" height="20"/>
		</g>
	</g>
</pattern>
<g id="图层_1">
	<g id="图层_1_00000015316622078413379080000000961724766797632903_">
		
			<pattern  id="SVGID_00000150780935395268553130000003886292068160515000_" xlink:href="#SVGID_1_" patternTransform="matrix(1 0 0 -1 -219 -14108.2402)">
		</pattern>
		<rect style="fill:url(#SVGID_00000150780935395268553130000003886292068160515000_);" width="2000" height="470"/>
	</g>
	<g id="图层_3">
	</g>
	<line class="st3" x1="500.5" y1="0" x2="500.5" y2="470"/>
	<line class="st3" x1="1000.5" y1="0" x2="1000.5" y2="470"/>
	<line class="st3" x1="1510.5" y1="0" x2="1510.5" y2="470"/>
</g>
<g id="图层_2">
	<g id="layer-1">
		
			<linearGradient id="region-1-1_00000066514180202147686300000000083536759435427717_" gradientUnits="userSpaceOnUse" x1="297.1608" y1="519.4306" x2="298.1941" y2="520.4043" gradientTransform="matrix(77.1507 0 0 84.6361 -22774.5137 -43923.8711)">
			<stop  offset="0" style="stop-color:#948E53"/>
			<stop  offset="1" style="stop-color:#565115"/>
		</linearGradient>
		<path id="region-1-1" style="fill:url(#region-1-1_00000066514180202147686300000000083536759435427717_);" d="M156.4,35.5
			c-0.5,9.8,2.7,18.4,9.5,25.5c2.4,2.5,5.4,6.1,6.7,8c5.3,7.9,17.5,21.3,24.2,26.9c4,3.2,9.6,8.4,12.6,11.5c3.4,3.6,7,6.4,10,7.6
			c5.1,2,14.1,3.6,14.1,2.6c0-1.9-12.7-13.5-20-18.3c-6.4-4.2-13.7-10.8-29.9-27.2C171.9,60.2,161.7,49.4,161,48
			c-0.7-1.4-1.5-4.9-1.8-7.9C158.5,33.9,156.6,30.9,156.4,35.5z"/>
		
			<linearGradient id="region-1-2_00000112625941378581505140000008901251634475817382_" gradientUnits="userSpaceOnUse" x1="296.559" y1="519.3877" x2="296.559" y2="520.3877" gradientTransform="matrix(59 0 0 79.9625 -17250.0078 -41491.4766)">
			<stop  offset="0" style="stop-color:#6F885D;stop-opacity:0.993"/>
			<stop  offset="1" style="stop-color:#7D903F;stop-opacity:0.995"/>
		</linearGradient>
		<path id="region-1-2" style="fill:url(#region-1-2_00000112625941378581505140000008901251634475817382_);" d="M217.5,41.6
			c0,0.9,1.8,4.5,3.9,7.9c5.4,8.5,9.4,21.3,12.1,38.5c0.6,4.1,1.5,9.1,2,11c2.1,9,2.1,8.9,0,10c-1.4,0.8-3.1,0.8-5.7,0.1
			c-2-0.6-3.8-0.9-4-0.7c-0.8,0.8,10.6,11.6,12.3,11.6c1.4,0,2.6-1.6,4.4-6.3c1.8-4.6,4-7.7,8.6-12.2c7-6.8,20.1-18.9,22.5-20.8
			c0.9-0.6,1.9-2.4,2.3-3.8l0.6-2.6l-8.3-0.6c-9.1-0.8-10.7,0-10.7,5.4c0,3.8-1.9,7.7-4.1,8.4c-3,1-5.5-1.1-7.4-6.2
			c-3.5-9.2-10.7-22.2-15.3-27.6c-6.8-7.9-7.9-9.3-9.2-11.6C220.2,39.6,217.5,39.3,217.5,41.6z"/>
		
			<linearGradient id="region-1-3_00000097496308754116636500000008488939989241498041_" gradientUnits="userSpaceOnUse" x1="298.8673" y1="520.4572" x2="299.6804" y2="519.2109" gradientTransform="matrix(128.6085 0 0 83.8521 -38178.9609 -43507.8828)">
			<stop  offset="0" style="stop-color:#7A6F34"/>
			<stop  offset="1" style="stop-color:#9FB983"/>
		</linearGradient>
		<path id="region-1-3" style="fill:url(#region-1-3_00000097496308754116636500000008488939989241498041_);" d="M339.8,43.4
			c-2.3,0.8-6.4,2.6-9,4.2c-9.1,5.2-14.1,10.2-39.2,38.2c-6.9,7.8-8.5,8.7-12.5,7.2s-5.2-3.1-4.8-6.2c0.8-5.1,10.1-9.7,10.2-5.1
			c0.1,1.7,0.2,1.6,1.5-0.1c2-2.7,1-3.6-3.8-3.6c-5,0-7.8,1.7-17.2,10.4c-3.8,3.6-9.6,8.9-12.7,11.7c-4,3.6-6.7,7.2-8.8,11.5
			c-3.9,8.3-3.8,9.2,0.8,9.9c2,0.3,8.4,1.6,14.2,2.7c12.7,2.5,25.3,2.7,29.6,0.5c1.6-0.8,6.6-4,11-6.9c4.4-3,10.9-7.1,14.4-9.3
			c3.6-2.1,8.6-5.6,11.1-7.7c5.3-4.3,5.9-4.5,5.9-2.1c0.1,1.7,0.1,1.7,1.1,0c2.2-3.8-1.9-5-6.1-1.7c-3.9,3.1-4.4,2.3-1.2-1.8
			c1.7-2,5.4-5.1,8.4-6.8c6.4-3.8,14.2-8.3,17.7-10.4c5.9-3.5,7.8-5.2,11.6-10.2c2.2-2.9,4.9-6.1,6-7c1.6-1.4,1.7-1.7,0.5-1.8
			c-0.9,0-4,2.5-7,5.6c-4.5,4.6-7.9,6.8-18.5,11.9s-14.8,7.8-22.5,14.5c-5.2,4.5-10.9,8.9-12.6,9.7c-2.9,1.4-3.4,1.4-5.8-0.3
			c-1.4-1.1-2.6-2.1-2.6-2.4s2.5-3.7,5.5-7.5c7.4-9.4,17.7-24.8,20.9-31.2c1.8-3.6,4.4-6.6,8.6-9.8c6.7-5.2,9.9-6.3,15-5.5
			c2.9,0.4,3.6,1,4,3.5l0.6,3l1.3-2.4c1.1-2,1.1-2.6-0.2-3.9C353.1,42.2,344.9,41.7,339.8,43.4z"/>
		
			<linearGradient id="region-1-4_00000165201312950190944900000001708476384822937004_" gradientUnits="userSpaceOnUse" x1="292.1504" y1="520.1533" x2="292.6923" y2="521.4438" gradientTransform="matrix(31.8179 0 0 24.1346 -9080.3096 -12471.5869)">
			<stop  offset="0" style="stop-color:#F36D41"/>
			<stop  offset="1" style="stop-color:#F1592C"/>
		</linearGradient>
		<path id="region-1-4" style="fill:url(#region-1-4_00000165201312950190944900000001708476384822937004_);" d="M232.3,85.6
			c-0.4,0.6-3.8,1.4-7.5,1.7c-7.9,0.8-19,3.7-19.4,5.2c-0.2,0.5,3.2,3.4,7.6,6.2c4.3,2.9,8.8,6.1,9.9,7.2c4.9,4.5,15.5,4.7,14.2,0.3
			c-0.5-1.6-3.1-15.3-3.8-19.7C233.1,85.3,232.7,84.9,232.3,85.6z"/>
		
			<linearGradient id="region-1-5_00000091009221641735452550000002723092880711149705_" gradientUnits="userSpaceOnUse" x1="300.554" y1="519.1082" x2="300.554" y2="520.1082" gradientTransform="matrix(308.1651 0 0 286.6843 -92367.9844 -148725.1406)">
			<stop  offset="0" style="stop-color:#F53606;stop-opacity:0.992"/>
			<stop  offset="1" style="stop-color:#DB3A1F;stop-opacity:0.998"/>
		</linearGradient>
		<path id="region-1-5" style="fill:url(#region-1-5_00000091009221641735452550000002723092880711149705_);" d="M184,98.9
			c-18,6.8-28,13.2-42.3,26.6c-25.3,23.8-40.5,56.6-43,93c-2,28.3,1.9,47.7,14.4,73c14.5,29.4,36,52.3,64.1,68.3
			c9.3,5.3,24.6,12,32.6,14.2c2.6,0.7,4.7,1.6,4.7,2.1s0.7,0.6,1.6,0.2c0.8-0.3,4.1,0.2,7.2,1c15,4.3,17.3,4.6,37.2,4.3
			c16.9-0.3,20.9-0.7,30-2.9c27.2-6.7,39.3-13.3,57.2-31.4c17.3-17.4,27.3-31.3,39.1-54.5c12.5-24.5,18.3-45.3,19.4-69.3
			c2-44.8-13.8-80.5-44.7-100.9c-10.2-6.8-34.8-17.6-39.8-17.6c-2.6,0-9.3,3.8-22.6,12.8c-12.1,8.1-13.1,8.5-22.1,8.5
			c-8.4,0-39.2-5.4-42-7.3c-0.5-0.4-3.2-1.1-5.9-1.5c-9.1-1.3-13.6-3.9-23.3-13.4c-5.1-5-9.8-9.1-10.5-9.1
			C194.6,95,189.5,96.8,184,98.9z"/>
		
			<linearGradient id="region-1-6_00000160192344658282985810000005832193885096715955_" gradientUnits="userSpaceOnUse" x1="295.1132" y1="520.5565" x2="296.1723" y2="520.4108" gradientTransform="matrix(50 0 0 32.0659 -14447 -16313.0967)">
			<stop  offset="0" style="stop-color:#E0CFCD"/>
			<stop  offset="1" style="stop-color:#F6EBE9"/>
		</linearGradient>
		<path id="region-1-6" style="fill:url(#region-1-6_00000160192344658282985810000005832193885096715955_);" d="M330.5,364
			c-3,2.1-6.6,4.1-8,4.5c-3.6,0.9-11,3.9-11,4.5c0,0.3,3.1,1.9,6.8,3.7c3.7,1.7,9.3,4.4,12.5,5.9c3.3,1.6,7.8,4.5,10.2,6.6
			c2.6,2.3,4.6,3.4,5,2.8c0.3-0.6,2.5-2,4.7-3.1c5.3-2.7,10.8-8.3,10.8-11c0-3.3-7.5-9.9-16.1-14.2c-4.2-2-8-3.7-8.5-3.6
			C336.4,360.1,333.5,361.9,330.5,364z"/>
		
			<linearGradient id="region-1-7_00000070076250253434904150000005205320738772517788_" gradientUnits="userSpaceOnUse" x1="296.01" y1="519.9688" x2="296.01" y2="520.9688" gradientTransform="matrix(53.1006 0 0 32 -15530.373 -16278)">
			<stop  offset="0" style="stop-color:#D9CBC9;stop-opacity:0.998"/>
			<stop  offset="1" style="stop-color:#E7DAD7;stop-opacity:0.999"/>
		</linearGradient>
		<path id="region-1-7" style="fill:url(#region-1-7_00000070076250253434904150000005205320738772517788_);" d="M169.4,364.5
			c-8.2,5.9-9.9,10.8-6,17.2c2,3.3,11.9,11.3,13.9,11.3c0.7,0,5.3-2.2,10.4-4.8c5.1-2.6,13.2-6.3,18.1-8.2c4.8-1.9,8.7-3.7,8.7-4.1
			c0-0.3-2.1-1.2-4.7-1.9c-2.7-0.8-6.8-2.2-9.3-3.3c-2.5-1-5.5-1.9-6.8-1.9c-1.2,0-5.7-1.8-9.9-3.9c-4.3-2.2-8.2-3.9-8.8-3.9
			C174.5,361,171.9,362.6,169.4,364.5z"/>
		
			<linearGradient id="region-1-8_00000138559780856402085770000000253365519118163092_" gradientUnits="userSpaceOnUse" x1="299.9493" y1="519.4705" x2="299.9987" y2="520.7528" gradientTransform="matrix(190.9181 0 0 63.414 -57009.2031 -32569.748)">
			<stop  offset="0" style="stop-color:#D3B6B1"/>
			<stop  offset="1" style="stop-color:#FFE4DE"/>
		</linearGradient>
		<path id="region-1-8" style="fill:url(#region-1-8_00000138559780856402085770000000253365519118163092_);" d="M305,374.6
			c-2.2,0.9-8.7,2.7-14.5,4.1c-9.1,2.2-13.1,2.6-30,2.9c-19.8,0.3-22.8-0.1-36.9-4.2c-2.9-0.9-6.5-1.3-8-0.9
			c-4.4,1.1-16.1,5.8-15.6,6.3c0.6,0.6-20.5,11.2-22.2,11.2c-0.6,0-3.5,2.1-6.3,4.7c-4.3,4.1-5.1,5.5-5.7,9.5
			c-0.7,5.9,0.9,8.7,7.5,12.9c5.8,3.7,23.5,9.4,33.4,10.8c27.7,3.9,89.5,5.9,110.6,3.7c19.1-2,31.6-7,36.2-14.3
			c6.2-9.7,2.9-19.7-9-27.9c-1.9-1.4-6.2-4.5-9.5-6.9c-5.7-4.2-23.3-13.6-25.1-13.4C309.4,373.1,307.2,373.8,305,374.6z"/>
	</g>
	<g id="layer-2">
		
			<linearGradient id="region-2-1_00000033336817918737938610000013637430435320557745_" gradientUnits="userSpaceOnUse" x1="295.2031" y1="519.6596" x2="295.2031" y2="520.6596" gradientTransform="matrix(46.296 0 0 46.9997 -13402.9062 -24345.875)">
			<stop  offset="0" style="stop-color:#7D5A11;stop-opacity:0.276"/>
			<stop  offset="1" style="stop-color:#634000;stop-opacity:0.378"/>
		</linearGradient>
		<path id="region-2-1" style="fill:url(#region-2-1_00000033336817918737938610000013637430435320557745_);" d="M275,80
			c-1.6,1.1-6.1,4.9-10,8.4c-3.8,3.6-9.6,8.9-12.7,11.7c-4,3.6-6.7,7.2-8.8,11.5c-3.9,8.3-3.8,9.2,0.8,9.9c2,0.3,7.1,1.3,11.3,2.1
			c11.6,2.2,11.4,2.3,8.3-3.8c-3.5-7-2.9-11.1,3.5-24c3.7-7.3,6.3-11.1,8.8-13.1c4.2-3.1,8.3-3.6,8.3-1c0.1,1.7,0.2,1.6,1.5-0.1
			c0.8-1,1.2-2.3,0.9-2.7C285.9,77.2,278.1,78,275,80z"/>
		
			<linearGradient id="region-2-2_00000100357307908086006390000015689617889949637789_" gradientUnits="userSpaceOnUse" x1="298.4932" y1="519.481" x2="300.1354" y2="519.7039" gradientTransform="matrix(118.674 0 0 281.4688 -35331.1758 -146018.2812)">
			<stop  offset="0" style="stop-color:#FCD4D3;stop-opacity:0.76"/>
			<stop  offset="1" style="stop-color:#F88986;stop-opacity:0.337"/>
		</linearGradient>
		<path id="region-2-2" style="fill:url(#region-2-2_00000100357307908086006390000015689617889949637789_);" d="M184,98.9
			c-18,6.8-28,13.2-42.3,26.6c-25.3,23.8-40.5,56.6-43,93c-2,28.3,1.9,47.7,14.4,73c14.5,29.4,36,52.3,64.1,68.3
			c9.3,5.3,24.6,12,32.6,14.2c2.6,0.7,4.7,1.6,4.7,2c0,0.5,0.8,0.6,1.9,0.3c1.4-0.3-0.2-1.6-5.8-4.4c-10.2-5.3-14.9-10.5-18.1-20
			c-2.1-6.5-2.5-9.6-2.8-25l-0.4-17.6l4.1-12.3c2.3-6.7,4.1-13,4.1-14s-1.1-4.1-2.5-6.8c-1.4-2.8-2.5-5.5-2.5-6.2
			c0-1.1-3.5-9.1-6.8-15.8c-0.9-1.8-3.6-5.7-6-8.7c-6.6-8.3-10.7-9.5-33-9.5c-21.5,0-30.5-2-35.3-7.8c-3.8-4.5-4.5-15.4-1.8-27.8
			c3.6-16.5,3.4-16.2,23.6-38.8c5-5.6,10.9-11.5,13-13.1c2.1-1.6,4-3.2,4.3-3.5c0.3-0.4,4.7-4.3,9.7-8.8c6.2-5.4,10.5-8.4,13-9
			c4.8-1.2,18.1-3.2,21-3.2c3,0,11.3-3.9,15-7.2c1-0.8,2.6-1.8,3.6-2.1c1.4-0.5,1.6-1.1,0.8-2.5c-1.4-2.7-17-17.2-18.4-17.2
			C194.5,95,189.5,96.8,184,98.9z"/>
		
			<linearGradient id="region-2-3_00000041981842573089970730000014227815785465758630_" gradientUnits="userSpaceOnUse" x1="298.6947" y1="519.1271" x2="298.6947" y2="520.1271" gradientTransform="matrix(103.9197 0 0 243.8199 -30685.9316 -126468.5391)">
			<stop  offset="0" style="stop-color:#F8CCD3;stop-opacity:0.625"/>
			<stop  offset="1" style="stop-color:#FF8F7A;stop-opacity:0.849"/>
		</linearGradient>
		<path id="region-2-3" style="fill:url(#region-2-3_00000041981842573089970730000014227815785465758630_);" d="M313,108.8
			c-3.3,2-7.1,4.4-8.3,5.3l-2.3,1.6l3.2,0.7c1.7,0.3,5.2,0.6,7.8,0.6c7.6,0,20,3.7,27.4,8.1c10.9,6.5,25.6,18,33.2,26.1
			c14.7,15.5,23.1,42.1,20.3,64.6c-1.5,12.1-4.4,16.7-13.8,22.4c-8.8,5.3-14.6,6.8-25.8,6.8c-9,0-9.4,0.1-7.9,1.7
			c2.2,2.6,13.2,24.9,15,30.8c6.6,21.1,6.3,30.2-1.9,47c-2.3,4.9-6.5,12.4-9.3,16.5c-2.7,4.1-4.8,7.6-4.6,7.8
			c0.6,0.6,12.6-12.5,18.8-20.6c18.8-24.5,34.2-57.1,39.2-83.3c2.3-12,3-32.4,1.6-44.9c-3.9-34.4-18.9-60.8-44.1-77.4
			c-10.4-6.9-34.9-17.6-40-17.6C320.1,105.1,316.3,106.7,313,108.8z"/>
		
			<linearGradient id="region-2-4_00000157273994208601666220000009154908022292651924_" gradientUnits="userSpaceOnUse" x1="288.8991" y1="522.4465" x2="288.8991" y2="523.4465" gradientTransform="matrix(23.135 0 0 8.9947 -6453.3311 -4581.6631)">
			<stop  offset="0" style="stop-color:#E86C4B;stop-opacity:0.804"/>
			<stop  offset="1" style="stop-color:#EE664B;stop-opacity:0.795"/>
		</linearGradient>
		<path id="region-2-4" style="fill:url(#region-2-4_00000157273994208601666220000009154908022292651924_);" d="M222.2,118.9
			c-1.5,1-3,2.1-3.3,2.4c-0.9,0.9,3.9,2.6,12.4,4.4c7.8,1.6,9.5,1.1,10.5-2.7c0.4-1.6-0.1-2.1-2.1-2.6c-1.5-0.3-3.6-0.9-4.7-1.4
			C230.6,117.1,225.1,117.1,222.2,118.9z"/>
		
			<linearGradient id="region-2-5_00000119836566155256806740000004131044771418971270_" gradientUnits="userSpaceOnUse" x1="289.4863" y1="521.108" x2="290.0606" y2="522.5138" gradientTransform="matrix(24.675 0 0 13.8958 -6868.9946 -7116.3989)">
			<stop  offset="0" style="stop-color:#E06A56;stop-opacity:0.809"/>
			<stop  offset="1" style="stop-color:#EE5B48;stop-opacity:0.788"/>
		</linearGradient>
		<path id="region-2-5" style="fill:url(#region-2-5_00000119836566155256806740000004131044771418971270_);" d="M268.2,126.7
			c-3.1,0.8-1.4,3.5,5,7.9c8.5,5.8,12.4,7,15.7,4.8c3-1.9,3.1-2.5,1.2-6.2c-2.7-5.2-4.8-6.3-12.7-6.6
			C273.3,126.5,269.2,126.5,268.2,126.7z"/>
		
			<linearGradient id="region-2-6_00000086674513566626964590000009806077400869935765_" gradientUnits="userSpaceOnUse" x1="298.0875" y1="520.0327" x2="299.1904" y2="519.7672" gradientTransform="matrix(103.3838 0 0 74.2315 -30688.9297 -38406.0469)">
			<stop  offset="0" style="stop-color:#FFA391;stop-opacity:0.637"/>
			<stop  offset="1" style="stop-color:#FF6655;stop-opacity:0.875"/>
		</linearGradient>
		<path id="region-2-6" style="fill:url(#region-2-6_00000086674513566626964590000009806077400869935765_);" d="M162.8,152.1
			c-6.2,1.8-11.4,5.7-15.7,11.6c-8.2,11.2-9,13.4-9,26.3c-0.1,10.6,0.1,11.9,2.6,16.6c3.2,6.1,11.7,13.6,17.3,15.4
			c2.2,0.7,4.6,1.8,5.4,2.4c0.9,0.7,6.4,1,15.5,0.9c15.9-0.1,23.9-2.1,39.1-9.3c12.7-6.1,16.1-9,20.2-17.5
			c5.4-11.6,4.1-21.5-3.9-29.1c-4-3.8-15.4-9.7-22.9-11.8c-3-0.8-7.9-2.1-10.9-3c-5.6-1.5-24.6-3.7-30.9-3.5
			C167.6,151.1,164.6,151.6,162.8,152.1z"/>
		
			<linearGradient id="region-2-7_00000169541907884494842090000001583485579060546195_" gradientUnits="userSpaceOnUse" x1="296.5845" y1="519.8766" x2="297.6999" y2="519.9951" gradientTransform="matrix(66.7144 0 0 69.6187 -19472.7422 -35990.7734)">
			<stop  offset="0" style="stop-color:#FFAFA5;stop-opacity:0.69"/>
			<stop  offset="1" style="stop-color:#FFD6CC;stop-opacity:0.843"/>
		</linearGradient>
		<path id="region-2-7" style="fill:url(#region-2-7_00000169541907884494842090000001583485579060546195_);" d="M359,173.6
			c-1.6,0.9-4.8,3.4-7,5.5c-6.1,5.8-13.2,10.2-22,13.8c-13.7,5.5-15.6,9.8-10.9,24.5c2.6,8.1,3.6,9.8,9.2,15.7
			c5.9,6.3,6.6,6.7,12.8,7.9c10,1.9,21.1,0.8,27.4-2.6c9.4-5.1,15-17.3,15-33c0-13.7-4.2-26.3-10.3-30.6
			C369.3,172,362.8,171.5,359,173.6z"/>
	</g>
	<g id="layer-3">
		
			<linearGradient id="region-3-1_00000063629926514785010580000001791476350917961609_" gradientUnits="userSpaceOnUse" x1="295.3341" y1="520.6402" x2="295.3341" y2="521.6402" gradientTransform="matrix(47.28 0 0 18.9 -13773.0576 -9744.0127)">
			<stop  offset="0" style="stop-color:#EF4C24;stop-opacity:0.775"/>
			<stop  offset="1" style="stop-color:#FA4919;stop-opacity:0.812"/>
		</linearGradient>
		<path id="region-3-1" style="fill:url(#region-3-1_00000063629926514785010580000001791476350917961609_);" d="M189.5,99.7
			c-13.8,7.4-25.3,15.3-22.3,15.3c0.5,0,3.2-0.7,5.9-1.5c3.5-1.1,9.9-1.5,22.9-1.5l18-0.1l-8.2-7.9c-4.5-4.4-8.6-7.9-9-7.9
			C196.4,96.2,193.1,97.8,189.5,99.7z"/>
	</g>
</g>
<g id="图层_3_00000045600335763150994140000009633613591109594019_">
	<g id="layer-1_00000109020174170584700750000010361487058354398596_">
		
			<linearGradient id="region-1-1_00000151507917700639406110000014840303554044126875_" gradientUnits="userSpaceOnUse" x1="303.6157" y1="519.3361" x2="304.649" y2="520.3098" gradientTransform="matrix(77.1507 0 0 84.6361 -22774.5137 -43923.8711)">
			<stop  offset="0" style="stop-color:#948E53"/>
			<stop  offset="1" style="stop-color:#565115"/>
		</linearGradient>
		
			<path id="region-1-1_00000168087351427737683310000014366810514493795218_" style="fill:url(#region-1-1_00000151507917700639406110000014840303554044126875_);" d="
			M654.4,27.5c-0.5,9.8,2.7,18.4,9.5,25.5c2.4,2.5,5.4,6.1,6.7,8c5.3,7.9,17.5,21.3,24.2,26.9c4,3.2,9.6,8.4,12.6,11.5
			c3.4,3.6,7,6.4,10,7.6c5.1,2,14.1,3.6,14.1,2.6c0-1.9-12.7-13.5-20-18.3c-6.4-4.2-13.7-10.8-29.9-27.2
			C669.9,52.2,659.7,41.4,659,40c-0.7-1.4-1.5-4.9-1.8-7.9C656.5,25.9,654.6,22.9,654.4,27.5z"/>
		
			<linearGradient id="region-1-2_00000122685200465215506650000008867574673014102966_" gradientUnits="userSpaceOnUse" x1="304.9996" y1="519.2877" x2="304.9996" y2="520.2877" gradientTransform="matrix(59 0 0 79.9625 -17250.0078 -41491.4766)">
			<stop  offset="0" style="stop-color:#6F885D;stop-opacity:0.993"/>
			<stop  offset="1" style="stop-color:#7D903F;stop-opacity:0.995"/>
		</linearGradient>
		
			<path id="region-1-2_00000075852726930701131750000016949508788539990188_" style="fill:url(#region-1-2_00000122685200465215506650000008867574673014102966_);" d="
			M715.5,33.6c0,0.9,1.8,4.5,3.9,7.9c5.4,8.5,9.4,21.3,12.1,38.5c0.6,4.1,1.5,9.1,2,11c2.1,9,2.1,8.9,0,10c-1.4,0.8-3.1,0.8-5.7,0.1
			c-2-0.6-3.8-0.9-4-0.7c-0.8,0.8,10.6,11.6,12.3,11.6c1.4,0,2.6-1.6,4.4-6.3c1.8-4.6,4-7.7,8.6-12.2c7-6.8,20.1-18.9,22.5-20.8
			c0.9-0.6,1.9-2.4,2.3-3.8l0.6-2.6l-8.3-0.6c-9.1-0.8-10.7,0-10.7,5.4c0,3.8-1.9,7.7-4.1,8.4c-3,1-5.5-1.1-7.4-6.2
			c-3.5-9.2-10.7-22.2-15.3-27.6c-6.8-7.9-7.9-9.3-9.2-11.6C718.2,31.6,715.5,31.3,715.5,33.6z"/>
		
			<linearGradient id="region-1-3_00000166647221841832411050000000265954422264117946_" gradientUnits="userSpaceOnUse" x1="302.7395" y1="520.3618" x2="303.5526" y2="519.1155" gradientTransform="matrix(128.6085 0 0 83.8521 -38178.9609 -43507.8828)">
			<stop  offset="0" style="stop-color:#7A6F34"/>
			<stop  offset="1" style="stop-color:#9FB983"/>
		</linearGradient>
		
			<path id="region-1-3_00000167378287675906355000000015910913849156115622_" style="fill:url(#region-1-3_00000166647221841832411050000000265954422264117946_);" d="
			M837.8,35.4c-2.3,0.8-6.4,2.6-9,4.2c-9.1,5.2-14.1,10.2-39.2,38.2c-6.9,7.8-8.5,8.7-12.5,7.2s-5.2-3.1-4.8-6.2
			c0.8-5.1,10.1-9.7,10.2-5.1c0.1,1.7,0.2,1.6,1.5-0.1c2-2.7,1-3.6-3.8-3.6c-5,0-7.8,1.7-17.2,10.4c-3.8,3.6-9.6,8.9-12.7,11.7
			c-4,3.6-6.7,7.2-8.8,11.5c-3.9,8.3-3.8,9.2,0.8,9.9c2,0.3,8.4,1.6,14.2,2.7c12.7,2.5,25.3,2.7,29.6,0.5c1.6-0.8,6.6-4,11-6.9
			c4.4-3,10.9-7.1,14.4-9.3c3.6-2.1,8.6-5.6,11.1-7.7c5.3-4.3,5.9-4.5,5.9-2.1c0.1,1.7,0.1,1.7,1.1,0c2.2-3.8-1.9-5-6.1-1.7
			c-3.9,3.1-4.4,2.3-1.2-1.8c1.7-2,5.4-5.1,8.4-6.8c6.4-3.8,14.2-8.3,17.7-10.4c5.9-3.5,7.8-5.2,11.6-10.2c2.2-2.9,4.9-6.1,6-7
			c1.6-1.4,1.7-1.7,0.5-1.8c-0.9,0-4,2.5-7,5.6c-4.5,4.6-7.9,6.8-18.5,11.9s-14.8,7.8-22.5,14.5c-5.2,4.5-10.9,8.9-12.6,9.7
			c-2.9,1.4-3.4,1.4-5.8-0.3c-1.4-1.1-2.6-2.1-2.6-2.4s2.5-3.7,5.5-7.5c7.4-9.4,17.7-24.8,20.9-31.2c1.8-3.6,4.4-6.6,8.6-9.8
			c6.7-5.2,9.9-6.3,15-5.5c2.9,0.4,3.6,1,4,3.5l0.6,3l1.3-2.4c1.1-2,1.1-2.6-0.2-3.9C851.1,34.2,842.9,33.7,837.8,35.4z"/>
		
			<linearGradient id="region-1-4_00000147926573895748887570000016694053610138657981_" gradientUnits="userSpaceOnUse" x1="307.8019" y1="519.8218" x2="308.3438" y2="521.1124" gradientTransform="matrix(31.8179 0 0 24.1346 -9080.3096 -12471.5869)">
			<stop  offset="0" style="stop-color:#F36D41"/>
			<stop  offset="1" style="stop-color:#F1592C"/>
		</linearGradient>
		
			<path id="region-1-4_00000163782399793830793260000001117715790704401067_" style="fill:url(#region-1-4_00000147926573895748887570000016694053610138657981_);" d="
			M730.3,77.6c-0.4,0.6-3.8,1.4-7.5,1.7c-7.9,0.8-19,3.7-19.4,5.2c-0.2,0.5,3.2,3.4,7.6,6.2c4.3,2.9,8.8,6.1,9.9,7.2
			c4.9,4.5,15.5,4.7,14.2,0.3c-0.5-1.6-3.1-15.3-3.8-19.7C731.1,77.3,730.7,76.9,730.3,77.6z"/>
		
			<linearGradient id="region-1-5_00000164489707186777852790000015503658371428820918_" gradientUnits="userSpaceOnUse" x1="302.17" y1="519.0802" x2="302.17" y2="520.0802" gradientTransform="matrix(308.1651 0 0 286.6843 -92367.9844 -148725.1406)">
			<stop  offset="0" style="stop-color:#F53606;stop-opacity:0.992"/>
			<stop  offset="1" style="stop-color:#DB3A1F;stop-opacity:0.998"/>
		</linearGradient>
		
			<path id="region-1-5_00000060712446624852436620000011798616397435511955_" style="fill:url(#region-1-5_00000164489707186777852790000015503658371428820918_);" d="
			M682,90.9c-18,6.8-28,13.2-42.3,26.6c-25.3,23.8-40.5,56.6-43,93c-2,28.3,1.9,47.7,14.4,73c14.5,29.4,36,52.3,64.1,68.3
			c9.3,5.3,24.6,12,32.6,14.2c2.6,0.7,4.7,1.6,4.7,2.1s0.7,0.6,1.6,0.2c0.8-0.3,4.1,0.2,7.2,1c15,4.3,17.3,4.6,37.2,4.3
			c16.9-0.3,20.9-0.7,30-2.9c27.2-6.7,39.3-13.3,57.2-31.4c17.3-17.4,27.3-31.3,39.1-54.5c12.5-24.5,18.3-45.3,19.4-69.3
			c2-44.8-13.8-80.5-44.7-100.9c-10.2-6.8-34.8-17.6-39.8-17.6c-2.6,0-9.3,3.8-22.6,12.8c-12.1,8.1-13.1,8.5-22.1,8.5
			c-8.4,0-39.2-5.4-42-7.3c-0.5-0.4-3.2-1.1-5.9-1.5c-9.1-1.3-13.6-3.9-23.3-13.4c-5.1-5-9.8-9.1-10.5-9.1S687.5,88.8,682,90.9z"/>
		
			<linearGradient id="region-1-6_00000043424879092354224090000017903992877762444194_" gradientUnits="userSpaceOnUse" x1="305.0732" y1="520.3069" x2="306.1323" y2="520.1614" gradientTransform="matrix(50 0 0 32.0659 -14447 -16313.0967)">
			<stop  offset="0" style="stop-color:#E0CFCD"/>
			<stop  offset="1" style="stop-color:#F6EBE9"/>
		</linearGradient>
		
			<path id="region-1-6_00000117657891671237876050000015815919418058881418_" style="fill:url(#region-1-6_00000043424879092354224090000017903992877762444194_);" d="
			M828.5,356c-3,2.1-6.6,4.1-8,4.5c-3.6,0.9-11,3.9-11,4.5c0,0.3,3.1,1.9,6.8,3.7c3.7,1.7,9.3,4.4,12.5,5.9
			c3.3,1.6,7.8,4.5,10.2,6.6c2.6,2.3,4.6,3.4,5,2.8c0.3-0.6,2.5-2,4.7-3.1c5.3-2.7,10.8-8.3,10.8-11c0-3.3-7.5-9.9-16.1-14.2
			c-4.2-2-8-3.7-8.5-3.6C834.4,352.1,831.5,353.9,828.5,356z"/>
		
			<linearGradient id="region-1-7_00000044176362634269135060000000619613531649770888_" gradientUnits="userSpaceOnUse" x1="305.3885" y1="519.7188" x2="305.3885" y2="520.7188" gradientTransform="matrix(53.1006 0 0 32 -15530.373 -16278)">
			<stop  offset="0" style="stop-color:#D9CBC9;stop-opacity:0.998"/>
			<stop  offset="1" style="stop-color:#E7DAD7;stop-opacity:0.999"/>
		</linearGradient>
		
			<path id="region-1-7_00000115514064820607262350000007756234334113809817_" style="fill:url(#region-1-7_00000044176362634269135060000000619613531649770888_);" d="
			M667.4,356.5c-8.2,5.9-9.9,10.8-6,17.2c2,3.3,11.9,11.3,13.9,11.3c0.7,0,5.3-2.2,10.4-4.8c5.1-2.6,13.2-6.3,18.1-8.2
			c4.8-1.9,8.7-3.7,8.7-4.1c0-0.3-2.1-1.2-4.7-1.9c-2.7-0.8-6.8-2.2-9.3-3.3c-2.5-1-5.5-1.9-6.8-1.9c-1.2,0-5.7-1.8-9.9-3.9
			c-4.3-2.2-8.2-3.9-8.8-3.9C672.5,353,669.9,354.6,667.4,356.5z"/>
		
			<linearGradient id="region-1-8_00000096775685811224188740000015347702819658310563_" gradientUnits="userSpaceOnUse" x1="302.5578" y1="519.3444" x2="302.6072" y2="520.6266" gradientTransform="matrix(190.9181 0 0 63.414 -57009.2031 -32569.748)">
			<stop  offset="0" style="stop-color:#D3B6B1"/>
			<stop  offset="1" style="stop-color:#FFE4DE"/>
		</linearGradient>
		
			<path id="region-1-8_00000137846741603758392420000004078977350564293035_" style="fill:url(#region-1-8_00000096775685811224188740000015347702819658310563_);" d="
			M803,366.6c-2.2,0.9-8.7,2.7-14.5,4.1c-9.1,2.2-13.1,2.6-30,2.9c-19.8,0.3-22.8-0.1-36.9-4.2c-2.9-0.9-6.5-1.3-8-0.9
			c-4.4,1.1-16.1,5.8-15.6,6.3c0.6,0.6-20.5,11.2-22.2,11.2c-0.6,0-3.5,2.1-6.3,4.7c-4.3,4.1-5.1,5.5-5.7,9.5
			c-0.7,5.9,0.9,8.7,7.5,12.9c5.8,3.7,23.5,9.4,33.4,10.8c27.7,3.9,89.5,5.9,110.6,3.7c19.1-2,31.6-7,36.2-14.3
			c6.2-9.7,2.9-19.7-9-27.9c-1.9-1.4-6.2-4.5-9.5-6.9c-5.7-4.2-23.3-13.6-25.1-13.4C807.4,365.1,805.2,365.8,803,366.6z"/>
	</g>
	<g id="layer-2_00000125587054637269091490000014808683659166297233_">
		
			<linearGradient id="region-2-1_00000024721193404992648200000017021471419053047957_" gradientUnits="userSpaceOnUse" x1="317.2352" y1="519.7234" x2="317.2352" y2="520.7234" gradientTransform="matrix(46.296 0 0 46.9997 -13402.9062 -24345.875)">
			<stop  offset="0" style="stop-color:#7D5A11;stop-opacity:0.276"/>
			<stop  offset="1" style="stop-color:#634000;stop-opacity:0.378"/>
		</linearGradient>
		
			<path id="region-2-1_00000165917693435482787760000002693643674676243624_" style="fill:url(#region-2-1_00000024721193404992648200000017021471419053047957_);stroke:#000000;stroke-miterlimit:10;" d="
			M1295,83c-1.6,1.1-6.1,4.9-10,8.4c-3.8,3.6-9.6,8.9-12.7,11.7c-4,3.6-6.7,7.2-8.8,11.5c-3.9,8.3-3.8,9.2,0.8,9.9
			c2,0.3,7.1,1.3,11.3,2.1c11.6,2.2,11.4,2.3,8.3-3.8c-3.5-7-2.9-11.1,3.5-24c3.7-7.3,6.3-11.1,8.8-13.1c4.2-3.1,8.3-3.6,8.3-1
			c0.1,1.7,0.2,1.6,1.5-0.1c0.8-1,1.2-2.3,0.9-2.7C1305.9,80.2,1298.1,81,1295,83z"/>
		
			<linearGradient id="region-2-2_00000003068363888344844360000009621756377883425695_" gradientUnits="userSpaceOnUse" x1="307.0881" y1="519.4916" x2="308.7303" y2="519.7145" gradientTransform="matrix(118.674 0 0 281.4688 -35331.1758 -146018.2812)">
			<stop  offset="0" style="stop-color:#FCD4D3;stop-opacity:0.76"/>
			<stop  offset="1" style="stop-color:#F88986;stop-opacity:0.337"/>
		</linearGradient>
		
			<path id="region-2-2_00000079453377963751395900000011198175034565820062_" style="fill:url(#region-2-2_00000003068363888344844360000009621756377883425695_);stroke:#000000;stroke-miterlimit:10;" d="
			M1204,101.9c-18,6.8-28,13.2-42.3,26.6c-25.3,23.8-40.5,56.6-43,93c-2,28.3,1.9,47.7,14.4,73c14.5,29.4,36,52.3,64.1,68.3
			c9.3,5.3,24.6,12,32.6,14.2c2.6,0.7,4.7,1.6,4.7,2c0,0.5,0.8,0.6,1.9,0.3c1.4-0.3-0.2-1.6-5.8-4.4c-10.2-5.3-14.9-10.5-18.1-20
			c-2.1-6.5-2.5-9.6-2.8-25l-0.4-17.6l4.1-12.3c2.3-6.7,4.1-13,4.1-14s-1.1-4.1-2.5-6.8c-1.4-2.8-2.5-5.5-2.5-6.2
			c0-1.1-3.5-9.1-6.8-15.8c-0.9-1.8-3.6-5.7-6-8.7c-6.6-8.3-10.7-9.5-33-9.5c-21.5,0-30.5-2-35.3-7.8c-3.8-4.5-4.5-15.4-1.8-27.8
			c3.6-16.5,3.4-16.2,23.6-38.8c5-5.6,10.9-11.5,13-13.1s4-3.2,4.3-3.5c0.3-0.4,4.7-4.3,9.7-8.8c6.2-5.4,10.5-8.4,13-9
			c4.8-1.2,18.1-3.2,21-3.2c3,0,11.3-3.9,15-7.2c1-0.8,2.6-1.8,3.6-2.1c1.4-0.5,1.6-1.1,0.8-2.5c-1.4-2.7-17-17.2-18.4-17.2
			C1214.5,98,1209.5,99.8,1204,101.9z"/>
		
			<linearGradient id="region-2-3_00000117651699409334063800000016198480960764367781_" gradientUnits="userSpaceOnUse" x1="308.51" y1="519.1395" x2="308.51" y2="520.1395" gradientTransform="matrix(103.9197 0 0 243.8199 -30685.9316 -126468.5391)">
			<stop  offset="0" style="stop-color:#F8CCD3;stop-opacity:0.625"/>
			<stop  offset="1" style="stop-color:#FF8F7A;stop-opacity:0.849"/>
		</linearGradient>
		
			<path id="region-2-3_00000109736376899474188210000013278400635550942120_" style="fill:url(#region-2-3_00000117651699409334063800000016198480960764367781_);stroke:#000000;stroke-miterlimit:10;" d="
			M1333,111.8c-3.3,2-7.1,4.4-8.3,5.3l-2.3,1.6l3.2,0.7c1.7,0.3,5.2,0.6,7.8,0.6c7.6,0,20,3.7,27.4,8.1c10.9,6.5,25.6,18,33.2,26.1
			c14.7,15.5,23.1,42.1,20.3,64.6c-1.5,12.1-4.4,16.7-13.8,22.4c-8.8,5.3-14.6,6.8-25.8,6.8c-9,0-9.4,0.1-7.9,1.7
			c2.2,2.6,13.2,24.9,15,30.8c6.6,21.1,6.3,30.2-1.9,47c-2.3,4.9-6.5,12.4-9.3,16.5c-2.7,4.1-4.8,7.6-4.6,7.8
			c0.6,0.6,12.6-12.5,18.8-20.6c18.8-24.5,34.2-57.1,39.2-83.3c2.3-12,3-32.4,1.6-44.9c-3.9-34.4-18.9-60.8-44.1-77.4
			c-10.4-6.9-34.9-17.6-40-17.6C1340.1,108.1,1336.3,109.7,1333,111.8z"/>
		
			<linearGradient id="region-2-4_00000008860664134977550110000004413077265731813808_" gradientUnits="userSpaceOnUse" x1="332.9882" y1="522.78" x2="332.9882" y2="523.78" gradientTransform="matrix(23.135 0 0 8.9947 -6453.3311 -4581.6631)">
			<stop  offset="0" style="stop-color:#E86C4B;stop-opacity:0.804"/>
			<stop  offset="1" style="stop-color:#EE664B;stop-opacity:0.795"/>
		</linearGradient>
		
			<path id="region-2-4_00000101794410336561228800000013014125788618213779_" style="fill:url(#region-2-4_00000008860664134977550110000004413077265731813808_);stroke:#000000;stroke-miterlimit:10;" d="
			M1242.2,121.9c-1.5,1-3,2.1-3.3,2.4c-0.9,0.9,3.9,2.6,12.4,4.4c7.8,1.6,9.5,1.1,10.5-2.7c0.4-1.6-0.1-2.1-2.1-2.6
			c-1.5-0.3-3.6-0.9-4.7-1.4C1250.6,120.1,1245.1,120.1,1242.2,121.9z"/>
		
			<linearGradient id="region-2-5_00000044869714082023836540000010897833908567984268_" gradientUnits="userSpaceOnUse" x1="330.8236" y1="521.3239" x2="331.3979" y2="522.7297" gradientTransform="matrix(24.675 0 0 13.8958 -6868.9946 -7116.3989)">
			<stop  offset="0" style="stop-color:#E06A56;stop-opacity:0.809"/>
			<stop  offset="1" style="stop-color:#EE5B48;stop-opacity:0.788"/>
		</linearGradient>
		
			<path id="region-2-5_00000014626079981672917940000008519103141646879899_" style="fill:url(#region-2-5_00000044869714082023836540000010897833908567984268_);stroke:#000000;stroke-miterlimit:10;" d="
			M1288.2,129.7c-3.1,0.8-1.4,3.5,5,7.9c8.5,5.8,12.4,7,15.7,4.8c3-1.9,3.1-2.5,1.2-6.2c-2.7-5.2-4.8-6.3-12.7-6.6
			C1293.3,129.5,1289.2,129.5,1288.2,129.7z"/>
		
			<linearGradient id="region-2-6_00000170965882954402777340000002999701849018531991_" gradientUnits="userSpaceOnUse" x1="307.9537" y1="520.0731" x2="309.0566" y2="519.8076" gradientTransform="matrix(103.3838 0 0 74.2315 -30688.9297 -38406.0469)">
			<stop  offset="0" style="stop-color:#FFA391;stop-opacity:0.637"/>
			<stop  offset="1" style="stop-color:#FF6655;stop-opacity:0.875"/>
		</linearGradient>
		
			<path id="region-2-6_00000081622963481271792170000007586327858850469522_" style="fill:url(#region-2-6_00000170965882954402777340000002999701849018531991_);stroke:#000000;stroke-miterlimit:10;" d="
			M1182.8,155.1c-6.2,1.8-11.4,5.7-15.7,11.6c-8.2,11.2-9,13.4-9,26.3c-0.1,10.6,0.1,11.9,2.6,16.6c3.2,6.1,11.7,13.6,17.3,15.4
			c2.2,0.7,4.6,1.8,5.4,2.4c0.9,0.7,6.4,1,15.5,0.9c15.9-0.1,23.9-2.1,39.1-9.3c12.7-6.1,16.1-9,20.2-17.5
			c5.4-11.6,4.1-21.5-3.9-29.1c-4-3.8-15.4-9.7-22.9-11.8c-3-0.8-7.9-2.1-10.9-3c-5.6-1.5-24.6-3.7-30.9-3.5
			C1187.6,154.1,1184.6,154.6,1182.8,155.1z"/>
		
			<linearGradient id="region-2-7_00000035519430812347155090000000881003573840232592_" gradientUnits="userSpaceOnUse" x1="311.8736" y1="519.9197" x2="312.989" y2="520.0381" gradientTransform="matrix(66.7144 0 0 69.6187 -19472.7422 -35990.7734)">
			<stop  offset="0" style="stop-color:#FFAFA5;stop-opacity:0.69"/>
			<stop  offset="1" style="stop-color:#FFD6CC;stop-opacity:0.843"/>
		</linearGradient>
		
			<path id="region-2-7_00000126290590846797225360000015704061351800292504_" style="fill:url(#region-2-7_00000035519430812347155090000000881003573840232592_);stroke:#000000;stroke-miterlimit:10;" d="
			M1379,176.6c-1.6,0.9-4.8,3.4-7,5.5c-6.1,5.8-13.2,10.2-22,13.8c-13.7,5.5-15.6,9.8-10.9,24.5c2.6,8.1,3.6,9.8,9.2,15.7
			c5.9,6.3,6.6,6.7,12.8,7.9c10,1.9,21.1,0.8,27.4-2.6c9.4-5.1,15-17.3,15-33c0-13.7-4.2-26.3-10.3-30.6
			C1389.3,175,1382.8,174.5,1379,176.6z"/>
	</g>
	<g id="layer-3_00000042719211050642406820000007951990067538731914_">
		
			<linearGradient id="region-3-1_00000142895628068691083850000008548910721635024805_" gradientUnits="userSpaceOnUse" x1="327.6734" y1="521.5397" x2="327.6734" y2="522.5397" gradientTransform="matrix(47.28 0 0 18.9 -13773.0576 -9744.0127)">
			<stop  offset="0" style="stop-color:#EF4C24;stop-opacity:0.775"/>
			<stop  offset="1" style="stop-color:#FA4919;stop-opacity:0.812"/>
		</linearGradient>
		
			<path id="region-3-1_00000089540181316082982540000009294394357461891467_" style="fill:url(#region-3-1_00000142895628068691083850000008548910721635024805_);" d="
			M1718.5,116.7c-13.8,7.4-25.3,15.3-22.3,15.3c0.5,0,3.2-0.7,5.9-1.5c3.5-1.1,9.9-1.5,22.9-1.5l18-0.1l-8.2-7.9
			c-4.5-4.4-8.6-7.9-9-7.9C1725.4,113.2,1722.1,114.8,1718.5,116.7z"/>
	</g>
</g>
</svg>
