<?xml version="1.0" encoding="utf-8"?>
<!-- Generator: Adobe Illustrator 26.5.0, SVG Export Plug-In . SVG Version: 6.00 Build 0)  -->
<svg version="1.1" id="图层_1" xmlns="http://www.w3.org/2000/svg" xmlns:xlink="http://www.w3.org/1999/xlink" x="0px" y="0px"
	 viewBox="0 0 3000 453.2" style="enable-background:new 0 0 3000 453.2;" xml:space="preserve">
<style type="text/css">
	.st0{fill:none;}
	.st1{fill:#D3D3D3;}
	.st2{fill:url(#SVGID_00000090293483284710191280000011573953562892300691_);}
	.st3{fill:url(#a8e0ba0b-2f5f-4125-b791-53658aeb3227_00000075138641535573831510000005017069487044303509_);}
	.st4{fill:url(#b2ee3517-4ff4-41c2-b327-2457e333a613_00000024705354150935801230000007487715050745160112_);}
	.st5{fill:url(#f4e69b82-90e6-415a-87f3-ec663c603f22_00000012458002473032907820000009941779761038443167_);}
	.st6{fill:url(#f5da6a02-7011-4a50-a7af-56fb8116ab34_00000134224137883205155960000010550645580449074592_);}
	.st7{fill:url(#abab69b1-aee8-48d8-a8ed-93beb8f3df14_00000134959554931353027070000016658660676895224217_);}
	.st8{fill:url(#a6501433-bda8-4673-b15f-96cda2db24e4_00000114035654563557436880000017301336279854539150_);}
	.st9{fill:url(#bb7b6427-e236-4d26-a578-f6f25950a1e8_00000064321929285724482630000008717941965501473167_);}
	.st10{fill:url(#e603ed84-a9f5-46d8-9c3b-f0dd488dd68c_00000070095885207629866460000001057813892759116163_);}
	.st11{fill:url(#aba72fc7-07b8-4306-a458-5af08758c9a9_00000107589689094781600310000017697106827195082129_);}
	.st12{fill:url(#a7053d3b-d294-44d0-a81f-eeaf520dd3cd_00000093134642606104684480000016509681944684161693_);}
	.st13{fill:url(#baca5011-e361-4d08-896e-0c55de8d6528_00000057844802725306623480000001022652603529462975_);}
	.st14{fill:url(#e167cf5a-4e24-41e5-a6d8-a6ac63fbc7ca_00000062905361026834597210000004112677131082468799_);}
	.st15{fill:url(#e65c454c-1cf0-484e-83c0-c0652575a079_00000092437517268976191320000003513345297781332129_);}
	.st16{fill:url(#f2551e8f-6475-4530-80aa-ad1f2a3fcb1d_00000147921730812339604330000018251440866403219377_);}
	
		.st17{fill:url(#b003d4ed-58c4-4e0b-9061-ae183fd87cee_00000170965743462453778190000018333645386603541176_);stroke:#231815;stroke-miterlimit:10;}
	.st18{fill:none;stroke:#231815;stroke-width:4;stroke-miterlimit:10;}
	.st19{fill:url(#acbadbfb-4466-45dd-8b4b-ab2fe7e6832a_00000026882531061097395980000004851028887153077690_);}
	.st20{fill:url(#ba679017-0c6e-44d4-a52e-557fc5d98cf0_00000167379255136042166380000012790045486415982264_);}
	.st21{fill:url(#be68b065-6b84-4182-a528-ba64beabefea_00000062164037093484483440000008275836498265227199_);}
	.st22{fill:url(#a6beef9d-5d59-4d04-a150-c71eff2e6008_00000142855690089536810420000005800065175597808770_);}
	.st23{fill:url(#f62eab12-0db7-4750-8136-56d65fac129d_00000093157207999875582120000011642500721211338910_);}
</style>
<pattern  y="453.2" width="40" height="40" patternUnits="userSpaceOnUse" id="SVGID_1_" viewBox="0 -40 40 40" style="overflow:visible;">
	<g>
		<rect y="-40" class="st0" width="40" height="40"/>
		<g>
			<rect y="-40" class="st0" width="40" height="40"/>
			<rect y="-40" class="st0" width="40" height="40"/>
			<rect y="-20" class="st1" width="20" height="20"/>
			<rect x="20" y="-40" class="st1" width="20" height="20"/>
		</g>
	</g>
</pattern>
<g id="be89960f-a948-4448-89a1-df902f604138">
	
		<pattern  id="SVGID_00000092432440430509431630000015047842689717526457_" xlink:href="#SVGID_1_" patternTransform="matrix(1 0 0 -1 12 -16859.4004)">
	</pattern>
	<rect x="600.5" style="fill:url(#SVGID_00000092432440430509431630000015047842689717526457_);" width="2399.5" height="453"/>
	<g id="e2656532-7e0c-421c-bc55-51077cea1cb1">
		
			<linearGradient id="a8e0ba0b-2f5f-4125-b791-53658aeb3227_00000126325964478017298820000015715429877304243587_" gradientUnits="userSpaceOnUse" x1="28.435" y1="487.3804" x2="28.435" y2="486.3806" gradientTransform="matrix(434.04 0 0 -357.14 -12023.332 174087.9688)">
			<stop  offset="0" style="stop-color:#CB4C4D"/>
			<stop  offset="1" style="stop-color:#911D22"/>
		</linearGradient>
		
			<path id="a8e0ba0b-2f5f-4125-b791-53658aeb3227" style="fill:url(#a8e0ba0b-2f5f-4125-b791-53658aeb3227_00000126325964478017298820000015715429877304243587_);" d="
			M188.8,30.7c3.4,2,6.6,4.2,9.8,6.5c2.8,2.1,5.6,3.8,6.2,3.8c0.6,0,1.1,0.3,1.4,0.8c1,1.1,2.1,2.2,3.3,3
			c8.1,6.3,15.5,13.5,22.1,21.4c4.6,5.3,8.4,10,8.4,10.3s2.2,3.2,4.8,6.3c2.7,3.2,5.2,6.6,7.4,10.2c1.3,2.3,2.8,4.5,4.5,6.5
			c2,2.5,3.7,5.2,5.2,8c1.2,2.3,2.5,4.4,4,6.5c0.8,0.9,1.4,1.9,1.9,3c0.7,1.4,2.6,4.8,4.2,7.5s3.6,6.6,4.5,8.5
			c3,6.4,6.5,14.7,6.9,16c1.4,5.2,4.6,12.3,6,13.2c0.6,0.4,0.7,0.7,0.3,0.8s0.6,2.3,2.2,5.1s3,5.5,3,6.1c0,1,5,10.8,6,11.9
			c1,1.6,2,3.3,2.8,5c3.5,6.9,6.6,12.4,7.3,13c0.5,0.6,0.9,1.3,1.2,2c0.4,0.8,2,3.8,3.6,6.5s3.9,6.9,5.1,9.2s2.6,4.2,3.1,4.2
			s0.9,0.7,0.9,1.5s0.5,1.5,1,1.5s1,0.7,1,1.6c0,1.2,5.7,9.8,13.2,19.9c0.4,0.6,2.5,3.5,4.7,6.5c6.5,8.9,7.6,10,17.5,16.7
			c7.9,5.3,17.3,9.4,24.7,10.7c1.3,0.2,2.5,0.5,3.7,1.1c2.1,1.3,21,2.4,28.1,1.6c4.1-0.5,8-0.5,8.5-0.1c0.7,0.5,1.6,0.8,2.5,0.8
			c0.8,0,5.1,0.7,9.5,1.6l10.5,2.1c3.8,0.8,10.3,2.3,12.5,2.9c12,3.5,22.5,6.2,27.5,7.1l9,1.5c3,0.5,7.3,1.2,9.5,1.6
			c2,0.3,3.9,0.8,5.7,1.6c1,0.5,1.8,0.6,1.8,0.3c0-1,7.1,3.6,12.3,8c2.7,2.2,5.5,5.4,6.4,7c2.1,4.1,1,13.5-2.3,18.9
			c-1.2,1.9-2.2,3.9-3.1,5.9c-0.3,1-1,1.8-1.5,1.8s-0.9,0.6-0.9,1.3c0,1.9-5.9,8.7-7.5,8.7c-1.1,0.3-2.1,1-2.7,1.9
			c-1.1,1.3-2.6,2.2-4.3,2.6c-2,0.5-4,1.3-5.9,2.2c-2.5,1.3-12.2,4.4-17.9,5.7c-1,0.2-2.6,0.7-3.6,1c-1.9,0.6-5.7,1.2-12.5,2
			c-6.2,0.7-21.6,3.5-25.5,4.5c-2.3,0.6-4.6,1.1-7,1.4c-1.9,0.2-5.1,0.7-7,1l-5.5,0.9c-1.1,0.2-3.6,0.6-5.5,0.9
			c-3.6,0.6-12.5,1.3-28.5,2.2c-15,0.9-62.8,1-66.5,0.1c-2.9-0.8-5.7-1.9-8.3-3.2c-1.8-1-3.8-1.9-5.8-2.5c-0.8-0.1-1.5-0.5-2.2-1
			l-7.4-6.1c-4-3.4-7.7-7.1-11-11.1c-4.5-5.7-15.9-23.3-18.5-28.8c-1.6-2.9-3.4-5.8-5.4-8.5c-2.3-3.3-5.8-9-7.8-12.8
			s-4.2-7.4-6.6-11c-4.3-5.9-14-20.9-14-21.5c0-0.5-5.1-8.4-16.1-24.9c-1.9-2.8-8.6-12.5-14.9-21.4s-12.7-17.9-14.2-20
			s-2.2-4-1.7-4.1s-0.6-1.9-2.4-3.8c-1.5-1.4-2.8-3-3.8-4.7c-0.6-1.7-14.9-18.3-24.5-28.3c-4.5-4.7-9.8-10.4-11.9-12.8
			c-3.5-4-11.6-10.2-13.3-10.2c-0.4,0-2.3-1.6-4.2-3.6c-2.2-2.2-4.7-4.1-7.4-5.6c-1.9-0.9-3.8-2-5.5-3.3c-1.2-0.9-2.6-1.6-4-2
			c-1.8-0.6-3.4-1.5-4.9-2.6c-1.7-1.2-3.8-1.8-5.9-1.9h-3.5l0.6-4.8c0.7-5.3,4.3-18.8,5.7-21.5c0.5-1.1,0.9-2.4,0.9-3.7
			c0.3-2,1-4,1.9-5.8c1-2.1,2.2-4.5,2.5-5.3c0.4-1,1-2,1.6-3c0.6-0.8,2.8-4.8,5-8.8c1.7-3.2,3.6-6.3,5.8-9.3
			c4.3-5.1,5.5-6.5,12.3-13.6c4.1-4.3,8.6-8.2,13.3-11.8c6.4-4.4,14.6-8.9,14.6-8.1c0,0.3,2.5-0.6,5.5-2s5.7-2,6.1-1.5
			s1.5,0.3,2.7-0.6C183.1,27.5,183.4,27.6,188.8,30.7"/>
		
			<linearGradient id="b2ee3517-4ff4-41c2-b327-2457e333a613_00000127044958547731139650000016550647365340266932_" gradientUnits="userSpaceOnUse" x1="27.6941" y1="486.2529" x2="28.6941" y2="486.1729" gradientTransform="matrix(92.35 0 0 -255.58 -2457.468 124528.7031)">
			<stop  offset="0" style="stop-color:#B92A2E"/>
			<stop  offset="1" style="stop-color:#921D22"/>
		</linearGradient>
		
			<path id="b2ee3517-4ff4-41c2-b327-2457e333a613" style="fill:url(#b2ee3517-4ff4-41c2-b327-2457e333a613_00000127044958547731139650000016550647365340266932_);" d="
			M111.1,130.9c1.5,1.1,3.1,2,4.9,2.6c1.4,0.4,2.8,1.1,4,2c1.7,1.3,3.6,2.4,5.5,3.3c2.7,1.5,5.2,3.4,7.4,5.6c1.9,2,3.8,3.6,4.2,3.6
			c1.7,0,9.8,6.2,13.3,10.2c2.1,2.4,7.4,8.1,11.9,12.8c9.6,10,24,26.6,24.5,28.3c1.1,1.7,2.3,3.3,3.8,4.7c3.6,3.6,3,5.3-0.9,2.6
			c-3.2-2.2-11.5-2-15.5,0.4c-6.4,3.9-7.8,9.3-12.8,48c-4.9,38.2-7.9,74.3-9.1,109.6l-0.6,19.1l-4.2,0.6c-3.2,0.3-6.5,0.3-9.7,0
			l-5.6-0.6l-0.6-18.6c-0.8-23.2-5.3-92-6.7-102.1c-0.6-4.1-1.3-11.1-1.6-15.5c-0.2-4-0.7-8.1-1.4-12.1c-0.7-3.6-1.2-7.3-1.5-11
			c-1.1-13.2-2-20.9-3.1-26.4c-0.3-1.4-0.6-3.2-0.8-4c-0.2-1-0.5-2-0.8-3c-0.3-0.8-1.6-5.3-2.8-10s-2.8-10.5-3.6-13s-1.5-5.6-1.8-7
			c-2.1-11-4.8-22.9-5.8-25c-1-1.8-1.3-4-0.9-6C101.1,128.3,108.6,128.9,111.1,130.9"/>
	</g>
	<g id="af36f572-a054-473a-bbe0-6c8155de4eaa">
		
			<linearGradient id="f4e69b82-90e6-415a-87f3-ec663c603f22_00000065031992576704166360000012809836908587777666_" gradientUnits="userSpaceOnUse" x1="28.4341" y1="482.9142" x2="27.8841" y2="483.9142" gradientTransform="matrix(77.53 0 0 -113.83 -2022.3705 55123.1016)">
			<stop  offset="0" style="stop-color:#EB6867;stop-opacity:0.8"/>
			<stop  offset="1" style="stop-color:#EDA8A8;stop-opacity:0.81"/>
		</linearGradient>
		
			<path id="f4e69b82-90e6-415a-87f3-ec663c603f22" style="fill:url(#f4e69b82-90e6-415a-87f3-ec663c603f22_00000065031992576704166360000012809836908587777666_);" d="
			M187.3,41.2c1.6,1.5,3.3,2.8,5.1,4.1c1.7,1.3,3.2,3,4.2,5c1.4,3,1.4,3.5-2,10.9c-1.9,4.1-4,8.1-6.4,12C183.7,79.8,175,94,175,94.8
			c-1,2.6-2.1,5-3.5,7.4c-4.1,8.1-6.5,16.6-11.1,39.7c-1.5,7.4-3.5,11.1-6.1,11.1c-0.8,0-5.3-2.8-10.1-6.3s-10.5-7.4-12.7-8.6
			c-10.8-6.4-11.5-7-11.5-11.6c0-7.2,9.3-29,16.4-38.4c2.2-3,4.8-6.4,5.6-7.6c6.1-9.1,30.1-34.9,35.9-38.6
			C183.3,38.4,184.2,38.4,187.3,41.2"/>
		
			<linearGradient id="f5da6a02-7011-4a50-a7af-56fb8116ab34_00000150066388460012591910000008292374585281936521_" gradientUnits="userSpaceOnUse" x1="28.9188" y1="486.4684" x2="27.9188" y2="486.1284" gradientTransform="matrix(433.77 0 0 -259.27 -12014.9014 126327.7188)">
			<stop  offset="0" style="stop-color:#D08690"/>
			<stop  offset="1" style="stop-color:#180406;stop-opacity:0.35"/>
		</linearGradient>
		
			<path id="f5da6a02-7011-4a50-a7af-56fb8116ab34" style="fill:url(#f5da6a02-7011-4a50-a7af-56fb8116ab34_00000150066388460012591910000008292374585281936521_);" d="
			M108.6,127.5c1.1,0.8,2.4,1.3,3.7,1.5c2.5,0,6.8,2.4,13,7.1c2.9,2.2,5.6,3.9,6.1,4s4.2,2.5,8.2,5.5s7.8,5.5,8.4,5.5
			c1.6,0,36.4,35.3,42.9,43.5c3,3.8,7.9,9.3,10.8,12.2s5.2,5.6,5.2,5.9s1.9,2.8,4.2,5.4c5.3,5.9,8.8,10,8.8,10.5s4.9,7.5,10.5,15
			c2,2.6,3.9,5.4,5.6,8.2c0.6,1.2,1.5,2.2,2,2.2s0.8,0.6,0.8,1.3s1.6,3.5,3.5,6.2s3.5,5.3,3.5,5.8s1.6,3.1,3.5,5.8
			c1.3,1.7,2.5,3.5,3.5,5.3c0.9,1.8,2,3.5,3.2,5.1c3,4.5,5.8,9.7,15.2,27.9c2.2,4.4,4.4,8.5,4.9,9c3.8,5,7.8,10.6,7.8,11.1
			c0.6,1.2,1.3,2.3,2.2,3.3c1.2,1.5,3.1,4,4.2,5.5c1,1.4,2.1,2.8,3.2,4.1c0.6,0.6,1.1,1.4,1.2,2.3c0,0.5,1.1,1.9,2.5,3
			s2.5,2.4,2.5,2.9c0.3,1,0.9,1.8,1.8,2.4c1.9,1.8,3.6,3.8,5.2,5.8c6,7.5,16.6,13.2,27.4,14.8c6.6,1,37,0.6,59.7-0.7
			c9.6-0.6,22.7-1.3,29-1.5c7.9-0.5,15.7-1.5,23.5-3.1c6.6-1.4,13.1-2.8,14.5-3l11.5-2c7.6-1.3,11.5-2.1,14.5-2.8
			c0.3-0.1,2.3-0.8,4.5-1.5c1.6-0.6,3.3-1.1,5-1.5c1-0.1,6.1-2.2,11.5-4.7c1.5-0.7,3-1.7,4.4-2.7c1-0.8,1.9-1.4,2-1.1
			c0.2,0.7,8.1-4.6,9.7-6.6c5.3-6.5,8.7-18.2,6.5-22.3c-1.9-3.6-7.4-8.6-11.5-10.4c-1.7-0.8-3.4-1.6-5-2.6c-1.4-0.8-2.8-1.5-4.3-2
			c-3.9-1.4-2.5-3.1,1.6-1.9c1.8,0.5,4,1.1,4.9,1.4c4.3,1,16.3,10.7,18.5,14.9c2.1,4.1,1,13.5-2.3,18.9c-1.2,1.9-2.2,3.9-3.1,5.9
			c-0.3,1-1,1.8-1.5,1.8s-0.9,0.6-0.9,1.3c0,1.9-5.9,8.7-7.5,8.7c-1.1,0.3-2.1,1-2.7,1.9c-1.1,1.3-2.6,2.2-4.3,2.6
			c-2,0.5-4,1.3-5.9,2.2c-2.5,1.3-12.2,4.4-17.9,5.7c-1,0.2-2.6,0.7-3.6,1c-1.9,0.6-5.7,1.2-12.5,2c-6.2,0.7-21.6,3.5-25.5,4.5
			c-2.3,0.6-4.6,1.1-7,1.4c-1.9,0.2-5.1,0.7-7,1l-5.5,0.9c-1.1,0.2-3.6,0.6-5.5,0.9c-3.6,0.6-12.5,1.3-28.5,2.2
			c-15,0.9-62.8,1-66.5,0.1c-2.9-0.8-5.7-1.9-8.3-3.2c-1.8-1-3.8-1.9-5.8-2.5c-0.8-0.1-1.5-0.5-2.2-1l-7.4-6.1
			c-4-3.4-7.7-7.1-11-11.1c-4.5-5.7-15.9-23.3-18.5-28.8c-1.6-2.9-3.4-5.8-5.4-8.5c-2.3-3.3-5.8-9-7.8-12.8s-4.2-7.4-6.6-11
			c-4.2-6-13.9-21-13.9-21.6c0-0.5-5.1-8.4-16.1-24.9c-1.9-2.8-8.6-12.5-14.9-21.4s-12.7-17.9-14.2-20s-2.2-4-1.7-4.1
			s-0.6-1.9-2.4-3.8c-1.5-1.4-2.8-3-3.8-4.7c-0.6-1.7-14.9-18.3-24.5-28.3c-4.5-4.7-9.8-10.4-11.9-12.8c-3.5-4-11.6-10.2-13.3-10.2
			c-0.4,0-2.3-1.6-4.2-3.6c-2.2-2.2-4.7-4.1-7.4-5.6c-1.9-0.9-3.8-2-5.5-3.3c-1.2-0.9-2.6-1.6-4-2c-1.8-0.6-3.4-1.5-4.9-2.6
			c-1.7-1.2-3.7-1.8-5.8-1.9c-3.2,0-4.2-0.9-2.7-2.3C103.8,125.6,106.5,126,108.6,127.5"/>
		
			<linearGradient id="abab69b1-aee8-48d8-a8ed-93beb8f3df14_00000172441802488898752780000004157397979893824921_" gradientUnits="userSpaceOnUse" x1="28.2837" y1="484.4886" x2="27.2837" y2="484.6486" gradientTransform="matrix(39.21 0 0 -147.78 -969.0601 71813.7188)">
			<stop  offset="0" style="stop-color:#EE7F89;stop-opacity:0.43"/>
			<stop  offset="1" style="stop-color:#F0919D;stop-opacity:0.5"/>
		</linearGradient>
		
			<path id="abab69b1-aee8-48d8-a8ed-93beb8f3df14" style="fill:url(#abab69b1-aee8-48d8-a8ed-93beb8f3df14_00000172441802488898752780000004157397979893824921_);" d="
			M113,133c3.6,3.9,7,9.7,13.6,23.1c9.5,19.2,16,69.7,12.3,95.9c-0.6,4.1-1.4,10.5-1.8,14.2c-0.8,8.1-3,11.1-7.6,10.5
			c-2.7-0.3-3.1-0.8-3.3-3.8c-0.2-1.9-0.7-6.6-1.3-10.4s-1.2-10.6-1.5-15c-0.2-4.1-0.7-8.1-1.4-12.1c-0.7-3.6-1.2-7.3-1.5-11
			c-1.1-13.2-2-20.9-3.1-26.4c-0.3-1.4-0.6-3.2-0.8-4c-0.2-1-0.5-2-0.8-3c-0.3-0.8-1.6-5.3-2.8-10s-2.8-10.5-3.6-13s-1.5-5.6-1.8-7
			c-2.1-11-4.8-22.9-5.8-25c-1-1.8-1.3-4-0.9-6c0.1-0.6,2-1,4.3-1C108.7,129,109.9,129.6,113,133"/>
		
			<linearGradient id="a6501433-bda8-4673-b15f-96cda2db24e4_00000015331132581561395370000000183337150973575836_" gradientUnits="userSpaceOnUse" x1="28.7981" y1="478.9896" x2="28.098" y2="479.9896" gradientTransform="matrix(193.08 0 0 -63.88 -5045.6416 30949.6816)">
			<stop  offset="0" style="stop-color:#EE7D80;stop-opacity:0.63"/>
			<stop  offset="1" style="stop-color:#F1989B;stop-opacity:0.71"/>
		</linearGradient>
		
			<path id="a6501433-bda8-4673-b15f-96cda2db24e4" style="fill:url(#a6501433-bda8-4673-b15f-96cda2db24e4_00000015331132581561395370000000183337150973575836_);" d="
			M341,295c1.9,2.2,4,4,4.7,4s1.3,0.3,1.3,0.8c0,1.7,13.2,8.3,21.3,10.7c5.7,1.6,19.4,2,20.3,0.5c0.2-0.4,2.7-1.5,5.4-2.4
			c3.2-1.1,6.2-2.7,9-4.6l4.1-3h24.8c27.6,0,37,0.8,56.4,4.5c23.3,4.5,32.6,8.6,36.7,16.2c2.7,5,1,11.4-4.8,18
			c-2.9,3.3-4.9,4.4-11,6.2c-14.7,4.4-34.5,8.1-46.2,8.7c-16.2,0.9-23.9-0.8-33.4-7.2c-1.8-1.2-3.7-2.3-5.6-3.3
			c-1.5-0.7-5.9-4.2-9.9-7.7c-10.1-8.9-14.8-10.9-31.9-13.9c-15.6-2.7-21.9-4.5-29-8c-5.8-2.9-14.8-11-15.5-14
			c-0.5-1.5-1.3-2.9-2.5-4.1c-2.7-2.4-2.5-5.4,0.4-5.4C336.7,290.9,338.9,292.5,341,295"/>
		
			<linearGradient id="bb7b6427-e236-4d26-a578-f6f25950a1e8_00000100362369951015104270000006312092688038282643_" gradientUnits="userSpaceOnUse" x1="26.5668" y1="450.0001" x2="27.5668" y2="450.2601" gradientTransform="matrix(20.08 0 0 -15.05 -401.7197 7151.1201)">
			<stop  offset="0" style="stop-color:#B0D79A;stop-opacity:0.41"/>
			<stop  offset="1" style="stop-color:#A7D395;stop-opacity:0.37"/>
		</linearGradient>
		
			<path id="bb7b6427-e236-4d26-a578-f6f25950a1e8" style="fill:url(#bb7b6427-e236-4d26-a578-f6f25950a1e8_00000100362369951015104270000006312092688038282643_);" d="
			M151.8,376.8l0.3,6.9l-4.3,0.6c-3.3,0.3-6.7,0.3-10,0l-5.7-0.6v-14.2l9.8,0.2l9.8,0.2L151.8,376.8"/>
	</g>
	<g id="e997b922-5e94-4353-8778-2fb07acfffb9">
		
			<linearGradient id="e603ed84-a9f5-46d8-9c3b-f0dd488dd68c_00000101078628240386683790000011972809496705346491_" gradientUnits="userSpaceOnUse" x1="28.3898" y1="486.9931" x2="28.3898" y2="485.9932" gradientTransform="matrix(249.57 0 0 -288.58 -6781.5659 140566.5312)">
			<stop  offset="0" style="stop-color:#DBBDBC;stop-opacity:0.75"/>
			<stop  offset="1" style="stop-color:#AE392A;stop-opacity:0.82"/>
		</linearGradient>
		
			<path id="e603ed84-a9f5-46d8-9c3b-f0dd488dd68c" style="fill:url(#e603ed84-a9f5-46d8-9c3b-f0dd488dd68c_00000101078628240386683790000011972809496705346491_);" d="
			M188.8,30.7c3.4,2,6.6,4.2,9.8,6.5c2.8,2.1,5.6,3.8,6.2,3.8c0.6,0,1.1,0.3,1.4,0.8c1,1.1,2.1,2.2,3.3,3
			c8.1,6.3,15.5,13.5,22.1,21.4c4.6,5.3,8.4,10,8.4,10.3s2.2,3.2,4.8,6.3c2.7,3.2,5.2,6.6,7.4,10.2c1.3,2.3,2.8,4.5,4.5,6.5
			c2,2.5,3.7,5.2,5.2,8c1.2,2.3,2.5,4.4,4,6.5c0.8,0.9,1.4,1.9,1.9,3c0.7,1.4,2.6,4.8,4.2,7.5s3.6,6.6,4.5,8.5
			c3,6.4,6.5,14.7,6.9,16c1.4,5.2,4.6,12.3,6,13.2c0.6,0.4,0.7,0.7,0.3,0.8s0.6,2.3,2.2,5.1s3,5.5,3,6.1c0,1,5,10.8,6,11.9
			c1,1.6,2,3.3,2.8,5c3.5,6.9,6.6,12.4,7.3,13c0.5,0.6,0.9,1.3,1.2,2c0.4,0.8,2,3.8,3.6,6.5s3.9,6.9,5.1,9.2s2.6,4.2,3.1,4.2
			s0.9,0.7,0.9,1.5s0.5,1.5,1,1.5s1,0.7,1,1.6c0,1.2,5.7,9.8,13.2,19.9c0.4,0.6,2.5,3.5,4.7,6.5c6.5,8.9,7.6,10,17.5,16.7
			c7.9,5.3,17.3,9.4,24.7,10.7c1.3,0.2,2.5,0.5,3.7,1.1c2.1,1.3,21,2.4,28.1,1.5c6-0.7,7.8-0.6,9,0.6s1,1.8-1.9,4.2
			c-1.9,1.5-4.4,3.8-5.7,5c-0.8,0.9-1.8,1.7-2.9,2.2c-0.8,0.2-1.4,0.7-2,1.2c-3.7,3.5-16.2,11.3-21.3,13.4
			c-8.2,3.4-13.6,3.8-23.2,1.9c-9.8-2-17-5-26-11c-6.2-4.1-16.1-13.8-16.1-15.7c0-0.5-0.4-0.9-0.9-0.9l0,0c-0.5,0-1.4-1.3-2.1-2.9
			c-0.9-1.9-2.1-3.7-3.6-5.2c-1.3-1.2-2.4-2.8-2.4-3.5c-0.4-1.3-1.1-2.5-2-3.5c-1-1.1-1.7-2.4-2-3.8c0-0.8-1.8-4.7-3.9-8.7
			c-2.3-4.2-4.3-8.6-5.9-13.1c-1.1-3.2-3.6-9.5-5.6-13.8s-4.5-10.6-5.7-14c-2-5.8-4-10.5-9.5-22.2c-1.3-2.8-2.4-5.8-2.4-6.6
			c0-0.9-0.4-1.8-1-2.5c-0.7-0.9-1.2-1.9-1.4-3c-0.6-3.3-9.7-22.3-17.4-36.4c-4.1-7.4-10.1-18.9-13.5-25.5
			c-7.7-15.2-15.2-26.8-24.6-38.1c-1.4-1.7-3.7-4.6-5.1-6.3c-5.2-6.7-10.8-13.2-16.8-19.2c-2.5-2.5-4.5-5.3-6.1-8.4
			c-1.1-2.3-2.6-4.4-4.6-6c-3.9-2.7-9.9-8.5-12-11.8c-1.8-2.7-1.8-2.8,0.1-4.2C183.1,27.5,183.5,27.6,188.8,30.7"/>
		
			<linearGradient id="aba72fc7-07b8-4306-a458-5af08758c9a9_00000013888119678567882340000010538614484223737277_" gradientUnits="userSpaceOnUse" x1="27.4117" y1="485.3869" x2="28.4117" y2="485.2969" gradientTransform="matrix(47.31 0 0 -183.91 -1150.3795 89553.1719)">
			<stop  offset="0" style="stop-color:#5E2A21;stop-opacity:0.78"/>
			<stop  offset="1" style="stop-color:#49150C;stop-opacity:0.86"/>
		</linearGradient>
		
			<path id="aba72fc7-07b8-4306-a458-5af08758c9a9" style="fill:url(#aba72fc7-07b8-4306-a458-5af08758c9a9_00000013888119678567882340000010538614484223737277_);" d="
			M184.3,200.6c2.6,0.5,5,1.8,6.8,3.7c3.3,3.3,2.4,4.8-1.2,2.2c-3.2-2.2-11.5-2-15.5,0.4c-6.4,3.9-7.8,9.3-12.8,48
			c-4.9,38.2-7.9,74.3-9.1,109.8l-0.6,19.2h-6l0.5-13.2c2.4-59.6,11-142,16.8-159.4c1.8-5.5,2.5-6.4,6.7-8.7
			C174.6,200,177.7,199.5,184.3,200.6"/>
	</g>
	<g id="a2b48f6a-d592-4bbb-a294-d8a2b10b14d3">
		
			<linearGradient id="a7053d3b-d294-44d0-a81f-eeaf520dd3cd_00000052080585632608924160000009779273497181789362_" gradientUnits="userSpaceOnUse" x1="27.87" y1="486.3456" x2="28.87" y2="486.2356" gradientTransform="matrix(213.94 0 0 -264.01 -5761.3916 128568.0547)">
			<stop  offset="0" style="stop-color:#E3C689;stop-opacity:0.63"/>
			<stop  offset="1" style="stop-color:#CBDF83;stop-opacity:0.27"/>
		</linearGradient>
		
			<path id="a7053d3b-d294-44d0-a81f-eeaf520dd3cd" style="fill:url(#a7053d3b-d294-44d0-a81f-eeaf520dd3cd_00000052080585632608924160000009779273497181789362_);" d="
			M209.5,54.4c7.3,5.9,20.6,20.6,24.1,26.4c1.4,2.3,2.9,4.2,3.3,4.2s2.7,3,5.2,6.6s6,9,7.9,11.8c9.9,14.7,12,17.9,12,18.7
			c0.7,1.8,1.5,3.5,2.6,5c3.9,6.2,8.4,15,8.8,17.5c0.5,2.8,6.8,17.2,11.5,26.3l8.1,16c4,8,8.2,15.9,9.4,17.5c1.5,2.2,2.9,4.6,4.1,7
			c1.1,2.3,2.4,4.4,3.8,6.5c1.2,1.7,2.3,3.6,3.3,5.5c1.5,3.1,4.6,8,10.2,16c1.2,1.6,2.3,3.3,3.3,5.1c1.6,2.7,3.5,5.3,5.4,7.8
			c2.5,3.3,4.9,6.7,7,10.3c1.6,3.2,14.3,15.4,18.1,17.5c16.6,9.2,25.8,12.1,45.5,14.1l11.5,1.2l-7.2,5.4c-3.9,2.9-8.1,5.4-12.5,7.4
			c-2.1,0.8-4.2,1.7-6.2,2.7c-2,1.5-14.3,1.2-20.1-0.5c-8.1-2.3-21.3-9-21.4-10.7c0-0.4-0.5-0.8-1-0.8c-2,0-19-18.4-19-20.5
			c-0.8-1.8-1.8-3.5-3-5.1c-2.8-4.6-5.3-9.3-7.5-14.2c-2.5-5.4-5-10.5-5.5-11.5c-0.5-0.8-0.8-1.8-1-2.7c-0.6-2.2-1.5-4.4-2.5-6.4
			c-1-2.1-1.9-4.3-2.5-6.6c-0.1-1-0.4-1.9-0.9-2.8c-2.7-5.2-5-10.2-4.5-10.2c0.3,0-0.6-2.1-2-4.7s-2.5-5.4-2.5-6.3
			c-0.2-1.6-0.7-3.1-1.4-4.5c-0.8-1.6-4.2-9.4-7.6-17.4c-6.3-14.9-11.5-26.4-15.2-33.5C266,143.1,259,130,255.5,124
			c-2.1-3.6-4.1-7.6-4.6-8.8c-1.2-3.2-13.4-21.6-18.1-27.3c-2.1-2.6-3.8-5-3.8-5.6s-1.4-2.2-3.1-3.9c-2.1-2.1-3.9-4.3-5.6-6.8
			c-1.4-2.1-7-8.8-12.6-14.9C197.5,45.8,198.1,45,209.5,54.4"/>
	</g>
</g>
<g id="a62fcbb5-c1fe-474d-a4d6-dfeeed37ecb4">
	
		<linearGradient id="baca5011-e361-4d08-896e-0c55de8d6528_00000172417041956580484940000012490908152798286750_" gradientUnits="userSpaceOnUse" x1="29.8108" y1="487.3804" x2="29.8108" y2="486.3808" gradientTransform="matrix(434.04 0 0 -357.14 -12023.332 174087.9688)">
		<stop  offset="0" style="stop-color:#CB4C4D"/>
		<stop  offset="1" style="stop-color:#911D22"/>
	</linearGradient>
	
		<path id="baca5011-e361-4d08-896e-0c55de8d6528" style="fill:url(#baca5011-e361-4d08-896e-0c55de8d6528_00000172417041956580484940000012490908152798286750_);" d="
		M785.9,30.7c3.4,2,6.6,4.2,9.8,6.5c2.8,2.1,5.6,3.8,6.2,3.8c0.6,0,1.1,0.3,1.4,0.8c1,1.1,2.1,2.2,3.3,3
		c8.1,6.3,15.5,13.5,22.1,21.4c4.6,5.3,8.4,10,8.4,10.3s2.2,3.2,4.8,6.3c2.7,3.2,5.2,6.6,7.4,10.2c1.3,2.3,2.8,4.5,4.4,6.5
		c2,2.5,3.7,5.2,5.2,8c1.2,2.3,2.5,4.4,4,6.5c0.8,0.9,1.4,1.9,1.9,3c0.7,1.4,2.6,4.8,4.2,7.5s3.7,6.6,4.5,8.5
		c2.9,6.4,6.5,14.7,6.9,16c1.4,5.2,4.6,12.3,6,13.2c0.6,0.4,0.7,0.7,0.3,0.8s0.6,2.3,2.2,5.1s3,5.5,3,6.1c0,1,5,10.8,6,11.9
		c1,1.6,2,3.3,2.8,5c3.5,6.9,6.6,12.4,7.3,13c0.5,0.6,0.9,1.3,1.2,2c0.4,0.8,2,3.8,3.6,6.5s3.9,6.9,5.1,9.2s2.6,4.2,3.1,4.2
		s0.9,0.7,0.9,1.5s0.4,1.5,1,1.5s1,0.7,1,1.6c0,1.2,5.7,9.8,13.2,19.9c0.4,0.6,2.5,3.5,4.7,6.5c6.5,8.9,7.6,10,17.5,16.7
		c7.8,5.3,17.3,9.4,24.7,10.7c1.3,0.2,2.5,0.5,3.7,1.1c2.1,1.3,21,2.4,28.1,1.6c4.1-0.5,8-0.5,8.5-0.1c0.7,0.5,1.6,0.8,2.5,0.8
		c0.8,0,5.1,0.7,9.5,1.6l10.5,2.1c3.8,0.8,10.3,2.3,12.5,2.9c12,3.5,22.5,6.2,27.5,7.1c1.9,0.3,6,1,9,1.5s7.3,1.2,9.5,1.6
		c2,0.3,3.9,0.8,5.8,1.5c1,0.5,1.8,0.7,1.8,0.3c0-1,7.1,3.6,12.3,8c2.7,2.2,5.5,5.4,6.4,7c2.1,4.1,1,13.5-2.3,18.9
		c-1.2,1.9-2.2,3.9-3.1,5.9c-0.3,1-1,1.8-1.4,1.8s-0.9,0.6-0.9,1.3c0,1.9-5.9,8.7-7.5,8.7c-1.1,0.3-2.1,1-2.7,1.9
		c-1.1,1.3-2.6,2.2-4.3,2.6c-2,0.5-4,1.3-5.9,2.2c-2.5,1.3-12.2,4.4-17.9,5.7c-1,0.2-2.6,0.7-3.6,1c-1.9,0.6-5.7,1.2-12.5,2
		c-6.2,0.7-21.6,3.5-25.5,4.5c-2.3,0.6-4.6,1.1-7,1.4c-1.9,0.2-5.1,0.7-7,1l-5.5,0.9c-1.1,0.2-3.6,0.6-5.5,0.9
		c-3.6,0.6-12.5,1.3-28.5,2.2c-15,0.9-62.8,1-66.5,0.1c-2.9-0.8-5.7-1.9-8.3-3.2c-1.8-1-3.8-1.9-5.8-2.5c-0.8-0.1-1.5-0.5-2.2-1
		l-7.4-6.1c-4-3.4-7.7-7.1-11-11.1c-4.5-5.7-15.9-23.3-18.5-28.8c-1.6-2.9-3.4-5.8-5.4-8.5c-2.3-3.3-5.8-9.1-7.8-12.8
		c-2-3.8-4.2-7.5-6.7-11c-4.2-5.9-13.9-20.9-13.9-21.5c0-0.5-5.1-8.4-16.1-24.9c-1.9-2.8-8.6-12.5-14.9-21.4s-12.7-17.9-14.2-20
		s-2.2-4-1.7-4.1s-0.5-1.9-2.4-3.8c-1.5-1.4-2.8-3-3.8-4.7c-0.6-1.7-14.9-18.3-24.5-28.3c-4.5-4.7-9.8-10.4-11.9-12.8
		c-3.5-4-11.6-10.2-13.3-10.2c-0.4,0-2.3-1.6-4.2-3.6c-2.2-2.2-4.7-4.1-7.4-5.6c-1.9-0.9-3.8-2-5.5-3.3c-1.2-0.9-2.6-1.6-4-2
		c-1.7-0.6-3.4-1.5-4.9-2.6c-1.7-1.2-3.8-1.8-5.9-1.9h-3.5l0.6-4.8c0.7-5.3,4.3-18.8,5.7-21.5c0.5-1.1,0.9-2.4,0.9-3.7
		c0.3-2,1-4,1.9-5.8c1-2.1,2.2-4.5,2.5-5.3c0.4-1,1-2.1,1.6-3c0.6-0.8,2.8-4.8,5-8.8c1.7-3.2,3.6-6.3,5.8-9.3
		c4.3-5.1,5.5-6.5,12.3-13.6c4.1-4.3,8.5-8.2,13.3-11.7c6.4-4.3,14.6-8.9,14.6-8.1c0,0.3,2.5-0.6,5.5-2s5.7-2,6.1-1.5
		s1.5,0.3,2.7-0.6C780.2,27.5,780.4,27.5,785.9,30.7"/>
	
		<linearGradient id="e167cf5a-4e24-41e5-a6d8-a6ac63fbc7ca_00000121273113915491331740000013016601592115295884_" gradientUnits="userSpaceOnUse" x1="34.1599" y1="486.253" x2="35.1599" y2="486.1729" gradientTransform="matrix(92.35 0 0 -255.58 -2457.468 124528.7031)">
		<stop  offset="0" style="stop-color:#B92A2E"/>
		<stop  offset="1" style="stop-color:#921D22"/>
	</linearGradient>
	
		<path id="e167cf5a-4e24-41e5-a6d8-a6ac63fbc7ca" style="fill:url(#e167cf5a-4e24-41e5-a6d8-a6ac63fbc7ca_00000121273113915491331740000013016601592115295884_);" d="
		M708.2,130.9c1.5,1.1,3.1,2,4.9,2.6c1.4,0.4,2.8,1.1,4,2c1.7,1.2,3.6,2.4,5.5,3.3c2.7,1.5,5.2,3.4,7.4,5.6c1.9,2,3.8,3.6,4.2,3.6
		c1.7,0,9.8,6.2,13.3,10.2c2.1,2.4,7.4,8.1,11.9,12.8c9.6,10,24,26.6,24.5,28.3c1.1,1.7,2.3,3.3,3.8,4.7c3.6,3.6,3,5.3-0.9,2.6
		c-3.2-2.2-11.5-2-15.5,0.4c-6.4,3.9-7.8,9.3-12.8,48c-4.9,38.2-7.9,74.3-9.1,109.6l-0.7,19.1l-4.2,0.6c-3.2,0.3-6.5,0.3-9.7,0
		l-5.6-0.6l-0.6-18.6c-0.8-23.2-5.3-92-6.7-102.1c-0.6-4.1-1.3-11.1-1.6-15.5c-0.2-4.1-0.7-8.1-1.4-12.1c-0.7-3.6-1.2-7.3-1.5-11
		c-1.1-13.2-2-20.9-3.1-26.4c-0.3-1.4-0.6-3.2-0.8-4c-0.2-1-0.5-2-0.8-3c-0.3-0.8-1.6-5.3-2.8-10s-2.8-10.5-3.6-13s-1.6-5.6-1.8-7
		c-2.1-11-4.8-22.9-5.8-25c-1-1.8-1.3-4-0.9-6C698.1,128.2,705.6,128.8,708.2,130.9"/>
</g>
<g id="f84cd428-7b98-4449-aa5c-e1b1eff63b50">
	
		<linearGradient id="e65c454c-1cf0-484e-83c0-c0652575a079_00000005250327438738892610000006848435636411218825_" gradientUnits="userSpaceOnUse" x1="35.7361" y1="486.9532" x2="35.7361" y2="485.9536" gradientTransform="matrix(249.57 0 0 -288.58 -6781.5659 140566.5312)">
		<stop  offset="0" style="stop-color:#DBBDBC;stop-opacity:0.75"/>
		<stop  offset="1" style="stop-color:#AE392A;stop-opacity:0.82"/>
	</linearGradient>
	
		<path id="e65c454c-1cf0-484e-83c0-c0652575a079" style="fill:url(#e65c454c-1cf0-484e-83c0-c0652575a079_00000005250327438738892610000006848435636411218825_);" d="
		M2022.4,41.7c3.4,2,6.6,4.2,9.8,6.5c2.8,2.1,5.6,3.8,6.2,3.8s1.1,0.3,1.4,0.8c1,1.1,2.1,2.2,3.3,3c8.1,6.3,15.5,13.5,22.1,21.4
		c4.6,5.3,8.4,10,8.4,10.3s2.2,3.2,4.8,6.3c2.7,3.2,5.2,6.6,7.4,10.2c1.3,2.3,2.8,4.5,4.4,6.5c2,2.5,3.7,5.2,5.2,8
		c1.2,2.3,2.5,4.4,4,6.5c0.8,0.9,1.4,1.9,1.9,3c0.7,1.4,2.6,4.8,4.2,7.5s3.6,6.6,4.5,8.5c3,6.4,6.5,14.7,6.9,16
		c1.4,5.2,4.6,12.3,6,13.2c0.6,0.4,0.7,0.7,0.3,0.8s0.6,2.3,2.2,5.1s3,5.5,3,6.1c0,1,5,10.8,6,11.9c1,1.6,2,3.3,2.8,5
		c3.5,6.9,6.6,12.4,7.3,13c0.5,0.6,0.9,1.3,1.2,2c0.4,0.8,2,3.8,3.6,6.5s3.9,6.9,5.1,9.2s2.6,4.2,3.1,4.2s0.9,0.7,0.9,1.5
		s0.4,1.5,1,1.5s1,0.7,1,1.6c0,1.2,5.7,9.8,13.2,19.9c0.4,0.5,2.5,3.5,4.7,6.5c6.5,8.9,7.6,10,17.5,16.7c7.9,5.3,17.3,9.4,24.7,10.7
		c1.3,0.2,2.5,0.5,3.7,1.1c2.1,1.3,21,2.4,28.1,1.5c6-0.7,7.8-0.6,8.9,0.6s1,1.8-1.9,4.2c-1.9,1.5-4.4,3.8-5.7,5
		c-0.8,0.9-1.8,1.7-2.9,2.2c-0.8,0.2-1.4,0.7-2,1.2c-3.7,3.5-16.2,11.3-21.3,13.4c-8.2,3.4-13.6,3.8-23.2,1.9c-9.8-2-17-5-26-11
		c-6.2-4.1-16.1-13.8-16.1-15.7c0-0.5-0.4-0.9-0.9-0.9s-1.4-1.3-2.1-2.9c-0.9-1.9-2.1-3.7-3.6-5.2c-1.3-1.2-2.4-2.8-2.4-3.4
		c-0.4-1.3-1.1-2.5-2-3.5c-1-1.1-1.7-2.4-2-3.8c0-0.8-1.8-4.7-3.9-8.7c-2.3-4.2-4.3-8.6-5.9-13.1c-1.1-3.3-3.6-9.5-5.6-13.8
		s-4.5-10.6-5.6-14c-2-5.8-4-10.5-9.5-22.2c-1.3-2.8-2.4-5.8-2.4-6.6c0-0.9-0.4-1.8-1-2.5c-0.7-0.9-1.2-1.9-1.4-3
		c-0.6-3.3-9.7-22.3-17.4-36.4c-4.1-7.4-10.1-18.9-13.5-25.5c-7.7-15.2-15.2-26.8-24.6-38.1c-1.4-1.7-3.7-4.6-5.1-6.3
		c-5.2-6.7-10.8-13.2-16.8-19.2c-2.5-2.5-4.5-5.3-6.1-8.4c-1.1-2.3-2.6-4.4-4.6-6c-3.9-2.7-9.9-8.5-12-11.8c-1.8-2.7-1.8-2.8,0-4.2
		C2016.5,38.6,2016.9,38.6,2022.4,41.7"/>
	
		<linearGradient id="f2551e8f-6475-4530-80aa-ad1f2a3fcb1d_00000000220123642249572790000014789512040658658197_" gradientUnits="userSpaceOnUse" x1="66.1617" y1="485.327" x2="67.1617" y2="485.2368" gradientTransform="matrix(47.31 0 0 -183.91 -1150.3795 89553.1719)">
		<stop  offset="0" style="stop-color:#5E2A21;stop-opacity:0.78"/>
		<stop  offset="1" style="stop-color:#49150C;stop-opacity:0.86"/>
	</linearGradient>
	
		<path id="f2551e8f-6475-4530-80aa-ad1f2a3fcb1d" style="fill:url(#f2551e8f-6475-4530-80aa-ad1f2a3fcb1d_00000000220123642249572790000014789512040658658197_);" d="
		M2017.8,211.7c2.6,0.5,5,1.8,6.8,3.7c3.3,3.3,2.4,4.8-1.2,2.2c-3.2-2.2-11.5-2-15.5,0.4c-6.4,3.9-7.8,9.3-12.8,48
		c-4.9,38.2-7.9,74.3-9.1,109.8l-0.7,19.2h-6l0.5-13.2c2.4-59.6,11-142,16.8-159.4c1.8-5.5,2.5-6.4,6.7-8.7
		C2008.2,211,2011.2,210.6,2017.8,211.7"/>
</g>
<g id="a4654159-afd6-447d-b35b-088c9d12c0f6">
	
		<linearGradient id="b003d4ed-58c4-4e0b-9061-ae183fd87cee_00000163049071449053618370000016848217101899760280_" gradientUnits="userSpaceOnUse" x1="39.0605" y1="486.2699" x2="40.0605" y2="486.1599" gradientTransform="matrix(213.94 0 0 -264.01 -5761.3916 128568.0547)">
		<stop  offset="0" style="stop-color:#E3C689;stop-opacity:0.63"/>
		<stop  offset="1" style="stop-color:#CBDF83;stop-opacity:0.27"/>
	</linearGradient>
	
		<path id="b003d4ed-58c4-4e0b-9061-ae183fd87cee" style="fill:url(#b003d4ed-58c4-4e0b-9061-ae183fd87cee_00000163049071449053618370000016848217101899760280_);stroke:#231815;stroke-miterlimit:10;" d="
		M2605,74.6c7.3,5.9,20.6,20.6,24.1,26.4c1.4,2.3,2.9,4.2,3.3,4.2s2.7,3,5.2,6.6s6,9,7.9,11.8c9.9,14.7,12,17.9,12,18.7
		c0.7,1.8,1.5,3.5,2.6,5c3.9,6.2,8.4,15,8.8,17.5c0.5,2.8,6.8,17.2,11.5,26.3l8.1,16c4,8,8.2,15.9,9.4,17.5c1.5,2.2,2.9,4.6,4.1,7
		c1.1,2.3,2.4,4.4,3.8,6.5c1.2,1.7,2.3,3.6,3.3,5.5c1.5,3.1,4.6,8,10.2,16c1.2,1.6,2.3,3.3,3.2,5.1c1.6,2.7,3.5,5.3,5.4,7.8
		c2.5,3.3,4.9,6.7,7,10.3c1.6,3.2,14.3,15.4,18.1,17.5c16.6,9.2,25.8,12.1,45.5,14.1l11.5,1.2l-7.2,5.4c-3.9,2.9-8.1,5.3-12.5,7.3
		c-2.1,0.8-4.2,1.7-6.2,2.7c-2,1.5-14.3,1.2-20.1-0.5c-8.1-2.3-21.3-9-21.4-10.7c0-0.4-0.5-0.8-1.1-0.8c-1.9,0-19-18.4-19-20.5
		c-0.8-1.8-1.8-3.5-3-5.1c-2.8-4.6-5.3-9.3-7.5-14.1c-2.5-5.4-5-10.5-5.5-11.5c-0.5-0.8-0.8-1.8-1-2.7c-0.6-2.2-1.5-4.4-2.5-6.4
		c-1-2.1-1.9-4.3-2.5-6.6c-0.1-1-0.4-1.9-0.9-2.8c-2.7-5.2-5-10.2-4.5-10.2c0.3,0-0.6-2.1-2-4.7s-2.5-5.5-2.5-6.4
		c-0.2-1.6-0.7-3.1-1.4-4.5c-0.8-1.6-4.2-9.4-7.6-17.4c-6.3-14.9-11.5-26.4-15.2-33.5c-4.9-9.4-11.9-22.5-15.3-28.5
		c-2-3.6-4.1-7.6-4.6-8.9c-1.2-3.2-13.4-21.6-18.1-27.3c-2.1-2.6-3.8-5-3.8-5.6s-1.4-2.2-3.1-3.9c-2.1-2.1-3.9-4.3-5.6-6.8
		c-1.4-2.1-7-8.8-12.6-14.9C2593,66,2593.5,65.3,2605,74.6"/>
</g>
<line class="st18" x1="600.5" y1="0" x2="600.5" y2="453"/>
<line class="st18" x1="1200.5" y1="0" x2="1200.5" y2="453"/>
<line class="st18" x1="1799.3" y1="0.2" x2="1799.3" y2="453.2"/>
<line class="st18" x1="2399.3" y1="0.2" x2="2399.3" y2="453"/>
<g id="a89782ca-5a2e-4e5b-9c77-ab2879fe5d80_00000054973703324636788130000017299380375676689546_">
	
		<linearGradient id="acbadbfb-4466-45dd-8b4b-ab2fe7e6832a_00000133498626384645961300000002561277168841912980_" gradientUnits="userSpaceOnUse" x1="43.7581" y1="482.9249" x2="43.2081" y2="483.9249" gradientTransform="matrix(77.53 0 0 -113.83 -2022.3705 55123.1016)">
		<stop  offset="0" style="stop-color:#EB6867;stop-opacity:0.8"/>
		<stop  offset="1" style="stop-color:#EDA8A8;stop-opacity:0.81"/>
	</linearGradient>
	
		<path id="acbadbfb-4466-45dd-8b4b-ab2fe7e6832a_00000134972611362304040460000009469859257611480997_" style="fill:url(#acbadbfb-4466-45dd-8b4b-ab2fe7e6832a_00000133498626384645961300000002561277168841912980_);" d="
		M1375.4,40.1c1.6,1.5,3.3,2.8,5.1,4.1c1.8,1.3,3.2,3,4.2,5c1.5,3,1.4,3.5-2,10.9c-1.9,4.1-4,8.1-6.4,12
		c-4.5,6.6-13.2,20.8-13.2,21.6c-1,2.6-2.2,5-3.5,7.4c-4.1,8.1-6.5,16.6-11.1,39.7c-1.5,7.4-3.5,11.1-6.1,11.1
		c-0.7,0-5.3-2.8-10.1-6.3c-4.8-3.5-10.5-7.3-12.7-8.6c-10.8-6.3-11.5-7-11.5-11.6c0-7.3,9.3-29,16.4-38.4c2.2-3,4.8-6.4,5.6-7.6
		c6.1-9.2,30-34.9,35.9-38.6C1371.4,37.3,1372.3,37.2,1375.4,40.1"/>
	
		<linearGradient id="ba679017-0c6e-44d4-a52e-557fc5d98cf0_00000141430091539567422050000003714972361798237603_" gradientUnits="userSpaceOnUse" x1="31.6607" y1="486.4742" x2="30.6607" y2="486.1343" gradientTransform="matrix(433.77 0 0 -259.27 -12014.9014 126327.7188)">
		<stop  offset="0" style="stop-color:#D08690"/>
		<stop  offset="1" style="stop-color:#180406;stop-opacity:0.35"/>
	</linearGradient>
	
		<path id="ba679017-0c6e-44d4-a52e-557fc5d98cf0_00000089552467332119304360000008435831943916249772_" style="fill:url(#ba679017-0c6e-44d4-a52e-557fc5d98cf0_00000141430091539567422050000003714972361798237603_);" d="
		M1296.6,126.3c1.1,0.8,2.4,1.3,3.7,1.5c2.5,0,6.8,2.4,13,7.1c2.9,2.2,5.6,4,6.1,4s4.2,2.5,8.2,5.5s7.8,5.5,8.4,5.5
		c1.6,0,36.4,35.3,43,43.5c3,3.8,7.9,9.3,10.8,12.2s5.2,5.6,5.2,5.9s1.9,2.8,4.2,5.4c5.3,5.9,8.8,10,8.8,10.5s4.9,7.5,10.5,15
		c2,2.6,3.9,5.4,5.7,8.2c0.6,1.2,1.5,2.2,2,2.2s0.8,0.6,0.8,1.3s1.6,3.5,3.5,6.2s3.5,5.3,3.5,5.8s1.6,3.1,3.5,5.8
		c1.3,1.7,2.5,3.5,3.5,5.3c0.9,1.8,2,3.5,3.2,5.1c3,4.4,5.8,9.7,15.2,27.9c2.2,4.4,4.4,8.5,4.9,9c3.8,5,7.8,10.6,7.8,11.1
		c0.6,1.2,1.3,2.3,2.2,3.3c1.2,1.5,3.2,4,4.2,5.5c1,1.4,2.1,2.8,3.2,4.1c0.6,0.6,1.1,1.4,1.2,2.3c0,0.5,1.1,1.9,2.5,3
		s2.5,2.4,2.5,2.9c0.3,1,0.9,1.8,1.8,2.4c1.9,1.8,3.6,3.8,5.2,5.8c6.1,7.5,16.6,13.2,27.3,14.8c6.6,1,37,0.6,59.7-0.7
		c9.6-0.6,22.7-1.3,29-1.5c7.9-0.5,15.7-1.5,23.5-3.1c6.6-1.4,13.2-2.8,14.5-3l11.5-2c7.6-1.3,11.5-2.1,14.5-2.8
		c0.3-0.1,2.3-0.8,4.5-1.5c1.6-0.6,3.3-1.1,5-1.5c1-0.1,6.1-2.2,11.5-4.7c1.5-0.7,3-1.7,4.3-2.7c1-0.9,1.9-1.4,2-1.1
		c0.2,0.7,8.1-4.6,9.7-6.6c5.3-6.5,8.7-18.2,6.5-22.3c-1.9-3.6-7.4-8.6-11.5-10.4c-1.7-0.8-3.4-1.6-5-2.6c-1.4-0.8-2.8-1.5-4.3-2
		c-3.9-1.4-2.5-3.1,1.6-1.9c1.8,0.5,4,1.1,4.9,1.4c4.3,1,16.3,10.6,18.5,14.9c2.1,4.1,1,13.5-2.3,18.9c-1.1,1.9-2.1,3.9-3,5.9
		c-0.3,1-1,1.8-1.5,1.8s-0.9,0.6-0.9,1.3c0,1.9-5.9,8.7-7.5,8.7c-1.1,0.3-2.1,1-2.7,1.9c-1.1,1.3-2.6,2.2-4.3,2.6
		c-2,0.5-4,1.3-5.9,2.2c-2.5,1.3-12.2,4.4-17.9,5.7c-1,0.2-2.7,0.7-3.7,1c-1.9,0.6-5.7,1.2-12.5,2c-6.2,0.7-21.6,3.5-25.5,4.5
		c-2.3,0.6-4.6,1.1-7,1.4c-1.9,0.2-5.1,0.7-7,1l-5.5,0.9c-1.1,0.2-3.6,0.6-5.5,0.9c-3.6,0.6-12.5,1.3-28.5,2.2
		c-15,0.9-62.8,1-66.5,0.1c-2.9-0.8-5.7-1.9-8.3-3.2c-1.8-1-3.8-1.9-5.8-2.5c-0.8-0.1-1.5-0.5-2.2-1l-7.4-6.1
		c-4-3.4-7.7-7.1-11-11.1c-4.5-5.7-15.9-23.3-18.5-28.8c-1.6-2.9-3.4-5.8-5.4-8.5c-2.3-3.3-5.8-9.1-7.8-12.8c-2-3.8-4.3-7.4-6.7-11
		c-4.2-5.9-13.9-20.9-13.9-21.5c0-0.5-5.1-8.4-16.1-24.9c-1.9-2.8-8.6-12.5-14.9-21.4s-12.7-17.9-14.2-20s-2.2-4-1.7-4.1
		s-0.5-1.9-2.4-3.8c-1.5-1.4-2.8-3-3.8-4.7c-0.5-1.7-14.9-18.3-24.5-28.3c-4.5-4.7-9.8-10.4-11.9-12.8c-3.5-4-11.6-10.2-13.3-10.2
		c-0.4,0-2.3-1.6-4.2-3.6c-2.2-2.2-4.7-4.1-7.4-5.6c-1.9-0.9-3.8-2-5.5-3.3c-1.2-0.9-2.6-1.6-4-2c-1.8-0.6-3.4-1.5-4.9-2.6
		c-1.7-1.1-3.7-1.8-5.8-1.9c-3.2,0-4.2-0.9-2.7-2.3c1.1-1.1,3.8-0.7,5.9,0.8"/>
	
		<linearGradient id="be68b065-6b84-4182-a528-ba64beabefea_00000150068570205094938380000003873987713452640903_" gradientUnits="userSpaceOnUse" x1="58.5866" y1="484.4961" x2="57.5866" y2="484.6561" gradientTransform="matrix(39.21 0 0 -147.78 -969.0601 71813.7188)">
		<stop  offset="0" style="stop-color:#EE7F89;stop-opacity:0.43"/>
		<stop  offset="1" style="stop-color:#F0919D;stop-opacity:0.5"/>
	</linearGradient>
	
		<path id="be68b065-6b84-4182-a528-ba64beabefea_00000083079745826839322470000000372931389104174996_" style="fill:url(#be68b065-6b84-4182-a528-ba64beabefea_00000150068570205094938380000003873987713452640903_);" d="
		M1301,131.8c3.6,3.9,7,9.7,13.6,23.1c9.5,19.2,16,69.7,12.3,95.9c-0.6,4.1-1.4,10.5-1.8,14.2c-0.8,8.1-3,11.1-7.6,10.5
		c-2.7-0.3-3.1-0.8-3.3-3.8c-0.2-1.9-0.7-6.6-1.3-10.4c-0.6-3.9-1.3-10.6-1.5-15c-0.2-4.1-0.7-8.1-1.4-12.1c-0.7-3.6-1.2-7.3-1.5-11
		c-1.1-13.2-2-20.9-3.1-26.4c-0.3-1.4-0.6-3.2-0.8-4c-0.2-1-0.5-2-0.8-3c-0.3-0.8-1.5-5.3-2.8-10c-1.2-4.7-2.8-10.5-3.6-13
		s-1.5-5.6-1.8-7c-2.1-11-4.8-22.9-5.8-25c-1-1.8-1.3-4-0.9-6c0.1-0.6,2-1,4.3-1C1296.8,127.8,1297.9,128.4,1301,131.8"/>
	
		<linearGradient id="a6beef9d-5d59-4d04-a150-c71eff2e6008_00000118380023182271590080000003001445888538696070_" gradientUnits="userSpaceOnUse" x1="34.9508" y1="479.0091" x2="34.2508" y2="480.0091" gradientTransform="matrix(193.08 0 0 -63.88 -5045.6416 30949.6816)">
		<stop  offset="0" style="stop-color:#EE7D80;stop-opacity:0.63"/>
		<stop  offset="1" style="stop-color:#F1989B;stop-opacity:0.71"/>
	</linearGradient>
	
		<path id="a6beef9d-5d59-4d04-a150-c71eff2e6008_00000110451256676242000840000007751971063314722993_" style="fill:url(#a6beef9d-5d59-4d04-a150-c71eff2e6008_00000118380023182271590080000003001445888538696070_);" d="
		M1529.1,293.8c1.9,2.2,4,4,4.7,4s1.3,0.3,1.3,0.8c0,1.7,13.3,8.3,21.3,10.6c5.7,1.7,19.4,2,20.3,0.5c0.2-0.4,2.7-1.5,5.4-2.4
		c3.2-1.1,6.2-2.7,9-4.6l4.1-2.9h24.8c27.6,0,37,0.8,56.4,4.5c23.3,4.5,32.7,8.6,36.7,16.2c2.7,5,1,11.4-4.8,18
		c-2.9,3.3-4.9,4.4-11,6.2c-14.7,4.3-34.5,8.1-46.2,8.7c-16.2,0.9-23.9-0.8-33.4-7.2c-1.8-1.2-3.7-2.3-5.6-3.3
		c-1.5-0.7-5.9-4.2-9.9-7.7c-10.1-8.9-14.8-10.9-32-13.9c-15.6-2.7-21.9-4.5-29-8c-5.8-2.9-14.8-11-15.5-14c-0.5-1.5-1.3-2.9-2.5-4
		c-2.7-2.4-2.5-5.4,0.4-5.4C1524.8,289.9,1526.9,291.4,1529.1,293.8"/>
	
		<linearGradient id="f62eab12-0db7-4750-8136-56d65fac129d_00000078750544619010778480000000422055978970462637_" gradientUnits="userSpaceOnUse" x1="85.7296" y1="450.0784" x2="86.7296" y2="450.3384" gradientTransform="matrix(20.08 0 0 -15.05 -401.7197 7151.1201)">
		<stop  offset="0" style="stop-color:#B0D79A;stop-opacity:0.41"/>
		<stop  offset="1" style="stop-color:#A7D395;stop-opacity:0.37"/>
	</linearGradient>
	
		<path id="f62eab12-0db7-4750-8136-56d65fac129d_00000131329270386363090140000000983934894429989763_" style="fill:url(#f62eab12-0db7-4750-8136-56d65fac129d_00000078750544619010778480000000422055978970462637_);" d="
		M1339.9,375.6l0.3,6.9l-4.3,0.6c-3.3,0.3-6.7,0.3-10,0l-5.7-0.6v-14.2l9.8,0.2l9.8,0.2L1339.9,375.6"/>
</g>
</svg>
