<?xml version="1.0" encoding="utf-8"?>
<!-- Generator: Adobe Illustrator 26.5.0, SVG Export Plug-In . SVG Version: 6.00 Build 0)  -->
<svg version="1.1" id="图层_1" xmlns="http://www.w3.org/2000/svg" xmlns:xlink="http://www.w3.org/1999/xlink" x="0px" y="0px"
	 viewBox="0 0 640 360" style="enable-background:new 0 0 640 360;" xml:space="preserve">
<style type="text/css">
	.st0{fill:none;}
	.st1{fill:#D2D2D2;}
	.st2{fill:url(#SVGID_00000044148824150871266460000011708420105171329189_);}
	.st3{fill:url(#SVGID_00000052791163291934714980000011845317104039533200_);}
	.st4{fill:url(#SVGID_00000006696610652023691580000016183250726913752756_);}
	.st5{fill:url(#SVGID_00000013180824675548667210000003336555391288891030_);}
	.st6{fill:url(#SVGID_00000098938049581395153610000007808589463467926708_);}
	.st7{fill:url(#SVGID_00000170961443785658935420000015145772439291352704_);}
	.st8{fill:url(#SVGID_00000085223258400296114700000012476139755888598456_);}
	.st9{fill:url(#SVGID_00000093146513641369087820000008351071915879216308_);}
	.st10{fill:url(#SVGID_00000117674757403751646360000002049803738573408132_);}
	.st11{fill:url(#SVGID_00000172436904927934847810000011585169825389160883_);}
	.st12{fill:url(#SVGID_00000172435128474780279330000017108264674420632207_);}
	.st13{fill:url(#SVGID_00000157277031926696269840000000328662404422713996_);}
	.st14{fill:url(#SVGID_00000155127652639199798590000000144362217011601073_);}
	.st15{fill:url(#SVGID_00000011715275322127474460000002719139274933046427_);}
	.st16{fill:none;stroke:#000000;stroke-miterlimit:10;}
	.st17{fill:none;stroke:#3FA9F5;stroke-width:4;stroke-linecap:round;stroke-miterlimit:10;}
	.st18{fill:#3FA9F5;}
</style>
<pattern  y="360" width="40" height="40" patternUnits="userSpaceOnUse" id="SVGID_1_" viewBox="0 -40 40 40" style="overflow:visible;">
	<g>
		<rect y="-40" class="st0" width="40" height="40"/>
		<g>
			<rect y="-40" class="st0" width="40" height="40"/>
			<rect y="-40" class="st0" width="40" height="40"/>
			<rect y="-20" class="st1" width="20" height="20"/>
			<rect x="20" y="-40" class="st1" width="20" height="20"/>
		</g>
	</g>
</pattern>
<pattern  id="SVGID_00000056404415289823578130000015901686975286574770_" xlink:href="#SVGID_1_" patternTransform="matrix(1 0 0 -1 29 -16716)">
</pattern>
<rect style="fill:url(#SVGID_00000056404415289823578130000015901686975286574770_);" width="640" height="360"/>
<linearGradient id="SVGID_00000150099335017762665540000013578477334615104662_" gradientUnits="userSpaceOnUse" x1="-1269.4508" y1="603.2673" x2="-1269.7667" y2="603.3238" gradientTransform="matrix(213.89 0 0 264.01 272061.0625 -159075.1562)">
	<stop  offset="0" style="stop-color:#831B1A"/>
	<stop  offset="1" style="stop-color:#E9A182"/>
</linearGradient>
<path style="fill:url(#SVGID_00000150099335017762665540000013578477334615104662_);" d="M420.8,129.6c2.8,3,5.5,6.2,8,9.5
	c1,1.6,2.3,2.9,3.5,4.3c0.8,0.7,1.5,1.6,1.9,2.5c0.7,1.2,1.5,2.5,2.4,3.5c2.9,3.5,10.6,15.1,11.4,17.1c0.3,0.8,1.7,3.4,2.9,5.6
	c2.3,3.8,6.7,12.1,9.7,18.1c2.3,4.5,5.5,11.7,9.6,21.2c2.1,5.1,4.3,10,4.9,11.1c0.5,0.9,0.8,1.8,0.9,2.8c0.3,1.5,0.9,2.8,1.6,4.1
	c0.9,1.6,1.5,2.9,1.2,2.9s1.1,3.3,2.9,6.4c0.3,0.6,0.5,1.2,0.6,1.8c0.3,1.5,0.9,2.8,1.6,4.1s1.2,2.7,1.6,4.1
	c0.1,0.7,0.3,1.2,0.7,1.8c0.3,0.6,1.9,3.8,3.5,7.2c1.5,3,3,6.1,4.7,9c0.8,1,1.4,2,1.9,3.3c0,1.4,10.7,13,12,13
	c0.3,0,0.7,0.2,0.7,0.5c0,1.1,8.5,5.3,13.5,6.8c3.6,1.1,11.4,1.2,12.7,0.3c1.2-0.7,2.6-1.2,3.9-1.7c2.8-1.2,5.4-2.8,7.9-4.6l4.5-3.4
	l-7.2-0.8c-12.4-1.2-18.4-3-28.8-8.9c-2.5-1.4-10.4-9.1-11.4-11.2c-0.6-1-2.5-3.9-4.4-6.5c-1.2-1.6-2.4-3.2-3.4-5
	c-0.6-1.1-1.2-2.3-2-3.3c-2.4-3.3-4.5-6.7-6.4-10.2c-0.6-1.2-1.4-2.4-2.1-3.5c-0.9-1.4-1.7-2.7-2.4-4.1c-0.8-1.6-1.7-3-2.6-4.4
	c-0.8-1-3.4-6-6-11.1s-4.9-9.6-5.1-10.2c-2.9-5.8-6.9-14.9-7.3-16.6c-0.2-1.6-3-7.1-5.5-11.1c-0.7-1-1.2-2-1.7-3.2
	c0-0.5-1.4-2.6-7.6-11.8c-1.2-1.8-3.5-5.2-5-7.6c-0.9-1.5-2-2.9-3.3-4.2c-0.9-0.8-1.6-1.7-2.1-2.7c-2.3-3.6-10.6-12.9-15.2-16.6
	C414.7,122.1,414.4,122.6,420.8,129.6z"/>
<linearGradient id="SVGID_00000141440645751893072720000005399663944500780462_" gradientUnits="userSpaceOnUse" x1="-1269.368" y1="613.1332" x2="-1268.7363" y2="613.1332" gradientTransform="matrix(189.05 0 0 54.85 240476.8438 -33329.6094)">
	<stop  offset="0" style="stop-color:#DD565A"/>
	<stop  offset="1" style="stop-color:#DD565A"/>
</linearGradient>
<path style="fill:url(#SVGID_00000141440645751893072720000005399663944500780462_);" d="M502.6,283.5c0,1.2,6.7,7.3,9.9,8.9
	c4.6,2.4,8.6,3.4,18.5,5.2c10.8,1.9,13.9,3.2,20.2,8.8c1.9,1.8,4.1,3.4,6.3,4.9c1.2,0.6,2.4,1.4,3.5,2c6.1,4.1,10.9,5.1,21.1,4.6
	c9.9-0.9,19.6-2.7,29.2-5.5c3.8-1.1,5.1-1.9,7-3.9c3.7-4.2,4.7-8.2,3-11.4c-2.5-4.7-8.5-7.3-23.2-10.3c-12-2.3-18.2-2.8-33.3-2.8
	h-13.3l-4.6,3.4c-5.2,3.7-10.7,6.1-14.9,6.5c-3.6,0.5-12.3-1.4-17-3.5c-2.8-1.4-5.5-2.9-8.1-4.6
	C504.5,284.1,502.6,283.1,502.6,283.5z"/>
<linearGradient id="SVGID_00000054964334639511946140000016032177746938136961_" gradientUnits="userSpaceOnUse" x1="-1270.7206" y1="603.2604" x2="-1270.5175" y2="603.1927" gradientTransform="matrix(249.55 0 0 273 317577.5 -164489)">
	<stop  offset="0" style="stop-color:#B14D3F"/>
	<stop  offset="1" style="stop-color:#D1B1C9"/>
</linearGradient>
<path style="fill:url(#SVGID_00000054964334639511946140000016032177746938136961_);" d="M403.7,112.3c-1.1,0.8-1.1,0.9-0.1,2.7
	c2.1,2.8,4.7,5.3,7.7,7.4c1.2,1,2.3,2.3,2.9,3.8c1,1.9,2.3,3.7,3.8,5.3c3.8,3.8,7.3,7.9,10.6,12.2c0.9,1.1,2.4,2.9,3.3,3.9
	c6.1,7.4,11.3,15.5,15.6,24.1c2.1,4.2,6,11.4,8.5,16.1c5,8.9,10.6,21,11.1,23c0.1,0.7,0.5,1.4,0.9,1.9c0.3,0.5,0.6,1,0.7,1.6
	c0.3,1.5,0.9,2.8,1.5,4.1c2.3,4.5,4.3,9.3,6,14c0.7,2.1,2.4,6.1,3.5,8.9c1.1,2.8,2.8,6.7,3.5,8.7c1,2.8,2.3,5.6,3.8,8.3
	c1,1.7,1.8,3.6,2.5,5.5c0.2,0.9,0.7,1.7,1.2,2.4s1,1.4,1.2,2.3c0.3,0.8,0.8,1.6,1.5,2.1c1,0.9,1.7,2,2.3,3.3c0.5,1,1,1.8,1.4,1.8
	s0.6,0.3,0.6,0.8c0,0.5,0.6,1.1,1.2,1.6c0.7,0.5,1.2,0.6,1.2,0.2c0-0.3,0.5-0.7,0.9-0.8c0.7-0.1,0.2-1.1-1.9-3.8
	c-1-1.2-2-2.6-2.8-4.1c-0.6-1.1-1.1-2.1-1.9-3.2c-1.7-2.9-3.3-6-4.7-9c-1.6-3.4-3.2-6.7-3.5-7.2c-0.3-0.6-0.6-1.1-0.7-1.8
	c-0.3-1.4-0.9-2.7-1.6-4.1c-0.7-1.4-1.2-2.7-1.6-4.1c-0.1-0.7-0.2-1.2-0.6-1.8c-1.8-3.3-3.2-6.4-2.9-6.4c0.2,0-0.3-1.4-1.2-2.9
	c-0.7-1.2-1.2-2.6-1.6-4.1c-0.1-1-0.5-1.9-0.9-2.8c-0.6-1-2.7-6-4.9-11.1c-3.9-9.5-7.3-16.7-9.6-21.2c-3-6-7.6-14.2-9.7-18.1
	c-1.2-2.3-2.6-4.9-2.9-5.6c-0.8-2-8.5-13.7-11.4-17.1c-0.9-1-1.8-2.3-2.4-3.5c-0.5-0.9-1.1-1.8-1.9-2.5c-1.4-1.2-2.5-2.7-3.5-4.3
	c-2.5-3.3-5.2-6.4-8-9.5c-6.4-7-6.1-7.4,1.1-1.5c4.6,3.7,13,13,15.2,16.6c0.5,1,1.2,1.9,2.1,2.7c1.2,1.2,2.4,2.7,3.3,4.2
	c1.5,2.4,3.8,5.8,5,7.6c6.2,9.3,7.6,11.3,7.6,11.8c0.5,1.1,1,2.1,1.7,3.2c2.5,3.9,5.3,9.5,5.5,11.1c0.3,1.8,4.3,10.8,7.3,16.6
	c0.3,0.5,2.6,5.1,5.1,10.2s5.2,10,6,11.1c0.9,1.5,1.8,2.9,2.6,4.4c0.7,1.5,1.5,2.8,2.4,4.1c0.8,1.1,1.5,2.3,2.1,3.5
	c1.9,3.5,4.1,6.9,6.4,10.2c0.8,1,1.5,2.1,2,3.3c1,1.7,2.1,3.4,3.4,5c1.9,2.5,3.8,5.5,4.4,6.5c1,2,9,9.7,11.4,11.2
	c10.4,5.8,18.3,8.1,30,9l6,0.5l-2.1,1.8l-2.1,1.8l2.7,0.1c1.5,0,2.7-0.3,2.7-0.7c0-0.3,0.3-0.7,0.7-0.7c0.8-0.3,1.6-0.8,2.1-1.5
	c0.8-0.8,2.4-2.1,3.5-3.2c1.9-1.6,2-1.8,1.2-2.6s-1.9-0.8-5.6-0.3c-4.5,0.6-16.4-0.1-17.8-1c-0.8-0.3-1.6-0.5-2.4-0.7
	c-5.6-1.2-10.9-3.5-15.7-6.8c-6.2-4.3-7-5-11.1-10.6c-1.4-1.9-2.7-3.8-3-4.1c-4.7-6.4-8.3-11.8-8.3-12.6c0-0.6-0.2-1-0.7-1
	c-0.5,0-0.7-0.5-0.7-0.9c0-0.5-0.2-0.9-0.6-0.9s-1.2-1.2-1.9-2.7c-0.7-1.5-2.3-4.1-3.3-5.8c-1-1.7-2-3.6-2.3-4.1
	c-0.2-0.5-0.5-0.9-0.8-1.2c-1.7-2.6-3.3-5.4-4.6-8.2c-0.6-1.1-1.1-2.1-1.8-3.2c-1.6-2.4-2.8-4.9-3.8-7.6c-0.5-1.4-1.1-2.7-1.9-3.8
	c-1-1.7-1.7-3.2-1.4-3.2c0.3,0,0.1-0.2-0.2-0.5c-0.8-0.6-2.8-5.1-3.7-8.3c-0.2-0.8-2.5-6.1-4.4-10.2c-0.6-1.2-1.8-3.6-2.8-5.4
	c-1-1.8-2.3-3.8-2.7-4.7c-0.3-0.7-0.7-1.4-1.2-1.9c-0.2-0.2-1.4-2-2.5-4.1c-0.9-1.8-2-3.5-3.3-5.1c-1-1.2-2-2.7-2.8-4.1
	c-1.4-2.3-2.9-4.4-4.6-6.4c-1.1-1.2-2.1-2.6-3-3.9c-1.7-2.3-3.4-4.4-5.3-6.5c-4.2-5-8.9-9.5-14-13.5c-0.8-0.6-1.5-1.1-2.1-1.9
	c-0.2-0.3-0.6-0.6-0.9-0.5c-1.5-0.6-2.7-1.5-3.9-2.4c-3.5-2.7-8.8-5.9-9.7-5.9C404.8,111.5,404.1,111.8,403.7,112.3z"/>
<linearGradient id="SVGID_00000179636010451339908520000006318438181589969823_" gradientUnits="userSpaceOnUse" x1="-1237.3745" y1="605.4918" x2="-1237.8369" y2="605.5031" gradientTransform="matrix(39.2 0 0 147.75 48882.1484 -89240.6719)">
	<stop  offset="0" style="stop-color:#DD000F"/>
	<stop  offset="1" style="stop-color:#F699A7"/>
</linearGradient>
<path style="fill:url(#SVGID_00000179636010451339908520000006318438181589969823_);" d="M353.3,175.9c-0.2,1.2,0,2.6,0.6,3.8
	c0.7,1.4,2.4,8.9,3.6,15.8c0.2,0.9,0.7,2.8,1.1,4.4l2.3,8.2c0.8,2.9,1.5,5.9,1.7,6.3c0.2,0.7,0.5,1.2,0.6,1.9
	c0.1,0.5,0.3,1.6,0.5,2.5c0.7,3.5,1.2,8.3,2,16.7c0.2,2.4,0.5,4.6,0.9,7c0.5,2.5,0.8,5.1,0.9,7.7c0.2,2.8,0.7,7,0.9,9.5
	c0.2,2.5,0.8,5.4,0.8,6.5c0.2,1.9,0.5,2.3,2.1,2.4c2.8,0.3,4.3-1.6,4.7-6.7c0.2-2.4,0.8-6.4,1.1-9c2.4-16.6-1.8-48.5-7.8-60.7
	c-4.2-8.5-6.4-12.2-8.6-14.6c-2-2.1-2.7-2.5-5-2.5C354.6,175.2,353.3,175.5,353.3,175.9z"/>
<linearGradient id="SVGID_00000062913142196069330030000008576160261608567471_" gradientUnits="userSpaceOnUse" x1="-1256.8926" y1="607.4233" x2="-1257.355" y2="606.9946" gradientTransform="matrix(77.52 0 0 113.83 97836.0391 -68976.0781)">
	<stop  offset="0" style="stop-color:#EE4143"/>
	<stop  offset="1" style="stop-color:#F4ADAE"/>
</linearGradient>
<path style="fill:url(#SVGID_00000062913142196069330030000008576160261608567471_);" d="M402,120.1c-3.6,2.4-18.8,18.6-22.7,24.5
	c-0.5,0.8-2.1,2.9-3.5,4.9c-4.5,6-10.4,19.6-10.4,24.3c0,2.8,0.5,3.3,7.2,7.3c1.4,0.8,5,3.3,8,5.4c1.9,1.6,4.1,2.9,6.4,3.9
	c1.7,0,2.9-2.4,3.8-7c2.9-14.6,4.4-20,7-25c0.9-1.6,1.6-3.2,2.3-4.7c0-0.5,5.5-9.5,8.3-13.5c1.6-2.5,2.9-5,4.1-7.6
	c2.1-4.6,2.3-5,1.2-6.9c-0.7-1.2-1.6-2.4-2.7-3.3c-1.1-0.8-2.3-1.7-3.3-2.6C405.9,117.9,405.4,117.9,402,120.1z"/>
<linearGradient id="SVGID_00000090255290692121458700000005077776545943563929_" gradientUnits="userSpaceOnUse" x1="-1273.4823" y1="602.5547" x2="-1272.8505" y2="602.5547" gradientTransform="matrix(434.07 0 0 356.2 553132.125 -214405.4219)">
	<stop  offset="0" style="stop-color:#B11315"/>
	<stop  offset="1" style="stop-color:#B11315"/>
</linearGradient>
<path style="fill:url(#SVGID_00000090255290692121458700000005077776545943563929_);" d="M397.8,113.6c-1.8,0.8-3.4,1.4-3.4,1.2
	c0-1-12.6,7-14.7,9.3c-0.6,0.7-2.9,3.3-5.4,5.8c-5.8,6.1-6.1,6.5-9,11.8c-1.4,2.5-2.8,5.1-3.2,5.5c-0.5,0.6-0.8,1.2-1,1.9
	c-0.2,0.5-0.9,2-1.6,3.4c-0.6,1.1-1,2.4-1.2,3.6c0,0.8-0.2,1.6-0.6,2.4c-0.9,1.7-3.2,10.2-3.6,13.5l-0.5,3h2.4
	c3.8,0,6.7,3.5,13.3,17.1c6,12.2,10.2,44,7.8,60.7c-0.3,2.6-0.9,6.7-1.1,9c-0.6,5.2-1.9,7-5,6.7l-2.1-0.3l0.3,2.9
	c0.7,5.9,2.9,41.7,3.3,53.2l0.3,11.8l3.5,0.3c2,0.2,4.1,0.2,6.1,0l2.7-0.3l0.3-12.2c1.1-29.3,3.9-58.6,8.3-87.5
	c1.7-10,4.4-13.4,10.8-13.4c3.6,0,5.6,1.2,8.1,5c0.9,1.2,4.6,6.7,8.6,12.1c3.9,5.4,8.3,11.7,9.8,14.2c1.5,2.5,4.4,6.7,6.3,9.5
	c1.2,1.7,2.4,3.6,3.4,5.4c0,0.5,6,9.7,8.8,13.7c1.6,2.3,2.9,4.5,4.3,7c1.2,2.4,3.5,6,5,8.1c1.2,1.7,2.4,3.5,3.4,5.4
	c3.5,6.3,7.4,12.4,11.7,18.2c2.1,2.5,4.4,4.9,7,7c2.1,1.8,4.3,3.5,4.6,3.8c0.3,0.3,0.9,0.6,1.4,0.7c1.2,0.3,2.5,0.9,3.6,1.6
	c1.7,0.8,3.4,1.6,5.2,2c2.4,0.6,32.5,0.5,42.1-0.1c10.2-0.7,15.8-1.1,18.1-1.5c1.2-0.2,2.8-0.5,3.5-0.6l3.5-0.6
	c1.2-0.2,3.3-0.5,4.4-0.7c1.1-0.2,3.3-0.6,4.4-0.9c2.5-0.7,12.2-2.4,16.1-2.9c2.7-0.2,5.3-0.7,7.9-1.2c0.7-0.2,1.7-0.6,2.4-0.7
	c3.8-0.9,7.6-2.1,11.3-3.6c1.2-0.6,2.5-1,3.7-1.4c1-0.3,2-0.9,2.7-1.7c0.5-0.7,1-1.1,1.8-1.2c1,0,4.7-4.4,4.7-5.5
	c0-0.5,0.2-0.8,0.6-0.8s0.7-0.6,0.9-1.1c0.6-1.2,1.2-2.5,1.9-3.7c2-3.5,2.8-9.4,1.5-12c-1.1-1.7-2.5-3.2-4.1-4.4
	c-3.3-2.8-7.8-5.6-7.8-5c0,0.2-0.6,0.1-1.1-0.2c-1.1-0.5-2.4-0.8-3.6-0.9c-1.4-0.2-4.1-0.7-6-1l-5.6-0.9c-3.2-0.6-9.8-2.3-17.4-4.5
	c-1.4-0.3-5.5-1.4-7.9-1.8c-0.9-0.2-3.8-0.8-6.7-1.4c-2.8-0.6-5.2-1-5.4-1.1c-0.8,0.3-1.5,0.8-2,1.5c-3.6,3.5-6.2,5.6-6.9,5.6
	c-0.3,0-0.6,0.2-0.7,0.6c0,0,0,0,0,0.1c0,0.3,4.6,0.7,12.9,0.7c14.7,0,20.9,0.6,32.7,2.8c14.8,2.9,20.6,5.5,23.2,10.3
	c1.7,3.2,0.7,7.2-3,11.4c-1.8,2.1-3,2.8-7,3.9c-9.6,2.7-19.3,4.6-29.2,5.5c-10.2,0.6-15-0.6-21.1-4.6c-1.1-0.8-2.3-1.5-3.5-2.1
	c-2.3-1.5-4.4-3-6.3-4.9c-6.3-5.6-9.3-6.9-20.2-8.8c-10-1.8-13.9-2.8-18.5-5.2c-3.3-1.6-9.9-7.7-9.9-8.9c0-0.5,1.9,0.6,4.3,2.3
	c5.1,3.7,10.9,6.3,17.1,7.6c8.5,1.7,14.3,0.2,23-6l4.5-3.3h-2.4c-1.8,0.1-3.5,0.7-5,1.8c-1.7,1.2-3.6,2.3-5.6,2.9
	c-1.2,0.3-2.4,0.8-3.4,1.6c-0.6,0.9-9.3,0.8-12.9-0.3c-5.1-1.5-13.4-5.6-13.4-6.8c0-0.2-0.3-0.5-0.8-0.5s-1.8-1.1-2.9-2.5
	c-2-2.4-5.1-3.5-5.1-1.9c0,0.3-0.6,0.3-1.2-0.1c-0.7-0.5-1.2-1.1-1.2-1.6c0-0.5-0.2-0.8-0.6-0.8s-0.9-0.8-1.4-1.8
	c-0.6-1.2-1.2-2.4-2.3-3.3c-0.7-0.6-1.2-1.4-1.5-2.1c-0.2-0.9-0.7-1.6-1.2-2.3c-0.7-0.7-1-1.5-1.2-2.4c-0.6-1.9-1.5-3.7-2.5-5.5
	c-1.5-2.7-2.7-5.4-3.8-8.3c-0.7-2-2.3-6-3.5-8.7c-1.2-2.7-2.8-6.8-3.5-8.9c-1.7-4.7-3.7-9.5-6-14c-0.7-1.4-1.1-2.7-1.5-4.1
	c0-0.6-0.2-1.1-0.7-1.6c-0.5-0.6-0.8-1.2-0.9-1.9c-0.5-2.1-6.1-14.1-11.1-23c-2.5-4.6-6.4-12-8.5-16.1c-3.4-6.9-7.4-13.5-12.2-19.5
	c-2.1-2.7-4.4-5.8-5.1-6.7c-0.7-0.9-1.7-2.1-2.3-2.7c-0.8-0.8-1.6-1.7-2.3-2.7c-2.7-3.5-10.4-11.7-11.2-11.7c-0.2,0-1.1,1.6-1.9,3.6
	c-1,2.5-2.3,4.9-3.7,7.1c-4.5,7-8.9,14.1-8.9,14.4c-0.7,1.6-1.4,3.2-2.3,4.7c-2.6,5.1-4.1,10.5-7,25c-0.9,4.6-2.3,7-3.8,7
	c-2.3-1.1-4.4-2.4-6.4-3.9c-3-2.3-6.7-4.6-8-5.4c-6.9-4.1-7.2-4.5-7.2-7.3c0-4.6,5.9-18.4,10.4-24.3c1.5-1.8,3-4.1,3.5-4.9
	c4.3-6.4,19.6-22.7,23.6-24.9l3-1.8l-2.3-2.9c-0.7-1-1.6-2-2.4-2.9C401.2,112.1,399.6,112.7,397.8,113.6z"/>
<linearGradient id="SVGID_00000157289265838185946050000016772659616863327391_" gradientUnits="userSpaceOnUse" x1="-1273.3989" y1="603.3898" x2="-1272.9816" y2="603.0965" gradientTransform="matrix(435.18 0 0 259.23 554548.4375 -156129.4688)">
	<stop  offset="0" style="stop-color:#7F7F7F;stop-opacity:0"/>
	<stop  offset="1" style="stop-color:#7F7F7F"/>
</linearGradient>
<path style="fill:url(#SVGID_00000157289265838185946050000016772659616863327391_);" d="M353.8,175c-0.9,2-0.9,2.4,0.1,4.6
	c0.7,1.4,2.4,8.9,3.6,15.8c0.2,0.9,0.7,2.8,1.1,4.4l2.3,8.2c0.8,2.9,1.5,5.9,1.7,6.3c0.2,0.7,0.5,1.2,0.6,1.9
	c0.1,0.5,0.3,1.6,0.5,2.5c0.7,3.5,1.2,8.3,2,16.7c0.2,2.4,0.5,4.6,0.9,7c0.5,2.5,0.8,5.1,0.9,7.7c0.2,2.8,0.7,7,0.9,9.5
	c0.2,2.5,0.8,5.4,0.8,6.5c0.2,1.9,0.5,2.3,2.1,2.4c2.8,0.3,4.3-1.6,4.7-6.7c0.2-2.4,0.8-6.4,1.1-9c2.3-16.4-1.7-47.7-7.6-60.2
	c-2.5-5.4-6.2-12-7.3-13.3c-1.4-1.5-0.7-2,1.2-1l4.6,2.5c1.9,1,3.7,2.4,5.2,3.9c0.8,0.9,1.7,1.7,2.7,2.3c1.1,0,6.3,3.9,8.5,6.4
	c1.2,1.5,4.6,5.1,7.6,8.1c6.1,6.3,15.1,16.8,15.5,17.9c0.7,1.1,1.5,2.1,2.4,2.9c1.2,1.2,1.9,2.3,1.6,2.4s0.1,1.2,1.1,2.6
	c1,1.4,5,7,9,12.7c4.1,5.8,8.2,11.7,9.5,13.4c7,10.4,10.2,15.5,10.2,15.8s6.1,9.8,8.8,13.5c1.6,2.3,2.9,4.5,4.3,7
	c1.2,2.4,3.5,6,5,8.1c1.2,1.7,2.4,3.5,3.4,5.4c3.5,6.3,7.4,12.4,11.7,18.2c2.1,2.5,4.4,4.9,7,7c2.1,1.8,4.3,3.5,4.6,3.8
	c0.3,0.3,0.9,0.6,1.4,0.7c1.2,0.3,2.5,0.9,3.6,1.6c1.7,0.8,3.4,1.6,5.2,2c2.4,0.6,32.5,0.5,42.1-0.1c10.2-0.7,15.8-1.1,18.1-1.5
	c1.2-0.2,2.8-0.5,3.5-0.6l3.5-0.6c1.2-0.2,3.3-0.5,4.4-0.7s3.3-0.6,4.4-0.9c2.5-0.7,12.2-2.4,16.1-2.9c2.7-0.2,5.3-0.7,7.9-1.2
	c0.7-0.2,1.7-0.6,2.4-0.7c3.8-0.9,7.6-2.1,11.3-3.6c1.2-0.6,2.5-1,3.7-1.4c1-0.3,2-0.9,2.7-1.7c0.5-0.6,1-1,1.8-1.1
	c1,0,4.7-4.4,4.7-5.5c0-0.5,0.2-0.8,0.6-0.8s0.7-0.6,0.9-1.1c0.6-1.4,1.2-2.6,1.9-3.8c2-3.5,2.8-9.4,1.5-12s-9-8.8-11.7-9.5
	c-0.6-0.1-2-0.6-3-0.9c-2.6-0.8-3.5,0.3-1,1.2c0.9,0.3,1.8,0.8,2.7,1.2c1,0.6,2,1.1,3.2,1.7c2.9,1.5,5.5,3.8,7.3,6.5
	c1.4,2.6-0.8,10-4.1,14.1c-1,1.2-6,4.6-6.1,4.2c-0.1-0.1-0.7,0.2-1.2,0.7c-0.9,0.7-1.8,1.2-2.8,1.7c-2.4,1.2-4.7,2.3-7.3,3
	c-1,0.2-2.1,0.6-3.2,0.9c-0.9,0.3-1.9,0.7-2.8,0.9c-1.9,0.6-4.4,0.9-9.1,1.8c-3.2,0.6-6.4,1.1-7.3,1.2s-5,0.9-9.1,1.9
	c-4.9,1-9.8,1.7-14.9,1.9c-3.9,0.1-12.3,0.6-18.4,0.9c-14.3,0.8-33.6,1.1-37.8,0.5c-6.8-1-13.4-4.6-17.3-9.4c-1-1.2-2.1-2.5-3.3-3.6
	c-0.7-0.6-1.1-1.2-1.1-1.6c0-0.3-0.7-1.1-1.6-1.8c-0.9-0.7-1.6-1.5-1.6-1.8c-0.1-0.6-0.3-1.1-0.8-1.6c-0.8-0.8-1.5-1.7-2.1-2.6
	c-0.7-1-1.9-2.5-2.7-3.5c-0.6-0.6-1.1-1.4-1.5-2.1c-1.5-2.5-3.2-4.7-5-7c-0.2-0.3-1.7-2.9-3-5.6c-5.9-11.5-7.7-14.9-9.6-17.6
	c-0.8-1-1.5-2.1-2-3.3c-0.7-1.1-1.5-2.4-2.3-3.4c-0.9-1.1-1.7-2.4-2.3-3.6c-0.6-1.4-1.4-2.6-2.3-3.6c-1-1.2-1.7-2.6-2.3-3.9
	c0-0.5-0.2-0.8-0.6-0.8c-0.3,0-0.9-0.7-1.2-1.5c-0.3-0.8-2-3-3.6-5.2c-2.4-3-4.6-6.2-6.7-9.5c-1.7-2.4-3.5-4.5-5.5-6.7
	c-1-1-1.9-2.1-2.7-3.4c-1-1.4-2-2.6-3.3-3.8c-1.8-1.8-5-5.3-6.9-7.7c-4.2-5.2-26.2-27.5-27.2-27.5c-1.9-1-3.7-2.1-5.3-3.5
	c-1.6-1.4-3.4-2.5-5.2-3.5c-1.4-0.7-2.7-1.6-3.8-2.5c-3.8-2.9-6.7-4.4-8.2-4.4c-0.9-0.1-1.7-0.5-2.4-0.9
	C356.3,172.9,354.7,173.2,353.8,175z"/>
<linearGradient id="SVGID_00000132787299619588367350000013193300338092791481_" gradientUnits="userSpaceOnUse" x1="-1244.3966" y1="604.33" x2="-1244.7802" y2="604.3187" gradientTransform="matrix(47.3 0 0 183.96 59270.8984 -110892.1016)">
	<stop  offset="0" style="stop-color:#000000;stop-opacity:0.4"/>
	<stop  offset="1" style="stop-color:#000000;stop-opacity:0.47"/>
</linearGradient>
<path style="fill:url(#SVGID_00000132787299619588367350000013193300338092791481_);" d="M396.9,221.8c-2.7,1.5-3.2,2-4.3,5.5
	c-3.6,11.1-9.1,63.2-10.6,100.7l-0.3,8.5h3.8l0.3-12.2c0.8-22.5,2.7-45.2,5.8-69.4c3.2-24.6,4.1-27.9,8.1-30.3
	c2.5-1.6,7.8-1.7,9.8-0.2c2.4,1.7,2.8,0.7,0.8-1.4C407.2,219.7,401.5,219.2,396.9,221.8z"/>
<linearGradient id="SVGID_00000012471251577034976410000003794951302535006635_" gradientUnits="userSpaceOnUse" x1="-1168.5708" y1="643.0278" x2="-1167.9391" y2="643.0278" gradientTransform="matrix(14 0 0 15.8 16733 -9827.5)">
	<stop  offset="0" style="stop-color:#A4FFBF;stop-opacity:0.37"/>
	<stop  offset="1" style="stop-color:#A4FFBF;stop-opacity:0.37"/>
</linearGradient>
<path style="fill:url(#SVGID_00000012471251577034976410000003794951302535006635_);" d="M373,331.9c0,4.4,0,4.6,1.5,4.6
	c0.8,0,2.8,0.2,4.4,0.3l2.9,0.5v-9.6l-4.4-0.2l-4.4-0.2V331.9z"/>
<linearGradient id="SVGID_00000182518528065279415740000009097950156995569813_" gradientUnits="userSpaceOnUse" x1="-1270.0289" y1="603.2559" x2="-1269.3971" y2="603.2559" gradientTransform="matrix(213.99 0 0 268.96 272188.75 -162042.6875)">
	<stop  offset="0" style="stop-color:#C4FFA7;stop-opacity:0.18"/>
	<stop  offset="1" style="stop-color:#C4FFA7;stop-opacity:0.18"/>
</linearGradient>
<path style="fill:url(#SVGID_00000182518528065279415740000009097950156995569813_);" d="M420.8,129.6c2.8,3,5.5,6.2,8,9.5
	c1,1.6,2.3,2.9,3.5,4.3c0.8,0.7,1.5,1.6,1.9,2.5c0.7,1.2,1.5,2.5,2.4,3.5c2.9,3.5,10.6,15.1,11.4,17.1c0.3,0.8,1.7,3.4,2.9,5.6
	c2.3,3.8,6.7,12.1,9.7,18.1c2.3,4.5,5.5,11.7,9.6,21.2c2.1,5.1,4.3,10,4.9,11.1c0.5,0.9,0.8,1.8,0.9,2.8c0.3,1.5,0.9,2.8,1.6,4.1
	c0.9,1.6,1.5,2.9,1.2,2.9s1.1,3.3,2.9,6.4c0.3,0.6,0.5,1.2,0.6,1.8c0.3,1.5,0.9,2.8,1.6,4.1s1.2,2.7,1.6,4.1
	c0.1,0.7,0.3,1.2,0.7,1.8c0.3,0.6,1.9,3.8,3.5,7.2c1.5,3,3,6.1,4.7,9c0.8,1,1.4,2,1.9,3.2c0.8,1.5,1.8,2.8,2.8,4.1
	c2.1,2.7,2.6,3.6,1.9,3.8c-3.8,0.8,5,8.9,14.3,13c4.9,2.1,13.2,3.8,16.9,3.4c4.3-0.6,9.6-2.9,14.8-6.7l4.5-3.3h-2.3l-2.3-0.1
	l2.1-1.8l2.1-1.8l-6-0.5c-11.7-0.9-19.6-3.3-30-9c-2.5-1.4-10.4-9.1-11.4-11.2c-0.6-1-2.5-3.9-4.4-6.5c-1.2-1.6-2.4-3.2-3.4-5
	c-0.6-1.1-1.2-2.3-2-3.3c-2.4-3.3-4.5-6.7-6.4-10.2c-0.6-1.2-1.4-2.4-2.1-3.5c-0.9-1.4-1.7-2.7-2.4-4.1c-0.8-1.6-1.7-3-2.6-4.4
	c-0.8-1-3.4-6-6-11.1s-4.9-9.6-5.1-10.2c-2.9-5.8-6.9-14.9-7.3-16.6c-0.2-1.6-3-7.1-5.5-11.1c-0.7-1-1.2-2-1.7-3.2
	c0-0.5-1.4-2.6-7.6-11.8c-1.2-1.8-3.5-5.2-5-7.6c-0.9-1.5-2-2.9-3.3-4.2c-0.9-0.8-1.6-1.7-2.1-2.7c-2.3-3.6-10.6-12.9-15.2-16.6
	C414.7,122.1,414.4,122.6,420.8,129.6z"/>
<linearGradient id="SVGID_00000038374660062072236490000004517536906237064092_" gradientUnits="userSpaceOnUse" x1="-1239.0399" y1="605.321" x2="-1239.5023" y2="605.321" gradientTransform="matrix(39.2 0 0 147.75 48882.1484 -89240.6719)">
	<stop  offset="0" style="stop-color:#DD000F"/>
	<stop  offset="1" style="stop-color:#F699A7"/>
</linearGradient>
<path style="fill:url(#SVGID_00000038374660062072236490000004517536906237064092_);" d="M288,149.5c-0.2,1.2-0.1,2.6,0.6,3.8
	c0.7,1.4,2.4,8.9,3.6,15.8c0.2,0.9,0.7,2.8,1.1,4.4c0.5,1.6,1.5,5.2,2.3,8.2c0.8,2.9,1.5,5.9,1.7,6.3c0.2,0.5,0.5,1.4,0.6,1.9
	c0.1,0.6,0.3,1.7,0.5,2.5c0.7,3.5,1.2,8.3,2,16.7c0.2,2.4,0.5,4.6,0.9,7c0.5,2.5,0.8,5.1,0.9,7.7c0.2,2.8,0.7,7,0.9,9.5
	c0.3,2.5,0.8,5.4,0.8,6.5c0.2,1.9,0.5,2.3,2.1,2.4c2.8,0.3,4.3-1.5,4.7-6.7c0.2-2.4,0.8-6.4,1.1-9c2.4-16.7-1.8-48.5-7.8-60.7
	c-4.2-8.5-6.4-12.2-8.6-14.7c-2-2.1-2.7-2.5-5-2.5C289.3,149,288,149.2,288,149.5z"/>
<linearGradient id="SVGID_00000176760801270516231680000013252743623856253595_" gradientUnits="userSpaceOnUse" x1="-1256.8942" y1="606.4547" x2="-1257.3567" y2="606.0373" gradientTransform="matrix(77.52 0 0 113.83 97836.0391 -68976.0781)">
	<stop  offset="0" style="stop-color:#EE4143"/>
	<stop  offset="1" style="stop-color:#F4ADAE"/>
</linearGradient>
<path style="fill:url(#SVGID_00000176760801270516231680000013252743623856253595_);" d="M402,10.4c-3.6,2.4-18.8,18.6-22.7,24.5
	c-0.5,0.8-2.1,2.9-3.5,4.9c-4.5,6-10.4,19.6-10.4,24.3c0,2.8,0.5,3.3,7.2,7.3c1.4,0.8,5,3.2,8,5.4c2,1.6,4.2,2.9,6.4,3.9
	c1.7,0,2.9-2.4,3.8-7c2.9-14.6,4.4-20,7-25c0.9-1.6,1.6-3.2,2.3-4.7c0-0.5,5.5-9.5,8.3-13.5c1.6-2.5,2.9-5,4.1-7.6
	c2.1-4.6,2.3-5,1.2-6.9c-0.7-1.2-1.6-2.4-2.7-3.3c-1.1-0.8-2.1-1.7-3.3-2.6C405.9,8.3,405.4,8.3,402,10.4z"/>
<linearGradient id="SVGID_00000036243850998671958850000000220093960492716196_" gradientUnits="userSpaceOnUse" x1="-1274.2369" y1="602.553" x2="-1273.6051" y2="602.553" gradientTransform="matrix(434.07 0 0 356.2 553132.125 -214405.4219)">
	<stop  offset="0" style="stop-color:#B11315"/>
	<stop  offset="1" style="stop-color:#B11315"/>
</linearGradient>
<path style="fill:url(#SVGID_00000036243850998671958850000000220093960492716196_);" d="M66.3,112.9c-1.8,0.8-3.4,1.4-3.4,1.2
	c0-1-12.6,7-14.7,9.3c-0.6,0.7-2.9,3.3-5.4,5.9c-5.8,6.1-6.1,6.5-9,11.8c-1.4,2.5-2.8,5.1-3.2,5.5c-0.5,0.6-0.8,1.2-1,1.9
	c-0.5,1.1-1,2.3-1.6,3.4s-1,2.4-1.2,3.6c0,0.8-0.2,1.6-0.6,2.4c-0.9,1.7-3.2,10.2-3.6,13.5l-0.5,3h2.4c3.8,0,6.7,3.5,13.3,17.1
	c6,12.2,10.2,44,7.8,60.7c-0.3,2.6-0.9,6.7-1.1,9c-0.6,5.2-1.9,7-5,6.7l-2.1-0.3l0.3,2.9c0.7,5.9,2.9,41.7,3.3,53.2l0.3,11.8
	l3.5,0.2c2,0.2,4.1,0.2,6.1,0l2.7-0.3l0.3-12.2c1.1-29.3,3.9-58.6,8.2-87.5c1.7-10,4.4-13.4,10.8-13.4c3.6,0,5.6,1.2,8.1,5
	c0.9,1.2,4.6,6.7,8.6,12.1c3.9,5.4,8.2,11.7,9.8,14.2c1.6,2.5,4.4,6.7,6.3,9.5c1.2,1.7,2.4,3.6,3.4,5.4c0,0.5,6,9.7,8.8,13.7
	c1.6,2.3,2.9,4.5,4.3,7c1.2,2.4,3.5,6,5,8.1c1.5,2.1,2.9,4.5,3.4,5.4c3.5,6.3,7.4,12.4,11.7,18.3c2.1,2.5,4.4,4.9,7,7
	c2.1,1.8,4.3,3.5,4.7,3.8c0.3,0.3,0.9,0.6,1.4,0.7c1.2,0.3,2.5,0.9,3.6,1.6c1.7,0.9,3.4,1.6,5.3,2c2.4,0.6,32.5,0.5,42.1,0
	c10.2-0.7,15.8-1.1,18.1-1.5c1.2-0.2,2.8-0.5,3.5-0.6l3.5-0.6c1.2-0.2,3.3-0.6,4.4-0.7s3.3-0.6,4.4-0.9c2.5-0.7,12.2-2.4,16.1-2.9
	c2.7-0.2,5.3-0.7,7.9-1.2c0.7-0.2,1.7-0.5,2.4-0.7c3.8-0.9,7.6-2.1,11.3-3.6c1.2-0.6,2.5-1,3.7-1.4c1-0.3,2-0.9,2.7-1.7
	c0.3-0.6,1-1,1.7-1.2c1,0,4.7-4.4,4.7-5.5c0-0.5,0.2-0.8,0.6-0.8c0.3,0,0.7-0.6,0.9-1.1c0.6-1.2,1.2-2.5,1.9-3.7
	c2-3.5,2.8-9.4,1.5-12c-1.1-1.7-2.5-3.2-4.1-4.4c-3.3-2.8-7.8-5.6-7.8-5c0,0.2-0.6,0-1.1-0.2c-1.1-0.5-2.4-0.8-3.6-0.9
	c-1.4-0.2-4.1-0.7-6-1s-4.5-0.8-5.6-0.9c-3.2-0.6-9.8-2.3-17.4-4.5c-1.4-0.3-5.5-1.4-7.9-1.8c-0.9-0.2-3.8-0.8-6.7-1.4
	s-5.2-1-5.4-1.1c-0.8,0.3-1.5,0.8-2,1.5c-3.6,3.5-6.2,5.6-6.8,5.6c-0.3,0-0.6,0.2-0.7,0.6c0,0,0,0,0,0.1c0,0.3,4.7,0.7,12.9,0.7
	c14.7,0,20.9,0.6,32.7,2.8c14.8,2.9,20.6,5.5,23.2,10.3c1.7,3.2,0.7,7.2-3,11.4c-1.8,2-3.2,2.8-7,3.9c-9.6,2.7-19.3,4.6-29.2,5.5
	c-10.2,0.6-15-0.6-21.1-4.6c-1-0.7-2.6-1.7-3.5-2c-2.3-1.5-4.4-3-6.3-4.9c-6.3-5.6-9.3-6.9-20.2-8.8c-10-1.8-13.9-2.8-18.5-5.2
	c-3.3-1.6-9.9-7.7-9.9-8.9c0-0.5,1.9,0.6,4.3,2.3c5.1,3.7,10.9,6.3,17.1,7.6c8.5,1.7,14.3,0.2,22.9-6l4.5-3.3h-1.9
	c-1.8,0.1-3.5,0.7-5,1.8c-1.7,1.2-3.6,2.3-5.6,2.9c-1.2,0.3-2.4,0.8-3.4,1.5c-0.6,0.9-9.3,0.8-12.9-0.3c-5.1-1.5-13.4-5.6-13.4-6.8
	c0-0.2-0.3-0.5-0.8-0.5s-1.8-1.1-2.9-2.5c-2-2.4-5.1-3.5-5.1-1.9c0,0.3-0.6,0.3-1.2-0.1c-0.7-0.5-1.2-1.1-1.2-1.6
	c0-0.5-0.2-0.8-0.6-0.8c-0.3,0-0.9-0.8-1.4-1.8c-0.6-1.2-1.2-2.4-2.3-3.3c-0.7-0.6-1.2-1.4-1.5-2.1c-0.2-0.9-0.7-1.6-1.2-2.3
	c-0.7-0.7-1-1.5-1.2-2.4c-0.6-1.9-1.5-3.7-2.5-5.5c-1.5-2.7-2.7-5.4-3.8-8.2c-0.7-2-2.3-6-3.5-8.7c-1.2-2.7-2.8-6.7-3.5-8.9
	c-1.7-4.7-3.7-9.5-6-14c-0.7-1.4-1.1-2.7-1.5-4.1c0-0.6-0.2-1.1-0.7-1.6c-0.5-0.6-0.8-1.2-0.9-1.9c-0.5-2.1-6.1-14.1-11.1-23
	c-2.5-4.6-6.4-12-8.5-16.1c-3.4-6.9-7.4-13.5-12.2-19.5c-2-2.7-4.4-5.8-5.1-6.7c-0.7-0.9-1.7-2.1-2.3-2.7c-0.8-0.8-1.6-1.7-2.3-2.7
	c-2.7-3.5-10.5-11.7-11.2-11.7c-0.2,0-1.1,1.6-1.9,3.6c-1,2.5-2.3,4.9-3.7,7.1c-4.5,7-8.8,14.1-8.8,14.4c-0.7,1.6-1.4,3.2-2.3,4.7
	c-2.6,5.1-4.1,10.5-7,25c-0.9,4.6-2.3,7-3.8,7c-2.3-1.1-4.4-2.4-6.4-3.9c-3-2.3-6.7-4.6-8-5.4c-6.8-4.1-7.3-4.5-7.3-7.3
	c0-4.6,5.9-18.3,10.4-24.3c1.5-1.8,3-4.1,3.5-4.9c4.3-6.4,19.6-22.7,23.6-24.9l3-1.8l-2.3-2.9c-0.7-1-1.6-2-2.4-2.9
	C69.6,111.3,68.1,111.9,66.3,112.9z"/>
<line class="st16" x1="389.9" y1="154.4" x2="389.9" y2="94.9"/>
<line class="st16" x1="365.3" y1="202.8" x2="308.7" y2="178.1"/>
<g>
	<g>
		<line class="st17" x1="217.4" y1="138.3" x2="341.4" y2="138.3"/>
		<g>
			<polygon class="st18" points="170.7,138.3 236.5,152.3 221,138.3 236.5,124.4 			"/>
		</g>
	</g>
</g>
</svg>
