<?xml version="1.0" encoding="utf-8"?>
<!-- Generator: Adobe Illustrator 26.5.0, SVG Export Plug-In . SVG Version: 6.00 Build 0)  -->
<svg version="1.1" id="图层_1" xmlns="http://www.w3.org/2000/svg" xmlns:xlink="http://www.w3.org/1999/xlink" x="0px" y="0px"
	 viewBox="0 0 641.8 360.9" style="enable-background:new 0 0 641.8 360.9;" xml:space="preserve">
<style type="text/css">
	.st0{fill:none;}
	.st1{fill:#D2D2D2;}
	.st2{fill:url(#SVGID_00000036971042164552094560000008403717215273311111_);}
	.st3{fill:url(#b5ede969-c253-4426-bcc9-1f7fd63c3fc5_00000084495900633310565060000002338615196764899461_);}
	.st4{fill:url(#ec6b1a09-baeb-40f2-a2e0-d3018baeafbb_00000168834988106195998690000005134133150571380407_);}
	.st5{fill:url(#fbc6dc1b-e351-4a69-ba8e-5451f287d976_00000027575720195111000590000009398777936090512307_);}
	.st6{fill:url(#a54ef78b-324c-43e2-8b6b-51cac612f80c_00000085243430843639847670000016743186808974885514_);}
	.st7{fill:url(#b7616010-63d7-4fc7-90e5-fe13efba77a5_00000012446520832545145880000005366518822762852502_);}
	.st8{fill:url(#b9ca3cb7-835e-4702-b1c7-8a8f493d952a_00000038382168487143502950000009425180540658093747_);}
	.st9{fill:url(#b64f9201-3975-42c5-92e9-cbc9ccb5f005_00000029726076612255445640000015254105916317493889_);}
	.st10{fill:url(#ece12e78-c75f-4b77-aab5-fcb20241efb9_00000096051869775895222070000009751499702162981538_);}
	.st11{fill:url(#bbcbe9a3-15e1-4917-a4f1-1345ada08809_00000007428850052708576480000000430411202735640245_);}
	.st12{fill:url(#e1bc949a-63e5-4608-bac7-780ddcd236e4_00000077283308056878240260000012241550389699169153_);}
	.st13{fill:url(#b7616010-63d7-4fc7-90e5-fe13efba77a5_00000038404114871417938630000009456695481661621136_);}
	.st14{fill:url(#e456dc10-8bcb-4dad-8887-d863b6b33063_00000034792367854796481270000011844436896318832535_);}
	.st15{fill:url(#fd6cfcb5-456d-4bec-80b6-7026b1735e24_00000143610997821105253310000016389652042028525466_);}
	.st16{fill:url(#ba5aa691-07f9-4bba-b7b7-9b9158500b0f_00000175309671440945605550000006032087597426853816_);}
	.st17{fill:none;stroke:#000000;stroke-miterlimit:10;}
	.st18{fill:none;stroke:#3FA9F5;stroke-width:4;stroke-linecap:round;stroke-miterlimit:10;}
	.st19{fill:#3FA9F5;}
</style>
<pattern  y="360.9" width="40" height="40" patternUnits="userSpaceOnUse" id="SVGID_1_" viewBox="0 -40 40 40" style="overflow:visible;">
	<g>
		<rect y="-40" class="st0" width="40" height="40"/>
		<g>
			<rect y="-40" class="st0" width="40" height="40"/>
			<rect y="-40" class="st0" width="40" height="40"/>
			<rect y="-20" class="st1" width="20" height="20"/>
			<rect x="20" y="-40" class="st1" width="20" height="20"/>
		</g>
	</g>
</pattern>
<pattern  id="SVGID_00000121271171497223123240000002779428202716567172_" xlink:href="#SVGID_1_" patternTransform="matrix(1 0 0 -1 22.6 -16683.9102)">
</pattern>
<rect style="fill:url(#SVGID_00000121271171497223123240000002779428202716567172_);" width="641.8" height="360.9"/>
<g id="f066bc05-964d-4a68-a416-28e03e144b83">
	
		<linearGradient id="b5ede969-c253-4426-bcc9-1f7fd63c3fc5_00000060025790613605545890000004636977662939166605_" gradientUnits="userSpaceOnUse" x1="-1227.6804" y1="632.1349" x2="-1227.6804" y2="631.491" gradientTransform="matrix(434.04 0 0 -357.14 533366.4375 225861.5938)">
		<stop  offset="0" style="stop-color:#C94B4D"/>
		<stop  offset="1" style="stop-color:#8F1D22"/>
	</linearGradient>
	
		<path id="b5ede969-c253-4426-bcc9-1f7fd63c3fc5" style="fill:url(#b5ede969-c253-4426-bcc9-1f7fd63c3fc5_00000060025790613605545890000004636977662939166605_);" d="
		M426.7,104.7c2,1.3,3.9,2.6,5.8,4.1c1.1,1,2.3,1.8,3.7,2.4c0.3,0,0.6,0.2,0.8,0.5c0.5,0.8,1.3,1.4,2,2c4.7,4.1,9.2,8.7,13.1,13.8
		c1.8,2.1,3.4,4.4,5,6.7c0.8,1.5,1.8,2.8,2.8,4c1.6,2.1,3.1,4.3,4.4,6.6c0.7,1.5,1.7,2.9,2.6,4.1c1.2,1.6,2.2,3.3,3.1,5.2
		c0.7,1.5,1.5,2.9,2.3,4.1c0.4,0.6,0.8,1.3,1.2,2c0.4,0.9,1.6,3.1,2.5,4.8c0.9,1.7,2.1,4.3,2.6,5.5c1.8,4.1,3.9,9.6,4.1,10.4
		c0.8,3.3,2.7,7.9,3.6,8.5c0.3,0.2,0.4,0.5,0.2,0.5s0.4,1.5,1.4,3.2c0.7,1.3,1.4,2.5,1.8,3.9c0.9,2.6,2.1,5.3,3.6,7.6
		c0.6,1,1.2,2.1,1.7,3.2c1.3,2.9,2.7,5.6,4.3,8.4c0.3,0.3,0.5,0.8,0.7,1.3c0.2,0.6,1.2,2.4,2.1,4.1c0.9,1.7,2.3,4.5,3.1,6
		s1.6,2.8,1.8,2.8s0.5,0.5,0.5,0.9s0.3,0.9,0.6,0.9c0.3,0,0.6,0.5,0.6,1c0,0.8,3.4,6.3,7.8,12.9l2.7,4.1c3.8,5.8,4.5,6.4,10.3,10.8
		c4.4,3.3,9.4,5.6,14.7,6.9c0.7,0.1,1.5,0.3,2.2,0.7c1.3,0.8,12.5,1.5,16.7,1c2.4-0.3,4.7-0.3,5.1,0c0.4,0.3,0.9,0.5,1.5,0.5
		c0.5,0,3.1,0.5,5.6,1l6.2,1.4c2.2,0.5,6.1,1.5,7.4,1.8c7.1,2.3,13.3,4,16.3,4.6c1.2,0.2,3.6,0.7,5.3,1c1.7,0.3,4.3,0.8,5.6,1
		c1.2,0.2,2.3,0.5,3.4,1c0.5,0.3,1.1,0.5,1.1,0.2c0-0.6,4.2,2.3,7.3,5.2c1.5,1.3,2.7,2.8,3.8,4.5c1.3,2.6,0.5,8.6-1.4,12.2
		c-0.7,1.3-1.3,2.5-1.8,3.8c-0.2,0.6-0.5,1.2-0.8,1.2c-0.3,0-0.5,0.3-0.5,0.8c0,1.2-3.5,5.6-4.4,5.6c-0.6,0.1-1.3,0.6-1.6,1.3
		c-0.6,0.8-1.6,1.4-2.5,1.7c-1.2,0.3-2.3,0.8-3.5,1.4c-3.5,1.5-7,2.8-10.6,3.7c-0.6,0.1-1.6,0.5-2.1,0.7c-2.4,0.7-4.9,1-7.4,1.3
		c-3.7,0.5-12.8,2.3-15.1,2.9c-1.4,0.3-2.7,0.7-4.1,0.9c-1.2,0.1-3.1,0.5-4.1,0.7l-3.3,0.6c-0.6,0.1-2.1,0.3-3.3,0.6
		c-2.1,0.3-7.4,0.8-16.9,1.5c-8.9,0.6-37.1,0.6-39.4,0.1c-1.7-0.5-3.4-1.3-5-2.1c-1.1-0.7-2.2-1.2-3.4-1.6c-0.4-0.1-0.9-0.3-1.3-0.6
		l-4.3-3.9c-2.3-2.2-4.5-4.6-6.5-7.1c-4-5.9-7.7-12.1-11-18.5c-0.9-1.8-2-3.7-3.2-5.5c-1.4-2.2-3.5-5.9-4.6-8.3
		c-1.2-2.4-2.5-4.8-3.9-7.1c-2.5-3.8-8.2-13.5-8.2-13.9c0-0.5-3.1-5.4-9.5-16c-1.2-1.8-5.1-8.1-8.9-13.8s-7.5-11.6-8.4-12.9
		c-0.9-1.3-1.4-2.5-1.1-2.6s-0.3-1.3-1.5-2.4c-0.8-0.9-1.7-2-2.2-3c-0.3-1.2-8.9-11.7-14.6-18.3c-2.6-3-5.8-6.7-7.1-8.3
		c-2.1-2.5-6.9-6.6-7.9-6.6c-0.9-0.6-1.8-1.4-2.5-2.3c-1.3-1.4-2.7-2.6-4.4-3.6c-1.2-0.6-2.2-1.3-3.3-2.1c-0.7-0.6-1.5-1-2.3-1.3
		c-1.1-0.3-2-0.9-2.8-1.7c-1.1-0.7-2.2-1.2-3.5-1.2h-2.1l0.4-3.1c0.4-3.5,2.5-12.2,3.4-13.9c0.3-0.7,0.5-1.5,0.5-2.3
		c0.2-1.3,0.5-2.5,1.2-3.7c0.6-1.4,1.3-2.9,1.5-3.5c0.2-0.7,0.5-1.4,0.9-2c0.3-0.6,1.7-3.1,3-5.6c1.1-2.1,2.2-4.1,3.4-6
		c2.5-3.3,3.3-4.1,7.3-8.7c2.4-2.8,5.1-5.3,7.9-7.6c3.8-2.8,8.7-5.8,8.7-5.2c1.2-0.2,2.2-0.7,3.3-1.3c1.9-0.9,3.4-1.3,3.6-0.9
		c0.2,0.3,0.8,0.2,1.6-0.3c1.7-1.3,1.8-1.3,5.1,0.7"/>
	
		<linearGradient id="ec6b1a09-baeb-40f2-a2e0-d3018baeafbb_00000124872008006092290970000000918295851881040546_" gradientUnits="userSpaceOnUse" x1="-1215.1436" y1="631.0496" x2="-1214.5511" y2="630.9967" gradientTransform="matrix(92.35 0 0 -255.58 112593.2969 161531.3594)">
		<stop  offset="0" style="stop-color:#B8292D"/>
		<stop  offset="1" style="stop-color:#911D22"/>
	</linearGradient>
	
		<path id="ec6b1a09-baeb-40f2-a2e0-d3018baeafbb" style="fill:url(#ec6b1a09-baeb-40f2-a2e0-d3018baeafbb_00000124872008006092290970000000918295851881040546_);" d="
		M380.7,169.4c0.8,0.7,1.8,1.3,2.8,1.7c0.8,0.3,1.7,0.7,2.3,1.3c1.1,0.8,2.1,1.5,3.3,2.1c1.6,1,3.1,2.2,4.4,3.6
		c0.7,0.9,1.6,1.7,2.5,2.3c1.1,0,5.8,4,7.9,6.6c1.2,1.5,4.4,5.2,7.1,8.3c5.7,6.4,14.1,17.1,14.6,18.3c0.6,1.2,1.4,2.2,2.2,3
		c2.1,2.3,1.8,3.5-0.5,1.7c-1.9-1.5-6.9-1.3-9.2,0.2c-3.8,2.5-4.6,6-7.6,31c-2.8,24.6-4.6,48-5.4,70.8l-0.4,12.3l-2.4,0.3
		c-1.9,0.2-3.8,0.2-5.8,0l-3.3-0.3l-0.4-12.1c-0.4-15-3.2-59.4-4-65.9c-0.3-2.6-0.7-7.1-0.9-10c-0.1-2.6-0.4-5.3-0.8-7.8
		c-0.4-2.3-0.7-4.7-0.8-7.1c-0.3-5.8-0.9-11.4-1.8-17c-0.1-0.9-0.4-2.1-0.4-2.5c-0.1-0.7-0.3-1.3-0.5-2c-0.2-0.6-0.9-3.5-1.7-6.4
		c-0.7-3-1.7-6.8-2.1-8.4c-0.4-1.6-0.9-3.6-1.1-4.5c-1.2-7.1-2.8-14.8-3.4-16.1c-0.6-1.2-0.7-2.5-0.5-3.9
		C374.8,167.7,379.2,168.1,380.7,169.4"/>
</g>
<g id="e7700208-a9b1-44ad-8085-f64e104c008d">
	
		<linearGradient id="fbc6dc1b-e351-4a69-ba8e-5451f287d976_00000096058450621528454520000013226525671705274025_" gradientUnits="userSpaceOnUse" x1="-1211.6355" y1="626.5929" x2="-1211.9977" y2="627.2469" gradientTransform="matrix(77.53 0 0 -113.83 94362.3047 71509)">
		<stop  offset="0" style="stop-color:#EA6767;stop-opacity:0.8"/>
		<stop  offset="1" style="stop-color:#ECA6A6;stop-opacity:0.81"/>
	</linearGradient>
	
		<path id="fbc6dc1b-e351-4a69-ba8e-5451f287d976" style="fill:url(#fbc6dc1b-e351-4a69-ba8e-5451f287d976_00000096058450621528454520000013226525671705274025_);" d="
		M425.8,111.6c0.9,0.9,2,1.8,3.1,2.6c1.1,0.9,1.9,2,2.5,3.2c0.8,2,0.8,2.3-1.2,7c-1.2,2.6-2.4,5.3-3.8,7.7
		c-2.6,4.3-7.8,13.5-7.8,13.9c-0.6,1.6-1.3,3.2-2.1,4.8c-2.4,5.2-3.9,10.7-6.5,25.5c-0.8,4.7-2.1,7.1-3.6,7.1c-0.4,0-3.2-1.8-6-4
		c-2.8-2.2-6.2-4.7-7.5-5.5c-6.4-4.1-6.9-4.5-6.9-7.5c0-4.7,5.5-18.8,9.7-24.7c1.4-2,2.8-4.1,3.3-4.9c3.6-5.9,17.8-22.6,21.2-25
		C423.5,109.8,424,109.7,425.8,111.6"/>
	
		<linearGradient id="a54ef78b-324c-43e2-8b6b-51cac612f80c_00000097499494465868878850000012893973152808748188_" gradientUnits="userSpaceOnUse" x1="-1227.3911" y1="631.1918" x2="-1227.9641" y2="630.9974" gradientTransform="matrix(433.77 0 0 -259.27 533034 163866.7344)">
		<stop  offset="0" style="stop-color:#CE848E"/>
		<stop  offset="1" style="stop-color:#170305;stop-opacity:0.35"/>
	</linearGradient>
	
		<path id="a54ef78b-324c-43e2-8b6b-51cac612f80c" style="fill:url(#a54ef78b-324c-43e2-8b6b-51cac612f80c_00000097499494465868878850000012893973152808748188_);" d="
		M379.1,167.2c0.6,0.6,1.4,0.8,2.2,0.9c1.5,0,4,1.6,7.7,4.6c1.1,1,2.3,1.8,3.6,2.5c1.7,1,3.4,2.2,4.9,3.6c1.6,1.4,3.2,2.5,5,3.6
		c0.9,0,21.5,22.8,25.4,28.1c1.8,2.4,4.6,6,6.3,7.9c1.2,1.2,2.2,2.4,3.2,3.8c0.7,1.3,1.6,2.4,2.5,3.5c3.2,3.8,5.2,6.4,5.2,6.8
		c1.9,3.3,4,6.6,6.2,9.7c1.2,1.7,2.3,3.5,3.4,5.3c0.4,0.8,0.9,1.5,1.2,1.5s0.5,0.3,0.5,0.8c0.5,1.5,1.2,2.9,2.1,4
		c0.8,1.2,1.6,2.4,2.1,3.7c0.5,1.4,1.3,2.5,2.1,3.7c0.7,1,1.5,2.3,2.1,3.5c0.5,1.2,1.2,2.3,1.9,3.3c1.8,2.9,3.5,6.2,9,18.1
		c1.4,2.9,2.6,5.4,2.8,5.8c1.7,2.3,3.3,4.7,4.6,7.1c0.3,0.8,0.7,1.5,1.4,2.2c0.7,0.9,1.9,2.5,2.5,3.6c0.6,0.9,1.3,1.8,1.9,2.6
		c0.4,0.5,0.6,0.9,0.7,1.5c0,0.3,0.6,1.2,1.5,2s1.5,1.5,1.5,1.8c0.2,0.6,0.5,1.2,1.1,1.6c1.1,1.2,2.1,2.4,3.1,3.8
		c3.6,4.8,9.8,8.5,16.1,9.6c3.9,0.6,21.8,0.3,35.4-0.5c5.7-0.3,13.4-0.8,17.1-1c4.6-0.3,9.3-1,13.9-2c3.9-0.9,7.8-1.7,8.5-2l6.8-1.3
		c4.4-0.8,6.9-1.4,8.5-1.8c0.1,0,1.4-0.5,2.6-1c0.9-0.3,2-0.7,3-1c2.3-0.8,4.6-1.8,6.9-3.1c0.8-0.5,1.7-1,2.5-1.7
		c0.6-0.6,1.2-0.9,1.2-0.7c0.1,0.5,4.7-3,5.7-4.3c3.2-4.3,5.2-11.7,3.8-14.4c-1.7-2.9-4-5.2-6.9-6.7c-1.1-0.5-2-1-3-1.7
		c-0.8-0.6-1.7-0.9-2.5-1.3c-2.3-0.9-1.5-2.1,0.9-1.2c1.1,0.3,2.3,0.7,3,0.9c2.5,0.6,9.6,6.9,11,9.7c1.4,2.8,0.5,8.6-1.4,12.2
		c-0.7,1.3-1.3,2.5-1.8,3.8c-0.2,0.6-0.5,1.2-0.8,1.2c-0.3,0-0.5,0.3-0.5,0.8c0,1.2-3.5,5.6-4.4,5.6c-0.6,0.1-1.3,0.6-1.6,1.3
		c-0.6,0.8-1.6,1.4-2.5,1.7c-1.2,0.3-2.3,0.8-3.5,1.4c-3.5,1.5-7,2.8-10.6,3.7c-0.6,0.1-1.6,0.5-2.1,0.7c-2.4,0.7-4.9,1-7.4,1.3
		c-3.7,0.5-12.8,2.3-15.1,2.9c-1.4,0.3-2.7,0.7-4.1,0.9c-1.2,0.1-3.1,0.5-4.1,0.7l-3.3,0.6c-0.6,0.1-2.1,0.3-3.3,0.6
		c-2.1,0.3-7.4,0.8-16.9,1.5c-8.9,0.6-37.1,0.6-39.4,0.1c-1.7-0.5-3.4-1.3-5-2.1c-1.1-0.7-2.2-1.2-3.4-1.6c-0.4-0.1-0.9-0.3-1.3-0.6
		l-4.3-3.9c-2.3-2.2-4.5-4.6-6.5-7.1c-4-5.9-7.7-12.1-11-18.5c-0.9-1.8-2-3.7-3.2-5.5c-1.4-2.2-3.5-5.9-4.6-8.3s-2.5-4.8-3.9-7.1
		c-2.5-3.8-8.2-13.5-8.2-13.9c0-0.5-3.1-5.4-9.5-16c-1.2-1.8-5.1-8.1-8.9-13.8s-7.5-11.6-8.4-12.9c-0.9-1.3-1.4-2.5-1.1-2.6
		s-0.3-1.3-1.5-2.4c-0.8-0.9-1.7-2-2.2-3c-0.3-1.2-8.9-11.7-14.6-18.3c-2.6-3-5.8-6.7-7.1-8.3c-2.1-2.5-6.9-6.6-7.9-6.6
		c-0.9-0.6-1.8-1.4-2.5-2.3c-1.3-1.4-2.7-2.6-4.4-3.6c-1.2-0.6-2.2-1.3-3.3-2.1c-0.7-0.6-1.5-1-2.3-1.3c-1.1-0.3-2-0.9-2.8-1.7
		c-1.1-0.7-2.2-1.2-3.4-1.2c-1.9,0-2.4-0.6-1.6-1.5c0.6-0.7,2.2-0.5,3.5,0.5"/>
	
		<linearGradient id="b7616010-63d7-4fc7-90e5-fe13efba77a5_00000027595204687530903590000003960436165117917067_" gradientUnits="userSpaceOnUse" x1="-1192.4631" y1="628.7294" x2="-1193.0597" y2="628.8254" gradientTransform="matrix(39.21 0 0 -147.78 47154.1914 93137.3594)">
		<stop  offset="0" style="stop-color:#ED7F88;stop-opacity:0.43"/>
		<stop  offset="1" style="stop-color:#EF8F9B;stop-opacity:0.5"/>
	</linearGradient>
	
		<path id="b7616010-63d7-4fc7-90e5-fe13efba77a5" style="fill:url(#b7616010-63d7-4fc7-90e5-fe13efba77a5_00000027595204687530903590000003960436165117917067_);" d="
		M381.8,170.8c2.1,2.5,4.1,6.2,8,15c5.6,12.4,9.5,45,7.3,61.9c-0.3,2.6-0.8,6.8-1.1,9.2c-0.5,5.2-1.8,7.1-4.4,6.8
		c-1.6-0.2-1.8-0.5-2-2.4c-0.1-1.3-0.4-4.3-0.7-6.8s-0.7-6.9-0.9-9.7c-0.1-2.6-0.4-5.3-0.8-7.8c-0.4-2.3-0.7-4.7-0.8-7.1
		c-0.3-5.8-0.9-11.4-1.8-17c-0.1-0.9-0.4-2.1-0.4-2.5c-0.1-0.7-0.3-1.3-0.5-2c-0.2-0.6-0.9-3.5-1.7-6.4c-0.7-3-1.7-6.8-2.1-8.4
		s-0.9-3.6-1.1-4.5c-1.2-7.1-2.8-14.8-3.4-16.1c-0.6-1.2-0.7-2.5-0.5-3.9c0-0.3,1.2-0.7,2.5-0.7C379.3,168.2,380,168.6,381.8,170.8"
		/>
	
		<linearGradient id="b9ca3cb7-835e-4702-b1c7-8a8f493d952a_00000161613697187882961680000003226318545070624438_" gradientUnits="userSpaceOnUse" x1="-1223.5638" y1="622.3955" x2="-1223.9985" y2="623.0194" gradientTransform="matrix(193.08 0 0 -63.88 236868.9844 40070.6758)">
		<stop  offset="0" style="stop-color:#ED7D80;stop-opacity:0.63"/>
		<stop  offset="1" style="stop-color:#F0969A;stop-opacity:0.71"/>
	</linearGradient>
	
		<path id="b9ca3cb7-835e-4702-b1c7-8a8f493d952a" style="fill:url(#b9ca3cb7-835e-4702-b1c7-8a8f493d952a_00000161613697187882961680000003226318545070624438_);" d="
		M516.7,275.3c1.2,1.4,2.4,2.5,2.7,2.5c0.3,0,0.7,0.2,0.7,0.5c0,1.2,7.8,5.4,12.6,6.9c3.4,1,11.5,1.3,12,0.3c0.9-0.7,2-1.2,3.2-1.5
		c1.9-0.7,3.6-1.7,5.3-3l2.4-1.8h14.7c16.4,0,21.8,0.5,33.4,2.9c13.8,2.9,19.3,5.5,21.7,10.5c1.6,3.2,0.5,7.4-2.8,11.6
		c-1.7,2.1-2.8,2.9-6.5,4c-8.7,2.8-20.4,5.2-27.3,5.6c-9.6,0.6-14.1-0.6-19.7-4.7c-1.1-0.8-2.2-1.5-3.3-2.2c-2.1-1.5-4-3.1-5.9-4.9
		c-5.9-5.8-8.8-7-18.9-9c-9.3-1.7-13-2.9-17.2-5.2c-3.5-1.8-8.8-7-9.2-9c-0.3-1-0.7-1.8-1.5-2.6c-1.6-1.6-1.5-3.5,0.2-3.5
		C514.2,272.7,515.5,273.8,516.7,275.3"/>
	
		<linearGradient id="b64f9201-3975-42c5-92e9-cbc9ccb5f005_00000047039305553672759550000007692532894698088630_" gradientUnits="userSpaceOnUse" x1="-1157.1655" y1="587.4272" x2="-1156.5638" y2="587.5884" gradientTransform="matrix(20.08 0 0 -15.05 23627.8086 9170.1846)">
		<stop  offset="0" style="stop-color:#AFD599;stop-opacity:0.41"/>
		<stop  offset="1" style="stop-color:#A6D294;stop-opacity:0.37"/>
	</linearGradient>
	
		<path id="b64f9201-3975-42c5-92e9-cbc9ccb5f005" style="fill:url(#b64f9201-3975-42c5-92e9-cbc9ccb5f005_00000047039305553672759550000007692532894698088630_);" d="
		M404.8,328.1l0.2,4.5l-2.5,0.3c-2,0.2-4,0.2-5.9,0l-3.4-0.3v-9.2l5.8,0.1l5.8,0.1V328.1"/>
</g>
<g id="b3709e7c-6abf-4531-9aca-8b356efaf8e0">
	
		<linearGradient id="ece12e78-c75f-4b77-aab5-fcb20241efb9_00000011013770047214826690000017035504586891959445_" gradientUnits="userSpaceOnUse" x1="-1225.2444" y1="631.5845" x2="-1225.2444" y2="630.9405" gradientTransform="matrix(249.57 0 0 -288.58 306279.4688 182369.0938)">
		<stop  offset="0" style="stop-color:#DABCBB;stop-opacity:0.75"/>
		<stop  offset="1" style="stop-color:#AD382A;stop-opacity:0.82"/>
	</linearGradient>
	
		<path id="ece12e78-c75f-4b77-aab5-fcb20241efb9" style="fill:url(#ece12e78-c75f-4b77-aab5-fcb20241efb9_00000011013770047214826690000017035504586891959445_);" d="
		M426.7,104.7c2,1.3,3.9,2.6,5.8,4.1c1.1,1,2.3,1.8,3.7,2.4c0.3,0,0.6,0.2,0.8,0.5c0.5,0.8,1.3,1.4,2,2c4.7,4.1,9.2,8.7,13.1,13.8
		c1.8,2.1,3.4,4.4,5,6.7c0.8,1.5,1.8,2.8,2.8,4c1.6,2.1,3.1,4.3,4.4,6.6c0.7,1.5,1.7,2.9,2.6,4.1c1.2,1.6,2.2,3.3,3.1,5.2
		c0.7,1.5,1.5,2.9,2.3,4.1c0.4,0.6,0.8,1.3,1.2,2c0.4,0.9,1.6,3.1,2.5,4.8c0.9,1.7,2.1,4.3,2.6,5.5c1.8,4.1,3.9,9.6,4.1,10.4
		c0.8,3.3,2.7,7.9,3.6,8.5c0.3,0.2,0.4,0.5,0.2,0.5s0.4,1.5,1.4,3.2c0.7,1.3,1.4,2.5,1.8,3.9c0.9,2.6,2.1,5.3,3.6,7.6
		c0.6,1,1.2,2.1,1.7,3.2c1.3,2.9,2.7,5.6,4.3,8.4c0.3,0.3,0.5,0.8,0.7,1.3c0.2,0.6,1.2,2.4,2.1,4.1c0.9,1.7,2.3,4.5,3.1,6
		s1.6,2.8,1.8,2.8s0.5,0.5,0.5,0.9s0.3,0.9,0.6,0.9c0.3,0,0.6,0.5,0.6,1c0,0.8,3.4,6.3,7.8,12.9l2.7,4.1c3.8,5.8,4.5,6.4,10.3,10.8
		c4.4,3.3,9.4,5.6,14.7,6.9c0.7,0.1,1.5,0.3,2.2,0.7c1.3,0.8,12.5,1.5,16.7,1c3.6-0.5,4.6-0.3,5.3,0.3s0.6,1.2-1.2,2.8
		c-1.1,1-2.6,2.4-3.4,3.2c-0.5,0.6-1.1,1-1.7,1.5c-0.4,0.1-0.8,0.5-1.2,0.8c-3.9,3.3-8.1,6.3-12.6,8.6c-4.9,2.2-8,2.4-13.7,1.2
		c-5.5-1.2-10.8-3.6-15.3-7.1c-3.7-2.6-9.5-8.9-9.5-10.1c0-0.3-0.2-0.6-0.5-0.6c-0.3,0-0.8-0.8-1.3-1.8c-0.5-1.3-1.3-2.4-2.1-3.3
		c-0.6-0.6-1.2-1.4-1.5-2.2c-0.2-0.8-0.6-1.6-1.2-2.3c-0.6-0.7-1.1-1.5-1.2-2.4c-0.5-2-1.4-3.8-2.3-5.6c-1.4-2.8-2.5-5.5-3.5-8.4
		c-0.6-2.1-2.1-6.1-3.3-8.9c-1.2-2.8-2.6-6.9-3.4-9.1c-1.6-4.9-3.5-9.7-5.6-14.4c-0.6-1.4-1.2-2.8-1.5-4.3c0-0.6-0.2-1.2-0.6-1.6
		c-0.4-0.6-0.7-1.3-0.8-2c-0.4-2.2-5.7-14.4-10.3-23.5c-2.4-4.8-6-12.2-8-16.5c-4-8.7-8.9-17-14.6-24.6c-0.8-1.2-2.2-3-3.1-4
		c-3.1-4.4-6.4-8.5-9.9-12.4c-1.5-1.6-2.6-3.5-3.6-5.4c-0.6-1.5-1.6-2.9-2.7-3.9c-2.7-2.2-5.1-4.7-7.1-7.6c-1.1-1.7-1.1-1.8,0-2.8
		C423.2,102.9,423.5,102.9,426.7,104.7"/>
	
		<linearGradient id="bbcbe9a3-15e1-4917-a4f1-1345ada08809_00000037689848510535283770000006686309748879923078_" gradientUnits="userSpaceOnUse" x1="-1200.0135" y1="629.9947" x2="-1199.4276" y2="629.9424" gradientTransform="matrix(47.31 0 0 -183.91 57173.8242 116131.8359)">
		<stop  offset="0" style="stop-color:#5D2920;stop-opacity:0.78"/>
		<stop  offset="1" style="stop-color:#48140C;stop-opacity:0.86"/>
	</linearGradient>
	
		<path id="bbcbe9a3-15e1-4917-a4f1-1345ada08809" style="fill:url(#bbcbe9a3-15e1-4917-a4f1-1345ada08809_00000037689848510535283770000006686309748879923078_);" d="
		M424,214.4c1.6,0.3,3,1.2,4,2.4c1.9,2.2,1.5,3.1-0.7,1.4c-1.9-1.5-6.9-1.3-9.2,0.2c-3.8,2.5-4.6,6-7.6,31
		c-2.8,24.6-4.6,47.9-5.4,70.8l-0.4,12.4h-3.6l0.3-8.5c1.4-38.4,6.5-91.6,9.9-102.9c1.1-3.6,1.5-4.1,4-5.6
		C418.3,214,420.1,213.7,424,214.4"/>
</g>
<g id="a609270f-1706-49b8-ae78-1243bc424aaa">
	
		<linearGradient id="e1bc949a-63e5-4608-bac7-780ddcd236e4_00000002351522439018730420000017227844732415943335_" gradientUnits="userSpaceOnUse" x1="-1224.6024" y1="631.0465" x2="-1224.0065" y2="630.9827" gradientTransform="matrix(213.94 0 0 -264.01 262424.125 166796.5625)">
		<stop  offset="0" style="stop-color:#E2C587;stop-opacity:0.63"/>
		<stop  offset="1" style="stop-color:#CADE82;stop-opacity:0.27"/>
	</linearGradient>
	
		<path id="e1bc949a-63e5-4608-bac7-780ddcd236e4" style="fill:url(#e1bc949a-63e5-4608-bac7-780ddcd236e4_00000002351522439018730420000017227844732415943335_);" d="
		M439,120c4.3,3.8,12.2,13.2,14.2,17c0.4,1,1.2,2,1.9,2.8c1.2,1.3,2.2,2.8,3.1,4.3l4.7,7.6c5.9,9.4,7.1,11.6,7.1,12.1
		c0.4,1.2,0.9,2.2,1.6,3.2c2.3,4,5,9.7,5.3,11.3c0.3,1.8,4,11,6.8,17l4.7,10.4c2.3,5.2,4.9,10.2,5.6,11.3c0.8,1.5,1.7,3,2.4,4.5
		c0.6,1.5,1.5,2.9,2.3,4.1c0.7,1.2,1.4,2.3,1.9,3.6c1.8,3.6,3.8,7,6,10.4c0.7,1,1.4,2.2,1.9,3.3c0.9,1.7,2,3.5,3.2,5.1
		c1.5,2.2,2.8,4.4,4.1,6.7c0.9,2.1,8.4,9.9,10.8,11.3c9.8,6,15.3,7.8,26.9,9.1l6.8,0.8l-4.2,3.5c-2.3,1.8-4.7,3.5-7.4,4.7
		c-1.3,0.5-2.5,1-3.8,1.7c-1.2,0.9-8.4,0.8-11.9-0.3c-4.7-1.5-12.7-5.8-12.7-6.9c0-0.2-0.3-0.5-0.6-0.5c-1.2,0-11.2-11.9-11.2-13.2
		c-0.5-1.2-1.1-2.3-1.8-3.3c-1.7-3-3.2-6-4.4-9.1c-1.5-3.5-3-6.8-3.3-7.4c-0.3-0.6-0.4-1.2-0.5-1.8c-0.4-1.4-0.8-2.9-1.5-4.1
		c-0.6-1.4-1.2-2.8-1.5-4.3c-0.1-0.7-0.2-1.3-0.5-1.8c-1.6-3.3-3-6.6-2.6-6.6c-0.2-1-0.6-2.1-1.2-3.1c-0.6-1.3-1.2-2.6-1.5-4.1
		c-0.1-1-0.4-2-0.8-2.9c-0.4-1-2.4-6.1-4.4-11.3c-3.7-9.7-6.9-17-9-21.6c-2.8-6.1-7.1-14.5-9.1-18.4c-1.2-2.3-2.4-4.8-2.7-5.8
		c-0.7-2.1-7.9-13.9-10.7-17.6c-0.9-1-1.7-2.3-2.2-3.6c-0.4-0.9-1.1-1.8-1.9-2.5c-1.3-1.4-2.3-2.8-3.3-4.4c-2.3-3.3-4.9-6.6-7.5-9.7
		C431.9,114.4,432.1,113.9,439,120"/>
</g>
<linearGradient id="b7616010-63d7-4fc7-90e5-fe13efba77a5_00000165194795627513355210000002800600650914924437_" gradientUnits="userSpaceOnUse" x1="-1194.127" y1="628.7295" x2="-1194.7238" y2="628.8253" gradientTransform="matrix(39.21 0 0 -147.78 47154.1914 93137.3594)">
	<stop  offset="0" style="stop-color:#ED7F88;stop-opacity:0.43"/>
	<stop  offset="1" style="stop-color:#EF8F9B;stop-opacity:0.5"/>
</linearGradient>
<path id="b7616010-63d7-4fc7-90e5-fe13efba77a5_00000002382732972678052100000003736981622399882670_" style="fill:url(#b7616010-63d7-4fc7-90e5-fe13efba77a5_00000165194795627513355210000002800600650914924437_);" d="
	M316.5,170.8c2.1,2.5,4.1,6.2,8,15c5.6,12.4,9.5,45,7.3,61.9c-0.3,2.6-0.8,6.8-1.1,9.2c-0.5,5.2-1.8,7.1-4.4,6.8
	c-1.6-0.2-1.8-0.5-2-2.4c-0.1-1.3-0.4-4.3-0.7-6.8c-0.3-2.5-0.7-6.9-0.9-9.7c-0.1-2.6-0.4-5.3-0.8-7.8c-0.4-2.3-0.7-4.7-0.8-7.1
	c-0.3-5.8-0.9-11.4-1.8-17c-0.1-0.9-0.4-2.1-0.4-2.5c-0.1-0.7-0.3-1.3-0.5-2c-0.2-0.6-0.9-3.5-1.7-6.4s-1.7-6.8-2.1-8.4
	c-0.4-1.6-0.9-3.6-1.1-4.5c-1.2-7.1-2.8-14.8-3.4-16.1c-0.6-1.2-0.7-2.5-0.5-3.9c0-0.3,1.2-0.7,2.5-0.7
	C314.1,168.2,314.7,168.6,316.5,170.8"/>
<linearGradient id="e456dc10-8bcb-4dad-8887-d863b6b33063_00000010998348823852736920000007839331383450623122_" gradientUnits="userSpaceOnUse" x1="-1228.4906" y1="632.1415" x2="-1228.4906" y2="631.4966" gradientTransform="matrix(434.04 0 0 -357.14 533366.4375 225861.5938)">
	<stop  offset="0" style="stop-color:#C94B4D"/>
	<stop  offset="1" style="stop-color:#8F1D22"/>
</linearGradient>
<path id="e456dc10-8bcb-4dad-8887-d863b6b33063" style="fill:url(#e456dc10-8bcb-4dad-8887-d863b6b33063_00000010998348823852736920000007839331383450623122_);" d="
	M75.1,102.4c1.5,0.9,4.1,2.9,5.8,4.1c1.1,1,2.3,1.8,3.7,2.4c0.3,0,0.6,0.2,0.8,0.5c0.5,0.7,1.3,1.4,2,2c4.7,4.1,9.2,8.7,13.1,13.8
	c1.8,2.1,3.4,4.4,5,6.7c0.8,1.5,1.8,2.8,2.8,4c1.6,2.1,3.1,4.3,4.4,6.6c0.7,1.5,1.7,2.9,2.6,4.1c1.2,1.6,2.2,3.3,3.1,5.2
	c0.7,1.5,1.5,2.9,2.3,4.1c0.4,0.6,0.8,1.3,1.2,2c0.4,0.9,1.6,3.1,2.5,4.8c0.9,1.7,2.1,4.3,2.6,5.5c1.8,4.1,3.9,9.6,4,10.4
	c0.8,3.3,2.7,7.9,3.6,8.5c0.3,0.2,0.4,0.5,0.2,0.5c-0.2,0,0.3,1.5,1.4,3.2c0.7,1.3,1.4,2.5,1.8,3.9c0.9,2.6,2.1,5.3,3.6,7.6
	c0.6,1,1.2,2.1,1.7,3.2c1.3,2.9,2.7,5.8,4.3,8.4c0.3,0.3,0.5,0.8,0.7,1.3c0.2,0.6,1.2,2.4,2.1,4.1c0.9,1.7,2.3,4.5,3.1,6
	c0.7,1.5,1.6,2.8,1.8,2.8s0.5,0.5,0.5,0.9c0,0.5,0.2,0.9,0.6,0.9c0.4,0,0.6,0.5,0.6,1c0,0.8,3.4,6.3,7.8,12.9l2.8,4.3
	c3.8,5.8,4.5,6.4,10.3,10.8c4.4,3.3,9.4,5.6,14.7,6.9c0.7,0.1,1.5,0.3,2.2,0.7c1.3,0.8,12.5,1.5,16.7,1c2.4-0.3,4.7-0.3,5.1,0
	c0.4,0.3,0.9,0.5,1.5,0.5s3.1,0.5,5.6,1l6.2,1.4c2.2,0.5,6.1,1.5,7.4,2c7.1,2.3,13.3,4,16.3,4.6l5.3,1c1.8,0.3,4.3,0.8,5.6,1
	c1.2,0.2,2.3,0.5,3.4,1c0.5,0.3,1.1,0.5,1.1,0.2c0-0.6,4.2,2.3,7.3,5.2c1.5,1.3,2.7,2.8,3.8,4.5c1.3,2.6,0.5,8.6-1.4,12.2
	c-0.7,1.3-1.3,2.5-1.8,3.8c-0.2,0.6-0.5,1.2-0.8,1.2c-0.3,0-0.5,0.3-0.5,0.8c0,1.2-3.5,5.6-4.4,5.6c-0.6,0.1-1.3,0.6-1.6,1.3
	c-0.6,0.8-1.6,1.4-2.5,1.7c-1.2,0.3-2.3,0.8-3.5,1.4c-3.5,1.5-7,2.8-10.6,3.7c-0.6,0.1-1.6,0.5-2.1,0.7c-2.4,0.7-4.9,1-7.4,1.3
	c-3.7,0.5-12.8,2.3-15.1,2.9c-1.4,0.3-2.7,0.7-4.1,0.9c-1.2,0.1-3,0.5-4.1,0.7l-3.3,0.6c-0.6,0.1-2.1,0.3-3.3,0.6
	c-2.1,0.3-7.4,0.8-16.9,1.5c-8.9,0.6-37.1,0.6-39.4,0.1c-1.7-0.5-3.4-1.2-5-2.1c-1.1-0.7-2.2-1.2-3.5-1.6c-0.4-0.1-0.9-0.3-1.3-0.7
	l-4.3-4.1c-2.3-2.2-4.5-4.6-6.5-7.1c-4-5.9-7.7-12.1-11-18.5c-0.9-1.8-2-3.7-3.2-5.5c-1.4-2.1-3.5-5.9-4.6-8.3
	c-1.2-2.4-3-5.6-3.9-7.1c-2.5-3.8-8.2-13.5-8.2-13.9c0-0.5-3.1-5.4-9.5-16c-1.2-1.8-5.1-8.1-8.9-13.8l-8.4-12.9
	c-0.8-1.4-1.4-2.5-1.1-2.6s-0.3-1.3-1.5-2.4c-0.8-0.9-1.6-2-2.2-3c-0.3-1.2-8.9-11.7-14.6-18.3c-2.6-3-5.8-6.8-7.1-8.3
	c-2.1-2.5-6.9-6.6-7.9-6.6c-0.9-0.6-1.8-1.4-2.5-2.3c-1.3-1.4-2.7-2.6-4.4-3.6c-1.2-0.6-2.2-1.4-3.3-2.2c-0.7-0.6-1.5-1-2.3-1.3
	c-1.1-0.3-2-0.9-2.8-1.7c-1.1-0.8-2.2-1.2-3.5-1.2h-2.1l0.4-3.1c0.4-3.5,2.5-12.1,3.4-13.8c0.3-0.7,0.5-1.5,0.5-2.3
	c0.2-1.3,0.5-2.5,1.2-3.7c0.6-1.4,1.3-2.9,1.5-3.5c0.2-0.7,0.5-1.4,0.9-2c0.3-0.6,1.7-3.1,3-5.6c1.1-2.1,2.1-4.1,3.4-6
	c2.5-3.3,3.3-4.1,7.3-8.7c2.4-2.8,5.1-5.3,7.9-7.6c3.8-2.8,8.7-5.8,8.7-5.2c1.2-0.2,2.2-0.7,3.3-1.3c1.9-0.9,3.4-1.3,3.6-0.9
	c0.2,0.3,0.8,0.2,1.6-0.3C71.7,100.4,71.8,100.4,75.1,102.4"/>
<linearGradient id="fd6cfcb5-456d-4bec-80b6-7026b1735e24_00000119838955248757377990000005073041140365192088_" gradientUnits="userSpaceOnUse" x1="-1218.9451" y1="631.0599" x2="-1218.3527" y2="631.007" gradientTransform="matrix(92.35 0 0 -255.58 112593.2969 161531.3594)">
	<stop  offset="0" style="stop-color:#B8292D"/>
	<stop  offset="1" style="stop-color:#911D22"/>
</linearGradient>
<path id="fd6cfcb5-456d-4bec-80b6-7026b1735e24" style="fill:url(#fd6cfcb5-456d-4bec-80b6-7026b1735e24_00000119838955248757377990000005073041140365192088_);" d="
	M30,166.7c0.8,0.7,1.9,1.3,2.8,1.7c0.8,0.2,1.7,0.7,2.3,1.3c1.1,0.8,2.1,1.5,3.3,2.2c1.6,0.9,3.1,2.2,4.4,3.6
	c0.7,0.9,1.6,1.7,2.4,2.3c1.1,0,5.8,4,7.9,6.6c1.3,1.5,4.4,5.2,7.1,8.3c5.7,6.4,14.1,17.1,14.6,18.3c0.6,1.2,1.4,2.2,2.2,3
	c2.1,2.3,1.8,3.5-0.5,1.7c-1.9-1.5-6.9-1.3-9.2,0.2c-3.8,2.5-4.6,6-7.6,31c-2.8,24.6-4.6,48-5.4,70.8l-0.4,12.3l-2.4,0.3
	c-1.9,0.2-3.8,0.2-5.8,0l-3.3-0.3l-0.3-12c-0.4-15-3.2-59.4-4-65.9c-0.3-2.6-0.7-7.1-0.9-10c-0.1-2.6-0.4-5.2-0.8-7.8
	c-0.4-2.3-0.7-4.7-0.8-7.1c-0.3-5.8-0.9-11.4-1.9-17c-0.2-0.9-0.3-2.1-0.4-2.5c-0.1-0.7-0.2-1.3-0.4-2c-0.2-0.6-0.9-3.5-1.7-6.4
	c-0.7-3-1.7-6.8-2.1-8.4c-0.4-1.6-0.9-3.7-1.1-4.5c-1.3-7.1-2.8-14.8-3.4-16.1c-0.6-1.2-0.8-2.5-0.5-3.9
	C24.1,165.1,28.5,165.6,30,166.7"/>
<linearGradient id="ba5aa691-07f9-4bba-b7b7-9b9158500b0f_00000124852514780994114780000008167578957263339654_" gradientUnits="userSpaceOnUse" x1="-1211.6866" y1="627.377" x2="-1212.0487" y2="628.0311" gradientTransform="matrix(77.53 0 0 -113.83 94362.3047 71509)">
	<stop  offset="0" style="stop-color:#EA6767;stop-opacity:0.8"/>
	<stop  offset="1" style="stop-color:#ECA6A6;stop-opacity:0.81"/>
</linearGradient>
<path id="ba5aa691-07f9-4bba-b7b7-9b9158500b0f" style="fill:url(#ba5aa691-07f9-4bba-b7b7-9b9158500b0f_00000124852514780994114780000008167578957263339654_);" d="
	M421.9,22.7c0.9,0.9,2,1.8,3.1,2.6c1.1,0.9,1.9,2,2.5,3.2c0.8,2,0.8,2.3-1.2,7c-1.2,2.6-2.4,5.3-3.8,7.7c-2.6,4.3-7.8,13.5-7.8,13.9
	c-0.5,1.6-1.3,3.2-2,4.8c-2.4,5.2-3.9,10.7-6.5,25.5c-0.8,4.7-2.1,7.1-3.6,7.1c-0.4,0-3.2-1.8-6-4c-2.8-2.2-6.2-4.7-7.5-5.5
	c-6.4-4.1-6.9-4.6-6.9-7.5c0-4.7,5.5-18.8,9.7-24.7c1.4-2,2.8-4.1,3.3-4.9c3.6-5.9,17.8-22.6,21.2-25
	C419.4,20.8,420.1,20.8,421.9,22.7"/>
<line class="st17" x1="415.2" y1="132.3" x2="415.2" y2="66.9"/>
<line class="st17" x1="379.8" y1="193.3" x2="337" y2="204.3"/>
<g>
	<g>
		<line class="st18" x1="223.6" y1="147" x2="369" y2="147"/>
		<g>
			<polygon class="st19" points="168.9,147 246,161.2 227.9,147 246,132.7 			"/>
		</g>
	</g>
</g>
</svg>
