<?xml version="1.0" encoding="utf-8"?>
<!-- Generator: Adobe Illustrator 26.5.0, SVG Export Plug-In . SVG Version: 6.00 Build 0)  -->
<svg version="1.1" id="图层_1" xmlns="http://www.w3.org/2000/svg" xmlns:xlink="http://www.w3.org/1999/xlink" x="0px" y="0px"
	 viewBox="0 0 2500.2 506" style="enable-background:new 0 0 2500.2 506;" xml:space="preserve">
<style type="text/css">
	.st0{fill:none;}
	.st1{fill:#D3D3D3;}
	.st2{fill:url(#SVGID_1_);}
	.st3{fill:url(#SVGID_00000138548780952702743450000005355271563871600058_);}
	.st4{fill:url(#SVGID_00000044168838633470391920000014269318164833333387_);}
	.st5{fill:url(#SVGID_00000074418401420087599590000003462982973742433704_);}
	.st6{fill:url(#SVGID_00000153666929119781269610000015248116312195746692_);}
	.st7{fill:url(#SVGID_00000164509486120403935780000010212915572553769629_);}
	.st8{fill:url(#SVGID_00000083084461122093972740000006375286583520005049_);}
	.st9{fill:url(#SVGID_00000057145804419248675880000006460947382741678992_);}
	.st10{fill:url(#SVGID_00000016067299271186621040000008955435654999342246_);}
	.st11{fill:url(#SVGID_00000112600591939003801300000009125994997770691231_);}
	.st12{fill:url(#SVGID_00000042736143267615620020000006562232490015300541_);}
	.st13{fill:url(#SVGID_00000128458895630616726230000014498142058391294121_);}
	.st14{fill:url(#SVGID_00000034789195635290229910000006093556995583360929_);}
	.st15{fill:none;stroke:#000000;stroke-width:2;stroke-miterlimit:10;}
	.st16{fill:#FF0000;}
</style>
<pattern  y="506" width="40" height="40" patternUnits="userSpaceOnUse" id="a2ed1d96-aebd-4bf9-a4b3-645f1ac" viewBox="0 -40 40 40" style="overflow:visible;">
	<g>
		<rect y="-40" class="st0" width="40" height="40"/>
		<g>
			<rect y="-40" class="st0" width="40" height="40"/>
			<g>
				<rect y="-40" class="st0" width="40" height="40"/>
				<rect y="-40" class="st0" width="40" height="40"/>
				<rect y="-40" class="st1" width="20" height="20"/>
				<rect x="20" y="-20" class="st1" width="20" height="20"/>
			</g>
		</g>
	</g>
</pattern>
<g id="_图层_1-2">
	<pattern  id="SVGID_1_" xlink:href="#a2ed1d96-aebd-4bf9-a4b3-645f1ac" patternTransform="matrix(1 0 0 1 151.18 16668.2402)">
	</pattern>
	<rect x="0.2" y="4" class="st2" width="2500" height="500"/>
</g>
<linearGradient id="SVGID_00000108278937863428023940000008476646682310239375_" gradientUnits="userSpaceOnUse" x1="540.0008" y1="292.1838" x2="541.6647" y2="291.4678" gradientTransform="matrix(500 0 0 -500 -270049.7188 146216)">
	<stop  offset="0" style="stop-color:#30FE00"/>
	<stop  offset="1" style="stop-color:#AAFE00"/>
</linearGradient>
<path style="fill:url(#SVGID_00000108278937863428023940000008476646682310239375_);" d="M0,254.2v250h506V4.2H0V254.2z"/>
<linearGradient id="SVGID_00000063619072402095161960000005144421344264701583_" gradientUnits="userSpaceOnUse" x1="537.7228" y1="292.2677" x2="538.3729" y2="291.0677" gradientTransform="matrix(146.05 0 0 -336.84 -78320.9453 98420.2734)">
	<stop  offset="0" style="stop-color:#00906E"/>
	<stop  offset="1" style="stop-color:#FEFF00"/>
</linearGradient>
<path style="fill:url(#SVGID_00000063619072402095161960000005144421344264701583_);" d="M252.3,136.8
	c-40.2,67.6-73.2,123.5-73.4,124.2c-0.3,1.2,139.7,88,144.1,89.3c2.4,0.7,2.9,0.4,3.4-1.7c0.4-1.4,0.3-77.3-0.2-168.6l-0.9-166.2
	L252.3,136.8L252.3,136.8z"/>
<linearGradient id="SVGID_00000138563989916321386360000007277424719137276606_" gradientUnits="userSpaceOnUse" x1="538.2349" y1="292.1303" x2="539.1802" y2="291.1044" gradientTransform="matrix(182 0 0 -323 -97921.9062 94427)">
	<stop  offset="0" style="stop-color:#6F1112;stop-opacity:0.55"/>
	<stop  offset="1" style="stop-color:#176269;stop-opacity:0.42"/>
</linearGradient>
<path style="fill:url(#SVGID_00000138563989916321386360000007277424719137276606_);" d="M32.4,237.7v161.5h184.2v-323H32.4V237.7z"
	/>
<linearGradient id="SVGID_00000155862617117495304230000014529082828467464628_" gradientUnits="userSpaceOnUse" x1="537.6175" y1="291.6471" x2="538.1282" y2="290.5255" gradientTransform="matrix(146.2 0 0 -204.4 -78570.3594 59614.1406)">
	<stop  offset="0" style="stop-color:#07077C;stop-opacity:0.58"/>
	<stop  offset="1" style="stop-color:#797941;stop-opacity:0.48"/>
</linearGradient>
<path style="fill:url(#SVGID_00000155862617117495304230000014529082828467464628_);" d="M66.5,116.4c-31,56.2-56.2,102.3-56,102.5
	c0.3,0.3,147.4-32.5,148-33c0.4-0.4-34.8-170.8-35.3-171.4C122.9,14.3,97.5,60.1,66.5,116.4z"/>
<linearGradient id="SVGID_00000066492855603003616960000017893931138684557454_" gradientUnits="userSpaceOnUse" x1="537.9935" y1="292.2373" x2="539.2521" y2="291.2809" gradientTransform="matrix(172 0 0 -416 -92283.0938 121609)">
	<stop  offset="0" style="stop-color:#88021D;stop-opacity:0.21"/>
	<stop  offset="1" style="stop-color:#590A78;stop-opacity:0.35"/>
</linearGradient>
<path style="fill:url(#SVGID_00000066492855603003616960000017893931138684557454_);" d="M262.1,217.2v208h174.1V9.2H262.1V217.2z"
	/>
<linearGradient id="SVGID_00000000927088062211329780000018423756011160861078_" gradientUnits="userSpaceOnUse" x1="537.6335" y1="292.2959" x2="538.8112" y2="291.3195" gradientTransform="matrix(153 0 0 -440 -81919.6406 128674)">
	<stop  offset="0" style="stop-color:#E13400;stop-opacity:0.69"/>
	<stop  offset="1" style="stop-color:#FFC600;stop-opacity:9.000000e-02"/>
</linearGradient>
<path style="fill:url(#SVGID_00000000927088062211329780000018423756011160861078_);" d="M344.1,262.2v220h154.8v-440H344.1V262.2z"
	/>
<linearGradient id="SVGID_00000035524869717512652530000008350908527852166556_" gradientUnits="userSpaceOnUse" x1="541.0104" y1="292.1818" x2="542.6451" y2="291.4783" gradientTransform="matrix(500 0 0 -500 -270049.7188 146216)">
	<stop  offset="0" style="stop-color:#30FE00"/>
	<stop  offset="1" style="stop-color:#AAFE00"/>
</linearGradient>
<path style="fill:url(#SVGID_00000035524869717512652530000008350908527852166556_);" d="M506,253v250h493.3V3H506V253z"/>
<linearGradient id="SVGID_00000085973632105102918270000008271207354345678482_" gradientUnits="userSpaceOnUse" x1="544.5497" y1="292.2695" x2="545.1996" y2="291.0695" gradientTransform="matrix(146.05 0 0 -336.84 -78320.9453 98420.2734)">
	<stop  offset="0" style="stop-color:#00906E"/>
	<stop  offset="1" style="stop-color:#FEFF00"/>
</linearGradient>
<path style="fill:url(#SVGID_00000085973632105102918270000008271207354345678482_);" d="M1249.5,136.8
	c-39.7,67.6-72.3,123.5-72.5,124.2c-0.3,1.2,138,88,142.4,89.3c2.4,0.7,2.9,0.4,3.4-1.7c0.4-1.4,0.3-77.3-0.2-168.6l-0.9-166.2
	L1249.5,136.8L1249.5,136.8z"/>
<linearGradient id="SVGID_00000172405372610892860290000010261714267921951668_" gradientUnits="userSpaceOnUse" x1="546.4682" y1="292.1268" x2="547.4182" y2="291.1068" gradientTransform="matrix(182 0 0 -323 -97921.9062 94427)">
	<stop  offset="0" style="stop-color:#6F1112;stop-opacity:0.55"/>
	<stop  offset="1" style="stop-color:#176269;stop-opacity:0.42"/>
</linearGradient>
<path style="fill:url(#SVGID_00000172405372610892860290000010261714267921951668_);" d="M1532.2,237.5V399h182V76h-182V237.5z"/>
<linearGradient id="SVGID_00000052087331606645737010000002133124253262454416_" gradientUnits="userSpaceOnUse" x1="551.2908" y1="291.6481" x2="551.8008" y2="290.5381" gradientTransform="matrix(146.2 0 0 -204.4 -78570.3594 59614.1406)">
	<stop  offset="0" style="stop-color:#07077C;stop-opacity:0.58"/>
	<stop  offset="1" style="stop-color:#797941;stop-opacity:0.48"/>
</linearGradient>
<path style="fill:url(#SVGID_00000052087331606645737010000002133124253262454416_);" d="M2065.9,116.2
	c-30.6,56.2-55.5,102.3-55.3,102.5c0.3,0.3,145.7-32.5,146.2-33c0.4-0.4-34.4-170.8-34.9-171.4
	C2121.6,14.1,2096.5,59.9,2065.9,116.2z"/>
<linearGradient id="SVGID_00000170975707868384765370000016368320293663268505_" gradientUnits="userSpaceOnUse" x1="546.7022" y1="292.233" x2="547.9422" y2="291.283" gradientTransform="matrix(172 0 0 -416 -92283.0938 121609)">
	<stop  offset="0" style="stop-color:#88021D;stop-opacity:0.21"/>
	<stop  offset="1" style="stop-color:#590A78;stop-opacity:0.35"/>
</linearGradient>
<path style="fill:url(#SVGID_00000170975707868384765370000016368320293663268505_);" d="M1759.2,217v208h172V9h-172V217z"/>
<linearGradient id="SVGID_00000063631888034451038930000006091073942365455526_" gradientUnits="userSpaceOnUse" x1="550.6741" y1="292.2924" x2="551.8541" y2="291.3224" gradientTransform="matrix(153 0 0 -440 -81919.6406 128674)">
	<stop  offset="0" style="stop-color:#E13400;stop-opacity:0.69"/>
	<stop  offset="1" style="stop-color:#FFC600;stop-opacity:9.000000e-02"/>
</linearGradient>
<path style="fill:url(#SVGID_00000063631888034451038930000006091073942365455526_);" d="M2340.2,262v220h153V42h-153V262z"/>
<line class="st15" x1="1500.2" y1="3" x2="1500.2" y2="505"/>
<line class="st15" x1="2001.2" y1="7" x2="2001.2" y2="509"/>
<path class="st16" d="M342.2,119v268H241V119H342.2 M344.3,117H239v272h105.2V117L344.3,117z"/>
</svg>
