<?xml version="1.0" encoding="utf-8"?>
<!-- Generator: Adobe Illustrator 26.5.0, SVG Export Plug-In . SVG Version: 6.00 Build 0)  -->
<svg version="1.1" id="图层_1" xmlns="http://www.w3.org/2000/svg" xmlns:xlink="http://www.w3.org/1999/xlink" x="0px" y="0px"
	 viewBox="0 0 2000 500" style="enable-background:new 0 0 2000 500;" xml:space="preserve">
<style type="text/css">
	.st0{fill:none;}
	.st1{fill:#D3D3D3;}
	.st2{fill:url(#SVGID_00000107580297394007436220000000781469683103725759_);}
	.st3{fill:url(#region-1-1_00000181056213083530689880000016506755747305343666_);}
	.st4{fill:url(#region-2-1_00000129194573137242189340000016197992324419352228_);}
	.st5{fill:url(#region-2-2_00000005969978843455448080000002784428814012622008_);}
	.st6{fill:url(#region-3-1_00000053520513110751072060000009626171064544863897_);}
	.st7{fill:url(#region-3-2_00000119079422480655346770000015623375571249844629_);}
	.st8{fill:url(#region-3-3_00000164496568404123465980000013083149234674496401_);}
	.st9{fill:url(#region-1-1_00000073001391712585403330000014737308166696207024_);}
	.st10{fill:url(#region-2-1_00000162336623154850629440000014070617688020604330_);}
	.st11{fill:url(#region-2-2_00000056418699472518363290000013491813457672955070_);}
	.st12{fill:url(#region-3-1_00000060739939011241592590000016905854124848212865_);}
	.st13{fill:url(#region-3-2_00000160166798195884237330000016442576673621924504_);}
	.st14{fill:url(#region-3-3_00000106834055000637790700000013050896261382229695_);}
	.st15{fill:none;stroke:#000000;stroke-width:2;stroke-miterlimit:10;}
</style>
<pattern  y="500" width="40" height="40" patternUnits="userSpaceOnUse" id="SVGID_1_" viewBox="0 -40 40 40" style="overflow:visible;">
	<g>
		<rect y="-40" class="st0" width="40" height="40"/>
		<g>
			<rect y="-40" class="st0" width="40" height="40"/>
			<g>
				<rect y="-40" class="st0" width="40" height="40"/>
				<rect y="-40" class="st0" width="40" height="40"/>
				<rect y="-40" class="st1" width="20" height="20"/>
				<rect x="20" y="-20" class="st1" width="20" height="20"/>
			</g>
		</g>
	</g>
</pattern>
<g id="图层_1_00000161603055450880258370000002327537756169839785_">
	<g id="_图层_1">
		
			<pattern  id="SVGID_00000047755374341248061110000014224615952826136196_" xlink:href="#SVGID_1_" patternTransform="matrix(1 0 0 1 111 15712.2402)">
		</pattern>
		<rect y="1" style="fill:url(#SVGID_00000047755374341248061110000014224615952826136196_);" width="2000" height="500"/>
	</g>
	<g id="layer-1">
		
			<linearGradient id="region-1-1_00000133494571562357341150000006685575586702826911_" gradientUnits="userSpaceOnUse" x1="40.9175" y1="290.4205" x2="41.9185" y2="289.4215" gradientTransform="matrix(500 0 0 -500 -20459 145212)">
			<stop  offset="0" style="stop-color:#00FE00"/>
			<stop  offset="1" style="stop-color:#FEFF00"/>
		</linearGradient>
		<path id="region-1-1" style="fill:url(#region-1-1_00000133494571562357341150000006685575586702826911_);" d="M0,251.5v250h250
			h250v-250V1.5H250H0V251.5z"/>
	</g>
	<g id="layer-2">
		
			<linearGradient id="region-2-1_00000015325922226856876340000007170777099417965452_" gradientUnits="userSpaceOnUse" x1="40.725" y1="290.2611" x2="41.8658" y2="289.2896" gradientTransform="matrix(172 0 0 -416 -6752 120773)">
			<stop  offset="0" style="stop-color:#7E0401;stop-opacity:0.218"/>
			<stop  offset="1" style="stop-color:#6F5B52;stop-opacity:0.534"/>
		</linearGradient>
		<path id="region-2-1" style="fill:url(#region-2-1_00000015325922226856876340000007170777099417965452_);" d="M259,214.5v208h86
			h86v-208V6.5h-86h-86V214.5z"/>
		
			<linearGradient id="region-2-2_00000013162568360909521810000014107234053979567757_" gradientUnits="userSpaceOnUse" x1="40.8089" y1="290.1338" x2="41.7117" y2="289.1064" gradientTransform="matrix(182 0 0 -323 -7389 93777)">
			<stop  offset="0" style="stop-color:#6B1A11;stop-opacity:0.569"/>
			<stop  offset="1" style="stop-color:#1D6963;stop-opacity:0.443"/>
		</linearGradient>
		<path id="region-2-2" style="fill:url(#region-2-2_00000013162568360909521810000014107234053979567757_);" d="M32,235v161.5h91
			h91V235V73.5h-91H32V235z"/>
	</g>
	<g id="layer-3">
		
			<linearGradient id="region-3-1_00000078753106113915800600000011679747109293955716_" gradientUnits="userSpaceOnUse" x1="40.8419" y1="290.2459" x2="41.6685" y2="289.2194" gradientTransform="matrix(145.9646 0 0 -339.4 -5766.7495 98486.9922)">
			<stop  offset="0" style="stop-color:#0713E4;stop-opacity:0.407"/>
			<stop  offset="1" style="stop-color:#B7B24F;stop-opacity:0.347"/>
		</linearGradient>
		<path id="region-3-1" style="fill:url(#region-3-1_00000078753106113915800600000011679747109293955716_);" d="M249.3,134.1
			c-39.7,67.6-72.3,123.5-72.5,124.2c-0.2,0.6,32.6,21.6,72.7,46.7l73,45.5l0.2-50.7c0.2-28-0.1-104.3-0.5-169.7l-0.7-119
			L249.3,134.1z"/>
		
			<linearGradient id="region-3-2_00000132047255731200766660000011147484740055607224_" gradientUnits="userSpaceOnUse" x1="40.747" y1="290.3562" x2="41.6961" y2="289.3502" gradientTransform="matrix(153 0 0 -440 -5892 127790)">
			<stop  offset="0" style="stop-color:#FF1100;stop-opacity:0.547"/>
			<stop  offset="1" style="stop-color:#FFF300;stop-opacity:0.249"/>
		</linearGradient>
		<path id="region-3-2" style="fill:url(#region-3-2_00000132047255731200766660000011147484740055607224_);" d="M340,259.5v220
			h76.5H493v-220v-220h-76.5H340V259.5z"/>
		
			<linearGradient id="region-3-3_00000098206522151840078200000008233948490309072809_" gradientUnits="userSpaceOnUse" x1="40.8422" y1="289.6405" x2="41.359" y2="288.525" gradientTransform="matrix(146.2046 0 0 -204.4027 -5942.9902 59203.4844)">
			<stop  offset="0" style="stop-color:#05047D;stop-opacity:0.587"/>
			<stop  offset="1" style="stop-color:#7A7A42;stop-opacity:0.47"/>
		</linearGradient>
		<path id="region-3-3" style="fill:url(#region-3-3_00000098206522151840078200000008233948490309072809_);" d="M65.7,113.7
			C35.1,169.9,10.2,216,10.4,216.2c0.3,0.3,145.7-32.5,146.2-33c0.4-0.4-34.4-170.8-34.9-171.4C121.4,11.6,96.3,57.4,65.7,113.7z"/>
	</g>
</g>
<g id="layer-1_00000078733364162684797090000010315569257273398453_">
	
		<linearGradient id="region-1-1_00000163042552076750742110000005522004148456186518_" gradientUnits="userSpaceOnUse" x1="41.9175" y1="290.4205" x2="42.9185" y2="289.4215" gradientTransform="matrix(500 0 0 -500 -20459 145212)">
		<stop  offset="0" style="stop-color:#00FE00"/>
		<stop  offset="1" style="stop-color:#FEFF00"/>
	</linearGradient>
	
		<path id="region-1-1_00000137844298630560534370000012529328676320719537_" style="fill:url(#region-1-1_00000163042552076750742110000005522004148456186518_);" d="
		M500,251.5v250h250h250v-250V1.5H750H500V251.5z"/>
</g>
<g id="layer-2_00000011726106215498245330000006452304218279913611_">
	
		<linearGradient id="region-2-1_00000110435964766657520520000007514556820784385161_" gradientUnits="userSpaceOnUse" x1="46.5041" y1="290.2575" x2="47.6449" y2="289.286" gradientTransform="matrix(172 0 0 -416 -6752 120773)">
		<stop  offset="0" style="stop-color:#7E0401;stop-opacity:0.218"/>
		<stop  offset="1" style="stop-color:#6F5B52;stop-opacity:0.534"/>
	</linearGradient>
	
		<path id="region-2-1_00000104676529845828039540000014246462940943862915_" style="fill:url(#region-2-1_00000110435964766657520520000007514556820784385161_);" d="
		M1253,216v208h86h86V216V8h-86h-86V216z"/>
	
		<linearGradient id="region-2-2_00000142862242514046370490000016328579887958804404_" gradientUnits="userSpaceOnUse" x1="46.2705" y1="290.1291" x2="47.1733" y2="289.1018" gradientTransform="matrix(182 0 0 -323 -7389 93777)">
		<stop  offset="0" style="stop-color:#6B1A11;stop-opacity:0.569"/>
		<stop  offset="1" style="stop-color:#1D6963;stop-opacity:0.443"/>
	</linearGradient>
	
		<path id="region-2-2_00000014614861038170491780000007738752715304779683_" style="fill:url(#region-2-2_00000142862242514046370490000016328579887958804404_);" d="
		M1026,236.5V398h91h91V236.5V75h-91h-91V236.5z"/>
</g>
<g id="layer-3_00000111884980344384255780000005305612639174384317_">
	
		<linearGradient id="region-3-1_00000088117214157522132060000010435466980918941852_" gradientUnits="userSpaceOnUse" x1="51.0772" y1="290.2415" x2="51.9038" y2="289.215" gradientTransform="matrix(145.9646 0 0 -339.4 -5766.7495 98486.9922)">
		<stop  offset="0" style="stop-color:#0713E4;stop-opacity:0.407"/>
		<stop  offset="1" style="stop-color:#B7B24F;stop-opacity:0.347"/>
	</linearGradient>
	
		<path id="region-3-1_00000111876285561732503960000006595628531995438733_" style="fill:url(#region-3-1_00000088117214157522132060000010435466980918941852_);" d="
		M1743.3,135.6c-39.7,67.6-72.3,123.5-72.5,124.2c-0.2,0.6,32.6,21.6,72.7,46.7l73,45.5l0.2-50.7c0.2-28-0.1-104.3-0.5-169.7
		l-0.7-119L1743.3,135.6z"/>
	
		<linearGradient id="region-3-2_00000165936491889801253290000016937643159359640986_" gradientUnits="userSpaceOnUse" x1="50.5117" y1="290.3528" x2="51.4608" y2="289.3467" gradientTransform="matrix(153 0 0 -440 -5892 127790)">
		<stop  offset="0" style="stop-color:#FF1100;stop-opacity:0.547"/>
		<stop  offset="1" style="stop-color:#FFF300;stop-opacity:0.249"/>
	</linearGradient>
	
		<path id="region-3-2_00000154415958027844218890000010930237742492965513_" style="fill:url(#region-3-2_00000165936491889801253290000016937643159359640986_);" d="
		M1834,261v220h76.5h76.5V261V41h-76.5H1834V261z"/>
	
		<linearGradient id="region-3-3_00000000201984985582302580000008278758408920150427_" gradientUnits="userSpaceOnUse" x1="51.0608" y1="289.6332" x2="51.5776" y2="288.5177" gradientTransform="matrix(146.2046 0 0 -204.4027 -5942.9902 59203.4844)">
		<stop  offset="0" style="stop-color:#05047D;stop-opacity:0.587"/>
		<stop  offset="1" style="stop-color:#7A7A42;stop-opacity:0.47"/>
	</linearGradient>
	
		<path id="region-3-3_00000134958954469707877580000010151118861022890624_" style="fill:url(#region-3-3_00000000201984985582302580000008278758408920150427_);" d="
		M1559.7,115.2c-30.6,56.2-55.5,102.3-55.3,102.5c0.3,0.3,145.7-32.5,146.2-33c0.4-0.4-34.4-170.8-34.9-171.4
		C1615.4,13.1,1590.3,58.9,1559.7,115.2z"/>
</g>
<g>
	<line class="st15" x1="1500" y1="0.5" x2="1500" y2="502.5"/>
</g>
</svg>
