<?xml version="1.0" encoding="utf-8"?>
<!-- Generator: Adobe Illustrator 26.5.0, SVG Export Plug-In . SVG Version: 6.00 Build 0)  -->
<svg version="1.1" id="图层_1" xmlns="http://www.w3.org/2000/svg" xmlns:xlink="http://www.w3.org/1999/xlink" x="0px" y="0px"
	 viewBox="0 0 3020 642.7" style="enable-background:new 0 0 3020 642.7;" xml:space="preserve">
<style type="text/css">
	.st0{fill:none;}
	.st1{fill:#D3D3D3;}
	.st2{fill:url(#SVGID_1_);}
	.st3{fill:url(#ad8d7a78-5cc1-493f-ae4f-db73976bce95_00000009553247256562191540000015853531627007162280_);}
	.st4{fill:url(#b011df98-249e-4a39-b0fb-a6429eed16a0_00000157289302984179491740000016286183733107508871_);}
	.st5{fill:url(#a13569d4-388d-4523-b93e-d3d41ab9ebfa_00000022548707338861308790000016159741039721036949_);}
	.st6{fill:url(#a42df412-1899-4adb-9654-4a0edf207807_00000168093537636003245620000018130979035992907140_);}
	.st7{fill:url(#b83a0d4a-42e3-4a63-b096-6b6c0d40e70f_00000010274584399913437970000005374295417045808027_);}
	.st8{fill:url(#a388edb9-5c17-410f-972c-ea05c47daae6_00000090974450674219866990000003548374353959645573_);}
	.st9{fill:url(#a5691740-5073-4854-bd76-76dccd05d008_00000166661117128077025960000012823931545299571881_);}
	.st10{fill:url(#bd2140fa-cf69-4c9e-87b7-31180b2a51fa_00000000908288252503483020000010395510658890694535_);}
	.st11{fill:url(#a1638d12-ba40-4625-be1a-59f6a8813008_00000030483590291885794530000015430363732397627017_);}
	.st12{fill:url(#f738bf03-09a9-4630-9ebe-70a7684a2803_00000091005021183323244450000017478904129546730153_);}
	.st13{fill:url(#bb3754ad-8024-45c2-b53e-aa5c2a6f12c1_00000000925893145942546230000012163906204143184275_);}
	.st14{fill:url(#b96afe5a-2b39-427a-af21-9c805d42a134_00000052795940741303525340000006133445347008122771_);}
	.st15{fill:url(#b6ed54a0-1cf9-4a03-a5cf-f5388c2b4b52_00000116224419063444375450000013386080661810583996_);}
	.st16{fill:url(#b0c0b77f-1bad-4f4e-b1fa-f4893158be32_00000116952544359725398620000017321706469988831369_);}
	.st17{fill:url(#ee50ee15-6471-4158-9f93-f82b98bc2bf2_00000163057370034833662330000010713135607593468333_);}
	.st18{fill:url(#be208fb8-a655-4916-ad30-bef0b4851d9f_00000176728924931982430270000010407349034633494454_);}
	.st19{fill:url(#bfd7e014-d9bf-417c-aa54-06b733a206ce_00000065760916625385770890000011565379870573936819_);}
	.st20{fill:url(#b12588df-93ec-440e-95d9-f4707d6b064b_00000044155942700224720130000006711632174220753294_);}
	.st21{fill:url(#b447fa4d-cd29-45f4-9b42-002d3edf7ce8_00000132074381576961090750000005403378345266577539_);}
	.st22{fill:url(#b0d161ee-7400-4c5f-b88b-5ab7fb9cc559_00000094581487047824658920000017589070035141446573_);}
	.st23{fill:url(#ae6c6765-b96d-40cd-8031-546bd9f602eb_00000001622406146774499850000000891652147902672779_);}
	.st24{fill:url(#af135e1b-330c-49d5-bae5-279347582532_00000173854501151293218260000007003551774976549764_);}
	.st25{fill:url(#afbdeac9-f080-436a-bdbe-09f41857dabc_00000140702744870930584920000007077439832564306105_);}
	.st26{fill:url(#f30f75fc-3876-421e-9d2e-c359ef298840_00000150078292252502304150000010850898095537188536_);}
	.st27{fill:url(#f2e63be5-3dba-4962-850d-d70ea2f3a7df_00000136410181776099442460000016637453599375296156_);}
	.st28{fill:url(#aa4fdb0a-9aed-4ed1-95a1-101b8e338430_00000095333821180468640600000016893485627305303176_);}
	
		.st29{fill:url(#b4329d70-9e0f-43ec-b146-94fc8b708a99_00000103265480497444320200000004305678590343021497_);stroke:#231815;stroke-miterlimit:10;}
	
		.st30{fill:url(#a6da1bed-18ea-4719-9acd-5bf7342c18dc_00000014624892186769683600000002950074435670574002_);stroke:#231815;stroke-miterlimit:10;}
	
		.st31{fill:url(#b9e508ce-018e-4fe1-9b04-0f5aab67fbfd_00000140724144096005914960000016184796124942927780_);stroke:#231815;stroke-miterlimit:10;}
	
		.st32{fill:url(#e438299f-b633-481d-9a68-207feb0e0b9d_00000127032817964311734350000000824596144572245948_);stroke:#231815;stroke-miterlimit:10;}
	
		.st33{fill:url(#fd12c8e8-f109-4c28-8278-95c7884be4cd_00000159438647307478462670000017088036823717804705_);stroke:#231815;stroke-miterlimit:10;}
	
		.st34{fill:url(#ff9fe302-38cc-40f3-a415-9f67333a9503_00000158734540780610178720000015589060871244554930_);stroke:#231815;stroke-miterlimit:10;}
	
		.st35{fill:url(#a63b16d1-2156-4fdf-8488-54033bdc7825_00000100377437663397553810000003180112815647868039_);stroke:#231815;stroke-miterlimit:10;}
	
		.st36{fill:url(#ed7f9a42-2d79-4d43-b82b-1521a8327a35_00000165212847714301633140000003227899542750896013_);stroke:#231815;stroke-miterlimit:10;}
	
		.st37{fill:url(#be8cac6a-7ce8-4fc4-b40d-7da8994e2fb0_00000092438133317542131050000018116823169274416528_);stroke:#231815;stroke-miterlimit:10;}
	
		.st38{fill:url(#ad37ade3-9011-445e-aaa3-8f9c8ac3ce5c_00000008142971687294478670000002354380669534127543_);stroke:#231815;stroke-miterlimit:10;}
	
		.st39{fill:url(#bfcb1719-1b67-4ec0-98ea-53cac7cc770a_00000103223453993276533390000001757288455149613703_);stroke:#231815;stroke-miterlimit:10;}
	.st40{fill:url(#a34166ee-4b2d-437a-856c-5d759b7872c3_00000132783320342186051820000004917293557994882203_);}
	.st41{fill:none;stroke:#231815;stroke-width:4;stroke-miterlimit:10;}
</style>
<pattern  y="642.7" width="40" height="40" patternUnits="userSpaceOnUse" id="bd5c6f74-af45-4958-9776-4654113" viewBox="0 -40 40 40" style="overflow:visible;">
	<g>
		<rect y="-40" class="st0" width="40" height="40"/>
		<rect y="-40" class="st0" width="40" height="40"/>
		<rect y="-40" class="st1" width="20" height="20"/>
		<rect x="20" y="-20" class="st1" width="20" height="20"/>
	</g>
</pattern>
<g id="ac5e57d5-0a90-474a-b9ac-17803b84382f">
	<pattern  id="SVGID_1_" xlink:href="#bd5c6f74-af45-4958-9776-4654113" patternTransform="matrix(1 0 0 1 84 308)">
	</pattern>
	<rect x="603" y="1.7" class="st2" width="2417" height="641"/>
	<g id="ba014bed-b555-4821-9c57-2bff63ca5827">
		
			<linearGradient id="ad8d7a78-5cc1-493f-ae4f-db73976bce95_00000136384807467373505510000011485536485875822230_" gradientUnits="userSpaceOnUse" x1="-292.1903" y1="142.2437" x2="-291.1903" y2="146.8937" gradientTransform="matrix(19.46 0 0 133.05 6094.3896 -19163.9297)">
			<stop  offset="0" style="stop-color:#FFFFFC"/>
			<stop  offset="1" style="stop-color:#BF741A"/>
		</linearGradient>
		
			<path id="ad8d7a78-5cc1-493f-ae4f-db73976bce95" style="fill:url(#ad8d7a78-5cc1-493f-ae4f-db73976bce95_00000136384807467373505510000011485536485875822230_);" d="
			M427.7,5c-0.3,1.2-4.3,31.2-8.9,66.5c-6.1,46.9-8.7,64.2-9.6,64.2s-1.1-0.8-0.8-2.2c0.3-1.2,4.1-30.6,8.6-65.2s8.3-63.6,8.5-64.2
			C426.3,1.7,428.2,2.7,427.7,5"/>
		
			<linearGradient id="b011df98-249e-4a39-b0fb-a6429eed16a0_00000010312751395436088680000004280345997824597180_" gradientUnits="userSpaceOnUse" x1="-300.2391" y1="145.3598" x2="-301.2391" y2="146.5298" gradientTransform="matrix(45.54 0 0 57.93 14161.7207 -8328.0186)">
			<stop  offset="0" style="stop-color:#EED39C"/>
			<stop  offset="1" style="stop-color:#E3B37A"/>
		</linearGradient>
		
			<path id="b011df98-249e-4a39-b0fb-a6429eed16a0" style="fill:url(#b011df98-249e-4a39-b0fb-a6429eed16a0_00000010312751395436088680000004280345997824597180_);" d="
			M490,96.3c0,1.5-43.4,57-44.7,57.3c-1.9,0.4-2.7,1.6,23.6-32.7C485.9,98.8,490,93.9,490,96.3"/>
		
			<linearGradient id="a13569d4-388d-4523-b93e-d3d41ab9ebfa_00000138560324234611384670000010843875368759155122_" gradientUnits="userSpaceOnUse" x1="-306.1932" y1="144.591" x2="-306.2332" y2="143.591" gradientTransform="matrix(238.31 0 0 238.65 73344.9297 -34130.7812)">
			<stop  offset="0" style="stop-color:#F9D390"/>
			<stop  offset="1" style="stop-color:#DDBE8E"/>
		</linearGradient>
		
			<path id="a13569d4-388d-4523-b93e-d3d41ab9ebfa" style="fill:url(#a13569d4-388d-4523-b93e-d3d41ab9ebfa_00000138560324234611384670000010843875368759155122_);" d="
			M373.1,140.3c5.2,1.5,7.4,3.5,59.6,55.7c61.6,61.5,58.8,58,58.1,72.7c-0.3,6.9-1,9.9-3.4,15.1l-3,6.5l1.9,6
			c2.4,7.7,1.7,16.1-1.8,23.4c-2,4.5-6.8,9.9-24.5,27.6l-21.9,22.1l-44.8,4.2l-44.8,4.2l-47.9-47.8L252.7,282l4.2-44.5l4.2-44.5
			l22.5-22.4c14.9-14.8,24.1-23.2,27.2-24.8c6.3-3.2,17-4,23.9-1.7c4.7,1.6,5.1,1.6,9.5-0.4C355.4,138.8,364.3,137.8,373.1,140.3"/>
		
			<linearGradient id="a42df412-1899-4adb-9654-4a0edf207807_00000126322145236591033530000001077138713898277506_" gradientUnits="userSpaceOnUse" x1="-301.7351" y1="147.0139" x2="-302.7351" y2="146.2739" gradientTransform="matrix(58.6 0 0 45 18200.0996 -6434)">
			<stop  offset="0" style="stop-color:#F5E2B9"/>
			<stop  offset="1" style="stop-color:#EBC89D"/>
		</linearGradient>
		
			<path id="a42df412-1899-4adb-9654-4a0edf207807" style="fill:url(#a42df412-1899-4adb-9654-4a0edf207807_00000126322145236591033530000001077138713898277506_);" d="
			M519,143.5c0,1.2-56.6,44.2-58.1,44.2c-0.8,0-0.6-0.7,0.7-1.9c3.5-3.4,55.6-43.1,56.6-43.1C518.6,142.7,519,143,519,143.5
			C519,143.4,519,143.5,519,143.5"/>
		
			<linearGradient id="b83a0d4a-42e3-4a63-b096-6b6c0d40e70f_00000040558889365106995670000006513042445080620721_" gradientUnits="userSpaceOnUse" x1="-303.1563" y1="150.6906" x2="-307.2163" y2="151.6906" gradientTransform="matrix(133 0 0 18.44 41125.8203 -2576.9507)">
			<stop  offset="0" style="stop-color:#FFFFFE"/>
			<stop  offset="1" style="stop-color:#C07F21"/>
		</linearGradient>
		
			<path id="b83a0d4a-42e3-4a63-b096-6b6c0d40e70f" style="fill:url(#b83a0d4a-42e3-4a63-b096-6b6c0d40e70f_00000040558889365106995670000006513042445080620721_);" d="
			M603,202.7c0,0.6-0.5,1-1.1,1c-0.6,0-30.4,3.8-66.1,8.5s-65.2,8.3-65.5,8c-0.3-0.3-0.3-0.8,0.1-1.1c0.7-0.7,123.2-17.1,129-17.3
			C601.3,201.8,603,202.2,603,202.7"/>
		
			<linearGradient id="a388edb9-5c17-410f-972c-ea05c47daae6_00000159468168168182105580000003917951031430693815_" gradientUnits="userSpaceOnUse" x1="-306.9593" y1="143.4154" x2="-306.3093" y2="144.4154" gradientTransform="matrix(347.61 0 0 347.79 106756.8516 -49595.2422)">
			<stop  offset="0" style="stop-color:#828590;stop-opacity:0.99"/>
			<stop  offset="1" style="stop-color:#050A24;stop-opacity:0.99"/>
		</linearGradient>
		
			<path id="a388edb9-5c17-410f-972c-ea05c47daae6" style="fill:url(#a388edb9-5c17-410f-972c-ea05c47daae6_00000159468168168182105580000003917951031430693815_);" d="
			M229.5,496.7c-65.4,65.4-119.5,119-120,119s-3,2-5.4,4.5c-11.3,11.5-27.3,12.4-40.2,2.3c-9.9-7.7-58.8-57-60.9-61.3
			c-2.8-5.9-2.8-21.1,0.1-27.5c1.6-3.5,29.2-31.7,125.7-128.3l123.7-123.8l48,48l48,48L229.5,496.7"/>
		
			<linearGradient id="a5691740-5073-4854-bd76-76dccd05d008_00000026884752043934498310000009947744716829615760_" gradientUnits="userSpaceOnUse" x1="-305.6375" y1="149.4862" x2="-305.8075" y2="148.4862" gradientTransform="matrix(174.03 0 0 25.83 53294.1875 -3218.4309)">
			<stop  offset="0" style="stop-color:#DFDFDF"/>
			<stop  offset="1" style="stop-color:#DBDADA"/>
		</linearGradient>
		
			<path id="a5691740-5073-4854-bd76-76dccd05d008" style="fill:url(#a5691740-5073-4854-bd76-76dccd05d008_00000026884752043934498310000009947744716829615760_);" d="
			M61.3,620.4c7.5,6.8,12.6,8.8,21.7,8.8s14.6-2.4,21-8.9l4.4-4.5h8.1c13.4,0.2,26.8,1.6,40,4.1c22.6,4.5,25.3,10.8,6.9,15.7
			c-15.6,4.2-28.9,5.3-67.1,5.9c-46.2,0.6-71.2-1.3-88-7c-6.6-2.2-6.7-2.3-6.7-5.7c0-3,0.5-3.7,3.5-5.1c6.7-3.1,32.5-7.5,46.3-7.8
			C55.8,615.7,56.7,616.1,61.3,620.4"/>
	</g>
	<g id="bda2081a-9cc1-471d-a3c6-28c22b2a5189">
		
			<linearGradient id="bd2140fa-cf69-4c9e-87b7-31180b2a51fa_00000023264979626704377420000009307171192165527207_" gradientUnits="userSpaceOnUse" x1="-304.9353" y1="144.195" x2="-305.9353" y2="144.725" gradientTransform="matrix(150.09 0 0 150.26 46259.7266 -21491.4688)">
			<stop  offset="0" style="stop-color:#EEF4EF;stop-opacity:0.85"/>
			<stop  offset="1" style="stop-color:#A7AEA9;stop-opacity:0.7"/>
		</linearGradient>
		
			<path id="bd2140fa-cf69-4c9e-87b7-31180b2a51fa" style="fill:url(#bd2140fa-cf69-4c9e-87b7-31180b2a51fa_00000023264979626704377420000009307171192165527207_);" d="
			M373.1,140.3c5.2,1.5,7.4,3.5,59.6,55.7c61.6,61.5,58.8,58,58.1,72.7c-0.3,6.5-1.1,10-3.1,14.5l-2.7,6l-72-72l-72-72l3.9-1.8
			C355.4,138.8,364.4,137.8,373.1,140.3"/>
		
			<linearGradient id="a1638d12-ba40-4625-be1a-59f6a8813008_00000112627659827124734220000007054205353014317503_" gradientUnits="userSpaceOnUse" x1="-297.4851" y1="159.8166" x2="-297.4851" y2="158.8165" gradientTransform="matrix(30.68 0 0 8.96 9452.1807 -1271.5101)">
			<stop  offset="0" style="stop-color:#FEF8EA;stop-opacity:0.8"/>
			<stop  offset="1" style="stop-color:#FDF5E6;stop-opacity:0.79"/>
		</linearGradient>
		
			<path id="a1638d12-ba40-4625-be1a-59f6a8813008" style="fill:url(#a1638d12-ba40-4625-be1a-59f6a8813008_00000112627659827124734220000007054205353014317503_);" d="
			M332.8,154.6c6.3,3.2,9.6,6.1,6.9,6.1c-1-0.1-2-0.6-2.6-1.4c-0.6-0.8-3.5-2.4-6.3-3.6c-6.2-2.6-12.5-2.3-16.8,0.9
			c-3.2,2.3-3.9,2.6-3.9,1.2c0-0.5,1.9-2.1,4.2-3.5C320,150.8,325.5,150.9,332.8,154.6"/>
		
			<linearGradient id="f738bf03-09a9-4630-9ebe-70a7684a2803_00000012469432041044335780000005562006267580256932_" gradientUnits="userSpaceOnUse" x1="-291.8738" y1="151.201" x2="-291.8738" y2="150.2009" gradientTransform="matrix(19.69 0 0 19.69 6036.1504 -2788.5503)">
			<stop  offset="0" style="stop-color:#F9E9CA;stop-opacity:0.81"/>
			<stop  offset="1" style="stop-color:#F7E1C2;stop-opacity:0.77"/>
		</linearGradient>
		
			<path id="f738bf03-09a9-4630-9ebe-70a7684a2803" style="fill:url(#f738bf03-09a9-4630-9ebe-70a7684a2803_00000012469432041044335780000005562006267580256932_);" d="
			M299,170.5c0,1.4-18.9,19.6-19.7,18.9s17.5-19.7,18.9-19.7C298.7,169.7,299,170.1,299,170.5"/>
		
			<linearGradient id="bb3754ad-8024-45c2-b53e-aa5c2a6f12c1_00000115515150655996894380000005100463557926308994_" gradientUnits="userSpaceOnUse" x1="-305.3401" y1="144.2294" x2="-306.3401" y2="144.2894" gradientTransform="matrix(185.26 0 0 185.08 57005.7461 -26416.9082)">
			<stop  offset="0" style="stop-color:#E95D52;stop-opacity:0.66"/>
			<stop  offset="1" style="stop-color:#A35044;stop-opacity:0.81"/>
		</linearGradient>
		
			<path id="bb3754ad-8024-45c2-b53e-aa5c2a6f12c1" style="fill:url(#bb3754ad-8024-45c2-b53e-aa5c2a6f12c1_00000115515150655996894380000005100463557926308994_);" d="
			M393.2,373.4l-44.8,4.2l-47.9-47.8L252.8,282l3.7-39.4c2-21.6,4-41.8,4.3-44.7l0.6-5.4l88.4,88.4l88.3,88.3L393.2,373.4"/>
		
			<linearGradient id="b96afe5a-2b39-427a-af21-9c805d42a134_00000116914908740947258870000010350435505590272166_" gradientUnits="userSpaceOnUse" x1="-304.3665" y1="145.3824" x2="-304.6266" y2="144.3824" gradientTransform="matrix(102.67 0 0 102.67 31441.459 -14503.1768)">
			<stop  offset="0" style="stop-color:#C8C350;stop-opacity:0.82"/>
			<stop  offset="1" style="stop-color:#C7C376;stop-opacity:0.73"/>
		</linearGradient>
		
			<path id="b96afe5a-2b39-427a-af21-9c805d42a134" style="fill:url(#b96afe5a-2b39-427a-af21-9c805d42a134_00000116914908740947258870000010350435505590272166_);" d="
			M230,320.5c0,1.5-101.9,102.6-102.7,101.9s100.4-102.7,101.9-102.7C229.7,319.7,230,320,230,320.5"/>
		
			<linearGradient id="b6ed54a0-1cf9-4a03-a5cf-f5388c2b4b52_00000119805355517046343090000016542706848797485993_" gradientUnits="userSpaceOnUse" x1="-304.8137" y1="145.231" x2="-304.8737" y2="144.231" gradientTransform="matrix(116 0 0 115.48 35573.9922 -16293.3613)">
			<stop  offset="0" style="stop-color:#04050E;stop-opacity:0.42"/>
			<stop  offset="1" style="stop-color:#04040D;stop-opacity:0.56"/>
		</linearGradient>
		
			<path id="b6ed54a0-1cf9-4a03-a5cf-f5388c2b4b52" style="fill:url(#b6ed54a0-1cf9-4a03-a5cf-f5388c2b4b52_00000119805355517046343090000016542706848797485993_);" d="
			M256.3,374.5l13.7,13.8l-44,44l-44,44l-14-14l-14-14l43.8-43.8c24.1-24.1,44-43.8,44.3-43.8S248.7,366.9,256.3,374.5"/>
		
			<linearGradient id="b0c0b77f-1bad-4f4e-b1fa-f4893158be32_00000108987462420708912260000005275859608363226511_" gradientUnits="userSpaceOnUse" x1="-293.3368" y1="150.5307" x2="-293.3368" y2="149.5307" gradientTransform="matrix(21.69 0 0 21.69 6466.6304 -2810.9009)">
			<stop  offset="0" style="stop-color:#D8D251;stop-opacity:0.81"/>
			<stop  offset="1" style="stop-color:#D0CB57;stop-opacity:0.77"/>
		</linearGradient>
		
			<path id="b0c0b77f-1bad-4f4e-b1fa-f4893158be32" style="fill:url(#b0c0b77f-1bad-4f4e-b1fa-f4893158be32_00000108987462420708912260000005275859608363226511_);" d="
			M115,435.5c0,1.4-20.9,21.6-21.7,20.9s19.5-21.7,20.9-21.7C114.7,434.7,115,435.1,115,435.5"/>
		
			<linearGradient id="ee50ee15-6471-4158-9f93-f82b98bc2bf2_00000047761355770757775840000001923540209847286916_" gradientUnits="userSpaceOnUse" x1="-300.9029" y1="145.9515" x2="-301.9029" y2="146.6915" gradientTransform="matrix(50.68 0 0 50.68 15332.8809 -6923.3584)">
			<stop  offset="0" style="stop-color:#D7D25F;stop-opacity:0.8"/>
			<stop  offset="1" style="stop-color:#CDC648;stop-opacity:0.8"/>
		</linearGradient>
		
			<path id="ee50ee15-6471-4158-9f93-f82b98bc2bf2" style="fill:url(#ee50ee15-6471-4158-9f93-f82b98bc2bf2_00000047761355770757775840000001923540209847286916_);" d="
			M81,469.5c0,1.5-49.9,50.6-50.7,49.9s48.4-50.7,49.9-50.7C80.7,468.7,81,469.1,81,469.5L81,469.5"/>
	</g>
	<g id="b08fba0a-7741-4c65-945b-96644b6ffa4c">
		
			<linearGradient id="be208fb8-a655-4916-ad30-bef0b4851d9f_00000116941405069521852720000006065580279517947012_" gradientUnits="userSpaceOnUse" x1="-242.1527" y1="147.3565" x2="-242.1527" y2="146.3565" gradientTransform="matrix(4.72 0 0 42.26 1410.3899 -5962.1982)">
			<stop  offset="0" style="stop-color:#FFF8F2;stop-opacity:0.82"/>
			<stop  offset="1" style="stop-color:#FCE5DF;stop-opacity:0.76"/>
		</linearGradient>
		
			<path id="be208fb8-a655-4916-ad30-bef0b4851d9f" style="fill:url(#be208fb8-a655-4916-ad30-bef0b4851d9f_00000116941405069521852720000006065580279517947012_);" d="
			M268.5,242.6c-1.8,19.6-3.3,27-3.4,17.1c-0.1-6.7,2.8-36,3.7-37.4C270.2,220,270.1,224.9,268.5,242.6"/>
		
			<linearGradient id="bfd7e014-d9bf-417c-aa54-06b733a206ce_00000061450891939736239690000017545647831261901499_" gradientUnits="userSpaceOnUse" x1="-306.869" y1="144.4004" x2="-306.869" y2="143.4005" gradientTransform="matrix(486.79 0 0 352.17 149625.1562 -50227.8828)">
			<stop  offset="0" style="stop-color:#313526;stop-opacity:0.38"/>
			<stop  offset="1" style="stop-color:#04040F;stop-opacity:0.4"/>
		</linearGradient>
		
			<path id="bfd7e014-d9bf-417c-aa54-06b733a206ce" style="fill:url(#bfd7e014-d9bf-417c-aa54-06b733a206ce_00000061450891939736239690000017545647831261901499_);" d="
			M486,295.6c1.7,5.6,2,8.5,1.5,12.9c-1.3,11.2-3.8,14.7-27.6,38.6l-21.9,22l-44.7,4.2l-44.7,4.1L229.6,496.6
			C164.1,562.1,110,615.7,109.5,615.7s-3,2-5.4,4.5c-11.3,11.5-27.3,12.4-40.2,2.3c-9.8-7.7-58.7-57-60.8-61.3
			c-1.6-3.2-2-6.1-2-13.5c0-11.7,1.5-15.3,9.9-24l6.2-6.4l-0.8,5c-1.5,9.3-0.9,18.6,1.6,23.5c1.5,3,11.9,14.2,31.4,33.8
			c30.6,30.7,32.3,32,37.8,29.2c1.3-0.7,57.3-56,124.4-123s122.9-122,124-122.4s11.9-1.5,24-2.6l43-4.1l21-2l21.8-21.7
			c26.5-26.4,27-27.3,27.6-44.2l0.4-11.5l5.3,5.5C482.9,287.4,484.2,289.7,486,295.6"/>
		
			<linearGradient id="b12588df-93ec-440e-95d9-f4707d6b064b_00000160881568038596491770000016405920101369260728_" gradientUnits="userSpaceOnUse" x1="-303.3794" y1="145.89" x2="-303.3794" y2="144.89" gradientTransform="matrix(74.97 0 0 75 22967.3496 -10495.7109)">
			<stop  offset="0" style="stop-color:#FFFFFF;stop-opacity:0.85"/>
			<stop  offset="1" style="stop-color:#E9EBEA;stop-opacity:0.74"/>
		</linearGradient>
		
			<path id="b12588df-93ec-440e-95d9-f4707d6b064b" style="fill:url(#b12588df-93ec-440e-95d9-f4707d6b064b_00000160881568038596491770000016405920101369260728_);" d="
			M233,417.2l-27.5,27.5l-10-10l-10-10l27.5-27.5l27.5-27.5l10,10l10,10L233,417.2"/>
	</g>
	<g id="ea4dc24f-728d-4d9f-becf-fced4351b27d">
		
			<linearGradient id="b447fa4d-cd29-45f4-9b42-002d3edf7ce8_00000124873738410329729290000000646068517645951130_" gradientUnits="userSpaceOnUse" x1="-300.8728" y1="146.038" x2="-300.8728" y2="147.0378" gradientTransform="matrix(46.51 0 0 46.72 14216.3691 -6437.3911)">
			<stop  offset="0" style="stop-color:#070404;stop-opacity:0.77"/>
			<stop  offset="1" style="stop-color:#040000;stop-opacity:0.85"/>
		</linearGradient>
		
			<path id="b447fa4d-cd29-45f4-9b42-002d3edf7ce8" style="fill:url(#b447fa4d-cd29-45f4-9b42-002d3edf7ce8_00000124873738410329729290000000646068517645951130_);" d="
			M228.8,413.4l-17.3,17.3l-6-6l-6-6l17.3-17.4l17.3-17.3l5.9,6.1l5.9,6.1L228.8,413.4"/>
	</g>
</g>
<g id="a30d11af-1159-4214-8504-cb74457f446c">
	<g id="b795537f-08a7-498d-b749-d83981cea317">
		
			<linearGradient id="b0d161ee-7400-4c5f-b88b-5ab7fb9cc559_00000173146101822293421310000010948354371427297720_" gradientUnits="userSpaceOnUse" x1="-261.101" y1="142.2438" x2="-260.101" y2="146.8938" gradientTransform="matrix(19.46 0 0 133.05 6094.3896 -19163.9297)">
			<stop  offset="0" style="stop-color:#FFFFFC"/>
			<stop  offset="1" style="stop-color:#BF741A"/>
		</linearGradient>
		
			<path id="b0d161ee-7400-4c5f-b88b-5ab7fb9cc559" style="fill:url(#b0d161ee-7400-4c5f-b88b-5ab7fb9cc559_00000173146101822293421310000010948354371427297720_);" d="
			M1032.7,5.1c-0.3,1.2-4.3,31.2-8.9,66.5c-6.1,46.9-8.7,64.3-9.6,64.3s-1.1-0.8-0.8-2.2c0.3-1.2,4.1-30.6,8.6-65.2
			s8.3-63.6,8.5-64.2C1031.3,1.8,1033.2,2.7,1032.7,5.1"/>
		
			<linearGradient id="ae6c6765-b96d-40cd-8031-546bd9f602eb_00000021096236447803193530000002865386722548978330_" gradientUnits="userSpaceOnUse" x1="-286.9553" y1="145.3631" x2="-287.9553" y2="146.5331" gradientTransform="matrix(45.54 0 0 57.93 14161.7207 -8328.0186)">
			<stop  offset="0" style="stop-color:#EED39C"/>
			<stop  offset="1" style="stop-color:#E3B37A"/>
		</linearGradient>
		
			<path id="ae6c6765-b96d-40cd-8031-546bd9f602eb" style="fill:url(#ae6c6765-b96d-40cd-8031-546bd9f602eb_00000021096236447803193530000002865386722548978330_);" d="
			M1095,96.4c0,1.5-43.3,57-44.7,57.3c-1.9,0.4-2.7,1.6,23.6-32.7C1090.8,98.9,1095,94,1095,96.4"/>
		
			<linearGradient id="af135e1b-330c-49d5-bae5-279347582532_00000030461571258272233280000000758642469994923414_" gradientUnits="userSpaceOnUse" x1="-303.6545" y1="144.5911" x2="-303.6945" y2="143.5911" gradientTransform="matrix(238.31 0 0 238.65 73344.9297 -34130.7812)">
			<stop  offset="0" style="stop-color:#F9D390"/>
			<stop  offset="1" style="stop-color:#DDBE8E"/>
		</linearGradient>
		
			<path id="af135e1b-330c-49d5-bae5-279347582532" style="fill:url(#af135e1b-330c-49d5-bae5-279347582532_00000030461571258272233280000000758642469994923414_);" d="
			M978.1,140.4c5.2,1.5,7.4,3.5,59.6,55.7c61.6,61.5,58.8,58,58.1,72.7c-0.3,6.9-1,9.9-3.4,15l-3,6.5l1.9,6
			c2.4,7.7,1.7,16.1-1.8,23.4c-2,4.5-6.8,9.9-24.4,27.6l-21.9,22l-44.8,4.2l-44.8,4.2l-47.9-47.8l-47.9-47.8l4.2-44.5l4.2-44.5
			l22.5-22.4c14.9-14.8,24.1-23.2,27.2-24.8c6.3-3.2,17-4,23.9-1.7c4.7,1.6,5.2,1.6,9.5-0.4C960.4,138.9,969.3,137.9,978.1,140.4"/>
		
			<linearGradient id="afbdeac9-f080-436a-bdbe-09f41857dabc_00000099636854578640491270000000326696710433453958_" gradientUnits="userSpaceOnUse" x1="-291.4147" y1="147.0135" x2="-292.4147" y2="146.2735" gradientTransform="matrix(58.6 0 0 45 18200.0996 -6434)">
			<stop  offset="0" style="stop-color:#F5E2B9"/>
			<stop  offset="1" style="stop-color:#EBC89D"/>
		</linearGradient>
		
			<path id="afbdeac9-f080-436a-bdbe-09f41857dabc" style="fill:url(#afbdeac9-f080-436a-bdbe-09f41857dabc_00000099636854578640491270000000326696710433453958_);" d="
			M1124,143.6c0,1.2-56.6,44.2-58.1,44.2c-0.8,0-0.6-0.7,0.7-1.9c3.5-3.4,55.6-43.1,56.6-43.1C1123.6,142.8,1124,143.1,1124,143.6
			C1124,143.6,1124,143.6,1124,143.6"/>
		
			<linearGradient id="f30f75fc-3876-421e-9d2e-c359ef298840_00000072969106360028251660000009695852978719332225_" gradientUnits="userSpaceOnUse" x1="-298.605" y1="150.6959" x2="-302.665" y2="151.6959" gradientTransform="matrix(133 0 0 18.44 41125.8203 -2576.9507)">
			<stop  offset="0" style="stop-color:#FFFFFE"/>
			<stop  offset="1" style="stop-color:#C07F21"/>
		</linearGradient>
		
			<path id="f30f75fc-3876-421e-9d2e-c359ef298840" style="fill:url(#f30f75fc-3876-421e-9d2e-c359ef298840_00000072969106360028251660000009695852978719332225_);" d="
			M1208,202.8c0,0.6-0.5,1-1.1,1c-0.6,0-30.4,3.8-66.1,8.5s-65.2,8.3-65.5,8c-0.3-0.3-0.3-0.8,0.1-1.1c0.7-0.7,123.2-17.1,129-17.3
			C1206.3,201.9,1208,202.3,1208,202.8"/>
		
			<linearGradient id="f2e63be5-3dba-4962-850d-d70ea2f3a7df_00000169527406390605816680000013622394930322489493_" gradientUnits="userSpaceOnUse" x1="-305.2229" y1="143.4177" x2="-304.5629" y2="144.4177" gradientTransform="matrix(347.61 0 0 347.79 106756.8516 -49595.2422)">
			<stop  offset="0" style="stop-color:#828590;stop-opacity:0.99"/>
			<stop  offset="1" style="stop-color:#050A24;stop-opacity:0.99"/>
		</linearGradient>
		
			<path id="f2e63be5-3dba-4962-850d-d70ea2f3a7df" style="fill:url(#f2e63be5-3dba-4962-850d-d70ea2f3a7df_00000169527406390605816680000013622394930322489493_);" d="
			M834.5,496.8c-65.5,65.5-119.5,119-120,119s-3,2-5.4,4.5c-11.3,11.5-27.3,12.4-40.2,2.3c-9.9-7.6-58.8-57-60.9-61.3
			c-2.8-5.9-2.8-21.1,0.1-27.5c1.6-3.5,29.2-31.7,125.7-128.2l123.7-123.8l48,48l48,48L834.5,496.8"/>
		
			<linearGradient id="aa4fdb0a-9aed-4ed1-95a1-101b8e338430_00000101090755217727202680000011995971062208238013_" gradientUnits="userSpaceOnUse" x1="-302.1617" y1="149.4869" x2="-302.3317" y2="148.4869" gradientTransform="matrix(174.03 0 0 25.83 53294.1875 -3218.4309)">
			<stop  offset="0" style="stop-color:#DFDFDF"/>
			<stop  offset="1" style="stop-color:#DBDADA"/>
		</linearGradient>
		
			<path id="aa4fdb0a-9aed-4ed1-95a1-101b8e338430" style="fill:url(#aa4fdb0a-9aed-4ed1-95a1-101b8e338430_00000101090755217727202680000011995971062208238013_);" d="
			M666.3,620.5c7.5,6.8,12.6,8.8,21.7,8.8s14.6-2.4,21-8.9l4.4-4.5h8.1c13.4,0.2,26.8,1.6,40,4.1c22.6,4.5,25.3,10.8,6.8,15.7
			c-15.6,4.2-28.9,5.4-67.1,5.9c-46.2,0.6-71.2-1.3-88-7c-6.6-2.2-6.7-2.3-6.7-5.7c0-3,0.5-3.7,3.5-5.1c6.7-3.1,32.5-7.5,46.3-7.8
			C660.8,615.8,661.7,616.2,666.3,620.5"/>
	</g>
	<g id="ea7ce7df-cb5e-45fa-8c1e-c530e399ca10">
		
			<linearGradient id="b4329d70-9e0f-43ec-b146-94fc8b708a99_00000085229522453288814830000009863228334081765287_" gradientUnits="userSpaceOnUse" x1="-296.8712" y1="144.2229" x2="-297.8712" y2="144.7528" gradientTransform="matrix(150.09 0 0 150.26 46259.7266 -21491.4688)">
			<stop  offset="0" style="stop-color:#EEF4EF;stop-opacity:0.85"/>
			<stop  offset="1" style="stop-color:#A7AEA9;stop-opacity:0.7"/>
		</linearGradient>
		
			<path id="b4329d70-9e0f-43ec-b146-94fc8b708a99" style="fill:url(#b4329d70-9e0f-43ec-b146-94fc8b708a99_00000085229522453288814830000009863228334081765287_);stroke:#231815;stroke-miterlimit:10;" d="
			M1584,144.2c5.2,1.5,7.4,3.5,59.7,55.7c61.6,61.5,58.8,58,58.1,72.7c-0.3,6.5-1.1,10-3.1,14.5l-2.7,6l-72-72l-72-72l3.9-1.8
			C1566.3,142.7,1575.4,141.6,1584,144.2"/>
		
			<linearGradient id="a6da1bed-18ea-4719-9acd-5bf7342c18dc_00000181059397117114665440000009792972357544569754_" gradientUnits="userSpaceOnUse" x1="-258.0163" y1="160.2466" x2="-258.0163" y2="159.2463" gradientTransform="matrix(30.68 0 0 8.96 9452.1807 -1271.5101)">
			<stop  offset="0" style="stop-color:#FEF8EA;stop-opacity:0.8"/>
			<stop  offset="1" style="stop-color:#FDF5E6;stop-opacity:0.79"/>
		</linearGradient>
		
			<path id="a6da1bed-18ea-4719-9acd-5bf7342c18dc" style="fill:url(#a6da1bed-18ea-4719-9acd-5bf7342c18dc_00000181059397117114665440000009792972357544569754_);stroke:#231815;stroke-miterlimit:10;" d="
			M1543.7,158.5c6.3,3.2,9.6,6.1,6.9,6.1c-1-0.1-2-0.6-2.7-1.4c-0.6-0.8-3.5-2.4-6.3-3.6c-6.2-2.6-12.5-2.3-16.8,0.9
			c-3.2,2.3-3.9,2.6-3.9,1.2c0-0.5,1.9-2.1,4.2-3.5C1531,154.7,1536.4,154.8,1543.7,158.5"/>
		
			<linearGradient id="b9e508ce-018e-4fe1-9b04-0f5aab67fbfd_00000066516649844868582760000006997611417768638386_" gradientUnits="userSpaceOnUse" x1="-230.3754" y1="151.391" x2="-230.3754" y2="150.3914" gradientTransform="matrix(19.69 0 0 19.69 6036.1504 -2788.5503)">
			<stop  offset="0" style="stop-color:#F9E9CA;stop-opacity:0.81"/>
			<stop  offset="1" style="stop-color:#F7E1C2;stop-opacity:0.77"/>
		</linearGradient>
		
			<path id="b9e508ce-018e-4fe1-9b04-0f5aab67fbfd" style="fill:url(#b9e508ce-018e-4fe1-9b04-0f5aab67fbfd_00000066516649844868582760000006997611417768638386_);stroke:#231815;stroke-miterlimit:10;" d="
			M1509.9,174.4c0,1.4-18.9,19.6-19.7,18.9s17.5-19.7,18.9-19.7C1509.5,173.6,1509.9,173.9,1509.9,174.4
			C1509.9,174.3,1509.9,174.3,1509.9,174.4"/>
		
			<linearGradient id="e438299f-b633-481d-9a68-207feb0e0b9d_00000155854804936811175690000007759614087781522861_" gradientUnits="userSpaceOnUse" x1="-298.8001" y1="144.25" x2="-299.8001" y2="144.31" gradientTransform="matrix(185.26 0 0 185.08 57005.7461 -26416.9082)">
			<stop  offset="0" style="stop-color:#E95D52;stop-opacity:0.66"/>
			<stop  offset="1" style="stop-color:#A35044;stop-opacity:0.81"/>
		</linearGradient>
		
			<path id="e438299f-b633-481d-9a68-207feb0e0b9d" style="fill:url(#e438299f-b633-481d-9a68-207feb0e0b9d_00000155854804936811175690000007759614087781522861_);stroke:#231815;stroke-miterlimit:10;" d="
			M1604.2,377.3l-44.8,4.2l-47.9-47.8l-47.9-47.8l3.7-39.4c2-21.6,3.9-41.8,4.3-44.7l0.6-5.4l88.4,88.4l88.3,88.4L1604.2,377.3"/>
		
			<linearGradient id="fd12c8e8-f109-4c28-8278-95c7884be4cd_00000150098909501636984100000014311326033455923884_" gradientUnits="userSpaceOnUse" x1="-292.5692" y1="145.4131" x2="-292.8392" y2="144.4131" gradientTransform="matrix(102.67 0 0 102.67 31441.459 -14503.1768)">
			<stop  offset="0" style="stop-color:#C8C350;stop-opacity:0.82"/>
			<stop  offset="1" style="stop-color:#C7C376;stop-opacity:0.73"/>
		</linearGradient>
		
			<path id="fd12c8e8-f109-4c28-8278-95c7884be4cd" style="fill:url(#fd12c8e8-f109-4c28-8278-95c7884be4cd_00000150098909501636984100000014311326033455923884_);stroke:#231815;stroke-miterlimit:10;" d="
			M1440.9,324.3c0,1.5-101.9,102.6-102.7,101.9s100.4-102.7,101.9-102.7C1440.6,323.6,1440.9,323.9,1440.9,324.3"/>
		
			<linearGradient id="ff9fe302-38cc-40f3-a415-9f67333a9503_00000177464990753434174090000004521392955859443610_" gradientUnits="userSpaceOnUse" x1="-294.3803" y1="145.2608" x2="-294.4303" y2="144.2608" gradientTransform="matrix(116 0 0 115.48 35573.9922 -16293.3613)">
			<stop  offset="0" style="stop-color:#04050E;stop-opacity:0.42"/>
			<stop  offset="1" style="stop-color:#04040D;stop-opacity:0.56"/>
		</linearGradient>
		
			<path id="ff9fe302-38cc-40f3-a415-9f67333a9503" style="fill:url(#ff9fe302-38cc-40f3-a415-9f67333a9503_00000177464990753434174090000004521392955859443610_);stroke:#231815;stroke-miterlimit:10;" d="
			M1467.2,378.3l13.7,13.8l-44,44l-44,44l-14-14l-14-14l43.8-43.8c24.1-24.1,44-43.8,44.3-43.8S1459.6,370.8,1467.2,378.3"/>
		
			<linearGradient id="a63b16d1-2156-4fdf-8488-54033bdc7825_00000043453904698395817210000002469346243615951804_" gradientUnits="userSpaceOnUse" x1="-237.509" y1="150.7107" x2="-237.509" y2="149.7112" gradientTransform="matrix(21.69 0 0 21.69 6466.6304 -2810.9009)">
			<stop  offset="0" style="stop-color:#D8D251;stop-opacity:0.81"/>
			<stop  offset="1" style="stop-color:#D0CB57;stop-opacity:0.77"/>
		</linearGradient>
		
			<path id="a63b16d1-2156-4fdf-8488-54033bdc7825" style="fill:url(#a63b16d1-2156-4fdf-8488-54033bdc7825_00000043453904698395817210000002469346243615951804_);stroke:#231815;stroke-miterlimit:10;" d="
			M1325.9,439.4c0,1.4-20.9,21.6-21.7,20.9s19.4-21.7,20.9-21.7C1325.6,438.6,1325.9,438.9,1325.9,439.4
			C1325.9,439.3,1325.9,439.3,1325.9,439.4"/>
		
			<linearGradient id="ed7f9a42-2d79-4d43-b82b-1521a8327a35_00000109727579514823390780000004648588039067521453_" gradientUnits="userSpaceOnUse" x1="-277.0112" y1="146.0343" x2="-278.0112" y2="146.7643" gradientTransform="matrix(50.68 0 0 50.68 15332.8809 -6923.3584)">
			<stop  offset="0" style="stop-color:#D7D25F;stop-opacity:0.8"/>
			<stop  offset="1" style="stop-color:#CDC648;stop-opacity:0.8"/>
		</linearGradient>
		
			<path id="ed7f9a42-2d79-4d43-b82b-1521a8327a35" style="fill:url(#ed7f9a42-2d79-4d43-b82b-1521a8327a35_00000109727579514823390780000004648588039067521453_);stroke:#231815;stroke-miterlimit:10;" d="
			M1291.9,473.3c0,1.5-49.9,50.6-50.7,49.9s48.4-50.7,49.9-50.7C1291.6,472.6,1291.9,472.9,1291.9,473.3"/>
	</g>
	<g id="b5cadc80-b4ef-476c-b2f4-540182b35c81">
		
			<linearGradient id="be8cac6a-7ce8-4fc4-b40d-7da8994e2fb0_00000166649777674097637190000002174566212866534039_" gradientUnits="userSpaceOnUse" x1="151.2915" y1="147.0165" x2="151.2915" y2="146.0161" gradientTransform="matrix(4.72 0 0 42.26 1410.3899 -5962.1982)">
			<stop  offset="0" style="stop-color:#FFF8F2;stop-opacity:0.82"/>
			<stop  offset="1" style="stop-color:#FCE5DF;stop-opacity:0.76"/>
		</linearGradient>
		
			<path id="be8cac6a-7ce8-4fc4-b40d-7da8994e2fb0" style="fill:url(#be8cac6a-7ce8-4fc4-b40d-7da8994e2fb0_00000166649777674097637190000002174566212866534039_);stroke:#231815;stroke-miterlimit:10;" d="
			M2125.6,228.1c-1.8,19.6-3.3,27-3.4,17.1c-0.1-6.7,2.8-36,3.7-37.4C2127.3,205.5,2127.2,210.5,2125.6,228.1"/>
		
			<linearGradient id="ad37ade3-9011-445e-aaa3-8f9c8ac3ce5c_00000039845456203085620730000016989941204486061208_" gradientUnits="userSpaceOnUse" x1="-303.0541" y1="144.3604" x2="-303.0541" y2="143.3605" gradientTransform="matrix(486.79 0 0 352.17 149625.1562 -50227.8828)">
			<stop  offset="0" style="stop-color:#313526;stop-opacity:0.38"/>
			<stop  offset="1" style="stop-color:#04040F;stop-opacity:0.4"/>
		</linearGradient>
		
			<path id="ad37ade3-9011-445e-aaa3-8f9c8ac3ce5c" style="fill:url(#ad37ade3-9011-445e-aaa3-8f9c8ac3ce5c_00000039845456203085620730000016989941204486061208_);stroke:#231815;stroke-miterlimit:10;" d="
			M2343.1,281.2c1.7,5.6,2.1,8.5,1.6,12.9c-1.3,11.2-3.8,14.7-27.6,38.6l-21.9,22l-44.7,4.1l-44.7,4.2l-119.1,119.1
			c-65.5,65.5-119.6,119.1-120.1,119.1s-3,2-5.4,4.5c-11.3,11.5-27.3,12.4-40.2,2.3c-9.8-7.7-58.7-57-60.8-61.3
			c-1.6-3.2-2-6.1-2-13.5c0-11.7,1.5-15.3,9.9-24l6.2-6.4l-0.8,5c-1.5,9.3-0.9,18.6,1.6,23.5c1.5,3,11.9,14.2,31.4,33.8
			c30.6,30.7,32.3,32,37.8,29.2c1.3-0.7,57.3-56,124.4-123s122.9-122,124-122.4s11.9-1.5,24-2.6l43-4.1l21-2l21.8-21.7
			c26.5-26.5,27-27.3,27.6-44.2l0.4-11.4l5.3,5.5C2339.9,273,2341.3,275.3,2343.1,281.2"/>
		
			<linearGradient id="bfcb1719-1b67-4ec0-98ea-53cac7cc770a_00000116922294538227442200000013012779497014659768_" gradientUnits="userSpaceOnUse" x1="-278.6086" y1="145.7" x2="-278.6086" y2="144.7" gradientTransform="matrix(74.97 0 0 75 22967.3496 -10495.7109)">
			<stop  offset="0" style="stop-color:#FFFFFF;stop-opacity:0.85"/>
			<stop  offset="1" style="stop-color:#E9EBEA;stop-opacity:0.74"/>
		</linearGradient>
		
			<path id="bfcb1719-1b67-4ec0-98ea-53cac7cc770a" style="fill:url(#bfcb1719-1b67-4ec0-98ea-53cac7cc770a_00000116922294538227442200000013012779497014659768_);stroke:#231815;stroke-miterlimit:10;" d="
			M2090.1,402.8l-27.5,27.5l-10-10l-10-10l27.5-27.5l27.5-27.5l10,10l10,10L2090.1,402.8"/>
	</g>
	<g id="effee885-30c4-4c81-b935-8d80552350b9">
		
			<linearGradient id="a34166ee-4b2d-437a-856c-5d759b7872c3_00000030470927519275371110000018245278947405300355_" gradientUnits="userSpaceOnUse" x1="-247.2467" y1="146.028" x2="-247.2467" y2="147.028" gradientTransform="matrix(46.51 0 0 46.72 14216.3691 -6437.3911)">
			<stop  offset="0" style="stop-color:#070404;stop-opacity:0.77"/>
			<stop  offset="1" style="stop-color:#040000;stop-opacity:0.85"/>
		</linearGradient>
		
			<path id="a34166ee-4b2d-437a-856c-5d759b7872c3" style="fill:url(#a34166ee-4b2d-437a-856c-5d759b7872c3_00000030470927519275371110000018245278947405300355_);" d="
			M2722.9,413.3l-17.2,17.3l-6-6l-6-6l17.3-17.4l17.3-17.4l5.9,6.1l5.9,6.1L2722.9,413.3"/>
	</g>
	<line class="st41" x1="603" y1="0" x2="603" y2="641.7"/>
	<line class="st41" x1="1208" y1="1.7" x2="1208" y2="642.7"/>
	<line class="st41" x1="1810.9" y1="0" x2="1810.9" y2="641"/>
	<line class="st41" x1="2421.8" y1="1.7" x2="2421.8" y2="641"/>
</g>
</svg>
