<?xml version="1.0" standalone="no"?><!DOCTYPE svg PUBLIC "-//W3C//DTD SVG 20010904//EN" "http://www.w3.org/TR/2001/REC-SVG-20010904/DTD/svg10.dtd"><svg version="1.0" xmlns="http://www.w3.org/2000/svg" width="400pt" height="355pt" viewBox="0 0 400 355" preserveAspectRatio="xMidYMid meet"><defs><linearGradient id="linear-gradient-1-1" x1="0.00%" y1="100.00%" x2="0.00%" y2="0.00%"><stop offset="0%" style="stop-color:rgb(151,185,69);stop-opacity:1.000" /><stop offset="100%" style="stop-color:rgb(173,207,47);stop-opacity:1.000" /></linearGradient><linearGradient id="linear-gradient-1-2" x1="0.00%" y1="100.00%" x2="50.82%" y2="-63.53%"><stop offset="0%" style="stop-color:rgb(193,206,206);stop-opacity:1.000" /><stop offset="100%" style="stop-color:rgb(245,255,255);stop-opacity:1.000" /></linearGradient><linearGradient id="linear-gradient-1-3" x1="0.00%" y1="100.00%" x2="0.00%" y2="-0.00%"><stop offset="0%" style="stop-color:rgb(228,100,92);stop-opacity:1.000" /><stop offset="100%" style="stop-color:rgb(253,75,81);stop-opacity:1.000" /></linearGradient><linearGradient id="linear-gradient-1-4" x1="0.00%" y1="100.00%" x2="0.00%" y2="0.00%"><stop offset="0%" style="stop-color:rgb(250,220,48);stop-opacity:0.992" /><stop offset="100%" style="stop-color:rgb(248,199,44);stop-opacity:0.993" /></linearGradient><linearGradient id="linear-gradient-1-5" x1="0.00%" y1="100.00%" x2="0.00%" y2="0.00%"><stop offset="0%" style="stop-color:rgb(65,139,230);stop-opacity:1.000" /><stop offset="100%" style="stop-color:rgb(92,164,255);stop-opacity:1.000" /></linearGradient><linearGradient id="linear-gradient-1-6" x1="0.00%" y1="100.00%" x2="0.60%" y2="-2.55%"><stop offset="0%" style="stop-color:rgb(237,147,88);stop-opacity:1.000" /><stop offset="100%" style="stop-color:rgb(255,157,82);stop-opacity:1.000" /></linearGradient><linearGradient id="linear-gradient-1-7" x1="0.00%" y1="100.00%" x2="4.26%" y2="-14.56%"><stop offset="0%" style="stop-color:rgb(87,149,233);stop-opacity:1.000" /><stop offset="100%" style="stop-color:rgb(82,155,255);stop-opacity:1.000" /></linearGradient><linearGradient id="linear-gradient-1-8" x1="0.00%" y1="100.00%" x2="0.00%" y2="0.00%"><stop offset="0%" style="stop-color:rgb(235,242,242);stop-opacity:0.992" /><stop offset="100%" style="stop-color:rgb(241,235,235);stop-opacity:0.993" /></linearGradient><linearGradient id="linear-gradient-1-9" x1="0.00%" y1="100.00%" x2="144.02%" y2="86.64%"><stop offset="0%" style="stop-color:rgb(223,188,25);stop-opacity:1.000" /><stop offset="100%" style="stop-color:rgb(255,212,0);stop-opacity:1.000" /></linearGradient><linearGradient id="linear-gradient-1-10" x1="0.00%" y1="100.00%" x2="0.00%" y2="0.00%"><stop offset="0%" style="stop-color:rgb(212,189,14);stop-opacity:1.000" /><stop offset="100%" style="stop-color:rgb(255,210,6);stop-opacity:1.000" /></linearGradient><linearGradient id="linear-gradient-1-11" x1="0.00%" y1="100.00%" x2="125.35%" y2="7.79%"><stop offset="0%" style="stop-color:rgb(105,123,32);stop-opacity:0.997" /><stop offset="100%" style="stop-color:rgb(98,116,35);stop-opacity:0.999" /></linearGradient><linearGradient id="linear-gradient-1-12" x1="0.00%" y1="100.00%" x2="55.69%" y2="-65.67%"><stop offset="0%" style="stop-color:rgb(217,106,108);stop-opacity:1.000" /><stop offset="100%" style="stop-color:rgb(255,68,68);stop-opacity:1.000" /></linearGradient><linearGradient id="linear-gradient-1-13" x1="0.00%" y1="100.00%" x2="103.26%" y2="1.15%"><stop offset="0%" style="stop-color:rgb(252,101,0);stop-opacity:0.995" /><stop offset="100%" style="stop-color:rgb(251,102,0);stop-opacity:0.998" /></linearGradient><linearGradient id="linear-gradient-1-14" x1="0.00%" y1="100.00%" x2="127.67%" y2="8.69%"><stop offset="0%" style="stop-color:rgb(36,75,155);stop-opacity:1.000" /><stop offset="100%" style="stop-color:rgb(0,65,180);stop-opacity:1.000" /></linearGradient><linearGradient id="linear-gradient-1-15" x1="0.00%" y1="100.00%" x2="0.00%" y2="-0.00%"><stop offset="0%" style="stop-color:rgb(223,198,198);stop-opacity:0.994" /><stop offset="100%" style="stop-color:rgb(232,248,249);stop-opacity:0.994" /></linearGradient><linearGradient id="linear-gradient-1-16" x1="0.00%" y1="100.00%" x2="178.69%" y2="48.87%"><stop offset="0%" style="stop-color:rgb(223,106,16);stop-opacity:1.000" /><stop offset="100%" style="stop-color:rgb(255,99,0);stop-opacity:1.000" /></linearGradient><linearGradient id="linear-gradient-1-17" x1="0.00%" y1="100.00%" x2="0.00%" y2="0.00%"><stop offset="0%" style="stop-color:rgb(233,229,211);stop-opacity:0.993" /><stop offset="100%" style="stop-color:rgb(221,225,238);stop-opacity:0.993" /></linearGradient><linearGradient id="linear-gradient-1-18" x1="0.00%" y1="100.00%" x2="126.58%" y2="92.10%"><stop offset="0%" style="stop-color:rgb(244,12,5);stop-opacity:1.000" /><stop offset="100%" style="stop-color:rgb(255,0,0);stop-opacity:1.000" /></linearGradient><linearGradient id="linear-gradient-1-19" x1="0.00%" y1="100.00%" x2="0.00%" y2="-0.00%"><stop offset="0%" style="stop-color:rgb(137,128,42);stop-opacity:0.993" /><stop offset="100%" style="stop-color:rgb(82,115,29);stop-opacity:0.993" /></linearGradient><linearGradient id="linear-gradient-1-20" x1="0.00%" y1="100.00%" x2="164.08%" y2="40.46%"><stop offset="0%" style="stop-color:rgb(81,118,38);stop-opacity:0.996" /><stop offset="100%" style="stop-color:rgb(126,120,30);stop-opacity:0.999" /></linearGradient><linearGradient id="linear-gradient-1-21" x1="0.00%" y1="100.00%" x2="0.00%" y2="-0.00%"><stop offset="0%" style="stop-color:rgb(201,7,7);stop-opacity:0.991" /><stop offset="100%" style="stop-color:rgb(218,3,3);stop-opacity:0.991" /></linearGradient><linearGradient id="linear-gradient-1-22" x1="0.00%" y1="100.00%" x2="163.60%" y2="31.51%"><stop offset="0%" style="stop-color:rgb(68,123,67);stop-opacity:1.000" /><stop offset="100%" style="stop-color:rgb(123,117,12);stop-opacity:1.000" /></linearGradient><linearGradient id="linear-gradient-1-23" x1="0.00%" y1="100.00%" x2="0.00%" y2="0.00%"><stop offset="0%" style="stop-color:rgb(30,99,171);stop-opacity:1.000" /><stop offset="100%" style="stop-color:rgb(0,50,170);stop-opacity:1.000" /></linearGradient><linearGradient id="linear-gradient-1-24" x1="0.00%" y1="100.00%" x2="0.00%" y2="0.00%"><stop offset="0%" style="stop-color:rgb(246,187,0);stop-opacity:1.000" /><stop offset="100%" style="stop-color:rgb(243,208,17);stop-opacity:1.000" /></linearGradient><linearGradient id="linear-gradient-1-25" x1="0.00%" y1="100.00%" x2="0.00%" y2="0.00%"><stop offset="0%" style="stop-color:rgb(209,0,0);stop-opacity:1.000" /><stop offset="100%" style="stop-color:rgb(193,27,28);stop-opacity:1.000" /></linearGradient><linearGradient id="linear-gradient-1-26" x1="0.00%" y1="100.00%" x2="129.99%" y2="12.19%"><stop offset="0%" style="stop-color:rgb(244,104,0);stop-opacity:1.000" /><stop offset="100%" style="stop-color:rgb(241,104,22);stop-opacity:1.000" /></linearGradient><linearGradient id="linear-gradient-1-27" x1="0.00%" y1="100.00%" x2="0.00%" y2="0.00%"><stop offset="0%" style="stop-color:rgb(213,222,222);stop-opacity:0.997" /><stop offset="100%" style="stop-color:rgb(200,211,211);stop-opacity:0.999" /></linearGradient></defs><g id="layer-1"><path d="M1791 3171 c-101 -36 -182 -70 -181 -76 1 -5 76 -43 167 -83 l166 -73 203 68 c112 37 204 72 205 78 1 10 -346 155 -366 154 -5 -1 -93 -31 -194 -68z" fill="url(#linear-gradient-1-1)" id="region-1-1" transform="translate(0.000000,355.000000) scale(0.100000,-0.100000)"/><path d="M1328 3007 c-131 -50 -238 -94 -238 -97 0 -3 71 -39 158 -79 86 -41 160 -78 163 -83 4 -6 13 -6 25 1 11 6 123 50 249 97 127 47 233 89 237 92 4 4 -59 36 -140 71 -81 35 -157 70 -169 78 -12 7 -28 13 -35 12 -7 -1 -120 -42 -250 -92z" fill="url(#linear-gradient-1-2)" id="region-1-2" transform="translate(0.000000,355.000000) scale(0.100000,-0.100000)"/><path d="M2355 3081 c-6 -5 -95 -37 -200 -71 -104 -34 -193 -66 -198 -69 -6 -7 389 -191 408 -191 5 0 100 36 212 81 l204 81 -208 89 c-114 49 -208 89 -208 89 -1 0 -5 -4 -10 -9z" fill="url(#linear-gradient-1-3)" id="region-1-3" transform="translate(0.000000,355.000000) scale(0.100000,-0.100000)"/><path d="M1680 2844 c-135 -51 -247 -94 -250 -94 -3 -1 89 -48 204 -104 l210 -102 210 82 c343 133 315 120 286 132 -14 6 -110 49 -214 96 -104 47 -192 86 -195 85 -3 -1 -116 -43 -251 -95z" fill="url(#linear-gradient-1-4)" id="region-1-4" transform="translate(0.000000,355.000000) scale(0.100000,-0.100000)"/><path d="M960 2871 c-58 -20 -180 -63 -273 -95 l-167 -58 185 -89 186 -88 259 101 c143 55 260 104 260 107 0 6 -312 154 -333 158 -7 1 -59 -15 -117 -36z" fill="url(#linear-gradient-1-5)" id="region-1-5" transform="translate(0.000000,355.000000) scale(0.100000,-0.100000)"/><path d="M2585 2835 c-99 -40 -189 -76 -200 -79 -14 -4 36 -32 175 -96 107 -49 211 -98 231 -108 l37 -19 226 85 c124 46 226 87 226 91 0 7 -491 202 -505 200 -5 0 -91 -34 -190 -74z" fill="url(#linear-gradient-1-6)" id="region-1-6" transform="translate(0.000000,355.000000) scale(0.100000,-0.100000)"/><path d="M2107 2647 c-141 -56 -254 -104 -250 -108 17 -14 439 -202 453 -201 27 2 496 187 499 196 2 8 -330 169 -424 205 -14 6 -92 -20 -278 -92z" fill="url(#linear-gradient-1-7)" id="region-1-7" transform="translate(0.000000,355.000000) scale(0.100000,-0.100000)"/><path d="M1148 2642 c-136 -53 -244 -100 -240 -103 4 -3 101 -45 215 -92 l208 -86 256 92 256 91 -203 98 c-111 54 -212 98 -224 97 -11 0 -132 -44 -268 -97z" fill="url(#linear-gradient-1-8)" id="region-1-8" transform="translate(0.000000,355.000000) scale(0.100000,-0.100000)"/><path d="M524 2513 c3 -109 9 -253 12 -319 l6 -122 174 -82 c96 -45 177 -80 181 -77 3 3 2 146 -2 318 l-8 311 -175 84 c-96 46 -179 84 -184 84 -7 0 -8 -70 -4 -197z" fill="url(#linear-gradient-1-9)" id="region-1-9" transform="translate(0.000000,355.000000) scale(0.100000,-0.100000)"/><path d="M3058 2621 l-228 -86 0 -305 c0 -168 4 -311 9 -318 6 -10 55 6 217 69 115 45 215 82 222 82 9 0 12 72 12 324 0 178 -1 322 -2 322 -2 -1 -105 -40 -230 -88z" fill="url(#linear-gradient-1-10)" id="region-1-10" transform="translate(0.000000,355.000000) scale(0.100000,-0.100000)"/><path d="M893 2300 c4 -134 7 -278 7 -320 l0 -77 202 -93 c111 -50 208 -94 215 -97 11 -4 13 54 11 323 l-3 328 -200 83 c-110 46 -209 86 -219 89 -19 6 -19 0 -13 -236z" fill="url(#linear-gradient-1-11)" id="region-1-11" transform="translate(0.000000,355.000000) scale(0.100000,-0.100000)"/><path d="M1583 2452 c-134 -48 -243 -89 -243 -92 0 -3 101 -54 224 -112 l224 -106 252 93 c139 52 254 95 256 97 5 5 -443 208 -458 207 -7 0 -122 -39 -255 -87z" fill="url(#linear-gradient-1-12)" id="region-1-12" transform="translate(0.000000,355.000000) scale(0.100000,-0.100000)"/><path d="M2560 2431 l-255 -99 4 -313 c2 -173 5 -316 7 -318 4 -5 506 187 513 196 9 12 2 633 -7 633 -4 -1 -122 -45 -262 -99z" fill="url(#linear-gradient-1-13)" id="region-1-13" transform="translate(0.000000,355.000000) scale(0.100000,-0.100000)"/><path d="M1330 2035 c0 -249 3 -324 13 -328 6 -3 110 -53 230 -111 l217 -105 0 325 0 325 -112 53 c-62 30 -166 79 -230 109 l-118 56 0 -324z" fill="url(#linear-gradient-1-14)" id="region-1-14" transform="translate(0.000000,355.000000) scale(0.100000,-0.100000)"/><path d="M2040 2236 l-245 -91 -3 -329 c-2 -310 -1 -328 15 -322 10 4 127 50 261 102 l242 96 0 192 c0 214 -10 446 -19 445 -3 0 -116 -42 -251 -93z" fill="url(#linear-gradient-1-15)" id="region-1-15" transform="translate(0.000000,355.000000) scale(0.100000,-0.100000)"/><path d="M543 1890 c4 -101 7 -236 7 -301 l0 -117 108 -58 c59 -31 140 -74 180 -96 l72 -39 0 278 c0 153 -3 294 -6 313 -6 34 -9 37 -176 115 -94 44 -175 82 -181 84 -7 3 -8 -55 -4 -179z" fill="url(#linear-gradient-1-16)" id="region-1-16" transform="translate(0.000000,355.000000) scale(0.100000,-0.100000)"/><path d="M3055 1980 l-220 -86 4 -310 c2 -170 5 -310 6 -312 4 -5 417 168 433 180 9 8 12 82 12 309 0 164 -3 300 -7 302 -5 2 -107 -35 -228 -83z" fill="url(#linear-gradient-1-17)" id="region-1-17" transform="translate(0.000000,355.000000) scale(0.100000,-0.100000)"/><path d="M908 1593 c2 -170 6 -311 10 -314 10 -9 398 -209 405 -209 4 0 7 143 7 318 l0 318 -206 95 c-114 52 -209 95 -213 97 -3 1 -5 -136 -3 -305z" fill="url(#linear-gradient-1-18)" id="region-1-18" transform="translate(0.000000,355.000000) scale(0.100000,-0.100000)"/><path d="M2810 1886 c-14 -7 -132 -53 -263 -102 l-238 -89 7 -255 c4 -140 10 -285 13 -321 l6 -65 254 105 253 106 -3 317 c-2 175 -4 318 -4 318 0 -1 -11 -7 -25 -14z" fill="url(#linear-gradient-1-19)" id="region-1-19" transform="translate(0.000000,355.000000) scale(0.100000,-0.100000)"/><path d="M1330 1391 l0 -320 233 -118 232 -118 3 105 c2 58 0 206 -3 328 l-7 224 -225 109 c-124 60 -227 109 -229 109 -2 0 -4 -144 -4 -319z" fill="url(#linear-gradient-1-20)" id="region-1-20" transform="translate(0.000000,355.000000) scale(0.100000,-0.100000)"/><path d="M2042 1588 l-252 -101 6 -321 c4 -177 8 -322 9 -324 1 -1 120 46 264 105 l263 106 -6 106 c-3 58 -9 202 -12 319 -3 116 -9 212 -13 211 -3 0 -120 -46 -259 -101z" fill="url(#linear-gradient-1-21)" id="region-1-21" transform="translate(0.000000,355.000000) scale(0.100000,-0.100000)"/><path d="M565 1190 c6 -153 13 -280 15 -283 11 -8 343 -187 345 -184 6 11 -13 549 -20 556 -11 9 -51 31 -235 129 l-115 61 10 -279z" fill="url(#linear-gradient-1-22)" id="region-1-22" transform="translate(0.000000,355.000000) scale(0.100000,-0.100000)"/><path d="M3276 1452 c-2 -4 -102 -48 -220 -97 l-216 -89 1 -181 c1 -99 4 -226 8 -282 l6 -102 218 91 217 92 0 288 c0 158 -2 288 -4 288 -3 0 -7 -4 -10 -8z" fill="url(#linear-gradient-1-23)" id="region-1-23" transform="translate(0.000000,355.000000) scale(0.100000,-0.100000)"/><path d="M917 1057 c2 -122 6 -249 9 -282 l5 -60 197 -107 197 -108 3 277 c2 213 -1 280 -10 289 -7 6 -101 57 -208 112 l-196 101 3 -222z" fill="url(#linear-gradient-1-24)" id="region-1-24" transform="translate(0.000000,355.000000) scale(0.100000,-0.100000)"/><path d="M2580 1157 l-245 -104 -3 -286 c-1 -170 1 -287 7 -287 12 0 494 209 503 218 9 9 -2 562 -11 562 -3 0 -116 -47 -251 -103z" fill="url(#linear-gradient-1-25)" id="region-1-25" transform="translate(0.000000,355.000000) scale(0.100000,-0.100000)"/><path d="M1330 783 l5 -288 225 -122 c124 -67 228 -119 233 -114 4 4 6 135 5 291 l-3 285 -230 117 c-126 65 -232 118 -235 118 -3 0 -3 -129 0 -287z" fill="url(#linear-gradient-1-26)" id="region-1-26" transform="translate(0.000000,355.000000) scale(0.100000,-0.100000)"/><path d="M2058 943 l-257 -105 -3 -295 c-3 -290 -3 -294 17 -289 11 3 133 54 270 113 l250 108 -3 288 c-1 158 -6 287 -10 286 -4 0 -123 -48 -264 -106z" fill="url(#linear-gradient-1-27)" id="region-1-27" transform="translate(0.000000,355.000000) scale(0.100000,-0.100000)"/></g></svg>