<?xml version="1.0" encoding="utf-8"?>
<!-- Generator: Adobe Illustrator 26.5.0, SVG Export Plug-In . SVG Version: 6.00 Build 0)  -->
<svg version="1.1" id="图层_1" xmlns="http://www.w3.org/2000/svg" xmlns:xlink="http://www.w3.org/1999/xlink" x="0px" y="0px"
	 viewBox="0 0 2400 462" style="enable-background:new 0 0 2400 462;" xml:space="preserve">
<style type="text/css">
	.st0{fill:none;}
	.st1{fill:#D2D2D2;}
	.st2{fill:url(#SVGID_1_);}
	.st3{fill:none;stroke:#231815;stroke-width:4;stroke-miterlimit:10;}
	.st4{fill:url(#a2575bfe-7923-4b65-aa33-f4176ac1aaaa_00000146494306252514968800000012085158685396882860_);}
	.st5{fill:url(#f35e1e73-f0e2-4e8f-9267-a04e799a9a77_00000096047955021730050090000017557470895873392282_);}
	.st6{fill:url(#f669b763-02a9-40a6-9364-c52c14dc350e_00000047754141799889132230000018387497264032018308_);}
	.st7{fill:url(#a0c11197-fb5b-46aa-b968-0b877e6c5c45_00000179629605830020197400000009415324465529208194_);}
	.st8{fill:url(#ebe5fb16-6352-450e-8e2e-dfbe1253baff_00000041284444158487928030000007950295372505268392_);}
	.st9{fill:url(#eac115e8-4d98-4df0-9721-0130eccbf795_00000114778971218490360560000016383793860514626984_);}
	.st10{fill:url(#fe43175d-ab91-4826-84d5-ac19950e8d39_00000011005100598810935110000005713629489452948654_);}
	.st11{fill:url(#f8969dab-3a93-40c6-aebb-f376fda5b95c_00000081647325305790257470000000233182488798471845_);}
	.st12{fill:url(#bc084e07-8a14-47ed-842a-760cc70b2729_00000155845018186124514280000002795341458804429220_);}
	.st13{fill:url(#bcd22cd0-6e37-4404-b5db-a87be944e314_00000129903449392076700750000009822401327765936016_);}
	.st14{fill:url(#ab501501-9312-4705-818f-b650c36d6885_00000140725705456606578300000003139218889062482099_);}
	.st15{fill:url(#ad80f7b2-57cd-4aff-8a95-322f6484bb1d_00000095305122236727205360000005641090839243521471_);}
	.st16{fill:url(#bcff9e4e-cd62-4d43-91b7-528f02bf0dfd_00000042717949106459832440000016141615804951579313_);}
	.st17{fill:url(#a98ed498-f675-475e-b411-531d4fdd040d_00000152952614513078085700000006314190398310145936_);}
	.st18{fill:url(#adc68ddb-a818-421b-94ea-c0fa07303063_00000142888554937701490770000001893988547990179211_);}
	.st19{fill:url(#a6f557b3-ef2c-41ee-8b25-3336d9c27564_00000038400701086388922040000013115263549640016573_);}
	.st20{fill:url(#af69e0a9-70d8-4389-af7e-36d324d3d449_00000123399927436621272040000017200537253827796610_);}
	.st21{fill:url(#f08fecf3-3d81-472f-807f-91dd776e5494_00000134210377264758016840000012867430782689555391_);}
	.st22{fill:url(#f1387ac1-97c5-4546-986f-32e7255192cd_00000014597428287271426810000015186516829257163907_);}
	.st23{fill:url(#bece999e-d7ad-49aa-a4bc-64951dcb72de_00000048474296491931812550000008728982000625445782_);}
</style>
<pattern  y="462" width="40" height="40" patternUnits="userSpaceOnUse" id="e4969793-e30d-4a23-b463-c408784" viewBox="0 -40 40 40" style="overflow:visible;">
	<g>
		<rect y="-40" class="st0" width="40" height="40"/>
		<rect y="-40" class="st0" width="40" height="40"/>
		<rect y="-40" class="st1" width="20" height="20"/>
		<rect x="20" y="-20" class="st1" width="20" height="20"/>
	</g>
</pattern>
<g id="ebfb0419-90b1-48d7-9103-ad2b97fe9b45">
	<pattern  id="SVGID_1_" xlink:href="#e4969793-e30d-4a23-b463-c408784" patternTransform="matrix(1 0 0 1 38.56 639.04)">
	</pattern>
	<rect x="601.1" class="st2" width="1798.9" height="462"/>
	<line class="st3" x1="601.1" y1="0" x2="601.1" y2="462"/>
	<line class="st3" x1="1200" y1="0" x2="1200" y2="462"/>
	<line class="st3" x1="1801.1" y1="0" x2="1801.1" y2="462"/>
</g>
<g id="f78a2711-e1d5-4c26-b4d6-53c6ece07e7c">
	<g id="acba04c2-b67b-40d1-86e8-a2cbf795534c">
		
			<linearGradient id="a2575bfe-7923-4b65-aa33-f4176ac1aaaa_00000094589634739419042730000003585895905168046214_" gradientUnits="userSpaceOnUse" x1="-395.5083" y1="-37.3919" x2="-394.8183" y2="-36.3919" gradientTransform="matrix(427.53 0 0 311.28 169835.0469 11689.9062)">
			<stop  offset="0" style="stop-color:#EC5056"/>
			<stop  offset="1" style="stop-color:#A50000"/>
		</linearGradient>
		
			<path id="a2575bfe-7923-4b65-aa33-f4176ac1aaaa" style="fill:url(#a2575bfe-7923-4b65-aa33-f4176ac1aaaa_00000094589634739419042730000003585895905168046214_);" d="
			M1063.6,47c3.2,1.7,10.7,12.4,20,28.4c16.5,28.6,23.6,44.9,26.3,60.6c2.5,14.6,0.6,29.2-4,30.6c-1.8,0.7-3.6,1.5-5.4,2.5
			c-1.6,0.9-3.4,1.6-5.2,1.9c-0.9,0-2.3,1.2-3.1,2.8c-2.2,4.1-4.9,6.9-7.2,7.6c-1.5,0.6-2.8,1.4-3.9,2.4c-2.8,2.6-13.2,9.2-14.7,9.2
			c-1.2,0.2-2.2,0.8-3.2,1.5c-1,0.8-2.1,1.3-3.3,1.5c-0.8,0-6.4,3.3-12.6,7.3c-12.8,8.4-22.6,14.5-26.6,16.7
			c-3.4,2.2-6.6,4.6-9.7,7.2c-3.8,3.1-10,8.2-13.8,11.3s-7.4,6.1-8.1,6.8s-4.8,4.6-9.2,8.7c-3.5,3.2-6.8,6.6-9.9,10.2
			c-1.1,1.5-6.5,8.2-12,15c-11.7,14.3-20.6,26.2-22.9,30.6c-0.9,1.7-2.2,3.1-3,3.1s-4.1,4.2-7.5,9.2c-8.5,12.9-13,17.2-28.2,27.1
			c-11.4,7.5-14.2,8.1-33,7.9c-9.1-0.1-23.5-0.9-32-1.8c-26.6-2.7-79.1-10.8-109.4-16.9c-23-4.6-33.4-6.5-35.4-6.5
			c-4,0-4.5-13.1-1.1-24.1c2.5-8.1,6.3-12.9,12.6-15.9c4.5-2.1,6.6-2.3,34.8-3c16.5-0.4,31.1-1.1,32.5-1.4l7-1.8
			c2.9-0.8,5.7-1.8,8.4-3.1c3.2-1.6,6.8-2.2,19.5-2.7c15-0.7,21.1-1.9,29.6-5.8C841,269,852.6,263,853.6,262c1.4-1.1,2.9-2.1,4.5-3
			c1.6-0.9,3.1-1.9,4.5-3c1.4-1.3,2.9-2.4,4.5-3.5c8.3-6.2,24.7-22.5,36.2-36c5.4-6.4,26.9-31.4,41.7-48.4c1.2-1.4,2.8-3.4,3.7-4.7
			c1.4-2,5.7-7.1,15.6-18.2c2.3-2.6,7.4-8.5,11.3-13.1c14.7-17.3,18.2-21,50-53.2c18.4-18.5,33.3-32.8,34.3-32.8
			c1.3,0.1,2.5,0.4,3.7,1"/>
		
			<linearGradient id="f35e1e73-f0e2-4e8f-9267-a04e799a9a77_00000168802704913469430820000010964764831692909217_" gradientUnits="userSpaceOnUse" x1="-385.4012" y1="-36.97" x2="-385.4012" y2="-35.9699" gradientTransform="matrix(83.07 0 0 245.74 33079.3477 9250.0215)">
			<stop  offset="0" style="stop-color:#9B3434"/>
			<stop  offset="1" style="stop-color:#800000"/>
		</linearGradient>
		
			<path id="f35e1e73-f0e2-4e8f-9267-a04e799a9a77" style="fill:url(#f35e1e73-f0e2-4e8f-9267-a04e799a9a77_00000168802704913469430820000010964764831692909217_);" d="
			M1105.6,168.7c0,0.9-3.2,8.9-7.1,17.8c-14.6,32.8-21.8,59.4-25,93.1c-1.5,15.4-1.6,88.1-0.1,111c0.8,12.1,0.7,15.5-0.4,17.7
			c-2.7,5.4-7.6,6.2-11.5,2c-2.6-2.7-2.6-3.1-4.3-31.8c-1.7-28.9-3.5-51.3-5.5-67.5c-0.6-4.7-1.5-13-2-18.5
			c-1-9.9-1.6-12.9-4.3-21.5c-0.8-2.5-2.9-9.5-4.6-15.5c-3.8-13.1-8.8-24.1-14.2-31.2l-4-5.3l6.3-3.9c3.5-2.2,11.6-7.3,18-11.5
			s12.3-7.6,13.1-7.6c1.2-0.2,2.3-0.7,3.3-1.5c0.9-0.7,2-1.3,3.2-1.5c1.4,0,11.8-6.6,14.7-9.2c1.2-1,2.5-1.9,3.9-2.4
			c2.3-0.7,5-3.6,7.2-7.6c0.8-1.5,2.3-2.8,3.2-2.8c1.7-0.3,3.3-1,4.7-1.9C1103.9,166.6,1105.6,166.5,1105.6,168.7"/>
		
			<linearGradient id="f669b763-02a9-40a6-9364-c52c14dc350e_00000137123564832933185910000007153420492274711470_" gradientUnits="userSpaceOnUse" x1="-394.7447" y1="-36.6073" x2="-394.2147" y2="-35.6073" gradientTransform="matrix(339.34 0 0 205.43 134735.25 7734.6074)">
			<stop  offset="0" style="stop-color:#BF4D56"/>
			<stop  offset="1" style="stop-color:#BB192D"/>
		</linearGradient>
		
			<path id="f669b763-02a9-40a6-9364-c52c14dc350e" style="fill:url(#f669b763-02a9-40a6-9364-c52c14dc350e_00000137123564832933185910000007153420492274711470_);" d="
			M1021.6,221.3c0,1.3-7.5,9-19.4,19.8c-12.3,11.2-24.6,23.3-24.6,24.3c0,0.6-1.6,2.3-3.5,3.9s-3.5,3.4-3.5,4.1s-1.1,2.1-2.5,3
			s-2.4,2-2.2,2.5s-0.5,1.7-1.5,2.7c-5,5.5-5.8,6.4-5.8,7.4c0,0.6-0.7,1.3-1.5,1.6c-0.8,0.3-1.4,0.9-1.5,1.8
			c-0.3,1.1-0.9,2.1-1.8,2.8c-4.1,3.9-11,14.5-14.6,22.3c-1.3,2.9-2.8,5.6-4.6,8.2c-1,1.2-1.7,2.7-2,4.3c0,2-17.6,37-24.2,48.1
			c-14.8,24.9-25.6,37.3-37.2,43c-6,3-8.2,3.4-18.5,4.1c-23,1.6-53.4-4.7-92.7-19.4c-30.4-11.3-61.8-24.8-68.6-29.5
			c-3.5-2.3-3.6-2.6-2.5-5.5c1-2.6,0.9-3.2-0.6-4.3c-2.5-1.9-7.6-32.4-5.6-33.6c2.6-1.6,5-1.3,39.5,5.6
			c30.3,6.1,82.8,14.2,109.4,16.9c8.5,0.9,22.9,1.7,32,1.8c18.8,0.3,21.5-0.4,33-7.9c15.2-10,19.7-14.3,28.2-27.1
			c3.4-5.1,6.7-9.2,7.5-9.2s2.1-1.4,3-3.1c2.3-4.5,11.2-16.4,22.9-30.6c5.5-6.8,11-13.5,12-15c3.1-3.6,6.4-7,9.9-10.3
			c4.3-4.1,8.6-8.2,9.5-9s4.9-4.2,8.9-7.5C1021.8,218.4,1021.6,218.6,1021.6,221.3"/>
	</g>
	<g id="bdeda54f-7927-46f1-990f-88cba1b587a4">
		
			<linearGradient id="a0c11197-fb5b-46aa-b968-0b877e6c5c45_00000064318972732697252890000015254935388574709148_" gradientUnits="userSpaceOnUse" x1="-392.8762" y1="-36.1618" x2="-393.5262" y2="-37.1618" gradientTransform="matrix(372.86 0 0 273 148098.4375 10194.2256)">
			<stop  offset="0" style="stop-color:#FFA8B7;stop-opacity:0.5"/>
			<stop  offset="1" style="stop-color:#FFE9ED;stop-opacity:0.88"/>
		</linearGradient>
		
			<path id="a0c11197-fb5b-46aa-b968-0b877e6c5c45" style="fill:url(#a0c11197-fb5b-46aa-b968-0b877e6c5c45_00000064318972732697252890000015254935388574709148_);" d="
			M1662.6,51.3c0.8,1.8,0.7,3-0.4,5.3c-1.3,2.5-1.3,3.3-0.1,5.5c0.9,1.9,1.6,3.9,1.9,6c0.3,1.9,1.1,5.2,1.7,7.4
			c1.3,4.7,1.6,5.9,2.2,8.2c0.2,1,0.5,1.9,0.5,2c0,0.2,0.1,0.5,0.1,0.8c0.4,1.4,0.9,2.7,1.4,4c0.8,1.9,1.3,3.5,1.1,3.5
			s0.6,2.4,1.7,5.2c2,5.2,3.3,20.1,2,22.2c-0.5,0.9-0.8,2-0.9,3c-0.6,3.7-3.7,5.4-16.2,9c-5.8,1.6-11.4,3.5-17,5.7
			c-2.5,1.1-5.4,2.4-6.5,2.8s-6.1,2.8-11,5.3c-13.4,6.9-43.6,21.8-47,23.1c-1.7,0.7-4.6,1.9-6.5,2.8s-5.7,2.3-8.4,3.3
			c-4.6,1.6-12.6,8.3-12.6,10.5c0,0.5-0.4,0.9-0.9,1c-0.5,0-1.2,1.1-1.5,2.5s-1.1,2.5-1.6,2.5s-1,0.7-1,1.5s-0.4,1.5-1,1.5
			s-0.9,0.3-0.8,0.8s-2.8,3.7-6.6,7.2s-13,13.2-20.5,21.5c-15.1,16.5-21.7,23-33.7,33l-10.3,8.6c-0.9,0.9-2,1.5-3.2,2
			c-0.5,0-0.9,0.3-0.9,0.8c0,0,0,0,0,0c0,0.5-1.2,1.5-2.8,2.2c-1.1,0.6-2.2,1.2-3.2,2c-2.7,1.6-5.4,3-8.2,4.3
			c-8.1,4-13.4,8.9-14.4,13.4c-1.7,7.8-5.8,12.8-13.4,16.1c-17.7,7.8-76,16.8-88,13.6c-9-2.9-17.8-6.2-26.4-10
			c-4.1-2-9.2-9-7.4-10.2c0.7-0.5,15.9-1.1,33.8-1.5c32.3-0.6,35.8-1,47.6-4.9c5.3-1.7,17.4-9,17.4-10.5c0-0.8,2.5-1.4,6.8-1.8
			c7.1-0.8,14.1-2.7,20.7-5.6c11-5.1,22.5-11.1,23.5-12.1c1.4-1.1,2.9-2.1,4.5-3c1.6-0.9,3.1-1.9,4.5-3c1.4-1.3,2.9-2.4,4.5-3.5
			c8.3-6.2,24.7-22.5,36.2-36c5.4-6.4,26.9-31.4,41.7-48.4c1.2-1.4,2.8-3.4,3.7-4.7c1.4-2,5.7-7.1,15.6-18.2
			c2.3-2.6,7.4-8.5,11.3-13.1c14.7-17.3,18.2-21,50-53.2c33.8-34,35.8-35.7,38.1-30.5"/>
		
			<linearGradient id="ebe5fb16-6352-450e-8e2e-dfbe1253baff_00000160909565682769590000000003770216477988766653_" gradientUnits="userSpaceOnUse" x1="-393.571" y1="-35.2931" x2="-393.571" y2="-36.2931" gradientTransform="matrix(407.76 0 0 185.26 161969.8281 6899.7583)">
			<stop  offset="0" style="stop-color:#F7DBFF;stop-opacity:0.26"/>
			<stop  offset="1" style="stop-color:#A6759A;stop-opacity:0.34"/>
		</linearGradient>
		
			<path id="ebe5fb16-6352-450e-8e2e-dfbe1253baff" style="fill:url(#ebe5fb16-6352-450e-8e2e-dfbe1253baff_00000160909565682769590000000003770216477988766653_);" d="
			M1691.1,176.6c-1.1,2.9-5.1,7.2-7.1,7.8c-1.5,0.5-2.8,1.3-4,2.4c-2.9,2.7-13.3,9.2-14.7,9.2c-1.2,0.2-2.2,0.8-3.2,1.5
			c-1,0.8-2.1,1.3-3.3,1.5c-0.8,0-6.4,3.3-12.6,7.3c-12.8,8.4-22.6,14.5-26.6,16.7c-3.4,2.2-6.6,4.6-9.7,7.2l-13.8,11.3
			c-3.8,3.1-7.4,6.1-8.1,6.8s-4.8,4.6-9.2,8.7c-3.5,3.2-6.8,6.6-9.9,10.2c-1.1,1.5-6.5,8.2-12.1,15c-11.7,14.3-20.6,26.2-22.9,30.6
			c-0.9,1.7-2.2,3.1-3,3.1s-4.1,4.2-7.4,9.2c-8.5,12.9-13,17.2-28.2,27.1c-11.4,7.5-14.2,8.1-33,7.9c-9.1-0.1-23.5-0.9-32-1.8
			c-26.6-2.7-79.1-10.8-109.4-16.9c-23.2-4.7-33.4-6.5-35.5-6.5c-1.4,0-2.1-0.6-2.1-1.9c0-3.9,14.7-4.2,32.3-0.7
			c10.6,2.1,28.3,5.4,46.7,8.6c13.4,2.4,35,4.5,54.5,5.4c4.4,0.2,10.9,0.7,14.5,1.2c3.6,0.4,7.3,0.7,11,0.7l20-0.6
			c18.1-0.5,22.4-1.6,31.5-8c2.2-1.5,5.6-3.9,7.5-5.2c9.1-6.2,21-22.3,26.6-35.8c4.2-10.4,8.4-16.8,19.6-30.2
			c10.2-12.2,47.6-49.7,57.9-58.2c12.7-10.3,32.9-19.9,61.2-28.9c6.2-2,12.5-4.2,14.2-4.9c2.2-0.9,4.5-1.3,6.9-1.4
			C1690.9,175,1691.5,175.3,1691.1,176.6"/>
		
			<linearGradient id="eac115e8-4d98-4df0-9721-0130eccbf795_00000008845668249345261720000007929620032836883110_" gradientUnits="userSpaceOnUse" x1="-366.966" y1="-34.0042" x2="-367.966" y2="-35.3642" gradientTransform="matrix(53.63 0 0 128.27 21374.7207 4682.46)">
			<stop  offset="0" style="stop-color:#C60B25;stop-opacity:0.74"/>
			<stop  offset="1" style="stop-color:#BA5D6E;stop-opacity:0.83"/>
		</linearGradient>
		
			<path id="eac115e8-4d98-4df0-9721-0130eccbf795" style="fill:url(#eac115e8-4d98-4df0-9721-0130eccbf795_00000008845668249345261720000007929620032836883110_);" d="
			M1687.4,185.4c0.9,1.1,0.5,3.4-1.8,10.2c-6.4,18.8-12.4,38.7-13.6,44.9c-0.3,1.6-1.5,10.6-2.6,20s-2.2,18.1-2.5,19.5
			s-0.7,3.8-0.9,5.3s-0.6,4-0.9,5.5s-0.8,4.7-1.2,7.2s-0.7,5.2-0.9,6c-0.1,0.8-0.8,1.4-1.6,1.5c-0.8,0-1.9,1.7-2.5,3.9
			c-1.9,6.8-3.3,2.2-5.4-18.4c-3.7-35.4-4.2-39.4-5.7-47c-0.8-4.1-1.9-8-2.4-8.6s-0.6-1.4-0.2-1.8s0.2-0.7-0.3-0.7s-1-1-1.1-2.2
			s-0.6-2.4-1.2-2.6c-0.6-0.3-0.8-1.1-0.5-1.6c0,0,0,0,0,0c0.2-0.8-0.2-1.6-1-1.9c-1-0.6-1.6-1.7-1.6-2.8c0-1.2-1.2-3.5-2.6-5
			l-2.6-2.7l11.6-7.6c6.4-4.2,12.2-7.6,12.9-7.6c1.2-0.2,2.4-0.7,3.3-1.5c0.9-0.7,2-1.3,3.2-1.5c1.2,0,12.3-6.7,13.3-8s5.5-4,6.6-4
			C1686,184.1,1686.9,184.6,1687.4,185.4"/>
		
			<linearGradient id="fe43175d-ab91-4826-84d5-ac19950e8d39_00000006704533588871314920000003618270406458278810_" gradientUnits="userSpaceOnUse" x1="-334.2565" y1="-29.5552" x2="-334.2565" y2="-30.5545" gradientTransform="matrix(25.35 0 0 59.31 10107.5195 2027.1472)">
			<stop  offset="0" style="stop-color:#DC8AA5;stop-opacity:0.43"/>
			<stop  offset="1" style="stop-color:#BB8484;stop-opacity:0.55"/>
		</linearGradient>
		
			<path id="fe43175d-ab91-4826-84d5-ac19950e8d39" style="fill:url(#fe43175d-ab91-4826-84d5-ac19950e8d39_00000006704533588871314920000003618270406458278810_);" d="
			M1629.7,219.7c2.3,2.7,8.8,15.3,8.8,17.2c0.4,2.6,1.1,5.1,2,7.6c3.9,11.4,7.4,30.1,6,32.3c-1.2,1.9-2.5-0.7-3.9-7.5
			c-3.3-15.7-10.3-32.8-17.2-42.1l-3.9-5.2l2.7-2C1627.5,217.6,1627.7,217.6,1629.7,219.7"/>
		
			<linearGradient id="f8969dab-3a93-40c6-aebb-f376fda5b95c_00000011014909563559165280000001851991668490205573_" gradientUnits="userSpaceOnUse" x1="-392.6937" y1="-36.5655" x2="-392.6937" y2="-35.5654" gradientTransform="matrix(333.47 0 0 205.43 132405.3125 7735.3574)">
			<stop  offset="0" style="stop-color:#370000;stop-opacity:0.73"/>
			<stop  offset="1" style="stop-color:#14683C;stop-opacity:0.49"/>
		</linearGradient>
		
			<path id="f8969dab-3a93-40c6-aebb-f376fda5b95c" style="fill:url(#f8969dab-3a93-40c6-aebb-f376fda5b95c_00000011014909563559165280000001851991668490205573_);" d="
			M1620.5,224.3c0,1.3-7.5,9-19.4,19.8c-12.3,11.2-24.6,23.3-24.6,24.3c0,0.6-1.6,2.3-3.5,3.9s-3.5,3.4-3.5,4.1s-1.1,2.1-2.5,3
			s-2.4,2-2.2,2.5s-0.5,1.7-1.5,2.7c-5,5.5-5.8,6.4-5.8,7.4c0,0.6-0.7,1.3-1.5,1.6c-0.8,0.3-1.4,0.9-1.5,1.8
			c-0.3,1.1-0.9,2.1-1.8,2.8c-4.1,3.9-11,14.5-14.6,22.3c-1.3,2.9-2.8,5.6-4.6,8.2c-1,1.2-1.7,2.7-2,4.3c0,2-17.6,37-24.2,48.1
			c-14.8,24.9-25.6,37.3-37.2,43c-6,3-8.2,3.4-18.5,4.1c-23.6,1.6-54.7-5-95.9-20.6c-30.8-11.6-62-25.3-67.1-29.3
			c-2-1.6-2.1-2-0.9-3.8c1.4-1.9,1.5-1.9,5.3,0.6c7.3,4.7,37.8,18.6,42.9,19.4c2.5,0.7,4.9,1.7,7.2,2.9c1.9,1,3.8,1.8,5.8,2.6
			c0.8,0,25.6,8.9,28,10c4,1.9,21.8,7,29.8,8.4c4.5,0.8,10.5,2,13.2,2.5s12.1,1.4,20.9,1.9c17.2,1,21.5,0.4,29.4-4.1
			c4.2-2.4,15.4-13.4,17.3-17c1.2-2.1,2.5-4,4-5.9c1.6-2,2.5-3.9,2.2-4.2s-0.2-0.6,0.4-0.6s2.1-1.7,3.3-3.8
			c1.8-3,12.2-20.9,17.2-29.8c3.7-6.5,8-15.9,8.2-18.1c0.2-1.5,0.8-3,1.8-4.2c0.8-1,2.1-4,2.8-6.7c0.8-2.9,2-5.6,3.7-8.1
			c1.3-1.7,2.1-3.3,1.8-3.6c-1.5-1.5,7.3-14.1,24-34.5c5.5-6.8,11-13.5,12.1-15c3.1-3.6,6.4-7,9.9-10.2c4.3-4.1,8.6-8.2,9.5-9
			s4.9-4.2,8.9-7.5C1620.7,221.4,1620.5,221.6,1620.5,224.3"/>
		
			<linearGradient id="bc084e07-8a14-47ed-842a-760cc70b2729_00000160890030667767212550000016073389372326441866_" gradientUnits="userSpaceOnUse" x1="-393.0598" y1="-28.9405" x2="-389.1898" y2="-27.9405" gradientTransform="matrix(252.09 0 0 49.57 100009.7109 1746.4584)">
			<stop  offset="0" style="stop-color:#FF0000;stop-opacity:0.34"/>
			<stop  offset="1" style="stop-color:#001421"/>
		</linearGradient>
		
			<path id="bc084e07-8a14-47ed-842a-760cc70b2729" style="fill:url(#bc084e07-8a14-47ed-842a-760cc70b2729_00000160890030667767212550000016073389372326441866_);" d="
			M1532.8,316.6c0.4,0.4-0.4,2-1.7,3.8c-1.6,2.5-2.9,5.2-3.7,8.1c-1.6,6.1-2.6,7.4-11.5,15.4c-8.4,7.6-17.9,14.2-20.9,14.5
			c-1.6,0.3-3.2,0.8-4.7,1.6c-1,0.6-2.1,1.1-3.2,1.5c-0.4,0.1-0.7,0.2-1,0.4c-0.3,0.2-1.7,0.6-5.5,1.4c-1.1,0.2-2.2,0.6-3.2,1.1
			c-3.5,2.2-43.1,1.2-61.1-1.5c-3.6-0.5-9-1.2-12-1.5c-2.4-0.2-4.7-0.5-7-1c-2.1-0.5-4.3-0.8-6.5-1c-2.8-0.2-6.5-0.7-8.3-1
			s-4.8-0.7-6.8-1c-3.2-0.4-6.6-0.9-13.8-2c-1.5-0.2-3-0.5-4.5-0.9c-2-0.5-4.1-0.8-6.1-1.1c-2-0.2-4-0.6-6-1
			c-1.4-0.4-6.2-1.3-10.5-2l-6-0.9l-11-1.7c-3.8-0.6-8.1-1.3-9.5-1.6c-1-0.3-2.1-0.4-3.2-0.5c-1.6-0.2-3.2-0.7-4.8-1.3
			c-1.5-0.6-3-1-4.6-1.4c-0.3,0-3-0.5-6.1-1.1s-5.8-1-6-0.7s0,1.5,0.5,2.9c1,2.5,0.4,7.5-0.9,8.3c-0.4,0.3-1.3-3.2-2-7.6
			c-1-6.7-1-8.3,0.1-9c2.5-1.6,5.1-1.2,39.4,5.7c30.3,6.1,82.8,14.2,109.4,16.9c8.5,0.9,22.9,1.7,32,1.8c18.8,0.3,21.5-0.4,33-7.9
			c15.2-10,19.7-14.3,28.2-27.1c5.7-8.6,7.5-10.3,9.2-8.6"/>
	</g>
	<g id="aa881288-bd1a-4474-86c1-71845b48eadc">
		
			<linearGradient id="bcd22cd0-6e37-4404-b5db-a87be944e314_00000172399384675761144570000004074107845497794467_" gradientUnits="userSpaceOnUse" x1="-388.5865" y1="-36.6071" x2="-387.5865" y2="-35.8471" gradientTransform="matrix(231.93 0 0 218.61 92116.7578 8093.8853)">
			<stop  offset="0" style="stop-color:#440000;stop-opacity:0.59"/>
			<stop  offset="1" style="stop-color:#002526"/>
		</linearGradient>
		
			<path id="bcd22cd0-6e37-4404-b5db-a87be944e314" style="fill:url(#bcd22cd0-6e37-4404-b5db-a87be944e314_00000172399384675761144570000004074107845497794467_);" d="
			M2212.6,75.8c-4.9,6.4-10.6,13.5-12.7,15.7c-17.2,18.2-23,24.8-39.3,44.5c-10.1,12.4-18.8,22.9-19.2,23.5s-2.1,2.6-3.6,4.5
			s-6.9,8.9-11.7,15.5c-31,42.1-71.3,82-93.1,92.1c-16.4,7.7-44.4,12.9-44.4,8.3c0-0.5,1-0.9,2.3-0.9c2.2,0,11.9-3,16.2-4.9
			c11-5.1,22.5-11.1,23.5-12.1c1.4-1.1,2.9-2.1,4.5-3c1.6-0.9,3.1-1.9,4.5-3c1.4-1.3,2.9-2.4,4.5-3.5c8.3-6.2,24.7-22.5,36.2-36
			c5.4-6.4,26.9-31.4,41.7-48.4c1.2-1.4,2.8-3.4,3.6-4.7c1.4-2,5.7-7.1,15.6-18.2c2.3-2.6,7.4-8.5,11.3-13.1
			c13.6-16,17.6-20.3,41.9-45.1c19-19.3,24.7-24.6,25.7-23.8S2219.6,66.7,2212.6,75.8"/>
	</g>
	<g id="f005b918-d186-4490-a9ad-0371eaf0cbf4">
		
			<linearGradient id="ab501501-9312-4705-818f-b650c36d6885_00000053524139022389449380000017488552363847980735_" gradientUnits="userSpaceOnUse" x1="-396.9234" y1="-37.3884" x2="-396.2334" y2="-36.3884" gradientTransform="matrix(427.53 0 0 311.28 169835.0469 11689.9062)">
			<stop  offset="0" style="stop-color:#EC5056"/>
			<stop  offset="1" style="stop-color:#A50000"/>
		</linearGradient>
		
			<path id="ab501501-9312-4705-818f-b650c36d6885" style="fill:url(#ab501501-9312-4705-818f-b650c36d6885_00000053524139022389449380000017488552363847980735_);" d="
			M457.6,47c3.2,1.7,10.7,12.4,20,28.4c16.5,28.6,23.6,44.9,26.3,60.6c2.5,14.6,0.6,29.2-4,30.6c-1.8,0.7-3.6,1.5-5.4,2.5
			c-1.6,0.9-3.4,1.6-5.2,1.9c-0.9,0-2.3,1.2-3.1,2.8c-2.2,4.1-4.9,6.9-7.2,7.6c-1.5,0.6-2.8,1.4-4,2.4c-2.8,2.6-13.2,9.2-14.7,9.2
			c-1.2,0.2-2.2,0.8-3.2,1.5c-1,0.8-2.1,1.3-3.3,1.5c-0.8,0-6.4,3.3-12.6,7.3c-12.8,8.4-22.6,14.5-26.6,16.7
			c-3.4,2.2-6.6,4.6-9.7,7.2c-3.8,3.1-10,8.2-13.8,11.3s-7.4,6.1-8.1,6.8s-4.8,4.6-9.2,8.7c-3.5,3.2-6.8,6.6-9.9,10.2
			c-1.1,1.5-6.5,8.2-12,15c-11.7,14.3-20.6,26.2-22.9,30.6c-0.9,1.7-2.2,3.1-3,3.1s-4.1,4.2-7.5,9.2c-8.5,12.9-13,17.2-28.2,27.1
			c-11.4,7.5-14.2,8.1-33,7.9c-9.1-0.1-23.5-0.9-32-1.8c-26.6-2.7-79.1-10.8-109.4-16.9c-23-4.6-33.4-6.5-35.4-6.5
			c-4,0-4.6-13.1-1.1-24.1c2.5-8.1,6.4-12.9,12.6-15.9c4.5-2.1,6.6-2.3,34.8-3c16.5-0.4,31.1-1.1,32.5-1.4l7-1.8
			c2.9-0.8,5.7-1.8,8.4-3.1c3.2-1.6,6.8-2.2,19.5-2.7c14.9-0.7,21.1-1.9,29.6-5.8c11-5.1,22.5-11.1,23.5-12.1c1.4-1.1,2.9-2.1,4.5-3
			c1.6-0.9,3.1-1.9,4.5-3c1.4-1.3,2.9-2.4,4.5-3.5c8.3-6.2,24.7-22.5,36.2-36c5.4-6.4,26.9-31.4,41.7-48.4c1.2-1.4,2.8-3.4,3.6-4.7
			c1.4-2,5.7-7.1,15.6-18.2c2.3-2.6,7.4-8.5,11.3-13.1c14.7-17.3,18.2-21,50-53.2C438,60.3,452.9,46,453.9,46
			C455.2,46,456.4,46.4,457.6,47"/>
		
			<linearGradient id="ad80f7b2-57cd-4aff-8a95-322f6484bb1d_00000011722726045455334760000000644341786865136282_" gradientUnits="userSpaceOnUse" x1="-392.6969" y1="-36.97" x2="-392.6969" y2="-35.97" gradientTransform="matrix(83.07 0 0 245.74 33079.3477 9250.0215)">
			<stop  offset="0" style="stop-color:#9B3434"/>
			<stop  offset="1" style="stop-color:#800000"/>
		</linearGradient>
		
			<path id="ad80f7b2-57cd-4aff-8a95-322f6484bb1d" style="fill:url(#ad80f7b2-57cd-4aff-8a95-322f6484bb1d_00000011722726045455334760000000644341786865136282_);" d="
			M499.6,168.7c0,0.9-3.2,8.9-7.1,17.8c-14.6,32.8-21.8,59.4-25,93.1c-1.5,15.4-1.6,88.1-0.1,111c0.8,12.1,0.7,15.5-0.4,17.7
			c-2.7,5.4-7.6,6.2-11.5,2c-2.5-2.7-2.6-3.1-4.3-31.8c-1.7-28.9-3.5-51.3-5.5-67.5c-0.6-4.7-1.5-13-2-18.5
			c-1-9.9-1.5-12.9-4.3-21.5c-0.8-2.5-2.9-9.5-4.6-15.5c-3.8-13.1-8.8-24.1-14.2-31.2l-4-5.3l6.3-3.9c3.5-2.2,11.6-7.3,18-11.5
			s12.3-7.5,13.1-7.5c1.2-0.2,2.3-0.7,3.3-1.5c0.9-0.7,2-1.3,3.2-1.5c1.4,0,11.9-6.6,14.7-9.2c1.2-1,2.5-1.9,4-2.4
			c2.3-0.7,5-3.6,7.2-7.6c0.8-1.5,2.3-2.8,3.2-2.8c1.7-0.3,3.3-1,4.7-1.9C497.8,166.6,499.6,166.5,499.6,168.7"/>
		
			<linearGradient id="bcff9e4e-cd62-4d43-91b7-528f02bf0dfd_00000087385417292829515760000011263603504589975474_" gradientUnits="userSpaceOnUse" x1="-396.5292" y1="-36.6049" x2="-395.9992" y2="-35.6049" gradientTransform="matrix(339.34 0 0 205.43 134735.25 7734.6074)">
			<stop  offset="0" style="stop-color:#BF4D56"/>
			<stop  offset="1" style="stop-color:#BB192D"/>
		</linearGradient>
		
			<path id="bcff9e4e-cd62-4d43-91b7-528f02bf0dfd" style="fill:url(#bcff9e4e-cd62-4d43-91b7-528f02bf0dfd_00000087385417292829515760000011263603504589975474_);" d="
			M415.6,221.3c0,1.3-7.5,9-19.4,19.8c-12.3,11.2-24.6,23.3-24.6,24.3c0,0.6-1.6,2.3-3.5,3.9s-3.5,3.4-3.5,4.1s-1.1,2.1-2.5,3
			s-2.4,2-2.2,2.5s-0.5,1.7-1.5,2.7c-5,5.5-5.8,6.4-5.8,7.4c0,0.6-0.7,1.3-1.5,1.6c-0.8,0.3-1.4,0.9-1.5,1.8
			c-0.3,1.1-0.9,2.1-1.8,2.8c-4.1,3.9-11,14.5-14.6,22.3c-1.3,2.9-2.8,5.6-4.6,8.2c-1,1.2-1.7,2.7-2,4.3c0,2-17.6,37-24.2,48.1
			c-14.8,24.9-25.6,37.3-37.2,43c-6,3-8.2,3.4-18.5,4.1c-23,1.6-53.4-4.7-92.7-19.4c-30.4-11.4-61.8-24.9-68.7-29.5
			c-3.4-2.3-3.6-2.6-2.5-5.5c1-2.6,0.9-3.2-0.6-4.3c-2.6-1.9-7.6-32.4-5.6-33.6c2.6-1.6,5-1.3,39.4,5.6
			c30.3,6.1,82.8,14.2,109.4,16.9c8.5,0.9,22.9,1.7,32,1.8c18.8,0.3,21.5-0.4,33-7.9c15.2-10,19.7-14.3,28.2-27.1
			c3.4-5.1,6.7-9.2,7.5-9.2s2.1-1.4,3-3.1c2.3-4.5,11.2-16.4,22.9-30.6c5.5-6.8,11-13.5,12-15c3.1-3.6,6.4-7,9.8-10.2
			c4.3-4.1,8.6-8.2,9.5-9s4.9-4.2,8.9-7.5C415.8,218.4,415.6,218.6,415.6,221.3"/>
	</g>
	<g id="f175bc7c-3742-483d-8638-6857b0981b4b">
		
			<linearGradient id="a98ed498-f675-475e-b411-531d4fdd040d_00000070118727965479563680000013160899496878116230_" gradientUnits="userSpaceOnUse" x1="-396.1066" y1="-36.1715" x2="-396.7566" y2="-37.1715" gradientTransform="matrix(372.86 0 0 273 148098.4375 10194.2256)">
			<stop  offset="0" style="stop-color:#FFA8B7;stop-opacity:0.5"/>
			<stop  offset="1" style="stop-color:#FFE9ED;stop-opacity:0.88"/>
		</linearGradient>
		
			<path id="a98ed498-f675-475e-b411-531d4fdd040d" style="fill:url(#a98ed498-f675-475e-b411-531d4fdd040d_00000070118727965479563680000013160899496878116230_);" d="
			M457.7,48.3c0.8,1.8,0.7,3-0.4,5.3c-1.3,2.5-1.3,3.3-0.1,5.5c0.9,1.9,1.6,3.9,2,6c0.3,1.9,1.1,5.2,1.7,7.4
			c1.3,4.7,1.6,5.9,2.2,8.2c0.2,1,0.5,1.9,0.5,2c0.1,0.2,0.1,0.5,0.1,0.8c0.4,1.4,0.9,2.7,1.5,4c0.8,1.9,1.3,3.5,1.1,3.5
			s0.5,2.4,1.6,5.2c2,5.2,3.3,20.1,2,22.2c-0.5,0.9-0.8,2-0.9,3c-0.6,3.7-3.7,5.4-16.2,9c-5.8,1.6-11.4,3.5-17,5.7
			c-2.5,1.1-5.4,2.4-6.5,2.8s-6,2.8-11,5.3c-13.5,6.9-43.6,21.8-47,23.1c-1.6,0.7-4.6,1.9-6.5,2.8s-5.7,2.3-8.4,3.3
			c-4.6,1.6-12.6,8.3-12.6,10.5c0,0.5-0.4,0.9-0.9,1c-0.5,0-1.2,1.1-1.5,2.5s-1.1,2.5-1.6,2.5s-1,0.7-1,1.5s-0.5,1.5-1,1.5
			s-0.9,0.3-0.8,0.8s-2.8,3.7-6.5,7.2s-13,13.2-20.5,21.5c-15.1,16.5-21.7,23-33.7,33c-4.4,3.7-9,7.5-10.3,8.6c-0.9,0.9-2,1.5-3.2,2
			c-0.5,0-0.9,0.3-0.9,0.8c0,0.5-1.2,1.5-2.8,2.2c-1.1,0.6-2.2,1.2-3.2,2c-2.7,1.6-5.4,3-8.2,4.3c-8.1,4-13.4,8.9-14.4,13.4
			c-1.7,7.8-5.8,12.8-13.4,16.1c-17.7,7.8-76,16.8-87.9,13.6c-9-2.9-17.8-6.2-26.4-10c-4.1-2-9.2-9-7.4-10.2
			c0.7-0.5,15.9-1.1,33.8-1.5c32.4-0.6,35.8-1,47.6-4.9c5.3-1.7,17.4-9,17.4-10.5c0-0.8,2.5-1.4,6.8-1.8c7.1-0.8,14.1-2.7,20.7-5.6
			c11-5.2,22.5-11.2,23.5-12.2c1.4-1.1,2.9-2.1,4.5-3c1.6-0.9,3.1-1.9,4.5-3c1.4-1.3,2.9-2.4,4.5-3.5c8.3-6.2,24.7-22.5,36.2-36
			c5.4-6.4,26.9-31.4,41.7-48.4c1.2-1.4,2.8-3.4,3.6-4.7c1.4-2,5.7-7.1,15.6-18.2c2.3-2.6,7.4-8.5,11.3-13.1
			c14.7-17.3,18.2-21,50-53.2C453.3,44.9,455.3,43.2,457.7,48.3"/>
		
			<linearGradient id="adc68ddb-a818-421b-94ea-c0fa07303063_00000047773102578416052060000018094079830826850714_" gradientUnits="userSpaceOnUse" x1="-396.5258" y1="-35.3131" x2="-396.5258" y2="-36.3131" gradientTransform="matrix(407.76 0 0 185.26 161969.8281 6899.7583)">
			<stop  offset="0" style="stop-color:#F7DBFF;stop-opacity:0.26"/>
			<stop  offset="1" style="stop-color:#A6759A;stop-opacity:0.34"/>
		</linearGradient>
		
			<path id="adc68ddb-a818-421b-94ea-c0fa07303063" style="fill:url(#adc68ddb-a818-421b-94ea-c0fa07303063_00000047773102578416052060000018094079830826850714_);" d="
			M486.2,173.6c-1.1,2.9-5.1,7.2-7.1,7.8c-1.5,0.5-2.8,1.3-4,2.4c-2.9,2.7-13.3,9.2-14.7,9.2c-1.2,0.2-2.2,0.8-3.2,1.5
			c-1,0.8-2.1,1.3-3.3,1.5c-0.8,0-6.4,3.3-12.6,7.3c-12.8,8.4-22.6,14.5-26.6,16.7c-3.4,2.2-6.6,4.6-9.7,7.2
			c-3.8,3.1-10,8.2-13.8,11.3s-7.4,6.1-8.1,6.8s-4.8,4.6-9.2,8.7c-3.5,3.2-6.8,6.6-9.9,10.2c-1.1,1.5-6.5,8.2-12,15
			c-11.7,14.3-20.6,26.2-22.9,30.6c-0.9,1.7-2.2,3.1-3,3.1s-4.1,4.2-7.5,9.2c-8.5,12.9-13,17.2-28.2,27.1c-11.4,7.5-14.2,8.1-33,7.9
			c-9.1-0.1-23.5-0.9-32-1.8c-26.6-2.7-79.1-10.8-109.4-16.9c-23.2-4.7-33.3-6.6-35.4-6.6c-1.4,0-2.1-0.6-2.1-1.9
			c0-3.9,14.7-4.2,32.3-0.7c10.6,2.1,28.3,5.4,46.7,8.6c13.4,2.4,35.1,4.5,54.5,5.4c4.4,0.2,10.9,0.7,14.5,1.2
			c3.6,0.4,7.3,0.7,11,0.7l20-0.6c18.1-0.5,22.4-1.6,31.5-8c2.2-1.5,5.6-3.9,7.5-5.2c9.1-6.2,21-22.3,26.5-35.8
			c4.2-10.4,8.4-16.8,19.6-30.2c10.2-12.2,47.6-49.7,57.9-58.2c12.7-10.3,32.9-19.9,61.3-28.9c6.1-2,12.5-4.2,14.2-4.9
			c2.2-0.9,4.5-1.3,6.9-1.4C486.1,172,486.7,172.3,486.2,173.6"/>
		
			<linearGradient id="a6f557b3-ef2c-41ee-8b25-3336d9c27564_00000173123385373865148940000015880325962474771074_" gradientUnits="userSpaceOnUse" x1="-389.4372" y1="-34.0334" x2="-390.4372" y2="-35.3933" gradientTransform="matrix(53.63 0 0 128.27 21374.7207 4682.46)">
			<stop  offset="0" style="stop-color:#C60B25;stop-opacity:0.74"/>
			<stop  offset="1" style="stop-color:#BA5D6E;stop-opacity:0.83"/>
		</linearGradient>
		
			<path id="a6f557b3-ef2c-41ee-8b25-3336d9c27564" style="fill:url(#a6f557b3-ef2c-41ee-8b25-3336d9c27564_00000173123385373865148940000015880325962474771074_);" d="
			M482.5,182.4c0.9,1.1,0.5,3.4-1.8,10.2c-6.4,18.8-12.4,38.7-13.6,44.9c-0.3,1.6-1.5,10.6-2.6,20s-2.2,18.1-2.5,19.5
			s-0.7,3.8-0.9,5.3s-0.6,4-0.9,5.5s-0.8,4.7-1.2,7.2s-0.8,5.2-0.9,6c-0.1,0.8-0.8,1.4-1.6,1.5c-0.8,0-1.9,1.7-2.5,3.9
			c-1.9,6.8-3.2,2.2-5.4-18.4c-3.7-35.4-4.2-39.4-5.7-47c-0.8-4.1-1.9-8-2.4-8.6s-0.6-1.4-0.2-1.8s0.2-0.7-0.3-0.7s-1-1-1.1-2.2
			s-0.6-2.4-1.2-2.6c-0.6-0.3-0.8-1.1-0.5-1.6c0,0,0,0,0,0c0.2-0.8-0.2-1.7-1-1.9c-1-0.6-1.6-1.7-1.6-2.8c0-1.2-1.2-3.5-2.6-5
			l-2.6-2.7l11.5-7.6c6.4-4.2,12.2-7.6,12.9-7.6c1.2-0.2,2.4-0.7,3.3-1.5c0.9-0.7,2-1.3,3.2-1.5c1.2,0,12.3-6.7,13.3-8s5.5-4,6.6-4
			C481.1,181.1,481.9,181.6,482.5,182.4"/>
		
			<linearGradient id="af69e0a9-70d8-4389-af7e-36d324d3d449_00000071521050554514377380000007785726742609590162_" gradientUnits="userSpaceOnUse" x1="-381.7868" y1="-29.6052" x2="-381.7868" y2="-30.6045" gradientTransform="matrix(25.35 0 0 59.31 10107.5195 2027.1472)">
			<stop  offset="0" style="stop-color:#DC8AA5;stop-opacity:0.43"/>
			<stop  offset="1" style="stop-color:#BB8484;stop-opacity:0.55"/>
		</linearGradient>
		
			<path id="af69e0a9-70d8-4389-af7e-36d324d3d449" style="fill:url(#af69e0a9-70d8-4389-af7e-36d324d3d449_00000071521050554514377380000007785726742609590162_);" d="
			M424.8,216.7c2.3,2.7,8.8,15.3,8.8,17.2c0.4,2.6,1.1,5.1,2,7.6c3.9,11.4,7.4,30.1,6,32.3c-1.2,1.9-2.5-0.7-3.9-7.5
			c-3.3-15.7-10.3-32.8-17.2-42.1l-3.8-5.2l2.7-2C422.6,214.6,422.8,214.6,424.8,216.7"/>
		
			<linearGradient id="f08fecf3-3d81-472f-807f-91dd776e5494_00000040576461036667561780000002196390018271671217_" gradientUnits="userSpaceOnUse" x1="-396.3069" y1="-36.5755" x2="-396.3069" y2="-35.5754" gradientTransform="matrix(333.47 0 0 205.43 132405.3125 7735.3574)">
			<stop  offset="0" style="stop-color:#370000;stop-opacity:0.73"/>
			<stop  offset="1" style="stop-color:#14683C;stop-opacity:0.49"/>
		</linearGradient>
		
			<path id="f08fecf3-3d81-472f-807f-91dd776e5494" style="fill:url(#f08fecf3-3d81-472f-807f-91dd776e5494_00000040576461036667561780000002196390018271671217_);" d="
			M415.6,221.3c0,1.3-7.5,9-19.4,19.8c-12.3,11.2-24.6,23.3-24.6,24.3c0,0.6-1.6,2.3-3.5,3.9s-3.5,3.4-3.5,4.1s-1.1,2.1-2.5,3
			s-2.4,2-2.2,2.5s-0.5,1.7-1.5,2.7c-5,5.5-5.8,6.4-5.8,7.4c0,0.6-0.7,1.3-1.5,1.6c-0.8,0.3-1.4,0.9-1.5,1.8
			c-0.3,1.1-0.9,2.1-1.8,2.8c-4.1,3.9-11,14.5-14.6,22.3c-1.3,2.9-2.8,5.6-4.6,8.2c-1,1.2-1.7,2.7-2,4.3c0,2-17.6,37-24.2,48.1
			c-14.8,24.9-25.6,37.3-37.2,43c-6,3-8.2,3.4-18.5,4.1c-23.6,1.6-54.6-5-95.9-20.6c-30.8-11.6-62-25.3-67.1-29.3
			c-2-1.6-2.1-2-0.9-3.8c1.4-1.9,1.5-1.9,5.3,0.6c7.3,4.7,37.8,18.6,42.9,19.4c2.5,0.7,4.9,1.7,7.2,2.9c1.9,1,3.8,1.8,5.8,2.6
			c0.8,0,25.6,8.9,28,10c4.1,1.9,21.8,7,29.8,8.4c4.5,0.8,10.5,2,13.2,2.5s12.1,1.4,20.9,1.9c17.1,1,21.5,0.4,29.4-4.1
			c4.2-2.4,15.4-13.4,17.3-17c1.2-2.1,2.6-4,4-5.9c1.5-2,2.5-3.9,2.2-4.2s-0.2-0.6,0.4-0.6s2.1-1.7,3.3-3.8
			c1.8-3,12.1-20.9,17.2-29.8c3.7-6.5,8-15.9,8.2-18.1c0.2-1.5,0.8-3,1.8-4.2c0.8-1,2.1-4,2.8-6.7c0.8-2.9,2-5.6,3.6-8.1
			c1.3-1.7,2.1-3.3,1.8-3.6c-1.5-1.5,7.3-14.1,24-34.5c5.5-6.8,11-13.5,12-15c3.1-3.6,6.4-7,9.9-10.2c4.3-4.1,8.6-8.2,9.5-9
			s4.9-4.2,8.9-7.5C415.8,218.4,415.6,218.6,415.6,221.3"/>
		
			<linearGradient id="f1387ac1-97c5-4546-986f-32e7255192cd_00000080179010798333661760000016307890438862211766_" gradientUnits="userSpaceOnUse" x1="-397.8396" y1="-29.0011" x2="-393.9696" y2="-28.0011" gradientTransform="matrix(252.09 0 0 49.57 100009.7109 1746.4584)">
			<stop  offset="0" style="stop-color:#FF0000;stop-opacity:0.34"/>
			<stop  offset="1" style="stop-color:#001421"/>
		</linearGradient>
		
			<path id="f1387ac1-97c5-4546-986f-32e7255192cd" style="fill:url(#f1387ac1-97c5-4546-986f-32e7255192cd_00000080179010798333661760000016307890438862211766_);" d="
			M327.9,313.6c0.4,0.4-0.4,2-1.7,3.8c-1.6,2.5-2.9,5.2-3.7,8.1c-1.6,6.1-2.6,7.4-11.5,15.4c-8.4,7.6-17.9,14.2-20.9,14.5
			c-1.6,0.3-3.2,0.8-4.7,1.6c-1,0.6-2.1,1.1-3.2,1.5c-0.4,0.1-0.7,0.2-1,0.4c-0.3,0.2-1.7,0.6-5.5,1.4c-1.1,0.2-2.2,0.6-3.2,1.1
			c-3.5,2.2-43.1,1.2-61.1-1.5c-3.6-0.5-9-1.2-12-1.5c-2.4-0.2-4.7-0.5-7-1c-2.1-0.5-4.3-0.8-6.5-1c-2.8-0.2-6.5-0.7-8.3-1
			s-4.8-0.7-6.8-1c-3.2-0.4-6.6-0.9-13.8-2c-1.5-0.2-3-0.5-4.5-0.9c-2-0.5-4.1-0.8-6.1-1.1c-2-0.2-4-0.6-6-1
			c-1.4-0.4-6.2-1.3-10.5-2l-6-0.9l-11-1.7c-3.8-0.6-8.1-1.3-9.5-1.6c-1-0.3-2.1-0.4-3.2-0.5c-1.6-0.2-3.2-0.7-4.8-1.3
			c-1.5-0.6-3-1-4.6-1.4c-0.3,0-3-0.5-6.1-1.1s-5.8-1-6-0.7s0,1.5,0.5,2.9c1,2.5,0.4,7.5-0.9,8.3c-0.4,0.3-1.3-3.2-1.9-7.6
			c-1-6.7-1-8.3,0.1-9c2.5-1.6,5.1-1.2,39.4,5.7c30.3,6.1,82.8,14.2,109.4,16.9c8.5,0.9,22.9,1.7,32,1.8c18.8,0.3,21.5-0.4,33-7.9
			c15.2-10,19.7-14.3,28.2-27.1c5.7-8.6,7.5-10.3,9.2-8.6"/>
	</g>
	<g id="e2e4859f-254b-4af9-800d-d097b0f8cf14">
		
			<linearGradient id="bece999e-d7ad-49aa-a4bc-64951dcb72de_00000107574126357352516650000005003939668547627161_" gradientUnits="userSpaceOnUse" x1="-396.2757" y1="-36.6082" x2="-395.2757" y2="-35.8483" gradientTransform="matrix(231.93 0 0 218.61 92116.7578 8093.8853)">
			<stop  offset="0" style="stop-color:#440000;stop-opacity:0.59"/>
			<stop  offset="1" style="stop-color:#002526"/>
		</linearGradient>
		
			<path id="bece999e-d7ad-49aa-a4bc-64951dcb72de" style="fill:url(#bece999e-d7ad-49aa-a4bc-64951dcb72de_00000107574126357352516650000005003939668547627161_);" d="
			M429.6,75.8c-4.9,6.4-10.6,13.5-12.7,15.7c-17.2,18.2-23,24.8-39.3,44.5c-10.1,12.4-18.8,22.9-19.2,23.5s-2.1,2.6-3.6,4.5
			s-6.9,8.9-11.7,15.5c-31,42.1-71.3,82-93.1,92.1c-16.4,7.7-44.4,12.9-44.4,8.3c0-0.5,1.1-0.9,2.3-0.9c2.2,0,11.9-3,16.2-4.9
			c11-5.1,22.5-11.1,23.5-12.1c1.4-1.1,2.9-2.1,4.5-3c1.6-0.9,3.1-1.9,4.5-3c1.4-1.3,2.9-2.4,4.5-3.5c8.3-6.2,24.7-22.5,36.2-36
			c5.4-6.4,26.9-31.4,41.7-48.4c1.2-1.4,2.8-3.4,3.6-4.7c1.4-2,5.7-7.1,15.6-18.2c2.3-2.6,7.4-8.5,11.3-13.1
			c13.6-16,17.6-20.3,42-45.1c19-19.3,24.7-24.6,25.7-23.8S436.7,66.7,429.6,75.8"/>
	</g>
</g>
</svg>
