<?xml version="1.0" encoding="utf-8"?>
<!-- Generator: Adobe Illustrator 26.5.0, SVG Export Plug-In . SVG Version: 6.00 Build 0)  -->
<svg version="1.1" id="图层_1" xmlns="http://www.w3.org/2000/svg" xmlns:xlink="http://www.w3.org/1999/xlink" x="0px" y="0px"
	 viewBox="0 0 761.6 380" style="enable-background:new 0 0 761.6 380;" xml:space="preserve">
<style type="text/css">
	.st0{fill:none;}
	.st1{fill:#D3D3D3;}
	.st2{fill:url(#SVGID_00000000205955830391906520000000953973886805559447_);}
	.st3{fill:url(#SVGID_00000167387181726262635090000004826769110869888908_);}
	.st4{fill:url(#SVGID_00000011024652430910167130000007339068207257055146_);}
	.st5{fill:url(#SVGID_00000137104435868469619520000013003699550140820884_);}
	.st6{fill:url(#SVGID_00000182489275282571861900000016279307428116484256_);}
	.st7{fill:url(#SVGID_00000101795541679244897000000015960078629969015194_);}
	.st8{fill:url(#SVGID_00000032613454251731854540000013547040135654116015_);}
	.st9{fill:url(#SVGID_00000140731123995171676920000015128860057442555561_);}
	.st10{fill:url(#SVGID_00000142177188520260195830000010164286571991722396_);}
	.st11{fill:url(#SVGID_00000024721048757101229280000013129361626337869989_);}
	.st12{fill:url(#SVGID_00000085252028936638724600000013031921383775560604_);}
	.st13{fill:url(#SVGID_00000082360666178303142790000002030424903669407387_);}
	.st14{fill:url(#SVGID_00000163781478276078831110000012460619298436290969_);}
	.st15{fill:url(#SVGID_00000011718988410652237190000016837576015990459325_);}
	.st16{fill:url(#SVGID_00000164508009558347354420000003961779783137764529_);}
	.st17{fill:url(#SVGID_00000086660874478110577480000000606104017630220722_);}
	.st18{fill:url(#SVGID_00000021810762499813368990000000211362366201642134_);}
	.st19{fill:url(#SVGID_00000170266793692813235680000014297665961623688846_);}
	.st20{fill:url(#SVGID_00000074416599061389855590000009092777657890588339_);}
	.st21{fill:url(#SVGID_00000018926698943598707670000009674626950127742356_);}
	.st22{fill:url(#SVGID_00000058579713116124028010000012344590882786422441_);}
	.st23{fill:url(#SVGID_00000003824220804867183820000003466857972169168290_);}
	.st24{fill:url(#SVGID_00000154411908069784982100000015884951364218550416_);}
	.st25{fill:url(#SVGID_00000014632290751636995270000012840898837334729369_);}
	.st26{fill:url(#SVGID_00000134208114050594991590000001736774280255697307_);}
	.st27{fill:url(#SVGID_00000003822295633652879890000005643394640344522913_);}
	.st28{fill:url(#SVGID_00000139260269291586029400000003789194089643813033_);}
	.st29{fill:url(#SVGID_00000119838869397619186690000001372998502146693787_);}
	.st30{fill:url(#SVGID_00000010294590008045604040000001465681335479474312_);}
	
		.st31{fill:url(#SVGID_00000124136394295159275050000006913531792482625201_);stroke:#000000;stroke-width:0.1;stroke-miterlimit:1;}
	.st32{fill:url(#SVGID_00000147910783998278861930000010875710810883752090_);}
	.st33{fill:url(#SVGID_00000162348468462038632800000017750395797973873048_);}
	.st34{fill:url(#SVGID_00000080899742917210537670000006282700775858459069_);}
	.st35{fill:none;stroke:#3FA9F5;stroke-width:4;stroke-linecap:round;stroke-miterlimit:10;}
	.st36{fill:#3FA9F5;}
	.st37{fill:none;stroke:#FF0000;stroke-width:3;stroke-miterlimit:10;}
</style>
<pattern  x="-24.4" y="542.5" width="40" height="40" patternUnits="userSpaceOnUse" id="SVGID_1_" viewBox="0 -40 40 40" style="overflow:visible;">
	<g>
		<rect y="-40" class="st0" width="40" height="40"/>
		<g>
			<rect y="-40" class="st0" width="40" height="40"/>
			<rect y="-40" class="st0" width="40" height="40"/>
			<rect y="-20" class="st1" width="20" height="20"/>
			<rect x="20" y="-40" class="st1" width="20" height="20"/>
		</g>
	</g>
</pattern>
<pattern  id="SVGID_00000072275916444067388850000005091075841552888986_" xlink:href="#SVGID_1_" patternTransform="matrix(1 0 0 -1 29 -16448.0098)">
</pattern>
<rect x="0.8" style="fill:url(#SVGID_00000072275916444067388850000005091075841552888986_);" width="760" height="380"/>
<g transform="translate(0.000000,568.000000) scale(0.100000,-0.100000)">
	<g>
		
			<linearGradient id="SVGID_00000076586724838654994970000011548944595990538881_" gradientUnits="userSpaceOnUse" x1="-5524.0049" y1="-24591.9023" x2="-5523.4321" y2="-24591.9023" gradientTransform="matrix(42.2388 0 0 11.3 237032.7344 280311.5)">
			<stop  offset="0" style="stop-color:#5A5B58"/>
			<stop  offset="1" style="stop-color:#5A5B58"/>
		</linearGradient>
		<path style="fill:url(#SVGID_00000076586724838654994970000011548944595990538881_);" d="M6088,2672c-2.9-71-4-76.1-22.3-113.9
			c-25.8-51.5-95.6-125.3-156.8-166c-196.9-130.5-473.9-197.4-890.5-215.8c-387.4-17.2-729.1,35.5-950,145.9
			c-182.6,91-306.8,224.9-334.2,358.8l-7.4,36.6l-10.3-31.5c-14.3-41.2-14.3-112.7-0.6-152.8c60.7-178,349.1-334.2,741.7-401.8
			c162-27.5,221.5-32.1,455-32.1c235.2,0,287.3,3.4,446.4,29.2c230.6,37.8,441.8,110.4,579.2,199.7
			c72.1,46.9,139.1,115.6,164.8,168.8c19.5,41.8,20,44.6,20,111.6c0,63.5-1.1,71-16.6,103l-16,34.3L6088,2672z"/>
	</g>
</g>
<g transform="translate(0.000000,568.000000) scale(0.100000,-0.100000)">
	<g>
		
			<linearGradient id="SVGID_00000034081005913528024470000003944342758632732319_" gradientUnits="userSpaceOnUse" x1="-4502.1445" y1="-25757.1387" x2="-4501.5718" y2="-25757.1387" gradientTransform="matrix(6.25 0 0 2.397 33391.3984 65674.6953)">
			<stop  offset="0" style="stop-color:#A7A39E"/>
			<stop  offset="1" style="stop-color:#A7A39E"/>
		</linearGradient>
		<path style="fill:url(#SVGID_00000034081005913528024470000003944342758632732319_);" d="M5253,3999.1c0-2.9,10.9-11.4,24-18.9
			c32.6-18.9,69.2-53.8,90.4-87c10.3-15.4,22.3-28,28-28c18.3,0.6,107,22.3,140.2,34.3c18.9,7.4,42.9,21.2,54.4,32.1l20.6,18.3
			l-13.7,14.9c-7.4,8-15.5,13.7-17.2,12c-2.3-1.1-32,2.9-66.4,9.2C5444.7,3998,5253,4007.7,5253,3999.1z"/>
	</g>
</g>
<g transform="translate(0.000000,568.000000) scale(0.100000,-0.100000)">
	<g>
		
			<linearGradient id="SVGID_00000101075231764770554650000001272660754528479117_" gradientUnits="userSpaceOnUse" x1="-5424.4282" y1="-24539.582" x2="-5423.856" y2="-24539.582" gradientTransform="matrix(27.5836 0 0 27.4997 153765.6719 679379.75)">
			<stop  offset="0" style="stop-color:#B3BCBA"/>
			<stop  offset="1" style="stop-color:#B3BCBA"/>
		</linearGradient>
		<path style="fill:url(#SVGID_00000101075231764770554650000001272660754528479117_);" d="M4819.2,5324
			c-100.7-21.2-199.2-65.2-289.6-129.9c-91.6-65.2-209.5-196.9-250.7-280.4c-16.6-33.8-17.7-38.3-14.3-84.7
			c2.9-46.4,1.7-52.1-14.3-87.6c-25.8-57.2-58.4-156.2-75-226.6c-28.6-120.8-34.9-183.7-34.9-334.8c-0.6-159.7,6.3-212.3,41.2-317.6
			c25.8-79.6,43.5-100.1,84.7-100.1c72.1,0,116.2,70.4,82.4,132.8c-14.9,28-36.6,96.1-32,100.7c2.3,1.7,8.6,0.6,13.7-3.4
			c5.1-3.4,29.2-17.2,53.2-29.2c189.4-98.4,519.1-137.9,906.5-108.2c44.1,2.9,83.6,7.4,87,9.7c17.2,9.2-52.1,88.1-100.7,116.2
			c-13.2,7.4-23.5,15.4-23.5,18.3c0,8.6,191.7-1.1,260.4-13.2c34.3-6.3,64.1-10.3,66.4-8.6c2.3,1.1,13.2-8,24.6-20.6
			c24-26.9,22.3-28.6,48.1,51.5c68.7,211.2,84.7,421.2,45.8,600.9c-6.3,29.8-22.9,86.4-37.2,125.9c-13.7,39.5-25.2,75.5-24.6,80.1
			c5.7,49.8-12,97.3-64.1,174.5c-119,175.1-295.3,299.3-480.7,337.1C5027.5,5340,4888.4,5338.9,4819.2,5324z"/>
	</g>
</g>
<g transform="translate(0.000000,568.000000) scale(0.100000,-0.100000)">
	<g>
		
			<linearGradient id="SVGID_00000069387640997927328240000007065282553702022074_" gradientUnits="userSpaceOnUse" x1="-5184.4458" y1="-25495.3906" x2="-5183.8735" y2="-25495.3906" gradientTransform="matrix(14.9204 0 0 3.0961 81941.7734 83050.5469)">
			<stop  offset="0" style="stop-color:#A7A39E"/>
			<stop  offset="1" style="stop-color:#A7A39E"/>
		</linearGradient>
		<path style="fill:url(#SVGID_00000069387640997927328240000007065282553702022074_);" d="M4683.6,4188.6
			c-28-7.4-61.2-17.2-73.8-21.2l-21.8-8l21.8-19.5c57.8-50.4,137.9-88.7,223.2-105.9c71-14.3,183.7-9.7,255.2,9.7
			c89.3,24.6,177.4,34.9,275.9,31.5c53.8-1.7,82.4-0.6,77.3,2.9c-33.8,22.9-152.8,73.8-216.9,93.3c-13.7,4.6-13.7,4-4-10.3
			c9.2-14.3,9.2-14.9-9.2-20.6c-77.8-24.6-264.4-34.9-347.4-18.9c-45.8,9.2-103.6,27.5-117.3,37.8c-10.3,7.4-9.7,8.6,2.3,25.8
			l12.6,17.7h-13.2C4740.8,4202.3,4712.2,4196,4683.6,4188.6z"/>
	</g>
</g>
<g transform="translate(0.000000,568.000000) scale(0.100000,-0.100000)">
	<g>
		
			<linearGradient id="SVGID_00000139988441882841894450000015689209248450581902_" gradientUnits="userSpaceOnUse" x1="-5168.8906" y1="-24633.6758" x2="-5168.3184" y2="-24633.6758" gradientTransform="matrix(16.1814 0 0 12.6527 86964.6172 315150.8125)">
			<stop  offset="0" style="stop-color:#B3BCBA"/>
			<stop  offset="1" style="stop-color:#B3BCBA"/>
		</linearGradient>
		<path style="fill:url(#SVGID_00000139988441882841894450000015689209248450581902_);" d="M3486.9,3819.4
			c-52.6-26.3-105.9-88.1-140.8-164.2c-16-34.3-18.3-45.8-20.6-101.9c-2.3-57.8-1.1-64.1,10.3-78.4c6.3-8.6,21.2-20,32.1-25.2
			c11.4-5.7,26.9-20,34.3-32.1c18.3-28.6,54.9-51.5,112.7-71c25.2-8.6,123.6-52.6,218.1-97.9c143.1-69.2,175.7-87,191.1-105.3
			c22.9-26.3,64.1-41.2,100.7-36.1c109.3,16.6,215.2,165.4,224.9,314.2c4,65.8-6.3,107-34.9,135.1c-30.3,29.2-79.5,42.3-106.4,28
			c-8.6-4.6-54.4,16-238.6,108.7c-202,101.3-231.8,114.5-255.8,114.5c-18.9,0-32.1,3.4-41.8,11.4
			C3553.3,3834.3,3517.2,3834.3,3486.9,3819.4z"/>
	</g>
</g>
<g transform="translate(0.000000,568.000000) scale(0.100000,-0.100000)">
	<g>
		
			<linearGradient id="SVGID_00000004535507863341609630000004323325417431286951_" gradientUnits="userSpaceOnUse" x1="-5518.8418" y1="-24486.7988" x2="-5518.2695" y2="-24486.7988" gradientTransform="matrix(41.1232 0 0 31.8664 230686.7344 783389.9375)">
			<stop  offset="0" style="stop-color:#228F92"/>
			<stop  offset="1" style="stop-color:#228F92"/>
		</linearGradient>
		<path style="fill:url(#SVGID_00000004535507863341609630000004323325417431286951_);" d="M4314.4,3992.3c0-10.3,24-77.8,34.9-97.9
			c32.6-61.2-11.5-132.2-82.4-132.2c-35.5,0-56.1,17.7-72.7,64.1c-7.4,20-13.7,36.6-14.9,37.8c-6.9,9.7-179.7-213.5-179.7-232.3
			c0-9.2,100.7-52.1,109.3-46.4c10.9,6.9,44.6,5.7,67-2.9c89.9-32.1,101.3-180.9,25.2-326.8c-40.1-75.5-115-139.1-176.3-148.2
			c-36.1-5.2-79,9.7-97.9,34.9c-10.9,13.7-30.9,27.5-63.5,42.4c-26.3,12.6-49.8,21.2-52.6,19.5c-6.3-4-37.2-133.4-50.9-214.6
			c-15.4-92.1-23.5-168.8-25.2-251.8c-1.1-66.4,0-74.4,13.7-107.6c26.9-62.9,52.6-99.6,111-159.1c64.1-64.7,119.6-104.2,208.9-148.8
			c220.9-110.4,562.6-163.1,950-145.9c416.6,18.3,693.6,85.3,890.5,215.8c61.2,40.6,131.1,114.5,156.8,166
			c18.3,37.2,19.5,43.5,21.8,111.6c6.3,198.6-59,524.8-150.5,749.7c-67,164.2-170.5,338.2-285.6,481.3l-40.1,49.8l-21.2-19.5
			c-52.1-46.9-180.9-72.7-416.1-83c-268.4-12-524.2,14.9-689,72.1c-60.1,21.2-144.2,60.7-150.5,71
			C4330.4,3998,4314.4,3999.1,4314.4,3992.3z"/>
	</g>
</g>
<g transform="translate(0.000000,568.000000) scale(0.100000,-0.100000)">
	<g>
		
			<linearGradient id="SVGID_00000098901646978187595890000009808434271350043324_" gradientUnits="userSpaceOnUse" x1="-3403.24" y1="-25011.3965" x2="-3402.6677" y2="-25011.3965" gradientTransform="matrix(3.3906 0 0 4.4746 16518.0996 115145.0625)">
			<stop  offset="0" style="stop-color:#4AA3A6"/>
			<stop  offset="1" style="stop-color:#4AA3A6"/>
		</linearGradient>
		<path style="fill:url(#SVGID_00000098901646978187595890000009808434271350043324_);" d="M5010.9,3337c-59-59.5-32-194,45.8-228.4
			c45.2-20,83.6-5.7,105.3,39.5c17.7,37.2,13.7,101.3-9.7,144.8c-23.5,42.9-52.6,62.9-91.6,62.9
			C5033.8,3355.9,5028.1,3353.6,5010.9,3337z"/>
	</g>
</g>
<g transform="translate(0.000000,568.000000) scale(0.100000,-0.100000)">
	<g>
		
			<linearGradient id="SVGID_00000132794625797185624620000007565191069555420589_" gradientUnits="userSpaceOnUse" x1="-3873.3833" y1="-25164.4316" x2="-3873.4805" y2="-25163.8535" gradientTransform="matrix(4.3722 0 0 4.8854 21945.0469 127169.6953)">
			<stop  offset="0" style="stop-color:#333431"/>
			<stop  offset="1" style="stop-color:#C8C8C7"/>
		</linearGradient>
		<path style="fill:url(#SVGID_00000132794625797185624620000007565191069555420589_);" d="M4926.2,4498.8
			c-15.5-8-32.6-24-44.6-41.8c-18.9-27.5-18.9-28.6-16.6-82.4c1.7-47.5,4-58.4,17.7-81.8c22.9-38.3,53.8-57.2,98.4-60.1
			c61.2-4,108.2,30.9,126.5,93.9c12,41.8,8,74.4-16.6,122.5c-24,48.1-47.5,62.9-101.9,62.9
			C4960.6,4511.9,4945.1,4508.5,4926.2,4498.8z"/>
	</g>
</g>
<g transform="translate(0.000000,568.000000) scale(0.100000,-0.100000)">
	<g>
		
			<linearGradient id="SVGID_00000010293087110683184290000002739617589414581396_" gradientUnits="userSpaceOnUse" x1="-3415.165" y1="-25727.7598" x2="-3414.5925" y2="-25727.7598" gradientTransform="matrix(3.443 0 0 2.7295 16629.0137 74651.3828)">
			<stop  offset="0" style="stop-color:#84817D"/>
			<stop  offset="1" style="stop-color:#84817D"/>
		</linearGradient>
		<path style="fill:url(#SVGID_00000010293087110683184290000002739617589414581396_);" d="M4931.9,4493
			c-35.5-18.3-63.5-61.2-61.2-92.1c1.7-20.6,4.6-24.6,26.3-37.2c27.5-14.9,75.5-18.3,89.9-6.3c4.6,4,8.6,13.2,8.6,20.6
			c0,14.3,17.2,54.4,30.9,72.7c5.1,6.9,13.7,9.7,24,8.6c25.8-2.9,21.8,17.7-6.3,33.8C5012.6,4510.8,4966.3,4510.8,4931.9,4493z"/>
	</g>
	<g>
		
			<linearGradient id="SVGID_00000025432329064448507480000003960950230709041033_" gradientUnits="userSpaceOnUse" x1="-1456.5425" y1="-25502.5957" x2="-1455.9702" y2="-25502.5957" gradientTransform="matrix(1.8453 0 0 3.239 7678.645 86955.7266)">
			<stop  offset="0" style="stop-color:#84817D"/>
			<stop  offset="1" style="stop-color:#84817D"/>
		</linearGradient>
		<path style="fill:url(#SVGID_00000025432329064448507480000003960950230709041033_);" d="M5060.7,4436.4
			c-7.4-23.5-32-56.1-52.1-68.1c-19.5-12-19.5-12.6-16-41.8c9.2-67,26.3-80.7,62.4-49.2c44.1,38.9,56.1,131.1,21.2,162.5
			C5065.9,4449.5,5064.7,4449,5060.7,4436.4z"/>
	</g>
</g>
<g transform="translate(0.000000,568.000000) scale(0.100000,-0.100000)">
	<g>
		
			<linearGradient id="SVGID_00000155121482420747985890000003440254882444508351_" gradientUnits="userSpaceOnUse" x1="-3063.7041" y1="-24622.918" x2="-3063.1318" y2="-24622.918" gradientTransform="matrix(3.1864 0 0 16.0456 13930.3193 399365.9688)">
			<stop  offset="0" style="stop-color:#A7A39E"/>
			<stop  offset="1" style="stop-color:#A7A39E"/>
		</linearGradient>
		<path style="fill:url(#SVGID_00000155121482420747985890000003440254882444508351_);" d="M4287,4639.5
			c-61.2-166.5-72.7-231.8-72.7-410.9c0-69.2,1.7-142.5,4-163.1l3.4-37.2l-8,25.8c-4.6,14.3-10.9,71-14.3,125.9
			c-3.4,54.9-7.4,103.6-8.6,108.2c-5.7,18.9-13.2-5.7-19.5-64.7c-8.6-77.3-0.6-167.1,22.9-258.7c16-60.7,42.4-136.8,52.1-147.7
			c2.3-2.9,6.3,13.7,8.6,36.1c2.3,22.9,8.6,50.9,14.3,62.4c13.7,26.3,13.7,54.4-0.6,152.8c-6.9,44.1-13.2,125.3-15.5,180.3
			c-5.1,153.9,12,247.2,73.2,400.6c26.3,66.4,28,72.1,18.9,78.4c-5.7,4-13.2,7.4-16.6,7.4C4324.7,4735.1,4305.8,4692.2,4287,4639.5z
			"/>
	</g>
</g>
<g transform="translate(0.000000,568.000000) scale(0.100000,-0.100000)">
	<g>
		
			<linearGradient id="SVGID_00000076590228585576115720000007555872633744694950_" gradientUnits="userSpaceOnUse" x1="-5354.2432" y1="-24596.4824" x2="-5353.6709" y2="-24596.4824" gradientTransform="matrix(22.1695 0 0 19.3426 122999.1641 480312.1875)">
			<stop  offset="0" style="stop-color:#F2FFFC"/>
			<stop  offset="1" style="stop-color:#F2FFFC"/>
		</linearGradient>
		<path style="fill:url(#SVGID_00000076590228585576115720000007555872633744694950_);" d="M4944,5098.5
			c-148.8-29.8-316.5-152.2-421.2-308.5c-24-35.5-61.2-72.1-74.4-72.1c-12.6,0-83-164.8-111.6-260.4
			c-25.2-84.1-34.3-143.6-37.8-246.1c-3.4-89.3,5.1-205.5,15.5-211.7c2.3-1.7,14.3,6.3,26.3,17.7c80.7,74.4,259.8,158.5,383.4,180.3
			c30.3,5.1,43.5,10.9,58.4,24.6c9.7,9.2,18.3,20,18.3,23.5c0,10.3,29.8,24,61.2,28.6l29.2,4l-12,20.6c-9.7,16-12.6,32.6-14.3,75.5
			c-2.3,53.8-2.3,54.9,16.6,82.4c26.3,38.9,57.8,54.9,107.6,54.9c55.5,0,77.8-14.3,103.6-65.8c26.3-52.1,28-98.4,5.1-144.2
			l-14.3-29.8l20.6-3.4c27.5-4.6,56.1-22.3,62.4-38.9c12.6-31.5,42.4-53.8,97.9-72.7c64.7-21.8,141.4-57.2,200.3-93.3l42.9-26.3
			l9.7,44.1c18.9,83.6,44.6,250.1,48.6,307.3c5.7,94.4-15.5,209.5-58.4,315.9c-18.9,48.1-21.2,50.9-45.2,60.7
			c-27.5,11.4-33.2,18.9-89.3,113.3c-61.2,104.7-116.2,160.8-192.3,196.9C5117.4,5106,5024.6,5114.6,4944,5098.5z"/>
	</g>
</g>
<g transform="translate(0.000000,568.000000) scale(0.100000,-0.100000)">
	<g>
		
			<linearGradient id="SVGID_00000029749614365577704880000008780139009975983788_" gradientUnits="userSpaceOnUse" x1="-5383.0615" y1="-24778.9277" x2="-5382.4888" y2="-24778.9277" gradientTransform="matrix(24.0673 0 0 10.8497 133818.7969 273869)">
			<stop  offset="0" style="stop-color:#000000;stop-opacity:0.3455"/>
			<stop  offset="1" style="stop-color:#000000;stop-opacity:0.3455"/>
		</linearGradient>
		<path style="fill:url(#SVGID_00000029749614365577704880000008780139009975983788_);" d="M4819.2,5324
			c-183.7-38.3-357.1-154.5-483.6-322.8c-56.1-74.4-72.7-110.5-72.7-155.7c0-61.2,16.6-85.9,77.3-114.5c26.9-12.6,42.9-16,72.7-16
			c33.8,0,40.1,1.7,60.1,17.7c12,9.7,34.3,35.5,49.2,57.2c135.6,196.3,330.8,317.6,509.4,317.1c81.3-0.6,150.5-23.5,215.2-72.1
			c43.5-32.6,82.4-80.1,126.5-156.2c54.9-92.7,58.4-97.9,81.3-109.9c53.2-27.5,149.9-1.7,179.1,48.1c12.6,21.2,8,45.8-18.3,98.4
			c-101.9,203.7-310.8,368-523.7,411.5C5027.5,5340,4888.4,5338.9,4819.2,5324z"/>
	</g>
</g>
<g transform="translate(0.000000,568.000000) scale(0.100000,-0.100000)">
	<g>
		
			<linearGradient id="SVGID_00000109725868527948649500000017846651511656123273_" gradientUnits="userSpaceOnUse" x1="-5355.3516" y1="-25402.0195" x2="-5354.7793" y2="-25402.0195" gradientTransform="matrix(22.1669 0 0 3.2242 123043.9375 85799.9766)">
			<stop  offset="0" style="stop-color:#FF5F51;stop-opacity:0.233"/>
			<stop  offset="1" style="stop-color:#FF5F51;stop-opacity:0.233"/>
		</linearGradient>
		<path style="fill:url(#SVGID_00000109725868527948649500000017846651511656123273_);" d="M4353.9,3968.8
			c36.6-35.5,121.9-79,197.4-100.7c131.6-37.8,258.7-54.4,445.8-58.4l141.9-3.4l-3.4,14.3l-3.4,14.3l90.4,3.4
			c104.2,4,159.7,10.9,231.8,29.2c41.2,10.3,51.5,11.4,54.9,5.1c8-13.7,72.7,28.6,88.1,58.4c5.7,10.3,5.1,10.3-7.4-1.1
			c-49.2-44.6-186-72.1-416.1-81.8c-268.4-12-524.2,14.9-689,72.1c-57.8,20-128.8,53.2-150.5,69.2
			C4328.2,3994.6,4336.7,3984.8,4353.9,3968.8z"/>
	</g>
</g>
<g transform="translate(0.000000,568.000000) scale(0.100000,-0.100000)">
	<g>
		
			<linearGradient id="SVGID_00000057832018340386487520000014789756803767134142_" gradientUnits="userSpaceOnUse" x1="-5190.3115" y1="-25270.0859" x2="-5189.7393" y2="-25270.0859" gradientTransform="matrix(14.891 0 0 3.775 82015.2109 99362.7734)">
			<stop  offset="0" style="stop-color:#000000;stop-opacity:0.2334"/>
			<stop  offset="1" style="stop-color:#000000;stop-opacity:0.2334"/>
		</linearGradient>
		<path style="fill:url(#SVGID_00000057832018340386487520000014789756803767134142_);" d="M5202.1,4068.4
			c-109.3-16.6-223.8-52.1-325.6-100.2c-65.2-30.9-149.9-80.1-149.9-86.4c0-5.7,18.3-9.2,87.6-16.6l56.1-6.3l26.9,17.2
			c82.4,52.6,209.5,99.6,321.6,118.5c85.3,13.7,253,5.1,348-18.9c22.9-5.7,13.2,6.9-28.6,38.3c-78.4,58.4-79,58.9-187.1,60.7
			C5288.5,4075.8,5237.5,4073.5,5202.1,4068.4z"/>
	</g>
</g>
<g transform="translate(0.000000,568.000000) scale(0.100000,-0.100000)">
	<g>
		
			<linearGradient id="SVGID_00000100340386416107552530000000615602330533256634_" gradientUnits="userSpaceOnUse" x1="-3897.9016" y1="-25118.207" x2="-3897.5925" y2="-25118.5859" gradientTransform="matrix(4.6716 0 0 4.3208 22462.8242 112388.2188)">
			<stop  offset="0" style="stop-color:#555555;stop-opacity:0.9755"/>
			<stop  offset="1" style="stop-color:#555555;stop-opacity:0.976"/>
		</linearGradient>
		<path style="fill:url(#SVGID_00000100340386416107552530000000615602330533256634_);" d="M4337.3,3919.6c0-1.7,5.1-12.6,11.5-24
			c23.5-44.1,9.7-95-31.5-119c-46.4-27.5-96.1-14.9-114.5,28l-8,17.7l-8.6-21.2c-18.3-42.9-6.3-87.6,30.3-111.6
			c28-18.9,83.6-18.3,124.8,1.1c64.7,29.8,110.4,91.6,103,137.9c-4.6,28.6-30.3,69.8-51.5,83
			C4376.2,3921.3,4337.3,3927,4337.3,3919.6z"/>
	</g>
</g>
<g transform="translate(0.000000,568.000000) scale(0.100000,-0.100000)">
	<g>
		
			<linearGradient id="SVGID_00000096026872561740465490000001110220809457672577_" gradientUnits="userSpaceOnUse" x1="-4550.3433" y1="-27080.1367" x2="-4549.771" y2="-27080.1367" gradientTransform="matrix(6.5801 0 0 1.1859 35075.1289 35956.0781)">
			<stop  offset="0" style="stop-color:#FF7362;stop-opacity:0.2528"/>
			<stop  offset="1" style="stop-color:#FF7362;stop-opacity:0.2528"/>
		</linearGradient>
		<path style="fill:url(#SVGID_00000096026872561740465490000001110220809457672577_);" d="M5451.6,3866.9
			c-69.8-17.7-124.8-24.6-228.4-28.6c-90.4-3.4-97.3-5.1-85.3-24c4.6-6.9,18.9-7.4,79-4.6c151.1,8,314.8,44.6,290.7,65.2
			C5504.2,3877.8,5480.8,3874.4,5451.6,3866.9z"/>
	</g>
</g>
<g transform="translate(0.000000,568.000000) scale(0.100000,-0.100000)">
	<g>
		
			<linearGradient id="SVGID_00000111885412960423347280000011454002726755113103_" gradientUnits="userSpaceOnUse" x1="-4854.2041" y1="-24898.2676" x2="-4854.7134" y2="-24897.8887" gradientTransform="matrix(9.6606 0 0 4.5845 52068.6367 116649.4062)">
			<stop  offset="0" style="stop-color:#FFFFFF;stop-opacity:0.2083"/>
			<stop  offset="1" style="stop-color:#FFFFFF;stop-opacity:0.2101"/>
		</linearGradient>
		<path style="fill:url(#SVGID_00000111885412960423347280000011454002726755113103_);" d="M5009.8,2674.8
			c-125.3-26.9-222-79.6-248.9-134.5c-22.3-46.4-8-75.5,48.6-100.7c41.8-18.9,156.2-22.3,231.8-6.3
			c148.8,31.5,254.1,96.7,261.5,162.5c2.3,21.2,0.6,28-12,42.9c-8,9.7-28,23.5-44.6,30.9C5203.2,2688.6,5084.7,2690.9,5009.8,2674.8
			z"/>
	</g>
</g>
<g transform="translate(0.000000,568.000000) scale(0.100000,-0.100000)">
	<g>
		
			<linearGradient id="SVGID_00000141446909504947985960000015875716116222490531_" gradientUnits="userSpaceOnUse" x1="-4417.7544" y1="-27694.6504" x2="-4417.1821" y2="-27694.6504" gradientTransform="matrix(6.1018 0 0 1.0548 31764.4551 33451.5508)">
			<stop  offset="0" style="stop-color:#000000;stop-opacity:0.3455"/>
			<stop  offset="1" style="stop-color:#000000;stop-opacity:0.3455"/>
		</linearGradient>
		<path style="fill:url(#SVGID_00000141446909504947985960000015875716116222490531_);" d="M4852.4,4266.4
			c-24-5.1-46.4-18.3-44.1-26.3c2.9-8.6,51.5-19.5,123-26.3c49.2-5.1,81.8-5.1,139.6,0c87,8,96.1,10.9,79.5,25.8
			c-12,10.9-48.6,25.8-65.2,26.3c-5.7,0-20-6.9-30.9-15.5c-18.9-14.3-25.8-16-65.2-16c-40.6,0-46.4,1.7-70.4,18.9
			C4891.3,4272.1,4886.7,4273.3,4852.4,4266.4z"/>
	</g>
</g>
<g transform="translate(0.000000,568.000000) scale(0.100000,-0.100000)">
	<g>
		
			<linearGradient id="SVGID_00000035509606924449975990000008840648539556079248_" gradientUnits="userSpaceOnUse" x1="-5094.5605" y1="-24472.5059" x2="-5095.041" y2="-24473.043" gradientTransform="matrix(14.7768 0 0 27.73 80182.0938 682419.1875)">
			<stop  offset="0" style="stop-color:#FFFFFF;stop-opacity:8.750000e-02"/>
			<stop  offset="1" style="stop-color:#FFFFFF;stop-opacity:8.760000e-02"/>
		</linearGradient>
		<path style="fill:url(#SVGID_00000035509606924449975990000008840648539556079248_);" d="M4516.4,3789.7
			c-131.1-243.2-257-525.9-327.4-734.3c-72.1-214-143.1-533.4-136.8-616.4l1.7-24l54.4-21.8c147.6-60.1,309.6-104.7,405.8-111.6
			l52.1-3.4v39.5c0,163.7,38.3,522.5,77.8,725.1c48.1,250.1,146.5,556.9,234.6,731.4l18.9,37.8l-49.8,4
			c-72.7,5.7-162,18.9-228.9,34.9c-32.6,8-60.1,14.3-60.7,14.3S4538.8,3830.9,4516.4,3789.7z"/>
	</g>
</g>
<g transform="translate(0.000000,568.000000) scale(0.100000,-0.100000)">
	<g>
		
			<linearGradient id="SVGID_00000052787566693609968600000005537421714968417416_" gradientUnits="userSpaceOnUse" x1="-5141.2827" y1="-24527.7715" x2="-5141.7808" y2="-24527.2617" gradientTransform="matrix(14.4 0 0 26.7608 79930.2422 658811.5)">
			<stop  offset="0" style="stop-color:#FFFFFF;stop-opacity:0.1476"/>
			<stop  offset="1" style="stop-color:#FFFFFF;stop-opacity:0.1477"/>
		</linearGradient>
		<path style="fill:url(#SVGID_00000052787566693609968600000005537421714968417416_);" d="M5480.8,3853.2
			c-56.1-21.8-210.6-45.2-300.5-45.2c-20.6,0-36-2.3-36-5.7s19.5-44.6,42.9-91.6c178.6-356,268.4-621.5,334.2-987.2
			c30.3-166.5,50.4-352,41.2-376.6c-3.4-8.6-4-15.4-1.1-15.4s39.5,11.4,81.3,25.2c132.8,42.9,232.9,89.9,298.7,139.6
			c21.8,16.6,26.9,24,26.9,38.3c0,32.1-39.5,291.3-60.1,394.3c-51.5,257-101.3,396.6-231.2,647.3c-60.7,117.3-156.8,285-164.2,286.7
			C5510,3863.5,5495.7,3858.9,5480.8,3853.2z"/>
	</g>
</g>
<g transform="translate(0.000000,568.000000) scale(0.100000,-0.100000)">
	<g>
		
			<linearGradient id="SVGID_00000106127976592644527650000017851851328317864079_" gradientUnits="userSpaceOnUse" x1="-4378.7241" y1="-24765.1465" x2="-4378.1519" y2="-24765.1465" gradientTransform="matrix(6.7072 0 0 8.2484 32761.0332 207845.0469)">
			<stop  offset="0" style="stop-color:#000000;stop-opacity:0.5136"/>
			<stop  offset="1" style="stop-color:#000000;stop-opacity:0.5136"/>
		</linearGradient>
		<path style="fill:url(#SVGID_00000106127976592644527650000017851851328317864079_);" d="M3606.5,3797.7
			c17.7-19.5,26.9-51.5,26.9-95.6c0-76.7-33.8-150.5-96.7-210.6c-40.1-38.3-76.1-55.5-116.2-55.5h-28.6l10.9-18.3
			c14.9-25.8,56.1-52.1,109.3-69.8c42.4-14.3,45.8-14.9,69.8-6.3c76.1,25.8,168.8,144.2,188.9,241.5c9.7,44.6,4.6,112.7-9.7,145.4
			c-10.9,24.6-16,28.6-64.7,53.2c-36.6,18.3-59.5,26.3-76.1,26.3C3598.5,3808,3597.9,3807.4,3606.5,3797.7z"/>
	</g>
</g>
<g transform="translate(0.000000,568.000000) scale(0.100000,-0.100000)">
	<g>
		
			<linearGradient id="SVGID_00000049942965359328316030000007612414920779377840_" gradientUnits="userSpaceOnUse" x1="-4278.7627" y1="-24736.7188" x2="-4278.1904" y2="-24736.7188" gradientTransform="matrix(5.9811 0 0 8.4526 29500.0332 212437.3281)">
			<stop  offset="0" style="stop-color:#000000;stop-opacity:0.5136"/>
			<stop  offset="1" style="stop-color:#000000;stop-opacity:0.5136"/>
		</linearGradient>
		<path style="fill:url(#SVGID_00000049942965359328316030000007612414920779377840_);" d="M4105.5,3582.5
			c-10.3-7.4-9.7-8.6,12-19.5c26.9-13.7,58.9-44.6,65.8-62.9c15.4-40.6-0.6-126.5-36.6-200.9c-47.5-97.9-119.6-148.8-188.9-133.9
			c-16.6,3.4-34.3,8-39.5,10.3c-28,10.9,8-41.8,38.3-57.2c117.3-57.8,281,111.6,293,303.3c4,65.8-6.3,107-34.9,135.1
			C4182.8,3587.7,4129.6,3600.2,4105.5,3582.5z"/>
	</g>
</g>
<g transform="translate(0.000000,568.000000) scale(0.100000,-0.100000)">
	<g>
		
			<linearGradient id="SVGID_00000092415354802579434420000017078481499619901325_" gradientUnits="userSpaceOnUse" x1="-3069.9656" y1="-25043.2285" x2="-3069.4333" y2="-25043.2852" gradientTransform="matrix(3.4225 0 0 4.7114 13872.6758 121641.7344)">
			<stop  offset="0" style="stop-color:#FFFFFF;stop-opacity:0.773"/>
			<stop  offset="1" style="stop-color:#FFFFFF;stop-opacity:0.7751"/>
		</linearGradient>
		<path style="fill:url(#SVGID_00000092415354802579434420000017078481499619901325_);" d="M3464,3757.6
			c-65.8-48.1-112.2-140.8-102.4-204.9c4-26.9,23.5-48.1,45.2-48.1c40.6,0.6,101.3,55.5,131.1,119c15.4,32.6,18.3,44.6,18.3,81.8
			c0,35.5-2.3,46.4-10.9,56.1C3528.7,3779.9,3492,3778.2,3464,3757.6z M3478.9,3670.6c0-32.1-30.3-73.8-48.6-67
			c-24.6,9.7,9.2,84.1,38.3,84.1C3476,3687.8,3478.9,3683.2,3478.9,3670.6z"/>
	</g>
</g>
<g transform="translate(0.000000,568.000000) scale(0.100000,-0.100000)">
	<g>
		
			<linearGradient id="SVGID_00000160892702144986931800000014425319572473371792_" gradientUnits="userSpaceOnUse" x1="1051.3362" y1="-27481.1172" x2="1051.9083" y2="-27481.1172" gradientTransform="matrix(1.172 0 0 1.172 3679.043 36629.2969)">
			<stop  offset="0" style="stop-color:#FFF9F1;stop-opacity:0.5085"/>
			<stop  offset="1" style="stop-color:#FFF9F1;stop-opacity:0.5085"/>
		</linearGradient>
		<path style="fill:url(#SVGID_00000160892702144986931800000014425319572473371792_);" d="M4917.6,4439.8
			c-21.2-31.5,14.3-67,45.8-45.8c17.2,10.9,20,37.2,5.7,51.5C4954.8,4459.8,4928.5,4457,4917.6,4439.8z"/>
	</g>
</g>
<g transform="translate(0.000000,568.000000) scale(0.100000,-0.100000)">
	<g>
		
			<linearGradient id="SVGID_00000000221256804770284280000003632516023098547640_" gradientUnits="userSpaceOnUse" x1="-4265.123" y1="-25722.459" x2="-4264.5508" y2="-25722.459" gradientTransform="matrix(6.25 0 0 2.397 33391.3984 65674.6953)">
			<stop  offset="0" style="stop-color:#A7A39E"/>
			<stop  offset="1" style="stop-color:#A7A39E"/>
		</linearGradient>
		<path style="fill:url(#SVGID_00000000221256804770284280000003632516023098547640_);" d="M6734.4,4082.3c0-2.9,10.9-11.4,24-18.9
			c32.6-18.9,69.2-53.8,90.4-87c10.3-15.4,22.3-28,28-28c18.3,0.6,107,22.3,140.2,34.3c18.9,7.4,42.9,21.2,54.4,32.1l20.6,18.3
			l-13.7,14.9c-7.4,8-15.5,13.7-17.2,12c-2.3-1.1-32,2.9-66.4,9.2C6926.1,4081.1,6734.4,4090.9,6734.4,4082.3z"/>
	</g>
</g>
<g transform="translate(0.000000,568.000000) scale(0.100000,-0.100000)">
	<g>
		
			<linearGradient id="SVGID_00000060023273885895862030000003490209444740500626_" gradientUnits="userSpaceOnUse" x1="-5566.3843" y1="-24553.1055" x2="-5565.812" y2="-24553.1055" gradientTransform="matrix(27.5836 0 0 27.4997 153765.6719 679379.75)">
			<stop  offset="0" style="stop-color:#B3BCBA"/>
			<stop  offset="1" style="stop-color:#B3BCBA"/>
		</linearGradient>
		<path style="fill:url(#SVGID_00000060023273885895862030000003490209444740500626_);" d="M903.5,4952.1
			c-100.7-21.2-199.2-65.2-289.6-129.9c-91.6-65.2-209.5-196.9-250.7-280.4c-16.6-33.8-17.7-38.3-14.3-84.7
			c2.9-46.4,1.7-52.1-14.3-87.6c-25.8-57.2-58.4-156.2-75-226.6c-28.6-120.8-34.9-183.7-34.9-334.8c-0.6-159.7,6.3-212.3,41.2-317.6
			c25.8-79.6,43.5-100.1,84.7-100.1c72.1,0,116.2,70.4,82.4,132.8c-14.9,28-36.6,96.1-32,100.7c2.3,1.7,8.6,0.6,13.7-3.4
			c5.1-3.4,29.2-17.2,53.2-29.2c189.4-98.4,519.1-137.9,906.5-108.2c44.1,2.9,83.6,7.4,87,9.7c17.2,9.2-52.1,88.1-100.7,116.2
			c-13.2,7.4-23.5,15.4-23.5,18.3c0,8.6,191.7-1.1,260.4-13.2c34.3-6.3,64.1-10.3,66.4-8.6c2.3,1.1,13.2-8,24.6-20.6
			c24-26.9,22.3-28.6,48.1,51.5c68.7,211.2,84.7,421.2,45.8,600.9c-6.3,29.8-22.9,86.4-37.2,125.9c-13.7,39.5-25.2,75.5-24.6,80.1
			c5.7,49.8-12,97.3-64.1,174.5c-119,175.1-295.3,299.3-480.7,337.1C1111.9,4968.1,972.8,4967,903.5,4952.1z"/>
	</g>
</g>
<g transform="translate(0.000000,568.000000) scale(0.100000,-0.100000)">
	<g>
		
			<linearGradient id="SVGID_00000018958104001303945100000006456866918135922563_" gradientUnits="userSpaceOnUse" x1="-5057.2178" y1="-25305.6348" x2="-5056.645" y2="-25305.6348" gradientTransform="matrix(14.9204 0 0 3.0961 81941.7734 83050.5469)">
			<stop  offset="0" style="stop-color:#A7A39E"/>
			<stop  offset="1" style="stop-color:#A7A39E"/>
		</linearGradient>
		<path style="fill:url(#SVGID_00000018958104001303945100000006456866918135922563_);" d="M6581.8,4776.1
			c-28-7.4-61.2-17.2-73.8-21.2l-21.8-8l21.8-19.5c57.8-50.4,137.9-88.7,223.2-105.9c71-14.3,183.7-9.7,255.2,9.7
			c89.3,24.6,177.4,34.9,275.9,31.5c53.8-1.7,82.4-0.6,77.3,2.9c-33.8,22.9-152.8,73.8-216.9,93.3c-13.7,4.6-13.7,4-4-10.3
			c9.2-14.3,9.2-14.9-9.2-20.6c-77.8-24.6-264.4-34.9-347.4-18.9c-45.8,9.2-103.6,27.5-117.3,37.8c-10.3,7.4-9.7,8.6,2.3,25.8
			l12.6,17.7h-13.2C6639.1,4789.8,6610.5,4783.5,6581.8,4776.1z"/>
	</g>
</g>
<g transform="translate(0.000000,568.000000) scale(0.100000,-0.100000)">
	<g>
		
			<linearGradient id="SVGID_00000089532911013085121420000007700189955700985256_" gradientUnits="userSpaceOnUse" x1="-5458.4741" y1="-24620.8203" x2="-5457.9019" y2="-24620.8203" gradientTransform="matrix(22.1695 0 0 19.3426 122999.1641 480312.1875)">
			<stop  offset="0" style="stop-color:#F2FFFC"/>
			<stop  offset="1" style="stop-color:#F2FFFC"/>
		</linearGradient>
		
			<path style="fill:url(#SVGID_00000089532911013085121420000007700189955700985256_);stroke:#000000;stroke-width:0.1;stroke-miterlimit:1;" d="
			M2633.2,4627.8c-148.8-29.8-316.5-152.2-421.2-308.5c-24-35.5-61.2-72.1-74.4-72.1c-12.6,0-83-164.8-111.6-260.4
			c-25.2-84.1-34.3-143.6-37.8-246.1c-3.4-89.3,5.1-205.5,15.5-211.8c2.3-1.7,14.3,6.3,26.3,17.7c80.7,74.4,259.8,158.5,383.4,180.3
			c30.3,5.1,43.5,10.9,58.4,24.6c9.7,9.2,18.3,20,18.3,23.5c0,10.3,29.8,24,61.2,28.6l29.2,4l-12,20.6c-9.7,16-12.6,32.6-14.3,75.5
			c-2.3,53.8-2.3,54.9,16.6,82.4c26.3,38.9,57.8,54.9,107.6,54.9c55.5,0,77.8-14.3,103.6-65.8c26.3-52.1,28-98.4,5.1-144.2
			l-14.3-29.8l20.6-3.4c27.5-4.6,56.1-22.3,62.4-38.9c12.6-31.5,42.4-53.8,97.9-72.7c64.7-21.8,141.4-57.2,200.3-93.3l42.9-26.3
			l9.7,44.1c18.9,83.6,44.6,250.1,48.6,307.3c5.7,94.4-15.5,209.5-58.4,315.9c-18.9,48.1-21.2,50.9-45.2,60.7
			c-27.5,11.5-33.2,18.9-89.3,113.3c-61.2,104.7-116.2,160.8-192.3,196.9C2806.6,4635.2,2713.9,4643.8,2633.2,4627.8z"/>
	</g>
</g>
<g transform="translate(0.000000,568.000000) scale(0.100000,-0.100000)">
	<g>
		
			<linearGradient id="SVGID_00000077294635554558219260000013989422345661988777_" gradientUnits="userSpaceOnUse" x1="-5482.1206" y1="-24784.7637" x2="-5481.5483" y2="-24784.7637" gradientTransform="matrix(24.0673 0 0 10.8497 133818.7969 273869)">
			<stop  offset="0" style="stop-color:#000000;stop-opacity:0.3455"/>
			<stop  offset="1" style="stop-color:#000000;stop-opacity:0.3455"/>
		</linearGradient>
		<path style="fill:url(#SVGID_00000077294635554558219260000013989422345661988777_);" d="M2435.1,5260.7
			c-183.7-38.3-357.1-154.5-483.6-322.8c-56.1-74.4-72.7-110.5-72.7-155.7c0-61.2,16.6-85.9,77.3-114.5c26.9-12.6,42.9-16,72.7-16
			c33.8,0,40.1,1.7,60.1,17.7c12,9.7,34.3,35.5,49.2,57.2c135.6,196.3,330.8,317.6,509.4,317.1c81.3-0.6,150.5-23.5,215.2-72.1
			c43.5-32.6,82.4-80.1,126.5-156.2c54.9-92.7,58.4-97.9,81.3-109.9c53.2-27.5,149.9-1.7,179.1,48.1c12.6,21.2,8,45.8-18.3,98.4
			c-101.9,203.7-310.8,368-523.7,411.5C2643.4,5276.7,2504.4,5275.6,2435.1,5260.7z"/>
	</g>
</g>
<g transform="translate(0.000000,568.000000) scale(0.100000,-0.100000)">
	<g>
		
			<linearGradient id="SVGID_00000109740903846593190380000002374557724336327090_" gradientUnits="userSpaceOnUse" x1="-5072.0767" y1="-25186.541" x2="-5071.5044" y2="-25186.541" gradientTransform="matrix(14.891 0 0 3.775 82015.2109 99362.7734)">
			<stop  offset="0" style="stop-color:#000000;stop-opacity:0.2334"/>
			<stop  offset="1" style="stop-color:#000000;stop-opacity:0.2334"/>
		</linearGradient>
		<path style="fill:url(#SVGID_00000109740903846593190380000002374557724336327090_);" d="M6962.7,4383.8
			c-109.3-16.6-223.8-52.1-325.6-100.1c-65.2-30.9-149.9-80.1-149.9-86.4c0-5.7,18.3-9.2,87.6-16.6l56.1-6.3l26.9,17.2
			c82.4,52.6,209.5,99.6,321.6,118.5c85.3,13.7,253,5.1,348-18.9c22.9-5.7,13.2,6.9-28.6,38.3c-78.4,58.4-79,59-187.1,60.7
			C7049.1,4391.2,6998.2,4388.9,6962.7,4383.8z"/>
	</g>
</g>
<g transform="translate(0.000000,568.000000) scale(0.100000,-0.100000)">
	<g>
		
			<linearGradient id="SVGID_00000078762882794524404150000005255205888003151023_" gradientUnits="userSpaceOnUse" x1="-4522.6416" y1="-27899.4082" x2="-4522.0693" y2="-27899.4082" gradientTransform="matrix(6.1018 0 0 1.0548 31764.4551 33451.5508)">
			<stop  offset="0" style="stop-color:#000000;stop-opacity:0.3455"/>
			<stop  offset="1" style="stop-color:#000000;stop-opacity:0.3455"/>
		</linearGradient>
		<path style="fill:url(#SVGID_00000078762882794524404150000005255205888003151023_);" d="M4212.4,4050.4
			c-24-5.1-46.4-18.3-44.1-26.3c2.9-8.6,51.5-19.5,123-26.3c49.2-5.1,81.8-5.1,139.6,0c87,8,96.1,10.9,79.5,25.8
			c-12,10.9-48.6,25.8-65.2,26.3c-5.7,0-20-6.9-30.9-15.4c-18.9-14.3-25.8-16-65.2-16c-40.6,0-46.4,1.7-70.4,18.9
			C4251.3,4056.1,4246.7,4057.3,4212.4,4050.4z"/>
	</g>
</g>
<g>
	<g>
		<line class="st35" x1="357.8" y1="96.5" x2="415.7" y2="96.5"/>
		<g>
			<polygon class="st36" points="336,96.5 366.8,112.8 359.5,96.5 366.8,80.2 			"/>
		</g>
	</g>
</g>
<rect x="509.2" y="150.3" class="st37" width="46" height="31"/>
<g>
	<g>
		<line class="st35" x1="613.5" y1="165.4" x2="560.1" y2="165.4"/>
		<g>
			<polygon class="st36" points="633.6,165.4 605.2,181.7 611.9,165.4 605.2,149.1 			"/>
		</g>
	</g>
</g>
<rect x="645.3" y="75.7" class="st37" width="98.3" height="127.7"/>
</svg>
