<?xml version="1.0" encoding="utf-8"?>
<!-- Generator: Adobe Illustrator 26.5.0, SVG Export Plug-In . SVG Version: 6.00 Build 0)  -->
<svg version="1.1" id="图层_1" xmlns="http://www.w3.org/2000/svg" xmlns:xlink="http://www.w3.org/1999/xlink" x="0px" y="0px"
	 viewBox="0 0 760 380" style="enable-background:new 0 0 760 380;" xml:space="preserve">
<style type="text/css">
	.st0{fill:none;}
	.st1{fill:#D3D3D3;}
	.st2{fill:url(#SVGID_00000109743180246015175460000015596785046574888872_);}
	.st3{fill:url(#region-1-1_00000119075696480358852050000008005656483563852698_);}
	.st4{fill:url(#region-1-2_00000020379152402311577720000007049649958007216300_);}
	.st5{fill:url(#region-1-3_00000122689462151466019580000010559150088011420551_);}
	.st6{fill:url(#region-1-4_00000167372672940467242170000001777656189286537399_);}
	.st7{fill:url(#region-1-5_00000141448748799223724380000006783005467801213842_);}
	.st8{fill:url(#region-1-6_00000038389704450209173930000017243748855441633446_);}
	.st9{fill:url(#region-1-7_00000075882343945307513410000009595138137705648789_);}
	.st10{fill:url(#region-1-8_00000088836460865822717090000001997727944767941033_);}
	.st11{fill:url(#region-1-9_00000054954645682332541110000013425886913981881242_);}
	.st12{fill:url(#region-2-1_00000052067155684119297050000002832838142231288762_);}
	.st13{fill:url(#region-2-2_00000039838907402716858410000011849396514108467349_);}
	.st14{fill:url(#region-2-3_00000143590461496179143900000005261684422809092504_);}
	.st15{fill:url(#region-2-4_00000157282145662109378750000010142867545353271483_);}
	.st16{fill:url(#region-2-5_00000070827856780976683180000008064624175876853168_);}
	.st17{fill:url(#region-2-6_00000156552157152561810400000004395085934766746538_);}
	.st18{fill:url(#region-2-7_00000073710946796731839550000007000061165607770255_);}
	.st19{fill:url(#region-2-8_00000111175775666721962090000005051216909198641301_);}
	.st20{fill:url(#region-2-9_00000031901993417014942820000002025956400248178071_);}
	.st21{fill:url(#region-2-10_00000170255002204487087540000003555104371247821194_);}
	.st22{fill:url(#region-2-11_00000129912138808157778110000015501668970546693513_);}
	.st23{fill:url(#region-2-12_00000084507712731401784370000014385646980536734094_);}
	.st24{fill:url(#region-2-13_00000042722988330460273620000011074210603410361262_);}
	.st25{fill:url(#region-2-14_00000080924712324495948980000010592725910873544374_);}
	.st26{fill:url(#region-2-15_00000062878701816763584260000015236793652625259148_);}
	.st27{fill:url(#region-3-1_00000100359338952167380300000010996270721914475158_);}
	.st28{fill:url(#region-3-2_00000183949175629623201090000006507088152271189905_);}
	.st29{fill:url(#region-3-3_00000104681760899357742770000015284430656789706424_);}
	.st30{fill:url(#region-3-4_00000114040164945492622460000016299090610199419011_);}
	.st31{fill:url(#region-3-5_00000152222782977041597200000018147876438018704269_);}
	.st32{fill:url(#region-1-1_00000171707688423471043890000013810750422473637301_);}
	.st33{fill:url(#region-1-2_00000161623626384537387610000002482925128211835033_);}
	.st34{fill:url(#region-1-3_00000080918962964095603350000000149061557488930486_);}
	.st35{fill:url(#region-1-6_00000116945219277408872150000001500319777883192766_);}
	.st36{fill:url(#region-2-5_00000024715851042765761010000013591843104526976390_);}
	.st37{fill:url(#region-3-3_00000083074190301380957000000010096647717260439457_);stroke:#000000;stroke-miterlimit:10;}
	.st38{fill:none;stroke:#3FA9F5;stroke-width:4;stroke-linecap:round;stroke-miterlimit:10;}
	.st39{fill:#3FA9F5;}
	.st40{fill:none;stroke:#FF0000;stroke-width:3;stroke-miterlimit:10;}
</style>
<pattern  x="-20" y="590" width="40" height="40" patternUnits="userSpaceOnUse" id="SVGID_1_" viewBox="0 -40 40 40" style="overflow:visible;">
	<g>
		<rect y="-40" class="st0" width="40" height="40"/>
		<g>
			<rect y="-40" class="st0" width="40" height="40"/>
			<rect y="-40" class="st0" width="40" height="40"/>
			<rect y="-20" class="st1" width="20" height="20"/>
			<rect x="20" y="-40" class="st1" width="20" height="20"/>
		</g>
	</g>
</pattern>
<pattern  id="SVGID_00000011716483240135679590000012208421012324846231_" xlink:href="#SVGID_1_" patternTransform="matrix(1 0 0 -1 29 -16543.0098)">
</pattern>
<rect style="fill:url(#SVGID_00000011716483240135679590000012208421012324846231_);" width="760" height="380"/>
<g id="layer-1">
	
		<linearGradient id="region-1-1_00000120545636628517459700000005062327947552372389_" gradientUnits="userSpaceOnUse" x1="-574.5696" y1="-72.4574" x2="-574.5696" y2="-73.0321" gradientTransform="matrix(240.6732 0 0 -108.4968 138696.1094 -7833.2979)">
		<stop  offset="0" style="stop-color:#787775;stop-opacity:0.991"/>
		<stop  offset="1" style="stop-color:#787775;stop-opacity:0.991"/>
	</linearGradient>
	<path id="region-1-1" style="fill:url(#region-1-1_00000120545636628517459700000005062327947552372389_);" d="M399.3,29.3
		c-18.5,3.9-35.9,15.5-48.6,32.4c-5.6,7.5-7.3,11.1-7.3,15.6c0,6.1,1.7,8.6,7.8,11.5c2.7,1.3,4.3,1.6,7.3,1.6c3.4,0,4-0.2,6-1.8
		c1.2-1,3.5-3.6,4.9-5.8c13.6-19.7,33.2-31.9,51.1-31.8c8.2,0.1,15.1,2.4,21.6,7.2c4.4,3.3,8.3,8,12.7,15.7c5.5,9.3,5.9,9.8,8.2,11
		c5.4,2.8,15.1,0.2,18-4.8c1.3-2.1,0.8-4.6-1.8-9.9C469,49.9,448,33.4,426.7,29C420.2,27.7,406.3,27.8,399.3,29.3z"/>
	
		<linearGradient id="region-1-2_00000005978444718854444410000009003582886484468615_" gradientUnits="userSpaceOnUse" x1="-561.6019" y1="-71.4076" x2="-560.3602" y2="-71.7074" gradientTransform="matrix(40.4655 0 0 -151.7391 23190.0586 -10724.9014)">
		<stop  offset="0" style="stop-color:#B2BBB9;stop-opacity:0.997"/>
		<stop  offset="1" style="stop-color:#B2BCBA;stop-opacity:0.999"/>
	</linearGradient>
	<path id="region-1-2" style="fill:url(#region-1-2_00000005978444718854444410000009003582886484468615_);" d="M479.4,82.2
		c-2,2-5.6,3.5-9.3,3.8c-2,0.1-3.6,0.3-3.6,0.3c0,0.1,0.9,2.4,2,5.1c4.2,10.6,6.4,22.2,5.8,31.7c-0.3,6.1-2.5,19.9-4.4,28.6
		c-0.6,2.9-1.1,5.6-1.1,6.1c0,0.5,1.5,2,3.5,3.4c1.9,1.4,4.5,3.6,5.8,5c2.7,2.9,2.4,3.2,5.1-4.9c8.5-26.1,8.9-49.9,1.3-72.1
		C480.9,79.6,481.3,80.2,479.4,82.2z"/>
	
		<linearGradient id="region-1-3_00000164504601404123696370000012719606548992275389_" gradientUnits="userSpaceOnUse" x1="-563.6301" y1="-70.9359" x2="-562.4171" y2="-71.2114" gradientTransform="matrix(53.0972 0 0 -193.9 30255.7754 -13630.0107)">
		<stop  offset="0" style="stop-color:#B2BBB9;stop-opacity:0.993"/>
		<stop  offset="1" style="stop-color:#B2BBB9;stop-opacity:0.996"/>
	</linearGradient>
	<path id="region-1-3" style="fill:url(#region-1-3_00000164504601404123696370000012719606548992275389_);" d="M341.6,89.5
		c-3.2,7.6-5.1,13.6-7,21.4c-2.8,11.8-3.5,18.2-3.5,33.3c-0.1,15.6,0.6,21.1,3.7,30.8c1.5,4.9,1.6,5.4,0.8,7.3
		c-1.8,4.2-0.5,8.7,3.1,11.1c1.5,1,2.8,1.3,5.8,1.3c4.7,0,8.6-1.7,12.6-5.5c4.9-4.7,5.8-9.1,2.6-14.4c-1.8-3-3.7-4.4-6.8-4.8
		c-2.3-0.3-2.4-0.4-3.4-3.5c-2.1-6.4-2.8-14-2.5-25c0.2-5.7,0.7-12.3,1.1-14.7c1.7-9.1,5.2-19.7,10.4-30.8l2.5-5.3l-3.3-0.2
		c-4.1-0.3-9.9-2.9-12.1-5.4l-1.7-1.9L341.6,89.5z"/>
	
		<linearGradient id="region-1-4_00000176741649316811626650000010816446334591859855_" gradientUnits="userSpaceOnUse" x1="-561.5895" y1="-75.3675" x2="-561.2835" y2="-76.0693" gradientTransform="matrix(43.722 0 0 -48.8543 24963.3359 -3573.9626)">
		<stop  offset="0" style="stop-color:#838481"/>
		<stop  offset="1" style="stop-color:#656663"/>
	</linearGradient>
	<path id="region-1-4" style="fill:url(#region-1-4_00000176741649316811626650000010816446334591859855_);" d="M410.1,112.2
		c-1.5,0.8-3.3,2.4-4.5,4.2c-1.9,2.8-1.9,2.9-1.7,8.3c0.2,4.8,0.4,5.9,1.8,8.2c2.3,3.9,5.4,5.8,9.9,6c6.1,0.4,10.9-3.1,12.7-9.4
		c1.2-4.2,0.8-7.5-1.7-12.3c-2.4-4.8-4.8-6.3-10.2-6.3C413.5,110.9,412,111.2,410.1,112.2z"/>
	
		<linearGradient id="region-1-5_00000180339927503753520400000012069220007305460356_" gradientUnits="userSpaceOnUse" x1="-569.1834" y1="-79.5181" x2="-569.1834" y2="-80.0932" gradientTransform="matrix(84.537 0 0 -28.1715 48532.6758 -2105.5813)">
		<stop  offset="0" style="stop-color:#BDB4AD;stop-opacity:0.993"/>
		<stop  offset="1" style="stop-color:#BDB4AD;stop-opacity:0.994"/>
	</linearGradient>
	<path id="region-1-5" style="fill:url(#region-1-5_00000180339927503753520400000012069220007305460356_);" d="M402.1,134.9
		c-2.2,0.5-4.6,1.8-4.6,2.6c0,0.2-1.4,2-3.2,3.9c-1.8,1.9-3.1,3.7-3,4.1c0.3,0.9,6.2,3.2,11.3,4.2c6.7,1.4,22.7,1.3,30.4-0.3
		c8.3-1.7,8.2-1.5,4.7-5.6c-1.6-1.9-3.2-4-3.5-4.7c-0.6-1.7-3.5-3.5-6.3-3.9c-1.9-0.3-2.5-0.1-4.5,1.5c-4,3.2-10.2,3-14.7-0.3
		C406,134.4,405.5,134.2,402.1,134.9z"/>
	
		<linearGradient id="region-1-6_00000163760777585334763600000002515436688805275265_" gradientUnits="userSpaceOnUse" x1="-574.3589" y1="-73.6545" x2="-574.3589" y2="-74.2292" gradientTransform="matrix(224.1306 0 0 -62.4921 129145.7578 -4460.9468)">
		<stop  offset="0" style="stop-color:#B4BAB8;stop-opacity:0.993"/>
		<stop  offset="1" style="stop-color:#B2BBB9;stop-opacity:0.995"/>
	</linearGradient>
	<path id="region-1-6" style="fill:url(#region-1-6_00000163760777585334763600000002515436688805275265_);" d="M387.4,142.8
		c-12.6,3-27.3,10.2-35.9,17.4c-1.7,1.5-1.9,1.8-1.1,2.6c1.2,1.4,8.9,5.1,15.4,7.4c16.5,5.8,42.2,8.5,69.2,7.2
		c23.9-1,37.5-3.9,42.2-8.7l1.6-1.7l-1.4-1.5c-3.3-3.6-13.9-10.6-21.5-14.5c-3.1-1.5-12-5-15.8-6.1c-1.4-0.5-1.4-0.4-0.4,1
		c0.9,1.4,0.9,1.5-0.9,2.1c-7.8,2.5-26.5,3.5-34.9,1.9c-4.6-0.9-10.4-2.8-11.8-3.8c-1-0.8-1-0.9,0.2-2.6l1.3-1.8l-1.3,0.1
		C391.5,142,389.3,142.4,387.4,142.8z"/>
	
		<linearGradient id="region-1-7_00000135681626910797654550000004564219500296453770_" gradientUnits="userSpaceOnUse" x1="-575.8239" y1="-69.8314" x2="-575.8239" y2="-70.4061" gradientTransform="matrix(422.4721 0 0 -331.4904 243678.4062 -22985.8398)">
		<stop  offset="0" style="stop-color:#218D90;stop-opacity:0.993"/>
		<stop  offset="1" style="stop-color:#1F8E91;stop-opacity:0.993"/>
	</linearGradient>
	<path id="region-1-7" style="fill:url(#region-1-7_00000135681626910797654550000004564219500296453770_);" d="M348.7,163.3
		c0,0.4,0.5,2,1,3.6c0.9,2.7,1.1,2.9,3.3,3.2c3.2,0.5,5.1,1.8,6.8,4.8c3.1,5.4,2.3,9.8-2.6,14.4c-4,3.7-7.9,5.5-12.6,5.5
		c-3,0-4.2-0.3-5.8-1.3c-3.6-2.4-4.9-6.9-3.1-11.1c0.7-1.7,0.8-2.5,0.2-4.2c-0.3-1.3-0.8-2.2-0.8-2.2c-1.4,0-18,21.7-18,23.5
		c0,0.3,2.2,1.5,4.9,2.7c2.7,1.2,4.9,2.4,4.9,2.6c0,0.3,1,1,2.2,1.6c2.6,1.3,5.8,4.4,6.5,6.3c1.5,4.1-0.1,12.7-3.7,20.2
		c-4.8,9.8-12,14.9-19,13.5c-1.7-0.3-3.5-0.9-4.1-1.1c-0.9-0.3-1-0.2-0.8,0.5c0.2,0.7-1.1,0.3-4.5-1.3c-2.7-1.3-5.1-2.1-5.4-2
		c-0.2,0.2-1.3,3.6-2.2,7.6c-3,12.4-5.2,27.5-5.2,35.4c0,2.6-0.5,4.9-1.5,7.6c-2,5-2.2,12.1-0.6,16.7c6.1,17.9,35.1,33.6,74.5,40.3
		c16.3,2.8,22.2,3.2,45.7,3.2c23.6,0,28.9-0.3,44.8-2.9c23.2-3.8,44.4-11.1,58.2-20.1c7.2-4.7,14-11.6,16.5-17c2-4.2,2-4.5,2-11.2
		c0-6.4-0.1-7.1-1.7-10.5c-1.3-2.8-1.8-4.9-2.3-10.1c-1.4-14-5.6-34.2-10.2-48.3c-6.8-21.2-18.5-42.7-33.2-60.9l-4-5l-2.1,2
		c-5.2,4.7-18.2,7.3-41.8,8.3c-27,1.2-52.6-1.5-69.2-7.2c-6-2.1-14.5-6.1-15.1-7.1C350.1,162.4,348.6,162.4,348.7,163.3z"/>
	
		<linearGradient id="region-1-8_00000168075598783239009160000000130495338992053692_" gradientUnits="userSpaceOnUse" x1="-562.6962" y1="-72.8349" x2="-562.0889" y2="-73.3797" gradientTransform="matrix(53.9137 0 0 -69.043 30585.2051 -4847.915)">
		<stop  offset="0" style="stop-color:#B3BBB9;stop-opacity:0.993"/>
		<stop  offset="1" style="stop-color:#B2BBB9;stop-opacity:0.995"/>
	</linearGradient>
	<path id="region-1-8" style="fill:url(#region-1-8_00000168075598783239009160000000130495338992053692_);" d="M265.5,180.4
		c-5.3,2.6-10.6,8.9-14.1,16.5c-1.6,3.5-1.8,4.6-2.1,10.2c-0.3,7.2,0.2,8.3,4.5,10.6c5.1,2.6,11,1.1,16.7-4.4
		c6.4-6,9.7-13.4,9.7-21.3c0-4.9-1.5-9-3.7-10.1c-0.6-0.3-1.8-1.1-2.5-1.7C272.1,178.9,268.5,179,265.5,180.4z"/>
	
		<linearGradient id="region-1-9_00000013895794992855774210000007266764916866433212_" gradientUnits="userSpaceOnUse" x1="-571.9369" y1="-71.2637" x2="-571.6703" y2="-72.0494" gradientTransform="matrix(139.2 0 0 -112.7717 79892.3984 -7861.2715)">
		<stop  offset="0" style="stop-color:#B2BCBA"/>
		<stop  offset="1" style="stop-color:#B3BBB9"/>
	</linearGradient>
	<path id="region-1-9" style="fill:url(#region-1-9_00000013895794992855774210000007266764916866433212_);" d="M277.5,182.6
		c1.8,2,2.7,5.2,2.7,9.6c0,7.7-3.4,15.1-9.7,21.1c-4,3.9-7.6,5.6-11.7,5.6H256l1.1,1.8c1.5,2.6,5.6,5.2,11.2,7.1
		c2.6,0.9,10,4.1,16.5,7.3c21.1,10.2,23.6,11.3,23.2,10.3c-0.3-0.7-0.1-0.8,0.8-0.5c6.7,2.6,11.9,1.5,17.2-3.9
		c5.8-5.9,10.1-16.1,10.1-24c0-1.8-0.2-3.9-0.5-4.6c-0.6-1.7-3.9-4.9-6.1-6c-0.9-0.5-2.1-1.3-2.6-1.7c-0.5-0.5-10.9-5.9-23.3-12
		c-17.6-8.8-22.9-11.2-24.7-11.2C276.7,181.5,276.7,181.6,277.5,182.6z"/>
</g>
<g id="layer-2">
	
		<linearGradient id="region-2-1_00000041288679480269536060000004692999728107420552_" gradientUnits="userSpaceOnUse" x1="-552.219" y1="-71.6105" x2="-551.0328" y2="-72.1098" gradientTransform="matrix(25.6261 0 0 -135.6081 14620.1895 -9604.6943)">
		<stop  offset="0" style="stop-color:#9C8C84;stop-opacity:0.519"/>
		<stop  offset="1" style="stop-color:#A0948D;stop-opacity:0.628"/>
	</linearGradient>
	<path id="region-2-1" style="fill:url(#region-2-1_00000041288679480269536060000004692999728107420552_);" d="M472.6,85.7
		c-1.7,0.5-2.1,0.8-1.9,1.5c0.2,0.5,1.3,3.9,2.6,7.5c2.5,7.1,4.1,14.1,4.1,17.7c0,4.4,0.9,3,1.4-2.3l0.6-5.4l0.8,6.6
		c0.9,7.8,1,17.1,0.1,26.3c-0.8,8.5-2,13.7-4.1,18.7c-2.5,5.9-1.5,8.6,1.8,5.1c2.2-2.3,4.3-7.8,5.9-14.8c1.7-7.9,2.2-31.1,0.9-41.3
		c-1.5-11.7-3.2-16.7-5.5-16.6c-1,0.1-1.5-0.5-2.2-1.9C475.9,84.8,475.9,84.8,472.6,85.7z"/>
	
		<linearGradient id="region-2-2_00000065045600068463759600000012846556318476830374_" gradientUnits="userSpaceOnUse" x1="-554.0849" y1="-71.2162" x2="-552.6898" y2="-71.6265" gradientTransform="matrix(31.8644 0 0 -160.4562 17988.0391 -11313.4346)">
		<stop  offset="0" style="stop-color:#947C72;stop-opacity:0.387"/>
		<stop  offset="1" style="stop-color:#9B8A83;stop-opacity:0.502"/>
	</linearGradient>
	<path id="region-2-2" style="fill:url(#region-2-2_00000065045600068463759600000012846556318476830374_);" d="M345.9,98
		c-6.1,16.7-7.3,23.3-7.3,41.3c0,7,0.2,14.3,0.4,16.4l0.3,3.7l-0.8-2.6c-0.5-1.4-1.1-7.1-1.4-12.6c-0.3-5.5-0.8-10.4-0.9-10.9
		c-0.6-1.9-1.3,0.6-2,6.5c-0.9,7.8-0.1,16.8,2.3,26c1.6,6.1,4.2,13.7,5.2,14.8c0.2,0.3,0.6-1.4,0.9-3.6c0.2-2.3,0.9-5.1,1.4-6.3
		c1.4-2.6,1.4-5.5-0.1-15.4c-0.7-4.4-1.3-12.6-1.5-18.1c-0.5-15.5,1.2-24.8,7.4-40.2c2.6-6.7,2.8-7.2,1.9-7.9
		c-0.6-0.4-1.3-0.8-1.7-0.8C349.7,88.4,347.8,92.8,345.9,98z"/>
	
		<linearGradient id="region-2-3_00000132081274864251598220000013668095860673386134_" gradientUnits="userSpaceOnUse" x1="-557.3201" y1="-80.4571" x2="-556.8124" y2="-81.1354" gradientTransform="matrix(34.4783 0 0 -27.27 19621.6328 -2083.6921)">
		<stop  offset="0" style="stop-color:#71706E;stop-opacity:0.743"/>
		<stop  offset="1" style="stop-color:#878684;stop-opacity:0.82"/>
	</linearGradient>
	<path id="region-2-3" style="fill:url(#region-2-3_00000132081274864251598220000013668095860673386134_);" d="M410.6,112.8
		c-3.6,1.8-6.4,6.1-6.1,9.2c0.2,2.1,0.5,2.5,2.6,3.7c6.7,3.6,14.6-0.3,16.8-8.5c0.8-2.8,0.6-3.2-2.3-4.7
		C418.5,111,413.9,111,410.6,112.8z"/>
	
		<linearGradient id="region-2-4_00000096022422701278314430000011492321545133924488_" gradientUnits="userSpaceOnUse" x1="-565.9957" y1="-97.0406" x2="-565.9253" y2="-98.5075" gradientTransform="matrix(61.0181 0 0 -10.5477 34950.7344 -888.5288)">
		<stop  offset="0" style="stop-color:#595C5D;stop-opacity:0.68"/>
		<stop  offset="1" style="stop-color:#5E6060;stop-opacity:0.711"/>
	</linearGradient>
	<path id="region-2-4" style="fill:url(#region-2-4_00000096022422701278314430000011492321545133924488_);" d="M402.6,135.5
		c-2.4,0.5-4.7,1.8-4.4,2.6c0.3,0.9,5.2,2,12.4,2.6c4.9,0.5,8.2,0.5,14,0c8.7-0.8,9.7-1.1,8-2.6c-1.2-1.1-4.9-2.6-6.5-2.6
		c-0.6,0-2,0.7-3.1,1.5c-1.9,1.4-2.6,1.6-6.5,1.6c-4.1,0-4.7-0.2-7.1-1.9C406.6,134.9,406.1,134.8,402.6,135.5z"/>
	
		<linearGradient id="region-2-5_00000008112470820303694230000012651978324293873558_" gradientUnits="userSpaceOnUse" x1="-573.2001" y1="-76.5252" x2="-572.6193" y2="-76.9233" gradientTransform="matrix(148.9096 0 0 -37.7505 85737.75 -2731.4062)">
		<stop  offset="0" style="stop-color:#7B7772;stop-opacity:0.653"/>
		<stop  offset="1" style="stop-color:#7A8585;stop-opacity:0.791"/>
	</linearGradient>
	<path id="region-2-5" style="fill:url(#region-2-5_00000008112470820303694230000012651978324293873558_);" d="M437.8,155.4
		c-11,1.7-22.5,5.2-32.7,10.1c-6.5,3.1-15.1,8-15.1,8.7c0,0.6,1.8,0.9,8.8,1.7l5.6,0.6l2.7-1.7c8.3-5.3,21-10,32.3-11.9
		c8.6-1.4,25.4-0.5,34.9,1.9c2.3,0.6,1.3-0.7-2.9-3.9c-7.9-5.9-7.9-5.9-18.8-6.1C446.5,154.6,441.3,154.9,437.8,155.4z"/>
	
		<linearGradient id="region-2-6_00000047049640007258398810000008853228058873471662_" gradientUnits="userSpaceOnUse" x1="-561.5262" y1="-75.1949" x2="-561.2369" y2="-75.945" gradientTransform="matrix(46.7162 0 0 -43.2077 26574.0859 -3081.3987)">
		<stop  offset="0" style="stop-color:#3D3B38;stop-opacity:0.755"/>
		<stop  offset="1" style="stop-color:#444340;stop-opacity:0.806"/>
	</linearGradient>
	<path id="region-2-6" style="fill:url(#region-2-6_00000047049640007258398810000008853228058873471662_);" d="M350.9,170.3
		c0,0.2,0.5,1.3,1.1,2.4c2.4,4.4,1,9.5-3.2,12c-4.7,2.8-9.7,1.5-11.5-2.8l-0.8-1.8l-0.9,2.1c-1.8,4.3-0.6,8.8,3,11.2
		c2.8,1.9,8.4,1.8,12.5-0.1c6.5-3,11.1-9.2,10.4-13.9c-0.5-2.9-3-7-5.2-8.3C354.8,170.2,350.9,169.6,350.9,170.3z"/>
	
		<linearGradient id="region-2-7_00000168086048669095672230000012656671551376070789_" gradientUnits="userSpaceOnUse" x1="-572.819" y1="-69.9682" x2="-572.1818" y2="-70.515" gradientTransform="matrix(148.685 0 0 -279.7221 85490.0625 -19393.2188)">
		<stop  offset="0" style="stop-color:#53ADB0;stop-opacity:0.349"/>
		<stop  offset="1" style="stop-color:#5AAAAD;stop-opacity:0.35"/>
	</linearGradient>
	<path id="region-2-7" style="fill:url(#region-2-7_00000168086048669095672230000012656671551376070789_);" d="M370.2,181
		c-4.8,8.7-16.4,32.1-20.1,40.5c-5,11.4-11.1,26.8-14.1,35.6c-7.2,21.5-14.4,53.6-13.7,61.9l0.2,2.4l5.5,2.2
		c14.8,6,31.1,10.5,40.8,11.2l5.2,0.3v-4c0-16.4,3.9-52.5,7.8-72.8c4.9-25.6,14.7-55.8,23.9-74.2c1.3-2.5,2.2-4.5,2.1-4.7
		c-0.1-0.1-7.3-1.2-16-2.5c-8.7-1.3-16.3-2.5-16.8-2.6C374.1,174.2,373.1,175.8,370.2,181z"/>
	
		<linearGradient id="region-2-8_00000053526376276334094650000005793209848680880802_" gradientUnits="userSpaceOnUse" x1="-573.255" y1="-69.9802" x2="-572.7071" y2="-70.5647" gradientTransform="matrix(146 0 0 -270.6 84127 -18764.0059)">
		<stop  offset="0" style="stop-color:#7BC1C1;stop-opacity:0.355"/>
		<stop  offset="1" style="stop-color:#8DBFC3;stop-opacity:0.311"/>
	</linearGradient>
	<path id="region-2-8" style="fill:url(#region-2-8_00000053526376276334094650000005793209848680880802_);" d="M462.8,175.6
		c-7,1.8-12.5,2.5-22.9,2.9c-5.7,0.2-9.1,0.6-9.1,1c0,0.3,3.1,6.9,6.8,14.7c16.3,33.6,23.7,54.7,29.9,84.3
		c4.4,21.4,7.6,46.6,6.4,49.9c-0.3,0.9-0.4,1.5-0.1,1.5s4-1.2,8.2-2.5c13.3-4.3,23.4-9,30-14c2.2-1.7,2.7-2.4,2.7-3.8
		c0-3.2-4-29.2-6-39.6c-5.2-25.7-10.2-39.7-22.9-64.5c-5.2-10.2-15.4-28-16.9-29.8l-1-1.2L462.8,175.6z"/>
	
		<linearGradient id="region-2-9_00000036213247343350766790000012240585677531573656_" gradientUnits="userSpaceOnUse" x1="-565.7252" y1="-72.1452" x2="-565.2175" y2="-72.7678" gradientTransform="matrix(67.0724 0 0 -82.4841 38202.6484 -5771.4116)">
		<stop  offset="0" style="stop-color:#2E2B28;stop-opacity:0.67"/>
		<stop  offset="1" style="stop-color:#3C3A37;stop-opacity:0.748"/>
	</linearGradient>
	<path id="region-2-9" style="fill:url(#region-2-9_00000036213247343350766790000012240585677531573656_);" d="M277.5,182.6
		c1.8,2,2.7,5.2,2.7,9.6c0,7.7-3.4,15.1-9.7,21.1c-4,3.9-7.6,5.6-11.7,5.6H256l1.1,1.8c1.5,2.6,5.6,5.2,11,7c4.2,1.4,4.6,1.5,7,0.6
		c7.6-2.6,17-14.5,19-24.2c1-4.5,0.5-11.3-1-14.6c-1.1-2.5-1.6-2.9-6.5-5.4c-3.7-1.8-6-2.6-7.6-2.6
		C276.7,181.5,276.7,181.6,277.5,182.6z"/>
	
		<linearGradient id="region-2-10_00000093171349014858406360000006037400250413141890_" gradientUnits="userSpaceOnUse" x1="-553.952" y1="-74.5143" x2="-553.3338" y2="-75.0515" gradientTransform="matrix(34.2255 0 0 -47.1138 19211.6133 -3324.9412)">
		<stop  offset="0" style="stop-color:#FEFBF8;stop-opacity:0.8"/>
		<stop  offset="1" style="stop-color:#FFFBF8;stop-opacity:0.801"/>
	</linearGradient>
	<path id="region-2-10" style="fill:url(#region-2-10_00000093171349014858406360000006037400250413141890_);" d="M263.2,186.6
		c-6.6,4.8-11.3,14.1-10.3,20.6c0.4,2.7,2.4,4.8,4.5,4.8c4.1-0.1,10.2-5.6,13.2-12c1.5-3.3,1.8-4.5,1.8-8.2c0-3.6-0.2-4.7-1.1-5.6
		C269.7,184.4,266,184.5,263.2,186.6z"/>
	
		<linearGradient id="region-2-11_00000128450522889676628580000015282923304493426077_" gradientUnits="userSpaceOnUse" x1="-564.9317" y1="-71.9252" x2="-564.3231" y2="-72.4745" gradientTransform="matrix(59.8111 0 0 -84.5256 34095.8516 -5874.3047)">
		<stop  offset="0" style="stop-color:#7A3C36;stop-opacity:0.629"/>
		<stop  offset="1" style="stop-color:#73433D;stop-opacity:0.687"/>
	</linearGradient>
	<path id="region-2-11" style="fill:url(#region-2-11_00000128450522889676628580000015282923304493426077_);" d="M327.6,204.2
		c-1,0.8-1,0.9,1.2,2c2.7,1.4,5.9,4.5,6.6,6.3c1.5,4.1-0.1,12.7-3.7,20.2c-4.8,9.8-12,14.9-19,13.5c-1.7-0.3-3.5-0.8-4-1
		c-2.8-1.1,0.8,4.2,3.9,5.8c11.8,5.8,28.2-11.2,29.4-30.5c0.4-6.6-0.6-10.8-3.5-13.6C335.4,203.7,330.1,202.4,327.6,204.2z"/>
	
		<linearGradient id="region-2-12_00000166672145318902371300000008506212208671357601_" gradientUnits="userSpaceOnUse" x1="-564.1952" y1="-75.7902" x2="-564.1789" y2="-76.4162" gradientTransform="matrix(59 0 0 -35.525 33591 -2484.0247)">
		<stop  offset="0" style="stop-color:#E4D1CB;stop-opacity:0.221"/>
		<stop  offset="1" style="stop-color:#E7D4CD;stop-opacity:0.209"/>
	</linearGradient>
	<path id="region-2-12" style="fill:url(#region-2-12_00000166672145318902371300000008506212208671357601_);" d="M291.1,211.9
		c-0.9,1.8-2.2,4.1-2.8,5.1l-1.2,1.8l9.1,4.4c4.9,2.4,10.6,4.8,12.4,5.4c3.2,0.9,3.9,0.9,9.8,0c1.3-0.2,2.6-1.9,2.6-3.3
		c0-0.7-2.7-2.4-9-5.8c-5-2.6-11.3-6.1-14.1-7.8l-5-3L291.1,211.9z"/>
	
		<linearGradient id="region-2-13_00000062875413623898453180000001182031682293078439_" gradientUnits="userSpaceOnUse" x1="-557.1592" y1="-74.0393" x2="-556.793" y2="-74.7031" gradientTransform="matrix(33.9063 0 0 -44.7465 19309.959 -3088.4973)">
		<stop  offset="0" style="stop-color:#A2D1D3;stop-opacity:0.308"/>
		<stop  offset="1" style="stop-color:#A8D3D5;stop-opacity:0.296"/>
	</linearGradient>
	<path id="region-2-13" style="fill:url(#region-2-13_00000062875413623898453180000001182031682293078439_);" d="M418.6,228.9
		c-5.9,6-3.2,19.5,4.6,22.9c4.5,2,8.4,0.6,10.6-4c1.8-3.7,1.4-10.2-1-14.5c-2.4-4.3-5.3-6.3-9.2-6.3
		C420.9,227,420.3,227.2,418.6,228.9z"/>
	
		<linearGradient id="region-2-14_00000039101656378326810380000002311370590192983192_" gradientUnits="userSpaceOnUse" x1="-575.8297" y1="-70.6033" x2="-575.781" y2="-71.6365" gradientTransform="matrix(422.3877 0 0 -113 243629.7031 -7691.5)">
		<stop  offset="0" style="stop-color:#73433E;stop-opacity:0.689"/>
		<stop  offset="1" style="stop-color:#6A4C47;stop-opacity:0.777"/>
	</linearGradient>
	<path id="region-2-14" style="fill:url(#region-2-14_00000039101656378326810380000002311370590192983192_);" d="M526.7,295.6
		c-0.3,7.1-0.4,7.6-2.2,11.4c-2.6,5.2-9.6,12.6-15.8,16.7c-19.8,13.1-47.6,19.8-89.4,21.7c-38.9,1.7-73.2-3.6-95.4-14.7
		c-18.3-9.1-30.8-22.6-33.6-36l-0.8-3.7l-1,3.2c-1.4,4.1-1.4,11.3-0.1,15.3c6.1,17.9,35.1,33.6,74.5,40.3
		c16.3,2.8,22.2,3.2,45.7,3.2c23.6,0,28.9-0.3,44.8-2.9c23.2-3.8,44.4-11.1,58.2-20.1c7.2-4.7,14-11.6,16.5-17c2-4.2,2-4.5,2-11.2
		c0-6.4-0.1-7.1-1.7-10.4l-1.6-3.5L526.7,295.6z"/>
	
		<linearGradient id="region-2-15_00000139267629605904684670000017897282111309807028_" gradientUnits="userSpaceOnUse" x1="-570.3035" y1="-72.8509" x2="-570.1677" y2="-73.7937" gradientTransform="matrix(96.6056 0 0 -45.8451 55510.2812 -3047.1848)">
		<stop  offset="0" style="stop-color:#B5D8DB;stop-opacity:0.325"/>
		<stop  offset="1" style="stop-color:#BEDCDF;stop-opacity:0.307"/>
	</linearGradient>
	<path id="region-2-15" style="fill:url(#region-2-15_00000139267629605904684670000017897282111309807028_);" d="M418.5,295.4
		c-12.6,2.7-22.3,8-25,13.5c-2.2,4.7-0.8,7.6,4.9,10.1c4.2,1.9,15.7,2.2,23.3,0.6c14.9-3.2,25.5-9.7,26.3-16.3
		c0.2-2.1,0.1-2.8-1.2-4.3c-0.8-1-2.8-2.4-4.5-3.1C437.9,294,426,293.7,418.5,295.4z"/>
</g>
<g id="layer-3">
	
		<linearGradient id="region-3-1_00000171703759341129619890000016893900464036334520_" gradientUnits="userSpaceOnUse" x1="-538.9402" y1="-78.1267" x2="-538.1802" y2="-78.2578" gradientTransform="matrix(17.9571 0 0 -34.8913 10093.9043 -2601.3989)">
		<stop  offset="0" style="stop-color:#FFEEE0;stop-opacity:0.174"/>
		<stop  offset="1" style="stop-color:#FFEDDF;stop-opacity:0.118"/>
	</linearGradient>
	<path id="region-3-1" style="fill:url(#region-3-1_00000171703759341129619890000016893900464036334520_);" d="M420,117.3
		c-2.5,3.9-3.1,6-3.1,10.2c0,5.1,1.2,8.6,3,8.6c1.7,0,4.7-2.8,5.9-5.5c2.4-5.4,1.8-10.6-1.3-13.2C422.2,115.7,421,115.6,420,117.3z"
		/>
	
		<linearGradient id="region-3-2_00000034065091206365505630000014257368873845369218_" gradientUnits="userSpaceOnUse" x1="-517.4804" y1="-95.3648" x2="-517.0607" y2="-96.0641" gradientTransform="matrix(11.7201 0 0 -11.7201 6474.4985 -1001.6818)">
		<stop  offset="0" style="stop-color:#D8D3D1;stop-opacity:0.758"/>
		<stop  offset="1" style="stop-color:#D7D2D0;stop-opacity:0.748"/>
	</linearGradient>
	<path id="region-3-2" style="fill:url(#region-3-2_00000034065091206365505630000014257368873845369218_);" d="M409.2,118.1
		c-2.1,3.2,1.4,6.7,4.6,4.6c1.7-1.1,2-3.7,0.6-5.2C412.9,116.1,410.3,116.4,409.2,118.1z"/>
	
		<linearGradient id="region-3-3_00000150098226197604078500000015977129776559464870_" gradientUnits="userSpaceOnUse" x1="-573.6147" y1="-73.9302" x2="-573.6147" y2="-74.5049" gradientTransform="matrix(178.7 0 0 -59 102932.3984 -4220)">
		<stop  offset="0" style="stop-color:#7D6157;stop-opacity:0.267"/>
		<stop  offset="1" style="stop-color:#8A675B;stop-opacity:0.296"/>
	</linearGradient>
	<path id="region-3-3" style="fill:url(#region-3-3_00000150098226197604078500000015977129776559464870_);" d="M385.7,143.3
		c-2.8,0.8-6.1,1.7-7.4,2.1l-2.2,0.8l2.2,2c5.8,5.1,13.7,8.9,22.3,10.6c3.7,0.8,7.3,0.9,18.1,0.8c11.5-0.2,14.1,0,17.3,0.9
		c8.1,2.2,14.7,6.6,18.4,12.5c1,1.5,2.2,2.9,2.8,2.9c1.8-0.1,10.8-2.2,14.1-3.5c1.9-0.8,4.3-2.1,5.5-3.2l2.1-1.8l-1.4-1.5
		c-3.4-3.6-13.9-10.6-21.5-14.5c-3.1-1.5-12-5-15.8-6.1c-1.4-0.5-1.4-0.4-0.4,1c0.9,1.4,0.9,1.5-0.9,2.1c-7.8,2.5-26.5,3.5-34.9,1.9
		c-4.6-0.9-10.4-2.8-11.8-3.8c-1-0.8-1-0.9,0.2-2.6l1.3-1.8h-1.3C391.5,142,388.6,142.6,385.7,143.3z"/>
	
		<linearGradient id="region-3-4_00000181769785944994088180000001321452325156892594_" gradientUnits="userSpaceOnUse" x1="-574.3249" y1="-77.7281" x2="-574.3059" y2="-78.8481" gradientTransform="matrix(221.669 0 0 -31.5056 127723.8281 -2285.8616)">
		<stop  offset="0" style="stop-color:#7D716D;stop-opacity:0.551"/>
		<stop  offset="1" style="stop-color:#7A756F;stop-opacity:0.566"/>
	</linearGradient>
	<path id="region-3-4" style="fill:url(#region-3-4_00000181769785944994088180000001321452325156892594_);" d="M352.6,165.4
		c7.1,6.8,22,12,43.5,14.8c9.7,1.3,45.8,1.5,54.3,0.2c14.3-2,24.5-6.3,27.1-11.3c0.6-1,0.5-1-0.8,0.1c-4.9,4.5-18.7,7.2-41.8,8.2
		c-27,1.2-52.6-1.5-69.2-7.2c-5.8-2-12.9-5.4-15.1-7C350,162.8,350.9,163.8,352.6,165.4z"/>
	
		<linearGradient id="region-3-5_00000022523444973605353970000015194092244319734973_" gradientUnits="userSpaceOnUse" x1="-496.8441" y1="-85.9645" x2="-496.3208" y2="-86.5674" gradientTransform="matrix(10.0946 0 0 -14.8751 5274.584 -1085.4629)">
		<stop  offset="0" style="stop-color:#849594;stop-opacity:0.568"/>
		<stop  offset="1" style="stop-color:#879897;stop-opacity:0.589"/>
	</linearGradient>
	<path id="region-3-5" style="fill:url(#region-3-5_00000022523444973605353970000015194092244319734973_);" d="M261.4,194.9
		c-2.5,2.8-3.3,6.5-1.6,7.2c1.8,0.7,4.9-3.5,4.9-6.7C264.7,193.2,263.2,193,261.4,194.9z"/>
</g>
<linearGradient id="region-1-1_00000075164460854982347300000000403180177838220714_" gradientUnits="userSpaceOnUse" x1="-575.802" y1="-72.4542" x2="-575.802" y2="-73.0289" gradientTransform="matrix(240.6732 0 0 -108.4968 138696.1094 -7833.2979)">
	<stop  offset="0" style="stop-color:#787775;stop-opacity:0.991"/>
	<stop  offset="1" style="stop-color:#787775;stop-opacity:0.991"/>
</linearGradient>
<path id="region-1-1_00000076584028898272492200000002949784910011790992_" style="fill:url(#region-1-1_00000075164460854982347300000000403180177838220714_);" d="
	M102.7,29c-18.5,3.8-35.9,15.5-48.6,32.4c-5.6,7.5-7.3,11.1-7.3,15.6c0,6.1,1.7,8.6,7.8,11.5c2.7,1.3,4.3,1.6,7.3,1.6
	c3.4,0,4-0.2,6-1.8c1.2-1,3.5-3.6,4.9-5.8c13.6-19.7,33.2-31.9,51.1-31.8c8.2,0.1,15.1,2.4,21.6,7.2c4.4,3.3,8.3,8,12.7,15.7
	c5.5,9.3,5.9,9.8,8.2,11c5.3,2.8,15.1,0.2,18-4.8c1.3-2.1,0.8-4.6-1.8-9.9c-10.2-20.5-31.2-37-52.6-41.3
	C123.6,27.3,109.7,27.5,102.7,29z"/>
<linearGradient id="region-1-2_00000109025192735405951750000008967174137204639892_" gradientUnits="userSpaceOnUse" x1="-568.7191" y1="-71.4867" x2="-567.4774" y2="-71.7865" gradientTransform="matrix(40.4655 0 0 -151.7391 23190.0586 -10724.9014)">
	<stop  offset="0" style="stop-color:#B2BBB9;stop-opacity:0.997"/>
	<stop  offset="1" style="stop-color:#B2BCBA;stop-opacity:0.999"/>
</linearGradient>
<path id="region-1-2_00000098940773989468012630000005023107536767755691_" style="fill:url(#region-1-2_00000109025192735405951750000008967174137204639892_);" d="
	M191.4,94.2c-2,2-5.6,3.4-9.3,3.8c-2,0.1-3.6,0.3-3.6,0.3c0,0.1,0.9,2.4,2,5.1c4.2,10.6,6.4,22.2,5.8,31.7
	c-0.3,6.1-2.5,19.9-4.4,28.6c-0.6,2.9-1.2,5.6-1.2,6.1c0,0.5,1.5,2,3.5,3.4s4.5,3.6,5.8,5c2.7,2.9,2.4,3.2,5.1-4.9
	c8.5-26.1,8.9-49.9,1.3-72.1C192.9,91.7,193.3,92.2,191.4,94.2z"/>
<linearGradient id="region-1-3_00000023986528573523785590000013887252550780691072_" gradientUnits="userSpaceOnUse" x1="-569.3555" y1="-70.9667" x2="-568.1423" y2="-71.2422" gradientTransform="matrix(53.0972 0 0 -193.9 30255.7754 -13630.0107)">
	<stop  offset="0" style="stop-color:#B2BBB9;stop-opacity:0.993"/>
	<stop  offset="1" style="stop-color:#B2BBB9;stop-opacity:0.996"/>
</linearGradient>
<path id="region-1-3_00000091705310378455555490000013787793427374331565_" style="fill:url(#region-1-3_00000023986528573523785590000013887252550780691072_);" d="
	M37.6,95.5c-3.2,7.6-5.1,13.6-6.9,21.4c-2.8,11.8-3.4,18.2-3.4,33.3c-0.1,15.6,0.6,21.1,3.7,30.8c1.6,4.9,1.6,5.4,0.8,7.3
	c-1.8,4.2-0.5,8.7,3.1,11.1c1.6,1,2.8,1.3,5.8,1.3c4.7,0,8.6-1.7,12.6-5.5c4.9-4.7,5.8-9.1,2.6-14.4c-1.8-3.1-3.7-4.4-6.8-4.8
	c-2.3-0.3-2.4-0.4-3.4-3.4c-2.1-6.4-2.8-14-2.5-25c0.2-5.7,0.7-12.3,1.1-14.7c1.7-9.1,5.2-19.7,10.4-30.8l2.5-5.3l-3.3-0.2
	c-4.1-0.3-9.9-2.9-12.1-5.4l-1.7-1.9L37.6,95.5z"/>
<linearGradient id="region-1-6_00000131369166961340473520000010569240609239381675_" gradientUnits="userSpaceOnUse" x1="-573.1364" y1="-74.7285" x2="-573.1364" y2="-75.3032" gradientTransform="matrix(224.1306 0 0 -62.4921 129145.7578 -4460.9468)">
	<stop  offset="0" style="stop-color:#B4BAB8;stop-opacity:0.993"/>
	<stop  offset="1" style="stop-color:#B2BBB9;stop-opacity:0.995"/>
</linearGradient>
<path id="region-1-6_00000003824829830208075570000008433288854744455590_" style="fill:url(#region-1-6_00000131369166961340473520000010569240609239381675_);" d="
	M661.4,209.9c-12.6,3-27.3,10.2-35.9,17.4c-1.7,1.5-1.9,1.8-1.2,2.6c1.2,1.4,8.8,5.1,15.4,7.4c16.5,5.8,42.2,8.5,69.2,7.2
	c23.9-1,37.5-3.9,42.2-8.7l1.6-1.7l-1.4-1.5c-3.3-3.6-13.8-10.6-21.5-14.5c-3.1-1.5-12-5-15.8-6.1c-1.4-0.5-1.4-0.4-0.4,1
	c0.9,1.4,0.9,1.5-0.9,2.1c-7.8,2.5-26.5,3.5-34.9,1.9c-4.6-0.9-10.4-2.8-11.8-3.8c-1-0.8-1-0.9,0.2-2.6l1.3-1.8l-1.3,0.1
	C665.5,209.1,663.3,209.5,661.4,209.9z"/>
<linearGradient id="region-2-5_00000095299001143105719310000016027074657256500644_" gradientUnits="userSpaceOnUse" x1="-571.484" y1="-74.8904" x2="-570.9032" y2="-75.2885" gradientTransform="matrix(148.9096 0 0 -37.7505 85737.75 -2731.4062)">
	<stop  offset="0" style="stop-color:#7B7772;stop-opacity:0.653"/>
	<stop  offset="1" style="stop-color:#7A8585;stop-opacity:0.791"/>
</linearGradient>
<path id="region-2-5_00000012441965513107437030000017340736113871280009_" style="fill:url(#region-2-5_00000095299001143105719310000016027074657256500644_);" d="
	M693.3,93.7c-11,1.7-22.5,5.2-32.7,10.1c-6.5,3.1-15.1,8.1-15.1,8.7c0,0.6,1.8,0.9,8.8,1.7l5.6,0.6l2.7-1.7c8.3-5.3,21-10,32.3-11.9
	c8.6-1.4,25.4-0.5,34.9,1.9c2.3,0.6,1.3-0.7-2.9-3.9c-7.9-5.9-7.9-5.9-18.8-6.1C702,92.9,696.9,93.2,693.3,93.7z"/>
<linearGradient id="region-3-3_00000159468061212726388810000006915395548459189168_" gradientUnits="userSpaceOnUse" x1="-572.1548" y1="-74.0896" x2="-572.1548" y2="-74.6644" gradientTransform="matrix(178.7 0 0 -59 102932.3984 -4220)">
	<stop  offset="0" style="stop-color:#7D6157;stop-opacity:0.267"/>
	<stop  offset="1" style="stop-color:#8A675B;stop-opacity:0.296"/>
</linearGradient>
<path id="region-3-3_00000175295593523488490080000011795764961186551967_" style="fill:url(#region-3-3_00000159468061212726388810000006915395548459189168_);stroke:#000000;stroke-miterlimit:10;" d="
	M646.6,152.7c-2.8,0.8-6.2,1.7-7.4,2.1l-2.2,0.8l2.2,2c5.8,5.1,13.7,8.9,22.3,10.6c3.7,0.8,7.3,0.9,18.1,0.8
	c11.5-0.2,14.1,0,17.3,0.9c8.1,2.2,14.7,6.6,18.4,12.5c1,1.5,2.2,2.9,2.8,2.9c1.8-0.1,10.8-2.2,14.1-3.5c1.9-0.8,4.3-2.1,5.5-3.2
	l2.1-1.8l-1.4-1.5c-3.4-3.6-13.8-10.6-21.5-14.5c-3.1-1.5-12-5-15.8-6.1c-1.4-0.5-1.4-0.4-0.4,1c0.9,1.4,0.9,1.5-0.9,2.1
	c-7.8,2.5-26.5,3.5-34.9,1.9c-4.6-0.9-10.4-2.8-11.8-3.8c-1-0.8-1-0.9,0.2-2.6l1.3-1.8h-1.3C652.3,151.4,649.5,152,646.6,152.7z"/>
<g>
	<g>
		<line class="st38" x1="254.4" y1="110.9" x2="312.3" y2="110.9"/>
		<g>
			<polygon class="st39" points="232.6,110.9 263.4,127.2 256.1,110.9 263.4,94.6 			"/>
		</g>
	</g>
</g>
<rect x="423.2" y="148" class="st40" width="46" height="31"/>
<g>
	<g>
		<line class="st38" x1="582.9" y1="163.2" x2="474.1" y2="163.2"/>
		<g>
			<polygon class="st39" points="623.9,163.2 566,179.5 579.7,163.2 566,146.9 			"/>
		</g>
	</g>
</g>
</svg>
