<?xml version="1.0" standalone="no"?><!DOCTYPE svg PUBLIC "-//W3C//DTD SVG 20010904//EN" "http://www.w3.org/TR/2001/REC-SVG-20010904/DTD/svg10.dtd"><svg version="1.0" xmlns="http://www.w3.org/2000/svg" width="500pt" height="496pt" viewBox="0 0 500 496" preserveAspectRatio="xMidYMid meet"><defs><linearGradient id="linear-gradient-1-1" x1="0.00%" y1="100.00%" x2="0.00%" y2="-0.00%"><stop offset="0%" style="stop-color:rgb(241,87,53);stop-opacity:0.991" /><stop offset="100%" style="stop-color:rgb(196,48,19);stop-opacity:0.996" /></linearGradient><linearGradient id="linear-gradient-1-2" x1="0.00%" y1="0.00%" x2="65.92%" y2="122.92%"><stop offset="0%" style="stop-color:rgb(157,129,12);stop-opacity:0.993" /><stop offset="100%" style="stop-color:rgb(255,255,42);stop-opacity:1.000" /></linearGradient><linearGradient id="linear-gradient-2-1" x1="0.00%" y1="100.00%" x2="43.07%" y2="-28.30%"><stop offset="0%" style="stop-color:rgb(241,209,206);stop-opacity:0.636" /><stop offset="100%" style="stop-color:rgb(246,255,255);stop-opacity:0.846" /></linearGradient><linearGradient id="linear-gradient-2-2" x1="0.00%" y1="100.00%" x2="0.00%" y2="0.00%"><stop offset="0%" style="stop-color:rgb(246,127,124);stop-opacity:0.661" /><stop offset="100%" style="stop-color:rgb(245,209,206);stop-opacity:0.832" /></linearGradient><linearGradient id="linear-gradient-2-3" x1="0.00%" y1="100.00%" x2="3.61%" y2="-16.19%"><stop offset="0%" style="stop-color:rgb(183,251,255);stop-opacity:0.318" /><stop offset="100%" style="stop-color:rgb(136,249,255);stop-opacity:0.071" /></linearGradient><linearGradient id="linear-gradient-2-4" x1="0.00%" y1="100.00%" x2="126.41%" y2="47.22%"><stop offset="0%" style="stop-color:rgb(119,115,137);stop-opacity:0.809" /><stop offset="100%" style="stop-color:rgb(138,134,157);stop-opacity:0.783" /></linearGradient><linearGradient id="linear-gradient-2-5" x1="0.00%" y1="100.00%" x2="0.00%" y2="-0.00%"><stop offset="0%" style="stop-color:rgb(117,117,148);stop-opacity:0.755" /><stop offset="100%" style="stop-color:rgb(119,123,160);stop-opacity:0.809" /></linearGradient><linearGradient id="linear-gradient-2-6" x1="0.00%" y1="100.00%" x2="0.00%" y2="0.00%"><stop offset="0%" style="stop-color:rgb(131,73,7);stop-opacity:0.517" /><stop offset="100%" style="stop-color:rgb(88,28,0);stop-opacity:0.694" /></linearGradient><linearGradient id="linear-gradient-2-7" x1="0.00%" y1="100.00%" x2="8.02%" y2="-11.73%"><stop offset="0%" style="stop-color:rgb(124,116,129);stop-opacity:0.755" /><stop offset="100%" style="stop-color:rgb(119,114,131);stop-opacity:0.815" /></linearGradient><linearGradient id="linear-gradient-2-8" x1="0.00%" y1="100.00%" x2="119.88%" y2="62.46%"><stop offset="0%" style="stop-color:rgb(58,45,74);stop-opacity:0.810" /><stop offset="100%" style="stop-color:rgb(84,71,99);stop-opacity:0.787" /></linearGradient><linearGradient id="linear-gradient-2-9" x1="0.00%" y1="0.00%" x2="91.46%" y2="131.66%"><stop offset="0%" style="stop-color:rgb(198,199,163);stop-opacity:0.966" /><stop offset="100%" style="stop-color:rgb(15,39,255);stop-opacity:0.295" /></linearGradient><linearGradient id="linear-gradient-2-10" x1="0.00%" y1="100.00%" x2="111.84%" y2="21.00%"><stop offset="0%" style="stop-color:rgb(37,18,40);stop-opacity:0.814" /><stop offset="100%" style="stop-color:rgb(67,47,69);stop-opacity:0.789" /></linearGradient><linearGradient id="linear-gradient-2-11" x1="0.00%" y1="100.00%" x2="87.04%" y2="-7.93%"><stop offset="0%" style="stop-color:rgb(9,0,9);stop-opacity:0.816" /><stop offset="100%" style="stop-color:rgb(36,17,37);stop-opacity:0.793" /></linearGradient><linearGradient id="linear-gradient-2-12" x1="0.00%" y1="100.00%" x2="111.54%" y2="11.61%"><stop offset="0%" style="stop-color:rgb(15,0,5);stop-opacity:0.810" /><stop offset="100%" style="stop-color:rgb(29,11,33);stop-opacity:0.785" /></linearGradient><linearGradient id="linear-gradient-3-1" x1="0.00%" y1="100.00%" x2="69.91%" y2="-24.22%"><stop offset="0%" style="stop-color:rgb(231,81,57);stop-opacity:0.581" /><stop offset="100%" style="stop-color:rgb(211,15,0);stop-opacity:0.904" /></linearGradient><linearGradient id="linear-gradient-3-2" x1="0.00%" y1="100.00%" x2="0.00%" y2="-0.00%"><stop offset="0%" style="stop-color:rgb(239,233,229);stop-opacity:0.806" /><stop offset="100%" style="stop-color:rgb(242,252,242);stop-opacity:0.807" /></linearGradient><linearGradient id="linear-gradient-3-3" x1="0.00%" y1="100.00%" x2="0.00%" y2="-0.00%"><stop offset="0%" style="stop-color:rgb(238,249,238);stop-opacity:0.776" /><stop offset="100%" style="stop-color:rgb(251,255,246);stop-opacity:0.804" /></linearGradient><linearGradient id="linear-gradient-3-4" x1="0.00%" y1="100.00%" x2="4.42%" y2="-19.27%"><stop offset="0%" style="stop-color:rgb(35,28,0);stop-opacity:0.174" /><stop offset="100%" style="stop-color:rgb(0,0,0);stop-opacity:0.345" /></linearGradient><linearGradient id="linear-gradient-3-5" x1="0.00%" y1="100.00%" x2="98.97%" y2="-1.29%"><stop offset="0%" style="stop-color:rgb(248,238,33);stop-opacity:0.529" /><stop offset="100%" style="stop-color:rgb(255,249,40);stop-opacity:0.572" /></linearGradient><linearGradient id="linear-gradient-3-6" x1="0.00%" y1="100.00%" x2="79.69%" y2="-16.10%"><stop offset="0%" style="stop-color:rgb(227,211,0);stop-opacity:0.606" /><stop offset="100%" style="stop-color:rgb(244,228,10);stop-opacity:0.676" /></linearGradient><linearGradient id="linear-gradient-4-1" x1="0.00%" y1="100.00%" x2="32.18%" y2="-36.11%"><stop offset="0%" style="stop-color:rgb(240,165,163);stop-opacity:0.652" /><stop offset="100%" style="stop-color:rgb(248,223,221);stop-opacity:0.879" /></linearGradient><linearGradient id="linear-gradient-4-2" x1="0.00%" y1="100.00%" x2="76.57%" y2="-104.43%"><stop offset="0%" style="stop-color:rgb(255,239,0);stop-opacity:0.180" /><stop offset="100%" style="stop-color:rgb(255,255,0);stop-opacity:0.000" /></linearGradient></defs><g id="layer-1"><path d="M2370 4284 c-449 -57 -801 -280 -978 -619 -41 -79 -80 -217 -88 -313 -9 -111 11 -356 36 -426 62 -182 194 -360 372 -502 83 -67 250 -156 363 -195 466 -158 987 -66 1338 236 161 139 273 308 318 480 21 79 24 113 24 275 0 216 -12 282 -80 425 -144 308 -460 536 -855 616 -93 19 -370 33 -450 23z" fill="url(#linear-gradient-1-1)" id="region-1-1" transform="translate(0.000000,496.000000) scale(0.100000,-0.100000)"/><path d="M1285 3556 c-97 -74 -221 -199 -299 -303 -81 -108 -187 -317 -221 -438 -51 -178 -68 -393 -45 -560 15 -106 79 -352 110 -420 15 -35 30 -90 34 -128 3 -37 17 -109 31 -160 240 -924 1470 -1389 2440 -922 390 188 675 500 790 865 30 97 57 259 54 334 -1 35 12 94 39 186 55 179 65 246 64 425 0 120 -5 173 -25 265 -41 194 -128 388 -247 553 -50 69 -277 303 -286 295 -3 -3 3 -34 13 -69 14 -51 17 -104 18 -254 0 -168 -3 -200 -24 -280 -74 -284 -330 -552 -653 -685 -390 -161 -825 -141 -1194 54 -255 135 -459 365 -544 612 -25 70 -45 315 -36 426 4 42 18 116 32 164 13 48 23 88 22 90 -2 1 -35 -21 -73 -50z" fill="url(#linear-gradient-1-2)" id="region-1-2" transform="translate(0.000000,496.000000) scale(0.100000,-0.100000)"/></g><g id="layer-2"><path d="M2530 4041 c0 -41 0 -41 39 -41 68 0 211 -30 291 -61 162 -62 306 -184 383 -323 44 -81 46 -103 13 -112 -25 -6 -25 -6 27 -85 29 -43 57 -79 63 -79 7 0 19 15 27 33 26 55 67 149 67 154 0 2 -12 3 -27 1 -25 -3 -30 2 -52 57 -13 33 -36 79 -52 103 -16 24 -29 45 -29 48 0 3 -26 33 -57 66 -152 159 -379 262 -605 276 l-88 5 0 -42z" fill="url(#linear-gradient-2-1)" id="region-2-1" transform="translate(0.000000,496.000000) scale(0.100000,-0.100000)"/><path d="M2457 3918 c-97 -9 -196 -41 -317 -101 -58 -29 -107 -54 -110 -57 -3 -3 -19 -15 -37 -25 -37 -24 -241 -205 -299 -267 -94 -100 -157 -245 -174 -402 -17 -156 -10 -205 44 -280 149 -208 387 -350 697 -418 138 -29 399 -31 529 -4 340 72 583 223 751 466 76 109 92 151 87 222 -4 56 -7 61 -54 104 -27 25 -86 69 -130 99 -74 49 -81 56 -78 82 2 15 1 22 -2 16 -11 -24 -29 -13 -59 35 -16 26 -52 76 -79 112 -28 35 -61 87 -74 115 -14 29 -52 76 -91 112 -142 135 -389 213 -604 191z" fill="url(#linear-gradient-2-2)" id="region-2-2" transform="translate(0.000000,496.000000) scale(0.100000,-0.100000)"/><path d="M3742 3118 c-26 -153 -114 -317 -244 -454 -173 -183 -401 -305 -681 -366 -147 -31 -427 -31 -574 0 -471 102 -818 399 -920 787 l-13 50 5 -77 c12 -162 103 -342 255 -502 104 -110 192 -177 314 -242 369 -195 804 -215 1194 -54 321 132 580 402 652 680 19 77 39 250 28 250 -2 0 -10 -33 -16 -72z" fill="url(#linear-gradient-2-3)" id="region-2-3" transform="translate(0.000000,496.000000) scale(0.100000,-0.100000)"/><path d="M1170 3020 c-28 -56 -50 -103 -48 -105 2 -2 53 -22 113 -44 61 -21 119 -43 129 -47 16 -6 18 -4 11 12 -5 10 -21 54 -36 98 l-27 79 -21 -41 c-20 -39 -22 -41 -51 -30 l-30 10 37 69 c38 71 38 81 -3 93 -19 6 -28 -5 -74 -94z" fill="url(#linear-gradient-2-4)" id="region-2-4" transform="translate(0.000000,496.000000) scale(0.100000,-0.100000)"/><path d="M1045 2722 c-4 -24 -4 -46 -2 -48 3 -3 57 -19 121 -36 64 -17 115 -32 113 -34 -2 -2 -50 -10 -108 -19 -158 -23 -149 -19 -149 -69 0 -42 2 -44 33 -49 17 -3 98 -9 178 -13 l146 -7 6 29 c3 16 3 31 1 33 -2 2 -52 6 -110 9 -58 3 -102 8 -97 12 4 4 53 12 108 19 101 12 115 19 115 58 0 18 -10 24 -52 36 -29 8 -78 22 -108 30 l-55 15 113 1 113 1 -3 28 c-3 26 -5 27 -88 34 -47 3 -126 8 -177 10 l-91 3 -7 -43z" fill="url(#linear-gradient-2-5)" id="region-2-5" transform="translate(0.000000,496.000000) scale(0.100000,-0.100000)"/><path d="M3330 2398 c-83 -61 -239 -139 -355 -176 -159 -52 -262 -67 -445 -66 -182 1 -296 19 -455 73 -92 32 -286 130 -323 164 l-22 20 0 -24 c1 -66 22 -173 41 -211 12 -23 23 -62 25 -87 7 -71 12 -89 57 -195 46 -110 111 -192 178 -226 108 -56 365 -96 549 -87 229 11 479 87 590 178 19 16 40 29 47 29 26 0 171 151 201 208 71 138 75 198 22 343 -42 116 -36 113 -110 57z" fill="url(#linear-gradient-2-6)" id="region-2-6" transform="translate(0.000000,496.000000) scale(0.100000,-0.100000)"/><path d="M1322 2391 c-14 -8 -10 -31 24 -147 5 -18 0 -22 -30 -28 -20 -4 -40 -5 -45 -2 -5 3 -17 35 -26 71 -17 62 -19 64 -44 59 -14 -4 -29 -10 -33 -13 -4 -4 1 -37 11 -74 11 -37 16 -68 13 -70 -4 -3 -19 -7 -34 -11 -29 -7 -31 -2 -58 102 -10 41 -13 43 -43 40 -25 -2 -31 -7 -29 -23 5 -36 55 -205 61 -205 3 0 74 16 156 36 83 19 158 37 169 39 10 3 20 6 22 8 2 2 -11 53 -28 115 -27 97 -34 112 -52 112 -12 0 -27 -4 -34 -9z" fill="url(#linear-gradient-2-7)" id="region-2-7" transform="translate(0.000000,496.000000) scale(0.100000,-0.100000)"/><path d="M3495 2046 c-38 -17 -145 -143 -145 -171 0 -4 136 -86 260 -158 l85 -49 22 29 c13 15 23 30 23 33 0 3 -25 21 -55 39 -30 18 -55 36 -55 40 0 3 14 26 30 50 57 84 30 160 -68 189 -49 15 -59 15 -97 -2z" fill="url(#linear-gradient-2-8)" id="region-2-8" transform="translate(0.000000,496.000000) scale(0.100000,-0.100000)"/><path d="M4155 1833 c-3 -15 -15 -39 -26 -54 -10 -15 -19 -32 -19 -37 0 -5 -26 -50 -58 -99 -255 -388 -696 -660 -1212 -748 -148 -25 -450 -31 -595 -11 -239 33 -439 93 -628 186 -244 122 -411 250 -564 433 -62 74 -93 115 -171 227 l-24 35 6 -64 c4 -35 18 -105 31 -155 240 -923 1471 -1388 2440 -921 457 220 765 607 831 1045 16 108 18 190 5 190 -5 0 -12 -12 -16 -27z" fill="url(#linear-gradient-2-9)" id="region-2-9" transform="translate(0.000000,496.000000) scale(0.100000,-0.100000)"/><path d="M3240 1798 c-112 -32 -163 -146 -106 -236 29 -47 89 -100 132 -118 45 -19 128 -18 167 2 134 68 143 198 20 302 -69 57 -135 73 -213 50z" fill="url(#linear-gradient-2-10)" id="region-2-10" transform="translate(0.000000,496.000000) scale(0.100000,-0.100000)"/><path d="M2895 1623 c-77 -25 -141 -47 -143 -48 -9 -8 31 -66 43 -62 35 14 96 30 99 26 1 -2 29 -62 61 -132 32 -70 61 -130 65 -132 14 -8 82 16 77 28 -3 7 -28 64 -55 127 -28 63 -52 121 -54 129 -2 8 13 19 37 27 22 8 45 16 52 19 19 6 -5 65 -25 64 -10 0 -80 -21 -157 -46z" fill="url(#linear-gradient-2-11)" id="region-2-11" transform="translate(0.000000,496.000000) scale(0.100000,-0.100000)"/><path d="M2535 1566 c-55 -21 -85 -58 -85 -105 0 -74 41 -101 175 -116 93 -11 117 -32 77 -68 -12 -11 -36 -17 -70 -17 -43 0 -54 4 -71 26 -18 23 -26 26 -57 21 -20 -3 -39 -8 -41 -11 -11 -10 34 -72 63 -85 46 -23 147 -26 199 -7 52 20 75 52 75 104 0 72 -43 102 -170 117 -77 9 -90 14 -90 34 0 29 22 41 72 41 37 0 51 -5 60 -20 16 -26 98 -29 98 -5 0 25 -30 65 -61 80 -43 23 -128 28 -174 11z" fill="url(#linear-gradient-2-12)" id="region-2-12" transform="translate(0.000000,496.000000) scale(0.100000,-0.100000)"/></g><g id="layer-3"><path d="M2453 3899 c-320 -31 -555 -251 -555 -519 0 -228 165 -419 432 -501 98 -31 290 -33 390 -6 262 73 450 284 450 507 0 224 -189 435 -445 499 -96 23 -176 29 -272 20z" fill="url(#linear-gradient-3-1)" id="region-3-1" transform="translate(0.000000,496.000000) scale(0.100000,-0.100000)"/><path d="M2095 3964 c-49 -13 -116 -26 -147 -30 -32 -4 -58 -10 -58 -15 0 -5 11 -16 25 -25 14 -9 25 -21 25 -28 0 -6 -33 -43 -73 -82 -167 -164 -229 -364 -177 -568 19 -74 75 -196 90 -196 4 0 21 7 38 16 l32 15 -34 67 c-18 37 -39 88 -46 114 -15 58 -10 242 8 260 7 7 12 20 12 30 0 10 4 26 8 36 5 9 19 38 31 64 27 54 104 152 143 181 25 19 29 19 51 4 23 -15 25 -14 59 31 20 26 53 68 73 95 21 26 36 49 34 51 -2 1 -44 -7 -94 -20z" fill="url(#linear-gradient-3-2)" id="region-3-2" transform="translate(0.000000,496.000000) scale(0.100000,-0.100000)"/><path d="M3210 3012 c0 -16 -110 -122 -169 -161 -150 -102 -300 -145 -506 -145 -91 0 -154 4 -178 13 -35 12 -39 16 -35 42 l5 29 -101 0 c-56 0 -107 -4 -113 -8 -9 -5 12 -32 66 -86 l78 -78 20 27 19 27 84 -13 c122 -17 312 -7 427 25 159 44 308 130 411 239 28 31 52 60 52 65 0 5 -11 14 -25 20 -31 14 -35 15 -35 4z" fill="url(#linear-gradient-3-3)" id="region-3-3" transform="translate(0.000000,496.000000) scale(0.100000,-0.100000)"/><path d="M3315 2388 c-137 -97 -330 -176 -525 -214 -71 -14 -137 -18 -260 -18 -182 1 -296 19 -455 73 -92 32 -286 130 -322 164 l-23 20 0 -24 c1 -72 22 -174 46 -221 39 -78 218 -251 317 -307 441 -248 962 -90 1230 371 50 87 70 144 65 182 -3 22 -6 21 -73 -26z" fill="url(#linear-gradient-3-4)" id="region-3-4" transform="translate(0.000000,496.000000) scale(0.100000,-0.100000)"/><path d="M3491 1945 c-17 -20 -31 -38 -31 -40 0 -2 21 -16 46 -31 l47 -28 23 29 c34 43 36 62 7 85 -36 28 -57 25 -92 -15z" fill="url(#linear-gradient-3-5)" id="region-3-5" transform="translate(0.000000,496.000000) scale(0.100000,-0.100000)"/><path d="M3226 1709 c-28 -22 -35 -73 -15 -111 19 -35 73 -76 115 -88 35 -10 47 -9 72 4 56 29 66 75 31 133 -48 77 -146 107 -203 62z" fill="url(#linear-gradient-3-6)" id="region-3-6" transform="translate(0.000000,496.000000) scale(0.100000,-0.100000)"/></g><g id="layer-4"><path d="M2440 3667 c-3 -3 -41 -7 -85 -8 -44 -2 -91 -6 -105 -11 -14 -4 -54 -15 -90 -24 -67 -17 -146 -66 -172 -107 -50 -79 -50 -204 1 -312 41 -88 140 -187 234 -233 114 -56 212 -75 347 -69 186 8 318 65 430 184 126 134 154 296 72 422 -28 43 -69 64 -217 112 -80 26 -400 61 -415 46z" fill="url(#linear-gradient-4-1)" id="region-4-1" transform="translate(0.000000,496.000000) scale(0.100000,-0.100000)"/><path d="M1784 2342 c83 -161 283 -311 496 -372 94 -27 319 -38 413 -21 192 37 364 127 484 254 49 51 113 142 113 158 0 4 -30 -10 -67 -31 -204 -120 -494 -189 -740 -177 -222 11 -413 63 -599 161 -58 31 -107 56 -110 56 -2 0 2 -13 10 -28z" fill="url(#linear-gradient-4-2)" id="region-4-2" transform="translate(0.000000,496.000000) scale(0.100000,-0.100000)"/></g></svg>