<?xml version="1.0" encoding="utf-8"?>
<!-- Generator: Adobe Illustrator 26.5.0, SVG Export Plug-In . SVG Version: 6.00 Build 0)  -->
<svg version="1.1" id="图层_1" xmlns="http://www.w3.org/2000/svg" xmlns:xlink="http://www.w3.org/1999/xlink" x="0px" y="0px"
	 viewBox="0 0 2500 496" style="enable-background:new 0 0 2500 496;" xml:space="preserve">
<style type="text/css">
	.st0{fill:none;}
	.st1{fill:#D3D3D3;}
	.st2{fill:url(#SVGID_00000098927214484915116500000011303624724102077349_);}
	.st3{fill:url(#region-1-1_00000141443714221498022210000016151629540074124188_);}
	.st4{fill:url(#region-1-2_00000163036139070240492350000017536516985280508832_);}
	.st5{fill:url(#region-2-1_00000057118636867473441480000010182097101142875803_);}
	.st6{fill:url(#region-2-2_00000003067986839466518800000012355691621303797674_);}
	.st7{fill:url(#region-2-3_00000029760253535554466090000016565057784283426217_);}
	.st8{fill:url(#region-2-4_00000038414012315503372240000009847232344495392917_);}
	.st9{fill:url(#region-2-5_00000066507942058477507130000005292413545966698371_);}
	.st10{fill:url(#region-2-6_00000142176241809790818560000010834057873819623087_);}
	.st11{fill:url(#region-2-7_00000079473503971824415280000016421630534780190350_);}
	.st12{fill:url(#region-2-8_00000085967909826992980440000009126561186501344899_);}
	.st13{fill:url(#region-2-9_00000018236588504377169920000001373575749747797130_);}
	.st14{fill:url(#region-2-10_00000018957652241311941500000006937331717324644020_);}
	.st15{fill:url(#region-2-11_00000063627167552471411210000013498427435006349212_);}
	.st16{fill:url(#region-2-12_00000018933899704808921430000008121955492143663786_);}
	.st17{fill:url(#region-3-1_00000129920269911446419220000000019175893378220714_);}
	.st18{fill:url(#region-3-2_00000127722893197325504090000015148601943430876083_);}
	.st19{fill:url(#region-3-3_00000131352612125833532610000010756564968189119135_);}
	.st20{fill:url(#region-3-4_00000005242982457350269850000001581921355022541730_);}
	.st21{fill:url(#region-3-5_00000039826767849570508200000008939530093770939523_);}
	.st22{fill:url(#region-3-6_00000010294355994650687580000017967186502356286375_);}
	.st23{fill:url(#region-4-1_00000109708069593684246160000010943980137268866699_);}
	.st24{fill:url(#region-4-2_00000108268399198637176310000017845259494636914080_);}
	.st25{fill:none;stroke:#000000;stroke-width:3;stroke-miterlimit:10;}
	.st26{fill:url(#region-1-1_00000167375474930674158160000003202381970032069529_);}
	.st27{fill:url(#region-1-2_00000080200991180682419790000000961592390768524430_);}
	
		.st28{fill:url(#region-2-1_00000008129083010008128390000000903751438636243114_);stroke:#000000;stroke-width:2;stroke-miterlimit:10;}
	
		.st29{fill:url(#region-2-2_00000147195228399899953950000016035824830856269716_);stroke:#000000;stroke-width:2;stroke-miterlimit:10;}
	
		.st30{fill:url(#region-2-3_00000076562013099790342240000008242345111437873564_);stroke:#000000;stroke-width:2;stroke-miterlimit:10;}
	.st31{fill:url(#region-2-4_00000052818222067434758260000008179966773712689024_);}
	.st32{fill:url(#region-2-5_00000081605997727820345610000001091796633530348950_);}
	.st33{fill:url(#region-2-6_00000182517774560114878950000018445124411495532432_);}
	.st34{fill:url(#region-2-7_00000024721823746842830690000007583107301278142865_);}
	.st35{fill:url(#region-2-8_00000049223730309207423860000004292248140957130402_);}
	.st36{fill:url(#region-2-9_00000145055923862015822720000007283372204945855422_);}
	.st37{fill:url(#region-2-10_00000165929601326995452540000010626808182316166568_);}
	.st38{fill:url(#region-2-11_00000114786051347096860220000010065550014360116628_);}
	.st39{fill:url(#region-2-12_00000029753772242367355890000003490965775553357240_);}
	.st40{fill:url(#region-3-1_00000122692742477409602360000009444898264521200259_);}
	
		.st41{fill:url(#region-3-2_00000008118810075667895190000006846989953250957957_);stroke:#000000;stroke-width:2;stroke-miterlimit:10;}
	
		.st42{fill:url(#region-3-3_00000054234429397623923810000002825823803268529288_);stroke:#000000;stroke-width:2;stroke-miterlimit:10;}
	
		.st43{fill:url(#region-3-4_00000023960145339243068450000007338222981296171694_);stroke:#000000;stroke-width:2;stroke-miterlimit:10;}
	
		.st44{fill:url(#region-3-5_00000156573973216011050040000015008674397221684881_);stroke:#000000;stroke-width:2;stroke-miterlimit:10;}
	
		.st45{fill:url(#region-3-6_00000158746643754031814150000010568320686531964805_);stroke:#000000;stroke-width:2;stroke-miterlimit:10;}
	
		.st46{fill:url(#region-4-1_00000158004147917899099070000011065743810675356607_);stroke:#000000;stroke-width:2;stroke-miterlimit:10;}
	
		.st47{fill:url(#region-4-2_00000109747694351683005390000007492257192830793617_);stroke:#000000;stroke-width:2;stroke-miterlimit:10;}
</style>
<pattern  y="496" width="40" height="40" patternUnits="userSpaceOnUse" id="SVGID_1_" viewBox="0 -40 40 40" style="overflow:visible;">
	<g>
		<rect y="-40" class="st0" width="40" height="40"/>
		<g>
			<rect y="-40" class="st0" width="40" height="40"/>
			<rect y="-40" class="st0" width="40" height="40"/>
			<rect y="-20" class="st1" width="20" height="20"/>
			<rect x="20" y="-40" class="st1" width="20" height="20"/>
		</g>
	</g>
</pattern>
<g id="图层_3">
	
		<pattern  id="SVGID_00000062910494236018983360000007283184673913071489_" xlink:href="#SVGID_1_" patternTransform="matrix(1 0 0 -1 991 -17107.2402)">
	</pattern>
	<rect x="500" style="fill:url(#SVGID_00000062910494236018983360000007283184673913071489_);" width="2000" height="496"/>
</g>
<g id="图层_1_00000168823071281175934960000004068623195569766077_">
	<g id="layer-1">
		
			<linearGradient id="region-1-1_00000072266228587023327230000000231640906135497346_" gradientUnits="userSpaceOnUse" x1="-505.4276" y1="-79.29" x2="-505.4276" y2="-80.29" gradientTransform="matrix(245.3194 0 0 -213.4527 124244.4219 -16873.6016)">
			<stop  offset="0" style="stop-color:#F15735;stop-opacity:0.991"/>
			<stop  offset="1" style="stop-color:#C43013;stop-opacity:0.996"/>
		</linearGradient>
		<path id="region-1-1" style="fill:url(#region-1-1_00000072266228587023327230000000231640906135497346_);" d="M237.4,51.4
			c-44.9,5.7-80.1,28-97.8,61.9c-4.1,7.9-8,21.7-8.8,31.3c-0.9,11.1,1.1,35.6,3.6,42.6c6.2,18.2,19.4,36,37.2,50.2
			c8.3,6.7,25,15.6,36.3,19.5c46.6,15.8,98.7,6.6,133.8-23.6c16.1-13.9,27.3-30.8,31.8-48c2.1-7.9,2.4-11.3,2.4-27.5
			c0-21.6-1.2-28.2-8-42.5c-14.4-30.8-46-53.6-85.5-61.6C273.1,51.8,245.4,50.4,237.4,51.4z"/>
		
			<linearGradient id="region-1-2_00000074443979619421282390000009719152068151543451_" gradientUnits="userSpaceOnUse" x1="-506.4255" y1="-79.6256" x2="-505.7664" y2="-78.3964" gradientTransform="matrix(357.2131 0 0 -316.4788 181027.25 -24738.4551)">
			<stop  offset="0" style="stop-color:#9D810C;stop-opacity:0.993"/>
			<stop  offset="1" style="stop-color:#FFFF2A"/>
		</linearGradient>
		<path id="region-1-2" style="fill:url(#region-1-2_00000074443979619421282390000009719152068151543451_);" d="M128.9,124.2
			c-9.7,7.4-22.1,19.9-29.9,30.3c-8.1,10.8-18.7,31.7-22.1,43.8c-5.1,17.8-6.8,39.3-4.5,56c1.5,10.6,7.9,35.2,11,42
			c1.5,3.5,3,9,3.4,12.8c0.3,3.7,1.7,10.9,3.1,16c24,92.4,147,138.9,244,92.2c39-18.8,67.5-50,79-86.5c3-9.7,5.7-25.9,5.4-33.4
			c-0.1-3.5,1.2-9.4,3.9-18.6c5.5-17.9,6.5-24.6,6.4-42.5c0-12-0.5-17.3-2.5-26.5c-4.1-19.4-12.8-38.8-24.7-55.3
			c-5-6.9-27.7-30.3-28.6-29.5c-0.3,0.3,0.3,3.4,1.3,6.9c1.4,5.1,1.7,10.4,1.8,25.4c0,16.8-0.3,20-2.4,28
			c-7.4,28.4-33,55.2-65.3,68.5c-39,16.1-82.5,14.1-119.4-5.4c-25.5-13.5-45.9-36.5-54.4-61.2c-2.5-7-4.5-31.5-3.6-42.6
			c0.4-4.2,1.8-11.6,3.2-16.4c1.3-4.8,2.3-8.8,2.2-9C136,119.1,132.7,121.3,128.9,124.2z"/>
	</g>
	<g id="layer-2">
		
			<linearGradient id="region-2-1_00000041995237235918019810000016640366093162720672_" gradientUnits="userSpaceOnUse" x1="-502.0905" y1="-83.4704" x2="-501.6598" y2="-84.7534" gradientTransform="matrix(91 0 0 -74.3 45973 -6138.397)">
			<stop  offset="0" style="stop-color:#F1D1CE;stop-opacity:0.636"/>
			<stop  offset="1" style="stop-color:#F6FFFF;stop-opacity:0.846"/>
		</linearGradient>
		<path id="region-2-1" style="fill:url(#region-2-1_00000041995237235918019810000016640366093162720672_);" d="M253.4,75.7
			c0,4.1,0,4.1,3.9,4.1c6.8,0,21.1,3,29.1,6.1c16.2,6.2,30.6,18.4,38.3,32.3c4.4,8.1,4.6,10.3,1.3,11.2c-2.5,0.6-2.5,0.6,2.7,8.5
			c2.9,4.3,5.7,7.9,6.3,7.9c0.7,0,1.9-1.5,2.7-3.3c2.6-5.5,6.7-14.9,6.7-15.4c0-0.2-1.2-0.3-2.7-0.1c-2.5,0.3-3-0.2-5.2-5.7
			c-1.3-3.3-3.6-7.9-5.2-10.3s-2.9-4.5-2.9-4.8s-2.6-3.3-5.7-6.6c-15.2-15.9-37.9-26.2-60.5-27.6l-8.8-0.5L253.4,75.7L253.4,75.7z"
			/>
		
			<linearGradient id="region-2-2_00000030457569219522272350000015997070198189177775_" gradientUnits="userSpaceOnUse" x1="-505.0985" y1="-80.0998" x2="-505.0985" y2="-81.0998" gradientTransform="matrix(211.7042 0 0 -157.675 107188.9141 -12542.1045)">
			<stop  offset="0" style="stop-color:#F67F7C;stop-opacity:0.661"/>
			<stop  offset="1" style="stop-color:#F5D1CE;stop-opacity:0.832"/>
		</linearGradient>
		<path id="region-2-2" style="fill:url(#region-2-2_00000030457569219522272350000015997070198189177775_);" d="M246.1,88
			c-9.7,0.9-19.6,4.1-31.7,10.1c-5.8,2.9-10.7,5.4-11,5.7c-0.3,0.3-1.9,1.5-3.7,2.5c-3.7,2.4-24.1,20.5-29.9,26.7
			c-9.4,10-15.7,24.5-17.4,40.2c-1.7,15.6-1,20.5,4.4,28c14.9,20.8,38.7,35,69.7,41.8c13.8,2.9,39.9,3.1,52.9,0.4
			c34-7.2,58.3-22.3,75.1-46.6c7.6-10.9,9.2-15.1,8.7-22.2c-0.4-5.6-0.7-6.1-5.4-10.4c-2.7-2.5-8.6-6.9-13-9.9
			c-7.4-4.9-8.1-5.6-7.8-8.2c0.2-1.5,0.1-2.2-0.2-1.6c-1.1,2.4-2.9,1.3-5.9-3.5c-1.6-2.6-5.2-7.6-7.9-11.2
			c-2.8-3.5-6.1-8.7-7.4-11.5c-1.4-2.9-5.2-7.6-9.1-11.2C292.3,93.6,267.6,85.8,246.1,88z"/>
		
			<linearGradient id="region-2-3_00000036932895720545945660000005032908259214044070_" gradientUnits="userSpaceOnUse" x1="-505.4275" y1="-81.6938" x2="-505.3914" y2="-82.8557" gradientTransform="matrix(245.1136 0 0 -103.7941 124140.7031 -8320.1777)">
			<stop  offset="0" style="stop-color:#B7FBFF;stop-opacity:0.318"/>
			<stop  offset="1" style="stop-color:#88F9FF;stop-opacity:7.100000e-02"/>
		</linearGradient>
		<path id="region-2-3" style="fill:url(#region-2-3_00000036932895720545945660000005032908259214044070_);" d="M374.6,168
			c-2.6,15.3-11.4,31.7-24.4,45.4c-17.3,18.3-40.1,30.5-68.1,36.6c-14.7,3.1-42.7,3.1-57.4,0c-47.1-10.2-81.8-39.9-92-78.7l-1.3-5
			l0.5,7.7c1.2,16.2,10.3,34.2,25.5,50.2c10.4,11,19.2,17.7,31.4,24.2c36.9,19.5,80.4,21.5,119.4,5.4c32.1-13.2,58-40.2,65.2-68
			c1.9-7.7,3.9-25,2.8-25C376,160.8,375.2,164.1,374.6,168z"/>
		
			<linearGradient id="region-2-4_00000050624859650207639330000009905044530450600634_" gradientUnits="userSpaceOnUse" x1="-488.3002" y1="-93.8048" x2="-487.0361" y2="-94.3325" gradientTransform="matrix(25.6955 0 0 -29.4464 12657.502 -2587.936)">
			<stop  offset="0" style="stop-color:#777389;stop-opacity:0.809"/>
			<stop  offset="1" style="stop-color:#8A869D;stop-opacity:0.783"/>
		</linearGradient>
		<path id="region-2-4" style="fill:url(#region-2-4_00000050624859650207639330000009905044530450600634_);" d="M117.4,177.8
			c-2.8,5.6-5,10.3-4.8,10.5s5.3,2.2,11.3,4.4c6.1,2.1,11.9,4.3,12.9,4.7c1.6,0.6,1.8,0.4,1.1-1.2c-0.5-1-2.1-5.4-3.6-9.8l-2.7-7.9
			l-2.1,4.1c-2,3.9-2.2,4.1-5.1,3l-3-1l3.7-6.9c3.8-7.1,3.8-8.1-0.3-9.3C122.9,167.8,122,168.9,117.4,177.8z"/>
		
			<linearGradient id="region-2-5_00000094620356631564472410000011382139120147691953_" gradientUnits="userSpaceOnUse" x1="-494.5004" y1="-92.3711" x2="-494.5004" y2="-93.3711" gradientTransform="matrix(39.1094 0 0 -31.8 19461.5605 -2734.1008)">
			<stop  offset="0" style="stop-color:#757594;stop-opacity:0.755"/>
			<stop  offset="1" style="stop-color:#777BA0;stop-opacity:0.809"/>
		</linearGradient>
		<path id="region-2-5" style="fill:url(#region-2-5_00000094620356631564472410000011382139120147691953_);" d="M104.9,207.6
			c-0.4,2.4-0.4,4.6-0.2,4.8c0.3,0.3,5.7,1.9,12.1,3.6s11.5,3.2,11.3,3.4s-5,1-10.8,1.9c-15.8,2.3-14.9,1.9-14.9,6.9
			c0,4.2,0.2,4.4,3.3,4.9c1.7,0.3,9.8,0.9,17.8,1.3l14.6,0.7l0.6-2.9c0.3-1.6,0.3-3.1,0.1-3.3s-5.2-0.6-11-0.9
			c-5.8-0.3-10.2-0.8-9.7-1.2c0.4-0.4,5.3-1.2,10.8-1.9c10.1-1.2,11.5-1.9,11.5-5.8c0-1.8-1-2.4-5.2-3.6c-2.9-0.8-7.8-2.2-10.8-3
			l-5.5-1.5l11.3-0.1l11.3-0.1l-0.3-2.8c-0.3-2.6-0.5-2.7-8.8-3.4c-4.7-0.3-12.6-0.8-17.7-1l-9.1-0.3L104.9,207.6z"/>
		
			<linearGradient id="region-2-6_00000090980871801187367880000010806942343983890879_" gradientUnits="userSpaceOnUse" x1="-504.5881" y1="-82.7239" x2="-504.5881" y2="-83.7239" gradientTransform="matrix(174.6012 0 0 -85.389 88362.3906 -6827.4756)">
			<stop  offset="0" style="stop-color:#834907;stop-opacity:0.517"/>
			<stop  offset="1" style="stop-color:#581C00;stop-opacity:0.694"/>
		</linearGradient>
		<path id="region-2-6" style="fill:url(#region-2-6_00000090980871801187367880000010806942343983890879_);" d="M333.4,240
			c-8.3,6.1-23.9,13.9-35.5,17.6c-15.9,5.2-26.2,6.7-44.5,6.6c-18.2-0.1-29.6-1.9-45.5-7.3c-9.2-3.2-28.6-13-32.3-16.4l-2.2-2v2.4
			c0.1,6.6,2.2,17.3,4.1,21.1c1.2,2.3,2.3,6.2,2.5,8.7c0.7,7.1,1.2,8.9,5.7,19.5c4.6,11,11.1,19.2,17.8,22.6
			c10.8,5.6,36.5,9.6,54.9,8.7c22.9-1.1,47.9-8.7,59-17.8c1.9-1.6,4-2.9,4.7-2.9c2.6,0,17.1-15.1,20.1-20.8
			c7.1-13.8,7.5-19.8,2.2-34.3C340.2,234.1,340.8,234.4,333.4,240z"/>
		
			<linearGradient id="region-2-7_00000029748325801347490700000004693209212832808323_" gradientUnits="userSpaceOnUse" x1="-495.0963" y1="-92.7345" x2="-495.0161" y2="-93.8518" gradientTransform="matrix(40.8559 0 0 -31 20349.5508 -2636)">
			<stop  offset="0" style="stop-color:#7C7481;stop-opacity:0.755"/>
			<stop  offset="1" style="stop-color:#777283;stop-opacity:0.815"/>
		</linearGradient>
		<path id="region-2-7" style="fill:url(#region-2-7_00000029748325801347490700000004693209212832808323_);" d="M132.6,240.7
			c-1.4,0.8-1,3.1,2.4,14.7c0.5,1.8,0,2.2-3,2.8c-2,0.4-4,0.5-4.5,0.2s-1.7-3.5-2.6-7.1c-1.7-6.2-1.9-6.4-4.4-5.9
			c-1.4,0.4-2.9,1-3.3,1.3c-0.4,0.4,0.1,3.7,1.1,7.4c1.1,3.7,1.6,6.8,1.3,7c-0.4,0.3-1.9,0.7-3.4,1.1c-2.9,0.7-3.1,0.2-5.8-10.2
			c-1-4.1-1.3-4.3-4.3-4c-2.5,0.2-3.1,0.7-2.9,2.3c0.5,3.6,5.5,20.5,6.1,20.5c0.3,0,7.4-1.6,15.6-3.6c8.3-1.9,15.8-3.7,16.9-3.9
			c1-0.3,2-0.6,2.2-0.8c0.2-0.2-1.1-5.3-2.8-11.5c-2.7-9.7-3.4-11.2-5.2-11.2C134.8,239.8,133.3,240.2,132.6,240.7z"/>
		
			<linearGradient id="region-2-8_00000121272084608940546270000000699037344533326996_" gradientUnits="userSpaceOnUse" x1="-495.0434" y1="-89.7538" x2="-493.8446" y2="-90.1293" gradientTransform="matrix(39 0 0 -39.1012 19639 -3225.6716)">
			<stop  offset="0" style="stop-color:#3A2D4A;stop-opacity:0.81"/>
			<stop  offset="1" style="stop-color:#544763;stop-opacity:0.787"/>
		</linearGradient>
		<path id="region-2-8" style="fill:url(#region-2-8_00000121272084608940546270000000699037344533326996_);" d="M349.9,275.2
			c-3.8,1.7-14.5,14.3-14.5,17.1c0,0.4,13.6,8.6,26,15.8l8.5,4.9l2.2-2.9c1.3-1.5,2.3-3,2.3-3.3s-2.5-2.1-5.5-3.9s-5.5-3.6-5.5-4
			c0-0.3,1.4-2.6,3-5c5.7-8.4,3-16-6.8-18.9C354.7,273.5,353.7,273.5,349.9,275.2z"/>
		
			<linearGradient id="region-2-9_00000141443826211499886370000002147007865444123839_" gradientUnits="userSpaceOnUse" x1="-506.4649" y1="-81.4483" x2="-505.5503" y2="-80.1317" gradientTransform="matrix(332.1533 0 0 -141.8774 168311.6719 -11119.5859)">
			<stop  offset="0" style="stop-color:#C6C7A3;stop-opacity:0.966"/>
			<stop  offset="1" style="stop-color:#0F27FF;stop-opacity:0.295"/>
		</linearGradient>
		<path id="region-2-9" style="fill:url(#region-2-9_00000141443826211499886370000002147007865444123839_);" d="M415.9,296.5
			c-0.3,1.5-1.5,3.9-2.6,5.4c-1,1.5-1.9,3.2-1.9,3.7s-2.6,5-5.8,9.9c-25.5,38.8-69.6,66-121.2,74.8c-14.8,2.5-45,3.1-59.5,1.1
			c-23.9-3.3-43.9-9.3-62.8-18.6c-24.4-12.2-41.1-25-56.4-43.3c-6.2-7.4-9.3-11.5-17.1-22.7l-2.4-3.5l0.6,6.4
			c0.4,3.5,1.8,10.5,3.1,15.5c24,92.3,147.1,138.8,244,92.1c45.7-22,76.5-60.7,83.1-104.5c1.6-10.8,1.8-19,0.5-19
			C417,293.8,416.3,295,415.9,296.5z"/>
		
			<linearGradient id="region-2-10_00000089566582366096090460000017796638260203014805_" gradientUnits="userSpaceOnUse" x1="-496.2253" y1="-90.0391" x2="-495.1069" y2="-90.8292" gradientTransform="matrix(42.9192 0 0 -37.7769 21606.0059 -3098.637)">
			<stop  offset="0" style="stop-color:#251228;stop-opacity:0.814"/>
			<stop  offset="1" style="stop-color:#432F45;stop-opacity:0.789"/>
		</linearGradient>
		<path id="region-2-10" style="fill:url(#region-2-10_00000089566582366096090460000017796638260203014805_);" d="M324.4,300
			c-11.2,3.2-16.3,14.6-10.6,23.6c2.9,4.7,8.9,10,13.2,11.8c4.5,1.9,12.8,1.8,16.7-0.2c13.4-6.8,14.3-19.8,2-30.2
			C338.8,299.3,332.2,297.7,324.4,300z"/>
		
			<linearGradient id="region-2-11_00000132786083362535204060000000894574026004585866_" gradientUnits="userSpaceOnUse" x1="-493.126" y1="-89.1905" x2="-492.2556" y2="-90.2697" gradientTransform="matrix(34.6569 0 0 -39.5612 17372.7695 -3222.1104)">
			<stop  offset="0" style="stop-color:#090009;stop-opacity:0.816"/>
			<stop  offset="1" style="stop-color:#241125;stop-opacity:0.793"/>
		</linearGradient>
		<path id="region-2-11" style="fill:url(#region-2-11_00000132786083362535204060000000894574026004585866_);" d="M289.9,317.5
			c-7.7,2.5-14.1,4.7-14.3,4.8c-0.9,0.8,3.1,6.6,4.3,6.2c3.5-1.4,9.6-3,9.9-2.6c0.1,0.2,2.9,6.2,6.1,13.2s6.1,13,6.5,13.2
			c1.4,0.8,8.2-1.6,7.7-2.8c-0.3-0.7-2.8-6.4-5.5-12.7c-2.8-6.3-5.2-12.1-5.4-12.9c-0.2-0.8,1.3-1.9,3.7-2.7
			c2.2-0.8,4.5-1.6,5.2-1.9c1.9-0.6-0.5-6.5-2.5-6.4C304.6,312.9,297.6,315,289.9,317.5z"/>
		
			<linearGradient id="region-2-12_00000178907110921266694620000003144535693985382334_" gradientUnits="userSpaceOnUse" x1="-493.5334" y1="-89.7848" x2="-492.418" y2="-90.6687" gradientTransform="matrix(35 0 0 -38.4569 17517 -3127.7778)">
			<stop  offset="0" style="stop-color:#0F0005;stop-opacity:0.81"/>
			<stop  offset="1" style="stop-color:#1D0B21;stop-opacity:0.785"/>
		</linearGradient>
		<path id="region-2-12" style="fill:url(#region-2-12_00000178907110921266694620000003144535693985382334_);" d="M253.9,323.2
			c-5.5,2.1-8.5,5.8-8.5,10.5c0,7.4,4.1,10.1,17.5,11.6c9.3,1.1,11.7,3.2,7.7,6.8c-1.2,1.1-3.6,1.7-7,1.7c-4.3,0-5.4-0.4-7.1-2.6
			c-1.8-2.3-2.6-2.6-5.7-2.1c-2,0.3-3.9,0.8-4.1,1.1c-1.1,1,3.4,7.2,6.3,8.5c4.6,2.3,14.7,2.6,19.9,0.7c5.2-2,7.5-5.2,7.5-10.4
			c0-7.2-4.3-10.2-17-11.7c-7.7-0.9-9-1.4-9-3.4c0-2.9,2.2-4.1,7.2-4.1c3.7,0,5.1,0.5,6,2c1.6,2.6,9.8,2.9,9.8,0.5
			c0-2.5-3-6.5-6.1-8C267,322,258.5,321.5,253.9,323.2z"/>
	</g>
	<g id="layer-3">
		
			<linearGradient id="region-3-1_00000117644133619362549400000000042743603308386443_" gradientUnits="userSpaceOnUse" x1="-503.8383" y1="-81.5675" x2="-503.1392" y2="-82.8097" gradientTransform="matrix(127.2 0 0 -104.8851 64299.3945 -8475.4434)">
			<stop  offset="0" style="stop-color:#E75139;stop-opacity:0.581"/>
			<stop  offset="1" style="stop-color:#D30F00;stop-opacity:0.904"/>
		</linearGradient>
		<path id="region-3-1" style="fill:url(#region-3-1_00000117644133619362549400000000042743603308386443_);" d="M245.7,89.9
			c-32,3.1-55.5,25.1-55.5,51.9c0,22.8,16.5,41.9,43.2,50.1c9.8,3.1,29,3.3,39,0.6c26.2-7.3,45-28.4,45-50.7
			c0-22.4-18.9-43.5-44.5-49.9C263.3,89.6,255.3,89,245.7,89.9z"/>
		
			<linearGradient id="region-3-2_00000047038992882661814990000007753370572678524072_" gradientUnits="userSpaceOnUse" x1="-497.6681" y1="-82.0701" x2="-497.6681" y2="-83.0701" gradientTransform="matrix(51.7077 0 0 -96.4084 25926.7344 -7830.853)">
			<stop  offset="0" style="stop-color:#EFE9E5;stop-opacity:0.806"/>
			<stop  offset="1" style="stop-color:#F2FCF2;stop-opacity:0.807"/>
		</linearGradient>
		<path id="region-3-2" style="fill:url(#region-3-2_00000047038992882661814990000007753370572678524072_);" d="M209.9,83.4
			c-4.9,1.3-11.6,2.6-14.7,3c-3.2,0.4-5.8,1-5.8,1.5s1.1,1.6,2.5,2.5s2.5,2.1,2.5,2.8c0,0.6-3.3,4.3-7.3,8.2
			c-16.7,16.4-22.9,36.4-17.7,56.8c1.9,7.4,7.5,19.6,9,19.6c0.4,0,2.1-0.7,3.8-1.6l3.2-1.5L182,168c-1.8-3.7-3.9-8.8-4.6-11.4
			c-1.5-5.8-1-24.2,0.8-26c0.7-0.7,1.2-2,1.2-3s0.4-2.6,0.8-3.6c0.5-0.9,1.9-3.8,3.1-6.4c2.7-5.4,10.4-15.2,14.3-18.1
			c2.5-1.9,2.9-1.9,5.1-0.4c2.3,1.5,2.5,1.4,5.9-3.1c2-2.6,5.3-6.8,7.3-9.5c2.1-2.6,3.6-4.9,3.4-5.1
			C219.1,81.3,214.9,82.1,209.9,83.4z"/>
		
			<linearGradient id="region-3-3_00000084532526438219425690000004123996021409683128_" gradientUnits="userSpaceOnUse" x1="-503.1135" y1="-89.1748" x2="-503.1135" y2="-90.1748" gradientTransform="matrix(115.9015 0 0 -40.1469 58581.0547 -3402.2395)">
			<stop  offset="0" style="stop-color:#EEF9EE;stop-opacity:0.776"/>
			<stop  offset="1" style="stop-color:#FBFFF6;stop-opacity:0.804"/>
		</linearGradient>
		<path id="region-3-3" style="fill:url(#region-3-3_00000084532526438219425690000004123996021409683128_);" d="M321.4,178.6
			c0,1.6-11,12.2-16.9,16.1c-15,10.2-30,14.5-50.6,14.5c-9.1,0-15.4-0.4-17.8-1.3c-3.5-1.2-3.9-1.6-3.5-4.2l0.5-2.9H223
			c-5.6,0-10.7,0.4-11.3,0.8c-0.9,0.5,1.2,3.2,6.6,8.6l7.8,7.8l2-2.7l1.9-2.7l8.4,1.3c12.2,1.7,31.2,0.7,42.7-2.5
			c15.9-4.4,30.8-13,41.1-23.9c2.8-3.1,5.2-6,5.2-6.5s-1.1-1.4-2.5-2C321.8,177.6,321.4,177.5,321.4,178.6z"/>
		
			<linearGradient id="region-3-4_00000010300759839658339280000001118541605946540441_" gradientUnits="userSpaceOnUse" x1="-504.4378" y1="-84.1316" x2="-504.3936" y2="-85.3243" gradientTransform="matrix(165.8745 0 0 -68.3623 83929.25 -5515.7114)">
			<stop  offset="0" style="stop-color:#231C00;stop-opacity:0.174"/>
			<stop  offset="1" style="stop-color:#000000;stop-opacity:0.345"/>
		</linearGradient>
		<path id="region-3-4" style="fill:url(#region-3-4_00000010300759839658339280000001118541605946540441_);" d="M331.9,241
			c-13.7,9.7-33,17.6-52.5,21.4c-7.1,1.4-13.7,1.8-26,1.8c-18.2-0.1-29.6-1.9-45.5-7.3c-9.2-3.2-28.6-13-32.2-16.4l-2.3-2v2.4
			c0.1,7.2,2.2,17.4,4.6,22.1c3.9,7.8,21.8,25.1,31.7,30.7c44.1,24.8,96.2,9,123-37.1c5-8.7,7-14.4,6.5-18.2
			C338.9,236.2,338.6,236.3,331.9,241z"/>
		
			<linearGradient id="region-3-5_00000111885133097721570170000003305544025025931396_" gradientUnits="userSpaceOnUse" x1="-472.4628" y1="-113.86" x2="-471.4731" y2="-114.8729" gradientTransform="matrix(14.3245 0 0 -13.2448 7114.8354 -1226.7239)">
			<stop  offset="0" style="stop-color:#F8EE21;stop-opacity:0.529"/>
			<stop  offset="1" style="stop-color:#FFF928;stop-opacity:0.572"/>
		</linearGradient>
		<path id="region-3-5" style="fill:url(#region-3-5_00000111885133097721570170000003305544025025931396_);" d="M349.5,285.3
			c-1.7,2-3.1,3.8-3.1,4s2.1,1.6,4.6,3.1l4.7,2.8l2.3-2.9c3.4-4.3,3.6-6.2,0.7-8.5C355.1,281,353,281.3,349.5,285.3z"/>
		
			<linearGradient id="region-3-6_00000143584361980521980330000010351501063840804481_" gradientUnits="userSpaceOnUse" x1="-487.5416" y1="-98.4787" x2="-486.7447" y2="-99.6397" gradientTransform="matrix(24.9795 0 0 -22.6805 12501.5518 -1928.391)">
			<stop  offset="0" style="stop-color:#E3D300;stop-opacity:0.606"/>
			<stop  offset="1" style="stop-color:#F4E40A;stop-opacity:0.676"/>
		</linearGradient>
		<path id="region-3-6" style="fill:url(#region-3-6_00000143584361980521980330000010351501063840804481_);" d="M323,308.9
			c-2.8,2.2-3.5,7.3-1.5,11.1c1.9,3.5,7.3,7.6,11.5,8.8c3.5,1,4.7,0.9,7.2-0.4c5.6-2.9,6.6-7.5,3.1-13.3
			C338.5,307.4,328.7,304.4,323,308.9z"/>
	</g>
	<g id="layer-4">
		
			<linearGradient id="region-4-1_00000181084525210622363410000017563275337660874409_" gradientUnits="userSpaceOnUse" x1="-503.2654" y1="-83.2687" x2="-502.9435" y2="-84.6299" gradientTransform="matrix(116.7863 0 0 -76.8667 59014.5156 -6294.7769)">
			<stop  offset="0" style="stop-color:#F0A5A3;stop-opacity:0.652"/>
			<stop  offset="1" style="stop-color:#F8DFDD;stop-opacity:0.879"/>
		</linearGradient>
		<path id="region-4-1" style="fill:url(#region-4-1_00000181084525210622363410000017563275337660874409_);" d="M244.4,113.1
			c-0.3,0.3-4.1,0.7-8.5,0.8c-4.4,0.2-9.1,0.6-10.5,1.1c-1.4,0.4-5.4,1.5-9,2.4c-6.7,1.7-14.6,6.6-17.2,10.7c-5,7.9-5,20.4,0.1,31.2
			c4.1,8.8,14,18.7,23.4,23.3c11.4,5.6,21.2,7.5,34.7,6.9c18.6-0.8,31.8-6.5,43-18.4c12.6-13.4,15.4-29.6,7.2-42.2
			c-2.8-4.3-6.9-6.4-21.7-11.2C277.9,115.1,245.9,111.6,244.4,113.1z"/>
		
			<linearGradient id="region-4-2_00000078041155361236497270000013371883457796027055_" gradientUnits="userSpaceOnUse" x1="-504.248" y1="-88.2407" x2="-503.4822" y2="-90.285" gradientTransform="matrix(151.651 0 0 -42.9115 76708.0625 -3550.1587)">
			<stop  offset="0" style="stop-color:#FFEF00;stop-opacity:0.18"/>
			<stop  offset="1" style="stop-color:#FFFF00;stop-opacity:0"/>
		</linearGradient>
		<path id="region-4-2" style="fill:url(#region-4-2_00000078041155361236497270000013371883457796027055_);" d="M178.8,245.6
			c8.3,16.1,28.3,31.1,49.6,37.2c9.4,2.7,31.9,3.8,41.3,2.1c19.2-3.7,36.4-12.7,48.4-25.4c4.9-5.1,11.3-14.2,11.3-15.8
			c0-0.4-3,1-6.7,3.1c-20.4,12-49.4,18.9-74,17.7c-22.2-1.1-41.3-6.3-59.9-16.1c-5.8-3.1-10.7-5.6-11-5.6
			C177.6,242.8,178,244.1,178.8,245.6z"/>
	</g>
	<line class="st25" x1="500" y1="0" x2="500" y2="496"/>
	<line class="st25" x1="1000" y1="0" x2="1000" y2="496"/>
	<line class="st25" x1="1500" y1="0" x2="1500" y2="496"/>
	<line class="st25" x1="2000" y1="0" x2="2000" y2="496"/>
</g>
<g id="图层_2_00000035521995138963861870000010240771426193017524_">
	<g id="layer-1_00000143590078091695565040000007249030372439395200_">
		
			<linearGradient id="region-1-1_00000093161939849651464750000009910263886240139650_" gradientUnits="userSpaceOnUse" x1="-503.3894" y1="-79.2989" x2="-503.3894" y2="-80.2989" gradientTransform="matrix(245.3194 0 0 -213.4527 124244.4219 -16873.6016)">
			<stop  offset="0" style="stop-color:#F15735;stop-opacity:0.991"/>
			<stop  offset="1" style="stop-color:#C43013;stop-opacity:0.996"/>
		</linearGradient>
		
			<path id="region-1-1_00000124123286769305600510000008649308205641779123_" style="fill:url(#region-1-1_00000093161939849651464750000009910263886240139650_);" d="
			M737.4,53.3c-44.9,5.7-80.1,28-97.8,61.9c-4.1,7.9-8,21.7-8.8,31.3c-0.9,11.1,1.1,35.6,3.6,42.6c6.2,18.2,19.4,36,37.2,50.2
			c8.3,6.7,25,15.6,36.3,19.5c46.6,15.8,98.7,6.6,133.8-23.6c16.1-13.9,27.3-30.8,31.8-48c2.1-7.9,2.4-11.3,2.4-27.5
			c0-21.6-1.2-28.2-8-42.5c-14.4-30.8-46-53.6-85.5-61.6C773.1,53.7,745.4,52.3,737.4,53.3z"/>
		
			<linearGradient id="region-1-2_00000029755578211343359290000011931094345306305683_" gradientUnits="userSpaceOnUse" x1="-505.0259" y1="-79.6317" x2="-504.3667" y2="-78.4025" gradientTransform="matrix(357.2131 0 0 -316.4788 181027.25 -24738.4551)">
			<stop  offset="0" style="stop-color:#9D810C;stop-opacity:0.993"/>
			<stop  offset="1" style="stop-color:#FFFF2A"/>
		</linearGradient>
		
			<path id="region-1-2_00000031207808663646097620000002155219768430727552_" style="fill:url(#region-1-2_00000029755578211343359290000011931094345306305683_);" d="
			M628.9,126.1c-9.7,7.4-22.1,19.9-29.9,30.3c-8.1,10.8-18.7,31.7-22.1,43.8c-5.1,17.8-6.8,39.3-4.5,56c1.5,10.6,7.9,35.2,11,42
			c1.5,3.5,3,9,3.4,12.8c0.3,3.7,1.7,10.9,3.1,16c24,92.4,147,138.9,244,92.2c39-18.8,67.5-50,79-86.5c3-9.7,5.7-25.9,5.4-33.4
			c-0.1-3.5,1.2-9.4,3.9-18.6c5.5-17.9,6.5-24.6,6.4-42.5c0-12-0.5-17.3-2.5-26.5c-4.1-19.4-12.8-38.8-24.7-55.3
			c-5-6.9-27.7-30.3-28.6-29.5c-0.3,0.3,0.3,3.4,1.3,6.9c1.4,5.1,1.7,10.4,1.8,25.4c0,16.8-0.3,20-2.4,28
			c-7.4,28.4-33,55.2-65.3,68.5c-39,16.1-82.5,14.1-119.4-5.4c-25.5-13.5-45.9-36.5-54.4-61.2c-2.5-7-4.5-31.5-3.6-42.6
			c0.4-4.2,1.8-11.6,3.2-16.4c1.3-4.8,2.3-8.8,2.2-9C636,121,632.7,123.2,628.9,126.1z"/>
	</g>
	<g id="layer-2_00000103952933197781129920000017936898728278947259_">
		
			<linearGradient id="region-2-1_00000173876098455182214720000003729214876759054243_" gradientUnits="userSpaceOnUse" x1="-491.1378" y1="-83.4932" x2="-490.7071" y2="-84.7761" gradientTransform="matrix(91 0 0 -74.3 45973 -6138.397)">
			<stop  offset="0" style="stop-color:#F1D1CE;stop-opacity:0.636"/>
			<stop  offset="1" style="stop-color:#F6FFFF;stop-opacity:0.846"/>
		</linearGradient>
		
			<path id="region-2-1_00000096059090408349600040000008484164199532900495_" style="fill:url(#region-2-1_00000173876098455182214720000003729214876759054243_);stroke:#000000;stroke-width:2;stroke-miterlimit:10;" d="
			M1250.1,77.4c0,4.1,0,4.1,3.9,4.1c6.8,0,21.1,3,29.1,6.1c16.2,6.2,30.6,18.4,38.3,32.3c4.4,8.1,4.6,10.3,1.3,11.2
			c-2.5,0.6-2.5,0.6,2.7,8.5c2.9,4.3,5.7,7.9,6.3,7.9c0.7,0,1.9-1.5,2.7-3.3c2.6-5.5,6.7-14.9,6.7-15.4c0-0.2-1.2-0.3-2.7-0.1
			c-2.5,0.3-3-0.2-5.2-5.7c-1.3-3.3-3.6-7.9-5.2-10.3s-2.9-4.5-2.9-4.8s-2.6-3.3-5.7-6.6c-15.2-15.9-37.9-26.2-60.5-27.6l-8.8-0.5
			L1250.1,77.4L1250.1,77.4z"/>
		
			<linearGradient id="region-2-2_00000031886397016999392260000015853547028077150892_" gradientUnits="userSpaceOnUse" x1="-500.3906" y1="-80.1106" x2="-500.3906" y2="-81.1106" gradientTransform="matrix(211.7042 0 0 -157.675 107188.9141 -12542.1045)">
			<stop  offset="0" style="stop-color:#F67F7C;stop-opacity:0.661"/>
			<stop  offset="1" style="stop-color:#F5D1CE;stop-opacity:0.832"/>
		</linearGradient>
		
			<path id="region-2-2_00000024004025752072058570000009937480446733395329_" style="fill:url(#region-2-2_00000031886397016999392260000015853547028077150892_);stroke:#000000;stroke-width:2;stroke-miterlimit:10;" d="
			M1242.8,89.7c-9.7,0.9-19.6,4.1-31.7,10.1c-5.8,2.9-10.7,5.4-11,5.7c-0.3,0.3-1.9,1.5-3.7,2.5c-3.7,2.4-24.1,20.5-29.9,26.7
			c-9.4,10-15.7,24.5-17.4,40.2c-1.7,15.6-1,20.5,4.4,28c14.9,20.8,38.7,35,69.7,41.8c13.8,2.9,39.9,3.1,52.9,0.4
			c34-7.2,58.3-22.3,75.1-46.6c7.6-10.9,9.2-15.1,8.7-22.2c-0.4-5.6-0.7-6.1-5.4-10.4c-2.7-2.5-8.6-6.9-13-9.9
			c-7.4-4.9-8.1-5.6-7.8-8.2c0.2-1.5,0.1-2.2-0.2-1.6c-1.1,2.4-2.9,1.3-5.9-3.5c-1.6-2.6-5.2-7.6-7.9-11.2
			c-2.8-3.5-6.1-8.7-7.4-11.5c-1.4-2.9-5.2-7.6-9.1-11.2C1289,95.3,1264.3,87.5,1242.8,89.7z"/>
		
			<linearGradient id="region-2-3_00000011032360149838979970000011017654259364667537_" gradientUnits="userSpaceOnUse" x1="-501.3612" y1="-81.7103" x2="-501.3251" y2="-82.8722" gradientTransform="matrix(245.1136 0 0 -103.7941 124140.7031 -8320.1777)">
			<stop  offset="0" style="stop-color:#B7FBFF;stop-opacity:0.318"/>
			<stop  offset="1" style="stop-color:#88F9FF;stop-opacity:7.100000e-02"/>
		</linearGradient>
		
			<path id="region-2-3_00000011712718482304307500000003111540506108434857_" style="fill:url(#region-2-3_00000011032360149838979970000011017654259364667537_);stroke:#000000;stroke-width:2;stroke-miterlimit:10;" d="
			M1371.3,169.7c-2.6,15.3-11.4,31.7-24.4,45.4c-17.3,18.3-40.1,30.5-68.1,36.6c-14.7,3.1-42.7,3.1-57.4,0
			c-47.1-10.2-81.8-39.9-92-78.7l-1.3-5l0.5,7.7c1.2,16.2,10.3,34.2,25.5,50.2c10.4,11,19.2,17.7,31.4,24.2
			c36.9,19.5,80.4,21.5,119.4,5.4c32.1-13.2,58-40.2,65.2-68c1.9-7.7,3.9-25,2.8-25C1372.7,162.5,1371.9,165.8,1371.3,169.7z"/>
		
			<linearGradient id="region-2-4_00000058583746177927820890000018349493238897099173_" gradientUnits="userSpaceOnUse" x1="-449.5104" y1="-93.8629" x2="-448.2463" y2="-94.3906" gradientTransform="matrix(25.6955 0 0 -29.4464 12657.502 -2587.936)">
			<stop  offset="0" style="stop-color:#777389;stop-opacity:0.809"/>
			<stop  offset="1" style="stop-color:#8A869D;stop-opacity:0.783"/>
		</linearGradient>
		
			<path id="region-2-4_00000008150898752279062840000000428776514148236721_" style="fill:url(#region-2-4_00000058583746177927820890000018349493238897099173_);" d="
			M1114.1,179.5c-2.8,5.6-5,10.3-4.8,10.5s5.3,2.2,11.3,4.4c6.1,2.1,11.9,4.3,12.9,4.7c1.6,0.6,1.8,0.4,1.1-1.2
			c-0.5-1-2.1-5.4-3.6-9.8l-2.7-7.9l-2.1,4.1c-2,3.9-2.2,4.1-5.1,3l-3-1l3.7-6.9c3.8-7.1,3.8-8.1-0.3-9.3
			C1119.6,169.5,1118.7,170.6,1114.1,179.5z"/>
		
			<linearGradient id="region-2-5_00000018233320250811911400000000582903029464955289_" gradientUnits="userSpaceOnUse" x1="-469.0155" y1="-92.4246" x2="-469.0155" y2="-93.4246" gradientTransform="matrix(39.1094 0 0 -31.8 19461.5605 -2734.1008)">
			<stop  offset="0" style="stop-color:#757594;stop-opacity:0.755"/>
			<stop  offset="1" style="stop-color:#777BA0;stop-opacity:0.809"/>
		</linearGradient>
		
			<path id="region-2-5_00000031909882334794484200000013667694061187022208_" style="fill:url(#region-2-5_00000018233320250811911400000000582903029464955289_);" d="
			M1101.6,209.3c-0.4,2.4-0.4,4.6-0.2,4.8c0.3,0.3,5.7,1.9,12.1,3.6c6.4,1.7,11.5,3.2,11.3,3.4s-5,1-10.8,1.9
			c-15.8,2.3-14.9,1.9-14.9,6.9c0,4.2,0.2,4.4,3.3,4.9c1.7,0.3,9.8,0.9,17.8,1.3l14.6,0.7l0.6-2.9c0.3-1.6,0.3-3.1,0.1-3.3
			c-0.2-0.2-5.2-0.6-11-0.9c-5.8-0.3-10.2-0.8-9.7-1.2c0.4-0.4,5.3-1.2,10.8-1.9c10.1-1.2,11.5-1.9,11.5-5.8c0-1.8-1-2.4-5.2-3.6
			c-2.9-0.8-7.8-2.2-10.8-3l-5.5-1.5l11.3-0.1l11.3-0.1l-0.3-2.8c-0.3-2.6-0.5-2.7-8.8-3.4c-4.7-0.3-12.6-0.8-17.7-1l-9.1-0.3
			L1101.6,209.3z"/>
		
			<linearGradient id="region-2-6_00000036937632961991182850000000705095768556928947_" gradientUnits="userSpaceOnUse" x1="-498.8797" y1="-82.7438" x2="-498.8797" y2="-83.7438" gradientTransform="matrix(174.6012 0 0 -85.389 88362.3906 -6827.4756)">
			<stop  offset="0" style="stop-color:#834907;stop-opacity:0.517"/>
			<stop  offset="1" style="stop-color:#581C00;stop-opacity:0.694"/>
		</linearGradient>
		
			<path id="region-2-6_00000132781792944141586780000012807619638086346886_" style="fill:url(#region-2-6_00000036937632961991182850000000705095768556928947_);" d="
			M1330.1,241.7c-8.3,6.1-23.9,13.9-35.5,17.6c-15.9,5.2-26.2,6.7-44.5,6.6c-18.2-0.1-29.6-1.9-45.5-7.3c-9.2-3.2-28.6-13-32.3-16.4
			l-2.2-2v2.4c0.1,6.6,2.2,17.3,4.1,21.1c1.2,2.3,2.3,6.2,2.5,8.7c0.7,7.1,1.2,8.9,5.7,19.5c4.6,11,11.1,19.2,17.8,22.6
			c10.8,5.6,36.5,9.6,54.9,8.7c22.9-1.1,47.9-8.7,59-17.8c1.9-1.6,4-2.9,4.7-2.9c2.6,0,17.1-15.1,20.1-20.8
			c7.1-13.8,7.5-19.8,2.2-34.3C1336.9,235.8,1337.5,236.1,1330.1,241.7z"/>
		
			<linearGradient id="region-2-7_00000000942139316182272190000007860535954852882108_" gradientUnits="userSpaceOnUse" x1="-470.7007" y1="-92.7897" x2="-470.6205" y2="-93.907" gradientTransform="matrix(40.8559 0 0 -31 20349.5508 -2636)">
			<stop  offset="0" style="stop-color:#7C7481;stop-opacity:0.755"/>
			<stop  offset="1" style="stop-color:#777283;stop-opacity:0.815"/>
		</linearGradient>
		
			<path id="region-2-7_00000011736236489260574880000000164961394286832573_" style="fill:url(#region-2-7_00000000942139316182272190000007860535954852882108_);" d="
			M1129.3,242.4c-1.4,0.8-1,3.1,2.4,14.7c0.5,1.8,0,2.2-3,2.8c-2,0.4-4,0.5-4.5,0.2s-1.7-3.5-2.6-7.1c-1.7-6.2-1.9-6.4-4.4-5.9
			c-1.4,0.4-2.9,1-3.3,1.3c-0.4,0.4,0.1,3.7,1.1,7.4c1.1,3.7,1.6,6.8,1.3,7c-0.4,0.3-1.9,0.7-3.4,1.1c-2.9,0.7-3.1,0.2-5.8-10.2
			c-1-4.1-1.3-4.3-4.3-4c-2.5,0.2-3.1,0.7-2.9,2.3c0.5,3.6,5.5,20.5,6.1,20.5c0.3,0,7.4-1.6,15.6-3.6c8.3-1.9,15.8-3.7,16.9-3.9
			c1-0.3,2-0.6,2.2-0.8c0.2-0.2-1.1-5.3-2.8-11.5c-2.7-9.7-3.4-11.2-5.2-11.2C1131.5,241.5,1130,241.9,1129.3,242.4z"/>
		
			<linearGradient id="region-2-8_00000070803453473692587650000011179354323740150156_" gradientUnits="userSpaceOnUse" x1="-469.4864" y1="-89.7976" x2="-468.2876" y2="-90.1729" gradientTransform="matrix(39 0 0 -39.1012 19639 -3225.6716)">
			<stop  offset="0" style="stop-color:#3A2D4A;stop-opacity:0.81"/>
			<stop  offset="1" style="stop-color:#544763;stop-opacity:0.787"/>
		</linearGradient>
		
			<path id="region-2-8_00000049197559801182552480000015473421318551688837_" style="fill:url(#region-2-8_00000070803453473692587650000011179354323740150156_);" d="
			M1346.6,276.9c-3.8,1.7-14.5,14.3-14.5,17.1c0,0.4,13.6,8.6,26,15.8l8.5,4.9l2.2-2.9c1.3-1.5,2.3-3,2.3-3.3s-2.5-2.1-5.5-3.9
			s-5.5-3.6-5.5-4c0-0.3,1.4-2.6,3-5c5.7-8.4,3-16-6.8-18.9C1351.4,275.2,1350.4,275.2,1346.6,276.9z"/>
		
			<linearGradient id="region-2-9_00000156545823347434820010000002460544130569996674_" gradientUnits="userSpaceOnUse" x1="-503.4643" y1="-81.4603" x2="-502.5496" y2="-80.1437" gradientTransform="matrix(332.1533 0 0 -141.8774 168311.6719 -11119.5859)">
			<stop  offset="0" style="stop-color:#C6C7A3;stop-opacity:0.966"/>
			<stop  offset="1" style="stop-color:#0F27FF;stop-opacity:0.295"/>
		</linearGradient>
		
			<path id="region-2-9_00000013172228744116838850000007133061724855595434_" style="fill:url(#region-2-9_00000156545823347434820010000002460544130569996674_);" d="
			M1412.6,298.2c-0.3,1.5-1.5,3.9-2.6,5.4c-1,1.5-1.9,3.2-1.9,3.7s-2.6,5-5.8,9.9c-25.5,38.8-69.6,66-121.2,74.8
			c-14.8,2.5-45,3.1-59.5,1.1c-23.9-3.3-43.9-9.3-62.8-18.6c-24.4-12.2-41.1-25-56.4-43.3c-6.2-7.4-9.3-11.5-17.1-22.7l-2.4-3.5
			l0.6,6.4c0.4,3.5,1.8,10.5,3.1,15.5c24,92.3,147.1,138.8,244,92.1c45.7-22,76.5-60.7,83.1-104.5c1.6-10.8,1.8-19,0.5-19
			C1413.7,295.5,1413,296.7,1412.6,298.2z"/>
		
			<linearGradient id="region-2-10_00000070103916652191647120000014611196545545446842_" gradientUnits="userSpaceOnUse" x1="-473.0021" y1="-90.0845" x2="-471.8836" y2="-90.8745" gradientTransform="matrix(42.9192 0 0 -37.7769 21606.0059 -3098.637)">
			<stop  offset="0" style="stop-color:#251228;stop-opacity:0.814"/>
			<stop  offset="1" style="stop-color:#432F45;stop-opacity:0.789"/>
		</linearGradient>
		
			<path id="region-2-10_00000047035646431935023690000010341928869801084848_" style="fill:url(#region-2-10_00000070103916652191647120000014611196545545446842_);" d="
			M1321.1,301.7c-11.2,3.2-16.3,14.6-10.6,23.6c2.9,4.7,8.9,10,13.2,11.8c4.5,1.9,12.8,1.8,16.7-0.2c13.4-6.8,14.3-19.8,2-30.2
			C1335.5,301,1328.9,299.4,1321.1,301.7z"/>
		
			<linearGradient id="region-2-11_00000039854648227172728570000012311053231642626740_" gradientUnits="userSpaceOnUse" x1="-464.3666" y1="-89.2339" x2="-463.4961" y2="-90.3132" gradientTransform="matrix(34.6569 0 0 -39.5612 17372.7695 -3222.1104)">
			<stop  offset="0" style="stop-color:#090009;stop-opacity:0.816"/>
			<stop  offset="1" style="stop-color:#241125;stop-opacity:0.793"/>
		</linearGradient>
		
			<path id="region-2-11_00000134966635402206711470000008964810029435689092_" style="fill:url(#region-2-11_00000039854648227172728570000012311053231642626740_);" d="
			M1286.6,319.2c-7.7,2.5-14.1,4.7-14.3,4.8c-0.9,0.8,3.1,6.6,4.3,6.2c3.5-1.4,9.6-3,9.9-2.6c0.1,0.2,2.9,6.2,6.1,13.2
			s6.1,13,6.5,13.2c1.4,0.8,8.2-1.6,7.7-2.8c-0.3-0.7-2.8-6.4-5.5-12.7c-2.8-6.3-5.2-12.1-5.4-12.9s1.3-1.9,3.7-2.7
			c2.2-0.8,4.5-1.6,5.2-1.9c1.9-0.6-0.5-6.5-2.5-6.4C1301.3,314.6,1294.3,316.7,1286.6,319.2z"/>
		
			<linearGradient id="region-2-12_00000149363588226708330740000016492177729990985619_" gradientUnits="userSpaceOnUse" x1="-465.0558" y1="-89.8294" x2="-463.9403" y2="-90.7133" gradientTransform="matrix(35 0 0 -38.4569 17517 -3127.7778)">
			<stop  offset="0" style="stop-color:#0F0005;stop-opacity:0.81"/>
			<stop  offset="1" style="stop-color:#1D0B21;stop-opacity:0.785"/>
		</linearGradient>
		
			<path id="region-2-12_00000147905479088366179490000009136020867760957064_" style="fill:url(#region-2-12_00000149363588226708330740000016492177729990985619_);" d="
			M1250.6,324.9c-5.5,2.1-8.5,5.8-8.5,10.5c0,7.4,4.1,10.1,17.5,11.6c9.3,1.1,11.7,3.2,7.7,6.8c-1.2,1.1-3.6,1.7-7,1.7
			c-4.3,0-5.4-0.4-7.1-2.6c-1.8-2.3-2.6-2.6-5.7-2.1c-2,0.3-3.9,0.8-4.1,1.1c-1.1,1,3.4,7.2,6.3,8.5c4.6,2.3,14.7,2.6,19.9,0.7
			c5.2-2,7.5-5.2,7.5-10.4c0-7.2-4.3-10.2-17-11.7c-7.7-0.9-9-1.4-9-3.4c0-2.9,2.2-4.1,7.2-4.1c3.7,0,5.1,0.5,6,2
			c1.6,2.6,9.8,2.9,9.8,0.5c0-2.5-3-6.5-6.1-8C1263.7,323.7,1255.2,323.2,1250.6,324.9z"/>
	</g>
	<g id="layer-3_00000088096674697690108750000013853157069028008870_">
		
			<linearGradient id="region-3-1_00000031921321878479338950000017917239251504785320_" gradientUnits="userSpaceOnUse" x1="-492.1575" y1="-81.5637" x2="-491.4584" y2="-82.8059" gradientTransform="matrix(127.2 0 0 -104.8851 64299.3945 -8475.4434)">
			<stop  offset="0" style="stop-color:#E75139;stop-opacity:0.581"/>
			<stop  offset="1" style="stop-color:#D30F00;stop-opacity:0.904"/>
		</linearGradient>
		
			<path id="region-3-1_00000037675050581164311850000010716043937521215678_" style="fill:url(#region-3-1_00000031921321878479338950000017917239251504785320_);" d="
			M1731.5,89.5c-32,3.1-55.5,25.1-55.5,51.9c0,22.8,16.5,41.9,43.2,50.1c9.8,3.1,29,3.3,39,0.6c26.2-7.3,45-28.4,45-50.7
			c0-22.4-18.9-43.5-44.5-49.9C1749.1,89.2,1741.1,88.6,1731.5,89.5z"/>
		
			<linearGradient id="region-3-2_00000061449956514565928140000011289324793612012446_" gradientUnits="userSpaceOnUse" x1="-468.9335" y1="-82.0659" x2="-468.9335" y2="-83.0659" gradientTransform="matrix(51.7077 0 0 -96.4084 25926.7344 -7830.853)">
			<stop  offset="0" style="stop-color:#EFE9E5;stop-opacity:0.806"/>
			<stop  offset="1" style="stop-color:#F2FCF2;stop-opacity:0.807"/>
		</linearGradient>
		
			<path id="region-3-2_00000150797161585963392750000012341956764237532589_" style="fill:url(#region-3-2_00000061449956514565928140000011289324793612012446_);stroke:#000000;stroke-width:2;stroke-miterlimit:10;" d="
			M1695.7,83c-4.9,1.3-11.6,2.6-14.7,3c-3.2,0.4-5.8,1-5.8,1.5s1.1,1.6,2.5,2.5s2.5,2.1,2.5,2.8c0,0.6-3.3,4.3-7.3,8.2
			c-16.7,16.4-22.9,36.4-17.7,56.8c1.9,7.4,7.5,19.6,9,19.6c0.4,0,2.1-0.7,3.8-1.6l3.2-1.5l-3.4-6.7c-1.8-3.7-3.9-8.8-4.6-11.4
			c-1.5-5.8-1-24.2,0.8-26c0.7-0.7,1.2-2,1.2-3s0.4-2.6,0.8-3.6c0.5-0.9,1.9-3.8,3.1-6.4c2.7-5.4,10.4-15.2,14.3-18.1
			c2.5-1.9,2.9-1.9,5.1-0.4c2.3,1.5,2.5,1.4,5.9-3.1c2-2.6,5.3-6.8,7.3-9.5c2.1-2.6,3.6-4.9,3.4-5.1
			C1704.9,80.9,1700.7,81.7,1695.7,83z"/>
		
			<linearGradient id="region-3-3_00000124122369736531226350000016707173439901657999_" gradientUnits="userSpaceOnUse" x1="-490.294" y1="-89.1649" x2="-490.294" y2="-90.1649" gradientTransform="matrix(115.9015 0 0 -40.1469 58581.0547 -3402.2395)">
			<stop  offset="0" style="stop-color:#EEF9EE;stop-opacity:0.776"/>
			<stop  offset="1" style="stop-color:#FBFFF6;stop-opacity:0.804"/>
		</linearGradient>
		
			<path id="region-3-3_00000072250773481211474800000003933083761971507586_" style="fill:url(#region-3-3_00000124122369736531226350000016707173439901657999_);stroke:#000000;stroke-width:2;stroke-miterlimit:10;" d="
			M1807.2,178.2c0,1.6-11,12.2-16.9,16.1c-15,10.2-30,14.5-50.6,14.5c-9.1,0-15.4-0.4-17.8-1.3c-3.5-1.2-3.9-1.6-3.5-4.2l0.5-2.9
			h-10.1c-5.6,0-10.7,0.4-11.3,0.8c-0.9,0.5,1.2,3.2,6.6,8.6l7.8,7.8l2-2.7l1.9-2.7l8.4,1.3c12.2,1.7,31.2,0.7,42.7-2.5
			c15.9-4.4,30.8-13,41.1-23.9c2.8-3.1,5.2-6,5.2-6.5s-1.1-1.4-2.5-2C1807.6,177.2,1807.2,177.1,1807.2,178.2z"/>
		
			<linearGradient id="region-3-4_00000054960110092500539290000007733138540052285109_" gradientUnits="userSpaceOnUse" x1="-495.4804" y1="-84.1255" x2="-495.4362" y2="-85.3181" gradientTransform="matrix(165.8745 0 0 -68.3623 83929.25 -5515.7114)">
			<stop  offset="0" style="stop-color:#231C00;stop-opacity:0.174"/>
			<stop  offset="1" style="stop-color:#000000;stop-opacity:0.345"/>
		</linearGradient>
		
			<path id="region-3-4_00000046322003255329594570000006746656103537643920_" style="fill:url(#region-3-4_00000054960110092500539290000007733138540052285109_);stroke:#000000;stroke-width:2;stroke-miterlimit:10;" d="
			M1817.7,240.6c-13.7,9.7-33,17.6-52.5,21.4c-7.1,1.4-13.7,1.8-26,1.8c-18.2-0.1-29.6-1.9-45.5-7.3c-9.2-3.2-28.6-13-32.2-16.4
			l-2.3-2v2.4c0.1,7.2,2.2,17.4,4.6,22.1c3.9,7.8,21.8,25.1,31.7,30.7c44.1,24.8,96.2,9,123-37.1c5-8.7,7-14.4,6.5-18.2
			C1824.7,235.8,1824.4,235.9,1817.7,240.6z"/>
		
			<linearGradient id="region-3-5_00000047020554377719999340000015986946611056495805_" gradientUnits="userSpaceOnUse" x1="-368.7382" y1="-113.83" x2="-367.7485" y2="-114.8429" gradientTransform="matrix(14.3245 0 0 -13.2448 7114.8354 -1226.7239)">
			<stop  offset="0" style="stop-color:#F8EE21;stop-opacity:0.529"/>
			<stop  offset="1" style="stop-color:#FFF928;stop-opacity:0.572"/>
		</linearGradient>
		
			<path id="region-3-5_00000035520555755984584680000017618489259514727091_" style="fill:url(#region-3-5_00000047020554377719999340000015986946611056495805_);stroke:#000000;stroke-width:2;stroke-miterlimit:10;" d="
			M1835.3,284.9c-1.7,2-3.1,3.8-3.1,4s2.1,1.6,4.6,3.1l4.7,2.8l2.3-2.9c3.4-4.3,3.6-6.2,0.7-8.5
			C1840.9,280.6,1838.8,280.9,1835.3,284.9z"/>
		
			<linearGradient id="region-3-6_00000010310087368156204140000013782771311290573186_" gradientUnits="userSpaceOnUse" x1="-428.0608" y1="-98.4611" x2="-427.2639" y2="-99.6221" gradientTransform="matrix(24.9795 0 0 -22.6805 12501.5518 -1928.391)">
			<stop  offset="0" style="stop-color:#E3D300;stop-opacity:0.606"/>
			<stop  offset="1" style="stop-color:#F4E40A;stop-opacity:0.676"/>
		</linearGradient>
		
			<path id="region-3-6_00000175304706825595802050000005232001699190474915_" style="fill:url(#region-3-6_00000010310087368156204140000013782771311290573186_);stroke:#000000;stroke-width:2;stroke-miterlimit:10;" d="
			M1808.8,308.5c-2.8,2.2-3.5,7.3-1.5,11.1c1.9,3.5,7.3,7.6,11.5,8.8c3.5,1,4.7,0.9,7.2-0.4c5.6-2.9,6.6-7.5,3.1-13.3
			C1824.3,307,1814.5,304,1808.8,308.5z"/>
	</g>
	<g id="layer-4_00000163067045620552113720000012936837256970785462_">
		
			<linearGradient id="region-4-1_00000055704501789719630770000013388347002451715519_" gradientUnits="userSpaceOnUse" x1="-486.2703" y1="-83.249" x2="-485.9485" y2="-84.6101" gradientTransform="matrix(116.7863 0 0 -76.8667 59014.5156 -6294.7769)">
			<stop  offset="0" style="stop-color:#F0A5A3;stop-opacity:0.652"/>
			<stop  offset="1" style="stop-color:#F8DFDD;stop-opacity:0.879"/>
		</linearGradient>
		
			<path id="region-4-1_00000075132471394720465210000017426944053992398502_" style="fill:url(#region-4-1_00000055704501789719630770000013388347002451715519_);stroke:#000000;stroke-width:2;stroke-miterlimit:10;" d="
			M2229.2,111.6c-0.3,0.3-4.1,0.7-8.5,0.8c-4.4,0.2-9.1,0.6-10.5,1.1c-1.4,0.4-5.4,1.5-9,2.4c-6.7,1.7-14.6,6.6-17.2,10.7
			c-5,7.9-5,20.4,0.1,31.2c4.1,8.8,14,18.7,23.4,23.3c11.4,5.6,21.2,7.5,34.7,6.9c18.6-0.8,31.8-6.5,43-18.4
			c12.6-13.4,15.4-29.6,7.2-42.2c-2.8-4.3-6.9-6.4-21.7-11.2C2262.7,113.6,2230.7,110.1,2229.2,111.6z"/>
		
			<linearGradient id="region-4-2_00000073680030487087028720000006564397812382411917_" gradientUnits="userSpaceOnUse" x1="-491.1601" y1="-88.2058" x2="-490.3944" y2="-90.2501" gradientTransform="matrix(151.651 0 0 -42.9115 76708.0625 -3550.1587)">
			<stop  offset="0" style="stop-color:#FFEF00;stop-opacity:0.18"/>
			<stop  offset="1" style="stop-color:#FFFF00;stop-opacity:0"/>
		</linearGradient>
		
			<path id="region-4-2_00000082358247521132451100000013708853859604101567_" style="fill:url(#region-4-2_00000073680030487087028720000006564397812382411917_);stroke:#000000;stroke-width:2;stroke-miterlimit:10;" d="
			M2163.6,244.1c8.3,16.1,28.3,31.1,49.6,37.2c9.4,2.7,31.9,3.8,41.3,2.1c19.2-3.7,36.4-12.7,48.4-25.4c4.9-5.1,11.3-14.2,11.3-15.8
			c0-0.4-3,1-6.7,3.1c-20.4,12-49.4,18.9-74,17.7c-22.2-1.1-41.3-6.3-59.9-16.1c-5.8-3.1-10.7-5.6-11-5.6
			C2162.4,241.3,2162.8,242.6,2163.6,244.1z"/>
	</g>
</g>
</svg>
