<?xml version="1.0" encoding="utf-8"?>
<!-- Generator: Adobe Illustrator 26.5.0, SVG Export Plug-In . SVG Version: 6.00 Build 0)  -->
<svg version="1.1" id="图层_1" xmlns="http://www.w3.org/2000/svg" xmlns:xlink="http://www.w3.org/1999/xlink" x="0px" y="0px"
	 viewBox="0 0 623.3 600" style="enable-background:new 0 0 623.3 600;" xml:space="preserve">
<style type="text/css">
	.st0{fill:none;}
	.st1{fill:#D3D3D3;}
	.st2{fill:url(#SVGID_00000031165861102695590090000012429379516665587098_);}
	.st3{fill:none;stroke:#020000;stroke-width:3;stroke-miterlimit:10;}
	.st4{fill:#020000;}
	.st5{fill:url(#region-1-1_00000077282792689157288570000004850273963553873335_);}
	.st6{fill:url(#region-1-2_00000053532282348352406650000011622794625222104756_);}
	.st7{fill:url(#region-1-3_00000035514416999858882230000010583654420192906930_);}
	.st8{fill:url(#region-1-4_00000132059447691987495960000014273828250610972851_);}
	.st9{fill:url(#region-1-5_00000024700026930277660020000017324022800239424937_);}
	.st10{fill:url(#region-1-6_00000175285774092732831530000013777942850033162630_);}
	.st11{fill:url(#region-2-1_00000114039343847233373880000006025736486953707433_);}
	.st12{fill:url(#region-2-2_00000065761676095261025000000008973300098041958306_);}
	.st13{fill:url(#region-2-3_00000047780210176802310100000010112549861681723826_);}
	.st14{fill:url(#region-2-4_00000108299652578053164750000013938981847768713877_);}
	.st15{fill:url(#region-2-5_00000081644044256744336470000008692387157907285425_);}
	.st16{fill:url(#region-2-6_00000110450310877013124140000002051535638665860784_);}
	.st17{fill:url(#region-2-7_00000137835112839195468940000010222168603891563706_);}
	.st18{fill:url(#region-2-8_00000111157844978428843000000010778844769480844186_);}
	.st19{fill:url(#region-2-9_00000020388768512959509990000005019921809980600241_);}
	.st20{fill:url(#region-2-10_00000138552180916738360280000013583132898534110341_);}
	.st21{fill:url(#region-2-11_00000137848878597149075020000005533079613274099374_);}
	.st22{fill:url(#region-2-12_00000081648281906744076440000016585315332280169881_);}
	.st23{fill:url(#region-3-1_00000103264880832965495280000010236078770615428020_);}
	.st24{fill:url(#region-3-2_00000137830145123806752350000016511969781412105125_);}
	.st25{fill:url(#region-1-4-2_00000065041278606557710690000008987516253986996927_);}
	.st26{fill:url(#region-2-4-2_00000181050544745742167750000015507542591008137885_);stroke:#000000;stroke-miterlimit:10;}
	.st27{fill:url(#region-2-5-2_00000065050996811084211750000003998715100627834763_);stroke:#000000;stroke-miterlimit:10;}
	.st28{fill:url(#region-2-6-2_00000127038980613019612490000006157345492630248843_);stroke:#000000;stroke-miterlimit:10;}
	.st29{fill:none;stroke:#0019FF;stroke-width:4;stroke-miterlimit:10;}
	.st30{fill:url(#region-2-3_00000164471682558276048860000004060586313967821458_);stroke:#000000;stroke-miterlimit:10;}
	.st31{fill:url(#region-1-3_00000107555880073797659450000009905374464776325028_);}
</style>
<pattern  y="600" width="40" height="40" patternUnits="userSpaceOnUse" id="SVGID_1_" viewBox="0 -40 40 40" style="overflow:visible;">
	<g>
		<rect y="-40" class="st0" width="40" height="40"/>
		<g>
			<rect y="-40" class="st0" width="40" height="40"/>
			<g>
				<rect y="-40" class="st0" width="40" height="40"/>
				<g>
					<rect y="-40" class="st0" width="40" height="40"/>
					<rect y="-40" class="st0" width="40" height="40"/>
					<rect y="-20" class="st1" width="20" height="20"/>
					<rect x="20" y="-40" class="st1" width="20" height="20"/>
				</g>
			</g>
		</g>
	</g>
</pattern>
<g id="_图层_1">
	
		<pattern  id="SVGID_00000051363785734923976040000011348505108875561641_" xlink:href="#SVGID_1_" patternTransform="matrix(1 0 0 -1 182 -33125.2422)">
	</pattern>
	<rect style="fill:url(#SVGID_00000051363785734923976040000011348505108875561641_);" width="623.3" height="600"/>
</g>
<g>
	<line class="st3" x1="289.7" y1="318.5" x2="376.3" y2="318.5"/>
	<path class="st4" d="M395.7,318.5c-9.1,3.2-20.4,8.5-27.4,14.3l5.5-14.3l-5.5-14.3C375.3,310,386.6,315.4,395.7,318.5z"/>
</g>
<g id="_图层_1-2">
	<g id="layer-1">
		
			<linearGradient id="region-1-1_00000006684788472610478640000000349297463695746714_" gradientUnits="userSpaceOnUse" x1="-1944.9314" y1="866.0168" x2="-1943.6914" y2="866.4368" gradientTransform="matrix(16.84 0 0 27.83 32923.6289 -24071.6504)">
			<stop  offset="0" style="stop-color:#8B7455"/>
			<stop  offset="1" style="stop-color:#7D6646"/>
		</linearGradient>
		<path id="region-1-1" style="fill:url(#region-1-1_00000006684788472610478640000000349297463695746714_);" d="M178.3,20.8
			c0,1.3-0.5,2.3-1,2.3s-1.1,1.8-1.5,4.1c-0.4,2.2-1.5,5.8-2.6,8c-2.5,4.7-2.5,6.8-0.1,9.6c1.5,1.8,3,2.3,6.8,2.3
			c4.3,0,5.1-0.3,6.6-2.9c2.1-3.5,2.2-6.5,0.3-8c-0.8-0.7-2.4-3.7-3.7-6.9c-1.2-3.1-2.6-5.9-3-6.2s-0.9-1.4-1.2-2.5
			C178.5,18.8,178.4,18.8,178.3,20.8z"/>
		
			<linearGradient id="region-1-2_00000062157820818139453420000011410886484679548826_" gradientUnits="userSpaceOnUse" x1="-2059.637" y1="843.1827" x2="-2059.2468" y2="844.8627" gradientTransform="matrix(334.68 0 0 221.09 689420.75 -186386.7031)">
			<stop  offset="0" style="stop-color:#D8CAB3;stop-opacity:0.99"/>
			<stop  offset="1" style="stop-color:#EAE7E2;stop-opacity:0.99"/>
		</linearGradient>
		<path id="region-1-2" style="fill:url(#region-1-2_00000062157820818139453420000011410886484679548826_);" d="M115.9,49.1
			c-30.2,3-32.4,3.8-34.5,13c-0.6,2.5-4.5,13.5-8.7,24.5c-16.9,44.5-35,97.4-51,149.3c-3.1,10.1-6.6,19.9-7.7,21.8
			c-1.9,3.2-1.9,3.6-0.4,5.9c3.4,5.1-0.7,5,156.6,4.9c144.8-0.1,155.3-0.3,171.3-3.5l5.7-1.1v-5.2c0-2.9-0.4-5.6-0.9-6.2
			c-0.5-0.5-5-13.7-10.1-29.4c-19-59.3-36.8-110.8-49.4-143.5c-3.6-9.3-6.6-18.1-6.6-19.5c-0.1-3.5-4.1-7.8-8.1-8.4
			c-15.9-2.8-39.7-3.9-86.9-4.2C141.9,47.3,132,47.5,115.9,49.1L115.9,49.1z"/>
		
			<linearGradient id="region-1-3_00000093168688970332456170000011263785252233946784_" gradientUnits="userSpaceOnUse" x1="-2043.0814" y1="865.6015" x2="-2043.0414" y2="867.1615" gradientTransform="matrix(91 0 0 28 186101 -23968)">
			<stop  offset="0" style="stop-color:#AC875B"/>
			<stop  offset="1" style="stop-color:#A07447"/>
		</linearGradient>
		<path id="region-1-3" style="fill:url(#region-1-3_00000093168688970332456170000011263785252233946784_);" d="M135.2,271
			c0,1.1,0.5,2.3,1,2.6c0.6,0.4,1,5.3,1,11.4c0,10.4,0.1,10.9,2.3,11.5c2.9,0.8,79.5,0.8,82.5,0c2.1-0.6,2.2-1.1,2.2-11
			c0-5.8,0.4-10.6,1-10.9s1-1.7,1-3.1v-2.4h-45.5C136.3,269.1,135.2,269.1,135.2,271z"/>
		
			<linearGradient id="region-1-4_00000072276109657466178740000011974544205090933650_" gradientUnits="userSpaceOnUse" x1="-2039.755" y1="850.0431" x2="-2039.725" y2="851.113" gradientTransform="matrix(79.2 0 0 71.31 161728.1875 -60318.8906)">
			<stop  offset="0" style="stop-color:#524536"/>
			<stop  offset="1" style="stop-color:#312415"/>
		</linearGradient>
		<path id="region-1-4" style="fill:url(#region-1-4_00000072276109657466178740000011974544205090933650_);" d="M141.2,319.6
			c0,26.6,0.7,30.6,5.7,32.4c1.9,0.7,3.7,1.9,4,2.7s1.1,1.4,1.9,1.4c2.3,0,1.6,1.4-1.7,3.3c-6.1,3.4-1.5,5.8,15.8,8.2
			c10.8,1.5,23.1,0.9,36.3-1.7c7.9-1.6,11-4.6,7.3-7.3c-1.5-1.1-1.5-1.5,0.6-4.4c1.2-1.7,2.6-3.1,3-3.1c0.5,0,2.1-1.9,3.6-4.1
			l2.7-4.2l-0.7-22.8l-0.8-22.9h-77.7L141.2,319.6L141.2,319.6z"/>
		
			<linearGradient id="region-1-5_00000058556189463764464460000000932975854271018883_" gradientUnits="userSpaceOnUse" x1="-2054.6316" y1="843.5431" x2="-2053.6616" y2="844.5931" gradientTransform="matrix(180.06 0 0 200.51 370051.1875 -168798.8906)">
			<stop  offset="0" style="stop-color:#655C52;stop-opacity:0.99"/>
			<stop  offset="1" style="stop-color:#261301;stop-opacity:0.99"/>
		</linearGradient>
		<path id="region-1-5" style="fill:url(#region-1-5_00000058556189463764464460000000932975854271018883_);" d="M212.7,352.6
			c-3.8,3.9-4.3,5.3-2,6.1c4.2,1.7,0.1,5.7-7.5,7.2c-13.2,2.6-25.5,3.2-36.3,1.7c-17.3-2.4-21.9-4.8-15.8-8.2c3.3-1.9,4-3.3,1.7-3.3
			c-0.8,0-1.6-0.6-1.9-1.4s-2.6-2.2-5.1-3.1c-4.5-1.7-4.8-1.7-11.4,0.4c-10.9,3.6-26.2,11.8-31.4,16.8c-8.2,8.1-12,20.8-12,40.8
			c-0.1,18.4,2,24.7,18.7,58.5c19,38.3,21.3,47.9,15,64.5c-1.4,3.7-2.5,7.5-2.5,8.5c0,3.1,7.1,4.9,32,8.1c14,1.9,50.6,0.4,66.7-2.6
			c19.3-3.6,21.1-4.9,17.8-12.8c-0.8-2-2.4-7-3.6-11.2c-1.9-7-2-8.3-0.8-14.4c1.3-6.8,7.7-20.5,18.3-39.1
			c7.1-12.4,15.6-29.5,15.6-31.2c0-0.7,0.7-3.3,1.6-5.8c1.3-3.7,1.5-7.2,1-19.6c-0.9-23.1-5-36-13.6-43.8
			c-3.9-3.5-13.5-8.6-16.2-8.6c-0.6,0-2.6-1.2-4.5-2.6c-3.4-2.6-12.3-6.5-17.5-7.8C216.8,349.2,215.6,349.7,212.7,352.6L212.7,352.6
			z"/>
		
			<linearGradient id="region-1-6_00000147919831102652731910000016395204478649099177_" gradientUnits="userSpaceOnUse" x1="-2051.7886" y1="858.7203" x2="-2050.8184" y2="857.2003" gradientTransform="matrix(144.67 0 0 40.63 296952.8125 -34306.6211)">
			<stop  offset="0" style="stop-color:#FBD49A;stop-opacity:0.99"/>
			<stop  offset="1" style="stop-color:#B38454;stop-opacity:0.99"/>
		</linearGradient>
		<path id="region-1-6" style="fill:url(#region-1-6_00000147919831102652731910000016395204478649099177_);" d="M118.4,540.3
			c-0.7,0.7-1.2,2.6-1.2,4.3c0,2.6-0.6,3.3-4.2,5l-4.3,2l-0.9,7.8c-1,9.3-0.4,10.4,8.2,13.5c25,9.1,103.4,9.2,127.6,0.2
			c7.7-2.9,8.6-4,8.5-10.8c-0.1-8.3-1-10.4-5.2-12.7c-2.8-1.5-3.7-2.6-3.7-4.6c0-2.5-2.9-7.6-3-5.2c0,2.3-5.9,4.3-19.3,6.8
			c-16.1,3-52.7,4.5-66.7,2.6c-25.3-3.3-32-5-32-8.2C122.2,538.9,120.2,538.5,118.4,540.3L118.4,540.3z"/>
	</g>
	<g id="layer-2">
		
			<linearGradient id="region-2-1_00000111881187964069857050000009676129911774880672_" gradientUnits="userSpaceOnUse" x1="-2055.2373" y1="880.5967" x2="-2055.2075" y2="883.7266" gradientTransform="matrix(198.93 0 0 17.66 409027.0938 -15507.4404)">
			<stop  offset="0" style="stop-color:#7A4515;stop-opacity:0.47"/>
			<stop  offset="1" style="stop-color:#814000;stop-opacity:0.57"/>
		</linearGradient>
		<path id="region-2-1" style="fill:url(#region-2-1_00000111881187964069857050000009676129911774880672_);" d="M115.9,49.1
			c-29.8,3-32.7,4-34.2,12.2c-0.4,2.1-0.5,3.8-0.3,3.8s4.4-0.9,9.3-1.9c17-3.7,33.3-4.6,89-4.6c47.3,0,55.5,0.3,75.8,2.3
			c12.6,1.2,23.3,2.2,23.8,2.2c1.8,0,0.8-5.6-1.5-8.2c-2.8-3.1-3.7-3.3-25.6-5.5c-12.3-1.2-29.5-1.7-67-1.9
			C141.9,47.3,132,47.5,115.9,49.1L115.9,49.1z"/>
		
			<linearGradient id="region-2-2_00000147195540483371968340000007240500322548687490_" gradientUnits="userSpaceOnUse" x1="-2059.3953" y1="889.6954" x2="-2059.3853" y2="893.9754" gradientTransform="matrix(334.63 0 0 14.43 689315.25 -12582.3203)">
			<stop  offset="0" style="stop-color:#A85C11;stop-opacity:0.33"/>
			<stop  offset="1" style="stop-color:#914700;stop-opacity:0.45"/>
		</linearGradient>
		<path id="region-2-2" style="fill:url(#region-2-2_00000147195540483371968340000007240500322548687490_);" d="M298.2,255.2
			c-11.8,0.4-80.4,0.7-152.4,0.7h-131l-1.3,2.7c-1.3,2.3-1.2,3,0.1,5c3.4,5.1-0.5,5,156.6,4.9c144.8-0.1,155.3-0.3,171.3-3.5
			l5.7-1.1v-9.8l-13.7,0.2C325.9,254.4,310,254.8,298.2,255.2L298.2,255.2z"/>
		
			<linearGradient id="region-2-3_00000008864667795376974550000000606255353967968166_" gradientUnits="userSpaceOnUse" x1="-2018.512" y1="876.0656" x2="-2018.4919" y2="877.1956" gradientTransform="matrix(43.34 0 0 19.88 87663.8203 -17137.6895)">
			<stop  offset="0" style="stop-color:#FFF0C1;stop-opacity:0.8"/>
			<stop  offset="1" style="stop-color:#FFFACB;stop-opacity:0.83"/>
		</linearGradient>
		<path id="region-2-3" style="fill:url(#region-2-3_00000008864667795376974550000000606255353967968166_);" d="M166.7,277.5
			c-1.3,0.9-2.8,4.5-4.1,9.8l-2.1,8.3l21.5,0.3c11.8,0.1,21.6,0.1,21.8-0.1c0.2-0.1-0.3-2.9-1.1-6.2s-1.7-7.7-2-9.8l-0.6-3.7h-5.3
			c-5.2,0-8.6,1.9-8.6,4.7c0,2.1-3.4,2.5-5,0.6C177.1,276.3,170.6,274.6,166.7,277.5L166.7,277.5z"/>
		
			<linearGradient id="region-2-4_00000114753461987374197590000018323543795584530354_" gradientUnits="userSpaceOnUse" x1="-1658.0298" y1="891.8441" x2="-1656.5897" y2="891.5341" gradientTransform="matrix(5 0 0 14 8459 -12179)">
			<stop  offset="0" style="stop-color:#FBFAF4;stop-opacity:0.68"/>
			<stop  offset="1" style="stop-color:#FFFFFA;stop-opacity:0.7"/>
		</linearGradient>
		<path id="region-2-4" style="fill:url(#region-2-4_00000114753461987374197590000018323543795584530354_);" d="M169.2,305.1
			c0,6.8,0.1,7,2.5,7s2.5-0.2,2.5-7s-0.1-7-2.5-7S169.2,298.3,169.2,305.1z"/>
		
			<linearGradient id="region-2-5_00000094579051325155741020000013970802587422358664_" gradientUnits="userSpaceOnUse" x1="-1774.5458" y1="856.4241" x2="-1773.2257" y2="856.4541" gradientTransform="matrix(7 0 0 45 12612 -38219)">
			<stop  offset="0" style="stop-color:#E8E7DF;stop-opacity:0.78"/>
			<stop  offset="1" style="stop-color:#EFEEE5;stop-opacity:0.81"/>
		</linearGradient>
		<path id="region-2-5" style="fill:url(#region-2-5_00000094579051325155741020000013970802587422358664_);" d="M190.2,320.6v22.5
			h7v-45h-7V320.6z"/>
		
			<linearGradient id="region-2-6_00000017505341078903367870000006291454006445978557_" gradientUnits="userSpaceOnUse" x1="-1657.7635" y1="983.3217" x2="-1657.0836" y2="984.6619" gradientTransform="matrix(5 0 0 5 8460 -4579)">
			<stop  offset="0" style="stop-color:#DED8CD;stop-opacity:0.79"/>
			<stop  offset="1" style="stop-color:#E2DCD1;stop-opacity:0.81"/>
		</linearGradient>
		<path id="region-2-6" style="fill:url(#region-2-6_00000017505341078903367870000006291454006445978557_);" d="M170.2,340.6
			c0,2,0.5,2.5,2.5,2.5s2.5-0.5,2.5-2.5s-0.5-2.5-2.5-2.5S170.2,338.6,170.2,340.6z"/>
		
			<linearGradient id="region-2-7_00000181084207306634868430000007218849271285967020_" gradientUnits="userSpaceOnUse" x1="-2048.3486" y1="870.3661" x2="-2048.3286" y2="868.6661" gradientTransform="matrix(118.97 0 0 24.43 243871.8281 -20884.4297)">
			<stop  offset="0" style="stop-color:#473624;stop-opacity:0.81"/>
			<stop  offset="1" style="stop-color:#5A4936;stop-opacity:0.78"/>
		</linearGradient>
		<path id="region-2-7" style="fill:url(#region-2-7_00000181084207306634868430000007218849271285967020_);" d="M212.7,352.6
			c-3.8,3.9-4.3,5.3-2,6.1c4.2,1.7,0.1,5.7-7.5,7.2c-13.2,2.6-25.5,3.2-36.3,1.7c-17.3-2.4-21.9-4.8-15.8-8.2c3.3-1.9,4-3.3,1.7-3.3
			c-0.8,0-1.6-0.6-1.9-1.4s-2.6-2.2-5.1-3.1c-4.4-1.7-4.8-1.7-11.4,0.4c-3.7,1.2-7.2,2.5-7.7,2.9c-1.5,1.1-5.5,7-5.5,8.1
			c0,1.4,6,5.7,9,6.5c1.4,0.4,3.4,1.1,4.5,1.6c3.9,1.6,23.3,3,42.2,3s43.7-2.3,55.3-5.1c12.3-2.9,10.1-10.4-4.8-16.4
			C217.4,348.7,216.7,348.7,212.7,352.6L212.7,352.6z"/>
		
			<linearGradient id="region-2-8_00000039832516072763121140000004674223964346137007_" gradientUnits="userSpaceOnUse" x1="-2053.4714" y1="844.8979" x2="-2053.4714" y2="845.8979" gradientTransform="matrix(169.66 0 0 146.27 348574.1562 -123214.0078)">
			<stop  offset="0" style="stop-color:#5A4C3C;stop-opacity:0.8"/>
			<stop  offset="1" style="stop-color:#332719;stop-opacity:0.81"/>
		</linearGradient>
		<path id="region-2-8" style="fill:url(#region-2-8_00000039832516072763121140000004674223964346137007_);" d="M108.4,372.3
			c-2.3,2.9-6.3,12.1-8.2,19c-6.4,22.7-2.2,45.8,14.3,79.3c9.4,19.2,15.7,36,15.7,42.1c0,2,0.8,2.2,16.3,3.5
			c22.1,1.8,63.5,1.8,75.3,0l9.1-1.4l1.8-8.1c1.3-6.2,4-12.7,11.5-27.6c16.3-32.3,20-42.1,22.1-58.7c1-8.4,1-11.4-0.4-21
			c-1.9-12.6-5.2-21.8-9-24.7l-2.6-1.9l-4.8,3.5c-9.2,6.7-24.2,10.2-50,11.8c-47.4,2.8-65,0.2-82.7-12.5
			C109.7,370.6,109.8,370.6,108.4,372.3L108.4,372.3z"/>
		
			<linearGradient id="region-2-9_00000064346443560490944740000015211258063623840398_" gradientUnits="userSpaceOnUse" x1="-1854.208" y1="923.4766" x2="-1853.248" y2="924.5566" gradientTransform="matrix(9.64 0 0 8.58 18063.9609 -7401.52)">
			<stop  offset="0" style="stop-color:#DBDCD7;stop-opacity:0.79"/>
			<stop  offset="1" style="stop-color:#E3E4DF;stop-opacity:0.82"/>
		</linearGradient>
		<path id="region-2-9" style="fill:url(#region-2-9_00000064346443560490944740000015211258063623840398_);" d="M191.6,527.7
			c-0.9,4.8,0.3,5.8,5.6,4.4c3.6-1,4.1-1.4,3.6-3.3c-0.3-1.2-0.6-2.8-0.6-3.5s-1.5-1.2-4-1.2C192.5,524.1,192.3,524.3,191.6,527.7z"
			/>
		
			<linearGradient id="region-2-10_00000023269671320114715000000017130104008279945101_" gradientUnits="userSpaceOnUse" x1="-2049.3367" y1="866.6609" x2="-2048.6467" y2="870.2209" gradientTransform="matrix(125.98 0 0 26.81 258348.8906 -22694.8301)">
			<stop  offset="0" style="stop-color:#5F2C15;stop-opacity:0.32"/>
			<stop  offset="1" style="stop-color:#A47129;stop-opacity:0.59"/>
		</linearGradient>
		<path id="region-2-10" style="fill:url(#region-2-10_00000023269671320114715000000017130104008279945101_);" d="M118.4,540.3
			c-1.5,1.5-1.6,10.9-0.1,14.1c1.1,2.5,10.5,7.8,17.4,9.7c2.3,0.6,16,1.4,31.6,1.7c30,0.6,46.2-0.4,55.1-3.7c2.9-1,7.8-2.6,10.8-3.5
			c9.1-2.8,10-3.6,10-10.3c0-3.6-0.6-6.6-1.5-7.8c-0.8-1-1.5-1.3-1.5-0.7c0,2.3-5.9,4.3-19.3,6.8c-16.1,3-52.7,4.5-66.7,2.6
			c-25.3-3.3-32-5-32-8.2C122.2,538.9,120.2,538.5,118.4,540.3L118.4,540.3z"/>
		
			<linearGradient id="region-2-11_00000181062049182127348720000014635806029454322110_" gradientUnits="userSpaceOnUse" x1="-1894.2823" y1="985.8159" x2="-1893.2625" y2="986.416" gradientTransform="matrix(11.88 0 0 4.92 22694.8496 -4306.1099)">
			<stop  offset="0" style="stop-color:#CFCAC5;stop-opacity:0.79"/>
			<stop  offset="1" style="stop-color:#D7D2CD;stop-opacity:0.82"/>
		</linearGradient>
		<path id="region-2-11" style="fill:url(#region-2-11_00000181062049182127348720000014635806029454322110_);" d="M192.2,545.6
			c0,2.4,0.2,2.5,6.1,2.5s6-0.1,5.7-2.3c-0.3-1.9-1-2.2-6-2.5C192.4,543,192.2,543.1,192.2,545.6z"/>
		
			<linearGradient id="region-2-12_00000118356500335411265080000011578074038378357648_" gradientUnits="userSpaceOnUse" x1="-1810.8347" y1="1019.1929" x2="-1809.9447" y2="1020.6329" gradientTransform="matrix(8 0 0 4 14652 -3532)">
			<stop  offset="0" style="stop-color:#D1CAC3;stop-opacity:0.79"/>
			<stop  offset="1" style="stop-color:#D6CFC9;stop-opacity:0.81"/>
		</linearGradient>
		<path id="region-2-12" style="fill:url(#region-2-12_00000118356500335411265080000011578074038378357648_);" d="M164.2,547.1
			c0,1.7,0.7,2,4,2s4-0.3,4-2s-0.7-2-4-2S164.2,545.4,164.2,547.1z"/>
	</g>
	<g id="layer-3">
		
			<linearGradient id="region-3-1_00000155104283404505990010000014991522911013168055_" gradientUnits="userSpaceOnUse" x1="-1960.9161" y1="866.712" x2="-1959.7361" y2="867.352" gradientTransform="matrix(19.4 0 0 27 38237.3008 -23008)">
			<stop  offset="0" style="stop-color:#EDEDE9;stop-opacity:0.77"/>
			<stop  offset="1" style="stop-color:#FEFEF9;stop-opacity:0.83"/>
		</linearGradient>
		<path id="region-3-1" style="fill:url(#region-3-1_00000155104283404505990010000014991522911013168055_);" d="M197.6,394.8
			c0.3,3.2,0.8,9.3,1.2,13.5l0.6,7.8h13.5l1.2-9.3c0.6-5,1.4-11.1,1.8-13.5l0.6-4.2h-19.4L197.6,394.8L197.6,394.8z"/>
		
			<linearGradient id="region-3-2_00000048481579379175726700000010039189186699327160_" gradientUnits="userSpaceOnUse" x1="-1898.785" y1="879.2763" x2="-1897.7451" y2="879.2463" gradientTransform="matrix(12.2 0 0 18.5 23319.0996 -15864)">
			<stop  offset="0" style="stop-color:#EBE9E4;stop-opacity:0.77"/>
			<stop  offset="1" style="stop-color:#F3F1EC;stop-opacity:0.81"/>
		</linearGradient>
		<path id="region-3-2" style="fill:url(#region-3-2_00000048481579379175726700000010039189186699327160_);" d="M154.4,402.3
			l0.3,9.3h11l0.3-9.3l0.3-9.2h-12.2L154.4,402.3L154.4,402.3z"/>
	</g>
</g>
<linearGradient id="region-1-4-2_00000167385486000932010060000000232174488407100324_" gradientUnits="userSpaceOnUse" x1="-2036.0518" y1="850.2767" x2="-2036.0217" y2="851.3467" gradientTransform="matrix(79.2 0 0 71.31 161728.1875 -60318.8906)">
	<stop  offset="0" style="stop-color:#524536"/>
	<stop  offset="1" style="stop-color:#312415"/>
</linearGradient>
<path id="region-1-4-2" style="fill:url(#region-1-4-2_00000167385486000932010060000000232174488407100324_);" d="M434.5,336.4
	c0,26.6,0.7,30.6,5.7,32.4c1.9,0.7,3.7,1.9,4,2.7s1.1,1.4,1.9,1.4c2.3,0,1.6,1.4-1.7,3.3c-6.1,3.4-1.5,5.8,15.8,8.2
	c10.8,1.5,23.1,0.9,36.3-1.7c7.9-1.6,11-4.6,7.3-7.3c-1.5-1.1-1.5-1.5,0.6-4.4c1.2-1.7,2.6-3.1,3-3.1c0.5,0,2.1-1.9,3.6-4.1l2.7-4.2
	l-0.7-22.8l-0.8-22.9h-77.7L434.5,336.4L434.5,336.4z"/>
<linearGradient id="region-2-4-2_00000154398267881084523280000011232549462909201296_" gradientUnits="userSpaceOnUse" x1="-1581.4088" y1="893.333" x2="-1579.9587" y2="893.023" gradientTransform="matrix(5 0 0 14 8459 -12179)">
	<stop  offset="0" style="stop-color:#FBFAF4;stop-opacity:0.68"/>
	<stop  offset="1" style="stop-color:#FFFFFA;stop-opacity:0.7"/>
</linearGradient>
<path id="region-2-4-2" style="fill:url(#region-2-4-2_00000154398267881084523280000011232549462909201296_);stroke:#000000;stroke-miterlimit:10;" d="
	M552.4,325.9c0,6.8,0.1,7,2.5,7s2.5-0.2,2.5-7s-0.1-7-2.5-7S552.4,319.1,552.4,325.9z"/>
<linearGradient id="region-2-5-2_00000175290719732201739320000005249460740276076953_" gradientUnits="userSpaceOnUse" x1="-1719.2551" y1="856.8012" x2="-1717.925" y2="856.8212" gradientTransform="matrix(7 0 0 45 12612 -38219)">
	<stop  offset="0" style="stop-color:#E8E7DF;stop-opacity:0.78"/>
	<stop  offset="1" style="stop-color:#EFEEE5;stop-opacity:0.81"/>
</linearGradient>
<path id="region-2-5-2" style="fill:url(#region-2-5-2_00000175290719732201739320000005249460740276076953_);stroke:#000000;stroke-miterlimit:10;" d="
	M577.3,337.4v22.5h7v-45h-7V337.4z"/>
<linearGradient id="region-2-6-2_00000157274079057027778640000016667255300709160068_" gradientUnits="userSpaceOnUse" x1="-1581.3196" y1="985.5895" x2="-1580.6396" y2="986.9296" gradientTransform="matrix(5 0 0 5 8460 -4579)">
	<stop  offset="0" style="stop-color:#DED8CD;stop-opacity:0.79"/>
	<stop  offset="1" style="stop-color:#E2DCD1;stop-opacity:0.81"/>
</linearGradient>
<path id="region-2-6-2" style="fill:url(#region-2-6-2_00000157274079057027778640000016667255300709160068_);stroke:#000000;stroke-miterlimit:10;" d="
	M552.4,351.9c0,2,0.5,2.5,2.5,2.5s2.5-0.5,2.5-2.5s-0.5-2.5-2.5-2.5S552.4,349.9,552.4,351.9z"/>
<rect x="127.3" y="271.9" class="st29" width="109.7" height="83.6"/>
<linearGradient id="region-2-3_00000048493171843570757780000002851641868689222303_" gradientUnits="userSpaceOnUse" x1="-2009.5664" y1="876.2629" x2="-2009.5464" y2="877.3929" gradientTransform="matrix(43.34 0 0 19.88 87663.8203 -17137.6895)">
	<stop  offset="0" style="stop-color:#FFF0C1;stop-opacity:0.8"/>
	<stop  offset="1" style="stop-color:#FFFACB;stop-opacity:0.83"/>
</linearGradient>
<path id="region-2-3_00000005246896934612857660000003588617629090716851_" style="fill:url(#region-2-3_00000048493171843570757780000002851641868689222303_);stroke:#000000;stroke-miterlimit:10;" d="
	M554.4,281.4c-1.3,0.9-2.8,4.5-4.1,9.8l-2.1,8.3l21.5,0.3c11.8,0.1,21.6,0.1,21.8-0.1c0.2-0.1-0.3-2.9-1.1-6.2s-1.7-7.7-2-9.8
	l-0.6-3.7h-5.3c-5.2,0-8.6,1.9-8.6,4.7c0,2.1-3.4,2.5-5,0.6C564.8,280.2,558.3,278.5,554.4,281.4L554.4,281.4z"/>
<linearGradient id="region-1-3_00000111883781046304144720000017507138995917234316_" gradientUnits="userSpaceOnUse" x1="-2039.8572" y1="865.7599" x2="-2039.8171" y2="867.3199" gradientTransform="matrix(91 0 0 28 186101 -23968)">
	<stop  offset="0" style="stop-color:#AC875B"/>
	<stop  offset="1" style="stop-color:#A07447"/>
</linearGradient>
<path id="region-1-3_00000078729127437027896030000007008216052800499635_" style="fill:url(#region-1-3_00000111883781046304144720000017507138995917234316_);" d="
	M428.6,275.4c0,1.1,0.5,2.3,1,2.6c0.6,0.4,1,5.3,1,11.4c0,10.4,0.1,10.9,2.3,11.5c2.9,0.8,79.5,0.8,82.5,0c2.1-0.6,2.2-1.1,2.2-11
	c0-5.8,0.4-10.6,1-10.9s1-1.7,1-3.1v-2.4h-45.5C429.7,273.5,428.6,273.5,428.6,275.4z"/>
</svg>
