<?xml version="1.0" encoding="utf-8"?>
<!-- Generator: Adobe Illustrator 26.5.0, SVG Export Plug-In . SVG Version: 6.00 Build 0)  -->
<svg version="1.1" id="图层_1" xmlns="http://www.w3.org/2000/svg" xmlns:xlink="http://www.w3.org/1999/xlink" x="0px" y="0px"
	 viewBox="0 0 623.3 600" style="enable-background:new 0 0 623.3 600;" xml:space="preserve">
<style type="text/css">
	.st0{fill:none;}
	.st1{fill:#D3D3D3;}
	.st2{fill:url(#SVGID_00000150791180314751114740000005896769018363435415_);}
	.st3{fill:url(#SVGID_00000148620265480724998740000001530067648370494099_);}
	.st4{fill:url(#SVGID_00000067929212990964454760000004702523376036461212_);}
	.st5{fill:url(#SVGID_00000011710983361849925310000016900168927466945165_);}
	.st6{fill:url(#SVGID_00000181050219869943760800000008996744786410014889_);}
	.st7{fill:url(#SVGID_00000077318974274129432200000002064005108339886723_);}
	.st8{fill:url(#SVGID_00000163043738700160696250000012761684491526646435_);}
	.st9{fill:url(#SVGID_00000042722066614456907100000009859599974261648000_);}
	.st10{fill:url(#SVGID_00000122698399011961588710000000867336468840139413_);}
	.st11{fill:url(#SVGID_00000104698892918480452250000004585495460954239128_);}
	.st12{fill:url(#SVGID_00000005988308044688419490000017526916966951098297_);}
	.st13{fill:url(#SVGID_00000046331408893867121250000014295725347130590860_);}
	.st14{fill:url(#SVGID_00000104699828774555199320000016508730079139434418_);}
	.st15{fill:url(#SVGID_00000089533699614561516870000018404969775089100433_);}
	.st16{fill:url(#SVGID_00000021105044776899765770000014363436869228438457_);}
	.st17{fill:url(#SVGID_00000162345364868547793430000003052086171088219325_);}
	.st18{fill:url(#SVGID_00000103223219061819881930000014402969812807062943_);}
	.st19{fill:url(#SVGID_00000046341239479074804700000015241026568593722788_);}
	.st20{fill:url(#SVGID_00000083061167337102575070000007951314959107987133_);}
	.st21{fill:url(#SVGID_00000067920001621474224220000005779921339925410993_);}
	.st22{fill:url(#SVGID_00000016053792217902982330000017682310938382801332_);stroke:#000000;stroke-miterlimit:10;}
	.st23{fill:url(#SVGID_00000027586692442901467540000000607932663873856920_);stroke:#000000;stroke-miterlimit:10;}
	.st24{fill:url(#SVGID_00000115508855459054585500000012228000856677051572_);}
	.st25{fill:url(#SVGID_00000133530942961040316480000010253025049649714060_);stroke:#000000;stroke-miterlimit:10;}
	.st26{fill:none;stroke:#FF0000;stroke-width:4;stroke-miterlimit:10;}
	.st27{fill:none;stroke:#000000;stroke-width:3;stroke-miterlimit:10;}
	.st28{fill:url(#SVGID_00000164499016303129571800000005564450974819058330_);stroke:#000000;stroke-miterlimit:10;}
</style>
<pattern  y="600" width="40" height="40" patternUnits="userSpaceOnUse" id="SVGID_1_" viewBox="0 -40 40 40" style="overflow:visible;">
	<g>
		<rect y="-40" class="st0" width="40" height="40"/>
		<g>
			<rect y="-40" class="st0" width="40" height="40"/>
			<g>
				<rect y="-40" class="st0" width="40" height="40"/>
				<g>
					<rect y="-40" class="st0" width="40" height="40"/>
					<rect y="-40" class="st0" width="40" height="40"/>
					<rect y="-20" class="st1" width="20" height="20"/>
					<rect x="20" y="-40" class="st1" width="20" height="20"/>
				</g>
			</g>
		</g>
	</g>
</pattern>
<g id="_图层_2">
	<g id="_图层_1">
		
			<pattern  id="SVGID_00000136413561306974140240000007879985752135261313_" xlink:href="#SVGID_1_" patternTransform="matrix(1 0 0 -1 167.71 -33125.2422)">
		</pattern>
		<rect style="fill:url(#SVGID_00000136413561306974140240000007879985752135261313_);" width="623.3" height="600"/>
	</g>
</g>
<g id="_图层_1-2">
	
		<linearGradient id="SVGID_00000099655336173960804600000013864208623907546774_" gradientUnits="userSpaceOnUse" x1="-2084.8032" y1="844.0193" x2="-2083.823" y2="844.2994" gradientTransform="matrix(180.06 0 0 193.78 375474.0312 -163133.5781)">
		<stop  offset="0" style="stop-color:#3B2E1E"/>
		<stop  offset="1" style="stop-color:#4B3D2C"/>
	</linearGradient>
	<path style="fill:url(#SVGID_00000099655336173960804600000013864208623907546774_);" d="M119.2,360.1
		c-18.5,9.5-24.7,21.9-24.7,49.4c-0.1,18.4,2,24.7,18.7,58.5c19,38.3,21.3,47.9,15,64.5c-1.4,3.7-2.5,7.5-2.5,8.5
		c0,3.1,7.1,4.9,32,8.1c14,1.9,50.6,0.4,66.7-2.6c19.3-3.6,21.1-4.9,17.8-12.8c-0.8-2-2.4-7-3.6-11.2c-1.9-7-2-8.3-0.8-14.4
		c1.3-6.8,7.7-20.5,18.3-39.1c7.1-12.4,15.6-29.5,15.6-31.2c0-0.7,0.7-3.3,1.6-5.8c1.3-3.7,1.5-7.2,1-19.6
		c-1.2-29.4-7.5-43.1-23.3-50c-6.7-3-7.3-3-7.3-0.1c0,5.2-4.1,6.6-28.3,9.7c-23.6,3-70.2,2.4-76.7-1c-0.9-0.4-2.9-1-4.6-1.4
		c-4.1-0.9-9.9-5.8-9.1-7.7c0.4-0.8,1.4-2.4,2.3-3.7C129.6,355.1,128.4,355.4,119.2,360.1L119.2,360.1z"/>
	
		<linearGradient id="SVGID_00000066509513685551716830000000399615293443540371_" gradientUnits="userSpaceOnUse" x1="-1989.3757" y1="867.0555" x2="-1988.3757" y2="867.0555" gradientTransform="matrix(19.4 0 0 27 38794.5586 -23008)">
		<stop  offset="0" style="stop-color:#D7D5CE"/>
		<stop  offset="1" style="stop-color:#D7D5CE"/>
	</linearGradient>
	<path style="fill:url(#SVGID_00000066509513685551716830000000399615293443540371_);" d="M201.1,394.7c0.3,3.2,0.8,9.3,1.2,13.5
		l0.6,7.8h13.5l1.2-9.3c0.6-5,1.4-11.1,1.8-13.5l0.6-4.2h-19.4L201.1,394.7L201.1,394.7z"/>
	
		<linearGradient id="SVGID_00000106831782247645561760000005723386955168243848_" gradientUnits="userSpaceOnUse" x1="-1926.2893" y1="879.2568" x2="-1925.2893" y2="879.2568" gradientTransform="matrix(12.2 0 0 18.5 23658.3008 -15864)">
		<stop  offset="0" style="stop-color:#DCD8D2"/>
		<stop  offset="1" style="stop-color:#DCD8D2"/>
	</linearGradient>
	<path style="fill:url(#SVGID_00000106831782247645561760000005723386955168243848_);" d="M157.9,402.2l0.3,9.3h11l0.3-9.3l0.3-9.2
		h-12.2L157.9,402.2L157.9,402.2z"/>
	
		<linearGradient id="SVGID_00000158003231296300199820000005695440972988985749_" gradientUnits="userSpaceOnUse" x1="-1921.7004" y1="986.1078" x2="-1920.6995" y2="986.1078" gradientTransform="matrix(11.88 0 0 4.92 23024.3301 -4306.1099)">
		<stop  offset="0" style="stop-color:#C4BFBA"/>
		<stop  offset="1" style="stop-color:#C4BFBA"/>
	</linearGradient>
	<path style="fill:url(#SVGID_00000158003231296300199820000005695440972988985749_);" d="M195.7,545.5c0,2.4,0.2,2.5,6.1,2.5
		s6-0.1,5.7-2.3c-0.3-1.9-1-2.2-6-2.5C195.9,542.9,195.7,543,195.7,545.5z"/>
	
		<linearGradient id="SVGID_00000041254369990677004730000006182301384726727864_" gradientUnits="userSpaceOnUse" x1="-2081.4309" y1="857.6448" x2="-2081.4309" y2="858.6747" gradientTransform="matrix(144.67 0 0 40.63 301303.875 -34306.6211)">
		<stop  offset="0" style="stop-color:#5B4D48"/>
		<stop  offset="1" style="stop-color:#FFDD7D"/>
	</linearGradient>
	<path style="fill:url(#SVGID_00000041254369990677004730000006182301384726727864_);" d="M121.9,540.2c-0.7,0.7-1.2,2.6-1.2,4.3
		c0,2.6-0.6,3.3-4.2,5l-4.3,2l-0.9,7.8c-1,9.3-0.4,10.4,8.2,13.5c25,9.1,103.4,9.2,127.6,0.2c7.7-2.9,8.6-4,8.5-10.8
		c-0.1-8.3-1-10.4-5.2-12.7c-2.8-1.5-3.7-2.6-3.7-4.6c0-2.5-2.9-7.6-3-5.2c0,2.3-5.9,4.3-19.3,6.8c-16.1,3-52.7,4.5-66.7,2.6
		c-25.3-3.3-32-5-32-8.2C125.7,538.8,123.7,538.4,121.9,540.2L121.9,540.2z"/>
	
		<linearGradient id="SVGID_00000134950460422777619740000007317757829404922026_" gradientUnits="userSpaceOnUse" x1="-1837.04" y1="1019.75" x2="-1836.04" y2="1019.75" gradientTransform="matrix(8 0 0 4 14864 -3532)">
		<stop  offset="0" style="stop-color:#B7AFA7"/>
		<stop  offset="1" style="stop-color:#B7AFA7"/>
	</linearGradient>
	<path style="fill:url(#SVGID_00000134950460422777619740000007317757829404922026_);" d="M167.7,547c0,1.7,0.7,2,4,2s4-0.3,4-2
		s-0.7-2-4-2S167.7,545.3,167.7,547z"/>
	
		<linearGradient id="SVGID_00000168800906844944010710000001841949784517916313_" gradientUnits="userSpaceOnUse" x1="-1881.103" y1="924.2204" x2="-1880.1035" y2="924.2204" gradientTransform="matrix(9.64 0 0 8.58 18325.5312 -7401.52)">
		<stop  offset="0" style="stop-color:#BFBCB5"/>
		<stop  offset="1" style="stop-color:#BFBCB5"/>
	</linearGradient>
	<path style="fill:url(#SVGID_00000168800906844944010710000001841949784517916313_);" d="M195.1,527.6c-0.9,4.8,0.3,5.8,5.6,4.4
		c3.6-1,4.1-1.4,3.6-3.3c-0.3-1.2-0.6-2.8-0.6-3.5s-1.5-1.2-4-1.2C196,524,195.8,524.2,195.1,527.6z"/>
	
		<linearGradient id="SVGID_00000103951343502231775480000010298893130761558163_" gradientUnits="userSpaceOnUse" x1="-2078.3362" y1="870.356" x2="-2078.3462" y2="869.3361" gradientTransform="matrix(118.97 0 0 24.43 247444.5938 -20884.4297)">
		<stop  offset="0" style="stop-color:#43311C"/>
		<stop  offset="1" style="stop-color:#5E4E3D"/>
	</linearGradient>
	<path style="fill:url(#SVGID_00000103951343502231775480000010298893130761558163_);" d="M216.2,352.5c-3.8,3.9-4.3,5.3-2,6.1
		c4.2,1.7,0.1,5.7-7.5,7.2c-13.2,2.6-25.5,3.2-36.3,1.7c-17.3-2.4-21.9-4.8-15.8-8.2c3.3-1.9,4-3.3,1.7-3.3c-0.8,0-1.6-0.6-1.9-1.4
		s-2.6-2.2-5.1-3.1c-4.4-1.7-4.8-1.7-11.4,0.4c-3.7,1.2-7.2,2.5-7.7,2.9c-1.5,1.1-5.5,7-5.5,8.1c0,1.4,6,5.7,9,6.5
		c1.4,0.4,3.4,1.1,4.5,1.6c3.9,1.6,23.3,3,42.2,3s43.7-2.3,55.3-5.1c12.3-2.9,10.1-10.4-4.8-16.4
		C220.9,348.6,220.2,348.6,216.2,352.5L216.2,352.5z"/>
	
		<linearGradient id="SVGID_00000029013828771564816640000013552276548075729074_" gradientUnits="userSpaceOnUse" x1="-2072.9946" y1="847.2133" x2="-2072.9846" y2="848.2232" gradientTransform="matrix(91 0 0 99.31 188826.7188 -83866.8906)">
		<stop  offset="0" style="stop-color:#956E44"/>
		<stop  offset="1" style="stop-color:#FFF3A6"/>
	</linearGradient>
	<path style="fill:url(#SVGID_00000029013828771564816640000013552276548075729074_);" d="M138.7,270.9c0,1.1,0.5,2.3,1,2.6
		c0.6,0.4,1,5.3,1,11.4c0,10,0.2,10.9,2,11.4c1.9,0.5,2,1.4,2,23.1c0,26.8,0.7,30.7,5.7,32.5c1.9,0.7,3.7,1.9,4,2.7s1.1,1.4,1.9,1.4
		c2.3,0,1.6,1.4-1.7,3.3c-6.1,3.4-1.5,5.8,15.8,8.2c10.8,1.5,23.1,0.9,36.3-1.7c7.9-1.6,11-4.6,7.3-7.3c-1.5-1.1-1.5-1.5,0.6-4.4
		c1.2-1.7,2.6-3.1,3-3.1c0.5,0,2.1-1.9,3.6-4.1l2.7-4.2l-0.7-22.8l-0.8-22.8l2.7-0.7c1.7-0.4,2.6-4,2.6-10.9c0-5.9,0.4-10.7,1-11
		s1-1.7,1-3.1V269h-45.5C139.8,269,138.7,269,138.7,270.9L138.7,270.9z"/>
	
		<linearGradient id="SVGID_00000059293484213960618010000013705392024970579872_" gradientUnits="userSpaceOnUse" x1="-1681.49" y1="891.7143" x2="-1680.49" y2="891.7143" gradientTransform="matrix(5 0 0 14 8580.1396 -12179)">
		<stop  offset="0" style="stop-color:#C9C5BD"/>
		<stop  offset="1" style="stop-color:#C9C5BD"/>
	</linearGradient>
	<path style="fill:url(#SVGID_00000059293484213960618010000013705392024970579872_);" d="M172.7,305c0,6.8,0.1,7,2.5,7
		s2.5-0.2,2.5-7s-0.1-7-2.5-7S172.7,298.2,172.7,305z"/>
	
		<linearGradient id="SVGID_00000070089243110939516040000002837144299028985776_" gradientUnits="userSpaceOnUse" x1="-1800.0028" y1="856.4333" x2="-1799.0028" y2="856.4333" gradientTransform="matrix(7 0 0 45 12793.71 -38219)">
		<stop  offset="0" style="stop-color:#CBC8C0"/>
		<stop  offset="1" style="stop-color:#CBC8C0"/>
	</linearGradient>
	<path style="fill:url(#SVGID_00000070089243110939516040000002837144299028985776_);" d="M193.7,320.5V343h7v-45h-7V320.5z"/>
	
		<linearGradient id="SVGID_00000179619211841468468810000017064641314032700039_" gradientUnits="userSpaceOnUse" x1="-2048.437" y1="876.4395" x2="-2047.4369" y2="876.4395" gradientTransform="matrix(43.34 0 0 19.88 88946.2109 -17137.6895)">
		<stop  offset="0" style="stop-color:#FBE2B6"/>
		<stop  offset="1" style="stop-color:#FBE2B6"/>
	</linearGradient>
	<path style="fill:url(#SVGID_00000179619211841468468810000017064641314032700039_);" d="M170.2,277.4c-1.3,0.9-2.8,4.5-4.1,9.8
		l-2.1,8.3l21.5,0.3c11.8,0.1,21.6,0.1,21.8-0.1c0.2-0.1-0.3-2.9-1.1-6.2s-1.7-7.7-2-9.8l-0.6-3.7h-5.3c-5.2,0-8.6,1.9-8.6,4.7
		c0,2.1-3.4,2.5-5,0.6C180.6,276.2,174.1,274.5,170.2,277.4L170.2,277.4z"/>
	
		<linearGradient id="SVGID_00000140736056804558477190000011450258985574286221_" gradientUnits="userSpaceOnUse" x1="-2090.0894" y1="890.0578" x2="-2089.0894" y2="890.0578" gradientTransform="matrix(334.63 0 0 14.43 699419.4375 -12582.3203)">
		<stop  offset="0" style="stop-color:#C9A580"/>
		<stop  offset="1" style="stop-color:#C9A580"/>
	</linearGradient>
	<path style="fill:url(#SVGID_00000140736056804558477190000011450258985574286221_);" d="M301.7,255.1
		c-11.8,0.4-80.4,0.7-152.4,0.7h-131l-1.3,2.7c-1.3,2.3-1.2,3,0.1,5c3.4,5.1-0.5,5,156.6,4.9c144.8-0.1,155.3-0.3,171.3-3.5l5.7-1.1
		V254l-13.7,0.2C329.4,254.3,313.5,254.7,301.7,255.1L301.7,255.1z"/>
	
		<linearGradient id="SVGID_00000132080589812306827880000003064823804956368304_" gradientUnits="userSpaceOnUse" x1="-2089.6279" y1="843.6558" x2="-2089.438" y2="845.0759" gradientTransform="matrix(329.7 0 0 197.02 689091.8125 -166158.0156)">
		<stop  offset="0" style="stop-color:#DBCFBE"/>
		<stop  offset="1" style="stop-color:#F3EDE4"/>
	</linearGradient>
	<path style="fill:url(#SVGID_00000132080589812306827880000003064823804956368304_);" d="M136.2,58.6c-26.7,1.6-49.2,4.7-51.8,7.3
		c-2.2,2.2-33.9,90.3-46,128.1c-12.9,40.1-18.9,60.2-18.2,60.8c1,1,268.3,0.8,301.8-0.2c21.2-0.6,28.5-1.1,27.8-2
		c-0.5-0.6-5-13.9-10.1-29.6c-12.1-37.7-22.1-67.7-31.5-94.5c-8.4-24.1-23.3-63.6-24.3-64.7c-0.4-0.4-11-1.7-23.7-2.9
		c-19.4-1.8-30.4-2.2-70.5-2.4C163.6,58.4,139.5,58.4,136.2,58.6L136.2,58.6z"/>
	
		<linearGradient id="SVGID_00000051370388226384593850000015893809724204728213_" gradientUnits="userSpaceOnUse" x1="-2085.3672" y1="855.6498" x2="-2085.3572" y2="856.6599" gradientTransform="matrix(198.9 0 0 45.83 414962.0312 -39191.6914)">
		<stop  offset="0" style="stop-color:#845C3D"/>
		<stop  offset="1" style="stop-color:#C4A174"/>
	</linearGradient>
	<path style="fill:url(#SVGID_00000051370388226384593850000015893809724204728213_);" d="M181.8,20.7c0,1.3-0.5,2.3-1,2.3
		s-1.1,1.8-1.5,4.1c-0.4,2.2-1.5,5.8-2.6,8c-2.4,4.6-2.5,7.2-0.5,8.9c0.8,0.7,1.5,1.6,1.5,2.1s-8,0.9-17.7,0.9
		c-17.4,0-54.7,2.9-64.9,5c-6,1.3-9,4-9.9,9.2c-0.4,2.1-0.5,3.8-0.3,3.8s4.4-0.9,9.3-1.9c17-3.7,33.3-4.6,89-4.6
		c47.3,0,55.5,0.3,75.8,2.3c12.6,1.2,23.3,2.2,23.8,2.2s0.9-1.2,0.9-2.8c-0.1-3.7-4.1-7.9-8.1-8.6c-10.1-1.8-39.5-3.8-61.6-4.3
		c-13.9-0.3-25.3-0.8-25.3-1.2c0-0.3,0.7-1.5,1.5-2.5c1.9-2.5,1.9-6,0.1-7.5c-0.8-0.7-2.4-3.7-3.7-6.9c-1.2-3.1-2.6-5.9-3-6.2
		s-0.9-1.4-1.2-2.5C182,18.7,181.9,18.7,181.8,20.7L181.8,20.7z"/>
	
		<linearGradient id="SVGID_00000135668599136098297910000005773272017671075504_" gradientUnits="userSpaceOnUse" x1="-2069.5962" y1="850.0532" x2="-2069.6062" y2="851.0632" gradientTransform="matrix(79.2 0 0 71.31 164096.5312 -60318.8906)">
		<stop  offset="0" style="stop-color:#000000;stop-opacity:0.68"/>
		<stop  offset="1" style="stop-color:#000000;stop-opacity:0.84"/>
	</linearGradient>
	<path style="fill:url(#SVGID_00000135668599136098297910000005773272017671075504_);" d="M144.7,319.5c0,26.6,0.7,30.6,5.7,32.4
		c1.9,0.7,3.7,1.9,4,2.7s1.1,1.4,1.9,1.4c2.3,0,1.6,1.4-1.7,3.3c-6.1,3.4-1.5,5.8,15.8,8.2c10.8,1.5,23.1,0.9,36.3-1.7
		c7.9-1.6,11-4.6,7.3-7.3c-1.5-1.1-1.5-1.5,0.6-4.4c1.2-1.7,2.6-3.1,3-3.1c0.5,0,2.1-1.9,3.6-4.1l2.7-4.2l-0.7-22.8l-0.8-22.9h-77.7
		L144.7,319.5L144.7,319.5z M177.7,305c0,6.8-0.1,7-2.5,7s-2.5-0.2-2.5-7s0.1-7,2.5-7S177.7,298.2,177.7,305z M200.7,320.5V343h-7
		v-45h7V320.5z M178.7,340.5c0,2-0.5,2.5-2.5,2.5s-2.5-0.5-2.5-2.5s0.5-2.5,2.5-2.5S178.7,338.5,178.7,340.5z"/>
	
		<linearGradient id="SVGID_00000072960820539349995950000003418111418774706611_" gradientUnits="userSpaceOnUse" x1="-1681.49" y1="983.9" x2="-1680.49" y2="983.9" gradientTransform="matrix(5 0 0 5 8581.1396 -4579)">
		<stop  offset="0" style="stop-color:#0081FF;stop-opacity:0.21"/>
		<stop  offset="1" style="stop-color:#0081FF;stop-opacity:0.21"/>
	</linearGradient>
	<path style="fill:url(#SVGID_00000072960820539349995950000003418111418774706611_);" d="M173.7,340.5c0,2,0.5,2.5,2.5,2.5
		s2.5-0.5,2.5-2.5s-0.5-2.5-2.5-2.5S173.7,338.5,173.7,340.5z"/>
	
		<linearGradient id="SVGID_00000065759359607158231470000003301212962535902337_" gradientUnits="userSpaceOnUse" x1="-2081.9578" y1="863.2863" x2="-2080.9578" y2="863.2863" gradientTransform="matrix(144.76 0 0 31.55 301494.9375 -26672.7695)">
		<stop  offset="0" style="stop-color:#000000;stop-opacity:0.12"/>
		<stop  offset="1" style="stop-color:#000000;stop-opacity:0.12"/>
	</linearGradient>
	<path style="fill:url(#SVGID_00000065759359607158231470000003301212962535902337_);" d="M115.7,549.8c-3.4,1.7-3.5,1.9-4.4,9.5
		c-1,9.3-0.4,10.4,8.2,13.5c25,9.1,103.4,9.2,127.6,0.2c7.5-2.8,8.6-4.1,8.6-9.9c0-8.1-1-11.1-4.4-13.2c-4.1-2.5-4.6-2.4-4.6,1.1
		s-2.1,5.1-10,7.5c-3,0.9-7.9,2.5-10.8,3.5c-8.9,3.3-25.1,4.3-55.1,3.7c-15.6-0.3-29.3-1.1-31.6-1.7c-2.2-0.6-6.8-2.5-10.2-4.2
		c-6-3.1-8.3-5.8-8.3-9.8C120.7,547.6,120.1,547.5,115.7,549.8L115.7,549.8z"/>
</g>
<linearGradient id="SVGID_00000158008327541362166480000017213339534227438502_" gradientUnits="userSpaceOnUse" x1="-2070.4243" y1="847.2567" x2="-2070.4143" y2="848.2667" gradientTransform="matrix(91 0 0 99.31 188826.7188 -83866.8906)">
	<stop  offset="0" style="stop-color:#956E44"/>
	<stop  offset="1" style="stop-color:#FFF3A6"/>
</linearGradient>
<path style="fill:url(#SVGID_00000158008327541362166480000017213339534227438502_);" d="M372.6,275.2c0,1.1,0.5,2.3,1,2.6
	c0.6,0.4,1,5.3,1,11.4c0,10,0.2,10.9,2,11.4c1.9,0.5,2,1.4,2,23.1c0,26.8,0.7,30.7,5.7,32.5c1.9,0.7,3.7,1.9,4,2.7
	c0.3,0.8,1.1,1.4,1.9,1.4c2.3,0,1.6,1.4-1.7,3.3c-6.1,3.4-1.5,5.8,15.8,8.2c10.8,1.5,23.1,0.9,36.3-1.7c7.9-1.6,11-4.6,7.3-7.3
	c-1.5-1.1-1.5-1.5,0.6-4.4c1.2-1.7,2.6-3.1,3-3.1c0.5,0,2.1-1.9,3.6-4.1l2.7-4.2l-0.7-22.8l-0.8-22.8l2.7-0.7
	c1.7-0.4,2.6-4,2.6-10.9c0-5.9,0.4-10.7,1-11s1-1.7,1-3.1v-2.4h-45.5C373.7,273.3,372.6,273.3,372.6,275.2L372.6,275.2z"/>
<linearGradient id="SVGID_00000129899195028726583870000008104305377613302683_" gradientUnits="userSpaceOnUse" x1="-1600.2167" y1="891.4786" x2="-1599.2167" y2="891.4786" gradientTransform="matrix(5 0 0 14 8580.1396 -12179)">
	<stop  offset="0" style="stop-color:#C9C5BD"/>
	<stop  offset="1" style="stop-color:#C9C5BD"/>
</linearGradient>
<path style="fill:url(#SVGID_00000129899195028726583870000008104305377613302683_);stroke:#000000;stroke-miterlimit:10;" d="
	M579.1,301.7c0,6.8,0.1,7,2.5,7s2.5-0.2,2.5-7s-0.1-7-2.5-7C579.2,294.7,579.1,294.9,579.1,301.7z"/>
<linearGradient id="SVGID_00000059298245776006568800000005065324534725586339_" gradientUnits="userSpaceOnUse" x1="-1741.9158" y1="856.2822" x2="-1740.9158" y2="856.2822" gradientTransform="matrix(7 0 0 45 12793.71 -38219)">
	<stop  offset="0" style="stop-color:#CBC8C0"/>
	<stop  offset="1" style="stop-color:#CBC8C0"/>
</linearGradient>
<path style="fill:url(#SVGID_00000059298245776006568800000005065324534725586339_);stroke:#000000;stroke-miterlimit:10;" d="
	M600.3,313.7v22.5h7v-45h-7V313.7L600.3,313.7z"/>
<linearGradient id="SVGID_00000017485600345894174620000015509860898763104146_" gradientUnits="userSpaceOnUse" x1="-2065.4143" y1="849.9753" x2="-2065.4243" y2="850.9852" gradientTransform="matrix(79.2 0 0 71.31 164096.5312 -60318.8906)">
	<stop  offset="0" style="stop-color:#000000;stop-opacity:0.68"/>
	<stop  offset="1" style="stop-color:#000000;stop-opacity:0.84"/>
</linearGradient>
<path style="fill:url(#SVGID_00000017485600345894174620000015509860898763104146_);" d="M475.9,314c0,26.6,0.7,30.6,5.7,32.4
	c1.9,0.7,3.7,1.9,4,2.7s1.1,1.4,1.9,1.4c2.3,0,1.6,1.4-1.7,3.3c-6.1,3.4-1.5,5.8,15.8,8.2c10.8,1.5,23.1,0.9,36.3-1.7
	c7.9-1.6,11-4.6,7.3-7.3c-1.5-1.1-1.5-1.5,0.6-4.4c1.2-1.7,2.6-3.1,3-3.1c0.5,0,2.1-1.9,3.6-4.1l2.7-4.2l-0.7-22.8l-0.8-22.9h-77.7
	L475.9,314L475.9,314z M508.9,299.5c0,6.8-0.1,7-2.5,7s-2.5-0.2-2.5-7s0.1-7,2.5-7S508.9,292.7,508.9,299.5z M531.9,315v22.5h-7v-45
	h7V315z M509.9,335c0,2-0.5,2.5-2.5,2.5s-2.5-0.5-2.5-2.5s0.5-2.5,2.5-2.5S509.9,333,509.9,335z"/>
<linearGradient id="SVGID_00000174581075298314962820000017544154214584472228_" gradientUnits="userSpaceOnUse" x1="-1600.4166" y1="980.46" x2="-1599.4166" y2="980.46" gradientTransform="matrix(5 0 0 5 8581.1396 -4579)">
	<stop  offset="0" style="stop-color:#0081FF;stop-opacity:0.21"/>
	<stop  offset="1" style="stop-color:#0081FF;stop-opacity:0.21"/>
</linearGradient>
<path style="fill:url(#SVGID_00000174581075298314962820000017544154214584472228_);stroke:#000000;stroke-miterlimit:10;" d="
	M579.1,323.3c0,2,0.5,2.5,2.5,2.5s2.5-0.5,2.5-2.5s-0.5-2.5-2.5-2.5S579.1,321.3,579.1,323.3z"/>
<rect x="131.6" y="273.3" class="st26" width="104.1" height="76.3"/>
<g>
	<line class="st27" x1="267.2" y1="320.5" x2="343.1" y2="320.5"/>
	<path d="M361.2,320.5c-8.5,3.2-19.1,8.5-25.6,14.3l5.2-14.3l-5.2-14.3C342.1,311.9,352.7,317.3,361.2,320.5L361.2,320.5z"/>
</g>
<linearGradient id="SVGID_00000005980062041254266590000001864561614752769446_" gradientUnits="userSpaceOnUse" x1="-2039.0737" y1="875.7755" x2="-2038.0736" y2="875.7755" gradientTransform="matrix(43.34 0 0 19.88 88946.2109 -17137.6895)">
	<stop  offset="0" style="stop-color:#FBE2B6"/>
	<stop  offset="1" style="stop-color:#FBE2B6"/>
</linearGradient>
<path style="fill:url(#SVGID_00000005980062041254266590000001864561614752769446_);stroke:#000000;stroke-miterlimit:10;" d="
	M576,264.2c-1.3,0.9-2.8,4.5-4.1,9.8l-2.1,8.3l21.5,0.3c11.8,0.1,21.6,0.1,21.8-0.1c0.2-0.1-0.3-2.9-1.1-6.2s-1.7-7.7-2-9.8
	l-0.6-3.7h-5.3c-5.2,0-8.6,1.9-8.6,4.7c0,2.1-3.4,2.5-5,0.6C586.4,263,579.9,261.3,576,264.2L576,264.2z"/>
<rect x="469.3" y="276.9" class="st26" width="95.7" height="105.1"/>
</svg>
