<?xml version="1.0" standalone="no"?><!DOCTYPE svg PUBLIC "-//W3C//DTD SVG 20010904//EN" "http://www.w3.org/TR/2001/REC-SVG-20010904/DTD/svg10.dtd"><svg version="1.0" xmlns="http://www.w3.org/2000/svg" width="500pt" height="500pt" viewBox="0 0 500 500" preserveAspectRatio="xMidYMid meet"><defs><linearGradient id="linear-gradient-1-1" x1="0.00%" y1="100.00%" x2="100.01%" y2="0.01%"><stop offset="0%" style="stop-color:rgb(100,49,100);stop-opacity:0.990" /><stop offset="100%" style="stop-color:rgb(103,103,102);stop-opacity:0.990" /></linearGradient><linearGradient id="linear-gradient-2-1" x1="0.00%" y1="100.00%" x2="88.39%" y2="-1.37%"><stop offset="0%" style="stop-color:rgb(192,25,36);stop-opacity:0.358" /><stop offset="100%" style="stop-color:rgb(34,111,115);stop-opacity:0.291" /></linearGradient><linearGradient id="linear-gradient-2-2" x1="0.00%" y1="100.00%" x2="53.82%" y2="-20.61%"><stop offset="0%" style="stop-color:rgb(44,127,92);stop-opacity:0.818" /><stop offset="100%" style="stop-color:rgb(40,170,149);stop-opacity:0.694" /></linearGradient><linearGradient id="linear-gradient-3-1" x1="0.00%" y1="100.00%" x2="55.79%" y2="-20.47%"><stop offset="0%" style="stop-color:rgb(215,43,0);stop-opacity:0.266" /><stop offset="100%" style="stop-color:rgb(126,90,79);stop-opacity:0.304" /></linearGradient><linearGradient id="linear-gradient-3-2" x1="0.00%" y1="100.00%" x2="28.46%" y2="-14.69%"><stop offset="0%" style="stop-color:rgb(3,240,0);stop-opacity:0.256" /><stop offset="100%" style="stop-color:rgb(1,175,102);stop-opacity:0.373" /></linearGradient><linearGradient id="linear-gradient-4-1" x1="0.00%" y1="100.00%" x2="39.67%" y2="-19.95%"><stop offset="0%" style="stop-color:rgb(0,198,133);stop-opacity:0.359" /><stop offset="100%" style="stop-color:rgb(0,235,223);stop-opacity:0.327" /></linearGradient></defs><g id="layer-1"><path d="M0 2500 l0 -2500 2500 0 2500 0 0 2500 0 2500 -2500 0 -2500 0 0 -2500z" fill="url(#linear-gradient-1-1)" id="region-1-1" transform="translate(0.000000,500.000000) scale(0.100000,-0.100000)"/></g><g id="layer-2"><path d="M1990 2295 l0 -1765 645 0 645 0 0 1765 0 1765 -645 0 -645 0 0 -1765z" fill="url(#linear-gradient-2-1)" id="region-2-1" transform="translate(0.000000,500.000000) scale(0.100000,-0.100000)"/><path d="M4084 3168 c-170 -14 -328 -90 -460 -222 -132 -132 -207 -288 -222 -459 -21 -249 51 -452 222 -623 132 -132 288 -207 459 -222 249 -21 452 51 623 222 132 132 207 288 222 459 21 249 -51 452 -222 623 -171 170 -373 243 -622 222z" fill="url(#linear-gradient-2-2)" id="region-2-2" transform="translate(0.000000,500.000000) scale(0.100000,-0.100000)"/></g><g id="layer-3"><path d="M1160 3988 c-457 -31 -862 -347 -1011 -785 -43 -129 -60 -232 -60 -378 0 -146 17 -249 60 -376 135 -400 476 -695 895 -774 105 -20 317 -20 422 0 419 79 760 374 895 774 43 127 60 230 60 376 0 75 -7 164 -16 211 -89 468 -441 830 -910 935 -76 17 -229 25 -335 17z" fill="url(#linear-gradient-3-1)" id="region-3-1" transform="translate(0.000000,500.000000) scale(0.100000,-0.100000)"/><path d="M3230 4824 c-333 -40 -611 -73 -619 -73 -16 -1 -1 -17 420 -451 151 -157 635 -657 1074 -1112 440 -455 800 -826 802 -825 1 2 -218 545 -488 1208 -270 662 -502 1232 -516 1267 -20 50 -29 62 -47 61 -11 -1 -293 -34 -626 -75z" fill="url(#linear-gradient-3-2)" id="region-3-2" transform="translate(0.000000,500.000000) scale(0.100000,-0.100000)"/></g><g id="layer-4"><path d="M760 2109 c-242 -20 -474 -182 -580 -404 -73 -154 -93 -350 -50 -505 91 -329 367 -540 705 -540 410 0 725 315 725 725 0 438 -357 761 -800 724z" fill="url(#linear-gradient-4-1)" id="region-4-1" transform="translate(0.000000,500.000000) scale(0.100000,-0.100000)"/></g></svg>