<?xml version="1.0" encoding="utf-8"?>
<!-- Generator: Adobe Illustrator 26.5.0, SVG Export Plug-In . SVG Version: 6.00 Build 0)  -->
<svg version="1.1" id="图层_1" xmlns="http://www.w3.org/2000/svg" xmlns:xlink="http://www.w3.org/1999/xlink" x="0px" y="0px"
	 viewBox="0 0 740 440" style="enable-background:new 0 0 740 440;" xml:space="preserve">
<style type="text/css">
	.st0{fill:none;}
	.st1{fill:#D3D3D3;}
	.st2{fill:url(#SVGID_1_);}
	.st3{fill:url(#SVGID_00000048476931624075318640000007048026750462737300_);}
	.st4{fill:url(#SVGID_00000094591710620358265460000009932569460875625627_);}
	.st5{fill:url(#SVGID_00000168108579910086811310000001434912480439677323_);}
	.st6{fill:url(#SVGID_00000141451238784796312900000017678398783605577394_);}
	.st7{fill:url(#SVGID_00000180363407942286744890000016749102898028686246_);}
	.st8{fill:url(#SVGID_00000003074534334945805610000000310030255599149473_);}
	.st9{fill:url(#SVGID_00000183217201554301294050000015830923948103385742_);}
	.st10{fill:url(#SVGID_00000056417749190705543850000005502181494120921731_);}
	.st11{fill:url(#SVGID_00000036956087858870570300000001109987326893556373_);}
	.st12{fill:url(#SVGID_00000049925933256240998620000018391512344705436588_);}
	.st13{fill:url(#SVGID_00000101068591714947929840000017312816936434590090_);}
	.st14{fill:url(#SVGID_00000126311527561985169350000010520826628165715388_);}
	.st15{fill:url(#SVGID_00000102531811029850542090000015597854803090601150_);}
	.st16{fill:url(#SVGID_00000020364460133465726020000006800740074826212799_);}
	.st17{fill:url(#SVGID_00000159433560845887395190000001786154200917058478_);}
	.st18{fill:url(#SVGID_00000085967712129364157660000013265202339629079958_);}
	.st19{fill:url(#SVGID_00000026145057431276869520000001487268523729400452_);}
	.st20{fill:url(#SVGID_00000111899620514232212250000013445305216533421954_);}
	.st21{fill:url(#SVGID_00000150097141585902758440000016257647564714257794_);}
	.st22{fill:url(#SVGID_00000147196758073592068020000007548658490807243455_);}
	.st23{fill:url(#SVGID_00000059269105042467967910000004717908067197958532_);}
	.st24{fill:url(#SVGID_00000138541898004343213030000015149066662976478094_);}
	.st25{fill:url(#SVGID_00000116916685737571290190000007003465020213839272_);}
	.st26{fill:url(#SVGID_00000042737737869129412490000004975154095577240226_);}
	.st27{fill:url(#SVGID_00000053540527185236230320000018164535323060367030_);}
	.st28{fill:url(#SVGID_00000145740932880789451440000018416282388898542991_);}
	.st29{fill:url(#SVGID_00000013898653852777000030000014024345518502690461_);}
	.st30{fill:url(#SVGID_00000142896402186589956480000001859749500259268255_);}
	.st31{fill:url(#SVGID_00000116939864199179370630000011055761537584451753_);}
	.st32{fill:url(#SVGID_00000109025090793567989680000018162914777531278468_);}
	.st33{fill:url(#SVGID_00000013911594834140847670000002078595628264316858_);}
	.st34{fill:url(#SVGID_00000119805727032411047260000015124455884379015841_);}
	.st35{fill:url(#SVGID_00000137851911847765989430000002224190962030169762_);}
	.st36{fill:url(#SVGID_00000155839215187863513490000010874466436035008684_);}
	.st37{fill:url(#SVGID_00000063613486859998741870000015516265096135090051_);}
	.st38{fill:url(#SVGID_00000030470460322645176950000003424354978723554955_);}
	.st39{fill:url(#SVGID_00000085954307913597145390000013583269264504662171_);}
	.st40{fill:url(#SVGID_00000039110813560451829590000008314661141287083655_);}
	.st41{fill:url(#SVGID_00000062189716809425079330000013500255632532558001_);}
	.st42{fill:url(#SVGID_00000103249930657762856730000014789522058221957531_);}
	.st43{fill:url(#SVGID_00000111885212570817684040000016412759475621809572_);}
	.st44{fill:url(#SVGID_00000002347982676443321870000001174143651337858188_);}
	.st45{fill:url(#SVGID_00000047747528461544492590000013130001882420125608_);}
	.st46{fill:url(#SVGID_00000113352469446074287500000006690342572515535252_);}
	.st47{fill:url(#SVGID_00000014611945264045253400000001199645326543037886_);}
	.st48{fill:url(#SVGID_00000000906031835765182410000002475698778320561304_);}
	.st49{fill:url(#SVGID_00000041265130613398433750000016690309097242772609_);}
	.st50{fill:url(#SVGID_00000101824081296683330630000003704050009069587077_);}
	.st51{fill:url(#SVGID_00000169536447611366395870000001891332187811950504_);}
	.st52{fill:url(#SVGID_00000155123070689121912710000016690140538067794051_);}
	.st53{fill:url(#SVGID_00000013876701134111283610000010221732267732755848_);}
	
		.st54{fill:url(#SVGID_00000104697867048671473530000017441672049985339576_);stroke:#000000;stroke-width:0.1;stroke-miterlimit:1;}
	.st55{fill:url(#SVGID_00000090275220472237852310000006899278325246276757_);}
	.st56{clip-path:url(#SVGID_00000145038840862472097520000012771038524505168295_);fill:#8A2D32;}
	.st57{fill:url(#SVGID_00000018937886427303795820000000129768247726922420_);}
	
		.st58{fill:url(#SVGID_00000163751806629631709820000013949328038908870334_);stroke:#000000;stroke-width:0.1;stroke-miterlimit:1;}
	.st59{clip-path:url(#SVGID_00000085240500215605582050000005643273695779764608_);}
	.st60{clip-path:url(#SVGID_00000079457194593698205110000011842283062959623350_);}
	
		.st61{fill:url(#SVGID_00000134950275893077637210000009499773408395287441_);stroke:#000000;stroke-width:0.1;stroke-miterlimit:1;}
	.st62{fill:url(#SVGID_00000064324932025236795840000016311900729783661232_);}
	.st63{fill:none;stroke:#000000;stroke-miterlimit:10;}
	.st64{fill:none;stroke:#FF0000;stroke-width:3;stroke-miterlimit:10;}
	.st65{fill:none;stroke:#3FA9F5;stroke-width:4;stroke-linecap:round;stroke-miterlimit:10;}
	.st66{fill:#3FA9F5;}
</style>
<pattern  x="70" y="490.9" width="40" height="40" patternUnits="userSpaceOnUse" id="a2ed1d96-aebd-4bf9-a4b3-645f1ac" viewBox="0 -40 40 40" style="overflow:visible;">
	<g>
		<rect y="-40" class="st0" width="40" height="40"/>
		<rect y="-40" class="st0" width="40" height="40"/>
		<rect y="-40" class="st1" width="20" height="20"/>
		<rect x="20" y="-20" class="st1" width="20" height="20"/>
	</g>
</pattern>
<pattern  id="SVGID_1_" xlink:href="#a2ed1d96-aebd-4bf9-a4b3-645f1ac" patternTransform="matrix(1 0 0 1 -78 240.24)">
</pattern>
<rect y="0" class="st2" width="740" height="440"/>
<g transform="translate(0.000000,737.000000) scale(0.100000,-0.100000)">
	<g>
		
			<linearGradient id="SVGID_00000084519099672527766490000005556826134694371222_" gradientUnits="userSpaceOnUse" x1="-339.8907" y1="-54250.3789" x2="-339.6923" y2="-54250.8789" gradientTransform="matrix(0.9658 0 0 0.8323 2989.8477 51863.0547)">
			<stop  offset="0" style="stop-color:#A1582F"/>
			<stop  offset="1" style="stop-color:#AC6436"/>
		</linearGradient>
		<path style="fill:url(#SVGID_00000084519099672527766490000005556826134694371222_);" d="M2703.1,6725
			c-43.7-15.4-80-53.1-105.7-109.8c-7.4-16.8-11.3-31.1-12-47.2c-0.7-12.8-3.2-30.4-5.3-39.5c-2.1-9.2-4.9-42.1-6-73.2
			c-2.1-53.4-1.8-56.4,3.9-51.6c10.9,9.5,15.5,23.4,21.1,64.4c15.1,106.1,45.4,163.2,102.2,192.1c20.8,10.6,25,11.7,50.7,10.6
			c24-1.5,31.7-3.3,57.8-16.8c47.9-24.9,97.9-77.6,123.6-131c14.5-30,27.5-70.6,35.9-113.4c4.6-22,10.2-46.8,12-54.9
			c6-24.9,27.5-35.5,40.5-20.5c5.6,6.2,6,9.9,2.1,34c-12,81.2-46.9,173.8-86.7,230.2c-8.5,11.7-19,28.9-24,38.8
			c-11.3,22-20.1,32.2-44.4,51.2C2814.5,6730.9,2756,6743.7,2703.1,6725z"/>
	</g>
	<g transform="translate(0.000000,737.000000) scale(0.100000,-0.100000)">
		<g>
			
				<linearGradient id="SVGID_00000160889746623314036000000005080628914560091554_" gradientUnits="userSpaceOnUse" x1="-3062.4912" y1="533465.75" x2="-3063.0137" y2="533465.9375" gradientTransform="matrix(1.023 0 0 1.3258 32405.9883 -764403.125)">
				<stop  offset="0" style="stop-color:#763525"/>
				<stop  offset="1" style="stop-color:#662D2A"/>
			</linearGradient>
			<path style="fill:url(#SVGID_00000160889746623314036000000005080628914560091554_);" d="M27040.7-59935.7
				c-623.6,223.2-1092.1,838-1303.5,1712.6c-133.9,541.6-183.2,1423.5-102.2,1833.4c21.1,109.8,84.6,106.2,405.2-29.3l267.7-109.8
				l21.1-483c21.1-526.9,102.2-925.8,250.1-1222.3l84.6-175.7l52.8,128.1c31.7,69.6,140.9,325.8,246.6,571l190.3,442.7l-77.5,98.8
				c-91.6,117.1-176.2,347.7-141,380.7c14.1,14.6,35.3,3.7,42.2-21.9c10.6-21.9,45.9-43.9,81.1-43.9c35.3,0,137.4-33,229-73.2
				c221.9-98.8,419.2-95.1,598.9,18.3c532,322,746.9,1405.3,380.5,1913.9c-102.2,142.8-341.7,259.9-591.9,296.4l-176.1,21.9
				l165.5,120.8c176.2,128.1,366.5,161,574.3,106.1c105.7-29.3,112.7-21.9,211.4,197.7c98.7,212.2,119.8,234.3,327.6,333
				c123.3,58.5,239.5,102.5,253.7,95.1c17.6-7.2-63.5-230.5-179.7-497.7c-140.9-329.4-200.8-505-176.1-530.6
				c17.6-25.6,59.8-142.8,95.1-263.5c116.2-413.4,63.5-1013.7-126.8-1500.4c-42.2-109.8-35.3-128.1,229-541.6
				c151.4-234.2,285.4-428.1,299.5-428.1c42.2,0,243.1,494.1,338.2,834.3c197.3,702.7,243.1,1482.1,119.8,2089.6
				c-56.3,285.4-140.9,516-345.2,925.8c-14.1,29.3,394.6,164.7,588.4,197.7c119.8,21.9,130.3,14.7,193.8-120.7
				c253.6-545.2,352.3-1145.4,331.1-1998.1c-21.1-713.6-116.4-1240.6-334.7-1855.4c-447.4-1251.6-1240.1-2170.1-2085.5-2429.9
				C27720.5-60019.9,27266-60016.1,27040.7-59935.7z M27914.3-59910.1c257.1,69.6,517.9,205,764.5,395.2
				c243.2,190.3,331.1,292.8,443.9,512.3c49.4,98.8,155.1,270.8,239.5,387.9c398,563.5,746.9,1489.4,866.6,2301.8
				c38.7,241.6,35.3,278.1-21.1,340.3c-130.3,150-345.2,43.9-405.2-205c-17.6-80.5-73.9-329.4-119.8-549
				c-84.6-428.1-214.9-834.3-359.3-1134.4c-257.1-534.3-757.4-1061.2-1236.5-1310.1c-260.7-135.4-338.2-153.7-577.7-168.4
				c-257.1-11-299.5,0-507.2,106.1c-567.2,289.2-870.2,860-1021.6,1921.3c-56.4,409.9-102.2,549-211.4,644.1
				c-56.4,47.6-59.9,18.3-38.8-516.1c10.6-311,38.8-640.4,59.9-731.9c21.1-91.5,45.8-267.1,52.8-395.2
				c14.1-270.9,147.9-592.9,391-947.8C26628.4-59833.2,27273.2-60082.1,27914.3-59910.1z"/>
		</g>
	</g>
</g>
<g transform="translate(0.000000,737.000000) scale(0.100000,-0.100000)">
	<g>
		
			<linearGradient id="SVGID_00000130646477691097333390000010487845188433406344_" gradientUnits="userSpaceOnUse" x1="-3799.3784" y1="-59981.5039" x2="-3799.3589" y2="-59980.793" gradientTransform="matrix(2.7847 0 0 0.3022 15496.8467 23739.0547)">
			<stop  offset="0" style="stop-color:#D6030C"/>
			<stop  offset="1" style="stop-color:#BB6565"/>
		</linearGradient>
		<path style="fill:url(#SVGID_00000130646477691097333390000010487845188433406344_);" d="M5503,5754.1c-27.1-1.8-50-4.8-51.1-6.2
			c-2.1-3.3-100.4-9.2-239.5-14.6c-94.1-4-347.4-8.4-725.4-13.2l-205.7-2.6l2.8-49.8c1.4-27.5,2.8-50.5,3.5-51.2
			c0.7-0.7,56.4-2.2,123.3-3.3l121.9-1.8l-8.8,13.9c-6.3,9.5-9.2,18.7-9.2,30c0,22.7,6.7,47.2,14.8,54.9c6.7,6.2,28.5,6.6,465,7.7
			l458.3,0.7l25.4-14.3c27.1-15,72.6-51.6,87.4-69.9c4.9-6.2,11.3-11,14.1-11c6.3,0,9.5,29.3,9.5,90v45.4l-18.3-0.7
			C5560.7,5757.8,5530.1,5755.9,5503,5754.1z"/>
	</g>
</g>
<g transform="translate(0.000000,737.000000) scale(0.100000,-0.100000)">
	<g>
		
			<linearGradient id="SVGID_00000053531144413920515500000003817459889927222665_" gradientUnits="userSpaceOnUse" x1="-3815.5186" y1="-53470.0898" x2="-3815.4941" y2="-53470.6406" gradientTransform="matrix(2.4904 0 0 0.7265 14583.8496 44570.6445)">
			<stop  offset="0" style="stop-color:#E67676"/>
			<stop  offset="1" style="stop-color:#E77C7B"/>
		</linearGradient>
		<path style="fill:url(#SVGID_00000053531144413920515500000003817459889927222665_);" d="M4541.2,5716
			c-22.9-5.9-26.4-31.8-7.1-50.9c23.2-22.7,109.2-58.6,288.9-120.4c341.7-117.8,635.9-185.2,787.4-180.4c38,1.1,46.1,2.6,58.5,9.9
			c20.4,11.7,23.6,19.8,22.2,54.2c-1.1,24.5-3.5,33.3-14.5,56.4c-16.2,34.4-51.1,83.1-92.6,129.2c-37.7,42.5-71.5,71.4-105.3,90.4
			l-25,14.3l-452.7-0.4C4751.9,5717.9,4545.1,5716.8,4541.2,5716z"/>
	</g>
</g>
<g transform="translate(0.000000,737.000000) scale(0.100000,-0.100000)">
	<g>
		
			<linearGradient id="SVGID_00000086683963227238385640000000337428414853919403_" gradientUnits="userSpaceOnUse" x1="-4127.9868" y1="-50335.4766" x2="-4127.7119" y2="-50335.8945" gradientTransform="matrix(9.9211 0 0 3.8239 42876.207 198866.4844)">
			<stop  offset="0" style="stop-color:#A3D2C8"/>
			<stop  offset="1" style="stop-color:#A2D3C9"/>
		</linearGradient>
		<path style="fill:url(#SVGID_00000086683963227238385640000000337428414853919403_);" d="M3577.7,6492.2
			c-30.7-8.4-49.7-19.8-70.8-41.7c-13.7-14.3-21.5-25.6-25.4-38.4c-3.5-11.3-9.1-61.5-14.8-129.9c-5.3-61.5-11.3-132.1-13.4-157.4
			l-4.2-45.7l-22.9-2.6c-120.8-12.4-340.3-12.4-410.4,0.4c-57.8,10.2-119.8,27.8-117.3,32.6c19,37.7,28.9,64,34.5,92.6
			c12.3,60.8,7.7,138.7-12,209c-9.5,34-29.6,83.4-33.8,83.4c-1.4,0-14.8-19.4-29.9-42.8c-26.4-41.4-27.1-43.2-22.9-54.2
			c19-48.7,24.3-108.7,12.7-150c-3.5-12.1-7.7-23.8-9.5-26.4c-2.5-2.6,3.5-20.1,17.6-53.1c12-27.4,19.4-49.4,17.3-50.1
			c-6.7-2.6-110.3,54.5-142.3,78.3c-60.2,45-119.8,105.4-158.2,159.9l-7.1,10.3l-70.5-3.7c-80-3.7-1258-138.7-1299.9-148.6
			c-112-26.7-212.8-114.2-263.9-228.7c-16.6-37.3-16.2-36.6-4.9-50.1c34.2-41,50-115.3,41.6-194c-2.1-20.9-7-48.7-10.9-61.8
			c-4.2-13.2-6.7-26.7-5.6-30c1.1-3.3,8.8-31.5,17.6-62.6c9.2-31.1,23.6-86.4,32.4-122.6c18.3-74.6,15.5-70.3,63.4-98.8
			c34.9-20.5,70.8-32.6,114.5-38.4c53.2-7,190.9-25.6,204.3-27.8l12.3-1.8l-1.1-41c-7-239,124.4-451.2,308.2-499.1
			c35.9-9.5,113.4-8.4,150.8,1.8c63.1,17.6,132.5,63.7,178.3,118.6c67.3,80.9,111.7,194,121.5,307.8c2.5,27.4,2.8,28.2,11.6,28.2
			h9.2v-86.7c0-76.1,1.1-91.9,8.1-124.1c10.9-53.1,22.9-88.6,46.5-138.7c54.2-116,143.4-197.6,246.6-225.1c26.1-7,37-7.7,86.3-6.6
			c53.9,1.5,58.1,1.8,92.7,14.6c19.7,6.9,49,20.9,64.5,30.7c34.2,21.2,87,72.1,112.4,107.6c65.9,92.6,101.8,210.4,102.2,335.9v41
			l18.7-0.4c9.9,0,50.7-1.5,90.5-3.3c39.8-1.8,195.9-5.1,347-7.3c151.1-1.8,281.5-4.8,289.9-5.8l14.8-1.8v-19
			c0-81.6,29.2-176.4,72.2-236c34.9-48.3,85.6-85.6,137.4-101.7c28.9-9.2,87.4-9.2,116.3,0c111.7,34.8,191.3,148.2,206.4,295.3
			l4.2,40.3l118.4-3c65.2-1.5,136.3-2.9,158.5-2.9h40.2l6,18.3c16.6,50.1,46.5,98.1,85.6,135.8c106,102.8,260.7,85.6,351.2-39.2
			c11.3-15.7,26.4-41.3,33.8-56.3l13.4-27.8l14.1,2.2c31.7,5.1,111,25.2,147.3,37.3c55.7,17.9,112.4,43.9,154.7,70.3
			c36.3,22.3,89.8,65.1,86.3,68.8c-0.7,1.1-26.1,6.6-55.7,12.1c-184.2,35.1-431.2,106.9-666.9,194c-94.4,35.1-142.7,55.3-164.2,68.8
			l-15.9,10.6l-153.2,2.6c-726.8,11.7-1673.3,70.6-2699.9,168l-200.8,19l-1.1,52.7l-1.1,52.3l18.7-2.2c69.7-8.4,596.4-56,857.1-77.2
			c620-50.1,1081.1-77.6,1705-101.4c202.2-7.7,883.5-2.9,1152,8c134.9,5.5,235.7,11.7,237.8,14.3c1.1,1.5,29.2,4.8,63.1,7
			c33.8,2.6,62,5.1,62.7,5.9c0.7,0.7-2.1,19-6,40.6c-14.1,75.8-42.3,148.9-80,207.9c-35.2,55.3-102.2,117.1-160.6,147.8
			c-24,12.4-80.3,34.8-82.4,32.6c-1.1-0.7-2.5-8.4-3.5-16.5c-1.8-12.4-3.2-15-9.9-15c-4.2,0-233.6,34.4-509.4,76.8
			c-465.4,71-503.1,77.6-520.7,86.7c-10.2,5.8-19.4,12.1-20.4,14.6c-1.1,2.6,1.8,9.5,6,15.7c4.9,7.3,6,11,2.8,11
			c-2.5,0-80.7,11.7-174,25.6c-93.7,14.3-171.6,25.6-173.3,25.6c-1.8,0-7.4-28.5-12.7-62.9c-5.3-34.8-12-76.8-14.4-93.3
			c-4.9-29.6-14.1-54.2-24-62.6c-4.2-4-4.9-2.2-3.9,11c4.6,53.4,8.1,196.5,5.6,206.4c-5.6,19-13.7,32.6-28.5,46.5
			c-18.3,17.2-30.7,23.4-62.7,32.2C3672.5,6499.5,3607,6500.3,3577.7,6492.2z"/>
	</g>
</g>
<g transform="translate(0.000000,737.000000) scale(0.100000,-0.100000)">
	<g>
		
			<linearGradient id="SVGID_00000048474160080500321000000014258036115229528724_" gradientUnits="userSpaceOnUse" x1="1174.5181" y1="-52089.75" x2="1174.9878" y2="-52089.75" gradientTransform="matrix(1.0051 0 0 1.3926 -249.8259 78407.1328)">
			<stop  offset="0" style="stop-color:#E77A7A"/>
			<stop  offset="1" style="stop-color:#E77A7A"/>
		</linearGradient>
		<path style="fill:url(#SVGID_00000048474160080500321000000014258036115229528724_);" d="M1187.5,6198.4
			c-60.9-18.7-112.4-49.8-159.9-97.3c-37-37.3-61.7-72.8-83.8-121.5c-19.7-43.2-19-46.1,15.9-56c28.2-7.7,57.1-42.8,67.3-82.3
			c2.1-8,6-43.6,9.2-78.7c8.1-97,24.3-147.1,59.9-185.2c33.8-35.8,68.3-48.3,140.9-51.6c133.5-5.5,151.8,20.5,164.2,232.4
			c7.7,136.9-9.2,243.7-52.5,331.5c-16.6,33.7-48.6,80.9-66.2,98.1C1263.9,6205.3,1225.2,6209.7,1187.5,6198.4z"/>
	</g>
</g>
<g transform="translate(0.000000,737.000000) scale(0.100000,-0.100000)">
	<g>
		
			<linearGradient id="SVGID_00000025426758867077200200000002329794560041544350_" gradientUnits="userSpaceOnUse" x1="1688.0702" y1="-50668.8125" x2="1688.5399" y2="-50668.8125" gradientTransform="matrix(0.9855 0 0 3.5829 -1076.3875 187336.7656)">
			<stop  offset="0" style="stop-color:#2B6F73"/>
			<stop  offset="1" style="stop-color:#2B6F73"/>
		</linearGradient>
		<path style="fill:url(#SVGID_00000025426758867077200200000002329794560041544350_);" d="M639.7,6662
			c-18-12.8-32.8-35.1-42.3-63.7c-7.7-23.1-8.5-32.2-9.9-109.4c-2.1-128.8,0.7-141.3,82.8-375.1l58.5-166.5l-10.2-7.3
			c-42.6-31.1-67.3-69.5-77.9-120c-18.7-89.7,38-176.8,134.9-208.2c23.2-7.3,26.1-9.2,26.4-17.6c0-5.1,1.4-86.4,3.2-181.1
			c3.2-183,6.7-228,23.2-305.6c20.4-93.7,53.9-160.3,90.2-179.7c28.5-15,73.6-2.6,92.3,25.6c13.4,19.8,25,50.1,32.4,82.7
			c8.8,38.8,8.8,141.3,0,206.7c-12.3,94.4-39.8,220.3-75,344c-8.8,31.1-16.6,59.3-17.6,62.6c-1.1,3.3,1.4,16.8,5.6,30
			c3.9,13.2,8.8,41,10.9,61.8c10.6,97.7-14.1,177.5-65.9,215.2c-7,5.1-7.7,9.9-11.6,93.3c-14.1,318-59.5,506.1-140.9,585.2
			c-22.6,22-43,31.5-73.3,34C654.9,6670.4,650.6,6669.7,639.7,6662z"/>
	</g>
</g>
<g transform="translate(0.000000,737.000000) scale(0.100000,-0.100000)">
	<g>
		
			<linearGradient id="SVGID_00000032630321835411888510000006838719716021557120_" gradientUnits="userSpaceOnUse" x1="6883.4727" y1="-52333.7109" x2="6883.9424" y2="-52333.7109" gradientTransform="matrix(0.548 0 0 1.4417 -3177.481 81757.0391)">
			<stop  offset="0" style="stop-color:#56B6A0"/>
			<stop  offset="1" style="stop-color:#56B6A0"/>
		</linearGradient>
		<path style="fill:url(#SVGID_00000032630321835411888510000006838719716021557120_);" d="M650.3,6652.5
			c-6.7-3.3-17.6-14.3-23.6-23.8c-41.6-64.4-42.6-207.9-2.8-339.2c12.3-40.6,114.5-330.5,117.3-333.7c1.4-1.5,12,0.7,23.6,4.8
			c11.6,4,35.9,8.4,54.2,9.5l33.1,2.2l-2.5,57.1c-8.5,204.2-38,397.8-76.8,501c-22.5,60.4-58.8,110.5-89.5,123.7
			C668.2,6660.6,665.1,6660.6,650.3,6652.5z"/>
	</g>
</g>
<g transform="translate(0.000000,737.000000) scale(0.100000,-0.100000)">
	<g>
		
			<linearGradient id="SVGID_00000000913926878251957020000007471561333831066517_" gradientUnits="userSpaceOnUse" x1="9573.0449" y1="-51620.668" x2="9573.5146" y2="-51620.668" gradientTransform="matrix(0.4285 0 0 1.4133 -3287.3455 78233.2578)">
			<stop  offset="0" style="stop-color:#56B6A0"/>
			<stop  offset="1" style="stop-color:#56B6A0"/>
		</linearGradient>
		<path style="fill:url(#SVGID_00000000913926878251957020000007471561333831066517_);" d="M914.8,5613.9
			c-18-13.2-35.6-16.8-69.8-13.9l-30.3,2.5l2.5-166.1c1.4-91.5,3.9-184.1,6-206.4c10.6-126.3,43-230.2,84.9-273.7
			c21.8-23,33.5-27.1,50.4-19c23.6,12.1,44,57.1,52.8,118.6c10.6,72.5,3.5,170.2-23.2,315.1c-12.3,66.2-56,252.5-59.2,252.1
			C927.9,5623.1,921.5,5618.7,914.8,5613.9z"/>
	</g>
</g>
<g transform="translate(0.000000,737.000000) scale(0.100000,-0.100000)">
	<g>
		
			<linearGradient id="SVGID_00000023979590701295731780000015331597142428962747_" gradientUnits="userSpaceOnUse" x1="-4039.78" y1="-53388.5117" x2="-4039.3105" y2="-53388.5117" gradientTransform="matrix(2.4976 0 0 0.7833 14604.8867 47323.4531)">
			<stop  offset="0" style="stop-color:#942236"/>
			<stop  offset="1" style="stop-color:#942236"/>
		</linearGradient>
		<path style="fill:url(#SVGID_00000023979590701295731780000015331597142428962747_);" d="M4517.3,5682.4
			c-3.9-20.1-2.8-40.3,2.8-51.6c14.5-28.9,86-61.1,301.2-135.4c293.8-101.7,547.1-164.7,720.4-179.7c68.7-5.8,96.5-3.7,112.7,9.2
			c16.6,13.2,29.6,34.4,32.4,52c2.1,13.5,2.1,13.9-3.9,7.7c-14.1-14.3-27.8-18.3-68.3-20.1c-164.5-7-532.3,82.3-897.3,217.7
			c-146.5,54.2-188.5,76.1-194.8,100.6l-2.8,12.1L4517.3,5682.4z"/>
	</g>
</g>
<g transform="translate(0.000000,737.000000) scale(0.100000,-0.100000)">
	<g>
		
			<linearGradient id="SVGID_00000103261489852161699200000007241747713191460487_" gradientUnits="userSpaceOnUse" x1="561.7801" y1="-52331" x2="562.2497" y2="-52331" gradientTransform="matrix(0.8316 0 0 0.9885 1839.4095 56940.3359)">
			<stop  offset="0" style="stop-color:#EFE4B0"/>
			<stop  offset="1" style="stop-color:#EFE4B0"/>
		</linearGradient>
		<path style="fill:url(#SVGID_00000103261489852161699200000007241747713191460487_);" d="M2479.3,5446
			c-32.8-7.3-50.4-17.6-80-46.5c-62.4-60.4-95.1-143.1-92.7-233.5l1.1-38.4l11.6,34.8c26.8,78.3,58.1,124.4,84.9,124.4
			c11.3,0,39.1-14.6,44.7-23.8c4.6-7.3,4.2-11-3.5-37c-27.1-90.8-29.6-139.8-9.2-196.1c7.1-19.8,38.4-61.5,45.8-61.5
			c1.8,0-3.9,13.5-12.3,30.4c-20.8,40.6-27.5,71.4-25.7,117.8c4.6,98.8,66.6,184.8,133.9,184.8c33.5,0,56.7-11.3,86.7-42.4
			c14.1-15,27.1-27.1,28.9-27.1c9.9,0-1.4,57.1-19.4,97.7C2631.5,5425.5,2564.9,5465.4,2479.3,5446z"/>
	</g>
</g>
<g transform="translate(0.000000,737.000000) scale(0.100000,-0.100000)">
	<g>
		
			<linearGradient id="SVGID_00000147942882218604997210000004448326711722322070_" gradientUnits="userSpaceOnUse" x1="23400.4336" y1="-90256.9219" x2="23400.9023" y2="-90256.9219" gradientTransform="matrix(0.141 0 0 8.658000e-02 -542.5573 13976.3057)">
			<stop  offset="0" style="stop-color:#FFFFFF"/>
			<stop  offset="1" style="stop-color:#FFFFFF"/>
		</linearGradient>
		<path style="fill:url(#SVGID_00000147942882218604997210000004448326711722322070_);" d="M2786.9,6179.3
			c-5.6-1.8-15.1-2.6-21.1-1.5c-9.9,2.2-10.2,1.8-3.9-3.3c8.5-7.3,62-36.2,62-33.7c0,6.2-19.7,42.4-22.9,42.1
			C2799.2,6183,2792.9,6181.2,2786.9,6179.3z"/>
	</g>
</g>
<g transform="translate(0.000000,737.000000) scale(0.100000,-0.100000)">
	<g>
		
			<linearGradient id="SVGID_00000093886029477574157740000003515623672233695380_" gradientUnits="userSpaceOnUse" x1="-3874.0015" y1="-51522.375" x2="-3873.5315" y2="-51522.375" gradientTransform="matrix(2.4562 0 0 2.3831 13699.1816 129523.6484)">
			<stop  offset="0" style="stop-color:#A0373E"/>
			<stop  offset="1" style="stop-color:#A0373E"/>
		</linearGradient>
		<path style="fill:url(#SVGID_00000093886029477574157740000003515623672233695380_);" d="M5054.2,7316
			c-56.4-16.5-103.9-47.2-151.1-98.4c-81.7-89.3-293.4-345.4-642.9-779.5c-41.9-52.3-76.4-97-76.4-99.5c0-2.6,8.5-9.5,18.7-15.4
			c17.6-10.6,35.2-13.5,522.1-88.2c277.2-42.5,507.3-77.2,511.9-77.2c4.2,0,7.8,2.2,7.8,4.8c0,8.8,77.2,614.1,85.3,668.6
			c6.7,44.3,8.1,68.4,8.1,146.4c0,99.5-2.5,124.8-18.3,177.5c-21.1,70.3-56.4,116.7-111,146.7l-32.8,17.6l-51.1,1.1
			C5087.3,7321.1,5067.9,7319.6,5054.2,7316z"/>
	</g>
</g>
<g transform="translate(0.000000,737.000000) scale(0.100000,-0.100000)">
	<g>
		
			<linearGradient id="SVGID_00000020400976836441312240000005744681267761651374_" gradientUnits="userSpaceOnUse" x1="-3862.7317" y1="-51680.2852" x2="-3862.0847" y2="-51680.1406" gradientTransform="matrix(2.324 0 0 2.2961 13167.0586 125175.2422)">
			<stop  offset="0" style="stop-color:#D93E47"/>
			<stop  offset="1" style="stop-color:#DD3F48"/>
		</linearGradient>
		<path style="fill:url(#SVGID_00000020400976836441312240000005744681267761651374_);" d="M5094.3,7285.2
			c-59.2-16.8-102.5-45.8-154.3-103.9c-89.1-99.5-289.2-341.8-573.2-694.2c-70.4-87.5-130-160.3-131.7-161.7
			c-1.8-1.5,0.3-3.3,5.3-4.4c22.2-5.5,983.9-151.5,987.4-150c2.8,1.1,19,117.8,46.2,330.1c22.9,180.4,44,344,46.8,363
			c7,51.6,7,179.3-0.4,224c-16.2,96.2-51.4,162.9-101.8,191.4c-17.3,9.9-21.8,11-59.2,11.7
			C5128.5,7291.8,5113.3,7290.3,5094.3,7285.2z"/>
	</g>
</g>
<g transform="translate(0.000000,737.000000) scale(0.100000,-0.100000)">
	<g>
		
			<linearGradient id="SVGID_00000023267416397631761580000011344438988403950498_" gradientUnits="userSpaceOnUse" x1="927.5651" y1="-55533.5703" x2="928.0347" y2="-55533.5703" gradientTransform="matrix(0.5469 0 0 0.6382 2984.1492 41752.5664)">
			<stop  offset="0" style="stop-color:#E77A7A"/>
			<stop  offset="1" style="stop-color:#E77A7A"/>
		</linearGradient>
		<path style="fill:url(#SVGID_00000023267416397631761580000011344438988403950498_);" d="M3599.9,6465.1
			c-69.4-10.2-108.2-78.7-108.5-192.1c0-38.4,1.1-46.1,8.1-62.2c10.9-24.5,18.3-32.2,44-44.3c19.7-9.5,25.4-10.6,60.6-10.6
			c35.2,0,40.9,1.1,61,10.6c54.6,26.3,82.1,87.1,83.1,183.3c0.3,40.3-0.4,45.7-8.8,64.4c-9.9,21.6-24.3,35.5-47.6,45.8
			C3676.7,6467,3630.2,6469.5,3599.9,6465.1z"/>
	</g>
</g>
<g transform="translate(0.000000,737.000000) scale(0.100000,-0.100000)">
	<g>
		
			<linearGradient id="SVGID_00000094593525662862440030000007779472858212388532_" gradientUnits="userSpaceOnUse" x1="35197.6016" y1="-108782.25" x2="35198.0703" y2="-108782.25" gradientTransform="matrix(5.896000e-02 0 0 5.489000e-02 2119.4819 11880.5205)">
			<stop  offset="0" style="stop-color:#BAC8C9"/>
			<stop  offset="1" style="stop-color:#BAC8C9"/>
		</linearGradient>
		<path style="fill:url(#SVGID_00000094593525662862440030000007779472858212388532_);" d="M4195.6,5918.4
			c-1.1-2.9-1.4-9.2-0.7-13.9c0.7-6.6,3.2-8.4,11.3-8.4c12.7,0,19.7,9.9,14.1,19.4C4215.4,5923.5,4198.5,5925.7,4195.6,5918.4z"/>
	</g>
</g>
<g transform="translate(0.000000,737.000000) scale(0.100000,-0.100000)">
	<g>
		
			<linearGradient id="SVGID_00000152951399773690301900000010901188709163864720_" gradientUnits="userSpaceOnUse" x1="-3924.9443" y1="-54966.5352" x2="-3924.4746" y2="-54966.5352" gradientTransform="matrix(5.9272 0 0 0.5962 24745.4453 38534.3125)">
			<stop  offset="0" style="stop-color:#D22128"/>
			<stop  offset="1" style="stop-color:#D22128"/>
		</linearGradient>
		<path style="fill:url(#SVGID_00000152951399773690301900000010901188709163864720_);" d="M1482.4,5853.6l1.1-52.7l123.3-11.7
			c966.7-93,1763.9-146,2580.1-171.6l78.6-2.5l-2.5,50.8c-1.8,30.8-4.2,52-6.7,53.4c-2.1,1.5-25.4,2.9-51.4,2.9
			c-233.2,0.4-979,39.2-1516.6,79.1c-369.5,27.1-1064.9,87.1-1188.2,102.5l-18.7,2.2L1482.4,5853.6z"/>
	</g>
</g>
<g transform="translate(0.000000,737.000000) scale(0.100000,-0.100000)">
	<g>
		
			<linearGradient id="SVGID_00000039092101380910413310000000891334263959665803_" gradientUnits="userSpaceOnUse" x1="33932.3789" y1="-96808.8516" x2="33932.8477" y2="-96808.8516" gradientTransform="matrix(6.006000e-02 0 0 6.311000e-02 2184.0405 11760.7119)">
			<stop  offset="0" style="stop-color:#1B181B"/>
			<stop  offset="1" style="stop-color:#1B181B"/>
		</linearGradient>
		<path style="fill:url(#SVGID_00000039092101380910413310000000891334263959665803_);" d="M4228.8,5663.3c-9.5-5.5-8.1-20.8,2.5-26
			c10.6-4.8,19.4,1.1,19.4,13.2C4250.6,5664.8,4240.7,5670.7,4228.8,5663.3z"/>
	</g>
</g>
<g transform="translate(0.000000,737.000000) scale(0.100000,-0.100000)">
	<g>
		
			<linearGradient id="SVGID_00000145049145779812966960000014160677899543125159_" gradientUnits="userSpaceOnUse" x1="-782.9675" y1="-53688.6484" x2="-783.4874" y2="-53688.4531" gradientTransform="matrix(0.8874 0 0 0.965 4493.4614 58032.293)">
			<stop  offset="0" style="stop-color:#44262F"/>
			<stop  offset="1" style="stop-color:#4A2F35"/>
		</linearGradient>
		<path style="fill:url(#SVGID_00000145049145779812966960000014160677899543125159_);" d="M3608.4,6545.3
			c-84.9-11.3-144.4-62.2-154.3-132.5c-2.8-19.8-27.8-318.4-27.8-331.2c0-3.3,3.9-4.4,11.6-3.7l11.3,1.1l4.2,45.8
			c2.1,25.3,8.1,95.9,13.4,157.4c5.6,68.4,11.3,118.6,14.8,129.9c6.7,22,37,54.9,61,67c52.8,26,151.1,25.6,200.8-1.1
			c25.4-13.5,45.8-38.8,53.5-65.5c2.5-9.9-1.4-153-5.6-206.4c-1.1-15-1.1-15.4,4.9-9.9c10.9,10.2,20.1,38.8,26.4,82.3
			c3.2,23.1,9.5,65.9,14.4,94.8c9.2,56.4,8.5,66.6-5.6,95.5c-7.8,16.1-33.1,41-51.8,50.5c-21.5,11.7-60.2,22.3-94.4,26.3
			C3649.2,6549.7,3642.2,6549.7,3608.4,6545.3z"/>
	</g>
</g>
<g transform="translate(0.000000,737.000000) scale(0.100000,-0.100000)">
	<g>
		
			<linearGradient id="SVGID_00000165231618973131176410000006268431118126627226_" gradientUnits="userSpaceOnUse" x1="29604.8887" y1="-89762.875" x2="29605.3594" y2="-89762.875" gradientTransform="matrix(6.750000e-02 0 0 6.750000e-02 2227.5977 11453.7305)">
			<stop  offset="0" style="stop-color:#08352B"/>
			<stop  offset="1" style="stop-color:#08352B"/>
		</linearGradient>
		<path style="fill:url(#SVGID_00000165231618973131176410000006268431118126627226_);" d="M4231.6,5405.4
			c-3.2-2.9-5.6-8.1-5.6-10.6c0-6.6,9.5-16.5,15.9-16.5c6.3,0,15.8,9.9,15.8,16.5c0,6.6-9.5,16.5-15.8,16.5
			C4239.3,5411.2,4234.4,5408.6,4231.6,5405.4z"/>
	</g>
</g>
<g transform="translate(0.000000,737.000000) scale(0.100000,-0.100000)">
	<g>
		
			<linearGradient id="SVGID_00000001649595047636492070000001742412159969012355_" gradientUnits="userSpaceOnUse" x1="-3096.3762" y1="-51411.6719" x2="-3095.9067" y2="-51411.6719" gradientTransform="matrix(1.1362 0 0 1.4109 8048.6533 77527.4375)">
			<stop  offset="0" style="stop-color:#898D93"/>
			<stop  offset="1" style="stop-color:#898D93"/>
		</linearGradient>
		<path style="fill:url(#SVGID_00000001649595047636492070000001742412159969012355_);" d="M4741,5330.7
			c-83.8-23.4-156.1-100.6-189.5-202c-21.1-64.4-26.8-150-14.1-216.6c23.3-124.4,94.1-218.5,190.6-253.2
			c24.3-8.8,33.8-10.2,68.7-10.2c33.1,0,45.1,1.5,65.2,8.4c37.3,12.4,66.9,31.5,97.2,61.5c126.8,125.9,141.3,361.6,31.4,512.7
			c-32.8,45.4-75,77.6-125.8,96.2C4834,5338.7,4774.8,5340.2,4741,5330.7z"/>
	</g>
</g>
<g transform="translate(0.000000,737.000000) scale(0.100000,-0.100000)">
	<g>
		
			<linearGradient id="SVGID_00000018954767718136126140000004776526754211254422_" gradientUnits="userSpaceOnUse" x1="-1634.6792" y1="-53196.7656" x2="-1634.2096" y2="-53196.7656" gradientTransform="matrix(0.5851 0 0 0.6881 5580.6035 41654.6602)">
			<stop  offset="0" style="stop-color:#EEE3AF"/>
			<stop  offset="1" style="stop-color:#EEE3AF"/>
		</linearGradient>
		<path style="fill:url(#SVGID_00000018954767718136126140000004776526754211254422_);" d="M4737.8,5215.8
			c-22.2-7.3-37.3-18.3-58.8-42.4c-24.3-27.4-43-66.2-49.7-103.6c-6-32.9-7-72.1-1.8-72.1c2.1,0,3.5,2.5,3.5,5.8
			c0,8.8,20.1,56.7,31.7,75.8c5.6,9.2,15.1,19.4,21.1,22.7c10.2,5.5,12,5.5,23.6-0.7c19.7-10.3,21.1-14.6,12-46.5
			c-16.6-58.2-16.2-101.4,1.1-137.2c8.1-16.1,25-36.2,28.2-33c1.1,0.7-4.2,13.5-11.3,28.6c-11.3,23.8-13,30.4-14.1,61.5
			c-1.1,22.7-0.4,35.9,2.5,38.8c2.1,2.2,3.9,6.9,3.9,10.6c0,12.4,18.7,48.3,34.2,65.5c32.8,36.6,76.1,35.5,111.7-2.6
			c7.1-7.7,12.7-15,12.7-16.8c0-1.5,2.5-2.9,5.3-2.9c17.3,0-9.5,81.2-38,115.3c-19.4,23.8-44.7,35.9-76.4,37.3
			C4763.2,5220.5,4746.6,5218.7,4737.8,5215.8z"/>
	</g>
</g>
<g transform="translate(0.000000,737.000000) scale(0.100000,-0.100000)">
	<g>
		
			<linearGradient id="SVGID_00000114796133660389207150000011560764544442890155_" gradientUnits="userSpaceOnUse" x1="743.7161" y1="-53276.0391" x2="743.4225" y2="-53276.4375" gradientTransform="matrix(1.0295 0 0 0.6429 1098.7666 39535.0859)">
			<stop  offset="0" style="stop-color:#858688"/>
			<stop  offset="1" style="stop-color:#898A8C"/>
		</linearGradient>
		<path style="fill:url(#SVGID_00000114796133660389207150000011560764544442890155_);" d="M1511.3,5245.8
			c15.9-176.7,141.6-307.8,273.4-284.7c91.6,16.1,171.9,105.4,200.8,223.6c11.3,45,12.7,42.8-26.4,44.3c-18.7,0.4-34.9,2.9-36.3,5.1
			c-2.5,4-224.4,28.9-250.8,27.8c-8.8-0.4-34.9,1.8-58.1,4.8c-23.2,2.9-56,5.5-73.3,5.5h-31.7L1511.3,5245.8z"/>
	</g>
</g>
<g transform="translate(0.000000,737.000000) scale(0.100000,-0.100000)">
	<g>
		
			<linearGradient id="SVGID_00000049913553393954713810000004088101348828411292_" gradientUnits="userSpaceOnUse" x1="4828.249" y1="-59864.8203" x2="4828.7188" y2="-59864.8203" gradientTransform="matrix(0.4224 0 0 0.3875 628.0521 29741.5859)">
			<stop  offset="0" style="stop-color:#FFFFFF"/>
			<stop  offset="1" style="stop-color:#FFFFFF"/>
		</linearGradient>
		<path style="fill:url(#SVGID_00000049913553393954713810000004088101348828411292_);" d="M2704.1,6633.8
			c-8.8-2.9-25.4-11.7-34.9-18.3c-4.2-2.9-0.4-14.6,22.5-67.7l27.5-64.4h17.3c19.7,0,41.2-9.9,58.1-26.7c6.3-6.2,12-10.6,12.7-9.5
			c0.7,0.7,14.4,21.6,29.9,46.1l28.9,44.6l-13.7,17.6c-21.5,28.2-53.2,56.4-77.1,68.1C2752.3,6634.6,2720.3,6639.3,2704.1,6633.8z"
			/>
	</g>
</g>
<g transform="translate(0.000000,737.000000) scale(0.100000,-0.100000)">
	<g>
		
			<linearGradient id="SVGID_00000065076462975359096310000006959758159979705741_" gradientUnits="userSpaceOnUse" x1="-915.7723" y1="-55242.0078" x2="-915.3026" y2="-55242.0078" gradientTransform="matrix(0.7215 0 0 0.426 4438.2075 28566.9902)">
			<stop  offset="0" style="stop-color:#88898B"/>
			<stop  offset="1" style="stop-color:#88898B"/>
		</linearGradient>
		<path style="fill:url(#SVGID_00000065076462975359096310000006959758159979705741_);" d="M3779.9,5119.5
			c10.2-80.5,50.7-146.7,107.1-175.7c25.4-13.2,28.5-13.9,60.6-13.9c31,0,35.6,1.1,58.1,12.5c56.4,28.5,94.8,90.4,108.8,174.6
			l1.8,11.3l-48.3,2.2c-26.4,1.5-102.9,3.7-169.4,4.8l-121.2,2.6L3779.9,5119.5z"/>
	</g>
</g>
<g transform="translate(0.000000,737.000000) scale(0.100000,-0.100000)">
	<g>
		
			<linearGradient id="SVGID_00000027574775183749182750000005266674152567398546_" gradientUnits="userSpaceOnUse" x1="36899.7734" y1="-64006.668" x2="36900.2422" y2="-64006.668" gradientTransform="matrix(5.475000e-02 0 0 0.21 2240.8916 19108.7578)">
			<stop  offset="0" style="stop-color:#8A2D32"/>
			<stop  offset="1" style="stop-color:#8A2D32"/>
		</linearGradient>
		<path style="fill:url(#SVGID_00000027574775183749182750000005266674152567398546_);" d="M4261.2,5703.2c0-8.8,1.1-31.8,2.5-51.2
			l2.1-35.9h10.6h10.6l-2.1,35.9c-1.4,19.4-2.5,42.5-2.5,51.2c0,14.6-0.3,15.4-10.6,15.4C4261.5,5718.6,4261.2,5717.9,4261.2,5703.2
			z"/>
	</g>
</g>
<g transform="translate(0.000000,737.000000) scale(0.100000,-0.100000)">
	<g>
		
			<linearGradient id="SVGID_00000170976865209071302070000001793686402060976259_" gradientUnits="userSpaceOnUse" x1="2816.7166" y1="-54769.2891" x2="2817.1863" y2="-54769.2891" gradientTransform="matrix(0.5498 0 0 0.7526 1007.8662 47608.2656)">
			<stop  offset="0" style="stop-color:#FFFFFF"/>
			<stop  offset="1" style="stop-color:#FFFFFF"/>
		</linearGradient>
		<path style="fill:url(#SVGID_00000170976865209071302070000001793686402060976259_);" d="M2625.5,6554
			c-14.1-33.3-20.4-64.4-22.6-117.1l-2.1-48.3l-24.7-10.2c-18.3-7.3-22.9-10.6-17.6-12.1c3.9-1.1,16.6-14.3,28.2-29.3
			c33.1-43.2,56-67.7,94.1-101c32.1-27.8,37-30.7,50.4-30.7c17.3,0,48.6,11.7,59.9,22.7c27.1,26.3,31.7,93,9.9,143.8
			c-23.6,55.6-59.5,75.8-102.2,56.7c-9.2-4-19.4-7.3-22.9-7.3c-3.5,0-7-2.2-8.1-4.4c-0.7-2.6-2.8-3.7-4.2-2.2
			c-3.5,3.3,4.9,26.4,14.1,38.1l7.7,9.9l-22.9,53.4c-12.3,29.3-24,54.9-25.4,56.4C2635.7,6573.8,2630.4,6565.8,2625.5,6554z"/>
	</g>
</g>
<g transform="translate(0.000000,737.000000) scale(0.100000,-0.100000)">
	<g>
		
			<linearGradient id="SVGID_00000141414359227432869230000004497557145335454135_" gradientUnits="userSpaceOnUse" x1="36424.75" y1="-110718.6953" x2="36425.2188" y2="-110718.6953" gradientTransform="matrix(5.914000e-02 0 0 5.743000e-02 1969.6555 12516.4902)">
			<stop  offset="0" style="stop-color:#08352B"/>
			<stop  offset="1" style="stop-color:#08352B"/>
		</linearGradient>
		<path style="fill:url(#SVGID_00000141414359227432869230000004497557145335454135_);" d="M4126.2,6170.2
			c-4.2-4.8-2.8-18.7,2.8-23.4c3.2-2.6,8.8-3.7,14.1-2.2c7.7,2.2,9.2,4,8.1,14.3c-1.1,10.3-2.5,11.7-11.6,12.8
			C4133.6,6172.4,4127.6,6171.6,4126.2,6170.2z"/>
	</g>
</g>
<g transform="translate(0.000000,737.000000) scale(0.100000,-0.100000)">
	<g>
		
			<linearGradient id="SVGID_00000053544570242857464960000017185005254120569477_" gradientUnits="userSpaceOnUse" x1="37597.168" y1="-94871.4219" x2="37597.6406" y2="-94871.4219" gradientTransform="matrix(5.553000e-02 0 0 5.513000e-02 2110.3789 10422.5293)">
			<stop  offset="0" style="stop-color:#08352B"/>
			<stop  offset="1" style="stop-color:#08352B"/>
		</linearGradient>
		<path style="fill:url(#SVGID_00000053544570242857464960000017185005254120569477_);" d="M4199.2,5201.2
			c-1.1-2.9-1.4-9.2-0.7-13.9c0.7-7,3.2-8.4,13.4-8.4c11.6,0,12.3,0.7,12.3,12.8c0,11.7-1.1,12.8-11.6,13.9
			C4205.2,5206.3,4200.6,5204.8,4199.2,5201.2z"/>
	</g>
</g>
<g transform="translate(0.000000,737.000000) scale(0.100000,-0.100000)">
	<g>
		
			<linearGradient id="SVGID_00000031175896843264992540000000905444625064786070_" gradientUnits="userSpaceOnUse" x1="38357.2539" y1="-113587.2188" x2="38357.7266" y2="-113587.2188" gradientTransform="matrix(5.954000e-02 0 0 5.773000e-02 1723.5823 12890.7871)">
			<stop  offset="0" style="stop-color:#08352B"/>
			<stop  offset="1" style="stop-color:#08352B"/>
		</linearGradient>
		<path style="fill:url(#SVGID_00000031175896843264992540000000905444625064786070_);" d="M4008.9,6342.9
			c-4.2-11.3,0-22.3,9.5-23.4c10.9-1.5,18.3,6.6,16.6,18.3c-0.7,6.6-3.5,8.8-12.7,9.5C4014.9,6348,4010.3,6346.6,4008.9,6342.9z"/>
	</g>
</g>
<g transform="translate(0.000000,737.000000) scale(0.100000,-0.100000)">
	<g>
		
			<linearGradient id="SVGID_00000041271036904473367190000017264622933270207375_" gradientUnits="userSpaceOnUse" x1="-1617.7101" y1="-50806.2969" x2="-1617.9855" y2="-50806.7617" gradientTransform="matrix(1.6142 0 0 2.0158 5345.6631 107921.9062)">
			<stop  offset="0" style="stop-color:#555555;stop-opacity:0.8743"/>
			<stop  offset="1" style="stop-color:#555555;stop-opacity:0.8745"/>
		</linearGradient>
		<path style="fill:url(#SVGID_00000041271036904473367190000017264622933270207375_);" d="M2489.2,5610.3
			c-150.8-33.3-266.3-171.6-307.2-367.4c-6.7-33.7-7.7-48.7-7.7-120.8c0-71.4,1.1-87.5,7.7-119.3c10.9-53.1,22.9-88.6,46.5-138.7
			c54.2-116,143.4-197.6,246.6-225.1c26.1-7,37-7.7,86.3-6.6c53.9,1.5,58.1,1.8,92.7,14.6c47.9,17.2,86.3,41.7,126.1,80.9
			c84.5,82.7,134.9,193.6,149.7,328.3c5.3,49.4,2.1,136.9-7.1,183.7c-37.3,192.8-158.5,338.5-307.5,370.3
			C2582.2,5617.2,2520.9,5617.6,2489.2,5610.3z M2579.4,5609.2c-1.1-1.5-8.1-4-15.5-5.5c-20.8-3.3-66.6-20.1-94.1-34
			c-43-22.3-83.5-52.7-120.1-90.8c-65.2-67.7-106.4-147.8-127.2-248.1c-8.8-42.1-8.8-172.4,0.3-222.1c8.1-46.1,24.3-116,37.3-163.6
			c6-20.8,10.2-40.3,9.9-42.1c-3.5-11-49.3,80.5-65.9,131.4c-20.8,65.1-26.8,107.6-26.4,191.4c0,63.7,1.4,80.9,8.1,113.4
			c22.2,108,62.7,191.7,125.8,259.8c56,60.4,120.5,97.4,190.6,109.8C2525.5,5612.8,2581.5,5613.2,2579.4,5609.2z M2578.7,5482.2
			c68-18.3,135.3-84.9,167.3-165.4c21.1-53.4,26.8-84.2,26.8-152.6c0-52.3-1.4-67.3-8.1-94.4c-53.2-217.7-244.1-301.2-379.4-165.4
			c-39.1,39.2-70.5,97.7-87,162.1c-4.9,19.8-7.4,44.3-8.8,83.1c-1.4,46.8-0.7,60.4,6,93.3c23.6,119.7,95.1,211.5,185,238.2
			C2507.2,5489.2,2550.8,5489.9,2578.7,5482.2z"/>
	</g>
</g>
<g transform="translate(0.000000,737.000000) scale(0.100000,-0.100000)">
	<g>
		
			<linearGradient id="SVGID_00000053547541022427753310000000737921988262949036_" gradientUnits="userSpaceOnUse" x1="616.7957" y1="-51290.043" x2="617.1053" y2="-51290.0625" gradientTransform="matrix(0.8552 0 0 1.6599 1679.3987 90369.8828)">
			<stop  offset="0" style="stop-color:#7F7F7F;stop-opacity:0.7221"/>
			<stop  offset="1" style="stop-color:#7F7F7F;stop-opacity:0.764"/>
		</linearGradient>
		<path style="fill:url(#SVGID_00000053547541022427753310000000737921988262949036_);" d="M2502.2,5608.8
			c-130.7-23-246.6-137.6-296.6-293.9c-22.6-70.6-27.8-105.4-27.8-189.2c-0.4-83.8,5.6-126.3,26.4-191.4
			c16.6-50.9,62.4-142.4,65.9-131.4c0.4,1.8-3.9,21.2-9.9,42.1c-13,47.6-29.2,117.5-37.3,163.6c-9.2,49.8-9.2,180.1-0.4,222.1
			c20.8,100.3,62,180.4,127.2,248.1c36.6,38.1,77.2,68.4,120.1,90.8c27.5,13.9,73.3,30.7,94.1,34c7.4,1.5,14.4,4,15.5,5.5
			C2581.5,5613.2,2525.5,5612.8,2502.2,5608.8z"/>
	</g>
</g>
<g transform="translate(0.000000,737.000000) scale(0.100000,-0.100000)">
	<g>
		
			<linearGradient id="SVGID_00000000909410827509155960000005133452840350689175_" gradientUnits="userSpaceOnUse" x1="-456.7103" y1="-54008.207" x2="-456.1469" y2="-54008.4492" gradientTransform="matrix(0.7378 0 0 0.8532 3823.5037 52414.0664)">
			<stop  offset="0" style="stop-color:#FF0000;stop-opacity:0.6647"/>
			<stop  offset="1" style="stop-color:#FF0000;stop-opacity:0.6693"/>
		</linearGradient>
		<path style="fill:url(#SVGID_00000000909410827509155960000005133452840350689175_);" d="M3577.7,6492.2
			c-30.7-8.4-49.7-19.8-70.8-41.7c-13.7-14.3-21.5-25.6-25.4-38.4c-3.5-11.3-9.1-61.1-14.8-128.1c-4.9-60.4-10.9-129.9-13-154.8
			c-2.1-24.5-2.8-45.7-1.4-47.2c3.2-3.3,87.7,8.4,138.1,19c82.1,17.9,153.9,47.2,186.4,76.1l13.7,12.4l4.6,100.3
			c4.9,107.6,4.6,120.8-6,142c-21.2,43.6-74,66.6-151.1,65.9C3614,6497.7,3589,6495.5,3577.7,6492.2z M3691.9,6460
			c23.2-10.2,37.7-24.2,47.6-45.7c8.5-18.7,9.2-24.2,8.8-64.4c-1.1-96.2-28.5-157-83.1-183.3c-20.1-9.5-25.7-10.6-60.9-10.6
			c-35.2,0-40.9,1.1-60.6,10.6c-25.7,12.1-33.1,19.8-44,44.3c-7.1,16.1-8.1,23.8-8.1,62.2c0.4,113.4,39.1,181.9,108.5,192.1
			C3630.2,6469.5,3676.7,6467,3691.9,6460z"/>
	</g>
</g>
<g transform="translate(0.000000,737.000000) scale(0.100000,-0.100000)">
	<g>
		
			<linearGradient id="SVGID_00000018928360040914138210000006493397079422791557_" gradientUnits="userSpaceOnUse" x1="-1434.0251" y1="-51860.7148" x2="-1433.5555" y2="-51860.7148" gradientTransform="matrix(1.6215 0 0 1.1194 3718.8411 63079.2969)">
			<stop  offset="0" style="stop-color:#000000;stop-opacity:0.5477"/>
			<stop  offset="1" style="stop-color:#000000;stop-opacity:0.5477"/>
		</linearGradient>
		<path style="fill:url(#SVGID_00000018928360040914138210000006493397079422791557_);" d="M1396.1,5295.6
			c-4.2-4.8-2.8-91.1,2.8-133.9c25.7-202.7,146.5-363.4,303.7-404.4c35.9-9.5,113.4-8.4,150.8,1.8c63.1,17.5,132.5,63.7,178.3,118.6
			c67.3,81.2,112.4,195.8,121.5,308.5l2.1,29.3l-112,10.2c-119.4,11-127.2,11.3-115.9,6.2c3.9-1.8,20.1-3.3,36.3-3.3
			c33.8-0.4,33.1,1.1,21.8-43.9c-22.9-93.3-75.4-167.2-144.8-203.1c-49.7-26-93-30-145.1-13.2c-96.2,31.1-172.6,146-184.2,277.4
			l-2.5,26.3h31.4c16.9,0,51.4-2.6,76.1-5.8c25-2.9,47.9-5.1,51.4-4.4c6.7,1.8,5.3,1.8-140.2,19.4c-59.2,7.3-112.4,13.9-118,15
			C1403.5,5297.4,1397.5,5297,1396.1,5295.6z"/>
	</g>
</g>
<g transform="translate(0.000000,737.000000) scale(0.100000,-0.100000)">
	<g>
		
			<linearGradient id="SVGID_00000153685494418389426140000013132522935858626694_" gradientUnits="userSpaceOnUse" x1="-2269.7043" y1="-52805.8125" x2="-2269.2344" y2="-52805.8125" gradientTransform="matrix(1.1382 0 0 0.7461 6277.4048 44358.3398)">
			<stop  offset="0" style="stop-color:#000000;stop-opacity:0.5407"/>
			<stop  offset="1" style="stop-color:#000000;stop-opacity:0.5407"/>
		</linearGradient>
		<path style="fill:url(#SVGID_00000153685494418389426140000013132522935858626694_);" d="M3694,5125c0-82,29.2-176.7,72.2-236.4
			c34.9-48.3,85.6-85.6,137.4-101.7c28.9-9.2,87.4-9.2,116.2,0c111,34.4,190.6,147.5,206.4,292.8c3.2,30.8,3.2,39.9-0.4,44.3
			c-3.5,4.4-13.4,5.5-49.7,5.5c-26.1,0-45.8,1.5-47.2,3.7c-1.4,2.2-18.7,3.7-41.6,3.3c-25.4,0-37-1.1-32.4-3.3
			c3.9-1.8,19.4-3.3,34.2-3.3l27.5-0.4l-2.1-11.7c-14.4-85.3-52.5-146.7-108.8-175.3c-22.6-11.3-27.1-12.5-58.1-12.5
			c-32.1,0-35.2,0.7-60.6,13.9c-56.4,28.5-96.9,95.1-107.1,175.3l-2.5,17.6l61.3,0.7c60.6,0.4,61,0.4,22.6,2.9
			c-21.1,1.5-67.6,2.9-102.9,3.3l-64.5,0.4L3694,5125L3694,5125L3694,5125z"/>
	</g>
</g>
<g transform="translate(0.000000,737.000000) scale(0.100000,-0.100000)">
	<g>
		
			<linearGradient id="SVGID_00000129916775871343442920000011316194053667645116_" gradientUnits="userSpaceOnUse" x1="-3026.6182" y1="-52996.4453" x2="-3026.759" y2="-52997.0117" gradientTransform="matrix(2.6375 0 0 0.9808 11767.9756 58284.9414)">
			<stop  offset="0" style="stop-color:#FFFFFF;stop-opacity:0.718"/>
			<stop  offset="1" style="stop-color:#FFFFFF;stop-opacity:0.7191"/>
		</linearGradient>
		<path style="fill:url(#SVGID_00000129916775871343442920000011316194053667645116_);" d="M3860.3,6288.7
			c-5.6-5.9-5.3-39.2,1.1-73.9c2.8-16.1,7-44.6,9.1-63.3c6.7-62.2-7-135-30.3-161.7c-34.9-39.9-130.3-63.7-331.1-81.6
			c-31.7-2.6-143-4.4-313.5-5.1c-260-0.7-289.9-1.8-318.1-12.8c-20.8-8.4-16.2-21.6,11.6-32.2c43.3-16.8,151.1-33.7,264.2-41
			c74-4.8,491.1-2.6,687,3.7c60.2,2.2,143.7,4.8,186,6.2l77.2,2.6l-15.9,16.8c-15.5,16.8-48.3,60.8-48.3,64.8
			c0,1.1-6.3,13.2-14.1,26.7c-7.8,13.5-14.1,28.2-14.1,32.2c0,4.4-1.8,9.2-3.5,10.3c-6.7,4.4-21.5,39.2-28.5,67
			c-5.3,20.9-7.7,47.9-10.2,105c-3.2,86.4-2.1,90.8,21.5,99.5c13.7,5.1,53.2,5.9,78.2,1.5c9.2-1.5,16.6-1.8,16.6-0.4
			c0,3.3-93.3,27.4-133.9,34.8C3914.5,6294.2,3866.3,6295,3860.3,6288.7z"/>
	</g>
</g>
<g transform="translate(0.000000,737.000000) scale(0.100000,-0.100000)">
	<g>
		
			<linearGradient id="SVGID_00000133487567023262058180000003431800691145351313_" gradientUnits="userSpaceOnUse" x1="10918.9072" y1="-52570.8711" x2="10919.377" y2="-52570.8711" gradientTransform="matrix(0.1481 0 0 0.9675 2600.7595 56242.4023)">
			<stop  offset="0" style="stop-color:#000000;stop-opacity:0.3861"/>
			<stop  offset="1" style="stop-color:#000000;stop-opacity:0.3861"/>
		</linearGradient>
		<path style="fill:url(#SVGID_00000133487567023262058180000003431800691145351313_);" d="M4266.1,5560.5
			c2.8-64.8-2.5-189.6-10.6-255.4c-6.7-54.5-19.4-108.3-31-133.2c-9.5-19.8-8.8-27.8,2.8-27.8c18.3,0,37,60.4,49.7,159.9
			c7.4,57.8,12.3,191.4,9.9,258.4l-2.1,53.8h-10.6h-10.6L4266.1,5560.5z"/>
	</g>
</g>
<g transform="translate(0.000000,737.000000) scale(0.100000,-0.100000)">
	<g>
		
			<linearGradient id="SVGID_00000105419662430124869490000012305473419556775822_" gradientUnits="userSpaceOnUse" x1="4623.2153" y1="-53869.9375" x2="4622.7271" y2="-53869.9805" gradientTransform="matrix(0.7079 0 0 0.7604 -2313.1953 46758.2734)">
			<stop  offset="0" style="stop-color:#333333;stop-opacity:0.7515"/>
			<stop  offset="1" style="stop-color:#333333;stop-opacity:0.7528"/>
		</linearGradient>
		<path style="fill:url(#SVGID_00000105419662430124869490000012305473419556775822_);" d="M789.4,5967.4
			c-43.7-9.5-78.6-28.9-106.4-59.6c-21.5-23.4-34.5-50.5-42.3-87.8c-18.3-87.5,34.5-172.4,128.2-205.7
			c31.4-11.3,99.7-18.7,119.4-13.2c45.1,12.4,70.1,57.1,78.9,140.2c11.3,105-18.7,191.4-77.2,221.4
			C876.1,5970,814.4,5972.9,789.4,5967.4z M882.8,5951.3c6.7-3.7,16.6-11,22.2-16.1c8.1-8,9.5-12.1,9.5-30.7
			c0-33.7-9.2-69.2-24.7-93.7c-14.8-24.2-29.2-37-54.2-48.3c-67.3-31.1-152.9,13.2-165.9,85.3c-2.1,12.1-1.1,16.5,10.2,33.7
			c31.7,50.1,94.8,80.1,162.4,77.6C860.6,5958.3,874.7,5955.4,882.8,5951.3z"/>
	</g>
</g>
<g transform="translate(0.000000,737.000000) scale(0.100000,-0.100000)">
	<g>
		
			<linearGradient id="SVGID_00000153697138632787042820000011948953162046886063_" gradientUnits="userSpaceOnUse" x1="-3096.3762" y1="-51411.6719" x2="-3095.9065" y2="-51411.6719" gradientTransform="matrix(1.1362 0 0 1.4109 8048.6533 77527.4375)">
			<stop  offset="0" style="stop-color:#000000;stop-opacity:0.3275"/>
			<stop  offset="1" style="stop-color:#000000;stop-opacity:0.3275"/>
		</linearGradient>
		<path style="fill:url(#SVGID_00000153697138632787042820000011948953162046886063_);" d="M4741,5330.7
			c-83.8-23.4-156.1-100.6-189.5-202c-21.1-64.4-26.8-150-14.1-216.6c23.3-124.4,94.1-218.5,190.6-253.2
			c24.3-8.8,33.8-10.2,68.7-10.2c33.1,0,45.1,1.5,65.2,8.4c37.3,12.4,66.9,31.5,97.2,61.5c126.8,125.9,141.3,361.6,31.4,512.7
			c-32.8,45.4-75,77.6-125.8,96.2C4834,5338.7,4774.8,5340.2,4741,5330.7z M4816.4,5331.1c-1.1-1.8-8.1-4.4-15.2-5.8
			c-61.3-11.7-140.6-68.4-179.7-128.4c-41.2-63-58.8-124.4-58.8-204.6c0.4-53.1,7-97,27.8-175.7c6.7-25.6,11.6-47.6,10.9-48.3
			c-4.6-4.8-34.2,53.8-46.5,91.9c-13.4,40.6-19,79.8-19,132.1c0,72.5,12,126.6,41.2,187c44.4,92.6,131,153.7,218.8,154.8
			C4808.3,5334.4,4817.4,5332.9,4816.4,5331.1z M4822.3,5239.2c54.6-17.6,96.5-67.7,119.4-142.7c10.6-35.5,11.6-109,1.8-146.4
			c-16.6-61.8-57.8-118.6-102.9-141.3c-19.4-9.5-24.3-10.6-58.1-10.6c-34.2,0-38.8,0.7-57.8,11c-70.8,37-115.9,128.8-110.3,225.1
			c5.6,99.5,54.6,178.6,125.4,203.8C4768.8,5248.3,4792.8,5248.7,4822.3,5239.2z"/>
	</g>
</g>
<g transform="translate(0.000000,737.000000) scale(0.100000,-0.100000)">
	<g>
		
			<linearGradient id="SVGID_00000119834818286157014250000011473726514081411229_" gradientUnits="userSpaceOnUse" x1="138.0327" y1="-52342.8203" x2="138.5023" y2="-52342.8203" gradientTransform="matrix(0.5089 0 0 1.3274 3970.9539 75521.5234)">
			<stop  offset="0" style="stop-color:#000000;stop-opacity:0.3816"/>
			<stop  offset="1" style="stop-color:#000000;stop-opacity:0.3816"/>
		</linearGradient>
		<path style="fill:url(#SVGID_00000119834818286157014250000011473726514081411229_);" d="M4043.8,6362.3
			c-5.6-5.9-3.2-10.6,18.3-33.7c10.2-11,22.9-26.3,27.8-34.4c4.9-7.7,13.7-21.2,19.7-30c55.3-81.2,105.7-222.5,130-366.3
			c9.1-53.1,18-130.6,18-158.1v-21.2h12c13.7,0,13.4-9.5,3.5,87.8c-21.8,222.5-95.1,428.2-188.8,532.8
			C4060.4,6365.6,4051.9,6370.7,4043.8,6362.3z"/>
	</g>
</g>
<g transform="translate(0.000000,737.000000) scale(0.100000,-0.100000)">
	<g>
		
			<linearGradient id="SVGID_00000129186029508403191210000008238349136584024709_" gradientUnits="userSpaceOnUse" x1="733.5818" y1="-51480.25" x2="733.1168" y2="-51480.2578" gradientTransform="matrix(1.1859 0 0 1.8331 603.8235 100141.2891)">
			<stop  offset="0" style="stop-color:#FF0000;stop-opacity:0.6399"/>
			<stop  offset="1" style="stop-color:#FF0000;stop-opacity:0.6757"/>
		</linearGradient>
		<path style="fill:url(#SVGID_00000129186029508403191210000008238349136584024709_);" d="M1205.1,6212.6c-39.1-8-95.5-34-136-62.6
			c-48.3-33.3-105.3-102.8-130.3-158.8c-4.6-9.9-9.2-19-10.2-20.1c-1.1-1.1-3.9-8-6-15.4c-3.2-11.7-2.8-14.3,2.5-19.4
			c10.9-10.2,31.4-54.5,36.6-79c12-55.3,9.9-123.3-5.3-177.1l-7.4-25.6l12.7-42.8c13.4-46.1,41.2-152.6,48.6-186.6
			c4.2-20.8,4.9-21.2,31-38.8c61.3-41.7,84.9-49.4,183.5-61.1c50-5.8,51.8-5.8,71.2,1.1c90.9,33.3,156.4,155.9,176.8,331.9
			c7.7,66.6,5.6,233.1-3.5,287.3c-7.4,43.2-26.8,104.7-41.2,131.4C1376.3,6172,1283,6228.7,1205.1,6212.6z M1256.2,6201.3
			c19-4.4,29.6-14.3,56.4-51.2c69.4-96.6,97.9-223.2,88.4-391.9c-12.3-211.9-30.6-237.9-164.2-232.4
			c-72.6,3.3-107.1,15.7-140.9,51.6c-35.6,38.1-51.8,88.2-59.9,185.2c-3.2,35.1-7.1,70.6-9.2,78.7c-10.2,39.5-39.1,74.7-67.3,82.3
			c-34.9,9.9-35.6,12.8-15.9,56c22.2,48.7,46.9,84.2,83.8,121.5c35.2,35.5,73.3,62.2,112.4,79.4
			C1193.5,6203.8,1223.1,6209.3,1256.2,6201.3z"/>
	</g>
</g>
<g transform="translate(0.000000,737.000000) scale(0.100000,-0.100000)">
	<g>
		
			<linearGradient id="SVGID_00000103956586320381758080000005872834306529417111_" gradientUnits="userSpaceOnUse" x1="5816.9419" y1="-57798.9102" x2="5817.4116" y2="-57798.9102" gradientTransform="matrix(0.4885 0 0 0.3094 -1167.103 23066.0977)">
			<stop  offset="0" style="stop-color:#000000;stop-opacity:0.2754"/>
			<stop  offset="1" style="stop-color:#000000;stop-opacity:0.2754"/>
		</linearGradient>
		<path style="fill:url(#SVGID_00000103956586320381758080000005872834306529417111_);" d="M1676.8,5234.1
			c5.3-53.1,29.6-93.7,69.4-115.3c21.1-11.3,24.3-12.1,49-10.6c17.6,1.1,31.4,4.4,40.9,9.5c20.8,11,49,44.6,57.4,68.4
			c8.8,24.2,13,49.4,8.5,49.4c-1.8,0-42.6,4-91.2,9.2c-48.3,5.1-98.6,10.6-112,11.7l-24.3,2.2L1676.8,5234.1z"/>
	</g>
</g>
<g transform="translate(0.000000,737.000000) scale(0.100000,-0.100000)">
	<g>
		
			<linearGradient id="SVGID_00000030455782092146410450000010139516556260150962_" gradientUnits="userSpaceOnUse" x1="2849.8069" y1="-57566.6328" x2="2850.2766" y2="-57566.6328" gradientTransform="matrix(0.5473 0 0 0.4723 998.1143 33512.1367)">
			<stop  offset="0" style="stop-color:#000000;stop-opacity:0.6727"/>
			<stop  offset="1" style="stop-color:#000000;stop-opacity:0.6727"/>
		</linearGradient>
		<path style="fill:url(#SVGID_00000030455782092146410450000010139516556260150962_);" d="M2698.8,6428.5c-7.7-3.7-17.6-7-21.8-7
			c-4.2-0.4-8.1-1.8-8.8-3.3c-0.4-1.5-27.1-13.5-58.8-26.3c-39.5-16.1-55.7-24.2-50.7-25.6c3.9-1.1,16.6-14.3,28.2-29.3
			c33.1-43.2,56-67.7,94.1-101c32.1-27.8,37-30.7,50.4-30.7c17.3,0,48.6,11.7,59.9,22.7c27.1,26.4,31.7,93,9.9,143.8
			C2777.7,6427.1,2739.7,6448.3,2698.8,6428.5z"/>
	</g>
</g>
<g transform="translate(0.000000,737.000000) scale(0.100000,-0.100000)">
	<g>
		
			<linearGradient id="SVGID_00000061456771232587338160000011761293947082339503_" gradientUnits="userSpaceOnUse" x1="2947.0415" y1="-61206.3828" x2="2947.5112" y2="-61206.3828" gradientTransform="matrix(0.3473 0 0 0.2074 2866.8457 17773.6406)">
			<stop  offset="0" style="stop-color:#000000;stop-opacity:0.2835"/>
			<stop  offset="1" style="stop-color:#000000;stop-opacity:0.2835"/>
		</linearGradient>
		<path style="fill:url(#SVGID_00000061456771232587338160000011761293947082339503_);" d="M3892.7,5112.2
			c7-57.1,53.9-94.8,100-81.3c31.7,9.2,60.6,50.5,60.6,86.4v12.1h-81.4h-81.7L3892.7,5112.2z"/>
	</g>
</g>
<g transform="translate(0.000000,737.000000) scale(0.100000,-0.100000)">
	<g>
		
			<linearGradient id="SVGID_00000019653706494369463550000007369168510355173555_" gradientUnits="userSpaceOnUse" x1="103.9953" y1="-55292.7695" x2="104.4651" y2="-55292.7695" gradientTransform="matrix(0.3559 0 0 0.4151 4689.8047 27948.7324)">
			<stop  offset="0" style="stop-color:#000000;stop-opacity:0.6798"/>
			<stop  offset="1" style="stop-color:#000000;stop-opacity:0.6798"/>
		</linearGradient>
		<path style="fill:url(#SVGID_00000019653706494369463550000007369168510355173555_);" d="M4784.7,5095
			c-28.9-11.3-52.8-46.1-57.1-83.8c-7.1-63,35.2-120,85.6-114.9c22.6,2.6,31.4,7.3,53.5,29.3c15.5,15.4,18,20.1,23.2,43.2
			c3.9,17.9,4.9,33,3.2,48.3c-2.1,19.8-4.6,24.5-20.4,43.9c-9.9,12.1-23.6,24.9-30.3,28.5C4824.8,5099,4801.2,5101.2,4784.7,5095z"
			/>
	</g>
</g>
<g transform="translate(0.000000,737.000000) scale(0.100000,-0.100000)">
	<g>
		
			<linearGradient id="SVGID_00000036228381998379796020000000462232392300293798_" gradientUnits="userSpaceOnUse" x1="3442.6748" y1="-53494.2227" x2="3441.7607" y2="-53494.1367" gradientTransform="matrix(0.5265 0 0 1.0112 1073.4811 60434.9414)">
			<stop  offset="0" style="stop-color:#1F1F1F;stop-opacity:0.9671"/>
			<stop  offset="1" style="stop-color:#1F1F1F;stop-opacity:0.9726"/>
		</linearGradient>
		<path style="fill:url(#SVGID_00000036228381998379796020000000462232392300293798_);" d="M2655.8,6603.5
			c-21.5-24.5-21.5-22,5.3-84.2l24.3-56.7l-7.7-9.9c-9.2-11.7-17.6-34.8-14.1-38.1c1.4-1.5,3.5-0.4,4.2,2.2c1.1,2.2,4.6,4.4,8.1,4.4
			s13.7,3.3,22.9,7.3c22.2,9.9,41.9,9.5,59.9-1.8c53.2-32.2,74.7-140.5,38-191.4c-10.2-14.3-34.2-26-59.2-29.6l-17.6-2.2l16.6-12.1
			c17.6-12.8,36.6-16.1,57.4-10.6c10.6,2.9,11.3,2.2,21.1-19.8c9.9-21.2,12-23.4,32.8-33.3c12.3-5.9,23.9-10.3,25.4-9.5
			c1.8,0.7-6.3,23.1-18,49.8c-14.1,32.9-20.1,50.5-17.6,53.1c1.8,2.6,6,14.3,9.5,26.3c11.6,41.4,6.3,101.4-12.7,150.4
			c-4.6,10.6-3.5,12.4,24.3,55.6l28.9,45l-9.9,17.9c-5.3,10.3-10.9,18.3-12,18.3c-1.8,0-34.5-49.8-56.7-85.6
			c-1.8-2.6-6.7,0-14.1,7.7c-17.3,16.8-38.8,26.7-58.5,26.7h-17.3l-27.5,64c-15.2,35.1-27.8,64-28.2,64
			C2663.2,6611.5,2659.7,6607.8,2655.8,6603.5z"/>
	</g>
</g>
<g transform="translate(0.000000,737.000000) scale(0.100000,-0.100000)">
	<g>
		
			<linearGradient id="SVGID_00000023281215478392734050000016781067369475280535_" gradientUnits="userSpaceOnUse" x1="7281.2402" y1="-57313.75" x2="7281.71" y2="-57313.75" gradientTransform="matrix(0.5231 0 0 0.4233 -3140.262 30116.0293)">
			<stop  offset="0" style="stop-color:#FF342C;stop-opacity:0.2157"/>
			<stop  offset="1" style="stop-color:#FF342C;stop-opacity:0.2157"/>
		</linearGradient>
		<path style="fill:url(#SVGID_00000023281215478392734050000016781067369475280535_);" d="M790.1,5954.3
			c-48.6-11-87.4-36.6-110.3-72.8c-11.3-17.2-12.3-21.6-10.2-33.7c13-72.1,98.6-116.4,165.9-85.3c25,11.3,39.4,24.2,54.2,48.3
			c15.5,24.5,24.7,60,24.7,93.7c0,18.7-1.4,22.7-9.5,30.7c-5.6,5.1-15.5,12.4-22.2,16.1C866.2,5960.1,821.1,5961.6,790.1,5954.3z"/>
	</g>
</g>
<g transform="translate(0.000000,737.000000) scale(0.100000,-0.100000)">
	<g>
		
			<linearGradient id="SVGID_00000014611394763400071240000015570139113091324092_" gradientUnits="userSpaceOnUse" x1="12369.6846" y1="-54402.7227" x2="12371.0938" y2="-54403.0781" gradientTransform="matrix(0.2289 0 0 0.7899 42.0996 49287.6523)">
			<stop  offset="0" style="stop-color:#FFFFFF;stop-opacity:0.9777"/>
			<stop  offset="1" style="stop-color:#FFFFFF;stop-opacity:0.9909"/>
		</linearGradient>
		<path style="fill:url(#SVGID_00000014611394763400071240000015570139113091324092_);" d="M2857.3,6451.6
			c-26.4-41.4-27.1-43.2-22.9-54.2c19-48.7,24.3-108.7,12.7-150c-3.5-12.1-7.7-23.8-9.5-26c-2.5-2.9,3.9-21.6,18.7-56
			c18.7-43.2,23.6-52,31.7-54.9c9.5-3.7,9.9-2.9,24,26.3c33.8,71,37.3,173.8,9.1,274.1c-9.5,34-29.6,83.4-33.8,83.4
			C2885.9,6494.4,2872.5,6475,2857.3,6451.6z"/>
	</g>
</g>
<g transform="translate(0.000000,737.000000) scale(0.100000,-0.100000)">
	<g>
		
			<linearGradient id="SVGID_00000181070337561066685490000014879658888827103884_" gradientUnits="userSpaceOnUse" x1="-386.9836" y1="-51606.043" x2="-386.3484" y2="-51606.1953" gradientTransform="matrix(1.0303 0 0 1.3295 2763.3923 73825.4219)">
			<stop  offset="0" style="stop-color:#7F7F7F;stop-opacity:0.8514"/>
			<stop  offset="1" style="stop-color:#7F7F7F;stop-opacity:0.8535"/>
		</linearGradient>
		<path style="fill:url(#SVGID_00000181070337561066685490000014879658888827103884_);" d="M2480.4,5481.1
			c-32.8-9.9-64.5-29.3-92.7-56.7c-46.5-46.1-77.5-106.9-92.3-181.5c-6.7-32.9-7.4-46.5-6-93.3c1.4-38.8,3.9-63.3,8.8-83.1
			c35.2-137.2,127.5-227.6,233.2-227.6c106.7,0,199.4,91.5,233.2,230.9c6.7,27.1,8.1,42.1,8.1,94.4c0,53.1-1.4,67-8.1,94.4
			c-29.2,115.3-100.4,200.5-186,223.6C2550.8,5489.9,2507.2,5489.2,2480.4,5481.1z M2548.7,5447.8c52.5-10.3,95.5-50.5,125.4-118.2
			c18-40.6,29.2-97.7,19.4-97.7c-1.8,0-14.8,12.1-28.9,27.1c-29.9,31.1-53.2,42.4-86.7,42.4c-67.3,0-129.3-86-133.9-184.8
			c-1.8-46.5,4.9-77.2,25.7-117.8c8.5-16.8,14.1-30.4,12.3-30.4c-7.4,0-38.8,41.7-45.8,61.5c-20.4,56.4-18,105.4,9.2,196.1
			c7.7,26,8.1,29.6,3.5,37c-5.6,9.2-33.5,23.8-44.7,23.8c-26.8,0-58.1-46.1-84.9-124.4l-11.6-34.8l-1.1,38.4
			c-2.5,90.4,30.3,173.1,92.7,233.5c29.6,28.9,47.2,39.2,80,46.5C2506.8,5452.2,2524.8,5452.5,2548.7,5447.8z M2603,5266.3
			c24.7-8.8,49.3-33.7,64.5-65.5c34.5-72.5,9.5-168.3-52.8-202.4c-15.1-8.1-22.6-9.9-46.2-9.9c-23.6,0-31,1.8-46.1,9.9
			c-80.3,43.9-92.3,180.4-21.8,246.3c9.5,8.8,24,18.3,32.1,21.2C2552.2,5273.2,2582.9,5273.6,2603,5266.3z"/>
	</g>
</g>
<g transform="translate(0.000000,737.000000) scale(0.100000,-0.100000)">
	<g>
		
			<linearGradient id="SVGID_00000034089450506692109210000004286363620589127850_" gradientUnits="userSpaceOnUse" x1="-3118.5947" y1="-52047.4492" x2="-3119.2649" y2="-52047.5586" gradientTransform="matrix(1.7352 0 0 1.8256 10634.1055 101893.1172)">
			<stop  offset="0" style="stop-color:#FFFFFF;stop-opacity:0.2901"/>
			<stop  offset="1" style="stop-color:#FFFFFF;stop-opacity:0.2941"/>
		</linearGradient>
		<path style="fill:url(#SVGID_00000034089450506692109210000004286363620589127850_);" d="M5086.6,7247.9
			c-21.8-4.4-51.4-20.1-81.4-43.6c-37-28.9-113.4-111.2-166.3-178.9c-24.3-31.1-51.1-65.1-59.9-75c-32.1-37.7-102.5-123-155-188.8
			c-29.9-37-77.9-93.7-106.7-126.2c-121.9-136.5-157.5-210.4-119.8-248.1c44.7-44.3,153.9-36.6,299.8,21.6
			c143.7,57.5,249.4,130.6,316.3,219.2c74,98.8,153.2,277.4,177.2,399.6c19.7,100.3-0.7,179.7-53.9,211.2
			C5119.3,7249.4,5105.9,7251.6,5086.6,7247.9z"/>
	</g>
</g>
<g transform="translate(0.000000,737.000000) scale(0.100000,-0.100000)">
	<g>
		
			<linearGradient id="SVGID_00000016757648652274276520000003003854330644308641_" gradientUnits="userSpaceOnUse" x1="4129.9395" y1="-54016.1289" x2="4130.5566" y2="-54015.9648" gradientTransform="matrix(0.4857 0 0 0.5801 479.6123 36439.6016)">
			<stop  offset="0" style="stop-color:#3F3F3F;stop-opacity:0.726"/>
			<stop  offset="1" style="stop-color:#3F3F3F;stop-opacity:0.729"/>
		</linearGradient>
		<path style="fill:url(#SVGID_00000016757648652274276520000003003854330644308641_);" d="M2532.5,5265.9
			c-8.1-2.9-22.5-12.5-32.1-21.2c-70.5-65.9-58.5-202.4,21.8-246.3c15.2-8,22.6-9.9,46.1-9.9c23.6,0,31,1.8,46.2,9.9
			c45.8,24.9,71.2,79.8,67.3,144.6c-1.4,26-3.9,35.5-14.4,57.8c-15.1,31.8-39.8,56.7-64.5,65.5
			C2582.9,5273.6,2552.2,5273.2,2532.5,5265.9z"/>
	</g>
</g>
<g transform="translate(0.000000,737.000000) scale(0.100000,-0.100000)">
	<g>
		
			<linearGradient id="SVGID_00000112598679526159362560000000715606828463799472_" gradientUnits="userSpaceOnUse" x1="2322.1194" y1="-53809.332" x2="2322.5891" y2="-53809.332" gradientTransform="matrix(0.8316 0 0 0.9885 1839.4098 56940.3359)">
			<stop  offset="0" style="stop-color:#EFE4B0"/>
			<stop  offset="1" style="stop-color:#EFE4B0"/>
		</linearGradient>
		
			<path style="fill:url(#SVGID_00000112598679526159362560000000715606828463799472_);stroke:#000000;stroke-width:0.1;stroke-miterlimit:1;" d="
			M3943.2,3984.6c-32.8-7.3-50.4-17.6-80-46.5c-62.4-60.4-95.1-143.1-92.7-233.5l1.1-38.4l11.6,34.8
			c26.8,78.3,58.1,124.4,84.9,124.4c11.3,0,39.1-14.6,44.7-23.8c4.6-7.3,4.2-11-3.5-37c-27.1-90.8-29.6-139.8-9.2-196.1
			c7-19.8,38.4-61.5,45.8-61.5c1.8,0-3.9,13.5-12.3,30.4c-20.8,40.6-27.5,71.4-25.7,117.8c4.6,98.8,66.6,184.8,133.9,184.8
			c33.5,0,56.7-11.3,86.7-42.5c14.1-15,27.1-27.1,28.9-27.1c9.9,0-1.4,57.1-19.4,97.7C4095.3,3964.1,4028.8,4004,3943.2,3984.6z"/>
	</g>
</g>
<g transform="translate(0.000000,737.000000) scale(0.100000,-0.100000)">
	<g>
		
			<linearGradient id="SVGID_00000115503760409723691400000011552758782868812727_" gradientUnits="userSpaceOnUse" x1="72956.0156" y1="-92792.375" x2="72956.4844" y2="-92792.375" gradientTransform="matrix(5.896000e-02 0 0 5.489000e-02 2119.4819 11880.5205)">
			<stop  offset="0" style="stop-color:#BAC8C9"/>
			<stop  offset="1" style="stop-color:#BAC8C9"/>
		</linearGradient>
		<path style="fill:url(#SVGID_00000115503760409723691400000011552758782868812727_);" d="M6421.9,6796.1
			c-1.1-2.9-1.4-9.2-0.7-13.9c0.7-6.6,3.2-8.4,11.3-8.4c12.7,0,19.7,9.9,14.1,19.4C6441.7,6801.2,6424.8,6803.4,6421.9,6796.1z"/>
	</g>
</g>
<g transform="translate(0.000000,737.000000) scale(0.100000,-0.100000)">
	<g>
		<g>
			<g>
				<defs>
					<path id="SVGID_00000042708511822436684110000006226502390132297107_" d="M6740.1,5670.1c0-8.8,1.1-31.8,2.5-51.2l2.1-35.9
						h10.6h10.6l-2.1,35.9c-1.4,19.4-2.5,42.4-2.5,51.2c0,14.6-0.4,15.4-10.6,15.4C6740.4,5685.5,6740.1,5684.8,6740.1,5670.1z"/>
				</defs>
				<clipPath id="SVGID_00000172439635861982445300000013891737583912275372_">
					<use xlink:href="#SVGID_00000042708511822436684110000006226502390132297107_"  style="overflow:visible;"/>
				</clipPath>
				
					<rect x="6740.2" y="5629.1" style="clip-path:url(#SVGID_00000172439635861982445300000013891737583912275372_);fill:#8A2D32;" width="0" height="10.2"/>
				
					<rect x="6751.8" y="5629.1" style="clip-path:url(#SVGID_00000172439635861982445300000013891737583912275372_);fill:#8A2D32;" width="2.5" height="10.2"/>
			</g>
			<path d="M6771.1,5578h-31.2l-2.4,40.6c-1.3,18.6-2.5,42.3-2.5,51.5c0,15.1,0.8,20.4,15.6,20.4c14.8,0,15.6-5.2,15.6-20.4
				c0-8.3,1-30.7,2.5-50.9L6771.1,5578z M6749.3,5588h11.1l-1.8,30.6c-1.3,18.4-2.5,42-2.5,51.5c0,3.7,0,9.2-0.6,10.4
				c-0.4,0-3.6,0-5,0s-4.6,0-5.4-0.4c-0.2-0.8-0.2-6.3-0.2-10c0-9.1,1.1-32.4,2.5-50.9L6749.3,5588z"/>
		</g>
	</g>
</g>
<g transform="translate(0.000000,737.000000) scale(0.100000,-0.100000)">
	<g>
		
			<linearGradient id="SVGID_00000025403088020198430280000008324603173718707849_" gradientUnits="userSpaceOnUse" x1="-1612.7673" y1="-51529.9805" x2="-1613.0427" y2="-51530.4453" gradientTransform="matrix(1.6142 0 0 2.0158 5345.6636 107921.9062)">
			<stop  offset="0" style="stop-color:#555555;stop-opacity:0.8743"/>
			<stop  offset="1" style="stop-color:#555555;stop-opacity:0.8745"/>
		</linearGradient>
		<path style="fill:url(#SVGID_00000025403088020198430280000008324603173718707849_);" d="M2497.1,4151.4
			c-150.8-33.3-266.3-171.6-307.2-367.4c-6.7-33.7-7.7-48.7-7.7-120.8c0-71.4,1.1-87.5,7.7-119.3c10.9-53.1,22.9-88.6,46.5-138.7
			c54.3-116,143.4-197.6,246.6-225.1c26.1-7,37-7.7,86.3-6.6c53.9,1.5,58.1,1.8,92.7,14.6c47.9,17.2,86.3,41.7,126.1,80.9
			c84.5,82.7,134.9,193.6,149.7,328.3c5.3,49.4,2.1,136.9-7,183.7c-37.3,192.8-158.5,338.5-307.5,370.3
			C2590.2,4158.4,2528.8,4158.7,2497.1,4151.4z M2587.3,4150.3c-1.1-1.5-8.1-4-15.5-5.5c-20.8-3.3-66.6-20.1-94.1-34
			c-43-22.3-83.5-52.7-120.1-90.7c-65.2-67.7-106.4-147.8-127.2-248.1c-8.8-42.1-8.8-172.4,0.4-222.1c8.1-46.1,24.3-116,37.3-163.6
			c6-20.9,10.2-40.3,9.9-42.1c-3.5-11-49.3,80.5-65.9,131.4c-20.8,65.1-26.8,107.6-26.4,191.4c0,63.7,1.4,80.9,8.1,113.4
			c22.2,108,62.7,191.8,125.8,259.8c56,60.4,120.5,97.3,190.6,109.8C2533.4,4154,2589.4,4154.3,2587.3,4150.3z M2586.6,4023.3
			c68-18.3,135.3-84.9,167.3-165.4c21.1-53.4,26.8-84.2,26.8-152.6c0-52.3-1.4-67.3-8.1-94.4c-53.2-217.7-244.1-301.2-379.4-165.4
			c-39.1,39.2-70.5,97.7-87,162.1c-4.9,19.8-7.4,44.3-8.8,83.1c-1.4,46.8-0.7,60.4,6,93.3c23.6,119.7,95.1,211.5,185,238.2
			C2515.1,4030.3,2558.8,4031,2586.6,4023.3z"/>
	</g>
</g>
<g transform="translate(0.000000,737.000000) scale(0.100000,-0.100000)">
	<g>
		
			<linearGradient id="SVGID_00000088132128791810803000000011557289629811153026_" gradientUnits="userSpaceOnUse" x1="40.5317" y1="-52199.0664" x2="40.8412" y2="-52199.0859" gradientTransform="matrix(0.8552 0 0 1.6599 1679.3987 90369.8828)">
			<stop  offset="0" style="stop-color:#7F7F7F;stop-opacity:0.7221"/>
			<stop  offset="1" style="stop-color:#7F7F7F;stop-opacity:0.764"/>
		</linearGradient>
		
			<path style="fill:url(#SVGID_00000088132128791810803000000011557289629811153026_);stroke:#000000;stroke-width:0.1;stroke-miterlimit:1;" d="
			M2009.4,4099.9c-130.7-23.1-246.6-137.6-296.6-293.9c-22.6-70.6-27.8-105.4-27.8-189.2c-0.3-83.8,5.6-126.3,26.4-191.4
			c16.6-50.9,62.4-142.4,65.9-131.4c0.4,1.8-3.9,21.2-9.9,42.1c-13,47.6-29.2,117.5-37.3,163.6c-9.2,49.8-9.2,180-0.4,222.1
			c20.8,100.3,62,180.4,127.2,248.1c36.6,38.1,77.1,68.4,120.1,90.8c27.5,13.9,73.3,30.7,94.1,34c7.4,1.5,14.4,4,15.5,5.5
			C2088.7,4104.3,2032.7,4103.9,2009.4,4099.9z"/>
	</g>
</g>
<g transform="translate(0.000000,737.000000) scale(0.100000,-0.100000)">
	<g>
		<g>
			<g>
				<defs>
					<path id="SVGID_00000145773977907244976790000010827808818363122087_" d="M6753.4,5426.5c2.8-64.8-2.5-189.6-10.6-255.4
						c-6.7-54.5-19.4-108.3-31-133.2c-9.5-19.8-8.8-27.8,2.8-27.8c18.3,0,37,60.4,49.7,159.9c7.4,57.8,12.3,191.4,9.9,258.4
						l-2.1,53.8h-10.6h-10.6L6753.4,5426.5z"/>
				</defs>
				<clipPath id="SVGID_00000018919779148392271560000012493095663581559723_">
					<use xlink:href="#SVGID_00000145773977907244976790000010827808818363122087_"  style="overflow:visible;"/>
				</clipPath>
				
					<rect x="6703.6" y="5222.5" style="clip-path:url(#SVGID_00000018919779148392271560000012493095663581559723_);" width="0.3" height="47.2"/>
				
					<rect x="6705.6" y="5222.5" style="clip-path:url(#SVGID_00000018919779148392271560000012493095663581559723_);" width="0.1" height="47.2"/>
				
					<rect x="6737.8" y="5222.5" style="clip-path:url(#SVGID_00000018919779148392271560000012493095663581559723_);" width="7.1" height="47.2"/>
			</g>
			<path d="M6714.7,5005c-6,0-10.2,1.9-12.5,5.6c-3.6,5.7-2.1,14.2,5.2,29.4c11.5,24.6,24,78.7,30.5,131.6
				c8.2,66.7,13.3,190.4,10.5,254.6h0l-2.7,60.8h31.2l2.3-58.6c2.5-68.6-2.6-201.8-9.9-259.2C6759.7,5094.4,6742.5,5005,6714.7,5005
				z M6756.2,5477.1l2.2-50.4c2.8-64.6-2.4-189.2-10.6-256.3c-6.7-54.7-19.4-108.8-31.4-134.7c-7.5-15.6-6.1-19.2-5.8-19.8
				c0.3-0.4,1.7-0.9,4.1-0.9c8.6,0,29,32.5,44.7,155.5c7.3,57,12.4,189.4,9.8,257.5l-1.9,49H6756.2z"/>
		</g>
	</g>
</g>
<g transform="translate(0.000000,737.000000) scale(0.100000,-0.100000)">
	<g>
		<g>
			<g>
				<defs>
					<path id="SVGID_00000160165944852612813060000012671984875779012780_" d="M6509.2,6383.4c-5.6-5.8-3.2-10.6,18.3-33.7
						c10.2-11,22.9-26.3,27.8-34.4c4.9-7.7,13.7-21.2,19.7-30c55.3-81.2,105.7-222.5,130-366.3c9.2-53.1,18-130.6,18-158.1v-21.2h12
						c13.7,0,13.4-9.5,3.5,87.8c-21.8,222.5-95.1,428.2-188.8,532.8C6525.7,6386.7,6517.3,6391.8,6509.2,6383.4z"/>
				</defs>
				<clipPath id="SVGID_00000171705936979875158430000013117546869762132898_">
					<use xlink:href="#SVGID_00000160165944852612813060000012671984875779012780_"  style="overflow:visible;"/>
				</clipPath>
				
					<rect x="6504.9" y="6027.9" style="clip-path:url(#SVGID_00000171705936979875158430000013117546869762132898_);" width="0.3" height="66.2"/>
				
					<rect x="6507.7" y="6027.9" style="clip-path:url(#SVGID_00000171705936979875158430000013117546869762132898_);" width="0.2" height="66.2"/>
				
					<rect x="6616.9" y="6027.9" style="clip-path:url(#SVGID_00000171705936979875158430000013117546869762132898_);" width="24" height="66.2"/>
			</g>
			<path d="M6740.5,5734.4c-0.9,0-1.7,0.1-2.5,0.1c-0.9,0.1-1.9,0.1-3,0.1h-17v26.2c0,27-8.9,104.9-17.9,157.2
				c-24.2,143.2-73.7,282.9-129.2,364.4c-6,8.8-14.8,22.4-19.8,30.1c-4.9,8-17.7,23.4-27.3,33.7c-20,21.5-27.8,30.6-18.3,40.5v0
				c3.5,3.6,7,5.3,11.2,5.2c8.2-0.1,17.1-7,36.6-28.4c95.3-106.4,168.1-311.7,190.1-535.7l2.4-23.3c5.6-54.3,6.4-62.7,1.7-67.7
				C6745.5,5734.9,6742.9,5734.4,6740.5,5734.4z M6728,5744.7h7c1.4,0,2.6-0.1,3.7-0.2c0.5,0,1.2-0.1,1.7-0.1
				c1.1,4.9-0.9,24.8-4.5,59.2l-2.4,23.4c-21.8,222-93.7,425.1-187.6,530c-11.2,12.4-23.5,25-29.3,25.1c-0.4,0-1.8,0-3.9-2.2
				c-2.2-2.3-2.4-4.5,18.4-26.8c9.8-10.5,23.1-26.4,28.4-35.2c4.9-7.6,13.6-21.1,19.6-29.8c56.2-82.6,106.4-223.8,130.8-368.3
				c9.3-53.7,18-130.9,18-158.9V5744.7z"/>
		</g>
	</g>
</g>
<g transform="translate(0.000000,737.000000) scale(0.100000,-0.100000)">
	<g>
		
			<linearGradient id="SVGID_00000140698726209702216970000012593922941032486315_" gradientUnits="userSpaceOnUse" x1="382.5448" y1="-52732.9805" x2="383.1803" y2="-52733.1289" gradientTransform="matrix(1.0303 0 0 1.3295 2763.3928 73825.4219)">
			<stop  offset="0" style="stop-color:#7F7F7F;stop-opacity:0.8514"/>
			<stop  offset="1" style="stop-color:#7F7F7F;stop-opacity:0.8535"/>
		</linearGradient>
		
			<path style="fill:url(#SVGID_00000140698726209702216970000012593922941032486315_);stroke:#000000;stroke-width:0.1;stroke-miterlimit:1;" d="
			M3273.1,3982.9c-32.8-9.9-64.5-29.3-92.6-56.7c-46.5-46.1-77.5-106.9-92.3-181.5c-6.7-32.9-7.4-46.5-6-93.3
			c1.4-38.8,3.9-63.3,8.8-83.1c35.2-137.2,127.5-227.6,233.2-227.6c106.7,0,199.4,91.5,233.2,230.9c6.7,27.1,8.1,42.1,8.1,94.4
			c0,53.1-1.4,67-8.1,94.4c-29.2,115.3-100.4,200.5-186,223.6C3343.6,3991.7,3299.9,3990.9,3273.1,3982.9z M3341.4,3949.6
			c52.5-10.3,95.5-50.5,125.4-118.2c18-40.6,29.2-97.7,19.4-97.7c-1.8,0-14.8,12.1-28.9,27.1c-29.9,31.1-53.2,42.5-86.7,42.5
			c-67.3,0-129.3-86-133.9-184.8c-1.8-46.5,4.9-77.2,25.7-117.8c8.5-16.8,14.1-30.4,12.3-30.4c-7.4,0-38.8,41.7-45.8,61.5
			c-20.4,56.4-18,105.4,9.2,196.1c7.7,26,8.1,29.6,3.5,37c-5.6,9.1-33.5,23.8-44.7,23.8c-26.8,0-58.1-46.1-84.9-124.4l-11.6-34.8
			l-1.1,38.4c-2.5,90.4,30.3,173.1,92.6,233.5c29.6,28.9,47.2,39.2,80,46.5C3299.5,3954,3317.5,3954.3,3341.4,3949.6z
			 M3395.7,3768.1c24.7-8.8,49.3-33.7,64.5-65.5c34.5-72.5,9.5-168.3-52.8-202.4c-15.1-8-22.6-9.9-46.2-9.9s-31,1.8-46.1,9.9
			c-80.3,43.9-92.3,180.4-21.8,246.3c9.5,8.8,24,18.3,32.1,21.2C3345,3775,3375.6,3775.4,3395.7,3768.1z"/>
	</g>
</g>
<g transform="translate(0.000000,737.000000) scale(0.100000,-0.100000)">
	<g>
		
			<linearGradient id="SVGID_00000010283385885330154440000013342913160125157012_" gradientUnits="userSpaceOnUse" x1="7349.3623" y1="-56877.3477" x2="7349.9795" y2="-56877.1836" gradientTransform="matrix(0.4857 0 0 0.5801 479.612 36439.6016)">
			<stop  offset="0" style="stop-color:#3F3F3F;stop-opacity:0.726"/>
			<stop  offset="1" style="stop-color:#3F3F3F;stop-opacity:0.729"/>
		</linearGradient>
		<path style="fill:url(#SVGID_00000010283385885330154440000013342913160125157012_);" d="M4096.2,3606
			c-8.1-2.9-22.5-12.4-32.1-21.2c-70.5-65.9-58.5-202.4,21.8-246.3c15.2-8,22.6-9.9,46.2-9.9c23.6,0,31,1.8,46.1,9.9
			c45.8,24.9,71.2,79.8,67.3,144.6c-1.4,26-3.9,35.5-14.4,57.8c-15.1,31.8-39.8,56.7-64.5,65.5
			C4146.6,3613.7,4115.9,3613.4,4096.2,3606z"/>
	</g>
</g>
<line class="st63" x1="421.5" y1="131.9" x2="622.3" y2="132.8"/>
<rect x="212.1" y="174.4" class="st64" width="90.5" height="100.5"/>
<g>
	<g>
		<line class="st65" x1="255.3" y1="301.2" x2="255.6" y2="279.7"/>
		<g>
			<polygon class="st66" points="255.3,309.4 267.7,298 255.4,300.6 243.1,297.8 			"/>
		</g>
	</g>
</g>
<rect x="214.7" y="317.9" class="st64" width="152.2" height="103.4"/>
<rect x="636.2" y="93" class="st64" width="69.6" height="155.6"/>
</svg>
