<svg xmlns="http://www.w3.org/2000/svg" xmlns:xlink="http://www.w3.org/1999/xlink" viewBox="0 0 4016 453.02"><defs><style>.a529fe31-dd37-4e5f-8250-d9845789e0cc,.fa50688d-8176-44ea-8370-1280a58cf6b7{fill:none;}.bc90ee4e-3e05-4b56-909e-4bd6632dde14{fill:#d3d3d3;}.a257fcf4-1b3c-4aff-98c7-ace5256bedf2{fill:url(#bd14377c-0c7d-47f8-98dc-c7cdb9ca7237);}.a35a0238-9d6a-462b-a1a8-ac042ff8619b{fill:url(#ab9eda73-f068-45fb-9e25-41a6be1ff964);}.b3f94b0d-b929-476c-a7f7-4a47894dcee0{fill:url(#b730b7b1-deab-43bb-971b-c539ef083773);}.a52e405e-5fc3-4d75-901f-b9ba93c1c321{fill:url(#fdcfff11-edec-4487-9cdc-a9b85e354929);}.b01f67f0-9208-4b0b-a784-153e23688b22{fill:url(#b5425336-b982-46b8-b5b5-4302694b42e0);}.bc3ebf27-b419-4080-8e50-3f3553d7a918{fill:url(#a81f1cd1-d808-441c-8b02-a22059922626);}.f14f5af2-4452-4cc4-8123-5a477c513860{fill:url(#bb764ebc-a46d-4457-9630-dcd65435499c);}.e880dbc9-a98f-4d4f-bb0a-fc39d8271187{fill:url(#fb586892-5802-41cb-9a87-785d02165b09);}.a7d78eb8-611c-413a-9eb8-83c9a61dd427{fill:url(#a80b63c3-753f-4ee5-a5fa-e3115eeeb6aa);}.af0d848f-d691-4ab0-84ab-7124ec88ec06{fill:url(#aca0fe16-9248-4258-bc9f-d4480b0f0ae9);}.b2295ac5-41fe-408d-83cb-dc9ffbabb943{fill:url(#a3f6f6c4-6afe-4665-a559-3e3c3bf9e31d);}.a174ffa5-857d-4fb0-8f3d-e50b5676f615{fill:url(#b79a5f03-91f1-4105-bd0f-a26ee20d1af6);}.bfc50af3-389a-460b-9332-b9d1ad2442bf{fill:url(#a99295fb-828e-4f3d-aea1-bfc22a25e1c3);}.a837d6f1-f2a4-4bcd-9ed4-2dfba533a83e,.ad2826b3-62a5-4c08-992a-45f7f81a4285,.b2a0a87e-df45-4dfd-bce4-7b5e1ebe6298,.b356ad2b-05de-4911-a354-5e44686a9e31,.b655dee4-97ca-484e-ba82-98034a4ab6a0,.b945326b-a74e-459a-9798-2e9320b1cc33,.bc1f06e0-3d87-419e-924e-c970406dcd9b,.f8c31c55-ef55-4de4-ba46-2d18df48ed46,.fa50688d-8176-44ea-8370-1280a58cf6b7{stroke:#000;stroke-miterlimit:10;}.f8c31c55-ef55-4de4-ba46-2d18df48ed46{fill:url(#acabec68-2bfc-43a5-9e11-57576c5a1393);}.ed579c1e-a8d7-4acd-91c8-357f372111d5{fill:url(#b469b7b2-8270-4656-944d-f63bd0c15a95);}.a837d6f1-f2a4-4bcd-9ed4-2dfba533a83e{fill:url(#fb514b93-53d0-4277-886c-3eba913fd4db);}.bc11f47e-32ca-4a2a-8f6a-fe49c86566e1{fill:url(#afc7f10a-ff21-4586-b6df-580018da00ba);}.bc1f06e0-3d87-419e-924e-c970406dcd9b{fill:url(#ec44b740-ee50-49e4-b9ab-2d99e9b5cbc5);}.ad2826b3-62a5-4c08-992a-45f7f81a4285{fill:url(#a840ff8b-eabf-45a3-bba7-b3d028586ca3);}.b2a0a87e-df45-4dfd-bce4-7b5e1ebe6298{fill:url(#b730ee70-ebc8-4950-a0a8-4b24c63b2283);}.b356ad2b-05de-4911-a354-5e44686a9e31{fill:url(#bdda92d5-349b-4ca4-a4a7-1bb6db40a695);}.b655dee4-97ca-484e-ba82-98034a4ab6a0{fill:url(#b3db245c-e3cc-463b-819b-fe6aa11db406);}.b945326b-a74e-459a-9798-2e9320b1cc33{fill:url(#b434dc9e-096f-4eee-b7b2-519eacfbc68b);}.fa50688d-8176-44ea-8370-1280a58cf6b7{stroke-width:4px;}</style><pattern id="bd14377c-0c7d-47f8-98dc-c7cdb9ca7237" data-name="grid-pattern" width="40" height="40" patternTransform="matrix(1, 0, 0, -1, 65, 658.02)" patternUnits="userSpaceOnUse" viewBox="0 0 40 40"><rect class="a529fe31-dd37-4e5f-8250-d9845789e0cc" width="40" height="40"/><rect class="bc90ee4e-3e05-4b56-909e-4bd6632dde14" y="20" width="20" height="20"/><rect class="bc90ee4e-3e05-4b56-909e-4bd6632dde14" x="20" width="20" height="20"/></pattern><linearGradient id="ab9eda73-f068-45fb-9e25-41a6be1ff964" x1="808" y1="550.78" x2="807.78" y2="549.78" gradientTransform="matrix(502, 0, 0, -451, -405309, 248402)" gradientUnits="userSpaceOnUse"><stop offset="0" stop-color="#f3f3f3" stop-opacity="0.99"/><stop offset="1" stop-color="#c6c5c6" stop-opacity="0.99"/></linearGradient><linearGradient id="b730b7b1-deab-43bb-971b-c539ef083773" x1="808.1" y1="549.77" x2="807.1" y2="550.77" gradientTransform="matrix(426.2, 0, 0, -426.74, -343951.09, 235046.17)" gradientUnits="userSpaceOnUse"><stop offset="0" stop-color="#9ca996" stop-opacity="0.1"/><stop offset="1" stop-color="#918396" stop-opacity="0.95"/></linearGradient><linearGradient id="fdcfff11-edec-4487-9cdc-a9b85e354929" x1="807.55" y1="550.76" x2="807.55" y2="549.76" gradientTransform="matrix(415.91, 0, 0, -414.54, -335614.33, 228327.54)" gradientUnits="userSpaceOnUse"><stop offset="0" stop-color="#f9f8fa" stop-opacity="0.27"/><stop offset="1" stop-color="#674f79" stop-opacity="0.84"/></linearGradient><linearGradient id="b5425336-b982-46b8-b5b5-4302694b42e0" x1="795.84" y1="547.12" x2="795.84" y2="548.12" gradientTransform="matrix(59.23, 0, 0, -34.38, -46954.11, 18863.74)" gradientUnits="userSpaceOnUse"><stop offset="0" stop-color="#fff" stop-opacity="0.83"/><stop offset="1" stop-color="#fefffe" stop-opacity="0.8"/></linearGradient><linearGradient id="a81f1cd1-d808-441c-8b02-a22059922626" x1="807.28" y1="550.72" x2="807.28" y2="549.72" gradientTransform="matrix(365.09, 0, 0, -359.51, -294483.37, 198035.9)" gradientUnits="userSpaceOnUse"><stop offset="0" stop-color="#8109b0" stop-opacity="0.79"/><stop offset="1" stop-color="#4b0092" stop-opacity="0.81"/></linearGradient><linearGradient id="bb764ebc-a46d-4457-9630-dcd65435499c" x1="796.4" y1="549.52" x2="795.4" y2="549.48" gradientTransform="matrix(59.47, 0, 0, -98.67, -46909.12, 54516.81)" gradientUnits="userSpaceOnUse"><stop offset="0" stop-color="#fffffe" stop-opacity="0.82"/><stop offset="1" stop-color="#e2e5df" stop-opacity="0.7"/></linearGradient><linearGradient id="fb586892-5802-41cb-9a87-785d02165b09" x1="804.14" y1="549" x2="805.2" y2="550" gradientTransform="matrix(167.49, 0, 0, -99.26, -134608.33, 54919.22)" gradientUnits="userSpaceOnUse"><stop offset="0" stop-color="#fff" stop-opacity="0.95"/><stop offset="1" stop-color="#b0b4ae" stop-opacity="0.54"/></linearGradient><linearGradient id="a80b63c3-753f-4ee5-a5fa-e3115eeeb6aa" x1="807.21" y1="549.72" x2="807.21" y2="550.72" gradientTransform="matrix(353.64, 0, 0, -352.22, -285212.83, 194017.46)" gradientUnits="userSpaceOnUse"><stop offset="0" stop-color="#f48cff" stop-opacity="0.05"/><stop offset="1" stop-color="#eb5aff" stop-opacity="0.83"/></linearGradient><linearGradient id="aca0fe16-9248-4258-bc9f-d4480b0f0ae9" x1="806.05" y1="550.33" x2="805.56" y2="549.33" gradientTransform="matrix(218.78, 0, 0, -148.45, -176041.58, 81740.84)" gradientUnits="userSpaceOnUse"><stop offset="0" stop-color="#fff5ff" stop-opacity="0.86"/><stop offset="1" stop-color="#b692db" stop-opacity="0.47"/></linearGradient><linearGradient id="a3f6f6c4-6afe-4665-a559-3e3c3bf9e31d" x1="806.54" y1="549.65" x2="806.54" y2="550.65" gradientTransform="matrix(273.26, 0, 0, -286.83, -220181.7, 158056.83)" gradientUnits="userSpaceOnUse"><stop offset="0" stop-color="#f0f" stop-opacity="0.62"/><stop offset="1" stop-color="#c963e8" stop-opacity="0.89"/></linearGradient><linearGradient id="b79a5f03-91f1-4105-bd0f-a26ee20d1af6" x1="807.11" y1="549.91" x2="806.11" y2="550.58" gradientTransform="matrix(274.28, 0, 0, -282.47, -220930, 155587.07)" gradientUnits="userSpaceOnUse"><stop offset="0" stop-color="#fff" stop-opacity="0"/><stop offset="1" stop-color="#ba56cf" stop-opacity="0.55"/></linearGradient><linearGradient id="a99295fb-828e-4f3d-aea1-bfc22a25e1c3" x1="809" y1="550.78" x2="808.78" y2="549.78" xlink:href="#ab9eda73-f068-45fb-9e25-41a6be1ff964"/><linearGradient id="acabec68-2bfc-43a5-9e11-57576c5a1393" x1="810.46" y1="549.76" x2="809.46" y2="550.76" xlink:href="#b730b7b1-deab-43bb-971b-c539ef083773"/><linearGradient id="b469b7b2-8270-4656-944d-f63bd0c15a95" x1="811.26" y1="550.76" x2="811.26" y2="549.76" xlink:href="#fdcfff11-edec-4487-9cdc-a9b85e354929"/><linearGradient id="fb514b93-53d0-4277-886c-3eba913fd4db" x1="829.84" y1="547.11" x2="829.84" y2="548.11" xlink:href="#b5425336-b982-46b8-b5b5-4302694b42e0"/><linearGradient id="afc7f10a-ff21-4586-b6df-580018da00ba" x1="812.8" y1="550.72" x2="812.8" y2="549.72" xlink:href="#a81f1cd1-d808-441c-8b02-a22059922626"/><linearGradient id="ec44b740-ee50-49e4-b9ab-2d99e9b5cbc5" x1="830.26" y1="549.51" x2="829.26" y2="549.47" xlink:href="#bb764ebc-a46d-4457-9630-dcd65435499c"/><linearGradient id="a840ff8b-eabf-45a3-bba7-b3d028586ca3" x1="816.17" y1="549" x2="817.22" y2="550" xlink:href="#fb586892-5802-41cb-9a87-785d02165b09"/><linearGradient id="b730ee70-ebc8-4950-a0a8-4b24c63b2283" x1="814.31" y1="549.7" x2="814.31" y2="550.7" xlink:href="#a80b63c3-753f-4ee5-a5fa-e3115eeeb6aa"/><linearGradient id="bdda92d5-349b-4ca4-a4a7-1bb6db40a695" x1="819.86" y1="550.35" x2="819.36" y2="549.35" xlink:href="#aca0fe16-9248-4258-bc9f-d4480b0f0ae9"/><linearGradient id="b3db245c-e3cc-463b-819b-fe6aa11db406" x1="817.59" y1="549.66" x2="817.59" y2="550.66" xlink:href="#a3f6f6c4-6afe-4665-a559-3e3c3bf9e31d"/><linearGradient id="b434dc9e-096f-4eee-b7b2-519eacfbc68b" x1="819.81" y1="549.76" x2="818.81" y2="550.43" xlink:href="#b79a5f03-91f1-4105-bd0f-a26ee20d1af6"/></defs><g id="f209fd91-6924-4b83-ad78-1ba8282c03e0" data-name="图层 1"><rect class="a257fcf4-1b3c-4aff-98c7-ace5256bedf2" y="0.02" width="4016" height="451"/><g id="a5a9d7d6-1c5d-45f1-b277-a221f1fa265d" data-name="layer-1"><path id="ab4edbda-f2cf-4196-9501-fd25388124ce" data-name="object-1-1" class="a35a0238-9d6a-462b-a1a8-ac042ff8619b" d="M0,0H502V451H0Z" transform="translate(0 0.02)"/></g><g id="ba117dad-b6ff-4e24-bb8d-8800f04a9118" data-name="layer-2"><path id="bf92d772-0218-4cf7-83fc-740a7e1427bb" data-name="object-2-1" class="b3f94b0d-b929-476c-a7f7-4a47894dcee0" d="M279.87,11.55c80.4,11.75,146,65,172.64,140q7.85,22.13,9,32c.32,2.75,1,7.7,1.59,11,2.06,12.16,2.3,36.15.52,52-1.6,14.21-2.25,19-2.58,19a11.53,11.53,0,0,0-.49,2.5c-1.34,10-10.5,36-17.76,50.5C431,342,417.36,360.16,397,379.57c-9.6,9.16-16.37,14.43-29.58,23.05-33,21.5-69.84,32.94-109.92,34.1-21.45.62-36.23-1-57.14-6.21-16.53-4.13-22.13-6.05-36.72-12.58C121.3,399,85.84,365.62,62.72,323c-6.93-12.78-17.54-40.94-19.21-51-.32-1.92-.74-4.4-.95-5.5-3.3-18-4-25.51-4-43.5,0-18.26.35-22.08,4-44,.88-5.34,4.73-18.77,7.44-26,1.57-4.15,3.17-8.66,3.57-10,2.26-7.89,17.4-34.71,26.54-47C91.71,80.29,115.88,57.17,132,46.3c25.31-17.06,58.36-29.74,90.5-34.71,12.66-2,44.06-2,57.37,0" transform="translate(0 0.02)"/></g><g id="b043e9d8-a67f-4f10-9099-4f5325a38b82" data-name="layer-3"><path id="baffd378-db29-4420-9199-51101b632e26" data-name="object-3-1" class="a52e405e-5fc3-4d75-901f-b9ba93c1c321" d="M278.88,16.51c14.61,1.73,21.62,3.37,37.12,8.71a200.26,200.26,0,0,1,30.61,12.91c8.93,4.61,27.22,16.06,30.5,19.09C378.48,58.47,382,61.53,385,64c12.16,10.07,28.06,27.05,36.36,38.83,7.13,10.12,20.33,33.44,21.35,37.71.12.53,1.8,4.81,3.72,9.52,4.42,10.8,10,32.73,12,47,1.77,12.73,2,39.56.47,51.95-.86,6.88-3.29,18.78-7.42,36.3-2.69,11.38-19.9,47.23-27,56.17-14.75,18.65-19.64,24.31-27.25,31.55-22.62,21.52-47.69,36.78-76.3,46.44-12.73,4.3-29.62,8.81-31.6,8.44a3.18,3.18,0,0,0-1.4,0c-4.37,1.75-45.35,2.44-57.94,1-6.36-.74-11.94-1.24-12.41-1.11a2.94,2.94,0,0,1-2.1-.8c-.68-.56-1.48-.78-1.78-.48-.78.78-15.83-3.13-25.77-6.69-4.68-1.68-9.23-3.2-10.12-3.38-6.2-1.25-38-18.59-47.38-25.87-18.85-14.55-38.74-35.13-49.64-51.34C77.09,333.66,74,328.86,74,328.6s-2.25-4.17-5-8.7-5-8.61-5-9.07-2-5.54-4.45-11.27c-3.74-8.76-7.88-20.69-7.82-22.56,0-.27-.58-2.52-1.3-5s-2.3-9.45-3.5-15.5c-2.72-13.62-3.76-44.33-2-59.2,1.08-9.18,6.6-35.64,7.88-37.76a10,10,0,0,0,.81-3.12,29.94,29.94,0,0,1,2.18-6.55c1.07-2.4,3.19-7.52,4.7-11.37,7.57-19.3,24.84-44.92,42.35-62.84,14.08-14.4,35-30.11,48.88-36.71,4.68-2.22,9.24-4.77,10.13-5.66,4.87-4.87,37.78-14.37,58.15-16.78,14.8-1.75,44.11-1.75,58.88,0" transform="translate(0 0.02)"/></g><g id="ab5d8ce9-12ca-4ab5-abfd-dc2179685e46" data-name="layer-4"><path id="ae04ab8a-f67b-4802-9cd9-b366d5710edd" data-name="object-4-1" class="b01f67f0-9208-4b0b-a784-153e23688b22" d="M211.94,24.44c3.91,3.75,4.78,8.24,2.52,13-2.11,4.45-4.94,6-15.65,8.48C194.24,47,186.68,49.28,182,51c-15,5.51-14.23,5.36-18.26,3.67-10.87-4.54-9.28-18.24,2.79-24.2A140.36,140.36,0,0,1,183,24.57c9.05-2.7,13-3.38,18.67-3.23,6.46.17,7.52.49,10.24,3.1" transform="translate(0 0.02)"/><path id="acfe0937-291e-472e-8efa-0ebede7b00ad" data-name="object-4-2" class="bc3ebf27-b419-4080-8e50-3f3553d7a918" d="M271.79,45.05c21.06,2.29,45,9.66,65.21,20.09,17.11,8.82,28.68,17.48,44.55,33.33,24.78,24.74,39.46,50.71,47.49,84,7.35,30.49,6.75,56-2.09,88.62-4.79,17.72-9.27,28.14-19.46,45.36-8,13.48-11.91,18.72-22,29.32-21.63,22.75-46.31,38.55-75.25,48.18-67.18,22.36-139.11,5.43-188.75-44.43-22.27-22.37-37.17-47.46-45.63-76.83-8-27.93-9.05-59.45-2.79-86.72,8.24-35.87,25-65.45,51.57-91A165.37,165.37,0,0,1,168.5,64c19.68-9.86,41.67-16.57,62.15-19,10.26-1.19,30.18-1.2,41.14,0" transform="translate(0 0.02)"/><path id="b8e5badd-a275-4f24-859e-028661441512" data-name="object-4-3" class="f14f5af2-4452-4cc4-8123-5a477c513860" d="M451.61,252.11c4.51,4.23,4.93,8.32,2,19.61-7.64,29.58-21.06,56.53-34.9,70.11-6.3,6.17-11.13,7.56-16.54,4.76-2.88-1.49-6.18-6-6.18-8.51,0-.55,2.89-5.42,6.42-10.81,13.54-20.67,22-39.16,27.61-60.6,3-11.54,3.78-12.93,8.47-15.88a11.41,11.41,0,0,1,13.11,1.32" transform="translate(0 0.02)"/><path id="aad59685-1868-460e-b3b8-0c2db66cd23e" data-name="object-4-4" class="e880dbc9-a98f-4d4f-bb0a-fc39d8271187" d="M96.86,327.43a19.68,19.68,0,0,1,5.51,5.39c1.51,2.17,8.45,9.52,15.44,16.34,12.57,12.27,25.87,22,46,33.75,19,11.09,46.16,19.83,71.6,23.07,9.82,1.26,11.72,2,14,5.25a9.17,9.17,0,0,1-4.28,13.7c-6.35,2.63-41.85-4.31-63.81-12.48-14.48-5.39-27.67-12.46-45.77-24.53-17.63-11.76-31.41-23.43-42-35.56-8.73-10-11.18-15.1-9.59-19.91,1.84-5.58,7.49-7.79,12.84-5" transform="translate(0 0.02)"/></g><g id="a95a0b6f-edda-4168-ba21-e3d8559b40d9" data-name="layer-5"><path id="b1fcf743-b0a2-4ac5-9536-b926eb0911df" data-name="object-5-1" class="a7d78eb8-611c-413a-9eb8-83c9a61dd427" d="M270.5,46c18.25,2,28.92,5.23,47.22,14.14,6.73,3.27,13.16,6.12,14.29,6.34,2.51.48,11.31,5.39,19.49,10.87a170.24,170.24,0,0,1,56.93,63.13c4,7.62,10.37,25.05,14,38.5,5.18,19.1,5.59,22.45,5.57,45.74,0,20.22-.25,23.36-2.64,34.49-6.86,32-21.42,59.49-44.56,84.27-7.73,8.27-21.84,20-32.08,26.6C338.05,377,317,386.75,304.88,390.39c-19.86,6-26.61,6.85-53.88,7s-33.87-.79-55.75-7.92c-46.07-15-86.57-50.7-105.51-93C83,281.41,80.08,272.36,76.34,255c-2.64-12.27-2.62-48.3,0-62.5,9.32-49.94,38.82-91.48,84.54-119,5-3,9.54-5.45,10.14-5.45s3-1.29,5.28-2.87c14.24-9.77,35-16.6,59.18-19.47,6.63-.79,26.53-.58,35,.36" transform="translate(0 0.02)"/></g><g id="a1efe983-8581-4a48-98e5-b8135e1e5b21" data-name="layer-6"><path id="bed0f2c3-66a7-43fd-863f-ee12c0d6b890" data-name="object-6-1" class="af0d848f-d691-4ab0-84ab-7124ec88ec06" d="M270.5,46c17.42,1.94,29.07,5.29,44.35,12.73q32.85,16,43.3,43.34c2.92,7.63,3.07,8.72,2.62,18.26-.79,16.42-5.84,27.52-18.27,40.18-14.68,15-35.24,25.25-61.3,30.67-15.67,3.26-44,3.22-59.68-.1-42.1-8.9-71.23-31.53-78.1-60.67-4.12-17.48,2.17-37.34,16.37-51.72,18.38-18.6,42.41-29.09,75.71-33,6.63-.79,26.53-.58,35,.36" transform="translate(0 0.02)"/><path id="ab394e6a-4e23-44da-aacd-b07a077ee7e1" data-name="object-6-2" class="b2295ac5-41fe-408d-83cb-dc9ffbabb943" d="M123.34,113.25a107.83,107.83,0,0,0-7,8.75c-4.47,6.19-16.36,28.52-18.24,34.25-.67,2.06-1.56,3.75-2,3.75-.8,0-4.08,10.39-6.64,21-5.16,21.48-5.48,50.54-.8,74.45,2.2,11.25,8.49,28.89,14.77,41.41,21.08,42,57.18,72.93,102.2,87.47,19.93,6.44,25.23,7.18,51.37,7.12,21.76,0,24.44-.25,36.2-2.78,13.37-2.89,20.55-5.13,27.5-8.58a22.15,22.15,0,0,1,5.38-2.09c1.56,0,19.49-9.62,23.92-12.83,3.16-2.29,3.31-2.32,1.55-.3S328.8,380,327.37,380a21.86,21.86,0,0,0-3.72,1.38A286.19,286.19,0,0,1,293,392.17c-9.08,2.58-13.32,3.13-31.31,4.1-23.73,1.28-31.95.61-52.27-4.25a156.29,156.29,0,0,1-38.12-14.51c-7.28-3.85-18.94-11-20.3-12.48-.27-.29-3.09-2.5-6.25-4.91-7.19-5.46-28.75-27.71-28.75-29.67,0-.8-.44-1.45-1-1.45-1.33,0-12.9-17.77-17.26-26.5-13.49-27-20.37-61.68-17.81-89.74,1.65-18,4.85-30.77,13.5-53.76,2.62-6.95,9.39-20.78,10.52-21.47.55-.35,2.93-3.86,5.28-7.81,3.76-6.34,15-19.72,16.57-19.72.32,0-.79,1.46-2.47,3.25" transform="translate(0 0.02)"/></g><g id="be8a37b7-467c-48ca-8f75-3bd6e831c23f" data-name="layer-7"><path id="b4fa8d56-1f00-4b60-9974-e9718009394c" data-name="object-7-1" class="a174ffa5-857d-4fb0-8f3d-e50b5676f615" d="M270.5,46c11.59,1.29,18.22,2.67,27.5,5.72S328.62,65.07,336,70c3,2,9.87,6.59,15.2,10.13a172.51,172.51,0,0,1,53,55.33c5.35,9,8,15.45,13.57,32.5,8.11,25,8.7,28.84,8.65,56.5,0,16.52-.43,25.25-1.3,28-.7,2.2-1.87,7.2-2.61,11.12a49,49,0,0,1-2.41,9.13,60,60,0,0,0-2.71,6.88c-3.25,9.71-7.28,18.19-14.43,30.37-5.15,8.77-12.8,18.54-13.76,17.58-.3-.31,1.06-3,3-5.93,5.57-8.4,11.3-20.43,13.62-28.65,1.17-4.12,2.59-8.94,3.16-10.71a54.23,54.23,0,0,0,1.48-5.5c2.81-14.91,3.57-19.58,4.44-27.29a136.51,136.51,0,0,0-.51-36.2,181,181,0,0,0-25.79-72c-13.12-20.78-35.22-42.62-55.17-54.51A173.27,173.27,0,0,0,219,64c-18.59,2.68-40.72,9-48.23,13.68A23.58,23.58,0,0,1,166.45,80a17.34,17.34,0,0,0-3.77,2.38c-4.31,3.23-9.73,5.9-10.47,5.16-.33-.33,2.75-4,6.84-8.11C178.3,60,201.74,49.67,235.5,45.66c6.63-.79,26.53-.58,35,.36" transform="translate(0 0.02)"/></g></g><g id="a5998a6d-3192-4bf3-9ddf-8fa7818f5a40" data-name="图层 2"><g id="e396f837-2e7d-497e-a2a6-ec0211a7e64d" data-name="layer-1"><path id="ae51c970-775e-42f3-b65a-45b6704fef20" data-name="object-1-1" class="bfc50af3-389a-460b-9332-b9d1ad2442bf" d="M502,2h502V453H502Z" transform="translate(0 0.02)"/></g><g id="a171d465-4230-4406-b035-af040bc13030" data-name="layer-2"><path id="bf9b3e47-63cd-4785-b0b8-332bb6bc2559" data-name="object-2-1" class="f8c31c55-ef55-4de4-ba46-2d18df48ed46" d="M1283.55,15.83c80.39,11.75,146,64.94,172.63,140q7.85,22.11,9,32c.31,2.75,1,7.7,1.58,11,2.07,12.15,2.31,36.14.52,52-1.6,14.21-2.25,19-2.58,19a11.19,11.19,0,0,0-.48,2.5c-1.35,10-10.51,36-17.77,50.49-11.76,23.46-25.4,41.67-45.76,61.08-9.6,9.16-16.37,14.43-29.58,23-33,21.51-69.84,32.94-109.92,34.11-21.45.62-36.23-1-57.14-6.21-16.52-4.14-22.12-6.05-36.71-12.59-42.34-18.95-77.8-52.31-100.92-94.92-6.94-12.79-17.54-40.94-19.21-51-.32-1.93-.75-4.4-1-5.5-3.31-18-4-25.52-4-43.5,0-18.27.35-22.08,4-44,.88-5.35,4.72-18.78,7.44-26,1.56-4.14,3.16-8.66,3.56-10,2.27-7.9,17.4-34.72,26.55-47,11.61-15.66,35.78-38.78,51.9-49.65,25.31-17.06,58.37-29.74,90.5-34.72,12.66-2,44.07-2,57.38,0" transform="translate(0 0.02)"/></g><g id="ad21eed2-3db3-4e21-b043-987243d4b6b0" data-name="layer-3"><path id="a0e2a0bb-83c2-474d-ab9e-f7ef45af09e6" data-name="object-3-1" class="ed579c1e-a8d7-4acd-91c8-357f372111d5" d="M1818.55,17.78c14.62,1.73,21.62,3.38,37.12,8.71a200.41,200.41,0,0,1,30.61,12.91c8.93,4.62,27.22,16.06,30.51,19.09,1.36,1.26,4.92,4.31,7.91,6.79,12.16,10.07,28,27,36.35,38.83,7.13,10.11,20.34,33.44,21.35,37.71.13.52,1.8,4.81,3.73,9.51,4.42,10.8,10,32.73,12,47,1.78,12.74,2,39.57.48,52-.86,6.89-3.3,18.78-7.43,36.31-2.69,11.38-19.9,47.23-27,56.17-14.75,18.65-19.64,24.31-27.25,31.55-22.62,21.52-47.69,36.78-76.3,46.44-12.72,4.29-29.62,8.81-31.6,8.44a3.05,3.05,0,0,0-1.4,0c-4.36,1.74-45.34,2.44-57.93,1-6.36-.74-12-1.23-12.42-1.11a3,3,0,0,1-2.09-.79c-.68-.57-1.48-.78-1.78-.48-.78.78-15.84-3.13-25.78-6.7-4.67-1.67-9.23-3.19-10.12-3.37-6.2-1.26-38-18.6-47.38-25.87-18.85-14.56-38.74-35.13-49.63-51.34-3.78-5.62-6.87-10.43-6.87-10.68s-2.25-4.17-5-8.7-5-8.61-5-9.08-2-5.53-4.45-11.27c-3.74-8.76-7.88-20.69-7.82-22.55a49.45,49.45,0,0,0-1.29-5c-.73-2.48-2.3-9.45-3.51-15.5-2.71-13.62-3.76-44.34-2-59.2,1.08-9.19,6.6-35.65,7.88-37.76a9.86,9.86,0,0,0,.81-3.13,30.62,30.62,0,0,1,2.18-6.54c1.08-2.41,3.19-7.52,4.7-11.37,7.57-19.3,24.84-44.92,42.35-62.84,14.08-14.41,35-30.12,48.88-36.71,4.69-2.23,9.25-4.77,10.13-5.66,4.88-4.88,37.79-14.37,58.15-16.78,14.81-1.76,44.11-1.76,58.88,0" transform="translate(0 0.02)"/></g><g id="aebc3020-f636-4f34-a0d2-a20351d956cd" data-name="layer-4"><path id="f345de6a-d174-4d29-bce0-c1f97a29f3f8" data-name="object-4-1" class="a837d6f1-f2a4-4bcd-9ed4-2dfba533a83e" d="M2225.61,24.72c3.91,3.74,4.78,8.24,2.52,13-2.11,4.46-4.93,6-15.65,8.49a171.22,171.22,0,0,0-16.81,5.06c-15,5.51-14.22,5.36-18.26,3.67-10.86-4.54-9.28-18.24,2.79-24.2a142.6,142.6,0,0,1,16.5-5.9c9.06-2.7,13-3.38,18.68-3.22,6.45.17,7.51.49,10.23,3.1" transform="translate(0 0.02)"/><path id="b20e9023-482c-4240-9e6d-872f1ea105a2" data-name="object-4-2" class="bc11f47e-32ca-4a2a-8f6a-fe49c86566e1" d="M2285.46,45.33c21.06,2.29,45,9.66,65.21,20.08,17.11,8.83,28.69,17.48,44.56,33.33,24.77,24.74,39.45,50.71,47.48,84,7.36,30.48,6.76,56-2.08,88.62-4.8,17.71-9.27,28.14-19.47,45.36-8,13.47-11.91,18.71-22,29.31-21.63,22.75-46.3,38.55-75.25,48.18-67.18,22.36-139.11,5.43-188.75-44.42-22.27-22.37-37.17-47.46-45.62-76.83-8.05-27.94-9.06-59.45-2.8-86.72,8.24-35.87,25-65.45,51.57-91a165.53,165.53,0,0,1,43.85-31,191.66,191.66,0,0,1,62.15-19c10.27-1.19,30.18-1.19,41.14,0" transform="translate(0 0.02)"/><path id="a8ccf95b-3b8f-4f10-b3d9-34372c28df14" data-name="object-4-3" class="bc1f06e0-3d87-419e-924e-c970406dcd9b" d="M2465.29,252.38c4.5,4.23,4.92,8.33,2,19.61-7.64,29.58-21.06,56.54-34.91,70.11-6.3,6.18-11.13,7.57-16.54,4.77-2.88-1.49-6.18-6-6.18-8.51,0-.56,2.89-5.42,6.42-10.81,13.55-20.67,22-39.16,27.62-60.6,3-11.55,3.78-12.94,8.46-15.89a11.46,11.46,0,0,1,13.12,1.32" transform="translate(0 0.02)"/><path id="fce27d33-35a0-4fef-8130-9b6e1bfed529" data-name="object-4-4" class="ad2826b3-62a5-4c08-992a-45f7f81a4285" d="M2110.54,327.71a19.76,19.76,0,0,1,5.51,5.38c1.5,2.18,8.45,9.53,15.43,16.34,12.58,12.28,25.87,22,46,33.76,19.05,11.09,46.17,19.82,71.6,23.07,9.83,1.25,11.72,2,14,5.25a9.18,9.18,0,0,1-4.28,13.7c-6.35,2.63-41.85-4.32-63.81-12.49-14.48-5.39-27.67-12.46-45.77-24.53-17.63-11.75-31.41-23.43-42-35.55-8.72-10-11.18-15.1-9.59-19.91,1.84-5.59,7.49-7.79,12.85-5" transform="translate(0 0.02)"/></g><g id="ae72dd80-11b9-4f95-9f1a-b70dadec2481" data-name="layer-5"><path id="e352ef2a-9e7d-459b-b136-340a02604abc" data-name="object-5-1" class="b2a0a87e-df45-4dfd-bce4-7b5e1ebe6298" d="M2781.17,52.3c18.26,2,28.92,5.23,47.23,14.13,6.72,3.27,13.15,6.13,14.29,6.35,2.5.48,11.3,5.39,19.48,10.86a170.29,170.29,0,0,1,56.94,63.14c4,7.61,10.36,25,14,38.5,5.17,19.09,5.58,22.44,5.57,45.74,0,20.22-.26,23.35-2.65,34.49-6.86,31.95-21.42,59.49-44.56,84.27-7.73,8.27-21.84,20-32.08,26.6-10.68,6.91-31.72,16.64-43.85,20.29-19.86,6-26.61,6.84-53.88,7s-33.86-.79-55.75-7.91c-46.06-15-86.57-50.7-105.5-93-6.74-15.06-9.67-24.11-13.4-41.47-2.64-12.27-2.63-48.31,0-62.5,9.32-49.95,38.81-91.49,84.53-119,5-3,9.54-5.45,10.15-5.45s3-1.29,5.27-2.87c14.25-9.77,35-16.6,59.18-19.48,6.63-.79,26.53-.58,35,.37" transform="translate(0 0.02)"/></g><g id="ab4532be-7640-4020-9a6f-cbfdf1a95b98" data-name="layer-6"><path id="a2af5843-c2ea-4a20-9bf0-a2b942b9bf55" data-name="object-6-1" class="b356ad2b-05de-4911-a354-5e44686a9e31" d="M3291.17,43.3c17.43,1.94,29.07,5.28,44.35,12.73q32.85,16,43.31,43.33c2.91,7.64,3.07,8.72,2.61,18.27-.79,16.41-5.84,27.51-18.27,40.18-14.68,15-35.24,25.25-61.29,30.67-15.67,3.26-44,3.21-59.69-.1-42.1-8.91-71.23-31.54-78.09-60.67-4.12-17.48,2.16-37.34,16.37-51.72,18.37-18.61,42.4-29.1,75.7-33.06,6.63-.79,26.53-.58,35,.37" transform="translate(0 0.02)"/><path id="f31774a2-e7e3-4502-9475-4c81c5b01c25" data-name="object-6-2" class="b655dee4-97ca-484e-ba82-98034a4ab6a0" d="M3144,110.53a108.24,108.24,0,0,0-7,8.75c-4.47,6.18-16.36,28.52-18.23,34.25-.68,2.06-1.57,3.75-2,3.75-.8,0-4.08,10.38-6.63,21-5.17,21.48-5.49,50.54-.81,74.44,2.2,11.26,8.5,28.9,14.78,41.42,21.08,42,57.17,72.93,102.19,87.47,19.93,6.44,25.23,7.17,51.37,7.12,21.77,0,24.44-.25,36.21-2.79,13.36-2.88,20.54-5.12,27.5-8.58a22.11,22.11,0,0,1,5.37-2.08c1.57,0,19.5-9.62,23.92-12.83,3.17-2.3,3.32-2.33,1.55-.31s-22.74,15.14-24.18,15.14a21.77,21.77,0,0,0-3.72,1.37,281.88,281.88,0,0,1-30.65,10.79c-9.08,2.58-13.31,3.14-31.31,4.11-23.72,1.27-31.94.6-52.27-4.26a156.26,156.26,0,0,1-38.12-14.5c-7.27-3.85-18.94-11-20.3-12.48-.27-.3-3.09-2.51-6.25-4.91-7.19-5.46-28.75-27.72-28.75-29.67,0-.8-.44-1.45-1-1.45-1.33,0-12.91-17.77-17.27-26.5-13.48-27-20.37-61.69-17.81-89.75,1.65-18,4.85-30.77,13.51-53.75,2.61-7,9.38-20.78,10.51-21.48.56-.34,2.93-3.85,5.28-7.8,3.76-6.34,15-19.72,16.57-19.72.32,0-.79,1.46-2.47,3.25" transform="translate(0 0.02)"/></g><g id="b8790904-909f-4055-bc68-1ae5448c587d" data-name="layer-7"><path id="f456e551-d26b-49dd-a93f-9fac12c1de4b" data-name="object-7-1" class="b945326b-a74e-459a-9798-2e9320b1cc33" d="M3754.17,87.3c11.59,1.29,18.22,2.67,27.5,5.72s30.62,13.32,38,18.29c3,2,9.87,6.6,15.21,10.13a172.65,172.65,0,0,1,53,55.34c5.35,9,8,15.44,13.57,32.5,8.1,25,8.69,28.83,8.65,56.5,0,16.51-.44,25.24-1.31,28-.7,2.2-1.87,7.2-2.61,11.11a48.53,48.53,0,0,1-2.41,9.13,62.28,62.28,0,0,0-2.71,6.89c-3.24,9.71-7.27,18.18-14.43,30.37-5.15,8.76-12.79,18.53-13.76,17.57-.29-.3,1.07-3,3-5.93,5.58-8.39,11.3-20.43,13.62-28.64,1.17-4.13,2.59-8.95,3.17-10.71a53.92,53.92,0,0,0,1.47-5.5c2.81-14.92,3.57-19.58,4.45-27.29a136.94,136.94,0,0,0-.52-36.2,180.91,180.91,0,0,0-25.79-72c-13.11-20.78-35.21-42.62-55.17-54.52a173.33,173.33,0,0,0-114.5-22.82c-18.58,2.69-40.71,9-48.23,13.68a23.65,23.65,0,0,1-4.31,2.35,17.09,17.09,0,0,0-3.77,2.38c-4.31,3.22-9.74,5.9-10.48,5.16-.33-.33,2.75-4,6.85-8.11C3662,101.3,3685.41,91,3719.17,86.93c6.63-.79,26.53-.58,35,.37" transform="translate(0 0.02)"/></g><line class="fa50688d-8176-44ea-8370-1280a58cf6b7" x1="502.5" y1="1.52" x2="502.5" y2="452.52"/><line class="fa50688d-8176-44ea-8370-1280a58cf6b7" x1="1004" y1="2.02" x2="1004" y2="453.02"/><line class="fa50688d-8176-44ea-8370-1280a58cf6b7" x1="1506" y1="0.02" x2="1508" y2="451.02"/><line class="fa50688d-8176-44ea-8370-1280a58cf6b7" x1="2007.5" y1="1.52" x2="2007.5" y2="452.52"/><line class="fa50688d-8176-44ea-8370-1280a58cf6b7" x1="2510" y1="1.02" x2="2512" y2="452.02"/><line class="fa50688d-8176-44ea-8370-1280a58cf6b7" x1="3012" y1="0.02" x2="3016" y2="451.02"/><line class="fa50688d-8176-44ea-8370-1280a58cf6b7" x1="3515" y1="0.02" x2="3514" y2="451.02"/></g></svg>