<?xml version="1.0" encoding="utf-8"?>
<!-- Generator: Adobe Illustrator 26.5.0, SVG Export Plug-In . SVG Version: 6.00 Build 0)  -->
<svg version="1.1" id="图层_1" xmlns="http://www.w3.org/2000/svg" xmlns:xlink="http://www.w3.org/1999/xlink" x="0px" y="0px"
	 viewBox="0 0 4625 820" style="enable-background:new 0 0 4625 820;" xml:space="preserve">
<style type="text/css">
	.st0{fill:none;}
	.st1{fill:#D3D3D3;}
	.st2{fill:url(#SVGID_00000016757259799916807840000014115782182168173954_);}
	.st3{fill:#FFFFFF;}
	.st4{fill:url(#region-1-1_00000131328923559771126070000010195349660079442054_);}
	.st5{fill:url(#region-1-2_00000116225245929605343710000015704767562383184028_);}
	.st6{fill:url(#region-1-3_00000177476669443897190090000015840727909760869800_);}
	.st7{fill:url(#region-1-4_00000040564287597807590920000007829808507264458635_);}
	.st8{fill:url(#region-2-1_00000011030946714071692590000001642874516101303454_);}
	.st9{fill:url(#region-2-2_00000160167836859710735240000013718878021312273047_);}
	.st10{fill:url(#region-2-3_00000080910427671100997160000013002216838914894526_);}
	.st11{fill:url(#region-3-1_00000034773694160729330230000015715285802081834909_);}
	.st12{fill:url(#region-4-1_00000170273444090389520980000002375517191465427348_);}
	.st13{fill:url(#region-1-1_00000148626503698423972020000013907093032224413314_);}
	.st14{fill:url(#region-1-2_00000148624196311600784690000004220196205958246020_);}
	.st15{fill:url(#region-1-3_00000033350704242744620790000000216933262332914608_);}
	.st16{fill:url(#region-1-4_00000083782577522797614500000012469846790945282714_);}
	.st17{fill:url(#region-2-1_00000172426051323557086750000003985864369445356454_);}
	.st18{fill:url(#region-2-2_00000180364087100258962280000007036693978963439490_);}
	.st19{fill:url(#region-2-3_00000031165693382719418250000005007252648248561333_);}
	
		.st20{fill:url(#region-3-1_00000000906879805972611780000001128737205120019336_);stroke:#000000;stroke-width:2;stroke-miterlimit:10;}
	
		.st21{fill:url(#region-4-1_00000088829725247753360610000007905759917200284325_);stroke:#000000;stroke-width:2;stroke-miterlimit:10;}
	.st22{fill:none;stroke:#000000;stroke-width:2;stroke-miterlimit:10;}
</style>
<pattern  y="820" width="40" height="40" patternUnits="userSpaceOnUse" id="SVGID_1_" viewBox="0 -40 40 40" style="overflow:visible;">
	<g>
		<rect y="-40" class="st0" width="40" height="40"/>
		<g>
			<rect y="-40" class="st0" width="40" height="40"/>
			<g>
				<rect y="-40" class="st0" width="40" height="40"/>
				<g>
					<rect y="-40" class="st0" width="40" height="40"/>
					<rect y="-40" class="st0" width="40" height="40"/>
					<rect y="-20" class="st1" width="20" height="20"/>
					<rect x="20" y="-40" class="st1" width="20" height="20"/>
				</g>
			</g>
		</g>
	</g>
</pattern>
<g id="图层_1_00000077305922374304125550000009540054286331116678_">
	
		<pattern  id="SVGID_00000164501571621632731300000012848888621310300060_" xlink:href="#SVGID_1_" patternTransform="matrix(1 0 0 -1 1252 -33395.2422)">
	</pattern>
	<rect style="fill:url(#SVGID_00000164501571621632731300000012848888621310300060_);" width="4625" height="820"/>
	<rect class="st3" width="925" height="820"/>
	<g id="layer-1">
		
			<linearGradient id="region-1-1_00000114054499649680913300000011133206899867833759_" gradientUnits="userSpaceOnUse" x1="1604.6769" y1="76.5466" x2="1605.6951" y2="76.5104" gradientTransform="matrix(142.4377 0 0 -91.5853 -228178.1562 7055.3672)">
			<stop  offset="0" style="stop-color:#DE582A;stop-opacity:0.996"/>
			<stop  offset="1" style="stop-color:#DF5F1A;stop-opacity:0.998"/>
		</linearGradient>
		<path id="region-1-1" style="fill:url(#region-1-1_00000114054499649680913300000011133206899867833759_);" d="M440.1,2.5
			c-15.6,2.4-26.1,6.3-28.9,10.7c-1.8,2.7-21.3,74.5-20.4,75.1c0.6,0.6,37.1,2.6,64.8,3.7c24,1,76.5,0.7,77.6-0.3
			c0.1-0.2-0.8-5.1-2.2-10.8c-1.4-5.8-5.4-23.8-9-40c-6.1-27.8-6.6-29.6-9.4-32.1c-3.2-2.7-10.1-5.2-19.4-6.8
			C484.8,0.5,451,0.8,440.1,2.5z"/>
		
			<linearGradient id="region-1-2_00000144296593096650341610000013967346782069452961_" gradientUnits="userSpaceOnUse" x1="1611.186" y1="77.8641" x2="1612.5682" y2="78.3667" gradientTransform="matrix(341.614 0 0 -440.7425 -550141.25 34726.7344)">
			<stop  offset="0" style="stop-color:#A02656;stop-opacity:0.998"/>
			<stop  offset="1" style="stop-color:#FF7C00;stop-opacity:0.998"/>
		</linearGradient>
		<path id="region-1-2" style="fill:url(#region-1-2_00000144296593096650341610000013967346782069452961_);" d="M390.3,89.6
			c-2,3.3-28.1,115.6-44.1,189.8c-2.5,11.5-10.9,50.7-18.6,87c-7.8,36.3-17.9,83.2-22.5,104.2c-4.7,21-8.5,38.7-8.5,39.2
			c0,2.5,68.4,13.9,106,17.7c21.9,2.1,80.1,3,102.5,1.5c48.8-3.3,81.7-11.8,118.7-30.8c10.2-5.2,14.7-8,14.4-8.9
			c-2.6-6.7-44.2-154.5-54-191.4c-11.4-43.4-41.1-164.1-50.1-203.5c-0.4-2-1.3-2-43.2-2.1c-23.5,0-50.9-0.6-60.8-1.2
			C394,88.7,390.9,88.6,390.3,89.6z"/>
		
			<linearGradient id="region-1-3_00000078723908195112989240000013111776349370168734_" gradientUnits="userSpaceOnUse" x1="1612.2635" y1="77.1759" x2="1613.1998" y2="78.3153" gradientTransform="matrix(425.7732 0 0 -230.1024 -686177.5 18488.4785)">
			<stop  offset="0" style="stop-color:#911455;stop-opacity:0.987"/>
			<stop  offset="1" style="stop-color:#DB571D;stop-opacity:0.992"/>
		</linearGradient>
		<path id="region-1-3" style="fill:url(#region-1-3_00000078723908195112989240000013111776349370168734_);" d="M624.1,498
			c-34.5,18.2-70,27.6-117,30.9c-18.4,1.3-66.3,1.3-85.7,0c-35.5-2.5-77.1-8.4-122.3-17.5l-3-0.7l-5.9,25.9
			c-3.3,14.2-11,46.5-17.3,71.7c-6.2,25.3-11.3,47.4-11.3,49.1c0,28.2,45.5,50.1,124.5,59.9c28.3,3.5,40.3,4.1,87,4.1
			c37.6,0,50.5-0.4,64.5-1.8c36.5-3.7,63.4-8.4,86.9-15.2c12.3-3.5,29.1-9.9,30-11.4c0.3-0.4,3.3-2.2,6.7-3.9
			c6.9-3.5,14.8-9.1,18.2-13c1.3-1.5,3.7-5.6,5.4-9.2c4.6-9.8,4.2-12-11-60.5c-7.2-23.1-18-58.4-24.1-78.5
			c-6-20-11.3-36.5-11.8-36.6C637.5,491.2,631.3,494.2,624.1,498z"/>
		
			<linearGradient id="region-1-4_00000030444586561515294850000010934222541475351197_" gradientUnits="userSpaceOnUse" x1="1614.3414" y1="77.9978" x2="1614.3505" y2="76.8897" gradientTransform="matrix(746.5781 0 0 -179.8202 -1204770.25 14663.8125)">
			<stop  offset="0" style="stop-color:#FE7E26;stop-opacity:0.997"/>
			<stop  offset="1" style="stop-color:#FF7E26;stop-opacity:0.999"/>
		</linearGradient>
		<path id="region-1-4" style="fill:url(#region-1-4_00000030444586561515294850000010934222541475351197_);" d="M685.7,645
			c2.7,8.8,2.5,14.7-1,22.2c-1.6,3.4-4,7.4-5.3,8.9c-3.4,3.9-11.3,9.5-18.2,13c-3.4,1.7-6.4,3.5-6.7,3.9c-0.9,1.5-17.7,7.9-30,11.4
			c-23.5,6.8-50.4,11.5-86.9,15.2c-22.2,2.2-103.3,2.6-125.5,0.5c-31.1-2.9-54.2-6.4-76-11.7c-42-10.1-67.8-25.2-73-42.7
			c-1.9-6.4-1.9-9.6,0-17.7c0.9-3.5,1.4-6.6,1.2-6.8c-0.4-0.4-23.9,3.4-111.2,17.7c-26.9,4.4-52.3,8.5-56.2,9.1l-7.3,1.1l0.1,3.7
			c0.1,2,0.6,6.5,1.3,10.1l1.1,6.4l14.5,4.4c60.1,18,116,35.9,269,86.4c79.6,26.3,117.2,38.3,121,38.6c5.3,0.3,11.1-1.9,171-66.3
			c91-36.7,165.9-67.1,166.4-67.6c0.5-0.4,1.3-3.6,1.8-7c0.6-4.7,0.5-6.5-0.4-7.1c-3.5-2.1-143.5-31.8-150.1-31.8
			C684,638.9,684.1,639.8,685.7,645z"/>
	</g>
	<g id="layer-2">
		
			<linearGradient id="region-2-1_00000055691014013298582840000014165262106765678260_" gradientUnits="userSpaceOnUse" x1="1607.6031" y1="76.6946" x2="1608.691" y2="77.0273" gradientTransform="matrix(193.943 0 0 -112.3456 -311436.125 8783.4355)">
			<stop  offset="0" style="stop-color:#9DACCE;stop-opacity:0.719"/>
			<stop  offset="1" style="stop-color:#D9E8FF;stop-opacity:0.829"/>
		</linearGradient>
		<path id="region-2-1" style="fill:url(#region-2-1_00000055691014013298582840000014165262106765678260_);" d="M390.3,89.6
			c-1,1.7-12.6,49.4-24.1,99.3c-0.9,4.1-1.1,6.7-0.5,7.1c1,0.6,15.5,1.8,49.9,4.1c20.3,1.4,115,1.7,132.1,0.5l11.6-0.9l-2.3-9.6
			c-8.6-36-22.5-94-22.9-95.7c-0.4-2-1.3-2-43.2-2.1c-23.5,0-50.9-0.6-60.8-1.2C394,88.7,390.9,88.6,390.3,89.6z"/>
		
			<linearGradient id="region-2-2_00000036217135555743466100000005293889607085216929_" gradientUnits="userSpaceOnUse" x1="1611.1826" y1="77.2494" x2="1612.2377" y2="77.5364" gradientTransform="matrix(341.5421 0 0 -160.6133 -550025.0625 12876.6826)">
			<stop  offset="0" style="stop-color:#6C78A3;stop-opacity:0.765"/>
			<stop  offset="1" style="stop-color:#D1DCF7;stop-opacity:0.818"/>
		</linearGradient>
		<path id="region-2-2" style="fill:url(#region-2-2_00000036217135555743466100000005293889607085216929_);" d="M326.7,372.1
			c-0.5,1.8-5.3,23.3-10.6,47.8c-5.3,24.5-11.8,54.4-14.5,66.6c-2.8,12.1-5,22.5-5,23.1c0,1.3,3.5,2.1,29.4,6.9
			c49.8,9.1,82.1,12.4,127.6,13.1c79.4,1.2,121.7-6.6,170.2-31.4c10.9-5.5,14.8-8,14.3-9c-0.3-0.8-6.2-21.4-13.1-45.6
			c-12.5-44.2-19.2-66.8-19.7-67.4c-0.2-0.1-5.5,0.6-11.8,1.7c-65.3,11-134.4,11.5-205.4,1.4c-14.7-2.1-45.7-7.5-57.6-10
			C328.1,368.8,327.7,369.1,326.7,372.1z"/>
		
			<linearGradient id="region-2-3_00000081613637831840400140000003474808718245832894_" gradientUnits="userSpaceOnUse" x1="1614.3431" y1="77.7786" x2="1614.3486" y2="76.6807" gradientTransform="matrix(746.6773 0 0 -147.8202 -1204930.5 12167.8203)">
			<stop  offset="0" style="stop-color:#760057;stop-opacity:0.779"/>
			<stop  offset="1" style="stop-color:#7A0356;stop-opacity:0.802"/>
		</linearGradient>
		<path id="region-2-3" style="fill:url(#region-2-3_00000081613637831840400140000003474808718245832894_);" d="M89.7,673.6
			c0.1,1.6,0.6,5.7,1.3,9.3l1.1,6.4l14.5,4.4c60.1,18,116,35.9,269,86.4c79.6,26.3,117.2,38.3,121,38.6c5.3,0.3,11.1-1.9,171-66.3
			c91-36.7,165.9-67.1,166.4-67.6c1-0.9,2.9-12.9,2.2-13.6c-0.4-0.4-330.4,125.6-335.8,128.2c-2.5,1.2-4.9,0.8-24.5-4.6
			c-75.3-20.6-213.7-64.9-354.6-113.3c-16.9-5.8-31-10.6-31.2-10.6C89.8,670.9,89.6,672.1,89.7,673.6z"/>
	</g>
	<g id="layer-3">
		
			<linearGradient id="region-3-1_00000077283360402489430760000005053956754110599854_" gradientUnits="userSpaceOnUse" x1="1609.4484" y1="78.7403" x2="1609.4484" y2="77.7403" gradientTransform="matrix(228.3757 0 0 -696.4473 -366985.7188 54846.5938)">
			<stop  offset="0" style="stop-color:#FFFFDC;stop-opacity:0.473"/>
			<stop  offset="1" style="stop-color:#FFFFD1;stop-opacity:0.153"/>
		</linearGradient>
		<path id="region-3-1" style="fill:url(#region-3-1_00000077283360402489430760000005053956754110599854_);" d="M465.9,8.7
			c-3.4,0.4-6.5,1-6.8,1.4c-0.4,0.4,0.4,8.3,1.9,17.5c4.1,27.2,8,57.4,17.1,134.8c21,179.1,22.6,188,51.1,284.5
			c21.3,72.1,79.7,254.5,82.4,257.4c1.8,1.9,31.8-6.9,45.7-13.4c15.3-7.1,22.9-13.7,27.5-23.9c4.6-9.9,4.2-12.2-11-60.6
			c-29.6-94.8-68.8-229.7-89.6-308.5C565.3,226,530.7,82.3,519.1,27.4c-1.6-7.2-3.3-13.5-3.9-14.2C511.8,9.5,483.1,6.9,465.9,8.7z"
			/>
	</g>
	<g id="layer-4">
		
			<linearGradient id="region-4-1_00000050631361666244006700000012392130015760330937_" gradientUnits="userSpaceOnUse" x1="1565.3151" y1="61.8706" x2="1565.3964" y2="60.5378" gradientTransform="matrix(31.4756 0 0 -10.5452 -48781.5273 667.0549)">
			<stop  offset="0" style="stop-color:#FBFFFF;stop-opacity:0.813"/>
			<stop  offset="1" style="stop-color:#FBFFFF;stop-opacity:0.813"/>
		</linearGradient>
		<path id="region-4-1" style="fill:url(#region-4-1_00000050631361666244006700000012392130015760330937_);" d="M472.7,16.5
			c0.5,2.7,10.1,7.2,17.8,8.5c7.4,1.2,12.6-0.1,13.4-3.2c1.1-4.2-1.4-4.9-22.7-6.5C472.9,14.6,472.4,14.7,472.7,16.5z"/>
	</g>
</g>
<g id="图层_2_00000159465105745293247150000006344246797392097166_">
	<g id="layer-1_00000040553825947500603500000011466723401103495836_">
		
			<linearGradient id="region-1-1_00000021810917795739704240000008782142282028105897_" gradientUnits="userSpaceOnUse" x1="1611.1499" y1="76.5466" x2="1612.168" y2="76.5104" gradientTransform="matrix(142.4377 0 0 -91.5853 -228178.1562 7055.3672)">
			<stop  offset="0" style="stop-color:#DE582A;stop-opacity:0.996"/>
			<stop  offset="1" style="stop-color:#DF5F1A;stop-opacity:0.998"/>
		</linearGradient>
		
			<path id="region-1-1_00000088814007792828490970000010966788090902626749_" style="fill:url(#region-1-1_00000021810917795739704240000008782142282028105897_);" d="
			M1362.1,2.5c-15.6,2.4-26.1,6.3-28.9,10.7c-1.8,2.7-21.3,74.5-20.4,75.1c0.6,0.6,37.1,2.6,64.8,3.7c24,1,76.5,0.7,77.6-0.3
			c0.1-0.2-0.8-5.1-2.2-10.8c-1.4-5.8-5.4-23.8-9-40c-6.1-27.8-6.6-29.6-9.4-32.1c-3.2-2.7-10.1-5.2-19.4-6.8
			C1406.8,0.5,1373,0.8,1362.1,2.5z"/>
		
			<linearGradient id="region-1-2_00000079485793287031504590000005826181975284280996_" gradientUnits="userSpaceOnUse" x1="1613.885" y1="77.8641" x2="1615.2672" y2="78.3667" gradientTransform="matrix(341.614 0 0 -440.7425 -550141.25 34726.7344)">
			<stop  offset="0" style="stop-color:#A02656;stop-opacity:0.998"/>
			<stop  offset="1" style="stop-color:#FF7C00;stop-opacity:0.998"/>
		</linearGradient>
		
			<path id="region-1-2_00000138571792090106820030000013892800377622335881_" style="fill:url(#region-1-2_00000079485793287031504590000005826181975284280996_);" d="
			M1312.3,89.6c-2,3.3-28.1,115.6-44.1,189.8c-2.5,11.5-10.9,50.7-18.6,87c-7.8,36.3-17.9,83.2-22.5,104.2
			c-4.7,21-8.5,38.7-8.5,39.2c0,2.5,68.4,13.9,106,17.7c21.9,2.1,80.1,3,102.5,1.5c48.8-3.3,81.7-11.8,118.7-30.8
			c10.2-5.2,14.7-8,14.4-8.9c-2.6-6.7-44.2-154.5-54-191.4c-11.4-43.4-41.1-164.1-50.1-203.5c-0.4-2-1.3-2-43.2-2.1
			c-23.5,0-50.9-0.6-60.8-1.2C1316,88.7,1312.9,88.6,1312.3,89.6z"/>
		
			<linearGradient id="region-1-3_00000175289989301014633800000017372809772774460567_" gradientUnits="userSpaceOnUse" x1="1614.4291" y1="77.1759" x2="1615.3654" y2="78.3153" gradientTransform="matrix(425.7732 0 0 -230.1024 -686177.5 18488.4785)">
			<stop  offset="0" style="stop-color:#911455;stop-opacity:0.987"/>
			<stop  offset="1" style="stop-color:#DB571D;stop-opacity:0.992"/>
		</linearGradient>
		
			<path id="region-1-3_00000019644333979122379390000009672672781713650818_" style="fill:url(#region-1-3_00000175289989301014633800000017372809772774460567_);" d="
			M1546.1,498c-34.5,18.2-70,27.6-117,30.9c-18.4,1.3-66.3,1.3-85.7,0c-35.5-2.5-77.1-8.4-122.3-17.5l-3-0.7l-5.9,25.9
			c-3.3,14.2-11,46.5-17.3,71.7c-6.2,25.3-11.3,47.4-11.3,49.1c0,28.2,45.5,50.1,124.5,59.9c28.3,3.5,40.3,4.1,87,4.1
			c37.6,0,50.5-0.4,64.5-1.8c36.5-3.7,63.4-8.4,86.9-15.2c12.3-3.5,29.1-9.9,30-11.4c0.3-0.4,3.3-2.2,6.7-3.9
			c6.9-3.5,14.8-9.1,18.2-13c1.3-1.5,3.7-5.6,5.4-9.2c4.6-9.8,4.2-12-11-60.5c-7.2-23.1-18-58.4-24.1-78.5
			c-6-20-11.3-36.5-11.8-36.6C1559.5,491.2,1553.3,494.2,1546.1,498z"/>
		
			<linearGradient id="region-1-4_00000173135036968016360210000013597414836258141114_" gradientUnits="userSpaceOnUse" x1="1615.5764" y1="77.9978" x2="1615.5854" y2="76.8897" gradientTransform="matrix(746.5781 0 0 -179.8202 -1204770.25 14663.8125)">
			<stop  offset="0" style="stop-color:#FE7E26;stop-opacity:0.997"/>
			<stop  offset="1" style="stop-color:#FF7E26;stop-opacity:0.999"/>
		</linearGradient>
		
			<path id="region-1-4_00000122689828132744129870000006070705877377692306_" style="fill:url(#region-1-4_00000173135036968016360210000013597414836258141114_);" d="
			M1607.7,645c2.7,8.8,2.5,14.7-1,22.2c-1.6,3.4-4,7.4-5.3,8.9c-3.4,3.9-11.3,9.5-18.2,13c-3.4,1.7-6.4,3.5-6.7,3.9
			c-0.9,1.5-17.7,7.9-30,11.4c-23.5,6.8-50.4,11.5-86.9,15.2c-22.2,2.2-103.3,2.6-125.5,0.5c-31.1-2.9-54.2-6.4-76-11.7
			c-42-10.1-67.8-25.2-73-42.7c-1.9-6.4-1.9-9.6,0-17.7c0.9-3.5,1.4-6.6,1.2-6.8c-0.4-0.4-23.9,3.4-111.2,17.7
			c-26.9,4.4-52.3,8.5-56.2,9.1l-7.3,1.1l0.1,3.7c0.1,2,0.6,6.5,1.3,10.1l1.1,6.4l14.5,4.4c60.1,18,116,35.9,269,86.4
			c79.6,26.3,117.2,38.3,121,38.6c5.3,0.3,11.1-1.9,171-66.3c91-36.7,165.9-67.1,166.4-67.6c0.5-0.4,1.3-3.6,1.8-7
			c0.6-4.7,0.5-6.5-0.4-7.1c-3.5-2.1-143.5-31.8-150.1-31.8C1606,638.9,1606.1,639.8,1607.7,645z"/>
	</g>
	<g id="layer-2_00000132775907743060400170000008381585993363669383_">
		
			<linearGradient id="region-2-1_00000172399335684974007030000017228298707963292607_" gradientUnits="userSpaceOnUse" x1="1617.1213" y1="76.6946" x2="1618.2092" y2="77.0273" gradientTransform="matrix(193.943 0 0 -112.3456 -311436.125 8783.4355)">
			<stop  offset="0" style="stop-color:#9DACCE;stop-opacity:0.719"/>
			<stop  offset="1" style="stop-color:#D9E8FF;stop-opacity:0.829"/>
		</linearGradient>
		
			<path id="region-2-1_00000044890038497149585750000000495470286749401489_" style="fill:url(#region-2-1_00000172399335684974007030000017228298707963292607_);" d="
			M2236.3,89.6c-1,1.7-12.6,49.4-24.1,99.3c-0.9,4.1-1.1,6.7-0.5,7.1c1,0.6,15.5,1.8,49.9,4.1c20.3,1.4,115,1.7,132.1,0.5l11.6-0.9
			l-2.3-9.6c-8.6-36-22.5-94-22.9-95.7c-0.4-2-1.3-2-43.2-2.1c-23.5,0-50.9-0.6-60.8-1.2C2240,88.7,2236.9,88.6,2236.3,89.6z"/>
		
			<linearGradient id="region-2-2_00000075844573441623169670000005858402680324190345_" gradientUnits="userSpaceOnUse" x1="1616.5875" y1="77.2494" x2="1617.6426" y2="77.5364" gradientTransform="matrix(341.5421 0 0 -160.6133 -550025.0625 12876.6826)">
			<stop  offset="0" style="stop-color:#6C78A3;stop-opacity:0.765"/>
			<stop  offset="1" style="stop-color:#D1DCF7;stop-opacity:0.818"/>
		</linearGradient>
		
			<path id="region-2-2_00000132770010184418445870000003980260541641436551_" style="fill:url(#region-2-2_00000075844573441623169670000005858402680324190345_);" d="
			M2172.7,372.1c-0.5,1.8-5.3,23.3-10.6,47.8s-11.8,54.4-14.5,66.6c-2.8,12.1-5,22.5-5,23.1c0,1.3,3.5,2.1,29.4,6.9
			c49.8,9.1,82.1,12.4,127.6,13.1c79.4,1.2,121.7-6.6,170.2-31.4c10.9-5.5,14.8-8,14.3-9c-0.3-0.8-6.2-21.4-13.1-45.6
			c-12.5-44.2-19.2-66.8-19.7-67.4c-0.2-0.1-5.5,0.6-11.8,1.7c-65.3,11-134.4,11.5-205.4,1.4c-14.7-2.1-45.7-7.5-57.6-10
			C2174.1,368.8,2173.7,369.1,2172.7,372.1z"/>
		
			<linearGradient id="region-2-3_00000104670808655314756330000003310129027887637129_" gradientUnits="userSpaceOnUse" x1="1616.8154" y1="77.7786" x2="1616.8209" y2="76.6807" gradientTransform="matrix(746.6773 0 0 -147.8202 -1204930.5 12167.8203)">
			<stop  offset="0" style="stop-color:#760057;stop-opacity:0.779"/>
			<stop  offset="1" style="stop-color:#7A0356;stop-opacity:0.802"/>
		</linearGradient>
		
			<path id="region-2-3_00000040534362747982830710000012496983193557802931_" style="fill:url(#region-2-3_00000104670808655314756330000003310129027887637129_);" d="
			M1935.7,673.6c0.1,1.6,0.6,5.7,1.3,9.3l1.1,6.4l14.5,4.4c60.1,18,116,35.9,269,86.4c79.6,26.3,117.2,38.3,121,38.6
			c5.3,0.3,11.1-1.9,171-66.3c91-36.7,165.9-67.1,166.4-67.6c1-0.9,2.9-12.9,2.2-13.6c-0.4-0.4-330.4,125.6-335.8,128.2
			c-2.5,1.2-4.9,0.8-24.5-4.6c-75.3-20.6-213.7-64.9-354.6-113.3c-16.9-5.8-31-10.6-31.2-10.6
			C1935.8,670.9,1935.6,672.1,1935.7,673.6z"/>
	</g>
	<g id="layer-3_00000057141997815179452360000015719140506109862796_">
		
			<linearGradient id="region-3-1_00000012472320920831068190000003526660469444149635_" gradientUnits="userSpaceOnUse" x1="1621.5862" y1="78.7403" x2="1621.5862" y2="77.7403" gradientTransform="matrix(228.3757 0 0 -696.4473 -366985.7188 54846.5938)">
			<stop  offset="0" style="stop-color:#FFFFDC;stop-opacity:0.473"/>
			<stop  offset="1" style="stop-color:#FFFFD1;stop-opacity:0.153"/>
		</linearGradient>
		
			<path id="region-3-1_00000000926622026302607640000000550168542344725138_" style="fill:url(#region-3-1_00000012472320920831068190000003526660469444149635_);stroke:#000000;stroke-width:2;stroke-miterlimit:10;" d="
			M3237.9,8.7c-3.4,0.4-6.5,1-6.8,1.4c-0.4,0.4,0.4,8.3,1.9,17.5c4.1,27.2,8,57.4,17.1,134.8c21,179.1,22.6,188,51.1,284.5
			c21.3,72.1,79.7,254.5,82.4,257.4c1.8,1.9,31.8-6.9,45.7-13.4c15.3-7.1,22.9-13.7,27.5-23.9c4.6-9.9,4.2-12.2-11-60.6
			c-29.6-94.8-68.8-229.7-89.6-308.5c-18.9-71.9-53.5-215.6-65.1-270.5c-1.6-7.2-3.3-13.5-3.9-14.2
			C3283.8,9.5,3255.1,6.9,3237.9,8.7z"/>
	</g>
	<g id="layer-4_00000052827096884445360100000018425035806512069003_">
		
			<linearGradient id="region-4-1_00000168808925054181565060000014667634659497290152_" gradientUnits="userSpaceOnUse" x1="1682.7711" y1="61.8706" x2="1682.8523" y2="60.5378" gradientTransform="matrix(31.4756 0 0 -10.5452 -48781.5273 667.0549)">
			<stop  offset="0" style="stop-color:#FBFFFF;stop-opacity:0.813"/>
			<stop  offset="1" style="stop-color:#FBFFFF;stop-opacity:0.813"/>
		</linearGradient>
		
			<path id="region-4-1_00000134951587525046397580000004069460156021241218_" style="fill:url(#region-4-1_00000168808925054181565060000014667634659497290152_);stroke:#000000;stroke-width:2;stroke-miterlimit:10;" d="
			M4169.7,16.5c0.5,2.7,10.1,7.2,17.8,8.5c7.4,1.2,12.6-0.1,13.4-3.2c1.1-4.2-1.4-4.9-22.7-6.5C4169.9,14.6,4169.4,14.7,4169.7,16.5
			z"/>
	</g>
</g>
<line class="st22" x1="925" y1="0" x2="925" y2="820"/>
<line class="st22" x1="1850.1" y1="0" x2="1850.1" y2="820"/>
<line class="st22" x1="2775.2" y1="0" x2="2775.2" y2="820"/>
<line class="st22" x1="3699.7" y1="0" x2="3699.7" y2="818.8"/>
</svg>
