<?xml version="1.0" standalone="no"?><!DOCTYPE svg PUBLIC "-//W3C//DTD SVG 20010904//EN" "http://www.w3.org/TR/2001/REC-SVG-20010904/DTD/svg10.dtd"><svg version="1.0" xmlns="http://www.w3.org/2000/svg" width="718pt" height="766pt" viewBox="0 0 718 766" preserveAspectRatio="xMidYMid meet"><defs><linearGradient id="linear-gradient-1-1" x1="0.00%" y1="100.00%" x2="14.35%" y2="-11.07%"><stop offset="0%" style="stop-color:rgb(255,221,188);stop-opacity:0.990" /><stop offset="100%" style="stop-color:rgb(254,218,186);stop-opacity:0.990" /></linearGradient><linearGradient id="linear-gradient-2-1" x1="0.00%" y1="100.00%" x2="29.56%" y2="-48.87%"><stop offset="0%" style="stop-color:rgb(139,19,0);stop-opacity:0.368" /><stop offset="100%" style="stop-color:rgb(190,110,66);stop-opacity:0.912" /></linearGradient><linearGradient id="linear-gradient-2-2" x1="0.00%" y1="100.00%" x2="14.15%" y2="-15.25%"><stop offset="0%" style="stop-color:rgb(103,31,0);stop-opacity:0.573" /><stop offset="100%" style="stop-color:rgb(200,83,53);stop-opacity:0.832" /></linearGradient><linearGradient id="linear-gradient-2-3" x1="0.00%" y1="100.00%" x2="0.00%" y2="-0.00%"><stop offset="0%" style="stop-color:rgb(154,48,2);stop-opacity:0.410" /><stop offset="100%" style="stop-color:rgb(149,40,0);stop-opacity:0.638" /></linearGradient><linearGradient id="linear-gradient-2-4" x1="0.00%" y1="100.00%" x2="114.31%" y2="84.51%"><stop offset="0%" style="stop-color:rgb(164,32,0);stop-opacity:0.496" /><stop offset="100%" style="stop-color:rgb(170,92,44);stop-opacity:0.763" /></linearGradient><linearGradient id="linear-gradient-2-5" x1="0.00%" y1="100.00%" x2="97.23%" y2="-9.27%"><stop offset="0%" style="stop-color:rgb(125,13,0);stop-opacity:0.516" /><stop offset="100%" style="stop-color:rgb(209,132,89);stop-opacity:0.837" /></linearGradient><linearGradient id="linear-gradient-3-1" x1="0.00%" y1="100.00%" x2="64.02%" y2="-21.99%"><stop offset="0%" style="stop-color:rgb(224,141,93);stop-opacity:0.829" /><stop offset="100%" style="stop-color:rgb(255,181,133);stop-opacity:0.729" /></linearGradient><linearGradient id="linear-gradient-3-2" x1="0.00%" y1="100.00%" x2="35.72%" y2="-21.93%"><stop offset="0%" style="stop-color:rgb(231,149,104);stop-opacity:0.810" /><stop offset="100%" style="stop-color:rgb(255,180,131);stop-opacity:0.755" /></linearGradient><linearGradient id="linear-gradient-3-3" x1="0.00%" y1="100.00%" x2="0.00%" y2="0.00%"><stop offset="0%" style="stop-color:rgb(87,69,54);stop-opacity:0.746" /><stop offset="100%" style="stop-color:rgb(70,52,38);stop-opacity:0.811" /></linearGradient><linearGradient id="linear-gradient-3-4" x1="0.00%" y1="100.00%" x2="0.00%" y2="0.00%"><stop offset="0%" style="stop-color:rgb(0,25,28);stop-opacity:0.420" /><stop offset="100%" style="stop-color:rgb(7,25,22);stop-opacity:0.485" /></linearGradient><linearGradient id="linear-gradient-3-5" x1="0.00%" y1="100.00%" x2="14.08%" y2="-20.14%"><stop offset="0%" style="stop-color:rgb(245,159,114);stop-opacity:0.803" /><stop offset="100%" style="stop-color:rgb(255,178,129);stop-opacity:0.789" /></linearGradient><linearGradient id="linear-gradient-3-6" x1="0.00%" y1="0.00%" x2="106.14%" y2="40.64%"><stop offset="0%" style="stop-color:rgb(250,113,101);stop-opacity:0.866" /><stop offset="100%" style="stop-color:rgb(255,0,15);stop-opacity:0.355" /></linearGradient><linearGradient id="linear-gradient-3-7" x1="0.00%" y1="100.00%" x2="0.00%" y2="-0.00%"><stop offset="0%" style="stop-color:rgb(168,44,76);stop-opacity:0.771" /><stop offset="100%" style="stop-color:rgb(161,34,86);stop-opacity:0.810" /></linearGradient><linearGradient id="linear-gradient-3-8" x1="0.00%" y1="100.00%" x2="83.36%" y2="-9.32%"><stop offset="0%" style="stop-color:rgb(86,52,33);stop-opacity:0.191" /><stop offset="100%" style="stop-color:rgb(163,97,68);stop-opacity:0.495" /></linearGradient><linearGradient id="linear-gradient-3-9" x1="0.00%" y1="100.00%" x2="0.00%" y2="0.00%"><stop offset="0%" style="stop-color:rgb(250,155,112);stop-opacity:0.796" /><stop offset="100%" style="stop-color:rgb(255,179,127);stop-opacity:0.706" /></linearGradient><linearGradient id="linear-gradient-3-10" x1="0.00%" y1="0.00%" x2="126.24%" y2="11.49%"><stop offset="0%" style="stop-color:rgb(239,213,183);stop-opacity:0.720" /><stop offset="100%" style="stop-color:rgb(255,244,213);stop-opacity:0.840" /></linearGradient><linearGradient id="linear-gradient-3-11" x1="0.00%" y1="100.00%" x2="0.00%" y2="0.00%"><stop offset="0%" style="stop-color:rgb(255,225,198);stop-opacity:0.811" /><stop offset="100%" style="stop-color:rgb(255,240,203);stop-opacity:0.798" /></linearGradient><linearGradient id="linear-gradient-3-12" x1="0.00%" y1="100.00%" x2="98.66%" y2="-0.74%"><stop offset="0%" style="stop-color:rgb(75,17,0);stop-opacity:0.000" /><stop offset="100%" style="stop-color:rgb(57,14,0);stop-opacity:0.293" /></linearGradient><linearGradient id="linear-gradient-3-13" x1="0.00%" y1="100.00%" x2="117.86%" y2="14.84%"><stop offset="0%" style="stop-color:rgb(69,47,0);stop-opacity:0.000" /><stop offset="100%" style="stop-color:rgb(64,46,24);stop-opacity:0.206" /></linearGradient><linearGradient id="linear-gradient-3-14" x1="0.00%" y1="100.00%" x2="68.34%" y2="-16.61%"><stop offset="0%" style="stop-color:rgb(219,139,93);stop-opacity:0.756" /><stop offset="100%" style="stop-color:rgb(232,147,101);stop-opacity:0.766" /></linearGradient><linearGradient id="linear-gradient-3-15" x1="0.00%" y1="100.00%" x2="62.52%" y2="-17.80%"><stop offset="0%" style="stop-color:rgb(210,127,80);stop-opacity:0.595" /><stop offset="100%" style="stop-color:rgb(226,138,95);stop-opacity:0.605" /></linearGradient><linearGradient id="linear-gradient-4-1" x1="0.00%" y1="100.00%" x2="113.40%" y2="73.69%"><stop offset="0%" style="stop-color:rgb(118,84,61);stop-opacity:0.787" /><stop offset="100%" style="stop-color:rgb(126,90,67);stop-opacity:0.803" /></linearGradient><linearGradient id="linear-gradient-4-2" x1="0.00%" y1="0.00%" x2="114.24%" y2="29.42%"><stop offset="0%" style="stop-color:rgb(117,87,64);stop-opacity:0.788" /><stop offset="100%" style="stop-color:rgb(124,92,66);stop-opacity:0.805" /></linearGradient><linearGradient id="linear-gradient-4-3" x1="0.00%" y1="100.00%" x2="0.00%" y2="0.00%"><stop offset="0%" style="stop-color:rgb(8,21,17);stop-opacity:0.436" /><stop offset="100%" style="stop-color:rgb(0,12,7);stop-opacity:0.473" /></linearGradient><linearGradient id="linear-gradient-4-4" x1="0.00%" y1="100.00%" x2="112.57%" y2="67.27%"><stop offset="0%" style="stop-color:rgb(87,64,47);stop-opacity:0.690" /><stop offset="100%" style="stop-color:rgb(53,30,16);stop-opacity:0.824" /></linearGradient><linearGradient id="linear-gradient-4-5" x1="0.00%" y1="100.00%" x2="0.00%" y2="0.00%"><stop offset="0%" style="stop-color:rgb(158,52,75);stop-opacity:0.709" /><stop offset="100%" style="stop-color:rgb(150,44,98);stop-opacity:0.814" /></linearGradient><linearGradient id="linear-gradient-4-6" x1="0.00%" y1="100.00%" x2="0.00%" y2="-0.00%"><stop offset="0%" style="stop-color:rgb(124,156,94);stop-opacity:0.444" /><stop offset="100%" style="stop-color:rgb(113,157,82);stop-opacity:0.490" /></linearGradient><linearGradient id="linear-gradient-4-7" x1="0.00%" y1="100.00%" x2="0.00%" y2="0.00%"><stop offset="0%" style="stop-color:rgb(116,64,31);stop-opacity:0.127" /><stop offset="100%" style="stop-color:rgb(175,123,89);stop-opacity:0.357" /></linearGradient><linearGradient id="linear-gradient-4-8" x1="0.00%" y1="100.00%" x2="81.19%" y2="-12.13%"><stop offset="0%" style="stop-color:rgb(235,156,110);stop-opacity:0.752" /><stop offset="100%" style="stop-color:rgb(251,169,123);stop-opacity:0.791" /></linearGradient><linearGradient id="linear-gradient-4-9" x1="0.00%" y1="100.00%" x2="38.78%" y2="-17.93%"><stop offset="0%" style="stop-color:rgb(233,154,109);stop-opacity:0.760" /><stop offset="100%" style="stop-color:rgb(252,170,123);stop-opacity:0.803" /></linearGradient></defs><g id="layer-1"><path d="M0 3830 l0 -3830 3590 0 3590 0 0 3830 0 3830 -3590 0 -3590 0 0 -3830z" fill="url(#linear-gradient-1-1)" id="region-1-1" transform="translate(0.000000,766.000000) scale(0.100000,-0.100000)"/></g><g id="layer-2"><path d="M1995 7240 c-271 -58 -629 -404 -710 -684 -13 -43 -16 -84 -13 -150 5 -121 43 -201 143 -302 118 -119 248 -182 422 -205 l91 -11 -23 -52 c-66 -149 -123 -387 -132 -553 l-6 -102 49 16 c32 10 103 17 200 20 206 7 343 -16 638 -108 70 -22 129 -39 130 -37 2 2 17 23 34 48 38 56 142 157 205 200 139 93 295 140 487 147 157 6 247 -5 375 -48 249 -83 436 -264 501 -484 18 -63 25 -217 11 -267 l-7 -28 58 0 c189 0 420 58 612 155 73 37 231 140 269 176 l24 22 -6 186 c-7 247 -42 427 -121 622 l-34 84 57 8 c162 22 278 68 388 151 173 131 246 315 198 501 -36 135 -106 246 -255 398 -216 223 -402 319 -585 303 -225 -20 -449 -264 -491 -531 l-6 -41 -131 66 c-153 77 -305 129 -467 162 -100 20 -144 23 -340 23 -169 0 -247 -4 -315 -17 -188 -36 -400 -110 -545 -192 l-78 -44 -17 77 c-45 208 -202 407 -372 471 -64 24 -176 34 -238 20z" fill="url(#linear-gradient-2-1)" id="region-2-1" transform="translate(0.000000,766.000000) scale(0.100000,-0.100000)"/><path d="M3400 5463 c-128 -21 -282 -80 -377 -143 -63 -43 -167 -144 -205 -200 -17 -25 -32 -46 -34 -48 -1 -2 -60 15 -130 37 -295 92 -432 115 -638 108 -87 -3 -170 -11 -196 -19 l-45 -14 -3 -94 c-9 -302 112 -643 315 -885 l49 -58 -51 -51 c-62 -62 -85 -121 -85 -220 0 -84 28 -153 83 -208 92 -93 438 -252 720 -333 265 -76 485 -107 762 -107 266 -1 444 22 692 88 l133 36 27 -33 c43 -51 76 -98 122 -175 l42 -72 -20 -125 c-23 -137 -82 -378 -130 -528 -17 -53 -31 -101 -31 -107 0 -5 43 -18 95 -27 141 -26 351 -17 460 18 171 56 306 170 389 330 35 67 36 71 36 185 -1 439 -163 812 -448 1033 l-33 25 62 39 c34 21 76 51 95 67 32 28 33 31 19 57 -7 15 -32 44 -55 65 -46 41 -47 36 25 121 115 137 207 320 255 511 28 110 48 234 37 234 -3 0 -41 -25 -83 -55 -240 -173 -541 -275 -806 -275 l-58 0 7 28 c14 50 7 204 -11 267 -48 161 -182 326 -336 412 -86 48 -225 97 -320 112 -62 10 -278 13 -330 4z" fill="url(#linear-gradient-2-2)" id="region-2-2" transform="translate(0.000000,766.000000) scale(0.100000,-0.100000)"/><path d="M1905 4005 c-584 -136 -1007 -439 -1209 -866 -109 -229 -141 -477 -91 -698 l16 -66 57 -27 c82 -39 177 -61 231 -54 108 15 221 99 307 228 65 98 138 259 249 548 54 140 115 289 135 330 74 147 197 286 329 370 l70 45 0 66 c1 37 8 85 16 108 17 48 24 47 -110 16z" fill="url(#linear-gradient-2-3)" id="region-2-3" transform="translate(0.000000,766.000000) scale(0.100000,-0.100000)"/><path d="M5084 4022 c8 -13 -45 -59 -123 -107 l-62 -39 33 -25 c158 -122 276 -286 356 -497 21 -54 63 -142 95 -195 79 -131 134 -260 221 -517 117 -346 205 -501 318 -558 48 -24 48 -24 135 -9 49 9 120 15 159 13 65 -2 76 1 115 27 177 123 261 439 199 746 -50 244 -157 444 -340 633 -181 187 -363 305 -637 412 -165 65 -487 144 -469 116z" fill="url(#linear-gradient-2-4)" id="region-2-4" transform="translate(0.000000,766.000000) scale(0.100000,-0.100000)"/><path d="M1914 3761 c-133 -93 -243 -219 -314 -361 -20 -41 -81 -190 -135 -330 -111 -289 -184 -450 -249 -548 -86 -129 -199 -213 -307 -228 -53 -7 -151 15 -224 51 -27 13 -51 22 -54 19 -3 -2 9 -34 27 -70 35 -70 94 -140 156 -186 36 -25 37 -28 15 -28 -40 0 -182 -54 -230 -87 -24 -17 -62 -49 -84 -72 -22 -22 -45 -41 -51 -41 -17 0 -80 -125 -100 -200 -16 -54 -18 -100 -18 -280 1 -118 7 -244 14 -280 15 -81 60 -221 70 -215 4 2 18 -19 31 -48 60 -129 178 -276 291 -364 33 -25 69 -55 81 -67 25 -24 158 -83 209 -92 18 -3 69 -14 113 -24 170 -40 342 -35 575 16 311 69 741 253 1136 487 l141 84 69 -10 c97 -15 849 -15 948 0 l80 12 135 -81 c296 -177 622 -329 906 -423 193 -65 318 -92 490 -107 134 -11 157 -9 390 32 87 16 212 70 297 129 72 49 140 111 123 111 -4 0 14 24 42 53 67 71 128 163 176 266 22 47 44 88 48 92 5 3 18 41 30 85 18 66 23 115 26 299 5 255 -4 320 -63 443 -104 217 -359 327 -642 278 l-92 -16 -48 24 c-113 57 -201 212 -318 558 -87 255 -142 386 -219 515 -31 51 -58 93 -60 93 -2 0 3 -24 11 -52 24 -92 44 -265 44 -383 0 -111 -1 -115 -36 -182 -83 -160 -218 -274 -389 -330 -109 -35 -319 -44 -460 -18 -52 9 -95 22 -95 27 0 6 14 54 31 107 48 150 107 391 130 528 l20 125 -42 72 c-46 77 -79 124 -122 175 l-27 33 -133 -36 c-248 -66 -426 -89 -692 -88 -277 0 -497 31 -762 107 -282 81 -628 240 -720 333 -20 19 -47 59 -60 89 -13 29 -28 53 -32 53 -4 0 -39 -22 -77 -49z" fill="url(#linear-gradient-2-5)" id="region-2-5" transform="translate(0.000000,766.000000) scale(0.100000,-0.100000)"/></g><g id="layer-3"><path d="M1928 6961 c-120 -47 -292 -211 -354 -337 -45 -90 -54 -168 -29 -243 25 -77 108 -161 203 -208 75 -37 78 -38 192 -38 114 0 117 1 193 38 272 135 339 479 136 701 -69 76 -133 106 -223 106 -44 -1 -89 -8 -118 -19z" fill="url(#linear-gradient-3-1)" id="region-3-1" transform="translate(0.000000,766.000000) scale(0.100000,-0.100000)"/><path d="M4953 6955 c-138 -64 -234 -244 -220 -415 10 -133 69 -241 176 -322 86 -66 173 -92 289 -86 139 8 251 65 329 166 97 128 74 282 -68 451 -72 85 -167 161 -250 201 -85 40 -178 42 -256 5z" fill="url(#linear-gradient-3-2)" id="region-3-2" transform="translate(0.000000,766.000000) scale(0.100000,-0.100000)"/><path d="M2697 5756 c-186 -51 -234 -305 -79 -423 183 -140 444 37 379 257 -39 131 -168 203 -300 166z" fill="url(#linear-gradient-3-3)" id="region-3-3" transform="translate(0.000000,766.000000) scale(0.100000,-0.100000)"/><path d="M4272 5752 c-201 -72 -217 -345 -27 -445 84 -44 215 -20 283 51 84 90 83 250 -4 336 -68 67 -164 89 -252 58z" fill="url(#linear-gradient-3-4)" id="region-3-4" transform="translate(0.000000,766.000000) scale(0.100000,-0.100000)"/><path d="M3400 5463 c-134 -22 -282 -80 -386 -150 -81 -55 -192 -175 -232 -250 -118 -222 -89 -477 73 -638 174 -174 512 -263 856 -226 397 43 647 224 690 500 28 188 -37 368 -191 521 -126 126 -293 209 -480 239 -62 10 -278 13 -330 4z" fill="url(#linear-gradient-3-5)" id="region-3-5" transform="translate(0.000000,766.000000) scale(0.100000,-0.100000)"/><path d="M2080 4092 c-58 -60 -80 -121 -80 -216 0 -84 28 -153 83 -208 92 -93 438 -252 720 -333 265 -76 485 -107 762 -107 266 -1 444 22 692 88 l133 36 27 -33 c43 -51 76 -98 122 -175 l42 -72 -20 -125 c-23 -137 -82 -378 -130 -528 -17 -53 -31 -101 -31 -107 0 -5 43 -18 95 -27 141 -26 351 -17 460 18 171 56 306 170 389 330 35 67 36 71 36 185 -1 439 -163 812 -448 1033 l-33 25 62 39 c34 21 76 51 95 67 32 28 33 31 19 57 -7 15 -32 44 -55 65 l-41 37 -82 -72 c-275 -239 -625 -381 -1055 -430 -159 -18 -557 -7 -707 20 -391 68 -693 207 -938 431 -30 27 -58 50 -63 50 -4 0 -29 -22 -54 -48z" fill="url(#linear-gradient-3-6)" id="region-3-6" transform="translate(0.000000,766.000000) scale(0.100000,-0.100000)"/><path d="M5064 3989 c-10 -11 -51 -41 -91 -66 l-74 -47 33 -25 c18 -14 58 -49 89 -79 l57 -53 16 43 c25 60 30 128 16 187 -14 61 -21 67 -46 40z" fill="url(#linear-gradient-3-7)" id="region-3-7" transform="translate(0.000000,766.000000) scale(0.100000,-0.100000)"/><path d="M5097 3773 c-9 -30 -14 -59 -11 -65 4 -6 28 -38 53 -72 59 -78 103 -162 150 -284 20 -53 62 -140 94 -193 79 -131 134 -260 221 -517 117 -346 205 -501 318 -558 48 -24 48 -24 135 -9 49 9 120 15 159 13 65 -2 76 1 115 27 52 37 114 113 145 180 35 74 32 78 -39 45 -242 -114 -424 -18 -591 309 -50 98 -84 181 -239 581 -64 164 -120 264 -202 363 -56 68 -181 173 -252 213 l-38 22 -18 -55z" fill="url(#linear-gradient-3-8)" id="region-3-8" transform="translate(0.000000,766.000000) scale(0.100000,-0.100000)"/><path d="M2692 3313 c-231 -297 -346 -703 -303 -1070 43 -367 208 -576 541 -687 207 -69 499 -97 791 -77 408 27 668 128 820 317 21 27 50 61 64 76 50 54 103 204 120 341 l7 57 -78 0 c-91 0 -254 27 -254 43 0 5 14 53 31 106 48 150 107 391 130 528 l20 125 -42 72 c-46 77 -79 124 -122 175 l-27 33 -133 -36 c-248 -66 -426 -89 -692 -88 -263 0 -535 38 -745 102 -87 27 -94 26 -128 -17z" fill="url(#linear-gradient-3-9)" id="region-3-9" transform="translate(0.000000,766.000000) scale(0.100000,-0.100000)"/><path d="M1776 3203 c-88 -137 -167 -317 -251 -573 -51 -154 -211 -465 -265 -514 -22 -20 -51 -38 -65 -42 -14 -3 -25 -9 -25 -13 0 -3 33 -19 73 -36 39 -16 75 -31 79 -33 5 -2 8 10 8 26 0 65 51 230 104 337 54 110 134 209 209 261 25 17 29 29 43 124 19 126 71 334 112 448 17 45 29 82 26 82 -2 0 -24 -30 -48 -67z" fill="url(#linear-gradient-3-10)" id="region-3-10" transform="translate(0.000000,766.000000) scale(0.100000,-0.100000)"/><path d="M5342 3163 c10 -49 30 -135 43 -193 31 -137 55 -265 55 -299 0 -20 7 -31 24 -39 13 -6 54 -39 91 -74 61 -57 74 -77 142 -216 59 -120 79 -174 95 -250 10 -53 20 -97 21 -97 1 -1 38 13 81 31 l79 32 -49 25 c-115 58 -202 211 -320 559 -87 255 -142 386 -219 515 -31 51 -57 93 -59 93 -2 0 6 -39 16 -87z" fill="url(#linear-gradient-3-11)" id="region-3-11" transform="translate(0.000000,766.000000) scale(0.100000,-0.100000)"/><path d="M5454 2359 c0 -251 -16 -401 -49 -473 -7 -17 -25 -66 -39 -109 -103 -311 -301 -538 -601 -689 -123 -62 -322 -128 -475 -158 -63 -12 -130 -25 -148 -28 -33 -7 -30 -9 105 -88 76 -45 191 -109 255 -143 l117 -62 48 27 c74 42 169 111 236 171 249 222 458 592 536 948 12 55 26 108 32 117 11 22 26 127 34 243 7 108 -9 311 -33 414 l-17 74 -1 -244z" fill="url(#linear-gradient-3-12)" id="region-3-12" transform="translate(0.000000,766.000000) scale(0.100000,-0.100000)"/><path d="M1643 2414 c-27 -193 -8 -519 42 -708 81 -309 241 -605 444 -819 91 -95 221 -198 311 -246 l56 -30 123 65 c68 35 182 99 254 141 l130 77 -129 23 c-465 85 -771 251 -976 530 -82 112 -181 330 -193 429 -3 18 -12 73 -21 121 -9 51 -19 176 -23 298 l-6 210 -12 -91z" fill="url(#linear-gradient-3-13)" id="region-3-13" transform="translate(0.000000,766.000000) scale(0.100000,-0.100000)"/><path d="M755 1888 c-178 -33 -333 -202 -381 -414 -23 -105 -15 -327 16 -434 27 -94 94 -238 150 -321 55 -81 187 -213 265 -264 229 -150 505 -172 689 -54 266 168 338 585 166 955 -125 270 -360 481 -588 529 -79 16 -236 18 -317 3z" fill="url(#linear-gradient-3-14)" id="region-3-14" transform="translate(0.000000,766.000000) scale(0.100000,-0.100000)"/><path d="M6090 1890 c-14 -4 -41 -8 -60 -9 -44 -1 -165 -58 -245 -116 -76 -55 -189 -171 -244 -254 -60 -89 -125 -230 -152 -331 -19 -71 -23 -110 -23 -240 0 -144 2 -161 27 -235 38 -108 80 -176 152 -244 95 -88 227 -140 358 -141 63 0 189 26 252 53 199 84 390 267 494 475 102 204 135 452 86 647 -24 94 -82 200 -145 264 -69 70 -130 107 -212 126 -67 16 -245 19 -288 5z" fill="url(#linear-gradient-3-15)" id="region-3-15" transform="translate(0.000000,766.000000) scale(0.100000,-0.100000)"/></g><g id="layer-4"><path d="M2772 5688 c-29 -29 -2 -102 48 -132 33 -19 81 -21 98 -4 44 44 -24 148 -96 148 -21 0 -43 -5 -50 -12z" fill="url(#linear-gradient-4-1)" id="region-4-1" transform="translate(0.000000,766.000000) scale(0.100000,-0.100000)"/><path d="M4363 5693 c-18 -7 -16 -74 3 -101 35 -50 124 -70 144 -31 28 51 -39 140 -103 138 -18 0 -38 -3 -44 -6z" fill="url(#linear-gradient-4-2)" id="region-4-2" transform="translate(0.000000,766.000000) scale(0.100000,-0.100000)"/><path d="M3463 5340 c-109 -23 -174 -73 -176 -135 -1 -30 5 -43 31 -66 46 -41 101 -54 237 -54 137 0 202 14 245 55 65 61 20 151 -93 185 -65 19 -188 27 -244 15z" fill="url(#linear-gradient-4-3)" id="region-4-3" transform="translate(0.000000,766.000000) scale(0.100000,-0.100000)"/><path d="M3244 5226 c-40 -39 -44 -48 -44 -91 0 -41 5 -52 35 -80 42 -41 103 -62 217 -76 l88 -12 0 -120 c0 -145 -12 -172 -95 -212 -43 -22 -62 -26 -94 -20 -52 9 -98 40 -136 92 -33 46 -34 47 -55 33 -18 -11 -1 -45 49 -96 54 -54 87 -68 161 -68 72 0 133 25 168 68 l19 25 24 -25 c54 -58 149 -85 224 -64 78 22 189 139 153 161 -20 13 -22 12 -41 -20 -46 -79 -138 -123 -212 -101 -104 31 -125 70 -125 228 l0 120 58 6 c224 25 324 106 267 216 -14 27 -73 80 -89 80 -4 0 -2 -9 4 -19 32 -62 -9 -126 -97 -152 -61 -18 -272 -18 -331 -1 -65 20 -106 61 -105 106 1 20 7 43 13 51 10 12 10 15 0 15 -7 0 -32 -20 -56 -44z" fill="url(#linear-gradient-4-4)" id="region-4-4" transform="translate(0.000000,766.000000) scale(0.100000,-0.100000)"/><path d="M2011 3979 c-6 -18 -11 -64 -11 -103 0 -131 53 -206 207 -295 227 -129 538 -244 817 -301 322 -66 696 -71 1016 -14 189 34 517 134 527 162 9 22 -34 145 -66 190 l-30 40 -128 -43 c-134 -45 -299 -85 -443 -107 -134 -20 -547 -17 -690 5 -256 41 -540 129 -775 242 -140 68 -320 176 -365 220 -20 19 -39 35 -42 35 -3 0 -11 -14 -17 -31z" fill="url(#linear-gradient-4-5)" id="region-4-5" transform="translate(0.000000,766.000000) scale(0.100000,-0.100000)"/><path d="M4476 3386 l-88 -33 29 -34 c37 -43 82 -108 126 -182 l34 -58 7 47 c11 86 2 295 -13 293 -3 0 -46 -15 -95 -33z" fill="url(#linear-gradient-4-6)" id="region-4-6" transform="translate(0.000000,766.000000) scale(0.100000,-0.100000)"/><path d="M1914 3761 c-133 -93 -243 -219 -314 -361 -20 -41 -81 -190 -135 -330 -111 -289 -184 -450 -249 -548 -86 -129 -199 -213 -307 -228 -53 -7 -151 15 -224 51 -27 13 -51 22 -54 19 -11 -11 63 -139 106 -186 81 -86 87 -88 220 -93 65 -2 135 -8 156 -15 49 -15 96 0 148 47 53 48 214 361 264 513 55 166 116 323 165 420 36 71 62 114 142 234 4 6 30 61 58 121 l51 110 94 -6 c190 -14 334 -64 833 -285 581 -258 836 -339 1142 -359 162 -11 369 22 499 81 58 26 58 26 64 77 6 48 3 57 -35 122 -45 76 -78 123 -121 174 l-27 33 -133 -36 c-248 -66 -426 -89 -692 -88 -277 0 -497 31 -762 107 -282 81 -628 240 -720 333 -20 19 -47 59 -60 89 -13 29 -28 53 -32 53 -4 0 -39 -22 -77 -49z" fill="url(#linear-gradient-4-7)" id="region-4-7" transform="translate(0.000000,766.000000) scale(0.100000,-0.100000)"/><path d="M785 1576 c-230 -72 -310 -387 -169 -672 99 -201 288 -335 474 -338 110 -1 170 23 246 98 76 76 104 143 111 267 21 333 -251 660 -547 658 -41 0 -93 -6 -115 -13z" fill="url(#linear-gradient-4-8)" id="region-4-8" transform="translate(0.000000,766.000000) scale(0.100000,-0.100000)"/><path d="M6095 1576 c-170 -54 -320 -204 -390 -389 -53 -143 -54 -307 -1 -423 67 -146 221 -224 381 -195 297 54 533 412 475 722 -24 130 -108 238 -216 279 -63 23 -185 26 -249 6z" fill="url(#linear-gradient-4-9)" id="region-4-9" transform="translate(0.000000,766.000000) scale(0.100000,-0.100000)"/></g></svg>