<?xml version="1.0" encoding="utf-8"?>
<!-- Generator: Adobe Illustrator 26.2.1, SVG Export Plug-In . SVG Version: 6.00 Build 0)  -->
<svg version="1.1" xmlns="http://www.w3.org/2000/svg" xmlns:xlink="http://www.w3.org/1999/xlink" x="0px" y="0px"
	 viewBox="0 0 3590 766" style="enable-background:new 0 0 3590 766;" xml:space="preserve">
<style type="text/css">
	.st0{fill:none;}
	.st1{fill:#D3D3D3;}
	.st2{fill:url(#SVGID_1_);}
	.st3{fill:url(#region-1-1_00000109732240743678846990000010295770303301023897_);}
	.st4{fill:url(#region-2-1_00000151539557331716129940000010541367529996491447_);}
	.st5{fill:url(#region-2-2_00000060028342637371377070000016793050837300990891_);}
	.st6{fill:url(#region-2-3_00000013174258851515946510000017240346405703868554_);}
	.st7{fill:url(#region-2-4_00000145738700633024075210000007088862735815567522_);}
	.st8{fill:url(#region-2-5_00000001661787738238728140000008380217723291063430_);}
	.st9{fill:url(#region-3-1_00000124871745853735564730000002121052386519032464_);}
	.st10{fill:url(#region-3-2_00000168105775534915951430000000873702318217929397_);}
	.st11{fill:url(#region-3-3_00000031921299484262109880000010311070616714960533_);}
	.st12{fill:url(#region-3-4_00000176756545052991515330000006906613074320868250_);}
	.st13{fill:url(#region-3-5_00000150820192331224037250000005920797248661499525_);}
	.st14{fill:url(#region-3-6_00000111912370112227540390000013594659600880266901_);}
	.st15{fill:url(#region-3-7_00000149363799318535235980000016646456422337101220_);}
	.st16{fill:url(#region-3-8_00000018212219040806976240000000463688390247300225_);}
	.st17{fill:url(#region-3-9_00000093895129406333897870000009871766691923782051_);}
	.st18{fill:url(#region-3-10_00000066512390116700015230000002371837079967574417_);}
	.st19{fill:url(#region-3-11_00000133512231326430252540000015966321788788693435_);}
	.st20{fill:url(#region-3-12_00000142887271535885129700000011973567157197808552_);}
	.st21{fill:url(#region-3-13_00000116948915155948186030000007189839594936477611_);}
	.st22{fill:url(#region-3-14_00000021802213145138669780000011000940591638314675_);}
	.st23{fill:url(#region-3-15_00000181800936485740048530000001000103007440678020_);}
	.st24{fill:url(#region-4-1_00000020386777543923549490000013398802207361122988_);}
	.st25{fill:url(#region-4-2_00000082352978510003721490000000889711236746792879_);}
	.st26{fill:url(#region-4-3_00000079464926080231714280000003335036439117531576_);}
	.st27{fill:url(#region-4-4_00000097490727807747910490000003466549223058810027_);}
	.st28{fill:url(#region-4-5_00000180331629491707274550000017566964649017473209_);}
	.st29{fill:url(#region-4-6_00000046301551485591615610000003588689150561300922_);}
	.st30{fill:url(#region-4-7_00000006697109586131282420000009702871520402487999_);}
	.st31{fill:url(#region-4-8_00000114783512244546313600000006201694976176391066_);}
	.st32{fill:url(#region-4-9_00000171716536886121120220000006407687990812093098_);}
	.st33{fill:url(#region-1-1_00000085215699325020094040000017142712751968725935_);}
	.st34{fill:url(#region-2-1_00000072980485282229448550000015068236463691934874_);}
	.st35{fill:url(#region-2-2_00000007429731914170744160000010794947082191017387_);}
	.st36{fill:url(#region-2-3_00000137826451617447349540000012726034552749674929_);}
	.st37{fill:url(#region-2-4_00000069364283037512541840000004648190030922756489_);}
	.st38{fill:url(#region-2-5_00000077314794762490670440000016954803990480777865_);}
	.st39{fill:url(#region-3-1_00000123401958164499745650000000171257012673000323_);}
	.st40{fill:url(#region-3-2_00000180365291407920298150000002923897000404099982_);}
	.st41{fill:url(#region-3-3_00000098938570493137142530000015802163903159233927_);}
	.st42{fill:url(#region-3-4_00000112628725368747021330000002223805149090123906_);}
	.st43{fill:url(#region-3-5_00000128482257034095897500000003836809904337010076_);}
	.st44{fill:url(#region-3-6_00000158725087370790384960000012671456715984393395_);}
	
		.st45{fill:url(#region-3-7_00000172408018382041596840000006017045483167275140_);stroke:#000000;stroke-width:2;stroke-miterlimit:10;}
	
		.st46{fill:url(#region-3-8_00000148656784824042503220000004674125824771276691_);stroke:#000000;stroke-width:2;stroke-miterlimit:10;}
	.st47{fill:url(#region-3-9_00000138545046108857612500000010522567225447730322_);}
	
		.st48{fill:url(#region-3-10_00000039118707413435769700000001825752736959493035_);stroke:#000000;stroke-width:2;stroke-miterlimit:10;}
	
		.st49{fill:url(#region-3-11_00000077319299009745524800000003547103265308593574_);stroke:#000000;stroke-width:2;stroke-miterlimit:10;}
	
		.st50{fill:url(#region-3-12_00000047026409848287660920000012951947244105776791_);stroke:#000000;stroke-width:2;stroke-miterlimit:10;}
	
		.st51{fill:url(#region-3-13_00000075135374248285560220000015520736739081834390_);stroke:#000000;stroke-width:2;stroke-miterlimit:10;}
	.st52{fill:url(#region-3-14_00000127738115251248968460000012059102774245656744_);}
	.st53{fill:url(#region-3-15_00000111166983156964933130000000962708790593891762_);}
	.st54{fill:url(#region-4-1_00000182530617223875497060000001719900605476713875_);}
	.st55{fill:url(#region-4-2_00000178891155639572075520000018331549656032383909_);}
	
		.st56{fill:url(#region-4-3_00000156573714670252353610000011019264816232116105_);stroke:#000000;stroke-width:2;stroke-miterlimit:10;}
	.st57{fill:url(#region-4-4_00000015322211326339235800000015195810244509508493_);}
	.st58{fill:url(#region-4-5_00000176725435078535822010000000586228962094796456_);}
	.st59{fill:url(#region-4-6_00000041295511641746839740000016216819053844977082_);}
	
		.st60{fill:url(#region-4-7_00000023278532226260618430000012151779310427607955_);stroke:#000000;stroke-width:2;stroke-miterlimit:10;}
	.st61{fill:url(#region-4-8_00000138547746891638293700000016974034979038464389_);}
	.st62{fill:url(#region-4-9_00000105386690455523600280000000600887424108986558_);}
	.st63{fill:none;stroke:#000000;stroke-width:3;stroke-miterlimit:10;}
</style>
<pattern  x="1436" y="766" width="40" height="40" patternUnits="userSpaceOnUse" id="a2ed1d96-aebd-4bf9-a4b3-645f1ac" viewBox="0 -40 40 40" style="overflow:visible;">
	<g>
		<rect y="-40" class="st0" width="40" height="40"/>
		<rect y="-40" class="st0" width="40" height="40"/>
		<rect y="-40" class="st1" width="20" height="20"/>
		<rect x="20" y="-20" class="st1" width="20" height="20"/>
	</g>
</pattern>
<g id="图层_3">
	<pattern  id="SVGID_1_" xlink:href="#a2ed1d96-aebd-4bf9-a4b3-645f1ac" patternTransform="matrix(1 0 0 1 -19 497.24)">
	</pattern>
	<rect class="st2" width="3590" height="766"/>
</g>
<g id="图层_1">
	<g id="layer-1">
		
			<linearGradient id="region-1-1_00000083068290675550608970000015649184471406319763_" gradientUnits="userSpaceOnUse" x1="835.2639" y1="923.1483" x2="835.4074" y2="924.259" gradientTransform="matrix(718 0 0 766 -599412 -707174)">
			<stop  offset="0" style="stop-color:#FFDDBC;stop-opacity:0.99"/>
			<stop  offset="1" style="stop-color:#FEDABA;stop-opacity:0.99"/>
		</linearGradient>
		<path id="region-1-1" style="fill:url(#region-1-1_00000083068290675550608970000015649184471406319763_);" d="M0,383v383h359h359
			V383V0H359H0V383z"/>
	</g>
	<g id="layer-2">
		
			<linearGradient id="region-2-1_00000168801722899739386270000011120557178921002172_" gradientUnits="userSpaceOnUse" x1="834.5951" y1="923.5146" x2="834.8907" y2="925.0034" gradientTransform="matrix(457.8519 0 0 260.7708 -381801.0625 -240806.2656)">
			<stop  offset="0" style="stop-color:#8B1300;stop-opacity:0.368"/>
			<stop  offset="1" style="stop-color:#BE6E42;stop-opacity:0.912"/>
		</linearGradient>
		<path id="region-2-1" style="fill:url(#region-2-1_00000168801722899739386270000011120557178921002172_);" d="M199.5,42
			c-27.1,5.8-62.9,40.4-71,68.4c-1.3,4.3-1.6,8.4-1.3,15c0.5,12.1,4.3,20.1,14.3,30.2c11.8,11.9,24.8,18.2,42.2,20.5l9.1,1.1
			l-2.3,5.2c-6.6,14.9-12.3,38.7-13.2,55.3l-0.6,10.2l4.9-1.6c3.2-1,10.3-1.7,20-2c20.6-0.7,34.3,1.6,63.8,10.8
			c7,2.2,12.9,3.9,13,3.7c0.2-0.2,1.7-2.3,3.4-4.8c3.8-5.6,14.2-15.7,20.5-20c13.9-9.3,29.5-14,48.7-14.7
			c15.7-0.6,24.7,0.5,37.5,4.8c24.9,8.3,43.6,26.4,50.1,48.4c1.8,6.3,2.5,21.7,1.1,26.7L439,302h5.8c18.9,0,42-5.8,61.2-15.5
			c7.3-3.7,23.1-14,26.9-17.6l2.4-2.2l-0.6-18.6c-0.7-24.7-4.2-42.7-12.1-62.2l-3.4-8.4l5.7-0.8c16.2-2.2,27.8-6.8,38.8-15.1
			c17.3-13.1,24.6-31.5,19.8-50.1C579.9,98,572.9,86.9,558,71.7c-21.6-22.3-40.2-31.9-58.5-30.3c-22.5,2-44.9,26.4-49.1,53.1
			l-0.6,4.1L436.7,92c-15.3-7.7-30.5-12.9-46.7-16.2c-10-2-14.4-2.3-34-2.3c-16.9,0-24.7,0.4-31.5,1.7c-18.8,3.6-40,11-54.5,19.2
			l-7.8,4.4l-1.7-7.7C256,70.3,240.3,50.4,223.3,44C216.9,41.6,205.7,40.6,199.5,42z"/>
		
			<linearGradient id="region-2-2_00000151505993650650795560000013301608690440239774_" gradientUnits="userSpaceOnUse" x1="834.1516" y1="923.4302" x2="834.293" y2="924.5828" gradientTransform="matrix(360.8469 0 0 319.8347 -300654.875 -295144.2188)">
			<stop  offset="0" style="stop-color:#671F00;stop-opacity:0.573"/>
			<stop  offset="1" style="stop-color:#C85335;stop-opacity:0.832"/>
		</linearGradient>
		<path id="region-2-2" style="fill:url(#region-2-2_00000151505993650650795560000013301608690440239774_);" d="M340,219.7
			c-12.8,2.1-28.2,8-37.7,14.3c-6.3,4.3-16.7,14.4-20.5,20c-1.7,2.5-3.2,4.6-3.4,4.8c-0.1,0.2-6-1.5-13-3.7
			c-29.5-9.2-43.2-11.5-63.8-10.8c-8.7,0.3-17,1.1-19.6,1.9l-4.5,1.4l-0.3,9.4c-0.9,30.2,11.2,64.3,31.5,88.5l4.9,5.8l-5.1,5.1
			c-6.2,6.2-8.5,12.1-8.5,22c0,8.4,2.8,15.3,8.3,20.8c9.2,9.3,43.8,25.2,72,33.3c26.5,7.6,48.5,10.7,76.2,10.7
			c26.6,0.1,44.4-2.2,69.2-8.8l13.3-3.6l2.7,3.3c4.3,5.1,7.6,9.8,12.2,17.5l4.2,7.2l-2,12.5c-2.3,13.7-8.2,37.8-13,52.8
			c-1.7,5.3-3.1,10.1-3.1,10.7c0,0.5,4.3,1.8,9.5,2.7c14.1,2.6,35.1,1.7,46-1.8c17.1-5.6,30.6-17,38.9-33c3.5-6.7,3.6-7.1,3.6-18.5
			c-0.1-43.9-16.3-81.2-44.8-103.3l-3.3-2.5l6.2-3.9c3.4-2.1,7.6-5.1,9.5-6.7c3.2-2.8,3.3-3.1,1.9-5.7c-0.7-1.5-3.2-4.4-5.5-6.5
			c-4.6-4.1-4.7-3.6,2.5-12.1c11.5-13.7,20.7-32,25.5-51.1c2.8-11,4.8-23.4,3.7-23.4c-0.3,0-4.1,2.5-8.3,5.5
			c-24,17.3-54.1,27.5-80.6,27.5H439l0.7-2.8c1.4-5,0.7-20.4-1.1-26.7c-4.8-16.1-18.2-32.6-33.6-41.2c-8.6-4.8-22.5-9.7-32-11.2
			C366.8,219.1,345.2,218.8,340,219.7z"/>
		
			<linearGradient id="region-2-3_00000028311406066687087390000016105408320497595541_" gradientUnits="userSpaceOnUse" x1="830.7028" y1="923.8995" x2="830.7028" y2="924.8995" gradientTransform="matrix(144.2082 0 0 173.4183 -119663.8594 -159857.8125)">
			<stop  offset="0" style="stop-color:#9A3002;stop-opacity:0.41"/>
			<stop  offset="1" style="stop-color:#952800;stop-opacity:0.638"/>
		</linearGradient>
		<path id="region-2-3" style="fill:url(#region-2-3_00000028311406066687087390000016105408320497595541_);" d="M190.5,365.5
			c-58.4,13.6-100.7,43.9-120.9,86.6c-10.9,22.9-14.1,47.7-9.1,69.8l1.6,6.6l5.7,2.7c8.2,3.9,17.7,6.1,23.1,5.4
			c10.8-1.5,22.1-9.9,30.7-22.8c6.5-9.8,13.8-25.9,24.9-54.8c5.4-14,11.5-28.9,13.5-33c7.4-14.7,19.7-28.6,32.9-37l7-4.5v-6.6
			c0.1-3.7,0.8-8.5,1.6-10.8C203.2,362.3,203.9,362.4,190.5,365.5z"/>
		
			<linearGradient id="region-2-4_00000142172618858522320330000008648313461308401808_" gradientUnits="userSpaceOnUse" x1="830.8777" y1="924.2339" x2="832.0209" y2="924.3888" gradientTransform="matrix(165.1286 0 0 196.3123 -136721.5781 -180989.0625)">
			<stop  offset="0" style="stop-color:#A42000;stop-opacity:0.496"/>
			<stop  offset="1" style="stop-color:#AA5C2C;stop-opacity:0.763"/>
		</linearGradient>
		<path id="region-2-4" style="fill:url(#region-2-4_00000142172618858522320330000008648313461308401808_);" d="M508.4,363.8
			c0.8,1.3-4.5,5.9-12.3,10.7l-6.2,3.9l3.3,2.5c15.8,12.2,27.6,28.6,35.6,49.7c2.1,5.4,6.3,14.2,9.5,19.5
			c7.9,13.1,13.4,26,22.1,51.7c11.7,34.6,20.5,50.1,31.8,55.8c4.8,2.4,4.8,2.4,13.5,0.9c4.9-0.9,12-1.5,15.9-1.3
			c6.5,0.2,7.6-0.1,11.5-2.7c17.7-12.3,26.1-43.9,19.9-74.6c-5-24.4-15.7-44.4-34-63.3c-18.1-18.7-36.3-30.5-63.7-41.2
			C538.8,368.9,506.6,361,508.4,363.8z"/>
		
			<linearGradient id="region-2-5_00000166634562683440021260000006153898539472444593_" gradientUnits="userSpaceOnUse" x1="834.658" y1="923.478" x2="835.6303" y2="924.5707" gradientTransform="matrix(642.2183 0 0 352.7715 -536023.9375 -325379.0312)">
			<stop  offset="0" style="stop-color:#7D0D00;stop-opacity:0.516"/>
			<stop  offset="1" style="stop-color:#D18459;stop-opacity:0.837"/>
		</linearGradient>
		<path id="region-2-5" style="fill:url(#region-2-5_00000166634562683440021260000006153898539472444593_);" d="M191.4,389.9
			c-13.3,9.3-24.3,21.9-31.4,36.1c-2,4.1-8.1,19-13.5,33c-11.1,28.9-18.4,45-24.9,54.8c-8.6,12.9-19.9,21.3-30.7,22.8
			c-5.3,0.7-15.1-1.5-22.4-5.1c-2.7-1.3-5.1-2.2-5.4-1.9c-0.3,0.2,0.9,3.4,2.7,7c3.5,7,9.4,14,15.6,18.6c3.6,2.5,3.7,2.8,1.5,2.8
			c-4,0-18.2,5.4-23,8.7c-2.4,1.7-6.2,4.9-8.4,7.2c-2.2,2.2-4.5,4.1-5.1,4.1c-1.7,0-8,12.5-10,20c-1.6,5.4-1.8,10-1.8,28
			c0.1,11.8,0.7,24.4,1.4,28c1.5,8.1,6,22.1,7,21.5c0.4-0.2,1.8,1.9,3.1,4.8c6,12.9,17.8,27.6,29.1,36.4c3.3,2.5,6.9,5.5,8.1,6.7
			c2.5,2.4,15.8,8.3,20.9,9.2c1.8,0.3,6.9,1.4,11.3,2.4c17,4,34.2,3.5,57.5-1.6c31.1-6.9,74.1-25.3,113.6-48.7l14.1-8.4l6.9,1
			c9.7,1.5,84.9,1.5,94.8,0l8-1.2l13.5,8.1c29.6,17.7,62.2,32.9,90.6,42.3c19.3,6.5,31.8,9.2,49,10.7c13.4,1.1,15.7,0.9,39-3.2
			c8.7-1.6,21.2-7,29.7-12.9c7.2-4.9,14-11.1,12.3-11.1c-0.4,0,1.4-2.4,4.2-5.3c6.7-7.1,12.8-16.3,17.6-26.6
			c2.2-4.7,4.4-8.8,4.8-9.2c0.5-0.3,1.8-4.1,3-8.5c1.8-6.6,2.3-11.5,2.6-29.9c0.5-25.5-0.4-32-6.3-44.3
			c-10.4-21.7-35.9-32.7-64.2-27.8L597,560l-4.8-2.4c-11.3-5.7-20.1-21.2-31.8-55.8c-8.7-25.5-14.2-38.6-21.9-51.5
			c-3.1-5.1-5.8-9.3-6-9.3s0.3,2.4,1.1,5.2c2.4,9.2,4.4,26.5,4.4,38.3c0,11.1-0.1,11.5-3.6,18.2c-8.3,16-21.8,27.4-38.9,33
			c-10.9,3.5-31.9,4.4-46,1.8c-5.2-0.9-9.5-2.2-9.5-2.7c0-0.6,1.4-5.4,3.1-10.7c4.8-15,10.7-39.1,13-52.8l2-12.5l-4.2-7.2
			c-4.6-7.7-7.9-12.4-12.2-17.5l-2.7-3.3l-13.3,3.6c-24.8,6.6-42.6,8.9-69.2,8.8c-27.7,0-49.7-3.1-76.2-10.7
			c-28.2-8.1-62.8-24-72-33.3c-2-1.9-4.7-5.9-6-8.9c-1.3-2.9-2.8-5.3-3.2-5.3C198.7,385,195.2,387.2,191.4,389.9z"/>
	</g>
	<g id="layer-3">
		
			<linearGradient id="region-3-1_00000040568633954592224280000018124004590398557088_" gradientUnits="userSpaceOnUse" x1="826.4107" y1="924.7524" x2="827.0509" y2="925.9724" gradientTransform="matrix(85.587 0 0 84.5 -70561.5703 -78081.5)">
			<stop  offset="0" style="stop-color:#E08D5D;stop-opacity:0.829"/>
			<stop  offset="1" style="stop-color:#FFB585;stop-opacity:0.729"/>
		</linearGradient>
		<path id="region-3-1" style="fill:url(#region-3-1_00000040568633954592224280000018124004590398557088_);" d="M192.8,69.9
			c-12,4.7-29.2,21.1-35.4,33.7c-4.5,9-5.4,16.8-2.9,24.3c2.5,7.7,10.8,16.1,20.3,20.8c7.5,3.7,7.8,3.8,19.2,3.8
			c11.4,0,11.7-0.1,19.3-3.8c27.2-13.5,33.9-47.9,13.6-70.1C220,71,213.6,68,204.6,68C200.2,68.1,195.7,68.8,192.8,69.9z"/>
		
			<linearGradient id="region-3-2_00000168820837862862915230000000806053900483205041_" gradientUnits="userSpaceOnUse" x1="826.5233" y1="924.7439" x2="826.8805" y2="925.9632" gradientTransform="matrix(85.4227 0 0 85.0272 -70104.1797 -78568.25)">
			<stop  offset="0" style="stop-color:#E79568;stop-opacity:0.81"/>
			<stop  offset="1" style="stop-color:#FFB483;stop-opacity:0.755"/>
		</linearGradient>
		<path id="region-3-2" style="fill:url(#region-3-2_00000168820837862862915230000000806053900483205041_);" d="M495.3,70.5
			c-13.8,6.4-23.4,24.4-22,41.5c1,13.3,6.9,24.1,17.6,32.2c8.6,6.6,17.3,9.2,28.9,8.6c13.9-0.8,25.1-6.5,32.9-16.6
			c9.7-12.8,7.4-28.2-6.8-45.1c-7.2-8.5-16.7-16.1-25-20.1C512.4,67,503.1,66.8,495.3,70.5z"/>
		
			<linearGradient id="region-3-3_00000078024599207771199190000016856964595321178275_" gradientUnits="userSpaceOnUse" x1="819.1528" y1="926.233" x2="819.1528" y2="927.233" gradientTransform="matrix(48.1921 0 0 48.2529 -39200.0625 -44503.9766)">
			<stop  offset="0" style="stop-color:#574536;stop-opacity:0.746"/>
			<stop  offset="1" style="stop-color:#463426;stop-opacity:0.811"/>
		</linearGradient>
		<path id="region-3-3" style="fill:url(#region-3-3_00000078024599207771199190000016856964595321178275_);" d="M269.7,190.4
			c-18.6,5.1-23.4,30.5-7.9,42.3c18.3,14,44.4-3.7,37.9-25.7C295.8,193.9,282.9,186.7,269.7,190.4z"/>
		
			<linearGradient id="region-3-4_00000152967186539787851630000005752936653658525061_" gradientUnits="userSpaceOnUse" x1="819.0363" y1="926.2437" x2="819.0363" y2="927.2437" gradientTransform="matrix(47.8707 0 0 48.0929 -38772.7656 -44356.3477)">
			<stop  offset="0" style="stop-color:#00191C;stop-opacity:0.42"/>
			<stop  offset="1" style="stop-color:#071916;stop-opacity:0.485"/>
		</linearGradient>
		<path id="region-3-4" style="fill:url(#region-3-4_00000152967186539787851630000005752936653658525061_);" d="M427.2,190.8
			c-20.1,7.2-21.7,34.5-2.7,44.5c8.4,4.4,21.5,2,28.3-5.1c8.4-9,8.3-25-0.4-33.6C445.6,189.9,436,187.7,427.2,190.8z"/>
		
			<linearGradient id="region-3-5_00000160178909000466752470000006538279872072515730_" gradientUnits="userSpaceOnUse" x1="831.5058" y1="924.1705" x2="831.6466" y2="925.3718" gradientTransform="matrix(169.7309 0 0 127.7646 -140788.0312 -117863.6094)">
			<stop  offset="0" style="stop-color:#F59F72;stop-opacity:0.803"/>
			<stop  offset="1" style="stop-color:#FFB281;stop-opacity:0.789"/>
		</linearGradient>
		<path id="region-3-5" style="fill:url(#region-3-5_00000160178909000466752470000006538279872072515730_);" d="M340,219.7
			c-13.4,2.2-28.2,8-38.6,15c-8.1,5.5-19.2,17.5-23.2,25c-11.8,22.2-8.9,47.7,7.3,63.8c17.4,17.4,51.2,26.3,85.6,22.6
			c39.7-4.3,64.7-22.4,69-50c2.8-18.8-3.7-36.8-19.1-52.1c-12.6-12.6-29.3-20.9-48-23.9C366.8,219.1,345.2,218.8,340,219.7z"/>
		
			<linearGradient id="region-3-6_00000086662003054992565460000016788750508562712979_" gradientUnits="userSpaceOnUse" x1="833.4154" y1="924.5434" x2="834.4768" y2="924.137" gradientTransform="matrix(338 0 0 187.0984 -281532 -172495.8906)">
			<stop  offset="0" style="stop-color:#FA7165;stop-opacity:0.866"/>
			<stop  offset="1" style="stop-color:#FF000F;stop-opacity:0.355"/>
		</linearGradient>
		<path id="region-3-6" style="fill:url(#region-3-6_00000086662003054992565460000016788750508562712979_);" d="M208,356.8
			c-5.8,6-8,12.1-8,21.6c0,8.4,2.8,15.3,8.3,20.8c9.2,9.3,43.8,25.2,72,33.3c26.5,7.6,48.5,10.7,76.2,10.7
			c26.6,0.1,44.4-2.2,69.2-8.8l13.3-3.6l2.7,3.3c4.3,5.1,7.6,9.8,12.2,17.5l4.2,7.2l-2,12.5c-2.3,13.7-8.2,37.8-13,52.8
			c-1.7,5.3-3.1,10.1-3.1,10.7c0,0.5,4.3,1.8,9.5,2.7c14.1,2.6,35.1,1.7,46-1.8c17.1-5.6,30.6-17,38.9-33c3.5-6.7,3.6-7.1,3.6-18.5
			c-0.1-43.9-16.3-81.2-44.8-103.3l-3.3-2.5l6.2-3.9c3.4-2.1,7.6-5.1,9.5-6.7c3.2-2.8,3.3-3.1,1.9-5.7c-0.7-1.5-3.2-4.4-5.5-6.5
			l-4.1-3.7l-8.2,7.2c-27.5,23.9-62.5,38.1-105.5,43c-15.9,1.8-55.7,0.7-70.7-2c-39.1-6.8-69.3-20.7-93.8-43.1c-3-2.7-5.8-5-6.3-5
			C213,352,210.5,354.2,208,356.8z"/>
		
			<linearGradient id="region-3-7_00000048497540040658033350000017802388245766543796_" gradientUnits="userSpaceOnUse" x1="798.2719" y1="928.4678" x2="798.2719" y2="929.4678" gradientTransform="matrix(21.8687 0 0 28.5306 -16956.375 -26124.166)">
			<stop  offset="0" style="stop-color:#A82C4C;stop-opacity:0.771"/>
			<stop  offset="1" style="stop-color:#A12256;stop-opacity:0.81"/>
		</linearGradient>
		<path id="region-3-7" style="fill:url(#region-3-7_00000048497540040658033350000017802388245766543796_);" d="M506.4,367.1
			c-1,1.1-5.1,4.1-9.1,6.6l-7.4,4.7l3.3,2.5c1.8,1.4,5.8,4.9,8.9,7.9l5.7,5.3l1.6-4.3c2.5-6,3-12.8,1.6-18.7
			C509.6,365,508.9,364.4,506.4,367.1z"/>
		
			<linearGradient id="region-3-8_00000021802055418610159280000000548129599315696530_" gradientUnits="userSpaceOnUse" x1="830.1339" y1="923.8453" x2="830.9675" y2="924.9385" gradientTransform="matrix(141.2713 0 0 176.3322 -116758.2891 -162527.375)">
			<stop  offset="0" style="stop-color:#563421;stop-opacity:0.191"/>
			<stop  offset="1" style="stop-color:#A36144;stop-opacity:0.495"/>
		</linearGradient>
		<path id="region-3-8" style="fill:url(#region-3-8_00000021802055418610159280000000548129599315696530_);" d="M509.7,388.7
			c-0.9,3-1.4,5.9-1.1,6.5c0.4,0.6,2.8,3.8,5.3,7.2c5.9,7.8,10.3,16.2,15,28.4c2,5.3,6.2,14,9.4,19.3c7.9,13.1,13.4,26,22.1,51.7
			c11.7,34.6,20.5,50.1,31.8,55.8c4.8,2.4,4.8,2.4,13.5,0.9c4.9-0.9,12-1.5,15.9-1.3c6.5,0.2,7.6-0.1,11.5-2.7
			c5.2-3.7,11.4-11.3,14.5-18c3.5-7.4,3.2-7.8-3.9-4.5c-24.2,11.4-42.4,1.8-59.1-30.9c-5-9.8-8.4-18.1-23.9-58.1
			c-6.4-16.4-12-26.4-20.2-36.3c-5.6-6.8-18.1-17.3-25.2-21.3l-3.8-2.2L509.7,388.7z"/>
		
			<linearGradient id="region-3-9_00000076566200187210315660000009368036008413914022_" gradientUnits="userSpaceOnUse" x1="832.9454" y1="923.8301" x2="832.9454" y2="924.8301" gradientTransform="matrix(235.1886 0 0 187.9315 -195543.6406 -173185.9531)">
			<stop  offset="0" style="stop-color:#FA9B70;stop-opacity:0.796"/>
			<stop  offset="1" style="stop-color:#FFB37F;stop-opacity:0.706"/>
		</linearGradient>
		<path id="region-3-9" style="fill:url(#region-3-9_00000076566200187210315660000009368036008413914022_);" d="M269.2,434.7
			c-23.1,29.7-34.6,70.3-30.3,107c4.3,36.7,20.8,57.6,54.1,68.7c20.7,6.9,49.9,9.7,79.1,7.7c40.8-2.7,66.8-12.8,82-31.7
			c2.1-2.7,5-6.1,6.4-7.6c5-5.4,10.3-20.4,12-34.1l0.7-5.7h-7.8c-9.1,0-25.4-2.7-25.4-4.3c0-0.5,1.4-5.3,3.1-10.6
			c4.8-15,10.7-39.1,13-52.8l2-12.5l-4.2-7.2c-4.6-7.7-7.9-12.4-12.2-17.5l-2.7-3.3l-13.3,3.6c-24.8,6.6-42.6,8.9-69.2,8.8
			c-26.3,0-53.5-3.8-74.5-10.2C273.3,430.3,272.6,430.4,269.2,434.7z"/>
		
			<linearGradient id="region-3-10_00000060732354439944588030000016819605004039847356_" gradientUnits="userSpaceOnUse" x1="823.186" y1="924.7802" x2="824.4484" y2="924.6653" gradientTransform="matrix(65.446 0 0 127.8218 -53759.8945 -117696.5391)">
			<stop  offset="0" style="stop-color:#EFD5B7;stop-opacity:0.72"/>
			<stop  offset="1" style="stop-color:#FFF4D5;stop-opacity:0.84"/>
		</linearGradient>
		<path id="region-3-10" style="fill:url(#region-3-10_00000060732354439944588030000016819605004039847356_);" d="M177.6,445.7
			c-8.8,13.7-16.7,31.7-25.1,57.3c-5.1,15.4-21.1,46.5-26.5,51.4c-2.2,2-5.1,3.8-6.5,4.2c-1.4,0.3-2.5,0.9-2.5,1.3
			c0,0.3,3.3,1.9,7.3,3.6c3.9,1.6,7.5,3.1,7.9,3.3c0.5,0.2,0.8-1,0.8-2.6c0-6.5,5.1-23,10.4-33.7c5.4-11,13.4-20.9,20.9-26.1
			c2.5-1.7,2.9-2.9,4.3-12.4c1.9-12.6,7.1-33.4,11.2-44.8c1.7-4.5,2.9-8.2,2.6-8.2C182.2,439,180,442,177.6,445.7z"/>
		
			<linearGradient id="region-3-11_00000067946029843169882810000012219559656589699255_" gradientUnits="userSpaceOnUse" x1="823.585" y1="924.243" x2="823.585" y2="925.243" gradientTransform="matrix(64.7309 0 0 125.5051 -52746.4297 -115556.1641)">
			<stop  offset="0" style="stop-color:#FFE1C6;stop-opacity:0.811"/>
			<stop  offset="1" style="stop-color:#FFF0CB;stop-opacity:0.798"/>
		</linearGradient>
		<path id="region-3-11" style="fill:url(#region-3-11_00000067946029843169882810000012219559656589699255_);" d="M534.2,449.7
			c1,4.9,3,13.5,4.3,19.3c3.1,13.7,5.5,26.5,5.5,29.9c0,2,0.7,3.1,2.4,3.9c1.3,0.6,5.4,3.9,9.1,7.4c6.1,5.7,7.4,7.7,14.2,21.6
			c5.9,12,7.9,17.4,9.5,25c1,5.3,2,9.7,2.1,9.7c0.1,0.1,3.8-1.3,8.1-3.1l7.9-3.2l-4.9-2.5c-11.5-5.8-20.2-21.1-32-55.9
			c-8.7-25.5-14.2-38.6-21.9-51.5c-3.1-5.1-5.7-9.3-5.9-9.3C532.4,441,533.2,444.9,534.2,449.7z"/>
		
			<linearGradient id="region-3-12_00000097460121900453701330000002812447029724337324_" gradientUnits="userSpaceOnUse" x1="829.9827" y1="923.7517" x2="830.9692" y2="924.7591" gradientTransform="matrix(138.213 0 0 199.4 -114297.6484 -183696.5)">
			<stop  offset="0" style="stop-color:#4B1100;stop-opacity:0"/>
			<stop  offset="1" style="stop-color:#390E00;stop-opacity:0.293"/>
		</linearGradient>
		<path id="region-3-12" style="fill:url(#region-3-12_00000097460121900453701330000002812447029724337324_);" d="M545.4,530.1
			c0,25.1-1.6,40.1-4.9,47.3c-0.7,1.7-2.5,6.6-3.9,10.9c-10.3,31.1-30.1,53.8-60.1,68.9c-12.3,6.2-32.2,12.8-47.5,15.8
			c-6.3,1.2-13,2.5-14.8,2.8c-3.3,0.7-3,0.9,10.5,8.8c7.6,4.5,19.1,10.9,25.5,14.3l11.7,6.2l4.8-2.7c7.4-4.2,16.9-11.1,23.6-17.1
			c24.9-22.2,45.8-59.2,53.6-94.8c1.2-5.5,2.6-10.8,3.2-11.7c1.1-2.2,2.6-12.7,3.4-24.3c0.7-10.8-0.9-31.1-3.3-41.4l-1.7-7.4
			L545.4,530.1z"/>
		
			<linearGradient id="region-3-13_00000098905058190103730080000000943842916096763555_" gradientUnits="userSpaceOnUse" x1="829.7705" y1="924.014" x2="830.9491" y2="924.8655" gradientTransform="matrix(137.2295 0 0 189.4 -113724.8203 -174456.7031)">
			<stop  offset="0" style="stop-color:#452F00;stop-opacity:0"/>
			<stop  offset="1" style="stop-color:#402E18;stop-opacity:0.206"/>
		</linearGradient>
		<path id="region-3-13" style="fill:url(#region-3-13_00000098905058190103730080000000943842916096763555_);" d="M164.3,524.6
			c-2.7,19.3-0.8,51.9,4.2,70.8c8.1,30.9,24.1,60.5,44.4,81.9c9.1,9.5,22.1,19.8,31.1,24.6l5.6,3l12.3-6.5
			c6.8-3.5,18.2-9.9,25.4-14.1l13-7.7l-12.9-2.3c-46.5-8.5-77.1-25.1-97.6-53c-8.2-11.2-18.1-33-19.3-42.9
			c-0.3-1.8-1.2-7.3-2.1-12.1c-0.9-5.1-1.9-17.6-2.3-29.8l-0.6-21L164.3,524.6z"/>
		
			<linearGradient id="region-3-14_00000165220512223509858640000014648216680393133696_" gradientUnits="userSpaceOnUse" x1="830.1514" y1="923.9011" x2="830.8348" y2="925.0671" gradientTransform="matrix(139.2491 0 0 157.2717 -115540.1719 -144741.5625)">
			<stop  offset="0" style="stop-color:#DB8B5D;stop-opacity:0.756"/>
			<stop  offset="1" style="stop-color:#E89365;stop-opacity:0.766"/>
		</linearGradient>
		<path id="region-3-14" style="fill:url(#region-3-14_00000165220512223509858640000014648216680393133696_);" d="M75.5,577.2
			c-17.8,3.3-33.3,20.2-38.1,41.4c-2.3,10.5-1.5,32.7,1.6,43.4c2.7,9.4,9.4,23.8,15,32.1c5.5,8.1,18.7,21.3,26.5,26.4
			c22.9,15,50.5,17.2,68.9,5.4c26.6-16.8,33.8-58.5,16.6-95.5c-12.5-27-36-48.1-58.8-52.9C99.3,575.9,83.6,575.7,75.5,577.2z"/>
		
			<linearGradient id="region-3-15_00000143611478326100968570000006530362235843758245_" gradientUnits="userSpaceOnUse" x1="830.1748" y1="923.8906" x2="830.8" y2="925.0686" gradientTransform="matrix(139.132 0 0 157.8949 -114941.7422 -145316.8594)">
			<stop  offset="0" style="stop-color:#D27F50;stop-opacity:0.595"/>
			<stop  offset="1" style="stop-color:#E28A5F;stop-opacity:0.605"/>
		</linearGradient>
		<path id="region-3-15" style="fill:url(#region-3-15_00000143611478326100968570000006530362235843758245_);" d="M609,577
			c-1.4,0.4-4.1,0.8-6,0.9c-4.4,0.1-16.5,5.8-24.5,11.6c-7.6,5.5-18.9,17.1-24.4,25.4c-6,8.9-12.5,23-15.2,33.1
			c-1.9,7.1-2.3,11-2.3,24c0,14.4,0.2,16.1,2.7,23.5c3.8,10.8,8,17.6,15.2,24.4c9.5,8.8,22.7,14,35.8,14.1c6.3,0,18.9-2.6,25.2-5.3
			c19.9-8.4,39-26.7,49.4-47.5c10.2-20.4,13.5-45.2,8.6-64.7c-2.4-9.4-8.2-20-14.5-26.4c-6.9-7-13-10.7-21.2-12.6
			C631.1,575.9,613.3,575.6,609,577z"/>
	</g>
	<g id="layer-4">
		
			<linearGradient id="region-4-1_00000140698655675738704440000014376107618299686037_" gradientUnits="userSpaceOnUse" x1="787.2668" y1="933.1358" x2="788.4008" y2="933.3989" gradientTransform="matrix(17.1842 0 0 15.9594 -13253.9453 -14690.5029)">
			<stop  offset="0" style="stop-color:#76543D;stop-opacity:0.787"/>
			<stop  offset="1" style="stop-color:#7E5A43;stop-opacity:0.803"/>
		</linearGradient>
		<path id="region-4-1" style="fill:url(#region-4-1_00000140698655675738704440000014376107618299686037_);" d="M277.2,197.2
			c-2.9,2.9-0.2,10.2,4.8,13.2c3.3,1.9,8.1,2.1,9.8,0.4c4.4-4.4-2.4-14.8-9.6-14.8C280.1,196,277.9,196.5,277.2,197.2z"/>
		
			<linearGradient id="region-4-2_00000014609445835681086750000006769124848057528225_" gradientUnits="userSpaceOnUse" x1="785.543" y1="933.486" x2="786.6854" y2="933.1918" gradientTransform="matrix(16.5984 0 0 15.8568 -12605.1973 -14595.7178)">
			<stop  offset="0" style="stop-color:#755740;stop-opacity:0.788"/>
			<stop  offset="1" style="stop-color:#7C5C42;stop-opacity:0.805"/>
		</linearGradient>
		<path id="region-4-2" style="fill:url(#region-4-2_00000014609445835681086750000006769124848057528225_);" d="M436.3,196.7
			c-1.8,0.7-1.6,7.4,0.3,10.1c3.5,5,12.4,7,14.4,3.1c2.8-5.1-3.9-14-10.3-13.8C438.9,196.1,436.9,196.4,436.3,196.7z"/>
		
			<linearGradient id="region-4-3_00000174562120372558898760000004287426180375880097_" gradientUnits="userSpaceOnUse" x1="821.1068" y1="928.9846" x2="821.1068" y2="929.9846" gradientTransform="matrix(54.3096 0 0 26.0671 -44238.1719 -23984.5371)">
			<stop  offset="0" style="stop-color:#081511;stop-opacity:0.436"/>
			<stop  offset="1" style="stop-color:#000C07;stop-opacity:0.473"/>
		</linearGradient>
		<path id="region-4-3" style="fill:url(#region-4-3_00000174562120372558898760000004287426180375880097_);" d="M346.3,232
			c-10.9,2.3-17.4,7.3-17.6,13.5c-0.1,3,0.5,4.3,3.1,6.6c4.6,4.1,10.1,5.4,23.7,5.4c13.7,0,20.2-1.4,24.5-5.5
			c6.5-6.1,2-15.1-9.3-18.5C364.2,231.6,351.9,230.8,346.3,232z"/>
		
			<linearGradient id="region-4-4_00000143587086485846399070000011833222396448897975_" gradientUnits="userSpaceOnUse" x1="825.6109" y1="925.558" x2="826.7366" y2="925.8854" gradientTransform="matrix(81.1964 0 0 69.708 -66728.875 -64257.4922)">
			<stop  offset="0" style="stop-color:#57402F;stop-opacity:0.69"/>
			<stop  offset="1" style="stop-color:#351E10;stop-opacity:0.824"/>
		</linearGradient>
		<path id="region-4-4" style="fill:url(#region-4-4_00000143587086485846399070000011833222396448897975_);" d="M324.4,243.4
			c-4,3.9-4.4,4.8-4.4,9.1c0,4.1,0.5,5.2,3.5,8c4.2,4.1,10.3,6.2,21.7,7.6l8.8,1.2v12c0,14.5-1.2,17.2-9.5,21.2
			c-4.3,2.2-6.2,2.6-9.4,2c-5.2-0.9-9.8-4-13.6-9.2c-3.3-4.6-3.4-4.7-5.5-3.3c-1.8,1.1-0.1,4.5,4.9,9.6c5.4,5.4,8.7,6.8,16.1,6.8
			c7.2,0,13.3-2.5,16.8-6.8l1.9-2.5l2.4,2.5c5.4,5.8,14.9,8.5,22.4,6.4c7.8-2.2,18.9-13.9,15.3-16.1c-2-1.3-2.2-1.2-4.1,2
			c-4.6,7.9-13.8,12.3-21.2,10.1c-10.4-3.1-12.5-7-12.5-22.8v-12l5.8-0.6c22.4-2.5,32.4-10.6,26.7-21.6c-1.4-2.7-7.3-8-8.9-8
			c-0.4,0-0.2,0.9,0.4,1.9c3.2,6.2-0.9,12.6-9.7,15.2c-6.1,1.8-27.2,1.8-33.1,0.1c-6.5-2-10.6-6.1-10.5-10.6c0.1-2,0.7-4.3,1.3-5.1
			c1-1.2,1-1.5,0-1.5C329.3,239,326.8,241,324.4,243.4z"/>
		
			<linearGradient id="region-4-5_00000088124782360492743480000001751035544726348681_" gradientUnits="userSpaceOnUse" x1="833.2448" y1="924.9913" x2="833.2448" y2="925.9913" gradientTransform="matrix(256.8213 0 0 78.34 -213666.5625 -72098.8359)">
			<stop  offset="0" style="stop-color:#9E344B;stop-opacity:0.709"/>
			<stop  offset="1" style="stop-color:#962C62;stop-opacity:0.814"/>
		</linearGradient>
		<path id="region-4-5" style="fill:url(#region-4-5_00000088124782360492743480000001751035544726348681_);" d="M201.1,368.1
			c-0.6,1.8-1.1,6.4-1.1,10.3c0,13.1,5.3,20.6,20.7,29.5c22.7,12.9,53.8,24.4,81.7,30.1c32.2,6.6,69.6,7.1,101.6,1.4
			c18.9-3.4,51.7-13.4,52.7-16.2c0.9-2.2-3.4-14.5-6.6-19l-3-4l-12.8,4.3c-13.4,4.5-29.9,8.5-44.3,10.7c-13.4,2-54.7,1.7-69-0.5
			c-25.6-4.1-54-12.9-77.5-24.2c-14-6.8-32-17.6-36.5-22c-2-1.9-3.9-3.5-4.2-3.5S201.7,366.4,201.1,368.1z"/>
		
			<linearGradient id="region-4-6_00000108998285144631900220000016660506252653754264_" gradientUnits="userSpaceOnUse" x1="794.8833" y1="927.5881" x2="794.8833" y2="928.5881" gradientTransform="matrix(20.0881 0 0 34.0014 -15518.8398 -31115.209)">
			<stop  offset="0" style="stop-color:#7C9C5E;stop-opacity:0.444"/>
			<stop  offset="1" style="stop-color:#719D52;stop-opacity:0.49"/>
		</linearGradient>
		<path id="region-4-6" style="fill:url(#region-4-6_00000108998285144631900220000016660506252653754264_);" d="M447.6,427.4
			l-8.8,3.3l2.9,3.4c3.7,4.3,8.2,10.8,12.6,18.2l3.4,5.8l0.7-4.7c1.1-8.6,0.2-29.5-1.3-29.3C456.8,424.1,452.5,425.6,447.6,427.4z"
			/>
		
			<linearGradient id="region-4-7_00000179633044002211348520000013258212182509305001_" gradientUnits="userSpaceOnUse" x1="834.3812" y1="923.8937" x2="834.3812" y2="924.8937" gradientTransform="matrix(394.5508 0 0 174.5594 -328945.5 -160889.3438)">
			<stop  offset="0" style="stop-color:#74401F;stop-opacity:0.127"/>
			<stop  offset="1" style="stop-color:#AF7B59;stop-opacity:0.357"/>
		</linearGradient>
		<path id="region-4-7" style="fill:url(#region-4-7_00000179633044002211348520000013258212182509305001_);" d="M191.4,389.9
			c-13.3,9.3-24.3,21.9-31.4,36.1c-2,4.1-8.1,19-13.5,33c-11.1,28.9-18.4,45-24.9,54.8c-8.6,12.9-19.9,21.3-30.7,22.8
			c-5.3,0.7-15.1-1.5-22.4-5.1c-2.7-1.3-5.1-2.2-5.4-1.9c-1.1,1.1,6.3,13.9,10.6,18.6c8.1,8.6,8.7,8.8,22,9.3
			c6.5,0.2,13.5,0.8,15.6,1.5c4.9,1.5,9.6,0,14.8-4.7c5.3-4.8,21.4-36.1,26.4-51.3c5.5-16.6,11.6-32.3,16.5-42
			c3.6-7.1,6.2-11.4,14.2-23.4c0.4-0.6,3-6.1,5.8-12.1l5.1-11l9.4,0.6c19,1.4,33.4,6.4,83.3,28.5c58.1,25.8,83.6,33.9,114.2,35.9
			c16.2,1.1,36.9-2.2,49.9-8.1c5.8-2.6,5.8-2.6,6.4-7.7c0.6-4.8,0.3-5.7-3.5-12.2c-4.5-7.6-7.8-12.3-12.1-17.4l-2.7-3.3l-13.3,3.6
			c-24.8,6.6-42.6,8.9-69.2,8.8c-27.7,0-49.7-3.1-76.2-10.7c-28.2-8.1-62.8-24-72-33.3c-2-1.9-4.7-5.9-6-8.9
			c-1.3-2.9-2.8-5.3-3.2-5.3C198.7,385,195.2,387.2,191.4,389.9z"/>
		
			<linearGradient id="region-4-8_00000092458882544934036920000002085427078125781391_" gradientUnits="userSpaceOnUse" x1="826.824" y1="924.4589" x2="827.6359" y2="925.5802" gradientTransform="matrix(90.2114 0 0 102.3039 -74526.1016 -93975.3906)">
			<stop  offset="0" style="stop-color:#EB9C6E;stop-opacity:0.752"/>
			<stop  offset="1" style="stop-color:#FBA97B;stop-opacity:0.791"/>
		</linearGradient>
		<path id="region-4-8" style="fill:url(#region-4-8_00000092458882544934036920000002085427078125781391_);" d="M78.5,608.4
			c-23,7.2-31,38.7-16.9,67.2c9.9,20.1,28.8,33.5,47.4,33.8c11,0.1,17-2.3,24.6-9.8c7.6-7.6,10.4-14.3,11.1-26.7
			c2.1-33.3-25.1-66-54.7-65.8C85.9,607.1,80.7,607.7,78.5,608.4z"/>
		
			<linearGradient id="region-4-9_00000179646269103184821210000000614444444015395495_" gradientUnits="userSpaceOnUse" x1="827.0558" y1="924.4204" x2="827.4437" y2="925.5997" gradientTransform="matrix(90.4073 0 0 102.6297 -74178.0469 -94276.1328)">
			<stop  offset="0" style="stop-color:#E99A6D;stop-opacity:0.76"/>
			<stop  offset="1" style="stop-color:#FCAA7B;stop-opacity:0.803"/>
		</linearGradient>
		<path id="region-4-9" style="fill:url(#region-4-9_00000179646269103184821210000000614444444015395495_);" d="M609.5,608.4
			c-17,5.4-32,20.4-39,38.9c-5.3,14.3-5.4,30.7-0.1,42.3c6.7,14.6,22.1,22.4,38.1,19.5c29.7-5.4,53.3-41.2,47.5-72.2
			c-2.4-13-10.8-23.8-21.6-27.9C628.1,606.7,615.9,606.4,609.5,608.4z"/>
	</g>
</g>
<g id="图层_2">
	<g id="layer-1_00000136376318227428946300000001787648208345766816_">
		
			<linearGradient id="region-1-1_00000026845258635533790010000006075788032939435400_" gradientUnits="userSpaceOnUse" x1="836.2639" y1="923.1509" x2="836.4074" y2="924.2616" gradientTransform="matrix(718 0 0 766 -599412 -707174)">
			<stop  offset="0" style="stop-color:#FFDDBC;stop-opacity:0.99"/>
			<stop  offset="1" style="stop-color:#FEDABA;stop-opacity:0.99"/>
		</linearGradient>
		
			<path id="region-1-1_00000158719929718187440200000005399124059019051454_" style="fill:url(#region-1-1_00000026845258635533790010000006075788032939435400_);" d="
			M718,385v383h359h359V385V2h-359H718V385z"/>
	</g>
	<g id="layer-2_00000144298015697874734630000003354933806440025246_">
		
			<linearGradient id="region-2-1_00000098217671894994695330000015755994151611035294_" gradientUnits="userSpaceOnUse" x1="837.7585" y1="923.5254" x2="838.0541" y2="925.014" gradientTransform="matrix(457.8519 0 0 260.7708 -381801.0625 -240806.2656)">
			<stop  offset="0" style="stop-color:#8B1300;stop-opacity:0.368"/>
			<stop  offset="1" style="stop-color:#BE6E42;stop-opacity:0.912"/>
		</linearGradient>
		
			<path id="region-2-1_00000152986880588003892900000007410256910870677177_" style="fill:url(#region-2-1_00000098217671894994695330000015755994151611035294_);" d="
			M1647.9,44.8c-27.1,5.8-62.9,40.4-71,68.4c-1.3,4.3-1.6,8.4-1.3,15c0.5,12.1,4.3,20.1,14.3,30.2c11.8,11.9,24.8,18.2,42.2,20.5
			l9.1,1.1l-2.3,5.2c-6.6,14.9-12.3,38.7-13.2,55.3l-0.6,10.2l4.9-1.6c3.2-1,10.3-1.7,20-2c20.6-0.7,34.3,1.6,63.8,10.8
			c7,2.2,12.9,3.9,13,3.7c0.2-0.2,1.7-2.3,3.4-4.8c3.8-5.6,14.2-15.7,20.5-20c13.9-9.3,29.5-14,48.7-14.7
			c15.7-0.6,24.7,0.5,37.5,4.8c24.9,8.3,43.6,26.4,50.1,48.4c1.8,6.3,2.5,21.7,1.1,26.7l-0.7,2.8h5.8c18.9,0,42-5.8,61.2-15.5
			c7.3-3.7,23.1-14,26.9-17.6l2.4-2.2l-0.6-18.6c-0.7-24.7-4.2-42.7-12.1-62.2l-3.4-8.4l5.7-0.8c16.2-2.2,27.8-6.8,38.8-15.1
			c17.3-13.1,24.6-31.5,19.8-50.1c-3.6-13.5-10.6-24.6-25.5-39.8c-21.6-22.3-40.2-31.9-58.5-30.3c-22.5,2-44.9,26.4-49.1,53.1
			l-0.6,4.1l-13.1-6.6c-15.3-7.7-30.5-12.9-46.7-16.2c-10-2-14.4-2.3-34-2.3c-16.9,0-24.7,0.4-31.5,1.7c-18.8,3.6-40,11-54.5,19.2
			l-7.8,4.4l-1.7-7.7c-4.5-20.8-20.2-40.7-37.2-47.1C1665.3,44.4,1654.1,43.4,1647.9,44.8z"/>
		
			<linearGradient id="region-2-2_00000045581614656752597470000012312461947641567659_" gradientUnits="userSpaceOnUse" x1="838.1653" y1="923.439" x2="838.3068" y2="924.5915" gradientTransform="matrix(360.8469 0 0 319.8347 -300654.875 -295144.2188)">
			<stop  offset="0" style="stop-color:#671F00;stop-opacity:0.573"/>
			<stop  offset="1" style="stop-color:#C85335;stop-opacity:0.832"/>
		</linearGradient>
		
			<path id="region-2-2_00000105422480767201544300000011803886834998287488_" style="fill:url(#region-2-2_00000045581614656752597470000012312461947641567659_);" d="
			M1788.4,222.5c-12.8,2.1-28.2,8-37.7,14.3c-6.3,4.3-16.7,14.4-20.5,20c-1.7,2.5-3.2,4.6-3.4,4.8c-0.1,0.2-6-1.5-13-3.7
			c-29.5-9.2-43.2-11.5-63.8-10.8c-8.7,0.3-17,1.1-19.6,1.9l-4.5,1.4l-0.3,9.4c-0.9,30.2,11.2,64.3,31.5,88.5l4.9,5.8l-5.1,5.1
			c-6.2,6.2-8.5,12.1-8.5,22c0,8.4,2.8,15.3,8.3,20.8c9.2,9.3,43.8,25.2,72,33.3c26.5,7.6,48.5,10.7,76.2,10.7
			c26.6,0.1,44.4-2.2,69.2-8.8l13.3-3.6l2.7,3.3c4.3,5.1,7.6,9.8,12.2,17.5l4.2,7.2l-2,12.5c-2.3,13.7-8.2,37.8-13,52.8
			c-1.7,5.3-3.1,10.1-3.1,10.7c0,0.5,4.3,1.8,9.5,2.7c14.1,2.6,35.1,1.7,46-1.8c17.1-5.6,30.6-17,38.9-33c3.5-6.7,3.6-7.1,3.6-18.5
			c-0.1-43.9-16.3-81.2-44.8-103.3l-3.3-2.5l6.2-3.9c3.4-2.1,7.6-5.1,9.5-6.7c3.2-2.8,3.3-3.1,1.9-5.7c-0.7-1.5-3.2-4.4-5.5-6.5
			c-4.6-4.1-4.7-3.6,2.5-12.1c11.5-13.7,20.7-32,25.5-51.1c2.8-11,4.8-23.4,3.7-23.4c-0.3,0-4.1,2.5-8.3,5.5
			c-24,17.3-54.1,27.5-80.6,27.5h-5.8l0.7-2.8c1.4-5,0.7-20.4-1.1-26.7c-4.8-16.1-18.2-32.6-33.6-41.2c-8.6-4.8-22.5-9.7-32-11.2
			C1815.2,221.9,1793.6,221.6,1788.4,222.5z"/>
		
			<linearGradient id="region-2-3_00000092452884356438757610000013662676685320129684_" gradientUnits="userSpaceOnUse" x1="840.7463" y1="923.9157" x2="840.7463" y2="924.9157" gradientTransform="matrix(144.2082 0 0 173.4183 -119663.8594 -159857.8125)">
			<stop  offset="0" style="stop-color:#9A3002;stop-opacity:0.41"/>
			<stop  offset="1" style="stop-color:#952800;stop-opacity:0.638"/>
		</linearGradient>
		
			<path id="region-2-3_00000106840129288580298900000000242794598627991211_" style="fill:url(#region-2-3_00000092452884356438757610000013662676685320129684_);" d="
			M1638.9,368.3c-58.4,13.6-100.7,43.9-120.9,86.6c-10.9,22.9-14.1,47.7-9.1,69.8l1.6,6.6l5.7,2.7c8.2,3.9,17.7,6.1,23.1,5.4
			c10.8-1.5,22.1-9.9,30.7-22.8c6.5-9.8,13.8-25.9,24.9-54.8c5.4-14,11.5-28.9,13.5-33c7.4-14.7,19.7-28.6,32.9-37l7-4.5v-6.6
			c0.1-3.7,0.8-8.5,1.6-10.8C1651.6,365.1,1652.3,365.2,1638.9,368.3z"/>
		
			<linearGradient id="region-2-4_00000070087803233528463640000013292974489158713985_" gradientUnits="userSpaceOnUse" x1="839.6489" y1="924.2482" x2="840.792" y2="924.4031" gradientTransform="matrix(165.1286 0 0 196.3123 -136721.5781 -180989.0625)">
			<stop  offset="0" style="stop-color:#A42000;stop-opacity:0.496"/>
			<stop  offset="1" style="stop-color:#AA5C2C;stop-opacity:0.763"/>
		</linearGradient>
		
			<path id="region-2-4_00000070810937975323236270000002399497114370723489_" style="fill:url(#region-2-4_00000070087803233528463640000013292974489158713985_);" d="
			M1956.8,366.6c0.8,1.3-4.5,5.9-12.3,10.7l-6.2,3.9l3.3,2.5c15.8,12.2,27.6,28.6,35.6,49.7c2.1,5.4,6.3,14.2,9.5,19.5
			c7.9,13.1,13.4,26,22.1,51.7c11.7,34.6,20.5,50.1,31.8,55.8c4.8,2.4,4.8,2.4,13.5,0.9c4.9-0.9,12-1.5,15.9-1.3
			c6.5,0.2,7.6-0.1,11.5-2.7c17.7-12.3,26.1-43.9,19.9-74.6c-5-24.4-15.7-44.4-34-63.3c-18.1-18.7-36.3-30.5-63.7-41.2
			C1987.2,371.7,1955,363.8,1956.8,366.6z"/>
		
			<linearGradient id="region-2-5_00000128473817701108520590000014244233872544849599_" gradientUnits="userSpaceOnUse" x1="836.9133" y1="923.486" x2="837.8856" y2="924.5787" gradientTransform="matrix(642.2183 0 0 352.7715 -536023.9375 -325379.0312)">
			<stop  offset="0" style="stop-color:#7D0D00;stop-opacity:0.516"/>
			<stop  offset="1" style="stop-color:#D18459;stop-opacity:0.837"/>
		</linearGradient>
		
			<path id="region-2-5_00000029037763626837551800000010599748357829512108_" style="fill:url(#region-2-5_00000128473817701108520590000014244233872544849599_);" d="
			M1639.8,392.7c-13.3,9.3-24.3,21.9-31.4,36.1c-2,4.1-8.1,19-13.5,33c-11.1,28.9-18.4,45-24.9,54.8c-8.6,12.9-19.9,21.3-30.7,22.8
			c-5.3,0.7-15.1-1.5-22.4-5.1c-2.7-1.3-5.1-2.2-5.4-1.9c-0.3,0.2,0.9,3.4,2.7,7c3.5,7,9.4,14,15.6,18.6c3.6,2.5,3.7,2.8,1.5,2.8
			c-4,0-18.2,5.4-23,8.7c-2.4,1.7-6.2,4.9-8.4,7.2c-2.2,2.2-4.5,4.1-5.1,4.1c-1.7,0-8,12.5-10,20c-1.6,5.4-1.8,10-1.8,28
			c0.1,11.8,0.7,24.4,1.4,28c1.5,8.1,6,22.1,7,21.5c0.4-0.2,1.8,1.9,3.1,4.8c6,12.9,17.8,27.6,29.1,36.4c3.3,2.5,6.9,5.5,8.1,6.7
			c2.5,2.4,15.8,8.3,20.9,9.2c1.8,0.3,6.9,1.4,11.3,2.4c17,4,34.2,3.5,57.5-1.6c31.1-6.9,74.1-25.3,113.6-48.7l14.1-8.4l6.9,1
			c9.7,1.5,84.9,1.5,94.8,0l8-1.2l13.5,8.1c29.6,17.7,62.2,32.9,90.6,42.3c19.3,6.5,31.8,9.2,49,10.7c13.4,1.1,15.7,0.9,39-3.2
			c8.7-1.6,21.2-7,29.7-12.9c7.2-4.9,14-11.1,12.3-11.1c-0.4,0,1.4-2.4,4.2-5.3c6.7-7.1,12.8-16.3,17.6-26.6
			c2.2-4.7,4.4-8.8,4.8-9.2c0.5-0.3,1.8-4.1,3-8.5c1.8-6.6,2.3-11.5,2.6-29.9c0.5-25.5-0.4-32-6.3-44.3
			c-10.4-21.7-35.9-32.7-64.2-27.8l-9.2,1.6l-4.8-2.4c-11.3-5.7-20.1-21.2-31.8-55.8c-8.7-25.5-14.2-38.6-21.9-51.5
			c-3.1-5.1-5.8-9.3-6-9.3c-0.2,0,0.3,2.4,1.1,5.2c2.4,9.2,4.4,26.5,4.4,38.3c0,11.1-0.1,11.5-3.6,18.2c-8.3,16-21.8,27.4-38.9,33
			c-10.9,3.5-31.9,4.4-46,1.8c-5.2-0.9-9.5-2.2-9.5-2.7c0-0.6,1.4-5.4,3.1-10.7c4.8-15,10.7-39.1,13-52.8l2-12.5l-4.2-7.2
			c-4.6-7.7-7.9-12.4-12.2-17.5l-2.7-3.3l-13.3,3.6c-24.8,6.6-42.6,8.9-69.2,8.8c-27.7,0-49.7-3.1-76.2-10.7
			c-28.2-8.1-62.8-24-72-33.3c-2-1.9-4.7-5.9-6-8.9c-1.3-2.9-2.8-5.3-3.2-5.3C1647.1,387.8,1643.6,390,1639.8,392.7z"/>
	</g>
	<g id="layer-3_00000054980043203305635690000006992675333262389424_">
		
			<linearGradient id="region-3-1_00000092452545478912838280000005913813285639799172_" gradientUnits="userSpaceOnUse" x1="851.6521" y1="924.7908" x2="852.2923" y2="926.0107" gradientTransform="matrix(85.587 0 0 84.5 -70561.5703 -78081.5)">
			<stop  offset="0" style="stop-color:#E08D5D;stop-opacity:0.829"/>
			<stop  offset="1" style="stop-color:#FFB585;stop-opacity:0.729"/>
		</linearGradient>
		
			<path id="region-3-1_00000085221353480556511020000013858088073685521575_" style="fill:url(#region-3-1_00000092452545478912838280000005913813285639799172_);" d="
			M2353.1,73.1c-12,4.7-29.2,21.1-35.4,33.7c-4.5,9-5.4,16.8-2.9,24.3c2.5,7.7,10.8,16.1,20.3,20.8c7.5,3.7,7.8,3.8,19.2,3.8
			s11.7-0.1,19.3-3.8c27.2-13.5,33.9-47.9,13.6-70.1c-6.9-7.6-13.3-10.6-22.3-10.6C2360.5,71.3,2356,72,2353.1,73.1z"/>
		
			<linearGradient id="region-3-2_00000109727424654610409560000016021254619976469911_" gradientUnits="userSpaceOnUse" x1="851.8132" y1="924.782" x2="852.1705" y2="926.0013" gradientTransform="matrix(85.4227 0 0 85.0272 -70104.1797 -78568.25)">
			<stop  offset="0" style="stop-color:#E79568;stop-opacity:0.81"/>
			<stop  offset="1" style="stop-color:#FFB483;stop-opacity:0.755"/>
		</linearGradient>
		
			<path id="region-3-2_00000008122155211563058610000006442288755471125412_" style="fill:url(#region-3-2_00000109727424654610409560000016021254619976469911_);" d="
			M2655.6,73.7c-13.8,6.4-23.4,24.4-22,41.5c1,13.3,6.9,24.1,17.6,32.2c8.6,6.6,17.3,9.2,28.9,8.6c13.9-0.8,25.1-6.5,32.9-16.6
			c9.7-12.8,7.4-28.2-6.8-45.1c-7.2-8.5-16.7-16.1-25-20.1C2672.7,70.2,2663.4,70,2655.6,73.7z"/>
		
			<linearGradient id="region-3-3_00000011011878191401963790000001516211861385523088_" gradientUnits="userSpaceOnUse" x1="863.9803" y1="926.3002" x2="863.9803" y2="927.3002" gradientTransform="matrix(48.1921 0 0 48.2529 -39200.0625 -44503.9766)">
			<stop  offset="0" style="stop-color:#574536;stop-opacity:0.746"/>
			<stop  offset="1" style="stop-color:#463426;stop-opacity:0.811"/>
		</linearGradient>
		
			<path id="region-3-3_00000065786965406396241300000009942918995393894306_" style="fill:url(#region-3-3_00000011011878191401963790000001516211861385523088_);" d="
			M2430,193.6c-18.6,5.1-23.4,30.5-7.9,42.3c18.3,14,44.4-3.7,37.9-25.7C2456.1,197.1,2443.2,189.9,2430,193.6z"/>
		
			<linearGradient id="region-3-4_00000157994042957843752200000008009539844031012255_" gradientUnits="userSpaceOnUse" x1="864.1649" y1="926.3111" x2="864.1649" y2="927.3111" gradientTransform="matrix(47.8707 0 0 48.0929 -38772.7656 -44356.3477)">
			<stop  offset="0" style="stop-color:#00191C;stop-opacity:0.42"/>
			<stop  offset="1" style="stop-color:#071916;stop-opacity:0.485"/>
		</linearGradient>
		
			<path id="region-3-4_00000133498419793629112130000007876887524717947576_" style="fill:url(#region-3-4_00000157994042957843752200000008009539844031012255_);" d="
			M2587.5,194c-20.1,7.2-21.7,34.5-2.7,44.5c8.4,4.4,21.5,2,28.3-5.1c8.4-9,8.3-25-0.4-33.6C2605.9,193.1,2596.3,190.9,2587.5,194z"
			/>
		
			<linearGradient id="region-3-5_00000176043384830653958420000007708870203622673811_" gradientUnits="userSpaceOnUse" x1="844.2338" y1="924.1958" x2="844.3746" y2="925.3972" gradientTransform="matrix(169.7309 0 0 127.7646 -140788.0312 -117863.6094)">
			<stop  offset="0" style="stop-color:#F59F72;stop-opacity:0.803"/>
			<stop  offset="1" style="stop-color:#FFB281;stop-opacity:0.789"/>
		</linearGradient>
		
			<path id="region-3-5_00000021804639390838846040000001347004369514297264_" style="fill:url(#region-3-5_00000176043384830653958420000007708870203622673811_);" d="
			M2500.3,222.9c-13.4,2.2-28.2,8-38.6,15c-8.1,5.5-19.2,17.5-23.2,25c-11.8,22.2-8.9,47.7,7.3,63.8c17.4,17.4,51.2,26.3,85.6,22.6
			c39.7-4.3,64.7-22.4,69-50c2.8-18.8-3.7-36.8-19.1-52.1c-12.6-12.6-29.3-20.9-48-23.9C2527.1,222.3,2505.5,222,2500.3,222.9z"/>
		
			<linearGradient id="region-3-6_00000177467620230659810040000000392524801740567216_" gradientUnits="userSpaceOnUse" x1="839.8069" y1="924.5607" x2="840.8683" y2="924.1543" gradientTransform="matrix(338 0 0 187.0984 -281532 -172495.8906)">
			<stop  offset="0" style="stop-color:#FA7165;stop-opacity:0.866"/>
			<stop  offset="1" style="stop-color:#FF000F;stop-opacity:0.355"/>
		</linearGradient>
		
			<path id="region-3-6_00000157293943429124865700000010098983828396954546_" style="fill:url(#region-3-6_00000177467620230659810040000000392524801740567216_);" d="
			M2368.3,360c-5.8,6-8,12.1-8,21.6c0,8.4,2.8,15.3,8.3,20.8c9.2,9.3,43.8,25.2,72,33.3c26.5,7.6,48.5,10.7,76.2,10.7
			c26.6,0.1,44.4-2.2,69.2-8.8l13.3-3.6l2.7,3.3c4.3,5.1,7.6,9.8,12.2,17.5l4.2,7.2l-2,12.5c-2.3,13.7-8.2,37.8-13,52.8
			c-1.7,5.3-3.1,10.1-3.1,10.7c0,0.5,4.3,1.8,9.5,2.7c14.1,2.6,35.1,1.7,46-1.8c17.1-5.6,30.6-17,38.9-33c3.5-6.7,3.6-7.1,3.6-18.5
			c-0.1-43.9-16.3-81.2-44.8-103.3l-3.3-2.5l6.2-3.9c3.4-2.1,7.6-5.1,9.5-6.7c3.2-2.8,3.3-3.1,1.9-5.7c-0.7-1.5-3.2-4.4-5.5-6.5
			l-4.1-3.7l-8.2,7.2c-27.5,23.9-62.5,38.1-105.5,43c-15.9,1.8-55.7,0.7-70.7-2c-39.1-6.8-69.3-20.7-93.8-43.1c-3-2.7-5.8-5-6.3-5
			C2373.3,355.2,2370.8,357.4,2368.3,360z"/>
		
			<linearGradient id="region-3-7_00000066476607355942195010000010366206055942393769_" gradientUnits="userSpaceOnUse" x1="897.0583" y1="928.5814" x2="897.0583" y2="929.5814" gradientTransform="matrix(21.8687 0 0 28.5306 -16956.375 -26124.166)">
			<stop  offset="0" style="stop-color:#A82C4C;stop-opacity:0.771"/>
			<stop  offset="1" style="stop-color:#A12256;stop-opacity:0.81"/>
		</linearGradient>
		
			<path id="region-3-7_00000111192590167856165680000013008672618442281883_" style="fill:url(#region-3-7_00000066476607355942195010000010366206055942393769_);stroke:#000000;stroke-width:2;stroke-miterlimit:10;" d="
			M2666.7,370.3c-1,1.1-5.1,4.1-9.1,6.6l-7.4,4.7l3.3,2.5c1.8,1.4,5.8,4.9,8.9,7.9l5.7,5.3l1.6-4.3c2.5-6,3-12.8,1.6-18.7
			C2669.9,368.2,2669.2,367.6,2666.7,370.3z"/>
		
			<linearGradient id="region-3-8_00000129917650063632554880000008984716335221329585_" gradientUnits="userSpaceOnUse" x1="845.426" y1="923.8637" x2="846.2596" y2="924.9569" gradientTransform="matrix(141.2713 0 0 176.3322 -116758.2891 -162527.375)">
			<stop  offset="0" style="stop-color:#563421;stop-opacity:0.191"/>
			<stop  offset="1" style="stop-color:#A36144;stop-opacity:0.495"/>
		</linearGradient>
		
			<path id="region-3-8_00000018928929332259142440000006589747912614557871_" style="fill:url(#region-3-8_00000129917650063632554880000008984716335221329585_);stroke:#000000;stroke-width:2;stroke-miterlimit:10;" d="
			M2670,391.9c-0.9,3-1.4,5.9-1.1,6.5c0.4,0.6,2.8,3.8,5.3,7.2c5.9,7.8,10.3,16.2,15,28.4c2,5.3,6.2,14,9.4,19.3
			c7.9,13.1,13.4,26,22.1,51.7c11.7,34.6,20.5,50.1,31.8,55.8c4.8,2.4,4.8,2.4,13.5,0.9c4.9-0.9,12-1.5,15.9-1.3
			c6.5,0.2,7.6-0.1,11.5-2.7c5.2-3.7,11.4-11.3,14.5-18c3.5-7.4,3.2-7.8-3.9-4.5c-24.2,11.4-42.4,1.8-59.1-30.9
			c-5-9.8-8.4-18.1-23.9-58.1c-6.4-16.4-12-26.4-20.2-36.3c-5.6-6.8-18.1-17.3-25.2-21.3l-3.8-2.2L2670,391.9z"/>
		
			<linearGradient id="region-3-9_00000159435160208438836000000014978345827189158832_" gradientUnits="userSpaceOnUse" x1="842.1309" y1="923.8474" x2="842.1309" y2="924.8474" gradientTransform="matrix(235.1886 0 0 187.9315 -195543.6406 -173185.9531)">
			<stop  offset="0" style="stop-color:#FA9B70;stop-opacity:0.796"/>
			<stop  offset="1" style="stop-color:#FFB37F;stop-opacity:0.706"/>
		</linearGradient>
		
			<path id="region-3-9_00000069357266803972682960000008606965914263098245_" style="fill:url(#region-3-9_00000159435160208438836000000014978345827189158832_);" d="
			M2429.5,437.9c-23.1,29.7-34.6,70.3-30.3,107c4.3,36.7,20.8,57.6,54.1,68.7c20.7,6.9,49.9,9.7,79.1,7.7
			c40.8-2.7,66.8-12.8,82-31.7c2.1-2.7,5-6.1,6.4-7.6c5-5.4,10.3-20.4,12-34.1l0.7-5.7h-7.8c-9.1,0-25.4-2.7-25.4-4.3
			c0-0.5,1.4-5.3,3.1-10.6c4.8-15,10.7-39.1,13-52.8l2-12.5l-4.2-7.2c-4.6-7.7-7.9-12.4-12.2-17.5l-2.7-3.3l-13.3,3.6
			c-24.8,6.6-42.6,8.9-69.2,8.8c-26.3,0-53.5-3.8-74.5-10.2C2433.6,433.5,2432.9,433.6,2429.5,437.9z"/>
		
			<linearGradient id="region-3-10_00000064334341669851997360000005017572286785791929_" gradientUnits="userSpaceOnUse" x1="856.1954" y1="924.8056" x2="857.4579" y2="924.6907" gradientTransform="matrix(65.446 0 0 127.8218 -53759.8945 -117696.5391)">
			<stop  offset="0" style="stop-color:#EFD5B7;stop-opacity:0.72"/>
			<stop  offset="1" style="stop-color:#FFF4D5;stop-opacity:0.84"/>
		</linearGradient>
		
			<path id="region-3-10_00000165946221741425054210000003957153968400324007_" style="fill:url(#region-3-10_00000064334341669851997360000005017572286785791929_);stroke:#000000;stroke-width:2;stroke-miterlimit:10;" d="
			M2337.9,448.9c-8.8,13.7-16.7,31.7-25.1,57.3c-5.1,15.4-21.1,46.5-26.5,51.4c-2.2,2-5.1,3.8-6.5,4.2c-1.4,0.3-2.5,0.9-2.5,1.3
			c0,0.3,3.3,1.9,7.3,3.6c3.9,1.6,7.5,3.1,7.9,3.3c0.5,0.2,0.8-1,0.8-2.6c0-6.5,5.1-23,10.4-33.7c5.4-11,13.4-20.9,20.9-26.1
			c2.5-1.7,2.9-2.9,4.3-12.4c1.9-12.6,7.1-33.4,11.2-44.8c1.7-4.5,2.9-8.2,2.6-8.2C2342.5,442.2,2340.3,445.2,2337.9,448.9z"/>
		
			<linearGradient id="region-3-11_00000156554978344379866750000009958487777006067131_" gradientUnits="userSpaceOnUse" x1="856.9591" y1="924.2688" x2="856.9591" y2="925.2688" gradientTransform="matrix(64.7309 0 0 125.5051 -52746.4297 -115556.1641)">
			<stop  offset="0" style="stop-color:#FFE1C6;stop-opacity:0.811"/>
			<stop  offset="1" style="stop-color:#FFF0CB;stop-opacity:0.798"/>
		</linearGradient>
		
			<path id="region-3-11_00000026160973701360930730000008410113838554502319_" style="fill:url(#region-3-11_00000156554978344379866750000009958487777006067131_);stroke:#000000;stroke-width:2;stroke-miterlimit:10;" d="
			M2694.5,452.9c1,4.9,3,13.5,4.3,19.3c3.1,13.7,5.5,26.5,5.5,29.9c0,2,0.7,3.1,2.4,3.9c1.3,0.6,5.4,3.9,9.1,7.4
			c6.1,5.7,7.4,7.7,14.2,21.6c5.9,12,7.9,17.4,9.5,25c1,5.3,2,9.7,2.1,9.7c0.1,0.1,3.8-1.3,8.1-3.1l7.9-3.2l-4.9-2.5
			c-11.5-5.8-20.2-21.1-32-55.9c-8.7-25.5-14.2-38.6-21.9-51.5c-3.1-5.1-5.7-9.3-5.9-9.3C2692.7,444.2,2693.5,448.1,2694.5,452.9z"
			/>
		
			<linearGradient id="region-3-12_00000060020976808727382610000000470227276000126636_" gradientUnits="userSpaceOnUse" x1="845.6131" y1="923.7679" x2="846.5997" y2="924.7754" gradientTransform="matrix(138.213 0 0 199.4 -114297.6484 -183696.5)">
			<stop  offset="0" style="stop-color:#4B1100;stop-opacity:0"/>
			<stop  offset="1" style="stop-color:#390E00;stop-opacity:0.293"/>
		</linearGradient>
		
			<path id="region-3-12_00000080197639024314182540000017603950085535660988_" style="fill:url(#region-3-12_00000060020976808727382610000000470227276000126636_);stroke:#000000;stroke-width:2;stroke-miterlimit:10;" d="
			M2705.7,533.3c0,25.1-1.6,40.1-4.9,47.3c-0.7,1.7-2.5,6.6-3.9,10.9c-10.3,31.1-30.1,53.8-60.1,68.9c-12.3,6.2-32.2,12.8-47.5,15.8
			c-6.3,1.2-13,2.5-14.8,2.8c-3.3,0.7-3,0.9,10.5,8.8c7.6,4.5,19.1,10.9,25.5,14.3l11.7,6.2l4.8-2.7c7.4-4.2,16.9-11.1,23.6-17.1
			c24.9-22.2,45.8-59.2,53.6-94.8c1.2-5.5,2.6-10.8,3.2-11.7c1.1-2.2,2.6-12.7,3.4-24.3c0.7-10.8-0.9-31.1-3.3-41.4l-1.7-7.4
			L2705.7,533.3z"/>
		
			<linearGradient id="region-3-13_00000154388684014160826360000006371938593665245343_" gradientUnits="userSpaceOnUse" x1="845.513" y1="924.0311" x2="846.6916" y2="924.8827" gradientTransform="matrix(137.2295 0 0 189.4 -113724.8203 -174456.7031)">
			<stop  offset="0" style="stop-color:#452F00;stop-opacity:0"/>
			<stop  offset="1" style="stop-color:#402E18;stop-opacity:0.206"/>
		</linearGradient>
		
			<path id="region-3-13_00000036213780751867155830000009592183375946355342_" style="fill:url(#region-3-13_00000154388684014160826360000006371938593665245343_);stroke:#000000;stroke-width:2;stroke-miterlimit:10;" d="
			M2324.6,527.8c-2.7,19.3-0.8,51.9,4.2,70.8c8.1,30.9,24.1,60.5,44.4,81.9c9.1,9.5,22.1,19.8,31.1,24.6l5.6,3l12.3-6.5
			c6.8-3.5,18.2-9.9,25.4-14.1l13-7.7l-12.9-2.3c-46.5-8.5-77.1-25.1-97.6-53c-8.2-11.2-18.1-33-19.3-42.9
			c-0.3-1.8-1.2-7.3-2.1-12.1c-0.9-5.1-1.9-17.6-2.3-29.8l-0.6-21L2324.6,527.8z"/>
		
			<linearGradient id="region-3-14_00000162310192483560075530000005309840509639662483_" gradientUnits="userSpaceOnUse" x1="845.6656" y1="923.9216" x2="846.349" y2="925.0878" gradientTransform="matrix(139.2491 0 0 157.2717 -115540.1719 -144741.5625)">
			<stop  offset="0" style="stop-color:#DB8B5D;stop-opacity:0.756"/>
			<stop  offset="1" style="stop-color:#E89365;stop-opacity:0.766"/>
		</linearGradient>
		
			<path id="region-3-14_00000055708408520057441070000004088268899265561490_" style="fill:url(#region-3-14_00000162310192483560075530000005309840509639662483_);" d="
			M2235.8,580.4c-17.8,3.3-33.3,20.2-38.1,41.4c-2.3,10.5-1.5,32.7,1.6,43.4c2.7,9.4,9.4,23.8,15,32.1c5.5,8.1,18.7,21.3,26.5,26.4
			c22.9,15,50.5,17.2,68.9,5.4c26.6-16.8,33.8-58.5,16.6-95.5c-12.5-27-36-48.1-58.8-52.9C2259.6,579.1,2243.9,578.9,2235.8,580.4z"
			/>
		
			<linearGradient id="region-3-15_00000171696240600146081130000008565184858972154258_" gradientUnits="userSpaceOnUse" x1="845.702" y1="923.9111" x2="846.3272" y2="925.0892" gradientTransform="matrix(139.132 0 0 157.8949 -114941.7422 -145316.8594)">
			<stop  offset="0" style="stop-color:#D27F50;stop-opacity:0.595"/>
			<stop  offset="1" style="stop-color:#E28A5F;stop-opacity:0.605"/>
		</linearGradient>
		
			<path id="region-3-15_00000083794917038417531390000002784920725943693459_" style="fill:url(#region-3-15_00000171696240600146081130000008565184858972154258_);" d="
			M2769.3,580.2c-1.4,0.4-4.1,0.8-6,0.9c-4.4,0.1-16.5,5.8-24.5,11.6c-7.6,5.5-18.9,17.1-24.4,25.4c-6,8.9-12.5,23-15.2,33.1
			c-1.9,7.1-2.3,11-2.3,24c0,14.4,0.2,16.1,2.7,23.5c3.8,10.8,8,17.6,15.2,24.4c9.5,8.8,22.7,14,35.8,14.1c6.3,0,18.9-2.6,25.2-5.3
			c19.9-8.4,39-26.7,49.4-47.5c10.2-20.4,13.5-45.2,8.6-64.7c-2.4-9.4-8.2-20-14.5-26.4c-6.9-7-13-10.7-21.2-12.6
			C2791.4,579.1,2773.6,578.8,2769.3,580.2z"/>
	</g>
	<g id="layer-4_00000176029589333434111660000004239818294863716235_">
		
			<linearGradient id="region-4-1_00000112622510566045023830000014577977043410319291_" gradientUnits="userSpaceOnUse" x1="954.2323" y1="933.1358" x2="955.3663" y2="933.3989" gradientTransform="matrix(17.1842 0 0 15.9594 -13253.9453 -14690.5029)">
			<stop  offset="0" style="stop-color:#76543D;stop-opacity:0.787"/>
			<stop  offset="1" style="stop-color:#7E5A43;stop-opacity:0.803"/>
		</linearGradient>
		
			<path id="region-4-1_00000178167605125343167190000010065832656303639447_" style="fill:url(#region-4-1_00000112622510566045023830000014577977043410319291_);" d="
			M3146.4,197.2c-2.9,2.9-0.2,10.2,4.8,13.2c3.3,1.9,8.1,2.1,9.8,0.4c4.4-4.4-2.4-14.8-9.6-14.8
			C3149.3,196,3147.1,196.5,3146.4,197.2z"/>
		
			<linearGradient id="region-4-2_00000048465991571648101540000012712399965407049392_" gradientUnits="userSpaceOnUse" x1="958.4008" y1="933.486" x2="959.5432" y2="933.1918" gradientTransform="matrix(16.5984 0 0 15.8568 -12605.1973 -14595.7178)">
			<stop  offset="0" style="stop-color:#755740;stop-opacity:0.788"/>
			<stop  offset="1" style="stop-color:#7C5C42;stop-opacity:0.805"/>
		</linearGradient>
		
			<path id="region-4-2_00000123429343921743571410000005299664921156716984_" style="fill:url(#region-4-2_00000048465991571648101540000012712399965407049392_);" d="
			M3305.5,196.7c-1.8,0.7-1.6,7.4,0.3,10.1c3.5,5,12.4,7,14.4,3.1c2.8-5.1-3.9-14-10.3-13.8C3308.1,196.1,3306.1,196.4,3305.5,196.7
			z"/>
		
			<linearGradient id="region-4-3_00000029007385198041085700000015472442202093606805_" gradientUnits="userSpaceOnUse" x1="873.9365" y1="928.9846" x2="873.9365" y2="929.9846" gradientTransform="matrix(54.3096 0 0 26.0671 -44238.1719 -23984.5371)">
			<stop  offset="0" style="stop-color:#081511;stop-opacity:0.436"/>
			<stop  offset="1" style="stop-color:#000C07;stop-opacity:0.473"/>
		</linearGradient>
		
			<path id="region-4-3_00000086653516296206088800000001002996085670274701_" style="fill:url(#region-4-3_00000029007385198041085700000015472442202093606805_);stroke:#000000;stroke-width:2;stroke-miterlimit:10;" d="
			M3215.5,232c-10.9,2.3-17.4,7.3-17.6,13.5c-0.1,3,0.5,4.3,3.1,6.6c4.6,4.1,10.1,5.4,23.7,5.4c13.7,0,20.2-1.4,24.5-5.5
			c6.5-6.1,2-15.1-9.3-18.5C3233.4,231.6,3221.1,230.8,3215.5,232z"/>
		
			<linearGradient id="region-4-4_00000112633535312823922860000013767259887807285153_" gradientUnits="userSpaceOnUse" x1="860.947" y1="925.558" x2="862.0726" y2="925.8854" gradientTransform="matrix(81.1964 0 0 69.708 -66728.875 -64257.4922)">
			<stop  offset="0" style="stop-color:#57402F;stop-opacity:0.69"/>
			<stop  offset="1" style="stop-color:#351E10;stop-opacity:0.824"/>
		</linearGradient>
		
			<path id="region-4-4_00000151501667157576002900000012727932025701378491_" style="fill:url(#region-4-4_00000112633535312823922860000013767259887807285153_);" d="
			M3193.6,243.4c-4,3.9-4.4,4.8-4.4,9.1c0,4.1,0.5,5.2,3.5,8c4.2,4.1,10.3,6.2,21.7,7.6l8.8,1.2v12c0,14.5-1.2,17.2-9.5,21.2
			c-4.3,2.2-6.2,2.6-9.4,2c-5.2-0.9-9.8-4-13.6-9.2c-3.3-4.6-3.4-4.7-5.5-3.3c-1.8,1.1-0.1,4.5,4.9,9.6c5.4,5.4,8.7,6.8,16.1,6.8
			c7.2,0,13.3-2.5,16.8-6.8l1.9-2.5l2.4,2.5c5.4,5.8,14.9,8.5,22.4,6.4c7.8-2.2,18.9-13.9,15.3-16.1c-2-1.3-2.2-1.2-4.1,2
			c-4.6,7.9-13.8,12.3-21.2,10.1c-10.4-3.1-12.5-7-12.5-22.8v-12l5.8-0.6c22.4-2.5,32.4-10.6,26.7-21.6c-1.4-2.7-7.3-8-8.9-8
			c-0.4,0-0.2,0.9,0.4,1.9c3.2,6.2-0.9,12.6-9.7,15.2c-6.1,1.8-27.2,1.8-33.1,0.1c-6.5-2-10.6-6.1-10.5-10.6c0.1-2,0.7-4.3,1.3-5.1
			c1-1.2,1-1.5,0-1.5C3198.5,239,3196,241,3193.6,243.4z"/>
		
			<linearGradient id="region-4-5_00000100373872451848116390000006070397132903051449_" gradientUnits="userSpaceOnUse" x1="844.4166" y1="924.9913" x2="844.4166" y2="925.9913" gradientTransform="matrix(256.8213 0 0 78.34 -213666.5625 -72098.8359)">
			<stop  offset="0" style="stop-color:#9E344B;stop-opacity:0.709"/>
			<stop  offset="1" style="stop-color:#962C62;stop-opacity:0.814"/>
		</linearGradient>
		
			<path id="region-4-5_00000052813666959767528500000016754559622842515090_" style="fill:url(#region-4-5_00000100373872451848116390000006070397132903051449_);" d="
			M3070.3,368.1c-0.6,1.8-1.1,6.4-1.1,10.3c0,13.1,5.3,20.6,20.7,29.5c22.7,12.9,53.8,24.4,81.7,30.1c32.2,6.6,69.6,7.1,101.6,1.4
			c18.9-3.4,51.7-13.4,52.7-16.2c0.9-2.2-3.4-14.5-6.6-19l-3-4l-12.8,4.3c-13.4,4.5-29.9,8.5-44.3,10.7c-13.4,2-54.7,1.7-69-0.5
			c-25.6-4.1-54-12.9-77.5-24.2c-14-6.8-32-17.6-36.5-22c-2-1.9-3.9-3.5-4.2-3.5S3070.9,366.4,3070.3,368.1z"/>
		
			<linearGradient id="region-4-6_00000144333526674775427390000014930767691866494126_" gradientUnits="userSpaceOnUse" x1="937.7123" y1="927.5881" x2="937.7123" y2="928.5881" gradientTransform="matrix(20.0881 0 0 34.0014 -15518.8398 -31115.209)">
			<stop  offset="0" style="stop-color:#7C9C5E;stop-opacity:0.444"/>
			<stop  offset="1" style="stop-color:#719D52;stop-opacity:0.49"/>
		</linearGradient>
		
			<path id="region-4-6_00000166672042261507198690000011581778449643006096_" style="fill:url(#region-4-6_00000144333526674775427390000014930767691866494126_);" d="
			M3316.8,427.4l-8.8,3.3l2.9,3.4c3.7,4.3,8.2,10.8,12.6,18.2l3.4,5.8l0.7-4.7c1.1-8.6,0.2-29.5-1.3-29.3
			C3326,424.1,3321.7,425.6,3316.8,427.4z"/>
		
			<linearGradient id="region-4-7_00000102505649073842831710000008625161929022750599_" gradientUnits="userSpaceOnUse" x1="841.6531" y1="923.8937" x2="841.6531" y2="924.8937" gradientTransform="matrix(394.5508 0 0 174.5594 -328945.5 -160889.3438)">
			<stop  offset="0" style="stop-color:#74401F;stop-opacity:0.127"/>
			<stop  offset="1" style="stop-color:#AF7B59;stop-opacity:0.357"/>
		</linearGradient>
		
			<path id="region-4-7_00000107582880704577185410000011566715667758128785_" style="fill:url(#region-4-7_00000102505649073842831710000008625161929022750599_);stroke:#000000;stroke-width:2;stroke-miterlimit:10;" d="
			M3060.6,389.9c-13.3,9.3-24.3,21.9-31.4,36.1c-2,4.1-8.1,19-13.5,33c-11.1,28.9-18.4,45-24.9,54.8c-8.6,12.9-19.9,21.3-30.7,22.8
			c-5.3,0.7-15.1-1.5-22.4-5.1c-2.7-1.3-5.1-2.2-5.4-1.9c-1.1,1.1,6.3,13.9,10.6,18.6c8.1,8.6,8.7,8.8,22,9.3
			c6.5,0.2,13.5,0.8,15.6,1.5c4.9,1.5,9.6,0,14.8-4.7c5.3-4.8,21.4-36.1,26.4-51.3c5.5-16.6,11.6-32.3,16.5-42
			c3.6-7.1,6.2-11.4,14.2-23.4c0.4-0.6,3-6.1,5.8-12.1l5.1-11l9.4,0.6c19,1.4,33.4,6.4,83.3,28.5c58.1,25.8,83.6,33.9,114.2,35.9
			c16.2,1.1,36.9-2.2,49.9-8.1c5.8-2.6,5.8-2.6,6.4-7.7c0.6-4.8,0.3-5.7-3.5-12.2c-4.5-7.6-7.8-12.3-12.1-17.4l-2.7-3.3l-13.3,3.6
			c-24.8,6.6-42.6,8.9-69.2,8.8c-27.7,0-49.7-3.1-76.2-10.7c-28.2-8.1-62.8-24-72-33.3c-2-1.9-4.7-5.9-6-8.9
			c-1.3-2.9-2.8-5.3-3.2-5.3C3067.9,385,3064.4,387.2,3060.6,389.9z"/>
		
			<linearGradient id="region-4-8_00000070836997290600473780000004837608145774510514_" gradientUnits="userSpaceOnUse" x1="858.6288" y1="924.4589" x2="859.4407" y2="925.5802" gradientTransform="matrix(90.2114 0 0 102.3039 -74526.1016 -93975.3906)">
			<stop  offset="0" style="stop-color:#EB9C6E;stop-opacity:0.752"/>
			<stop  offset="1" style="stop-color:#FBA97B;stop-opacity:0.791"/>
		</linearGradient>
		
			<path id="region-4-8_00000175316531956625259550000015878678693423575709_" style="fill:url(#region-4-8_00000070836997290600473780000004837608145774510514_);" d="
			M2947.7,608.4c-23,7.2-31,38.7-16.9,67.2c9.9,20.1,28.8,33.5,47.4,33.8c11,0.1,17-2.3,24.6-9.8c7.6-7.6,10.4-14.3,11.1-26.7
			c2.1-33.3-25.1-66-54.7-65.8C2955.1,607.1,2949.9,607.7,2947.7,608.4z"/>
		
			<linearGradient id="region-4-9_00000101087799386130357610000011326844755427613118_" gradientUnits="userSpaceOnUse" x1="858.7918" y1="924.4204" x2="859.1796" y2="925.5997" gradientTransform="matrix(90.4073 0 0 102.6297 -74178.0469 -94276.1328)">
			<stop  offset="0" style="stop-color:#E99A6D;stop-opacity:0.76"/>
			<stop  offset="1" style="stop-color:#FCAA7B;stop-opacity:0.803"/>
		</linearGradient>
		
			<path id="region-4-9_00000047058027834272425930000008184105434197854080_" style="fill:url(#region-4-9_00000101087799386130357610000011326844755427613118_);" d="
			M3478.7,608.4c-17,5.4-32,20.4-39,38.9c-5.3,14.3-5.4,30.7-0.1,42.3c6.7,14.6,22.1,22.4,38.1,19.5c29.7-5.4,53.3-41.2,47.5-72.2
			c-2.4-13-10.8-23.8-21.6-27.9C3497.3,606.7,3485.1,606.4,3478.7,608.4z"/>
	</g>
	<line class="st63" x1="718" y1="0" x2="718" y2="766"/>
	<line class="st63" x1="1436" y1="0" x2="1436" y2="763.2"/>
	<line class="st63" x1="2154" y1="0" x2="2154" y2="766"/>
	<line class="st63" x1="2872" y1="0" x2="2872" y2="763.2"/>
</g>
</svg>
