<?xml version="1.0" standalone="no"?><!DOCTYPE svg PUBLIC "-//W3C//DTD SVG 20010904//EN" "http://www.w3.org/TR/2001/REC-SVG-20010904/DTD/svg10.dtd"><svg version="1.0" xmlns="http://www.w3.org/2000/svg" width="210pt" height="500pt" viewBox="0 0 210 500" preserveAspectRatio="xMidYMid meet"><defs><linearGradient id="linear-gradient-1-1" x1="0.00%" y1="100.00%" x2="10.55%" y2="-8.73%"><stop offset="0%" style="stop-color:rgb(201,226,241);stop-opacity:0.990" /><stop offset="100%" style="stop-color:rgb(94,156,147);stop-opacity:0.990" /></linearGradient><linearGradient id="linear-gradient-2-1" x1="0.00%" y1="100.00%" x2="77.33%" y2="-784.21%"><stop offset="0%" style="stop-color:rgb(33,103,0);stop-opacity:0.766" /><stop offset="100%" style="stop-color:rgb(76,121,3);stop-opacity:0.790" /></linearGradient><linearGradient id="linear-gradient-2-2" x1="0.00%" y1="100.00%" x2="42.94%" y2="-57.33%"><stop offset="0%" style="stop-color:rgb(20,68,0);stop-opacity:0.854" /><stop offset="100%" style="stop-color:rgb(138,185,2);stop-opacity:0.498" /></linearGradient><linearGradient id="linear-gradient-2-3" x1="0.00%" y1="100.00%" x2="113.37%" y2="87.80%"><stop offset="0%" style="stop-color:rgb(255,255,255);stop-opacity:0.821" /><stop offset="100%" style="stop-color:rgb(255,255,255);stop-opacity:0.783" /></linearGradient><linearGradient id="linear-gradient-3-1" x1="0.00%" y1="100.00%" x2="0.00%" y2="-0.00%"><stop offset="0%" style="stop-color:rgb(189,208,175);stop-opacity:0.764" /><stop offset="100%" style="stop-color:rgb(201,220,188);stop-opacity:0.812" /></linearGradient><linearGradient id="linear-gradient-3-2" x1="0.00%" y1="100.00%" x2="101.25%" y2="12.53%"><stop offset="0%" style="stop-color:rgb(229,235,208);stop-opacity:0.321" /><stop offset="100%" style="stop-color:rgb(255,255,241);stop-opacity:0.452" /></linearGradient><linearGradient id="linear-gradient-3-3" x1="0.00%" y1="100.00%" x2="0.00%" y2="-0.00%"><stop offset="0%" style="stop-color:rgb(133,160,113);stop-opacity:0.784" /><stop offset="100%" style="stop-color:rgb(139,166,119);stop-opacity:0.808" /></linearGradient><linearGradient id="linear-gradient-3-4" x1="0.00%" y1="100.00%" x2="31.42%" y2="-60.92%"><stop offset="0%" style="stop-color:rgb(255,250,255);stop-opacity:0.864" /><stop offset="100%" style="stop-color:rgb(255,247,255);stop-opacity:0.780" /></linearGradient><linearGradient id="linear-gradient-3-5" x1="0.00%" y1="100.00%" x2="89.41%" y2="-49.34%"><stop offset="0%" style="stop-color:rgb(255,254,255);stop-opacity:0.869" /><stop offset="100%" style="stop-color:rgb(255,254,255);stop-opacity:0.820" /></linearGradient><linearGradient id="linear-gradient-3-6" x1="0.00%" y1="0.00%" x2="100.34%" y2="39.77%"><stop offset="0%" style="stop-color:rgb(141,167,117);stop-opacity:0.718" /><stop offset="100%" style="stop-color:rgb(166,193,142);stop-opacity:0.819" /></linearGradient><linearGradient id="linear-gradient-3-7" x1="0.00%" y1="0.00%" x2="100.12%" y2="98.60%"><stop offset="0%" style="stop-color:rgb(133,158,111);stop-opacity:0.721" /><stop offset="100%" style="stop-color:rgb(162,188,140);stop-opacity:0.835" /></linearGradient><linearGradient id="linear-gradient-3-8" x1="0.00%" y1="0.00%" x2="70.54%" y2="241.79%"><stop offset="0%" style="stop-color:rgb(213,235,189);stop-opacity:0.847" /><stop offset="100%" style="stop-color:rgb(192,225,156);stop-opacity:0.771" /></linearGradient><linearGradient id="linear-gradient-3-9" x1="0.00%" y1="100.00%" x2="7.72%" y2="-22.84%"><stop offset="0%" style="stop-color:rgb(199,216,180);stop-opacity:0.810" /><stop offset="100%" style="stop-color:rgb(193,212,173);stop-opacity:0.790" /></linearGradient><linearGradient id="linear-gradient-3-10" x1="0.00%" y1="100.00%" x2="0.00%" y2="-0.00%"><stop offset="0%" style="stop-color:rgb(212,229,195);stop-opacity:0.818" /><stop offset="100%" style="stop-color:rgb(204,224,183);stop-opacity:0.781" /></linearGradient><linearGradient id="linear-gradient-3-11" x1="0.00%" y1="0.00%" x2="92.71%" y2="117.62%"><stop offset="0%" style="stop-color:rgb(244,243,235);stop-opacity:0.388" /><stop offset="100%" style="stop-color:rgb(255,255,255);stop-opacity:0.524" /></linearGradient><linearGradient id="linear-gradient-3-12" x1="0.00%" y1="100.00%" x2="243.62%" y2="96.13%"><stop offset="0%" style="stop-color:rgb(255,255,255);stop-opacity:0.779" /><stop offset="100%" style="stop-color:rgb(255,255,255);stop-opacity:0.816" /></linearGradient><linearGradient id="linear-gradient-3-13" x1="0.00%" y1="100.00%" x2="115.84%" y2="97.02%"><stop offset="0%" style="stop-color:rgb(255,255,255);stop-opacity:0.800" /><stop offset="100%" style="stop-color:rgb(255,255,255);stop-opacity:0.800" /></linearGradient><linearGradient id="linear-gradient-3-14" x1="0.00%" y1="100.00%" x2="0.00%" y2="0.00%"><stop offset="0%" style="stop-color:rgb(182,12,0);stop-opacity:0.798" /><stop offset="100%" style="stop-color:rgb(184,30,17);stop-opacity:0.801" /></linearGradient><linearGradient id="linear-gradient-3-15" x1="0.00%" y1="100.00%" x2="16.62%" y2="-0.96%"><stop offset="0%" style="stop-color:rgb(97,137,0);stop-opacity:0.612" /><stop offset="100%" style="stop-color:rgb(46,96,3);stop-opacity:0.812" /></linearGradient><linearGradient id="linear-gradient-3-16" x1="0.00%" y1="100.00%" x2="1.98%" y2="-417.54%"><stop offset="0%" style="stop-color:rgb(85,1,2);stop-opacity:0.067" /><stop offset="100%" style="stop-color:rgb(83,0,0);stop-opacity:0.130" /></linearGradient><linearGradient id="linear-gradient-3-17" x1="0.00%" y1="100.00%" x2="161.92%" y2="20.96%"><stop offset="0%" style="stop-color:rgb(255,247,248);stop-opacity:0.498" /><stop offset="100%" style="stop-color:rgb(255,246,247);stop-opacity:0.448" /></linearGradient><linearGradient id="linear-gradient-3-18" x1="0.00%" y1="100.00%" x2="91.18%" y2="-0.97%"><stop offset="0%" style="stop-color:rgb(150,17,38);stop-opacity:0.023" /><stop offset="100%" style="stop-color:rgb(153,16,38);stop-opacity:0.107" /></linearGradient><linearGradient id="linear-gradient-3-19" x1="0.00%" y1="100.00%" x2="156.65%" y2="12.28%"><stop offset="0%" style="stop-color:rgb(172,33,51);stop-opacity:0.049" /><stop offset="100%" style="stop-color:rgb(177,32,51);stop-opacity:0.088" /></linearGradient><linearGradient id="linear-gradient-3-20" x1="0.00%" y1="100.00%" x2="90.22%" y2="-1.06%"><stop offset="0%" style="stop-color:rgb(154,4,26);stop-opacity:0.021" /><stop offset="100%" style="stop-color:rgb(157,2,25);stop-opacity:0.098" /></linearGradient><linearGradient id="linear-gradient-3-21" x1="0.00%" y1="100.00%" x2="149.61%" y2="10.01%"><stop offset="0%" style="stop-color:rgb(175,30,52);stop-opacity:0.048" /><stop offset="100%" style="stop-color:rgb(180,29,52);stop-opacity:0.085" /></linearGradient><linearGradient id="linear-gradient-3-22" x1="0.00%" y1="100.00%" x2="72.01%" y2="-2.39%"><stop offset="0%" style="stop-color:rgb(161,9,34);stop-opacity:0.020" /><stop offset="100%" style="stop-color:rgb(164,7,33);stop-opacity:0.098" /></linearGradient><linearGradient id="linear-gradient-3-23" x1="0.00%" y1="100.00%" x2="141.04%" y2="7.61%"><stop offset="0%" style="stop-color:rgb(181,25,48);stop-opacity:0.046" /><stop offset="100%" style="stop-color:rgb(186,24,47);stop-opacity:0.081" /></linearGradient><linearGradient id="linear-gradient-3-24" x1="0.00%" y1="100.00%" x2="57.03%" y2="-3.90%"><stop offset="0%" style="stop-color:rgb(166,5,26);stop-opacity:0.018" /><stop offset="100%" style="stop-color:rgb(170,3,25);stop-opacity:0.094" /></linearGradient><linearGradient id="linear-gradient-3-25" x1="0.00%" y1="100.00%" x2="132.99%" y2="5.65%"><stop offset="0%" style="stop-color:rgb(186,23,47);stop-opacity:0.044" /><stop offset="100%" style="stop-color:rgb(192,21,47);stop-opacity:0.077" /></linearGradient><linearGradient id="linear-gradient-4-1" x1="0.00%" y1="100.00%" x2="33.06%" y2="-72.66%"><stop offset="0%" style="stop-color:rgb(253,253,253);stop-opacity:0.787" /><stop offset="100%" style="stop-color:rgb(255,255,255);stop-opacity:0.812" /></linearGradient><linearGradient id="linear-gradient-4-2" x1="0.00%" y1="100.00%" x2="6.71%" y2="-62.55%"><stop offset="0%" style="stop-color:rgb(53,108,0);stop-opacity:0.799" /><stop offset="100%" style="stop-color:rgb(57,111,0);stop-opacity:0.809" /></linearGradient><linearGradient id="linear-gradient-4-3" x1="0.00%" y1="100.00%" x2="3.88%" y2="-30.61%"><stop offset="0%" style="stop-color:rgb(54,108,0);stop-opacity:0.800" /><stop offset="100%" style="stop-color:rgb(57,111,0);stop-opacity:0.810" /></linearGradient><linearGradient id="linear-gradient-4-4" x1="0.00%" y1="100.00%" x2="5.38%" y2="-53.76%"><stop offset="0%" style="stop-color:rgb(54,108,0);stop-opacity:0.800" /><stop offset="100%" style="stop-color:rgb(57,111,0);stop-opacity:0.809" /></linearGradient><linearGradient id="linear-gradient-4-5" x1="0.00%" y1="100.00%" x2="15.00%" y2="-65.31%"><stop offset="0%" style="stop-color:rgb(54,108,0);stop-opacity:0.795" /><stop offset="100%" style="stop-color:rgb(57,111,0);stop-opacity:0.809" /></linearGradient><linearGradient id="linear-gradient-4-6" x1="0.00%" y1="100.00%" x2="7.21%" y2="-58.95%"><stop offset="0%" style="stop-color:rgb(54,109,0);stop-opacity:0.797" /><stop offset="100%" style="stop-color:rgb(57,111,0);stop-opacity:0.808" /></linearGradient><linearGradient id="linear-gradient-4-7" x1="0.00%" y1="100.00%" x2="14.94%" y2="-70.70%"><stop offset="0%" style="stop-color:rgb(54,108,0);stop-opacity:0.801" /><stop offset="100%" style="stop-color:rgb(57,111,0);stop-opacity:0.808" /></linearGradient><linearGradient id="linear-gradient-4-8" x1="0.00%" y1="100.00%" x2="6.67%" y2="-45.78%"><stop offset="0%" style="stop-color:rgb(54,108,0);stop-opacity:0.800" /><stop offset="100%" style="stop-color:rgb(57,111,0);stop-opacity:0.809" /></linearGradient><linearGradient id="linear-gradient-4-9" x1="0.00%" y1="100.00%" x2="16.48%" y2="-59.27%"><stop offset="0%" style="stop-color:rgb(54,108,0);stop-opacity:0.798" /><stop offset="100%" style="stop-color:rgb(57,111,0);stop-opacity:0.806" /></linearGradient><linearGradient id="linear-gradient-4-10" x1="0.00%" y1="100.00%" x2="17.55%" y2="-61.47%"><stop offset="0%" style="stop-color:rgb(54,108,0);stop-opacity:0.798" /><stop offset="100%" style="stop-color:rgb(57,111,0);stop-opacity:0.806" /></linearGradient><linearGradient id="linear-gradient-4-11" x1="0.00%" y1="100.00%" x2="9.17%" y2="-56.90%"><stop offset="0%" style="stop-color:rgb(54,108,0);stop-opacity:0.800" /><stop offset="100%" style="stop-color:rgb(57,111,0);stop-opacity:0.809" /></linearGradient><linearGradient id="linear-gradient-5-1" x1="0.00%" y1="100.00%" x2="0.27%" y2="-5.77%"><stop offset="0%" style="stop-color:rgb(255,255,255);stop-opacity:0.898" /><stop offset="100%" style="stop-color:rgb(255,255,255);stop-opacity:0.903" /></linearGradient><linearGradient id="linear-gradient-5-2" x1="0.00%" y1="100.00%" x2="3.82%" y2="-25.86%"><stop offset="0%" style="stop-color:rgb(255,255,255);stop-opacity:0.898" /><stop offset="100%" style="stop-color:rgb(255,255,255);stop-opacity:0.903" /></linearGradient><linearGradient id="linear-gradient-5-3" x1="0.00%" y1="100.00%" x2="2.91%" y2="-21.72%"><stop offset="0%" style="stop-color:rgb(255,255,255);stop-opacity:0.901" /><stop offset="100%" style="stop-color:rgb(255,255,255);stop-opacity:0.901" /></linearGradient><linearGradient id="linear-gradient-5-4" x1="0.00%" y1="100.00%" x2="1.57%" y2="-12.84%"><stop offset="0%" style="stop-color:rgb(255,255,255);stop-opacity:0.901" /><stop offset="100%" style="stop-color:rgb(255,255,255);stop-opacity:0.899" /></linearGradient></defs><g id="layer-1"><path d="M0 2500 l0 -2500 1050 0 1050 0 0 2500 0 2500 -1050 0 -1050 0 0 -2500z" fill="url(#linear-gradient-1-1)" id="region-1-1" transform="translate(0.000000,500.000000) scale(0.100000,-0.100000)"/></g><g id="layer-2"><path d="M300 4520 l0 -80 705 0 705 0 0 80 0 80 -705 0 -705 0 0 -80z" fill="url(#linear-gradient-2-1)" id="region-2-1" transform="translate(0.000000,500.000000) scale(0.100000,-0.100000)"/><path d="M330 4428 c0 -32 52 -766 56 -785 4 -22 9 -23 93 -23 158 0 381 -53 493 -118 255 -148 446 -373 559 -661 l37 -94 6 64 c6 59 116 1599 116 1620 0 5 -276 9 -680 9 -537 0 -680 -3 -680 -12z" fill="url(#linear-gradient-2-2)" id="region-2-2" transform="translate(0.000000,500.000000) scale(0.100000,-0.100000)"/><path d="M390 3594 c0 -14 43 -620 95 -1346 92 -1275 95 -1331 95 -1654 l0 -334 430 0 430 0 0 328 c-1 300 4 394 57 1142 31 448 61 817 65 818 4 2 8 46 8 98 0 85 -4 105 -36 187 -112 290 -305 520 -562 669 -112 65 -335 118 -493 118 l-89 0 0 -26z" fill="url(#linear-gradient-2-3)" id="region-2-3" transform="translate(0.000000,500.000000) scale(0.100000,-0.100000)"/></g><g id="layer-3"><path d="M1259 4388 c-12 -18 -51 -63 -87 -100 -56 -57 -63 -69 -52 -82 27 -34 38 -21 144 167 31 54 28 63 -5 15z" fill="url(#linear-gradient-3-1)" id="region-3-1" transform="translate(0.000000,500.000000) scale(0.100000,-0.100000)"/><path d="M527 4316 c7 -13 231 -186 240 -186 2 0 3 11 3 25 0 14 -4 25 -10 25 -5 0 -62 34 -125 75 -64 41 -112 69 -108 61z" fill="url(#linear-gradient-3-2)" id="region-3-2" transform="translate(0.000000,500.000000) scale(0.100000,-0.100000)"/><path d="M1383 4260 c-34 -21 -72 -45 -85 -54 l-22 -16 25 0 c22 0 159 91 159 105 0 10 -17 2 -77 -35z" fill="url(#linear-gradient-3-3)" id="region-3-3" transform="translate(0.000000,500.000000) scale(0.100000,-0.100000)"/><path d="M829 4247 c-64 -43 -79 -125 -34 -191 l25 -37 -21 -30 c-13 -19 -21 -46 -21 -74 -1 -56 27 -90 86 -106 85 -23 247 13 297 67 22 23 24 35 27 139 l4 114 -41 43 c-32 35 -56 50 -118 71 -97 34 -158 35 -204 4z" fill="url(#linear-gradient-3-4)" id="region-3-4" transform="translate(0.000000,500.000000) scale(0.100000,-0.100000)"/><path d="M1164 4159 c24 -28 26 -37 26 -132 0 -71 -5 -111 -15 -131 -9 -16 -14 -30 -13 -31 2 -2 75 -6 163 -9 123 -5 166 -4 185 6 28 15 38 59 17 76 -7 6 -72 28 -143 47 -71 20 -138 40 -149 45 l-20 9 20 0 c37 2 220 52 243 67 32 21 27 65 -8 75 -14 4 -94 7 -178 8 l-154 1 26 -31z" fill="url(#linear-gradient-3-5)" id="region-3-5" transform="translate(0.000000,500.000000) scale(0.100000,-0.100000)"/><path d="M720 3955 c-30 -8 -75 -18 -100 -23 -40 -9 -34 -10 58 -11 l102 -1 0 25 c0 14 -1 25 -2 24 -2 -1 -28 -7 -58 -14z" fill="url(#linear-gradient-3-6)" id="region-3-6" transform="translate(0.000000,500.000000) scale(0.100000,-0.100000)"/><path d="M693 3797 c-140 -106 -135 -117 9 -21 44 30 87 54 96 54 12 0 12 3 2 15 -7 8 -15 15 -19 14 -3 0 -43 -28 -88 -62z" fill="url(#linear-gradient-3-7)" id="region-3-7" transform="translate(0.000000,500.000000) scale(0.100000,-0.100000)"/><path d="M1215 3838 c22 -11 47 -29 55 -38 17 -20 180 -104 187 -97 2 3 -26 29 -64 59 -118 92 -129 98 -175 98 l-43 -1 40 -21z" fill="url(#linear-gradient-3-8)" id="region-3-8" transform="translate(0.000000,500.000000) scale(0.100000,-0.100000)"/><path d="M1111 3840 c-11 -6 -5 -19 25 -54 33 -40 54 -56 54 -42 0 2 -15 27 -33 54 -23 36 -37 48 -46 42z" fill="url(#linear-gradient-3-9)" id="region-3-9" transform="translate(0.000000,500.000000) scale(0.100000,-0.100000)"/><path d="M1035 3810 c-4 -6 3 -39 14 -73 11 -34 25 -82 30 -107 l10 -45 -5 50 c-3 28 -8 80 -11 118 -4 45 -10 67 -19 67 -7 0 -16 -5 -19 -10z" fill="url(#linear-gradient-3-10)" id="region-3-10" transform="translate(0.000000,500.000000) scale(0.100000,-0.100000)"/><path d="M817 3743 c-21 -37 -60 -106 -87 -153 -62 -106 -64 -130 -5 -53 40 51 67 88 132 183 9 14 28 37 42 53 17 19 20 27 10 27 -8 0 -23 3 -34 6 -17 4 -27 -7 -58 -63z" fill="url(#linear-gradient-3-11)" id="region-3-11" transform="translate(0.000000,500.000000) scale(0.100000,-0.100000)"/><path d="M786 3518 c-4 -29 -18 -171 -31 -315 -25 -261 -25 -271 -25 -1328 l0 -1065 55 0 55 0 0 1374 c0 1244 -2 1374 -16 1380 -29 11 -33 6 -38 -46z" fill="url(#linear-gradient-3-12)" id="region-3-12" transform="translate(0.000000,500.000000) scale(0.100000,-0.100000)"/><path d="M1071 2871 c-8 -5 -17 -26 -21 -47 l-8 -39 -1 36 c-1 38 -13 49 -52 49 -11 0 -22 -7 -26 -16 -5 -15 -7 -15 -15 0 -6 10 -22 16 -43 16 -31 0 -35 -3 -40 -32 -3 -18 -4 -112 -2 -208 4 -187 9 -208 56 -231 l26 -12 -33 -11 c-54 -19 -70 -71 -33 -103 18 -15 18 -18 4 -40 -16 -23 -27 -179 -15 -210 2 -8 21 -13 43 -13 32 0 39 -3 39 -20 0 -16 -7 -20 -35 -20 -50 0 -57 -21 -51 -148 2 -59 4 -118 4 -132 -2 -68 3 -96 22 -122 l21 -28 -22 -30 c-21 -28 -24 -46 -21 -125 1 -16 -1 -63 -4 -103 -3 -41 -3 -84 0 -97 11 -45 86 -45 86 1 0 23 2 24 83 24 45 0 88 4 95 9 8 5 12 23 10 47 -3 37 -5 39 -43 44 -34 5 -37 7 -18 13 62 22 85 128 42 188 l-20 29 20 26 c15 19 21 41 21 75 0 40 -5 55 -31 84 -17 19 -38 36 -48 37 -9 0 4 4 29 7 45 6 45 6 45 46 l0 40 -92 3 c-51 1 -93 7 -93 12 0 5 42 11 93 12 l92 3 0 40 0 40 -47 3 c-39 3 -48 7 -48 22 0 15 9 19 48 22 l47 3 3 69 c3 74 -3 86 -45 86 -37 0 -28 28 10 32 30 3 32 5 32 43 0 33 -4 42 -27 53 -36 17 -35 25 2 39 l30 11 0 88 c0 81 -2 90 -26 115 l-25 26 25 7 c22 5 26 12 26 46 0 46 -4 48 -120 53 l-75 3 82 2 c117 3 113 0 113 97 0 66 -3 84 -16 89 -21 8 -36 7 -53 -3z" fill="url(#linear-gradient-3-13)" id="region-3-13" transform="translate(0.000000,500.000000) scale(0.100000,-0.100000)"/><path d="M1266 2733 l-46 -38 0 -303 0 -304 50 42 50 42 0 299 c0 164 -2 299 -4 299 -2 0 -24 -17 -50 -37z" fill="url(#linear-gradient-3-14)" id="region-3-14" transform="translate(0.000000,500.000000) scale(0.100000,-0.100000)"/><path d="M1268 2129 l-48 -41 0 -449 0 -449 50 0 50 0 0 490 c0 270 -1 490 -2 490 -2 -1 -24 -19 -50 -41z" fill="url(#linear-gradient-3-15)" id="region-3-15" transform="translate(0.000000,500.000000) scale(0.100000,-0.100000)"/><path d="M600 765 l0 -25 415 0 415 0 0 25 0 25 -415 0 -415 0 0 -25z" fill="url(#linear-gradient-3-16)" id="region-3-16" transform="translate(0.000000,500.000000) scale(0.100000,-0.100000)"/><path d="M630 500 l0 -200 30 0 30 0 0 200 0 200 -30 0 -30 0 0 -200z" fill="url(#linear-gradient-3-17)" id="region-3-17" transform="translate(0.000000,500.000000) scale(0.100000,-0.100000)"/><path d="M720 500 l0 -200 25 0 25 0 0 200 0 200 -25 0 -25 0 0 -200z" fill="url(#linear-gradient-3-18)" id="region-3-18" transform="translate(0.000000,500.000000) scale(0.100000,-0.100000)"/><path d="M810 500 l0 -200 25 0 25 0 0 200 0 200 -25 0 -25 0 0 -200z" fill="url(#linear-gradient-3-19)" id="region-3-19" transform="translate(0.000000,500.000000) scale(0.100000,-0.100000)"/><path d="M890 500 l0 -200 25 0 25 0 0 200 0 200 -25 0 -25 0 0 -200z" fill="url(#linear-gradient-3-20)" id="region-3-20" transform="translate(0.000000,500.000000) scale(0.100000,-0.100000)"/><path d="M980 500 l0 -200 25 0 25 0 0 200 0 200 -25 0 -25 0 0 -200z" fill="url(#linear-gradient-3-21)" id="region-3-21" transform="translate(0.000000,500.000000) scale(0.100000,-0.100000)"/><path d="M1060 500 l0 -200 25 0 25 0 0 200 0 200 -25 0 -25 0 0 -200z" fill="url(#linear-gradient-3-22)" id="region-3-22" transform="translate(0.000000,500.000000) scale(0.100000,-0.100000)"/><path d="M1150 500 l0 -200 25 0 25 0 0 200 0 200 -25 0 -25 0 0 -200z" fill="url(#linear-gradient-3-23)" id="region-3-23" transform="translate(0.000000,500.000000) scale(0.100000,-0.100000)"/><path d="M1230 500 l0 -200 30 0 30 0 0 200 0 200 -30 0 -30 0 0 -200z" fill="url(#linear-gradient-3-24)" id="region-3-24" transform="translate(0.000000,500.000000) scale(0.100000,-0.100000)"/><path d="M1320 500 l0 -200 25 0 25 0 0 200 0 200 -25 0 -25 0 0 -200z" fill="url(#linear-gradient-3-25)" id="region-3-25" transform="translate(0.000000,500.000000) scale(0.100000,-0.100000)"/></g><g id="layer-4"><path d="M895 4225 c-49 -17 -90 -62 -104 -112 -9 -33 -8 -42 10 -66 15 -21 18 -32 10 -41 -16 -19 57 -83 104 -92 108 -20 211 83 191 191 -10 52 -66 110 -121 124 -52 13 -41 13 -90 -4z" fill="url(#linear-gradient-4-1)" id="region-4-1" transform="translate(0.000000,500.000000) scale(0.100000,-0.100000)"/><path d="M1080 2795 l0 -45 -40 0 -40 0 0 40 c0 22 -4 40 -10 40 -5 0 -10 -18 -10 -40 0 -39 -1 -40 -35 -40 -34 0 -35 1 -35 40 0 22 -4 40 -10 40 -5 0 -10 -25 -10 -55 l0 -55 105 0 105 0 0 60 c0 33 -4 60 -10 60 -5 0 -10 -20 -10 -45z" fill="url(#linear-gradient-4-2)" id="region-4-2" transform="translate(0.000000,500.000000) scale(0.100000,-0.100000)"/><path d="M890 2625 c0 -43 4 -75 10 -75 6 0 10 14 10 30 l0 30 95 0 c78 0 95 3 95 15 0 12 -17 15 -95 15 l-95 0 0 30 c0 17 -4 30 -10 30 -6 0 -10 -32 -10 -75z" fill="url(#linear-gradient-4-3)" id="region-4-3" transform="translate(0.000000,500.000000) scale(0.100000,-0.100000)"/><path d="M1005 2520 c-10 -11 -23 -30 -29 -43 -7 -14 -21 -22 -36 -22 -22 0 -25 5 -26 35 0 35 -16 45 -22 15 -6 -28 7 -64 28 -75 31 -17 58 -3 80 41 32 61 90 45 76 -21 -6 -31 7 -42 18 -14 12 30 6 64 -14 84 -25 25 -52 25 -75 0z" fill="url(#linear-gradient-4-4)" id="region-4-4" transform="translate(0.000000,500.000000) scale(0.100000,-0.100000)"/><path d="M995 2356 c-80 -26 -100 -36 -100 -51 0 -16 20 -25 103 -51 74 -23 102 -28 102 -19 0 7 -13 18 -30 24 -26 9 -30 15 -30 46 0 31 4 37 30 46 17 6 30 17 30 25 0 8 -1 14 -2 13 -2 -1 -48 -15 -103 -33z" fill="url(#linear-gradient-4-5)" id="region-4-5" transform="translate(0.000000,500.000000) scale(0.100000,-0.100000)"/><path d="M910 2210 c-14 -14 -20 -33 -20 -65 l0 -45 105 0 c87 0 105 3 105 15 0 11 -11 15 -40 15 -36 0 -40 2 -40 25 0 31 -41 75 -70 75 -11 0 -29 -9 -40 -20z" fill="url(#linear-gradient-4-6)" id="region-4-6" transform="translate(0.000000,500.000000) scale(0.100000,-0.100000)"/><path d="M890 2045 c0 -11 12 -15 45 -15 l45 0 0 -50 0 -50 -45 0 c-33 0 -45 -4 -45 -15 0 -12 18 -15 105 -15 87 0 105 3 105 15 0 11 -12 15 -50 15 l-50 0 0 50 0 50 50 0 c38 0 50 4 50 15 0 12 -18 15 -105 15 -87 0 -105 -3 -105 -15z" fill="url(#linear-gradient-4-7)" id="region-4-7" transform="translate(0.000000,500.000000) scale(0.100000,-0.100000)"/><path d="M890 1805 c0 -43 4 -75 10 -75 6 0 10 14 10 30 l0 30 95 0 c78 0 95 3 95 15 0 12 -17 15 -95 15 l-95 0 0 30 c0 17 -4 30 -10 30 -6 0 -10 -32 -10 -75z" fill="url(#linear-gradient-4-8)" id="region-4-8" transform="translate(0.000000,500.000000) scale(0.100000,-0.100000)"/><path d="M945 1716 c-29 -13 -55 -51 -55 -82 0 -34 31 -73 66 -84 69 -23 144 21 144 85 0 32 -30 73 -61 84 -40 14 -57 13 -94 -3z" fill="url(#linear-gradient-4-9)" id="region-4-9" transform="translate(0.000000,500.000000) scale(0.100000,-0.100000)"/><path d="M945 1506 c-29 -13 -55 -51 -55 -82 0 -34 31 -73 66 -84 69 -23 144 21 144 85 0 32 -30 73 -61 84 -40 14 -57 13 -94 -3z" fill="url(#linear-gradient-4-10)" id="region-4-10" transform="translate(0.000000,500.000000) scale(0.100000,-0.100000)"/><path d="M890 1255 c0 -43 4 -75 10 -75 6 0 10 14 10 30 l0 30 95 0 c78 0 95 3 95 15 0 12 -17 15 -95 15 l-95 0 0 30 c0 17 -4 30 -10 30 -6 0 -10 -32 -10 -75z" fill="url(#linear-gradient-4-11)" id="region-4-11" transform="translate(0.000000,500.000000) scale(0.100000,-0.100000)"/></g><g id="layer-5"><path d="M951 2316 l-43 -11 46 -13 c63 -16 66 -16 66 13 0 28 -5 28 -69 11z" fill="url(#linear-gradient-5-1)" id="region-5-1" transform="translate(0.000000,500.000000) scale(0.100000,-0.100000)"/><path d="M922 2188 c-7 -7 -12 -22 -12 -35 0 -21 5 -23 45 -23 40 0 45 2 45 23 0 29 -18 47 -45 47 -12 0 -26 -5 -33 -12z" fill="url(#linear-gradient-5-2)" id="region-5-2" transform="translate(0.000000,500.000000) scale(0.100000,-0.100000)"/><path d="M936 1679 c-15 -12 -26 -30 -26 -44 0 -31 44 -65 85 -65 41 0 85 34 85 65 0 31 -44 65 -85 65 -18 0 -44 -9 -59 -21z" fill="url(#linear-gradient-5-3)" id="region-5-3" transform="translate(0.000000,500.000000) scale(0.100000,-0.100000)"/><path d="M936 1469 c-15 -12 -26 -30 -26 -44 0 -31 44 -65 85 -65 41 0 85 34 85 65 0 31 -44 65 -85 65 -18 0 -44 -9 -59 -21z" fill="url(#linear-gradient-5-4)" id="region-5-4" transform="translate(0.000000,500.000000) scale(0.100000,-0.100000)"/></g></svg>