<?xml version="1.0" standalone="no"?><!DOCTYPE svg PUBLIC "-//W3C//DTD SVG 20010904//EN" "http://www.w3.org/TR/2001/REC-SVG-20010904/DTD/svg10.dtd"><svg version="1.0" xmlns="http://www.w3.org/2000/svg" width="580pt" height="550pt" viewBox="0 0 580 550" preserveAspectRatio="xMidYMid meet"><defs><linearGradient id="linear-gradient-1-1" x1="0.00%" y1="100.00%" x2="0.00%" y2="0.00%"><stop offset="0%" style="stop-color:rgb(255,255,254);stop-opacity:0.990" /><stop offset="100%" style="stop-color:rgb(236,233,227);stop-opacity:0.990" /></linearGradient><linearGradient id="linear-gradient-2-1" x1="0.00%" y1="100.00%" x2="0.00%" y2="-0.00%"><stop offset="0%" style="stop-color:rgb(229,16,1);stop-opacity:0.717" /><stop offset="100%" style="stop-color:rgb(89,0,0);stop-opacity:0.890" /></linearGradient><linearGradient id="linear-gradient-2-2" x1="0.00%" y1="100.00%" x2="142.39%" y2="22.82%"><stop offset="0%" style="stop-color:rgb(228,112,99);stop-opacity:0.396" /><stop offset="100%" style="stop-color:rgb(171,0,0);stop-opacity:0.879" /></linearGradient><linearGradient id="linear-gradient-2-3" x1="0.00%" y1="100.00%" x2="0.00%" y2="-0.00%"><stop offset="0%" style="stop-color:rgb(0,0,0);stop-opacity:0.830" /><stop offset="100%" style="stop-color:rgb(82,74,71);stop-opacity:0.795" /></linearGradient><linearGradient id="linear-gradient-2-4" x1="0.00%" y1="100.00%" x2="0.00%" y2="0.00%"><stop offset="0%" style="stop-color:rgb(14,22,11);stop-opacity:0.314" /><stop offset="100%" style="stop-color:rgb(0,3,0);stop-opacity:0.385" /></linearGradient><linearGradient id="linear-gradient-2-5" x1="0.00%" y1="100.00%" x2="113.05%" y2="40.15%"><stop offset="0%" style="stop-color:rgb(41,27,11);stop-opacity:0.575" /><stop offset="100%" style="stop-color:rgb(22,9,0);stop-opacity:0.649" /></linearGradient><linearGradient id="linear-gradient-2-6" x1="0.00%" y1="0.00%" x2="134.48%" y2="17.73%"><stop offset="0%" style="stop-color:rgb(0,0,0);stop-opacity:0.525" /><stop offset="100%" style="stop-color:rgb(44,46,39);stop-opacity:0.342" /></linearGradient><linearGradient id="linear-gradient-2-7" x1="0.00%" y1="100.00%" x2="0.00%" y2="0.00%"><stop offset="0%" style="stop-color:rgb(157,159,140);stop-opacity:0.805" /><stop offset="100%" style="stop-color:rgb(186,179,150);stop-opacity:0.766" /></linearGradient><linearGradient id="linear-gradient-2-8" x1="0.00%" y1="100.00%" x2="0.00%" y2="0.00%"><stop offset="0%" style="stop-color:rgb(0,0,0);stop-opacity:0.602" /><stop offset="100%" style="stop-color:rgb(40,24,9);stop-opacity:0.858" /></linearGradient><linearGradient id="linear-gradient-2-9" x1="0.00%" y1="100.00%" x2="12.82%" y2="-28.57%"><stop offset="0%" style="stop-color:rgb(161,95,17);stop-opacity:0.335" /><stop offset="100%" style="stop-color:rgb(181,80,0);stop-opacity:0.416" /></linearGradient><linearGradient id="linear-gradient-3-1" x1="0.00%" y1="100.00%" x2="103.47%" y2="91.14%"><stop offset="0%" style="stop-color:rgb(17,70,68);stop-opacity:0.441" /><stop offset="100%" style="stop-color:rgb(0,76,90);stop-opacity:0.528" /></linearGradient><linearGradient id="linear-gradient-3-2" x1="0.00%" y1="100.00%" x2="0.00%" y2="0.00%"><stop offset="0%" style="stop-color:rgb(0,5,7);stop-opacity:0.784" /><stop offset="100%" style="stop-color:rgb(0,7,10);stop-opacity:0.824" /></linearGradient><linearGradient id="linear-gradient-3-3" x1="0.00%" y1="0.00%" x2="88.20%" y2="109.99%"><stop offset="0%" style="stop-color:rgb(194,115,107);stop-opacity:0.554" /><stop offset="100%" style="stop-color:rgb(255,218,210);stop-opacity:0.958" /></linearGradient><linearGradient id="linear-gradient-3-4" x1="0.00%" y1="100.00%" x2="0.00%" y2="0.00%"><stop offset="0%" style="stop-color:rgb(1,62,67);stop-opacity:0.559" /><stop offset="100%" style="stop-color:rgb(0,87,91);stop-opacity:0.463" /></linearGradient><linearGradient id="linear-gradient-3-5" x1="0.00%" y1="100.00%" x2="60.08%" y2="-23.73%"><stop offset="0%" style="stop-color:rgb(206,133,49);stop-opacity:0.754" /><stop offset="100%" style="stop-color:rgb(229,156,73);stop-opacity:0.845" /></linearGradient><linearGradient id="linear-gradient-3-6" x1="0.00%" y1="0.00%" x2="63.99%" y2="127.71%"><stop offset="0%" style="stop-color:rgb(39,86,95);stop-opacity:0.598" /><stop offset="100%" style="stop-color:rgb(119,166,174);stop-opacity:0.909" /></linearGradient><linearGradient id="linear-gradient-3-7" x1="0.00%" y1="100.00%" x2="117.04%" y2="66.00%"><stop offset="0%" style="stop-color:rgb(231,222,157);stop-opacity:0.421" /><stop offset="100%" style="stop-color:rgb(255,255,193);stop-opacity:0.559" /></linearGradient><linearGradient id="linear-gradient-3-8" x1="0.00%" y1="100.00%" x2="85.17%" y2="-16.85%"><stop offset="0%" style="stop-color:rgb(164,211,219);stop-opacity:0.180" /><stop offset="100%" style="stop-color:rgb(208,255,255);stop-opacity:0.352" /></linearGradient><linearGradient id="linear-gradient-3-9" x1="0.00%" y1="100.00%" x2="119.95%" y2="17.45%"><stop offset="0%" style="stop-color:rgb(246,246,184);stop-opacity:0.397" /><stop offset="100%" style="stop-color:rgb(255,255,196);stop-opacity:0.446" /></linearGradient><linearGradient id="linear-gradient-3-10" x1="0.00%" y1="100.00%" x2="116.47%" y2="13.63%"><stop offset="0%" style="stop-color:rgb(247,244,159);stop-opacity:0.281" /><stop offset="100%" style="stop-color:rgb(255,255,172);stop-opacity:0.334" /></linearGradient><linearGradient id="linear-gradient-3-11" x1="0.00%" y1="100.00%" x2="10.51%" y2="-58.42%"><stop offset="0%" style="stop-color:rgb(246,249,176);stop-opacity:0.232" /><stop offset="100%" style="stop-color:rgb(255,255,186);stop-opacity:0.270" /></linearGradient><linearGradient id="linear-gradient-3-12" x1="0.00%" y1="100.00%" x2="0.00%" y2="0.00%"><stop offset="0%" style="stop-color:rgb(241,185,131);stop-opacity:0.333" /><stop offset="100%" style="stop-color:rgb(255,208,154);stop-opacity:0.422" /></linearGradient><linearGradient id="linear-gradient-4-1" x1="0.00%" y1="100.00%" x2="0.00%" y2="0.00%"><stop offset="0%" style="stop-color:rgb(13,81,94);stop-opacity:0.464" /><stop offset="100%" style="stop-color:rgb(0,43,57);stop-opacity:0.612" /></linearGradient><linearGradient id="linear-gradient-4-2" x1="0.00%" y1="100.00%" x2="0.00%" y2="-0.00%"><stop offset="0%" style="stop-color:rgb(216,134,8);stop-opacity:0.325" /><stop offset="100%" style="stop-color:rgb(210,120,0);stop-opacity:0.379" /></linearGradient></defs><g id="layer-1"><path d="M0 2750 l0 -2750 2900 0 2900 0 0 2750 0 2750 -2900 0 -2900 0 0 -2750z" fill="url(#linear-gradient-1-1)" id="region-1-1" transform="translate(0.000000,550.000000) scale(0.100000,-0.100000)"/></g><g id="layer-2"><path d="M2490 5050 c-25 -4 -69 -15 -97 -23 -29 -9 -53 -13 -53 -9 0 4 -4 3 -8 -3 -7 -10 -141 -74 -229 -111 -24 -9 -43 -21 -43 -26 0 -4 -6 -8 -12 -8 -24 0 -207 -131 -248 -178 -45 -50 -131 -187 -156 -248 -9 -21 -24 -69 -34 -106 -10 -38 -22 -74 -28 -81 -9 -11 -12 -22 -32 -112 -22 -102 -50 -374 -52 -510 l-2 -150 38 -73 c21 -39 45 -76 54 -82 10 -5 13 -10 7 -10 -6 0 -6 -3 0 -8 6 -4 31 -38 55 -77 147 -230 370 -462 645 -671 125 -94 135 -111 93 -157 -13 -14 -59 -44 -102 -67 -74 -40 -85 -43 -165 -45 -134 -3 -262 36 -425 127 -99 56 -121 71 -194 132 -43 36 -90 65 -123 76 -30 10 -56 17 -58 15 -6 -6 47 -73 104 -131 84 -87 298 -210 438 -253 104 -32 236 -45 313 -32 73 13 143 41 163 65 7 9 17 16 21 16 4 0 27 18 51 40 24 22 49 40 56 40 6 0 13 4 15 8 2 4 30 28 63 54 65 49 91 78 115 123 9 16 34 44 57 61 23 18 63 58 89 91 26 32 51 60 56 61 5 2 14 9 21 15 7 7 28 23 47 37 46 32 57 41 86 67 43 39 148 109 222 147 l72 37 0 -76 c0 -62 5 -85 26 -127 14 -28 30 -56 35 -62 5 -6 21 -26 35 -44 40 -49 78 -65 179 -72 131 -9 163 -27 409 -227 11 -9 45 -29 76 -45 121 -62 151 -114 124 -217 -25 -99 -17 -161 21 -161 20 0 23 6 27 57 4 44 18 85 59 168 51 104 56 110 87 113 19 2 54 -7 85 -21 28 -13 78 -29 109 -36 89 -19 102 -35 108 -127 3 -42 10 -79 15 -81 6 -2 17 14 24 34 7 21 24 66 37 100 19 48 24 80 24 148 0 79 -3 95 -35 162 -19 41 -35 79 -35 83 0 5 -37 36 -82 70 -107 79 -118 88 -118 100 0 14 3 13 62 -14 58 -27 150 -57 156 -51 5 4 8 40 17 160 5 67 3 107 -9 158 -9 38 -16 83 -16 100 0 18 -7 55 -16 82 -8 28 -19 77 -24 110 -9 64 -59 210 -107 315 -44 96 -56 124 -59 137 -1 7 -24 43 -51 79 -26 36 -64 89 -83 118 -104 156 -304 375 -445 487 -87 68 -182 139 -189 139 -3 0 -33 20 -68 44 -96 66 -346 205 -383 212 -5 1 -32 12 -60 25 -27 12 -52 23 -55 23 -5 1 -42 12 -135 40 -88 26 -143 36 -287 51 -150 16 -207 17 -278 5z" fill="url(#linear-gradient-2-1)" id="region-2-1" transform="translate(0.000000,550.000000) scale(0.100000,-0.100000)"/><path d="M1778 4703 c-7 -10 -38 -39 -68 -65 -168 -142 -358 -357 -431 -488 -24 -41 -55 -90 -71 -107 -51 -61 -75 -181 -94 -478 -3 -55 -11 -110 -18 -121 -6 -12 -22 -41 -35 -65 -19 -34 -26 -63 -29 -130 -5 -96 2 -127 54 -234 18 -38 36 -83 40 -100 4 -16 14 -39 23 -50 24 -29 75 -106 91 -138 19 -38 67 -72 135 -95 38 -13 82 -40 127 -78 73 -61 95 -76 194 -132 163 -91 291 -130 425 -127 80 2 91 5 165 45 43 23 89 53 102 67 42 46 32 63 -93 157 -275 209 -498 441 -645 671 -24 39 -49 73 -55 77 -6 5 -6 8 0 8 6 0 3 5 -7 10 -9 6 -33 43 -54 82 l-38 73 2 150 c2 136 30 408 52 510 20 90 23 101 32 112 6 7 18 44 29 83 10 38 27 89 37 112 26 59 97 174 139 226 24 29 30 42 19 42 -8 0 -21 -8 -28 -17z" fill="url(#linear-gradient-2-2)" id="region-2-2" transform="translate(0.000000,550.000000) scale(0.100000,-0.100000)"/><path d="M3222 3045 c-80 -43 -160 -96 -208 -139 -27 -25 -39 -35 -84 -66 -19 -14 -40 -30 -47 -37 -7 -6 -16 -13 -21 -15 -5 -1 -30 -30 -57 -63 -26 -32 -65 -71 -85 -86 -45 -33 -70 -66 -70 -93 0 -10 -17 -38 -37 -62 -101 -116 -119 -164 -117 -324 0 -90 3 -99 37 -163 20 -38 37 -76 37 -86 0 -55 292 -251 373 -251 4 0 38 -16 77 -35 38 -19 81 -35 95 -35 39 0 71 26 90 72 9 22 17 39 19 37 2 -2 7 -35 10 -74 3 -38 9 -99 12 -135 12 -137 54 -219 130 -255 29 -14 51 -16 101 -11 l65 7 -7 -33 c-8 -45 -26 -78 -40 -78 -36 0 -127 -55 -170 -103 -27 -28 -77 -82 -112 -119 -52 -56 -63 -74 -63 -102 0 -38 14 -53 58 -62 27 -5 30 -9 22 -25 -16 -30 -11 -78 10 -99 46 -46 83 -10 96 91 4 30 19 74 35 99 15 25 30 59 34 77 3 18 27 54 53 81 39 42 54 51 91 55 42 5 46 3 96 -44 29 -27 57 -49 62 -49 6 0 13 -17 17 -39 7 -45 30 -71 40 -45 3 8 3 26 0 39 -5 22 -3 24 23 21 15 -2 57 0 93 4 49 5 69 4 81 -6 22 -20 31 -17 24 6 -4 12 -2 20 5 20 21 0 102 64 116 92 13 25 20 28 68 28 35 0 58 -5 66 -15 7 -8 25 -15 41 -15 28 0 29 -2 29 -45 0 -56 23 -103 56 -115 60 -23 186 2 234 45 35 32 -10 89 -101 130 -33 15 -90 44 -128 65 -37 21 -87 43 -112 50 -24 6 -51 13 -60 16 -9 3 -31 -7 -48 -22 -23 -19 -31 -22 -31 -11 0 9 -5 17 -11 19 -6 2 2 24 18 53 22 39 28 46 31 30 5 -23 21 -45 32 -45 5 0 11 14 15 30 4 17 16 35 27 41 20 11 20 11 -1 25 -34 24 -26 43 21 50 76 13 148 107 148 195 0 33 -37 156 -49 163 -5 3 -12 30 -15 59 -15 120 -43 170 -115 206 -58 30 -57 38 4 43 30 3 58 8 62 12 12 12 -45 56 -71 56 -13 0 -27 7 -30 16 -10 27 -7 87 8 145 27 103 -3 155 -124 217 -31 16 -65 36 -76 45 -246 200 -278 218 -409 227 -101 7 -139 23 -179 72 -14 18 -30 38 -35 44 -36 45 -56 105 -61 181 l-5 82 -83 -44z" fill="url(#linear-gradient-2-3)" id="region-2-3" transform="translate(0.000000,550.000000) scale(0.100000,-0.100000)"/><path d="M1050 3057 c0 -8 8 -38 19 -68 33 -99 1 -123 -174 -133 -110 -7 -128 -5 -215 18 -112 31 -138 31 -248 7 -62 -13 -90 -25 -112 -46 -55 -53 -34 -77 37 -42 106 53 238 84 272 63 6 -4 11 -19 11 -34 0 -20 -10 -33 -35 -50 -25 -15 -35 -30 -35 -47 0 -23 3 -25 48 -25 37 0 54 5 68 21 25 28 72 52 90 45 7 -3 20 -21 28 -41 18 -41 47 -46 111 -16 52 23 123 100 104 112 -10 6 -9 10 6 15 11 4 40 15 64 25 41 18 43 21 37 51 -7 34 -63 158 -71 158 -3 0 -5 -6 -5 -13z" fill="url(#linear-gradient-2-4)" id="region-2-4" transform="translate(0.000000,550.000000) scale(0.100000,-0.100000)"/><path d="M1196 2745 c-9 -13 -16 -32 -16 -41 0 -15 -2 -15 -26 1 -31 20 -93 13 -90 -10 3 -22 47 -65 88 -86 20 -10 39 -28 43 -39 3 -11 18 -23 33 -26 15 -3 37 -10 50 -15 29 -11 122 -12 122 0 0 12 -67 96 -122 153 -27 27 -48 55 -48 63 0 25 -18 25 -34 0z" fill="url(#linear-gradient-2-5)" id="region-2-5" transform="translate(0.000000,550.000000) scale(0.100000,-0.100000)"/><path d="M4720 2661 c0 -5 16 -43 35 -84 32 -67 35 -83 35 -162 0 -68 -5 -100 -24 -148 -13 -34 -32 -84 -41 -112 -9 -27 -20 -57 -24 -65 -9 -18 -3 -40 10 -40 23 0 89 -52 89 -70 0 -13 9 -22 28 -26 53 -11 54 -13 49 -47 -3 -17 -23 -104 -46 -192 -52 -199 -66 -378 -36 -445 10 -22 20 -38 22 -36 8 7 107 -36 147 -64 25 -17 61 -31 91 -36 28 -3 55 -11 62 -16 21 -17 73 1 84 29 9 25 10 25 31 7 12 -11 36 -34 54 -51 38 -39 50 -41 87 -9 33 28 46 93 21 103 -22 8 -17 23 9 23 35 0 190 -84 204 -111 7 -13 10 -35 7 -49 l-5 -25 19 22 c15 17 19 35 18 78 -2 66 -7 71 -121 110 -75 26 -87 27 -191 21 -81 -4 -136 -2 -200 10 -53 9 -110 13 -140 9 -47 -6 -52 -4 -57 16 -3 12 -1 31 5 42 42 80 92 283 103 422 11 143 11 144 57 147 25 2 45 10 52 20 15 25 -16 84 -59 109 -19 12 -35 25 -35 30 0 20 63 41 104 35 45 -8 192 -90 210 -118 16 -26 30 -22 43 13 11 30 10 34 -20 63 -56 56 -234 97 -317 74 -27 -8 -28 -7 -65 71 -9 18 -38 55 -66 83 -27 27 -49 52 -49 55 0 4 -14 19 -32 33 l-32 27 17 44 c29 79 31 112 7 142 -12 15 -29 27 -39 27 -9 0 -32 11 -51 25 -36 26 -50 31 -50 16z" fill="url(#linear-gradient-2-6)" id="region-2-6" transform="translate(0.000000,550.000000) scale(0.100000,-0.100000)"/><path d="M4352 2388 c-5 -7 -31 -58 -58 -113 -33 -70 -48 -117 -51 -155 -5 -53 -3 -57 35 -98 22 -24 57 -78 77 -120 21 -42 44 -85 53 -94 22 -25 56 -22 92 8 28 24 194 238 196 253 0 3 4 14 9 25 5 11 4 26 -3 37 -7 10 -12 48 -12 84 0 85 -19 106 -116 128 -38 9 -87 25 -109 37 -44 23 -97 26 -113 8z" fill="url(#linear-gradient-2-7)" id="region-2-7" transform="translate(0.000000,550.000000) scale(0.100000,-0.100000)"/><path d="M2509 2352 c-2 -4 -22 -19 -44 -33 -86 -52 -165 -116 -187 -151 -19 -30 -33 -39 -83 -53 -37 -11 -81 -34 -117 -61 -59 -46 -118 -110 -118 -130 0 -13 -34 -45 -46 -43 -36 6 -44 -13 -19 -42 14 -15 14 -18 -1 -33 -9 -9 -42 -33 -73 -53 -31 -19 -65 -43 -76 -53 -11 -10 -39 -23 -61 -29 -23 -6 -54 -21 -70 -33 -43 -32 -124 -112 -124 -121 0 -5 -13 -20 -30 -34 -30 -25 -39 -56 -20 -68 6 -3 10 0 10 8 0 8 8 17 18 20 9 2 25 8 34 12 14 6 19 -2 29 -39 11 -43 33 -75 45 -63 3 3 0 24 -7 46 -18 62 0 77 90 72 l69 -3 32 40 c18 23 43 42 59 45 21 4 39 22 66 64 51 78 75 103 98 103 23 0 82 59 90 89 4 16 0 21 -13 21 -10 0 -21 7 -24 16 -8 22 -8 24 7 24 15 0 56 43 75 79 11 21 10 26 -3 33 -24 14 -18 31 9 24 16 -4 35 2 60 19 42 28 87 32 107 9 7 -8 21 -13 31 -11 14 4 18 -1 18 -23 0 -16 -4 -31 -10 -35 -14 -9 -5 -116 12 -150 9 -16 21 -50 28 -75 28 -106 190 -395 270 -480 l26 -28 -96 -6 c-52 -4 -122 -2 -154 3 -32 6 -62 8 -67 5 -4 -2 -25 -5 -46 -6 -41 -1 -183 -62 -196 -84 -4 -8 -16 -14 -26 -14 -21 0 -31 -19 -31 -60 0 -33 16 -49 23 -23 3 10 5 2 6 -18 0 -19 8 -44 16 -55 13 -18 14 -17 15 19 0 48 15 77 39 77 10 0 29 8 42 19 29 22 133 81 143 81 5 0 1 -11 -8 -25 -21 -32 -21 -31 14 -65 34 -34 64 -38 99 -14 32 23 167 32 267 18 45 -6 119 21 154 56 40 40 12 175 -59 285 -46 73 -210 274 -282 348 -92 94 -116 148 -61 140 62 -9 112 -8 112 4 0 6 -17 42 -37 80 -36 66 -37 71 -37 173 0 61 5 121 13 143 7 21 11 41 8 43 -3 3 -7 1 -8 -4z" fill="url(#linear-gradient-2-8)" id="region-2-8" transform="translate(0.000000,550.000000) scale(0.100000,-0.100000)"/><path d="M4227 1248 c-22 -18 -34 -68 -16 -68 8 0 26 -7 41 -14 15 -8 40 -14 56 -14 15 1 37 -4 47 -9 11 -6 54 -16 95 -23 126 -21 157 -35 230 -110 79 -81 102 -91 136 -59 44 41 30 58 -95 121 -62 31 -139 63 -170 71 -44 12 -181 37 -204 37 -2 0 -23 18 -48 40 -50 45 -49 45 -72 28z" fill="url(#linear-gradient-2-9)" id="region-2-9" transform="translate(0.000000,550.000000) scale(0.100000,-0.100000)"/></g><g id="layer-3"><path d="M3310 4840 c0 -11 58 -72 140 -146 42 -38 82 -60 172 -97 68 -28 129 -47 145 -45 l26 3 -39 41 c-22 22 -60 53 -84 69 -25 15 -54 36 -65 46 -11 10 -58 37 -105 59 -46 23 -95 50 -108 61 -26 20 -82 26 -82 9z" fill="url(#linear-gradient-3-1)" id="region-3-1" transform="translate(0.000000,550.000000) scale(0.100000,-0.100000)"/><path d="M2280 4650 c-60 -9 -91 -23 -115 -50 -11 -13 -39 -31 -62 -42 -61 -27 -164 -97 -188 -127 -11 -14 -30 -39 -42 -56 -12 -16 -29 -40 -38 -51 -21 -28 -30 -129 -15 -165 12 -27 57 -52 83 -45 7 2 37 11 67 19 30 9 77 22 103 29 39 10 65 29 130 91 45 44 97 85 115 93 17 8 32 18 32 23 0 4 11 21 24 36 30 34 44 118 37 215 -1 12 -55 41 -73 39 -7 -1 -33 -5 -58 -9z" fill="url(#linear-gradient-3-2)" id="region-3-2" transform="translate(0.000000,550.000000) scale(0.100000,-0.100000)"/><path d="M3155 4650 c-16 -4 -59 -21 -95 -38 -140 -65 -155 -109 -164 -470 -6 -224 -4 -270 9 -317 9 -30 22 -61 28 -68 17 -19 37 -55 37 -68 0 -12 59 -84 69 -84 3 -1 15 -6 26 -12 11 -6 72 -16 135 -23 63 -7 120 -16 125 -20 6 -4 24 -10 40 -14 28 -6 116 -39 191 -72 16 -7 38 -22 48 -32 9 -11 37 -32 62 -48 48 -31 52 -45 29 -101 -8 -19 -15 -46 -15 -59 0 -22 4 -24 46 -24 25 0 95 -12 156 -27 l111 -27 49 53 c61 63 71 61 131 -17 52 -69 86 -82 143 -57 22 9 50 22 64 27 97 41 163 96 177 149 6 19 8 52 6 74 -5 49 -46 140 -66 148 -8 3 -24 34 -36 69 -12 35 -32 76 -46 92 -14 16 -25 35 -25 43 0 7 -6 16 -14 19 -8 3 -20 20 -27 37 -7 18 -27 53 -45 79 -17 26 -42 68 -55 95 -13 26 -33 59 -46 73 -13 14 -23 30 -23 36 0 15 -200 224 -214 224 -20 0 -163 97 -169 114 -4 9 -26 25 -51 35 -24 11 -45 23 -47 28 -5 12 -110 83 -122 83 -5 0 -28 12 -51 28 -36 24 -74 42 -154 73 -27 11 -174 10 -217 -1z" fill="url(#linear-gradient-3-3)" id="region-3-3" transform="translate(0.000000,550.000000) scale(0.100000,-0.100000)"/><path d="M1530 3343 c-29 -10 -82 -68 -106 -116 -24 -46 -24 -48 -7 -80 13 -24 18 -58 18 -137 1 -116 10 -139 60 -166 46 -25 66 -15 97 46 14 29 47 76 73 103 25 27 48 62 52 78 3 16 9 29 13 29 11 0 -28 168 -47 200 -24 42 -99 63 -153 43z" fill="url(#linear-gradient-3-4)" id="region-3-4" transform="translate(0.000000,550.000000) scale(0.100000,-0.100000)"/><path d="M3168 3307 c-56 -48 -148 -177 -148 -208 0 -28 53 -109 71 -109 6 0 23 8 37 18 38 26 198 106 253 127 46 17 47 17 33 43 -8 15 -14 32 -14 38 0 25 -148 124 -183 124 -7 0 -29 -15 -49 -33z" fill="url(#linear-gradient-3-5)" id="region-3-5" transform="translate(0.000000,550.000000) scale(0.100000,-0.100000)"/><path d="M3520 3174 c-30 -8 -73 -23 -95 -34 -22 -10 -57 -25 -77 -34 l-38 -15 0 -76 c0 -62 5 -85 26 -127 14 -28 30 -56 35 -62 5 -6 21 -26 35 -44 40 -49 78 -65 179 -72 131 -9 163 -27 409 -227 11 -9 45 -29 76 -45 121 -62 151 -114 124 -217 -25 -99 -17 -161 21 -161 20 0 23 6 27 58 4 43 18 84 59 167 51 104 56 110 87 113 19 2 54 -7 85 -21 28 -13 78 -29 109 -36 89 -19 102 -35 108 -127 3 -42 10 -79 15 -81 6 -2 17 14 24 34 7 21 24 66 37 100 19 48 24 80 24 148 0 79 -3 95 -35 162 -19 41 -35 79 -35 83 0 5 -37 36 -82 70 -114 84 -120 89 -114 105 3 8 -11 21 -37 34 -57 29 -90 48 -172 102 -66 43 -135 79 -150 79 -4 0 -37 14 -73 31 -108 50 -160 69 -249 89 -100 24 -243 25 -323 4z" fill="url(#linear-gradient-3-6)" id="region-3-6" transform="translate(0.000000,550.000000) scale(0.100000,-0.100000)"/><path d="M2958 2158 c-8 -7 -25 -28 -38 -47 -13 -18 -39 -41 -59 -50 -20 -9 -66 -34 -103 -55 -67 -37 -68 -38 -68 -80 0 -60 16 -99 50 -125 19 -14 30 -31 30 -46 0 -19 10 -30 43 -47 43 -23 137 -58 137 -51 0 2 31 -13 70 -32 38 -19 81 -35 95 -35 38 0 71 26 88 68 8 21 33 62 56 92 23 30 41 59 41 65 0 5 7 23 15 38 8 15 17 43 21 62 5 29 2 36 -23 52 -15 10 -69 60 -120 110 l-92 93 -64 0 c-36 0 -70 -5 -79 -12z" fill="url(#linear-gradient-3-7)" id="region-3-7" transform="translate(0.000000,550.000000) scale(0.100000,-0.100000)"/><path d="M4040 1974 c-41 -8 -102 -19 -135 -24 -236 -38 -285 -59 -285 -123 0 -53 15 -59 137 -56 115 2 181 -10 243 -47 46 -27 96 -49 145 -64 57 -18 97 -44 117 -77 14 -25 15 -33 2 -68 -20 -59 -17 -73 19 -95 64 -40 101 -16 113 72 7 46 -15 143 -41 183 -7 11 -16 44 -20 72 -16 119 -43 166 -114 202 -22 12 -42 25 -46 31 -8 13 -43 11 -135 -6z" fill="url(#linear-gradient-3-8)" id="region-3-8" transform="translate(0.000000,550.000000) scale(0.100000,-0.100000)"/><path d="M4098 1565 c-21 -14 -42 -34 -48 -45 -17 -31 -12 -85 11 -114 25 -31 75 -35 120 -9 27 16 29 22 29 79 0 47 -5 67 -21 88 -26 33 -44 33 -91 1z" fill="url(#linear-gradient-3-9)" id="region-3-9" transform="translate(0.000000,550.000000) scale(0.100000,-0.100000)"/><path d="M3546 1504 c-8 -20 -8 -82 0 -111 3 -12 15 -23 27 -25 12 -2 23 -12 25 -23 6 -32 22 -45 58 -45 46 0 64 29 64 102 l0 58 -47 30 c-53 34 -117 41 -127 14z" fill="url(#linear-gradient-3-10)" id="region-3-10" transform="translate(0.000000,550.000000) scale(0.100000,-0.100000)"/><path d="M3965 1198 c-44 -5 -125 -16 -179 -26 -107 -18 -133 -35 -106 -67 13 -16 28 -17 131 -11 190 11 279 40 279 91 0 28 3 28 -125 13z" fill="url(#linear-gradient-3-11)" id="region-3-11" transform="translate(0.000000,550.000000) scale(0.100000,-0.100000)"/><path d="M3475 1046 c-11 -10 -42 -33 -70 -50 -52 -33 -87 -83 -106 -151 -6 -22 -26 -65 -45 -96 -39 -65 -43 -110 -14 -139 46 -46 83 -10 96 91 4 30 19 74 35 99 15 25 30 59 34 77 3 18 28 55 55 85 48 52 57 72 42 93 -4 7 -14 3 -27 -9z" fill="url(#linear-gradient-3-12)" id="region-3-12" transform="translate(0.000000,550.000000) scale(0.100000,-0.100000)"/></g><g id="layer-4"><path d="M3250 3947 c-78 -8 -98 -18 -244 -119 -48 -33 -55 -44 -66 -88 -12 -51 -6 -154 10 -175 4 -5 15 -35 25 -65 10 -30 25 -64 34 -74 22 -25 129 -74 183 -82 85 -14 202 -93 213 -145 4 -16 10 -31 14 -33 4 -3 40 4 81 15 40 10 98 19 127 19 49 0 53 2 53 24 0 13 7 40 15 59 8 20 15 49 15 65 0 23 6 32 28 41 15 6 35 24 44 39 35 55 43 68 66 100 13 17 27 57 32 88 8 50 7 61 -15 104 -13 26 -52 79 -85 118 -55 63 -66 71 -108 77 -26 4 -49 11 -52 16 -9 13 -147 30 -225 27 -38 -1 -104 -6 -145 -11z" fill="url(#linear-gradient-4-1)" id="region-4-1" transform="translate(0.000000,550.000000) scale(0.100000,-0.100000)"/><path d="M3776 3422 c-4 -11 -20 -25 -36 -32 -24 -10 -30 -19 -30 -42 0 -16 -7 -45 -15 -65 -8 -19 -15 -46 -15 -59 0 -22 4 -24 46 -24 25 0 95 -12 156 -27 l111 -27 50 53 50 52 -54 55 c-29 30 -58 54 -65 54 -6 0 -31 15 -55 34 -56 44 -134 59 -143 28z" fill="url(#linear-gradient-4-2)" id="region-4-2" transform="translate(0.000000,550.000000) scale(0.100000,-0.100000)"/></g></svg>