<?xml version="1.0" encoding="utf-8"?>
<!-- Generator: Adobe Illustrator 26.2.1, SVG Export Plug-In . SVG Version: 6.00 Build 0)  -->
<svg version="1.1" xmlns="http://www.w3.org/2000/svg" xmlns:xlink="http://www.w3.org/1999/xlink" x="0px" y="0px"
	 viewBox="0 0 2900 550" style="enable-background:new 0 0 2900 550;" xml:space="preserve">
<style type="text/css">
	.st0{fill:none;}
	.st1{fill:#D3D3D3;}
	.st2{fill:url(#SVGID_1_);}
	.st3{fill:url(#region-1-1_00000060733963168455948520000001832294280751984801_);}
	.st4{fill:url(#region-2-1_00000160174293016762242480000012324617630986284462_);}
	.st5{fill:url(#region-2-2_00000053521042062902447340000018290615252771544717_);}
	.st6{fill:url(#region-2-3_00000034779215734174605880000006795630512166809728_);}
	.st7{fill:url(#region-2-4_00000096037992261483268580000016228220118871794356_);}
	.st8{fill:url(#region-2-5_00000036964823413749048080000007546889127670057893_);}
	.st9{fill:url(#region-2-6_00000024682315766904303230000017134201988164443570_);}
	.st10{fill:url(#region-2-7_00000174585099812833990230000016512362146169415827_);}
	.st11{fill:url(#region-2-8_00000019636573597112969610000002758918142150074500_);}
	.st12{fill:url(#region-2-9_00000136375011183957347330000009989460911035995556_);}
	.st13{fill:url(#region-3-1_00000159441053179184866860000003337522274761964471_);}
	.st14{fill:url(#region-3-2_00000028324445945739103730000001149627406801382794_);}
	.st15{fill:url(#region-3-3_00000174570540619712719370000013088355708444709280_);}
	.st16{fill:url(#region-3-4_00000011021548824822571650000012339919572183238583_);}
	.st17{fill:url(#region-3-5_00000093892189267288166840000010437320095048483237_);}
	.st18{fill:url(#region-3-6_00000155831247289348991230000010566675951192139178_);}
	.st19{fill:url(#region-3-7_00000077291998626301233590000011840288149769847221_);}
	.st20{fill:url(#region-3-8_00000128446748820790854320000005776073551706964122_);}
	.st21{fill:url(#region-3-9_00000127022564341001636540000003569583276924128703_);}
	.st22{fill:url(#region-3-10_00000006707900697579402660000014512699168365051024_);}
	.st23{fill:url(#region-3-11_00000048462201498009078720000008571252498301882290_);}
	.st24{fill:url(#region-3-12_00000072261259500314534390000014713699165399679389_);}
	.st25{fill:url(#region-4-1_00000076581838183301353330000012586447556194495382_);}
	.st26{fill:url(#region-4-2_00000134210989582423253830000018251176126155286456_);}
	
		.st27{fill:url(#region-1-1_00000137847966959769949250000011229505553188668347_);stroke:#000000;stroke-width:3;stroke-miterlimit:10;}
	
		.st28{fill:url(#region-2-1_00000030452631687977067020000004270870551446227868_);stroke:#000000;stroke-width:2;stroke-miterlimit:10;}
	
		.st29{fill:url(#region-2-2_00000106825599798921555410000002689673168936245672_);stroke:#000000;stroke-width:2;stroke-miterlimit:10;}
	
		.st30{fill:url(#region-2-3_00000133505858721588749340000011337077762066335152_);stroke:#000000;stroke-width:2;stroke-miterlimit:10;}
	
		.st31{fill:url(#region-2-4_00000010275870847838652170000012816908755042928292_);stroke:#000000;stroke-width:2;stroke-miterlimit:10;}
	
		.st32{fill:url(#region-2-5_00000173128592595915760430000004436501841769026179_);stroke:#000000;stroke-width:2;stroke-miterlimit:10;}
	
		.st33{fill:url(#region-2-6_00000127020200236828872320000000178137265128546985_);stroke:#000000;stroke-width:2;stroke-miterlimit:10;}
	
		.st34{fill:url(#region-2-7_00000019668470774620087250000004284913676773647243_);stroke:#000000;stroke-width:2;stroke-miterlimit:10;}
	
		.st35{fill:url(#region-2-8_00000153698023397777209400000006062922604225189027_);stroke:#000000;stroke-width:2;stroke-miterlimit:10;}
	
		.st36{fill:url(#region-2-9_00000071544437116535015430000015476748564076361618_);stroke:#000000;stroke-width:2;stroke-miterlimit:10;}
	
		.st37{fill:url(#region-3-1_00000156548614943687625080000001813856663148409473_);stroke:#000000;stroke-width:2;stroke-miterlimit:10;}
	
		.st38{fill:url(#region-3-2_00000163756842297097466300000011374207262904495512_);stroke:#000000;stroke-width:2;stroke-miterlimit:10;}
	
		.st39{fill:url(#region-3-3_00000011007331149903240260000015050940436015007148_);stroke:#000000;stroke-width:2;stroke-miterlimit:10;}
	
		.st40{fill:url(#region-3-4_00000145763443158799202520000012079181770165565884_);stroke:#000000;stroke-width:2;stroke-miterlimit:10;}
	
		.st41{fill:url(#region-3-5_00000146467852059370484260000015371693428267050429_);stroke:#000000;stroke-width:2;stroke-miterlimit:10;}
	
		.st42{fill:url(#region-3-6_00000165951464708592421510000013799792546271214995_);stroke:#000000;stroke-width:2;stroke-miterlimit:10;}
	
		.st43{fill:url(#region-3-7_00000017482622289570908450000001974647206672202931_);stroke:#000000;stroke-width:2;stroke-miterlimit:10;}
	
		.st44{fill:url(#region-3-8_00000012460152199813591630000010667783991356616118_);stroke:#000000;stroke-width:2;stroke-miterlimit:10;}
	
		.st45{fill:url(#region-3-9_00000115487020672259951150000000149393326717951676_);stroke:#000000;stroke-width:2;stroke-miterlimit:10;}
	
		.st46{fill:url(#region-3-10_00000158740072659809887650000000701105509517409443_);stroke:#000000;stroke-width:2;stroke-miterlimit:10;}
	
		.st47{fill:url(#region-3-11_00000152260645433094408880000004842986086064199047_);stroke:#000000;stroke-width:2;stroke-miterlimit:10;}
	
		.st48{fill:url(#region-3-12_00000070099131439340862580000012682906582053020087_);stroke:#000000;stroke-width:2;stroke-miterlimit:10;}
	
		.st49{fill:url(#region-4-1_00000078746360675228646650000018404983932661724306_);stroke:#000000;stroke-width:2;stroke-miterlimit:10;}
	
		.st50{fill:url(#region-4-2_00000119823098250496944830000017153198168738620068_);stroke:#000000;stroke-width:2;stroke-miterlimit:10;}
	.st51{fill:none;stroke:#000000;stroke-width:3;stroke-miterlimit:10;}
</style>
<pattern  x="1160" y="550" width="40" height="40" patternUnits="userSpaceOnUse" id="a2ed1d96-aebd-4bf9-a4b3-645f1ac" viewBox="0 -40 40 40" style="overflow:visible;">
	<g>
		<rect y="-40" class="st0" width="40" height="40"/>
		<rect y="-40" class="st0" width="40" height="40"/>
		<rect y="-40" class="st1" width="20" height="20"/>
		<rect x="20" y="-20" class="st1" width="20" height="20"/>
	</g>
</pattern>
<g id="图层_3">
	<pattern  id="SVGID_1_" xlink:href="#a2ed1d96-aebd-4bf9-a4b3-645f1ac" patternTransform="matrix(1 0 0 1 -48 525.24)">
	</pattern>
	<rect y="0" class="st2" width="2900" height="550.5"/>
</g>
<g id="图层_1">
	<g id="layer-1">
		
			<linearGradient id="region-1-1_00000116938938986786029460000016151419541615478947_" gradientUnits="userSpaceOnUse" x1="490.6534" y1="815.48" x2="490.6534" y2="816.48" gradientTransform="matrix(580 0 0 550 -284289 -448514)">
			<stop  offset="0" style="stop-color:#FFFFFE;stop-opacity:0.99"/>
			<stop  offset="1" style="stop-color:#ECE9E3;stop-opacity:0.99"/>
		</linearGradient>
		<path id="region-1-1" style="fill:url(#region-1-1_00000116938938986786029460000016151419541615478947_);" d="M0,275v275h290h290
			V275V0H290H0V275z"/>
	</g>
	<g id="layer-2">
		
			<linearGradient id="region-2-1_00000085231571711277249020000013867324396937837491_" gradientUnits="userSpaceOnUse" x1="490.0848" y1="815.8806" x2="490.0848" y2="816.8806" gradientTransform="matrix(346.9465 0 0 299.8121 -169727.7031 -244566.6406)">
			<stop  offset="0" style="stop-color:#E51001;stop-opacity:0.717"/>
			<stop  offset="1" style="stop-color:#590000;stop-opacity:0.89"/>
		</linearGradient>
		<path id="region-2-1" style="fill:url(#region-2-1_00000085231571711277249020000013867324396937837491_);" d="M249,45
			c-2.5,0.4-6.9,1.5-9.7,2.3c-2.9,0.9-5.3,1.3-5.3,0.9c0-0.4-0.4-0.3-0.8,0.3c-0.7,1-14.1,7.4-22.9,11.1c-2.4,0.9-4.3,2.1-4.3,2.6
			c0,0.4-0.6,0.8-1.2,0.8c-2.4,0-20.7,13.1-24.8,17.8c-4.5,5-13.1,18.7-15.6,24.8c-0.9,2.1-2.4,6.9-3.4,10.6c-1,3.8-2.2,7.4-2.8,8.1
			c-0.9,1.1-1.2,2.2-3.2,11.2c-2.2,10.2-5,37.4-5.2,51l-0.2,15l3.8,7.3c2.1,3.9,4.5,7.6,5.4,8.2c1,0.5,1.3,1,0.7,1
			c-0.6,0-0.6,0.3,0,0.8c0.6,0.4,3.1,3.8,5.5,7.7c14.7,23,37,46.2,64.5,67.1c12.5,9.4,13.5,11.1,9.3,15.7c-1.3,1.4-5.9,4.4-10.2,6.7
			c-7.4,4-8.5,4.3-16.5,4.5c-13.4,0.3-26.2-3.6-42.5-12.7c-9.9-5.6-12.1-7.1-19.4-13.2c-4.3-3.6-9-6.5-12.3-7.6
			c-3-1-5.6-1.7-5.8-1.5c-0.6,0.6,4.7,7.3,10.4,13.1c8.4,8.7,29.8,21,43.8,25.3c10.4,3.2,23.6,4.5,31.3,3.2
			c7.3-1.3,14.3-4.1,16.3-6.5c0.7-0.9,1.7-1.6,2.1-1.6c0.4,0,2.7-1.8,5.1-4c2.4-2.2,4.9-4,5.6-4c0.6,0,1.3-0.4,1.5-0.8
			c0.2-0.4,3-2.8,6.3-5.4c6.5-4.9,9.1-7.8,11.5-12.3c0.9-1.6,3.4-4.4,5.7-6.1c2.3-1.8,6.3-5.8,8.9-9.1c2.6-3.2,5.1-6,5.6-6.1
			c0.5-0.2,1.4-0.9,2.1-1.5c0.7-0.7,2.8-2.3,4.7-3.7c4.6-3.2,5.7-4.1,8.6-6.7c4.3-3.9,14.8-10.9,22.2-14.7l7.2-3.7v7.6
			c0,6.2,0.5,8.5,2.6,12.7c1.4,2.8,3,5.6,3.5,6.2s2.1,2.6,3.5,4.4c4,4.9,7.8,6.5,17.9,7.2c13.1,0.9,16.3,2.7,40.9,22.7
			c1.1,0.9,4.5,2.9,7.6,4.5c12.1,6.2,15.1,11.4,12.4,21.7c-2.5,9.9-1.7,16.1,2.1,16.1c2,0,2.3-0.6,2.7-5.7c0.4-4.4,1.8-8.5,5.9-16.8
			c5.1-10.4,5.6-11,8.7-11.3c1.9-0.2,5.4,0.7,8.5,2.1c2.8,1.3,7.8,2.9,10.9,3.6c8.9,1.9,10.2,3.5,10.8,12.7c0.3,4.2,1,7.9,1.5,8.1
			c0.6,0.2,1.7-1.4,2.4-3.4c0.7-2.1,2.4-6.6,3.7-10c1.9-4.8,2.4-8,2.4-14.8c0-7.9-0.3-9.5-3.5-16.2c-1.9-4.1-3.5-7.9-3.5-8.3
			c0-0.5-3.7-3.6-8.2-7c-10.7-7.9-11.8-8.8-11.8-10c0-1.4,0.3-1.3,6.2,1.4c5.8,2.7,15,5.7,15.6,5.1c0.5-0.4,0.8-4,1.7-16
			c0.5-6.7,0.3-10.7-0.9-15.8c-0.9-3.8-1.6-8.3-1.6-10c0-1.8-0.7-5.5-1.6-8.2c-0.8-2.8-1.9-7.7-2.4-11c-0.9-6.4-5.9-21-10.7-31.5
			c-4.4-9.6-5.6-12.4-5.9-13.7c-0.1-0.7-2.4-4.3-5.1-7.9c-2.6-3.6-6.4-8.9-8.3-11.8c-10.4-15.6-30.4-37.5-44.5-48.7
			c-8.7-6.8-18.2-13.9-18.9-13.9c-0.3,0-3.3-2-6.8-4.4c-9.6-6.6-34.6-20.5-38.3-21.2c-0.5-0.1-3.2-1.2-6-2.5
			c-2.7-1.2-5.2-2.3-5.5-2.3c-0.5-0.1-4.2-1.2-13.5-4c-8.8-2.6-14.3-3.6-28.7-5.1C261.8,43.9,256.1,43.8,249,45z"/>
		
			<linearGradient id="region-2-2_00000044872866092067370990000004400283584603601585_" gradientUnits="userSpaceOnUse" x1="487.3495" y1="816.2578" x2="488.7734" y2="817.0295" gradientTransform="matrix(137.9682 0 0 242.516 -67148.3125 -197836.5781)">
			<stop  offset="0" style="stop-color:#E47063;stop-opacity:0.396"/>
			<stop  offset="1" style="stop-color:#AB0000;stop-opacity:0.879"/>
		</linearGradient>
		<path id="region-2-2" style="fill:url(#region-2-2_00000044872866092067370990000004400283584603601585_);" d="M177.8,79.7
			c-0.7,1-3.8,3.9-6.8,6.5c-16.8,14.2-35.8,35.7-43.1,48.8c-2.4,4.1-5.5,9-7.1,10.7c-5.1,6.1-7.5,18.1-9.4,47.8
			c-0.3,5.5-1.1,11-1.8,12.1c-0.6,1.2-2.2,4.1-3.5,6.5c-1.9,3.4-2.6,6.3-2.9,13c-0.5,9.6,0.2,12.7,5.4,23.4c1.8,3.8,3.6,8.3,4,10
			c0.4,1.6,1.4,3.9,2.3,5c2.4,2.9,7.5,10.6,9.1,13.8c1.9,3.8,6.7,7.2,13.5,9.5c3.8,1.3,8.2,4,12.7,7.8c7.3,6.1,9.5,7.6,19.4,13.2
			c16.3,9.1,29.1,13,42.5,12.7c8-0.2,9.1-0.5,16.5-4.5c4.3-2.3,8.9-5.3,10.2-6.7c4.2-4.6,3.2-6.3-9.3-15.7
			c-27.5-20.9-49.8-44.1-64.5-67.1c-2.4-3.9-4.9-7.3-5.5-7.7c-0.6-0.5-0.6-0.8,0-0.8c0.6,0,0.3-0.5-0.7-1c-0.9-0.6-3.3-4.3-5.4-8.2
			l-3.8-7.3l0.2-15c0.2-13.6,3-40.8,5.2-51c2-9,2.3-10.1,3.2-11.2c0.6-0.7,1.8-4.4,2.9-8.3c1-3.8,2.7-8.9,3.7-11.2
			c2.6-5.9,9.7-17.4,13.9-22.6c2.4-2.9,3-4.2,1.9-4.2C179.8,78,178.5,78.8,177.8,79.7z"/>
		
			<linearGradient id="region-2-3_00000004528675453512604310000015071232239822476964_" gradientUnits="userSpaceOnUse" x1="489.1796" y1="816.0565" x2="489.1796" y2="817.0565" gradientTransform="matrix(211.6011 0 0 249.8746 -103155.5469 -203670.7031)">
			<stop  offset="0" style="stop-color:#000000;stop-opacity:0.83"/>
			<stop  offset="1" style="stop-color:#524A47;stop-opacity:0.795"/>
		</linearGradient>
		<path id="region-2-3" style="fill:url(#region-2-3_00000004528675453512604310000015071232239822476964_);" d="M322.2,245.5
			c-8,4.3-16,9.6-20.8,13.9c-2.7,2.5-3.9,3.5-8.4,6.6c-1.9,1.4-4,3-4.7,3.7c-0.7,0.6-1.6,1.3-2.1,1.5c-0.5,0.1-3,3-5.7,6.3
			c-2.6,3.2-6.5,7.1-8.5,8.6c-4.5,3.3-7,6.6-7,9.3c0,1-1.7,3.8-3.7,6.2c-10.1,11.6-11.9,16.4-11.7,32.4c0,9,0.3,9.9,3.7,16.3
			c2,3.8,3.7,7.6,3.7,8.6c0,5.5,29.2,25.1,37.3,25.1c0.4,0,3.8,1.6,7.7,3.5c3.8,1.9,8.1,3.5,9.5,3.5c3.9,0,7.1-2.6,9-7.2
			c0.9-2.2,1.7-3.9,1.9-3.7c0.2,0.2,0.7,3.5,1,7.4c0.3,3.8,0.9,9.9,1.2,13.5c1.2,13.7,5.4,21.9,13,25.5c2.9,1.4,5.1,1.6,10.1,1.1
			l6.5-0.7l-0.7,3.3c-0.8,4.5-2.6,7.8-4,7.8c-3.6,0-12.7,5.5-17,10.3c-2.7,2.8-7.7,8.2-11.2,11.9c-5.2,5.6-6.3,7.4-6.3,10.2
			c0,3.8,1.4,5.3,5.8,6.2c2.7,0.5,3,0.9,2.2,2.5c-1.6,3-1.1,7.8,1,9.9c4.6,4.6,8.3,1,9.6-9.1c0.4-3,1.9-7.4,3.5-9.9
			c1.5-2.5,3-5.9,3.4-7.7c0.3-1.8,2.7-5.4,5.3-8.1c3.9-4.2,5.4-5.1,9.1-5.5c4.2-0.5,4.6-0.3,9.6,4.4c2.9,2.7,5.7,4.9,6.2,4.9
			c0.6,0,1.3,1.7,1.7,3.9c0.7,4.5,3,7.1,4,4.5c0.3-0.8,0.3-2.6,0-3.9c-0.5-2.2-0.3-2.4,2.3-2.1c1.5,0.2,5.7,0,9.3-0.4
			c4.9-0.5,6.9-0.4,8.1,0.6c2.2,2,3.1,1.7,2.4-0.6c-0.4-1.2-0.2-2,0.5-2c2.1,0,10.2-6.4,11.6-9.2c1.3-2.5,2-2.8,6.8-2.8
			c3.5,0,5.8,0.5,6.6,1.5c0.7,0.8,2.5,1.5,4.1,1.5c2.8,0,2.9,0.2,2.9,4.5c0,5.6,2.3,10.3,5.6,11.5c6,2.3,18.6-0.2,23.4-4.5
			c3.5-3.2-1-8.9-10.1-13c-3.3-1.5-9-4.4-12.8-6.5c-3.7-2.1-8.7-4.3-11.2-5c-2.4-0.6-5.1-1.3-6-1.6c-0.9-0.3-3.1,0.7-4.8,2.2
			c-2.3,1.9-3.1,2.2-3.1,1.1c0-0.9-0.5-1.7-1.1-1.9c-0.6-0.2,0.2-2.4,1.8-5.3c2.2-3.9,2.8-4.6,3.1-3c0.5,2.3,2.1,4.5,3.2,4.5
			c0.5,0,1.1-1.4,1.5-3c0.4-1.7,1.6-3.5,2.7-4.1c2-1.1,2-1.1-0.1-2.5c-3.4-2.4-2.6-4.3,2.1-5c7.6-1.3,14.8-10.7,14.8-19.5
			c0-3.3-3.7-15.6-4.9-16.3c-0.5-0.3-1.2-3-1.5-5.9c-1.5-12-4.3-17-11.5-20.6c-5.8-3-5.7-3.8,0.4-4.3c3-0.3,5.8-0.8,6.2-1.2
			c1.2-1.2-4.5-5.6-7.1-5.6c-1.3,0-2.7-0.7-3-1.6c-1-2.7-0.7-8.7,0.8-14.5c2.7-10.3-0.3-15.5-12.4-21.7c-3.1-1.6-6.5-3.6-7.6-4.5
			c-24.6-20-27.8-21.8-40.9-22.7c-10.1-0.7-13.9-2.3-17.9-7.2c-1.4-1.8-3-3.8-3.5-4.4c-3.6-4.5-5.6-10.5-6.1-18.1l-0.5-8.2
			L322.2,245.5z"/>
		
			<linearGradient id="region-2-4_00000056406009772757096880000012329260311066302123_" gradientUnits="userSpaceOnUse" x1="485.6529" y1="821.9435" x2="485.6529" y2="822.9435" gradientTransform="matrix(83.973 0 0 38.0208 -40710.8867 -31007.9336)">
			<stop  offset="0" style="stop-color:#0E160B;stop-opacity:0.314"/>
			<stop  offset="1" style="stop-color:#000300;stop-opacity:0.385"/>
		</linearGradient>
		<path id="region-2-4" style="fill:url(#region-2-4_00000056406009772757096880000012329260311066302123_);" d="M105,244.3
			c0,0.8,0.8,3.8,1.9,6.8c3.3,9.9,0.1,12.3-17.4,13.3c-11,0.7-12.8,0.5-21.5-1.8c-11.2-3.1-13.8-3.1-24.8-0.7
			c-6.2,1.3-9,2.5-11.2,4.6c-5.5,5.3-3.4,7.7,3.7,4.2c10.6-5.3,23.8-8.4,27.2-6.3c0.6,0.4,1.1,1.9,1.1,3.4c0,2-1,3.3-3.5,5
			c-2.5,1.5-3.5,3-3.5,4.7c0,2.3,0.3,2.5,4.8,2.5c3.7,0,5.4-0.5,6.8-2.1c2.5-2.8,7.2-5.2,9-4.5c0.7,0.3,2,2.1,2.8,4.1
			c1.8,4.1,4.7,4.6,11.1,1.6c5.2-2.3,12.3-10,10.4-11.2c-1-0.6-0.9-1,0.6-1.5c1.1-0.4,4-1.5,6.4-2.5c4.1-1.8,4.3-2.1,3.7-5.1
			c-0.7-3.4-6.3-15.8-7.1-15.8C105.2,243,105,243.6,105,244.3z"/>
		
			<linearGradient id="region-2-5_00000029730372915873423370000012822429296256460696_" gradientUnits="userSpaceOnUse" x1="476.3087" y1="826.0035" x2="477.4392" y2="826.6021" gradientTransform="matrix(33.6105 0 0 24.3379 -15905.3711 -19825.7754)">
			<stop  offset="0" style="stop-color:#291B0B;stop-opacity:0.575"/>
			<stop  offset="1" style="stop-color:#160900;stop-opacity:0.649"/>
		</linearGradient>
		<path id="region-2-5" style="fill:url(#region-2-5_00000029730372915873423370000012822429296256460696_);" d="M119.6,275.5
			c-0.9,1.3-1.6,3.2-1.6,4.1c0,1.5-0.2,1.5-2.6-0.1c-3.1-2-9.3-1.3-9,1c0.3,2.2,4.7,6.5,8.8,8.6c2,1,3.9,2.8,4.3,3.9
			c0.3,1.1,1.8,2.3,3.3,2.6c1.5,0.3,3.7,1,5,1.5c2.9,1.1,12.2,1.2,12.2,0c0-1.2-6.7-9.6-12.2-15.3c-2.7-2.7-4.8-5.5-4.8-6.3
			C123,273,121.2,273,119.6,275.5z"/>
		
			<linearGradient id="region-2-6_00000133523039219934977690000000170859717423870622_" gradientUnits="userSpaceOnUse" x1="485.7722" y1="817.188" x2="487.117" y2="817.0107" gradientTransform="matrix(94.9441 0 0 163.4385 -45656.9023 -133183.3438)">
			<stop  offset="0" style="stop-color:#000000;stop-opacity:0.525"/>
			<stop  offset="1" style="stop-color:#2C2E27;stop-opacity:0.342"/>
		</linearGradient>
		<path id="region-2-6" style="fill:url(#region-2-6_00000133523039219934977690000000170859717423870622_);" d="M472,283.9
			c0,0.5,1.6,4.3,3.5,8.4c3.2,6.7,3.5,8.3,3.5,16.2c0,6.8-0.5,10-2.4,14.8c-1.3,3.4-3.2,8.4-4.1,11.2c-0.9,2.7-2,5.7-2.4,6.5
			c-0.9,1.8-0.3,4,1,4c2.3,0,8.9,5.2,8.9,7c0,1.3,0.9,2.2,2.8,2.6c5.3,1.1,5.4,1.3,4.9,4.7c-0.3,1.7-2.3,10.4-4.6,19.2
			c-5.2,19.9-6.6,37.8-3.6,44.5c1,2.2,2,3.8,2.2,3.6c0.8-0.7,10.7,3.6,14.7,6.4c2.5,1.7,6.1,3.1,9.1,3.6c2.8,0.3,5.5,1.1,6.2,1.6
			c2.1,1.7,7.3-0.1,8.4-2.9c0.9-2.5,1-2.5,3.1-0.7c1.2,1.1,3.6,3.4,5.4,5.1c3.8,3.9,5,4.1,8.7,0.9c3.3-2.8,4.6-9.3,2.1-10.3
			c-2.2-0.8-1.7-2.3,0.9-2.3c3.5,0,19,8.4,20.4,11.1c0.7,1.3,1,3.5,0.7,4.9l-0.5,2.5l1.9-2.2c1.5-1.7,1.9-3.5,1.8-7.8
			c-0.2-6.6-0.7-7.1-12.1-11c-7.5-2.6-8.7-2.7-19.1-2.1c-8.1,0.4-13.6,0.2-20-1c-5.3-0.9-11-1.3-14-0.9c-4.7,0.6-5.2,0.4-5.7-1.6
			c-0.3-1.2-0.1-3.1,0.5-4.2c4.2-8,9.2-28.3,10.3-42.2c1.1-14.3,1.1-14.4,5.7-14.7c2.5-0.2,4.5-1,5.2-2c1.5-2.5-1.6-8.4-5.9-10.9
			c-1.9-1.2-3.5-2.5-3.5-3c0-2,6.3-4.1,10.4-3.5c4.5,0.8,19.2,9,21,11.8c1.6,2.6,3,2.2,4.3-1.3c1.1-3,1-3.4-2-6.3
			c-5.6-5.6-23.4-9.7-31.7-7.4c-2.7,0.8-2.8,0.7-6.5-7.1c-0.9-1.8-3.8-5.5-6.6-8.3c-2.7-2.7-4.9-5.2-4.9-5.5c0-0.4-1.4-1.9-3.2-3.3
			l-3.2-2.7l1.7-4.4c2.9-7.9,3.1-11.2,0.7-14.2c-1.2-1.5-2.9-2.7-3.9-2.7c-0.9,0-3.2-1.1-5.1-2.5C473.4,282.9,472,282.4,472,283.9z"
			/>
		
			<linearGradient id="region-2-7_00000031168297739572352800000006810545307044063896_" gradientUnits="userSpaceOnUse" x1="480.9886" y1="819.3387" x2="480.9886" y2="820.3387" gradientTransform="matrix(46.7114 0 0 60.8483 -22020.209 -49545.293)">
			<stop  offset="0" style="stop-color:#9D9F8C;stop-opacity:0.805"/>
			<stop  offset="1" style="stop-color:#BAB396;stop-opacity:0.766"/>
		</linearGradient>
		<path id="region-2-7" style="fill:url(#region-2-7_00000031168297739572352800000006810545307044063896_);" d="M435.2,311.2
			c-0.5,0.7-3.1,5.8-5.8,11.3c-3.3,7-4.8,11.7-5.1,15.5c-0.5,5.3-0.3,5.7,3.5,9.8c2.2,2.4,5.7,7.8,7.7,12c2.1,4.2,4.4,8.5,5.3,9.4
			c2.2,2.5,5.6,2.2,9.2-0.8c2.8-2.4,19.4-23.8,19.6-25.3c0-0.3,0.4-1.4,0.9-2.5c0.5-1.1,0.4-2.6-0.3-3.7c-0.7-1-1.2-4.8-1.2-8.4
			c0-8.5-1.9-10.6-11.6-12.8c-3.8-0.9-8.7-2.5-10.9-3.7C442.1,309.7,436.8,309.4,435.2,311.2z"/>
		
			<linearGradient id="region-2-8_00000112630557481523593590000012361029530230340789_" gradientUnits="userSpaceOnUse" x1="488.1098" y1="816.8926" x2="488.1098" y2="817.8926" gradientTransform="matrix(144.8303 0 0 139.4867 -70477.6875 -113631.4219)">
			<stop  offset="0" style="stop-color:#000000;stop-opacity:0.602"/>
			<stop  offset="1" style="stop-color:#281809;stop-opacity:0.858"/>
		</linearGradient>
		<path id="region-2-8" style="fill:url(#region-2-8_00000112630557481523593590000012361029530230340789_);" d="M250.9,314.8
			c-0.2,0.4-2.2,1.9-4.4,3.3c-8.6,5.2-16.5,11.6-18.7,15.1c-1.9,3-3.3,3.9-8.3,5.3c-3.7,1.1-8.1,3.4-11.7,6.1
			c-5.9,4.6-11.8,11-11.8,13c0,1.3-3.4,4.5-4.6,4.3c-3.6-0.6-4.4,1.3-1.9,4.2c1.4,1.5,1.4,1.8-0.1,3.3c-0.9,0.9-4.2,3.3-7.3,5.3
			c-3.1,1.9-6.5,4.3-7.6,5.3c-1.1,1-3.9,2.3-6.1,2.9c-2.3,0.6-5.4,2.1-7,3.3c-4.3,3.2-12.4,11.2-12.4,12.1c0,0.5-1.3,2-3,3.4
			c-3,2.5-3.9,5.6-2,6.8c0.6,0.3,1,0,1-0.8c0-0.8,0.8-1.7,1.8-2c0.9-0.2,2.5-0.8,3.4-1.2c1.4-0.6,1.9,0.2,2.9,3.9
			c1.1,4.3,3.3,7.5,4.5,6.3c0.3-0.3,0-2.4-0.7-4.6c-1.8-6.2,0-7.7,9-7.2l6.9,0.3l3.2-4c1.8-2.3,4.3-4.2,5.9-4.5
			c2.1-0.4,3.9-2.2,6.6-6.4c5.1-7.8,7.5-10.3,9.8-10.3c2.3,0,8.2-5.9,9-8.9c0.4-1.6,0-2.1-1.3-2.1c-1,0-2.1-0.7-2.4-1.6
			c-0.8-2.2-0.8-2.4,0.7-2.4s5.6-4.3,7.5-7.9c1.1-2.1,1-2.6-0.3-3.3c-2.4-1.4-1.8-3.1,0.9-2.4c1.6,0.4,3.5-0.2,6-1.9
			c4.2-2.8,8.7-3.2,10.7-0.9c0.7,0.8,2.1,1.3,3.1,1.1c1.4-0.4,1.8,0.1,1.8,2.3c0,1.6-0.4,3.1-1,3.5c-1.4,0.9-0.5,11.6,1.2,15
			c0.9,1.6,2.1,5,2.8,7.5c2.8,10.6,19,39.5,27,48l2.6,2.8l-9.6,0.6c-5.2,0.4-12.2,0.2-15.4-0.3c-3.2-0.6-6.2-0.8-6.7-0.5
			c-0.4,0.2-2.5,0.5-4.6,0.6c-4.1,0.1-18.3,6.2-19.6,8.4c-0.4,0.8-1.6,1.4-2.6,1.4c-2.1,0-3.1,1.9-3.1,6c0,3.3,1.6,4.9,2.3,2.3
			c0.3-1,0.5-0.2,0.6,1.8c0,1.9,0.8,4.4,1.6,5.5c1.3,1.8,1.4,1.7,1.5-1.9c0-4.8,1.5-7.7,3.9-7.7c1,0,2.9-0.8,4.2-1.9
			c2.9-2.2,13.3-8.1,14.3-8.1c0.5,0,0.1,1.1-0.8,2.5c-2.1,3.2-2.1,3.1,1.4,6.5c3.4,3.4,6.4,3.8,9.9,1.4c3.2-2.3,16.7-3.2,26.7-1.8
			c4.5,0.6,11.9-2.1,15.4-5.6c4-4,1.2-17.5-5.9-28.5c-4.6-7.3-21-27.4-28.2-34.8c-9.2-9.4-11.6-14.8-6.1-14
			c6.2,0.9,11.2,0.8,11.2-0.4c0-0.6-1.7-4.2-3.7-8c-3.6-6.6-3.7-7.1-3.7-17.3c0-6.1,0.5-12.1,1.3-14.3c0.7-2.1,1.1-4.1,0.8-4.3
			C251.4,314.1,251,314.3,250.9,314.8z"/>
		
			<linearGradient id="region-2-9_00000132808720467629189210000001114968607119709571_" gradientUnits="userSpaceOnUse" x1="483.729" y1="823.0935" x2="483.8572" y2="824.3792" gradientTransform="matrix(63.6449 0 0 32.4414 -30338.4316 -26279.5801)">
			<stop  offset="0" style="stop-color:#A15F11;stop-opacity:0.335"/>
			<stop  offset="1" style="stop-color:#B55000;stop-opacity:0.416"/>
		</linearGradient>
		<path id="region-2-9" style="fill:url(#region-2-9_00000132808720467629189210000001114968607119709571_);" d="M422.7,425.2
			c-2.2,1.8-3.4,6.8-1.6,6.8c0.8,0,2.6,0.7,4.1,1.4c1.5,0.8,4,1.4,5.6,1.4c1.5-0.1,3.7,0.4,4.7,0.9c1.1,0.6,5.4,1.6,9.5,2.3
			c12.6,2.1,15.7,3.5,23,11c7.9,8.1,10.2,9.1,13.6,5.9c4.4-4.1,3-5.8-9.5-12.1c-6.2-3.1-13.9-6.3-17-7.1c-4.4-1.2-18.1-3.7-20.4-3.7
			c-0.2,0-2.3-1.8-4.8-4C424.9,423.5,425,423.5,422.7,425.2z"/>
	</g>
	<g id="layer-3">
		
			<linearGradient id="region-3-1_00000078726842262509256520000003487161180451078532_" gradientUnits="userSpaceOnUse" x1="480.7955" y1="824.311" x2="481.8302" y2="824.3997" gradientTransform="matrix(48.3 0 0 29.8081 -22893.3125 -24492.5605)">
			<stop  offset="0" style="stop-color:#114644;stop-opacity:0.441"/>
			<stop  offset="1" style="stop-color:#004C5A;stop-opacity:0.528"/>
		</linearGradient>
		<path id="region-3-1" style="fill:url(#region-3-1_00000078726842262509256520000003487161180451078532_);" d="M331,66
			c0,1.1,5.8,7.2,14,14.6c4.2,3.8,8.2,6,17.2,9.7c6.8,2.8,12.9,4.7,14.5,4.5l2.6-0.3l-3.9-4.1c-2.2-2.2-6-5.3-8.4-6.9
			c-2.5-1.5-5.4-3.6-6.5-4.6s-5.8-3.7-10.5-5.9c-4.6-2.3-9.5-5-10.8-6.1C336.6,64.9,331,64.3,331,66z"/>
		
			<linearGradient id="region-3-2_00000000218600080476155300000011892109584241355657_" gradientUnits="userSpaceOnUse" x1="483.3197" y1="819.8326" x2="483.3197" y2="820.8326" gradientTransform="matrix(60.0222 0 0 54.629 -28798.666 -44702.5078)">
			<stop  offset="0" style="stop-color:#000507;stop-opacity:0.784"/>
			<stop  offset="1" style="stop-color:#00070A;stop-opacity:0.824"/>
		</linearGradient>
		<path id="region-3-2" style="fill:url(#region-3-2_00000000218600080476155300000011892109584241355657_);" d="M228,85
			c-6,0.9-9.1,2.3-11.5,5c-1.1,1.3-3.9,3.1-6.2,4.2c-6.1,2.7-16.4,9.7-18.8,12.7c-1.1,1.4-3,3.9-4.2,5.6c-1.2,1.6-2.9,4-3.8,5.1
			c-2.1,2.8-3,12.9-1.5,16.5c1.2,2.7,5.7,5.2,8.3,4.5c0.7-0.2,3.7-1.1,6.7-1.9c3-0.9,7.7-2.2,10.3-2.9c3.9-1,6.5-2.9,13-9.1
			c4.5-4.4,9.7-8.5,11.5-9.3c1.7-0.8,3.2-1.8,3.2-2.3c0-0.4,1.1-2.1,2.4-3.6c3-3.4,4.4-11.8,3.7-21.5c-0.1-1.2-5.5-4.1-7.3-3.9
			C233.1,84.2,230.5,84.6,228,85z"/>
		
			<linearGradient id="region-3-3_00000032609866076104669740000007676344885001602742_" gradientUnits="userSpaceOnUse" x1="488.1241" y1="817.7582" x2="489.0061" y2="816.6583" gradientTransform="matrix(167.0982 0 0 154.5527 -81264.9219 -126140.2969)">
			<stop  offset="0" style="stop-color:#C2736B;stop-opacity:0.554"/>
			<stop  offset="1" style="stop-color:#FFDAD2;stop-opacity:0.958"/>
		</linearGradient>
		<path id="region-3-3" style="fill:url(#region-3-3_00000032609866076104669740000007676344885001602742_);" d="M315.5,85
			c-1.6,0.4-5.9,2.1-9.5,3.8c-14,6.5-15.5,10.9-16.4,47c-0.6,22.4-0.4,27,0.9,31.7c0.9,3,2.2,6.1,2.8,6.8c1.7,1.9,3.7,5.5,3.7,6.8
			c0,1.2,5.9,8.4,6.9,8.4c0.3,0.1,1.5,0.6,2.6,1.2c1.1,0.6,7.2,1.6,13.5,2.3c6.3,0.7,12,1.6,12.5,2c0.6,0.4,2.4,1,4,1.4
			c2.8,0.6,11.6,3.9,19.1,7.2c1.6,0.7,3.8,2.2,4.8,3.2c0.9,1.1,3.7,3.2,6.2,4.8c4.8,3.1,5.2,4.5,2.9,10.1c-0.8,1.9-1.5,4.6-1.5,5.9
			c0,2.2,0.4,2.4,4.6,2.4c2.5,0,9.5,1.2,15.6,2.7l11.1,2.7l4.9-5.3c6.1-6.3,7.1-6.1,13.1,1.7c5.2,6.9,8.6,8.2,14.3,5.7
			c2.2-0.9,5-2.2,6.4-2.7c9.7-4.1,16.3-9.6,17.7-14.9c0.6-1.9,0.8-5.2,0.6-7.4c-0.5-4.9-4.6-14-6.6-14.8c-0.8-0.3-2.4-3.4-3.6-6.9
			c-1.2-3.5-3.2-7.6-4.6-9.2c-1.4-1.6-2.5-3.5-2.5-4.3c0-0.7-0.6-1.6-1.4-1.9c-0.8-0.3-2-2-2.7-3.7c-0.7-1.8-2.7-5.3-4.5-7.9
			c-1.7-2.6-4.2-6.8-5.5-9.5c-1.3-2.6-3.3-5.9-4.6-7.3c-1.3-1.4-2.3-3-2.3-3.6c0-1.5-20-22.4-21.4-22.4c-2,0-16.3-9.7-16.9-11.4
			c-0.4-0.9-2.6-2.5-5.1-3.5c-2.4-1.1-4.5-2.3-4.7-2.8c-0.5-1.2-11-8.3-12.2-8.3c-0.5,0-2.8-1.2-5.1-2.8c-3.6-2.4-7.4-4.2-15.4-7.3
			C334.5,83.8,319.8,83.9,315.5,85z"/>
		
			<linearGradient id="region-3-4_00000154394449134844819460000011733763839531582095_" gradientUnits="userSpaceOnUse" x1="476.4805" y1="820.083" x2="476.4805" y2="821.083" gradientTransform="matrix(32.6909 0 0 51.9378 -15419.71 -42378.3672)">
			<stop  offset="0" style="stop-color:#013E43;stop-opacity:0.559"/>
			<stop  offset="1" style="stop-color:#00575B;stop-opacity:0.463"/>
		</linearGradient>
		<path id="region-3-4" style="fill:url(#region-3-4_00000154394449134844819460000011733763839531582095_);" d="M153,215.7
			c-2.9,1-8.2,6.8-10.6,11.6c-2.4,4.6-2.4,4.8-0.7,8c1.3,2.4,1.8,5.8,1.8,13.7c0.1,11.6,1,13.9,6,16.6c4.6,2.5,6.6,1.5,9.7-4.6
			c1.4-2.9,4.7-7.6,7.3-10.3c2.5-2.7,4.8-6.2,5.2-7.8c0.3-1.6,0.9-2.9,1.3-2.9c1.1,0-2.8-16.8-4.7-20
			C165.9,215.8,158.4,213.7,153,215.7z"/>
		
			<linearGradient id="region-3-5_00000017498484607477297690000001488398002697717414_" gradientUnits="userSpaceOnUse" x1="478.9538" y1="822.46" x2="479.5546" y2="823.6973" gradientTransform="matrix(40.1902 0 0 35 -18940.3926 -28573)">
			<stop  offset="0" style="stop-color:#CE8531;stop-opacity:0.754"/>
			<stop  offset="1" style="stop-color:#E59C49;stop-opacity:0.845"/>
		</linearGradient>
		<path id="region-3-5" style="fill:url(#region-3-5_00000017498484607477297690000001488398002697717414_);" d="M316.8,219.3
			c-5.6,4.8-14.8,17.7-14.8,20.8c0,2.8,5.3,10.9,7.1,10.9c0.6,0,2.3-0.8,3.7-1.8c3.8-2.6,19.8-10.6,25.3-12.7
			c4.6-1.7,4.7-1.7,3.3-4.3c-0.8-1.5-1.4-3.2-1.4-3.8c0-2.5-14.8-12.4-18.3-12.4C321,216,318.8,217.5,316.8,219.3z"/>
		
			<linearGradient id="region-3-6_00000001652936161479321980000007369757727998580122_" gradientUnits="userSpaceOnUse" x1="487.8649" y1="818.4299" x2="488.5048" y2="817.1528" gradientTransform="matrix(148 0 0 112.8927 -71846 -92040.4453)">
			<stop  offset="0" style="stop-color:#27565F;stop-opacity:0.598"/>
			<stop  offset="1" style="stop-color:#77A6AE;stop-opacity:0.909"/>
		</linearGradient>
		<path id="region-3-6" style="fill:url(#region-3-6_00000001652936161479321980000007369757727998580122_);" d="M352,232.6
			c-3,0.8-7.3,2.3-9.5,3.4c-2.2,1-5.7,2.5-7.7,3.4l-3.8,1.5v7.6c0,6.2,0.5,8.5,2.6,12.7c1.4,2.8,3,5.6,3.5,6.2s2.1,2.6,3.5,4.4
			c4,4.9,7.8,6.5,17.9,7.2c13.1,0.9,16.3,2.7,40.9,22.7c1.1,0.9,4.5,2.9,7.6,4.5c12.1,6.2,15.1,11.4,12.4,21.7
			c-2.5,9.9-1.7,16.1,2.1,16.1c2,0,2.3-0.6,2.7-5.8c0.4-4.3,1.8-8.4,5.9-16.7c5.1-10.4,5.6-11,8.7-11.3c1.9-0.2,5.4,0.7,8.5,2.1
			c2.8,1.3,7.8,2.9,10.9,3.6c8.9,1.9,10.2,3.5,10.8,12.7c0.3,4.2,1,7.9,1.5,8.1c0.6,0.2,1.7-1.4,2.4-3.4c0.7-2.1,2.4-6.6,3.7-10
			c1.9-4.8,2.4-8,2.4-14.8c0-7.9-0.3-9.5-3.5-16.2c-1.9-4.1-3.5-7.9-3.5-8.3c0-0.5-3.7-3.6-8.2-7c-11.4-8.4-12-8.9-11.4-10.5
			c0.3-0.8-1.1-2.1-3.7-3.4c-5.7-2.9-9-4.8-17.2-10.2c-6.6-4.3-13.5-7.9-15-7.9c-0.4,0-3.7-1.4-7.3-3.1c-10.8-5-16-6.9-24.9-8.9
			C374.3,230.6,360,230.5,352,232.6z"/>
		
			<linearGradient id="region-3-7_00000030444940674524505830000008269191242882109846_" gradientUnits="userSpaceOnUse" x1="483.3392" y1="819.841" x2="484.5096" y2="820.181" gradientTransform="matrix(64.8032 0 0 58 -31058.3828 -47201)">
			<stop  offset="0" style="stop-color:#E7DE9D;stop-opacity:0.421"/>
			<stop  offset="1" style="stop-color:#FFFFC1;stop-opacity:0.559"/>
		</linearGradient>
		<path id="region-3-7" style="fill:url(#region-3-7_00000030444940674524505830000008269191242882109846_);" d="M295.8,334.2
			c-0.8,0.7-2.5,2.8-3.8,4.7c-1.3,1.8-3.9,4.1-5.9,5s-6.6,3.4-10.3,5.5c-6.7,3.7-6.8,3.8-6.8,8c0,6,1.6,9.9,5,12.5
			c1.9,1.4,3,3.1,3,4.6c0,1.9,1,3,4.3,4.7c4.3,2.3,13.7,5.8,13.7,5.1c0-0.2,3.1,1.3,7,3.2c3.8,1.9,8.1,3.5,9.5,3.5
			c3.8,0,7.1-2.6,8.8-6.8c0.8-2.1,3.3-6.2,5.6-9.2s4.1-5.9,4.1-6.5c0-0.5,0.7-2.3,1.5-3.8c0.8-1.5,1.7-4.3,2.1-6.2
			c0.5-2.9,0.2-3.6-2.3-5.2c-1.5-1-6.9-6-12-11l-9.2-9.3h-6.4C300.1,333,296.7,333.5,295.8,334.2z"/>
		
			<linearGradient id="region-3-8_00000066480918883253643930000006987735647564246172_" gradientUnits="userSpaceOnUse" x1="484.8494" y1="819.3749" x2="485.7011" y2="820.5434" gradientTransform="matrix(77.7315 0 0 58.72 -37313.1641 -47769.6406)">
			<stop  offset="0" style="stop-color:#A4D3DB;stop-opacity:0.18"/>
			<stop  offset="1" style="stop-color:#D0FFFF;stop-opacity:0.352"/>
		</linearGradient>
		<path id="region-3-8" style="fill:url(#region-3-8_00000066480918883253643930000006987735647564246172_);" d="M404,352.6
			c-4.1,0.8-10.2,1.9-13.5,2.4c-23.6,3.8-28.5,5.9-28.5,12.3c0,5.3,1.5,5.9,13.7,5.6c11.5-0.2,18.1,1,24.3,4.7
			c4.6,2.7,9.6,4.9,14.5,6.4c5.7,1.8,9.7,4.4,11.7,7.7c1.4,2.5,1.5,3.3,0.2,6.8c-2,5.9-1.7,7.3,1.9,9.5c6.4,4,10.1,1.6,11.3-7.2
			c0.7-4.6-1.5-14.3-4.1-18.3c-0.7-1.1-1.6-4.4-2-7.2c-1.6-11.9-4.3-16.6-11.4-20.2c-2.2-1.2-4.2-2.5-4.6-3.1
			C416.7,350.7,413.2,350.9,404,352.6z"/>
		
			<linearGradient id="region-3-9_00000031165317743679432640000002279627899515132312_" gradientUnits="userSpaceOnUse" x1="462.0646" y1="827.7307" x2="463.2641" y2="828.5562" gradientTransform="matrix(17.0096 0 0 20.9029 -7456.7329 -16908.7363)">
			<stop  offset="0" style="stop-color:#F6F6B8;stop-opacity:0.397"/>
			<stop  offset="1" style="stop-color:#FFFFC4;stop-opacity:0.446"/>
		</linearGradient>
		<path id="region-3-9" style="fill:url(#region-3-9_00000031165317743679432640000002279627899515132312_);" d="M409.8,393.5
			c-2.1,1.4-4.2,3.4-4.8,4.5c-1.7,3.1-1.2,8.5,1.1,11.4c2.5,3.1,7.5,3.5,12,0.9c2.7-1.6,2.9-2.2,2.9-7.9c0-4.7-0.5-6.7-2.1-8.8
			C416.3,390.3,414.5,390.3,409.8,393.5z"/>
		
			<linearGradient id="region-3-10_00000159431427238120060800000013579984488321419449_" gradientUnits="userSpaceOnUse" x1="463.6806" y1="827.0262" x2="464.8453" y2="827.89" gradientTransform="matrix(18 0 0 22.0548 -7993 -17840.7441)">
			<stop  offset="0" style="stop-color:#F7F49F;stop-opacity:0.281"/>
			<stop  offset="1" style="stop-color:#FFFFAC;stop-opacity:0.334"/>
		</linearGradient>
		<path id="region-3-10" style="fill:url(#region-3-10_00000159431427238120060800000013579984488321419449_);" d="M354.6,399.6
			c-0.8,2-0.8,8.2,0,11.1c0.3,1.2,1.5,2.3,2.7,2.5c1.2,0.2,2.3,1.2,2.5,2.3c0.6,3.2,2.2,4.5,5.8,4.5c4.6,0,6.4-2.9,6.4-10.2V404
			l-4.7-3C362,397.6,355.6,396.9,354.6,399.6z"/>
		
			<linearGradient id="region-3-11_00000072243159978820128660000017156835050739759284_" gradientUnits="userSpaceOnUse" x1="479.7773" y1="837.4589" x2="479.8824" y2="839.0431" gradientTransform="matrix(41.9901 0 0 11.7385 -19759.1113 -9401.668)">
			<stop  offset="0" style="stop-color:#F6F9B0;stop-opacity:0.232"/>
			<stop  offset="1" style="stop-color:#FFFFBA;stop-opacity:0.27"/>
		</linearGradient>
		<path id="region-3-11" style="fill:url(#region-3-11_00000072243159978820128660000017156835050739759284_);" d="M396.5,430.2
			c-4.4,0.5-12.5,1.6-17.9,2.6c-10.7,1.8-13.3,3.5-10.6,6.7c1.3,1.6,2.8,1.7,13.1,1.1c19-1.1,27.9-4,27.9-9.1
			C409,428.7,409.3,428.7,396.5,430.2z"/>
		
			<linearGradient id="region-3-12_00000136385735323640415470000001266947398792712338_" gradientUnits="userSpaceOnUse" x1="474.4263" y1="820.6387" x2="474.4263" y2="821.6387" gradientTransform="matrix(28.7577 0 0 46.8191 -13306.9326 -37977.375)">
			<stop  offset="0" style="stop-color:#F1B983;stop-opacity:0.333"/>
			<stop  offset="1" style="stop-color:#FFD09A;stop-opacity:0.422"/>
		</linearGradient>
		<path id="region-3-12" style="fill:url(#region-3-12_00000136385735323640415470000001266947398792712338_);" d="M347.5,445.4
			c-1.1,1-4.2,3.3-7,5c-5.2,3.3-8.7,8.3-10.6,15.1c-0.6,2.2-2.6,6.5-4.5,9.6c-3.9,6.5-4.3,11-1.4,13.9c4.6,4.6,8.3,1,9.6-9.1
			c0.4-3,1.9-7.4,3.5-9.9c1.5-2.5,3-5.9,3.4-7.7c0.3-1.8,2.8-5.5,5.5-8.5c4.8-5.2,5.7-7.2,4.2-9.3
			C349.8,443.8,348.8,444.2,347.5,445.4z"/>
	</g>
	<g id="layer-4">
		
			<linearGradient id="region-4-1_00000057111150725552914390000007800766760873177270_" gradientUnits="userSpaceOnUse" x1="486.3365" y1="818.3289" x2="486.3365" y2="819.3289" gradientTransform="matrix(95.0916 0 0 79.3045 -45905.6094 -64742.9961)">
			<stop  offset="0" style="stop-color:#0D515E;stop-opacity:0.464"/>
			<stop  offset="1" style="stop-color:#002B39;stop-opacity:0.612"/>
		</linearGradient>
		<path id="region-4-1" style="fill:url(#region-4-1_00000057111150725552914390000007800766760873177270_);" d="M325,155.3
			c-7.8,0.8-9.8,1.8-24.4,11.9c-4.8,3.3-5.5,4.4-6.6,8.8c-1.2,5.1-0.6,15.4,1,17.5c0.4,0.5,1.5,3.5,2.5,6.5s2.5,6.4,3.4,7.4
			c2.2,2.5,12.9,7.4,18.3,8.2c8.5,1.4,20.2,9.3,21.3,14.5c0.4,1.6,1,3.1,1.4,3.3c0.4,0.3,4-0.4,8.1-1.5c4-1,9.8-1.9,12.7-1.9
			c4.9,0,5.3-0.2,5.3-2.4c0-1.3,0.7-4,1.5-5.9c0.8-2,1.5-4.9,1.5-6.5c0-2.3,0.6-3.2,2.8-4.1c1.5-0.6,3.5-2.4,4.4-3.9
			c3.5-5.5,4.3-6.8,6.6-10c1.3-1.7,2.7-5.7,3.2-8.8c0.8-5,0.7-6.1-1.5-10.4c-1.3-2.6-5.2-7.9-8.5-11.8c-5.5-6.3-6.6-7.1-10.8-7.7
			c-2.6-0.4-4.9-1.1-5.2-1.6c-0.9-1.3-14.7-3-22.5-2.7C335.7,154.3,329.1,154.8,325,155.3z"/>
		
			<linearGradient id="region-4-2_00000144324109998455033750000009822483912545643673_" gradientUnits="userSpaceOnUse" x1="479.6114" y1="824.0291" x2="479.6114" y2="825.0291" gradientTransform="matrix(41.3 0 0 29.2388 -19419.3008 -23887.4961)">
			<stop  offset="0" style="stop-color:#D88608;stop-opacity:0.325"/>
			<stop  offset="1" style="stop-color:#D27800;stop-opacity:0.379"/>
		</linearGradient>
		<path id="region-4-2" style="fill:url(#region-4-2_00000144324109998455033750000009822483912545643673_);" d="M377.6,207.8
			c-0.4,1.1-2,2.5-3.6,3.2c-2.4,1-3,1.9-3,4.2c0,1.6-0.7,4.5-1.5,6.5c-0.8,1.9-1.5,4.6-1.5,5.9c0,2.2,0.4,2.4,4.6,2.4
			c2.5,0,9.5,1.2,15.6,2.7l11.1,2.7l5-5.3l5-5.2l-5.4-5.5c-2.9-3-5.8-5.4-6.5-5.4c-0.6,0-3.1-1.5-5.5-3.4
			C386.3,206.2,378.5,204.7,377.6,207.8z"/>
	</g>
</g>
<g id="图层_2">
	<g id="layer-1_00000021083774767694923980000011880767678756751506_">
		
			<linearGradient id="region-1-1_00000135648762640845198670000016492425227343036550_" gradientUnits="userSpaceOnUse" x1="491.6534" y1="815.48" x2="491.6534" y2="816.48" gradientTransform="matrix(580 0 0 550 -284289 -448514)">
			<stop  offset="0" style="stop-color:#FFFFFE;stop-opacity:0.99"/>
			<stop  offset="1" style="stop-color:#ECE9E3;stop-opacity:0.99"/>
		</linearGradient>
		
			<path id="region-1-1_00000147918432857731365830000011934358338851172275_" style="fill:url(#region-1-1_00000135648762640845198670000016492425227343036550_);stroke:#000000;stroke-width:3;stroke-miterlimit:10;" d="
			M580,275v275h290h290V275V0H870H580V275z"/>
	</g>
	<g id="layer-2_00000176750490187405523660000015397075413396126359_">
		
			<linearGradient id="region-2-1_00000117644234142457901450000009466955727320365998_" gradientUnits="userSpaceOnUse" x1="493.4088" y1="815.8806" x2="493.4088" y2="816.8806" gradientTransform="matrix(346.9465 0 0 299.8121 -169727.7031 -244566.6406)">
			<stop  offset="0" style="stop-color:#E51001;stop-opacity:0.717"/>
			<stop  offset="1" style="stop-color:#590000;stop-opacity:0.89"/>
		</linearGradient>
		
			<path id="region-2-1_00000155854058525208079790000007803774605138447511_" style="fill:url(#region-2-1_00000117644234142457901450000009466955727320365998_);stroke:#000000;stroke-width:2;stroke-miterlimit:10;" d="
			M1402.3,45c-2.5,0.4-6.9,1.5-9.7,2.3c-2.9,0.9-5.3,1.3-5.3,0.9c0-0.4-0.4-0.3-0.8,0.3c-0.7,1-14.1,7.4-22.9,11.1
			c-2.4,0.9-4.3,2.1-4.3,2.6c0,0.4-0.6,0.8-1.2,0.8c-2.4,0-20.7,13.1-24.8,17.8c-4.5,5-13.1,18.7-15.6,24.8
			c-0.9,2.1-2.4,6.9-3.4,10.6c-1,3.8-2.2,7.4-2.8,8.1c-0.9,1.1-1.2,2.2-3.2,11.2c-2.2,10.2-5,37.4-5.2,51l-0.2,15l3.8,7.3
			c2.1,3.9,4.5,7.6,5.4,8.2c1,0.5,1.3,1,0.7,1s-0.6,0.3,0,0.8c0.6,0.4,3.1,3.8,5.5,7.7c14.7,23,37,46.2,64.5,67.1
			c12.5,9.4,13.5,11.1,9.3,15.7c-1.3,1.4-5.9,4.4-10.2,6.7c-7.4,4-8.5,4.3-16.5,4.5c-13.4,0.3-26.2-3.6-42.5-12.7
			c-9.9-5.6-12.1-7.1-19.4-13.2c-4.3-3.6-9-6.5-12.3-7.6c-3-1-5.6-1.7-5.8-1.5c-0.6,0.6,4.7,7.3,10.4,13.1
			c8.4,8.7,29.8,21,43.8,25.3c10.4,3.2,23.6,4.5,31.3,3.2c7.3-1.3,14.3-4.1,16.3-6.5c0.7-0.9,1.7-1.6,2.1-1.6s2.7-1.8,5.1-4
			c2.4-2.2,4.9-4,5.6-4c0.6,0,1.3-0.4,1.5-0.8c0.2-0.4,3-2.8,6.3-5.4c6.5-4.9,9.1-7.8,11.5-12.3c0.9-1.6,3.4-4.4,5.7-6.1
			c2.3-1.8,6.3-5.8,8.9-9.1c2.6-3.2,5.1-6,5.6-6.1c0.5-0.2,1.4-0.9,2.1-1.5c0.7-0.7,2.8-2.3,4.7-3.7c4.6-3.2,5.7-4.1,8.6-6.7
			c4.3-3.9,14.8-10.9,22.2-14.7l7.2-3.7v7.6c0,6.2,0.5,8.5,2.6,12.7c1.4,2.8,3,5.6,3.5,6.2s2.1,2.6,3.5,4.4c4,4.9,7.8,6.5,17.9,7.2
			c13.1,0.9,16.3,2.7,40.9,22.7c1.1,0.9,4.5,2.9,7.6,4.5c12.1,6.2,15.1,11.4,12.4,21.7c-2.5,9.9-1.7,16.1,2.1,16.1
			c2,0,2.3-0.6,2.7-5.7c0.4-4.4,1.8-8.5,5.9-16.8c5.1-10.4,5.6-11,8.7-11.3c1.9-0.2,5.4,0.7,8.5,2.1c2.8,1.3,7.8,2.9,10.9,3.6
			c8.9,1.9,10.2,3.5,10.8,12.7c0.3,4.2,1,7.9,1.5,8.1c0.6,0.2,1.7-1.4,2.4-3.4c0.7-2.1,2.4-6.6,3.7-10c1.9-4.8,2.4-8,2.4-14.8
			c0-7.9-0.3-9.5-3.5-16.2c-1.9-4.1-3.5-7.9-3.5-8.3c0-0.5-3.7-3.6-8.2-7c-10.7-7.9-11.8-8.8-11.8-10c0-1.4,0.3-1.3,6.2,1.4
			c5.8,2.7,15,5.7,15.6,5.1c0.5-0.4,0.8-4,1.7-16c0.5-6.7,0.3-10.7-0.9-15.8c-0.9-3.8-1.6-8.3-1.6-10c0-1.8-0.7-5.5-1.6-8.2
			c-0.8-2.8-1.9-7.7-2.4-11c-0.9-6.4-5.9-21-10.7-31.5c-4.4-9.6-5.6-12.4-5.9-13.7c-0.1-0.7-2.4-4.3-5.1-7.9
			c-2.6-3.6-6.4-8.9-8.3-11.8c-10.4-15.6-30.4-37.5-44.5-48.7c-8.7-6.8-18.2-13.9-18.9-13.9c-0.3,0-3.3-2-6.8-4.4
			c-9.6-6.6-34.6-20.5-38.3-21.2c-0.5-0.1-3.2-1.2-6-2.5c-2.7-1.2-5.2-2.3-5.5-2.3c-0.5-0.1-4.2-1.2-13.5-4
			c-8.8-2.6-14.3-3.6-28.7-5.1C1415.1,43.9,1409.4,43.8,1402.3,45z"/>
		
			<linearGradient id="region-2-2_00000067206913033232272360000001563981034577739412_" gradientUnits="userSpaceOnUse" x1="495.7084" y1="816.2578" x2="497.1323" y2="817.0295" gradientTransform="matrix(137.9682 0 0 242.516 -67148.3125 -197836.5781)">
			<stop  offset="0" style="stop-color:#E47063;stop-opacity:0.396"/>
			<stop  offset="1" style="stop-color:#AB0000;stop-opacity:0.879"/>
		</linearGradient>
		
			<path id="region-2-2_00000001656110923812043920000016315277029252588698_" style="fill:url(#region-2-2_00000067206913033232272360000001563981034577739412_);stroke:#000000;stroke-width:2;stroke-miterlimit:10;" d="
			M1331.1,79.7c-0.7,1-3.8,3.9-6.8,6.5c-16.8,14.2-35.8,35.7-43.1,48.8c-2.4,4.1-5.5,9-7.1,10.7c-5.1,6.1-7.5,18.1-9.4,47.8
			c-0.3,5.5-1.1,11-1.8,12.1c-0.6,1.2-2.2,4.1-3.5,6.5c-1.9,3.4-2.6,6.3-2.9,13c-0.5,9.6,0.2,12.7,5.4,23.4c1.8,3.8,3.6,8.3,4,10
			c0.4,1.6,1.4,3.9,2.3,5c2.4,2.9,7.5,10.6,9.1,13.8c1.9,3.8,6.7,7.2,13.5,9.5c3.8,1.3,8.2,4,12.7,7.8c7.3,6.1,9.5,7.6,19.4,13.2
			c16.3,9.1,29.1,13,42.5,12.7c8-0.2,9.1-0.5,16.5-4.5c4.3-2.3,8.9-5.3,10.2-6.7c4.2-4.6,3.2-6.3-9.3-15.7
			c-27.5-20.9-49.8-44.1-64.5-67.1c-2.4-3.9-4.9-7.3-5.5-7.7c-0.6-0.5-0.6-0.8,0-0.8s0.3-0.5-0.7-1c-0.9-0.6-3.3-4.3-5.4-8.2
			l-3.8-7.3l0.2-15c0.2-13.6,3-40.8,5.2-51c2-9,2.3-10.1,3.2-11.2c0.6-0.7,1.8-4.4,2.9-8.3c1-3.8,2.7-8.9,3.7-11.2
			c2.6-5.9,9.7-17.4,13.9-22.6c2.4-2.9,3-4.2,1.9-4.2C1333.1,78,1331.8,78.8,1331.1,79.7z"/>
		
			<linearGradient id="region-2-3_00000145754066517152599870000014505240849331671444_" gradientUnits="userSpaceOnUse" x1="494.6297" y1="816.0565" x2="494.6297" y2="817.0565" gradientTransform="matrix(211.6011 0 0 249.8746 -103155.5469 -203670.7031)">
			<stop  offset="0" style="stop-color:#000000;stop-opacity:0.83"/>
			<stop  offset="1" style="stop-color:#524A47;stop-opacity:0.795"/>
		</linearGradient>
		
			<path id="region-2-3_00000128449985122871690910000000416018725304459434_" style="fill:url(#region-2-3_00000145754066517152599870000014505240849331671444_);stroke:#000000;stroke-width:2;stroke-miterlimit:10;" d="
			M1475.5,245.5c-8,4.3-16,9.6-20.8,13.9c-2.7,2.5-3.9,3.5-8.4,6.6c-1.9,1.4-4,3-4.7,3.7c-0.7,0.6-1.6,1.3-2.1,1.5
			c-0.5,0.1-3,3-5.7,6.3c-2.6,3.2-6.5,7.1-8.5,8.6c-4.5,3.3-7,6.6-7,9.3c0,1-1.7,3.8-3.7,6.2c-10.1,11.6-11.9,16.4-11.7,32.4
			c0,9,0.3,9.9,3.7,16.3c2,3.8,3.7,7.6,3.7,8.6c0,5.5,29.2,25.1,37.3,25.1c0.4,0,3.8,1.6,7.7,3.5c3.8,1.9,8.1,3.5,9.5,3.5
			c3.9,0,7.1-2.6,9-7.2c0.9-2.2,1.7-3.9,1.9-3.7c0.2,0.2,0.7,3.5,1,7.4c0.3,3.8,0.9,9.9,1.2,13.5c1.2,13.7,5.4,21.9,13,25.5
			c2.9,1.4,5.1,1.6,10.1,1.1l6.5-0.7l-0.7,3.3c-0.8,4.5-2.6,7.8-4,7.8c-3.6,0-12.7,5.5-17,10.3c-2.7,2.8-7.7,8.2-11.2,11.9
			c-5.2,5.6-6.3,7.4-6.3,10.2c0,3.8,1.4,5.3,5.8,6.2c2.7,0.5,3,0.9,2.2,2.5c-1.6,3-1.1,7.8,1,9.9c4.6,4.6,8.3,1,9.6-9.1
			c0.4-3,1.9-7.4,3.5-9.9c1.5-2.5,3-5.9,3.4-7.7c0.3-1.8,2.7-5.4,5.3-8.1c3.9-4.2,5.4-5.1,9.1-5.5c4.2-0.5,4.6-0.3,9.6,4.4
			c2.9,2.7,5.7,4.9,6.2,4.9c0.6,0,1.3,1.7,1.7,3.9c0.7,4.5,3,7.1,4,4.5c0.3-0.8,0.3-2.6,0-3.9c-0.5-2.2-0.3-2.4,2.3-2.1
			c1.5,0.2,5.7,0,9.3-0.4c4.9-0.5,6.9-0.4,8.1,0.6c2.2,2,3.1,1.7,2.4-0.6c-0.4-1.2-0.2-2,0.5-2c2.1,0,10.2-6.4,11.6-9.2
			c1.3-2.5,2-2.8,6.8-2.8c3.5,0,5.8,0.5,6.6,1.5c0.7,0.8,2.5,1.5,4.1,1.5c2.8,0,2.9,0.2,2.9,4.5c0,5.6,2.3,10.3,5.6,11.5
			c6,2.3,18.6-0.2,23.4-4.5c3.5-3.2-1-8.9-10.1-13c-3.3-1.5-9-4.4-12.8-6.5c-3.7-2.1-8.7-4.3-11.2-5c-2.4-0.6-5.1-1.3-6-1.6
			c-0.9-0.3-3.1,0.7-4.8,2.2c-2.3,1.9-3.1,2.2-3.1,1.1c0-0.9-0.5-1.7-1.1-1.9c-0.6-0.2,0.2-2.4,1.8-5.3c2.2-3.9,2.8-4.6,3.1-3
			c0.5,2.3,2.1,4.5,3.2,4.5c0.5,0,1.1-1.4,1.5-3c0.4-1.7,1.6-3.5,2.7-4.1c2-1.1,2-1.1-0.1-2.5c-3.4-2.4-2.6-4.3,2.1-5
			c7.6-1.3,14.8-10.7,14.8-19.5c0-3.3-3.7-15.6-4.9-16.3c-0.5-0.3-1.2-3-1.5-5.9c-1.5-12-4.3-17-11.5-20.6c-5.8-3-5.7-3.8,0.4-4.3
			c3-0.3,5.8-0.8,6.2-1.2c1.2-1.2-4.5-5.6-7.1-5.6c-1.3,0-2.7-0.7-3-1.6c-1-2.7-0.7-8.7,0.8-14.5c2.7-10.3-0.3-15.5-12.4-21.7
			c-3.1-1.6-6.5-3.6-7.6-4.5c-24.6-20-27.8-21.8-40.9-22.7c-10.1-0.7-13.9-2.3-17.9-7.2c-1.4-1.8-3-3.8-3.5-4.4
			c-3.6-4.5-5.6-10.5-6.1-18.1l-0.5-8.2L1475.5,245.5z"/>
		
			<linearGradient id="region-2-4_00000011747254166597442500000013350152747899706291_" gradientUnits="userSpaceOnUse" x1="499.3865" y1="821.9435" x2="499.3865" y2="822.9435" gradientTransform="matrix(83.973 0 0 38.0208 -40710.8867 -31007.9336)">
			<stop  offset="0" style="stop-color:#0E160B;stop-opacity:0.314"/>
			<stop  offset="1" style="stop-color:#000300;stop-opacity:0.385"/>
		</linearGradient>
		
			<path id="region-2-4_00000027579412995184131980000010371452834062502034_" style="fill:url(#region-2-4_00000011747254166597442500000013350152747899706291_);stroke:#000000;stroke-width:2;stroke-miterlimit:10;" d="
			M1258.3,244.3c0,0.8,0.8,3.8,1.9,6.8c3.3,9.9,0.1,12.3-17.4,13.3c-11,0.7-12.8,0.5-21.5-1.8c-11.2-3.1-13.8-3.1-24.8-0.7
			c-6.2,1.3-9,2.5-11.2,4.6c-5.5,5.3-3.4,7.7,3.7,4.2c10.6-5.3,23.8-8.4,27.2-6.3c0.6,0.4,1.1,1.9,1.1,3.4c0,2-1,3.3-3.5,5
			c-2.5,1.5-3.5,3-3.5,4.7c0,2.3,0.3,2.5,4.8,2.5c3.7,0,5.4-0.5,6.8-2.1c2.5-2.8,7.2-5.2,9-4.5c0.7,0.3,2,2.1,2.8,4.1
			c1.8,4.1,4.7,4.6,11.1,1.6c5.2-2.3,12.3-10,10.4-11.2c-1-0.6-0.9-1,0.6-1.5c1.1-0.4,4-1.5,6.4-2.5c4.1-1.8,4.3-2.1,3.7-5.1
			c-0.7-3.4-6.3-15.8-7.1-15.8C1258.5,243,1258.3,243.6,1258.3,244.3z"/>
		
			<linearGradient id="region-2-5_00000175308598494298065020000008118141283931081631_" gradientUnits="userSpaceOnUse" x1="510.621" y1="826.0035" x2="511.7516" y2="826.6021" gradientTransform="matrix(33.6105 0 0 24.3379 -15905.3711 -19825.7754)">
			<stop  offset="0" style="stop-color:#291B0B;stop-opacity:0.575"/>
			<stop  offset="1" style="stop-color:#160900;stop-opacity:0.649"/>
		</linearGradient>
		
			<path id="region-2-5_00000144339941857447504310000010953809970394527397_" style="fill:url(#region-2-5_00000175308598494298065020000008118141283931081631_);stroke:#000000;stroke-width:2;stroke-miterlimit:10;" d="
			M1272.9,275.5c-0.9,1.3-1.6,3.2-1.6,4.1c0,1.5-0.2,1.5-2.6-0.1c-3.1-2-9.3-1.3-9,1c0.3,2.2,4.7,6.5,8.8,8.6c2,1,3.9,2.8,4.3,3.9
			c0.3,1.1,1.8,2.3,3.3,2.6c1.5,0.3,3.7,1,5,1.5c2.9,1.1,12.2,1.2,12.2,0c0-1.2-6.7-9.6-12.2-15.3c-2.7-2.7-4.8-5.5-4.8-6.3
			C1276.3,273,1274.5,273,1272.9,275.5z"/>
		
			<linearGradient id="region-2-6_00000174588009377600498980000016132255949202964666_" gradientUnits="userSpaceOnUse" x1="497.9189" y1="817.188" x2="499.2637" y2="817.0107" gradientTransform="matrix(94.9441 0 0 163.4385 -45656.9023 -133183.3438)">
			<stop  offset="0" style="stop-color:#000000;stop-opacity:0.525"/>
			<stop  offset="1" style="stop-color:#2C2E27;stop-opacity:0.342"/>
		</linearGradient>
		
			<path id="region-2-6_00000166658830091590372280000017422017247745774225_" style="fill:url(#region-2-6_00000174588009377600498980000016132255949202964666_);stroke:#000000;stroke-width:2;stroke-miterlimit:10;" d="
			M1625.3,283.9c0,0.5,1.6,4.3,3.5,8.4c3.2,6.7,3.5,8.3,3.5,16.2c0,6.8-0.5,10-2.4,14.8c-1.3,3.4-3.2,8.4-4.1,11.2
			c-0.9,2.7-2,5.7-2.4,6.5c-0.9,1.8-0.3,4,1,4c2.3,0,8.9,5.2,8.9,7c0,1.3,0.9,2.2,2.8,2.6c5.3,1.1,5.4,1.3,4.9,4.7
			c-0.3,1.7-2.3,10.4-4.6,19.2c-5.2,19.9-6.6,37.8-3.6,44.5c1,2.2,2,3.8,2.2,3.6c0.8-0.7,10.7,3.6,14.7,6.4c2.5,1.7,6.1,3.1,9.1,3.6
			c2.8,0.3,5.5,1.1,6.2,1.6c2.1,1.7,7.3-0.1,8.4-2.9c0.9-2.5,1-2.5,3.1-0.7c1.2,1.1,3.6,3.4,5.4,5.1c3.8,3.9,5,4.1,8.7,0.9
			c3.3-2.8,4.6-9.3,2.1-10.3c-2.2-0.8-1.7-2.3,0.9-2.3c3.5,0,19,8.4,20.4,11.1c0.7,1.3,1,3.5,0.7,4.9l-0.5,2.5l1.9-2.2
			c1.5-1.7,1.9-3.5,1.8-7.8c-0.2-6.6-0.7-7.1-12.1-11c-7.5-2.6-8.7-2.7-19.1-2.1c-8.1,0.4-13.6,0.2-20-1c-5.3-0.9-11-1.3-14-0.9
			c-4.7,0.6-5.2,0.4-5.7-1.6c-0.3-1.2-0.1-3.1,0.5-4.2c4.2-8,9.2-28.3,10.3-42.2c1.1-14.3,1.1-14.4,5.7-14.7c2.5-0.2,4.5-1,5.2-2
			c1.5-2.5-1.6-8.4-5.9-10.9c-1.9-1.2-3.5-2.5-3.5-3c0-2,6.3-4.1,10.4-3.5c4.5,0.8,19.2,9,21,11.8c1.6,2.6,3,2.2,4.3-1.3
			c1.1-3,1-3.4-2-6.3c-5.6-5.6-23.4-9.7-31.7-7.4c-2.7,0.8-2.8,0.7-6.5-7.1c-0.9-1.8-3.8-5.5-6.6-8.3c-2.7-2.7-4.9-5.2-4.9-5.5
			c0-0.4-1.4-1.9-3.2-3.3l-3.2-2.7l1.7-4.4c2.9-7.9,3.1-11.2,0.7-14.2c-1.2-1.5-2.9-2.7-3.9-2.7c-0.9,0-3.2-1.1-5.1-2.5
			C1626.7,282.9,1625.3,282.4,1625.3,283.9z"/>
		
			<linearGradient id="region-2-7_00000132081057815514869760000010125062524859534223_" gradientUnits="userSpaceOnUse" x1="505.6776" y1="819.3387" x2="505.6776" y2="820.3387" gradientTransform="matrix(46.7114 0 0 60.8483 -22020.209 -49545.293)">
			<stop  offset="0" style="stop-color:#9D9F8C;stop-opacity:0.805"/>
			<stop  offset="1" style="stop-color:#BAB396;stop-opacity:0.766"/>
		</linearGradient>
		
			<path id="region-2-7_00000060012260520995368780000007619317305434191751_" style="fill:url(#region-2-7_00000132081057815514869760000010125062524859534223_);stroke:#000000;stroke-width:2;stroke-miterlimit:10;" d="
			M1588.5,311.2c-0.5,0.7-3.1,5.8-5.8,11.3c-3.3,7-4.8,11.7-5.1,15.5c-0.5,5.3-0.3,5.7,3.5,9.8c2.2,2.4,5.7,7.8,7.7,12
			c2.1,4.2,4.4,8.5,5.3,9.4c2.2,2.5,5.6,2.2,9.2-0.8c2.8-2.4,19.4-23.8,19.6-25.3c0-0.3,0.4-1.4,0.9-2.5c0.5-1.1,0.4-2.6-0.3-3.7
			c-0.7-1-1.2-4.8-1.2-8.4c0-8.5-1.9-10.6-11.6-12.8c-3.8-0.9-8.7-2.5-10.9-3.7C1595.4,309.7,1590.1,309.4,1588.5,311.2z"/>
		
			<linearGradient id="region-2-8_00000005244369143738685320000014770233245467805630_" gradientUnits="userSpaceOnUse" x1="496.0726" y1="816.8926" x2="496.0726" y2="817.8926" gradientTransform="matrix(144.8303 0 0 139.4867 -70477.6875 -113631.4219)">
			<stop  offset="0" style="stop-color:#000000;stop-opacity:0.602"/>
			<stop  offset="1" style="stop-color:#281809;stop-opacity:0.858"/>
		</linearGradient>
		
			<path id="region-2-8_00000005268941454061459750000005200978415517175951_" style="fill:url(#region-2-8_00000005244369143738685320000014770233245467805630_);stroke:#000000;stroke-width:2;stroke-miterlimit:10;" d="
			M1404.2,314.8c-0.2,0.4-2.2,1.9-4.4,3.3c-8.6,5.2-16.5,11.6-18.7,15.1c-1.9,3-3.3,3.9-8.3,5.3c-3.7,1.1-8.1,3.4-11.7,6.1
			c-5.9,4.6-11.8,11-11.8,13c0,1.3-3.4,4.5-4.6,4.3c-3.6-0.6-4.4,1.3-1.9,4.2c1.4,1.5,1.4,1.8-0.1,3.3c-0.9,0.9-4.2,3.3-7.3,5.3
			c-3.1,1.9-6.5,4.3-7.6,5.3s-3.9,2.3-6.1,2.9c-2.3,0.6-5.4,2.1-7,3.3c-4.3,3.2-12.4,11.2-12.4,12.1c0,0.5-1.3,2-3,3.4
			c-3,2.5-3.9,5.6-2,6.8c0.6,0.3,1,0,1-0.8c0-0.8,0.8-1.7,1.8-2c0.9-0.2,2.5-0.8,3.4-1.2c1.4-0.6,1.9,0.2,2.9,3.9
			c1.1,4.3,3.3,7.5,4.5,6.3c0.3-0.3,0-2.4-0.7-4.6c-1.8-6.2,0-7.7,9-7.2l6.9,0.3l3.2-4c1.8-2.3,4.3-4.2,5.9-4.5
			c2.1-0.4,3.9-2.2,6.6-6.4c5.1-7.8,7.5-10.3,9.8-10.3c2.3,0,8.2-5.9,9-8.9c0.4-1.6,0-2.1-1.3-2.1c-1,0-2.1-0.7-2.4-1.6
			c-0.8-2.2-0.8-2.4,0.7-2.4s5.6-4.3,7.5-7.9c1.1-2.1,1-2.6-0.3-3.3c-2.4-1.4-1.8-3.1,0.9-2.4c1.6,0.4,3.5-0.2,6-1.9
			c4.2-2.8,8.7-3.2,10.7-0.9c0.7,0.8,2.1,1.3,3.1,1.1c1.4-0.4,1.8,0.1,1.8,2.3c0,1.6-0.4,3.1-1,3.5c-1.4,0.9-0.5,11.6,1.2,15
			c0.9,1.6,2.1,5,2.8,7.5c2.8,10.6,19,39.5,27,48l2.6,2.8l-9.6,0.6c-5.2,0.4-12.2,0.2-15.4-0.3c-3.2-0.6-6.2-0.8-6.7-0.5
			c-0.4,0.2-2.5,0.5-4.6,0.6c-4.1,0.1-18.3,6.2-19.6,8.4c-0.4,0.8-1.6,1.4-2.6,1.4c-2.1,0-3.1,1.9-3.1,6c0,3.3,1.6,4.9,2.3,2.3
			c0.3-1,0.5-0.2,0.6,1.8c0,1.9,0.8,4.4,1.6,5.5c1.3,1.8,1.4,1.7,1.5-1.9c0-4.8,1.5-7.7,3.9-7.7c1,0,2.9-0.8,4.2-1.9
			c2.9-2.2,13.3-8.1,14.3-8.1c0.5,0,0.1,1.1-0.8,2.5c-2.1,3.2-2.1,3.1,1.4,6.5c3.4,3.4,6.4,3.8,9.9,1.4c3.2-2.3,16.7-3.2,26.7-1.8
			c4.5,0.6,11.9-2.1,15.4-5.6c4-4,1.2-17.5-5.9-28.5c-4.6-7.3-21-27.4-28.2-34.8c-9.2-9.4-11.6-14.8-6.1-14
			c6.2,0.9,11.2,0.8,11.2-0.4c0-0.6-1.7-4.2-3.7-8c-3.6-6.6-3.7-7.1-3.7-17.3c0-6.1,0.5-12.1,1.3-14.3c0.7-2.1,1.1-4.1,0.8-4.3
			C1404.7,314.1,1404.3,314.3,1404.2,314.8z"/>
		
			<linearGradient id="region-2-9_00000103230397849354479020000006554787266073262982_" gradientUnits="userSpaceOnUse" x1="501.8491" y1="823.0935" x2="501.9773" y2="824.3792" gradientTransform="matrix(63.6449 0 0 32.4414 -30338.4316 -26279.5801)">
			<stop  offset="0" style="stop-color:#A15F11;stop-opacity:0.335"/>
			<stop  offset="1" style="stop-color:#B55000;stop-opacity:0.416"/>
		</linearGradient>
		
			<path id="region-2-9_00000016794273340182192320000008687149178983183264_" style="fill:url(#region-2-9_00000103230397849354479020000006554787266073262982_);stroke:#000000;stroke-width:2;stroke-miterlimit:10;" d="
			M1576,425.2c-2.2,1.8-3.4,6.8-1.6,6.8c0.8,0,2.6,0.7,4.1,1.4c1.5,0.8,4,1.4,5.6,1.4c1.5-0.1,3.7,0.4,4.7,0.9
			c1.1,0.6,5.4,1.6,9.5,2.3c12.6,2.1,15.7,3.5,23,11c7.9,8.1,10.2,9.1,13.6,5.9c4.4-4.1,3-5.8-9.5-12.1c-6.2-3.1-13.9-6.3-17-7.1
			c-4.4-1.2-18.1-3.7-20.4-3.7c-0.2,0-2.3-1.8-4.8-4C1578.2,423.5,1578.3,423.5,1576,425.2z"/>
	</g>
	<g id="layer-3_00000047054496386982053960000004735538675122213519_">
		
			<linearGradient id="region-3-1_00000029735070585071400170000005486940682090550680_" gradientUnits="userSpaceOnUse" x1="516.3129" y1="824.3582" x2="517.3476" y2="824.4468" gradientTransform="matrix(48.3 0 0 29.8081 -22893.3125 -24492.5605)">
			<stop  offset="0" style="stop-color:#114644;stop-opacity:0.441"/>
			<stop  offset="1" style="stop-color:#004C5A;stop-opacity:0.528"/>
		</linearGradient>
		
			<path id="region-3-1_00000079466802010469935660000007347297635136834469_" style="fill:url(#region-3-1_00000029735070585071400170000005486940682090550680_);stroke:#000000;stroke-width:2;stroke-miterlimit:10;" d="
			M2046.5,67.4c0,1.1,5.8,7.2,14,14.6c4.2,3.8,8.2,6,17.2,9.7c6.8,2.8,12.9,4.7,14.5,4.5l2.6-0.3l-3.9-4.1c-2.2-2.2-6-5.3-8.4-6.9
			c-2.5-1.5-5.4-3.6-6.5-4.6c-1.1-1-5.8-3.7-10.5-5.9c-4.6-2.3-9.5-5-10.8-6.1C2052.1,66.3,2046.5,65.7,2046.5,67.4z"/>
		
			<linearGradient id="region-3-2_00000137111423332977273890000004742704116724118959_" gradientUnits="userSpaceOnUse" x1="511.9006" y1="819.8583" x2="511.9006" y2="820.8583" gradientTransform="matrix(60.0222 0 0 54.629 -28798.666 -44702.5078)">
			<stop  offset="0" style="stop-color:#000507;stop-opacity:0.784"/>
			<stop  offset="1" style="stop-color:#00070A;stop-opacity:0.824"/>
		</linearGradient>
		
			<path id="region-3-2_00000003815540478810642340000012880842444291487421_" style="fill:url(#region-3-2_00000137111423332977273890000004742704116724118959_);stroke:#000000;stroke-width:2;stroke-miterlimit:10;" d="
			M1943.5,86.4c-6,0.9-9.1,2.3-11.5,5c-1.1,1.3-3.9,3.1-6.2,4.2c-6.1,2.7-16.4,9.7-18.8,12.7c-1.1,1.4-3,3.9-4.2,5.6
			c-1.2,1.6-2.9,4-3.8,5.1c-2.1,2.8-3,12.9-1.5,16.5c1.2,2.7,5.7,5.2,8.3,4.5c0.7-0.2,3.7-1.1,6.7-1.9c3-0.9,7.7-2.2,10.3-2.9
			c3.9-1,6.5-2.9,13-9.1c4.5-4.4,9.7-8.5,11.5-9.3c1.7-0.8,3.2-1.8,3.2-2.3c0-0.4,1.1-2.1,2.4-3.6c3-3.4,4.4-11.8,3.7-21.5
			c-0.1-1.2-5.5-4.1-7.3-3.9C1948.6,85.6,1946,86,1943.5,86.4z"/>
		
			<linearGradient id="region-3-3_00000073712323570403927300000012337751870448489094_" gradientUnits="userSpaceOnUse" x1="498.3904" y1="817.7673" x2="499.2724" y2="816.6674" gradientTransform="matrix(167.0982 0 0 154.5527 -81264.9219 -126140.2969)">
			<stop  offset="0" style="stop-color:#C2736B;stop-opacity:0.554"/>
			<stop  offset="1" style="stop-color:#FFDAD2;stop-opacity:0.958"/>
		</linearGradient>
		
			<path id="region-3-3_00000121250178335346066690000011220671047107690119_" style="fill:url(#region-3-3_00000073712323570403927300000012337751870448489094_);stroke:#000000;stroke-width:2;stroke-miterlimit:10;" d="
			M2031,86.4c-1.6,0.4-5.9,2.1-9.5,3.8c-14,6.5-15.5,10.9-16.4,47c-0.6,22.4-0.4,27,0.9,31.7c0.9,3,2.2,6.1,2.8,6.8
			c1.7,1.9,3.7,5.5,3.7,6.8c0,1.2,5.9,8.4,6.9,8.4c0.3,0.1,1.5,0.6,2.6,1.2c1.1,0.6,7.2,1.6,13.5,2.3c6.3,0.7,12,1.6,12.5,2
			c0.6,0.4,2.4,1,4,1.4c2.8,0.6,11.6,3.9,19.1,7.2c1.6,0.7,3.8,2.2,4.8,3.2c0.9,1.1,3.7,3.2,6.2,4.8c4.8,3.1,5.2,4.5,2.9,10.1
			c-0.8,1.9-1.5,4.6-1.5,5.9c0,2.2,0.4,2.4,4.6,2.4c2.5,0,9.5,1.2,15.6,2.7l11.1,2.7l4.9-5.3c6.1-6.3,7.1-6.1,13.1,1.7
			c5.2,6.9,8.6,8.2,14.3,5.7c2.2-0.9,5-2.2,6.4-2.7c9.7-4.1,16.3-9.6,17.7-14.9c0.6-1.9,0.8-5.2,0.6-7.4c-0.5-4.9-4.6-14-6.6-14.8
			c-0.8-0.3-2.4-3.4-3.6-6.9c-1.2-3.5-3.2-7.6-4.6-9.2c-1.4-1.6-2.5-3.5-2.5-4.3c0-0.7-0.6-1.6-1.4-1.9c-0.8-0.3-2-2-2.7-3.7
			c-0.7-1.8-2.7-5.3-4.5-7.9c-1.7-2.6-4.2-6.8-5.5-9.5c-1.3-2.6-3.3-5.9-4.6-7.3c-1.3-1.4-2.3-3-2.3-3.6c0-1.5-20-22.4-21.4-22.4
			c-2,0-16.3-9.7-16.9-11.4c-0.4-0.9-2.6-2.5-5.1-3.5c-2.4-1.1-4.5-2.3-4.7-2.8c-0.5-1.2-11-8.3-12.2-8.3c-0.5,0-2.8-1.2-5.1-2.8
			c-3.6-2.4-7.4-4.2-15.4-7.3C2050,85.2,2035.3,85.3,2031,86.4z"/>
		
			<linearGradient id="region-3-4_00000174595077598742232840000001845072263044752516_" gradientUnits="userSpaceOnUse" x1="528.9567" y1="820.11" x2="528.9567" y2="821.11" gradientTransform="matrix(32.6909 0 0 51.9378 -15419.71 -42378.3672)">
			<stop  offset="0" style="stop-color:#013E43;stop-opacity:0.559"/>
			<stop  offset="1" style="stop-color:#00575B;stop-opacity:0.463"/>
		</linearGradient>
		
			<path id="region-3-4_00000126302821899790225630000014055947330624633524_" style="fill:url(#region-3-4_00000174595077598742232840000001845072263044752516_);stroke:#000000;stroke-width:2;stroke-miterlimit:10;" d="
			M1868.5,217.1c-2.9,1-8.2,6.8-10.6,11.6c-2.4,4.6-2.4,4.8-0.7,8c1.3,2.4,1.8,5.8,1.8,13.7c0.1,11.6,1,13.9,6,16.6
			c4.6,2.5,6.6,1.5,9.7-4.6c1.4-2.9,4.7-7.6,7.3-10.3c2.5-2.7,4.8-6.2,5.2-7.8c0.3-1.6,0.9-2.9,1.3-2.9c1.1,0-2.8-16.8-4.7-20
			C1881.4,217.2,1873.9,215.1,1868.5,217.1z"/>
		
			<linearGradient id="region-3-5_00000008128849186950682710000007751556260872603069_" gradientUnits="userSpaceOnUse" x1="521.6381" y1="822.5001" x2="522.2389" y2="823.7374" gradientTransform="matrix(40.1902 0 0 35 -18940.3926 -28573)">
			<stop  offset="0" style="stop-color:#CE8531;stop-opacity:0.754"/>
			<stop  offset="1" style="stop-color:#E59C49;stop-opacity:0.845"/>
		</linearGradient>
		
			<path id="region-3-5_00000057850860486143598210000009797243403068942267_" style="fill:url(#region-3-5_00000008128849186950682710000007751556260872603069_);stroke:#000000;stroke-width:2;stroke-miterlimit:10;" d="
			M2032.3,220.7c-5.6,4.8-14.8,17.7-14.8,20.8c0,2.8,5.3,10.9,7.1,10.9c0.6,0,2.3-0.8,3.7-1.8c3.8-2.6,19.8-10.6,25.3-12.7
			c4.6-1.7,4.7-1.7,3.3-4.3c-0.8-1.5-1.4-3.2-1.4-3.8c0-2.5-14.8-12.4-18.3-12.4C2036.5,217.4,2034.3,218.9,2032.3,220.7z"/>
		
			<linearGradient id="region-3-6_00000154422317369878369260000001861320967364763277_" gradientUnits="userSpaceOnUse" x1="499.4561" y1="818.4424" x2="500.096" y2="817.1653" gradientTransform="matrix(148 0 0 112.8927 -71846 -92040.4453)">
			<stop  offset="0" style="stop-color:#27565F;stop-opacity:0.598"/>
			<stop  offset="1" style="stop-color:#77A6AE;stop-opacity:0.909"/>
		</linearGradient>
		
			<path id="region-3-6_00000163760837500726714410000002701384523102105505_" style="fill:url(#region-3-6_00000154422317369878369260000001861320967364763277_);stroke:#000000;stroke-width:2;stroke-miterlimit:10;" d="
			M2067.5,234c-3,0.8-7.3,2.3-9.5,3.4c-2.2,1-5.7,2.5-7.7,3.4l-3.8,1.5v7.6c0,6.2,0.5,8.5,2.6,12.7c1.4,2.8,3,5.6,3.5,6.2
			s2.1,2.6,3.5,4.4c4,4.9,7.8,6.5,17.9,7.2c13.1,0.9,16.3,2.7,40.9,22.7c1.1,0.9,4.5,2.9,7.6,4.5c12.1,6.2,15.1,11.4,12.4,21.7
			c-2.5,9.9-1.7,16.1,2.1,16.1c2,0,2.3-0.6,2.7-5.8c0.4-4.3,1.8-8.4,5.9-16.7c5.1-10.4,5.6-11,8.7-11.3c1.9-0.2,5.4,0.7,8.5,2.1
			c2.8,1.3,7.8,2.9,10.9,3.6c8.9,1.9,10.2,3.5,10.8,12.7c0.3,4.2,1,7.9,1.5,8.1c0.6,0.2,1.7-1.4,2.4-3.4c0.7-2.1,2.4-6.6,3.7-10
			c1.9-4.8,2.4-8,2.4-14.8c0-7.9-0.3-9.5-3.5-16.2c-1.9-4.1-3.5-7.9-3.5-8.3c0-0.5-3.7-3.6-8.2-7c-11.4-8.4-12-8.9-11.4-10.5
			c0.3-0.8-1.1-2.1-3.7-3.4c-5.7-2.9-9-4.8-17.2-10.2c-6.6-4.3-13.5-7.9-15-7.9c-0.4,0-3.7-1.4-7.3-3.1c-10.8-5-16-6.9-24.9-8.9
			C2089.8,232,2075.5,231.9,2067.5,234z"/>
		
			<linearGradient id="region-3-7_00000108303486905989126580000013976122172804559244_" gradientUnits="userSpaceOnUse" x1="509.8115" y1="819.8652" x2="510.9819" y2="820.2052" gradientTransform="matrix(64.8032 0 0 58 -31058.3828 -47201)">
			<stop  offset="0" style="stop-color:#E7DE9D;stop-opacity:0.421"/>
			<stop  offset="1" style="stop-color:#FFFFC1;stop-opacity:0.559"/>
		</linearGradient>
		
			<path id="region-3-7_00000164493234339105825310000013195936219658801286_" style="fill:url(#region-3-7_00000108303486905989126580000013976122172804559244_);stroke:#000000;stroke-width:2;stroke-miterlimit:10;" d="
			M2011.3,335.6c-0.8,0.7-2.5,2.8-3.8,4.7c-1.3,1.8-3.9,4.1-5.9,5c-2,0.9-6.6,3.4-10.3,5.5c-6.7,3.7-6.8,3.8-6.8,8
			c0,6,1.6,9.9,5,12.5c1.9,1.4,3,3.1,3,4.6c0,1.9,1,3,4.3,4.7c4.3,2.3,13.7,5.8,13.7,5.1c0-0.2,3.1,1.3,7,3.2
			c3.8,1.9,8.1,3.5,9.5,3.5c3.8,0,7.1-2.6,8.8-6.8c0.8-2.1,3.3-6.2,5.6-9.2c2.3-3,4.1-5.9,4.1-6.5c0-0.5,0.7-2.3,1.5-3.8
			c0.8-1.5,1.7-4.3,2.1-6.2c0.5-2.9,0.2-3.6-2.3-5.2c-1.5-1-6.9-6-12-11l-9.2-9.3h-6.4C2015.6,334.4,2012.2,334.9,2011.3,335.6z"/>
		
			<linearGradient id="region-3-8_00000018932533567112908820000004249312493195878823_" gradientUnits="userSpaceOnUse" x1="506.9189" y1="819.3989" x2="507.7705" y2="820.5673" gradientTransform="matrix(77.7315 0 0 58.72 -37313.1641 -47769.6406)">
			<stop  offset="0" style="stop-color:#A4D3DB;stop-opacity:0.18"/>
			<stop  offset="1" style="stop-color:#D0FFFF;stop-opacity:0.352"/>
		</linearGradient>
		
			<path id="region-3-8_00000086649676604043608430000007573348600652213648_" style="fill:url(#region-3-8_00000018932533567112908820000004249312493195878823_);stroke:#000000;stroke-width:2;stroke-miterlimit:10;" d="
			M2119.5,354c-4.1,0.8-10.2,1.9-13.5,2.4c-23.6,3.8-28.5,5.9-28.5,12.3c0,5.3,1.5,5.9,13.7,5.6c11.5-0.2,18.1,1,24.3,4.7
			c4.6,2.7,9.6,4.9,14.5,6.4c5.7,1.8,9.7,4.4,11.7,7.7c1.4,2.5,1.5,3.3,0.2,6.8c-2,5.9-1.7,7.3,1.9,9.5c6.4,4,10.1,1.6,11.3-7.2
			c0.7-4.6-1.5-14.3-4.1-18.3c-0.7-1.1-1.6-4.4-2-7.2c-1.6-11.9-4.3-16.6-11.4-20.2c-2.2-1.2-4.2-2.5-4.6-3.1
			C2132.2,352.1,2128.7,352.3,2119.5,354z"/>
		
			<linearGradient id="region-3-9_00000170246128008532539590000017012017425870118586_" gradientUnits="userSpaceOnUse" x1="562.9188" y1="827.7979" x2="564.1183" y2="828.6234" gradientTransform="matrix(17.0096 0 0 20.9029 -7456.7329 -16908.7363)">
			<stop  offset="0" style="stop-color:#F6F6B8;stop-opacity:0.397"/>
			<stop  offset="1" style="stop-color:#FFFFC4;stop-opacity:0.446"/>
		</linearGradient>
		
			<path id="region-3-9_00000165942912161953773290000015179476292685798785_" style="fill:url(#region-3-9_00000170246128008532539590000017012017425870118586_);stroke:#000000;stroke-width:2;stroke-miterlimit:10;" d="
			M2125.3,394.9c-2.1,1.4-4.2,3.4-4.8,4.5c-1.7,3.1-1.2,8.5,1.1,11.4c2.5,3.1,7.5,3.5,12,0.9c2.7-1.6,2.9-2.2,2.9-7.9
			c0-4.7-0.5-6.7-2.1-8.8C2131.8,391.7,2130,391.7,2125.3,394.9z"/>
		
			<linearGradient id="region-3-10_00000162354736410804781730000001018100094921591703_" gradientUnits="userSpaceOnUse" x1="558.9857" y1="827.09" x2="560.1504" y2="827.9537" gradientTransform="matrix(18 0 0 22.0548 -7993 -17840.7441)">
			<stop  offset="0" style="stop-color:#F7F49F;stop-opacity:0.281"/>
			<stop  offset="1" style="stop-color:#FFFFAC;stop-opacity:0.334"/>
		</linearGradient>
		
			<path id="region-3-10_00000173880681609037476550000006826516883789177009_" style="fill:url(#region-3-10_00000162354736410804781730000001018100094921591703_);stroke:#000000;stroke-width:2;stroke-miterlimit:10;" d="
			M2070.1,401c-0.8,2-0.8,8.2,0,11.1c0.3,1.2,1.5,2.3,2.7,2.5c1.2,0.2,2.3,1.2,2.5,2.3c0.6,3.2,2.2,4.5,5.8,4.5
			c4.6,0,6.4-2.9,6.4-10.2v-5.8l-4.7-3C2077.5,399,2071.1,398.3,2070.1,401z"/>
		
			<linearGradient id="region-3-11_00000148640773910251634730000008504277004132809633_" gradientUnits="userSpaceOnUse" x1="520.632" y1="837.5786" x2="520.7371" y2="839.1628" gradientTransform="matrix(41.9901 0 0 11.7385 -19759.1113 -9401.668)">
			<stop  offset="0" style="stop-color:#F6F9B0;stop-opacity:0.232"/>
			<stop  offset="1" style="stop-color:#FFFFBA;stop-opacity:0.27"/>
		</linearGradient>
		
			<path id="region-3-11_00000137843055339284677730000006082072285530167223_" style="fill:url(#region-3-11_00000148640773910251634730000008504277004132809633_);stroke:#000000;stroke-width:2;stroke-miterlimit:10;" d="
			M2112,431.6c-4.4,0.5-12.5,1.6-17.9,2.6c-10.7,1.8-13.3,3.5-10.6,6.7c1.3,1.6,2.8,1.7,13.1,1.1c19-1.1,27.9-4,27.9-9.1
			C2124.5,430.1,2124.8,430.1,2112,431.6z"/>
		
			<linearGradient id="region-3-12_00000033367638771694978230000011093698606748413056_" gradientUnits="userSpaceOnUse" x1="534.0796" y1="820.6688" x2="534.0796" y2="821.6688" gradientTransform="matrix(28.7577 0 0 46.8191 -13306.9326 -37977.375)">
			<stop  offset="0" style="stop-color:#F1B983;stop-opacity:0.333"/>
			<stop  offset="1" style="stop-color:#FFD09A;stop-opacity:0.422"/>
		</linearGradient>
		
			<path id="region-3-12_00000183208191335956883990000011236265389989834680_" style="fill:url(#region-3-12_00000033367638771694978230000011093698606748413056_);stroke:#000000;stroke-width:2;stroke-miterlimit:10;" d="
			M2063,446.8c-1.1,1-4.2,3.3-7,5c-5.2,3.3-8.7,8.3-10.6,15.1c-0.6,2.2-2.6,6.5-4.5,9.6c-3.9,6.5-4.3,11-1.4,13.9
			c4.6,4.6,8.3,1,9.6-9.1c0.4-3,1.9-7.4,3.5-9.9c1.5-2.5,3-5.9,3.4-7.7c0.3-1.8,2.8-5.5,5.5-8.5c4.8-5.2,5.7-7.2,4.2-9.3
			C2065.3,445.2,2064.3,445.6,2063,446.8z"/>
	</g>
	<g id="layer-4_00000054239462421356646270000003253950586590594230_">
		
			<linearGradient id="region-4-1_00000023976201775409074780000000281332000649421979_" gradientUnits="userSpaceOnUse" x1="510.7456" y1="818.3203" x2="510.7456" y2="819.3203" gradientTransform="matrix(95.0916 0 0 79.3045 -45905.6094 -64742.9961)">
			<stop  offset="0" style="stop-color:#0D515E;stop-opacity:0.464"/>
			<stop  offset="1" style="stop-color:#002B39;stop-opacity:0.612"/>
		</linearGradient>
		
			<path id="region-4-1_00000110467784941855216310000004603827420343873977_" style="fill:url(#region-4-1_00000023976201775409074780000000281332000649421979_);stroke:#000000;stroke-width:2;stroke-miterlimit:10;" d="
			M2646.1,154.6c-7.8,0.8-9.8,1.8-24.4,11.9c-4.8,3.3-5.5,4.4-6.6,8.8c-1.2,5.1-0.6,15.4,1,17.5c0.4,0.5,1.5,3.5,2.5,6.5
			s2.5,6.4,3.4,7.4c2.2,2.5,12.9,7.4,18.3,8.2c8.5,1.4,20.2,9.3,21.3,14.5c0.4,1.6,1,3.1,1.4,3.3c0.4,0.3,4-0.4,8.1-1.5
			c4-1,9.8-1.9,12.7-1.9c4.9,0,5.3-0.2,5.3-2.4c0-1.3,0.7-4,1.5-5.9c0.8-2,1.5-4.9,1.5-6.5c0-2.3,0.6-3.2,2.8-4.1
			c1.5-0.6,3.5-2.4,4.4-3.9c3.5-5.5,4.3-6.8,6.6-10c1.3-1.7,2.7-5.7,3.2-8.8c0.8-5,0.7-6.1-1.5-10.4c-1.3-2.6-5.2-7.9-8.5-11.8
			c-5.5-6.3-6.6-7.1-10.8-7.7c-2.6-0.4-4.9-1.1-5.2-1.6c-0.9-1.3-14.7-3-22.5-2.7C2656.8,153.6,2650.2,154.1,2646.1,154.6z"/>
		
			<linearGradient id="region-4-2_00000067943412208101690400000001230786783477615528_" gradientUnits="userSpaceOnUse" x1="535.8123" y1="824.0056" x2="535.8123" y2="825.0056" gradientTransform="matrix(41.3 0 0 29.2388 -19419.3008 -23887.4961)">
			<stop  offset="0" style="stop-color:#D88608;stop-opacity:0.325"/>
			<stop  offset="1" style="stop-color:#D27800;stop-opacity:0.379"/>
		</linearGradient>
		
			<path id="region-4-2_00000018198515746053143310000014570460630622989719_" style="fill:url(#region-4-2_00000067943412208101690400000001230786783477615528_);stroke:#000000;stroke-width:2;stroke-miterlimit:10;" d="
			M2698.7,207.1c-0.4,1.1-2,2.5-3.6,3.2c-2.4,1-3,1.9-3,4.2c0,1.6-0.7,4.5-1.5,6.5c-0.8,1.9-1.5,4.6-1.5,5.9c0,2.2,0.4,2.4,4.6,2.4
			c2.5,0,9.5,1.2,15.6,2.7l11.1,2.7l5-5.3l5-5.2l-5.4-5.5c-2.9-3-5.8-5.4-6.5-5.4c-0.6,0-3.1-1.5-5.5-3.4
			C2707.4,205.5,2699.6,204,2698.7,207.1z"/>
	</g>
	<line class="st51" x1="580" y1="0" x2="580" y2="550"/>
	<line class="st51" x1="1160" y1="0" x2="1160" y2="550.5"/>
	<line class="st51" x1="1740" y1="0" x2="1740" y2="550.5"/>
	<line class="st51" x1="2320" y1="0" x2="2320" y2="550.5"/>
</g>
</svg>
