<?xml version="1.0" standalone="no"?><!DOCTYPE svg PUBLIC "-//W3C//DTD SVG 20010904//EN" "http://www.w3.org/TR/2001/REC-SVG-20010904/DTD/svg10.dtd"><svg version="1.0" xmlns="http://www.w3.org/2000/svg" width="491pt" height="568pt" viewBox="0 0 491 568" preserveAspectRatio="xMidYMid meet"><defs><linearGradient id="linear-gradient-1-1" x1="0.00%" y1="100.00%" x2="0.00%" y2="-0.00%"><stop offset="0%" style="stop-color:rgb(120,119,117);stop-opacity:0.991" /><stop offset="100%" style="stop-color:rgb(120,119,117);stop-opacity:0.991" /></linearGradient><linearGradient id="linear-gradient-1-2" x1="0.00%" y1="100.00%" x2="216.04%" y2="47.85%"><stop offset="0%" style="stop-color:rgb(178,187,185);stop-opacity:0.997" /><stop offset="100%" style="stop-color:rgb(178,188,186);stop-opacity:0.999" /></linearGradient><linearGradient id="linear-gradient-1-3" x1="0.00%" y1="100.00%" x2="211.07%" y2="52.06%"><stop offset="0%" style="stop-color:rgb(178,187,185);stop-opacity:0.993" /><stop offset="100%" style="stop-color:rgb(178,187,185);stop-opacity:0.996" /></linearGradient><linearGradient id="linear-gradient-1-4" x1="0.00%" y1="100.00%" x2="53.23%" y2="-22.10%"><stop offset="0%" style="stop-color:rgb(131,132,129);stop-opacity:1.000" /><stop offset="100%" style="stop-color:rgb(101,102,99);stop-opacity:1.000" /></linearGradient><linearGradient id="linear-gradient-1-5" x1="0.00%" y1="100.00%" x2="0.00%" y2="0.00%"><stop offset="0%" style="stop-color:rgb(189,180,173);stop-opacity:0.993" /><stop offset="100%" style="stop-color:rgb(189,180,173);stop-opacity:0.994" /></linearGradient><linearGradient id="linear-gradient-1-6" x1="0.00%" y1="100.00%" x2="0.00%" y2="0.00%"><stop offset="0%" style="stop-color:rgb(180,186,184);stop-opacity:0.993" /><stop offset="100%" style="stop-color:rgb(178,187,185);stop-opacity:0.995" /></linearGradient><linearGradient id="linear-gradient-1-7" x1="0.00%" y1="100.00%" x2="0.00%" y2="0.00%"><stop offset="0%" style="stop-color:rgb(33,141,144);stop-opacity:0.993" /><stop offset="100%" style="stop-color:rgb(31,142,145);stop-opacity:0.993" /></linearGradient><linearGradient id="linear-gradient-1-8" x1="0.00%" y1="100.00%" x2="105.66%" y2="5.21%"><stop offset="0%" style="stop-color:rgb(179,187,185);stop-opacity:0.993" /><stop offset="100%" style="stop-color:rgb(178,187,185);stop-opacity:0.995" /></linearGradient><linearGradient id="linear-gradient-1-9" x1="0.00%" y1="100.00%" x2="46.39%" y2="-36.71%"><stop offset="0%" style="stop-color:rgb(178,188,186);stop-opacity:1.000" /><stop offset="100%" style="stop-color:rgb(179,187,185);stop-opacity:1.000" /></linearGradient><linearGradient id="linear-gradient-2-1" x1="0.00%" y1="100.00%" x2="206.39%" y2="13.14%"><stop offset="0%" style="stop-color:rgb(156,140,132);stop-opacity:0.519" /><stop offset="100%" style="stop-color:rgb(160,148,141);stop-opacity:0.628" /></linearGradient><linearGradient id="linear-gradient-2-2" x1="0.00%" y1="100.00%" x2="242.74%" y2="28.61%"><stop offset="0%" style="stop-color:rgb(148,124,114);stop-opacity:0.387" /><stop offset="100%" style="stop-color:rgb(155,138,131);stop-opacity:0.502" /></linearGradient><linearGradient id="linear-gradient-2-3" x1="0.00%" y1="100.00%" x2="88.33%" y2="-18.02%"><stop offset="0%" style="stop-color:rgb(113,112,110);stop-opacity:0.743" /><stop offset="100%" style="stop-color:rgb(135,134,132);stop-opacity:0.820" /></linearGradient><linearGradient id="linear-gradient-2-4" x1="0.00%" y1="100.00%" x2="12.24%" y2="-155.22%"><stop offset="0%" style="stop-color:rgb(89,92,93);stop-opacity:0.680" /><stop offset="100%" style="stop-color:rgb(94,96,96);stop-opacity:0.711" /></linearGradient><linearGradient id="linear-gradient-2-5" x1="0.00%" y1="100.00%" x2="101.06%" y2="30.73%"><stop offset="0%" style="stop-color:rgb(123,119,114);stop-opacity:0.653" /><stop offset="100%" style="stop-color:rgb(122,133,133);stop-opacity:0.791" /></linearGradient><linearGradient id="linear-gradient-2-6" x1="0.00%" y1="100.00%" x2="50.34%" y2="-30.51%"><stop offset="0%" style="stop-color:rgb(61,59,56);stop-opacity:0.755" /><stop offset="100%" style="stop-color:rgb(68,67,64);stop-opacity:0.806" /></linearGradient><linearGradient id="linear-gradient-2-7" x1="0.00%" y1="100.00%" x2="110.89%" y2="4.84%"><stop offset="0%" style="stop-color:rgb(83,173,176);stop-opacity:0.349" /><stop offset="100%" style="stop-color:rgb(90,170,173);stop-opacity:0.350" /></linearGradient><linearGradient id="linear-gradient-2-8" x1="0.00%" y1="100.00%" x2="95.33%" y2="-1.71%"><stop offset="0%" style="stop-color:rgb(123,193,193);stop-opacity:0.355" /><stop offset="100%" style="stop-color:rgb(141,191,195);stop-opacity:0.311" /></linearGradient><linearGradient id="linear-gradient-2-9" x1="0.00%" y1="100.00%" x2="88.36%" y2="-8.33%"><stop offset="0%" style="stop-color:rgb(46,43,40);stop-opacity:0.670" /><stop offset="100%" style="stop-color:rgb(60,58,55);stop-opacity:0.748" /></linearGradient><linearGradient id="linear-gradient-2-10" x1="0.00%" y1="100.00%" x2="107.57%" y2="6.56%"><stop offset="0%" style="stop-color:rgb(254,251,248);stop-opacity:0.800" /><stop offset="100%" style="stop-color:rgb(255,251,248);stop-opacity:0.801" /></linearGradient><linearGradient id="linear-gradient-2-11" x1="0.00%" y1="100.00%" x2="105.91%" y2="4.41%"><stop offset="0%" style="stop-color:rgb(122,60,54);stop-opacity:0.629" /><stop offset="100%" style="stop-color:rgb(115,67,61);stop-opacity:0.687" /></linearGradient><linearGradient id="linear-gradient-2-12" x1="0.00%" y1="100.00%" x2="2.84%" y2="-8.91%"><stop offset="0%" style="stop-color:rgb(228,209,203);stop-opacity:0.221" /><stop offset="100%" style="stop-color:rgb(231,212,205);stop-opacity:0.209" /></linearGradient><linearGradient id="linear-gradient-2-13" x1="0.00%" y1="100.00%" x2="63.73%" y2="-15.50%"><stop offset="0%" style="stop-color:rgb(162,209,211);stop-opacity:0.308" /><stop offset="100%" style="stop-color:rgb(168,211,213);stop-opacity:0.296" /></linearGradient><linearGradient id="linear-gradient-2-14" x1="0.00%" y1="100.00%" x2="8.46%" y2="-79.78%"><stop offset="0%" style="stop-color:rgb(115,67,62);stop-opacity:0.689" /><stop offset="100%" style="stop-color:rgb(106,76,71);stop-opacity:0.777" /></linearGradient><linearGradient id="linear-gradient-2-15" x1="0.00%" y1="100.00%" x2="23.63%" y2="-64.01%"><stop offset="0%" style="stop-color:rgb(181,216,219);stop-opacity:0.325" /><stop offset="100%" style="stop-color:rgb(190,220,223);stop-opacity:0.307" /></linearGradient><linearGradient id="linear-gradient-3-1" x1="0.00%" y1="100.00%" x2="132.23%" y2="77.20%"><stop offset="0%" style="stop-color:rgb(255,238,224);stop-opacity:0.174" /><stop offset="100%" style="stop-color:rgb(255,237,223);stop-opacity:0.118" /></linearGradient><linearGradient id="linear-gradient-3-2" x1="0.00%" y1="100.00%" x2="73.02%" y2="-21.67%"><stop offset="0%" style="stop-color:rgb(216,211,209);stop-opacity:0.758" /><stop offset="100%" style="stop-color:rgb(215,210,208);stop-opacity:0.748" /></linearGradient><linearGradient id="linear-gradient-3-3" x1="0.00%" y1="100.00%" x2="0.00%" y2="0.00%"><stop offset="0%" style="stop-color:rgb(125,97,87);stop-opacity:0.267" /><stop offset="100%" style="stop-color:rgb(138,103,91);stop-opacity:0.296" /></linearGradient><linearGradient id="linear-gradient-3-4" x1="0.00%" y1="100.00%" x2="3.29%" y2="-94.88%"><stop offset="0%" style="stop-color:rgb(125,113,109);stop-opacity:0.551" /><stop offset="100%" style="stop-color:rgb(122,117,111);stop-opacity:0.566" /></linearGradient><linearGradient id="linear-gradient-3-5" x1="0.00%" y1="100.00%" x2="91.05%" y2="-4.91%"><stop offset="0%" style="stop-color:rgb(132,149,148);stop-opacity:0.568" /><stop offset="100%" style="stop-color:rgb(135,152,151);stop-opacity:0.589" /></linearGradient></defs><g id="layer-1"><path d="M2622 5649 c-321 -67 -624 -270 -845 -564 -98 -130 -127 -193 -127 -272 0 -107 29 -150 135 -200 47 -22 75 -28 127 -28 59 0 70 3 105 31 21 17 60 62 86 100 237 343 578 555 890 554 142 -1 263 -41 376 -126 76 -57 144 -140 221 -273 96 -162 102 -171 142 -192 93 -48 262 -3 313 84 22 37 14 80 -32 172 -178 356 -543 643 -915 719 -112 23 -355 21 -476 -5z" fill="url(#linear-gradient-1-1)" id="region-1-1" transform="translate(0.000000,568.000000) scale(0.100000,-0.100000)"/><path d="M4015 4728 c-35 -35 -97 -60 -162 -66 -35 -2 -63 -5 -63 -6 0 -1 16 -41 35 -89 74 -184 112 -387 101 -552 -6 -106 -43 -347 -76 -498 -11 -50 -20 -98 -20 -107 0 -8 27 -35 60 -59 33 -24 78 -63 100 -87 47 -51 42 -55 88 86 148 455 155 868 22 1254 -59 169 -51 159 -85 124z" fill="url(#linear-gradient-1-2)" id="region-1-2" transform="translate(0.000000,568.000000) scale(0.100000,-0.100000)"/><path d="M1617 4602 c-56 -133 -89 -237 -121 -372 -49 -205 -60 -317 -60 -580 -1 -271 11 -367 65 -536 27 -86 28 -93 14 -127 -31 -74 -9 -152 54 -194 27 -18 48 -23 100 -23 82 0 150 30 220 95 86 81 100 158 46 251 -31 53 -64 76 -119 84 -40 5 -42 7 -59 60 -36 112 -49 243 -43 435 3 99 12 214 20 256 29 159 91 342 181 535 l43 92 -57 4 c-71 5 -172 51 -211 94 l-29 33 -44 -107z" fill="url(#linear-gradient-1-3)" id="region-1-3" transform="translate(0.000000,568.000000) scale(0.100000,-0.100000)"/><path d="M2809 4207 c-27 -14 -57 -42 -78 -73 -33 -48 -33 -50 -29 -144 3 -83 7 -102 31 -143 40 -67 94 -100 172 -105 107 -7 189 54 221 164 21 73 14 130 -29 214 -42 84 -83 110 -178 110 -50 0 -77 -6 -110 -23z" fill="url(#linear-gradient-1-4)" id="region-1-4" transform="translate(0.000000,568.000000) scale(0.100000,-0.100000)"/><path d="M2670 3811 c-39 -8 -80 -31 -80 -45 0 -4 -25 -35 -55 -68 -31 -33 -54 -65 -52 -72 5 -16 108 -55 196 -73 116 -25 395 -22 528 5 145 29 143 27 82 97 -28 33 -55 70 -60 82 -11 29 -61 60 -110 68 -33 6 -44 2 -78 -26 -70 -56 -178 -53 -256 6 -46 36 -55 38 -115 26z" fill="url(#linear-gradient-1-5)" id="region-1-5" transform="translate(0.000000,568.000000) scale(0.100000,-0.100000)"/><path d="M2415 3674 c-219 -52 -475 -177 -625 -303 -30 -26 -33 -31 -20 -46 21 -25 154 -89 268 -129 288 -100 735 -147 1204 -126 416 18 653 67 734 151 l28 29 -25 26 c-58 62 -241 185 -374 252 -54 26 -209 87 -275 107 -24 8 -24 7 -7 -18 16 -25 16 -26 -16 -36 -136 -43 -462 -61 -607 -33 -80 16 -181 48 -205 66 -18 13 -17 15 4 45 l22 31 -23 -1 c-13 0 -50 -7 -83 -15z" fill="url(#linear-gradient-1-6)" id="region-1-6" transform="translate(0.000000,568.000000) scale(0.100000,-0.100000)"/><path d="M1741 3318 c0 -7 8 -35 17 -63 16 -47 19 -50 58 -55 55 -8 88 -31 119 -84 54 -93 40 -170 -46 -251 -70 -65 -138 -95 -220 -95 -52 0 -73 5 -100 23 -63 42 -85 120 -54 194 12 29 13 43 3 74 -6 22 -13 39 -14 39 -24 0 -314 -377 -314 -408 0 -5 38 -26 85 -47 47 -21 85 -42 85 -46 0 -5 17 -17 38 -28 45 -23 101 -77 113 -109 27 -71 -1 -221 -64 -351 -83 -171 -209 -260 -330 -234 -29 6 -61 15 -71 19 -15 6 -18 4 -13 -8 4 -12 -19 -5 -79 23 -47 22 -89 37 -94 34 -4 -3 -22 -62 -39 -133 -52 -216 -91 -479 -91 -615 0 -46 -8 -85 -26 -133 -34 -87 -38 -211 -11 -291 107 -312 611 -584 1297 -702 283 -48 387 -56 795 -56 411 0 502 6 780 51 403 66 772 193 1012 349 126 82 243 202 288 295 34 73 35 78 35 195 0 112 -2 124 -29 182 -23 48 -32 86 -40 175 -24 243 -98 595 -177 840 -118 369 -322 743 -578 1060 l-70 87 -37 -34 c-91 -82 -316 -127 -727 -145 -469 -21 -916 26 -1204 126 -105 37 -252 106 -263 124 -9 14 -35 13 -34 -2z" fill="url(#linear-gradient-1-7)" id="region-1-7" transform="translate(0.000000,568.000000) scale(0.100000,-0.100000)"/><path d="M294 3020 c-92 -46 -185 -154 -246 -287 -28 -60 -32 -80 -36 -178 -5 -126 4 -145 78 -184 88 -46 192 -19 291 76 111 105 169 233 169 371 0 85 -26 156 -65 176 -11 6 -31 19 -44 29 -32 23 -96 22 -147 -3z" fill="url(#linear-gradient-1-8)" id="region-1-8" transform="translate(0.000000,568.000000) scale(0.100000,-0.100000)"/><path d="M503 2982 c31 -34 47 -90 47 -167 0 -134 -59 -263 -169 -368 -70 -67 -133 -97 -203 -97 l-50 0 19 -32 c26 -46 98 -91 195 -124 45 -15 174 -72 287 -127 367 -177 410 -197 404 -179 -5 12 -2 14 13 8 117 -46 207 -26 299 68 100 102 175 281 175 418 0 31 -4 67 -9 80 -11 30 -67 85 -106 105 -16 9 -37 22 -45 29 -8 8 -190 102 -405 209 -307 153 -398 195 -429 195 -37 0 -38 -1 -23 -18z" fill="url(#linear-gradient-1-9)" id="region-1-9" transform="translate(0.000000,568.000000) scale(0.100000,-0.100000)"/></g><g id="layer-2"><path d="M3897 4668 c-29 -8 -37 -14 -33 -27 3 -9 23 -68 45 -131 43 -124 71 -246 71 -308 0 -76 15 -52 25 40 l11 93 13 -115 c16 -136 17 -297 1 -458 -14 -148 -34 -239 -72 -325 -44 -102 -27 -150 31 -88 38 40 75 135 102 258 30 138 38 542 15 718 -27 203 -55 291 -95 289 -17 -1 -27 8 -39 33 -17 36 -18 36 -75 21z" fill="url(#linear-gradient-2-1)" id="region-2-1" transform="translate(0.000000,568.000000) scale(0.100000,-0.100000)"/><path d="M1692 4453 c-107 -291 -127 -405 -127 -718 0 -121 3 -249 7 -285 l6 -65 -14 45 c-8 25 -19 124 -25 220 -6 96 -13 181 -15 189 -10 33 -23 -10 -34 -113 -15 -135 -1 -292 40 -452 28 -106 74 -239 91 -258 4 -5 11 24 15 63 4 40 15 89 25 109 24 46 24 95 -1 267 -12 77 -23 219 -27 315 -9 269 21 432 128 700 46 116 49 126 33 137 -10 7 -23 13 -29 13 -7 0 -40 -75 -73 -167z" fill="url(#linear-gradient-2-2)" id="region-2-2" transform="translate(0.000000,568.000000) scale(0.100000,-0.100000)"/><path d="M2819 4197 c-62 -32 -111 -107 -107 -161 3 -36 8 -43 46 -65 116 -63 254 6 292 148 13 49 10 55 -40 81 -55 28 -134 27 -191 -3z" fill="url(#linear-gradient-2-3)" id="region-2-3" transform="translate(0.000000,568.000000) scale(0.100000,-0.100000)"/><path d="M2680 3801 c-42 -9 -81 -32 -77 -46 5 -15 90 -34 215 -46 86 -9 143 -9 244 0 152 14 168 19 139 45 -21 19 -85 45 -114 46 -10 0 -35 -12 -54 -27 -33 -25 -45 -28 -114 -28 -71 0 -81 3 -123 33 -48 33 -56 35 -116 23z" fill="url(#linear-gradient-2-4)" id="region-2-4" transform="translate(0.000000,568.000000) scale(0.100000,-0.100000)"/><path d="M3291 3455 c-191 -29 -391 -91 -569 -175 -114 -54 -262 -140 -262 -151 0 -10 32 -16 153 -29 l98 -11 47 30 c144 92 366 174 562 207 149 24 442 9 608 -33 40 -10 23 12 -50 67 -137 102 -138 103 -327 106 -109 2 -198 -2 -260 -11z" fill="url(#linear-gradient-2-5)" id="region-2-5" transform="translate(0.000000,568.000000) scale(0.100000,-0.100000)"/><path d="M1780 3195 c0 -3 9 -22 20 -42 41 -77 17 -166 -55 -208 -81 -48 -168 -26 -200 49 l-14 31 -15 -37 c-32 -75 -11 -153 53 -195 49 -33 146 -32 218 2 113 52 193 160 180 241 -8 50 -53 122 -90 145 -29 17 -97 27 -97 14z" fill="url(#linear-gradient-2-6)" id="region-2-6" transform="translate(0.000000,568.000000) scale(0.100000,-0.100000)"/><path d="M2115 3009 c-83 -151 -286 -559 -349 -704 -87 -198 -193 -467 -245 -620 -126 -374 -250 -932 -239 -1077 l3 -42 95 -38 c258 -105 541 -183 709 -195 l91 -6 0 69 c0 286 67 913 136 1267 86 445 256 971 416 1291 22 43 38 79 36 81 -2 1 -127 21 -278 44 -151 23 -283 43 -292 45 -14 3 -33 -24 -83 -115z" fill="url(#linear-gradient-2-7)" id="region-2-7" transform="translate(0.000000,568.000000) scale(0.100000,-0.100000)"/><path d="M3727 3103 c-122 -31 -218 -43 -399 -50 -99 -4 -158 -10 -158 -17 0 -5 54 -120 119 -255 283 -585 413 -952 520 -1466 77 -372 133 -811 112 -868 -6 -15 -7 -27 -2 -27 5 0 69 20 142 44 232 75 407 157 522 244 38 29 47 42 47 67 0 56 -69 509 -105 689 -90 447 -177 691 -399 1122 -91 177 -267 487 -294 519 l-17 21 -88 -23z" fill="url(#linear-gradient-2-8)" id="region-2-8" transform="translate(0.000000,568.000000) scale(0.100000,-0.100000)"/><path d="M503 2982 c31 -34 47 -90 47 -167 0 -134 -59 -263 -169 -368 -70 -67 -133 -97 -203 -97 l-50 0 19 -32 c26 -45 98 -91 191 -122 74 -25 80 -26 122 -11 133 45 295 252 330 422 17 78 8 197 -17 254 -19 43 -28 50 -113 93 -64 32 -104 46 -133 46 -38 0 -39 -1 -24 -18z" fill="url(#linear-gradient-2-9)" id="region-2-9" transform="translate(0.000000,568.000000) scale(0.100000,-0.100000)"/><path d="M254 2912 c-115 -84 -196 -246 -179 -358 7 -47 41 -84 79 -84 71 1 177 97 229 208 27 57 32 78 32 143 0 62 -4 81 -19 98 -29 32 -93 29 -142 -7z" fill="url(#linear-gradient-2-10)" id="region-2-10" transform="translate(0.000000,568.000000) scale(0.100000,-0.100000)"/><path d="M1375 2606 c-18 -13 -17 -15 21 -34 47 -24 103 -78 115 -110 27 -71 -1 -221 -64 -351 -83 -171 -209 -260 -330 -234 -29 6 -60 14 -69 18 -49 19 14 -73 67 -100 205 -101 491 195 512 530 7 115 -11 187 -61 236 -56 54 -149 76 -191 45z" fill="url(#linear-gradient-2-11)" id="region-2-11" transform="translate(0.000000,568.000000) scale(0.100000,-0.100000)"/><path d="M740 2472 c-16 -31 -38 -71 -49 -88 l-21 -31 158 -76 c86 -42 184 -83 216 -93 55 -15 68 -15 170 0 22 3 46 33 46 57 0 12 -47 42 -157 100 -87 45 -197 106 -246 135 l-87 52 -30 -56z" fill="url(#linear-gradient-2-12)" id="region-2-12" transform="translate(0.000000,568.000000) scale(0.100000,-0.100000)"/><path d="M2957 2177 c-103 -104 -56 -339 80 -399 79 -35 146 -10 184 69 31 65 24 177 -17 253 -41 75 -92 110 -160 110 -47 0 -57 -4 -87 -33z" fill="url(#linear-gradient-2-13)" id="region-2-13" transform="translate(0.000000,568.000000) scale(0.100000,-0.100000)"/><path d="M4839 1015 c-5 -124 -7 -133 -39 -199 -45 -90 -167 -219 -274 -290 -344 -228 -828 -345 -1556 -377 -677 -30 -1274 62 -1660 255 -319 159 -536 393 -584 627 l-13 64 -18 -55 c-25 -72 -25 -197 -1 -267 106 -311 610 -584 1296 -702 283 -48 387 -56 795 -56 411 0 502 6 780 51 403 66 772 193 1012 349 126 82 243 202 288 295 34 73 35 78 35 195 0 111 -2 124 -29 180 l-28 60 -4 -130z" fill="url(#linear-gradient-2-14)" id="region-2-14" transform="translate(0.000000,568.000000) scale(0.100000,-0.100000)"/><path d="M2955 1020 c-219 -47 -388 -139 -435 -235 -39 -81 -14 -132 85 -176 73 -33 273 -39 405 -11 260 55 444 169 457 284 4 37 1 49 -21 75 -14 17 -49 41 -78 54 -75 33 -282 37 -413 9z" fill="url(#linear-gradient-2-15)" id="region-2-15" transform="translate(0.000000,568.000000) scale(0.100000,-0.100000)"/></g><g id="layer-3"><path d="M2981 4118 c-43 -68 -54 -104 -54 -178 0 -88 21 -150 52 -150 29 0 82 49 102 95 41 94 32 184 -22 229 -38 32 -60 33 -78 4z" fill="url(#linear-gradient-3-1)" id="region-3-1" transform="translate(0.000000,568.000000) scale(0.100000,-0.100000)"/><path d="M2794 4104 c-37 -55 25 -117 80 -80 30 19 35 65 10 90 -25 25 -71 20 -90 -10z" fill="url(#linear-gradient-3-2)" id="region-3-2" transform="translate(0.000000,568.000000) scale(0.100000,-0.100000)"/><path d="M2385 3665 c-49 -13 -107 -30 -129 -37 l-38 -14 38 -34 c100 -88 239 -154 388 -185 64 -13 127 -15 315 -13 201 3 246 0 301 -15 141 -38 255 -115 320 -217 18 -27 39 -50 49 -50 32 1 187 39 245 60 33 13 75 37 95 56 l36 32 -25 27 c-59 63 -241 185 -375 253 -54 26 -209 87 -275 107 -24 8 -24 7 -7 -18 16 -25 16 -26 -16 -36 -136 -43 -462 -61 -607 -33 -80 16 -181 48 -205 66 -18 13 -17 15 4 45 l22 31 -23 0 c-13 -1 -63 -12 -113 -25z" fill="url(#linear-gradient-3-3)" id="region-3-3" transform="translate(0.000000,568.000000) scale(0.100000,-0.100000)"/><path d="M1809 3281 c123 -119 383 -208 756 -258 169 -22 797 -26 945 -4 249 35 427 109 472 196 10 18 9 18 -13 -2 -86 -78 -325 -126 -727 -143 -469 -21 -916 26 -1204 126 -101 35 -225 93 -263 121 -11 9 4 -8 34 -36z" fill="url(#linear-gradient-3-4)" id="region-3-4" transform="translate(0.000000,568.000000) scale(0.100000,-0.100000)"/><path d="M223 2768 c-44 -48 -58 -113 -28 -125 32 -12 85 61 85 117 0 37 -27 41 -57 8z" fill="url(#linear-gradient-3-5)" id="region-3-5" transform="translate(0.000000,568.000000) scale(0.100000,-0.100000)"/></g></svg>