<?xml version="1.0" encoding="utf-8"?>
<!-- Generator: Adobe Illustrator 26.5.0, SVG Export Plug-In . SVG Version: 6.00 Build 0)  -->
<svg version="1.1" id="图层_1" xmlns="http://www.w3.org/2000/svg" xmlns:xlink="http://www.w3.org/1999/xlink" x="0px" y="0px"
	 viewBox="0 0 2400 650" style="enable-background:new 0 0 2400 650;" xml:space="preserve">
<style type="text/css">
	.st0{fill:none;}
	.st1{fill:#D3D3D3;}
	.st2{fill:url(#SVGID_1_);}
	.st3{fill:none;stroke:#000000;stroke-miterlimit:10;}
	.st4{fill:url(#region-1-1_00000181070253576494515050000017458106337751985336_);}
	.st5{fill:url(#region-1-2_00000155109701643197073410000001287502359364181408_);}
	.st6{fill:url(#region-1-3_00000034064859889526016820000014410313849303704984_);}
	.st7{fill:url(#region-1-4_00000065773204888748156530000016433888974407068304_);}
	.st8{fill:url(#region-1-5_00000170975656585660906880000004926077853139978934_);}
	.st9{fill:url(#region-2-1_00000037691526966260475060000002833400625791054232_);stroke:#000000;stroke-miterlimit:10;}
	.st10{fill:url(#region-2-2_00000159431019849949775150000011403800892682322107_);stroke:#000000;stroke-miterlimit:10;}
	.st11{fill:url(#region-2-3_00000029732840414881645620000016349974965383967396_);stroke:#000000;stroke-miterlimit:10;}
	.st12{fill:url(#region-2-4_00000160911181955172894670000000526331652758602633_);stroke:#000000;stroke-miterlimit:10;}
	.st13{fill:url(#region-2-5_00000134238552796317718210000014002659861567292861_);stroke:#000000;stroke-miterlimit:10;}
	.st14{fill:url(#region-2-6_00000077292655937183337290000003655396282980632707_);stroke:#000000;stroke-miterlimit:10;}
	.st15{fill:url(#region-3-1_00000081607877251820819820000013140090981785461179_);stroke:#000000;stroke-miterlimit:10;}
	.st16{fill:url(#region-1-1_00000046307607771069234910000008795465261780323762_);}
	.st17{fill:url(#region-1-2_00000090283272941228015380000007372667659576304768_);}
	.st18{fill:url(#region-1-3_00000075152387251839923530000006160920954934910885_);}
	.st19{fill:url(#region-1-4_00000138550332592068621550000001135838549317641634_);}
	.st20{fill:url(#region-1-5_00000070801137473001594620000013721049944427282333_);}
	.st21{fill:url(#region-2-1_00000113334579607968543550000001340362373605658812_);}
	.st22{fill:url(#region-2-2_00000155864679100971303870000008407842922277593999_);}
	.st23{fill:url(#region-2-3_00000176036306072943430820000009385920687546934197_);}
	.st24{fill:url(#region-2-4_00000181052008672578188670000005122458469062862505_);}
	.st25{fill:url(#region-2-5_00000003827252092347443230000012675449629305121957_);}
	.st26{fill:url(#region-2-6_00000100342260918488308300000013933190752083536771_);}
	.st27{fill:url(#region-3-1_00000054966320533214446650000013544680728406439614_);}
	.st28{fill:url(#region-3-2_00000041286367509421074190000009933505161409401277_);}
	.st29{fill:url(#region-3-2_00000158013566477964875540000007616998260378870155_);stroke:#000000;stroke-miterlimit:10;}
</style>
<pattern  y="650" width="40" height="40" patternUnits="userSpaceOnUse" id="SVGID_0000008236796468738298446" viewBox="0 -40 40 40" style="overflow:visible;">
	<g>
		<rect y="-40" class="st0" width="40" height="40"/>
		<g>
			<rect y="-40" class="st0" width="40" height="40"/>
			<g>
				<rect y="-40" class="st0" width="40" height="40"/>
				<rect y="-40" class="st0" width="40" height="40"/>
				<rect y="-40" class="st1" width="20" height="20"/>
				<rect x="20" y="-20" class="st1" width="20" height="20"/>
			</g>
		</g>
	</g>
</pattern>
<g id="图层_1_00000145758195096441080580000012127687374277134223_">
	<g id="图层_1_00000015316622078413379080000000961724766797632903_">
		<pattern  id="SVGID_1_" xlink:href="#SVGID_0000008236796468738298446" patternTransform="matrix(1 0 0 1 -219 14672.2402)">
		</pattern>
		<rect class="st2" width="2400" height="650"/>
	</g>
	<g id="图层_3">
	</g>
	<line class="st3" x1="1200.5" y1="0" x2="1200.5" y2="650"/>
	<line class="st3" x1="599.5" y1="0" x2="599.5" y2="650"/>
	<line class="st3" x1="1800.5" y1="0" x2="1800.5" y2="650"/>
</g>
<g id="layer-1_00000016757024723060155600000018112636007667150758_">
	
		<linearGradient id="region-1-1_00000103231009520395777300000009039088055770415772_" gradientUnits="userSpaceOnUse" x1="442.7583" y1="304.5092" x2="444.1362" y2="304.088" gradientTransform="matrix(82.9492 0 0 -131.62 -35870.5352 40168.9062)">
		<stop  offset="0" style="stop-color:#FAEFD8;stop-opacity:0.994"/>
		<stop  offset="1" style="stop-color:#FAEFD8;stop-opacity:0.995"/>
	</linearGradient>
	
		<path id="region-1-1_00000101091201951439310660000000474936024805246648_" style="fill:url(#region-1-1_00000103231009520395777300000009039088055770415772_);" d="
		M889.5,45.1c-1.4,0.2-5.4,1.2-8.9,2.2c-8.2,2.2-14.4,7.8-15.4,13.8c-1.2,6.9-0.7,13.8,1.2,17.9c1.6,3.6,10.9,14.5,12.4,14.5
		c0.9,0,14.8,14.6,16.2,17.1c6.3,11.5,7.4,15.5,6.4,23.4c-0.8,5.8-1.4,8.5-3.9,17c-1.4,4.4-8.3,18.5-11.2,22.7
		c-2.4,3.4-1.4,3.5,5.8,0.3c6.6-2.9,18-13.4,20.1-18.5c0.9-1.9,2.8-5.1,4.4-7.1c1.6-2,2.9-4,2.9-4.3c0-0.4,1.6-3.8,3.5-7.7
		c4.4-8.9,4.6-14.6,0.9-22.5c-1.4-3-3-5.4-3.5-5.4s-4.4-3.2-8.6-7.1c-4.3-3.9-8.9-7.9-10.3-8.7c-1.4-0.9-3.7-2.8-5.1-4.2
		c-1.4-1.4-3.8-3.3-5.2-4.2c-2.9-2-4.5-8.7-2.9-12.2c0.6-1.1,1.3-2.9,1.6-3.8c0.6-2.2,6.4-4.6,13.1-5.6c6.4-1,17.5,1,22.3,4
		c2,1.3,5.3,3.1,7.2,4s5.4,3.1,7.7,4.9c4.5,3.4,7.3,3.4,7.3-0.1c0-3.8-11.4-17.5-19.5-23.5C921.9,47.5,898.9,43.4,889.5,45.1z"/>
	
		<linearGradient id="region-1-2_00000021816492402389268830000003123910178209377467_" gradientUnits="userSpaceOnUse" x1="441.8709" y1="304.19" x2="441.8709" y2="303.19" gradientTransform="matrix(416.5085 0 0 -83.7131 -183149.25 25644.5137)">
		<stop  offset="0" style="stop-color:#EDECEC;stop-opacity:0.993"/>
		<stop  offset="1" style="stop-color:#E2E2E1;stop-opacity:0.993"/>
	</linearGradient>
	
		<path id="region-1-2_00000073707279617960404520000004773463992024159913_" style="fill:url(#region-1-2_00000021816492402389268830000003123910178209377467_);" d="
		M845,181.1c-77.7,4.2-125.2,13.1-147.7,27.5c-6.1,3.9-11.8,10.5-11.8,13.6c0,2.9,6.6,10.2,12.8,14.2
		c20.2,12.8,66.8,22.3,128.2,26.1c25.8,1.6,112.6,1.3,139.6-0.5c61.7-4,106-13.6,125.5-27c5.3-3.6,9.2-8.1,10.3-12.1
		c0.9-2.9-3.9-9.1-10.6-13.7c-17-11.6-54.5-20.5-105.8-25.1C936.8,179.7,889.2,178.7,845,181.1z"/>
	
		<linearGradient id="region-1-3_00000054958411488103425160000006381871364159855784_" gradientUnits="userSpaceOnUse" x1="441.8333" y1="305.4758" x2="441.8333" y2="304.4758" gradientTransform="matrix(463.6097 0 0 -289.0397 -203921.1875 88517.8828)">
		<stop  offset="0" style="stop-color:#DEDEDE;stop-opacity:0.993"/>
		<stop  offset="1" style="stop-color:#B4B4B4;stop-opacity:0.997"/>
	</linearGradient>
	
		<path id="region-1-3_00000062161493422834113840000004043566517172634242_" style="fill:url(#region-1-3_00000054958411488103425160000006381871364159855784_);" d="
		M1101.7,223.6c-0.3,2.7-4.7,7.7-10.1,11.5c-19.5,13.3-63.9,22.9-125.5,26.9c-27,1.8-113.8,2.1-139.6,0.5
		c-37.3-2.3-67.3-6.4-92.2-12.5c-22.5-5.6-36.6-12.2-44.9-21.2l-4.2-4.6l0.6,11.4c0.9,16,3.2,34.8,7.8,63.9
		c1.4,9.3,7.4,34.7,11.1,47c9.9,33.7,24,64.7,39.5,87c9.3,13.3,10.9,15.5,13.4,18.2c1.3,1.4,4.4,4.7,6.9,7.4
		c4.1,4.5,9.9,9.8,18.2,16.7c9.6,7.9,31.9,20.8,43.8,25.2c1.9,0.7,4.4,1.6,5.5,2.1c1.1,0.4,2.7,0.8,3.6,1c0.9,0.2,2.9,0.9,4.5,1.5
		c1.6,0.7,3.5,1.3,4.3,1.5s2.6,0.6,4,0.9c1.4,0.4,5.1,1.1,8.1,1.6s7.1,1.1,9,1.5c1.9,0.3,4.9,0.7,6.5,0.9c4.4,0.4,39.4,0.4,43.5-0.1
		c8.7-0.9,22.8-3.5,27.9-5c3.1-0.9,6.1-1.7,6.6-1.9c0.6-0.1,2.3-0.7,3.8-1.3c1.6-0.7,3.2-1.2,3.7-1.2c1.5,0,19.1-8.3,26.5-12.4
		c6.2-3.5,11.7-7.2,22-14.9c10.7-8,32.7-32.7,40.2-45.2c9.5-15.9,13.7-23.4,15.3-27.9c2.8-7.5,4.4-8.6,10-7.6
		c7.9,1.6,30.7,1.2,36.9-0.6c13.1-3.8,18.1-6.5,25.5-13.8c6-5.9,7.7-8.3,9.8-14.1c4.6-12.1,5.2-15.4,5.1-30
		c-0.1-36.4-11.7-53.8-37.6-56.5c-4.5-0.4-9.4-0.6-10.9-0.3c-1.6,0.3-2.8,0.4-2.8,0.2c0-0.2,0.6-6,1.4-12.9
		c2.6-22.6,3.8-37.4,3.4-41C1102,223.6,1101.7,222.7,1101.7,223.6z M1111.8,309c5.6,2.6,8.5,8.3,9.6,18.8c0.9,9,0,17.1-2.4,21.7
		c-5.4,10.1-18.8,16.9-36.2,18.3c-4.6,0.4-6.3,0.2-6.3-0.7c0-0.7,1.1-4.6,2.6-8.7c1.4-4.1,3.1-9.7,3.9-12.4c0.7-2.8,2.5-9.3,4-14.5
		s3.3-12.6,4.1-16.4c0.7-3.8,1.9-7.4,2.6-7.8C1095.7,305.9,1107.7,307,1111.8,309z"/>
	
		<linearGradient id="region-1-4_00000109740736454959996170000014379566604657804982_" gradientUnits="userSpaceOnUse" x1="441.7861" y1="305.1067" x2="441.7861" y2="304.1067" gradientTransform="matrix(540 0 0 -169.6032 -237669 52149.7656)">
		<stop  offset="0" style="stop-color:#B9B9B9;stop-opacity:0.996"/>
		<stop  offset="1" style="stop-color:#C1C1C1;stop-opacity:0.998"/>
	</linearGradient>
	
		<path id="region-1-4_00000052076177865988625790000013725692105961714843_" style="fill:url(#region-1-4_00000109740736454959996170000014379566604657804982_);" d="
		M723.5,404.2c-1.4,0.7-3.3,1.3-4.2,1.3c-2.3,0-20.1,6.3-33.3,11.7c-30.3,12.6-48.4,26.3-56.7,43.1c-3.6,7.1-3.8,8-3.8,17.2
		c0,5.3,0.5,11.2,1.2,13.1c3.6,10.3,13.8,22.1,26.4,30.3c3.2,2.1,7.1,4.7,8.7,5.8c7.3,5,37.1,17.9,48.9,21.2c2.9,0.8,9.4,2.6,14.3,4
		c32.2,9.1,67.3,14.9,112.5,18.7c20.5,1.7,78.9,2.3,98.5,1c40.1-2.6,42.4-2.9,80.9-8.7c13-1.9,46.9-9.9,61.3-14.3
		c46.5-14.4,79.3-36.5,86.1-58.2c0.6-1.9,1.1-7.7,1.2-13.1c0-9.3-0.1-9.9-4-17.5c-6.6-12.8-16.4-21.7-35.9-32.7
		c-13.7-7.8-39-17.8-57.1-22.5l-7.1-1.9l-0.9,2.4c-0.8,1.9-6.2,11.4-14.3,24.9c-7.5,12.5-29.5,37.2-40.2,45.2
		c-10.3,7.7-15.8,11.4-22,14.9c-7.4,4.1-25,12.4-26.5,12.4c-0.5,0-2.1,0.5-3.7,1.2c-1.5,0.6-3.2,1.2-3.8,1.3c-0.5,0.2-3.5,1-6.6,1.9
		c-5.1,1.5-19.2,4.1-27.9,5c-4.1,0.5-39.1,0.5-43.5,0.1c-1.6-0.2-4.6-0.6-6.5-0.9c-1.9-0.4-6-1-9-1.5s-6.7-1.2-8.1-1.6
		c-1.4-0.3-3.2-0.7-4-0.9c-0.8-0.2-2.7-0.8-4.3-1.5c-1.6-0.6-3.6-1.3-4.5-1.5s-2.5-0.6-3.6-1c-1.1-0.5-3.6-1.4-5.5-2.1
		c-11.9-4.4-34.2-17.3-43.8-25.2c-8.3-6.9-14.1-12.2-18.2-16.7c-2.5-2.7-5.6-6-6.9-7.4c-6.1-6.6-27.1-38.3-27.1-41.1
		c0-0.3-1-2.2-2.3-4.2C726.1,403.1,725.8,402.9,723.5,404.2z"/>
	
		<linearGradient id="region-1-5_00000049901830736568159800000007144241060151288718_" gradientUnits="userSpaceOnUse" x1="441.7907" y1="302.8799" x2="441.8205" y2="304.748" gradientTransform="matrix(503.7986 0 0 -71.7383 -221686.1719 22314.9434)">
		<stop  offset="0" style="stop-color:#393939;stop-opacity:0.991"/>
		<stop  offset="1" style="stop-color:#6A6A6A;stop-opacity:0.991"/>
	</linearGradient>
	
		<path id="region-1-5_00000027603308980555869780000004988818913020224676_" style="fill:url(#region-1-5_00000049901830736568159800000007144241060151288718_);" d="
		M643.5,515.3c0,1.2,11.1,12.5,17,17.3c23.8,19.2,73.6,36.9,127.5,45.3c28.5,4.4,39.5,5.6,67.5,7.2c71.4,4.1,146.2-3,202.5-19.3
		c30.2-8.7,57.9-21.4,72.3-33c8.5-7,18.9-18.3,16.7-18.3c-0.3,0-3.3,2.2-6.8,4.8c-13.5,10.5-36.8,21.5-62,29.3
		c-14.4,4.4-48.3,12.4-61.3,14.3c-38.5,5.8-40.8,6.1-80.9,8.7c-19.6,1.3-78,0.7-98.5-1c-45.2-3.8-80.3-9.6-112.5-18.7
		c-4.9-1.4-11.4-3.2-14.3-4c-11.8-3.3-41.6-16.2-48.9-21.2c-1.6-1.1-5.4-3.7-8.6-5.8c-3.2-2.1-6.6-4.5-7.7-5.3
		C644.4,514.9,643.5,514.7,643.5,515.3z"/>
</g>
<g id="layer-2_00000080898293319202864730000009091222251507560354_">
	
		<linearGradient id="region-2-1_00000020362505187874247980000001349797117972979382_" gradientUnits="userSpaceOnUse" x1="443.4083" y1="302.7688" x2="443.4083" y2="301.7688" gradientTransform="matrix(398 0 0 -46.8856 -174978 14385.3408)">
		<stop  offset="0" style="stop-color:#080706;stop-opacity:3.100000e-02"/>
		<stop  offset="1" style="stop-color:#000000;stop-opacity:0.106"/>
	</linearGradient>
	
		<path id="region-2-1_00000066505621095079375290000003065353146774258365_" style="fill:url(#region-2-1_00000020362505187874247980000001349797117972979382_);stroke:#000000;stroke-miterlimit:10;" d="
		M1432.5,191.5c-64.6,4-98.2,9.4-118.2,18.7c-7.8,3.7-14.8,9.6-14.8,12.5c0,2.4,8.8,9.4,15,12c6.3,2.5,6.6,2.6,8,0.8
		c4.2-5.1,16.5-9.7,40-14.9c5.7-1.3,36.2-4.7,53.4-6.1c16.7-1.3,151.5-1.3,167.1,0c19.7,1.7,47.2,5,54.8,6.5
		c18.9,4,32.7,9.2,36.4,13.8c1.4,1.8,2.4,2.2,4.3,1.7c8.4-2.3,19-10.1,19-13.9c0-2.7-3.6-6.8-8.3-9.5c-15.9-9.3-50.4-16.4-95.2-19.6
		c-8.3-0.6-20.4-1.6-27-2.2c-6.6-0.6-32.9-1.2-58.5-1.4C1471.9,189.7,1455.7,190,1432.5,191.5z"/>
	
		<linearGradient id="region-2-2_00000060716675943635123770000006946708803450743173_" gradientUnits="userSpaceOnUse" x1="443.6505" y1="302.1801" x2="443.6527" y2="301.0087" gradientTransform="matrix(353 0 0 -39.6654 -155110 12199.7451)">
		<stop  offset="0" style="stop-color:#4D1F00;stop-opacity:0.804"/>
		<stop  offset="1" style="stop-color:#4A1D00;stop-opacity:0.824"/>
	</linearGradient>
	
		<path id="region-2-2_00000026144508355367805450000005576912707718756281_" style="fill:url(#region-2-2_00000060716675943635123770000006946708803450743173_);stroke:#000000;stroke-miterlimit:10;" d="
		M1413.5,214.6c-43,3.5-71.2,8.9-84.3,16.2c-3.7,2.1-6.7,4.4-6.7,5.1c0,2.9,34.1,10.2,59.2,12.6c35.5,3.5,51.3,4.2,101.3,4.7
		c90.7,0.9,148.3-3.5,186.8-14.4c3.1-0.9,5.7-1.9,5.7-2.3c0-1.2-4.4-4.7-8.6-6.8c-13.1-6.6-40.2-11.5-83.9-15.2
		C1568.6,213.3,1428.7,213.4,1413.5,214.6z"/>
	
		<linearGradient id="region-2-3_00000183214083717460334230000016231406211054194107_" gradientUnits="userSpaceOnUse" x1="443.3708" y1="301.8211" x2="443.3724" y2="300.6416" gradientTransform="matrix(405.9611 0 0 -36.2488 -178492.8438 11213.6523)">
		<stop  offset="0" style="stop-color:#050505;stop-opacity:0.81"/>
		<stop  offset="1" style="stop-color:#000000;stop-opacity:0.879"/>
	</linearGradient>
	
		<path id="region-2-3_00000044163968941037430270000003491784587232898235_" style="fill:url(#region-2-3_00000183214083717460334230000016231406211054194107_);stroke:#000000;stroke-miterlimit:10;" d="
		M1295.5,273.3c0,1.6,9.3,8.8,14.9,11.6c19.8,9.9,50.6,16.7,96.1,21.1c23.2,2.3,82.2,3.8,120,3.1c36.3-0.7,64.2-2.6,87-5.7
		c8-1.1,17.4-2.4,21-2.9s7.4-1.1,8.5-1.4s7.5-1.9,14.2-3.6c17.3-4.2,32.1-10.5,40.5-17.2c4.5-3.5,5.2-5.9,0.8-2.8
		c-6,4.3-13.7,7.8-25.5,11.8c-11.6,3.9-14.6,4.6-30.5,7.6c-32.4,6.2-91.1,10.6-141.8,10.6c-46.7,0-115.9-4.5-137.2-9
		c-2.5-0.5-9.4-1.9-15.3-3c-19.9-3.8-43.6-12.9-50.4-19.2C1296.5,273.1,1295.5,272.7,1295.5,273.3z"/>
	
		<linearGradient id="region-2-4_00000086662022398849990400000001009208572355775130_" gradientUnits="userSpaceOnUse" x1="443.3737" y1="301.8033" x2="443.3737" y2="300.8033" gradientTransform="matrix(405.3416 0 0 -36.1 -178219.1406 11176.499)">
		<stop  offset="0" style="stop-color:#000000;stop-opacity:0.801"/>
		<stop  offset="1" style="stop-color:#000000;stop-opacity:0.858"/>
	</linearGradient>
	
		<path id="region-2-4_00000127726065650513389570000015570117285534590605_" style="fill:url(#region-2-4_00000086662022398849990400000001009208572355775130_);stroke:#000000;stroke-miterlimit:10;" d="
		M1301,286c5.6,5.1,17.7,11.3,29.3,15c17.2,5.4,27.7,7.4,64.7,12c19.3,2.5,66.3,4.5,103.5,4.5c92,0,153.6-7.8,186-23.4
		c5-2.4,15.4-9.8,16.7-11.9c0.7-1.1-1.3-0.1-3.7,1.9c-3,2.5-17.7,9.3-26.5,12.2c-15.1,5.1-46.9,10.8-73,13.2
		c-29.1,2.6-41.8,3.2-86.3,3.7c-45.4,0.5-77.5-0.3-100.2-2.7c-4.7-0.5-14.3-1.4-21.3-2c-16.1-1.4-49.8-8-64.1-12.6
		c-11.5-3.7-15.7-5.6-24.6-11.1l-5.5-3.4L1301,286z"/>
	
		<linearGradient id="region-2-5_00000018218719534938882150000000438628902490449045_" gradientUnits="userSpaceOnUse" x1="443.325" y1="303.4091" x2="444.3329" y2="303.6058" gradientTransform="matrix(315.497 0 0 -75.3116 -138550.9375 23346.666)">
		<stop  offset="0" style="stop-color:#080808;stop-opacity:0.304"/>
		<stop  offset="1" style="stop-color:#909090;stop-opacity:0.837"/>
	</linearGradient>
	
		<path id="region-2-5_00000121967333169319798160000001794397467231599779_" style="fill:url(#region-2-5_00000018218719534938882150000000438628902490449045_);stroke:#000000;stroke-miterlimit:10;" d="
		M1624.4,462.9c-5.8,5.6-11.8,11.1-13.4,12.3c-10.6,7.8-15.8,11.4-22,14.9c-7.4,4.1-25,12.4-26.5,12.4c-0.5,0-2.1,0.5-3.7,1.2
		c-1.5,0.6-3.2,1.2-3.8,1.3c-0.5,0.2-3.5,1-6.6,1.9c-5.1,1.5-19.2,4.1-27.9,5c-4.1,0.5-39.1,0.5-43.5,0.1c-1.6-0.2-4.6-0.6-6.5-0.9
		c-1.9-0.4-6-1-9-1.5s-6.7-1.2-8.1-1.6c-1.4-0.3-3.2-0.7-4-0.9c-0.8-0.2-2.7-0.8-4.3-1.5c-1.6-0.6-3.6-1.3-4.5-1.5s-2.5-0.6-3.6-1
		c-1.1-0.5-3.6-1.4-5.5-2.1c-11.9-4.4-34.1-17.2-43.8-25.2c-8.3-6.9-13.5-11.6-18.2-16.5l-5-5.3l-5.6,2.9
		c-6.5,3.4-13.9,11.3-15.5,16.6c-4.7,15.6,15.7,30.9,55.6,41.4c14.5,3.8,60.1,10.1,95.5,13.1c11.7,1,65.2-4.9,95.3-10.6
		c14-2.6,33.1-8.6,43.2-13.6c20-9.8,27.8-19.6,24.5-30.6c-1.5-5.1-10.5-14.2-17.6-17.8l-5.2-2.6L1624.4,462.9z"/>
	
		<linearGradient id="region-2-6_00000099642397991974306780000014921359550078848908_" gradientUnits="userSpaceOnUse" x1="442.9062" y1="304.2768" x2="442.931" y2="302.647" gradientTransform="matrix(540.0109 0 0 -87.5494 -237673.8281 27123.3984)">
		<stop  offset="0" style="stop-color:#FFFFFF;stop-opacity:0.816"/>
		<stop  offset="1" style="stop-color:#FFFFFF;stop-opacity:0.78"/>
	</linearGradient>
	
		<path id="region-2-6_00000069395188950281850400000000785805175782229167_" style="fill:url(#region-2-6_00000099642397991974306780000014921359550078848908_);stroke:#000000;stroke-miterlimit:10;" d="
		M1230.5,485.2c0,9.6,12.6,25.9,27.6,35.7c3.2,2.1,7.1,4.7,8.7,5.8c7.3,5,37.1,17.9,48.9,21.2c2.9,0.8,9.4,2.6,14.3,4
		c32.2,9.1,67.3,14.9,112.5,18.7c20.5,1.7,78.9,2.3,98.5,1c40.1-2.6,42.4-2.9,80.9-8.7c13-1.9,46.9-9.9,61.3-14.3
		c46.4-14.3,78.4-35.9,86.1-58c2-5.8,1.4-8.1-0.9-3.1c-5.4,11.8-14,21.1-28.4,30.4c-25.8,16.7-64.8,30.1-113.5,39
		c-77.3,14.1-174.7,14.1-252,0c-28.9-5.3-64.9-15.2-82-22.6c-31.1-13.4-50.5-28-58.3-43.7C1232.1,486.6,1230.5,484.1,1230.5,485.2z"
		/>
</g>
<linearGradient id="region-3-1_00000034058156469580875050000008561351647665847725_" gradientUnits="userSpaceOnUse" x1="451.1681" y1="301.7617" x2="451.1956" y2="300.4247" gradientTransform="matrix(142.7398 0 0 -35.6682 -62281.0312 10977.0234)">
	<stop  offset="0" style="stop-color:#FFFFEE;stop-opacity:0.248"/>
	<stop  offset="1" style="stop-color:#FFFFEA;stop-opacity:0.17"/>
</linearGradient>
<path id="region-3-1_00000173122267080689598000000008730273626852282508_" style="fill:url(#region-3-1_00000034058156469580875050000008561351647665847725_);stroke:#000000;stroke-miterlimit:10;" d="
	M2072.8,214.4c-20.1,0.6-21.4,0.7-23.4,2.8c-2,2-2.1,2.5-0.9,5.3c1.8,4.3,8.5,10.9,15.2,14.8c13.7,8.1,32.2,12.3,54.3,12.4
	c22.3,0.1,36.1-2.7,52.3-10.3c12.1-5.8,22.5-17.3,19.7-21.8c-0.3-0.6-2.3-1.5-4.3-2C2181.1,214.4,2101.6,213.5,2072.8,214.4z"/>
<g>
	<g id="layer-1_00000103978491495108246450000010826259907703951017_">
		
			<linearGradient id="region-1-1_00000118367114452473663490000012325782815078105221_" gradientUnits="userSpaceOnUse" x1="236.9161" y1="867.2454" x2="238.2336" y2="867.5127" gradientTransform="matrix(82.9492 0 0 131.62 -19398.7441 -114049.1094)">
			<stop  offset="0" style="stop-color:#FAEFD8;stop-opacity:0.991"/>
			<stop  offset="1" style="stop-color:#FAEFD8;stop-opacity:0.991"/>
		</linearGradient>
		
			<path id="region-1-1_00000059990596825777756120000011688432779099971734_" style="fill:url(#region-1-1_00000118367114452473663490000012325782815078105221_);" d="
			M285,44.9c-1.4,0.2-5.4,1.2-8.9,2.2c-8.2,2.2-14.4,7.8-15.4,13.8c-1.2,6.9-0.7,13.8,1.2,17.9c1.6,3.6,10.9,14.5,12.4,14.5
			c0.9,0,14.8,14.6,16.2,17.1c6.3,11.5,7.4,15.5,6.4,23.4c-0.8,5.8-1.4,8.5-3.9,17c-1.4,4.4-8.3,18.5-11.2,22.7
			c-2.4,3.4-1.4,3.5,5.8,0.3c6.6-2.9,18-13.4,20.1-18.5c0.9-1.9,2.8-5.1,4.4-7.1s2.9-4,2.9-4.3c0-0.4,1.6-3.8,3.5-7.7
			c4.4-8.9,4.6-14.6,0.9-22.5c-1.4-3-3-5.4-3.5-5.4s-4.4-3.2-8.6-7.1c-4.3-3.9-8.9-7.9-10.3-8.7c-1.4-0.9-3.7-2.8-5.1-4.2
			c-1.4-1.4-3.8-3.3-5.2-4.2c-2.9-2-4.5-8.7-2.9-12.2c0.6-1.1,1.3-2.9,1.6-3.8c0.6-2.2,6.4-4.6,13.1-5.6c6.4-1,17.5,1,22.3,4
			c2,1.3,5.3,3.1,7.2,4s5.4,3.1,7.7,4.9c4.5,3.4,7.3,3.4,7.3-0.1c0-3.8-11.4-17.5-19.5-23.5C317.4,47.3,294.4,43.2,285,44.9z"/>
		
			<linearGradient id="region-1-2_00000147221017062322821050000011990325341073122730_" gradientUnits="userSpaceOnUse" x1="239.9022" y1="867.8944" x2="239.9022" y2="868.8944" gradientTransform="matrix(416.5085 0 0 83.7131 -99632.0391 -72474.5312)">
			<stop  offset="0" style="stop-color:#EDECEC;stop-opacity:0.991"/>
			<stop  offset="1" style="stop-color:#E2E2E1;stop-opacity:0.991"/>
		</linearGradient>
		
			<path id="region-1-2_00000102539462426962572900000003505744772396488375_" style="fill:url(#region-1-2_00000147221017062322821050000011990325341073122730_);" d="
			M240.5,180.9c-77.7,4.2-125.2,13.1-147.7,27.5C86.7,212.3,81,218.9,81,222c0,2.9,6.6,10.2,12.8,14.2
			C114,249,160.6,258.5,222,262.3c25.8,1.6,112.6,1.3,139.6-0.5c61.7-4,106-13.6,125.5-27c5.3-3.6,9.2-8.1,10.3-12.1
			c0.9-2.9-3.9-9.1-10.6-13.7c-17-11.6-54.5-20.5-105.8-25.1C332.3,179.5,284.7,178.5,240.5,180.9z"/>
		
			<linearGradient id="region-1-3_00000138537865683540874970000013605718325531783054_" gradientUnits="userSpaceOnUse" x1="239.9629" y1="865.8383" x2="239.9629" y2="866.8383" gradientTransform="matrix(463.6097 0 0 289.0397 -110936.6328 -250038.6094)">
			<stop  offset="0" style="stop-color:#DCDCDC;stop-opacity:0.993"/>
			<stop  offset="1" style="stop-color:#AFAFAF;stop-opacity:0.993"/>
		</linearGradient>
		
			<path id="region-1-3_00000137823093978881783150000001514107724870274432_" style="fill:url(#region-1-3_00000138537865683540874970000013605718325531783054_);" d="
			M497.2,223.4c-0.3,2.7-4.7,7.7-10.1,11.5c-19.5,13.3-63.9,22.9-125.5,26.9c-27,1.8-113.8,2.1-139.6,0.5
			c-37.3-2.3-67.3-6.4-92.2-12.5c-22.5-5.6-36.6-12.2-44.9-21.2l-4.2-4.6l0.6,11.4c0.9,16,3.2,34.8,7.8,63.9
			c1.4,9.3,7.4,34.7,11.1,47c9.9,33.7,24,64.7,39.5,87c9.3,13.3,10.9,15.5,13.4,18.2c1.3,1.4,4.4,4.7,6.9,7.4
			c4.1,4.5,9.9,9.8,18.2,16.7c9.6,7.9,31.9,20.8,43.8,25.2c1.9,0.7,4.4,1.6,5.5,2.1c1.1,0.4,2.7,0.8,3.6,1c0.9,0.2,2.9,0.9,4.5,1.5
			c1.6,0.7,3.5,1.3,4.3,1.5c0.8,0.2,2.6,0.6,4,0.9c1.4,0.4,5.1,1.1,8.1,1.6s7.1,1.1,9,1.5c1.9,0.3,4.9,0.7,6.5,0.9
			c4.4,0.4,39.4,0.4,43.5-0.1c8.7-0.9,22.8-3.5,27.9-5c3.1-0.9,6.1-1.7,6.6-1.9c0.6-0.1,2.3-0.7,3.8-1.3c1.6-0.7,3.2-1.2,3.7-1.2
			c1.5,0,19.1-8.3,26.5-12.4c6.2-3.5,11.7-7.2,22-14.9c10.7-8,32.7-32.7,40.2-45.2c9.5-15.9,13.7-23.4,15.3-27.9
			c2.8-7.5,4.4-8.6,10-7.6c7.9,1.6,30.7,1.2,36.9-0.6c13.1-3.8,18.1-6.5,25.5-13.8c6-5.9,7.7-8.3,9.8-14.1c4.6-12.1,5.2-15.4,5.1-30
			c-0.1-36.4-11.7-53.8-37.6-56.5c-4.5-0.4-9.4-0.6-10.9-0.3c-1.6,0.3-2.8,0.4-2.8,0.2c0-0.2,0.6-6,1.4-12.9
			c2.6-22.6,3.8-37.4,3.4-41C497.5,223.4,497.2,222.5,497.2,223.4z M507.3,308.8c5.6,2.6,8.5,8.3,9.6,18.8c0.9,9,0,17.1-2.4,21.7
			c-5.4,10.1-18.8,16.9-36.2,18.3c-4.6,0.4-6.3,0.2-6.3-0.7c0-0.7,1.1-4.6,2.6-8.7c1.4-4.1,3.1-9.7,3.9-12.4c0.7-2.8,2.5-9.3,4-14.5
			c1.5-5.2,3.3-12.6,4.1-16.4c0.7-3.8,1.9-7.4,2.6-7.8C491.2,305.7,503.2,306.8,507.3,308.8z"/>
		
			<linearGradient id="region-1-4_00000114770476546417270090000011207873774459642031_" gradientUnits="userSpaceOnUse" x1="240.0389" y1="866.4286" x2="240.0389" y2="867.4286" gradientTransform="matrix(540 0 0 169.6032 -129330 -146546.5781)">
			<stop  offset="0" style="stop-color:#B6B6B6;stop-opacity:0.996"/>
			<stop  offset="1" style="stop-color:#BDBDBD;stop-opacity:0.998"/>
		</linearGradient>
		
			<path id="region-1-4_00000135678867082111167640000012919169169423895215_" style="fill:url(#region-1-4_00000114770476546417270090000011207873774459642031_);" d="
			M119,404c-1.4,0.7-3.3,1.3-4.2,1.3c-2.3,0-20.1,6.3-33.3,11.7c-30.3,12.6-48.4,26.3-56.7,43.1c-3.6,7.1-3.8,8-3.8,17.2
			c0,5.3,0.5,11.2,1.2,13.1c3.6,10.3,13.8,22.1,26.4,30.3c3.2,2.1,7.1,4.7,8.7,5.8c7.3,5,37.1,17.9,48.9,21.2
			c2.9,0.8,9.4,2.6,14.3,4c32.2,9.1,67.3,14.9,112.5,18.7c20.5,1.7,78.9,2.3,98.5,1c40.1-2.6,42.4-2.9,80.9-8.7
			c13-1.9,46.9-9.9,61.3-14.3c46.5-14.4,79.3-36.5,86.1-58.2c0.6-1.9,1.1-7.7,1.2-13.1c0-9.3-0.1-9.9-4-17.5
			c-6.6-12.8-16.4-21.7-35.9-32.7c-13.7-7.8-39-17.8-57.1-22.5l-7.1-1.9l-0.9,2.4c-0.8,1.9-6.2,11.4-14.3,24.9
			c-7.5,12.5-29.5,37.2-40.2,45.2c-10.3,7.7-15.8,11.4-22,14.9c-7.4,4.1-25,12.4-26.5,12.4c-0.5,0-2.1,0.5-3.7,1.2
			c-1.5,0.6-3.2,1.2-3.8,1.3c-0.5,0.2-3.5,1-6.6,1.9c-5.1,1.5-19.2,4.1-27.9,5c-4.1,0.5-39.1,0.5-43.5,0.1c-1.6-0.2-4.6-0.6-6.5-0.9
			c-1.9-0.4-6-1-9-1.5s-6.7-1.2-8.1-1.6c-1.4-0.3-3.2-0.7-4-0.9c-0.8-0.2-2.7-0.8-4.3-1.5c-1.6-0.6-3.6-1.3-4.5-1.5
			c-0.9-0.2-2.5-0.6-3.6-1c-1.1-0.5-3.6-1.4-5.5-2.1c-11.9-4.4-34.2-17.3-43.8-25.2c-8.3-6.9-14.1-12.2-18.2-16.7
			c-2.5-2.7-5.6-6-6.9-7.4c-6.1-6.6-27.1-38.3-27.1-41.1c0-0.3-1-2.2-2.3-4.2C121.6,402.9,121.3,402.7,119,404z"/>
		
			<linearGradient id="region-1-5_00000072976951618333509470000010456950077750854286_" gradientUnits="userSpaceOnUse" x1="239.9898" y1="869.3853" x2="240.0196" y2="867.5157" gradientTransform="matrix(503.7986 0 0 71.7383 -120623.6484 -61781.5859)">
			<stop  offset="0" style="stop-color:#3A3A3A;stop-opacity:0.997"/>
			<stop  offset="1" style="stop-color:#6B6B6B;stop-opacity:0.997"/>
		</linearGradient>
		
			<path id="region-1-5_00000059991087225413742120000005088947521554837922_" style="fill:url(#region-1-5_00000072976951618333509470000010456950077750854286_);" d="
			M39,515.1c0,1.2,11.1,12.5,17,17.3c23.8,19.2,73.6,36.9,127.5,45.3c28.5,4.4,39.5,5.6,67.5,7.2c71.4,4.1,146.2-3,202.5-19.3
			c30.2-8.7,57.9-21.4,72.3-33c8.5-7,18.9-18.3,16.7-18.3c-0.3,0-3.3,2.2-6.8,4.8c-13.5,10.5-36.8,21.5-62,29.3
			c-14.4,4.4-48.3,12.4-61.3,14.3c-38.5,5.8-40.8,6.1-80.9,8.7c-19.6,1.3-78,0.7-98.5-1c-45.2-3.8-80.3-9.6-112.5-18.7
			c-4.9-1.4-11.4-3.2-14.3-4c-11.8-3.3-41.6-16.2-48.9-21.2c-1.6-1.1-5.4-3.7-8.6-5.8c-3.2-2.1-6.6-4.5-7.7-5.3
			C39.9,514.7,39,514.5,39,515.1z"/>
	</g>
	<g id="layer-2_00000060722095737137969900000014449268663222605490_">
		
			<linearGradient id="region-2-1_00000088125885116803918690000006104442504827210390_" gradientUnits="userSpaceOnUse" x1="239.8744" y1="870.1679" x2="239.8744" y2="871.1679" gradientTransform="matrix(398 0 0 46.8856 -95181 -40608.6953)">
			<stop  offset="0" style="stop-color:#0D0C0C;stop-opacity:3.200000e-02"/>
			<stop  offset="1" style="stop-color:#000000;stop-opacity:0.107"/>
		</linearGradient>
		
			<path id="region-2-1_00000102516359178669046300000010316720030590133909_" style="fill:url(#region-2-1_00000088125885116803918690000006104442504827210390_);" d="
			M223,191.3c-64.6,4-98.2,9.4-118.2,18.7C97,213.7,90,219.6,90,222.5c0,2.4,8.8,9.4,15,12c6.3,2.5,6.6,2.6,8,0.8
			c4.2-5.1,16.5-9.7,40-14.9c5.7-1.3,36.2-4.7,53.4-6.1c16.7-1.3,151.5-1.3,167.1,0c19.7,1.7,47.2,5,54.8,6.5
			c18.9,4,32.7,9.2,36.4,13.8c1.4,1.8,2.4,2.2,4.3,1.7c8.4-2.3,19-10.1,19-13.9c0-2.7-3.6-6.8-8.3-9.5
			c-15.9-9.3-50.4-16.4-95.2-19.6c-8.3-0.6-20.4-1.6-27-2.2c-6.6-0.6-32.9-1.2-58.5-1.4C262.4,189.5,246.2,189.8,223,191.3z"/>
		
			<linearGradient id="region-2-2_00000022524748020608801500000001116545324562834569_" gradientUnits="userSpaceOnUse" x1="239.7932" y1="871.1074" x2="239.7962" y2="872.3228" gradientTransform="matrix(353 0 0 39.6654 -84358 -34339.4492)">
			<stop  offset="0" style="stop-color:#4E2100;stop-opacity:0.806"/>
			<stop  offset="1" style="stop-color:#491C00;stop-opacity:0.821"/>
		</linearGradient>
		
			<path id="region-2-2_00000128476385395694988670000016423105573333419696_" style="fill:url(#region-2-2_00000022524748020608801500000001116545324562834569_);" d="
			M204,214.4c-43,3.5-71.2,8.9-84.3,16.2c-3.7,2.1-6.7,4.4-6.7,5.1c0,2.9,34.1,10.2,59.2,12.6c35.5,3.5,51.3,4.2,101.3,4.7
			c90.7,0.9,148.3-3.5,186.8-14.4c3.1-0.9,5.7-1.9,5.7-2.3c0-1.2-4.4-4.7-8.6-6.8c-13.1-6.6-40.2-11.5-83.9-15.2
			C359.1,213.1,219.2,213.2,204,214.4z"/>
		
			<linearGradient id="region-2-3_00000145056730718280910610000016648107330874468241_" gradientUnits="userSpaceOnUse" x1="239.8864" y1="871.6819" x2="239.904" y2="873.7861" gradientTransform="matrix(405.9611 0 0 36.2398 -97095.6641 -31316.8984)">
			<stop  offset="0" style="stop-color:#0C0C0C;stop-opacity:0.761"/>
			<stop  offset="1" style="stop-color:#000000;stop-opacity:0.885"/>
		</linearGradient>
		
			<path id="region-2-3_00000121265032445937691500000015335740644039959467_" style="fill:url(#region-2-3_00000145056730718280910610000016648107330874468241_);" d="
			M86,273.1c0,2.1,10.4,9.4,18.8,13.4c27.4,12.7,73.7,19.8,143.2,21.9c60.4,1.8,119.5-0.1,156-5.2c8-1.1,17.4-2.4,21-2.9
			s7.4-1.1,8.5-1.4c1.1-0.3,7.5-1.9,14.2-3.6c17.3-4.2,32.1-10.5,40.5-17.2c4.5-3.5,5.2-5.9,0.8-2.8c-6,4.3-13.7,7.8-25.5,11.8
			c-11.6,3.9-14.6,4.6-30.5,7.6c-32.4,6.2-91.1,10.6-141.8,10.6c-46.7,0-115.9-4.5-137.2-9c-2.5-0.5-9.4-1.9-15.3-3
			c-19.9-3.8-43.6-12.9-50.4-19.2C87,272.9,86,272.5,86,273.1z"/>
		
			<linearGradient id="region-2-4_00000132053232478415326420000015861319561577762440_" gradientUnits="userSpaceOnUse" x1="239.8856" y1="871.7081" x2="239.9013" y2="873.7674" gradientTransform="matrix(405.3416 0 0 36.1 -96946.4766 -31187.5996)">
			<stop  offset="0" style="stop-color:#0C0C0C;stop-opacity:0.781"/>
			<stop  offset="1" style="stop-color:#000000;stop-opacity:0.898"/>
		</linearGradient>
		
			<path id="region-2-4_00000049906240575633182310000007519925453880887973_" style="fill:url(#region-2-4_00000132053232478415326420000015861319561577762440_);" d="
			M91.5,285.8c5.6,5.1,17.7,11.3,29.3,15c17.2,5.4,27.7,7.4,64.7,12c19.3,2.5,66.3,4.5,103.5,4.5c92,0,153.6-7.8,186-23.4
			c5-2.4,15.4-9.8,16.7-11.9c0.7-1.1-1.3-0.1-3.7,1.9c-3,2.5-17.7,9.3-26.5,12.2c-15.1,5.1-46.9,10.8-73,13.2
			c-29.1,2.6-41.8,3.2-86.3,3.7c-45.4,0.5-77.5-0.3-100.2-2.7c-4.7-0.5-14.3-1.4-21.3-2c-16.1-1.4-49.8-8-64.1-12.6
			c-11.5-3.7-15.7-5.6-24.6-11.1l-5.5-3.4L91.5,285.8z"/>
		
			<linearGradient id="region-2-5_00000141439180755420020740000014682053330554821295_" gradientUnits="userSpaceOnUse" x1="239.1275" y1="868.7983" x2="240.1355" y2="868.598" gradientTransform="matrix(315.497 0 0 75.3116 -75337.0391 -64934.2109)">
			<stop  offset="0" style="stop-color:#080808;stop-opacity:0.291"/>
			<stop  offset="1" style="stop-color:#909090;stop-opacity:0.824"/>
		</linearGradient>
		
			<path id="region-2-5_00000053506734928106119310000018079595951998036384_" style="fill:url(#region-2-5_00000141439180755420020740000014682053330554821295_);" d="
			M414.9,462.7c-5.8,5.6-11.8,11.1-13.4,12.3c-10.6,7.8-15.8,11.4-22,14.9c-7.4,4.1-25,12.4-26.5,12.4c-0.5,0-2.1,0.5-3.7,1.2
			c-1.5,0.6-3.2,1.2-3.8,1.3c-0.5,0.2-3.5,1-6.6,1.9c-5.1,1.5-19.2,4.1-27.9,5c-4.1,0.5-39.1,0.5-43.5,0.1c-1.6-0.2-4.6-0.6-6.5-0.9
			c-1.9-0.4-6-1-9-1.5s-6.7-1.2-8.1-1.6c-1.4-0.3-3.2-0.7-4-0.9c-0.8-0.2-2.7-0.8-4.3-1.5c-1.6-0.6-3.6-1.3-4.5-1.5
			c-0.9-0.2-2.5-0.6-3.6-1c-1.1-0.5-3.6-1.4-5.5-2.1c-11.9-4.4-34.1-17.2-43.8-25.2c-8.3-6.9-13.5-11.6-18.2-16.5l-5-5.3l-5.6,2.9
			c-6.5,3.4-13.9,11.3-15.5,16.6c-4.7,15.6,15.7,30.9,55.6,41.4c14.5,3.8,60.1,10.1,95.5,13.1c11.7,1,65.2-4.9,95.3-10.6
			c14-2.6,33.1-8.6,43.2-13.6c20-9.8,27.8-19.6,24.5-30.6c-1.5-5.1-10.5-14.2-17.6-17.8l-5.2-2.6L414.9,462.7z"/>
		
			<linearGradient id="region-2-6_00000011746376430842977450000012285072746989755789_" gradientUnits="userSpaceOnUse" x1="240.0383" y1="867.755" x2="240.0889" y2="869.7672" gradientTransform="matrix(540.0109 0 0 87.5494 -129332.625 -75487.9375)">
			<stop  offset="0" style="stop-color:#FFFFFF;stop-opacity:0.805"/>
			<stop  offset="1" style="stop-color:#FFFFFF;stop-opacity:0.799"/>
		</linearGradient>
		
			<path id="region-2-6_00000002375908328506115980000009494389737920792729_" style="fill:url(#region-2-6_00000011746376430842977450000012285072746989755789_);" d="
			M21,485c0,9.6,12.6,25.9,27.6,35.7c3.2,2.1,7.1,4.7,8.7,5.8c7.3,5,37.1,17.9,48.9,21.2c2.9,0.8,9.4,2.6,14.3,4
			c32.2,9.1,67.3,14.9,112.5,18.7c20.5,1.7,78.9,2.3,98.5,1c40.1-2.6,42.4-2.9,80.9-8.7c13-1.9,46.9-9.9,61.3-14.3
			c46.4-14.3,78.4-35.9,86.1-58c2-5.8,1.4-8.1-0.9-3.1c-5.4,11.8-14,21.1-28.4,30.4c-25.8,16.7-64.8,30.1-113.5,39
			c-77.3,14.1-174.7,14.1-252,0c-28.9-5.3-64.9-15.2-82-22.6c-31.1-13.4-50.5-28-58.3-43.7C22.6,486.4,21,483.9,21,485z"/>
	</g>
	<g id="layer-3_00000009577104634956364220000003950848137324710801_">
		
			<linearGradient id="region-3-1_00000043446148624052177740000010591770030904338579_" gradientUnits="userSpaceOnUse" x1="238.7522" y1="871.7832" x2="238.779" y2="873.1134" gradientTransform="matrix(142.7398 0 0 35.6682 -33791.332 -30881.4277)">
			<stop  offset="0" style="stop-color:#FFFFEE;stop-opacity:0.248"/>
			<stop  offset="1" style="stop-color:#FFFFEA;stop-opacity:0.17"/>
		</linearGradient>
		
			<path id="region-3-1_00000109026687190378173590000011055153591847319226_" style="fill:url(#region-3-1_00000043446148624052177740000010591770030904338579_);" d="
			M242.3,214.2c-20.1,0.6-21.4,0.7-23.4,2.8c-2,2-2.1,2.5-0.9,5.3c1.8,4.3,8.5,10.9,15.2,14.8c13.7,8.1,32.2,12.3,54.3,12.4
			c22.3,0.1,36.1-2.7,52.3-10.3c12.1-5.8,22.5-17.3,19.7-21.8c-0.3-0.6-2.3-1.5-4.3-2C350.6,214.2,271.1,213.3,242.3,214.2z"/>
		
			<linearGradient id="region-3-2_00000065073343765004459870000017297234717371226240_" gradientUnits="userSpaceOnUse" x1="233.7583" y1="866.967" x2="233.7583" y2="867.967" gradientTransform="matrix(36.934 0 0 123.1848 -8497.3711 -106527.625)">
			<stop  offset="0" style="stop-color:#ECECEC;stop-opacity:0.269"/>
			<stop  offset="1" style="stop-color:#F8F7F8;stop-opacity:0.461"/>
		</linearGradient>
		
			<path id="region-3-2_00000005244745737340023230000014134676280398531753_" style="fill:url(#region-3-2_00000065073343765004459870000017297234717371226240_);" d="
			M118.5,276.7c0.3,3.9,1.1,9.8,1.6,13.1c1.8,10.5,11.6,46.5,16.9,61.8c5.4,15.5,17.1,42.8,17.7,41c0.2-0.5-0.5-4.8-1.6-9.5
			c-5.3-22.7-7.1-42.5-7.1-79.5c0-27.1-0.1-28.2-2-28.8c-1-0.3-7.4-1.7-14-2.9l-12.2-2.4L118.5,276.7z"/>
	</g>
</g>
<linearGradient id="region-3-2_00000015315762558671044040000007871668917955253139_" gradientUnits="userSpaceOnUse" x1="283.2736" y1="866.9604" x2="283.2736" y2="867.9604" gradientTransform="matrix(36.934 0 0 123.1848 -8497.3711 -106527.625)">
	<stop  offset="0" style="stop-color:#ECECEC;stop-opacity:0.269"/>
	<stop  offset="1" style="stop-color:#F8F7F8;stop-opacity:0.461"/>
</linearGradient>
<path id="region-3-2_00000157267679448061770850000002573195946480950940_" style="fill:url(#region-3-2_00000015315762558671044040000007871668917955253139_);stroke:#000000;stroke-miterlimit:10;" d="
	M1947.3,275.9c0.3,3.9,1.1,9.8,1.6,13.1c1.8,10.5,11.6,46.5,16.9,61.8c5.4,15.5,17.1,42.8,17.7,41c0.2-0.5-0.5-4.8-1.6-9.5
	c-5.3-22.7-7.1-42.5-7.1-79.5c0-27.1-0.1-28.2-2-28.8c-1-0.3-7.4-1.7-14-2.9l-12.2-2.4L1947.3,275.9z"/>
</svg>
