<?xml version="1.0" standalone="no"?><!DOCTYPE svg PUBLIC "-//W3C//DTD SVG 20010904//EN" "http://www.w3.org/TR/2001/REC-SVG-20010904/DTD/svg10.dtd"><svg version="1.0" xmlns="http://www.w3.org/2000/svg" width="500pt" height="500pt" viewBox="0 0 500 500" preserveAspectRatio="xMidYMid meet"><defs><linearGradient id="linear-gradient-1-1" x1="0.00%" y1="100.00%" x2="105.32%" y2="5.96%"><stop offset="0%" style="stop-color:rgb(100,49,101);stop-opacity:0.991" /><stop offset="100%" style="stop-color:rgb(128,0,121);stop-opacity:0.991" /></linearGradient><linearGradient id="linear-gradient-2-1" x1="0.00%" y1="100.00%" x2="41.16%" y2="-20.16%"><stop offset="0%" style="stop-color:rgb(24,14,124);stop-opacity:0.674" /><stop offset="100%" style="stop-color:rgb(58,42,119);stop-opacity:0.659" /></linearGradient><linearGradient id="linear-gradient-2-2" x1="0.00%" y1="100.00%" x2="80.73%" y2="-13.68%"><stop offset="0%" style="stop-color:rgb(0,23,97);stop-opacity:0.412" /><stop offset="100%" style="stop-color:rgb(15,42,56);stop-opacity:0.550" /></linearGradient><linearGradient id="linear-gradient-3-1" x1="0.00%" y1="100.00%" x2="109.08%" y2="0.96%"><stop offset="0%" style="stop-color:rgb(254,0,5);stop-opacity:0.284" /><stop offset="100%" style="stop-color:rgb(252,0,248);stop-opacity:0.541" /></linearGradient><linearGradient id="linear-gradient-3-2" x1="0.00%" y1="100.00%" x2="0.00%" y2="0.00%"><stop offset="0%" style="stop-color:rgb(3,11,248);stop-opacity:0.244" /><stop offset="100%" style="stop-color:rgb(80,88,154);stop-opacity:0.368" /></linearGradient><linearGradient id="linear-gradient-4-1" x1="0.00%" y1="100.00%" x2="92.38%" y2="-6.61%"><stop offset="0%" style="stop-color:rgb(139,39,0);stop-opacity:0.147" /><stop offset="100%" style="stop-color:rgb(37,50,30);stop-opacity:0.476" /></linearGradient></defs><g id="layer-1"><path d="M0 2500 l0 -2500 2500 0 2500 0 0 2500 0 2500 -2500 0 -2500 0 0 -2500z" fill="url(#linear-gradient-1-1)" id="region-1-1" transform="translate(0.000000,500.000000) scale(0.100000,-0.100000)"/></g><g id="layer-2"><path d="M4094 4459 c-168 -15 -309 -83 -434 -209 -143 -143 -211 -304 -211 -505 0 -201 68 -362 211 -505 143 -143 304 -211 505 -211 201 0 362 68 505 211 143 143 211 304 211 505 0 201 -68 362 -211 505 -158 159 -351 229 -576 209z" fill="url(#linear-gradient-2-1)" id="region-2-1" transform="translate(0.000000,500.000000) scale(0.100000,-0.100000)"/><path d="M1159 2448 c-533 -38 -980 -486 -1017 -1020 -24 -340 89 -650 323 -883 234 -235 544 -348 886 -323 532 38 978 484 1017 1016 25 342 -88 653 -323 887 -234 235 -544 348 -886 323z" fill="url(#linear-gradient-2-2)" id="region-2-2" transform="translate(0.000000,500.000000) scale(0.100000,-0.100000)"/></g><g id="layer-3"><path d="M530 4900 c0 -3 -97 -1076 -215 -2385 -118 -1309 -215 -2382 -215 -2385 1 -3 7 6 14 20 31 57 1449 3256 1449 3270 0 8 -228 341 -507 740 -485 692 -526 750 -526 740z" fill="url(#linear-gradient-3-1)" id="region-3-1" transform="translate(0.000000,500.000000) scale(0.100000,-0.100000)"/><path d="M1830 2780 l0 -1940 720 0 720 0 0 1940 0 1940 -720 0 -720 0 0 -1940z" fill="url(#linear-gradient-3-2)" id="region-3-2" transform="translate(0.000000,500.000000) scale(0.100000,-0.100000)"/></g><g id="layer-4"><path d="M3664 2929 c-479 -34 -888 -442 -922 -922 -23 -316 78 -598 293 -812 214 -215 496 -316 812 -293 480 34 887 441 921 921 23 316 -78 598 -293 812 -213 214 -495 316 -811 294z" fill="url(#linear-gradient-4-1)" id="region-4-1" transform="translate(0.000000,500.000000) scale(0.100000,-0.100000)"/></g></svg>