<?xml version="1.0" encoding="utf-8"?>
<!-- Generator: Adobe Illustrator 26.2.1, SVG Export Plug-In . SVG Version: 6.00 Build 0)  -->
<svg version="1.1" xmlns="http://www.w3.org/2000/svg" xmlns:xlink="http://www.w3.org/1999/xlink" x="0px" y="0px"
	 viewBox="0 0 2500 500" style="enable-background:new 0 0 2500 500;" xml:space="preserve">
<style type="text/css">
	.st0{fill:none;}
	.st1{fill:#D3D3D3;}
	.st2{fill:url(#SVGID_1_);}
	.st3{fill:url(#region-1-1_00000029752082594667951020000016502348036518801312_);}
	.st4{fill:url(#region-2-1_00000029011987867697847030000006748083319158377874_);}
	.st5{fill:url(#region-2-2_00000000186038938638106500000010161302161885333636_);}
	.st6{fill:url(#region-3-1_00000034067867963628175630000007266609818495368877_);}
	.st7{fill:url(#region-3-2_00000065764924059400576740000009989904664833870726_);}
	.st8{fill:url(#region-4-1_00000087382839662118702450000013552397647114228135_);}
	.st9{fill:url(#region-1-1_00000170973036439269959130000012322173882471530420_);}
	
		.st10{fill:url(#region-2-1_00000021098780926615315620000016168079937393933462_);stroke:#000000;stroke-width:2;stroke-miterlimit:10;}
	
		.st11{fill:url(#region-2-2_00000067205679555949713210000011545623188649506469_);stroke:#000000;stroke-width:2;stroke-miterlimit:10;}
	
		.st12{fill:url(#region-3-1_00000028320026746713986990000006489215298605694372_);stroke:#000000;stroke-width:2;stroke-miterlimit:10;}
	
		.st13{fill:url(#region-3-2_00000144320680137528771650000000551377013993647032_);stroke:#000000;stroke-width:2;stroke-miterlimit:10;}
	
		.st14{fill:url(#region-4-1_00000037694759769537618360000006748976686260703365_);stroke:#000000;stroke-width:2;stroke-miterlimit:10;}
	.st15{fill:none;stroke:#000000;stroke-width:3;stroke-miterlimit:10;}
</style>
<pattern  x="1000" y="500" width="40" height="40" patternUnits="userSpaceOnUse" id="a2ed1d96-aebd-4bf9-a4b3-645f1ac" viewBox="0 -40 40 40" style="overflow:visible;">
	<g>
		<rect y="-40" class="st0" width="40" height="40"/>
		<rect y="-40" class="st0" width="40" height="40"/>
		<rect y="-40" class="st1" width="20" height="20"/>
		<rect x="20" y="-20" class="st1" width="20" height="20"/>
	</g>
</pattern>
<g id="图层_2">
	<pattern  id="SVGID_1_" xlink:href="#a2ed1d96-aebd-4bf9-a4b3-645f1ac" patternTransform="matrix(1 0 0 1 -48 550.24)">
	</pattern>
	<rect y="0" class="st2" width="2500" height="500"/>
</g>
<g id="图层_1">
	<g id="layer-1">
		
			<linearGradient id="region-1-1_00000087403700071804363950000016658109106806076297_" gradientUnits="userSpaceOnUse" x1="290.3914" y1="790.6078" x2="291.4446" y2="791.5482" gradientTransform="matrix(500 0 0 500 -145209 -395289)">
			<stop  offset="0" style="stop-color:#643165;stop-opacity:0.991"/>
			<stop  offset="1" style="stop-color:#800079;stop-opacity:0.991"/>
		</linearGradient>
		<path id="region-1-1" style="fill:url(#region-1-1_00000087403700071804363950000016658109106806076297_);" d="M0,250v250h250h250
			V250V0H250H0V250z"/>
	</g>
	<g id="layer-2">
		
			<linearGradient id="region-2-1_00000143619700780260977150000000344355785859754419_" gradientUnits="userSpaceOnUse" x1="289.2619" y1="791.9155" x2="289.6736" y2="793.1171" gradientTransform="matrix(143.2 0 0 143.3335 -41035.3008 -113468.6562)">
			<stop  offset="0" style="stop-color:#180E7C;stop-opacity:0.674"/>
			<stop  offset="1" style="stop-color:#3A2A77;stop-opacity:0.659"/>
		</linearGradient>
		<path id="region-2-1" style="fill:url(#region-2-1_00000143619700780260977150000000344355785859754419_);" d="M409.4,54.1
			c-16.8,1.5-30.9,8.3-43.4,20.9c-14.3,14.3-21.1,30.4-21.1,50.5s6.8,36.2,21.1,50.5c14.3,14.3,30.4,21.1,50.5,21.1
			s36.2-6.8,50.5-21.1c14.3-14.3,21.1-30.4,21.1-50.5S481.3,89.3,467,75C451.2,59.1,431.9,52.1,409.4,54.1z"/>
		
			<linearGradient id="region-2-2_00000132809778407469094500000015525784523116065437_" gradientUnits="userSpaceOnUse" x1="289.7929" y1="791.226" x2="290.6002" y2="792.3627" gradientTransform="matrix(223.2573 0 0 223.2817 -64662.9844 -176426.7188)">
			<stop  offset="0" style="stop-color:#001761;stop-opacity:0.412"/>
			<stop  offset="1" style="stop-color:#0F2A38;stop-opacity:0.55"/>
		</linearGradient>
		<path id="region-2-2" style="fill:url(#region-2-2_00000132809778407469094500000015525784523116065437_);" d="M115.9,255.2
			c-53.3,3.8-98,48.6-101.7,102c-2.4,34,8.9,65,32.3,88.3c23.4,23.5,54.4,34.8,88.6,32.3c53.2-3.8,97.8-48.4,101.7-101.6
			c2.5-34.2-8.8-65.3-32.3-88.7C181.1,264,150.1,252.7,115.9,255.2z"/>
	</g>
	<g id="layer-3">
		
			<linearGradient id="region-3-1_00000057140938922051089820000009119881169962924420_" gradientUnits="userSpaceOnUse" x1="288.9108" y1="790.7159" x2="290.0016" y2="791.7063" gradientTransform="matrix(146.3 0 0 477.1521 -42272.3008 -377229.2188)">
			<stop  offset="0" style="stop-color:#FE0005;stop-opacity:0.284"/>
			<stop  offset="1" style="stop-color:#FC00F8;stop-opacity:0.541"/>
		</linearGradient>
		<path id="region-3-1" style="fill:url(#region-3-1_00000057140938922051089820000009119881169962924420_);" d="M53,10
			c0,0.3-9.7,107.6-21.5,238.5S10,486.7,10,487c0.1,0.3,0.7-0.6,1.4-2c3.1-5.7,144.9-325.6,144.9-327c0-0.8-22.8-34.1-50.7-74
			C57.1,14.8,53,9,53,10z"/>
		
			<linearGradient id="region-3-2_00000127044969292480663540000008470777864875812512_" gradientUnits="userSpaceOnUse" x1="289.4792" y1="790.7449" x2="289.4792" y2="791.7449" gradientTransform="matrix(144 0 0 388 -41430 -306781)">
			<stop  offset="0" style="stop-color:#030BF8;stop-opacity:0.244"/>
			<stop  offset="1" style="stop-color:#50589A;stop-opacity:0.368"/>
		</linearGradient>
		<path id="region-3-2" style="fill:url(#region-3-2_00000127044969292480663540000008470777864875812512_);" d="M183,222v194h72h72
			V222V28h-72h-72V222z"/>
	</g>
	<g id="layer-4">
		
			<linearGradient id="region-4-1_00000093884797132426492880000017507982156739968169_" gradientUnits="userSpaceOnUse" x1="289.6062" y1="791.3885" x2="290.53" y2="792.4546" gradientTransform="matrix(203.2415 0 0 203.3144 -58578.4062 -160700.5312)">
			<stop  offset="0" style="stop-color:#8B2700;stop-opacity:0.147"/>
			<stop  offset="1" style="stop-color:#25321E;stop-opacity:0.476"/>
		</linearGradient>
		<path id="region-4-1" style="fill:url(#region-4-1_00000093884797132426492880000017507982156739968169_);" d="M366.4,207.1
			c-47.9,3.4-88.8,44.2-92.2,92.2c-2.3,31.6,7.8,59.8,29.3,81.2c21.4,21.5,49.6,31.6,81.2,29.3c48-3.4,88.7-44.1,92.1-92.1
			c2.3-31.6-7.8-59.8-29.3-81.2C426.2,215.1,398,204.9,366.4,207.1z"/>
	</g>
</g>
<g id="图层_3">
	<g id="layer-1_00000170990201167121393100000007311386773904892562_">
		
			<linearGradient id="region-1-1_00000163032678772049288780000010907573454868435584_" gradientUnits="userSpaceOnUse" x1="291.3934" y1="790.6088" x2="292.4466" y2="791.5492" gradientTransform="matrix(500 0 0 500 -145209 -395289)">
			<stop  offset="0" style="stop-color:#643165;stop-opacity:0.991"/>
			<stop  offset="1" style="stop-color:#800079;stop-opacity:0.991"/>
		</linearGradient>
		
			<path id="region-1-1_00000092450128794176658750000017555912284678704257_" style="fill:url(#region-1-1_00000163032678772049288780000010907573454868435584_);" d="
			M501,250.5v250h250h250v-250V0.5H751H501V250.5z"/>
	</g>
	<g id="layer-2_00000163795428510206895350000013710065918855705986_">
		
			<linearGradient id="region-2-1_00000134226653139170283720000002298992358936343732_" gradientUnits="userSpaceOnUse" x1="296.2003" y1="791.919" x2="296.6118" y2="793.1206" gradientTransform="matrix(143.2 0 0 143.3335 -41035.3008 -113468.6562)">
			<stop  offset="0" style="stop-color:#180E7C;stop-opacity:0.674"/>
			<stop  offset="1" style="stop-color:#3A2A77;stop-opacity:0.659"/>
		</linearGradient>
		
			<path id="region-2-1_00000128458143529223852630000006943882517133387140_" style="fill:url(#region-2-1_00000134226653139170283720000002298992358936343732_);stroke:#000000;stroke-width:2;stroke-miterlimit:10;" d="
			M1403,54.6c-16.8,1.5-30.9,8.3-43.4,20.9c-14.3,14.3-21.1,30.4-21.1,50.5s6.8,36.2,21.1,50.5c14.3,14.3,30.4,21.1,50.5,21.1
			c20.1,0,36.2-6.8,50.5-21.1c14.3-14.3,21.1-30.4,21.1-50.5s-6.8-36.2-21.1-50.5C1444.8,59.6,1425.5,52.6,1403,54.6z"/>
		
			<linearGradient id="region-2-2_00000051371128977706357210000011945039861609063585_" gradientUnits="userSpaceOnUse" x1="294.2432" y1="791.2281" x2="295.0505" y2="792.365" gradientTransform="matrix(223.2573 0 0 223.2817 -64662.9844 -176426.7188)">
			<stop  offset="0" style="stop-color:#001761;stop-opacity:0.412"/>
			<stop  offset="1" style="stop-color:#0F2A38;stop-opacity:0.55"/>
		</linearGradient>
		
			<path id="region-2-2_00000013152297784229818210000004879208630069553559_" style="fill:url(#region-2-2_00000051371128977706357210000011945039861609063585_);stroke:#000000;stroke-width:2;stroke-miterlimit:10;" d="
			M1109.5,255.7c-53.3,3.8-98,48.6-101.7,102c-2.4,34,8.9,65,32.3,88.3c23.4,23.5,54.4,34.8,88.6,32.3
			c53.2-3.8,97.8-48.4,101.7-101.6c2.5-34.2-8.8-65.3-32.3-88.7C1174.7,264.5,1143.7,253.2,1109.5,255.7z"/>
	</g>
	<g id="layer-3_00000134211434157893782870000004550262733914534079_">
		
			<linearGradient id="region-3-1_00000150801772935364825390000015635743152004459181_" gradientUnits="userSpaceOnUse" x1="299.2097" y1="790.717" x2="300.3005" y2="791.7074" gradientTransform="matrix(146.3 0 0 477.1521 -42272.3008 -377229.2188)">
			<stop  offset="0" style="stop-color:#FE0005;stop-opacity:0.284"/>
			<stop  offset="1" style="stop-color:#FC00F8;stop-opacity:0.541"/>
		</linearGradient>
		
			<path id="region-3-1_00000097460378372646016140000012112251022030849699_" style="fill:url(#region-3-1_00000150801772935364825390000015635743152004459181_);stroke:#000000;stroke-width:2;stroke-miterlimit:10;" d="
			M1559.7,10.5c0,0.3-9.7,107.6-21.5,238.5c-11.8,130.9-21.5,238.2-21.5,238.5c0.1,0.3,0.7-0.6,1.4-2c3.1-5.7,144.9-325.6,144.9-327
			c0-0.8-22.8-34.1-50.7-74C1563.8,15.3,1559.7,9.5,1559.7,10.5z"/>
		
			<linearGradient id="region-3-2_00000029753977848015488740000007651979474674581665_" gradientUnits="userSpaceOnUse" x1="299.9426" y1="790.7462" x2="299.9426" y2="791.7462" gradientTransform="matrix(144 0 0 388 -41430 -306781)">
			<stop  offset="0" style="stop-color:#030BF8;stop-opacity:0.244"/>
			<stop  offset="1" style="stop-color:#50589A;stop-opacity:0.368"/>
		</linearGradient>
		
			<path id="region-3-2_00000151502049629520966910000008121211529766732941_" style="fill:url(#region-3-2_00000029753977848015488740000007651979474674581665_);stroke:#000000;stroke-width:2;stroke-miterlimit:10;" d="
			M1689.7,222.5v194h72h72v-194v-194h-72h-72V222.5z"/>
	</g>
	<g id="layer-4_00000010295484553581561870000011371408532392682922_">
		
			<linearGradient id="region-4-1_00000098196223317876080270000014377948270408451248_" gradientUnits="userSpaceOnUse" x1="299.2765" y1="791.3909" x2="300.2003" y2="792.457" gradientTransform="matrix(203.2415 0 0 203.3144 -58578.4062 -160700.5312)">
			<stop  offset="0" style="stop-color:#8B2700;stop-opacity:0.147"/>
			<stop  offset="1" style="stop-color:#25321E;stop-opacity:0.476"/>
		</linearGradient>
		
			<path id="region-4-1_00000103977298708462521100000006736135772908100224_" style="fill:url(#region-4-1_00000098196223317876080270000014377948270408451248_);stroke:#000000;stroke-width:2;stroke-miterlimit:10;" d="
			M2331.8,207.6c-47.9,3.4-88.8,44.2-92.2,92.2c-2.3,31.6,7.8,59.8,29.3,81.2c21.4,21.5,49.6,31.6,81.2,29.3
			c48-3.4,88.7-44.1,92.1-92.1c2.3-31.6-7.8-59.8-29.3-81.2C2391.6,215.6,2363.4,205.4,2331.8,207.6z"/>
	</g>
	<line class="st15" x1="501" y1="0.5" x2="501" y2="500.5"/>
	<line class="st15" x1="1001" y1="0.5" x2="1001" y2="500.5"/>
	<line class="st15" x1="1500" y1="0.5" x2="1500" y2="500.5"/>
	<line class="st15" x1="2000" y1="0" x2="2000" y2="500"/>
</g>
</svg>
