<?xml version="1.0" encoding="utf-8"?>
<!-- Generator: Adobe Illustrator 26.0.0, SVG Export Plug-In . SVG Version: 6.00 Build 0)  -->
<svg version="1.1" id="图层_1" xmlns="http://www.w3.org/2000/svg" xmlns:xlink="http://www.w3.org/1999/xlink" x="0px" y="0px"
	 viewBox="0 0 1581 315.1" style="enable-background:new 0 0 1581 315.1;" xml:space="preserve">
<style type="text/css">
	.st0{fill:none;}
	.st1{fill:#D3D3D3;}
	.st2{fill:url(#SVGID_1_);}
	.st3{fill:none;stroke:#231815;stroke-width:2.53;stroke-miterlimit:10;}
	.st4{fill:url(#SVGID_00000132058703420430149720000006032059975835690141_);}
	.st5{fill:url(#ac0c42c2-8d86-4117-ab14-16e85a53fcaf_00000139995198722983695890000012799641285652072105_);}
	.st6{fill:url(#a4a1cf87-dcfe-4a02-adde-e6fc6bdd8a08_00000139291583847271680260000005751879728735963794_);}
	.st7{fill:url(#e42c4722-f83f-44fd-a1e0-e2afc6c38416_00000076586476329085686370000005701569909113513356_);}
	.st8{fill:url(#e6c9a54f-1c3c-4290-bf72-ab57378db43e_00000137109266774780708330000015131010483558781883_);}
	.st9{fill:url(#a0f40b10-2594-4204-ab94-3aaaa942d9e6_00000182505645995466190990000007890999742919392659_);}
	.st10{fill:url(#f3dd9532-2fa0-4907-a21f-8a43e790d84c_00000121275212879176065140000006659003375178259636_);}
	.st11{fill:url(#a02c98f9-d77c-4072-8b75-3efc9794953f_00000119821532225907351740000008627286518583244965_);}
	
		.st12{fill:url(#f84f7ee2-f6ff-45fd-88af-838b91046ae5_00000002348390567958691930000008436563093699111582_);stroke:#000000;stroke-width:0.5;stroke-miterlimit:10;}
	
		.st13{fill:url(#b182ad74-2623-4efd-b33d-6965fe397d3b_00000139279447991071852530000003244776807226093745_);stroke:#000000;stroke-width:0.5;stroke-miterlimit:10;}
	
		.st14{fill:url(#f1d3b45e-1a1d-41e6-8f69-829ccc8bd29a_00000020382464153378210950000008227092580580084660_);stroke:#000000;stroke-width:0.5;stroke-miterlimit:10;}
	
		.st15{fill:url(#a37f9c96-ce9d-4eea-9a63-b2264c7ad243_00000174572483073885293380000012883271133851320724_);stroke:#000000;stroke-width:0.5;stroke-miterlimit:10;}
	
		.st16{fill:url(#baad11b2-e6e8-43c4-a437-4d8cbfc9934d_00000156563102077387714540000000895284545414528436_);stroke:#000000;stroke-width:0.5;stroke-miterlimit:10;}
</style>
<pattern  y="315.1" width="40" height="40" patternUnits="userSpaceOnUse" id="acf93787-d505-415e-bb47-53fd9e0" viewBox="0 -40 40 40" style="overflow:visible;">
	<g>
		<rect y="-40" class="st0" width="40" height="40"/>
		<rect y="-40" class="st0" width="40" height="40"/>
		<rect y="-40" class="st1" width="20" height="20"/>
		<rect x="20" y="-20" class="st1" width="20" height="20"/>
	</g>
</pattern>
<pattern  y="315.1" width="40" height="40" patternUnits="userSpaceOnUse" id="e9ed49b1-1a53-4acb-af01-cc6ab3a" viewBox="0 -40 40 40" style="overflow:visible;">
	<g>
		<rect y="-40" class="st0" width="40" height="40"/>
		<rect y="-40" class="st0" width="40" height="40"/>
		<rect y="-40" class="st0" width="40" height="40"/>
		<rect y="-40" class="st1" width="20" height="20"/>
		<rect x="20" y="-20" class="st1" width="20" height="20"/>
	</g>
</pattern>
<g id="abb2008f-e26c-4361-bc3b-f3efa07446a4">
	<rect x="0.1" y="-0.9" class="st0" width="1580.8" height="316"/>
	
		<pattern  id="SVGID_1_" xlink:href="#e9ed49b1-1a53-4acb-af01-cc6ab3a" patternTransform="matrix(1 0 0 1 17111.0703 -15193.2305)">
	</pattern>
	<rect x="0.1" y="1.1" class="st2" width="1580.9" height="314"/>
	<line class="st3" x1="315.4" y1="0" x2="315.4" y2="315.1"/>
	<line class="st3" x1="632.5" y1="0" x2="632.5" y2="315.1"/>
	<line class="st3" x1="947.9" y1="-1" x2="947.9" y2="315.1"/>
	<line class="st3" x1="1264.6" y1="0" x2="1264.6" y2="315.1"/>
</g>
<g id="a5ec8d65-0a82-44cc-8418-2919413aa08b">
	
		<pattern  id="SVGID_00000141433549276982642000000011195075300556683925_" xlink:href="#acf93787-d505-415e-bb47-53fd9e0" patternTransform="matrix(1 0 0 1 38 41.85)">
	</pattern>
	<rect y="1.1" style="fill:url(#SVGID_00000141433549276982642000000011195075300556683925_);" width="314" height="314"/>
	<g id="b53322b9-d5bc-4051-9a06-2de8b19cd15b">
		
			<linearGradient id="ac0c42c2-8d86-4117-ab14-16e85a53fcaf_00000126293281055632872950000013698172359221023906_" gradientUnits="userSpaceOnUse" x1="42.0254" y1="-342.3263" x2="42.4354" y2="-341.6963" gradientTransform="matrix(500 0 0 500 -20958 171164.1406)">
			<stop  offset="0" style="stop-color:#484548;stop-opacity:0.99"/>
			<stop  offset="1" style="stop-color:#1F1E1E;stop-opacity:0.99"/>
		</linearGradient>
		
			<path id="ac0c42c2-8d86-4117-ab14-16e85a53fcaf" style="fill:url(#ac0c42c2-8d86-4117-ab14-16e85a53fcaf_00000126293281055632872950000013698172359221023906_);" d="
			M0,1.1h314v314H0V1.1z"/>
	</g>
	<g id="acdc5e21-f181-48e3-810a-72fd7d918abd">
		
			<linearGradient id="a4a1cf87-dcfe-4a02-adde-e6fc6bdd8a08_00000029028105367726530770000013057468065701469833_" gradientUnits="userSpaceOnUse" x1="42.4895" y1="-341.9554" x2="41.8595" y2="-341.8553" gradientTransform="matrix(406.47 0 0 409.63 -16988.6309 140211.6875)">
			<stop  offset="0" style="stop-color:#FFFAFB;stop-opacity:0.74"/>
			<stop  offset="1" style="stop-color:#FDFDFF;stop-opacity:0.82"/>
		</linearGradient>
		
			<path id="a4a1cf87-dcfe-4a02-adde-e6fc6bdd8a08" style="fill:url(#a4a1cf87-dcfe-4a02-adde-e6fc6bdd8a08_00000029028105367726530770000013057468065701469833_);" d="
			M150.1,34.4c33.2,6.9,33.2,6.9,47,7.9c7.4,0.5,14.4,0.9,15.7,0.9c4.1-0.1,17.2,1.2,24.5,2.5c12.2,2.1,19.1,6.6,25.9,17
			c3.4,5.6,5.8,11.9,6.8,18.4c0.7,4.2,0.4,15.4-0.6,25.9c-0.7,7.2-0.5,25.9,0.3,31.1c0.1,0.8,0.4,3.9,0.6,6.8
			c0.5,6.7,1.5,11.4,4.9,25.5c1.5,6.2,3.1,13.3,3.5,15.7s1,6.5,1.4,9.1c0.9,6.1,1.3,18.9,0.6,22.9c-1.2,7.7-5.5,18.3-9.4,23.6
			c-3.7,5-11.2,11.6-16.1,14c-4.2,2.1-16.8,6.4-23.1,8c-10.2,2.5-20.3,5.7-30,9.8c-11.7,4.8-23.6,8.9-35.7,12.4
			c-6.5,1.7-8.4,2-18.7,2.2c-9.3,0.2-12.3,0.1-16.3-0.8c-14.3-3.2-22.8-9.2-31.9-22.9c-5.2-7.8-16.7-19.7-25.1-25.9
			c-3.1-2.3-9.3-6.4-13.7-9c-18.6-11-27.2-22.3-32.9-43.3c-1.3-4.8-1.6-7.5-1.9-18.1c-0.6-23.1,1.4-36.4,7.4-50.3
			c0.6-1.4,1.7-3.8,2.3-5.4c4.1-9.6,19.1-25.4,36.7-38.7c12.2-9.2,21.3-18.3,28.6-28.5c5.2-7.3,6.7-8.8,11.4-11.2
			C120.4,29.7,127.8,29.8,150.1,34.4"/>
	</g>
	<g id="eee9ab8c-cc81-42f5-8166-f5ef1d6001d9">
		
			<linearGradient id="e42c4722-f83f-44fd-a1e0-e2afc6c38416_00000108276460586735398890000007179222710975850634_" gradientUnits="userSpaceOnUse" x1="41.8584" y1="-342.0194" x2="42.3584" y2="-341.3894" gradientTransform="matrix(281.24 0 0 314.03 -11708.5898 107433.3516)">
			<stop  offset="0" style="stop-color:#FBF8FB;stop-opacity:0.74"/>
			<stop  offset="1" style="stop-color:#EEE6F0;stop-opacity:0.82"/>
		</linearGradient>
		
			<path id="e42c4722-f83f-44fd-a1e0-e2afc6c38416" style="fill:url(#e42c4722-f83f-44fd-a1e0-e2afc6c38416_00000108276460586735398890000007179222710975850634_);" d="
			M136,42.9c9.5,4.3,17.1,6.3,35.2,9.4c4.8,0.8,13,2.3,18.2,3.4c11,2.2,16.2,3.1,22.3,4.2c11,1.8-5,2.1-23.6,0.4
			c-6.9-0.6-18.2-1.2-25.1-1.2c-10.9-0.1-13.2,0.1-17.3,1.2c-2.6,0.7-5.6,1.5-6.6,1.7c-1.7,0.5-3.3,1.2-4.8,2.2
			c-2.2,1.2-4.6,2.2-7,3c-3,0.9-5.7,2.4-8,4.5c-1.4,1.1-2.7,2.3-3.8,3.6c-0.8,1.2-1.7,2.4-2.8,3.4c-2,2.1-3.5,3.1-5.3,3.5
			c-0.9,0.3-1.9,0.4-2.9,0.2c-0.2-0.2-0.3,0-0.3,0.5s-0.2,0.7-0.5,0.2c-0.7-1.1-6,0.5-13.5,4.1c-5.2,2.4-7.5,4-10.8,7.3
			c-4.9,4.8-6.5,7-6.5,9c0,0.8-0.3,1.3-0.6,1.1s-0.6,0.2-0.6,1.1c-0.3,2-0.9,4-1.6,5.8c-0.8,2.2-1.4,4.5-1.9,6.9
			c-0.2,2-4.8,12.4-5.9,13.5c-0.2,0.3-0.4,0.6-0.4,0.9c0,0.3-0.7,2.6-1.4,5.1c-1.2,3.9-1.7,6.6-2.9,14.4c-0.2,1-0.3,7.3-0.4,13.8
			c-0.1,9.1,0.2,12.9,0.9,16c0.6,2.2,1.2,5.2,1.4,6.6c0.2,2.2,0.8,4.4,1.9,6.4c0.3,1,0.9,1.9,1.6,2.7c0.7,0.8,1.2,1.7,1.5,2.7
			c0.8,1.7,1.8,3.4,3,4.9c0.7,0.8,1.3,1.7,1.8,2.7c0,0.6,2,3,2.6,3s7.5,6.9,7.5,7.4c0.6,0.8,1.4,1.5,2.4,2
			c5.4,3.7,10.6,7.7,15.4,12.2c3.2,3,3.6,3.8,3.1,4.9c-0.6,1.3-0.6,1.3-2.6-0.5c-2.6-2.3-15-12.1-17.8-14c-1.2-0.8-2.5-1.8-2.9-2.2
			s-1.7-1.4-2.8-2.2c-5.2-3.8-19.3-18.8-17.8-18.9c0.3,0,0.2-0.2-0.2-0.5c-1.1-0.7-5.2-7.4-7.1-11.6c-1-2.1-2.4-5.3-3.2-7
			c-2.4-5.3-3.1-7.8-4.8-17.2c-0.9-5.1-1.7-9.8-1.9-10.5c-0.6-2.8-0.8-8.5-0.3-8.5c0.3,0,0.5-1.8,0.4-3.9c-0.1-1.7,0-3.5,0.5-5.2
			c0.4-0.8,0.6-1.6,0.8-2.5c0.3-2.5,1.1-5.3,1.5-5.3c0.3,0,0.7-1.1,0.9-2.5s0.8-2.7,1.4-2.9s0.7-0.5,0.3-0.8
			c-0.8-0.5,3.5-9.1,7.2-14.2c2.5-3.5,11.5-12.7,28.2-28.7c3.4-3.3,10.2-10,15.1-15c18.4-18.8,18-18.4,21-19.1c1.1-0.2,2-0.7,2-1.1
			s0.2-0.5,0.3-0.3s2-0.2,3.9-0.8C127,40.4,131.2,40.7,136,42.9"/>
		
			<linearGradient id="e6c9a54f-1c3c-4290-bf72-ab57378db43e_00000123406929004271761100000017390343983011348636_" gradientUnits="userSpaceOnUse" x1="41.8604" y1="-341.5537" x2="41.8604" y2="-340.9337" gradientTransform="matrix(211.45 0 0 195.27 -8693.8203 66795.5859)">
			<stop  offset="0" style="stop-color:#E8B700;stop-opacity:0.8"/>
			<stop  offset="1" style="stop-color:#CC5F00;stop-opacity:0.84"/>
		</linearGradient>
		
			<path id="e6c9a54f-1c3c-4290-bf72-ab57378db43e" style="fill:url(#e6c9a54f-1c3c-4290-bf72-ab57378db43e_00000123406929004271761100000017390343983011348636_);" d="
			M175.5,101.8c9.2,2.6,17.9,7,25.5,12.8c10.3,8.3,18.4,20.8,21.4,33.1c2,9.1,2,18.5,0,27.6c-4.8,19.2-20.7,36.9-39,43.3
			c-4.1,1.4-7.8,2.2-16,3.5c-4.2,0.6-18.6,0.4-19.7-0.2c-1.3-0.4-2.6-0.7-3.9-0.9c-1.9-0.3-4.1-0.8-5-1s-2.4-0.5-3.4-0.7
			c-0.9-0.1-1.8-0.5-2.6-0.9c-0.4-0.3-0.9-0.4-1-0.3s-2-0.4-4-1.2s-4.1-1.7-4.6-1.9c-0.8-0.3-1.5-0.7-2.2-1.2
			c-11.3-7.1-15.8-11.8-20.7-21.2c-1.4-2.8-2.9-5.4-4.6-8c-0.6-0.5-0.9-1.3-0.8-2.1c-0.2-0.7-0.4-1.4-0.7-2.1
			c-0.4-1.1-0.8-2.3-1-3.4c-0.1-0.9-0.7-3.3-1.3-5.5c-1.4-5.4-0.9-18.7,1-25.3c5.8-20.2,21.5-36.2,42.3-43.1c8.3-2.8,13-3.4,24-3.2
			C167.7,100.1,170.4,100.5,175.5,101.8"/>
		
			<linearGradient id="a0f40b10-2594-4204-ab94-3aaaa942d9e6_00000080920138418866748410000004060695545212096184_" gradientUnits="userSpaceOnUse" x1="42.2363" y1="-340.0752" x2="41.6063" y2="-340.0752" gradientTransform="matrix(211.63 0 0 94.45 -8735.6807 32318.7363)">
			<stop  offset="0" style="stop-color:#945A07;stop-opacity:0.5"/>
			<stop  offset="1" style="stop-color:#280000;stop-opacity:8.000000e-02"/>
		</linearGradient>
		
			<path id="a0f40b10-2594-4204-ab94-3aaaa942d9e6" style="fill:url(#a0f40b10-2594-4204-ab94-3aaaa942d9e6_00000080920138418866748410000004060695545212096184_);" d="
			M92.1,171.9c0.4,1.5,0.8,3.1,1.1,4.7c0.2,1.3,0.5,2.6,1,3.8c0.3,0.7,0.5,1.3,0.7,2.1c-0.2,0.8,0.1,1.6,0.8,2.1
			c1.7,2.6,3.2,5.2,4.6,8c2.7,5.2,4.8,8.2,7.5,11c3.4,3.4,10.3,8.8,12.9,9.9c0.6,0.3,1.3,0.6,1.9,1c1.9,1.2,9,3.9,9.3,3.5
			s0.6-0.1,1,0.3c0.8,0.5,1.7,0.8,2.6,0.9c1,0.2,2.6,0.5,3.4,0.7s3.1,0.6,5,1c1.3,0.2,2.6,0.5,3.9,0.9c1.1,0.7,15.5,0.9,19.7,0.2
			c12.1-1.8,17.2-3.3,24.5-7.2l5.3-2.9c4.4-2.4,4.9-2.5,5.2-1.1c0.2,0.9-0.2,1.8-1,2.3c-0.7,0.6-2.2,1.8-3.2,2.7
			c-4,3.4-16.5,8.9-24.9,10.9c-8.7,2.2-25.2,1.7-33.6-1c-1-0.3-5.6-1.6-10-2.8c-12.3-3.3-23.1-7.8-29.2-12.1
			c-14.5-10.3-25.1-19.9-29.2-26.2c-2.7-4.3-2.3-5.3,2.1-5.3c5.2,0,7.7-1.1,11.4-5c1.9-2,3.8-4.1,4.3-4.7
			C90.3,168.2,91.2,168.8,92.1,171.9"/>
	</g>
	<g id="b55cfff4-cdce-4599-9fa8-df7fba2556c7">
		
			<linearGradient id="f3dd9532-2fa0-4907-a21f-8a43e790d84c_00000143615945335792326350000000676734730033173694_" gradientUnits="userSpaceOnUse" x1="40.9523" y1="-339.6744" x2="40.9523" y2="-339.0444" gradientTransform="matrix(93.48 0 0 81.86 -3654.9202 27927.1094)">
			<stop  offset="0" style="stop-color:#FDE1A7;stop-opacity:0.65"/>
			<stop  offset="1" style="stop-color:#FCE6D1;stop-opacity:0.81"/>
		</linearGradient>
		
			<path id="f3dd9532-2fa0-4907-a21f-8a43e790d84c" style="fill:url(#f3dd9532-2fa0-4907-a21f-8a43e790d84c_00000143615945335792326350000000676734730033173694_);" d="
			M169.5,118.6c2.5,0.8,4.9,1.8,7.1,3.1c1.1,0.7,2.2,1.4,3.4,1.9c1.9,0,22.1,17.3,22.6,19.3c0.3,1.1-0.6,2.5-4.5,6.8
			c-5.5,6.1-16.9,16.9-19.4,18.4c-1.6,1-1.7,0.9-3.8-1.5c-1.1-1.2-2-2.6-2.8-4.1c-1.1-1.6-2.4-2.9-4-4c-1.8-1.3-4.6-3.4-6.1-4.7
			l-6.1-5c-1.2-0.9-2.4-1.9-3.3-3.1c-0.1-0.6-6-5.8-7.7-6.8c-1.5-0.9-0.9-2.5,2-5.6c1.3-1.4,3.9-4.3,5.8-6.6c6.7-8,8.3-9.4,10.6-9.4
			C165.3,117.4,167.4,117.9,169.5,118.6"/>
	</g>
	<g id="a23ce1e9-e650-4a84-a41c-998c354be21c">
		
			<linearGradient id="a02c98f9-d77c-4072-8b75-3efc9794953f_00000007408371322186116930000008375230592786115766_" gradientUnits="userSpaceOnUse" x1="42.6582" y1="-342.3282" x2="43.0682" y2="-341.6982" gradientTransform="matrix(500 0 0 500 -20958 171164.1406)">
			<stop  offset="0" style="stop-color:#484548;stop-opacity:0.99"/>
			<stop  offset="1" style="stop-color:#1F1E1E;stop-opacity:0.99"/>
		</linearGradient>
		
			<path id="a02c98f9-d77c-4072-8b75-3efc9794953f" style="fill:url(#a02c98f9-d77c-4072-8b75-3efc9794953f_00000007408371322186116930000008375230592786115766_);" d="
			M317,1.1h314v314H317V1.1z"/>
	</g>
	<g id="b8491b8a-c6c1-4ba6-8f09-ee6e657a04e7">
		
			<linearGradient id="f84f7ee2-f6ff-45fd-88af-838b91046ae5_00000094586041333032835600000010475156831590515857_" gradientUnits="userSpaceOnUse" x1="44.0599" y1="-341.953" x2="43.4299" y2="-341.853" gradientTransform="matrix(406.47 0 0 409.63 -16988.6309 140211.6875)">
			<stop  offset="0" style="stop-color:#FFFAFB;stop-opacity:0.74"/>
			<stop  offset="1" style="stop-color:#FDFDFF;stop-opacity:0.82"/>
		</linearGradient>
		
			<path id="f84f7ee2-f6ff-45fd-88af-838b91046ae5" style="fill:url(#f84f7ee2-f6ff-45fd-88af-838b91046ae5_00000094586041333032835600000010475156831590515857_);stroke:#000000;stroke-width:0.5;stroke-miterlimit:10;" d="
			M788.1,35.4c33.2,6.9,33.2,6.9,47,7.9c7.4,0.5,14.5,0.9,15.7,0.9c4.1-0.1,17.2,1.2,24.5,2.5c12.2,2.1,19.1,6.6,25.9,17
			c3.4,5.6,5.8,11.9,6.8,18.4c0.7,4.2,0.4,15.4-0.6,25.9c-0.7,7.2-0.5,25.9,0.3,31.1c0.1,0.8,0.4,3.9,0.7,6.8
			c0.5,6.7,1.5,11.4,4.9,25.5c1.5,6.2,3.1,13.3,3.5,15.7s1,6.5,1.4,9.1c0.9,6.1,1.3,18.9,0.6,22.9c-1.2,7.7-5.5,18.3-9.4,23.6
			c-3.7,5-11.2,11.6-16.1,14c-4.2,2.1-16.8,6.4-23.1,8c-10.2,2.5-20.3,5.7-30,9.8c-11.7,4.8-23.6,8.9-35.7,12.4
			c-6.5,1.7-8.4,2-18.7,2.2c-9.3,0.2-12.3,0.1-16.3-0.8c-14.3-3.2-22.8-9.2-31.9-22.9c-5.2-7.8-16.7-19.7-25.1-25.9
			c-3.1-2.3-9.3-6.4-13.7-9c-18.6-11-27.2-22.3-32.9-43.3c-1.3-4.8-1.6-7.5-1.9-18.1c-0.6-23.1,1.3-36.4,7.4-50.3
			c0.6-1.4,1.7-3.8,2.3-5.4c4.1-9.6,19.1-25.4,36.7-38.7c12.2-9.2,21.3-18.3,28.6-28.5c5.2-7.3,6.7-8.8,11.4-11.2
			C758.4,30.7,765.8,30.8,788.1,35.4"/>
	</g>
	<g id="e16cdfe3-2dd7-4fde-924c-84a7e78f2ca0">
		
			<linearGradient id="b182ad74-2623-4efd-b33d-6965fe397d3b_00000033330632300973234370000014911226304069446804_" gradientUnits="userSpaceOnUse" x1="45.2865" y1="-342.0081" x2="45.7765" y2="-341.3781" gradientTransform="matrix(281.24 0 0 314.03 -11708.5898 107433.3516)">
			<stop  offset="0" style="stop-color:#FBF8FB;stop-opacity:0.74"/>
			<stop  offset="1" style="stop-color:#EEE6F0;stop-opacity:0.82"/>
		</linearGradient>
		
			<path id="b182ad74-2623-4efd-b33d-6965fe397d3b" style="fill:url(#b182ad74-2623-4efd-b33d-6965fe397d3b_00000033330632300973234370000014911226304069446804_);stroke:#000000;stroke-width:0.5;stroke-miterlimit:10;" d="
			M1099,46.9c9.5,4.3,17.1,6.3,35.2,9.4c4.8,0.8,13,2.3,18.2,3.4c11,2.2,16.2,3.1,22.3,4.2c11,1.8-5,2.1-23.6,0.4
			c-6.9-0.6-18.2-1.2-25.1-1.2c-10.9-0.1-13.2,0.1-17.3,1.2c-2.6,0.7-5.6,1.5-6.6,1.7c-1.7,0.5-3.3,1.2-4.8,2.2
			c-2.2,1.2-4.6,2.2-7,3c-3,0.9-5.7,2.4-8,4.5c-1.4,1.1-2.7,2.3-3.8,3.6c-0.8,1.2-1.7,2.4-2.8,3.4c-2,2.1-3.5,3.1-5.3,3.5
			c-0.9,0.3-1.9,0.4-2.9,0.2c-0.2-0.2-0.3,0-0.3,0.5s-0.2,0.7-0.5,0.2c-0.7-1.1-6,0.5-13.5,4.1c-5.2,2.4-7.5,4-10.8,7.3
			c-4.9,4.8-6.5,7-6.5,9c0,0.8-0.3,1.3-0.6,1.1s-0.6,0.2-0.6,1.1c-0.3,2-0.9,4-1.6,5.8c-0.8,2.2-1.4,4.5-1.9,6.9
			c-0.2,2-4.8,12.4-5.9,13.5c-0.2,0.3-0.4,0.6-0.4,0.9c0,0.3-0.7,2.6-1.4,5.1c-1.2,3.9-1.7,6.6-2.9,14.4c-0.2,1-0.3,7.3-0.4,13.8
			c-0.1,9.1,0.2,12.9,0.9,16c0.6,2.2,1.2,5.2,1.4,6.6c0.2,2.2,0.8,4.4,1.9,6.4c0.3,1,0.9,1.9,1.6,2.7c0.7,0.8,1.2,1.7,1.6,2.7
			c0.8,1.7,1.8,3.4,3,4.9c0.7,0.8,1.3,1.7,1.8,2.7c0,0.6,2,3,2.6,3s7.5,6.9,7.5,7.4c0.6,0.8,1.4,1.5,2.4,2
			c5.4,3.7,10.6,7.7,15.4,12.2c3.2,3,3.6,3.8,3.1,4.9c-0.6,1.3-0.6,1.3-2.6-0.5c-2.6-2.3-15-12.1-17.8-14c-1.2-0.8-2.5-1.8-2.9-2.2
			s-1.7-1.4-2.8-2.2c-5.2-3.8-19.3-18.8-17.8-18.9c0.3,0,0.2-0.2-0.2-0.5c-1.1-0.7-5.2-7.4-7.1-11.6c-1-2.1-2.4-5.3-3.2-7
			c-2.4-5.3-3.1-7.8-4.8-17.2c-0.9-5.1-1.7-9.8-1.9-10.5c-0.6-2.8-0.8-8.5-0.3-8.5c0.3,0,0.5-1.8,0.4-3.9c-0.1-1.7,0-3.5,0.5-5.2
			c0.4-0.8,0.6-1.6,0.8-2.5c0.3-2.5,1.1-5.3,1.5-5.3c0.3,0,0.7-1.1,0.9-2.5s0.8-2.7,1.4-2.9s0.7-0.5,0.3-0.8
			c-0.8-0.5,3.5-9.1,7.2-14.2c2.5-3.5,11.5-12.7,28.2-28.7c3.4-3.3,10.2-10,15.1-15c18.4-18.8,18-18.4,21-19.1c1.1-0.2,2-0.7,2-1.1
			s0.2-0.5,0.3-0.3s1.9-0.2,3.9-0.8C1090,44.4,1094.2,44.7,1099,46.9"/>
		
			<linearGradient id="f1d3b45e-1a1d-41e6-8f69-829ccc8bd29a_00000136404494432677318390000001915268299762913437_" gradientUnits="userSpaceOnUse" x1="46.4145" y1="-341.5337" x2="46.4145" y2="-340.9137" gradientTransform="matrix(211.45 0 0 195.27 -8693.8203 66795.5859)">
			<stop  offset="0" style="stop-color:#E8B700;stop-opacity:0.8"/>
			<stop  offset="1" style="stop-color:#CC5F00;stop-opacity:0.84"/>
		</linearGradient>
		
			<path id="f1d3b45e-1a1d-41e6-8f69-829ccc8bd29a" style="fill:url(#f1d3b45e-1a1d-41e6-8f69-829ccc8bd29a_00000136404494432677318390000001915268299762913437_);stroke:#000000;stroke-width:0.5;stroke-miterlimit:10;" d="
			M1138.5,105.8c9.2,2.6,17.9,7,25.5,12.8c10.3,8.3,18.4,20.8,21.4,33.1c2,9.1,2,18.5,0,27.6c-4.8,19.2-20.7,36.9-39,43.3
			c-4.1,1.4-7.8,2.2-16.1,3.5c-4.2,0.6-18.6,0.4-19.7-0.2c-1.3-0.4-2.6-0.7-3.9-0.9c-1.9-0.3-4.1-0.8-5-1s-2.4-0.5-3.4-0.7
			c-0.9-0.1-1.8-0.5-2.6-0.9c-0.4-0.3-0.9-0.4-1-0.3s-2-0.4-4-1.2s-4.1-1.7-4.6-1.9c-0.8-0.3-1.5-0.7-2.2-1.2
			c-11.3-7.1-15.8-11.8-20.7-21.2c-1.4-2.8-2.9-5.4-4.6-8c-0.6-0.5-0.9-1.4-0.8-2.2c-0.2-0.7-0.4-1.4-0.7-2c-0.4-1.1-0.8-2.3-1-3.4
			c-0.1-0.9-0.7-3.3-1.3-5.5c-1.4-5.4-0.9-18.7,1-25.3c5.8-20.2,21.5-36.2,42.3-43.1c8.3-2.8,13-3.4,24-3.2
			C1130.6,104.2,1133.3,104.5,1138.5,105.8"/>
		
			<linearGradient id="a37f9c96-ce9d-4eea-9a63-b2264c7ad243_00000137134494943269457810000001554704358224479923_" gradientUnits="userSpaceOnUse" x1="46.7871" y1="-340.0391" x2="46.1571" y2="-340.0291" gradientTransform="matrix(211.63 0 0 94.45 -8735.6807 32318.7363)">
			<stop  offset="0" style="stop-color:#945A07;stop-opacity:0.5"/>
			<stop  offset="1" style="stop-color:#280000;stop-opacity:8.000000e-02"/>
		</linearGradient>
		
			<path id="a37f9c96-ce9d-4eea-9a63-b2264c7ad243" style="fill:url(#a37f9c96-ce9d-4eea-9a63-b2264c7ad243_00000137134494943269457810000001554704358224479923_);stroke:#000000;stroke-width:0.5;stroke-miterlimit:10;" d="
			M1055.1,175.9c0.4,1.5,0.8,3.1,1.1,4.7c0.2,1.3,0.5,2.6,1,3.8c0.3,0.6,0.5,1.3,0.7,2c-0.2,0.8,0.1,1.6,0.8,2.2
			c1.7,2.6,3.2,5.2,4.6,8c2.7,5.2,4.8,8.2,7.5,11c3.4,3.4,10.3,8.8,12.9,9.9c0.6,0.3,1.3,0.6,1.9,1c1.9,1.2,9,3.9,9.3,3.5
			s0.7-0.1,1,0.3c0.8,0.5,1.7,0.8,2.6,0.9c1,0.2,2.6,0.5,3.4,0.7s3.1,0.6,5,1c1.3,0.2,2.6,0.5,3.9,0.9c1.1,0.7,15.5,0.9,19.7,0.2
			c12.1-1.8,17.2-3.3,24.5-7.2l5.3-2.9c4.4-2.4,4.9-2.5,5.2-1.1c0.2,0.9-0.2,1.8-1,2.3c-0.7,0.6-2.2,1.8-3.2,2.7
			c-4,3.4-16.5,8.9-24.9,10.9c-8.7,2.2-25.2,1.7-33.6-1c-1-0.3-5.6-1.6-10-2.8c-12.3-3.3-23.1-7.8-29.2-12.1
			c-14.5-10.3-25.1-19.9-29.2-26.2c-2.7-4.3-2.3-5.3,2.1-5.3c5.2,0,7.7-1.1,11.4-5c1.9-2,3.8-4.1,4.3-4.7
			C1053.3,172.2,1054.1,172.8,1055.1,175.9"/>
	</g>
	<g id="ffe475b0-cbc3-4259-93ff-7ba9b23f3316">
		
			<linearGradient id="baad11b2-e6e8-43c4-a437-4d8cbfc9934d_00000111899074971996065570000007510379741014779278_" gradientUnits="userSpaceOnUse" x1="54.4525" y1="-339.7344" x2="54.4525" y2="-339.1044" gradientTransform="matrix(93.48 0 0 81.86 -3654.9202 27927.1094)">
			<stop  offset="0" style="stop-color:#FDE1A7;stop-opacity:0.65"/>
			<stop  offset="1" style="stop-color:#FCE6D1;stop-opacity:0.81"/>
		</linearGradient>
		
			<path id="baad11b2-e6e8-43c4-a437-4d8cbfc9934d" style="fill:url(#baad11b2-e6e8-43c4-a437-4d8cbfc9934d_00000111899074971996065570000007510379741014779278_);stroke:#000000;stroke-width:0.5;stroke-miterlimit:10;" d="
			M1431.5,113.6c2.5,0.8,4.9,1.8,7.2,3.1c1.1,0.7,2.2,1.4,3.4,1.9c1.8,0,22.1,17.3,22.6,19.3c0.3,1.1-0.6,2.5-4.5,6.8
			c-5.5,6.1-16.9,16.9-19.4,18.4c-1.6,1-1.7,0.9-3.8-1.5c-1.1-1.2-2-2.6-2.8-4.1c-1.1-1.6-2.4-2.9-4-4c-1.8-1.3-4.6-3.4-6.2-4.7
			l-6.2-5c-1.2-0.9-2.4-1.9-3.3-3.1c-0.1-0.6-6-5.8-7.7-6.8c-1.5-0.9-0.9-2.5,2-5.6c1.3-1.4,3.9-4.3,5.8-6.6c6.7-8,8.3-9.4,10.6-9.4
			C1427.3,112.4,1429.4,112.9,1431.5,113.6"/>
	</g>
</g>
</svg>
