<?xml version="1.0" encoding="utf-8"?>
<!-- Generator: Adobe Illustrator 26.5.0, SVG Export Plug-In . SVG Version: 6.00 Build 0)  -->
<svg version="1.1" id="图层_1" xmlns="http://www.w3.org/2000/svg" xmlns:xlink="http://www.w3.org/1999/xlink" x="0px" y="0px"
	 viewBox="0 0 1655.9 600.5" style="enable-background:new 0 0 1655.9 600.5;" xml:space="preserve">
<style type="text/css">
	.st0{fill:none;}
	.st1{fill:#D3D3D3;}
	.st2{fill:url(#SVGID_1_);}
	.st3{fill:url(#b7b96b6c-5c2b-4e7c-aa1c-2e4af7e797dc_00000137107112632775194820000004055054171979034273_);}
	.st4{fill:url(#ad90ec8c-a6b6-4dc5-9fc1-36625f2564b4_00000044179894600510120580000010395930438796407695_);}
	.st5{fill:url(#f201cf51-2cac-4db2-afda-bc6617d1ca9a_00000003106187699219805810000004294713488458746559_);}
	.st6{fill:url(#efb45b82-e2c6-48f0-81c7-159253f6f5db_00000139257570984305270280000010020507605296016311_);}
	.st7{fill:url(#f2357d65-0960-40fc-a160-881f18eef648_00000116203493164642965500000015032072819621213097_);}
	.st8{fill:url(#fdf18679-4335-403d-8571-465335ac02bb_00000131328540438937803510000005902278508993824645_);}
	.st9{fill:url(#fd048d73-0de7-4bf7-89f4-229bfb0d64db_00000013872203595490836640000014234422715295564733_);}
	.st10{fill:url(#a8c86492-d287-4557-89bb-03d7dbb9de61_00000150819058391870800210000010838549689792255130_);}
	.st11{fill:url(#a7182062-32b5-49ec-9231-8a73021dc9bd_00000005945417993270563810000008566565618930855322_);}
	.st12{fill:url(#ed3a48f4-1199-438f-900a-89b55e855cf6_00000109708390731780289400000014157535018403789730_);}
	.st13{fill:url(#faed2749-e916-4b03-89ca-ddeb4e41aa94_00000048484716553988869610000017733120924137170102_);}
	.st14{fill:url(#a289a1de-49d6-4be5-a53f-c77117161fc0_00000183229900864366162820000018117293076688552068_);}
	.st15{fill:url(#a9c0362f-ea47-4537-9e19-e59c5990968d_00000088855922958275561300000012599481439339426211_);}
	.st16{fill:url(#a2e778ba-753b-423c-a3a0-4598e25c0dfc_00000047751264092066600690000013552817283170455709_);}
	.st17{fill:url(#a4db8394-af19-4628-868d-7c917ebc6838_00000042704398557943963210000009872132426783743632_);}
	.st18{fill:url(#b750a388-9956-4950-931e-cf363d15cb91_00000053533488613100128840000001868958255689455793_);}
	.st19{fill:url(#a4db7274-ce30-4bd8-b77d-fc1031b96fd2_00000170277075241482211490000002994061179756951685_);}
	.st20{fill:url(#a1f59669-58f6-40cf-bfbe-fba9f6aa55de_00000057838023799247189650000013078655147850833814_);}
	.st21{fill:url(#f2ea46cc-ce99-4bb4-be40-2050f4983ca0_00000169558256791130666280000001257945083772134538_);}
	.st22{fill:url(#b0136245-e698-4c36-9cd8-26655c2c621b_00000109014114406864989370000013423942201059336843_);}
	.st23{fill:url(#SVGID_00000158708787525771139120000017721278430240378556_);}
	.st24{fill:url(#a797cb6f-5b67-47ba-87bc-0dc532858921_00000092428901526979227850000004485996339986726795_);}
	.st25{fill:url(#a76e7142-72fd-4f3e-b7bd-1049ce3dba1c_00000062159599113151498610000000118404271879528118_);}
	.st26{fill:url(#e0446de5-59d3-47f0-9e7d-7e51f8c7c389_00000174590908789497358890000005407912544334065341_);}
	.st27{fill:url(#bae5fe1b-d703-4f51-87bd-a515fb2611c3_00000178919979286103248730000015893306601413476537_);}
	.st28{fill:url(#f9b98080-a2d1-42f7-b324-0fe95a55bb88_00000091697621295638730040000011003539900595389316_);}
	.st29{fill:url(#a24ebd79-021a-48b7-8ecc-acbf1e7602d5_00000108306985941974361840000015070914830518650512_);}
	.st30{fill:url(#SVGID_00000038380720096979029480000016717507689949574307_);}
	.st31{fill:url(#a9f3bc26-571b-4d8a-a65c-88c1011d60c3_00000064341559010446033290000001677858822131019705_);}
	.st32{fill:url(#e772eb92-83da-42cc-bf78-afaa93a5fca4_00000097496136273261758960000016272763822559805338_);}
	.st33{fill:url(#a8a9c1d0-0785-4997-b62c-7ad4bdac4a29_00000031916549309755746280000015244258911028450447_);}
	
		.st34{fill:url(#bc8a3d14-1647-4243-99df-b08ebe27b518_00000174584474067417157870000012408566297544122277_);stroke:#000000;stroke-miterlimit:10;}
	
		.st35{fill:url(#abed88f4-56ff-4e73-b136-12719142d054_00000142869374126426435420000003649653662635591324_);stroke:#000000;stroke-miterlimit:10;}
	
		.st36{fill:url(#a889f96c-3547-4d70-abef-ef3bec8a9ecb_00000053539126615110348180000002020286579202418854_);stroke:#000000;stroke-miterlimit:10;}
	.st37{fill:url(#fcbf95d1-d689-484c-9ce9-dc9fd9d5d1e4_00000041267924427725183300000011841378939994125989_);}
	.st38{fill:url(#a8312c54-6c2e-49f3-a9a6-96743e64950b_00000127751102625571077110000008509477517764543138_);}
	
		.st39{fill:url(#f000108f-772f-4182-a7d7-a04c17ac7a43_00000096031388776414344200000017036020605683668917_);stroke:#000000;stroke-miterlimit:10;}
	.st40{fill:url(#bb56c3ac-2600-47eb-9d70-2bd0eab58572_00000000181591722174376540000016179429119186858893_);}
	
		.st41{fill:url(#abe4ca0f-902e-4ad6-b349-d82c04b49bd5_00000107583261023009979220000011991795528685029011_);stroke:#000000;stroke-miterlimit:10;}
	
		.st42{fill:url(#b4267cf7-8d10-4e4d-837e-b2771c81e18d_00000003082453662737266460000009689870431167409820_);stroke:#000000;stroke-miterlimit:10;}
	.st43{fill:url(#SVGID_00000111909235877029449040000003292813639755116947_);}
	
		.st44{fill:url(#b72b2136-ff50-4a72-a2ce-a33491f2ea97_00000093147179739262558410000000074641737205608087_);stroke:#000000;stroke-miterlimit:10;}
	
		.st45{fill:url(#e27ea2cc-ae4a-4b04-a844-936f8d650a40_00000145057315122085992270000003560814951001230474_);stroke:#000000;stroke-miterlimit:10;}
	.st46{fill:none;stroke:#000000;stroke-width:4;stroke-miterlimit:10;}
</style>
<pattern  y="600.5" width="40" height="40" patternUnits="userSpaceOnUse" id="a6049764-78b7-4a4e-9f16-306115d" viewBox="0 -40 40 40" style="overflow:visible;">
	<g>
		<rect y="-40" class="st0" width="40" height="40"/>
		<rect y="-40" class="st0" width="40" height="40"/>
		<rect y="-40" class="st1" width="20" height="20"/>
		<rect x="20" y="-20" class="st1" width="20" height="20"/>
	</g>
</pattern>
<g id="ea30b01c-3b13-4eeb-92a3-92e3fe54370a">
	<pattern  id="SVGID_1_" xlink:href="#a6049764-78b7-4a4e-9f16-306115d" patternTransform="matrix(1 0 0 1 73.92 328)">
	</pattern>
	<rect x="414" y="0.1" class="st2" width="0" height="600"/>
	<g id="f790675f-419f-4bb8-9393-341233805e92">
		
			<linearGradient id="b7b96b6c-5c2b-4e7c-aa1c-2e4af7e797dc_00000180340123308481357550000015525769677048999297_" gradientUnits="userSpaceOnUse" x1="-744.8101" y1="168.0774" x2="-743.8101" y2="168.4474" gradientTransform="matrix(16.79 0 0 27.82 12702.7109 -4646.3003)">
			<stop  offset="0" style="stop-color:#897253"/>
			<stop  offset="1" style="stop-color:#7E6747"/>
		</linearGradient>
		
			<path id="b7b96b6c-5c2b-4e7c-aa1c-2e4af7e797dc" style="fill:url(#b7b96b6c-5c2b-4e7c-aa1c-2e4af7e797dc_00000180340123308481357550000015525769677048999297_);" d="
			M205.9,23.1c0.4,0.3,1.7,3.1,3,6.2s2.9,6.2,3.7,6.9c1.9,1.6,1.8,4.5-0.3,8c-1.5,2.6-2.3,2.9-6.6,2.9c-3.8,0-5.3-0.5-6.8-2.2
			c-2.4-2.9-2.4-4.9,0-9.7c1.2-2.5,2.1-5.2,2.6-8c0.4-2.3,1-4.1,1.5-4.1s0.9-1,1-2.2c0.1-2,0.2-2.1,0.6-0.2
			C204.9,21.5,205.3,22.3,205.9,23.1"/>
		
			<linearGradient id="ad90ec8c-a6b6-4dc5-9fc1-36625f2564b4_00000047749723293125842720000011774822391613305763_" gradientUnits="userSpaceOnUse" x1="-788.9554" y1="163.7697" x2="-789.4654" y2="162.7697" gradientTransform="matrix(334.67 0 0 221.06 264304.5312 -35922.7148)">
			<stop  offset="0" style="stop-color:#E8E3DC;stop-opacity:0.99"/>
			<stop  offset="1" style="stop-color:#DBCEB9;stop-opacity:0.99"/>
		</linearGradient>
		
			<path id="ad90ec8c-a6b6-4dc5-9fc1-36625f2564b4" style="fill:url(#ad90ec8c-a6b6-4dc5-9fc1-36625f2564b4_00000047749723293125842720000011774822391613305763_);" d="
			M278,49.4c9.1,0.9,18,1.9,19.9,2.2c4,0.7,8.1,5,8.1,8.5c0,1.4,3,10.2,6.6,19.5c12.7,32.7,30.4,84.1,49.5,143.5
			c5,15.7,9.6,28.9,10.1,29.4s0.9,3.3,0.9,6.2v5.2l-5.8,1.1c-15.9,3.1-26.5,3.3-171.3,3.5c-157.3,0.1-153.2,0.2-156.6-4.9
			c-1.5-2.3-1.5-2.7,0.4-5.9c1.1-1.9,4.6-11.7,7.7-21.8c16-51.9,34.1-104.9,51-149.3c4.2-11,8.1-22,8.7-24.5c2.1-9.2,4.3-10,34.5-13
			c16.1-1.6,26-1.8,69.3-1.6C248.5,47.7,265.8,48.2,278,49.4"/>
		
			<linearGradient id="f201cf51-2cac-4db2-afda-bc6617d1ca9a_00000062158126952591556520000010592596656934114704_" gradientUnits="userSpaceOnUse" x1="-782.8429" y1="167.7541" x2="-782.7129" y2="168.7541" gradientTransform="matrix(91 0 0 27.96 71440.9219 -4421.3799)">
			<stop  offset="0" style="stop-color:#AA8357"/>
			<stop  offset="1" style="stop-color:#A2774A"/>
		</linearGradient>
		
			<path id="f201cf51-2cac-4db2-afda-bc6617d1ca9a" style="fill:url(#f201cf51-2cac-4db2-afda-bc6617d1ca9a_00000062158126952591556520000010592596656934114704_);" d="
			M252,271.5c0,1.4-0.4,2.7-1,3.1s-1,5.1-1,11c0,9.9-0.1,10.4-2.2,10.9c-2.9,0.8-79.6,0.8-82.5,0c-2.1-0.6-2.2-1-2.2-11.4
			c0-6.1-0.4-11.1-1-11.5c-0.7-0.7-1.1-1.6-1-2.6c0-1.9,1.1-1.9,45.5-1.9H252V271.5"/>
		
			<linearGradient id="efb45b82-e2c6-48f0-81c7-159253f6f5db_00000177471938442907814450000010065576605293522090_" gradientUnits="userSpaceOnUse" x1="-781.5032" y1="164.2604" x2="-781.4532" y2="165.2604" gradientTransform="matrix(79.2 0 0 71.32 62100.0273 -11417.1406)">
			<stop  offset="0" style="stop-color:#514334"/>
			<stop  offset="1" style="stop-color:#332516"/>
		</linearGradient>
		
			<path id="efb45b82-e2c6-48f0-81c7-159253f6f5db" style="fill:url(#efb45b82-e2c6-48f0-81c7-159253f6f5db_00000177471938442907814450000010065576605293522090_);" d="
			M245.5,320l0.7,22.9l-2.7,4.1c-1.5,2.3-3.1,4.1-3.5,4.1s-1.8,1.4-3,3.1c-2.1,2.9-2.1,3.2-0.6,4.4c3.6,2.7,0.6,5.7-7.3,7.3
			c-13.2,2.6-25.5,3.2-36.3,1.7c-17.3-2.4-21.9-4.8-15.8-8.3c3.3-1.9,4-3.2,1.7-3.2c-0.9-0.1-1.6-0.6-1.9-1.4
			c-0.3-0.8-2.1-2-3.9-2.6c-5-1.8-5.7-5.8-5.7-32.5v-22.5h77.8L245.5,320"/>
		
			<linearGradient id="f2357d65-0960-40fc-a160-881f18eef648_00000057134446650452352450000012976117960786825906_" gradientUnits="userSpaceOnUse" x1="-787.6042" y1="162.8824" x2="-786.6042" y2="163.7124" gradientTransform="matrix(180.11 0 0 200.41 141973.0156 -32278.3086)">
			<stop  offset="0" style="stop-color:#63594E;stop-opacity:0.99"/>
			<stop  offset="1" style="stop-color:#281604;stop-opacity:0.99"/>
		</linearGradient>
		
			<path id="f2357d65-0960-40fc-a160-881f18eef648" style="fill:url(#f2357d65-0960-40fc-a160-881f18eef648_00000057134446650452352450000012976117960786825906_);" d="
			M253.2,352.6c3.2,1.3,6.2,2.9,9.1,4.9c1.9,1.4,3.9,2.6,4.5,2.6c2.7,0,12.3,5.1,16.1,8.6c8.7,7.8,12.7,20.8,13.6,43.8
			c0.5,12.5,0.3,15.9-1,19.6c-0.7,1.9-1.3,3.9-1.6,5.9c0,1.7-8.5,18.7-15.6,31.1c-10.6,18.6-17,32.4-18.3,39.1
			c-1.2,6-1.1,7.3,0.8,14.3c1.2,4.2,2.8,9.3,3.6,11.2c3.3,7.9,1.5,9.2-17.8,12.8c-16.1,3-52.8,4.5-66.7,2.6c-24.9-3.3-32-5.1-32-8.1
			c0-1,1.1-4.8,2.5-8.5c6.2-16.6,4-26.3-15-64.5c-16.8-33.8-18.8-40.1-18.8-58.5c0-20,3.8-32.7,12-40.8c5.2-5,20.5-13.2,31.4-16.8
			c6.6-2.2,6.9-2.2,11.3-0.5c2.5,1,4.8,2.4,5.1,3.1c0.3,0.8,1.1,1.3,1.9,1.4c2.3,0,1.6,1.4-1.7,3.2c-6.1,3.5-1.5,5.8,15.8,8.3
			c10.8,1.5,23.1,0.9,36.3-1.7c7.6-1.5,11.8-5.5,7.5-7.1c-2.3-0.9-1.8-2.2,2-6.1s4.6-4,14.6,0"/>
		
			<linearGradient id="fdf18679-4335-403d-8571-465335ac02bb_00000154408586769790864400000005323627872062684821_" gradientUnits="userSpaceOnUse" x1="-787.6367" y1="166.9283" x2="-784.4368" y2="165.9283" gradientTransform="matrix(144.66 0 0 40.71 113911.3359 -6217.4502)">
			<stop  offset="0" style="stop-color:#FFFFE1;stop-opacity:0.99"/>
			<stop  offset="1" style="stop-color:#69320C"/>
		</linearGradient>
		
			<path id="fdf18679-4335-403d-8571-465335ac02bb" style="fill:url(#fdf18679-4335-403d-8571-465335ac02bb_00000154408586769790864400000005323627872062684821_);" d="
			M148,541c0,3.2,6.7,4.9,32,8.2c13.9,1.8,50.6,0.4,66.7-2.6c13.4-2.5,19.2-4.6,19.3-6.8c0.1-2.4,3,2.7,3,5.2c0,1.9,0.9,3.1,3.7,4.6
			c4.2,2.3,5,4.4,5.2,12.7c0.1,6.8-0.8,7.9-8.5,10.8c-24.2,9.1-102.6,9-127.6-0.1c-8.6-3.1-9.2-4.2-8.2-13.6l0.9-7.8l4.2-2
			c3.6-1.7,4.2-2.4,4.2-5c0-3.2,1.5-5.5,3.7-5.5C147.4,539.1,148,539.9,148,541"/>
	</g>
	<g id="e04bcc57-c1c4-48a1-bbee-f1cf48a347e5">
		
			<linearGradient id="fd048d73-0de7-4bf7-89f4-229bfb0d64db_00000062193170320825598580000002161492410836677022_" gradientUnits="userSpaceOnUse" x1="-787.4583" y1="172.1303" x2="-787.5983" y2="171.1303" gradientTransform="matrix(198.94 0 0 17.64 156873.5938 -2969.51)">
			<stop  offset="0" style="stop-color:#7F4103;stop-opacity:0.54"/>
			<stop  offset="1" style="stop-color:#7C430D;stop-opacity:0.5"/>
		</linearGradient>
		
			<path id="fd048d73-0de7-4bf7-89f4-229bfb0d64db" style="fill:url(#fd048d73-0de7-4bf7-89f4-229bfb0d64db_00000062193170320825598580000002161492410836677022_);" d="
			M278,49.4c21.9,2.2,22.8,2.3,25.6,5.5c2.3,2.6,3.3,8.2,1.5,8.2c-0.5,0-11.2-1-23.8-2.2c-20.4-2-28.6-2.2-75.8-2.2
			c-55.7,0-72,0.8-89,4.5c-4.9,1.1-9.1,1.9-9.4,1.9s-0.1-1.7,0.3-3.8c1.5-8.2,4.4-9.3,34.2-12.2c16.1-1.6,26-1.8,69.3-1.6
			C248.5,47.7,265.7,48.2,278,49.4"/>
		
			<linearGradient id="a8c86492-d287-4557-89bb-03d7dbb9de61_00000082356175620852729890000012430553646569468095_" gradientUnits="userSpaceOnUse" x1="-789.1649" y1="173.1637" x2="-789.0549" y2="174.1637" gradientTransform="matrix(334.62 0 0 14.42 264263.6875 -2242.4502)">
			<stop  offset="0" style="stop-color:#A05409;stop-opacity:0.37"/>
			<stop  offset="1" style="stop-color:#994E03;stop-opacity:0.41"/>
		</linearGradient>
		
			<path id="a8c86492-d287-4557-89bb-03d7dbb9de61" style="fill:url(#a8c86492-d287-4557-89bb-03d7dbb9de61_00000082356175620852729890000012430553646569468095_);" d="
			M373,259v4.9l-5.8,1.1c-15.9,3.1-26.5,3.3-171.3,3.5c-157.1,0.1-153.2,0.2-156.6-4.9c-1.4-2.1-1.4-2.7-0.2-5l1.4-2.7h130.9
			c72,0,140.6-0.3,152.4-0.7s27.7-0.8,35.2-0.9l13.8-0.2L373,259"/>
		
			<linearGradient id="a7182062-32b5-49ec-9231-8a73021dc9bd_00000148631300659717369410000017281950170539451581_" gradientUnits="userSpaceOnUse" x1="-773.1989" y1="171.102" x2="-773.2389" y2="170.102" gradientTransform="matrix(43.35 0 0 19.87 33726.3477 -3101.8506)">
			<stop  offset="0" style="stop-color:#FFFACB;stop-opacity:0.83"/>
			<stop  offset="1" style="stop-color:#FFF1C2;stop-opacity:0.8"/>
		</linearGradient>
		
			<path id="a7182062-32b5-49ec-9231-8a73021dc9bd" style="fill:url(#a7182062-32b5-49ec-9231-8a73021dc9bd_00000148631300659717369410000017281950170539451581_);" d="
			M203,277.8c1.5,1,2.8,2.2,4,3.6c1.6,1.9,5,1.5,5-0.5c0-2.9,3.4-4.7,8.6-4.7h5.3l0.6,3.8c0.3,2.1,1.2,6.4,2,9.7s1.3,6.1,1.1,6.3
			s-10,0.2-21.8,0l-21.5-0.3l2.1-8.3c1.3-5.2,2.8-8.9,4-9.8C195,275.5,200,275.7,203,277.8"/>
		
			<linearGradient id="ed3a48f4-1199-438f-900a-89b55e855cf6_00000129912434515384608440000009597545170081408685_" gradientUnits="userSpaceOnUse" x1="-632.5807" y1="173.8195" x2="-633.5807" y2="174.1895" gradientTransform="matrix(5 0 0 14 3362.9199 -2131)">
			<stop  offset="0" style="stop-color:#FFFFF9;stop-opacity:0.7"/>
			<stop  offset="1" style="stop-color:#FCFCF6;stop-opacity:0.68"/>
		</linearGradient>
		
			<path id="ed3a48f4-1199-438f-900a-89b55e855cf6" style="fill:url(#ed3a48f4-1199-438f-900a-89b55e855cf6_00000129912434515384608440000009597545170081408685_);" d="
			M200,305.1c0,6.8-0.1,7-2.5,7s-2.5-0.2-2.5-7s0.1-7,2.5-7S200,298.3,200,305.1"/>
		
			<linearGradient id="faed2749-e916-4b03-89ca-ddeb4e41aa94_00000075127628343602936160000006245420448654216123_" gradientUnits="userSpaceOnUse" x1="-677.8414" y1="166.1199" x2="-678.8414" y2="166.0399" gradientTransform="matrix(7 0 0 45 4967.9199 -7153)">
			<stop  offset="0" style="stop-color:#EEEDE4;stop-opacity:0.81"/>
			<stop  offset="1" style="stop-color:#EAE9E0;stop-opacity:0.79"/>
		</linearGradient>
		
			<path id="faed2749-e916-4b03-89ca-ddeb4e41aa94" style="fill:url(#faed2749-e916-4b03-89ca-ddeb4e41aa94_00000075127628343602936160000006245420448654216123_);" d="
			M223,320.6v22.5h-7v-45h7V320.6"/>
		
			<linearGradient id="a289a1de-49d6-4be5-a53f-c77117161fc0_00000167390445396559912270000000331264156399998348_" gradientUnits="userSpaceOnUse" x1="-632.7175" y1="195.2181" x2="-633.4474" y2="194.2181" gradientTransform="matrix(5 0 0 5 3363.9199 -633)">
			<stop  offset="0" style="stop-color:#E2DCD1;stop-opacity:0.81"/>
			<stop  offset="1" style="stop-color:#DFD9CE;stop-opacity:0.8"/>
		</linearGradient>
		
			<path id="a289a1de-49d6-4be5-a53f-c77117161fc0" style="fill:url(#a289a1de-49d6-4be5-a53f-c77117161fc0_00000167390445396559912270000000331264156399998348_);" d="
			M201,340.6c0,2-0.5,2.5-2.5,2.5s-2.5-0.5-2.5-2.5s0.5-2.5,2.5-2.5S201,338.6,201,340.6"/>
		
			<linearGradient id="a9c0362f-ea47-4537-9e19-e59c5990968d_00000034777655923814187720000015518088246857306253_" gradientUnits="userSpaceOnUse" x1="-784.7734" y1="168.5844" x2="-784.8734" y2="169.5844" gradientTransform="matrix(118.96 0 0 24.46 93569.8594 -3774.1091)">
			<stop  offset="0" style="stop-color:#564532;stop-opacity:0.79"/>
			<stop  offset="1" style="stop-color:#4A3A27;stop-opacity:0.81"/>
		</linearGradient>
		
			<path id="a9c0362f-ea47-4537-9e19-e59c5990968d" style="fill:url(#a9c0362f-ea47-4537-9e19-e59c5990968d_00000034777655923814187720000015518088246857306253_);" d="
			M253.2,352.6c14.9,5.9,17.1,13.4,4.8,16.4c-11.6,2.8-36.7,5.1-55.3,5.1c-18.8,0-38.2-1.4-42.2-3c-1.5-0.6-3-1.1-4.5-1.5
			c-3-0.8-9-5.2-9-6.5c0-1.1,4-7,5.5-8.1c2.5-1.1,5.1-2.1,7.8-2.9c6.6-2.1,6.9-2.1,11.4-0.5c2.5,1,4.8,2.4,5.1,3.1
			c0.3,0.8,1.1,1.3,1.9,1.4c2.3,0,1.6,1.4-1.7,3.2c-6.1,3.5-1.5,5.8,15.8,8.3c10.8,1.5,23.1,0.9,36.3-1.7c7.6-1.5,11.8-5.5,7.5-7.1
			c-2.3-0.9-1.8-2.2,2-6.1S243.1,348.7,253.2,352.6"/>
		
			<linearGradient id="a2e778ba-753b-423c-a3a0-4598e25c0dfc_00000036247880280629090940000002603543266293482421_" gradientUnits="userSpaceOnUse" x1="-786.8235" y1="163.0961" x2="-786.8235" y2="164.0962" gradientTransform="matrix(169.65 0 0 146.46 133692.5469 -23518.1953)">
			<stop  offset="0" style="stop-color:#5A4C3C;stop-opacity:0.8"/>
			<stop  offset="1" style="stop-color:#332719;stop-opacity:0.81"/>
		</linearGradient>
		
			<path id="a2e778ba-753b-423c-a3a0-4598e25c0dfc" style="fill:url(#a2e778ba-753b-423c-a3a0-4598e25c0dfc_00000036247880280629090940000002603543266293482421_);" d="
			M142.6,375.6c17.7,12.6,35.3,15.3,82.7,12.4c25.8-1.6,40.8-5.1,50-11.8l4.8-3.5l2.5,1.9c3.8,2.9,7.2,12.1,9,24.6
			c1.4,9.6,1.5,12.7,0.4,21.1c-2,16.5-5.8,26.4-22,58.6c-7.5,14.9-10.3,21.4-11.6,27.6l-1.7,8.1l-9.1,1.4c-11.8,1.8-53.2,1.8-75.4,0
			c-15.5-1.3-16.2-1.5-16.2-3.5c0-6.1-6.3-23-15.7-42.1c-16.5-33.5-20.6-56.6-14.3-79.3c2.5-9,7.9-20.2,9.7-20.2
			C138.1,372.4,140.4,374,142.6,375.6"/>
		
			<linearGradient id="a4db8394-af19-4628-868d-7c917ebc6838_00000000909330881606066370000002565008733498983062_" gradientUnits="userSpaceOnUse" x1="-708.519" y1="181.3052" x2="-709.519" y2="180.6052" gradientTransform="matrix(9.63 0 0 8.59 7050.1099 -1025.6301)">
			<stop  offset="0" style="stop-color:#E3E3DF;stop-opacity:0.81"/>
			<stop  offset="1" style="stop-color:#DDDDD8;stop-opacity:0.79"/>
		</linearGradient>
		
			<path id="a4db8394-af19-4628-868d-7c917ebc6838" style="fill:url(#a4db8394-af19-4628-868d-7c917ebc6838_00000000909330881606066370000002565008733498983062_);" d="
			M226,525.3c0.1,1.2,0.3,2.3,0.6,3.4c0.5,1.9,0,2.3-3.6,3.3c-5.2,1.4-6.5,0.4-5.6-4.4c0.6-3.4,0.9-3.6,4.6-3.6
			C224.5,524.1,226.1,524.5,226,525.3"/>
		
			<linearGradient id="b750a388-9956-4950-931e-cf363d15cb91_00000113332100220872658670000004989510338424828578_" gradientUnits="userSpaceOnUse" x1="-784.4783" y1="168.8949" x2="-785.7682" y2="167.8949" gradientTransform="matrix(125.97 0 0 26.83 99120.7578 -3965.4404)">
			<stop  offset="0" style="stop-color:#AD7A2B;stop-opacity:0.62"/>
			<stop  offset="1" style="stop-color:#572412;stop-opacity:0.28"/>
		</linearGradient>
		
			<path id="b750a388-9956-4950-931e-cf363d15cb91" style="fill:url(#b750a388-9956-4950-931e-cf363d15cb91_00000113332100220872658670000004989510338424828578_);" d="
			M148,541c0,3.2,6.7,4.9,32,8.2c13.9,1.8,50.6,0.4,66.7-2.6c13.4-2.5,19.2-4.6,19.3-6.8c0-0.7,0.7-0.3,1.5,0.7s1.5,4.2,1.5,7.7
			c0,6.7-0.9,7.6-10,10.3c-3,0.9-7.9,2.5-10.8,3.5c-8.9,3.2-25.1,4.3-55.2,3.7c-15.6-0.3-29.3-1.1-31.6-1.7
			c-6.9-1.9-16.2-7.2-17.4-9.7c-1.5-3.2-1.4-12.6,0.1-14.1C146,538.5,148,538.8,148,541"/>
		
			<linearGradient id="a4db7274-ce30-4bd8-b77d-fc1031b96fd2_00000047017785093690742050000012944349794791610557_" gradientUnits="userSpaceOnUse" x1="-724.4792" y1="195.4942" x2="-725.4792" y2="195.3042" gradientTransform="matrix(11.9 0 0 4.92 8852.0596 -415.5201)">
			<stop  offset="0" style="stop-color:#D7D2CD;stop-opacity:0.82"/>
			<stop  offset="1" style="stop-color:#CFCBC5;stop-opacity:0.79"/>
		</linearGradient>
		
			<path id="a4db7274-ce30-4bd8-b77d-fc1031b96fd2" style="fill:url(#a4db7274-ce30-4bd8-b77d-fc1031b96fd2_00000047017785093690742050000012944349794791610557_);" d="
			M229.8,545.8c0.3,2.1,0,2.2-5.8,2.2s-6.1-0.1-6.1-2.5s0.2-2.5,5.8-2.2C228.8,543.6,229.5,543.8,229.8,545.8"/>
		
			<linearGradient id="a1f59669-58f6-40cf-bfbe-fba9f6aa55de_00000134225220866735801850000008315354810931997589_" gradientUnits="userSpaceOnUse" x1="-691.6852" y1="203.2704" x2="-693.2952" y2="202.2704" gradientTransform="matrix(8 0 0 4 5733.9199 -264)">
			<stop  offset="0" style="stop-color:#D8D1CA;stop-opacity:0.81"/>
			<stop  offset="1" style="stop-color:#D0C9C2;stop-opacity:0.78"/>
		</linearGradient>
		
			<path id="a1f59669-58f6-40cf-bfbe-fba9f6aa55de" style="fill:url(#a1f59669-58f6-40cf-bfbe-fba9f6aa55de_00000134225220866735801850000008315354810931997589_);" d="
			M198,547.1c0,1.7-0.7,2-4,2s-4-0.3-4-2s0.7-2,4-2S198,545.4,198,547.1"/>
	</g>
	<g id="bb128af7-62b0-4113-b67e-24c83fafb4e4">
		
			<linearGradient id="f2ea46cc-ce99-4bb4-be40-2050f4983ca0_00000121279319365926148600000011117357660768986532_" gradientUnits="userSpaceOnUse" x1="-750.0637" y1="168.6842" x2="-751.0637" y2="168.1642" gradientTransform="matrix(19.36 0 0 27 14763.0811 -4146)">
			<stop  offset="0" style="stop-color:#FCFCF8;stop-opacity:0.83"/>
			<stop  offset="1" style="stop-color:#EFEFEB;stop-opacity:0.77"/>
		</linearGradient>
		
			<path id="f2ea46cc-ce99-4bb4-be40-2050f4983ca0" style="fill:url(#f2ea46cc-ce99-4bb4-be40-2050f4983ca0_00000121279319365926148600000011117357660768986532_);" d="
			M241.6,393.3c-0.3,2.3-1.1,8.4-1.8,13.5l-1.2,9.2h-13.5l-0.6-7.8c-0.3-4.3-0.9-10.3-1.1-13.5l-0.5-5.8h19.4L241.6,393.3"/>
		
			<linearGradient id="b0136245-e698-4c36-9cd8-26655c2c621b_00000063594735852991060420000007362713773569437368_" gradientUnits="userSpaceOnUse" x1="-725.8062" y1="171.186" x2="-726.8062" y2="171.226" gradientTransform="matrix(12.15 0 0 18.5 9010.6494 -2765)">
			<stop  offset="0" style="stop-color:#F3F1EC;stop-opacity:0.8"/>
			<stop  offset="1" style="stop-color:#ECEAE5;stop-opacity:0.77"/>
		</linearGradient>
		
			<path id="b0136245-e698-4c36-9cd8-26655c2c621b" style="fill:url(#b0136245-e698-4c36-9cd8-26655c2c621b_00000063594735852991060420000007362713773569437368_);" d="
			M191.8,402.3l-0.3,9.2h-11l-0.3-9.2l-0.3-9.2h12.1L191.8,402.3"/>
	</g>
</g>
<g id="f07a899f-34fd-4205-a010-9d8fb933e964">
	
		<pattern  id="SVGID_00000136375061557782481030000007690816526580328381_" xlink:href="#a6049764-78b7-4a4e-9f16-306115d" patternTransform="matrix(1 0 0 1 73.92 328)">
	</pattern>
	<rect x="414" y="0.1" style="fill:url(#SVGID_00000136375061557782481030000007690816526580328381_);" width="414" height="600"/>
	<g id="eaddde4e-ae4e-4e0e-a6e3-b3bf04b42b9c">
		
			<linearGradient id="a797cb6f-5b67-47ba-87bc-0dc532858921_00000170238042557408662780000010412218390044138888_" gradientUnits="userSpaceOnUse" x1="-720.1592" y1="168.0749" x2="-719.1592" y2="168.4449" gradientTransform="matrix(16.79 0 0 27.82 12702.7109 -4646.3003)">
			<stop  offset="0" style="stop-color:#897253"/>
			<stop  offset="1" style="stop-color:#7E6747"/>
		</linearGradient>
		
			<path id="a797cb6f-5b67-47ba-87bc-0dc532858921" style="fill:url(#a797cb6f-5b67-47ba-87bc-0dc532858921_00000170238042557408662780000010412218390044138888_);" d="
			M619.9,23.1c0.4,0.3,1.7,3.1,3,6.2s2.9,6.2,3.7,6.9c1.9,1.6,1.8,4.5-0.3,8c-1.5,2.6-2.3,2.9-6.6,2.9c-3.8,0-5.3-0.5-6.8-2.2
			c-2.4-2.9-2.4-4.9,0-9.7c1.2-2.5,2.1-5.2,2.6-8c0.4-2.3,1-4.1,1.5-4.1s0.9-1,1-2.2c0.1-2,0.2-2.1,0.6-0.2
			C618.9,21.5,619.3,22.3,619.9,23.1"/>
		
			<linearGradient id="a76e7142-72fd-4f3e-b7bd-1049ce3dba1c_00000031201638367228602460000004860930757652912279_" gradientUnits="userSpaceOnUse" x1="-787.7178" y1="163.7708" x2="-788.2278" y2="162.7708" gradientTransform="matrix(334.67 0 0 221.06 264304.5312 -35922.7148)">
			<stop  offset="0" style="stop-color:#E8E3DC;stop-opacity:0.99"/>
			<stop  offset="1" style="stop-color:#DBCEB9;stop-opacity:0.99"/>
		</linearGradient>
		
			<path id="a76e7142-72fd-4f3e-b7bd-1049ce3dba1c" style="fill:url(#a76e7142-72fd-4f3e-b7bd-1049ce3dba1c_00000031201638367228602460000004860930757652912279_);" d="
			M692,49.4c9.1,0.9,18,1.9,19.9,2.2c4,0.7,8.1,5,8.1,8.5c0,1.4,3,10.2,6.6,19.5c12.7,32.7,30.4,84.1,49.5,143.5
			c5,15.7,9.6,28.9,10.1,29.4s0.9,3.3,0.9,6.2v5.2l-5.7,1.1c-15.9,3.1-26.5,3.3-171.2,3.5c-157.3,0.1-153.2,0.2-156.6-4.9
			c-1.5-2.3-1.5-2.7,0.4-5.9c1.1-1.9,4.6-11.7,7.7-21.8c16-51.9,34.1-104.9,51-149.3c4.2-11,8.1-22,8.7-24.5c2.1-9.2,4.3-10,34.5-13
			c16.1-1.6,26-1.8,69.3-1.6C662.5,47.7,679.7,48.2,692,49.4"/>
		
			<linearGradient id="e0446de5-59d3-47f0-9e7d-7e51f8c7c389_00000015343093173599564890000016506493428338688909_" gradientUnits="userSpaceOnUse" x1="-778.2934" y1="167.7542" x2="-778.1634" y2="168.7542" gradientTransform="matrix(91 0 0 27.96 71440.9219 -4421.3799)">
			<stop  offset="0" style="stop-color:#AA8357"/>
			<stop  offset="1" style="stop-color:#A2774A"/>
		</linearGradient>
		
			<path id="e0446de5-59d3-47f0-9e7d-7e51f8c7c389" style="fill:url(#e0446de5-59d3-47f0-9e7d-7e51f8c7c389_00000015343093173599564890000016506493428338688909_);" d="
			M666,271.5c0,1.4-0.5,2.7-1,3.1s-1,5.1-1,11c0,9.9-0.1,10.4-2.2,10.9c-2.9,0.8-79.6,0.8-82.5,0c-2.2-0.6-2.2-1-2.2-11.4
			c0-6.1-0.4-11.1-1-11.5c-0.7-0.7-1.1-1.6-1-2.6c0-1.9,1.1-1.9,45.5-1.9H666V271.5"/>
		
			<linearGradient id="bae5fe1b-d703-4f51-87bd-a515fb2611c3_00000138550835535436988450000009493656839299251855_" gradientUnits="userSpaceOnUse" x1="-776.276" y1="164.2606" x2="-776.226" y2="165.2606" gradientTransform="matrix(79.2 0 0 71.32 62100.0273 -11417.1406)">
			<stop  offset="0" style="stop-color:#514334"/>
			<stop  offset="1" style="stop-color:#332516"/>
		</linearGradient>
		
			<path id="bae5fe1b-d703-4f51-87bd-a515fb2611c3" style="fill:url(#bae5fe1b-d703-4f51-87bd-a515fb2611c3_00000138550835535436988450000009493656839299251855_);" d="
			M659.5,320l0.7,22.9l-2.7,4.1c-1.5,2.3-3.1,4.1-3.5,4.1s-1.8,1.4-3,3.1c-2.1,2.9-2.1,3.2-0.6,4.4c3.6,2.7,0.6,5.7-7.3,7.3
			c-13.2,2.6-25.5,3.2-36.3,1.7c-17.3-2.4-21.8-4.8-15.8-8.3c3.3-1.9,4-3.2,1.7-3.2c-0.9-0.1-1.6-0.6-1.9-1.4
			c-0.3-0.8-2.1-2-3.9-2.6c-5-1.8-5.7-5.8-5.7-32.5v-22.5h77.8L659.5,320"/>
		
			<linearGradient id="f9b98080-a2d1-42f7-b324-0fe95a55bb88_00000052096662954080405790000009053665903786830752_" gradientUnits="userSpaceOnUse" x1="-785.3047" y1="162.8831" x2="-784.3047" y2="163.7131" gradientTransform="matrix(180.11 0 0 200.41 141973.0156 -32278.3086)">
			<stop  offset="0" style="stop-color:#63594E;stop-opacity:0.99"/>
			<stop  offset="1" style="stop-color:#281604;stop-opacity:0.99"/>
		</linearGradient>
		
			<path id="f9b98080-a2d1-42f7-b324-0fe95a55bb88" style="fill:url(#f9b98080-a2d1-42f7-b324-0fe95a55bb88_00000052096662954080405790000009053665903786830752_);" d="
			M667.2,352.6c3.2,1.3,6.2,2.9,9.1,4.9c1.9,1.4,3.9,2.6,4.5,2.6c2.7,0,12.3,5.1,16.1,8.6c8.7,7.8,12.7,20.8,13.7,43.8
			c0.5,12.5,0.3,15.9-1,19.6c-0.7,1.9-1.3,3.9-1.6,5.9c0,1.7-8.5,18.7-15.6,31.1c-10.6,18.6-17,32.4-18.3,39.1
			c-1.2,6-1.1,7.3,0.8,14.3c1.2,4.2,2.8,9.3,3.6,11.2c3.3,7.9,1.5,9.2-17.8,12.8c-16.1,3-52.8,4.5-66.7,2.6c-24.9-3.3-32-5.1-32-8.1
			c0-1,1.1-4.8,2.5-8.5c6.2-16.6,4-26.3-15-64.5c-16.8-33.8-18.8-40.1-18.8-58.5c0-20,3.8-32.7,12-40.8c5.2-5,20.5-13.2,31.4-16.8
			c6.6-2.2,6.8-2.2,11.3-0.5c2.5,1,4.8,2.4,5.1,3.1c0.3,0.8,1.1,1.3,1.9,1.4c2.3,0,1.6,1.4-1.7,3.2c-6.1,3.5-1.5,5.8,15.8,8.3
			c10.8,1.5,23.1,0.9,36.3-1.7c7.6-1.5,11.8-5.5,7.5-7.1c-2.3-0.9-1.8-2.2,2-6.1s4.7-4,14.7,0"/>
		
			<linearGradient id="a24ebd79-021a-48b7-8ecc-acbf1e7602d5_00000001649878133735240930000002170764492199547784_" gradientUnits="userSpaceOnUse" x1="-784.777" y1="166.9275" x2="-781.567" y2="165.9275" gradientTransform="matrix(144.66 0 0 40.71 113911.3359 -6217.4502)">
			<stop  offset="0" style="stop-color:#FFFFE1;stop-opacity:0.99"/>
			<stop  offset="1" style="stop-color:#69320C"/>
		</linearGradient>
		
			<path id="a24ebd79-021a-48b7-8ecc-acbf1e7602d5" style="fill:url(#a24ebd79-021a-48b7-8ecc-acbf1e7602d5_00000001649878133735240930000002170764492199547784_);" d="
			M562,541c0,3.2,6.7,4.9,32,8.2c14,1.8,50.6,0.4,66.7-2.6c13.4-2.5,19.2-4.6,19.3-6.8c0.1-2.4,3,2.7,3,5.2c0,1.9,0.9,3.1,3.7,4.6
			c4.2,2.3,5,4.4,5.2,12.7c0.1,6.8-0.8,7.9-8.5,10.8c-24.2,9.1-102.6,9-127.6-0.1c-8.6-3.1-9.2-4.2-8.2-13.6l0.9-7.8l4.2-2
			c3.7-1.7,4.2-2.4,4.2-5c0-3.2,1.5-5.5,3.7-5.5C561.4,539.1,562,539.9,562,541"/>
	</g>
</g>
<g id="bb122f03-20f1-4cae-be49-39d83602c3bb">
	
		<pattern  id="SVGID_00000121254427742629267400000001872286255506770068_" xlink:href="#a6049764-78b7-4a4e-9f16-306115d" patternTransform="matrix(1 0 0 1 73.92 328)">
	</pattern>
	<rect x="827.9" style="fill:url(#SVGID_00000121254427742629267400000001872286255506770068_);" width="414" height="600"/>
	<g id="e0be4949-245f-49b2-998f-4db8719d3b17">
		
			<linearGradient id="a9f3bc26-571b-4d8a-a65c-88c1011d60c3_00000088852288076955916250000000123410305446423945_" gradientUnits="userSpaceOnUse" x1="-783.2861" y1="172.13" x2="-783.426" y2="171.13" gradientTransform="matrix(198.94 0 0 17.64 156873.5938 -2969.51)">
			<stop  offset="0" style="stop-color:#7F4103;stop-opacity:0.54"/>
			<stop  offset="1" style="stop-color:#7C430D;stop-opacity:0.5"/>
		</linearGradient>
		
			<path id="a9f3bc26-571b-4d8a-a65c-88c1011d60c3" style="fill:url(#a9f3bc26-571b-4d8a-a65c-88c1011d60c3_00000088852288076955916250000000123410305446423945_);" d="
			M1108,49.4c21.9,2.2,22.8,2.3,25.6,5.5c2.3,2.6,3.3,8.2,1.5,8.2c-0.5,0-11.2-1-23.8-2.2c-20.4-2-28.6-2.2-75.8-2.2
			c-55.7,0-72,0.8-89,4.5c-4.9,1.1-9.1,1.9-9.4,1.9s-0.1-1.7,0.3-3.8c1.5-8.2,4.5-9.3,34.2-12.2c16.1-1.6,26-1.8,69.3-1.6
			C1078.5,47.7,1095.8,48.2,1108,49.4"/>
		
			<linearGradient id="e772eb92-83da-42cc-bf78-afaa93a5fca4_00000119807961600317307160000000214347294309517756_" gradientUnits="userSpaceOnUse" x1="-786.6847" y1="173.1637" x2="-786.5747" y2="174.1637" gradientTransform="matrix(334.62 0 0 14.42 264263.6875 -2242.4502)">
			<stop  offset="0" style="stop-color:#A05409;stop-opacity:0.37"/>
			<stop  offset="1" style="stop-color:#994E03;stop-opacity:0.41"/>
		</linearGradient>
		
			<path id="e772eb92-83da-42cc-bf78-afaa93a5fca4" style="fill:url(#e772eb92-83da-42cc-bf78-afaa93a5fca4_00000119807961600317307160000000214347294309517756_);" d="
			M1203,259v4.9l-5.8,1.1c-15.9,3.1-26.5,3.3-171.2,3.5c-157.1,0.1-153.2,0.2-156.6-4.9c-1.4-2.1-1.4-2.7-0.2-5l1.4-2.7h130.9
			c72,0,140.6-0.3,152.4-0.7s27.7-0.8,35.2-0.9l13.8-0.2V259"/>
		
			<linearGradient id="a8a9c1d0-0785-4997-b62c-7ad4bdac4a29_00000161596735285738231060000016047941888469602693_" gradientUnits="userSpaceOnUse" x1="-754.0519" y1="171.1017" x2="-754.092" y2="170.1017" gradientTransform="matrix(43.35 0 0 19.87 33726.3477 -3101.8506)">
			<stop  offset="0" style="stop-color:#FFFACB;stop-opacity:0.83"/>
			<stop  offset="1" style="stop-color:#FFF1C2;stop-opacity:0.8"/>
		</linearGradient>
		
			<path id="a8a9c1d0-0785-4997-b62c-7ad4bdac4a29" style="fill:url(#a8a9c1d0-0785-4997-b62c-7ad4bdac4a29_00000161596735285738231060000016047941888469602693_);" d="
			M1033,277.8c1.5,1,2.8,2.2,4,3.6c1.6,1.9,5,1.5,5-0.5c0-2.9,3.4-4.7,8.6-4.7h5.3l0.6,3.8c0.3,2.1,1.2,6.4,2,9.7s1.3,6.1,1.1,6.3
			s-10,0.2-21.8,0l-21.5-0.3l2.1-8.3c1.3-5.2,2.8-8.9,4-9.8C1025.1,275.5,1030,275.7,1033,277.8"/>
		
			<linearGradient id="bc8a3d14-1647-4243-99df-b08ebe27b518_00000106123026559551071220000005174633151069486006_" gradientUnits="userSpaceOnUse" x1="-466.5807" y1="173.8195" x2="-467.5807" y2="174.1895" gradientTransform="matrix(5 0 0 14 3362.9199 -2131)">
			<stop  offset="0" style="stop-color:#FFFFF9;stop-opacity:0.7"/>
			<stop  offset="1" style="stop-color:#FCFCF6;stop-opacity:0.68"/>
		</linearGradient>
		
			<path id="bc8a3d14-1647-4243-99df-b08ebe27b518" style="fill:url(#bc8a3d14-1647-4243-99df-b08ebe27b518_00000106123026559551071220000005174633151069486006_);stroke:#000000;stroke-miterlimit:10;" d="
			M1030,305.1c0,6.8-0.1,7-2.5,7s-2.5-0.2-2.5-7s0.1-7,2.5-7S1030,298.3,1030,305.1"/>
		
			<linearGradient id="abed88f4-56ff-4e73-b136-12719142d054_00000082327819531318448830000017305818837438254999_" gradientUnits="userSpaceOnUse" x1="-559.2714" y1="166.1198" x2="-560.2714" y2="166.0398" gradientTransform="matrix(7 0 0 45 4967.9199 -7153)">
			<stop  offset="0" style="stop-color:#EEEDE4;stop-opacity:0.81"/>
			<stop  offset="1" style="stop-color:#EAE9E0;stop-opacity:0.79"/>
		</linearGradient>
		
			<path id="abed88f4-56ff-4e73-b136-12719142d054" style="fill:url(#abed88f4-56ff-4e73-b136-12719142d054_00000082327819531318448830000017305818837438254999_);stroke:#000000;stroke-miterlimit:10;" d="
			M1053,320.6v22.5h-7v-45h7V320.6"/>
		
			<linearGradient id="a889f96c-3547-4d70-abef-ef3bec8a9ecb_00000098927256122850747990000013053108131741698183_" gradientUnits="userSpaceOnUse" x1="-466.7175" y1="195.2181" x2="-467.4474" y2="194.2181" gradientTransform="matrix(5 0 0 5 3363.9199 -633)">
			<stop  offset="0" style="stop-color:#E2DCD1;stop-opacity:0.81"/>
			<stop  offset="1" style="stop-color:#DFD9CE;stop-opacity:0.8"/>
		</linearGradient>
		
			<path id="a889f96c-3547-4d70-abef-ef3bec8a9ecb" style="fill:url(#a889f96c-3547-4d70-abef-ef3bec8a9ecb_00000098927256122850747990000013053108131741698183_);stroke:#000000;stroke-miterlimit:10;" d="
			M1031,340.6c0,2-0.5,2.5-2.5,2.5s-2.5-0.5-2.5-2.5s0.5-2.5,2.5-2.5S1031,338.6,1031,340.6"/>
		
			<linearGradient id="fcbf95d1-d689-484c-9ce9-dc9fd9d5d1e4_00000180343088911889630720000002189084757018727089_" gradientUnits="userSpaceOnUse" x1="-777.7906" y1="168.5848" x2="-777.9006" y2="169.5848" gradientTransform="matrix(118.96 0 0 24.46 93569.8594 -3774.1091)">
			<stop  offset="0" style="stop-color:#564532;stop-opacity:0.79"/>
			<stop  offset="1" style="stop-color:#4A3A27;stop-opacity:0.81"/>
		</linearGradient>
		
			<path id="fcbf95d1-d689-484c-9ce9-dc9fd9d5d1e4" style="fill:url(#fcbf95d1-d689-484c-9ce9-dc9fd9d5d1e4_00000180343088911889630720000002189084757018727089_);" d="
			M1083.2,352.6c14.9,5.9,17.1,13.4,4.8,16.4c-11.6,2.8-36.7,5.1-55.3,5.1c-18.8,0-38.2-1.4-42.2-3c-1.5-0.6-3-1.1-4.5-1.5
			c-3-0.8-9-5.2-9-6.5c0-1.1,4-7,5.5-8.1c2.5-1.1,5.1-2.1,7.8-2.9c6.6-2.1,6.9-2.1,11.3-0.5c2.5,1,4.8,2.4,5.1,3.1
			c0.3,0.8,1.1,1.3,1.9,1.4c2.3,0,1.6,1.4-1.7,3.2c-6.1,3.5-1.5,5.8,15.8,8.3c10.8,1.5,23.1,0.9,36.3-1.7c7.6-1.5,11.8-5.5,7.5-7.1
			c-2.3-0.9-1.8-2.2,2.1-6.1S1073.2,348.7,1083.2,352.6"/>
		
			<linearGradient id="a8312c54-6c2e-49f3-a9a6-96743e64950b_00000147211861907765958300000006283625530033385629_" gradientUnits="userSpaceOnUse" x1="-781.9309" y1="163.0961" x2="-781.9309" y2="164.0962" gradientTransform="matrix(169.65 0 0 146.46 133692.5469 -23518.1953)">
			<stop  offset="0" style="stop-color:#5A4C3C;stop-opacity:0.8"/>
			<stop  offset="1" style="stop-color:#332719;stop-opacity:0.81"/>
		</linearGradient>
		
			<path id="a8312c54-6c2e-49f3-a9a6-96743e64950b" style="fill:url(#a8312c54-6c2e-49f3-a9a6-96743e64950b_00000147211861907765958300000006283625530033385629_);" d="
			M972.6,375.6c17.7,12.6,35.3,15.3,82.7,12.4c25.8-1.6,40.8-5.1,50-11.8l4.8-3.5l2.5,1.9c3.8,2.9,7.2,12.1,9,24.6
			c1.4,9.6,1.5,12.7,0.4,21.1c-2,16.5-5.8,26.4-22,58.6c-7.5,14.9-10.3,21.4-11.6,27.6l-1.7,8.1l-9.1,1.4c-11.8,1.8-53.2,1.8-75.4,0
			c-15.5-1.3-16.2-1.5-16.2-3.5c0-6.1-6.3-23-15.7-42.1c-16.5-33.5-20.6-56.6-14.3-79.3c2.5-9,7.9-20.2,9.7-20.2
			C968.1,372.4,970.4,374,972.6,375.6"/>
		
			<linearGradient id="f000108f-772f-4182-a7d7-a04c17ac7a43_00000179642050627898339690000015434504462068619905_" gradientUnits="userSpaceOnUse" x1="-622.3561" y1="181.2869" x2="-623.3561" y2="180.5869" gradientTransform="matrix(9.63 0 0 8.59 7050.1099 -1025.6301)">
			<stop  offset="0" style="stop-color:#E3E3DF;stop-opacity:0.81"/>
			<stop  offset="1" style="stop-color:#DDDDD8;stop-opacity:0.79"/>
		</linearGradient>
		
			<path id="f000108f-772f-4182-a7d7-a04c17ac7a43" style="fill:url(#f000108f-772f-4182-a7d7-a04c17ac7a43_00000179642050627898339690000015434504462068619905_);stroke:#000000;stroke-miterlimit:10;" d="
			M1056,525.3c0.1,1.2,0.3,2.3,0.6,3.4c0.5,1.9,0,2.3-3.6,3.3c-5.2,1.4-6.5,0.4-5.6-4.4c0.6-3.4,0.9-3.6,4.6-3.6
			C1054.5,524.1,1056,524.5,1056,525.3"/>
		
			<linearGradient id="bb56c3ac-2600-47eb-9d70-2bd0eab58572_00000026131564678604764220000013276201730115806364_" gradientUnits="userSpaceOnUse" x1="-777.8887" y1="168.8954" x2="-779.1787" y2="167.8954" gradientTransform="matrix(125.97 0 0 26.83 99120.7578 -3965.4404)">
			<stop  offset="0" style="stop-color:#AD7A2B;stop-opacity:0.62"/>
			<stop  offset="1" style="stop-color:#572412;stop-opacity:0.28"/>
		</linearGradient>
		
			<path id="bb56c3ac-2600-47eb-9d70-2bd0eab58572" style="fill:url(#bb56c3ac-2600-47eb-9d70-2bd0eab58572_00000026131564678604764220000013276201730115806364_);" d="
			M978,541c0,3.2,6.7,4.9,32,8.2c14,1.8,50.6,0.4,66.7-2.6c13.4-2.5,19.2-4.6,19.3-6.8c0-0.7,0.7-0.3,1.5,0.7s1.5,4.2,1.5,7.7
			c0,6.7-0.9,7.6-10,10.3c-3,0.9-7.9,2.5-10.8,3.5c-8.9,3.2-25.1,4.3-55.2,3.7c-15.6-0.3-29.3-1.1-31.6-1.7
			c-6.9-1.9-16.2-7.2-17.4-9.7c-1.5-3.2-1.4-12.6,0.1-14.1C976,538.5,978,538.8,978,541"/>
		
			<linearGradient id="abe4ca0f-902e-4ad6-b349-d82c04b49bd5_00000068674952777417821120000007625627112270936234_" gradientUnits="userSpaceOnUse" x1="-654.71" y1="195.4983" x2="-655.71" y2="195.3083" gradientTransform="matrix(11.9 0 0 4.92 8852.0596 -415.5201)">
			<stop  offset="0" style="stop-color:#D7D2CD;stop-opacity:0.82"/>
			<stop  offset="1" style="stop-color:#CFCBC5;stop-opacity:0.79"/>
		</linearGradient>
		
			<path id="abe4ca0f-902e-4ad6-b349-d82c04b49bd5" style="fill:url(#abe4ca0f-902e-4ad6-b349-d82c04b49bd5_00000068674952777417821120000007625627112270936234_);stroke:#000000;stroke-miterlimit:10;" d="
			M1059.8,545.8c0.3,2.1,0,2.2-5.8,2.2s-6.1-0.1-6.1-2.5s0.2-2.5,5.8-2.2C1058.9,543.6,1059.5,543.8,1059.8,545.8"/>
		
			<linearGradient id="b4267cf7-8d10-4e4d-837e-b2771c81e18d_00000160190756942189709230000012613816927810054064_" gradientUnits="userSpaceOnUse" x1="-587.9352" y1="203.2704" x2="-589.5452" y2="202.2704" gradientTransform="matrix(8 0 0 4 5733.9199 -264)">
			<stop  offset="0" style="stop-color:#D8D1CA;stop-opacity:0.81"/>
			<stop  offset="1" style="stop-color:#D0C9C2;stop-opacity:0.78"/>
		</linearGradient>
		
			<path id="b4267cf7-8d10-4e4d-837e-b2771c81e18d" style="fill:url(#b4267cf7-8d10-4e4d-837e-b2771c81e18d_00000160190756942189709230000012613816927810054064_);stroke:#000000;stroke-miterlimit:10;" d="
			M1028,547.1c0,1.7-0.7,2-4,2c-3.3,0-4-0.3-4-2s0.7-2,4-2S1028,545.4,1028,547.1"/>
	</g>
</g>
<g id="b2f2a0ed-0246-4b93-934e-7b527b51a67c">
	
		<pattern  id="SVGID_00000005252163987608593060000002878300128458417557_" xlink:href="#a6049764-78b7-4a4e-9f16-306115d" patternTransform="matrix(1 0 0 1 73.92 328)">
	</pattern>
	<rect x="1241.9" style="fill:url(#SVGID_00000005252163987608593060000002878300128458417557_);" width="414" height="600"/>
	<g id="ec441602-49b8-4b37-9113-763a8afd6e2b">
		
			<linearGradient id="b72b2136-ff50-4a72-a2ce-a33491f2ea97_00000080202002643746003570000018227792113053802402_" gradientUnits="userSpaceOnUse" x1="-686.5912" y1="168.6796" x2="-687.5912" y2="168.1596" gradientTransform="matrix(19.36 0 0 27 14763.0811 -4146)">
			<stop  offset="0" style="stop-color:#FCFCF8;stop-opacity:0.83"/>
			<stop  offset="1" style="stop-color:#EFEFEB;stop-opacity:0.77"/>
		</linearGradient>
		
			<path id="b72b2136-ff50-4a72-a2ce-a33491f2ea97" style="fill:url(#b72b2136-ff50-4a72-a2ce-a33491f2ea97_00000080202002643746003570000018227792113053802402_);stroke:#000000;stroke-miterlimit:10;" d="
			M1470.7,393.3c-0.3,2.3-1.1,8.4-1.8,13.5l-1.2,9.2h-13.5l-0.6-7.8c-0.3-4.3-0.8-10.3-1.1-13.5l-0.5-5.8h19.4L1470.7,393.3"/>
		
			<linearGradient id="e27ea2cc-ae4a-4b04-a844-936f8d650a40_00000045586287627850894910000003272253401527808915_" gradientUnits="userSpaceOnUse" x1="-624.6562" y1="171.1861" x2="-625.6562" y2="171.2261" gradientTransform="matrix(12.15 0 0 18.5 9010.6494 -2765)">
			<stop  offset="0" style="stop-color:#F3F1EC;stop-opacity:0.8"/>
			<stop  offset="1" style="stop-color:#ECEAE5;stop-opacity:0.77"/>
		</linearGradient>
		
			<path id="e27ea2cc-ae4a-4b04-a844-936f8d650a40" style="fill:url(#e27ea2cc-ae4a-4b04-a844-936f8d650a40_00000045586287627850894910000003272253401527808915_);stroke:#000000;stroke-miterlimit:10;" d="
			M1420.8,402.3l-0.3,9.2h-11l-0.3-9.2l-0.3-9.2h12.2L1420.8,402.3"/>
	</g>
</g>
<g id="bd42724a-5b7f-4585-9cae-fd76e49aaf83">
	<line class="st46" x1="414.4" y1="0.5" x2="414.4" y2="600.5"/>
	<line class="st46" x1="827.9" y1="0" x2="827.9" y2="600"/>
	<line class="st46" x1="1241.9" y1="0" x2="1241.9" y2="600"/>
</g>
</svg>
