<?xml version="1.0" standalone="no"?><!DOCTYPE svg PUBLIC "-//W3C//DTD SVG 20010904//EN" "http://www.w3.org/TR/2001/REC-SVG-20010904/DTD/svg10.dtd"><svg version="1.0" xmlns="http://www.w3.org/2000/svg" width="886pt" height="548pt" viewBox="0 0 886 548" preserveAspectRatio="xMidYMid meet"><defs><linearGradient id="linear-gradient-1-1" x1="0.00%" y1="100.00%" x2="108.83%" y2="31.20%"><stop offset="0%" style="stop-color:rgb(152,205,215);stop-opacity:0.993" /><stop offset="100%" style="stop-color:rgb(182,252,255);stop-opacity:0.993" /></linearGradient><linearGradient id="linear-gradient-1-2" x1="0.00%" y1="100.00%" x2="3.20%" y2="-11.26%"><stop offset="0%" style="stop-color:rgb(154,195,69);stop-opacity:1.000" /><stop offset="100%" style="stop-color:rgb(152,191,73);stop-opacity:1.000" /></linearGradient><linearGradient id="linear-gradient-2-1" x1="0.00%" y1="100.00%" x2="33.41%" y2="-52.83%"><stop offset="0%" style="stop-color:rgb(255,255,255);stop-opacity:0.817" /><stop offset="100%" style="stop-color:rgb(255,255,255);stop-opacity:0.804" /></linearGradient><linearGradient id="linear-gradient-2-2" x1="0.00%" y1="100.00%" x2="0.00%" y2="0.00%"><stop offset="0%" style="stop-color:rgb(136,167,0);stop-opacity:0.629" /><stop offset="100%" style="stop-color:rgb(131,153,11);stop-opacity:0.824" /></linearGradient><linearGradient id="linear-gradient-2-3" x1="0.00%" y1="100.00%" x2="5.22%" y2="-15.90%"><stop offset="0%" style="stop-color:rgb(255,255,255);stop-opacity:0.827" /><stop offset="100%" style="stop-color:rgb(255,255,255);stop-opacity:0.815" /></linearGradient><linearGradient id="linear-gradient-2-4" x1="0.00%" y1="100.00%" x2="63.44%" y2="-9.97%"><stop offset="0%" style="stop-color:rgb(130,155,0);stop-opacity:0.698" /><stop offset="100%" style="stop-color:rgb(131,157,12);stop-opacity:0.825" /></linearGradient><linearGradient id="linear-gradient-2-5" x1="0.00%" y1="100.00%" x2="100.52%" y2="0.16%"><stop offset="0%" style="stop-color:rgb(125,146,0);stop-opacity:0.626" /><stop offset="100%" style="stop-color:rgb(127,153,24);stop-opacity:0.844" /></linearGradient><linearGradient id="linear-gradient-2-6" x1="0.00%" y1="100.00%" x2="0.00%" y2="-0.00%"><stop offset="0%" style="stop-color:rgb(121,141,0);stop-opacity:0.771" /><stop offset="100%" style="stop-color:rgb(125,149,24);stop-opacity:0.806" /></linearGradient><linearGradient id="linear-gradient-2-7" x1="0.00%" y1="100.00%" x2="0.00%" y2="-0.00%"><stop offset="0%" style="stop-color:rgb(255,255,255);stop-opacity:0.816" /><stop offset="100%" style="stop-color:rgb(255,255,255);stop-opacity:0.828" /></linearGradient><linearGradient id="linear-gradient-2-8" x1="0.00%" y1="100.00%" x2="0.00%" y2="-0.00%"><stop offset="0%" style="stop-color:rgb(104,116,0);stop-opacity:0.695" /><stop offset="100%" style="stop-color:rgb(102,111,0);stop-opacity:0.825" /></linearGradient><linearGradient id="linear-gradient-2-9" x1="0.00%" y1="100.00%" x2="139.75%" y2="61.42%"><stop offset="0%" style="stop-color:rgb(89,105,3);stop-opacity:0.787" /><stop offset="100%" style="stop-color:rgb(81,94,0);stop-opacity:0.819" /></linearGradient><linearGradient id="linear-gradient-2-10" x1="0.00%" y1="100.00%" x2="21.96%" y2="-23.33%"><stop offset="0%" style="stop-color:rgb(144,177,42);stop-opacity:0.569" /><stop offset="100%" style="stop-color:rgb(140,164,0);stop-opacity:0.789" /></linearGradient><linearGradient id="linear-gradient-2-11" x1="0.00%" y1="100.00%" x2="0.00%" y2="-0.00%"><stop offset="0%" style="stop-color:rgb(105,117,0);stop-opacity:0.641" /><stop offset="100%" style="stop-color:rgb(105,117,1);stop-opacity:0.822" /></linearGradient><linearGradient id="linear-gradient-2-12" x1="0.00%" y1="100.00%" x2="6.91%" y2="-35.32%"><stop offset="0%" style="stop-color:rgb(102,114,0);stop-opacity:0.642" /><stop offset="100%" style="stop-color:rgb(103,113,0);stop-opacity:0.858" /></linearGradient><linearGradient id="linear-gradient-2-13" x1="0.00%" y1="100.00%" x2="20.99%" y2="-89.90%"><stop offset="0%" style="stop-color:rgb(117,127,36);stop-opacity:0.425" /><stop offset="100%" style="stop-color:rgb(114,144,31);stop-opacity:0.569" /></linearGradient><linearGradient id="linear-gradient-2-14" x1="0.00%" y1="100.00%" x2="10.36%" y2="-9.79%"><stop offset="0%" style="stop-color:rgb(87,95,30);stop-opacity:0.511" /><stop offset="100%" style="stop-color:rgb(91,99,35);stop-opacity:0.578" /></linearGradient><linearGradient id="linear-gradient-2-15" x1="0.00%" y1="100.00%" x2="114.10%" y2="43.90%"><stop offset="0%" style="stop-color:rgb(223,198,216);stop-opacity:0.739" /><stop offset="100%" style="stop-color:rgb(230,201,225);stop-opacity:0.772" /></linearGradient><linearGradient id="linear-gradient-2-16" x1="0.00%" y1="100.00%" x2="0.00%" y2="0.00%"><stop offset="0%" style="stop-color:rgb(222,199,214);stop-opacity:0.782" /><stop offset="100%" style="stop-color:rgb(225,200,217);stop-opacity:0.795" /></linearGradient><linearGradient id="linear-gradient-2-17" x1="0.00%" y1="100.00%" x2="112.40%" y2="36.97%"><stop offset="0%" style="stop-color:rgb(216,198,204);stop-opacity:0.774" /><stop offset="100%" style="stop-color:rgb(224,201,212);stop-opacity:0.805" /></linearGradient><linearGradient id="linear-gradient-2-18" x1="0.00%" y1="100.00%" x2="0.00%" y2="0.00%"><stop offset="0%" style="stop-color:rgb(39,24,4);stop-opacity:0.251" /><stop offset="100%" style="stop-color:rgb(36,19,2);stop-opacity:0.314" /></linearGradient><linearGradient id="linear-gradient-2-19" x1="0.00%" y1="100.00%" x2="0.00%" y2="-0.00%"><stop offset="0%" style="stop-color:rgb(40,26,4);stop-opacity:0.262" /><stop offset="100%" style="stop-color:rgb(38,22,3);stop-opacity:0.324" /></linearGradient><linearGradient id="linear-gradient-2-20" x1="0.00%" y1="100.00%" x2="72.13%" y2="-27.66%"><stop offset="0%" style="stop-color:rgb(10,18,100);stop-opacity:0.569" /><stop offset="100%" style="stop-color:rgb(2,8,104);stop-opacity:0.609" /></linearGradient><linearGradient id="linear-gradient-2-21" x1="0.00%" y1="100.00%" x2="0.00%" y2="0.00%"><stop offset="0%" style="stop-color:rgb(56,74,92);stop-opacity:0.802" /><stop offset="100%" style="stop-color:rgb(59,78,91);stop-opacity:0.798" /></linearGradient><linearGradient id="linear-gradient-2-22" x1="0.00%" y1="100.00%" x2="86.26%" y2="-15.67%"><stop offset="0%" style="stop-color:rgb(2,9,102);stop-opacity:0.545" /><stop offset="100%" style="stop-color:rgb(0,4,104);stop-opacity:0.580" /></linearGradient><linearGradient id="linear-gradient-3-1" x1="0.00%" y1="100.00%" x2="174.18%" y2="13.00%"><stop offset="0%" style="stop-color:rgb(99,51,50);stop-opacity:0.750" /><stop offset="100%" style="stop-color:rgb(91,42,0);stop-opacity:0.852" /></linearGradient><linearGradient id="linear-gradient-3-2" x1="0.00%" y1="100.00%" x2="51.48%" y2="-1.55%"><stop offset="0%" style="stop-color:rgb(97,52,42);stop-opacity:0.740" /><stop offset="100%" style="stop-color:rgb(94,46,0);stop-opacity:0.859" /></linearGradient><linearGradient id="linear-gradient-3-3" x1="0.00%" y1="100.00%" x2="312.28%" y2="50.61%"><stop offset="0%" style="stop-color:rgb(109,75,53);stop-opacity:0.742" /><stop offset="100%" style="stop-color:rgb(91,40,0);stop-opacity:0.878" /></linearGradient><linearGradient id="linear-gradient-3-4" x1="0.00%" y1="100.00%" x2="0.00%" y2="-0.00%"><stop offset="0%" style="stop-color:rgb(170,225,127);stop-opacity:0.556" /><stop offset="100%" style="stop-color:rgb(172,221,84);stop-opacity:0.408" /></linearGradient><linearGradient id="linear-gradient-3-5" x1="0.00%" y1="100.00%" x2="10.01%" y2="-10.00%"><stop offset="0%" style="stop-color:rgb(32,10,41);stop-opacity:0.127" /><stop offset="100%" style="stop-color:rgb(31,6,45);stop-opacity:0.167" /></linearGradient><linearGradient id="linear-gradient-3-6" x1="0.00%" y1="100.00%" x2="48.13%" y2="-34.39%"><stop offset="0%" style="stop-color:rgb(71,75,42);stop-opacity:0.236" /><stop offset="100%" style="stop-color:rgb(77,78,48);stop-opacity:0.297" /></linearGradient><linearGradient id="linear-gradient-3-7" x1="0.00%" y1="100.00%" x2="27.56%" y2="-27.30%"><stop offset="0%" style="stop-color:rgb(4,14,122);stop-opacity:0.498" /><stop offset="100%" style="stop-color:rgb(0,8,127);stop-opacity:0.534" /></linearGradient><linearGradient id="linear-gradient-3-8" x1="0.00%" y1="100.00%" x2="113.31%" y2="85.67%"><stop offset="0%" style="stop-color:rgb(152,194,70);stop-opacity:0.757" /><stop offset="100%" style="stop-color:rgb(163,206,80);stop-opacity:0.802" /></linearGradient></defs><g id="layer-1"><path d="M0 3835 l0 -1645 43 -1 c23 0 49 -2 57 -5 255 -72 1103 -276 1365 -329 189 -37 169 -42 176 43 10 109 41 131 98 67 17 -19 32 -35 34 -35 2 0 7 42 10 93 9 146 45 224 99 213 25 -5 28 -2 38 37 23 90 74 235 102 292 40 81 73 123 114 142 31 15 37 15 69 0 19 -9 48 -36 66 -59 77 -107 183 -340 229 -504 12 -43 26 -85 30 -93 4 -9 18 -63 31 -120 l24 -104 95 2 c52 1 214 6 360 11 146 6 391 14 545 20 259 8 382 13 1025 40 129 5 375 14 545 20 171 5 432 15 580 21 840 33 2216 61 2703 56 l422 -4 0 1743 0 1744 -4430 0 -4430 0 0 -1645z" fill="url(#linear-gradient-1-1)" id="region-1-1" transform="translate(0.000000,548.000000) scale(0.100000,-0.100000)"/><path d="M2122 2700 c-67 -41 -142 -199 -202 -427 -10 -39 -13 -42 -38 -37 -54 11 -90 -67 -99 -213 -3 -51 -8 -93 -10 -93 -2 0 -17 16 -34 35 -57 64 -88 42 -98 -67 -7 -85 13 -80 -176 -43 -249 50 -520 114 -980 231 -203 52 -396 97 -427 100 l-58 6 0 -1096 0 -1096 4430 0 4430 0 0 993 0 994 -137 6 c-352 17 -1923 -10 -2993 -53 -146 -5 -404 -15 -575 -20 -170 -6 -416 -15 -545 -20 -643 -27 -766 -32 -1025 -40 -154 -6 -399 -14 -545 -20 -146 -5 -308 -10 -360 -11 l-95 -2 -24 104 c-13 57 -27 111 -31 120 -4 8 -18 50 -30 93 -64 227 -208 511 -283 557 -40 24 -54 24 -95 -1z" fill="url(#linear-gradient-1-2)" id="region-1-2" transform="translate(0.000000,548.000000) scale(0.100000,-0.100000)"/></g><g id="layer-2"><path d="M8235 5235 c-22 -8 -56 -32 -75 -53 -30 -35 -39 -39 -68 -35 -66 11 -132 -41 -132 -103 l0 -34 380 0 c336 0 380 2 380 15 0 27 -47 65 -79 65 -21 0 -35 7 -46 24 -21 32 -74 56 -122 56 -27 0 -42 6 -50 19 -15 23 -91 61 -124 61 -13 -1 -42 -7 -64 -15z" fill="url(#linear-gradient-2-1)" id="region-2-1" transform="translate(0.000000,548.000000) scale(0.100000,-0.100000)"/><path d="M1169 5140 c-65 -11 -84 -23 -169 -105 -82 -79 -128 -101 -188 -90 -37 6 -163 49 -193 65 -20 10 -24 -33 -24 -240 1 -218 41 -364 137 -501 76 -108 78 -112 78 -161 0 -26 -7 -77 -16 -115 -9 -37 -17 -108 -17 -158 -1 -77 3 -98 25 -147 40 -87 107 -152 202 -197 123 -58 201 -75 341 -76 107 0 125 3 169 24 72 36 132 103 216 242 101 169 150 219 270 276 91 43 199 126 180 138 -5 3 -23 31 -41 61 -50 88 -144 198 -212 250 -34 25 -111 70 -172 98 -170 81 -207 134 -270 387 -40 158 -69 221 -112 237 -40 15 -150 22 -204 12z" fill="url(#linear-gradient-2-2)" id="region-2-2" transform="translate(0.000000,548.000000) scale(0.100000,-0.100000)"/><path d="M2433 5128 c-30 -7 -52 -21 -82 -53 -39 -43 -44 -45 -95 -45 -49 0 -57 -3 -85 -35 -20 -23 -31 -46 -31 -65 l0 -30 385 0 c212 0 385 4 385 9 0 23 -44 61 -78 67 -20 4 -53 21 -73 39 -36 32 -106 54 -128 41 -6 -4 -15 2 -20 12 -24 46 -108 74 -178 60z" fill="url(#linear-gradient-2-3)" id="region-2-3" transform="translate(0.000000,548.000000) scale(0.100000,-0.100000)"/><path d="M7062 5075 c-74 -17 -155 -52 -214 -94 -45 -32 -152 -127 -130 -116 10 5 11 -3 5 -37 -17 -94 -8 -168 37 -298 41 -120 43 -127 32 -180 -14 -66 -76 -162 -169 -260 -69 -73 -101 -94 -198 -131 -100 -37 -142 -90 -165 -206 -7 -34 -11 -102 -8 -151 7 -160 78 -264 201 -292 77 -19 102 -35 147 -94 49 -64 89 -86 162 -86 64 0 132 30 228 99 181 132 330 159 650 121 351 -42 518 -16 657 104 55 48 107 153 123 248 13 75 8 272 -8 333 -13 48 -96 76 -249 84 -132 7 -153 15 -197 75 -18 23 -22 48 -27 179 -8 162 -28 265 -73 363 -72 156 -191 263 -357 319 -75 25 -101 28 -234 31 -104 3 -169 -1 -213 -11z" fill="url(#linear-gradient-2-4)" id="region-2-4" transform="translate(0.000000,548.000000) scale(0.100000,-0.100000)"/><path d="M514 5021 c-148 -36 -214 -190 -214 -494 1 -270 63 -486 187 -647 27 -36 55 -75 61 -87 17 -31 15 -86 -7 -188 -54 -251 -28 -380 101 -509 73 -73 190 -135 303 -161 39 -9 86 -21 106 -27 52 -15 263 -5 318 16 102 38 183 127 302 331 92 158 174 237 297 289 116 48 179 103 224 193 43 88 51 200 18 286 -12 31 -25 57 -29 57 -4 0 -23 -16 -42 -36 -20 -21 -75 -56 -134 -84 -126 -61 -173 -108 -275 -279 -84 -139 -144 -206 -216 -242 -44 -21 -62 -24 -169 -24 -140 1 -218 18 -341 76 -95 45 -162 110 -202 197 -22 49 -26 70 -25 147 0 50 8 121 17 158 9 38 16 89 16 115 0 49 -2 53 -77 160 -91 129 -131 266 -139 472 -3 74 -2 163 4 197 5 34 6 67 3 72 -9 14 -52 20 -87 12z" fill="url(#linear-gradient-2-5)" id="region-2-5" transform="translate(0.000000,548.000000) scale(0.100000,-0.100000)"/><path d="M6698 4842 c-83 -87 -183 -307 -224 -496 -29 -131 -38 -154 -75 -206 -32 -44 -85 -75 -167 -96 -81 -21 -145 -60 -207 -125 -99 -104 -154 -270 -155 -464 0 -194 47 -290 195 -400 40 -29 92 -77 116 -107 136 -165 248 -241 401 -272 224 -46 512 16 701 150 26 19 50 34 53 34 3 0 33 18 66 41 80 52 129 60 333 53 302 -12 541 40 676 146 53 43 115 139 139 219 26 83 36 233 21 331 -6 41 -16 111 -22 154 -13 100 -39 162 -89 211 -22 21 -42 37 -44 34 -2 -2 0 -38 4 -79 42 -358 -69 -561 -342 -625 -87 -20 -242 -19 -438 5 -320 38 -469 11 -650 -121 -96 -69 -164 -99 -228 -99 -73 0 -113 22 -162 86 -45 59 -70 75 -147 94 -78 18 -125 57 -164 136 -28 56 -34 80 -37 156 -3 49 1 117 8 151 23 116 65 169 165 206 97 37 129 58 198 131 93 98 155 194 169 260 11 53 9 60 -30 175 -49 143 -58 200 -43 279 6 33 10 61 8 63 -2 1 -15 -10 -29 -25z" fill="url(#linear-gradient-2-6)" id="region-2-6" transform="translate(0.000000,548.000000) scale(0.100000,-0.100000)"/><path d="M3235 4611 c-54 -13 -104 -42 -139 -81 -32 -36 -37 -38 -94 -37 -74 0 -140 -30 -184 -84 -26 -32 -38 -39 -67 -39 -47 0 -100 -29 -128 -70 -44 -64 -83 -60 602 -60 l625 0 0 33 c-1 74 -61 153 -136 177 -35 12 -101 10 -135 -4 -10 -5 -19 1 -26 17 -37 80 -158 158 -243 156 -25 -1 -58 -4 -75 -8z" fill="url(#linear-gradient-2-7)" id="region-2-7" transform="translate(0.000000,548.000000) scale(0.100000,-0.100000)"/><path d="M4285 4325 c-5 -2 -22 -6 -38 -9 -45 -10 -104 -73 -147 -155 -29 -56 -52 -85 -87 -111 -60 -44 -105 -104 -135 -177 -21 -53 -23 -73 -24 -248 0 -104 -1 -198 -2 -207 -1 -9 -27 -44 -58 -78 l-57 -60 7 -83 c9 -112 31 -184 67 -219 l29 -30 103 6 c56 3 166 9 245 12 l142 6 78 -57 c76 -55 78 -56 133 -52 30 3 74 14 96 25 60 31 119 104 139 170 26 91 15 143 -55 276 -58 108 -61 117 -61 184 0 55 8 95 40 189 28 83 40 135 40 176 0 37 4 56 10 52 21 -13 -176 221 -232 277 -72 71 -187 126 -233 113z" fill="url(#linear-gradient-2-8)" id="region-2-8" transform="translate(0.000000,548.000000) scale(0.100000,-0.100000)"/><path d="M4740 3883 c0 -41 -12 -93 -40 -176 -32 -94 -40 -134 -40 -189 0 -67 3 -76 61 -184 70 -133 81 -185 55 -276 -20 -66 -79 -139 -139 -170 -22 -11 -66 -22 -96 -25 -55 -4 -57 -3 -133 52 l-78 57 -142 -6 c-79 -3 -189 -9 -245 -12 l-103 -6 -29 30 c-36 35 -58 107 -67 220 l-7 83 -23 -22 c-38 -35 -48 -104 -29 -185 21 -86 51 -138 108 -191 117 -108 355 -174 632 -175 114 -1 140 2 210 25 224 74 345 210 345 390 0 108 -13 139 -86 217 -86 91 -91 111 -58 224 32 109 30 186 -9 267 -22 47 -69 109 -82 109 -3 0 -5 -26 -5 -57z" fill="url(#linear-gradient-2-9)" id="region-2-9" transform="translate(0.000000,548.000000) scale(0.100000,-0.100000)"/><path d="M7810 2913 c-26 -9 -71 -56 -90 -93 -43 -83 -81 -259 -100 -455 -6 -66 -13 -144 -16 -174 l-6 -53 -31 30 c-85 80 -137 64 -137 -42 l0 -31 -26 40 c-46 69 -85 105 -116 105 -22 0 -29 -6 -35 -27 -6 -26 15 -152 32 -196 5 -12 -17 -3 -73 31 -95 58 -230 105 -287 100 l-40 -3 1 -46 c0 -29 8 -58 23 -83 l24 -37 416 8 c229 4 662 8 964 8 l547 0 0 298 c0 269 -2 299 -16 293 -9 -3 -28 -6 -44 -6 -24 0 -32 -9 -63 -67 -19 -38 -47 -106 -63 -153 l-28 -84 -11 49 c-7 28 -17 61 -23 75 -12 30 -59 75 -87 84 -35 10 -84 -29 -109 -87 -13 -28 -28 -63 -34 -77 -10 -24 -11 -24 -11 11 -1 58 -22 151 -42 190 -21 41 -48 55 -77 40 -27 -14 -76 -112 -108 -216 l-28 -89 -17 121 c-43 295 -124 487 -226 529 -35 15 -40 15 -63 7z" fill="url(#linear-gradient-2-10)" id="region-2-10" transform="translate(0.000000,548.000000) scale(0.100000,-0.100000)"/><path d="M356 2831 c-44 -48 -72 -270 -63 -493 2 -71 4 -128 2 -128 -1 0 -18 24 -37 53 -73 109 -166 181 -190 146 -17 -26 14 -191 41 -218 12 -12 173 -56 467 -128 409 -101 507 -125 746 -179 l77 -17 43 28 c149 97 228 182 228 246 0 32 -4 41 -25 51 -39 18 -129 -3 -260 -60 l-114 -50 -22 24 c-26 28 -58 30 -100 8 -17 -8 -32 -14 -34 -12 -2 2 1 25 6 52 9 50 5 80 -13 103 -16 20 -59 -9 -108 -71 -23 -31 -44 -56 -47 -56 -2 0 -1 27 3 59 9 81 -3 181 -25 210 -42 55 -97 -2 -148 -155 -21 -62 -28 -74 -34 -59 -5 11 -29 74 -55 140 -95 246 -206 454 -270 504 -33 26 -46 26 -68 2z" fill="url(#linear-gradient-2-11)" id="region-2-11" transform="translate(0.000000,548.000000) scale(0.100000,-0.100000)"/><path d="M3399 2767 c-80 -53 -136 -241 -147 -492 l-7 -140 -28 60 c-61 130 -125 158 -192 84 -20 -23 -45 -59 -54 -80 l-17 -38 -45 45 c-106 110 -225 186 -290 188 -77 2 -105 -62 -95 -214 9 -128 14 -162 40 -265 l22 -88 94 2 c52 1 214 6 360 11 146 6 391 14 545 20 260 9 398 14 1025 40 129 5 377 14 550 20 173 6 425 15 560 20 135 6 427 15 650 21 284 7 409 14 417 22 21 21 47 139 39 179 -18 98 -91 91 -205 -19 l-49 -48 -5 115 c-9 176 -43 278 -112 338 -53 47 -79 43 -145 -25 -66 -69 -132 -197 -204 -398 -6 -16 -12 -9 -31 38 -12 32 -28 64 -35 72 -31 37 -78 0 -134 -104 l-34 -63 -33 67 c-18 37 -52 87 -76 112 -36 37 -49 44 -75 41 -38 -4 -68 -43 -93 -121 -9 -29 -19 -59 -22 -67 -2 -8 -16 23 -29 69 -36 121 -80 204 -152 282 -126 137 -235 145 -349 27 -50 -52 -111 -146 -144 -222 -13 -30 -27 -56 -30 -56 -3 0 -11 12 -18 27 -19 42 -81 122 -102 134 -37 19 -109 -46 -174 -158 -11 -18 -23 -33 -27 -33 -4 0 -43 -24 -87 -54 l-79 -54 -21 57 c-40 110 -81 116 -157 23 -55 -68 -66 -74 -53 -30 15 54 11 146 -8 179 -17 28 -67 59 -96 59 -19 0 -82 -43 -112 -78 -13 -15 -41 -58 -61 -97 -21 -38 -39 -65 -40 -60 -2 6 -12 55 -24 111 -58 293 -154 494 -261 550 -43 22 -110 18 -150 -9z" fill="url(#linear-gradient-2-12)" id="region-2-12" transform="translate(0.000000,548.000000) scale(0.100000,-0.100000)"/><path d="M2122 2700 c-67 -41 -142 -199 -202 -427 -10 -39 -13 -42 -38 -37 -54 11 -90 -67 -99 -213 -3 -51 -8 -93 -10 -93 -2 0 -17 16 -34 35 -57 64 -88 42 -98 -67 -7 -85 13 -80 -176 -43 -249 50 -520 114 -980 231 -203 52 -396 97 -427 100 l-58 6 0 -555 0 -555 137 -7 c76 -3 192 -10 258 -15 432 -33 970 -36 1675 -10 473 17 1997 8 2415 -15 372 -20 554 -16 1280 25 235 14 900 57 1085 71 80 5 206 14 280 19 74 5 151 12 170 15 19 2 116 9 215 15 307 17 299 16 318 56 29 60 77 64 155 13 l43 -29 43 20 c42 20 43 22 59 98 35 158 90 232 175 232 104 0 183 -101 207 -264 l8 -48 36 6 c20 3 96 8 169 12 l132 7 0 352 0 352 -137 6 c-352 17 -1923 -10 -2993 -53 -146 -5 -404 -15 -575 -20 -170 -6 -416 -15 -545 -20 -643 -27 -766 -32 -1025 -40 -154 -6 -399 -14 -545 -20 -146 -5 -308 -10 -360 -11 l-95 -2 -24 104 c-13 57 -27 111 -31 120 -4 8 -18 50 -30 93 -64 227 -208 511 -283 557 -40 24 -54 24 -95 -1z" fill="url(#linear-gradient-2-13)" id="region-2-13" transform="translate(0.000000,548.000000) scale(0.100000,-0.100000)"/><path d="M8229 1543 c-40 -34 -74 -107 -96 -205 -16 -76 -17 -78 -59 -98 l-43 -20 -43 29 c-103 68 -159 38 -174 -93 -7 -54 -7 -55 -36 -49 -38 7 -65 -18 -80 -74 l-10 -43 -92 0 c-119 0 -184 -19 -225 -65 -24 -28 -31 -45 -31 -78 0 -23 4 -48 8 -55 5 -7 102 -31 218 -53 l209 -41 300 6 c294 5 467 19 618 51 39 8 93 15 120 15 l47 0 0 256 0 257 -132 -7 c-73 -4 -149 -9 -169 -12 l-36 -6 -8 48 c-16 113 -66 206 -129 245 -48 29 -117 26 -157 -8z" fill="url(#linear-gradient-2-14)" id="region-2-14" transform="translate(0.000000,548.000000) scale(0.100000,-0.100000)"/><path d="M374 1001 c-37 -17 -74 -66 -74 -99 0 -9 143 -22 244 -22 l49 0 -7 32 c-8 39 -40 76 -83 94 -43 19 -80 17 -129 -5z" fill="url(#linear-gradient-2-15)" id="region-2-15" transform="translate(0.000000,548.000000) scale(0.100000,-0.100000)"/><path d="M852 994 c-41 -29 -28 -44 38 -44 46 0 60 3 60 14 0 17 -38 46 -60 46 -9 0 -26 -7 -38 -16z" fill="url(#linear-gradient-2-16)" id="region-2-16" transform="translate(0.000000,548.000000) scale(0.100000,-0.100000)"/><path d="M2654 991 c-26 -12 -54 -49 -54 -73 0 -16 11 -18 109 -18 l110 0 -10 29 c-6 16 -19 37 -29 46 -22 20 -95 29 -126 16z" fill="url(#linear-gradient-2-17)" id="region-2-17" transform="translate(0.000000,548.000000) scale(0.100000,-0.100000)"/><path d="M5789 979 c-6 -13 -9 -62 -7 -130 1 -60 2 -109 2 -109 -1 0 -15 7 -30 15 -16 8 -39 15 -51 15 -19 0 -23 -6 -23 -30 0 -17 7 -44 15 -60 l16 -30 199 0 199 0 21 48 c12 26 24 64 27 85 5 35 4 37 -23 37 -18 0 -44 -12 -68 -32 -38 -31 -39 -32 -33 -8 3 14 11 53 18 87 27 142 -35 116 -105 -45 -11 -23 -22 -39 -26 -35 -4 4 -17 40 -29 78 -22 67 -62 135 -81 135 -5 0 -14 -9 -21 -21z" fill="url(#linear-gradient-2-18)" id="region-2-18" transform="translate(0.000000,548.000000) scale(0.100000,-0.100000)"/><path d="M1688 958 c-6 -13 -14 -65 -16 -116 -3 -51 -7 -92 -11 -90 -3 2 -28 15 -56 29 -27 15 -60 30 -72 33 -36 11 -29 -20 22 -97 l45 -67 142 0 c136 0 142 1 175 26 37 28 36 44 -4 44 -23 0 -24 3 -17 28 4 15 8 47 8 72 1 68 -23 65 -79 -10 l-45 -62 0 40 c0 92 -34 192 -65 192 -8 0 -20 -10 -27 -22z" fill="url(#linear-gradient-2-19)" id="region-2-19" transform="translate(0.000000,548.000000) scale(0.100000,-0.100000)"/><path d="M3403 930 c-32 -19 -63 -66 -63 -95 0 -13 21 -15 145 -15 162 0 165 2 125 68 -37 60 -143 82 -207 42z" fill="url(#linear-gradient-2-20)" id="region-2-20" transform="translate(0.000000,548.000000) scale(0.100000,-0.100000)"/><path d="M666 858 c-29 -42 -22 -48 59 -48 66 0 75 2 75 18 0 51 -104 74 -134 30z" fill="url(#linear-gradient-2-21)" id="region-2-21" transform="translate(0.000000,548.000000) scale(0.100000,-0.100000)"/><path d="M6833 789 c-35 -10 -73 -52 -73 -80 0 -17 9 -19 115 -19 126 0 129 2 95 57 -13 21 -31 35 -57 42 -21 6 -40 11 -43 10 -3 0 -19 -5 -37 -10z" fill="url(#linear-gradient-2-22)" id="region-2-22" transform="translate(0.000000,548.000000) scale(0.100000,-0.100000)"/></g><g id="layer-3"><path d="M7745 4858 c-2 -7 -8 -56 -14 -108 -10 -86 -49 -301 -56 -308 -1 -2 -10 18 -19 45 -19 54 -93 183 -105 183 -5 0 7 -36 26 -81 45 -103 69 -235 53 -287 -20 -61 -87 -179 -185 -322 -51 -74 -100 -150 -109 -168 l-17 -34 -61 109 c-33 59 -82 144 -109 188 -49 80 -78 175 -79 251 0 17 -3 47 -7 65 -6 27 -9 13 -13 -60 l-5 -93 -59 85 c-32 48 -68 94 -79 104 -23 20 -21 16 32 -67 37 -59 160 -274 157 -277 -1 -1 -30 4 -66 12 -103 20 -140 24 -140 15 0 -5 15 -11 33 -15 17 -4 70 -18 116 -31 l83 -25 81 -167 c74 -154 81 -175 93 -267 8 -55 14 -115 14 -133 l0 -32 -37 16 c-79 32 -200 55 -335 61 -148 7 -151 8 -207 79 -33 42 -34 23 -1 -29 l29 -47 -47 6 c-26 3 -64 7 -84 10 -36 4 -53 -9 -25 -19 6 -2 -5 -8 -25 -12 -72 -14 -37 -20 96 -17 140 4 331 -15 440 -43 32 -8 91 -30 131 -49 l73 -34 7 -208 c4 -115 5 -370 2 -566 -5 -349 -5 -357 15 -375 11 -10 36 -40 54 -68 34 -50 34 -50 34 -19 0 106 52 122 136 42 l31 -29 6 38 c12 71 7 116 -23 211 -96 298 -175 753 -181 1044 -3 91 -1 99 26 140 69 105 232 245 333 287 29 12 44 31 24 31 -4 0 -57 -25 -117 -54 -72 -36 -137 -78 -189 -122 l-79 -67 7 44 c22 141 207 344 404 443 30 15 52 29 50 32 -8 7 -108 -31 -185 -70 l-72 -36 34 80 c43 102 71 191 96 310 28 133 41 492 14 408z" fill="url(#linear-gradient-3-1)" id="region-3-1" transform="translate(0.000000,548.000000) scale(0.100000,-0.100000)"/><path d="M1135 4712 l0 -117 -66 -200 c-37 -110 -68 -209 -71 -220 -3 -14 -20 13 -55 85 -51 105 -160 281 -183 295 -7 5 -1 -12 14 -36 54 -86 154 -301 179 -382 19 -60 27 -114 31 -202 3 -66 11 -183 18 -260 7 -77 13 -270 13 -430 0 -252 -4 -324 -29 -550 -18 -161 -29 -319 -30 -413 l-1 -153 30 38 c32 41 72 82 95 98 13 9 14 104 9 735 -3 399 -9 737 -13 752 -7 24 -2 31 51 72 154 121 405 203 673 219 36 2 27 4 -39 11 l-83 9 36 20 c54 31 43 39 -16 12 -29 -13 -77 -30 -106 -39 -49 -14 -52 -14 -43 2 16 31 30 92 20 92 -5 0 -9 -6 -9 -13 0 -7 -13 -34 -29 -59 l-29 -45 -111 -28 c-109 -27 -223 -74 -283 -116 -17 -12 -33 -18 -38 -13 -5 5 -12 63 -16 129 l-6 120 56 229 c31 126 59 252 62 281 6 51 -12 195 -24 195 -4 0 -7 -53 -7 -118z" fill="url(#linear-gradient-3-2)" id="region-3-2" transform="translate(0.000000,548.000000) scale(0.100000,-0.100000)"/><path d="M4517 3718 c-3 -29 -11 -77 -17 -106 l-12 -53 -28 58 c-16 32 -38 69 -50 83 -16 19 -13 9 11 -40 21 -43 33 -85 37 -125 5 -72 -3 -92 -107 -250 l-69 -104 -53 92 c-77 135 -78 137 -88 213 l-8 69 -2 -60 -1 -60 -31 48 c-53 80 -51 52 1 -35 28 -46 50 -86 50 -91 0 -7 -24 -4 -72 10 -10 2 -18 1 -18 -4 0 -5 24 -15 53 -23 l52 -15 53 -106 54 -105 13 -325 c8 -178 15 -381 15 -450 0 -113 2 -128 20 -144 11 -10 30 -44 41 -76 l22 -59 28 21 c16 11 29 29 29 39 0 10 -18 143 -39 297 -22 153 -47 353 -57 445 l-17 167 29 42 c33 48 91 99 160 141 28 16 38 26 24 22 -49 -13 -123 -56 -168 -97 l-45 -42 6 32 c15 76 122 197 215 241 17 9 32 19 32 24 0 9 -32 -3 -90 -32 -22 -11 -40 -19 -40 -17 0 2 11 31 25 66 33 81 52 165 60 274 7 94 -8 125 -18 35z" fill="url(#linear-gradient-3-3)" id="region-3-3" transform="translate(0.000000,548.000000) scale(0.100000,-0.100000)"/><path d="M2122 2700 c-67 -41 -142 -199 -202 -427 -10 -39 -13 -42 -38 -37 -54 11 -90 -67 -99 -213 -3 -51 -8 -93 -10 -93 -2 0 -17 16 -34 35 -57 64 -87 43 -98 -69 l-7 -75 76 -7 c86 -8 858 1 867 10 7 7 -34 200 -47 227 -4 8 -18 50 -30 93 -64 227 -208 511 -283 557 -40 24 -54 24 -95 -1z" fill="url(#linear-gradient-3-4)" id="region-3-4" transform="translate(0.000000,548.000000) scale(0.100000,-0.100000)"/><path d="M3385 1656 c-24 -37 -61 -150 -76 -233 -7 -40 -16 -73 -19 -73 -3 0 -16 37 -28 83 -28 99 -81 211 -103 215 -25 5 -38 -40 -51 -181 l-12 -133 -55 33 c-67 40 -111 44 -111 10 0 -13 17 -52 39 -88 l39 -64 345 -3 345 -2 31 35 c17 20 31 42 31 50 0 25 -38 37 -96 29 -60 -7 -62 -5 -39 49 19 45 19 96 2 103 -24 9 -67 -15 -123 -67 l-54 -52 0 129 c0 127 -9 172 -37 181 -6 2 -19 -7 -28 -21z" fill="url(#linear-gradient-3-5)" id="region-3-5" transform="translate(0.000000,548.000000) scale(0.100000,-0.100000)"/><path d="M516 1641 c-49 -51 -68 -136 -74 -319 -4 -155 -5 -163 -21 -140 -39 58 -77 98 -93 98 -22 0 -45 -35 -53 -83 l-7 -37 -44 39 c-86 80 -124 66 -124 -45 l0 -73 33 -5 c17 -3 90 -8 162 -11 72 -4 191 -11 265 -16 203 -13 960 -24 960 -13 -1 17 -35 52 -70 70 -28 15 -56 19 -137 19 l-103 -1 0 49 c0 58 -23 117 -45 117 -20 0 -70 -51 -93 -94 l-16 -31 -13 75 c-17 102 -40 159 -69 172 -21 10 -28 8 -53 -16 -16 -16 -40 -53 -53 -84 -52 -120 -47 -111 -47 -75 -2 91 -56 275 -101 347 -56 88 -149 114 -204 57z" fill="url(#linear-gradient-3-6)" id="region-3-6" transform="translate(0.000000,548.000000) scale(0.100000,-0.100000)"/><path d="M5033 1501 c-44 -20 -67 -48 -78 -93 l-7 -28 156 0 c142 0 156 2 156 18 0 33 -40 83 -83 102 -53 25 -91 25 -144 1z" fill="url(#linear-gradient-3-7)" id="region-3-7" transform="translate(0.000000,548.000000) scale(0.100000,-0.100000)"/><path d="M8617 1269 c-49 -4 -91 -10 -93 -12 -3 -3 -4 -33 -2 -67 l3 -61 36 53 c69 103 124 101 124 -5 0 -29 -4 -69 -8 -90 l-8 -38 49 50 c45 47 52 51 95 51 l47 0 0 65 0 65 -77 -1 c-43 -1 -118 -5 -166 -10z" fill="url(#linear-gradient-3-8)" id="region-3-8" transform="translate(0.000000,548.000000) scale(0.100000,-0.100000)"/></g></svg>