<?xml version="1.0" encoding="utf-8"?>
<!-- Generator: Adobe Illustrator 26.5.0, SVG Export Plug-In . SVG Version: 6.00 Build 0)  -->
<svg version="1.1" id="图层_1" xmlns="http://www.w3.org/2000/svg" xmlns:xlink="http://www.w3.org/1999/xlink" x="0px" y="0px"
	 viewBox="0 0 3544 548" style="enable-background:new 0 0 3544 548;" xml:space="preserve">
<style type="text/css">
	.st0{fill:none;}
	.st1{fill:#D3D3D3;}
	.st2{fill:url(#SVGID_00000009587066259435959180000001919920546829508755_);}
	.st3{fill:url(#region-1-1_00000142161911276552265460000011505331878867102375_);}
	.st4{fill:url(#region-1-2_00000170259380938429191750000008198913071439437745_);}
	.st5{fill:url(#region-2-1_00000131330422014200985540000013755722849649116852_);}
	.st6{fill:url(#region-2-2_00000073718831680659304390000010258362365243433406_);}
	.st7{fill:url(#region-2-3_00000051372164788597432890000004356947674639386517_);}
	.st8{fill:url(#region-2-4_00000050643162159515861070000013859303849543522481_);}
	.st9{fill:url(#region-2-5_00000100382021909147530620000014504358238706772926_);}
	.st10{fill:url(#region-2-6_00000139295961949361232490000009027792842185167755_);}
	.st11{fill:url(#region-2-7_00000159449995100200505150000000963289313624899258_);}
	.st12{fill:url(#region-2-8_00000045620638707920416120000010016166946826409889_);}
	.st13{fill:url(#region-2-9_00000022536238405787678070000003581574429495893661_);}
	.st14{fill:url(#region-2-10_00000147908156745231253370000016697651432260200087_);}
	.st15{fill:url(#region-2-11_00000157271060746264600440000012635347359019735435_);}
	.st16{fill:url(#region-2-12_00000162334559380148852240000015585505304096990646_);}
	.st17{fill:url(#region-2-13_00000013915778617402823720000011057740735533196953_);}
	.st18{fill:url(#region-2-14_00000124846490003193408510000011135881608154757249_);}
	.st19{fill:url(#region-2-15_00000005955557164065436010000006933840783987335083_);}
	.st20{fill:url(#region-2-16_00000132046985846045897450000004478255648887280264_);}
	.st21{fill:url(#region-2-17_00000016754863618268423550000009634261352313576107_);}
	.st22{fill:url(#region-2-18_00000180350722215111813610000011190212052852656299_);}
	.st23{fill:url(#region-2-19_00000012439988925419590470000010341867134764880000_);}
	.st24{fill:url(#region-2-20_00000049190062688431702010000009810010838995640729_);}
	.st25{fill:url(#region-2-21_00000038382234213408788130000014496359711617456808_);}
	.st26{fill:url(#region-2-22_00000163765465135730785450000006428510114657190823_);}
	.st27{fill:url(#region-3-1_00000172408161046175865380000017374145362828027017_);}
	.st28{fill:url(#region-3-2_00000036947682089270499610000006168273640163673760_);}
	.st29{fill:url(#region-3-3_00000050630395630723316340000009620737750034507394_);}
	.st30{fill:url(#region-3-4_00000030451311623137939920000008929147374655875737_);}
	.st31{fill:url(#region-3-5_00000026134209450012430550000009083180885969856667_);}
	.st32{fill:url(#region-3-6_00000175312702915038732590000007551002280590514365_);}
	.st33{fill:url(#region-3-7_00000137100369980293213410000011407918306045114814_);}
	.st34{fill:url(#region-3-8_00000023962699380440553280000011649635492285099661_);}
	.st35{fill:url(#region-1-1_00000121244334435145439750000004143842463409472132_);}
	.st36{fill:url(#region-1-2_00000035496023392891524890000012585909155682312322_);}
	
		.st37{fill:url(#region-2-1_00000049943718775106057590000006928015796168718516_);stroke:#000000;stroke-width:2;stroke-miterlimit:10;}
	.st38{fill:url(#region-2-2_00000014616170414018575770000004561004964996479655_);}
	
		.st39{fill:url(#region-2-3_00000022520602319792136880000007691724549556001932_);stroke:#000000;stroke-width:2;stroke-miterlimit:10;}
	.st40{fill:url(#region-2-4_00000157271147124348876570000007115942281022504359_);}
	.st41{fill:url(#region-2-5_00000160868680038745787310000001346048285353845395_);}
	.st42{fill:url(#region-2-6_00000001653741974115764550000005765193835261335206_);}
	
		.st43{fill:url(#region-2-7_00000167387202488199278910000008186402322713605761_);stroke:#000000;stroke-width:2;stroke-miterlimit:10;}
	.st44{fill:url(#region-2-8_00000034060281090659619700000018319839269608310684_);}
	.st45{fill:url(#region-2-9_00000056386609799133182420000014486555308492796579_);}
	.st46{fill:url(#region-2-10_00000130615909229726891800000007334185595327608760_);}
	.st47{fill:url(#region-2-11_00000170975401880218317580000010604644081951360907_);}
	.st48{fill:url(#region-2-12_00000156576979710163721600000007288013581524322743_);}
	.st49{fill:url(#region-2-13_00000067943985380082735540000014548506369244728249_);}
	
		.st50{fill:url(#region-2-14_00000124847215685156971180000008287055828484004483_);stroke:#000000;stroke-width:2;stroke-miterlimit:10;}
	
		.st51{fill:url(#region-2-15_00000053544197442399825640000008735102187390333111_);stroke:#000000;stroke-width:2;stroke-miterlimit:10;}
	
		.st52{fill:url(#region-2-16_00000062879342191792126770000010268704387522300289_);stroke:#000000;stroke-width:2;stroke-miterlimit:10;}
	
		.st53{fill:url(#region-2-17_00000069382171247819317150000004020674700890278039_);stroke:#000000;stroke-width:2;stroke-miterlimit:10;}
	
		.st54{fill:url(#region-2-18_00000040556463482473502700000004003152442180206256_);stroke:#000000;stroke-width:2;stroke-miterlimit:10;}
	
		.st55{fill:url(#region-2-19_00000099661250720619307260000014246650231263298484_);stroke:#000000;stroke-width:2;stroke-miterlimit:10;}
	
		.st56{fill:url(#region-2-20_00000146475515143730360500000007784491757243707310_);stroke:#000000;stroke-width:2;stroke-miterlimit:10;}
	
		.st57{fill:url(#region-2-21_00000047043078801779604430000010370125529238300566_);stroke:#000000;stroke-width:2;stroke-miterlimit:10;}
	
		.st58{fill:url(#region-2-22_00000043431350568468201720000006054633677740476592_);stroke:#000000;stroke-width:2;stroke-miterlimit:10;}
	.st59{fill:url(#region-3-1_00000119090983337293777310000007029555722367166365_);}
	.st60{fill:url(#region-3-2_00000053528729972793536550000004556785267248560797_);}
	.st61{fill:url(#region-3-3_00000171681487489759139530000003176181501020517269_);}
	
		.st62{fill:url(#region-3-4_00000054981711018414965630000011214818771109481107_);stroke:#000000;stroke-width:2;stroke-miterlimit:10;}
	
		.st63{fill:url(#region-3-5_00000003823828028979252910000014427124293480701063_);stroke:#000000;stroke-width:2;stroke-miterlimit:10;}
	
		.st64{fill:url(#region-3-6_00000134949079638960762420000017877657858397054894_);stroke:#000000;stroke-width:2;stroke-miterlimit:10;}
	
		.st65{fill:url(#region-3-7_00000036252596439382679090000016804322390992842685_);stroke:#000000;stroke-width:2;stroke-miterlimit:10;}
	
		.st66{fill:url(#region-3-8_00000111904368400875152640000003061603225119765913_);stroke:#000000;stroke-width:2;stroke-miterlimit:10;}
	.st67{fill:none;stroke:#000000;stroke-width:3;stroke-miterlimit:10;}
</style>
<pattern  y="548" width="40" height="40" patternUnits="userSpaceOnUse" id="SVGID_1_" viewBox="0 -40 40 40" style="overflow:visible;">
	<g>
		<rect y="-40" class="st0" width="40" height="40"/>
		<g>
			<rect y="-40" class="st0" width="40" height="40"/>
			<rect y="-40" class="st0" width="40" height="40"/>
			<rect y="-20" class="st1" width="20" height="20"/>
			<rect x="20" y="-40" class="st1" width="20" height="20"/>
		</g>
	</g>
</pattern>
<g id="图层_2_00000159446026671940960260000007474129440904498309_">
	
		<pattern  id="SVGID_00000114780648690068072840000017560305045709752474_" xlink:href="#SVGID_1_" patternTransform="matrix(1 0 0 -1 1262 -17019.2402)">
	</pattern>
	<rect style="fill:url(#SVGID_00000114780648690068072840000017560305045709752474_);" width="3544" height="548"/>
</g>
<g id="图层_1_00000033361455268555619230000014715436523892500361_">
	<g id="layer-1">
		
			<linearGradient id="region-1-1_00000003795487916758119900000010318881236645737136_" gradientUnits="userSpaceOnUse" x1="1623.1052" y1="-0.5469" x2="1624.1935" y2="-1.2347" gradientTransform="matrix(886 0 0 -365.3 -1438125 -164.7287)">
			<stop  offset="0" style="stop-color:#98CDD7;stop-opacity:0.993"/>
			<stop  offset="1" style="stop-color:#B6FCFF;stop-opacity:0.993"/>
		</linearGradient>
		<path id="region-1-1" style="fill:url(#region-1-1_00000003795487916758119900000010318881236645737136_);" d="M0,164.5V329
			l4.3,0.1c2.3,0,4.9,0.2,5.7,0.5c25.5,7.2,110.3,27.6,136.5,32.9c18.9,3.7,16.9,4.2,17.6-4.3c1-10.9,4.1-13.1,9.8-6.7
			c1.7,1.9,3.2,3.5,3.4,3.5s0.7-4.2,1-9.3c0.9-14.6,4.5-22.4,9.9-21.3c2.5,0.5,2.8,0.2,3.8-3.7c2.3-9,7.4-23.5,10.2-29.2
			c4-8.1,7.3-12.3,11.4-14.2c3.1-1.5,3.7-1.5,6.9,0c1.9,0.9,4.8,3.6,6.6,5.9c7.7,10.7,18.3,34,22.9,50.4c1.2,4.3,2.6,8.5,3,9.3
			c0.4,0.9,1.8,6.3,3.1,12l2.4,10.4l9.5-0.2c5.2-0.1,21.4-0.6,36-1.1c14.6-0.6,39.1-1.4,54.5-2c25.9-0.8,38.2-1.3,102.5-4
			c12.9-0.5,37.5-1.4,54.5-2c17.1-0.5,43.2-1.5,58-2.1c84-3.3,221.6-6.1,270.3-5.6l42.2,0.4V174.4V0H443H0V164.5z"/>
		
			<linearGradient id="region-1-2_00000128455712933465071010000004923702191417789062_" gradientUnits="userSpaceOnUse" x1="1623.6472" y1="-0.9355" x2="1623.6793" y2="-2.0481" gradientTransform="matrix(886 0 0 -271.8877 -1438125 18.0186)">
			<stop  offset="0" style="stop-color:#9AC345"/>
			<stop  offset="1" style="stop-color:#98BF49"/>
		</linearGradient>
		<path id="region-1-2" style="fill:url(#region-1-2_00000128455712933465071010000004923702191417789062_);" d="M212.2,278
			c-6.7,4.1-14.2,19.9-20.2,42.7c-1,3.9-1.3,4.2-3.8,3.7c-5.4-1.1-9,6.7-9.9,21.3c-0.3,5.1-0.8,9.3-1,9.3s-1.7-1.6-3.4-3.5
			c-5.7-6.4-8.8-4.2-9.8,6.7c-0.7,8.5,1.3,8-17.6,4.3c-24.9-5-52-11.4-98-23.1c-20.3-5.2-39.6-9.7-42.7-10L0,328.8v109.6V548h443
			h443v-99.3v-99.4l-13.7-0.6c-35.2-1.7-192.3,1-299.3,5.3c-14.6,0.5-40.4,1.5-57.5,2c-17,0.6-41.6,1.5-54.5,2
			c-64.3,2.7-76.6,3.2-102.5,4c-15.4,0.6-39.9,1.4-54.5,2c-14.6,0.5-30.8,1-36,1.1l-9.5,0.2l-2.4-10.4c-1.3-5.7-2.7-11.1-3.1-12
			c-0.4-0.8-1.8-5-3-9.3c-6.4-22.7-20.8-51.1-28.3-55.7C217.7,275.5,216.3,275.5,212.2,278z"/>
	</g>
	<g id="layer-2">
		
			<linearGradient id="region-2-1_00000018220820910714793910000013545196528224568965_" gradientUnits="userSpaceOnUse" x1="1603.8979" y1="-21.0222" x2="1604.2321" y2="-22.5506" gradientTransform="matrix(76 0 0 -24 -121079 -483)">
			<stop  offset="0" style="stop-color:#FFFFFF;stop-opacity:0.817"/>
			<stop  offset="1" style="stop-color:#FFFFFF;stop-opacity:0.804"/>
		</linearGradient>
		<path id="region-2-1" style="fill:url(#region-2-1_00000018220820910714793910000013545196528224568965_);" d="M823.5,24.5
			c-2.2,0.8-5.6,3.2-7.5,5.3c-3,3.5-3.9,3.9-6.8,3.5c-6.6-1.1-13.2,4.1-13.2,10.3V47h38c33.6,0,38-0.2,38-1.5c0-2.7-4.7-6.5-7.9-6.5
			c-2.1,0-3.5-0.7-4.6-2.4c-2.1-3.2-7.4-5.6-12.2-5.6c-2.7,0-4.2-0.6-5-1.9c-1.5-2.3-9.1-6.1-12.4-6.1
			C828.6,23.1,825.7,23.7,823.5,24.5z"/>
		
			<linearGradient id="region-2-2_00000017511266067814711420000017703390646646774975_" gradientUnits="userSpaceOnUse" x1="1615.262" y1="-2.0644" x2="1615.262" y2="-3.0644" gradientTransform="matrix(158.7196 0 0 -172.9672 -256234.875 -323.5341)">
			<stop  offset="0" style="stop-color:#88A700;stop-opacity:0.629"/>
			<stop  offset="1" style="stop-color:#83990B;stop-opacity:0.824"/>
		</linearGradient>
		<path id="region-2-2" style="fill:url(#region-2-2_00000017511266067814711420000017703390646646774975_);" d="M116.9,34
			c-6.5,1.1-8.4,2.3-16.9,10.5c-8.2,7.9-12.8,10.1-18.8,9c-3.7-0.6-16.3-4.9-19.3-6.5c-2-1-2.4,3.3-2.4,24
			c0.1,21.8,4.1,36.4,13.7,50.1c7.6,10.8,7.8,11.2,7.8,16.1c0,2.6-0.7,7.7-1.6,11.5c-0.9,3.7-1.7,10.8-1.7,15.8
			c-0.1,7.7,0.3,9.8,2.5,14.7c4,8.7,10.7,15.2,20.2,19.7c12.3,5.8,20.1,7.5,34.1,7.6c10.7,0,12.5-0.3,16.9-2.4
			c7.2-3.6,13.2-10.3,21.6-24.2c10.1-16.9,15-21.9,27-27.6c9.1-4.3,19.9-12.6,18-13.8c-0.5-0.3-2.3-3.1-4.1-6.1
			c-5-8.8-14.4-19.8-21.2-25c-3.4-2.5-11.1-7-17.2-9.8c-17-8.1-20.7-13.4-27-38.7c-4-15.8-6.9-22.1-11.2-23.7
			C133.3,33.7,122.3,33,116.9,34z"/>
		
			<linearGradient id="region-2-3_00000088812137366669741880000000872030014008730768_" gradientUnits="userSpaceOnUse" x1="1604.3512" y1="-21.8619" x2="1604.4034" y2="-23.0209" gradientTransform="matrix(77 0 0 -23.162 -123286 -471.9695)">
			<stop  offset="0" style="stop-color:#FFFFFF;stop-opacity:0.827"/>
			<stop  offset="1" style="stop-color:#FFFFFF;stop-opacity:0.815"/>
		</linearGradient>
		<path id="region-2-3" style="fill:url(#region-2-3_00000088812137366669741880000000872030014008730768_);" d="M243.3,35.2
			c-3,0.7-5.2,2.1-8.2,5.3c-3.9,4.3-4.4,4.5-9.5,4.5c-4.9,0-5.7,0.3-8.5,3.5c-2,2.3-3.1,4.6-3.1,6.5v3h38.5
			c21.2,0,38.5-0.4,38.5-0.9c0-2.3-4.4-6.1-7.8-6.7c-2-0.4-5.3-2.1-7.3-3.9c-3.6-3.2-10.6-5.4-12.8-4.1c-0.6,0.4-1.5-0.2-2-1.2
			C258.7,36.6,250.3,33.8,243.3,35.2z"/>
		
			<linearGradient id="region-2-4_00000047758959113758213850000018364979860677340843_" gradientUnits="userSpaceOnUse" x1="1617.6144" y1="-1.6618" x2="1618.2488" y2="-2.7614" gradientTransform="matrix(217.6419 0 0 -195.6974 -351418 -295.0072)">
			<stop  offset="0" style="stop-color:#829B00;stop-opacity:0.698"/>
			<stop  offset="1" style="stop-color:#839D0C;stop-opacity:0.825"/>
		</linearGradient>
		<path id="region-2-4" style="fill:url(#region-2-4_00000047758959113758213850000018364979860677340843_);" d="M706.2,40.5
			c-7.4,1.7-15.5,5.2-21.4,9.4c-4.5,3.2-15.2,12.7-13,11.6c1-0.5,1.1,0.3,0.5,3.7c-1.7,9.4-0.8,16.8,3.7,29.8
			c4.1,12,4.3,12.7,3.2,18c-1.4,6.6-7.6,16.2-16.9,26c-6.9,7.3-10.1,9.4-19.8,13.1c-10,3.7-14.2,9-16.5,20.6
			c-0.7,3.4-1.1,10.2-0.8,15.1c0.7,16,7.8,26.4,20.1,29.2c7.7,1.9,10.2,3.5,14.7,9.4c4.9,6.4,8.9,8.6,16.2,8.6
			c6.4,0,13.2-3,22.8-9.9c18.1-13.2,33-15.9,65-12.1c35.1,4.2,51.8,1.6,65.7-10.4c5.5-4.8,10.7-15.3,12.3-24.8
			c1.3-7.5,0.8-27.2-0.8-33.3c-1.3-4.8-9.6-7.6-24.9-8.4c-13.2-0.7-15.3-1.5-19.7-7.5c-1.8-2.3-2.2-4.8-2.7-17.9
			c-0.8-16.2-2.8-26.5-7.3-36.3c-7.2-15.6-19.1-26.3-35.7-31.9c-7.5-2.5-10.1-2.8-23.4-3.1C717.1,39.1,710.6,39.5,706.2,40.5z"/>
		
			<linearGradient id="region-2-5_00000036248904119389238340000008880532340949621663_" gradientUnits="userSpaceOnUse" x1="1616.5295" y1="-1.5481" x2="1617.5348" y2="-2.5465" gradientTransform="matrix(193.033 0 0 -212.3769 -312023.6562 -272.0549)">
			<stop  offset="0" style="stop-color:#7D9200;stop-opacity:0.626"/>
			<stop  offset="1" style="stop-color:#7F9918;stop-opacity:0.844"/>
		</linearGradient>
		<path id="region-2-5" style="fill:url(#region-2-5_00000036248904119389238340000008880532340949621663_);" d="M51.4,45.9
			C36.6,49.5,30,64.9,30,95.3c0.1,27,6.3,48.6,18.7,64.7c2.7,3.6,5.5,7.5,6.1,8.7c1.7,3.1,1.5,8.6-0.7,18.8
			c-5.4,25.1-2.8,38,10.1,50.9c7.3,7.3,19,13.5,30.3,16.1c3.9,0.9,8.6,2.1,10.6,2.7c5.2,1.5,26.3,0.5,31.8-1.6
			c10.2-3.8,18.3-12.7,30.2-33.1c9.2-15.8,17.4-23.7,29.7-28.9c11.6-4.8,17.9-10.3,22.4-19.3c4.3-8.8,5.1-20,1.8-28.6
			c-1.2-3.1-2.5-5.7-2.9-5.7s-2.3,1.6-4.2,3.6c-2,2.1-7.5,5.6-13.4,8.4c-12.6,6.1-17.3,10.8-27.5,27.9
			c-8.4,13.9-14.4,20.6-21.6,24.2c-4.4,2.1-6.2,2.4-16.9,2.4c-14-0.1-21.8-1.8-34.1-7.6c-9.5-4.5-16.2-11-20.2-19.7
			c-2.2-4.9-2.6-7-2.5-14.7c0-5,0.8-12.1,1.7-15.8c0.9-3.8,1.6-8.9,1.6-11.5c0-4.9-0.2-5.3-7.7-16C64.2,108.3,60.2,94.6,59.4,74
			c-0.3-7.4-0.2-16.3,0.4-19.7c0.5-3.4,0.6-6.7,0.3-7.2C59.2,45.7,54.9,45.1,51.4,45.9z"/>
		
			<linearGradient id="region-2-6_00000051372117166436683590000000367884892405504931_" gradientUnits="userSpaceOnUse" x1="1619.4991" y1="-1.4025" x2="1619.4991" y2="-2.4025" gradientTransform="matrix(270.8015 0 0 -220.6125 -437840.4375 -248.1069)">
			<stop  offset="0" style="stop-color:#798D00;stop-opacity:0.771"/>
			<stop  offset="1" style="stop-color:#7D9518;stop-opacity:0.806"/>
		</linearGradient>
		<path id="region-2-6" style="fill:url(#region-2-6_00000051372117166436683590000000367884892405504931_);" d="M669.8,63.8
			c-8.3,8.7-18.3,30.7-22.4,49.6c-2.9,13.1-3.8,15.4-7.5,20.6c-3.2,4.4-8.5,7.5-16.7,9.6c-8.1,2.1-14.5,6-20.7,12.5
			c-9.9,10.4-15.4,27-15.5,46.4c0,19.4,4.7,29,19.5,40c4,2.9,9.2,7.7,11.6,10.7c13.6,16.5,24.8,24.1,40.1,27.2
			c22.4,4.6,51.2-1.6,70.1-15c2.6-1.9,5-3.4,5.3-3.4s3.3-1.8,6.6-4.1c8-5.2,12.9-6,33.3-5.3c30.2,1.2,54.1-4,67.6-14.6
			c5.3-4.3,11.5-13.9,13.9-21.9c2.6-8.3,3.6-23.3,2.1-33.1c-0.6-4.1-1.6-11.1-2.2-15.4c-1.3-10-3.9-16.2-8.9-21.1
			c-2.2-2.1-4.2-3.7-4.4-3.4c-0.2,0.2,0,3.8,0.4,7.9c4.2,35.8-6.9,56.1-34.2,62.5c-8.7,2-24.2,1.9-43.8-0.5
			c-32-3.8-46.9-1.1-65,12.1c-9.6,6.9-16.4,9.9-22.8,9.9c-7.3,0-11.3-2.2-16.2-8.6c-4.5-5.9-7-7.5-14.7-9.4
			c-7.8-1.8-12.5-5.7-16.4-13.6c-2.8-5.6-3.4-8-3.7-15.6c-0.3-4.9,0.1-11.7,0.8-15.1c2.3-11.6,6.5-16.9,16.5-20.6
			c9.7-3.7,12.9-5.8,19.8-13.1c9.3-9.8,15.5-19.4,16.9-26c1.1-5.3,0.9-6-3-17.5c-4.9-14.3-5.8-20-4.3-27.9c0.6-3.3,1-6.1,0.8-6.3
			C672.5,61.2,671.2,62.3,669.8,63.8z"/>
		
			<linearGradient id="region-2-7_00000158708047170455191920000017740398216448416188_" gradientUnits="userSpaceOnUse" x1="1612.4777" y1="-12.9819" x2="1612.4777" y2="-13.9819" gradientTransform="matrix(124.7877 0 0 -37.9087 -200894.7812 -406.0294)">
			<stop  offset="0" style="stop-color:#FFFFFF;stop-opacity:0.816"/>
			<stop  offset="1" style="stop-color:#FFFFFF;stop-opacity:0.828"/>
		</linearGradient>
		<path id="region-2-7" style="fill:url(#region-2-7_00000158708047170455191920000017740398216448416188_);" d="M323.5,86.9
			c-5.4,1.3-10.4,4.2-13.9,8.1c-3.2,3.6-3.7,3.8-9.4,3.7c-7.4,0-14,3-18.4,8.4c-2.6,3.2-3.8,3.9-6.7,3.9c-4.7,0-10,2.9-12.8,7
			c-4.4,6.4-8.3,6,60.2,6H385v-3.3c-0.1-7.4-6.1-15.3-13.6-17.7c-3.5-1.2-10.1-1-13.5,0.4c-1,0.5-1.9-0.1-2.6-1.7
			c-3.7-8-15.8-15.8-24.3-15.6C328.5,86.2,325.2,86.5,323.5,86.9z"/>
		
			<linearGradient id="region-2-8_00000154419832675195046290000012712913580023500430_" gradientUnits="userSpaceOnUse" x1="1610.051" y1="-2.6169" x2="1610.051" y2="-3.6169" gradientTransform="matrix(105.1873 0 0 -146.532 -168930.625 -268.1484)">
			<stop  offset="0" style="stop-color:#687400;stop-opacity:0.695"/>
			<stop  offset="1" style="stop-color:#666F00;stop-opacity:0.825"/>
		</linearGradient>
		<path id="region-2-8" style="fill:url(#region-2-8_00000154419832675195046290000012712913580023500430_);" d="M428.5,115.5
			c-0.5,0.2-2.2,0.6-3.8,0.9c-4.5,1-10.4,7.3-14.7,15.5c-2.9,5.6-5.2,8.5-8.7,11.1c-6,4.4-10.5,10.4-13.5,17.7
			c-2.1,5.3-2.3,7.3-2.4,24.8c0,10.4-0.1,19.8-0.2,20.7s-2.7,4.4-5.8,7.8l-5.7,6l0.7,8.3c0.9,11.2,3.1,18.4,6.7,21.9l2.9,3l10.3-0.6
			c5.6-0.3,16.6-0.9,24.5-1.2l14.2-0.6l7.8,5.7c7.6,5.5,7.8,5.6,13.3,5.2c3-0.3,7.4-1.4,9.6-2.5c6-3.1,11.9-10.4,13.9-17
			c2.6-9.1,1.5-14.3-5.5-27.6c-5.8-10.8-6.1-11.7-6.1-18.4c0-5.5,0.8-9.5,4-18.9c2.8-8.3,4-13.5,4-17.6c0-3.7,0.4-5.6,1-5.2
			c2.1,1.3-17.6-22.1-23.2-27.7C444.6,119.7,433.1,114.2,428.5,115.5z"/>
		
			<linearGradient id="region-2-9_00000119099350519535569530000008288135992053785217_" gradientUnits="userSpaceOnUse" x1="1612.4576" y1="-3.6065" x2="1613.8551" y2="-3.9921" gradientTransform="matrix(130.4372 0 0 -123.2164 -209967.875 -252.8136)">
			<stop  offset="0" style="stop-color:#596903;stop-opacity:0.787"/>
			<stop  offset="1" style="stop-color:#515E00;stop-opacity:0.819"/>
		</linearGradient>
		<path id="region-2-9" style="fill:url(#region-2-9_00000119099350519535569530000008288135992053785217_);" d="M474,159.7
			c0,4.1-1.2,9.3-4,17.6c-3.2,9.4-4,13.4-4,18.9c0,6.7,0.3,7.6,6.1,18.4c7,13.3,8.1,18.5,5.5,27.6c-2,6.6-7.9,13.9-13.9,17
			c-2.2,1.1-6.6,2.2-9.6,2.5c-5.5,0.4-5.7,0.3-13.3-5.2l-7.8-5.7l-14.2,0.6c-7.9,0.3-18.9,0.9-24.5,1.2l-10.3,0.6l-2.9-3
			c-3.6-3.5-5.8-10.7-6.7-22l-0.7-8.3l-2.3,2.2c-3.8,3.5-4.8,10.4-2.9,18.5c2.1,8.6,5.1,13.8,10.8,19.1
			c11.7,10.8,35.5,17.4,63.2,17.5c11.4,0.1,14-0.2,21-2.5c22.4-7.4,34.5-21,34.5-39c0-10.8-1.3-13.9-8.6-21.7
			c-8.6-9.1-9.1-11.1-5.8-22.4c3.2-10.9,3-18.6-0.9-26.7c-2.2-4.7-6.9-10.9-8.2-10.9C474.2,154,474,156.6,474,159.7z"/>
		
			<linearGradient id="region-2-10_00000042010455897446098840000009668875950059632547_" gradientUnits="userSpaceOnUse" x1="1617.1462" y1="-4.5757" x2="1617.3658" y2="-5.8091" gradientTransform="matrix(197.5 0 0 -93.9328 -318624 -179.8928)">
			<stop  offset="0" style="stop-color:#90B12A;stop-opacity:0.569"/>
			<stop  offset="1" style="stop-color:#8CA400;stop-opacity:0.789"/>
		</linearGradient>
		<path id="region-2-10" style="fill:url(#region-2-10_00000042010455897446098840000009668875950059632547_);" d="M781,256.7
			c-2.6,0.9-7.1,5.6-9,9.3c-4.3,8.3-8.1,25.9-10,45.5c-0.6,6.6-1.3,14.4-1.6,17.4l-0.6,5.3l-3.1-3c-8.5-8-13.7-6.4-13.7,4.2v3.1
			l-2.6-4c-4.6-6.9-8.5-10.5-11.6-10.5c-2.2,0-2.9,0.6-3.5,2.7c-0.6,2.6,1.5,15.2,3.2,19.6c0.5,1.2-1.7,0.3-7.3-3.1
			c-9.5-5.8-23-10.5-28.7-10l-4,0.3l0.1,4.6c0,2.9,0.8,5.8,2.3,8.3l2.4,3.7l41.6-0.8c22.9-0.4,66.2-0.8,96.4-0.8H886v-29.8
			c0-26.9-0.2-29.9-1.6-29.3c-0.9,0.3-2.8,0.6-4.4,0.6c-2.4,0-3.2,0.9-6.3,6.7c-1.9,3.8-4.7,10.6-6.3,15.3l-2.8,8.4l-1.1-4.9
			c-0.7-2.8-1.7-6.1-2.3-7.5c-1.2-3-5.9-7.5-8.7-8.4c-3.5-1-8.4,2.9-10.9,8.7c-1.3,2.8-2.8,6.3-3.4,7.7c-1,2.4-1.1,2.4-1.1-1.1
			c-0.1-5.8-2.2-15.1-4.2-19c-2.1-4.1-4.8-5.5-7.7-4c-2.7,1.4-7.6,11.2-10.8,21.6l-2.8,8.9l-1.7-12.1c-4.3-29.5-12.4-48.7-22.6-52.9
			C783.8,255.9,783.3,255.9,781,256.7z"/>
		
			<linearGradient id="region-2-11_00000118388246624918352290000005773473000957584278_" gradientUnits="userSpaceOnUse" x1="1615.3873" y1="-4.3988" x2="1615.3873" y2="-5.3988" gradientTransform="matrix(160.6856 0 0 -98.1757 -259482.8125 -168.7285)">
			<stop  offset="0" style="stop-color:#697500;stop-opacity:0.641"/>
			<stop  offset="1" style="stop-color:#697501;stop-opacity:0.822"/>
		</linearGradient>
		<path id="region-2-11" style="fill:url(#region-2-11_00000118388246624918352290000005773473000957584278_);" d="M35.6,264.9
			c-4.4,4.8-7.2,27-6.3,49.3c0.2,7.1,0.4,12.8,0.2,12.8c-0.1,0-1.8-2.4-3.7-5.3c-7.3-10.9-16.6-18.1-19-14.6
			c-1.7,2.6,1.4,19.1,4.1,21.8c1.2,1.2,17.3,5.6,46.7,12.8c40.9,10.1,50.7,12.5,74.6,17.9l7.7,1.7l4.3-2.8
			c14.9-9.7,22.8-18.2,22.8-24.6c0-3.2-0.4-4.1-2.5-5.1c-3.9-1.8-12.9,0.3-26,6l-11.4,5l-2.2-2.4c-2.6-2.8-5.8-3-10-0.8
			c-1.7,0.8-3.2,1.4-3.4,1.2c-0.2-0.2,0.1-2.5,0.6-5.2c0.9-5,0.5-8-1.3-10.3c-1.6-2-5.9,0.9-10.8,7.1c-2.3,3.1-4.4,5.6-4.7,5.6
			c-0.2,0-0.1-2.7,0.3-5.9c0.9-8.1-0.3-18.1-2.5-21c-4.2-5.5-9.7,0.2-14.8,15.5c-2.1,6.2-2.8,7.4-3.4,5.9c-0.5-1.1-2.9-7.4-5.5-14
			c-9.5-24.6-20.6-45.4-27-50.4C39.1,262.5,37.8,262.5,35.6,264.9z"/>
		
			<linearGradient id="region-2-12_00000086680975130143739570000009052863972294524034_" gradientUnits="userSpaceOnUse" x1="1621.6893" y1="-4.4789" x2="1621.7583" y2="-5.8321" gradientTransform="matrix(430.5432 0 0 -96.3197 -697755.5 -164.724)">
			<stop  offset="0" style="stop-color:#667200;stop-opacity:0.642"/>
			<stop  offset="1" style="stop-color:#677100;stop-opacity:0.858"/>
		</linearGradient>
		<path id="region-2-12" style="fill:url(#region-2-12_00000086680975130143739570000009052863972294524034_);" d="M339.9,271.3
			c-8,5.3-13.6,24.1-14.7,49.2l-0.7,14l-2.8-6c-6.1-13-12.5-15.8-19.2-8.4c-2,2.3-4.5,5.9-5.4,8l-1.7,3.8l-4.5-4.5
			c-10.6-11-22.5-18.6-29-18.8c-7.7-0.2-10.5,6.2-9.5,21.4c0.9,12.8,1.4,16.2,4,26.5l2.2,8.8l9.4-0.2c5.2-0.1,21.4-0.6,36-1.1
			c14.6-0.6,39.1-1.4,54.5-2c26-0.9,39.8-1.4,102.5-4c12.9-0.5,37.7-1.4,55-2c17.3-0.6,42.5-1.5,56-2c13.5-0.6,42.7-1.5,65-2.1
			c28.4-0.7,40.9-1.4,41.7-2.2c2.1-2.1,4.7-13.9,3.9-17.9c-1.8-9.8-9.1-9.1-20.5,1.9l-4.9,4.8l-0.5-11.5
			c-0.9-17.6-4.3-27.8-11.2-33.8c-5.3-4.7-7.9-4.3-14.5,2.5c-6.6,6.9-13.2,19.7-20.4,39.8c-0.6,1.6-1.2,0.9-3.1-3.8
			c-1.2-3.2-2.8-6.4-3.5-7.2c-3.1-3.7-7.8,0-13.4,10.4l-3.4,6.3l-3.3-6.7c-1.8-3.7-5.2-8.7-7.6-11.2c-3.6-3.7-4.9-4.4-7.5-4.1
			c-3.8,0.4-6.8,4.3-9.3,12.1c-0.9,2.9-1.9,5.9-2.2,6.7c-0.2,0.8-1.6-2.3-2.9-6.9c-3.6-12.1-8-20.4-15.2-28.2
			c-12.6-13.7-23.5-14.5-34.9-2.7c-5,5.2-11.1,14.6-14.4,22.2c-1.3,3-2.7,5.6-3,5.6s-1.1-1.2-1.8-2.7c-1.9-4.2-8.1-12.2-10.2-13.4
			c-3.7-1.9-10.9,4.6-17.4,15.8c-1.1,1.8-2.3,3.3-2.7,3.3c-0.4,0-4.3,2.4-8.7,5.4l-7.9,5.4l-2.1-5.7c-4-11-8.1-11.6-15.7-2.3
			c-5.5,6.8-6.6,7.4-5.3,3c1.5-5.4,1.1-14.6-0.8-17.9c-1.7-2.8-6.7-5.9-9.6-5.9c-1.9,0-8.2,4.3-11.2,7.8c-1.3,1.5-4.1,5.8-6.1,9.7
			c-2.1,3.8-3.9,6.5-4,6c-0.2-0.6-1.2-5.5-2.4-11.1c-5.8-29.3-15.4-49.4-26.1-55C350.6,268.2,343.9,268.6,339.9,271.3z"/>
		
			<linearGradient id="region-2-13_00000096780867462645658230000003450900961538775994_" gradientUnits="userSpaceOnUse" x1="1623.5836" y1="-2.0796" x2="1623.7935" y2="-3.9786" gradientTransform="matrix(886 0 0 -169.5567 -1438125 -84.3194)">
			<stop  offset="0" style="stop-color:#757F24;stop-opacity:0.425"/>
			<stop  offset="1" style="stop-color:#72901F;stop-opacity:0.569"/>
		</linearGradient>
		<path id="region-2-13" style="fill:url(#region-2-13_00000096780867462645658230000003450900961538775994_);" d="M212.2,278
			c-6.7,4.1-14.2,19.9-20.2,42.7c-1,3.9-1.3,4.2-3.8,3.7c-5.4-1.1-9,6.7-9.9,21.3c-0.3,5.1-0.8,9.3-1,9.3s-1.7-1.6-3.4-3.5
			c-5.7-6.4-8.8-4.2-9.8,6.7c-0.7,8.5,1.3,8-17.6,4.3c-24.9-5-52-11.4-98-23.1c-20.3-5.2-39.6-9.7-42.7-10L0,328.8v55.5v55.5
			l13.7,0.7c7.6,0.3,19.2,1,25.8,1.5c43.2,3.3,97,3.6,167.5,1c47.3-1.7,199.7-0.8,241.5,1.5c37.2,2,55.4,1.6,128-2.5
			c23.5-1.4,90-5.7,108.5-7.1c8-0.5,20.6-1.4,28-1.9s15.1-1.2,17-1.5c1.9-0.2,11.6-0.9,21.5-1.5c30.7-1.7,29.9-1.6,31.8-5.6
			c2.9-6,7.7-6.4,15.5-1.3l4.3,2.9l4.3-2c4.2-2,4.3-2.2,5.9-9.8c3.5-15.8,9-23.2,17.5-23.2c10.4,0,18.3,10.1,20.7,26.4l0.8,4.8
			l3.6-0.6c2-0.3,9.6-0.8,16.9-1.2l13.2-0.7v-35.2v-35.2l-13.7-0.6c-35.2-1.7-192.3,1-299.3,5.3c-14.6,0.5-40.4,1.5-57.5,2
			c-17,0.6-41.6,1.5-54.5,2c-64.3,2.7-76.6,3.2-102.5,4c-15.4,0.6-39.9,1.4-54.5,2c-14.6,0.5-30.8,1-36,1.1l-9.5,0.2l-2.4-10.4
			c-1.3-5.7-2.7-11.1-3.1-12c-0.4-0.8-1.8-5-3-9.3c-6.4-22.7-20.8-51.1-28.3-55.7C217.7,275.5,216.3,275.5,212.2,278z"/>
		
			<linearGradient id="region-2-14_00000010309182743679923490000009919182179620617144_" gradientUnits="userSpaceOnUse" x1="1614.7496" y1="-5.0308" x2="1614.8533" y2="-6.1287" gradientTransform="matrix(152 0 0 -87.2805 -244641 -51.7969)">
			<stop  offset="0" style="stop-color:#575F1E;stop-opacity:0.511"/>
			<stop  offset="1" style="stop-color:#5B6323;stop-opacity:0.578"/>
		</linearGradient>
		<path id="region-2-14" style="fill:url(#region-2-14_00000010309182743679923490000009919182179620617144_);" d="M822.9,393.7
			c-4,3.4-7.4,10.7-9.6,20.5c-1.6,7.6-1.7,7.8-5.9,9.8l-4.3,2l-4.3-2.9c-10.3-6.8-15.9-3.8-17.4,9.3c-0.7,5.4-0.7,5.5-3.6,4.9
			c-3.8-0.7-6.5,1.8-8,7.4l-1,4.3h-9.2c-11.9,0-18.4,1.9-22.5,6.5c-2.4,2.8-3.1,4.5-3.1,7.8c0,2.3,0.4,4.8,0.8,5.5
			c0.5,0.7,10.2,3.1,21.8,5.3l20.9,4.1l30-0.6c29.4-0.5,46.7-1.9,61.8-5.1c3.9-0.8,9.3-1.5,12-1.5h4.7v-25.6v-25.7l-13.2,0.7
			c-7.3,0.4-14.9,0.9-16.9,1.2l-3.6,0.6l-0.8-4.8c-1.6-11.3-6.6-20.6-12.9-24.5C833.8,390,826.9,390.3,822.9,393.7z"/>
		
			<linearGradient id="region-2-15_00000072244774071557814500000014249684590465910704_" gradientUnits="userSpaceOnUse" x1="1569.423" y1="-37.3697" x2="1570.564" y2="-37.9306" gradientTransform="matrix(29.3 0 0 -13.8987 -45957.5 -69.9952)">
			<stop  offset="0" style="stop-color:#DFC6D8;stop-opacity:0.739"/>
			<stop  offset="1" style="stop-color:#E6C9E1;stop-opacity:0.772"/>
		</linearGradient>
		<path id="region-2-15" style="fill:url(#region-2-15_00000072244774071557814500000014249684590465910704_);" d="M37.4,447.9
			c-3.7,1.7-7.4,6.6-7.4,9.9c0,0.9,14.3,2.2,24.4,2.2h4.9l-0.7-3.2c-0.8-3.9-4-7.6-8.3-9.4C46,445.5,42.3,445.7,37.4,447.9z"/>
		
			<linearGradient id="region-2-16_00000054256293330150960150000012585158076730975371_" gradientUnits="userSpaceOnUse" x1="1491.649" y1="-87.3333" x2="1491.649" y2="-88.3333" gradientTransform="matrix(12.1402 0 0 -6 -18019.9883 -77)">
			<stop  offset="0" style="stop-color:#DEC7D6;stop-opacity:0.782"/>
			<stop  offset="1" style="stop-color:#E1C8D9;stop-opacity:0.795"/>
		</linearGradient>
		<path id="region-2-16" style="fill:url(#region-2-16_00000054256293330150960150000012585158076730975371_);" d="M85.2,448.6
			c-4.1,2.9-2.8,4.4,3.8,4.4c4.6,0,6-0.3,6-1.4c0-1.7-3.8-4.6-6-4.6C88.1,447,86.4,447.7,85.2,448.6z"/>
		
			<linearGradient id="region-2-17_00000013910631710958958990000008585682070369892996_" gradientUnits="userSpaceOnUse" x1="1550.6667" y1="-53.8293" x2="1551.7906" y2="-54.4595" gradientTransform="matrix(21.9 0 0 -9.7082 -33702.5 -72.0071)">
			<stop  offset="0" style="stop-color:#D8C6CC;stop-opacity:0.774"/>
			<stop  offset="1" style="stop-color:#E0C9D4;stop-opacity:0.805"/>
		</linearGradient>
		<path id="region-2-17" style="fill:url(#region-2-17_00000013910631710958958990000008585682070369892996_);" d="M265.4,448.9
			c-2.6,1.2-5.4,4.9-5.4,7.3c0,1.6,1.1,1.8,10.9,1.8h11l-1-2.9c-0.6-1.6-1.9-3.7-2.9-4.6C275.8,448.5,268.5,447.6,265.4,448.9z"/>
		
			<linearGradient id="region-2-18_00000059993169021897545000000007652100890298007211_" gradientUnits="userSpaceOnUse" x1="1591.5992" y1="-14.1429" x2="1591.5992" y2="-15.1429" gradientTransform="matrix(47.935 0 0 -35 -75701.3438 -47)">
			<stop  offset="0" style="stop-color:#271804;stop-opacity:0.251"/>
			<stop  offset="1" style="stop-color:#241302;stop-opacity:0.314"/>
		</linearGradient>
		<path id="region-2-18" style="fill:url(#region-2-18_00000059993169021897545000000007652100890298007211_);" d="M578.9,450.1
			c-0.6,1.3-0.9,6.2-0.7,13c0.1,6,0.2,10.9,0.2,10.9c-0.1,0-1.5-0.7-3-1.5c-1.6-0.8-3.9-1.5-5.1-1.5c-1.9,0-2.3,0.6-2.3,3
			c0,1.7,0.7,4.4,1.5,6l1.6,3H591h19.9l2.1-4.8c1.2-2.6,2.4-6.4,2.7-8.5c0.5-3.5,0.4-3.7-2.3-3.7c-1.8,0-4.4,1.2-6.8,3.2
			c-3.8,3.1-3.9,3.2-3.3,0.8c0.3-1.4,1.1-5.3,1.8-8.7c2.7-14.2-3.5-11.6-10.5,4.5c-1.1,2.3-2.2,3.9-2.6,3.5c-0.4-0.4-1.7-4-2.9-7.8
			c-2.2-6.7-6.2-13.5-8.1-13.5C580.5,448,579.6,448.9,578.9,450.1z"/>
		
			<linearGradient id="region-2-19_00000146464023542451392390000011980738093730589591_" gradientUnits="userSpaceOnUse" x1="1588.0094" y1="-15.0606" x2="1588.0094" y2="-16.0606" gradientTransform="matrix(43.3437 0 0 -33 -68657.4844 -47)">
			<stop  offset="0" style="stop-color:#281A04;stop-opacity:0.262"/>
			<stop  offset="1" style="stop-color:#261603;stop-opacity:0.324"/>
		</linearGradient>
		<path id="region-2-19" style="fill:url(#region-2-19_00000146464023542451392390000011980738093730589591_);" d="M168.8,452.2
			c-0.6,1.3-1.4,6.5-1.6,11.6c-0.3,5.1-0.7,9.2-1.1,9c-0.3-0.2-2.8-1.5-5.6-2.9c-2.7-1.5-6-3-7.2-3.3c-3.6-1.1-2.9,2,2.2,9.7
			l4.5,6.7h14.2c13.6,0,14.2-0.1,17.5-2.6c3.7-2.8,3.6-4.4-0.4-4.4c-2.3,0-2.4-0.3-1.7-2.8c0.4-1.5,0.8-4.7,0.8-7.2
			c0.1-6.8-2.3-6.5-7.9,1l-4.5,6.2v-4c0-9.2-3.4-19.2-6.5-19.2C170.7,450,169.5,451,168.8,452.2z"/>
		
			<linearGradient id="region-2-20_00000034790532562129971510000013517961014623007417_" gradientUnits="userSpaceOnUse" x1="1569.2985" y1="-39.6551" x2="1570.0198" y2="-40.9317" gradientTransform="matrix(29.1393 0 0 -13.0247 -45392.3281 -63.9953)">
			<stop  offset="0" style="stop-color:#0A1264;stop-opacity:0.569"/>
			<stop  offset="1" style="stop-color:#020868;stop-opacity:0.609"/>
		</linearGradient>
		<path id="region-2-20" style="fill:url(#region-2-20_00000034790532562129971510000013517961014623007417_);" d="M340.3,455
			c-3.2,1.9-6.3,6.6-6.3,9.5c0,1.3,2.1,1.5,14.5,1.5c16.2,0,16.5-0.2,12.5-6.8C357.3,453.2,346.7,451,340.3,455z"/>
		
			<linearGradient id="region-2-21_00000164508839736374482990000002291075542448904065_" gradientUnits="userSpaceOnUse" x1="1516.8781" y1="-73.3346" x2="1516.8781" y2="-74.3346" gradientTransform="matrix(14.9602 0 0 -7.1299 -22620.2812 -63.0309)">
			<stop  offset="0" style="stop-color:#384A5C;stop-opacity:0.802"/>
			<stop  offset="1" style="stop-color:#3B4E5B;stop-opacity:0.798"/>
		</linearGradient>
		<path id="region-2-21" style="fill:url(#region-2-21_00000164508839736374482990000002291075542448904065_);" d="M66.6,462.2
			c-2.9,4.2-2.2,4.8,5.9,4.8c6.6,0,7.5-0.2,7.5-1.8C80,460.1,69.6,457.8,66.6,462.2z"/>
		
			<linearGradient id="region-2-22_00000103231935056117295870000013307320060141043878_" gradientUnits="userSpaceOnUse" x1="1553.8673" y1="-47.5751" x2="1554.73" y2="-48.7318" gradientTransform="matrix(22.8482 0 0 -10.9128 -34827.3203 -51.0047)">
			<stop  offset="0" style="stop-color:#020966;stop-opacity:0.545"/>
			<stop  offset="1" style="stop-color:#000468;stop-opacity:0.58"/>
		</linearGradient>
		<path id="region-2-22" style="fill:url(#region-2-22_00000103231935056117295870000013307320060141043878_);" d="M683.3,469.1
			c-3.5,1-7.3,5.2-7.3,8c0,1.7,0.9,1.9,11.5,1.9c12.6,0,12.9-0.2,9.5-5.7c-1.3-2.1-3.1-3.5-5.7-4.2c-2.1-0.6-4-1.1-4.3-1
			C686.7,468.1,685.1,468.6,683.3,469.1z"/>
	</g>
	<g id="layer-3">
		
			<linearGradient id="region-3-1_00000011003313522487534530000008442099264742822034_" gradientUnits="userSpaceOnUse" x1="1612.6185" y1="-0.9983" x2="1614.3604" y2="-1.8683" gradientTransform="matrix(131.6813 0 0 -276.5884 -211702.9844 -192.4932)">
			<stop  offset="0" style="stop-color:#633332;stop-opacity:0.75"/>
			<stop  offset="1" style="stop-color:#5B2A00;stop-opacity:0.852"/>
		</linearGradient>
		<path id="region-3-1" style="fill:url(#region-3-1_00000011003313522487534530000008442099264742822034_);" d="M774.5,62.2
			c-0.2,0.7-0.8,5.6-1.4,10.8c-1,8.6-4.9,30.1-5.6,30.8c-0.1,0.2-1-1.8-1.9-4.5c-1.9-5.4-9.3-18.3-10.5-18.3c-0.5,0,0.7,3.6,2.6,8.1
			c4.5,10.3,6.9,23.5,5.3,28.7c-2,6.1-8.7,17.9-18.5,32.2c-5.1,7.4-10,15-10.9,16.8l-1.7,3.4l-6.1-10.9c-3.3-5.9-8.2-14.4-10.9-18.8
			c-4.9-8-7.8-17.5-7.9-25.1c0-1.7-0.3-4.7-0.7-6.5c-0.6-2.7-0.9-1.3-1.3,6l-0.5,9.3l-5.9-8.5c-3.2-4.8-6.8-9.4-7.9-10.4
			c-2.3-2-2.1-1.6,3.2,6.7c3.7,5.9,16,27.4,15.7,27.7c-0.1,0.1-3-0.4-6.6-1.2c-10.3-2-14-2.4-14-1.5c0,0.5,1.5,1.1,3.3,1.5
			c1.7,0.4,7,1.8,11.6,3.1l8.3,2.5l8.1,16.7c7.4,15.4,8.1,17.5,9.3,26.7c0.8,5.5,1.4,11.5,1.4,13.3v3.2l-3.7-1.6
			c-7.9-3.2-20-5.5-33.5-6.1c-14.8-0.7-15.1-0.8-20.7-7.9c-3.3-4.2-3.4-2.3-0.1,2.9l2.9,4.7l-4.7-0.6c-2.6-0.3-6.4-0.7-8.4-1
			c-3.6-0.4-5.3,0.9-2.5,1.9c0.6,0.2-0.5,0.8-2.5,1.2c-7.2,1.4-3.7,2,9.6,1.7c14-0.4,33.1,1.5,44,4.3c3.2,0.8,9.1,3,13.1,4.9
			l7.3,3.4l0.7,20.8c0.4,11.5,0.5,37,0.2,56.6c-0.5,34.9-0.5,35.7,1.5,37.5c1.1,1,3.6,4,5.4,6.8c3.4,5,3.4,5,3.4,1.9
			c0-10.6,5.2-12.2,13.6-4.2l3.1,2.9l0.6-3.8c1.2-7.1,0.7-11.6-2.3-21.1c-9.6-29.8-17.5-75.3-18.1-104.4c-0.3-9.1-0.1-9.9,2.6-14
			c6.9-10.5,23.2-24.5,33.3-28.7c2.9-1.2,4.4-3.1,2.4-3.1c-0.4,0-5.7,2.5-11.7,5.4c-7.2,3.6-13.7,7.8-18.9,12.2l-7.9,6.7l0.7-4.4
			c2.2-14.1,20.7-34.4,40.4-44.3c3-1.5,5.2-2.9,5-3.2c-0.8-0.7-10.8,3.1-18.5,7l-7.2,3.6l3.4-8c4.3-10.2,7.1-19.1,9.6-31
			C775.9,89.7,777.2,53.8,774.5,62.2z"/>
		
			<linearGradient id="region-3-2_00000165223215338918284460000010401050066790677644_" gradientUnits="userSpaceOnUse" x1="1609.936" y1="-0.855" x2="1610.4508" y2="-1.8705" gradientTransform="matrix(106.3798 0 0 -270.1 -171166.4531 -194.9013)">
			<stop  offset="0" style="stop-color:#61342A;stop-opacity:0.74"/>
			<stop  offset="1" style="stop-color:#5E2E00;stop-opacity:0.859"/>
		</linearGradient>
		<path id="region-3-2" style="fill:url(#region-3-2_00000165223215338918284460000010401050066790677644_);" d="M113.5,76.8v11.7
			l-6.6,20c-3.7,11-6.8,20.9-7.1,22c-0.3,1.4-2-1.3-5.5-8.5c-5.1-10.5-16-28.1-18.3-29.5c-0.7-0.5-0.1,1.2,1.4,3.6
			c5.4,8.6,15.4,30.1,17.9,38.2c1.9,6,2.7,11.4,3.1,20.2c0.3,6.6,1.1,18.3,1.8,26c0.7,7.7,1.3,27,1.3,43c0,25.2-0.4,32.4-2.9,55
			c-1.8,16.1-2.9,31.9-3,41.3l-0.1,15.3l3-3.8c3.2-4.1,7.2-8.2,9.5-9.8c1.3-0.9,1.4-10.4,0.9-73.5c-0.3-39.9-0.9-73.7-1.3-75.2
			c-0.7-2.4-0.2-3.1,5.1-7.2c15.4-12.1,40.5-20.3,67.3-21.9c3.6-0.2,2.7-0.4-3.9-1.1l-8.3-0.9l3.6-2c5.4-3.1,4.3-3.9-1.6-1.2
			c-2.9,1.3-7.7,3-10.6,3.9c-4.9,1.4-5.2,1.4-4.3-0.2c1.6-3.1,3-9.2,2-9.2c-0.5,0-0.9,0.6-0.9,1.3s-1.3,3.4-2.9,5.9l-2.9,4.5
			l-11.1,2.8c-10.9,2.7-22.3,7.4-28.3,11.6c-1.7,1.2-3.3,1.8-3.8,1.3s-1.2-6.3-1.6-12.9l-0.6-12l5.6-22.9
			c3.1-12.6,5.9-25.2,6.2-28.1c0.6-5.1-1.2-19.5-2.4-19.5C113.8,65,113.5,70.3,113.5,76.8z"/>
		
			<linearGradient id="region-3-3_00000080888821159804057300000017111952616302923915_" gradientUnits="userSpaceOnUse" x1="1593.6914" y1="-2.4666" x2="1596.8142" y2="-2.9605" gradientTransform="matrix(52 0 0 -171.1679 -82469 -188.027)">
			<stop  offset="0" style="stop-color:#6D4B35;stop-opacity:0.742"/>
			<stop  offset="1" style="stop-color:#5B2800;stop-opacity:0.878"/>
		</linearGradient>
		<path id="region-3-3" style="fill:url(#region-3-3_00000080888821159804057300000017111952616302923915_);" d="M451.7,176.2
			c-0.3,2.9-1.1,7.7-1.7,10.6l-1.2,5.3l-2.8-5.8c-1.6-3.2-3.8-6.9-5-8.3c-1.6-1.9-1.3-0.9,1.1,4c2.1,4.3,3.3,8.5,3.7,12.5
			c0.5,7.2-0.3,9.2-10.7,25l-6.9,10.4l-5.3-9.2c-7.7-13.5-7.8-13.7-8.8-21.3l-0.8-6.9l-0.2,6l-0.1,6l-3.1-4.8
			c-5.3-8-5.1-5.2,0.1,3.5c2.8,4.6,5,8.6,5,9.1c0,0.7-2.4,0.4-7.2-1c-1-0.2-1.8-0.1-1.8,0.4s2.4,1.5,5.3,2.3l5.2,1.5l5.3,10.6
			l5.4,10.5l1.3,32.5c0.8,17.8,1.5,38.1,1.5,45c0,11.3,0.2,12.8,2,14.4c1.1,1,3,4.4,4.1,7.6l2.2,5.9l2.8-2.1
			c1.6-1.1,2.9-2.9,2.9-3.9s-1.8-14.3-3.9-29.7c-2.2-15.3-4.7-35.3-5.7-44.5l-1.7-16.7l2.9-4.2c3.3-4.8,9.1-9.9,16-14.1
			c2.8-1.6,3.8-2.6,2.4-2.2c-4.9,1.3-12.3,5.6-16.8,9.7l-4.5,4.2l0.6-3.2c1.5-7.6,12.2-19.7,21.5-24.1c1.7-0.9,3.2-1.9,3.2-2.4
			c0-0.9-3.2,0.3-9,3.2c-2.2,1.1-4,1.9-4,1.7s1.1-3.1,2.5-6.6c3.3-8.1,5.2-16.5,6-27.4C454.2,170.3,452.7,167.2,451.7,176.2z"/>
		
			<linearGradient id="region-3-4_00000150090985828978957480000011217690181372223376_" gradientUnits="userSpaceOnUse" x1="1608.2822" y1="-4.837" x2="1608.2822" y2="-5.837" gradientTransform="matrix(94.3798 0 0 -90.7974 -151578.7656 -163.071)">
			<stop  offset="0" style="stop-color:#AAE17F;stop-opacity:0.556"/>
			<stop  offset="1" style="stop-color:#ACDD54;stop-opacity:0.408"/>
		</linearGradient>
		<path id="region-3-4" style="fill:url(#region-3-4_00000150090985828978957480000011217690181372223376_);" d="M212.2,278
			c-6.7,4.1-14.2,19.9-20.2,42.7c-1,3.9-1.3,4.2-3.8,3.7c-5.4-1.1-9,6.7-9.9,21.3c-0.3,5.1-0.8,9.3-1,9.3s-1.7-1.6-3.4-3.5
			c-5.7-6.4-8.7-4.3-9.8,6.9l-0.7,7.5l7.6,0.7c8.6,0.8,85.8-0.1,86.7-1c0.7-0.7-3.4-20-4.7-22.7c-0.4-0.8-1.8-5-3-9.3
			c-6.4-22.7-20.8-51.1-28.3-55.7C217.7,275.5,216.3,275.5,212.2,278z"/>
		
			<linearGradient id="region-3-5_00000140002353756884399830000001536683645487916418_" gradientUnits="userSpaceOnUse" x1="1605.8511" y1="-10.5513" x2="1605.9513" y2="-11.6513" gradientTransform="matrix(83 0 0 -45.7277 -132957 -104.0306)">
			<stop  offset="0" style="stop-color:#200A29;stop-opacity:0.127"/>
			<stop  offset="1" style="stop-color:#1F062D;stop-opacity:0.167"/>
		</linearGradient>
		<path id="region-3-5" style="fill:url(#region-3-5_00000140002353756884399830000001536683645487916418_);" d="M338.5,382.4
			c-2.4,3.7-6.1,15-7.6,23.3c-0.7,4-1.6,7.3-1.9,7.3s-1.6-3.7-2.8-8.3c-2.8-9.9-8.1-21.1-10.3-21.5c-2.5-0.5-3.8,4-5.1,18.1
			l-1.2,13.3l-5.5-3.3c-6.7-4-11.1-4.4-11.1-1c0,1.3,1.7,5.2,3.9,8.8l3.9,6.4l34.5,0.3l34.5,0.2l3.1-3.5c1.7-2,3.1-4.2,3.1-5
			c0-2.5-3.8-3.7-9.6-2.9c-6,0.7-6.2,0.5-3.9-4.9c1.9-4.5,1.9-9.6,0.2-10.3c-2.4-0.9-6.7,1.5-12.3,6.7l-5.4,5.2v-12.9
			c0-12.7-0.9-17.2-3.7-18.1C340.7,380.1,339.4,381,338.5,382.4z"/>
		
			<linearGradient id="region-3-6_00000077291875780116649580000010723386018508486581_" gradientUnits="userSpaceOnUse" x1="1613.6975" y1="-7.2335" x2="1614.1788" y2="-8.5775" gradientTransform="matrix(142 0 0 -63.9777 -229115 -85.1399)">
			<stop  offset="0" style="stop-color:#474B2A;stop-opacity:0.236"/>
			<stop  offset="1" style="stop-color:#4D4E30;stop-opacity:0.297"/>
		</linearGradient>
		<path id="region-3-6" style="fill:url(#region-3-6_00000077291875780116649580000010723386018508486581_);" d="M51.6,383.9
			c-4.9,5.1-6.8,13.6-7.4,31.9c-0.4,15.5-0.5,16.3-2.1,14c-3.9-5.8-7.7-9.8-9.3-9.8c-2.2,0-4.5,3.5-5.3,8.3l-0.7,3.7l-4.4-3.9
			c-8.6-8-12.4-6.6-12.4,4.5v7.3l3.3,0.5c1.7,0.3,9,0.8,16.2,1.1c7.2,0.4,19.1,1.1,26.5,1.6c20.3,1.3,96,2.4,96,1.3
			c-0.1-1.7-3.5-5.2-7-7c-2.8-1.5-5.6-1.9-13.7-1.9l-10.3,0.1v-4.9c0-5.8-2.3-11.7-4.5-11.7c-2,0-7,5.1-9.3,9.4l-1.6,3.1l-1.3-7.5
			c-1.7-10.2-4-15.9-6.9-17.2c-2.1-1-2.8-0.8-5.3,1.6c-1.6,1.6-4,5.3-5.3,8.4c-5.2,12-4.7,11.1-4.7,7.5c-0.2-9.1-5.6-27.5-10.1-34.7
			C66.4,380.8,57.1,378.2,51.6,383.9z"/>
		
			<linearGradient id="region-3-7_00000057840649554192052590000001559894619540166545_" gradientUnits="userSpaceOnUse" x1="1573.2108" y1="-37.0996" x2="1573.4863" y2="-38.3726" gradientTransform="matrix(31.2 0 0 -13.8877 -48580.2031 -119.9864)">
			<stop  offset="0" style="stop-color:#040E7A;stop-opacity:0.498"/>
			<stop  offset="1" style="stop-color:#00087F;stop-opacity:0.534"/>
		</linearGradient>
		<path id="region-3-7" style="fill:url(#region-3-7_00000057840649554192052590000001559894619540166545_);" d="M503.3,397.9
			c-4.4,2-6.7,4.8-7.8,9.3l-0.7,2.8h15.6c14.2,0,15.6-0.2,15.6-1.8c0-3.3-4-8.3-8.3-10.2C512.4,395.5,508.6,395.5,503.3,397.9z"/>
		
			<linearGradient id="region-3-8_00000098185142483688206940000010137256562527218328_" gradientUnits="userSpaceOnUse" x1="1577.0198" y1="-22.3464" x2="1578.1528" y2="-22.4897" gradientTransform="matrix(33.9041 0 0 -23.1 -52617.0664 -86.9001)">
			<stop  offset="0" style="stop-color:#98C246;stop-opacity:0.757"/>
			<stop  offset="1" style="stop-color:#A3CE50;stop-opacity:0.802"/>
		</linearGradient>
		<path id="region-3-8" style="fill:url(#region-3-8_00000098185142483688206940000010137256562527218328_);" d="M861.7,421.1
			c-4.9,0.4-9.1,1-9.3,1.2c-0.3,0.3-0.4,3.3-0.2,6.7l0.3,6.1l3.6-5.3c6.9-10.3,12.4-10.1,12.4,0.5c0,2.9-0.4,6.9-0.8,9l-0.8,3.8
			l4.9-5c4.5-4.7,5.2-5.1,9.5-5.1h4.7v-6.5V420l-7.7,0.1C874,420.2,866.5,420.6,861.7,421.1z"/>
	</g>
</g>
<g id="layer-1_00000109750700581386193520000001740889243479660451_">
	
		<linearGradient id="region-1-1_00000012460264837733308490000007805839210631281321_" gradientUnits="userSpaceOnUse" x1="1624.1052" y1="-0.5469" x2="1625.1935" y2="-1.2347" gradientTransform="matrix(886 0 0 -365.3 -1438125 -164.7287)">
		<stop  offset="0" style="stop-color:#98CDD7;stop-opacity:0.993"/>
		<stop  offset="1" style="stop-color:#B6FCFF;stop-opacity:0.993"/>
	</linearGradient>
	
		<path id="region-1-1_00000154385200698420032080000000363456978905337271_" style="fill:url(#region-1-1_00000012460264837733308490000007805839210631281321_);" d="
		M886,164.5V329l4.3,0.1c2.3,0,4.9,0.2,5.7,0.5c25.5,7.2,110.3,27.6,136.5,32.9c18.9,3.7,16.9,4.2,17.6-4.3c1-10.9,4.1-13.1,9.8-6.7
		c1.7,1.9,3.2,3.5,3.4,3.5c0.2,0,0.7-4.2,1-9.3c0.9-14.6,4.5-22.4,9.9-21.3c2.5,0.5,2.8,0.2,3.8-3.7c2.3-9,7.4-23.5,10.2-29.2
		c4-8.1,7.3-12.3,11.4-14.2c3.1-1.5,3.7-1.5,6.9,0c1.9,0.9,4.8,3.6,6.6,5.9c7.7,10.7,18.3,34,22.9,50.4c1.2,4.3,2.6,8.5,3,9.3
		c0.4,0.9,1.8,6.3,3.1,12l2.4,10.4l9.5-0.2c5.2-0.1,21.4-0.6,36-1.1c14.6-0.6,39.1-1.4,54.5-2c25.9-0.8,38.2-1.3,102.5-4
		c12.9-0.5,37.5-1.4,54.5-2c17.1-0.5,43.2-1.5,58-2.1c84-3.3,221.6-6.1,270.3-5.6l42.2,0.4V174.4V0h-443H886V164.5z"/>
	
		<linearGradient id="region-1-2_00000025444614672236777950000007516719479420243357_" gradientUnits="userSpaceOnUse" x1="1624.6472" y1="-0.9355" x2="1624.6793" y2="-2.0481" gradientTransform="matrix(886 0 0 -271.8877 -1438125 18.0186)">
		<stop  offset="0" style="stop-color:#9AC345"/>
		<stop  offset="1" style="stop-color:#98BF49"/>
	</linearGradient>
	
		<path id="region-1-2_00000016033316189601328740000016242602689027961226_" style="fill:url(#region-1-2_00000025444614672236777950000007516719479420243357_);" d="
		M1098.2,278c-6.7,4.1-14.2,19.9-20.2,42.7c-1,3.9-1.3,4.2-3.8,3.7c-5.4-1.1-9,6.7-9.9,21.3c-0.3,5.1-0.8,9.3-1,9.3
		s-1.7-1.6-3.4-3.5c-5.7-6.4-8.8-4.2-9.8,6.7c-0.7,8.5,1.3,8-17.6,4.3c-24.9-5-52-11.4-98-23.1c-20.3-5.2-39.6-9.7-42.7-10l-5.8-0.6
		v109.6V548h443h443v-99.3v-99.4l-13.7-0.6c-35.2-1.7-192.3,1-299.3,5.3c-14.6,0.5-40.4,1.5-57.5,2c-17,0.6-41.6,1.5-54.5,2
		c-64.3,2.7-76.6,3.2-102.5,4c-15.4,0.6-39.9,1.4-54.5,2c-14.6,0.5-30.8,1-36,1.1l-9.5,0.2l-2.4-10.4c-1.3-5.7-2.7-11.1-3.1-12
		c-0.4-0.8-1.8-5-3-9.3c-6.4-22.7-20.8-51.1-28.3-55.7C1103.7,275.5,1102.3,275.5,1098.2,278z"/>
</g>
<linearGradient id="region-2-1_00000156566520176641571670000000414402307624352190_" gradientUnits="userSpaceOnUse" x1="1627.2374" y1="-22.9305" x2="1627.5715" y2="-24.4587" gradientTransform="matrix(76 0 0 -24 -121079 -483)">
	<stop  offset="0" style="stop-color:#FFFFFF;stop-opacity:0.817"/>
	<stop  offset="1" style="stop-color:#FFFFFF;stop-opacity:0.804"/>
</linearGradient>
<path id="region-2-1_00000163039594602813699730000005540383018861730695_" style="fill:url(#region-2-1_00000156566520176641571670000000414402307624352190_);stroke:#000000;stroke-width:2;stroke-miterlimit:10;" d="
	M2597.3,70.3c-2.2,0.8-5.6,3.2-7.5,5.3c-3,3.5-3.9,3.9-6.8,3.5c-6.6-1.1-13.2,4.1-13.2,10.3v3.4h38c33.6,0,38-0.2,38-1.5
	c0-2.7-4.7-6.5-7.9-6.5c-2.1,0-3.5-0.7-4.6-2.4c-2.1-3.2-7.4-5.6-12.2-5.6c-2.7,0-4.2-0.6-5-1.9c-1.5-2.3-9.1-6.1-12.4-6.1
	C2602.4,68.9,2599.5,69.5,2597.3,70.3z"/>
<linearGradient id="region-2-2_00000124128792291083780180000008658781890060419005_" gradientUnits="userSpaceOnUse" x1="1626.4376" y1="-2.3292" x2="1626.4376" y2="-3.3292" gradientTransform="matrix(158.7196 0 0 -172.9672 -256234.875 -323.5341)">
	<stop  offset="0" style="stop-color:#88A700;stop-opacity:0.629"/>
	<stop  offset="1" style="stop-color:#83990B;stop-opacity:0.824"/>
</linearGradient>
<path id="region-2-2_00000175281606845341702740000013178786920563652508_" style="fill:url(#region-2-2_00000124128792291083780180000008658781890060419005_);" d="
	M1890.7,79.8c-6.5,1.1-8.4,2.3-16.9,10.5c-8.2,7.9-12.8,10.1-18.8,9c-3.7-0.6-16.3-4.9-19.3-6.5c-2-1-2.4,3.3-2.4,24
	c0.1,21.8,4.1,36.4,13.7,50.1c7.6,10.8,7.8,11.2,7.8,16.1c0,2.6-0.7,7.7-1.6,11.5c-0.9,3.7-1.7,10.8-1.7,15.8
	c-0.1,7.7,0.3,9.8,2.5,14.7c4,8.7,10.7,15.2,20.2,19.7c12.3,5.8,20.1,7.5,34.1,7.6c10.7,0,12.5-0.3,16.9-2.4
	c7.2-3.6,13.2-10.3,21.6-24.2c10.1-16.9,15-21.9,27-27.6c9.1-4.3,19.9-12.6,18-13.8c-0.5-0.3-2.3-3.1-4.1-6.1
	c-5-8.8-14.4-19.8-21.2-25c-3.4-2.5-11.1-7-17.2-9.8c-17-8.1-20.7-13.4-27-38.7c-4-15.8-6.9-22.1-11.2-23.7
	C1907.1,79.5,1896.1,78.8,1890.7,79.8z"/>
<linearGradient id="region-2-3_00000154383830848955574500000008663271729892866969_" gradientUnits="userSpaceOnUse" x1="1627.3876" y1="-23.8392" x2="1627.4398" y2="-24.9983" gradientTransform="matrix(77 0 0 -23.162 -123286 -471.9695)">
	<stop  offset="0" style="stop-color:#FFFFFF;stop-opacity:0.827"/>
	<stop  offset="1" style="stop-color:#FFFFFF;stop-opacity:0.815"/>
</linearGradient>
<path id="region-2-3_00000101803415925249847260000011641746850098870148_" style="fill:url(#region-2-3_00000154383830848955574500000008663271729892866969_);stroke:#000000;stroke-width:2;stroke-miterlimit:10;" d="
	M2017.1,81c-3,0.7-5.2,2.1-8.2,5.3c-3.9,4.3-4.4,4.5-9.5,4.5c-4.9,0-5.7,0.3-8.5,3.5c-2,2.3-3.1,4.6-3.1,6.5v3h38.5
	c21.2,0,38.5-0.4,38.5-0.9c0-2.3-4.4-6.1-7.8-6.7c-2-0.4-5.3-2.1-7.3-3.9c-3.6-3.2-10.6-5.4-12.8-4.1c-0.6,0.4-1.5-0.2-2-1.2
	C2032.5,82.4,2024.1,79.6,2017.1,81z"/>
<linearGradient id="region-2-4_00000103960834619804719280000013176983201243042743_" gradientUnits="userSpaceOnUse" x1="1625.7644" y1="-1.8957" x2="1626.3988" y2="-2.9952" gradientTransform="matrix(217.6419 0 0 -195.6974 -351418 -295.0072)">
	<stop  offset="0" style="stop-color:#829B00;stop-opacity:0.698"/>
	<stop  offset="1" style="stop-color:#839D0C;stop-opacity:0.825"/>
</linearGradient>
<path id="region-2-4_00000068679366008095743220000004083500528324640911_" style="fill:url(#region-2-4_00000103960834619804719280000013176983201243042743_);" d="
	M2480,86.3c-7.4,1.7-15.5,5.2-21.4,9.4c-4.5,3.2-15.2,12.7-13,11.6c1-0.5,1.1,0.3,0.5,3.7c-1.7,9.4-0.8,16.8,3.7,29.8
	c4.1,12,4.3,12.7,3.2,18c-1.4,6.6-7.6,16.2-16.9,26c-6.9,7.3-10.1,9.4-19.8,13.1c-10,3.7-14.2,9-16.5,20.6
	c-0.7,3.4-1.1,10.2-0.8,15.1c0.7,16,7.8,26.4,20.1,29.2c7.7,1.9,10.2,3.5,14.7,9.4c4.9,6.4,8.9,8.6,16.2,8.6c6.4,0,13.2-3,22.8-9.9
	c18.1-13.2,33-15.9,65-12.1c35.1,4.2,51.8,1.6,65.7-10.4c5.5-4.8,10.7-15.3,12.3-24.8c1.3-7.5,0.8-27.2-0.8-33.3
	c-1.3-4.8-9.6-7.6-24.9-8.4c-13.2-0.7-15.3-1.5-19.7-7.5c-1.8-2.3-2.2-4.8-2.7-17.9c-0.8-16.2-2.8-26.5-7.3-36.3
	c-7.2-15.6-19.1-26.3-35.7-31.9c-7.5-2.5-10.1-2.8-23.4-3.1C2490.9,84.9,2484.4,85.3,2480,86.3z"/>
<linearGradient id="region-2-5_00000125562170866385213540000003677829501686630583_" gradientUnits="userSpaceOnUse" x1="1625.7186" y1="-1.7637" x2="1626.7238" y2="-2.7621" gradientTransform="matrix(193.033 0 0 -212.3769 -312023.6562 -272.0549)">
	<stop  offset="0" style="stop-color:#7D9200;stop-opacity:0.626"/>
	<stop  offset="1" style="stop-color:#7F9918;stop-opacity:0.844"/>
</linearGradient>
<path id="region-2-5_00000048462232854621134300000015156712358640469381_" style="fill:url(#region-2-5_00000125562170866385213540000003677829501686630583_);" d="
	M1825.2,91.7c-14.8,3.6-21.4,19-21.4,49.4c0.1,27,6.3,48.6,18.7,64.7c2.7,3.6,5.5,7.5,6.1,8.7c1.7,3.1,1.5,8.6-0.7,18.8
	c-5.4,25.1-2.8,38,10.1,50.9c7.3,7.3,19,13.5,30.3,16.1c3.9,0.9,8.6,2.1,10.6,2.7c5.2,1.5,26.3,0.5,31.8-1.6
	c10.2-3.8,18.3-12.7,30.2-33.1c9.2-15.8,17.4-23.7,29.7-28.9c11.6-4.8,17.9-10.3,22.4-19.3c4.3-8.8,5.1-20,1.8-28.6
	c-1.2-3.1-2.5-5.7-2.9-5.7s-2.3,1.6-4.2,3.6c-2,2.1-7.5,5.6-13.4,8.4c-12.6,6.1-17.3,10.8-27.5,27.9c-8.4,13.9-14.4,20.6-21.6,24.2
	c-4.4,2.1-6.2,2.4-16.9,2.4c-14-0.1-21.8-1.8-34.1-7.6c-9.5-4.5-16.2-11-20.2-19.7c-2.2-4.9-2.6-7-2.5-14.7c0-5,0.8-12.1,1.7-15.8
	c0.9-3.8,1.6-8.9,1.6-11.5c0-4.9-0.2-5.3-7.7-16c-9.1-12.9-13.1-26.6-13.9-47.2c-0.3-7.4-0.2-16.3,0.4-19.7c0.5-3.4,0.6-6.7,0.3-7.2
	C1833,91.5,1828.7,90.9,1825.2,91.7z"/>
<linearGradient id="region-2-6_00000049190506817120779250000001150307054494648230_" gradientUnits="userSpaceOnUse" x1="1626.0493" y1="-1.6101" x2="1626.0493" y2="-2.6101" gradientTransform="matrix(270.8015 0 0 -220.6125 -437840.4375 -248.1069)">
	<stop  offset="0" style="stop-color:#798D00;stop-opacity:0.771"/>
	<stop  offset="1" style="stop-color:#7D9518;stop-opacity:0.806"/>
</linearGradient>
<path id="region-2-6_00000088814093929116663650000005745299908203459472_" style="fill:url(#region-2-6_00000049190506817120779250000001150307054494648230_);" d="
	M2443.6,109.6c-8.3,8.7-18.3,30.7-22.4,49.6c-2.9,13.1-3.8,15.4-7.5,20.6c-3.2,4.4-8.5,7.5-16.7,9.6c-8.1,2.1-14.5,6-20.7,12.5
	c-9.9,10.4-15.4,27-15.5,46.4c0,19.4,4.7,29,19.5,40c4,2.9,9.2,7.7,11.6,10.7c13.6,16.5,24.8,24.1,40.1,27.2
	c22.4,4.6,51.2-1.6,70.1-15c2.6-1.9,5-3.4,5.3-3.4s3.3-1.8,6.6-4.1c8-5.2,12.9-6,33.3-5.3c30.2,1.2,54.1-4,67.6-14.6
	c5.3-4.3,11.5-13.9,13.9-21.9c2.6-8.3,3.6-23.3,2.1-33.1c-0.6-4.1-1.6-11.1-2.2-15.4c-1.3-10-3.9-16.2-8.9-21.1
	c-2.2-2.1-4.2-3.7-4.4-3.4c-0.2,0.2,0,3.8,0.4,7.9c4.2,35.8-6.9,56.1-34.2,62.5c-8.7,2-24.2,1.9-43.8-0.5c-32-3.8-46.9-1.1-65,12.1
	c-9.6,6.9-16.4,9.9-22.8,9.9c-7.3,0-11.3-2.2-16.2-8.6c-4.5-5.9-7-7.5-14.7-9.4c-7.8-1.8-12.5-5.7-16.4-13.6
	c-2.8-5.6-3.4-8-3.7-15.6c-0.3-4.9,0.1-11.7,0.8-15.1c2.3-11.6,6.5-16.9,16.5-20.6c9.7-3.7,12.9-5.8,19.8-13.1
	c9.3-9.8,15.5-19.4,16.9-26c1.1-5.3,0.9-6-3-17.5c-4.9-14.3-5.8-20-4.3-27.9c0.6-3.3,1-6.1,0.8-6.3
	C2446.3,107,2445,108.1,2443.6,109.6z"/>
<linearGradient id="region-2-7_00000052070851140154193300000009524636165704371355_" gradientUnits="userSpaceOnUse" x1="1626.6923" y1="-14.19" x2="1626.6923" y2="-15.19" gradientTransform="matrix(124.7877 0 0 -37.9087 -200894.7812 -406.0294)">
	<stop  offset="0" style="stop-color:#FFFFFF;stop-opacity:0.816"/>
	<stop  offset="1" style="stop-color:#FFFFFF;stop-opacity:0.828"/>
</linearGradient>
<path id="region-2-7_00000066494985957843431750000015211770901390462905_" style="fill:url(#region-2-7_00000052070851140154193300000009524636165704371355_);stroke:#000000;stroke-width:2;stroke-miterlimit:10;" d="
	M2097.3,132.7c-5.4,1.3-10.4,4.2-13.9,8.1c-3.2,3.6-3.7,3.8-9.4,3.7c-7.4,0-14,3-18.4,8.4c-2.6,3.2-3.8,3.9-6.7,3.9
	c-4.7,0-10,2.9-12.8,7c-4.4,6.4-8.3,6,60.2,6h62.5v-3.3c-0.1-7.4-6.1-15.3-13.6-17.7c-3.5-1.2-10.1-1-13.5,0.4
	c-1,0.5-1.9-0.1-2.6-1.7c-3.7-8-15.8-15.8-24.3-15.6C2102.3,132,2099,132.3,2097.3,132.7z"/>
<linearGradient id="region-2-8_00000165228057313429837860000014435194436241285505_" gradientUnits="userSpaceOnUse" x1="1626.9143" y1="-2.9294" x2="1626.9143" y2="-3.9294" gradientTransform="matrix(105.1873 0 0 -146.532 -168930.625 -268.1484)">
	<stop  offset="0" style="stop-color:#687400;stop-opacity:0.695"/>
	<stop  offset="1" style="stop-color:#666F00;stop-opacity:0.825"/>
</linearGradient>
<path id="region-2-8_00000049903641568615023770000001565988431728772534_" style="fill:url(#region-2-8_00000165228057313429837860000014435194436241285505_);" d="
	M2202.3,161.3c-0.5,0.2-2.2,0.6-3.8,0.9c-4.5,1-10.4,7.3-14.7,15.5c-2.9,5.6-5.2,8.5-8.7,11.1c-6,4.4-10.5,10.4-13.5,17.7
	c-2.1,5.3-2.3,7.3-2.4,24.8c0,10.4-0.1,19.8-0.2,20.7c-0.1,0.9-2.7,4.4-5.8,7.8l-5.7,6l0.7,8.3c0.9,11.2,3.1,18.4,6.7,21.9l2.9,3
	l10.3-0.6c5.6-0.3,16.6-0.9,24.5-1.2l14.2-0.6l7.8,5.7c7.6,5.5,7.8,5.6,13.3,5.2c3-0.3,7.4-1.4,9.6-2.5c6-3.1,11.9-10.4,13.9-17
	c2.6-9.1,1.5-14.3-5.5-27.6c-5.8-10.8-6.1-11.7-6.1-18.4c0-5.5,0.8-9.5,4-18.9c2.8-8.3,4-13.5,4-17.6c0-3.7,0.4-5.6,1-5.2
	c2.1,1.3-17.6-22.1-23.2-27.7C2218.4,165.5,2206.9,160,2202.3,161.3z"/>
<linearGradient id="region-2-9_00000120536639404966303530000003022537323450881161_" gradientUnits="userSpaceOnUse" x1="1626.0564" y1="-3.978" x2="1627.4539" y2="-4.3639" gradientTransform="matrix(130.4372 0 0 -123.2164 -209967.875 -252.8136)">
	<stop  offset="0" style="stop-color:#596903;stop-opacity:0.787"/>
	<stop  offset="1" style="stop-color:#515E00;stop-opacity:0.819"/>
</linearGradient>
<path id="region-2-9_00000173159257092884492550000009202889316411733391_" style="fill:url(#region-2-9_00000120536639404966303530000003022537323450881161_);" d="
	M2247.8,205.5c0,4.1-1.2,9.3-4,17.6c-3.2,9.4-4,13.4-4,18.9c0,6.7,0.3,7.6,6.1,18.4c7,13.3,8.1,18.5,5.5,27.6
	c-2,6.6-7.9,13.9-13.9,17c-2.2,1.1-6.6,2.2-9.6,2.5c-5.5,0.4-5.7,0.3-13.3-5.2l-7.8-5.7l-14.2,0.6c-7.9,0.3-18.9,0.9-24.5,1.2
	l-10.3,0.6l-2.9-3c-3.6-3.5-5.8-10.7-6.7-22l-0.7-8.3l-2.3,2.2c-3.8,3.5-4.8,10.4-2.9,18.5c2.1,8.6,5.1,13.8,10.8,19.1
	c11.7,10.8,35.5,17.4,63.2,17.5c11.4,0.1,14-0.2,21-2.5c22.4-7.4,34.5-21,34.5-39c0-10.8-1.3-13.9-8.6-21.7
	c-8.6-9.1-9.1-11.1-5.8-22.4c3.2-10.9,3-18.6-0.9-26.7c-2.2-4.7-6.9-10.9-8.2-10.9C2248,199.8,2247.8,202.4,2247.8,205.5z"/>
<linearGradient id="region-2-10_00000161615382112491589420000009660896340750724260_" gradientUnits="userSpaceOnUse" x1="1626.1274" y1="-5.0633" x2="1626.3472" y2="-6.2967" gradientTransform="matrix(197.5 0 0 -93.9328 -318624 -179.8928)">
	<stop  offset="0" style="stop-color:#90B12A;stop-opacity:0.569"/>
	<stop  offset="1" style="stop-color:#8CA400;stop-opacity:0.789"/>
</linearGradient>
<path id="region-2-10_00000009548888526949547770000005189258421283921854_" style="fill:url(#region-2-10_00000161615382112491589420000009660896340750724260_);" d="
	M2554.8,302.5c-2.6,0.9-7.1,5.6-9,9.3c-4.3,8.3-8.1,25.9-10,45.5c-0.6,6.6-1.3,14.4-1.6,17.4l-0.6,5.3l-3.1-3
	c-8.5-8-13.7-6.4-13.7,4.2v3.1l-2.6-4c-4.6-6.9-8.5-10.5-11.6-10.5c-2.2,0-2.9,0.6-3.5,2.7c-0.6,2.6,1.5,15.2,3.2,19.6
	c0.5,1.2-1.7,0.3-7.3-3.1c-9.5-5.8-23-10.5-28.7-10l-4,0.3l0.1,4.6c0,2.9,0.8,5.8,2.3,8.3l2.4,3.7l41.6-0.8
	c22.9-0.4,66.2-0.8,96.4-0.8h54.7v-29.8c0-26.9-0.2-29.9-1.6-29.3c-0.9,0.3-2.8,0.6-4.4,0.6c-2.4,0-3.2,0.9-6.3,6.7
	c-1.9,3.8-4.7,10.6-6.3,15.3l-2.8,8.4l-1.1-4.9c-0.7-2.8-1.7-6.1-2.3-7.5c-1.2-3-5.9-7.5-8.7-8.4c-3.5-1-8.4,2.9-10.9,8.7
	c-1.3,2.8-2.8,6.3-3.4,7.7c-1,2.4-1.1,2.4-1.1-1.1c-0.1-5.8-2.2-15.1-4.2-19c-2.1-4.1-4.8-5.5-7.7-4c-2.7,1.4-7.6,11.2-10.8,21.6
	l-2.8,8.9l-1.7-12.1c-4.3-29.5-12.4-48.7-22.6-52.9C2557.6,301.7,2557.1,301.7,2554.8,302.5z"/>
<linearGradient id="region-2-11_00000134953475175765428140000004623401088053850008_" gradientUnits="userSpaceOnUse" x1="1626.4263" y1="-4.8653" x2="1626.4263" y2="-5.8653" gradientTransform="matrix(160.6856 0 0 -98.1757 -259482.8125 -168.7285)">
	<stop  offset="0" style="stop-color:#697500;stop-opacity:0.641"/>
	<stop  offset="1" style="stop-color:#697501;stop-opacity:0.822"/>
</linearGradient>
<path id="region-2-11_00000166649762810416463850000015941311981043069831_" style="fill:url(#region-2-11_00000134953475175765428140000004623401088053850008_);" d="
	M1809.4,310.7c-4.4,4.8-7.2,27-6.3,49.3c0.2,7.1,0.4,12.8,0.2,12.8c-0.1,0-1.8-2.4-3.7-5.3c-7.3-10.9-16.6-18.1-19-14.6
	c-1.7,2.6,1.4,19.1,4.1,21.8c1.2,1.2,17.3,5.6,46.7,12.8c40.9,10.1,50.7,12.5,74.6,17.9l7.7,1.7l4.3-2.8
	c14.9-9.7,22.8-18.2,22.8-24.6c0-3.2-0.4-4.1-2.5-5.1c-3.9-1.8-12.9,0.3-26,6l-11.4,5l-2.2-2.4c-2.6-2.8-5.8-3-10-0.8
	c-1.7,0.8-3.2,1.4-3.4,1.2c-0.2-0.2,0.1-2.5,0.6-5.2c0.9-5,0.5-8-1.3-10.3c-1.6-2-5.9,0.9-10.8,7.1c-2.3,3.1-4.4,5.6-4.7,5.6
	c-0.2,0-0.1-2.7,0.3-5.9c0.9-8.1-0.3-18.1-2.5-21c-4.2-5.5-9.7,0.2-14.8,15.5c-2.1,6.2-2.8,7.4-3.4,5.9c-0.5-1.1-2.9-7.4-5.5-14
	c-9.5-24.6-20.6-45.4-27-50.4C1812.9,308.3,1811.6,308.3,1809.4,310.7z"/>
<linearGradient id="region-2-12_00000171688168853178495000000012167309153330104246_" gradientUnits="userSpaceOnUse" x1="1625.8091" y1="-4.9544" x2="1625.8782" y2="-6.3075" gradientTransform="matrix(430.5432 0 0 -96.3197 -697755.5 -164.724)">
	<stop  offset="0" style="stop-color:#667200;stop-opacity:0.642"/>
	<stop  offset="1" style="stop-color:#677100;stop-opacity:0.858"/>
</linearGradient>
<path id="region-2-12_00000092437346156884556710000013390012840104122768_" style="fill:url(#region-2-12_00000171688168853178495000000012167309153330104246_);" d="
	M2113.7,317.1c-8,5.3-13.6,24.1-14.7,49.2l-0.7,14l-2.8-6c-6.1-13-12.5-15.8-19.2-8.4c-2,2.3-4.5,5.9-5.4,8l-1.7,3.8l-4.5-4.5
	c-10.6-11-22.5-18.6-29-18.8c-7.7-0.2-10.5,6.2-9.5,21.4c0.9,12.8,1.4,16.2,4,26.5l2.2,8.8l9.4-0.2c5.2-0.1,21.4-0.6,36-1.1
	c14.6-0.6,39.1-1.4,54.5-2c26-0.9,39.8-1.4,102.5-4c12.9-0.5,37.7-1.4,55-2s42.5-1.5,56-2c13.5-0.6,42.7-1.5,65-2.1
	c28.4-0.7,40.9-1.4,41.7-2.2c2.1-2.1,4.7-13.9,3.9-17.9c-1.8-9.8-9.1-9.1-20.5,1.9l-4.9,4.8l-0.5-11.5c-0.9-17.6-4.3-27.8-11.2-33.8
	c-5.3-4.7-7.9-4.3-14.5,2.5c-6.6,6.9-13.2,19.7-20.4,39.8c-0.6,1.6-1.2,0.9-3.1-3.8c-1.2-3.2-2.8-6.4-3.5-7.2
	c-3.1-3.7-7.8,0-13.4,10.4l-3.4,6.3l-3.3-6.7c-1.8-3.7-5.2-8.7-7.6-11.2c-3.6-3.7-4.9-4.4-7.5-4.1c-3.8,0.4-6.8,4.3-9.3,12.1
	c-0.9,2.9-1.9,5.9-2.2,6.7c-0.2,0.8-1.6-2.3-2.9-6.9c-3.6-12.1-8-20.4-15.2-28.2c-12.6-13.7-23.5-14.5-34.9-2.7
	c-5,5.2-11.1,14.6-14.4,22.2c-1.3,3-2.7,5.6-3,5.6s-1.1-1.2-1.8-2.7c-1.9-4.2-8.1-12.2-10.2-13.4c-3.7-1.9-10.9,4.6-17.4,15.8
	c-1.1,1.8-2.3,3.3-2.7,3.3s-4.3,2.4-8.7,5.4l-7.9,5.4l-2.1-5.7c-4-11-8.1-11.6-15.7-2.3c-5.5,6.8-6.6,7.4-5.3,3
	c1.5-5.4,1.1-14.6-0.8-17.9c-1.7-2.8-6.7-5.9-9.6-5.9c-1.9,0-8.2,4.3-11.2,7.8c-1.3,1.5-4.1,5.8-6.1,9.7c-2.1,3.8-3.9,6.5-4,6
	c-0.2-0.6-1.2-5.5-2.4-11.1c-5.8-29.3-15.4-49.4-26.1-55C2124.4,314,2117.7,314.4,2113.7,317.1z"/>
<linearGradient id="region-2-13_00000078740243635560533880000000165896633413954182_" gradientUnits="userSpaceOnUse" x1="1625.5857" y1="-2.3498" x2="1625.7955" y2="-4.2488" gradientTransform="matrix(886 0 0 -169.5567 -1438125 -84.3194)">
	<stop  offset="0" style="stop-color:#757F24;stop-opacity:0.425"/>
	<stop  offset="1" style="stop-color:#72901F;stop-opacity:0.569"/>
</linearGradient>
<path id="region-2-13_00000033342481834729061270000011387112702633708931_" style="fill:url(#region-2-13_00000078740243635560533880000000165896633413954182_);" d="
	M1986,323.8c-6.7,4.1-14.2,19.9-20.2,42.7c-1,3.9-1.3,4.2-3.8,3.7c-5.4-1.1-9,6.7-9.9,21.3c-0.3,5.1-0.8,9.3-1,9.3s-1.7-1.6-3.4-3.5
	c-5.7-6.4-8.8-4.2-9.8,6.7c-0.7,8.5,1.3,8-17.6,4.3c-24.9-5-52-11.4-98-23.1c-20.3-5.2-39.6-9.7-42.7-10l-5.8-0.6v55.5v55.5
	l13.7,0.7c7.6,0.3,19.2,1,25.8,1.5c43.2,3.3,97,3.6,167.5,1c47.3-1.7,199.7-0.8,241.5,1.5c37.2,2,55.4,1.6,128-2.5
	c23.5-1.4,90-5.7,108.5-7.1c8-0.5,20.6-1.4,28-1.9s15.1-1.2,17-1.5c1.9-0.2,11.6-0.9,21.5-1.5c30.7-1.7,29.9-1.6,31.8-5.6
	c2.9-6,7.7-6.4,15.5-1.3l4.3,2.9l4.3-2c4.2-2,4.3-2.2,5.9-9.8c3.5-15.8,9-23.2,17.5-23.2c10.4,0,18.3,10.1,20.7,26.4l0.8,4.8
	l3.6-0.6c2-0.3,9.6-0.8,16.9-1.2l13.2-0.7v-35.2v-35.2l-13.7-0.6c-35.2-1.7-192.3,1-299.3,5.3c-14.6,0.5-40.4,1.5-57.5,2
	c-17,0.6-41.6,1.5-54.5,2c-64.3,2.7-76.6,3.2-102.5,4c-15.4,0.6-39.9,1.4-54.5,2c-14.6,0.5-30.8,1-36,1.1l-9.5,0.2l-2.4-10.4
	c-1.3-5.7-2.7-11.1-3.1-12c-0.4-0.8-1.8-5-3-9.3c-6.4-22.7-20.8-51.1-28.3-55.7C1991.5,321.3,1990.1,321.3,1986,323.8z"/>
<linearGradient id="region-2-14_00000109712405123463190290000002256237026420409773_" gradientUnits="userSpaceOnUse" x1="1626.4193" y1="-5.5555" x2="1626.5229" y2="-6.6534" gradientTransform="matrix(152 0 0 -87.2805 -244641 -51.7969)">
	<stop  offset="0" style="stop-color:#575F1E;stop-opacity:0.511"/>
	<stop  offset="1" style="stop-color:#5B6323;stop-opacity:0.578"/>
</linearGradient>
<path id="region-2-14_00000000938402553003400960000018310791087238287018_" style="fill:url(#region-2-14_00000109712405123463190290000002256237026420409773_);stroke:#000000;stroke-width:2;stroke-miterlimit:10;" d="
	M2596.7,439.5c-4,3.4-7.4,10.7-9.6,20.5c-1.6,7.6-1.7,7.8-5.9,9.8l-4.3,2l-4.3-2.9c-10.3-6.8-15.9-3.8-17.4,9.3
	c-0.7,5.4-0.7,5.5-3.6,4.9c-3.8-0.7-6.5,1.8-8,7.4l-1,4.3h-9.2c-11.9,0-18.4,1.9-22.5,6.5c-2.4,2.8-3.1,4.5-3.1,7.8
	c0,2.3,0.4,4.8,0.8,5.5c0.5,0.7,10.2,3.1,21.8,5.3l20.9,4.1l30-0.6c29.4-0.5,46.7-1.9,61.8-5.1c3.9-0.8,9.3-1.5,12-1.5h4.7v-25.6
	v-25.7l-13.2,0.7c-7.3,0.4-14.9,0.9-16.9,1.2l-3.6,0.6l-0.8-4.8c-1.6-11.3-6.6-20.6-12.9-24.5
	C2607.6,435.8,2600.7,436.1,2596.7,439.5z"/>
<linearGradient id="region-2-15_00000067215706207406254970000001190449137548189876_" gradientUnits="userSpaceOnUse" x1="1629.9612" y1="-40.6644" x2="1631.1022" y2="-41.2254" gradientTransform="matrix(29.3 0 0 -13.8987 -45957.5 -69.9952)">
	<stop  offset="0" style="stop-color:#DFC6D8;stop-opacity:0.739"/>
	<stop  offset="1" style="stop-color:#E6C9E1;stop-opacity:0.772"/>
</linearGradient>
<path id="region-2-15_00000052787528534717556970000007347177011814695045_" style="fill:url(#region-2-15_00000067215706207406254970000001190449137548189876_);stroke:#000000;stroke-width:2;stroke-miterlimit:10;" d="
	M1811.2,493.7c-3.7,1.7-7.4,6.6-7.4,9.9c0,0.9,14.3,2.2,24.4,2.2h4.9l-0.7-3.2c-0.8-3.9-4-7.6-8.3-9.4
	C1819.8,491.3,1816.1,491.5,1811.2,493.7z"/>
<linearGradient id="region-2-16_00000028313233179490036920000016861769762548904638_" gradientUnits="userSpaceOnUse" x1="1637.7587" y1="-94.9667" x2="1637.7587" y2="-95.9667" gradientTransform="matrix(12.1402 0 0 -6 -18019.9883 -77)">
	<stop  offset="0" style="stop-color:#DEC7D6;stop-opacity:0.782"/>
	<stop  offset="1" style="stop-color:#E1C8D9;stop-opacity:0.795"/>
</linearGradient>
<path id="region-2-16_00000031183677183208625010000009777835518849100438_" style="fill:url(#region-2-16_00000028313233179490036920000016861769762548904638_);stroke:#000000;stroke-width:2;stroke-miterlimit:10;" d="
	M1859,494.4c-4.1,2.9-2.8,4.4,3.8,4.4c4.6,0,6-0.3,6-1.4c0-1.7-3.8-4.6-6-4.6C1861.9,492.8,1860.2,493.5,1859,494.4z"/>
<linearGradient id="region-2-17_00000088105743356640914800000001947962340303540380_" gradientUnits="userSpaceOnUse" x1="1631.6608" y1="-58.5461" x2="1632.7848" y2="-59.1764" gradientTransform="matrix(21.9 0 0 -9.7082 -33702.5 -72.0071)">
	<stop  offset="0" style="stop-color:#D8C6CC;stop-opacity:0.774"/>
	<stop  offset="1" style="stop-color:#E0C9D4;stop-opacity:0.805"/>
</linearGradient>
<path id="region-2-17_00000163042916591665929000000005784024129187698830_" style="fill:url(#region-2-17_00000088105743356640914800000001947962340303540380_);stroke:#000000;stroke-width:2;stroke-miterlimit:10;" d="
	M2039.2,494.7c-2.6,1.2-5.4,4.9-5.4,7.3c0,1.6,1.1,1.8,10.9,1.8h11l-1-2.9c-0.6-1.6-1.9-3.7-2.9-4.6
	C2049.6,494.3,2042.3,493.4,2039.2,494.7z"/>
<linearGradient id="region-2-18_00000176011779236529551990000008621406099196524955_" gradientUnits="userSpaceOnUse" x1="1628.6035" y1="-15.4514" x2="1628.6035" y2="-16.4514" gradientTransform="matrix(47.935 0 0 -35 -75701.3438 -47)">
	<stop  offset="0" style="stop-color:#271804;stop-opacity:0.251"/>
	<stop  offset="1" style="stop-color:#241302;stop-opacity:0.314"/>
</linearGradient>
<path id="region-2-18_00000032649487724334776060000001500028195915830156_" style="fill:url(#region-2-18_00000176011779236529551990000008621406099196524955_);stroke:#000000;stroke-width:2;stroke-miterlimit:10;" d="
	M2352.7,495.9c-0.6,1.3-0.9,6.2-0.7,13c0.1,6,0.2,10.9,0.2,10.9c-0.1,0-1.5-0.7-3-1.5c-1.6-0.8-3.9-1.5-5.1-1.5
	c-1.9,0-2.3,0.6-2.3,3c0,1.7,0.7,4.4,1.5,6l1.6,3h19.9h19.9l2.1-4.8c1.2-2.6,2.4-6.4,2.7-8.5c0.5-3.5,0.4-3.7-2.3-3.7
	c-1.8,0-4.4,1.2-6.8,3.2c-3.8,3.1-3.9,3.2-3.3,0.8c0.3-1.4,1.1-5.3,1.8-8.7c2.7-14.2-3.5-11.6-10.5,4.5c-1.1,2.3-2.2,3.9-2.6,3.5
	c-0.4-0.4-1.7-4-2.9-7.8c-2.2-6.7-6.2-13.5-8.1-13.5C2354.3,493.8,2353.4,494.7,2352.7,495.9z"/>
<linearGradient id="region-2-19_00000140715994384702571730000011903134289982514084_" gradientUnits="userSpaceOnUse" x1="1628.9335" y1="-16.4485" x2="1628.9335" y2="-17.4485" gradientTransform="matrix(43.3437 0 0 -33 -68657.4844 -47)">
	<stop  offset="0" style="stop-color:#281A04;stop-opacity:0.262"/>
	<stop  offset="1" style="stop-color:#261603;stop-opacity:0.324"/>
</linearGradient>
<path id="region-2-19_00000047746304243111225020000007437471833649901738_" style="fill:url(#region-2-19_00000140715994384702571730000011903134289982514084_);stroke:#000000;stroke-width:2;stroke-miterlimit:10;" d="
	M1942.6,498c-0.6,1.3-1.4,6.5-1.6,11.6c-0.3,5.1-0.7,9.2-1.1,9c-0.3-0.2-2.8-1.5-5.6-2.9c-2.7-1.5-6-3-7.2-3.3
	c-3.6-1.1-2.9,2,2.2,9.7l4.5,6.7h14.2c13.6,0,14.2-0.1,17.5-2.6c3.7-2.8,3.6-4.4-0.4-4.4c-2.3,0-2.4-0.3-1.7-2.8
	c0.4-1.5,0.8-4.7,0.8-7.2c0.1-6.8-2.3-6.5-7.9,1l-4.5,6.2v-4c0-9.2-3.4-19.2-6.5-19.2C1944.5,495.8,1943.3,496.8,1942.6,498z"/>
<linearGradient id="region-2-20_00000072265791872147548420000010485812383381078450_" gradientUnits="userSpaceOnUse" x1="1630.1713" y1="-43.171" x2="1630.8926" y2="-44.4476" gradientTransform="matrix(29.1393 0 0 -13.0247 -45392.3281 -63.9953)">
	<stop  offset="0" style="stop-color:#0A1264;stop-opacity:0.569"/>
	<stop  offset="1" style="stop-color:#020868;stop-opacity:0.609"/>
</linearGradient>
<path id="region-2-20_00000085935743833273148610000016180722340123541936_" style="fill:url(#region-2-20_00000072265791872147548420000010485812383381078450_);stroke:#000000;stroke-width:2;stroke-miterlimit:10;" d="
	M2114.1,500.8c-3.2,1.9-6.3,6.6-6.3,9.5c0,1.3,2.1,1.5,14.5,1.5c16.2,0,16.5-0.2,12.5-6.8C2131.1,499,2120.5,496.8,2114.1,500.8z"/>
<linearGradient id="region-2-21_00000121989458114958294570000008999545449261153705_" gradientUnits="userSpaceOnUse" x1="1635.446" y1="-79.7582" x2="1635.446" y2="-80.7582" gradientTransform="matrix(14.9602 0 0 -7.1299 -22620.2812 -63.0309)">
	<stop  offset="0" style="stop-color:#384A5C;stop-opacity:0.802"/>
	<stop  offset="1" style="stop-color:#3B4E5B;stop-opacity:0.798"/>
</linearGradient>
<path id="region-2-21_00000092417229063325685490000018384020088165028752_" style="fill:url(#region-2-21_00000121989458114958294570000008999545449261153705_);stroke:#000000;stroke-width:2;stroke-miterlimit:10;" d="
	M1840.4,508c-2.9,4.2-2.2,4.8,5.9,4.8c6.6,0,7.5-0.2,7.5-1.8C1853.8,505.9,1843.4,503.6,1840.4,508z"/>
<linearGradient id="region-2-22_00000101798243722552585530000007447330039105331593_" gradientUnits="userSpaceOnUse" x1="1631.5009" y1="-51.7712" x2="1632.3634" y2="-52.9279" gradientTransform="matrix(22.8482 0 0 -10.9128 -34827.3203 -51.0047)">
	<stop  offset="0" style="stop-color:#020966;stop-opacity:0.545"/>
	<stop  offset="1" style="stop-color:#000468;stop-opacity:0.58"/>
</linearGradient>
<path id="region-2-22_00000170241877329206019600000011690254567421503363_" style="fill:url(#region-2-22_00000101798243722552585530000007447330039105331593_);stroke:#000000;stroke-width:2;stroke-miterlimit:10;" d="
	M2457.1,514.9c-3.5,1-7.3,5.2-7.3,8c0,1.7,0.9,1.9,11.5,1.9c12.6,0,12.9-0.2,9.5-5.7c-1.3-2.1-3.1-3.5-5.7-4.2c-2.1-0.6-4-1.1-4.3-1
	C2460.5,513.9,2458.9,514.4,2457.1,514.9z"/>
<g id="layer-3_00000099630117140526926940000002352513170567581084_">
	
		<linearGradient id="region-3-1_00000061438795029559888000000016466319990305288850_" gradientUnits="userSpaceOnUse" x1="1632.7723" y1="-1.2687" x2="1634.5143" y2="-2.1388" gradientTransform="matrix(131.6813 0 0 -276.5884 -211702.9844 -192.4932)">
		<stop  offset="0" style="stop-color:#633332;stop-opacity:0.75"/>
		<stop  offset="1" style="stop-color:#5B2A00;stop-opacity:0.852"/>
	</linearGradient>
	
		<path id="region-3-1_00000026843646610457186100000000700520106546881979_" style="fill:url(#region-3-1_00000061438795029559888000000016466319990305288850_);" d="
		M3428.4,137c-0.2,0.7-0.8,5.6-1.4,10.8c-1,8.6-4.9,30.1-5.6,30.8c-0.1,0.2-1-1.8-1.9-4.5c-1.9-5.4-9.3-18.3-10.5-18.3
		c-0.5,0,0.7,3.6,2.6,8.1c4.5,10.3,6.9,23.5,5.3,28.7c-2,6.1-8.7,17.9-18.5,32.2c-5.1,7.4-10,15-10.9,16.8l-1.7,3.4l-6.1-10.9
		c-3.3-5.9-8.2-14.4-10.9-18.8c-4.9-8-7.8-17.5-7.9-25.1c0-1.7-0.3-4.7-0.7-6.5c-0.6-2.7-0.9-1.3-1.3,6l-0.5,9.3l-5.9-8.5
		c-3.2-4.8-6.8-9.4-7.9-10.4c-2.3-2-2.1-1.6,3.2,6.7c3.7,5.9,16,27.4,15.7,27.7c-0.1,0.1-3-0.4-6.6-1.2c-10.3-2-14-2.4-14-1.5
		c0,0.5,1.5,1.1,3.3,1.5c1.7,0.4,7,1.8,11.6,3.1l8.3,2.5l8.1,16.7c7.4,15.4,8.1,17.5,9.3,26.7c0.8,5.5,1.4,11.5,1.4,13.3v3.2
		l-3.7-1.6c-7.9-3.2-20-5.5-33.5-6.1c-14.8-0.7-15.1-0.8-20.7-7.9c-3.3-4.2-3.4-2.3-0.1,2.9l2.9,4.7l-4.7-0.6
		c-2.6-0.3-6.4-0.7-8.4-1c-3.6-0.4-5.3,0.9-2.5,1.9c0.6,0.2-0.5,0.8-2.5,1.2c-7.2,1.4-3.7,2,9.6,1.7c14-0.4,33.1,1.5,44,4.3
		c3.2,0.8,9.1,3,13.1,4.9l7.3,3.4l0.7,20.8c0.4,11.5,0.5,37,0.2,56.6c-0.5,34.9-0.5,35.7,1.5,37.5c1.1,1,3.6,4,5.4,6.8
		c3.4,5,3.4,5,3.4,1.9c0-10.6,5.2-12.2,13.6-4.2l3.1,2.9l0.6-3.8c1.2-7.1,0.7-11.6-2.3-21.1c-9.6-29.8-17.5-75.3-18.1-104.4
		c-0.3-9.1-0.1-9.9,2.6-14c6.9-10.5,23.2-24.5,33.3-28.7c2.9-1.2,4.4-3.1,2.4-3.1c-0.4,0-5.7,2.5-11.7,5.4
		c-7.2,3.6-13.7,7.8-18.9,12.2l-7.9,6.7l0.7-4.4c2.2-14.1,20.7-34.4,40.4-44.3c3-1.5,5.2-2.9,5-3.2c-0.8-0.7-10.8,3.1-18.5,7
		l-7.2,3.6l3.4-8c4.3-10.2,7.1-19.1,9.6-31C3429.8,164.5,3431.1,128.6,3428.4,137z"/>
	
		<linearGradient id="region-3-2_00000005987985246383436400000005981015316540966330_" gradientUnits="userSpaceOnUse" x1="1634.8834" y1="-1.1319" x2="1635.3982" y2="-2.1474" gradientTransform="matrix(106.3798 0 0 -270.1 -171166.4531 -194.9013)">
		<stop  offset="0" style="stop-color:#61342A;stop-opacity:0.74"/>
		<stop  offset="1" style="stop-color:#5E2E00;stop-opacity:0.859"/>
	</linearGradient>
	
		<path id="region-3-2_00000140717768383608106500000012587914574141644441_" style="fill:url(#region-3-2_00000005987985246383436400000005981015316540966330_);" d="
		M2767.4,151.6v11.7l-6.6,20c-3.7,11-6.8,20.9-7.1,22c-0.3,1.4-2-1.3-5.5-8.5c-5.1-10.5-16-28.1-18.3-29.5c-0.7-0.5-0.1,1.2,1.4,3.6
		c5.4,8.6,15.4,30.1,17.9,38.2c1.9,6,2.7,11.4,3.1,20.2c0.3,6.6,1.1,18.3,1.8,26s1.3,27,1.3,43c0,25.2-0.4,32.4-2.9,55
		c-1.8,16.1-2.9,31.9-3,41.3l-0.1,15.3l3-3.8c3.2-4.1,7.2-8.2,9.5-9.8c1.3-0.9,1.4-10.4,0.9-73.5c-0.3-39.9-0.9-73.7-1.3-75.2
		c-0.7-2.4-0.2-3.1,5.1-7.2c15.4-12.1,40.5-20.3,67.3-21.9c3.6-0.2,2.7-0.4-3.9-1.1l-8.3-0.9l3.6-2c5.4-3.1,4.3-3.9-1.6-1.2
		c-2.9,1.3-7.7,3-10.6,3.9c-4.9,1.4-5.2,1.4-4.3-0.2c1.6-3.1,3-9.2,2-9.2c-0.5,0-0.9,0.6-0.9,1.3s-1.3,3.4-2.9,5.9l-2.9,4.5
		l-11.1,2.8c-10.9,2.7-22.3,7.4-28.3,11.6c-1.7,1.2-3.3,1.8-3.8,1.3s-1.2-6.3-1.6-12.9l-0.6-12l5.6-22.9c3.1-12.6,5.9-25.2,6.2-28.1
		c0.6-5.1-1.2-19.5-2.4-19.5C2767.7,139.8,2767.4,145.1,2767.4,151.6z"/>
	
		<linearGradient id="region-3-3_00000018237115693549731020000018200955081779522459_" gradientUnits="userSpaceOnUse" x1="1644.7277" y1="-2.9036" x2="1647.8505" y2="-3.3975" gradientTransform="matrix(52 0 0 -171.1679 -82469 -188.027)">
		<stop  offset="0" style="stop-color:#6D4B35;stop-opacity:0.742"/>
		<stop  offset="1" style="stop-color:#5B2800;stop-opacity:0.878"/>
	</linearGradient>
	
		<path id="region-3-3_00000018946025507232339860000018356915188081868935_" style="fill:url(#region-3-3_00000018237115693549731020000018200955081779522459_);" d="
		M3105.6,251c-0.3,2.9-1.1,7.7-1.7,10.6l-1.2,5.3l-2.8-5.8c-1.6-3.2-3.8-6.9-5-8.3c-1.6-1.9-1.3-0.9,1.1,4c2.1,4.3,3.3,8.5,3.7,12.5
		c0.5,7.2-0.3,9.2-10.7,25l-6.9,10.4l-5.3-9.2c-7.7-13.5-7.8-13.7-8.8-21.3l-0.8-6.9l-0.2,6l-0.1,6l-3.1-4.8c-5.3-8-5.1-5.2,0.1,3.5
		c2.8,4.6,5,8.6,5,9.1c0,0.7-2.4,0.4-7.2-1c-1-0.2-1.8-0.1-1.8,0.4s2.4,1.5,5.3,2.3l5.2,1.5l5.3,10.6l5.4,10.5l1.3,32.5
		c0.8,17.8,1.5,38.1,1.5,45c0,11.3,0.2,12.8,2,14.4c1.1,1,3,4.4,4.1,7.6l2.2,5.9l2.8-2.1c1.6-1.1,2.9-2.9,2.9-3.9
		s-1.8-14.3-3.9-29.7c-2.2-15.3-4.7-35.3-5.7-44.5l-1.7-16.7l2.9-4.2c3.3-4.8,9.1-9.9,16-14.1c2.8-1.6,3.8-2.6,2.4-2.2
		c-4.9,1.3-12.3,5.6-16.8,9.7l-4.5,4.2l0.6-3.2c1.5-7.6,12.2-19.7,21.5-24.1c1.7-0.9,3.2-1.9,3.2-2.4c0-0.9-3.2,0.3-9,3.2
		c-2.2,1.1-4,1.9-4,1.7s1.1-3.1,2.5-6.6c3.3-8.1,5.2-16.5,6-27.4C3108.1,245.1,3106.6,242,3105.6,251z"/>
	
		<linearGradient id="region-3-4_00000065777446134318465030000004178512316948586172_" gradientUnits="userSpaceOnUse" x1="1636.4016" y1="-5.6608" x2="1636.4016" y2="-6.6608" gradientTransform="matrix(94.3798 0 0 -90.7974 -151578.7656 -163.071)">
		<stop  offset="0" style="stop-color:#AAE17F;stop-opacity:0.556"/>
		<stop  offset="1" style="stop-color:#ACDD54;stop-opacity:0.408"/>
	</linearGradient>
	
		<path id="region-3-4_00000117661750661857990330000016581620060382401971_" style="fill:url(#region-3-4_00000065777446134318465030000004178512316948586172_);stroke:#000000;stroke-width:2;stroke-miterlimit:10;" d="
		M2866.1,352.8c-6.7,4.1-14.2,19.9-20.2,42.7c-1,3.9-1.3,4.2-3.8,3.7c-5.4-1.1-9,6.7-9.9,21.3c-0.3,5.1-0.8,9.3-1,9.3
		s-1.7-1.6-3.4-3.5c-5.7-6.4-8.7-4.3-9.8,6.9l-0.7,7.5l7.6,0.7c8.6,0.8,85.8-0.1,86.7-1c0.7-0.7-3.4-20-4.7-22.7
		c-0.4-0.8-1.8-5-3-9.3c-6.4-22.7-20.8-51.1-28.3-55.7C2871.6,350.3,2870.2,350.3,2866.1,352.8z"/>
	
		<linearGradient id="region-3-5_00000134964871197367398630000004552754776703571335_" gradientUnits="userSpaceOnUse" x1="1637.8259" y1="-12.1872" x2="1637.926" y2="-13.2873" gradientTransform="matrix(83 0 0 -45.7277 -132957 -104.0306)">
		<stop  offset="0" style="stop-color:#200A29;stop-opacity:0.127"/>
		<stop  offset="1" style="stop-color:#1F062D;stop-opacity:0.167"/>
	</linearGradient>
	
		<path id="region-3-5_00000005981799769201413280000007594347763197999746_" style="fill:url(#region-3-5_00000134964871197367398630000004552754776703571335_);stroke:#000000;stroke-width:2;stroke-miterlimit:10;" d="
		M2992.4,457.2c-2.4,3.7-6.1,15-7.6,23.3c-0.7,4-1.6,7.3-1.9,7.3c-0.3,0-1.6-3.7-2.8-8.3c-2.8-9.9-8.1-21.1-10.3-21.5
		c-2.5-0.5-3.8,4-5.1,18.1l-1.2,13.3l-5.5-3.3c-6.7-4-11.1-4.4-11.1-1c0,1.3,1.7,5.2,3.9,8.8l3.9,6.4l34.5,0.3l34.5,0.2l3.1-3.5
		c1.7-2,3.1-4.2,3.1-5c0-2.5-3.8-3.7-9.6-2.9c-6,0.7-6.2,0.5-3.9-4.9c1.9-4.5,1.9-9.6,0.2-10.3c-2.4-0.9-6.7,1.5-12.3,6.7l-5.4,5.2
		v-12.9c0-12.7-0.9-17.2-3.7-18.1C2994.6,454.9,2993.3,455.8,2992.4,457.2z"/>
	
		<linearGradient id="region-3-6_00000153682588828903111270000008995978681990587026_" gradientUnits="userSpaceOnUse" x1="1632.387" y1="-8.4029" x2="1632.8683" y2="-9.7467" gradientTransform="matrix(142 0 0 -63.9777 -229115 -85.1399)">
		<stop  offset="0" style="stop-color:#474B2A;stop-opacity:0.236"/>
		<stop  offset="1" style="stop-color:#4D4E30;stop-opacity:0.297"/>
	</linearGradient>
	
		<path id="region-3-6_00000061443534889110899180000000774060184602312859_" style="fill:url(#region-3-6_00000153682588828903111270000008995978681990587026_);stroke:#000000;stroke-width:2;stroke-miterlimit:10;" d="
		M2705.5,458.7c-4.9,5.1-6.8,13.6-7.4,31.9c-0.4,15.5-0.5,16.3-2.1,14c-3.9-5.8-7.7-9.8-9.3-9.8c-2.2,0-4.5,3.5-5.3,8.3l-0.7,3.7
		l-4.4-3.9c-8.6-8-12.4-6.6-12.4,4.5v7.3l3.3,0.5c1.7,0.3,9,0.8,16.2,1.1c7.2,0.4,19.1,1.1,26.5,1.6c20.3,1.3,96,2.4,96,1.3
		c-0.1-1.7-3.5-5.2-7-7c-2.8-1.5-5.6-1.9-13.7-1.9l-10.3,0.1v-4.9c0-5.8-2.3-11.7-4.5-11.7c-2,0-7,5.1-9.3,9.4l-1.6,3.1l-1.3-7.5
		c-1.7-10.2-4-15.9-6.9-17.2c-2.1-1-2.8-0.8-5.3,1.6c-1.6,1.6-4,5.3-5.3,8.4c-5.2,12-4.7,11.1-4.7,7.5c-0.2-9.1-5.6-27.5-10.1-34.7
		C2720.3,455.6,2711,453,2705.5,458.7z"/>
	
		<linearGradient id="region-3-7_00000016044457069642102270000003972087121018425502_" gradientUnits="userSpaceOnUse" x1="1658.2719" y1="-42.4862" x2="1658.5474" y2="-43.7593" gradientTransform="matrix(31.2 0 0 -13.8877 -48580.2031 -119.9864)">
		<stop  offset="0" style="stop-color:#040E7A;stop-opacity:0.498"/>
		<stop  offset="1" style="stop-color:#00087F;stop-opacity:0.534"/>
	</linearGradient>
	
		<path id="region-3-7_00000168081392702189684600000000832622607794096309_" style="fill:url(#region-3-7_00000016044457069642102270000003972087121018425502_);stroke:#000000;stroke-width:2;stroke-miterlimit:10;" d="
		M3157.2,472.7c-4.4,2-6.7,4.8-7.8,9.3l-0.7,2.8h15.6c14.2,0,15.6-0.2,15.6-1.8c0-3.3-4-8.3-8.3-10.2
		C3166.3,470.3,3162.5,470.3,3157.2,472.7z"/>
	
		<linearGradient id="region-3-8_00000082332093659625196550000002649320985507333257_" gradientUnits="userSpaceOnUse" x1="1655.2959" y1="-25.5845" x2="1656.4291" y2="-25.7278" gradientTransform="matrix(33.9041 0 0 -23.1 -52617.0664 -86.9001)">
		<stop  offset="0" style="stop-color:#98C246;stop-opacity:0.757"/>
		<stop  offset="1" style="stop-color:#A3CE50;stop-opacity:0.802"/>
	</linearGradient>
	
		<path id="region-3-8_00000021106343938130594590000007381139105228188328_" style="fill:url(#region-3-8_00000082332093659625196550000002649320985507333257_);stroke:#000000;stroke-width:2;stroke-miterlimit:10;" d="
		M3515.6,495.9c-4.9,0.4-9.1,1-9.3,1.2c-0.3,0.3-0.4,3.3-0.2,6.7l0.3,6.1l3.6-5.3c6.9-10.3,12.4-10.1,12.4,0.5c0,2.9-0.4,6.9-0.8,9
		l-0.8,3.8l4.9-5c4.5-4.7,5.2-5.1,9.5-5.1h4.7v-6.5v-6.5l-7.7,0.1C3527.9,495,3520.4,495.4,3515.6,495.9z"/>
	<line class="st67" x1="1772" y1="0" x2="1772" y2="548"/>
	<line class="st67" x1="2658" y1="0" x2="2658" y2="548"/>
	<line class="st67" x1="886" y1="0" x2="886" y2="548"/>
</g>
</svg>
